File: ../../sample-midi/Aha - Take On Me.mid
Format: 1
Tracks: 12
Ticks per quarter note: 96

Track chunk of 25 bytes
000000t:  Meta-event type $58 (Time signature) of length 4
	  ____
000000t:  Meta-event type $59 (Key signature) of length 2
	  __
000000t:  Meta-event type $51 (Set tempo) of length 3
	  _j’
000000t:  Meta-event type $2f (End-track event) of length 0
Sigma t = 0

Track chunk of 4425 bytes
000000t:  Meta-event type $21 (?) of length 1
	  _
000000t:  Meta-event type $03 (Track name) of length 20
	  Slap Bass 2         
000000t:  Program (patch) change ::  Channel 1.  Patch 36 (Slap Bass 1)
000000t:  Control change ::  Channel 1.  Controller 7.  Value: 120
000000t:  Control change ::  Channel 1.  Controller 10.  Value: 60
003438t:  Note on ::  Channel 1.  Note 47.  Velocity 127
000042t:  Note on ::  Channel 1.  Note 47.  Velocity 0
000141t:  Note on ::  Channel 1.  Note 35.  Velocity 127
000044t:  Note on ::  Channel 1.  Note 35.  Velocity 0
000053t:  Note on ::  Channel 1.  Note 35.  Velocity 127
000028t:  Note on ::  Channel 1.  Note 35.  Velocity 0
000019t:  Note on ::  Channel 1.  Note 35.  Velocity 127
000032t:  Note on ::  Channel 1.  Note 35.  Velocity 0
000017t:  Note on ::  Channel 1.  Note 47.  Velocity 127
000039t:  Note on ::  Channel 1.  Note 47.  Velocity 0
000017t:  Note on ::  Channel 1.  Note 47.  Velocity 127
000049t:  Note on ::  Channel 1.  Note 47.  Velocity 0
000039t:  Note on ::  Channel 1.  Note 35.  Velocity 127
000040t:  Note on ::  Channel 1.  Note 35.  Velocity 0
000105t:  Note on ::  Channel 1.  Note 35.  Velocity 127
000030t:  Note on ::  Channel 1.  Note 35.  Velocity 0
000009t:  Note on ::  Channel 1.  Note 35.  Velocity 127
000033t:  Note on ::  Channel 1.  Note 35.  Velocity 0
000024t:  Note on ::  Channel 1.  Note 47.  Velocity 127
000049t:  Note on ::  Channel 1.  Note 47.  Velocity 0
000144t:  Note on ::  Channel 1.  Note 35.  Velocity 127
000042t:  Note on ::  Channel 1.  Note 35.  Velocity 0
000064t:  Note on ::  Channel 1.  Note 35.  Velocity 127
000029t:  Note on ::  Channel 1.  Note 35.  Velocity 0
000017t:  Note on ::  Channel 1.  Note 35.  Velocity 127
000032t:  Note on ::  Channel 1.  Note 35.  Velocity 0
000008t:  Note on ::  Channel 1.  Note 47.  Velocity 127
000040t:  Note on ::  Channel 1.  Note 47.  Velocity 0
000008t:  Note on ::  Channel 1.  Note 47.  Velocity 127
000046t:  Note on ::  Channel 1.  Note 47.  Velocity 0
000050t:  Note on ::  Channel 1.  Note 35.  Velocity 127
000052t:  Note on ::  Channel 1.  Note 35.  Velocity 0
000200t:  Note on ::  Channel 1.  Note 35.  Velocity 127
000032t:  Note on ::  Channel 1.  Note 35.  Velocity 0
000014t:  Note on ::  Channel 1.  Note 35.  Velocity 127
000032t:  Note on ::  Channel 1.  Note 35.  Velocity 0
000017t:  Note on ::  Channel 1.  Note 35.  Velocity 127
000030t:  Note on ::  Channel 1.  Note 35.  Velocity 0
000210t:  Note on ::  Channel 1.  Note 40.  Velocity 127
000036t:  Note on ::  Channel 1.  Note 40.  Velocity 0
000060t:  Note on ::  Channel 1.  Note 40.  Velocity 127
000035t:  Note on ::  Channel 1.  Note 40.  Velocity 0
000062t:  Note on ::  Channel 1.  Note 40.  Velocity 127
000027t:  Note on ::  Channel 1.  Note 40.  Velocity 0
000022t:  Note on ::  Channel 1.  Note 40.  Velocity 127
000130t:  Note on ::  Channel 1.  Note 40.  Velocity 0
000063t:  Note on ::  Channel 1.  Note 33.  Velocity 127
000033t:  Note on ::  Channel 1.  Note 33.  Velocity 0
000014t:  Note on ::  Channel 1.  Note 33.  Velocity 127
000032t:  Note on ::  Channel 1.  Note 33.  Velocity 0
000017t:  Note on ::  Channel 1.  Note 33.  Velocity 127
000034t:  Note on ::  Channel 1.  Note 33.  Velocity 0
000205t:  Note on ::  Channel 1.  Note 38.  Velocity 127
000036t:  Note on ::  Channel 1.  Note 38.  Velocity 0
000061t:  Note on ::  Channel 1.  Note 38.  Velocity 127
000034t:  Note on ::  Channel 1.  Note 38.  Velocity 0
000062t:  Note on ::  Channel 1.  Note 38.  Velocity 127
000032t:  Note on ::  Channel 1.  Note 38.  Velocity 0
000018t:  Note on ::  Channel 1.  Note 37.  Velocity 127
000147t:  Note on ::  Channel 1.  Note 37.  Velocity 0
000046t:  Note on ::  Channel 1.  Note 35.  Velocity 127
000031t:  Note on ::  Channel 1.  Note 35.  Velocity 0
000015t:  Note on ::  Channel 1.  Note 35.  Velocity 127
000031t:  Note on ::  Channel 1.  Note 35.  Velocity 0
000018t:  Note on ::  Channel 1.  Note 35.  Velocity 127
000030t:  Note on ::  Channel 1.  Note 35.  Velocity 0
000210t:  Note on ::  Channel 1.  Note 40.  Velocity 127
000035t:  Note on ::  Channel 1.  Note 40.  Velocity 0
000061t:  Note on ::  Channel 1.  Note 40.  Velocity 127
000034t:  Note on ::  Channel 1.  Note 40.  Velocity 0
000062t:  Note on ::  Channel 1.  Note 40.  Velocity 127
000028t:  Note on ::  Channel 1.  Note 40.  Velocity 0
000022t:  Note on ::  Channel 1.  Note 40.  Velocity 127
000130t:  Note on ::  Channel 1.  Note 40.  Velocity 0
000063t:  Note on ::  Channel 1.  Note 33.  Velocity 127
000033t:  Note on ::  Channel 1.  Note 33.  Velocity 0
000013t:  Note on ::  Channel 1.  Note 33.  Velocity 127
000033t:  Note on ::  Channel 1.  Note 33.  Velocity 0
000016t:  Note on ::  Channel 1.  Note 33.  Velocity 127
000034t:  Note on ::  Channel 1.  Note 33.  Velocity 0
000206t:  Note on ::  Channel 1.  Note 38.  Velocity 127
000036t:  Note on ::  Channel 1.  Note 38.  Velocity 0
000060t:  Note on ::  Channel 1.  Note 38.  Velocity 127
000035t:  Note on ::  Channel 1.  Note 38.  Velocity 0
000062t:  Note on ::  Channel 1.  Note 38.  Velocity 127
000031t:  Note on ::  Channel 1.  Note 38.  Velocity 0
000018t:  Note on ::  Channel 1.  Note 37.  Velocity 127
000148t:  Note on ::  Channel 1.  Note 37.  Velocity 0
000046t:  Note on ::  Channel 1.  Note 35.  Velocity 127
000031t:  Note on ::  Channel 1.  Note 35.  Velocity 0
000015t:  Note on ::  Channel 1.  Note 35.  Velocity 127
000031t:  Note on ::  Channel 1.  Note 35.  Velocity 0
000018t:  Note on ::  Channel 1.  Note 35.  Velocity 127
000031t:  Note on ::  Channel 1.  Note 35.  Velocity 0
000209t:  Note on ::  Channel 1.  Note 40.  Velocity 127
000035t:  Note on ::  Channel 1.  Note 40.  Velocity 0
000061t:  Note on ::  Channel 1.  Note 40.  Velocity 127
000034t:  Note on ::  Channel 1.  Note 40.  Velocity 0
000062t:  Note on ::  Channel 1.  Note 40.  Velocity 127
000027t:  Note on ::  Channel 1.  Note 40.  Velocity 0
000023t:  Note on ::  Channel 1.  Note 40.  Velocity 127
000129t:  Note on ::  Channel 1.  Note 40.  Velocity 0
000064t:  Note on ::  Channel 1.  Note 35.  Velocity 127
000033t:  Note on ::  Channel 1.  Note 35.  Velocity 0
000013t:  Note on ::  Channel 1.  Note 35.  Velocity 127
000034t:  Note on ::  Channel 1.  Note 35.  Velocity 0
000015t:  Note on ::  Channel 1.  Note 35.  Velocity 127
000034t:  Note on ::  Channel 1.  Note 35.  Velocity 0
000206t:  Note on ::  Channel 1.  Note 40.  Velocity 127
000035t:  Note on ::  Channel 1.  Note 40.  Velocity 0
000061t:  Note on ::  Channel 1.  Note 40.  Velocity 127
000034t:  Note on ::  Channel 1.  Note 40.  Velocity 0
000062t:  Note on ::  Channel 1.  Note 40.  Velocity 127
000032t:  Note on ::  Channel 1.  Note 40.  Velocity 0
000018t:  Note on ::  Channel 1.  Note 40.  Velocity 127
000147t:  Note on ::  Channel 1.  Note 40.  Velocity 0
000046t:  Note on ::  Channel 1.  Note 35.  Velocity 127
000032t:  Note on ::  Channel 1.  Note 35.  Velocity 0
000014t:  Note on ::  Channel 1.  Note 35.  Velocity 127
000032t:  Note on ::  Channel 1.  Note 35.  Velocity 0
000017t:  Note on ::  Channel 1.  Note 35.  Velocity 127
000032t:  Note on ::  Channel 1.  Note 35.  Velocity 0
000208t:  Note on ::  Channel 1.  Note 40.  Velocity 127
000036t:  Note on ::  Channel 1.  Note 40.  Velocity 0
000060t:  Note on ::  Channel 1.  Note 40.  Velocity 127
000035t:  Note on ::  Channel 1.  Note 40.  Velocity 0
000061t:  Note on ::  Channel 1.  Note 40.  Velocity 127
000028t:  Note on ::  Channel 1.  Note 40.  Velocity 0
000022t:  Note on ::  Channel 1.  Note 40.  Velocity 127
000130t:  Note on ::  Channel 1.  Note 40.  Velocity 0
000063t:  Note on ::  Channel 1.  Note 33.  Velocity 127
000033t:  Note on ::  Channel 1.  Note 33.  Velocity 0
000014t:  Note on ::  Channel 1.  Note 33.  Velocity 127
000034t:  Note on ::  Channel 1.  Note 33.  Velocity 0
000014t:  Note on ::  Channel 1.  Note 33.  Velocity 127
000035t:  Note on ::  Channel 1.  Note 33.  Velocity 0
000205t:  Note on ::  Channel 1.  Note 38.  Velocity 127
000036t:  Note on ::  Channel 1.  Note 38.  Velocity 0
000061t:  Note on ::  Channel 1.  Note 38.  Velocity 127
000034t:  Note on ::  Channel 1.  Note 38.  Velocity 0
000062t:  Note on ::  Channel 1.  Note 38.  Velocity 127
000032t:  Note on ::  Channel 1.  Note 38.  Velocity 0
000018t:  Note on ::  Channel 1.  Note 37.  Velocity 127
000147t:  Note on ::  Channel 1.  Note 37.  Velocity 0
000046t:  Note on ::  Channel 1.  Note 35.  Velocity 127
000031t:  Note on ::  Channel 1.  Note 35.  Velocity 0
000015t:  Note on ::  Channel 1.  Note 35.  Velocity 127
000032t:  Note on ::  Channel 1.  Note 35.  Velocity 0
000017t:  Note on ::  Channel 1.  Note 35.  Velocity 127
000031t:  Note on ::  Channel 1.  Note 35.  Velocity 0
000209t:  Note on ::  Channel 1.  Note 40.  Velocity 127
000035t:  Note on ::  Channel 1.  Note 40.  Velocity 0
000061t:  Note on ::  Channel 1.  Note 40.  Velocity 127
000034t:  Note on ::  Channel 1.  Note 40.  Velocity 0
000062t:  Note on ::  Channel 1.  Note 40.  Velocity 127
000028t:  Note on ::  Channel 1.  Note 40.  Velocity 0
000022t:  Note on ::  Channel 1.  Note 40.  Velocity 127
000130t:  Note on ::  Channel 1.  Note 40.  Velocity 0
000063t:  Note on ::  Channel 1.  Note 33.  Velocity 127
000033t:  Note on ::  Channel 1.  Note 33.  Velocity 0
000013t:  Note on ::  Channel 1.  Note 33.  Velocity 127
000035t:  Note on ::  Channel 1.  Note 33.  Velocity 0
000014t:  Note on ::  Channel 1.  Note 33.  Velocity 127
000034t:  Note on ::  Channel 1.  Note 33.  Velocity 0
000206t:  Note on ::  Channel 1.  Note 38.  Velocity 127
000036t:  Note on ::  Channel 1.  Note 38.  Velocity 0
000060t:  Note on ::  Channel 1.  Note 38.  Velocity 127
000035t:  Note on ::  Channel 1.  Note 38.  Velocity 0
000062t:  Note on ::  Channel 1.  Note 38.  Velocity 127
000031t:  Note on ::  Channel 1.  Note 38.  Velocity 0
000018t:  Note on ::  Channel 1.  Note 37.  Velocity 127
000148t:  Note on ::  Channel 1.  Note 37.  Velocity 0
000045t:  Note on ::  Channel 1.  Note 35.  Velocity 127
000032t:  Note on ::  Channel 1.  Note 35.  Velocity 0
000014t:  Note on ::  Channel 1.  Note 35.  Velocity 127
000032t:  Note on ::  Channel 1.  Note 35.  Velocity 0
000018t:  Note on ::  Channel 1.  Note 35.  Velocity 127
000031t:  Note on ::  Channel 1.  Note 35.  Velocity 0
000208t:  Note on ::  Channel 1.  Note 40.  Velocity 127
000036t:  Note on ::  Channel 1.  Note 40.  Velocity 0
000061t:  Note on ::  Channel 1.  Note 40.  Velocity 127
000034t:  Note on ::  Channel 1.  Note 40.  Velocity 0
000062t:  Note on ::  Channel 1.  Note 40.  Velocity 127
000028t:  Note on ::  Channel 1.  Note 40.  Velocity 0
000021t:  Note on ::  Channel 1.  Note 40.  Velocity 127
000131t:  Note on ::  Channel 1.  Note 40.  Velocity 0
000062t:  Note on ::  Channel 1.  Note 42.  Velocity 127
000034t:  Note on ::  Channel 1.  Note 42.  Velocity 0
000013t:  Note on ::  Channel 1.  Note 42.  Velocity 127
000034t:  Note on ::  Channel 1.  Note 42.  Velocity 0
000015t:  Note on ::  Channel 1.  Note 42.  Velocity 127
000034t:  Note on ::  Channel 1.  Note 42.  Velocity 0
000206t:  Note on ::  Channel 1.  Note 38.  Velocity 127
000036t:  Note on ::  Channel 1.  Note 38.  Velocity 0
000060t:  Note on ::  Channel 1.  Note 38.  Velocity 127
000034t:  Note on ::  Channel 1.  Note 38.  Velocity 0
000062t:  Note on ::  Channel 1.  Note 54.  Velocity 127
000044t:  Note on ::  Channel 1.  Note 54.  Velocity 0
000006t:  Note on ::  Channel 1.  Note 52.  Velocity 127
000042t:  Note on ::  Channel 1.  Note 52.  Velocity 0
000005t:  Note on ::  Channel 1.  Note 50.  Velocity 127
000044t:  Note on ::  Channel 1.  Note 50.  Velocity 0
000005t:  Note on ::  Channel 1.  Note 49.  Velocity 127
000042t:  Note on ::  Channel 1.  Note 49.  Velocity 0
000005t:  Note on ::  Channel 1.  Note 47.  Velocity 127
000044t:  Note on ::  Channel 1.  Note 47.  Velocity 0
000006t:  Note on ::  Channel 1.  Note 33.  Velocity 127
000033t:  Note on ::  Channel 1.  Note 33.  Velocity 0
000013t:  Note on ::  Channel 1.  Note 33.  Velocity 127
000031t:  Note on ::  Channel 1.  Note 33.  Velocity 0
000018t:  Note on ::  Channel 1.  Note 33.  Velocity 127
000070t:  Note on ::  Channel 1.  Note 33.  Velocity 0
000026t:  Note on ::  Channel 1.  Note 33.  Velocity 127
000067t:  Note on ::  Channel 1.  Note 33.  Velocity 0
000029t:  Note on ::  Channel 1.  Note 33.  Velocity 127
000068t:  Note on ::  Channel 1.  Note 33.  Velocity 0
000030t:  Note on ::  Channel 1.  Note 32.  Velocity 127
000066t:  Note on ::  Channel 1.  Note 32.  Velocity 0
000029t:  Note on ::  Channel 1.  Note 32.  Velocity 127
000074t:  Note on ::  Channel 1.  Note 32.  Velocity 0
000022t:  Note on ::  Channel 1.  Note 32.  Velocity 127
000068t:  Note on ::  Channel 1.  Note 32.  Velocity 0
000029t:  Note on ::  Channel 1.  Note 32.  Velocity 127
000075t:  Note on ::  Channel 1.  Note 32.  Velocity 0
000022t:  Note on ::  Channel 1.  Note 30.  Velocity 127
000072t:  Note on ::  Channel 1.  Note 30.  Velocity 0
000023t:  Note on ::  Channel 1.  Note 30.  Velocity 127
000070t:  Note on ::  Channel 1.  Note 30.  Velocity 0
000026t:  Note on ::  Channel 1.  Note 30.  Velocity 127
000076t:  Note on ::  Channel 1.  Note 30.  Velocity 0
000021t:  Note on ::  Channel 1.  Note 30.  Velocity 127
000089t:  Note on ::  Channel 1.  Note 30.  Velocity 0
000007t:  Note on ::  Channel 1.  Note 38.  Velocity 127
000028t:  Note on ::  Channel 1.  Note 38.  Velocity 0
000019t:  Note on ::  Channel 1.  Note 38.  Velocity 127
000024t:  Note on ::  Channel 1.  Note 38.  Velocity 0
000025t:  Note on ::  Channel 1.  Note 38.  Velocity 127
000025t:  Note on ::  Channel 1.  Note 38.  Velocity 0
000023t:  Note on ::  Channel 1.  Note 38.  Velocity 127
000026t:  Note on ::  Channel 1.  Note 38.  Velocity 0
000023t:  Note on ::  Channel 1.  Note 38.  Velocity 127
000029t:  Note on ::  Channel 1.  Note 38.  Velocity 0
000018t:  Note on ::  Channel 1.  Note 38.  Velocity 127
000028t:  Note on ::  Channel 1.  Note 38.  Velocity 0
000021t:  Note on ::  Channel 1.  Note 38.  Velocity 127
000031t:  Note on ::  Channel 1.  Note 38.  Velocity 0
000016t:  Note on ::  Channel 1.  Note 38.  Velocity 127
000031t:  Note on ::  Channel 1.  Note 38.  Velocity 0
000020t:  Note on ::  Channel 1.  Note 33.  Velocity 127
000032t:  Note on ::  Channel 1.  Note 33.  Velocity 0
000013t:  Note on ::  Channel 1.  Note 33.  Velocity 127
000034t:  Note on ::  Channel 1.  Note 33.  Velocity 0
000016t:  Note on ::  Channel 1.  Note 33.  Velocity 127
000069t:  Note on ::  Channel 1.  Note 33.  Velocity 0
000027t:  Note on ::  Channel 1.  Note 33.  Velocity 127
000074t:  Note on ::  Channel 1.  Note 33.  Velocity 0
000022t:  Note on ::  Channel 1.  Note 33.  Velocity 127
000077t:  Note on ::  Channel 1.  Note 33.  Velocity 0
000021t:  Note on ::  Channel 1.  Note 32.  Velocity 127
000068t:  Note on ::  Channel 1.  Note 32.  Velocity 0
000027t:  Note on ::  Channel 1.  Note 32.  Velocity 127
000078t:  Note on ::  Channel 1.  Note 32.  Velocity 0
000018t:  Note on ::  Channel 1.  Note 32.  Velocity 127
000074t:  Note on ::  Channel 1.  Note 32.  Velocity 0
000022t:  Note on ::  Channel 1.  Note 32.  Velocity 127
000078t:  Note on ::  Channel 1.  Note 32.  Velocity 0
000020t:  Note on ::  Channel 1.  Note 30.  Velocity 127
000067t:  Note on ::  Channel 1.  Note 30.  Velocity 0
000028t:  Note on ::  Channel 1.  Note 30.  Velocity 127
000074t:  Note on ::  Channel 1.  Note 30.  Velocity 0
000022t:  Note on ::  Channel 1.  Note 30.  Velocity 127
000078t:  Note on ::  Channel 1.  Note 30.  Velocity 0
000019t:  Note on ::  Channel 1.  Note 30.  Velocity 127
000075t:  Note on ::  Channel 1.  Note 30.  Velocity 0
000021t:  Note on ::  Channel 1.  Note 38.  Velocity 127
000030t:  Note on ::  Channel 1.  Note 38.  Velocity 0
000018t:  Note on ::  Channel 1.  Note 38.  Velocity 127
000026t:  Note on ::  Channel 1.  Note 38.  Velocity 0
000022t:  Note on ::  Channel 1.  Note 38.  Velocity 127
000024t:  Note on ::  Channel 1.  Note 38.  Velocity 0
000025t:  Note on ::  Channel 1.  Note 38.  Velocity 127
000024t:  Note on ::  Channel 1.  Note 38.  Velocity 0
000023t:  Note on ::  Channel 1.  Note 38.  Velocity 127
000028t:  Note on ::  Channel 1.  Note 38.  Velocity 0
000021t:  Note on ::  Channel 1.  Note 38.  Velocity 127
000028t:  Note on ::  Channel 1.  Note 38.  Velocity 0
000020t:  Note on ::  Channel 1.  Note 38.  Velocity 127
000024t:  Note on ::  Channel 1.  Note 38.  Velocity 0
000024t:  Note on ::  Channel 1.  Note 38.  Velocity 127
000025t:  Note on ::  Channel 1.  Note 38.  Velocity 0
000024t:  Note on ::  Channel 1.  Note 33.  Velocity 127
000032t:  Note on ::  Channel 1.  Note 33.  Velocity 0
000016t:  Note on ::  Channel 1.  Note 33.  Velocity 127
000029t:  Note on ::  Channel 1.  Note 33.  Velocity 0
000018t:  Note on ::  Channel 1.  Note 33.  Velocity 127
000035t:  Note on ::  Channel 1.  Note 33.  Velocity 0
000206t:  Note on ::  Channel 1.  Note 33.  Velocity 127
000037t:  Note on ::  Channel 1.  Note 33.  Velocity 0
000012t:  Note on ::  Channel 1.  Note 32.  Velocity 127
000031t:  Note on ::  Channel 1.  Note 32.  Velocity 0
000017t:  Note on ::  Channel 1.  Note 32.  Velocity 127
000033t:  Note on ::  Channel 1.  Note 32.  Velocity 0
000014t:  Note on ::  Channel 1.  Note 32.  Velocity 127
000043t:  Note on ::  Channel 1.  Note 32.  Velocity 0
000198t:  Note on ::  Channel 1.  Note 32.  Velocity 127
000032t:  Note on ::  Channel 1.  Note 32.  Velocity 0
000017t:  Note on ::  Channel 1.  Note 30.  Velocity 127
000031t:  Note on ::  Channel 1.  Note 30.  Velocity 0
000017t:  Note on ::  Channel 1.  Note 30.  Velocity 127
000029t:  Note on ::  Channel 1.  Note 30.  Velocity 0
000018t:  Note on ::  Channel 1.  Note 30.  Velocity 127
000039t:  Note on ::  Channel 1.  Note 30.  Velocity 0
000203t:  Note on ::  Channel 1.  Note 38.  Velocity 127
000031t:  Note on ::  Channel 1.  Note 38.  Velocity 0
000016t:  Note on ::  Channel 1.  Note 38.  Velocity 127
000035t:  Note on ::  Channel 1.  Note 38.  Velocity 0
000014t:  Note on ::  Channel 1.  Note 38.  Velocity 127
000030t:  Note on ::  Channel 1.  Note 38.  Velocity 0
000018t:  Note on ::  Channel 1.  Note 38.  Velocity 127
000029t:  Note on ::  Channel 1.  Note 38.  Velocity 0
000019t:  Note on ::  Channel 1.  Note 38.  Velocity 127
000030t:  Note on ::  Channel 1.  Note 38.  Velocity 0
000018t:  Note on ::  Channel 1.  Note 38.  Velocity 127
000028t:  Note on ::  Channel 1.  Note 38.  Velocity 0
000021t:  Note on ::  Channel 1.  Note 42.  Velocity 127
000033t:  Note on ::  Channel 1.  Note 42.  Velocity 0
000014t:  Note on ::  Channel 1.  Note 40.  Velocity 127
000034t:  Note on ::  Channel 1.  Note 40.  Velocity 0
000015t:  Note on ::  Channel 1.  Note 38.  Velocity 127
000034t:  Note on ::  Channel 1.  Note 38.  Velocity 0
000016t:  Note on ::  Channel 1.  Note 33.  Velocity 127
000057t:  Note on ::  Channel 1.  Note 33.  Velocity 0
000037t:  Note on ::  Channel 1.  Note 33.  Velocity 127
000063t:  Note on ::  Channel 1.  Note 33.  Velocity 0
000034t:  Note on ::  Channel 1.  Note 33.  Velocity 127
000050t:  Note on ::  Channel 1.  Note 33.  Velocity 0
000046t:  Note on ::  Channel 1.  Note 33.  Velocity 127
000071t:  Note on ::  Channel 1.  Note 33.  Velocity 0
000025t:  Note on ::  Channel 1.  Note 32.  Velocity 127
000073t:  Note on ::  Channel 1.  Note 32.  Velocity 0
000023t:  Note on ::  Channel 1.  Note 32.  Velocity 127
000069t:  Note on ::  Channel 1.  Note 32.  Velocity 0
000028t:  Note on ::  Channel 1.  Note 32.  Velocity 127
000076t:  Note on ::  Channel 1.  Note 32.  Velocity 0
000020t:  Note on ::  Channel 1.  Note 32.  Velocity 127
000073t:  Note on ::  Channel 1.  Note 32.  Velocity 0
000023t:  Note on ::  Channel 1.  Note 38.  Velocity 127
000032t:  Note on ::  Channel 1.  Note 38.  Velocity 0
000017t:  Note on ::  Channel 1.  Note 38.  Velocity 127
000026t:  Note on ::  Channel 1.  Note 38.  Velocity 0
000021t:  Note on ::  Channel 1.  Note 38.  Velocity 127
000027t:  Note on ::  Channel 1.  Note 38.  Velocity 0
000022t:  Note on ::  Channel 1.  Note 38.  Velocity 127
000027t:  Note on ::  Channel 1.  Note 38.  Velocity 0
000021t:  Note on ::  Channel 1.  Note 38.  Velocity 127
000028t:  Note on ::  Channel 1.  Note 38.  Velocity 0
000021t:  Note on ::  Channel 1.  Note 38.  Velocity 127
000026t:  Note on ::  Channel 1.  Note 38.  Velocity 0
000021t:  Note on ::  Channel 1.  Note 38.  Velocity 127
000027t:  Note on ::  Channel 1.  Note 38.  Velocity 0
000022t:  Note on ::  Channel 1.  Note 38.  Velocity 127
000030t:  Note on ::  Channel 1.  Note 38.  Velocity 0
000018t:  Note on ::  Channel 1.  Note 40.  Velocity 127
000031t:  Note on ::  Channel 1.  Note 40.  Velocity 0
000017t:  Note on ::  Channel 1.  Note 40.  Velocity 127
000023t:  Note on ::  Channel 1.  Note 40.  Velocity 0
000025t:  Note on ::  Channel 1.  Note 40.  Velocity 127
000027t:  Note on ::  Channel 1.  Note 40.  Velocity 0
000021t:  Note on ::  Channel 1.  Note 40.  Velocity 127
000027t:  Note on ::  Channel 1.  Note 40.  Velocity 0
000021t:  Note on ::  Channel 1.  Note 40.  Velocity 127
000032t:  Note on ::  Channel 1.  Note 40.  Velocity 0
000017t:  Note on ::  Channel 1.  Note 40.  Velocity 127
000033t:  Note on ::  Channel 1.  Note 40.  Velocity 0
000014t:  Note on ::  Channel 1.  Note 40.  Velocity 127
000031t:  Note on ::  Channel 1.  Note 40.  Velocity 0
000018t:  Note on ::  Channel 1.  Note 40.  Velocity 127
000026t:  Note on ::  Channel 1.  Note 40.  Velocity 0
000023t:  Note on ::  Channel 1.  Note 35.  Velocity 127
000032t:  Note on ::  Channel 1.  Note 35.  Velocity 0
000015t:  Note on ::  Channel 1.  Note 35.  Velocity 127
000031t:  Note on ::  Channel 1.  Note 35.  Velocity 0
000017t:  Note on ::  Channel 1.  Note 35.  Velocity 127
000032t:  Note on ::  Channel 1.  Note 35.  Velocity 0
000209t:  Note on ::  Channel 1.  Note 40.  Velocity 127
000035t:  Note on ::  Channel 1.  Note 40.  Velocity 0
000061t:  Note on ::  Channel 1.  Note 40.  Velocity 127
000034t:  Note on ::  Channel 1.  Note 40.  Velocity 0
000063t:  Note on ::  Channel 1.  Note 40.  Velocity 127
000026t:  Note on ::  Channel 1.  Note 40.  Velocity 0
000022t:  Note on ::  Channel 1.  Note 40.  Velocity 127
000130t:  Note on ::  Channel 1.  Note 40.  Velocity 0
000063t:  Note on ::  Channel 1.  Note 33.  Velocity 127
000033t:  Note on ::  Channel 1.  Note 33.  Velocity 0
000015t:  Note on ::  Channel 1.  Note 33.  Velocity 127
000033t:  Note on ::  Channel 1.  Note 33.  Velocity 0
000014t:  Note on ::  Channel 1.  Note 33.  Velocity 127
000035t:  Note on ::  Channel 1.  Note 33.  Velocity 0
000207t:  Note on ::  Channel 1.  Note 38.  Velocity 127
000034t:  Note on ::  Channel 1.  Note 38.  Velocity 0
000062t:  Note on ::  Channel 1.  Note 38.  Velocity 127
000033t:  Note on ::  Channel 1.  Note 38.  Velocity 0
000063t:  Note on ::  Channel 1.  Note 38.  Velocity 127
000031t:  Note on ::  Channel 1.  Note 38.  Velocity 0
000018t:  Note on ::  Channel 1.  Note 37.  Velocity 127
000147t:  Note on ::  Channel 1.  Note 37.  Velocity 0
000046t:  Note on ::  Channel 1.  Note 35.  Velocity 127
000031t:  Note on ::  Channel 1.  Note 35.  Velocity 0
000016t:  Note on ::  Channel 1.  Note 35.  Velocity 127
000031t:  Note on ::  Channel 1.  Note 35.  Velocity 0
000017t:  Note on ::  Channel 1.  Note 35.  Velocity 127
000031t:  Note on ::  Channel 1.  Note 35.  Velocity 0
000210t:  Note on ::  Channel 1.  Note 40.  Velocity 127
000034t:  Note on ::  Channel 1.  Note 40.  Velocity 0
000062t:  Note on ::  Channel 1.  Note 40.  Velocity 127
000033t:  Note on ::  Channel 1.  Note 40.  Velocity 0
000064t:  Note on ::  Channel 1.  Note 40.  Velocity 127
000026t:  Note on ::  Channel 1.  Note 40.  Velocity 0
000022t:  Note on ::  Channel 1.  Note 40.  Velocity 127
000130t:  Note on ::  Channel 1.  Note 40.  Velocity 0
000063t:  Note on ::  Channel 1.  Note 33.  Velocity 127
000033t:  Note on ::  Channel 1.  Note 33.  Velocity 0
000015t:  Note on ::  Channel 1.  Note 33.  Velocity 127
000033t:  Note on ::  Channel 1.  Note 33.  Velocity 0
000014t:  Note on ::  Channel 1.  Note 33.  Velocity 127
000034t:  Note on ::  Channel 1.  Note 33.  Velocity 0
000208t:  Note on ::  Channel 1.  Note 38.  Velocity 127
000034t:  Note on ::  Channel 1.  Note 38.  Velocity 0
000062t:  Note on ::  Channel 1.  Note 38.  Velocity 127
000033t:  Note on ::  Channel 1.  Note 38.  Velocity 0
000063t:  Note on ::  Channel 1.  Note 38.  Velocity 127
000030t:  Note on ::  Channel 1.  Note 38.  Velocity 0
000018t:  Note on ::  Channel 1.  Note 37.  Velocity 127
000148t:  Note on ::  Channel 1.  Note 37.  Velocity 0
000045t:  Note on ::  Channel 1.  Note 35.  Velocity 127
000032t:  Note on ::  Channel 1.  Note 35.  Velocity 0
000016t:  Note on ::  Channel 1.  Note 35.  Velocity 127
000030t:  Note on ::  Channel 1.  Note 35.  Velocity 0
000018t:  Note on ::  Channel 1.  Note 35.  Velocity 127
000031t:  Note on ::  Channel 1.  Note 35.  Velocity 0
000210t:  Note on ::  Channel 1.  Note 40.  Velocity 127
000034t:  Note on ::  Channel 1.  Note 40.  Velocity 0
000062t:  Note on ::  Channel 1.  Note 40.  Velocity 127
000035t:  Note on ::  Channel 1.  Note 40.  Velocity 0
000061t:  Note on ::  Channel 1.  Note 40.  Velocity 127
000027t:  Note on ::  Channel 1.  Note 40.  Velocity 0
000021t:  Note on ::  Channel 1.  Note 40.  Velocity 127
000131t:  Note on ::  Channel 1.  Note 40.  Velocity 0
000062t:  Note on ::  Channel 1.  Note 42.  Velocity 127
000034t:  Note on ::  Channel 1.  Note 42.  Velocity 0
000014t:  Note on ::  Channel 1.  Note 42.  Velocity 127
000033t:  Note on ::  Channel 1.  Note 42.  Velocity 0
000015t:  Note on ::  Channel 1.  Note 42.  Velocity 127
000034t:  Note on ::  Channel 1.  Note 42.  Velocity 0
000207t:  Note on ::  Channel 1.  Note 38.  Velocity 127
000035t:  Note on ::  Channel 1.  Note 38.  Velocity 0
000062t:  Note on ::  Channel 1.  Note 38.  Velocity 127
000034t:  Note on ::  Channel 1.  Note 38.  Velocity 0
000062t:  Note on ::  Channel 1.  Note 54.  Velocity 127
000042t:  Note on ::  Channel 1.  Note 54.  Velocity 0
000006t:  Note on ::  Channel 1.  Note 52.  Velocity 127
000043t:  Note on ::  Channel 1.  Note 52.  Velocity 0
000005t:  Note on ::  Channel 1.  Note 50.  Velocity 127
000043t:  Note on ::  Channel 1.  Note 50.  Velocity 0
000005t:  Note on ::  Channel 1.  Note 49.  Velocity 127
000043t:  Note on ::  Channel 1.  Note 49.  Velocity 0
000005t:  Note on ::  Channel 1.  Note 47.  Velocity 127
000043t:  Note on ::  Channel 1.  Note 47.  Velocity 0
000006t:  Note on ::  Channel 1.  Note 33.  Velocity 127
000033t:  Note on ::  Channel 1.  Note 33.  Velocity 0
000014t:  Note on ::  Channel 1.  Note 33.  Velocity 127
000030t:  Note on ::  Channel 1.  Note 33.  Velocity 0
000018t:  Note on ::  Channel 1.  Note 33.  Velocity 127
000071t:  Note on ::  Channel 1.  Note 33.  Velocity 0
000025t:  Note on ::  Channel 1.  Note 33.  Velocity 127
000067t:  Note on ::  Channel 1.  Note 33.  Velocity 0
000030t:  Note on ::  Channel 1.  Note 33.  Velocity 127
000067t:  Note on ::  Channel 1.  Note 33.  Velocity 0
000030t:  Note on ::  Channel 1.  Note 32.  Velocity 127
000066t:  Note on ::  Channel 1.  Note 32.  Velocity 0
000029t:  Note on ::  Channel 1.  Note 32.  Velocity 127
000075t:  Note on ::  Channel 1.  Note 32.  Velocity 0
000021t:  Note on ::  Channel 1.  Note 32.  Velocity 127
000068t:  Note on ::  Channel 1.  Note 32.  Velocity 0
000029t:  Note on ::  Channel 1.  Note 32.  Velocity 127
000075t:  Note on ::  Channel 1.  Note 32.  Velocity 0
000022t:  Note on ::  Channel 1.  Note 30.  Velocity 127
000072t:  Note on ::  Channel 1.  Note 30.  Velocity 0
000023t:  Note on ::  Channel 1.  Note 30.  Velocity 127
000070t:  Note on ::  Channel 1.  Note 30.  Velocity 0
000026t:  Note on ::  Channel 1.  Note 30.  Velocity 127
000076t:  Note on ::  Channel 1.  Note 30.  Velocity 0
000021t:  Note on ::  Channel 1.  Note 30.  Velocity 127
000089t:  Note on ::  Channel 1.  Note 30.  Velocity 0
000007t:  Note on ::  Channel 1.  Note 38.  Velocity 127
000029t:  Note on ::  Channel 1.  Note 38.  Velocity 0
000020t:  Note on ::  Channel 1.  Note 38.  Velocity 127
000022t:  Note on ::  Channel 1.  Note 38.  Velocity 0
000025t:  Note on ::  Channel 1.  Note 38.  Velocity 127
000026t:  Note on ::  Channel 1.  Note 38.  Velocity 0
000023t:  Note on ::  Channel 1.  Note 38.  Velocity 127
000027t:  Note on ::  Channel 1.  Note 38.  Velocity 0
000021t:  Note on ::  Channel 1.  Note 38.  Velocity 127
000029t:  Note on ::  Channel 1.  Note 38.  Velocity 0
000019t:  Note on ::  Channel 1.  Note 38.  Velocity 127
000027t:  Note on ::  Channel 1.  Note 38.  Velocity 0
000021t:  Note on ::  Channel 1.  Note 38.  Velocity 127
000031t:  Note on ::  Channel 1.  Note 38.  Velocity 0
000018t:  Note on ::  Channel 1.  Note 38.  Velocity 127
000029t:  Note on ::  Channel 1.  Note 38.  Velocity 0
000020t:  Note on ::  Channel 1.  Note 33.  Velocity 127
000032t:  Note on ::  Channel 1.  Note 33.  Velocity 0
000015t:  Note on ::  Channel 1.  Note 33.  Velocity 127
000032t:  Note on ::  Channel 1.  Note 33.  Velocity 0
000016t:  Note on ::  Channel 1.  Note 33.  Velocity 127
000069t:  Note on ::  Channel 1.  Note 33.  Velocity 0
000027t:  Note on ::  Channel 1.  Note 33.  Velocity 127
000075t:  Note on ::  Channel 1.  Note 33.  Velocity 0
000021t:  Note on ::  Channel 1.  Note 33.  Velocity 127
000076t:  Note on ::  Channel 1.  Note 33.  Velocity 0
000022t:  Note on ::  Channel 1.  Note 32.  Velocity 127
000068t:  Note on ::  Channel 1.  Note 32.  Velocity 0
000027t:  Note on ::  Channel 1.  Note 32.  Velocity 127
000078t:  Note on ::  Channel 1.  Note 32.  Velocity 0
000018t:  Note on ::  Channel 1.  Note 32.  Velocity 127
000074t:  Note on ::  Channel 1.  Note 32.  Velocity 0
000022t:  Note on ::  Channel 1.  Note 32.  Velocity 127
000078t:  Note on ::  Channel 1.  Note 32.  Velocity 0
000020t:  Note on ::  Channel 1.  Note 30.  Velocity 127
000067t:  Note on ::  Channel 1.  Note 30.  Velocity 0
000028t:  Note on ::  Channel 1.  Note 30.  Velocity 127
000075t:  Note on ::  Channel 1.  Note 30.  Velocity 0
000021t:  Note on ::  Channel 1.  Note 30.  Velocity 127
000080t:  Note on ::  Channel 1.  Note 30.  Velocity 0
000017t:  Note on ::  Channel 1.  Note 30.  Velocity 127
000075t:  Note on ::  Channel 1.  Note 30.  Velocity 0
000021t:  Note on ::  Channel 1.  Note 38.  Velocity 127
000030t:  Note on ::  Channel 1.  Note 38.  Velocity 0
000018t:  Note on ::  Channel 1.  Note 38.  Velocity 127
000027t:  Note on ::  Channel 1.  Note 38.  Velocity 0
000021t:  Note on ::  Channel 1.  Note 38.  Velocity 127
000025t:  Note on ::  Channel 1.  Note 38.  Velocity 0
000024t:  Note on ::  Channel 1.  Note 38.  Velocity 127
000024t:  Note on ::  Channel 1.  Note 38.  Velocity 0
000023t:  Note on ::  Channel 1.  Note 38.  Velocity 127
000028t:  Note on ::  Channel 1.  Note 38.  Velocity 0
000021t:  Note on ::  Channel 1.  Note 38.  Velocity 127
000028t:  Note on ::  Channel 1.  Note 38.  Velocity 0
000020t:  Note on ::  Channel 1.  Note 38.  Velocity 127
000025t:  Note on ::  Channel 1.  Note 38.  Velocity 0
000023t:  Note on ::  Channel 1.  Note 38.  Velocity 127
000024t:  Note on ::  Channel 1.  Note 38.  Velocity 0
000025t:  Note on ::  Channel 1.  Note 33.  Velocity 127
000032t:  Note on ::  Channel 1.  Note 33.  Velocity 0
000016t:  Note on ::  Channel 1.  Note 33.  Velocity 127
000030t:  Note on ::  Channel 1.  Note 33.  Velocity 0
000017t:  Note on ::  Channel 1.  Note 33.  Velocity 127
000035t:  Note on ::  Channel 1.  Note 33.  Velocity 0
000206t:  Note on ::  Channel 1.  Note 33.  Velocity 127
000037t:  Note on ::  Channel 1.  Note 33.  Velocity 0
000012t:  Note on ::  Channel 1.  Note 32.  Velocity 127
000031t:  Note on ::  Channel 1.  Note 32.  Velocity 0
000017t:  Note on ::  Channel 1.  Note 32.  Velocity 127
000033t:  Note on ::  Channel 1.  Note 32.  Velocity 0
000014t:  Note on ::  Channel 1.  Note 32.  Velocity 127
000043t:  Note on ::  Channel 1.  Note 32.  Velocity 0
000199t:  Note on ::  Channel 1.  Note 32.  Velocity 127
000030t:  Note on ::  Channel 1.  Note 32.  Velocity 0
000018t:  Note on ::  Channel 1.  Note 30.  Velocity 127
000031t:  Note on ::  Channel 1.  Note 30.  Velocity 0
000017t:  Note on ::  Channel 1.  Note 30.  Velocity 127
000031t:  Note on ::  Channel 1.  Note 30.  Velocity 0
000016t:  Note on ::  Channel 1.  Note 30.  Velocity 127
000039t:  Note on ::  Channel 1.  Note 30.  Velocity 0
000203t:  Note on ::  Channel 1.  Note 38.  Velocity 127
000031t:  Note on ::  Channel 1.  Note 38.  Velocity 0
000016t:  Note on ::  Channel 1.  Note 38.  Velocity 127
000035t:  Note on ::  Channel 1.  Note 38.  Velocity 0
000014t:  Note on ::  Channel 1.  Note 38.  Velocity 127
000030t:  Note on ::  Channel 1.  Note 38.  Velocity 0
000018t:  Note on ::  Channel 1.  Note 38.  Velocity 127
000029t:  Note on ::  Channel 1.  Note 38.  Velocity 0
000020t:  Note on ::  Channel 1.  Note 38.  Velocity 127
000029t:  Note on ::  Channel 1.  Note 38.  Velocity 0
000018t:  Note on ::  Channel 1.  Note 38.  Velocity 127
000028t:  Note on ::  Channel 1.  Note 38.  Velocity 0
000021t:  Note on ::  Channel 1.  Note 42.  Velocity 127
000033t:  Note on ::  Channel 1.  Note 42.  Velocity 0
000015t:  Note on ::  Channel 1.  Note 40.  Velocity 127
000033t:  Note on ::  Channel 1.  Note 40.  Velocity 0
000015t:  Note on ::  Channel 1.  Note 38.  Velocity 127
000034t:  Note on ::  Channel 1.  Note 38.  Velocity 0
000016t:  Note on ::  Channel 1.  Note 33.  Velocity 127
000057t:  Note on ::  Channel 1.  Note 33.  Velocity 0
000037t:  Note on ::  Channel 1.  Note 33.  Velocity 127
000065t:  Note on ::  Channel 1.  Note 33.  Velocity 0
000032t:  Note on ::  Channel 1.  Note 33.  Velocity 127
000052t:  Note on ::  Channel 1.  Note 33.  Velocity 0
000044t:  Note on ::  Channel 1.  Note 33.  Velocity 127
000071t:  Note on ::  Channel 1.  Note 33.  Velocity 0
000025t:  Note on ::  Channel 1.  Note 32.  Velocity 127
000073t:  Note on ::  Channel 1.  Note 32.  Velocity 0
000023t:  Note on ::  Channel 1.  Note 32.  Velocity 127
000069t:  Note on ::  Channel 1.  Note 32.  Velocity 0
000028t:  Note on ::  Channel 1.  Note 32.  Velocity 127
000076t:  Note on ::  Channel 1.  Note 32.  Velocity 0
000020t:  Note on ::  Channel 1.  Note 32.  Velocity 127
000073t:  Note on ::  Channel 1.  Note 32.  Velocity 0
000023t:  Note on ::  Channel 1.  Note 38.  Velocity 127
000033t:  Note on ::  Channel 1.  Note 38.  Velocity 0
000016t:  Note on ::  Channel 1.  Note 38.  Velocity 127
000026t:  Note on ::  Channel 1.  Note 38.  Velocity 0
000021t:  Note on ::  Channel 1.  Note 38.  Velocity 127
000027t:  Note on ::  Channel 1.  Note 38.  Velocity 0
000022t:  Note on ::  Channel 1.  Note 38.  Velocity 127
000027t:  Note on ::  Channel 1.  Note 38.  Velocity 0
000021t:  Note on ::  Channel 1.  Note 38.  Velocity 127
000029t:  Note on ::  Channel 1.  Note 38.  Velocity 0
000020t:  Note on ::  Channel 1.  Note 38.  Velocity 127
000026t:  Note on ::  Channel 1.  Note 38.  Velocity 0
000021t:  Note on ::  Channel 1.  Note 38.  Velocity 127
000027t:  Note on ::  Channel 1.  Note 38.  Velocity 0
000022t:  Note on ::  Channel 1.  Note 38.  Velocity 127
000030t:  Note on ::  Channel 1.  Note 38.  Velocity 0
000018t:  Note on ::  Channel 1.  Note 40.  Velocity 127
000033t:  Note on ::  Channel 1.  Note 40.  Velocity 0
000015t:  Note on ::  Channel 1.  Note 40.  Velocity 127
000023t:  Note on ::  Channel 1.  Note 40.  Velocity 0
000025t:  Note on ::  Channel 1.  Note 40.  Velocity 127
000027t:  Note on ::  Channel 1.  Note 40.  Velocity 0
000021t:  Note on ::  Channel 1.  Note 40.  Velocity 127
000027t:  Note on ::  Channel 1.  Note 40.  Velocity 0
000021t:  Note on ::  Channel 1.  Note 40.  Velocity 127
000033t:  Note on ::  Channel 1.  Note 40.  Velocity 0
000016t:  Note on ::  Channel 1.  Note 40.  Velocity 127
000033t:  Note on ::  Channel 1.  Note 40.  Velocity 0
000014t:  Note on ::  Channel 1.  Note 40.  Velocity 127
000031t:  Note on ::  Channel 1.  Note 40.  Velocity 0
000018t:  Note on ::  Channel 1.  Note 40.  Velocity 127
000026t:  Note on ::  Channel 1.  Note 40.  Velocity 0
000022t:  Note on ::  Channel 1.  Note 37.  Velocity 127
000031t:  Note on ::  Channel 1.  Note 37.  Velocity 0
000162t:  Note on ::  Channel 1.  Note 25.  Velocity 127
000031t:  Note on ::  Channel 1.  Note 25.  Velocity 0
000065t:  Note on ::  Channel 1.  Note 32.  Velocity 127
000029t:  Note on ::  Channel 1.  Note 32.  Velocity 0
000019t:  Note on ::  Channel 1.  Note 25.  Velocity 127
000021t:  Note on ::  Channel 1.  Note 25.  Velocity 0
000027t:  Note on ::  Channel 1.  Note 37.  Velocity 127
000029t:  Note on ::  Channel 1.  Note 37.  Velocity 0
000019t:  Note on ::  Channel 1.  Note 37.  Velocity 127
000027t:  Note on ::  Channel 1.  Note 37.  Velocity 0
000070t:  Note on ::  Channel 1.  Note 25.  Velocity 127
000029t:  Note on ::  Channel 1.  Note 25.  Velocity 0
000115t:  Note on ::  Channel 1.  Note 37.  Velocity 127
000030t:  Note on ::  Channel 1.  Note 37.  Velocity 0
000018t:  Note on ::  Channel 1.  Note 25.  Velocity 127
000020t:  Note on ::  Channel 1.  Note 25.  Velocity 0
000028t:  Note on ::  Channel 1.  Note 43.  Velocity 127
000032t:  Note on ::  Channel 1.  Note 43.  Velocity 0
000161t:  Note on ::  Channel 1.  Note 31.  Velocity 127
000031t:  Note on ::  Channel 1.  Note 31.  Velocity 0
000065t:  Note on ::  Channel 1.  Note 38.  Velocity 127
000029t:  Note on ::  Channel 1.  Note 38.  Velocity 0
000019t:  Note on ::  Channel 1.  Note 31.  Velocity 127
000022t:  Note on ::  Channel 1.  Note 31.  Velocity 0
000026t:  Note on ::  Channel 1.  Note 43.  Velocity 127
000029t:  Note on ::  Channel 1.  Note 43.  Velocity 0
000020t:  Note on ::  Channel 1.  Note 43.  Velocity 127
000026t:  Note on ::  Channel 1.  Note 43.  Velocity 0
000070t:  Note on ::  Channel 1.  Note 31.  Velocity 127
000029t:  Note on ::  Channel 1.  Note 31.  Velocity 0
000115t:  Note on ::  Channel 1.  Note 43.  Velocity 127
000030t:  Note on ::  Channel 1.  Note 43.  Velocity 0
000019t:  Note on ::  Channel 1.  Note 31.  Velocity 127
000019t:  Note on ::  Channel 1.  Note 31.  Velocity 0
000029t:  Note on ::  Channel 1.  Note 37.  Velocity 127
000031t:  Note on ::  Channel 1.  Note 37.  Velocity 0
000162t:  Note on ::  Channel 1.  Note 25.  Velocity 127
000031t:  Note on ::  Channel 1.  Note 25.  Velocity 0
000065t:  Note on ::  Channel 1.  Note 32.  Velocity 127
000028t:  Note on ::  Channel 1.  Note 32.  Velocity 0
000020t:  Note on ::  Channel 1.  Note 25.  Velocity 127
000021t:  Note on ::  Channel 1.  Note 25.  Velocity 0
000027t:  Note on ::  Channel 1.  Note 37.  Velocity 127
000029t:  Note on ::  Channel 1.  Note 37.  Velocity 0
000019t:  Note on ::  Channel 1.  Note 37.  Velocity 127
000027t:  Note on ::  Channel 1.  Note 37.  Velocity 0
000070t:  Note on ::  Channel 1.  Note 25.  Velocity 127
000029t:  Note on ::  Channel 1.  Note 25.  Velocity 0
000115t:  Note on ::  Channel 1.  Note 37.  Velocity 127
000030t:  Note on ::  Channel 1.  Note 37.  Velocity 0
000018t:  Note on ::  Channel 1.  Note 25.  Velocity 127
000020t:  Note on ::  Channel 1.  Note 25.  Velocity 0
000030t:  Note on ::  Channel 1.  Note 43.  Velocity 127
000029t:  Note on ::  Channel 1.  Note 43.  Velocity 0
000162t:  Note on ::  Channel 1.  Note 31.  Velocity 127
000031t:  Note on ::  Channel 1.  Note 31.  Velocity 0
000065t:  Note on ::  Channel 1.  Note 38.  Velocity 127
000029t:  Note on ::  Channel 1.  Note 38.  Velocity 0
000020t:  Note on ::  Channel 1.  Note 31.  Velocity 127
000020t:  Note on ::  Channel 1.  Note 31.  Velocity 0
000027t:  Note on ::  Channel 1.  Note 43.  Velocity 127
000029t:  Note on ::  Channel 1.  Note 43.  Velocity 0
000020t:  Note on ::  Channel 1.  Note 43.  Velocity 127
000026t:  Note on ::  Channel 1.  Note 43.  Velocity 0
000070t:  Note on ::  Channel 1.  Note 31.  Velocity 127
000029t:  Note on ::  Channel 1.  Note 31.  Velocity 0
000115t:  Note on ::  Channel 1.  Note 43.  Velocity 127
000030t:  Note on ::  Channel 1.  Note 43.  Velocity 0
000018t:  Note on ::  Channel 1.  Note 31.  Velocity 127
000020t:  Note on ::  Channel 1.  Note 31.  Velocity 0
000031t:  Note on ::  Channel 1.  Note 47.  Velocity 127
000029t:  Note on ::  Channel 1.  Note 47.  Velocity 0
000161t:  Note on ::  Channel 1.  Note 35.  Velocity 127
000031t:  Note on ::  Channel 1.  Note 35.  Velocity 0
000065t:  Note on ::  Channel 1.  Note 42.  Velocity 127
000029t:  Note on ::  Channel 1.  Note 42.  Velocity 0
000020t:  Note on ::  Channel 1.  Note 35.  Velocity 127
000021t:  Note on ::  Channel 1.  Note 35.  Velocity 0
000026t:  Note on ::  Channel 1.  Note 47.  Velocity 127
000029t:  Note on ::  Channel 1.  Note 47.  Velocity 0
000020t:  Note on ::  Channel 1.  Note 47.  Velocity 127
000028t:  Note on ::  Channel 1.  Note 47.  Velocity 0
000068t:  Note on ::  Channel 1.  Note 35.  Velocity 127
000029t:  Note on ::  Channel 1.  Note 35.  Velocity 0
000115t:  Note on ::  Channel 1.  Note 47.  Velocity 127
000031t:  Note on ::  Channel 1.  Note 47.  Velocity 0
000018t:  Note on ::  Channel 1.  Note 35.  Velocity 127
000020t:  Note on ::  Channel 1.  Note 35.  Velocity 0
000030t:  Note on ::  Channel 1.  Note 40.  Velocity 127
000029t:  Note on ::  Channel 1.  Note 40.  Velocity 0
000162t:  Note on ::  Channel 1.  Note 28.  Velocity 127
000031t:  Note on ::  Channel 1.  Note 28.  Velocity 0
000065t:  Note on ::  Channel 1.  Note 35.  Velocity 127
000028t:  Note on ::  Channel 1.  Note 35.  Velocity 0
000020t:  Note on ::  Channel 1.  Note 28.  Velocity 127
000021t:  Note on ::  Channel 1.  Note 28.  Velocity 0
000027t:  Note on ::  Channel 1.  Note 40.  Velocity 127
000019t:  Note on ::  Channel 1.  Note 40.  Velocity 0
000029t:  Note on ::  Channel 1.  Note 40.  Velocity 127
000020t:  Note on ::  Channel 1.  Note 40.  Velocity 0
000028t:  Note on ::  Channel 1.  Note 28.  Velocity 127
000064t:  Note on ::  Channel 1.  Note 28.  Velocity 0
000033t:  Note on ::  Channel 1.  Note 28.  Velocity 127
000064t:  Note on ::  Channel 1.  Note 28.  Velocity 0
000032t:  Note on ::  Channel 1.  Note 28.  Velocity 127
000064t:  Note on ::  Channel 1.  Note 28.  Velocity 0
001574t:  Note on ::  Channel 1.  Note 35.  Velocity 127
000032t:  Note on ::  Channel 1.  Note 35.  Velocity 0
000016t:  Note on ::  Channel 1.  Note 35.  Velocity 127
000031t:  Note on ::  Channel 1.  Note 35.  Velocity 0
000017t:  Note on ::  Channel 1.  Note 35.  Velocity 127
000031t:  Note on ::  Channel 1.  Note 35.  Velocity 0
000210t:  Note on ::  Channel 1.  Note 40.  Velocity 127
000034t:  Note on ::  Channel 1.  Note 40.  Velocity 0
000062t:  Note on ::  Channel 1.  Note 40.  Velocity 127
000034t:  Note on ::  Channel 1.  Note 40.  Velocity 0
000062t:  Note on ::  Channel 1.  Note 40.  Velocity 127
000027t:  Note on ::  Channel 1.  Note 40.  Velocity 0
000022t:  Note on ::  Channel 1.  Note 40.  Velocity 127
000129t:  Note on ::  Channel 1.  Note 40.  Velocity 0
000064t:  Note on ::  Channel 1.  Note 33.  Velocity 127
000032t:  Note on ::  Channel 1.  Note 33.  Velocity 0
000015t:  Note on ::  Channel 1.  Note 33.  Velocity 127
000033t:  Note on ::  Channel 1.  Note 33.  Velocity 0
000015t:  Note on ::  Channel 1.  Note 33.  Velocity 127
000034t:  Note on ::  Channel 1.  Note 33.  Velocity 0
000207t:  Note on ::  Channel 1.  Note 38.  Velocity 127
000034t:  Note on ::  Channel 1.  Note 38.  Velocity 0
000062t:  Note on ::  Channel 1.  Note 38.  Velocity 127
000034t:  Note on ::  Channel 1.  Note 38.  Velocity 0
000062t:  Note on ::  Channel 1.  Note 38.  Velocity 127
000032t:  Note on ::  Channel 1.  Note 38.  Velocity 0
000017t:  Note on ::  Channel 1.  Note 37.  Velocity 127
000148t:  Note on ::  Channel 1.  Note 37.  Velocity 0
000045t:  Note on ::  Channel 1.  Note 35.  Velocity 127
000033t:  Note on ::  Channel 1.  Note 35.  Velocity 0
000014t:  Note on ::  Channel 1.  Note 35.  Velocity 127
000032t:  Note on ::  Channel 1.  Note 35.  Velocity 0
000016t:  Note on ::  Channel 1.  Note 35.  Velocity 127
000031t:  Note on ::  Channel 1.  Note 35.  Velocity 0
000210t:  Note on ::  Channel 1.  Note 40.  Velocity 127
000034t:  Note on ::  Channel 1.  Note 40.  Velocity 0
000063t:  Note on ::  Channel 1.  Note 40.  Velocity 127
000034t:  Note on ::  Channel 1.  Note 40.  Velocity 0
000062t:  Note on ::  Channel 1.  Note 40.  Velocity 127
000027t:  Note on ::  Channel 1.  Note 40.  Velocity 0
000021t:  Note on ::  Channel 1.  Note 40.  Velocity 127
000130t:  Note on ::  Channel 1.  Note 40.  Velocity 0
000063t:  Note on ::  Channel 1.  Note 33.  Velocity 127
000034t:  Note on ::  Channel 1.  Note 33.  Velocity 0
000014t:  Note on ::  Channel 1.  Note 33.  Velocity 127
000033t:  Note on ::  Channel 1.  Note 33.  Velocity 0
000014t:  Note on ::  Channel 1.  Note 33.  Velocity 127
000034t:  Note on ::  Channel 1.  Note 33.  Velocity 0
000208t:  Note on ::  Channel 1.  Note 38.  Velocity 127
000035t:  Note on ::  Channel 1.  Note 38.  Velocity 0
000061t:  Note on ::  Channel 1.  Note 38.  Velocity 127
000034t:  Note on ::  Channel 1.  Note 38.  Velocity 0
000062t:  Note on ::  Channel 1.  Note 38.  Velocity 127
000032t:  Note on ::  Channel 1.  Note 38.  Velocity 0
000016t:  Note on ::  Channel 1.  Note 37.  Velocity 127
000149t:  Note on ::  Channel 1.  Note 37.  Velocity 0
000045t:  Note on ::  Channel 1.  Note 35.  Velocity 127
000033t:  Note on ::  Channel 1.  Note 35.  Velocity 0
000014t:  Note on ::  Channel 1.  Note 35.  Velocity 127
000032t:  Note on ::  Channel 1.  Note 35.  Velocity 0
000016t:  Note on ::  Channel 1.  Note 35.  Velocity 127
000031t:  Note on ::  Channel 1.  Note 35.  Velocity 0
000210t:  Note on ::  Channel 1.  Note 40.  Velocity 127
000035t:  Note on ::  Channel 1.  Note 40.  Velocity 0
000061t:  Note on ::  Channel 1.  Note 40.  Velocity 127
000034t:  Note on ::  Channel 1.  Note 40.  Velocity 0
000063t:  Note on ::  Channel 1.  Note 40.  Velocity 127
000027t:  Note on ::  Channel 1.  Note 40.  Velocity 0
000021t:  Note on ::  Channel 1.  Note 40.  Velocity 127
000130t:  Note on ::  Channel 1.  Note 40.  Velocity 0
000063t:  Note on ::  Channel 1.  Note 35.  Velocity 127
000033t:  Note on ::  Channel 1.  Note 35.  Velocity 0
000014t:  Note on ::  Channel 1.  Note 35.  Velocity 127
000033t:  Note on ::  Channel 1.  Note 35.  Velocity 0
000015t:  Note on ::  Channel 1.  Note 35.  Velocity 127
000034t:  Note on ::  Channel 1.  Note 35.  Velocity 0
000207t:  Note on ::  Channel 1.  Note 40.  Velocity 127
000036t:  Note on ::  Channel 1.  Note 40.  Velocity 0
000060t:  Note on ::  Channel 1.  Note 40.  Velocity 127
000035t:  Note on ::  Channel 1.  Note 40.  Velocity 0
000062t:  Note on ::  Channel 1.  Note 40.  Velocity 127
000031t:  Note on ::  Channel 1.  Note 40.  Velocity 0
000017t:  Note on ::  Channel 1.  Note 40.  Velocity 127
000149t:  Note on ::  Channel 1.  Note 40.  Velocity 0
000044t:  Note on ::  Channel 1.  Note 35.  Velocity 127
000033t:  Note on ::  Channel 1.  Note 35.  Velocity 0
000014t:  Note on ::  Channel 1.  Note 35.  Velocity 127
000032t:  Note on ::  Channel 1.  Note 35.  Velocity 0
000016t:  Note on ::  Channel 1.  Note 35.  Velocity 127
000032t:  Note on ::  Channel 1.  Note 35.  Velocity 0
000209t:  Note on ::  Channel 1.  Note 40.  Velocity 127
000036t:  Note on ::  Channel 1.  Note 40.  Velocity 0
000060t:  Note on ::  Channel 1.  Note 40.  Velocity 127
000035t:  Note on ::  Channel 1.  Note 40.  Velocity 0
000062t:  Note on ::  Channel 1.  Note 40.  Velocity 127
000028t:  Note on ::  Channel 1.  Note 40.  Velocity 0
000020t:  Note on ::  Channel 1.  Note 40.  Velocity 127
000130t:  Note on ::  Channel 1.  Note 40.  Velocity 0
000063t:  Note on ::  Channel 1.  Note 33.  Velocity 127
000033t:  Note on ::  Channel 1.  Note 33.  Velocity 0
000015t:  Note on ::  Channel 1.  Note 33.  Velocity 127
000033t:  Note on ::  Channel 1.  Note 33.  Velocity 0
000014t:  Note on ::  Channel 1.  Note 33.  Velocity 127
000035t:  Note on ::  Channel 1.  Note 33.  Velocity 0
000207t:  Note on ::  Channel 1.  Note 38.  Velocity 127
000036t:  Note on ::  Channel 1.  Note 38.  Velocity 0
000060t:  Note on ::  Channel 1.  Note 38.  Velocity 127
000034t:  Note on ::  Channel 1.  Note 38.  Velocity 0
000062t:  Note on ::  Channel 1.  Note 38.  Velocity 127
000032t:  Note on ::  Channel 1.  Note 38.  Velocity 0
000017t:  Note on ::  Channel 1.  Note 37.  Velocity 127
000149t:  Note on ::  Channel 1.  Note 37.  Velocity 0
000044t:  Note on ::  Channel 1.  Note 35.  Velocity 127
000033t:  Note on ::  Channel 1.  Note 35.  Velocity 0
000014t:  Note on ::  Channel 1.  Note 35.  Velocity 127
000032t:  Note on ::  Channel 1.  Note 35.  Velocity 0
000016t:  Note on ::  Channel 1.  Note 35.  Velocity 127
000031t:  Note on ::  Channel 1.  Note 35.  Velocity 0
000210t:  Note on ::  Channel 1.  Note 40.  Velocity 127
000036t:  Note on ::  Channel 1.  Note 40.  Velocity 0
000060t:  Note on ::  Channel 1.  Note 40.  Velocity 127
000035t:  Note on ::  Channel 1.  Note 40.  Velocity 0
000061t:  Note on ::  Channel 1.  Note 40.  Velocity 127
000028t:  Note on ::  Channel 1.  Note 40.  Velocity 0
000021t:  Note on ::  Channel 1.  Note 40.  Velocity 127
000130t:  Note on ::  Channel 1.  Note 40.  Velocity 0
000063t:  Note on ::  Channel 1.  Note 33.  Velocity 127
000033t:  Note on ::  Channel 1.  Note 33.  Velocity 0
000015t:  Note on ::  Channel 1.  Note 33.  Velocity 127
000033t:  Note on ::  Channel 1.  Note 33.  Velocity 0
000014t:  Note on ::  Channel 1.  Note 33.  Velocity 127
000034t:  Note on ::  Channel 1.  Note 33.  Velocity 0
000208t:  Note on ::  Channel 1.  Note 38.  Velocity 127
000035t:  Note on ::  Channel 1.  Note 38.  Velocity 0
000061t:  Note on ::  Channel 1.  Note 38.  Velocity 127
000034t:  Note on ::  Channel 1.  Note 38.  Velocity 0
000062t:  Note on ::  Channel 1.  Note 38.  Velocity 127
000032t:  Note on ::  Channel 1.  Note 38.  Velocity 0
000017t:  Note on ::  Channel 1.  Note 37.  Velocity 127
000148t:  Note on ::  Channel 1.  Note 37.  Velocity 0
000044t:  Note on ::  Channel 1.  Note 35.  Velocity 127
000034t:  Note on ::  Channel 1.  Note 35.  Velocity 0
000014t:  Note on ::  Channel 1.  Note 35.  Velocity 127
000032t:  Note on ::  Channel 1.  Note 35.  Velocity 0
000016t:  Note on ::  Channel 1.  Note 35.  Velocity 127
000031t:  Note on ::  Channel 1.  Note 35.  Velocity 0
000210t:  Note on ::  Channel 1.  Note 40.  Velocity 127
000036t:  Note on ::  Channel 1.  Note 40.  Velocity 0
000060t:  Note on ::  Channel 1.  Note 40.  Velocity 127
000035t:  Note on ::  Channel 1.  Note 40.  Velocity 0
000061t:  Note on ::  Channel 1.  Note 40.  Velocity 127
000028t:  Note on ::  Channel 1.  Note 40.  Velocity 0
000021t:  Note on ::  Channel 1.  Note 40.  Velocity 127
000130t:  Note on ::  Channel 1.  Note 40.  Velocity 0
000063t:  Note on ::  Channel 1.  Note 42.  Velocity 127
000033t:  Note on ::  Channel 1.  Note 42.  Velocity 0
000014t:  Note on ::  Channel 1.  Note 42.  Velocity 127
000033t:  Note on ::  Channel 1.  Note 42.  Velocity 0
000015t:  Note on ::  Channel 1.  Note 42.  Velocity 127
000034t:  Note on ::  Channel 1.  Note 42.  Velocity 0
000207t:  Note on ::  Channel 1.  Note 38.  Velocity 127
000036t:  Note on ::  Channel 1.  Note 38.  Velocity 0
000061t:  Note on ::  Channel 1.  Note 38.  Velocity 127
000034t:  Note on ::  Channel 1.  Note 38.  Velocity 0
000062t:  Note on ::  Channel 1.  Note 54.  Velocity 127
000044t:  Note on ::  Channel 1.  Note 54.  Velocity 0
000004t:  Note on ::  Channel 1.  Note 52.  Velocity 127
000043t:  Note on ::  Channel 1.  Note 52.  Velocity 0
000005t:  Note on ::  Channel 1.  Note 50.  Velocity 127
000044t:  Note on ::  Channel 1.  Note 50.  Velocity 0
000004t:  Note on ::  Channel 1.  Note 49.  Velocity 127
000043t:  Note on ::  Channel 1.  Note 49.  Velocity 0
000005t:  Note on ::  Channel 1.  Note 47.  Velocity 127
000045t:  Note on ::  Channel 1.  Note 47.  Velocity 0
000004t:  Note on ::  Channel 1.  Note 33.  Velocity 127
000033t:  Note on ::  Channel 1.  Note 33.  Velocity 0
000014t:  Note on ::  Channel 1.  Note 33.  Velocity 127
000030t:  Note on ::  Channel 1.  Note 33.  Velocity 0
000018t:  Note on ::  Channel 1.  Note 33.  Velocity 127
000071t:  Note on ::  Channel 1.  Note 33.  Velocity 0
000025t:  Note on ::  Channel 1.  Note 33.  Velocity 127
000069t:  Note on ::  Channel 1.  Note 33.  Velocity 0
000028t:  Note on ::  Channel 1.  Note 33.  Velocity 127
000067t:  Note on ::  Channel 1.  Note 33.  Velocity 0
000031t:  Note on ::  Channel 1.  Note 32.  Velocity 127
000065t:  Note on ::  Channel 1.  Note 32.  Velocity 0
000031t:  Note on ::  Channel 1.  Note 32.  Velocity 127
000073t:  Note on ::  Channel 1.  Note 32.  Velocity 0
000023t:  Note on ::  Channel 1.  Note 32.  Velocity 127
000067t:  Note on ::  Channel 1.  Note 32.  Velocity 0
000029t:  Note on ::  Channel 1.  Note 32.  Velocity 127
000075t:  Note on ::  Channel 1.  Note 32.  Velocity 0
000023t:  Note on ::  Channel 1.  Note 30.  Velocity 127
000070t:  Note on ::  Channel 1.  Note 30.  Velocity 0
000025t:  Note on ::  Channel 1.  Note 30.  Velocity 127
000068t:  Note on ::  Channel 1.  Note 30.  Velocity 0
000028t:  Note on ::  Channel 1.  Note 30.  Velocity 127
000075t:  Note on ::  Channel 1.  Note 30.  Velocity 0
000021t:  Note on ::  Channel 1.  Note 30.  Velocity 127
000088t:  Note on ::  Channel 1.  Note 30.  Velocity 0
000009t:  Note on ::  Channel 1.  Note 38.  Velocity 127
000027t:  Note on ::  Channel 1.  Note 38.  Velocity 0
000020t:  Note on ::  Channel 1.  Note 38.  Velocity 127
000024t:  Note on ::  Channel 1.  Note 38.  Velocity 0
000025t:  Note on ::  Channel 1.  Note 38.  Velocity 127
000024t:  Note on ::  Channel 1.  Note 38.  Velocity 0
000023t:  Note on ::  Channel 1.  Note 38.  Velocity 127
000027t:  Note on ::  Channel 1.  Note 38.  Velocity 0
000022t:  Note on ::  Channel 1.  Note 38.  Velocity 127
000029t:  Note on ::  Channel 1.  Note 38.  Velocity 0
000018t:  Note on ::  Channel 1.  Note 38.  Velocity 127
000028t:  Note on ::  Channel 1.  Note 38.  Velocity 0
000022t:  Note on ::  Channel 1.  Note 38.  Velocity 127
000029t:  Note on ::  Channel 1.  Note 38.  Velocity 0
000017t:  Note on ::  Channel 1.  Note 38.  Velocity 127
000030t:  Note on ::  Channel 1.  Note 38.  Velocity 0
000021t:  Note on ::  Channel 1.  Note 33.  Velocity 127
000032t:  Note on ::  Channel 1.  Note 33.  Velocity 0
000014t:  Note on ::  Channel 1.  Note 33.  Velocity 127
000032t:  Note on ::  Channel 1.  Note 33.  Velocity 0
000017t:  Note on ::  Channel 1.  Note 33.  Velocity 127
000069t:  Note on ::  Channel 1.  Note 33.  Velocity 0
000027t:  Note on ::  Channel 1.  Note 33.  Velocity 127
000074t:  Note on ::  Channel 1.  Note 33.  Velocity 0
000023t:  Note on ::  Channel 1.  Note 33.  Velocity 127
000075t:  Note on ::  Channel 1.  Note 33.  Velocity 0
000022t:  Note on ::  Channel 1.  Note 32.  Velocity 127
000067t:  Note on ::  Channel 1.  Note 32.  Velocity 0
000028t:  Note on ::  Channel 1.  Note 32.  Velocity 127
000077t:  Note on ::  Channel 1.  Note 32.  Velocity 0
000019t:  Note on ::  Channel 1.  Note 32.  Velocity 127
000073t:  Note on ::  Channel 1.  Note 32.  Velocity 0
000024t:  Note on ::  Channel 1.  Note 32.  Velocity 127
000076t:  Note on ::  Channel 1.  Note 32.  Velocity 0
000021t:  Note on ::  Channel 1.  Note 30.  Velocity 127
000068t:  Note on ::  Channel 1.  Note 30.  Velocity 0
000027t:  Note on ::  Channel 1.  Note 30.  Velocity 127
000074t:  Note on ::  Channel 1.  Note 30.  Velocity 0
000023t:  Note on ::  Channel 1.  Note 30.  Velocity 127
000078t:  Note on ::  Channel 1.  Note 30.  Velocity 0
000018t:  Note on ::  Channel 1.  Note 30.  Velocity 127
000075t:  Note on ::  Channel 1.  Note 30.  Velocity 0
000022t:  Note on ::  Channel 1.  Note 38.  Velocity 127
000029t:  Note on ::  Channel 1.  Note 38.  Velocity 0
000017t:  Note on ::  Channel 1.  Note 38.  Velocity 127
000027t:  Note on ::  Channel 1.  Note 38.  Velocity 0
000023t:  Note on ::  Channel 1.  Note 38.  Velocity 127
000023t:  Note on ::  Channel 1.  Note 38.  Velocity 0
000024t:  Note on ::  Channel 1.  Note 38.  Velocity 127
000025t:  Note on ::  Channel 1.  Note 38.  Velocity 0
000024t:  Note on ::  Channel 1.  Note 38.  Velocity 127
000026t:  Note on ::  Channel 1.  Note 38.  Velocity 0
000021t:  Note on ::  Channel 1.  Note 38.  Velocity 127
000028t:  Note on ::  Channel 1.  Note 38.  Velocity 0
000021t:  Note on ::  Channel 1.  Note 38.  Velocity 127
000024t:  Note on ::  Channel 1.  Note 38.  Velocity 0
000023t:  Note on ::  Channel 1.  Note 38.  Velocity 127
000026t:  Note on ::  Channel 1.  Note 38.  Velocity 0
000025t:  Note on ::  Channel 1.  Note 33.  Velocity 127
000032t:  Note on ::  Channel 1.  Note 33.  Velocity 0
000013t:  Note on ::  Channel 1.  Note 33.  Velocity 127
000031t:  Note on ::  Channel 1.  Note 33.  Velocity 0
000018t:  Note on ::  Channel 1.  Note 33.  Velocity 127
000034t:  Note on ::  Channel 1.  Note 33.  Velocity 0
000206t:  Note on ::  Channel 1.  Note 33.  Velocity 127
000037t:  Note on ::  Channel 1.  Note 33.  Velocity 0
000013t:  Note on ::  Channel 1.  Note 32.  Velocity 127
000030t:  Note on ::  Channel 1.  Note 32.  Velocity 0
000017t:  Note on ::  Channel 1.  Note 32.  Velocity 127
000033t:  Note on ::  Channel 1.  Note 32.  Velocity 0
000016t:  Note on ::  Channel 1.  Note 32.  Velocity 127
000041t:  Note on ::  Channel 1.  Note 32.  Velocity 0
000199t:  Note on ::  Channel 1.  Note 32.  Velocity 127
000032t:  Note on ::  Channel 1.  Note 32.  Velocity 0
000018t:  Note on ::  Channel 1.  Note 30.  Velocity 127
000029t:  Note on ::  Channel 1.  Note 30.  Velocity 0
000017t:  Note on ::  Channel 1.  Note 30.  Velocity 127
000031t:  Note on ::  Channel 1.  Note 30.  Velocity 0
000018t:  Note on ::  Channel 1.  Note 30.  Velocity 127
000037t:  Note on ::  Channel 1.  Note 30.  Velocity 0
000203t:  Note on ::  Channel 1.  Note 38.  Velocity 127
000032t:  Note on ::  Channel 1.  Note 38.  Velocity 0
000017t:  Note on ::  Channel 1.  Note 38.  Velocity 127
000033t:  Note on ::  Channel 1.  Note 38.  Velocity 0
000014t:  Note on ::  Channel 1.  Note 38.  Velocity 127
000030t:  Note on ::  Channel 1.  Note 38.  Velocity 0
000019t:  Note on ::  Channel 1.  Note 38.  Velocity 127
000029t:  Note on ::  Channel 1.  Note 38.  Velocity 0
000018t:  Note on ::  Channel 1.  Note 38.  Velocity 127
000030t:  Note on ::  Channel 1.  Note 38.  Velocity 0
000019t:  Note on ::  Channel 1.  Note 38.  Velocity 127
000027t:  Note on ::  Channel 1.  Note 38.  Velocity 0
000021t:  Note on ::  Channel 1.  Note 42.  Velocity 127
000033t:  Note on ::  Channel 1.  Note 42.  Velocity 0
000016t:  Note on ::  Channel 1.  Note 40.  Velocity 127
000033t:  Note on ::  Channel 1.  Note 40.  Velocity 0
000014t:  Note on ::  Channel 1.  Note 38.  Velocity 127
000034t:  Note on ::  Channel 1.  Note 38.  Velocity 0
000018t:  Note on ::  Channel 1.  Note 33.  Velocity 127
000030t:  Note on ::  Channel 1.  Note 33.  Velocity 0
000014t:  Note on ::  Channel 1.  Note 33.  Velocity 127
000030t:  Note on ::  Channel 1.  Note 33.  Velocity 0
000020t:  Note on ::  Channel 1.  Note 33.  Velocity 127
000070t:  Note on ::  Channel 1.  Note 33.  Velocity 0
000026t:  Note on ::  Channel 1.  Note 33.  Velocity 127
000067t:  Note on ::  Channel 1.  Note 33.  Velocity 0
000029t:  Note on ::  Channel 1.  Note 33.  Velocity 127
000066t:  Note on ::  Channel 1.  Note 33.  Velocity 0
000031t:  Note on ::  Channel 1.  Note 32.  Velocity 127
000065t:  Note on ::  Channel 1.  Note 32.  Velocity 0
000031t:  Note on ::  Channel 1.  Note 32.  Velocity 127
000074t:  Note on ::  Channel 1.  Note 32.  Velocity 0
000022t:  Note on ::  Channel 1.  Note 32.  Velocity 127
000067t:  Note on ::  Channel 1.  Note 32.  Velocity 0
000029t:  Note on ::  Channel 1.  Note 32.  Velocity 127
000075t:  Note on ::  Channel 1.  Note 32.  Velocity 0
000023t:  Note on ::  Channel 1.  Note 30.  Velocity 127
000071t:  Note on ::  Channel 1.  Note 30.  Velocity 0
000024t:  Note on ::  Channel 1.  Note 30.  Velocity 127
000068t:  Note on ::  Channel 1.  Note 30.  Velocity 0
000028t:  Note on ::  Channel 1.  Note 30.  Velocity 127
000075t:  Note on ::  Channel 1.  Note 30.  Velocity 0
000021t:  Note on ::  Channel 1.  Note 30.  Velocity 127
000088t:  Note on ::  Channel 1.  Note 30.  Velocity 0
000009t:  Note on ::  Channel 1.  Note 38.  Velocity 127
000028t:  Note on ::  Channel 1.  Note 38.  Velocity 0
000019t:  Note on ::  Channel 1.  Note 38.  Velocity 127
000024t:  Note on ::  Channel 1.  Note 38.  Velocity 0
000025t:  Note on ::  Channel 1.  Note 38.  Velocity 127
000024t:  Note on ::  Channel 1.  Note 38.  Velocity 0
000023t:  Note on ::  Channel 1.  Note 38.  Velocity 127
000027t:  Note on ::  Channel 1.  Note 38.  Velocity 0
000022t:  Note on ::  Channel 1.  Note 38.  Velocity 127
000029t:  Note on ::  Channel 1.  Note 38.  Velocity 0
000018t:  Note on ::  Channel 1.  Note 38.  Velocity 127
000029t:  Note on ::  Channel 1.  Note 38.  Velocity 0
000021t:  Note on ::  Channel 1.  Note 38.  Velocity 127
000030t:  Note on ::  Channel 1.  Note 38.  Velocity 0
000017t:  Note on ::  Channel 1.  Note 38.  Velocity 127
000029t:  Note on ::  Channel 1.  Note 38.  Velocity 0
000021t:  Note on ::  Channel 1.  Note 33.  Velocity 127
000032t:  Note on ::  Channel 1.  Note 33.  Velocity 0
000014t:  Note on ::  Channel 1.  Note 33.  Velocity 127
000034t:  Note on ::  Channel 1.  Note 33.  Velocity 0
000015t:  Note on ::  Channel 1.  Note 33.  Velocity 127
000069t:  Note on ::  Channel 1.  Note 33.  Velocity 0
000027t:  Note on ::  Channel 1.  Note 33.  Velocity 127
000074t:  Note on ::  Channel 1.  Note 33.  Velocity 0
000023t:  Note on ::  Channel 1.  Note 33.  Velocity 127
000075t:  Note on ::  Channel 1.  Note 33.  Velocity 0
000022t:  Note on ::  Channel 1.  Note 32.  Velocity 127
000068t:  Note on ::  Channel 1.  Note 32.  Velocity 0
000027t:  Note on ::  Channel 1.  Note 32.  Velocity 127
000077t:  Note on ::  Channel 1.  Note 32.  Velocity 0
000020t:  Note on ::  Channel 1.  Note 32.  Velocity 127
000072t:  Note on ::  Channel 1.  Note 32.  Velocity 0
000024t:  Note on ::  Channel 1.  Note 32.  Velocity 127
000077t:  Note on ::  Channel 1.  Note 32.  Velocity 0
000020t:  Note on ::  Channel 1.  Note 30.  Velocity 127
000068t:  Note on ::  Channel 1.  Note 30.  Velocity 0
000028t:  Note on ::  Channel 1.  Note 30.  Velocity 127
000073t:  Note on ::  Channel 1.  Note 30.  Velocity 0
000023t:  Note on ::  Channel 1.  Note 30.  Velocity 127
000078t:  Note on ::  Channel 1.  Note 30.  Velocity 0
000018t:  Note on ::  Channel 1.  Note 30.  Velocity 127
000075t:  Note on ::  Channel 1.  Note 30.  Velocity 0
000022t:  Note on ::  Channel 1.  Note 38.  Velocity 127
000030t:  Note on ::  Channel 1.  Note 38.  Velocity 0
000016t:  Note on ::  Channel 1.  Note 38.  Velocity 127
000027t:  Note on ::  Channel 1.  Note 38.  Velocity 0
000023t:  Note on ::  Channel 1.  Note 38.  Velocity 127
000024t:  Note on ::  Channel 1.  Note 38.  Velocity 0
000023t:  Note on ::  Channel 1.  Note 38.  Velocity 127
000025t:  Note on ::  Channel 1.  Note 38.  Velocity 0
000024t:  Note on ::  Channel 1.  Note 38.  Velocity 127
000026t:  Note on ::  Channel 1.  Note 38.  Velocity 0
000021t:  Note on ::  Channel 1.  Note 38.  Velocity 127
000030t:  Note on ::  Channel 1.  Note 38.  Velocity 0
000019t:  Note on ::  Channel 1.  Note 38.  Velocity 127
000024t:  Note on ::  Channel 1.  Note 38.  Velocity 0
000023t:  Note on ::  Channel 1.  Note 38.  Velocity 127
000026t:  Note on ::  Channel 1.  Note 38.  Velocity 0
000025t:  Note on ::  Channel 1.  Note 33.  Velocity 127
000033t:  Note on ::  Channel 1.  Note 33.  Velocity 0
000013t:  Note on ::  Channel 1.  Note 33.  Velocity 127
000029t:  Note on ::  Channel 1.  Note 33.  Velocity 0
000020t:  Note on ::  Channel 1.  Note 33.  Velocity 127
000070t:  Note on ::  Channel 1.  Note 33.  Velocity 0
000026t:  Note on ::  Channel 1.  Note 33.  Velocity 127
000067t:  Note on ::  Channel 1.  Note 33.  Velocity 0
000030t:  Note on ::  Channel 1.  Note 33.  Velocity 127
000065t:  Note on ::  Channel 1.  Note 33.  Velocity 0
000031t:  Note on ::  Channel 1.  Note 32.  Velocity 127
000066t:  Note on ::  Channel 1.  Note 32.  Velocity 0
000030t:  Note on ::  Channel 1.  Note 32.  Velocity 127
000074t:  Note on ::  Channel 1.  Note 32.  Velocity 0
000022t:  Note on ::  Channel 1.  Note 32.  Velocity 127
000068t:  Note on ::  Channel 1.  Note 32.  Velocity 0
000029t:  Note on ::  Channel 1.  Note 32.  Velocity 127
000075t:  Note on ::  Channel 1.  Note 32.  Velocity 0
000022t:  Note on ::  Channel 1.  Note 30.  Velocity 127
000072t:  Note on ::  Channel 1.  Note 30.  Velocity 0
000023t:  Note on ::  Channel 1.  Note 30.  Velocity 127
000069t:  Note on ::  Channel 1.  Note 30.  Velocity 0
000027t:  Note on ::  Channel 1.  Note 30.  Velocity 127
000076t:  Note on ::  Channel 1.  Note 30.  Velocity 0
000021t:  Note on ::  Channel 1.  Note 30.  Velocity 127
000087t:  Note on ::  Channel 1.  Note 30.  Velocity 0
000009t:  Note on ::  Channel 1.  Note 38.  Velocity 127
000028t:  Note on ::  Channel 1.  Note 38.  Velocity 0
000019t:  Note on ::  Channel 1.  Note 38.  Velocity 127
000024t:  Note on ::  Channel 1.  Note 38.  Velocity 0
000026t:  Note on ::  Channel 1.  Note 38.  Velocity 127
000023t:  Note on ::  Channel 1.  Note 38.  Velocity 0
000024t:  Note on ::  Channel 1.  Note 38.  Velocity 127
000026t:  Note on ::  Channel 1.  Note 38.  Velocity 0
000023t:  Note on ::  Channel 1.  Note 38.  Velocity 127
000029t:  Note on ::  Channel 1.  Note 38.  Velocity 0
000018t:  Note on ::  Channel 1.  Note 38.  Velocity 127
000028t:  Note on ::  Channel 1.  Note 38.  Velocity 0
000021t:  Note on ::  Channel 1.  Note 38.  Velocity 127
000031t:  Note on ::  Channel 1.  Note 38.  Velocity 0
000016t:  Note on ::  Channel 1.  Note 38.  Velocity 127
000030t:  Note on ::  Channel 1.  Note 38.  Velocity 0
000021t:  Note on ::  Channel 1.  Note 33.  Velocity 127
000033t:  Note on ::  Channel 1.  Note 33.  Velocity 0
000012t:  Note on ::  Channel 1.  Note 33.  Velocity 127
000030t:  Note on ::  Channel 1.  Note 33.  Velocity 0
000020t:  Note on ::  Channel 1.  Note 33.  Velocity 127
000070t:  Note on ::  Channel 1.  Note 33.  Velocity 0
000026t:  Note on ::  Channel 1.  Note 33.  Velocity 127
000067t:  Note on ::  Channel 1.  Note 33.  Velocity 0
000029t:  Note on ::  Channel 1.  Note 33.  Velocity 127
000066t:  Note on ::  Channel 1.  Note 33.  Velocity 0
000031t:  Note on ::  Channel 1.  Note 32.  Velocity 127
000065t:  Note on ::  Channel 1.  Note 32.  Velocity 0
000031t:  Note on ::  Channel 1.  Note 32.  Velocity 127
000074t:  Note on ::  Channel 1.  Note 32.  Velocity 0
000022t:  Note on ::  Channel 1.  Note 32.  Velocity 127
000067t:  Note on ::  Channel 1.  Note 32.  Velocity 0
000030t:  Note on ::  Channel 1.  Note 32.  Velocity 127
000075t:  Note on ::  Channel 1.  Note 32.  Velocity 0
000022t:  Note on ::  Channel 1.  Note 30.  Velocity 127
000072t:  Note on ::  Channel 1.  Note 30.  Velocity 0
000023t:  Note on ::  Channel 1.  Note 30.  Velocity 127
000069t:  Note on ::  Channel 1.  Note 30.  Velocity 0
000027t:  Note on ::  Channel 1.  Note 30.  Velocity 127
000076t:  Note on ::  Channel 1.  Note 30.  Velocity 0
000021t:  Note on ::  Channel 1.  Note 30.  Velocity 127
000087t:  Note on ::  Channel 1.  Note 30.  Velocity 0
000009t:  Note on ::  Channel 1.  Note 38.  Velocity 127
000028t:  Note on ::  Channel 1.  Note 38.  Velocity 0
000019t:  Note on ::  Channel 1.  Note 38.  Velocity 127
000024t:  Note on ::  Channel 1.  Note 38.  Velocity 0
000025t:  Note on ::  Channel 1.  Note 38.  Velocity 127
000024t:  Note on ::  Channel 1.  Note 38.  Velocity 0
000023t:  Note on ::  Channel 1.  Note 38.  Velocity 127
000027t:  Note on ::  Channel 1.  Note 38.  Velocity 0
000022t:  Note on ::  Channel 1.  Note 38.  Velocity 127
000030t:  Note on ::  Channel 1.  Note 38.  Velocity 0
000017t:  Note on ::  Channel 1.  Note 38.  Velocity 127
000029t:  Note on ::  Channel 1.  Note 38.  Velocity 0
000021t:  Note on ::  Channel 1.  Note 38.  Velocity 127
000031t:  Note on ::  Channel 1.  Note 38.  Velocity 0
000016t:  Note on ::  Channel 1.  Note 38.  Velocity 127
000029t:  Note on ::  Channel 1.  Note 38.  Velocity 0
000022t:  Note on ::  Channel 1.  Note 33.  Velocity 127
000031t:  Note on ::  Channel 1.  Note 33.  Velocity 0
000014t:  Note on ::  Channel 1.  Note 33.  Velocity 127
000034t:  Note on ::  Channel 1.  Note 33.  Velocity 0
000015t:  Note on ::  Channel 1.  Note 33.  Velocity 127
000069t:  Note on ::  Channel 1.  Note 33.  Velocity 0
000027t:  Note on ::  Channel 1.  Note 33.  Velocity 127
000075t:  Note on ::  Channel 1.  Note 33.  Velocity 0
000022t:  Note on ::  Channel 1.  Note 33.  Velocity 127
000050t:  Control change ::  Channel 1.  Controller 7.  Value: 99
000022t:  Control change ::  Channel 1.  Controller 7.  Value: 98
000003t:  Note on ::  Channel 1.  Note 33.  Velocity 0
000023t:  Note on ::  Channel 1.  Note 32.  Velocity 127
000002t:  Control change ::  Channel 1.  Controller 7.  Value: 97
000030t:  Control change ::  Channel 1.  Controller 7.  Value: 96
000011t:  Control change ::  Channel 1.  Controller 7.  Value: 95
000018t:  Control change ::  Channel 1.  Controller 7.  Value: 94
000006t:  Note on ::  Channel 1.  Note 32.  Velocity 0
000028t:  Note on ::  Channel 1.  Note 32.  Velocity 127
000009t:  Control change ::  Channel 1.  Controller 7.  Value: 93
000033t:  Control change ::  Channel 1.  Controller 7.  Value: 92
000028t:  Control change ::  Channel 1.  Controller 7.  Value: 91
000006t:  Note on ::  Channel 1.  Note 32.  Velocity 0
000020t:  Note on ::  Channel 1.  Note 32.  Velocity 127
000040t:  Control change ::  Channel 1.  Controller 7.  Value: 90
000032t:  Note on ::  Channel 1.  Note 32.  Velocity 0
000015t:  Control change ::  Channel 1.  Controller 7.  Value: 89
000009t:  Note on ::  Channel 1.  Note 32.  Velocity 127
000030t:  Control change ::  Channel 1.  Controller 7.  Value: 88
000018t:  Control change ::  Channel 1.  Controller 7.  Value: 87
000029t:  Note on ::  Channel 1.  Note 32.  Velocity 0
000019t:  Control change ::  Channel 1.  Controller 7.  Value: 86
000002t:  Note on ::  Channel 1.  Note 30.  Velocity 127
000011t:  Control change ::  Channel 1.  Controller 7.  Value: 85
000015t:  Control change ::  Channel 1.  Controller 7.  Value: 84
000008t:  Control change ::  Channel 1.  Controller 7.  Value: 83
000022t:  Control change ::  Channel 1.  Controller 7.  Value: 82
000011t:  Note on ::  Channel 1.  Note 30.  Velocity 0
000028t:  Note on ::  Channel 1.  Note 30.  Velocity 127
000011t:  Control change ::  Channel 1.  Controller 7.  Value: 81
000029t:  Control change ::  Channel 1.  Controller 7.  Value: 80
000025t:  Control change ::  Channel 1.  Controller 7.  Value: 79
000009t:  Note on ::  Channel 1.  Note 30.  Velocity 0
000022t:  Note on ::  Channel 1.  Note 30.  Velocity 127
000013t:  Control change ::  Channel 1.  Controller 7.  Value: 78
000028t:  Control change ::  Channel 1.  Controller 7.  Value: 77
000015t:  Control change ::  Channel 1.  Controller 7.  Value: 76
000022t:  Note on ::  Channel 1.  Note 30.  Velocity 0
000015t:  Control change ::  Channel 1.  Controller 7.  Value: 75
000004t:  Note on ::  Channel 1.  Note 30.  Velocity 127
000020t:  Control change ::  Channel 1.  Controller 7.  Value: 74
000015t:  Control change ::  Channel 1.  Controller 7.  Value: 73
000015t:  Control change ::  Channel 1.  Controller 7.  Value: 72
000022t:  Control change ::  Channel 1.  Controller 7.  Value: 71
000003t:  Note on ::  Channel 1.  Note 30.  Velocity 0
000018t:  Control change ::  Channel 1.  Controller 7.  Value: 70
000003t:  Note on ::  Channel 1.  Note 38.  Velocity 127
000028t:  Control change ::  Channel 1.  Controller 7.  Value: 69
000002t:  Note on ::  Channel 1.  Note 38.  Velocity 0
000008t:  Control change ::  Channel 1.  Controller 7.  Value: 68
000009t:  Note on ::  Channel 1.  Note 38.  Velocity 127
000002t:  Control change ::  Channel 1.  Controller 7.  Value: 67
000004t:  Control change ::  Channel 1.  Controller 7.  Value: 66
000011t:  Control change ::  Channel 1.  Controller 7.  Value: 65
000010t:  Note on ::  Channel 1.  Note 38.  Velocity 0
000019t:  Control change ::  Channel 1.  Controller 7.  Value: 64
000003t:  Note on ::  Channel 1.  Note 38.  Velocity 127
000012t:  Control change ::  Channel 1.  Controller 7.  Value: 63
000012t:  Note on ::  Channel 1.  Note 38.  Velocity 0
000023t:  Note on ::  Channel 1.  Note 38.  Velocity 127
000012t:  Control change ::  Channel 1.  Controller 7.  Value: 62
000014t:  Note on ::  Channel 1.  Note 38.  Velocity 0
000023t:  Note on ::  Channel 1.  Note 38.  Velocity 127
000027t:  Note on ::  Channel 1.  Note 38.  Velocity 0
000000t:  Control change ::  Channel 1.  Controller 7.  Value: 61
000022t:  Control change ::  Channel 1.  Controller 7.  Value: 60
000000t:  Note on ::  Channel 1.  Note 38.  Velocity 127
000028t:  Note on ::  Channel 1.  Note 38.  Velocity 0
000005t:  Control change ::  Channel 1.  Controller 7.  Value: 59
000015t:  Note on ::  Channel 1.  Note 38.  Velocity 127
000017t:  Control change ::  Channel 1.  Controller 7.  Value: 58
000006t:  Note on ::  Channel 1.  Note 38.  Velocity 0
000024t:  Note on ::  Channel 1.  Note 38.  Velocity 127
000013t:  Control change ::  Channel 1.  Controller 7.  Value: 57
000012t:  Note on ::  Channel 1.  Note 38.  Velocity 0
000027t:  Control change ::  Channel 1.  Controller 7.  Value: 56
000000t:  Note on ::  Channel 1.  Note 33.  Velocity 127
000026t:  Control change ::  Channel 1.  Controller 7.  Value: 55
000005t:  Note on ::  Channel 1.  Note 33.  Velocity 0
000010t:  Control change ::  Channel 1.  Controller 7.  Value: 54
000003t:  Note on ::  Channel 1.  Note 33.  Velocity 127
000019t:  Control change ::  Channel 1.  Controller 7.  Value: 53
000010t:  Note on ::  Channel 1.  Note 33.  Velocity 0
000020t:  Note on ::  Channel 1.  Note 33.  Velocity 127
000027t:  Control change ::  Channel 1.  Controller 7.  Value: 52
000028t:  Control change ::  Channel 1.  Controller 7.  Value: 51
000015t:  Note on ::  Channel 1.  Note 33.  Velocity 0
000012t:  Control change ::  Channel 1.  Controller 7.  Value: 50
000010t:  Control change ::  Channel 1.  Controller 7.  Value: 49
000004t:  Note on ::  Channel 1.  Note 33.  Velocity 127
000015t:  Control change ::  Channel 1.  Controller 7.  Value: 48
000043t:  Control change ::  Channel 1.  Controller 7.  Value: 47
000009t:  Note on ::  Channel 1.  Note 33.  Velocity 0
000009t:  Control change ::  Channel 1.  Controller 7.  Value: 46
000022t:  Control change ::  Channel 1.  Controller 7.  Value: 45
000001t:  Note on ::  Channel 1.  Note 33.  Velocity 127
000017t:  Control change ::  Channel 1.  Controller 7.  Value: 44
000014t:  Control change ::  Channel 1.  Controller 7.  Value: 43
000032t:  Note on ::  Channel 1.  Note 33.  Velocity 0
000009t:  Control change ::  Channel 1.  Controller 7.  Value: 42
000011t:  Control change ::  Channel 1.  Controller 7.  Value: 41
000010t:  Control change ::  Channel 1.  Controller 7.  Value: 40
000003t:  Note on ::  Channel 1.  Note 32.  Velocity 127
000022t:  Control change ::  Channel 1.  Controller 7.  Value: 39
000016t:  Control change ::  Channel 1.  Controller 7.  Value: 38
000011t:  Control change ::  Channel 1.  Controller 7.  Value: 37
000015t:  Note on ::  Channel 1.  Note 32.  Velocity 0
000003t:  Control change ::  Channel 1.  Controller 7.  Value: 36
000028t:  Note on ::  Channel 1.  Note 32.  Velocity 127
000018t:  Control change ::  Channel 1.  Controller 7.  Value: 35
000019t:  Control change ::  Channel 1.  Controller 7.  Value: 34
000025t:  Control change ::  Channel 1.  Controller 7.  Value: 33
000011t:  Note on ::  Channel 1.  Note 32.  Velocity 0
000014t:  Control change ::  Channel 1.  Controller 7.  Value: 32
000008t:  Note on ::  Channel 1.  Note 32.  Velocity 127
000018t:  Control change ::  Channel 1.  Controller 7.  Value: 31
000028t:  Control change ::  Channel 1.  Controller 7.  Value: 30
000022t:  Note on ::  Channel 1.  Note 32.  Velocity 0
000007t:  Control change ::  Channel 1.  Controller 7.  Value: 29
000012t:  Control change ::  Channel 1.  Controller 7.  Value: 28
000010t:  Note on ::  Channel 1.  Note 32.  Velocity 127
000025t:  Control change ::  Channel 1.  Controller 7.  Value: 27
000019t:  Control change ::  Channel 1.  Controller 7.  Value: 26
000015t:  Control change ::  Channel 1.  Controller 7.  Value: 25
000007t:  Control change ::  Channel 1.  Controller 7.  Value: 24
000009t:  Note on ::  Channel 1.  Note 32.  Velocity 0
000015t:  Control change ::  Channel 1.  Controller 7.  Value: 23
000009t:  Control change ::  Channel 1.  Controller 7.  Value: 22
000000t:  Note on ::  Channel 1.  Note 30.  Velocity 127
000010t:  Control change ::  Channel 1.  Controller 7.  Value: 21
000008t:  Control change ::  Channel 1.  Controller 7.  Value: 20
000011t:  Control change ::  Channel 1.  Controller 7.  Value: 19
000007t:  Control change ::  Channel 1.  Controller 7.  Value: 18
000008t:  Control change ::  Channel 1.  Controller 7.  Value: 17
000024t:  Control change ::  Channel 1.  Controller 7.  Value: 16
000002t:  Note on ::  Channel 1.  Note 30.  Velocity 0
000018t:  Control change ::  Channel 1.  Controller 7.  Value: 15
000006t:  Note on ::  Channel 1.  Note 30.  Velocity 127
000011t:  Control change ::  Channel 1.  Controller 7.  Value: 14
000011t:  Control change ::  Channel 1.  Controller 7.  Value: 13
000015t:  Control change ::  Channel 1.  Controller 7.  Value: 12
000032t:  Note on ::  Channel 1.  Note 30.  Velocity 0
000001t:  Control change ::  Channel 1.  Controller 7.  Value: 11
000012t:  Control change ::  Channel 1.  Controller 7.  Value: 10
000006t:  Control change ::  Channel 1.  Controller 7.  Value: 9
000007t:  Note on ::  Channel 1.  Note 30.  Velocity 127
000029t:  Control change ::  Channel 1.  Controller 7.  Value: 8
000004t:  Control change ::  Channel 1.  Controller 7.  Value: 7
000004t:  Control change ::  Channel 1.  Controller 7.  Value: 6
000004t:  Control change ::  Channel 1.  Controller 7.  Value: 5
000007t:  Control change ::  Channel 1.  Controller 7.  Value: 4
000008t:  Control change ::  Channel 1.  Controller 7.  Value: 3
000020t:  Note on ::  Channel 1.  Note 30.  Velocity 0
000023t:  Note on ::  Channel 1.  Note 30.  Velocity 127
000000t:  Control change ::  Channel 1.  Controller 7.  Value: 2
000015t:  Control change ::  Channel 1.  Controller 7.  Value: 1
000011t:  Control change ::  Channel 1.  Controller 7.  Value: 0
000061t:  Note on ::  Channel 1.  Note 30.  Velocity 0
000007t:  Note on ::  Channel 1.  Note 38.  Velocity 127
000028t:  Note on ::  Channel 1.  Note 38.  Velocity 0
000019t:  Note on ::  Channel 1.  Note 38.  Velocity 127
000024t:  Note on ::  Channel 1.  Note 38.  Velocity 0
000026t:  Note on ::  Channel 1.  Note 38.  Velocity 127
000023t:  Note on ::  Channel 1.  Note 38.  Velocity 0
000024t:  Note on ::  Channel 1.  Note 38.  Velocity 127
000027t:  Note on ::  Channel 1.  Note 38.  Velocity 0
000022t:  Note on ::  Channel 1.  Note 38.  Velocity 127
000029t:  Note on ::  Channel 1.  Note 38.  Velocity 0
000018t:  Note on ::  Channel 1.  Note 38.  Velocity 127
000028t:  Note on ::  Channel 1.  Note 38.  Velocity 0
000021t:  Note on ::  Channel 1.  Note 38.  Velocity 127
000031t:  Note on ::  Channel 1.  Note 38.  Velocity 0
000016t:  Note on ::  Channel 1.  Note 38.  Velocity 127
000030t:  Note on ::  Channel 1.  Note 38.  Velocity 0
000021t:  Program (patch) change ::  Channel 1.  Patch 68 (Oboe)
000000t:  Control change ::  Channel 1.  Controller 7.  Value: 99
000339t:  Control change ::  Channel 1.  Controller 64.  Value: 0
000001t:  Pitch wheel change ::  Channel 1.   -8192
000000t:  Meta-event type $2f (End-track event) of length 0
Sigma t = 60787

Track chunk of 2737 bytes
000000t:  Meta-event type $21 (?) of length 1
	  _
000000t:  Meta-event type $03 (Track name) of length 20
	  Elec Guitar 1       
000000t:  Program (patch) change ::  Channel 2.  Patch 27 (Electric Guitar(clean))
000000t:  Control change ::  Channel 2.  Controller 7.  Value: 105
000000t:  Control change ::  Channel 2.  Controller 10.  Value: 40
001897t:  Note on ::  Channel 2.  Note 78.  Velocity 127
000007t:  Note on ::  Channel 2.  Note 83.  Velocity 127
000008t:  Note on ::  Channel 2.  Note 74.  Velocity 127
000009t:  Note on ::  Channel 2.  Note 86.  Velocity 127
000006t:  Note on ::  Channel 2.  Note 90.  Velocity 127
000740t:  Note on ::  Channel 2.  Note 73.  Velocity 127
000144t:  Note on ::  Channel 2.  Note 69.  Velocity 127
000142t:  Note on ::  Channel 2.  Note 73.  Velocity 0
000480t:  Note on ::  Channel 2.  Note 90.  Velocity 0
000000t:  Note on ::  Channel 2.  Note 83.  Velocity 0
000000t:  Note on ::  Channel 2.  Note 74.  Velocity 0
000000t:  Note on ::  Channel 2.  Note 78.  Velocity 0
000000t:  Note on ::  Channel 2.  Note 69.  Velocity 0
000000t:  Note on ::  Channel 2.  Note 86.  Velocity 0
000775t:  Note on ::  Channel 2.  Note 61.  Velocity 127
000139t:  Note on ::  Channel 2.  Note 61.  Velocity 0
000004t:  Note on ::  Channel 2.  Note 73.  Velocity 127
000138t:  Note on ::  Channel 2.  Note 73.  Velocity 0
000008t:  Note on ::  Channel 2.  Note 69.  Velocity 127
000420t:  Note on ::  Channel 2.  Note 69.  Velocity 0
000063t:  Note on ::  Channel 2.  Note 78.  Velocity 127
000021t:  Note on ::  Channel 2.  Note 78.  Velocity 0
000025t:  Note on ::  Channel 2.  Note 78.  Velocity 127
000029t:  Note on ::  Channel 2.  Note 78.  Velocity 0
000020t:  Note on ::  Channel 2.  Note 74.  Velocity 127
000029t:  Note on ::  Channel 2.  Note 74.  Velocity 0
000019t:  Note on ::  Channel 2.  Note 71.  Velocity 127
000026t:  Note on ::  Channel 2.  Note 71.  Velocity 0
000070t:  Note on ::  Channel 2.  Note 71.  Velocity 127
000030t:  Note on ::  Channel 2.  Note 71.  Velocity 0
000066t:  Note on ::  Channel 2.  Note 76.  Velocity 127
000026t:  Note on ::  Channel 2.  Note 76.  Velocity 0
000070t:  Note on ::  Channel 2.  Note 76.  Velocity 127
000029t:  Note on ::  Channel 2.  Note 76.  Velocity 0
000067t:  Note on ::  Channel 2.  Note 76.  Velocity 127
000031t:  Note on ::  Channel 2.  Note 76.  Velocity 0
000019t:  Note on ::  Channel 2.  Note 80.  Velocity 127
000023t:  Note on ::  Channel 2.  Note 80.  Velocity 0
000024t:  Note on ::  Channel 2.  Note 80.  Velocity 127
000026t:  Note on ::  Channel 2.  Note 80.  Velocity 0
000023t:  Note on ::  Channel 2.  Note 81.  Velocity 127
000027t:  Note on ::  Channel 2.  Note 81.  Velocity 0
000020t:  Note on ::  Channel 2.  Note 83.  Velocity 127
000030t:  Note on ::  Channel 2.  Note 83.  Velocity 0
000020t:  Note on ::  Channel 2.  Note 81.  Velocity 127
000023t:  Note on ::  Channel 2.  Note 81.  Velocity 0
000023t:  Note on ::  Channel 2.  Note 81.  Velocity 127
000027t:  Note on ::  Channel 2.  Note 81.  Velocity 0
000022t:  Note on ::  Channel 2.  Note 81.  Velocity 127
000024t:  Note on ::  Channel 2.  Note 81.  Velocity 0
000024t:  Note on ::  Channel 2.  Note 76.  Velocity 127
000026t:  Note on ::  Channel 2.  Note 76.  Velocity 0
000070t:  Note on ::  Channel 2.  Note 74.  Velocity 127
000023t:  Note on ::  Channel 2.  Note 74.  Velocity 0
000073t:  Note on ::  Channel 2.  Note 78.  Velocity 127
000026t:  Note on ::  Channel 2.  Note 78.  Velocity 0
000070t:  Note on ::  Channel 2.  Note 78.  Velocity 127
000027t:  Note on ::  Channel 2.  Note 78.  Velocity 0
000070t:  Note on ::  Channel 2.  Note 78.  Velocity 127
000026t:  Note on ::  Channel 2.  Note 78.  Velocity 0
000023t:  Note on ::  Channel 2.  Note 76.  Velocity 127
000027t:  Note on ::  Channel 2.  Note 76.  Velocity 0
000021t:  Note on ::  Channel 2.  Note 76.  Velocity 127
000027t:  Note on ::  Channel 2.  Note 76.  Velocity 0
000021t:  Note on ::  Channel 2.  Note 78.  Velocity 127
000023t:  Note on ::  Channel 2.  Note 78.  Velocity 0
000024t:  Note on ::  Channel 2.  Note 76.  Velocity 127
000028t:  Note on ::  Channel 2.  Note 76.  Velocity 0
000022t:  Note on ::  Channel 2.  Note 78.  Velocity 127
000023t:  Note on ::  Channel 2.  Note 78.  Velocity 0
000024t:  Note on ::  Channel 2.  Note 78.  Velocity 127
000026t:  Note on ::  Channel 2.  Note 78.  Velocity 0
000023t:  Note on ::  Channel 2.  Note 74.  Velocity 127
000026t:  Note on ::  Channel 2.  Note 74.  Velocity 0
000021t:  Note on ::  Channel 2.  Note 71.  Velocity 127
000022t:  Note on ::  Channel 2.  Note 71.  Velocity 0
000075t:  Note on ::  Channel 2.  Note 71.  Velocity 127
000027t:  Note on ::  Channel 2.  Note 71.  Velocity 0
000069t:  Note on ::  Channel 2.  Note 76.  Velocity 127
000029t:  Note on ::  Channel 2.  Note 76.  Velocity 0
000067t:  Note on ::  Channel 2.  Note 76.  Velocity 127
000032t:  Note on ::  Channel 2.  Note 76.  Velocity 0
000064t:  Note on ::  Channel 2.  Note 76.  Velocity 127
000029t:  Note on ::  Channel 2.  Note 76.  Velocity 0
000021t:  Note on ::  Channel 2.  Note 80.  Velocity 127
000024t:  Note on ::  Channel 2.  Note 80.  Velocity 0
000023t:  Note on ::  Channel 2.  Note 80.  Velocity 127
000024t:  Note on ::  Channel 2.  Note 80.  Velocity 0
000025t:  Note on ::  Channel 2.  Note 81.  Velocity 127
000023t:  Note on ::  Channel 2.  Note 81.  Velocity 0
000024t:  Note on ::  Channel 2.  Note 83.  Velocity 127
000026t:  Note on ::  Channel 2.  Note 83.  Velocity 0
000024t:  Note on ::  Channel 2.  Note 81.  Velocity 127
000019t:  Note on ::  Channel 2.  Note 81.  Velocity 0
000027t:  Note on ::  Channel 2.  Note 81.  Velocity 127
000024t:  Note on ::  Channel 2.  Note 81.  Velocity 0
000025t:  Note on ::  Channel 2.  Note 81.  Velocity 127
000018t:  Note on ::  Channel 2.  Note 81.  Velocity 0
000029t:  Note on ::  Channel 2.  Note 76.  Velocity 127
000021t:  Note on ::  Channel 2.  Note 76.  Velocity 0
000076t:  Note on ::  Channel 2.  Note 74.  Velocity 127
000018t:  Note on ::  Channel 2.  Note 74.  Velocity 0
000078t:  Note on ::  Channel 2.  Note 78.  Velocity 127
000023t:  Note on ::  Channel 2.  Note 78.  Velocity 0
000073t:  Note on ::  Channel 2.  Note 78.  Velocity 127
000025t:  Note on ::  Channel 2.  Note 78.  Velocity 0
000072t:  Note on ::  Channel 2.  Note 78.  Velocity 127
000026t:  Note on ::  Channel 2.  Note 78.  Velocity 0
000023t:  Note on ::  Channel 2.  Note 76.  Velocity 127
000023t:  Note on ::  Channel 2.  Note 76.  Velocity 0
000024t:  Note on ::  Channel 2.  Note 76.  Velocity 127
000030t:  Note on ::  Channel 2.  Note 76.  Velocity 0
000019t:  Note on ::  Channel 2.  Note 78.  Velocity 127
000025t:  Note on ::  Channel 2.  Note 78.  Velocity 0
000022t:  Note on ::  Channel 2.  Note 76.  Velocity 127
000028t:  Note on ::  Channel 2.  Note 76.  Velocity 0
000023t:  Note on ::  Channel 2.  Note 78.  Velocity 127
000020t:  Note on ::  Channel 2.  Note 78.  Velocity 0
000025t:  Note on ::  Channel 2.  Note 78.  Velocity 127
000031t:  Note on ::  Channel 2.  Note 78.  Velocity 0
000019t:  Note on ::  Channel 2.  Note 74.  Velocity 127
000028t:  Note on ::  Channel 2.  Note 74.  Velocity 0
000019t:  Note on ::  Channel 2.  Note 71.  Velocity 127
000026t:  Note on ::  Channel 2.  Note 71.  Velocity 0
000070t:  Note on ::  Channel 2.  Note 71.  Velocity 127
000030t:  Note on ::  Channel 2.  Note 71.  Velocity 0
000066t:  Note on ::  Channel 2.  Note 76.  Velocity 127
000027t:  Note on ::  Channel 2.  Note 76.  Velocity 0
000070t:  Note on ::  Channel 2.  Note 76.  Velocity 127
000030t:  Note on ::  Channel 2.  Note 76.  Velocity 0
000066t:  Note on ::  Channel 2.  Note 76.  Velocity 127
000030t:  Note on ::  Channel 2.  Note 76.  Velocity 0
000019t:  Note on ::  Channel 2.  Note 80.  Velocity 127
000024t:  Note on ::  Channel 2.  Note 80.  Velocity 0
000024t:  Note on ::  Channel 2.  Note 80.  Velocity 127
000025t:  Note on ::  Channel 2.  Note 80.  Velocity 0
000023t:  Note on ::  Channel 2.  Note 81.  Velocity 127
000028t:  Note on ::  Channel 2.  Note 81.  Velocity 0
000019t:  Note on ::  Channel 2.  Note 83.  Velocity 127
000031t:  Note on ::  Channel 2.  Note 83.  Velocity 0
000020t:  Note on ::  Channel 2.  Note 81.  Velocity 127
000022t:  Note on ::  Channel 2.  Note 81.  Velocity 0
000024t:  Note on ::  Channel 2.  Note 81.  Velocity 127
000026t:  Note on ::  Channel 2.  Note 81.  Velocity 0
000023t:  Note on ::  Channel 2.  Note 81.  Velocity 127
000023t:  Note on ::  Channel 2.  Note 81.  Velocity 0
000024t:  Note on ::  Channel 2.  Note 78.  Velocity 127
000026t:  Note on ::  Channel 2.  Note 78.  Velocity 0
000071t:  Note on ::  Channel 2.  Note 74.  Velocity 127
000023t:  Note on ::  Channel 2.  Note 74.  Velocity 0
000073t:  Note on ::  Channel 2.  Note 78.  Velocity 127
000026t:  Note on ::  Channel 2.  Note 78.  Velocity 0
000070t:  Note on ::  Channel 2.  Note 78.  Velocity 127
000026t:  Note on ::  Channel 2.  Note 78.  Velocity 0
000070t:  Note on ::  Channel 2.  Note 78.  Velocity 127
000026t:  Note on ::  Channel 2.  Note 78.  Velocity 0
000024t:  Note on ::  Channel 2.  Note 76.  Velocity 127
000027t:  Note on ::  Channel 2.  Note 76.  Velocity 0
000020t:  Note on ::  Channel 2.  Note 76.  Velocity 127
000027t:  Note on ::  Channel 2.  Note 76.  Velocity 0
000022t:  Note on ::  Channel 2.  Note 76.  Velocity 127
000023t:  Note on ::  Channel 2.  Note 76.  Velocity 0
009318t:  Note on ::  Channel 2.  Note 76.  Velocity 127
000004t:  Note on ::  Channel 2.  Note 73.  Velocity 127
000006t:  Note on ::  Channel 2.  Note 81.  Velocity 127
000006t:  Note on ::  Channel 2.  Note 69.  Velocity 127
000173t:  Note on ::  Channel 2.  Note 76.  Velocity 0
000006t:  Note on ::  Channel 2.  Note 73.  Velocity 0
000005t:  Note on ::  Channel 2.  Note 81.  Velocity 0
000007t:  Note on ::  Channel 2.  Note 69.  Velocity 0
000177t:  Note on ::  Channel 2.  Note 76.  Velocity 127
000005t:  Note on ::  Channel 2.  Note 71.  Velocity 127
000006t:  Note on ::  Channel 2.  Note 83.  Velocity 127
000006t:  Note on ::  Channel 2.  Note 80.  Velocity 127
000173t:  Note on ::  Channel 2.  Note 76.  Velocity 0
000006t:  Note on ::  Channel 2.  Note 71.  Velocity 0
000005t:  Note on ::  Channel 2.  Note 83.  Velocity 0
000007t:  Note on ::  Channel 2.  Note 80.  Velocity 0
000177t:  Note on ::  Channel 2.  Note 81.  Velocity 127
000005t:  Note on ::  Channel 2.  Note 86.  Velocity 127
000007t:  Note on ::  Channel 2.  Note 74.  Velocity 127
000005t:  Note on ::  Channel 2.  Note 78.  Velocity 127
000174t:  Note on ::  Channel 2.  Note 81.  Velocity 0
000005t:  Note on ::  Channel 2.  Note 86.  Velocity 0
000005t:  Note on ::  Channel 2.  Note 74.  Velocity 0
000007t:  Note on ::  Channel 2.  Note 78.  Velocity 0
000177t:  Note on ::  Channel 2.  Note 76.  Velocity 127
000005t:  Note on ::  Channel 2.  Note 83.  Velocity 127
000007t:  Note on ::  Channel 2.  Note 88.  Velocity 127
000005t:  Note on ::  Channel 2.  Note 80.  Velocity 127
000174t:  Note on ::  Channel 2.  Note 76.  Velocity 0
000005t:  Note on ::  Channel 2.  Note 83.  Velocity 0
000006t:  Note on ::  Channel 2.  Note 88.  Velocity 0
000006t:  Note on ::  Channel 2.  Note 80.  Velocity 0
009423t:  Note on ::  Channel 2.  Note 76.  Velocity 127
000005t:  Note on ::  Channel 2.  Note 73.  Velocity 127
000005t:  Note on ::  Channel 2.  Note 81.  Velocity 127
000007t:  Note on ::  Channel 2.  Note 69.  Velocity 127
000172t:  Note on ::  Channel 2.  Note 76.  Velocity 0
000006t:  Note on ::  Channel 2.  Note 73.  Velocity 0
000006t:  Note on ::  Channel 2.  Note 81.  Velocity 0
000006t:  Note on ::  Channel 2.  Note 69.  Velocity 0
000177t:  Note on ::  Channel 2.  Note 76.  Velocity 127
000006t:  Note on ::  Channel 2.  Note 71.  Velocity 127
000005t:  Note on ::  Channel 2.  Note 83.  Velocity 127
000007t:  Note on ::  Channel 2.  Note 80.  Velocity 127
000173t:  Note on ::  Channel 2.  Note 76.  Velocity 0
000005t:  Note on ::  Channel 2.  Note 71.  Velocity 0
000007t:  Note on ::  Channel 2.  Note 83.  Velocity 0
000005t:  Note on ::  Channel 2.  Note 80.  Velocity 0
000177t:  Note on ::  Channel 2.  Note 81.  Velocity 127
000006t:  Note on ::  Channel 2.  Note 86.  Velocity 127
000006t:  Note on ::  Channel 2.  Note 74.  Velocity 127
000006t:  Note on ::  Channel 2.  Note 78.  Velocity 127
000173t:  Note on ::  Channel 2.  Note 81.  Velocity 0
000005t:  Note on ::  Channel 2.  Note 86.  Velocity 0
000007t:  Note on ::  Channel 2.  Note 74.  Velocity 0
000005t:  Note on ::  Channel 2.  Note 78.  Velocity 0
000177t:  Note on ::  Channel 2.  Note 76.  Velocity 127
000006t:  Note on ::  Channel 2.  Note 83.  Velocity 127
000006t:  Note on ::  Channel 2.  Note 88.  Velocity 127
000007t:  Note on ::  Channel 2.  Note 80.  Velocity 127
000172t:  Note on ::  Channel 2.  Note 76.  Velocity 0
000005t:  Note on ::  Channel 2.  Note 83.  Velocity 0
000007t:  Note on ::  Channel 2.  Note 88.  Velocity 0
000005t:  Note on ::  Channel 2.  Note 80.  Velocity 0
000177t:  Note on ::  Channel 2.  Note 76.  Velocity 127
000012t:  Note on ::  Channel 2.  Note 73.  Velocity 127
000012t:  Note on ::  Channel 2.  Note 68.  Velocity 127
000012t:  Note on ::  Channel 2.  Note 80.  Velocity 127
000345t:  Note on ::  Channel 2.  Note 76.  Velocity 0
000012t:  Note on ::  Channel 2.  Note 73.  Velocity 0
000012t:  Note on ::  Channel 2.  Note 68.  Velocity 0
000013t:  Note on ::  Channel 2.  Note 80.  Velocity 0
001118t:  Control change ::  Channel 2.  Controller 7.  Value: 101
000006t:  Note on ::  Channel 2.  Note 80.  Velocity 127
000015t:  Note on ::  Channel 2.  Note 80.  Velocity 0
000008t:  Note on ::  Channel 2.  Note 79.  Velocity 127
000016t:  Note on ::  Channel 2.  Note 79.  Velocity 0
000009t:  Note on ::  Channel 2.  Note 78.  Velocity 127
000016t:  Note on ::  Channel 2.  Note 78.  Velocity 0
000008t:  Note on ::  Channel 2.  Note 77.  Velocity 127
000015t:  Note on ::  Channel 2.  Note 77.  Velocity 0
000008t:  Note on ::  Channel 2.  Note 76.  Velocity 127
000016t:  Note on ::  Channel 2.  Note 76.  Velocity 0
000008t:  Note on ::  Channel 2.  Note 77.  Velocity 127
000017t:  Note on ::  Channel 2.  Note 77.  Velocity 0
000008t:  Note on ::  Channel 2.  Note 78.  Velocity 127
000016t:  Note on ::  Channel 2.  Note 78.  Velocity 0
000008t:  Note on ::  Channel 2.  Note 79.  Velocity 127
000015t:  Note on ::  Channel 2.  Note 79.  Velocity 0
000010t:  Note on ::  Channel 2.  Note 80.  Velocity 127
000014t:  Note on ::  Channel 2.  Note 80.  Velocity 0
000009t:  Note on ::  Channel 2.  Note 79.  Velocity 127
000016t:  Note on ::  Channel 2.  Note 79.  Velocity 0
000009t:  Note on ::  Channel 2.  Note 78.  Velocity 127
000015t:  Note on ::  Channel 2.  Note 78.  Velocity 0
000008t:  Note on ::  Channel 2.  Note 77.  Velocity 127
000015t:  Note on ::  Channel 2.  Note 77.  Velocity 0
000009t:  Note on ::  Channel 2.  Note 76.  Velocity 127
000016t:  Note on ::  Channel 2.  Note 76.  Velocity 0
000008t:  Note on ::  Channel 2.  Note 77.  Velocity 127
000016t:  Note on ::  Channel 2.  Note 77.  Velocity 0
000009t:  Note on ::  Channel 2.  Note 78.  Velocity 127
000016t:  Note on ::  Channel 2.  Note 78.  Velocity 0
000008t:  Note on ::  Channel 2.  Note 79.  Velocity 127
000015t:  Note on ::  Channel 2.  Note 79.  Velocity 0
000009t:  Note on ::  Channel 2.  Note 80.  Velocity 127
000015t:  Note on ::  Channel 2.  Note 80.  Velocity 0
000008t:  Note on ::  Channel 2.  Note 79.  Velocity 127
000016t:  Note on ::  Channel 2.  Note 79.  Velocity 0
000009t:  Note on ::  Channel 2.  Note 78.  Velocity 127
000016t:  Note on ::  Channel 2.  Note 78.  Velocity 0
000008t:  Note on ::  Channel 2.  Note 77.  Velocity 127
000015t:  Note on ::  Channel 2.  Note 77.  Velocity 0
000009t:  Note on ::  Channel 2.  Note 76.  Velocity 127
000015t:  Note on ::  Channel 2.  Note 76.  Velocity 0
000008t:  Note on ::  Channel 2.  Note 77.  Velocity 127
000017t:  Note on ::  Channel 2.  Note 77.  Velocity 0
000008t:  Note on ::  Channel 2.  Note 78.  Velocity 127
000016t:  Note on ::  Channel 2.  Note 78.  Velocity 0
000008t:  Note on ::  Channel 2.  Note 79.  Velocity 127
000015t:  Note on ::  Channel 2.  Note 79.  Velocity 0
000010t:  Note on ::  Channel 2.  Note 80.  Velocity 127
000015t:  Note on ::  Channel 2.  Note 80.  Velocity 0
000008t:  Note on ::  Channel 2.  Note 79.  Velocity 127
000016t:  Note on ::  Channel 2.  Note 79.  Velocity 0
000009t:  Note on ::  Channel 2.  Note 78.  Velocity 127
000015t:  Note on ::  Channel 2.  Note 78.  Velocity 0
000009t:  Note on ::  Channel 2.  Note 77.  Velocity 127
000015t:  Note on ::  Channel 2.  Note 77.  Velocity 0
000009t:  Note on ::  Channel 2.  Note 76.  Velocity 127
000015t:  Note on ::  Channel 2.  Note 76.  Velocity 0
000003t:  Control change ::  Channel 2.  Controller 7.  Value: 101
000004t:  Control change ::  Channel 2.  Controller 7.  Value: 100
000000t:  Note on ::  Channel 2.  Note 77.  Velocity 127
000004t:  Control change ::  Channel 2.  Controller 7.  Value: 99
000002t:  Control change ::  Channel 2.  Controller 7.  Value: 98
000005t:  Control change ::  Channel 2.  Controller 7.  Value: 97
000004t:  Control change ::  Channel 2.  Controller 7.  Value: 96
000002t:  Note on ::  Channel 2.  Note 77.  Velocity 0
000009t:  Note on ::  Channel 2.  Note 78.  Velocity 127
000001t:  Control change ::  Channel 2.  Controller 7.  Value: 95
000015t:  Note on ::  Channel 2.  Note 78.  Velocity 0
000008t:  Note on ::  Channel 2.  Note 79.  Velocity 127
000015t:  Note on ::  Channel 2.  Note 79.  Velocity 0
000010t:  Note on ::  Channel 2.  Note 80.  Velocity 127
000001t:  Control change ::  Channel 2.  Controller 7.  Value: 94
000013t:  Note on ::  Channel 2.  Note 80.  Velocity 0
000003t:  Control change ::  Channel 2.  Controller 7.  Value: 93
000005t:  Note on ::  Channel 2.  Note 79.  Velocity 127
000002t:  Control change ::  Channel 2.  Controller 7.  Value: 92
000008t:  Control change ::  Channel 2.  Controller 7.  Value: 91
000004t:  Control change ::  Channel 2.  Controller 7.  Value: 90
000003t:  Note on ::  Channel 2.  Note 79.  Velocity 0
000001t:  Control change ::  Channel 2.  Controller 7.  Value: 89
000007t:  Control change ::  Channel 2.  Controller 7.  Value: 88
000000t:  Note on ::  Channel 2.  Note 78.  Velocity 127
000011t:  Control change ::  Channel 2.  Controller 7.  Value: 87
000005t:  Note on ::  Channel 2.  Note 78.  Velocity 0
000008t:  Note on ::  Channel 2.  Note 77.  Velocity 127
000015t:  Note on ::  Channel 2.  Note 77.  Velocity 0
000009t:  Control change ::  Channel 2.  Controller 7.  Value: 86
000000t:  Note on ::  Channel 2.  Note 76.  Velocity 127
000010t:  Control change ::  Channel 2.  Controller 7.  Value: 85
000005t:  Note on ::  Channel 2.  Note 76.  Velocity 0
000002t:  Control change ::  Channel 2.  Controller 7.  Value: 84
000007t:  Note on ::  Channel 2.  Note 77.  Velocity 127
000001t:  Control change ::  Channel 2.  Controller 7.  Value: 83
000004t:  Control change ::  Channel 2.  Controller 7.  Value: 82
000007t:  Control change ::  Channel 2.  Controller 7.  Value: 81
000004t:  Note on ::  Channel 2.  Note 77.  Velocity 0
000000t:  Control change ::  Channel 2.  Controller 7.  Value: 80
000008t:  Control change ::  Channel 2.  Controller 7.  Value: 79
000001t:  Note on ::  Channel 2.  Note 78.  Velocity 127
000008t:  Control change ::  Channel 2.  Controller 7.  Value: 78
000007t:  Note on ::  Channel 2.  Note 78.  Velocity 0
000002t:  Control change ::  Channel 2.  Controller 7.  Value: 77
000007t:  Note on ::  Channel 2.  Note 79.  Velocity 127
000004t:  Control change ::  Channel 2.  Controller 7.  Value: 76
000010t:  Note on ::  Channel 2.  Note 79.  Velocity 0
000001t:  Control change ::  Channel 2.  Controller 7.  Value: 75
000009t:  Note on ::  Channel 2.  Note 80.  Velocity 127
000015t:  Note on ::  Channel 2.  Note 80.  Velocity 0
000004t:  Control change ::  Channel 2.  Controller 7.  Value: 74
000004t:  Note on ::  Channel 2.  Note 79.  Velocity 127
000011t:  Control change ::  Channel 2.  Controller 7.  Value: 73
000005t:  Note on ::  Channel 2.  Note 79.  Velocity 0
000003t:  Control change ::  Channel 2.  Controller 7.  Value: 72
000006t:  Note on ::  Channel 2.  Note 78.  Velocity 127
000001t:  Control change ::  Channel 2.  Controller 7.  Value: 71
000008t:  Control change ::  Channel 2.  Controller 7.  Value: 70
000002t:  Control change ::  Channel 2.  Controller 7.  Value: 69
000005t:  Note on ::  Channel 2.  Note 78.  Velocity 0
000000t:  Control change ::  Channel 2.  Controller 7.  Value: 68
000008t:  Note on ::  Channel 2.  Note 77.  Velocity 127
000000t:  Control change ::  Channel 2.  Controller 7.  Value: 67
000006t:  Control change ::  Channel 2.  Controller 7.  Value: 66
000009t:  Note on ::  Channel 2.  Note 77.  Velocity 0
000009t:  Note on ::  Channel 2.  Note 76.  Velocity 127
000006t:  Control change ::  Channel 2.  Controller 7.  Value: 65
000006t:  Control change ::  Channel 2.  Controller 7.  Value: 64
000003t:  Note on ::  Channel 2.  Note 76.  Velocity 0
000001t:  Control change ::  Channel 2.  Controller 7.  Value: 63
000004t:  Control change ::  Channel 2.  Controller 7.  Value: 62
000003t:  Note on ::  Channel 2.  Note 77.  Velocity 127
000002t:  Control change ::  Channel 2.  Controller 7.  Value: 61
000008t:  Control change ::  Channel 2.  Controller 7.  Value: 60
000007t:  Note on ::  Channel 2.  Note 77.  Velocity 0
000000t:  Control change ::  Channel 2.  Controller 7.  Value: 59
000003t:  Control change ::  Channel 2.  Controller 7.  Value: 58
000005t:  Control change ::  Channel 2.  Controller 7.  Value: 57
000000t:  Note on ::  Channel 2.  Note 78.  Velocity 127
000008t:  Control change ::  Channel 2.  Controller 7.  Value: 56
000006t:  Control change ::  Channel 2.  Controller 7.  Value: 55
000002t:  Note on ::  Channel 2.  Note 78.  Velocity 0
000008t:  Note on ::  Channel 2.  Note 79.  Velocity 127
000001t:  Control change ::  Channel 2.  Controller 7.  Value: 54
000004t:  Control change ::  Channel 2.  Controller 7.  Value: 53
000007t:  Control change ::  Channel 2.  Controller 7.  Value: 52
000003t:  Note on ::  Channel 2.  Note 79.  Velocity 0
000009t:  Note on ::  Channel 2.  Note 80.  Velocity 127
000000t:  Control change ::  Channel 2.  Controller 7.  Value: 51
000003t:  Control change ::  Channel 2.  Controller 7.  Value: 50
000007t:  Control change ::  Channel 2.  Controller 7.  Value: 49
000005t:  Note on ::  Channel 2.  Note 80.  Velocity 0
000001t:  Control change ::  Channel 2.  Controller 7.  Value: 47
000002t:  Control change ::  Channel 2.  Controller 7.  Value: 46
000004t:  Control change ::  Channel 2.  Controller 7.  Value: 44
000002t:  Note on ::  Channel 2.  Note 79.  Velocity 127
000002t:  Control change ::  Channel 2.  Controller 7.  Value: 42
000004t:  Control change ::  Channel 2.  Controller 7.  Value: 40
000004t:  Control change ::  Channel 2.  Controller 7.  Value: 37
000004t:  Control change ::  Channel 2.  Controller 7.  Value: 34
000002t:  Note on ::  Channel 2.  Note 79.  Velocity 0
000002t:  Control change ::  Channel 2.  Controller 7.  Value: 30
000004t:  Control change ::  Channel 2.  Controller 7.  Value: 27
000002t:  Note on ::  Channel 2.  Note 78.  Velocity 127
000003t:  Control change ::  Channel 2.  Controller 7.  Value: 22
000004t:  Control change ::  Channel 2.  Controller 7.  Value: 17
000002t:  Control change ::  Channel 2.  Controller 7.  Value: 13
000004t:  Control change ::  Channel 2.  Controller 7.  Value: 8
000003t:  Note on ::  Channel 2.  Note 78.  Velocity 0
000002t:  Control change ::  Channel 2.  Controller 7.  Value: 2
000006t:  Note on ::  Channel 2.  Note 77.  Velocity 127
000015t:  Note on ::  Channel 2.  Note 77.  Velocity 0
000009t:  Note on ::  Channel 2.  Note 76.  Velocity 127
000016t:  Note on ::  Channel 2.  Note 76.  Velocity 0
000008t:  Note on ::  Channel 2.  Note 77.  Velocity 127
000016t:  Note on ::  Channel 2.  Note 77.  Velocity 0
000009t:  Note on ::  Channel 2.  Note 78.  Velocity 127
000015t:  Note on ::  Channel 2.  Note 78.  Velocity 0
000009t:  Note on ::  Channel 2.  Note 79.  Velocity 127
000015t:  Note on ::  Channel 2.  Note 79.  Velocity 0
000004t:  Control change ::  Channel 2.  Controller 7.  Value: 111
000005t:  Note on ::  Channel 2.  Note 73.  Velocity 127
000000t:  Note on ::  Channel 2.  Note 85.  Velocity 127
000179t:  Control change ::  Channel 2.  Controller 7.  Value: 111
000008t:  Note on ::  Channel 2.  Note 85.  Velocity 0
000000t:  Note on ::  Channel 2.  Note 73.  Velocity 0
000007t:  Note on ::  Channel 2.  Note 73.  Velocity 127
000000t:  Note on ::  Channel 2.  Note 85.  Velocity 127
000000t:  Note on ::  Channel 2.  Note 80.  Velocity 112
000018t:  Note on ::  Channel 2.  Note 80.  Velocity 0
000004t:  Note on ::  Channel 2.  Note 73.  Velocity 0
000000t:  Note on ::  Channel 2.  Note 79.  Velocity 112
000005t:  Note on ::  Channel 2.  Note 85.  Velocity 0
000015t:  Note on ::  Channel 2.  Note 79.  Velocity 0
000005t:  Note on ::  Channel 2.  Note 78.  Velocity 112
000000t:  Note on ::  Channel 2.  Note 74.  Velocity 127
000000t:  Note on ::  Channel 2.  Note 86.  Velocity 127
000020t:  Note on ::  Channel 2.  Note 78.  Velocity 0
000004t:  Note on ::  Channel 2.  Note 77.  Velocity 112
000018t:  Note on ::  Channel 2.  Note 77.  Velocity 0
000005t:  Note on ::  Channel 2.  Note 76.  Velocity 112
000020t:  Note on ::  Channel 2.  Note 76.  Velocity 0
000004t:  Note on ::  Channel 2.  Note 77.  Velocity 112
000020t:  Note on ::  Channel 2.  Note 77.  Velocity 0
000005t:  Note on ::  Channel 2.  Note 78.  Velocity 112
000020t:  Note on ::  Channel 2.  Note 78.  Velocity 0
000004t:  Note on ::  Channel 2.  Note 79.  Velocity 112
000019t:  Note on ::  Channel 2.  Note 79.  Velocity 0
000005t:  Note on ::  Channel 2.  Note 80.  Velocity 115
000019t:  Note on ::  Channel 2.  Note 80.  Velocity 0
000004t:  Note on ::  Channel 2.  Note 79.  Velocity 115
000021t:  Note on ::  Channel 2.  Note 79.  Velocity 0
000005t:  Note on ::  Channel 2.  Note 78.  Velocity 115
000019t:  Note on ::  Channel 2.  Note 78.  Velocity 0
000004t:  Note on ::  Channel 2.  Note 77.  Velocity 116
000019t:  Note on ::  Channel 2.  Note 77.  Velocity 0
000005t:  Note on ::  Channel 2.  Note 76.  Velocity 116
000020t:  Note on ::  Channel 2.  Note 76.  Velocity 0
000004t:  Note on ::  Channel 2.  Note 77.  Velocity 116
000020t:  Note on ::  Channel 2.  Note 77.  Velocity 0
000004t:  Note on ::  Channel 2.  Note 78.  Velocity 116
000020t:  Note on ::  Channel 2.  Note 78.  Velocity 0
000005t:  Note on ::  Channel 2.  Note 79.  Velocity 120
000018t:  Note on ::  Channel 2.  Note 79.  Velocity 0
000005t:  Note on ::  Channel 2.  Note 80.  Velocity 120
000020t:  Note on ::  Channel 2.  Note 80.  Velocity 0
000004t:  Note on ::  Channel 2.  Note 79.  Velocity 121
000020t:  Note on ::  Channel 2.  Note 79.  Velocity 0
000005t:  Note on ::  Channel 2.  Note 78.  Velocity 121
000020t:  Note on ::  Channel 2.  Note 78.  Velocity 0
000004t:  Note on ::  Channel 2.  Note 86.  Velocity 0
000000t:  Note on ::  Channel 2.  Note 74.  Velocity 0
000000t:  Note on ::  Channel 2.  Note 77.  Velocity 121
000019t:  Note on ::  Channel 2.  Note 77.  Velocity 0
000004t:  Note on ::  Channel 2.  Note 76.  Velocity 123
000020t:  Note on ::  Channel 2.  Note 76.  Velocity 0
000004t:  Note on ::  Channel 2.  Note 77.  Velocity 123
000020t:  Note on ::  Channel 2.  Note 77.  Velocity 0
000005t:  Note on ::  Channel 2.  Note 78.  Velocity 127
000020t:  Note on ::  Channel 2.  Note 78.  Velocity 0
000004t:  Note on ::  Channel 2.  Note 79.  Velocity 127
000019t:  Note on ::  Channel 2.  Note 79.  Velocity 0
000005t:  Note on ::  Channel 2.  Note 80.  Velocity 127
000000t:  Note on ::  Channel 2.  Note 69.  Velocity 127
000001t:  Note on ::  Channel 2.  Note 81.  Velocity 127
000018t:  Note on ::  Channel 2.  Note 80.  Velocity 0
000004t:  Note on ::  Channel 2.  Note 79.  Velocity 127
000021t:  Note on ::  Channel 2.  Note 79.  Velocity 0
000005t:  Note on ::  Channel 2.  Note 78.  Velocity 127
000019t:  Note on ::  Channel 2.  Note 78.  Velocity 0
000005t:  Note on ::  Channel 2.  Note 77.  Velocity 127
000018t:  Note on ::  Channel 2.  Note 77.  Velocity 0
000005t:  Note on ::  Channel 2.  Note 76.  Velocity 127
000020t:  Note on ::  Channel 2.  Note 76.  Velocity 0
000003t:  Note on ::  Channel 2.  Note 81.  Velocity 0
000001t:  Note on ::  Channel 2.  Note 77.  Velocity 127
000002t:  Note on ::  Channel 2.  Note 69.  Velocity 0
000018t:  Note on ::  Channel 2.  Note 77.  Velocity 0
000005t:  Note on ::  Channel 2.  Note 78.  Velocity 127
000020t:  Note on ::  Channel 2.  Note 78.  Velocity 0
000004t:  Note on ::  Channel 2.  Note 79.  Velocity 127
000019t:  Note on ::  Channel 2.  Note 79.  Velocity 0
000006t:  Note on ::  Channel 2.  Note 69.  Velocity 127
000001t:  Note on ::  Channel 2.  Note 81.  Velocity 127
000000t:  Note on ::  Channel 2.  Note 80.  Velocity 127
000017t:  Note on ::  Channel 2.  Note 80.  Velocity 0
000004t:  Note on ::  Channel 2.  Note 79.  Velocity 127
000003t:  Note on ::  Channel 2.  Note 81.  Velocity 0
000002t:  Note on ::  Channel 2.  Note 69.  Velocity 0
000015t:  Note on ::  Channel 2.  Note 79.  Velocity 0
000005t:  Note on ::  Channel 2.  Note 71.  Velocity 127
000000t:  Note on ::  Channel 2.  Note 83.  Velocity 127
000000t:  Note on ::  Channel 2.  Note 78.  Velocity 127
000020t:  Note on ::  Channel 2.  Note 78.  Velocity 0
000004t:  Note on ::  Channel 2.  Note 77.  Velocity 127
000019t:  Note on ::  Channel 2.  Note 77.  Velocity 0
000005t:  Note on ::  Channel 2.  Note 76.  Velocity 127
000019t:  Note on ::  Channel 2.  Note 76.  Velocity 0
000004t:  Note on ::  Channel 2.  Note 77.  Velocity 127
000021t:  Note on ::  Channel 2.  Note 77.  Velocity 0
000004t:  Note on ::  Channel 2.  Note 78.  Velocity 127
000020t:  Note on ::  Channel 2.  Note 78.  Velocity 0
000004t:  Note on ::  Channel 2.  Note 79.  Velocity 127
000019t:  Note on ::  Channel 2.  Note 79.  Velocity 0
000005t:  Note on ::  Channel 2.  Note 80.  Velocity 127
000020t:  Note on ::  Channel 2.  Note 80.  Velocity 0
000004t:  Note on ::  Channel 2.  Note 79.  Velocity 127
000020t:  Note on ::  Channel 2.  Note 79.  Velocity 0
000005t:  Note on ::  Channel 2.  Note 78.  Velocity 127
000019t:  Note on ::  Channel 2.  Note 78.  Velocity 0
000005t:  Note on ::  Channel 2.  Note 77.  Velocity 127
000018t:  Note on ::  Channel 2.  Note 77.  Velocity 0
000005t:  Note on ::  Channel 2.  Note 76.  Velocity 127
000020t:  Note on ::  Channel 2.  Note 76.  Velocity 0
000004t:  Note on ::  Channel 2.  Note 77.  Velocity 127
000020t:  Note on ::  Channel 2.  Note 77.  Velocity 0
000005t:  Note on ::  Channel 2.  Note 78.  Velocity 127
000020t:  Note on ::  Channel 2.  Note 78.  Velocity 0
000004t:  Note on ::  Channel 2.  Note 79.  Velocity 127
000019t:  Note on ::  Channel 2.  Note 79.  Velocity 0
000004t:  Note on ::  Channel 2.  Note 80.  Velocity 127
000020t:  Note on ::  Channel 2.  Note 80.  Velocity 0
000004t:  Note on ::  Channel 2.  Note 79.  Velocity 127
000021t:  Note on ::  Channel 2.  Note 79.  Velocity 0
000004t:  Note on ::  Channel 2.  Note 78.  Velocity 127
000020t:  Note on ::  Channel 2.  Note 78.  Velocity 0
000004t:  Note on ::  Channel 2.  Note 77.  Velocity 127
000019t:  Note on ::  Channel 2.  Note 77.  Velocity 0
000005t:  Note on ::  Channel 2.  Note 76.  Velocity 127
000020t:  Note on ::  Channel 2.  Note 76.  Velocity 0
000004t:  Note on ::  Channel 2.  Note 77.  Velocity 127
000020t:  Note on ::  Channel 2.  Note 77.  Velocity 0
000004t:  Note on ::  Channel 2.  Note 78.  Velocity 127
000020t:  Note on ::  Channel 2.  Note 78.  Velocity 0
000004t:  Note on ::  Channel 2.  Note 79.  Velocity 127
000019t:  Note on ::  Channel 2.  Note 79.  Velocity 0
000006t:  Note on ::  Channel 2.  Note 80.  Velocity 127
000019t:  Note on ::  Channel 2.  Note 80.  Velocity 0
000004t:  Note on ::  Channel 2.  Note 79.  Velocity 127
000020t:  Note on ::  Channel 2.  Note 79.  Velocity 0
000005t:  Note on ::  Channel 2.  Note 78.  Velocity 127
000020t:  Note on ::  Channel 2.  Note 78.  Velocity 0
000000t:  Note on ::  Channel 2.  Note 83.  Velocity 0
000004t:  Note on ::  Channel 2.  Note 71.  Velocity 0
000000t:  Note on ::  Channel 2.  Note 77.  Velocity 127
000019t:  Note on ::  Channel 2.  Note 77.  Velocity 0
000004t:  Note on ::  Channel 2.  Note 76.  Velocity 127
000020t:  Note on ::  Channel 2.  Note 76.  Velocity 0
000004t:  Note on ::  Channel 2.  Note 77.  Velocity 127
000020t:  Note on ::  Channel 2.  Note 77.  Velocity 0
000005t:  Note on ::  Channel 2.  Note 78.  Velocity 127
000020t:  Note on ::  Channel 2.  Note 78.  Velocity 0
000004t:  Note on ::  Channel 2.  Note 79.  Velocity 127
000019t:  Note on ::  Channel 2.  Note 79.  Velocity 0
000004t:  Note on ::  Channel 2.  Note 78.  Velocity 127
000023t:  Note on ::  Channel 2.  Note 78.  Velocity 0
000026t:  Note on ::  Channel 2.  Note 78.  Velocity 127
000030t:  Note on ::  Channel 2.  Note 78.  Velocity 0
000018t:  Note on ::  Channel 2.  Note 74.  Velocity 127
000030t:  Note on ::  Channel 2.  Note 74.  Velocity 0
000019t:  Note on ::  Channel 2.  Note 71.  Velocity 127
000026t:  Note on ::  Channel 2.  Note 71.  Velocity 0
000070t:  Note on ::  Channel 2.  Note 71.  Velocity 127
000031t:  Note on ::  Channel 2.  Note 71.  Velocity 0
000065t:  Note on ::  Channel 2.  Note 76.  Velocity 127
000027t:  Note on ::  Channel 2.  Note 76.  Velocity 0
000069t:  Note on ::  Channel 2.  Note 76.  Velocity 127
000030t:  Note on ::  Channel 2.  Note 76.  Velocity 0
000067t:  Note on ::  Channel 2.  Note 76.  Velocity 127
000029t:  Note on ::  Channel 2.  Note 76.  Velocity 0
000019t:  Note on ::  Channel 2.  Note 80.  Velocity 127
000025t:  Note on ::  Channel 2.  Note 80.  Velocity 0
000023t:  Note on ::  Channel 2.  Note 80.  Velocity 127
000027t:  Note on ::  Channel 2.  Note 80.  Velocity 0
000020t:  Note on ::  Channel 2.  Note 81.  Velocity 127
000029t:  Note on ::  Channel 2.  Note 81.  Velocity 0
000020t:  Note on ::  Channel 2.  Note 83.  Velocity 127
000030t:  Note on ::  Channel 2.  Note 83.  Velocity 0
000018t:  Note on ::  Channel 2.  Note 78.  Velocity 127
000022t:  Note on ::  Channel 2.  Note 78.  Velocity 0
000027t:  Note on ::  Channel 2.  Note 78.  Velocity 127
000029t:  Note on ::  Channel 2.  Note 78.  Velocity 0
000018t:  Note on ::  Channel 2.  Note 74.  Velocity 127
000031t:  Note on ::  Channel 2.  Note 74.  Velocity 0
000018t:  Note on ::  Channel 2.  Note 71.  Velocity 127
000027t:  Note on ::  Channel 2.  Note 71.  Velocity 0
000069t:  Note on ::  Channel 2.  Note 71.  Velocity 127
000031t:  Note on ::  Channel 2.  Note 71.  Velocity 0
000066t:  Note on ::  Channel 2.  Note 76.  Velocity 127
000026t:  Note on ::  Channel 2.  Note 76.  Velocity 0
000070t:  Note on ::  Channel 2.  Note 76.  Velocity 127
000029t:  Note on ::  Channel 2.  Note 76.  Velocity 0
000068t:  Note on ::  Channel 2.  Note 76.  Velocity 127
000028t:  Note on ::  Channel 2.  Note 76.  Velocity 0
000020t:  Note on ::  Channel 2.  Note 80.  Velocity 127
000024t:  Note on ::  Channel 2.  Note 80.  Velocity 0
000024t:  Note on ::  Channel 2.  Note 80.  Velocity 127
000026t:  Note on ::  Channel 2.  Note 80.  Velocity 0
000021t:  Note on ::  Channel 2.  Note 81.  Velocity 127
000028t:  Note on ::  Channel 2.  Note 81.  Velocity 0
000021t:  Note on ::  Channel 2.  Note 83.  Velocity 127
000029t:  Note on ::  Channel 2.  Note 83.  Velocity 0
000020t:  Note on ::  Channel 2.  Note 78.  Velocity 127
000021t:  Note on ::  Channel 2.  Note 78.  Velocity 0
000026t:  Note on ::  Channel 2.  Note 78.  Velocity 127
000029t:  Note on ::  Channel 2.  Note 78.  Velocity 0
000020t:  Note on ::  Channel 2.  Note 74.  Velocity 127
000029t:  Note on ::  Channel 2.  Note 74.  Velocity 0
000019t:  Note on ::  Channel 2.  Note 71.  Velocity 127
000026t:  Note on ::  Channel 2.  Note 71.  Velocity 0
000070t:  Note on ::  Channel 2.  Note 71.  Velocity 127
000030t:  Note on ::  Channel 2.  Note 71.  Velocity 0
000066t:  Note on ::  Channel 2.  Note 76.  Velocity 127
000027t:  Note on ::  Channel 2.  Note 76.  Velocity 0
000070t:  Note on ::  Channel 2.  Note 76.  Velocity 127
000029t:  Note on ::  Channel 2.  Note 76.  Velocity 0
000067t:  Note on ::  Channel 2.  Note 76.  Velocity 127
000029t:  Note on ::  Channel 2.  Note 76.  Velocity 0
000020t:  Note on ::  Channel 2.  Note 80.  Velocity 127
000024t:  Note on ::  Channel 2.  Note 80.  Velocity 0
000024t:  Note on ::  Channel 2.  Note 80.  Velocity 127
000025t:  Note on ::  Channel 2.  Note 80.  Velocity 0
000022t:  Note on ::  Channel 2.  Note 81.  Velocity 127
000027t:  Note on ::  Channel 2.  Note 81.  Velocity 0
000022t:  Note on ::  Channel 2.  Note 83.  Velocity 127
000028t:  Note on ::  Channel 2.  Note 83.  Velocity 0
000021t:  Note on ::  Channel 2.  Note 81.  Velocity 127
000021t:  Note on ::  Channel 2.  Note 81.  Velocity 0
000026t:  Note on ::  Channel 2.  Note 81.  Velocity 127
000025t:  Note on ::  Channel 2.  Note 81.  Velocity 0
000023t:  Note on ::  Channel 2.  Note 81.  Velocity 127
000023t:  Note on ::  Channel 2.  Note 81.  Velocity 0
000025t:  Note on ::  Channel 2.  Note 76.  Velocity 127
000025t:  Note on ::  Channel 2.  Note 76.  Velocity 0
000072t:  Note on ::  Channel 2.  Note 74.  Velocity 127
000023t:  Note on ::  Channel 2.  Note 74.  Velocity 0
000073t:  Note on ::  Channel 2.  Note 78.  Velocity 127
000026t:  Note on ::  Channel 2.  Note 78.  Velocity 0
000070t:  Note on ::  Channel 2.  Note 78.  Velocity 127
000026t:  Note on ::  Channel 2.  Note 78.  Velocity 0
000070t:  Note on ::  Channel 2.  Note 78.  Velocity 127
000025t:  Note on ::  Channel 2.  Note 78.  Velocity 0
000024t:  Note on ::  Channel 2.  Note 76.  Velocity 127
000026t:  Note on ::  Channel 2.  Note 76.  Velocity 0
000022t:  Note on ::  Channel 2.  Note 76.  Velocity 127
000027t:  Note on ::  Channel 2.  Note 76.  Velocity 0
000020t:  Note on ::  Channel 2.  Note 78.  Velocity 127
000025t:  Note on ::  Channel 2.  Note 78.  Velocity 0
000024t:  Note on ::  Channel 2.  Note 76.  Velocity 127
000027t:  Note on ::  Channel 2.  Note 76.  Velocity 0
000022t:  Note on ::  Channel 2.  Note 78.  Velocity 127
000023t:  Note on ::  Channel 2.  Note 78.  Velocity 0
000024t:  Note on ::  Channel 2.  Note 78.  Velocity 127
000026t:  Note on ::  Channel 2.  Note 78.  Velocity 0
000022t:  Note on ::  Channel 2.  Note 74.  Velocity 127
000026t:  Note on ::  Channel 2.  Note 74.  Velocity 0
000022t:  Note on ::  Channel 2.  Note 71.  Velocity 127
000023t:  Note on ::  Channel 2.  Note 71.  Velocity 0
000074t:  Note on ::  Channel 2.  Note 71.  Velocity 127
000027t:  Note on ::  Channel 2.  Note 71.  Velocity 0
000069t:  Note on ::  Channel 2.  Note 76.  Velocity 127
000028t:  Note on ::  Channel 2.  Note 76.  Velocity 0
000068t:  Note on ::  Channel 2.  Note 76.  Velocity 127
000032t:  Note on ::  Channel 2.  Note 76.  Velocity 0
000065t:  Note on ::  Channel 2.  Note 76.  Velocity 127
000027t:  Note on ::  Channel 2.  Note 76.  Velocity 0
000021t:  Note on ::  Channel 2.  Note 80.  Velocity 127
000025t:  Note on ::  Channel 2.  Note 80.  Velocity 0
000023t:  Note on ::  Channel 2.  Note 80.  Velocity 127
000023t:  Note on ::  Channel 2.  Note 80.  Velocity 0
000025t:  Note on ::  Channel 2.  Note 81.  Velocity 127
000024t:  Note on ::  Channel 2.  Note 81.  Velocity 0
000024t:  Note on ::  Channel 2.  Note 83.  Velocity 127
000025t:  Note on ::  Channel 2.  Note 83.  Velocity 0
000024t:  Note on ::  Channel 2.  Note 81.  Velocity 127
000021t:  Note on ::  Channel 2.  Note 81.  Velocity 0
000026t:  Note on ::  Channel 2.  Note 81.  Velocity 127
000024t:  Note on ::  Channel 2.  Note 81.  Velocity 0
000024t:  Note on ::  Channel 2.  Note 81.  Velocity 127
000018t:  Note on ::  Channel 2.  Note 81.  Velocity 0
000031t:  Note on ::  Channel 2.  Note 76.  Velocity 127
000020t:  Note on ::  Channel 2.  Note 76.  Velocity 0
000077t:  Note on ::  Channel 2.  Note 74.  Velocity 127
000016t:  Note on ::  Channel 2.  Note 74.  Velocity 0
000079t:  Note on ::  Channel 2.  Note 78.  Velocity 127
000021t:  Note on ::  Channel 2.  Note 78.  Velocity 0
000076t:  Note on ::  Channel 2.  Note 78.  Velocity 127
000023t:  Note on ::  Channel 2.  Note 78.  Velocity 0
000073t:  Note on ::  Channel 2.  Note 78.  Velocity 127
000025t:  Note on ::  Channel 2.  Note 78.  Velocity 0
000023t:  Note on ::  Channel 2.  Note 76.  Velocity 127
000023t:  Note on ::  Channel 2.  Note 76.  Velocity 0
000026t:  Note on ::  Channel 2.  Note 76.  Velocity 127
000028t:  Note on ::  Channel 2.  Note 76.  Velocity 0
000019t:  Note on ::  Channel 2.  Note 78.  Velocity 127
000026t:  Note on ::  Channel 2.  Note 78.  Velocity 0
000023t:  Note on ::  Channel 2.  Note 76.  Velocity 127
000027t:  Note on ::  Channel 2.  Note 76.  Velocity 0
000021t:  Note on ::  Channel 2.  Note 78.  Velocity 127
000022t:  Note on ::  Channel 2.  Note 78.  Velocity 0
000074t:  Note on ::  Channel 2.  Note 74.  Velocity 127
000030t:  Note on ::  Channel 2.  Note 74.  Velocity 0
000018t:  Note on ::  Channel 2.  Note 71.  Velocity 127
000026t:  Note on ::  Channel 2.  Note 71.  Velocity 0
000071t:  Note on ::  Channel 2.  Note 71.  Velocity 127
000030t:  Note on ::  Channel 2.  Note 71.  Velocity 0
000066t:  Note on ::  Channel 2.  Note 76.  Velocity 127
000026t:  Note on ::  Channel 2.  Note 76.  Velocity 0
000070t:  Note on ::  Channel 2.  Note 76.  Velocity 127
000029t:  Note on ::  Channel 2.  Note 76.  Velocity 0
000067t:  Note on ::  Channel 2.  Note 76.  Velocity 127
000029t:  Note on ::  Channel 2.  Note 76.  Velocity 0
000068t:  Note on ::  Channel 2.  Note 80.  Velocity 127
000026t:  Note on ::  Channel 2.  Note 80.  Velocity 0
000021t:  Note on ::  Channel 2.  Note 81.  Velocity 127
000028t:  Note on ::  Channel 2.  Note 81.  Velocity 0
000021t:  Note on ::  Channel 2.  Note 83.  Velocity 127
000029t:  Note on ::  Channel 2.  Note 83.  Velocity 0
000020t:  Note on ::  Channel 2.  Note 81.  Velocity 127
000022t:  Note on ::  Channel 2.  Note 81.  Velocity 0
000025t:  Note on ::  Channel 2.  Note 81.  Velocity 127
000025t:  Note on ::  Channel 2.  Note 81.  Velocity 0
000023t:  Note on ::  Channel 2.  Note 81.  Velocity 127
000023t:  Note on ::  Channel 2.  Note 81.  Velocity 0
000122t:  Note on ::  Channel 2.  Note 74.  Velocity 127
000023t:  Note on ::  Channel 2.  Note 74.  Velocity 0
000314t:  Note on ::  Channel 2.  Note 76.  Velocity 127
000027t:  Note on ::  Channel 2.  Note 76.  Velocity 0
000021t:  Note on ::  Channel 2.  Note 76.  Velocity 127
000028t:  Note on ::  Channel 2.  Note 76.  Velocity 0
015341t:  Control change ::  Channel 2.  Controller 7.  Value: 111
000072t:  Control change ::  Channel 2.  Controller 7.  Value: 110
000046t:  Control change ::  Channel 2.  Controller 7.  Value: 109
000030t:  Control change ::  Channel 2.  Controller 7.  Value: 108
000030t:  Control change ::  Channel 2.  Controller 7.  Value: 107
000052t:  Control change ::  Channel 2.  Controller 7.  Value: 106
000029t:  Control change ::  Channel 2.  Controller 7.  Value: 105
000089t:  Control change ::  Channel 2.  Controller 7.  Value: 104
000023t:  Control change ::  Channel 2.  Controller 7.  Value: 103
000068t:  Control change ::  Channel 2.  Controller 7.  Value: 102
000022t:  Control change ::  Channel 2.  Controller 7.  Value: 101
000028t:  Control change ::  Channel 2.  Controller 7.  Value: 100
000033t:  Control change ::  Channel 2.  Controller 7.  Value: 99
000022t:  Control change ::  Channel 2.  Controller 7.  Value: 98
000028t:  Control change ::  Channel 2.  Controller 7.  Value: 97
000030t:  Control change ::  Channel 2.  Controller 7.  Value: 96
000011t:  Control change ::  Channel 2.  Controller 7.  Value: 95
000017t:  Control change ::  Channel 2.  Controller 7.  Value: 94
000044t:  Control change ::  Channel 2.  Controller 7.  Value: 93
000033t:  Control change ::  Channel 2.  Controller 7.  Value: 92
000028t:  Control change ::  Channel 2.  Controller 7.  Value: 91
000065t:  Control change ::  Channel 2.  Controller 7.  Value: 90
000048t:  Control change ::  Channel 2.  Controller 7.  Value: 89
000039t:  Control change ::  Channel 2.  Controller 7.  Value: 88
000018t:  Control change ::  Channel 2.  Controller 7.  Value: 87
000047t:  Control change ::  Channel 2.  Controller 7.  Value: 86
000014t:  Control change ::  Channel 2.  Controller 7.  Value: 85
000015t:  Control change ::  Channel 2.  Controller 7.  Value: 84
000008t:  Control change ::  Channel 2.  Controller 7.  Value: 83
000022t:  Control change ::  Channel 2.  Controller 7.  Value: 82
000050t:  Control change ::  Channel 2.  Controller 7.  Value: 81
000028t:  Control change ::  Channel 2.  Controller 7.  Value: 80
000026t:  Control change ::  Channel 2.  Controller 7.  Value: 79
000044t:  Control change ::  Channel 2.  Controller 7.  Value: 78
000028t:  Control change ::  Channel 2.  Controller 7.  Value: 77
000015t:  Control change ::  Channel 2.  Controller 7.  Value: 76
000037t:  Control change ::  Channel 2.  Controller 7.  Value: 75
000024t:  Control change ::  Channel 2.  Controller 7.  Value: 74
000015t:  Control change ::  Channel 2.  Controller 7.  Value: 73
000015t:  Control change ::  Channel 2.  Controller 7.  Value: 72
000021t:  Control change ::  Channel 2.  Controller 7.  Value: 71
000022t:  Control change ::  Channel 2.  Controller 7.  Value: 70
000030t:  Control change ::  Channel 2.  Controller 7.  Value: 69
000011t:  Control change ::  Channel 2.  Controller 7.  Value: 68
000011t:  Control change ::  Channel 2.  Controller 7.  Value: 67
000004t:  Control change ::  Channel 2.  Controller 7.  Value: 66
000011t:  Control change ::  Channel 2.  Controller 7.  Value: 65
000028t:  Control change ::  Channel 2.  Controller 7.  Value: 64
000015t:  Control change ::  Channel 2.  Controller 7.  Value: 63
000048t:  Control change ::  Channel 2.  Controller 7.  Value: 62
000063t:  Control change ::  Channel 2.  Controller 7.  Value: 61
000023t:  Control change ::  Channel 2.  Controller 7.  Value: 60
000033t:  Control change ::  Channel 2.  Controller 7.  Value: 59
000031t:  Control change ::  Channel 2.  Controller 7.  Value: 58
000044t:  Control change ::  Channel 2.  Controller 7.  Value: 57
000039t:  Control change ::  Channel 2.  Controller 7.  Value: 56
000026t:  Control change ::  Channel 2.  Controller 7.  Value: 55
000015t:  Control change ::  Channel 2.  Controller 7.  Value: 54
000021t:  Control change ::  Channel 2.  Controller 7.  Value: 53
000057t:  Control change ::  Channel 2.  Controller 7.  Value: 52
000029t:  Control change ::  Channel 2.  Controller 7.  Value: 51
000027t:  Control change ::  Channel 2.  Controller 7.  Value: 50
000010t:  Control change ::  Channel 2.  Controller 7.  Value: 49
000018t:  Control change ::  Channel 2.  Controller 7.  Value: 48
000044t:  Control change ::  Channel 2.  Controller 7.  Value: 47
000018t:  Control change ::  Channel 2.  Controller 7.  Value: 46
000022t:  Control change ::  Channel 2.  Controller 7.  Value: 45
000018t:  Control change ::  Channel 2.  Controller 7.  Value: 44
000014t:  Control change ::  Channel 2.  Controller 7.  Value: 43
000041t:  Control change ::  Channel 2.  Controller 7.  Value: 42
000010t:  Control change ::  Channel 2.  Controller 7.  Value: 41
000011t:  Control change ::  Channel 2.  Controller 7.  Value: 40
000025t:  Control change ::  Channel 2.  Controller 7.  Value: 39
000016t:  Control change ::  Channel 2.  Controller 7.  Value: 38
000011t:  Control change ::  Channel 2.  Controller 7.  Value: 37
000017t:  Control change ::  Channel 2.  Controller 7.  Value: 36
000046t:  Control change ::  Channel 2.  Controller 7.  Value: 35
000019t:  Control change ::  Channel 2.  Controller 7.  Value: 34
000026t:  Control change ::  Channel 2.  Controller 7.  Value: 33
000025t:  Control change ::  Channel 2.  Controller 7.  Value: 32
000025t:  Control change ::  Channel 2.  Controller 7.  Value: 31
000029t:  Control change ::  Channel 2.  Controller 7.  Value: 30
000029t:  Control change ::  Channel 2.  Controller 7.  Value: 29
000012t:  Control change ::  Channel 2.  Controller 7.  Value: 28
000035t:  Control change ::  Channel 2.  Controller 7.  Value: 27
000019t:  Control change ::  Channel 2.  Controller 7.  Value: 26
000015t:  Control change ::  Channel 2.  Controller 7.  Value: 25
000006t:  Control change ::  Channel 2.  Controller 7.  Value: 24
000025t:  Control change ::  Channel 2.  Controller 7.  Value: 23
000008t:  Control change ::  Channel 2.  Controller 7.  Value: 22
000011t:  Control change ::  Channel 2.  Controller 7.  Value: 21
000008t:  Control change ::  Channel 2.  Controller 7.  Value: 20
000011t:  Control change ::  Channel 2.  Controller 7.  Value: 19
000007t:  Control change ::  Channel 2.  Controller 7.  Value: 18
000008t:  Control change ::  Channel 2.  Controller 7.  Value: 17
000024t:  Control change ::  Channel 2.  Controller 7.  Value: 16
000019t:  Control change ::  Channel 2.  Controller 7.  Value: 15
000018t:  Control change ::  Channel 2.  Controller 7.  Value: 14
000011t:  Control change ::  Channel 2.  Controller 7.  Value: 13
000015t:  Control change ::  Channel 2.  Controller 7.  Value: 12
000032t:  Control change ::  Channel 2.  Controller 7.  Value: 11
000012t:  Control change ::  Channel 2.  Controller 7.  Value: 10
000007t:  Control change ::  Channel 2.  Controller 7.  Value: 9
000035t:  Control change ::  Channel 2.  Controller 7.  Value: 8
000004t:  Control change ::  Channel 2.  Controller 7.  Value: 7
000005t:  Control change ::  Channel 2.  Controller 7.  Value: 6
000004t:  Control change ::  Channel 2.  Controller 7.  Value: 5
000007t:  Control change ::  Channel 2.  Controller 7.  Value: 4
000007t:  Control change ::  Channel 2.  Controller 7.  Value: 3
000043t:  Control change ::  Channel 2.  Controller 7.  Value: 2
000016t:  Control change ::  Channel 2.  Controller 7.  Value: 1
000011t:  Control change ::  Channel 2.  Controller 7.  Value: 0
000455t:  Program (patch) change ::  Channel 2.  Patch 61 (Brass Section)
000000t:  Control change ::  Channel 2.  Controller 7.  Value: 111
000341t:  Control change ::  Channel 2.  Controller 64.  Value: 0
000001t:  Pitch wheel change ::  Channel 2.   -8192
000000t:  Meta-event type $2f (End-track event) of length 0
Sigma t = 60789

Track chunk of 2453 bytes
000000t:  Meta-event type $21 (?) of length 1
	  _
000000t:  Meta-event type $03 (Track name) of length 20
	  String Sect 3       
000000t:  Program (patch) change ::  Channel 3.  Patch 49 (String Ensemble 2)
000000t:  Control change ::  Channel 3.  Controller 7.  Value: 65
000000t:  Control change ::  Channel 3.  Controller 10.  Value: 75
003341t:  Control change ::  Channel 3.  Controller 7.  Value: 25
000048t:  Control change ::  Channel 3.  Controller 7.  Value: 26
000036t:  Control change ::  Channel 3.  Controller 7.  Value: 27
000013t:  Note on ::  Channel 3.  Note 62.  Velocity 127
000000t:  Note on ::  Channel 3.  Note 59.  Velocity 127
000000t:  Note on ::  Channel 3.  Note 54.  Velocity 117
000024t:  Control change ::  Channel 3.  Controller 7.  Value: 28
000047t:  Control change ::  Channel 3.  Controller 7.  Value: 29
000036t:  Control change ::  Channel 3.  Controller 7.  Value: 30
000036t:  Control change ::  Channel 3.  Controller 7.  Value: 31
000036t:  Control change ::  Channel 3.  Controller 7.  Value: 32
000048t:  Control change ::  Channel 3.  Controller 7.  Value: 33
000036t:  Control change ::  Channel 3.  Controller 7.  Value: 34
000037t:  Control change ::  Channel 3.  Controller 7.  Value: 35
000047t:  Control change ::  Channel 3.  Controller 7.  Value: 36
000038t:  Control change ::  Channel 3.  Controller 7.  Value: 37
000034t:  Control change ::  Channel 3.  Controller 7.  Value: 38
000037t:  Control change ::  Channel 3.  Controller 7.  Value: 39
000049t:  Control change ::  Channel 3.  Controller 7.  Value: 40
000035t:  Control change ::  Channel 3.  Controller 7.  Value: 41
000038t:  Control change ::  Channel 3.  Controller 7.  Value: 42
000047t:  Control change ::  Channel 3.  Controller 7.  Value: 43
000036t:  Control change ::  Channel 3.  Controller 7.  Value: 44
000037t:  Control change ::  Channel 3.  Controller 7.  Value: 45
000035t:  Control change ::  Channel 3.  Controller 7.  Value: 46
000048t:  Control change ::  Channel 3.  Controller 7.  Value: 47
000036t:  Control change ::  Channel 3.  Controller 7.  Value: 48
000036t:  Control change ::  Channel 3.  Controller 7.  Value: 49
000048t:  Control change ::  Channel 3.  Controller 7.  Value: 50
000036t:  Control change ::  Channel 3.  Controller 7.  Value: 51
000037t:  Control change ::  Channel 3.  Controller 7.  Value: 52
000036t:  Control change ::  Channel 3.  Controller 7.  Value: 53
000049t:  Control change ::  Channel 3.  Controller 7.  Value: 54
000034t:  Control change ::  Channel 3.  Controller 7.  Value: 55
000037t:  Control change ::  Channel 3.  Controller 7.  Value: 56
000037t:  Control change ::  Channel 3.  Controller 7.  Value: 57
000047t:  Control change ::  Channel 3.  Controller 7.  Value: 58
000037t:  Control change ::  Channel 3.  Controller 7.  Value: 59
000035t:  Control change ::  Channel 3.  Controller 7.  Value: 60
000049t:  Control change ::  Channel 3.  Controller 7.  Value: 61
000036t:  Control change ::  Channel 3.  Controller 7.  Value: 62
000036t:  Control change ::  Channel 3.  Controller 7.  Value: 63
000035t:  Control change ::  Channel 3.  Controller 7.  Value: 55
000094t:  Note on ::  Channel 3.  Note 54.  Velocity 0
000000t:  Note on ::  Channel 3.  Note 59.  Velocity 0
000000t:  Note on ::  Channel 3.  Note 62.  Velocity 0
000005t:  Note on ::  Channel 3.  Note 74.  Velocity 127
000000t:  Note on ::  Channel 3.  Note 78.  Velocity 127
000000t:  Note on ::  Channel 3.  Note 71.  Velocity 100
000380t:  Note on ::  Channel 3.  Note 71.  Velocity 0
000000t:  Note on ::  Channel 3.  Note 78.  Velocity 0
000000t:  Note on ::  Channel 3.  Note 74.  Velocity 0
000004t:  Note on ::  Channel 3.  Note 76.  Velocity 121
000000t:  Note on ::  Channel 3.  Note 71.  Velocity 121
000001t:  Note on ::  Channel 3.  Note 80.  Velocity 127
000380t:  Note on ::  Channel 3.  Note 80.  Velocity 0
000000t:  Note on ::  Channel 3.  Note 71.  Velocity 0
000000t:  Note on ::  Channel 3.  Note 76.  Velocity 0
000005t:  Note on ::  Channel 3.  Note 76.  Velocity 127
000000t:  Note on ::  Channel 3.  Note 81.  Velocity 127
000001t:  Note on ::  Channel 3.  Note 73.  Velocity 127
000379t:  Note on ::  Channel 3.  Note 73.  Velocity 0
000000t:  Note on ::  Channel 3.  Note 81.  Velocity 0
000000t:  Note on ::  Channel 3.  Note 76.  Velocity 0
000005t:  Note on ::  Channel 3.  Note 78.  Velocity 127
000000t:  Note on ::  Channel 3.  Note 74.  Velocity 127
000001t:  Note on ::  Channel 3.  Note 81.  Velocity 127
000379t:  Note on ::  Channel 3.  Note 81.  Velocity 0
000000t:  Note on ::  Channel 3.  Note 74.  Velocity 0
000000t:  Note on ::  Channel 3.  Note 78.  Velocity 0
000006t:  Note on ::  Channel 3.  Note 74.  Velocity 127
000000t:  Note on ::  Channel 3.  Note 78.  Velocity 127
000000t:  Note on ::  Channel 3.  Note 71.  Velocity 100
000379t:  Note on ::  Channel 3.  Note 71.  Velocity 0
000000t:  Note on ::  Channel 3.  Note 78.  Velocity 0
000000t:  Note on ::  Channel 3.  Note 74.  Velocity 0
000005t:  Note on ::  Channel 3.  Note 76.  Velocity 121
000000t:  Note on ::  Channel 3.  Note 71.  Velocity 121
000001t:  Note on ::  Channel 3.  Note 80.  Velocity 127
000380t:  Note on ::  Channel 3.  Note 80.  Velocity 0
000000t:  Note on ::  Channel 3.  Note 71.  Velocity 0
000000t:  Note on ::  Channel 3.  Note 76.  Velocity 0
000005t:  Note on ::  Channel 3.  Note 76.  Velocity 127
000000t:  Note on ::  Channel 3.  Note 81.  Velocity 127
000001t:  Note on ::  Channel 3.  Note 73.  Velocity 127
000379t:  Note on ::  Channel 3.  Note 73.  Velocity 0
000000t:  Note on ::  Channel 3.  Note 81.  Velocity 0
000000t:  Note on ::  Channel 3.  Note 76.  Velocity 0
000005t:  Note on ::  Channel 3.  Note 78.  Velocity 127
000000t:  Note on ::  Channel 3.  Note 74.  Velocity 127
000000t:  Note on ::  Channel 3.  Note 81.  Velocity 127
000380t:  Note on ::  Channel 3.  Note 81.  Velocity 0
000000t:  Note on ::  Channel 3.  Note 74.  Velocity 0
000000t:  Note on ::  Channel 3.  Note 78.  Velocity 0
000006t:  Note on ::  Channel 3.  Note 74.  Velocity 127
000000t:  Note on ::  Channel 3.  Note 78.  Velocity 127
000001t:  Note on ::  Channel 3.  Note 71.  Velocity 108
000378t:  Note on ::  Channel 3.  Note 71.  Velocity 0
000000t:  Note on ::  Channel 3.  Note 78.  Velocity 0
000000t:  Note on ::  Channel 3.  Note 74.  Velocity 0
000006t:  Note on ::  Channel 3.  Note 76.  Velocity 127
000000t:  Note on ::  Channel 3.  Note 71.  Velocity 127
000000t:  Note on ::  Channel 3.  Note 80.  Velocity 127
000379t:  Note on ::  Channel 3.  Note 80.  Velocity 0
000000t:  Note on ::  Channel 3.  Note 71.  Velocity 0
000000t:  Note on ::  Channel 3.  Note 76.  Velocity 0
000006t:  Note on ::  Channel 3.  Note 74.  Velocity 127
000000t:  Note on ::  Channel 3.  Note 78.  Velocity 127
000001t:  Note on ::  Channel 3.  Note 71.  Velocity 127
000379t:  Note on ::  Channel 3.  Note 71.  Velocity 0
000000t:  Note on ::  Channel 3.  Note 78.  Velocity 0
000000t:  Note on ::  Channel 3.  Note 74.  Velocity 0
000005t:  Note on ::  Channel 3.  Note 76.  Velocity 127
000000t:  Note on ::  Channel 3.  Note 71.  Velocity 127
000000t:  Note on ::  Channel 3.  Note 80.  Velocity 127
000380t:  Note on ::  Channel 3.  Note 80.  Velocity 0
000000t:  Note on ::  Channel 3.  Note 71.  Velocity 0
000000t:  Note on ::  Channel 3.  Note 76.  Velocity 0
000005t:  Control change ::  Channel 3.  Controller 7.  Value: 44
000000t:  Note on ::  Channel 3.  Note 59.  Velocity 127
000000t:  Note on ::  Channel 3.  Note 66.  Velocity 127
000001t:  Note on ::  Channel 3.  Note 62.  Velocity 127
000379t:  Note on ::  Channel 3.  Note 62.  Velocity 0
000000t:  Note on ::  Channel 3.  Note 66.  Velocity 0
000000t:  Note on ::  Channel 3.  Note 59.  Velocity 0
000005t:  Note on ::  Channel 3.  Note 68.  Velocity 127
000000t:  Note on ::  Channel 3.  Note 59.  Velocity 120
000001t:  Note on ::  Channel 3.  Note 64.  Velocity 127
000379t:  Note on ::  Channel 3.  Note 64.  Velocity 0
000000t:  Note on ::  Channel 3.  Note 59.  Velocity 0
000000t:  Note on ::  Channel 3.  Note 68.  Velocity 0
000005t:  Note on ::  Channel 3.  Note 57.  Velocity 127
000000t:  Note on ::  Channel 3.  Note 64.  Velocity 127
000001t:  Note on ::  Channel 3.  Note 61.  Velocity 127
000379t:  Note on ::  Channel 3.  Note 61.  Velocity 0
000000t:  Note on ::  Channel 3.  Note 57.  Velocity 0
000002t:  Note on ::  Channel 3.  Note 64.  Velocity 0
000003t:  Note on ::  Channel 3.  Note 62.  Velocity 127
000000t:  Note on ::  Channel 3.  Note 66.  Velocity 127
000001t:  Note on ::  Channel 3.  Note 57.  Velocity 122
000380t:  Note on ::  Channel 3.  Note 57.  Velocity 0
000000t:  Note on ::  Channel 3.  Note 66.  Velocity 0
000000t:  Note on ::  Channel 3.  Note 62.  Velocity 0
000005t:  Note on ::  Channel 3.  Note 59.  Velocity 127
000000t:  Note on ::  Channel 3.  Note 66.  Velocity 127
000000t:  Note on ::  Channel 3.  Note 62.  Velocity 127
000380t:  Note on ::  Channel 3.  Note 62.  Velocity 0
000000t:  Note on ::  Channel 3.  Note 66.  Velocity 0
000000t:  Note on ::  Channel 3.  Note 59.  Velocity 0
000005t:  Note on ::  Channel 3.  Note 68.  Velocity 127
000000t:  Note on ::  Channel 3.  Note 59.  Velocity 120
000001t:  Note on ::  Channel 3.  Note 64.  Velocity 127
000379t:  Note on ::  Channel 3.  Note 64.  Velocity 0
000000t:  Note on ::  Channel 3.  Note 59.  Velocity 0
000000t:  Note on ::  Channel 3.  Note 68.  Velocity 0
000005t:  Note on ::  Channel 3.  Note 57.  Velocity 127
000000t:  Note on ::  Channel 3.  Note 64.  Velocity 127
000001t:  Note on ::  Channel 3.  Note 61.  Velocity 127
000379t:  Note on ::  Channel 3.  Note 61.  Velocity 0
000000t:  Note on ::  Channel 3.  Note 64.  Velocity 0
000000t:  Note on ::  Channel 3.  Note 57.  Velocity 0
000005t:  Note on ::  Channel 3.  Note 62.  Velocity 127
000000t:  Note on ::  Channel 3.  Note 66.  Velocity 127
000001t:  Note on ::  Channel 3.  Note 57.  Velocity 122
000379t:  Note on ::  Channel 3.  Note 57.  Velocity 0
000000t:  Note on ::  Channel 3.  Note 66.  Velocity 0
000000t:  Note on ::  Channel 3.  Note 62.  Velocity 0
000005t:  Note on ::  Channel 3.  Note 59.  Velocity 127
000000t:  Note on ::  Channel 3.  Note 62.  Velocity 127
000001t:  Note on ::  Channel 3.  Note 66.  Velocity 127
000379t:  Note on ::  Channel 3.  Note 59.  Velocity 0
000001t:  Note on ::  Channel 3.  Note 66.  Velocity 0
000000t:  Note on ::  Channel 3.  Note 62.  Velocity 0
000004t:  Note on ::  Channel 3.  Note 64.  Velocity 127
000000t:  Note on ::  Channel 3.  Note 59.  Velocity 127
000001t:  Note on ::  Channel 3.  Note 68.  Velocity 127
000380t:  Note on ::  Channel 3.  Note 68.  Velocity 0
000000t:  Note on ::  Channel 3.  Note 59.  Velocity 0
000000t:  Note on ::  Channel 3.  Note 64.  Velocity 0
000004t:  Note on ::  Channel 3.  Note 61.  Velocity 127
000000t:  Note on ::  Channel 3.  Note 66.  Velocity 127
000001t:  Note on ::  Channel 3.  Note 69.  Velocity 127
000380t:  Note on ::  Channel 3.  Note 69.  Velocity 0
000000t:  Note on ::  Channel 3.  Note 66.  Velocity 0
000000t:  Note on ::  Channel 3.  Note 61.  Velocity 0
000005t:  Note on ::  Channel 3.  Note 62.  Velocity 127
000000t:  Note on ::  Channel 3.  Note 66.  Velocity 127
000001t:  Note on ::  Channel 3.  Note 69.  Velocity 127
000379t:  Note on ::  Channel 3.  Note 69.  Velocity 0
000000t:  Note on ::  Channel 3.  Note 66.  Velocity 0
000000t:  Note on ::  Channel 3.  Note 62.  Velocity 0
000005t:  Control change ::  Channel 3.  Controller 7.  Value: 55
000001t:  Note on ::  Channel 3.  Note 61.  Velocity 127
000000t:  Note on ::  Channel 3.  Note 69.  Velocity 127
000000t:  Note on ::  Channel 3.  Note 64.  Velocity 127
000380t:  Note on ::  Channel 3.  Note 69.  Velocity 0
000000t:  Note on ::  Channel 3.  Note 61.  Velocity 0
000004t:  Note on ::  Channel 3.  Note 68.  Velocity 127
000000t:  Note on ::  Channel 3.  Note 59.  Velocity 127
000381t:  Note on ::  Channel 3.  Note 59.  Velocity 0
000000t:  Note on ::  Channel 3.  Note 68.  Velocity 0
000000t:  Note on ::  Channel 3.  Note 64.  Velocity 0
000004t:  Note on ::  Channel 3.  Note 69.  Velocity 127
000000t:  Note on ::  Channel 3.  Note 61.  Velocity 127
000001t:  Note on ::  Channel 3.  Note 66.  Velocity 127
000765t:  Note on ::  Channel 3.  Note 66.  Velocity 0
000000t:  Note on ::  Channel 3.  Note 61.  Velocity 0
000000t:  Note on ::  Channel 3.  Note 69.  Velocity 0
000005t:  Note on ::  Channel 3.  Note 64.  Velocity 127
000000t:  Note on ::  Channel 3.  Note 73.  Velocity 127
000001t:  Note on ::  Channel 3.  Note 69.  Velocity 127
000380t:  Note on ::  Channel 3.  Note 69.  Velocity 0
000000t:  Note on ::  Channel 3.  Note 73.  Velocity 0
000000t:  Note on ::  Channel 3.  Note 64.  Velocity 0
000004t:  Note on ::  Channel 3.  Note 71.  Velocity 119
000000t:  Note on ::  Channel 3.  Note 68.  Velocity 127
000000t:  Note on ::  Channel 3.  Note 76.  Velocity 127
000380t:  Note on ::  Channel 3.  Note 76.  Velocity 0
000000t:  Note on ::  Channel 3.  Note 68.  Velocity 0
000000t:  Note on ::  Channel 3.  Note 71.  Velocity 0
000005t:  Note on ::  Channel 3.  Note 78.  Velocity 127
000000t:  Note on ::  Channel 3.  Note 73.  Velocity 127
000000t:  Note on ::  Channel 3.  Note 69.  Velocity 127
000766t:  Note on ::  Channel 3.  Note 69.  Velocity 0
000000t:  Note on ::  Channel 3.  Note 73.  Velocity 0
000000t:  Note on ::  Channel 3.  Note 78.  Velocity 0
000005t:  Note on ::  Channel 3.  Note 49.  Velocity 127
000000t:  Note on ::  Channel 3.  Note 61.  Velocity 127
000380t:  Note on ::  Channel 3.  Note 61.  Velocity 0
000000t:  Note on ::  Channel 3.  Note 49.  Velocity 0
000004t:  Note on ::  Channel 3.  Note 52.  Velocity 127
000000t:  Note on ::  Channel 3.  Note 64.  Velocity 127
000381t:  Note on ::  Channel 3.  Note 64.  Velocity 0
000000t:  Note on ::  Channel 3.  Note 52.  Velocity 0
000004t:  Note on ::  Channel 3.  Note 54.  Velocity 127
000001t:  Note on ::  Channel 3.  Note 66.  Velocity 127
000765t:  Note on ::  Channel 3.  Note 66.  Velocity 0
000000t:  Note on ::  Channel 3.  Note 54.  Velocity 0
001473t:  Control change ::  Channel 3.  Controller 7.  Value: 44
000073t:  Note on ::  Channel 3.  Note 59.  Velocity 127
000000t:  Note on ::  Channel 3.  Note 66.  Velocity 127
000001t:  Note on ::  Channel 3.  Note 62.  Velocity 127
000379t:  Note on ::  Channel 3.  Note 62.  Velocity 0
000000t:  Note on ::  Channel 3.  Note 66.  Velocity 0
000000t:  Note on ::  Channel 3.  Note 59.  Velocity 0
000005t:  Note on ::  Channel 3.  Note 68.  Velocity 127
000000t:  Note on ::  Channel 3.  Note 59.  Velocity 120
000001t:  Note on ::  Channel 3.  Note 64.  Velocity 127
000379t:  Note on ::  Channel 3.  Note 64.  Velocity 0
000000t:  Note on ::  Channel 3.  Note 59.  Velocity 0
000000t:  Note on ::  Channel 3.  Note 68.  Velocity 0
000005t:  Note on ::  Channel 3.  Note 57.  Velocity 127
000000t:  Note on ::  Channel 3.  Note 64.  Velocity 127
000001t:  Note on ::  Channel 3.  Note 61.  Velocity 127
000379t:  Note on ::  Channel 3.  Note 61.  Velocity 0
000000t:  Note on ::  Channel 3.  Note 64.  Velocity 0
000000t:  Note on ::  Channel 3.  Note 57.  Velocity 0
000005t:  Note on ::  Channel 3.  Note 62.  Velocity 127
000001t:  Note on ::  Channel 3.  Note 66.  Velocity 127
000000t:  Note on ::  Channel 3.  Note 57.  Velocity 122
000380t:  Note on ::  Channel 3.  Note 57.  Velocity 0
000000t:  Note on ::  Channel 3.  Note 66.  Velocity 0
000000t:  Note on ::  Channel 3.  Note 62.  Velocity 0
000005t:  Note on ::  Channel 3.  Note 59.  Velocity 127
000000t:  Note on ::  Channel 3.  Note 66.  Velocity 127
000000t:  Note on ::  Channel 3.  Note 62.  Velocity 127
000380t:  Note on ::  Channel 3.  Note 62.  Velocity 0
000000t:  Note on ::  Channel 3.  Note 66.  Velocity 0
000000t:  Note on ::  Channel 3.  Note 59.  Velocity 0
000005t:  Note on ::  Channel 3.  Note 68.  Velocity 127
000000t:  Note on ::  Channel 3.  Note 59.  Velocity 120
000000t:  Note on ::  Channel 3.  Note 64.  Velocity 127
000380t:  Note on ::  Channel 3.  Note 64.  Velocity 0
000000t:  Note on ::  Channel 3.  Note 59.  Velocity 0
000000t:  Note on ::  Channel 3.  Note 68.  Velocity 0
000005t:  Note on ::  Channel 3.  Note 57.  Velocity 127
000000t:  Note on ::  Channel 3.  Note 64.  Velocity 127
000001t:  Note on ::  Channel 3.  Note 61.  Velocity 127
000379t:  Note on ::  Channel 3.  Note 61.  Velocity 0
000000t:  Note on ::  Channel 3.  Note 64.  Velocity 0
000000t:  Note on ::  Channel 3.  Note 57.  Velocity 0
000005t:  Note on ::  Channel 3.  Note 62.  Velocity 127
000000t:  Note on ::  Channel 3.  Note 66.  Velocity 127
000001t:  Note on ::  Channel 3.  Note 57.  Velocity 122
000379t:  Note on ::  Channel 3.  Note 57.  Velocity 0
000000t:  Note on ::  Channel 3.  Note 66.  Velocity 0
000000t:  Note on ::  Channel 3.  Note 62.  Velocity 0
000005t:  Note on ::  Channel 3.  Note 59.  Velocity 127
000000t:  Note on ::  Channel 3.  Note 62.  Velocity 127
000001t:  Note on ::  Channel 3.  Note 66.  Velocity 127
000379t:  Note on ::  Channel 3.  Note 66.  Velocity 0
000000t:  Note on ::  Channel 3.  Note 62.  Velocity 0
000000t:  Note on ::  Channel 3.  Note 59.  Velocity 0
000005t:  Note on ::  Channel 3.  Note 64.  Velocity 127
000001t:  Note on ::  Channel 3.  Note 59.  Velocity 127
000000t:  Note on ::  Channel 3.  Note 68.  Velocity 127
000380t:  Note on ::  Channel 3.  Note 68.  Velocity 0
000000t:  Note on ::  Channel 3.  Note 59.  Velocity 0
000000t:  Note on ::  Channel 3.  Note 64.  Velocity 0
000004t:  Note on ::  Channel 3.  Note 61.  Velocity 127
000001t:  Note on ::  Channel 3.  Note 66.  Velocity 127
000000t:  Note on ::  Channel 3.  Note 69.  Velocity 127
000380t:  Note on ::  Channel 3.  Note 69.  Velocity 0
000000t:  Note on ::  Channel 3.  Note 66.  Velocity 0
000000t:  Note on ::  Channel 3.  Note 61.  Velocity 0
000005t:  Note on ::  Channel 3.  Note 62.  Velocity 127
000000t:  Note on ::  Channel 3.  Note 66.  Velocity 127
000001t:  Note on ::  Channel 3.  Note 69.  Velocity 127
000379t:  Note on ::  Channel 3.  Note 69.  Velocity 0
000000t:  Note on ::  Channel 3.  Note 66.  Velocity 0
000000t:  Note on ::  Channel 3.  Note 62.  Velocity 0
000005t:  Control change ::  Channel 3.  Controller 7.  Value: 55
000001t:  Note on ::  Channel 3.  Note 61.  Velocity 127
000000t:  Note on ::  Channel 3.  Note 69.  Velocity 127
000000t:  Note on ::  Channel 3.  Note 64.  Velocity 127
000380t:  Note on ::  Channel 3.  Note 69.  Velocity 0
000000t:  Note on ::  Channel 3.  Note 61.  Velocity 0
000004t:  Note on ::  Channel 3.  Note 68.  Velocity 127
000000t:  Note on ::  Channel 3.  Note 59.  Velocity 127
000381t:  Note on ::  Channel 3.  Note 59.  Velocity 0
000000t:  Note on ::  Channel 3.  Note 68.  Velocity 0
000000t:  Note on ::  Channel 3.  Note 64.  Velocity 0
000004t:  Note on ::  Channel 3.  Note 69.  Velocity 127
000000t:  Note on ::  Channel 3.  Note 61.  Velocity 127
000001t:  Note on ::  Channel 3.  Note 66.  Velocity 127
000765t:  Note on ::  Channel 3.  Note 66.  Velocity 0
000000t:  Note on ::  Channel 3.  Note 61.  Velocity 0
000000t:  Note on ::  Channel 3.  Note 69.  Velocity 0
000005t:  Note on ::  Channel 3.  Note 64.  Velocity 127
000000t:  Note on ::  Channel 3.  Note 73.  Velocity 127
000001t:  Note on ::  Channel 3.  Note 69.  Velocity 127
000380t:  Note on ::  Channel 3.  Note 69.  Velocity 0
000000t:  Note on ::  Channel 3.  Note 73.  Velocity 0
000000t:  Note on ::  Channel 3.  Note 64.  Velocity 0
000004t:  Note on ::  Channel 3.  Note 71.  Velocity 119
000000t:  Note on ::  Channel 3.  Note 68.  Velocity 127
000000t:  Note on ::  Channel 3.  Note 76.  Velocity 127
000380t:  Note on ::  Channel 3.  Note 71.  Velocity 0
000001t:  Note on ::  Channel 3.  Note 76.  Velocity 0
000000t:  Note on ::  Channel 3.  Note 68.  Velocity 0
000004t:  Note on ::  Channel 3.  Note 78.  Velocity 127
000000t:  Note on ::  Channel 3.  Note 73.  Velocity 127
000000t:  Note on ::  Channel 3.  Note 69.  Velocity 127
000766t:  Note on ::  Channel 3.  Note 69.  Velocity 0
000000t:  Note on ::  Channel 3.  Note 73.  Velocity 0
000000t:  Note on ::  Channel 3.  Note 78.  Velocity 0
000005t:  Note on ::  Channel 3.  Note 49.  Velocity 127
000000t:  Note on ::  Channel 3.  Note 61.  Velocity 127
000380t:  Note on ::  Channel 3.  Note 61.  Velocity 0
000000t:  Note on ::  Channel 3.  Note 49.  Velocity 0
000004t:  Note on ::  Channel 3.  Note 52.  Velocity 127
000000t:  Note on ::  Channel 3.  Note 64.  Velocity 127
000381t:  Note on ::  Channel 3.  Note 64.  Velocity 0
000000t:  Note on ::  Channel 3.  Note 52.  Velocity 0
000004t:  Note on ::  Channel 3.  Note 54.  Velocity 127
000001t:  Note on ::  Channel 3.  Note 66.  Velocity 127
000765t:  Note on ::  Channel 3.  Note 66.  Velocity 0
000000t:  Note on ::  Channel 3.  Note 54.  Velocity 0
002292t:  Control change ::  Channel 3.  Controller 7.  Value: 76
000018t:  Note on ::  Channel 3.  Note 67.  Velocity 127
000000t:  Note on ::  Channel 3.  Note 71.  Velocity 127
000290t:  Note on ::  Channel 3.  Note 67.  Velocity 0
000003t:  Note on ::  Channel 3.  Note 71.  Velocity 0
000435t:  Control change ::  Channel 3.  Controller 7.  Value: 70
000048t:  Note on ::  Channel 3.  Note 49.  Velocity 127
000000t:  Note on ::  Channel 3.  Note 37.  Velocity 127
000001t:  Note on ::  Channel 3.  Note 61.  Velocity 127
000009t:  Note on ::  Channel 3.  Note 61.  Velocity 0
000039t:  Note on ::  Channel 3.  Note 61.  Velocity 127
000144t:  Note on ::  Channel 3.  Note 56.  Velocity 127
000185t:  Note on ::  Channel 3.  Note 56.  Velocity 0
000007t:  Note on ::  Channel 3.  Note 64.  Velocity 127
000285t:  Note on ::  Channel 3.  Note 64.  Velocity 0
000004t:  Note on ::  Channel 3.  Note 68.  Velocity 127
000053t:  Note on ::  Channel 3.  Note 61.  Velocity 0
000039t:  Note on ::  Channel 3.  Note 68.  Velocity 0
000000t:  Note on ::  Channel 3.  Note 49.  Velocity 0
000005t:  Note on ::  Channel 3.  Note 37.  Velocity 0
000000t:  Note on ::  Channel 3.  Note 43.  Velocity 127
000000t:  Note on ::  Channel 3.  Note 67.  Velocity 127
000000t:  Note on ::  Channel 3.  Note 62.  Velocity 127
000001t:  Note on ::  Channel 3.  Note 31.  Velocity 127
000764t:  Note on ::  Channel 3.  Note 31.  Velocity 0
000000t:  Note on ::  Channel 3.  Note 43.  Velocity 0
000000t:  Note on ::  Channel 3.  Note 67.  Velocity 0
000000t:  Note on ::  Channel 3.  Note 62.  Velocity 0
000005t:  Note on ::  Channel 3.  Note 66.  Velocity 127
000000t:  Note on ::  Channel 3.  Note 62.  Velocity 127
000000t:  Note on ::  Channel 3.  Note 71.  Velocity 127
000001t:  Note on ::  Channel 3.  Note 47.  Velocity 127
000001t:  Note on ::  Channel 3.  Note 35.  Velocity 127
000759t:  Note on ::  Channel 3.  Note 71.  Velocity 0
000000t:  Note on ::  Channel 3.  Note 66.  Velocity 0
000000t:  Note on ::  Channel 3.  Note 62.  Velocity 0
000004t:  Note on ::  Channel 3.  Note 35.  Velocity 0
000001t:  Note on ::  Channel 3.  Note 47.  Velocity 0
000004t:  Note on ::  Channel 3.  Note 64.  Velocity 127
000001t:  Note on ::  Channel 3.  Note 71.  Velocity 127
000000t:  Note on ::  Channel 3.  Note 52.  Velocity 127
000000t:  Note on ::  Channel 3.  Note 68.  Velocity 127
000001t:  Note on ::  Channel 3.  Note 40.  Velocity 127
000760t:  Note on ::  Channel 3.  Note 68.  Velocity 0
000000t:  Note on ::  Channel 3.  Note 71.  Velocity 0
000000t:  Note on ::  Channel 3.  Note 64.  Velocity 0
000004t:  Note on ::  Channel 3.  Note 52.  Velocity 0
000000t:  Note on ::  Channel 3.  Note 40.  Velocity 0
001522t:  Control change ::  Channel 3.  Controller 7.  Value: 55
000024t:  Note on ::  Channel 3.  Note 74.  Velocity 127
000000t:  Note on ::  Channel 3.  Note 78.  Velocity 127
000001t:  Note on ::  Channel 3.  Note 71.  Velocity 100
000379t:  Note on ::  Channel 3.  Note 71.  Velocity 0
000000t:  Note on ::  Channel 3.  Note 78.  Velocity 0
000000t:  Note on ::  Channel 3.  Note 74.  Velocity 0
000005t:  Note on ::  Channel 3.  Note 76.  Velocity 121
000000t:  Note on ::  Channel 3.  Note 71.  Velocity 121
000000t:  Note on ::  Channel 3.  Note 80.  Velocity 127
000380t:  Note on ::  Channel 3.  Note 80.  Velocity 0
000000t:  Note on ::  Channel 3.  Note 71.  Velocity 0
000000t:  Note on ::  Channel 3.  Note 76.  Velocity 0
000006t:  Note on ::  Channel 3.  Note 76.  Velocity 127
000000t:  Note on ::  Channel 3.  Note 81.  Velocity 127
000000t:  Note on ::  Channel 3.  Note 73.  Velocity 127
000379t:  Note on ::  Channel 3.  Note 73.  Velocity 0
000000t:  Note on ::  Channel 3.  Note 81.  Velocity 0
000000t:  Note on ::  Channel 3.  Note 76.  Velocity 0
000005t:  Note on ::  Channel 3.  Note 78.  Velocity 127
000000t:  Note on ::  Channel 3.  Note 74.  Velocity 127
000001t:  Note on ::  Channel 3.  Note 81.  Velocity 127
000380t:  Note on ::  Channel 3.  Note 81.  Velocity 0
000000t:  Note on ::  Channel 3.  Note 74.  Velocity 0
000000t:  Note on ::  Channel 3.  Note 78.  Velocity 0
000005t:  Note on ::  Channel 3.  Note 74.  Velocity 127
000000t:  Note on ::  Channel 3.  Note 78.  Velocity 127
000000t:  Note on ::  Channel 3.  Note 71.  Velocity 100
000379t:  Note on ::  Channel 3.  Note 71.  Velocity 0
000000t:  Note on ::  Channel 3.  Note 78.  Velocity 0
000000t:  Note on ::  Channel 3.  Note 74.  Velocity 0
000005t:  Note on ::  Channel 3.  Note 76.  Velocity 121
000000t:  Note on ::  Channel 3.  Note 71.  Velocity 121
000001t:  Note on ::  Channel 3.  Note 80.  Velocity 127
000380t:  Note on ::  Channel 3.  Note 80.  Velocity 0
000000t:  Note on ::  Channel 3.  Note 71.  Velocity 0
000000t:  Note on ::  Channel 3.  Note 76.  Velocity 0
000005t:  Note on ::  Channel 3.  Note 76.  Velocity 127
000000t:  Note on ::  Channel 3.  Note 81.  Velocity 127
000001t:  Note on ::  Channel 3.  Note 73.  Velocity 127
000379t:  Note on ::  Channel 3.  Note 73.  Velocity 0
000000t:  Note on ::  Channel 3.  Note 81.  Velocity 0
000000t:  Note on ::  Channel 3.  Note 76.  Velocity 0
000005t:  Note on ::  Channel 3.  Note 78.  Velocity 127
000000t:  Note on ::  Channel 3.  Note 74.  Velocity 127
000000t:  Note on ::  Channel 3.  Note 81.  Velocity 127
000381t:  Note on ::  Channel 3.  Note 81.  Velocity 0
000000t:  Note on ::  Channel 3.  Note 74.  Velocity 0
000000t:  Note on ::  Channel 3.  Note 78.  Velocity 0
000005t:  Note on ::  Channel 3.  Note 74.  Velocity 127
000000t:  Note on ::  Channel 3.  Note 78.  Velocity 127
000000t:  Note on ::  Channel 3.  Note 71.  Velocity 108
000379t:  Note on ::  Channel 3.  Note 71.  Velocity 0
000000t:  Note on ::  Channel 3.  Note 78.  Velocity 0
000000t:  Note on ::  Channel 3.  Note 74.  Velocity 0
000005t:  Note on ::  Channel 3.  Note 76.  Velocity 127
000000t:  Note on ::  Channel 3.  Note 71.  Velocity 127
000001t:  Note on ::  Channel 3.  Note 80.  Velocity 127
000379t:  Note on ::  Channel 3.  Note 80.  Velocity 0
000000t:  Note on ::  Channel 3.  Note 71.  Velocity 0
000000t:  Note on ::  Channel 3.  Note 76.  Velocity 0
000006t:  Note on ::  Channel 3.  Note 74.  Velocity 127
000000t:  Note on ::  Channel 3.  Note 78.  Velocity 127
000001t:  Note on ::  Channel 3.  Note 71.  Velocity 127
000379t:  Note on ::  Channel 3.  Note 71.  Velocity 0
000000t:  Note on ::  Channel 3.  Note 78.  Velocity 0
000000t:  Note on ::  Channel 3.  Note 74.  Velocity 0
000004t:  Note on ::  Channel 3.  Note 76.  Velocity 127
000001t:  Note on ::  Channel 3.  Note 71.  Velocity 127
000000t:  Note on ::  Channel 3.  Note 80.  Velocity 127
000361t:  Control change ::  Channel 3.  Controller 7.  Value: 44
000019t:  Note on ::  Channel 3.  Note 80.  Velocity 0
000000t:  Note on ::  Channel 3.  Note 71.  Velocity 0
000000t:  Note on ::  Channel 3.  Note 76.  Velocity 0
000005t:  Note on ::  Channel 3.  Note 59.  Velocity 127
000000t:  Note on ::  Channel 3.  Note 66.  Velocity 127
000001t:  Note on ::  Channel 3.  Note 62.  Velocity 127
000379t:  Note on ::  Channel 3.  Note 62.  Velocity 0
000000t:  Note on ::  Channel 3.  Note 66.  Velocity 0
000000t:  Note on ::  Channel 3.  Note 59.  Velocity 0
000005t:  Note on ::  Channel 3.  Note 68.  Velocity 127
000000t:  Note on ::  Channel 3.  Note 59.  Velocity 120
000001t:  Note on ::  Channel 3.  Note 64.  Velocity 127
000379t:  Note on ::  Channel 3.  Note 64.  Velocity 0
000000t:  Note on ::  Channel 3.  Note 59.  Velocity 0
000000t:  Note on ::  Channel 3.  Note 68.  Velocity 0
000005t:  Note on ::  Channel 3.  Note 57.  Velocity 127
000000t:  Note on ::  Channel 3.  Note 64.  Velocity 127
000001t:  Note on ::  Channel 3.  Note 61.  Velocity 127
000379t:  Note on ::  Channel 3.  Note 57.  Velocity 0
000001t:  Note on ::  Channel 3.  Note 61.  Velocity 0
000000t:  Note on ::  Channel 3.  Note 64.  Velocity 0
000004t:  Note on ::  Channel 3.  Note 62.  Velocity 127
000001t:  Note on ::  Channel 3.  Note 66.  Velocity 127
000000t:  Note on ::  Channel 3.  Note 57.  Velocity 122
000380t:  Note on ::  Channel 3.  Note 57.  Velocity 0
000000t:  Note on ::  Channel 3.  Note 66.  Velocity 0
000000t:  Note on ::  Channel 3.  Note 62.  Velocity 0
000005t:  Note on ::  Channel 3.  Note 59.  Velocity 127
000000t:  Note on ::  Channel 3.  Note 66.  Velocity 127
000000t:  Note on ::  Channel 3.  Note 62.  Velocity 127
000380t:  Note on ::  Channel 3.  Note 62.  Velocity 0
000000t:  Note on ::  Channel 3.  Note 66.  Velocity 0
000000t:  Note on ::  Channel 3.  Note 59.  Velocity 0
000005t:  Note on ::  Channel 3.  Note 68.  Velocity 127
000000t:  Note on ::  Channel 3.  Note 59.  Velocity 120
000000t:  Note on ::  Channel 3.  Note 64.  Velocity 127
000380t:  Note on ::  Channel 3.  Note 64.  Velocity 0
000000t:  Note on ::  Channel 3.  Note 59.  Velocity 0
000000t:  Note on ::  Channel 3.  Note 68.  Velocity 0
000005t:  Note on ::  Channel 3.  Note 57.  Velocity 127
000000t:  Note on ::  Channel 3.  Note 64.  Velocity 127
000001t:  Note on ::  Channel 3.  Note 61.  Velocity 127
000380t:  Note on ::  Channel 3.  Note 61.  Velocity 0
000000t:  Note on ::  Channel 3.  Note 64.  Velocity 0
000000t:  Note on ::  Channel 3.  Note 57.  Velocity 0
000004t:  Note on ::  Channel 3.  Note 62.  Velocity 127
000000t:  Note on ::  Channel 3.  Note 66.  Velocity 127
000001t:  Note on ::  Channel 3.  Note 57.  Velocity 122
000381t:  Note on ::  Channel 3.  Note 57.  Velocity 0
000000t:  Note on ::  Channel 3.  Note 66.  Velocity 0
000000t:  Note on ::  Channel 3.  Note 62.  Velocity 0
000003t:  Note on ::  Channel 3.  Note 59.  Velocity 127
000000t:  Note on ::  Channel 3.  Note 62.  Velocity 127
000001t:  Note on ::  Channel 3.  Note 66.  Velocity 127
000381t:  Note on ::  Channel 3.  Note 66.  Velocity 0
000000t:  Note on ::  Channel 3.  Note 62.  Velocity 0
000000t:  Note on ::  Channel 3.  Note 59.  Velocity 0
000003t:  Note on ::  Channel 3.  Note 64.  Velocity 127
000001t:  Note on ::  Channel 3.  Note 59.  Velocity 127
000000t:  Note on ::  Channel 3.  Note 68.  Velocity 127
000381t:  Note on ::  Channel 3.  Note 68.  Velocity 0
000000t:  Note on ::  Channel 3.  Note 59.  Velocity 0
000000t:  Note on ::  Channel 3.  Note 64.  Velocity 0
000004t:  Note on ::  Channel 3.  Note 61.  Velocity 127
000000t:  Note on ::  Channel 3.  Note 66.  Velocity 127
000000t:  Note on ::  Channel 3.  Note 69.  Velocity 127
000381t:  Note on ::  Channel 3.  Note 69.  Velocity 0
000000t:  Note on ::  Channel 3.  Note 66.  Velocity 0
000000t:  Note on ::  Channel 3.  Note 61.  Velocity 0
000004t:  Note on ::  Channel 3.  Note 62.  Velocity 127
000000t:  Note on ::  Channel 3.  Note 66.  Velocity 127
000001t:  Note on ::  Channel 3.  Note 69.  Velocity 127
000380t:  Note on ::  Channel 3.  Note 62.  Velocity 0
000001t:  Note on ::  Channel 3.  Note 69.  Velocity 0
000000t:  Note on ::  Channel 3.  Note 66.  Velocity 0
000003t:  Control change ::  Channel 3.  Controller 7.  Value: 55
000000t:  Note on ::  Channel 3.  Note 61.  Velocity 127
000001t:  Note on ::  Channel 3.  Note 69.  Velocity 127
000000t:  Note on ::  Channel 3.  Note 64.  Velocity 127
000381t:  Note on ::  Channel 3.  Note 69.  Velocity 0
000000t:  Note on ::  Channel 3.  Note 61.  Velocity 0
000004t:  Note on ::  Channel 3.  Note 68.  Velocity 127
000001t:  Note on ::  Channel 3.  Note 59.  Velocity 127
000380t:  Note on ::  Channel 3.  Note 59.  Velocity 0
000000t:  Note on ::  Channel 3.  Note 68.  Velocity 0
000000t:  Note on ::  Channel 3.  Note 64.  Velocity 0
000004t:  Note on ::  Channel 3.  Note 69.  Velocity 127
000000t:  Note on ::  Channel 3.  Note 61.  Velocity 127
000001t:  Note on ::  Channel 3.  Note 66.  Velocity 127
000765t:  Note on ::  Channel 3.  Note 66.  Velocity 0
000000t:  Note on ::  Channel 3.  Note 61.  Velocity 0
000000t:  Note on ::  Channel 3.  Note 69.  Velocity 0
000005t:  Note on ::  Channel 3.  Note 64.  Velocity 127
000000t:  Note on ::  Channel 3.  Note 73.  Velocity 127
000001t:  Note on ::  Channel 3.  Note 69.  Velocity 127
000380t:  Note on ::  Channel 3.  Note 69.  Velocity 0
000000t:  Note on ::  Channel 3.  Note 73.  Velocity 0
000000t:  Note on ::  Channel 3.  Note 64.  Velocity 0
000004t:  Note on ::  Channel 3.  Note 71.  Velocity 119
000000t:  Note on ::  Channel 3.  Note 68.  Velocity 127
000001t:  Note on ::  Channel 3.  Note 76.  Velocity 127
000380t:  Note on ::  Channel 3.  Note 76.  Velocity 0
000000t:  Note on ::  Channel 3.  Note 68.  Velocity 0
000000t:  Note on ::  Channel 3.  Note 71.  Velocity 0
000004t:  Note on ::  Channel 3.  Note 78.  Velocity 127
000000t:  Note on ::  Channel 3.  Note 73.  Velocity 127
000001t:  Note on ::  Channel 3.  Note 69.  Velocity 127
000765t:  Note on ::  Channel 3.  Note 78.  Velocity 0
000001t:  Note on ::  Channel 3.  Note 69.  Velocity 0
000000t:  Note on ::  Channel 3.  Note 73.  Velocity 0
000004t:  Note on ::  Channel 3.  Note 49.  Velocity 127
000000t:  Note on ::  Channel 3.  Note 61.  Velocity 127
000380t:  Note on ::  Channel 3.  Note 61.  Velocity 0
000000t:  Note on ::  Channel 3.  Note 49.  Velocity 0
000004t:  Note on ::  Channel 3.  Note 52.  Velocity 127
000001t:  Note on ::  Channel 3.  Note 64.  Velocity 127
000380t:  Note on ::  Channel 3.  Note 64.  Velocity 0
000000t:  Note on ::  Channel 3.  Note 52.  Velocity 0
000005t:  Note on ::  Channel 3.  Note 54.  Velocity 127
000000t:  Note on ::  Channel 3.  Note 66.  Velocity 127
000765t:  Note on ::  Channel 3.  Note 66.  Velocity 0
000000t:  Note on ::  Channel 3.  Note 54.  Velocity 0
000006t:  Control change ::  Channel 3.  Controller 7.  Value: 58
000001t:  Note on ::  Channel 3.  Note 61.  Velocity 127
000000t:  Note on ::  Channel 3.  Note 69.  Velocity 127
000000t:  Note on ::  Channel 3.  Note 64.  Velocity 127
000379t:  Note on ::  Channel 3.  Note 69.  Velocity 0
000000t:  Note on ::  Channel 3.  Note 61.  Velocity 0
000004t:  Note on ::  Channel 3.  Note 68.  Velocity 127
000001t:  Note on ::  Channel 3.  Note 59.  Velocity 127
000380t:  Note on ::  Channel 3.  Note 59.  Velocity 0
000000t:  Note on ::  Channel 3.  Note 68.  Velocity 0
000000t:  Note on ::  Channel 3.  Note 64.  Velocity 0
000005t:  Note on ::  Channel 3.  Note 69.  Velocity 127
000000t:  Note on ::  Channel 3.  Note 61.  Velocity 127
000000t:  Note on ::  Channel 3.  Note 66.  Velocity 127
000766t:  Note on ::  Channel 3.  Note 66.  Velocity 0
000000t:  Note on ::  Channel 3.  Note 61.  Velocity 0
000000t:  Note on ::  Channel 3.  Note 69.  Velocity 0
000004t:  Note on ::  Channel 3.  Note 73.  Velocity 127
000000t:  Note on ::  Channel 3.  Note 64.  Velocity 127
000001t:  Note on ::  Channel 3.  Note 69.  Velocity 127
000380t:  Note on ::  Channel 3.  Note 69.  Velocity 0
000000t:  Note on ::  Channel 3.  Note 64.  Velocity 0
000000t:  Note on ::  Channel 3.  Note 73.  Velocity 0
000004t:  Note on ::  Channel 3.  Note 76.  Velocity 127
000000t:  Note on ::  Channel 3.  Note 71.  Velocity 119
000001t:  Note on ::  Channel 3.  Note 68.  Velocity 127
000380t:  Note on ::  Channel 3.  Note 68.  Velocity 0
000000t:  Note on ::  Channel 3.  Note 71.  Velocity 0
000000t:  Note on ::  Channel 3.  Note 76.  Velocity 0
000004t:  Note on ::  Channel 3.  Note 69.  Velocity 127
000000t:  Note on ::  Channel 3.  Note 78.  Velocity 127
000001t:  Note on ::  Channel 3.  Note 73.  Velocity 127
000766t:  Note on ::  Channel 3.  Note 73.  Velocity 0
000000t:  Note on ::  Channel 3.  Note 78.  Velocity 0
000000t:  Note on ::  Channel 3.  Note 69.  Velocity 0
000004t:  Note on ::  Channel 3.  Note 61.  Velocity 127
000001t:  Note on ::  Channel 3.  Note 69.  Velocity 127
000000t:  Note on ::  Channel 3.  Note 64.  Velocity 127
000379t:  Note on ::  Channel 3.  Note 69.  Velocity 0
000000t:  Note on ::  Channel 3.  Note 61.  Velocity 0
000005t:  Note on ::  Channel 3.  Note 68.  Velocity 127
000000t:  Note on ::  Channel 3.  Note 59.  Velocity 127
000380t:  Note on ::  Channel 3.  Note 59.  Velocity 0
000000t:  Note on ::  Channel 3.  Note 68.  Velocity 0
000000t:  Note on ::  Channel 3.  Note 64.  Velocity 0
000005t:  Note on ::  Channel 3.  Note 69.  Velocity 127
000000t:  Note on ::  Channel 3.  Note 61.  Velocity 127
000001t:  Note on ::  Channel 3.  Note 66.  Velocity 127
000765t:  Note on ::  Channel 3.  Note 66.  Velocity 0
000000t:  Note on ::  Channel 3.  Note 61.  Velocity 0
000000t:  Note on ::  Channel 3.  Note 69.  Velocity 0
000005t:  Note on ::  Channel 3.  Note 61.  Velocity 127
000001t:  Note on ::  Channel 3.  Note 69.  Velocity 127
000000t:  Note on ::  Channel 3.  Note 64.  Velocity 127
000379t:  Note on ::  Channel 3.  Note 69.  Velocity 0
000000t:  Note on ::  Channel 3.  Note 61.  Velocity 0
000005t:  Note on ::  Channel 3.  Note 68.  Velocity 127
000000t:  Note on ::  Channel 3.  Note 59.  Velocity 127
000380t:  Note on ::  Channel 3.  Note 59.  Velocity 0
000000t:  Note on ::  Channel 3.  Note 68.  Velocity 0
000000t:  Note on ::  Channel 3.  Note 64.  Velocity 0
000005t:  Note on ::  Channel 3.  Note 69.  Velocity 127
000000t:  Note on ::  Channel 3.  Note 61.  Velocity 127
000001t:  Note on ::  Channel 3.  Note 66.  Velocity 127
000764t:  Note on ::  Channel 3.  Note 66.  Velocity 0
000000t:  Note on ::  Channel 3.  Note 61.  Velocity 0
000000t:  Note on ::  Channel 3.  Note 69.  Velocity 0
000006t:  Note on ::  Channel 3.  Note 73.  Velocity 127
000000t:  Note on ::  Channel 3.  Note 64.  Velocity 127
000000t:  Note on ::  Channel 3.  Note 69.  Velocity 127
000380t:  Note on ::  Channel 3.  Note 69.  Velocity 0
000000t:  Note on ::  Channel 3.  Note 64.  Velocity 0
000000t:  Note on ::  Channel 3.  Note 73.  Velocity 0
000005t:  Note on ::  Channel 3.  Note 76.  Velocity 127
000000t:  Note on ::  Channel 3.  Note 71.  Velocity 119
000000t:  Note on ::  Channel 3.  Note 68.  Velocity 127
000288t:  Control change ::  Channel 3.  Controller 7.  Value: 49
000059t:  Control change ::  Channel 3.  Controller 7.  Value: 48
000033t:  Note on ::  Channel 3.  Note 68.  Velocity 0
000000t:  Note on ::  Channel 3.  Note 71.  Velocity 0
000000t:  Note on ::  Channel 3.  Note 76.  Velocity 0
000005t:  Note on ::  Channel 3.  Note 69.  Velocity 127
000000t:  Note on ::  Channel 3.  Note 78.  Velocity 127
000000t:  Note on ::  Channel 3.  Note 73.  Velocity 127
000012t:  Control change ::  Channel 3.  Controller 7.  Value: 47
000059t:  Control change ::  Channel 3.  Controller 7.  Value: 46
000047t:  Control change ::  Channel 3.  Controller 7.  Value: 45
000061t:  Control change ::  Channel 3.  Controller 7.  Value: 44
000048t:  Control change ::  Channel 3.  Controller 7.  Value: 43
000061t:  Control change ::  Channel 3.  Controller 7.  Value: 42
000047t:  Control change ::  Channel 3.  Controller 7.  Value: 41
000061t:  Control change ::  Channel 3.  Controller 7.  Value: 40
000048t:  Control change ::  Channel 3.  Controller 7.  Value: 39
000060t:  Control change ::  Channel 3.  Controller 7.  Value: 38
000048t:  Control change ::  Channel 3.  Controller 7.  Value: 37
000060t:  Control change ::  Channel 3.  Controller 7.  Value: 36
000049t:  Control change ::  Channel 3.  Controller 7.  Value: 35
000059t:  Control change ::  Channel 3.  Controller 7.  Value: 34
000045t:  Note on ::  Channel 3.  Note 69.  Velocity 0
000001t:  Note on ::  Channel 3.  Note 73.  Velocity 0
000000t:  Note on ::  Channel 3.  Note 78.  Velocity 0
000006t:  Control change ::  Channel 3.  Controller 7.  Value: 33
000000t:  Note on ::  Channel 3.  Note 64.  Velocity 127
000000t:  Note on ::  Channel 3.  Note 69.  Velocity 127
000000t:  Note on ::  Channel 3.  Note 61.  Velocity 127
000057t:  Control change ::  Channel 3.  Controller 7.  Value: 32
000049t:  Control change ::  Channel 3.  Controller 7.  Value: 31
000059t:  Control change ::  Channel 3.  Controller 7.  Value: 30
000048t:  Control change ::  Channel 3.  Controller 7.  Value: 29
000061t:  Control change ::  Channel 3.  Controller 7.  Value: 28
000047t:  Control change ::  Channel 3.  Controller 7.  Value: 27
000057t:  Note on ::  Channel 3.  Note 61.  Velocity 0
000000t:  Note on ::  Channel 3.  Note 69.  Velocity 0
000006t:  Control change ::  Channel 3.  Controller 7.  Value: 26
000000t:  Note on ::  Channel 3.  Note 68.  Velocity 127
000000t:  Note on ::  Channel 3.  Note 59.  Velocity 127
000046t:  Control change ::  Channel 3.  Controller 7.  Value: 25
000049t:  Control change ::  Channel 3.  Controller 7.  Value: 24
000059t:  Control change ::  Channel 3.  Controller 7.  Value: 23
000049t:  Control change ::  Channel 3.  Controller 7.  Value: 22
000060t:  Control change ::  Channel 3.  Controller 7.  Value: 21
000048t:  Control change ::  Channel 3.  Controller 7.  Value: 20
000060t:  Control change ::  Channel 3.  Controller 7.  Value: 19
000008t:  Note on ::  Channel 3.  Note 59.  Velocity 0
000000t:  Note on ::  Channel 3.  Note 68.  Velocity 0
000000t:  Note on ::  Channel 3.  Note 64.  Velocity 0
000007t:  Note on ::  Channel 3.  Note 69.  Velocity 127
000000t:  Note on ::  Channel 3.  Note 61.  Velocity 127
000000t:  Note on ::  Channel 3.  Note 66.  Velocity 127
000033t:  Control change ::  Channel 3.  Controller 7.  Value: 18
000061t:  Control change ::  Channel 3.  Controller 7.  Value: 17
000047t:  Control change ::  Channel 3.  Controller 7.  Value: 16
000061t:  Control change ::  Channel 3.  Controller 7.  Value: 15
000048t:  Control change ::  Channel 3.  Controller 7.  Value: 14
000060t:  Control change ::  Channel 3.  Controller 7.  Value: 13
000048t:  Control change ::  Channel 3.  Controller 7.  Value: 12
000060t:  Control change ::  Channel 3.  Controller 7.  Value: 11
000049t:  Control change ::  Channel 3.  Controller 7.  Value: 10
000060t:  Control change ::  Channel 3.  Controller 7.  Value: 9
000049t:  Control change ::  Channel 3.  Controller 7.  Value: 8
000059t:  Control change ::  Channel 3.  Controller 7.  Value: 7
000049t:  Control change ::  Channel 3.  Controller 7.  Value: 6
000060t:  Control change ::  Channel 3.  Controller 7.  Value: 5
000020t:  Note on ::  Channel 3.  Note 66.  Velocity 0
000000t:  Note on ::  Channel 3.  Note 61.  Velocity 0
000000t:  Note on ::  Channel 3.  Note 69.  Velocity 0
000027t:  Control change ::  Channel 3.  Controller 7.  Value: 4
000061t:  Control change ::  Channel 3.  Controller 7.  Value: 3
000047t:  Control change ::  Channel 3.  Controller 7.  Value: 2
000049t:  Control change ::  Channel 3.  Controller 7.  Value: 1
000060t:  Control change ::  Channel 3.  Controller 7.  Value: 0
000106t:  Control change ::  Channel 3.  Controller 64.  Value: 0
000001t:  Pitch wheel change ::  Channel 3.   -8192
000000t:  Meta-event type $2f (End-track event) of length 0
Sigma t = 60792

Track chunk of 2269 bytes
000000t:  Meta-event type $21 (?) of length 1
	  _
000000t:  Meta-event type $03 (Track name) of length 20
	  Doctor Solo         
000000t:  Program (patch) change ::  Channel 4.  Patch 88 (Pad 1 (new age))
000000t:  Control change ::  Channel 4.  Controller 7.  Value: 88
000000t:  Control change ::  Channel 4.  Controller 10.  Value: 80
004978t:  Note on ::  Channel 4.  Note 78.  Velocity 127
000000t:  Note on ::  Channel 4.  Note 90.  Velocity 127
000035t:  Note on ::  Channel 4.  Note 90.  Velocity 0
000000t:  Note on ::  Channel 4.  Note 78.  Velocity 0
000013t:  Note on ::  Channel 4.  Note 90.  Velocity 127
000000t:  Note on ::  Channel 4.  Note 78.  Velocity 127
000047t:  Note on ::  Channel 4.  Note 78.  Velocity 0
000000t:  Note on ::  Channel 4.  Note 90.  Velocity 0
000002t:  Note on ::  Channel 4.  Note 86.  Velocity 127
000000t:  Note on ::  Channel 4.  Note 74.  Velocity 127
000047t:  Note on ::  Channel 4.  Note 74.  Velocity 0
000000t:  Note on ::  Channel 4.  Note 86.  Velocity 0
000000t:  Note on ::  Channel 4.  Note 71.  Velocity 127
000001t:  Note on ::  Channel 4.  Note 83.  Velocity 127
000040t:  Note on ::  Channel 4.  Note 83.  Velocity 0
000000t:  Note on ::  Channel 4.  Note 71.  Velocity 0
000056t:  Note on ::  Channel 4.  Note 83.  Velocity 127
000000t:  Note on ::  Channel 4.  Note 71.  Velocity 127
000048t:  Note on ::  Channel 4.  Note 71.  Velocity 0
000000t:  Note on ::  Channel 4.  Note 83.  Velocity 0
000047t:  Note on ::  Channel 4.  Note 88.  Velocity 127
000000t:  Note on ::  Channel 4.  Note 76.  Velocity 127
000042t:  Note on ::  Channel 4.  Note 76.  Velocity 0
000000t:  Note on ::  Channel 4.  Note 88.  Velocity 0
000055t:  Note on ::  Channel 4.  Note 76.  Velocity 127
000000t:  Note on ::  Channel 4.  Note 88.  Velocity 127
000047t:  Note on ::  Channel 4.  Note 88.  Velocity 0
000000t:  Note on ::  Channel 4.  Note 76.  Velocity 0
000049t:  Note on ::  Channel 4.  Note 88.  Velocity 127
000000t:  Note on ::  Channel 4.  Note 76.  Velocity 127
000047t:  Note on ::  Channel 4.  Note 76.  Velocity 0
000000t:  Note on ::  Channel 4.  Note 88.  Velocity 0
000003t:  Note on ::  Channel 4.  Note 92.  Velocity 127
000000t:  Note on ::  Channel 4.  Note 80.  Velocity 127
000038t:  Note on ::  Channel 4.  Note 80.  Velocity 0
000000t:  Note on ::  Channel 4.  Note 92.  Velocity 0
000009t:  Note on ::  Channel 4.  Note 80.  Velocity 127
000000t:  Note on ::  Channel 4.  Note 92.  Velocity 127
000041t:  Note on ::  Channel 4.  Note 92.  Velocity 0
000000t:  Note on ::  Channel 4.  Note 80.  Velocity 0
000007t:  Note on ::  Channel 4.  Note 93.  Velocity 127
000001t:  Note on ::  Channel 4.  Note 81.  Velocity 127
000042t:  Note on ::  Channel 4.  Note 81.  Velocity 0
000000t:  Note on ::  Channel 4.  Note 93.  Velocity 0
000005t:  Note on ::  Channel 4.  Note 95.  Velocity 127
000000t:  Note on ::  Channel 4.  Note 83.  Velocity 127
000047t:  Note on ::  Channel 4.  Note 83.  Velocity 0
000000t:  Note on ::  Channel 4.  Note 95.  Velocity 0
000002t:  Note on ::  Channel 4.  Note 81.  Velocity 127
000000t:  Note on ::  Channel 4.  Note 93.  Velocity 127
000037t:  Note on ::  Channel 4.  Note 93.  Velocity 0
000000t:  Note on ::  Channel 4.  Note 81.  Velocity 0
000010t:  Note on ::  Channel 4.  Note 93.  Velocity 127
000000t:  Note on ::  Channel 4.  Note 81.  Velocity 127
000041t:  Note on ::  Channel 4.  Note 93.  Velocity 0
000001t:  Note on ::  Channel 4.  Note 81.  Velocity 0
000007t:  Note on ::  Channel 4.  Note 93.  Velocity 127
000000t:  Note on ::  Channel 4.  Note 81.  Velocity 127
000037t:  Note on ::  Channel 4.  Note 81.  Velocity 0
000000t:  Note on ::  Channel 4.  Note 93.  Velocity 0
000010t:  Note on ::  Channel 4.  Note 76.  Velocity 127
000000t:  Note on ::  Channel 4.  Note 88.  Velocity 127
000042t:  Note on ::  Channel 4.  Note 88.  Velocity 0
000000t:  Note on ::  Channel 4.  Note 76.  Velocity 0
000055t:  Note on ::  Channel 4.  Note 86.  Velocity 127
000000t:  Note on ::  Channel 4.  Note 74.  Velocity 127
000037t:  Note on ::  Channel 4.  Note 74.  Velocity 0
000000t:  Note on ::  Channel 4.  Note 86.  Velocity 0
000059t:  Note on ::  Channel 4.  Note 90.  Velocity 127
000000t:  Note on ::  Channel 4.  Note 78.  Velocity 127
000041t:  Note on ::  Channel 4.  Note 78.  Velocity 0
000000t:  Note on ::  Channel 4.  Note 90.  Velocity 0
000055t:  Note on ::  Channel 4.  Note 78.  Velocity 127
000000t:  Note on ::  Channel 4.  Note 90.  Velocity 127
000042t:  Note on ::  Channel 4.  Note 90.  Velocity 0
000000t:  Note on ::  Channel 4.  Note 78.  Velocity 0
000054t:  Note on ::  Channel 4.  Note 90.  Velocity 127
000001t:  Note on ::  Channel 4.  Note 78.  Velocity 127
000041t:  Note on ::  Channel 4.  Note 78.  Velocity 0
000000t:  Note on ::  Channel 4.  Note 90.  Velocity 0
000008t:  Note on ::  Channel 4.  Note 88.  Velocity 127
000000t:  Note on ::  Channel 4.  Note 76.  Velocity 127
000042t:  Note on ::  Channel 4.  Note 76.  Velocity 0
000000t:  Note on ::  Channel 4.  Note 88.  Velocity 0
000005t:  Note on ::  Channel 4.  Note 76.  Velocity 127
000000t:  Note on ::  Channel 4.  Note 88.  Velocity 127
000043t:  Note on ::  Channel 4.  Note 88.  Velocity 0
000000t:  Note on ::  Channel 4.  Note 76.  Velocity 0
000006t:  Note on ::  Channel 4.  Note 90.  Velocity 127
000000t:  Note on ::  Channel 4.  Note 78.  Velocity 127
000038t:  Note on ::  Channel 4.  Note 90.  Velocity 0
000001t:  Note on ::  Channel 4.  Note 78.  Velocity 0
000008t:  Note on ::  Channel 4.  Note 88.  Velocity 127
000000t:  Note on ::  Channel 4.  Note 76.  Velocity 127
000043t:  Note on ::  Channel 4.  Note 76.  Velocity 0
000000t:  Note on ::  Channel 4.  Note 88.  Velocity 0
000006t:  Note on ::  Channel 4.  Note 78.  Velocity 127
000000t:  Note on ::  Channel 4.  Note 90.  Velocity 127
000039t:  Note on ::  Channel 4.  Note 90.  Velocity 0
000000t:  Note on ::  Channel 4.  Note 78.  Velocity 0
000008t:  Note on ::  Channel 4.  Note 90.  Velocity 127
000000t:  Note on ::  Channel 4.  Note 78.  Velocity 127
000042t:  Note on ::  Channel 4.  Note 78.  Velocity 0
000000t:  Note on ::  Channel 4.  Note 90.  Velocity 0
000007t:  Note on ::  Channel 4.  Note 86.  Velocity 127
000001t:  Note on ::  Channel 4.  Note 74.  Velocity 127
000041t:  Note on ::  Channel 4.  Note 74.  Velocity 0
000000t:  Note on ::  Channel 4.  Note 86.  Velocity 0
000006t:  Note on ::  Channel 4.  Note 71.  Velocity 127
000000t:  Note on ::  Channel 4.  Note 83.  Velocity 127
000034t:  Note on ::  Channel 4.  Note 83.  Velocity 0
000000t:  Note on ::  Channel 4.  Note 71.  Velocity 0
000062t:  Note on ::  Channel 4.  Note 83.  Velocity 127
000001t:  Note on ::  Channel 4.  Note 71.  Velocity 127
000042t:  Note on ::  Channel 4.  Note 71.  Velocity 0
000000t:  Note on ::  Channel 4.  Note 83.  Velocity 0
000053t:  Note on ::  Channel 4.  Note 88.  Velocity 127
000000t:  Note on ::  Channel 4.  Note 76.  Velocity 127
000046t:  Note on ::  Channel 4.  Note 76.  Velocity 0
000000t:  Note on ::  Channel 4.  Note 88.  Velocity 0
000050t:  Note on ::  Channel 4.  Note 76.  Velocity 127
000000t:  Note on ::  Channel 4.  Note 88.  Velocity 127
000050t:  Note on ::  Channel 4.  Note 88.  Velocity 0
000000t:  Note on ::  Channel 4.  Note 76.  Velocity 0
000047t:  Note on ::  Channel 4.  Note 88.  Velocity 127
000000t:  Note on ::  Channel 4.  Note 76.  Velocity 127
000045t:  Note on ::  Channel 4.  Note 76.  Velocity 0
000000t:  Note on ::  Channel 4.  Note 88.  Velocity 0
000004t:  Note on ::  Channel 4.  Note 92.  Velocity 127
000000t:  Note on ::  Channel 4.  Note 80.  Velocity 127
000040t:  Note on ::  Channel 4.  Note 80.  Velocity 0
000000t:  Note on ::  Channel 4.  Note 92.  Velocity 0
000007t:  Note on ::  Channel 4.  Note 80.  Velocity 127
000000t:  Note on ::  Channel 4.  Note 92.  Velocity 127
000039t:  Note on ::  Channel 4.  Note 92.  Velocity 0
000000t:  Note on ::  Channel 4.  Note 80.  Velocity 0
000010t:  Note on ::  Channel 4.  Note 93.  Velocity 127
000000t:  Note on ::  Channel 4.  Note 81.  Velocity 127
000039t:  Note on ::  Channel 4.  Note 81.  Velocity 0
000000t:  Note on ::  Channel 4.  Note 93.  Velocity 0
000008t:  Note on ::  Channel 4.  Note 95.  Velocity 127
000000t:  Note on ::  Channel 4.  Note 83.  Velocity 127
000042t:  Note on ::  Channel 4.  Note 83.  Velocity 0
000000t:  Note on ::  Channel 4.  Note 95.  Velocity 0
000007t:  Note on ::  Channel 4.  Note 81.  Velocity 127
000001t:  Note on ::  Channel 4.  Note 93.  Velocity 127
000033t:  Note on ::  Channel 4.  Note 93.  Velocity 0
000000t:  Note on ::  Channel 4.  Note 81.  Velocity 0
000014t:  Note on ::  Channel 4.  Note 93.  Velocity 127
000000t:  Note on ::  Channel 4.  Note 81.  Velocity 127
000037t:  Note on ::  Channel 4.  Note 81.  Velocity 0
000000t:  Note on ::  Channel 4.  Note 93.  Velocity 0
000012t:  Note on ::  Channel 4.  Note 93.  Velocity 127
000000t:  Note on ::  Channel 4.  Note 81.  Velocity 127
000028t:  Note on ::  Channel 4.  Note 81.  Velocity 0
000000t:  Note on ::  Channel 4.  Note 93.  Velocity 0
000019t:  Note on ::  Channel 4.  Note 76.  Velocity 127
000000t:  Note on ::  Channel 4.  Note 88.  Velocity 127
000033t:  Note on ::  Channel 4.  Note 88.  Velocity 0
000000t:  Note on ::  Channel 4.  Note 76.  Velocity 0
000064t:  Note on ::  Channel 4.  Note 86.  Velocity 127
000000t:  Note on ::  Channel 4.  Note 74.  Velocity 127
000026t:  Note on ::  Channel 4.  Note 74.  Velocity 0
000000t:  Note on ::  Channel 4.  Note 86.  Velocity 0
000070t:  Note on ::  Channel 4.  Note 90.  Velocity 127
000000t:  Note on ::  Channel 4.  Note 78.  Velocity 127
000033t:  Note on ::  Channel 4.  Note 78.  Velocity 0
000000t:  Note on ::  Channel 4.  Note 90.  Velocity 0
000063t:  Note on ::  Channel 4.  Note 78.  Velocity 127
000000t:  Note on ::  Channel 4.  Note 90.  Velocity 127
000039t:  Note on ::  Channel 4.  Note 90.  Velocity 0
000000t:  Note on ::  Channel 4.  Note 78.  Velocity 0
000057t:  Note on ::  Channel 4.  Note 90.  Velocity 127
000000t:  Note on ::  Channel 4.  Note 78.  Velocity 127
000042t:  Note on ::  Channel 4.  Note 78.  Velocity 0
000000t:  Note on ::  Channel 4.  Note 90.  Velocity 0
000008t:  Note on ::  Channel 4.  Note 88.  Velocity 127
000000t:  Note on ::  Channel 4.  Note 76.  Velocity 127
000036t:  Note on ::  Channel 4.  Note 76.  Velocity 0
000000t:  Note on ::  Channel 4.  Note 88.  Velocity 0
000011t:  Note on ::  Channel 4.  Note 76.  Velocity 127
000000t:  Note on ::  Channel 4.  Note 88.  Velocity 127
000046t:  Note on ::  Channel 4.  Note 88.  Velocity 0
000000t:  Note on ::  Channel 4.  Note 76.  Velocity 0
000002t:  Note on ::  Channel 4.  Note 90.  Velocity 127
000000t:  Note on ::  Channel 4.  Note 78.  Velocity 127
000040t:  Note on ::  Channel 4.  Note 78.  Velocity 0
000000t:  Note on ::  Channel 4.  Note 90.  Velocity 0
000008t:  Note on ::  Channel 4.  Note 88.  Velocity 127
000000t:  Note on ::  Channel 4.  Note 76.  Velocity 127
000043t:  Note on ::  Channel 4.  Note 76.  Velocity 0
000000t:  Note on ::  Channel 4.  Note 88.  Velocity 0
000007t:  Note on ::  Channel 4.  Note 78.  Velocity 127
000000t:  Note on ::  Channel 4.  Note 90.  Velocity 127
000033t:  Note on ::  Channel 4.  Note 90.  Velocity 0
000000t:  Note on ::  Channel 4.  Note 78.  Velocity 0
000013t:  Note on ::  Channel 4.  Note 90.  Velocity 127
000000t:  Note on ::  Channel 4.  Note 78.  Velocity 127
000047t:  Note on ::  Channel 4.  Note 78.  Velocity 0
000000t:  Note on ::  Channel 4.  Note 90.  Velocity 0
000002t:  Note on ::  Channel 4.  Note 86.  Velocity 127
000000t:  Note on ::  Channel 4.  Note 74.  Velocity 127
000047t:  Note on ::  Channel 4.  Note 74.  Velocity 0
000000t:  Note on ::  Channel 4.  Note 86.  Velocity 0
000001t:  Note on ::  Channel 4.  Note 71.  Velocity 127
000000t:  Note on ::  Channel 4.  Note 83.  Velocity 127
000041t:  Note on ::  Channel 4.  Note 83.  Velocity 0
000000t:  Note on ::  Channel 4.  Note 71.  Velocity 0
000055t:  Note on ::  Channel 4.  Note 83.  Velocity 127
000000t:  Note on ::  Channel 4.  Note 71.  Velocity 127
000049t:  Note on ::  Channel 4.  Note 71.  Velocity 0
000000t:  Note on ::  Channel 4.  Note 83.  Velocity 0
000047t:  Note on ::  Channel 4.  Note 88.  Velocity 127
000000t:  Note on ::  Channel 4.  Note 76.  Velocity 127
000042t:  Note on ::  Channel 4.  Note 76.  Velocity 0
000000t:  Note on ::  Channel 4.  Note 88.  Velocity 0
000054t:  Note on ::  Channel 4.  Note 76.  Velocity 127
000000t:  Note on ::  Channel 4.  Note 88.  Velocity 127
000047t:  Note on ::  Channel 4.  Note 88.  Velocity 0
000000t:  Note on ::  Channel 4.  Note 76.  Velocity 0
000049t:  Note on ::  Channel 4.  Note 88.  Velocity 127
000000t:  Note on ::  Channel 4.  Note 76.  Velocity 127
000047t:  Note on ::  Channel 4.  Note 76.  Velocity 0
000000t:  Note on ::  Channel 4.  Note 88.  Velocity 0
000003t:  Note on ::  Channel 4.  Note 92.  Velocity 127
000000t:  Note on ::  Channel 4.  Note 80.  Velocity 127
000038t:  Note on ::  Channel 4.  Note 80.  Velocity 0
000000t:  Note on ::  Channel 4.  Note 92.  Velocity 0
000009t:  Note on ::  Channel 4.  Note 80.  Velocity 127
000000t:  Note on ::  Channel 4.  Note 92.  Velocity 127
000041t:  Note on ::  Channel 4.  Note 92.  Velocity 0
000000t:  Note on ::  Channel 4.  Note 80.  Velocity 0
000008t:  Note on ::  Channel 4.  Note 93.  Velocity 127
000000t:  Note on ::  Channel 4.  Note 81.  Velocity 127
000042t:  Note on ::  Channel 4.  Note 81.  Velocity 0
000000t:  Note on ::  Channel 4.  Note 93.  Velocity 0
000005t:  Note on ::  Channel 4.  Note 95.  Velocity 127
000000t:  Note on ::  Channel 4.  Note 83.  Velocity 127
000047t:  Note on ::  Channel 4.  Note 83.  Velocity 0
000000t:  Note on ::  Channel 4.  Note 95.  Velocity 0
000003t:  Note on ::  Channel 4.  Note 81.  Velocity 127
000000t:  Note on ::  Channel 4.  Note 93.  Velocity 127
000036t:  Note on ::  Channel 4.  Note 93.  Velocity 0
000000t:  Note on ::  Channel 4.  Note 81.  Velocity 0
000010t:  Note on ::  Channel 4.  Note 93.  Velocity 127
000000t:  Note on ::  Channel 4.  Note 81.  Velocity 127
000042t:  Note on ::  Channel 4.  Note 81.  Velocity 0
000000t:  Note on ::  Channel 4.  Note 93.  Velocity 0
000007t:  Note on ::  Channel 4.  Note 93.  Velocity 127
000001t:  Note on ::  Channel 4.  Note 81.  Velocity 127
000037t:  Note on ::  Channel 4.  Note 81.  Velocity 0
000000t:  Note on ::  Channel 4.  Note 93.  Velocity 0
000010t:  Note on ::  Channel 4.  Note 78.  Velocity 127
000000t:  Note on ::  Channel 4.  Note 90.  Velocity 127
000041t:  Note on ::  Channel 4.  Note 90.  Velocity 0
000000t:  Note on ::  Channel 4.  Note 78.  Velocity 0
000055t:  Note on ::  Channel 4.  Note 86.  Velocity 127
000001t:  Note on ::  Channel 4.  Note 74.  Velocity 127
000036t:  Note on ::  Channel 4.  Note 74.  Velocity 0
000000t:  Note on ::  Channel 4.  Note 86.  Velocity 0
000059t:  Note on ::  Channel 4.  Note 90.  Velocity 127
000000t:  Note on ::  Channel 4.  Note 78.  Velocity 127
000042t:  Note on ::  Channel 4.  Note 78.  Velocity 0
000000t:  Note on ::  Channel 4.  Note 90.  Velocity 0
000054t:  Note on ::  Channel 4.  Note 78.  Velocity 127
000001t:  Note on ::  Channel 4.  Note 90.  Velocity 127
000041t:  Note on ::  Channel 4.  Note 90.  Velocity 0
000000t:  Note on ::  Channel 4.  Note 78.  Velocity 0
000055t:  Note on ::  Channel 4.  Note 90.  Velocity 127
000000t:  Note on ::  Channel 4.  Note 78.  Velocity 127
000041t:  Note on ::  Channel 4.  Note 78.  Velocity 0
000000t:  Note on ::  Channel 4.  Note 90.  Velocity 0
000008t:  Note on ::  Channel 4.  Note 88.  Velocity 127
000000t:  Note on ::  Channel 4.  Note 76.  Velocity 127
000043t:  Note on ::  Channel 4.  Note 76.  Velocity 0
000000t:  Note on ::  Channel 4.  Note 88.  Velocity 0
000004t:  Note on ::  Channel 4.  Note 76.  Velocity 127
000001t:  Note on ::  Channel 4.  Note 88.  Velocity 127
000042t:  Note on ::  Channel 4.  Note 88.  Velocity 0
000000t:  Note on ::  Channel 4.  Note 76.  Velocity 0
000006t:  Note on ::  Channel 4.  Note 76.  Velocity 127
000001t:  Note on ::  Channel 4.  Note 88.  Velocity 127
000038t:  Note on ::  Channel 4.  Note 88.  Velocity 0
000000t:  Note on ::  Channel 4.  Note 76.  Velocity 0
026249t:  Note on ::  Channel 4.  Note 78.  Velocity 127
000000t:  Note on ::  Channel 4.  Note 90.  Velocity 127
000035t:  Note on ::  Channel 4.  Note 90.  Velocity 0
000000t:  Note on ::  Channel 4.  Note 78.  Velocity 0
000014t:  Note on ::  Channel 4.  Note 90.  Velocity 127
000000t:  Note on ::  Channel 4.  Note 78.  Velocity 127
000047t:  Note on ::  Channel 4.  Note 78.  Velocity 0
000000t:  Note on ::  Channel 4.  Note 90.  Velocity 0
000001t:  Note on ::  Channel 4.  Note 86.  Velocity 127
000000t:  Note on ::  Channel 4.  Note 74.  Velocity 127
000047t:  Note on ::  Channel 4.  Note 74.  Velocity 0
000000t:  Note on ::  Channel 4.  Note 86.  Velocity 0
000001t:  Note on ::  Channel 4.  Note 71.  Velocity 127
000000t:  Note on ::  Channel 4.  Note 83.  Velocity 127
000042t:  Note on ::  Channel 4.  Note 83.  Velocity 0
000000t:  Note on ::  Channel 4.  Note 71.  Velocity 0
000055t:  Note on ::  Channel 4.  Note 83.  Velocity 127
000000t:  Note on ::  Channel 4.  Note 71.  Velocity 127
000047t:  Note on ::  Channel 4.  Note 71.  Velocity 0
000000t:  Note on ::  Channel 4.  Note 83.  Velocity 0
000049t:  Note on ::  Channel 4.  Note 88.  Velocity 127
000000t:  Note on ::  Channel 4.  Note 76.  Velocity 127
000042t:  Note on ::  Channel 4.  Note 76.  Velocity 0
000000t:  Note on ::  Channel 4.  Note 88.  Velocity 0
000054t:  Note on ::  Channel 4.  Note 76.  Velocity 127
000000t:  Note on ::  Channel 4.  Note 88.  Velocity 127
000047t:  Note on ::  Channel 4.  Note 88.  Velocity 0
000000t:  Note on ::  Channel 4.  Note 76.  Velocity 0
000049t:  Note on ::  Channel 4.  Note 88.  Velocity 127
000000t:  Note on ::  Channel 4.  Note 76.  Velocity 127
000048t:  Note on ::  Channel 4.  Note 76.  Velocity 0
000000t:  Note on ::  Channel 4.  Note 88.  Velocity 0
000000t:  Note on ::  Channel 4.  Note 92.  Velocity 127
000001t:  Note on ::  Channel 4.  Note 80.  Velocity 127
000038t:  Note on ::  Channel 4.  Note 80.  Velocity 0
000000t:  Note on ::  Channel 4.  Note 92.  Velocity 0
000010t:  Note on ::  Channel 4.  Note 80.  Velocity 127
000000t:  Note on ::  Channel 4.  Note 92.  Velocity 127
000042t:  Note on ::  Channel 4.  Note 92.  Velocity 0
000000t:  Note on ::  Channel 4.  Note 80.  Velocity 0
000005t:  Note on ::  Channel 4.  Note 93.  Velocity 127
000000t:  Note on ::  Channel 4.  Note 81.  Velocity 127
000043t:  Note on ::  Channel 4.  Note 81.  Velocity 0
000000t:  Note on ::  Channel 4.  Note 93.  Velocity 0
000006t:  Note on ::  Channel 4.  Note 95.  Velocity 127
000000t:  Note on ::  Channel 4.  Note 83.  Velocity 127
000047t:  Note on ::  Channel 4.  Note 95.  Velocity 0
000001t:  Note on ::  Channel 4.  Note 83.  Velocity 0
000000t:  Note on ::  Channel 4.  Note 78.  Velocity 127
000000t:  Note on ::  Channel 4.  Note 90.  Velocity 127
000035t:  Note on ::  Channel 4.  Note 90.  Velocity 0
000000t:  Note on ::  Channel 4.  Note 78.  Velocity 0
000013t:  Note on ::  Channel 4.  Note 90.  Velocity 127
000000t:  Note on ::  Channel 4.  Note 78.  Velocity 127
000048t:  Note on ::  Channel 4.  Note 78.  Velocity 0
000000t:  Note on ::  Channel 4.  Note 90.  Velocity 0
000000t:  Note on ::  Channel 4.  Note 86.  Velocity 127
000000t:  Note on ::  Channel 4.  Note 74.  Velocity 127
000047t:  Note on ::  Channel 4.  Note 74.  Velocity 0
000000t:  Note on ::  Channel 4.  Note 86.  Velocity 0
000002t:  Note on ::  Channel 4.  Note 71.  Velocity 127
000000t:  Note on ::  Channel 4.  Note 83.  Velocity 127
000042t:  Note on ::  Channel 4.  Note 83.  Velocity 0
000000t:  Note on ::  Channel 4.  Note 71.  Velocity 0
000054t:  Note on ::  Channel 4.  Note 83.  Velocity 127
000000t:  Note on ::  Channel 4.  Note 71.  Velocity 127
000047t:  Note on ::  Channel 4.  Note 71.  Velocity 0
000000t:  Note on ::  Channel 4.  Note 83.  Velocity 0
000049t:  Note on ::  Channel 4.  Note 88.  Velocity 127
000000t:  Note on ::  Channel 4.  Note 76.  Velocity 127
000042t:  Note on ::  Channel 4.  Note 76.  Velocity 0
000000t:  Note on ::  Channel 4.  Note 88.  Velocity 0
000054t:  Note on ::  Channel 4.  Note 76.  Velocity 127
000001t:  Note on ::  Channel 4.  Note 88.  Velocity 127
000047t:  Note on ::  Channel 4.  Note 88.  Velocity 0
000000t:  Note on ::  Channel 4.  Note 76.  Velocity 0
000049t:  Note on ::  Channel 4.  Note 88.  Velocity 127
000000t:  Note on ::  Channel 4.  Note 76.  Velocity 127
000047t:  Note on ::  Channel 4.  Note 76.  Velocity 0
000000t:  Note on ::  Channel 4.  Note 88.  Velocity 0
000001t:  Note on ::  Channel 4.  Note 92.  Velocity 127
000000t:  Note on ::  Channel 4.  Note 80.  Velocity 127
000038t:  Note on ::  Channel 4.  Note 80.  Velocity 0
000000t:  Note on ::  Channel 4.  Note 92.  Velocity 0
000010t:  Note on ::  Channel 4.  Note 80.  Velocity 127
000001t:  Note on ::  Channel 4.  Note 92.  Velocity 127
000041t:  Note on ::  Channel 4.  Note 92.  Velocity 0
000000t:  Note on ::  Channel 4.  Note 80.  Velocity 0
000006t:  Note on ::  Channel 4.  Note 93.  Velocity 127
000000t:  Note on ::  Channel 4.  Note 81.  Velocity 127
000043t:  Note on ::  Channel 4.  Note 81.  Velocity 0
000000t:  Note on ::  Channel 4.  Note 93.  Velocity 0
000005t:  Note on ::  Channel 4.  Note 95.  Velocity 127
000000t:  Note on ::  Channel 4.  Note 83.  Velocity 127
000044t:  Note on ::  Channel 4.  Note 83.  Velocity 0
000000t:  Note on ::  Channel 4.  Note 95.  Velocity 0
000004t:  Note on ::  Channel 4.  Note 78.  Velocity 127
000001t:  Note on ::  Channel 4.  Note 90.  Velocity 127
000034t:  Note on ::  Channel 4.  Note 90.  Velocity 0
000000t:  Note on ::  Channel 4.  Note 78.  Velocity 0
000014t:  Note on ::  Channel 4.  Note 90.  Velocity 127
000000t:  Note on ::  Channel 4.  Note 78.  Velocity 127
000048t:  Note on ::  Channel 4.  Note 78.  Velocity 0
000000t:  Note on ::  Channel 4.  Note 90.  Velocity 0
000000t:  Note on ::  Channel 4.  Note 86.  Velocity 127
000000t:  Note on ::  Channel 4.  Note 74.  Velocity 127
000046t:  Note on ::  Channel 4.  Note 74.  Velocity 0
000000t:  Note on ::  Channel 4.  Note 86.  Velocity 0
000002t:  Note on ::  Channel 4.  Note 71.  Velocity 127
000000t:  Note on ::  Channel 4.  Note 83.  Velocity 127
000042t:  Note on ::  Channel 4.  Note 83.  Velocity 0
000000t:  Note on ::  Channel 4.  Note 71.  Velocity 0
000055t:  Note on ::  Channel 4.  Note 83.  Velocity 127
000000t:  Note on ::  Channel 4.  Note 71.  Velocity 127
000048t:  Note on ::  Channel 4.  Note 71.  Velocity 0
000000t:  Note on ::  Channel 4.  Note 83.  Velocity 0
000048t:  Note on ::  Channel 4.  Note 88.  Velocity 127
000000t:  Note on ::  Channel 4.  Note 76.  Velocity 127
000041t:  Note on ::  Channel 4.  Note 76.  Velocity 0
000000t:  Note on ::  Channel 4.  Note 88.  Velocity 0
000055t:  Note on ::  Channel 4.  Note 76.  Velocity 127
000000t:  Note on ::  Channel 4.  Note 88.  Velocity 127
000048t:  Note on ::  Channel 4.  Note 88.  Velocity 0
000000t:  Note on ::  Channel 4.  Note 76.  Velocity 0
000048t:  Note on ::  Channel 4.  Note 88.  Velocity 127
000000t:  Note on ::  Channel 4.  Note 76.  Velocity 127
000049t:  Note on ::  Channel 4.  Note 76.  Velocity 0
000000t:  Note on ::  Channel 4.  Note 88.  Velocity 0
000000t:  Note on ::  Channel 4.  Note 92.  Velocity 127
000000t:  Note on ::  Channel 4.  Note 80.  Velocity 127
000038t:  Note on ::  Channel 4.  Note 80.  Velocity 0
000000t:  Note on ::  Channel 4.  Note 92.  Velocity 0
000010t:  Note on ::  Channel 4.  Note 80.  Velocity 127
000000t:  Note on ::  Channel 4.  Note 92.  Velocity 127
000041t:  Note on ::  Channel 4.  Note 92.  Velocity 0
000000t:  Note on ::  Channel 4.  Note 80.  Velocity 0
000006t:  Note on ::  Channel 4.  Note 93.  Velocity 127
000000t:  Note on ::  Channel 4.  Note 81.  Velocity 127
000043t:  Note on ::  Channel 4.  Note 81.  Velocity 0
000000t:  Note on ::  Channel 4.  Note 93.  Velocity 0
000006t:  Note on ::  Channel 4.  Note 95.  Velocity 127
000000t:  Note on ::  Channel 4.  Note 83.  Velocity 127
000048t:  Note on ::  Channel 4.  Note 83.  Velocity 0
000000t:  Note on ::  Channel 4.  Note 95.  Velocity 0
000000t:  Note on ::  Channel 4.  Note 81.  Velocity 127
000000t:  Note on ::  Channel 4.  Note 93.  Velocity 127
000037t:  Note on ::  Channel 4.  Note 93.  Velocity 0
000000t:  Note on ::  Channel 4.  Note 81.  Velocity 0
000011t:  Note on ::  Channel 4.  Note 93.  Velocity 127
000000t:  Note on ::  Channel 4.  Note 81.  Velocity 127
000041t:  Note on ::  Channel 4.  Note 81.  Velocity 0
000000t:  Note on ::  Channel 4.  Note 93.  Velocity 0
000007t:  Note on ::  Channel 4.  Note 93.  Velocity 127
000000t:  Note on ::  Channel 4.  Note 81.  Velocity 127
000037t:  Note on ::  Channel 4.  Note 81.  Velocity 0
000000t:  Note on ::  Channel 4.  Note 93.  Velocity 0
000012t:  Note on ::  Channel 4.  Note 76.  Velocity 127
000000t:  Note on ::  Channel 4.  Note 88.  Velocity 127
000040t:  Note on ::  Channel 4.  Note 88.  Velocity 0
000000t:  Note on ::  Channel 4.  Note 76.  Velocity 0
000056t:  Note on ::  Channel 4.  Note 86.  Velocity 127
000001t:  Note on ::  Channel 4.  Note 74.  Velocity 127
000036t:  Note on ::  Channel 4.  Note 74.  Velocity 0
000000t:  Note on ::  Channel 4.  Note 86.  Velocity 0
000059t:  Note on ::  Channel 4.  Note 90.  Velocity 127
000000t:  Note on ::  Channel 4.  Note 78.  Velocity 127
000042t:  Note on ::  Channel 4.  Note 78.  Velocity 0
000000t:  Note on ::  Channel 4.  Note 90.  Velocity 0
000054t:  Note on ::  Channel 4.  Note 78.  Velocity 127
000000t:  Note on ::  Channel 4.  Note 90.  Velocity 127
000042t:  Note on ::  Channel 4.  Note 90.  Velocity 0
000000t:  Note on ::  Channel 4.  Note 78.  Velocity 0
000055t:  Note on ::  Channel 4.  Note 90.  Velocity 127
000000t:  Note on ::  Channel 4.  Note 78.  Velocity 127
000040t:  Note on ::  Channel 4.  Note 78.  Velocity 0
000000t:  Note on ::  Channel 4.  Note 90.  Velocity 0
000008t:  Note on ::  Channel 4.  Note 88.  Velocity 127
000000t:  Note on ::  Channel 4.  Note 76.  Velocity 127
000042t:  Note on ::  Channel 4.  Note 76.  Velocity 0
000000t:  Note on ::  Channel 4.  Note 88.  Velocity 0
000006t:  Note on ::  Channel 4.  Note 76.  Velocity 127
000001t:  Note on ::  Channel 4.  Note 88.  Velocity 127
000042t:  Note on ::  Channel 4.  Note 88.  Velocity 0
000000t:  Note on ::  Channel 4.  Note 76.  Velocity 0
000005t:  Note on ::  Channel 4.  Note 90.  Velocity 127
000000t:  Note on ::  Channel 4.  Note 78.  Velocity 127
000038t:  Note on ::  Channel 4.  Note 78.  Velocity 0
000000t:  Note on ::  Channel 4.  Note 90.  Velocity 0
000010t:  Note on ::  Channel 4.  Note 88.  Velocity 127
000001t:  Note on ::  Channel 4.  Note 76.  Velocity 127
000042t:  Note on ::  Channel 4.  Note 76.  Velocity 0
000000t:  Note on ::  Channel 4.  Note 88.  Velocity 0
000005t:  Note on ::  Channel 4.  Note 78.  Velocity 127
000000t:  Note on ::  Channel 4.  Note 90.  Velocity 127
000039t:  Note on ::  Channel 4.  Note 90.  Velocity 0
000000t:  Note on ::  Channel 4.  Note 78.  Velocity 0
000010t:  Note on ::  Channel 4.  Note 90.  Velocity 127
000000t:  Note on ::  Channel 4.  Note 78.  Velocity 127
000041t:  Note on ::  Channel 4.  Note 78.  Velocity 0
000000t:  Note on ::  Channel 4.  Note 90.  Velocity 0
000006t:  Note on ::  Channel 4.  Note 86.  Velocity 127
000001t:  Note on ::  Channel 4.  Note 74.  Velocity 127
000041t:  Note on ::  Channel 4.  Note 74.  Velocity 0
000000t:  Note on ::  Channel 4.  Note 86.  Velocity 0
000007t:  Note on ::  Channel 4.  Note 71.  Velocity 127
000000t:  Note on ::  Channel 4.  Note 83.  Velocity 127
000035t:  Note on ::  Channel 4.  Note 83.  Velocity 0
000000t:  Note on ::  Channel 4.  Note 71.  Velocity 0
000062t:  Note on ::  Channel 4.  Note 83.  Velocity 127
000000t:  Note on ::  Channel 4.  Note 71.  Velocity 127
000042t:  Note on ::  Channel 4.  Note 71.  Velocity 0
000000t:  Note on ::  Channel 4.  Note 83.  Velocity 0
000054t:  Note on ::  Channel 4.  Note 88.  Velocity 127
000000t:  Note on ::  Channel 4.  Note 76.  Velocity 127
000045t:  Note on ::  Channel 4.  Note 76.  Velocity 0
000000t:  Note on ::  Channel 4.  Note 88.  Velocity 0
000051t:  Note on ::  Channel 4.  Note 76.  Velocity 127
000000t:  Note on ::  Channel 4.  Note 88.  Velocity 127
000048t:  Note on ::  Channel 4.  Note 88.  Velocity 0
000000t:  Note on ::  Channel 4.  Note 76.  Velocity 0
000048t:  Note on ::  Channel 4.  Note 88.  Velocity 127
000000t:  Note on ::  Channel 4.  Note 76.  Velocity 127
000046t:  Note on ::  Channel 4.  Note 76.  Velocity 0
000000t:  Note on ::  Channel 4.  Note 88.  Velocity 0
000002t:  Note on ::  Channel 4.  Note 92.  Velocity 127
000001t:  Note on ::  Channel 4.  Note 80.  Velocity 127
000040t:  Note on ::  Channel 4.  Note 80.  Velocity 0
000000t:  Note on ::  Channel 4.  Note 92.  Velocity 0
000008t:  Note on ::  Channel 4.  Note 80.  Velocity 127
000000t:  Note on ::  Channel 4.  Note 92.  Velocity 127
000039t:  Note on ::  Channel 4.  Note 92.  Velocity 0
000000t:  Note on ::  Channel 4.  Note 80.  Velocity 0
000008t:  Note on ::  Channel 4.  Note 93.  Velocity 127
000000t:  Note on ::  Channel 4.  Note 81.  Velocity 127
000039t:  Note on ::  Channel 4.  Note 81.  Velocity 0
000000t:  Note on ::  Channel 4.  Note 93.  Velocity 0
000010t:  Note on ::  Channel 4.  Note 95.  Velocity 127
000000t:  Note on ::  Channel 4.  Note 83.  Velocity 127
000040t:  Note on ::  Channel 4.  Note 83.  Velocity 0
000000t:  Note on ::  Channel 4.  Note 95.  Velocity 0
000007t:  Note on ::  Channel 4.  Note 81.  Velocity 127
000000t:  Note on ::  Channel 4.  Note 93.  Velocity 127
000035t:  Note on ::  Channel 4.  Note 93.  Velocity 0
000000t:  Note on ::  Channel 4.  Note 81.  Velocity 0
000014t:  Note on ::  Channel 4.  Note 93.  Velocity 127
000000t:  Note on ::  Channel 4.  Note 81.  Velocity 127
000038t:  Note on ::  Channel 4.  Note 81.  Velocity 0
000000t:  Note on ::  Channel 4.  Note 93.  Velocity 0
000010t:  Note on ::  Channel 4.  Note 93.  Velocity 127
000000t:  Note on ::  Channel 4.  Note 81.  Velocity 127
000028t:  Note on ::  Channel 4.  Note 81.  Velocity 0
000000t:  Note on ::  Channel 4.  Note 93.  Velocity 0
000020t:  Note on ::  Channel 4.  Note 76.  Velocity 127
000001t:  Note on ::  Channel 4.  Note 88.  Velocity 127
000031t:  Note on ::  Channel 4.  Note 88.  Velocity 0
000000t:  Note on ::  Channel 4.  Note 76.  Velocity 0
000065t:  Note on ::  Channel 4.  Note 86.  Velocity 127
000000t:  Note on ::  Channel 4.  Note 74.  Velocity 127
000026t:  Note on ::  Channel 4.  Note 74.  Velocity 0
000000t:  Note on ::  Channel 4.  Note 86.  Velocity 0
000070t:  Note on ::  Channel 4.  Note 90.  Velocity 127
000000t:  Note on ::  Channel 4.  Note 78.  Velocity 127
000033t:  Note on ::  Channel 4.  Note 78.  Velocity 0
000000t:  Note on ::  Channel 4.  Note 90.  Velocity 0
000063t:  Note on ::  Channel 4.  Note 78.  Velocity 127
000000t:  Note on ::  Channel 4.  Note 90.  Velocity 127
000039t:  Note on ::  Channel 4.  Note 90.  Velocity 0
000000t:  Note on ::  Channel 4.  Note 78.  Velocity 0
000057t:  Note on ::  Channel 4.  Note 90.  Velocity 127
000000t:  Note on ::  Channel 4.  Note 78.  Velocity 127
000041t:  Note on ::  Channel 4.  Note 78.  Velocity 0
000000t:  Note on ::  Channel 4.  Note 90.  Velocity 0
000008t:  Note on ::  Channel 4.  Note 88.  Velocity 127
000000t:  Note on ::  Channel 4.  Note 76.  Velocity 127
000037t:  Note on ::  Channel 4.  Note 76.  Velocity 0
000000t:  Note on ::  Channel 4.  Note 88.  Velocity 0
000011t:  Note on ::  Channel 4.  Note 76.  Velocity 127
000000t:  Note on ::  Channel 4.  Note 88.  Velocity 127
000047t:  Note on ::  Channel 4.  Note 88.  Velocity 0
000000t:  Note on ::  Channel 4.  Note 76.  Velocity 0
000001t:  Note on ::  Channel 4.  Note 90.  Velocity 127
000000t:  Note on ::  Channel 4.  Note 78.  Velocity 127
000041t:  Note on ::  Channel 4.  Note 78.  Velocity 0
000000t:  Note on ::  Channel 4.  Note 90.  Velocity 0
000007t:  Note on ::  Channel 4.  Note 88.  Velocity 127
000000t:  Note on ::  Channel 4.  Note 76.  Velocity 127
000043t:  Note on ::  Channel 4.  Note 76.  Velocity 0
000000t:  Note on ::  Channel 4.  Note 88.  Velocity 0
000005t:  Note on ::  Channel 4.  Note 78.  Velocity 127
000000t:  Note on ::  Channel 4.  Note 90.  Velocity 127
000034t:  Note on ::  Channel 4.  Note 78.  Velocity 0
000001t:  Note on ::  Channel 4.  Note 90.  Velocity 0
000013t:  Note on ::  Channel 4.  Note 90.  Velocity 127
000000t:  Note on ::  Channel 4.  Note 78.  Velocity 127
000048t:  Note on ::  Channel 4.  Note 78.  Velocity 0
000000t:  Note on ::  Channel 4.  Note 90.  Velocity 0
000001t:  Note on ::  Channel 4.  Note 86.  Velocity 127
000000t:  Note on ::  Channel 4.  Note 74.  Velocity 127
000046t:  Note on ::  Channel 4.  Note 74.  Velocity 0
000000t:  Note on ::  Channel 4.  Note 86.  Velocity 0
000002t:  Note on ::  Channel 4.  Note 71.  Velocity 127
000000t:  Note on ::  Channel 4.  Note 83.  Velocity 127
000041t:  Note on ::  Channel 4.  Note 83.  Velocity 0
000000t:  Note on ::  Channel 4.  Note 71.  Velocity 0
000055t:  Note on ::  Channel 4.  Note 83.  Velocity 127
000001t:  Note on ::  Channel 4.  Note 71.  Velocity 127
000048t:  Note on ::  Channel 4.  Note 71.  Velocity 0
000000t:  Note on ::  Channel 4.  Note 83.  Velocity 0
000047t:  Note on ::  Channel 4.  Note 88.  Velocity 127
000000t:  Note on ::  Channel 4.  Note 76.  Velocity 127
000042t:  Note on ::  Channel 4.  Note 76.  Velocity 0
000000t:  Note on ::  Channel 4.  Note 88.  Velocity 0
000055t:  Note on ::  Channel 4.  Note 76.  Velocity 127
000000t:  Note on ::  Channel 4.  Note 88.  Velocity 127
000047t:  Note on ::  Channel 4.  Note 88.  Velocity 0
000000t:  Note on ::  Channel 4.  Note 76.  Velocity 0
000049t:  Note on ::  Channel 4.  Note 88.  Velocity 127
000000t:  Note on ::  Channel 4.  Note 76.  Velocity 127
000048t:  Note on ::  Channel 4.  Note 76.  Velocity 0
000000t:  Note on ::  Channel 4.  Note 88.  Velocity 0
000001t:  Note on ::  Channel 4.  Note 92.  Velocity 127
000000t:  Note on ::  Channel 4.  Note 80.  Velocity 127
000037t:  Note on ::  Channel 4.  Note 80.  Velocity 0
000000t:  Note on ::  Channel 4.  Note 92.  Velocity 0
000010t:  Note on ::  Channel 4.  Note 80.  Velocity 127
000001t:  Note on ::  Channel 4.  Note 92.  Velocity 127
000041t:  Note on ::  Channel 4.  Note 92.  Velocity 0
000000t:  Note on ::  Channel 4.  Note 80.  Velocity 0
000006t:  Note on ::  Channel 4.  Note 93.  Velocity 127
000000t:  Note on ::  Channel 4.  Note 81.  Velocity 127
000043t:  Note on ::  Channel 4.  Note 81.  Velocity 0
000000t:  Note on ::  Channel 4.  Note 93.  Velocity 0
000005t:  Note on ::  Channel 4.  Note 95.  Velocity 127
000000t:  Note on ::  Channel 4.  Note 83.  Velocity 127
000048t:  Note on ::  Channel 4.  Note 83.  Velocity 0
000000t:  Note on ::  Channel 4.  Note 95.  Velocity 0
000001t:  Note on ::  Channel 4.  Note 81.  Velocity 127
000000t:  Note on ::  Channel 4.  Note 93.  Velocity 127
000038t:  Note on ::  Channel 4.  Note 93.  Velocity 0
000000t:  Note on ::  Channel 4.  Note 81.  Velocity 0
000010t:  Note on ::  Channel 4.  Note 93.  Velocity 127
000000t:  Note on ::  Channel 4.  Note 81.  Velocity 127
000040t:  Note on ::  Channel 4.  Note 81.  Velocity 0
000000t:  Note on ::  Channel 4.  Note 93.  Velocity 0
000007t:  Note on ::  Channel 4.  Note 93.  Velocity 127
000000t:  Note on ::  Channel 4.  Note 81.  Velocity 127
000039t:  Note on ::  Channel 4.  Note 81.  Velocity 0
000000t:  Note on ::  Channel 4.  Note 93.  Velocity 0
000010t:  Note on ::  Channel 4.  Note 78.  Velocity 127
000000t:  Note on ::  Channel 4.  Note 90.  Velocity 127
000040t:  Note on ::  Channel 4.  Note 78.  Velocity 0
000001t:  Note on ::  Channel 4.  Note 90.  Velocity 0
000056t:  Note on ::  Channel 4.  Note 86.  Velocity 127
000000t:  Note on ::  Channel 4.  Note 74.  Velocity 127
000037t:  Note on ::  Channel 4.  Note 74.  Velocity 0
000000t:  Note on ::  Channel 4.  Note 86.  Velocity 0
000059t:  Note on ::  Channel 4.  Note 90.  Velocity 127
000000t:  Note on ::  Channel 4.  Note 78.  Velocity 127
000041t:  Note on ::  Channel 4.  Note 78.  Velocity 0
000000t:  Note on ::  Channel 4.  Note 90.  Velocity 0
000055t:  Note on ::  Channel 4.  Note 78.  Velocity 127
000000t:  Note on ::  Channel 4.  Note 90.  Velocity 127
000042t:  Note on ::  Channel 4.  Note 90.  Velocity 0
000000t:  Note on ::  Channel 4.  Note 78.  Velocity 0
000054t:  Note on ::  Channel 4.  Note 90.  Velocity 127
000000t:  Note on ::  Channel 4.  Note 78.  Velocity 127
000040t:  Note on ::  Channel 4.  Note 78.  Velocity 0
000000t:  Note on ::  Channel 4.  Note 90.  Velocity 0
000008t:  Note on ::  Channel 4.  Note 88.  Velocity 127
000000t:  Note on ::  Channel 4.  Note 76.  Velocity 127
000043t:  Note on ::  Channel 4.  Note 76.  Velocity 0
000000t:  Note on ::  Channel 4.  Note 88.  Velocity 0
000006t:  Note on ::  Channel 4.  Note 76.  Velocity 127
000000t:  Note on ::  Channel 4.  Note 88.  Velocity 127
000042t:  Note on ::  Channel 4.  Note 88.  Velocity 0
000000t:  Note on ::  Channel 4.  Note 76.  Velocity 0
000005t:  Note on ::  Channel 4.  Note 76.  Velocity 127
000001t:  Note on ::  Channel 4.  Note 88.  Velocity 127
000038t:  Note on ::  Channel 4.  Note 88.  Velocity 0
000000t:  Note on ::  Channel 4.  Note 76.  Velocity 0
016649t:  Control change ::  Channel 4.  Controller 7.  Value: 69
000011t:  Control change ::  Channel 4.  Controller 7.  Value: 68
000011t:  Control change ::  Channel 4.  Controller 7.  Value: 67
000004t:  Control change ::  Channel 4.  Controller 7.  Value: 66
000011t:  Control change ::  Channel 4.  Controller 7.  Value: 65
000028t:  Control change ::  Channel 4.  Controller 7.  Value: 64
000015t:  Control change ::  Channel 4.  Controller 7.  Value: 63
000047t:  Control change ::  Channel 4.  Controller 7.  Value: 62
000064t:  Control change ::  Channel 4.  Controller 7.  Value: 61
000023t:  Control change ::  Channel 4.  Controller 7.  Value: 60
000033t:  Control change ::  Channel 4.  Controller 7.  Value: 59
000031t:  Control change ::  Channel 4.  Controller 7.  Value: 58
000043t:  Control change ::  Channel 4.  Controller 7.  Value: 57
000038t:  Control change ::  Channel 4.  Controller 7.  Value: 56
000028t:  Control change ::  Channel 4.  Controller 7.  Value: 55
000014t:  Control change ::  Channel 4.  Controller 7.  Value: 54
000022t:  Control change ::  Channel 4.  Controller 7.  Value: 53
000057t:  Control change ::  Channel 4.  Controller 7.  Value: 52
000029t:  Control change ::  Channel 4.  Controller 7.  Value: 51
000027t:  Control change ::  Channel 4.  Controller 7.  Value: 50
000009t:  Control change ::  Channel 4.  Controller 7.  Value: 49
000019t:  Control change ::  Channel 4.  Controller 7.  Value: 48
000044t:  Control change ::  Channel 4.  Controller 7.  Value: 47
000017t:  Control change ::  Channel 4.  Controller 7.  Value: 46
000023t:  Control change ::  Channel 4.  Controller 7.  Value: 45
000018t:  Control change ::  Channel 4.  Controller 7.  Value: 44
000013t:  Control change ::  Channel 4.  Controller 7.  Value: 43
000041t:  Control change ::  Channel 4.  Controller 7.  Value: 42
000011t:  Control change ::  Channel 4.  Controller 7.  Value: 41
000011t:  Control change ::  Channel 4.  Controller 7.  Value: 40
000024t:  Control change ::  Channel 4.  Controller 7.  Value: 39
000017t:  Control change ::  Channel 4.  Controller 7.  Value: 38
000010t:  Control change ::  Channel 4.  Controller 7.  Value: 37
000018t:  Control change ::  Channel 4.  Controller 7.  Value: 36
000046t:  Control change ::  Channel 4.  Controller 7.  Value: 35
000019t:  Control change ::  Channel 4.  Controller 7.  Value: 34
000026t:  Control change ::  Channel 4.  Controller 7.  Value: 33
000024t:  Control change ::  Channel 4.  Controller 7.  Value: 32
000026t:  Control change ::  Channel 4.  Controller 7.  Value: 31
000029t:  Control change ::  Channel 4.  Controller 7.  Value: 30
000028t:  Control change ::  Channel 4.  Controller 7.  Value: 29
000012t:  Control change ::  Channel 4.  Controller 7.  Value: 28
000036t:  Control change ::  Channel 4.  Controller 7.  Value: 27
000019t:  Control change ::  Channel 4.  Controller 7.  Value: 26
000014t:  Control change ::  Channel 4.  Controller 7.  Value: 25
000007t:  Control change ::  Channel 4.  Controller 7.  Value: 24
000025t:  Control change ::  Channel 4.  Controller 7.  Value: 23
000008t:  Control change ::  Channel 4.  Controller 7.  Value: 22
000011t:  Control change ::  Channel 4.  Controller 7.  Value: 21
000008t:  Control change ::  Channel 4.  Controller 7.  Value: 20
000011t:  Control change ::  Channel 4.  Controller 7.  Value: 19
000006t:  Control change ::  Channel 4.  Controller 7.  Value: 18
000008t:  Control change ::  Channel 4.  Controller 7.  Value: 17
000025t:  Control change ::  Channel 4.  Controller 7.  Value: 16
000019t:  Control change ::  Channel 4.  Controller 7.  Value: 15
000018t:  Control change ::  Channel 4.  Controller 7.  Value: 14
000010t:  Control change ::  Channel 4.  Controller 7.  Value: 13
000015t:  Control change ::  Channel 4.  Controller 7.  Value: 12
000033t:  Control change ::  Channel 4.  Controller 7.  Value: 11
000012t:  Control change ::  Channel 4.  Controller 7.  Value: 10
000007t:  Control change ::  Channel 4.  Controller 7.  Value: 9
000035t:  Control change ::  Channel 4.  Controller 7.  Value: 8
000004t:  Control change ::  Channel 4.  Controller 7.  Value: 7
000004t:  Control change ::  Channel 4.  Controller 7.  Value: 6
000004t:  Control change ::  Channel 4.  Controller 7.  Value: 5
000007t:  Control change ::  Channel 4.  Controller 7.  Value: 4
000008t:  Control change ::  Channel 4.  Controller 7.  Value: 3
000043t:  Control change ::  Channel 4.  Controller 7.  Value: 2
000016t:  Control change ::  Channel 4.  Controller 7.  Value: 1
000010t:  Control change ::  Channel 4.  Controller 7.  Value: 0
000455t:  Control change ::  Channel 4.  Controller 7.  Value: 69
000000t:  Program (patch) change ::  Channel 4.  Patch 44 (Tremolo Strings)
000347t:  Control change ::  Channel 4.  Controller 64.  Value: 0
000002t:  Pitch wheel change ::  Channel 4.   -8192
000000t:  Meta-event type $2f (End-track event) of length 0
Sigma t = 60795

Track chunk of 2114 bytes
000000t:  Meta-event type $21 (?) of length 1
	  _
000000t:  Meta-event type $03 (Track name) of length 20
	  Harpsichord 2       
000000t:  Program (patch) change ::  Channel 5.  Patch 6 (Harpsichord)
000000t:  Control change ::  Channel 5.  Controller 7.  Value: 104
000000t:  Control change ::  Channel 5.  Controller 10.  Value: 95
008060t:  Note on ::  Channel 5.  Note 90.  Velocity 127
000000t:  Note on ::  Channel 5.  Note 78.  Velocity 127
000327t:  Note on ::  Channel 5.  Note 78.  Velocity 0
000012t:  Note on ::  Channel 5.  Note 90.  Velocity 0
000046t:  Note on ::  Channel 5.  Note 80.  Velocity 127
000000t:  Note on ::  Channel 5.  Note 92.  Velocity 127
000367t:  Note on ::  Channel 5.  Note 80.  Velocity 0
000011t:  Note on ::  Channel 5.  Note 92.  Velocity 0
000007t:  Note on ::  Channel 5.  Note 81.  Velocity 127
000000t:  Note on ::  Channel 5.  Note 93.  Velocity 127
000334t:  Note on ::  Channel 5.  Note 81.  Velocity 0
000014t:  Note on ::  Channel 5.  Note 93.  Velocity 0
000037t:  Note on ::  Channel 5.  Note 83.  Velocity 127
000001t:  Note on ::  Channel 5.  Note 95.  Velocity 127
000380t:  Note on ::  Channel 5.  Note 95.  Velocity 0
000000t:  Note on ::  Channel 5.  Note 83.  Velocity 0
000004t:  Note on ::  Channel 5.  Note 47.  Velocity 127
000011t:  Note on ::  Channel 5.  Note 47.  Velocity 0
000037t:  Note on ::  Channel 5.  Note 47.  Velocity 127
000011t:  Note on ::  Channel 5.  Note 47.  Velocity 0
000038t:  Note on ::  Channel 5.  Note 50.  Velocity 127
000010t:  Note on ::  Channel 5.  Note 50.  Velocity 0
000037t:  Note on ::  Channel 5.  Note 54.  Velocity 127
000012t:  Note on ::  Channel 5.  Note 54.  Velocity 0
000038t:  Note on ::  Channel 5.  Note 59.  Velocity 127
000009t:  Note on ::  Channel 5.  Note 59.  Velocity 0
000038t:  Note on ::  Channel 5.  Note 54.  Velocity 127
000011t:  Note on ::  Channel 5.  Note 54.  Velocity 0
000038t:  Note on ::  Channel 5.  Note 50.  Velocity 127
000009t:  Note on ::  Channel 5.  Note 50.  Velocity 0
000038t:  Note on ::  Channel 5.  Note 47.  Velocity 127
000011t:  Note on ::  Channel 5.  Note 47.  Velocity 0
000038t:  Note on ::  Channel 5.  Note 52.  Velocity 127
000010t:  Note on ::  Channel 5.  Note 52.  Velocity 0
000037t:  Note on ::  Channel 5.  Note 52.  Velocity 127
000012t:  Note on ::  Channel 5.  Note 52.  Velocity 0
000037t:  Note on ::  Channel 5.  Note 56.  Velocity 127
000010t:  Note on ::  Channel 5.  Note 56.  Velocity 0
000037t:  Note on ::  Channel 5.  Note 59.  Velocity 127
000012t:  Note on ::  Channel 5.  Note 59.  Velocity 0
000038t:  Note on ::  Channel 5.  Note 64.  Velocity 127
000009t:  Note on ::  Channel 5.  Note 64.  Velocity 0
000038t:  Note on ::  Channel 5.  Note 59.  Velocity 127
000011t:  Note on ::  Channel 5.  Note 59.  Velocity 0
000038t:  Note on ::  Channel 5.  Note 56.  Velocity 127
000010t:  Note on ::  Channel 5.  Note 56.  Velocity 0
000037t:  Note on ::  Channel 5.  Note 52.  Velocity 127
000011t:  Note on ::  Channel 5.  Note 52.  Velocity 0
000038t:  Note on ::  Channel 5.  Note 45.  Velocity 127
000010t:  Note on ::  Channel 5.  Note 45.  Velocity 0
000037t:  Note on ::  Channel 5.  Note 45.  Velocity 127
000012t:  Note on ::  Channel 5.  Note 45.  Velocity 0
000037t:  Note on ::  Channel 5.  Note 49.  Velocity 127
000010t:  Note on ::  Channel 5.  Note 49.  Velocity 0
000038t:  Note on ::  Channel 5.  Note 52.  Velocity 127
000011t:  Note on ::  Channel 5.  Note 52.  Velocity 0
000038t:  Note on ::  Channel 5.  Note 57.  Velocity 127
000010t:  Note on ::  Channel 5.  Note 57.  Velocity 0
000037t:  Note on ::  Channel 5.  Note 52.  Velocity 127
000011t:  Note on ::  Channel 5.  Note 52.  Velocity 0
000038t:  Note on ::  Channel 5.  Note 49.  Velocity 127
000010t:  Note on ::  Channel 5.  Note 49.  Velocity 0
000037t:  Note on ::  Channel 5.  Note 45.  Velocity 127
000012t:  Note on ::  Channel 5.  Note 45.  Velocity 0
000037t:  Note on ::  Channel 5.  Note 45.  Velocity 127
000010t:  Note on ::  Channel 5.  Note 45.  Velocity 0
000037t:  Note on ::  Channel 5.  Note 45.  Velocity 127
000012t:  Note on ::  Channel 5.  Note 45.  Velocity 0
000037t:  Note on ::  Channel 5.  Note 50.  Velocity 127
000010t:  Note on ::  Channel 5.  Note 50.  Velocity 0
000038t:  Note on ::  Channel 5.  Note 54.  Velocity 127
000011t:  Note on ::  Channel 5.  Note 54.  Velocity 0
000038t:  Note on ::  Channel 5.  Note 57.  Velocity 127
000010t:  Note on ::  Channel 5.  Note 57.  Velocity 0
000037t:  Note on ::  Channel 5.  Note 54.  Velocity 127
000012t:  Note on ::  Channel 5.  Note 54.  Velocity 0
000037t:  Note on ::  Channel 5.  Note 50.  Velocity 127
000010t:  Note on ::  Channel 5.  Note 50.  Velocity 0
000037t:  Note on ::  Channel 5.  Note 45.  Velocity 127
000012t:  Note on ::  Channel 5.  Note 45.  Velocity 0
000037t:  Note on ::  Channel 5.  Note 47.  Velocity 127
000010t:  Note on ::  Channel 5.  Note 47.  Velocity 0
000037t:  Note on ::  Channel 5.  Note 47.  Velocity 127
000012t:  Note on ::  Channel 5.  Note 47.  Velocity 0
000037t:  Note on ::  Channel 5.  Note 50.  Velocity 127
000011t:  Note on ::  Channel 5.  Note 50.  Velocity 0
000037t:  Note on ::  Channel 5.  Note 54.  Velocity 127
000011t:  Note on ::  Channel 5.  Note 54.  Velocity 0
000039t:  Note on ::  Channel 5.  Note 59.  Velocity 127
000009t:  Note on ::  Channel 5.  Note 59.  Velocity 0
000038t:  Note on ::  Channel 5.  Note 54.  Velocity 127
000011t:  Note on ::  Channel 5.  Note 54.  Velocity 0
000037t:  Note on ::  Channel 5.  Note 50.  Velocity 127
000010t:  Note on ::  Channel 5.  Note 50.  Velocity 0
000037t:  Note on ::  Channel 5.  Note 47.  Velocity 127
000012t:  Note on ::  Channel 5.  Note 47.  Velocity 0
000038t:  Note on ::  Channel 5.  Note 52.  Velocity 127
000009t:  Note on ::  Channel 5.  Note 52.  Velocity 0
000038t:  Note on ::  Channel 5.  Note 52.  Velocity 127
000011t:  Note on ::  Channel 5.  Note 52.  Velocity 0
000038t:  Note on ::  Channel 5.  Note 56.  Velocity 127
000010t:  Note on ::  Channel 5.  Note 56.  Velocity 0
000037t:  Note on ::  Channel 5.  Note 59.  Velocity 127
000012t:  Note on ::  Channel 5.  Note 59.  Velocity 0
000037t:  Note on ::  Channel 5.  Note 64.  Velocity 127
000010t:  Note on ::  Channel 5.  Note 64.  Velocity 0
000037t:  Note on ::  Channel 5.  Note 59.  Velocity 127
000012t:  Note on ::  Channel 5.  Note 59.  Velocity 0
000037t:  Note on ::  Channel 5.  Note 56.  Velocity 127
000010t:  Note on ::  Channel 5.  Note 56.  Velocity 0
000037t:  Note on ::  Channel 5.  Note 52.  Velocity 127
000012t:  Note on ::  Channel 5.  Note 52.  Velocity 0
000038t:  Note on ::  Channel 5.  Note 45.  Velocity 127
000010t:  Note on ::  Channel 5.  Note 45.  Velocity 0
000037t:  Note on ::  Channel 5.  Note 45.  Velocity 127
000011t:  Note on ::  Channel 5.  Note 45.  Velocity 0
000038t:  Note on ::  Channel 5.  Note 49.  Velocity 127
000010t:  Note on ::  Channel 5.  Note 49.  Velocity 0
000037t:  Note on ::  Channel 5.  Note 52.  Velocity 127
000012t:  Note on ::  Channel 5.  Note 52.  Velocity 0
000038t:  Note on ::  Channel 5.  Note 57.  Velocity 127
000009t:  Note on ::  Channel 5.  Note 57.  Velocity 0
000038t:  Note on ::  Channel 5.  Note 52.  Velocity 127
000011t:  Note on ::  Channel 5.  Note 52.  Velocity 0
000038t:  Note on ::  Channel 5.  Note 49.  Velocity 127
000010t:  Note on ::  Channel 5.  Note 49.  Velocity 0
000037t:  Note on ::  Channel 5.  Note 45.  Velocity 127
000011t:  Note on ::  Channel 5.  Note 45.  Velocity 0
000038t:  Note on ::  Channel 5.  Note 45.  Velocity 127
000010t:  Note on ::  Channel 5.  Note 45.  Velocity 0
000037t:  Note on ::  Channel 5.  Note 45.  Velocity 127
000012t:  Note on ::  Channel 5.  Note 45.  Velocity 0
000037t:  Note on ::  Channel 5.  Note 50.  Velocity 127
000010t:  Note on ::  Channel 5.  Note 50.  Velocity 0
000037t:  Note on ::  Channel 5.  Note 54.  Velocity 127
000012t:  Note on ::  Channel 5.  Note 54.  Velocity 0
000038t:  Note on ::  Channel 5.  Note 57.  Velocity 127
000009t:  Note on ::  Channel 5.  Note 57.  Velocity 0
000038t:  Note on ::  Channel 5.  Note 54.  Velocity 127
000011t:  Note on ::  Channel 5.  Note 54.  Velocity 0
000038t:  Note on ::  Channel 5.  Note 50.  Velocity 127
000010t:  Note on ::  Channel 5.  Note 50.  Velocity 0
000037t:  Note on ::  Channel 5.  Note 45.  Velocity 127
000012t:  Note on ::  Channel 5.  Note 45.  Velocity 0
000037t:  Note on ::  Channel 5.  Note 47.  Velocity 127
000010t:  Note on ::  Channel 5.  Note 47.  Velocity 0
000037t:  Note on ::  Channel 5.  Note 47.  Velocity 127
000012t:  Note on ::  Channel 5.  Note 47.  Velocity 0
000037t:  Note on ::  Channel 5.  Note 50.  Velocity 127
000010t:  Note on ::  Channel 5.  Note 50.  Velocity 0
000037t:  Note on ::  Channel 5.  Note 54.  Velocity 127
000012t:  Note on ::  Channel 5.  Note 54.  Velocity 0
000038t:  Note on ::  Channel 5.  Note 59.  Velocity 127
000010t:  Note on ::  Channel 5.  Note 59.  Velocity 0
000037t:  Note on ::  Channel 5.  Note 54.  Velocity 127
000011t:  Note on ::  Channel 5.  Note 54.  Velocity 0
000038t:  Note on ::  Channel 5.  Note 50.  Velocity 127
000010t:  Note on ::  Channel 5.  Note 50.  Velocity 0
000037t:  Note on ::  Channel 5.  Note 47.  Velocity 127
000012t:  Note on ::  Channel 5.  Note 47.  Velocity 0
000037t:  Note on ::  Channel 5.  Note 52.  Velocity 127
000010t:  Note on ::  Channel 5.  Note 52.  Velocity 0
000037t:  Note on ::  Channel 5.  Note 52.  Velocity 127
000012t:  Note on ::  Channel 5.  Note 52.  Velocity 0
000037t:  Note on ::  Channel 5.  Note 56.  Velocity 127
000010t:  Note on ::  Channel 5.  Note 56.  Velocity 0
000038t:  Note on ::  Channel 5.  Note 59.  Velocity 127
000011t:  Note on ::  Channel 5.  Note 59.  Velocity 0
000038t:  Note on ::  Channel 5.  Note 64.  Velocity 127
000010t:  Note on ::  Channel 5.  Note 64.  Velocity 0
000037t:  Note on ::  Channel 5.  Note 59.  Velocity 127
000012t:  Note on ::  Channel 5.  Note 59.  Velocity 0
000037t:  Note on ::  Channel 5.  Note 56.  Velocity 127
000010t:  Note on ::  Channel 5.  Note 56.  Velocity 0
000037t:  Note on ::  Channel 5.  Note 52.  Velocity 127
000012t:  Note on ::  Channel 5.  Note 52.  Velocity 0
000037t:  Note on ::  Channel 5.  Note 54.  Velocity 127
000010t:  Note on ::  Channel 5.  Note 54.  Velocity 0
000037t:  Note on ::  Channel 5.  Note 54.  Velocity 127
000012t:  Note on ::  Channel 5.  Note 54.  Velocity 0
000038t:  Note on ::  Channel 5.  Note 57.  Velocity 127
000010t:  Note on ::  Channel 5.  Note 57.  Velocity 0
000037t:  Note on ::  Channel 5.  Note 61.  Velocity 127
000012t:  Note on ::  Channel 5.  Note 61.  Velocity 0
000038t:  Note on ::  Channel 5.  Note 66.  Velocity 127
000009t:  Note on ::  Channel 5.  Note 66.  Velocity 0
000038t:  Note on ::  Channel 5.  Note 61.  Velocity 127
000011t:  Note on ::  Channel 5.  Note 61.  Velocity 0
000038t:  Note on ::  Channel 5.  Note 57.  Velocity 127
000009t:  Note on ::  Channel 5.  Note 57.  Velocity 0
000038t:  Note on ::  Channel 5.  Note 54.  Velocity 127
000011t:  Note on ::  Channel 5.  Note 54.  Velocity 0
000038t:  Note on ::  Channel 5.  Note 50.  Velocity 127
000010t:  Note on ::  Channel 5.  Note 50.  Velocity 0
000037t:  Note on ::  Channel 5.  Note 50.  Velocity 127
000011t:  Note on ::  Channel 5.  Note 50.  Velocity 0
000038t:  Note on ::  Channel 5.  Note 54.  Velocity 127
000010t:  Note on ::  Channel 5.  Note 54.  Velocity 0
000037t:  Note on ::  Channel 5.  Note 57.  Velocity 127
000012t:  Note on ::  Channel 5.  Note 57.  Velocity 0
000038t:  Note on ::  Channel 5.  Note 62.  Velocity 127
000009t:  Note on ::  Channel 5.  Note 62.  Velocity 0
000037t:  Note on ::  Channel 5.  Note 57.  Velocity 127
000012t:  Note on ::  Channel 5.  Note 57.  Velocity 0
000037t:  Note on ::  Channel 5.  Note 54.  Velocity 127
000010t:  Note on ::  Channel 5.  Note 54.  Velocity 0
000038t:  Note on ::  Channel 5.  Note 50.  Velocity 127
000011t:  Note on ::  Channel 5.  Note 50.  Velocity 0
006201t:  Note on ::  Channel 5.  Note 47.  Velocity 127
000010t:  Note on ::  Channel 5.  Note 47.  Velocity 0
000038t:  Note on ::  Channel 5.  Note 47.  Velocity 127
000010t:  Note on ::  Channel 5.  Note 47.  Velocity 0
000038t:  Note on ::  Channel 5.  Note 50.  Velocity 127
000010t:  Note on ::  Channel 5.  Note 50.  Velocity 0
000039t:  Note on ::  Channel 5.  Note 54.  Velocity 127
000010t:  Note on ::  Channel 5.  Note 54.  Velocity 0
000038t:  Note on ::  Channel 5.  Note 59.  Velocity 127
000009t:  Note on ::  Channel 5.  Note 59.  Velocity 0
000039t:  Note on ::  Channel 5.  Note 54.  Velocity 127
000010t:  Note on ::  Channel 5.  Note 54.  Velocity 0
000038t:  Note on ::  Channel 5.  Note 50.  Velocity 127
000010t:  Note on ::  Channel 5.  Note 50.  Velocity 0
000038t:  Note on ::  Channel 5.  Note 47.  Velocity 127
000010t:  Note on ::  Channel 5.  Note 47.  Velocity 0
000038t:  Note on ::  Channel 5.  Note 52.  Velocity 127
000010t:  Note on ::  Channel 5.  Note 52.  Velocity 0
000038t:  Note on ::  Channel 5.  Note 52.  Velocity 127
000011t:  Note on ::  Channel 5.  Note 52.  Velocity 0
000037t:  Note on ::  Channel 5.  Note 56.  Velocity 127
000010t:  Note on ::  Channel 5.  Note 56.  Velocity 0
000039t:  Note on ::  Channel 5.  Note 59.  Velocity 127
000010t:  Note on ::  Channel 5.  Note 59.  Velocity 0
000038t:  Note on ::  Channel 5.  Note 64.  Velocity 127
000009t:  Note on ::  Channel 5.  Note 64.  Velocity 0
000039t:  Note on ::  Channel 5.  Note 59.  Velocity 127
000010t:  Note on ::  Channel 5.  Note 59.  Velocity 0
000037t:  Note on ::  Channel 5.  Note 56.  Velocity 127
000011t:  Note on ::  Channel 5.  Note 56.  Velocity 0
000038t:  Note on ::  Channel 5.  Note 52.  Velocity 127
000010t:  Note on ::  Channel 5.  Note 52.  Velocity 0
000038t:  Note on ::  Channel 5.  Note 45.  Velocity 127
000010t:  Note on ::  Channel 5.  Note 45.  Velocity 0
000039t:  Note on ::  Channel 5.  Note 45.  Velocity 127
000010t:  Note on ::  Channel 5.  Note 45.  Velocity 0
000037t:  Note on ::  Channel 5.  Note 49.  Velocity 127
000010t:  Note on ::  Channel 5.  Note 49.  Velocity 0
000039t:  Note on ::  Channel 5.  Note 52.  Velocity 127
000010t:  Note on ::  Channel 5.  Note 52.  Velocity 0
000038t:  Note on ::  Channel 5.  Note 57.  Velocity 127
000010t:  Note on ::  Channel 5.  Note 57.  Velocity 0
000039t:  Note on ::  Channel 5.  Note 52.  Velocity 127
000009t:  Note on ::  Channel 5.  Note 52.  Velocity 0
000038t:  Note on ::  Channel 5.  Note 49.  Velocity 127
000010t:  Note on ::  Channel 5.  Note 49.  Velocity 0
000038t:  Note on ::  Channel 5.  Note 45.  Velocity 127
000012t:  Note on ::  Channel 5.  Note 45.  Velocity 0
000036t:  Note on ::  Channel 5.  Note 45.  Velocity 127
000010t:  Note on ::  Channel 5.  Note 45.  Velocity 0
000039t:  Note on ::  Channel 5.  Note 45.  Velocity 127
000010t:  Note on ::  Channel 5.  Note 45.  Velocity 0
000037t:  Note on ::  Channel 5.  Note 50.  Velocity 127
000010t:  Note on ::  Channel 5.  Note 50.  Velocity 0
000039t:  Note on ::  Channel 5.  Note 54.  Velocity 127
000010t:  Note on ::  Channel 5.  Note 54.  Velocity 0
000038t:  Note on ::  Channel 5.  Note 57.  Velocity 127
000010t:  Note on ::  Channel 5.  Note 57.  Velocity 0
000039t:  Note on ::  Channel 5.  Note 54.  Velocity 127
000010t:  Note on ::  Channel 5.  Note 54.  Velocity 0
000037t:  Note on ::  Channel 5.  Note 50.  Velocity 127
000010t:  Note on ::  Channel 5.  Note 50.  Velocity 0
000038t:  Note on ::  Channel 5.  Note 45.  Velocity 127
000011t:  Note on ::  Channel 5.  Note 45.  Velocity 0
000037t:  Note on ::  Channel 5.  Note 47.  Velocity 127
000010t:  Note on ::  Channel 5.  Note 47.  Velocity 0
000039t:  Note on ::  Channel 5.  Note 47.  Velocity 127
000010t:  Note on ::  Channel 5.  Note 47.  Velocity 0
000037t:  Note on ::  Channel 5.  Note 50.  Velocity 127
000011t:  Note on ::  Channel 5.  Note 50.  Velocity 0
000038t:  Note on ::  Channel 5.  Note 54.  Velocity 127
000010t:  Note on ::  Channel 5.  Note 54.  Velocity 0
000039t:  Note on ::  Channel 5.  Note 59.  Velocity 127
000009t:  Note on ::  Channel 5.  Note 59.  Velocity 0
000039t:  Note on ::  Channel 5.  Note 54.  Velocity 127
000010t:  Note on ::  Channel 5.  Note 54.  Velocity 0
000037t:  Note on ::  Channel 5.  Note 50.  Velocity 127
000010t:  Note on ::  Channel 5.  Note 50.  Velocity 0
000039t:  Note on ::  Channel 5.  Note 47.  Velocity 127
000010t:  Note on ::  Channel 5.  Note 47.  Velocity 0
000037t:  Note on ::  Channel 5.  Note 52.  Velocity 127
000010t:  Note on ::  Channel 5.  Note 52.  Velocity 0
000039t:  Note on ::  Channel 5.  Note 52.  Velocity 127
000010t:  Note on ::  Channel 5.  Note 52.  Velocity 0
000038t:  Note on ::  Channel 5.  Note 56.  Velocity 127
000010t:  Note on ::  Channel 5.  Note 56.  Velocity 0
000038t:  Note on ::  Channel 5.  Note 59.  Velocity 127
000011t:  Note on ::  Channel 5.  Note 59.  Velocity 0
000037t:  Note on ::  Channel 5.  Note 64.  Velocity 127
000010t:  Note on ::  Channel 5.  Note 64.  Velocity 0
000039t:  Note on ::  Channel 5.  Note 59.  Velocity 127
000010t:  Note on ::  Channel 5.  Note 59.  Velocity 0
000037t:  Note on ::  Channel 5.  Note 56.  Velocity 127
000010t:  Note on ::  Channel 5.  Note 56.  Velocity 0
000039t:  Note on ::  Channel 5.  Note 52.  Velocity 127
000010t:  Note on ::  Channel 5.  Note 52.  Velocity 0
000038t:  Note on ::  Channel 5.  Note 45.  Velocity 127
000010t:  Note on ::  Channel 5.  Note 45.  Velocity 0
000038t:  Note on ::  Channel 5.  Note 45.  Velocity 127
000011t:  Note on ::  Channel 5.  Note 45.  Velocity 0
000037t:  Note on ::  Channel 5.  Note 49.  Velocity 127
000010t:  Note on ::  Channel 5.  Note 49.  Velocity 0
000039t:  Note on ::  Channel 5.  Note 52.  Velocity 127
000010t:  Note on ::  Channel 5.  Note 52.  Velocity 0
000038t:  Note on ::  Channel 5.  Note 57.  Velocity 127
000009t:  Note on ::  Channel 5.  Note 57.  Velocity 0
000039t:  Note on ::  Channel 5.  Note 52.  Velocity 127
000010t:  Note on ::  Channel 5.  Note 52.  Velocity 0
000038t:  Note on ::  Channel 5.  Note 49.  Velocity 127
000010t:  Note on ::  Channel 5.  Note 49.  Velocity 0
000038t:  Note on ::  Channel 5.  Note 45.  Velocity 127
000010t:  Note on ::  Channel 5.  Note 45.  Velocity 0
000038t:  Note on ::  Channel 5.  Note 45.  Velocity 127
000010t:  Note on ::  Channel 5.  Note 45.  Velocity 0
000039t:  Note on ::  Channel 5.  Note 45.  Velocity 127
000010t:  Note on ::  Channel 5.  Note 45.  Velocity 0
000037t:  Note on ::  Channel 5.  Note 50.  Velocity 127
000010t:  Note on ::  Channel 5.  Note 50.  Velocity 0
000039t:  Note on ::  Channel 5.  Note 54.  Velocity 127
000010t:  Note on ::  Channel 5.  Note 54.  Velocity 0
000038t:  Note on ::  Channel 5.  Note 57.  Velocity 127
000009t:  Note on ::  Channel 5.  Note 57.  Velocity 0
000039t:  Note on ::  Channel 5.  Note 54.  Velocity 127
000010t:  Note on ::  Channel 5.  Note 54.  Velocity 0
000038t:  Note on ::  Channel 5.  Note 50.  Velocity 127
000010t:  Note on ::  Channel 5.  Note 50.  Velocity 0
000038t:  Note on ::  Channel 5.  Note 45.  Velocity 127
000011t:  Note on ::  Channel 5.  Note 45.  Velocity 0
000037t:  Note on ::  Channel 5.  Note 47.  Velocity 127
000010t:  Note on ::  Channel 5.  Note 47.  Velocity 0
000039t:  Note on ::  Channel 5.  Note 47.  Velocity 127
000010t:  Note on ::  Channel 5.  Note 47.  Velocity 0
000037t:  Note on ::  Channel 5.  Note 50.  Velocity 127
000010t:  Note on ::  Channel 5.  Note 50.  Velocity 0
000039t:  Note on ::  Channel 5.  Note 54.  Velocity 127
000010t:  Note on ::  Channel 5.  Note 54.  Velocity 0
000038t:  Note on ::  Channel 5.  Note 59.  Velocity 127
000010t:  Note on ::  Channel 5.  Note 59.  Velocity 0
000039t:  Note on ::  Channel 5.  Note 54.  Velocity 127
000010t:  Note on ::  Channel 5.  Note 54.  Velocity 0
000037t:  Note on ::  Channel 5.  Note 50.  Velocity 127
000010t:  Note on ::  Channel 5.  Note 50.  Velocity 0
000039t:  Note on ::  Channel 5.  Note 47.  Velocity 127
000010t:  Note on ::  Channel 5.  Note 47.  Velocity 0
000037t:  Note on ::  Channel 5.  Note 52.  Velocity 127
000010t:  Note on ::  Channel 5.  Note 52.  Velocity 0
000039t:  Note on ::  Channel 5.  Note 52.  Velocity 127
000010t:  Note on ::  Channel 5.  Note 52.  Velocity 0
000037t:  Note on ::  Channel 5.  Note 56.  Velocity 127
000011t:  Note on ::  Channel 5.  Note 56.  Velocity 0
000038t:  Note on ::  Channel 5.  Note 59.  Velocity 127
000010t:  Note on ::  Channel 5.  Note 59.  Velocity 0
000038t:  Note on ::  Channel 5.  Note 64.  Velocity 127
000010t:  Note on ::  Channel 5.  Note 64.  Velocity 0
000039t:  Note on ::  Channel 5.  Note 59.  Velocity 127
000010t:  Note on ::  Channel 5.  Note 59.  Velocity 0
000037t:  Note on ::  Channel 5.  Note 56.  Velocity 127
000010t:  Note on ::  Channel 5.  Note 56.  Velocity 0
000039t:  Note on ::  Channel 5.  Note 52.  Velocity 127
000010t:  Note on ::  Channel 5.  Note 52.  Velocity 0
000037t:  Note on ::  Channel 5.  Note 54.  Velocity 127
000010t:  Note on ::  Channel 5.  Note 54.  Velocity 0
000039t:  Note on ::  Channel 5.  Note 54.  Velocity 127
000010t:  Note on ::  Channel 5.  Note 54.  Velocity 0
000038t:  Note on ::  Channel 5.  Note 57.  Velocity 127
000010t:  Note on ::  Channel 5.  Note 57.  Velocity 0
000038t:  Note on ::  Channel 5.  Note 61.  Velocity 127
000011t:  Note on ::  Channel 5.  Note 61.  Velocity 0
000038t:  Note on ::  Channel 5.  Note 66.  Velocity 127
000009t:  Note on ::  Channel 5.  Note 66.  Velocity 0
000039t:  Note on ::  Channel 5.  Note 61.  Velocity 127
000010t:  Note on ::  Channel 5.  Note 61.  Velocity 0
000038t:  Note on ::  Channel 5.  Note 57.  Velocity 127
000009t:  Note on ::  Channel 5.  Note 57.  Velocity 0
000039t:  Note on ::  Channel 5.  Note 54.  Velocity 127
000010t:  Note on ::  Channel 5.  Note 54.  Velocity 0
000038t:  Note on ::  Channel 5.  Note 50.  Velocity 127
000010t:  Note on ::  Channel 5.  Note 50.  Velocity 0
000038t:  Note on ::  Channel 5.  Note 50.  Velocity 127
000010t:  Note on ::  Channel 5.  Note 50.  Velocity 0
000038t:  Note on ::  Channel 5.  Note 54.  Velocity 127
000010t:  Note on ::  Channel 5.  Note 54.  Velocity 0
000039t:  Note on ::  Channel 5.  Note 57.  Velocity 127
000010t:  Note on ::  Channel 5.  Note 57.  Velocity 0
000038t:  Note on ::  Channel 5.  Note 62.  Velocity 127
000009t:  Note on ::  Channel 5.  Note 62.  Velocity 0
000039t:  Note on ::  Channel 5.  Note 57.  Velocity 127
000010t:  Note on ::  Channel 5.  Note 57.  Velocity 0
000037t:  Note on ::  Channel 5.  Note 54.  Velocity 127
000010t:  Note on ::  Channel 5.  Note 54.  Velocity 0
000039t:  Note on ::  Channel 5.  Note 50.  Velocity 127
000010t:  Note on ::  Channel 5.  Note 50.  Velocity 0
016986t:  Note on ::  Channel 5.  Note 47.  Velocity 127
000011t:  Note on ::  Channel 5.  Note 47.  Velocity 0
000037t:  Note on ::  Channel 5.  Note 47.  Velocity 127
000011t:  Note on ::  Channel 5.  Note 47.  Velocity 0
000037t:  Note on ::  Channel 5.  Note 50.  Velocity 127
000011t:  Note on ::  Channel 5.  Note 50.  Velocity 0
000038t:  Note on ::  Channel 5.  Note 54.  Velocity 127
000010t:  Note on ::  Channel 5.  Note 54.  Velocity 0
000038t:  Note on ::  Channel 5.  Note 59.  Velocity 127
000011t:  Note on ::  Channel 5.  Note 59.  Velocity 0
000037t:  Note on ::  Channel 5.  Note 54.  Velocity 127
000010t:  Note on ::  Channel 5.  Note 54.  Velocity 0
000038t:  Note on ::  Channel 5.  Note 50.  Velocity 127
000011t:  Note on ::  Channel 5.  Note 50.  Velocity 0
000037t:  Note on ::  Channel 5.  Note 47.  Velocity 127
000010t:  Note on ::  Channel 5.  Note 47.  Velocity 0
000038t:  Note on ::  Channel 5.  Note 52.  Velocity 127
000011t:  Note on ::  Channel 5.  Note 52.  Velocity 0
000037t:  Note on ::  Channel 5.  Note 52.  Velocity 127
000011t:  Note on ::  Channel 5.  Note 52.  Velocity 0
000037t:  Note on ::  Channel 5.  Note 56.  Velocity 127
000011t:  Note on ::  Channel 5.  Note 56.  Velocity 0
000038t:  Note on ::  Channel 5.  Note 59.  Velocity 127
000010t:  Note on ::  Channel 5.  Note 59.  Velocity 0
000038t:  Note on ::  Channel 5.  Note 64.  Velocity 127
000011t:  Note on ::  Channel 5.  Note 64.  Velocity 0
000037t:  Note on ::  Channel 5.  Note 59.  Velocity 127
000010t:  Note on ::  Channel 5.  Note 59.  Velocity 0
000038t:  Note on ::  Channel 5.  Note 56.  Velocity 127
000011t:  Note on ::  Channel 5.  Note 56.  Velocity 0
000037t:  Note on ::  Channel 5.  Note 52.  Velocity 127
000011t:  Note on ::  Channel 5.  Note 52.  Velocity 0
000037t:  Note on ::  Channel 5.  Note 45.  Velocity 127
000011t:  Note on ::  Channel 5.  Note 45.  Velocity 0
000038t:  Note on ::  Channel 5.  Note 45.  Velocity 127
000010t:  Note on ::  Channel 5.  Note 45.  Velocity 0
000037t:  Note on ::  Channel 5.  Note 49.  Velocity 127
000012t:  Note on ::  Channel 5.  Note 49.  Velocity 0
000037t:  Note on ::  Channel 5.  Note 52.  Velocity 127
000010t:  Note on ::  Channel 5.  Note 52.  Velocity 0
000038t:  Note on ::  Channel 5.  Note 57.  Velocity 127
000011t:  Note on ::  Channel 5.  Note 57.  Velocity 0
000038t:  Note on ::  Channel 5.  Note 52.  Velocity 127
000009t:  Note on ::  Channel 5.  Note 52.  Velocity 0
000038t:  Note on ::  Channel 5.  Note 49.  Velocity 127
000011t:  Note on ::  Channel 5.  Note 49.  Velocity 0
000037t:  Note on ::  Channel 5.  Note 45.  Velocity 127
000011t:  Note on ::  Channel 5.  Note 45.  Velocity 0
000037t:  Note on ::  Channel 5.  Note 45.  Velocity 127
000012t:  Note on ::  Channel 5.  Note 45.  Velocity 0
000037t:  Note on ::  Channel 5.  Note 45.  Velocity 127
000010t:  Note on ::  Channel 5.  Note 45.  Velocity 0
000037t:  Note on ::  Channel 5.  Note 50.  Velocity 127
000012t:  Note on ::  Channel 5.  Note 50.  Velocity 0
000037t:  Note on ::  Channel 5.  Note 54.  Velocity 127
000010t:  Note on ::  Channel 5.  Note 54.  Velocity 0
000038t:  Note on ::  Channel 5.  Note 57.  Velocity 127
000011t:  Note on ::  Channel 5.  Note 57.  Velocity 0
000037t:  Note on ::  Channel 5.  Note 54.  Velocity 127
000011t:  Note on ::  Channel 5.  Note 54.  Velocity 0
000037t:  Note on ::  Channel 5.  Note 50.  Velocity 127
000011t:  Note on ::  Channel 5.  Note 50.  Velocity 0
000037t:  Note on ::  Channel 5.  Note 45.  Velocity 127
000011t:  Note on ::  Channel 5.  Note 45.  Velocity 0
000037t:  Note on ::  Channel 5.  Note 47.  Velocity 127
000012t:  Note on ::  Channel 5.  Note 47.  Velocity 0
000037t:  Note on ::  Channel 5.  Note 47.  Velocity 127
000010t:  Note on ::  Channel 5.  Note 47.  Velocity 0
000038t:  Note on ::  Channel 5.  Note 50.  Velocity 127
000011t:  Note on ::  Channel 5.  Note 50.  Velocity 0
000037t:  Note on ::  Channel 5.  Note 54.  Velocity 127
000010t:  Note on ::  Channel 5.  Note 54.  Velocity 0
000039t:  Note on ::  Channel 5.  Note 59.  Velocity 127
000010t:  Note on ::  Channel 5.  Note 59.  Velocity 0
000038t:  Note on ::  Channel 5.  Note 54.  Velocity 127
000010t:  Note on ::  Channel 5.  Note 54.  Velocity 0
000037t:  Note on ::  Channel 5.  Note 50.  Velocity 127
000012t:  Note on ::  Channel 5.  Note 50.  Velocity 0
000037t:  Note on ::  Channel 5.  Note 47.  Velocity 127
000010t:  Note on ::  Channel 5.  Note 47.  Velocity 0
000037t:  Note on ::  Channel 5.  Note 52.  Velocity 127
000012t:  Note on ::  Channel 5.  Note 52.  Velocity 0
000037t:  Note on ::  Channel 5.  Note 52.  Velocity 127
000010t:  Note on ::  Channel 5.  Note 52.  Velocity 0
000038t:  Note on ::  Channel 5.  Note 56.  Velocity 127
000011t:  Note on ::  Channel 5.  Note 56.  Velocity 0
000037t:  Note on ::  Channel 5.  Note 59.  Velocity 127
000011t:  Note on ::  Channel 5.  Note 59.  Velocity 0
000038t:  Note on ::  Channel 5.  Note 64.  Velocity 127
000011t:  Note on ::  Channel 5.  Note 64.  Velocity 0
000037t:  Note on ::  Channel 5.  Note 59.  Velocity 127
000010t:  Note on ::  Channel 5.  Note 59.  Velocity 0
000037t:  Note on ::  Channel 5.  Note 56.  Velocity 127
000012t:  Note on ::  Channel 5.  Note 56.  Velocity 0
000037t:  Note on ::  Channel 5.  Note 52.  Velocity 127
000010t:  Note on ::  Channel 5.  Note 52.  Velocity 0
000038t:  Note on ::  Channel 5.  Note 45.  Velocity 127
000011t:  Note on ::  Channel 5.  Note 45.  Velocity 0
000037t:  Note on ::  Channel 5.  Note 45.  Velocity 127
000011t:  Note on ::  Channel 5.  Note 45.  Velocity 0
000037t:  Note on ::  Channel 5.  Note 49.  Velocity 127
000012t:  Note on ::  Channel 5.  Note 49.  Velocity 0
000037t:  Note on ::  Channel 5.  Note 52.  Velocity 127
000010t:  Note on ::  Channel 5.  Note 52.  Velocity 0
000038t:  Note on ::  Channel 5.  Note 57.  Velocity 127
000011t:  Note on ::  Channel 5.  Note 57.  Velocity 0
000037t:  Note on ::  Channel 5.  Note 52.  Velocity 127
000010t:  Note on ::  Channel 5.  Note 52.  Velocity 0
000038t:  Note on ::  Channel 5.  Note 49.  Velocity 127
000011t:  Note on ::  Channel 5.  Note 49.  Velocity 0
000037t:  Note on ::  Channel 5.  Note 45.  Velocity 127
000010t:  Note on ::  Channel 5.  Note 45.  Velocity 0
000038t:  Note on ::  Channel 5.  Note 45.  Velocity 127
000011t:  Note on ::  Channel 5.  Note 45.  Velocity 0
000038t:  Note on ::  Channel 5.  Note 45.  Velocity 127
000010t:  Note on ::  Channel 5.  Note 45.  Velocity 0
000037t:  Note on ::  Channel 5.  Note 50.  Velocity 127
000012t:  Note on ::  Channel 5.  Note 50.  Velocity 0
000037t:  Note on ::  Channel 5.  Note 54.  Velocity 127
000010t:  Note on ::  Channel 5.  Note 54.  Velocity 0
000038t:  Note on ::  Channel 5.  Note 57.  Velocity 127
000011t:  Note on ::  Channel 5.  Note 57.  Velocity 0
000037t:  Note on ::  Channel 5.  Note 54.  Velocity 127
000010t:  Note on ::  Channel 5.  Note 54.  Velocity 0
000038t:  Note on ::  Channel 5.  Note 50.  Velocity 127
000011t:  Note on ::  Channel 5.  Note 50.  Velocity 0
000037t:  Note on ::  Channel 5.  Note 45.  Velocity 127
000011t:  Note on ::  Channel 5.  Note 45.  Velocity 0
000037t:  Note on ::  Channel 5.  Note 47.  Velocity 127
000012t:  Note on ::  Channel 5.  Note 47.  Velocity 0
000036t:  Note on ::  Channel 5.  Note 47.  Velocity 127
000011t:  Note on ::  Channel 5.  Note 47.  Velocity 0
000037t:  Note on ::  Channel 5.  Note 50.  Velocity 127
000012t:  Note on ::  Channel 5.  Note 50.  Velocity 0
000037t:  Note on ::  Channel 5.  Note 54.  Velocity 127
000010t:  Note on ::  Channel 5.  Note 54.  Velocity 0
000038t:  Note on ::  Channel 5.  Note 59.  Velocity 127
000011t:  Note on ::  Channel 5.  Note 59.  Velocity 0
000038t:  Note on ::  Channel 5.  Note 54.  Velocity 127
000010t:  Note on ::  Channel 5.  Note 54.  Velocity 0
000037t:  Note on ::  Channel 5.  Note 50.  Velocity 127
000011t:  Note on ::  Channel 5.  Note 50.  Velocity 0
000038t:  Note on ::  Channel 5.  Note 47.  Velocity 127
000010t:  Note on ::  Channel 5.  Note 47.  Velocity 0
000037t:  Note on ::  Channel 5.  Note 52.  Velocity 127
000012t:  Note on ::  Channel 5.  Note 52.  Velocity 0
000037t:  Note on ::  Channel 5.  Note 52.  Velocity 127
000010t:  Note on ::  Channel 5.  Note 52.  Velocity 0
000037t:  Note on ::  Channel 5.  Note 56.  Velocity 127
000012t:  Note on ::  Channel 5.  Note 56.  Velocity 0
000037t:  Note on ::  Channel 5.  Note 59.  Velocity 127
000010t:  Note on ::  Channel 5.  Note 59.  Velocity 0
000038t:  Note on ::  Channel 5.  Note 64.  Velocity 127
000011t:  Note on ::  Channel 5.  Note 64.  Velocity 0
000038t:  Note on ::  Channel 5.  Note 59.  Velocity 127
000010t:  Note on ::  Channel 5.  Note 59.  Velocity 0
000037t:  Note on ::  Channel 5.  Note 56.  Velocity 127
000012t:  Note on ::  Channel 5.  Note 56.  Velocity 0
000037t:  Note on ::  Channel 5.  Note 52.  Velocity 127
000010t:  Note on ::  Channel 5.  Note 52.  Velocity 0
000037t:  Note on ::  Channel 5.  Note 54.  Velocity 127
000012t:  Note on ::  Channel 5.  Note 54.  Velocity 0
000037t:  Note on ::  Channel 5.  Note 54.  Velocity 127
000010t:  Note on ::  Channel 5.  Note 54.  Velocity 0
000038t:  Note on ::  Channel 5.  Note 57.  Velocity 127
000011t:  Note on ::  Channel 5.  Note 57.  Velocity 0
000037t:  Note on ::  Channel 5.  Note 61.  Velocity 127
000011t:  Note on ::  Channel 5.  Note 61.  Velocity 0
000038t:  Note on ::  Channel 5.  Note 66.  Velocity 127
000010t:  Note on ::  Channel 5.  Note 66.  Velocity 0
000038t:  Note on ::  Channel 5.  Note 61.  Velocity 127
000010t:  Note on ::  Channel 5.  Note 61.  Velocity 0
000038t:  Note on ::  Channel 5.  Note 57.  Velocity 127
000011t:  Note on ::  Channel 5.  Note 57.  Velocity 0
000037t:  Note on ::  Channel 5.  Note 54.  Velocity 127
000010t:  Note on ::  Channel 5.  Note 54.  Velocity 0
000038t:  Note on ::  Channel 5.  Note 50.  Velocity 127
000011t:  Note on ::  Channel 5.  Note 50.  Velocity 0
000037t:  Note on ::  Channel 5.  Note 50.  Velocity 127
000010t:  Note on ::  Channel 5.  Note 50.  Velocity 0
000038t:  Note on ::  Channel 5.  Note 54.  Velocity 127
000011t:  Note on ::  Channel 5.  Note 54.  Velocity 0
000038t:  Note on ::  Channel 5.  Note 57.  Velocity 127
000010t:  Note on ::  Channel 5.  Note 57.  Velocity 0
000038t:  Note on ::  Channel 5.  Note 62.  Velocity 127
000011t:  Note on ::  Channel 5.  Note 62.  Velocity 0
000037t:  Note on ::  Channel 5.  Note 57.  Velocity 127
000010t:  Note on ::  Channel 5.  Note 57.  Velocity 0
000037t:  Note on ::  Channel 5.  Note 54.  Velocity 127
000012t:  Note on ::  Channel 5.  Note 54.  Velocity 0
000037t:  Note on ::  Channel 5.  Note 50.  Velocity 127
000010t:  Note on ::  Channel 5.  Note 50.  Velocity 0
011528t:  Control change ::  Channel 5.  Controller 7.  Value: 88
000018t:  Control change ::  Channel 5.  Controller 7.  Value: 87
000047t:  Control change ::  Channel 5.  Controller 7.  Value: 86
000014t:  Control change ::  Channel 5.  Controller 7.  Value: 85
000015t:  Control change ::  Channel 5.  Controller 7.  Value: 84
000008t:  Control change ::  Channel 5.  Controller 7.  Value: 83
000021t:  Control change ::  Channel 5.  Controller 7.  Value: 82
000051t:  Control change ::  Channel 5.  Controller 7.  Value: 81
000028t:  Control change ::  Channel 5.  Controller 7.  Value: 80
000026t:  Control change ::  Channel 5.  Controller 7.  Value: 79
000043t:  Control change ::  Channel 5.  Controller 7.  Value: 78
000029t:  Control change ::  Channel 5.  Controller 7.  Value: 77
000015t:  Control change ::  Channel 5.  Controller 7.  Value: 76
000036t:  Control change ::  Channel 5.  Controller 7.  Value: 75
000025t:  Control change ::  Channel 5.  Controller 7.  Value: 74
000015t:  Control change ::  Channel 5.  Controller 7.  Value: 73
000014t:  Control change ::  Channel 5.  Controller 7.  Value: 72
000022t:  Control change ::  Channel 5.  Controller 7.  Value: 71
000022t:  Control change ::  Channel 5.  Controller 7.  Value: 70
000030t:  Control change ::  Channel 5.  Controller 7.  Value: 69
000011t:  Control change ::  Channel 5.  Controller 7.  Value: 68
000010t:  Control change ::  Channel 5.  Controller 7.  Value: 67
000005t:  Control change ::  Channel 5.  Controller 7.  Value: 66
000010t:  Control change ::  Channel 5.  Controller 7.  Value: 65
000029t:  Control change ::  Channel 5.  Controller 7.  Value: 64
000015t:  Control change ::  Channel 5.  Controller 7.  Value: 63
000047t:  Control change ::  Channel 5.  Controller 7.  Value: 62
000064t:  Control change ::  Channel 5.  Controller 7.  Value: 61
000022t:  Control change ::  Channel 5.  Controller 7.  Value: 60
000034t:  Control change ::  Channel 5.  Controller 7.  Value: 59
000031t:  Control change ::  Channel 5.  Controller 7.  Value: 58
000043t:  Control change ::  Channel 5.  Controller 7.  Value: 57
000038t:  Control change ::  Channel 5.  Controller 7.  Value: 56
000027t:  Control change ::  Channel 5.  Controller 7.  Value: 55
000015t:  Control change ::  Channel 5.  Controller 7.  Value: 54
000022t:  Control change ::  Channel 5.  Controller 7.  Value: 53
000057t:  Control change ::  Channel 5.  Controller 7.  Value: 52
000028t:  Control change ::  Channel 5.  Controller 7.  Value: 51
000027t:  Control change ::  Channel 5.  Controller 7.  Value: 50
000010t:  Control change ::  Channel 5.  Controller 7.  Value: 49
000019t:  Control change ::  Channel 5.  Controller 7.  Value: 48
000043t:  Control change ::  Channel 5.  Controller 7.  Value: 47
000018t:  Control change ::  Channel 5.  Controller 7.  Value: 46
000023t:  Control change ::  Channel 5.  Controller 7.  Value: 45
000018t:  Control change ::  Channel 5.  Controller 7.  Value: 44
000013t:  Control change ::  Channel 5.  Controller 7.  Value: 43
000041t:  Control change ::  Channel 5.  Controller 7.  Value: 42
000011t:  Control change ::  Channel 5.  Controller 7.  Value: 41
000011t:  Control change ::  Channel 5.  Controller 7.  Value: 40
000024t:  Control change ::  Channel 5.  Controller 7.  Value: 39
000016t:  Control change ::  Channel 5.  Controller 7.  Value: 38
000011t:  Control change ::  Channel 5.  Controller 7.  Value: 37
000018t:  Control change ::  Channel 5.  Controller 7.  Value: 36
000046t:  Control change ::  Channel 5.  Controller 7.  Value: 35
000019t:  Control change ::  Channel 5.  Controller 7.  Value: 34
000026t:  Control change ::  Channel 5.  Controller 7.  Value: 33
000024t:  Control change ::  Channel 5.  Controller 7.  Value: 32
000026t:  Control change ::  Channel 5.  Controller 7.  Value: 31
000028t:  Control change ::  Channel 5.  Controller 7.  Value: 30
000029t:  Control change ::  Channel 5.  Controller 7.  Value: 29
000012t:  Control change ::  Channel 5.  Controller 7.  Value: 28
000036t:  Control change ::  Channel 5.  Controller 7.  Value: 27
000018t:  Control change ::  Channel 5.  Controller 7.  Value: 26
000015t:  Control change ::  Channel 5.  Controller 7.  Value: 25
000007t:  Control change ::  Channel 5.  Controller 7.  Value: 24
000024t:  Control change ::  Channel 5.  Controller 7.  Value: 23
000008t:  Control change ::  Channel 5.  Controller 7.  Value: 22
000011t:  Control change ::  Channel 5.  Controller 7.  Value: 21
000009t:  Control change ::  Channel 5.  Controller 7.  Value: 20
000010t:  Control change ::  Channel 5.  Controller 7.  Value: 19
000007t:  Control change ::  Channel 5.  Controller 7.  Value: 18
000008t:  Control change ::  Channel 5.  Controller 7.  Value: 17
000025t:  Control change ::  Channel 5.  Controller 7.  Value: 16
000019t:  Control change ::  Channel 5.  Controller 7.  Value: 15
000017t:  Control change ::  Channel 5.  Controller 7.  Value: 14
000011t:  Control change ::  Channel 5.  Controller 7.  Value: 13
000015t:  Control change ::  Channel 5.  Controller 7.  Value: 12
000033t:  Control change ::  Channel 5.  Controller 7.  Value: 11
000012t:  Control change ::  Channel 5.  Controller 7.  Value: 10
000007t:  Control change ::  Channel 5.  Controller 7.  Value: 9
000035t:  Control change ::  Channel 5.  Controller 7.  Value: 8
000004t:  Control change ::  Channel 5.  Controller 7.  Value: 7
000004t:  Control change ::  Channel 5.  Controller 7.  Value: 6
000004t:  Control change ::  Channel 5.  Controller 7.  Value: 5
000007t:  Control change ::  Channel 5.  Controller 7.  Value: 4
000008t:  Control change ::  Channel 5.  Controller 7.  Value: 3
000043t:  Control change ::  Channel 5.  Controller 7.  Value: 2
000015t:  Control change ::  Channel 5.  Controller 7.  Value: 1
000011t:  Control change ::  Channel 5.  Controller 7.  Value: 0
000455t:  Control change ::  Channel 5.  Controller 7.  Value: 88
000000t:  Program (patch) change ::  Channel 5.  Patch 17 (Percussive Organ)
000350t:  Control change ::  Channel 5.  Controller 64.  Value: 0
000001t:  Pitch wheel change ::  Channel 5.   -8192
000000t:  Meta-event type $2f (End-track event) of length 0
Sigma t = 60797

Track chunk of 1761 bytes
000000t:  Meta-event type $21 (?) of length 1
	  _
000000t:  Meta-event type $03 (Track name) of length 20
	  Syn Brass 1         
000000t:  Program (patch) change ::  Channel 6.  Patch 63 (SynthBrass 2)
000000t:  Control change ::  Channel 6.  Controller 7.  Value: 103
000000t:  Control change ::  Channel 6.  Controller 10.  Value: 60
009600t:  Note on ::  Channel 6.  Note 62.  Velocity 127
000116t:  Note on ::  Channel 6.  Note 62.  Velocity 0
000028t:  Note on ::  Channel 6.  Note 62.  Velocity 127
000088t:  Note on ::  Channel 6.  Note 62.  Velocity 0
000009t:  Note on ::  Channel 6.  Note 61.  Velocity 127
000045t:  Note on ::  Channel 6.  Note 61.  Velocity 0
000004t:  Note on ::  Channel 6.  Note 59.  Velocity 127
000442t:  Note on ::  Channel 6.  Note 59.  Velocity 0
000039t:  Note on ::  Channel 6.  Note 61.  Velocity 127
000038t:  Note on ::  Channel 6.  Note 61.  Velocity 0
000009t:  Note on ::  Channel 6.  Note 61.  Velocity 127
000065t:  Note on ::  Channel 6.  Note 61.  Velocity 0
000031t:  Note on ::  Channel 6.  Note 61.  Velocity 127
000092t:  Note on ::  Channel 6.  Note 61.  Velocity 0
000005t:  Note on ::  Channel 6.  Note 57.  Velocity 127
000066t:  Note on ::  Channel 6.  Note 57.  Velocity 0
000126t:  Note on ::  Channel 6.  Note 66.  Velocity 127
000039t:  Note on ::  Channel 6.  Note 66.  Velocity 0
000058t:  Note on ::  Channel 6.  Note 66.  Velocity 127
000026t:  Note on ::  Channel 6.  Note 66.  Velocity 0
000023t:  Note on ::  Channel 6.  Note 66.  Velocity 127
000091t:  Note on ::  Channel 6.  Note 66.  Velocity 0
000005t:  Note on ::  Channel 6.  Note 64.  Velocity 127
000092t:  Note on ::  Channel 6.  Note 64.  Velocity 0
000004t:  Note on ::  Channel 6.  Note 62.  Velocity 127
000118t:  Note on ::  Channel 6.  Note 62.  Velocity 0
000026t:  Note on ::  Channel 6.  Note 62.  Velocity 127
000034t:  Note on ::  Channel 6.  Note 62.  Velocity 0
000015t:  Note on ::  Channel 6.  Note 62.  Velocity 127
000042t:  Note on ::  Channel 6.  Note 62.  Velocity 0
000005t:  Note on ::  Channel 6.  Note 61.  Velocity 127
000088t:  Note on ::  Channel 6.  Note 61.  Velocity 0
000008t:  Note on ::  Channel 6.  Note 59.  Velocity 127
000354t:  Note on ::  Channel 6.  Note 59.  Velocity 0
000080t:  Note on ::  Channel 6.  Note 61.  Velocity 127
000041t:  Note on ::  Channel 6.  Note 61.  Velocity 0
000007t:  Note on ::  Channel 6.  Note 61.  Velocity 127
000059t:  Note on ::  Channel 6.  Note 61.  Velocity 0
000037t:  Note on ::  Channel 6.  Note 61.  Velocity 127
000092t:  Note on ::  Channel 6.  Note 61.  Velocity 0
000005t:  Note on ::  Channel 6.  Note 59.  Velocity 127
000091t:  Note on ::  Channel 6.  Note 59.  Velocity 0
000005t:  Note on ::  Channel 6.  Note 57.  Velocity 127
000091t:  Note on ::  Channel 6.  Note 57.  Velocity 0
000005t:  Note on ::  Channel 6.  Note 59.  Velocity 127
000092t:  Note on ::  Channel 6.  Note 59.  Velocity 0
000004t:  Note on ::  Channel 6.  Note 61.  Velocity 127
000047t:  Note on ::  Channel 6.  Note 61.  Velocity 0
000003t:  Note on ::  Channel 6.  Note 59.  Velocity 127
000089t:  Note on ::  Channel 6.  Note 59.  Velocity 0
000007t:  Note on ::  Channel 6.  Note 57.  Velocity 127
000087t:  Note on ::  Channel 6.  Note 57.  Velocity 0
000105t:  Note on ::  Channel 6.  Note 62.  Velocity 127
000128t:  Note on ::  Channel 6.  Note 62.  Velocity 0
000016t:  Note on ::  Channel 6.  Note 62.  Velocity 127
000035t:  Note on ::  Channel 6.  Note 62.  Velocity 0
000014t:  Note on ::  Channel 6.  Note 62.  Velocity 127
000033t:  Note on ::  Channel 6.  Note 62.  Velocity 0
000014t:  Note on ::  Channel 6.  Note 62.  Velocity 127
000066t:  Note on ::  Channel 6.  Note 62.  Velocity 0
000465t:  Note on ::  Channel 6.  Note 57.  Velocity 127
000030t:  Note on ::  Channel 6.  Note 57.  Velocity 0
000017t:  Note on ::  Channel 6.  Note 57.  Velocity 127
000029t:  Note on ::  Channel 6.  Note 57.  Velocity 0
000020t:  Note on ::  Channel 6.  Note 57.  Velocity 127
000028t:  Note on ::  Channel 6.  Note 57.  Velocity 0
000019t:  Note on ::  Channel 6.  Note 57.  Velocity 127
000027t:  Note on ::  Channel 6.  Note 57.  Velocity 0
000022t:  Note on ::  Channel 6.  Note 57.  Velocity 127
000027t:  Note on ::  Channel 6.  Note 57.  Velocity 0
000020t:  Note on ::  Channel 6.  Note 57.  Velocity 127
000027t:  Note on ::  Channel 6.  Note 57.  Velocity 0
000022t:  Note on ::  Channel 6.  Note 57.  Velocity 127
000048t:  Note on ::  Channel 6.  Note 56.  Velocity 127
000014t:  Note on ::  Channel 6.  Note 57.  Velocity 0
000077t:  Note on ::  Channel 6.  Note 56.  Velocity 0
000005t:  Note on ::  Channel 6.  Note 54.  Velocity 127
000119t:  Note on ::  Channel 6.  Note 54.  Velocity 0
000123t:  Note on ::  Channel 6.  Note 45.  Velocity 127
000380t:  Note on ::  Channel 6.  Note 45.  Velocity 0
000005t:  Note on ::  Channel 6.  Note 56.  Velocity 127
000380t:  Note on ::  Channel 6.  Note 56.  Velocity 0
000005t:  Note on ::  Channel 6.  Note 57.  Velocity 127
000385t:  Note on ::  Channel 6.  Note 64.  Velocity 127
000120t:  Note on ::  Channel 6.  Note 64.  Velocity 0
000023t:  Note on ::  Channel 6.  Note 66.  Velocity 127
000117t:  Note on ::  Channel 6.  Note 66.  Velocity 0
000004t:  Note on ::  Channel 6.  Note 64.  Velocity 127
000117t:  Note on ::  Channel 6.  Note 57.  Velocity 0
000002t:  Note on ::  Channel 6.  Note 64.  Velocity 0
000003t:  Note on ::  Channel 6.  Note 57.  Velocity 127
000380t:  Note on ::  Channel 6.  Note 57.  Velocity 0
000004t:  Note on ::  Channel 6.  Note 64.  Velocity 127
000381t:  Note on ::  Channel 6.  Note 64.  Velocity 0
000004t:  Note on ::  Channel 6.  Note 66.  Velocity 127
000386t:  Note on ::  Channel 6.  Note 66.  Velocity 0
000000t:  Note on ::  Channel 6.  Note 64.  Velocity 127
000120t:  Note on ::  Channel 6.  Note 64.  Velocity 0
000025t:  Note on ::  Channel 6.  Note 66.  Velocity 127
000119t:  Note on ::  Channel 6.  Note 66.  Velocity 0
000000t:  Note on ::  Channel 6.  Note 64.  Velocity 127
000117t:  Note on ::  Channel 6.  Note 64.  Velocity 0
000004t:  Note on ::  Channel 6.  Note 61.  Velocity 127
000380t:  Note on ::  Channel 6.  Note 61.  Velocity 0
000005t:  Note on ::  Channel 6.  Note 68.  Velocity 127
000375t:  Note on ::  Channel 6.  Note 68.  Velocity 0
000010t:  Note on ::  Channel 6.  Note 69.  Velocity 127
000477t:  Note on ::  Channel 6.  Note 69.  Velocity 0
000004t:  Note on ::  Channel 6.  Note 71.  Velocity 127
000045t:  Note on ::  Channel 6.  Note 71.  Velocity 0
000004t:  Note on ::  Channel 6.  Note 73.  Velocity 127
000092t:  Note on ::  Channel 6.  Note 73.  Velocity 0
000005t:  Note on ::  Channel 6.  Note 71.  Velocity 127
000043t:  Note on ::  Channel 6.  Note 71.  Velocity 0
000004t:  Note on ::  Channel 6.  Note 69.  Velocity 127
000073t:  Note on ::  Channel 6.  Note 69.  Velocity 0
000025t:  Note on ::  Channel 6.  Note 76.  Velocity 127
001535t:  Note on ::  Channel 6.  Note 76.  Velocity 0
000004t:  Note on ::  Channel 6.  Note 62.  Velocity 127
000116t:  Note on ::  Channel 6.  Note 62.  Velocity 0
000029t:  Note on ::  Channel 6.  Note 62.  Velocity 127
000087t:  Note on ::  Channel 6.  Note 62.  Velocity 0
000010t:  Note on ::  Channel 6.  Note 61.  Velocity 127
000044t:  Note on ::  Channel 6.  Note 61.  Velocity 0
000004t:  Note on ::  Channel 6.  Note 59.  Velocity 127
000442t:  Note on ::  Channel 6.  Note 59.  Velocity 0
000039t:  Note on ::  Channel 6.  Note 61.  Velocity 127
000040t:  Note on ::  Channel 6.  Note 61.  Velocity 0
000008t:  Note on ::  Channel 6.  Note 61.  Velocity 127
000064t:  Note on ::  Channel 6.  Note 61.  Velocity 0
000033t:  Note on ::  Channel 6.  Note 61.  Velocity 127
000092t:  Note on ::  Channel 6.  Note 61.  Velocity 0
000004t:  Note on ::  Channel 6.  Note 57.  Velocity 127
000065t:  Note on ::  Channel 6.  Note 57.  Velocity 0
000128t:  Note on ::  Channel 6.  Note 66.  Velocity 127
000037t:  Note on ::  Channel 6.  Note 66.  Velocity 0
000059t:  Note on ::  Channel 6.  Note 66.  Velocity 127
000027t:  Note on ::  Channel 6.  Note 66.  Velocity 0
000021t:  Note on ::  Channel 6.  Note 66.  Velocity 127
000091t:  Note on ::  Channel 6.  Note 66.  Velocity 0
000005t:  Note on ::  Channel 6.  Note 64.  Velocity 127
000091t:  Note on ::  Channel 6.  Note 64.  Velocity 0
000005t:  Note on ::  Channel 6.  Note 62.  Velocity 127
000118t:  Note on ::  Channel 6.  Note 62.  Velocity 0
000027t:  Note on ::  Channel 6.  Note 62.  Velocity 127
000033t:  Note on ::  Channel 6.  Note 62.  Velocity 0
000015t:  Note on ::  Channel 6.  Note 62.  Velocity 127
000044t:  Note on ::  Channel 6.  Note 62.  Velocity 0
000005t:  Note on ::  Channel 6.  Note 61.  Velocity 127
000087t:  Note on ::  Channel 6.  Note 61.  Velocity 0
000009t:  Note on ::  Channel 6.  Note 59.  Velocity 127
000353t:  Note on ::  Channel 6.  Note 59.  Velocity 0
000080t:  Note on ::  Channel 6.  Note 61.  Velocity 127
000040t:  Note on ::  Channel 6.  Note 61.  Velocity 0
000008t:  Note on ::  Channel 6.  Note 61.  Velocity 127
000058t:  Note on ::  Channel 6.  Note 61.  Velocity 0
000038t:  Note on ::  Channel 6.  Note 61.  Velocity 127
000092t:  Note on ::  Channel 6.  Note 61.  Velocity 0
000005t:  Note on ::  Channel 6.  Note 59.  Velocity 127
000091t:  Note on ::  Channel 6.  Note 59.  Velocity 0
000005t:  Note on ::  Channel 6.  Note 57.  Velocity 127
000092t:  Note on ::  Channel 6.  Note 57.  Velocity 0
000004t:  Note on ::  Channel 6.  Note 59.  Velocity 127
000092t:  Note on ::  Channel 6.  Note 59.  Velocity 0
000005t:  Note on ::  Channel 6.  Note 61.  Velocity 127
000045t:  Note on ::  Channel 6.  Note 61.  Velocity 0
000003t:  Note on ::  Channel 6.  Note 59.  Velocity 127
000089t:  Note on ::  Channel 6.  Note 59.  Velocity 0
000007t:  Note on ::  Channel 6.  Note 57.  Velocity 127
000087t:  Note on ::  Channel 6.  Note 57.  Velocity 0
000105t:  Note on ::  Channel 6.  Note 62.  Velocity 127
000130t:  Note on ::  Channel 6.  Note 62.  Velocity 0
000016t:  Note on ::  Channel 6.  Note 62.  Velocity 127
000034t:  Note on ::  Channel 6.  Note 62.  Velocity 0
000013t:  Note on ::  Channel 6.  Note 62.  Velocity 127
000033t:  Note on ::  Channel 6.  Note 62.  Velocity 0
000015t:  Note on ::  Channel 6.  Note 62.  Velocity 127
000065t:  Note on ::  Channel 6.  Note 62.  Velocity 0
000465t:  Note on ::  Channel 6.  Note 57.  Velocity 127
000030t:  Note on ::  Channel 6.  Note 57.  Velocity 0
000018t:  Note on ::  Channel 6.  Note 57.  Velocity 127
000028t:  Note on ::  Channel 6.  Note 57.  Velocity 0
000020t:  Note on ::  Channel 6.  Note 57.  Velocity 127
000029t:  Note on ::  Channel 6.  Note 57.  Velocity 0
000020t:  Note on ::  Channel 6.  Note 57.  Velocity 127
000026t:  Note on ::  Channel 6.  Note 57.  Velocity 0
000021t:  Note on ::  Channel 6.  Note 57.  Velocity 127
000027t:  Note on ::  Channel 6.  Note 57.  Velocity 0
000022t:  Note on ::  Channel 6.  Note 57.  Velocity 127
000025t:  Note on ::  Channel 6.  Note 57.  Velocity 0
000022t:  Note on ::  Channel 6.  Note 57.  Velocity 127
000049t:  Note on ::  Channel 6.  Note 56.  Velocity 127
000013t:  Note on ::  Channel 6.  Note 57.  Velocity 0
000079t:  Note on ::  Channel 6.  Note 56.  Velocity 0
000004t:  Note on ::  Channel 6.  Note 54.  Velocity 127
000120t:  Note on ::  Channel 6.  Note 54.  Velocity 0
000121t:  Note on ::  Channel 6.  Note 45.  Velocity 127
000380t:  Note on ::  Channel 6.  Note 45.  Velocity 0
000005t:  Note on ::  Channel 6.  Note 56.  Velocity 127
000380t:  Note on ::  Channel 6.  Note 56.  Velocity 0
000005t:  Note on ::  Channel 6.  Note 57.  Velocity 127
000385t:  Note on ::  Channel 6.  Note 64.  Velocity 127
000120t:  Note on ::  Channel 6.  Note 64.  Velocity 0
000025t:  Note on ::  Channel 6.  Note 66.  Velocity 127
000115t:  Note on ::  Channel 6.  Note 66.  Velocity 0
000004t:  Note on ::  Channel 6.  Note 64.  Velocity 127
000117t:  Note on ::  Channel 6.  Note 57.  Velocity 0
000002t:  Note on ::  Channel 6.  Note 64.  Velocity 0
000003t:  Note on ::  Channel 6.  Note 57.  Velocity 127
000380t:  Note on ::  Channel 6.  Note 57.  Velocity 0
000005t:  Note on ::  Channel 6.  Note 64.  Velocity 127
000380t:  Note on ::  Channel 6.  Note 64.  Velocity 0
000004t:  Note on ::  Channel 6.  Note 66.  Velocity 127
000386t:  Note on ::  Channel 6.  Note 66.  Velocity 0
000000t:  Note on ::  Channel 6.  Note 64.  Velocity 127
000120t:  Note on ::  Channel 6.  Note 64.  Velocity 0
000025t:  Note on ::  Channel 6.  Note 66.  Velocity 127
000119t:  Note on ::  Channel 6.  Note 66.  Velocity 0
000000t:  Note on ::  Channel 6.  Note 64.  Velocity 127
000117t:  Note on ::  Channel 6.  Note 64.  Velocity 0
000004t:  Note on ::  Channel 6.  Note 61.  Velocity 127
000380t:  Note on ::  Channel 6.  Note 61.  Velocity 0
000005t:  Note on ::  Channel 6.  Note 68.  Velocity 127
000377t:  Note on ::  Channel 6.  Note 68.  Velocity 0
000008t:  Note on ::  Channel 6.  Note 69.  Velocity 127
000477t:  Note on ::  Channel 6.  Note 69.  Velocity 0
000004t:  Note on ::  Channel 6.  Note 71.  Velocity 127
000045t:  Note on ::  Channel 6.  Note 71.  Velocity 0
000004t:  Note on ::  Channel 6.  Note 73.  Velocity 127
000092t:  Note on ::  Channel 6.  Note 73.  Velocity 0
000005t:  Note on ::  Channel 6.  Note 71.  Velocity 127
000043t:  Note on ::  Channel 6.  Note 71.  Velocity 0
000004t:  Note on ::  Channel 6.  Note 69.  Velocity 127
000073t:  Note on ::  Channel 6.  Note 69.  Velocity 0
000025t:  Note on ::  Channel 6.  Note 76.  Velocity 127
001536t:  Note on ::  Channel 6.  Note 76.  Velocity 0
010789t:  Note on ::  Channel 6.  Note 62.  Velocity 127
000115t:  Note on ::  Channel 6.  Note 62.  Velocity 0
000029t:  Note on ::  Channel 6.  Note 62.  Velocity 127
000087t:  Note on ::  Channel 6.  Note 62.  Velocity 0
000010t:  Note on ::  Channel 6.  Note 61.  Velocity 127
000044t:  Note on ::  Channel 6.  Note 61.  Velocity 0
000004t:  Note on ::  Channel 6.  Note 59.  Velocity 127
000442t:  Note on ::  Channel 6.  Note 59.  Velocity 0
000039t:  Note on ::  Channel 6.  Note 61.  Velocity 127
000040t:  Note on ::  Channel 6.  Note 61.  Velocity 0
000008t:  Note on ::  Channel 6.  Note 61.  Velocity 127
000064t:  Note on ::  Channel 6.  Note 61.  Velocity 0
000033t:  Note on ::  Channel 6.  Note 61.  Velocity 127
000091t:  Note on ::  Channel 6.  Note 61.  Velocity 0
000005t:  Note on ::  Channel 6.  Note 57.  Velocity 127
000066t:  Note on ::  Channel 6.  Note 57.  Velocity 0
000127t:  Note on ::  Channel 6.  Note 66.  Velocity 127
000037t:  Note on ::  Channel 6.  Note 66.  Velocity 0
000059t:  Note on ::  Channel 6.  Note 66.  Velocity 127
000027t:  Note on ::  Channel 6.  Note 66.  Velocity 0
000021t:  Note on ::  Channel 6.  Note 66.  Velocity 127
000091t:  Note on ::  Channel 6.  Note 66.  Velocity 0
000005t:  Note on ::  Channel 6.  Note 64.  Velocity 127
000091t:  Note on ::  Channel 6.  Note 64.  Velocity 0
000005t:  Note on ::  Channel 6.  Note 62.  Velocity 127
000119t:  Note on ::  Channel 6.  Note 62.  Velocity 0
000026t:  Note on ::  Channel 6.  Note 62.  Velocity 127
000034t:  Note on ::  Channel 6.  Note 62.  Velocity 0
000014t:  Note on ::  Channel 6.  Note 62.  Velocity 127
000044t:  Note on ::  Channel 6.  Note 62.  Velocity 0
000005t:  Note on ::  Channel 6.  Note 61.  Velocity 127
000087t:  Note on ::  Channel 6.  Note 61.  Velocity 0
000009t:  Note on ::  Channel 6.  Note 59.  Velocity 127
000353t:  Note on ::  Channel 6.  Note 59.  Velocity 0
000080t:  Note on ::  Channel 6.  Note 61.  Velocity 127
000041t:  Note on ::  Channel 6.  Note 61.  Velocity 0
000007t:  Note on ::  Channel 6.  Note 61.  Velocity 127
000059t:  Note on ::  Channel 6.  Note 61.  Velocity 0
000037t:  Note on ::  Channel 6.  Note 61.  Velocity 127
000092t:  Note on ::  Channel 6.  Note 61.  Velocity 0
000005t:  Note on ::  Channel 6.  Note 59.  Velocity 127
000091t:  Note on ::  Channel 6.  Note 59.  Velocity 0
000005t:  Note on ::  Channel 6.  Note 57.  Velocity 127
000092t:  Note on ::  Channel 6.  Note 57.  Velocity 0
000004t:  Note on ::  Channel 6.  Note 59.  Velocity 127
000092t:  Note on ::  Channel 6.  Note 59.  Velocity 0
000005t:  Note on ::  Channel 6.  Note 61.  Velocity 127
000048t:  Note on ::  Channel 6.  Note 61.  Velocity 0
000000t:  Note on ::  Channel 6.  Note 59.  Velocity 127
000091t:  Note on ::  Channel 6.  Note 59.  Velocity 0
000005t:  Note on ::  Channel 6.  Note 57.  Velocity 127
000088t:  Note on ::  Channel 6.  Note 57.  Velocity 0
000104t:  Note on ::  Channel 6.  Note 62.  Velocity 127
000130t:  Note on ::  Channel 6.  Note 62.  Velocity 0
000015t:  Note on ::  Channel 6.  Note 62.  Velocity 127
000035t:  Note on ::  Channel 6.  Note 62.  Velocity 0
000013t:  Note on ::  Channel 6.  Note 62.  Velocity 127
000034t:  Note on ::  Channel 6.  Note 62.  Velocity 0
000014t:  Note on ::  Channel 6.  Note 62.  Velocity 127
000066t:  Note on ::  Channel 6.  Note 62.  Velocity 0
000464t:  Note on ::  Channel 6.  Note 57.  Velocity 127
000030t:  Note on ::  Channel 6.  Note 57.  Velocity 0
000018t:  Note on ::  Channel 6.  Note 57.  Velocity 127
000028t:  Note on ::  Channel 6.  Note 57.  Velocity 0
000020t:  Note on ::  Channel 6.  Note 57.  Velocity 127
000029t:  Note on ::  Channel 6.  Note 57.  Velocity 0
000020t:  Note on ::  Channel 6.  Note 57.  Velocity 127
000026t:  Note on ::  Channel 6.  Note 57.  Velocity 0
000021t:  Note on ::  Channel 6.  Note 57.  Velocity 127
000027t:  Note on ::  Channel 6.  Note 57.  Velocity 0
000022t:  Note on ::  Channel 6.  Note 57.  Velocity 127
000025t:  Note on ::  Channel 6.  Note 57.  Velocity 0
000023t:  Note on ::  Channel 6.  Note 57.  Velocity 127
000048t:  Note on ::  Channel 6.  Note 56.  Velocity 127
000013t:  Note on ::  Channel 6.  Note 57.  Velocity 0
000079t:  Note on ::  Channel 6.  Note 56.  Velocity 0
000004t:  Note on ::  Channel 6.  Note 54.  Velocity 127
000120t:  Note on ::  Channel 6.  Note 54.  Velocity 0
000121t:  Note on ::  Channel 6.  Note 45.  Velocity 127
000382t:  Note on ::  Channel 6.  Note 45.  Velocity 0
000004t:  Note on ::  Channel 6.  Note 56.  Velocity 127
000381t:  Note on ::  Channel 6.  Note 56.  Velocity 0
000004t:  Note on ::  Channel 6.  Note 57.  Velocity 127
000385t:  Note on ::  Channel 6.  Note 64.  Velocity 127
000120t:  Note on ::  Channel 6.  Note 64.  Velocity 0
000024t:  Note on ::  Channel 6.  Note 66.  Velocity 127
000116t:  Note on ::  Channel 6.  Note 66.  Velocity 0
000004t:  Note on ::  Channel 6.  Note 64.  Velocity 127
000117t:  Note on ::  Channel 6.  Note 57.  Velocity 0
000003t:  Note on ::  Channel 6.  Note 64.  Velocity 0
000002t:  Note on ::  Channel 6.  Note 57.  Velocity 127
000381t:  Note on ::  Channel 6.  Note 57.  Velocity 0
000004t:  Note on ::  Channel 6.  Note 64.  Velocity 127
000380t:  Note on ::  Channel 6.  Note 64.  Velocity 0
000005t:  Note on ::  Channel 6.  Note 66.  Velocity 127
000385t:  Note on ::  Channel 6.  Note 66.  Velocity 0
000000t:  Note on ::  Channel 6.  Note 64.  Velocity 127
000119t:  Note on ::  Channel 6.  Note 64.  Velocity 0
000024t:  Note on ::  Channel 6.  Note 66.  Velocity 127
000121t:  Note on ::  Channel 6.  Note 66.  Velocity 0
000001t:  Note on ::  Channel 6.  Note 64.  Velocity 127
000116t:  Note on ::  Channel 6.  Note 64.  Velocity 0
000005t:  Note on ::  Channel 6.  Note 61.  Velocity 127
000380t:  Note on ::  Channel 6.  Note 61.  Velocity 0
000004t:  Note on ::  Channel 6.  Note 68.  Velocity 127
000376t:  Note on ::  Channel 6.  Note 68.  Velocity 0
000010t:  Note on ::  Channel 6.  Note 69.  Velocity 127
000476t:  Note on ::  Channel 6.  Note 69.  Velocity 0
000005t:  Note on ::  Channel 6.  Note 71.  Velocity 127
000043t:  Note on ::  Channel 6.  Note 71.  Velocity 0
000004t:  Note on ::  Channel 6.  Note 73.  Velocity 127
000094t:  Note on ::  Channel 6.  Note 73.  Velocity 0
000003t:  Note on ::  Channel 6.  Note 71.  Velocity 127
000044t:  Note on ::  Channel 6.  Note 71.  Velocity 0
000005t:  Note on ::  Channel 6.  Note 69.  Velocity 127
000072t:  Note on ::  Channel 6.  Note 69.  Velocity 0
000025t:  Note on ::  Channel 6.  Note 45.  Velocity 127
000000t:  Note on ::  Channel 6.  Note 76.  Velocity 127
000380t:  Note on ::  Channel 6.  Note 45.  Velocity 0
000004t:  Note on ::  Channel 6.  Note 56.  Velocity 127
000381t:  Note on ::  Channel 6.  Note 56.  Velocity 0
000004t:  Note on ::  Channel 6.  Note 57.  Velocity 127
000385t:  Note on ::  Channel 6.  Note 64.  Velocity 127
000000t:  Note on ::  Channel 6.  Note 64.  Velocity 127
000001t:  Note on ::  Channel 6.  Note 64.  Velocity 0
000119t:  Note on ::  Channel 6.  Note 64.  Velocity 0
000024t:  Note on ::  Channel 6.  Note 66.  Velocity 127
000000t:  Note on ::  Channel 6.  Note 66.  Velocity 127
000001t:  Note on ::  Channel 6.  Note 66.  Velocity 0
000111t:  Note on ::  Channel 6.  Note 66.  Velocity 0
000008t:  Note on ::  Channel 6.  Note 64.  Velocity 127
000026t:  Note on ::  Channel 6.  Note 64.  Velocity 0
000000t:  Note on ::  Channel 6.  Note 64.  Velocity 127
000091t:  Note on ::  Channel 6.  Note 64.  Velocity 0
000000t:  Note on ::  Channel 6.  Note 57.  Velocity 0
000000t:  Note on ::  Channel 6.  Note 76.  Velocity 0
000005t:  Note on ::  Channel 6.  Note 57.  Velocity 127
000381t:  Note on ::  Channel 6.  Note 57.  Velocity 0
000004t:  Note on ::  Channel 6.  Note 64.  Velocity 127
000380t:  Note on ::  Channel 6.  Note 64.  Velocity 0
000005t:  Note on ::  Channel 6.  Note 66.  Velocity 127
000385t:  Note on ::  Channel 6.  Note 66.  Velocity 0
000001t:  Note on ::  Channel 6.  Note 64.  Velocity 127
000118t:  Note on ::  Channel 6.  Note 64.  Velocity 0
000025t:  Note on ::  Channel 6.  Note 66.  Velocity 127
000120t:  Note on ::  Channel 6.  Note 66.  Velocity 0
000001t:  Note on ::  Channel 6.  Note 64.  Velocity 127
000116t:  Note on ::  Channel 6.  Note 64.  Velocity 0
000005t:  Note on ::  Channel 6.  Note 61.  Velocity 127
000380t:  Note on ::  Channel 6.  Note 61.  Velocity 0
000005t:  Note on ::  Channel 6.  Note 68.  Velocity 127
000375t:  Note on ::  Channel 6.  Note 68.  Velocity 0
000010t:  Note on ::  Channel 6.  Note 69.  Velocity 127
000477t:  Note on ::  Channel 6.  Note 69.  Velocity 0
000004t:  Note on ::  Channel 6.  Note 71.  Velocity 127
000043t:  Note on ::  Channel 6.  Note 71.  Velocity 0
000004t:  Note on ::  Channel 6.  Note 73.  Velocity 127
000094t:  Note on ::  Channel 6.  Note 73.  Velocity 0
000003t:  Note on ::  Channel 6.  Note 71.  Velocity 127
000044t:  Note on ::  Channel 6.  Note 71.  Velocity 0
000005t:  Note on ::  Channel 6.  Note 69.  Velocity 127
000073t:  Note on ::  Channel 6.  Note 69.  Velocity 0
000024t:  Note on ::  Channel 6.  Note 76.  Velocity 127
000000t:  Note on ::  Channel 6.  Note 45.  Velocity 127
000380t:  Note on ::  Channel 6.  Note 45.  Velocity 0
000004t:  Note on ::  Channel 6.  Note 56.  Velocity 127
000381t:  Note on ::  Channel 6.  Note 56.  Velocity 0
000004t:  Note on ::  Channel 6.  Note 57.  Velocity 127
000386t:  Note on ::  Channel 6.  Note 64.  Velocity 127
000119t:  Note on ::  Channel 6.  Note 64.  Velocity 0
000024t:  Note on ::  Channel 6.  Note 66.  Velocity 127
000112t:  Note on ::  Channel 6.  Note 66.  Velocity 0
000009t:  Note on ::  Channel 6.  Note 64.  Velocity 127
000116t:  Note on ::  Channel 6.  Note 64.  Velocity 0
000000t:  Note on ::  Channel 6.  Note 57.  Velocity 0
000000t:  Note on ::  Channel 6.  Note 76.  Velocity 0
000005t:  Note on ::  Channel 6.  Note 57.  Velocity 127
000339t:  Control change ::  Channel 6.  Controller 7.  Value: 99
000021t:  Control change ::  Channel 6.  Controller 7.  Value: 98
000021t:  Note on ::  Channel 6.  Note 57.  Velocity 0
000004t:  Note on ::  Channel 6.  Note 64.  Velocity 127
000004t:  Control change ::  Channel 6.  Controller 7.  Value: 97
000030t:  Control change ::  Channel 6.  Controller 7.  Value: 96
000011t:  Control change ::  Channel 6.  Controller 7.  Value: 95
000017t:  Control change ::  Channel 6.  Controller 7.  Value: 94
000044t:  Control change ::  Channel 6.  Controller 7.  Value: 93
000032t:  Control change ::  Channel 6.  Controller 7.  Value: 92
000029t:  Control change ::  Channel 6.  Controller 7.  Value: 91
000065t:  Control change ::  Channel 6.  Controller 7.  Value: 90
000047t:  Control change ::  Channel 6.  Controller 7.  Value: 89
000040t:  Control change ::  Channel 6.  Controller 7.  Value: 88
000018t:  Control change ::  Channel 6.  Controller 7.  Value: 87
000044t:  Note on ::  Channel 6.  Note 64.  Velocity 0
000003t:  Control change ::  Channel 6.  Controller 7.  Value: 86
000002t:  Note on ::  Channel 6.  Note 66.  Velocity 127
000011t:  Control change ::  Channel 6.  Controller 7.  Value: 85
000015t:  Control change ::  Channel 6.  Controller 7.  Value: 84
000009t:  Control change ::  Channel 6.  Controller 7.  Value: 83
000021t:  Control change ::  Channel 6.  Controller 7.  Value: 82
000050t:  Control change ::  Channel 6.  Controller 7.  Value: 81
000029t:  Control change ::  Channel 6.  Controller 7.  Value: 80
000026t:  Control change ::  Channel 6.  Controller 7.  Value: 79
000043t:  Control change ::  Channel 6.  Controller 7.  Value: 78
000029t:  Control change ::  Channel 6.  Controller 7.  Value: 77
000014t:  Control change ::  Channel 6.  Controller 7.  Value: 76
000037t:  Control change ::  Channel 6.  Controller 7.  Value: 75
000024t:  Control change ::  Channel 6.  Controller 7.  Value: 74
000015t:  Control change ::  Channel 6.  Controller 7.  Value: 73
000015t:  Control change ::  Channel 6.  Controller 7.  Value: 72
000022t:  Control change ::  Channel 6.  Controller 7.  Value: 71
000022t:  Control change ::  Channel 6.  Controller 7.  Value: 70
000002t:  Note on ::  Channel 6.  Note 66.  Velocity 0
000001t:  Note on ::  Channel 6.  Note 64.  Velocity 127
000026t:  Control change ::  Channel 6.  Controller 7.  Value: 69
000011t:  Control change ::  Channel 6.  Controller 7.  Value: 68
000011t:  Control change ::  Channel 6.  Controller 7.  Value: 67
000004t:  Control change ::  Channel 6.  Controller 7.  Value: 66
000011t:  Control change ::  Channel 6.  Controller 7.  Value: 65
000029t:  Control change ::  Channel 6.  Controller 7.  Value: 64
000014t:  Control change ::  Channel 6.  Controller 7.  Value: 63
000013t:  Note on ::  Channel 6.  Note 64.  Velocity 0
000024t:  Note on ::  Channel 6.  Note 66.  Velocity 127
000011t:  Control change ::  Channel 6.  Controller 7.  Value: 62
000064t:  Control change ::  Channel 6.  Controller 7.  Value: 61
000022t:  Note on ::  Channel 6.  Note 66.  Velocity 0
000000t:  Control change ::  Channel 6.  Controller 7.  Value: 60
000024t:  Note on ::  Channel 6.  Note 64.  Velocity 127
000009t:  Control change ::  Channel 6.  Controller 7.  Value: 59
000032t:  Control change ::  Channel 6.  Controller 7.  Value: 58
000043t:  Control change ::  Channel 6.  Controller 7.  Value: 57
000032t:  Note on ::  Channel 6.  Note 64.  Velocity 0
000006t:  Control change ::  Channel 6.  Controller 7.  Value: 56
000000t:  Note on ::  Channel 6.  Note 61.  Velocity 127
000027t:  Control change ::  Channel 6.  Controller 7.  Value: 55
000015t:  Control change ::  Channel 6.  Controller 7.  Value: 54
000022t:  Control change ::  Channel 6.  Controller 7.  Value: 53
000057t:  Control change ::  Channel 6.  Controller 7.  Value: 52
000028t:  Control change ::  Channel 6.  Controller 7.  Value: 51
000027t:  Control change ::  Channel 6.  Controller 7.  Value: 50
000010t:  Control change ::  Channel 6.  Controller 7.  Value: 49
000019t:  Control change ::  Channel 6.  Controller 7.  Value: 48
000043t:  Control change ::  Channel 6.  Controller 7.  Value: 47
000018t:  Control change ::  Channel 6.  Controller 7.  Value: 46
000022t:  Control change ::  Channel 6.  Controller 7.  Value: 45
000018t:  Control change ::  Channel 6.  Controller 7.  Value: 44
000014t:  Control change ::  Channel 6.  Controller 7.  Value: 43
000041t:  Control change ::  Channel 6.  Controller 7.  Value: 42
000011t:  Control change ::  Channel 6.  Controller 7.  Value: 41
000007t:  Note on ::  Channel 6.  Note 61.  Velocity 0
000003t:  Control change ::  Channel 6.  Controller 7.  Value: 40
000002t:  Note on ::  Channel 6.  Note 68.  Velocity 127
000023t:  Control change ::  Channel 6.  Controller 7.  Value: 39
000016t:  Control change ::  Channel 6.  Controller 7.  Value: 38
000011t:  Control change ::  Channel 6.  Controller 7.  Value: 37
000017t:  Control change ::  Channel 6.  Controller 7.  Value: 36
000047t:  Control change ::  Channel 6.  Controller 7.  Value: 35
000019t:  Control change ::  Channel 6.  Controller 7.  Value: 34
000025t:  Control change ::  Channel 6.  Controller 7.  Value: 33
000025t:  Control change ::  Channel 6.  Controller 7.  Value: 32
000026t:  Control change ::  Channel 6.  Controller 7.  Value: 31
000028t:  Control change ::  Channel 6.  Controller 7.  Value: 30
000029t:  Control change ::  Channel 6.  Controller 7.  Value: 29
000012t:  Control change ::  Channel 6.  Controller 7.  Value: 28
000035t:  Control change ::  Channel 6.  Controller 7.  Value: 27
000019t:  Control change ::  Channel 6.  Controller 7.  Value: 26
000015t:  Control change ::  Channel 6.  Controller 7.  Value: 25
000007t:  Control change ::  Channel 6.  Controller 7.  Value: 24
000021t:  Note on ::  Channel 6.  Note 68.  Velocity 0
000003t:  Control change ::  Channel 6.  Controller 7.  Value: 23
000008t:  Control change ::  Channel 6.  Controller 7.  Value: 22
000000t:  Note on ::  Channel 6.  Note 69.  Velocity 127
000011t:  Control change ::  Channel 6.  Controller 7.  Value: 21
000008t:  Control change ::  Channel 6.  Controller 7.  Value: 20
000011t:  Control change ::  Channel 6.  Controller 7.  Value: 19
000007t:  Control change ::  Channel 6.  Controller 7.  Value: 18
000008t:  Control change ::  Channel 6.  Controller 7.  Value: 17
000024t:  Control change ::  Channel 6.  Controller 7.  Value: 16
000019t:  Control change ::  Channel 6.  Controller 7.  Value: 15
000018t:  Control change ::  Channel 6.  Controller 7.  Value: 14
000011t:  Control change ::  Channel 6.  Controller 7.  Value: 13
000015t:  Control change ::  Channel 6.  Controller 7.  Value: 12
000032t:  Control change ::  Channel 6.  Controller 7.  Value: 11
000013t:  Control change ::  Channel 6.  Controller 7.  Value: 10
000006t:  Control change ::  Channel 6.  Controller 7.  Value: 9
000036t:  Control change ::  Channel 6.  Controller 7.  Value: 8
000004t:  Control change ::  Channel 6.  Controller 7.  Value: 7
000004t:  Control change ::  Channel 6.  Controller 7.  Value: 6
000004t:  Control change ::  Channel 6.  Controller 7.  Value: 5
000007t:  Control change ::  Channel 6.  Controller 7.  Value: 4
000008t:  Control change ::  Channel 6.  Controller 7.  Value: 3
000043t:  Control change ::  Channel 6.  Controller 7.  Value: 2
000015t:  Control change ::  Channel 6.  Controller 7.  Value: 1
000011t:  Control change ::  Channel 6.  Controller 7.  Value: 0
000161t:  Note on ::  Channel 6.  Note 69.  Velocity 0
000005t:  Note on ::  Channel 6.  Note 71.  Velocity 127
000042t:  Note on ::  Channel 6.  Note 71.  Velocity 0
000005t:  Note on ::  Channel 6.  Note 73.  Velocity 127
000093t:  Note on ::  Channel 6.  Note 73.  Velocity 0
000003t:  Note on ::  Channel 6.  Note 71.  Velocity 127
000044t:  Note on ::  Channel 6.  Note 71.  Velocity 0
000005t:  Note on ::  Channel 6.  Note 69.  Velocity 127
000073t:  Note on ::  Channel 6.  Note 69.  Velocity 0
000023t:  Control change ::  Channel 6.  Controller 7.  Value: 99
000000t:  Program (patch) change ::  Channel 6.  Patch 107 (Koto)
000353t:  Control change ::  Channel 6.  Controller 64.  Value: 0
000001t:  Pitch wheel change ::  Channel 6.   -8192
000000t:  Meta-event type $2f (End-track event) of length 0
Sigma t = 60799

Track chunk of 837 bytes
000000t:  Meta-event type $21 (?) of length 1
	  _
000000t:  Meta-event type $03 (Track name) of length 20
	  Chorale             
000000t:  Program (patch) change ::  Channel 7.  Patch 52 (Choir Aahs)
000000t:  Control change ::  Channel 7.  Controller 7.  Value: 95
000000t:  Control change ::  Channel 7.  Controller 10.  Value: 40
014222t:  Note on ::  Channel 7.  Note 64.  Velocity 127
000001t:  Note on ::  Channel 7.  Note 57.  Velocity 127
000380t:  Note on ::  Channel 7.  Note 57.  Velocity 0
000004t:  Note on ::  Channel 7.  Note 56.  Velocity 127
000357t:  Note on ::  Channel 7.  Note 56.  Velocity 0
000000t:  Note on ::  Channel 7.  Note 64.  Velocity 0
000004t:  Note on ::  Channel 7.  Note 61.  Velocity 127
000000t:  Note on ::  Channel 7.  Note 66.  Velocity 127
000551t:  Note on ::  Channel 7.  Note 66.  Velocity 0
000240t:  Note on ::  Channel 7.  Note 61.  Velocity 0
000004t:  Note on ::  Channel 7.  Note 64.  Velocity 127
000000t:  Note on ::  Channel 7.  Note 57.  Velocity 127
000381t:  Note on ::  Channel 7.  Note 57.  Velocity 0
000004t:  Note on ::  Channel 7.  Note 56.  Velocity 127
000356t:  Note on ::  Channel 7.  Note 56.  Velocity 0
000000t:  Note on ::  Channel 7.  Note 64.  Velocity 0
000005t:  Note on ::  Channel 7.  Note 61.  Velocity 127
000000t:  Note on ::  Channel 7.  Note 66.  Velocity 127
000550t:  Note on ::  Channel 7.  Note 66.  Velocity 0
000240t:  Note on ::  Channel 7.  Note 61.  Velocity 0
000005t:  Note on ::  Channel 7.  Note 64.  Velocity 127
000000t:  Note on ::  Channel 7.  Note 61.  Velocity 127
000761t:  Note on ::  Channel 7.  Note 61.  Velocity 0
000001t:  Note on ::  Channel 7.  Note 64.  Velocity 0
000008t:  Note on ::  Channel 7.  Note 66.  Velocity 127
000762t:  Note on ::  Channel 7.  Note 66.  Velocity 0
000009t:  Note on ::  Channel 7.  Note 64.  Velocity 127
000001t:  Note on ::  Channel 7.  Note 71.  Velocity 127
001535t:  Note on ::  Channel 7.  Note 71.  Velocity 0
000000t:  Note on ::  Channel 7.  Note 64.  Velocity 0
004626t:  Note on ::  Channel 7.  Note 64.  Velocity 127
000001t:  Note on ::  Channel 7.  Note 57.  Velocity 127
000380t:  Note on ::  Channel 7.  Note 57.  Velocity 0
000005t:  Note on ::  Channel 7.  Note 56.  Velocity 127
000356t:  Note on ::  Channel 7.  Note 56.  Velocity 0
000000t:  Note on ::  Channel 7.  Note 64.  Velocity 0
000004t:  Note on ::  Channel 7.  Note 61.  Velocity 127
000000t:  Note on ::  Channel 7.  Note 66.  Velocity 127
000550t:  Note on ::  Channel 7.  Note 66.  Velocity 0
000241t:  Note on ::  Channel 7.  Note 61.  Velocity 0
000004t:  Note on ::  Channel 7.  Note 64.  Velocity 127
000000t:  Note on ::  Channel 7.  Note 57.  Velocity 127
000381t:  Note on ::  Channel 7.  Note 57.  Velocity 0
000004t:  Note on ::  Channel 7.  Note 56.  Velocity 127
000356t:  Note on ::  Channel 7.  Note 56.  Velocity 0
000000t:  Note on ::  Channel 7.  Note 64.  Velocity 0
000005t:  Note on ::  Channel 7.  Note 61.  Velocity 127
000000t:  Note on ::  Channel 7.  Note 66.  Velocity 127
000550t:  Note on ::  Channel 7.  Note 66.  Velocity 0
000240t:  Note on ::  Channel 7.  Note 61.  Velocity 0
000005t:  Note on ::  Channel 7.  Note 64.  Velocity 127
000000t:  Note on ::  Channel 7.  Note 61.  Velocity 127
000762t:  Note on ::  Channel 7.  Note 61.  Velocity 0
000000t:  Note on ::  Channel 7.  Note 64.  Velocity 0
000008t:  Note on ::  Channel 7.  Note 66.  Velocity 127
000762t:  Note on ::  Channel 7.  Note 66.  Velocity 0
000009t:  Note on ::  Channel 7.  Note 64.  Velocity 127
000001t:  Note on ::  Channel 7.  Note 71.  Velocity 127
001535t:  Note on ::  Channel 7.  Note 71.  Velocity 0
000000t:  Note on ::  Channel 7.  Note 64.  Velocity 0
015411t:  Note on ::  Channel 7.  Note 64.  Velocity 127
000001t:  Note on ::  Channel 7.  Note 57.  Velocity 127
000381t:  Note on ::  Channel 7.  Note 57.  Velocity 0
000005t:  Note on ::  Channel 7.  Note 56.  Velocity 127
000356t:  Note on ::  Channel 7.  Note 56.  Velocity 0
000000t:  Note on ::  Channel 7.  Note 64.  Velocity 0
000005t:  Note on ::  Channel 7.  Note 61.  Velocity 127
000000t:  Note on ::  Channel 7.  Note 66.  Velocity 127
000548t:  Note on ::  Channel 7.  Note 66.  Velocity 0
000242t:  Note on ::  Channel 7.  Note 61.  Velocity 0
000004t:  Note on ::  Channel 7.  Note 64.  Velocity 127
000001t:  Note on ::  Channel 7.  Note 57.  Velocity 127
000380t:  Note on ::  Channel 7.  Note 57.  Velocity 0
000005t:  Note on ::  Channel 7.  Note 56.  Velocity 127
000356t:  Note on ::  Channel 7.  Note 56.  Velocity 0
000000t:  Note on ::  Channel 7.  Note 64.  Velocity 0
000004t:  Note on ::  Channel 7.  Note 61.  Velocity 127
000000t:  Note on ::  Channel 7.  Note 66.  Velocity 127
000549t:  Note on ::  Channel 7.  Note 66.  Velocity 0
000242t:  Note on ::  Channel 7.  Note 61.  Velocity 0
000004t:  Note on ::  Channel 7.  Note 64.  Velocity 127
000000t:  Note on ::  Channel 7.  Note 61.  Velocity 127
000762t:  Note on ::  Channel 7.  Note 61.  Velocity 0
000000t:  Note on ::  Channel 7.  Note 64.  Velocity 0
000008t:  Note on ::  Channel 7.  Note 66.  Velocity 127
000762t:  Note on ::  Channel 7.  Note 66.  Velocity 0
000009t:  Note on ::  Channel 7.  Note 64.  Velocity 127
000001t:  Note on ::  Channel 7.  Note 71.  Velocity 127
001535t:  Note on ::  Channel 7.  Note 71.  Velocity 0
000000t:  Note on ::  Channel 7.  Note 64.  Velocity 0
000005t:  Note on ::  Channel 7.  Note 57.  Velocity 127
000000t:  Note on ::  Channel 7.  Note 64.  Velocity 127
000380t:  Note on ::  Channel 7.  Note 57.  Velocity 0
000005t:  Note on ::  Channel 7.  Note 56.  Velocity 127
000356t:  Note on ::  Channel 7.  Note 56.  Velocity 0
000000t:  Note on ::  Channel 7.  Note 64.  Velocity 0
000004t:  Note on ::  Channel 7.  Note 61.  Velocity 127
000000t:  Note on ::  Channel 7.  Note 66.  Velocity 127
000549t:  Note on ::  Channel 7.  Note 66.  Velocity 0
000242t:  Note on ::  Channel 7.  Note 61.  Velocity 0
000004t:  Note on ::  Channel 7.  Note 64.  Velocity 127
000001t:  Note on ::  Channel 7.  Note 61.  Velocity 127
000761t:  Note on ::  Channel 7.  Note 61.  Velocity 0
000000t:  Note on ::  Channel 7.  Note 64.  Velocity 0
000009t:  Note on ::  Channel 7.  Note 66.  Velocity 127
000761t:  Note on ::  Channel 7.  Note 66.  Velocity 0
000009t:  Note on ::  Channel 7.  Note 64.  Velocity 127
000000t:  Note on ::  Channel 7.  Note 71.  Velocity 127
000449t:  Control change ::  Channel 7.  Controller 7.  Value: 125
000171t:  Control change ::  Channel 7.  Controller 7.  Value: 124
000069t:  Control change ::  Channel 7.  Controller 7.  Value: 123
000085t:  Control change ::  Channel 7.  Controller 7.  Value: 122
000087t:  Control change ::  Channel 7.  Controller 7.  Value: 121
000061t:  Control change ::  Channel 7.  Controller 7.  Value: 120
000033t:  Control change ::  Channel 7.  Controller 7.  Value: 119
000074t:  Control change ::  Channel 7.  Controller 7.  Value: 118
000080t:  Control change ::  Channel 7.  Controller 7.  Value: 117
000029t:  Control change ::  Channel 7.  Controller 7.  Value: 116
000076t:  Control change ::  Channel 7.  Controller 7.  Value: 115
000032t:  Control change ::  Channel 7.  Controller 7.  Value: 114
000057t:  Control change ::  Channel 7.  Controller 7.  Value: 113
000033t:  Control change ::  Channel 7.  Controller 7.  Value: 112
000021t:  Control change ::  Channel 7.  Controller 7.  Value: 111
000072t:  Control change ::  Channel 7.  Controller 7.  Value: 110
000046t:  Control change ::  Channel 7.  Controller 7.  Value: 109
000030t:  Control change ::  Channel 7.  Controller 7.  Value: 108
000031t:  Note on ::  Channel 7.  Note 71.  Velocity 0
000000t:  Note on ::  Channel 7.  Note 64.  Velocity 0
000005t:  Note on ::  Channel 7.  Note 64.  Velocity 127
000000t:  Note on ::  Channel 7.  Note 57.  Velocity 127
000380t:  Note on ::  Channel 7.  Note 57.  Velocity 0
000005t:  Note on ::  Channel 7.  Note 56.  Velocity 127
000105t:  Control change ::  Channel 7.  Controller 7.  Value: 93
000033t:  Control change ::  Channel 7.  Controller 7.  Value: 92
000029t:  Control change ::  Channel 7.  Controller 7.  Value: 91
000065t:  Control change ::  Channel 7.  Controller 7.  Value: 90
000047t:  Control change ::  Channel 7.  Controller 7.  Value: 89
000039t:  Control change ::  Channel 7.  Controller 7.  Value: 88
000018t:  Control change ::  Channel 7.  Controller 7.  Value: 87
000020t:  Note on ::  Channel 7.  Note 56.  Velocity 0
000000t:  Note on ::  Channel 7.  Note 64.  Velocity 0
000004t:  Note on ::  Channel 7.  Note 66.  Velocity 127
000000t:  Note on ::  Channel 7.  Note 61.  Velocity 127
000024t:  Control change ::  Channel 7.  Controller 7.  Value: 86
000013t:  Control change ::  Channel 7.  Controller 7.  Value: 85
000015t:  Control change ::  Channel 7.  Controller 7.  Value: 84
000008t:  Control change ::  Channel 7.  Controller 7.  Value: 83
000022t:  Control change ::  Channel 7.  Controller 7.  Value: 82
000050t:  Control change ::  Channel 7.  Controller 7.  Value: 81
000029t:  Control change ::  Channel 7.  Controller 7.  Value: 80
000025t:  Control change ::  Channel 7.  Controller 7.  Value: 79
000044t:  Control change ::  Channel 7.  Controller 7.  Value: 78
000028t:  Control change ::  Channel 7.  Controller 7.  Value: 77
000015t:  Control change ::  Channel 7.  Controller 7.  Value: 76
000037t:  Control change ::  Channel 7.  Controller 7.  Value: 75
000024t:  Control change ::  Channel 7.  Controller 7.  Value: 74
000015t:  Control change ::  Channel 7.  Controller 7.  Value: 73
000015t:  Control change ::  Channel 7.  Controller 7.  Value: 72
000022t:  Control change ::  Channel 7.  Controller 7.  Value: 71
000021t:  Control change ::  Channel 7.  Controller 7.  Value: 70
000030t:  Control change ::  Channel 7.  Controller 7.  Value: 69
000011t:  Control change ::  Channel 7.  Controller 7.  Value: 68
000011t:  Control change ::  Channel 7.  Controller 7.  Value: 67
000004t:  Control change ::  Channel 7.  Controller 7.  Value: 66
000011t:  Control change ::  Channel 7.  Controller 7.  Value: 65
000028t:  Control change ::  Channel 7.  Controller 7.  Value: 64
000015t:  Control change ::  Channel 7.  Controller 7.  Value: 63
000033t:  Note on ::  Channel 7.  Note 66.  Velocity 0
000015t:  Control change ::  Channel 7.  Controller 7.  Value: 62
000063t:  Control change ::  Channel 7.  Controller 7.  Value: 61
000022t:  Control change ::  Channel 7.  Controller 7.  Value: 60
000034t:  Control change ::  Channel 7.  Controller 7.  Value: 59
000031t:  Control change ::  Channel 7.  Controller 7.  Value: 58
000044t:  Control change ::  Channel 7.  Controller 7.  Value: 57
000032t:  Note on ::  Channel 7.  Note 61.  Velocity 0
000005t:  Note on ::  Channel 7.  Note 64.  Velocity 127
000000t:  Control change ::  Channel 7.  Controller 7.  Value: 56
000000t:  Note on ::  Channel 7.  Note 61.  Velocity 127
000028t:  Control change ::  Channel 7.  Controller 7.  Value: 55
000015t:  Control change ::  Channel 7.  Controller 7.  Value: 54
000021t:  Control change ::  Channel 7.  Controller 7.  Value: 53
000057t:  Control change ::  Channel 7.  Controller 7.  Value: 52
000029t:  Control change ::  Channel 7.  Controller 7.  Value: 51
000027t:  Control change ::  Channel 7.  Controller 7.  Value: 50
000009t:  Control change ::  Channel 7.  Controller 7.  Value: 49
000019t:  Control change ::  Channel 7.  Controller 7.  Value: 48
000044t:  Control change ::  Channel 7.  Controller 7.  Value: 47
000017t:  Control change ::  Channel 7.  Controller 7.  Value: 46
000023t:  Control change ::  Channel 7.  Controller 7.  Value: 45
000018t:  Control change ::  Channel 7.  Controller 7.  Value: 44
000014t:  Control change ::  Channel 7.  Controller 7.  Value: 43
000041t:  Control change ::  Channel 7.  Controller 7.  Value: 42
000010t:  Control change ::  Channel 7.  Controller 7.  Value: 41
000011t:  Control change ::  Channel 7.  Controller 7.  Value: 40
000025t:  Control change ::  Channel 7.  Controller 7.  Value: 39
000016t:  Control change ::  Channel 7.  Controller 7.  Value: 38
000011t:  Control change ::  Channel 7.  Controller 7.  Value: 37
000017t:  Control change ::  Channel 7.  Controller 7.  Value: 36
000046t:  Control change ::  Channel 7.  Controller 7.  Value: 35
000019t:  Control change ::  Channel 7.  Controller 7.  Value: 34
000026t:  Control change ::  Channel 7.  Controller 7.  Value: 33
000025t:  Control change ::  Channel 7.  Controller 7.  Value: 32
000025t:  Control change ::  Channel 7.  Controller 7.  Value: 31
000029t:  Control change ::  Channel 7.  Controller 7.  Value: 30
000028t:  Control change ::  Channel 7.  Controller 7.  Value: 29
000013t:  Control change ::  Channel 7.  Controller 7.  Value: 28
000035t:  Control change ::  Channel 7.  Controller 7.  Value: 27
000019t:  Control change ::  Channel 7.  Controller 7.  Value: 26
000015t:  Control change ::  Channel 7.  Controller 7.  Value: 25
000006t:  Control change ::  Channel 7.  Controller 7.  Value: 24
000023t:  Note on ::  Channel 7.  Note 61.  Velocity 0
000000t:  Note on ::  Channel 7.  Note 64.  Velocity 0
000002t:  Control change ::  Channel 7.  Controller 7.  Value: 23
000007t:  Note on ::  Channel 7.  Note 66.  Velocity 127
000000t:  Control change ::  Channel 7.  Controller 7.  Value: 22
000012t:  Control change ::  Channel 7.  Controller 7.  Value: 21
000008t:  Control change ::  Channel 7.  Controller 7.  Value: 20
000011t:  Control change ::  Channel 7.  Controller 7.  Value: 19
000007t:  Control change ::  Channel 7.  Controller 7.  Value: 18
000008t:  Control change ::  Channel 7.  Controller 7.  Value: 17
000024t:  Control change ::  Channel 7.  Controller 7.  Value: 16
000019t:  Control change ::  Channel 7.  Controller 7.  Value: 15
000018t:  Control change ::  Channel 7.  Controller 7.  Value: 14
000011t:  Control change ::  Channel 7.  Controller 7.  Value: 13
000015t:  Control change ::  Channel 7.  Controller 7.  Value: 12
000032t:  Control change ::  Channel 7.  Controller 7.  Value: 11
000012t:  Control change ::  Channel 7.  Controller 7.  Value: 10
000007t:  Control change ::  Channel 7.  Controller 7.  Value: 9
000035t:  Control change ::  Channel 7.  Controller 7.  Value: 8
000004t:  Control change ::  Channel 7.  Controller 7.  Value: 7
000004t:  Control change ::  Channel 7.  Controller 7.  Value: 6
000005t:  Control change ::  Channel 7.  Controller 7.  Value: 5
000006t:  Control change ::  Channel 7.  Controller 7.  Value: 4
000008t:  Control change ::  Channel 7.  Controller 7.  Value: 3
000043t:  Control change ::  Channel 7.  Controller 7.  Value: 2
000016t:  Control change ::  Channel 7.  Controller 7.  Value: 1
000011t:  Control change ::  Channel 7.  Controller 7.  Value: 0
000446t:  Note on ::  Channel 7.  Note 66.  Velocity 0
000008t:  Control change ::  Channel 7.  Controller 7.  Value: 93
000000t:  Program (patch) change ::  Channel 7.  Patch 34 (Electric Bass(pick))
000356t:  Control change ::  Channel 7.  Controller 64.  Value: 0
000001t:  Pitch wheel change ::  Channel 7.   -8192
000000t:  Meta-event type $2f (End-track event) of length 0
Sigma t = 60802

Track chunk of 18096 bytes
000000t:  Meta-event type $21 (?) of length 1
	  _
000000t:  Meta-event type $03 (Track name) of length 20
	  Percussion          
000000t:  Program (patch) change ::  Channel 9.  Patch 0 (Acoustic Grand)
000000t:  Control change ::  Channel 9.  Controller 7.  Value: 125
000355t:  Note on ::  Channel 9.  Note 36.  Velocity 127
000000t:  Note on ::  Channel 9.  Note 61.  Velocity 127
000001t:  Note on ::  Channel 9.  Note 42.  Velocity 127
000023t:  Note on ::  Channel 9.  Note 61.  Velocity 0
000000t:  Note on ::  Channel 9.  Note 36.  Velocity 0
000001t:  Note on ::  Channel 9.  Note 42.  Velocity 0
000023t:  Note on ::  Channel 9.  Note 61.  Velocity 127
000000t:  Note on ::  Channel 9.  Note 42.  Velocity 127
000020t:  Note on ::  Channel 9.  Note 42.  Velocity 0
000003t:  Note on ::  Channel 9.  Note 61.  Velocity 0
000026t:  Note on ::  Channel 9.  Note 38.  Velocity 127
000000t:  Note on ::  Channel 9.  Note 61.  Velocity 127
000000t:  Note on ::  Channel 9.  Note 42.  Velocity 127
000021t:  Note on ::  Channel 9.  Note 42.  Velocity 0
000002t:  Note on ::  Channel 9.  Note 61.  Velocity 0
000000t:  Note on ::  Channel 9.  Note 38.  Velocity 0
000024t:  Note on ::  Channel 9.  Note 61.  Velocity 127
000000t:  Note on ::  Channel 9.  Note 42.  Velocity 127
000023t:  Note on ::  Channel 9.  Note 42.  Velocity 0
000000t:  Note on ::  Channel 9.  Note 61.  Velocity 0
000026t:  Note on ::  Channel 9.  Note 36.  Velocity 127
000000t:  Note on ::  Channel 9.  Note 61.  Velocity 127
000000t:  Note on ::  Channel 9.  Note 40.  Velocity 127
000001t:  Note on ::  Channel 9.  Note 51.  Velocity 127
000000t:  Note on ::  Channel 9.  Note 42.  Velocity 127
000022t:  Note on ::  Channel 9.  Note 42.  Velocity 0
000000t:  Note on ::  Channel 9.  Note 36.  Velocity 0
000000t:  Note on ::  Channel 9.  Note 61.  Velocity 0
000024t:  Note on ::  Channel 9.  Note 36.  Velocity 127
000000t:  Note on ::  Channel 9.  Note 61.  Velocity 127
000001t:  Note on ::  Channel 9.  Note 42.  Velocity 127
000022t:  Note on ::  Channel 9.  Note 61.  Velocity 0
000000t:  Note on ::  Channel 9.  Note 36.  Velocity 0
000003t:  Note on ::  Channel 9.  Note 42.  Velocity 0
000023t:  Note on ::  Channel 9.  Note 40.  Velocity 0
000001t:  Note on ::  Channel 9.  Note 38.  Velocity 127
000000t:  Note on ::  Channel 9.  Note 61.  Velocity 127
000000t:  Note on ::  Channel 9.  Note 42.  Velocity 127
000003t:  Note on ::  Channel 9.  Note 51.  Velocity 0
000019t:  Note on ::  Channel 9.  Note 38.  Velocity 0
000000t:  Note on ::  Channel 9.  Note 61.  Velocity 0
000002t:  Note on ::  Channel 9.  Note 42.  Velocity 0
000023t:  Note on ::  Channel 9.  Note 61.  Velocity 127
000000t:  Note on ::  Channel 9.  Note 42.  Velocity 127
000023t:  Note on ::  Channel 9.  Note 61.  Velocity 0
000002t:  Note on ::  Channel 9.  Note 42.  Velocity 0
000024t:  Note on ::  Channel 9.  Note 36.  Velocity 127
000000t:  Note on ::  Channel 9.  Note 61.  Velocity 127
000000t:  Note on ::  Channel 9.  Note 42.  Velocity 127
000023t:  Note on ::  Channel 9.  Note 61.  Velocity 0
000000t:  Note on ::  Channel 9.  Note 36.  Velocity 0
000005t:  Note on ::  Channel 9.  Note 42.  Velocity 0
000019t:  Note on ::  Channel 9.  Note 61.  Velocity 127
000000t:  Note on ::  Channel 9.  Note 42.  Velocity 127
000023t:  Note on ::  Channel 9.  Note 42.  Velocity 0
000000t:  Note on ::  Channel 9.  Note 61.  Velocity 0
000026t:  Note on ::  Channel 9.  Note 38.  Velocity 127
000000t:  Note on ::  Channel 9.  Note 61.  Velocity 127
000000t:  Note on ::  Channel 9.  Note 42.  Velocity 127
000023t:  Note on ::  Channel 9.  Note 42.  Velocity 0
000000t:  Note on ::  Channel 9.  Note 61.  Velocity 0
000000t:  Note on ::  Channel 9.  Note 38.  Velocity 0
000024t:  Note on ::  Channel 9.  Note 61.  Velocity 127
000000t:  Note on ::  Channel 9.  Note 42.  Velocity 127
000023t:  Note on ::  Channel 9.  Note 61.  Velocity 0
000002t:  Note on ::  Channel 9.  Note 42.  Velocity 0
000024t:  Note on ::  Channel 9.  Note 36.  Velocity 127
000000t:  Note on ::  Channel 9.  Note 61.  Velocity 127
000001t:  Note on ::  Channel 9.  Note 51.  Velocity 127
000000t:  Note on ::  Channel 9.  Note 40.  Velocity 127
000000t:  Note on ::  Channel 9.  Note 42.  Velocity 127
000022t:  Note on ::  Channel 9.  Note 61.  Velocity 0
000000t:  Note on ::  Channel 9.  Note 36.  Velocity 0
000001t:  Note on ::  Channel 9.  Note 42.  Velocity 0
000024t:  Note on ::  Channel 9.  Note 36.  Velocity 127
000000t:  Note on ::  Channel 9.  Note 61.  Velocity 127
000000t:  Note on ::  Channel 9.  Note 42.  Velocity 127
000023t:  Note on ::  Channel 9.  Note 61.  Velocity 0
000000t:  Note on ::  Channel 9.  Note 36.  Velocity 0
000001t:  Note on ::  Channel 9.  Note 42.  Velocity 0
000015t:  Note on ::  Channel 9.  Note 51.  Velocity 0
000001t:  Note on ::  Channel 9.  Note 40.  Velocity 0
000009t:  Note on ::  Channel 9.  Note 38.  Velocity 127
000000t:  Note on ::  Channel 9.  Note 61.  Velocity 127
000000t:  Note on ::  Channel 9.  Note 42.  Velocity 127
000022t:  Note on ::  Channel 9.  Note 61.  Velocity 0
000000t:  Note on ::  Channel 9.  Note 38.  Velocity 0
000002t:  Note on ::  Channel 9.  Note 42.  Velocity 0
000023t:  Note on ::  Channel 9.  Note 61.  Velocity 127
000000t:  Note on ::  Channel 9.  Note 42.  Velocity 127
000023t:  Note on ::  Channel 9.  Note 61.  Velocity 0
000003t:  Note on ::  Channel 9.  Note 42.  Velocity 0
000023t:  Note on ::  Channel 9.  Note 36.  Velocity 127
000000t:  Note on ::  Channel 9.  Note 61.  Velocity 127
000000t:  Note on ::  Channel 9.  Note 42.  Velocity 127
000023t:  Note on ::  Channel 9.  Note 61.  Velocity 0
000000t:  Note on ::  Channel 9.  Note 36.  Velocity 0
000001t:  Note on ::  Channel 9.  Note 42.  Velocity 0
000023t:  Note on ::  Channel 9.  Note 61.  Velocity 127
000000t:  Note on ::  Channel 9.  Note 42.  Velocity 127
000023t:  Note on ::  Channel 9.  Note 61.  Velocity 0
000003t:  Note on ::  Channel 9.  Note 42.  Velocity 0
000023t:  Note on ::  Channel 9.  Note 38.  Velocity 127
000000t:  Note on ::  Channel 9.  Note 61.  Velocity 127
000001t:  Note on ::  Channel 9.  Note 42.  Velocity 127
000022t:  Note on ::  Channel 9.  Note 42.  Velocity 0
000000t:  Note on ::  Channel 9.  Note 61.  Velocity 0
000000t:  Note on ::  Channel 9.  Note 38.  Velocity 0
000024t:  Note on ::  Channel 9.  Note 61.  Velocity 127
000001t:  Note on ::  Channel 9.  Note 42.  Velocity 127
000023t:  Note on ::  Channel 9.  Note 42.  Velocity 0
000000t:  Note on ::  Channel 9.  Note 61.  Velocity 0
000025t:  Note on ::  Channel 9.  Note 36.  Velocity 127
000001t:  Note on ::  Channel 9.  Note 61.  Velocity 127
000000t:  Note on ::  Channel 9.  Note 40.  Velocity 127
000000t:  Note on ::  Channel 9.  Note 51.  Velocity 127
000000t:  Note on ::  Channel 9.  Note 42.  Velocity 127
000022t:  Note on ::  Channel 9.  Note 42.  Velocity 0
000000t:  Note on ::  Channel 9.  Note 36.  Velocity 0
000001t:  Note on ::  Channel 9.  Note 61.  Velocity 0
000024t:  Note on ::  Channel 9.  Note 36.  Velocity 127
000000t:  Note on ::  Channel 9.  Note 61.  Velocity 127
000000t:  Note on ::  Channel 9.  Note 42.  Velocity 127
000023t:  Note on ::  Channel 9.  Note 42.  Velocity 0
000000t:  Note on ::  Channel 9.  Note 36.  Velocity 0
000000t:  Note on ::  Channel 9.  Note 61.  Velocity 0
000026t:  Note on ::  Channel 9.  Note 40.  Velocity 0
000000t:  Note on ::  Channel 9.  Note 38.  Velocity 127
000000t:  Note on ::  Channel 9.  Note 61.  Velocity 127
000000t:  Note on ::  Channel 9.  Note 42.  Velocity 127
000004t:  Note on ::  Channel 9.  Note 51.  Velocity 0
000019t:  Note on ::  Channel 9.  Note 38.  Velocity 0
000000t:  Note on ::  Channel 9.  Note 61.  Velocity 0
000000t:  Note on ::  Channel 9.  Note 42.  Velocity 0
000024t:  Note on ::  Channel 9.  Note 61.  Velocity 127
000000t:  Note on ::  Channel 9.  Note 42.  Velocity 127
000023t:  Note on ::  Channel 9.  Note 42.  Velocity 0
000000t:  Note on ::  Channel 9.  Note 61.  Velocity 0
000026t:  Note on ::  Channel 9.  Note 36.  Velocity 127
000000t:  Note on ::  Channel 9.  Note 61.  Velocity 127
000000t:  Note on ::  Channel 9.  Note 42.  Velocity 127
000018t:  Note on ::  Channel 9.  Note 42.  Velocity 0
000005t:  Note on ::  Channel 9.  Note 61.  Velocity 0
000000t:  Note on ::  Channel 9.  Note 36.  Velocity 0
000024t:  Note on ::  Channel 9.  Note 61.  Velocity 127
000001t:  Note on ::  Channel 9.  Note 42.  Velocity 127
000017t:  Note on ::  Channel 9.  Note 42.  Velocity 0
000005t:  Note on ::  Channel 9.  Note 61.  Velocity 0
000026t:  Note on ::  Channel 9.  Note 38.  Velocity 127
000000t:  Note on ::  Channel 9.  Note 61.  Velocity 127
000001t:  Note on ::  Channel 9.  Note 42.  Velocity 127
000020t:  Note on ::  Channel 9.  Note 42.  Velocity 0
000002t:  Note on ::  Channel 9.  Note 61.  Velocity 0
000000t:  Note on ::  Channel 9.  Note 38.  Velocity 0
000025t:  Note on ::  Channel 9.  Note 61.  Velocity 127
000000t:  Note on ::  Channel 9.  Note 42.  Velocity 127
000015t:  Note on ::  Channel 9.  Note 42.  Velocity 0
000008t:  Note on ::  Channel 9.  Note 61.  Velocity 0
000026t:  Note on ::  Channel 9.  Note 36.  Velocity 127
000000t:  Note on ::  Channel 9.  Note 61.  Velocity 127
000000t:  Note on ::  Channel 9.  Note 51.  Velocity 127
000000t:  Note on ::  Channel 9.  Note 40.  Velocity 127
000000t:  Note on ::  Channel 9.  Note 42.  Velocity 127
000020t:  Note on ::  Channel 9.  Note 42.  Velocity 0
000003t:  Note on ::  Channel 9.  Note 36.  Velocity 0
000000t:  Note on ::  Channel 9.  Note 61.  Velocity 0
000024t:  Note on ::  Channel 9.  Note 36.  Velocity 127
000000t:  Note on ::  Channel 9.  Note 61.  Velocity 127
000000t:  Note on ::  Channel 9.  Note 42.  Velocity 127
000023t:  Note on ::  Channel 9.  Note 42.  Velocity 0
000000t:  Note on ::  Channel 9.  Note 36.  Velocity 0
000000t:  Note on ::  Channel 9.  Note 61.  Velocity 0
000016t:  Note on ::  Channel 9.  Note 51.  Velocity 0
000002t:  Note on ::  Channel 9.  Note 40.  Velocity 0
000008t:  Note on ::  Channel 9.  Note 38.  Velocity 127
000000t:  Note on ::  Channel 9.  Note 61.  Velocity 127
000000t:  Note on ::  Channel 9.  Note 42.  Velocity 127
000023t:  Note on ::  Channel 9.  Note 42.  Velocity 0
000000t:  Note on ::  Channel 9.  Note 61.  Velocity 0
000000t:  Note on ::  Channel 9.  Note 38.  Velocity 0
000024t:  Note on ::  Channel 9.  Note 61.  Velocity 127
000000t:  Note on ::  Channel 9.  Note 42.  Velocity 127
000023t:  Note on ::  Channel 9.  Note 61.  Velocity 0
000002t:  Note on ::  Channel 9.  Note 42.  Velocity 0
000024t:  Note on ::  Channel 9.  Note 36.  Velocity 127
000000t:  Note on ::  Channel 9.  Note 61.  Velocity 127
000001t:  Note on ::  Channel 9.  Note 42.  Velocity 127
000022t:  Note on ::  Channel 9.  Note 61.  Velocity 0
000000t:  Note on ::  Channel 9.  Note 36.  Velocity 0
000002t:  Note on ::  Channel 9.  Note 42.  Velocity 0
000023t:  Note on ::  Channel 9.  Note 61.  Velocity 127
000000t:  Note on ::  Channel 9.  Note 42.  Velocity 127
000020t:  Note on ::  Channel 9.  Note 42.  Velocity 0
000003t:  Note on ::  Channel 9.  Note 61.  Velocity 0
000025t:  Note on ::  Channel 9.  Note 38.  Velocity 127
000000t:  Note on ::  Channel 9.  Note 61.  Velocity 127
000001t:  Note on ::  Channel 9.  Note 42.  Velocity 127
000021t:  Note on ::  Channel 9.  Note 42.  Velocity 0
000001t:  Note on ::  Channel 9.  Note 61.  Velocity 0
000000t:  Note on ::  Channel 9.  Note 38.  Velocity 0
000025t:  Note on ::  Channel 9.  Note 61.  Velocity 127
000000t:  Note on ::  Channel 9.  Note 42.  Velocity 127
000023t:  Note on ::  Channel 9.  Note 42.  Velocity 0
000000t:  Note on ::  Channel 9.  Note 61.  Velocity 0
000026t:  Note on ::  Channel 9.  Note 36.  Velocity 127
000000t:  Note on ::  Channel 9.  Note 61.  Velocity 127
000000t:  Note on ::  Channel 9.  Note 40.  Velocity 127
000000t:  Note on ::  Channel 9.  Note 51.  Velocity 127
000001t:  Note on ::  Channel 9.  Note 42.  Velocity 127
000022t:  Note on ::  Channel 9.  Note 42.  Velocity 0
000000t:  Note on ::  Channel 9.  Note 36.  Velocity 0
000000t:  Note on ::  Channel 9.  Note 61.  Velocity 0
000024t:  Note on ::  Channel 9.  Note 36.  Velocity 127
000000t:  Note on ::  Channel 9.  Note 61.  Velocity 127
000001t:  Note on ::  Channel 9.  Note 42.  Velocity 127
000022t:  Note on ::  Channel 9.  Note 61.  Velocity 0
000000t:  Note on ::  Channel 9.  Note 36.  Velocity 0
000003t:  Note on ::  Channel 9.  Note 42.  Velocity 0
000023t:  Note on ::  Channel 9.  Note 40.  Velocity 0
000000t:  Note on ::  Channel 9.  Note 38.  Velocity 127
000001t:  Note on ::  Channel 9.  Note 61.  Velocity 127
000000t:  Note on ::  Channel 9.  Note 42.  Velocity 127
000003t:  Note on ::  Channel 9.  Note 51.  Velocity 0
000019t:  Note on ::  Channel 9.  Note 38.  Velocity 0
000000t:  Note on ::  Channel 9.  Note 61.  Velocity 0
000001t:  Note on ::  Channel 9.  Note 42.  Velocity 0
000023t:  Note on ::  Channel 9.  Note 61.  Velocity 127
000000t:  Note on ::  Channel 9.  Note 42.  Velocity 127
000024t:  Note on ::  Channel 9.  Note 61.  Velocity 0
000002t:  Note on ::  Channel 9.  Note 42.  Velocity 0
000023t:  Note on ::  Channel 9.  Note 36.  Velocity 127
000001t:  Note on ::  Channel 9.  Note 61.  Velocity 127
000000t:  Note on ::  Channel 9.  Note 42.  Velocity 127
000023t:  Note on ::  Channel 9.  Note 61.  Velocity 0
000000t:  Note on ::  Channel 9.  Note 36.  Velocity 0
000003t:  Note on ::  Channel 9.  Note 42.  Velocity 0
000021t:  Note on ::  Channel 9.  Note 61.  Velocity 127
000000t:  Note on ::  Channel 9.  Note 42.  Velocity 127
000023t:  Note on ::  Channel 9.  Note 42.  Velocity 0
000000t:  Note on ::  Channel 9.  Note 61.  Velocity 0
000026t:  Note on ::  Channel 9.  Note 38.  Velocity 127
000000t:  Note on ::  Channel 9.  Note 61.  Velocity 127
000000t:  Note on ::  Channel 9.  Note 42.  Velocity 127
000023t:  Note on ::  Channel 9.  Note 42.  Velocity 0
000000t:  Note on ::  Channel 9.  Note 61.  Velocity 0
000000t:  Note on ::  Channel 9.  Note 38.  Velocity 0
000024t:  Note on ::  Channel 9.  Note 61.  Velocity 127
000000t:  Note on ::  Channel 9.  Note 42.  Velocity 127
000023t:  Note on ::  Channel 9.  Note 61.  Velocity 0
000001t:  Note on ::  Channel 9.  Note 42.  Velocity 0
000025t:  Note on ::  Channel 9.  Note 36.  Velocity 127
000000t:  Note on ::  Channel 9.  Note 61.  Velocity 127
000000t:  Note on ::  Channel 9.  Note 51.  Velocity 127
000001t:  Note on ::  Channel 9.  Note 40.  Velocity 127
000000t:  Note on ::  Channel 9.  Note 42.  Velocity 127
000022t:  Note on ::  Channel 9.  Note 61.  Velocity 0
000000t:  Note on ::  Channel 9.  Note 36.  Velocity 0
000001t:  Note on ::  Channel 9.  Note 42.  Velocity 0
000023t:  Note on ::  Channel 9.  Note 36.  Velocity 127
000001t:  Note on ::  Channel 9.  Note 61.  Velocity 127
000000t:  Note on ::  Channel 9.  Note 42.  Velocity 127
000022t:  Note on ::  Channel 9.  Note 61.  Velocity 0
000000t:  Note on ::  Channel 9.  Note 36.  Velocity 0
000002t:  Note on ::  Channel 9.  Note 42.  Velocity 0
000015t:  Note on ::  Channel 9.  Note 51.  Velocity 0
000001t:  Note on ::  Channel 9.  Note 40.  Velocity 0
000008t:  Note on ::  Channel 9.  Note 38.  Velocity 127
000000t:  Note on ::  Channel 9.  Note 61.  Velocity 127
000001t:  Note on ::  Channel 9.  Note 42.  Velocity 127
000022t:  Note on ::  Channel 9.  Note 61.  Velocity 0
000000t:  Note on ::  Channel 9.  Note 38.  Velocity 0
000002t:  Note on ::  Channel 9.  Note 42.  Velocity 0
000023t:  Note on ::  Channel 9.  Note 61.  Velocity 127
000000t:  Note on ::  Channel 9.  Note 42.  Velocity 127
000023t:  Note on ::  Channel 9.  Note 61.  Velocity 0
000002t:  Note on ::  Channel 9.  Note 42.  Velocity 0
000023t:  Note on ::  Channel 9.  Note 36.  Velocity 127
000000t:  Note on ::  Channel 9.  Note 61.  Velocity 127
000001t:  Note on ::  Channel 9.  Note 42.  Velocity 127
000022t:  Note on ::  Channel 9.  Note 61.  Velocity 0
000000t:  Note on ::  Channel 9.  Note 36.  Velocity 0
000002t:  Note on ::  Channel 9.  Note 42.  Velocity 0
000023t:  Note on ::  Channel 9.  Note 61.  Velocity 127
000000t:  Note on ::  Channel 9.  Note 42.  Velocity 127
000023t:  Note on ::  Channel 9.  Note 61.  Velocity 0
000003t:  Note on ::  Channel 9.  Note 42.  Velocity 0
000023t:  Note on ::  Channel 9.  Note 38.  Velocity 127
000000t:  Note on ::  Channel 9.  Note 61.  Velocity 127
000000t:  Note on ::  Channel 9.  Note 42.  Velocity 127
000023t:  Note on ::  Channel 9.  Note 42.  Velocity 0
000000t:  Note on ::  Channel 9.  Note 61.  Velocity 0
000000t:  Note on ::  Channel 9.  Note 38.  Velocity 0
000024t:  Note on ::  Channel 9.  Note 61.  Velocity 127
000000t:  Note on ::  Channel 9.  Note 42.  Velocity 127
000023t:  Note on ::  Channel 9.  Note 42.  Velocity 0
000000t:  Note on ::  Channel 9.  Note 61.  Velocity 0
000026t:  Note on ::  Channel 9.  Note 36.  Velocity 127
000000t:  Note on ::  Channel 9.  Note 61.  Velocity 127
000000t:  Note on ::  Channel 9.  Note 40.  Velocity 127
000001t:  Note on ::  Channel 9.  Note 51.  Velocity 127
000000t:  Note on ::  Channel 9.  Note 42.  Velocity 127
000022t:  Note on ::  Channel 9.  Note 42.  Velocity 0
000000t:  Note on ::  Channel 9.  Note 36.  Velocity 0
000000t:  Note on ::  Channel 9.  Note 61.  Velocity 0
000025t:  Note on ::  Channel 9.  Note 36.  Velocity 127
000000t:  Note on ::  Channel 9.  Note 61.  Velocity 127
000000t:  Note on ::  Channel 9.  Note 42.  Velocity 127
000023t:  Note on ::  Channel 9.  Note 42.  Velocity 0
000000t:  Note on ::  Channel 9.  Note 36.  Velocity 0
000000t:  Note on ::  Channel 9.  Note 61.  Velocity 0
000025t:  Note on ::  Channel 9.  Note 40.  Velocity 0
000001t:  Note on ::  Channel 9.  Note 38.  Velocity 127
000000t:  Note on ::  Channel 9.  Note 61.  Velocity 127
000000t:  Note on ::  Channel 9.  Note 42.  Velocity 127
000004t:  Note on ::  Channel 9.  Note 51.  Velocity 0
000018t:  Note on ::  Channel 9.  Note 38.  Velocity 0
000000t:  Note on ::  Channel 9.  Note 61.  Velocity 0
000002t:  Note on ::  Channel 9.  Note 42.  Velocity 0
000023t:  Note on ::  Channel 9.  Note 61.  Velocity 127
000000t:  Note on ::  Channel 9.  Note 42.  Velocity 127
000023t:  Note on ::  Channel 9.  Note 42.  Velocity 0
000000t:  Note on ::  Channel 9.  Note 61.  Velocity 0
000026t:  Note on ::  Channel 9.  Note 36.  Velocity 127
000000t:  Note on ::  Channel 9.  Note 61.  Velocity 127
000000t:  Note on ::  Channel 9.  Note 42.  Velocity 127
000017t:  Note on ::  Channel 9.  Note 42.  Velocity 0
000006t:  Note on ::  Channel 9.  Note 61.  Velocity 0
000000t:  Note on ::  Channel 9.  Note 36.  Velocity 0
000024t:  Note on ::  Channel 9.  Note 61.  Velocity 127
000000t:  Note on ::  Channel 9.  Note 42.  Velocity 127
000018t:  Note on ::  Channel 9.  Note 42.  Velocity 0
000005t:  Note on ::  Channel 9.  Note 61.  Velocity 0
000026t:  Note on ::  Channel 9.  Note 38.  Velocity 127
000000t:  Note on ::  Channel 9.  Note 61.  Velocity 127
000000t:  Note on ::  Channel 9.  Note 42.  Velocity 127
000020t:  Note on ::  Channel 9.  Note 42.  Velocity 0
000003t:  Note on ::  Channel 9.  Note 61.  Velocity 0
000000t:  Note on ::  Channel 9.  Note 38.  Velocity 0
000024t:  Note on ::  Channel 9.  Note 61.  Velocity 127
000000t:  Note on ::  Channel 9.  Note 42.  Velocity 127
000015t:  Note on ::  Channel 9.  Note 42.  Velocity 0
000008t:  Note on ::  Channel 9.  Note 61.  Velocity 0
000026t:  Note on ::  Channel 9.  Note 36.  Velocity 127
000000t:  Note on ::  Channel 9.  Note 61.  Velocity 127
000001t:  Note on ::  Channel 9.  Note 51.  Velocity 127
000000t:  Note on ::  Channel 9.  Note 40.  Velocity 127
000000t:  Note on ::  Channel 9.  Note 42.  Velocity 127
000020t:  Note on ::  Channel 9.  Note 42.  Velocity 0
000002t:  Note on ::  Channel 9.  Note 36.  Velocity 0
000000t:  Note on ::  Channel 9.  Note 61.  Velocity 0
000025t:  Note on ::  Channel 9.  Note 36.  Velocity 127
000000t:  Note on ::  Channel 9.  Note 61.  Velocity 127
000000t:  Note on ::  Channel 9.  Note 42.  Velocity 127
000023t:  Note on ::  Channel 9.  Note 42.  Velocity 0
000000t:  Note on ::  Channel 9.  Note 36.  Velocity 0
000000t:  Note on ::  Channel 9.  Note 61.  Velocity 0
000016t:  Note on ::  Channel 9.  Note 51.  Velocity 0
000001t:  Note on ::  Channel 9.  Note 40.  Velocity 0
000009t:  Note on ::  Channel 9.  Note 38.  Velocity 127
000000t:  Note on ::  Channel 9.  Note 61.  Velocity 127
000000t:  Note on ::  Channel 9.  Note 42.  Velocity 127
000023t:  Note on ::  Channel 9.  Note 42.  Velocity 0
000000t:  Note on ::  Channel 9.  Note 61.  Velocity 0
000000t:  Note on ::  Channel 9.  Note 38.  Velocity 0
000024t:  Note on ::  Channel 9.  Note 61.  Velocity 127
000000t:  Note on ::  Channel 9.  Note 42.  Velocity 127
000023t:  Note on ::  Channel 9.  Note 61.  Velocity 0
000001t:  Note on ::  Channel 9.  Note 42.  Velocity 0
000025t:  Note on ::  Channel 9.  Note 36.  Velocity 127
000000t:  Note on ::  Channel 9.  Note 61.  Velocity 127
000000t:  Note on ::  Channel 9.  Note 42.  Velocity 127
000023t:  Note on ::  Channel 9.  Note 61.  Velocity 0
000000t:  Note on ::  Channel 9.  Note 36.  Velocity 0
000001t:  Note on ::  Channel 9.  Note 42.  Velocity 0
000023t:  Note on ::  Channel 9.  Note 61.  Velocity 127
000001t:  Note on ::  Channel 9.  Note 42.  Velocity 127
000020t:  Note on ::  Channel 9.  Note 42.  Velocity 0
000002t:  Note on ::  Channel 9.  Note 61.  Velocity 0
000026t:  Note on ::  Channel 9.  Note 38.  Velocity 127
000000t:  Note on ::  Channel 9.  Note 61.  Velocity 127
000001t:  Note on ::  Channel 9.  Note 42.  Velocity 127
000021t:  Note on ::  Channel 9.  Note 42.  Velocity 0
000001t:  Note on ::  Channel 9.  Note 61.  Velocity 0
000000t:  Note on ::  Channel 9.  Note 38.  Velocity 0
000025t:  Note on ::  Channel 9.  Note 61.  Velocity 127
000000t:  Note on ::  Channel 9.  Note 42.  Velocity 127
000023t:  Note on ::  Channel 9.  Note 42.  Velocity 0
000000t:  Note on ::  Channel 9.  Note 61.  Velocity 0
000025t:  Note on ::  Channel 9.  Note 36.  Velocity 127
000000t:  Note on ::  Channel 9.  Note 61.  Velocity 127
000001t:  Note on ::  Channel 9.  Note 40.  Velocity 127
000000t:  Note on ::  Channel 9.  Note 51.  Velocity 127
000000t:  Note on ::  Channel 9.  Note 42.  Velocity 127
000022t:  Note on ::  Channel 9.  Note 42.  Velocity 0
000000t:  Note on ::  Channel 9.  Note 36.  Velocity 0
000001t:  Note on ::  Channel 9.  Note 61.  Velocity 0
000024t:  Note on ::  Channel 9.  Note 36.  Velocity 127
000000t:  Note on ::  Channel 9.  Note 61.  Velocity 127
000000t:  Note on ::  Channel 9.  Note 42.  Velocity 127
000023t:  Note on ::  Channel 9.  Note 61.  Velocity 0
000000t:  Note on ::  Channel 9.  Note 36.  Velocity 0
000003t:  Note on ::  Channel 9.  Note 42.  Velocity 0
000023t:  Note on ::  Channel 9.  Note 40.  Velocity 0
000000t:  Note on ::  Channel 9.  Note 38.  Velocity 127
000000t:  Note on ::  Channel 9.  Note 61.  Velocity 127
000000t:  Note on ::  Channel 9.  Note 42.  Velocity 127
000004t:  Note on ::  Channel 9.  Note 51.  Velocity 0
000019t:  Note on ::  Channel 9.  Note 38.  Velocity 0
000000t:  Note on ::  Channel 9.  Note 61.  Velocity 0
000001t:  Note on ::  Channel 9.  Note 42.  Velocity 0
000023t:  Note on ::  Channel 9.  Note 61.  Velocity 127
000000t:  Note on ::  Channel 9.  Note 42.  Velocity 127
000023t:  Note on ::  Channel 9.  Note 61.  Velocity 0
000003t:  Note on ::  Channel 9.  Note 42.  Velocity 0
000023t:  Note on ::  Channel 9.  Note 36.  Velocity 127
000000t:  Note on ::  Channel 9.  Note 61.  Velocity 127
000000t:  Note on ::  Channel 9.  Note 42.  Velocity 127
000023t:  Note on ::  Channel 9.  Note 61.  Velocity 0
000000t:  Note on ::  Channel 9.  Note 36.  Velocity 0
000004t:  Note on ::  Channel 9.  Note 42.  Velocity 0
000020t:  Note on ::  Channel 9.  Note 61.  Velocity 127
000000t:  Note on ::  Channel 9.  Note 42.  Velocity 127
000024t:  Note on ::  Channel 9.  Note 42.  Velocity 0
000000t:  Note on ::  Channel 9.  Note 61.  Velocity 0
000025t:  Note on ::  Channel 9.  Note 38.  Velocity 127
000001t:  Note on ::  Channel 9.  Note 61.  Velocity 127
000000t:  Note on ::  Channel 9.  Note 42.  Velocity 127
000022t:  Note on ::  Channel 9.  Note 42.  Velocity 0
000000t:  Note on ::  Channel 9.  Note 38.  Velocity 0
000001t:  Note on ::  Channel 9.  Note 61.  Velocity 0
000024t:  Note on ::  Channel 9.  Note 61.  Velocity 127
000000t:  Note on ::  Channel 9.  Note 42.  Velocity 127
000023t:  Note on ::  Channel 9.  Note 61.  Velocity 0
000001t:  Note on ::  Channel 9.  Note 42.  Velocity 0
000025t:  Note on ::  Channel 9.  Note 36.  Velocity 127
000000t:  Note on ::  Channel 9.  Note 61.  Velocity 127
000000t:  Note on ::  Channel 9.  Note 51.  Velocity 127
000000t:  Note on ::  Channel 9.  Note 40.  Velocity 127
000001t:  Note on ::  Channel 9.  Note 42.  Velocity 127
000022t:  Note on ::  Channel 9.  Note 61.  Velocity 0
000000t:  Note on ::  Channel 9.  Note 36.  Velocity 0
000001t:  Note on ::  Channel 9.  Note 42.  Velocity 0
000023t:  Note on ::  Channel 9.  Note 36.  Velocity 127
000000t:  Note on ::  Channel 9.  Note 61.  Velocity 127
000001t:  Note on ::  Channel 9.  Note 42.  Velocity 127
000022t:  Note on ::  Channel 9.  Note 61.  Velocity 0
000000t:  Note on ::  Channel 9.  Note 36.  Velocity 0
000001t:  Note on ::  Channel 9.  Note 42.  Velocity 0
000015t:  Note on ::  Channel 9.  Note 51.  Velocity 0
000002t:  Note on ::  Channel 9.  Note 40.  Velocity 0
000008t:  Note on ::  Channel 9.  Note 38.  Velocity 127
000000t:  Note on ::  Channel 9.  Note 61.  Velocity 127
000000t:  Note on ::  Channel 9.  Note 42.  Velocity 127
000023t:  Note on ::  Channel 9.  Note 61.  Velocity 0
000000t:  Note on ::  Channel 9.  Note 38.  Velocity 0
000001t:  Note on ::  Channel 9.  Note 42.  Velocity 0
000023t:  Note on ::  Channel 9.  Note 61.  Velocity 127
000001t:  Note on ::  Channel 9.  Note 42.  Velocity 127
000022t:  Note on ::  Channel 9.  Note 61.  Velocity 0
000003t:  Note on ::  Channel 9.  Note 42.  Velocity 0
000023t:  Note on ::  Channel 9.  Note 36.  Velocity 127
000000t:  Note on ::  Channel 9.  Note 61.  Velocity 127
000001t:  Note on ::  Channel 9.  Note 42.  Velocity 127
000022t:  Note on ::  Channel 9.  Note 61.  Velocity 0
000000t:  Note on ::  Channel 9.  Note 36.  Velocity 0
000002t:  Note on ::  Channel 9.  Note 42.  Velocity 0
000023t:  Note on ::  Channel 9.  Note 61.  Velocity 127
000000t:  Note on ::  Channel 9.  Note 42.  Velocity 127
000023t:  Note on ::  Channel 9.  Note 61.  Velocity 0
000004t:  Note on ::  Channel 9.  Note 42.  Velocity 0
000021t:  Note on ::  Channel 9.  Note 38.  Velocity 127
000000t:  Note on ::  Channel 9.  Note 61.  Velocity 127
000001t:  Note on ::  Channel 9.  Note 42.  Velocity 127
000023t:  Note on ::  Channel 9.  Note 42.  Velocity 0
000000t:  Note on ::  Channel 9.  Note 61.  Velocity 0
000000t:  Note on ::  Channel 9.  Note 38.  Velocity 0
000024t:  Note on ::  Channel 9.  Note 61.  Velocity 127
000000t:  Note on ::  Channel 9.  Note 42.  Velocity 127
000023t:  Note on ::  Channel 9.  Note 42.  Velocity 0
000000t:  Note on ::  Channel 9.  Note 61.  Velocity 0
000026t:  Note on ::  Channel 9.  Note 36.  Velocity 127
000000t:  Note on ::  Channel 9.  Note 61.  Velocity 127
000000t:  Note on ::  Channel 9.  Note 40.  Velocity 127
000000t:  Note on ::  Channel 9.  Note 51.  Velocity 127
000001t:  Note on ::  Channel 9.  Note 42.  Velocity 127
000022t:  Note on ::  Channel 9.  Note 42.  Velocity 0
000000t:  Note on ::  Channel 9.  Note 36.  Velocity 0
000000t:  Note on ::  Channel 9.  Note 61.  Velocity 0
000024t:  Note on ::  Channel 9.  Note 36.  Velocity 127
000000t:  Note on ::  Channel 9.  Note 61.  Velocity 127
000001t:  Note on ::  Channel 9.  Note 42.  Velocity 127
000022t:  Note on ::  Channel 9.  Note 42.  Velocity 0
000001t:  Note on ::  Channel 9.  Note 36.  Velocity 0
000000t:  Note on ::  Channel 9.  Note 61.  Velocity 0
000025t:  Note on ::  Channel 9.  Note 40.  Velocity 0
000000t:  Note on ::  Channel 9.  Note 38.  Velocity 127
000001t:  Note on ::  Channel 9.  Note 61.  Velocity 127
000000t:  Note on ::  Channel 9.  Note 42.  Velocity 127
000003t:  Note on ::  Channel 9.  Note 51.  Velocity 0
000019t:  Note on ::  Channel 9.  Note 38.  Velocity 0
000000t:  Note on ::  Channel 9.  Note 61.  Velocity 0
000001t:  Note on ::  Channel 9.  Note 42.  Velocity 0
000024t:  Note on ::  Channel 9.  Note 61.  Velocity 127
000000t:  Note on ::  Channel 9.  Note 42.  Velocity 127
000023t:  Note on ::  Channel 9.  Note 42.  Velocity 0
000000t:  Note on ::  Channel 9.  Note 61.  Velocity 0
000025t:  Note on ::  Channel 9.  Note 36.  Velocity 127
000001t:  Note on ::  Channel 9.  Note 61.  Velocity 127
000000t:  Note on ::  Channel 9.  Note 42.  Velocity 127
000017t:  Note on ::  Channel 9.  Note 42.  Velocity 0
000005t:  Note on ::  Channel 9.  Note 36.  Velocity 0
000001t:  Note on ::  Channel 9.  Note 61.  Velocity 0
000024t:  Note on ::  Channel 9.  Note 61.  Velocity 127
000000t:  Note on ::  Channel 9.  Note 42.  Velocity 127
000017t:  Note on ::  Channel 9.  Note 42.  Velocity 0
000006t:  Note on ::  Channel 9.  Note 61.  Velocity 0
000026t:  Note on ::  Channel 9.  Note 38.  Velocity 127
000000t:  Note on ::  Channel 9.  Note 61.  Velocity 127
000000t:  Note on ::  Channel 9.  Note 42.  Velocity 127
000020t:  Note on ::  Channel 9.  Note 42.  Velocity 0
000003t:  Note on ::  Channel 9.  Note 61.  Velocity 0
000000t:  Note on ::  Channel 9.  Note 38.  Velocity 0
000024t:  Note on ::  Channel 9.  Note 61.  Velocity 127
000000t:  Note on ::  Channel 9.  Note 42.  Velocity 127
000015t:  Note on ::  Channel 9.  Note 42.  Velocity 0
000008t:  Note on ::  Channel 9.  Note 61.  Velocity 0
000026t:  Note on ::  Channel 9.  Note 36.  Velocity 127
000000t:  Note on ::  Channel 9.  Note 61.  Velocity 127
000000t:  Note on ::  Channel 9.  Note 51.  Velocity 127
000001t:  Note on ::  Channel 9.  Note 40.  Velocity 127
000000t:  Note on ::  Channel 9.  Note 42.  Velocity 127
000019t:  Note on ::  Channel 9.  Note 42.  Velocity 0
000003t:  Note on ::  Channel 9.  Note 36.  Velocity 0
000000t:  Note on ::  Channel 9.  Note 61.  Velocity 0
000024t:  Note on ::  Channel 9.  Note 36.  Velocity 127
000001t:  Note on ::  Channel 9.  Note 61.  Velocity 127
000000t:  Note on ::  Channel 9.  Note 42.  Velocity 127
000022t:  Note on ::  Channel 9.  Note 42.  Velocity 0
000000t:  Note on ::  Channel 9.  Note 36.  Velocity 0
000001t:  Note on ::  Channel 9.  Note 61.  Velocity 0
000016t:  Note on ::  Channel 9.  Note 51.  Velocity 0
000001t:  Note on ::  Channel 9.  Note 40.  Velocity 0
000008t:  Note on ::  Channel 9.  Note 38.  Velocity 127
000000t:  Note on ::  Channel 9.  Note 61.  Velocity 127
000001t:  Note on ::  Channel 9.  Note 42.  Velocity 127
000022t:  Note on ::  Channel 9.  Note 42.  Velocity 0
000000t:  Note on ::  Channel 9.  Note 38.  Velocity 0
000001t:  Note on ::  Channel 9.  Note 61.  Velocity 0
000024t:  Note on ::  Channel 9.  Note 61.  Velocity 127
000000t:  Note on ::  Channel 9.  Note 42.  Velocity 127
000023t:  Note on ::  Channel 9.  Note 61.  Velocity 0
000001t:  Note on ::  Channel 9.  Note 42.  Velocity 0
000025t:  Note on ::  Channel 9.  Note 36.  Velocity 127
000000t:  Note on ::  Channel 9.  Note 61.  Velocity 127
000000t:  Note on ::  Channel 9.  Note 42.  Velocity 127
000023t:  Note on ::  Channel 9.  Note 61.  Velocity 0
000000t:  Note on ::  Channel 9.  Note 36.  Velocity 0
000001t:  Note on ::  Channel 9.  Note 42.  Velocity 0
000023t:  Note on ::  Channel 9.  Note 61.  Velocity 127
000000t:  Note on ::  Channel 9.  Note 42.  Velocity 127
000020t:  Note on ::  Channel 9.  Note 42.  Velocity 0
000003t:  Note on ::  Channel 9.  Note 61.  Velocity 0
000026t:  Note on ::  Channel 9.  Note 38.  Velocity 127
000000t:  Note on ::  Channel 9.  Note 61.  Velocity 127
000000t:  Note on ::  Channel 9.  Note 42.  Velocity 127
000022t:  Note on ::  Channel 9.  Note 42.  Velocity 0
000001t:  Note on ::  Channel 9.  Note 61.  Velocity 0
000000t:  Note on ::  Channel 9.  Note 38.  Velocity 0
000024t:  Note on ::  Channel 9.  Note 61.  Velocity 127
000001t:  Note on ::  Channel 9.  Note 42.  Velocity 127
000022t:  Note on ::  Channel 9.  Note 61.  Velocity 0
000001t:  Note on ::  Channel 9.  Note 42.  Velocity 0
000025t:  Note on ::  Channel 9.  Note 36.  Velocity 127
000000t:  Note on ::  Channel 9.  Note 61.  Velocity 127
000001t:  Note on ::  Channel 9.  Note 40.  Velocity 127
000000t:  Note on ::  Channel 9.  Note 51.  Velocity 127
000000t:  Note on ::  Channel 9.  Note 42.  Velocity 127
000022t:  Note on ::  Channel 9.  Note 42.  Velocity 0
000000t:  Note on ::  Channel 9.  Note 36.  Velocity 0
000001t:  Note on ::  Channel 9.  Note 61.  Velocity 0
000024t:  Note on ::  Channel 9.  Note 36.  Velocity 127
000000t:  Note on ::  Channel 9.  Note 61.  Velocity 127
000000t:  Note on ::  Channel 9.  Note 42.  Velocity 127
000023t:  Note on ::  Channel 9.  Note 61.  Velocity 0
000000t:  Note on ::  Channel 9.  Note 36.  Velocity 0
000002t:  Note on ::  Channel 9.  Note 42.  Velocity 0
000023t:  Note on ::  Channel 9.  Note 40.  Velocity 0
000001t:  Note on ::  Channel 9.  Note 38.  Velocity 127
000000t:  Note on ::  Channel 9.  Note 61.  Velocity 127
000000t:  Note on ::  Channel 9.  Note 42.  Velocity 127
000005t:  Note on ::  Channel 9.  Note 51.  Velocity 0
000017t:  Note on ::  Channel 9.  Note 61.  Velocity 0
000001t:  Note on ::  Channel 9.  Note 38.  Velocity 0
000001t:  Note on ::  Channel 9.  Note 42.  Velocity 0
000023t:  Note on ::  Channel 9.  Note 61.  Velocity 127
000000t:  Note on ::  Channel 9.  Note 42.  Velocity 127
000023t:  Note on ::  Channel 9.  Note 61.  Velocity 0
000003t:  Note on ::  Channel 9.  Note 42.  Velocity 0
000023t:  Note on ::  Channel 9.  Note 36.  Velocity 127
000000t:  Note on ::  Channel 9.  Note 61.  Velocity 127
000000t:  Note on ::  Channel 9.  Note 42.  Velocity 127
000023t:  Note on ::  Channel 9.  Note 61.  Velocity 0
000000t:  Note on ::  Channel 9.  Note 36.  Velocity 0
000005t:  Note on ::  Channel 9.  Note 42.  Velocity 0
000019t:  Note on ::  Channel 9.  Note 61.  Velocity 127
000000t:  Note on ::  Channel 9.  Note 42.  Velocity 127
000023t:  Note on ::  Channel 9.  Note 42.  Velocity 0
000000t:  Note on ::  Channel 9.  Note 61.  Velocity 0
000026t:  Note on ::  Channel 9.  Note 38.  Velocity 127
000000t:  Note on ::  Channel 9.  Note 61.  Velocity 127
000000t:  Note on ::  Channel 9.  Note 42.  Velocity 127
000023t:  Note on ::  Channel 9.  Note 42.  Velocity 0
000000t:  Note on ::  Channel 9.  Note 61.  Velocity 0
000000t:  Note on ::  Channel 9.  Note 38.  Velocity 0
000025t:  Note on ::  Channel 9.  Note 61.  Velocity 127
000000t:  Note on ::  Channel 9.  Note 42.  Velocity 127
000023t:  Note on ::  Channel 9.  Note 61.  Velocity 0
000001t:  Note on ::  Channel 9.  Note 42.  Velocity 0
000024t:  Note on ::  Channel 9.  Note 36.  Velocity 127
000000t:  Note on ::  Channel 9.  Note 61.  Velocity 127
000001t:  Note on ::  Channel 9.  Note 51.  Velocity 127
000000t:  Note on ::  Channel 9.  Note 40.  Velocity 127
000000t:  Note on ::  Channel 9.  Note 42.  Velocity 127
000022t:  Note on ::  Channel 9.  Note 36.  Velocity 0
000001t:  Note on ::  Channel 9.  Note 61.  Velocity 0
000001t:  Note on ::  Channel 9.  Note 42.  Velocity 0
000023t:  Note on ::  Channel 9.  Note 36.  Velocity 127
000000t:  Note on ::  Channel 9.  Note 61.  Velocity 127
000000t:  Note on ::  Channel 9.  Note 42.  Velocity 127
000023t:  Note on ::  Channel 9.  Note 61.  Velocity 0
000000t:  Note on ::  Channel 9.  Note 36.  Velocity 0
000001t:  Note on ::  Channel 9.  Note 42.  Velocity 0
000015t:  Note on ::  Channel 9.  Note 51.  Velocity 0
000001t:  Note on ::  Channel 9.  Note 40.  Velocity 0
000009t:  Note on ::  Channel 9.  Note 38.  Velocity 127
000000t:  Note on ::  Channel 9.  Note 61.  Velocity 127
000000t:  Note on ::  Channel 9.  Note 42.  Velocity 127
000023t:  Note on ::  Channel 9.  Note 61.  Velocity 0
000000t:  Note on ::  Channel 9.  Note 38.  Velocity 0
000001t:  Note on ::  Channel 9.  Note 42.  Velocity 0
000023t:  Note on ::  Channel 9.  Note 61.  Velocity 127
000000t:  Note on ::  Channel 9.  Note 42.  Velocity 127
000023t:  Note on ::  Channel 9.  Note 61.  Velocity 0
000003t:  Note on ::  Channel 9.  Note 42.  Velocity 0
000023t:  Note on ::  Channel 9.  Note 36.  Velocity 127
000000t:  Note on ::  Channel 9.  Note 61.  Velocity 127
000000t:  Note on ::  Channel 9.  Note 42.  Velocity 127
000023t:  Note on ::  Channel 9.  Note 61.  Velocity 0
000000t:  Note on ::  Channel 9.  Note 36.  Velocity 0
000001t:  Note on ::  Channel 9.  Note 42.  Velocity 0
000023t:  Note on ::  Channel 9.  Note 61.  Velocity 127
000001t:  Note on ::  Channel 9.  Note 42.  Velocity 127
000022t:  Note on ::  Channel 9.  Note 61.  Velocity 0
000004t:  Note on ::  Channel 9.  Note 42.  Velocity 0
000022t:  Note on ::  Channel 9.  Note 38.  Velocity 127
000000t:  Note on ::  Channel 9.  Note 61.  Velocity 127
000001t:  Note on ::  Channel 9.  Note 42.  Velocity 127
000022t:  Note on ::  Channel 9.  Note 42.  Velocity 0
000000t:  Note on ::  Channel 9.  Note 61.  Velocity 0
000000t:  Note on ::  Channel 9.  Note 38.  Velocity 0
000025t:  Note on ::  Channel 9.  Note 61.  Velocity 127
000000t:  Note on ::  Channel 9.  Note 42.  Velocity 127
000023t:  Note on ::  Channel 9.  Note 42.  Velocity 0
000000t:  Note on ::  Channel 9.  Note 61.  Velocity 0
000025t:  Note on ::  Channel 9.  Note 36.  Velocity 127
000000t:  Note on ::  Channel 9.  Note 61.  Velocity 127
000001t:  Note on ::  Channel 9.  Note 40.  Velocity 127
000000t:  Note on ::  Channel 9.  Note 51.  Velocity 127
000000t:  Note on ::  Channel 9.  Note 42.  Velocity 127
000023t:  Note on ::  Channel 9.  Note 42.  Velocity 0
000000t:  Note on ::  Channel 9.  Note 36.  Velocity 0
000000t:  Note on ::  Channel 9.  Note 61.  Velocity 0
000024t:  Note on ::  Channel 9.  Note 36.  Velocity 127
000000t:  Note on ::  Channel 9.  Note 61.  Velocity 127
000001t:  Note on ::  Channel 9.  Note 42.  Velocity 127
000022t:  Note on ::  Channel 9.  Note 42.  Velocity 0
000000t:  Note on ::  Channel 9.  Note 36.  Velocity 0
000000t:  Note on ::  Channel 9.  Note 61.  Velocity 0
000026t:  Note on ::  Channel 9.  Note 40.  Velocity 0
000000t:  Note on ::  Channel 9.  Note 38.  Velocity 127
000000t:  Note on ::  Channel 9.  Note 61.  Velocity 127
000000t:  Note on ::  Channel 9.  Note 42.  Velocity 127
000005t:  Note on ::  Channel 9.  Note 51.  Velocity 0
000018t:  Note on ::  Channel 9.  Note 38.  Velocity 0
000000t:  Note on ::  Channel 9.  Note 61.  Velocity 0
000001t:  Note on ::  Channel 9.  Note 42.  Velocity 0
000023t:  Note on ::  Channel 9.  Note 61.  Velocity 127
000000t:  Note on ::  Channel 9.  Note 42.  Velocity 127
000023t:  Note on ::  Channel 9.  Note 42.  Velocity 0
000001t:  Note on ::  Channel 9.  Note 61.  Velocity 0
000025t:  Note on ::  Channel 9.  Note 36.  Velocity 127
000000t:  Note on ::  Channel 9.  Note 61.  Velocity 127
000000t:  Note on ::  Channel 9.  Note 42.  Velocity 127
000018t:  Note on ::  Channel 9.  Note 42.  Velocity 0
000005t:  Note on ::  Channel 9.  Note 61.  Velocity 0
000000t:  Note on ::  Channel 9.  Note 36.  Velocity 0
000025t:  Note on ::  Channel 9.  Note 61.  Velocity 127
000000t:  Note on ::  Channel 9.  Note 42.  Velocity 127
000017t:  Note on ::  Channel 9.  Note 42.  Velocity 0
000006t:  Note on ::  Channel 9.  Note 61.  Velocity 0
000025t:  Note on ::  Channel 9.  Note 38.  Velocity 127
000000t:  Note on ::  Channel 9.  Note 61.  Velocity 127
000001t:  Note on ::  Channel 9.  Note 42.  Velocity 127
000020t:  Note on ::  Channel 9.  Note 42.  Velocity 0
000002t:  Note on ::  Channel 9.  Note 61.  Velocity 0
000000t:  Note on ::  Channel 9.  Note 38.  Velocity 0
000025t:  Note on ::  Channel 9.  Note 61.  Velocity 127
000000t:  Note on ::  Channel 9.  Note 42.  Velocity 127
000015t:  Note on ::  Channel 9.  Note 42.  Velocity 0
000008t:  Note on ::  Channel 9.  Note 61.  Velocity 0
000026t:  Note on ::  Channel 9.  Note 36.  Velocity 127
000000t:  Note on ::  Channel 9.  Note 61.  Velocity 127
000000t:  Note on ::  Channel 9.  Note 51.  Velocity 127
000000t:  Note on ::  Channel 9.  Note 40.  Velocity 127
000001t:  Note on ::  Channel 9.  Note 42.  Velocity 127
000019t:  Note on ::  Channel 9.  Note 42.  Velocity 0
000003t:  Note on ::  Channel 9.  Note 36.  Velocity 0
000000t:  Note on ::  Channel 9.  Note 61.  Velocity 0
000024t:  Note on ::  Channel 9.  Note 36.  Velocity 127
000000t:  Note on ::  Channel 9.  Note 61.  Velocity 127
000001t:  Note on ::  Channel 9.  Note 42.  Velocity 127
000022t:  Note on ::  Channel 9.  Note 42.  Velocity 0
000000t:  Note on ::  Channel 9.  Note 36.  Velocity 0
000001t:  Note on ::  Channel 9.  Note 61.  Velocity 0
000015t:  Note on ::  Channel 9.  Note 51.  Velocity 0
000002t:  Note on ::  Channel 9.  Note 40.  Velocity 0
000008t:  Note on ::  Channel 9.  Note 38.  Velocity 127
000000t:  Note on ::  Channel 9.  Note 61.  Velocity 127
000000t:  Note on ::  Channel 9.  Note 42.  Velocity 127
000023t:  Note on ::  Channel 9.  Note 42.  Velocity 0
000000t:  Note on ::  Channel 9.  Note 61.  Velocity 0
000000t:  Note on ::  Channel 9.  Note 38.  Velocity 0
000024t:  Note on ::  Channel 9.  Note 61.  Velocity 127
000000t:  Note on ::  Channel 9.  Note 42.  Velocity 127
000023t:  Note on ::  Channel 9.  Note 61.  Velocity 0
000002t:  Note on ::  Channel 9.  Note 42.  Velocity 0
000024t:  Note on ::  Channel 9.  Note 36.  Velocity 127
000001t:  Note on ::  Channel 9.  Note 61.  Velocity 127
000000t:  Note on ::  Channel 9.  Note 42.  Velocity 127
000022t:  Note on ::  Channel 9.  Note 61.  Velocity 0
000000t:  Note on ::  Channel 9.  Note 36.  Velocity 0
000004t:  Note on ::  Channel 9.  Note 42.  Velocity 0
000021t:  Note on ::  Channel 9.  Note 61.  Velocity 127
000000t:  Note on ::  Channel 9.  Note 42.  Velocity 127
000023t:  Note on ::  Channel 9.  Note 42.  Velocity 0
000000t:  Note on ::  Channel 9.  Note 61.  Velocity 0
000026t:  Note on ::  Channel 9.  Note 38.  Velocity 127
000000t:  Note on ::  Channel 9.  Note 61.  Velocity 127
000000t:  Note on ::  Channel 9.  Note 42.  Velocity 127
000021t:  Note on ::  Channel 9.  Note 42.  Velocity 0
000002t:  Note on ::  Channel 9.  Note 61.  Velocity 0
000000t:  Note on ::  Channel 9.  Note 38.  Velocity 0
000024t:  Note on ::  Channel 9.  Note 61.  Velocity 127
000000t:  Note on ::  Channel 9.  Note 42.  Velocity 127
000020t:  Note on ::  Channel 9.  Note 42.  Velocity 0
000003t:  Note on ::  Channel 9.  Note 61.  Velocity 0
000026t:  Note on ::  Channel 9.  Note 36.  Velocity 127
000000t:  Note on ::  Channel 9.  Note 61.  Velocity 127
000000t:  Note on ::  Channel 9.  Note 40.  Velocity 127
000001t:  Note on ::  Channel 9.  Note 51.  Velocity 127
000000t:  Note on ::  Channel 9.  Note 42.  Velocity 127
000018t:  Note on ::  Channel 9.  Note 42.  Velocity 0
000004t:  Note on ::  Channel 9.  Note 36.  Velocity 0
000000t:  Note on ::  Channel 9.  Note 61.  Velocity 0
000024t:  Note on ::  Channel 9.  Note 36.  Velocity 127
000000t:  Note on ::  Channel 9.  Note 61.  Velocity 127
000001t:  Note on ::  Channel 9.  Note 42.  Velocity 127
000022t:  Note on ::  Channel 9.  Note 42.  Velocity 0
000000t:  Note on ::  Channel 9.  Note 36.  Velocity 0
000001t:  Note on ::  Channel 9.  Note 61.  Velocity 0
000025t:  Note on ::  Channel 9.  Note 40.  Velocity 0
000000t:  Note on ::  Channel 9.  Note 38.  Velocity 127
000000t:  Note on ::  Channel 9.  Note 61.  Velocity 127
000001t:  Note on ::  Channel 9.  Note 42.  Velocity 127
000005t:  Note on ::  Channel 9.  Note 51.  Velocity 0
000017t:  Note on ::  Channel 9.  Note 38.  Velocity 0
000000t:  Note on ::  Channel 9.  Note 61.  Velocity 0
000002t:  Note on ::  Channel 9.  Note 42.  Velocity 0
000023t:  Note on ::  Channel 9.  Note 61.  Velocity 127
000000t:  Note on ::  Channel 9.  Note 42.  Velocity 127
000023t:  Note on ::  Channel 9.  Note 42.  Velocity 0
000000t:  Note on ::  Channel 9.  Note 61.  Velocity 0
000025t:  Note on ::  Channel 9.  Note 36.  Velocity 127
000000t:  Note on ::  Channel 9.  Note 61.  Velocity 127
000001t:  Note on ::  Channel 9.  Note 42.  Velocity 127
000021t:  Note on ::  Channel 9.  Note 42.  Velocity 0
000001t:  Note on ::  Channel 9.  Note 36.  Velocity 0
000001t:  Note on ::  Channel 9.  Note 61.  Velocity 0
000024t:  Note on ::  Channel 9.  Note 61.  Velocity 127
000000t:  Note on ::  Channel 9.  Note 42.  Velocity 127
000019t:  Note on ::  Channel 9.  Note 42.  Velocity 0
000004t:  Note on ::  Channel 9.  Note 61.  Velocity 0
000026t:  Note on ::  Channel 9.  Note 38.  Velocity 127
000000t:  Note on ::  Channel 9.  Note 61.  Velocity 127
000000t:  Note on ::  Channel 9.  Note 42.  Velocity 127
000019t:  Note on ::  Channel 9.  Note 42.  Velocity 0
000004t:  Note on ::  Channel 9.  Note 61.  Velocity 0
000000t:  Note on ::  Channel 9.  Note 38.  Velocity 0
000024t:  Note on ::  Channel 9.  Note 61.  Velocity 127
000000t:  Note on ::  Channel 9.  Note 42.  Velocity 127
000019t:  Note on ::  Channel 9.  Note 42.  Velocity 0
000004t:  Note on ::  Channel 9.  Note 61.  Velocity 0
000026t:  Note on ::  Channel 9.  Note 36.  Velocity 127
000000t:  Note on ::  Channel 9.  Note 61.  Velocity 127
000000t:  Note on ::  Channel 9.  Note 51.  Velocity 127
000001t:  Note on ::  Channel 9.  Note 40.  Velocity 127
000000t:  Note on ::  Channel 9.  Note 42.  Velocity 127
000018t:  Note on ::  Channel 9.  Note 42.  Velocity 0
000004t:  Note on ::  Channel 9.  Note 36.  Velocity 0
000000t:  Note on ::  Channel 9.  Note 61.  Velocity 0
000024t:  Note on ::  Channel 9.  Note 36.  Velocity 127
000000t:  Note on ::  Channel 9.  Note 61.  Velocity 127
000001t:  Note on ::  Channel 9.  Note 42.  Velocity 127
000021t:  Note on ::  Channel 9.  Note 42.  Velocity 0
000002t:  Note on ::  Channel 9.  Note 36.  Velocity 0
000000t:  Note on ::  Channel 9.  Note 61.  Velocity 0
000016t:  Note on ::  Channel 9.  Note 51.  Velocity 0
000001t:  Note on ::  Channel 9.  Note 40.  Velocity 0
000008t:  Note on ::  Channel 9.  Note 38.  Velocity 127
000000t:  Note on ::  Channel 9.  Note 61.  Velocity 127
000001t:  Note on ::  Channel 9.  Note 42.  Velocity 127
000022t:  Note on ::  Channel 9.  Note 61.  Velocity 0
000000t:  Note on ::  Channel 9.  Note 38.  Velocity 0
000002t:  Note on ::  Channel 9.  Note 42.  Velocity 0
000023t:  Note on ::  Channel 9.  Note 61.  Velocity 127
000000t:  Note on ::  Channel 9.  Note 42.  Velocity 127
000023t:  Note on ::  Channel 9.  Note 61.  Velocity 0
000004t:  Note on ::  Channel 9.  Note 42.  Velocity 0
000022t:  Note on ::  Channel 9.  Note 36.  Velocity 127
000000t:  Note on ::  Channel 9.  Note 61.  Velocity 127
000000t:  Note on ::  Channel 9.  Note 42.  Velocity 127
000023t:  Note on ::  Channel 9.  Note 61.  Velocity 0
000000t:  Note on ::  Channel 9.  Note 36.  Velocity 0
000012t:  Note on ::  Channel 9.  Note 42.  Velocity 0
000012t:  Note on ::  Channel 9.  Note 61.  Velocity 127
000000t:  Note on ::  Channel 9.  Note 42.  Velocity 127
000023t:  Note on ::  Channel 9.  Note 61.  Velocity 0
000001t:  Note on ::  Channel 9.  Note 42.  Velocity 0
000025t:  Note on ::  Channel 9.  Note 38.  Velocity 127
000000t:  Note on ::  Channel 9.  Note 61.  Velocity 127
000000t:  Note on ::  Channel 9.  Note 42.  Velocity 127
000019t:  Note on ::  Channel 9.  Note 42.  Velocity 0
000004t:  Note on ::  Channel 9.  Note 61.  Velocity 0
000000t:  Note on ::  Channel 9.  Note 38.  Velocity 0
000024t:  Note on ::  Channel 9.  Note 61.  Velocity 127
000001t:  Note on ::  Channel 9.  Note 42.  Velocity 127
000020t:  Note on ::  Channel 9.  Note 42.  Velocity 0
000002t:  Note on ::  Channel 9.  Note 61.  Velocity 0
000026t:  Note on ::  Channel 9.  Note 36.  Velocity 127
000000t:  Note on ::  Channel 9.  Note 61.  Velocity 127
000001t:  Note on ::  Channel 9.  Note 40.  Velocity 127
000000t:  Note on ::  Channel 9.  Note 51.  Velocity 127
000000t:  Note on ::  Channel 9.  Note 42.  Velocity 127
000020t:  Note on ::  Channel 9.  Note 42.  Velocity 0
000002t:  Note on ::  Channel 9.  Note 36.  Velocity 0
000000t:  Note on ::  Channel 9.  Note 61.  Velocity 0
000025t:  Note on ::  Channel 9.  Note 36.  Velocity 127
000000t:  Note on ::  Channel 9.  Note 61.  Velocity 127
000000t:  Note on ::  Channel 9.  Note 42.  Velocity 127
000020t:  Note on ::  Channel 9.  Note 42.  Velocity 0
000003t:  Note on ::  Channel 9.  Note 36.  Velocity 0
000000t:  Note on ::  Channel 9.  Note 61.  Velocity 0
000025t:  Note on ::  Channel 9.  Note 40.  Velocity 0
000001t:  Note on ::  Channel 9.  Note 38.  Velocity 127
000000t:  Note on ::  Channel 9.  Note 61.  Velocity 127
000000t:  Note on ::  Channel 9.  Note 42.  Velocity 127
000005t:  Note on ::  Channel 9.  Note 51.  Velocity 0
000018t:  Note on ::  Channel 9.  Note 38.  Velocity 0
000000t:  Note on ::  Channel 9.  Note 61.  Velocity 0
000000t:  Note on ::  Channel 9.  Note 42.  Velocity 0
000024t:  Note on ::  Channel 9.  Note 61.  Velocity 127
000000t:  Note on ::  Channel 9.  Note 42.  Velocity 127
000023t:  Note on ::  Channel 9.  Note 42.  Velocity 0
000000t:  Note on ::  Channel 9.  Note 61.  Velocity 0
000026t:  Note on ::  Channel 9.  Note 36.  Velocity 127
000000t:  Note on ::  Channel 9.  Note 61.  Velocity 127
000000t:  Note on ::  Channel 9.  Note 42.  Velocity 127
000023t:  Note on ::  Channel 9.  Note 61.  Velocity 0
000000t:  Note on ::  Channel 9.  Note 36.  Velocity 0
000007t:  Note on ::  Channel 9.  Note 42.  Velocity 0
000017t:  Note on ::  Channel 9.  Note 61.  Velocity 127
000000t:  Note on ::  Channel 9.  Note 42.  Velocity 127
000023t:  Note on ::  Channel 9.  Note 42.  Velocity 0
000000t:  Note on ::  Channel 9.  Note 61.  Velocity 0
000026t:  Note on ::  Channel 9.  Note 38.  Velocity 127
000000t:  Note on ::  Channel 9.  Note 61.  Velocity 127
000001t:  Note on ::  Channel 9.  Note 42.  Velocity 127
000019t:  Note on ::  Channel 9.  Note 42.  Velocity 0
000003t:  Note on ::  Channel 9.  Note 61.  Velocity 0
000000t:  Note on ::  Channel 9.  Note 38.  Velocity 0
000025t:  Note on ::  Channel 9.  Note 61.  Velocity 127
000000t:  Note on ::  Channel 9.  Note 42.  Velocity 127
000023t:  Note on ::  Channel 9.  Note 42.  Velocity 0
000000t:  Note on ::  Channel 9.  Note 61.  Velocity 0
000025t:  Note on ::  Channel 9.  Note 36.  Velocity 127
000000t:  Note on ::  Channel 9.  Note 61.  Velocity 127
000001t:  Note on ::  Channel 9.  Note 51.  Velocity 127
000000t:  Note on ::  Channel 9.  Note 40.  Velocity 127
000000t:  Note on ::  Channel 9.  Note 42.  Velocity 127
000022t:  Note on ::  Channel 9.  Note 42.  Velocity 0
000000t:  Note on ::  Channel 9.  Note 36.  Velocity 0
000001t:  Note on ::  Channel 9.  Note 61.  Velocity 0
000024t:  Note on ::  Channel 9.  Note 36.  Velocity 127
000000t:  Note on ::  Channel 9.  Note 61.  Velocity 127
000000t:  Note on ::  Channel 9.  Note 42.  Velocity 127
000023t:  Note on ::  Channel 9.  Note 61.  Velocity 0
000000t:  Note on ::  Channel 9.  Note 36.  Velocity 0
000001t:  Note on ::  Channel 9.  Note 42.  Velocity 0
000015t:  Note on ::  Channel 9.  Note 51.  Velocity 0
000001t:  Note on ::  Channel 9.  Note 40.  Velocity 0
000009t:  Note on ::  Channel 9.  Note 38.  Velocity 127
000000t:  Note on ::  Channel 9.  Note 61.  Velocity 127
000000t:  Note on ::  Channel 9.  Note 42.  Velocity 127
000020t:  Note on ::  Channel 9.  Note 42.  Velocity 0
000003t:  Note on ::  Channel 9.  Note 61.  Velocity 0
000000t:  Note on ::  Channel 9.  Note 38.  Velocity 0
000024t:  Note on ::  Channel 9.  Note 61.  Velocity 127
000000t:  Note on ::  Channel 9.  Note 42.  Velocity 127
000023t:  Note on ::  Channel 9.  Note 42.  Velocity 0
000000t:  Note on ::  Channel 9.  Note 61.  Velocity 0
000026t:  Note on ::  Channel 9.  Note 36.  Velocity 127
000000t:  Note on ::  Channel 9.  Note 61.  Velocity 127
000000t:  Note on ::  Channel 9.  Note 42.  Velocity 127
000001t:  Note on ::  Channel 9.  Note 49.  Velocity 127
000007t:  Control change ::  Channel 9.  Controller 66.  Value: 0
000004t:  Control change ::  Channel 9.  Controller 66.  Value: 0
000004t:  Control change ::  Channel 9.  Controller 66.  Value: 0
000007t:  Note on ::  Channel 9.  Note 61.  Velocity 0
000000t:  Note on ::  Channel 9.  Note 36.  Velocity 0
000002t:  Note on ::  Channel 9.  Note 42.  Velocity 0
000022t:  Note on ::  Channel 9.  Note 61.  Velocity 127
000000t:  Note on ::  Channel 9.  Note 42.  Velocity 127
000021t:  Note on ::  Channel 9.  Note 42.  Velocity 0
000002t:  Note on ::  Channel 9.  Note 61.  Velocity 0
000026t:  Note on ::  Channel 9.  Note 38.  Velocity 127
000001t:  Note on ::  Channel 9.  Note 61.  Velocity 127
000000t:  Note on ::  Channel 9.  Note 42.  Velocity 127
000021t:  Note on ::  Channel 9.  Note 42.  Velocity 0
000001t:  Note on ::  Channel 9.  Note 61.  Velocity 0
000000t:  Note on ::  Channel 9.  Note 38.  Velocity 0
000025t:  Note on ::  Channel 9.  Note 61.  Velocity 127
000000t:  Note on ::  Channel 9.  Note 42.  Velocity 127
000023t:  Note on ::  Channel 9.  Note 42.  Velocity 0
000000t:  Note on ::  Channel 9.  Note 61.  Velocity 0
000026t:  Note on ::  Channel 9.  Note 36.  Velocity 127
000000t:  Note on ::  Channel 9.  Note 61.  Velocity 127
000000t:  Note on ::  Channel 9.  Note 40.  Velocity 127
000000t:  Note on ::  Channel 9.  Note 51.  Velocity 127
000000t:  Note on ::  Channel 9.  Note 42.  Velocity 127
000023t:  Note on ::  Channel 9.  Note 42.  Velocity 0
000000t:  Note on ::  Channel 9.  Note 36.  Velocity 0
000000t:  Note on ::  Channel 9.  Note 61.  Velocity 0
000024t:  Note on ::  Channel 9.  Note 36.  Velocity 127
000000t:  Note on ::  Channel 9.  Note 61.  Velocity 127
000001t:  Note on ::  Channel 9.  Note 42.  Velocity 127
000022t:  Note on ::  Channel 9.  Note 61.  Velocity 0
000000t:  Note on ::  Channel 9.  Note 36.  Velocity 0
000003t:  Note on ::  Channel 9.  Note 42.  Velocity 0
000023t:  Note on ::  Channel 9.  Note 40.  Velocity 0
000000t:  Note on ::  Channel 9.  Note 38.  Velocity 127
000000t:  Note on ::  Channel 9.  Note 61.  Velocity 127
000001t:  Note on ::  Channel 9.  Note 42.  Velocity 127
000004t:  Note on ::  Channel 9.  Note 51.  Velocity 0
000018t:  Note on ::  Channel 9.  Note 61.  Velocity 0
000000t:  Note on ::  Channel 9.  Note 38.  Velocity 0
000001t:  Note on ::  Channel 9.  Note 42.  Velocity 0
000023t:  Note on ::  Channel 9.  Note 61.  Velocity 127
000000t:  Note on ::  Channel 9.  Note 42.  Velocity 127
000003t:  Note on ::  Channel 9.  Note 49.  Velocity 0
000020t:  Note on ::  Channel 9.  Note 61.  Velocity 0
000003t:  Note on ::  Channel 9.  Note 42.  Velocity 0
000023t:  Note on ::  Channel 9.  Note 36.  Velocity 127
000000t:  Note on ::  Channel 9.  Note 61.  Velocity 127
000001t:  Note on ::  Channel 9.  Note 42.  Velocity 127
000022t:  Note on ::  Channel 9.  Note 61.  Velocity 0
000000t:  Note on ::  Channel 9.  Note 36.  Velocity 0
000006t:  Note on ::  Channel 9.  Note 42.  Velocity 0
000019t:  Note on ::  Channel 9.  Note 61.  Velocity 127
000000t:  Note on ::  Channel 9.  Note 42.  Velocity 127
000023t:  Note on ::  Channel 9.  Note 42.  Velocity 0
000000t:  Note on ::  Channel 9.  Note 61.  Velocity 0
000025t:  Note on ::  Channel 9.  Note 38.  Velocity 127
000000t:  Note on ::  Channel 9.  Note 61.  Velocity 127
000001t:  Note on ::  Channel 9.  Note 42.  Velocity 127
000022t:  Note on ::  Channel 9.  Note 42.  Velocity 0
000000t:  Note on ::  Channel 9.  Note 38.  Velocity 0
000001t:  Note on ::  Channel 9.  Note 61.  Velocity 0
000024t:  Note on ::  Channel 9.  Note 61.  Velocity 127
000000t:  Note on ::  Channel 9.  Note 42.  Velocity 127
000023t:  Note on ::  Channel 9.  Note 61.  Velocity 0
000001t:  Note on ::  Channel 9.  Note 42.  Velocity 0
000025t:  Note on ::  Channel 9.  Note 36.  Velocity 127
000000t:  Note on ::  Channel 9.  Note 61.  Velocity 127
000000t:  Note on ::  Channel 9.  Note 51.  Velocity 127
000000t:  Note on ::  Channel 9.  Note 40.  Velocity 127
000001t:  Note on ::  Channel 9.  Note 42.  Velocity 127
000022t:  Note on ::  Channel 9.  Note 61.  Velocity 0
000000t:  Note on ::  Channel 9.  Note 36.  Velocity 0
000001t:  Note on ::  Channel 9.  Note 42.  Velocity 0
000023t:  Note on ::  Channel 9.  Note 36.  Velocity 127
000000t:  Note on ::  Channel 9.  Note 61.  Velocity 127
000001t:  Note on ::  Channel 9.  Note 42.  Velocity 127
000022t:  Note on ::  Channel 9.  Note 61.  Velocity 0
000000t:  Note on ::  Channel 9.  Note 36.  Velocity 0
000002t:  Note on ::  Channel 9.  Note 42.  Velocity 0
000015t:  Note on ::  Channel 9.  Note 51.  Velocity 0
000001t:  Note on ::  Channel 9.  Note 40.  Velocity 0
000008t:  Note on ::  Channel 9.  Note 38.  Velocity 127
000000t:  Note on ::  Channel 9.  Note 61.  Velocity 127
000001t:  Note on ::  Channel 9.  Note 42.  Velocity 127
000022t:  Note on ::  Channel 9.  Note 61.  Velocity 0
000000t:  Note on ::  Channel 9.  Note 38.  Velocity 0
000001t:  Note on ::  Channel 9.  Note 42.  Velocity 0
000024t:  Note on ::  Channel 9.  Note 61.  Velocity 127
000000t:  Note on ::  Channel 9.  Note 42.  Velocity 127
000023t:  Note on ::  Channel 9.  Note 61.  Velocity 0
000002t:  Note on ::  Channel 9.  Note 42.  Velocity 0
000023t:  Note on ::  Channel 9.  Note 36.  Velocity 127
000001t:  Note on ::  Channel 9.  Note 61.  Velocity 127
000000t:  Note on ::  Channel 9.  Note 42.  Velocity 127
000022t:  Note on ::  Channel 9.  Note 61.  Velocity 0
000000t:  Note on ::  Channel 9.  Note 36.  Velocity 0
000002t:  Note on ::  Channel 9.  Note 42.  Velocity 0
000023t:  Note on ::  Channel 9.  Note 61.  Velocity 127
000000t:  Note on ::  Channel 9.  Note 42.  Velocity 127
000023t:  Note on ::  Channel 9.  Note 61.  Velocity 0
000004t:  Note on ::  Channel 9.  Note 42.  Velocity 0
000022t:  Note on ::  Channel 9.  Note 38.  Velocity 127
000000t:  Note on ::  Channel 9.  Note 61.  Velocity 127
000000t:  Note on ::  Channel 9.  Note 42.  Velocity 127
000023t:  Note on ::  Channel 9.  Note 42.  Velocity 0
000000t:  Note on ::  Channel 9.  Note 61.  Velocity 0
000000t:  Note on ::  Channel 9.  Note 38.  Velocity 0
000024t:  Note on ::  Channel 9.  Note 61.  Velocity 127
000000t:  Note on ::  Channel 9.  Note 42.  Velocity 127
000023t:  Note on ::  Channel 9.  Note 42.  Velocity 0
000000t:  Note on ::  Channel 9.  Note 61.  Velocity 0
000026t:  Note on ::  Channel 9.  Note 36.  Velocity 127
000000t:  Note on ::  Channel 9.  Note 61.  Velocity 127
000000t:  Note on ::  Channel 9.  Note 40.  Velocity 127
000001t:  Note on ::  Channel 9.  Note 51.  Velocity 127
000000t:  Note on ::  Channel 9.  Note 42.  Velocity 127
000022t:  Note on ::  Channel 9.  Note 42.  Velocity 0
000000t:  Note on ::  Channel 9.  Note 36.  Velocity 0
000000t:  Note on ::  Channel 9.  Note 61.  Velocity 0
000024t:  Note on ::  Channel 9.  Note 36.  Velocity 127
000001t:  Note on ::  Channel 9.  Note 61.  Velocity 127
000000t:  Note on ::  Channel 9.  Note 42.  Velocity 127
000022t:  Note on ::  Channel 9.  Note 42.  Velocity 0
000000t:  Note on ::  Channel 9.  Note 36.  Velocity 0
000001t:  Note on ::  Channel 9.  Note 61.  Velocity 0
000025t:  Note on ::  Channel 9.  Note 40.  Velocity 0
000001t:  Note on ::  Channel 9.  Note 38.  Velocity 127
000000t:  Note on ::  Channel 9.  Note 61.  Velocity 127
000000t:  Note on ::  Channel 9.  Note 42.  Velocity 127
000005t:  Note on ::  Channel 9.  Note 51.  Velocity 0
000017t:  Note on ::  Channel 9.  Note 38.  Velocity 0
000000t:  Note on ::  Channel 9.  Note 61.  Velocity 0
000002t:  Note on ::  Channel 9.  Note 42.  Velocity 0
000023t:  Note on ::  Channel 9.  Note 61.  Velocity 127
000000t:  Note on ::  Channel 9.  Note 42.  Velocity 127
000023t:  Note on ::  Channel 9.  Note 42.  Velocity 0
000000t:  Note on ::  Channel 9.  Note 61.  Velocity 0
000026t:  Note on ::  Channel 9.  Note 36.  Velocity 127
000000t:  Note on ::  Channel 9.  Note 61.  Velocity 127
000000t:  Note on ::  Channel 9.  Note 42.  Velocity 127
000017t:  Note on ::  Channel 9.  Note 42.  Velocity 0
000005t:  Note on ::  Channel 9.  Note 36.  Velocity 0
000001t:  Note on ::  Channel 9.  Note 61.  Velocity 0
000024t:  Note on ::  Channel 9.  Note 61.  Velocity 127
000000t:  Note on ::  Channel 9.  Note 42.  Velocity 127
000018t:  Note on ::  Channel 9.  Note 42.  Velocity 0
000005t:  Note on ::  Channel 9.  Note 61.  Velocity 0
000026t:  Note on ::  Channel 9.  Note 38.  Velocity 127
000000t:  Note on ::  Channel 9.  Note 61.  Velocity 127
000000t:  Note on ::  Channel 9.  Note 42.  Velocity 127
000020t:  Note on ::  Channel 9.  Note 42.  Velocity 0
000003t:  Note on ::  Channel 9.  Note 61.  Velocity 0
000000t:  Note on ::  Channel 9.  Note 38.  Velocity 0
000024t:  Note on ::  Channel 9.  Note 61.  Velocity 127
000001t:  Note on ::  Channel 9.  Note 42.  Velocity 127
000014t:  Note on ::  Channel 9.  Note 42.  Velocity 0
000008t:  Note on ::  Channel 9.  Note 61.  Velocity 0
000026t:  Note on ::  Channel 9.  Note 36.  Velocity 127
000000t:  Note on ::  Channel 9.  Note 61.  Velocity 127
000001t:  Note on ::  Channel 9.  Note 51.  Velocity 127
000000t:  Note on ::  Channel 9.  Note 40.  Velocity 127
000000t:  Note on ::  Channel 9.  Note 42.  Velocity 127
000019t:  Note on ::  Channel 9.  Note 42.  Velocity 0
000003t:  Note on ::  Channel 9.  Note 36.  Velocity 0
000000t:  Note on ::  Channel 9.  Note 61.  Velocity 0
000025t:  Note on ::  Channel 9.  Note 36.  Velocity 127
000000t:  Note on ::  Channel 9.  Note 61.  Velocity 127
000000t:  Note on ::  Channel 9.  Note 42.  Velocity 127
000023t:  Note on ::  Channel 9.  Note 42.  Velocity 0
000000t:  Note on ::  Channel 9.  Note 36.  Velocity 0
000000t:  Note on ::  Channel 9.  Note 61.  Velocity 0
000016t:  Note on ::  Channel 9.  Note 51.  Velocity 0
000001t:  Note on ::  Channel 9.  Note 40.  Velocity 0
000008t:  Note on ::  Channel 9.  Note 38.  Velocity 127
000000t:  Note on ::  Channel 9.  Note 61.  Velocity 127
000001t:  Note on ::  Channel 9.  Note 42.  Velocity 127
000022t:  Note on ::  Channel 9.  Note 42.  Velocity 0
000000t:  Note on ::  Channel 9.  Note 38.  Velocity 0
000001t:  Note on ::  Channel 9.  Note 61.  Velocity 0
000024t:  Note on ::  Channel 9.  Note 38.  Velocity 127
000000t:  Note on ::  Channel 9.  Note 61.  Velocity 127
000000t:  Note on ::  Channel 9.  Note 42.  Velocity 127
000023t:  Note on ::  Channel 9.  Note 61.  Velocity 0
000000t:  Note on ::  Channel 9.  Note 38.  Velocity 0
000001t:  Note on ::  Channel 9.  Note 42.  Velocity 0
000025t:  Note on ::  Channel 9.  Note 36.  Velocity 127
000000t:  Note on ::  Channel 9.  Note 61.  Velocity 127
000000t:  Note on ::  Channel 9.  Note 42.  Velocity 127
000023t:  Note on ::  Channel 9.  Note 61.  Velocity 0
000000t:  Note on ::  Channel 9.  Note 36.  Velocity 0
000001t:  Note on ::  Channel 9.  Note 42.  Velocity 0
000023t:  Note on ::  Channel 9.  Note 61.  Velocity 127
000000t:  Note on ::  Channel 9.  Note 42.  Velocity 127
000020t:  Note on ::  Channel 9.  Note 42.  Velocity 0
000003t:  Note on ::  Channel 9.  Note 61.  Velocity 0
000026t:  Note on ::  Channel 9.  Note 38.  Velocity 127
000000t:  Note on ::  Channel 9.  Note 61.  Velocity 127
000000t:  Note on ::  Channel 9.  Note 42.  Velocity 127
000022t:  Note on ::  Channel 9.  Note 42.  Velocity 0
000001t:  Note on ::  Channel 9.  Note 61.  Velocity 0
000000t:  Note on ::  Channel 9.  Note 38.  Velocity 0
000024t:  Note on ::  Channel 9.  Note 61.  Velocity 127
000000t:  Note on ::  Channel 9.  Note 42.  Velocity 127
000024t:  Note on ::  Channel 9.  Note 42.  Velocity 0
000000t:  Note on ::  Channel 9.  Note 61.  Velocity 0
000025t:  Note on ::  Channel 9.  Note 36.  Velocity 127
000001t:  Note on ::  Channel 9.  Note 61.  Velocity 127
000000t:  Note on ::  Channel 9.  Note 40.  Velocity 127
000000t:  Note on ::  Channel 9.  Note 51.  Velocity 127
000000t:  Note on ::  Channel 9.  Note 42.  Velocity 127
000022t:  Note on ::  Channel 9.  Note 42.  Velocity 0
000000t:  Note on ::  Channel 9.  Note 36.  Velocity 0
000001t:  Note on ::  Channel 9.  Note 61.  Velocity 0
000024t:  Note on ::  Channel 9.  Note 36.  Velocity 127
000000t:  Note on ::  Channel 9.  Note 61.  Velocity 127
000000t:  Note on ::  Channel 9.  Note 42.  Velocity 127
000023t:  Note on ::  Channel 9.  Note 61.  Velocity 0
000000t:  Note on ::  Channel 9.  Note 36.  Velocity 0
000002t:  Note on ::  Channel 9.  Note 42.  Velocity 0
000024t:  Note on ::  Channel 9.  Note 40.  Velocity 0
000000t:  Note on ::  Channel 9.  Note 38.  Velocity 127
000000t:  Note on ::  Channel 9.  Note 61.  Velocity 127
000000t:  Note on ::  Channel 9.  Note 42.  Velocity 127
000005t:  Note on ::  Channel 9.  Note 51.  Velocity 0
000018t:  Note on ::  Channel 9.  Note 38.  Velocity 0
000000t:  Note on ::  Channel 9.  Note 61.  Velocity 0
000001t:  Note on ::  Channel 9.  Note 42.  Velocity 0
000023t:  Note on ::  Channel 9.  Note 61.  Velocity 127
000000t:  Note on ::  Channel 9.  Note 42.  Velocity 127
000023t:  Note on ::  Channel 9.  Note 61.  Velocity 0
000003t:  Note on ::  Channel 9.  Note 42.  Velocity 0
000023t:  Note on ::  Channel 9.  Note 36.  Velocity 127
000000t:  Note on ::  Channel 9.  Note 61.  Velocity 127
000000t:  Note on ::  Channel 9.  Note 42.  Velocity 127
000023t:  Note on ::  Channel 9.  Note 61.  Velocity 0
000000t:  Note on ::  Channel 9.  Note 36.  Velocity 0
000005t:  Note on ::  Channel 9.  Note 42.  Velocity 0
000019t:  Note on ::  Channel 9.  Note 61.  Velocity 127
000001t:  Note on ::  Channel 9.  Note 42.  Velocity 127
000022t:  Note on ::  Channel 9.  Note 42.  Velocity 0
000000t:  Note on ::  Channel 9.  Note 61.  Velocity 0
000026t:  Note on ::  Channel 9.  Note 38.  Velocity 127
000000t:  Note on ::  Channel 9.  Note 61.  Velocity 127
000001t:  Note on ::  Channel 9.  Note 42.  Velocity 127
000022t:  Note on ::  Channel 9.  Note 42.  Velocity 0
000000t:  Note on ::  Channel 9.  Note 61.  Velocity 0
000000t:  Note on ::  Channel 9.  Note 38.  Velocity 0
000025t:  Note on ::  Channel 9.  Note 61.  Velocity 127
000000t:  Note on ::  Channel 9.  Note 42.  Velocity 127
000023t:  Note on ::  Channel 9.  Note 61.  Velocity 0
000001t:  Note on ::  Channel 9.  Note 42.  Velocity 0
000024t:  Note on ::  Channel 9.  Note 36.  Velocity 127
000000t:  Note on ::  Channel 9.  Note 61.  Velocity 127
000001t:  Note on ::  Channel 9.  Note 51.  Velocity 127
000000t:  Note on ::  Channel 9.  Note 40.  Velocity 127
000000t:  Note on ::  Channel 9.  Note 42.  Velocity 127
000023t:  Note on ::  Channel 9.  Note 61.  Velocity 0
000000t:  Note on ::  Channel 9.  Note 36.  Velocity 0
000001t:  Note on ::  Channel 9.  Note 42.  Velocity 0
000023t:  Note on ::  Channel 9.  Note 36.  Velocity 127
000000t:  Note on ::  Channel 9.  Note 61.  Velocity 127
000000t:  Note on ::  Channel 9.  Note 42.  Velocity 127
000023t:  Note on ::  Channel 9.  Note 61.  Velocity 0
000000t:  Note on ::  Channel 9.  Note 36.  Velocity 0
000001t:  Note on ::  Channel 9.  Note 42.  Velocity 0
000015t:  Note on ::  Channel 9.  Note 51.  Velocity 0
000002t:  Note on ::  Channel 9.  Note 40.  Velocity 0
000008t:  Note on ::  Channel 9.  Note 38.  Velocity 127
000000t:  Note on ::  Channel 9.  Note 61.  Velocity 127
000000t:  Note on ::  Channel 9.  Note 42.  Velocity 127
000023t:  Note on ::  Channel 9.  Note 61.  Velocity 0
000000t:  Note on ::  Channel 9.  Note 38.  Velocity 0
000001t:  Note on ::  Channel 9.  Note 42.  Velocity 0
000023t:  Note on ::  Channel 9.  Note 61.  Velocity 127
000000t:  Note on ::  Channel 9.  Note 42.  Velocity 127
000023t:  Note on ::  Channel 9.  Note 61.  Velocity 0
000003t:  Note on ::  Channel 9.  Note 42.  Velocity 0
000023t:  Note on ::  Channel 9.  Note 36.  Velocity 127
000000t:  Note on ::  Channel 9.  Note 61.  Velocity 127
000000t:  Note on ::  Channel 9.  Note 42.  Velocity 127
000023t:  Note on ::  Channel 9.  Note 61.  Velocity 0
000000t:  Note on ::  Channel 9.  Note 36.  Velocity 0
000001t:  Note on ::  Channel 9.  Note 42.  Velocity 0
000024t:  Note on ::  Channel 9.  Note 61.  Velocity 127
000000t:  Note on ::  Channel 9.  Note 42.  Velocity 127
000023t:  Note on ::  Channel 9.  Note 61.  Velocity 0
000004t:  Note on ::  Channel 9.  Note 42.  Velocity 0
000021t:  Note on ::  Channel 9.  Note 38.  Velocity 127
000000t:  Note on ::  Channel 9.  Note 61.  Velocity 127
000001t:  Note on ::  Channel 9.  Note 42.  Velocity 127
000022t:  Note on ::  Channel 9.  Note 42.  Velocity 0
000000t:  Note on ::  Channel 9.  Note 38.  Velocity 0
000001t:  Note on ::  Channel 9.  Note 61.  Velocity 0
000024t:  Note on ::  Channel 9.  Note 61.  Velocity 127
000000t:  Note on ::  Channel 9.  Note 42.  Velocity 127
000023t:  Note on ::  Channel 9.  Note 42.  Velocity 0
000000t:  Note on ::  Channel 9.  Note 61.  Velocity 0
000026t:  Note on ::  Channel 9.  Note 36.  Velocity 127
000000t:  Note on ::  Channel 9.  Note 61.  Velocity 127
000000t:  Note on ::  Channel 9.  Note 40.  Velocity 127
000000t:  Note on ::  Channel 9.  Note 51.  Velocity 127
000001t:  Note on ::  Channel 9.  Note 42.  Velocity 127
000022t:  Note on ::  Channel 9.  Note 42.  Velocity 0
000000t:  Note on ::  Channel 9.  Note 36.  Velocity 0
000000t:  Note on ::  Channel 9.  Note 61.  Velocity 0
000024t:  Note on ::  Channel 9.  Note 36.  Velocity 127
000000t:  Note on ::  Channel 9.  Note 61.  Velocity 127
000001t:  Note on ::  Channel 9.  Note 42.  Velocity 127
000022t:  Note on ::  Channel 9.  Note 42.  Velocity 0
000000t:  Note on ::  Channel 9.  Note 36.  Velocity 0
000001t:  Note on ::  Channel 9.  Note 61.  Velocity 0
000025t:  Note on ::  Channel 9.  Note 40.  Velocity 0
000000t:  Note on ::  Channel 9.  Note 38.  Velocity 127
000000t:  Note on ::  Channel 9.  Note 61.  Velocity 127
000001t:  Note on ::  Channel 9.  Note 42.  Velocity 127
000004t:  Note on ::  Channel 9.  Note 51.  Velocity 0
000018t:  Note on ::  Channel 9.  Note 38.  Velocity 0
000000t:  Note on ::  Channel 9.  Note 61.  Velocity 0
000001t:  Note on ::  Channel 9.  Note 42.  Velocity 0
000023t:  Note on ::  Channel 9.  Note 61.  Velocity 127
000001t:  Note on ::  Channel 9.  Note 42.  Velocity 127
000022t:  Note on ::  Channel 9.  Note 42.  Velocity 0
000000t:  Note on ::  Channel 9.  Note 61.  Velocity 0
000026t:  Note on ::  Channel 9.  Note 36.  Velocity 127
000000t:  Note on ::  Channel 9.  Note 61.  Velocity 127
000001t:  Note on ::  Channel 9.  Note 42.  Velocity 127
000017t:  Note on ::  Channel 9.  Note 42.  Velocity 0
000005t:  Note on ::  Channel 9.  Note 61.  Velocity 0
000000t:  Note on ::  Channel 9.  Note 36.  Velocity 0
000025t:  Note on ::  Channel 9.  Note 61.  Velocity 127
000000t:  Note on ::  Channel 9.  Note 42.  Velocity 127
000017t:  Note on ::  Channel 9.  Note 42.  Velocity 0
000006t:  Note on ::  Channel 9.  Note 61.  Velocity 0
000026t:  Note on ::  Channel 9.  Note 38.  Velocity 127
000000t:  Note on ::  Channel 9.  Note 61.  Velocity 127
000000t:  Note on ::  Channel 9.  Note 42.  Velocity 127
000020t:  Note on ::  Channel 9.  Note 42.  Velocity 0
000002t:  Note on ::  Channel 9.  Note 38.  Velocity 0
000001t:  Note on ::  Channel 9.  Note 61.  Velocity 0
000024t:  Note on ::  Channel 9.  Note 61.  Velocity 127
000000t:  Note on ::  Channel 9.  Note 42.  Velocity 127
000015t:  Note on ::  Channel 9.  Note 42.  Velocity 0
000008t:  Note on ::  Channel 9.  Note 61.  Velocity 0
000026t:  Note on ::  Channel 9.  Note 36.  Velocity 127
000000t:  Note on ::  Channel 9.  Note 61.  Velocity 127
000000t:  Note on ::  Channel 9.  Note 51.  Velocity 127
000001t:  Note on ::  Channel 9.  Note 40.  Velocity 127
000000t:  Note on ::  Channel 9.  Note 42.  Velocity 127
000019t:  Note on ::  Channel 9.  Note 42.  Velocity 0
000003t:  Note on ::  Channel 9.  Note 36.  Velocity 0
000000t:  Note on ::  Channel 9.  Note 61.  Velocity 0
000024t:  Note on ::  Channel 9.  Note 36.  Velocity 127
000001t:  Note on ::  Channel 9.  Note 61.  Velocity 127
000000t:  Note on ::  Channel 9.  Note 42.  Velocity 127
000022t:  Note on ::  Channel 9.  Note 42.  Velocity 0
000000t:  Note on ::  Channel 9.  Note 36.  Velocity 0
000001t:  Note on ::  Channel 9.  Note 61.  Velocity 0
000016t:  Note on ::  Channel 9.  Note 51.  Velocity 0
000001t:  Note on ::  Channel 9.  Note 40.  Velocity 0
000008t:  Note on ::  Channel 9.  Note 38.  Velocity 127
000000t:  Note on ::  Channel 9.  Note 61.  Velocity 127
000001t:  Note on ::  Channel 9.  Note 42.  Velocity 127
000022t:  Note on ::  Channel 9.  Note 42.  Velocity 0
000000t:  Note on ::  Channel 9.  Note 61.  Velocity 0
000000t:  Note on ::  Channel 9.  Note 38.  Velocity 0
000025t:  Note on ::  Channel 9.  Note 61.  Velocity 127
000000t:  Note on ::  Channel 9.  Note 42.  Velocity 127
000023t:  Note on ::  Channel 9.  Note 61.  Velocity 0
000001t:  Note on ::  Channel 9.  Note 42.  Velocity 0
000024t:  Note on ::  Channel 9.  Note 36.  Velocity 127
000000t:  Note on ::  Channel 9.  Note 61.  Velocity 127
000001t:  Note on ::  Channel 9.  Note 42.  Velocity 127
000022t:  Note on ::  Channel 9.  Note 61.  Velocity 0
000000t:  Note on ::  Channel 9.  Note 36.  Velocity 0
000004t:  Note on ::  Channel 9.  Note 42.  Velocity 0
000021t:  Note on ::  Channel 9.  Note 61.  Velocity 127
000000t:  Note on ::  Channel 9.  Note 42.  Velocity 127
000023t:  Note on ::  Channel 9.  Note 42.  Velocity 0
000000t:  Note on ::  Channel 9.  Note 61.  Velocity 0
000026t:  Note on ::  Channel 9.  Note 38.  Velocity 127
000000t:  Note on ::  Channel 9.  Note 61.  Velocity 127
000000t:  Note on ::  Channel 9.  Note 42.  Velocity 127
000021t:  Note on ::  Channel 9.  Note 42.  Velocity 0
000002t:  Note on ::  Channel 9.  Note 61.  Velocity 0
000000t:  Note on ::  Channel 9.  Note 38.  Velocity 0
000024t:  Note on ::  Channel 9.  Note 61.  Velocity 127
000000t:  Note on ::  Channel 9.  Note 42.  Velocity 127
000020t:  Note on ::  Channel 9.  Note 42.  Velocity 0
000003t:  Note on ::  Channel 9.  Note 61.  Velocity 0
000026t:  Note on ::  Channel 9.  Note 36.  Velocity 127
000000t:  Note on ::  Channel 9.  Note 61.  Velocity 127
000000t:  Note on ::  Channel 9.  Note 40.  Velocity 127
000001t:  Note on ::  Channel 9.  Note 51.  Velocity 127
000000t:  Note on ::  Channel 9.  Note 42.  Velocity 127
000018t:  Note on ::  Channel 9.  Note 42.  Velocity 0
000004t:  Note on ::  Channel 9.  Note 36.  Velocity 0
000000t:  Note on ::  Channel 9.  Note 61.  Velocity 0
000024t:  Note on ::  Channel 9.  Note 36.  Velocity 127
000001t:  Note on ::  Channel 9.  Note 61.  Velocity 127
000000t:  Note on ::  Channel 9.  Note 42.  Velocity 127
000023t:  Note on ::  Channel 9.  Note 42.  Velocity 0
000000t:  Note on ::  Channel 9.  Note 36.  Velocity 0
000000t:  Note on ::  Channel 9.  Note 61.  Velocity 0
000025t:  Note on ::  Channel 9.  Note 40.  Velocity 0
000001t:  Note on ::  Channel 9.  Note 38.  Velocity 127
000000t:  Note on ::  Channel 9.  Note 61.  Velocity 127
000000t:  Note on ::  Channel 9.  Note 42.  Velocity 127
000005t:  Note on ::  Channel 9.  Note 51.  Velocity 0
000017t:  Note on ::  Channel 9.  Note 61.  Velocity 0
000001t:  Note on ::  Channel 9.  Note 38.  Velocity 0
000001t:  Note on ::  Channel 9.  Note 42.  Velocity 0
000023t:  Note on ::  Channel 9.  Note 61.  Velocity 127
000000t:  Note on ::  Channel 9.  Note 42.  Velocity 127
000023t:  Note on ::  Channel 9.  Note 42.  Velocity 0
000000t:  Note on ::  Channel 9.  Note 61.  Velocity 0
000026t:  Note on ::  Channel 9.  Note 36.  Velocity 127
000000t:  Note on ::  Channel 9.  Note 61.  Velocity 127
000000t:  Note on ::  Channel 9.  Note 42.  Velocity 127
000021t:  Note on ::  Channel 9.  Note 42.  Velocity 0
000002t:  Note on ::  Channel 9.  Note 61.  Velocity 0
000000t:  Note on ::  Channel 9.  Note 36.  Velocity 0
000024t:  Note on ::  Channel 9.  Note 61.  Velocity 127
000000t:  Note on ::  Channel 9.  Note 42.  Velocity 127
000019t:  Note on ::  Channel 9.  Note 42.  Velocity 0
000004t:  Note on ::  Channel 9.  Note 61.  Velocity 0
000026t:  Note on ::  Channel 9.  Note 38.  Velocity 127
000000t:  Note on ::  Channel 9.  Note 61.  Velocity 127
000000t:  Note on ::  Channel 9.  Note 42.  Velocity 127
000019t:  Note on ::  Channel 9.  Note 42.  Velocity 0
000004t:  Note on ::  Channel 9.  Note 61.  Velocity 0
000000t:  Note on ::  Channel 9.  Note 38.  Velocity 0
000024t:  Note on ::  Channel 9.  Note 61.  Velocity 127
000001t:  Note on ::  Channel 9.  Note 42.  Velocity 127
000018t:  Note on ::  Channel 9.  Note 42.  Velocity 0
000004t:  Note on ::  Channel 9.  Note 61.  Velocity 0
000026t:  Note on ::  Channel 9.  Note 36.  Velocity 127
000000t:  Note on ::  Channel 9.  Note 61.  Velocity 127
000001t:  Note on ::  Channel 9.  Note 51.  Velocity 127
000000t:  Note on ::  Channel 9.  Note 40.  Velocity 127
000000t:  Note on ::  Channel 9.  Note 42.  Velocity 127
000018t:  Note on ::  Channel 9.  Note 42.  Velocity 0
000004t:  Note on ::  Channel 9.  Note 36.  Velocity 0
000000t:  Note on ::  Channel 9.  Note 61.  Velocity 0
000025t:  Note on ::  Channel 9.  Note 36.  Velocity 127
000000t:  Note on ::  Channel 9.  Note 61.  Velocity 127
000000t:  Note on ::  Channel 9.  Note 42.  Velocity 127
000021t:  Note on ::  Channel 9.  Note 42.  Velocity 0
000002t:  Note on ::  Channel 9.  Note 36.  Velocity 0
000000t:  Note on ::  Channel 9.  Note 61.  Velocity 0
000016t:  Note on ::  Channel 9.  Note 51.  Velocity 0
000001t:  Note on ::  Channel 9.  Note 40.  Velocity 0
000008t:  Note on ::  Channel 9.  Note 38.  Velocity 127
000000t:  Note on ::  Channel 9.  Note 61.  Velocity 127
000001t:  Note on ::  Channel 9.  Note 42.  Velocity 127
000023t:  Note on ::  Channel 9.  Note 61.  Velocity 0
000000t:  Note on ::  Channel 9.  Note 38.  Velocity 0
000001t:  Note on ::  Channel 9.  Note 42.  Velocity 0
000023t:  Note on ::  Channel 9.  Note 61.  Velocity 127
000000t:  Note on ::  Channel 9.  Note 42.  Velocity 127
000023t:  Note on ::  Channel 9.  Note 61.  Velocity 0
000004t:  Note on ::  Channel 9.  Note 42.  Velocity 0
000022t:  Note on ::  Channel 9.  Note 36.  Velocity 127
000000t:  Note on ::  Channel 9.  Note 61.  Velocity 127
000000t:  Note on ::  Channel 9.  Note 42.  Velocity 127
000023t:  Note on ::  Channel 9.  Note 61.  Velocity 0
000000t:  Note on ::  Channel 9.  Note 36.  Velocity 0
000012t:  Note on ::  Channel 9.  Note 42.  Velocity 0
000012t:  Note on ::  Channel 9.  Note 61.  Velocity 127
000000t:  Note on ::  Channel 9.  Note 42.  Velocity 127
000023t:  Note on ::  Channel 9.  Note 61.  Velocity 0
000002t:  Note on ::  Channel 9.  Note 42.  Velocity 0
000024t:  Note on ::  Channel 9.  Note 38.  Velocity 127
000000t:  Note on ::  Channel 9.  Note 61.  Velocity 127
000000t:  Note on ::  Channel 9.  Note 42.  Velocity 127
000019t:  Note on ::  Channel 9.  Note 42.  Velocity 0
000004t:  Note on ::  Channel 9.  Note 61.  Velocity 0
000000t:  Note on ::  Channel 9.  Note 38.  Velocity 0
000025t:  Note on ::  Channel 9.  Note 61.  Velocity 127
000000t:  Note on ::  Channel 9.  Note 42.  Velocity 127
000020t:  Note on ::  Channel 9.  Note 42.  Velocity 0
000003t:  Note on ::  Channel 9.  Note 61.  Velocity 0
000025t:  Note on ::  Channel 9.  Note 36.  Velocity 127
000000t:  Note on ::  Channel 9.  Note 61.  Velocity 127
000001t:  Note on ::  Channel 9.  Note 40.  Velocity 127
000000t:  Note on ::  Channel 9.  Note 51.  Velocity 127
000000t:  Note on ::  Channel 9.  Note 42.  Velocity 127
000020t:  Note on ::  Channel 9.  Note 42.  Velocity 0
000002t:  Note on ::  Channel 9.  Note 36.  Velocity 0
000000t:  Note on ::  Channel 9.  Note 61.  Velocity 0
000025t:  Note on ::  Channel 9.  Note 36.  Velocity 127
000000t:  Note on ::  Channel 9.  Note 61.  Velocity 127
000000t:  Note on ::  Channel 9.  Note 42.  Velocity 127
000020t:  Note on ::  Channel 9.  Note 42.  Velocity 0
000003t:  Note on ::  Channel 9.  Note 36.  Velocity 0
000000t:  Note on ::  Channel 9.  Note 61.  Velocity 0
000026t:  Note on ::  Channel 9.  Note 40.  Velocity 0
000000t:  Note on ::  Channel 9.  Note 38.  Velocity 127
000000t:  Note on ::  Channel 9.  Note 61.  Velocity 127
000000t:  Note on ::  Channel 9.  Note 42.  Velocity 127
000005t:  Note on ::  Channel 9.  Note 51.  Velocity 0
000018t:  Note on ::  Channel 9.  Note 38.  Velocity 0
000000t:  Note on ::  Channel 9.  Note 61.  Velocity 0
000000t:  Note on ::  Channel 9.  Note 42.  Velocity 0
000024t:  Note on ::  Channel 9.  Note 61.  Velocity 127
000000t:  Note on ::  Channel 9.  Note 42.  Velocity 127
000023t:  Note on ::  Channel 9.  Note 42.  Velocity 0
000000t:  Note on ::  Channel 9.  Note 61.  Velocity 0
000026t:  Note on ::  Channel 9.  Note 36.  Velocity 127
000000t:  Note on ::  Channel 9.  Note 61.  Velocity 127
000000t:  Note on ::  Channel 9.  Note 42.  Velocity 127
000023t:  Note on ::  Channel 9.  Note 61.  Velocity 0
000000t:  Note on ::  Channel 9.  Note 36.  Velocity 0
000007t:  Note on ::  Channel 9.  Note 42.  Velocity 0
000017t:  Note on ::  Channel 9.  Note 61.  Velocity 127
000000t:  Note on ::  Channel 9.  Note 42.  Velocity 127
000024t:  Note on ::  Channel 9.  Note 42.  Velocity 0
000000t:  Note on ::  Channel 9.  Note 61.  Velocity 0
000025t:  Note on ::  Channel 9.  Note 38.  Velocity 127
000000t:  Note on ::  Channel 9.  Note 61.  Velocity 127
000001t:  Note on ::  Channel 9.  Note 42.  Velocity 127
000020t:  Note on ::  Channel 9.  Note 42.  Velocity 0
000002t:  Note on ::  Channel 9.  Note 61.  Velocity 0
000000t:  Note on ::  Channel 9.  Note 38.  Velocity 0
000025t:  Note on ::  Channel 9.  Note 61.  Velocity 127
000000t:  Note on ::  Channel 9.  Note 42.  Velocity 127
000023t:  Note on ::  Channel 9.  Note 42.  Velocity 0
000000t:  Note on ::  Channel 9.  Note 61.  Velocity 0
000026t:  Note on ::  Channel 9.  Note 36.  Velocity 127
000000t:  Note on ::  Channel 9.  Note 61.  Velocity 127
000000t:  Note on ::  Channel 9.  Note 51.  Velocity 127
000000t:  Note on ::  Channel 9.  Note 40.  Velocity 127
000000t:  Note on ::  Channel 9.  Note 42.  Velocity 127
000023t:  Note on ::  Channel 9.  Note 42.  Velocity 0
000000t:  Note on ::  Channel 9.  Note 36.  Velocity 0
000000t:  Note on ::  Channel 9.  Note 61.  Velocity 0
000024t:  Note on ::  Channel 9.  Note 36.  Velocity 127
000000t:  Note on ::  Channel 9.  Note 61.  Velocity 127
000001t:  Note on ::  Channel 9.  Note 42.  Velocity 127
000022t:  Note on ::  Channel 9.  Note 61.  Velocity 0
000000t:  Note on ::  Channel 9.  Note 36.  Velocity 0
000001t:  Note on ::  Channel 9.  Note 42.  Velocity 0
000015t:  Note on ::  Channel 9.  Note 51.  Velocity 0
000002t:  Note on ::  Channel 9.  Note 40.  Velocity 0
000008t:  Note on ::  Channel 9.  Note 38.  Velocity 127
000000t:  Note on ::  Channel 9.  Note 61.  Velocity 127
000000t:  Note on ::  Channel 9.  Note 42.  Velocity 127
000020t:  Note on ::  Channel 9.  Note 42.  Velocity 0
000003t:  Note on ::  Channel 9.  Note 61.  Velocity 0
000000t:  Note on ::  Channel 9.  Note 38.  Velocity 0
000024t:  Note on ::  Channel 9.  Note 61.  Velocity 127
000000t:  Note on ::  Channel 9.  Note 42.  Velocity 127
000023t:  Note on ::  Channel 9.  Note 42.  Velocity 0
000000t:  Note on ::  Channel 9.  Note 61.  Velocity 0
000026t:  Note on ::  Channel 9.  Note 36.  Velocity 127
000000t:  Note on ::  Channel 9.  Note 61.  Velocity 127
000001t:  Note on ::  Channel 9.  Note 42.  Velocity 127
000000t:  Note on ::  Channel 9.  Note 49.  Velocity 127
000007t:  Control change ::  Channel 9.  Controller 66.  Value: 0
000004t:  Control change ::  Channel 9.  Controller 66.  Value: 0
000004t:  Control change ::  Channel 9.  Controller 66.  Value: 0
000007t:  Note on ::  Channel 9.  Note 61.  Velocity 0
000000t:  Note on ::  Channel 9.  Note 36.  Velocity 0
000002t:  Note on ::  Channel 9.  Note 42.  Velocity 0
000023t:  Note on ::  Channel 9.  Note 61.  Velocity 127
000000t:  Note on ::  Channel 9.  Note 42.  Velocity 127
000020t:  Note on ::  Channel 9.  Note 42.  Velocity 0
000003t:  Note on ::  Channel 9.  Note 61.  Velocity 0
000025t:  Note on ::  Channel 9.  Note 38.  Velocity 127
000001t:  Note on ::  Channel 9.  Note 61.  Velocity 127
000000t:  Note on ::  Channel 9.  Note 42.  Velocity 127
000021t:  Note on ::  Channel 9.  Note 42.  Velocity 0
000001t:  Note on ::  Channel 9.  Note 38.  Velocity 0
000001t:  Note on ::  Channel 9.  Note 61.  Velocity 0
000024t:  Note on ::  Channel 9.  Note 61.  Velocity 127
000000t:  Note on ::  Channel 9.  Note 42.  Velocity 127
000023t:  Note on ::  Channel 9.  Note 42.  Velocity 0
000000t:  Note on ::  Channel 9.  Note 61.  Velocity 0
000026t:  Note on ::  Channel 9.  Note 36.  Velocity 127
000000t:  Note on ::  Channel 9.  Note 61.  Velocity 127
000000t:  Note on ::  Channel 9.  Note 40.  Velocity 127
000000t:  Note on ::  Channel 9.  Note 51.  Velocity 127
000001t:  Note on ::  Channel 9.  Note 42.  Velocity 127
000022t:  Note on ::  Channel 9.  Note 42.  Velocity 0
000000t:  Note on ::  Channel 9.  Note 36.  Velocity 0
000000t:  Note on ::  Channel 9.  Note 61.  Velocity 0
000024t:  Note on ::  Channel 9.  Note 36.  Velocity 127
000000t:  Note on ::  Channel 9.  Note 61.  Velocity 127
000001t:  Note on ::  Channel 9.  Note 42.  Velocity 127
000022t:  Note on ::  Channel 9.  Note 61.  Velocity 0
000000t:  Note on ::  Channel 9.  Note 36.  Velocity 0
000003t:  Note on ::  Channel 9.  Note 42.  Velocity 0
000023t:  Note on ::  Channel 9.  Note 40.  Velocity 0
000000t:  Note on ::  Channel 9.  Note 38.  Velocity 127
000001t:  Note on ::  Channel 9.  Note 61.  Velocity 127
000000t:  Note on ::  Channel 9.  Note 42.  Velocity 127
000005t:  Note on ::  Channel 9.  Note 51.  Velocity 0
000017t:  Note on ::  Channel 9.  Note 61.  Velocity 0
000000t:  Note on ::  Channel 9.  Note 38.  Velocity 0
000001t:  Note on ::  Channel 9.  Note 42.  Velocity 0
000023t:  Note on ::  Channel 9.  Note 61.  Velocity 127
000000t:  Note on ::  Channel 9.  Note 42.  Velocity 127
000003t:  Note on ::  Channel 9.  Note 49.  Velocity 0
000021t:  Note on ::  Channel 9.  Note 61.  Velocity 0
000002t:  Note on ::  Channel 9.  Note 42.  Velocity 0
000023t:  Note on ::  Channel 9.  Note 36.  Velocity 127
000001t:  Note on ::  Channel 9.  Note 61.  Velocity 127
000000t:  Note on ::  Channel 9.  Note 42.  Velocity 127
000022t:  Note on ::  Channel 9.  Note 61.  Velocity 0
000000t:  Note on ::  Channel 9.  Note 36.  Velocity 0
000006t:  Note on ::  Channel 9.  Note 42.  Velocity 0
000019t:  Note on ::  Channel 9.  Note 61.  Velocity 127
000000t:  Note on ::  Channel 9.  Note 42.  Velocity 127
000023t:  Note on ::  Channel 9.  Note 42.  Velocity 0
000000t:  Note on ::  Channel 9.  Note 61.  Velocity 0
000026t:  Note on ::  Channel 9.  Note 38.  Velocity 127
000000t:  Note on ::  Channel 9.  Note 61.  Velocity 127
000000t:  Note on ::  Channel 9.  Note 42.  Velocity 127
000023t:  Note on ::  Channel 9.  Note 42.  Velocity 0
000000t:  Note on ::  Channel 9.  Note 61.  Velocity 0
000000t:  Note on ::  Channel 9.  Note 38.  Velocity 0
000024t:  Note on ::  Channel 9.  Note 61.  Velocity 127
000000t:  Note on ::  Channel 9.  Note 42.  Velocity 127
000023t:  Note on ::  Channel 9.  Note 61.  Velocity 0
000001t:  Note on ::  Channel 9.  Note 42.  Velocity 0
000025t:  Note on ::  Channel 9.  Note 36.  Velocity 127
000000t:  Note on ::  Channel 9.  Note 61.  Velocity 127
000000t:  Note on ::  Channel 9.  Note 51.  Velocity 127
000001t:  Note on ::  Channel 9.  Note 40.  Velocity 127
000000t:  Note on ::  Channel 9.  Note 42.  Velocity 127
000022t:  Note on ::  Channel 9.  Note 61.  Velocity 0
000000t:  Note on ::  Channel 9.  Note 36.  Velocity 0
000001t:  Note on ::  Channel 9.  Note 42.  Velocity 0
000023t:  Note on ::  Channel 9.  Note 36.  Velocity 127
000001t:  Note on ::  Channel 9.  Note 61.  Velocity 127
000000t:  Note on ::  Channel 9.  Note 42.  Velocity 127
000022t:  Note on ::  Channel 9.  Note 61.  Velocity 0
000000t:  Note on ::  Channel 9.  Note 36.  Velocity 0
000002t:  Note on ::  Channel 9.  Note 42.  Velocity 0
000015t:  Note on ::  Channel 9.  Note 51.  Velocity 0
000001t:  Note on ::  Channel 9.  Note 40.  Velocity 0
000008t:  Note on ::  Channel 9.  Note 38.  Velocity 127
000000t:  Note on ::  Channel 9.  Note 61.  Velocity 127
000001t:  Note on ::  Channel 9.  Note 42.  Velocity 127
000022t:  Note on ::  Channel 9.  Note 61.  Velocity 0
000000t:  Note on ::  Channel 9.  Note 38.  Velocity 0
000002t:  Note on ::  Channel 9.  Note 42.  Velocity 0
000023t:  Note on ::  Channel 9.  Note 61.  Velocity 127
000000t:  Note on ::  Channel 9.  Note 42.  Velocity 127
000023t:  Note on ::  Channel 9.  Note 61.  Velocity 0
000002t:  Note on ::  Channel 9.  Note 42.  Velocity 0
000024t:  Note on ::  Channel 9.  Note 36.  Velocity 127
000000t:  Note on ::  Channel 9.  Note 61.  Velocity 127
000000t:  Note on ::  Channel 9.  Note 42.  Velocity 127
000023t:  Note on ::  Channel 9.  Note 61.  Velocity 0
000000t:  Note on ::  Channel 9.  Note 36.  Velocity 0
000001t:  Note on ::  Channel 9.  Note 42.  Velocity 0
000023t:  Note on ::  Channel 9.  Note 61.  Velocity 127
000000t:  Note on ::  Channel 9.  Note 42.  Velocity 127
000023t:  Note on ::  Channel 9.  Note 61.  Velocity 0
000004t:  Note on ::  Channel 9.  Note 42.  Velocity 0
000022t:  Note on ::  Channel 9.  Note 38.  Velocity 127
000000t:  Note on ::  Channel 9.  Note 61.  Velocity 127
000000t:  Note on ::  Channel 9.  Note 42.  Velocity 127
000023t:  Note on ::  Channel 9.  Note 42.  Velocity 0
000000t:  Note on ::  Channel 9.  Note 61.  Velocity 0
000000t:  Note on ::  Channel 9.  Note 38.  Velocity 0
000024t:  Note on ::  Channel 9.  Note 61.  Velocity 127
000000t:  Note on ::  Channel 9.  Note 42.  Velocity 127
000023t:  Note on ::  Channel 9.  Note 61.  Velocity 0
000001t:  Note on ::  Channel 9.  Note 42.  Velocity 0
000025t:  Note on ::  Channel 9.  Note 36.  Velocity 127
000000t:  Note on ::  Channel 9.  Note 61.  Velocity 127
000000t:  Note on ::  Channel 9.  Note 40.  Velocity 127
000001t:  Note on ::  Channel 9.  Note 51.  Velocity 127
000000t:  Note on ::  Channel 9.  Note 42.  Velocity 127
000022t:  Note on ::  Channel 9.  Note 42.  Velocity 0
000000t:  Note on ::  Channel 9.  Note 36.  Velocity 0
000000t:  Note on ::  Channel 9.  Note 61.  Velocity 0
000025t:  Note on ::  Channel 9.  Note 36.  Velocity 127
000000t:  Note on ::  Channel 9.  Note 61.  Velocity 127
000000t:  Note on ::  Channel 9.  Note 42.  Velocity 127
000023t:  Note on ::  Channel 9.  Note 42.  Velocity 0
000000t:  Note on ::  Channel 9.  Note 36.  Velocity 0
000000t:  Note on ::  Channel 9.  Note 61.  Velocity 0
000025t:  Note on ::  Channel 9.  Note 40.  Velocity 0
000001t:  Note on ::  Channel 9.  Note 38.  Velocity 127
000000t:  Note on ::  Channel 9.  Note 61.  Velocity 127
000000t:  Note on ::  Channel 9.  Note 42.  Velocity 127
000005t:  Note on ::  Channel 9.  Note 51.  Velocity 0
000017t:  Note on ::  Channel 9.  Note 38.  Velocity 0
000000t:  Note on ::  Channel 9.  Note 61.  Velocity 0
000002t:  Note on ::  Channel 9.  Note 42.  Velocity 0
000023t:  Note on ::  Channel 9.  Note 61.  Velocity 127
000000t:  Note on ::  Channel 9.  Note 42.  Velocity 127
000023t:  Note on ::  Channel 9.  Note 42.  Velocity 0
000000t:  Note on ::  Channel 9.  Note 61.  Velocity 0
000026t:  Note on ::  Channel 9.  Note 36.  Velocity 127
000000t:  Note on ::  Channel 9.  Note 61.  Velocity 127
000000t:  Note on ::  Channel 9.  Note 42.  Velocity 127
000017t:  Note on ::  Channel 9.  Note 42.  Velocity 0
000006t:  Note on ::  Channel 9.  Note 61.  Velocity 0
000000t:  Note on ::  Channel 9.  Note 36.  Velocity 0
000024t:  Note on ::  Channel 9.  Note 61.  Velocity 127
000000t:  Note on ::  Channel 9.  Note 42.  Velocity 127
000018t:  Note on ::  Channel 9.  Note 42.  Velocity 0
000005t:  Note on ::  Channel 9.  Note 61.  Velocity 0
000026t:  Note on ::  Channel 9.  Note 38.  Velocity 127
000000t:  Note on ::  Channel 9.  Note 61.  Velocity 127
000000t:  Note on ::  Channel 9.  Note 42.  Velocity 127
000020t:  Note on ::  Channel 9.  Note 42.  Velocity 0
000003t:  Note on ::  Channel 9.  Note 61.  Velocity 0
000000t:  Note on ::  Channel 9.  Note 38.  Velocity 0
000024t:  Note on ::  Channel 9.  Note 61.  Velocity 127
000000t:  Note on ::  Channel 9.  Note 42.  Velocity 127
000015t:  Note on ::  Channel 9.  Note 42.  Velocity 0
000008t:  Note on ::  Channel 9.  Note 61.  Velocity 0
000026t:  Note on ::  Channel 9.  Note 36.  Velocity 127
000000t:  Note on ::  Channel 9.  Note 61.  Velocity 127
000001t:  Note on ::  Channel 9.  Note 51.  Velocity 127
000000t:  Note on ::  Channel 9.  Note 40.  Velocity 127
000000t:  Note on ::  Channel 9.  Note 42.  Velocity 127
000020t:  Note on ::  Channel 9.  Note 42.  Velocity 0
000002t:  Note on ::  Channel 9.  Note 36.  Velocity 0
000000t:  Note on ::  Channel 9.  Note 61.  Velocity 0
000025t:  Note on ::  Channel 9.  Note 36.  Velocity 127
000000t:  Note on ::  Channel 9.  Note 61.  Velocity 127
000000t:  Note on ::  Channel 9.  Note 42.  Velocity 127
000023t:  Note on ::  Channel 9.  Note 42.  Velocity 0
000000t:  Note on ::  Channel 9.  Note 36.  Velocity 0
000000t:  Note on ::  Channel 9.  Note 61.  Velocity 0
000016t:  Note on ::  Channel 9.  Note 51.  Velocity 0
000001t:  Note on ::  Channel 9.  Note 40.  Velocity 0
000009t:  Note on ::  Channel 9.  Note 38.  Velocity 127
000000t:  Note on ::  Channel 9.  Note 61.  Velocity 127
000000t:  Note on ::  Channel 9.  Note 42.  Velocity 127
000023t:  Note on ::  Channel 9.  Note 42.  Velocity 0
000000t:  Note on ::  Channel 9.  Note 61.  Velocity 0
000000t:  Note on ::  Channel 9.  Note 38.  Velocity 0
000024t:  Note on ::  Channel 9.  Note 38.  Velocity 127
000000t:  Note on ::  Channel 9.  Note 61.  Velocity 127
000000t:  Note on ::  Channel 9.  Note 42.  Velocity 127
000023t:  Note on ::  Channel 9.  Note 61.  Velocity 0
000000t:  Note on ::  Channel 9.  Note 38.  Velocity 0
000001t:  Note on ::  Channel 9.  Note 42.  Velocity 0
000025t:  Note on ::  Channel 9.  Note 36.  Velocity 127
000000t:  Note on ::  Channel 9.  Note 42.  Velocity 127
000023t:  Note on ::  Channel 9.  Note 36.  Velocity 0
000001t:  Note on ::  Channel 9.  Note 42.  Velocity 0
000023t:  Note on ::  Channel 9.  Note 42.  Velocity 127
000021t:  Note on ::  Channel 9.  Note 42.  Velocity 0
000028t:  Note on ::  Channel 9.  Note 36.  Velocity 127
000000t:  Note on ::  Channel 9.  Note 38.  Velocity 127
000001t:  Note on ::  Channel 9.  Note 42.  Velocity 127
000021t:  Note on ::  Channel 9.  Note 42.  Velocity 0
000001t:  Note on ::  Channel 9.  Note 38.  Velocity 0
000000t:  Note on ::  Channel 9.  Note 36.  Velocity 0
000025t:  Note on ::  Channel 9.  Note 42.  Velocity 127
000023t:  Note on ::  Channel 9.  Note 42.  Velocity 0
000025t:  Note on ::  Channel 9.  Note 36.  Velocity 127
000000t:  Note on ::  Channel 9.  Note 42.  Velocity 127
000023t:  Note on ::  Channel 9.  Note 42.  Velocity 0
000000t:  Note on ::  Channel 9.  Note 36.  Velocity 0
000025t:  Note on ::  Channel 9.  Note 42.  Velocity 127
000026t:  Note on ::  Channel 9.  Note 42.  Velocity 0
000023t:  Note on ::  Channel 9.  Note 36.  Velocity 127
000000t:  Note on ::  Channel 9.  Note 38.  Velocity 127
000000t:  Note on ::  Channel 9.  Note 42.  Velocity 127
000023t:  Note on ::  Channel 9.  Note 38.  Velocity 0
000000t:  Note on ::  Channel 9.  Note 36.  Velocity 0
000001t:  Note on ::  Channel 9.  Note 42.  Velocity 0
000023t:  Note on ::  Channel 9.  Note 42.  Velocity 127
000026t:  Note on ::  Channel 9.  Note 42.  Velocity 0
000023t:  Note on ::  Channel 9.  Note 36.  Velocity 127
000000t:  Note on ::  Channel 9.  Note 42.  Velocity 127
000023t:  Note on ::  Channel 9.  Note 36.  Velocity 0
000005t:  Note on ::  Channel 9.  Note 42.  Velocity 0
000019t:  Note on ::  Channel 9.  Note 42.  Velocity 127
000024t:  Note on ::  Channel 9.  Note 42.  Velocity 0
000025t:  Note on ::  Channel 9.  Note 38.  Velocity 127
000000t:  Note on ::  Channel 9.  Note 36.  Velocity 127
000001t:  Note on ::  Channel 9.  Note 42.  Velocity 127
000022t:  Note on ::  Channel 9.  Note 42.  Velocity 0
000000t:  Note on ::  Channel 9.  Note 38.  Velocity 0
000001t:  Note on ::  Channel 9.  Note 36.  Velocity 0
000024t:  Note on ::  Channel 9.  Note 42.  Velocity 127
000024t:  Note on ::  Channel 9.  Note 42.  Velocity 0
000025t:  Note on ::  Channel 9.  Note 36.  Velocity 127
000000t:  Note on ::  Channel 9.  Note 42.  Velocity 127
000023t:  Note on ::  Channel 9.  Note 36.  Velocity 0
000001t:  Note on ::  Channel 9.  Note 42.  Velocity 0
000023t:  Note on ::  Channel 9.  Note 42.  Velocity 127
000024t:  Note on ::  Channel 9.  Note 42.  Velocity 0
000025t:  Note on ::  Channel 9.  Note 36.  Velocity 127
000000t:  Note on ::  Channel 9.  Note 38.  Velocity 127
000000t:  Note on ::  Channel 9.  Note 42.  Velocity 127
000023t:  Note on ::  Channel 9.  Note 38.  Velocity 0
000000t:  Note on ::  Channel 9.  Note 36.  Velocity 0
000001t:  Note on ::  Channel 9.  Note 42.  Velocity 0
000023t:  Note on ::  Channel 9.  Note 42.  Velocity 127
000026t:  Note on ::  Channel 9.  Note 42.  Velocity 0
000023t:  Note on ::  Channel 9.  Note 36.  Velocity 127
000000t:  Note on ::  Channel 9.  Note 42.  Velocity 127
000023t:  Note on ::  Channel 9.  Note 36.  Velocity 0
000002t:  Note on ::  Channel 9.  Note 42.  Velocity 0
000023t:  Note on ::  Channel 9.  Note 42.  Velocity 127
000027t:  Note on ::  Channel 9.  Note 42.  Velocity 0
000022t:  Note on ::  Channel 9.  Note 38.  Velocity 127
000000t:  Note on ::  Channel 9.  Note 36.  Velocity 127
000000t:  Note on ::  Channel 9.  Note 42.  Velocity 127
000023t:  Note on ::  Channel 9.  Note 42.  Velocity 0
000000t:  Note on ::  Channel 9.  Note 36.  Velocity 0
000000t:  Note on ::  Channel 9.  Note 38.  Velocity 0
000024t:  Note on ::  Channel 9.  Note 42.  Velocity 127
000023t:  Note on ::  Channel 9.  Note 42.  Velocity 0
000026t:  Note on ::  Channel 9.  Note 36.  Velocity 127
000000t:  Note on ::  Channel 9.  Note 42.  Velocity 127
000023t:  Note on ::  Channel 9.  Note 42.  Velocity 0
000000t:  Note on ::  Channel 9.  Note 36.  Velocity 0
000024t:  Note on ::  Channel 9.  Note 42.  Velocity 127
000023t:  Note on ::  Channel 9.  Note 42.  Velocity 0
000026t:  Note on ::  Channel 9.  Note 38.  Velocity 127
000000t:  Note on ::  Channel 9.  Note 36.  Velocity 127
000001t:  Note on ::  Channel 9.  Note 42.  Velocity 127
000022t:  Note on ::  Channel 9.  Note 36.  Velocity 0
000000t:  Note on ::  Channel 9.  Note 38.  Velocity 0
000002t:  Note on ::  Channel 9.  Note 42.  Velocity 0
000023t:  Note on ::  Channel 9.  Note 42.  Velocity 127
000023t:  Note on ::  Channel 9.  Note 42.  Velocity 0
000025t:  Note on ::  Channel 9.  Note 36.  Velocity 127
000001t:  Note on ::  Channel 9.  Note 42.  Velocity 127
000017t:  Note on ::  Channel 9.  Note 42.  Velocity 0
000005t:  Note on ::  Channel 9.  Note 36.  Velocity 0
000025t:  Note on ::  Channel 9.  Note 42.  Velocity 127
000018t:  Note on ::  Channel 9.  Note 42.  Velocity 0
000031t:  Note on ::  Channel 9.  Note 36.  Velocity 127
000000t:  Note on ::  Channel 9.  Note 38.  Velocity 127
000000t:  Note on ::  Channel 9.  Note 42.  Velocity 127
000020t:  Note on ::  Channel 9.  Note 42.  Velocity 0
000003t:  Note on ::  Channel 9.  Note 38.  Velocity 0
000000t:  Note on ::  Channel 9.  Note 36.  Velocity 0
000024t:  Note on ::  Channel 9.  Note 42.  Velocity 127
000015t:  Note on ::  Channel 9.  Note 42.  Velocity 0
000034t:  Note on ::  Channel 9.  Note 36.  Velocity 127
000000t:  Note on ::  Channel 9.  Note 42.  Velocity 127
000022t:  Note on ::  Channel 9.  Note 42.  Velocity 0
000001t:  Note on ::  Channel 9.  Note 36.  Velocity 0
000024t:  Note on ::  Channel 9.  Note 42.  Velocity 127
000024t:  Note on ::  Channel 9.  Note 42.  Velocity 0
000025t:  Note on ::  Channel 9.  Note 36.  Velocity 127
000000t:  Note on ::  Channel 9.  Note 38.  Velocity 127
000001t:  Note on ::  Channel 9.  Note 42.  Velocity 127
000022t:  Note on ::  Channel 9.  Note 42.  Velocity 0
000000t:  Note on ::  Channel 9.  Note 36.  Velocity 0
000001t:  Note on ::  Channel 9.  Note 38.  Velocity 0
000024t:  Note on ::  Channel 9.  Note 42.  Velocity 127
000024t:  Note on ::  Channel 9.  Note 42.  Velocity 0
000025t:  Note on ::  Channel 9.  Note 36.  Velocity 127
000000t:  Note on ::  Channel 9.  Note 42.  Velocity 127
000023t:  Note on ::  Channel 9.  Note 36.  Velocity 0
000004t:  Note on ::  Channel 9.  Note 42.  Velocity 0
000020t:  Note on ::  Channel 9.  Note 42.  Velocity 127
000023t:  Note on ::  Channel 9.  Note 42.  Velocity 0
000026t:  Note on ::  Channel 9.  Note 36.  Velocity 127
000000t:  Note on ::  Channel 9.  Note 38.  Velocity 127
000000t:  Note on ::  Channel 9.  Note 42.  Velocity 127
000022t:  Note on ::  Channel 9.  Note 42.  Velocity 0
000001t:  Note on ::  Channel 9.  Note 38.  Velocity 0
000000t:  Note on ::  Channel 9.  Note 36.  Velocity 0
000024t:  Note on ::  Channel 9.  Note 42.  Velocity 127
000021t:  Note on ::  Channel 9.  Note 42.  Velocity 0
000028t:  Note on ::  Channel 9.  Note 36.  Velocity 127
000000t:  Note on ::  Channel 9.  Note 42.  Velocity 127
000019t:  Note on ::  Channel 9.  Note 42.  Velocity 0
000004t:  Note on ::  Channel 9.  Note 36.  Velocity 0
000025t:  Note on ::  Channel 9.  Note 42.  Velocity 127
000023t:  Note on ::  Channel 9.  Note 42.  Velocity 0
000025t:  Note on ::  Channel 9.  Note 38.  Velocity 127
000000t:  Note on ::  Channel 9.  Note 36.  Velocity 127
000001t:  Note on ::  Channel 9.  Note 42.  Velocity 127
000022t:  Note on ::  Channel 9.  Note 36.  Velocity 0
000000t:  Note on ::  Channel 9.  Note 38.  Velocity 0
000002t:  Note on ::  Channel 9.  Note 42.  Velocity 0
000023t:  Note on ::  Channel 9.  Note 42.  Velocity 127
000023t:  Note on ::  Channel 9.  Note 42.  Velocity 0
000026t:  Note on ::  Channel 9.  Note 36.  Velocity 127
000000t:  Note on ::  Channel 9.  Note 42.  Velocity 127
000021t:  Note on ::  Channel 9.  Note 42.  Velocity 0
000002t:  Note on ::  Channel 9.  Note 36.  Velocity 0
000024t:  Note on ::  Channel 9.  Note 42.  Velocity 127
000021t:  Note on ::  Channel 9.  Note 42.  Velocity 0
000028t:  Note on ::  Channel 9.  Note 36.  Velocity 127
000000t:  Note on ::  Channel 9.  Note 38.  Velocity 127
000001t:  Note on ::  Channel 9.  Note 42.  Velocity 127
000018t:  Note on ::  Channel 9.  Note 42.  Velocity 0
000004t:  Note on ::  Channel 9.  Note 38.  Velocity 0
000000t:  Note on ::  Channel 9.  Note 36.  Velocity 0
000025t:  Note on ::  Channel 9.  Note 42.  Velocity 127
000020t:  Note on ::  Channel 9.  Note 42.  Velocity 0
000028t:  Note on ::  Channel 9.  Note 36.  Velocity 127
000001t:  Note on ::  Channel 9.  Note 42.  Velocity 127
000018t:  Note on ::  Channel 9.  Note 42.  Velocity 0
000004t:  Note on ::  Channel 9.  Note 36.  Velocity 0
000025t:  Note on ::  Channel 9.  Note 42.  Velocity 127
000022t:  Note on ::  Channel 9.  Note 42.  Velocity 0
000027t:  Note on ::  Channel 9.  Note 38.  Velocity 127
000000t:  Note on ::  Channel 9.  Note 36.  Velocity 127
000000t:  Note on ::  Channel 9.  Note 42.  Velocity 127
000023t:  Note on ::  Channel 9.  Note 36.  Velocity 0
000000t:  Note on ::  Channel 9.  Note 38.  Velocity 0
000001t:  Note on ::  Channel 9.  Note 42.  Velocity 0
000023t:  Note on ::  Channel 9.  Note 42.  Velocity 127
000027t:  Note on ::  Channel 9.  Note 42.  Velocity 0
000022t:  Note on ::  Channel 9.  Note 36.  Velocity 127
000000t:  Note on ::  Channel 9.  Note 42.  Velocity 127
000023t:  Note on ::  Channel 9.  Note 36.  Velocity 0
000012t:  Note on ::  Channel 9.  Note 42.  Velocity 0
000012t:  Note on ::  Channel 9.  Note 42.  Velocity 127
000025t:  Note on ::  Channel 9.  Note 42.  Velocity 0
000024t:  Note on ::  Channel 9.  Note 38.  Velocity 127
000000t:  Note on ::  Channel 9.  Note 36.  Velocity 127
000001t:  Note on ::  Channel 9.  Note 42.  Velocity 127
000018t:  Note on ::  Channel 9.  Note 42.  Velocity 0
000004t:  Note on ::  Channel 9.  Note 36.  Velocity 0
000000t:  Note on ::  Channel 9.  Note 38.  Velocity 0
000025t:  Note on ::  Channel 9.  Note 42.  Velocity 127
000020t:  Note on ::  Channel 9.  Note 42.  Velocity 0
000028t:  Note on ::  Channel 9.  Note 36.  Velocity 127
000001t:  Note on ::  Channel 9.  Note 42.  Velocity 127
000021t:  Note on ::  Channel 9.  Note 42.  Velocity 0
000001t:  Note on ::  Channel 9.  Note 36.  Velocity 0
000025t:  Note on ::  Channel 9.  Note 42.  Velocity 127
000020t:  Note on ::  Channel 9.  Note 42.  Velocity 0
000029t:  Note on ::  Channel 9.  Note 36.  Velocity 127
000000t:  Note on ::  Channel 9.  Note 38.  Velocity 127
000000t:  Note on ::  Channel 9.  Note 42.  Velocity 127
000023t:  Note on ::  Channel 9.  Note 42.  Velocity 0
000000t:  Note on ::  Channel 9.  Note 38.  Velocity 0
000000t:  Note on ::  Channel 9.  Note 36.  Velocity 0
000026t:  Note on ::  Channel 9.  Note 42.  Velocity 127
000023t:  Note on ::  Channel 9.  Note 42.  Velocity 0
000024t:  Note on ::  Channel 9.  Note 36.  Velocity 127
000000t:  Note on ::  Channel 9.  Note 42.  Velocity 127
000023t:  Note on ::  Channel 9.  Note 36.  Velocity 0
000007t:  Note on ::  Channel 9.  Note 42.  Velocity 0
000019t:  Note on ::  Channel 9.  Note 42.  Velocity 127
000023t:  Note on ::  Channel 9.  Note 42.  Velocity 0
000024t:  Note on ::  Channel 9.  Note 36.  Velocity 127
000000t:  Note on ::  Channel 9.  Note 38.  Velocity 127
000001t:  Note on ::  Channel 9.  Note 42.  Velocity 127
000021t:  Note on ::  Channel 9.  Note 42.  Velocity 0
000001t:  Note on ::  Channel 9.  Note 36.  Velocity 0
000001t:  Note on ::  Channel 9.  Note 38.  Velocity 0
000025t:  Note on ::  Channel 9.  Note 42.  Velocity 127
000023t:  Note on ::  Channel 9.  Note 42.  Velocity 0
000025t:  Note on ::  Channel 9.  Note 36.  Velocity 127
000000t:  Note on ::  Channel 9.  Note 42.  Velocity 127
000023t:  Note on ::  Channel 9.  Note 42.  Velocity 0
000000t:  Note on ::  Channel 9.  Note 36.  Velocity 0
000026t:  Note on ::  Channel 9.  Note 42.  Velocity 127
000023t:  Note on ::  Channel 9.  Note 42.  Velocity 0
000024t:  Note on ::  Channel 9.  Note 38.  Velocity 127
000000t:  Note on ::  Channel 9.  Note 36.  Velocity 127
000000t:  Note on ::  Channel 9.  Note 42.  Velocity 127
000022t:  Note on ::  Channel 9.  Note 42.  Velocity 0
000001t:  Note on ::  Channel 9.  Note 36.  Velocity 0
000000t:  Note on ::  Channel 9.  Note 38.  Velocity 0
000026t:  Note on ::  Channel 9.  Note 42.  Velocity 127
000021t:  Note on ::  Channel 9.  Note 42.  Velocity 0
000026t:  Note on ::  Channel 9.  Note 36.  Velocity 127
000023t:  Note on ::  Channel 9.  Note 36.  Velocity 0
000026t:  Note on ::  Channel 9.  Note 36.  Velocity 127
000023t:  Note on ::  Channel 9.  Note 36.  Velocity 0
000025t:  Note on ::  Channel 9.  Note 36.  Velocity 127
000023t:  Note on ::  Channel 9.  Note 36.  Velocity 0
000073t:  Note on ::  Channel 9.  Note 38.  Velocity 127
000023t:  Note on ::  Channel 9.  Note 38.  Velocity 0
000122t:  Note on ::  Channel 9.  Note 36.  Velocity 127
000024t:  Note on ::  Channel 9.  Note 36.  Velocity 0
000023t:  Note on ::  Channel 9.  Note 36.  Velocity 127
000024t:  Note on ::  Channel 9.  Note 36.  Velocity 0
000025t:  Note on ::  Channel 9.  Note 36.  Velocity 127
000023t:  Note on ::  Channel 9.  Note 36.  Velocity 0
000025t:  Note on ::  Channel 9.  Note 36.  Velocity 127
000023t:  Note on ::  Channel 9.  Note 36.  Velocity 0
000073t:  Note on ::  Channel 9.  Note 38.  Velocity 127
000023t:  Note on ::  Channel 9.  Note 38.  Velocity 0
000122t:  Note on ::  Channel 9.  Note 36.  Velocity 127
000023t:  Note on ::  Channel 9.  Note 36.  Velocity 0
000025t:  Note on ::  Channel 9.  Note 36.  Velocity 127
000023t:  Note on ::  Channel 9.  Note 36.  Velocity 0
000026t:  Note on ::  Channel 9.  Note 36.  Velocity 127
000023t:  Note on ::  Channel 9.  Note 36.  Velocity 0
000024t:  Note on ::  Channel 9.  Note 36.  Velocity 127
000023t:  Note on ::  Channel 9.  Note 36.  Velocity 0
000073t:  Note on ::  Channel 9.  Note 38.  Velocity 127
000023t:  Note on ::  Channel 9.  Note 38.  Velocity 0
000074t:  Note on ::  Channel 9.  Note 36.  Velocity 127
000023t:  Note on ::  Channel 9.  Note 36.  Velocity 0
000025t:  Note on ::  Channel 9.  Note 38.  Velocity 127
000023t:  Note on ::  Channel 9.  Note 38.  Velocity 0
000025t:  Note on ::  Channel 9.  Note 36.  Velocity 127
000023t:  Note on ::  Channel 9.  Note 36.  Velocity 0
000026t:  Note on ::  Channel 9.  Note 38.  Velocity 127
000023t:  Note on ::  Channel 9.  Note 38.  Velocity 0
000024t:  Note on ::  Channel 9.  Note 36.  Velocity 127
000023t:  Note on ::  Channel 9.  Note 36.  Velocity 0
000026t:  Note on ::  Channel 9.  Note 38.  Velocity 127
000023t:  Note on ::  Channel 9.  Note 38.  Velocity 0
000024t:  Note on ::  Channel 9.  Note 36.  Velocity 127
000000t:  Note on ::  Channel 9.  Note 38.  Velocity 127
000023t:  Note on ::  Channel 9.  Note 38.  Velocity 0
000000t:  Note on ::  Channel 9.  Note 36.  Velocity 0
000026t:  Note on ::  Channel 9.  Note 38.  Velocity 127
000023t:  Note on ::  Channel 9.  Note 38.  Velocity 0
000025t:  Note on ::  Channel 9.  Note 38.  Velocity 127
000000t:  Note on ::  Channel 9.  Note 36.  Velocity 127
000023t:  Note on ::  Channel 9.  Note 36.  Velocity 0
000000t:  Note on ::  Channel 9.  Note 38.  Velocity 0
000026t:  Note on ::  Channel 9.  Note 38.  Velocity 127
000000t:  Note on ::  Channel 9.  Note 36.  Velocity 127
000023t:  Note on ::  Channel 9.  Note 36.  Velocity 0
000000t:  Note on ::  Channel 9.  Note 38.  Velocity 0
000024t:  Note on ::  Channel 9.  Note 36.  Velocity 127
000000t:  Note on ::  Channel 9.  Note 61.  Velocity 127
000000t:  Note on ::  Channel 9.  Note 42.  Velocity 127
000023t:  Note on ::  Channel 9.  Note 61.  Velocity 0
000000t:  Note on ::  Channel 9.  Note 36.  Velocity 0
000003t:  Note on ::  Channel 9.  Note 42.  Velocity 0
000023t:  Note on ::  Channel 9.  Note 61.  Velocity 127
000000t:  Note on ::  Channel 9.  Note 42.  Velocity 127
000019t:  Note on ::  Channel 9.  Note 42.  Velocity 0
000004t:  Note on ::  Channel 9.  Note 61.  Velocity 0
000024t:  Note on ::  Channel 9.  Note 38.  Velocity 127
000000t:  Note on ::  Channel 9.  Note 61.  Velocity 127
000001t:  Note on ::  Channel 9.  Note 42.  Velocity 127
000021t:  Note on ::  Channel 9.  Note 42.  Velocity 0
000001t:  Note on ::  Channel 9.  Note 61.  Velocity 0
000000t:  Note on ::  Channel 9.  Note 38.  Velocity 0
000026t:  Note on ::  Channel 9.  Note 61.  Velocity 127
000000t:  Note on ::  Channel 9.  Note 42.  Velocity 127
000023t:  Note on ::  Channel 9.  Note 42.  Velocity 0
000000t:  Note on ::  Channel 9.  Note 61.  Velocity 0
000025t:  Note on ::  Channel 9.  Note 36.  Velocity 127
000000t:  Note on ::  Channel 9.  Note 61.  Velocity 127
000000t:  Note on ::  Channel 9.  Note 40.  Velocity 127
000000t:  Note on ::  Channel 9.  Note 51.  Velocity 127
000001t:  Note on ::  Channel 9.  Note 42.  Velocity 127
000022t:  Note on ::  Channel 9.  Note 42.  Velocity 0
000000t:  Note on ::  Channel 9.  Note 36.  Velocity 0
000000t:  Note on ::  Channel 9.  Note 61.  Velocity 0
000025t:  Note on ::  Channel 9.  Note 36.  Velocity 127
000001t:  Note on ::  Channel 9.  Note 61.  Velocity 127
000000t:  Note on ::  Channel 9.  Note 42.  Velocity 127
000023t:  Note on ::  Channel 9.  Note 61.  Velocity 0
000000t:  Note on ::  Channel 9.  Note 36.  Velocity 0
000001t:  Note on ::  Channel 9.  Note 42.  Velocity 0
000023t:  Note on ::  Channel 9.  Note 40.  Velocity 0
000000t:  Note on ::  Channel 9.  Note 38.  Velocity 127
000000t:  Note on ::  Channel 9.  Note 61.  Velocity 127
000001t:  Note on ::  Channel 9.  Note 42.  Velocity 127
000004t:  Note on ::  Channel 9.  Note 51.  Velocity 0
000018t:  Note on ::  Channel 9.  Note 38.  Velocity 0
000000t:  Note on ::  Channel 9.  Note 61.  Velocity 0
000003t:  Note on ::  Channel 9.  Note 42.  Velocity 0
000023t:  Note on ::  Channel 9.  Note 61.  Velocity 127
000000t:  Note on ::  Channel 9.  Note 42.  Velocity 127
000023t:  Note on ::  Channel 9.  Note 61.  Velocity 0
000001t:  Note on ::  Channel 9.  Note 42.  Velocity 0
000023t:  Note on ::  Channel 9.  Note 36.  Velocity 127
000000t:  Note on ::  Channel 9.  Note 61.  Velocity 127
000001t:  Note on ::  Channel 9.  Note 42.  Velocity 127
000022t:  Note on ::  Channel 9.  Note 61.  Velocity 0
000000t:  Note on ::  Channel 9.  Note 36.  Velocity 0
000006t:  Note on ::  Channel 9.  Note 42.  Velocity 0
000020t:  Note on ::  Channel 9.  Note 61.  Velocity 127
000000t:  Note on ::  Channel 9.  Note 42.  Velocity 127
000022t:  Note on ::  Channel 9.  Note 42.  Velocity 0
000001t:  Note on ::  Channel 9.  Note 61.  Velocity 0
000025t:  Note on ::  Channel 9.  Note 38.  Velocity 127
000000t:  Note on ::  Channel 9.  Note 61.  Velocity 127
000000t:  Note on ::  Channel 9.  Note 42.  Velocity 127
000023t:  Note on ::  Channel 9.  Note 42.  Velocity 0
000000t:  Note on ::  Channel 9.  Note 61.  Velocity 0
000000t:  Note on ::  Channel 9.  Note 38.  Velocity 0
000025t:  Note on ::  Channel 9.  Note 61.  Velocity 127
000001t:  Note on ::  Channel 9.  Note 42.  Velocity 127
000022t:  Note on ::  Channel 9.  Note 61.  Velocity 0
000001t:  Note on ::  Channel 9.  Note 42.  Velocity 0
000024t:  Note on ::  Channel 9.  Note 36.  Velocity 127
000000t:  Note on ::  Channel 9.  Note 61.  Velocity 127
000000t:  Note on ::  Channel 9.  Note 51.  Velocity 127
000001t:  Note on ::  Channel 9.  Note 40.  Velocity 127
000000t:  Note on ::  Channel 9.  Note 42.  Velocity 127
000022t:  Note on ::  Channel 9.  Note 61.  Velocity 0
000000t:  Note on ::  Channel 9.  Note 36.  Velocity 0
000002t:  Note on ::  Channel 9.  Note 42.  Velocity 0
000024t:  Note on ::  Channel 9.  Note 36.  Velocity 127
000000t:  Note on ::  Channel 9.  Note 61.  Velocity 127
000000t:  Note on ::  Channel 9.  Note 42.  Velocity 127
000023t:  Note on ::  Channel 9.  Note 42.  Velocity 0
000000t:  Note on ::  Channel 9.  Note 36.  Velocity 0
000000t:  Note on ::  Channel 9.  Note 61.  Velocity 0
000015t:  Note on ::  Channel 9.  Note 51.  Velocity 0
000001t:  Note on ::  Channel 9.  Note 40.  Velocity 0
000008t:  Note on ::  Channel 9.  Note 38.  Velocity 127
000000t:  Note on ::  Channel 9.  Note 61.  Velocity 127
000000t:  Note on ::  Channel 9.  Note 42.  Velocity 127
000023t:  Note on ::  Channel 9.  Note 61.  Velocity 0
000000t:  Note on ::  Channel 9.  Note 38.  Velocity 0
000003t:  Note on ::  Channel 9.  Note 42.  Velocity 0
000023t:  Note on ::  Channel 9.  Note 61.  Velocity 127
000000t:  Note on ::  Channel 9.  Note 42.  Velocity 127
000023t:  Note on ::  Channel 9.  Note 61.  Velocity 0
000001t:  Note on ::  Channel 9.  Note 42.  Velocity 0
000023t:  Note on ::  Channel 9.  Note 36.  Velocity 127
000001t:  Note on ::  Channel 9.  Note 61.  Velocity 127
000000t:  Note on ::  Channel 9.  Note 42.  Velocity 127
000022t:  Note on ::  Channel 9.  Note 61.  Velocity 0
000000t:  Note on ::  Channel 9.  Note 36.  Velocity 0
000003t:  Note on ::  Channel 9.  Note 42.  Velocity 0
000023t:  Note on ::  Channel 9.  Note 61.  Velocity 127
000000t:  Note on ::  Channel 9.  Note 42.  Velocity 127
000023t:  Note on ::  Channel 9.  Note 61.  Velocity 0
000003t:  Note on ::  Channel 9.  Note 42.  Velocity 0
000022t:  Note on ::  Channel 9.  Note 38.  Velocity 127
000000t:  Note on ::  Channel 9.  Note 61.  Velocity 127
000000t:  Note on ::  Channel 9.  Note 42.  Velocity 127
000023t:  Note on ::  Channel 9.  Note 42.  Velocity 0
000000t:  Note on ::  Channel 9.  Note 61.  Velocity 0
000000t:  Note on ::  Channel 9.  Note 38.  Velocity 0
000026t:  Note on ::  Channel 9.  Note 61.  Velocity 127
000000t:  Note on ::  Channel 9.  Note 42.  Velocity 127
000023t:  Note on ::  Channel 9.  Note 42.  Velocity 0
000000t:  Note on ::  Channel 9.  Note 61.  Velocity 0
000024t:  Note on ::  Channel 9.  Note 36.  Velocity 127
000000t:  Note on ::  Channel 9.  Note 61.  Velocity 127
000000t:  Note on ::  Channel 9.  Note 40.  Velocity 127
000001t:  Note on ::  Channel 9.  Note 51.  Velocity 127
000000t:  Note on ::  Channel 9.  Note 42.  Velocity 127
000022t:  Note on ::  Channel 9.  Note 42.  Velocity 0
000000t:  Note on ::  Channel 9.  Note 36.  Velocity 0
000000t:  Note on ::  Channel 9.  Note 61.  Velocity 0
000026t:  Note on ::  Channel 9.  Note 36.  Velocity 127
000000t:  Note on ::  Channel 9.  Note 61.  Velocity 127
000000t:  Note on ::  Channel 9.  Note 42.  Velocity 127
000022t:  Note on ::  Channel 9.  Note 42.  Velocity 0
000001t:  Note on ::  Channel 9.  Note 36.  Velocity 0
000000t:  Note on ::  Channel 9.  Note 61.  Velocity 0
000024t:  Note on ::  Channel 9.  Note 40.  Velocity 0
000001t:  Note on ::  Channel 9.  Note 38.  Velocity 127
000000t:  Note on ::  Channel 9.  Note 61.  Velocity 127
000000t:  Note on ::  Channel 9.  Note 42.  Velocity 127
000005t:  Note on ::  Channel 9.  Note 51.  Velocity 0
000017t:  Note on ::  Channel 9.  Note 38.  Velocity 0
000000t:  Note on ::  Channel 9.  Note 61.  Velocity 0
000002t:  Note on ::  Channel 9.  Note 42.  Velocity 0
000024t:  Note on ::  Channel 9.  Note 61.  Velocity 127
000000t:  Note on ::  Channel 9.  Note 42.  Velocity 127
000022t:  Note on ::  Channel 9.  Note 42.  Velocity 0
000001t:  Note on ::  Channel 9.  Note 61.  Velocity 0
000025t:  Note on ::  Channel 9.  Note 36.  Velocity 127
000000t:  Note on ::  Channel 9.  Note 61.  Velocity 127
000000t:  Note on ::  Channel 9.  Note 42.  Velocity 127
000017t:  Note on ::  Channel 9.  Note 42.  Velocity 0
000006t:  Note on ::  Channel 9.  Note 61.  Velocity 0
000000t:  Note on ::  Channel 9.  Note 36.  Velocity 0
000025t:  Note on ::  Channel 9.  Note 61.  Velocity 127
000001t:  Note on ::  Channel 9.  Note 42.  Velocity 127
000016t:  Note on ::  Channel 9.  Note 42.  Velocity 0
000006t:  Note on ::  Channel 9.  Note 61.  Velocity 0
000025t:  Note on ::  Channel 9.  Note 38.  Velocity 127
000000t:  Note on ::  Channel 9.  Note 61.  Velocity 127
000000t:  Note on ::  Channel 9.  Note 42.  Velocity 127
000020t:  Note on ::  Channel 9.  Note 42.  Velocity 0
000003t:  Note on ::  Channel 9.  Note 61.  Velocity 0
000000t:  Note on ::  Channel 9.  Note 38.  Velocity 0
000026t:  Note on ::  Channel 9.  Note 61.  Velocity 127
000000t:  Note on ::  Channel 9.  Note 42.  Velocity 127
000013t:  Note on ::  Channel 9.  Note 42.  Velocity 0
000010t:  Note on ::  Channel 9.  Note 61.  Velocity 0
000024t:  Note on ::  Channel 9.  Note 36.  Velocity 127
000000t:  Note on ::  Channel 9.  Note 61.  Velocity 127
000001t:  Note on ::  Channel 9.  Note 51.  Velocity 127
000000t:  Note on ::  Channel 9.  Note 40.  Velocity 127
000000t:  Note on ::  Channel 9.  Note 42.  Velocity 127
000021t:  Note on ::  Channel 9.  Note 42.  Velocity 0
000001t:  Note on ::  Channel 9.  Note 36.  Velocity 0
000000t:  Note on ::  Channel 9.  Note 61.  Velocity 0
000026t:  Note on ::  Channel 9.  Note 36.  Velocity 127
000000t:  Note on ::  Channel 9.  Note 61.  Velocity 127
000000t:  Note on ::  Channel 9.  Note 42.  Velocity 127
000023t:  Note on ::  Channel 9.  Note 42.  Velocity 0
000000t:  Note on ::  Channel 9.  Note 36.  Velocity 0
000000t:  Note on ::  Channel 9.  Note 61.  Velocity 0
000015t:  Note on ::  Channel 9.  Note 51.  Velocity 0
000001t:  Note on ::  Channel 9.  Note 40.  Velocity 0
000008t:  Note on ::  Channel 9.  Note 38.  Velocity 127
000000t:  Note on ::  Channel 9.  Note 61.  Velocity 127
000001t:  Note on ::  Channel 9.  Note 42.  Velocity 127
000022t:  Note on ::  Channel 9.  Note 42.  Velocity 0
000000t:  Note on ::  Channel 9.  Note 38.  Velocity 0
000001t:  Note on ::  Channel 9.  Note 61.  Velocity 0
000025t:  Note on ::  Channel 9.  Note 61.  Velocity 127
000001t:  Note on ::  Channel 9.  Note 42.  Velocity 127
000022t:  Note on ::  Channel 9.  Note 61.  Velocity 0
000001t:  Note on ::  Channel 9.  Note 42.  Velocity 0
000024t:  Note on ::  Channel 9.  Note 36.  Velocity 127
000000t:  Note on ::  Channel 9.  Note 61.  Velocity 127
000000t:  Note on ::  Channel 9.  Note 42.  Velocity 127
000023t:  Note on ::  Channel 9.  Note 61.  Velocity 0
000000t:  Note on ::  Channel 9.  Note 36.  Velocity 0
000002t:  Note on ::  Channel 9.  Note 42.  Velocity 0
000024t:  Note on ::  Channel 9.  Note 61.  Velocity 127
000000t:  Note on ::  Channel 9.  Note 42.  Velocity 127
000019t:  Note on ::  Channel 9.  Note 42.  Velocity 0
000003t:  Note on ::  Channel 9.  Note 61.  Velocity 0
000025t:  Note on ::  Channel 9.  Note 38.  Velocity 127
000000t:  Note on ::  Channel 9.  Note 61.  Velocity 127
000000t:  Note on ::  Channel 9.  Note 42.  Velocity 127
000022t:  Note on ::  Channel 9.  Note 42.  Velocity 0
000001t:  Note on ::  Channel 9.  Note 61.  Velocity 0
000000t:  Note on ::  Channel 9.  Note 38.  Velocity 0
000026t:  Note on ::  Channel 9.  Note 61.  Velocity 127
000000t:  Note on ::  Channel 9.  Note 42.  Velocity 127
000023t:  Note on ::  Channel 9.  Note 42.  Velocity 0
000000t:  Note on ::  Channel 9.  Note 61.  Velocity 0
000024t:  Note on ::  Channel 9.  Note 36.  Velocity 127
000001t:  Note on ::  Channel 9.  Note 61.  Velocity 127
000000t:  Note on ::  Channel 9.  Note 40.  Velocity 127
000000t:  Note on ::  Channel 9.  Note 51.  Velocity 127
000000t:  Note on ::  Channel 9.  Note 42.  Velocity 127
000022t:  Note on ::  Channel 9.  Note 42.  Velocity 0
000000t:  Note on ::  Channel 9.  Note 36.  Velocity 0
000001t:  Note on ::  Channel 9.  Note 61.  Velocity 0
000025t:  Note on ::  Channel 9.  Note 36.  Velocity 127
000000t:  Note on ::  Channel 9.  Note 61.  Velocity 127
000001t:  Note on ::  Channel 9.  Note 42.  Velocity 127
000022t:  Note on ::  Channel 9.  Note 61.  Velocity 0
000000t:  Note on ::  Channel 9.  Note 36.  Velocity 0
000002t:  Note on ::  Channel 9.  Note 42.  Velocity 0
000023t:  Note on ::  Channel 9.  Note 40.  Velocity 0
000000t:  Note on ::  Channel 9.  Note 38.  Velocity 127
000000t:  Note on ::  Channel 9.  Note 61.  Velocity 127
000000t:  Note on ::  Channel 9.  Note 42.  Velocity 127
000005t:  Note on ::  Channel 9.  Note 51.  Velocity 0
000018t:  Note on ::  Channel 9.  Note 38.  Velocity 0
000000t:  Note on ::  Channel 9.  Note 61.  Velocity 0
000002t:  Note on ::  Channel 9.  Note 42.  Velocity 0
000023t:  Note on ::  Channel 9.  Note 61.  Velocity 127
000000t:  Note on ::  Channel 9.  Note 42.  Velocity 127
000024t:  Note on ::  Channel 9.  Note 61.  Velocity 0
000001t:  Note on ::  Channel 9.  Note 42.  Velocity 0
000023t:  Note on ::  Channel 9.  Note 36.  Velocity 127
000000t:  Note on ::  Channel 9.  Note 61.  Velocity 127
000000t:  Note on ::  Channel 9.  Note 42.  Velocity 127
000023t:  Note on ::  Channel 9.  Note 61.  Velocity 0
000000t:  Note on ::  Channel 9.  Note 36.  Velocity 0
000005t:  Note on ::  Channel 9.  Note 42.  Velocity 0
000021t:  Note on ::  Channel 9.  Note 61.  Velocity 127
000000t:  Note on ::  Channel 9.  Note 42.  Velocity 127
000021t:  Note on ::  Channel 9.  Note 42.  Velocity 0
000002t:  Note on ::  Channel 9.  Note 61.  Velocity 0
000024t:  Note on ::  Channel 9.  Note 38.  Velocity 127
000000t:  Note on ::  Channel 9.  Note 61.  Velocity 127
000001t:  Note on ::  Channel 9.  Note 42.  Velocity 127
000022t:  Note on ::  Channel 9.  Note 42.  Velocity 0
000000t:  Note on ::  Channel 9.  Note 38.  Velocity 0
000001t:  Note on ::  Channel 9.  Note 61.  Velocity 0
000025t:  Note on ::  Channel 9.  Note 61.  Velocity 127
000000t:  Note on ::  Channel 9.  Note 42.  Velocity 127
000023t:  Note on ::  Channel 9.  Note 42.  Velocity 0
000000t:  Note on ::  Channel 9.  Note 61.  Velocity 0
000025t:  Note on ::  Channel 9.  Note 36.  Velocity 127
000000t:  Note on ::  Channel 9.  Note 61.  Velocity 127
000000t:  Note on ::  Channel 9.  Note 51.  Velocity 127
000000t:  Note on ::  Channel 9.  Note 40.  Velocity 127
000000t:  Note on ::  Channel 9.  Note 42.  Velocity 127
000023t:  Note on ::  Channel 9.  Note 61.  Velocity 0
000000t:  Note on ::  Channel 9.  Note 36.  Velocity 0
000002t:  Note on ::  Channel 9.  Note 42.  Velocity 0
000023t:  Note on ::  Channel 9.  Note 36.  Velocity 127
000001t:  Note on ::  Channel 9.  Note 61.  Velocity 127
000000t:  Note on ::  Channel 9.  Note 42.  Velocity 127
000022t:  Note on ::  Channel 9.  Note 61.  Velocity 0
000000t:  Note on ::  Channel 9.  Note 36.  Velocity 0
000001t:  Note on ::  Channel 9.  Note 42.  Velocity 0
000014t:  Note on ::  Channel 9.  Note 51.  Velocity 0
000002t:  Note on ::  Channel 9.  Note 40.  Velocity 0
000008t:  Note on ::  Channel 9.  Note 38.  Velocity 127
000000t:  Note on ::  Channel 9.  Note 61.  Velocity 127
000000t:  Note on ::  Channel 9.  Note 42.  Velocity 127
000023t:  Note on ::  Channel 9.  Note 61.  Velocity 0
000000t:  Note on ::  Channel 9.  Note 38.  Velocity 0
000003t:  Note on ::  Channel 9.  Note 42.  Velocity 0
000023t:  Note on ::  Channel 9.  Note 61.  Velocity 127
000000t:  Note on ::  Channel 9.  Note 42.  Velocity 127
000023t:  Note on ::  Channel 9.  Note 61.  Velocity 0
000001t:  Note on ::  Channel 9.  Note 42.  Velocity 0
000023t:  Note on ::  Channel 9.  Note 36.  Velocity 127
000000t:  Note on ::  Channel 9.  Note 61.  Velocity 127
000000t:  Note on ::  Channel 9.  Note 42.  Velocity 127
000023t:  Note on ::  Channel 9.  Note 61.  Velocity 0
000000t:  Note on ::  Channel 9.  Note 36.  Velocity 0
000003t:  Note on ::  Channel 9.  Note 42.  Velocity 0
000023t:  Note on ::  Channel 9.  Note 61.  Velocity 127
000000t:  Note on ::  Channel 9.  Note 42.  Velocity 127
000023t:  Note on ::  Channel 9.  Note 61.  Velocity 0
000003t:  Note on ::  Channel 9.  Note 42.  Velocity 0
000021t:  Note on ::  Channel 9.  Note 38.  Velocity 127
000000t:  Note on ::  Channel 9.  Note 61.  Velocity 127
000001t:  Note on ::  Channel 9.  Note 42.  Velocity 127
000022t:  Note on ::  Channel 9.  Note 42.  Velocity 0
000000t:  Note on ::  Channel 9.  Note 38.  Velocity 0
000001t:  Note on ::  Channel 9.  Note 61.  Velocity 0
000025t:  Note on ::  Channel 9.  Note 61.  Velocity 127
000000t:  Note on ::  Channel 9.  Note 42.  Velocity 127
000023t:  Note on ::  Channel 9.  Note 42.  Velocity 0
000000t:  Note on ::  Channel 9.  Note 61.  Velocity 0
000025t:  Note on ::  Channel 9.  Note 36.  Velocity 127
000000t:  Note on ::  Channel 9.  Note 61.  Velocity 127
000000t:  Note on ::  Channel 9.  Note 40.  Velocity 127
000000t:  Note on ::  Channel 9.  Note 51.  Velocity 127
000001t:  Note on ::  Channel 9.  Note 42.  Velocity 127
000022t:  Note on ::  Channel 9.  Note 42.  Velocity 0
000000t:  Note on ::  Channel 9.  Note 36.  Velocity 0
000000t:  Note on ::  Channel 9.  Note 61.  Velocity 0
000026t:  Note on ::  Channel 9.  Note 36.  Velocity 127
000000t:  Note on ::  Channel 9.  Note 61.  Velocity 127
000000t:  Note on ::  Channel 9.  Note 42.  Velocity 127
000021t:  Note on ::  Channel 9.  Note 42.  Velocity 0
000001t:  Note on ::  Channel 9.  Note 36.  Velocity 0
000000t:  Note on ::  Channel 9.  Note 61.  Velocity 0
000025t:  Note on ::  Channel 9.  Note 40.  Velocity 0
000000t:  Note on ::  Channel 9.  Note 38.  Velocity 127
000000t:  Note on ::  Channel 9.  Note 61.  Velocity 127
000001t:  Note on ::  Channel 9.  Note 42.  Velocity 127
000004t:  Note on ::  Channel 9.  Note 51.  Velocity 0
000018t:  Note on ::  Channel 9.  Note 38.  Velocity 0
000000t:  Note on ::  Channel 9.  Note 61.  Velocity 0
000001t:  Note on ::  Channel 9.  Note 42.  Velocity 0
000025t:  Note on ::  Channel 9.  Note 61.  Velocity 127
000000t:  Note on ::  Channel 9.  Note 42.  Velocity 127
000022t:  Note on ::  Channel 9.  Note 42.  Velocity 0
000001t:  Note on ::  Channel 9.  Note 61.  Velocity 0
000024t:  Note on ::  Channel 9.  Note 36.  Velocity 127
000000t:  Note on ::  Channel 9.  Note 61.  Velocity 127
000001t:  Note on ::  Channel 9.  Note 42.  Velocity 127
000017t:  Note on ::  Channel 9.  Note 42.  Velocity 0
000005t:  Note on ::  Channel 9.  Note 61.  Velocity 0
000000t:  Note on ::  Channel 9.  Note 36.  Velocity 0
000026t:  Note on ::  Channel 9.  Note 61.  Velocity 127
000000t:  Note on ::  Channel 9.  Note 42.  Velocity 127
000016t:  Note on ::  Channel 9.  Note 42.  Velocity 0
000007t:  Note on ::  Channel 9.  Note 61.  Velocity 0
000025t:  Note on ::  Channel 9.  Note 38.  Velocity 127
000000t:  Note on ::  Channel 9.  Note 61.  Velocity 127
000000t:  Note on ::  Channel 9.  Note 42.  Velocity 127
000020t:  Note on ::  Channel 9.  Note 42.  Velocity 0
000003t:  Note on ::  Channel 9.  Note 61.  Velocity 0
000000t:  Note on ::  Channel 9.  Note 38.  Velocity 0
000025t:  Note on ::  Channel 9.  Note 61.  Velocity 127
000000t:  Note on ::  Channel 9.  Note 42.  Velocity 127
000014t:  Note on ::  Channel 9.  Note 42.  Velocity 0
000009t:  Note on ::  Channel 9.  Note 61.  Velocity 0
000025t:  Note on ::  Channel 9.  Note 36.  Velocity 127
000000t:  Note on ::  Channel 9.  Note 61.  Velocity 127
000000t:  Note on ::  Channel 9.  Note 51.  Velocity 127
000001t:  Note on ::  Channel 9.  Note 40.  Velocity 127
000000t:  Note on ::  Channel 9.  Note 42.  Velocity 127
000021t:  Note on ::  Channel 9.  Note 42.  Velocity 0
000001t:  Note on ::  Channel 9.  Note 36.  Velocity 0
000000t:  Note on ::  Channel 9.  Note 61.  Velocity 0
000026t:  Note on ::  Channel 9.  Note 36.  Velocity 127
000000t:  Note on ::  Channel 9.  Note 61.  Velocity 127
000000t:  Note on ::  Channel 9.  Note 42.  Velocity 127
000023t:  Note on ::  Channel 9.  Note 42.  Velocity 0
000000t:  Note on ::  Channel 9.  Note 36.  Velocity 0
000000t:  Note on ::  Channel 9.  Note 61.  Velocity 0
000015t:  Note on ::  Channel 9.  Note 51.  Velocity 0
000001t:  Note on ::  Channel 9.  Note 40.  Velocity 0
000008t:  Note on ::  Channel 9.  Note 38.  Velocity 127
000000t:  Note on ::  Channel 9.  Note 61.  Velocity 127
000001t:  Note on ::  Channel 9.  Note 42.  Velocity 127
000022t:  Note on ::  Channel 9.  Note 42.  Velocity 0
000000t:  Note on ::  Channel 9.  Note 38.  Velocity 0
000001t:  Note on ::  Channel 9.  Note 61.  Velocity 0
000025t:  Note on ::  Channel 9.  Note 61.  Velocity 127
000000t:  Note on ::  Channel 9.  Note 42.  Velocity 127
000023t:  Note on ::  Channel 9.  Note 42.  Velocity 0
000000t:  Note on ::  Channel 9.  Note 61.  Velocity 0
000024t:  Note on ::  Channel 9.  Note 36.  Velocity 127
000000t:  Note on ::  Channel 9.  Note 61.  Velocity 127
000001t:  Note on ::  Channel 9.  Note 42.  Velocity 127
000023t:  Note on ::  Channel 9.  Note 61.  Velocity 0
000000t:  Note on ::  Channel 9.  Note 36.  Velocity 0
000004t:  Note on ::  Channel 9.  Note 42.  Velocity 0
000021t:  Note on ::  Channel 9.  Note 61.  Velocity 127
000000t:  Note on ::  Channel 9.  Note 42.  Velocity 127
000023t:  Note on ::  Channel 9.  Note 61.  Velocity 0
000001t:  Note on ::  Channel 9.  Note 42.  Velocity 0
000024t:  Note on ::  Channel 9.  Note 38.  Velocity 127
000000t:  Note on ::  Channel 9.  Note 61.  Velocity 127
000000t:  Note on ::  Channel 9.  Note 42.  Velocity 127
000021t:  Note on ::  Channel 9.  Note 42.  Velocity 0
000002t:  Note on ::  Channel 9.  Note 61.  Velocity 0
000000t:  Note on ::  Channel 9.  Note 38.  Velocity 0
000026t:  Note on ::  Channel 9.  Note 61.  Velocity 127
000000t:  Note on ::  Channel 9.  Note 42.  Velocity 127
000019t:  Note on ::  Channel 9.  Note 42.  Velocity 0
000004t:  Note on ::  Channel 9.  Note 61.  Velocity 0
000024t:  Note on ::  Channel 9.  Note 36.  Velocity 127
000000t:  Note on ::  Channel 9.  Note 61.  Velocity 127
000000t:  Note on ::  Channel 9.  Note 40.  Velocity 127
000001t:  Note on ::  Channel 9.  Note 51.  Velocity 127
000000t:  Note on ::  Channel 9.  Note 42.  Velocity 127
000018t:  Note on ::  Channel 9.  Note 42.  Velocity 0
000004t:  Note on ::  Channel 9.  Note 36.  Velocity 0
000000t:  Note on ::  Channel 9.  Note 61.  Velocity 0
000026t:  Note on ::  Channel 9.  Note 36.  Velocity 127
000000t:  Note on ::  Channel 9.  Note 61.  Velocity 127
000000t:  Note on ::  Channel 9.  Note 42.  Velocity 127
000022t:  Note on ::  Channel 9.  Note 42.  Velocity 0
000001t:  Note on ::  Channel 9.  Note 36.  Velocity 0
000000t:  Note on ::  Channel 9.  Note 61.  Velocity 0
000024t:  Note on ::  Channel 9.  Note 40.  Velocity 0
000001t:  Note on ::  Channel 9.  Note 38.  Velocity 127
000000t:  Note on ::  Channel 9.  Note 61.  Velocity 127
000000t:  Note on ::  Channel 9.  Note 42.  Velocity 127
000005t:  Note on ::  Channel 9.  Note 51.  Velocity 0
000017t:  Note on ::  Channel 9.  Note 38.  Velocity 0
000000t:  Note on ::  Channel 9.  Note 61.  Velocity 0
000003t:  Note on ::  Channel 9.  Note 42.  Velocity 0
000023t:  Note on ::  Channel 9.  Note 61.  Velocity 127
000000t:  Note on ::  Channel 9.  Note 42.  Velocity 127
000023t:  Note on ::  Channel 9.  Note 42.  Velocity 0
000000t:  Note on ::  Channel 9.  Note 61.  Velocity 0
000025t:  Note on ::  Channel 9.  Note 36.  Velocity 127
000000t:  Note on ::  Channel 9.  Note 61.  Velocity 127
000000t:  Note on ::  Channel 9.  Note 42.  Velocity 127
000021t:  Note on ::  Channel 9.  Note 42.  Velocity 0
000002t:  Note on ::  Channel 9.  Note 61.  Velocity 0
000000t:  Note on ::  Channel 9.  Note 36.  Velocity 0
000026t:  Note on ::  Channel 9.  Note 61.  Velocity 127
000000t:  Note on ::  Channel 9.  Note 42.  Velocity 127
000018t:  Note on ::  Channel 9.  Note 42.  Velocity 0
000004t:  Note on ::  Channel 9.  Note 61.  Velocity 0
000025t:  Note on ::  Channel 9.  Note 38.  Velocity 127
000000t:  Note on ::  Channel 9.  Note 61.  Velocity 127
000000t:  Note on ::  Channel 9.  Note 42.  Velocity 127
000019t:  Note on ::  Channel 9.  Note 42.  Velocity 0
000004t:  Note on ::  Channel 9.  Note 61.  Velocity 0
000000t:  Note on ::  Channel 9.  Note 38.  Velocity 0
000026t:  Note on ::  Channel 9.  Note 61.  Velocity 127
000000t:  Note on ::  Channel 9.  Note 42.  Velocity 127
000019t:  Note on ::  Channel 9.  Note 42.  Velocity 0
000004t:  Note on ::  Channel 9.  Note 61.  Velocity 0
000024t:  Note on ::  Channel 9.  Note 36.  Velocity 127
000000t:  Note on ::  Channel 9.  Note 61.  Velocity 127
000001t:  Note on ::  Channel 9.  Note 51.  Velocity 127
000000t:  Note on ::  Channel 9.  Note 40.  Velocity 127
000000t:  Note on ::  Channel 9.  Note 42.  Velocity 127
000018t:  Note on ::  Channel 9.  Note 42.  Velocity 0
000004t:  Note on ::  Channel 9.  Note 36.  Velocity 0
000000t:  Note on ::  Channel 9.  Note 61.  Velocity 0
000026t:  Note on ::  Channel 9.  Note 36.  Velocity 127
000000t:  Note on ::  Channel 9.  Note 61.  Velocity 127
000001t:  Note on ::  Channel 9.  Note 42.  Velocity 127
000019t:  Note on ::  Channel 9.  Note 42.  Velocity 0
000003t:  Note on ::  Channel 9.  Note 36.  Velocity 0
000000t:  Note on ::  Channel 9.  Note 61.  Velocity 0
000015t:  Note on ::  Channel 9.  Note 51.  Velocity 0
000001t:  Note on ::  Channel 9.  Note 40.  Velocity 0
000009t:  Note on ::  Channel 9.  Note 38.  Velocity 127
000000t:  Note on ::  Channel 9.  Note 61.  Velocity 127
000000t:  Note on ::  Channel 9.  Note 42.  Velocity 127
000023t:  Note on ::  Channel 9.  Note 61.  Velocity 0
000000t:  Note on ::  Channel 9.  Note 38.  Velocity 0
000002t:  Note on ::  Channel 9.  Note 42.  Velocity 0
000023t:  Note on ::  Channel 9.  Note 61.  Velocity 127
000001t:  Note on ::  Channel 9.  Note 42.  Velocity 127
000022t:  Note on ::  Channel 9.  Note 61.  Velocity 0
000004t:  Note on ::  Channel 9.  Note 42.  Velocity 0
000021t:  Note on ::  Channel 9.  Note 36.  Velocity 127
000000t:  Note on ::  Channel 9.  Note 61.  Velocity 127
000000t:  Note on ::  Channel 9.  Note 42.  Velocity 127
000023t:  Note on ::  Channel 9.  Note 61.  Velocity 0
000000t:  Note on ::  Channel 9.  Note 36.  Velocity 0
000012t:  Note on ::  Channel 9.  Note 42.  Velocity 0
000014t:  Note on ::  Channel 9.  Note 61.  Velocity 127
000000t:  Note on ::  Channel 9.  Note 42.  Velocity 127
000023t:  Note on ::  Channel 9.  Note 42.  Velocity 0
000000t:  Note on ::  Channel 9.  Note 61.  Velocity 0
000024t:  Note on ::  Channel 9.  Note 38.  Velocity 127
000000t:  Note on ::  Channel 9.  Note 61.  Velocity 127
000001t:  Note on ::  Channel 9.  Note 42.  Velocity 127
000018t:  Note on ::  Channel 9.  Note 42.  Velocity 0
000004t:  Note on ::  Channel 9.  Note 61.  Velocity 0
000000t:  Note on ::  Channel 9.  Note 38.  Velocity 0
000026t:  Note on ::  Channel 9.  Note 61.  Velocity 127
000000t:  Note on ::  Channel 9.  Note 42.  Velocity 127
000019t:  Note on ::  Channel 9.  Note 42.  Velocity 0
000004t:  Note on ::  Channel 9.  Note 61.  Velocity 0
000024t:  Note on ::  Channel 9.  Note 36.  Velocity 127
000001t:  Note on ::  Channel 9.  Note 61.  Velocity 127
000000t:  Note on ::  Channel 9.  Note 40.  Velocity 127
000000t:  Note on ::  Channel 9.  Note 51.  Velocity 127
000000t:  Note on ::  Channel 9.  Note 42.  Velocity 127
000021t:  Note on ::  Channel 9.  Note 42.  Velocity 0
000001t:  Note on ::  Channel 9.  Note 36.  Velocity 0
000000t:  Note on ::  Channel 9.  Note 61.  Velocity 0
000026t:  Note on ::  Channel 9.  Note 36.  Velocity 127
000000t:  Note on ::  Channel 9.  Note 61.  Velocity 127
000001t:  Note on ::  Channel 9.  Note 42.  Velocity 127
000018t:  Note on ::  Channel 9.  Note 42.  Velocity 0
000004t:  Note on ::  Channel 9.  Note 36.  Velocity 0
000000t:  Note on ::  Channel 9.  Note 61.  Velocity 0
000025t:  Note on ::  Channel 9.  Note 40.  Velocity 0
000000t:  Note on ::  Channel 9.  Note 38.  Velocity 127
000000t:  Note on ::  Channel 9.  Note 61.  Velocity 127
000000t:  Note on ::  Channel 9.  Note 42.  Velocity 127
000005t:  Note on ::  Channel 9.  Note 51.  Velocity 0
000018t:  Note on ::  Channel 9.  Note 38.  Velocity 0
000000t:  Note on ::  Channel 9.  Note 61.  Velocity 0
000000t:  Note on ::  Channel 9.  Note 42.  Velocity 0
000026t:  Note on ::  Channel 9.  Note 61.  Velocity 127
000000t:  Note on ::  Channel 9.  Note 42.  Velocity 127
000023t:  Note on ::  Channel 9.  Note 42.  Velocity 0
000000t:  Note on ::  Channel 9.  Note 61.  Velocity 0
000024t:  Note on ::  Channel 9.  Note 36.  Velocity 127
000000t:  Note on ::  Channel 9.  Note 61.  Velocity 127
000000t:  Note on ::  Channel 9.  Note 42.  Velocity 127
000023t:  Note on ::  Channel 9.  Note 61.  Velocity 0
000000t:  Note on ::  Channel 9.  Note 36.  Velocity 0
000007t:  Note on ::  Channel 9.  Note 42.  Velocity 0
000019t:  Note on ::  Channel 9.  Note 61.  Velocity 127
000000t:  Note on ::  Channel 9.  Note 42.  Velocity 127
000023t:  Note on ::  Channel 9.  Note 42.  Velocity 0
000000t:  Note on ::  Channel 9.  Note 61.  Velocity 0
000024t:  Note on ::  Channel 9.  Note 38.  Velocity 127
000000t:  Note on ::  Channel 9.  Note 61.  Velocity 127
000001t:  Note on ::  Channel 9.  Note 42.  Velocity 127
000021t:  Note on ::  Channel 9.  Note 42.  Velocity 0
000001t:  Note on ::  Channel 9.  Note 61.  Velocity 0
000000t:  Note on ::  Channel 9.  Note 38.  Velocity 0
000026t:  Note on ::  Channel 9.  Note 61.  Velocity 127
000000t:  Note on ::  Channel 9.  Note 42.  Velocity 127
000023t:  Note on ::  Channel 9.  Note 42.  Velocity 0
000000t:  Note on ::  Channel 9.  Note 61.  Velocity 0
000025t:  Note on ::  Channel 9.  Note 36.  Velocity 127
000000t:  Note on ::  Channel 9.  Note 61.  Velocity 127
000000t:  Note on ::  Channel 9.  Note 51.  Velocity 127
000000t:  Note on ::  Channel 9.  Note 40.  Velocity 127
000000t:  Note on ::  Channel 9.  Note 42.  Velocity 127
000023t:  Note on ::  Channel 9.  Note 42.  Velocity 0
000000t:  Note on ::  Channel 9.  Note 36.  Velocity 0
000000t:  Note on ::  Channel 9.  Note 61.  Velocity 0
000025t:  Note on ::  Channel 9.  Note 36.  Velocity 127
000001t:  Note on ::  Channel 9.  Note 61.  Velocity 127
000000t:  Note on ::  Channel 9.  Note 42.  Velocity 127
000022t:  Note on ::  Channel 9.  Note 61.  Velocity 0
000000t:  Note on ::  Channel 9.  Note 36.  Velocity 0
000001t:  Note on ::  Channel 9.  Note 42.  Velocity 0
000014t:  Note on ::  Channel 9.  Note 51.  Velocity 0
000002t:  Note on ::  Channel 9.  Note 40.  Velocity 0
000008t:  Note on ::  Channel 9.  Note 38.  Velocity 127
000000t:  Note on ::  Channel 9.  Note 61.  Velocity 127
000000t:  Note on ::  Channel 9.  Note 42.  Velocity 127
000022t:  Note on ::  Channel 9.  Note 42.  Velocity 0
000001t:  Note on ::  Channel 9.  Note 61.  Velocity 0
000000t:  Note on ::  Channel 9.  Note 38.  Velocity 0
000026t:  Note on ::  Channel 9.  Note 61.  Velocity 127
000000t:  Note on ::  Channel 9.  Note 42.  Velocity 127
000021t:  Note on ::  Channel 9.  Note 42.  Velocity 0
000002t:  Note on ::  Channel 9.  Note 61.  Velocity 0
000024t:  Note on ::  Channel 9.  Note 36.  Velocity 127
000000t:  Note on ::  Channel 9.  Note 61.  Velocity 127
000001t:  Note on ::  Channel 9.  Note 42.  Velocity 127
000000t:  Note on ::  Channel 9.  Note 49.  Velocity 127
000007t:  Control change ::  Channel 9.  Controller 66.  Value: 0
000004t:  Control change ::  Channel 9.  Controller 66.  Value: 0
000004t:  Control change ::  Channel 9.  Controller 66.  Value: 0
000007t:  Note on ::  Channel 9.  Note 61.  Velocity 0
000000t:  Note on ::  Channel 9.  Note 36.  Velocity 0
000003t:  Note on ::  Channel 9.  Note 42.  Velocity 0
000023t:  Note on ::  Channel 9.  Note 61.  Velocity 127
000000t:  Note on ::  Channel 9.  Note 42.  Velocity 127
000019t:  Note on ::  Channel 9.  Note 42.  Velocity 0
000004t:  Note on ::  Channel 9.  Note 61.  Velocity 0
000024t:  Note on ::  Channel 9.  Note 38.  Velocity 127
000001t:  Note on ::  Channel 9.  Note 61.  Velocity 127
000000t:  Note on ::  Channel 9.  Note 42.  Velocity 127
000021t:  Note on ::  Channel 9.  Note 42.  Velocity 0
000001t:  Note on ::  Channel 9.  Note 38.  Velocity 0
000001t:  Note on ::  Channel 9.  Note 61.  Velocity 0
000025t:  Note on ::  Channel 9.  Note 61.  Velocity 127
000001t:  Note on ::  Channel 9.  Note 42.  Velocity 127
000022t:  Note on ::  Channel 9.  Note 42.  Velocity 0
000000t:  Note on ::  Channel 9.  Note 61.  Velocity 0
000025t:  Note on ::  Channel 9.  Note 36.  Velocity 127
000000t:  Note on ::  Channel 9.  Note 61.  Velocity 127
000000t:  Note on ::  Channel 9.  Note 40.  Velocity 127
000000t:  Note on ::  Channel 9.  Note 51.  Velocity 127
000001t:  Note on ::  Channel 9.  Note 42.  Velocity 127
000022t:  Note on ::  Channel 9.  Note 42.  Velocity 0
000000t:  Note on ::  Channel 9.  Note 36.  Velocity 0
000000t:  Note on ::  Channel 9.  Note 61.  Velocity 0
000026t:  Note on ::  Channel 9.  Note 36.  Velocity 127
000000t:  Note on ::  Channel 9.  Note 61.  Velocity 127
000000t:  Note on ::  Channel 9.  Note 42.  Velocity 127
000023t:  Note on ::  Channel 9.  Note 61.  Velocity 0
000000t:  Note on ::  Channel 9.  Note 36.  Velocity 0
000001t:  Note on ::  Channel 9.  Note 42.  Velocity 0
000023t:  Note on ::  Channel 9.  Note 40.  Velocity 0
000000t:  Note on ::  Channel 9.  Note 38.  Velocity 127
000001t:  Note on ::  Channel 9.  Note 61.  Velocity 127
000000t:  Note on ::  Channel 9.  Note 42.  Velocity 127
000005t:  Note on ::  Channel 9.  Note 51.  Velocity 0
000017t:  Note on ::  Channel 9.  Note 61.  Velocity 0
000000t:  Note on ::  Channel 9.  Note 38.  Velocity 0
000003t:  Note on ::  Channel 9.  Note 42.  Velocity 0
000023t:  Note on ::  Channel 9.  Note 61.  Velocity 127
000000t:  Note on ::  Channel 9.  Note 42.  Velocity 127
000001t:  Note on ::  Channel 9.  Note 49.  Velocity 0
000022t:  Note on ::  Channel 9.  Note 61.  Velocity 0
000001t:  Note on ::  Channel 9.  Note 42.  Velocity 0
000023t:  Note on ::  Channel 9.  Note 36.  Velocity 127
000001t:  Note on ::  Channel 9.  Note 61.  Velocity 127
000000t:  Note on ::  Channel 9.  Note 42.  Velocity 127
000022t:  Note on ::  Channel 9.  Note 61.  Velocity 0
000000t:  Note on ::  Channel 9.  Note 36.  Velocity 0
000006t:  Note on ::  Channel 9.  Note 42.  Velocity 0
000020t:  Note on ::  Channel 9.  Note 61.  Velocity 127
000000t:  Note on ::  Channel 9.  Note 42.  Velocity 127
000022t:  Note on ::  Channel 9.  Note 42.  Velocity 0
000001t:  Note on ::  Channel 9.  Note 61.  Velocity 0
000025t:  Note on ::  Channel 9.  Note 38.  Velocity 127
000000t:  Note on ::  Channel 9.  Note 61.  Velocity 127
000000t:  Note on ::  Channel 9.  Note 42.  Velocity 127
000023t:  Note on ::  Channel 9.  Note 42.  Velocity 0
000000t:  Note on ::  Channel 9.  Note 61.  Velocity 0
000000t:  Note on ::  Channel 9.  Note 38.  Velocity 0
000026t:  Note on ::  Channel 9.  Note 61.  Velocity 127
000000t:  Note on ::  Channel 9.  Note 42.  Velocity 127
000022t:  Note on ::  Channel 9.  Note 42.  Velocity 0
000000t:  Note on ::  Channel 9.  Note 61.  Velocity 0
000025t:  Note on ::  Channel 9.  Note 36.  Velocity 127
000000t:  Note on ::  Channel 9.  Note 61.  Velocity 127
000000t:  Note on ::  Channel 9.  Note 51.  Velocity 127
000001t:  Note on ::  Channel 9.  Note 40.  Velocity 127
000000t:  Note on ::  Channel 9.  Note 42.  Velocity 127
000022t:  Note on ::  Channel 9.  Note 61.  Velocity 0
000000t:  Note on ::  Channel 9.  Note 36.  Velocity 0
000003t:  Note on ::  Channel 9.  Note 42.  Velocity 0
000023t:  Note on ::  Channel 9.  Note 36.  Velocity 127
000000t:  Note on ::  Channel 9.  Note 61.  Velocity 127
000000t:  Note on ::  Channel 9.  Note 42.  Velocity 127
000023t:  Note on ::  Channel 9.  Note 42.  Velocity 0
000000t:  Note on ::  Channel 9.  Note 36.  Velocity 0
000000t:  Note on ::  Channel 9.  Note 61.  Velocity 0
000015t:  Note on ::  Channel 9.  Note 51.  Velocity 0
000001t:  Note on ::  Channel 9.  Note 40.  Velocity 0
000008t:  Note on ::  Channel 9.  Note 38.  Velocity 127
000000t:  Note on ::  Channel 9.  Note 61.  Velocity 127
000001t:  Note on ::  Channel 9.  Note 42.  Velocity 127
000022t:  Note on ::  Channel 9.  Note 61.  Velocity 0
000000t:  Note on ::  Channel 9.  Note 38.  Velocity 0
000003t:  Note on ::  Channel 9.  Note 42.  Velocity 0
000023t:  Note on ::  Channel 9.  Note 61.  Velocity 127
000000t:  Note on ::  Channel 9.  Note 42.  Velocity 127
000023t:  Note on ::  Channel 9.  Note 61.  Velocity 0
000001t:  Note on ::  Channel 9.  Note 42.  Velocity 0
000024t:  Note on ::  Channel 9.  Note 36.  Velocity 127
000000t:  Note on ::  Channel 9.  Note 61.  Velocity 127
000000t:  Note on ::  Channel 9.  Note 42.  Velocity 127
000023t:  Note on ::  Channel 9.  Note 61.  Velocity 0
000000t:  Note on ::  Channel 9.  Note 36.  Velocity 0
000002t:  Note on ::  Channel 9.  Note 42.  Velocity 0
000023t:  Note on ::  Channel 9.  Note 61.  Velocity 127
000000t:  Note on ::  Channel 9.  Note 42.  Velocity 127
000023t:  Note on ::  Channel 9.  Note 61.  Velocity 0
000003t:  Note on ::  Channel 9.  Note 42.  Velocity 0
000022t:  Note on ::  Channel 9.  Note 38.  Velocity 127
000000t:  Note on ::  Channel 9.  Note 61.  Velocity 127
000000t:  Note on ::  Channel 9.  Note 42.  Velocity 127
000023t:  Note on ::  Channel 9.  Note 42.  Velocity 0
000000t:  Note on ::  Channel 9.  Note 61.  Velocity 0
000000t:  Note on ::  Channel 9.  Note 38.  Velocity 0
000026t:  Note on ::  Channel 9.  Note 61.  Velocity 127
000000t:  Note on ::  Channel 9.  Note 42.  Velocity 127
000023t:  Note on ::  Channel 9.  Note 42.  Velocity 0
000000t:  Note on ::  Channel 9.  Note 61.  Velocity 0
000024t:  Note on ::  Channel 9.  Note 36.  Velocity 127
000000t:  Note on ::  Channel 9.  Note 61.  Velocity 127
000001t:  Note on ::  Channel 9.  Note 40.  Velocity 127
000000t:  Note on ::  Channel 9.  Note 51.  Velocity 127
000000t:  Note on ::  Channel 9.  Note 42.  Velocity 127
000022t:  Note on ::  Channel 9.  Note 42.  Velocity 0
000000t:  Note on ::  Channel 9.  Note 36.  Velocity 0
000001t:  Note on ::  Channel 9.  Note 61.  Velocity 0
000025t:  Note on ::  Channel 9.  Note 36.  Velocity 127
000000t:  Note on ::  Channel 9.  Note 61.  Velocity 127
000001t:  Note on ::  Channel 9.  Note 42.  Velocity 127
000021t:  Note on ::  Channel 9.  Note 42.  Velocity 0
000001t:  Note on ::  Channel 9.  Note 36.  Velocity 0
000000t:  Note on ::  Channel 9.  Note 61.  Velocity 0
000024t:  Note on ::  Channel 9.  Note 40.  Velocity 0
000001t:  Note on ::  Channel 9.  Note 38.  Velocity 127
000000t:  Note on ::  Channel 9.  Note 61.  Velocity 127
000000t:  Note on ::  Channel 9.  Note 42.  Velocity 127
000005t:  Note on ::  Channel 9.  Note 51.  Velocity 0
000017t:  Note on ::  Channel 9.  Note 38.  Velocity 0
000000t:  Note on ::  Channel 9.  Note 61.  Velocity 0
000002t:  Note on ::  Channel 9.  Note 42.  Velocity 0
000024t:  Note on ::  Channel 9.  Note 61.  Velocity 127
000000t:  Note on ::  Channel 9.  Note 42.  Velocity 127
000022t:  Note on ::  Channel 9.  Note 42.  Velocity 0
000001t:  Note on ::  Channel 9.  Note 61.  Velocity 0
000025t:  Note on ::  Channel 9.  Note 36.  Velocity 127
000000t:  Note on ::  Channel 9.  Note 61.  Velocity 127
000000t:  Note on ::  Channel 9.  Note 42.  Velocity 127
000017t:  Note on ::  Channel 9.  Note 42.  Velocity 0
000006t:  Note on ::  Channel 9.  Note 61.  Velocity 0
000000t:  Note on ::  Channel 9.  Note 36.  Velocity 0
000026t:  Note on ::  Channel 9.  Note 61.  Velocity 127
000000t:  Note on ::  Channel 9.  Note 42.  Velocity 127
000016t:  Note on ::  Channel 9.  Note 42.  Velocity 0
000007t:  Note on ::  Channel 9.  Note 61.  Velocity 0
000024t:  Note on ::  Channel 9.  Note 38.  Velocity 127
000000t:  Note on ::  Channel 9.  Note 61.  Velocity 127
000000t:  Note on ::  Channel 9.  Note 42.  Velocity 127
000020t:  Note on ::  Channel 9.  Note 42.  Velocity 0
000003t:  Note on ::  Channel 9.  Note 61.  Velocity 0
000000t:  Note on ::  Channel 9.  Note 38.  Velocity 0
000026t:  Note on ::  Channel 9.  Note 61.  Velocity 127
000000t:  Note on ::  Channel 9.  Note 42.  Velocity 127
000013t:  Note on ::  Channel 9.  Note 42.  Velocity 0
000010t:  Note on ::  Channel 9.  Note 61.  Velocity 0
000024t:  Note on ::  Channel 9.  Note 36.  Velocity 127
000001t:  Note on ::  Channel 9.  Note 61.  Velocity 127
000000t:  Note on ::  Channel 9.  Note 51.  Velocity 127
000000t:  Note on ::  Channel 9.  Note 40.  Velocity 127
000000t:  Note on ::  Channel 9.  Note 42.  Velocity 127
000021t:  Note on ::  Channel 9.  Note 42.  Velocity 0
000001t:  Note on ::  Channel 9.  Note 36.  Velocity 0
000000t:  Note on ::  Channel 9.  Note 61.  Velocity 0
000026t:  Note on ::  Channel 9.  Note 36.  Velocity 127
000000t:  Note on ::  Channel 9.  Note 61.  Velocity 127
000001t:  Note on ::  Channel 9.  Note 42.  Velocity 127
000022t:  Note on ::  Channel 9.  Note 42.  Velocity 0
000000t:  Note on ::  Channel 9.  Note 36.  Velocity 0
000000t:  Note on ::  Channel 9.  Note 61.  Velocity 0
000015t:  Note on ::  Channel 9.  Note 51.  Velocity 0
000001t:  Note on ::  Channel 9.  Note 40.  Velocity 0
000009t:  Note on ::  Channel 9.  Note 38.  Velocity 127
000000t:  Note on ::  Channel 9.  Note 61.  Velocity 127
000000t:  Note on ::  Channel 9.  Note 42.  Velocity 127
000023t:  Note on ::  Channel 9.  Note 42.  Velocity 0
000000t:  Note on ::  Channel 9.  Note 61.  Velocity 0
000000t:  Note on ::  Channel 9.  Note 38.  Velocity 0
000025t:  Note on ::  Channel 9.  Note 38.  Velocity 127
000000t:  Note on ::  Channel 9.  Note 61.  Velocity 127
000001t:  Note on ::  Channel 9.  Note 42.  Velocity 127
000022t:  Note on ::  Channel 9.  Note 42.  Velocity 0
000000t:  Note on ::  Channel 9.  Note 61.  Velocity 0
000000t:  Note on ::  Channel 9.  Note 38.  Velocity 0
000025t:  Note on ::  Channel 9.  Note 36.  Velocity 127
000000t:  Note on ::  Channel 9.  Note 42.  Velocity 127
000023t:  Note on ::  Channel 9.  Note 36.  Velocity 0
000003t:  Note on ::  Channel 9.  Note 42.  Velocity 0
000023t:  Note on ::  Channel 9.  Note 42.  Velocity 127
000019t:  Note on ::  Channel 9.  Note 42.  Velocity 0
000028t:  Note on ::  Channel 9.  Note 36.  Velocity 127
000000t:  Note on ::  Channel 9.  Note 38.  Velocity 127
000001t:  Note on ::  Channel 9.  Note 42.  Velocity 127
000021t:  Note on ::  Channel 9.  Note 42.  Velocity 0
000001t:  Note on ::  Channel 9.  Note 38.  Velocity 0
000000t:  Note on ::  Channel 9.  Note 36.  Velocity 0
000026t:  Note on ::  Channel 9.  Note 42.  Velocity 127
000023t:  Note on ::  Channel 9.  Note 42.  Velocity 0
000024t:  Note on ::  Channel 9.  Note 36.  Velocity 127
000000t:  Note on ::  Channel 9.  Note 42.  Velocity 127
000024t:  Note on ::  Channel 9.  Note 42.  Velocity 0
000000t:  Note on ::  Channel 9.  Note 36.  Velocity 0
000025t:  Note on ::  Channel 9.  Note 42.  Velocity 127
000025t:  Note on ::  Channel 9.  Note 42.  Velocity 0
000023t:  Note on ::  Channel 9.  Note 36.  Velocity 127
000000t:  Note on ::  Channel 9.  Note 38.  Velocity 127
000000t:  Note on ::  Channel 9.  Note 42.  Velocity 127
000023t:  Note on ::  Channel 9.  Note 38.  Velocity 0
000000t:  Note on ::  Channel 9.  Note 36.  Velocity 0
000003t:  Note on ::  Channel 9.  Note 42.  Velocity 0
000023t:  Note on ::  Channel 9.  Note 42.  Velocity 127
000024t:  Note on ::  Channel 9.  Note 42.  Velocity 0
000023t:  Note on ::  Channel 9.  Note 36.  Velocity 127
000000t:  Note on ::  Channel 9.  Note 42.  Velocity 127
000023t:  Note on ::  Channel 9.  Note 36.  Velocity 0
000005t:  Note on ::  Channel 9.  Note 42.  Velocity 0
000021t:  Note on ::  Channel 9.  Note 42.  Velocity 127
000022t:  Note on ::  Channel 9.  Note 42.  Velocity 0
000025t:  Note on ::  Channel 9.  Note 38.  Velocity 127
000001t:  Note on ::  Channel 9.  Note 36.  Velocity 127
000000t:  Note on ::  Channel 9.  Note 42.  Velocity 127
000022t:  Note on ::  Channel 9.  Note 42.  Velocity 0
000000t:  Note on ::  Channel 9.  Note 38.  Velocity 0
000001t:  Note on ::  Channel 9.  Note 36.  Velocity 0
000025t:  Note on ::  Channel 9.  Note 42.  Velocity 127
000023t:  Note on ::  Channel 9.  Note 42.  Velocity 0
000025t:  Note on ::  Channel 9.  Note 36.  Velocity 127
000000t:  Note on ::  Channel 9.  Note 42.  Velocity 127
000023t:  Note on ::  Channel 9.  Note 36.  Velocity 0
000002t:  Note on ::  Channel 9.  Note 42.  Velocity 0
000023t:  Note on ::  Channel 9.  Note 42.  Velocity 127
000024t:  Note on ::  Channel 9.  Note 42.  Velocity 0
000024t:  Note on ::  Channel 9.  Note 36.  Velocity 127
000000t:  Note on ::  Channel 9.  Note 38.  Velocity 127
000000t:  Note on ::  Channel 9.  Note 42.  Velocity 127
000023t:  Note on ::  Channel 9.  Note 38.  Velocity 0
000000t:  Note on ::  Channel 9.  Note 36.  Velocity 0
000003t:  Note on ::  Channel 9.  Note 42.  Velocity 0
000023t:  Note on ::  Channel 9.  Note 42.  Velocity 127
000024t:  Note on ::  Channel 9.  Note 42.  Velocity 0
000023t:  Note on ::  Channel 9.  Note 36.  Velocity 127
000000t:  Note on ::  Channel 9.  Note 42.  Velocity 127
000023t:  Note on ::  Channel 9.  Note 36.  Velocity 0
000003t:  Note on ::  Channel 9.  Note 42.  Velocity 0
000023t:  Note on ::  Channel 9.  Note 42.  Velocity 127
000026t:  Note on ::  Channel 9.  Note 42.  Velocity 0
000022t:  Note on ::  Channel 9.  Note 38.  Velocity 127
000000t:  Note on ::  Channel 9.  Note 36.  Velocity 127
000000t:  Note on ::  Channel 9.  Note 42.  Velocity 127
000023t:  Note on ::  Channel 9.  Note 42.  Velocity 0
000000t:  Note on ::  Channel 9.  Note 36.  Velocity 0
000000t:  Note on ::  Channel 9.  Note 38.  Velocity 0
000025t:  Note on ::  Channel 9.  Note 42.  Velocity 127
000023t:  Note on ::  Channel 9.  Note 42.  Velocity 0
000025t:  Note on ::  Channel 9.  Note 36.  Velocity 127
000000t:  Note on ::  Channel 9.  Note 42.  Velocity 127
000023t:  Note on ::  Channel 9.  Note 42.  Velocity 0
000000t:  Note on ::  Channel 9.  Note 36.  Velocity 0
000026t:  Note on ::  Channel 9.  Note 42.  Velocity 127
000021t:  Note on ::  Channel 9.  Note 42.  Velocity 0
000026t:  Note on ::  Channel 9.  Note 38.  Velocity 127
000000t:  Note on ::  Channel 9.  Note 36.  Velocity 127
000001t:  Note on ::  Channel 9.  Note 42.  Velocity 127
000022t:  Note on ::  Channel 9.  Note 36.  Velocity 0
000000t:  Note on ::  Channel 9.  Note 38.  Velocity 0
000001t:  Note on ::  Channel 9.  Note 42.  Velocity 0
000025t:  Note on ::  Channel 9.  Note 42.  Velocity 127
000022t:  Note on ::  Channel 9.  Note 42.  Velocity 0
000025t:  Note on ::  Channel 9.  Note 36.  Velocity 127
000000t:  Note on ::  Channel 9.  Note 42.  Velocity 127
000018t:  Note on ::  Channel 9.  Note 42.  Velocity 0
000005t:  Note on ::  Channel 9.  Note 36.  Velocity 0
000026t:  Note on ::  Channel 9.  Note 42.  Velocity 127
000017t:  Note on ::  Channel 9.  Note 42.  Velocity 0
000031t:  Note on ::  Channel 9.  Note 36.  Velocity 127
000000t:  Note on ::  Channel 9.  Note 38.  Velocity 127
000000t:  Note on ::  Channel 9.  Note 42.  Velocity 127
000020t:  Note on ::  Channel 9.  Note 42.  Velocity 0
000003t:  Note on ::  Channel 9.  Note 38.  Velocity 0
000000t:  Note on ::  Channel 9.  Note 36.  Velocity 0
000026t:  Note on ::  Channel 9.  Note 42.  Velocity 127
000013t:  Note on ::  Channel 9.  Note 42.  Velocity 0
000034t:  Note on ::  Channel 9.  Note 36.  Velocity 127
000000t:  Note on ::  Channel 9.  Note 42.  Velocity 127
000022t:  Note on ::  Channel 9.  Note 42.  Velocity 0
000001t:  Note on ::  Channel 9.  Note 36.  Velocity 0
000026t:  Note on ::  Channel 9.  Note 42.  Velocity 127
000023t:  Note on ::  Channel 9.  Note 42.  Velocity 0
000024t:  Note on ::  Channel 9.  Note 36.  Velocity 127
000001t:  Note on ::  Channel 9.  Note 38.  Velocity 127
000000t:  Note on ::  Channel 9.  Note 42.  Velocity 127
000022t:  Note on ::  Channel 9.  Note 42.  Velocity 0
000000t:  Note on ::  Channel 9.  Note 36.  Velocity 0
000001t:  Note on ::  Channel 9.  Note 38.  Velocity 0
000025t:  Note on ::  Channel 9.  Note 42.  Velocity 127
000023t:  Note on ::  Channel 9.  Note 42.  Velocity 0
000025t:  Note on ::  Channel 9.  Note 36.  Velocity 127
000000t:  Note on ::  Channel 9.  Note 42.  Velocity 127
000023t:  Note on ::  Channel 9.  Note 36.  Velocity 0
000004t:  Note on ::  Channel 9.  Note 42.  Velocity 0
000022t:  Note on ::  Channel 9.  Note 42.  Velocity 127
000023t:  Note on ::  Channel 9.  Note 42.  Velocity 0
000024t:  Note on ::  Channel 9.  Note 36.  Velocity 127
000000t:  Note on ::  Channel 9.  Note 38.  Velocity 127
000000t:  Note on ::  Channel 9.  Note 42.  Velocity 127
000022t:  Note on ::  Channel 9.  Note 42.  Velocity 0
000001t:  Note on ::  Channel 9.  Note 38.  Velocity 0
000000t:  Note on ::  Channel 9.  Note 36.  Velocity 0
000026t:  Note on ::  Channel 9.  Note 42.  Velocity 127
000019t:  Note on ::  Channel 9.  Note 42.  Velocity 0
000028t:  Note on ::  Channel 9.  Note 36.  Velocity 127
000000t:  Note on ::  Channel 9.  Note 42.  Velocity 127
000019t:  Note on ::  Channel 9.  Note 42.  Velocity 0
000004t:  Note on ::  Channel 9.  Note 36.  Velocity 0
000026t:  Note on ::  Channel 9.  Note 42.  Velocity 127
000022t:  Note on ::  Channel 9.  Note 42.  Velocity 0
000025t:  Note on ::  Channel 9.  Note 38.  Velocity 127
000000t:  Note on ::  Channel 9.  Note 36.  Velocity 127
000001t:  Note on ::  Channel 9.  Note 42.  Velocity 127
000023t:  Note on ::  Channel 9.  Note 36.  Velocity 0
000000t:  Note on ::  Channel 9.  Note 38.  Velocity 0
000002t:  Note on ::  Channel 9.  Note 42.  Velocity 0
000023t:  Note on ::  Channel 9.  Note 42.  Velocity 127
000023t:  Note on ::  Channel 9.  Note 42.  Velocity 0
000025t:  Note on ::  Channel 9.  Note 36.  Velocity 127
000000t:  Note on ::  Channel 9.  Note 42.  Velocity 127
000022t:  Note on ::  Channel 9.  Note 42.  Velocity 0
000001t:  Note on ::  Channel 9.  Note 36.  Velocity 0
000026t:  Note on ::  Channel 9.  Note 42.  Velocity 127
000019t:  Note on ::  Channel 9.  Note 42.  Velocity 0
000028t:  Note on ::  Channel 9.  Note 36.  Velocity 127
000000t:  Note on ::  Channel 9.  Note 38.  Velocity 127
000000t:  Note on ::  Channel 9.  Note 42.  Velocity 127
000019t:  Note on ::  Channel 9.  Note 42.  Velocity 0
000004t:  Note on ::  Channel 9.  Note 38.  Velocity 0
000000t:  Note on ::  Channel 9.  Note 36.  Velocity 0
000026t:  Note on ::  Channel 9.  Note 42.  Velocity 127
000019t:  Note on ::  Channel 9.  Note 42.  Velocity 0
000028t:  Note on ::  Channel 9.  Note 36.  Velocity 127
000001t:  Note on ::  Channel 9.  Note 42.  Velocity 127
000018t:  Note on ::  Channel 9.  Note 42.  Velocity 0
000004t:  Note on ::  Channel 9.  Note 36.  Velocity 0
000026t:  Note on ::  Channel 9.  Note 42.  Velocity 127
000021t:  Note on ::  Channel 9.  Note 42.  Velocity 0
000027t:  Note on ::  Channel 9.  Note 38.  Velocity 127
000000t:  Note on ::  Channel 9.  Note 36.  Velocity 127
000000t:  Note on ::  Channel 9.  Note 42.  Velocity 127
000023t:  Note on ::  Channel 9.  Note 36.  Velocity 0
000000t:  Note on ::  Channel 9.  Note 38.  Velocity 0
000002t:  Note on ::  Channel 9.  Note 42.  Velocity 0
000024t:  Note on ::  Channel 9.  Note 42.  Velocity 127
000027t:  Note on ::  Channel 9.  Note 42.  Velocity 0
000020t:  Note on ::  Channel 9.  Note 36.  Velocity 127
000000t:  Note on ::  Channel 9.  Note 42.  Velocity 127
000023t:  Note on ::  Channel 9.  Note 36.  Velocity 0
000012t:  Note on ::  Channel 9.  Note 42.  Velocity 0
000014t:  Note on ::  Channel 9.  Note 42.  Velocity 127
000023t:  Note on ::  Channel 9.  Note 42.  Velocity 0
000024t:  Note on ::  Channel 9.  Note 38.  Velocity 127
000000t:  Note on ::  Channel 9.  Note 36.  Velocity 127
000001t:  Note on ::  Channel 9.  Note 42.  Velocity 127
000018t:  Note on ::  Channel 9.  Note 42.  Velocity 0
000004t:  Note on ::  Channel 9.  Note 36.  Velocity 0
000000t:  Note on ::  Channel 9.  Note 38.  Velocity 0
000026t:  Note on ::  Channel 9.  Note 42.  Velocity 127
000019t:  Note on ::  Channel 9.  Note 42.  Velocity 0
000029t:  Note on ::  Channel 9.  Note 36.  Velocity 127
000000t:  Note on ::  Channel 9.  Note 42.  Velocity 127
000021t:  Note on ::  Channel 9.  Note 42.  Velocity 0
000001t:  Note on ::  Channel 9.  Note 36.  Velocity 0
000026t:  Note on ::  Channel 9.  Note 42.  Velocity 127
000019t:  Note on ::  Channel 9.  Note 42.  Velocity 0
000029t:  Note on ::  Channel 9.  Note 36.  Velocity 127
000000t:  Note on ::  Channel 9.  Note 38.  Velocity 127
000000t:  Note on ::  Channel 9.  Note 42.  Velocity 127
000023t:  Note on ::  Channel 9.  Note 42.  Velocity 0
000000t:  Note on ::  Channel 9.  Note 38.  Velocity 0
000000t:  Note on ::  Channel 9.  Note 36.  Velocity 0
000026t:  Note on ::  Channel 9.  Note 42.  Velocity 127
000023t:  Note on ::  Channel 9.  Note 42.  Velocity 0
000024t:  Note on ::  Channel 9.  Note 36.  Velocity 127
000000t:  Note on ::  Channel 9.  Note 42.  Velocity 127
000023t:  Note on ::  Channel 9.  Note 36.  Velocity 0
000007t:  Note on ::  Channel 9.  Note 42.  Velocity 0
000019t:  Note on ::  Channel 9.  Note 42.  Velocity 127
000023t:  Note on ::  Channel 9.  Note 42.  Velocity 0
000024t:  Note on ::  Channel 9.  Note 36.  Velocity 127
000000t:  Note on ::  Channel 9.  Note 38.  Velocity 127
000001t:  Note on ::  Channel 9.  Note 42.  Velocity 127
000021t:  Note on ::  Channel 9.  Note 42.  Velocity 0
000001t:  Note on ::  Channel 9.  Note 36.  Velocity 0
000001t:  Note on ::  Channel 9.  Note 38.  Velocity 0
000025t:  Note on ::  Channel 9.  Note 42.  Velocity 127
000023t:  Note on ::  Channel 9.  Note 42.  Velocity 0
000025t:  Note on ::  Channel 9.  Note 36.  Velocity 127
000000t:  Note on ::  Channel 9.  Note 42.  Velocity 127
000023t:  Note on ::  Channel 9.  Note 42.  Velocity 0
000000t:  Note on ::  Channel 9.  Note 36.  Velocity 0
000026t:  Note on ::  Channel 9.  Note 42.  Velocity 127
000023t:  Note on ::  Channel 9.  Note 42.  Velocity 0
000024t:  Note on ::  Channel 9.  Note 38.  Velocity 127
000000t:  Note on ::  Channel 9.  Note 36.  Velocity 127
000000t:  Note on ::  Channel 9.  Note 42.  Velocity 127
000022t:  Note on ::  Channel 9.  Note 42.  Velocity 0
000001t:  Note on ::  Channel 9.  Note 36.  Velocity 0
000000t:  Note on ::  Channel 9.  Note 38.  Velocity 0
000026t:  Note on ::  Channel 9.  Note 42.  Velocity 127
000022t:  Note on ::  Channel 9.  Note 42.  Velocity 0
000025t:  Note on ::  Channel 9.  Note 36.  Velocity 127
000023t:  Note on ::  Channel 9.  Note 36.  Velocity 0
000026t:  Note on ::  Channel 9.  Note 36.  Velocity 127
000023t:  Note on ::  Channel 9.  Note 36.  Velocity 0
000025t:  Note on ::  Channel 9.  Note 36.  Velocity 127
000023t:  Note on ::  Channel 9.  Note 36.  Velocity 0
000073t:  Note on ::  Channel 9.  Note 38.  Velocity 127
000023t:  Note on ::  Channel 9.  Note 38.  Velocity 0
000122t:  Note on ::  Channel 9.  Note 36.  Velocity 127
000023t:  Note on ::  Channel 9.  Note 36.  Velocity 0
000025t:  Note on ::  Channel 9.  Note 36.  Velocity 127
000023t:  Note on ::  Channel 9.  Note 36.  Velocity 0
000025t:  Note on ::  Channel 9.  Note 36.  Velocity 127
000023t:  Note on ::  Channel 9.  Note 36.  Velocity 0
000025t:  Note on ::  Channel 9.  Note 36.  Velocity 127
000023t:  Note on ::  Channel 9.  Note 36.  Velocity 0
000073t:  Note on ::  Channel 9.  Note 38.  Velocity 127
000023t:  Note on ::  Channel 9.  Note 38.  Velocity 0
000122t:  Note on ::  Channel 9.  Note 36.  Velocity 127
000023t:  Note on ::  Channel 9.  Note 36.  Velocity 0
000025t:  Note on ::  Channel 9.  Note 36.  Velocity 127
000023t:  Note on ::  Channel 9.  Note 36.  Velocity 0
000026t:  Note on ::  Channel 9.  Note 36.  Velocity 127
000023t:  Note on ::  Channel 9.  Note 36.  Velocity 0
000024t:  Note on ::  Channel 9.  Note 36.  Velocity 127
000023t:  Note on ::  Channel 9.  Note 36.  Velocity 0
000073t:  Note on ::  Channel 9.  Note 38.  Velocity 127
000023t:  Note on ::  Channel 9.  Note 38.  Velocity 0
000074t:  Note on ::  Channel 9.  Note 36.  Velocity 127
000023t:  Note on ::  Channel 9.  Note 36.  Velocity 0
000025t:  Note on ::  Channel 9.  Note 38.  Velocity 127
000023t:  Note on ::  Channel 9.  Note 38.  Velocity 0
000025t:  Note on ::  Channel 9.  Note 36.  Velocity 127
000023t:  Note on ::  Channel 9.  Note 36.  Velocity 0
000026t:  Note on ::  Channel 9.  Note 38.  Velocity 127
000023t:  Note on ::  Channel 9.  Note 38.  Velocity 0
000024t:  Note on ::  Channel 9.  Note 36.  Velocity 127
000023t:  Note on ::  Channel 9.  Note 36.  Velocity 0
000026t:  Note on ::  Channel 9.  Note 38.  Velocity 127
000023t:  Note on ::  Channel 9.  Note 38.  Velocity 0
000024t:  Note on ::  Channel 9.  Note 36.  Velocity 127
000001t:  Note on ::  Channel 9.  Note 38.  Velocity 127
000022t:  Note on ::  Channel 9.  Note 38.  Velocity 0
000000t:  Note on ::  Channel 9.  Note 36.  Velocity 0
000026t:  Note on ::  Channel 9.  Note 38.  Velocity 127
000023t:  Note on ::  Channel 9.  Note 38.  Velocity 0
000025t:  Note on ::  Channel 9.  Note 38.  Velocity 127
000000t:  Note on ::  Channel 9.  Note 36.  Velocity 127
000023t:  Note on ::  Channel 9.  Note 36.  Velocity 0
000000t:  Note on ::  Channel 9.  Note 38.  Velocity 0
000026t:  Note on ::  Channel 9.  Note 38.  Velocity 127
000000t:  Note on ::  Channel 9.  Note 36.  Velocity 127
000023t:  Note on ::  Channel 9.  Note 36.  Velocity 0
000000t:  Note on ::  Channel 9.  Note 38.  Velocity 0
000024t:  Note on ::  Channel 9.  Note 36.  Velocity 127
000000t:  Note on ::  Channel 9.  Note 61.  Velocity 127
000000t:  Note on ::  Channel 9.  Note 42.  Velocity 127
000023t:  Note on ::  Channel 9.  Note 61.  Velocity 0
000000t:  Note on ::  Channel 9.  Note 36.  Velocity 0
000003t:  Note on ::  Channel 9.  Note 42.  Velocity 0
000023t:  Note on ::  Channel 9.  Note 61.  Velocity 127
000000t:  Note on ::  Channel 9.  Note 42.  Velocity 127
000020t:  Note on ::  Channel 9.  Note 42.  Velocity 0
000003t:  Note on ::  Channel 9.  Note 61.  Velocity 0
000024t:  Note on ::  Channel 9.  Note 38.  Velocity 127
000001t:  Note on ::  Channel 9.  Note 61.  Velocity 127
000000t:  Note on ::  Channel 9.  Note 42.  Velocity 127
000021t:  Note on ::  Channel 9.  Note 42.  Velocity 0
000001t:  Note on ::  Channel 9.  Note 61.  Velocity 0
000000t:  Note on ::  Channel 9.  Note 38.  Velocity 0
000026t:  Note on ::  Channel 9.  Note 61.  Velocity 127
000000t:  Note on ::  Channel 9.  Note 42.  Velocity 127
000023t:  Note on ::  Channel 9.  Note 42.  Velocity 0
000000t:  Note on ::  Channel 9.  Note 61.  Velocity 0
000025t:  Note on ::  Channel 9.  Note 36.  Velocity 127
000000t:  Note on ::  Channel 9.  Note 61.  Velocity 127
000000t:  Note on ::  Channel 9.  Note 40.  Velocity 127
000000t:  Note on ::  Channel 9.  Note 51.  Velocity 127
000001t:  Note on ::  Channel 9.  Note 42.  Velocity 127
000022t:  Note on ::  Channel 9.  Note 42.  Velocity 0
000000t:  Note on ::  Channel 9.  Note 36.  Velocity 0
000000t:  Note on ::  Channel 9.  Note 61.  Velocity 0
000025t:  Note on ::  Channel 9.  Note 36.  Velocity 127
000001t:  Note on ::  Channel 9.  Note 61.  Velocity 127
000000t:  Note on ::  Channel 9.  Note 42.  Velocity 127
000022t:  Note on ::  Channel 9.  Note 61.  Velocity 0
000000t:  Note on ::  Channel 9.  Note 36.  Velocity 0
000002t:  Note on ::  Channel 9.  Note 42.  Velocity 0
000023t:  Note on ::  Channel 9.  Note 40.  Velocity 0
000000t:  Note on ::  Channel 9.  Note 38.  Velocity 127
000000t:  Note on ::  Channel 9.  Note 61.  Velocity 127
000001t:  Note on ::  Channel 9.  Note 42.  Velocity 127
000004t:  Note on ::  Channel 9.  Note 51.  Velocity 0
000018t:  Note on ::  Channel 9.  Note 38.  Velocity 0
000000t:  Note on ::  Channel 9.  Note 61.  Velocity 0
000003t:  Note on ::  Channel 9.  Note 42.  Velocity 0
000023t:  Note on ::  Channel 9.  Note 61.  Velocity 127
000000t:  Note on ::  Channel 9.  Note 42.  Velocity 127
000023t:  Note on ::  Channel 9.  Note 61.  Velocity 0
000001t:  Note on ::  Channel 9.  Note 42.  Velocity 0
000023t:  Note on ::  Channel 9.  Note 36.  Velocity 127
000000t:  Note on ::  Channel 9.  Note 61.  Velocity 127
000001t:  Note on ::  Channel 9.  Note 42.  Velocity 127
000022t:  Note on ::  Channel 9.  Note 61.  Velocity 0
000000t:  Note on ::  Channel 9.  Note 36.  Velocity 0
000006t:  Note on ::  Channel 9.  Note 42.  Velocity 0
000020t:  Note on ::  Channel 9.  Note 61.  Velocity 127
000000t:  Note on ::  Channel 9.  Note 42.  Velocity 127
000022t:  Note on ::  Channel 9.  Note 42.  Velocity 0
000001t:  Note on ::  Channel 9.  Note 61.  Velocity 0
000024t:  Note on ::  Channel 9.  Note 38.  Velocity 127
000001t:  Note on ::  Channel 9.  Note 61.  Velocity 127
000000t:  Note on ::  Channel 9.  Note 42.  Velocity 127
000023t:  Note on ::  Channel 9.  Note 42.  Velocity 0
000000t:  Note on ::  Channel 9.  Note 61.  Velocity 0
000000t:  Note on ::  Channel 9.  Note 38.  Velocity 0
000025t:  Note on ::  Channel 9.  Note 61.  Velocity 127
000001t:  Note on ::  Channel 9.  Note 42.  Velocity 127
000022t:  Note on ::  Channel 9.  Note 42.  Velocity 0
000000t:  Note on ::  Channel 9.  Note 61.  Velocity 0
000025t:  Note on ::  Channel 9.  Note 36.  Velocity 127
000000t:  Note on ::  Channel 9.  Note 61.  Velocity 127
000000t:  Note on ::  Channel 9.  Note 51.  Velocity 127
000000t:  Note on ::  Channel 9.  Note 40.  Velocity 127
000001t:  Note on ::  Channel 9.  Note 42.  Velocity 127
000022t:  Note on ::  Channel 9.  Note 61.  Velocity 0
000000t:  Note on ::  Channel 9.  Note 36.  Velocity 0
000003t:  Note on ::  Channel 9.  Note 42.  Velocity 0
000023t:  Note on ::  Channel 9.  Note 36.  Velocity 127
000000t:  Note on ::  Channel 9.  Note 61.  Velocity 127
000000t:  Note on ::  Channel 9.  Note 42.  Velocity 127
000023t:  Note on ::  Channel 9.  Note 42.  Velocity 0
000000t:  Note on ::  Channel 9.  Note 36.  Velocity 0
000000t:  Note on ::  Channel 9.  Note 61.  Velocity 0
000016t:  Note on ::  Channel 9.  Note 51.  Velocity 0
000000t:  Note on ::  Channel 9.  Note 40.  Velocity 0
000008t:  Note on ::  Channel 9.  Note 38.  Velocity 127
000000t:  Note on ::  Channel 9.  Note 61.  Velocity 127
000000t:  Note on ::  Channel 9.  Note 42.  Velocity 127
000023t:  Note on ::  Channel 9.  Note 61.  Velocity 0
000000t:  Note on ::  Channel 9.  Note 38.  Velocity 0
000003t:  Note on ::  Channel 9.  Note 42.  Velocity 0
000023t:  Note on ::  Channel 9.  Note 61.  Velocity 127
000000t:  Note on ::  Channel 9.  Note 42.  Velocity 127
000023t:  Note on ::  Channel 9.  Note 61.  Velocity 0
000001t:  Note on ::  Channel 9.  Note 42.  Velocity 0
000023t:  Note on ::  Channel 9.  Note 36.  Velocity 127
000000t:  Note on ::  Channel 9.  Note 61.  Velocity 127
000001t:  Note on ::  Channel 9.  Note 42.  Velocity 127
000022t:  Note on ::  Channel 9.  Note 61.  Velocity 0
000000t:  Note on ::  Channel 9.  Note 36.  Velocity 0
000003t:  Note on ::  Channel 9.  Note 42.  Velocity 0
000023t:  Note on ::  Channel 9.  Note 61.  Velocity 127
000000t:  Note on ::  Channel 9.  Note 42.  Velocity 127
000023t:  Note on ::  Channel 9.  Note 61.  Velocity 0
000003t:  Note on ::  Channel 9.  Note 42.  Velocity 0
000022t:  Note on ::  Channel 9.  Note 38.  Velocity 127
000000t:  Note on ::  Channel 9.  Note 61.  Velocity 127
000000t:  Note on ::  Channel 9.  Note 42.  Velocity 127
000023t:  Note on ::  Channel 9.  Note 42.  Velocity 0
000000t:  Note on ::  Channel 9.  Note 61.  Velocity 0
000000t:  Note on ::  Channel 9.  Note 38.  Velocity 0
000026t:  Note on ::  Channel 9.  Note 61.  Velocity 127
000000t:  Note on ::  Channel 9.  Note 42.  Velocity 127
000023t:  Note on ::  Channel 9.  Note 42.  Velocity 0
000000t:  Note on ::  Channel 9.  Note 61.  Velocity 0
000024t:  Note on ::  Channel 9.  Note 36.  Velocity 127
000000t:  Note on ::  Channel 9.  Note 61.  Velocity 127
000000t:  Note on ::  Channel 9.  Note 40.  Velocity 127
000001t:  Note on ::  Channel 9.  Note 51.  Velocity 127
000000t:  Note on ::  Channel 9.  Note 42.  Velocity 127
000022t:  Note on ::  Channel 9.  Note 42.  Velocity 0
000000t:  Note on ::  Channel 9.  Note 36.  Velocity 0
000000t:  Note on ::  Channel 9.  Note 61.  Velocity 0
000026t:  Note on ::  Channel 9.  Note 36.  Velocity 127
000000t:  Note on ::  Channel 9.  Note 61.  Velocity 127
000000t:  Note on ::  Channel 9.  Note 42.  Velocity 127
000022t:  Note on ::  Channel 9.  Note 42.  Velocity 0
000001t:  Note on ::  Channel 9.  Note 36.  Velocity 0
000000t:  Note on ::  Channel 9.  Note 61.  Velocity 0
000024t:  Note on ::  Channel 9.  Note 40.  Velocity 0
000001t:  Note on ::  Channel 9.  Note 38.  Velocity 127
000000t:  Note on ::  Channel 9.  Note 61.  Velocity 127
000000t:  Note on ::  Channel 9.  Note 42.  Velocity 127
000005t:  Note on ::  Channel 9.  Note 51.  Velocity 0
000017t:  Note on ::  Channel 9.  Note 38.  Velocity 0
000000t:  Note on ::  Channel 9.  Note 61.  Velocity 0
000002t:  Note on ::  Channel 9.  Note 42.  Velocity 0
000024t:  Note on ::  Channel 9.  Note 61.  Velocity 127
000000t:  Note on ::  Channel 9.  Note 42.  Velocity 127
000022t:  Note on ::  Channel 9.  Note 42.  Velocity 0
000001t:  Note on ::  Channel 9.  Note 61.  Velocity 0
000025t:  Note on ::  Channel 9.  Note 36.  Velocity 127
000000t:  Note on ::  Channel 9.  Note 61.  Velocity 127
000000t:  Note on ::  Channel 9.  Note 42.  Velocity 127
000019t:  Note on ::  Channel 9.  Note 42.  Velocity 0
000004t:  Note on ::  Channel 9.  Note 61.  Velocity 0
000000t:  Note on ::  Channel 9.  Note 36.  Velocity 0
000025t:  Note on ::  Channel 9.  Note 61.  Velocity 127
000001t:  Note on ::  Channel 9.  Note 42.  Velocity 127
000016t:  Note on ::  Channel 9.  Note 42.  Velocity 0
000006t:  Note on ::  Channel 9.  Note 61.  Velocity 0
000025t:  Note on ::  Channel 9.  Note 38.  Velocity 127
000000t:  Note on ::  Channel 9.  Note 61.  Velocity 127
000000t:  Note on ::  Channel 9.  Note 42.  Velocity 127
000020t:  Note on ::  Channel 9.  Note 42.  Velocity 0
000003t:  Note on ::  Channel 9.  Note 61.  Velocity 0
000000t:  Note on ::  Channel 9.  Note 38.  Velocity 0
000026t:  Note on ::  Channel 9.  Note 61.  Velocity 127
000000t:  Note on ::  Channel 9.  Note 42.  Velocity 127
000013t:  Note on ::  Channel 9.  Note 42.  Velocity 0
000010t:  Note on ::  Channel 9.  Note 61.  Velocity 0
000024t:  Note on ::  Channel 9.  Note 36.  Velocity 127
000000t:  Note on ::  Channel 9.  Note 61.  Velocity 127
000001t:  Note on ::  Channel 9.  Note 51.  Velocity 127
000000t:  Note on ::  Channel 9.  Note 40.  Velocity 127
000000t:  Note on ::  Channel 9.  Note 42.  Velocity 127
000021t:  Note on ::  Channel 9.  Note 42.  Velocity 0
000001t:  Note on ::  Channel 9.  Note 36.  Velocity 0
000000t:  Note on ::  Channel 9.  Note 61.  Velocity 0
000026t:  Note on ::  Channel 9.  Note 36.  Velocity 127
000000t:  Note on ::  Channel 9.  Note 61.  Velocity 127
000000t:  Note on ::  Channel 9.  Note 42.  Velocity 127
000023t:  Note on ::  Channel 9.  Note 42.  Velocity 0
000000t:  Note on ::  Channel 9.  Note 36.  Velocity 0
000000t:  Note on ::  Channel 9.  Note 61.  Velocity 0
000016t:  Note on ::  Channel 9.  Note 51.  Velocity 0
000000t:  Note on ::  Channel 9.  Note 40.  Velocity 0
000008t:  Note on ::  Channel 9.  Note 38.  Velocity 127
000000t:  Note on ::  Channel 9.  Note 61.  Velocity 127
000001t:  Note on ::  Channel 9.  Note 42.  Velocity 127
000023t:  Note on ::  Channel 9.  Note 42.  Velocity 0
000000t:  Note on ::  Channel 9.  Note 61.  Velocity 0
000000t:  Note on ::  Channel 9.  Note 38.  Velocity 0
000025t:  Note on ::  Channel 9.  Note 61.  Velocity 127
000000t:  Note on ::  Channel 9.  Note 42.  Velocity 127
000023t:  Note on ::  Channel 9.  Note 42.  Velocity 0
000000t:  Note on ::  Channel 9.  Note 61.  Velocity 0
000025t:  Note on ::  Channel 9.  Note 36.  Velocity 127
000000t:  Note on ::  Channel 9.  Note 61.  Velocity 127
000000t:  Note on ::  Channel 9.  Note 42.  Velocity 127
000023t:  Note on ::  Channel 9.  Note 61.  Velocity 0
000000t:  Note on ::  Channel 9.  Note 36.  Velocity 0
000003t:  Note on ::  Channel 9.  Note 42.  Velocity 0
000023t:  Note on ::  Channel 9.  Note 61.  Velocity 127
000000t:  Note on ::  Channel 9.  Note 42.  Velocity 127
000020t:  Note on ::  Channel 9.  Note 42.  Velocity 0
000003t:  Note on ::  Channel 9.  Note 61.  Velocity 0
000024t:  Note on ::  Channel 9.  Note 38.  Velocity 127
000000t:  Note on ::  Channel 9.  Note 61.  Velocity 127
000000t:  Note on ::  Channel 9.  Note 42.  Velocity 127
000023t:  Note on ::  Channel 9.  Note 42.  Velocity 0
000000t:  Note on ::  Channel 9.  Note 61.  Velocity 0
000000t:  Note on ::  Channel 9.  Note 38.  Velocity 0
000026t:  Note on ::  Channel 9.  Note 61.  Velocity 127
000000t:  Note on ::  Channel 9.  Note 42.  Velocity 127
000023t:  Note on ::  Channel 9.  Note 42.  Velocity 0
000000t:  Note on ::  Channel 9.  Note 61.  Velocity 0
000024t:  Note on ::  Channel 9.  Note 36.  Velocity 127
000001t:  Note on ::  Channel 9.  Note 61.  Velocity 127
000000t:  Note on ::  Channel 9.  Note 40.  Velocity 127
000000t:  Note on ::  Channel 9.  Note 51.  Velocity 127
000000t:  Note on ::  Channel 9.  Note 42.  Velocity 127
000022t:  Note on ::  Channel 9.  Note 42.  Velocity 0
000000t:  Note on ::  Channel 9.  Note 36.  Velocity 0
000001t:  Note on ::  Channel 9.  Note 61.  Velocity 0
000025t:  Note on ::  Channel 9.  Note 36.  Velocity 127
000000t:  Note on ::  Channel 9.  Note 61.  Velocity 127
000001t:  Note on ::  Channel 9.  Note 42.  Velocity 127
000022t:  Note on ::  Channel 9.  Note 61.  Velocity 0
000000t:  Note on ::  Channel 9.  Note 36.  Velocity 0
000001t:  Note on ::  Channel 9.  Note 42.  Velocity 0
000024t:  Note on ::  Channel 9.  Note 40.  Velocity 0
000000t:  Note on ::  Channel 9.  Note 38.  Velocity 127
000000t:  Note on ::  Channel 9.  Note 61.  Velocity 127
000000t:  Note on ::  Channel 9.  Note 42.  Velocity 127
000005t:  Note on ::  Channel 9.  Note 51.  Velocity 0
000018t:  Note on ::  Channel 9.  Note 38.  Velocity 0
000000t:  Note on ::  Channel 9.  Note 61.  Velocity 0
000002t:  Note on ::  Channel 9.  Note 42.  Velocity 0
000024t:  Note on ::  Channel 9.  Note 61.  Velocity 127
000000t:  Note on ::  Channel 9.  Note 42.  Velocity 127
000022t:  Note on ::  Channel 9.  Note 61.  Velocity 0
000002t:  Note on ::  Channel 9.  Note 42.  Velocity 0
000023t:  Note on ::  Channel 9.  Note 36.  Velocity 127
000000t:  Note on ::  Channel 9.  Note 61.  Velocity 127
000000t:  Note on ::  Channel 9.  Note 42.  Velocity 127
000023t:  Note on ::  Channel 9.  Note 61.  Velocity 0
000000t:  Note on ::  Channel 9.  Note 36.  Velocity 0
000005t:  Note on ::  Channel 9.  Note 42.  Velocity 0
000021t:  Note on ::  Channel 9.  Note 61.  Velocity 127
000000t:  Note on ::  Channel 9.  Note 42.  Velocity 127
000021t:  Note on ::  Channel 9.  Note 42.  Velocity 0
000002t:  Note on ::  Channel 9.  Note 61.  Velocity 0
000024t:  Note on ::  Channel 9.  Note 38.  Velocity 127
000000t:  Note on ::  Channel 9.  Note 61.  Velocity 127
000001t:  Note on ::  Channel 9.  Note 42.  Velocity 127
000022t:  Note on ::  Channel 9.  Note 42.  Velocity 0
000000t:  Note on ::  Channel 9.  Note 38.  Velocity 0
000001t:  Note on ::  Channel 9.  Note 61.  Velocity 0
000025t:  Note on ::  Channel 9.  Note 61.  Velocity 127
000000t:  Note on ::  Channel 9.  Note 42.  Velocity 127
000023t:  Note on ::  Channel 9.  Note 42.  Velocity 0
000000t:  Note on ::  Channel 9.  Note 61.  Velocity 0
000025t:  Note on ::  Channel 9.  Note 36.  Velocity 127
000000t:  Note on ::  Channel 9.  Note 61.  Velocity 127
000000t:  Note on ::  Channel 9.  Note 51.  Velocity 127
000000t:  Note on ::  Channel 9.  Note 40.  Velocity 127
000000t:  Note on ::  Channel 9.  Note 42.  Velocity 127
000023t:  Note on ::  Channel 9.  Note 61.  Velocity 0
000000t:  Note on ::  Channel 9.  Note 36.  Velocity 0
000002t:  Note on ::  Channel 9.  Note 42.  Velocity 0
000023t:  Note on ::  Channel 9.  Note 36.  Velocity 127
000001t:  Note on ::  Channel 9.  Note 61.  Velocity 127
000000t:  Note on ::  Channel 9.  Note 42.  Velocity 127
000022t:  Note on ::  Channel 9.  Note 61.  Velocity 0
000000t:  Note on ::  Channel 9.  Note 36.  Velocity 0
000001t:  Note on ::  Channel 9.  Note 42.  Velocity 0
000016t:  Note on ::  Channel 9.  Note 51.  Velocity 0
000000t:  Note on ::  Channel 9.  Note 40.  Velocity 0
000008t:  Note on ::  Channel 9.  Note 38.  Velocity 127
000000t:  Note on ::  Channel 9.  Note 61.  Velocity 127
000000t:  Note on ::  Channel 9.  Note 42.  Velocity 127
000023t:  Note on ::  Channel 9.  Note 61.  Velocity 0
000000t:  Note on ::  Channel 9.  Note 38.  Velocity 0
000003t:  Note on ::  Channel 9.  Note 42.  Velocity 0
000023t:  Note on ::  Channel 9.  Note 61.  Velocity 127
000000t:  Note on ::  Channel 9.  Note 42.  Velocity 127
000023t:  Note on ::  Channel 9.  Note 61.  Velocity 0
000001t:  Note on ::  Channel 9.  Note 42.  Velocity 0
000023t:  Note on ::  Channel 9.  Note 36.  Velocity 127
000000t:  Note on ::  Channel 9.  Note 61.  Velocity 127
000001t:  Note on ::  Channel 9.  Note 42.  Velocity 127
000022t:  Note on ::  Channel 9.  Note 61.  Velocity 0
000000t:  Note on ::  Channel 9.  Note 36.  Velocity 0
000003t:  Note on ::  Channel 9.  Note 42.  Velocity 0
000023t:  Note on ::  Channel 9.  Note 61.  Velocity 127
000000t:  Note on ::  Channel 9.  Note 42.  Velocity 127
000023t:  Note on ::  Channel 9.  Note 61.  Velocity 0
000003t:  Note on ::  Channel 9.  Note 42.  Velocity 0
000021t:  Note on ::  Channel 9.  Note 38.  Velocity 127
000001t:  Note on ::  Channel 9.  Note 61.  Velocity 127
000000t:  Note on ::  Channel 9.  Note 42.  Velocity 127
000022t:  Note on ::  Channel 9.  Note 42.  Velocity 0
000000t:  Note on ::  Channel 9.  Note 38.  Velocity 0
000001t:  Note on ::  Channel 9.  Note 61.  Velocity 0
000025t:  Note on ::  Channel 9.  Note 61.  Velocity 127
000000t:  Note on ::  Channel 9.  Note 42.  Velocity 127
000023t:  Note on ::  Channel 9.  Note 42.  Velocity 0
000000t:  Note on ::  Channel 9.  Note 61.  Velocity 0
000025t:  Note on ::  Channel 9.  Note 36.  Velocity 127
000000t:  Note on ::  Channel 9.  Note 61.  Velocity 127
000000t:  Note on ::  Channel 9.  Note 40.  Velocity 127
000000t:  Note on ::  Channel 9.  Note 51.  Velocity 127
000001t:  Note on ::  Channel 9.  Note 42.  Velocity 127
000022t:  Note on ::  Channel 9.  Note 42.  Velocity 0
000000t:  Note on ::  Channel 9.  Note 36.  Velocity 0
000000t:  Note on ::  Channel 9.  Note 61.  Velocity 0
000026t:  Note on ::  Channel 9.  Note 36.  Velocity 127
000000t:  Note on ::  Channel 9.  Note 61.  Velocity 127
000000t:  Note on ::  Channel 9.  Note 42.  Velocity 127
000021t:  Note on ::  Channel 9.  Note 42.  Velocity 0
000001t:  Note on ::  Channel 9.  Note 36.  Velocity 0
000001t:  Note on ::  Channel 9.  Note 61.  Velocity 0
000024t:  Note on ::  Channel 9.  Note 40.  Velocity 0
000000t:  Note on ::  Channel 9.  Note 38.  Velocity 127
000000t:  Note on ::  Channel 9.  Note 61.  Velocity 127
000001t:  Note on ::  Channel 9.  Note 42.  Velocity 127
000004t:  Note on ::  Channel 9.  Note 51.  Velocity 0
000018t:  Note on ::  Channel 9.  Note 38.  Velocity 0
000000t:  Note on ::  Channel 9.  Note 61.  Velocity 0
000001t:  Note on ::  Channel 9.  Note 42.  Velocity 0
000025t:  Note on ::  Channel 9.  Note 61.  Velocity 127
000000t:  Note on ::  Channel 9.  Note 42.  Velocity 127
000021t:  Note on ::  Channel 9.  Note 42.  Velocity 0
000002t:  Note on ::  Channel 9.  Note 61.  Velocity 0
000024t:  Note on ::  Channel 9.  Note 36.  Velocity 127
000000t:  Note on ::  Channel 9.  Note 61.  Velocity 127
000001t:  Note on ::  Channel 9.  Note 42.  Velocity 127
000018t:  Note on ::  Channel 9.  Note 42.  Velocity 0
000004t:  Note on ::  Channel 9.  Note 61.  Velocity 0
000000t:  Note on ::  Channel 9.  Note 36.  Velocity 0
000026t:  Note on ::  Channel 9.  Note 61.  Velocity 127
000000t:  Note on ::  Channel 9.  Note 42.  Velocity 127
000016t:  Note on ::  Channel 9.  Note 42.  Velocity 0
000007t:  Note on ::  Channel 9.  Note 61.  Velocity 0
000025t:  Note on ::  Channel 9.  Note 38.  Velocity 127
000000t:  Note on ::  Channel 9.  Note 61.  Velocity 127
000000t:  Note on ::  Channel 9.  Note 42.  Velocity 127
000020t:  Note on ::  Channel 9.  Note 42.  Velocity 0
000003t:  Note on ::  Channel 9.  Note 61.  Velocity 0
000000t:  Note on ::  Channel 9.  Note 38.  Velocity 0
000025t:  Note on ::  Channel 9.  Note 61.  Velocity 127
000001t:  Note on ::  Channel 9.  Note 42.  Velocity 127
000013t:  Note on ::  Channel 9.  Note 42.  Velocity 0
000009t:  Note on ::  Channel 9.  Note 61.  Velocity 0
000025t:  Note on ::  Channel 9.  Note 36.  Velocity 127
000000t:  Note on ::  Channel 9.  Note 61.  Velocity 127
000000t:  Note on ::  Channel 9.  Note 51.  Velocity 127
000001t:  Note on ::  Channel 9.  Note 40.  Velocity 127
000000t:  Note on ::  Channel 9.  Note 42.  Velocity 127
000021t:  Note on ::  Channel 9.  Note 42.  Velocity 0
000001t:  Note on ::  Channel 9.  Note 36.  Velocity 0
000000t:  Note on ::  Channel 9.  Note 61.  Velocity 0
000026t:  Note on ::  Channel 9.  Note 36.  Velocity 127
000000t:  Note on ::  Channel 9.  Note 61.  Velocity 127
000000t:  Note on ::  Channel 9.  Note 42.  Velocity 127
000023t:  Note on ::  Channel 9.  Note 42.  Velocity 0
000000t:  Note on ::  Channel 9.  Note 36.  Velocity 0
000000t:  Note on ::  Channel 9.  Note 61.  Velocity 0
000016t:  Note on ::  Channel 9.  Note 51.  Velocity 0
000000t:  Note on ::  Channel 9.  Note 40.  Velocity 0
000008t:  Note on ::  Channel 9.  Note 38.  Velocity 127
000000t:  Note on ::  Channel 9.  Note 61.  Velocity 127
000001t:  Note on ::  Channel 9.  Note 42.  Velocity 127
000022t:  Note on ::  Channel 9.  Note 42.  Velocity 0
000000t:  Note on ::  Channel 9.  Note 61.  Velocity 0
000000t:  Note on ::  Channel 9.  Note 38.  Velocity 0
000026t:  Note on ::  Channel 9.  Note 61.  Velocity 127
000000t:  Note on ::  Channel 9.  Note 42.  Velocity 127
000023t:  Note on ::  Channel 9.  Note 61.  Velocity 0
000001t:  Note on ::  Channel 9.  Note 42.  Velocity 0
000023t:  Note on ::  Channel 9.  Note 36.  Velocity 127
000000t:  Note on ::  Channel 9.  Note 61.  Velocity 127
000001t:  Note on ::  Channel 9.  Note 42.  Velocity 127
000023t:  Note on ::  Channel 9.  Note 61.  Velocity 0
000000t:  Note on ::  Channel 9.  Note 36.  Velocity 0
000004t:  Note on ::  Channel 9.  Note 42.  Velocity 0
000021t:  Note on ::  Channel 9.  Note 61.  Velocity 127
000001t:  Note on ::  Channel 9.  Note 42.  Velocity 127
000022t:  Note on ::  Channel 9.  Note 42.  Velocity 0
000000t:  Note on ::  Channel 9.  Note 61.  Velocity 0
000025t:  Note on ::  Channel 9.  Note 38.  Velocity 127
000000t:  Note on ::  Channel 9.  Note 61.  Velocity 127
000000t:  Note on ::  Channel 9.  Note 42.  Velocity 127
000023t:  Note on ::  Channel 9.  Note 42.  Velocity 0
000000t:  Note on ::  Channel 9.  Note 61.  Velocity 0
000000t:  Note on ::  Channel 9.  Note 38.  Velocity 0
000026t:  Note on ::  Channel 9.  Note 61.  Velocity 127
000000t:  Note on ::  Channel 9.  Note 42.  Velocity 127
000020t:  Note on ::  Channel 9.  Note 42.  Velocity 0
000003t:  Note on ::  Channel 9.  Note 61.  Velocity 0
000024t:  Note on ::  Channel 9.  Note 36.  Velocity 127
000000t:  Note on ::  Channel 9.  Note 61.  Velocity 127
000000t:  Note on ::  Channel 9.  Note 40.  Velocity 127
000001t:  Note on ::  Channel 9.  Note 51.  Velocity 127
000000t:  Note on ::  Channel 9.  Note 42.  Velocity 127
000018t:  Note on ::  Channel 9.  Note 42.  Velocity 0
000004t:  Note on ::  Channel 9.  Note 36.  Velocity 0
000000t:  Note on ::  Channel 9.  Note 61.  Velocity 0
000026t:  Note on ::  Channel 9.  Note 36.  Velocity 127
000000t:  Note on ::  Channel 9.  Note 61.  Velocity 127
000000t:  Note on ::  Channel 9.  Note 42.  Velocity 127
000022t:  Note on ::  Channel 9.  Note 42.  Velocity 0
000001t:  Note on ::  Channel 9.  Note 36.  Velocity 0
000000t:  Note on ::  Channel 9.  Note 61.  Velocity 0
000024t:  Note on ::  Channel 9.  Note 40.  Velocity 0
000001t:  Note on ::  Channel 9.  Note 38.  Velocity 127
000000t:  Note on ::  Channel 9.  Note 61.  Velocity 127
000000t:  Note on ::  Channel 9.  Note 42.  Velocity 127
000005t:  Note on ::  Channel 9.  Note 51.  Velocity 0
000017t:  Note on ::  Channel 9.  Note 38.  Velocity 0
000000t:  Note on ::  Channel 9.  Note 61.  Velocity 0
000003t:  Note on ::  Channel 9.  Note 42.  Velocity 0
000023t:  Note on ::  Channel 9.  Note 61.  Velocity 127
000000t:  Note on ::  Channel 9.  Note 42.  Velocity 127
000023t:  Note on ::  Channel 9.  Note 42.  Velocity 0
000000t:  Note on ::  Channel 9.  Note 61.  Velocity 0
000025t:  Note on ::  Channel 9.  Note 36.  Velocity 127
000000t:  Note on ::  Channel 9.  Note 61.  Velocity 127
000000t:  Note on ::  Channel 9.  Note 42.  Velocity 127
000023t:  Note on ::  Channel 9.  Note 42.  Velocity 0
000000t:  Note on ::  Channel 9.  Note 61.  Velocity 0
000000t:  Note on ::  Channel 9.  Note 36.  Velocity 0
000025t:  Note on ::  Channel 9.  Note 61.  Velocity 127
000000t:  Note on ::  Channel 9.  Note 42.  Velocity 127
000019t:  Note on ::  Channel 9.  Note 42.  Velocity 0
000004t:  Note on ::  Channel 9.  Note 61.  Velocity 0
000025t:  Note on ::  Channel 9.  Note 38.  Velocity 127
000000t:  Note on ::  Channel 9.  Note 61.  Velocity 127
000000t:  Note on ::  Channel 9.  Note 42.  Velocity 127
000019t:  Note on ::  Channel 9.  Note 42.  Velocity 0
000004t:  Note on ::  Channel 9.  Note 61.  Velocity 0
000000t:  Note on ::  Channel 9.  Note 38.  Velocity 0
000026t:  Note on ::  Channel 9.  Note 61.  Velocity 127
000000t:  Note on ::  Channel 9.  Note 42.  Velocity 127
000019t:  Note on ::  Channel 9.  Note 42.  Velocity 0
000004t:  Note on ::  Channel 9.  Note 61.  Velocity 0
000024t:  Note on ::  Channel 9.  Note 36.  Velocity 127
000000t:  Note on ::  Channel 9.  Note 61.  Velocity 127
000001t:  Note on ::  Channel 9.  Note 51.  Velocity 127
000000t:  Note on ::  Channel 9.  Note 40.  Velocity 127
000000t:  Note on ::  Channel 9.  Note 42.  Velocity 127
000018t:  Note on ::  Channel 9.  Note 42.  Velocity 0
000004t:  Note on ::  Channel 9.  Note 36.  Velocity 0
000000t:  Note on ::  Channel 9.  Note 61.  Velocity 0
000026t:  Note on ::  Channel 9.  Note 36.  Velocity 127
000000t:  Note on ::  Channel 9.  Note 61.  Velocity 127
000000t:  Note on ::  Channel 9.  Note 42.  Velocity 127
000020t:  Note on ::  Channel 9.  Note 42.  Velocity 0
000003t:  Note on ::  Channel 9.  Note 36.  Velocity 0
000000t:  Note on ::  Channel 9.  Note 61.  Velocity 0
000016t:  Note on ::  Channel 9.  Note 51.  Velocity 0
000000t:  Note on ::  Channel 9.  Note 40.  Velocity 0
000009t:  Note on ::  Channel 9.  Note 38.  Velocity 127
000000t:  Note on ::  Channel 9.  Note 61.  Velocity 127
000000t:  Note on ::  Channel 9.  Note 42.  Velocity 127
000024t:  Note on ::  Channel 9.  Note 61.  Velocity 0
000000t:  Note on ::  Channel 9.  Note 38.  Velocity 0
000001t:  Note on ::  Channel 9.  Note 42.  Velocity 0
000023t:  Note on ::  Channel 9.  Note 61.  Velocity 127
000000t:  Note on ::  Channel 9.  Note 42.  Velocity 127
000023t:  Note on ::  Channel 9.  Note 61.  Velocity 0
000004t:  Note on ::  Channel 9.  Note 42.  Velocity 0
000021t:  Note on ::  Channel 9.  Note 36.  Velocity 127
000000t:  Note on ::  Channel 9.  Note 61.  Velocity 127
000000t:  Note on ::  Channel 9.  Note 42.  Velocity 127
000023t:  Note on ::  Channel 9.  Note 61.  Velocity 0
000000t:  Note on ::  Channel 9.  Note 36.  Velocity 0
000012t:  Note on ::  Channel 9.  Note 42.  Velocity 0
000014t:  Note on ::  Channel 9.  Note 61.  Velocity 127
000000t:  Note on ::  Channel 9.  Note 42.  Velocity 127
000023t:  Note on ::  Channel 9.  Note 61.  Velocity 0
000001t:  Note on ::  Channel 9.  Note 42.  Velocity 0
000023t:  Note on ::  Channel 9.  Note 38.  Velocity 127
000000t:  Note on ::  Channel 9.  Note 61.  Velocity 127
000001t:  Note on ::  Channel 9.  Note 42.  Velocity 127
000018t:  Note on ::  Channel 9.  Note 42.  Velocity 0
000004t:  Note on ::  Channel 9.  Note 61.  Velocity 0
000000t:  Note on ::  Channel 9.  Note 38.  Velocity 0
000026t:  Note on ::  Channel 9.  Note 61.  Velocity 127
000000t:  Note on ::  Channel 9.  Note 42.  Velocity 127
000020t:  Note on ::  Channel 9.  Note 42.  Velocity 0
000003t:  Note on ::  Channel 9.  Note 61.  Velocity 0
000024t:  Note on ::  Channel 9.  Note 36.  Velocity 127
000001t:  Note on ::  Channel 9.  Note 61.  Velocity 127
000000t:  Note on ::  Channel 9.  Note 40.  Velocity 127
000000t:  Note on ::  Channel 9.  Note 51.  Velocity 127
000000t:  Note on ::  Channel 9.  Note 42.  Velocity 127
000021t:  Note on ::  Channel 9.  Note 42.  Velocity 0
000001t:  Note on ::  Channel 9.  Note 36.  Velocity 0
000000t:  Note on ::  Channel 9.  Note 61.  Velocity 0
000026t:  Note on ::  Channel 9.  Note 36.  Velocity 127
000000t:  Note on ::  Channel 9.  Note 61.  Velocity 127
000001t:  Note on ::  Channel 9.  Note 42.  Velocity 127
000020t:  Note on ::  Channel 9.  Note 42.  Velocity 0
000002t:  Note on ::  Channel 9.  Note 36.  Velocity 0
000000t:  Note on ::  Channel 9.  Note 61.  Velocity 0
000025t:  Note on ::  Channel 9.  Note 40.  Velocity 0
000000t:  Note on ::  Channel 9.  Note 38.  Velocity 127
000000t:  Note on ::  Channel 9.  Note 61.  Velocity 127
000000t:  Note on ::  Channel 9.  Note 42.  Velocity 127
000005t:  Note on ::  Channel 9.  Note 51.  Velocity 0
000018t:  Note on ::  Channel 9.  Note 38.  Velocity 0
000000t:  Note on ::  Channel 9.  Note 61.  Velocity 0
000000t:  Note on ::  Channel 9.  Note 42.  Velocity 0
000025t:  Note on ::  Channel 9.  Note 61.  Velocity 127
000001t:  Note on ::  Channel 9.  Note 42.  Velocity 127
000023t:  Note on ::  Channel 9.  Note 42.  Velocity 0
000000t:  Note on ::  Channel 9.  Note 61.  Velocity 0
000024t:  Note on ::  Channel 9.  Note 36.  Velocity 127
000000t:  Note on ::  Channel 9.  Note 61.  Velocity 127
000000t:  Note on ::  Channel 9.  Note 42.  Velocity 127
000023t:  Note on ::  Channel 9.  Note 61.  Velocity 0
000000t:  Note on ::  Channel 9.  Note 36.  Velocity 0
000007t:  Note on ::  Channel 9.  Note 42.  Velocity 0
000019t:  Note on ::  Channel 9.  Note 61.  Velocity 127
000000t:  Note on ::  Channel 9.  Note 42.  Velocity 127
000023t:  Note on ::  Channel 9.  Note 42.  Velocity 0
000000t:  Note on ::  Channel 9.  Note 61.  Velocity 0
000024t:  Note on ::  Channel 9.  Note 38.  Velocity 127
000000t:  Note on ::  Channel 9.  Note 61.  Velocity 127
000001t:  Note on ::  Channel 9.  Note 42.  Velocity 127
000021t:  Note on ::  Channel 9.  Note 42.  Velocity 0
000001t:  Note on ::  Channel 9.  Note 61.  Velocity 0
000000t:  Note on ::  Channel 9.  Note 38.  Velocity 0
000026t:  Note on ::  Channel 9.  Note 61.  Velocity 127
000000t:  Note on ::  Channel 9.  Note 42.  Velocity 127
000023t:  Note on ::  Channel 9.  Note 42.  Velocity 0
000000t:  Note on ::  Channel 9.  Note 61.  Velocity 0
000025t:  Note on ::  Channel 9.  Note 36.  Velocity 127
000000t:  Note on ::  Channel 9.  Note 61.  Velocity 127
000000t:  Note on ::  Channel 9.  Note 51.  Velocity 127
000000t:  Note on ::  Channel 9.  Note 40.  Velocity 127
000000t:  Note on ::  Channel 9.  Note 42.  Velocity 127
000023t:  Note on ::  Channel 9.  Note 42.  Velocity 0
000000t:  Note on ::  Channel 9.  Note 36.  Velocity 0
000000t:  Note on ::  Channel 9.  Note 61.  Velocity 0
000025t:  Note on ::  Channel 9.  Note 36.  Velocity 127
000000t:  Note on ::  Channel 9.  Note 61.  Velocity 127
000001t:  Note on ::  Channel 9.  Note 42.  Velocity 127
000022t:  Note on ::  Channel 9.  Note 61.  Velocity 0
000000t:  Note on ::  Channel 9.  Note 36.  Velocity 0
000002t:  Note on ::  Channel 9.  Note 42.  Velocity 0
000015t:  Note on ::  Channel 9.  Note 51.  Velocity 0
000000t:  Note on ::  Channel 9.  Note 40.  Velocity 0
000008t:  Note on ::  Channel 9.  Note 38.  Velocity 127
000000t:  Note on ::  Channel 9.  Note 61.  Velocity 127
000000t:  Note on ::  Channel 9.  Note 42.  Velocity 127
000022t:  Note on ::  Channel 9.  Note 42.  Velocity 0
000001t:  Note on ::  Channel 9.  Note 61.  Velocity 0
000000t:  Note on ::  Channel 9.  Note 38.  Velocity 0
000026t:  Note on ::  Channel 9.  Note 61.  Velocity 127
000000t:  Note on ::  Channel 9.  Note 42.  Velocity 127
000021t:  Note on ::  Channel 9.  Note 42.  Velocity 0
000002t:  Note on ::  Channel 9.  Note 61.  Velocity 0
000024t:  Note on ::  Channel 9.  Note 36.  Velocity 127
000000t:  Note on ::  Channel 9.  Note 61.  Velocity 127
000001t:  Note on ::  Channel 9.  Note 42.  Velocity 127
000022t:  Note on ::  Channel 9.  Note 61.  Velocity 0
000000t:  Note on ::  Channel 9.  Note 36.  Velocity 0
000003t:  Note on ::  Channel 9.  Note 42.  Velocity 0
000023t:  Note on ::  Channel 9.  Note 61.  Velocity 127
000000t:  Note on ::  Channel 9.  Note 42.  Velocity 127
000020t:  Note on ::  Channel 9.  Note 42.  Velocity 0
000003t:  Note on ::  Channel 9.  Note 61.  Velocity 0
000024t:  Note on ::  Channel 9.  Note 38.  Velocity 127
000000t:  Note on ::  Channel 9.  Note 61.  Velocity 127
000001t:  Note on ::  Channel 9.  Note 42.  Velocity 127
000023t:  Note on ::  Channel 9.  Note 42.  Velocity 0
000000t:  Note on ::  Channel 9.  Note 61.  Velocity 0
000000t:  Note on ::  Channel 9.  Note 38.  Velocity 0
000025t:  Note on ::  Channel 9.  Note 61.  Velocity 127
000001t:  Note on ::  Channel 9.  Note 42.  Velocity 127
000022t:  Note on ::  Channel 9.  Note 42.  Velocity 0
000000t:  Note on ::  Channel 9.  Note 61.  Velocity 0
000025t:  Note on ::  Channel 9.  Note 36.  Velocity 127
000000t:  Note on ::  Channel 9.  Note 61.  Velocity 127
000000t:  Note on ::  Channel 9.  Note 40.  Velocity 127
000000t:  Note on ::  Channel 9.  Note 51.  Velocity 127
000001t:  Note on ::  Channel 9.  Note 42.  Velocity 127
000022t:  Note on ::  Channel 9.  Note 42.  Velocity 0
000000t:  Note on ::  Channel 9.  Note 36.  Velocity 0
000000t:  Note on ::  Channel 9.  Note 61.  Velocity 0
000026t:  Note on ::  Channel 9.  Note 36.  Velocity 127
000000t:  Note on ::  Channel 9.  Note 61.  Velocity 127
000000t:  Note on ::  Channel 9.  Note 42.  Velocity 127
000023t:  Note on ::  Channel 9.  Note 61.  Velocity 0
000000t:  Note on ::  Channel 9.  Note 36.  Velocity 0
000001t:  Note on ::  Channel 9.  Note 42.  Velocity 0
000023t:  Note on ::  Channel 9.  Note 40.  Velocity 0
000000t:  Note on ::  Channel 9.  Note 38.  Velocity 127
000001t:  Note on ::  Channel 9.  Note 61.  Velocity 127
000000t:  Note on ::  Channel 9.  Note 42.  Velocity 127
000005t:  Note on ::  Channel 9.  Note 51.  Velocity 0
000017t:  Note on ::  Channel 9.  Note 38.  Velocity 0
000000t:  Note on ::  Channel 9.  Note 61.  Velocity 0
000003t:  Note on ::  Channel 9.  Note 42.  Velocity 0
000023t:  Note on ::  Channel 9.  Note 61.  Velocity 127
000000t:  Note on ::  Channel 9.  Note 42.  Velocity 127
000023t:  Note on ::  Channel 9.  Note 61.  Velocity 0
000001t:  Note on ::  Channel 9.  Note 42.  Velocity 0
000023t:  Note on ::  Channel 9.  Note 36.  Velocity 127
000001t:  Note on ::  Channel 9.  Note 61.  Velocity 127
000000t:  Note on ::  Channel 9.  Note 42.  Velocity 127
000022t:  Note on ::  Channel 9.  Note 61.  Velocity 0
000000t:  Note on ::  Channel 9.  Note 36.  Velocity 0
000006t:  Note on ::  Channel 9.  Note 42.  Velocity 0
000020t:  Note on ::  Channel 9.  Note 61.  Velocity 127
000000t:  Note on ::  Channel 9.  Note 42.  Velocity 127
000022t:  Note on ::  Channel 9.  Note 42.  Velocity 0
000001t:  Note on ::  Channel 9.  Note 61.  Velocity 0
000025t:  Note on ::  Channel 9.  Note 38.  Velocity 127
000000t:  Note on ::  Channel 9.  Note 61.  Velocity 127
000000t:  Note on ::  Channel 9.  Note 42.  Velocity 127
000023t:  Note on ::  Channel 9.  Note 42.  Velocity 0
000000t:  Note on ::  Channel 9.  Note 61.  Velocity 0
000000t:  Note on ::  Channel 9.  Note 38.  Velocity 0
000026t:  Note on ::  Channel 9.  Note 61.  Velocity 127
000000t:  Note on ::  Channel 9.  Note 42.  Velocity 127
000023t:  Note on ::  Channel 9.  Note 61.  Velocity 0
000001t:  Note on ::  Channel 9.  Note 42.  Velocity 0
000023t:  Note on ::  Channel 9.  Note 36.  Velocity 127
000000t:  Note on ::  Channel 9.  Note 61.  Velocity 127
000000t:  Note on ::  Channel 9.  Note 51.  Velocity 127
000001t:  Note on ::  Channel 9.  Note 40.  Velocity 127
000000t:  Note on ::  Channel 9.  Note 42.  Velocity 127
000022t:  Note on ::  Channel 9.  Note 61.  Velocity 0
000000t:  Note on ::  Channel 9.  Note 36.  Velocity 0
000003t:  Note on ::  Channel 9.  Note 42.  Velocity 0
000023t:  Note on ::  Channel 9.  Note 36.  Velocity 127
000000t:  Note on ::  Channel 9.  Note 61.  Velocity 127
000000t:  Note on ::  Channel 9.  Note 42.  Velocity 127
000023t:  Note on ::  Channel 9.  Note 61.  Velocity 0
000000t:  Note on ::  Channel 9.  Note 36.  Velocity 0
000001t:  Note on ::  Channel 9.  Note 42.  Velocity 0
000015t:  Note on ::  Channel 9.  Note 51.  Velocity 0
000000t:  Note on ::  Channel 9.  Note 40.  Velocity 0
000008t:  Note on ::  Channel 9.  Note 38.  Velocity 127
000000t:  Note on ::  Channel 9.  Note 61.  Velocity 127
000001t:  Note on ::  Channel 9.  Note 42.  Velocity 127
000022t:  Note on ::  Channel 9.  Note 61.  Velocity 0
000000t:  Note on ::  Channel 9.  Note 38.  Velocity 0
000003t:  Note on ::  Channel 9.  Note 42.  Velocity 0
000023t:  Note on ::  Channel 9.  Note 61.  Velocity 127
000000t:  Note on ::  Channel 9.  Note 42.  Velocity 127
000023t:  Note on ::  Channel 9.  Note 61.  Velocity 0
000001t:  Note on ::  Channel 9.  Note 42.  Velocity 0
000024t:  Note on ::  Channel 9.  Note 36.  Velocity 127
000000t:  Note on ::  Channel 9.  Note 61.  Velocity 127
000000t:  Note on ::  Channel 9.  Note 42.  Velocity 127
000023t:  Note on ::  Channel 9.  Note 61.  Velocity 0
000000t:  Note on ::  Channel 9.  Note 36.  Velocity 0
000002t:  Note on ::  Channel 9.  Note 42.  Velocity 0
000023t:  Note on ::  Channel 9.  Note 61.  Velocity 127
000001t:  Note on ::  Channel 9.  Note 42.  Velocity 127
000022t:  Note on ::  Channel 9.  Note 61.  Velocity 0
000003t:  Note on ::  Channel 9.  Note 42.  Velocity 0
000022t:  Note on ::  Channel 9.  Note 38.  Velocity 127
000000t:  Note on ::  Channel 9.  Note 61.  Velocity 127
000000t:  Note on ::  Channel 9.  Note 42.  Velocity 127
000023t:  Note on ::  Channel 9.  Note 42.  Velocity 0
000000t:  Note on ::  Channel 9.  Note 61.  Velocity 0
000000t:  Note on ::  Channel 9.  Note 38.  Velocity 0
000026t:  Note on ::  Channel 9.  Note 61.  Velocity 127
000000t:  Note on ::  Channel 9.  Note 42.  Velocity 127
000023t:  Note on ::  Channel 9.  Note 42.  Velocity 0
000000t:  Note on ::  Channel 9.  Note 61.  Velocity 0
000024t:  Note on ::  Channel 9.  Note 36.  Velocity 127
000000t:  Note on ::  Channel 9.  Note 61.  Velocity 127
000001t:  Note on ::  Channel 9.  Note 40.  Velocity 127
000000t:  Note on ::  Channel 9.  Note 51.  Velocity 127
000000t:  Note on ::  Channel 9.  Note 42.  Velocity 127
000022t:  Note on ::  Channel 9.  Note 42.  Velocity 0
000000t:  Note on ::  Channel 9.  Note 36.  Velocity 0
000000t:  Note on ::  Channel 9.  Note 61.  Velocity 0
000026t:  Note on ::  Channel 9.  Note 36.  Velocity 127
000000t:  Note on ::  Channel 9.  Note 61.  Velocity 127
000000t:  Note on ::  Channel 9.  Note 42.  Velocity 127
000022t:  Note on ::  Channel 9.  Note 42.  Velocity 0
000001t:  Note on ::  Channel 9.  Note 36.  Velocity 0
000000t:  Note on ::  Channel 9.  Note 61.  Velocity 0
000024t:  Note on ::  Channel 9.  Note 40.  Velocity 0
000001t:  Note on ::  Channel 9.  Note 38.  Velocity 127
000000t:  Note on ::  Channel 9.  Note 61.  Velocity 127
000000t:  Note on ::  Channel 9.  Note 42.  Velocity 127
000005t:  Note on ::  Channel 9.  Note 51.  Velocity 0
000017t:  Note on ::  Channel 9.  Note 38.  Velocity 0
000000t:  Note on ::  Channel 9.  Note 61.  Velocity 0
000002t:  Note on ::  Channel 9.  Note 42.  Velocity 0
000024t:  Note on ::  Channel 9.  Note 61.  Velocity 127
000000t:  Note on ::  Channel 9.  Note 42.  Velocity 127
000022t:  Note on ::  Channel 9.  Note 42.  Velocity 0
000001t:  Note on ::  Channel 9.  Note 61.  Velocity 0
000025t:  Note on ::  Channel 9.  Note 36.  Velocity 127
000000t:  Note on ::  Channel 9.  Note 61.  Velocity 127
000000t:  Note on ::  Channel 9.  Note 42.  Velocity 127
000019t:  Note on ::  Channel 9.  Note 42.  Velocity 0
000004t:  Note on ::  Channel 9.  Note 61.  Velocity 0
000000t:  Note on ::  Channel 9.  Note 36.  Velocity 0
000026t:  Note on ::  Channel 9.  Note 61.  Velocity 127
000000t:  Note on ::  Channel 9.  Note 42.  Velocity 127
000016t:  Note on ::  Channel 9.  Note 42.  Velocity 0
000007t:  Note on ::  Channel 9.  Note 61.  Velocity 0
000024t:  Note on ::  Channel 9.  Note 38.  Velocity 127
000000t:  Note on ::  Channel 9.  Note 61.  Velocity 127
000000t:  Note on ::  Channel 9.  Note 42.  Velocity 127
000020t:  Note on ::  Channel 9.  Note 42.  Velocity 0
000003t:  Note on ::  Channel 9.  Note 61.  Velocity 0
000000t:  Note on ::  Channel 9.  Note 38.  Velocity 0
000026t:  Note on ::  Channel 9.  Note 61.  Velocity 127
000000t:  Note on ::  Channel 9.  Note 42.  Velocity 127
000013t:  Note on ::  Channel 9.  Note 42.  Velocity 0
000010t:  Note on ::  Channel 9.  Note 61.  Velocity 0
000024t:  Note on ::  Channel 9.  Note 36.  Velocity 127
000000t:  Note on ::  Channel 9.  Note 61.  Velocity 127
000001t:  Note on ::  Channel 9.  Note 51.  Velocity 127
000000t:  Note on ::  Channel 9.  Note 40.  Velocity 127
000000t:  Note on ::  Channel 9.  Note 42.  Velocity 127
000021t:  Note on ::  Channel 9.  Note 42.  Velocity 0
000001t:  Note on ::  Channel 9.  Note 36.  Velocity 0
000000t:  Note on ::  Channel 9.  Note 61.  Velocity 0
000026t:  Note on ::  Channel 9.  Note 36.  Velocity 127
000000t:  Note on ::  Channel 9.  Note 61.  Velocity 127
000001t:  Note on ::  Channel 9.  Note 42.  Velocity 127
000022t:  Note on ::  Channel 9.  Note 42.  Velocity 0
000000t:  Note on ::  Channel 9.  Note 36.  Velocity 0
000000t:  Note on ::  Channel 9.  Note 61.  Velocity 0
000016t:  Note on ::  Channel 9.  Note 51.  Velocity 0
000000t:  Note on ::  Channel 9.  Note 40.  Velocity 0
000009t:  Note on ::  Channel 9.  Note 38.  Velocity 127
000000t:  Note on ::  Channel 9.  Note 61.  Velocity 127
000000t:  Note on ::  Channel 9.  Note 42.  Velocity 127
000023t:  Note on ::  Channel 9.  Note 42.  Velocity 0
000000t:  Note on ::  Channel 9.  Note 61.  Velocity 0
000000t:  Note on ::  Channel 9.  Note 38.  Velocity 0
000025t:  Note on ::  Channel 9.  Note 61.  Velocity 127
000000t:  Note on ::  Channel 9.  Note 42.  Velocity 127
000023t:  Note on ::  Channel 9.  Note 61.  Velocity 0
000002t:  Note on ::  Channel 9.  Note 42.  Velocity 0
000168t:  Note on ::  Channel 9.  Note 61.  Velocity 127
000012t:  Control change ::  Channel 9.  Controller 66.  Value: 0
000010t:  Note on ::  Channel 9.  Note 61.  Velocity 0
000025t:  Note on ::  Channel 9.  Note 61.  Velocity 127
000026t:  Note on ::  Channel 9.  Note 61.  Velocity 0
000023t:  Note on ::  Channel 9.  Note 61.  Velocity 127
000010t:  Note on ::  Channel 9.  Note 61.  Velocity 0
000279t:  Note on ::  Channel 9.  Note 61.  Velocity 127
000012t:  Control change ::  Channel 9.  Controller 66.  Value: 0
000010t:  Note on ::  Channel 9.  Note 61.  Velocity 0
000026t:  Note on ::  Channel 9.  Note 61.  Velocity 127
000025t:  Note on ::  Channel 9.  Note 61.  Velocity 0
000023t:  Note on ::  Channel 9.  Note 61.  Velocity 127
000010t:  Note on ::  Channel 9.  Note 61.  Velocity 0
000279t:  Note on ::  Channel 9.  Note 61.  Velocity 127
000013t:  Control change ::  Channel 9.  Controller 66.  Value: 0
000009t:  Note on ::  Channel 9.  Note 61.  Velocity 0
000026t:  Note on ::  Channel 9.  Note 61.  Velocity 127
000026t:  Note on ::  Channel 9.  Note 61.  Velocity 0
000023t:  Note on ::  Channel 9.  Note 61.  Velocity 127
000009t:  Note on ::  Channel 9.  Note 61.  Velocity 0
000280t:  Note on ::  Channel 9.  Note 36.  Velocity 127
000000t:  Note on ::  Channel 9.  Note 61.  Velocity 127
000012t:  Control change ::  Channel 9.  Controller 66.  Value: 0
000009t:  Note on ::  Channel 9.  Note 61.  Velocity 0
000007t:  Note on ::  Channel 9.  Note 36.  Velocity 0
000019t:  Note on ::  Channel 9.  Note 38.  Velocity 127
000000t:  Note on ::  Channel 9.  Note 61.  Velocity 127
000026t:  Note on ::  Channel 9.  Note 61.  Velocity 0
000000t:  Note on ::  Channel 9.  Note 38.  Velocity 0
000023t:  Note on ::  Channel 9.  Note 38.  Velocity 127
000000t:  Note on ::  Channel 9.  Note 61.  Velocity 127
000009t:  Note on ::  Channel 9.  Note 61.  Velocity 0
000014t:  Note on ::  Channel 9.  Note 38.  Velocity 0
000019t:  Control change ::  Channel 9.  Controller 66.  Value: 0
000005t:  Note on ::  Channel 9.  Note 40.  Velocity 127
000000t:  Note on ::  Channel 9.  Note 38.  Velocity 127
000023t:  Note on ::  Channel 9.  Note 38.  Velocity 0
000009t:  Note on ::  Channel 9.  Note 40.  Velocity 0
000017t:  Note on ::  Channel 9.  Note 38.  Velocity 127
000022t:  Note on ::  Channel 9.  Note 38.  Velocity 0
000026t:  Note on ::  Channel 9.  Note 36.  Velocity 127
000000t:  Note on ::  Channel 9.  Note 61.  Velocity 127
000000t:  Note on ::  Channel 9.  Note 42.  Velocity 127
000023t:  Note on ::  Channel 9.  Note 61.  Velocity 0
000000t:  Note on ::  Channel 9.  Note 36.  Velocity 0
000002t:  Note on ::  Channel 9.  Note 42.  Velocity 0
000023t:  Note on ::  Channel 9.  Note 61.  Velocity 127
000001t:  Note on ::  Channel 9.  Note 42.  Velocity 127
000020t:  Note on ::  Channel 9.  Note 42.  Velocity 0
000002t:  Note on ::  Channel 9.  Note 61.  Velocity 0
000025t:  Note on ::  Channel 9.  Note 38.  Velocity 127
000000t:  Note on ::  Channel 9.  Note 61.  Velocity 127
000000t:  Note on ::  Channel 9.  Note 42.  Velocity 127
000023t:  Note on ::  Channel 9.  Note 42.  Velocity 0
000000t:  Note on ::  Channel 9.  Note 61.  Velocity 0
000000t:  Note on ::  Channel 9.  Note 38.  Velocity 0
000026t:  Note on ::  Channel 9.  Note 61.  Velocity 127
000000t:  Note on ::  Channel 9.  Note 42.  Velocity 127
000023t:  Note on ::  Channel 9.  Note 42.  Velocity 0
000000t:  Note on ::  Channel 9.  Note 61.  Velocity 0
000024t:  Note on ::  Channel 9.  Note 36.  Velocity 127
000000t:  Note on ::  Channel 9.  Note 61.  Velocity 127
000001t:  Note on ::  Channel 9.  Note 40.  Velocity 127
000000t:  Note on ::  Channel 9.  Note 51.  Velocity 127
000000t:  Note on ::  Channel 9.  Note 42.  Velocity 127
000022t:  Note on ::  Channel 9.  Note 42.  Velocity 0
000000t:  Note on ::  Channel 9.  Note 36.  Velocity 0
000001t:  Note on ::  Channel 9.  Note 61.  Velocity 0
000025t:  Note on ::  Channel 9.  Note 36.  Velocity 127
000000t:  Note on ::  Channel 9.  Note 61.  Velocity 127
000001t:  Note on ::  Channel 9.  Note 42.  Velocity 127
000022t:  Note on ::  Channel 9.  Note 61.  Velocity 0
000000t:  Note on ::  Channel 9.  Note 36.  Velocity 0
000001t:  Note on ::  Channel 9.  Note 42.  Velocity 0
000023t:  Note on ::  Channel 9.  Note 40.  Velocity 0
000001t:  Note on ::  Channel 9.  Note 38.  Velocity 127
000000t:  Note on ::  Channel 9.  Note 61.  Velocity 127
000000t:  Note on ::  Channel 9.  Note 42.  Velocity 127
000005t:  Note on ::  Channel 9.  Note 51.  Velocity 0
000017t:  Note on ::  Channel 9.  Note 38.  Velocity 0
000000t:  Note on ::  Channel 9.  Note 61.  Velocity 0
000003t:  Note on ::  Channel 9.  Note 42.  Velocity 0
000023t:  Note on ::  Channel 9.  Note 61.  Velocity 127
000000t:  Note on ::  Channel 9.  Note 42.  Velocity 127
000023t:  Note on ::  Channel 9.  Note 61.  Velocity 0
000002t:  Note on ::  Channel 9.  Note 42.  Velocity 0
000023t:  Note on ::  Channel 9.  Note 36.  Velocity 127
000000t:  Note on ::  Channel 9.  Note 61.  Velocity 127
000000t:  Note on ::  Channel 9.  Note 42.  Velocity 127
000023t:  Note on ::  Channel 9.  Note 61.  Velocity 0
000000t:  Note on ::  Channel 9.  Note 36.  Velocity 0
000005t:  Note on ::  Channel 9.  Note 42.  Velocity 0
000021t:  Note on ::  Channel 9.  Note 61.  Velocity 127
000000t:  Note on ::  Channel 9.  Note 42.  Velocity 127
000021t:  Note on ::  Channel 9.  Note 42.  Velocity 0
000002t:  Note on ::  Channel 9.  Note 61.  Velocity 0
000024t:  Note on ::  Channel 9.  Note 38.  Velocity 127
000000t:  Note on ::  Channel 9.  Note 61.  Velocity 127
000000t:  Note on ::  Channel 9.  Note 42.  Velocity 127
000023t:  Note on ::  Channel 9.  Note 42.  Velocity 0
000000t:  Note on ::  Channel 9.  Note 61.  Velocity 0
000000t:  Note on ::  Channel 9.  Note 38.  Velocity 0
000026t:  Note on ::  Channel 9.  Note 61.  Velocity 127
000000t:  Note on ::  Channel 9.  Note 42.  Velocity 127
000023t:  Note on ::  Channel 9.  Note 61.  Velocity 0
000001t:  Note on ::  Channel 9.  Note 42.  Velocity 0
000023t:  Note on ::  Channel 9.  Note 36.  Velocity 127
000000t:  Note on ::  Channel 9.  Note 61.  Velocity 127
000001t:  Note on ::  Channel 9.  Note 51.  Velocity 127
000000t:  Note on ::  Channel 9.  Note 40.  Velocity 127
000000t:  Note on ::  Channel 9.  Note 42.  Velocity 127
000022t:  Note on ::  Channel 9.  Note 61.  Velocity 0
000000t:  Note on ::  Channel 9.  Note 36.  Velocity 0
000003t:  Note on ::  Channel 9.  Note 42.  Velocity 0
000023t:  Note on ::  Channel 9.  Note 36.  Velocity 127
000000t:  Note on ::  Channel 9.  Note 61.  Velocity 127
000001t:  Note on ::  Channel 9.  Note 42.  Velocity 127
000022t:  Note on ::  Channel 9.  Note 61.  Velocity 0
000000t:  Note on ::  Channel 9.  Note 36.  Velocity 0
000002t:  Note on ::  Channel 9.  Note 42.  Velocity 0
000015t:  Note on ::  Channel 9.  Note 51.  Velocity 0
000000t:  Note on ::  Channel 9.  Note 40.  Velocity 0
000008t:  Note on ::  Channel 9.  Note 38.  Velocity 127
000000t:  Note on ::  Channel 9.  Note 61.  Velocity 127
000000t:  Note on ::  Channel 9.  Note 42.  Velocity 127
000023t:  Note on ::  Channel 9.  Note 61.  Velocity 0
000000t:  Note on ::  Channel 9.  Note 38.  Velocity 0
000002t:  Note on ::  Channel 9.  Note 42.  Velocity 0
000024t:  Note on ::  Channel 9.  Note 61.  Velocity 127
000000t:  Note on ::  Channel 9.  Note 42.  Velocity 127
000023t:  Note on ::  Channel 9.  Note 61.  Velocity 0
000001t:  Note on ::  Channel 9.  Note 42.  Velocity 0
000023t:  Note on ::  Channel 9.  Note 36.  Velocity 127
000000t:  Note on ::  Channel 9.  Note 61.  Velocity 127
000000t:  Note on ::  Channel 9.  Note 42.  Velocity 127
000023t:  Note on ::  Channel 9.  Note 61.  Velocity 0
000000t:  Note on ::  Channel 9.  Note 36.  Velocity 0
000003t:  Note on ::  Channel 9.  Note 42.  Velocity 0
000023t:  Note on ::  Channel 9.  Note 61.  Velocity 127
000000t:  Note on ::  Channel 9.  Note 42.  Velocity 127
000023t:  Note on ::  Channel 9.  Note 61.  Velocity 0
000002t:  Note on ::  Channel 9.  Note 42.  Velocity 0
000022t:  Note on ::  Channel 9.  Note 38.  Velocity 127
000000t:  Note on ::  Channel 9.  Note 61.  Velocity 127
000001t:  Note on ::  Channel 9.  Note 42.  Velocity 127
000022t:  Note on ::  Channel 9.  Note 42.  Velocity 0
000000t:  Note on ::  Channel 9.  Note 38.  Velocity 0
000001t:  Note on ::  Channel 9.  Note 61.  Velocity 0
000025t:  Note on ::  Channel 9.  Note 61.  Velocity 127
000000t:  Note on ::  Channel 9.  Note 42.  Velocity 127
000023t:  Note on ::  Channel 9.  Note 42.  Velocity 0
000000t:  Note on ::  Channel 9.  Note 61.  Velocity 0
000025t:  Note on ::  Channel 9.  Note 36.  Velocity 127
000000t:  Note on ::  Channel 9.  Note 61.  Velocity 127
000000t:  Note on ::  Channel 9.  Note 40.  Velocity 127
000000t:  Note on ::  Channel 9.  Note 51.  Velocity 127
000000t:  Note on ::  Channel 9.  Note 42.  Velocity 127
000023t:  Note on ::  Channel 9.  Note 42.  Velocity 0
000000t:  Note on ::  Channel 9.  Note 36.  Velocity 0
000000t:  Note on ::  Channel 9.  Note 61.  Velocity 0
000025t:  Note on ::  Channel 9.  Note 36.  Velocity 127
000001t:  Note on ::  Channel 9.  Note 61.  Velocity 127
000000t:  Note on ::  Channel 9.  Note 42.  Velocity 127
000021t:  Note on ::  Channel 9.  Note 42.  Velocity 0
000001t:  Note on ::  Channel 9.  Note 36.  Velocity 0
000001t:  Note on ::  Channel 9.  Note 61.  Velocity 0
000024t:  Note on ::  Channel 9.  Note 40.  Velocity 0
000000t:  Note on ::  Channel 9.  Note 38.  Velocity 127
000000t:  Note on ::  Channel 9.  Note 61.  Velocity 127
000001t:  Note on ::  Channel 9.  Note 42.  Velocity 127
000004t:  Note on ::  Channel 9.  Note 51.  Velocity 0
000018t:  Note on ::  Channel 9.  Note 38.  Velocity 0
000000t:  Note on ::  Channel 9.  Note 61.  Velocity 0
000001t:  Note on ::  Channel 9.  Note 42.  Velocity 0
000025t:  Note on ::  Channel 9.  Note 61.  Velocity 127
000000t:  Note on ::  Channel 9.  Note 42.  Velocity 127
000021t:  Note on ::  Channel 9.  Note 42.  Velocity 0
000002t:  Note on ::  Channel 9.  Note 61.  Velocity 0
000024t:  Note on ::  Channel 9.  Note 36.  Velocity 127
000000t:  Note on ::  Channel 9.  Note 61.  Velocity 127
000001t:  Note on ::  Channel 9.  Note 42.  Velocity 127
000018t:  Note on ::  Channel 9.  Note 42.  Velocity 0
000004t:  Note on ::  Channel 9.  Note 61.  Velocity 0
000000t:  Note on ::  Channel 9.  Note 36.  Velocity 0
000026t:  Note on ::  Channel 9.  Note 61.  Velocity 127
000000t:  Note on ::  Channel 9.  Note 42.  Velocity 127
000016t:  Note on ::  Channel 9.  Note 42.  Velocity 0
000007t:  Note on ::  Channel 9.  Note 61.  Velocity 0
000024t:  Note on ::  Channel 9.  Note 38.  Velocity 127
000000t:  Note on ::  Channel 9.  Note 61.  Velocity 127
000001t:  Note on ::  Channel 9.  Note 42.  Velocity 127
000020t:  Note on ::  Channel 9.  Note 42.  Velocity 0
000002t:  Note on ::  Channel 9.  Note 61.  Velocity 0
000000t:  Note on ::  Channel 9.  Note 38.  Velocity 0
000026t:  Note on ::  Channel 9.  Note 61.  Velocity 127
000000t:  Note on ::  Channel 9.  Note 42.  Velocity 127
000014t:  Note on ::  Channel 9.  Note 42.  Velocity 0
000009t:  Note on ::  Channel 9.  Note 61.  Velocity 0
000025t:  Note on ::  Channel 9.  Note 36.  Velocity 127
000000t:  Note on ::  Channel 9.  Note 61.  Velocity 127
000000t:  Note on ::  Channel 9.  Note 51.  Velocity 127
000000t:  Note on ::  Channel 9.  Note 40.  Velocity 127
000001t:  Note on ::  Channel 9.  Note 42.  Velocity 127
000020t:  Note on ::  Channel 9.  Note 42.  Velocity 0
000002t:  Note on ::  Channel 9.  Note 36.  Velocity 0
000000t:  Note on ::  Channel 9.  Note 61.  Velocity 0
000026t:  Note on ::  Channel 9.  Note 36.  Velocity 127
000000t:  Note on ::  Channel 9.  Note 61.  Velocity 127
000000t:  Note on ::  Channel 9.  Note 42.  Velocity 127
000023t:  Note on ::  Channel 9.  Note 42.  Velocity 0
000000t:  Note on ::  Channel 9.  Note 36.  Velocity 0
000000t:  Note on ::  Channel 9.  Note 61.  Velocity 0
000016t:  Note on ::  Channel 9.  Note 51.  Velocity 0
000000t:  Note on ::  Channel 9.  Note 40.  Velocity 0
000008t:  Note on ::  Channel 9.  Note 38.  Velocity 127
000000t:  Note on ::  Channel 9.  Note 61.  Velocity 127
000000t:  Note on ::  Channel 9.  Note 42.  Velocity 127
000023t:  Note on ::  Channel 9.  Note 42.  Velocity 0
000000t:  Note on ::  Channel 9.  Note 61.  Velocity 0
000000t:  Note on ::  Channel 9.  Note 38.  Velocity 0
000026t:  Note on ::  Channel 9.  Note 61.  Velocity 127
000000t:  Note on ::  Channel 9.  Note 42.  Velocity 127
000023t:  Note on ::  Channel 9.  Note 61.  Velocity 0
000001t:  Note on ::  Channel 9.  Note 42.  Velocity 0
000023t:  Note on ::  Channel 9.  Note 36.  Velocity 127
000001t:  Note on ::  Channel 9.  Note 61.  Velocity 127
000000t:  Note on ::  Channel 9.  Note 42.  Velocity 127
000022t:  Note on ::  Channel 9.  Note 61.  Velocity 0
000000t:  Note on ::  Channel 9.  Note 36.  Velocity 0
000004t:  Note on ::  Channel 9.  Note 42.  Velocity 0
000022t:  Note on ::  Channel 9.  Note 61.  Velocity 127
000000t:  Note on ::  Channel 9.  Note 42.  Velocity 127
000023t:  Note on ::  Channel 9.  Note 42.  Velocity 0
000000t:  Note on ::  Channel 9.  Note 61.  Velocity 0
000025t:  Note on ::  Channel 9.  Note 38.  Velocity 127
000000t:  Note on ::  Channel 9.  Note 61.  Velocity 127
000000t:  Note on ::  Channel 9.  Note 42.  Velocity 127
000023t:  Note on ::  Channel 9.  Note 42.  Velocity 0
000000t:  Note on ::  Channel 9.  Note 61.  Velocity 0
000000t:  Note on ::  Channel 9.  Note 38.  Velocity 0
000025t:  Note on ::  Channel 9.  Note 61.  Velocity 127
000001t:  Note on ::  Channel 9.  Note 42.  Velocity 127
000020t:  Note on ::  Channel 9.  Note 42.  Velocity 0
000002t:  Note on ::  Channel 9.  Note 61.  Velocity 0
000025t:  Note on ::  Channel 9.  Note 36.  Velocity 127
000000t:  Note on ::  Channel 9.  Note 61.  Velocity 127
000000t:  Note on ::  Channel 9.  Note 40.  Velocity 127
000001t:  Note on ::  Channel 9.  Note 51.  Velocity 127
000000t:  Note on ::  Channel 9.  Note 42.  Velocity 127
000018t:  Note on ::  Channel 9.  Note 42.  Velocity 0
000004t:  Note on ::  Channel 9.  Note 36.  Velocity 0
000000t:  Note on ::  Channel 9.  Note 61.  Velocity 0
000026t:  Note on ::  Channel 9.  Note 36.  Velocity 127
000000t:  Note on ::  Channel 9.  Note 61.  Velocity 127
000000t:  Note on ::  Channel 9.  Note 42.  Velocity 127
000021t:  Note on ::  Channel 9.  Note 42.  Velocity 0
000002t:  Note on ::  Channel 9.  Note 36.  Velocity 0
000000t:  Note on ::  Channel 9.  Note 61.  Velocity 0
000024t:  Note on ::  Channel 9.  Note 40.  Velocity 0
000000t:  Note on ::  Channel 9.  Note 38.  Velocity 127
000000t:  Note on ::  Channel 9.  Note 61.  Velocity 127
000001t:  Note on ::  Channel 9.  Note 42.  Velocity 127
000006t:  Note on ::  Channel 9.  Note 51.  Velocity 0
000016t:  Note on ::  Channel 9.  Note 38.  Velocity 0
000000t:  Note on ::  Channel 9.  Note 61.  Velocity 0
000003t:  Note on ::  Channel 9.  Note 42.  Velocity 0
000023t:  Note on ::  Channel 9.  Note 61.  Velocity 127
000000t:  Note on ::  Channel 9.  Note 42.  Velocity 127
000023t:  Note on ::  Channel 9.  Note 42.  Velocity 0
000000t:  Note on ::  Channel 9.  Note 61.  Velocity 0
000024t:  Note on ::  Channel 9.  Note 36.  Velocity 127
000001t:  Note on ::  Channel 9.  Note 61.  Velocity 127
000000t:  Note on ::  Channel 9.  Note 42.  Velocity 127
000023t:  Note on ::  Channel 9.  Note 42.  Velocity 0
000000t:  Note on ::  Channel 9.  Note 61.  Velocity 0
000000t:  Note on ::  Channel 9.  Note 36.  Velocity 0
000025t:  Note on ::  Channel 9.  Note 61.  Velocity 127
000000t:  Note on ::  Channel 9.  Note 42.  Velocity 127
000019t:  Note on ::  Channel 9.  Note 42.  Velocity 0
000004t:  Note on ::  Channel 9.  Note 61.  Velocity 0
000025t:  Note on ::  Channel 9.  Note 38.  Velocity 127
000000t:  Note on ::  Channel 9.  Note 61.  Velocity 127
000000t:  Note on ::  Channel 9.  Note 42.  Velocity 127
000019t:  Note on ::  Channel 9.  Note 42.  Velocity 0
000004t:  Note on ::  Channel 9.  Note 61.  Velocity 0
000000t:  Note on ::  Channel 9.  Note 38.  Velocity 0
000026t:  Note on ::  Channel 9.  Note 61.  Velocity 127
000000t:  Note on ::  Channel 9.  Note 42.  Velocity 127
000019t:  Note on ::  Channel 9.  Note 42.  Velocity 0
000004t:  Note on ::  Channel 9.  Note 61.  Velocity 0
000024t:  Note on ::  Channel 9.  Note 36.  Velocity 127
000000t:  Note on ::  Channel 9.  Note 61.  Velocity 127
000000t:  Note on ::  Channel 9.  Note 51.  Velocity 127
000001t:  Note on ::  Channel 9.  Note 40.  Velocity 127
000000t:  Note on ::  Channel 9.  Note 42.  Velocity 127
000018t:  Note on ::  Channel 9.  Note 42.  Velocity 0
000004t:  Note on ::  Channel 9.  Note 36.  Velocity 0
000000t:  Note on ::  Channel 9.  Note 61.  Velocity 0
000026t:  Note on ::  Channel 9.  Note 36.  Velocity 127
000000t:  Note on ::  Channel 9.  Note 61.  Velocity 127
000000t:  Note on ::  Channel 9.  Note 42.  Velocity 127
000020t:  Note on ::  Channel 9.  Note 42.  Velocity 0
000003t:  Note on ::  Channel 9.  Note 36.  Velocity 0
000000t:  Note on ::  Channel 9.  Note 61.  Velocity 0
000016t:  Note on ::  Channel 9.  Note 51.  Velocity 0
000000t:  Note on ::  Channel 9.  Note 40.  Velocity 0
000008t:  Note on ::  Channel 9.  Note 38.  Velocity 127
000000t:  Note on ::  Channel 9.  Note 61.  Velocity 127
000001t:  Note on ::  Channel 9.  Note 42.  Velocity 127
000022t:  Note on ::  Channel 9.  Note 61.  Velocity 0
000000t:  Note on ::  Channel 9.  Note 38.  Velocity 0
000003t:  Note on ::  Channel 9.  Note 42.  Velocity 0
000023t:  Note on ::  Channel 9.  Note 61.  Velocity 127
000000t:  Note on ::  Channel 9.  Note 42.  Velocity 127
000023t:  Note on ::  Channel 9.  Note 61.  Velocity 0
000004t:  Note on ::  Channel 9.  Note 42.  Velocity 0
000021t:  Note on ::  Channel 9.  Note 36.  Velocity 127
000000t:  Note on ::  Channel 9.  Note 61.  Velocity 127
000000t:  Note on ::  Channel 9.  Note 42.  Velocity 127
000023t:  Note on ::  Channel 9.  Note 61.  Velocity 0
000000t:  Note on ::  Channel 9.  Note 36.  Velocity 0
000012t:  Note on ::  Channel 9.  Note 42.  Velocity 0
000014t:  Note on ::  Channel 9.  Note 61.  Velocity 127
000000t:  Note on ::  Channel 9.  Note 42.  Velocity 127
000023t:  Note on ::  Channel 9.  Note 61.  Velocity 0
000001t:  Note on ::  Channel 9.  Note 42.  Velocity 0
000023t:  Note on ::  Channel 9.  Note 38.  Velocity 127
000000t:  Note on ::  Channel 9.  Note 61.  Velocity 127
000000t:  Note on ::  Channel 9.  Note 42.  Velocity 127
000019t:  Note on ::  Channel 9.  Note 42.  Velocity 0
000004t:  Note on ::  Channel 9.  Note 61.  Velocity 0
000000t:  Note on ::  Channel 9.  Note 38.  Velocity 0
000026t:  Note on ::  Channel 9.  Note 61.  Velocity 127
000000t:  Note on ::  Channel 9.  Note 42.  Velocity 127
000020t:  Note on ::  Channel 9.  Note 42.  Velocity 0
000003t:  Note on ::  Channel 9.  Note 61.  Velocity 0
000024t:  Note on ::  Channel 9.  Note 36.  Velocity 127
000000t:  Note on ::  Channel 9.  Note 61.  Velocity 127
000001t:  Note on ::  Channel 9.  Note 40.  Velocity 127
000000t:  Note on ::  Channel 9.  Note 51.  Velocity 127
000000t:  Note on ::  Channel 9.  Note 42.  Velocity 127
000021t:  Note on ::  Channel 9.  Note 42.  Velocity 0
000001t:  Note on ::  Channel 9.  Note 36.  Velocity 0
000000t:  Note on ::  Channel 9.  Note 61.  Velocity 0
000026t:  Note on ::  Channel 9.  Note 36.  Velocity 127
000000t:  Note on ::  Channel 9.  Note 61.  Velocity 127
000001t:  Note on ::  Channel 9.  Note 42.  Velocity 127
000019t:  Note on ::  Channel 9.  Note 42.  Velocity 0
000003t:  Note on ::  Channel 9.  Note 36.  Velocity 0
000000t:  Note on ::  Channel 9.  Note 61.  Velocity 0
000025t:  Note on ::  Channel 9.  Note 40.  Velocity 0
000000t:  Note on ::  Channel 9.  Note 38.  Velocity 127
000000t:  Note on ::  Channel 9.  Note 61.  Velocity 127
000000t:  Note on ::  Channel 9.  Note 42.  Velocity 127
000005t:  Note on ::  Channel 9.  Note 51.  Velocity 0
000018t:  Note on ::  Channel 9.  Note 38.  Velocity 0
000000t:  Note on ::  Channel 9.  Note 61.  Velocity 0
000000t:  Note on ::  Channel 9.  Note 42.  Velocity 0
000025t:  Note on ::  Channel 9.  Note 61.  Velocity 127
000000t:  Note on ::  Channel 9.  Note 42.  Velocity 127
000023t:  Note on ::  Channel 9.  Note 42.  Velocity 0
000000t:  Note on ::  Channel 9.  Note 61.  Velocity 0
000025t:  Note on ::  Channel 9.  Note 36.  Velocity 127
000000t:  Note on ::  Channel 9.  Note 61.  Velocity 127
000000t:  Note on ::  Channel 9.  Note 42.  Velocity 127
000023t:  Note on ::  Channel 9.  Note 61.  Velocity 0
000000t:  Note on ::  Channel 9.  Note 36.  Velocity 0
000008t:  Note on ::  Channel 9.  Note 42.  Velocity 0
000018t:  Note on ::  Channel 9.  Note 61.  Velocity 127
000000t:  Note on ::  Channel 9.  Note 42.  Velocity 127
000023t:  Note on ::  Channel 9.  Note 42.  Velocity 0
000000t:  Note on ::  Channel 9.  Note 61.  Velocity 0
000024t:  Note on ::  Channel 9.  Note 38.  Velocity 127
000000t:  Note on ::  Channel 9.  Note 61.  Velocity 127
000001t:  Note on ::  Channel 9.  Note 42.  Velocity 127
000021t:  Note on ::  Channel 9.  Note 42.  Velocity 0
000001t:  Note on ::  Channel 9.  Note 61.  Velocity 0
000000t:  Note on ::  Channel 9.  Note 38.  Velocity 0
000026t:  Note on ::  Channel 9.  Note 61.  Velocity 127
000000t:  Note on ::  Channel 9.  Note 42.  Velocity 127
000023t:  Note on ::  Channel 9.  Note 42.  Velocity 0
000000t:  Note on ::  Channel 9.  Note 61.  Velocity 0
000024t:  Note on ::  Channel 9.  Note 36.  Velocity 127
000000t:  Note on ::  Channel 9.  Note 61.  Velocity 127
000001t:  Note on ::  Channel 9.  Note 51.  Velocity 127
000000t:  Note on ::  Channel 9.  Note 40.  Velocity 127
000000t:  Note on ::  Channel 9.  Note 42.  Velocity 127
000023t:  Note on ::  Channel 9.  Note 42.  Velocity 0
000000t:  Note on ::  Channel 9.  Note 36.  Velocity 0
000000t:  Note on ::  Channel 9.  Note 61.  Velocity 0
000025t:  Note on ::  Channel 9.  Note 36.  Velocity 127
000000t:  Note on ::  Channel 9.  Note 61.  Velocity 127
000001t:  Note on ::  Channel 9.  Note 42.  Velocity 127
000022t:  Note on ::  Channel 9.  Note 61.  Velocity 0
000000t:  Note on ::  Channel 9.  Note 36.  Velocity 0
000002t:  Note on ::  Channel 9.  Note 42.  Velocity 0
000015t:  Note on ::  Channel 9.  Note 51.  Velocity 0
000000t:  Note on ::  Channel 9.  Note 40.  Velocity 0
000008t:  Note on ::  Channel 9.  Note 38.  Velocity 127
000000t:  Note on ::  Channel 9.  Note 61.  Velocity 127
000000t:  Note on ::  Channel 9.  Note 42.  Velocity 127
000022t:  Note on ::  Channel 9.  Note 42.  Velocity 0
000001t:  Note on ::  Channel 9.  Note 61.  Velocity 0
000000t:  Note on ::  Channel 9.  Note 38.  Velocity 0
000026t:  Note on ::  Channel 9.  Note 61.  Velocity 127
000000t:  Note on ::  Channel 9.  Note 42.  Velocity 127
000021t:  Note on ::  Channel 9.  Note 42.  Velocity 0
000002t:  Note on ::  Channel 9.  Note 61.  Velocity 0
000024t:  Note on ::  Channel 9.  Note 36.  Velocity 127
000000t:  Note on ::  Channel 9.  Note 61.  Velocity 127
000000t:  Note on ::  Channel 9.  Note 42.  Velocity 127
000001t:  Note on ::  Channel 9.  Note 49.  Velocity 127
000007t:  Control change ::  Channel 9.  Controller 66.  Value: 0
000004t:  Control change ::  Channel 9.  Controller 66.  Value: 0
000004t:  Control change ::  Channel 9.  Controller 66.  Value: 0
000007t:  Note on ::  Channel 9.  Note 61.  Velocity 0
000000t:  Note on ::  Channel 9.  Note 36.  Velocity 0
000003t:  Note on ::  Channel 9.  Note 42.  Velocity 0
000023t:  Note on ::  Channel 9.  Note 61.  Velocity 127
000000t:  Note on ::  Channel 9.  Note 42.  Velocity 127
000020t:  Note on ::  Channel 9.  Note 42.  Velocity 0
000003t:  Note on ::  Channel 9.  Note 61.  Velocity 0
000024t:  Note on ::  Channel 9.  Note 38.  Velocity 127
000001t:  Note on ::  Channel 9.  Note 61.  Velocity 127
000000t:  Note on ::  Channel 9.  Note 42.  Velocity 127
000022t:  Note on ::  Channel 9.  Note 42.  Velocity 0
000000t:  Note on ::  Channel 9.  Note 38.  Velocity 0
000001t:  Note on ::  Channel 9.  Note 61.  Velocity 0
000025t:  Note on ::  Channel 9.  Note 61.  Velocity 127
000000t:  Note on ::  Channel 9.  Note 42.  Velocity 127
000023t:  Note on ::  Channel 9.  Note 42.  Velocity 0
000000t:  Note on ::  Channel 9.  Note 61.  Velocity 0
000025t:  Note on ::  Channel 9.  Note 36.  Velocity 127
000000t:  Note on ::  Channel 9.  Note 61.  Velocity 127
000000t:  Note on ::  Channel 9.  Note 40.  Velocity 127
000000t:  Note on ::  Channel 9.  Note 51.  Velocity 127
000001t:  Note on ::  Channel 9.  Note 42.  Velocity 127
000022t:  Note on ::  Channel 9.  Note 42.  Velocity 0
000000t:  Note on ::  Channel 9.  Note 36.  Velocity 0
000000t:  Note on ::  Channel 9.  Note 61.  Velocity 0
000025t:  Note on ::  Channel 9.  Note 36.  Velocity 127
000000t:  Note on ::  Channel 9.  Note 61.  Velocity 127
000001t:  Note on ::  Channel 9.  Note 42.  Velocity 127
000022t:  Note on ::  Channel 9.  Note 61.  Velocity 0
000000t:  Note on ::  Channel 9.  Note 36.  Velocity 0
000002t:  Note on ::  Channel 9.  Note 42.  Velocity 0
000023t:  Note on ::  Channel 9.  Note 40.  Velocity 0
000000t:  Note on ::  Channel 9.  Note 38.  Velocity 127
000000t:  Note on ::  Channel 9.  Note 61.  Velocity 127
000001t:  Note on ::  Channel 9.  Note 42.  Velocity 127
000004t:  Note on ::  Channel 9.  Note 51.  Velocity 0
000018t:  Note on ::  Channel 9.  Note 61.  Velocity 0
000000t:  Note on ::  Channel 9.  Note 38.  Velocity 0
000003t:  Note on ::  Channel 9.  Note 42.  Velocity 0
000023t:  Note on ::  Channel 9.  Note 61.  Velocity 127
000000t:  Note on ::  Channel 9.  Note 42.  Velocity 127
000001t:  Note on ::  Channel 9.  Note 49.  Velocity 0
000022t:  Note on ::  Channel 9.  Note 61.  Velocity 0
000001t:  Note on ::  Channel 9.  Note 42.  Velocity 0
000023t:  Note on ::  Channel 9.  Note 36.  Velocity 127
000000t:  Note on ::  Channel 9.  Note 61.  Velocity 127
000001t:  Note on ::  Channel 9.  Note 42.  Velocity 127
000022t:  Note on ::  Channel 9.  Note 61.  Velocity 0
000000t:  Note on ::  Channel 9.  Note 36.  Velocity 0
000006t:  Note on ::  Channel 9.  Note 42.  Velocity 0
000020t:  Note on ::  Channel 9.  Note 61.  Velocity 127
000000t:  Note on ::  Channel 9.  Note 42.  Velocity 127
000022t:  Note on ::  Channel 9.  Note 42.  Velocity 0
000001t:  Note on ::  Channel 9.  Note 61.  Velocity 0
000025t:  Note on ::  Channel 9.  Note 38.  Velocity 127
000000t:  Note on ::  Channel 9.  Note 61.  Velocity 127
000000t:  Note on ::  Channel 9.  Note 42.  Velocity 127
000023t:  Note on ::  Channel 9.  Note 42.  Velocity 0
000000t:  Note on ::  Channel 9.  Note 61.  Velocity 0
000000t:  Note on ::  Channel 9.  Note 38.  Velocity 0
000025t:  Note on ::  Channel 9.  Note 61.  Velocity 127
000001t:  Note on ::  Channel 9.  Note 42.  Velocity 127
000022t:  Note on ::  Channel 9.  Note 61.  Velocity 0
000002t:  Note on ::  Channel 9.  Note 42.  Velocity 0
000023t:  Note on ::  Channel 9.  Note 36.  Velocity 127
000000t:  Note on ::  Channel 9.  Note 61.  Velocity 127
000000t:  Note on ::  Channel 9.  Note 51.  Velocity 127
000001t:  Note on ::  Channel 9.  Note 40.  Velocity 127
000000t:  Note on ::  Channel 9.  Note 42.  Velocity 127
000022t:  Note on ::  Channel 9.  Note 61.  Velocity 0
000000t:  Note on ::  Channel 9.  Note 36.  Velocity 0
000003t:  Note on ::  Channel 9.  Note 42.  Velocity 0
000023t:  Note on ::  Channel 9.  Note 36.  Velocity 127
000000t:  Note on ::  Channel 9.  Note 61.  Velocity 127
000000t:  Note on ::  Channel 9.  Note 42.  Velocity 127
000023t:  Note on ::  Channel 9.  Note 61.  Velocity 0
000000t:  Note on ::  Channel 9.  Note 36.  Velocity 0
000001t:  Note on ::  Channel 9.  Note 42.  Velocity 0
000015t:  Note on ::  Channel 9.  Note 51.  Velocity 0
000000t:  Note on ::  Channel 9.  Note 40.  Velocity 0
000008t:  Note on ::  Channel 9.  Note 38.  Velocity 127
000000t:  Note on ::  Channel 9.  Note 61.  Velocity 127
000000t:  Note on ::  Channel 9.  Note 42.  Velocity 127
000023t:  Note on ::  Channel 9.  Note 61.  Velocity 0
000000t:  Note on ::  Channel 9.  Note 38.  Velocity 0
000003t:  Note on ::  Channel 9.  Note 42.  Velocity 0
000023t:  Note on ::  Channel 9.  Note 61.  Velocity 127
000000t:  Note on ::  Channel 9.  Note 42.  Velocity 127
000023t:  Note on ::  Channel 9.  Note 61.  Velocity 0
000001t:  Note on ::  Channel 9.  Note 42.  Velocity 0
000023t:  Note on ::  Channel 9.  Note 36.  Velocity 127
000000t:  Note on ::  Channel 9.  Note 61.  Velocity 127
000001t:  Note on ::  Channel 9.  Note 42.  Velocity 127
000022t:  Note on ::  Channel 9.  Note 61.  Velocity 0
000000t:  Note on ::  Channel 9.  Note 36.  Velocity 0
000003t:  Note on ::  Channel 9.  Note 42.  Velocity 0
000023t:  Note on ::  Channel 9.  Note 61.  Velocity 127
000000t:  Note on ::  Channel 9.  Note 42.  Velocity 127
000023t:  Note on ::  Channel 9.  Note 61.  Velocity 0
000003t:  Note on ::  Channel 9.  Note 42.  Velocity 0
000022t:  Note on ::  Channel 9.  Note 38.  Velocity 127
000000t:  Note on ::  Channel 9.  Note 61.  Velocity 127
000000t:  Note on ::  Channel 9.  Note 42.  Velocity 127
000023t:  Note on ::  Channel 9.  Note 42.  Velocity 0
000000t:  Note on ::  Channel 9.  Note 61.  Velocity 0
000000t:  Note on ::  Channel 9.  Note 38.  Velocity 0
000025t:  Note on ::  Channel 9.  Note 61.  Velocity 127
000001t:  Note on ::  Channel 9.  Note 42.  Velocity 127
000023t:  Note on ::  Channel 9.  Note 42.  Velocity 0
000000t:  Note on ::  Channel 9.  Note 61.  Velocity 0
000024t:  Note on ::  Channel 9.  Note 36.  Velocity 127
000000t:  Note on ::  Channel 9.  Note 61.  Velocity 127
000000t:  Note on ::  Channel 9.  Note 40.  Velocity 127
000001t:  Note on ::  Channel 9.  Note 51.  Velocity 127
000000t:  Note on ::  Channel 9.  Note 42.  Velocity 127
000022t:  Note on ::  Channel 9.  Note 42.  Velocity 0
000000t:  Note on ::  Channel 9.  Note 36.  Velocity 0
000000t:  Note on ::  Channel 9.  Note 61.  Velocity 0
000026t:  Note on ::  Channel 9.  Note 36.  Velocity 127
000000t:  Note on ::  Channel 9.  Note 61.  Velocity 127
000000t:  Note on ::  Channel 9.  Note 42.  Velocity 127
000021t:  Note on ::  Channel 9.  Note 42.  Velocity 0
000002t:  Note on ::  Channel 9.  Note 36.  Velocity 0
000000t:  Note on ::  Channel 9.  Note 61.  Velocity 0
000024t:  Note on ::  Channel 9.  Note 40.  Velocity 0
000001t:  Note on ::  Channel 9.  Note 38.  Velocity 127
000000t:  Note on ::  Channel 9.  Note 61.  Velocity 127
000000t:  Note on ::  Channel 9.  Note 42.  Velocity 127
000005t:  Note on ::  Channel 9.  Note 51.  Velocity 0
000017t:  Note on ::  Channel 9.  Note 38.  Velocity 0
000000t:  Note on ::  Channel 9.  Note 61.  Velocity 0
000002t:  Note on ::  Channel 9.  Note 42.  Velocity 0
000024t:  Note on ::  Channel 9.  Note 61.  Velocity 127
000000t:  Note on ::  Channel 9.  Note 42.  Velocity 127
000022t:  Note on ::  Channel 9.  Note 42.  Velocity 0
000001t:  Note on ::  Channel 9.  Note 61.  Velocity 0
000025t:  Note on ::  Channel 9.  Note 36.  Velocity 127
000000t:  Note on ::  Channel 9.  Note 61.  Velocity 127
000000t:  Note on ::  Channel 9.  Note 42.  Velocity 127
000019t:  Note on ::  Channel 9.  Note 42.  Velocity 0
000004t:  Note on ::  Channel 9.  Note 61.  Velocity 0
000000t:  Note on ::  Channel 9.  Note 36.  Velocity 0
000025t:  Note on ::  Channel 9.  Note 61.  Velocity 127
000000t:  Note on ::  Channel 9.  Note 42.  Velocity 127
000017t:  Note on ::  Channel 9.  Note 42.  Velocity 0
000006t:  Note on ::  Channel 9.  Note 61.  Velocity 0
000025t:  Note on ::  Channel 9.  Note 38.  Velocity 127
000000t:  Note on ::  Channel 9.  Note 61.  Velocity 127
000000t:  Note on ::  Channel 9.  Note 42.  Velocity 127
000020t:  Note on ::  Channel 9.  Note 42.  Velocity 0
000003t:  Note on ::  Channel 9.  Note 61.  Velocity 0
000000t:  Note on ::  Channel 9.  Note 38.  Velocity 0
000026t:  Note on ::  Channel 9.  Note 61.  Velocity 127
000000t:  Note on ::  Channel 9.  Note 42.  Velocity 127
000013t:  Note on ::  Channel 9.  Note 42.  Velocity 0
000010t:  Note on ::  Channel 9.  Note 61.  Velocity 0
000024t:  Note on ::  Channel 9.  Note 36.  Velocity 127
000000t:  Note on ::  Channel 9.  Note 61.  Velocity 127
000001t:  Note on ::  Channel 9.  Note 51.  Velocity 127
000000t:  Note on ::  Channel 9.  Note 40.  Velocity 127
000000t:  Note on ::  Channel 9.  Note 42.  Velocity 127
000021t:  Note on ::  Channel 9.  Note 42.  Velocity 0
000001t:  Note on ::  Channel 9.  Note 36.  Velocity 0
000000t:  Note on ::  Channel 9.  Note 61.  Velocity 0
000026t:  Note on ::  Channel 9.  Note 36.  Velocity 127
000000t:  Note on ::  Channel 9.  Note 61.  Velocity 127
000000t:  Note on ::  Channel 9.  Note 42.  Velocity 127
000023t:  Note on ::  Channel 9.  Note 42.  Velocity 0
000000t:  Note on ::  Channel 9.  Note 36.  Velocity 0
000000t:  Note on ::  Channel 9.  Note 61.  Velocity 0
000016t:  Note on ::  Channel 9.  Note 51.  Velocity 0
000000t:  Note on ::  Channel 9.  Note 40.  Velocity 0
000008t:  Note on ::  Channel 9.  Note 38.  Velocity 127
000000t:  Note on ::  Channel 9.  Note 61.  Velocity 127
000001t:  Note on ::  Channel 9.  Note 42.  Velocity 127
000023t:  Note on ::  Channel 9.  Note 42.  Velocity 0
000000t:  Note on ::  Channel 9.  Note 61.  Velocity 0
000000t:  Note on ::  Channel 9.  Note 38.  Velocity 0
000025t:  Note on ::  Channel 9.  Note 38.  Velocity 127
000000t:  Note on ::  Channel 9.  Note 61.  Velocity 127
000001t:  Note on ::  Channel 9.  Note 42.  Velocity 127
000022t:  Note on ::  Channel 9.  Note 38.  Velocity 0
000001t:  Note on ::  Channel 9.  Note 61.  Velocity 0
000001t:  Note on ::  Channel 9.  Note 42.  Velocity 0
000023t:  Note on ::  Channel 9.  Note 36.  Velocity 127
000000t:  Note on ::  Channel 9.  Note 61.  Velocity 127
000000t:  Note on ::  Channel 9.  Note 42.  Velocity 127
000023t:  Note on ::  Channel 9.  Note 61.  Velocity 0
000000t:  Note on ::  Channel 9.  Note 36.  Velocity 0
000002t:  Note on ::  Channel 9.  Note 42.  Velocity 0
000024t:  Note on ::  Channel 9.  Note 61.  Velocity 127
000000t:  Note on ::  Channel 9.  Note 42.  Velocity 127
000020t:  Note on ::  Channel 9.  Note 42.  Velocity 0
000003t:  Note on ::  Channel 9.  Note 61.  Velocity 0
000024t:  Note on ::  Channel 9.  Note 38.  Velocity 127
000000t:  Note on ::  Channel 9.  Note 61.  Velocity 127
000001t:  Note on ::  Channel 9.  Note 42.  Velocity 127
000022t:  Note on ::  Channel 9.  Note 42.  Velocity 0
000000t:  Note on ::  Channel 9.  Note 61.  Velocity 0
000000t:  Note on ::  Channel 9.  Note 38.  Velocity 0
000026t:  Note on ::  Channel 9.  Note 61.  Velocity 127
000000t:  Note on ::  Channel 9.  Note 42.  Velocity 127
000023t:  Note on ::  Channel 9.  Note 42.  Velocity 0
000000t:  Note on ::  Channel 9.  Note 61.  Velocity 0
000024t:  Note on ::  Channel 9.  Note 36.  Velocity 127
000000t:  Note on ::  Channel 9.  Note 61.  Velocity 127
000001t:  Note on ::  Channel 9.  Note 40.  Velocity 127
000000t:  Note on ::  Channel 9.  Note 51.  Velocity 127
000000t:  Note on ::  Channel 9.  Note 42.  Velocity 127
000022t:  Note on ::  Channel 9.  Note 42.  Velocity 0
000000t:  Note on ::  Channel 9.  Note 36.  Velocity 0
000001t:  Note on ::  Channel 9.  Note 61.  Velocity 0
000025t:  Note on ::  Channel 9.  Note 36.  Velocity 127
000000t:  Note on ::  Channel 9.  Note 61.  Velocity 127
000001t:  Note on ::  Channel 9.  Note 42.  Velocity 127
000022t:  Note on ::  Channel 9.  Note 61.  Velocity 0
000000t:  Note on ::  Channel 9.  Note 36.  Velocity 0
000002t:  Note on ::  Channel 9.  Note 42.  Velocity 0
000023t:  Note on ::  Channel 9.  Note 40.  Velocity 0
000000t:  Note on ::  Channel 9.  Note 38.  Velocity 127
000000t:  Note on ::  Channel 9.  Note 61.  Velocity 127
000000t:  Note on ::  Channel 9.  Note 42.  Velocity 127
000005t:  Note on ::  Channel 9.  Note 51.  Velocity 0
000018t:  Note on ::  Channel 9.  Note 38.  Velocity 0
000000t:  Note on ::  Channel 9.  Note 61.  Velocity 0
000002t:  Note on ::  Channel 9.  Note 42.  Velocity 0
000023t:  Note on ::  Channel 9.  Note 61.  Velocity 127
000000t:  Note on ::  Channel 9.  Note 42.  Velocity 127
000024t:  Note on ::  Channel 9.  Note 61.  Velocity 0
000001t:  Note on ::  Channel 9.  Note 42.  Velocity 0
000023t:  Note on ::  Channel 9.  Note 36.  Velocity 127
000000t:  Note on ::  Channel 9.  Note 61.  Velocity 127
000000t:  Note on ::  Channel 9.  Note 42.  Velocity 127
000023t:  Note on ::  Channel 9.  Note 61.  Velocity 0
000000t:  Note on ::  Channel 9.  Note 36.  Velocity 0
000005t:  Note on ::  Channel 9.  Note 42.  Velocity 0
000021t:  Note on ::  Channel 9.  Note 61.  Velocity 127
000000t:  Note on ::  Channel 9.  Note 42.  Velocity 127
000021t:  Note on ::  Channel 9.  Note 42.  Velocity 0
000002t:  Note on ::  Channel 9.  Note 61.  Velocity 0
000024t:  Note on ::  Channel 9.  Note 38.  Velocity 127
000000t:  Note on ::  Channel 9.  Note 61.  Velocity 127
000001t:  Note on ::  Channel 9.  Note 42.  Velocity 127
000022t:  Note on ::  Channel 9.  Note 42.  Velocity 0
000000t:  Note on ::  Channel 9.  Note 61.  Velocity 0
000000t:  Note on ::  Channel 9.  Note 38.  Velocity 0
000026t:  Note on ::  Channel 9.  Note 61.  Velocity 127
000000t:  Note on ::  Channel 9.  Note 42.  Velocity 127
000023t:  Note on ::  Channel 9.  Note 61.  Velocity 0
000001t:  Note on ::  Channel 9.  Note 42.  Velocity 0
000023t:  Note on ::  Channel 9.  Note 36.  Velocity 127
000001t:  Note on ::  Channel 9.  Note 61.  Velocity 127
000000t:  Note on ::  Channel 9.  Note 51.  Velocity 127
000000t:  Note on ::  Channel 9.  Note 40.  Velocity 127
000000t:  Note on ::  Channel 9.  Note 42.  Velocity 127
000023t:  Note on ::  Channel 9.  Note 61.  Velocity 0
000000t:  Note on ::  Channel 9.  Note 36.  Velocity 0
000002t:  Note on ::  Channel 9.  Note 42.  Velocity 0
000023t:  Note on ::  Channel 9.  Note 36.  Velocity 127
000001t:  Note on ::  Channel 9.  Note 61.  Velocity 127
000000t:  Note on ::  Channel 9.  Note 42.  Velocity 127
000022t:  Note on ::  Channel 9.  Note 61.  Velocity 0
000000t:  Note on ::  Channel 9.  Note 36.  Velocity 0
000002t:  Note on ::  Channel 9.  Note 42.  Velocity 0
000015t:  Note on ::  Channel 9.  Note 51.  Velocity 0
000001t:  Note on ::  Channel 9.  Note 40.  Velocity 0
000007t:  Note on ::  Channel 9.  Note 38.  Velocity 127
000000t:  Note on ::  Channel 9.  Note 61.  Velocity 127
000000t:  Note on ::  Channel 9.  Note 42.  Velocity 127
000023t:  Note on ::  Channel 9.  Note 61.  Velocity 0
000000t:  Note on ::  Channel 9.  Note 38.  Velocity 0
000003t:  Note on ::  Channel 9.  Note 42.  Velocity 0
000023t:  Note on ::  Channel 9.  Note 61.  Velocity 127
000000t:  Note on ::  Channel 9.  Note 42.  Velocity 127
000023t:  Note on ::  Channel 9.  Note 61.  Velocity 0
000001t:  Note on ::  Channel 9.  Note 42.  Velocity 0
000023t:  Note on ::  Channel 9.  Note 36.  Velocity 127
000000t:  Note on ::  Channel 9.  Note 61.  Velocity 127
000001t:  Note on ::  Channel 9.  Note 42.  Velocity 127
000022t:  Note on ::  Channel 9.  Note 61.  Velocity 0
000000t:  Note on ::  Channel 9.  Note 36.  Velocity 0
000003t:  Note on ::  Channel 9.  Note 42.  Velocity 0
000023t:  Note on ::  Channel 9.  Note 61.  Velocity 127
000000t:  Note on ::  Channel 9.  Note 42.  Velocity 127
000023t:  Note on ::  Channel 9.  Note 61.  Velocity 0
000003t:  Note on ::  Channel 9.  Note 42.  Velocity 0
000021t:  Note on ::  Channel 9.  Note 38.  Velocity 127
000000t:  Note on ::  Channel 9.  Note 61.  Velocity 127
000001t:  Note on ::  Channel 9.  Note 42.  Velocity 127
000022t:  Note on ::  Channel 9.  Note 42.  Velocity 0
000000t:  Note on ::  Channel 9.  Note 38.  Velocity 0
000001t:  Note on ::  Channel 9.  Note 61.  Velocity 0
000025t:  Note on ::  Channel 9.  Note 61.  Velocity 127
000000t:  Note on ::  Channel 9.  Note 42.  Velocity 127
000023t:  Note on ::  Channel 9.  Note 42.  Velocity 0
000000t:  Note on ::  Channel 9.  Note 61.  Velocity 0
000025t:  Note on ::  Channel 9.  Note 36.  Velocity 127
000000t:  Note on ::  Channel 9.  Note 61.  Velocity 127
000000t:  Note on ::  Channel 9.  Note 40.  Velocity 127
000000t:  Note on ::  Channel 9.  Note 51.  Velocity 127
000001t:  Note on ::  Channel 9.  Note 42.  Velocity 127
000022t:  Note on ::  Channel 9.  Note 42.  Velocity 0
000000t:  Note on ::  Channel 9.  Note 36.  Velocity 0
000000t:  Note on ::  Channel 9.  Note 61.  Velocity 0
000026t:  Note on ::  Channel 9.  Note 36.  Velocity 127
000000t:  Note on ::  Channel 9.  Note 61.  Velocity 127
000000t:  Note on ::  Channel 9.  Note 42.  Velocity 127
000021t:  Note on ::  Channel 9.  Note 42.  Velocity 0
000002t:  Note on ::  Channel 9.  Note 36.  Velocity 0
000000t:  Note on ::  Channel 9.  Note 61.  Velocity 0
000024t:  Note on ::  Channel 9.  Note 40.  Velocity 0
000000t:  Note on ::  Channel 9.  Note 38.  Velocity 127
000000t:  Note on ::  Channel 9.  Note 61.  Velocity 127
000001t:  Note on ::  Channel 9.  Note 42.  Velocity 127
000004t:  Note on ::  Channel 9.  Note 51.  Velocity 0
000018t:  Note on ::  Channel 9.  Note 38.  Velocity 0
000000t:  Note on ::  Channel 9.  Note 61.  Velocity 0
000001t:  Note on ::  Channel 9.  Note 42.  Velocity 0
000025t:  Note on ::  Channel 9.  Note 61.  Velocity 127
000000t:  Note on ::  Channel 9.  Note 42.  Velocity 127
000022t:  Note on ::  Channel 9.  Note 42.  Velocity 0
000001t:  Note on ::  Channel 9.  Note 61.  Velocity 0
000024t:  Note on ::  Channel 9.  Note 36.  Velocity 127
000000t:  Note on ::  Channel 9.  Note 61.  Velocity 127
000001t:  Note on ::  Channel 9.  Note 42.  Velocity 127
000018t:  Note on ::  Channel 9.  Note 42.  Velocity 0
000004t:  Note on ::  Channel 9.  Note 61.  Velocity 0
000000t:  Note on ::  Channel 9.  Note 36.  Velocity 0
000026t:  Note on ::  Channel 9.  Note 61.  Velocity 127
000000t:  Note on ::  Channel 9.  Note 42.  Velocity 127
000018t:  Note on ::  Channel 9.  Note 42.  Velocity 0
000005t:  Note on ::  Channel 9.  Note 61.  Velocity 0
000025t:  Note on ::  Channel 9.  Note 38.  Velocity 127
000000t:  Note on ::  Channel 9.  Note 61.  Velocity 127
000000t:  Note on ::  Channel 9.  Note 42.  Velocity 127
000020t:  Note on ::  Channel 9.  Note 42.  Velocity 0
000003t:  Note on ::  Channel 9.  Note 61.  Velocity 0
000000t:  Note on ::  Channel 9.  Note 38.  Velocity 0
000025t:  Note on ::  Channel 9.  Note 61.  Velocity 127
000000t:  Note on ::  Channel 9.  Note 42.  Velocity 127
000014t:  Note on ::  Channel 9.  Note 42.  Velocity 0
000009t:  Note on ::  Channel 9.  Note 61.  Velocity 0
000025t:  Note on ::  Channel 9.  Note 36.  Velocity 127
000000t:  Note on ::  Channel 9.  Note 61.  Velocity 127
000000t:  Note on ::  Channel 9.  Note 51.  Velocity 127
000001t:  Note on ::  Channel 9.  Note 40.  Velocity 127
000000t:  Note on ::  Channel 9.  Note 42.  Velocity 127
000021t:  Note on ::  Channel 9.  Note 42.  Velocity 0
000001t:  Note on ::  Channel 9.  Note 36.  Velocity 0
000000t:  Note on ::  Channel 9.  Note 61.  Velocity 0
000026t:  Note on ::  Channel 9.  Note 36.  Velocity 127
000000t:  Note on ::  Channel 9.  Note 61.  Velocity 127
000000t:  Note on ::  Channel 9.  Note 42.  Velocity 127
000023t:  Note on ::  Channel 9.  Note 42.  Velocity 0
000000t:  Note on ::  Channel 9.  Note 36.  Velocity 0
000000t:  Note on ::  Channel 9.  Note 61.  Velocity 0
000016t:  Note on ::  Channel 9.  Note 51.  Velocity 0
000002t:  Note on ::  Channel 9.  Note 40.  Velocity 0
000006t:  Note on ::  Channel 9.  Note 38.  Velocity 127
000000t:  Note on ::  Channel 9.  Note 61.  Velocity 127
000001t:  Note on ::  Channel 9.  Note 42.  Velocity 127
000022t:  Note on ::  Channel 9.  Note 42.  Velocity 0
000000t:  Note on ::  Channel 9.  Note 38.  Velocity 0
000001t:  Note on ::  Channel 9.  Note 61.  Velocity 0
000025t:  Note on ::  Channel 9.  Note 61.  Velocity 127
000000t:  Note on ::  Channel 9.  Note 42.  Velocity 127
000023t:  Note on ::  Channel 9.  Note 61.  Velocity 0
000001t:  Note on ::  Channel 9.  Note 42.  Velocity 0
000023t:  Note on ::  Channel 9.  Note 36.  Velocity 127
000000t:  Note on ::  Channel 9.  Note 61.  Velocity 127
000001t:  Note on ::  Channel 9.  Note 42.  Velocity 127
000023t:  Note on ::  Channel 9.  Note 61.  Velocity 0
000000t:  Note on ::  Channel 9.  Note 36.  Velocity 0
000003t:  Note on ::  Channel 9.  Note 42.  Velocity 0
000022t:  Note on ::  Channel 9.  Note 61.  Velocity 127
000001t:  Note on ::  Channel 9.  Note 42.  Velocity 127
000022t:  Note on ::  Channel 9.  Note 42.  Velocity 0
000000t:  Note on ::  Channel 9.  Note 61.  Velocity 0
000025t:  Note on ::  Channel 9.  Note 38.  Velocity 127
000000t:  Note on ::  Channel 9.  Note 61.  Velocity 127
000000t:  Note on ::  Channel 9.  Note 42.  Velocity 127
000023t:  Note on ::  Channel 9.  Note 42.  Velocity 0
000000t:  Note on ::  Channel 9.  Note 61.  Velocity 0
000000t:  Note on ::  Channel 9.  Note 38.  Velocity 0
000026t:  Note on ::  Channel 9.  Note 61.  Velocity 127
000000t:  Note on ::  Channel 9.  Note 42.  Velocity 127
000020t:  Note on ::  Channel 9.  Note 42.  Velocity 0
000003t:  Note on ::  Channel 9.  Note 61.  Velocity 0
000024t:  Note on ::  Channel 9.  Note 36.  Velocity 127
000000t:  Note on ::  Channel 9.  Note 61.  Velocity 127
000000t:  Note on ::  Channel 9.  Note 40.  Velocity 127
000001t:  Note on ::  Channel 9.  Note 51.  Velocity 127
000000t:  Note on ::  Channel 9.  Note 42.  Velocity 127
000018t:  Note on ::  Channel 9.  Note 42.  Velocity 0
000004t:  Note on ::  Channel 9.  Note 36.  Velocity 0
000000t:  Note on ::  Channel 9.  Note 61.  Velocity 0
000026t:  Note on ::  Channel 9.  Note 36.  Velocity 127
000000t:  Note on ::  Channel 9.  Note 61.  Velocity 127
000000t:  Note on ::  Channel 9.  Note 42.  Velocity 127
000022t:  Note on ::  Channel 9.  Note 42.  Velocity 0
000001t:  Note on ::  Channel 9.  Note 36.  Velocity 0
000000t:  Note on ::  Channel 9.  Note 61.  Velocity 0
000024t:  Note on ::  Channel 9.  Note 40.  Velocity 0
000001t:  Note on ::  Channel 9.  Note 38.  Velocity 127
000000t:  Note on ::  Channel 9.  Note 61.  Velocity 127
000000t:  Note on ::  Channel 9.  Note 42.  Velocity 127
000005t:  Note on ::  Channel 9.  Note 51.  Velocity 0
000017t:  Note on ::  Channel 9.  Note 38.  Velocity 0
000000t:  Note on ::  Channel 9.  Note 61.  Velocity 0
000003t:  Note on ::  Channel 9.  Note 42.  Velocity 0
000023t:  Note on ::  Channel 9.  Note 61.  Velocity 127
000000t:  Note on ::  Channel 9.  Note 42.  Velocity 127
000023t:  Note on ::  Channel 9.  Note 42.  Velocity 0
000000t:  Note on ::  Channel 9.  Note 61.  Velocity 0
000025t:  Note on ::  Channel 9.  Note 36.  Velocity 127
000000t:  Note on ::  Channel 9.  Note 61.  Velocity 127
000000t:  Note on ::  Channel 9.  Note 42.  Velocity 127
000023t:  Note on ::  Channel 9.  Note 42.  Velocity 0
000000t:  Note on ::  Channel 9.  Note 61.  Velocity 0
000000t:  Note on ::  Channel 9.  Note 36.  Velocity 0
000026t:  Note on ::  Channel 9.  Note 61.  Velocity 127
000000t:  Note on ::  Channel 9.  Note 42.  Velocity 127
000018t:  Note on ::  Channel 9.  Note 42.  Velocity 0
000004t:  Note on ::  Channel 9.  Note 61.  Velocity 0
000025t:  Note on ::  Channel 9.  Note 38.  Velocity 127
000000t:  Note on ::  Channel 9.  Note 61.  Velocity 127
000000t:  Note on ::  Channel 9.  Note 42.  Velocity 127
000020t:  Note on ::  Channel 9.  Note 42.  Velocity 0
000003t:  Note on ::  Channel 9.  Note 61.  Velocity 0
000000t:  Note on ::  Channel 9.  Note 38.  Velocity 0
000026t:  Note on ::  Channel 9.  Note 61.  Velocity 127
000000t:  Note on ::  Channel 9.  Note 42.  Velocity 127
000019t:  Note on ::  Channel 9.  Note 42.  Velocity 0
000004t:  Note on ::  Channel 9.  Note 61.  Velocity 0
000024t:  Note on ::  Channel 9.  Note 36.  Velocity 127
000000t:  Note on ::  Channel 9.  Note 61.  Velocity 127
000001t:  Note on ::  Channel 9.  Note 51.  Velocity 127
000000t:  Note on ::  Channel 9.  Note 40.  Velocity 127
000000t:  Note on ::  Channel 9.  Note 42.  Velocity 127
000020t:  Note on ::  Channel 9.  Note 42.  Velocity 0
000002t:  Note on ::  Channel 9.  Note 36.  Velocity 0
000000t:  Note on ::  Channel 9.  Note 61.  Velocity 0
000026t:  Note on ::  Channel 9.  Note 36.  Velocity 127
000000t:  Note on ::  Channel 9.  Note 61.  Velocity 127
000001t:  Note on ::  Channel 9.  Note 42.  Velocity 127
000019t:  Note on ::  Channel 9.  Note 42.  Velocity 0
000003t:  Note on ::  Channel 9.  Note 36.  Velocity 0
000000t:  Note on ::  Channel 9.  Note 61.  Velocity 0
000016t:  Note on ::  Channel 9.  Note 51.  Velocity 0
000002t:  Note on ::  Channel 9.  Note 40.  Velocity 0
000007t:  Note on ::  Channel 9.  Note 38.  Velocity 127
000000t:  Note on ::  Channel 9.  Note 61.  Velocity 127
000000t:  Note on ::  Channel 9.  Note 42.  Velocity 127
000023t:  Note on ::  Channel 9.  Note 61.  Velocity 0
000000t:  Note on ::  Channel 9.  Note 38.  Velocity 0
000002t:  Note on ::  Channel 9.  Note 42.  Velocity 0
000023t:  Note on ::  Channel 9.  Note 61.  Velocity 127
000001t:  Note on ::  Channel 9.  Note 42.  Velocity 127
000022t:  Note on ::  Channel 9.  Note 61.  Velocity 0
000004t:  Note on ::  Channel 9.  Note 42.  Velocity 0
000021t:  Note on ::  Channel 9.  Note 36.  Velocity 127
000000t:  Note on ::  Channel 9.  Note 61.  Velocity 127
000000t:  Note on ::  Channel 9.  Note 42.  Velocity 127
000023t:  Note on ::  Channel 9.  Note 61.  Velocity 0
000000t:  Note on ::  Channel 9.  Note 36.  Velocity 0
000012t:  Note on ::  Channel 9.  Note 42.  Velocity 0
000014t:  Note on ::  Channel 9.  Note 61.  Velocity 127
000000t:  Note on ::  Channel 9.  Note 42.  Velocity 127
000023t:  Note on ::  Channel 9.  Note 61.  Velocity 0
000001t:  Note on ::  Channel 9.  Note 42.  Velocity 0
000023t:  Note on ::  Channel 9.  Note 38.  Velocity 127
000000t:  Note on ::  Channel 9.  Note 61.  Velocity 127
000001t:  Note on ::  Channel 9.  Note 42.  Velocity 127
000019t:  Note on ::  Channel 9.  Note 42.  Velocity 0
000003t:  Note on ::  Channel 9.  Note 61.  Velocity 0
000000t:  Note on ::  Channel 9.  Note 38.  Velocity 0
000026t:  Note on ::  Channel 9.  Note 61.  Velocity 127
000000t:  Note on ::  Channel 9.  Note 42.  Velocity 127
000020t:  Note on ::  Channel 9.  Note 42.  Velocity 0
000003t:  Note on ::  Channel 9.  Note 61.  Velocity 0
000024t:  Note on ::  Channel 9.  Note 36.  Velocity 127
000000t:  Note on ::  Channel 9.  Note 61.  Velocity 127
000001t:  Note on ::  Channel 9.  Note 40.  Velocity 127
000000t:  Note on ::  Channel 9.  Note 51.  Velocity 127
000000t:  Note on ::  Channel 9.  Note 42.  Velocity 127
000021t:  Note on ::  Channel 9.  Note 42.  Velocity 0
000001t:  Note on ::  Channel 9.  Note 36.  Velocity 0
000000t:  Note on ::  Channel 9.  Note 61.  Velocity 0
000026t:  Note on ::  Channel 9.  Note 36.  Velocity 127
000000t:  Note on ::  Channel 9.  Note 61.  Velocity 127
000001t:  Note on ::  Channel 9.  Note 42.  Velocity 127
000020t:  Note on ::  Channel 9.  Note 42.  Velocity 0
000002t:  Note on ::  Channel 9.  Note 36.  Velocity 0
000000t:  Note on ::  Channel 9.  Note 61.  Velocity 0
000025t:  Note on ::  Channel 9.  Note 40.  Velocity 0
000000t:  Note on ::  Channel 9.  Note 38.  Velocity 127
000000t:  Note on ::  Channel 9.  Note 61.  Velocity 127
000000t:  Note on ::  Channel 9.  Note 42.  Velocity 127
000005t:  Note on ::  Channel 9.  Note 51.  Velocity 0
000018t:  Note on ::  Channel 9.  Note 38.  Velocity 0
000000t:  Note on ::  Channel 9.  Note 61.  Velocity 0
000000t:  Note on ::  Channel 9.  Note 42.  Velocity 0
000026t:  Note on ::  Channel 9.  Note 61.  Velocity 127
000000t:  Note on ::  Channel 9.  Note 42.  Velocity 127
000023t:  Note on ::  Channel 9.  Note 42.  Velocity 0
000000t:  Note on ::  Channel 9.  Note 61.  Velocity 0
000024t:  Note on ::  Channel 9.  Note 36.  Velocity 127
000000t:  Note on ::  Channel 9.  Note 61.  Velocity 127
000000t:  Note on ::  Channel 9.  Note 42.  Velocity 127
000023t:  Note on ::  Channel 9.  Note 61.  Velocity 0
000000t:  Note on ::  Channel 9.  Note 36.  Velocity 0
000008t:  Note on ::  Channel 9.  Note 42.  Velocity 0
000018t:  Note on ::  Channel 9.  Note 61.  Velocity 127
000000t:  Note on ::  Channel 9.  Note 42.  Velocity 127
000023t:  Note on ::  Channel 9.  Note 42.  Velocity 0
000000t:  Note on ::  Channel 9.  Note 61.  Velocity 0
000024t:  Note on ::  Channel 9.  Note 38.  Velocity 127
000000t:  Note on ::  Channel 9.  Note 61.  Velocity 127
000001t:  Note on ::  Channel 9.  Note 42.  Velocity 127
000021t:  Note on ::  Channel 9.  Note 42.  Velocity 0
000001t:  Note on ::  Channel 9.  Note 61.  Velocity 0
000000t:  Note on ::  Channel 9.  Note 38.  Velocity 0
000026t:  Note on ::  Channel 9.  Note 61.  Velocity 127
000000t:  Note on ::  Channel 9.  Note 42.  Velocity 127
000023t:  Note on ::  Channel 9.  Note 42.  Velocity 0
000000t:  Note on ::  Channel 9.  Note 61.  Velocity 0
000025t:  Note on ::  Channel 9.  Note 36.  Velocity 127
000000t:  Note on ::  Channel 9.  Note 61.  Velocity 127
000000t:  Note on ::  Channel 9.  Note 51.  Velocity 127
000000t:  Note on ::  Channel 9.  Note 40.  Velocity 127
000000t:  Note on ::  Channel 9.  Note 42.  Velocity 127
000023t:  Note on ::  Channel 9.  Note 42.  Velocity 0
000000t:  Note on ::  Channel 9.  Note 36.  Velocity 0
000000t:  Note on ::  Channel 9.  Note 61.  Velocity 0
000025t:  Note on ::  Channel 9.  Note 36.  Velocity 127
000000t:  Note on ::  Channel 9.  Note 61.  Velocity 127
000001t:  Note on ::  Channel 9.  Note 42.  Velocity 127
000022t:  Note on ::  Channel 9.  Note 61.  Velocity 0
000000t:  Note on ::  Channel 9.  Note 36.  Velocity 0
000002t:  Note on ::  Channel 9.  Note 42.  Velocity 0
000015t:  Note on ::  Channel 9.  Note 51.  Velocity 0
000001t:  Note on ::  Channel 9.  Note 40.  Velocity 0
000007t:  Note on ::  Channel 9.  Note 38.  Velocity 127
000000t:  Note on ::  Channel 9.  Note 61.  Velocity 127
000000t:  Note on ::  Channel 9.  Note 42.  Velocity 127
000022t:  Note on ::  Channel 9.  Note 42.  Velocity 0
000001t:  Note on ::  Channel 9.  Note 61.  Velocity 0
000000t:  Note on ::  Channel 9.  Note 38.  Velocity 0
000026t:  Note on ::  Channel 9.  Note 61.  Velocity 127
000000t:  Note on ::  Channel 9.  Note 42.  Velocity 127
000021t:  Note on ::  Channel 9.  Note 42.  Velocity 0
000002t:  Note on ::  Channel 9.  Note 61.  Velocity 0
000024t:  Note on ::  Channel 9.  Note 36.  Velocity 127
000000t:  Note on ::  Channel 9.  Note 61.  Velocity 127
000001t:  Note on ::  Channel 9.  Note 42.  Velocity 127
000000t:  Note on ::  Channel 9.  Note 49.  Velocity 127
000007t:  Control change ::  Channel 9.  Controller 66.  Value: 0
000004t:  Control change ::  Channel 9.  Controller 66.  Value: 0
000004t:  Control change ::  Channel 9.  Controller 66.  Value: 0
000007t:  Note on ::  Channel 9.  Note 61.  Velocity 0
000000t:  Note on ::  Channel 9.  Note 36.  Velocity 0
000003t:  Note on ::  Channel 9.  Note 42.  Velocity 0
000023t:  Note on ::  Channel 9.  Note 61.  Velocity 127
000000t:  Note on ::  Channel 9.  Note 42.  Velocity 127
000020t:  Note on ::  Channel 9.  Note 42.  Velocity 0
000003t:  Note on ::  Channel 9.  Note 61.  Velocity 0
000024t:  Note on ::  Channel 9.  Note 38.  Velocity 127
000001t:  Note on ::  Channel 9.  Note 61.  Velocity 127
000000t:  Note on ::  Channel 9.  Note 42.  Velocity 127
000023t:  Note on ::  Channel 9.  Note 42.  Velocity 0
000000t:  Note on ::  Channel 9.  Note 61.  Velocity 0
000000t:  Note on ::  Channel 9.  Note 38.  Velocity 0
000025t:  Note on ::  Channel 9.  Note 61.  Velocity 127
000000t:  Note on ::  Channel 9.  Note 42.  Velocity 127
000023t:  Note on ::  Channel 9.  Note 42.  Velocity 0
000000t:  Note on ::  Channel 9.  Note 61.  Velocity 0
000025t:  Note on ::  Channel 9.  Note 36.  Velocity 127
000000t:  Note on ::  Channel 9.  Note 61.  Velocity 127
000000t:  Note on ::  Channel 9.  Note 40.  Velocity 127
000001t:  Note on ::  Channel 9.  Note 51.  Velocity 127
000000t:  Note on ::  Channel 9.  Note 42.  Velocity 127
000022t:  Note on ::  Channel 9.  Note 42.  Velocity 0
000000t:  Note on ::  Channel 9.  Note 36.  Velocity 0
000000t:  Note on ::  Channel 9.  Note 61.  Velocity 0
000026t:  Note on ::  Channel 9.  Note 36.  Velocity 127
000000t:  Note on ::  Channel 9.  Note 61.  Velocity 127
000000t:  Note on ::  Channel 9.  Note 42.  Velocity 127
000023t:  Note on ::  Channel 9.  Note 61.  Velocity 0
000000t:  Note on ::  Channel 9.  Note 36.  Velocity 0
000001t:  Note on ::  Channel 9.  Note 42.  Velocity 0
000023t:  Note on ::  Channel 9.  Note 40.  Velocity 0
000000t:  Note on ::  Channel 9.  Note 38.  Velocity 127
000001t:  Note on ::  Channel 9.  Note 61.  Velocity 127
000000t:  Note on ::  Channel 9.  Note 42.  Velocity 127
000005t:  Note on ::  Channel 9.  Note 51.  Velocity 0
000017t:  Note on ::  Channel 9.  Note 61.  Velocity 0
000000t:  Note on ::  Channel 9.  Note 38.  Velocity 0
000003t:  Note on ::  Channel 9.  Note 42.  Velocity 0
000023t:  Note on ::  Channel 9.  Note 61.  Velocity 127
000000t:  Note on ::  Channel 9.  Note 42.  Velocity 127
000001t:  Note on ::  Channel 9.  Note 49.  Velocity 0
000022t:  Note on ::  Channel 9.  Note 61.  Velocity 0
000001t:  Note on ::  Channel 9.  Note 42.  Velocity 0
000023t:  Note on ::  Channel 9.  Note 36.  Velocity 127
000001t:  Note on ::  Channel 9.  Note 61.  Velocity 127
000000t:  Note on ::  Channel 9.  Note 42.  Velocity 127
000022t:  Note on ::  Channel 9.  Note 61.  Velocity 0
000000t:  Note on ::  Channel 9.  Note 36.  Velocity 0
000006t:  Note on ::  Channel 9.  Note 42.  Velocity 0
000020t:  Note on ::  Channel 9.  Note 61.  Velocity 127
000000t:  Note on ::  Channel 9.  Note 42.  Velocity 127
000022t:  Note on ::  Channel 9.  Note 42.  Velocity 0
000001t:  Note on ::  Channel 9.  Note 61.  Velocity 0
000025t:  Note on ::  Channel 9.  Note 38.  Velocity 127
000000t:  Note on ::  Channel 9.  Note 61.  Velocity 127
000000t:  Note on ::  Channel 9.  Note 42.  Velocity 127
000023t:  Note on ::  Channel 9.  Note 42.  Velocity 0
000000t:  Note on ::  Channel 9.  Note 61.  Velocity 0
000000t:  Note on ::  Channel 9.  Note 38.  Velocity 0
000026t:  Note on ::  Channel 9.  Note 61.  Velocity 127
000000t:  Note on ::  Channel 9.  Note 42.  Velocity 127
000023t:  Note on ::  Channel 9.  Note 61.  Velocity 0
000001t:  Note on ::  Channel 9.  Note 42.  Velocity 0
000023t:  Note on ::  Channel 9.  Note 36.  Velocity 127
000000t:  Note on ::  Channel 9.  Note 61.  Velocity 127
000000t:  Note on ::  Channel 9.  Note 51.  Velocity 127
000001t:  Note on ::  Channel 9.  Note 40.  Velocity 127
000000t:  Note on ::  Channel 9.  Note 42.  Velocity 127
000022t:  Note on ::  Channel 9.  Note 61.  Velocity 0
000000t:  Note on ::  Channel 9.  Note 36.  Velocity 0
000003t:  Note on ::  Channel 9.  Note 42.  Velocity 0
000023t:  Note on ::  Channel 9.  Note 36.  Velocity 127
000000t:  Note on ::  Channel 9.  Note 61.  Velocity 127
000000t:  Note on ::  Channel 9.  Note 42.  Velocity 127
000023t:  Note on ::  Channel 9.  Note 61.  Velocity 0
000000t:  Note on ::  Channel 9.  Note 36.  Velocity 0
000001t:  Note on ::  Channel 9.  Note 42.  Velocity 0
000015t:  Note on ::  Channel 9.  Note 51.  Velocity 0
000001t:  Note on ::  Channel 9.  Note 40.  Velocity 0
000007t:  Note on ::  Channel 9.  Note 38.  Velocity 127
000000t:  Note on ::  Channel 9.  Note 61.  Velocity 127
000001t:  Note on ::  Channel 9.  Note 42.  Velocity 127
000022t:  Note on ::  Channel 9.  Note 61.  Velocity 0
000000t:  Note on ::  Channel 9.  Note 38.  Velocity 0
000003t:  Note on ::  Channel 9.  Note 42.  Velocity 0
000023t:  Note on ::  Channel 9.  Note 61.  Velocity 127
000000t:  Note on ::  Channel 9.  Note 42.  Velocity 127
000023t:  Note on ::  Channel 9.  Note 61.  Velocity 0
000001t:  Note on ::  Channel 9.  Note 42.  Velocity 0
000024t:  Note on ::  Channel 9.  Note 36.  Velocity 127
000000t:  Note on ::  Channel 9.  Note 61.  Velocity 127
000000t:  Note on ::  Channel 9.  Note 42.  Velocity 127
000023t:  Note on ::  Channel 9.  Note 61.  Velocity 0
000000t:  Note on ::  Channel 9.  Note 36.  Velocity 0
000002t:  Note on ::  Channel 9.  Note 42.  Velocity 0
000023t:  Note on ::  Channel 9.  Note 61.  Velocity 127
000001t:  Note on ::  Channel 9.  Note 42.  Velocity 127
000022t:  Note on ::  Channel 9.  Note 61.  Velocity 0
000003t:  Note on ::  Channel 9.  Note 42.  Velocity 0
000022t:  Note on ::  Channel 9.  Note 38.  Velocity 127
000000t:  Note on ::  Channel 9.  Note 61.  Velocity 127
000000t:  Note on ::  Channel 9.  Note 42.  Velocity 127
000023t:  Note on ::  Channel 9.  Note 42.  Velocity 0
000000t:  Note on ::  Channel 9.  Note 61.  Velocity 0
000000t:  Note on ::  Channel 9.  Note 38.  Velocity 0
000026t:  Note on ::  Channel 9.  Note 61.  Velocity 127
000000t:  Note on ::  Channel 9.  Note 42.  Velocity 127
000023t:  Note on ::  Channel 9.  Note 42.  Velocity 0
000000t:  Note on ::  Channel 9.  Note 61.  Velocity 0
000024t:  Note on ::  Channel 9.  Note 36.  Velocity 127
000000t:  Note on ::  Channel 9.  Note 61.  Velocity 127
000001t:  Note on ::  Channel 9.  Note 40.  Velocity 127
000000t:  Note on ::  Channel 9.  Note 51.  Velocity 127
000000t:  Note on ::  Channel 9.  Note 42.  Velocity 127
000022t:  Note on ::  Channel 9.  Note 42.  Velocity 0
000000t:  Note on ::  Channel 9.  Note 36.  Velocity 0
000001t:  Note on ::  Channel 9.  Note 61.  Velocity 0
000025t:  Note on ::  Channel 9.  Note 36.  Velocity 127
000000t:  Note on ::  Channel 9.  Note 61.  Velocity 127
000000t:  Note on ::  Channel 9.  Note 42.  Velocity 127
000022t:  Note on ::  Channel 9.  Note 42.  Velocity 0
000001t:  Note on ::  Channel 9.  Note 36.  Velocity 0
000000t:  Note on ::  Channel 9.  Note 61.  Velocity 0
000024t:  Note on ::  Channel 9.  Note 40.  Velocity 0
000001t:  Note on ::  Channel 9.  Note 38.  Velocity 127
000000t:  Note on ::  Channel 9.  Note 61.  Velocity 127
000000t:  Note on ::  Channel 9.  Note 42.  Velocity 127
000005t:  Note on ::  Channel 9.  Note 51.  Velocity 0
000017t:  Note on ::  Channel 9.  Note 38.  Velocity 0
000000t:  Note on ::  Channel 9.  Note 61.  Velocity 0
000002t:  Note on ::  Channel 9.  Note 42.  Velocity 0
000024t:  Note on ::  Channel 9.  Note 61.  Velocity 127
000000t:  Note on ::  Channel 9.  Note 42.  Velocity 127
000022t:  Note on ::  Channel 9.  Note 42.  Velocity 0
000001t:  Note on ::  Channel 9.  Note 61.  Velocity 0
000025t:  Note on ::  Channel 9.  Note 36.  Velocity 127
000000t:  Note on ::  Channel 9.  Note 61.  Velocity 127
000000t:  Note on ::  Channel 9.  Note 42.  Velocity 127
000019t:  Note on ::  Channel 9.  Note 42.  Velocity 0
000004t:  Note on ::  Channel 9.  Note 61.  Velocity 0
000000t:  Note on ::  Channel 9.  Note 36.  Velocity 0
000026t:  Note on ::  Channel 9.  Note 61.  Velocity 127
000000t:  Note on ::  Channel 9.  Note 42.  Velocity 127
000017t:  Note on ::  Channel 9.  Note 42.  Velocity 0
000005t:  Note on ::  Channel 9.  Note 61.  Velocity 0
000025t:  Note on ::  Channel 9.  Note 38.  Velocity 127
000000t:  Note on ::  Channel 9.  Note 61.  Velocity 127
000000t:  Note on ::  Channel 9.  Note 42.  Velocity 127
000020t:  Note on ::  Channel 9.  Note 42.  Velocity 0
000004t:  Note on ::  Channel 9.  Note 61.  Velocity 0
000000t:  Note on ::  Channel 9.  Note 38.  Velocity 0
000025t:  Note on ::  Channel 9.  Note 61.  Velocity 127
000000t:  Note on ::  Channel 9.  Note 42.  Velocity 127
000013t:  Note on ::  Channel 9.  Note 42.  Velocity 0
000010t:  Note on ::  Channel 9.  Note 61.  Velocity 0
000024t:  Note on ::  Channel 9.  Note 36.  Velocity 127
000000t:  Note on ::  Channel 9.  Note 61.  Velocity 127
000001t:  Note on ::  Channel 9.  Note 51.  Velocity 127
000000t:  Note on ::  Channel 9.  Note 40.  Velocity 127
000000t:  Note on ::  Channel 9.  Note 42.  Velocity 127
000021t:  Note on ::  Channel 9.  Note 42.  Velocity 0
000003t:  Note on ::  Channel 9.  Note 36.  Velocity 0
000000t:  Note on ::  Channel 9.  Note 61.  Velocity 0
000024t:  Note on ::  Channel 9.  Note 36.  Velocity 127
000000t:  Note on ::  Channel 9.  Note 61.  Velocity 127
000001t:  Note on ::  Channel 9.  Note 42.  Velocity 127
000022t:  Note on ::  Channel 9.  Note 42.  Velocity 0
000000t:  Note on ::  Channel 9.  Note 36.  Velocity 0
000001t:  Note on ::  Channel 9.  Note 61.  Velocity 0
000015t:  Note on ::  Channel 9.  Note 51.  Velocity 0
000002t:  Note on ::  Channel 9.  Note 40.  Velocity 0
000007t:  Note on ::  Channel 9.  Note 38.  Velocity 127
000000t:  Note on ::  Channel 9.  Note 61.  Velocity 127
000000t:  Note on ::  Channel 9.  Note 42.  Velocity 127
000024t:  Note on ::  Channel 9.  Note 42.  Velocity 0
000000t:  Note on ::  Channel 9.  Note 61.  Velocity 0
000000t:  Note on ::  Channel 9.  Note 38.  Velocity 0
000024t:  Note on ::  Channel 9.  Note 38.  Velocity 127
000000t:  Note on ::  Channel 9.  Note 61.  Velocity 127
000001t:  Note on ::  Channel 9.  Note 42.  Velocity 127
000023t:  Note on ::  Channel 9.  Note 61.  Velocity 0
000000t:  Note on ::  Channel 9.  Note 38.  Velocity 0
000001t:  Note on ::  Channel 9.  Note 42.  Velocity 0
000023t:  Note on ::  Channel 9.  Note 36.  Velocity 127
000000t:  Note on ::  Channel 9.  Note 42.  Velocity 127
000024t:  Note on ::  Channel 9.  Note 36.  Velocity 0
000002t:  Note on ::  Channel 9.  Note 42.  Velocity 0
000023t:  Note on ::  Channel 9.  Note 42.  Velocity 127
000020t:  Note on ::  Channel 9.  Note 42.  Velocity 0
000027t:  Note on ::  Channel 9.  Note 36.  Velocity 127
000000t:  Note on ::  Channel 9.  Note 38.  Velocity 127
000001t:  Note on ::  Channel 9.  Note 42.  Velocity 127
000022t:  Note on ::  Channel 9.  Note 42.  Velocity 0
000002t:  Note on ::  Channel 9.  Note 38.  Velocity 0
000000t:  Note on ::  Channel 9.  Note 36.  Velocity 0
000024t:  Note on ::  Channel 9.  Note 42.  Velocity 127
000023t:  Note on ::  Channel 9.  Note 42.  Velocity 0
000025t:  Note on ::  Channel 9.  Note 36.  Velocity 127
000000t:  Note on ::  Channel 9.  Note 42.  Velocity 127
000024t:  Note on ::  Channel 9.  Note 42.  Velocity 0
000000t:  Note on ::  Channel 9.  Note 36.  Velocity 0
000024t:  Note on ::  Channel 9.  Note 42.  Velocity 127
000025t:  Note on ::  Channel 9.  Note 42.  Velocity 0
000023t:  Note on ::  Channel 9.  Note 36.  Velocity 127
000000t:  Note on ::  Channel 9.  Note 38.  Velocity 127
000000t:  Note on ::  Channel 9.  Note 42.  Velocity 127
000024t:  Note on ::  Channel 9.  Note 38.  Velocity 0
000000t:  Note on ::  Channel 9.  Note 36.  Velocity 0
000002t:  Note on ::  Channel 9.  Note 42.  Velocity 0
000023t:  Note on ::  Channel 9.  Note 42.  Velocity 127
000024t:  Note on ::  Channel 9.  Note 42.  Velocity 0
000025t:  Note on ::  Channel 9.  Note 36.  Velocity 127
000000t:  Note on ::  Channel 9.  Note 42.  Velocity 127
000022t:  Note on ::  Channel 9.  Note 36.  Velocity 0
000005t:  Note on ::  Channel 9.  Note 42.  Velocity 0
000020t:  Note on ::  Channel 9.  Note 42.  Velocity 127
000022t:  Note on ::  Channel 9.  Note 42.  Velocity 0
000027t:  Note on ::  Channel 9.  Note 38.  Velocity 127
000000t:  Note on ::  Channel 9.  Note 36.  Velocity 127
000000t:  Note on ::  Channel 9.  Note 42.  Velocity 127
000023t:  Note on ::  Channel 9.  Note 42.  Velocity 0
000000t:  Note on ::  Channel 9.  Note 36.  Velocity 0
000000t:  Note on ::  Channel 9.  Note 38.  Velocity 0
000024t:  Note on ::  Channel 9.  Note 42.  Velocity 127
000025t:  Note on ::  Channel 9.  Note 42.  Velocity 0
000024t:  Note on ::  Channel 9.  Note 36.  Velocity 127
000000t:  Note on ::  Channel 9.  Note 42.  Velocity 127
000023t:  Note on ::  Channel 9.  Note 36.  Velocity 0
000001t:  Note on ::  Channel 9.  Note 42.  Velocity 0
000024t:  Note on ::  Channel 9.  Note 42.  Velocity 127
000024t:  Note on ::  Channel 9.  Note 42.  Velocity 0
000024t:  Note on ::  Channel 9.  Note 36.  Velocity 127
000001t:  Note on ::  Channel 9.  Note 38.  Velocity 127
000000t:  Note on ::  Channel 9.  Note 42.  Velocity 127
000022t:  Note on ::  Channel 9.  Note 38.  Velocity 0
000000t:  Note on ::  Channel 9.  Note 36.  Velocity 0
000002t:  Note on ::  Channel 9.  Note 42.  Velocity 0
000023t:  Note on ::  Channel 9.  Note 42.  Velocity 127
000024t:  Note on ::  Channel 9.  Note 42.  Velocity 0
000025t:  Note on ::  Channel 9.  Note 36.  Velocity 127
000000t:  Note on ::  Channel 9.  Note 42.  Velocity 127
000023t:  Note on ::  Channel 9.  Note 36.  Velocity 0
000001t:  Note on ::  Channel 9.  Note 42.  Velocity 0
000023t:  Note on ::  Channel 9.  Note 42.  Velocity 127
000026t:  Note on ::  Channel 9.  Note 42.  Velocity 0
000023t:  Note on ::  Channel 9.  Note 38.  Velocity 127
000000t:  Note on ::  Channel 9.  Note 36.  Velocity 127
000000t:  Note on ::  Channel 9.  Note 42.  Velocity 127
000023t:  Note on ::  Channel 9.  Note 42.  Velocity 0
000000t:  Note on ::  Channel 9.  Note 36.  Velocity 0
000000t:  Note on ::  Channel 9.  Note 38.  Velocity 0
000024t:  Note on ::  Channel 9.  Note 42.  Velocity 127
000023t:  Note on ::  Channel 9.  Note 42.  Velocity 0
000026t:  Note on ::  Channel 9.  Note 36.  Velocity 127
000000t:  Note on ::  Channel 9.  Note 42.  Velocity 127
000023t:  Note on ::  Channel 9.  Note 42.  Velocity 0
000000t:  Note on ::  Channel 9.  Note 36.  Velocity 0
000025t:  Note on ::  Channel 9.  Note 42.  Velocity 127
000021t:  Note on ::  Channel 9.  Note 42.  Velocity 0
000028t:  Note on ::  Channel 9.  Note 38.  Velocity 127
000000t:  Note on ::  Channel 9.  Note 36.  Velocity 127
000000t:  Note on ::  Channel 9.  Note 42.  Velocity 127
000023t:  Note on ::  Channel 9.  Note 42.  Velocity 0
000000t:  Note on ::  Channel 9.  Note 36.  Velocity 0
000000t:  Note on ::  Channel 9.  Note 38.  Velocity 0
000024t:  Note on ::  Channel 9.  Note 42.  Velocity 127
000022t:  Note on ::  Channel 9.  Note 42.  Velocity 0
000027t:  Note on ::  Channel 9.  Note 36.  Velocity 127
000000t:  Note on ::  Channel 9.  Note 42.  Velocity 127
000017t:  Note on ::  Channel 9.  Note 42.  Velocity 0
000006t:  Note on ::  Channel 9.  Note 36.  Velocity 0
000024t:  Note on ::  Channel 9.  Note 42.  Velocity 127
000018t:  Note on ::  Channel 9.  Note 42.  Velocity 0
000031t:  Note on ::  Channel 9.  Note 36.  Velocity 127
000000t:  Note on ::  Channel 9.  Note 38.  Velocity 127
000001t:  Note on ::  Channel 9.  Note 42.  Velocity 127
000018t:  Note on ::  Channel 9.  Note 42.  Velocity 0
000004t:  Note on ::  Channel 9.  Note 38.  Velocity 0
000000t:  Note on ::  Channel 9.  Note 36.  Velocity 0
000025t:  Note on ::  Channel 9.  Note 42.  Velocity 127
000013t:  Note on ::  Channel 9.  Note 42.  Velocity 0
000035t:  Note on ::  Channel 9.  Note 36.  Velocity 127
000001t:  Note on ::  Channel 9.  Note 42.  Velocity 127
000020t:  Note on ::  Channel 9.  Note 42.  Velocity 0
000002t:  Note on ::  Channel 9.  Note 36.  Velocity 0
000025t:  Note on ::  Channel 9.  Note 42.  Velocity 127
000023t:  Note on ::  Channel 9.  Note 42.  Velocity 0
000026t:  Note on ::  Channel 9.  Note 36.  Velocity 127
000000t:  Note on ::  Channel 9.  Note 38.  Velocity 127
000000t:  Note on ::  Channel 9.  Note 42.  Velocity 127
000023t:  Note on ::  Channel 9.  Note 42.  Velocity 0
000000t:  Note on ::  Channel 9.  Note 38.  Velocity 0
000000t:  Note on ::  Channel 9.  Note 36.  Velocity 0
000024t:  Note on ::  Channel 9.  Note 42.  Velocity 127
000025t:  Note on ::  Channel 9.  Note 42.  Velocity 0
000024t:  Note on ::  Channel 9.  Note 36.  Velocity 127
000000t:  Note on ::  Channel 9.  Note 42.  Velocity 127
000023t:  Note on ::  Channel 9.  Note 36.  Velocity 0
000003t:  Note on ::  Channel 9.  Note 42.  Velocity 0
000021t:  Note on ::  Channel 9.  Note 42.  Velocity 127
000023t:  Note on ::  Channel 9.  Note 42.  Velocity 0
000026t:  Note on ::  Channel 9.  Note 36.  Velocity 127
000000t:  Note on ::  Channel 9.  Note 38.  Velocity 127
000001t:  Note on ::  Channel 9.  Note 42.  Velocity 127
000021t:  Note on ::  Channel 9.  Note 42.  Velocity 0
000001t:  Note on ::  Channel 9.  Note 38.  Velocity 0
000000t:  Note on ::  Channel 9.  Note 36.  Velocity 0
000025t:  Note on ::  Channel 9.  Note 42.  Velocity 127
000020t:  Note on ::  Channel 9.  Note 42.  Velocity 0
000029t:  Note on ::  Channel 9.  Note 36.  Velocity 127
000000t:  Note on ::  Channel 9.  Note 42.  Velocity 127
000019t:  Note on ::  Channel 9.  Note 42.  Velocity 0
000004t:  Note on ::  Channel 9.  Note 36.  Velocity 0
000024t:  Note on ::  Channel 9.  Note 42.  Velocity 127
000022t:  Note on ::  Channel 9.  Note 42.  Velocity 0
000027t:  Note on ::  Channel 9.  Note 38.  Velocity 127
000000t:  Note on ::  Channel 9.  Note 36.  Velocity 127
000000t:  Note on ::  Channel 9.  Note 42.  Velocity 127
000023t:  Note on ::  Channel 9.  Note 36.  Velocity 0
000000t:  Note on ::  Channel 9.  Note 38.  Velocity 0
000001t:  Note on ::  Channel 9.  Note 42.  Velocity 0
000023t:  Note on ::  Channel 9.  Note 42.  Velocity 127
000023t:  Note on ::  Channel 9.  Note 42.  Velocity 0
000026t:  Note on ::  Channel 9.  Note 36.  Velocity 127
000000t:  Note on ::  Channel 9.  Note 42.  Velocity 127
000022t:  Note on ::  Channel 9.  Note 42.  Velocity 0
000001t:  Note on ::  Channel 9.  Note 36.  Velocity 0
000025t:  Note on ::  Channel 9.  Note 42.  Velocity 127
000019t:  Note on ::  Channel 9.  Note 42.  Velocity 0
000029t:  Note on ::  Channel 9.  Note 36.  Velocity 127
000000t:  Note on ::  Channel 9.  Note 38.  Velocity 127
000001t:  Note on ::  Channel 9.  Note 42.  Velocity 127
000018t:  Note on ::  Channel 9.  Note 42.  Velocity 0
000004t:  Note on ::  Channel 9.  Note 38.  Velocity 0
000000t:  Note on ::  Channel 9.  Note 36.  Velocity 0
000025t:  Note on ::  Channel 9.  Note 42.  Velocity 127
000019t:  Note on ::  Channel 9.  Note 42.  Velocity 0
000030t:  Note on ::  Channel 9.  Note 36.  Velocity 127
000000t:  Note on ::  Channel 9.  Note 42.  Velocity 127
000019t:  Note on ::  Channel 9.  Note 42.  Velocity 0
000004t:  Note on ::  Channel 9.  Note 36.  Velocity 0
000024t:  Note on ::  Channel 9.  Note 42.  Velocity 127
000022t:  Note on ::  Channel 9.  Note 42.  Velocity 0
000027t:  Note on ::  Channel 9.  Note 38.  Velocity 127
000000t:  Note on ::  Channel 9.  Note 36.  Velocity 127
000001t:  Note on ::  Channel 9.  Note 42.  Velocity 127
000022t:  Note on ::  Channel 9.  Note 36.  Velocity 0
000000t:  Note on ::  Channel 9.  Note 38.  Velocity 0
000001t:  Note on ::  Channel 9.  Note 42.  Velocity 0
000023t:  Note on ::  Channel 9.  Note 42.  Velocity 127
000028t:  Note on ::  Channel 9.  Note 42.  Velocity 0
000021t:  Note on ::  Channel 9.  Note 36.  Velocity 127
000000t:  Note on ::  Channel 9.  Note 42.  Velocity 127
000023t:  Note on ::  Channel 9.  Note 36.  Velocity 0
000011t:  Note on ::  Channel 9.  Note 42.  Velocity 0
000014t:  Note on ::  Channel 9.  Note 42.  Velocity 127
000024t:  Note on ::  Channel 9.  Note 42.  Velocity 0
000025t:  Note on ::  Channel 9.  Note 38.  Velocity 127
000000t:  Note on ::  Channel 9.  Note 36.  Velocity 127
000000t:  Note on ::  Channel 9.  Note 42.  Velocity 127
000019t:  Note on ::  Channel 9.  Note 42.  Velocity 0
000004t:  Note on ::  Channel 9.  Note 36.  Velocity 0
000000t:  Note on ::  Channel 9.  Note 38.  Velocity 0
000024t:  Note on ::  Channel 9.  Note 42.  Velocity 127
000020t:  Note on ::  Channel 9.  Note 42.  Velocity 0
000029t:  Note on ::  Channel 9.  Note 36.  Velocity 127
000000t:  Note on ::  Channel 9.  Note 42.  Velocity 127
000020t:  Note on ::  Channel 9.  Note 42.  Velocity 0
000003t:  Note on ::  Channel 9.  Note 36.  Velocity 0
000024t:  Note on ::  Channel 9.  Note 42.  Velocity 127
000021t:  Note on ::  Channel 9.  Note 42.  Velocity 0
000028t:  Note on ::  Channel 9.  Note 36.  Velocity 127
000000t:  Note on ::  Channel 9.  Note 38.  Velocity 127
000001t:  Note on ::  Channel 9.  Note 42.  Velocity 127
000022t:  Note on ::  Channel 9.  Note 42.  Velocity 0
000000t:  Note on ::  Channel 9.  Note 36.  Velocity 0
000001t:  Note on ::  Channel 9.  Note 38.  Velocity 0
000024t:  Note on ::  Channel 9.  Note 42.  Velocity 127
000023t:  Note on ::  Channel 9.  Note 42.  Velocity 0
000026t:  Note on ::  Channel 9.  Note 36.  Velocity 127
000000t:  Note on ::  Channel 9.  Note 42.  Velocity 127
000023t:  Note on ::  Channel 9.  Note 36.  Velocity 0
000006t:  Note on ::  Channel 9.  Note 42.  Velocity 0
000018t:  Note on ::  Channel 9.  Note 42.  Velocity 127
000023t:  Note on ::  Channel 9.  Note 42.  Velocity 0
000026t:  Note on ::  Channel 9.  Note 36.  Velocity 127
000000t:  Note on ::  Channel 9.  Note 38.  Velocity 127
000000t:  Note on ::  Channel 9.  Note 42.  Velocity 127
000020t:  Note on ::  Channel 9.  Note 42.  Velocity 0
000003t:  Note on ::  Channel 9.  Note 38.  Velocity 0
000000t:  Note on ::  Channel 9.  Note 36.  Velocity 0
000024t:  Note on ::  Channel 9.  Note 42.  Velocity 127
000023t:  Note on ::  Channel 9.  Note 42.  Velocity 0
000026t:  Note on ::  Channel 9.  Note 36.  Velocity 127
000000t:  Note on ::  Channel 9.  Note 42.  Velocity 127
000023t:  Note on ::  Channel 9.  Note 42.  Velocity 0
000000t:  Note on ::  Channel 9.  Note 36.  Velocity 0
000025t:  Note on ::  Channel 9.  Note 42.  Velocity 127
000024t:  Note on ::  Channel 9.  Note 42.  Velocity 0
000024t:  Note on ::  Channel 9.  Note 38.  Velocity 127
000000t:  Note on ::  Channel 9.  Note 36.  Velocity 127
000001t:  Note on ::  Channel 9.  Note 42.  Velocity 127
000020t:  Note on ::  Channel 9.  Note 42.  Velocity 0
000002t:  Note on ::  Channel 9.  Note 38.  Velocity 0
000001t:  Note on ::  Channel 9.  Note 36.  Velocity 0
000024t:  Note on ::  Channel 9.  Note 42.  Velocity 127
000022t:  Note on ::  Channel 9.  Note 42.  Velocity 0
000027t:  Note on ::  Channel 9.  Note 36.  Velocity 127
000023t:  Note on ::  Channel 9.  Note 36.  Velocity 0
000024t:  Note on ::  Channel 9.  Note 36.  Velocity 127
000023t:  Note on ::  Channel 9.  Note 36.  Velocity 0
000026t:  Note on ::  Channel 9.  Note 36.  Velocity 127
000023t:  Note on ::  Channel 9.  Note 36.  Velocity 0
000073t:  Note on ::  Channel 9.  Note 38.  Velocity 127
000023t:  Note on ::  Channel 9.  Note 38.  Velocity 0
000121t:  Note on ::  Channel 9.  Note 36.  Velocity 127
000023t:  Note on ::  Channel 9.  Note 36.  Velocity 0
000026t:  Note on ::  Channel 9.  Note 36.  Velocity 127
000023t:  Note on ::  Channel 9.  Note 36.  Velocity 0
000024t:  Note on ::  Channel 9.  Note 36.  Velocity 127
000023t:  Note on ::  Channel 9.  Note 36.  Velocity 0
000026t:  Note on ::  Channel 9.  Note 36.  Velocity 127
000023t:  Note on ::  Channel 9.  Note 36.  Velocity 0
000073t:  Note on ::  Channel 9.  Note 38.  Velocity 127
000024t:  Note on ::  Channel 9.  Note 38.  Velocity 0
000120t:  Note on ::  Channel 9.  Note 36.  Velocity 127
000023t:  Note on ::  Channel 9.  Note 36.  Velocity 0
000026t:  Note on ::  Channel 9.  Note 36.  Velocity 127
000023t:  Note on ::  Channel 9.  Note 36.  Velocity 0
000024t:  Note on ::  Channel 9.  Note 36.  Velocity 127
000024t:  Note on ::  Channel 9.  Note 36.  Velocity 0
000025t:  Note on ::  Channel 9.  Note 36.  Velocity 127
000023t:  Note on ::  Channel 9.  Note 36.  Velocity 0
000074t:  Note on ::  Channel 9.  Note 38.  Velocity 127
000023t:  Note on ::  Channel 9.  Note 38.  Velocity 0
000073t:  Note on ::  Channel 9.  Note 36.  Velocity 127
000023t:  Note on ::  Channel 9.  Note 36.  Velocity 0
000024t:  Note on ::  Channel 9.  Note 38.  Velocity 127
000023t:  Note on ::  Channel 9.  Note 38.  Velocity 0
000026t:  Note on ::  Channel 9.  Note 36.  Velocity 127
000023t:  Note on ::  Channel 9.  Note 36.  Velocity 0
000025t:  Note on ::  Channel 9.  Note 38.  Velocity 127
000023t:  Note on ::  Channel 9.  Note 38.  Velocity 0
000026t:  Note on ::  Channel 9.  Note 36.  Velocity 127
000023t:  Note on ::  Channel 9.  Note 36.  Velocity 0
000024t:  Note on ::  Channel 9.  Note 38.  Velocity 127
000023t:  Note on ::  Channel 9.  Note 38.  Velocity 0
000026t:  Note on ::  Channel 9.  Note 36.  Velocity 127
000000t:  Note on ::  Channel 9.  Note 38.  Velocity 127
000023t:  Note on ::  Channel 9.  Note 38.  Velocity 0
000000t:  Note on ::  Channel 9.  Note 36.  Velocity 0
000024t:  Note on ::  Channel 9.  Note 38.  Velocity 127
000023t:  Note on ::  Channel 9.  Note 38.  Velocity 0
000026t:  Note on ::  Channel 9.  Note 38.  Velocity 127
000000t:  Note on ::  Channel 9.  Note 36.  Velocity 127
000023t:  Note on ::  Channel 9.  Note 36.  Velocity 0
000000t:  Note on ::  Channel 9.  Note 38.  Velocity 0
000025t:  Note on ::  Channel 9.  Note 38.  Velocity 127
000000t:  Note on ::  Channel 9.  Note 36.  Velocity 127
000023t:  Note on ::  Channel 9.  Note 36.  Velocity 0
000000t:  Note on ::  Channel 9.  Note 38.  Velocity 0
000025t:  Note on ::  Channel 9.  Note 36.  Velocity 127
000000t:  Note on ::  Channel 9.  Note 42.  Velocity 127
000023t:  Note on ::  Channel 9.  Note 36.  Velocity 0
000002t:  Note on ::  Channel 9.  Note 42.  Velocity 0
000023t:  Note on ::  Channel 9.  Note 42.  Velocity 127
000020t:  Note on ::  Channel 9.  Note 42.  Velocity 0
000029t:  Note on ::  Channel 9.  Note 36.  Velocity 127
000000t:  Note on ::  Channel 9.  Note 38.  Velocity 127
000000t:  Note on ::  Channel 9.  Note 42.  Velocity 127
000021t:  Note on ::  Channel 9.  Note 42.  Velocity 0
000002t:  Note on ::  Channel 9.  Note 38.  Velocity 0
000000t:  Note on ::  Channel 9.  Note 36.  Velocity 0
000024t:  Note on ::  Channel 9.  Note 42.  Velocity 127
000023t:  Note on ::  Channel 9.  Note 42.  Velocity 0
000026t:  Note on ::  Channel 9.  Note 36.  Velocity 127
000000t:  Note on ::  Channel 9.  Note 42.  Velocity 127
000023t:  Note on ::  Channel 9.  Note 42.  Velocity 0
000000t:  Note on ::  Channel 9.  Note 36.  Velocity 0
000024t:  Note on ::  Channel 9.  Note 42.  Velocity 127
000026t:  Note on ::  Channel 9.  Note 42.  Velocity 0
000023t:  Note on ::  Channel 9.  Note 36.  Velocity 127
000001t:  Note on ::  Channel 9.  Note 38.  Velocity 127
000000t:  Note on ::  Channel 9.  Note 42.  Velocity 127
000022t:  Note on ::  Channel 9.  Note 36.  Velocity 0
000001t:  Note on ::  Channel 9.  Note 38.  Velocity 0
000001t:  Note on ::  Channel 9.  Note 42.  Velocity 0
000023t:  Note on ::  Channel 9.  Note 42.  Velocity 127
000026t:  Note on ::  Channel 9.  Note 42.  Velocity 0
000023t:  Note on ::  Channel 9.  Note 36.  Velocity 127
000000t:  Note on ::  Channel 9.  Note 42.  Velocity 127
000023t:  Note on ::  Channel 9.  Note 36.  Velocity 0
000004t:  Note on ::  Channel 9.  Note 42.  Velocity 0
000020t:  Note on ::  Channel 9.  Note 42.  Velocity 127
000022t:  Note on ::  Channel 9.  Note 42.  Velocity 0
000027t:  Note on ::  Channel 9.  Note 38.  Velocity 127
000000t:  Note on ::  Channel 9.  Note 36.  Velocity 127
000000t:  Note on ::  Channel 9.  Note 42.  Velocity 127
000023t:  Note on ::  Channel 9.  Note 42.  Velocity 0
000000t:  Note on ::  Channel 9.  Note 36.  Velocity 0
000000t:  Note on ::  Channel 9.  Note 38.  Velocity 0
000024t:  Note on ::  Channel 9.  Note 42.  Velocity 127
000025t:  Note on ::  Channel 9.  Note 42.  Velocity 0
000024t:  Note on ::  Channel 9.  Note 36.  Velocity 127
000000t:  Note on ::  Channel 9.  Note 42.  Velocity 127
000023t:  Note on ::  Channel 9.  Note 36.  Velocity 0
000002t:  Note on ::  Channel 9.  Note 42.  Velocity 0
000023t:  Note on ::  Channel 9.  Note 42.  Velocity 127
000024t:  Note on ::  Channel 9.  Note 42.  Velocity 0
000025t:  Note on ::  Channel 9.  Note 36.  Velocity 127
000000t:  Note on ::  Channel 9.  Note 38.  Velocity 127
000000t:  Note on ::  Channel 9.  Note 42.  Velocity 127
000022t:  Note on ::  Channel 9.  Note 36.  Velocity 0
000001t:  Note on ::  Channel 9.  Note 38.  Velocity 0
000001t:  Note on ::  Channel 9.  Note 42.  Velocity 0
000023t:  Note on ::  Channel 9.  Note 42.  Velocity 127
000026t:  Note on ::  Channel 9.  Note 42.  Velocity 0
000023t:  Note on ::  Channel 9.  Note 36.  Velocity 127
000000t:  Note on ::  Channel 9.  Note 42.  Velocity 127
000023t:  Note on ::  Channel 9.  Note 36.  Velocity 0
000001t:  Note on ::  Channel 9.  Note 42.  Velocity 0
000023t:  Note on ::  Channel 9.  Note 42.  Velocity 127
000026t:  Note on ::  Channel 9.  Note 42.  Velocity 0
000023t:  Note on ::  Channel 9.  Note 38.  Velocity 127
000000t:  Note on ::  Channel 9.  Note 36.  Velocity 127
000001t:  Note on ::  Channel 9.  Note 42.  Velocity 127
000022t:  Note on ::  Channel 9.  Note 42.  Velocity 0
000000t:  Note on ::  Channel 9.  Note 36.  Velocity 0
000000t:  Note on ::  Channel 9.  Note 38.  Velocity 0
000024t:  Note on ::  Channel 9.  Note 42.  Velocity 127
000024t:  Note on ::  Channel 9.  Note 42.  Velocity 0
000025t:  Note on ::  Channel 9.  Note 36.  Velocity 127
000000t:  Note on ::  Channel 9.  Note 42.  Velocity 127
000023t:  Note on ::  Channel 9.  Note 42.  Velocity 0
000000t:  Note on ::  Channel 9.  Note 36.  Velocity 0
000025t:  Note on ::  Channel 9.  Note 42.  Velocity 127
000022t:  Note on ::  Channel 9.  Note 42.  Velocity 0
000027t:  Note on ::  Channel 9.  Note 38.  Velocity 127
000000t:  Note on ::  Channel 9.  Note 36.  Velocity 127
000000t:  Note on ::  Channel 9.  Note 42.  Velocity 127
000023t:  Note on ::  Channel 9.  Note 42.  Velocity 0
000000t:  Note on ::  Channel 9.  Note 36.  Velocity 0
000000t:  Note on ::  Channel 9.  Note 38.  Velocity 0
000024t:  Note on ::  Channel 9.  Note 42.  Velocity 127
000022t:  Note on ::  Channel 9.  Note 42.  Velocity 0
000027t:  Note on ::  Channel 9.  Note 36.  Velocity 127
000000t:  Note on ::  Channel 9.  Note 42.  Velocity 127
000018t:  Note on ::  Channel 9.  Note 42.  Velocity 0
000005t:  Note on ::  Channel 9.  Note 36.  Velocity 0
000024t:  Note on ::  Channel 9.  Note 42.  Velocity 127
000018t:  Note on ::  Channel 9.  Note 42.  Velocity 0
000031t:  Note on ::  Channel 9.  Note 36.  Velocity 127
000001t:  Note on ::  Channel 9.  Note 38.  Velocity 127
000000t:  Note on ::  Channel 9.  Note 42.  Velocity 127
000018t:  Note on ::  Channel 9.  Note 42.  Velocity 0
000004t:  Note on ::  Channel 9.  Note 38.  Velocity 0
000000t:  Note on ::  Channel 9.  Note 36.  Velocity 0
000025t:  Note on ::  Channel 9.  Note 42.  Velocity 127
000013t:  Note on ::  Channel 9.  Note 42.  Velocity 0
000036t:  Note on ::  Channel 9.  Note 36.  Velocity 127
000000t:  Note on ::  Channel 9.  Note 42.  Velocity 127
000020t:  Note on ::  Channel 9.  Note 42.  Velocity 0
000002t:  Note on ::  Channel 9.  Note 36.  Velocity 0
000025t:  Note on ::  Channel 9.  Note 42.  Velocity 127
000023t:  Note on ::  Channel 9.  Note 42.  Velocity 0
000026t:  Note on ::  Channel 9.  Note 36.  Velocity 127
000000t:  Note on ::  Channel 9.  Note 38.  Velocity 127
000000t:  Note on ::  Channel 9.  Note 42.  Velocity 127
000023t:  Note on ::  Channel 9.  Note 42.  Velocity 0
000000t:  Note on ::  Channel 9.  Note 38.  Velocity 0
000000t:  Note on ::  Channel 9.  Note 36.  Velocity 0
000024t:  Note on ::  Channel 9.  Note 42.  Velocity 127
000025t:  Note on ::  Channel 9.  Note 42.  Velocity 0
000024t:  Note on ::  Channel 9.  Note 36.  Velocity 127
000000t:  Note on ::  Channel 9.  Note 42.  Velocity 127
000023t:  Note on ::  Channel 9.  Note 36.  Velocity 0
000004t:  Note on ::  Channel 9.  Note 42.  Velocity 0
000021t:  Note on ::  Channel 9.  Note 42.  Velocity 127
000023t:  Note on ::  Channel 9.  Note 42.  Velocity 0
000025t:  Note on ::  Channel 9.  Note 36.  Velocity 127
000000t:  Note on ::  Channel 9.  Note 38.  Velocity 127
000001t:  Note on ::  Channel 9.  Note 42.  Velocity 127
000021t:  Note on ::  Channel 9.  Note 42.  Velocity 0
000001t:  Note on ::  Channel 9.  Note 36.  Velocity 0
000001t:  Note on ::  Channel 9.  Note 38.  Velocity 0
000024t:  Note on ::  Channel 9.  Note 42.  Velocity 127
000020t:  Note on ::  Channel 9.  Note 42.  Velocity 0
000029t:  Note on ::  Channel 9.  Note 36.  Velocity 127
000000t:  Note on ::  Channel 9.  Note 42.  Velocity 127
000019t:  Note on ::  Channel 9.  Note 42.  Velocity 0
000004t:  Note on ::  Channel 9.  Note 36.  Velocity 0
000024t:  Note on ::  Channel 9.  Note 42.  Velocity 127
000022t:  Note on ::  Channel 9.  Note 42.  Velocity 0
000027t:  Note on ::  Channel 9.  Note 38.  Velocity 127
000000t:  Note on ::  Channel 9.  Note 36.  Velocity 127
000000t:  Note on ::  Channel 9.  Note 42.  Velocity 127
000023t:  Note on ::  Channel 9.  Note 36.  Velocity 0
000000t:  Note on ::  Channel 9.  Note 38.  Velocity 0
000001t:  Note on ::  Channel 9.  Note 42.  Velocity 0
000023t:  Note on ::  Channel 9.  Note 42.  Velocity 127
000024t:  Note on ::  Channel 9.  Note 42.  Velocity 0
000025t:  Note on ::  Channel 9.  Note 36.  Velocity 127
000001t:  Note on ::  Channel 9.  Note 42.  Velocity 127
000021t:  Note on ::  Channel 9.  Note 42.  Velocity 0
000001t:  Note on ::  Channel 9.  Note 36.  Velocity 0
000025t:  Note on ::  Channel 9.  Note 42.  Velocity 127
000019t:  Note on ::  Channel 9.  Note 42.  Velocity 0
000030t:  Note on ::  Channel 9.  Note 36.  Velocity 127
000000t:  Note on ::  Channel 9.  Note 38.  Velocity 127
000000t:  Note on ::  Channel 9.  Note 42.  Velocity 127
000019t:  Note on ::  Channel 9.  Note 42.  Velocity 0
000004t:  Note on ::  Channel 9.  Note 38.  Velocity 0
000000t:  Note on ::  Channel 9.  Note 36.  Velocity 0
000024t:  Note on ::  Channel 9.  Note 42.  Velocity 127
000019t:  Note on ::  Channel 9.  Note 42.  Velocity 0
000030t:  Note on ::  Channel 9.  Note 36.  Velocity 127
000000t:  Note on ::  Channel 9.  Note 42.  Velocity 127
000019t:  Note on ::  Channel 9.  Note 42.  Velocity 0
000004t:  Note on ::  Channel 9.  Note 36.  Velocity 0
000024t:  Note on ::  Channel 9.  Note 42.  Velocity 127
000022t:  Note on ::  Channel 9.  Note 42.  Velocity 0
000027t:  Note on ::  Channel 9.  Note 38.  Velocity 127
000000t:  Note on ::  Channel 9.  Note 36.  Velocity 127
000001t:  Note on ::  Channel 9.  Note 42.  Velocity 127
000022t:  Note on ::  Channel 9.  Note 36.  Velocity 0
000000t:  Note on ::  Channel 9.  Note 38.  Velocity 0
000002t:  Note on ::  Channel 9.  Note 42.  Velocity 0
000023t:  Note on ::  Channel 9.  Note 42.  Velocity 127
000027t:  Note on ::  Channel 9.  Note 42.  Velocity 0
000021t:  Note on ::  Channel 9.  Note 36.  Velocity 127
000001t:  Note on ::  Channel 9.  Note 42.  Velocity 127
000023t:  Note on ::  Channel 9.  Note 36.  Velocity 0
000010t:  Note on ::  Channel 9.  Note 42.  Velocity 0
000014t:  Note on ::  Channel 9.  Note 42.  Velocity 127
000024t:  Note on ::  Channel 9.  Note 42.  Velocity 0
000025t:  Note on ::  Channel 9.  Note 38.  Velocity 127
000000t:  Note on ::  Channel 9.  Note 36.  Velocity 127
000000t:  Note on ::  Channel 9.  Note 42.  Velocity 127
000019t:  Note on ::  Channel 9.  Note 42.  Velocity 0
000004t:  Note on ::  Channel 9.  Note 36.  Velocity 0
000000t:  Note on ::  Channel 9.  Note 38.  Velocity 0
000024t:  Note on ::  Channel 9.  Note 42.  Velocity 127
000021t:  Note on ::  Channel 9.  Note 42.  Velocity 0
000028t:  Note on ::  Channel 9.  Note 36.  Velocity 127
000000t:  Note on ::  Channel 9.  Note 42.  Velocity 127
000020t:  Note on ::  Channel 9.  Note 42.  Velocity 0
000003t:  Note on ::  Channel 9.  Note 36.  Velocity 0
000025t:  Note on ::  Channel 9.  Note 42.  Velocity 127
000020t:  Note on ::  Channel 9.  Note 42.  Velocity 0
000028t:  Note on ::  Channel 9.  Note 36.  Velocity 127
000000t:  Note on ::  Channel 9.  Note 38.  Velocity 127
000001t:  Note on ::  Channel 9.  Note 42.  Velocity 127
000022t:  Note on ::  Channel 9.  Note 42.  Velocity 0
000000t:  Note on ::  Channel 9.  Note 36.  Velocity 0
000001t:  Note on ::  Channel 9.  Note 38.  Velocity 0
000024t:  Note on ::  Channel 9.  Note 42.  Velocity 127
000023t:  Note on ::  Channel 9.  Note 42.  Velocity 0
000026t:  Note on ::  Channel 9.  Note 36.  Velocity 127
000000t:  Note on ::  Channel 9.  Note 42.  Velocity 127
000023t:  Note on ::  Channel 9.  Note 36.  Velocity 0
000006t:  Note on ::  Channel 9.  Note 42.  Velocity 0
000018t:  Note on ::  Channel 9.  Note 42.  Velocity 127
000023t:  Note on ::  Channel 9.  Note 42.  Velocity 0
000026t:  Note on ::  Channel 9.  Note 36.  Velocity 127
000000t:  Note on ::  Channel 9.  Note 38.  Velocity 127
000000t:  Note on ::  Channel 9.  Note 42.  Velocity 127
000020t:  Note on ::  Channel 9.  Note 42.  Velocity 0
000003t:  Note on ::  Channel 9.  Note 38.  Velocity 0
000000t:  Note on ::  Channel 9.  Note 36.  Velocity 0
000024t:  Note on ::  Channel 9.  Note 42.  Velocity 127
000023t:  Note on ::  Channel 9.  Note 42.  Velocity 0
000026t:  Note on ::  Channel 9.  Note 36.  Velocity 127
000000t:  Note on ::  Channel 9.  Note 42.  Velocity 127
000023t:  Note on ::  Channel 9.  Note 36.  Velocity 0
000001t:  Note on ::  Channel 9.  Note 42.  Velocity 0
000024t:  Note on ::  Channel 9.  Note 42.  Velocity 127
000024t:  Note on ::  Channel 9.  Note 42.  Velocity 0
000025t:  Note on ::  Channel 9.  Note 38.  Velocity 127
000000t:  Note on ::  Channel 9.  Note 36.  Velocity 127
000000t:  Note on ::  Channel 9.  Note 42.  Velocity 127
000020t:  Note on ::  Channel 9.  Note 42.  Velocity 0
000003t:  Note on ::  Channel 9.  Note 36.  Velocity 0
000000t:  Note on ::  Channel 9.  Note 38.  Velocity 0
000024t:  Note on ::  Channel 9.  Note 42.  Velocity 127
000022t:  Note on ::  Channel 9.  Note 42.  Velocity 0
000027t:  Note on ::  Channel 9.  Note 36.  Velocity 127
000000t:  Note on ::  Channel 9.  Note 42.  Velocity 127
000023t:  Note on ::  Channel 9.  Note 36.  Velocity 0
000001t:  Note on ::  Channel 9.  Note 42.  Velocity 0
000023t:  Note on ::  Channel 9.  Note 42.  Velocity 127
000021t:  Note on ::  Channel 9.  Note 42.  Velocity 0
000028t:  Note on ::  Channel 9.  Note 36.  Velocity 127
000000t:  Note on ::  Channel 9.  Note 38.  Velocity 127
000001t:  Note on ::  Channel 9.  Note 42.  Velocity 127
000021t:  Note on ::  Channel 9.  Note 42.  Velocity 0
000001t:  Note on ::  Channel 9.  Note 38.  Velocity 0
000000t:  Note on ::  Channel 9.  Note 36.  Velocity 0
000025t:  Note on ::  Channel 9.  Note 42.  Velocity 127
000023t:  Note on ::  Channel 9.  Note 42.  Velocity 0
000026t:  Note on ::  Channel 9.  Note 36.  Velocity 127
000000t:  Note on ::  Channel 9.  Note 42.  Velocity 127
000022t:  Note on ::  Channel 9.  Note 42.  Velocity 0
000000t:  Note on ::  Channel 9.  Note 36.  Velocity 0
000025t:  Note on ::  Channel 9.  Note 42.  Velocity 127
000026t:  Note on ::  Channel 9.  Note 42.  Velocity 0
000023t:  Note on ::  Channel 9.  Note 36.  Velocity 127
000000t:  Note on ::  Channel 9.  Note 38.  Velocity 127
000000t:  Note on ::  Channel 9.  Note 42.  Velocity 127
000023t:  Note on ::  Channel 9.  Note 38.  Velocity 0
000000t:  Note on ::  Channel 9.  Note 36.  Velocity 0
000001t:  Note on ::  Channel 9.  Note 42.  Velocity 0
000023t:  Note on ::  Channel 9.  Note 42.  Velocity 127
000026t:  Note on ::  Channel 9.  Note 42.  Velocity 0
000023t:  Note on ::  Channel 9.  Note 36.  Velocity 127
000000t:  Note on ::  Channel 9.  Note 42.  Velocity 127
000023t:  Note on ::  Channel 9.  Note 36.  Velocity 0
000004t:  Note on ::  Channel 9.  Note 42.  Velocity 0
000020t:  Note on ::  Channel 9.  Note 42.  Velocity 127
000022t:  Note on ::  Channel 9.  Note 42.  Velocity 0
000027t:  Note on ::  Channel 9.  Note 38.  Velocity 127
000001t:  Note on ::  Channel 9.  Note 36.  Velocity 127
000000t:  Note on ::  Channel 9.  Note 42.  Velocity 127
000022t:  Note on ::  Channel 9.  Note 42.  Velocity 0
000000t:  Note on ::  Channel 9.  Note 38.  Velocity 0
000001t:  Note on ::  Channel 9.  Note 36.  Velocity 0
000024t:  Note on ::  Channel 9.  Note 42.  Velocity 127
000024t:  Note on ::  Channel 9.  Note 42.  Velocity 0
000025t:  Note on ::  Channel 9.  Note 36.  Velocity 127
000000t:  Note on ::  Channel 9.  Note 42.  Velocity 127
000023t:  Note on ::  Channel 9.  Note 36.  Velocity 0
000001t:  Note on ::  Channel 9.  Note 42.  Velocity 0
000023t:  Note on ::  Channel 9.  Note 42.  Velocity 127
000024t:  Note on ::  Channel 9.  Note 42.  Velocity 0
000025t:  Note on ::  Channel 9.  Note 36.  Velocity 127
000000t:  Note on ::  Channel 9.  Note 38.  Velocity 127
000000t:  Note on ::  Channel 9.  Note 42.  Velocity 127
000023t:  Note on ::  Channel 9.  Note 38.  Velocity 0
000000t:  Note on ::  Channel 9.  Note 36.  Velocity 0
000001t:  Note on ::  Channel 9.  Note 42.  Velocity 0
000023t:  Note on ::  Channel 9.  Note 42.  Velocity 127
000026t:  Note on ::  Channel 9.  Note 42.  Velocity 0
000023t:  Note on ::  Channel 9.  Note 36.  Velocity 127
000000t:  Note on ::  Channel 9.  Note 42.  Velocity 127
000023t:  Note on ::  Channel 9.  Note 36.  Velocity 0
000002t:  Note on ::  Channel 9.  Note 42.  Velocity 0
000023t:  Note on ::  Channel 9.  Note 42.  Velocity 127
000025t:  Note on ::  Channel 9.  Note 42.  Velocity 0
000024t:  Note on ::  Channel 9.  Note 38.  Velocity 127
000000t:  Note on ::  Channel 9.  Note 36.  Velocity 127
000000t:  Note on ::  Channel 9.  Note 42.  Velocity 127
000023t:  Note on ::  Channel 9.  Note 42.  Velocity 0
000000t:  Note on ::  Channel 9.  Note 36.  Velocity 0
000000t:  Note on ::  Channel 9.  Note 38.  Velocity 0
000024t:  Note on ::  Channel 9.  Note 42.  Velocity 127
000023t:  Note on ::  Channel 9.  Note 42.  Velocity 0
000026t:  Note on ::  Channel 9.  Note 36.  Velocity 127
000000t:  Note on ::  Channel 9.  Note 42.  Velocity 127
000023t:  Note on ::  Channel 9.  Note 42.  Velocity 0
000000t:  Note on ::  Channel 9.  Note 36.  Velocity 0
000024t:  Note on ::  Channel 9.  Note 42.  Velocity 127
000022t:  Note on ::  Channel 9.  Note 42.  Velocity 0
000027t:  Note on ::  Channel 9.  Note 38.  Velocity 127
000000t:  Note on ::  Channel 9.  Note 36.  Velocity 127
000001t:  Note on ::  Channel 9.  Note 42.  Velocity 127
000022t:  Note on ::  Channel 9.  Note 36.  Velocity 0
000000t:  Note on ::  Channel 9.  Note 38.  Velocity 0
000001t:  Note on ::  Channel 9.  Note 42.  Velocity 0
000024t:  Note on ::  Channel 9.  Note 42.  Velocity 127
000021t:  Note on ::  Channel 9.  Note 42.  Velocity 0
000027t:  Note on ::  Channel 9.  Note 36.  Velocity 127
000000t:  Note on ::  Channel 9.  Note 42.  Velocity 127
000018t:  Note on ::  Channel 9.  Note 42.  Velocity 0
000005t:  Note on ::  Channel 9.  Note 36.  Velocity 0
000025t:  Note on ::  Channel 9.  Note 42.  Velocity 127
000018t:  Note on ::  Channel 9.  Note 42.  Velocity 0
000031t:  Note on ::  Channel 9.  Note 36.  Velocity 127
000000t:  Note on ::  Channel 9.  Note 38.  Velocity 127
000000t:  Note on ::  Channel 9.  Note 42.  Velocity 127
000019t:  Note on ::  Channel 9.  Note 42.  Velocity 0
000004t:  Note on ::  Channel 9.  Note 38.  Velocity 0
000000t:  Note on ::  Channel 9.  Note 36.  Velocity 0
000024t:  Note on ::  Channel 9.  Note 42.  Velocity 127
000014t:  Note on ::  Channel 9.  Note 42.  Velocity 0
000035t:  Note on ::  Channel 9.  Note 36.  Velocity 127
000000t:  Note on ::  Channel 9.  Note 42.  Velocity 127
000020t:  Note on ::  Channel 9.  Note 42.  Velocity 0
000003t:  Note on ::  Channel 9.  Note 36.  Velocity 0
000024t:  Note on ::  Channel 9.  Note 42.  Velocity 127
000024t:  Note on ::  Channel 9.  Note 42.  Velocity 0
000025t:  Note on ::  Channel 9.  Note 36.  Velocity 127
000000t:  Note on ::  Channel 9.  Note 38.  Velocity 127
000001t:  Note on ::  Channel 9.  Note 42.  Velocity 127
000022t:  Note on ::  Channel 9.  Note 36.  Velocity 0
000001t:  Note on ::  Channel 9.  Note 42.  Velocity 0
000000t:  Note on ::  Channel 9.  Note 38.  Velocity 0
000024t:  Note on ::  Channel 9.  Note 42.  Velocity 127
000024t:  Note on ::  Channel 9.  Note 42.  Velocity 0
000025t:  Note on ::  Channel 9.  Note 36.  Velocity 127
000000t:  Note on ::  Channel 9.  Note 42.  Velocity 127
000023t:  Note on ::  Channel 9.  Note 36.  Velocity 0
000001t:  Note on ::  Channel 9.  Note 42.  Velocity 0
000023t:  Note on ::  Channel 9.  Note 42.  Velocity 127
000020t:  Note on ::  Channel 9.  Note 42.  Velocity 0
000029t:  Note on ::  Channel 9.  Note 36.  Velocity 127
000000t:  Note on ::  Channel 9.  Note 38.  Velocity 127
000000t:  Note on ::  Channel 9.  Note 42.  Velocity 127
000022t:  Note on ::  Channel 9.  Note 42.  Velocity 0
000001t:  Note on ::  Channel 9.  Note 38.  Velocity 0
000000t:  Note on ::  Channel 9.  Note 36.  Velocity 0
000024t:  Note on ::  Channel 9.  Note 42.  Velocity 127
000023t:  Note on ::  Channel 9.  Note 42.  Velocity 0
000026t:  Note on ::  Channel 9.  Note 36.  Velocity 127
000000t:  Note on ::  Channel 9.  Note 42.  Velocity 127
000023t:  Note on ::  Channel 9.  Note 42.  Velocity 0
000000t:  Note on ::  Channel 9.  Note 36.  Velocity 0
000025t:  Note on ::  Channel 9.  Note 42.  Velocity 127
000025t:  Note on ::  Channel 9.  Note 42.  Velocity 0
000023t:  Note on ::  Channel 9.  Note 36.  Velocity 127
000000t:  Note on ::  Channel 9.  Note 38.  Velocity 127
000001t:  Note on ::  Channel 9.  Note 42.  Velocity 127
000022t:  Note on ::  Channel 9.  Note 38.  Velocity 0
000000t:  Note on ::  Channel 9.  Note 36.  Velocity 0
000002t:  Note on ::  Channel 9.  Note 42.  Velocity 0
000023t:  Note on ::  Channel 9.  Note 42.  Velocity 127
000026t:  Note on ::  Channel 9.  Note 42.  Velocity 0
000023t:  Note on ::  Channel 9.  Note 36.  Velocity 127
000000t:  Note on ::  Channel 9.  Note 42.  Velocity 127
000023t:  Note on ::  Channel 9.  Note 36.  Velocity 0
000004t:  Note on ::  Channel 9.  Note 42.  Velocity 0
000020t:  Note on ::  Channel 9.  Note 42.  Velocity 127
000017t:  Control change ::  Channel 9.  Controller 7.  Value: 125
000005t:  Note on ::  Channel 9.  Note 42.  Velocity 0
000027t:  Note on ::  Channel 9.  Note 38.  Velocity 127
000000t:  Note on ::  Channel 9.  Note 36.  Velocity 127
000001t:  Note on ::  Channel 9.  Note 42.  Velocity 127
000022t:  Note on ::  Channel 9.  Note 42.  Velocity 0
000000t:  Note on ::  Channel 9.  Note 36.  Velocity 0
000000t:  Note on ::  Channel 9.  Note 38.  Velocity 0
000025t:  Note on ::  Channel 9.  Note 42.  Velocity 127
000024t:  Note on ::  Channel 9.  Note 42.  Velocity 0
000024t:  Note on ::  Channel 9.  Note 36.  Velocity 127
000001t:  Note on ::  Channel 9.  Note 42.  Velocity 127
000022t:  Note on ::  Channel 9.  Note 36.  Velocity 0
000002t:  Note on ::  Channel 9.  Note 42.  Velocity 0
000017t:  Control change ::  Channel 9.  Controller 7.  Value: 124
000006t:  Note on ::  Channel 9.  Note 42.  Velocity 127
000024t:  Note on ::  Channel 9.  Note 42.  Velocity 0
000025t:  Note on ::  Channel 9.  Note 36.  Velocity 127
000000t:  Note on ::  Channel 9.  Note 38.  Velocity 127
000000t:  Note on ::  Channel 9.  Note 42.  Velocity 127
000015t:  Control change ::  Channel 9.  Controller 7.  Value: 123
000008t:  Note on ::  Channel 9.  Note 38.  Velocity 0
000000t:  Note on ::  Channel 9.  Note 36.  Velocity 0
000001t:  Note on ::  Channel 9.  Note 42.  Velocity 0
000023t:  Note on ::  Channel 9.  Note 42.  Velocity 127
000026t:  Note on ::  Channel 9.  Note 42.  Velocity 0
000023t:  Note on ::  Channel 9.  Note 36.  Velocity 127
000000t:  Note on ::  Channel 9.  Note 42.  Velocity 127
000004t:  Control change ::  Channel 9.  Controller 7.  Value: 122
000019t:  Note on ::  Channel 9.  Note 36.  Velocity 0
000001t:  Note on ::  Channel 9.  Note 42.  Velocity 0
000023t:  Note on ::  Channel 9.  Note 42.  Velocity 127
000026t:  Note on ::  Channel 9.  Note 42.  Velocity 0
000018t:  Control change ::  Channel 9.  Controller 7.  Value: 121
000005t:  Note on ::  Channel 9.  Note 38.  Velocity 127
000000t:  Note on ::  Channel 9.  Note 36.  Velocity 127
000001t:  Note on ::  Channel 9.  Note 42.  Velocity 127
000022t:  Note on ::  Channel 9.  Note 42.  Velocity 0
000000t:  Note on ::  Channel 9.  Note 38.  Velocity 0
000001t:  Note on ::  Channel 9.  Note 36.  Velocity 0
000024t:  Note on ::  Channel 9.  Note 42.  Velocity 127
000008t:  Control change ::  Channel 9.  Controller 7.  Value: 120
000015t:  Note on ::  Channel 9.  Note 42.  Velocity 0
000017t:  Control change ::  Channel 9.  Controller 7.  Value: 119
000009t:  Note on ::  Channel 9.  Note 36.  Velocity 127
000000t:  Note on ::  Channel 9.  Note 42.  Velocity 127
000023t:  Note on ::  Channel 9.  Note 42.  Velocity 0
000000t:  Note on ::  Channel 9.  Note 36.  Velocity 0
000024t:  Note on ::  Channel 9.  Note 42.  Velocity 127
000019t:  Control change ::  Channel 9.  Controller 7.  Value: 118
000003t:  Note on ::  Channel 9.  Note 42.  Velocity 0
000027t:  Note on ::  Channel 9.  Note 38.  Velocity 127
000000t:  Note on ::  Channel 9.  Note 36.  Velocity 127
000000t:  Note on ::  Channel 9.  Note 42.  Velocity 127
000023t:  Note on ::  Channel 9.  Note 42.  Velocity 0
000000t:  Note on ::  Channel 9.  Note 36.  Velocity 0
000000t:  Note on ::  Channel 9.  Note 38.  Velocity 0
000024t:  Note on ::  Channel 9.  Note 42.  Velocity 127
000003t:  Control change ::  Channel 9.  Controller 7.  Value: 117
000019t:  Note on ::  Channel 9.  Note 42.  Velocity 0
000009t:  Control change ::  Channel 9.  Controller 7.  Value: 116
000018t:  Note on ::  Channel 9.  Note 36.  Velocity 127
000000t:  Note on ::  Channel 9.  Note 42.  Velocity 127
000018t:  Note on ::  Channel 9.  Note 42.  Velocity 0
000005t:  Note on ::  Channel 9.  Note 36.  Velocity 0
000025t:  Note on ::  Channel 9.  Note 42.  Velocity 127
000010t:  Control change ::  Channel 9.  Controller 7.  Value: 115
000007t:  Note on ::  Channel 9.  Note 42.  Velocity 0
000026t:  Control change ::  Channel 9.  Controller 7.  Value: 114
000005t:  Note on ::  Channel 9.  Note 38.  Velocity 127
000001t:  Note on ::  Channel 9.  Note 36.  Velocity 127
000000t:  Note on ::  Channel 9.  Note 42.  Velocity 127
000018t:  Note on ::  Channel 9.  Note 42.  Velocity 0
000004t:  Note on ::  Channel 9.  Note 38.  Velocity 0
000001t:  Note on ::  Channel 9.  Note 36.  Velocity 0
000024t:  Note on ::  Channel 9.  Note 42.  Velocity 127
000004t:  Control change ::  Channel 9.  Controller 7.  Value: 113
000011t:  Note on ::  Channel 9.  Note 42.  Velocity 0
000021t:  Control change ::  Channel 9.  Controller 7.  Value: 112
000013t:  Note on ::  Channel 9.  Note 36.  Velocity 127
000000t:  Note on ::  Channel 9.  Note 42.  Velocity 127
000009t:  Control change ::  Channel 9.  Controller 7.  Value: 111
000011t:  Note on ::  Channel 9.  Note 42.  Velocity 0
000003t:  Note on ::  Channel 9.  Note 36.  Velocity 0
000024t:  Note on ::  Channel 9.  Note 42.  Velocity 127
000023t:  Note on ::  Channel 9.  Note 42.  Velocity 0
000011t:  Control change ::  Channel 9.  Controller 7.  Value: 110
000015t:  Note on ::  Channel 9.  Note 38.  Velocity 127
000000t:  Note on ::  Channel 9.  Note 36.  Velocity 127
000000t:  Note on ::  Channel 9.  Note 42.  Velocity 127
000023t:  Note on ::  Channel 9.  Note 42.  Velocity 0
000000t:  Note on ::  Channel 9.  Note 36.  Velocity 0
000000t:  Note on ::  Channel 9.  Note 38.  Velocity 0
000008t:  Control change ::  Channel 9.  Controller 7.  Value: 109
000016t:  Note on ::  Channel 9.  Note 42.  Velocity 127
000014t:  Control change ::  Channel 9.  Controller 7.  Value: 108
000011t:  Note on ::  Channel 9.  Note 42.  Velocity 0
000020t:  Control change ::  Channel 9.  Controller 7.  Value: 107
000004t:  Note on ::  Channel 9.  Note 36.  Velocity 127
000000t:  Note on ::  Channel 9.  Note 42.  Velocity 127
000023t:  Note on ::  Channel 9.  Note 36.  Velocity 0
000004t:  Note on ::  Channel 9.  Note 42.  Velocity 0
000021t:  Control change ::  Channel 9.  Controller 7.  Value: 106
000000t:  Note on ::  Channel 9.  Note 42.  Velocity 127
000023t:  Note on ::  Channel 9.  Note 42.  Velocity 0
000005t:  Control change ::  Channel 9.  Controller 7.  Value: 105
000021t:  Note on ::  Channel 9.  Note 36.  Velocity 127
000000t:  Note on ::  Channel 9.  Note 38.  Velocity 127
000000t:  Note on ::  Channel 9.  Note 42.  Velocity 127
000021t:  Note on ::  Channel 9.  Note 42.  Velocity 0
000002t:  Note on ::  Channel 9.  Note 38.  Velocity 0
000000t:  Note on ::  Channel 9.  Note 36.  Velocity 0
000024t:  Note on ::  Channel 9.  Note 42.  Velocity 127
000020t:  Note on ::  Channel 9.  Note 42.  Velocity 0
000002t:  Control change ::  Channel 9.  Controller 7.  Value: 104
000023t:  Control change ::  Channel 9.  Controller 7.  Value: 103
000004t:  Note on ::  Channel 9.  Note 36.  Velocity 127
000000t:  Note on ::  Channel 9.  Note 42.  Velocity 127
000019t:  Note on ::  Channel 9.  Note 42.  Velocity 0
000004t:  Note on ::  Channel 9.  Note 36.  Velocity 0
000024t:  Note on ::  Channel 9.  Note 42.  Velocity 127
000017t:  Control change ::  Channel 9.  Controller 7.  Value: 102
000005t:  Note on ::  Channel 9.  Note 42.  Velocity 0
000016t:  Control change ::  Channel 9.  Controller 7.  Value: 101
000011t:  Note on ::  Channel 9.  Note 38.  Velocity 127
000000t:  Note on ::  Channel 9.  Note 36.  Velocity 127
000001t:  Note on ::  Channel 9.  Note 42.  Velocity 127
000017t:  Control change ::  Channel 9.  Controller 7.  Value: 100
000005t:  Note on ::  Channel 9.  Note 36.  Velocity 0
000000t:  Note on ::  Channel 9.  Note 38.  Velocity 0
000002t:  Note on ::  Channel 9.  Note 42.  Velocity 0
000023t:  Note on ::  Channel 9.  Note 42.  Velocity 127
000002t:  Control change ::  Channel 9.  Controller 7.  Value: 99
000021t:  Note on ::  Channel 9.  Note 42.  Velocity 0
000001t:  Control change ::  Channel 9.  Controller 7.  Value: 98
000025t:  Note on ::  Channel 9.  Note 36.  Velocity 127
000000t:  Note on ::  Channel 9.  Note 42.  Velocity 127
000004t:  Control change ::  Channel 9.  Controller 7.  Value: 97
000017t:  Note on ::  Channel 9.  Note 42.  Velocity 0
000001t:  Note on ::  Channel 9.  Note 36.  Velocity 0
000011t:  Control change ::  Channel 9.  Controller 7.  Value: 96
000011t:  Control change ::  Channel 9.  Controller 7.  Value: 95
000003t:  Note on ::  Channel 9.  Note 42.  Velocity 127
000015t:  Control change ::  Channel 9.  Controller 7.  Value: 94
000004t:  Note on ::  Channel 9.  Note 42.  Velocity 0
000030t:  Note on ::  Channel 9.  Note 36.  Velocity 127
000000t:  Note on ::  Channel 9.  Note 38.  Velocity 127
000000t:  Note on ::  Channel 9.  Note 42.  Velocity 127
000009t:  Control change ::  Channel 9.  Controller 7.  Value: 93
000010t:  Note on ::  Channel 9.  Note 42.  Velocity 0
000004t:  Note on ::  Channel 9.  Note 38.  Velocity 0
000000t:  Note on ::  Channel 9.  Note 36.  Velocity 0
000019t:  Control change ::  Channel 9.  Controller 7.  Value: 92
000005t:  Note on ::  Channel 9.  Note 42.  Velocity 127
000019t:  Note on ::  Channel 9.  Note 42.  Velocity 0
000004t:  Control change ::  Channel 9.  Controller 7.  Value: 91
000026t:  Note on ::  Channel 9.  Note 36.  Velocity 127
000000t:  Note on ::  Channel 9.  Note 42.  Velocity 127
000019t:  Note on ::  Channel 9.  Note 42.  Velocity 0
000004t:  Note on ::  Channel 9.  Note 36.  Velocity 0
000016t:  Control change ::  Channel 9.  Controller 7.  Value: 90
000008t:  Note on ::  Channel 9.  Note 42.  Velocity 127
000022t:  Note on ::  Channel 9.  Note 42.  Velocity 0
000018t:  Control change ::  Channel 9.  Controller 7.  Value: 89
000009t:  Note on ::  Channel 9.  Note 36.  Velocity 127
000000t:  Note on ::  Channel 9.  Note 38.  Velocity 127
000001t:  Note on ::  Channel 9.  Note 42.  Velocity 127
000022t:  Note on ::  Channel 9.  Note 38.  Velocity 0
000000t:  Note on ::  Channel 9.  Note 36.  Velocity 0
000002t:  Note on ::  Channel 9.  Note 42.  Velocity 0
000005t:  Control change ::  Channel 9.  Controller 7.  Value: 88
000018t:  Control change ::  Channel 9.  Controller 7.  Value: 87
000000t:  Note on ::  Channel 9.  Note 42.  Velocity 127
000027t:  Note on ::  Channel 9.  Note 42.  Velocity 0
000020t:  Control change ::  Channel 9.  Controller 7.  Value: 86
000002t:  Note on ::  Channel 9.  Note 36.  Velocity 127
000000t:  Note on ::  Channel 9.  Note 42.  Velocity 127
000012t:  Control change ::  Channel 9.  Controller 7.  Value: 85
000011t:  Note on ::  Channel 9.  Note 36.  Velocity 0
000004t:  Control change ::  Channel 9.  Controller 7.  Value: 84
000008t:  Note on ::  Channel 9.  Note 42.  Velocity 0
000000t:  Control change ::  Channel 9.  Controller 7.  Value: 83
000012t:  Note on ::  Channel 9.  Note 42.  Velocity 127
000010t:  Control change ::  Channel 9.  Controller 7.  Value: 82
000014t:  Note on ::  Channel 9.  Note 42.  Velocity 0
000025t:  Note on ::  Channel 9.  Note 38.  Velocity 127
000000t:  Note on ::  Channel 9.  Note 36.  Velocity 127
000000t:  Note on ::  Channel 9.  Note 42.  Velocity 127
000011t:  Control change ::  Channel 9.  Controller 7.  Value: 81
000008t:  Note on ::  Channel 9.  Note 42.  Velocity 0
000004t:  Note on ::  Channel 9.  Note 36.  Velocity 0
000000t:  Note on ::  Channel 9.  Note 38.  Velocity 0
000016t:  Control change ::  Channel 9.  Controller 7.  Value: 80
000008t:  Note on ::  Channel 9.  Note 42.  Velocity 127
000018t:  Control change ::  Channel 9.  Controller 7.  Value: 79
000003t:  Note on ::  Channel 9.  Note 42.  Velocity 0
000028t:  Note on ::  Channel 9.  Note 36.  Velocity 127
000000t:  Note on ::  Channel 9.  Note 42.  Velocity 127
000012t:  Control change ::  Channel 9.  Controller 7.  Value: 78
000009t:  Note on ::  Channel 9.  Note 42.  Velocity 0
000002t:  Note on ::  Channel 9.  Note 36.  Velocity 0
000018t:  Control change ::  Channel 9.  Controller 7.  Value: 77
000007t:  Note on ::  Channel 9.  Note 42.  Velocity 127
000008t:  Control change ::  Channel 9.  Controller 7.  Value: 76
000012t:  Note on ::  Channel 9.  Note 42.  Velocity 0
000024t:  Control change ::  Channel 9.  Controller 7.  Value: 75
000005t:  Note on ::  Channel 9.  Note 36.  Velocity 127
000000t:  Note on ::  Channel 9.  Note 38.  Velocity 127
000000t:  Note on ::  Channel 9.  Note 42.  Velocity 127
000020t:  Control change ::  Channel 9.  Controller 7.  Value: 74
000003t:  Note on ::  Channel 9.  Note 42.  Velocity 0
000000t:  Note on ::  Channel 9.  Note 38.  Velocity 0
000000t:  Note on ::  Channel 9.  Note 36.  Velocity 0
000012t:  Control change ::  Channel 9.  Controller 7.  Value: 73
000012t:  Note on ::  Channel 9.  Note 42.  Velocity 127
000003t:  Control change ::  Channel 9.  Controller 7.  Value: 72
000020t:  Note on ::  Channel 9.  Note 42.  Velocity 0
000001t:  Control change ::  Channel 9.  Controller 7.  Value: 71
000022t:  Control change ::  Channel 9.  Controller 7.  Value: 70
000003t:  Note on ::  Channel 9.  Note 36.  Velocity 127
000000t:  Note on ::  Channel 9.  Note 42.  Velocity 127
000023t:  Note on ::  Channel 9.  Note 36.  Velocity 0
000004t:  Control change ::  Channel 9.  Controller 7.  Value: 69
000003t:  Note on ::  Channel 9.  Note 42.  Velocity 0
000008t:  Control change ::  Channel 9.  Controller 7.  Value: 68
000009t:  Note on ::  Channel 9.  Note 42.  Velocity 127
000002t:  Control change ::  Channel 9.  Controller 7.  Value: 67
000004t:  Control change ::  Channel 9.  Controller 7.  Value: 66
000011t:  Control change ::  Channel 9.  Controller 7.  Value: 65
000006t:  Note on ::  Channel 9.  Note 42.  Velocity 0
000022t:  Control change ::  Channel 9.  Controller 7.  Value: 64
000004t:  Note on ::  Channel 9.  Note 36.  Velocity 127
000000t:  Note on ::  Channel 9.  Note 38.  Velocity 127
000001t:  Note on ::  Channel 9.  Note 42.  Velocity 127
000010t:  Control change ::  Channel 9.  Controller 7.  Value: 63
000009t:  Note on ::  Channel 9.  Note 42.  Velocity 0
000003t:  Note on ::  Channel 9.  Note 38.  Velocity 0
000000t:  Note on ::  Channel 9.  Note 36.  Velocity 0
000025t:  Note on ::  Channel 9.  Note 42.  Velocity 127
000010t:  Control change ::  Channel 9.  Controller 7.  Value: 62
000013t:  Note on ::  Channel 9.  Note 42.  Velocity 0
000025t:  Note on ::  Channel 9.  Note 36.  Velocity 127
000000t:  Note on ::  Channel 9.  Note 42.  Velocity 127
000023t:  Note on ::  Channel 9.  Note 42.  Velocity 0
000000t:  Note on ::  Channel 9.  Note 36.  Velocity 0
000003t:  Control change ::  Channel 9.  Controller 7.  Value: 61
000022t:  Control change ::  Channel 9.  Controller 7.  Value: 60
000000t:  Note on ::  Channel 9.  Note 42.  Velocity 127
000024t:  Note on ::  Channel 9.  Note 42.  Velocity 0
000010t:  Control change ::  Channel 9.  Controller 7.  Value: 59
000015t:  Note on ::  Channel 9.  Note 36.  Velocity 127
000000t:  Note on ::  Channel 9.  Note 38.  Velocity 127
000000t:  Note on ::  Channel 9.  Note 42.  Velocity 127
000016t:  Control change ::  Channel 9.  Controller 7.  Value: 58
000004t:  Note on ::  Channel 9.  Note 42.  Velocity 0
000003t:  Note on ::  Channel 9.  Note 38.  Velocity 0
000000t:  Note on ::  Channel 9.  Note 36.  Velocity 0
000024t:  Note on ::  Channel 9.  Note 42.  Velocity 127
000012t:  Control change ::  Channel 9.  Controller 7.  Value: 57
000010t:  Note on ::  Channel 9.  Note 42.  Velocity 0
000027t:  Control change ::  Channel 9.  Controller 7.  Value: 56
000000t:  Note on ::  Channel 9.  Note 36.  Velocity 127
000000t:  Note on ::  Channel 9.  Note 42.  Velocity 127
000023t:  Note on ::  Channel 9.  Note 36.  Velocity 0
000001t:  Note on ::  Channel 9.  Note 42.  Velocity 0
000004t:  Control change ::  Channel 9.  Controller 7.  Value: 55
000015t:  Control change ::  Channel 9.  Controller 7.  Value: 54
000004t:  Note on ::  Channel 9.  Note 42.  Velocity 127
000018t:  Control change ::  Channel 9.  Controller 7.  Value: 53
000003t:  Note on ::  Channel 9.  Note 42.  Velocity 0
000028t:  Note on ::  Channel 9.  Note 36.  Velocity 127
000000t:  Note on ::  Channel 9.  Note 38.  Velocity 127
000001t:  Note on ::  Channel 9.  Note 42.  Velocity 127
000021t:  Note on ::  Channel 9.  Note 42.  Velocity 0
000001t:  Note on ::  Channel 9.  Note 38.  Velocity 0
000000t:  Note on ::  Channel 9.  Note 36.  Velocity 0
000003t:  Control change ::  Channel 9.  Controller 7.  Value: 52
000022t:  Note on ::  Channel 9.  Note 42.  Velocity 127
000006t:  Control change ::  Channel 9.  Controller 7.  Value: 51
000017t:  Note on ::  Channel 9.  Note 42.  Velocity 0
000011t:  Control change ::  Channel 9.  Controller 7.  Value: 50
000009t:  Control change ::  Channel 9.  Controller 7.  Value: 49
000006t:  Note on ::  Channel 9.  Note 36.  Velocity 127
000000t:  Note on ::  Channel 9.  Note 42.  Velocity 127
000013t:  Control change ::  Channel 9.  Controller 7.  Value: 48
000010t:  Note on ::  Channel 9.  Note 42.  Velocity 0
000000t:  Note on ::  Channel 9.  Note 36.  Velocity 0
000024t:  Note on ::  Channel 9.  Note 42.  Velocity 127
000010t:  Control change ::  Channel 9.  Controller 7.  Value: 47
000016t:  Note on ::  Channel 9.  Note 42.  Velocity 0
000001t:  Control change ::  Channel 9.  Controller 7.  Value: 46
000022t:  Control change ::  Channel 9.  Controller 7.  Value: 45
000000t:  Note on ::  Channel 9.  Note 36.  Velocity 127
000000t:  Note on ::  Channel 9.  Note 38.  Velocity 127
000001t:  Note on ::  Channel 9.  Note 42.  Velocity 127
000018t:  Control change ::  Channel 9.  Controller 7.  Value: 44
000004t:  Note on ::  Channel 9.  Note 38.  Velocity 0
000000t:  Note on ::  Channel 9.  Note 36.  Velocity 0
000001t:  Note on ::  Channel 9.  Note 42.  Velocity 0
000009t:  Control change ::  Channel 9.  Controller 7.  Value: 43
000014t:  Note on ::  Channel 9.  Note 42.  Velocity 127
000026t:  Note on ::  Channel 9.  Note 42.  Velocity 0
000000t:  Control change ::  Channel 9.  Controller 7.  Value: 42
000011t:  Control change ::  Channel 9.  Controller 7.  Value: 41
000011t:  Control change ::  Channel 9.  Controller 7.  Value: 40
000002t:  Note on ::  Channel 9.  Note 36.  Velocity 127
000000t:  Note on ::  Channel 9.  Note 42.  Velocity 127
000022t:  Note on ::  Channel 9.  Note 36.  Velocity 0
000001t:  Control change ::  Channel 9.  Controller 7.  Value: 39
000003t:  Note on ::  Channel 9.  Note 42.  Velocity 0
000012t:  Control change ::  Channel 9.  Controller 7.  Value: 38
000009t:  Note on ::  Channel 9.  Note 42.  Velocity 127
000002t:  Control change ::  Channel 9.  Controller 7.  Value: 37
000018t:  Control change ::  Channel 9.  Controller 7.  Value: 36
000002t:  Note on ::  Channel 9.  Note 42.  Velocity 0
000026t:  Note on ::  Channel 9.  Note 36.  Velocity 127
000001t:  Note on ::  Channel 9.  Note 38.  Velocity 127
000000t:  Note on ::  Channel 9.  Note 42.  Velocity 127
000017t:  Control change ::  Channel 9.  Controller 7.  Value: 35
000005t:  Note on ::  Channel 9.  Note 42.  Velocity 0
000000t:  Note on ::  Channel 9.  Note 36.  Velocity 0
000001t:  Note on ::  Channel 9.  Note 38.  Velocity 0
000013t:  Control change ::  Channel 9.  Controller 7.  Value: 34
000011t:  Note on ::  Channel 9.  Note 42.  Velocity 127
000015t:  Control change ::  Channel 9.  Controller 7.  Value: 33
000009t:  Note on ::  Channel 9.  Note 42.  Velocity 0
000015t:  Control change ::  Channel 9.  Controller 7.  Value: 32
000010t:  Note on ::  Channel 9.  Note 36.  Velocity 127
000000t:  Note on ::  Channel 9.  Note 42.  Velocity 127
000016t:  Control change ::  Channel 9.  Controller 7.  Value: 31
000007t:  Note on ::  Channel 9.  Note 36.  Velocity 0
000001t:  Note on ::  Channel 9.  Note 42.  Velocity 0
000021t:  Control change ::  Channel 9.  Controller 7.  Value: 30
000002t:  Note on ::  Channel 9.  Note 42.  Velocity 127
000025t:  Note on ::  Channel 9.  Note 42.  Velocity 0
000001t:  Control change ::  Channel 9.  Controller 7.  Value: 29
000012t:  Control change ::  Channel 9.  Controller 7.  Value: 28
000011t:  Note on ::  Channel 9.  Note 36.  Velocity 127
000000t:  Note on ::  Channel 9.  Note 38.  Velocity 127
000001t:  Note on ::  Channel 9.  Note 42.  Velocity 127
000022t:  Note on ::  Channel 9.  Note 38.  Velocity 0
000000t:  Note on ::  Channel 9.  Note 36.  Velocity 0
000001t:  Note on ::  Channel 9.  Note 42.  Velocity 0
000001t:  Control change ::  Channel 9.  Controller 7.  Value: 27
000018t:  Control change ::  Channel 9.  Controller 7.  Value: 26
000004t:  Note on ::  Channel 9.  Note 42.  Velocity 127
000011t:  Control change ::  Channel 9.  Controller 7.  Value: 25
000007t:  Control change ::  Channel 9.  Controller 7.  Value: 24
000008t:  Note on ::  Channel 9.  Note 42.  Velocity 0
000017t:  Control change ::  Channel 9.  Controller 7.  Value: 23
000006t:  Control change ::  Channel 9.  Controller 7.  Value: 22
000001t:  Note on ::  Channel 9.  Note 36.  Velocity 127
000000t:  Note on ::  Channel 9.  Note 42.  Velocity 127
000012t:  Control change ::  Channel 9.  Controller 7.  Value: 21
000008t:  Control change ::  Channel 9.  Controller 7.  Value: 20
000002t:  Note on ::  Channel 9.  Note 36.  Velocity 0
000002t:  Note on ::  Channel 9.  Note 42.  Velocity 0
000007t:  Control change ::  Channel 9.  Controller 7.  Value: 19
000006t:  Control change ::  Channel 9.  Controller 7.  Value: 18
000008t:  Control change ::  Channel 9.  Controller 7.  Value: 17
000002t:  Note on ::  Channel 9.  Note 42.  Velocity 127
000023t:  Control change ::  Channel 9.  Controller 7.  Value: 16
000003t:  Note on ::  Channel 9.  Note 42.  Velocity 0
000016t:  Control change ::  Channel 9.  Controller 7.  Value: 15
000007t:  Note on ::  Channel 9.  Note 38.  Velocity 127
000000t:  Note on ::  Channel 9.  Note 36.  Velocity 127
000000t:  Note on ::  Channel 9.  Note 42.  Velocity 127
000011t:  Control change ::  Channel 9.  Controller 7.  Value: 14
000010t:  Control change ::  Channel 9.  Controller 7.  Value: 13
000002t:  Note on ::  Channel 9.  Note 42.  Velocity 0
000000t:  Note on ::  Channel 9.  Note 38.  Velocity 0
000001t:  Note on ::  Channel 9.  Note 36.  Velocity 0
000012t:  Control change ::  Channel 9.  Controller 7.  Value: 12
000011t:  Note on ::  Channel 9.  Note 42.  Velocity 127
000022t:  Control change ::  Channel 9.  Controller 7.  Value: 11
000002t:  Note on ::  Channel 9.  Note 42.  Velocity 0
000010t:  Control change ::  Channel 9.  Controller 7.  Value: 10
000007t:  Control change ::  Channel 9.  Controller 7.  Value: 9
000008t:  Note on ::  Channel 9.  Note 36.  Velocity 127
000000t:  Note on ::  Channel 9.  Note 42.  Velocity 127
000023t:  Note on ::  Channel 9.  Note 42.  Velocity 0
000000t:  Note on ::  Channel 9.  Note 36.  Velocity 0
000004t:  Control change ::  Channel 9.  Controller 7.  Value: 8
000004t:  Control change ::  Channel 9.  Controller 7.  Value: 7
000004t:  Control change ::  Channel 9.  Controller 7.  Value: 6
000004t:  Control change ::  Channel 9.  Controller 7.  Value: 5
000007t:  Control change ::  Channel 9.  Controller 7.  Value: 4
000002t:  Note on ::  Channel 9.  Note 42.  Velocity 127
000006t:  Control change ::  Channel 9.  Controller 7.  Value: 3
000015t:  Note on ::  Channel 9.  Note 42.  Velocity 0
000027t:  Note on ::  Channel 9.  Note 38.  Velocity 127
000000t:  Note on ::  Channel 9.  Note 36.  Velocity 127
000001t:  Note on ::  Channel 9.  Note 42.  Velocity 127
000000t:  Control change ::  Channel 9.  Controller 7.  Value: 2
000016t:  Control change ::  Channel 9.  Controller 7.  Value: 1
000006t:  Note on ::  Channel 9.  Note 42.  Velocity 0
000000t:  Note on ::  Channel 9.  Note 36.  Velocity 0
000000t:  Note on ::  Channel 9.  Note 38.  Velocity 0
000004t:  Control change ::  Channel 9.  Controller 7.  Value: 0
000021t:  Note on ::  Channel 9.  Note 42.  Velocity 127
000021t:  Note on ::  Channel 9.  Note 42.  Velocity 0
000028t:  Note on ::  Channel 9.  Note 36.  Velocity 127
000000t:  Note on ::  Channel 9.  Note 42.  Velocity 127
000017t:  Note on ::  Channel 9.  Note 42.  Velocity 0
000006t:  Note on ::  Channel 9.  Note 36.  Velocity 0
000024t:  Note on ::  Channel 9.  Note 42.  Velocity 127
000018t:  Note on ::  Channel 9.  Note 42.  Velocity 0
000031t:  Note on ::  Channel 9.  Note 36.  Velocity 127
000000t:  Note on ::  Channel 9.  Note 38.  Velocity 127
000000t:  Note on ::  Channel 9.  Note 42.  Velocity 127
000020t:  Note on ::  Channel 9.  Note 42.  Velocity 0
000003t:  Note on ::  Channel 9.  Note 38.  Velocity 0
000000t:  Note on ::  Channel 9.  Note 36.  Velocity 0
000024t:  Note on ::  Channel 9.  Note 42.  Velocity 127
000015t:  Note on ::  Channel 9.  Note 42.  Velocity 0
000034t:  Note on ::  Channel 9.  Note 36.  Velocity 127
000000t:  Note on ::  Channel 9.  Note 42.  Velocity 127
000020t:  Note on ::  Channel 9.  Note 42.  Velocity 0
000003t:  Note on ::  Channel 9.  Note 36.  Velocity 0
000025t:  Note on ::  Channel 9.  Note 42.  Velocity 127
000023t:  Note on ::  Channel 9.  Note 42.  Velocity 0
000025t:  Note on ::  Channel 9.  Note 38.  Velocity 127
000000t:  Note on ::  Channel 9.  Note 36.  Velocity 127
000001t:  Note on ::  Channel 9.  Note 42.  Velocity 127
000022t:  Note on ::  Channel 9.  Note 42.  Velocity 0
000000t:  Note on ::  Channel 9.  Note 38.  Velocity 0
000001t:  Note on ::  Channel 9.  Note 36.  Velocity 0
000024t:  Note on ::  Channel 9.  Note 42.  Velocity 127
000024t:  Note on ::  Channel 9.  Note 42.  Velocity 0
000025t:  Control change ::  Channel 9.  Controller 7.  Value: 127
000361t:  Control change ::  Channel 9.  Controller 64.  Value: 0
000001t:  Pitch wheel change ::  Channel 9.   -8192
000000t:  Meta-event type $2f (End-track event) of length 0
Sigma t = 60807

Track chunk of 46 bytes
000000t:  Meta-event type $21 (?) of length 1
	  _
000000t:  Meta-event type $03 (Track name) of length 20
	  Syn Brass 1         
000000t:  Program (patch) change ::  Channel 6.  Patch 63 (SynthBrass 2)
060783t:  Control change ::  Channel 6.  Controller 64.  Value: 0
000001t:  Pitch wheel change ::  Channel 6.   -8192
000000t:  Meta-event type $2f (End-track event) of length 0
Sigma t = 60784

Track chunk of 33 bytes
000000t:  Meta-event type $21 (?) of length 1
	  _
000000t:  Meta-event type $03 (Track name) of length 20
	                      
000000t:  Meta-event type $2f (End-track event) of length 0
Sigma t = 0

Track chunk of 33 bytes
000000t:  Meta-event type $21 (?) of length 1
	  _
000000t:  Meta-event type $03 (Track name) of length 20
	     "Take On Me"     
000000t:  Meta-event type $2f (End-track event) of length 0
Sigma t = 0
End.
