File: ../../sample-midi/Asia - Heat Of The Moment.mid
Format: 1
Tracks: 14
Ticks per quarter note: 48

Track chunk of 397 bytes
000000t:  Meta-event type $54 (?) of length 5
	  `____
000000t:  Meta-event type $21 (?) of length 1
	  _
000000t:  Sysex type f0 of length 9
000000t:  Meta-event type $21 (?) of length 1
	  _
000000t:  Meta-event type $58 (Time signature) of length 4
	  ____
000000t:  Meta-event type $59 (Key signature) of length 2
	  __
000000t:  Meta-event type $51 (Set tempo) of length 3
	  _'_
000432t:  Meta-event type $58 (Time signature) of length 4
	  ____
000576t:  Meta-event type $58 (Time signature) of length 4
	  ____
002304t:  Meta-event type $58 (Time signature) of length 4
	  ____
000192t:  Meta-event type $58 (Time signature) of length 4
	  ____
000768t:  Meta-event type $58 (Time signature) of length 4
	  ____
000192t:  Meta-event type $58 (Time signature) of length 4
	  ____
000768t:  Meta-event type $51 (Set tempo) of length 3
	  __Ü
000003t:  Meta-event type $51 (Set tempo) of length 3
	  __â
000003t:  Meta-event type $51 (Set tempo) of length 3
	  _ý_
000003t:  Meta-event type $51 (Set tempo) of length 3
	  _ï_
000003t:  Meta-event type $51 (Set tempo) of length 3
	  _â8
000003t:  Meta-event type $51 (Set tempo) of length 3
	  _Õ_
000003t:  Meta-event type $51 (Set tempo) of length 3
	  _È_
000003t:  Meta-event type $51 (Set tempo) of length 3
	  _»X
000939t:  Meta-event type $58 (Time signature) of length 4
	  ____
000384t:  Meta-event type $58 (Time signature) of length 4
	  ____
000216t:  Meta-event type $58 (Time signature) of length 4
	  ____
000960t:  Meta-event type $58 (Time signature) of length 4
	  ____
000240t:  Meta-event type $58 (Time signature) of length 4
	  ____
000096t:  Meta-event type $58 (Time signature) of length 4
	  ____
000384t:  Meta-event type $58 (Time signature) of length 4
	  ____
000072t:  Meta-event type $58 (Time signature) of length 4
	  ____
000192t:  Meta-event type $58 (Time signature) of length 4
	  ____
000960t:  Meta-event type $58 (Time signature) of length 4
	  ____
001536t:  Meta-event type $58 (Time signature) of length 4
	  ____
000144t:  Meta-event type $58 (Time signature) of length 4
	  ____
000192t:  Meta-event type $58 (Time signature) of length 4
	  ____
000096t:  Meta-event type $58 (Time signature) of length 4
	  ____
000576t:  Meta-event type $58 (Time signature) of length 4
	  ____
000096t:  Meta-event type $58 (Time signature) of length 4
	  ____
000288t:  Meta-event type $58 (Time signature) of length 4
	  ____
001728t:  Meta-event type $58 (Time signature) of length 4
	  ____
001152t:  Meta-event type $58 (Time signature) of length 4
	  ____
000360t:  Meta-event type $58 (Time signature) of length 4
	  ____
000192t:  Meta-event type $58 (Time signature) of length 4
	  ____
000192t:  Meta-event type $58 (Time signature) of length 4
	  ____
000768t:  Meta-event type $58 (Time signature) of length 4
	  ____
000216t:  Meta-event type $58 (Time signature) of length 4
	  ____
001152t:  Meta-event type $58 (Time signature) of length 4
	  ____
000384t:  Meta-event type $58 (Time signature) of length 4
	  ____
000000t:  Meta-event type $2f (End-track event) of length 0
Sigma t = 18768

Track chunk of 157 bytes
000000t:  Meta-event type $21 (?) of length 1
	  _
000000t:  Program (patch) change ::  Channel 0.  Patch 0 (Acoustic Grand)
000000t:  Control change ::  Channel 0.  Controller 7.  Value: 100
000000t:  Control change ::  Channel 0.  Controller 10.  Value: 64
000002t:  Meta-event type $21 (?) of length 1
	  _
000000t:  Sysex type f0 of length 9
000000t:  Meta-event type $21 (?) of length 1
	  _
000002t:  Meta-event type $21 (?) of length 1
	  _
000000t:  Sysex type f0 of length 9
000000t:  Meta-event type $21 (?) of length 1
	  _
000071t:  Control change ::  Channel 0.  Controller 11.  Value: 127
000005t:  Control change ::  Channel 0.  Controller 100.  Value: 0
000002t:  Control change ::  Channel 0.  Controller 101.  Value: 0
000002t:  Control change ::  Channel 0.  Controller 6.  Value: 16
000002t:  Pitch wheel change ::  Channel 0.   -8192
000008t:  Control change ::  Channel 0.  Controller 1.  Value: 0
000002t:  Meta-event type $21 (?) of length 1
	  _
000000t:  Sysex type f0 of length 9
000000t:  Meta-event type $21 (?) of length 1
	  _
000002t:  Control change ::  Channel 0.  Controller 65.  Value: 0
000002t:  Control change ::  Channel 0.  Controller 5.  Value: 0
000002t:  Meta-event type $21 (?) of length 1
	  _
000000t:  Sysex type f0 of length 9
000000t:  Meta-event type $21 (?) of length 1
	  _
000002t:  Meta-event type $21 (?) of length 1
	  _
000000t:  Sysex type f0 of length 9
000000t:  Meta-event type $21 (?) of length 1
	  _
000000t:  Meta-event type $2f (End-track event) of length 0
Sigma t = 104

Track chunk of 3424 bytes
000000t:  Meta-event type $21 (?) of length 1
	  _
000000t:  Program (patch) change ::  Channel 1.  Patch 90 (Pad 3 (polysynth))
000000t:  Control change ::  Channel 1.  Controller 7.  Value: 120
000000t:  Control change ::  Channel 1.  Controller 10.  Value: 64
000077t:  Control change ::  Channel 1.  Controller 11.  Value: 100
000005t:  Control change ::  Channel 1.  Controller 100.  Value: 0
000002t:  Control change ::  Channel 1.  Controller 101.  Value: 0
000002t:  Control change ::  Channel 1.  Controller 6.  Value: 16
000002t:  Pitch wheel change ::  Channel 1.   -8192
000008t:  Control change ::  Channel 1.  Controller 1.  Value: 42
000002t:  Meta-event type $21 (?) of length 1
	  _
000000t:  Sysex type f0 of length 9
000000t:  Meta-event type $21 (?) of length 1
	  _
000002t:  Control change ::  Channel 1.  Controller 65.  Value: 0
000002t:  Control change ::  Channel 1.  Controller 5.  Value: 0
000002t:  Meta-event type $21 (?) of length 1
	  _
000000t:  Sysex type f0 of length 9
000000t:  Meta-event type $21 (?) of length 1
	  _
000002t:  Meta-event type $21 (?) of length 1
	  _
000000t:  Sysex type f0 of length 9
000000t:  Meta-event type $21 (?) of length 1
	  _
000998t:  Pitch wheel change ::  Channel 1.   -8192
000024t:  Note on ::  Channel 1.  Note 63.  Velocity 82
000024t:  Note on ::  Channel 1.  Note 63.  Velocity 0
000000t:  Note on ::  Channel 1.  Note 63.  Velocity 94
000023t:  Pitch wheel change ::  Channel 1.   -8192
000001t:  Pitch wheel change ::  Channel 1.   -8192
000021t:  Note on ::  Channel 1.  Note 63.  Velocity 0
000003t:  Note on ::  Channel 1.  Note 63.  Velocity 94
000023t:  Pitch wheel change ::  Channel 1.   -8192
000001t:  Pitch wheel change ::  Channel 1.   -8192
000021t:  Note on ::  Channel 1.  Note 63.  Velocity 0
000003t:  Note on ::  Channel 1.  Note 63.  Velocity 90
000047t:  Note on ::  Channel 1.  Note 63.  Velocity 0
000000t:  Pitch wheel change ::  Channel 1.   -8192
000001t:  Note on ::  Channel 1.  Note 65.  Velocity 82
000024t:  Note on ::  Channel 1.  Note 65.  Velocity 0
000000t:  Note on ::  Channel 1.  Note 63.  Velocity 94
000048t:  Pitch wheel change ::  Channel 1.   -8192
000020t:  Note on ::  Channel 1.  Note 63.  Velocity 0
000004t:  Note on ::  Channel 1.  Note 63.  Velocity 94
000045t:  Note on ::  Channel 1.  Note 63.  Velocity 0
000147t:  Pitch wheel change ::  Channel 1.   -8192
000024t:  Note on ::  Channel 1.  Note 63.  Velocity 82
000024t:  Note on ::  Channel 1.  Note 63.  Velocity 0
000000t:  Note on ::  Channel 1.  Note 63.  Velocity 94
000024t:  Pitch wheel change ::  Channel 1.   -8192
000021t:  Note on ::  Channel 1.  Note 63.  Velocity 0
000003t:  Note on ::  Channel 1.  Note 63.  Velocity 94
000024t:  Pitch wheel change ::  Channel 1.   -8192
000021t:  Note on ::  Channel 1.  Note 63.  Velocity 0
000003t:  Note on ::  Channel 1.  Note 63.  Velocity 94
000046t:  Note on ::  Channel 1.  Note 63.  Velocity 0
000001t:  Pitch wheel change ::  Channel 1.   -8192
000001t:  Note on ::  Channel 1.  Note 65.  Velocity 90
000024t:  Note on ::  Channel 1.  Note 65.  Velocity 0
000000t:  Note on ::  Channel 1.  Note 63.  Velocity 94
000048t:  Pitch wheel change ::  Channel 1.   -8192
000020t:  Note on ::  Channel 1.  Note 63.  Velocity 0
000004t:  Note on ::  Channel 1.  Note 63.  Velocity 94
000048t:  Note on ::  Channel 1.  Note 63.  Velocity 0
000144t:  Pitch wheel change ::  Channel 1.   -8192
000024t:  Note on ::  Channel 1.  Note 63.  Velocity 84
000024t:  Note on ::  Channel 1.  Note 63.  Velocity 0
000000t:  Note on ::  Channel 1.  Note 63.  Velocity 94
000023t:  Pitch wheel change ::  Channel 1.   -8192
000001t:  Pitch wheel change ::  Channel 1.   -8192
000024t:  Note on ::  Channel 1.  Note 63.  Velocity 0
000000t:  Note on ::  Channel 1.  Note 63.  Velocity 94
000023t:  Pitch wheel change ::  Channel 1.   -8192
000001t:  Pitch wheel change ::  Channel 1.   -8192
000024t:  Note on ::  Channel 1.  Note 63.  Velocity 0
000000t:  Note on ::  Channel 1.  Note 63.  Velocity 94
000048t:  Note on ::  Channel 1.  Note 63.  Velocity 0
000000t:  Pitch wheel change ::  Channel 1.   -8192
000000t:  Note on ::  Channel 1.  Note 65.  Velocity 84
000024t:  Note on ::  Channel 1.  Note 65.  Velocity 0
000000t:  Note on ::  Channel 1.  Note 63.  Velocity 92
000048t:  Note on ::  Channel 1.  Note 63.  Velocity 0
000000t:  Note on ::  Channel 1.  Note 65.  Velocity 94
000024t:  Note on ::  Channel 1.  Note 65.  Velocity 0
000000t:  Note on ::  Channel 1.  Note 65.  Velocity 94
000048t:  Note on ::  Channel 1.  Note 65.  Velocity 0
000168t:  Note on ::  Channel 1.  Note 63.  Velocity 82
000024t:  Note on ::  Channel 1.  Note 63.  Velocity 0
000000t:  Note on ::  Channel 1.  Note 63.  Velocity 94
000023t:  Pitch wheel change ::  Channel 1.   -8192
000001t:  Pitch wheel change ::  Channel 1.   -8192
000024t:  Note on ::  Channel 1.  Note 63.  Velocity 0
000000t:  Note on ::  Channel 1.  Note 63.  Velocity 94
000023t:  Pitch wheel change ::  Channel 1.   -8192
000001t:  Pitch wheel change ::  Channel 1.   -8192
000024t:  Note on ::  Channel 1.  Note 63.  Velocity 0
000000t:  Note on ::  Channel 1.  Note 63.  Velocity 94
000048t:  Note on ::  Channel 1.  Note 63.  Velocity 0
000000t:  Pitch wheel change ::  Channel 1.   -8192
000000t:  Note on ::  Channel 1.  Note 65.  Velocity 88
000024t:  Note on ::  Channel 1.  Note 65.  Velocity 0
000000t:  Note on ::  Channel 1.  Note 63.  Velocity 94
000034t:  Note on ::  Channel 1.  Note 63.  Velocity 0
000002t:  Note on ::  Channel 1.  Note 61.  Velocity 86
000034t:  Note on ::  Channel 1.  Note 61.  Velocity 0
000002t:  Note on ::  Channel 1.  Note 61.  Velocity 94
000024t:  Pitch wheel change ::  Channel 1.   -8192
000001t:  Pitch wheel change ::  Channel 1.   -8192
000001t:  Pitch wheel change ::  Channel 1.   -8192
000001t:  Pitch wheel change ::  Channel 1.   -8192
000001t:  Pitch wheel change ::  Channel 1.   -8192
000256t:  Note on ::  Channel 1.  Note 61.  Velocity 0
000004t:  Pitch wheel change ::  Channel 1.   -8192
000120t:  Note on ::  Channel 1.  Note 63.  Velocity 86
000024t:  Note on ::  Channel 1.  Note 63.  Velocity 0
000000t:  Note on ::  Channel 1.  Note 63.  Velocity 94
000023t:  Pitch wheel change ::  Channel 1.   -8192
000001t:  Pitch wheel change ::  Channel 1.   -8192
000024t:  Note on ::  Channel 1.  Note 63.  Velocity 0
000000t:  Note on ::  Channel 1.  Note 63.  Velocity 94
000023t:  Pitch wheel change ::  Channel 1.   -8192
000001t:  Pitch wheel change ::  Channel 1.   -8192
000024t:  Note on ::  Channel 1.  Note 63.  Velocity 0
000000t:  Note on ::  Channel 1.  Note 63.  Velocity 94
000048t:  Note on ::  Channel 1.  Note 63.  Velocity 0
000000t:  Pitch wheel change ::  Channel 1.   -8192
000000t:  Note on ::  Channel 1.  Note 65.  Velocity 85
000024t:  Note on ::  Channel 1.  Note 65.  Velocity 0
000000t:  Note on ::  Channel 1.  Note 63.  Velocity 94
000048t:  Pitch wheel change ::  Channel 1.   -8192
000021t:  Note on ::  Channel 1.  Note 63.  Velocity 0
000003t:  Note on ::  Channel 1.  Note 63.  Velocity 94
000052t:  Note on ::  Channel 1.  Note 63.  Velocity 0
000000t:  Pitch wheel change ::  Channel 1.   -8192
000164t:  Note on ::  Channel 1.  Note 63.  Velocity 85
000024t:  Note on ::  Channel 1.  Note 63.  Velocity 0
000000t:  Note on ::  Channel 1.  Note 63.  Velocity 94
000023t:  Pitch wheel change ::  Channel 1.   -8192
000001t:  Pitch wheel change ::  Channel 1.   -8192
000024t:  Note on ::  Channel 1.  Note 63.  Velocity 0
000000t:  Note on ::  Channel 1.  Note 63.  Velocity 94
000023t:  Pitch wheel change ::  Channel 1.   -8192
000001t:  Pitch wheel change ::  Channel 1.   -8192
000024t:  Note on ::  Channel 1.  Note 63.  Velocity 0
000000t:  Note on ::  Channel 1.  Note 63.  Velocity 94
000047t:  Note on ::  Channel 1.  Note 63.  Velocity 0
000000t:  Pitch wheel change ::  Channel 1.   -8192
000001t:  Note on ::  Channel 1.  Note 65.  Velocity 94
000024t:  Note on ::  Channel 1.  Note 65.  Velocity 0
000000t:  Note on ::  Channel 1.  Note 63.  Velocity 94
000048t:  Note on ::  Channel 1.  Note 63.  Velocity 0
000000t:  Note on ::  Channel 1.  Note 61.  Velocity 94
000024t:  Note on ::  Channel 1.  Note 61.  Velocity 0
000000t:  Note on ::  Channel 1.  Note 61.  Velocity 94
000048t:  Note on ::  Channel 1.  Note 61.  Velocity 0
000168t:  Note on ::  Channel 1.  Note 63.  Velocity 86
000024t:  Note on ::  Channel 1.  Note 63.  Velocity 0
000000t:  Note on ::  Channel 1.  Note 63.  Velocity 94
000023t:  Pitch wheel change ::  Channel 1.   -8192
000001t:  Pitch wheel change ::  Channel 1.   -8192
000024t:  Note on ::  Channel 1.  Note 63.  Velocity 0
000000t:  Note on ::  Channel 1.  Note 63.  Velocity 94
000023t:  Pitch wheel change ::  Channel 1.   -8192
000001t:  Pitch wheel change ::  Channel 1.   -8192
000024t:  Note on ::  Channel 1.  Note 63.  Velocity 0
000000t:  Note on ::  Channel 1.  Note 63.  Velocity 94
000047t:  Note on ::  Channel 1.  Note 63.  Velocity 0
000000t:  Pitch wheel change ::  Channel 1.   -8192
000001t:  Note on ::  Channel 1.  Note 65.  Velocity 85
000024t:  Note on ::  Channel 1.  Note 65.  Velocity 0
000000t:  Note on ::  Channel 1.  Note 63.  Velocity 94
000048t:  Note on ::  Channel 1.  Note 63.  Velocity 0
000000t:  Note on ::  Channel 1.  Note 65.  Velocity 80
000024t:  Note on ::  Channel 1.  Note 65.  Velocity 0
000000t:  Note on ::  Channel 1.  Note 65.  Velocity 94
000048t:  Note on ::  Channel 1.  Note 65.  Velocity 0
000168t:  Note on ::  Channel 1.  Note 63.  Velocity 87
000024t:  Note on ::  Channel 1.  Note 63.  Velocity 0
000000t:  Note on ::  Channel 1.  Note 63.  Velocity 94
000023t:  Pitch wheel change ::  Channel 1.   -8192
000001t:  Pitch wheel change ::  Channel 1.   -8192
000024t:  Note on ::  Channel 1.  Note 63.  Velocity 0
000000t:  Note on ::  Channel 1.  Note 63.  Velocity 94
000023t:  Pitch wheel change ::  Channel 1.   -8192
000001t:  Pitch wheel change ::  Channel 1.   -8192
000024t:  Note on ::  Channel 1.  Note 63.  Velocity 0
000000t:  Note on ::  Channel 1.  Note 63.  Velocity 94
000047t:  Note on ::  Channel 1.  Note 63.  Velocity 0
000000t:  Pitch wheel change ::  Channel 1.   -8192
000001t:  Note on ::  Channel 1.  Note 65.  Velocity 85
000024t:  Note on ::  Channel 1.  Note 65.  Velocity 0
000000t:  Note on ::  Channel 1.  Note 63.  Velocity 94
000045t:  Note on ::  Channel 1.  Note 63.  Velocity 0
000003t:  Note on ::  Channel 1.  Note 61.  Velocity 87
000046t:  Note on ::  Channel 1.  Note 61.  Velocity 0
000002t:  Note on ::  Channel 1.  Note 61.  Velocity 88
000022t:  Pitch wheel change ::  Channel 1.   -8192
000001t:  Pitch wheel change ::  Channel 1.   -8192
000001t:  Pitch wheel change ::  Channel 1.   -8192
000226t:  Note on ::  Channel 1.  Note 61.  Velocity 0
000013t:  Pitch wheel change ::  Channel 1.   -8192
000001t:  Note on ::  Channel 1.  Note 60.  Velocity 94
000024t:  Pitch wheel change ::  Channel 1.   -8192
000023t:  Pitch wheel change ::  Channel 1.   -8192
000001t:  Note on ::  Channel 1.  Note 60.  Velocity 0
000000t:  Note on ::  Channel 1.  Note 63.  Velocity 87
000022t:  Note on ::  Channel 1.  Note 63.  Velocity 0
000002t:  Note on ::  Channel 1.  Note 65.  Velocity 94
000116t:  Note on ::  Channel 1.  Note 65.  Velocity 0
000004t:  Note on ::  Channel 1.  Note 63.  Velocity 94
000045t:  Note on ::  Channel 1.  Note 63.  Velocity 0
000003t:  Note on ::  Channel 1.  Note 65.  Velocity 94
000022t:  Note on ::  Channel 1.  Note 65.  Velocity 0
000002t:  Note on ::  Channel 1.  Note 63.  Velocity 86
000046t:  Note on ::  Channel 1.  Note 63.  Velocity 0
000002t:  Note on ::  Channel 1.  Note 61.  Velocity 84
000018t:  Note on ::  Channel 1.  Note 61.  Velocity 0
000150t:  Note on ::  Channel 1.  Note 65.  Velocity 94
000024t:  Pitch wheel change ::  Channel 1.   -8192
000024t:  Note on ::  Channel 1.  Note 65.  Velocity 0
000000t:  Pitch wheel change ::  Channel 1.   -8192
000000t:  Note on ::  Channel 1.  Note 65.  Velocity 94
000024t:  Note on ::  Channel 1.  Note 65.  Velocity 0
000000t:  Note on ::  Channel 1.  Note 63.  Velocity 94
000020t:  Note on ::  Channel 1.  Note 63.  Velocity 0
000028t:  Note on ::  Channel 1.  Note 68.  Velocity 94
000020t:  Note on ::  Channel 1.  Note 68.  Velocity 0
000028t:  Note on ::  Channel 1.  Note 70.  Velocity 94
000048t:  Note on ::  Channel 1.  Note 70.  Velocity 0
000000t:  Note on ::  Channel 1.  Note 65.  Velocity 92
000012t:  Pitch wheel change ::  Channel 1.   -8192
000011t:  Note on ::  Channel 1.  Note 65.  Velocity 0
000000t:  Pitch wheel change ::  Channel 1.   -8192
000001t:  Note on ::  Channel 1.  Note 61.  Velocity 94
000058t:  Note on ::  Channel 1.  Note 61.  Velocity 0
000062t:  Note on ::  Channel 1.  Note 54.  Velocity 81
000022t:  Note on ::  Channel 1.  Note 54.  Velocity 0
000002t:  Note on ::  Channel 1.  Note 65.  Velocity 94
000092t:  Note on ::  Channel 1.  Note 65.  Velocity 0
000004t:  Note on ::  Channel 1.  Note 63.  Velocity 94
000045t:  Note on ::  Channel 1.  Note 63.  Velocity 0
000003t:  Note on ::  Channel 1.  Note 65.  Velocity 94
000022t:  Note on ::  Channel 1.  Note 65.  Velocity 0
000002t:  Note on ::  Channel 1.  Note 63.  Velocity 88
000046t:  Note on ::  Channel 1.  Note 63.  Velocity 0
000002t:  Note on ::  Channel 1.  Note 61.  Velocity 85
000022t:  Note on ::  Channel 1.  Note 61.  Velocity 0
000050t:  Note on ::  Channel 1.  Note 58.  Velocity 94
000024t:  Pitch wheel change ::  Channel 1.   -8192
000023t:  Note on ::  Channel 1.  Note 58.  Velocity 0
000000t:  Pitch wheel change ::  Channel 1.   -8192
000001t:  Note on ::  Channel 1.  Note 63.  Velocity 91
000022t:  Note on ::  Channel 1.  Note 63.  Velocity 0
000002t:  Note on ::  Channel 1.  Note 63.  Velocity 94
000406t:  Note on ::  Channel 1.  Note 63.  Velocity 0
000026t:  Note on ::  Channel 1.  Note 63.  Velocity 87
000022t:  Note on ::  Channel 1.  Note 63.  Velocity 0
000002t:  Note on ::  Channel 1.  Note 63.  Velocity 96
000024t:  Note on ::  Channel 1.  Note 63.  Velocity 0
000000t:  Note on ::  Channel 1.  Note 65.  Velocity 89
000022t:  Note on ::  Channel 1.  Note 65.  Velocity 0
000002t:  Note on ::  Channel 1.  Note 65.  Velocity 96
000024t:  Note on ::  Channel 1.  Note 65.  Velocity 0
000000t:  Note on ::  Channel 1.  Note 61.  Velocity 88
000022t:  Note on ::  Channel 1.  Note 61.  Velocity 0
000002t:  Note on ::  Channel 1.  Note 61.  Velocity 94
000048t:  Note on ::  Channel 1.  Note 61.  Velocity 0
000000t:  Note on ::  Channel 1.  Note 65.  Velocity 94
000024t:  Note on ::  Channel 1.  Note 65.  Velocity 0
000000t:  Note on ::  Channel 1.  Note 63.  Velocity 91
000048t:  Note on ::  Channel 1.  Note 63.  Velocity 0
000000t:  Note on ::  Channel 1.  Note 65.  Velocity 92
000024t:  Note on ::  Channel 1.  Note 65.  Velocity 0
000000t:  Note on ::  Channel 1.  Note 65.  Velocity 94
000045t:  Note on ::  Channel 1.  Note 65.  Velocity 0
000171t:  Note on ::  Channel 1.  Note 63.  Velocity 88
000023t:  Note on ::  Channel 1.  Note 63.  Velocity 0
000001t:  Note on ::  Channel 1.  Note 63.  Velocity 96
000024t:  Note on ::  Channel 1.  Note 63.  Velocity 0
000000t:  Note on ::  Channel 1.  Note 65.  Velocity 90
000022t:  Note on ::  Channel 1.  Note 65.  Velocity 0
000002t:  Note on ::  Channel 1.  Note 65.  Velocity 96
000024t:  Note on ::  Channel 1.  Note 65.  Velocity 0
000000t:  Note on ::  Channel 1.  Note 61.  Velocity 88
000023t:  Note on ::  Channel 1.  Note 61.  Velocity 0
000001t:  Note on ::  Channel 1.  Note 61.  Velocity 96
000048t:  Note on ::  Channel 1.  Note 61.  Velocity 0
000000t:  Note on ::  Channel 1.  Note 65.  Velocity 94
000023t:  Note on ::  Channel 1.  Note 65.  Velocity 0
000001t:  Note on ::  Channel 1.  Note 63.  Velocity 92
000048t:  Note on ::  Channel 1.  Note 63.  Velocity 0
000000t:  Note on ::  Channel 1.  Note 61.  Velocity 93
000024t:  Note on ::  Channel 1.  Note 61.  Velocity 0
000000t:  Note on ::  Channel 1.  Note 61.  Velocity 94
000048t:  Note on ::  Channel 1.  Note 61.  Velocity 0
000168t:  Note on ::  Channel 1.  Note 63.  Velocity 90
000022t:  Note on ::  Channel 1.  Note 63.  Velocity 0
000002t:  Note on ::  Channel 1.  Note 63.  Velocity 96
000024t:  Note on ::  Channel 1.  Note 63.  Velocity 0
000000t:  Note on ::  Channel 1.  Note 65.  Velocity 91
000024t:  Note on ::  Channel 1.  Note 65.  Velocity 0
000000t:  Note on ::  Channel 1.  Note 65.  Velocity 97
000024t:  Note on ::  Channel 1.  Note 65.  Velocity 0
000000t:  Note on ::  Channel 1.  Note 61.  Velocity 92
000024t:  Note on ::  Channel 1.  Note 61.  Velocity 0
000000t:  Note on ::  Channel 1.  Note 61.  Velocity 95
000048t:  Note on ::  Channel 1.  Note 61.  Velocity 0
000000t:  Note on ::  Channel 1.  Note 65.  Velocity 97
000024t:  Note on ::  Channel 1.  Note 65.  Velocity 0
000000t:  Note on ::  Channel 1.  Note 63.  Velocity 89
000048t:  Note on ::  Channel 1.  Note 63.  Velocity 0
000000t:  Note on ::  Channel 1.  Note 65.  Velocity 92
000024t:  Note on ::  Channel 1.  Note 65.  Velocity 0
000000t:  Note on ::  Channel 1.  Note 65.  Velocity 94
000048t:  Note on ::  Channel 1.  Note 65.  Velocity 0
000168t:  Note on ::  Channel 1.  Note 63.  Velocity 82
000023t:  Note on ::  Channel 1.  Note 63.  Velocity 0
000001t:  Note on ::  Channel 1.  Note 63.  Velocity 94
000024t:  Note on ::  Channel 1.  Note 63.  Velocity 0
000000t:  Note on ::  Channel 1.  Note 65.  Velocity 90
000020t:  Note on ::  Channel 1.  Note 65.  Velocity 0
000004t:  Note on ::  Channel 1.  Note 65.  Velocity 94
000024t:  Note on ::  Channel 1.  Note 65.  Velocity 0
000000t:  Note on ::  Channel 1.  Note 61.  Velocity 89
000020t:  Note on ::  Channel 1.  Note 61.  Velocity 0
000004t:  Note on ::  Channel 1.  Note 61.  Velocity 94
000048t:  Note on ::  Channel 1.  Note 61.  Velocity 0
000000t:  Note on ::  Channel 1.  Note 65.  Velocity 94
000024t:  Note on ::  Channel 1.  Note 65.  Velocity 0
000000t:  Note on ::  Channel 1.  Note 63.  Velocity 89
000044t:  Note on ::  Channel 1.  Note 63.  Velocity 0
000004t:  Note on ::  Channel 1.  Note 61.  Velocity 94
000046t:  Note on ::  Channel 1.  Note 61.  Velocity 0
000002t:  Pitch wheel change ::  Channel 1.   -8192
000000t:  Note on ::  Channel 1.  Note 58.  Velocity 94
000024t:  Pitch wheel change ::  Channel 1.   -8192
000236t:  Note on ::  Channel 1.  Note 58.  Velocity 0
000004t:  Note on ::  Channel 1.  Note 60.  Velocity 96
000020t:  Note on ::  Channel 1.  Note 60.  Velocity 0
000004t:  Note on ::  Channel 1.  Note 61.  Velocity 93
000020t:  Note on ::  Channel 1.  Note 61.  Velocity 0
000004t:  Note on ::  Channel 1.  Note 63.  Velocity 96
000020t:  Note on ::  Channel 1.  Note 63.  Velocity 0
000004t:  Note on ::  Channel 1.  Note 65.  Velocity 94
000116t:  Note on ::  Channel 1.  Note 65.  Velocity 0
000004t:  Note on ::  Channel 1.  Note 63.  Velocity 94
000045t:  Note on ::  Channel 1.  Note 63.  Velocity 0
000003t:  Note on ::  Channel 1.  Note 65.  Velocity 94
000022t:  Note on ::  Channel 1.  Note 65.  Velocity 0
000002t:  Note on ::  Channel 1.  Note 63.  Velocity 89
000046t:  Note on ::  Channel 1.  Note 63.  Velocity 0
000002t:  Note on ::  Channel 1.  Note 61.  Velocity 94
000020t:  Note on ::  Channel 1.  Note 61.  Velocity 0
000148t:  Note on ::  Channel 1.  Note 65.  Velocity 94
000092t:  Note on ::  Channel 1.  Note 65.  Velocity 0
000004t:  Note on ::  Channel 1.  Note 63.  Velocity 94
000045t:  Note on ::  Channel 1.  Note 63.  Velocity 0
000003t:  Note on ::  Channel 1.  Note 65.  Velocity 94
000022t:  Note on ::  Channel 1.  Note 65.  Velocity 0
000002t:  Note on ::  Channel 1.  Note 65.  Velocity 91
000046t:  Note on ::  Channel 1.  Note 65.  Velocity 0
000002t:  Note on ::  Channel 1.  Note 61.  Velocity 91
000020t:  Note on ::  Channel 1.  Note 61.  Velocity 0
000124t:  Note on ::  Channel 1.  Note 56.  Velocity 87
000022t:  Note on ::  Channel 1.  Note 56.  Velocity 0
000002t:  Note on ::  Channel 1.  Note 65.  Velocity 94
000092t:  Note on ::  Channel 1.  Note 65.  Velocity 0
000004t:  Note on ::  Channel 1.  Note 63.  Velocity 94
000045t:  Note on ::  Channel 1.  Note 63.  Velocity 0
000003t:  Note on ::  Channel 1.  Note 65.  Velocity 94
000022t:  Note on ::  Channel 1.  Note 65.  Velocity 0
000002t:  Note on ::  Channel 1.  Note 63.  Velocity 90
000046t:  Note on ::  Channel 1.  Note 63.  Velocity 0
000002t:  Note on ::  Channel 1.  Note 61.  Velocity 88
000017t:  Note on ::  Channel 1.  Note 61.  Velocity 0
000055t:  Note on ::  Channel 1.  Note 58.  Velocity 102
000022t:  Note on ::  Channel 1.  Note 58.  Velocity 0
000002t:  Note on ::  Channel 1.  Note 61.  Velocity 94
000022t:  Note on ::  Channel 1.  Note 61.  Velocity 0
000002t:  Note on ::  Channel 1.  Note 63.  Velocity 98
000022t:  Note on ::  Channel 1.  Note 63.  Velocity 0
000002t:  Note on ::  Channel 1.  Note 63.  Velocity 94
000406t:  Note on ::  Channel 1.  Note 63.  Velocity 0
000002t:  Note on ::  Channel 1.  Note 63.  Velocity 94
000072t:  Note on ::  Channel 1.  Note 63.  Velocity 0
000000t:  Note on ::  Channel 1.  Note 61.  Velocity 90
000116t:  Note on ::  Channel 1.  Note 61.  Velocity 0
000004t:  Note on ::  Channel 1.  Note 61.  Velocity 94
000072t:  Note on ::  Channel 1.  Note 61.  Velocity 0
000000t:  Note on ::  Channel 1.  Note 60.  Velocity 91
000116t:  Note on ::  Channel 1.  Note 60.  Velocity 0
000004t:  Program (patch) change ::  Channel 1.  Patch 13 (Xylophone)
000024t:  Control change ::  Channel 1.  Controller 91.  Value: 102
000024t:  Control change ::  Channel 1.  Controller 7.  Value: 83
001488t:  Control change ::  Channel 1.  Controller 11.  Value: 30
000000t:  Note on ::  Channel 1.  Note 70.  Velocity 72
000001t:  Control change ::  Channel 1.  Controller 11.  Value: 33
000001t:  Control change ::  Channel 1.  Controller 11.  Value: 37
000001t:  Control change ::  Channel 1.  Controller 11.  Value: 40
000001t:  Control change ::  Channel 1.  Controller 11.  Value: 44
000001t:  Control change ::  Channel 1.  Controller 11.  Value: 48
000001t:  Control change ::  Channel 1.  Controller 11.  Value: 51
000001t:  Control change ::  Channel 1.  Controller 11.  Value: 55
000001t:  Control change ::  Channel 1.  Controller 11.  Value: 59
000001t:  Control change ::  Channel 1.  Controller 11.  Value: 62
000001t:  Control change ::  Channel 1.  Controller 11.  Value: 66
000001t:  Control change ::  Channel 1.  Controller 11.  Value: 70
000001t:  Control change ::  Channel 1.  Controller 11.  Value: 73
000001t:  Control change ::  Channel 1.  Controller 11.  Value: 77
000001t:  Control change ::  Channel 1.  Controller 11.  Value: 80
000001t:  Control change ::  Channel 1.  Controller 11.  Value: 84
000001t:  Control change ::  Channel 1.  Controller 11.  Value: 88
000001t:  Control change ::  Channel 1.  Controller 11.  Value: 91
000001t:  Control change ::  Channel 1.  Controller 11.  Value: 95
000001t:  Control change ::  Channel 1.  Controller 11.  Value: 99
000001t:  Control change ::  Channel 1.  Controller 11.  Value: 102
000001t:  Control change ::  Channel 1.  Controller 11.  Value: 106
000001t:  Note on ::  Channel 1.  Note 70.  Velocity 0
000000t:  Control change ::  Channel 1.  Controller 11.  Value: 110
000002t:  Control change ::  Channel 1.  Controller 11.  Value: 110
000000t:  Note on ::  Channel 1.  Note 70.  Velocity 72
000010t:  Note on ::  Channel 1.  Note 70.  Velocity 0
000002t:  Note on ::  Channel 1.  Note 68.  Velocity 72
000010t:  Note on ::  Channel 1.  Note 68.  Velocity 0
000002t:  Note on ::  Channel 1.  Note 70.  Velocity 72
000022t:  Note on ::  Channel 1.  Note 70.  Velocity 0
000002t:  Note on ::  Channel 1.  Note 70.  Velocity 72
000010t:  Note on ::  Channel 1.  Note 70.  Velocity 0
000002t:  Note on ::  Channel 1.  Note 68.  Velocity 72
000010t:  Note on ::  Channel 1.  Note 68.  Velocity 0
000002t:  Note on ::  Channel 1.  Note 70.  Velocity 72
000022t:  Note on ::  Channel 1.  Note 70.  Velocity 0
000002t:  Note on ::  Channel 1.  Note 70.  Velocity 72
000010t:  Note on ::  Channel 1.  Note 70.  Velocity 0
000002t:  Note on ::  Channel 1.  Note 68.  Velocity 72
000010t:  Note on ::  Channel 1.  Note 68.  Velocity 0
000002t:  Note on ::  Channel 1.  Note 70.  Velocity 72
000022t:  Note on ::  Channel 1.  Note 70.  Velocity 0
000002t:  Note on ::  Channel 1.  Note 70.  Velocity 72
000010t:  Note on ::  Channel 1.  Note 70.  Velocity 0
000002t:  Note on ::  Channel 1.  Note 68.  Velocity 72
000010t:  Note on ::  Channel 1.  Note 68.  Velocity 0
000002t:  Control change ::  Channel 1.  Controller 11.  Value: 110
000000t:  Note on ::  Channel 1.  Note 70.  Velocity 72
000003t:  Control change ::  Channel 1.  Controller 11.  Value: 109
000002t:  Control change ::  Channel 1.  Controller 11.  Value: 108
000003t:  Control change ::  Channel 1.  Controller 11.  Value: 107
000002t:  Control change ::  Channel 1.  Controller 11.  Value: 106
000002t:  Control change ::  Channel 1.  Controller 11.  Value: 105
000003t:  Control change ::  Channel 1.  Controller 11.  Value: 104
000002t:  Control change ::  Channel 1.  Controller 11.  Value: 103
000003t:  Control change ::  Channel 1.  Controller 11.  Value: 102
000002t:  Note on ::  Channel 1.  Note 70.  Velocity 0
000000t:  Control change ::  Channel 1.  Controller 11.  Value: 101
000002t:  Note on ::  Channel 1.  Note 70.  Velocity 72
000000t:  Control change ::  Channel 1.  Controller 11.  Value: 100
000003t:  Control change ::  Channel 1.  Controller 11.  Value: 99
000002t:  Control change ::  Channel 1.  Controller 11.  Value: 98
000003t:  Control change ::  Channel 1.  Controller 11.  Value: 97
000002t:  Note on ::  Channel 1.  Note 70.  Velocity 0
000000t:  Control change ::  Channel 1.  Controller 11.  Value: 96
000002t:  Note on ::  Channel 1.  Note 68.  Velocity 72
000000t:  Control change ::  Channel 1.  Controller 11.  Value: 95
000003t:  Control change ::  Channel 1.  Controller 11.  Value: 94
000002t:  Control change ::  Channel 1.  Controller 11.  Value: 93
000002t:  Control change ::  Channel 1.  Controller 11.  Value: 92
000003t:  Note on ::  Channel 1.  Note 68.  Velocity 0
000000t:  Control change ::  Channel 1.  Controller 11.  Value: 91
000002t:  Note on ::  Channel 1.  Note 70.  Velocity 72
000000t:  Control change ::  Channel 1.  Controller 11.  Value: 90
000003t:  Control change ::  Channel 1.  Controller 11.  Value: 89
000002t:  Control change ::  Channel 1.  Controller 11.  Value: 88
000002t:  Control change ::  Channel 1.  Controller 11.  Value: 87
000003t:  Control change ::  Channel 1.  Controller 11.  Value: 86
000002t:  Control change ::  Channel 1.  Controller 11.  Value: 85
000003t:  Control change ::  Channel 1.  Controller 11.  Value: 84
000002t:  Control change ::  Channel 1.  Controller 11.  Value: 83
000002t:  Control change ::  Channel 1.  Controller 11.  Value: 82
000003t:  Note on ::  Channel 1.  Note 70.  Velocity 0
000000t:  Control change ::  Channel 1.  Controller 11.  Value: 81
000002t:  Note on ::  Channel 1.  Note 70.  Velocity 72
000000t:  Control change ::  Channel 1.  Controller 11.  Value: 80
000003t:  Control change ::  Channel 1.  Controller 11.  Value: 79
000002t:  Control change ::  Channel 1.  Controller 11.  Value: 78
000002t:  Control change ::  Channel 1.  Controller 11.  Value: 77
000003t:  Note on ::  Channel 1.  Note 70.  Velocity 0
000000t:  Control change ::  Channel 1.  Controller 11.  Value: 76
000002t:  Note on ::  Channel 1.  Note 68.  Velocity 72
000000t:  Control change ::  Channel 1.  Controller 11.  Value: 75
000002t:  Control change ::  Channel 1.  Controller 11.  Value: 74
000003t:  Control change ::  Channel 1.  Controller 11.  Value: 73
000002t:  Control change ::  Channel 1.  Controller 11.  Value: 72
000003t:  Note on ::  Channel 1.  Note 68.  Velocity 0
000000t:  Control change ::  Channel 1.  Controller 11.  Value: 71
000002t:  Note on ::  Channel 1.  Note 70.  Velocity 72
000000t:  Control change ::  Channel 1.  Controller 11.  Value: 70
000002t:  Control change ::  Channel 1.  Controller 11.  Value: 69
000003t:  Control change ::  Channel 1.  Controller 11.  Value: 68
000002t:  Control change ::  Channel 1.  Controller 11.  Value: 67
000003t:  Control change ::  Channel 1.  Controller 11.  Value: 66
000002t:  Control change ::  Channel 1.  Controller 11.  Value: 65
000002t:  Control change ::  Channel 1.  Controller 11.  Value: 64
000003t:  Control change ::  Channel 1.  Controller 11.  Value: 63
000002t:  Control change ::  Channel 1.  Controller 11.  Value: 62
000002t:  Control change ::  Channel 1.  Controller 11.  Value: 61
000001t:  Note on ::  Channel 1.  Note 70.  Velocity 0
000002t:  Note on ::  Channel 1.  Note 70.  Velocity 72
000000t:  Control change ::  Channel 1.  Controller 11.  Value: 60
000002t:  Control change ::  Channel 1.  Controller 11.  Value: 59
000003t:  Control change ::  Channel 1.  Controller 11.  Value: 58
000002t:  Control change ::  Channel 1.  Controller 11.  Value: 57
000002t:  Control change ::  Channel 1.  Controller 11.  Value: 56
000001t:  Note on ::  Channel 1.  Note 70.  Velocity 0
000002t:  Note on ::  Channel 1.  Note 68.  Velocity 72
000000t:  Control change ::  Channel 1.  Controller 11.  Value: 55
000002t:  Control change ::  Channel 1.  Controller 11.  Value: 54
000003t:  Control change ::  Channel 1.  Controller 11.  Value: 53
000002t:  Control change ::  Channel 1.  Controller 11.  Value: 52
000002t:  Control change ::  Channel 1.  Controller 11.  Value: 51
000001t:  Note on ::  Channel 1.  Note 68.  Velocity 0
000002t:  Note on ::  Channel 1.  Note 70.  Velocity 72
000000t:  Control change ::  Channel 1.  Controller 11.  Value: 50
000002t:  Control change ::  Channel 1.  Controller 11.  Value: 49
000003t:  Control change ::  Channel 1.  Controller 11.  Value: 48
000002t:  Control change ::  Channel 1.  Controller 11.  Value: 47
000002t:  Control change ::  Channel 1.  Controller 11.  Value: 46
000003t:  Control change ::  Channel 1.  Controller 11.  Value: 45
000002t:  Control change ::  Channel 1.  Controller 11.  Value: 44
000002t:  Control change ::  Channel 1.  Controller 11.  Value: 43
000003t:  Control change ::  Channel 1.  Controller 11.  Value: 42
000002t:  Control change ::  Channel 1.  Controller 11.  Value: 41
000001t:  Note on ::  Channel 1.  Note 70.  Velocity 0
000002t:  Note on ::  Channel 1.  Note 70.  Velocity 72
000000t:  Control change ::  Channel 1.  Controller 11.  Value: 40
000002t:  Control change ::  Channel 1.  Controller 11.  Value: 39
000002t:  Control change ::  Channel 1.  Controller 11.  Value: 38
000003t:  Control change ::  Channel 1.  Controller 11.  Value: 37
000002t:  Control change ::  Channel 1.  Controller 11.  Value: 36
000001t:  Note on ::  Channel 1.  Note 70.  Velocity 0
000002t:  Note on ::  Channel 1.  Note 68.  Velocity 72
000000t:  Control change ::  Channel 1.  Controller 11.  Value: 35
000002t:  Control change ::  Channel 1.  Controller 11.  Value: 34
000002t:  Control change ::  Channel 1.  Controller 11.  Value: 33
000003t:  Control change ::  Channel 1.  Controller 11.  Value: 32
000002t:  Control change ::  Channel 1.  Controller 11.  Value: 31
000001t:  Note on ::  Channel 1.  Note 68.  Velocity 0
000001t:  Control change ::  Channel 1.  Controller 11.  Value: 30
000385t:  Control change ::  Channel 1.  Controller 11.  Value: 30
000000t:  Note on ::  Channel 1.  Note 70.  Velocity 72
000001t:  Control change ::  Channel 1.  Controller 11.  Value: 33
000001t:  Control change ::  Channel 1.  Controller 11.  Value: 37
000001t:  Control change ::  Channel 1.  Controller 11.  Value: 40
000001t:  Control change ::  Channel 1.  Controller 11.  Value: 44
000001t:  Control change ::  Channel 1.  Controller 11.  Value: 48
000001t:  Control change ::  Channel 1.  Controller 11.  Value: 51
000001t:  Control change ::  Channel 1.  Controller 11.  Value: 55
000001t:  Control change ::  Channel 1.  Controller 11.  Value: 59
000001t:  Control change ::  Channel 1.  Controller 11.  Value: 62
000001t:  Control change ::  Channel 1.  Controller 11.  Value: 66
000001t:  Control change ::  Channel 1.  Controller 11.  Value: 70
000001t:  Control change ::  Channel 1.  Controller 11.  Value: 73
000001t:  Control change ::  Channel 1.  Controller 11.  Value: 77
000001t:  Control change ::  Channel 1.  Controller 11.  Value: 80
000001t:  Control change ::  Channel 1.  Controller 11.  Value: 84
000001t:  Control change ::  Channel 1.  Controller 11.  Value: 88
000001t:  Control change ::  Channel 1.  Controller 11.  Value: 91
000001t:  Control change ::  Channel 1.  Controller 11.  Value: 95
000001t:  Control change ::  Channel 1.  Controller 11.  Value: 99
000001t:  Control change ::  Channel 1.  Controller 11.  Value: 102
000001t:  Control change ::  Channel 1.  Controller 11.  Value: 106
000001t:  Note on ::  Channel 1.  Note 70.  Velocity 0
000000t:  Control change ::  Channel 1.  Controller 11.  Value: 110
000002t:  Control change ::  Channel 1.  Controller 11.  Value: 110
000000t:  Note on ::  Channel 1.  Note 70.  Velocity 72
000010t:  Note on ::  Channel 1.  Note 70.  Velocity 0
000002t:  Note on ::  Channel 1.  Note 68.  Velocity 72
000010t:  Note on ::  Channel 1.  Note 68.  Velocity 0
000002t:  Note on ::  Channel 1.  Note 70.  Velocity 72
000022t:  Note on ::  Channel 1.  Note 70.  Velocity 0
000002t:  Note on ::  Channel 1.  Note 70.  Velocity 72
000010t:  Note on ::  Channel 1.  Note 70.  Velocity 0
000002t:  Note on ::  Channel 1.  Note 68.  Velocity 72
000010t:  Note on ::  Channel 1.  Note 68.  Velocity 0
000002t:  Note on ::  Channel 1.  Note 70.  Velocity 72
000022t:  Note on ::  Channel 1.  Note 70.  Velocity 0
000002t:  Note on ::  Channel 1.  Note 70.  Velocity 72
000010t:  Note on ::  Channel 1.  Note 70.  Velocity 0
000002t:  Note on ::  Channel 1.  Note 68.  Velocity 72
000010t:  Note on ::  Channel 1.  Note 68.  Velocity 0
000002t:  Note on ::  Channel 1.  Note 70.  Velocity 72
000022t:  Note on ::  Channel 1.  Note 70.  Velocity 0
000002t:  Note on ::  Channel 1.  Note 70.  Velocity 72
000010t:  Note on ::  Channel 1.  Note 70.  Velocity 0
000002t:  Note on ::  Channel 1.  Note 68.  Velocity 72
000010t:  Note on ::  Channel 1.  Note 68.  Velocity 0
000002t:  Control change ::  Channel 1.  Controller 11.  Value: 110
000000t:  Note on ::  Channel 1.  Note 70.  Velocity 72
000003t:  Control change ::  Channel 1.  Controller 11.  Value: 109
000002t:  Control change ::  Channel 1.  Controller 11.  Value: 108
000003t:  Control change ::  Channel 1.  Controller 11.  Value: 107
000002t:  Control change ::  Channel 1.  Controller 11.  Value: 106
000002t:  Control change ::  Channel 1.  Controller 11.  Value: 105
000003t:  Control change ::  Channel 1.  Controller 11.  Value: 104
000002t:  Control change ::  Channel 1.  Controller 11.  Value: 103
000003t:  Control change ::  Channel 1.  Controller 11.  Value: 102
000002t:  Note on ::  Channel 1.  Note 70.  Velocity 0
000000t:  Control change ::  Channel 1.  Controller 11.  Value: 101
000002t:  Note on ::  Channel 1.  Note 70.  Velocity 72
000000t:  Control change ::  Channel 1.  Controller 11.  Value: 100
000003t:  Control change ::  Channel 1.  Controller 11.  Value: 99
000002t:  Control change ::  Channel 1.  Controller 11.  Value: 98
000003t:  Control change ::  Channel 1.  Controller 11.  Value: 97
000002t:  Note on ::  Channel 1.  Note 70.  Velocity 0
000000t:  Control change ::  Channel 1.  Controller 11.  Value: 96
000002t:  Note on ::  Channel 1.  Note 68.  Velocity 72
000000t:  Control change ::  Channel 1.  Controller 11.  Value: 95
000003t:  Control change ::  Channel 1.  Controller 11.  Value: 94
000002t:  Control change ::  Channel 1.  Controller 11.  Value: 93
000002t:  Control change ::  Channel 1.  Controller 11.  Value: 92
000003t:  Note on ::  Channel 1.  Note 68.  Velocity 0
000000t:  Control change ::  Channel 1.  Controller 11.  Value: 91
000002t:  Note on ::  Channel 1.  Note 70.  Velocity 72
000000t:  Control change ::  Channel 1.  Controller 11.  Value: 90
000003t:  Control change ::  Channel 1.  Controller 11.  Value: 89
000002t:  Control change ::  Channel 1.  Controller 11.  Value: 88
000002t:  Control change ::  Channel 1.  Controller 11.  Value: 87
000003t:  Control change ::  Channel 1.  Controller 11.  Value: 86
000002t:  Control change ::  Channel 1.  Controller 11.  Value: 85
000003t:  Control change ::  Channel 1.  Controller 11.  Value: 84
000002t:  Control change ::  Channel 1.  Controller 11.  Value: 83
000002t:  Control change ::  Channel 1.  Controller 11.  Value: 82
000003t:  Note on ::  Channel 1.  Note 70.  Velocity 0
000000t:  Control change ::  Channel 1.  Controller 11.  Value: 81
000002t:  Note on ::  Channel 1.  Note 70.  Velocity 72
000000t:  Control change ::  Channel 1.  Controller 11.  Value: 80
000003t:  Control change ::  Channel 1.  Controller 11.  Value: 79
000002t:  Control change ::  Channel 1.  Controller 11.  Value: 78
000002t:  Control change ::  Channel 1.  Controller 11.  Value: 77
000003t:  Note on ::  Channel 1.  Note 70.  Velocity 0
000000t:  Control change ::  Channel 1.  Controller 11.  Value: 76
000002t:  Note on ::  Channel 1.  Note 68.  Velocity 72
000000t:  Control change ::  Channel 1.  Controller 11.  Value: 75
000002t:  Control change ::  Channel 1.  Controller 11.  Value: 74
000003t:  Control change ::  Channel 1.  Controller 11.  Value: 73
000002t:  Control change ::  Channel 1.  Controller 11.  Value: 72
000003t:  Note on ::  Channel 1.  Note 68.  Velocity 0
000000t:  Control change ::  Channel 1.  Controller 11.  Value: 71
000002t:  Note on ::  Channel 1.  Note 70.  Velocity 72
000000t:  Control change ::  Channel 1.  Controller 11.  Value: 70
000002t:  Control change ::  Channel 1.  Controller 11.  Value: 69
000003t:  Control change ::  Channel 1.  Controller 11.  Value: 68
000002t:  Control change ::  Channel 1.  Controller 11.  Value: 67
000003t:  Control change ::  Channel 1.  Controller 11.  Value: 66
000002t:  Control change ::  Channel 1.  Controller 11.  Value: 65
000002t:  Control change ::  Channel 1.  Controller 11.  Value: 64
000003t:  Control change ::  Channel 1.  Controller 11.  Value: 63
000002t:  Control change ::  Channel 1.  Controller 11.  Value: 62
000002t:  Control change ::  Channel 1.  Controller 11.  Value: 61
000001t:  Note on ::  Channel 1.  Note 70.  Velocity 0
000002t:  Note on ::  Channel 1.  Note 70.  Velocity 72
000000t:  Control change ::  Channel 1.  Controller 11.  Value: 60
000002t:  Control change ::  Channel 1.  Controller 11.  Value: 59
000003t:  Control change ::  Channel 1.  Controller 11.  Value: 58
000002t:  Control change ::  Channel 1.  Controller 11.  Value: 57
000002t:  Control change ::  Channel 1.  Controller 11.  Value: 56
000001t:  Note on ::  Channel 1.  Note 70.  Velocity 0
000002t:  Note on ::  Channel 1.  Note 68.  Velocity 72
000000t:  Control change ::  Channel 1.  Controller 11.  Value: 55
000002t:  Control change ::  Channel 1.  Controller 11.  Value: 54
000003t:  Control change ::  Channel 1.  Controller 11.  Value: 53
000002t:  Control change ::  Channel 1.  Controller 11.  Value: 52
000002t:  Control change ::  Channel 1.  Controller 11.  Value: 51
000001t:  Note on ::  Channel 1.  Note 68.  Velocity 0
000002t:  Note on ::  Channel 1.  Note 70.  Velocity 72
000000t:  Control change ::  Channel 1.  Controller 11.  Value: 50
000002t:  Control change ::  Channel 1.  Controller 11.  Value: 49
000003t:  Control change ::  Channel 1.  Controller 11.  Value: 48
000002t:  Control change ::  Channel 1.  Controller 11.  Value: 47
000002t:  Control change ::  Channel 1.  Controller 11.  Value: 46
000003t:  Control change ::  Channel 1.  Controller 11.  Value: 45
000002t:  Control change ::  Channel 1.  Controller 11.  Value: 44
000002t:  Control change ::  Channel 1.  Controller 11.  Value: 43
000003t:  Control change ::  Channel 1.  Controller 11.  Value: 42
000002t:  Control change ::  Channel 1.  Controller 11.  Value: 41
000001t:  Note on ::  Channel 1.  Note 70.  Velocity 0
000002t:  Note on ::  Channel 1.  Note 70.  Velocity 72
000000t:  Control change ::  Channel 1.  Controller 11.  Value: 40
000002t:  Control change ::  Channel 1.  Controller 11.  Value: 39
000002t:  Control change ::  Channel 1.  Controller 11.  Value: 38
000003t:  Control change ::  Channel 1.  Controller 11.  Value: 37
000002t:  Control change ::  Channel 1.  Controller 11.  Value: 36
000001t:  Note on ::  Channel 1.  Note 70.  Velocity 0
000002t:  Note on ::  Channel 1.  Note 68.  Velocity 72
000000t:  Control change ::  Channel 1.  Controller 11.  Value: 35
000002t:  Control change ::  Channel 1.  Controller 11.  Value: 34
000002t:  Control change ::  Channel 1.  Controller 11.  Value: 33
000003t:  Control change ::  Channel 1.  Controller 11.  Value: 32
000002t:  Control change ::  Channel 1.  Controller 11.  Value: 31
000001t:  Note on ::  Channel 1.  Note 68.  Velocity 0
000001t:  Control change ::  Channel 1.  Controller 11.  Value: 30
000193t:  Program (patch) change ::  Channel 1.  Patch 90 (Pad 3 (polysynth))
000096t:  Control change ::  Channel 1.  Controller 11.  Value: 100
000048t:  Control change ::  Channel 1.  Controller 7.  Value: 120
000024t:  Control change ::  Channel 1.  Controller 91.  Value: 30
000048t:  Note on ::  Channel 1.  Note 63.  Velocity 86
000020t:  Note on ::  Channel 1.  Note 63.  Velocity 0
000004t:  Note on ::  Channel 1.  Note 63.  Velocity 94
000024t:  Note on ::  Channel 1.  Note 63.  Velocity 0
000000t:  Note on ::  Channel 1.  Note 65.  Velocity 89
000021t:  Note on ::  Channel 1.  Note 65.  Velocity 0
000003t:  Note on ::  Channel 1.  Note 65.  Velocity 94
000024t:  Note on ::  Channel 1.  Note 65.  Velocity 0
000000t:  Note on ::  Channel 1.  Note 61.  Velocity 89
000022t:  Note on ::  Channel 1.  Note 61.  Velocity 0
000002t:  Note on ::  Channel 1.  Note 61.  Velocity 94
000048t:  Note on ::  Channel 1.  Note 61.  Velocity 0
000000t:  Note on ::  Channel 1.  Note 65.  Velocity 94
000024t:  Note on ::  Channel 1.  Note 65.  Velocity 0
000000t:  Note on ::  Channel 1.  Note 63.  Velocity 88
000048t:  Pitch wheel change ::  Channel 1.   -8192
000024t:  Note on ::  Channel 1.  Note 63.  Velocity 0
000000t:  Pitch wheel change ::  Channel 1.   -8192
000000t:  Note on ::  Channel 1.  Note 65.  Velocity 94
000043t:  Note on ::  Channel 1.  Note 65.  Velocity 0
000173t:  Note on ::  Channel 1.  Note 63.  Velocity 88
000021t:  Note on ::  Channel 1.  Note 63.  Velocity 0
000003t:  Note on ::  Channel 1.  Note 63.  Velocity 94
000024t:  Note on ::  Channel 1.  Note 63.  Velocity 0
000000t:  Note on ::  Channel 1.  Note 65.  Velocity 90
000021t:  Note on ::  Channel 1.  Note 65.  Velocity 0
000003t:  Note on ::  Channel 1.  Note 65.  Velocity 94
000024t:  Note on ::  Channel 1.  Note 65.  Velocity 0
000000t:  Note on ::  Channel 1.  Note 61.  Velocity 90
000021t:  Note on ::  Channel 1.  Note 61.  Velocity 0
000003t:  Note on ::  Channel 1.  Note 61.  Velocity 94
000044t:  Note on ::  Channel 1.  Note 61.  Velocity 0
000004t:  Note on ::  Channel 1.  Note 65.  Velocity 94
000024t:  Note on ::  Channel 1.  Note 65.  Velocity 0
000000t:  Note on ::  Channel 1.  Note 63.  Velocity 90
000042t:  Note on ::  Channel 1.  Note 63.  Velocity 0
000006t:  Note on ::  Channel 1.  Note 61.  Velocity 88
000024t:  Note on ::  Channel 1.  Note 61.  Velocity 0
000000t:  Note on ::  Channel 1.  Note 61.  Velocity 95
000043t:  Note on ::  Channel 1.  Note 61.  Velocity 0
000173t:  Note on ::  Channel 1.  Note 63.  Velocity 86
000020t:  Note on ::  Channel 1.  Note 63.  Velocity 0
000004t:  Note on ::  Channel 1.  Note 63.  Velocity 98
000024t:  Note on ::  Channel 1.  Note 65.  Velocity 90
000001t:  Note on ::  Channel 1.  Note 63.  Velocity 0
000019t:  Note on ::  Channel 1.  Note 65.  Velocity 0
000004t:  Note on ::  Channel 1.  Note 65.  Velocity 94
000024t:  Note on ::  Channel 1.  Note 65.  Velocity 0
000000t:  Note on ::  Channel 1.  Note 61.  Velocity 91
000019t:  Note on ::  Channel 1.  Note 61.  Velocity 0
000005t:  Note on ::  Channel 1.  Note 61.  Velocity 93
000048t:  Note on ::  Channel 1.  Note 61.  Velocity 0
000000t:  Note on ::  Channel 1.  Note 65.  Velocity 100
000024t:  Note on ::  Channel 1.  Note 63.  Velocity 89
000001t:  Note on ::  Channel 1.  Note 65.  Velocity 0
000045t:  Note on ::  Channel 1.  Note 63.  Velocity 0
000002t:  Note on ::  Channel 1.  Note 65.  Velocity 92
000024t:  Note on ::  Channel 1.  Note 65.  Velocity 0
000000t:  Note on ::  Channel 1.  Note 65.  Velocity 94
000048t:  Note on ::  Channel 1.  Note 65.  Velocity 0
000168t:  Note on ::  Channel 1.  Note 63.  Velocity 89
000024t:  Note on ::  Channel 1.  Note 63.  Velocity 0
000000t:  Note on ::  Channel 1.  Note 63.  Velocity 97
000024t:  Pitch wheel change ::  Channel 1.   -8192
000022t:  Note on ::  Channel 1.  Note 63.  Velocity 0
000002t:  Note on ::  Channel 1.  Note 63.  Velocity 96
000024t:  Pitch wheel change ::  Channel 1.   -8192
000021t:  Note on ::  Channel 1.  Note 63.  Velocity 0
000002t:  Pitch wheel change ::  Channel 1.   -8192
000001t:  Note on ::  Channel 1.  Note 61.  Velocity 94
000048t:  Note on ::  Channel 1.  Note 61.  Velocity 0
000000t:  Note on ::  Channel 1.  Note 65.  Velocity 96
000024t:  Pitch wheel change ::  Channel 1.   -8192
000048t:  Pitch wheel change ::  Channel 1.   -8192
000045t:  Note on ::  Channel 1.  Note 65.  Velocity 0
000002t:  Pitch wheel change ::  Channel 1.   -8192
000001t:  Note on ::  Channel 1.  Note 61.  Velocity 94
000024t:  Note on ::  Channel 1.  Note 61.  Velocity 0
000000t:  Note on ::  Channel 1.  Note 58.  Velocity 94
000236t:  Note on ::  Channel 1.  Note 58.  Velocity 0
000004t:  Note on ::  Channel 1.  Note 60.  Velocity 97
000022t:  Note on ::  Channel 1.  Note 60.  Velocity 0
000002t:  Note on ::  Channel 1.  Note 61.  Velocity 88
000021t:  Note on ::  Channel 1.  Note 61.  Velocity 0
000003t:  Note on ::  Channel 1.  Note 63.  Velocity 94
000022t:  Note on ::  Channel 1.  Note 63.  Velocity 0
000002t:  Note on ::  Channel 1.  Note 65.  Velocity 95
000116t:  Note on ::  Channel 1.  Note 65.  Velocity 0
000004t:  Note on ::  Channel 1.  Note 63.  Velocity 94
000045t:  Note on ::  Channel 1.  Note 63.  Velocity 0
000003t:  Note on ::  Channel 1.  Note 65.  Velocity 95
000022t:  Note on ::  Channel 1.  Note 65.  Velocity 0
000002t:  Note on ::  Channel 1.  Note 63.  Velocity 91
000046t:  Note on ::  Channel 1.  Note 63.  Velocity 0
000002t:  Note on ::  Channel 1.  Note 61.  Velocity 91
000022t:  Note on ::  Channel 1.  Note 61.  Velocity 0
000146t:  Note on ::  Channel 1.  Note 65.  Velocity 94
000024t:  Pitch wheel change ::  Channel 1.   -8192
000023t:  Note on ::  Channel 1.  Note 65.  Velocity 0
000000t:  Pitch wheel change ::  Channel 1.   -8192
000001t:  Note on ::  Channel 1.  Note 65.  Velocity 94
000024t:  Note on ::  Channel 1.  Note 65.  Velocity 0
000000t:  Note on ::  Channel 1.  Note 63.  Velocity 94
000024t:  Note on ::  Channel 1.  Note 63.  Velocity 0
000024t:  Note on ::  Channel 1.  Note 68.  Velocity 94
000024t:  Note on ::  Channel 1.  Note 68.  Velocity 0
000024t:  Note on ::  Channel 1.  Note 70.  Velocity 94
000048t:  Note on ::  Channel 1.  Note 70.  Velocity 0
000000t:  Note on ::  Channel 1.  Note 65.  Velocity 94
000012t:  Pitch wheel change ::  Channel 1.   -8192
000011t:  Note on ::  Channel 1.  Note 65.  Velocity 0
000000t:  Pitch wheel change ::  Channel 1.   -8192
000001t:  Note on ::  Channel 1.  Note 61.  Velocity 94
000048t:  Note on ::  Channel 1.  Note 61.  Velocity 0
000072t:  Note on ::  Channel 1.  Note 54.  Velocity 88
000022t:  Note on ::  Channel 1.  Note 54.  Velocity 0
000002t:  Note on ::  Channel 1.  Note 65.  Velocity 96
000092t:  Note on ::  Channel 1.  Note 65.  Velocity 0
000004t:  Note on ::  Channel 1.  Note 63.  Velocity 94
000045t:  Note on ::  Channel 1.  Note 63.  Velocity 0
000003t:  Note on ::  Channel 1.  Note 65.  Velocity 94
000022t:  Note on ::  Channel 1.  Note 65.  Velocity 0
000002t:  Note on ::  Channel 1.  Note 63.  Velocity 94
000046t:  Note on ::  Channel 1.  Note 63.  Velocity 0
000002t:  Note on ::  Channel 1.  Note 61.  Velocity 94
000022t:  Note on ::  Channel 1.  Note 61.  Velocity 0
000050t:  Note on ::  Channel 1.  Note 58.  Velocity 98
000022t:  Note on ::  Channel 1.  Note 58.  Velocity 0
000002t:  Note on ::  Channel 1.  Note 61.  Velocity 90
000022t:  Note on ::  Channel 1.  Note 61.  Velocity 0
000002t:  Note on ::  Channel 1.  Note 63.  Velocity 94
000022t:  Note on ::  Channel 1.  Note 63.  Velocity 0
000002t:  Note on ::  Channel 1.  Note 63.  Velocity 92
000308t:  Note on ::  Channel 1.  Note 63.  Velocity 0
000004t:  Note on ::  Channel 1.  Note 60.  Velocity 101
000022t:  Note on ::  Channel 1.  Note 60.  Velocity 0
000002t:  Note on ::  Channel 1.  Note 61.  Velocity 90
000022t:  Note on ::  Channel 1.  Note 61.  Velocity 0
000002t:  Note on ::  Channel 1.  Note 63.  Velocity 97
000022t:  Note on ::  Channel 1.  Note 63.  Velocity 0
000002t:  Note on ::  Channel 1.  Note 65.  Velocity 94
000116t:  Note on ::  Channel 1.  Note 65.  Velocity 0
000004t:  Note on ::  Channel 1.  Note 63.  Velocity 94
000045t:  Note on ::  Channel 1.  Note 63.  Velocity 0
000003t:  Note on ::  Channel 1.  Note 65.  Velocity 94
000022t:  Note on ::  Channel 1.  Note 65.  Velocity 0
000002t:  Note on ::  Channel 1.  Note 63.  Velocity 91
000046t:  Note on ::  Channel 1.  Note 63.  Velocity 0
000002t:  Note on ::  Channel 1.  Note 61.  Velocity 92
000022t:  Note on ::  Channel 1.  Note 61.  Velocity 0
000146t:  Note on ::  Channel 1.  Note 65.  Velocity 98
000094t:  Note on ::  Channel 1.  Note 65.  Velocity 0
000002t:  Note on ::  Channel 1.  Note 63.  Velocity 94
000045t:  Note on ::  Channel 1.  Note 63.  Velocity 0
000003t:  Note on ::  Channel 1.  Note 65.  Velocity 96
000022t:  Note on ::  Channel 1.  Note 65.  Velocity 0
000002t:  Note on ::  Channel 1.  Note 65.  Velocity 94
000046t:  Note on ::  Channel 1.  Note 65.  Velocity 0
000002t:  Note on ::  Channel 1.  Note 61.  Velocity 94
000022t:  Note on ::  Channel 1.  Note 61.  Velocity 0
000122t:  Note on ::  Channel 1.  Note 56.  Velocity 86
000022t:  Note on ::  Channel 1.  Note 56.  Velocity 0
000002t:  Note on ::  Channel 1.  Note 65.  Velocity 99
000092t:  Note on ::  Channel 1.  Note 65.  Velocity 0
000004t:  Note on ::  Channel 1.  Note 63.  Velocity 93
000045t:  Note on ::  Channel 1.  Note 63.  Velocity 0
000003t:  Note on ::  Channel 1.  Note 65.  Velocity 96
000022t:  Note on ::  Channel 1.  Note 65.  Velocity 0
000002t:  Note on ::  Channel 1.  Note 63.  Velocity 86
000046t:  Note on ::  Channel 1.  Note 63.  Velocity 0
000002t:  Note on ::  Channel 1.  Note 61.  Velocity 94
000022t:  Note on ::  Channel 1.  Note 61.  Velocity 0
000050t:  Note on ::  Channel 1.  Note 58.  Velocity 94
000022t:  Note on ::  Channel 1.  Note 58.  Velocity 0
000002t:  Note on ::  Channel 1.  Note 61.  Velocity 89
000022t:  Note on ::  Channel 1.  Note 61.  Velocity 0
000002t:  Note on ::  Channel 1.  Note 63.  Velocity 94
000022t:  Note on ::  Channel 1.  Note 63.  Velocity 0
000002t:  Note on ::  Channel 1.  Note 63.  Velocity 92
000408t:  Note on ::  Channel 1.  Note 63.  Velocity 0
000000t:  Note on ::  Channel 1.  Note 63.  Velocity 99
000072t:  Pitch wheel change ::  Channel 1.   -8192
000118t:  Note on ::  Channel 1.  Note 63.  Velocity 0
000001t:  Pitch wheel change ::  Channel 1.   -8192
000001t:  Note on ::  Channel 1.  Note 61.  Velocity 98
000072t:  Pitch wheel change ::  Channel 1.   -8192
000118t:  Note on ::  Channel 1.  Note 61.  Velocity 0
000001t:  Pitch wheel change ::  Channel 1.   -8192
003265t:  Note on ::  Channel 1.  Note 65.  Velocity 99
000092t:  Note on ::  Channel 1.  Note 65.  Velocity 0
000004t:  Note on ::  Channel 1.  Note 63.  Velocity 96
000045t:  Note on ::  Channel 1.  Note 63.  Velocity 0
000003t:  Note on ::  Channel 1.  Note 65.  Velocity 97
000022t:  Note on ::  Channel 1.  Note 65.  Velocity 0
000002t:  Note on ::  Channel 1.  Note 63.  Velocity 92
000046t:  Note on ::  Channel 1.  Note 63.  Velocity 0
000002t:  Note on ::  Channel 1.  Note 61.  Velocity 94
000022t:  Note on ::  Channel 1.  Note 61.  Velocity 0
000146t:  Note on ::  Channel 1.  Note 65.  Velocity 99
000092t:  Note on ::  Channel 1.  Note 65.  Velocity 0
000004t:  Note on ::  Channel 1.  Note 63.  Velocity 94
000045t:  Note on ::  Channel 1.  Note 63.  Velocity 0
000003t:  Note on ::  Channel 1.  Note 65.  Velocity 96
000022t:  Note on ::  Channel 1.  Note 65.  Velocity 0
000002t:  Note on ::  Channel 1.  Note 65.  Velocity 89
000046t:  Note on ::  Channel 1.  Note 65.  Velocity 0
000002t:  Note on ::  Channel 1.  Note 61.  Velocity 91
000022t:  Note on ::  Channel 1.  Note 61.  Velocity 0
000050t:  Control change ::  Channel 1.  Controller 7.  Value: 120
000096t:  Control change ::  Channel 1.  Controller 7.  Value: 120
000000t:  Note on ::  Channel 1.  Note 65.  Velocity 98
000012t:  Control change ::  Channel 1.  Controller 7.  Value: 119
000011t:  Control change ::  Channel 1.  Controller 7.  Value: 118
000011t:  Control change ::  Channel 1.  Controller 7.  Value: 117
000011t:  Control change ::  Channel 1.  Controller 7.  Value: 116
000011t:  Control change ::  Channel 1.  Controller 7.  Value: 115
000012t:  Control change ::  Channel 1.  Controller 7.  Value: 114
000011t:  Control change ::  Channel 1.  Controller 7.  Value: 113
000011t:  Control change ::  Channel 1.  Controller 7.  Value: 112
000002t:  Note on ::  Channel 1.  Note 65.  Velocity 0
000004t:  Note on ::  Channel 1.  Note 63.  Velocity 94
000005t:  Control change ::  Channel 1.  Controller 7.  Value: 111
000011t:  Control change ::  Channel 1.  Controller 7.  Value: 110
000012t:  Control change ::  Channel 1.  Controller 7.  Value: 109
000011t:  Control change ::  Channel 1.  Controller 7.  Value: 108
000006t:  Note on ::  Channel 1.  Note 63.  Velocity 0
000003t:  Note on ::  Channel 1.  Note 65.  Velocity 97
000002t:  Control change ::  Channel 1.  Controller 7.  Value: 107
000011t:  Control change ::  Channel 1.  Controller 7.  Value: 106
000009t:  Note on ::  Channel 1.  Note 65.  Velocity 0
000002t:  Note on ::  Channel 1.  Note 63.  Velocity 89
000000t:  Control change ::  Channel 1.  Controller 7.  Value: 105
000012t:  Control change ::  Channel 1.  Controller 7.  Value: 104
000011t:  Control change ::  Channel 1.  Controller 7.  Value: 103
000011t:  Control change ::  Channel 1.  Controller 7.  Value: 102
000011t:  Control change ::  Channel 1.  Controller 7.  Value: 101
000001t:  Note on ::  Channel 1.  Note 63.  Velocity 0
000002t:  Note on ::  Channel 1.  Note 61.  Velocity 90
000008t:  Control change ::  Channel 1.  Controller 7.  Value: 100
000012t:  Control change ::  Channel 1.  Controller 7.  Value: 99
000002t:  Note on ::  Channel 1.  Note 61.  Velocity 0
000009t:  Control change ::  Channel 1.  Controller 7.  Value: 98
000011t:  Control change ::  Channel 1.  Controller 7.  Value: 97
000011t:  Control change ::  Channel 1.  Controller 7.  Value: 96
000011t:  Control change ::  Channel 1.  Controller 7.  Value: 95
000011t:  Control change ::  Channel 1.  Controller 7.  Value: 94
000012t:  Control change ::  Channel 1.  Controller 7.  Value: 93
000011t:  Control change ::  Channel 1.  Controller 7.  Value: 92
000011t:  Control change ::  Channel 1.  Controller 7.  Value: 91
000011t:  Control change ::  Channel 1.  Controller 7.  Value: 90
000011t:  Control change ::  Channel 1.  Controller 7.  Value: 89
000012t:  Control change ::  Channel 1.  Controller 7.  Value: 88
000011t:  Control change ::  Channel 1.  Controller 7.  Value: 87
000011t:  Control change ::  Channel 1.  Controller 7.  Value: 86
000011t:  Control change ::  Channel 1.  Controller 7.  Value: 85
000011t:  Control change ::  Channel 1.  Controller 7.  Value: 84
000012t:  Control change ::  Channel 1.  Controller 7.  Value: 83
000011t:  Control change ::  Channel 1.  Controller 7.  Value: 82
000011t:  Control change ::  Channel 1.  Controller 7.  Value: 81
000011t:  Control change ::  Channel 1.  Controller 7.  Value: 80
000011t:  Control change ::  Channel 1.  Controller 7.  Value: 79
000012t:  Control change ::  Channel 1.  Controller 7.  Value: 78
000011t:  Control change ::  Channel 1.  Controller 7.  Value: 77
000011t:  Control change ::  Channel 1.  Controller 7.  Value: 76
000011t:  Control change ::  Channel 1.  Controller 7.  Value: 75
000011t:  Control change ::  Channel 1.  Controller 7.  Value: 74
000012t:  Control change ::  Channel 1.  Controller 7.  Value: 73
000011t:  Control change ::  Channel 1.  Controller 7.  Value: 72
000011t:  Control change ::  Channel 1.  Controller 7.  Value: 71
000011t:  Control change ::  Channel 1.  Controller 7.  Value: 70
000011t:  Control change ::  Channel 1.  Controller 7.  Value: 69
000011t:  Control change ::  Channel 1.  Controller 7.  Value: 68
000012t:  Control change ::  Channel 1.  Controller 7.  Value: 67
000011t:  Control change ::  Channel 1.  Controller 7.  Value: 66
000011t:  Control change ::  Channel 1.  Controller 7.  Value: 65
000011t:  Control change ::  Channel 1.  Controller 7.  Value: 64
000011t:  Control change ::  Channel 1.  Controller 7.  Value: 63
000012t:  Control change ::  Channel 1.  Controller 7.  Value: 62
000011t:  Control change ::  Channel 1.  Controller 7.  Value: 61
000011t:  Control change ::  Channel 1.  Controller 7.  Value: 60
000011t:  Control change ::  Channel 1.  Controller 7.  Value: 59
000011t:  Control change ::  Channel 1.  Controller 7.  Value: 58
000012t:  Control change ::  Channel 1.  Controller 7.  Value: 57
000011t:  Control change ::  Channel 1.  Controller 7.  Value: 56
000011t:  Control change ::  Channel 1.  Controller 7.  Value: 55
000011t:  Control change ::  Channel 1.  Controller 7.  Value: 54
000011t:  Control change ::  Channel 1.  Controller 7.  Value: 53
000012t:  Control change ::  Channel 1.  Controller 7.  Value: 52
000011t:  Control change ::  Channel 1.  Controller 7.  Value: 51
000011t:  Control change ::  Channel 1.  Controller 7.  Value: 50
000011t:  Control change ::  Channel 1.  Controller 7.  Value: 49
000011t:  Control change ::  Channel 1.  Controller 7.  Value: 48
000011t:  Control change ::  Channel 1.  Controller 7.  Value: 47
000012t:  Control change ::  Channel 1.  Controller 7.  Value: 46
000011t:  Control change ::  Channel 1.  Controller 7.  Value: 45
000011t:  Control change ::  Channel 1.  Controller 7.  Value: 44
000011t:  Control change ::  Channel 1.  Controller 7.  Value: 43
000011t:  Control change ::  Channel 1.  Controller 7.  Value: 42
000012t:  Control change ::  Channel 1.  Controller 7.  Value: 41
000011t:  Control change ::  Channel 1.  Controller 7.  Value: 40
000011t:  Control change ::  Channel 1.  Controller 7.  Value: 39
000011t:  Control change ::  Channel 1.  Controller 7.  Value: 38
000011t:  Control change ::  Channel 1.  Controller 7.  Value: 37
000012t:  Control change ::  Channel 1.  Controller 7.  Value: 36
000011t:  Control change ::  Channel 1.  Controller 7.  Value: 35
000011t:  Control change ::  Channel 1.  Controller 7.  Value: 34
000011t:  Control change ::  Channel 1.  Controller 7.  Value: 33
000011t:  Control change ::  Channel 1.  Controller 7.  Value: 32
000012t:  Control change ::  Channel 1.  Controller 7.  Value: 31
000011t:  Control change ::  Channel 1.  Controller 7.  Value: 30
000011t:  Control change ::  Channel 1.  Controller 7.  Value: 29
000011t:  Control change ::  Channel 1.  Controller 7.  Value: 28
000011t:  Control change ::  Channel 1.  Controller 7.  Value: 27
000012t:  Control change ::  Channel 1.  Controller 7.  Value: 26
000011t:  Control change ::  Channel 1.  Controller 7.  Value: 25
000011t:  Control change ::  Channel 1.  Controller 7.  Value: 24
000011t:  Control change ::  Channel 1.  Controller 7.  Value: 23
000011t:  Control change ::  Channel 1.  Controller 7.  Value: 22
000011t:  Control change ::  Channel 1.  Controller 7.  Value: 21
000012t:  Control change ::  Channel 1.  Controller 7.  Value: 20
000011t:  Control change ::  Channel 1.  Controller 7.  Value: 19
000011t:  Control change ::  Channel 1.  Controller 7.  Value: 18
000011t:  Control change ::  Channel 1.  Controller 7.  Value: 17
000011t:  Control change ::  Channel 1.  Controller 7.  Value: 16
000012t:  Control change ::  Channel 1.  Controller 7.  Value: 15
000011t:  Control change ::  Channel 1.  Controller 7.  Value: 14
000011t:  Control change ::  Channel 1.  Controller 7.  Value: 13
000011t:  Control change ::  Channel 1.  Controller 7.  Value: 12
000011t:  Control change ::  Channel 1.  Controller 7.  Value: 11
000012t:  Control change ::  Channel 1.  Controller 7.  Value: 10
000011t:  Control change ::  Channel 1.  Controller 7.  Value: 9
000011t:  Control change ::  Channel 1.  Controller 7.  Value: 8
000011t:  Control change ::  Channel 1.  Controller 7.  Value: 7
000011t:  Control change ::  Channel 1.  Controller 7.  Value: 6
000012t:  Control change ::  Channel 1.  Controller 7.  Value: 5
000011t:  Control change ::  Channel 1.  Controller 7.  Value: 4
000011t:  Control change ::  Channel 1.  Controller 7.  Value: 3
000011t:  Control change ::  Channel 1.  Controller 7.  Value: 2
000011t:  Control change ::  Channel 1.  Controller 7.  Value: 1
000011t:  Control change ::  Channel 1.  Controller 7.  Value: 0
000000t:  Meta-event type $2f (End-track event) of length 0
Sigma t = 24911

Track chunk of 4017 bytes
000000t:  Meta-event type $21 (?) of length 1
	  _
000000t:  Program (patch) change ::  Channel 2.  Patch 80 (Lead 1 (square))
000000t:  Control change ::  Channel 2.  Controller 7.  Value: 64
000000t:  Control change ::  Channel 2.  Controller 10.  Value: 64
000079t:  Control change ::  Channel 2.  Controller 11.  Value: 100
000005t:  Control change ::  Channel 2.  Controller 100.  Value: 0
000002t:  Control change ::  Channel 2.  Controller 101.  Value: 0
000002t:  Control change ::  Channel 2.  Controller 6.  Value: 16
000002t:  Pitch wheel change ::  Channel 2.   -8192
000008t:  Control change ::  Channel 2.  Controller 1.  Value: 38
000002t:  Meta-event type $21 (?) of length 1
	  _
000000t:  Sysex type f0 of length 9
000000t:  Meta-event type $21 (?) of length 1
	  _
000002t:  Control change ::  Channel 2.  Controller 65.  Value: 0
000002t:  Control change ::  Channel 2.  Controller 5.  Value: 0
000002t:  Meta-event type $21 (?) of length 1
	  _
000000t:  Sysex type f0 of length 9
000000t:  Meta-event type $21 (?) of length 1
	  _
000002t:  Meta-event type $21 (?) of length 1
	  _
000000t:  Sysex type f0 of length 9
000000t:  Meta-event type $21 (?) of length 1
	  _
001020t:  Note on ::  Channel 2.  Note 63.  Velocity 87
000021t:  Note on ::  Channel 2.  Note 63.  Velocity 0
000003t:  Note on ::  Channel 2.  Note 63.  Velocity 94
000021t:  Note on ::  Channel 2.  Note 63.  Velocity 0
000003t:  Note on ::  Channel 2.  Note 65.  Velocity 87
000021t:  Note on ::  Channel 2.  Note 65.  Velocity 0
000003t:  Note on ::  Channel 2.  Note 65.  Velocity 94
000021t:  Note on ::  Channel 2.  Note 65.  Velocity 0
000003t:  Note on ::  Channel 2.  Note 61.  Velocity 88
000020t:  Note on ::  Channel 2.  Note 61.  Velocity 0
000004t:  Note on ::  Channel 2.  Note 61.  Velocity 94
000043t:  Note on ::  Channel 2.  Note 61.  Velocity 0
000005t:  Note on ::  Channel 2.  Note 65.  Velocity 94
000021t:  Note on ::  Channel 2.  Note 65.  Velocity 0
000003t:  Note on ::  Channel 2.  Note 63.  Velocity 89
000043t:  Note on ::  Channel 2.  Note 63.  Velocity 0
000005t:  Note on ::  Channel 2.  Note 65.  Velocity 94
000021t:  Note on ::  Channel 2.  Note 65.  Velocity 0
000003t:  Note on ::  Channel 2.  Note 65.  Velocity 94
000040t:  Note on ::  Channel 2.  Note 65.  Velocity 0
000176t:  Note on ::  Channel 2.  Note 63.  Velocity 89
000021t:  Note on ::  Channel 2.  Note 63.  Velocity 0
000003t:  Note on ::  Channel 2.  Note 63.  Velocity 94
000024t:  Note on ::  Channel 2.  Note 63.  Velocity 0
000000t:  Note on ::  Channel 2.  Note 65.  Velocity 87
000023t:  Note on ::  Channel 2.  Note 65.  Velocity 0
000001t:  Note on ::  Channel 2.  Note 65.  Velocity 94
000024t:  Note on ::  Channel 2.  Note 65.  Velocity 0
000000t:  Note on ::  Channel 2.  Note 61.  Velocity 89
000021t:  Note on ::  Channel 2.  Note 61.  Velocity 0
000003t:  Note on ::  Channel 2.  Note 61.  Velocity 94
000048t:  Note on ::  Channel 2.  Note 61.  Velocity 0
000000t:  Note on ::  Channel 2.  Note 65.  Velocity 94
000024t:  Note on ::  Channel 2.  Note 65.  Velocity 0
000000t:  Note on ::  Channel 2.  Note 63.  Velocity 90
000041t:  Note on ::  Channel 2.  Note 63.  Velocity 0
000007t:  Note on ::  Channel 2.  Note 61.  Velocity 92
000021t:  Note on ::  Channel 2.  Note 61.  Velocity 0
000003t:  Note on ::  Channel 2.  Note 61.  Velocity 94
000048t:  Note on ::  Channel 2.  Note 61.  Velocity 0
000168t:  Note on ::  Channel 2.  Note 63.  Velocity 88
000022t:  Note on ::  Channel 2.  Note 63.  Velocity 0
000002t:  Note on ::  Channel 2.  Note 63.  Velocity 94
000024t:  Note on ::  Channel 2.  Note 63.  Velocity 0
000000t:  Note on ::  Channel 2.  Note 65.  Velocity 90
000020t:  Note on ::  Channel 2.  Note 65.  Velocity 0
000004t:  Note on ::  Channel 2.  Note 65.  Velocity 94
000024t:  Note on ::  Channel 2.  Note 65.  Velocity 0
000000t:  Note on ::  Channel 2.  Note 61.  Velocity 88
000019t:  Note on ::  Channel 2.  Note 61.  Velocity 0
000005t:  Note on ::  Channel 2.  Note 61.  Velocity 94
000048t:  Note on ::  Channel 2.  Note 61.  Velocity 0
000000t:  Note on ::  Channel 2.  Note 65.  Velocity 94
000024t:  Note on ::  Channel 2.  Note 65.  Velocity 0
000000t:  Note on ::  Channel 2.  Note 63.  Velocity 87
000043t:  Note on ::  Channel 2.  Note 63.  Velocity 0
000005t:  Note on ::  Channel 2.  Note 65.  Velocity 94
000024t:  Note on ::  Channel 2.  Note 65.  Velocity 0
000000t:  Note on ::  Channel 2.  Note 65.  Velocity 94
000048t:  Note on ::  Channel 2.  Note 65.  Velocity 0
000168t:  Note on ::  Channel 2.  Note 63.  Velocity 88
000019t:  Note on ::  Channel 2.  Note 63.  Velocity 0
000005t:  Note on ::  Channel 2.  Note 63.  Velocity 94
000024t:  Note on ::  Channel 2.  Note 63.  Velocity 0
000000t:  Note on ::  Channel 2.  Note 65.  Velocity 87
000020t:  Note on ::  Channel 2.  Note 65.  Velocity 0
000004t:  Note on ::  Channel 2.  Note 65.  Velocity 94
000024t:  Note on ::  Channel 2.  Note 65.  Velocity 0
000000t:  Note on ::  Channel 2.  Note 61.  Velocity 89
000019t:  Note on ::  Channel 2.  Note 61.  Velocity 0
000005t:  Note on ::  Channel 2.  Note 61.  Velocity 94
000048t:  Note on ::  Channel 2.  Note 61.  Velocity 0
000000t:  Note on ::  Channel 2.  Note 65.  Velocity 94
000024t:  Note on ::  Channel 2.  Note 65.  Velocity 0
000000t:  Note on ::  Channel 2.  Note 63.  Velocity 87
000036t:  Note on ::  Channel 2.  Note 63.  Velocity 0
000000t:  Note on ::  Channel 2.  Note 61.  Velocity 94
000034t:  Note on ::  Channel 2.  Note 61.  Velocity 0
000002t:  Note on ::  Channel 2.  Note 61.  Velocity 94
000024t:  Note on ::  Channel 2.  Note 61.  Velocity 0
000000t:  Note on ::  Channel 2.  Note 58.  Velocity 94
000024t:  Note on ::  Channel 2.  Note 58.  Velocity 0
000000t:  Note on ::  Channel 2.  Note 58.  Velocity 94
000236t:  Note on ::  Channel 2.  Note 58.  Velocity 0
000124t:  Note on ::  Channel 2.  Note 63.  Velocity 88
000024t:  Note on ::  Channel 2.  Note 63.  Velocity 0
000000t:  Note on ::  Channel 2.  Note 63.  Velocity 94
000024t:  Note on ::  Channel 2.  Note 63.  Velocity 0
000000t:  Note on ::  Channel 2.  Note 65.  Velocity 88
000024t:  Note on ::  Channel 2.  Note 65.  Velocity 0
000000t:  Note on ::  Channel 2.  Note 65.  Velocity 94
000024t:  Note on ::  Channel 2.  Note 65.  Velocity 0
000000t:  Note on ::  Channel 2.  Note 61.  Velocity 84
000024t:  Note on ::  Channel 2.  Note 61.  Velocity 0
000000t:  Note on ::  Channel 2.  Note 61.  Velocity 94
000048t:  Note on ::  Channel 2.  Note 61.  Velocity 0
000000t:  Note on ::  Channel 2.  Note 65.  Velocity 94
000024t:  Note on ::  Channel 2.  Note 65.  Velocity 0
000000t:  Note on ::  Channel 2.  Note 63.  Velocity 89
000048t:  Note on ::  Channel 2.  Note 63.  Velocity 0
000000t:  Note on ::  Channel 2.  Note 65.  Velocity 94
000024t:  Note on ::  Channel 2.  Note 65.  Velocity 0
000000t:  Note on ::  Channel 2.  Note 65.  Velocity 94
000045t:  Note on ::  Channel 2.  Note 65.  Velocity 0
000171t:  Note on ::  Channel 2.  Note 63.  Velocity 91
000024t:  Note on ::  Channel 2.  Note 63.  Velocity 0
000000t:  Note on ::  Channel 2.  Note 63.  Velocity 94
000024t:  Note on ::  Channel 2.  Note 63.  Velocity 0
000000t:  Note on ::  Channel 2.  Note 65.  Velocity 87
000024t:  Note on ::  Channel 2.  Note 65.  Velocity 0
000000t:  Note on ::  Channel 2.  Note 65.  Velocity 94
000024t:  Note on ::  Channel 2.  Note 65.  Velocity 0
000000t:  Note on ::  Channel 2.  Note 61.  Velocity 82
000024t:  Note on ::  Channel 2.  Note 61.  Velocity 0
000000t:  Note on ::  Channel 2.  Note 61.  Velocity 94
000048t:  Note on ::  Channel 2.  Note 61.  Velocity 0
000000t:  Note on ::  Channel 2.  Note 65.  Velocity 94
000024t:  Note on ::  Channel 2.  Note 65.  Velocity 0
000000t:  Note on ::  Channel 2.  Note 63.  Velocity 82
000048t:  Note on ::  Channel 2.  Note 63.  Velocity 0
000000t:  Note on ::  Channel 2.  Note 61.  Velocity 94
000024t:  Note on ::  Channel 2.  Note 61.  Velocity 0
000000t:  Note on ::  Channel 2.  Note 61.  Velocity 94
000048t:  Note on ::  Channel 2.  Note 61.  Velocity 0
000168t:  Note on ::  Channel 2.  Note 63.  Velocity 85
000024t:  Note on ::  Channel 2.  Note 63.  Velocity 0
000000t:  Note on ::  Channel 2.  Note 63.  Velocity 95
000024t:  Note on ::  Channel 2.  Note 63.  Velocity 0
000000t:  Note on ::  Channel 2.  Note 65.  Velocity 87
000024t:  Note on ::  Channel 2.  Note 65.  Velocity 0
000000t:  Note on ::  Channel 2.  Note 65.  Velocity 94
000024t:  Note on ::  Channel 2.  Note 65.  Velocity 0
000000t:  Note on ::  Channel 2.  Note 61.  Velocity 86
000024t:  Note on ::  Channel 2.  Note 61.  Velocity 0
000000t:  Note on ::  Channel 2.  Note 61.  Velocity 94
000048t:  Note on ::  Channel 2.  Note 61.  Velocity 0
000000t:  Note on ::  Channel 2.  Note 65.  Velocity 94
000024t:  Note on ::  Channel 2.  Note 65.  Velocity 0
000000t:  Note on ::  Channel 2.  Note 63.  Velocity 81
000048t:  Note on ::  Channel 2.  Note 63.  Velocity 0
000000t:  Note on ::  Channel 2.  Note 65.  Velocity 94
000024t:  Note on ::  Channel 2.  Note 65.  Velocity 0
000000t:  Note on ::  Channel 2.  Note 65.  Velocity 94
000048t:  Note on ::  Channel 2.  Note 65.  Velocity 0
000168t:  Note on ::  Channel 2.  Note 63.  Velocity 84
000024t:  Note on ::  Channel 2.  Note 63.  Velocity 0
000000t:  Note on ::  Channel 2.  Note 63.  Velocity 94
000024t:  Note on ::  Channel 2.  Note 63.  Velocity 0
000000t:  Note on ::  Channel 2.  Note 65.  Velocity 88
000024t:  Note on ::  Channel 2.  Note 65.  Velocity 0
000000t:  Note on ::  Channel 2.  Note 65.  Velocity 94
000024t:  Note on ::  Channel 2.  Note 65.  Velocity 0
000000t:  Note on ::  Channel 2.  Note 61.  Velocity 87
000024t:  Note on ::  Channel 2.  Note 61.  Velocity 0
000000t:  Note on ::  Channel 2.  Note 61.  Velocity 94
000048t:  Note on ::  Channel 2.  Note 61.  Velocity 0
000000t:  Note on ::  Channel 2.  Note 65.  Velocity 94
000024t:  Note on ::  Channel 2.  Note 65.  Velocity 0
000000t:  Note on ::  Channel 2.  Note 63.  Velocity 87
000045t:  Note on ::  Channel 2.  Note 63.  Velocity 0
000003t:  Note on ::  Channel 2.  Note 61.  Velocity 92
000046t:  Note on ::  Channel 2.  Note 61.  Velocity 0
000002t:  Note on ::  Channel 2.  Note 61.  Velocity 94
000024t:  Note on ::  Channel 2.  Note 58.  Velocity 94
000001t:  Note on ::  Channel 2.  Note 61.  Velocity 0
000235t:  Note on ::  Channel 2.  Note 58.  Velocity 0
000003t:  Control change ::  Channel 2.  Controller 7.  Value: 90
000001t:  Note on ::  Channel 2.  Note 63.  Velocity 79
000000t:  Note on ::  Channel 2.  Note 56.  Velocity 83
000024t:  Pitch wheel change ::  Channel 2.   -8192
000023t:  Note on ::  Channel 2.  Note 56.  Velocity 0
000000t:  Note on ::  Channel 2.  Note 63.  Velocity 0
000000t:  Pitch wheel change ::  Channel 2.   -8192
000001t:  Note on ::  Channel 2.  Note 66.  Velocity 92
000000t:  Note on ::  Channel 2.  Note 60.  Velocity 94
000021t:  Note on ::  Channel 2.  Note 66.  Velocity 0
000001t:  Note on ::  Channel 2.  Note 60.  Velocity 0
000002t:  Note on ::  Channel 2.  Note 68.  Velocity 97
000000t:  Note on ::  Channel 2.  Note 61.  Velocity 101
000116t:  Note on ::  Channel 2.  Note 61.  Velocity 0
000000t:  Note on ::  Channel 2.  Note 68.  Velocity 0
000004t:  Note on ::  Channel 2.  Note 68.  Velocity 90
000000t:  Note on ::  Channel 2.  Note 60.  Velocity 94
000045t:  Note on ::  Channel 2.  Note 60.  Velocity 0
000000t:  Note on ::  Channel 2.  Note 68.  Velocity 0
000003t:  Note on ::  Channel 2.  Note 68.  Velocity 90
000000t:  Note on ::  Channel 2.  Note 61.  Velocity 94
000017t:  Note on ::  Channel 2.  Note 61.  Velocity 0
000002t:  Note on ::  Channel 2.  Note 68.  Velocity 0
000005t:  Note on ::  Channel 2.  Note 68.  Velocity 85
000000t:  Note on ::  Channel 2.  Note 60.  Velocity 87
000047t:  Note on ::  Channel 2.  Note 60.  Velocity 0
000000t:  Note on ::  Channel 2.  Note 68.  Velocity 0
000001t:  Note on ::  Channel 2.  Note 66.  Velocity 90
000000t:  Note on ::  Channel 2.  Note 58.  Velocity 94
000022t:  Note on ::  Channel 2.  Note 58.  Velocity 0
000000t:  Note on ::  Channel 2.  Note 66.  Velocity 0
000050t:  Control change ::  Channel 2.  Controller 7.  Value: 34
000096t:  Note on ::  Channel 2.  Note 65.  Velocity 94
000022t:  Note on ::  Channel 2.  Note 65.  Velocity 0
000002t:  Note on ::  Channel 2.  Note 66.  Velocity 88
000022t:  Note on ::  Channel 2.  Note 66.  Velocity 0
000002t:  Note on ::  Channel 2.  Note 65.  Velocity 94
000022t:  Note on ::  Channel 2.  Note 65.  Velocity 0
000002t:  Note on ::  Channel 2.  Note 63.  Velocity 87
000022t:  Note on ::  Channel 2.  Note 63.  Velocity 0
000026t:  Note on ::  Channel 2.  Note 68.  Velocity 92
000020t:  Note on ::  Channel 2.  Note 68.  Velocity 0
000028t:  Note on ::  Channel 2.  Note 70.  Velocity 92
000046t:  Note on ::  Channel 2.  Note 70.  Velocity 0
000002t:  Note on ::  Channel 2.  Note 65.  Velocity 90
000010t:  Note on ::  Channel 2.  Note 65.  Velocity 0
000002t:  Note on ::  Channel 2.  Note 63.  Velocity 90
000010t:  Note on ::  Channel 2.  Note 63.  Velocity 0
000002t:  Note on ::  Channel 2.  Note 61.  Velocity 94
000026t:  Note on ::  Channel 2.  Note 61.  Velocity 0
000094t:  Note on ::  Channel 2.  Note 54.  Velocity 94
000022t:  Note on ::  Channel 2.  Note 54.  Velocity 0
000002t:  Control change ::  Channel 2.  Controller 7.  Value: 90
000000t:  Note on ::  Channel 2.  Note 68.  Velocity 89
000000t:  Note on ::  Channel 2.  Note 61.  Velocity 94
000092t:  Note on ::  Channel 2.  Note 61.  Velocity 0
000000t:  Note on ::  Channel 2.  Note 68.  Velocity 0
000004t:  Note on ::  Channel 2.  Note 68.  Velocity 89
000000t:  Note on ::  Channel 2.  Note 60.  Velocity 94
000045t:  Note on ::  Channel 2.  Note 60.  Velocity 0
000000t:  Note on ::  Channel 2.  Note 68.  Velocity 0
000003t:  Note on ::  Channel 2.  Note 68.  Velocity 89
000000t:  Note on ::  Channel 2.  Note 61.  Velocity 94
000018t:  Note on ::  Channel 2.  Note 61.  Velocity 0
000000t:  Note on ::  Channel 2.  Note 68.  Velocity 0
000006t:  Note on ::  Channel 2.  Note 68.  Velocity 86
000000t:  Note on ::  Channel 2.  Note 60.  Velocity 90
000046t:  Note on ::  Channel 2.  Note 60.  Velocity 0
000000t:  Note on ::  Channel 2.  Note 68.  Velocity 0
000002t:  Note on ::  Channel 2.  Note 65.  Velocity 86
000000t:  Note on ::  Channel 2.  Note 58.  Velocity 91
000015t:  Note on ::  Channel 2.  Note 58.  Velocity 0
000001t:  Note on ::  Channel 2.  Note 65.  Velocity 0
000008t:  Control change ::  Channel 2.  Controller 7.  Value: 34
000048t:  Note on ::  Channel 2.  Note 58.  Velocity 94
000022t:  Note on ::  Channel 2.  Note 58.  Velocity 0
000002t:  Note on ::  Channel 2.  Note 61.  Velocity 94
000022t:  Note on ::  Channel 2.  Note 61.  Velocity 0
000002t:  Note on ::  Channel 2.  Note 63.  Velocity 94
000022t:  Note on ::  Channel 2.  Note 63.  Velocity 0
000002t:  Note on ::  Channel 2.  Note 63.  Velocity 94
000023t:  Control change ::  Channel 2.  Controller 7.  Value: 100
000001t:  Note on ::  Channel 2.  Note 68.  Velocity 88
000001t:  Note on ::  Channel 2.  Note 63.  Velocity 0
000381t:  Note on ::  Channel 2.  Note 68.  Velocity 0
000002t:  Control change ::  Channel 2.  Controller 7.  Value: 34
000024t:  Note on ::  Channel 2.  Note 63.  Velocity 89
000020t:  Note on ::  Channel 2.  Note 63.  Velocity 0
000004t:  Note on ::  Channel 2.  Note 63.  Velocity 94
000020t:  Note on ::  Channel 2.  Note 63.  Velocity 0
000004t:  Note on ::  Channel 2.  Note 65.  Velocity 89
000020t:  Note on ::  Channel 2.  Note 65.  Velocity 0
000004t:  Note on ::  Channel 2.  Note 65.  Velocity 94
000020t:  Note on ::  Channel 2.  Note 65.  Velocity 0
000004t:  Note on ::  Channel 2.  Note 61.  Velocity 89
000020t:  Note on ::  Channel 2.  Note 61.  Velocity 0
000004t:  Note on ::  Channel 2.  Note 61.  Velocity 94
000046t:  Note on ::  Channel 2.  Note 61.  Velocity 0
000002t:  Note on ::  Channel 2.  Note 65.  Velocity 94
000020t:  Note on ::  Channel 2.  Note 65.  Velocity 0
000004t:  Note on ::  Channel 2.  Note 63.  Velocity 88
000048t:  Note on ::  Channel 2.  Note 63.  Velocity 0
000000t:  Note on ::  Channel 2.  Note 65.  Velocity 94
000024t:  Note on ::  Channel 2.  Note 65.  Velocity 0
000000t:  Note on ::  Channel 2.  Note 65.  Velocity 94
000045t:  Note on ::  Channel 2.  Note 65.  Velocity 0
000171t:  Note on ::  Channel 2.  Note 63.  Velocity 90
000020t:  Note on ::  Channel 2.  Note 63.  Velocity 0
000004t:  Note on ::  Channel 2.  Note 63.  Velocity 94
000020t:  Note on ::  Channel 2.  Note 63.  Velocity 0
000004t:  Note on ::  Channel 2.  Note 65.  Velocity 90
000020t:  Note on ::  Channel 2.  Note 65.  Velocity 0
000004t:  Note on ::  Channel 2.  Note 65.  Velocity 94
000020t:  Note on ::  Channel 2.  Note 65.  Velocity 0
000004t:  Note on ::  Channel 2.  Note 61.  Velocity 90
000020t:  Note on ::  Channel 2.  Note 61.  Velocity 0
000004t:  Note on ::  Channel 2.  Note 61.  Velocity 94
000046t:  Note on ::  Channel 2.  Note 61.  Velocity 0
000002t:  Note on ::  Channel 2.  Note 65.  Velocity 90
000020t:  Note on ::  Channel 2.  Note 65.  Velocity 0
000004t:  Note on ::  Channel 2.  Note 63.  Velocity 94
000046t:  Note on ::  Channel 2.  Note 63.  Velocity 0
000002t:  Note on ::  Channel 2.  Note 61.  Velocity 94
000020t:  Note on ::  Channel 2.  Note 61.  Velocity 0
000004t:  Note on ::  Channel 2.  Note 61.  Velocity 94
000045t:  Note on ::  Channel 2.  Note 61.  Velocity 0
000171t:  Note on ::  Channel 2.  Note 63.  Velocity 89
000024t:  Note on ::  Channel 2.  Note 63.  Velocity 0
000000t:  Note on ::  Channel 2.  Note 63.  Velocity 94
000024t:  Note on ::  Channel 2.  Note 63.  Velocity 0
000000t:  Note on ::  Channel 2.  Note 65.  Velocity 89
000024t:  Note on ::  Channel 2.  Note 65.  Velocity 0
000000t:  Note on ::  Channel 2.  Note 65.  Velocity 94
000024t:  Note on ::  Channel 2.  Note 65.  Velocity 0
000000t:  Note on ::  Channel 2.  Note 61.  Velocity 90
000024t:  Note on ::  Channel 2.  Note 61.  Velocity 0
000000t:  Note on ::  Channel 2.  Note 61.  Velocity 94
000048t:  Note on ::  Channel 2.  Note 61.  Velocity 0
000000t:  Note on ::  Channel 2.  Note 65.  Velocity 93
000024t:  Note on ::  Channel 2.  Note 65.  Velocity 0
000000t:  Note on ::  Channel 2.  Note 63.  Velocity 87
000048t:  Note on ::  Channel 2.  Note 63.  Velocity 0
000000t:  Note on ::  Channel 2.  Note 65.  Velocity 94
000024t:  Note on ::  Channel 2.  Note 65.  Velocity 0
000000t:  Note on ::  Channel 2.  Note 65.  Velocity 94
000048t:  Note on ::  Channel 2.  Note 65.  Velocity 0
000168t:  Note on ::  Channel 2.  Note 63.  Velocity 87
000024t:  Note on ::  Channel 2.  Note 63.  Velocity 0
000000t:  Note on ::  Channel 2.  Note 63.  Velocity 94
000024t:  Note on ::  Channel 2.  Note 63.  Velocity 0
000000t:  Note on ::  Channel 2.  Note 65.  Velocity 89
000024t:  Note on ::  Channel 2.  Note 65.  Velocity 0
000000t:  Note on ::  Channel 2.  Note 65.  Velocity 94
000024t:  Note on ::  Channel 2.  Note 65.  Velocity 0
000000t:  Note on ::  Channel 2.  Note 61.  Velocity 90
000024t:  Note on ::  Channel 2.  Note 61.  Velocity 0
000000t:  Note on ::  Channel 2.  Note 61.  Velocity 94
000048t:  Note on ::  Channel 2.  Note 61.  Velocity 0
000000t:  Note on ::  Channel 2.  Note 65.  Velocity 94
000024t:  Note on ::  Channel 2.  Note 65.  Velocity 0
000000t:  Note on ::  Channel 2.  Note 63.  Velocity 87
000045t:  Note on ::  Channel 2.  Note 63.  Velocity 0
000003t:  Note on ::  Channel 2.  Note 61.  Velocity 94
000046t:  Note on ::  Channel 2.  Note 61.  Velocity 0
000002t:  Note on ::  Channel 2.  Note 61.  Velocity 88
000024t:  Note on ::  Channel 2.  Note 58.  Velocity 94
000001t:  Note on ::  Channel 2.  Note 61.  Velocity 0
000235t:  Note on ::  Channel 2.  Note 58.  Velocity 0
000004t:  Control change ::  Channel 2.  Controller 7.  Value: 100
000000t:  Note on ::  Channel 2.  Note 63.  Velocity 92
000000t:  Note on ::  Channel 2.  Note 56.  Velocity 96
000022t:  Note on ::  Channel 2.  Note 56.  Velocity 0
000000t:  Note on ::  Channel 2.  Note 63.  Velocity 0
000002t:  Note on ::  Channel 2.  Note 65.  Velocity 86
000000t:  Note on ::  Channel 2.  Note 58.  Velocity 90
000022t:  Note on ::  Channel 2.  Note 58.  Velocity 0
000000t:  Note on ::  Channel 2.  Note 65.  Velocity 0
000002t:  Note on ::  Channel 2.  Note 66.  Velocity 92
000000t:  Note on ::  Channel 2.  Note 60.  Velocity 96
000022t:  Note on ::  Channel 2.  Note 60.  Velocity 0
000000t:  Note on ::  Channel 2.  Note 66.  Velocity 0
000002t:  Note on ::  Channel 2.  Note 68.  Velocity 88
000000t:  Note on ::  Channel 2.  Note 61.  Velocity 92
000116t:  Note on ::  Channel 2.  Note 61.  Velocity 0
000000t:  Note on ::  Channel 2.  Note 68.  Velocity 0
000004t:  Note on ::  Channel 2.  Note 68.  Velocity 92
000000t:  Note on ::  Channel 2.  Note 60.  Velocity 96
000045t:  Note on ::  Channel 2.  Note 60.  Velocity 0
000000t:  Note on ::  Channel 2.  Note 68.  Velocity 0
000003t:  Note on ::  Channel 2.  Note 68.  Velocity 86
000000t:  Note on ::  Channel 2.  Note 61.  Velocity 90
000022t:  Note on ::  Channel 2.  Note 61.  Velocity 0
000000t:  Note on ::  Channel 2.  Note 68.  Velocity 0
000002t:  Note on ::  Channel 2.  Note 68.  Velocity 92
000000t:  Note on ::  Channel 2.  Note 60.  Velocity 96
000046t:  Note on ::  Channel 2.  Note 60.  Velocity 0
000000t:  Note on ::  Channel 2.  Note 68.  Velocity 0
000002t:  Note on ::  Channel 2.  Note 66.  Velocity 86
000000t:  Note on ::  Channel 2.  Note 58.  Velocity 90
000022t:  Note on ::  Channel 2.  Note 58.  Velocity 0
000000t:  Note on ::  Channel 2.  Note 66.  Velocity 0
000146t:  Note on ::  Channel 2.  Note 68.  Velocity 90
000000t:  Note on ::  Channel 2.  Note 61.  Velocity 94
000092t:  Note on ::  Channel 2.  Note 61.  Velocity 0
000000t:  Note on ::  Channel 2.  Note 68.  Velocity 0
000004t:  Note on ::  Channel 2.  Note 68.  Velocity 90
000000t:  Note on ::  Channel 2.  Note 60.  Velocity 94
000045t:  Note on ::  Channel 2.  Note 60.  Velocity 0
000000t:  Note on ::  Channel 2.  Note 68.  Velocity 0
000003t:  Note on ::  Channel 2.  Note 68.  Velocity 90
000000t:  Note on ::  Channel 2.  Note 61.  Velocity 94
000022t:  Note on ::  Channel 2.  Note 61.  Velocity 0
000000t:  Note on ::  Channel 2.  Note 68.  Velocity 0
000002t:  Note on ::  Channel 2.  Note 68.  Velocity 90
000000t:  Note on ::  Channel 2.  Note 61.  Velocity 86
000046t:  Note on ::  Channel 2.  Note 61.  Velocity 0
000000t:  Note on ::  Channel 2.  Note 68.  Velocity 0
000002t:  Note on ::  Channel 2.  Note 65.  Velocity 83
000000t:  Note on ::  Channel 2.  Note 58.  Velocity 88
000022t:  Note on ::  Channel 2.  Note 58.  Velocity 0
000000t:  Note on ::  Channel 2.  Note 65.  Velocity 0
000122t:  Note on ::  Channel 2.  Note 56.  Velocity 94
000022t:  Note on ::  Channel 2.  Note 56.  Velocity 0
000002t:  Note on ::  Channel 2.  Note 68.  Velocity 90
000000t:  Note on ::  Channel 2.  Note 61.  Velocity 94
000092t:  Note on ::  Channel 2.  Note 61.  Velocity 0
000000t:  Note on ::  Channel 2.  Note 68.  Velocity 0
000004t:  Note on ::  Channel 2.  Note 68.  Velocity 90
000000t:  Note on ::  Channel 2.  Note 60.  Velocity 94
000045t:  Note on ::  Channel 2.  Note 60.  Velocity 0
000000t:  Note on ::  Channel 2.  Note 68.  Velocity 0
000003t:  Note on ::  Channel 2.  Note 68.  Velocity 90
000000t:  Note on ::  Channel 2.  Note 61.  Velocity 94
000022t:  Note on ::  Channel 2.  Note 61.  Velocity 0
000000t:  Note on ::  Channel 2.  Note 68.  Velocity 0
000002t:  Note on ::  Channel 2.  Note 68.  Velocity 86
000000t:  Note on ::  Channel 2.  Note 60.  Velocity 89
000046t:  Note on ::  Channel 2.  Note 60.  Velocity 0
000000t:  Note on ::  Channel 2.  Note 68.  Velocity 0
000002t:  Note on ::  Channel 2.  Note 65.  Velocity 84
000000t:  Note on ::  Channel 2.  Note 58.  Velocity 89
000022t:  Note on ::  Channel 2.  Note 58.  Velocity 0
000000t:  Note on ::  Channel 2.  Note 65.  Velocity 0
000050t:  Note on ::  Channel 2.  Note 58.  Velocity 65
000022t:  Note on ::  Channel 2.  Note 58.  Velocity 0
000002t:  Note on ::  Channel 2.  Note 61.  Velocity 60
000022t:  Note on ::  Channel 2.  Note 61.  Velocity 0
000002t:  Note on ::  Channel 2.  Note 63.  Velocity 64
000022t:  Note on ::  Channel 2.  Note 63.  Velocity 0
000002t:  Note on ::  Channel 2.  Note 63.  Velocity 60
000022t:  Note on ::  Channel 2.  Note 63.  Velocity 0
000002t:  Note on ::  Channel 2.  Note 68.  Velocity 88
000382t:  Note on ::  Channel 2.  Note 68.  Velocity 0
000002t:  Note on ::  Channel 2.  Note 68.  Velocity 90
000000t:  Note on ::  Channel 2.  Note 60.  Velocity 94
000072t:  Note on ::  Channel 2.  Note 60.  Velocity 0
000000t:  Note on ::  Channel 2.  Note 68.  Velocity 0
000000t:  Note on ::  Channel 2.  Note 65.  Velocity 90
000000t:  Note on ::  Channel 2.  Note 58.  Velocity 94
000116t:  Note on ::  Channel 2.  Note 58.  Velocity 0
000000t:  Note on ::  Channel 2.  Note 65.  Velocity 0
000004t:  Note on ::  Channel 2.  Note 66.  Velocity 89
000000t:  Note on ::  Channel 2.  Note 58.  Velocity 94
000072t:  Note on ::  Channel 2.  Note 58.  Velocity 0
000000t:  Note on ::  Channel 2.  Note 66.  Velocity 0
000000t:  Note on ::  Channel 2.  Note 63.  Velocity 90
000000t:  Note on ::  Channel 2.  Note 56.  Velocity 94
000116t:  Note on ::  Channel 2.  Note 56.  Velocity 0
000000t:  Note on ::  Channel 2.  Note 63.  Velocity 0
001348t:  Program (patch) change ::  Channel 2.  Patch 91 (Pad 4 (choir))
000024t:  Control change ::  Channel 2.  Controller 7.  Value: 79
000168t:  Control change ::  Channel 2.  Controller 11.  Value: 30
000000t:  Note on ::  Channel 2.  Note 60.  Velocity 94
000000t:  Note on ::  Channel 2.  Note 56.  Velocity 94
000000t:  Note on ::  Channel 2.  Note 63.  Velocity 94
000000t:  Note on ::  Channel 2.  Note 68.  Velocity 94
000001t:  Control change ::  Channel 2.  Controller 11.  Value: 43
000001t:  Control change ::  Channel 2.  Controller 11.  Value: 53
000001t:  Control change ::  Channel 2.  Controller 11.  Value: 61
000001t:  Control change ::  Channel 2.  Controller 11.  Value: 68
000001t:  Control change ::  Channel 2.  Controller 11.  Value: 73
000001t:  Control change ::  Channel 2.  Controller 11.  Value: 78
000001t:  Control change ::  Channel 2.  Controller 11.  Value: 82
000001t:  Control change ::  Channel 2.  Controller 11.  Value: 85
000001t:  Control change ::  Channel 2.  Controller 11.  Value: 87
000001t:  Control change ::  Channel 2.  Controller 11.  Value: 90
000001t:  Control change ::  Channel 2.  Controller 11.  Value: 91
000001t:  Control change ::  Channel 2.  Controller 11.  Value: 93
000001t:  Control change ::  Channel 2.  Controller 11.  Value: 94
000001t:  Control change ::  Channel 2.  Controller 11.  Value: 95
000001t:  Control change ::  Channel 2.  Controller 11.  Value: 96
000001t:  Control change ::  Channel 2.  Controller 11.  Value: 97
000001t:  Control change ::  Channel 2.  Controller 11.  Value: 98
000002t:  Control change ::  Channel 2.  Controller 11.  Value: 99
000004t:  Control change ::  Channel 2.  Controller 11.  Value: 100
000003t:  Control change ::  Channel 2.  Controller 11.  Value: 99
000002t:  Control change ::  Channel 2.  Controller 11.  Value: 98
000002t:  Control change ::  Channel 2.  Controller 11.  Value: 97
000002t:  Control change ::  Channel 2.  Controller 11.  Value: 96
000002t:  Control change ::  Channel 2.  Controller 11.  Value: 95
000002t:  Control change ::  Channel 2.  Controller 11.  Value: 94
000002t:  Control change ::  Channel 2.  Controller 11.  Value: 93
000002t:  Control change ::  Channel 2.  Controller 11.  Value: 92
000002t:  Control change ::  Channel 2.  Controller 11.  Value: 91
000002t:  Control change ::  Channel 2.  Controller 11.  Value: 90
000003t:  Control change ::  Channel 2.  Controller 11.  Value: 89
000002t:  Control change ::  Channel 2.  Controller 11.  Value: 88
000002t:  Control change ::  Channel 2.  Controller 11.  Value: 87
000002t:  Control change ::  Channel 2.  Controller 11.  Value: 86
000002t:  Control change ::  Channel 2.  Controller 11.  Value: 85
000002t:  Control change ::  Channel 2.  Controller 11.  Value: 84
000002t:  Control change ::  Channel 2.  Controller 11.  Value: 83
000002t:  Control change ::  Channel 2.  Controller 11.  Value: 82
000002t:  Control change ::  Channel 2.  Controller 11.  Value: 81
000002t:  Control change ::  Channel 2.  Controller 11.  Value: 80
000003t:  Control change ::  Channel 2.  Controller 11.  Value: 79
000002t:  Control change ::  Channel 2.  Controller 11.  Value: 78
000002t:  Control change ::  Channel 2.  Controller 11.  Value: 77
000002t:  Control change ::  Channel 2.  Controller 11.  Value: 76
000002t:  Control change ::  Channel 2.  Controller 11.  Value: 75
000002t:  Control change ::  Channel 2.  Controller 11.  Value: 74
000002t:  Control change ::  Channel 2.  Controller 11.  Value: 73
000002t:  Control change ::  Channel 2.  Controller 11.  Value: 72
000002t:  Control change ::  Channel 2.  Controller 11.  Value: 71
000002t:  Control change ::  Channel 2.  Controller 11.  Value: 70
000003t:  Control change ::  Channel 2.  Controller 11.  Value: 69
000002t:  Control change ::  Channel 2.  Controller 11.  Value: 68
000002t:  Control change ::  Channel 2.  Controller 11.  Value: 67
000002t:  Control change ::  Channel 2.  Controller 11.  Value: 66
000002t:  Control change ::  Channel 2.  Controller 11.  Value: 65
000002t:  Control change ::  Channel 2.  Controller 11.  Value: 64
000002t:  Control change ::  Channel 2.  Controller 11.  Value: 63
000002t:  Control change ::  Channel 2.  Controller 11.  Value: 62
000002t:  Control change ::  Channel 2.  Controller 11.  Value: 61
000002t:  Control change ::  Channel 2.  Controller 11.  Value: 60
000003t:  Control change ::  Channel 2.  Controller 11.  Value: 59
000002t:  Control change ::  Channel 2.  Controller 11.  Value: 58
000002t:  Control change ::  Channel 2.  Controller 11.  Value: 57
000002t:  Control change ::  Channel 2.  Controller 11.  Value: 56
000002t:  Control change ::  Channel 2.  Controller 11.  Value: 55
000002t:  Control change ::  Channel 2.  Controller 11.  Value: 54
000002t:  Control change ::  Channel 2.  Controller 11.  Value: 53
000002t:  Control change ::  Channel 2.  Controller 11.  Value: 52
000002t:  Control change ::  Channel 2.  Controller 11.  Value: 51
000002t:  Control change ::  Channel 2.  Controller 11.  Value: 50
000003t:  Control change ::  Channel 2.  Controller 11.  Value: 49
000002t:  Control change ::  Channel 2.  Controller 11.  Value: 48
000002t:  Control change ::  Channel 2.  Controller 11.  Value: 47
000002t:  Control change ::  Channel 2.  Controller 11.  Value: 46
000002t:  Control change ::  Channel 2.  Controller 11.  Value: 45
000002t:  Control change ::  Channel 2.  Controller 11.  Value: 44
000002t:  Control change ::  Channel 2.  Controller 11.  Value: 43
000002t:  Control change ::  Channel 2.  Controller 11.  Value: 42
000002t:  Control change ::  Channel 2.  Controller 11.  Value: 41
000002t:  Control change ::  Channel 2.  Controller 11.  Value: 40
000003t:  Control change ::  Channel 2.  Controller 11.  Value: 39
000002t:  Control change ::  Channel 2.  Controller 11.  Value: 38
000002t:  Control change ::  Channel 2.  Controller 11.  Value: 37
000002t:  Control change ::  Channel 2.  Controller 11.  Value: 36
000002t:  Control change ::  Channel 2.  Controller 11.  Value: 35
000002t:  Control change ::  Channel 2.  Controller 11.  Value: 34
000002t:  Control change ::  Channel 2.  Controller 11.  Value: 33
000002t:  Control change ::  Channel 2.  Controller 11.  Value: 32
000002t:  Control change ::  Channel 2.  Controller 11.  Value: 31
000002t:  Control change ::  Channel 2.  Controller 11.  Value: 30
000003t:  Control change ::  Channel 2.  Controller 11.  Value: 29
000002t:  Control change ::  Channel 2.  Controller 11.  Value: 28
000002t:  Control change ::  Channel 2.  Controller 11.  Value: 27
000002t:  Control change ::  Channel 2.  Controller 11.  Value: 26
000002t:  Control change ::  Channel 2.  Controller 11.  Value: 25
000002t:  Control change ::  Channel 2.  Controller 11.  Value: 24
000002t:  Control change ::  Channel 2.  Controller 11.  Value: 23
000002t:  Control change ::  Channel 2.  Controller 11.  Value: 22
000002t:  Control change ::  Channel 2.  Controller 11.  Value: 21
000002t:  Control change ::  Channel 2.  Controller 11.  Value: 20
000001t:  Control change ::  Channel 2.  Controller 11.  Value: 30
000005t:  Control change ::  Channel 2.  Controller 11.  Value: 31
000004t:  Control change ::  Channel 2.  Controller 11.  Value: 32
000005t:  Control change ::  Channel 2.  Controller 11.  Value: 33
000004t:  Control change ::  Channel 2.  Controller 11.  Value: 34
000004t:  Control change ::  Channel 2.  Controller 11.  Value: 35
000005t:  Control change ::  Channel 2.  Controller 11.  Value: 36
000004t:  Control change ::  Channel 2.  Controller 11.  Value: 37
000005t:  Control change ::  Channel 2.  Controller 11.  Value: 38
000004t:  Control change ::  Channel 2.  Controller 11.  Value: 39
000004t:  Control change ::  Channel 2.  Controller 11.  Value: 40
000005t:  Control change ::  Channel 2.  Controller 11.  Value: 41
000004t:  Control change ::  Channel 2.  Controller 11.  Value: 42
000005t:  Control change ::  Channel 2.  Controller 11.  Value: 43
000004t:  Control change ::  Channel 2.  Controller 11.  Value: 44
000004t:  Control change ::  Channel 2.  Controller 11.  Value: 45
000005t:  Control change ::  Channel 2.  Controller 11.  Value: 46
000004t:  Control change ::  Channel 2.  Controller 11.  Value: 47
000005t:  Control change ::  Channel 2.  Controller 11.  Value: 48
000004t:  Control change ::  Channel 2.  Controller 11.  Value: 49
000004t:  Control change ::  Channel 2.  Controller 11.  Value: 50
000005t:  Control change ::  Channel 2.  Controller 11.  Value: 51
000004t:  Control change ::  Channel 2.  Controller 11.  Value: 52
000005t:  Control change ::  Channel 2.  Controller 11.  Value: 53
000004t:  Control change ::  Channel 2.  Controller 11.  Value: 54
000004t:  Control change ::  Channel 2.  Controller 11.  Value: 55
000005t:  Control change ::  Channel 2.  Controller 11.  Value: 56
000004t:  Control change ::  Channel 2.  Controller 11.  Value: 57
000005t:  Control change ::  Channel 2.  Controller 11.  Value: 58
000004t:  Control change ::  Channel 2.  Controller 11.  Value: 59
000004t:  Control change ::  Channel 2.  Controller 11.  Value: 60
000005t:  Control change ::  Channel 2.  Controller 11.  Value: 61
000004t:  Control change ::  Channel 2.  Controller 11.  Value: 62
000005t:  Control change ::  Channel 2.  Controller 11.  Value: 63
000004t:  Control change ::  Channel 2.  Controller 11.  Value: 64
000004t:  Control change ::  Channel 2.  Controller 11.  Value: 65
000005t:  Control change ::  Channel 2.  Controller 11.  Value: 66
000004t:  Control change ::  Channel 2.  Controller 11.  Value: 67
000003t:  Note on ::  Channel 2.  Note 68.  Velocity 0
000000t:  Note on ::  Channel 2.  Note 60.  Velocity 0
000000t:  Note on ::  Channel 2.  Note 56.  Velocity 0
000000t:  Note on ::  Channel 2.  Note 63.  Velocity 0
000001t:  Control change ::  Channel 2.  Controller 11.  Value: 68
000001t:  Control change ::  Channel 2.  Controller 11.  Value: 70
000000t:  Note on ::  Channel 2.  Note 49.  Velocity 94
000000t:  Note on ::  Channel 2.  Note 56.  Velocity 94
000000t:  Note on ::  Channel 2.  Note 65.  Velocity 94
000000t:  Note on ::  Channel 2.  Note 68.  Velocity 94
000001t:  Control change ::  Channel 2.  Controller 11.  Value: 77
000001t:  Control change ::  Channel 2.  Controller 11.  Value: 82
000001t:  Control change ::  Channel 2.  Controller 11.  Value: 85
000001t:  Control change ::  Channel 2.  Controller 11.  Value: 89
000001t:  Control change ::  Channel 2.  Controller 11.  Value: 91
000001t:  Control change ::  Channel 2.  Controller 11.  Value: 93
000001t:  Control change ::  Channel 2.  Controller 11.  Value: 95
000001t:  Control change ::  Channel 2.  Controller 11.  Value: 96
000001t:  Control change ::  Channel 2.  Controller 11.  Value: 97
000001t:  Control change ::  Channel 2.  Controller 11.  Value: 98
000002t:  Control change ::  Channel 2.  Controller 11.  Value: 99
000003t:  Control change ::  Channel 2.  Controller 11.  Value: 100
000009t:  Control change ::  Channel 2.  Controller 11.  Value: 100
000000t:  Note on ::  Channel 2.  Note 61.  Velocity 94
000001t:  Note on ::  Channel 2.  Note 49.  Velocity 0
000002t:  Control change ::  Channel 2.  Controller 11.  Value: 99
000002t:  Control change ::  Channel 2.  Controller 11.  Value: 98
000003t:  Control change ::  Channel 2.  Controller 11.  Value: 97
000002t:  Control change ::  Channel 2.  Controller 11.  Value: 96
000002t:  Control change ::  Channel 2.  Controller 11.  Value: 95
000003t:  Control change ::  Channel 2.  Controller 11.  Value: 94
000002t:  Control change ::  Channel 2.  Controller 11.  Value: 93
000003t:  Control change ::  Channel 2.  Controller 11.  Value: 92
000002t:  Control change ::  Channel 2.  Controller 11.  Value: 91
000002t:  Control change ::  Channel 2.  Controller 11.  Value: 90
000003t:  Control change ::  Channel 2.  Controller 11.  Value: 89
000002t:  Control change ::  Channel 2.  Controller 11.  Value: 88
000003t:  Control change ::  Channel 2.  Controller 11.  Value: 87
000002t:  Control change ::  Channel 2.  Controller 11.  Value: 86
000002t:  Control change ::  Channel 2.  Controller 11.  Value: 85
000003t:  Control change ::  Channel 2.  Controller 11.  Value: 84
000002t:  Control change ::  Channel 2.  Controller 11.  Value: 83
000002t:  Control change ::  Channel 2.  Controller 11.  Value: 82
000003t:  Control change ::  Channel 2.  Controller 11.  Value: 81
000002t:  Control change ::  Channel 2.  Controller 11.  Value: 80
000003t:  Control change ::  Channel 2.  Controller 11.  Value: 79
000002t:  Control change ::  Channel 2.  Controller 11.  Value: 78
000002t:  Control change ::  Channel 2.  Controller 11.  Value: 77
000003t:  Control change ::  Channel 2.  Controller 11.  Value: 76
000002t:  Control change ::  Channel 2.  Controller 11.  Value: 75
000003t:  Control change ::  Channel 2.  Controller 11.  Value: 74
000002t:  Control change ::  Channel 2.  Controller 11.  Value: 73
000002t:  Control change ::  Channel 2.  Controller 11.  Value: 72
000003t:  Control change ::  Channel 2.  Controller 11.  Value: 71
000002t:  Control change ::  Channel 2.  Controller 11.  Value: 70
000003t:  Control change ::  Channel 2.  Controller 11.  Value: 69
000002t:  Control change ::  Channel 2.  Controller 11.  Value: 68
000002t:  Control change ::  Channel 2.  Controller 11.  Value: 67
000003t:  Control change ::  Channel 2.  Controller 11.  Value: 66
000002t:  Control change ::  Channel 2.  Controller 11.  Value: 65
000002t:  Control change ::  Channel 2.  Controller 11.  Value: 64
000003t:  Control change ::  Channel 2.  Controller 11.  Value: 63
000002t:  Control change ::  Channel 2.  Controller 11.  Value: 62
000003t:  Control change ::  Channel 2.  Controller 11.  Value: 61
000002t:  Control change ::  Channel 2.  Controller 11.  Value: 60
000002t:  Control change ::  Channel 2.  Controller 11.  Value: 59
000003t:  Control change ::  Channel 2.  Controller 11.  Value: 58
000002t:  Control change ::  Channel 2.  Controller 11.  Value: 57
000003t:  Control change ::  Channel 2.  Controller 11.  Value: 56
000002t:  Control change ::  Channel 2.  Controller 11.  Value: 55
000002t:  Control change ::  Channel 2.  Controller 11.  Value: 54
000003t:  Control change ::  Channel 2.  Controller 11.  Value: 53
000002t:  Control change ::  Channel 2.  Controller 11.  Value: 52
000002t:  Control change ::  Channel 2.  Controller 11.  Value: 51
000003t:  Control change ::  Channel 2.  Controller 11.  Value: 50
000002t:  Control change ::  Channel 2.  Controller 11.  Value: 49
000003t:  Control change ::  Channel 2.  Controller 11.  Value: 48
000002t:  Control change ::  Channel 2.  Controller 11.  Value: 47
000002t:  Control change ::  Channel 2.  Controller 11.  Value: 46
000003t:  Control change ::  Channel 2.  Controller 11.  Value: 45
000002t:  Control change ::  Channel 2.  Controller 11.  Value: 44
000003t:  Control change ::  Channel 2.  Controller 11.  Value: 43
000002t:  Control change ::  Channel 2.  Controller 11.  Value: 42
000002t:  Control change ::  Channel 2.  Controller 11.  Value: 41
000003t:  Control change ::  Channel 2.  Controller 11.  Value: 40
000002t:  Control change ::  Channel 2.  Controller 11.  Value: 39
000003t:  Control change ::  Channel 2.  Controller 11.  Value: 38
000002t:  Control change ::  Channel 2.  Controller 11.  Value: 37
000002t:  Control change ::  Channel 2.  Controller 11.  Value: 36
000003t:  Control change ::  Channel 2.  Controller 11.  Value: 35
000002t:  Control change ::  Channel 2.  Controller 11.  Value: 34
000002t:  Control change ::  Channel 2.  Controller 11.  Value: 33
000003t:  Control change ::  Channel 2.  Controller 11.  Value: 32
000002t:  Control change ::  Channel 2.  Controller 11.  Value: 31
000003t:  Control change ::  Channel 2.  Controller 11.  Value: 30
000002t:  Control change ::  Channel 2.  Controller 11.  Value: 29
000002t:  Control change ::  Channel 2.  Controller 11.  Value: 28
000003t:  Control change ::  Channel 2.  Controller 11.  Value: 27
000002t:  Control change ::  Channel 2.  Controller 11.  Value: 26
000003t:  Control change ::  Channel 2.  Controller 11.  Value: 25
000002t:  Control change ::  Channel 2.  Controller 11.  Value: 24
000002t:  Control change ::  Channel 2.  Controller 11.  Value: 23
000003t:  Control change ::  Channel 2.  Controller 11.  Value: 22
000002t:  Control change ::  Channel 2.  Controller 11.  Value: 21
000001t:  Note on ::  Channel 2.  Note 68.  Velocity 0
000000t:  Note on ::  Channel 2.  Note 56.  Velocity 0
000000t:  Note on ::  Channel 2.  Note 65.  Velocity 0
000000t:  Note on ::  Channel 2.  Note 61.  Velocity 0
000001t:  Control change ::  Channel 2.  Controller 11.  Value: 20
000193t:  Control change ::  Channel 2.  Controller 11.  Value: 30
000000t:  Note on ::  Channel 2.  Note 60.  Velocity 94
000000t:  Note on ::  Channel 2.  Note 56.  Velocity 94
000000t:  Note on ::  Channel 2.  Note 63.  Velocity 94
000000t:  Note on ::  Channel 2.  Note 68.  Velocity 94
000001t:  Control change ::  Channel 2.  Controller 11.  Value: 43
000001t:  Control change ::  Channel 2.  Controller 11.  Value: 53
000001t:  Control change ::  Channel 2.  Controller 11.  Value: 61
000001t:  Control change ::  Channel 2.  Controller 11.  Value: 68
000001t:  Control change ::  Channel 2.  Controller 11.  Value: 73
000001t:  Control change ::  Channel 2.  Controller 11.  Value: 78
000001t:  Control change ::  Channel 2.  Controller 11.  Value: 82
000001t:  Control change ::  Channel 2.  Controller 11.  Value: 85
000001t:  Control change ::  Channel 2.  Controller 11.  Value: 87
000001t:  Control change ::  Channel 2.  Controller 11.  Value: 90
000001t:  Control change ::  Channel 2.  Controller 11.  Value: 91
000001t:  Control change ::  Channel 2.  Controller 11.  Value: 93
000001t:  Control change ::  Channel 2.  Controller 11.  Value: 94
000001t:  Control change ::  Channel 2.  Controller 11.  Value: 95
000001t:  Control change ::  Channel 2.  Controller 11.  Value: 96
000001t:  Control change ::  Channel 2.  Controller 11.  Value: 97
000001t:  Control change ::  Channel 2.  Controller 11.  Value: 98
000002t:  Control change ::  Channel 2.  Controller 11.  Value: 99
000004t:  Control change ::  Channel 2.  Controller 11.  Value: 100
000003t:  Control change ::  Channel 2.  Controller 11.  Value: 99
000002t:  Control change ::  Channel 2.  Controller 11.  Value: 98
000002t:  Control change ::  Channel 2.  Controller 11.  Value: 97
000002t:  Control change ::  Channel 2.  Controller 11.  Value: 96
000002t:  Control change ::  Channel 2.  Controller 11.  Value: 95
000002t:  Control change ::  Channel 2.  Controller 11.  Value: 94
000002t:  Control change ::  Channel 2.  Controller 11.  Value: 93
000002t:  Control change ::  Channel 2.  Controller 11.  Value: 92
000002t:  Control change ::  Channel 2.  Controller 11.  Value: 91
000002t:  Control change ::  Channel 2.  Controller 11.  Value: 90
000003t:  Control change ::  Channel 2.  Controller 11.  Value: 89
000002t:  Control change ::  Channel 2.  Controller 11.  Value: 88
000002t:  Control change ::  Channel 2.  Controller 11.  Value: 87
000002t:  Control change ::  Channel 2.  Controller 11.  Value: 86
000002t:  Control change ::  Channel 2.  Controller 11.  Value: 85
000002t:  Control change ::  Channel 2.  Controller 11.  Value: 84
000002t:  Control change ::  Channel 2.  Controller 11.  Value: 83
000002t:  Control change ::  Channel 2.  Controller 11.  Value: 82
000002t:  Control change ::  Channel 2.  Controller 11.  Value: 81
000002t:  Control change ::  Channel 2.  Controller 11.  Value: 80
000003t:  Control change ::  Channel 2.  Controller 11.  Value: 79
000002t:  Control change ::  Channel 2.  Controller 11.  Value: 78
000002t:  Control change ::  Channel 2.  Controller 11.  Value: 77
000002t:  Control change ::  Channel 2.  Controller 11.  Value: 76
000002t:  Control change ::  Channel 2.  Controller 11.  Value: 75
000002t:  Control change ::  Channel 2.  Controller 11.  Value: 74
000002t:  Control change ::  Channel 2.  Controller 11.  Value: 73
000002t:  Control change ::  Channel 2.  Controller 11.  Value: 72
000002t:  Control change ::  Channel 2.  Controller 11.  Value: 71
000002t:  Control change ::  Channel 2.  Controller 11.  Value: 70
000003t:  Control change ::  Channel 2.  Controller 11.  Value: 69
000002t:  Control change ::  Channel 2.  Controller 11.  Value: 68
000002t:  Control change ::  Channel 2.  Controller 11.  Value: 67
000002t:  Control change ::  Channel 2.  Controller 11.  Value: 66
000002t:  Control change ::  Channel 2.  Controller 11.  Value: 65
000002t:  Control change ::  Channel 2.  Controller 11.  Value: 64
000002t:  Control change ::  Channel 2.  Controller 11.  Value: 63
000002t:  Control change ::  Channel 2.  Controller 11.  Value: 62
000002t:  Control change ::  Channel 2.  Controller 11.  Value: 61
000002t:  Control change ::  Channel 2.  Controller 11.  Value: 60
000003t:  Control change ::  Channel 2.  Controller 11.  Value: 59
000002t:  Control change ::  Channel 2.  Controller 11.  Value: 58
000002t:  Control change ::  Channel 2.  Controller 11.  Value: 57
000002t:  Control change ::  Channel 2.  Controller 11.  Value: 56
000002t:  Control change ::  Channel 2.  Controller 11.  Value: 55
000002t:  Control change ::  Channel 2.  Controller 11.  Value: 54
000002t:  Control change ::  Channel 2.  Controller 11.  Value: 53
000002t:  Control change ::  Channel 2.  Controller 11.  Value: 52
000002t:  Control change ::  Channel 2.  Controller 11.  Value: 51
000002t:  Control change ::  Channel 2.  Controller 11.  Value: 50
000003t:  Control change ::  Channel 2.  Controller 11.  Value: 49
000002t:  Control change ::  Channel 2.  Controller 11.  Value: 48
000002t:  Control change ::  Channel 2.  Controller 11.  Value: 47
000002t:  Control change ::  Channel 2.  Controller 11.  Value: 46
000002t:  Control change ::  Channel 2.  Controller 11.  Value: 45
000002t:  Control change ::  Channel 2.  Controller 11.  Value: 44
000002t:  Control change ::  Channel 2.  Controller 11.  Value: 43
000002t:  Control change ::  Channel 2.  Controller 11.  Value: 42
000002t:  Control change ::  Channel 2.  Controller 11.  Value: 41
000002t:  Control change ::  Channel 2.  Controller 11.  Value: 40
000003t:  Control change ::  Channel 2.  Controller 11.  Value: 39
000002t:  Control change ::  Channel 2.  Controller 11.  Value: 38
000002t:  Control change ::  Channel 2.  Controller 11.  Value: 37
000002t:  Control change ::  Channel 2.  Controller 11.  Value: 36
000002t:  Control change ::  Channel 2.  Controller 11.  Value: 35
000002t:  Control change ::  Channel 2.  Controller 11.  Value: 34
000002t:  Control change ::  Channel 2.  Controller 11.  Value: 33
000002t:  Control change ::  Channel 2.  Controller 11.  Value: 32
000002t:  Control change ::  Channel 2.  Controller 11.  Value: 31
000002t:  Control change ::  Channel 2.  Controller 11.  Value: 30
000003t:  Control change ::  Channel 2.  Controller 11.  Value: 29
000002t:  Control change ::  Channel 2.  Controller 11.  Value: 28
000002t:  Control change ::  Channel 2.  Controller 11.  Value: 27
000002t:  Control change ::  Channel 2.  Controller 11.  Value: 26
000002t:  Control change ::  Channel 2.  Controller 11.  Value: 25
000002t:  Control change ::  Channel 2.  Controller 11.  Value: 24
000002t:  Control change ::  Channel 2.  Controller 11.  Value: 23
000002t:  Control change ::  Channel 2.  Controller 11.  Value: 22
000002t:  Control change ::  Channel 2.  Controller 11.  Value: 21
000002t:  Control change ::  Channel 2.  Controller 11.  Value: 20
000001t:  Control change ::  Channel 2.  Controller 11.  Value: 30
000000t:  Note on ::  Channel 2.  Note 51.  Velocity 94
000001t:  Note on ::  Channel 2.  Note 63.  Velocity 0
000004t:  Control change ::  Channel 2.  Controller 11.  Value: 31
000004t:  Control change ::  Channel 2.  Controller 11.  Value: 32
000005t:  Control change ::  Channel 2.  Controller 11.  Value: 33
000004t:  Control change ::  Channel 2.  Controller 11.  Value: 34
000004t:  Control change ::  Channel 2.  Controller 11.  Value: 35
000005t:  Control change ::  Channel 2.  Controller 11.  Value: 36
000004t:  Control change ::  Channel 2.  Controller 11.  Value: 37
000005t:  Control change ::  Channel 2.  Controller 11.  Value: 38
000004t:  Control change ::  Channel 2.  Controller 11.  Value: 39
000004t:  Control change ::  Channel 2.  Controller 11.  Value: 40
000005t:  Control change ::  Channel 2.  Controller 11.  Value: 41
000004t:  Control change ::  Channel 2.  Controller 11.  Value: 42
000005t:  Control change ::  Channel 2.  Controller 11.  Value: 43
000004t:  Control change ::  Channel 2.  Controller 11.  Value: 44
000004t:  Control change ::  Channel 2.  Controller 11.  Value: 45
000005t:  Control change ::  Channel 2.  Controller 11.  Value: 46
000004t:  Control change ::  Channel 2.  Controller 11.  Value: 47
000005t:  Control change ::  Channel 2.  Controller 11.  Value: 48
000004t:  Control change ::  Channel 2.  Controller 11.  Value: 49
000004t:  Control change ::  Channel 2.  Controller 11.  Value: 50
000005t:  Control change ::  Channel 2.  Controller 11.  Value: 51
000004t:  Control change ::  Channel 2.  Controller 11.  Value: 52
000005t:  Control change ::  Channel 2.  Controller 11.  Value: 53
000004t:  Control change ::  Channel 2.  Controller 11.  Value: 54
000004t:  Control change ::  Channel 2.  Controller 11.  Value: 55
000005t:  Control change ::  Channel 2.  Controller 11.  Value: 56
000004t:  Control change ::  Channel 2.  Controller 11.  Value: 57
000005t:  Control change ::  Channel 2.  Controller 11.  Value: 58
000004t:  Control change ::  Channel 2.  Controller 11.  Value: 59
000004t:  Control change ::  Channel 2.  Controller 11.  Value: 60
000005t:  Control change ::  Channel 2.  Controller 11.  Value: 61
000004t:  Control change ::  Channel 2.  Controller 11.  Value: 62
000005t:  Control change ::  Channel 2.  Controller 11.  Value: 63
000004t:  Control change ::  Channel 2.  Controller 11.  Value: 64
000004t:  Control change ::  Channel 2.  Controller 11.  Value: 65
000005t:  Control change ::  Channel 2.  Controller 11.  Value: 66
000004t:  Control change ::  Channel 2.  Controller 11.  Value: 67
000003t:  Note on ::  Channel 2.  Note 68.  Velocity 0
000000t:  Note on ::  Channel 2.  Note 60.  Velocity 0
000000t:  Note on ::  Channel 2.  Note 56.  Velocity 0
000000t:  Note on ::  Channel 2.  Note 51.  Velocity 0
000001t:  Control change ::  Channel 2.  Controller 11.  Value: 68
000001t:  Control change ::  Channel 2.  Controller 11.  Value: 70
000408t:  Program (patch) change ::  Channel 2.  Patch 80 (Lead 1 (square))
000012t:  Control change ::  Channel 2.  Controller 7.  Value: 34
000006t:  Control change ::  Channel 2.  Controller 11.  Value: 100
000006t:  Note on ::  Channel 2.  Note 63.  Velocity 87
000024t:  Note on ::  Channel 2.  Note 63.  Velocity 0
000000t:  Note on ::  Channel 2.  Note 63.  Velocity 94
000024t:  Note on ::  Channel 2.  Note 63.  Velocity 0
000000t:  Note on ::  Channel 2.  Note 65.  Velocity 85
000024t:  Note on ::  Channel 2.  Note 65.  Velocity 0
000000t:  Note on ::  Channel 2.  Note 65.  Velocity 93
000024t:  Note on ::  Channel 2.  Note 65.  Velocity 0
000000t:  Note on ::  Channel 2.  Note 61.  Velocity 85
000024t:  Note on ::  Channel 2.  Note 61.  Velocity 0
000000t:  Note on ::  Channel 2.  Note 61.  Velocity 94
000048t:  Note on ::  Channel 2.  Note 61.  Velocity 0
000000t:  Note on ::  Channel 2.  Note 65.  Velocity 94
000024t:  Note on ::  Channel 2.  Note 65.  Velocity 0
000000t:  Note on ::  Channel 2.  Note 63.  Velocity 85
000048t:  Note on ::  Channel 2.  Note 63.  Velocity 0
000000t:  Note on ::  Channel 2.  Note 65.  Velocity 90
000024t:  Note on ::  Channel 2.  Note 65.  Velocity 0
000000t:  Note on ::  Channel 2.  Note 65.  Velocity 94
000045t:  Note on ::  Channel 2.  Note 65.  Velocity 0
000171t:  Note on ::  Channel 2.  Note 63.  Velocity 85
000024t:  Note on ::  Channel 2.  Note 63.  Velocity 0
000000t:  Note on ::  Channel 2.  Note 63.  Velocity 94
000024t:  Note on ::  Channel 2.  Note 63.  Velocity 0
000000t:  Note on ::  Channel 2.  Note 65.  Velocity 87
000024t:  Note on ::  Channel 2.  Note 65.  Velocity 0
000000t:  Note on ::  Channel 2.  Note 65.  Velocity 93
000024t:  Note on ::  Channel 2.  Note 65.  Velocity 0
000000t:  Note on ::  Channel 2.  Note 61.  Velocity 86
000024t:  Note on ::  Channel 2.  Note 61.  Velocity 0
000000t:  Note on ::  Channel 2.  Note 61.  Velocity 94
000048t:  Note on ::  Channel 2.  Note 61.  Velocity 0
000000t:  Note on ::  Channel 2.  Note 65.  Velocity 94
000024t:  Note on ::  Channel 2.  Note 65.  Velocity 0
000000t:  Note on ::  Channel 2.  Note 63.  Velocity 85
000048t:  Note on ::  Channel 2.  Note 63.  Velocity 0
000000t:  Note on ::  Channel 2.  Note 61.  Velocity 90
000024t:  Note on ::  Channel 2.  Note 61.  Velocity 0
000000t:  Note on ::  Channel 2.  Note 61.  Velocity 94
000048t:  Note on ::  Channel 2.  Note 61.  Velocity 0
000168t:  Note on ::  Channel 2.  Note 63.  Velocity 87
000024t:  Note on ::  Channel 2.  Note 63.  Velocity 0
000000t:  Note on ::  Channel 2.  Note 63.  Velocity 94
000024t:  Note on ::  Channel 2.  Note 63.  Velocity 0
000000t:  Note on ::  Channel 2.  Note 65.  Velocity 86
000024t:  Note on ::  Channel 2.  Note 65.  Velocity 0
000000t:  Note on ::  Channel 2.  Note 65.  Velocity 94
000024t:  Note on ::  Channel 2.  Note 65.  Velocity 0
000000t:  Note on ::  Channel 2.  Note 61.  Velocity 86
000024t:  Note on ::  Channel 2.  Note 61.  Velocity 0
000000t:  Note on ::  Channel 2.  Note 61.  Velocity 94
000048t:  Note on ::  Channel 2.  Note 61.  Velocity 0
000000t:  Note on ::  Channel 2.  Note 65.  Velocity 94
000024t:  Note on ::  Channel 2.  Note 65.  Velocity 0
000000t:  Note on ::  Channel 2.  Note 63.  Velocity 85
000048t:  Note on ::  Channel 2.  Note 63.  Velocity 0
000000t:  Note on ::  Channel 2.  Note 65.  Velocity 91
000024t:  Note on ::  Channel 2.  Note 65.  Velocity 0
000000t:  Note on ::  Channel 2.  Note 65.  Velocity 94
000048t:  Note on ::  Channel 2.  Note 65.  Velocity 0
000168t:  Note on ::  Channel 2.  Note 63.  Velocity 86
000024t:  Note on ::  Channel 2.  Note 63.  Velocity 0
000000t:  Note on ::  Channel 2.  Note 63.  Velocity 94
000024t:  Note on ::  Channel 2.  Note 63.  Velocity 0
000000t:  Note on ::  Channel 2.  Note 65.  Velocity 88
000024t:  Note on ::  Channel 2.  Note 65.  Velocity 0
000000t:  Note on ::  Channel 2.  Note 65.  Velocity 94
000024t:  Note on ::  Channel 2.  Note 65.  Velocity 0
000000t:  Note on ::  Channel 2.  Note 61.  Velocity 86
000024t:  Note on ::  Channel 2.  Note 61.  Velocity 0
000000t:  Note on ::  Channel 2.  Note 61.  Velocity 94
000048t:  Note on ::  Channel 2.  Note 61.  Velocity 0
000000t:  Note on ::  Channel 2.  Note 65.  Velocity 94
000024t:  Note on ::  Channel 2.  Note 65.  Velocity 0
000000t:  Note on ::  Channel 2.  Note 63.  Velocity 85
000045t:  Note on ::  Channel 2.  Note 63.  Velocity 0
000003t:  Note on ::  Channel 2.  Note 61.  Velocity 91
000046t:  Note on ::  Channel 2.  Note 61.  Velocity 0
000002t:  Note on ::  Channel 2.  Note 61.  Velocity 90
000024t:  Note on ::  Channel 2.  Note 58.  Velocity 94
000001t:  Note on ::  Channel 2.  Note 61.  Velocity 0
000235t:  Note on ::  Channel 2.  Note 58.  Velocity 0
000004t:  Control change ::  Channel 2.  Controller 7.  Value: 100
000000t:  Note on ::  Channel 2.  Note 63.  Velocity 89
000000t:  Note on ::  Channel 2.  Note 56.  Velocity 94
000022t:  Note on ::  Channel 2.  Note 56.  Velocity 0
000000t:  Note on ::  Channel 2.  Note 63.  Velocity 0
000002t:  Note on ::  Channel 2.  Note 65.  Velocity 86
000000t:  Note on ::  Channel 2.  Note 58.  Velocity 90
000022t:  Note on ::  Channel 2.  Note 58.  Velocity 0
000000t:  Note on ::  Channel 2.  Note 65.  Velocity 0
000002t:  Note on ::  Channel 2.  Note 66.  Velocity 90
000000t:  Note on ::  Channel 2.  Note 60.  Velocity 94
000022t:  Note on ::  Channel 2.  Note 60.  Velocity 0
000000t:  Note on ::  Channel 2.  Note 66.  Velocity 0
000002t:  Note on ::  Channel 2.  Note 68.  Velocity 85
000000t:  Note on ::  Channel 2.  Note 61.  Velocity 90
000116t:  Note on ::  Channel 2.  Note 61.  Velocity 0
000000t:  Note on ::  Channel 2.  Note 68.  Velocity 0
000004t:  Note on ::  Channel 2.  Note 68.  Velocity 90
000000t:  Note on ::  Channel 2.  Note 60.  Velocity 94
000045t:  Note on ::  Channel 2.  Note 60.  Velocity 0
000000t:  Note on ::  Channel 2.  Note 68.  Velocity 0
000003t:  Note on ::  Channel 2.  Note 68.  Velocity 90
000000t:  Note on ::  Channel 2.  Note 61.  Velocity 94
000022t:  Note on ::  Channel 2.  Note 61.  Velocity 0
000000t:  Note on ::  Channel 2.  Note 68.  Velocity 0
000002t:  Note on ::  Channel 2.  Note 68.  Velocity 86
000000t:  Note on ::  Channel 2.  Note 60.  Velocity 90
000046t:  Note on ::  Channel 2.  Note 60.  Velocity 0
000000t:  Note on ::  Channel 2.  Note 68.  Velocity 0
000002t:  Note on ::  Channel 2.  Note 66.  Velocity 86
000000t:  Note on ::  Channel 2.  Note 58.  Velocity 91
000022t:  Note on ::  Channel 2.  Note 58.  Velocity 0
000000t:  Note on ::  Channel 2.  Note 66.  Velocity 0
000146t:  Control change ::  Channel 2.  Controller 7.  Value: 34
000000t:  Note on ::  Channel 2.  Note 65.  Velocity 94
000022t:  Note on ::  Channel 2.  Note 65.  Velocity 0
000002t:  Note on ::  Channel 2.  Note 66.  Velocity 87
000018t:  Note on ::  Channel 2.  Note 66.  Velocity 0
000006t:  Note on ::  Channel 2.  Note 65.  Velocity 94
000022t:  Note on ::  Channel 2.  Note 65.  Velocity 0
000002t:  Note on ::  Channel 2.  Note 63.  Velocity 83
000020t:  Note on ::  Channel 2.  Note 63.  Velocity 0
000028t:  Note on ::  Channel 2.  Note 68.  Velocity 94
000019t:  Note on ::  Channel 2.  Note 68.  Velocity 0
000029t:  Note on ::  Channel 2.  Note 70.  Velocity 89
000048t:  Note on ::  Channel 2.  Note 70.  Velocity 0
000000t:  Note on ::  Channel 2.  Note 65.  Velocity 89
000010t:  Note on ::  Channel 2.  Note 65.  Velocity 0
000002t:  Note on ::  Channel 2.  Note 63.  Velocity 87
000010t:  Note on ::  Channel 2.  Note 63.  Velocity 0
000002t:  Note on ::  Channel 2.  Note 61.  Velocity 94
000048t:  Note on ::  Channel 2.  Note 61.  Velocity 0
000072t:  Note on ::  Channel 2.  Note 54.  Velocity 93
000022t:  Note on ::  Channel 2.  Note 54.  Velocity 0
000001t:  Control change ::  Channel 2.  Controller 7.  Value: 100
000001t:  Note on ::  Channel 2.  Note 68.  Velocity 90
000000t:  Note on ::  Channel 2.  Note 61.  Velocity 94
000092t:  Note on ::  Channel 2.  Note 61.  Velocity 0
000000t:  Note on ::  Channel 2.  Note 68.  Velocity 0
000004t:  Note on ::  Channel 2.  Note 68.  Velocity 90
000000t:  Note on ::  Channel 2.  Note 60.  Velocity 94
000045t:  Note on ::  Channel 2.  Note 60.  Velocity 0
000000t:  Note on ::  Channel 2.  Note 68.  Velocity 0
000003t:  Note on ::  Channel 2.  Note 68.  Velocity 90
000000t:  Note on ::  Channel 2.  Note 61.  Velocity 94
000022t:  Note on ::  Channel 2.  Note 61.  Velocity 0
000000t:  Note on ::  Channel 2.  Note 68.  Velocity 0
000002t:  Note on ::  Channel 2.  Note 68.  Velocity 86
000000t:  Note on ::  Channel 2.  Note 60.  Velocity 90
000046t:  Note on ::  Channel 2.  Note 60.  Velocity 0
000000t:  Note on ::  Channel 2.  Note 68.  Velocity 0
000002t:  Note on ::  Channel 2.  Note 65.  Velocity 86
000000t:  Note on ::  Channel 2.  Note 58.  Velocity 90
000022t:  Note on ::  Channel 2.  Note 58.  Velocity 0
000000t:  Note on ::  Channel 2.  Note 65.  Velocity 0
000002t:  Control change ::  Channel 2.  Controller 7.  Value: 36
000048t:  Note on ::  Channel 2.  Note 58.  Velocity 94
000022t:  Note on ::  Channel 2.  Note 58.  Velocity 0
000002t:  Note on ::  Channel 2.  Note 61.  Velocity 94
000022t:  Note on ::  Channel 2.  Note 61.  Velocity 0
000002t:  Note on ::  Channel 2.  Note 63.  Velocity 94
000022t:  Note on ::  Channel 2.  Note 63.  Velocity 0
000002t:  Note on ::  Channel 2.  Note 63.  Velocity 94
000308t:  Note on ::  Channel 2.  Note 63.  Velocity 0
000003t:  Control change ::  Channel 2.  Controller 7.  Value: 100
000001t:  Note on ::  Channel 2.  Note 63.  Velocity 90
000000t:  Note on ::  Channel 2.  Note 56.  Velocity 94
000022t:  Note on ::  Channel 2.  Note 56.  Velocity 0
000000t:  Note on ::  Channel 2.  Note 63.  Velocity 0
000002t:  Note on ::  Channel 2.  Note 65.  Velocity 86
000000t:  Note on ::  Channel 2.  Note 58.  Velocity 90
000022t:  Note on ::  Channel 2.  Note 58.  Velocity 0
000000t:  Note on ::  Channel 2.  Note 65.  Velocity 0
000002t:  Note on ::  Channel 2.  Note 66.  Velocity 90
000000t:  Note on ::  Channel 2.  Note 60.  Velocity 94
000022t:  Note on ::  Channel 2.  Note 60.  Velocity 0
000000t:  Note on ::  Channel 2.  Note 66.  Velocity 0
000002t:  Note on ::  Channel 2.  Note 68.  Velocity 87
000000t:  Note on ::  Channel 2.  Note 61.  Velocity 90
000116t:  Note on ::  Channel 2.  Note 61.  Velocity 0
000000t:  Note on ::  Channel 2.  Note 68.  Velocity 0
000004t:  Note on ::  Channel 2.  Note 68.  Velocity 90
000000t:  Note on ::  Channel 2.  Note 60.  Velocity 94
000045t:  Note on ::  Channel 2.  Note 60.  Velocity 0
000000t:  Note on ::  Channel 2.  Note 68.  Velocity 0
000003t:  Note on ::  Channel 2.  Note 68.  Velocity 90
000000t:  Note on ::  Channel 2.  Note 61.  Velocity 94
000022t:  Note on ::  Channel 2.  Note 61.  Velocity 0
000000t:  Note on ::  Channel 2.  Note 68.  Velocity 0
000002t:  Note on ::  Channel 2.  Note 68.  Velocity 86
000000t:  Note on ::  Channel 2.  Note 60.  Velocity 90
000046t:  Note on ::  Channel 2.  Note 60.  Velocity 0
000000t:  Note on ::  Channel 2.  Note 68.  Velocity 0
000002t:  Note on ::  Channel 2.  Note 66.  Velocity 84
000000t:  Note on ::  Channel 2.  Note 58.  Velocity 88
000022t:  Note on ::  Channel 2.  Note 58.  Velocity 0
000000t:  Note on ::  Channel 2.  Note 66.  Velocity 0
000146t:  Note on ::  Channel 2.  Note 68.  Velocity 90
000000t:  Note on ::  Channel 2.  Note 61.  Velocity 94
000094t:  Note on ::  Channel 2.  Note 61.  Velocity 0
000000t:  Note on ::  Channel 2.  Note 68.  Velocity 0
000002t:  Note on ::  Channel 2.  Note 68.  Velocity 90
000000t:  Note on ::  Channel 2.  Note 60.  Velocity 94
000045t:  Note on ::  Channel 2.  Note 60.  Velocity 0
000000t:  Note on ::  Channel 2.  Note 68.  Velocity 0
000003t:  Note on ::  Channel 2.  Note 68.  Velocity 90
000000t:  Note on ::  Channel 2.  Note 61.  Velocity 94
000022t:  Note on ::  Channel 2.  Note 61.  Velocity 0
000000t:  Note on ::  Channel 2.  Note 68.  Velocity 0
000002t:  Note on ::  Channel 2.  Note 68.  Velocity 86
000000t:  Note on ::  Channel 2.  Note 61.  Velocity 90
000046t:  Note on ::  Channel 2.  Note 61.  Velocity 0
000000t:  Note on ::  Channel 2.  Note 68.  Velocity 0
000002t:  Note on ::  Channel 2.  Note 65.  Velocity 86
000000t:  Note on ::  Channel 2.  Note 58.  Velocity 90
000022t:  Note on ::  Channel 2.  Note 58.  Velocity 0
000000t:  Note on ::  Channel 2.  Note 65.  Velocity 0
000122t:  Note on ::  Channel 2.  Note 56.  Velocity 85
000022t:  Note on ::  Channel 2.  Note 56.  Velocity 0
000002t:  Note on ::  Channel 2.  Note 68.  Velocity 88
000000t:  Note on ::  Channel 2.  Note 61.  Velocity 94
000092t:  Note on ::  Channel 2.  Note 61.  Velocity 0
000000t:  Note on ::  Channel 2.  Note 68.  Velocity 0
000004t:  Note on ::  Channel 2.  Note 68.  Velocity 89
000000t:  Note on ::  Channel 2.  Note 60.  Velocity 93
000045t:  Note on ::  Channel 2.  Note 60.  Velocity 0
000000t:  Note on ::  Channel 2.  Note 68.  Velocity 0
000003t:  Note on ::  Channel 2.  Note 68.  Velocity 90
000000t:  Note on ::  Channel 2.  Note 61.  Velocity 94
000022t:  Note on ::  Channel 2.  Note 61.  Velocity 0
000000t:  Note on ::  Channel 2.  Note 68.  Velocity 0
000002t:  Note on ::  Channel 2.  Note 68.  Velocity 86
000000t:  Note on ::  Channel 2.  Note 60.  Velocity 90
000046t:  Note on ::  Channel 2.  Note 60.  Velocity 0
000000t:  Note on ::  Channel 2.  Note 68.  Velocity 0
000002t:  Note on ::  Channel 2.  Note 65.  Velocity 86
000000t:  Note on ::  Channel 2.  Note 58.  Velocity 90
000022t:  Note on ::  Channel 2.  Note 58.  Velocity 0
000000t:  Note on ::  Channel 2.  Note 65.  Velocity 0
000050t:  Note on ::  Channel 2.  Note 58.  Velocity 78
000022t:  Note on ::  Channel 2.  Note 58.  Velocity 0
000002t:  Note on ::  Channel 2.  Note 61.  Velocity 71
000022t:  Note on ::  Channel 2.  Note 61.  Velocity 0
000002t:  Note on ::  Channel 2.  Note 63.  Velocity 81
000022t:  Note on ::  Channel 2.  Note 63.  Velocity 0
000002t:  Note on ::  Channel 2.  Note 63.  Velocity 77
000024t:  Note on ::  Channel 2.  Note 68.  Velocity 90
000001t:  Note on ::  Channel 2.  Note 63.  Velocity 0
000383t:  Note on ::  Channel 2.  Note 68.  Velocity 0
000000t:  Note on ::  Channel 2.  Note 68.  Velocity 89
000000t:  Note on ::  Channel 2.  Note 60.  Velocity 94
000072t:  Note on ::  Channel 2.  Note 60.  Velocity 0
000000t:  Note on ::  Channel 2.  Note 68.  Velocity 0
000000t:  Note on ::  Channel 2.  Note 65.  Velocity 84
000000t:  Note on ::  Channel 2.  Note 58.  Velocity 89
000116t:  Note on ::  Channel 2.  Note 58.  Velocity 0
000000t:  Note on ::  Channel 2.  Note 65.  Velocity 0
000004t:  Note on ::  Channel 2.  Note 66.  Velocity 89
000000t:  Note on ::  Channel 2.  Note 58.  Velocity 94
000068t:  Note on ::  Channel 2.  Note 58.  Velocity 0
000000t:  Note on ::  Channel 2.  Note 66.  Velocity 0
000004t:  Note on ::  Channel 2.  Note 63.  Velocity 82
000000t:  Note on ::  Channel 2.  Note 56.  Velocity 87
000116t:  Note on ::  Channel 2.  Note 56.  Velocity 0
000000t:  Note on ::  Channel 2.  Note 63.  Velocity 0
003268t:  Note on ::  Channel 2.  Note 68.  Velocity 87
000000t:  Note on ::  Channel 2.  Note 61.  Velocity 94
000092t:  Note on ::  Channel 2.  Note 61.  Velocity 0
000000t:  Note on ::  Channel 2.  Note 68.  Velocity 0
000004t:  Note on ::  Channel 2.  Note 68.  Velocity 87
000000t:  Note on ::  Channel 2.  Note 60.  Velocity 94
000045t:  Note on ::  Channel 2.  Note 60.  Velocity 0
000000t:  Note on ::  Channel 2.  Note 68.  Velocity 0
000003t:  Note on ::  Channel 2.  Note 68.  Velocity 90
000000t:  Note on ::  Channel 2.  Note 61.  Velocity 94
000022t:  Note on ::  Channel 2.  Note 61.  Velocity 0
000000t:  Note on ::  Channel 2.  Note 68.  Velocity 0
000002t:  Note on ::  Channel 2.  Note 68.  Velocity 82
000000t:  Note on ::  Channel 2.  Note 60.  Velocity 87
000046t:  Note on ::  Channel 2.  Note 60.  Velocity 0
000000t:  Note on ::  Channel 2.  Note 68.  Velocity 0
000002t:  Note on ::  Channel 2.  Note 66.  Velocity 83
000000t:  Note on ::  Channel 2.  Note 58.  Velocity 89
000022t:  Note on ::  Channel 2.  Note 58.  Velocity 0
000000t:  Note on ::  Channel 2.  Note 66.  Velocity 0
000146t:  Note on ::  Channel 2.  Note 68.  Velocity 89
000000t:  Note on ::  Channel 2.  Note 61.  Velocity 94
000092t:  Note on ::  Channel 2.  Note 61.  Velocity 0
000000t:  Note on ::  Channel 2.  Note 68.  Velocity 0
000004t:  Note on ::  Channel 2.  Note 68.  Velocity 89
000000t:  Note on ::  Channel 2.  Note 60.  Velocity 94
000045t:  Note on ::  Channel 2.  Note 60.  Velocity 0
000000t:  Note on ::  Channel 2.  Note 68.  Velocity 0
000003t:  Note on ::  Channel 2.  Note 68.  Velocity 90
000000t:  Note on ::  Channel 2.  Note 61.  Velocity 94
000022t:  Note on ::  Channel 2.  Note 61.  Velocity 0
000000t:  Note on ::  Channel 2.  Note 68.  Velocity 0
000002t:  Note on ::  Channel 2.  Note 68.  Velocity 84
000000t:  Note on ::  Channel 2.  Note 61.  Velocity 90
000046t:  Note on ::  Channel 2.  Note 61.  Velocity 0
000000t:  Note on ::  Channel 2.  Note 68.  Velocity 0
000002t:  Note on ::  Channel 2.  Note 65.  Velocity 85
000000t:  Note on ::  Channel 2.  Note 58.  Velocity 90
000022t:  Note on ::  Channel 2.  Note 58.  Velocity 0
000000t:  Note on ::  Channel 2.  Note 65.  Velocity 0
000050t:  Control change ::  Channel 2.  Controller 7.  Value: 100
000096t:  Control change ::  Channel 2.  Controller 7.  Value: 100
000000t:  Note on ::  Channel 2.  Note 68.  Velocity 89
000000t:  Note on ::  Channel 2.  Note 61.  Velocity 94
000014t:  Control change ::  Channel 2.  Controller 7.  Value: 99
000013t:  Control change ::  Channel 2.  Controller 7.  Value: 98
000014t:  Control change ::  Channel 2.  Controller 7.  Value: 97
000013t:  Control change ::  Channel 2.  Controller 7.  Value: 96
000014t:  Control change ::  Channel 2.  Controller 7.  Value: 95
000013t:  Control change ::  Channel 2.  Controller 7.  Value: 94
000011t:  Note on ::  Channel 2.  Note 61.  Velocity 0
000000t:  Note on ::  Channel 2.  Note 68.  Velocity 0
000003t:  Control change ::  Channel 2.  Controller 7.  Value: 93
000001t:  Note on ::  Channel 2.  Note 68.  Velocity 90
000000t:  Note on ::  Channel 2.  Note 60.  Velocity 94
000012t:  Control change ::  Channel 2.  Controller 7.  Value: 92
000013t:  Control change ::  Channel 2.  Controller 7.  Value: 91
000014t:  Control change ::  Channel 2.  Controller 7.  Value: 90
000006t:  Note on ::  Channel 2.  Note 60.  Velocity 0
000000t:  Note on ::  Channel 2.  Note 68.  Velocity 0
000003t:  Note on ::  Channel 2.  Note 68.  Velocity 89
000000t:  Note on ::  Channel 2.  Note 61.  Velocity 94
000004t:  Control change ::  Channel 2.  Controller 7.  Value: 89
000014t:  Control change ::  Channel 2.  Controller 7.  Value: 88
000004t:  Note on ::  Channel 2.  Note 61.  Velocity 0
000000t:  Note on ::  Channel 2.  Note 68.  Velocity 0
000002t:  Note on ::  Channel 2.  Note 68.  Velocity 82
000000t:  Note on ::  Channel 2.  Note 60.  Velocity 88
000007t:  Control change ::  Channel 2.  Controller 7.  Value: 87
000014t:  Control change ::  Channel 2.  Controller 7.  Value: 86
000013t:  Control change ::  Channel 2.  Controller 7.  Value: 85
000012t:  Note on ::  Channel 2.  Note 60.  Velocity 0
000000t:  Note on ::  Channel 2.  Note 68.  Velocity 0
000001t:  Control change ::  Channel 2.  Controller 7.  Value: 84
000001t:  Note on ::  Channel 2.  Note 65.  Velocity 81
000000t:  Note on ::  Channel 2.  Note 58.  Velocity 87
000013t:  Control change ::  Channel 2.  Controller 7.  Value: 83
000009t:  Note on ::  Channel 2.  Note 58.  Velocity 0
000000t:  Note on ::  Channel 2.  Note 65.  Velocity 0
000004t:  Control change ::  Channel 2.  Controller 7.  Value: 82
000014t:  Control change ::  Channel 2.  Controller 7.  Value: 81
000013t:  Control change ::  Channel 2.  Controller 7.  Value: 80
000014t:  Control change ::  Channel 2.  Controller 7.  Value: 79
000013t:  Control change ::  Channel 2.  Controller 7.  Value: 78
000013t:  Control change ::  Channel 2.  Controller 7.  Value: 77
000014t:  Control change ::  Channel 2.  Controller 7.  Value: 76
000013t:  Control change ::  Channel 2.  Controller 7.  Value: 75
000014t:  Control change ::  Channel 2.  Controller 7.  Value: 74
000013t:  Control change ::  Channel 2.  Controller 7.  Value: 73
000014t:  Control change ::  Channel 2.  Controller 7.  Value: 72
000013t:  Control change ::  Channel 2.  Controller 7.  Value: 71
000013t:  Control change ::  Channel 2.  Controller 7.  Value: 70
000014t:  Control change ::  Channel 2.  Controller 7.  Value: 69
000013t:  Control change ::  Channel 2.  Controller 7.  Value: 68
000014t:  Control change ::  Channel 2.  Controller 7.  Value: 67
000013t:  Control change ::  Channel 2.  Controller 7.  Value: 66
000014t:  Control change ::  Channel 2.  Controller 7.  Value: 65
000013t:  Control change ::  Channel 2.  Controller 7.  Value: 64
000013t:  Control change ::  Channel 2.  Controller 7.  Value: 63
000014t:  Control change ::  Channel 2.  Controller 7.  Value: 62
000013t:  Control change ::  Channel 2.  Controller 7.  Value: 61
000014t:  Control change ::  Channel 2.  Controller 7.  Value: 60
000013t:  Control change ::  Channel 2.  Controller 7.  Value: 59
000014t:  Control change ::  Channel 2.  Controller 7.  Value: 58
000013t:  Control change ::  Channel 2.  Controller 7.  Value: 57
000013t:  Control change ::  Channel 2.  Controller 7.  Value: 56
000014t:  Control change ::  Channel 2.  Controller 7.  Value: 55
000013t:  Control change ::  Channel 2.  Controller 7.  Value: 54
000014t:  Control change ::  Channel 2.  Controller 7.  Value: 53
000013t:  Control change ::  Channel 2.  Controller 7.  Value: 52
000014t:  Control change ::  Channel 2.  Controller 7.  Value: 51
000013t:  Control change ::  Channel 2.  Controller 7.  Value: 50
000013t:  Control change ::  Channel 2.  Controller 7.  Value: 49
000014t:  Control change ::  Channel 2.  Controller 7.  Value: 48
000013t:  Control change ::  Channel 2.  Controller 7.  Value: 47
000014t:  Control change ::  Channel 2.  Controller 7.  Value: 46
000013t:  Control change ::  Channel 2.  Controller 7.  Value: 45
000014t:  Control change ::  Channel 2.  Controller 7.  Value: 44
000013t:  Control change ::  Channel 2.  Controller 7.  Value: 43
000013t:  Control change ::  Channel 2.  Controller 7.  Value: 42
000014t:  Control change ::  Channel 2.  Controller 7.  Value: 41
000013t:  Control change ::  Channel 2.  Controller 7.  Value: 40
000014t:  Control change ::  Channel 2.  Controller 7.  Value: 39
000013t:  Control change ::  Channel 2.  Controller 7.  Value: 38
000014t:  Control change ::  Channel 2.  Controller 7.  Value: 37
000013t:  Control change ::  Channel 2.  Controller 7.  Value: 36
000013t:  Control change ::  Channel 2.  Controller 7.  Value: 35
000014t:  Control change ::  Channel 2.  Controller 7.  Value: 34
000013t:  Control change ::  Channel 2.  Controller 7.  Value: 33
000014t:  Control change ::  Channel 2.  Controller 7.  Value: 32
000013t:  Control change ::  Channel 2.  Controller 7.  Value: 31
000014t:  Control change ::  Channel 2.  Controller 7.  Value: 30
000013t:  Control change ::  Channel 2.  Controller 7.  Value: 29
000013t:  Control change ::  Channel 2.  Controller 7.  Value: 28
000014t:  Control change ::  Channel 2.  Controller 7.  Value: 27
000013t:  Control change ::  Channel 2.  Controller 7.  Value: 26
000014t:  Control change ::  Channel 2.  Controller 7.  Value: 25
000013t:  Control change ::  Channel 2.  Controller 7.  Value: 24
000014t:  Control change ::  Channel 2.  Controller 7.  Value: 23
000013t:  Control change ::  Channel 2.  Controller 7.  Value: 22
000013t:  Control change ::  Channel 2.  Controller 7.  Value: 21
000014t:  Control change ::  Channel 2.  Controller 7.  Value: 20
000013t:  Control change ::  Channel 2.  Controller 7.  Value: 19
000014t:  Control change ::  Channel 2.  Controller 7.  Value: 18
000013t:  Control change ::  Channel 2.  Controller 7.  Value: 17
000014t:  Control change ::  Channel 2.  Controller 7.  Value: 16
000013t:  Control change ::  Channel 2.  Controller 7.  Value: 15
000013t:  Control change ::  Channel 2.  Controller 7.  Value: 14
000014t:  Control change ::  Channel 2.  Controller 7.  Value: 13
000013t:  Control change ::  Channel 2.  Controller 7.  Value: 12
000014t:  Control change ::  Channel 2.  Controller 7.  Value: 11
000013t:  Control change ::  Channel 2.  Controller 7.  Value: 10
000014t:  Control change ::  Channel 2.  Controller 7.  Value: 9
000013t:  Control change ::  Channel 2.  Controller 7.  Value: 8
000013t:  Control change ::  Channel 2.  Controller 7.  Value: 7
000014t:  Control change ::  Channel 2.  Controller 7.  Value: 6
000013t:  Control change ::  Channel 2.  Controller 7.  Value: 5
000014t:  Control change ::  Channel 2.  Controller 7.  Value: 4
000013t:  Control change ::  Channel 2.  Controller 7.  Value: 3
000014t:  Control change ::  Channel 2.  Controller 7.  Value: 2
000013t:  Control change ::  Channel 2.  Controller 7.  Value: 1
000013t:  Control change ::  Channel 2.  Controller 7.  Value: 0
000000t:  Meta-event type $2f (End-track event) of length 0
Sigma t = 24911

Track chunk of 222 bytes
000000t:  Meta-event type $21 (?) of length 1
	  _
000000t:  Program (patch) change ::  Channel 3.  Patch 80 (Lead 1 (square))
000000t:  Control change ::  Channel 3.  Controller 7.  Value: 100
000000t:  Control change ::  Channel 3.  Controller 10.  Value: 64
000081t:  Control change ::  Channel 3.  Controller 11.  Value: 100
000005t:  Control change ::  Channel 3.  Controller 100.  Value: 0
000002t:  Control change ::  Channel 3.  Controller 101.  Value: 0
000002t:  Control change ::  Channel 3.  Controller 6.  Value: 16
000002t:  Pitch wheel change ::  Channel 3.   -8192
000008t:  Control change ::  Channel 3.  Controller 1.  Value: 38
000002t:  Meta-event type $21 (?) of length 1
	  _
000000t:  Sysex type f0 of length 9
000000t:  Meta-event type $21 (?) of length 1
	  _
000002t:  Control change ::  Channel 3.  Controller 65.  Value: 0
000002t:  Control change ::  Channel 3.  Controller 5.  Value: 0
000002t:  Meta-event type $21 (?) of length 1
	  _
000000t:  Sysex type f0 of length 9
000000t:  Meta-event type $21 (?) of length 1
	  _
000002t:  Meta-event type $21 (?) of length 1
	  _
000000t:  Sysex type f0 of length 9
000000t:  Meta-event type $21 (?) of length 1
	  _
006274t:  Control change ::  Channel 3.  Controller 11.  Value: 100
000048t:  Pitch wheel change ::  Channel 3.   -8192
000024t:  Control change ::  Channel 3.  Controller 7.  Value: 100
000024t:  Note on ::  Channel 3.  Note 73.  Velocity 94
000192t:  Pitch wheel change ::  Channel 3.   -8192
000190t:  Note on ::  Channel 3.  Note 73.  Velocity 0
000002t:  Control change ::  Channel 3.  Controller 7.  Value: 34
000024t:  Program (patch) change ::  Channel 3.  Patch 0 (Acoustic Grand)
000024t:  Pitch wheel change ::  Channel 3.   -8192
003144t:  Pitch wheel change ::  Channel 3.   -8192
000024t:  Program (patch) change ::  Channel 3.  Patch 80 (Lead 1 (square))
000024t:  Control change ::  Channel 3.  Controller 7.  Value: 100
000024t:  Note on ::  Channel 3.  Note 73.  Velocity 94
000192t:  Pitch wheel change ::  Channel 3.   -8192
000190t:  Note on ::  Channel 3.  Note 73.  Velocity 0
000002t:  Control change ::  Channel 3.  Controller 7.  Value: 34
000024t:  Pitch wheel change ::  Channel 3.   -8192
000024t:  Program (patch) change ::  Channel 3.  Patch 0 (Acoustic Grand)
008136t:  Program (patch) change ::  Channel 3.  Patch 80 (Lead 1 (square))
000024t:  Pitch wheel change ::  Channel 3.   -8192
000024t:  Control change ::  Channel 3.  Controller 7.  Value: 100
000024t:  Note on ::  Channel 3.  Note 73.  Velocity 94
000192t:  Pitch wheel change ::  Channel 3.   -8192
000190t:  Note on ::  Channel 3.  Note 73.  Velocity 0
000002t:  Control change ::  Channel 3.  Controller 7.  Value: 34
000024t:  Program (patch) change ::  Channel 3.  Patch 0 (Acoustic Grand)
000024t:  Pitch wheel change ::  Channel 3.   -8192
000000t:  Meta-event type $2f (End-track event) of length 0
Sigma t = 19200

Track chunk of 18468 bytes
000000t:  Meta-event type $21 (?) of length 1
	  _
000000t:  Program (patch) change ::  Channel 4.  Patch 30 (Distortion Guitar)
000000t:  Control change ::  Channel 4.  Controller 7.  Value: 92
000000t:  Control change ::  Channel 4.  Controller 10.  Value: 102
000083t:  Control change ::  Channel 4.  Controller 11.  Value: 100
000005t:  Control change ::  Channel 4.  Controller 100.  Value: 0
000002t:  Control change ::  Channel 4.  Controller 101.  Value: 0
000002t:  Control change ::  Channel 4.  Controller 6.  Value: 16
000002t:  Pitch wheel change ::  Channel 4.   -8192
000008t:  Control change ::  Channel 4.  Controller 1.  Value: 62
000002t:  Meta-event type $21 (?) of length 1
	  _
000000t:  Sysex type f0 of length 9
000000t:  Meta-event type $21 (?) of length 1
	  _
000002t:  Control change ::  Channel 4.  Controller 65.  Value: 0
000002t:  Control change ::  Channel 4.  Controller 5.  Value: 0
000002t:  Meta-event type $21 (?) of length 1
	  _
000000t:  Sysex type f0 of length 9
000000t:  Meta-event type $21 (?) of length 1
	  _
000002t:  Meta-event type $21 (?) of length 1
	  _
000000t:  Sysex type f0 of length 9
000000t:  Meta-event type $21 (?) of length 1
	  _
000028t:  Control change ::  Channel 4.  Controller 11.  Value: 120
000000t:  Note on ::  Channel 4.  Note 44.  Velocity 80
000001t:  Note on ::  Channel 4.  Note 51.  Velocity 83
000000t:  Control change ::  Channel 4.  Controller 11.  Value: 117
000001t:  Note on ::  Channel 4.  Note 56.  Velocity 87
000000t:  Control change ::  Channel 4.  Controller 11.  Value: 115
000001t:  Note on ::  Channel 4.  Note 60.  Velocity 92
000000t:  Control change ::  Channel 4.  Controller 11.  Value: 113
000001t:  Note on ::  Channel 4.  Note 63.  Velocity 98
000000t:  Note on ::  Channel 4.  Note 68.  Velocity 105
000000t:  Control change ::  Channel 4.  Controller 11.  Value: 112
000001t:  Control change ::  Channel 4.  Controller 11.  Value: 110
000001t:  Control change ::  Channel 4.  Controller 11.  Value: 108
000001t:  Control change ::  Channel 4.  Controller 11.  Value: 107
000001t:  Control change ::  Channel 4.  Controller 11.  Value: 106
000001t:  Control change ::  Channel 4.  Controller 11.  Value: 105
000001t:  Control change ::  Channel 4.  Controller 11.  Value: 103
000001t:  Control change ::  Channel 4.  Controller 11.  Value: 102
000002t:  Control change ::  Channel 4.  Controller 11.  Value: 101
000001t:  Control change ::  Channel 4.  Controller 11.  Value: 100
000001t:  Control change ::  Channel 4.  Controller 11.  Value: 99
000001t:  Control change ::  Channel 4.  Controller 11.  Value: 98
000002t:  Control change ::  Channel 4.  Controller 11.  Value: 97
000002t:  Control change ::  Channel 4.  Controller 11.  Value: 96
000002t:  Control change ::  Channel 4.  Controller 11.  Value: 95
000002t:  Control change ::  Channel 4.  Controller 11.  Value: 94
000003t:  Control change ::  Channel 4.  Controller 11.  Value: 93
000004t:  Control change ::  Channel 4.  Controller 11.  Value: 92
000005t:  Control change ::  Channel 4.  Controller 11.  Value: 91
000009t:  Control change ::  Channel 4.  Controller 11.  Value: 90
000023t:  Pitch wheel change ::  Channel 4.   -8192
000003t:  Note on ::  Channel 4.  Note 68.  Velocity 0
000000t:  Note on ::  Channel 4.  Note 51.  Velocity 0
000000t:  Note on ::  Channel 4.  Note 56.  Velocity 0
000000t:  Note on ::  Channel 4.  Note 44.  Velocity 0
000000t:  Note on ::  Channel 4.  Note 63.  Velocity 0
000000t:  Note on ::  Channel 4.  Note 60.  Velocity 0
000000t:  Pitch wheel change ::  Channel 4.   -8192
000003t:  Control change ::  Channel 4.  Controller 11.  Value: 120
000000t:  Note on ::  Channel 4.  Note 46.  Velocity 80
000000t:  Pitch wheel change ::  Channel 4.   -8192
000001t:  Note on ::  Channel 4.  Note 53.  Velocity 83
000000t:  Control change ::  Channel 4.  Controller 11.  Value: 117
000001t:  Note on ::  Channel 4.  Note 58.  Velocity 87
000000t:  Control change ::  Channel 4.  Controller 11.  Value: 115
000001t:  Note on ::  Channel 4.  Note 61.  Velocity 92
000000t:  Control change ::  Channel 4.  Controller 11.  Value: 113
000001t:  Note on ::  Channel 4.  Note 65.  Velocity 98
000000t:  Note on ::  Channel 4.  Note 70.  Velocity 105
000000t:  Control change ::  Channel 4.  Controller 11.  Value: 111
000001t:  Control change ::  Channel 4.  Controller 11.  Value: 109
000001t:  Control change ::  Channel 4.  Controller 11.  Value: 108
000001t:  Control change ::  Channel 4.  Controller 11.  Value: 106
000001t:  Control change ::  Channel 4.  Controller 11.  Value: 105
000001t:  Control change ::  Channel 4.  Controller 11.  Value: 104
000001t:  Control change ::  Channel 4.  Controller 11.  Value: 103
000001t:  Control change ::  Channel 4.  Controller 11.  Value: 102
000001t:  Control change ::  Channel 4.  Controller 11.  Value: 101
000001t:  Control change ::  Channel 4.  Controller 11.  Value: 100
000001t:  Control change ::  Channel 4.  Controller 11.  Value: 99
000002t:  Control change ::  Channel 4.  Controller 11.  Value: 98
000001t:  Control change ::  Channel 4.  Controller 11.  Value: 97
000002t:  Control change ::  Channel 4.  Controller 11.  Value: 96
000001t:  Control change ::  Channel 4.  Controller 11.  Value: 95
000003t:  Control change ::  Channel 4.  Controller 11.  Value: 94
000002t:  Control change ::  Channel 4.  Controller 11.  Value: 93
000004t:  Control change ::  Channel 4.  Controller 11.  Value: 92
000005t:  Control change ::  Channel 4.  Controller 11.  Value: 91
000009t:  Control change ::  Channel 4.  Controller 11.  Value: 90
000024t:  Pitch wheel change ::  Channel 4.   -8192
000002t:  Note on ::  Channel 4.  Note 70.  Velocity 0
000000t:  Note on ::  Channel 4.  Note 53.  Velocity 0
000000t:  Note on ::  Channel 4.  Note 58.  Velocity 0
000000t:  Note on ::  Channel 4.  Note 46.  Velocity 0
000000t:  Note on ::  Channel 4.  Note 65.  Velocity 0
000000t:  Note on ::  Channel 4.  Note 61.  Velocity 0
000000t:  Pitch wheel change ::  Channel 4.   -8192
000002t:  Control change ::  Channel 4.  Controller 11.  Value: 120
000000t:  Note on ::  Channel 4.  Note 42.  Velocity 80
000000t:  Pitch wheel change ::  Channel 4.   -8192
000001t:  Note on ::  Channel 4.  Note 49.  Velocity 83
000000t:  Control change ::  Channel 4.  Controller 11.  Value: 117
000001t:  Note on ::  Channel 4.  Note 54.  Velocity 87
000000t:  Control change ::  Channel 4.  Controller 11.  Value: 115
000001t:  Note on ::  Channel 4.  Note 58.  Velocity 92
000000t:  Control change ::  Channel 4.  Controller 11.  Value: 113
000001t:  Note on ::  Channel 4.  Note 61.  Velocity 98
000000t:  Note on ::  Channel 4.  Note 66.  Velocity 105
000000t:  Control change ::  Channel 4.  Controller 11.  Value: 111
000001t:  Control change ::  Channel 4.  Controller 11.  Value: 109
000001t:  Control change ::  Channel 4.  Controller 11.  Value: 108
000001t:  Control change ::  Channel 4.  Controller 11.  Value: 106
000001t:  Control change ::  Channel 4.  Controller 11.  Value: 105
000001t:  Control change ::  Channel 4.  Controller 11.  Value: 104
000001t:  Control change ::  Channel 4.  Controller 11.  Value: 103
000001t:  Control change ::  Channel 4.  Controller 11.  Value: 102
000001t:  Control change ::  Channel 4.  Controller 11.  Value: 101
000001t:  Control change ::  Channel 4.  Controller 11.  Value: 100
000001t:  Control change ::  Channel 4.  Controller 11.  Value: 99
000001t:  Control change ::  Channel 4.  Controller 11.  Value: 98
000002t:  Control change ::  Channel 4.  Controller 11.  Value: 97
000001t:  Control change ::  Channel 4.  Controller 11.  Value: 96
000002t:  Control change ::  Channel 4.  Controller 11.  Value: 95
000003t:  Control change ::  Channel 4.  Controller 11.  Value: 94
000002t:  Control change ::  Channel 4.  Controller 11.  Value: 93
000004t:  Control change ::  Channel 4.  Controller 11.  Value: 92
000004t:  Control change ::  Channel 4.  Controller 11.  Value: 91
000009t:  Control change ::  Channel 4.  Controller 11.  Value: 90
000024t:  Pitch wheel change ::  Channel 4.   -8192
000002t:  Note on ::  Channel 4.  Note 66.  Velocity 0
000000t:  Note on ::  Channel 4.  Note 49.  Velocity 0
000000t:  Note on ::  Channel 4.  Note 54.  Velocity 0
000000t:  Note on ::  Channel 4.  Note 42.  Velocity 0
000000t:  Note on ::  Channel 4.  Note 61.  Velocity 0
000000t:  Note on ::  Channel 4.  Note 58.  Velocity 0
000000t:  Pitch wheel change ::  Channel 4.   -8192
000002t:  Control change ::  Channel 4.  Controller 11.  Value: 120
000000t:  Note on ::  Channel 4.  Note 44.  Velocity 80
000000t:  Pitch wheel change ::  Channel 4.   -8192
000001t:  Note on ::  Channel 4.  Note 51.  Velocity 83
000000t:  Control change ::  Channel 4.  Controller 11.  Value: 116
000001t:  Note on ::  Channel 4.  Note 56.  Velocity 87
000000t:  Control change ::  Channel 4.  Controller 11.  Value: 113
000001t:  Note on ::  Channel 4.  Note 60.  Velocity 92
000000t:  Control change ::  Channel 4.  Controller 11.  Value: 110
000001t:  Note on ::  Channel 4.  Note 63.  Velocity 98
000000t:  Note on ::  Channel 4.  Note 68.  Velocity 105
000000t:  Control change ::  Channel 4.  Controller 11.  Value: 108
000001t:  Control change ::  Channel 4.  Controller 11.  Value: 106
000001t:  Control change ::  Channel 4.  Controller 11.  Value: 104
000001t:  Control change ::  Channel 4.  Controller 11.  Value: 102
000001t:  Control change ::  Channel 4.  Controller 11.  Value: 101
000001t:  Control change ::  Channel 4.  Controller 11.  Value: 100
000001t:  Control change ::  Channel 4.  Controller 11.  Value: 99
000001t:  Control change ::  Channel 4.  Controller 11.  Value: 98
000001t:  Control change ::  Channel 4.  Controller 11.  Value: 97
000001t:  Control change ::  Channel 4.  Controller 11.  Value: 96
000001t:  Control change ::  Channel 4.  Controller 11.  Value: 95
000002t:  Control change ::  Channel 4.  Controller 11.  Value: 94
000001t:  Control change ::  Channel 4.  Controller 11.  Value: 93
000003t:  Control change ::  Channel 4.  Controller 11.  Value: 92
000003t:  Control change ::  Channel 4.  Controller 11.  Value: 91
000006t:  Control change ::  Channel 4.  Controller 11.  Value: 90
000004t:  Note on ::  Channel 4.  Note 63.  Velocity 0
000001t:  Note on ::  Channel 4.  Note 51.  Velocity 0
000000t:  Note on ::  Channel 4.  Note 56.  Velocity 0
000000t:  Note on ::  Channel 4.  Note 44.  Velocity 0
000000t:  Note on ::  Channel 4.  Note 68.  Velocity 0
000000t:  Note on ::  Channel 4.  Note 60.  Velocity 0
000012t:  Pitch wheel change ::  Channel 4.   -8192
000001t:  Pitch wheel change ::  Channel 4.   -8192
000001t:  Control change ::  Channel 4.  Controller 11.  Value: 120
000000t:  Note on ::  Channel 4.  Note 49.  Velocity 80
000001t:  Note on ::  Channel 4.  Note 49.  Velocity 0
000000t:  Pitch wheel change ::  Channel 4.   -8192
000000t:  Note on ::  Channel 4.  Note 49.  Velocity 90
000000t:  Control change ::  Channel 4.  Controller 11.  Value: 113
000001t:  Note on ::  Channel 4.  Note 56.  Velocity 94
000000t:  Control change ::  Channel 4.  Controller 11.  Value: 108
000001t:  Note on ::  Channel 4.  Note 61.  Velocity 98
000000t:  Note on ::  Channel 4.  Note 65.  Velocity 105
000000t:  Control change ::  Channel 4.  Controller 11.  Value: 105
000001t:  Control change ::  Channel 4.  Controller 11.  Value: 102
000001t:  Control change ::  Channel 4.  Controller 11.  Value: 99
000001t:  Control change ::  Channel 4.  Controller 11.  Value: 97
000001t:  Control change ::  Channel 4.  Controller 11.  Value: 96
000001t:  Control change ::  Channel 4.  Controller 11.  Value: 95
000001t:  Control change ::  Channel 4.  Controller 11.  Value: 93
000002t:  Control change ::  Channel 4.  Controller 11.  Value: 92
000001t:  Control change ::  Channel 4.  Controller 11.  Value: 91
000004t:  Control change ::  Channel 4.  Controller 11.  Value: 90
000006t:  Note on ::  Channel 4.  Note 65.  Velocity 0
000000t:  Note on ::  Channel 4.  Note 49.  Velocity 0
000000t:  Note on ::  Channel 4.  Note 56.  Velocity 0
000000t:  Note on ::  Channel 4.  Note 61.  Velocity 0
000003t:  Control change ::  Channel 4.  Controller 11.  Value: 120
000000t:  Note on ::  Channel 4.  Note 49.  Velocity 94
000001t:  Note on ::  Channel 4.  Note 56.  Velocity 97
000000t:  Control change ::  Channel 4.  Controller 11.  Value: 117
000001t:  Note on ::  Channel 4.  Note 61.  Velocity 101
000000t:  Note on ::  Channel 4.  Note 85.  Velocity 24
000000t:  Note on ::  Channel 4.  Note 65.  Velocity 106
000000t:  Control change ::  Channel 4.  Controller 11.  Value: 115
000001t:  Control change ::  Channel 4.  Controller 11.  Value: 113
000001t:  Control change ::  Channel 4.  Controller 11.  Value: 112
000001t:  Control change ::  Channel 4.  Controller 11.  Value: 110
000001t:  Control change ::  Channel 4.  Controller 11.  Value: 108
000001t:  Control change ::  Channel 4.  Controller 11.  Value: 107
000001t:  Control change ::  Channel 4.  Controller 11.  Value: 106
000001t:  Control change ::  Channel 4.  Controller 11.  Value: 105
000001t:  Control change ::  Channel 4.  Controller 11.  Value: 103
000002t:  Control change ::  Channel 4.  Controller 11.  Value: 102
000001t:  Control change ::  Channel 4.  Controller 11.  Value: 101
000001t:  Control change ::  Channel 4.  Controller 11.  Value: 100
000001t:  Control change ::  Channel 4.  Controller 11.  Value: 99
000002t:  Control change ::  Channel 4.  Controller 11.  Value: 98
000001t:  Control change ::  Channel 4.  Controller 11.  Value: 97
000002t:  Control change ::  Channel 4.  Controller 11.  Value: 96
000002t:  Control change ::  Channel 4.  Controller 11.  Value: 95
000003t:  Control change ::  Channel 4.  Controller 11.  Value: 94
000002t:  Control change ::  Channel 4.  Controller 11.  Value: 93
000004t:  Control change ::  Channel 4.  Controller 11.  Value: 92
000005t:  Control change ::  Channel 4.  Controller 11.  Value: 91
000010t:  Control change ::  Channel 4.  Controller 11.  Value: 90
000126t:  Note on ::  Channel 4.  Note 56.  Velocity 0
000006t:  Note on ::  Channel 4.  Note 65.  Velocity 0
000004t:  Note on ::  Channel 4.  Note 49.  Velocity 0
000009t:  Note on ::  Channel 4.  Note 61.  Velocity 0
000001t:  Note on ::  Channel 4.  Note 85.  Velocity 0
000000t:  Control change ::  Channel 4.  Controller 11.  Value: 120
000000t:  Note on ::  Channel 4.  Note 44.  Velocity 80
000001t:  Note on ::  Channel 4.  Note 51.  Velocity 83
000000t:  Control change ::  Channel 4.  Controller 11.  Value: 117
000001t:  Note on ::  Channel 4.  Note 56.  Velocity 87
000000t:  Control change ::  Channel 4.  Controller 11.  Value: 115
000001t:  Note on ::  Channel 4.  Note 60.  Velocity 92
000000t:  Control change ::  Channel 4.  Controller 11.  Value: 113
000001t:  Note on ::  Channel 4.  Note 63.  Velocity 98
000000t:  Note on ::  Channel 4.  Note 68.  Velocity 105
000000t:  Control change ::  Channel 4.  Controller 11.  Value: 111
000001t:  Control change ::  Channel 4.  Controller 11.  Value: 109
000001t:  Control change ::  Channel 4.  Controller 11.  Value: 108
000001t:  Control change ::  Channel 4.  Controller 11.  Value: 106
000001t:  Control change ::  Channel 4.  Controller 11.  Value: 105
000001t:  Control change ::  Channel 4.  Controller 11.  Value: 104
000001t:  Control change ::  Channel 4.  Controller 11.  Value: 103
000001t:  Control change ::  Channel 4.  Controller 11.  Value: 102
000001t:  Control change ::  Channel 4.  Controller 11.  Value: 101
000001t:  Control change ::  Channel 4.  Controller 11.  Value: 100
000001t:  Control change ::  Channel 4.  Controller 11.  Value: 99
000002t:  Control change ::  Channel 4.  Controller 11.  Value: 98
000001t:  Control change ::  Channel 4.  Controller 11.  Value: 97
000002t:  Control change ::  Channel 4.  Controller 11.  Value: 96
000001t:  Control change ::  Channel 4.  Controller 11.  Value: 95
000003t:  Control change ::  Channel 4.  Controller 11.  Value: 94
000002t:  Control change ::  Channel 4.  Controller 11.  Value: 93
000004t:  Control change ::  Channel 4.  Controller 11.  Value: 92
000005t:  Control change ::  Channel 4.  Controller 11.  Value: 91
000009t:  Control change ::  Channel 4.  Controller 11.  Value: 90
000025t:  Pitch wheel change ::  Channel 4.   -8192
000002t:  Note on ::  Channel 4.  Note 68.  Velocity 0
000000t:  Note on ::  Channel 4.  Note 51.  Velocity 0
000000t:  Note on ::  Channel 4.  Note 56.  Velocity 0
000000t:  Note on ::  Channel 4.  Note 44.  Velocity 0
000000t:  Note on ::  Channel 4.  Note 63.  Velocity 0
000000t:  Note on ::  Channel 4.  Note 60.  Velocity 0
000000t:  Pitch wheel change ::  Channel 4.   -8192
000002t:  Control change ::  Channel 4.  Controller 11.  Value: 120
000000t:  Note on ::  Channel 4.  Note 46.  Velocity 70
000001t:  Note on ::  Channel 4.  Note 46.  Velocity 0
000000t:  Pitch wheel change ::  Channel 4.   -8192
000000t:  Note on ::  Channel 4.  Note 46.  Velocity 80
000000t:  Control change ::  Channel 4.  Controller 11.  Value: 117
000001t:  Note on ::  Channel 4.  Note 53.  Velocity 83
000000t:  Control change ::  Channel 4.  Controller 11.  Value: 115
000001t:  Note on ::  Channel 4.  Note 58.  Velocity 87
000000t:  Control change ::  Channel 4.  Controller 11.  Value: 113
000001t:  Note on ::  Channel 4.  Note 61.  Velocity 92
000000t:  Control change ::  Channel 4.  Controller 11.  Value: 111
000001t:  Note on ::  Channel 4.  Note 65.  Velocity 98
000000t:  Note on ::  Channel 4.  Note 70.  Velocity 104
000000t:  Control change ::  Channel 4.  Controller 11.  Value: 109
000001t:  Control change ::  Channel 4.  Controller 11.  Value: 108
000001t:  Control change ::  Channel 4.  Controller 11.  Value: 106
000001t:  Control change ::  Channel 4.  Controller 11.  Value: 105
000001t:  Control change ::  Channel 4.  Controller 11.  Value: 104
000001t:  Control change ::  Channel 4.  Controller 11.  Value: 103
000001t:  Control change ::  Channel 4.  Controller 11.  Value: 102
000001t:  Control change ::  Channel 4.  Controller 11.  Value: 101
000001t:  Control change ::  Channel 4.  Controller 11.  Value: 100
000001t:  Control change ::  Channel 4.  Controller 11.  Value: 99
000002t:  Control change ::  Channel 4.  Controller 11.  Value: 98
000001t:  Control change ::  Channel 4.  Controller 11.  Value: 97
000002t:  Control change ::  Channel 4.  Controller 11.  Value: 96
000001t:  Control change ::  Channel 4.  Controller 11.  Value: 95
000003t:  Control change ::  Channel 4.  Controller 11.  Value: 94
000002t:  Control change ::  Channel 4.  Controller 11.  Value: 93
000004t:  Control change ::  Channel 4.  Controller 11.  Value: 92
000005t:  Control change ::  Channel 4.  Controller 11.  Value: 91
000009t:  Control change ::  Channel 4.  Controller 11.  Value: 90
000025t:  Pitch wheel change ::  Channel 4.   -8192
000002t:  Note on ::  Channel 4.  Note 70.  Velocity 0
000000t:  Note on ::  Channel 4.  Note 53.  Velocity 0
000000t:  Note on ::  Channel 4.  Note 58.  Velocity 0
000000t:  Note on ::  Channel 4.  Note 46.  Velocity 0
000000t:  Note on ::  Channel 4.  Note 65.  Velocity 0
000000t:  Note on ::  Channel 4.  Note 61.  Velocity 0
000000t:  Pitch wheel change ::  Channel 4.   -8192
000002t:  Note on ::  Channel 4.  Note 42.  Velocity 60
000001t:  Note on ::  Channel 4.  Note 42.  Velocity 0
000000t:  Pitch wheel change ::  Channel 4.   -8192
000000t:  Control change ::  Channel 4.  Controller 11.  Value: 120
000000t:  Note on ::  Channel 4.  Note 42.  Velocity 80
000001t:  Note on ::  Channel 4.  Note 49.  Velocity 83
000000t:  Control change ::  Channel 4.  Controller 11.  Value: 117
000001t:  Note on ::  Channel 4.  Note 54.  Velocity 87
000000t:  Control change ::  Channel 4.  Controller 11.  Value: 115
000001t:  Note on ::  Channel 4.  Note 58.  Velocity 92
000000t:  Control change ::  Channel 4.  Controller 11.  Value: 113
000001t:  Note on ::  Channel 4.  Note 61.  Velocity 98
000000t:  Note on ::  Channel 4.  Note 66.  Velocity 105
000000t:  Control change ::  Channel 4.  Controller 11.  Value: 111
000001t:  Control change ::  Channel 4.  Controller 11.  Value: 109
000001t:  Control change ::  Channel 4.  Controller 11.  Value: 108
000001t:  Control change ::  Channel 4.  Controller 11.  Value: 106
000001t:  Control change ::  Channel 4.  Controller 11.  Value: 105
000001t:  Control change ::  Channel 4.  Controller 11.  Value: 104
000001t:  Control change ::  Channel 4.  Controller 11.  Value: 103
000001t:  Control change ::  Channel 4.  Controller 11.  Value: 102
000001t:  Control change ::  Channel 4.  Controller 11.  Value: 101
000001t:  Control change ::  Channel 4.  Controller 11.  Value: 100
000001t:  Control change ::  Channel 4.  Controller 11.  Value: 99
000002t:  Control change ::  Channel 4.  Controller 11.  Value: 98
000001t:  Control change ::  Channel 4.  Controller 11.  Value: 97
000002t:  Control change ::  Channel 4.  Controller 11.  Value: 96
000001t:  Control change ::  Channel 4.  Controller 11.  Value: 95
000003t:  Control change ::  Channel 4.  Controller 11.  Value: 94
000002t:  Control change ::  Channel 4.  Controller 11.  Value: 93
000004t:  Control change ::  Channel 4.  Controller 11.  Value: 92
000005t:  Control change ::  Channel 4.  Controller 11.  Value: 91
000009t:  Control change ::  Channel 4.  Controller 11.  Value: 90
000024t:  Pitch wheel change ::  Channel 4.   -8192
000002t:  Note on ::  Channel 4.  Note 66.  Velocity 0
000000t:  Note on ::  Channel 4.  Note 49.  Velocity 0
000000t:  Note on ::  Channel 4.  Note 54.  Velocity 0
000000t:  Note on ::  Channel 4.  Note 42.  Velocity 0
000000t:  Note on ::  Channel 4.  Note 61.  Velocity 0
000000t:  Note on ::  Channel 4.  Note 58.  Velocity 0
000000t:  Pitch wheel change ::  Channel 4.   -8192
000002t:  Control change ::  Channel 4.  Controller 11.  Value: 120
000000t:  Note on ::  Channel 4.  Note 44.  Velocity 68
000001t:  Note on ::  Channel 4.  Note 44.  Velocity 0
000000t:  Pitch wheel change ::  Channel 4.   -8192
000000t:  Note on ::  Channel 4.  Note 44.  Velocity 80
000000t:  Control change ::  Channel 4.  Controller 11.  Value: 116
000001t:  Note on ::  Channel 4.  Note 51.  Velocity 83
000000t:  Control change ::  Channel 4.  Controller 11.  Value: 113
000001t:  Note on ::  Channel 4.  Note 56.  Velocity 87
000000t:  Control change ::  Channel 4.  Controller 11.  Value: 111
000001t:  Note on ::  Channel 4.  Note 60.  Velocity 92
000000t:  Control change ::  Channel 4.  Controller 11.  Value: 108
000001t:  Note on ::  Channel 4.  Note 63.  Velocity 98
000000t:  Note on ::  Channel 4.  Note 68.  Velocity 105
000000t:  Control change ::  Channel 4.  Controller 11.  Value: 106
000001t:  Control change ::  Channel 4.  Controller 11.  Value: 105
000001t:  Control change ::  Channel 4.  Controller 11.  Value: 103
000001t:  Control change ::  Channel 4.  Controller 11.  Value: 101
000001t:  Control change ::  Channel 4.  Controller 11.  Value: 100
000001t:  Control change ::  Channel 4.  Controller 11.  Value: 99
000001t:  Control change ::  Channel 4.  Controller 11.  Value: 98
000001t:  Control change ::  Channel 4.  Controller 11.  Value: 97
000001t:  Control change ::  Channel 4.  Controller 11.  Value: 96
000001t:  Control change ::  Channel 4.  Controller 11.  Value: 95
000002t:  Control change ::  Channel 4.  Controller 11.  Value: 94
000002t:  Control change ::  Channel 4.  Controller 11.  Value: 93
000002t:  Control change ::  Channel 4.  Controller 11.  Value: 92
000003t:  Control change ::  Channel 4.  Controller 11.  Value: 91
000006t:  Control change ::  Channel 4.  Controller 11.  Value: 90
000003t:  Note on ::  Channel 4.  Note 51.  Velocity 0
000000t:  Note on ::  Channel 4.  Note 44.  Velocity 0
000001t:  Note on ::  Channel 4.  Note 63.  Velocity 0
000000t:  Note on ::  Channel 4.  Note 60.  Velocity 0
000000t:  Note on ::  Channel 4.  Note 68.  Velocity 0
000000t:  Note on ::  Channel 4.  Note 56.  Velocity 0
000015t:  Control change ::  Channel 4.  Controller 11.  Value: 120
000000t:  Note on ::  Channel 4.  Note 49.  Velocity 90
000001t:  Note on ::  Channel 4.  Note 56.  Velocity 93
000000t:  Control change ::  Channel 4.  Controller 11.  Value: 113
000001t:  Note on ::  Channel 4.  Note 61.  Velocity 97
000000t:  Note on ::  Channel 4.  Note 65.  Velocity 104
000000t:  Control change ::  Channel 4.  Controller 11.  Value: 108
000001t:  Control change ::  Channel 4.  Controller 11.  Value: 105
000001t:  Control change ::  Channel 4.  Controller 11.  Value: 101
000001t:  Control change ::  Channel 4.  Controller 11.  Value: 99
000001t:  Control change ::  Channel 4.  Controller 11.  Value: 97
000001t:  Control change ::  Channel 4.  Controller 11.  Value: 95
000001t:  Control change ::  Channel 4.  Controller 11.  Value: 94
000001t:  Control change ::  Channel 4.  Controller 11.  Value: 93
000001t:  Control change ::  Channel 4.  Controller 11.  Value: 92
000002t:  Control change ::  Channel 4.  Controller 11.  Value: 91
000003t:  Control change ::  Channel 4.  Controller 11.  Value: 90
000007t:  Note on ::  Channel 4.  Note 65.  Velocity 0
000000t:  Note on ::  Channel 4.  Note 49.  Velocity 0
000000t:  Note on ::  Channel 4.  Note 56.  Velocity 0
000000t:  Note on ::  Channel 4.  Note 61.  Velocity 0
000002t:  Control change ::  Channel 4.  Controller 11.  Value: 120
000000t:  Note on ::  Channel 4.  Note 49.  Velocity 90
000001t:  Note on ::  Channel 4.  Note 56.  Velocity 93
000000t:  Control change ::  Channel 4.  Controller 11.  Value: 117
000001t:  Note on ::  Channel 4.  Note 61.  Velocity 97
000000t:  Note on ::  Channel 4.  Note 85.  Velocity 35
000000t:  Note on ::  Channel 4.  Note 65.  Velocity 104
000000t:  Control change ::  Channel 4.  Controller 11.  Value: 115
000001t:  Control change ::  Channel 4.  Controller 11.  Value: 113
000001t:  Control change ::  Channel 4.  Controller 11.  Value: 111
000001t:  Control change ::  Channel 4.  Controller 11.  Value: 109
000001t:  Control change ::  Channel 4.  Controller 11.  Value: 108
000001t:  Control change ::  Channel 4.  Controller 11.  Value: 106
000001t:  Control change ::  Channel 4.  Controller 11.  Value: 105
000001t:  Control change ::  Channel 4.  Controller 11.  Value: 104
000001t:  Control change ::  Channel 4.  Controller 11.  Value: 103
000001t:  Control change ::  Channel 4.  Controller 11.  Value: 102
000001t:  Control change ::  Channel 4.  Controller 11.  Value: 101
000001t:  Control change ::  Channel 4.  Controller 11.  Value: 100
000001t:  Control change ::  Channel 4.  Controller 11.  Value: 99
000002t:  Control change ::  Channel 4.  Controller 11.  Value: 98
000001t:  Control change ::  Channel 4.  Controller 11.  Value: 97
000002t:  Control change ::  Channel 4.  Controller 11.  Value: 96
000001t:  Control change ::  Channel 4.  Controller 11.  Value: 95
000003t:  Control change ::  Channel 4.  Controller 11.  Value: 94
000002t:  Control change ::  Channel 4.  Controller 11.  Value: 93
000004t:  Control change ::  Channel 4.  Controller 11.  Value: 92
000005t:  Control change ::  Channel 4.  Controller 11.  Value: 91
000009t:  Control change ::  Channel 4.  Controller 11.  Value: 90
000129t:  Note on ::  Channel 4.  Note 56.  Velocity 0
000007t:  Note on ::  Channel 4.  Note 65.  Velocity 0
000003t:  Note on ::  Channel 4.  Note 49.  Velocity 0
000008t:  Control change ::  Channel 4.  Controller 7.  Value: 76
000001t:  Control change ::  Channel 4.  Controller 11.  Value: 120
000001t:  Note on ::  Channel 4.  Note 61.  Velocity 0
000000t:  Note on ::  Channel 4.  Note 85.  Velocity 0
000000t:  Note on ::  Channel 4.  Note 44.  Velocity 80
000001t:  Note on ::  Channel 4.  Note 51.  Velocity 83
000000t:  Control change ::  Channel 4.  Controller 11.  Value: 117
000001t:  Note on ::  Channel 4.  Note 56.  Velocity 87
000000t:  Control change ::  Channel 4.  Controller 11.  Value: 115
000001t:  Note on ::  Channel 4.  Note 60.  Velocity 92
000000t:  Control change ::  Channel 4.  Controller 11.  Value: 113
000001t:  Note on ::  Channel 4.  Note 63.  Velocity 98
000000t:  Note on ::  Channel 4.  Note 68.  Velocity 105
000000t:  Control change ::  Channel 4.  Controller 11.  Value: 111
000001t:  Control change ::  Channel 4.  Controller 11.  Value: 109
000001t:  Control change ::  Channel 4.  Controller 11.  Value: 108
000001t:  Control change ::  Channel 4.  Controller 11.  Value: 106
000001t:  Control change ::  Channel 4.  Controller 11.  Value: 105
000001t:  Control change ::  Channel 4.  Controller 11.  Value: 104
000001t:  Control change ::  Channel 4.  Controller 11.  Value: 103
000001t:  Control change ::  Channel 4.  Controller 11.  Value: 102
000001t:  Control change ::  Channel 4.  Controller 11.  Value: 101
000001t:  Control change ::  Channel 4.  Controller 11.  Value: 100
000001t:  Control change ::  Channel 4.  Controller 11.  Value: 99
000002t:  Control change ::  Channel 4.  Controller 11.  Value: 98
000001t:  Control change ::  Channel 4.  Controller 11.  Value: 97
000002t:  Control change ::  Channel 4.  Controller 11.  Value: 96
000001t:  Control change ::  Channel 4.  Controller 11.  Value: 95
000003t:  Control change ::  Channel 4.  Controller 11.  Value: 94
000002t:  Control change ::  Channel 4.  Controller 11.  Value: 93
000004t:  Control change ::  Channel 4.  Controller 11.  Value: 92
000005t:  Control change ::  Channel 4.  Controller 11.  Value: 91
000009t:  Control change ::  Channel 4.  Controller 11.  Value: 90
000025t:  Pitch wheel change ::  Channel 4.   -8192
000001t:  Note on ::  Channel 4.  Note 68.  Velocity 0
000000t:  Note on ::  Channel 4.  Note 51.  Velocity 0
000000t:  Note on ::  Channel 4.  Note 56.  Velocity 0
000000t:  Note on ::  Channel 4.  Note 44.  Velocity 0
000000t:  Note on ::  Channel 4.  Note 63.  Velocity 0
000000t:  Note on ::  Channel 4.  Note 60.  Velocity 0
000001t:  Pitch wheel change ::  Channel 4.   -8192
000002t:  Control change ::  Channel 4.  Controller 11.  Value: 120
000000t:  Note on ::  Channel 4.  Note 46.  Velocity 60
000001t:  Note on ::  Channel 4.  Note 46.  Velocity 0
000000t:  Pitch wheel change ::  Channel 4.   -8192
000000t:  Note on ::  Channel 4.  Note 46.  Velocity 80
000000t:  Control change ::  Channel 4.  Controller 11.  Value: 117
000001t:  Note on ::  Channel 4.  Note 53.  Velocity 83
000000t:  Control change ::  Channel 4.  Controller 11.  Value: 115
000001t:  Note on ::  Channel 4.  Note 58.  Velocity 87
000000t:  Control change ::  Channel 4.  Controller 11.  Value: 113
000001t:  Note on ::  Channel 4.  Note 61.  Velocity 92
000000t:  Control change ::  Channel 4.  Controller 11.  Value: 111
000001t:  Note on ::  Channel 4.  Note 65.  Velocity 98
000000t:  Note on ::  Channel 4.  Note 70.  Velocity 105
000000t:  Control change ::  Channel 4.  Controller 11.  Value: 109
000001t:  Control change ::  Channel 4.  Controller 11.  Value: 108
000001t:  Control change ::  Channel 4.  Controller 11.  Value: 106
000001t:  Control change ::  Channel 4.  Controller 11.  Value: 105
000001t:  Control change ::  Channel 4.  Controller 11.  Value: 104
000001t:  Control change ::  Channel 4.  Controller 11.  Value: 103
000001t:  Control change ::  Channel 4.  Controller 11.  Value: 102
000001t:  Control change ::  Channel 4.  Controller 11.  Value: 101
000001t:  Control change ::  Channel 4.  Controller 11.  Value: 100
000001t:  Control change ::  Channel 4.  Controller 11.  Value: 99
000002t:  Control change ::  Channel 4.  Controller 11.  Value: 98
000001t:  Control change ::  Channel 4.  Controller 11.  Value: 97
000002t:  Control change ::  Channel 4.  Controller 11.  Value: 96
000001t:  Control change ::  Channel 4.  Controller 11.  Value: 95
000003t:  Control change ::  Channel 4.  Controller 11.  Value: 94
000002t:  Control change ::  Channel 4.  Controller 11.  Value: 93
000004t:  Control change ::  Channel 4.  Controller 11.  Value: 92
000005t:  Control change ::  Channel 4.  Controller 11.  Value: 91
000009t:  Control change ::  Channel 4.  Controller 11.  Value: 90
000025t:  Pitch wheel change ::  Channel 4.   -8192
000002t:  Pitch wheel change ::  Channel 4.   -8192
000001t:  Note on ::  Channel 4.  Note 70.  Velocity 0
000000t:  Note on ::  Channel 4.  Note 53.  Velocity 0
000000t:  Note on ::  Channel 4.  Note 58.  Velocity 0
000000t:  Note on ::  Channel 4.  Note 46.  Velocity 0
000000t:  Note on ::  Channel 4.  Note 65.  Velocity 0
000000t:  Note on ::  Channel 4.  Note 61.  Velocity 0
000002t:  Note on ::  Channel 4.  Note 42.  Velocity 68
000001t:  Note on ::  Channel 4.  Note 42.  Velocity 0
000000t:  Pitch wheel change ::  Channel 4.   -8192
000000t:  Control change ::  Channel 4.  Controller 11.  Value: 120
000000t:  Note on ::  Channel 4.  Note 42.  Velocity 80
000001t:  Note on ::  Channel 4.  Note 49.  Velocity 83
000000t:  Control change ::  Channel 4.  Controller 11.  Value: 117
000001t:  Note on ::  Channel 4.  Note 54.  Velocity 87
000000t:  Control change ::  Channel 4.  Controller 11.  Value: 115
000001t:  Note on ::  Channel 4.  Note 58.  Velocity 92
000000t:  Control change ::  Channel 4.  Controller 11.  Value: 113
000001t:  Note on ::  Channel 4.  Note 61.  Velocity 98
000000t:  Note on ::  Channel 4.  Note 66.  Velocity 105
000000t:  Control change ::  Channel 4.  Controller 11.  Value: 111
000001t:  Control change ::  Channel 4.  Controller 11.  Value: 109
000001t:  Control change ::  Channel 4.  Controller 11.  Value: 108
000001t:  Control change ::  Channel 4.  Controller 11.  Value: 106
000001t:  Control change ::  Channel 4.  Controller 11.  Value: 105
000001t:  Control change ::  Channel 4.  Controller 11.  Value: 104
000001t:  Control change ::  Channel 4.  Controller 11.  Value: 103
000001t:  Control change ::  Channel 4.  Controller 11.  Value: 102
000001t:  Control change ::  Channel 4.  Controller 11.  Value: 101
000001t:  Control change ::  Channel 4.  Controller 11.  Value: 100
000001t:  Control change ::  Channel 4.  Controller 11.  Value: 99
000002t:  Control change ::  Channel 4.  Controller 11.  Value: 98
000001t:  Control change ::  Channel 4.  Controller 11.  Value: 97
000002t:  Control change ::  Channel 4.  Controller 11.  Value: 96
000001t:  Control change ::  Channel 4.  Controller 11.  Value: 95
000003t:  Control change ::  Channel 4.  Controller 11.  Value: 94
000002t:  Control change ::  Channel 4.  Controller 11.  Value: 93
000004t:  Control change ::  Channel 4.  Controller 11.  Value: 92
000005t:  Control change ::  Channel 4.  Controller 11.  Value: 91
000009t:  Control change ::  Channel 4.  Controller 11.  Value: 90
000023t:  Pitch wheel change ::  Channel 4.   -8192
000002t:  Note on ::  Channel 4.  Note 66.  Velocity 0
000000t:  Note on ::  Channel 4.  Note 49.  Velocity 0
000000t:  Note on ::  Channel 4.  Note 54.  Velocity 0
000000t:  Note on ::  Channel 4.  Note 42.  Velocity 0
000000t:  Note on ::  Channel 4.  Note 61.  Velocity 0
000000t:  Note on ::  Channel 4.  Note 58.  Velocity 0
000000t:  Pitch wheel change ::  Channel 4.   -8192
000002t:  Control change ::  Channel 4.  Controller 11.  Value: 120
000000t:  Note on ::  Channel 4.  Note 44.  Velocity 72
000001t:  Note on ::  Channel 4.  Note 44.  Velocity 0
000000t:  Pitch wheel change ::  Channel 4.   -8192
000000t:  Note on ::  Channel 4.  Note 44.  Velocity 80
000000t:  Control change ::  Channel 4.  Controller 11.  Value: 116
000001t:  Note on ::  Channel 4.  Note 51.  Velocity 83
000000t:  Control change ::  Channel 4.  Controller 11.  Value: 113
000001t:  Note on ::  Channel 4.  Note 56.  Velocity 87
000000t:  Control change ::  Channel 4.  Controller 11.  Value: 111
000001t:  Note on ::  Channel 4.  Note 60.  Velocity 92
000000t:  Control change ::  Channel 4.  Controller 11.  Value: 108
000001t:  Note on ::  Channel 4.  Note 63.  Velocity 98
000000t:  Note on ::  Channel 4.  Note 68.  Velocity 105
000000t:  Control change ::  Channel 4.  Controller 11.  Value: 106
000001t:  Control change ::  Channel 4.  Controller 11.  Value: 105
000001t:  Control change ::  Channel 4.  Controller 11.  Value: 103
000001t:  Control change ::  Channel 4.  Controller 11.  Value: 101
000001t:  Control change ::  Channel 4.  Controller 11.  Value: 100
000001t:  Control change ::  Channel 4.  Controller 11.  Value: 99
000001t:  Control change ::  Channel 4.  Controller 11.  Value: 98
000001t:  Control change ::  Channel 4.  Controller 11.  Value: 97
000001t:  Control change ::  Channel 4.  Controller 11.  Value: 96
000001t:  Control change ::  Channel 4.  Controller 11.  Value: 95
000002t:  Control change ::  Channel 4.  Controller 11.  Value: 94
000002t:  Control change ::  Channel 4.  Controller 11.  Value: 93
000002t:  Control change ::  Channel 4.  Controller 11.  Value: 92
000003t:  Control change ::  Channel 4.  Controller 11.  Value: 91
000006t:  Control change ::  Channel 4.  Controller 11.  Value: 90
000003t:  Note on ::  Channel 4.  Note 51.  Velocity 0
000000t:  Note on ::  Channel 4.  Note 44.  Velocity 0
000001t:  Note on ::  Channel 4.  Note 63.  Velocity 0
000000t:  Note on ::  Channel 4.  Note 60.  Velocity 0
000000t:  Note on ::  Channel 4.  Note 56.  Velocity 0
000001t:  Note on ::  Channel 4.  Note 68.  Velocity 0
000014t:  Control change ::  Channel 4.  Controller 11.  Value: 120
000000t:  Note on ::  Channel 4.  Note 49.  Velocity 90
000001t:  Note on ::  Channel 4.  Note 56.  Velocity 94
000000t:  Control change ::  Channel 4.  Controller 11.  Value: 113
000001t:  Note on ::  Channel 4.  Note 61.  Velocity 99
000000t:  Note on ::  Channel 4.  Note 65.  Velocity 105
000000t:  Control change ::  Channel 4.  Controller 11.  Value: 108
000001t:  Control change ::  Channel 4.  Controller 11.  Value: 105
000001t:  Control change ::  Channel 4.  Controller 11.  Value: 101
000001t:  Control change ::  Channel 4.  Controller 11.  Value: 99
000001t:  Control change ::  Channel 4.  Controller 11.  Value: 97
000001t:  Control change ::  Channel 4.  Controller 11.  Value: 95
000001t:  Control change ::  Channel 4.  Controller 11.  Value: 94
000001t:  Control change ::  Channel 4.  Controller 11.  Value: 93
000001t:  Control change ::  Channel 4.  Controller 11.  Value: 92
000002t:  Control change ::  Channel 4.  Controller 11.  Value: 91
000003t:  Control change ::  Channel 4.  Controller 11.  Value: 90
000006t:  Note on ::  Channel 4.  Note 49.  Velocity 0
000001t:  Note on ::  Channel 4.  Note 56.  Velocity 0
000000t:  Note on ::  Channel 4.  Note 61.  Velocity 0
000000t:  Note on ::  Channel 4.  Note 65.  Velocity 0
000002t:  Control change ::  Channel 4.  Controller 11.  Value: 120
000000t:  Note on ::  Channel 4.  Note 49.  Velocity 90
000001t:  Note on ::  Channel 4.  Note 56.  Velocity 94
000000t:  Control change ::  Channel 4.  Controller 11.  Value: 117
000001t:  Note on ::  Channel 4.  Note 61.  Velocity 99
000000t:  Note on ::  Channel 4.  Note 85.  Velocity 33
000000t:  Note on ::  Channel 4.  Note 65.  Velocity 105
000000t:  Control change ::  Channel 4.  Controller 11.  Value: 115
000001t:  Control change ::  Channel 4.  Controller 11.  Value: 113
000001t:  Control change ::  Channel 4.  Controller 11.  Value: 111
000001t:  Control change ::  Channel 4.  Controller 11.  Value: 109
000001t:  Control change ::  Channel 4.  Controller 11.  Value: 108
000001t:  Control change ::  Channel 4.  Controller 11.  Value: 106
000001t:  Control change ::  Channel 4.  Controller 11.  Value: 105
000001t:  Control change ::  Channel 4.  Controller 11.  Value: 104
000001t:  Control change ::  Channel 4.  Controller 11.  Value: 103
000001t:  Control change ::  Channel 4.  Controller 11.  Value: 102
000001t:  Control change ::  Channel 4.  Controller 11.  Value: 101
000001t:  Control change ::  Channel 4.  Controller 11.  Value: 100
000001t:  Control change ::  Channel 4.  Controller 11.  Value: 99
000002t:  Control change ::  Channel 4.  Controller 11.  Value: 98
000001t:  Control change ::  Channel 4.  Controller 11.  Value: 97
000002t:  Control change ::  Channel 4.  Controller 11.  Value: 96
000001t:  Control change ::  Channel 4.  Controller 11.  Value: 95
000003t:  Control change ::  Channel 4.  Controller 11.  Value: 94
000002t:  Control change ::  Channel 4.  Controller 11.  Value: 93
000004t:  Control change ::  Channel 4.  Controller 11.  Value: 92
000005t:  Control change ::  Channel 4.  Controller 11.  Value: 91
000009t:  Control change ::  Channel 4.  Controller 11.  Value: 90
000130t:  Note on ::  Channel 4.  Note 56.  Velocity 0
000005t:  Note on ::  Channel 4.  Note 65.  Velocity 0
000003t:  Note on ::  Channel 4.  Note 49.  Velocity 0
000009t:  Note on ::  Channel 4.  Note 61.  Velocity 0
000002t:  Note on ::  Channel 4.  Note 85.  Velocity 0
000000t:  Control change ::  Channel 4.  Controller 11.  Value: 120
000000t:  Note on ::  Channel 4.  Note 44.  Velocity 80
000001t:  Note on ::  Channel 4.  Note 51.  Velocity 83
000000t:  Control change ::  Channel 4.  Controller 11.  Value: 117
000001t:  Note on ::  Channel 4.  Note 56.  Velocity 87
000000t:  Control change ::  Channel 4.  Controller 11.  Value: 115
000001t:  Note on ::  Channel 4.  Note 60.  Velocity 92
000000t:  Control change ::  Channel 4.  Controller 11.  Value: 113
000001t:  Note on ::  Channel 4.  Note 63.  Velocity 98
000000t:  Note on ::  Channel 4.  Note 68.  Velocity 105
000000t:  Control change ::  Channel 4.  Controller 11.  Value: 111
000001t:  Control change ::  Channel 4.  Controller 11.  Value: 109
000001t:  Control change ::  Channel 4.  Controller 11.  Value: 108
000001t:  Control change ::  Channel 4.  Controller 11.  Value: 106
000001t:  Control change ::  Channel 4.  Controller 11.  Value: 105
000001t:  Control change ::  Channel 4.  Controller 11.  Value: 104
000001t:  Control change ::  Channel 4.  Controller 11.  Value: 103
000001t:  Control change ::  Channel 4.  Controller 11.  Value: 102
000001t:  Control change ::  Channel 4.  Controller 11.  Value: 101
000001t:  Control change ::  Channel 4.  Controller 11.  Value: 100
000001t:  Control change ::  Channel 4.  Controller 11.  Value: 99
000002t:  Control change ::  Channel 4.  Controller 11.  Value: 98
000001t:  Control change ::  Channel 4.  Controller 11.  Value: 97
000002t:  Control change ::  Channel 4.  Controller 11.  Value: 96
000001t:  Control change ::  Channel 4.  Controller 11.  Value: 95
000003t:  Control change ::  Channel 4.  Controller 11.  Value: 94
000002t:  Control change ::  Channel 4.  Controller 11.  Value: 93
000004t:  Control change ::  Channel 4.  Controller 11.  Value: 92
000005t:  Control change ::  Channel 4.  Controller 11.  Value: 91
000009t:  Control change ::  Channel 4.  Controller 11.  Value: 90
000025t:  Pitch wheel change ::  Channel 4.   -8192
000003t:  Pitch wheel change ::  Channel 4.   -8192
000001t:  Note on ::  Channel 4.  Note 68.  Velocity 0
000000t:  Note on ::  Channel 4.  Note 51.  Velocity 0
000000t:  Note on ::  Channel 4.  Note 56.  Velocity 0
000000t:  Note on ::  Channel 4.  Note 44.  Velocity 0
000000t:  Note on ::  Channel 4.  Note 63.  Velocity 0
000000t:  Note on ::  Channel 4.  Note 60.  Velocity 0
000002t:  Control change ::  Channel 4.  Controller 11.  Value: 120
000000t:  Note on ::  Channel 4.  Note 46.  Velocity 80
000000t:  Pitch wheel change ::  Channel 4.   -8192
000001t:  Note on ::  Channel 4.  Note 53.  Velocity 83
000000t:  Control change ::  Channel 4.  Controller 11.  Value: 117
000001t:  Note on ::  Channel 4.  Note 58.  Velocity 87
000000t:  Control change ::  Channel 4.  Controller 11.  Value: 115
000001t:  Note on ::  Channel 4.  Note 61.  Velocity 92
000000t:  Control change ::  Channel 4.  Controller 11.  Value: 113
000001t:  Note on ::  Channel 4.  Note 65.  Velocity 98
000000t:  Note on ::  Channel 4.  Note 70.  Velocity 105
000000t:  Control change ::  Channel 4.  Controller 11.  Value: 111
000001t:  Control change ::  Channel 4.  Controller 11.  Value: 109
000001t:  Control change ::  Channel 4.  Controller 11.  Value: 108
000001t:  Control change ::  Channel 4.  Controller 11.  Value: 106
000001t:  Control change ::  Channel 4.  Controller 11.  Value: 105
000001t:  Control change ::  Channel 4.  Controller 11.  Value: 104
000001t:  Control change ::  Channel 4.  Controller 11.  Value: 103
000001t:  Control change ::  Channel 4.  Controller 11.  Value: 102
000001t:  Control change ::  Channel 4.  Controller 11.  Value: 101
000001t:  Control change ::  Channel 4.  Controller 11.  Value: 100
000001t:  Control change ::  Channel 4.  Controller 11.  Value: 99
000002t:  Control change ::  Channel 4.  Controller 11.  Value: 98
000001t:  Control change ::  Channel 4.  Controller 11.  Value: 97
000002t:  Control change ::  Channel 4.  Controller 11.  Value: 96
000001t:  Control change ::  Channel 4.  Controller 11.  Value: 95
000003t:  Control change ::  Channel 4.  Controller 11.  Value: 94
000002t:  Control change ::  Channel 4.  Controller 11.  Value: 93
000004t:  Control change ::  Channel 4.  Controller 11.  Value: 92
000005t:  Control change ::  Channel 4.  Controller 11.  Value: 91
000009t:  Control change ::  Channel 4.  Controller 11.  Value: 90
000024t:  Pitch wheel change ::  Channel 4.   -8192
000002t:  Note on ::  Channel 4.  Note 70.  Velocity 0
000000t:  Note on ::  Channel 4.  Note 53.  Velocity 0
000000t:  Note on ::  Channel 4.  Note 58.  Velocity 0
000000t:  Note on ::  Channel 4.  Note 46.  Velocity 0
000000t:  Note on ::  Channel 4.  Note 65.  Velocity 0
000000t:  Note on ::  Channel 4.  Note 61.  Velocity 0
000000t:  Pitch wheel change ::  Channel 4.   -8192
000002t:  Note on ::  Channel 4.  Note 42.  Velocity 80
000000t:  Pitch wheel change ::  Channel 4.   -8192
000000t:  Control change ::  Channel 4.  Controller 11.  Value: 120
000001t:  Note on ::  Channel 4.  Note 49.  Velocity 83
000000t:  Control change ::  Channel 4.  Controller 11.  Value: 117
000001t:  Note on ::  Channel 4.  Note 54.  Velocity 87
000000t:  Control change ::  Channel 4.  Controller 11.  Value: 115
000001t:  Note on ::  Channel 4.  Note 58.  Velocity 92
000000t:  Control change ::  Channel 4.  Controller 11.  Value: 113
000001t:  Note on ::  Channel 4.  Note 61.  Velocity 98
000000t:  Note on ::  Channel 4.  Note 66.  Velocity 105
000000t:  Control change ::  Channel 4.  Controller 11.  Value: 111
000001t:  Control change ::  Channel 4.  Controller 11.  Value: 109
000001t:  Control change ::  Channel 4.  Controller 11.  Value: 108
000001t:  Control change ::  Channel 4.  Controller 11.  Value: 106
000001t:  Control change ::  Channel 4.  Controller 11.  Value: 105
000001t:  Control change ::  Channel 4.  Controller 11.  Value: 104
000001t:  Control change ::  Channel 4.  Controller 11.  Value: 103
000001t:  Control change ::  Channel 4.  Controller 11.  Value: 102
000001t:  Control change ::  Channel 4.  Controller 11.  Value: 101
000001t:  Control change ::  Channel 4.  Controller 11.  Value: 100
000001t:  Control change ::  Channel 4.  Controller 11.  Value: 99
000002t:  Control change ::  Channel 4.  Controller 11.  Value: 98
000001t:  Control change ::  Channel 4.  Controller 11.  Value: 97
000002t:  Control change ::  Channel 4.  Controller 11.  Value: 96
000001t:  Control change ::  Channel 4.  Controller 11.  Value: 95
000003t:  Control change ::  Channel 4.  Controller 11.  Value: 94
000002t:  Control change ::  Channel 4.  Controller 11.  Value: 93
000004t:  Control change ::  Channel 4.  Controller 11.  Value: 92
000005t:  Control change ::  Channel 4.  Controller 11.  Value: 91
000009t:  Control change ::  Channel 4.  Controller 11.  Value: 90
000023t:  Pitch wheel change ::  Channel 4.   -8192
000002t:  Note on ::  Channel 4.  Note 66.  Velocity 0
000000t:  Note on ::  Channel 4.  Note 49.  Velocity 0
000000t:  Note on ::  Channel 4.  Note 54.  Velocity 0
000000t:  Note on ::  Channel 4.  Note 58.  Velocity 0
000000t:  Note on ::  Channel 4.  Note 61.  Velocity 0
000000t:  Pitch wheel change ::  Channel 4.   -8192
000001t:  Note on ::  Channel 4.  Note 42.  Velocity 0
000001t:  Control change ::  Channel 4.  Controller 11.  Value: 120
000000t:  Note on ::  Channel 4.  Note 44.  Velocity 80
000000t:  Pitch wheel change ::  Channel 4.   -8192
000001t:  Note on ::  Channel 4.  Note 51.  Velocity 83
000000t:  Control change ::  Channel 4.  Controller 11.  Value: 116
000001t:  Note on ::  Channel 4.  Note 56.  Velocity 87
000000t:  Control change ::  Channel 4.  Controller 11.  Value: 113
000001t:  Note on ::  Channel 4.  Note 60.  Velocity 92
000000t:  Control change ::  Channel 4.  Controller 11.  Value: 111
000001t:  Note on ::  Channel 4.  Note 63.  Velocity 98
000000t:  Note on ::  Channel 4.  Note 68.  Velocity 105
000000t:  Control change ::  Channel 4.  Controller 11.  Value: 108
000001t:  Control change ::  Channel 4.  Controller 11.  Value: 106
000001t:  Control change ::  Channel 4.  Controller 11.  Value: 105
000001t:  Control change ::  Channel 4.  Controller 11.  Value: 103
000001t:  Control change ::  Channel 4.  Controller 11.  Value: 101
000001t:  Control change ::  Channel 4.  Controller 11.  Value: 100
000001t:  Control change ::  Channel 4.  Controller 11.  Value: 99
000001t:  Control change ::  Channel 4.  Controller 11.  Value: 98
000001t:  Control change ::  Channel 4.  Controller 11.  Value: 97
000001t:  Control change ::  Channel 4.  Controller 11.  Value: 96
000001t:  Control change ::  Channel 4.  Controller 11.  Value: 95
000002t:  Control change ::  Channel 4.  Controller 11.  Value: 94
000002t:  Control change ::  Channel 4.  Controller 11.  Value: 93
000002t:  Control change ::  Channel 4.  Controller 11.  Value: 92
000003t:  Control change ::  Channel 4.  Controller 11.  Value: 91
000006t:  Control change ::  Channel 4.  Controller 11.  Value: 90
000004t:  Note on ::  Channel 4.  Note 60.  Velocity 0
000000t:  Note on ::  Channel 4.  Note 56.  Velocity 0
000000t:  Note on ::  Channel 4.  Note 44.  Velocity 0
000000t:  Note on ::  Channel 4.  Note 51.  Velocity 0
000001t:  Note on ::  Channel 4.  Note 68.  Velocity 0
000000t:  Note on ::  Channel 4.  Note 63.  Velocity 0
000012t:  Pitch wheel change ::  Channel 4.   -8192
000001t:  Pitch wheel change ::  Channel 4.   -8192
000001t:  Control change ::  Channel 4.  Controller 11.  Value: 120
000000t:  Note on ::  Channel 4.  Note 49.  Velocity 80
000001t:  Note on ::  Channel 4.  Note 49.  Velocity 0
000000t:  Pitch wheel change ::  Channel 4.   -8192
000000t:  Note on ::  Channel 4.  Note 49.  Velocity 90
000000t:  Control change ::  Channel 4.  Controller 11.  Value: 113
000001t:  Note on ::  Channel 4.  Note 56.  Velocity 94
000000t:  Control change ::  Channel 4.  Controller 11.  Value: 108
000001t:  Note on ::  Channel 4.  Note 61.  Velocity 98
000000t:  Note on ::  Channel 4.  Note 65.  Velocity 105
000000t:  Control change ::  Channel 4.  Controller 11.  Value: 105
000001t:  Control change ::  Channel 4.  Controller 11.  Value: 102
000001t:  Control change ::  Channel 4.  Controller 11.  Value: 99
000001t:  Control change ::  Channel 4.  Controller 11.  Value: 97
000001t:  Control change ::  Channel 4.  Controller 11.  Value: 96
000001t:  Control change ::  Channel 4.  Controller 11.  Value: 95
000001t:  Control change ::  Channel 4.  Controller 11.  Value: 93
000002t:  Control change ::  Channel 4.  Controller 11.  Value: 92
000001t:  Control change ::  Channel 4.  Controller 11.  Value: 91
000004t:  Control change ::  Channel 4.  Controller 11.  Value: 90
000006t:  Note on ::  Channel 4.  Note 49.  Velocity 0
000001t:  Note on ::  Channel 4.  Note 65.  Velocity 0
000000t:  Note on ::  Channel 4.  Note 61.  Velocity 0
000001t:  Note on ::  Channel 4.  Note 56.  Velocity 0
000001t:  Control change ::  Channel 4.  Controller 11.  Value: 120
000000t:  Note on ::  Channel 4.  Note 49.  Velocity 94
000001t:  Note on ::  Channel 4.  Note 56.  Velocity 97
000000t:  Control change ::  Channel 4.  Controller 11.  Value: 117
000001t:  Note on ::  Channel 4.  Note 61.  Velocity 101
000000t:  Note on ::  Channel 4.  Note 85.  Velocity 34
000000t:  Note on ::  Channel 4.  Note 65.  Velocity 106
000000t:  Control change ::  Channel 4.  Controller 11.  Value: 115
000001t:  Control change ::  Channel 4.  Controller 11.  Value: 113
000001t:  Control change ::  Channel 4.  Controller 11.  Value: 111
000001t:  Control change ::  Channel 4.  Controller 11.  Value: 109
000001t:  Control change ::  Channel 4.  Controller 11.  Value: 108
000001t:  Control change ::  Channel 4.  Controller 11.  Value: 106
000001t:  Control change ::  Channel 4.  Controller 11.  Value: 105
000001t:  Control change ::  Channel 4.  Controller 11.  Value: 104
000001t:  Control change ::  Channel 4.  Controller 11.  Value: 103
000001t:  Control change ::  Channel 4.  Controller 11.  Value: 102
000001t:  Control change ::  Channel 4.  Controller 11.  Value: 101
000001t:  Control change ::  Channel 4.  Controller 11.  Value: 100
000001t:  Control change ::  Channel 4.  Controller 11.  Value: 99
000002t:  Control change ::  Channel 4.  Controller 11.  Value: 98
000001t:  Control change ::  Channel 4.  Controller 11.  Value: 97
000002t:  Control change ::  Channel 4.  Controller 11.  Value: 96
000001t:  Control change ::  Channel 4.  Controller 11.  Value: 95
000003t:  Control change ::  Channel 4.  Controller 11.  Value: 94
000002t:  Control change ::  Channel 4.  Controller 11.  Value: 93
000004t:  Control change ::  Channel 4.  Controller 11.  Value: 92
000005t:  Control change ::  Channel 4.  Controller 11.  Value: 91
000009t:  Control change ::  Channel 4.  Controller 11.  Value: 90
000128t:  Note on ::  Channel 4.  Note 56.  Velocity 0
000011t:  Note on ::  Channel 4.  Note 49.  Velocity 0
000008t:  Note on ::  Channel 4.  Note 65.  Velocity 0
000002t:  Note on ::  Channel 4.  Note 61.  Velocity 0
000000t:  Control change ::  Channel 4.  Controller 11.  Value: 120
000000t:  Note on ::  Channel 4.  Note 44.  Velocity 80
000001t:  Note on ::  Channel 4.  Note 85.  Velocity 0
000000t:  Note on ::  Channel 4.  Note 51.  Velocity 83
000000t:  Control change ::  Channel 4.  Controller 11.  Value: 117
000001t:  Note on ::  Channel 4.  Note 56.  Velocity 87
000000t:  Control change ::  Channel 4.  Controller 11.  Value: 115
000001t:  Note on ::  Channel 4.  Note 60.  Velocity 92
000000t:  Control change ::  Channel 4.  Controller 11.  Value: 113
000001t:  Note on ::  Channel 4.  Note 63.  Velocity 98
000000t:  Note on ::  Channel 4.  Note 68.  Velocity 105
000000t:  Control change ::  Channel 4.  Controller 11.  Value: 111
000001t:  Control change ::  Channel 4.  Controller 11.  Value: 109
000001t:  Control change ::  Channel 4.  Controller 11.  Value: 108
000001t:  Control change ::  Channel 4.  Controller 11.  Value: 106
000001t:  Control change ::  Channel 4.  Controller 11.  Value: 105
000001t:  Control change ::  Channel 4.  Controller 11.  Value: 104
000001t:  Control change ::  Channel 4.  Controller 11.  Value: 103
000001t:  Control change ::  Channel 4.  Controller 11.  Value: 102
000001t:  Control change ::  Channel 4.  Controller 11.  Value: 101
000001t:  Control change ::  Channel 4.  Controller 11.  Value: 100
000001t:  Control change ::  Channel 4.  Controller 11.  Value: 99
000002t:  Control change ::  Channel 4.  Controller 11.  Value: 98
000001t:  Control change ::  Channel 4.  Controller 11.  Value: 97
000002t:  Control change ::  Channel 4.  Controller 11.  Value: 96
000001t:  Control change ::  Channel 4.  Controller 11.  Value: 95
000003t:  Control change ::  Channel 4.  Controller 11.  Value: 94
000002t:  Control change ::  Channel 4.  Controller 11.  Value: 93
000004t:  Control change ::  Channel 4.  Controller 11.  Value: 92
000005t:  Control change ::  Channel 4.  Controller 11.  Value: 91
000009t:  Control change ::  Channel 4.  Controller 11.  Value: 90
000025t:  Pitch wheel change ::  Channel 4.   -8192
000003t:  Note on ::  Channel 4.  Note 51.  Velocity 0
000000t:  Note on ::  Channel 4.  Note 44.  Velocity 0
000000t:  Pitch wheel change ::  Channel 4.   -8192
000001t:  Note on ::  Channel 4.  Note 63.  Velocity 0
000000t:  Note on ::  Channel 4.  Note 60.  Velocity 0
000000t:  Note on ::  Channel 4.  Note 68.  Velocity 0
000000t:  Note on ::  Channel 4.  Note 56.  Velocity 0
000002t:  Control change ::  Channel 4.  Controller 11.  Value: 120
000000t:  Note on ::  Channel 4.  Note 46.  Velocity 80
000000t:  Pitch wheel change ::  Channel 4.   -8192
000001t:  Note on ::  Channel 4.  Note 53.  Velocity 83
000000t:  Control change ::  Channel 4.  Controller 11.  Value: 117
000001t:  Note on ::  Channel 4.  Note 58.  Velocity 87
000000t:  Control change ::  Channel 4.  Controller 11.  Value: 115
000001t:  Note on ::  Channel 4.  Note 61.  Velocity 92
000000t:  Control change ::  Channel 4.  Controller 11.  Value: 113
000001t:  Note on ::  Channel 4.  Note 65.  Velocity 98
000000t:  Note on ::  Channel 4.  Note 70.  Velocity 105
000000t:  Control change ::  Channel 4.  Controller 11.  Value: 111
000001t:  Control change ::  Channel 4.  Controller 11.  Value: 109
000001t:  Control change ::  Channel 4.  Controller 11.  Value: 108
000001t:  Control change ::  Channel 4.  Controller 11.  Value: 106
000001t:  Control change ::  Channel 4.  Controller 11.  Value: 105
000001t:  Control change ::  Channel 4.  Controller 11.  Value: 104
000001t:  Control change ::  Channel 4.  Controller 11.  Value: 103
000001t:  Control change ::  Channel 4.  Controller 11.  Value: 102
000001t:  Control change ::  Channel 4.  Controller 11.  Value: 101
000001t:  Control change ::  Channel 4.  Controller 11.  Value: 100
000001t:  Control change ::  Channel 4.  Controller 11.  Value: 99
000002t:  Control change ::  Channel 4.  Controller 11.  Value: 98
000001t:  Control change ::  Channel 4.  Controller 11.  Value: 97
000002t:  Control change ::  Channel 4.  Controller 11.  Value: 96
000001t:  Control change ::  Channel 4.  Controller 11.  Value: 95
000003t:  Control change ::  Channel 4.  Controller 11.  Value: 94
000002t:  Control change ::  Channel 4.  Controller 11.  Value: 93
000004t:  Control change ::  Channel 4.  Controller 11.  Value: 92
000005t:  Control change ::  Channel 4.  Controller 11.  Value: 91
000009t:  Control change ::  Channel 4.  Controller 11.  Value: 90
000024t:  Pitch wheel change ::  Channel 4.   -8192
000001t:  Note on ::  Channel 4.  Note 70.  Velocity 0
000000t:  Note on ::  Channel 4.  Note 53.  Velocity 0
000000t:  Note on ::  Channel 4.  Note 58.  Velocity 0
000000t:  Note on ::  Channel 4.  Note 46.  Velocity 0
000000t:  Note on ::  Channel 4.  Note 61.  Velocity 0
000001t:  Note on ::  Channel 4.  Note 65.  Velocity 0
000000t:  Pitch wheel change ::  Channel 4.   -8192
000002t:  Note on ::  Channel 4.  Note 42.  Velocity 80
000000t:  Pitch wheel change ::  Channel 4.   -8192
000000t:  Control change ::  Channel 4.  Controller 11.  Value: 120
000001t:  Note on ::  Channel 4.  Note 49.  Velocity 83
000000t:  Control change ::  Channel 4.  Controller 11.  Value: 117
000001t:  Note on ::  Channel 4.  Note 54.  Velocity 87
000000t:  Control change ::  Channel 4.  Controller 11.  Value: 115
000001t:  Note on ::  Channel 4.  Note 58.  Velocity 92
000000t:  Control change ::  Channel 4.  Controller 11.  Value: 113
000001t:  Note on ::  Channel 4.  Note 61.  Velocity 98
000000t:  Note on ::  Channel 4.  Note 66.  Velocity 105
000000t:  Control change ::  Channel 4.  Controller 11.  Value: 111
000001t:  Control change ::  Channel 4.  Controller 11.  Value: 109
000001t:  Control change ::  Channel 4.  Controller 11.  Value: 108
000001t:  Control change ::  Channel 4.  Controller 11.  Value: 106
000001t:  Control change ::  Channel 4.  Controller 11.  Value: 105
000001t:  Control change ::  Channel 4.  Controller 11.  Value: 104
000001t:  Control change ::  Channel 4.  Controller 11.  Value: 103
000001t:  Control change ::  Channel 4.  Controller 11.  Value: 102
000001t:  Control change ::  Channel 4.  Controller 11.  Value: 101
000001t:  Control change ::  Channel 4.  Controller 11.  Value: 100
000001t:  Control change ::  Channel 4.  Controller 11.  Value: 99
000002t:  Control change ::  Channel 4.  Controller 11.  Value: 98
000001t:  Control change ::  Channel 4.  Controller 11.  Value: 97
000002t:  Control change ::  Channel 4.  Controller 11.  Value: 96
000001t:  Control change ::  Channel 4.  Controller 11.  Value: 95
000003t:  Control change ::  Channel 4.  Controller 11.  Value: 94
000002t:  Control change ::  Channel 4.  Controller 11.  Value: 93
000004t:  Control change ::  Channel 4.  Controller 11.  Value: 92
000005t:  Control change ::  Channel 4.  Controller 11.  Value: 91
000009t:  Control change ::  Channel 4.  Controller 11.  Value: 90
000023t:  Pitch wheel change ::  Channel 4.   -8192
000002t:  Note on ::  Channel 4.  Note 66.  Velocity 0
000000t:  Note on ::  Channel 4.  Note 49.  Velocity 0
000000t:  Note on ::  Channel 4.  Note 54.  Velocity 0
000000t:  Note on ::  Channel 4.  Note 42.  Velocity 0
000000t:  Note on ::  Channel 4.  Note 61.  Velocity 0
000000t:  Note on ::  Channel 4.  Note 58.  Velocity 0
000000t:  Pitch wheel change ::  Channel 4.   -8192
000002t:  Note on ::  Channel 4.  Note 44.  Velocity 80
000000t:  Pitch wheel change ::  Channel 4.   -8192
000000t:  Control change ::  Channel 4.  Controller 11.  Value: 120
000001t:  Note on ::  Channel 4.  Note 51.  Velocity 83
000000t:  Control change ::  Channel 4.  Controller 11.  Value: 116
000001t:  Note on ::  Channel 4.  Note 56.  Velocity 87
000000t:  Control change ::  Channel 4.  Controller 11.  Value: 113
000001t:  Note on ::  Channel 4.  Note 60.  Velocity 92
000000t:  Control change ::  Channel 4.  Controller 11.  Value: 111
000001t:  Note on ::  Channel 4.  Note 63.  Velocity 98
000000t:  Note on ::  Channel 4.  Note 68.  Velocity 105
000000t:  Control change ::  Channel 4.  Controller 11.  Value: 108
000001t:  Control change ::  Channel 4.  Controller 11.  Value: 106
000001t:  Control change ::  Channel 4.  Controller 11.  Value: 105
000001t:  Control change ::  Channel 4.  Controller 11.  Value: 103
000001t:  Control change ::  Channel 4.  Controller 11.  Value: 101
000001t:  Control change ::  Channel 4.  Controller 11.  Value: 100
000001t:  Control change ::  Channel 4.  Controller 11.  Value: 99
000001t:  Control change ::  Channel 4.  Controller 11.  Value: 98
000001t:  Control change ::  Channel 4.  Controller 11.  Value: 97
000001t:  Control change ::  Channel 4.  Controller 11.  Value: 96
000001t:  Control change ::  Channel 4.  Controller 11.  Value: 95
000002t:  Control change ::  Channel 4.  Controller 11.  Value: 94
000002t:  Control change ::  Channel 4.  Controller 11.  Value: 93
000002t:  Control change ::  Channel 4.  Controller 11.  Value: 92
000003t:  Control change ::  Channel 4.  Controller 11.  Value: 91
000006t:  Control change ::  Channel 4.  Controller 11.  Value: 90
000002t:  Note on ::  Channel 4.  Note 51.  Velocity 0
000001t:  Note on ::  Channel 4.  Note 63.  Velocity 0
000000t:  Note on ::  Channel 4.  Note 60.  Velocity 0
000000t:  Note on ::  Channel 4.  Note 44.  Velocity 0
000001t:  Note on ::  Channel 4.  Note 56.  Velocity 0
000001t:  Note on ::  Channel 4.  Note 68.  Velocity 0
000012t:  Pitch wheel change ::  Channel 4.   -8192
000001t:  Pitch wheel change ::  Channel 4.   -8192
000001t:  Note on ::  Channel 4.  Note 49.  Velocity 80
000001t:  Note on ::  Channel 4.  Note 49.  Velocity 0
000000t:  Pitch wheel change ::  Channel 4.   -8192
000000t:  Control change ::  Channel 4.  Controller 11.  Value: 120
000000t:  Note on ::  Channel 4.  Note 49.  Velocity 90
000001t:  Note on ::  Channel 4.  Note 56.  Velocity 94
000000t:  Control change ::  Channel 4.  Controller 11.  Value: 113
000001t:  Note on ::  Channel 4.  Note 61.  Velocity 98
000000t:  Note on ::  Channel 4.  Note 65.  Velocity 105
000000t:  Control change ::  Channel 4.  Controller 11.  Value: 108
000001t:  Control change ::  Channel 4.  Controller 11.  Value: 105
000001t:  Control change ::  Channel 4.  Controller 11.  Value: 101
000001t:  Control change ::  Channel 4.  Controller 11.  Value: 99
000001t:  Control change ::  Channel 4.  Controller 11.  Value: 97
000001t:  Control change ::  Channel 4.  Controller 11.  Value: 95
000001t:  Control change ::  Channel 4.  Controller 11.  Value: 94
000001t:  Control change ::  Channel 4.  Controller 11.  Value: 93
000001t:  Control change ::  Channel 4.  Controller 11.  Value: 92
000002t:  Control change ::  Channel 4.  Controller 11.  Value: 91
000003t:  Control change ::  Channel 4.  Controller 11.  Value: 90
000006t:  Note on ::  Channel 4.  Note 65.  Velocity 0
000001t:  Note on ::  Channel 4.  Note 49.  Velocity 0
000000t:  Note on ::  Channel 4.  Note 56.  Velocity 0
000000t:  Note on ::  Channel 4.  Note 61.  Velocity 0
000002t:  Control change ::  Channel 4.  Controller 11.  Value: 120
000000t:  Note on ::  Channel 4.  Note 49.  Velocity 94
000001t:  Note on ::  Channel 4.  Note 56.  Velocity 97
000000t:  Control change ::  Channel 4.  Controller 11.  Value: 117
000001t:  Note on ::  Channel 4.  Note 61.  Velocity 101
000000t:  Note on ::  Channel 4.  Note 85.  Velocity 35
000000t:  Note on ::  Channel 4.  Note 65.  Velocity 106
000000t:  Control change ::  Channel 4.  Controller 11.  Value: 115
000001t:  Control change ::  Channel 4.  Controller 11.  Value: 113
000001t:  Control change ::  Channel 4.  Controller 11.  Value: 111
000001t:  Control change ::  Channel 4.  Controller 11.  Value: 109
000001t:  Control change ::  Channel 4.  Controller 11.  Value: 108
000001t:  Control change ::  Channel 4.  Controller 11.  Value: 106
000001t:  Control change ::  Channel 4.  Controller 11.  Value: 105
000001t:  Control change ::  Channel 4.  Controller 11.  Value: 104
000001t:  Control change ::  Channel 4.  Controller 11.  Value: 103
000001t:  Control change ::  Channel 4.  Controller 11.  Value: 102
000001t:  Control change ::  Channel 4.  Controller 11.  Value: 101
000001t:  Control change ::  Channel 4.  Controller 11.  Value: 100
000001t:  Control change ::  Channel 4.  Controller 11.  Value: 99
000002t:  Control change ::  Channel 4.  Controller 11.  Value: 98
000001t:  Control change ::  Channel 4.  Controller 11.  Value: 97
000002t:  Control change ::  Channel 4.  Controller 11.  Value: 96
000001t:  Control change ::  Channel 4.  Controller 11.  Value: 95
000003t:  Control change ::  Channel 4.  Controller 11.  Value: 94
000002t:  Control change ::  Channel 4.  Controller 11.  Value: 93
000004t:  Control change ::  Channel 4.  Controller 11.  Value: 92
000005t:  Control change ::  Channel 4.  Controller 11.  Value: 91
000009t:  Control change ::  Channel 4.  Controller 11.  Value: 90
000130t:  Note on ::  Channel 4.  Note 56.  Velocity 0
000007t:  Note on ::  Channel 4.  Note 65.  Velocity 0
000002t:  Note on ::  Channel 4.  Note 49.  Velocity 0
000010t:  Note on ::  Channel 4.  Note 61.  Velocity 0
000000t:  Note on ::  Channel 4.  Note 85.  Velocity 0
000000t:  Control change ::  Channel 4.  Controller 11.  Value: 120
000000t:  Note on ::  Channel 4.  Note 44.  Velocity 80
000001t:  Note on ::  Channel 4.  Note 51.  Velocity 83
000000t:  Control change ::  Channel 4.  Controller 11.  Value: 117
000001t:  Note on ::  Channel 4.  Note 56.  Velocity 87
000000t:  Control change ::  Channel 4.  Controller 11.  Value: 115
000001t:  Note on ::  Channel 4.  Note 60.  Velocity 92
000000t:  Control change ::  Channel 4.  Controller 11.  Value: 113
000001t:  Note on ::  Channel 4.  Note 63.  Velocity 98
000000t:  Note on ::  Channel 4.  Note 68.  Velocity 105
000000t:  Control change ::  Channel 4.  Controller 11.  Value: 111
000001t:  Control change ::  Channel 4.  Controller 11.  Value: 109
000001t:  Control change ::  Channel 4.  Controller 11.  Value: 108
000001t:  Control change ::  Channel 4.  Controller 11.  Value: 106
000001t:  Control change ::  Channel 4.  Controller 11.  Value: 105
000001t:  Control change ::  Channel 4.  Controller 11.  Value: 104
000001t:  Control change ::  Channel 4.  Controller 11.  Value: 103
000001t:  Control change ::  Channel 4.  Controller 11.  Value: 102
000001t:  Control change ::  Channel 4.  Controller 11.  Value: 101
000001t:  Control change ::  Channel 4.  Controller 11.  Value: 100
000001t:  Control change ::  Channel 4.  Controller 11.  Value: 99
000002t:  Control change ::  Channel 4.  Controller 11.  Value: 98
000001t:  Control change ::  Channel 4.  Controller 11.  Value: 97
000002t:  Control change ::  Channel 4.  Controller 11.  Value: 96
000001t:  Control change ::  Channel 4.  Controller 11.  Value: 95
000003t:  Control change ::  Channel 4.  Controller 11.  Value: 94
000002t:  Control change ::  Channel 4.  Controller 11.  Value: 93
000004t:  Control change ::  Channel 4.  Controller 11.  Value: 92
000005t:  Control change ::  Channel 4.  Controller 11.  Value: 91
000009t:  Control change ::  Channel 4.  Controller 11.  Value: 90
000025t:  Pitch wheel change ::  Channel 4.   -8192
000001t:  Note on ::  Channel 4.  Note 51.  Velocity 0
000000t:  Note on ::  Channel 4.  Note 44.  Velocity 0
000001t:  Note on ::  Channel 4.  Note 63.  Velocity 0
000000t:  Note on ::  Channel 4.  Note 60.  Velocity 0
000000t:  Note on ::  Channel 4.  Note 68.  Velocity 0
000000t:  Note on ::  Channel 4.  Note 56.  Velocity 0
000000t:  Pitch wheel change ::  Channel 4.   -8192
000002t:  Control change ::  Channel 4.  Controller 11.  Value: 120
000000t:  Note on ::  Channel 4.  Note 46.  Velocity 70
000001t:  Note on ::  Channel 4.  Note 46.  Velocity 0
000000t:  Pitch wheel change ::  Channel 4.   -8192
000000t:  Note on ::  Channel 4.  Note 46.  Velocity 80
000000t:  Control change ::  Channel 4.  Controller 11.  Value: 117
000001t:  Note on ::  Channel 4.  Note 53.  Velocity 83
000000t:  Control change ::  Channel 4.  Controller 11.  Value: 115
000001t:  Note on ::  Channel 4.  Note 58.  Velocity 87
000000t:  Control change ::  Channel 4.  Controller 11.  Value: 113
000001t:  Note on ::  Channel 4.  Note 61.  Velocity 92
000000t:  Control change ::  Channel 4.  Controller 11.  Value: 111
000001t:  Note on ::  Channel 4.  Note 65.  Velocity 98
000000t:  Note on ::  Channel 4.  Note 70.  Velocity 105
000000t:  Control change ::  Channel 4.  Controller 11.  Value: 109
000001t:  Control change ::  Channel 4.  Controller 11.  Value: 108
000001t:  Control change ::  Channel 4.  Controller 11.  Value: 106
000001t:  Control change ::  Channel 4.  Controller 11.  Value: 105
000001t:  Control change ::  Channel 4.  Controller 11.  Value: 104
000001t:  Control change ::  Channel 4.  Controller 11.  Value: 103
000001t:  Control change ::  Channel 4.  Controller 11.  Value: 102
000001t:  Control change ::  Channel 4.  Controller 11.  Value: 101
000001t:  Control change ::  Channel 4.  Controller 11.  Value: 100
000001t:  Control change ::  Channel 4.  Controller 11.  Value: 99
000002t:  Control change ::  Channel 4.  Controller 11.  Value: 98
000001t:  Control change ::  Channel 4.  Controller 11.  Value: 97
000002t:  Control change ::  Channel 4.  Controller 11.  Value: 96
000001t:  Control change ::  Channel 4.  Controller 11.  Value: 95
000003t:  Control change ::  Channel 4.  Controller 11.  Value: 94
000002t:  Control change ::  Channel 4.  Controller 11.  Value: 93
000004t:  Control change ::  Channel 4.  Controller 11.  Value: 92
000005t:  Control change ::  Channel 4.  Controller 11.  Value: 91
000009t:  Control change ::  Channel 4.  Controller 11.  Value: 90
000025t:  Pitch wheel change ::  Channel 4.   -8192
000002t:  Note on ::  Channel 4.  Note 70.  Velocity 0
000000t:  Note on ::  Channel 4.  Note 53.  Velocity 0
000000t:  Note on ::  Channel 4.  Note 58.  Velocity 0
000000t:  Note on ::  Channel 4.  Note 46.  Velocity 0
000000t:  Note on ::  Channel 4.  Note 65.  Velocity 0
000000t:  Note on ::  Channel 4.  Note 61.  Velocity 0
000000t:  Pitch wheel change ::  Channel 4.   -8192
000002t:  Note on ::  Channel 4.  Note 42.  Velocity 70
000001t:  Note on ::  Channel 4.  Note 42.  Velocity 0
000000t:  Pitch wheel change ::  Channel 4.   -8192
000000t:  Control change ::  Channel 4.  Controller 11.  Value: 120
000000t:  Note on ::  Channel 4.  Note 42.  Velocity 80
000001t:  Note on ::  Channel 4.  Note 49.  Velocity 83
000000t:  Control change ::  Channel 4.  Controller 11.  Value: 117
000001t:  Note on ::  Channel 4.  Note 54.  Velocity 87
000000t:  Control change ::  Channel 4.  Controller 11.  Value: 115
000001t:  Note on ::  Channel 4.  Note 58.  Velocity 92
000000t:  Control change ::  Channel 4.  Controller 11.  Value: 113
000001t:  Note on ::  Channel 4.  Note 61.  Velocity 98
000000t:  Note on ::  Channel 4.  Note 66.  Velocity 105
000000t:  Control change ::  Channel 4.  Controller 11.  Value: 111
000001t:  Control change ::  Channel 4.  Controller 11.  Value: 109
000001t:  Control change ::  Channel 4.  Controller 11.  Value: 108
000001t:  Control change ::  Channel 4.  Controller 11.  Value: 106
000001t:  Control change ::  Channel 4.  Controller 11.  Value: 105
000001t:  Control change ::  Channel 4.  Controller 11.  Value: 104
000001t:  Control change ::  Channel 4.  Controller 11.  Value: 103
000001t:  Control change ::  Channel 4.  Controller 11.  Value: 102
000001t:  Control change ::  Channel 4.  Controller 11.  Value: 101
000001t:  Control change ::  Channel 4.  Controller 11.  Value: 100
000001t:  Control change ::  Channel 4.  Controller 11.  Value: 99
000002t:  Control change ::  Channel 4.  Controller 11.  Value: 98
000001t:  Control change ::  Channel 4.  Controller 11.  Value: 97
000002t:  Control change ::  Channel 4.  Controller 11.  Value: 96
000001t:  Control change ::  Channel 4.  Controller 11.  Value: 95
000003t:  Control change ::  Channel 4.  Controller 11.  Value: 94
000002t:  Control change ::  Channel 4.  Controller 11.  Value: 93
000004t:  Control change ::  Channel 4.  Controller 11.  Value: 92
000005t:  Control change ::  Channel 4.  Controller 11.  Value: 91
000009t:  Control change ::  Channel 4.  Controller 11.  Value: 90
000024t:  Note on ::  Channel 4.  Note 49.  Velocity 0
000000t:  Pitch wheel change ::  Channel 4.   -8192
000001t:  Note on ::  Channel 4.  Note 58.  Velocity 0
000000t:  Note on ::  Channel 4.  Note 42.  Velocity 0
000000t:  Note on ::  Channel 4.  Note 66.  Velocity 0
000001t:  Note on ::  Channel 4.  Note 54.  Velocity 0
000000t:  Note on ::  Channel 4.  Note 61.  Velocity 0
000000t:  Pitch wheel change ::  Channel 4.   -8192
000002t:  Note on ::  Channel 4.  Note 41.  Velocity 72
000001t:  Note on ::  Channel 4.  Note 41.  Velocity 0
000000t:  Pitch wheel change ::  Channel 4.   -8192
000000t:  Control change ::  Channel 4.  Controller 11.  Value: 121
000000t:  Note on ::  Channel 4.  Note 41.  Velocity 82
000001t:  Note on ::  Channel 4.  Note 49.  Velocity 86
000000t:  Control change ::  Channel 4.  Controller 11.  Value: 117
000001t:  Note on ::  Channel 4.  Note 56.  Velocity 91
000000t:  Control change ::  Channel 4.  Controller 11.  Value: 114
000001t:  Note on ::  Channel 4.  Note 61.  Velocity 98
000000t:  Note on ::  Channel 4.  Note 65.  Velocity 105
000000t:  Control change ::  Channel 4.  Controller 11.  Value: 111
000001t:  Control change ::  Channel 4.  Controller 11.  Value: 109
000001t:  Control change ::  Channel 4.  Controller 11.  Value: 106
000001t:  Control change ::  Channel 4.  Controller 11.  Value: 105
000001t:  Control change ::  Channel 4.  Controller 11.  Value: 103
000001t:  Control change ::  Channel 4.  Controller 11.  Value: 101
000001t:  Control change ::  Channel 4.  Controller 11.  Value: 100
000001t:  Control change ::  Channel 4.  Controller 11.  Value: 99
000001t:  Control change ::  Channel 4.  Controller 11.  Value: 98
000001t:  Control change ::  Channel 4.  Controller 11.  Value: 97
000001t:  Control change ::  Channel 4.  Controller 11.  Value: 96
000001t:  Control change ::  Channel 4.  Controller 11.  Value: 95
000002t:  Control change ::  Channel 4.  Controller 11.  Value: 94
000002t:  Control change ::  Channel 4.  Controller 11.  Value: 93
000002t:  Control change ::  Channel 4.  Controller 11.  Value: 92
000003t:  Control change ::  Channel 4.  Controller 11.  Value: 91
000006t:  Note on ::  Channel 4.  Note 49.  Velocity 0
000000t:  Control change ::  Channel 4.  Controller 11.  Value: 90
000001t:  Note on ::  Channel 4.  Note 41.  Velocity 0
000000t:  Note on ::  Channel 4.  Note 56.  Velocity 0
000001t:  Note on ::  Channel 4.  Note 61.  Velocity 0
000000t:  Note on ::  Channel 4.  Note 65.  Velocity 0
000016t:  Control change ::  Channel 4.  Controller 11.  Value: 120
000000t:  Note on ::  Channel 4.  Note 42.  Velocity 80
000001t:  Note on ::  Channel 4.  Note 49.  Velocity 83
000000t:  Control change ::  Channel 4.  Controller 11.  Value: 113
000001t:  Note on ::  Channel 4.  Note 54.  Velocity 87
000000t:  Control change ::  Channel 4.  Controller 11.  Value: 108
000001t:  Note on ::  Channel 4.  Note 58.  Velocity 92
000000t:  Control change ::  Channel 4.  Controller 11.  Value: 105
000001t:  Note on ::  Channel 4.  Note 61.  Velocity 98
000000t:  Note on ::  Channel 4.  Note 66.  Velocity 105
000000t:  Control change ::  Channel 4.  Controller 11.  Value: 101
000001t:  Control change ::  Channel 4.  Controller 11.  Value: 99
000001t:  Control change ::  Channel 4.  Controller 11.  Value: 97
000001t:  Control change ::  Channel 4.  Controller 11.  Value: 95
000001t:  Control change ::  Channel 4.  Controller 11.  Value: 94
000001t:  Control change ::  Channel 4.  Controller 11.  Value: 93
000001t:  Control change ::  Channel 4.  Controller 11.  Value: 92
000002t:  Control change ::  Channel 4.  Controller 11.  Value: 91
000003t:  Control change ::  Channel 4.  Controller 11.  Value: 90
000006t:  Note on ::  Channel 4.  Note 49.  Velocity 0
000001t:  Note on ::  Channel 4.  Note 54.  Velocity 0
000000t:  Note on ::  Channel 4.  Note 42.  Velocity 0
000000t:  Note on ::  Channel 4.  Note 66.  Velocity 0
000001t:  Note on ::  Channel 4.  Note 61.  Velocity 0
000001t:  Note on ::  Channel 4.  Note 58.  Velocity 0
000000t:  Control change ::  Channel 4.  Controller 11.  Value: 120
000000t:  Note on ::  Channel 4.  Note 42.  Velocity 80
000001t:  Note on ::  Channel 4.  Note 49.  Velocity 83
000000t:  Control change ::  Channel 4.  Controller 11.  Value: 117
000001t:  Note on ::  Channel 4.  Note 54.  Velocity 87
000000t:  Control change ::  Channel 4.  Controller 11.  Value: 115
000001t:  Note on ::  Channel 4.  Note 58.  Velocity 92
000000t:  Control change ::  Channel 4.  Controller 11.  Value: 114
000001t:  Note on ::  Channel 4.  Note 61.  Velocity 98
000000t:  Note on ::  Channel 4.  Note 66.  Velocity 105
000000t:  Control change ::  Channel 4.  Controller 11.  Value: 112
000001t:  Control change ::  Channel 4.  Controller 11.  Value: 111
000001t:  Control change ::  Channel 4.  Controller 11.  Value: 109
000001t:  Control change ::  Channel 4.  Controller 11.  Value: 108
000001t:  Control change ::  Channel 4.  Controller 11.  Value: 106
000001t:  Control change ::  Channel 4.  Controller 11.  Value: 105
000002t:  Control change ::  Channel 4.  Controller 11.  Value: 103
000001t:  Control change ::  Channel 4.  Controller 11.  Value: 102
000002t:  Control change ::  Channel 4.  Controller 11.  Value: 101
000001t:  Control change ::  Channel 4.  Controller 11.  Value: 100
000001t:  Control change ::  Channel 4.  Controller 11.  Value: 99
000002t:  Control change ::  Channel 4.  Controller 11.  Value: 98
000001t:  Control change ::  Channel 4.  Controller 11.  Value: 97
000002t:  Control change ::  Channel 4.  Controller 11.  Value: 96
000002t:  Control change ::  Channel 4.  Controller 11.  Value: 95
000003t:  Control change ::  Channel 4.  Controller 11.  Value: 94
000003t:  Control change ::  Channel 4.  Controller 11.  Value: 93
000004t:  Control change ::  Channel 4.  Controller 11.  Value: 92
000006t:  Control change ::  Channel 4.  Controller 11.  Value: 91
000010t:  Control change ::  Channel 4.  Controller 11.  Value: 90
000333t:  Note on ::  Channel 4.  Note 42.  Velocity 0
000001t:  Note on ::  Channel 4.  Note 49.  Velocity 0
000001t:  Note on ::  Channel 4.  Note 54.  Velocity 0
000000t:  Control change ::  Channel 4.  Controller 11.  Value: 120
000000t:  Note on ::  Channel 4.  Note 44.  Velocity 80
000001t:  Note on ::  Channel 4.  Note 58.  Velocity 0
000000t:  Note on ::  Channel 4.  Note 51.  Velocity 83
000000t:  Control change ::  Channel 4.  Controller 11.  Value: 117
000001t:  Note on ::  Channel 4.  Note 66.  Velocity 0
000000t:  Note on ::  Channel 4.  Note 61.  Velocity 0
000000t:  Note on ::  Channel 4.  Note 56.  Velocity 87
000000t:  Control change ::  Channel 4.  Controller 11.  Value: 115
000001t:  Note on ::  Channel 4.  Note 60.  Velocity 92
000000t:  Control change ::  Channel 4.  Controller 11.  Value: 113
000001t:  Note on ::  Channel 4.  Note 63.  Velocity 98
000000t:  Note on ::  Channel 4.  Note 68.  Velocity 105
000000t:  Control change ::  Channel 4.  Controller 11.  Value: 111
000001t:  Control change ::  Channel 4.  Controller 11.  Value: 109
000001t:  Control change ::  Channel 4.  Controller 11.  Value: 108
000001t:  Control change ::  Channel 4.  Controller 11.  Value: 106
000001t:  Control change ::  Channel 4.  Controller 11.  Value: 105
000001t:  Control change ::  Channel 4.  Controller 11.  Value: 104
000001t:  Control change ::  Channel 4.  Controller 11.  Value: 103
000001t:  Control change ::  Channel 4.  Controller 11.  Value: 102
000001t:  Control change ::  Channel 4.  Controller 11.  Value: 101
000001t:  Control change ::  Channel 4.  Controller 11.  Value: 100
000001t:  Control change ::  Channel 4.  Controller 11.  Value: 99
000002t:  Control change ::  Channel 4.  Controller 11.  Value: 98
000001t:  Control change ::  Channel 4.  Controller 11.  Value: 97
000002t:  Control change ::  Channel 4.  Controller 11.  Value: 96
000001t:  Control change ::  Channel 4.  Controller 11.  Value: 95
000003t:  Control change ::  Channel 4.  Controller 11.  Value: 94
000002t:  Control change ::  Channel 4.  Controller 11.  Value: 93
000004t:  Control change ::  Channel 4.  Controller 11.  Value: 92
000005t:  Control change ::  Channel 4.  Controller 11.  Value: 91
000009t:  Control change ::  Channel 4.  Controller 11.  Value: 90
000025t:  Pitch wheel change ::  Channel 4.   -8192
000001t:  Note on ::  Channel 4.  Note 51.  Velocity 0
000001t:  Note on ::  Channel 4.  Note 56.  Velocity 0
000000t:  Note on ::  Channel 4.  Note 60.  Velocity 0
000000t:  Note on ::  Channel 4.  Note 63.  Velocity 0
000000t:  Note on ::  Channel 4.  Note 68.  Velocity 0
000001t:  Note on ::  Channel 4.  Note 44.  Velocity 0
000000t:  Pitch wheel change ::  Channel 4.   -8192
000003t:  Control change ::  Channel 4.  Controller 11.  Value: 120
000000t:  Note on ::  Channel 4.  Note 46.  Velocity 80
000000t:  Pitch wheel change ::  Channel 4.   -8192
000001t:  Note on ::  Channel 4.  Note 53.  Velocity 83
000000t:  Control change ::  Channel 4.  Controller 11.  Value: 117
000001t:  Note on ::  Channel 4.  Note 58.  Velocity 87
000000t:  Control change ::  Channel 4.  Controller 11.  Value: 115
000001t:  Note on ::  Channel 4.  Note 61.  Velocity 92
000000t:  Control change ::  Channel 4.  Controller 11.  Value: 113
000001t:  Note on ::  Channel 4.  Note 65.  Velocity 98
000000t:  Note on ::  Channel 4.  Note 70.  Velocity 105
000000t:  Control change ::  Channel 4.  Controller 11.  Value: 111
000001t:  Control change ::  Channel 4.  Controller 11.  Value: 109
000001t:  Control change ::  Channel 4.  Controller 11.  Value: 108
000001t:  Control change ::  Channel 4.  Controller 11.  Value: 106
000001t:  Control change ::  Channel 4.  Controller 11.  Value: 105
000001t:  Control change ::  Channel 4.  Controller 11.  Value: 104
000001t:  Control change ::  Channel 4.  Controller 11.  Value: 103
000001t:  Control change ::  Channel 4.  Controller 11.  Value: 102
000001t:  Control change ::  Channel 4.  Controller 11.  Value: 101
000001t:  Control change ::  Channel 4.  Controller 11.  Value: 100
000001t:  Control change ::  Channel 4.  Controller 11.  Value: 99
000002t:  Control change ::  Channel 4.  Controller 11.  Value: 98
000001t:  Control change ::  Channel 4.  Controller 11.  Value: 97
000002t:  Control change ::  Channel 4.  Controller 11.  Value: 96
000001t:  Control change ::  Channel 4.  Controller 11.  Value: 95
000003t:  Control change ::  Channel 4.  Controller 11.  Value: 94
000002t:  Control change ::  Channel 4.  Controller 11.  Value: 93
000004t:  Control change ::  Channel 4.  Controller 11.  Value: 92
000005t:  Control change ::  Channel 4.  Controller 11.  Value: 91
000009t:  Control change ::  Channel 4.  Controller 11.  Value: 90
000024t:  Pitch wheel change ::  Channel 4.   -8192
000001t:  Note on ::  Channel 4.  Note 70.  Velocity 0
000000t:  Note on ::  Channel 4.  Note 61.  Velocity 0
000001t:  Note on ::  Channel 4.  Note 58.  Velocity 0
000000t:  Note on ::  Channel 4.  Note 46.  Velocity 0
000000t:  Note on ::  Channel 4.  Note 53.  Velocity 0
000000t:  Note on ::  Channel 4.  Note 65.  Velocity 0
000000t:  Pitch wheel change ::  Channel 4.   -8192
000002t:  Note on ::  Channel 4.  Note 42.  Velocity 80
000000t:  Pitch wheel change ::  Channel 4.   -8192
000000t:  Control change ::  Channel 4.  Controller 11.  Value: 120
000001t:  Note on ::  Channel 4.  Note 49.  Velocity 83
000000t:  Control change ::  Channel 4.  Controller 11.  Value: 117
000001t:  Note on ::  Channel 4.  Note 54.  Velocity 87
000000t:  Control change ::  Channel 4.  Controller 11.  Value: 115
000001t:  Note on ::  Channel 4.  Note 58.  Velocity 92
000000t:  Control change ::  Channel 4.  Controller 11.  Value: 113
000001t:  Note on ::  Channel 4.  Note 61.  Velocity 98
000000t:  Note on ::  Channel 4.  Note 66.  Velocity 105
000000t:  Control change ::  Channel 4.  Controller 11.  Value: 111
000001t:  Control change ::  Channel 4.  Controller 11.  Value: 109
000001t:  Control change ::  Channel 4.  Controller 11.  Value: 108
000001t:  Control change ::  Channel 4.  Controller 11.  Value: 106
000001t:  Control change ::  Channel 4.  Controller 11.  Value: 105
000001t:  Control change ::  Channel 4.  Controller 11.  Value: 104
000001t:  Control change ::  Channel 4.  Controller 11.  Value: 103
000001t:  Control change ::  Channel 4.  Controller 11.  Value: 102
000001t:  Control change ::  Channel 4.  Controller 11.  Value: 101
000001t:  Control change ::  Channel 4.  Controller 11.  Value: 100
000001t:  Control change ::  Channel 4.  Controller 11.  Value: 99
000002t:  Control change ::  Channel 4.  Controller 11.  Value: 98
000001t:  Control change ::  Channel 4.  Controller 11.  Value: 97
000002t:  Control change ::  Channel 4.  Controller 11.  Value: 96
000001t:  Control change ::  Channel 4.  Controller 11.  Value: 95
000003t:  Control change ::  Channel 4.  Controller 11.  Value: 94
000002t:  Control change ::  Channel 4.  Controller 11.  Value: 93
000004t:  Control change ::  Channel 4.  Controller 11.  Value: 92
000005t:  Control change ::  Channel 4.  Controller 11.  Value: 91
000009t:  Control change ::  Channel 4.  Controller 11.  Value: 90
000023t:  Pitch wheel change ::  Channel 4.   -8192
000001t:  Note on ::  Channel 4.  Note 66.  Velocity 0
000000t:  Note on ::  Channel 4.  Note 42.  Velocity 0
000000t:  Note on ::  Channel 4.  Note 58.  Velocity 0
000001t:  Note on ::  Channel 4.  Note 49.  Velocity 0
000000t:  Note on ::  Channel 4.  Note 61.  Velocity 0
000000t:  Note on ::  Channel 4.  Note 54.  Velocity 0
000000t:  Pitch wheel change ::  Channel 4.   -8192
000002t:  Control change ::  Channel 4.  Controller 11.  Value: 120
000000t:  Note on ::  Channel 4.  Note 44.  Velocity 80
000000t:  Pitch wheel change ::  Channel 4.   -8192
000001t:  Note on ::  Channel 4.  Note 51.  Velocity 83
000000t:  Control change ::  Channel 4.  Controller 11.  Value: 116
000001t:  Note on ::  Channel 4.  Note 56.  Velocity 87
000000t:  Control change ::  Channel 4.  Controller 11.  Value: 113
000001t:  Note on ::  Channel 4.  Note 60.  Velocity 92
000000t:  Control change ::  Channel 4.  Controller 11.  Value: 111
000001t:  Note on ::  Channel 4.  Note 63.  Velocity 98
000000t:  Note on ::  Channel 4.  Note 68.  Velocity 105
000000t:  Control change ::  Channel 4.  Controller 11.  Value: 108
000001t:  Control change ::  Channel 4.  Controller 11.  Value: 106
000001t:  Control change ::  Channel 4.  Controller 11.  Value: 105
000001t:  Control change ::  Channel 4.  Controller 11.  Value: 103
000001t:  Control change ::  Channel 4.  Controller 11.  Value: 101
000001t:  Control change ::  Channel 4.  Controller 11.  Value: 100
000001t:  Control change ::  Channel 4.  Controller 11.  Value: 99
000001t:  Control change ::  Channel 4.  Controller 11.  Value: 98
000001t:  Control change ::  Channel 4.  Controller 11.  Value: 97
000001t:  Control change ::  Channel 4.  Controller 11.  Value: 96
000001t:  Control change ::  Channel 4.  Controller 11.  Value: 95
000002t:  Control change ::  Channel 4.  Controller 11.  Value: 94
000002t:  Control change ::  Channel 4.  Controller 11.  Value: 93
000002t:  Control change ::  Channel 4.  Controller 11.  Value: 92
000003t:  Control change ::  Channel 4.  Controller 11.  Value: 91
000006t:  Control change ::  Channel 4.  Controller 11.  Value: 90
000003t:  Note on ::  Channel 4.  Note 63.  Velocity 0
000000t:  Note on ::  Channel 4.  Note 56.  Velocity 0
000000t:  Note on ::  Channel 4.  Note 44.  Velocity 0
000000t:  Note on ::  Channel 4.  Note 51.  Velocity 0
000001t:  Note on ::  Channel 4.  Note 60.  Velocity 0
000001t:  Note on ::  Channel 4.  Note 68.  Velocity 0
000012t:  Pitch wheel change ::  Channel 4.   -8192
000001t:  Pitch wheel change ::  Channel 4.   -8192
000001t:  Control change ::  Channel 4.  Controller 11.  Value: 120
000000t:  Note on ::  Channel 4.  Note 49.  Velocity 80
000001t:  Note on ::  Channel 4.  Note 49.  Velocity 0
000000t:  Pitch wheel change ::  Channel 4.   -8192
000000t:  Note on ::  Channel 4.  Note 49.  Velocity 90
000000t:  Control change ::  Channel 4.  Controller 11.  Value: 113
000001t:  Note on ::  Channel 4.  Note 56.  Velocity 94
000000t:  Control change ::  Channel 4.  Controller 11.  Value: 108
000001t:  Note on ::  Channel 4.  Note 61.  Velocity 98
000000t:  Note on ::  Channel 4.  Note 65.  Velocity 105
000000t:  Control change ::  Channel 4.  Controller 11.  Value: 105
000001t:  Control change ::  Channel 4.  Controller 11.  Value: 102
000001t:  Control change ::  Channel 4.  Controller 11.  Value: 99
000001t:  Control change ::  Channel 4.  Controller 11.  Value: 97
000001t:  Control change ::  Channel 4.  Controller 11.  Value: 96
000001t:  Control change ::  Channel 4.  Controller 11.  Value: 95
000001t:  Control change ::  Channel 4.  Controller 11.  Value: 93
000002t:  Control change ::  Channel 4.  Controller 11.  Value: 92
000001t:  Control change ::  Channel 4.  Controller 11.  Value: 91
000004t:  Control change ::  Channel 4.  Controller 11.  Value: 90
000005t:  Note on ::  Channel 4.  Note 56.  Velocity 0
000000t:  Note on ::  Channel 4.  Note 49.  Velocity 0
000002t:  Note on ::  Channel 4.  Note 61.  Velocity 0
000000t:  Note on ::  Channel 4.  Note 65.  Velocity 0
000002t:  Control change ::  Channel 4.  Controller 11.  Value: 120
000000t:  Note on ::  Channel 4.  Note 49.  Velocity 94
000001t:  Note on ::  Channel 4.  Note 56.  Velocity 97
000000t:  Control change ::  Channel 4.  Controller 11.  Value: 117
000001t:  Note on ::  Channel 4.  Note 61.  Velocity 101
000000t:  Note on ::  Channel 4.  Note 85.  Velocity 24
000000t:  Note on ::  Channel 4.  Note 65.  Velocity 106
000000t:  Control change ::  Channel 4.  Controller 11.  Value: 115
000001t:  Control change ::  Channel 4.  Controller 11.  Value: 114
000001t:  Control change ::  Channel 4.  Controller 11.  Value: 112
000001t:  Control change ::  Channel 4.  Controller 11.  Value: 111
000001t:  Control change ::  Channel 4.  Controller 11.  Value: 109
000001t:  Control change ::  Channel 4.  Controller 11.  Value: 108
000001t:  Control change ::  Channel 4.  Controller 11.  Value: 106
000001t:  Control change ::  Channel 4.  Controller 11.  Value: 105
000002t:  Control change ::  Channel 4.  Controller 11.  Value: 103
000001t:  Control change ::  Channel 4.  Controller 11.  Value: 102
000002t:  Control change ::  Channel 4.  Controller 11.  Value: 101
000001t:  Control change ::  Channel 4.  Controller 11.  Value: 100
000001t:  Control change ::  Channel 4.  Controller 11.  Value: 99
000002t:  Control change ::  Channel 4.  Controller 11.  Value: 98
000001t:  Control change ::  Channel 4.  Controller 11.  Value: 97
000002t:  Control change ::  Channel 4.  Controller 11.  Value: 96
000002t:  Control change ::  Channel 4.  Controller 11.  Value: 95
000003t:  Control change ::  Channel 4.  Controller 11.  Value: 94
000003t:  Control change ::  Channel 4.  Controller 11.  Value: 93
000004t:  Control change ::  Channel 4.  Controller 11.  Value: 92
000006t:  Control change ::  Channel 4.  Controller 11.  Value: 91
000010t:  Control change ::  Channel 4.  Controller 11.  Value: 90
000123t:  Note on ::  Channel 4.  Note 56.  Velocity 0
000007t:  Note on ::  Channel 4.  Note 65.  Velocity 0
000003t:  Note on ::  Channel 4.  Note 49.  Velocity 0
000010t:  Note on ::  Channel 4.  Note 61.  Velocity 0
000000t:  Note on ::  Channel 4.  Note 85.  Velocity 0
000000t:  Control change ::  Channel 4.  Controller 11.  Value: 120
000000t:  Note on ::  Channel 4.  Note 44.  Velocity 80
000001t:  Note on ::  Channel 4.  Note 51.  Velocity 83
000000t:  Control change ::  Channel 4.  Controller 11.  Value: 117
000001t:  Note on ::  Channel 4.  Note 56.  Velocity 87
000000t:  Control change ::  Channel 4.  Controller 11.  Value: 115
000001t:  Note on ::  Channel 4.  Note 60.  Velocity 92
000000t:  Control change ::  Channel 4.  Controller 11.  Value: 113
000001t:  Note on ::  Channel 4.  Note 63.  Velocity 98
000000t:  Note on ::  Channel 4.  Note 68.  Velocity 105
000000t:  Control change ::  Channel 4.  Controller 11.  Value: 111
000001t:  Control change ::  Channel 4.  Controller 11.  Value: 109
000001t:  Control change ::  Channel 4.  Controller 11.  Value: 108
000001t:  Control change ::  Channel 4.  Controller 11.  Value: 106
000001t:  Control change ::  Channel 4.  Controller 11.  Value: 105
000001t:  Control change ::  Channel 4.  Controller 11.  Value: 104
000001t:  Control change ::  Channel 4.  Controller 11.  Value: 103
000001t:  Control change ::  Channel 4.  Controller 11.  Value: 102
000001t:  Control change ::  Channel 4.  Controller 11.  Value: 101
000001t:  Control change ::  Channel 4.  Controller 11.  Value: 100
000001t:  Control change ::  Channel 4.  Controller 11.  Value: 99
000002t:  Control change ::  Channel 4.  Controller 11.  Value: 98
000001t:  Control change ::  Channel 4.  Controller 11.  Value: 97
000002t:  Control change ::  Channel 4.  Controller 11.  Value: 96
000001t:  Control change ::  Channel 4.  Controller 11.  Value: 95
000003t:  Control change ::  Channel 4.  Controller 11.  Value: 94
000002t:  Control change ::  Channel 4.  Controller 11.  Value: 93
000004t:  Control change ::  Channel 4.  Controller 11.  Value: 92
000005t:  Control change ::  Channel 4.  Controller 11.  Value: 91
000009t:  Control change ::  Channel 4.  Controller 11.  Value: 90
000025t:  Note on ::  Channel 4.  Note 60.  Velocity 0
000000t:  Note on ::  Channel 4.  Note 44.  Velocity 0
000000t:  Pitch wheel change ::  Channel 4.   -8192
000001t:  Note on ::  Channel 4.  Note 63.  Velocity 0
000000t:  Note on ::  Channel 4.  Note 51.  Velocity 0
000000t:  Note on ::  Channel 4.  Note 68.  Velocity 0
000000t:  Note on ::  Channel 4.  Note 56.  Velocity 0
000001t:  Pitch wheel change ::  Channel 4.   -8192
000002t:  Control change ::  Channel 4.  Controller 11.  Value: 120
000000t:  Note on ::  Channel 4.  Note 46.  Velocity 70
000001t:  Note on ::  Channel 4.  Note 46.  Velocity 0
000000t:  Pitch wheel change ::  Channel 4.   -8192
000000t:  Note on ::  Channel 4.  Note 46.  Velocity 80
000000t:  Control change ::  Channel 4.  Controller 11.  Value: 117
000001t:  Note on ::  Channel 4.  Note 53.  Velocity 83
000000t:  Control change ::  Channel 4.  Controller 11.  Value: 115
000001t:  Note on ::  Channel 4.  Note 58.  Velocity 87
000000t:  Control change ::  Channel 4.  Controller 11.  Value: 113
000001t:  Note on ::  Channel 4.  Note 61.  Velocity 92
000000t:  Control change ::  Channel 4.  Controller 11.  Value: 111
000001t:  Note on ::  Channel 4.  Note 65.  Velocity 98
000000t:  Note on ::  Channel 4.  Note 70.  Velocity 104
000000t:  Control change ::  Channel 4.  Controller 11.  Value: 109
000001t:  Control change ::  Channel 4.  Controller 11.  Value: 108
000001t:  Control change ::  Channel 4.  Controller 11.  Value: 106
000001t:  Control change ::  Channel 4.  Controller 11.  Value: 105
000001t:  Control change ::  Channel 4.  Controller 11.  Value: 104
000001t:  Control change ::  Channel 4.  Controller 11.  Value: 103
000001t:  Control change ::  Channel 4.  Controller 11.  Value: 102
000001t:  Control change ::  Channel 4.  Controller 11.  Value: 101
000001t:  Control change ::  Channel 4.  Controller 11.  Value: 100
000001t:  Control change ::  Channel 4.  Controller 11.  Value: 99
000002t:  Control change ::  Channel 4.  Controller 11.  Value: 98
000001t:  Control change ::  Channel 4.  Controller 11.  Value: 97
000002t:  Control change ::  Channel 4.  Controller 11.  Value: 96
000001t:  Control change ::  Channel 4.  Controller 11.  Value: 95
000003t:  Control change ::  Channel 4.  Controller 11.  Value: 94
000002t:  Control change ::  Channel 4.  Controller 11.  Value: 93
000004t:  Control change ::  Channel 4.  Controller 11.  Value: 92
000005t:  Control change ::  Channel 4.  Controller 11.  Value: 91
000009t:  Control change ::  Channel 4.  Controller 11.  Value: 90
000025t:  Note on ::  Channel 4.  Note 58.  Velocity 0
000000t:  Pitch wheel change ::  Channel 4.   -8192
000001t:  Note on ::  Channel 4.  Note 46.  Velocity 0
000000t:  Note on ::  Channel 4.  Note 61.  Velocity 0
000000t:  Note on ::  Channel 4.  Note 65.  Velocity 0
000000t:  Note on ::  Channel 4.  Note 70.  Velocity 0
000001t:  Note on ::  Channel 4.  Note 53.  Velocity 0
000000t:  Pitch wheel change ::  Channel 4.   -8192
000002t:  Control change ::  Channel 4.  Controller 11.  Value: 120
000000t:  Note on ::  Channel 4.  Note 42.  Velocity 60
000001t:  Note on ::  Channel 4.  Note 42.  Velocity 0
000000t:  Pitch wheel change ::  Channel 4.   -8192
000000t:  Note on ::  Channel 4.  Note 42.  Velocity 80
000000t:  Control change ::  Channel 4.  Controller 11.  Value: 117
000001t:  Note on ::  Channel 4.  Note 49.  Velocity 83
000000t:  Control change ::  Channel 4.  Controller 11.  Value: 115
000001t:  Note on ::  Channel 4.  Note 54.  Velocity 87
000000t:  Control change ::  Channel 4.  Controller 11.  Value: 113
000001t:  Note on ::  Channel 4.  Note 58.  Velocity 92
000000t:  Control change ::  Channel 4.  Controller 11.  Value: 111
000001t:  Note on ::  Channel 4.  Note 61.  Velocity 98
000000t:  Note on ::  Channel 4.  Note 66.  Velocity 105
000000t:  Control change ::  Channel 4.  Controller 11.  Value: 109
000001t:  Control change ::  Channel 4.  Controller 11.  Value: 108
000001t:  Control change ::  Channel 4.  Controller 11.  Value: 106
000001t:  Control change ::  Channel 4.  Controller 11.  Value: 105
000001t:  Control change ::  Channel 4.  Controller 11.  Value: 104
000001t:  Control change ::  Channel 4.  Controller 11.  Value: 103
000001t:  Control change ::  Channel 4.  Controller 11.  Value: 102
000001t:  Control change ::  Channel 4.  Controller 11.  Value: 101
000001t:  Control change ::  Channel 4.  Controller 11.  Value: 100
000001t:  Control change ::  Channel 4.  Controller 11.  Value: 99
000002t:  Control change ::  Channel 4.  Controller 11.  Value: 98
000001t:  Control change ::  Channel 4.  Controller 11.  Value: 97
000002t:  Control change ::  Channel 4.  Controller 11.  Value: 96
000001t:  Control change ::  Channel 4.  Controller 11.  Value: 95
000003t:  Control change ::  Channel 4.  Controller 11.  Value: 94
000002t:  Control change ::  Channel 4.  Controller 11.  Value: 93
000004t:  Control change ::  Channel 4.  Controller 11.  Value: 92
000005t:  Control change ::  Channel 4.  Controller 11.  Value: 91
000009t:  Control change ::  Channel 4.  Controller 11.  Value: 90
000025t:  Note on ::  Channel 4.  Note 54.  Velocity 0
000000t:  Pitch wheel change ::  Channel 4.   -8192
000001t:  Note on ::  Channel 4.  Note 49.  Velocity 0
000000t:  Note on ::  Channel 4.  Note 58.  Velocity 0
000000t:  Note on ::  Channel 4.  Note 42.  Velocity 0
000000t:  Note on ::  Channel 4.  Note 66.  Velocity 0
000000t:  Note on ::  Channel 4.  Note 61.  Velocity 0
000001t:  Pitch wheel change ::  Channel 4.   -8192
000002t:  Control change ::  Channel 4.  Controller 11.  Value: 120
000000t:  Note on ::  Channel 4.  Note 44.  Velocity 68
000001t:  Note on ::  Channel 4.  Note 44.  Velocity 0
000000t:  Pitch wheel change ::  Channel 4.   -8192
000000t:  Note on ::  Channel 4.  Note 44.  Velocity 80
000000t:  Control change ::  Channel 4.  Controller 11.  Value: 116
000001t:  Note on ::  Channel 4.  Note 51.  Velocity 83
000000t:  Control change ::  Channel 4.  Controller 11.  Value: 113
000001t:  Note on ::  Channel 4.  Note 56.  Velocity 87
000000t:  Control change ::  Channel 4.  Controller 11.  Value: 111
000001t:  Note on ::  Channel 4.  Note 60.  Velocity 92
000000t:  Control change ::  Channel 4.  Controller 11.  Value: 108
000001t:  Note on ::  Channel 4.  Note 63.  Velocity 98
000000t:  Note on ::  Channel 4.  Note 68.  Velocity 105
000000t:  Control change ::  Channel 4.  Controller 11.  Value: 106
000001t:  Control change ::  Channel 4.  Controller 11.  Value: 105
000001t:  Control change ::  Channel 4.  Controller 11.  Value: 103
000001t:  Control change ::  Channel 4.  Controller 11.  Value: 101
000001t:  Control change ::  Channel 4.  Controller 11.  Value: 100
000001t:  Control change ::  Channel 4.  Controller 11.  Value: 99
000001t:  Control change ::  Channel 4.  Controller 11.  Value: 98
000001t:  Control change ::  Channel 4.  Controller 11.  Value: 97
000001t:  Control change ::  Channel 4.  Controller 11.  Value: 96
000001t:  Control change ::  Channel 4.  Controller 11.  Value: 95
000002t:  Control change ::  Channel 4.  Controller 11.  Value: 94
000002t:  Control change ::  Channel 4.  Controller 11.  Value: 93
000002t:  Control change ::  Channel 4.  Controller 11.  Value: 92
000003t:  Control change ::  Channel 4.  Controller 11.  Value: 91
000006t:  Control change ::  Channel 4.  Controller 11.  Value: 90
000003t:  Note on ::  Channel 4.  Note 51.  Velocity 0
000000t:  Note on ::  Channel 4.  Note 44.  Velocity 0
000001t:  Note on ::  Channel 4.  Note 63.  Velocity 0
000000t:  Note on ::  Channel 4.  Note 56.  Velocity 0
000000t:  Note on ::  Channel 4.  Note 68.  Velocity 0
000001t:  Note on ::  Channel 4.  Note 60.  Velocity 0
000014t:  Control change ::  Channel 4.  Controller 11.  Value: 120
000000t:  Note on ::  Channel 4.  Note 49.  Velocity 90
000001t:  Note on ::  Channel 4.  Note 56.  Velocity 93
000000t:  Control change ::  Channel 4.  Controller 11.  Value: 113
000001t:  Note on ::  Channel 4.  Note 61.  Velocity 97
000000t:  Note on ::  Channel 4.  Note 65.  Velocity 104
000000t:  Control change ::  Channel 4.  Controller 11.  Value: 108
000001t:  Control change ::  Channel 4.  Controller 11.  Value: 105
000001t:  Control change ::  Channel 4.  Controller 11.  Value: 101
000001t:  Control change ::  Channel 4.  Controller 11.  Value: 99
000001t:  Control change ::  Channel 4.  Controller 11.  Value: 97
000001t:  Control change ::  Channel 4.  Controller 11.  Value: 95
000001t:  Control change ::  Channel 4.  Controller 11.  Value: 94
000001t:  Control change ::  Channel 4.  Controller 11.  Value: 93
000001t:  Control change ::  Channel 4.  Controller 11.  Value: 92
000002t:  Control change ::  Channel 4.  Controller 11.  Value: 91
000003t:  Control change ::  Channel 4.  Controller 11.  Value: 90
000005t:  Note on ::  Channel 4.  Note 49.  Velocity 0
000002t:  Note on ::  Channel 4.  Note 56.  Velocity 0
000000t:  Note on ::  Channel 4.  Note 61.  Velocity 0
000001t:  Note on ::  Channel 4.  Note 65.  Velocity 0
000001t:  Control change ::  Channel 4.  Controller 11.  Value: 120
000000t:  Note on ::  Channel 4.  Note 49.  Velocity 90
000001t:  Note on ::  Channel 4.  Note 56.  Velocity 93
000000t:  Control change ::  Channel 4.  Controller 11.  Value: 117
000001t:  Note on ::  Channel 4.  Note 61.  Velocity 97
000000t:  Note on ::  Channel 4.  Note 85.  Velocity 28
000000t:  Note on ::  Channel 4.  Note 65.  Velocity 104
000000t:  Control change ::  Channel 4.  Controller 11.  Value: 115
000001t:  Control change ::  Channel 4.  Controller 11.  Value: 114
000001t:  Control change ::  Channel 4.  Controller 11.  Value: 112
000001t:  Control change ::  Channel 4.  Controller 11.  Value: 111
000001t:  Control change ::  Channel 4.  Controller 11.  Value: 109
000001t:  Control change ::  Channel 4.  Controller 11.  Value: 108
000001t:  Control change ::  Channel 4.  Controller 11.  Value: 106
000001t:  Control change ::  Channel 4.  Controller 11.  Value: 105
000002t:  Control change ::  Channel 4.  Controller 11.  Value: 103
000001t:  Control change ::  Channel 4.  Controller 11.  Value: 102
000002t:  Control change ::  Channel 4.  Controller 11.  Value: 101
000001t:  Control change ::  Channel 4.  Controller 11.  Value: 100
000001t:  Control change ::  Channel 4.  Controller 11.  Value: 99
000002t:  Control change ::  Channel 4.  Controller 11.  Value: 98
000001t:  Control change ::  Channel 4.  Controller 11.  Value: 97
000002t:  Control change ::  Channel 4.  Controller 11.  Value: 96
000002t:  Control change ::  Channel 4.  Controller 11.  Value: 95
000003t:  Control change ::  Channel 4.  Controller 11.  Value: 94
000003t:  Control change ::  Channel 4.  Controller 11.  Value: 93
000004t:  Control change ::  Channel 4.  Controller 11.  Value: 92
000006t:  Control change ::  Channel 4.  Controller 11.  Value: 91
000010t:  Control change ::  Channel 4.  Controller 11.  Value: 90
000126t:  Note on ::  Channel 4.  Note 56.  Velocity 0
000005t:  Note on ::  Channel 4.  Note 65.  Velocity 0
000007t:  Note on ::  Channel 4.  Note 49.  Velocity 0
000005t:  Note on ::  Channel 4.  Note 61.  Velocity 0
000000t:  Note on ::  Channel 4.  Note 85.  Velocity 0
000000t:  Control change ::  Channel 4.  Controller 11.  Value: 120
000000t:  Note on ::  Channel 4.  Note 44.  Velocity 80
000001t:  Note on ::  Channel 4.  Note 51.  Velocity 83
000000t:  Control change ::  Channel 4.  Controller 11.  Value: 117
000001t:  Note on ::  Channel 4.  Note 56.  Velocity 87
000000t:  Control change ::  Channel 4.  Controller 11.  Value: 115
000001t:  Note on ::  Channel 4.  Note 60.  Velocity 92
000000t:  Control change ::  Channel 4.  Controller 11.  Value: 113
000001t:  Note on ::  Channel 4.  Note 63.  Velocity 98
000000t:  Note on ::  Channel 4.  Note 68.  Velocity 105
000000t:  Control change ::  Channel 4.  Controller 11.  Value: 111
000001t:  Control change ::  Channel 4.  Controller 11.  Value: 109
000001t:  Control change ::  Channel 4.  Controller 11.  Value: 108
000001t:  Control change ::  Channel 4.  Controller 11.  Value: 106
000001t:  Control change ::  Channel 4.  Controller 11.  Value: 105
000001t:  Control change ::  Channel 4.  Controller 11.  Value: 104
000001t:  Control change ::  Channel 4.  Controller 11.  Value: 103
000001t:  Control change ::  Channel 4.  Controller 11.  Value: 102
000001t:  Control change ::  Channel 4.  Controller 11.  Value: 101
000001t:  Control change ::  Channel 4.  Controller 11.  Value: 100
000001t:  Control change ::  Channel 4.  Controller 11.  Value: 99
000002t:  Control change ::  Channel 4.  Controller 11.  Value: 98
000001t:  Control change ::  Channel 4.  Controller 11.  Value: 97
000002t:  Control change ::  Channel 4.  Controller 11.  Value: 96
000001t:  Control change ::  Channel 4.  Controller 11.  Value: 95
000003t:  Control change ::  Channel 4.  Controller 11.  Value: 94
000002t:  Control change ::  Channel 4.  Controller 11.  Value: 93
000004t:  Control change ::  Channel 4.  Controller 11.  Value: 92
000005t:  Control change ::  Channel 4.  Controller 11.  Value: 91
000009t:  Control change ::  Channel 4.  Controller 11.  Value: 90
000025t:  Pitch wheel change ::  Channel 4.   -8192
000001t:  Note on ::  Channel 4.  Note 44.  Velocity 0
000001t:  Note on ::  Channel 4.  Note 56.  Velocity 0
000000t:  Note on ::  Channel 4.  Note 60.  Velocity 0
000000t:  Note on ::  Channel 4.  Note 51.  Velocity 0
000000t:  Note on ::  Channel 4.  Note 68.  Velocity 0
000000t:  Note on ::  Channel 4.  Note 63.  Velocity 0
000000t:  Control change ::  Channel 4.  Controller 11.  Value: 120
000000t:  Pitch wheel change ::  Channel 4.   -8192
000001t:  Control change ::  Channel 4.  Controller 11.  Value: 117
000001t:  Note on ::  Channel 4.  Note 46.  Velocity 60
000000t:  Control change ::  Channel 4.  Controller 11.  Value: 115
000001t:  Note on ::  Channel 4.  Note 46.  Velocity 0
000000t:  Pitch wheel change ::  Channel 4.   -8192
000000t:  Note on ::  Channel 4.  Note 46.  Velocity 80
000000t:  Control change ::  Channel 4.  Controller 11.  Value: 113
000001t:  Note on ::  Channel 4.  Note 53.  Velocity 83
000000t:  Control change ::  Channel 4.  Controller 11.  Value: 111
000001t:  Note on ::  Channel 4.  Note 58.  Velocity 87
000000t:  Control change ::  Channel 4.  Controller 11.  Value: 109
000001t:  Note on ::  Channel 4.  Note 61.  Velocity 92
000000t:  Control change ::  Channel 4.  Controller 11.  Value: 108
000001t:  Note on ::  Channel 4.  Note 65.  Velocity 98
000000t:  Note on ::  Channel 4.  Note 70.  Velocity 105
000000t:  Control change ::  Channel 4.  Controller 11.  Value: 106
000001t:  Control change ::  Channel 4.  Controller 11.  Value: 105
000001t:  Control change ::  Channel 4.  Controller 11.  Value: 104
000001t:  Control change ::  Channel 4.  Controller 11.  Value: 103
000001t:  Control change ::  Channel 4.  Controller 11.  Value: 102
000001t:  Control change ::  Channel 4.  Controller 11.  Value: 101
000001t:  Control change ::  Channel 4.  Controller 11.  Value: 100
000001t:  Control change ::  Channel 4.  Controller 11.  Value: 99
000002t:  Control change ::  Channel 4.  Controller 11.  Value: 98
000001t:  Control change ::  Channel 4.  Controller 11.  Value: 97
000002t:  Control change ::  Channel 4.  Controller 11.  Value: 96
000001t:  Control change ::  Channel 4.  Controller 11.  Value: 95
000003t:  Control change ::  Channel 4.  Controller 11.  Value: 94
000002t:  Control change ::  Channel 4.  Controller 11.  Value: 93
000004t:  Control change ::  Channel 4.  Controller 11.  Value: 92
000005t:  Control change ::  Channel 4.  Controller 11.  Value: 91
000009t:  Control change ::  Channel 4.  Controller 11.  Value: 90
000027t:  Pitch wheel change ::  Channel 4.   -8192
000001t:  Note on ::  Channel 4.  Note 70.  Velocity 0
000000t:  Note on ::  Channel 4.  Note 61.  Velocity 0
000000t:  Note on ::  Channel 4.  Note 46.  Velocity 0
000000t:  Note on ::  Channel 4.  Note 65.  Velocity 0
000001t:  Note on ::  Channel 4.  Note 53.  Velocity 0
000000t:  Note on ::  Channel 4.  Note 58.  Velocity 0
000000t:  Pitch wheel change ::  Channel 4.   -8192
000003t:  Note on ::  Channel 4.  Note 42.  Velocity 68
000001t:  Note on ::  Channel 4.  Note 42.  Velocity 0
000000t:  Pitch wheel change ::  Channel 4.   -8192
000000t:  Control change ::  Channel 4.  Controller 11.  Value: 120
000000t:  Note on ::  Channel 4.  Note 42.  Velocity 80
000001t:  Note on ::  Channel 4.  Note 49.  Velocity 83
000000t:  Control change ::  Channel 4.  Controller 11.  Value: 117
000001t:  Note on ::  Channel 4.  Note 54.  Velocity 87
000000t:  Control change ::  Channel 4.  Controller 11.  Value: 115
000001t:  Note on ::  Channel 4.  Note 58.  Velocity 92
000000t:  Control change ::  Channel 4.  Controller 11.  Value: 113
000001t:  Note on ::  Channel 4.  Note 61.  Velocity 98
000000t:  Note on ::  Channel 4.  Note 66.  Velocity 105
000000t:  Control change ::  Channel 4.  Controller 11.  Value: 111
000001t:  Control change ::  Channel 4.  Controller 11.  Value: 109
000001t:  Control change ::  Channel 4.  Controller 11.  Value: 108
000001t:  Control change ::  Channel 4.  Controller 11.  Value: 106
000001t:  Control change ::  Channel 4.  Controller 11.  Value: 105
000001t:  Control change ::  Channel 4.  Controller 11.  Value: 104
000001t:  Control change ::  Channel 4.  Controller 11.  Value: 103
000001t:  Control change ::  Channel 4.  Controller 11.  Value: 102
000001t:  Control change ::  Channel 4.  Controller 11.  Value: 101
000001t:  Control change ::  Channel 4.  Controller 11.  Value: 100
000001t:  Control change ::  Channel 4.  Controller 11.  Value: 99
000002t:  Control change ::  Channel 4.  Controller 11.  Value: 98
000001t:  Control change ::  Channel 4.  Controller 11.  Value: 97
000002t:  Control change ::  Channel 4.  Controller 11.  Value: 96
000001t:  Control change ::  Channel 4.  Controller 11.  Value: 95
000003t:  Control change ::  Channel 4.  Controller 11.  Value: 94
000002t:  Control change ::  Channel 4.  Controller 11.  Value: 93
000004t:  Control change ::  Channel 4.  Controller 11.  Value: 92
000005t:  Control change ::  Channel 4.  Controller 11.  Value: 91
000009t:  Control change ::  Channel 4.  Controller 11.  Value: 90
000023t:  Note on ::  Channel 4.  Note 54.  Velocity 0
000000t:  Pitch wheel change ::  Channel 4.   -8192
000001t:  Note on ::  Channel 4.  Note 61.  Velocity 0
000000t:  Note on ::  Channel 4.  Note 66.  Velocity 0
000001t:  Note on ::  Channel 4.  Note 42.  Velocity 0
000000t:  Note on ::  Channel 4.  Note 58.  Velocity 0
000000t:  Note on ::  Channel 4.  Note 49.  Velocity 0
000000t:  Pitch wheel change ::  Channel 4.   -8192
000002t:  Note on ::  Channel 4.  Note 44.  Velocity 72
000001t:  Note on ::  Channel 4.  Note 44.  Velocity 0
000000t:  Pitch wheel change ::  Channel 4.   -8192
000000t:  Control change ::  Channel 4.  Controller 11.  Value: 120
000000t:  Note on ::  Channel 4.  Note 44.  Velocity 80
000001t:  Note on ::  Channel 4.  Note 51.  Velocity 83
000000t:  Control change ::  Channel 4.  Controller 11.  Value: 116
000001t:  Note on ::  Channel 4.  Note 56.  Velocity 87
000000t:  Control change ::  Channel 4.  Controller 11.  Value: 113
000001t:  Note on ::  Channel 4.  Note 60.  Velocity 92
000000t:  Control change ::  Channel 4.  Controller 11.  Value: 110
000001t:  Note on ::  Channel 4.  Note 63.  Velocity 98
000000t:  Note on ::  Channel 4.  Note 68.  Velocity 105
000000t:  Control change ::  Channel 4.  Controller 11.  Value: 108
000001t:  Control change ::  Channel 4.  Controller 11.  Value: 106
000001t:  Control change ::  Channel 4.  Controller 11.  Value: 104
000001t:  Control change ::  Channel 4.  Controller 11.  Value: 102
000001t:  Control change ::  Channel 4.  Controller 11.  Value: 101
000001t:  Control change ::  Channel 4.  Controller 11.  Value: 100
000001t:  Control change ::  Channel 4.  Controller 11.  Value: 99
000001t:  Control change ::  Channel 4.  Controller 11.  Value: 98
000001t:  Control change ::  Channel 4.  Controller 11.  Value: 97
000001t:  Control change ::  Channel 4.  Controller 11.  Value: 96
000001t:  Control change ::  Channel 4.  Controller 11.  Value: 95
000002t:  Control change ::  Channel 4.  Controller 11.  Value: 94
000001t:  Control change ::  Channel 4.  Controller 11.  Value: 93
000003t:  Control change ::  Channel 4.  Controller 11.  Value: 92
000003t:  Control change ::  Channel 4.  Controller 11.  Value: 91
000006t:  Control change ::  Channel 4.  Controller 11.  Value: 90
000001t:  Note on ::  Channel 4.  Note 44.  Velocity 0
000001t:  Note on ::  Channel 4.  Note 51.  Velocity 0
000000t:  Note on ::  Channel 4.  Note 68.  Velocity 0
000001t:  Note on ::  Channel 4.  Note 60.  Velocity 0
000000t:  Note on ::  Channel 4.  Note 63.  Velocity 0
000000t:  Note on ::  Channel 4.  Note 56.  Velocity 0
000015t:  Control change ::  Channel 4.  Controller 11.  Value: 120
000000t:  Note on ::  Channel 4.  Note 49.  Velocity 90
000001t:  Note on ::  Channel 4.  Note 56.  Velocity 94
000000t:  Control change ::  Channel 4.  Controller 11.  Value: 113
000001t:  Note on ::  Channel 4.  Note 61.  Velocity 99
000000t:  Note on ::  Channel 4.  Note 65.  Velocity 105
000000t:  Control change ::  Channel 4.  Controller 11.  Value: 108
000001t:  Control change ::  Channel 4.  Controller 11.  Value: 105
000001t:  Control change ::  Channel 4.  Controller 11.  Value: 101
000001t:  Control change ::  Channel 4.  Controller 11.  Value: 99
000001t:  Control change ::  Channel 4.  Controller 11.  Value: 97
000001t:  Control change ::  Channel 4.  Controller 11.  Value: 95
000001t:  Control change ::  Channel 4.  Controller 11.  Value: 94
000001t:  Control change ::  Channel 4.  Controller 11.  Value: 93
000001t:  Control change ::  Channel 4.  Controller 11.  Value: 92
000002t:  Control change ::  Channel 4.  Controller 11.  Value: 91
000003t:  Control change ::  Channel 4.  Controller 11.  Value: 90
000007t:  Note on ::  Channel 4.  Note 61.  Velocity 0
000000t:  Note on ::  Channel 4.  Note 49.  Velocity 0
000000t:  Note on ::  Channel 4.  Note 56.  Velocity 0
000001t:  Note on ::  Channel 4.  Note 65.  Velocity 0
000001t:  Control change ::  Channel 4.  Controller 11.  Value: 120
000000t:  Note on ::  Channel 4.  Note 49.  Velocity 90
000001t:  Note on ::  Channel 4.  Note 56.  Velocity 94
000000t:  Control change ::  Channel 4.  Controller 11.  Value: 117
000001t:  Note on ::  Channel 4.  Note 61.  Velocity 99
000000t:  Note on ::  Channel 4.  Note 85.  Velocity 27
000000t:  Note on ::  Channel 4.  Note 65.  Velocity 105
000000t:  Control change ::  Channel 4.  Controller 11.  Value: 115
000001t:  Control change ::  Channel 4.  Controller 11.  Value: 113
000001t:  Control change ::  Channel 4.  Controller 11.  Value: 111
000001t:  Control change ::  Channel 4.  Controller 11.  Value: 109
000001t:  Control change ::  Channel 4.  Controller 11.  Value: 108
000001t:  Control change ::  Channel 4.  Controller 11.  Value: 106
000001t:  Control change ::  Channel 4.  Controller 11.  Value: 105
000001t:  Control change ::  Channel 4.  Controller 11.  Value: 104
000001t:  Control change ::  Channel 4.  Controller 11.  Value: 103
000001t:  Control change ::  Channel 4.  Controller 11.  Value: 102
000001t:  Control change ::  Channel 4.  Controller 11.  Value: 101
000001t:  Control change ::  Channel 4.  Controller 11.  Value: 100
000001t:  Control change ::  Channel 4.  Controller 11.  Value: 99
000002t:  Control change ::  Channel 4.  Controller 11.  Value: 98
000001t:  Control change ::  Channel 4.  Controller 11.  Value: 97
000002t:  Control change ::  Channel 4.  Controller 11.  Value: 96
000001t:  Control change ::  Channel 4.  Controller 11.  Value: 95
000003t:  Control change ::  Channel 4.  Controller 11.  Value: 94
000002t:  Control change ::  Channel 4.  Controller 11.  Value: 93
000004t:  Control change ::  Channel 4.  Controller 11.  Value: 92
000005t:  Control change ::  Channel 4.  Controller 11.  Value: 91
000009t:  Control change ::  Channel 4.  Controller 11.  Value: 90
000129t:  Note on ::  Channel 4.  Note 56.  Velocity 0
000007t:  Note on ::  Channel 4.  Note 65.  Velocity 0
000007t:  Note on ::  Channel 4.  Note 49.  Velocity 0
000006t:  Note on ::  Channel 4.  Note 61.  Velocity 0
000000t:  Note on ::  Channel 4.  Note 85.  Velocity 0
000000t:  Control change ::  Channel 4.  Controller 11.  Value: 120
000000t:  Note on ::  Channel 4.  Note 44.  Velocity 80
000001t:  Note on ::  Channel 4.  Note 51.  Velocity 83
000000t:  Control change ::  Channel 4.  Controller 11.  Value: 117
000001t:  Note on ::  Channel 4.  Note 56.  Velocity 87
000000t:  Control change ::  Channel 4.  Controller 11.  Value: 115
000001t:  Note on ::  Channel 4.  Note 60.  Velocity 92
000000t:  Control change ::  Channel 4.  Controller 11.  Value: 113
000001t:  Note on ::  Channel 4.  Note 63.  Velocity 98
000000t:  Note on ::  Channel 4.  Note 68.  Velocity 105
000000t:  Control change ::  Channel 4.  Controller 11.  Value: 111
000001t:  Control change ::  Channel 4.  Controller 11.  Value: 109
000001t:  Control change ::  Channel 4.  Controller 11.  Value: 108
000001t:  Control change ::  Channel 4.  Controller 11.  Value: 106
000001t:  Control change ::  Channel 4.  Controller 11.  Value: 105
000001t:  Control change ::  Channel 4.  Controller 11.  Value: 104
000001t:  Control change ::  Channel 4.  Controller 11.  Value: 103
000001t:  Control change ::  Channel 4.  Controller 11.  Value: 102
000001t:  Control change ::  Channel 4.  Controller 11.  Value: 101
000001t:  Control change ::  Channel 4.  Controller 11.  Value: 100
000001t:  Control change ::  Channel 4.  Controller 11.  Value: 99
000002t:  Control change ::  Channel 4.  Controller 11.  Value: 98
000001t:  Control change ::  Channel 4.  Controller 11.  Value: 97
000002t:  Control change ::  Channel 4.  Controller 11.  Value: 96
000001t:  Control change ::  Channel 4.  Controller 11.  Value: 95
000003t:  Control change ::  Channel 4.  Controller 11.  Value: 94
000002t:  Control change ::  Channel 4.  Controller 11.  Value: 93
000004t:  Control change ::  Channel 4.  Controller 11.  Value: 92
000005t:  Control change ::  Channel 4.  Controller 11.  Value: 91
000009t:  Control change ::  Channel 4.  Controller 11.  Value: 90
000025t:  Note on ::  Channel 4.  Note 68.  Velocity 0
000000t:  Note on ::  Channel 4.  Note 44.  Velocity 0
000000t:  Note on ::  Channel 4.  Note 56.  Velocity 0
000000t:  Pitch wheel change ::  Channel 4.   -8192
000001t:  Note on ::  Channel 4.  Note 51.  Velocity 0
000001t:  Note on ::  Channel 4.  Note 63.  Velocity 0
000000t:  Note on ::  Channel 4.  Note 60.  Velocity 0
000000t:  Pitch wheel change ::  Channel 4.   -8192
000002t:  Control change ::  Channel 4.  Controller 11.  Value: 120
000000t:  Note on ::  Channel 4.  Note 46.  Velocity 70
000001t:  Note on ::  Channel 4.  Note 46.  Velocity 0
000000t:  Pitch wheel change ::  Channel 4.   -8192
000000t:  Note on ::  Channel 4.  Note 46.  Velocity 80
000000t:  Control change ::  Channel 4.  Controller 11.  Value: 117
000001t:  Note on ::  Channel 4.  Note 53.  Velocity 83
000000t:  Control change ::  Channel 4.  Controller 11.  Value: 115
000001t:  Note on ::  Channel 4.  Note 58.  Velocity 87
000000t:  Control change ::  Channel 4.  Controller 11.  Value: 113
000001t:  Note on ::  Channel 4.  Note 61.  Velocity 92
000000t:  Control change ::  Channel 4.  Controller 11.  Value: 111
000001t:  Note on ::  Channel 4.  Note 65.  Velocity 98
000000t:  Note on ::  Channel 4.  Note 70.  Velocity 105
000000t:  Control change ::  Channel 4.  Controller 11.  Value: 109
000001t:  Control change ::  Channel 4.  Controller 11.  Value: 108
000001t:  Control change ::  Channel 4.  Controller 11.  Value: 106
000001t:  Control change ::  Channel 4.  Controller 11.  Value: 105
000001t:  Control change ::  Channel 4.  Controller 11.  Value: 104
000001t:  Control change ::  Channel 4.  Controller 11.  Value: 103
000001t:  Control change ::  Channel 4.  Controller 11.  Value: 102
000001t:  Control change ::  Channel 4.  Controller 11.  Value: 101
000001t:  Control change ::  Channel 4.  Controller 11.  Value: 100
000001t:  Control change ::  Channel 4.  Controller 11.  Value: 99
000002t:  Control change ::  Channel 4.  Controller 11.  Value: 98
000001t:  Control change ::  Channel 4.  Controller 11.  Value: 97
000002t:  Control change ::  Channel 4.  Controller 11.  Value: 96
000001t:  Control change ::  Channel 4.  Controller 11.  Value: 95
000003t:  Control change ::  Channel 4.  Controller 11.  Value: 94
000002t:  Control change ::  Channel 4.  Controller 11.  Value: 93
000004t:  Control change ::  Channel 4.  Controller 11.  Value: 92
000005t:  Control change ::  Channel 4.  Controller 11.  Value: 91
000009t:  Control change ::  Channel 4.  Controller 11.  Value: 90
000025t:  Pitch wheel change ::  Channel 4.   -8192
000001t:  Note on ::  Channel 4.  Note 46.  Velocity 0
000001t:  Note on ::  Channel 4.  Note 58.  Velocity 0
000000t:  Note on ::  Channel 4.  Note 61.  Velocity 0
000000t:  Note on ::  Channel 4.  Note 53.  Velocity 0
000000t:  Note on ::  Channel 4.  Note 70.  Velocity 0
000000t:  Note on ::  Channel 4.  Note 65.  Velocity 0
000000t:  Pitch wheel change ::  Channel 4.   -8192
000002t:  Control change ::  Channel 4.  Controller 11.  Value: 120
000000t:  Note on ::  Channel 4.  Note 42.  Velocity 70
000001t:  Note on ::  Channel 4.  Note 42.  Velocity 0
000000t:  Pitch wheel change ::  Channel 4.   -8192
000000t:  Note on ::  Channel 4.  Note 42.  Velocity 80
000000t:  Control change ::  Channel 4.  Controller 11.  Value: 117
000001t:  Note on ::  Channel 4.  Note 49.  Velocity 83
000000t:  Control change ::  Channel 4.  Controller 11.  Value: 115
000001t:  Note on ::  Channel 4.  Note 54.  Velocity 87
000000t:  Control change ::  Channel 4.  Controller 11.  Value: 113
000001t:  Note on ::  Channel 4.  Note 58.  Velocity 92
000000t:  Control change ::  Channel 4.  Controller 11.  Value: 111
000001t:  Note on ::  Channel 4.  Note 61.  Velocity 98
000000t:  Note on ::  Channel 4.  Note 66.  Velocity 105
000000t:  Control change ::  Channel 4.  Controller 11.  Value: 109
000001t:  Control change ::  Channel 4.  Controller 11.  Value: 108
000001t:  Control change ::  Channel 4.  Controller 11.  Value: 106
000001t:  Control change ::  Channel 4.  Controller 11.  Value: 105
000001t:  Control change ::  Channel 4.  Controller 11.  Value: 104
000001t:  Control change ::  Channel 4.  Controller 11.  Value: 103
000001t:  Control change ::  Channel 4.  Controller 11.  Value: 102
000001t:  Control change ::  Channel 4.  Controller 11.  Value: 101
000001t:  Control change ::  Channel 4.  Controller 11.  Value: 100
000001t:  Control change ::  Channel 4.  Controller 11.  Value: 99
000002t:  Control change ::  Channel 4.  Controller 11.  Value: 98
000001t:  Control change ::  Channel 4.  Controller 11.  Value: 97
000002t:  Control change ::  Channel 4.  Controller 11.  Value: 96
000001t:  Control change ::  Channel 4.  Controller 11.  Value: 95
000003t:  Control change ::  Channel 4.  Controller 11.  Value: 94
000002t:  Control change ::  Channel 4.  Controller 11.  Value: 93
000004t:  Control change ::  Channel 4.  Controller 11.  Value: 92
000005t:  Control change ::  Channel 4.  Controller 11.  Value: 91
000009t:  Control change ::  Channel 4.  Controller 11.  Value: 90
000025t:  Pitch wheel change ::  Channel 4.   -8192
000001t:  Note on ::  Channel 4.  Note 66.  Velocity 0
000000t:  Note on ::  Channel 4.  Note 49.  Velocity 0
000000t:  Note on ::  Channel 4.  Note 54.  Velocity 0
000000t:  Note on ::  Channel 4.  Note 42.  Velocity 0
000000t:  Note on ::  Channel 4.  Note 61.  Velocity 0
000000t:  Note on ::  Channel 4.  Note 58.  Velocity 0
000001t:  Pitch wheel change ::  Channel 4.   -8192
000002t:  Note on ::  Channel 4.  Note 41.  Velocity 72
000001t:  Note on ::  Channel 4.  Note 41.  Velocity 0
000000t:  Pitch wheel change ::  Channel 4.   -8192
000000t:  Control change ::  Channel 4.  Controller 11.  Value: 120
000000t:  Note on ::  Channel 4.  Note 41.  Velocity 82
000001t:  Note on ::  Channel 4.  Note 49.  Velocity 86
000000t:  Control change ::  Channel 4.  Controller 11.  Value: 116
000001t:  Note on ::  Channel 4.  Note 56.  Velocity 91
000000t:  Control change ::  Channel 4.  Controller 11.  Value: 113
000001t:  Note on ::  Channel 4.  Note 61.  Velocity 98
000000t:  Note on ::  Channel 4.  Note 65.  Velocity 105
000000t:  Control change ::  Channel 4.  Controller 11.  Value: 110
000001t:  Control change ::  Channel 4.  Controller 11.  Value: 108
000001t:  Control change ::  Channel 4.  Controller 11.  Value: 106
000001t:  Control change ::  Channel 4.  Controller 11.  Value: 104
000001t:  Control change ::  Channel 4.  Controller 11.  Value: 102
000001t:  Control change ::  Channel 4.  Controller 11.  Value: 101
000001t:  Control change ::  Channel 4.  Controller 11.  Value: 100
000001t:  Control change ::  Channel 4.  Controller 11.  Value: 99
000001t:  Control change ::  Channel 4.  Controller 11.  Value: 98
000001t:  Control change ::  Channel 4.  Controller 11.  Value: 97
000001t:  Control change ::  Channel 4.  Controller 11.  Value: 96
000001t:  Control change ::  Channel 4.  Controller 11.  Value: 95
000002t:  Control change ::  Channel 4.  Controller 11.  Value: 94
000001t:  Control change ::  Channel 4.  Controller 11.  Value: 93
000003t:  Control change ::  Channel 4.  Controller 11.  Value: 92
000003t:  Control change ::  Channel 4.  Controller 11.  Value: 91
000006t:  Control change ::  Channel 4.  Controller 11.  Value: 90
000002t:  Note on ::  Channel 4.  Note 65.  Velocity 0
000000t:  Note on ::  Channel 4.  Note 56.  Velocity 0
000000t:  Note on ::  Channel 4.  Note 61.  Velocity 0
000000t:  Note on ::  Channel 4.  Note 49.  Velocity 0
000001t:  Note on ::  Channel 4.  Note 41.  Velocity 0
000015t:  Control change ::  Channel 4.  Controller 11.  Value: 120
000000t:  Note on ::  Channel 4.  Note 42.  Velocity 80
000001t:  Note on ::  Channel 4.  Note 49.  Velocity 83
000000t:  Control change ::  Channel 4.  Controller 11.  Value: 113
000001t:  Note on ::  Channel 4.  Note 54.  Velocity 87
000000t:  Control change ::  Channel 4.  Controller 11.  Value: 108
000001t:  Note on ::  Channel 4.  Note 58.  Velocity 92
000000t:  Control change ::  Channel 4.  Controller 11.  Value: 105
000001t:  Note on ::  Channel 4.  Note 61.  Velocity 98
000000t:  Note on ::  Channel 4.  Note 66.  Velocity 105
000000t:  Control change ::  Channel 4.  Controller 11.  Value: 101
000001t:  Control change ::  Channel 4.  Controller 11.  Value: 99
000001t:  Control change ::  Channel 4.  Controller 11.  Value: 97
000001t:  Control change ::  Channel 4.  Controller 11.  Value: 95
000001t:  Control change ::  Channel 4.  Controller 11.  Value: 94
000001t:  Control change ::  Channel 4.  Controller 11.  Value: 93
000001t:  Control change ::  Channel 4.  Controller 11.  Value: 92
000002t:  Control change ::  Channel 4.  Controller 11.  Value: 91
000003t:  Control change ::  Channel 4.  Controller 11.  Value: 90
000006t:  Note on ::  Channel 4.  Note 49.  Velocity 0
000001t:  Note on ::  Channel 4.  Note 61.  Velocity 0
000000t:  Note on ::  Channel 4.  Note 42.  Velocity 0
000000t:  Note on ::  Channel 4.  Note 66.  Velocity 0
000001t:  Note on ::  Channel 4.  Note 58.  Velocity 0
000000t:  Note on ::  Channel 4.  Note 54.  Velocity 0
000001t:  Control change ::  Channel 4.  Controller 11.  Value: 120
000000t:  Note on ::  Channel 4.  Note 42.  Velocity 80
000001t:  Note on ::  Channel 4.  Note 49.  Velocity 83
000000t:  Control change ::  Channel 4.  Controller 11.  Value: 117
000001t:  Note on ::  Channel 4.  Note 54.  Velocity 87
000000t:  Control change ::  Channel 4.  Controller 11.  Value: 115
000001t:  Note on ::  Channel 4.  Note 58.  Velocity 92
000000t:  Control change ::  Channel 4.  Controller 11.  Value: 114
000001t:  Note on ::  Channel 4.  Note 61.  Velocity 98
000000t:  Note on ::  Channel 4.  Note 66.  Velocity 105
000000t:  Control change ::  Channel 4.  Controller 11.  Value: 112
000001t:  Control change ::  Channel 4.  Controller 11.  Value: 111
000001t:  Control change ::  Channel 4.  Controller 11.  Value: 109
000001t:  Control change ::  Channel 4.  Controller 11.  Value: 108
000001t:  Control change ::  Channel 4.  Controller 11.  Value: 106
000001t:  Control change ::  Channel 4.  Controller 11.  Value: 105
000002t:  Control change ::  Channel 4.  Controller 11.  Value: 103
000001t:  Control change ::  Channel 4.  Controller 11.  Value: 102
000002t:  Control change ::  Channel 4.  Controller 11.  Value: 101
000001t:  Control change ::  Channel 4.  Controller 11.  Value: 100
000001t:  Control change ::  Channel 4.  Controller 11.  Value: 99
000002t:  Control change ::  Channel 4.  Controller 11.  Value: 98
000001t:  Control change ::  Channel 4.  Controller 11.  Value: 97
000002t:  Control change ::  Channel 4.  Controller 11.  Value: 96
000002t:  Control change ::  Channel 4.  Controller 11.  Value: 95
000003t:  Control change ::  Channel 4.  Controller 11.  Value: 94
000003t:  Control change ::  Channel 4.  Controller 11.  Value: 93
000004t:  Control change ::  Channel 4.  Controller 11.  Value: 92
000006t:  Control change ::  Channel 4.  Controller 11.  Value: 91
000010t:  Control change ::  Channel 4.  Controller 11.  Value: 90
000333t:  Note on ::  Channel 4.  Note 42.  Velocity 0
000001t:  Note on ::  Channel 4.  Note 49.  Velocity 0
000001t:  Note on ::  Channel 4.  Note 54.  Velocity 0
000000t:  Control change ::  Channel 4.  Controller 7.  Value: 85
000001t:  Note on ::  Channel 4.  Note 58.  Velocity 0
000001t:  Note on ::  Channel 4.  Note 61.  Velocity 0
000000t:  Note on ::  Channel 4.  Note 66.  Velocity 0
000000t:  Program (patch) change ::  Channel 4.  Patch 29 (Overdriven Guitar)
000024t:  Note on ::  Channel 4.  Note 56.  Velocity 80
000009t:  Note on ::  Channel 4.  Note 56.  Velocity 0
000015t:  Note on ::  Channel 4.  Note 61.  Velocity 80
000009t:  Note on ::  Channel 4.  Note 61.  Velocity 0
000015t:  Note on ::  Channel 4.  Note 65.  Velocity 83
000009t:  Note on ::  Channel 4.  Note 65.  Velocity 0
000039t:  Note on ::  Channel 4.  Note 56.  Velocity 80
000009t:  Note on ::  Channel 4.  Note 56.  Velocity 0
000015t:  Note on ::  Channel 4.  Note 60.  Velocity 80
000009t:  Note on ::  Channel 4.  Note 60.  Velocity 0
000015t:  Note on ::  Channel 4.  Note 63.  Velocity 83
000009t:  Note on ::  Channel 4.  Note 63.  Velocity 0
000039t:  Note on ::  Channel 4.  Note 54.  Velocity 80
000009t:  Note on ::  Channel 4.  Note 54.  Velocity 0
000015t:  Note on ::  Channel 4.  Note 58.  Velocity 80
000009t:  Note on ::  Channel 4.  Note 58.  Velocity 0
000015t:  Note on ::  Channel 4.  Note 61.  Velocity 83
000009t:  Note on ::  Channel 4.  Note 61.  Velocity 0
000039t:  Note on ::  Channel 4.  Note 56.  Velocity 80
000009t:  Note on ::  Channel 4.  Note 56.  Velocity 0
000015t:  Note on ::  Channel 4.  Note 60.  Velocity 80
000009t:  Note on ::  Channel 4.  Note 60.  Velocity 0
000015t:  Note on ::  Channel 4.  Note 63.  Velocity 83
000009t:  Note on ::  Channel 4.  Note 63.  Velocity 0
000039t:  Note on ::  Channel 4.  Note 56.  Velocity 82
000009t:  Note on ::  Channel 4.  Note 56.  Velocity 0
000015t:  Note on ::  Channel 4.  Note 61.  Velocity 80
000009t:  Note on ::  Channel 4.  Note 61.  Velocity 0
000015t:  Note on ::  Channel 4.  Note 65.  Velocity 84
000009t:  Note on ::  Channel 4.  Note 65.  Velocity 0
000039t:  Note on ::  Channel 4.  Note 56.  Velocity 80
000009t:  Note on ::  Channel 4.  Note 56.  Velocity 0
000015t:  Note on ::  Channel 4.  Note 60.  Velocity 80
000009t:  Note on ::  Channel 4.  Note 60.  Velocity 0
000015t:  Note on ::  Channel 4.  Note 63.  Velocity 84
000009t:  Note on ::  Channel 4.  Note 63.  Velocity 0
000039t:  Note on ::  Channel 4.  Note 58.  Velocity 80
000009t:  Note on ::  Channel 4.  Note 58.  Velocity 0
000015t:  Note on ::  Channel 4.  Note 61.  Velocity 80
000009t:  Note on ::  Channel 4.  Note 61.  Velocity 0
000015t:  Note on ::  Channel 4.  Note 65.  Velocity 84
000009t:  Note on ::  Channel 4.  Note 65.  Velocity 0
000039t:  Note on ::  Channel 4.  Note 58.  Velocity 80
000009t:  Note on ::  Channel 4.  Note 58.  Velocity 0
000015t:  Note on ::  Channel 4.  Note 61.  Velocity 80
000009t:  Note on ::  Channel 4.  Note 61.  Velocity 0
000015t:  Note on ::  Channel 4.  Note 66.  Velocity 85
000009t:  Note on ::  Channel 4.  Note 66.  Velocity 0
000039t:  Note on ::  Channel 4.  Note 61.  Velocity 80
000009t:  Note on ::  Channel 4.  Note 61.  Velocity 0
000015t:  Note on ::  Channel 4.  Note 65.  Velocity 80
000009t:  Note on ::  Channel 4.  Note 65.  Velocity 0
000015t:  Note on ::  Channel 4.  Note 68.  Velocity 87
000007t:  Note on ::  Channel 4.  Note 68.  Velocity 0
000041t:  Note on ::  Channel 4.  Note 60.  Velocity 83
000001t:  Note on ::  Channel 4.  Note 65.  Velocity 80
000007t:  Note on ::  Channel 4.  Note 60.  Velocity 0
000002t:  Note on ::  Channel 4.  Note 65.  Velocity 0
000014t:  Note on ::  Channel 4.  Note 65.  Velocity 80
000001t:  Note on ::  Channel 4.  Note 68.  Velocity 83
000007t:  Note on ::  Channel 4.  Note 68.  Velocity 0
000001t:  Note on ::  Channel 4.  Note 65.  Velocity 0
000015t:  Note on ::  Channel 4.  Note 68.  Velocity 87
000001t:  Note on ::  Channel 4.  Note 72.  Velocity 84
000007t:  Note on ::  Channel 4.  Note 72.  Velocity 0
000001t:  Note on ::  Channel 4.  Note 68.  Velocity 0
000038t:  Note on ::  Channel 4.  Note 58.  Velocity 80
000001t:  Note on ::  Channel 4.  Note 65.  Velocity 78
000008t:  Note on ::  Channel 4.  Note 58.  Velocity 0
000001t:  Note on ::  Channel 4.  Note 65.  Velocity 0
000014t:  Note on ::  Channel 4.  Note 61.  Velocity 80
000001t:  Note on ::  Channel 4.  Note 70.  Velocity 79
000008t:  Note on ::  Channel 4.  Note 61.  Velocity 0
000001t:  Note on ::  Channel 4.  Note 70.  Velocity 0
000014t:  Note on ::  Channel 4.  Note 65.  Velocity 84
000001t:  Note on ::  Channel 4.  Note 73.  Velocity 82
000008t:  Note on ::  Channel 4.  Note 65.  Velocity 0
000001t:  Note on ::  Channel 4.  Note 73.  Velocity 0
000038t:  Note on ::  Channel 4.  Note 58.  Velocity 82
000001t:  Note on ::  Channel 4.  Note 73.  Velocity 84
000008t:  Note on ::  Channel 4.  Note 58.  Velocity 0
000001t:  Note on ::  Channel 4.  Note 73.  Velocity 0
000014t:  Note on ::  Channel 4.  Note 61.  Velocity 81
000001t:  Note on ::  Channel 4.  Note 70.  Velocity 80
000008t:  Note on ::  Channel 4.  Note 61.  Velocity 0
000001t:  Note on ::  Channel 4.  Note 70.  Velocity 0
000034t:  Program (patch) change ::  Channel 4.  Patch 30 (Distortion Guitar)
000002t:  Control change ::  Channel 4.  Controller 11.  Value: 120
000000t:  Note on ::  Channel 4.  Note 44.  Velocity 90
000001t:  Note on ::  Channel 4.  Note 51.  Velocity 94
000000t:  Control change ::  Channel 4.  Controller 11.  Value: 117
000001t:  Note on ::  Channel 4.  Note 56.  Velocity 99
000000t:  Note on ::  Channel 4.  Note 61.  Velocity 106
000000t:  Control change ::  Channel 4.  Controller 11.  Value: 115
000001t:  Control change ::  Channel 4.  Controller 11.  Value: 114
000001t:  Control change ::  Channel 4.  Controller 11.  Value: 112
000001t:  Control change ::  Channel 4.  Controller 11.  Value: 111
000001t:  Control change ::  Channel 4.  Controller 11.  Value: 109
000001t:  Control change ::  Channel 4.  Controller 11.  Value: 108
000001t:  Control change ::  Channel 4.  Controller 11.  Value: 107
000001t:  Control change ::  Channel 4.  Controller 11.  Value: 106
000001t:  Control change ::  Channel 4.  Controller 11.  Value: 105
000001t:  Control change ::  Channel 4.  Controller 11.  Value: 104
000001t:  Control change ::  Channel 4.  Controller 11.  Value: 103
000001t:  Control change ::  Channel 4.  Controller 11.  Value: 102
000001t:  Control change ::  Channel 4.  Controller 11.  Value: 101
000002t:  Control change ::  Channel 4.  Controller 11.  Value: 100
000001t:  Control change ::  Channel 4.  Controller 11.  Value: 99
000002t:  Control change ::  Channel 4.  Controller 11.  Value: 98
000001t:  Control change ::  Channel 4.  Controller 11.  Value: 97
000002t:  Control change ::  Channel 4.  Controller 11.  Value: 96
000003t:  Control change ::  Channel 4.  Controller 11.  Value: 95
000003t:  Control change ::  Channel 4.  Controller 11.  Value: 94
000003t:  Control change ::  Channel 4.  Controller 11.  Value: 93
000004t:  Control change ::  Channel 4.  Controller 11.  Value: 92
000006t:  Control change ::  Channel 4.  Controller 11.  Value: 91
000011t:  Control change ::  Channel 4.  Controller 11.  Value: 90
000138t:  Note on ::  Channel 4.  Note 44.  Velocity 0
000001t:  Note on ::  Channel 4.  Note 51.  Velocity 0
000001t:  Note on ::  Channel 4.  Note 56.  Velocity 0
000000t:  Note on ::  Channel 4.  Note 61.  Velocity 0
000000t:  Control change ::  Channel 4.  Controller 11.  Value: 120
000000t:  Note on ::  Channel 4.  Note 44.  Velocity 90
000001t:  Note on ::  Channel 4.  Note 51.  Velocity 94
000000t:  Control change ::  Channel 4.  Controller 11.  Value: 118
000001t:  Note on ::  Channel 4.  Note 56.  Velocity 99
000000t:  Note on ::  Channel 4.  Note 60.  Velocity 106
000000t:  Control change ::  Channel 4.  Controller 11.  Value: 116
000001t:  Control change ::  Channel 4.  Controller 11.  Value: 114
000001t:  Control change ::  Channel 4.  Controller 11.  Value: 113
000001t:  Control change ::  Channel 4.  Controller 11.  Value: 111
000001t:  Control change ::  Channel 4.  Controller 11.  Value: 110
000001t:  Control change ::  Channel 4.  Controller 11.  Value: 108
000001t:  Control change ::  Channel 4.  Controller 11.  Value: 107
000001t:  Control change ::  Channel 4.  Controller 11.  Value: 106
000001t:  Control change ::  Channel 4.  Controller 11.  Value: 105
000001t:  Control change ::  Channel 4.  Controller 11.  Value: 104
000001t:  Control change ::  Channel 4.  Controller 11.  Value: 103
000001t:  Control change ::  Channel 4.  Controller 11.  Value: 102
000002t:  Control change ::  Channel 4.  Controller 11.  Value: 101
000001t:  Control change ::  Channel 4.  Controller 11.  Value: 100
000001t:  Control change ::  Channel 4.  Controller 11.  Value: 99
000002t:  Control change ::  Channel 4.  Controller 11.  Value: 98
000002t:  Control change ::  Channel 4.  Controller 11.  Value: 97
000002t:  Control change ::  Channel 4.  Controller 11.  Value: 96
000002t:  Control change ::  Channel 4.  Controller 11.  Value: 95
000003t:  Control change ::  Channel 4.  Controller 11.  Value: 94
000003t:  Control change ::  Channel 4.  Controller 11.  Value: 93
000005t:  Control change ::  Channel 4.  Controller 11.  Value: 92
000005t:  Control change ::  Channel 4.  Controller 11.  Value: 91
000011t:  Control change ::  Channel 4.  Controller 11.  Value: 90
000138t:  Note on ::  Channel 4.  Note 44.  Velocity 0
000000t:  Control change ::  Channel 4.  Controller 7.  Value: 71
000001t:  Note on ::  Channel 4.  Note 51.  Velocity 0
000001t:  Note on ::  Channel 4.  Note 56.  Velocity 0
000000t:  Note on ::  Channel 4.  Note 60.  Velocity 0
000000t:  Control change ::  Channel 4.  Controller 11.  Value: 120
000000t:  Note on ::  Channel 4.  Note 44.  Velocity 80
000001t:  Note on ::  Channel 4.  Note 51.  Velocity 83
000000t:  Control change ::  Channel 4.  Controller 11.  Value: 117
000001t:  Note on ::  Channel 4.  Note 56.  Velocity 87
000000t:  Control change ::  Channel 4.  Controller 11.  Value: 115
000001t:  Note on ::  Channel 4.  Note 60.  Velocity 92
000000t:  Control change ::  Channel 4.  Controller 11.  Value: 113
000001t:  Note on ::  Channel 4.  Note 63.  Velocity 98
000000t:  Note on ::  Channel 4.  Note 68.  Velocity 105
000000t:  Control change ::  Channel 4.  Controller 11.  Value: 111
000001t:  Control change ::  Channel 4.  Controller 11.  Value: 109
000001t:  Control change ::  Channel 4.  Controller 11.  Value: 108
000001t:  Control change ::  Channel 4.  Controller 11.  Value: 106
000001t:  Control change ::  Channel 4.  Controller 11.  Value: 105
000001t:  Control change ::  Channel 4.  Controller 11.  Value: 104
000001t:  Control change ::  Channel 4.  Controller 11.  Value: 103
000001t:  Control change ::  Channel 4.  Controller 11.  Value: 102
000001t:  Control change ::  Channel 4.  Controller 11.  Value: 101
000001t:  Control change ::  Channel 4.  Controller 11.  Value: 100
000001t:  Control change ::  Channel 4.  Controller 11.  Value: 99
000002t:  Control change ::  Channel 4.  Controller 11.  Value: 98
000001t:  Control change ::  Channel 4.  Controller 11.  Value: 97
000002t:  Control change ::  Channel 4.  Controller 11.  Value: 96
000001t:  Control change ::  Channel 4.  Controller 11.  Value: 95
000003t:  Control change ::  Channel 4.  Controller 11.  Value: 94
000002t:  Control change ::  Channel 4.  Controller 11.  Value: 93
000004t:  Control change ::  Channel 4.  Controller 11.  Value: 92
000005t:  Control change ::  Channel 4.  Controller 11.  Value: 91
000009t:  Control change ::  Channel 4.  Controller 11.  Value: 90
000025t:  Pitch wheel change ::  Channel 4.   -8192
000003t:  Note on ::  Channel 4.  Note 51.  Velocity 0
000000t:  Note on ::  Channel 4.  Note 44.  Velocity 0
000000t:  Pitch wheel change ::  Channel 4.   -8192
000001t:  Note on ::  Channel 4.  Note 63.  Velocity 0
000000t:  Note on ::  Channel 4.  Note 60.  Velocity 0
000000t:  Note on ::  Channel 4.  Note 68.  Velocity 0
000000t:  Note on ::  Channel 4.  Note 56.  Velocity 0
000002t:  Control change ::  Channel 4.  Controller 11.  Value: 120
000000t:  Note on ::  Channel 4.  Note 46.  Velocity 80
000000t:  Pitch wheel change ::  Channel 4.   -8192
000001t:  Note on ::  Channel 4.  Note 53.  Velocity 83
000000t:  Control change ::  Channel 4.  Controller 11.  Value: 117
000001t:  Note on ::  Channel 4.  Note 58.  Velocity 87
000000t:  Control change ::  Channel 4.  Controller 11.  Value: 115
000001t:  Note on ::  Channel 4.  Note 61.  Velocity 92
000000t:  Control change ::  Channel 4.  Controller 11.  Value: 113
000001t:  Note on ::  Channel 4.  Note 65.  Velocity 98
000000t:  Note on ::  Channel 4.  Note 70.  Velocity 105
000000t:  Control change ::  Channel 4.  Controller 11.  Value: 111
000001t:  Control change ::  Channel 4.  Controller 11.  Value: 109
000001t:  Control change ::  Channel 4.  Controller 11.  Value: 108
000001t:  Control change ::  Channel 4.  Controller 11.  Value: 106
000001t:  Control change ::  Channel 4.  Controller 11.  Value: 105
000001t:  Control change ::  Channel 4.  Controller 11.  Value: 104
000001t:  Control change ::  Channel 4.  Controller 11.  Value: 103
000001t:  Control change ::  Channel 4.  Controller 11.  Value: 102
000001t:  Control change ::  Channel 4.  Controller 11.  Value: 101
000001t:  Control change ::  Channel 4.  Controller 11.  Value: 100
000001t:  Control change ::  Channel 4.  Controller 11.  Value: 99
000002t:  Control change ::  Channel 4.  Controller 11.  Value: 98
000001t:  Control change ::  Channel 4.  Controller 11.  Value: 97
000002t:  Control change ::  Channel 4.  Controller 11.  Value: 96
000001t:  Control change ::  Channel 4.  Controller 11.  Value: 95
000003t:  Control change ::  Channel 4.  Controller 11.  Value: 94
000002t:  Control change ::  Channel 4.  Controller 11.  Value: 93
000004t:  Control change ::  Channel 4.  Controller 11.  Value: 92
000005t:  Control change ::  Channel 4.  Controller 11.  Value: 91
000009t:  Control change ::  Channel 4.  Controller 11.  Value: 90
000024t:  Note on ::  Channel 4.  Note 46.  Velocity 0
000000t:  Pitch wheel change ::  Channel 4.   -8192
000001t:  Note on ::  Channel 4.  Note 58.  Velocity 0
000000t:  Note on ::  Channel 4.  Note 61.  Velocity 0
000000t:  Note on ::  Channel 4.  Note 65.  Velocity 0
000000t:  Note on ::  Channel 4.  Note 70.  Velocity 0
000001t:  Note on ::  Channel 4.  Note 53.  Velocity 0
000000t:  Pitch wheel change ::  Channel 4.   -8192
000002t:  Control change ::  Channel 4.  Controller 11.  Value: 120
000000t:  Note on ::  Channel 4.  Note 42.  Velocity 80
000000t:  Pitch wheel change ::  Channel 4.   -8192
000001t:  Note on ::  Channel 4.  Note 49.  Velocity 83
000000t:  Control change ::  Channel 4.  Controller 11.  Value: 117
000001t:  Note on ::  Channel 4.  Note 54.  Velocity 87
000000t:  Control change ::  Channel 4.  Controller 11.  Value: 115
000001t:  Note on ::  Channel 4.  Note 58.  Velocity 92
000000t:  Control change ::  Channel 4.  Controller 11.  Value: 113
000001t:  Note on ::  Channel 4.  Note 61.  Velocity 98
000000t:  Note on ::  Channel 4.  Note 66.  Velocity 105
000000t:  Control change ::  Channel 4.  Controller 11.  Value: 111
000001t:  Control change ::  Channel 4.  Controller 11.  Value: 109
000001t:  Control change ::  Channel 4.  Controller 11.  Value: 108
000001t:  Control change ::  Channel 4.  Controller 11.  Value: 106
000001t:  Control change ::  Channel 4.  Controller 11.  Value: 105
000001t:  Control change ::  Channel 4.  Controller 11.  Value: 104
000001t:  Control change ::  Channel 4.  Controller 11.  Value: 103
000001t:  Control change ::  Channel 4.  Controller 11.  Value: 102
000001t:  Control change ::  Channel 4.  Controller 11.  Value: 101
000001t:  Control change ::  Channel 4.  Controller 11.  Value: 100
000001t:  Control change ::  Channel 4.  Controller 11.  Value: 99
000002t:  Control change ::  Channel 4.  Controller 11.  Value: 98
000001t:  Control change ::  Channel 4.  Controller 11.  Value: 97
000002t:  Control change ::  Channel 4.  Controller 11.  Value: 96
000001t:  Control change ::  Channel 4.  Controller 11.  Value: 95
000003t:  Control change ::  Channel 4.  Controller 11.  Value: 94
000002t:  Control change ::  Channel 4.  Controller 11.  Value: 93
000004t:  Control change ::  Channel 4.  Controller 11.  Value: 92
000005t:  Control change ::  Channel 4.  Controller 11.  Value: 91
000009t:  Control change ::  Channel 4.  Controller 11.  Value: 90
000023t:  Note on ::  Channel 4.  Note 66.  Velocity 0
000000t:  Note on ::  Channel 4.  Note 49.  Velocity 0
000000t:  Note on ::  Channel 4.  Note 54.  Velocity 0
000000t:  Note on ::  Channel 4.  Note 58.  Velocity 0
000000t:  Pitch wheel change ::  Channel 4.   -8192
000001t:  Note on ::  Channel 4.  Note 42.  Velocity 0
000000t:  Note on ::  Channel 4.  Note 61.  Velocity 0
000001t:  Pitch wheel change ::  Channel 4.   -8192
000002t:  Control change ::  Channel 4.  Controller 11.  Value: 120
000000t:  Note on ::  Channel 4.  Note 44.  Velocity 80
000000t:  Pitch wheel change ::  Channel 4.   -8192
000001t:  Note on ::  Channel 4.  Note 51.  Velocity 83
000000t:  Control change ::  Channel 4.  Controller 11.  Value: 116
000001t:  Note on ::  Channel 4.  Note 56.  Velocity 87
000000t:  Control change ::  Channel 4.  Controller 11.  Value: 113
000001t:  Note on ::  Channel 4.  Note 60.  Velocity 92
000000t:  Control change ::  Channel 4.  Controller 11.  Value: 111
000001t:  Note on ::  Channel 4.  Note 63.  Velocity 98
000000t:  Note on ::  Channel 4.  Note 68.  Velocity 105
000000t:  Control change ::  Channel 4.  Controller 11.  Value: 108
000001t:  Control change ::  Channel 4.  Controller 11.  Value: 106
000001t:  Control change ::  Channel 4.  Controller 11.  Value: 105
000001t:  Control change ::  Channel 4.  Controller 11.  Value: 103
000001t:  Control change ::  Channel 4.  Controller 11.  Value: 101
000001t:  Control change ::  Channel 4.  Controller 11.  Value: 100
000001t:  Control change ::  Channel 4.  Controller 11.  Value: 99
000001t:  Control change ::  Channel 4.  Controller 11.  Value: 98
000001t:  Control change ::  Channel 4.  Controller 11.  Value: 97
000001t:  Control change ::  Channel 4.  Controller 11.  Value: 96
000001t:  Control change ::  Channel 4.  Controller 11.  Value: 95
000002t:  Control change ::  Channel 4.  Controller 11.  Value: 94
000002t:  Control change ::  Channel 4.  Controller 11.  Value: 93
000002t:  Control change ::  Channel 4.  Controller 11.  Value: 92
000003t:  Control change ::  Channel 4.  Controller 11.  Value: 91
000006t:  Control change ::  Channel 4.  Controller 11.  Value: 90
000003t:  Note on ::  Channel 4.  Note 44.  Velocity 0
000001t:  Note on ::  Channel 4.  Note 51.  Velocity 0
000000t:  Note on ::  Channel 4.  Note 56.  Velocity 0
000001t:  Note on ::  Channel 4.  Note 60.  Velocity 0
000000t:  Note on ::  Channel 4.  Note 68.  Velocity 0
000009t:  Note on ::  Channel 4.  Note 63.  Velocity 0
000003t:  Pitch wheel change ::  Channel 4.   -8192
000001t:  Pitch wheel change ::  Channel 4.   -8192
000001t:  Control change ::  Channel 4.  Controller 11.  Value: 120
000000t:  Note on ::  Channel 4.  Note 49.  Velocity 80
000001t:  Note on ::  Channel 4.  Note 49.  Velocity 0
000000t:  Pitch wheel change ::  Channel 4.   -8192
000000t:  Note on ::  Channel 4.  Note 49.  Velocity 90
000000t:  Control change ::  Channel 4.  Controller 11.  Value: 113
000001t:  Note on ::  Channel 4.  Note 56.  Velocity 94
000000t:  Control change ::  Channel 4.  Controller 11.  Value: 108
000001t:  Note on ::  Channel 4.  Note 61.  Velocity 98
000000t:  Note on ::  Channel 4.  Note 65.  Velocity 105
000000t:  Control change ::  Channel 4.  Controller 11.  Value: 105
000001t:  Control change ::  Channel 4.  Controller 11.  Value: 102
000001t:  Control change ::  Channel 4.  Controller 11.  Value: 99
000001t:  Control change ::  Channel 4.  Controller 11.  Value: 97
000001t:  Control change ::  Channel 4.  Controller 11.  Value: 96
000001t:  Control change ::  Channel 4.  Controller 11.  Value: 95
000001t:  Control change ::  Channel 4.  Controller 11.  Value: 93
000002t:  Control change ::  Channel 4.  Controller 11.  Value: 92
000001t:  Control change ::  Channel 4.  Controller 11.  Value: 91
000004t:  Control change ::  Channel 4.  Controller 11.  Value: 90
000005t:  Note on ::  Channel 4.  Note 65.  Velocity 0
000000t:  Note on ::  Channel 4.  Note 61.  Velocity 0
000001t:  Note on ::  Channel 4.  Note 56.  Velocity 0
000000t:  Note on ::  Channel 4.  Note 49.  Velocity 0
000003t:  Control change ::  Channel 4.  Controller 11.  Value: 120
000000t:  Note on ::  Channel 4.  Note 49.  Velocity 94
000001t:  Note on ::  Channel 4.  Note 56.  Velocity 97
000000t:  Control change ::  Channel 4.  Controller 11.  Value: 117
000001t:  Note on ::  Channel 4.  Note 61.  Velocity 101
000000t:  Note on ::  Channel 4.  Note 85.  Velocity 22
000000t:  Note on ::  Channel 4.  Note 65.  Velocity 106
000000t:  Control change ::  Channel 4.  Controller 11.  Value: 115
000001t:  Control change ::  Channel 4.  Controller 11.  Value: 114
000001t:  Control change ::  Channel 4.  Controller 11.  Value: 112
000001t:  Control change ::  Channel 4.  Controller 11.  Value: 111
000001t:  Control change ::  Channel 4.  Controller 11.  Value: 109
000001t:  Control change ::  Channel 4.  Controller 11.  Value: 108
000001t:  Control change ::  Channel 4.  Controller 11.  Value: 107
000001t:  Control change ::  Channel 4.  Controller 11.  Value: 106
000001t:  Control change ::  Channel 4.  Controller 11.  Value: 105
000001t:  Control change ::  Channel 4.  Controller 11.  Value: 104
000001t:  Control change ::  Channel 4.  Controller 11.  Value: 103
000001t:  Control change ::  Channel 4.  Controller 11.  Value: 102
000001t:  Control change ::  Channel 4.  Controller 11.  Value: 101
000001t:  Control change ::  Channel 4.  Controller 11.  Value: 100
000002t:  Control change ::  Channel 4.  Controller 11.  Value: 99
000001t:  Control change ::  Channel 4.  Controller 11.  Value: 98
000002t:  Control change ::  Channel 4.  Controller 11.  Value: 97
000002t:  Control change ::  Channel 4.  Controller 11.  Value: 96
000002t:  Control change ::  Channel 4.  Controller 11.  Value: 95
000003t:  Control change ::  Channel 4.  Controller 11.  Value: 94
000003t:  Control change ::  Channel 4.  Controller 11.  Value: 93
000005t:  Control change ::  Channel 4.  Controller 11.  Value: 92
000005t:  Control change ::  Channel 4.  Controller 11.  Value: 91
000010t:  Control change ::  Channel 4.  Controller 11.  Value: 90
000124t:  Note on ::  Channel 4.  Note 56.  Velocity 0
000006t:  Note on ::  Channel 4.  Note 65.  Velocity 0
000006t:  Note on ::  Channel 4.  Note 49.  Velocity 0
000006t:  Note on ::  Channel 4.  Note 61.  Velocity 0
000000t:  Note on ::  Channel 4.  Note 85.  Velocity 0
000000t:  Control change ::  Channel 4.  Controller 11.  Value: 120
000000t:  Note on ::  Channel 4.  Note 44.  Velocity 80
000001t:  Note on ::  Channel 4.  Note 51.  Velocity 83
000000t:  Control change ::  Channel 4.  Controller 11.  Value: 117
000001t:  Note on ::  Channel 4.  Note 56.  Velocity 87
000000t:  Control change ::  Channel 4.  Controller 11.  Value: 115
000001t:  Note on ::  Channel 4.  Note 60.  Velocity 92
000000t:  Control change ::  Channel 4.  Controller 11.  Value: 113
000001t:  Note on ::  Channel 4.  Note 63.  Velocity 98
000000t:  Note on ::  Channel 4.  Note 68.  Velocity 105
000000t:  Control change ::  Channel 4.  Controller 11.  Value: 111
000001t:  Control change ::  Channel 4.  Controller 11.  Value: 109
000001t:  Control change ::  Channel 4.  Controller 11.  Value: 108
000001t:  Control change ::  Channel 4.  Controller 11.  Value: 106
000001t:  Control change ::  Channel 4.  Controller 11.  Value: 105
000001t:  Control change ::  Channel 4.  Controller 11.  Value: 104
000001t:  Control change ::  Channel 4.  Controller 11.  Value: 103
000001t:  Control change ::  Channel 4.  Controller 11.  Value: 102
000001t:  Control change ::  Channel 4.  Controller 11.  Value: 101
000001t:  Control change ::  Channel 4.  Controller 11.  Value: 100
000001t:  Control change ::  Channel 4.  Controller 11.  Value: 99
000002t:  Control change ::  Channel 4.  Controller 11.  Value: 98
000001t:  Control change ::  Channel 4.  Controller 11.  Value: 97
000002t:  Control change ::  Channel 4.  Controller 11.  Value: 96
000001t:  Control change ::  Channel 4.  Controller 11.  Value: 95
000003t:  Control change ::  Channel 4.  Controller 11.  Value: 94
000002t:  Control change ::  Channel 4.  Controller 11.  Value: 93
000004t:  Control change ::  Channel 4.  Controller 11.  Value: 92
000005t:  Control change ::  Channel 4.  Controller 11.  Value: 91
000009t:  Control change ::  Channel 4.  Controller 11.  Value: 90
000023t:  Pitch wheel change ::  Channel 4.   -8192
000002t:  Note on ::  Channel 4.  Note 68.  Velocity 0
000000t:  Note on ::  Channel 4.  Note 44.  Velocity 0
000000t:  Pitch wheel change ::  Channel 4.   -8192
000001t:  Note on ::  Channel 4.  Note 60.  Velocity 0
000000t:  Note on ::  Channel 4.  Note 51.  Velocity 0
000000t:  Note on ::  Channel 4.  Note 56.  Velocity 0
000000t:  Note on ::  Channel 4.  Note 63.  Velocity 0
000003t:  Control change ::  Channel 4.  Controller 11.  Value: 120
000000t:  Note on ::  Channel 4.  Note 46.  Velocity 70
000001t:  Note on ::  Channel 4.  Note 46.  Velocity 0
000000t:  Pitch wheel change ::  Channel 4.   -8192
000000t:  Note on ::  Channel 4.  Note 46.  Velocity 80
000000t:  Control change ::  Channel 4.  Controller 11.  Value: 117
000001t:  Note on ::  Channel 4.  Note 53.  Velocity 83
000000t:  Control change ::  Channel 4.  Controller 11.  Value: 115
000001t:  Note on ::  Channel 4.  Note 58.  Velocity 87
000000t:  Control change ::  Channel 4.  Controller 11.  Value: 113
000001t:  Note on ::  Channel 4.  Note 61.  Velocity 92
000000t:  Control change ::  Channel 4.  Controller 11.  Value: 111
000001t:  Note on ::  Channel 4.  Note 65.  Velocity 98
000000t:  Note on ::  Channel 4.  Note 70.  Velocity 104
000000t:  Control change ::  Channel 4.  Controller 11.  Value: 109
000001t:  Control change ::  Channel 4.  Controller 11.  Value: 108
000001t:  Control change ::  Channel 4.  Controller 11.  Value: 106
000001t:  Control change ::  Channel 4.  Controller 11.  Value: 105
000001t:  Control change ::  Channel 4.  Controller 11.  Value: 104
000001t:  Control change ::  Channel 4.  Controller 11.  Value: 103
000001t:  Control change ::  Channel 4.  Controller 11.  Value: 102
000001t:  Control change ::  Channel 4.  Controller 11.  Value: 101
000001t:  Control change ::  Channel 4.  Controller 11.  Value: 100
000001t:  Control change ::  Channel 4.  Controller 11.  Value: 99
000002t:  Control change ::  Channel 4.  Controller 11.  Value: 98
000001t:  Control change ::  Channel 4.  Controller 11.  Value: 97
000002t:  Control change ::  Channel 4.  Controller 11.  Value: 96
000001t:  Control change ::  Channel 4.  Controller 11.  Value: 95
000003t:  Control change ::  Channel 4.  Controller 11.  Value: 94
000002t:  Control change ::  Channel 4.  Controller 11.  Value: 93
000004t:  Control change ::  Channel 4.  Controller 11.  Value: 92
000005t:  Control change ::  Channel 4.  Controller 11.  Value: 91
000009t:  Control change ::  Channel 4.  Controller 11.  Value: 90
000025t:  Pitch wheel change ::  Channel 4.   -8192
000001t:  Note on ::  Channel 4.  Note 65.  Velocity 0
000000t:  Note on ::  Channel 4.  Note 46.  Velocity 0
000001t:  Note on ::  Channel 4.  Note 61.  Velocity 0
000000t:  Note on ::  Channel 4.  Note 53.  Velocity 0
000000t:  Note on ::  Channel 4.  Note 70.  Velocity 0
000000t:  Note on ::  Channel 4.  Note 58.  Velocity 0
000000t:  Pitch wheel change ::  Channel 4.   -8192
000002t:  Note on ::  Channel 4.  Note 42.  Velocity 60
000001t:  Note on ::  Channel 4.  Note 42.  Velocity 0
000000t:  Pitch wheel change ::  Channel 4.   -8192
000000t:  Control change ::  Channel 4.  Controller 11.  Value: 120
000000t:  Note on ::  Channel 4.  Note 42.  Velocity 80
000001t:  Note on ::  Channel 4.  Note 49.  Velocity 83
000000t:  Control change ::  Channel 4.  Controller 11.  Value: 117
000001t:  Note on ::  Channel 4.  Note 54.  Velocity 87
000000t:  Control change ::  Channel 4.  Controller 11.  Value: 115
000001t:  Note on ::  Channel 4.  Note 58.  Velocity 92
000000t:  Control change ::  Channel 4.  Controller 11.  Value: 113
000001t:  Note on ::  Channel 4.  Note 61.  Velocity 98
000000t:  Note on ::  Channel 4.  Note 66.  Velocity 105
000000t:  Control change ::  Channel 4.  Controller 11.  Value: 111
000001t:  Control change ::  Channel 4.  Controller 11.  Value: 109
000001t:  Control change ::  Channel 4.  Controller 11.  Value: 108
000001t:  Control change ::  Channel 4.  Controller 11.  Value: 106
000001t:  Control change ::  Channel 4.  Controller 11.  Value: 105
000001t:  Control change ::  Channel 4.  Controller 11.  Value: 104
000001t:  Control change ::  Channel 4.  Controller 11.  Value: 103
000001t:  Control change ::  Channel 4.  Controller 11.  Value: 102
000001t:  Control change ::  Channel 4.  Controller 11.  Value: 101
000001t:  Control change ::  Channel 4.  Controller 11.  Value: 100
000001t:  Control change ::  Channel 4.  Controller 11.  Value: 99
000002t:  Control change ::  Channel 4.  Controller 11.  Value: 98
000001t:  Control change ::  Channel 4.  Controller 11.  Value: 97
000002t:  Control change ::  Channel 4.  Controller 11.  Value: 96
000001t:  Control change ::  Channel 4.  Controller 11.  Value: 95
000003t:  Control change ::  Channel 4.  Controller 11.  Value: 94
000002t:  Control change ::  Channel 4.  Controller 11.  Value: 93
000004t:  Control change ::  Channel 4.  Controller 11.  Value: 92
000005t:  Control change ::  Channel 4.  Controller 11.  Value: 91
000009t:  Control change ::  Channel 4.  Controller 11.  Value: 90
000024t:  Note on ::  Channel 4.  Note 58.  Velocity 0
000000t:  Pitch wheel change ::  Channel 4.   -8192
000001t:  Note on ::  Channel 4.  Note 42.  Velocity 0
000000t:  Note on ::  Channel 4.  Note 66.  Velocity 0
000001t:  Note on ::  Channel 4.  Note 49.  Velocity 0
000000t:  Note on ::  Channel 4.  Note 61.  Velocity 0
000000t:  Note on ::  Channel 4.  Note 54.  Velocity 0
000000t:  Pitch wheel change ::  Channel 4.   -8192
000002t:  Control change ::  Channel 4.  Controller 11.  Value: 120
000000t:  Note on ::  Channel 4.  Note 44.  Velocity 68
000001t:  Note on ::  Channel 4.  Note 44.  Velocity 0
000000t:  Pitch wheel change ::  Channel 4.   -8192
000000t:  Note on ::  Channel 4.  Note 44.  Velocity 80
000000t:  Control change ::  Channel 4.  Controller 11.  Value: 116
000001t:  Note on ::  Channel 4.  Note 51.  Velocity 83
000000t:  Control change ::  Channel 4.  Controller 11.  Value: 113
000001t:  Note on ::  Channel 4.  Note 56.  Velocity 87
000000t:  Control change ::  Channel 4.  Controller 11.  Value: 111
000001t:  Note on ::  Channel 4.  Note 60.  Velocity 92
000000t:  Control change ::  Channel 4.  Controller 11.  Value: 108
000001t:  Note on ::  Channel 4.  Note 63.  Velocity 98
000000t:  Note on ::  Channel 4.  Note 68.  Velocity 105
000000t:  Control change ::  Channel 4.  Controller 11.  Value: 106
000001t:  Control change ::  Channel 4.  Controller 11.  Value: 105
000001t:  Control change ::  Channel 4.  Controller 11.  Value: 103
000001t:  Control change ::  Channel 4.  Controller 11.  Value: 101
000001t:  Control change ::  Channel 4.  Controller 11.  Value: 100
000001t:  Control change ::  Channel 4.  Controller 11.  Value: 99
000001t:  Control change ::  Channel 4.  Controller 11.  Value: 98
000001t:  Control change ::  Channel 4.  Controller 11.  Value: 97
000001t:  Control change ::  Channel 4.  Controller 11.  Value: 96
000001t:  Control change ::  Channel 4.  Controller 11.  Value: 95
000002t:  Control change ::  Channel 4.  Controller 11.  Value: 94
000002t:  Control change ::  Channel 4.  Controller 11.  Value: 93
000002t:  Control change ::  Channel 4.  Controller 11.  Value: 92
000003t:  Control change ::  Channel 4.  Controller 11.  Value: 91
000006t:  Control change ::  Channel 4.  Controller 11.  Value: 90
000003t:  Note on ::  Channel 4.  Note 68.  Velocity 0
000000t:  Note on ::  Channel 4.  Note 51.  Velocity 0
000000t:  Note on ::  Channel 4.  Note 44.  Velocity 0
000000t:  Note on ::  Channel 4.  Note 60.  Velocity 0
000001t:  Note on ::  Channel 4.  Note 56.  Velocity 0
000000t:  Note on ::  Channel 4.  Note 63.  Velocity 0
000015t:  Control change ::  Channel 4.  Controller 11.  Value: 120
000000t:  Note on ::  Channel 4.  Note 49.  Velocity 90
000001t:  Note on ::  Channel 4.  Note 56.  Velocity 93
000000t:  Control change ::  Channel 4.  Controller 11.  Value: 113
000001t:  Note on ::  Channel 4.  Note 61.  Velocity 97
000000t:  Note on ::  Channel 4.  Note 65.  Velocity 104
000000t:  Control change ::  Channel 4.  Controller 11.  Value: 108
000001t:  Control change ::  Channel 4.  Controller 11.  Value: 105
000001t:  Control change ::  Channel 4.  Controller 11.  Value: 101
000001t:  Control change ::  Channel 4.  Controller 11.  Value: 99
000001t:  Control change ::  Channel 4.  Controller 11.  Value: 97
000001t:  Control change ::  Channel 4.  Controller 11.  Value: 95
000001t:  Control change ::  Channel 4.  Controller 11.  Value: 94
000001t:  Control change ::  Channel 4.  Controller 11.  Value: 93
000001t:  Control change ::  Channel 4.  Controller 11.  Value: 92
000002t:  Control change ::  Channel 4.  Controller 11.  Value: 91
000003t:  Control change ::  Channel 4.  Controller 11.  Value: 90
000007t:  Note on ::  Channel 4.  Note 61.  Velocity 0
000000t:  Note on ::  Channel 4.  Note 49.  Velocity 0
000000t:  Note on ::  Channel 4.  Note 56.  Velocity 0
000001t:  Note on ::  Channel 4.  Note 65.  Velocity 0
000001t:  Control change ::  Channel 4.  Controller 11.  Value: 120
000000t:  Note on ::  Channel 4.  Note 49.  Velocity 90
000001t:  Note on ::  Channel 4.  Note 56.  Velocity 93
000000t:  Control change ::  Channel 4.  Controller 11.  Value: 117
000001t:  Note on ::  Channel 4.  Note 61.  Velocity 97
000000t:  Note on ::  Channel 4.  Note 85.  Velocity 28
000000t:  Note on ::  Channel 4.  Note 65.  Velocity 104
000000t:  Control change ::  Channel 4.  Controller 11.  Value: 115
000001t:  Control change ::  Channel 4.  Controller 11.  Value: 114
000001t:  Control change ::  Channel 4.  Controller 11.  Value: 112
000001t:  Control change ::  Channel 4.  Controller 11.  Value: 111
000001t:  Control change ::  Channel 4.  Controller 11.  Value: 109
000001t:  Control change ::  Channel 4.  Controller 11.  Value: 108
000001t:  Control change ::  Channel 4.  Controller 11.  Value: 107
000001t:  Control change ::  Channel 4.  Controller 11.  Value: 106
000001t:  Control change ::  Channel 4.  Controller 11.  Value: 105
000001t:  Control change ::  Channel 4.  Controller 11.  Value: 104
000001t:  Control change ::  Channel 4.  Controller 11.  Value: 103
000001t:  Control change ::  Channel 4.  Controller 11.  Value: 102
000001t:  Control change ::  Channel 4.  Controller 11.  Value: 101
000001t:  Control change ::  Channel 4.  Controller 11.  Value: 100
000002t:  Control change ::  Channel 4.  Controller 11.  Value: 99
000001t:  Control change ::  Channel 4.  Controller 11.  Value: 98
000002t:  Control change ::  Channel 4.  Controller 11.  Value: 97
000002t:  Control change ::  Channel 4.  Controller 11.  Value: 96
000002t:  Control change ::  Channel 4.  Controller 11.  Value: 95
000003t:  Control change ::  Channel 4.  Controller 11.  Value: 94
000003t:  Control change ::  Channel 4.  Controller 11.  Value: 93
000005t:  Control change ::  Channel 4.  Controller 11.  Value: 92
000005t:  Control change ::  Channel 4.  Controller 11.  Value: 91
000010t:  Control change ::  Channel 4.  Controller 11.  Value: 90
000124t:  Note on ::  Channel 4.  Note 56.  Velocity 0
000005t:  Note on ::  Channel 4.  Note 65.  Velocity 0
000007t:  Note on ::  Channel 4.  Note 49.  Velocity 0
000006t:  Note on ::  Channel 4.  Note 61.  Velocity 0
000000t:  Note on ::  Channel 4.  Note 85.  Velocity 0
000000t:  Control change ::  Channel 4.  Controller 11.  Value: 120
000000t:  Note on ::  Channel 4.  Note 44.  Velocity 80
000001t:  Note on ::  Channel 4.  Note 51.  Velocity 83
000000t:  Control change ::  Channel 4.  Controller 11.  Value: 117
000001t:  Note on ::  Channel 4.  Note 56.  Velocity 87
000000t:  Control change ::  Channel 4.  Controller 11.  Value: 115
000001t:  Note on ::  Channel 4.  Note 60.  Velocity 92
000000t:  Control change ::  Channel 4.  Controller 11.  Value: 113
000001t:  Note on ::  Channel 4.  Note 63.  Velocity 98
000000t:  Note on ::  Channel 4.  Note 68.  Velocity 105
000000t:  Control change ::  Channel 4.  Controller 11.  Value: 111
000001t:  Control change ::  Channel 4.  Controller 11.  Value: 109
000001t:  Control change ::  Channel 4.  Controller 11.  Value: 108
000001t:  Control change ::  Channel 4.  Controller 11.  Value: 106
000001t:  Control change ::  Channel 4.  Controller 11.  Value: 105
000001t:  Control change ::  Channel 4.  Controller 11.  Value: 104
000001t:  Control change ::  Channel 4.  Controller 11.  Value: 103
000001t:  Control change ::  Channel 4.  Controller 11.  Value: 102
000001t:  Control change ::  Channel 4.  Controller 11.  Value: 101
000001t:  Control change ::  Channel 4.  Controller 11.  Value: 100
000001t:  Control change ::  Channel 4.  Controller 11.  Value: 99
000002t:  Control change ::  Channel 4.  Controller 11.  Value: 98
000001t:  Control change ::  Channel 4.  Controller 11.  Value: 97
000002t:  Control change ::  Channel 4.  Controller 11.  Value: 96
000001t:  Control change ::  Channel 4.  Controller 11.  Value: 95
000003t:  Control change ::  Channel 4.  Controller 11.  Value: 94
000002t:  Control change ::  Channel 4.  Controller 11.  Value: 93
000004t:  Control change ::  Channel 4.  Controller 11.  Value: 92
000005t:  Control change ::  Channel 4.  Controller 11.  Value: 91
000009t:  Control change ::  Channel 4.  Controller 11.  Value: 90
000022t:  Pitch wheel change ::  Channel 4.   -8192
000002t:  Note on ::  Channel 4.  Note 60.  Velocity 0
000000t:  Pitch wheel change ::  Channel 4.   -8192
000001t:  Note on ::  Channel 4.  Note 44.  Velocity 0
000000t:  Note on ::  Channel 4.  Note 56.  Velocity 0
000000t:  Note on ::  Channel 4.  Note 68.  Velocity 0
000001t:  Note on ::  Channel 4.  Note 51.  Velocity 0
000000t:  Note on ::  Channel 4.  Note 63.  Velocity 0
000003t:  Control change ::  Channel 4.  Controller 11.  Value: 120
000000t:  Note on ::  Channel 4.  Note 46.  Velocity 60
000001t:  Note on ::  Channel 4.  Note 46.  Velocity 0
000000t:  Pitch wheel change ::  Channel 4.   -8192
000000t:  Note on ::  Channel 4.  Note 46.  Velocity 80
000000t:  Control change ::  Channel 4.  Controller 11.  Value: 117
000001t:  Note on ::  Channel 4.  Note 53.  Velocity 83
000000t:  Control change ::  Channel 4.  Controller 11.  Value: 115
000001t:  Note on ::  Channel 4.  Note 58.  Velocity 87
000000t:  Control change ::  Channel 4.  Controller 11.  Value: 113
000001t:  Note on ::  Channel 4.  Note 61.  Velocity 92
000000t:  Control change ::  Channel 4.  Controller 11.  Value: 111
000001t:  Note on ::  Channel 4.  Note 65.  Velocity 98
000000t:  Note on ::  Channel 4.  Note 70.  Velocity 105
000000t:  Control change ::  Channel 4.  Controller 11.  Value: 109
000001t:  Control change ::  Channel 4.  Controller 11.  Value: 108
000001t:  Control change ::  Channel 4.  Controller 11.  Value: 106
000001t:  Control change ::  Channel 4.  Controller 11.  Value: 105
000001t:  Control change ::  Channel 4.  Controller 11.  Value: 104
000001t:  Control change ::  Channel 4.  Controller 11.  Value: 103
000001t:  Control change ::  Channel 4.  Controller 11.  Value: 102
000001t:  Control change ::  Channel 4.  Controller 11.  Value: 101
000001t:  Control change ::  Channel 4.  Controller 11.  Value: 100
000001t:  Control change ::  Channel 4.  Controller 11.  Value: 99
000002t:  Control change ::  Channel 4.  Controller 11.  Value: 98
000001t:  Control change ::  Channel 4.  Controller 11.  Value: 97
000002t:  Control change ::  Channel 4.  Controller 11.  Value: 96
000001t:  Control change ::  Channel 4.  Controller 11.  Value: 95
000003t:  Control change ::  Channel 4.  Controller 11.  Value: 94
000002t:  Control change ::  Channel 4.  Controller 11.  Value: 93
000004t:  Control change ::  Channel 4.  Controller 11.  Value: 92
000005t:  Control change ::  Channel 4.  Controller 11.  Value: 91
000009t:  Control change ::  Channel 4.  Controller 11.  Value: 90
000022t:  Pitch wheel change ::  Channel 4.   -8192
000002t:  Pitch wheel change ::  Channel 4.   -8192
000002t:  Note on ::  Channel 4.  Note 46.  Velocity 0
000001t:  Note on ::  Channel 4.  Note 58.  Velocity 0
000000t:  Note on ::  Channel 4.  Note 61.  Velocity 0
000000t:  Note on ::  Channel 4.  Note 53.  Velocity 0
000000t:  Note on ::  Channel 4.  Note 70.  Velocity 0
000000t:  Note on ::  Channel 4.  Note 65.  Velocity 0
000003t:  Control change ::  Channel 4.  Controller 11.  Value: 120
000000t:  Note on ::  Channel 4.  Note 42.  Velocity 68
000001t:  Note on ::  Channel 4.  Note 42.  Velocity 0
000000t:  Pitch wheel change ::  Channel 4.   -8192
000000t:  Note on ::  Channel 4.  Note 42.  Velocity 80
000000t:  Control change ::  Channel 4.  Controller 11.  Value: 117
000001t:  Note on ::  Channel 4.  Note 49.  Velocity 83
000000t:  Control change ::  Channel 4.  Controller 11.  Value: 115
000001t:  Note on ::  Channel 4.  Note 54.  Velocity 87
000000t:  Control change ::  Channel 4.  Controller 11.  Value: 113
000001t:  Note on ::  Channel 4.  Note 58.  Velocity 92
000000t:  Control change ::  Channel 4.  Controller 11.  Value: 111
000001t:  Note on ::  Channel 4.  Note 61.  Velocity 98
000000t:  Note on ::  Channel 4.  Note 66.  Velocity 105
000000t:  Control change ::  Channel 4.  Controller 11.  Value: 109
000001t:  Control change ::  Channel 4.  Controller 11.  Value: 108
000001t:  Control change ::  Channel 4.  Controller 11.  Value: 106
000001t:  Control change ::  Channel 4.  Controller 11.  Value: 105
000001t:  Control change ::  Channel 4.  Controller 11.  Value: 104
000001t:  Control change ::  Channel 4.  Controller 11.  Value: 103
000001t:  Control change ::  Channel 4.  Controller 11.  Value: 102
000001t:  Control change ::  Channel 4.  Controller 11.  Value: 101
000001t:  Control change ::  Channel 4.  Controller 11.  Value: 100
000001t:  Control change ::  Channel 4.  Controller 11.  Value: 99
000002t:  Control change ::  Channel 4.  Controller 11.  Value: 98
000001t:  Control change ::  Channel 4.  Controller 11.  Value: 97
000002t:  Control change ::  Channel 4.  Controller 11.  Value: 96
000001t:  Control change ::  Channel 4.  Controller 11.  Value: 95
000003t:  Control change ::  Channel 4.  Controller 11.  Value: 94
000002t:  Control change ::  Channel 4.  Controller 11.  Value: 93
000004t:  Control change ::  Channel 4.  Controller 11.  Value: 92
000005t:  Control change ::  Channel 4.  Controller 11.  Value: 91
000009t:  Control change ::  Channel 4.  Controller 11.  Value: 90
000020t:  Pitch wheel change ::  Channel 4.   -8192
000002t:  Pitch wheel change ::  Channel 4.   -8192
000003t:  Note on ::  Channel 4.  Note 58.  Velocity 0
000000t:  Note on ::  Channel 4.  Note 54.  Velocity 0
000000t:  Note on ::  Channel 4.  Note 49.  Velocity 0
000001t:  Note on ::  Channel 4.  Note 42.  Velocity 0
000000t:  Note on ::  Channel 4.  Note 61.  Velocity 0
000000t:  Note on ::  Channel 4.  Note 66.  Velocity 0
000002t:  Note on ::  Channel 4.  Note 44.  Velocity 72
000001t:  Note on ::  Channel 4.  Note 44.  Velocity 0
000000t:  Pitch wheel change ::  Channel 4.   -8192
000000t:  Control change ::  Channel 4.  Controller 11.  Value: 120
000000t:  Note on ::  Channel 4.  Note 44.  Velocity 80
000001t:  Note on ::  Channel 4.  Note 51.  Velocity 83
000000t:  Control change ::  Channel 4.  Controller 11.  Value: 116
000001t:  Note on ::  Channel 4.  Note 56.  Velocity 87
000000t:  Control change ::  Channel 4.  Controller 11.  Value: 113
000001t:  Note on ::  Channel 4.  Note 60.  Velocity 92
000000t:  Control change ::  Channel 4.  Controller 11.  Value: 110
000001t:  Note on ::  Channel 4.  Note 63.  Velocity 98
000000t:  Note on ::  Channel 4.  Note 68.  Velocity 105
000000t:  Control change ::  Channel 4.  Controller 11.  Value: 108
000001t:  Control change ::  Channel 4.  Controller 11.  Value: 106
000001t:  Control change ::  Channel 4.  Controller 11.  Value: 104
000001t:  Control change ::  Channel 4.  Controller 11.  Value: 102
000001t:  Control change ::  Channel 4.  Controller 11.  Value: 101
000001t:  Control change ::  Channel 4.  Controller 11.  Value: 100
000001t:  Control change ::  Channel 4.  Controller 11.  Value: 99
000001t:  Control change ::  Channel 4.  Controller 11.  Value: 98
000001t:  Control change ::  Channel 4.  Controller 11.  Value: 97
000001t:  Control change ::  Channel 4.  Controller 11.  Value: 96
000001t:  Control change ::  Channel 4.  Controller 11.  Value: 95
000002t:  Control change ::  Channel 4.  Controller 11.  Value: 94
000001t:  Control change ::  Channel 4.  Controller 11.  Value: 93
000003t:  Control change ::  Channel 4.  Controller 11.  Value: 92
000003t:  Control change ::  Channel 4.  Controller 11.  Value: 91
000006t:  Control change ::  Channel 4.  Controller 11.  Value: 90
000003t:  Note on ::  Channel 4.  Note 68.  Velocity 0
000000t:  Note on ::  Channel 4.  Note 51.  Velocity 0
000000t:  Note on ::  Channel 4.  Note 56.  Velocity 0
000000t:  Note on ::  Channel 4.  Note 44.  Velocity 0
000000t:  Note on ::  Channel 4.  Note 60.  Velocity 0
000001t:  Note on ::  Channel 4.  Note 63.  Velocity 0
000014t:  Control change ::  Channel 4.  Controller 11.  Value: 120
000000t:  Note on ::  Channel 4.  Note 49.  Velocity 90
000001t:  Note on ::  Channel 4.  Note 56.  Velocity 94
000000t:  Control change ::  Channel 4.  Controller 11.  Value: 113
000001t:  Note on ::  Channel 4.  Note 61.  Velocity 99
000000t:  Note on ::  Channel 4.  Note 65.  Velocity 105
000000t:  Control change ::  Channel 4.  Controller 11.  Value: 108
000001t:  Control change ::  Channel 4.  Controller 11.  Value: 105
000001t:  Control change ::  Channel 4.  Controller 11.  Value: 101
000001t:  Control change ::  Channel 4.  Controller 11.  Value: 99
000001t:  Control change ::  Channel 4.  Controller 11.  Value: 97
000001t:  Control change ::  Channel 4.  Controller 11.  Value: 95
000001t:  Control change ::  Channel 4.  Controller 11.  Value: 94
000001t:  Control change ::  Channel 4.  Controller 11.  Value: 93
000001t:  Control change ::  Channel 4.  Controller 11.  Value: 92
000002t:  Control change ::  Channel 4.  Controller 11.  Value: 91
000003t:  Control change ::  Channel 4.  Controller 11.  Value: 90
000006t:  Note on ::  Channel 4.  Note 61.  Velocity 0
000000t:  Note on ::  Channel 4.  Note 56.  Velocity 0
000001t:  Note on ::  Channel 4.  Note 49.  Velocity 0
000000t:  Note on ::  Channel 4.  Note 65.  Velocity 0
000002t:  Control change ::  Channel 4.  Controller 11.  Value: 120
000000t:  Note on ::  Channel 4.  Note 49.  Velocity 90
000001t:  Note on ::  Channel 4.  Note 56.  Velocity 94
000000t:  Control change ::  Channel 4.  Controller 11.  Value: 118
000001t:  Note on ::  Channel 4.  Note 61.  Velocity 99
000000t:  Note on ::  Channel 4.  Note 85.  Velocity 26
000000t:  Note on ::  Channel 4.  Note 65.  Velocity 105
000000t:  Control change ::  Channel 4.  Controller 11.  Value: 116
000001t:  Control change ::  Channel 4.  Controller 11.  Value: 114
000001t:  Control change ::  Channel 4.  Controller 11.  Value: 113
000001t:  Control change ::  Channel 4.  Controller 11.  Value: 112
000001t:  Control change ::  Channel 4.  Controller 11.  Value: 110
000001t:  Control change ::  Channel 4.  Controller 11.  Value: 109
000001t:  Control change ::  Channel 4.  Controller 11.  Value: 108
000001t:  Control change ::  Channel 4.  Controller 11.  Value: 106
000002t:  Control change ::  Channel 4.  Controller 11.  Value: 105
000001t:  Control change ::  Channel 4.  Controller 11.  Value: 104
000001t:  Control change ::  Channel 4.  Controller 11.  Value: 103
000001t:  Control change ::  Channel 4.  Controller 11.  Value: 102
000002t:  Control change ::  Channel 4.  Controller 11.  Value: 101
000001t:  Control change ::  Channel 4.  Controller 11.  Value: 100
000001t:  Control change ::  Channel 4.  Controller 11.  Value: 99
000002t:  Control change ::  Channel 4.  Controller 11.  Value: 98
000002t:  Control change ::  Channel 4.  Controller 11.  Value: 97
000002t:  Control change ::  Channel 4.  Controller 11.  Value: 96
000003t:  Control change ::  Channel 4.  Controller 11.  Value: 95
000003t:  Control change ::  Channel 4.  Controller 11.  Value: 94
000003t:  Control change ::  Channel 4.  Controller 11.  Value: 93
000005t:  Control change ::  Channel 4.  Controller 11.  Value: 92
000006t:  Control change ::  Channel 4.  Controller 11.  Value: 91
000012t:  Control change ::  Channel 4.  Controller 11.  Value: 90
000119t:  Note on ::  Channel 4.  Note 56.  Velocity 0
000005t:  Note on ::  Channel 4.  Note 65.  Velocity 0
000006t:  Note on ::  Channel 4.  Note 49.  Velocity 0
000006t:  Note on ::  Channel 4.  Note 61.  Velocity 0
000000t:  Note on ::  Channel 4.  Note 85.  Velocity 0
000000t:  Control change ::  Channel 4.  Controller 11.  Value: 120
000000t:  Note on ::  Channel 4.  Note 44.  Velocity 80
000001t:  Note on ::  Channel 4.  Note 51.  Velocity 83
000000t:  Control change ::  Channel 4.  Controller 11.  Value: 117
000001t:  Note on ::  Channel 4.  Note 56.  Velocity 87
000000t:  Control change ::  Channel 4.  Controller 11.  Value: 115
000001t:  Note on ::  Channel 4.  Note 60.  Velocity 92
000000t:  Control change ::  Channel 4.  Controller 11.  Value: 113
000001t:  Note on ::  Channel 4.  Note 63.  Velocity 98
000000t:  Note on ::  Channel 4.  Note 68.  Velocity 105
000000t:  Control change ::  Channel 4.  Controller 11.  Value: 111
000001t:  Control change ::  Channel 4.  Controller 11.  Value: 109
000001t:  Control change ::  Channel 4.  Controller 11.  Value: 108
000001t:  Control change ::  Channel 4.  Controller 11.  Value: 106
000001t:  Control change ::  Channel 4.  Controller 11.  Value: 105
000001t:  Control change ::  Channel 4.  Controller 11.  Value: 104
000001t:  Control change ::  Channel 4.  Controller 11.  Value: 103
000001t:  Control change ::  Channel 4.  Controller 11.  Value: 102
000001t:  Control change ::  Channel 4.  Controller 11.  Value: 101
000001t:  Control change ::  Channel 4.  Controller 11.  Value: 100
000001t:  Control change ::  Channel 4.  Controller 11.  Value: 99
000002t:  Control change ::  Channel 4.  Controller 11.  Value: 98
000001t:  Control change ::  Channel 4.  Controller 11.  Value: 97
000002t:  Control change ::  Channel 4.  Controller 11.  Value: 96
000001t:  Control change ::  Channel 4.  Controller 11.  Value: 95
000003t:  Control change ::  Channel 4.  Controller 11.  Value: 94
000002t:  Control change ::  Channel 4.  Controller 11.  Value: 93
000004t:  Control change ::  Channel 4.  Controller 11.  Value: 92
000005t:  Control change ::  Channel 4.  Controller 11.  Value: 91
000009t:  Control change ::  Channel 4.  Controller 11.  Value: 90
000021t:  Pitch wheel change ::  Channel 4.   -8192
000002t:  Pitch wheel change ::  Channel 4.   -8192
000002t:  Note on ::  Channel 4.  Note 44.  Velocity 0
000001t:  Note on ::  Channel 4.  Note 51.  Velocity 0
000001t:  Note on ::  Channel 4.  Note 63.  Velocity 0
000000t:  Note on ::  Channel 4.  Note 60.  Velocity 0
000000t:  Note on ::  Channel 4.  Note 68.  Velocity 0
000000t:  Note on ::  Channel 4.  Note 56.  Velocity 0
000002t:  Control change ::  Channel 4.  Controller 11.  Value: 120
000000t:  Note on ::  Channel 4.  Note 46.  Velocity 70
000001t:  Note on ::  Channel 4.  Note 46.  Velocity 0
000000t:  Pitch wheel change ::  Channel 4.   -8192
000000t:  Note on ::  Channel 4.  Note 46.  Velocity 80
000000t:  Control change ::  Channel 4.  Controller 11.  Value: 117
000001t:  Note on ::  Channel 4.  Note 53.  Velocity 83
000000t:  Control change ::  Channel 4.  Controller 11.  Value: 115
000001t:  Note on ::  Channel 4.  Note 58.  Velocity 87
000000t:  Control change ::  Channel 4.  Controller 11.  Value: 113
000001t:  Note on ::  Channel 4.  Note 61.  Velocity 92
000000t:  Control change ::  Channel 4.  Controller 11.  Value: 111
000001t:  Note on ::  Channel 4.  Note 65.  Velocity 98
000000t:  Note on ::  Channel 4.  Note 70.  Velocity 105
000000t:  Control change ::  Channel 4.  Controller 11.  Value: 109
000001t:  Control change ::  Channel 4.  Controller 11.  Value: 108
000001t:  Control change ::  Channel 4.  Controller 11.  Value: 106
000001t:  Control change ::  Channel 4.  Controller 11.  Value: 105
000001t:  Control change ::  Channel 4.  Controller 11.  Value: 104
000001t:  Control change ::  Channel 4.  Controller 11.  Value: 103
000001t:  Control change ::  Channel 4.  Controller 11.  Value: 102
000001t:  Control change ::  Channel 4.  Controller 11.  Value: 101
000001t:  Control change ::  Channel 4.  Controller 11.  Value: 100
000001t:  Control change ::  Channel 4.  Controller 11.  Value: 99
000002t:  Control change ::  Channel 4.  Controller 11.  Value: 98
000001t:  Control change ::  Channel 4.  Controller 11.  Value: 97
000002t:  Control change ::  Channel 4.  Controller 11.  Value: 96
000002t:  Control change ::  Channel 4.  Controller 11.  Value: 95
000002t:  Control change ::  Channel 4.  Controller 11.  Value: 94
000003t:  Control change ::  Channel 4.  Controller 11.  Value: 93
000004t:  Control change ::  Channel 4.  Controller 11.  Value: 92
000004t:  Control change ::  Channel 4.  Controller 11.  Value: 91
000009t:  Control change ::  Channel 4.  Controller 11.  Value: 90
000021t:  Pitch wheel change ::  Channel 4.   -8192
000002t:  Pitch wheel change ::  Channel 4.   -8192
000003t:  Note on ::  Channel 4.  Note 70.  Velocity 0
000000t:  Note on ::  Channel 4.  Note 53.  Velocity 0
000000t:  Note on ::  Channel 4.  Note 46.  Velocity 0
000000t:  Note on ::  Channel 4.  Note 58.  Velocity 0
000000t:  Note on ::  Channel 4.  Note 65.  Velocity 0
000001t:  Note on ::  Channel 4.  Note 61.  Velocity 0
000002t:  Control change ::  Channel 4.  Controller 11.  Value: 120
000000t:  Note on ::  Channel 4.  Note 42.  Velocity 70
000001t:  Note on ::  Channel 4.  Note 42.  Velocity 0
000000t:  Pitch wheel change ::  Channel 4.   -8192
000000t:  Note on ::  Channel 4.  Note 42.  Velocity 80
000000t:  Control change ::  Channel 4.  Controller 11.  Value: 117
000001t:  Note on ::  Channel 4.  Note 49.  Velocity 83
000000t:  Control change ::  Channel 4.  Controller 11.  Value: 115
000001t:  Note on ::  Channel 4.  Note 54.  Velocity 87
000000t:  Control change ::  Channel 4.  Controller 11.  Value: 113
000001t:  Note on ::  Channel 4.  Note 58.  Velocity 92
000000t:  Control change ::  Channel 4.  Controller 11.  Value: 111
000001t:  Note on ::  Channel 4.  Note 61.  Velocity 98
000000t:  Note on ::  Channel 4.  Note 66.  Velocity 105
000000t:  Control change ::  Channel 4.  Controller 11.  Value: 109
000001t:  Control change ::  Channel 4.  Controller 11.  Value: 108
000001t:  Control change ::  Channel 4.  Controller 11.  Value: 106
000001t:  Control change ::  Channel 4.  Controller 11.  Value: 105
000001t:  Control change ::  Channel 4.  Controller 11.  Value: 104
000001t:  Control change ::  Channel 4.  Controller 11.  Value: 103
000001t:  Control change ::  Channel 4.  Controller 11.  Value: 102
000001t:  Control change ::  Channel 4.  Controller 11.  Value: 101
000001t:  Control change ::  Channel 4.  Controller 11.  Value: 100
000001t:  Control change ::  Channel 4.  Controller 11.  Value: 99
000002t:  Control change ::  Channel 4.  Controller 11.  Value: 98
000001t:  Control change ::  Channel 4.  Controller 11.  Value: 97
000002t:  Control change ::  Channel 4.  Controller 11.  Value: 96
000002t:  Control change ::  Channel 4.  Controller 11.  Value: 95
000002t:  Control change ::  Channel 4.  Controller 11.  Value: 94
000003t:  Control change ::  Channel 4.  Controller 11.  Value: 93
000004t:  Control change ::  Channel 4.  Controller 11.  Value: 92
000004t:  Control change ::  Channel 4.  Controller 11.  Value: 91
000009t:  Control change ::  Channel 4.  Controller 11.  Value: 90
000021t:  Pitch wheel change ::  Channel 4.   -8192
000002t:  Pitch wheel change ::  Channel 4.   -8192
000003t:  Note on ::  Channel 4.  Note 61.  Velocity 0
000000t:  Note on ::  Channel 4.  Note 58.  Velocity 0
000000t:  Note on ::  Channel 4.  Note 42.  Velocity 0
000001t:  Note on ::  Channel 4.  Note 49.  Velocity 0
000000t:  Note on ::  Channel 4.  Note 66.  Velocity 0
000000t:  Note on ::  Channel 4.  Note 54.  Velocity 0
000002t:  Note on ::  Channel 4.  Note 41.  Velocity 72
000001t:  Note on ::  Channel 4.  Note 41.  Velocity 0
000000t:  Pitch wheel change ::  Channel 4.   -8192
000000t:  Control change ::  Channel 4.  Controller 11.  Value: 120
000000t:  Note on ::  Channel 4.  Note 41.  Velocity 82
000001t:  Note on ::  Channel 4.  Note 49.  Velocity 86
000000t:  Control change ::  Channel 4.  Controller 11.  Value: 116
000001t:  Note on ::  Channel 4.  Note 56.  Velocity 91
000000t:  Control change ::  Channel 4.  Controller 11.  Value: 113
000001t:  Note on ::  Channel 4.  Note 61.  Velocity 98
000000t:  Note on ::  Channel 4.  Note 65.  Velocity 105
000000t:  Control change ::  Channel 4.  Controller 11.  Value: 110
000001t:  Control change ::  Channel 4.  Controller 11.  Value: 108
000001t:  Control change ::  Channel 4.  Controller 11.  Value: 106
000001t:  Control change ::  Channel 4.  Controller 11.  Value: 104
000001t:  Control change ::  Channel 4.  Controller 11.  Value: 102
000001t:  Control change ::  Channel 4.  Controller 11.  Value: 101
000001t:  Control change ::  Channel 4.  Controller 11.  Value: 99
000001t:  Control change ::  Channel 4.  Controller 11.  Value: 98
000001t:  Control change ::  Channel 4.  Controller 11.  Value: 97
000001t:  Control change ::  Channel 4.  Controller 11.  Value: 96
000002t:  Control change ::  Channel 4.  Controller 11.  Value: 95
000001t:  Control change ::  Channel 4.  Controller 11.  Value: 94
000002t:  Control change ::  Channel 4.  Controller 11.  Value: 93
000002t:  Control change ::  Channel 4.  Controller 11.  Value: 92
000003t:  Control change ::  Channel 4.  Controller 11.  Value: 91
000006t:  Control change ::  Channel 4.  Controller 11.  Value: 90
000003t:  Note on ::  Channel 4.  Note 65.  Velocity 0
000000t:  Note on ::  Channel 4.  Note 56.  Velocity 0
000000t:  Note on ::  Channel 4.  Note 41.  Velocity 0
000000t:  Note on ::  Channel 4.  Note 49.  Velocity 0
000000t:  Note on ::  Channel 4.  Note 61.  Velocity 0
000016t:  Control change ::  Channel 4.  Controller 11.  Value: 120
000000t:  Note on ::  Channel 4.  Note 42.  Velocity 80
000001t:  Note on ::  Channel 4.  Note 49.  Velocity 83
000000t:  Control change ::  Channel 4.  Controller 11.  Value: 114
000001t:  Note on ::  Channel 4.  Note 54.  Velocity 87
000000t:  Control change ::  Channel 4.  Controller 11.  Value: 110
000001t:  Note on ::  Channel 4.  Note 58.  Velocity 92
000000t:  Control change ::  Channel 4.  Controller 11.  Value: 107
000001t:  Note on ::  Channel 4.  Note 61.  Velocity 98
000000t:  Note on ::  Channel 4.  Note 66.  Velocity 105
000000t:  Control change ::  Channel 4.  Controller 11.  Value: 105
000001t:  Control change ::  Channel 4.  Controller 11.  Value: 103
000001t:  Control change ::  Channel 4.  Controller 11.  Value: 101
000001t:  Control change ::  Channel 4.  Controller 11.  Value: 100
000001t:  Control change ::  Channel 4.  Controller 11.  Value: 99
000001t:  Control change ::  Channel 4.  Controller 11.  Value: 98
000002t:  Control change ::  Channel 4.  Controller 11.  Value: 97
000003t:  Control change ::  Channel 4.  Controller 11.  Value: 96
000007t:  Note on ::  Channel 4.  Note 58.  Velocity 0
000001t:  Note on ::  Channel 4.  Note 49.  Velocity 0
000000t:  Note on ::  Channel 4.  Note 42.  Velocity 0
000001t:  Note on ::  Channel 4.  Note 54.  Velocity 0
000000t:  Note on ::  Channel 4.  Note 66.  Velocity 0
000000t:  Note on ::  Channel 4.  Note 61.  Velocity 0
000001t:  Control change ::  Channel 4.  Controller 11.  Value: 121
000000t:  Note on ::  Channel 4.  Note 42.  Velocity 80
000001t:  Note on ::  Channel 4.  Note 49.  Velocity 83
000000t:  Control change ::  Channel 4.  Controller 11.  Value: 118
000001t:  Note on ::  Channel 4.  Note 54.  Velocity 87
000000t:  Control change ::  Channel 4.  Controller 11.  Value: 117
000001t:  Note on ::  Channel 4.  Note 58.  Velocity 92
000000t:  Control change ::  Channel 4.  Controller 11.  Value: 115
000001t:  Note on ::  Channel 4.  Note 61.  Velocity 98
000000t:  Note on ::  Channel 4.  Note 66.  Velocity 105
000000t:  Control change ::  Channel 4.  Controller 11.  Value: 113
000001t:  Control change ::  Channel 4.  Controller 11.  Value: 112
000001t:  Control change ::  Channel 4.  Controller 11.  Value: 110
000001t:  Control change ::  Channel 4.  Controller 11.  Value: 109
000001t:  Control change ::  Channel 4.  Controller 11.  Value: 108
000001t:  Control change ::  Channel 4.  Controller 11.  Value: 107
000001t:  Control change ::  Channel 4.  Controller 11.  Value: 106
000001t:  Control change ::  Channel 4.  Controller 11.  Value: 105
000001t:  Control change ::  Channel 4.  Controller 11.  Value: 104
000001t:  Control change ::  Channel 4.  Controller 11.  Value: 103
000001t:  Control change ::  Channel 4.  Controller 11.  Value: 102
000001t:  Control change ::  Channel 4.  Controller 11.  Value: 101
000001t:  Control change ::  Channel 4.  Controller 11.  Value: 100
000002t:  Control change ::  Channel 4.  Controller 11.  Value: 99
000002t:  Control change ::  Channel 4.  Controller 11.  Value: 98
000001t:  Control change ::  Channel 4.  Controller 11.  Value: 97
000003t:  Control change ::  Channel 4.  Controller 11.  Value: 96
000002t:  Control change ::  Channel 4.  Controller 11.  Value: 95
000003t:  Control change ::  Channel 4.  Controller 11.  Value: 94
000003t:  Control change ::  Channel 4.  Controller 11.  Value: 93
000005t:  Control change ::  Channel 4.  Controller 11.  Value: 92
000006t:  Control change ::  Channel 4.  Controller 11.  Value: 91
000010t:  Control change ::  Channel 4.  Controller 11.  Value: 90
000329t:  Note on ::  Channel 4.  Note 42.  Velocity 0
000001t:  Note on ::  Channel 4.  Note 49.  Velocity 0
000001t:  Note on ::  Channel 4.  Note 54.  Velocity 0
000000t:  Control change ::  Channel 4.  Controller 7.  Value: 84
000001t:  Note on ::  Channel 4.  Note 58.  Velocity 0
000001t:  Note on ::  Channel 4.  Note 61.  Velocity 0
000000t:  Note on ::  Channel 4.  Note 66.  Velocity 0
000012t:  Program (patch) change ::  Channel 4.  Patch 29 (Overdriven Guitar)
000014t:  Note on ::  Channel 4.  Note 56.  Velocity 80
000008t:  Note on ::  Channel 4.  Note 56.  Velocity 0
000016t:  Note on ::  Channel 4.  Note 61.  Velocity 80
000008t:  Note on ::  Channel 4.  Note 61.  Velocity 0
000016t:  Note on ::  Channel 4.  Note 65.  Velocity 84
000008t:  Note on ::  Channel 4.  Note 65.  Velocity 0
000040t:  Note on ::  Channel 4.  Note 56.  Velocity 80
000008t:  Note on ::  Channel 4.  Note 56.  Velocity 0
000016t:  Note on ::  Channel 4.  Note 60.  Velocity 80
000008t:  Note on ::  Channel 4.  Note 60.  Velocity 0
000016t:  Note on ::  Channel 4.  Note 63.  Velocity 83
000008t:  Note on ::  Channel 4.  Note 63.  Velocity 0
000040t:  Note on ::  Channel 4.  Note 54.  Velocity 80
000008t:  Note on ::  Channel 4.  Note 54.  Velocity 0
000016t:  Note on ::  Channel 4.  Note 58.  Velocity 80
000008t:  Note on ::  Channel 4.  Note 58.  Velocity 0
000016t:  Note on ::  Channel 4.  Note 61.  Velocity 84
000008t:  Note on ::  Channel 4.  Note 61.  Velocity 0
000040t:  Note on ::  Channel 4.  Note 56.  Velocity 80
000008t:  Note on ::  Channel 4.  Note 56.  Velocity 0
000016t:  Note on ::  Channel 4.  Note 60.  Velocity 80
000008t:  Note on ::  Channel 4.  Note 60.  Velocity 0
000016t:  Note on ::  Channel 4.  Note 63.  Velocity 82
000008t:  Note on ::  Channel 4.  Note 63.  Velocity 0
000040t:  Note on ::  Channel 4.  Note 56.  Velocity 80
000008t:  Note on ::  Channel 4.  Note 56.  Velocity 0
000016t:  Note on ::  Channel 4.  Note 61.  Velocity 80
000008t:  Note on ::  Channel 4.  Note 61.  Velocity 0
000016t:  Note on ::  Channel 4.  Note 65.  Velocity 83
000008t:  Note on ::  Channel 4.  Note 65.  Velocity 0
000040t:  Note on ::  Channel 4.  Note 56.  Velocity 80
000008t:  Note on ::  Channel 4.  Note 56.  Velocity 0
000016t:  Note on ::  Channel 4.  Note 60.  Velocity 80
000008t:  Note on ::  Channel 4.  Note 60.  Velocity 0
000016t:  Note on ::  Channel 4.  Note 63.  Velocity 84
000008t:  Note on ::  Channel 4.  Note 63.  Velocity 0
000040t:  Note on ::  Channel 4.  Note 58.  Velocity 80
000008t:  Note on ::  Channel 4.  Note 58.  Velocity 0
000016t:  Note on ::  Channel 4.  Note 61.  Velocity 79
000008t:  Note on ::  Channel 4.  Note 61.  Velocity 0
000016t:  Note on ::  Channel 4.  Note 65.  Velocity 83
000008t:  Note on ::  Channel 4.  Note 65.  Velocity 0
000040t:  Note on ::  Channel 4.  Note 58.  Velocity 80
000008t:  Note on ::  Channel 4.  Note 58.  Velocity 0
000016t:  Note on ::  Channel 4.  Note 61.  Velocity 78
000008t:  Note on ::  Channel 4.  Note 61.  Velocity 0
000016t:  Note on ::  Channel 4.  Note 66.  Velocity 83
000008t:  Note on ::  Channel 4.  Note 66.  Velocity 0
000040t:  Note on ::  Channel 4.  Note 61.  Velocity 80
000008t:  Note on ::  Channel 4.  Note 61.  Velocity 0
000016t:  Note on ::  Channel 4.  Note 65.  Velocity 80
000008t:  Note on ::  Channel 4.  Note 65.  Velocity 0
000016t:  Note on ::  Channel 4.  Note 68.  Velocity 84
000008t:  Note on ::  Channel 4.  Note 68.  Velocity 0
000039t:  Note on ::  Channel 4.  Note 60.  Velocity 80
000001t:  Note on ::  Channel 4.  Note 65.  Velocity 80
000007t:  Note on ::  Channel 4.  Note 60.  Velocity 0
000001t:  Note on ::  Channel 4.  Note 65.  Velocity 0
000015t:  Note on ::  Channel 4.  Note 65.  Velocity 80
000001t:  Note on ::  Channel 4.  Note 68.  Velocity 80
000007t:  Note on ::  Channel 4.  Note 65.  Velocity 0
000001t:  Note on ::  Channel 4.  Note 68.  Velocity 0
000015t:  Note on ::  Channel 4.  Note 68.  Velocity 84
000001t:  Note on ::  Channel 4.  Note 72.  Velocity 85
000007t:  Note on ::  Channel 4.  Note 68.  Velocity 0
000001t:  Note on ::  Channel 4.  Note 72.  Velocity 0
000039t:  Note on ::  Channel 4.  Note 58.  Velocity 78
000001t:  Note on ::  Channel 4.  Note 65.  Velocity 80
000007t:  Note on ::  Channel 4.  Note 58.  Velocity 0
000001t:  Note on ::  Channel 4.  Note 65.  Velocity 0
000015t:  Note on ::  Channel 4.  Note 61.  Velocity 79
000001t:  Note on ::  Channel 4.  Note 70.  Velocity 80
000007t:  Note on ::  Channel 4.  Note 61.  Velocity 0
000001t:  Note on ::  Channel 4.  Note 70.  Velocity 0
000015t:  Note on ::  Channel 4.  Note 65.  Velocity 85
000001t:  Note on ::  Channel 4.  Note 73.  Velocity 84
000007t:  Note on ::  Channel 4.  Note 65.  Velocity 0
000001t:  Note on ::  Channel 4.  Note 73.  Velocity 0
000039t:  Note on ::  Channel 4.  Note 58.  Velocity 80
000001t:  Note on ::  Channel 4.  Note 73.  Velocity 80
000007t:  Note on ::  Channel 4.  Note 58.  Velocity 0
000001t:  Note on ::  Channel 4.  Note 73.  Velocity 0
000015t:  Note on ::  Channel 4.  Note 61.  Velocity 83
000001t:  Note on ::  Channel 4.  Note 70.  Velocity 81
000007t:  Note on ::  Channel 4.  Note 61.  Velocity 0
000001t:  Note on ::  Channel 4.  Note 70.  Velocity 0
000040t:  Control change ::  Channel 4.  Controller 7.  Value: 102
000006t:  Control change ::  Channel 4.  Controller 11.  Value: 127
000006t:  Pitch wheel change ::  Channel 4.   -8192
000006t:  Note on ::  Channel 4.  Note 77.  Velocity 91
000006t:  Pitch wheel change ::  Channel 4.   -8192
000045t:  Note on ::  Channel 4.  Note 77.  Velocity 0
000003t:  Note on ::  Channel 4.  Note 75.  Velocity 89
000046t:  Note on ::  Channel 4.  Note 75.  Velocity 0
000002t:  Note on ::  Channel 4.  Note 73.  Velocity 85
000045t:  Note on ::  Channel 4.  Note 73.  Velocity 0
000003t:  Note on ::  Channel 4.  Note 72.  Velocity 80
000044t:  Pitch wheel change ::  Channel 4.   -8192
000000t:  Note on ::  Channel 4.  Note 73.  Velocity 89
000001t:  Note on ::  Channel 4.  Note 72.  Velocity 0
000005t:  Pitch wheel change ::  Channel 4.   -8192
000002t:  Pitch wheel change ::  Channel 4.   -8192
000001t:  Pitch wheel change ::  Channel 4.   -8192
000001t:  Pitch wheel change ::  Channel 4.   -8192
000001t:  Pitch wheel change ::  Channel 4.   -8192
000001t:  Pitch wheel change ::  Channel 4.   -8192
000001t:  Pitch wheel change ::  Channel 4.   -8192
000001t:  Pitch wheel change ::  Channel 4.   -8192
000001t:  Pitch wheel change ::  Channel 4.   -8192
000001t:  Pitch wheel change ::  Channel 4.   -8192
000001t:  Pitch wheel change ::  Channel 4.   -8192
000001t:  Pitch wheel change ::  Channel 4.   -8192
000027t:  Note on ::  Channel 4.  Note 73.  Velocity 0
000009t:  Pitch wheel change ::  Channel 4.   -8192
000000t:  Note on ::  Channel 4.  Note 73.  Velocity 88
000046t:  Note on ::  Channel 4.  Note 73.  Velocity 0
000002t:  Note on ::  Channel 4.  Note 72.  Velocity 84
000068t:  Note on ::  Channel 4.  Note 72.  Velocity 0
000002t:  Pitch wheel change ::  Channel 4.   -8192
000000t:  Note on ::  Channel 4.  Note 75.  Velocity 80
000001t:  Pitch wheel change ::  Channel 4.   -8192
000001t:  Pitch wheel change ::  Channel 4.   -8192
000001t:  Pitch wheel change ::  Channel 4.   -8192
000001t:  Pitch wheel change ::  Channel 4.   -8192
000001t:  Pitch wheel change ::  Channel 4.   -8192
000001t:  Pitch wheel change ::  Channel 4.   -8192
000062t:  Note on ::  Channel 4.  Note 75.  Velocity 0
000006t:  Note on ::  Channel 4.  Note 73.  Velocity 76
000116t:  Note on ::  Channel 4.  Note 73.  Velocity 0
000002t:  Note on ::  Channel 4.  Note 73.  Velocity 80
000092t:  Note on ::  Channel 4.  Note 73.  Velocity 0
000002t:  Control change ::  Channel 4.  Controller 7.  Value: 87
000001t:  Control change ::  Channel 4.  Controller 11.  Value: 100
000001t:  Pitch wheel change ::  Channel 4.   -8192
000000t:  Note on ::  Channel 4.  Note 46.  Velocity 100
000007t:  Pitch wheel change ::  Channel 4.   -8192
000010t:  Pitch wheel change ::  Channel 4.   -8192
000010t:  Pitch wheel change ::  Channel 4.   -8192
000009t:  Pitch wheel change ::  Channel 4.   -8192
000009t:  Pitch wheel change ::  Channel 4.   -8192
000008t:  Pitch wheel change ::  Channel 4.   -8192
000007t:  Pitch wheel change ::  Channel 4.   -8192
000007t:  Pitch wheel change ::  Channel 4.   -8192
000006t:  Pitch wheel change ::  Channel 4.   -8192
000006t:  Pitch wheel change ::  Channel 4.   -8192
000005t:  Pitch wheel change ::  Channel 4.   -8192
000005t:  Pitch wheel change ::  Channel 4.   -8192
000004t:  Pitch wheel change ::  Channel 4.   -8192
000003t:  Pitch wheel change ::  Channel 4.   -8192
000000t:  Control change ::  Channel 4.  Controller 11.  Value: 100
000001t:  Control change ::  Channel 4.  Controller 11.  Value: 96
000001t:  Control change ::  Channel 4.  Controller 11.  Value: 93
000001t:  Control change ::  Channel 4.  Controller 11.  Value: 91
000001t:  Control change ::  Channel 4.  Controller 11.  Value: 89
000001t:  Control change ::  Channel 4.  Controller 11.  Value: 86
000001t:  Control change ::  Channel 4.  Controller 11.  Value: 85
000001t:  Control change ::  Channel 4.  Controller 11.  Value: 83
000001t:  Control change ::  Channel 4.  Controller 11.  Value: 81
000001t:  Control change ::  Channel 4.  Controller 11.  Value: 79
000001t:  Control change ::  Channel 4.  Controller 11.  Value: 77
000001t:  Control change ::  Channel 4.  Controller 11.  Value: 76
000001t:  Control change ::  Channel 4.  Controller 11.  Value: 75
000001t:  Control change ::  Channel 4.  Controller 11.  Value: 73
000001t:  Control change ::  Channel 4.  Controller 11.  Value: 72
000001t:  Control change ::  Channel 4.  Controller 11.  Value: 70
000002t:  Control change ::  Channel 4.  Controller 11.  Value: 68
000001t:  Control change ::  Channel 4.  Controller 11.  Value: 67
000001t:  Control change ::  Channel 4.  Controller 11.  Value: 66
000001t:  Control change ::  Channel 4.  Controller 11.  Value: 65
000002t:  Control change ::  Channel 4.  Controller 11.  Value: 64
000001t:  Control change ::  Channel 4.  Controller 11.  Value: 63
000001t:  Control change ::  Channel 4.  Controller 11.  Value: 62
000001t:  Control change ::  Channel 4.  Controller 11.  Value: 61
000002t:  Control change ::  Channel 4.  Controller 11.  Value: 60
000001t:  Control change ::  Channel 4.  Controller 11.  Value: 59
000002t:  Control change ::  Channel 4.  Controller 11.  Value: 58
000003t:  Control change ::  Channel 4.  Controller 11.  Value: 57
000002t:  Control change ::  Channel 4.  Controller 11.  Value: 56
000003t:  Control change ::  Channel 4.  Controller 11.  Value: 55
000003t:  Control change ::  Channel 4.  Controller 11.  Value: 54
000004t:  Control change ::  Channel 4.  Controller 11.  Value: 53
000005t:  Control change ::  Channel 4.  Controller 11.  Value: 52
000006t:  Control change ::  Channel 4.  Controller 11.  Value: 51
000011t:  Control change ::  Channel 4.  Controller 11.  Value: 50
000291t:  Note on ::  Channel 4.  Note 46.  Velocity 0
000002t:  Pitch wheel change ::  Channel 4.   -8192
000000t:  Control change ::  Channel 4.  Controller 11.  Value: 100
000000t:  Note on ::  Channel 4.  Note 46.  Velocity 80
000308t:  Note on ::  Channel 4.  Note 46.  Velocity 0
000004t:  Control change ::  Channel 4.  Controller 11.  Value: 100
000000t:  Pitch wheel change ::  Channel 4.   -8192
000002t:  Note on ::  Channel 4.  Note 46.  Velocity 80
000005t:  Pitch wheel change ::  Channel 4.   -8192
000010t:  Pitch wheel change ::  Channel 4.   -8192
000010t:  Pitch wheel change ::  Channel 4.   -8192
000009t:  Pitch wheel change ::  Channel 4.   -8192
000009t:  Pitch wheel change ::  Channel 4.   -8192
000008t:  Pitch wheel change ::  Channel 4.   -8192
000007t:  Pitch wheel change ::  Channel 4.   -8192
000007t:  Pitch wheel change ::  Channel 4.   -8192
000006t:  Pitch wheel change ::  Channel 4.   -8192
000006t:  Pitch wheel change ::  Channel 4.   -8192
000005t:  Pitch wheel change ::  Channel 4.   -8192
000005t:  Pitch wheel change ::  Channel 4.   -8192
000004t:  Pitch wheel change ::  Channel 4.   -8192
000003t:  Pitch wheel change ::  Channel 4.   -8192
000000t:  Control change ::  Channel 4.  Controller 11.  Value: 100
000001t:  Control change ::  Channel 4.  Controller 11.  Value: 96
000001t:  Control change ::  Channel 4.  Controller 11.  Value: 93
000001t:  Control change ::  Channel 4.  Controller 11.  Value: 91
000001t:  Control change ::  Channel 4.  Controller 11.  Value: 89
000001t:  Control change ::  Channel 4.  Controller 11.  Value: 86
000001t:  Control change ::  Channel 4.  Controller 11.  Value: 85
000001t:  Control change ::  Channel 4.  Controller 11.  Value: 83
000001t:  Control change ::  Channel 4.  Controller 11.  Value: 81
000001t:  Control change ::  Channel 4.  Controller 11.  Value: 79
000001t:  Control change ::  Channel 4.  Controller 11.  Value: 77
000001t:  Control change ::  Channel 4.  Controller 11.  Value: 76
000001t:  Control change ::  Channel 4.  Controller 11.  Value: 75
000001t:  Control change ::  Channel 4.  Controller 11.  Value: 73
000001t:  Control change ::  Channel 4.  Controller 11.  Value: 72
000001t:  Control change ::  Channel 4.  Controller 11.  Value: 70
000002t:  Control change ::  Channel 4.  Controller 11.  Value: 68
000001t:  Control change ::  Channel 4.  Controller 11.  Value: 67
000001t:  Control change ::  Channel 4.  Controller 11.  Value: 66
000001t:  Control change ::  Channel 4.  Controller 11.  Value: 65
000002t:  Control change ::  Channel 4.  Controller 11.  Value: 64
000001t:  Control change ::  Channel 4.  Controller 11.  Value: 63
000001t:  Control change ::  Channel 4.  Controller 11.  Value: 62
000001t:  Control change ::  Channel 4.  Controller 11.  Value: 61
000002t:  Control change ::  Channel 4.  Controller 11.  Value: 60
000001t:  Control change ::  Channel 4.  Controller 11.  Value: 59
000002t:  Control change ::  Channel 4.  Controller 11.  Value: 58
000003t:  Control change ::  Channel 4.  Controller 11.  Value: 57
000002t:  Control change ::  Channel 4.  Controller 11.  Value: 56
000003t:  Control change ::  Channel 4.  Controller 11.  Value: 55
000003t:  Control change ::  Channel 4.  Controller 11.  Value: 54
000004t:  Control change ::  Channel 4.  Controller 11.  Value: 53
000005t:  Control change ::  Channel 4.  Controller 11.  Value: 52
000006t:  Control change ::  Channel 4.  Controller 11.  Value: 51
000011t:  Control change ::  Channel 4.  Controller 11.  Value: 50
000291t:  Note on ::  Channel 4.  Note 46.  Velocity 0
000002t:  Pitch wheel change ::  Channel 4.   -8192
000000t:  Control change ::  Channel 4.  Controller 11.  Value: 100
000000t:  Note on ::  Channel 4.  Note 46.  Velocity 80
000308t:  Note on ::  Channel 4.  Note 46.  Velocity 0
000004t:  Control change ::  Channel 4.  Controller 11.  Value: 100
000000t:  Pitch wheel change ::  Channel 4.   -8192
000000t:  Note on ::  Channel 4.  Note 46.  Velocity 80
000005t:  Pitch wheel change ::  Channel 4.   -8192
000010t:  Pitch wheel change ::  Channel 4.   -8192
000010t:  Pitch wheel change ::  Channel 4.   -8192
000009t:  Pitch wheel change ::  Channel 4.   -8192
000009t:  Pitch wheel change ::  Channel 4.   -8192
000008t:  Pitch wheel change ::  Channel 4.   -8192
000007t:  Pitch wheel change ::  Channel 4.   -8192
000007t:  Pitch wheel change ::  Channel 4.   -8192
000006t:  Pitch wheel change ::  Channel 4.   -8192
000006t:  Pitch wheel change ::  Channel 4.   -8192
000005t:  Pitch wheel change ::  Channel 4.   -8192
000004t:  Pitch wheel change ::  Channel 4.   -8192
000004t:  Pitch wheel change ::  Channel 4.   -8192
000003t:  Pitch wheel change ::  Channel 4.   -8192
000000t:  Control change ::  Channel 4.  Controller 11.  Value: 100
000001t:  Control change ::  Channel 4.  Controller 11.  Value: 97
000001t:  Control change ::  Channel 4.  Controller 11.  Value: 95
000001t:  Control change ::  Channel 4.  Controller 11.  Value: 93
000001t:  Control change ::  Channel 4.  Controller 11.  Value: 91
000001t:  Control change ::  Channel 4.  Controller 11.  Value: 89
000001t:  Control change ::  Channel 4.  Controller 11.  Value: 88
000001t:  Control change ::  Channel 4.  Controller 11.  Value: 86
000001t:  Control change ::  Channel 4.  Controller 11.  Value: 85
000001t:  Control change ::  Channel 4.  Controller 11.  Value: 83
000001t:  Control change ::  Channel 4.  Controller 11.  Value: 82
000001t:  Control change ::  Channel 4.  Controller 11.  Value: 81
000001t:  Control change ::  Channel 4.  Controller 11.  Value: 80
000001t:  Control change ::  Channel 4.  Controller 11.  Value: 79
000001t:  Control change ::  Channel 4.  Controller 11.  Value: 77
000001t:  Control change ::  Channel 4.  Controller 11.  Value: 76
000002t:  Control change ::  Channel 4.  Controller 11.  Value: 75
000001t:  Control change ::  Channel 4.  Controller 11.  Value: 74
000001t:  Control change ::  Channel 4.  Controller 11.  Value: 73
000001t:  Control change ::  Channel 4.  Controller 11.  Value: 72
000002t:  Control change ::  Channel 4.  Controller 11.  Value: 71
000001t:  Control change ::  Channel 4.  Controller 11.  Value: 70
000002t:  Control change ::  Channel 4.  Controller 11.  Value: 69
000002t:  Control change ::  Channel 4.  Controller 11.  Value: 68
000001t:  Control change ::  Channel 4.  Controller 11.  Value: 67
000003t:  Control change ::  Channel 4.  Controller 11.  Value: 66
000002t:  Control change ::  Channel 4.  Controller 11.  Value: 65
000004t:  Control change ::  Channel 4.  Controller 11.  Value: 64
000004t:  Control change ::  Channel 4.  Controller 11.  Value: 63
000004t:  Control change ::  Channel 4.  Controller 11.  Value: 62
000008t:  Control change ::  Channel 4.  Controller 11.  Value: 61
000011t:  Control change ::  Channel 4.  Controller 11.  Value: 60
000294t:  Note on ::  Channel 4.  Note 46.  Velocity 0
000002t:  Pitch wheel change ::  Channel 4.   -8192
000000t:  Note on ::  Channel 4.  Note 46.  Velocity 80
000308t:  Note on ::  Channel 4.  Note 46.  Velocity 0
000004t:  Control change ::  Channel 4.  Controller 11.  Value: 100
000000t:  Pitch wheel change ::  Channel 4.   -8192
000000t:  Note on ::  Channel 4.  Note 46.  Velocity 80
000007t:  Pitch wheel change ::  Channel 4.   -8192
000010t:  Pitch wheel change ::  Channel 4.   -8192
000010t:  Pitch wheel change ::  Channel 4.   -8192
000009t:  Pitch wheel change ::  Channel 4.   -8192
000009t:  Pitch wheel change ::  Channel 4.   -8192
000008t:  Pitch wheel change ::  Channel 4.   -8192
000008t:  Pitch wheel change ::  Channel 4.   -8192
000007t:  Pitch wheel change ::  Channel 4.   -8192
000006t:  Pitch wheel change ::  Channel 4.   -8192
000006t:  Pitch wheel change ::  Channel 4.   -8192
000005t:  Pitch wheel change ::  Channel 4.   -8192
000004t:  Pitch wheel change ::  Channel 4.   -8192
000004t:  Pitch wheel change ::  Channel 4.   -8192
000003t:  Pitch wheel change ::  Channel 4.   -8192
000000t:  Control change ::  Channel 4.  Controller 11.  Value: 100
000001t:  Control change ::  Channel 4.  Controller 11.  Value: 98
000001t:  Control change ::  Channel 4.  Controller 11.  Value: 96
000001t:  Control change ::  Channel 4.  Controller 11.  Value: 95
000001t:  Control change ::  Channel 4.  Controller 11.  Value: 93
000001t:  Control change ::  Channel 4.  Controller 11.  Value: 92
000001t:  Control change ::  Channel 4.  Controller 11.  Value: 91
000001t:  Control change ::  Channel 4.  Controller 11.  Value: 89
000001t:  Control change ::  Channel 4.  Controller 11.  Value: 88
000001t:  Control change ::  Channel 4.  Controller 11.  Value: 87
000001t:  Control change ::  Channel 4.  Controller 11.  Value: 86
000001t:  Control change ::  Channel 4.  Controller 11.  Value: 85
000002t:  Control change ::  Channel 4.  Controller 11.  Value: 84
000001t:  Control change ::  Channel 4.  Controller 11.  Value: 83
000001t:  Control change ::  Channel 4.  Controller 11.  Value: 82
000002t:  Control change ::  Channel 4.  Controller 11.  Value: 81
000001t:  Control change ::  Channel 4.  Controller 11.  Value: 80
000002t:  Control change ::  Channel 4.  Controller 11.  Value: 79
000002t:  Control change ::  Channel 4.  Controller 11.  Value: 78
000001t:  Control change ::  Channel 4.  Controller 11.  Value: 77
000003t:  Control change ::  Channel 4.  Controller 11.  Value: 76
000002t:  Control change ::  Channel 4.  Controller 11.  Value: 75
000004t:  Control change ::  Channel 4.  Controller 11.  Value: 74
000003t:  Control change ::  Channel 4.  Controller 11.  Value: 73
000006t:  Control change ::  Channel 4.  Controller 11.  Value: 72
000006t:  Control change ::  Channel 4.  Controller 11.  Value: 71
000012t:  Control change ::  Channel 4.  Controller 11.  Value: 70
000295t:  Program (patch) change ::  Channel 4.  Patch 30 (Distortion Guitar)
000001t:  Control change ::  Channel 4.  Controller 7.  Value: 98
000001t:  Pitch wheel change ::  Channel 4.   -8192
000001t:  Control change ::  Channel 4.  Controller 11.  Value: 100
000001t:  Note on ::  Channel 4.  Note 46.  Velocity 0
000000t:  Note on ::  Channel 4.  Note 42.  Velocity 92
000001t:  Note on ::  Channel 4.  Note 49.  Velocity 92
000001t:  Note on ::  Channel 4.  Note 54.  Velocity 93
000001t:  Note on ::  Channel 4.  Note 61.  Velocity 100
000213t:  Note on ::  Channel 4.  Note 42.  Velocity 0
000001t:  Note on ::  Channel 4.  Note 49.  Velocity 0
000001t:  Note on ::  Channel 4.  Note 54.  Velocity 0
000000t:  Note on ::  Channel 4.  Note 61.  Velocity 0
000002t:  Program (patch) change ::  Channel 4.  Patch 28 (Electric Guitar(muted))
000000t:  Note on ::  Channel 4.  Note 54.  Velocity 94
000001t:  Note on ::  Channel 4.  Note 54.  Velocity 0
000000t:  Program (patch) change ::  Channel 4.  Patch 30 (Distortion Guitar)
000000t:  Note on ::  Channel 4.  Note 54.  Velocity 94
000000t:  Note on ::  Channel 4.  Note 61.  Velocity 100
000010t:  Note on ::  Channel 4.  Note 61.  Velocity 0
000000t:  Note on ::  Channel 4.  Note 54.  Velocity 0
000013t:  Program (patch) change ::  Channel 4.  Patch 28 (Electric Guitar(muted))
000000t:  Note on ::  Channel 4.  Note 54.  Velocity 95
000001t:  Note on ::  Channel 4.  Note 54.  Velocity 0
000000t:  Program (patch) change ::  Channel 4.  Patch 30 (Distortion Guitar)
000000t:  Note on ::  Channel 4.  Note 54.  Velocity 94
000000t:  Note on ::  Channel 4.  Note 61.  Velocity 100
000010t:  Note on ::  Channel 4.  Note 61.  Velocity 0
000000t:  Note on ::  Channel 4.  Note 54.  Velocity 0
000013t:  Program (patch) change ::  Channel 4.  Patch 28 (Electric Guitar(muted))
000000t:  Note on ::  Channel 4.  Note 54.  Velocity 95
000001t:  Note on ::  Channel 4.  Note 54.  Velocity 0
000000t:  Program (patch) change ::  Channel 4.  Patch 30 (Distortion Guitar)
000000t:  Note on ::  Channel 4.  Note 54.  Velocity 95
000000t:  Note on ::  Channel 4.  Note 61.  Velocity 100
000010t:  Note on ::  Channel 4.  Note 61.  Velocity 0
000000t:  Note on ::  Channel 4.  Note 54.  Velocity 0
000013t:  Program (patch) change ::  Channel 4.  Patch 28 (Electric Guitar(muted))
000000t:  Note on ::  Channel 4.  Note 54.  Velocity 93
000001t:  Note on ::  Channel 4.  Note 54.  Velocity 0
000000t:  Program (patch) change ::  Channel 4.  Patch 30 (Distortion Guitar)
000000t:  Note on ::  Channel 4.  Note 54.  Velocity 94
000000t:  Note on ::  Channel 4.  Note 61.  Velocity 100
000010t:  Note on ::  Channel 4.  Note 61.  Velocity 0
000000t:  Note on ::  Channel 4.  Note 54.  Velocity 0
000013t:  Program (patch) change ::  Channel 4.  Patch 28 (Electric Guitar(muted))
000000t:  Note on ::  Channel 4.  Note 54.  Velocity 94
000001t:  Note on ::  Channel 4.  Note 54.  Velocity 0
000000t:  Program (patch) change ::  Channel 4.  Patch 30 (Distortion Guitar)
000000t:  Note on ::  Channel 4.  Note 54.  Velocity 94
000000t:  Note on ::  Channel 4.  Note 61.  Velocity 100
000010t:  Note on ::  Channel 4.  Note 61.  Velocity 0
000000t:  Note on ::  Channel 4.  Note 54.  Velocity 0
000013t:  Program (patch) change ::  Channel 4.  Patch 28 (Electric Guitar(muted))
000000t:  Note on ::  Channel 4.  Note 54.  Velocity 94
000001t:  Note on ::  Channel 4.  Note 54.  Velocity 0
000000t:  Program (patch) change ::  Channel 4.  Patch 30 (Distortion Guitar)
000000t:  Note on ::  Channel 4.  Note 54.  Velocity 94
000000t:  Note on ::  Channel 4.  Note 61.  Velocity 100
000010t:  Note on ::  Channel 4.  Note 61.  Velocity 0
000000t:  Note on ::  Channel 4.  Note 54.  Velocity 0
000013t:  Pitch wheel change ::  Channel 4.   -8192
000000t:  Control change ::  Channel 4.  Controller 11.  Value: 120
000000t:  Program (patch) change ::  Channel 4.  Patch 28 (Electric Guitar(muted))
000000t:  Note on ::  Channel 4.  Note 54.  Velocity 100
000001t:  Program (patch) change ::  Channel 4.  Patch 30 (Distortion Guitar)
000000t:  Note on ::  Channel 4.  Note 61.  Velocity 118
000015t:  Pitch wheel change ::  Channel 4.   -8192
000006t:  Pitch wheel change ::  Channel 4.   -8192
000003t:  Pitch wheel change ::  Channel 4.   -8192
000003t:  Pitch wheel change ::  Channel 4.   -8192
000001t:  Control change ::  Channel 4.  Controller 11.  Value: 116
000001t:  Pitch wheel change ::  Channel 4.   -8192
000000t:  Control change ::  Channel 4.  Controller 11.  Value: 109
000001t:  Pitch wheel change ::  Channel 4.   -8192
000000t:  Control change ::  Channel 4.  Controller 11.  Value: 98
000001t:  Pitch wheel change ::  Channel 4.   -8192
000000t:  Control change ::  Channel 4.  Controller 11.  Value: 90
000001t:  Pitch wheel change ::  Channel 4.   -8192
000000t:  Control change ::  Channel 4.  Controller 11.  Value: 88
000001t:  Pitch wheel change ::  Channel 4.   -8192
000000t:  Control change ::  Channel 4.  Controller 11.  Value: 77
000001t:  Pitch wheel change ::  Channel 4.   -8192
000000t:  Control change ::  Channel 4.  Controller 11.  Value: 69
000001t:  Pitch wheel change ::  Channel 4.   -8192
000000t:  Control change ::  Channel 4.  Controller 11.  Value: 61
000001t:  Pitch wheel change ::  Channel 4.   -8192
000000t:  Control change ::  Channel 4.  Controller 11.  Value: 56
000001t:  Pitch wheel change ::  Channel 4.   -8192
000000t:  Control change ::  Channel 4.  Controller 11.  Value: 43
000001t:  Pitch wheel change ::  Channel 4.   -8192
000000t:  Control change ::  Channel 4.  Controller 11.  Value: 37
000001t:  Pitch wheel change ::  Channel 4.   -8192
000000t:  Control change ::  Channel 4.  Controller 11.  Value: 31
000001t:  Pitch wheel change ::  Channel 4.   -8192
000000t:  Pitch wheel change ::  Channel 4.   -8192
000000t:  Pitch wheel change ::  Channel 4.   -8192
000000t:  Control change ::  Channel 4.  Controller 7.  Value: 75
000001t:  Control change ::  Channel 4.  Controller 11.  Value: 100
000001t:  Pitch wheel change ::  Channel 4.   -8192
000001t:  Control change ::  Channel 4.  Controller 11.  Value: 120
000000t:  Note on ::  Channel 4.  Note 44.  Velocity 80
000001t:  Note on ::  Channel 4.  Note 51.  Velocity 83
000000t:  Control change ::  Channel 4.  Controller 11.  Value: 117
000001t:  Note on ::  Channel 4.  Note 61.  Velocity 0
000000t:  Note on ::  Channel 4.  Note 54.  Velocity 0
000000t:  Note on ::  Channel 4.  Note 56.  Velocity 87
000000t:  Control change ::  Channel 4.  Controller 11.  Value: 115
000001t:  Note on ::  Channel 4.  Note 60.  Velocity 92
000000t:  Control change ::  Channel 4.  Controller 11.  Value: 113
000001t:  Note on ::  Channel 4.  Note 63.  Velocity 98
000000t:  Note on ::  Channel 4.  Note 68.  Velocity 105
000000t:  Control change ::  Channel 4.  Controller 11.  Value: 111
000001t:  Control change ::  Channel 4.  Controller 11.  Value: 109
000001t:  Control change ::  Channel 4.  Controller 11.  Value: 108
000001t:  Control change ::  Channel 4.  Controller 11.  Value: 106
000001t:  Control change ::  Channel 4.  Controller 11.  Value: 105
000001t:  Control change ::  Channel 4.  Controller 11.  Value: 104
000001t:  Control change ::  Channel 4.  Controller 11.  Value: 103
000001t:  Control change ::  Channel 4.  Controller 11.  Value: 102
000001t:  Control change ::  Channel 4.  Controller 11.  Value: 101
000001t:  Control change ::  Channel 4.  Controller 11.  Value: 100
000001t:  Control change ::  Channel 4.  Controller 11.  Value: 99
000002t:  Control change ::  Channel 4.  Controller 11.  Value: 98
000001t:  Control change ::  Channel 4.  Controller 11.  Value: 97
000002t:  Control change ::  Channel 4.  Controller 11.  Value: 96
000002t:  Control change ::  Channel 4.  Controller 11.  Value: 95
000002t:  Control change ::  Channel 4.  Controller 11.  Value: 94
000003t:  Control change ::  Channel 4.  Controller 11.  Value: 93
000004t:  Control change ::  Channel 4.  Controller 11.  Value: 92
000004t:  Control change ::  Channel 4.  Controller 11.  Value: 91
000009t:  Control change ::  Channel 4.  Controller 11.  Value: 90
000025t:  Note on ::  Channel 4.  Note 44.  Velocity 0
000000t:  Pitch wheel change ::  Channel 4.   -8192
000001t:  Note on ::  Channel 4.  Note 51.  Velocity 0
000001t:  Note on ::  Channel 4.  Note 56.  Velocity 0
000000t:  Pitch wheel change ::  Channel 4.   -8192
000001t:  Note on ::  Channel 4.  Note 60.  Velocity 0
000001t:  Note on ::  Channel 4.  Note 63.  Velocity 0
000000t:  Note on ::  Channel 4.  Note 68.  Velocity 0
000000t:  Control change ::  Channel 4.  Controller 11.  Value: 120
000000t:  Note on ::  Channel 4.  Note 46.  Velocity 70
000001t:  Note on ::  Channel 4.  Note 46.  Velocity 0
000000t:  Pitch wheel change ::  Channel 4.   -8192
000000t:  Note on ::  Channel 4.  Note 46.  Velocity 80
000000t:  Control change ::  Channel 4.  Controller 11.  Value: 117
000001t:  Note on ::  Channel 4.  Note 53.  Velocity 83
000000t:  Control change ::  Channel 4.  Controller 11.  Value: 115
000001t:  Note on ::  Channel 4.  Note 58.  Velocity 87
000000t:  Control change ::  Channel 4.  Controller 11.  Value: 113
000001t:  Note on ::  Channel 4.  Note 61.  Velocity 92
000000t:  Control change ::  Channel 4.  Controller 11.  Value: 111
000001t:  Note on ::  Channel 4.  Note 65.  Velocity 98
000000t:  Note on ::  Channel 4.  Note 70.  Velocity 104
000000t:  Control change ::  Channel 4.  Controller 11.  Value: 109
000001t:  Control change ::  Channel 4.  Controller 11.  Value: 108
000001t:  Control change ::  Channel 4.  Controller 11.  Value: 106
000001t:  Control change ::  Channel 4.  Controller 11.  Value: 105
000001t:  Control change ::  Channel 4.  Controller 11.  Value: 104
000001t:  Control change ::  Channel 4.  Controller 11.  Value: 103
000001t:  Control change ::  Channel 4.  Controller 11.  Value: 102
000001t:  Control change ::  Channel 4.  Controller 11.  Value: 101
000001t:  Control change ::  Channel 4.  Controller 11.  Value: 100
000001t:  Control change ::  Channel 4.  Controller 11.  Value: 99
000002t:  Control change ::  Channel 4.  Controller 11.  Value: 98
000001t:  Control change ::  Channel 4.  Controller 11.  Value: 97
000002t:  Control change ::  Channel 4.  Controller 11.  Value: 96
000002t:  Control change ::  Channel 4.  Controller 11.  Value: 95
000002t:  Control change ::  Channel 4.  Controller 11.  Value: 94
000003t:  Control change ::  Channel 4.  Controller 11.  Value: 93
000004t:  Control change ::  Channel 4.  Controller 11.  Value: 92
000004t:  Control change ::  Channel 4.  Controller 11.  Value: 91
000009t:  Control change ::  Channel 4.  Controller 11.  Value: 90
000025t:  Pitch wheel change ::  Channel 4.   -8192
000001t:  Note on ::  Channel 4.  Note 46.  Velocity 0
000001t:  Note on ::  Channel 4.  Note 53.  Velocity 0
000000t:  Pitch wheel change ::  Channel 4.   -8192
000001t:  Note on ::  Channel 4.  Note 58.  Velocity 0
000001t:  Note on ::  Channel 4.  Note 61.  Velocity 0
000000t:  Control change ::  Channel 4.  Controller 11.  Value: 120
000000t:  Note on ::  Channel 4.  Note 42.  Velocity 60
000001t:  Note on ::  Channel 4.  Note 42.  Velocity 0
000000t:  Note on ::  Channel 4.  Note 65.  Velocity 0
000000t:  Note on ::  Channel 4.  Note 70.  Velocity 0
000000t:  Pitch wheel change ::  Channel 4.   -8192
000000t:  Note on ::  Channel 4.  Note 42.  Velocity 80
000000t:  Control change ::  Channel 4.  Controller 11.  Value: 117
000001t:  Note on ::  Channel 4.  Note 49.  Velocity 83
000000t:  Control change ::  Channel 4.  Controller 11.  Value: 115
000001t:  Note on ::  Channel 4.  Note 54.  Velocity 87
000000t:  Control change ::  Channel 4.  Controller 11.  Value: 113
000001t:  Note on ::  Channel 4.  Note 58.  Velocity 92
000000t:  Control change ::  Channel 4.  Controller 11.  Value: 111
000001t:  Note on ::  Channel 4.  Note 61.  Velocity 98
000000t:  Note on ::  Channel 4.  Note 66.  Velocity 105
000000t:  Control change ::  Channel 4.  Controller 11.  Value: 109
000001t:  Control change ::  Channel 4.  Controller 11.  Value: 108
000001t:  Control change ::  Channel 4.  Controller 11.  Value: 106
000001t:  Control change ::  Channel 4.  Controller 11.  Value: 105
000001t:  Control change ::  Channel 4.  Controller 11.  Value: 104
000001t:  Control change ::  Channel 4.  Controller 11.  Value: 103
000001t:  Control change ::  Channel 4.  Controller 11.  Value: 102
000001t:  Control change ::  Channel 4.  Controller 11.  Value: 101
000001t:  Control change ::  Channel 4.  Controller 11.  Value: 100
000001t:  Control change ::  Channel 4.  Controller 11.  Value: 99
000002t:  Control change ::  Channel 4.  Controller 11.  Value: 98
000001t:  Control change ::  Channel 4.  Controller 11.  Value: 97
000002t:  Control change ::  Channel 4.  Controller 11.  Value: 96
000002t:  Control change ::  Channel 4.  Controller 11.  Value: 95
000002t:  Control change ::  Channel 4.  Controller 11.  Value: 94
000003t:  Control change ::  Channel 4.  Controller 11.  Value: 93
000004t:  Control change ::  Channel 4.  Controller 11.  Value: 92
000004t:  Control change ::  Channel 4.  Controller 11.  Value: 91
000009t:  Control change ::  Channel 4.  Controller 11.  Value: 90
000025t:  Pitch wheel change ::  Channel 4.   -8192
000001t:  Note on ::  Channel 4.  Note 42.  Velocity 0
000001t:  Note on ::  Channel 4.  Note 49.  Velocity 0
000000t:  Pitch wheel change ::  Channel 4.   -8192
000001t:  Note on ::  Channel 4.  Note 54.  Velocity 0
000001t:  Note on ::  Channel 4.  Note 58.  Velocity 0
000000t:  Control change ::  Channel 4.  Controller 11.  Value: 120
000000t:  Note on ::  Channel 4.  Note 44.  Velocity 68
000001t:  Note on ::  Channel 4.  Note 44.  Velocity 0
000000t:  Note on ::  Channel 4.  Note 61.  Velocity 0
000000t:  Note on ::  Channel 4.  Note 66.  Velocity 0
000000t:  Pitch wheel change ::  Channel 4.   -8192
000000t:  Note on ::  Channel 4.  Note 44.  Velocity 80
000000t:  Control change ::  Channel 4.  Controller 11.  Value: 116
000001t:  Note on ::  Channel 4.  Note 51.  Velocity 83
000000t:  Control change ::  Channel 4.  Controller 11.  Value: 113
000001t:  Note on ::  Channel 4.  Note 56.  Velocity 87
000000t:  Control change ::  Channel 4.  Controller 11.  Value: 111
000001t:  Note on ::  Channel 4.  Note 60.  Velocity 92
000000t:  Control change ::  Channel 4.  Controller 11.  Value: 108
000001t:  Note on ::  Channel 4.  Note 63.  Velocity 98
000000t:  Note on ::  Channel 4.  Note 68.  Velocity 105
000000t:  Control change ::  Channel 4.  Controller 11.  Value: 106
000001t:  Control change ::  Channel 4.  Controller 11.  Value: 105
000001t:  Control change ::  Channel 4.  Controller 11.  Value: 103
000001t:  Control change ::  Channel 4.  Controller 11.  Value: 101
000001t:  Control change ::  Channel 4.  Controller 11.  Value: 100
000001t:  Control change ::  Channel 4.  Controller 11.  Value: 99
000001t:  Control change ::  Channel 4.  Controller 11.  Value: 98
000001t:  Control change ::  Channel 4.  Controller 11.  Value: 97
000001t:  Control change ::  Channel 4.  Controller 11.  Value: 96
000001t:  Control change ::  Channel 4.  Controller 11.  Value: 95
000002t:  Control change ::  Channel 4.  Controller 11.  Value: 94
000002t:  Control change ::  Channel 4.  Controller 11.  Value: 93
000002t:  Control change ::  Channel 4.  Controller 11.  Value: 92
000003t:  Control change ::  Channel 4.  Controller 11.  Value: 91
000006t:  Control change ::  Channel 4.  Controller 11.  Value: 90
000010t:  Note on ::  Channel 4.  Note 44.  Velocity 0
000001t:  Note on ::  Channel 4.  Note 51.  Velocity 0
000001t:  Note on ::  Channel 4.  Note 56.  Velocity 0
000001t:  Note on ::  Channel 4.  Note 60.  Velocity 0
000001t:  Note on ::  Channel 4.  Note 63.  Velocity 0
000000t:  Note on ::  Channel 4.  Note 68.  Velocity 0
000005t:  Control change ::  Channel 4.  Controller 11.  Value: 120
000000t:  Note on ::  Channel 4.  Note 49.  Velocity 90
000001t:  Note on ::  Channel 4.  Note 56.  Velocity 93
000000t:  Control change ::  Channel 4.  Controller 11.  Value: 113
000001t:  Note on ::  Channel 4.  Note 61.  Velocity 97
000000t:  Note on ::  Channel 4.  Note 65.  Velocity 104
000000t:  Control change ::  Channel 4.  Controller 11.  Value: 108
000001t:  Control change ::  Channel 4.  Controller 11.  Value: 105
000001t:  Control change ::  Channel 4.  Controller 11.  Value: 101
000001t:  Control change ::  Channel 4.  Controller 11.  Value: 99
000001t:  Control change ::  Channel 4.  Controller 11.  Value: 97
000001t:  Control change ::  Channel 4.  Controller 11.  Value: 95
000001t:  Control change ::  Channel 4.  Controller 11.  Value: 94
000001t:  Control change ::  Channel 4.  Controller 11.  Value: 93
000001t:  Control change ::  Channel 4.  Controller 11.  Value: 92
000002t:  Control change ::  Channel 4.  Controller 11.  Value: 91
000003t:  Control change ::  Channel 4.  Controller 11.  Value: 90
000003t:  Note on ::  Channel 4.  Note 49.  Velocity 0
000001t:  Note on ::  Channel 4.  Note 56.  Velocity 0
000001t:  Note on ::  Channel 4.  Note 61.  Velocity 0
000000t:  Note on ::  Channel 4.  Note 65.  Velocity 0
000004t:  Control change ::  Channel 4.  Controller 11.  Value: 120
000000t:  Note on ::  Channel 4.  Note 49.  Velocity 90
000001t:  Note on ::  Channel 4.  Note 56.  Velocity 93
000000t:  Control change ::  Channel 4.  Controller 11.  Value: 118
000001t:  Note on ::  Channel 4.  Note 61.  Velocity 97
000000t:  Note on ::  Channel 4.  Note 65.  Velocity 104
000000t:  Control change ::  Channel 4.  Controller 11.  Value: 116
000001t:  Control change ::  Channel 4.  Controller 11.  Value: 114
000001t:  Control change ::  Channel 4.  Controller 11.  Value: 113
000001t:  Control change ::  Channel 4.  Controller 11.  Value: 112
000001t:  Control change ::  Channel 4.  Controller 11.  Value: 110
000001t:  Control change ::  Channel 4.  Controller 11.  Value: 109
000001t:  Control change ::  Channel 4.  Controller 11.  Value: 108
000001t:  Control change ::  Channel 4.  Controller 11.  Value: 106
000002t:  Control change ::  Channel 4.  Controller 11.  Value: 105
000001t:  Control change ::  Channel 4.  Controller 11.  Value: 104
000001t:  Control change ::  Channel 4.  Controller 11.  Value: 103
000001t:  Control change ::  Channel 4.  Controller 11.  Value: 102
000002t:  Control change ::  Channel 4.  Controller 11.  Value: 101
000001t:  Control change ::  Channel 4.  Controller 11.  Value: 100
000001t:  Control change ::  Channel 4.  Controller 11.  Value: 99
000002t:  Control change ::  Channel 4.  Controller 11.  Value: 98
000002t:  Control change ::  Channel 4.  Controller 11.  Value: 97
000002t:  Control change ::  Channel 4.  Controller 11.  Value: 96
000003t:  Control change ::  Channel 4.  Controller 11.  Value: 95
000003t:  Control change ::  Channel 4.  Controller 11.  Value: 94
000003t:  Control change ::  Channel 4.  Controller 11.  Value: 93
000005t:  Control change ::  Channel 4.  Controller 11.  Value: 92
000006t:  Control change ::  Channel 4.  Controller 11.  Value: 91
000012t:  Control change ::  Channel 4.  Controller 11.  Value: 90
000132t:  Note on ::  Channel 4.  Note 49.  Velocity 0
000001t:  Note on ::  Channel 4.  Note 56.  Velocity 0
000001t:  Note on ::  Channel 4.  Note 61.  Velocity 0
000000t:  Note on ::  Channel 4.  Note 65.  Velocity 0
000002t:  Control change ::  Channel 4.  Controller 11.  Value: 120
000000t:  Note on ::  Channel 4.  Note 44.  Velocity 80
000001t:  Note on ::  Channel 4.  Note 51.  Velocity 83
000000t:  Control change ::  Channel 4.  Controller 11.  Value: 117
000001t:  Note on ::  Channel 4.  Note 56.  Velocity 87
000000t:  Control change ::  Channel 4.  Controller 11.  Value: 115
000001t:  Note on ::  Channel 4.  Note 60.  Velocity 92
000000t:  Control change ::  Channel 4.  Controller 11.  Value: 113
000001t:  Note on ::  Channel 4.  Note 63.  Velocity 98
000000t:  Note on ::  Channel 4.  Note 68.  Velocity 105
000000t:  Control change ::  Channel 4.  Controller 11.  Value: 111
000001t:  Control change ::  Channel 4.  Controller 11.  Value: 109
000001t:  Control change ::  Channel 4.  Controller 11.  Value: 108
000001t:  Control change ::  Channel 4.  Controller 11.  Value: 106
000001t:  Control change ::  Channel 4.  Controller 11.  Value: 105
000001t:  Control change ::  Channel 4.  Controller 11.  Value: 104
000001t:  Control change ::  Channel 4.  Controller 11.  Value: 103
000001t:  Control change ::  Channel 4.  Controller 11.  Value: 102
000001t:  Control change ::  Channel 4.  Controller 11.  Value: 101
000001t:  Control change ::  Channel 4.  Controller 11.  Value: 100
000001t:  Control change ::  Channel 4.  Controller 11.  Value: 99
000002t:  Control change ::  Channel 4.  Controller 11.  Value: 98
000001t:  Control change ::  Channel 4.  Controller 11.  Value: 97
000002t:  Control change ::  Channel 4.  Controller 11.  Value: 96
000002t:  Control change ::  Channel 4.  Controller 11.  Value: 95
000002t:  Control change ::  Channel 4.  Controller 11.  Value: 94
000003t:  Control change ::  Channel 4.  Controller 11.  Value: 93
000004t:  Control change ::  Channel 4.  Controller 11.  Value: 92
000004t:  Control change ::  Channel 4.  Controller 11.  Value: 91
000009t:  Control change ::  Channel 4.  Controller 11.  Value: 90
000025t:  Note on ::  Channel 4.  Note 44.  Velocity 0
000000t:  Pitch wheel change ::  Channel 4.   -8192
000001t:  Note on ::  Channel 4.  Note 51.  Velocity 0
000001t:  Note on ::  Channel 4.  Note 56.  Velocity 0
000000t:  Pitch wheel change ::  Channel 4.   -8192
000001t:  Note on ::  Channel 4.  Note 60.  Velocity 0
000001t:  Note on ::  Channel 4.  Note 63.  Velocity 0
000000t:  Note on ::  Channel 4.  Note 68.  Velocity 0
000000t:  Control change ::  Channel 4.  Controller 11.  Value: 120
000000t:  Note on ::  Channel 4.  Note 46.  Velocity 60
000001t:  Note on ::  Channel 4.  Note 46.  Velocity 0
000000t:  Pitch wheel change ::  Channel 4.   -8192
000000t:  Note on ::  Channel 4.  Note 46.  Velocity 80
000000t:  Control change ::  Channel 4.  Controller 11.  Value: 117
000001t:  Note on ::  Channel 4.  Note 53.  Velocity 83
000000t:  Control change ::  Channel 4.  Controller 11.  Value: 115
000001t:  Note on ::  Channel 4.  Note 58.  Velocity 87
000000t:  Control change ::  Channel 4.  Controller 11.  Value: 113
000001t:  Note on ::  Channel 4.  Note 61.  Velocity 92
000000t:  Control change ::  Channel 4.  Controller 11.  Value: 111
000001t:  Note on ::  Channel 4.  Note 65.  Velocity 98
000000t:  Note on ::  Channel 4.  Note 70.  Velocity 105
000000t:  Control change ::  Channel 4.  Controller 11.  Value: 110
000001t:  Control change ::  Channel 4.  Controller 11.  Value: 108
000001t:  Control change ::  Channel 4.  Controller 11.  Value: 107
000001t:  Control change ::  Channel 4.  Controller 11.  Value: 105
000002t:  Control change ::  Channel 4.  Controller 11.  Value: 103
000001t:  Control change ::  Channel 4.  Controller 11.  Value: 102
000001t:  Control change ::  Channel 4.  Controller 11.  Value: 101
000001t:  Control change ::  Channel 4.  Controller 11.  Value: 100
000002t:  Control change ::  Channel 4.  Controller 11.  Value: 99
000001t:  Control change ::  Channel 4.  Controller 11.  Value: 98
000001t:  Control change ::  Channel 4.  Controller 11.  Value: 97
000002t:  Control change ::  Channel 4.  Controller 11.  Value: 96
000002t:  Control change ::  Channel 4.  Controller 11.  Value: 95
000003t:  Control change ::  Channel 4.  Controller 11.  Value: 94
000002t:  Control change ::  Channel 4.  Controller 11.  Value: 93
000004t:  Control change ::  Channel 4.  Controller 11.  Value: 92
000005t:  Control change ::  Channel 4.  Controller 11.  Value: 91
000009t:  Control change ::  Channel 4.  Controller 11.  Value: 90
000024t:  Pitch wheel change ::  Channel 4.   -8192
000001t:  Note on ::  Channel 4.  Note 46.  Velocity 0
000001t:  Note on ::  Channel 4.  Note 53.  Velocity 0
000000t:  Pitch wheel change ::  Channel 4.   -8192
000001t:  Note on ::  Channel 4.  Note 58.  Velocity 0
000001t:  Note on ::  Channel 4.  Note 61.  Velocity 0
000001t:  Note on ::  Channel 4.  Note 65.  Velocity 0
000000t:  Note on ::  Channel 4.  Note 70.  Velocity 0
000000t:  Control change ::  Channel 4.  Controller 11.  Value: 120
000000t:  Note on ::  Channel 4.  Note 42.  Velocity 68
000001t:  Note on ::  Channel 4.  Note 42.  Velocity 0
000000t:  Pitch wheel change ::  Channel 4.   -8192
000000t:  Note on ::  Channel 4.  Note 42.  Velocity 80
000000t:  Control change ::  Channel 4.  Controller 11.  Value: 117
000001t:  Note on ::  Channel 4.  Note 49.  Velocity 83
000000t:  Control change ::  Channel 4.  Controller 11.  Value: 115
000001t:  Note on ::  Channel 4.  Note 54.  Velocity 87
000000t:  Control change ::  Channel 4.  Controller 11.  Value: 113
000001t:  Note on ::  Channel 4.  Note 58.  Velocity 92
000000t:  Control change ::  Channel 4.  Controller 11.  Value: 111
000001t:  Note on ::  Channel 4.  Note 61.  Velocity 98
000000t:  Note on ::  Channel 4.  Note 66.  Velocity 105
000000t:  Control change ::  Channel 4.  Controller 11.  Value: 109
000001t:  Control change ::  Channel 4.  Controller 11.  Value: 108
000001t:  Control change ::  Channel 4.  Controller 11.  Value: 106
000001t:  Control change ::  Channel 4.  Controller 11.  Value: 105
000001t:  Control change ::  Channel 4.  Controller 11.  Value: 104
000001t:  Control change ::  Channel 4.  Controller 11.  Value: 103
000001t:  Control change ::  Channel 4.  Controller 11.  Value: 102
000001t:  Control change ::  Channel 4.  Controller 11.  Value: 101
000001t:  Control change ::  Channel 4.  Controller 11.  Value: 100
000001t:  Control change ::  Channel 4.  Controller 11.  Value: 99
000002t:  Control change ::  Channel 4.  Controller 11.  Value: 98
000001t:  Control change ::  Channel 4.  Controller 11.  Value: 97
000002t:  Control change ::  Channel 4.  Controller 11.  Value: 96
000001t:  Control change ::  Channel 4.  Controller 11.  Value: 95
000003t:  Control change ::  Channel 4.  Controller 11.  Value: 94
000002t:  Control change ::  Channel 4.  Controller 11.  Value: 93
000004t:  Control change ::  Channel 4.  Controller 11.  Value: 92
000005t:  Control change ::  Channel 4.  Controller 11.  Value: 91
000009t:  Control change ::  Channel 4.  Controller 11.  Value: 90
000024t:  Pitch wheel change ::  Channel 4.   -8192
000002t:  Note on ::  Channel 4.  Note 42.  Velocity 0
000000t:  Pitch wheel change ::  Channel 4.   -8192
000001t:  Note on ::  Channel 4.  Note 49.  Velocity 0
000001t:  Note on ::  Channel 4.  Note 54.  Velocity 0
000000t:  Control change ::  Channel 4.  Controller 11.  Value: 120
000000t:  Note on ::  Channel 4.  Note 44.  Velocity 72
000001t:  Note on ::  Channel 4.  Note 44.  Velocity 0
000000t:  Note on ::  Channel 4.  Note 58.  Velocity 0
000000t:  Pitch wheel change ::  Channel 4.   -8192
000000t:  Note on ::  Channel 4.  Note 44.  Velocity 80
000000t:  Control change ::  Channel 4.  Controller 11.  Value: 116
000001t:  Note on ::  Channel 4.  Note 61.  Velocity 0
000000t:  Note on ::  Channel 4.  Note 66.  Velocity 0
000000t:  Note on ::  Channel 4.  Note 51.  Velocity 83
000000t:  Control change ::  Channel 4.  Controller 11.  Value: 113
000001t:  Note on ::  Channel 4.  Note 56.  Velocity 87
000000t:  Control change ::  Channel 4.  Controller 11.  Value: 110
000001t:  Note on ::  Channel 4.  Note 60.  Velocity 92
000000t:  Control change ::  Channel 4.  Controller 11.  Value: 108
000001t:  Note on ::  Channel 4.  Note 63.  Velocity 98
000000t:  Note on ::  Channel 4.  Note 68.  Velocity 105
000000t:  Control change ::  Channel 4.  Controller 11.  Value: 106
000001t:  Control change ::  Channel 4.  Controller 11.  Value: 104
000001t:  Control change ::  Channel 4.  Controller 11.  Value: 102
000001t:  Control change ::  Channel 4.  Controller 11.  Value: 101
000001t:  Control change ::  Channel 4.  Controller 11.  Value: 100
000001t:  Control change ::  Channel 4.  Controller 11.  Value: 99
000001t:  Control change ::  Channel 4.  Controller 11.  Value: 98
000001t:  Control change ::  Channel 4.  Controller 11.  Value: 97
000001t:  Control change ::  Channel 4.  Controller 11.  Value: 96
000001t:  Control change ::  Channel 4.  Controller 11.  Value: 95
000002t:  Control change ::  Channel 4.  Controller 11.  Value: 94
000001t:  Control change ::  Channel 4.  Controller 11.  Value: 93
000003t:  Control change ::  Channel 4.  Controller 11.  Value: 92
000003t:  Control change ::  Channel 4.  Controller 11.  Value: 91
000006t:  Control change ::  Channel 4.  Controller 11.  Value: 90
000010t:  Note on ::  Channel 4.  Note 44.  Velocity 0
000001t:  Note on ::  Channel 4.  Note 51.  Velocity 0
000001t:  Note on ::  Channel 4.  Note 56.  Velocity 0
000001t:  Note on ::  Channel 4.  Note 60.  Velocity 0
000001t:  Note on ::  Channel 4.  Note 63.  Velocity 0
000000t:  Note on ::  Channel 4.  Note 68.  Velocity 0
000005t:  Control change ::  Channel 4.  Controller 11.  Value: 120
000000t:  Note on ::  Channel 4.  Note 49.  Velocity 90
000001t:  Note on ::  Channel 4.  Note 56.  Velocity 94
000000t:  Control change ::  Channel 4.  Controller 11.  Value: 113
000001t:  Note on ::  Channel 4.  Note 61.  Velocity 99
000000t:  Note on ::  Channel 4.  Note 65.  Velocity 105
000000t:  Control change ::  Channel 4.  Controller 11.  Value: 108
000001t:  Control change ::  Channel 4.  Controller 11.  Value: 104
000001t:  Control change ::  Channel 4.  Controller 11.  Value: 101
000001t:  Control change ::  Channel 4.  Controller 11.  Value: 98
000001t:  Control change ::  Channel 4.  Controller 11.  Value: 96
000001t:  Control change ::  Channel 4.  Controller 11.  Value: 95
000001t:  Control change ::  Channel 4.  Controller 11.  Value: 94
000001t:  Control change ::  Channel 4.  Controller 11.  Value: 93
000001t:  Control change ::  Channel 4.  Controller 11.  Value: 92
000001t:  Control change ::  Channel 4.  Controller 11.  Value: 91
000003t:  Control change ::  Channel 4.  Controller 11.  Value: 90
000004t:  Note on ::  Channel 4.  Note 49.  Velocity 0
000001t:  Note on ::  Channel 4.  Note 56.  Velocity 0
000001t:  Note on ::  Channel 4.  Note 61.  Velocity 0
000000t:  Note on ::  Channel 4.  Note 65.  Velocity 0
000004t:  Control change ::  Channel 4.  Controller 11.  Value: 120
000000t:  Note on ::  Channel 4.  Note 49.  Velocity 90
000001t:  Note on ::  Channel 4.  Note 56.  Velocity 94
000000t:  Control change ::  Channel 4.  Controller 11.  Value: 117
000001t:  Note on ::  Channel 4.  Note 61.  Velocity 99
000000t:  Note on ::  Channel 4.  Note 65.  Velocity 105
000000t:  Control change ::  Channel 4.  Controller 11.  Value: 115
000001t:  Control change ::  Channel 4.  Controller 11.  Value: 114
000001t:  Control change ::  Channel 4.  Controller 11.  Value: 112
000001t:  Control change ::  Channel 4.  Controller 11.  Value: 111
000001t:  Control change ::  Channel 4.  Controller 11.  Value: 109
000001t:  Control change ::  Channel 4.  Controller 11.  Value: 108
000001t:  Control change ::  Channel 4.  Controller 11.  Value: 107
000001t:  Control change ::  Channel 4.  Controller 11.  Value: 106
000001t:  Control change ::  Channel 4.  Controller 11.  Value: 105
000001t:  Control change ::  Channel 4.  Controller 11.  Value: 104
000001t:  Control change ::  Channel 4.  Controller 11.  Value: 103
000001t:  Control change ::  Channel 4.  Controller 11.  Value: 102
000001t:  Control change ::  Channel 4.  Controller 11.  Value: 101
000002t:  Control change ::  Channel 4.  Controller 11.  Value: 100
000001t:  Control change ::  Channel 4.  Controller 11.  Value: 99
000002t:  Control change ::  Channel 4.  Controller 11.  Value: 98
000001t:  Control change ::  Channel 4.  Controller 11.  Value: 97
000002t:  Control change ::  Channel 4.  Controller 11.  Value: 96
000003t:  Control change ::  Channel 4.  Controller 11.  Value: 95
000003t:  Control change ::  Channel 4.  Controller 11.  Value: 94
000003t:  Control change ::  Channel 4.  Controller 11.  Value: 93
000004t:  Control change ::  Channel 4.  Controller 11.  Value: 92
000006t:  Control change ::  Channel 4.  Controller 11.  Value: 91
000011t:  Control change ::  Channel 4.  Controller 11.  Value: 90
000136t:  Note on ::  Channel 4.  Note 49.  Velocity 0
000001t:  Note on ::  Channel 4.  Note 56.  Velocity 0
000002t:  Note on ::  Channel 4.  Note 61.  Velocity 0
000000t:  Note on ::  Channel 4.  Note 65.  Velocity 0
000001t:  Control change ::  Channel 4.  Controller 11.  Value: 120
000000t:  Note on ::  Channel 4.  Note 44.  Velocity 80
000001t:  Note on ::  Channel 4.  Note 51.  Velocity 83
000000t:  Control change ::  Channel 4.  Controller 11.  Value: 117
000001t:  Note on ::  Channel 4.  Note 56.  Velocity 87
000000t:  Control change ::  Channel 4.  Controller 11.  Value: 115
000001t:  Note on ::  Channel 4.  Note 60.  Velocity 92
000000t:  Control change ::  Channel 4.  Controller 11.  Value: 113
000001t:  Note on ::  Channel 4.  Note 63.  Velocity 98
000000t:  Note on ::  Channel 4.  Note 68.  Velocity 105
000000t:  Control change ::  Channel 4.  Controller 11.  Value: 111
000001t:  Control change ::  Channel 4.  Controller 11.  Value: 109
000001t:  Control change ::  Channel 4.  Controller 11.  Value: 108
000001t:  Control change ::  Channel 4.  Controller 11.  Value: 106
000001t:  Control change ::  Channel 4.  Controller 11.  Value: 105
000001t:  Control change ::  Channel 4.  Controller 11.  Value: 104
000001t:  Control change ::  Channel 4.  Controller 11.  Value: 103
000001t:  Control change ::  Channel 4.  Controller 11.  Value: 102
000001t:  Control change ::  Channel 4.  Controller 11.  Value: 101
000001t:  Control change ::  Channel 4.  Controller 11.  Value: 100
000001t:  Control change ::  Channel 4.  Controller 11.  Value: 99
000002t:  Control change ::  Channel 4.  Controller 11.  Value: 98
000001t:  Control change ::  Channel 4.  Controller 11.  Value: 97
000002t:  Control change ::  Channel 4.  Controller 11.  Value: 96
000002t:  Control change ::  Channel 4.  Controller 11.  Value: 95
000002t:  Control change ::  Channel 4.  Controller 11.  Value: 94
000003t:  Control change ::  Channel 4.  Controller 11.  Value: 93
000004t:  Control change ::  Channel 4.  Controller 11.  Value: 92
000004t:  Control change ::  Channel 4.  Controller 11.  Value: 91
000009t:  Control change ::  Channel 4.  Controller 11.  Value: 90
000025t:  Pitch wheel change ::  Channel 4.   -8192
000001t:  Note on ::  Channel 4.  Note 51.  Velocity 0
000000t:  Note on ::  Channel 4.  Note 44.  Velocity 0
000001t:  Note on ::  Channel 4.  Note 56.  Velocity 0
000001t:  Note on ::  Channel 4.  Note 60.  Velocity 0
000000t:  Pitch wheel change ::  Channel 4.   -8192
000001t:  Note on ::  Channel 4.  Note 63.  Velocity 0
000000t:  Note on ::  Channel 4.  Note 68.  Velocity 0
000002t:  Control change ::  Channel 4.  Controller 11.  Value: 120
000000t:  Note on ::  Channel 4.  Note 46.  Velocity 80
000000t:  Pitch wheel change ::  Channel 4.   -8192
000001t:  Note on ::  Channel 4.  Note 53.  Velocity 83
000000t:  Control change ::  Channel 4.  Controller 11.  Value: 117
000001t:  Note on ::  Channel 4.  Note 58.  Velocity 87
000000t:  Control change ::  Channel 4.  Controller 11.  Value: 115
000001t:  Note on ::  Channel 4.  Note 61.  Velocity 92
000000t:  Control change ::  Channel 4.  Controller 11.  Value: 113
000001t:  Note on ::  Channel 4.  Note 65.  Velocity 98
000000t:  Note on ::  Channel 4.  Note 70.  Velocity 105
000000t:  Control change ::  Channel 4.  Controller 11.  Value: 111
000001t:  Control change ::  Channel 4.  Controller 11.  Value: 109
000001t:  Control change ::  Channel 4.  Controller 11.  Value: 108
000001t:  Control change ::  Channel 4.  Controller 11.  Value: 106
000001t:  Control change ::  Channel 4.  Controller 11.  Value: 105
000001t:  Control change ::  Channel 4.  Controller 11.  Value: 104
000001t:  Control change ::  Channel 4.  Controller 11.  Value: 103
000001t:  Control change ::  Channel 4.  Controller 11.  Value: 102
000001t:  Control change ::  Channel 4.  Controller 11.  Value: 101
000001t:  Control change ::  Channel 4.  Controller 11.  Value: 100
000001t:  Control change ::  Channel 4.  Controller 11.  Value: 99
000002t:  Control change ::  Channel 4.  Controller 11.  Value: 98
000001t:  Control change ::  Channel 4.  Controller 11.  Value: 97
000002t:  Control change ::  Channel 4.  Controller 11.  Value: 96
000001t:  Control change ::  Channel 4.  Controller 11.  Value: 95
000003t:  Control change ::  Channel 4.  Controller 11.  Value: 94
000002t:  Control change ::  Channel 4.  Controller 11.  Value: 93
000004t:  Control change ::  Channel 4.  Controller 11.  Value: 92
000005t:  Control change ::  Channel 4.  Controller 11.  Value: 91
000009t:  Control change ::  Channel 4.  Controller 11.  Value: 90
000024t:  Pitch wheel change ::  Channel 4.   -8192
000001t:  Note on ::  Channel 4.  Note 46.  Velocity 0
000001t:  Note on ::  Channel 4.  Note 53.  Velocity 0
000000t:  Pitch wheel change ::  Channel 4.   -8192
000001t:  Note on ::  Channel 4.  Note 58.  Velocity 0
000001t:  Note on ::  Channel 4.  Note 61.  Velocity 0
000000t:  Control change ::  Channel 4.  Controller 11.  Value: 120
000000t:  Note on ::  Channel 4.  Note 42.  Velocity 80
000000t:  Pitch wheel change ::  Channel 4.   -8192
000001t:  Note on ::  Channel 4.  Note 65.  Velocity 0
000000t:  Note on ::  Channel 4.  Note 70.  Velocity 0
000000t:  Note on ::  Channel 4.  Note 49.  Velocity 83
000000t:  Control change ::  Channel 4.  Controller 11.  Value: 117
000001t:  Note on ::  Channel 4.  Note 54.  Velocity 87
000000t:  Control change ::  Channel 4.  Controller 11.  Value: 115
000001t:  Note on ::  Channel 4.  Note 58.  Velocity 92
000000t:  Control change ::  Channel 4.  Controller 11.  Value: 113
000001t:  Note on ::  Channel 4.  Note 61.  Velocity 98
000000t:  Note on ::  Channel 4.  Note 66.  Velocity 105
000000t:  Control change ::  Channel 4.  Controller 11.  Value: 111
000001t:  Control change ::  Channel 4.  Controller 11.  Value: 109
000001t:  Control change ::  Channel 4.  Controller 11.  Value: 108
000001t:  Control change ::  Channel 4.  Controller 11.  Value: 106
000001t:  Control change ::  Channel 4.  Controller 11.  Value: 105
000001t:  Control change ::  Channel 4.  Controller 11.  Value: 104
000001t:  Control change ::  Channel 4.  Controller 11.  Value: 103
000001t:  Control change ::  Channel 4.  Controller 11.  Value: 102
000001t:  Control change ::  Channel 4.  Controller 11.  Value: 101
000001t:  Control change ::  Channel 4.  Controller 11.  Value: 100
000001t:  Control change ::  Channel 4.  Controller 11.  Value: 99
000002t:  Control change ::  Channel 4.  Controller 11.  Value: 98
000001t:  Control change ::  Channel 4.  Controller 11.  Value: 97
000002t:  Control change ::  Channel 4.  Controller 11.  Value: 96
000001t:  Control change ::  Channel 4.  Controller 11.  Value: 95
000003t:  Control change ::  Channel 4.  Controller 11.  Value: 94
000002t:  Control change ::  Channel 4.  Controller 11.  Value: 93
000004t:  Control change ::  Channel 4.  Controller 11.  Value: 92
000005t:  Control change ::  Channel 4.  Controller 11.  Value: 91
000009t:  Control change ::  Channel 4.  Controller 11.  Value: 90
000023t:  Pitch wheel change ::  Channel 4.   -8192
000002t:  Note on ::  Channel 4.  Note 42.  Velocity 0
000000t:  Pitch wheel change ::  Channel 4.   -8192
000001t:  Note on ::  Channel 4.  Note 49.  Velocity 0
000001t:  Note on ::  Channel 4.  Note 54.  Velocity 0
000000t:  Control change ::  Channel 4.  Controller 11.  Value: 120
000000t:  Note on ::  Channel 4.  Note 44.  Velocity 80
000000t:  Pitch wheel change ::  Channel 4.   -8192
000001t:  Note on ::  Channel 4.  Note 58.  Velocity 0
000000t:  Note on ::  Channel 4.  Note 51.  Velocity 83
000000t:  Control change ::  Channel 4.  Controller 11.  Value: 116
000001t:  Note on ::  Channel 4.  Note 66.  Velocity 0
000000t:  Note on ::  Channel 4.  Note 61.  Velocity 0
000000t:  Note on ::  Channel 4.  Note 56.  Velocity 87
000000t:  Control change ::  Channel 4.  Controller 11.  Value: 114
000001t:  Note on ::  Channel 4.  Note 60.  Velocity 92
000000t:  Control change ::  Channel 4.  Controller 11.  Value: 112
000001t:  Note on ::  Channel 4.  Note 63.  Velocity 98
000000t:  Note on ::  Channel 4.  Note 68.  Velocity 105
000000t:  Control change ::  Channel 4.  Controller 11.  Value: 109
000001t:  Control change ::  Channel 4.  Controller 11.  Value: 107
000001t:  Control change ::  Channel 4.  Controller 11.  Value: 106
000001t:  Control change ::  Channel 4.  Controller 11.  Value: 104
000001t:  Control change ::  Channel 4.  Controller 11.  Value: 103
000001t:  Control change ::  Channel 4.  Controller 11.  Value: 102
000001t:  Control change ::  Channel 4.  Controller 11.  Value: 101
000001t:  Control change ::  Channel 4.  Controller 11.  Value: 100
000001t:  Control change ::  Channel 4.  Controller 11.  Value: 99
000001t:  Control change ::  Channel 4.  Controller 11.  Value: 98
000002t:  Control change ::  Channel 4.  Controller 11.  Value: 97
000002t:  Control change ::  Channel 4.  Controller 11.  Value: 96
000002t:  Control change ::  Channel 4.  Controller 11.  Value: 95
000004t:  Control change ::  Channel 4.  Controller 11.  Value: 94
000005t:  Control change ::  Channel 4.  Controller 11.  Value: 93
000010t:  Note on ::  Channel 4.  Note 44.  Velocity 0
000001t:  Note on ::  Channel 4.  Note 51.  Velocity 0
000001t:  Note on ::  Channel 4.  Note 56.  Velocity 0
000001t:  Note on ::  Channel 4.  Note 60.  Velocity 0
000001t:  Note on ::  Channel 4.  Note 63.  Velocity 0
000002t:  Note on ::  Channel 4.  Note 68.  Velocity 0
000002t:  Pitch wheel change ::  Channel 4.   -8192
000001t:  Pitch wheel change ::  Channel 4.   -8192
000001t:  Control change ::  Channel 4.  Controller 11.  Value: 120
000000t:  Note on ::  Channel 4.  Note 49.  Velocity 80
000001t:  Note on ::  Channel 4.  Note 49.  Velocity 0
000000t:  Pitch wheel change ::  Channel 4.   -8192
000000t:  Note on ::  Channel 4.  Note 49.  Velocity 90
000000t:  Control change ::  Channel 4.  Controller 11.  Value: 115
000001t:  Note on ::  Channel 4.  Note 56.  Velocity 94
000000t:  Control change ::  Channel 4.  Controller 11.  Value: 113
000001t:  Note on ::  Channel 4.  Note 61.  Velocity 98
000000t:  Note on ::  Channel 4.  Note 65.  Velocity 105
000000t:  Control change ::  Channel 4.  Controller 11.  Value: 110
000001t:  Control change ::  Channel 4.  Controller 11.  Value: 108
000001t:  Control change ::  Channel 4.  Controller 11.  Value: 107
000001t:  Control change ::  Channel 4.  Controller 11.  Value: 105
000001t:  Control change ::  Channel 4.  Controller 11.  Value: 104
000002t:  Control change ::  Channel 4.  Controller 11.  Value: 103
000002t:  Control change ::  Channel 4.  Controller 11.  Value: 102
000003t:  Control change ::  Channel 4.  Controller 11.  Value: 101
000005t:  Note on ::  Channel 4.  Note 49.  Velocity 0
000001t:  Note on ::  Channel 4.  Note 56.  Velocity 0
000001t:  Note on ::  Channel 4.  Note 61.  Velocity 0
000000t:  Note on ::  Channel 4.  Note 65.  Velocity 0
000004t:  Control change ::  Channel 4.  Controller 11.  Value: 120
000000t:  Note on ::  Channel 4.  Note 49.  Velocity 94
000001t:  Note on ::  Channel 4.  Note 56.  Velocity 97
000000t:  Control change ::  Channel 4.  Controller 11.  Value: 118
000001t:  Note on ::  Channel 4.  Note 61.  Velocity 101
000000t:  Note on ::  Channel 4.  Note 65.  Velocity 106
000000t:  Control change ::  Channel 4.  Controller 11.  Value: 116
000001t:  Control change ::  Channel 4.  Controller 11.  Value: 114
000001t:  Control change ::  Channel 4.  Controller 11.  Value: 113
000001t:  Control change ::  Channel 4.  Controller 11.  Value: 111
000001t:  Control change ::  Channel 4.  Controller 11.  Value: 110
000001t:  Control change ::  Channel 4.  Controller 11.  Value: 108
000001t:  Control change ::  Channel 4.  Controller 11.  Value: 107
000001t:  Control change ::  Channel 4.  Controller 11.  Value: 106
000001t:  Control change ::  Channel 4.  Controller 11.  Value: 105
000002t:  Control change ::  Channel 4.  Controller 11.  Value: 103
000002t:  Control change ::  Channel 4.  Controller 11.  Value: 102
000001t:  Control change ::  Channel 4.  Controller 11.  Value: 101
000001t:  Control change ::  Channel 4.  Controller 11.  Value: 100
000002t:  Control change ::  Channel 4.  Controller 11.  Value: 99
000001t:  Control change ::  Channel 4.  Controller 11.  Value: 98
000002t:  Control change ::  Channel 4.  Controller 11.  Value: 97
000002t:  Control change ::  Channel 4.  Controller 11.  Value: 96
000003t:  Control change ::  Channel 4.  Controller 11.  Value: 95
000003t:  Control change ::  Channel 4.  Controller 11.  Value: 94
000003t:  Control change ::  Channel 4.  Controller 11.  Value: 93
000005t:  Control change ::  Channel 4.  Controller 11.  Value: 92
000005t:  Control change ::  Channel 4.  Controller 11.  Value: 91
000011t:  Control change ::  Channel 4.  Controller 11.  Value: 90
000135t:  Note on ::  Channel 4.  Note 49.  Velocity 0
000001t:  Note on ::  Channel 4.  Note 56.  Velocity 0
000001t:  Note on ::  Channel 4.  Note 61.  Velocity 0
000000t:  Note on ::  Channel 4.  Note 65.  Velocity 0
000002t:  Control change ::  Channel 4.  Controller 11.  Value: 120
000000t:  Note on ::  Channel 4.  Note 44.  Velocity 80
000001t:  Note on ::  Channel 4.  Note 51.  Velocity 83
000000t:  Control change ::  Channel 4.  Controller 11.  Value: 117
000001t:  Note on ::  Channel 4.  Note 56.  Velocity 87
000000t:  Control change ::  Channel 4.  Controller 11.  Value: 115
000001t:  Note on ::  Channel 4.  Note 60.  Velocity 92
000000t:  Control change ::  Channel 4.  Controller 11.  Value: 113
000001t:  Note on ::  Channel 4.  Note 63.  Velocity 98
000000t:  Note on ::  Channel 4.  Note 68.  Velocity 105
000000t:  Control change ::  Channel 4.  Controller 11.  Value: 111
000001t:  Control change ::  Channel 4.  Controller 11.  Value: 109
000001t:  Control change ::  Channel 4.  Controller 11.  Value: 108
000001t:  Control change ::  Channel 4.  Controller 11.  Value: 106
000001t:  Control change ::  Channel 4.  Controller 11.  Value: 105
000001t:  Control change ::  Channel 4.  Controller 11.  Value: 104
000001t:  Control change ::  Channel 4.  Controller 11.  Value: 103
000001t:  Control change ::  Channel 4.  Controller 11.  Value: 102
000001t:  Control change ::  Channel 4.  Controller 11.  Value: 101
000001t:  Control change ::  Channel 4.  Controller 11.  Value: 100
000001t:  Control change ::  Channel 4.  Controller 11.  Value: 99
000002t:  Control change ::  Channel 4.  Controller 11.  Value: 98
000001t:  Control change ::  Channel 4.  Controller 11.  Value: 97
000002t:  Control change ::  Channel 4.  Controller 11.  Value: 96
000002t:  Control change ::  Channel 4.  Controller 11.  Value: 95
000002t:  Control change ::  Channel 4.  Controller 11.  Value: 94
000003t:  Control change ::  Channel 4.  Controller 11.  Value: 93
000004t:  Control change ::  Channel 4.  Controller 11.  Value: 92
000004t:  Control change ::  Channel 4.  Controller 11.  Value: 91
000009t:  Control change ::  Channel 4.  Controller 11.  Value: 90
000025t:  Note on ::  Channel 4.  Note 44.  Velocity 0
000000t:  Pitch wheel change ::  Channel 4.   -8192
000001t:  Note on ::  Channel 4.  Note 51.  Velocity 0
000001t:  Note on ::  Channel 4.  Note 56.  Velocity 0
000000t:  Pitch wheel change ::  Channel 4.   -8192
000001t:  Note on ::  Channel 4.  Note 60.  Velocity 0
000001t:  Note on ::  Channel 4.  Note 63.  Velocity 0
000000t:  Note on ::  Channel 4.  Note 68.  Velocity 0
000000t:  Control change ::  Channel 4.  Controller 11.  Value: 120
000000t:  Note on ::  Channel 4.  Note 46.  Velocity 70
000001t:  Note on ::  Channel 4.  Note 46.  Velocity 0
000000t:  Pitch wheel change ::  Channel 4.   -8192
000000t:  Note on ::  Channel 4.  Note 46.  Velocity 80
000000t:  Control change ::  Channel 4.  Controller 11.  Value: 117
000001t:  Note on ::  Channel 4.  Note 53.  Velocity 83
000000t:  Control change ::  Channel 4.  Controller 11.  Value: 115
000001t:  Note on ::  Channel 4.  Note 58.  Velocity 87
000000t:  Control change ::  Channel 4.  Controller 11.  Value: 113
000001t:  Note on ::  Channel 4.  Note 61.  Velocity 92
000000t:  Control change ::  Channel 4.  Controller 11.  Value: 111
000001t:  Note on ::  Channel 4.  Note 65.  Velocity 98
000000t:  Note on ::  Channel 4.  Note 70.  Velocity 105
000000t:  Control change ::  Channel 4.  Controller 11.  Value: 109
000001t:  Control change ::  Channel 4.  Controller 11.  Value: 108
000001t:  Control change ::  Channel 4.  Controller 11.  Value: 106
000001t:  Control change ::  Channel 4.  Controller 11.  Value: 105
000001t:  Control change ::  Channel 4.  Controller 11.  Value: 104
000001t:  Control change ::  Channel 4.  Controller 11.  Value: 103
000001t:  Control change ::  Channel 4.  Controller 11.  Value: 102
000001t:  Control change ::  Channel 4.  Controller 11.  Value: 101
000001t:  Control change ::  Channel 4.  Controller 11.  Value: 100
000001t:  Control change ::  Channel 4.  Controller 11.  Value: 99
000002t:  Control change ::  Channel 4.  Controller 11.  Value: 98
000001t:  Control change ::  Channel 4.  Controller 11.  Value: 97
000002t:  Control change ::  Channel 4.  Controller 11.  Value: 96
000002t:  Control change ::  Channel 4.  Controller 11.  Value: 95
000002t:  Control change ::  Channel 4.  Controller 11.  Value: 94
000003t:  Control change ::  Channel 4.  Controller 11.  Value: 93
000004t:  Control change ::  Channel 4.  Controller 11.  Value: 92
000004t:  Control change ::  Channel 4.  Controller 11.  Value: 91
000009t:  Control change ::  Channel 4.  Controller 11.  Value: 90
000025t:  Pitch wheel change ::  Channel 4.   -8192
000001t:  Note on ::  Channel 4.  Note 46.  Velocity 0
000001t:  Note on ::  Channel 4.  Note 53.  Velocity 0
000000t:  Pitch wheel change ::  Channel 4.   -8192
000001t:  Note on ::  Channel 4.  Note 58.  Velocity 0
000001t:  Note on ::  Channel 4.  Note 61.  Velocity 0
000000t:  Control change ::  Channel 4.  Controller 11.  Value: 120
000000t:  Note on ::  Channel 4.  Note 42.  Velocity 70
000001t:  Note on ::  Channel 4.  Note 42.  Velocity 0
000000t:  Note on ::  Channel 4.  Note 65.  Velocity 0
000000t:  Note on ::  Channel 4.  Note 70.  Velocity 0
000000t:  Pitch wheel change ::  Channel 4.   -8192
000000t:  Note on ::  Channel 4.  Note 42.  Velocity 80
000000t:  Control change ::  Channel 4.  Controller 11.  Value: 117
000001t:  Note on ::  Channel 4.  Note 49.  Velocity 83
000000t:  Control change ::  Channel 4.  Controller 11.  Value: 115
000001t:  Note on ::  Channel 4.  Note 54.  Velocity 87
000000t:  Control change ::  Channel 4.  Controller 11.  Value: 113
000001t:  Note on ::  Channel 4.  Note 58.  Velocity 92
000000t:  Control change ::  Channel 4.  Controller 11.  Value: 111
000001t:  Note on ::  Channel 4.  Note 61.  Velocity 98
000000t:  Note on ::  Channel 4.  Note 66.  Velocity 105
000000t:  Control change ::  Channel 4.  Controller 11.  Value: 109
000001t:  Control change ::  Channel 4.  Controller 11.  Value: 108
000001t:  Control change ::  Channel 4.  Controller 11.  Value: 106
000001t:  Control change ::  Channel 4.  Controller 11.  Value: 105
000001t:  Control change ::  Channel 4.  Controller 11.  Value: 104
000001t:  Control change ::  Channel 4.  Controller 11.  Value: 103
000001t:  Control change ::  Channel 4.  Controller 11.  Value: 102
000001t:  Control change ::  Channel 4.  Controller 11.  Value: 101
000001t:  Control change ::  Channel 4.  Controller 11.  Value: 100
000001t:  Control change ::  Channel 4.  Controller 11.  Value: 99
000002t:  Control change ::  Channel 4.  Controller 11.  Value: 98
000001t:  Control change ::  Channel 4.  Controller 11.  Value: 97
000002t:  Control change ::  Channel 4.  Controller 11.  Value: 96
000002t:  Control change ::  Channel 4.  Controller 11.  Value: 95
000002t:  Control change ::  Channel 4.  Controller 11.  Value: 94
000003t:  Control change ::  Channel 4.  Controller 11.  Value: 93
000004t:  Control change ::  Channel 4.  Controller 11.  Value: 92
000004t:  Control change ::  Channel 4.  Controller 11.  Value: 91
000009t:  Control change ::  Channel 4.  Controller 11.  Value: 90
000025t:  Pitch wheel change ::  Channel 4.   -8192
000001t:  Note on ::  Channel 4.  Note 42.  Velocity 0
000001t:  Note on ::  Channel 4.  Note 49.  Velocity 0
000000t:  Pitch wheel change ::  Channel 4.   -8192
000001t:  Note on ::  Channel 4.  Note 54.  Velocity 0
000001t:  Note on ::  Channel 4.  Note 58.  Velocity 0
000000t:  Control change ::  Channel 4.  Controller 11.  Value: 120
000000t:  Note on ::  Channel 4.  Note 41.  Velocity 72
000001t:  Note on ::  Channel 4.  Note 41.  Velocity 0
000000t:  Note on ::  Channel 4.  Note 61.  Velocity 0
000000t:  Note on ::  Channel 4.  Note 66.  Velocity 0
000000t:  Pitch wheel change ::  Channel 4.   -8192
000000t:  Note on ::  Channel 4.  Note 41.  Velocity 82
000000t:  Control change ::  Channel 4.  Controller 11.  Value: 116
000001t:  Note on ::  Channel 4.  Note 49.  Velocity 86
000000t:  Control change ::  Channel 4.  Controller 11.  Value: 114
000001t:  Note on ::  Channel 4.  Note 56.  Velocity 91
000000t:  Control change ::  Channel 4.  Controller 11.  Value: 111
000001t:  Note on ::  Channel 4.  Note 61.  Velocity 98
000000t:  Note on ::  Channel 4.  Note 65.  Velocity 105
000000t:  Control change ::  Channel 4.  Controller 11.  Value: 109
000001t:  Control change ::  Channel 4.  Controller 11.  Value: 107
000001t:  Control change ::  Channel 4.  Controller 11.  Value: 106
000001t:  Control change ::  Channel 4.  Controller 11.  Value: 104
000001t:  Control change ::  Channel 4.  Controller 11.  Value: 103
000001t:  Control change ::  Channel 4.  Controller 11.  Value: 102
000001t:  Control change ::  Channel 4.  Controller 11.  Value: 101
000001t:  Control change ::  Channel 4.  Controller 11.  Value: 100
000001t:  Control change ::  Channel 4.  Controller 11.  Value: 99
000001t:  Control change ::  Channel 4.  Controller 11.  Value: 98
000002t:  Control change ::  Channel 4.  Controller 11.  Value: 97
000002t:  Control change ::  Channel 4.  Controller 11.  Value: 96
000002t:  Control change ::  Channel 4.  Controller 11.  Value: 95
000004t:  Control change ::  Channel 4.  Controller 11.  Value: 94
000005t:  Control change ::  Channel 4.  Controller 11.  Value: 93
000011t:  Note on ::  Channel 4.  Note 41.  Velocity 0
000001t:  Note on ::  Channel 4.  Note 49.  Velocity 0
000001t:  Note on ::  Channel 4.  Note 56.  Velocity 0
000001t:  Note on ::  Channel 4.  Note 61.  Velocity 0
000000t:  Note on ::  Channel 4.  Note 65.  Velocity 0
000006t:  Control change ::  Channel 4.  Controller 11.  Value: 120
000000t:  Note on ::  Channel 4.  Note 42.  Velocity 80
000001t:  Note on ::  Channel 4.  Note 49.  Velocity 83
000000t:  Control change ::  Channel 4.  Controller 11.  Value: 114
000001t:  Note on ::  Channel 4.  Note 54.  Velocity 87
000000t:  Control change ::  Channel 4.  Controller 11.  Value: 110
000001t:  Note on ::  Channel 4.  Note 58.  Velocity 92
000000t:  Control change ::  Channel 4.  Controller 11.  Value: 107
000001t:  Note on ::  Channel 4.  Note 61.  Velocity 98
000000t:  Note on ::  Channel 4.  Note 66.  Velocity 105
000000t:  Control change ::  Channel 4.  Controller 11.  Value: 105
000001t:  Control change ::  Channel 4.  Controller 11.  Value: 103
000001t:  Control change ::  Channel 4.  Controller 11.  Value: 101
000001t:  Control change ::  Channel 4.  Controller 11.  Value: 100
000001t:  Control change ::  Channel 4.  Controller 11.  Value: 99
000001t:  Control change ::  Channel 4.  Controller 11.  Value: 98
000002t:  Control change ::  Channel 4.  Controller 11.  Value: 97
000003t:  Control change ::  Channel 4.  Controller 11.  Value: 96
000004t:  Note on ::  Channel 4.  Note 42.  Velocity 0
000001t:  Note on ::  Channel 4.  Note 49.  Velocity 0
000001t:  Note on ::  Channel 4.  Note 54.  Velocity 0
000001t:  Note on ::  Channel 4.  Note 58.  Velocity 0
000001t:  Note on ::  Channel 4.  Note 61.  Velocity 0
000000t:  Note on ::  Channel 4.  Note 66.  Velocity 0
000002t:  Control change ::  Channel 4.  Controller 11.  Value: 121
000000t:  Note on ::  Channel 4.  Note 42.  Velocity 80
000001t:  Note on ::  Channel 4.  Note 49.  Velocity 83
000000t:  Control change ::  Channel 4.  Controller 11.  Value: 118
000001t:  Note on ::  Channel 4.  Note 54.  Velocity 87
000000t:  Control change ::  Channel 4.  Controller 11.  Value: 117
000001t:  Note on ::  Channel 4.  Note 58.  Velocity 92
000000t:  Control change ::  Channel 4.  Controller 11.  Value: 115
000001t:  Note on ::  Channel 4.  Note 61.  Velocity 98
000000t:  Note on ::  Channel 4.  Note 66.  Velocity 105
000000t:  Control change ::  Channel 4.  Controller 11.  Value: 113
000001t:  Control change ::  Channel 4.  Controller 11.  Value: 112
000001t:  Control change ::  Channel 4.  Controller 11.  Value: 111
000001t:  Control change ::  Channel 4.  Controller 11.  Value: 109
000001t:  Control change ::  Channel 4.  Controller 11.  Value: 108
000001t:  Control change ::  Channel 4.  Controller 11.  Value: 107
000001t:  Control change ::  Channel 4.  Controller 11.  Value: 106
000001t:  Control change ::  Channel 4.  Controller 11.  Value: 105
000001t:  Control change ::  Channel 4.  Controller 11.  Value: 104
000001t:  Control change ::  Channel 4.  Controller 11.  Value: 103
000001t:  Control change ::  Channel 4.  Controller 11.  Value: 102
000002t:  Control change ::  Channel 4.  Controller 11.  Value: 101
000001t:  Control change ::  Channel 4.  Controller 11.  Value: 100
000002t:  Control change ::  Channel 4.  Controller 11.  Value: 99
000001t:  Control change ::  Channel 4.  Controller 11.  Value: 98
000002t:  Control change ::  Channel 4.  Controller 11.  Value: 97
000003t:  Control change ::  Channel 4.  Controller 11.  Value: 96
000002t:  Control change ::  Channel 4.  Controller 11.  Value: 95
000003t:  Control change ::  Channel 4.  Controller 11.  Value: 94
000004t:  Control change ::  Channel 4.  Controller 11.  Value: 93
000005t:  Control change ::  Channel 4.  Controller 11.  Value: 92
000006t:  Control change ::  Channel 4.  Controller 11.  Value: 91
000010t:  Control change ::  Channel 4.  Controller 11.  Value: 90
000147t:  Note on ::  Channel 4.  Note 42.  Velocity 0
000001t:  Note on ::  Channel 4.  Note 49.  Velocity 0
000000t:  Note on ::  Channel 4.  Note 54.  Velocity 0
000001t:  Note on ::  Channel 4.  Note 58.  Velocity 0
000000t:  Note on ::  Channel 4.  Note 61.  Velocity 0
000000t:  Note on ::  Channel 4.  Note 66.  Velocity 0
000012t:  Note on ::  Channel 4.  Note 42.  Velocity 80
000001t:  Note on ::  Channel 4.  Note 49.  Velocity 93
000000t:  Note on ::  Channel 4.  Note 54.  Velocity 87
000001t:  Note on ::  Channel 4.  Note 58.  Velocity 92
000000t:  Note on ::  Channel 4.  Note 61.  Velocity 98
000000t:  Note on ::  Channel 4.  Note 66.  Velocity 105
000003t:  Note on ::  Channel 4.  Note 54.  Velocity 0
000000t:  Note on ::  Channel 4.  Note 42.  Velocity 0
000001t:  Note on ::  Channel 4.  Note 49.  Velocity 0
000001t:  Note on ::  Channel 4.  Note 58.  Velocity 0
000000t:  Note on ::  Channel 4.  Note 66.  Velocity 0
000000t:  Note on ::  Channel 4.  Note 61.  Velocity 0
000017t:  Note on ::  Channel 4.  Note 42.  Velocity 80
000001t:  Note on ::  Channel 4.  Note 49.  Velocity 93
000000t:  Note on ::  Channel 4.  Note 54.  Velocity 87
000001t:  Note on ::  Channel 4.  Note 58.  Velocity 92
000000t:  Note on ::  Channel 4.  Note 61.  Velocity 98
000000t:  Note on ::  Channel 4.  Note 66.  Velocity 105
000003t:  Note on ::  Channel 4.  Note 54.  Velocity 0
000000t:  Note on ::  Channel 4.  Note 42.  Velocity 0
000001t:  Note on ::  Channel 4.  Note 49.  Velocity 0
000001t:  Note on ::  Channel 4.  Note 58.  Velocity 0
000000t:  Note on ::  Channel 4.  Note 66.  Velocity 0
000000t:  Note on ::  Channel 4.  Note 61.  Velocity 0
000017t:  Note on ::  Channel 4.  Note 42.  Velocity 80
000001t:  Note on ::  Channel 4.  Note 49.  Velocity 93
000000t:  Note on ::  Channel 4.  Note 54.  Velocity 87
000001t:  Note on ::  Channel 4.  Note 58.  Velocity 92
000000t:  Note on ::  Channel 4.  Note 61.  Velocity 98
000000t:  Note on ::  Channel 4.  Note 66.  Velocity 105
000003t:  Note on ::  Channel 4.  Note 54.  Velocity 0
000000t:  Note on ::  Channel 4.  Note 42.  Velocity 0
000001t:  Note on ::  Channel 4.  Note 49.  Velocity 0
000001t:  Note on ::  Channel 4.  Note 58.  Velocity 0
000000t:  Note on ::  Channel 4.  Note 66.  Velocity 0
000000t:  Note on ::  Channel 4.  Note 61.  Velocity 0
000017t:  Note on ::  Channel 4.  Note 42.  Velocity 80
000001t:  Note on ::  Channel 4.  Note 49.  Velocity 93
000000t:  Note on ::  Channel 4.  Note 54.  Velocity 87
000001t:  Note on ::  Channel 4.  Note 58.  Velocity 92
000000t:  Note on ::  Channel 4.  Note 61.  Velocity 98
000000t:  Note on ::  Channel 4.  Note 66.  Velocity 105
000003t:  Note on ::  Channel 4.  Note 54.  Velocity 0
000000t:  Note on ::  Channel 4.  Note 42.  Velocity 0
000001t:  Note on ::  Channel 4.  Note 49.  Velocity 0
000001t:  Note on ::  Channel 4.  Note 58.  Velocity 0
000000t:  Note on ::  Channel 4.  Note 66.  Velocity 0
000000t:  Note on ::  Channel 4.  Note 61.  Velocity 0
000017t:  Note on ::  Channel 4.  Note 42.  Velocity 80
000001t:  Note on ::  Channel 4.  Note 49.  Velocity 93
000000t:  Note on ::  Channel 4.  Note 54.  Velocity 87
000001t:  Note on ::  Channel 4.  Note 58.  Velocity 92
000000t:  Note on ::  Channel 4.  Note 61.  Velocity 98
000000t:  Note on ::  Channel 4.  Note 66.  Velocity 105
000003t:  Note on ::  Channel 4.  Note 54.  Velocity 0
000000t:  Note on ::  Channel 4.  Note 42.  Velocity 0
000001t:  Note on ::  Channel 4.  Note 49.  Velocity 0
000001t:  Note on ::  Channel 4.  Note 58.  Velocity 0
000000t:  Note on ::  Channel 4.  Note 66.  Velocity 0
000000t:  Note on ::  Channel 4.  Note 61.  Velocity 0
000017t:  Note on ::  Channel 4.  Note 42.  Velocity 80
000001t:  Note on ::  Channel 4.  Note 49.  Velocity 93
000000t:  Note on ::  Channel 4.  Note 54.  Velocity 87
000001t:  Note on ::  Channel 4.  Note 58.  Velocity 92
000000t:  Note on ::  Channel 4.  Note 61.  Velocity 98
000000t:  Note on ::  Channel 4.  Note 66.  Velocity 105
000003t:  Note on ::  Channel 4.  Note 54.  Velocity 0
000000t:  Note on ::  Channel 4.  Note 42.  Velocity 0
000001t:  Note on ::  Channel 4.  Note 49.  Velocity 0
000001t:  Note on ::  Channel 4.  Note 58.  Velocity 0
000000t:  Note on ::  Channel 4.  Note 66.  Velocity 0
000000t:  Note on ::  Channel 4.  Note 61.  Velocity 0
000017t:  Note on ::  Channel 4.  Note 42.  Velocity 80
000001t:  Note on ::  Channel 4.  Note 49.  Velocity 93
000000t:  Note on ::  Channel 4.  Note 54.  Velocity 87
000001t:  Note on ::  Channel 4.  Note 58.  Velocity 92
000000t:  Note on ::  Channel 4.  Note 61.  Velocity 98
000000t:  Note on ::  Channel 4.  Note 66.  Velocity 105
000003t:  Note on ::  Channel 4.  Note 54.  Velocity 0
000000t:  Note on ::  Channel 4.  Note 42.  Velocity 0
000001t:  Note on ::  Channel 4.  Note 49.  Velocity 0
000001t:  Note on ::  Channel 4.  Note 58.  Velocity 0
000000t:  Note on ::  Channel 4.  Note 66.  Velocity 0
000000t:  Note on ::  Channel 4.  Note 61.  Velocity 0
000017t:  Control change ::  Channel 4.  Controller 7.  Value: 97
000004t:  Program (patch) change ::  Channel 4.  Patch 29 (Overdriven Guitar)
000024t:  Note on ::  Channel 4.  Note 56.  Velocity 80
000009t:  Note on ::  Channel 4.  Note 56.  Velocity 0
000015t:  Note on ::  Channel 4.  Note 61.  Velocity 80
000009t:  Note on ::  Channel 4.  Note 61.  Velocity 0
000015t:  Note on ::  Channel 4.  Note 65.  Velocity 87
000008t:  Note on ::  Channel 4.  Note 65.  Velocity 0
000040t:  Note on ::  Channel 4.  Note 56.  Velocity 80
000009t:  Note on ::  Channel 4.  Note 56.  Velocity 0
000015t:  Note on ::  Channel 4.  Note 60.  Velocity 80
000009t:  Note on ::  Channel 4.  Note 60.  Velocity 0
000015t:  Note on ::  Channel 4.  Note 63.  Velocity 88
000010t:  Note on ::  Channel 4.  Note 63.  Velocity 0
000038t:  Note on ::  Channel 4.  Note 54.  Velocity 80
000009t:  Note on ::  Channel 4.  Note 54.  Velocity 0
000015t:  Note on ::  Channel 4.  Note 58.  Velocity 80
000009t:  Note on ::  Channel 4.  Note 58.  Velocity 0
000015t:  Note on ::  Channel 4.  Note 61.  Velocity 87
000008t:  Note on ::  Channel 4.  Note 61.  Velocity 0
000040t:  Note on ::  Channel 4.  Note 56.  Velocity 80
000009t:  Note on ::  Channel 4.  Note 56.  Velocity 0
000015t:  Note on ::  Channel 4.  Note 60.  Velocity 77
000009t:  Note on ::  Channel 4.  Note 60.  Velocity 0
000015t:  Note on ::  Channel 4.  Note 63.  Velocity 86
000009t:  Note on ::  Channel 4.  Note 63.  Velocity 0
000039t:  Note on ::  Channel 4.  Note 56.  Velocity 80
000009t:  Note on ::  Channel 4.  Note 56.  Velocity 0
000015t:  Note on ::  Channel 4.  Note 61.  Velocity 80
000009t:  Note on ::  Channel 4.  Note 61.  Velocity 0
000015t:  Note on ::  Channel 4.  Note 65.  Velocity 87
000007t:  Note on ::  Channel 4.  Note 65.  Velocity 0
000041t:  Note on ::  Channel 4.  Note 56.  Velocity 80
000009t:  Note on ::  Channel 4.  Note 56.  Velocity 0
000015t:  Note on ::  Channel 4.  Note 60.  Velocity 78
000008t:  Note on ::  Channel 4.  Note 60.  Velocity 0
000016t:  Note on ::  Channel 4.  Note 63.  Velocity 88
000007t:  Note on ::  Channel 4.  Note 63.  Velocity 0
000041t:  Note on ::  Channel 4.  Note 58.  Velocity 80
000009t:  Note on ::  Channel 4.  Note 58.  Velocity 0
000015t:  Note on ::  Channel 4.  Note 61.  Velocity 80
000009t:  Note on ::  Channel 4.  Note 61.  Velocity 0
000015t:  Note on ::  Channel 4.  Note 65.  Velocity 88
000007t:  Note on ::  Channel 4.  Note 65.  Velocity 0
000041t:  Note on ::  Channel 4.  Note 58.  Velocity 80
000009t:  Note on ::  Channel 4.  Note 58.  Velocity 0
000015t:  Note on ::  Channel 4.  Note 61.  Velocity 80
000009t:  Note on ::  Channel 4.  Note 61.  Velocity 0
000015t:  Note on ::  Channel 4.  Note 66.  Velocity 86
000007t:  Note on ::  Channel 4.  Note 66.  Velocity 0
000041t:  Note on ::  Channel 4.  Note 61.  Velocity 80
000009t:  Note on ::  Channel 4.  Note 61.  Velocity 0
000015t:  Note on ::  Channel 4.  Note 65.  Velocity 80
000009t:  Note on ::  Channel 4.  Note 65.  Velocity 0
000015t:  Note on ::  Channel 4.  Note 68.  Velocity 85
000008t:  Note on ::  Channel 4.  Note 68.  Velocity 0
000039t:  Note on ::  Channel 4.  Note 60.  Velocity 80
000001t:  Note on ::  Channel 4.  Note 65.  Velocity 80
000008t:  Note on ::  Channel 4.  Note 60.  Velocity 0
000001t:  Note on ::  Channel 4.  Note 65.  Velocity 0
000014t:  Note on ::  Channel 4.  Note 65.  Velocity 79
000001t:  Note on ::  Channel 4.  Note 68.  Velocity 78
000007t:  Note on ::  Channel 4.  Note 65.  Velocity 0
000002t:  Note on ::  Channel 4.  Note 68.  Velocity 0
000014t:  Note on ::  Channel 4.  Note 68.  Velocity 84
000001t:  Note on ::  Channel 4.  Note 72.  Velocity 85
000008t:  Note on ::  Channel 4.  Note 68.  Velocity 0
000001t:  Note on ::  Channel 4.  Note 72.  Velocity 0
000038t:  Note on ::  Channel 4.  Note 58.  Velocity 80
000001t:  Note on ::  Channel 4.  Note 65.  Velocity 80
000008t:  Note on ::  Channel 4.  Note 58.  Velocity 0
000001t:  Note on ::  Channel 4.  Note 65.  Velocity 0
000014t:  Note on ::  Channel 4.  Note 61.  Velocity 79
000001t:  Note on ::  Channel 4.  Note 70.  Velocity 78
000008t:  Note on ::  Channel 4.  Note 61.  Velocity 0
000001t:  Note on ::  Channel 4.  Note 70.  Velocity 0
000014t:  Note on ::  Channel 4.  Note 65.  Velocity 83
000001t:  Note on ::  Channel 4.  Note 73.  Velocity 83
000008t:  Note on ::  Channel 4.  Note 65.  Velocity 0
000001t:  Note on ::  Channel 4.  Note 73.  Velocity 0
000038t:  Note on ::  Channel 4.  Note 58.  Velocity 80
000001t:  Note on ::  Channel 4.  Note 73.  Velocity 80
000008t:  Note on ::  Channel 4.  Note 58.  Velocity 0
000001t:  Note on ::  Channel 4.  Note 73.  Velocity 0
000014t:  Note on ::  Channel 4.  Note 61.  Velocity 85
000001t:  Note on ::  Channel 4.  Note 70.  Velocity 84
000008t:  Note on ::  Channel 4.  Note 61.  Velocity 0
000001t:  Note on ::  Channel 4.  Note 70.  Velocity 0
000063t:  Note on ::  Channel 4.  Note 73.  Velocity 80
000008t:  Note on ::  Channel 4.  Note 73.  Velocity 0
000016t:  Note on ::  Channel 4.  Note 75.  Velocity 77
000008t:  Note on ::  Channel 4.  Note 75.  Velocity 0
000016t:  Note on ::  Channel 4.  Note 80.  Velocity 86
000008t:  Note on ::  Channel 4.  Note 80.  Velocity 0
000136t:  Note on ::  Channel 4.  Note 72.  Velocity 80
000008t:  Note on ::  Channel 4.  Note 72.  Velocity 0
000016t:  Note on ::  Channel 4.  Note 75.  Velocity 78
000008t:  Note on ::  Channel 4.  Note 75.  Velocity 0
000016t:  Note on ::  Channel 4.  Note 82.  Velocity 86
000008t:  Note on ::  Channel 4.  Note 82.  Velocity 0
000016t:  Note on ::  Channel 4.  Note 80.  Velocity 80
000092t:  Note on ::  Channel 4.  Note 80.  Velocity 0
000004t:  Pitch wheel change ::  Channel 4.   -8192
000000t:  Note on ::  Channel 4.  Note 65.  Velocity 80
000020t:  Pitch wheel change ::  Channel 4.   -8192
000001t:  Pitch wheel change ::  Channel 4.   -8192
000001t:  Pitch wheel change ::  Channel 4.   -8192
000001t:  Pitch wheel change ::  Channel 4.   -8192
000001t:  Pitch wheel change ::  Channel 4.   -8192
000001t:  Pitch wheel change ::  Channel 4.   -8192
000007t:  Note on ::  Channel 4.  Note 65.  Velocity 0
000016t:  Note on ::  Channel 4.  Note 68.  Velocity 80
000008t:  Note on ::  Channel 4.  Note 68.  Velocity 0
000016t:  Note on ::  Channel 4.  Note 73.  Velocity 91
000007t:  Note on ::  Channel 4.  Note 73.  Velocity 0
000041t:  Note on ::  Channel 4.  Note 60.  Velocity 80
000008t:  Note on ::  Channel 4.  Note 60.  Velocity 0
000016t:  Note on ::  Channel 4.  Note 63.  Velocity 80
000008t:  Note on ::  Channel 4.  Note 63.  Velocity 0
000016t:  Note on ::  Channel 4.  Note 68.  Velocity 89
000007t:  Note on ::  Channel 4.  Note 68.  Velocity 0
000041t:  Note on ::  Channel 4.  Note 58.  Velocity 80
000008t:  Note on ::  Channel 4.  Note 58.  Velocity 0
000016t:  Note on ::  Channel 4.  Note 61.  Velocity 80
000008t:  Note on ::  Channel 4.  Note 61.  Velocity 0
000016t:  Note on ::  Channel 4.  Note 66.  Velocity 88
000007t:  Note on ::  Channel 4.  Note 66.  Velocity 0
000017t:  Pitch wheel change ::  Channel 4.   -8192
000000t:  Note on ::  Channel 4.  Note 60.  Velocity 80
000020t:  Pitch wheel change ::  Channel 4.   -8192
000001t:  Pitch wheel change ::  Channel 4.   -8192
000001t:  Pitch wheel change ::  Channel 4.   -8192
000001t:  Pitch wheel change ::  Channel 4.   -8192
000001t:  Pitch wheel change ::  Channel 4.   -8192
000001t:  Pitch wheel change ::  Channel 4.   -8192
000007t:  Note on ::  Channel 4.  Note 60.  Velocity 0
000016t:  Note on ::  Channel 4.  Note 63.  Velocity 80
000008t:  Note on ::  Channel 4.  Note 63.  Velocity 0
000016t:  Note on ::  Channel 4.  Note 68.  Velocity 87
000006t:  Note on ::  Channel 4.  Note 68.  Velocity 0
000018t:  Pitch wheel change ::  Channel 4.   -8192
000000t:  Note on ::  Channel 4.  Note 65.  Velocity 80
000020t:  Pitch wheel change ::  Channel 4.   -8192
000001t:  Pitch wheel change ::  Channel 4.   -8192
000001t:  Pitch wheel change ::  Channel 4.   -8192
000001t:  Pitch wheel change ::  Channel 4.   -8192
000001t:  Pitch wheel change ::  Channel 4.   -8192
000001t:  Pitch wheel change ::  Channel 4.   -8192
000007t:  Note on ::  Channel 4.  Note 65.  Velocity 0
000016t:  Note on ::  Channel 4.  Note 68.  Velocity 80
000008t:  Note on ::  Channel 4.  Note 68.  Velocity 0
000016t:  Note on ::  Channel 4.  Note 73.  Velocity 87
000006t:  Note on ::  Channel 4.  Note 73.  Velocity 0
000042t:  Note on ::  Channel 4.  Note 60.  Velocity 80
000008t:  Note on ::  Channel 4.  Note 60.  Velocity 0
000016t:  Note on ::  Channel 4.  Note 63.  Velocity 80
000008t:  Note on ::  Channel 4.  Note 63.  Velocity 0
000016t:  Note on ::  Channel 4.  Note 68.  Velocity 87
000007t:  Note on ::  Channel 4.  Note 68.  Velocity 0
000041t:  Note on ::  Channel 4.  Note 61.  Velocity 80
000008t:  Note on ::  Channel 4.  Note 61.  Velocity 0
000016t:  Note on ::  Channel 4.  Note 65.  Velocity 80
000008t:  Note on ::  Channel 4.  Note 65.  Velocity 0
000016t:  Note on ::  Channel 4.  Note 70.  Velocity 87
000007t:  Note on ::  Channel 4.  Note 70.  Velocity 0
000017t:  Pitch wheel change ::  Channel 4.   -8192
000000t:  Note on ::  Channel 4.  Note 70.  Velocity 80
000020t:  Pitch wheel change ::  Channel 4.   -8192
000001t:  Pitch wheel change ::  Channel 4.   -8192
000001t:  Pitch wheel change ::  Channel 4.   -8192
000001t:  Pitch wheel change ::  Channel 4.   -8192
000001t:  Pitch wheel change ::  Channel 4.   -8192
000001t:  Pitch wheel change ::  Channel 4.   -8192
000007t:  Note on ::  Channel 4.  Note 70.  Velocity 0
000016t:  Note on ::  Channel 4.  Note 73.  Velocity 80
000008t:  Note on ::  Channel 4.  Note 73.  Velocity 0
000016t:  Note on ::  Channel 4.  Note 78.  Velocity 90
000007t:  Note on ::  Channel 4.  Note 78.  Velocity 0
000017t:  Pitch wheel change ::  Channel 4.   -8192
000000t:  Note on ::  Channel 4.  Note 65.  Velocity 80
000020t:  Pitch wheel change ::  Channel 4.   -8192
000001t:  Pitch wheel change ::  Channel 4.   -8192
000001t:  Pitch wheel change ::  Channel 4.   -8192
000001t:  Pitch wheel change ::  Channel 4.   -8192
000001t:  Pitch wheel change ::  Channel 4.   -8192
000001t:  Pitch wheel change ::  Channel 4.   -8192
000007t:  Note on ::  Channel 4.  Note 65.  Velocity 0
000016t:  Note on ::  Channel 4.  Note 68.  Velocity 80
000008t:  Note on ::  Channel 4.  Note 68.  Velocity 0
000016t:  Note on ::  Channel 4.  Note 73.  Velocity 91
000008t:  Note on ::  Channel 4.  Note 73.  Velocity 0
000040t:  Note on ::  Channel 4.  Note 65.  Velocity 80
000008t:  Note on ::  Channel 4.  Note 65.  Velocity 0
000016t:  Note on ::  Channel 4.  Note 68.  Velocity 80
000008t:  Note on ::  Channel 4.  Note 68.  Velocity 0
000016t:  Note on ::  Channel 4.  Note 72.  Velocity 91
000006t:  Note on ::  Channel 4.  Note 72.  Velocity 0
000042t:  Note on ::  Channel 4.  Note 65.  Velocity 80
000008t:  Note on ::  Channel 4.  Note 65.  Velocity 0
000016t:  Note on ::  Channel 4.  Note 70.  Velocity 80
000008t:  Note on ::  Channel 4.  Note 70.  Velocity 0
000016t:  Note on ::  Channel 4.  Note 73.  Velocity 90
000006t:  Note on ::  Channel 4.  Note 73.  Velocity 0
000018t:  Pitch wheel change ::  Channel 4.   -8192
000000t:  Note on ::  Channel 4.  Note 68.  Velocity 80
000020t:  Pitch wheel change ::  Channel 4.   -8192
000001t:  Pitch wheel change ::  Channel 4.   -8192
000001t:  Pitch wheel change ::  Channel 4.   -8192
000001t:  Pitch wheel change ::  Channel 4.   -8192
000001t:  Pitch wheel change ::  Channel 4.   -8192
000001t:  Pitch wheel change ::  Channel 4.   -8192
000019t:  Note on ::  Channel 4.  Note 68.  Velocity 0
000004t:  Note on ::  Channel 4.  Note 72.  Velocity 80
000046t:  Note on ::  Channel 4.  Note 72.  Velocity 0
000002t:  Control change ::  Channel 4.  Controller 7.  Value: 125
000000t:  Pitch wheel change ::  Channel 4.   -8192
000000t:  Program (patch) change ::  Channel 4.  Patch 30 (Distortion Guitar)
000000t:  Note on ::  Channel 4.  Note 75.  Velocity 80
000007t:  Pitch wheel change ::  Channel 4.   -8192
000001t:  Pitch wheel change ::  Channel 4.   -8192
000001t:  Pitch wheel change ::  Channel 4.   -8192
000001t:  Pitch wheel change ::  Channel 4.   -8192
000106t:  Note on ::  Channel 4.  Note 75.  Velocity 0
000002t:  Pitch wheel change ::  Channel 4.   -8192
000000t:  Note on ::  Channel 4.  Note 75.  Velocity 85
000003t:  Pitch wheel change ::  Channel 4.   -8192
000001t:  Pitch wheel change ::  Channel 4.   -8192
000001t:  Pitch wheel change ::  Channel 4.   -8192
000001t:  Pitch wheel change ::  Channel 4.   -8192
000001t:  Pitch wheel change ::  Channel 4.   -8192
000001t:  Pitch wheel change ::  Channel 4.   -8192
000001t:  Pitch wheel change ::  Channel 4.   -8192
000001t:  Pitch wheel change ::  Channel 4.   -8192
000001t:  Pitch wheel change ::  Channel 4.   -8192
000001t:  Pitch wheel change ::  Channel 4.   -8192
000001t:  Pitch wheel change ::  Channel 4.   -8192
000001t:  Pitch wheel change ::  Channel 4.   -8192
000001t:  Pitch wheel change ::  Channel 4.   -8192
000001t:  Pitch wheel change ::  Channel 4.   -8192
000001t:  Pitch wheel change ::  Channel 4.   -8192
000001t:  Pitch wheel change ::  Channel 4.   -8192
000001t:  Pitch wheel change ::  Channel 4.   -8192
000001t:  Pitch wheel change ::  Channel 4.   -8192
000001t:  Pitch wheel change ::  Channel 4.   -8192
000001t:  Pitch wheel change ::  Channel 4.   -8192
000001t:  Pitch wheel change ::  Channel 4.   -8192
000001t:  Pitch wheel change ::  Channel 4.   -8192
000026t:  Note on ::  Channel 4.  Note 75.  Velocity 0
000000t:  Pitch wheel change ::  Channel 4.   -8192
000000t:  Note on ::  Channel 4.  Note 75.  Velocity 80
000022t:  Note on ::  Channel 4.  Note 75.  Velocity 0
000002t:  Pitch wheel change ::  Channel 4.   -8192
000000t:  Note on ::  Channel 4.  Note 72.  Velocity 80
000021t:  Pitch wheel change ::  Channel 4.   -8192
000001t:  Pitch wheel change ::  Channel 4.   -8192
000001t:  Pitch wheel change ::  Channel 4.   -8192
000001t:  Pitch wheel change ::  Channel 4.   -8192
000116t:  Note on ::  Channel 4.  Note 72.  Velocity 0
000004t:  Pitch wheel change ::  Channel 4.   -8192
000000t:  Note on ::  Channel 4.  Note 73.  Velocity 80
000006t:  Pitch wheel change ::  Channel 4.   -8192
000001t:  Pitch wheel change ::  Channel 4.   -8192
000001t:  Pitch wheel change ::  Channel 4.   -8192
000001t:  Pitch wheel change ::  Channel 4.   -8192
000001t:  Pitch wheel change ::  Channel 4.   -8192
000001t:  Pitch wheel change ::  Channel 4.   -8192
000001t:  Pitch wheel change ::  Channel 4.   -8192
000010t:  Note on ::  Channel 4.  Note 73.  Velocity 0
000002t:  Control change ::  Channel 4.  Controller 11.  Value: 40
000000t:  Note on ::  Channel 4.  Note 75.  Velocity 91
000001t:  Control change ::  Channel 4.  Controller 11.  Value: 67
000001t:  Control change ::  Channel 4.  Controller 11.  Value: 81
000001t:  Control change ::  Channel 4.  Controller 11.  Value: 89
000001t:  Control change ::  Channel 4.  Controller 11.  Value: 94
000001t:  Control change ::  Channel 4.  Controller 11.  Value: 97
000001t:  Control change ::  Channel 4.  Controller 11.  Value: 98
000001t:  Control change ::  Channel 4.  Controller 11.  Value: 99
000001t:  Control change ::  Channel 4.  Controller 11.  Value: 100
000015t:  Note on ::  Channel 4.  Note 75.  Velocity 0
000001t:  Note on ::  Channel 4.  Note 75.  Velocity 87
000068t:  Note on ::  Channel 4.  Note 75.  Velocity 0
000004t:  Note on ::  Channel 4.  Note 73.  Velocity 80
000116t:  Note on ::  Channel 4.  Note 73.  Velocity 0
000004t:  Note on ::  Channel 4.  Note 73.  Velocity 88
000068t:  Note on ::  Channel 4.  Note 73.  Velocity 0
000004t:  Note on ::  Channel 4.  Note 72.  Velocity 80
000116t:  Note on ::  Channel 4.  Note 72.  Velocity 0
000004t:  Control change ::  Channel 4.  Controller 7.  Value: 120
000024t:  Note on ::  Channel 4.  Note 53.  Velocity 100
000015t:  Note on ::  Channel 4.  Note 53.  Velocity 0
000009t:  Note on ::  Channel 4.  Note 51.  Velocity 104
000015t:  Note on ::  Channel 4.  Note 51.  Velocity 0
000009t:  Note on ::  Channel 4.  Note 49.  Velocity 106
000015t:  Note on ::  Channel 4.  Note 49.  Velocity 0
000009t:  Note on ::  Channel 4.  Note 48.  Velocity 108
000015t:  Note on ::  Channel 4.  Note 48.  Velocity 0
000009t:  Note on ::  Channel 4.  Note 46.  Velocity 110
000015t:  Note on ::  Channel 4.  Note 46.  Velocity 0
000009t:  Note on ::  Channel 4.  Note 44.  Velocity 112
000020t:  Note on ::  Channel 4.  Note 44.  Velocity 0
000025t:  Program (patch) change ::  Channel 4.  Patch 28 (Electric Guitar(muted))
000000t:  Note on ::  Channel 4.  Note 53.  Velocity 48
000002t:  Note on ::  Channel 4.  Note 53.  Velocity 0
000001t:  Program (patch) change ::  Channel 4.  Patch 30 (Distortion Guitar)
000000t:  Control change ::  Channel 4.  Controller 7.  Value: 126
000000t:  Pitch wheel change ::  Channel 4.   -8192
000000t:  Note on ::  Channel 4.  Note 53.  Velocity 100
000009t:  Pitch wheel change ::  Channel 4.   -8192
000002t:  Pitch wheel change ::  Channel 4.   -8192
000001t:  Pitch wheel change ::  Channel 4.   -8192
000001t:  Pitch wheel change ::  Channel 4.   -8192
000001t:  Pitch wheel change ::  Channel 4.   -8192
000078t:  Note on ::  Channel 4.  Note 53.  Velocity 0
000004t:  Note on ::  Channel 4.  Note 54.  Velocity 100
000010t:  Note on ::  Channel 4.  Note 54.  Velocity 0
000002t:  Control change ::  Channel 4.  Controller 11.  Value: 30
000000t:  Note on ::  Channel 4.  Note 51.  Velocity 50
000001t:  Control change ::  Channel 4.  Controller 11.  Value: 72
000001t:  Control change ::  Channel 4.  Controller 11.  Value: 84
000001t:  Control change ::  Channel 4.  Controller 11.  Value: 91
000001t:  Control change ::  Channel 4.  Controller 11.  Value: 95
000001t:  Control change ::  Channel 4.  Controller 11.  Value: 97
000001t:  Control change ::  Channel 4.  Controller 11.  Value: 99
000001t:  Control change ::  Channel 4.  Controller 11.  Value: 100
000015t:  Note on ::  Channel 4.  Note 51.  Velocity 0
000002t:  Control change ::  Channel 4.  Controller 11.  Value: 30
000000t:  Note on ::  Channel 4.  Note 51.  Velocity 50
000001t:  Control change ::  Channel 4.  Controller 11.  Value: 78
000001t:  Control change ::  Channel 4.  Controller 11.  Value: 93
000001t:  Control change ::  Channel 4.  Controller 11.  Value: 98
000001t:  Control change ::  Channel 4.  Controller 11.  Value: 100
000006t:  Note on ::  Channel 4.  Note 51.  Velocity 0
000002t:  Note on ::  Channel 4.  Note 51.  Velocity 110
000012t:  Note on ::  Channel 4.  Note 51.  Velocity 0
000000t:  Note on ::  Channel 4.  Note 51.  Velocity 50
000010t:  Note on ::  Channel 4.  Note 51.  Velocity 0
000002t:  Note on ::  Channel 4.  Note 51.  Velocity 70
000022t:  Note on ::  Channel 4.  Note 51.  Velocity 0
000002t:  Pitch wheel change ::  Channel 4.   -8192
000000t:  Note on ::  Channel 4.  Note 58.  Velocity 100
000009t:  Pitch wheel change ::  Channel 4.   -8192
000003t:  Pitch wheel change ::  Channel 4.   -8192
000001t:  Pitch wheel change ::  Channel 4.   -8192
000001t:  Pitch wheel change ::  Channel 4.   -8192
000001t:  Pitch wheel change ::  Channel 4.   -8192
000001t:  Pitch wheel change ::  Channel 4.   -8192
000001t:  Pitch wheel change ::  Channel 4.   -8192
000067t:  Program (patch) change ::  Channel 4.  Patch 28 (Electric Guitar(muted))
000000t:  Note on ::  Channel 4.  Note 54.  Velocity 50
000008t:  Note on ::  Channel 4.  Note 58.  Velocity 0
000002t:  Note on ::  Channel 4.  Note 54.  Velocity 0
000002t:  Program (patch) change ::  Channel 4.  Patch 30 (Distortion Guitar)
000000t:  Note on ::  Channel 4.  Note 56.  Velocity 100
000022t:  Note on ::  Channel 4.  Note 56.  Velocity 0
000002t:  Note on ::  Channel 4.  Note 51.  Velocity 50
000022t:  Note on ::  Channel 4.  Note 51.  Velocity 0
000002t:  Note on ::  Channel 4.  Note 51.  Velocity 80
000024t:  Note on ::  Channel 4.  Note 51.  Velocity 0
000000t:  Note on ::  Channel 4.  Note 51.  Velocity 50
000024t:  Note on ::  Channel 4.  Note 51.  Velocity 0
000000t:  Note on ::  Channel 4.  Note 54.  Velocity 100
000024t:  Note on ::  Channel 4.  Note 54.  Velocity 0
000000t:  Note on ::  Channel 4.  Note 53.  Velocity 50
000007t:  Note on ::  Channel 4.  Note 53.  Velocity 0
000005t:  Note on ::  Channel 4.  Note 53.  Velocity 70
000046t:  Note on ::  Channel 4.  Note 53.  Velocity 0
000002t:  Program (patch) change ::  Channel 4.  Patch 28 (Electric Guitar(muted))
000000t:  Note on ::  Channel 4.  Note 51.  Velocity 50
000008t:  Note on ::  Channel 4.  Note 51.  Velocity 0
000004t:  Program (patch) change ::  Channel 4.  Patch 30 (Distortion Guitar)
000000t:  Note on ::  Channel 4.  Note 54.  Velocity 100
000022t:  Note on ::  Channel 4.  Note 54.  Velocity 0
000002t:  Note on ::  Channel 4.  Note 53.  Velocity 50
000010t:  Note on ::  Channel 4.  Note 53.  Velocity 0
000002t:  Note on ::  Channel 4.  Note 53.  Velocity 100
000022t:  Note on ::  Channel 4.  Note 53.  Velocity 0
000002t:  Note on ::  Channel 4.  Note 51.  Velocity 70
000007t:  Note on ::  Channel 4.  Note 51.  Velocity 0
000005t:  Note on ::  Channel 4.  Note 51.  Velocity 70
000016t:  Note on ::  Channel 4.  Note 51.  Velocity 0
000008t:  Pitch wheel change ::  Channel 4.   -8192
000000t:  Note on ::  Channel 4.  Note 58.  Velocity 100
000006t:  Pitch wheel change ::  Channel 4.   -8192
000002t:  Pitch wheel change ::  Channel 4.   -8192
000001t:  Pitch wheel change ::  Channel 4.   -8192
000001t:  Pitch wheel change ::  Channel 4.   -8192
000001t:  Pitch wheel change ::  Channel 4.   -8192
000001t:  Pitch wheel change ::  Channel 4.   -8192
000056t:  Note on ::  Channel 4.  Note 58.  Velocity 0
000004t:  Note on ::  Channel 4.  Note 58.  Velocity 60
000004t:  Note on ::  Channel 4.  Note 58.  Velocity 0
000008t:  Note on ::  Channel 4.  Note 61.  Velocity 100
000008t:  Note on ::  Channel 4.  Note 61.  Velocity 0
000016t:  Note on ::  Channel 4.  Note 58.  Velocity 93
000008t:  Note on ::  Channel 4.  Note 58.  Velocity 0
000004t:  Note on ::  Channel 4.  Note 61.  Velocity 83
000140t:  Note on ::  Channel 4.  Note 61.  Velocity 0
000016t:  Program (patch) change ::  Channel 4.  Patch 28 (Electric Guitar(muted))
000000t:  Note on ::  Channel 4.  Note 58.  Velocity 52
000004t:  Note on ::  Channel 4.  Note 58.  Velocity 0
000008t:  Program (patch) change ::  Channel 4.  Patch 30 (Distortion Guitar)
000000t:  Pitch wheel change ::  Channel 4.   -8192
000000t:  Note on ::  Channel 4.  Note 63.  Velocity 100
000004t:  Pitch wheel change ::  Channel 4.   -8192
000001t:  Pitch wheel change ::  Channel 4.   -8192
000001t:  Pitch wheel change ::  Channel 4.   -8192
000001t:  Pitch wheel change ::  Channel 4.   -8192
000038t:  Note on ::  Channel 4.  Note 63.  Velocity 0
000003t:  Pitch wheel change ::  Channel 4.   -8192
000000t:  Note on ::  Channel 4.  Note 63.  Velocity 100
000017t:  Pitch wheel change ::  Channel 4.   -8192
000001t:  Pitch wheel change ::  Channel 4.   -8192
000016t:  Note on ::  Channel 4.  Note 63.  Velocity 0
000002t:  Pitch wheel change ::  Channel 4.   -8192
000000t:  Note on ::  Channel 4.  Note 63.  Velocity 90
000008t:  Note on ::  Channel 4.  Note 63.  Velocity 0
000040t:  Note on ::  Channel 4.  Note 61.  Velocity 50
000006t:  Note on ::  Channel 4.  Note 61.  Velocity 0
000006t:  Note on ::  Channel 4.  Note 65.  Velocity 100
000047t:  Note on ::  Channel 4.  Note 65.  Velocity 0
000001t:  Pitch wheel change ::  Channel 4.   -8192
000000t:  Control change ::  Channel 4.  Controller 11.  Value: 100
000000t:  Note on ::  Channel 4.  Note 60.  Velocity 100
000013t:  Pitch wheel change ::  Channel 4.   -8192
000000t:  Control change ::  Channel 4.  Controller 11.  Value: 85
000001t:  Pitch wheel change ::  Channel 4.   -8192
000000t:  Control change ::  Channel 4.  Controller 11.  Value: 70
000020t:  Note on ::  Channel 4.  Note 60.  Velocity 0
000002t:  Pitch wheel change ::  Channel 4.   -8192
000000t:  Control change ::  Channel 4.  Controller 11.  Value: 100
000000t:  Note on ::  Channel 4.  Note 58.  Velocity 90
000057t:  Note on ::  Channel 4.  Note 58.  Velocity 0
000003t:  Pitch wheel change ::  Channel 4.   -8192
000000t:  Control change ::  Channel 4.  Controller 11.  Value: 100
000000t:  Note on ::  Channel 4.  Note 58.  Velocity 100
000020t:  Control change ::  Channel 4.  Controller 11.  Value: 97
000001t:  Control change ::  Channel 4.  Controller 11.  Value: 94
000001t:  Control change ::  Channel 4.  Controller 11.  Value: 90
000001t:  Pitch wheel change ::  Channel 4.   -8192
000000t:  Control change ::  Channel 4.  Controller 11.  Value: 87
000001t:  Pitch wheel change ::  Channel 4.   -8192
000000t:  Control change ::  Channel 4.  Controller 11.  Value: 84
000001t:  Pitch wheel change ::  Channel 4.   -8192
000000t:  Control change ::  Channel 4.  Controller 11.  Value: 80
000001t:  Pitch wheel change ::  Channel 4.   -8192
000019t:  Note on ::  Channel 4.  Note 58.  Velocity 0
000003t:  Pitch wheel change ::  Channel 4.   -8192
000000t:  Control change ::  Channel 4.  Controller 11.  Value: 100
000000t:  Note on ::  Channel 4.  Note 61.  Velocity 100
000021t:  Control change ::  Channel 4.  Controller 11.  Value: 98
000001t:  Control change ::  Channel 4.  Controller 11.  Value: 95
000001t:  Pitch wheel change ::  Channel 4.   -8192
000000t:  Control change ::  Channel 4.  Controller 11.  Value: 92
000001t:  Pitch wheel change ::  Channel 4.   -8192
000000t:  Control change ::  Channel 4.  Controller 11.  Value: 89
000001t:  Pitch wheel change ::  Channel 4.   -8192
000000t:  Control change ::  Channel 4.  Controller 11.  Value: 86
000001t:  Pitch wheel change ::  Channel 4.   -8192
000000t:  Control change ::  Channel 4.  Controller 11.  Value: 83
000001t:  Control change ::  Channel 4.  Controller 11.  Value: 80
000018t:  Note on ::  Channel 4.  Note 61.  Velocity 0
000003t:  Pitch wheel change ::  Channel 4.   -8192
000000t:  Control change ::  Channel 4.  Controller 11.  Value: 100
000000t:  Note on ::  Channel 4.  Note 60.  Velocity 100
000022t:  Control change ::  Channel 4.  Controller 11.  Value: 96
000001t:  Pitch wheel change ::  Channel 4.   -8192
000000t:  Control change ::  Channel 4.  Controller 11.  Value: 92
000001t:  Pitch wheel change ::  Channel 4.   -8192
000000t:  Control change ::  Channel 4.  Controller 11.  Value: 88
000001t:  Pitch wheel change ::  Channel 4.   -8192
000000t:  Control change ::  Channel 4.  Controller 11.  Value: 84
000001t:  Pitch wheel change ::  Channel 4.   -8192
000000t:  Control change ::  Channel 4.  Controller 11.  Value: 80
000019t:  Note on ::  Channel 4.  Note 60.  Velocity 0
000003t:  Pitch wheel change ::  Channel 4.   -8192
000000t:  Control change ::  Channel 4.  Controller 11.  Value: 100
000000t:  Note on ::  Channel 4.  Note 63.  Velocity 100
000022t:  Control change ::  Channel 4.  Controller 11.  Value: 96
000001t:  Pitch wheel change ::  Channel 4.   -8192
000000t:  Control change ::  Channel 4.  Controller 11.  Value: 92
000001t:  Pitch wheel change ::  Channel 4.   -8192
000000t:  Control change ::  Channel 4.  Controller 11.  Value: 88
000001t:  Pitch wheel change ::  Channel 4.   -8192
000000t:  Control change ::  Channel 4.  Controller 11.  Value: 84
000001t:  Pitch wheel change ::  Channel 4.   -8192
000000t:  Control change ::  Channel 4.  Controller 11.  Value: 80
000019t:  Note on ::  Channel 4.  Note 63.  Velocity 0
000003t:  Control change ::  Channel 4.  Controller 11.  Value: 100
000000t:  Pitch wheel change ::  Channel 4.   -8192
000000t:  Note on ::  Channel 4.  Note 60.  Velocity 100
000021t:  Control change ::  Channel 4.  Controller 11.  Value: 95
000001t:  Control change ::  Channel 4.  Controller 11.  Value: 90
000001t:  Control change ::  Channel 4.  Controller 11.  Value: 85
000001t:  Pitch wheel change ::  Channel 4.   -8192
000000t:  Control change ::  Channel 4.  Controller 11.  Value: 80
000021t:  Note on ::  Channel 4.  Note 60.  Velocity 0
000003t:  Pitch wheel change ::  Channel 4.   -8192
000000t:  Control change ::  Channel 4.  Controller 11.  Value: 100
000000t:  Note on ::  Channel 4.  Note 60.  Velocity 100
000021t:  Control change ::  Channel 4.  Controller 11.  Value: 95
000001t:  Control change ::  Channel 4.  Controller 11.  Value: 90
000001t:  Control change ::  Channel 4.  Controller 11.  Value: 85
000001t:  Pitch wheel change ::  Channel 4.   -8192
000000t:  Control change ::  Channel 4.  Controller 11.  Value: 80
000021t:  Note on ::  Channel 4.  Note 60.  Velocity 0
000003t:  Pitch wheel change ::  Channel 4.   -8192
000000t:  Note on ::  Channel 4.  Note 60.  Velocity 100
000022t:  Note on ::  Channel 4.  Note 60.  Velocity 0
000002t:  Pitch wheel change ::  Channel 4.   -8192
000000t:  Control change ::  Channel 4.  Controller 11.  Value: 100
000000t:  Note on ::  Channel 4.  Note 61.  Velocity 100
000010t:  Control change ::  Channel 4.  Controller 11.  Value: 94
000001t:  Control change ::  Channel 4.  Controller 11.  Value: 87
000001t:  Pitch wheel change ::  Channel 4.   -8192
000000t:  Control change ::  Channel 4.  Controller 11.  Value: 80
000010t:  Note on ::  Channel 4.  Note 61.  Velocity 0
000002t:  Pitch wheel change ::  Channel 4.   -8192
000000t:  Control change ::  Channel 4.  Controller 11.  Value: 100
000000t:  Note on ::  Channel 4.  Note 65.  Velocity 100
000010t:  Control change ::  Channel 4.  Controller 11.  Value: 94
000001t:  Control change ::  Channel 4.  Controller 11.  Value: 87
000001t:  Pitch wheel change ::  Channel 4.   -8192
000000t:  Control change ::  Channel 4.  Controller 11.  Value: 80
000010t:  Note on ::  Channel 4.  Note 65.  Velocity 0
000002t:  Pitch wheel change ::  Channel 4.   -8192
000000t:  Control change ::  Channel 4.  Controller 11.  Value: 100
000000t:  Note on ::  Channel 4.  Note 68.  Velocity 100
000022t:  Note on ::  Channel 4.  Note 68.  Velocity 0
000002t:  Pitch wheel change ::  Channel 4.   -8192
000000t:  Control change ::  Channel 4.  Controller 11.  Value: 100
000000t:  Note on ::  Channel 4.  Note 75.  Velocity 100
000009t:  Pitch wheel change ::  Channel 4.   -8192
000000t:  Control change ::  Channel 4.  Controller 11.  Value: 98
000001t:  Control change ::  Channel 4.  Controller 11.  Value: 95
000001t:  Control change ::  Channel 4.  Controller 11.  Value: 93
000001t:  Control change ::  Channel 4.  Controller 11.  Value: 90
000033t:  Note on ::  Channel 4.  Note 75.  Velocity 0
000003t:  Pitch wheel change ::  Channel 4.   -8192
000000t:  Control change ::  Channel 4.  Controller 11.  Value: 100
000000t:  Note on ::  Channel 4.  Note 73.  Velocity 100
000007t:  Pitch wheel change ::  Channel 4.   -8192
000000t:  Control change ::  Channel 4.  Controller 11.  Value: 90
000007t:  Control change ::  Channel 4.  Controller 11.  Value: 90
000000t:  Pitch wheel change ::  Channel 4.   -8192
000007t:  Control change ::  Channel 4.  Controller 11.  Value: 75
000024t:  Note on ::  Channel 4.  Note 73.  Velocity 0
000003t:  Control change ::  Channel 4.  Controller 11.  Value: 100
000000t:  Note on ::  Channel 4.  Note 72.  Velocity 100
000024t:  Pitch wheel change ::  Channel 4.   -8192
000012t:  Pitch wheel change ::  Channel 4.   -8192
000007t:  Note on ::  Channel 4.  Note 72.  Velocity 0
000005t:  Note on ::  Channel 4.  Note 70.  Velocity 50
000008t:  Note on ::  Channel 4.  Note 70.  Velocity 0
000004t:  Note on ::  Channel 4.  Note 70.  Velocity 100
000034t:  Note on ::  Channel 4.  Note 70.  Velocity 0
000002t:  Note on ::  Channel 4.  Note 70.  Velocity 100
000045t:  Note on ::  Channel 4.  Note 70.  Velocity 0
000003t:  Note on ::  Channel 4.  Note 68.  Velocity 87
000018t:  Note on ::  Channel 4.  Note 68.  Velocity 0
000006t:  Note on ::  Channel 4.  Note 68.  Velocity 100
000060t:  Pitch wheel change ::  Channel 4.   -8192
000012t:  Pitch wheel change ::  Channel 4.   -8192
000014t:  Note on ::  Channel 4.  Note 68.  Velocity 0
000010t:  Note on ::  Channel 4.  Note 68.  Velocity 91
000014t:  Note on ::  Channel 4.  Note 68.  Velocity 0
000010t:  Note on ::  Channel 4.  Note 66.  Velocity 100
000022t:  Note on ::  Channel 4.  Note 66.  Velocity 0
000002t:  Note on ::  Channel 4.  Note 65.  Velocity 71
000007t:  Note on ::  Channel 4.  Note 65.  Velocity 0
000005t:  Note on ::  Channel 4.  Note 68.  Velocity 100
000095t:  Note on ::  Channel 4.  Note 68.  Velocity 0
000037t:  Note on ::  Channel 4.  Note 63.  Velocity 91
000013t:  Note on ::  Channel 4.  Note 63.  Velocity 0
000011t:  Note on ::  Channel 4.  Note 65.  Velocity 100
000036t:  Pitch wheel change ::  Channel 4.   -8192
000012t:  Pitch wheel change ::  Channel 4.   -8192
000022t:  Note on ::  Channel 4.  Note 65.  Velocity 0
000002t:  Note on ::  Channel 4.  Note 66.  Velocity 100
000022t:  Note on ::  Channel 4.  Note 66.  Velocity 0
000002t:  Note on ::  Channel 4.  Note 65.  Velocity 100
000024t:  Pitch wheel change ::  Channel 4.   -8192
000022t:  Note on ::  Channel 4.  Note 65.  Velocity 0
000002t:  Pitch wheel change ::  Channel 4.   -8192
000000t:  Note on ::  Channel 4.  Note 68.  Velocity 100
000022t:  Note on ::  Channel 4.  Note 68.  Velocity 0
000002t:  Note on ::  Channel 4.  Note 68.  Velocity 76
000092t:  Note on ::  Channel 4.  Note 68.  Velocity 0
000004t:  Pitch wheel change ::  Channel 4.   -8192
000000t:  Control change ::  Channel 4.  Controller 11.  Value: 100
000000t:  Note on ::  Channel 4.  Note 63.  Velocity 100
000017t:  Control change ::  Channel 4.  Controller 11.  Value: 99
000001t:  Control change ::  Channel 4.  Controller 11.  Value: 98
000001t:  Control change ::  Channel 4.  Controller 11.  Value: 97
000001t:  Control change ::  Channel 4.  Controller 11.  Value: 95
000001t:  Control change ::  Channel 4.  Controller 11.  Value: 94
000001t:  Control change ::  Channel 4.  Controller 11.  Value: 93
000001t:  Pitch wheel change ::  Channel 4.   -8192
000000t:  Control change ::  Channel 4.  Controller 11.  Value: 92
000001t:  Pitch wheel change ::  Channel 4.   -8192
000000t:  Control change ::  Channel 4.  Controller 11.  Value: 90
000001t:  Pitch wheel change ::  Channel 4.   -8192
000000t:  Control change ::  Channel 4.  Controller 11.  Value: 89
000001t:  Pitch wheel change ::  Channel 4.   -8192
000000t:  Control change ::  Channel 4.  Controller 11.  Value: 88
000001t:  Pitch wheel change ::  Channel 4.   -8192
000000t:  Control change ::  Channel 4.  Controller 11.  Value: 87
000001t:  Control change ::  Channel 4.  Controller 11.  Value: 85
000001t:  Pitch wheel change ::  Channel 4.   -8192
000000t:  Control change ::  Channel 4.  Controller 11.  Value: 84
000001t:  Pitch wheel change ::  Channel 4.   -8192
000000t:  Control change ::  Channel 4.  Controller 11.  Value: 83
000001t:  Control change ::  Channel 4.  Controller 11.  Value: 82
000001t:  Pitch wheel change ::  Channel 4.   -8192
000000t:  Control change ::  Channel 4.  Controller 11.  Value: 80
000001t:  Control change ::  Channel 4.  Controller 11.  Value: 79
000001t:  Pitch wheel change ::  Channel 4.   -8192
000000t:  Control change ::  Channel 4.  Controller 11.  Value: 78
000001t:  Control change ::  Channel 4.  Controller 11.  Value: 76
000081t:  Note on ::  Channel 4.  Note 63.  Velocity 0
000004t:  Control change ::  Channel 4.  Controller 11.  Value: 100
000000t:  Pitch wheel change ::  Channel 4.   -8192
000000t:  Note on ::  Channel 4.  Note 65.  Velocity 100
000020t:  Pitch wheel change ::  Channel 4.   -8192
000001t:  Control change ::  Channel 4.  Controller 11.  Value: 99
000001t:  Pitch wheel change ::  Channel 4.   -8192
000000t:  Control change ::  Channel 4.  Controller 11.  Value: 97
000001t:  Control change ::  Channel 4.  Controller 11.  Value: 96
000001t:  Pitch wheel change ::  Channel 4.   -8192
000000t:  Control change ::  Channel 4.  Controller 11.  Value: 94
000001t:  Pitch wheel change ::  Channel 4.   -8192
000000t:  Control change ::  Channel 4.  Controller 11.  Value: 92
000001t:  Control change ::  Channel 4.  Controller 11.  Value: 91
000001t:  Pitch wheel change ::  Channel 4.   -8192
000000t:  Control change ::  Channel 4.  Controller 11.  Value: 89
000001t:  Pitch wheel change ::  Channel 4.   -8192
000000t:  Control change ::  Channel 4.  Controller 11.  Value: 87
000001t:  Control change ::  Channel 4.  Controller 11.  Value: 86
000001t:  Pitch wheel change ::  Channel 4.   -8192
000000t:  Control change ::  Channel 4.  Controller 11.  Value: 84
000001t:  Control change ::  Channel 4.  Controller 11.  Value: 82
000017t:  Control change ::  Channel 4.  Controller 11.  Value: 74
000000t:  Pitch wheel change ::  Channel 4.   -8192
000044t:  Note on ::  Channel 4.  Note 65.  Velocity 0
000004t:  Pitch wheel change ::  Channel 4.   -8192
000000t:  Pitch wheel change ::  Channel 4.   -8192
000000t:  Control change ::  Channel 4.  Controller 11.  Value: 100
000000t:  Note on ::  Channel 4.  Note 63.  Velocity 100
000021t:  Control change ::  Channel 4.  Controller 11.  Value: 100
000000t:  Pitch wheel change ::  Channel 4.   -8192
000001t:  Pitch wheel change ::  Channel 4.   -8192
000000t:  Control change ::  Channel 4.  Controller 11.  Value: 98
000001t:  Pitch wheel change ::  Channel 4.   -8192
000000t:  Control change ::  Channel 4.  Controller 11.  Value: 96
000001t:  Pitch wheel change ::  Channel 4.   -8192
000000t:  Control change ::  Channel 4.  Controller 11.  Value: 93
000001t:  Pitch wheel change ::  Channel 4.   -8192
000000t:  Control change ::  Channel 4.  Controller 11.  Value: 91
000001t:  Pitch wheel change ::  Channel 4.   -8192
000000t:  Control change ::  Channel 4.  Controller 11.  Value: 89
000001t:  Control change ::  Channel 4.  Controller 11.  Value: 86
000001t:  Pitch wheel change ::  Channel 4.   -8192
000022t:  Pitch wheel change ::  Channel 4.   -8192
000018t:  Note on ::  Channel 4.  Note 63.  Velocity 0
000004t:  Pitch wheel change ::  Channel 4.   -8192
000001t:  Note on ::  Channel 4.  Note 63.  Velocity 100
000023t:  Pitch wheel change ::  Channel 4.   -8192
000002t:  Pitch wheel change ::  Channel 4.   -8192
000002t:  Pitch wheel change ::  Channel 4.   -8192
000002t:  Pitch wheel change ::  Channel 4.   -8192
000002t:  Pitch wheel change ::  Channel 4.   -8192
000002t:  Pitch wheel change ::  Channel 4.   -8192
000002t:  Pitch wheel change ::  Channel 4.   -8192
000081t:  Note on ::  Channel 4.  Note 63.  Velocity 0
000003t:  Control change ::  Channel 4.  Controller 11.  Value: 100
000024t:  Note on ::  Channel 4.  Note 66.  Velocity 100
000010t:  Note on ::  Channel 4.  Note 66.  Velocity 0
000026t:  Note on ::  Channel 4.  Note 66.  Velocity 100
000006t:  Note on ::  Channel 4.  Note 66.  Velocity 0
000030t:  Note on ::  Channel 4.  Note 66.  Velocity 100
000012t:  Note on ::  Channel 4.  Note 66.  Velocity 0
000024t:  Pitch wheel change ::  Channel 4.   -8192
000000t:  Note on ::  Channel 4.  Note 56.  Velocity 100
000009t:  Pitch wheel change ::  Channel 4.   -8192
000001t:  Pitch wheel change ::  Channel 4.   -8192
000002t:  Pitch wheel change ::  Channel 4.   -8192
000002t:  Pitch wheel change ::  Channel 4.   -8192
000019t:  Pitch wheel change ::  Channel 4.   -8192
000002t:  Pitch wheel change ::  Channel 4.   -8192
000002t:  Pitch wheel change ::  Channel 4.   -8192
000001t:  Pitch wheel change ::  Channel 4.   -8192
000020t:  Note on ::  Channel 4.  Note 56.  Velocity 0
000026t:  Pitch wheel change ::  Channel 4.   -8192
000000t:  Note on ::  Channel 4.  Note 54.  Velocity 100
000011t:  Pitch wheel change ::  Channel 4.   -8192
000012t:  Pitch wheel change ::  Channel 4.   -8192
000011t:  Note on ::  Channel 4.  Note 54.  Velocity 0
000002t:  Note on ::  Channel 4.  Note 51.  Velocity 83
000008t:  Note on ::  Channel 4.  Note 51.  Velocity 0
000004t:  Note on ::  Channel 4.  Note 54.  Velocity 95
000014t:  Note on ::  Channel 4.  Note 54.  Velocity 0
000034t:  Note on ::  Channel 4.  Note 61.  Velocity 100
000022t:  Note on ::  Channel 4.  Note 61.  Velocity 0
000194t:  Note on ::  Channel 4.  Note 68.  Velocity 100
000017t:  Note on ::  Channel 4.  Note 68.  Velocity 0
000007t:  Note on ::  Channel 4.  Note 68.  Velocity 93
000024t:  Note on ::  Channel 4.  Note 68.  Velocity 0
000000t:  Note on ::  Channel 4.  Note 68.  Velocity 88
000048t:  Note on ::  Channel 4.  Note 68.  Velocity 0
000000t:  Note on ::  Channel 4.  Note 68.  Velocity 101
000009t:  Note on ::  Channel 4.  Note 68.  Velocity 0
000003t:  Note on ::  Channel 4.  Note 70.  Velocity 84
000008t:  Note on ::  Channel 4.  Note 70.  Velocity 0
000004t:  Pitch wheel change ::  Channel 4.   -8192
000000t:  Note on ::  Channel 4.  Note 72.  Velocity 100
000007t:  Pitch wheel change ::  Channel 4.   -8192
000002t:  Pitch wheel change ::  Channel 4.   -8192
000002t:  Pitch wheel change ::  Channel 4.   -8192
000001t:  Pitch wheel change ::  Channel 4.   -8192
000010t:  Note on ::  Channel 4.  Note 72.  Velocity 0
000002t:  Pitch wheel change ::  Channel 4.   -8192
000000t:  Note on ::  Channel 4.  Note 75.  Velocity 100
000045t:  Note on ::  Channel 4.  Note 75.  Velocity 0
000147t:  Pitch wheel change ::  Channel 4.   -8192
000000t:  Note on ::  Channel 4.  Note 80.  Velocity 100
000019t:  Pitch wheel change ::  Channel 4.   -8192
000001t:  Pitch wheel change ::  Channel 4.   -8192
000025t:  Note on ::  Channel 4.  Note 80.  Velocity 0
000003t:  Pitch wheel change ::  Channel 4.   -8192
000000t:  Note on ::  Channel 4.  Note 80.  Velocity 100
000022t:  Note on ::  Channel 4.  Note 80.  Velocity 0
000026t:  Note on ::  Channel 4.  Note 78.  Velocity 100
000010t:  Note on ::  Channel 4.  Note 78.  Velocity 0
000014t:  Note on ::  Channel 4.  Note 77.  Velocity 87
000010t:  Note on ::  Channel 4.  Note 77.  Velocity 0
000014t:  Note on ::  Channel 4.  Note 75.  Velocity 90
000018t:  Note on ::  Channel 4.  Note 75.  Velocity 0
000006t:  Note on ::  Channel 4.  Note 72.  Velocity 83
000022t:  Note on ::  Channel 4.  Note 72.  Velocity 0
000000t:  Control change ::  Channel 4.  Controller 7.  Value: 126
000001t:  Pitch wheel change ::  Channel 4.   -8192
000001t:  Control change ::  Channel 4.  Controller 7.  Value: 126
000000t:  Note on ::  Channel 4.  Note 75.  Velocity 100
000011t:  Control change ::  Channel 4.  Controller 7.  Value: 125
000008t:  Pitch wheel change ::  Channel 4.   -8192
000001t:  Pitch wheel change ::  Channel 4.   -8192
000002t:  Control change ::  Channel 4.  Controller 7.  Value: 124
000010t:  Control change ::  Channel 4.  Controller 7.  Value: 123
000011t:  Control change ::  Channel 4.  Controller 7.  Value: 122
000002t:  Note on ::  Channel 4.  Note 75.  Velocity 0
000003t:  Pitch wheel change ::  Channel 4.   -8192
000000t:  Note on ::  Channel 4.  Note 68.  Velocity 100
000006t:  Control change ::  Channel 4.  Controller 7.  Value: 121
000008t:  Note on ::  Channel 4.  Note 68.  Velocity 0
000002t:  Control change ::  Channel 4.  Controller 7.  Value: 120
000008t:  Note on ::  Channel 4.  Note 68.  Velocity 85
000003t:  Control change ::  Channel 4.  Controller 7.  Value: 119
000011t:  Note on ::  Channel 4.  Note 68.  Velocity 0
000000t:  Control change ::  Channel 4.  Controller 7.  Value: 118
000010t:  Note on ::  Channel 4.  Note 68.  Velocity 100
000000t:  Control change ::  Channel 4.  Controller 7.  Value: 117
000011t:  Control change ::  Channel 4.  Controller 7.  Value: 116
000011t:  Control change ::  Channel 4.  Controller 7.  Value: 115
000010t:  Control change ::  Channel 4.  Controller 7.  Value: 114
000011t:  Control change ::  Channel 4.  Controller 7.  Value: 113
000002t:  Note on ::  Channel 4.  Note 68.  Velocity 0
000003t:  Note on ::  Channel 4.  Note 73.  Velocity 100
000006t:  Control change ::  Channel 4.  Controller 7.  Value: 112
000004t:  Note on ::  Channel 4.  Note 73.  Velocity 0
000006t:  Control change ::  Channel 4.  Controller 7.  Value: 111
000008t:  Note on ::  Channel 4.  Note 72.  Velocity 86
000003t:  Control change ::  Channel 4.  Controller 7.  Value: 110
000007t:  Note on ::  Channel 4.  Note 72.  Velocity 0
000004t:  Control change ::  Channel 4.  Controller 7.  Value: 109
000010t:  Pitch wheel change ::  Channel 4.   -8192
000000t:  Note on ::  Channel 4.  Note 72.  Velocity 100
000000t:  Control change ::  Channel 4.  Controller 7.  Value: 108
000011t:  Control change ::  Channel 4.  Controller 7.  Value: 107
000008t:  Pitch wheel change ::  Channel 4.   -8192
000001t:  Pitch wheel change ::  Channel 4.   -8192
000002t:  Control change ::  Channel 4.  Controller 7.  Value: 106
000010t:  Control change ::  Channel 4.  Controller 7.  Value: 105
000011t:  Control change ::  Channel 4.  Controller 7.  Value: 104
000002t:  Note on ::  Channel 4.  Note 72.  Velocity 0
000003t:  Pitch wheel change ::  Channel 4.   -8192
000000t:  Note on ::  Channel 4.  Note 72.  Velocity 100
000006t:  Control change ::  Channel 4.  Controller 7.  Value: 103
000004t:  Note on ::  Channel 4.  Note 72.  Velocity 0
000006t:  Control change ::  Channel 4.  Controller 7.  Value: 102
000008t:  Note on ::  Channel 4.  Note 73.  Velocity 100
000003t:  Control change ::  Channel 4.  Controller 7.  Value: 101
000007t:  Note on ::  Channel 4.  Note 73.  Velocity 0
000004t:  Control change ::  Channel 4.  Controller 7.  Value: 100
000010t:  Note on ::  Channel 4.  Note 72.  Velocity 100
000000t:  Control change ::  Channel 4.  Controller 7.  Value: 99
000010t:  Note on ::  Channel 4.  Note 72.  Velocity 0
000001t:  Control change ::  Channel 4.  Controller 7.  Value: 98
000011t:  Control change ::  Channel 4.  Controller 7.  Value: 97
000002t:  Note on ::  Channel 4.  Note 70.  Velocity 100
000008t:  Control change ::  Channel 4.  Controller 7.  Value: 96
000006t:  Note on ::  Channel 4.  Note 70.  Velocity 0
000005t:  Control change ::  Channel 4.  Controller 7.  Value: 95
000005t:  Note on ::  Channel 4.  Note 68.  Velocity 100
000006t:  Control change ::  Channel 4.  Controller 7.  Value: 94
000010t:  Control change ::  Channel 4.  Controller 7.  Value: 93
000002t:  Note on ::  Channel 4.  Note 68.  Velocity 0
000006t:  Note on ::  Channel 4.  Note 65.  Velocity 100
000003t:  Control change ::  Channel 4.  Controller 7.  Value: 92
000011t:  Control change ::  Channel 4.  Controller 7.  Value: 91
000008t:  Note on ::  Channel 4.  Note 65.  Velocity 0
000002t:  Note on ::  Channel 4.  Note 65.  Velocity 100
000000t:  Control change ::  Channel 4.  Controller 7.  Value: 90
000011t:  Control change ::  Channel 4.  Controller 7.  Value: 89
000011t:  Control change ::  Channel 4.  Controller 7.  Value: 88
000010t:  Control change ::  Channel 4.  Controller 7.  Value: 87
000011t:  Control change ::  Channel 4.  Controller 7.  Value: 86
000002t:  Note on ::  Channel 4.  Note 65.  Velocity 0
000003t:  Note on ::  Channel 4.  Note 63.  Velocity 100
000006t:  Control change ::  Channel 4.  Controller 7.  Value: 85
000010t:  Control change ::  Channel 4.  Controller 7.  Value: 84
000006t:  Note on ::  Channel 4.  Note 63.  Velocity 0
000002t:  Pitch wheel change ::  Channel 4.   -8192
000000t:  Note on ::  Channel 4.  Note 63.  Velocity 100
000003t:  Control change ::  Channel 4.  Controller 7.  Value: 83
000010t:  Control change ::  Channel 4.  Controller 7.  Value: 82
000006t:  Pitch wheel change ::  Channel 4.   -8192
000001t:  Pitch wheel change ::  Channel 4.   -8192
000004t:  Control change ::  Channel 4.  Controller 7.  Value: 81
000011t:  Control change ::  Channel 4.  Controller 7.  Value: 80
000010t:  Note on ::  Channel 4.  Note 63.  Velocity 0
000000t:  Control change ::  Channel 4.  Controller 7.  Value: 79
000003t:  Pitch wheel change ::  Channel 4.   -8192
000000t:  Note on ::  Channel 4.  Note 60.  Velocity 100
000008t:  Control change ::  Channel 4.  Controller 7.  Value: 78
000011t:  Control change ::  Channel 4.  Controller 7.  Value: 77
000010t:  Control change ::  Channel 4.  Controller 7.  Value: 76
000011t:  Control change ::  Channel 4.  Controller 7.  Value: 75
000011t:  Control change ::  Channel 4.  Controller 7.  Value: 74
000010t:  Control change ::  Channel 4.  Controller 7.  Value: 73
000007t:  Note on ::  Channel 4.  Note 60.  Velocity 0
000004t:  Note on ::  Channel 4.  Note 60.  Velocity 100
000000t:  Control change ::  Channel 4.  Controller 7.  Value: 72
000010t:  Note on ::  Channel 4.  Note 60.  Velocity 0
000001t:  Control change ::  Channel 4.  Controller 7.  Value: 71
000001t:  Note on ::  Channel 4.  Note 58.  Velocity 70
000009t:  Control change ::  Channel 4.  Controller 7.  Value: 70
000001t:  Note on ::  Channel 4.  Note 58.  Velocity 0
000002t:  Note on ::  Channel 4.  Note 56.  Velocity 70
000008t:  Control change ::  Channel 4.  Controller 7.  Value: 69
000002t:  Note on ::  Channel 4.  Note 56.  Velocity 0
000002t:  Note on ::  Channel 4.  Note 58.  Velocity 100
000007t:  Control change ::  Channel 4.  Controller 7.  Value: 68
000003t:  Note on ::  Channel 4.  Note 58.  Velocity 0
000002t:  Note on ::  Channel 4.  Note 56.  Velocity 70
000005t:  Control change ::  Channel 4.  Controller 7.  Value: 67
000005t:  Note on ::  Channel 4.  Note 56.  Velocity 0
000002t:  Note on ::  Channel 4.  Note 54.  Velocity 70
000004t:  Control change ::  Channel 4.  Controller 7.  Value: 66
000006t:  Note on ::  Channel 4.  Note 54.  Velocity 0
000002t:  Note on ::  Channel 4.  Note 56.  Velocity 100
000003t:  Control change ::  Channel 4.  Controller 7.  Value: 65
000007t:  Note on ::  Channel 4.  Note 56.  Velocity 0
000002t:  Note on ::  Channel 4.  Note 54.  Velocity 70
000001t:  Control change ::  Channel 4.  Controller 7.  Value: 64
000009t:  Note on ::  Channel 4.  Note 54.  Velocity 0
000002t:  Note on ::  Channel 4.  Note 51.  Velocity 70
000000t:  Control change ::  Channel 4.  Controller 7.  Value: 63
000010t:  Note on ::  Channel 4.  Note 51.  Velocity 0
000001t:  Control change ::  Channel 4.  Controller 7.  Value: 62
000001t:  Note on ::  Channel 4.  Note 54.  Velocity 100
000009t:  Control change ::  Channel 4.  Controller 7.  Value: 61
000001t:  Note on ::  Channel 4.  Note 54.  Velocity 0
000002t:  Note on ::  Channel 4.  Note 51.  Velocity 70
000008t:  Control change ::  Channel 4.  Controller 7.  Value: 60
000002t:  Note on ::  Channel 4.  Note 51.  Velocity 0
000002t:  Note on ::  Channel 4.  Note 49.  Velocity 70
000007t:  Control change ::  Channel 4.  Controller 7.  Value: 59
000003t:  Note on ::  Channel 4.  Note 49.  Velocity 0
000002t:  Pitch wheel change ::  Channel 4.   -8192
000000t:  Note on ::  Channel 4.  Note 48.  Velocity 100
000005t:  Control change ::  Channel 4.  Controller 7.  Value: 58
000004t:  Pitch wheel change ::  Channel 4.   -8192
000001t:  Pitch wheel change ::  Channel 4.   -8192
000001t:  Pitch wheel change ::  Channel 4.   -8192
000001t:  Pitch wheel change ::  Channel 4.   -8192
000004t:  Control change ::  Channel 4.  Controller 7.  Value: 57
000005t:  Pitch wheel change ::  Channel 4.   -8192
000001t:  Pitch wheel change ::  Channel 4.   -8192
000001t:  Pitch wheel change ::  Channel 4.   -8192
000001t:  Pitch wheel change ::  Channel 4.   -8192
000003t:  Control change ::  Channel 4.  Controller 7.  Value: 56
000010t:  Control change ::  Channel 4.  Controller 7.  Value: 55
000008t:  Note on ::  Channel 4.  Note 48.  Velocity 0
000003t:  Pitch wheel change ::  Channel 4.   -8192
000000t:  Note on ::  Channel 4.  Note 65.  Velocity 80
000000t:  Control change ::  Channel 4.  Controller 7.  Value: 54
000011t:  Control change ::  Channel 4.  Controller 7.  Value: 53
000009t:  Pitch wheel change ::  Channel 4.   -8192
000001t:  Pitch wheel change ::  Channel 4.   -8192
000000t:  Control change ::  Channel 4.  Controller 7.  Value: 52
000001t:  Pitch wheel change ::  Channel 4.   -8192
000001t:  Pitch wheel change ::  Channel 4.   -8192
000001t:  Pitch wheel change ::  Channel 4.   -8192
000001t:  Pitch wheel change ::  Channel 4.   -8192
000007t:  Note on ::  Channel 4.  Note 65.  Velocity 0
000000t:  Control change ::  Channel 4.  Controller 7.  Value: 51
000011t:  Control change ::  Channel 4.  Controller 7.  Value: 50
000005t:  Note on ::  Channel 4.  Note 68.  Velocity 80
000005t:  Control change ::  Channel 4.  Controller 7.  Value: 49
000003t:  Note on ::  Channel 4.  Note 68.  Velocity 0
000008t:  Control change ::  Channel 4.  Controller 7.  Value: 48
000008t:  Note on ::  Channel 4.  Note 73.  Velocity 80
000003t:  Control change ::  Channel 4.  Controller 7.  Value: 47
000005t:  Note on ::  Channel 4.  Note 73.  Velocity 0
000005t:  Control change ::  Channel 4.  Controller 7.  Value: 46
000011t:  Control change ::  Channel 4.  Controller 7.  Value: 45
000011t:  Control change ::  Channel 4.  Controller 7.  Value: 44
000010t:  Control change ::  Channel 4.  Controller 7.  Value: 43
000003t:  Note on ::  Channel 4.  Note 60.  Velocity 80
000008t:  Note on ::  Channel 4.  Note 60.  Velocity 0
000000t:  Control change ::  Channel 4.  Controller 7.  Value: 42
000010t:  Control change ::  Channel 4.  Controller 7.  Value: 41
000006t:  Note on ::  Channel 4.  Note 63.  Velocity 80
000005t:  Control change ::  Channel 4.  Controller 7.  Value: 40
000003t:  Note on ::  Channel 4.  Note 63.  Velocity 0
000008t:  Control change ::  Channel 4.  Controller 7.  Value: 39
000008t:  Note on ::  Channel 4.  Note 68.  Velocity 80
000002t:  Control change ::  Channel 4.  Controller 7.  Value: 38
000006t:  Note on ::  Channel 4.  Note 68.  Velocity 0
000005t:  Control change ::  Channel 4.  Controller 7.  Value: 37
000011t:  Control change ::  Channel 4.  Controller 7.  Value: 36
000010t:  Control change ::  Channel 4.  Controller 7.  Value: 35
000011t:  Control change ::  Channel 4.  Controller 7.  Value: 34
000003t:  Note on ::  Channel 4.  Note 58.  Velocity 80
000008t:  Note on ::  Channel 4.  Note 58.  Velocity 0
000000t:  Control change ::  Channel 4.  Controller 7.  Value: 33
000010t:  Control change ::  Channel 4.  Controller 7.  Value: 32
000006t:  Note on ::  Channel 4.  Note 61.  Velocity 80
000005t:  Control change ::  Channel 4.  Controller 7.  Value: 31
000003t:  Note on ::  Channel 4.  Note 61.  Velocity 0
000008t:  Control change ::  Channel 4.  Controller 7.  Value: 30
000008t:  Note on ::  Channel 4.  Note 66.  Velocity 80
000002t:  Control change ::  Channel 4.  Controller 7.  Value: 29
000006t:  Note on ::  Channel 4.  Note 66.  Velocity 0
000005t:  Control change ::  Channel 4.  Controller 7.  Value: 28
000011t:  Pitch wheel change ::  Channel 4.   -8192
000000t:  Note on ::  Channel 4.  Note 60.  Velocity 80
000000t:  Control change ::  Channel 4.  Controller 7.  Value: 27
000010t:  Control change ::  Channel 4.  Controller 7.  Value: 26
000010t:  Pitch wheel change ::  Channel 4.   -8192
000001t:  Pitch wheel change ::  Channel 4.   -8192
000000t:  Control change ::  Channel 4.  Controller 7.  Value: 25
000001t:  Pitch wheel change ::  Channel 4.   -8192
000001t:  Pitch wheel change ::  Channel 4.   -8192
000001t:  Pitch wheel change ::  Channel 4.   -8192
000001t:  Pitch wheel change ::  Channel 4.   -8192
000007t:  Note on ::  Channel 4.  Note 60.  Velocity 0
000000t:  Control change ::  Channel 4.  Controller 7.  Value: 24
000010t:  Control change ::  Channel 4.  Controller 7.  Value: 23
000006t:  Note on ::  Channel 4.  Note 63.  Velocity 80
000005t:  Control change ::  Channel 4.  Controller 7.  Value: 22
000003t:  Note on ::  Channel 4.  Note 63.  Velocity 0
000008t:  Control change ::  Channel 4.  Controller 7.  Value: 21
000008t:  Note on ::  Channel 4.  Note 68.  Velocity 80
000002t:  Control change ::  Channel 4.  Controller 7.  Value: 20
000006t:  Note on ::  Channel 4.  Note 68.  Velocity 0
000005t:  Control change ::  Channel 4.  Controller 7.  Value: 19
000011t:  Pitch wheel change ::  Channel 4.   -8192
000000t:  Note on ::  Channel 4.  Note 65.  Velocity 80
000000t:  Control change ::  Channel 4.  Controller 7.  Value: 18
000010t:  Control change ::  Channel 4.  Controller 7.  Value: 17
000010t:  Pitch wheel change ::  Channel 4.   -8192
000001t:  Pitch wheel change ::  Channel 4.   -8192
000000t:  Control change ::  Channel 4.  Controller 7.  Value: 16
000001t:  Pitch wheel change ::  Channel 4.   -8192
000001t:  Pitch wheel change ::  Channel 4.   -8192
000001t:  Pitch wheel change ::  Channel 4.   -8192
000001t:  Pitch wheel change ::  Channel 4.   -8192
000007t:  Note on ::  Channel 4.  Note 65.  Velocity 0
000000t:  Control change ::  Channel 4.  Controller 7.  Value: 15
000010t:  Control change ::  Channel 4.  Controller 7.  Value: 14
000006t:  Note on ::  Channel 4.  Note 68.  Velocity 80
000005t:  Control change ::  Channel 4.  Controller 7.  Value: 13
000003t:  Note on ::  Channel 4.  Note 68.  Velocity 0
000008t:  Control change ::  Channel 4.  Controller 7.  Value: 12
000008t:  Note on ::  Channel 4.  Note 73.  Velocity 80
000002t:  Control change ::  Channel 4.  Controller 7.  Value: 11
000006t:  Note on ::  Channel 4.  Note 73.  Velocity 0
000005t:  Control change ::  Channel 4.  Controller 7.  Value: 10
000011t:  Control change ::  Channel 4.  Controller 7.  Value: 9
000010t:  Control change ::  Channel 4.  Controller 7.  Value: 8
000011t:  Control change ::  Channel 4.  Controller 7.  Value: 7
000003t:  Note on ::  Channel 4.  Note 60.  Velocity 80
000008t:  Note on ::  Channel 4.  Note 60.  Velocity 0
000000t:  Control change ::  Channel 4.  Controller 7.  Value: 6
000010t:  Control change ::  Channel 4.  Controller 7.  Value: 5
000006t:  Note on ::  Channel 4.  Note 63.  Velocity 80
000005t:  Control change ::  Channel 4.  Controller 7.  Value: 4
000003t:  Note on ::  Channel 4.  Note 63.  Velocity 0
000008t:  Control change ::  Channel 4.  Controller 7.  Value: 3
000008t:  Note on ::  Channel 4.  Note 68.  Velocity 80
000002t:  Control change ::  Channel 4.  Controller 7.  Value: 2
000006t:  Note on ::  Channel 4.  Note 68.  Velocity 0
000005t:  Control change ::  Channel 4.  Controller 7.  Value: 1
000010t:  Control change ::  Channel 4.  Controller 7.  Value: 0
000000t:  Meta-event type $2f (End-track event) of length 0
Sigma t = 24909

Track chunk of 18468 bytes
000000t:  Meta-event type $21 (?) of length 1
	  _
000000t:  Program (patch) change ::  Channel 5.  Patch 30 (Distortion Guitar)
000000t:  Control change ::  Channel 5.  Controller 7.  Value: 92
000000t:  Control change ::  Channel 5.  Controller 10.  Value: 24
000085t:  Control change ::  Channel 5.  Controller 11.  Value: 100
000005t:  Control change ::  Channel 5.  Controller 100.  Value: 0
000002t:  Control change ::  Channel 5.  Controller 101.  Value: 0
000002t:  Control change ::  Channel 5.  Controller 6.  Value: 16
000002t:  Pitch wheel change ::  Channel 5.   -8192
000008t:  Control change ::  Channel 5.  Controller 1.  Value: 62
000002t:  Meta-event type $21 (?) of length 1
	  _
000000t:  Sysex type f0 of length 9
000000t:  Meta-event type $21 (?) of length 1
	  _
000002t:  Control change ::  Channel 5.  Controller 65.  Value: 0
000002t:  Control change ::  Channel 5.  Controller 5.  Value: 0
000002t:  Meta-event type $21 (?) of length 1
	  _
000000t:  Sysex type f0 of length 9
000000t:  Meta-event type $21 (?) of length 1
	  _
000002t:  Meta-event type $21 (?) of length 1
	  _
000000t:  Sysex type f0 of length 9
000000t:  Meta-event type $21 (?) of length 1
	  _
000027t:  Control change ::  Channel 5.  Controller 11.  Value: 120
000000t:  Note on ::  Channel 5.  Note 44.  Velocity 80
000001t:  Note on ::  Channel 5.  Note 51.  Velocity 83
000000t:  Control change ::  Channel 5.  Controller 11.  Value: 117
000001t:  Note on ::  Channel 5.  Note 56.  Velocity 87
000000t:  Control change ::  Channel 5.  Controller 11.  Value: 115
000001t:  Note on ::  Channel 5.  Note 60.  Velocity 92
000000t:  Control change ::  Channel 5.  Controller 11.  Value: 113
000001t:  Note on ::  Channel 5.  Note 63.  Velocity 98
000000t:  Note on ::  Channel 5.  Note 68.  Velocity 105
000000t:  Control change ::  Channel 5.  Controller 11.  Value: 112
000001t:  Control change ::  Channel 5.  Controller 11.  Value: 110
000001t:  Control change ::  Channel 5.  Controller 11.  Value: 108
000001t:  Control change ::  Channel 5.  Controller 11.  Value: 107
000001t:  Control change ::  Channel 5.  Controller 11.  Value: 106
000001t:  Control change ::  Channel 5.  Controller 11.  Value: 105
000001t:  Control change ::  Channel 5.  Controller 11.  Value: 103
000001t:  Control change ::  Channel 5.  Controller 11.  Value: 102
000002t:  Control change ::  Channel 5.  Controller 11.  Value: 101
000001t:  Control change ::  Channel 5.  Controller 11.  Value: 100
000001t:  Control change ::  Channel 5.  Controller 11.  Value: 99
000001t:  Control change ::  Channel 5.  Controller 11.  Value: 98
000002t:  Control change ::  Channel 5.  Controller 11.  Value: 97
000002t:  Control change ::  Channel 5.  Controller 11.  Value: 96
000002t:  Control change ::  Channel 5.  Controller 11.  Value: 95
000002t:  Control change ::  Channel 5.  Controller 11.  Value: 94
000003t:  Control change ::  Channel 5.  Controller 11.  Value: 93
000004t:  Control change ::  Channel 5.  Controller 11.  Value: 92
000005t:  Control change ::  Channel 5.  Controller 11.  Value: 91
000009t:  Control change ::  Channel 5.  Controller 11.  Value: 90
000023t:  Pitch wheel change ::  Channel 5.   -8192
000003t:  Note on ::  Channel 5.  Note 68.  Velocity 0
000000t:  Note on ::  Channel 5.  Note 51.  Velocity 0
000000t:  Note on ::  Channel 5.  Note 56.  Velocity 0
000000t:  Note on ::  Channel 5.  Note 44.  Velocity 0
000000t:  Note on ::  Channel 5.  Note 63.  Velocity 0
000000t:  Note on ::  Channel 5.  Note 60.  Velocity 0
000000t:  Pitch wheel change ::  Channel 5.   -8192
000003t:  Control change ::  Channel 5.  Controller 11.  Value: 120
000000t:  Note on ::  Channel 5.  Note 46.  Velocity 80
000000t:  Pitch wheel change ::  Channel 5.   -8192
000001t:  Note on ::  Channel 5.  Note 53.  Velocity 83
000000t:  Control change ::  Channel 5.  Controller 11.  Value: 117
000001t:  Note on ::  Channel 5.  Note 58.  Velocity 87
000000t:  Control change ::  Channel 5.  Controller 11.  Value: 115
000001t:  Note on ::  Channel 5.  Note 61.  Velocity 92
000000t:  Control change ::  Channel 5.  Controller 11.  Value: 113
000001t:  Note on ::  Channel 5.  Note 65.  Velocity 98
000000t:  Note on ::  Channel 5.  Note 70.  Velocity 105
000000t:  Control change ::  Channel 5.  Controller 11.  Value: 111
000001t:  Control change ::  Channel 5.  Controller 11.  Value: 109
000001t:  Control change ::  Channel 5.  Controller 11.  Value: 108
000001t:  Control change ::  Channel 5.  Controller 11.  Value: 106
000001t:  Control change ::  Channel 5.  Controller 11.  Value: 105
000001t:  Control change ::  Channel 5.  Controller 11.  Value: 104
000001t:  Control change ::  Channel 5.  Controller 11.  Value: 103
000001t:  Control change ::  Channel 5.  Controller 11.  Value: 102
000001t:  Control change ::  Channel 5.  Controller 11.  Value: 101
000001t:  Control change ::  Channel 5.  Controller 11.  Value: 100
000001t:  Control change ::  Channel 5.  Controller 11.  Value: 99
000002t:  Control change ::  Channel 5.  Controller 11.  Value: 98
000001t:  Control change ::  Channel 5.  Controller 11.  Value: 97
000002t:  Control change ::  Channel 5.  Controller 11.  Value: 96
000001t:  Control change ::  Channel 5.  Controller 11.  Value: 95
000003t:  Control change ::  Channel 5.  Controller 11.  Value: 94
000002t:  Control change ::  Channel 5.  Controller 11.  Value: 93
000004t:  Control change ::  Channel 5.  Controller 11.  Value: 92
000005t:  Control change ::  Channel 5.  Controller 11.  Value: 91
000009t:  Control change ::  Channel 5.  Controller 11.  Value: 90
000024t:  Pitch wheel change ::  Channel 5.   -8192
000002t:  Note on ::  Channel 5.  Note 70.  Velocity 0
000000t:  Note on ::  Channel 5.  Note 53.  Velocity 0
000000t:  Note on ::  Channel 5.  Note 58.  Velocity 0
000000t:  Note on ::  Channel 5.  Note 46.  Velocity 0
000000t:  Note on ::  Channel 5.  Note 65.  Velocity 0
000000t:  Note on ::  Channel 5.  Note 61.  Velocity 0
000000t:  Pitch wheel change ::  Channel 5.   -8192
000002t:  Control change ::  Channel 5.  Controller 11.  Value: 120
000000t:  Note on ::  Channel 5.  Note 42.  Velocity 80
000000t:  Pitch wheel change ::  Channel 5.   -8192
000001t:  Note on ::  Channel 5.  Note 49.  Velocity 83
000000t:  Control change ::  Channel 5.  Controller 11.  Value: 117
000001t:  Note on ::  Channel 5.  Note 54.  Velocity 87
000000t:  Control change ::  Channel 5.  Controller 11.  Value: 115
000001t:  Note on ::  Channel 5.  Note 58.  Velocity 92
000000t:  Control change ::  Channel 5.  Controller 11.  Value: 113
000001t:  Note on ::  Channel 5.  Note 61.  Velocity 98
000000t:  Note on ::  Channel 5.  Note 66.  Velocity 105
000000t:  Control change ::  Channel 5.  Controller 11.  Value: 111
000001t:  Control change ::  Channel 5.  Controller 11.  Value: 109
000001t:  Control change ::  Channel 5.  Controller 11.  Value: 108
000001t:  Control change ::  Channel 5.  Controller 11.  Value: 106
000001t:  Control change ::  Channel 5.  Controller 11.  Value: 105
000001t:  Control change ::  Channel 5.  Controller 11.  Value: 104
000001t:  Control change ::  Channel 5.  Controller 11.  Value: 103
000001t:  Control change ::  Channel 5.  Controller 11.  Value: 102
000001t:  Control change ::  Channel 5.  Controller 11.  Value: 101
000001t:  Control change ::  Channel 5.  Controller 11.  Value: 100
000001t:  Control change ::  Channel 5.  Controller 11.  Value: 99
000001t:  Control change ::  Channel 5.  Controller 11.  Value: 98
000002t:  Control change ::  Channel 5.  Controller 11.  Value: 97
000001t:  Control change ::  Channel 5.  Controller 11.  Value: 96
000002t:  Control change ::  Channel 5.  Controller 11.  Value: 95
000003t:  Control change ::  Channel 5.  Controller 11.  Value: 94
000002t:  Control change ::  Channel 5.  Controller 11.  Value: 93
000004t:  Control change ::  Channel 5.  Controller 11.  Value: 92
000004t:  Control change ::  Channel 5.  Controller 11.  Value: 91
000009t:  Control change ::  Channel 5.  Controller 11.  Value: 90
000024t:  Pitch wheel change ::  Channel 5.   -8192
000002t:  Note on ::  Channel 5.  Note 66.  Velocity 0
000000t:  Note on ::  Channel 5.  Note 49.  Velocity 0
000000t:  Note on ::  Channel 5.  Note 54.  Velocity 0
000000t:  Note on ::  Channel 5.  Note 42.  Velocity 0
000000t:  Note on ::  Channel 5.  Note 61.  Velocity 0
000000t:  Note on ::  Channel 5.  Note 58.  Velocity 0
000000t:  Pitch wheel change ::  Channel 5.   -8192
000002t:  Control change ::  Channel 5.  Controller 11.  Value: 120
000000t:  Note on ::  Channel 5.  Note 44.  Velocity 80
000000t:  Pitch wheel change ::  Channel 5.   -8192
000001t:  Note on ::  Channel 5.  Note 51.  Velocity 83
000000t:  Control change ::  Channel 5.  Controller 11.  Value: 116
000001t:  Note on ::  Channel 5.  Note 56.  Velocity 87
000000t:  Control change ::  Channel 5.  Controller 11.  Value: 113
000001t:  Note on ::  Channel 5.  Note 60.  Velocity 92
000000t:  Control change ::  Channel 5.  Controller 11.  Value: 110
000001t:  Note on ::  Channel 5.  Note 63.  Velocity 98
000000t:  Note on ::  Channel 5.  Note 68.  Velocity 105
000000t:  Control change ::  Channel 5.  Controller 11.  Value: 108
000001t:  Control change ::  Channel 5.  Controller 11.  Value: 106
000001t:  Control change ::  Channel 5.  Controller 11.  Value: 104
000001t:  Control change ::  Channel 5.  Controller 11.  Value: 102
000001t:  Control change ::  Channel 5.  Controller 11.  Value: 101
000001t:  Control change ::  Channel 5.  Controller 11.  Value: 100
000001t:  Control change ::  Channel 5.  Controller 11.  Value: 99
000001t:  Control change ::  Channel 5.  Controller 11.  Value: 98
000001t:  Control change ::  Channel 5.  Controller 11.  Value: 97
000001t:  Control change ::  Channel 5.  Controller 11.  Value: 96
000001t:  Control change ::  Channel 5.  Controller 11.  Value: 95
000002t:  Control change ::  Channel 5.  Controller 11.  Value: 94
000001t:  Control change ::  Channel 5.  Controller 11.  Value: 93
000003t:  Control change ::  Channel 5.  Controller 11.  Value: 92
000003t:  Control change ::  Channel 5.  Controller 11.  Value: 91
000006t:  Control change ::  Channel 5.  Controller 11.  Value: 90
000004t:  Note on ::  Channel 5.  Note 63.  Velocity 0
000001t:  Note on ::  Channel 5.  Note 60.  Velocity 0
000000t:  Note on ::  Channel 5.  Note 44.  Velocity 0
000000t:  Note on ::  Channel 5.  Note 68.  Velocity 0
000010t:  Note on ::  Channel 5.  Note 56.  Velocity 0
000001t:  Note on ::  Channel 5.  Note 51.  Velocity 0
000001t:  Pitch wheel change ::  Channel 5.   -8192
000001t:  Pitch wheel change ::  Channel 5.   -8192
000001t:  Control change ::  Channel 5.  Controller 11.  Value: 120
000000t:  Note on ::  Channel 5.  Note 49.  Velocity 80
000001t:  Note on ::  Channel 5.  Note 49.  Velocity 0
000000t:  Pitch wheel change ::  Channel 5.   -8192
000000t:  Note on ::  Channel 5.  Note 49.  Velocity 90
000000t:  Control change ::  Channel 5.  Controller 11.  Value: 113
000001t:  Note on ::  Channel 5.  Note 56.  Velocity 94
000000t:  Control change ::  Channel 5.  Controller 11.  Value: 108
000001t:  Note on ::  Channel 5.  Note 61.  Velocity 98
000000t:  Note on ::  Channel 5.  Note 65.  Velocity 105
000000t:  Control change ::  Channel 5.  Controller 11.  Value: 105
000001t:  Control change ::  Channel 5.  Controller 11.  Value: 102
000001t:  Control change ::  Channel 5.  Controller 11.  Value: 99
000001t:  Control change ::  Channel 5.  Controller 11.  Value: 97
000001t:  Control change ::  Channel 5.  Controller 11.  Value: 96
000001t:  Control change ::  Channel 5.  Controller 11.  Value: 95
000001t:  Control change ::  Channel 5.  Controller 11.  Value: 93
000002t:  Control change ::  Channel 5.  Controller 11.  Value: 92
000001t:  Control change ::  Channel 5.  Controller 11.  Value: 91
000004t:  Control change ::  Channel 5.  Controller 11.  Value: 90
000006t:  Note on ::  Channel 5.  Note 65.  Velocity 0
000000t:  Note on ::  Channel 5.  Note 49.  Velocity 0
000000t:  Note on ::  Channel 5.  Note 56.  Velocity 0
000000t:  Note on ::  Channel 5.  Note 61.  Velocity 0
000003t:  Control change ::  Channel 5.  Controller 11.  Value: 120
000000t:  Note on ::  Channel 5.  Note 49.  Velocity 94
000001t:  Note on ::  Channel 5.  Note 56.  Velocity 97
000000t:  Control change ::  Channel 5.  Controller 11.  Value: 117
000001t:  Note on ::  Channel 5.  Note 61.  Velocity 101
000000t:  Note on ::  Channel 5.  Note 85.  Velocity 21
000000t:  Note on ::  Channel 5.  Note 65.  Velocity 106
000000t:  Control change ::  Channel 5.  Controller 11.  Value: 115
000001t:  Control change ::  Channel 5.  Controller 11.  Value: 113
000001t:  Control change ::  Channel 5.  Controller 11.  Value: 112
000001t:  Control change ::  Channel 5.  Controller 11.  Value: 110
000001t:  Control change ::  Channel 5.  Controller 11.  Value: 108
000001t:  Control change ::  Channel 5.  Controller 11.  Value: 107
000001t:  Control change ::  Channel 5.  Controller 11.  Value: 106
000001t:  Control change ::  Channel 5.  Controller 11.  Value: 105
000001t:  Control change ::  Channel 5.  Controller 11.  Value: 103
000002t:  Control change ::  Channel 5.  Controller 11.  Value: 102
000001t:  Control change ::  Channel 5.  Controller 11.  Value: 101
000001t:  Control change ::  Channel 5.  Controller 11.  Value: 100
000001t:  Control change ::  Channel 5.  Controller 11.  Value: 99
000002t:  Control change ::  Channel 5.  Controller 11.  Value: 98
000001t:  Control change ::  Channel 5.  Controller 11.  Value: 97
000002t:  Control change ::  Channel 5.  Controller 11.  Value: 96
000002t:  Control change ::  Channel 5.  Controller 11.  Value: 95
000003t:  Control change ::  Channel 5.  Controller 11.  Value: 94
000002t:  Control change ::  Channel 5.  Controller 11.  Value: 93
000004t:  Control change ::  Channel 5.  Controller 11.  Value: 92
000005t:  Control change ::  Channel 5.  Controller 11.  Value: 91
000010t:  Control change ::  Channel 5.  Controller 11.  Value: 90
000126t:  Note on ::  Channel 5.  Note 56.  Velocity 0
000006t:  Note on ::  Channel 5.  Note 65.  Velocity 0
000004t:  Note on ::  Channel 5.  Note 49.  Velocity 0
000009t:  Note on ::  Channel 5.  Note 61.  Velocity 0
000001t:  Note on ::  Channel 5.  Note 85.  Velocity 0
000000t:  Control change ::  Channel 5.  Controller 11.  Value: 120
000000t:  Note on ::  Channel 5.  Note 44.  Velocity 80
000001t:  Note on ::  Channel 5.  Note 51.  Velocity 83
000000t:  Control change ::  Channel 5.  Controller 11.  Value: 117
000001t:  Note on ::  Channel 5.  Note 56.  Velocity 87
000000t:  Control change ::  Channel 5.  Controller 11.  Value: 115
000001t:  Note on ::  Channel 5.  Note 60.  Velocity 92
000000t:  Control change ::  Channel 5.  Controller 11.  Value: 113
000001t:  Note on ::  Channel 5.  Note 63.  Velocity 98
000000t:  Note on ::  Channel 5.  Note 68.  Velocity 105
000000t:  Control change ::  Channel 5.  Controller 11.  Value: 111
000001t:  Control change ::  Channel 5.  Controller 11.  Value: 109
000001t:  Control change ::  Channel 5.  Controller 11.  Value: 108
000001t:  Control change ::  Channel 5.  Controller 11.  Value: 106
000001t:  Control change ::  Channel 5.  Controller 11.  Value: 105
000001t:  Control change ::  Channel 5.  Controller 11.  Value: 104
000001t:  Control change ::  Channel 5.  Controller 11.  Value: 103
000001t:  Control change ::  Channel 5.  Controller 11.  Value: 102
000001t:  Control change ::  Channel 5.  Controller 11.  Value: 101
000001t:  Control change ::  Channel 5.  Controller 11.  Value: 100
000001t:  Control change ::  Channel 5.  Controller 11.  Value: 99
000002t:  Control change ::  Channel 5.  Controller 11.  Value: 98
000001t:  Control change ::  Channel 5.  Controller 11.  Value: 97
000002t:  Control change ::  Channel 5.  Controller 11.  Value: 96
000001t:  Control change ::  Channel 5.  Controller 11.  Value: 95
000003t:  Control change ::  Channel 5.  Controller 11.  Value: 94
000002t:  Control change ::  Channel 5.  Controller 11.  Value: 93
000004t:  Control change ::  Channel 5.  Controller 11.  Value: 92
000005t:  Control change ::  Channel 5.  Controller 11.  Value: 91
000009t:  Control change ::  Channel 5.  Controller 11.  Value: 90
000025t:  Pitch wheel change ::  Channel 5.   -8192
000002t:  Note on ::  Channel 5.  Note 68.  Velocity 0
000000t:  Note on ::  Channel 5.  Note 51.  Velocity 0
000000t:  Note on ::  Channel 5.  Note 56.  Velocity 0
000000t:  Note on ::  Channel 5.  Note 44.  Velocity 0
000000t:  Note on ::  Channel 5.  Note 63.  Velocity 0
000000t:  Note on ::  Channel 5.  Note 60.  Velocity 0
000000t:  Pitch wheel change ::  Channel 5.   -8192
000002t:  Control change ::  Channel 5.  Controller 11.  Value: 120
000000t:  Note on ::  Channel 5.  Note 46.  Velocity 70
000001t:  Note on ::  Channel 5.  Note 46.  Velocity 0
000000t:  Pitch wheel change ::  Channel 5.   -8192
000000t:  Note on ::  Channel 5.  Note 46.  Velocity 80
000000t:  Control change ::  Channel 5.  Controller 11.  Value: 117
000001t:  Note on ::  Channel 5.  Note 53.  Velocity 83
000000t:  Control change ::  Channel 5.  Controller 11.  Value: 115
000001t:  Note on ::  Channel 5.  Note 58.  Velocity 87
000000t:  Control change ::  Channel 5.  Controller 11.  Value: 113
000001t:  Note on ::  Channel 5.  Note 61.  Velocity 92
000000t:  Control change ::  Channel 5.  Controller 11.  Value: 111
000001t:  Note on ::  Channel 5.  Note 65.  Velocity 98
000000t:  Note on ::  Channel 5.  Note 70.  Velocity 104
000000t:  Control change ::  Channel 5.  Controller 11.  Value: 109
000001t:  Control change ::  Channel 5.  Controller 11.  Value: 108
000001t:  Control change ::  Channel 5.  Controller 11.  Value: 106
000001t:  Control change ::  Channel 5.  Controller 11.  Value: 105
000001t:  Control change ::  Channel 5.  Controller 11.  Value: 104
000001t:  Control change ::  Channel 5.  Controller 11.  Value: 103
000001t:  Control change ::  Channel 5.  Controller 11.  Value: 102
000001t:  Control change ::  Channel 5.  Controller 11.  Value: 101
000001t:  Control change ::  Channel 5.  Controller 11.  Value: 100
000001t:  Control change ::  Channel 5.  Controller 11.  Value: 99
000002t:  Control change ::  Channel 5.  Controller 11.  Value: 98
000001t:  Control change ::  Channel 5.  Controller 11.  Value: 97
000002t:  Control change ::  Channel 5.  Controller 11.  Value: 96
000001t:  Control change ::  Channel 5.  Controller 11.  Value: 95
000003t:  Control change ::  Channel 5.  Controller 11.  Value: 94
000002t:  Control change ::  Channel 5.  Controller 11.  Value: 93
000004t:  Control change ::  Channel 5.  Controller 11.  Value: 92
000005t:  Control change ::  Channel 5.  Controller 11.  Value: 91
000009t:  Control change ::  Channel 5.  Controller 11.  Value: 90
000025t:  Pitch wheel change ::  Channel 5.   -8192
000002t:  Note on ::  Channel 5.  Note 70.  Velocity 0
000000t:  Note on ::  Channel 5.  Note 53.  Velocity 0
000000t:  Note on ::  Channel 5.  Note 58.  Velocity 0
000000t:  Note on ::  Channel 5.  Note 46.  Velocity 0
000000t:  Note on ::  Channel 5.  Note 65.  Velocity 0
000000t:  Note on ::  Channel 5.  Note 61.  Velocity 0
000000t:  Pitch wheel change ::  Channel 5.   -8192
000002t:  Note on ::  Channel 5.  Note 42.  Velocity 60
000001t:  Note on ::  Channel 5.  Note 42.  Velocity 0
000000t:  Pitch wheel change ::  Channel 5.   -8192
000000t:  Control change ::  Channel 5.  Controller 11.  Value: 120
000000t:  Note on ::  Channel 5.  Note 42.  Velocity 80
000001t:  Note on ::  Channel 5.  Note 49.  Velocity 83
000000t:  Control change ::  Channel 5.  Controller 11.  Value: 117
000001t:  Note on ::  Channel 5.  Note 54.  Velocity 87
000000t:  Control change ::  Channel 5.  Controller 11.  Value: 115
000001t:  Note on ::  Channel 5.  Note 58.  Velocity 92
000000t:  Control change ::  Channel 5.  Controller 11.  Value: 113
000001t:  Note on ::  Channel 5.  Note 61.  Velocity 98
000000t:  Note on ::  Channel 5.  Note 66.  Velocity 105
000000t:  Control change ::  Channel 5.  Controller 11.  Value: 111
000001t:  Control change ::  Channel 5.  Controller 11.  Value: 109
000001t:  Control change ::  Channel 5.  Controller 11.  Value: 108
000001t:  Control change ::  Channel 5.  Controller 11.  Value: 106
000001t:  Control change ::  Channel 5.  Controller 11.  Value: 105
000001t:  Control change ::  Channel 5.  Controller 11.  Value: 104
000001t:  Control change ::  Channel 5.  Controller 11.  Value: 103
000001t:  Control change ::  Channel 5.  Controller 11.  Value: 102
000001t:  Control change ::  Channel 5.  Controller 11.  Value: 101
000001t:  Control change ::  Channel 5.  Controller 11.  Value: 100
000001t:  Control change ::  Channel 5.  Controller 11.  Value: 99
000002t:  Control change ::  Channel 5.  Controller 11.  Value: 98
000001t:  Control change ::  Channel 5.  Controller 11.  Value: 97
000002t:  Control change ::  Channel 5.  Controller 11.  Value: 96
000001t:  Control change ::  Channel 5.  Controller 11.  Value: 95
000003t:  Control change ::  Channel 5.  Controller 11.  Value: 94
000002t:  Control change ::  Channel 5.  Controller 11.  Value: 93
000004t:  Control change ::  Channel 5.  Controller 11.  Value: 92
000005t:  Control change ::  Channel 5.  Controller 11.  Value: 91
000009t:  Control change ::  Channel 5.  Controller 11.  Value: 90
000024t:  Pitch wheel change ::  Channel 5.   -8192
000002t:  Note on ::  Channel 5.  Note 66.  Velocity 0
000000t:  Note on ::  Channel 5.  Note 49.  Velocity 0
000000t:  Note on ::  Channel 5.  Note 54.  Velocity 0
000000t:  Note on ::  Channel 5.  Note 42.  Velocity 0
000000t:  Note on ::  Channel 5.  Note 61.  Velocity 0
000000t:  Note on ::  Channel 5.  Note 58.  Velocity 0
000000t:  Pitch wheel change ::  Channel 5.   -8192
000002t:  Control change ::  Channel 5.  Controller 11.  Value: 120
000000t:  Note on ::  Channel 5.  Note 44.  Velocity 68
000001t:  Note on ::  Channel 5.  Note 44.  Velocity 0
000000t:  Pitch wheel change ::  Channel 5.   -8192
000000t:  Note on ::  Channel 5.  Note 44.  Velocity 80
000000t:  Control change ::  Channel 5.  Controller 11.  Value: 116
000001t:  Note on ::  Channel 5.  Note 51.  Velocity 83
000000t:  Control change ::  Channel 5.  Controller 11.  Value: 113
000001t:  Note on ::  Channel 5.  Note 56.  Velocity 87
000000t:  Control change ::  Channel 5.  Controller 11.  Value: 111
000001t:  Note on ::  Channel 5.  Note 60.  Velocity 92
000000t:  Control change ::  Channel 5.  Controller 11.  Value: 108
000001t:  Note on ::  Channel 5.  Note 63.  Velocity 98
000000t:  Note on ::  Channel 5.  Note 68.  Velocity 105
000000t:  Control change ::  Channel 5.  Controller 11.  Value: 106
000001t:  Control change ::  Channel 5.  Controller 11.  Value: 105
000001t:  Control change ::  Channel 5.  Controller 11.  Value: 103
000001t:  Control change ::  Channel 5.  Controller 11.  Value: 101
000001t:  Control change ::  Channel 5.  Controller 11.  Value: 100
000001t:  Control change ::  Channel 5.  Controller 11.  Value: 99
000001t:  Control change ::  Channel 5.  Controller 11.  Value: 98
000001t:  Control change ::  Channel 5.  Controller 11.  Value: 97
000001t:  Control change ::  Channel 5.  Controller 11.  Value: 96
000001t:  Control change ::  Channel 5.  Controller 11.  Value: 95
000002t:  Control change ::  Channel 5.  Controller 11.  Value: 94
000002t:  Control change ::  Channel 5.  Controller 11.  Value: 93
000002t:  Control change ::  Channel 5.  Controller 11.  Value: 92
000003t:  Control change ::  Channel 5.  Controller 11.  Value: 91
000006t:  Control change ::  Channel 5.  Controller 11.  Value: 90
000003t:  Note on ::  Channel 5.  Note 51.  Velocity 0
000000t:  Note on ::  Channel 5.  Note 44.  Velocity 0
000001t:  Note on ::  Channel 5.  Note 63.  Velocity 0
000000t:  Note on ::  Channel 5.  Note 60.  Velocity 0
000000t:  Note on ::  Channel 5.  Note 68.  Velocity 0
000000t:  Note on ::  Channel 5.  Note 56.  Velocity 0
000015t:  Control change ::  Channel 5.  Controller 11.  Value: 120
000000t:  Note on ::  Channel 5.  Note 49.  Velocity 90
000001t:  Note on ::  Channel 5.  Note 56.  Velocity 93
000000t:  Control change ::  Channel 5.  Controller 11.  Value: 113
000001t:  Note on ::  Channel 5.  Note 61.  Velocity 97
000000t:  Note on ::  Channel 5.  Note 65.  Velocity 104
000000t:  Control change ::  Channel 5.  Controller 11.  Value: 108
000001t:  Control change ::  Channel 5.  Controller 11.  Value: 105
000001t:  Control change ::  Channel 5.  Controller 11.  Value: 101
000001t:  Control change ::  Channel 5.  Controller 11.  Value: 99
000001t:  Control change ::  Channel 5.  Controller 11.  Value: 97
000001t:  Control change ::  Channel 5.  Controller 11.  Value: 95
000001t:  Control change ::  Channel 5.  Controller 11.  Value: 94
000001t:  Control change ::  Channel 5.  Controller 11.  Value: 93
000001t:  Control change ::  Channel 5.  Controller 11.  Value: 92
000002t:  Control change ::  Channel 5.  Controller 11.  Value: 91
000003t:  Control change ::  Channel 5.  Controller 11.  Value: 90
000007t:  Note on ::  Channel 5.  Note 65.  Velocity 0
000000t:  Note on ::  Channel 5.  Note 49.  Velocity 0
000000t:  Note on ::  Channel 5.  Note 56.  Velocity 0
000000t:  Note on ::  Channel 5.  Note 61.  Velocity 0
000002t:  Control change ::  Channel 5.  Controller 11.  Value: 120
000000t:  Note on ::  Channel 5.  Note 49.  Velocity 90
000001t:  Note on ::  Channel 5.  Note 56.  Velocity 93
000000t:  Control change ::  Channel 5.  Controller 11.  Value: 117
000001t:  Note on ::  Channel 5.  Note 61.  Velocity 97
000000t:  Note on ::  Channel 5.  Note 85.  Velocity 22
000000t:  Note on ::  Channel 5.  Note 65.  Velocity 104
000000t:  Control change ::  Channel 5.  Controller 11.  Value: 115
000001t:  Control change ::  Channel 5.  Controller 11.  Value: 113
000001t:  Control change ::  Channel 5.  Controller 11.  Value: 111
000001t:  Control change ::  Channel 5.  Controller 11.  Value: 109
000001t:  Control change ::  Channel 5.  Controller 11.  Value: 108
000001t:  Control change ::  Channel 5.  Controller 11.  Value: 106
000001t:  Control change ::  Channel 5.  Controller 11.  Value: 105
000001t:  Control change ::  Channel 5.  Controller 11.  Value: 104
000001t:  Control change ::  Channel 5.  Controller 11.  Value: 103
000001t:  Control change ::  Channel 5.  Controller 11.  Value: 102
000001t:  Control change ::  Channel 5.  Controller 11.  Value: 101
000001t:  Control change ::  Channel 5.  Controller 11.  Value: 100
000001t:  Control change ::  Channel 5.  Controller 11.  Value: 99
000002t:  Control change ::  Channel 5.  Controller 11.  Value: 98
000001t:  Control change ::  Channel 5.  Controller 11.  Value: 97
000002t:  Control change ::  Channel 5.  Controller 11.  Value: 96
000001t:  Control change ::  Channel 5.  Controller 11.  Value: 95
000003t:  Control change ::  Channel 5.  Controller 11.  Value: 94
000002t:  Control change ::  Channel 5.  Controller 11.  Value: 93
000004t:  Control change ::  Channel 5.  Controller 11.  Value: 92
000005t:  Control change ::  Channel 5.  Controller 11.  Value: 91
000009t:  Control change ::  Channel 5.  Controller 11.  Value: 90
000129t:  Note on ::  Channel 5.  Note 56.  Velocity 0
000007t:  Note on ::  Channel 5.  Note 65.  Velocity 0
000003t:  Note on ::  Channel 5.  Note 49.  Velocity 0
000006t:  Control change ::  Channel 5.  Controller 7.  Value: 76
000002t:  Control change ::  Channel 5.  Controller 11.  Value: 120
000002t:  Note on ::  Channel 5.  Note 61.  Velocity 0
000000t:  Note on ::  Channel 5.  Note 85.  Velocity 0
000000t:  Note on ::  Channel 5.  Note 44.  Velocity 80
000001t:  Note on ::  Channel 5.  Note 51.  Velocity 83
000000t:  Control change ::  Channel 5.  Controller 11.  Value: 117
000001t:  Note on ::  Channel 5.  Note 56.  Velocity 87
000000t:  Control change ::  Channel 5.  Controller 11.  Value: 115
000001t:  Note on ::  Channel 5.  Note 60.  Velocity 92
000000t:  Control change ::  Channel 5.  Controller 11.  Value: 113
000001t:  Note on ::  Channel 5.  Note 63.  Velocity 98
000000t:  Note on ::  Channel 5.  Note 68.  Velocity 105
000000t:  Control change ::  Channel 5.  Controller 11.  Value: 111
000001t:  Control change ::  Channel 5.  Controller 11.  Value: 109
000001t:  Control change ::  Channel 5.  Controller 11.  Value: 108
000001t:  Control change ::  Channel 5.  Controller 11.  Value: 106
000001t:  Control change ::  Channel 5.  Controller 11.  Value: 105
000001t:  Control change ::  Channel 5.  Controller 11.  Value: 104
000001t:  Control change ::  Channel 5.  Controller 11.  Value: 103
000001t:  Control change ::  Channel 5.  Controller 11.  Value: 102
000001t:  Control change ::  Channel 5.  Controller 11.  Value: 101
000001t:  Control change ::  Channel 5.  Controller 11.  Value: 100
000001t:  Control change ::  Channel 5.  Controller 11.  Value: 99
000002t:  Control change ::  Channel 5.  Controller 11.  Value: 98
000001t:  Control change ::  Channel 5.  Controller 11.  Value: 97
000002t:  Control change ::  Channel 5.  Controller 11.  Value: 96
000001t:  Control change ::  Channel 5.  Controller 11.  Value: 95
000003t:  Control change ::  Channel 5.  Controller 11.  Value: 94
000002t:  Control change ::  Channel 5.  Controller 11.  Value: 93
000004t:  Control change ::  Channel 5.  Controller 11.  Value: 92
000005t:  Control change ::  Channel 5.  Controller 11.  Value: 91
000009t:  Control change ::  Channel 5.  Controller 11.  Value: 90
000025t:  Pitch wheel change ::  Channel 5.   -8192
000001t:  Note on ::  Channel 5.  Note 68.  Velocity 0
000000t:  Note on ::  Channel 5.  Note 51.  Velocity 0
000000t:  Note on ::  Channel 5.  Note 56.  Velocity 0
000000t:  Note on ::  Channel 5.  Note 44.  Velocity 0
000000t:  Note on ::  Channel 5.  Note 63.  Velocity 0
000000t:  Note on ::  Channel 5.  Note 60.  Velocity 0
000001t:  Pitch wheel change ::  Channel 5.   -8192
000002t:  Control change ::  Channel 5.  Controller 11.  Value: 120
000000t:  Note on ::  Channel 5.  Note 46.  Velocity 60
000001t:  Note on ::  Channel 5.  Note 46.  Velocity 0
000000t:  Pitch wheel change ::  Channel 5.   -8192
000000t:  Note on ::  Channel 5.  Note 46.  Velocity 80
000000t:  Control change ::  Channel 5.  Controller 11.  Value: 117
000001t:  Note on ::  Channel 5.  Note 53.  Velocity 83
000000t:  Control change ::  Channel 5.  Controller 11.  Value: 115
000001t:  Note on ::  Channel 5.  Note 58.  Velocity 87
000000t:  Control change ::  Channel 5.  Controller 11.  Value: 113
000001t:  Note on ::  Channel 5.  Note 61.  Velocity 92
000000t:  Control change ::  Channel 5.  Controller 11.  Value: 111
000001t:  Note on ::  Channel 5.  Note 65.  Velocity 98
000000t:  Note on ::  Channel 5.  Note 70.  Velocity 105
000000t:  Control change ::  Channel 5.  Controller 11.  Value: 109
000001t:  Control change ::  Channel 5.  Controller 11.  Value: 108
000001t:  Control change ::  Channel 5.  Controller 11.  Value: 106
000001t:  Control change ::  Channel 5.  Controller 11.  Value: 105
000001t:  Control change ::  Channel 5.  Controller 11.  Value: 104
000001t:  Control change ::  Channel 5.  Controller 11.  Value: 103
000001t:  Control change ::  Channel 5.  Controller 11.  Value: 102
000001t:  Control change ::  Channel 5.  Controller 11.  Value: 101
000001t:  Control change ::  Channel 5.  Controller 11.  Value: 100
000001t:  Control change ::  Channel 5.  Controller 11.  Value: 99
000002t:  Control change ::  Channel 5.  Controller 11.  Value: 98
000001t:  Control change ::  Channel 5.  Controller 11.  Value: 97
000002t:  Control change ::  Channel 5.  Controller 11.  Value: 96
000001t:  Control change ::  Channel 5.  Controller 11.  Value: 95
000003t:  Control change ::  Channel 5.  Controller 11.  Value: 94
000002t:  Control change ::  Channel 5.  Controller 11.  Value: 93
000004t:  Control change ::  Channel 5.  Controller 11.  Value: 92
000005t:  Control change ::  Channel 5.  Controller 11.  Value: 91
000009t:  Control change ::  Channel 5.  Controller 11.  Value: 90
000025t:  Pitch wheel change ::  Channel 5.   -8192
000002t:  Pitch wheel change ::  Channel 5.   -8192
000001t:  Note on ::  Channel 5.  Note 70.  Velocity 0
000000t:  Note on ::  Channel 5.  Note 53.  Velocity 0
000000t:  Note on ::  Channel 5.  Note 58.  Velocity 0
000000t:  Note on ::  Channel 5.  Note 46.  Velocity 0
000000t:  Note on ::  Channel 5.  Note 65.  Velocity 0
000000t:  Note on ::  Channel 5.  Note 61.  Velocity 0
000002t:  Note on ::  Channel 5.  Note 42.  Velocity 68
000001t:  Note on ::  Channel 5.  Note 42.  Velocity 0
000000t:  Pitch wheel change ::  Channel 5.   -8192
000000t:  Control change ::  Channel 5.  Controller 11.  Value: 120
000000t:  Note on ::  Channel 5.  Note 42.  Velocity 80
000001t:  Note on ::  Channel 5.  Note 49.  Velocity 83
000000t:  Control change ::  Channel 5.  Controller 11.  Value: 117
000001t:  Note on ::  Channel 5.  Note 54.  Velocity 87
000000t:  Control change ::  Channel 5.  Controller 11.  Value: 115
000001t:  Note on ::  Channel 5.  Note 58.  Velocity 92
000000t:  Control change ::  Channel 5.  Controller 11.  Value: 113
000001t:  Note on ::  Channel 5.  Note 61.  Velocity 98
000000t:  Note on ::  Channel 5.  Note 66.  Velocity 105
000000t:  Control change ::  Channel 5.  Controller 11.  Value: 111
000001t:  Control change ::  Channel 5.  Controller 11.  Value: 109
000001t:  Control change ::  Channel 5.  Controller 11.  Value: 108
000001t:  Control change ::  Channel 5.  Controller 11.  Value: 106
000001t:  Control change ::  Channel 5.  Controller 11.  Value: 105
000001t:  Control change ::  Channel 5.  Controller 11.  Value: 104
000001t:  Control change ::  Channel 5.  Controller 11.  Value: 103
000001t:  Control change ::  Channel 5.  Controller 11.  Value: 102
000001t:  Control change ::  Channel 5.  Controller 11.  Value: 101
000001t:  Control change ::  Channel 5.  Controller 11.  Value: 100
000001t:  Control change ::  Channel 5.  Controller 11.  Value: 99
000002t:  Control change ::  Channel 5.  Controller 11.  Value: 98
000001t:  Control change ::  Channel 5.  Controller 11.  Value: 97
000002t:  Control change ::  Channel 5.  Controller 11.  Value: 96
000001t:  Control change ::  Channel 5.  Controller 11.  Value: 95
000003t:  Control change ::  Channel 5.  Controller 11.  Value: 94
000002t:  Control change ::  Channel 5.  Controller 11.  Value: 93
000004t:  Control change ::  Channel 5.  Controller 11.  Value: 92
000005t:  Control change ::  Channel 5.  Controller 11.  Value: 91
000009t:  Control change ::  Channel 5.  Controller 11.  Value: 90
000023t:  Pitch wheel change ::  Channel 5.   -8192
000002t:  Note on ::  Channel 5.  Note 66.  Velocity 0
000000t:  Note on ::  Channel 5.  Note 49.  Velocity 0
000000t:  Note on ::  Channel 5.  Note 54.  Velocity 0
000000t:  Note on ::  Channel 5.  Note 42.  Velocity 0
000000t:  Note on ::  Channel 5.  Note 61.  Velocity 0
000000t:  Note on ::  Channel 5.  Note 58.  Velocity 0
000000t:  Pitch wheel change ::  Channel 5.   -8192
000002t:  Control change ::  Channel 5.  Controller 11.  Value: 120
000000t:  Note on ::  Channel 5.  Note 44.  Velocity 72
000001t:  Note on ::  Channel 5.  Note 44.  Velocity 0
000000t:  Pitch wheel change ::  Channel 5.   -8192
000000t:  Note on ::  Channel 5.  Note 44.  Velocity 80
000000t:  Control change ::  Channel 5.  Controller 11.  Value: 116
000001t:  Note on ::  Channel 5.  Note 51.  Velocity 83
000000t:  Control change ::  Channel 5.  Controller 11.  Value: 113
000001t:  Note on ::  Channel 5.  Note 56.  Velocity 87
000000t:  Control change ::  Channel 5.  Controller 11.  Value: 111
000001t:  Note on ::  Channel 5.  Note 60.  Velocity 92
000000t:  Control change ::  Channel 5.  Controller 11.  Value: 108
000001t:  Note on ::  Channel 5.  Note 63.  Velocity 98
000000t:  Note on ::  Channel 5.  Note 68.  Velocity 105
000000t:  Control change ::  Channel 5.  Controller 11.  Value: 106
000001t:  Control change ::  Channel 5.  Controller 11.  Value: 105
000001t:  Control change ::  Channel 5.  Controller 11.  Value: 103
000001t:  Control change ::  Channel 5.  Controller 11.  Value: 101
000001t:  Control change ::  Channel 5.  Controller 11.  Value: 100
000001t:  Control change ::  Channel 5.  Controller 11.  Value: 99
000001t:  Control change ::  Channel 5.  Controller 11.  Value: 98
000001t:  Control change ::  Channel 5.  Controller 11.  Value: 97
000001t:  Control change ::  Channel 5.  Controller 11.  Value: 96
000001t:  Control change ::  Channel 5.  Controller 11.  Value: 95
000002t:  Control change ::  Channel 5.  Controller 11.  Value: 94
000002t:  Control change ::  Channel 5.  Controller 11.  Value: 93
000002t:  Control change ::  Channel 5.  Controller 11.  Value: 92
000003t:  Control change ::  Channel 5.  Controller 11.  Value: 91
000006t:  Control change ::  Channel 5.  Controller 11.  Value: 90
000003t:  Note on ::  Channel 5.  Note 51.  Velocity 0
000000t:  Note on ::  Channel 5.  Note 44.  Velocity 0
000001t:  Note on ::  Channel 5.  Note 63.  Velocity 0
000000t:  Note on ::  Channel 5.  Note 60.  Velocity 0
000000t:  Note on ::  Channel 5.  Note 68.  Velocity 0
000000t:  Note on ::  Channel 5.  Note 56.  Velocity 0
000015t:  Control change ::  Channel 5.  Controller 11.  Value: 120
000000t:  Note on ::  Channel 5.  Note 49.  Velocity 90
000001t:  Note on ::  Channel 5.  Note 56.  Velocity 94
000000t:  Control change ::  Channel 5.  Controller 11.  Value: 113
000001t:  Note on ::  Channel 5.  Note 61.  Velocity 99
000000t:  Note on ::  Channel 5.  Note 65.  Velocity 105
000000t:  Control change ::  Channel 5.  Controller 11.  Value: 108
000001t:  Control change ::  Channel 5.  Controller 11.  Value: 105
000001t:  Control change ::  Channel 5.  Controller 11.  Value: 101
000001t:  Control change ::  Channel 5.  Controller 11.  Value: 99
000001t:  Control change ::  Channel 5.  Controller 11.  Value: 97
000001t:  Control change ::  Channel 5.  Controller 11.  Value: 95
000001t:  Control change ::  Channel 5.  Controller 11.  Value: 94
000001t:  Control change ::  Channel 5.  Controller 11.  Value: 93
000001t:  Control change ::  Channel 5.  Controller 11.  Value: 92
000002t:  Control change ::  Channel 5.  Controller 11.  Value: 91
000003t:  Control change ::  Channel 5.  Controller 11.  Value: 90
000006t:  Note on ::  Channel 5.  Note 49.  Velocity 0
000001t:  Note on ::  Channel 5.  Note 56.  Velocity 0
000000t:  Note on ::  Channel 5.  Note 61.  Velocity 0
000000t:  Note on ::  Channel 5.  Note 65.  Velocity 0
000002t:  Control change ::  Channel 5.  Controller 11.  Value: 120
000000t:  Note on ::  Channel 5.  Note 49.  Velocity 90
000001t:  Note on ::  Channel 5.  Note 56.  Velocity 94
000000t:  Control change ::  Channel 5.  Controller 11.  Value: 117
000001t:  Note on ::  Channel 5.  Note 61.  Velocity 99
000000t:  Note on ::  Channel 5.  Note 85.  Velocity 21
000000t:  Note on ::  Channel 5.  Note 65.  Velocity 105
000000t:  Control change ::  Channel 5.  Controller 11.  Value: 115
000001t:  Control change ::  Channel 5.  Controller 11.  Value: 113
000001t:  Control change ::  Channel 5.  Controller 11.  Value: 111
000001t:  Control change ::  Channel 5.  Controller 11.  Value: 109
000001t:  Control change ::  Channel 5.  Controller 11.  Value: 108
000001t:  Control change ::  Channel 5.  Controller 11.  Value: 106
000001t:  Control change ::  Channel 5.  Controller 11.  Value: 105
000001t:  Control change ::  Channel 5.  Controller 11.  Value: 104
000001t:  Control change ::  Channel 5.  Controller 11.  Value: 103
000001t:  Control change ::  Channel 5.  Controller 11.  Value: 102
000001t:  Control change ::  Channel 5.  Controller 11.  Value: 101
000001t:  Control change ::  Channel 5.  Controller 11.  Value: 100
000001t:  Control change ::  Channel 5.  Controller 11.  Value: 99
000002t:  Control change ::  Channel 5.  Controller 11.  Value: 98
000001t:  Control change ::  Channel 5.  Controller 11.  Value: 97
000002t:  Control change ::  Channel 5.  Controller 11.  Value: 96
000001t:  Control change ::  Channel 5.  Controller 11.  Value: 95
000003t:  Control change ::  Channel 5.  Controller 11.  Value: 94
000002t:  Control change ::  Channel 5.  Controller 11.  Value: 93
000004t:  Control change ::  Channel 5.  Controller 11.  Value: 92
000005t:  Control change ::  Channel 5.  Controller 11.  Value: 91
000009t:  Control change ::  Channel 5.  Controller 11.  Value: 90
000130t:  Note on ::  Channel 5.  Note 56.  Velocity 0
000005t:  Note on ::  Channel 5.  Note 65.  Velocity 0
000003t:  Note on ::  Channel 5.  Note 49.  Velocity 0
000009t:  Note on ::  Channel 5.  Note 61.  Velocity 0
000002t:  Note on ::  Channel 5.  Note 85.  Velocity 0
000000t:  Control change ::  Channel 5.  Controller 11.  Value: 120
000000t:  Note on ::  Channel 5.  Note 44.  Velocity 80
000001t:  Note on ::  Channel 5.  Note 51.  Velocity 83
000000t:  Control change ::  Channel 5.  Controller 11.  Value: 117
000001t:  Note on ::  Channel 5.  Note 56.  Velocity 87
000000t:  Control change ::  Channel 5.  Controller 11.  Value: 115
000001t:  Note on ::  Channel 5.  Note 60.  Velocity 92
000000t:  Control change ::  Channel 5.  Controller 11.  Value: 113
000001t:  Note on ::  Channel 5.  Note 63.  Velocity 98
000000t:  Note on ::  Channel 5.  Note 68.  Velocity 105
000000t:  Control change ::  Channel 5.  Controller 11.  Value: 111
000001t:  Control change ::  Channel 5.  Controller 11.  Value: 109
000001t:  Control change ::  Channel 5.  Controller 11.  Value: 108
000001t:  Control change ::  Channel 5.  Controller 11.  Value: 106
000001t:  Control change ::  Channel 5.  Controller 11.  Value: 105
000001t:  Control change ::  Channel 5.  Controller 11.  Value: 104
000001t:  Control change ::  Channel 5.  Controller 11.  Value: 103
000001t:  Control change ::  Channel 5.  Controller 11.  Value: 102
000001t:  Control change ::  Channel 5.  Controller 11.  Value: 101
000001t:  Control change ::  Channel 5.  Controller 11.  Value: 100
000001t:  Control change ::  Channel 5.  Controller 11.  Value: 99
000002t:  Control change ::  Channel 5.  Controller 11.  Value: 98
000001t:  Control change ::  Channel 5.  Controller 11.  Value: 97
000002t:  Control change ::  Channel 5.  Controller 11.  Value: 96
000001t:  Control change ::  Channel 5.  Controller 11.  Value: 95
000003t:  Control change ::  Channel 5.  Controller 11.  Value: 94
000002t:  Control change ::  Channel 5.  Controller 11.  Value: 93
000004t:  Control change ::  Channel 5.  Controller 11.  Value: 92
000005t:  Control change ::  Channel 5.  Controller 11.  Value: 91
000009t:  Control change ::  Channel 5.  Controller 11.  Value: 90
000025t:  Pitch wheel change ::  Channel 5.   -8192
000003t:  Pitch wheel change ::  Channel 5.   -8192
000001t:  Note on ::  Channel 5.  Note 68.  Velocity 0
000000t:  Note on ::  Channel 5.  Note 51.  Velocity 0
000000t:  Note on ::  Channel 5.  Note 56.  Velocity 0
000000t:  Note on ::  Channel 5.  Note 44.  Velocity 0
000000t:  Note on ::  Channel 5.  Note 63.  Velocity 0
000000t:  Note on ::  Channel 5.  Note 60.  Velocity 0
000002t:  Control change ::  Channel 5.  Controller 11.  Value: 120
000000t:  Note on ::  Channel 5.  Note 46.  Velocity 80
000000t:  Pitch wheel change ::  Channel 5.   -8192
000001t:  Note on ::  Channel 5.  Note 53.  Velocity 83
000000t:  Control change ::  Channel 5.  Controller 11.  Value: 117
000001t:  Note on ::  Channel 5.  Note 58.  Velocity 87
000000t:  Control change ::  Channel 5.  Controller 11.  Value: 115
000001t:  Note on ::  Channel 5.  Note 61.  Velocity 92
000000t:  Control change ::  Channel 5.  Controller 11.  Value: 113
000001t:  Note on ::  Channel 5.  Note 65.  Velocity 98
000000t:  Note on ::  Channel 5.  Note 70.  Velocity 105
000000t:  Control change ::  Channel 5.  Controller 11.  Value: 111
000001t:  Control change ::  Channel 5.  Controller 11.  Value: 109
000001t:  Control change ::  Channel 5.  Controller 11.  Value: 108
000001t:  Control change ::  Channel 5.  Controller 11.  Value: 106
000001t:  Control change ::  Channel 5.  Controller 11.  Value: 105
000001t:  Control change ::  Channel 5.  Controller 11.  Value: 104
000001t:  Control change ::  Channel 5.  Controller 11.  Value: 103
000001t:  Control change ::  Channel 5.  Controller 11.  Value: 102
000001t:  Control change ::  Channel 5.  Controller 11.  Value: 101
000001t:  Control change ::  Channel 5.  Controller 11.  Value: 100
000001t:  Control change ::  Channel 5.  Controller 11.  Value: 99
000002t:  Control change ::  Channel 5.  Controller 11.  Value: 98
000001t:  Control change ::  Channel 5.  Controller 11.  Value: 97
000002t:  Control change ::  Channel 5.  Controller 11.  Value: 96
000001t:  Control change ::  Channel 5.  Controller 11.  Value: 95
000003t:  Control change ::  Channel 5.  Controller 11.  Value: 94
000002t:  Control change ::  Channel 5.  Controller 11.  Value: 93
000004t:  Control change ::  Channel 5.  Controller 11.  Value: 92
000005t:  Control change ::  Channel 5.  Controller 11.  Value: 91
000009t:  Control change ::  Channel 5.  Controller 11.  Value: 90
000024t:  Pitch wheel change ::  Channel 5.   -8192
000002t:  Note on ::  Channel 5.  Note 70.  Velocity 0
000000t:  Note on ::  Channel 5.  Note 53.  Velocity 0
000000t:  Note on ::  Channel 5.  Note 58.  Velocity 0
000000t:  Note on ::  Channel 5.  Note 46.  Velocity 0
000000t:  Note on ::  Channel 5.  Note 65.  Velocity 0
000000t:  Note on ::  Channel 5.  Note 61.  Velocity 0
000000t:  Pitch wheel change ::  Channel 5.   -8192
000002t:  Note on ::  Channel 5.  Note 42.  Velocity 80
000000t:  Pitch wheel change ::  Channel 5.   -8192
000000t:  Control change ::  Channel 5.  Controller 11.  Value: 120
000001t:  Note on ::  Channel 5.  Note 49.  Velocity 83
000000t:  Control change ::  Channel 5.  Controller 11.  Value: 117
000001t:  Note on ::  Channel 5.  Note 54.  Velocity 87
000000t:  Control change ::  Channel 5.  Controller 11.  Value: 115
000001t:  Note on ::  Channel 5.  Note 58.  Velocity 92
000000t:  Control change ::  Channel 5.  Controller 11.  Value: 113
000001t:  Note on ::  Channel 5.  Note 61.  Velocity 98
000000t:  Note on ::  Channel 5.  Note 66.  Velocity 105
000000t:  Control change ::  Channel 5.  Controller 11.  Value: 111
000001t:  Control change ::  Channel 5.  Controller 11.  Value: 109
000001t:  Control change ::  Channel 5.  Controller 11.  Value: 108
000001t:  Control change ::  Channel 5.  Controller 11.  Value: 106
000001t:  Control change ::  Channel 5.  Controller 11.  Value: 105
000001t:  Control change ::  Channel 5.  Controller 11.  Value: 104
000001t:  Control change ::  Channel 5.  Controller 11.  Value: 103
000001t:  Control change ::  Channel 5.  Controller 11.  Value: 102
000001t:  Control change ::  Channel 5.  Controller 11.  Value: 101
000001t:  Control change ::  Channel 5.  Controller 11.  Value: 100
000001t:  Control change ::  Channel 5.  Controller 11.  Value: 99
000002t:  Control change ::  Channel 5.  Controller 11.  Value: 98
000001t:  Control change ::  Channel 5.  Controller 11.  Value: 97
000002t:  Control change ::  Channel 5.  Controller 11.  Value: 96
000001t:  Control change ::  Channel 5.  Controller 11.  Value: 95
000003t:  Control change ::  Channel 5.  Controller 11.  Value: 94
000002t:  Control change ::  Channel 5.  Controller 11.  Value: 93
000004t:  Control change ::  Channel 5.  Controller 11.  Value: 92
000005t:  Control change ::  Channel 5.  Controller 11.  Value: 91
000009t:  Control change ::  Channel 5.  Controller 11.  Value: 90
000023t:  Pitch wheel change ::  Channel 5.   -8192
000002t:  Note on ::  Channel 5.  Note 66.  Velocity 0
000000t:  Note on ::  Channel 5.  Note 49.  Velocity 0
000000t:  Note on ::  Channel 5.  Note 54.  Velocity 0
000000t:  Note on ::  Channel 5.  Note 58.  Velocity 0
000000t:  Note on ::  Channel 5.  Note 61.  Velocity 0
000000t:  Pitch wheel change ::  Channel 5.   -8192
000001t:  Note on ::  Channel 5.  Note 42.  Velocity 0
000001t:  Control change ::  Channel 5.  Controller 11.  Value: 120
000000t:  Note on ::  Channel 5.  Note 44.  Velocity 80
000000t:  Pitch wheel change ::  Channel 5.   -8192
000001t:  Note on ::  Channel 5.  Note 51.  Velocity 83
000000t:  Control change ::  Channel 5.  Controller 11.  Value: 116
000001t:  Note on ::  Channel 5.  Note 56.  Velocity 87
000000t:  Control change ::  Channel 5.  Controller 11.  Value: 113
000001t:  Note on ::  Channel 5.  Note 60.  Velocity 92
000000t:  Control change ::  Channel 5.  Controller 11.  Value: 111
000001t:  Note on ::  Channel 5.  Note 63.  Velocity 98
000000t:  Note on ::  Channel 5.  Note 68.  Velocity 105
000000t:  Control change ::  Channel 5.  Controller 11.  Value: 108
000001t:  Control change ::  Channel 5.  Controller 11.  Value: 106
000001t:  Control change ::  Channel 5.  Controller 11.  Value: 105
000001t:  Control change ::  Channel 5.  Controller 11.  Value: 103
000001t:  Control change ::  Channel 5.  Controller 11.  Value: 101
000001t:  Control change ::  Channel 5.  Controller 11.  Value: 100
000001t:  Control change ::  Channel 5.  Controller 11.  Value: 99
000001t:  Control change ::  Channel 5.  Controller 11.  Value: 98
000001t:  Control change ::  Channel 5.  Controller 11.  Value: 97
000001t:  Control change ::  Channel 5.  Controller 11.  Value: 96
000001t:  Control change ::  Channel 5.  Controller 11.  Value: 95
000002t:  Control change ::  Channel 5.  Controller 11.  Value: 94
000002t:  Control change ::  Channel 5.  Controller 11.  Value: 93
000002t:  Control change ::  Channel 5.  Controller 11.  Value: 92
000003t:  Control change ::  Channel 5.  Controller 11.  Value: 91
000006t:  Control change ::  Channel 5.  Controller 11.  Value: 90
000003t:  Note on ::  Channel 5.  Note 44.  Velocity 0
000001t:  Note on ::  Channel 5.  Note 60.  Velocity 0
000000t:  Note on ::  Channel 5.  Note 51.  Velocity 0
000000t:  Note on ::  Channel 5.  Note 56.  Velocity 0
000001t:  Note on ::  Channel 5.  Note 68.  Velocity 0
000000t:  Note on ::  Channel 5.  Note 63.  Velocity 0
000012t:  Pitch wheel change ::  Channel 5.   -8192
000001t:  Pitch wheel change ::  Channel 5.   -8192
000001t:  Control change ::  Channel 5.  Controller 11.  Value: 120
000000t:  Note on ::  Channel 5.  Note 49.  Velocity 80
000001t:  Note on ::  Channel 5.  Note 49.  Velocity 0
000000t:  Pitch wheel change ::  Channel 5.   -8192
000000t:  Note on ::  Channel 5.  Note 49.  Velocity 90
000000t:  Control change ::  Channel 5.  Controller 11.  Value: 113
000001t:  Note on ::  Channel 5.  Note 56.  Velocity 94
000000t:  Control change ::  Channel 5.  Controller 11.  Value: 108
000001t:  Note on ::  Channel 5.  Note 61.  Velocity 98
000000t:  Note on ::  Channel 5.  Note 65.  Velocity 105
000000t:  Control change ::  Channel 5.  Controller 11.  Value: 105
000001t:  Control change ::  Channel 5.  Controller 11.  Value: 102
000001t:  Control change ::  Channel 5.  Controller 11.  Value: 99
000001t:  Control change ::  Channel 5.  Controller 11.  Value: 97
000001t:  Control change ::  Channel 5.  Controller 11.  Value: 96
000001t:  Control change ::  Channel 5.  Controller 11.  Value: 95
000001t:  Control change ::  Channel 5.  Controller 11.  Value: 93
000002t:  Control change ::  Channel 5.  Controller 11.  Value: 92
000001t:  Control change ::  Channel 5.  Controller 11.  Value: 91
000004t:  Control change ::  Channel 5.  Controller 11.  Value: 90
000006t:  Note on ::  Channel 5.  Note 49.  Velocity 0
000001t:  Note on ::  Channel 5.  Note 65.  Velocity 0
000000t:  Note on ::  Channel 5.  Note 61.  Velocity 0
000001t:  Note on ::  Channel 5.  Note 56.  Velocity 0
000001t:  Control change ::  Channel 5.  Controller 11.  Value: 120
000000t:  Note on ::  Channel 5.  Note 49.  Velocity 94
000001t:  Note on ::  Channel 5.  Note 56.  Velocity 97
000000t:  Control change ::  Channel 5.  Controller 11.  Value: 117
000001t:  Note on ::  Channel 5.  Note 61.  Velocity 101
000000t:  Note on ::  Channel 5.  Note 85.  Velocity 22
000000t:  Note on ::  Channel 5.  Note 65.  Velocity 106
000000t:  Control change ::  Channel 5.  Controller 11.  Value: 115
000001t:  Control change ::  Channel 5.  Controller 11.  Value: 113
000001t:  Control change ::  Channel 5.  Controller 11.  Value: 111
000001t:  Control change ::  Channel 5.  Controller 11.  Value: 109
000001t:  Control change ::  Channel 5.  Controller 11.  Value: 108
000001t:  Control change ::  Channel 5.  Controller 11.  Value: 106
000001t:  Control change ::  Channel 5.  Controller 11.  Value: 105
000001t:  Control change ::  Channel 5.  Controller 11.  Value: 104
000001t:  Control change ::  Channel 5.  Controller 11.  Value: 103
000001t:  Control change ::  Channel 5.  Controller 11.  Value: 102
000001t:  Control change ::  Channel 5.  Controller 11.  Value: 101
000001t:  Control change ::  Channel 5.  Controller 11.  Value: 100
000001t:  Control change ::  Channel 5.  Controller 11.  Value: 99
000002t:  Control change ::  Channel 5.  Controller 11.  Value: 98
000001t:  Control change ::  Channel 5.  Controller 11.  Value: 97
000002t:  Control change ::  Channel 5.  Controller 11.  Value: 96
000001t:  Control change ::  Channel 5.  Controller 11.  Value: 95
000003t:  Control change ::  Channel 5.  Controller 11.  Value: 94
000002t:  Control change ::  Channel 5.  Controller 11.  Value: 93
000004t:  Control change ::  Channel 5.  Controller 11.  Value: 92
000005t:  Control change ::  Channel 5.  Controller 11.  Value: 91
000009t:  Control change ::  Channel 5.  Controller 11.  Value: 90
000128t:  Note on ::  Channel 5.  Note 56.  Velocity 0
000011t:  Note on ::  Channel 5.  Note 49.  Velocity 0
000008t:  Note on ::  Channel 5.  Note 65.  Velocity 0
000002t:  Note on ::  Channel 5.  Note 61.  Velocity 0
000000t:  Control change ::  Channel 5.  Controller 11.  Value: 120
000000t:  Note on ::  Channel 5.  Note 44.  Velocity 80
000001t:  Note on ::  Channel 5.  Note 85.  Velocity 0
000000t:  Note on ::  Channel 5.  Note 51.  Velocity 83
000000t:  Control change ::  Channel 5.  Controller 11.  Value: 117
000001t:  Note on ::  Channel 5.  Note 56.  Velocity 87
000000t:  Control change ::  Channel 5.  Controller 11.  Value: 115
000001t:  Note on ::  Channel 5.  Note 60.  Velocity 92
000000t:  Control change ::  Channel 5.  Controller 11.  Value: 113
000001t:  Note on ::  Channel 5.  Note 63.  Velocity 98
000000t:  Note on ::  Channel 5.  Note 68.  Velocity 105
000000t:  Control change ::  Channel 5.  Controller 11.  Value: 111
000001t:  Control change ::  Channel 5.  Controller 11.  Value: 109
000001t:  Control change ::  Channel 5.  Controller 11.  Value: 108
000001t:  Control change ::  Channel 5.  Controller 11.  Value: 106
000001t:  Control change ::  Channel 5.  Controller 11.  Value: 105
000001t:  Control change ::  Channel 5.  Controller 11.  Value: 104
000001t:  Control change ::  Channel 5.  Controller 11.  Value: 103
000001t:  Control change ::  Channel 5.  Controller 11.  Value: 102
000001t:  Control change ::  Channel 5.  Controller 11.  Value: 101
000001t:  Control change ::  Channel 5.  Controller 11.  Value: 100
000001t:  Control change ::  Channel 5.  Controller 11.  Value: 99
000002t:  Control change ::  Channel 5.  Controller 11.  Value: 98
000001t:  Control change ::  Channel 5.  Controller 11.  Value: 97
000002t:  Control change ::  Channel 5.  Controller 11.  Value: 96
000001t:  Control change ::  Channel 5.  Controller 11.  Value: 95
000003t:  Control change ::  Channel 5.  Controller 11.  Value: 94
000002t:  Control change ::  Channel 5.  Controller 11.  Value: 93
000004t:  Control change ::  Channel 5.  Controller 11.  Value: 92
000005t:  Control change ::  Channel 5.  Controller 11.  Value: 91
000009t:  Control change ::  Channel 5.  Controller 11.  Value: 90
000025t:  Pitch wheel change ::  Channel 5.   -8192
000003t:  Note on ::  Channel 5.  Note 51.  Velocity 0
000000t:  Note on ::  Channel 5.  Note 44.  Velocity 0
000000t:  Pitch wheel change ::  Channel 5.   -8192
000001t:  Note on ::  Channel 5.  Note 63.  Velocity 0
000000t:  Note on ::  Channel 5.  Note 60.  Velocity 0
000000t:  Note on ::  Channel 5.  Note 68.  Velocity 0
000000t:  Note on ::  Channel 5.  Note 56.  Velocity 0
000002t:  Control change ::  Channel 5.  Controller 11.  Value: 120
000000t:  Note on ::  Channel 5.  Note 46.  Velocity 80
000000t:  Pitch wheel change ::  Channel 5.   -8192
000001t:  Note on ::  Channel 5.  Note 53.  Velocity 83
000000t:  Control change ::  Channel 5.  Controller 11.  Value: 117
000001t:  Note on ::  Channel 5.  Note 58.  Velocity 87
000000t:  Control change ::  Channel 5.  Controller 11.  Value: 115
000001t:  Note on ::  Channel 5.  Note 61.  Velocity 92
000000t:  Control change ::  Channel 5.  Controller 11.  Value: 113
000001t:  Note on ::  Channel 5.  Note 65.  Velocity 98
000000t:  Note on ::  Channel 5.  Note 70.  Velocity 105
000000t:  Control change ::  Channel 5.  Controller 11.  Value: 111
000001t:  Control change ::  Channel 5.  Controller 11.  Value: 109
000001t:  Control change ::  Channel 5.  Controller 11.  Value: 108
000001t:  Control change ::  Channel 5.  Controller 11.  Value: 106
000001t:  Control change ::  Channel 5.  Controller 11.  Value: 105
000001t:  Control change ::  Channel 5.  Controller 11.  Value: 104
000001t:  Control change ::  Channel 5.  Controller 11.  Value: 103
000001t:  Control change ::  Channel 5.  Controller 11.  Value: 102
000001t:  Control change ::  Channel 5.  Controller 11.  Value: 101
000001t:  Control change ::  Channel 5.  Controller 11.  Value: 100
000001t:  Control change ::  Channel 5.  Controller 11.  Value: 99
000002t:  Control change ::  Channel 5.  Controller 11.  Value: 98
000001t:  Control change ::  Channel 5.  Controller 11.  Value: 97
000002t:  Control change ::  Channel 5.  Controller 11.  Value: 96
000001t:  Control change ::  Channel 5.  Controller 11.  Value: 95
000003t:  Control change ::  Channel 5.  Controller 11.  Value: 94
000002t:  Control change ::  Channel 5.  Controller 11.  Value: 93
000004t:  Control change ::  Channel 5.  Controller 11.  Value: 92
000005t:  Control change ::  Channel 5.  Controller 11.  Value: 91
000009t:  Control change ::  Channel 5.  Controller 11.  Value: 90
000024t:  Pitch wheel change ::  Channel 5.   -8192
000001t:  Note on ::  Channel 5.  Note 70.  Velocity 0
000000t:  Note on ::  Channel 5.  Note 53.  Velocity 0
000000t:  Note on ::  Channel 5.  Note 58.  Velocity 0
000000t:  Note on ::  Channel 5.  Note 46.  Velocity 0
000000t:  Note on ::  Channel 5.  Note 61.  Velocity 0
000001t:  Note on ::  Channel 5.  Note 65.  Velocity 0
000000t:  Pitch wheel change ::  Channel 5.   -8192
000002t:  Note on ::  Channel 5.  Note 42.  Velocity 80
000000t:  Pitch wheel change ::  Channel 5.   -8192
000000t:  Control change ::  Channel 5.  Controller 11.  Value: 120
000001t:  Note on ::  Channel 5.  Note 49.  Velocity 83
000000t:  Control change ::  Channel 5.  Controller 11.  Value: 117
000001t:  Note on ::  Channel 5.  Note 54.  Velocity 87
000000t:  Control change ::  Channel 5.  Controller 11.  Value: 115
000001t:  Note on ::  Channel 5.  Note 58.  Velocity 92
000000t:  Control change ::  Channel 5.  Controller 11.  Value: 113
000001t:  Note on ::  Channel 5.  Note 61.  Velocity 98
000000t:  Note on ::  Channel 5.  Note 66.  Velocity 105
000000t:  Control change ::  Channel 5.  Controller 11.  Value: 111
000001t:  Control change ::  Channel 5.  Controller 11.  Value: 109
000001t:  Control change ::  Channel 5.  Controller 11.  Value: 108
000001t:  Control change ::  Channel 5.  Controller 11.  Value: 106
000001t:  Control change ::  Channel 5.  Controller 11.  Value: 105
000001t:  Control change ::  Channel 5.  Controller 11.  Value: 104
000001t:  Control change ::  Channel 5.  Controller 11.  Value: 103
000001t:  Control change ::  Channel 5.  Controller 11.  Value: 102
000001t:  Control change ::  Channel 5.  Controller 11.  Value: 101
000001t:  Control change ::  Channel 5.  Controller 11.  Value: 100
000001t:  Control change ::  Channel 5.  Controller 11.  Value: 99
000002t:  Control change ::  Channel 5.  Controller 11.  Value: 98
000001t:  Control change ::  Channel 5.  Controller 11.  Value: 97
000002t:  Control change ::  Channel 5.  Controller 11.  Value: 96
000001t:  Control change ::  Channel 5.  Controller 11.  Value: 95
000003t:  Control change ::  Channel 5.  Controller 11.  Value: 94
000002t:  Control change ::  Channel 5.  Controller 11.  Value: 93
000004t:  Control change ::  Channel 5.  Controller 11.  Value: 92
000005t:  Control change ::  Channel 5.  Controller 11.  Value: 91
000009t:  Control change ::  Channel 5.  Controller 11.  Value: 90
000023t:  Pitch wheel change ::  Channel 5.   -8192
000002t:  Note on ::  Channel 5.  Note 66.  Velocity 0
000000t:  Note on ::  Channel 5.  Note 49.  Velocity 0
000000t:  Note on ::  Channel 5.  Note 54.  Velocity 0
000000t:  Note on ::  Channel 5.  Note 42.  Velocity 0
000000t:  Note on ::  Channel 5.  Note 61.  Velocity 0
000000t:  Note on ::  Channel 5.  Note 58.  Velocity 0
000000t:  Pitch wheel change ::  Channel 5.   -8192
000002t:  Note on ::  Channel 5.  Note 44.  Velocity 80
000000t:  Pitch wheel change ::  Channel 5.   -8192
000000t:  Control change ::  Channel 5.  Controller 11.  Value: 120
000001t:  Note on ::  Channel 5.  Note 51.  Velocity 83
000000t:  Control change ::  Channel 5.  Controller 11.  Value: 116
000001t:  Note on ::  Channel 5.  Note 56.  Velocity 87
000000t:  Control change ::  Channel 5.  Controller 11.  Value: 113
000001t:  Note on ::  Channel 5.  Note 60.  Velocity 92
000000t:  Control change ::  Channel 5.  Controller 11.  Value: 111
000001t:  Note on ::  Channel 5.  Note 63.  Velocity 98
000000t:  Note on ::  Channel 5.  Note 68.  Velocity 105
000000t:  Control change ::  Channel 5.  Controller 11.  Value: 108
000001t:  Control change ::  Channel 5.  Controller 11.  Value: 106
000001t:  Control change ::  Channel 5.  Controller 11.  Value: 105
000001t:  Control change ::  Channel 5.  Controller 11.  Value: 103
000001t:  Control change ::  Channel 5.  Controller 11.  Value: 101
000001t:  Control change ::  Channel 5.  Controller 11.  Value: 100
000001t:  Control change ::  Channel 5.  Controller 11.  Value: 99
000001t:  Control change ::  Channel 5.  Controller 11.  Value: 98
000001t:  Control change ::  Channel 5.  Controller 11.  Value: 97
000001t:  Control change ::  Channel 5.  Controller 11.  Value: 96
000001t:  Control change ::  Channel 5.  Controller 11.  Value: 95
000002t:  Control change ::  Channel 5.  Controller 11.  Value: 94
000002t:  Control change ::  Channel 5.  Controller 11.  Value: 93
000002t:  Control change ::  Channel 5.  Controller 11.  Value: 92
000003t:  Control change ::  Channel 5.  Controller 11.  Value: 91
000006t:  Control change ::  Channel 5.  Controller 11.  Value: 90
000002t:  Note on ::  Channel 5.  Note 51.  Velocity 0
000001t:  Note on ::  Channel 5.  Note 63.  Velocity 0
000000t:  Note on ::  Channel 5.  Note 60.  Velocity 0
000000t:  Note on ::  Channel 5.  Note 44.  Velocity 0
000001t:  Note on ::  Channel 5.  Note 56.  Velocity 0
000001t:  Note on ::  Channel 5.  Note 68.  Velocity 0
000012t:  Pitch wheel change ::  Channel 5.   -8192
000001t:  Pitch wheel change ::  Channel 5.   -8192
000001t:  Note on ::  Channel 5.  Note 49.  Velocity 80
000001t:  Note on ::  Channel 5.  Note 49.  Velocity 0
000000t:  Pitch wheel change ::  Channel 5.   -8192
000000t:  Control change ::  Channel 5.  Controller 11.  Value: 120
000000t:  Note on ::  Channel 5.  Note 49.  Velocity 90
000001t:  Note on ::  Channel 5.  Note 56.  Velocity 94
000000t:  Control change ::  Channel 5.  Controller 11.  Value: 113
000001t:  Note on ::  Channel 5.  Note 61.  Velocity 98
000000t:  Note on ::  Channel 5.  Note 65.  Velocity 105
000000t:  Control change ::  Channel 5.  Controller 11.  Value: 108
000001t:  Control change ::  Channel 5.  Controller 11.  Value: 105
000001t:  Control change ::  Channel 5.  Controller 11.  Value: 101
000001t:  Control change ::  Channel 5.  Controller 11.  Value: 99
000001t:  Control change ::  Channel 5.  Controller 11.  Value: 97
000001t:  Control change ::  Channel 5.  Controller 11.  Value: 95
000001t:  Control change ::  Channel 5.  Controller 11.  Value: 94
000001t:  Control change ::  Channel 5.  Controller 11.  Value: 93
000001t:  Control change ::  Channel 5.  Controller 11.  Value: 92
000002t:  Control change ::  Channel 5.  Controller 11.  Value: 91
000003t:  Control change ::  Channel 5.  Controller 11.  Value: 90
000006t:  Note on ::  Channel 5.  Note 65.  Velocity 0
000001t:  Note on ::  Channel 5.  Note 49.  Velocity 0
000000t:  Note on ::  Channel 5.  Note 56.  Velocity 0
000000t:  Note on ::  Channel 5.  Note 61.  Velocity 0
000002t:  Control change ::  Channel 5.  Controller 11.  Value: 120
000000t:  Note on ::  Channel 5.  Note 49.  Velocity 94
000001t:  Note on ::  Channel 5.  Note 56.  Velocity 97
000000t:  Control change ::  Channel 5.  Controller 11.  Value: 117
000001t:  Note on ::  Channel 5.  Note 61.  Velocity 101
000000t:  Note on ::  Channel 5.  Note 85.  Velocity 23
000000t:  Note on ::  Channel 5.  Note 65.  Velocity 106
000000t:  Control change ::  Channel 5.  Controller 11.  Value: 115
000001t:  Control change ::  Channel 5.  Controller 11.  Value: 113
000001t:  Control change ::  Channel 5.  Controller 11.  Value: 111
000001t:  Control change ::  Channel 5.  Controller 11.  Value: 109
000001t:  Control change ::  Channel 5.  Controller 11.  Value: 108
000001t:  Control change ::  Channel 5.  Controller 11.  Value: 106
000001t:  Control change ::  Channel 5.  Controller 11.  Value: 105
000001t:  Control change ::  Channel 5.  Controller 11.  Value: 104
000001t:  Control change ::  Channel 5.  Controller 11.  Value: 103
000001t:  Control change ::  Channel 5.  Controller 11.  Value: 102
000001t:  Control change ::  Channel 5.  Controller 11.  Value: 101
000001t:  Control change ::  Channel 5.  Controller 11.  Value: 100
000001t:  Control change ::  Channel 5.  Controller 11.  Value: 99
000002t:  Control change ::  Channel 5.  Controller 11.  Value: 98
000001t:  Control change ::  Channel 5.  Controller 11.  Value: 97
000002t:  Control change ::  Channel 5.  Controller 11.  Value: 96
000001t:  Control change ::  Channel 5.  Controller 11.  Value: 95
000003t:  Control change ::  Channel 5.  Controller 11.  Value: 94
000002t:  Control change ::  Channel 5.  Controller 11.  Value: 93
000004t:  Control change ::  Channel 5.  Controller 11.  Value: 92
000005t:  Control change ::  Channel 5.  Controller 11.  Value: 91
000009t:  Control change ::  Channel 5.  Controller 11.  Value: 90
000130t:  Note on ::  Channel 5.  Note 56.  Velocity 0
000007t:  Note on ::  Channel 5.  Note 65.  Velocity 0
000002t:  Note on ::  Channel 5.  Note 49.  Velocity 0
000010t:  Note on ::  Channel 5.  Note 61.  Velocity 0
000000t:  Note on ::  Channel 5.  Note 85.  Velocity 0
000000t:  Control change ::  Channel 5.  Controller 11.  Value: 120
000000t:  Note on ::  Channel 5.  Note 44.  Velocity 80
000001t:  Note on ::  Channel 5.  Note 51.  Velocity 83
000000t:  Control change ::  Channel 5.  Controller 11.  Value: 117
000001t:  Note on ::  Channel 5.  Note 56.  Velocity 87
000000t:  Control change ::  Channel 5.  Controller 11.  Value: 115
000001t:  Note on ::  Channel 5.  Note 60.  Velocity 92
000000t:  Control change ::  Channel 5.  Controller 11.  Value: 113
000001t:  Note on ::  Channel 5.  Note 63.  Velocity 98
000000t:  Note on ::  Channel 5.  Note 68.  Velocity 105
000000t:  Control change ::  Channel 5.  Controller 11.  Value: 111
000001t:  Control change ::  Channel 5.  Controller 11.  Value: 109
000001t:  Control change ::  Channel 5.  Controller 11.  Value: 108
000001t:  Control change ::  Channel 5.  Controller 11.  Value: 106
000001t:  Control change ::  Channel 5.  Controller 11.  Value: 105
000001t:  Control change ::  Channel 5.  Controller 11.  Value: 104
000001t:  Control change ::  Channel 5.  Controller 11.  Value: 103
000001t:  Control change ::  Channel 5.  Controller 11.  Value: 102
000001t:  Control change ::  Channel 5.  Controller 11.  Value: 101
000001t:  Control change ::  Channel 5.  Controller 11.  Value: 100
000001t:  Control change ::  Channel 5.  Controller 11.  Value: 99
000002t:  Control change ::  Channel 5.  Controller 11.  Value: 98
000001t:  Control change ::  Channel 5.  Controller 11.  Value: 97
000002t:  Control change ::  Channel 5.  Controller 11.  Value: 96
000001t:  Control change ::  Channel 5.  Controller 11.  Value: 95
000003t:  Control change ::  Channel 5.  Controller 11.  Value: 94
000002t:  Control change ::  Channel 5.  Controller 11.  Value: 93
000004t:  Control change ::  Channel 5.  Controller 11.  Value: 92
000005t:  Control change ::  Channel 5.  Controller 11.  Value: 91
000009t:  Control change ::  Channel 5.  Controller 11.  Value: 90
000025t:  Pitch wheel change ::  Channel 5.   -8192
000001t:  Note on ::  Channel 5.  Note 51.  Velocity 0
000000t:  Note on ::  Channel 5.  Note 44.  Velocity 0
000001t:  Note on ::  Channel 5.  Note 63.  Velocity 0
000000t:  Note on ::  Channel 5.  Note 60.  Velocity 0
000000t:  Note on ::  Channel 5.  Note 68.  Velocity 0
000000t:  Note on ::  Channel 5.  Note 56.  Velocity 0
000000t:  Pitch wheel change ::  Channel 5.   -8192
000002t:  Control change ::  Channel 5.  Controller 11.  Value: 120
000000t:  Note on ::  Channel 5.  Note 46.  Velocity 70
000001t:  Note on ::  Channel 5.  Note 46.  Velocity 0
000000t:  Pitch wheel change ::  Channel 5.   -8192
000000t:  Note on ::  Channel 5.  Note 46.  Velocity 80
000000t:  Control change ::  Channel 5.  Controller 11.  Value: 117
000001t:  Note on ::  Channel 5.  Note 53.  Velocity 83
000000t:  Control change ::  Channel 5.  Controller 11.  Value: 115
000001t:  Note on ::  Channel 5.  Note 58.  Velocity 87
000000t:  Control change ::  Channel 5.  Controller 11.  Value: 113
000001t:  Note on ::  Channel 5.  Note 61.  Velocity 92
000000t:  Control change ::  Channel 5.  Controller 11.  Value: 111
000001t:  Note on ::  Channel 5.  Note 65.  Velocity 98
000000t:  Note on ::  Channel 5.  Note 70.  Velocity 105
000000t:  Control change ::  Channel 5.  Controller 11.  Value: 109
000001t:  Control change ::  Channel 5.  Controller 11.  Value: 108
000001t:  Control change ::  Channel 5.  Controller 11.  Value: 106
000001t:  Control change ::  Channel 5.  Controller 11.  Value: 105
000001t:  Control change ::  Channel 5.  Controller 11.  Value: 104
000001t:  Control change ::  Channel 5.  Controller 11.  Value: 103
000001t:  Control change ::  Channel 5.  Controller 11.  Value: 102
000001t:  Control change ::  Channel 5.  Controller 11.  Value: 101
000001t:  Control change ::  Channel 5.  Controller 11.  Value: 100
000001t:  Control change ::  Channel 5.  Controller 11.  Value: 99
000002t:  Control change ::  Channel 5.  Controller 11.  Value: 98
000001t:  Control change ::  Channel 5.  Controller 11.  Value: 97
000002t:  Control change ::  Channel 5.  Controller 11.  Value: 96
000001t:  Control change ::  Channel 5.  Controller 11.  Value: 95
000003t:  Control change ::  Channel 5.  Controller 11.  Value: 94
000002t:  Control change ::  Channel 5.  Controller 11.  Value: 93
000004t:  Control change ::  Channel 5.  Controller 11.  Value: 92
000005t:  Control change ::  Channel 5.  Controller 11.  Value: 91
000009t:  Control change ::  Channel 5.  Controller 11.  Value: 90
000025t:  Pitch wheel change ::  Channel 5.   -8192
000002t:  Note on ::  Channel 5.  Note 70.  Velocity 0
000000t:  Note on ::  Channel 5.  Note 53.  Velocity 0
000000t:  Note on ::  Channel 5.  Note 58.  Velocity 0
000000t:  Note on ::  Channel 5.  Note 46.  Velocity 0
000000t:  Note on ::  Channel 5.  Note 65.  Velocity 0
000000t:  Note on ::  Channel 5.  Note 61.  Velocity 0
000000t:  Pitch wheel change ::  Channel 5.   -8192
000002t:  Note on ::  Channel 5.  Note 42.  Velocity 70
000001t:  Note on ::  Channel 5.  Note 42.  Velocity 0
000000t:  Pitch wheel change ::  Channel 5.   -8192
000000t:  Control change ::  Channel 5.  Controller 11.  Value: 120
000000t:  Note on ::  Channel 5.  Note 42.  Velocity 80
000001t:  Note on ::  Channel 5.  Note 49.  Velocity 83
000000t:  Control change ::  Channel 5.  Controller 11.  Value: 117
000001t:  Note on ::  Channel 5.  Note 54.  Velocity 87
000000t:  Control change ::  Channel 5.  Controller 11.  Value: 115
000001t:  Note on ::  Channel 5.  Note 58.  Velocity 92
000000t:  Control change ::  Channel 5.  Controller 11.  Value: 113
000001t:  Note on ::  Channel 5.  Note 61.  Velocity 98
000000t:  Note on ::  Channel 5.  Note 66.  Velocity 105
000000t:  Control change ::  Channel 5.  Controller 11.  Value: 111
000001t:  Control change ::  Channel 5.  Controller 11.  Value: 109
000001t:  Control change ::  Channel 5.  Controller 11.  Value: 108
000001t:  Control change ::  Channel 5.  Controller 11.  Value: 106
000001t:  Control change ::  Channel 5.  Controller 11.  Value: 105
000001t:  Control change ::  Channel 5.  Controller 11.  Value: 104
000001t:  Control change ::  Channel 5.  Controller 11.  Value: 103
000001t:  Control change ::  Channel 5.  Controller 11.  Value: 102
000001t:  Control change ::  Channel 5.  Controller 11.  Value: 101
000001t:  Control change ::  Channel 5.  Controller 11.  Value: 100
000001t:  Control change ::  Channel 5.  Controller 11.  Value: 99
000002t:  Control change ::  Channel 5.  Controller 11.  Value: 98
000001t:  Control change ::  Channel 5.  Controller 11.  Value: 97
000002t:  Control change ::  Channel 5.  Controller 11.  Value: 96
000001t:  Control change ::  Channel 5.  Controller 11.  Value: 95
000003t:  Control change ::  Channel 5.  Controller 11.  Value: 94
000002t:  Control change ::  Channel 5.  Controller 11.  Value: 93
000004t:  Control change ::  Channel 5.  Controller 11.  Value: 92
000005t:  Control change ::  Channel 5.  Controller 11.  Value: 91
000009t:  Control change ::  Channel 5.  Controller 11.  Value: 90
000024t:  Note on ::  Channel 5.  Note 49.  Velocity 0
000000t:  Pitch wheel change ::  Channel 5.   -8192
000001t:  Note on ::  Channel 5.  Note 58.  Velocity 0
000000t:  Note on ::  Channel 5.  Note 42.  Velocity 0
000000t:  Note on ::  Channel 5.  Note 66.  Velocity 0
000001t:  Note on ::  Channel 5.  Note 54.  Velocity 0
000000t:  Note on ::  Channel 5.  Note 61.  Velocity 0
000000t:  Pitch wheel change ::  Channel 5.   -8192
000002t:  Note on ::  Channel 5.  Note 41.  Velocity 72
000001t:  Note on ::  Channel 5.  Note 41.  Velocity 0
000000t:  Pitch wheel change ::  Channel 5.   -8192
000000t:  Control change ::  Channel 5.  Controller 11.  Value: 121
000000t:  Note on ::  Channel 5.  Note 41.  Velocity 82
000001t:  Note on ::  Channel 5.  Note 49.  Velocity 86
000000t:  Control change ::  Channel 5.  Controller 11.  Value: 117
000001t:  Note on ::  Channel 5.  Note 56.  Velocity 91
000000t:  Control change ::  Channel 5.  Controller 11.  Value: 114
000001t:  Note on ::  Channel 5.  Note 61.  Velocity 98
000000t:  Note on ::  Channel 5.  Note 65.  Velocity 105
000000t:  Control change ::  Channel 5.  Controller 11.  Value: 111
000001t:  Control change ::  Channel 5.  Controller 11.  Value: 109
000001t:  Control change ::  Channel 5.  Controller 11.  Value: 106
000001t:  Control change ::  Channel 5.  Controller 11.  Value: 105
000001t:  Control change ::  Channel 5.  Controller 11.  Value: 103
000001t:  Control change ::  Channel 5.  Controller 11.  Value: 101
000001t:  Control change ::  Channel 5.  Controller 11.  Value: 100
000001t:  Control change ::  Channel 5.  Controller 11.  Value: 99
000001t:  Control change ::  Channel 5.  Controller 11.  Value: 98
000001t:  Control change ::  Channel 5.  Controller 11.  Value: 97
000001t:  Control change ::  Channel 5.  Controller 11.  Value: 96
000001t:  Control change ::  Channel 5.  Controller 11.  Value: 95
000002t:  Control change ::  Channel 5.  Controller 11.  Value: 94
000002t:  Control change ::  Channel 5.  Controller 11.  Value: 93
000002t:  Control change ::  Channel 5.  Controller 11.  Value: 92
000003t:  Control change ::  Channel 5.  Controller 11.  Value: 91
000006t:  Note on ::  Channel 5.  Note 49.  Velocity 0
000000t:  Control change ::  Channel 5.  Controller 11.  Value: 90
000001t:  Note on ::  Channel 5.  Note 41.  Velocity 0
000000t:  Note on ::  Channel 5.  Note 56.  Velocity 0
000001t:  Note on ::  Channel 5.  Note 61.  Velocity 0
000000t:  Note on ::  Channel 5.  Note 65.  Velocity 0
000016t:  Control change ::  Channel 5.  Controller 11.  Value: 120
000000t:  Note on ::  Channel 5.  Note 42.  Velocity 80
000001t:  Note on ::  Channel 5.  Note 49.  Velocity 83
000000t:  Control change ::  Channel 5.  Controller 11.  Value: 113
000001t:  Note on ::  Channel 5.  Note 54.  Velocity 87
000000t:  Control change ::  Channel 5.  Controller 11.  Value: 108
000001t:  Note on ::  Channel 5.  Note 58.  Velocity 92
000000t:  Control change ::  Channel 5.  Controller 11.  Value: 105
000001t:  Note on ::  Channel 5.  Note 61.  Velocity 98
000000t:  Note on ::  Channel 5.  Note 66.  Velocity 105
000000t:  Control change ::  Channel 5.  Controller 11.  Value: 101
000001t:  Control change ::  Channel 5.  Controller 11.  Value: 99
000001t:  Control change ::  Channel 5.  Controller 11.  Value: 97
000001t:  Control change ::  Channel 5.  Controller 11.  Value: 95
000001t:  Control change ::  Channel 5.  Controller 11.  Value: 94
000001t:  Control change ::  Channel 5.  Controller 11.  Value: 93
000001t:  Control change ::  Channel 5.  Controller 11.  Value: 92
000002t:  Control change ::  Channel 5.  Controller 11.  Value: 91
000003t:  Control change ::  Channel 5.  Controller 11.  Value: 90
000006t:  Note on ::  Channel 5.  Note 49.  Velocity 0
000001t:  Note on ::  Channel 5.  Note 54.  Velocity 0
000000t:  Note on ::  Channel 5.  Note 42.  Velocity 0
000000t:  Note on ::  Channel 5.  Note 66.  Velocity 0
000001t:  Note on ::  Channel 5.  Note 61.  Velocity 0
000001t:  Note on ::  Channel 5.  Note 58.  Velocity 0
000000t:  Control change ::  Channel 5.  Controller 11.  Value: 120
000000t:  Note on ::  Channel 5.  Note 42.  Velocity 80
000001t:  Note on ::  Channel 5.  Note 49.  Velocity 83
000000t:  Control change ::  Channel 5.  Controller 11.  Value: 117
000001t:  Note on ::  Channel 5.  Note 54.  Velocity 87
000000t:  Control change ::  Channel 5.  Controller 11.  Value: 115
000001t:  Note on ::  Channel 5.  Note 58.  Velocity 92
000000t:  Control change ::  Channel 5.  Controller 11.  Value: 114
000001t:  Note on ::  Channel 5.  Note 61.  Velocity 98
000000t:  Note on ::  Channel 5.  Note 66.  Velocity 105
000000t:  Control change ::  Channel 5.  Controller 11.  Value: 112
000001t:  Control change ::  Channel 5.  Controller 11.  Value: 111
000001t:  Control change ::  Channel 5.  Controller 11.  Value: 109
000001t:  Control change ::  Channel 5.  Controller 11.  Value: 108
000001t:  Control change ::  Channel 5.  Controller 11.  Value: 106
000001t:  Control change ::  Channel 5.  Controller 11.  Value: 105
000002t:  Control change ::  Channel 5.  Controller 11.  Value: 103
000001t:  Control change ::  Channel 5.  Controller 11.  Value: 102
000002t:  Control change ::  Channel 5.  Controller 11.  Value: 101
000001t:  Control change ::  Channel 5.  Controller 11.  Value: 100
000001t:  Control change ::  Channel 5.  Controller 11.  Value: 99
000002t:  Control change ::  Channel 5.  Controller 11.  Value: 98
000001t:  Control change ::  Channel 5.  Controller 11.  Value: 97
000002t:  Control change ::  Channel 5.  Controller 11.  Value: 96
000002t:  Control change ::  Channel 5.  Controller 11.  Value: 95
000003t:  Control change ::  Channel 5.  Controller 11.  Value: 94
000003t:  Control change ::  Channel 5.  Controller 11.  Value: 93
000004t:  Control change ::  Channel 5.  Controller 11.  Value: 92
000006t:  Control change ::  Channel 5.  Controller 11.  Value: 91
000010t:  Control change ::  Channel 5.  Controller 11.  Value: 90
000333t:  Note on ::  Channel 5.  Note 42.  Velocity 0
000001t:  Note on ::  Channel 5.  Note 49.  Velocity 0
000001t:  Note on ::  Channel 5.  Note 54.  Velocity 0
000000t:  Control change ::  Channel 5.  Controller 11.  Value: 120
000000t:  Note on ::  Channel 5.  Note 44.  Velocity 80
000001t:  Note on ::  Channel 5.  Note 58.  Velocity 0
000000t:  Note on ::  Channel 5.  Note 51.  Velocity 83
000000t:  Control change ::  Channel 5.  Controller 11.  Value: 117
000001t:  Note on ::  Channel 5.  Note 66.  Velocity 0
000000t:  Note on ::  Channel 5.  Note 61.  Velocity 0
000000t:  Note on ::  Channel 5.  Note 56.  Velocity 87
000000t:  Control change ::  Channel 5.  Controller 11.  Value: 115
000001t:  Note on ::  Channel 5.  Note 60.  Velocity 92
000000t:  Control change ::  Channel 5.  Controller 11.  Value: 113
000001t:  Note on ::  Channel 5.  Note 63.  Velocity 98
000000t:  Note on ::  Channel 5.  Note 68.  Velocity 105
000000t:  Control change ::  Channel 5.  Controller 11.  Value: 111
000001t:  Control change ::  Channel 5.  Controller 11.  Value: 109
000001t:  Control change ::  Channel 5.  Controller 11.  Value: 108
000001t:  Control change ::  Channel 5.  Controller 11.  Value: 106
000001t:  Control change ::  Channel 5.  Controller 11.  Value: 105
000001t:  Control change ::  Channel 5.  Controller 11.  Value: 104
000001t:  Control change ::  Channel 5.  Controller 11.  Value: 103
000001t:  Control change ::  Channel 5.  Controller 11.  Value: 102
000001t:  Control change ::  Channel 5.  Controller 11.  Value: 101
000001t:  Control change ::  Channel 5.  Controller 11.  Value: 100
000001t:  Control change ::  Channel 5.  Controller 11.  Value: 99
000002t:  Control change ::  Channel 5.  Controller 11.  Value: 98
000001t:  Control change ::  Channel 5.  Controller 11.  Value: 97
000002t:  Control change ::  Channel 5.  Controller 11.  Value: 96
000001t:  Control change ::  Channel 5.  Controller 11.  Value: 95
000003t:  Control change ::  Channel 5.  Controller 11.  Value: 94
000002t:  Control change ::  Channel 5.  Controller 11.  Value: 93
000004t:  Control change ::  Channel 5.  Controller 11.  Value: 92
000005t:  Control change ::  Channel 5.  Controller 11.  Value: 91
000009t:  Control change ::  Channel 5.  Controller 11.  Value: 90
000025t:  Pitch wheel change ::  Channel 5.   -8192
000001t:  Note on ::  Channel 5.  Note 51.  Velocity 0
000001t:  Note on ::  Channel 5.  Note 56.  Velocity 0
000000t:  Note on ::  Channel 5.  Note 60.  Velocity 0
000000t:  Note on ::  Channel 5.  Note 63.  Velocity 0
000000t:  Note on ::  Channel 5.  Note 68.  Velocity 0
000001t:  Note on ::  Channel 5.  Note 44.  Velocity 0
000000t:  Pitch wheel change ::  Channel 5.   -8192
000003t:  Control change ::  Channel 5.  Controller 11.  Value: 120
000000t:  Note on ::  Channel 5.  Note 46.  Velocity 80
000000t:  Pitch wheel change ::  Channel 5.   -8192
000001t:  Note on ::  Channel 5.  Note 53.  Velocity 83
000000t:  Control change ::  Channel 5.  Controller 11.  Value: 117
000001t:  Note on ::  Channel 5.  Note 58.  Velocity 87
000000t:  Control change ::  Channel 5.  Controller 11.  Value: 115
000001t:  Note on ::  Channel 5.  Note 61.  Velocity 92
000000t:  Control change ::  Channel 5.  Controller 11.  Value: 113
000001t:  Note on ::  Channel 5.  Note 65.  Velocity 98
000000t:  Note on ::  Channel 5.  Note 70.  Velocity 105
000000t:  Control change ::  Channel 5.  Controller 11.  Value: 111
000001t:  Control change ::  Channel 5.  Controller 11.  Value: 109
000001t:  Control change ::  Channel 5.  Controller 11.  Value: 108
000001t:  Control change ::  Channel 5.  Controller 11.  Value: 106
000001t:  Control change ::  Channel 5.  Controller 11.  Value: 105
000001t:  Control change ::  Channel 5.  Controller 11.  Value: 104
000001t:  Control change ::  Channel 5.  Controller 11.  Value: 103
000001t:  Control change ::  Channel 5.  Controller 11.  Value: 102
000001t:  Control change ::  Channel 5.  Controller 11.  Value: 101
000001t:  Control change ::  Channel 5.  Controller 11.  Value: 100
000001t:  Control change ::  Channel 5.  Controller 11.  Value: 99
000002t:  Control change ::  Channel 5.  Controller 11.  Value: 98
000001t:  Control change ::  Channel 5.  Controller 11.  Value: 97
000002t:  Control change ::  Channel 5.  Controller 11.  Value: 96
000001t:  Control change ::  Channel 5.  Controller 11.  Value: 95
000003t:  Control change ::  Channel 5.  Controller 11.  Value: 94
000002t:  Control change ::  Channel 5.  Controller 11.  Value: 93
000004t:  Control change ::  Channel 5.  Controller 11.  Value: 92
000005t:  Control change ::  Channel 5.  Controller 11.  Value: 91
000009t:  Control change ::  Channel 5.  Controller 11.  Value: 90
000024t:  Pitch wheel change ::  Channel 5.   -8192
000001t:  Note on ::  Channel 5.  Note 70.  Velocity 0
000000t:  Note on ::  Channel 5.  Note 61.  Velocity 0
000001t:  Note on ::  Channel 5.  Note 58.  Velocity 0
000000t:  Note on ::  Channel 5.  Note 46.  Velocity 0
000000t:  Note on ::  Channel 5.  Note 53.  Velocity 0
000000t:  Note on ::  Channel 5.  Note 65.  Velocity 0
000000t:  Pitch wheel change ::  Channel 5.   -8192
000002t:  Note on ::  Channel 5.  Note 42.  Velocity 80
000000t:  Pitch wheel change ::  Channel 5.   -8192
000000t:  Control change ::  Channel 5.  Controller 11.  Value: 120
000001t:  Note on ::  Channel 5.  Note 49.  Velocity 83
000000t:  Control change ::  Channel 5.  Controller 11.  Value: 117
000001t:  Note on ::  Channel 5.  Note 54.  Velocity 87
000000t:  Control change ::  Channel 5.  Controller 11.  Value: 115
000001t:  Note on ::  Channel 5.  Note 58.  Velocity 92
000000t:  Control change ::  Channel 5.  Controller 11.  Value: 113
000001t:  Note on ::  Channel 5.  Note 61.  Velocity 98
000000t:  Note on ::  Channel 5.  Note 66.  Velocity 105
000000t:  Control change ::  Channel 5.  Controller 11.  Value: 111
000001t:  Control change ::  Channel 5.  Controller 11.  Value: 109
000001t:  Control change ::  Channel 5.  Controller 11.  Value: 108
000001t:  Control change ::  Channel 5.  Controller 11.  Value: 106
000001t:  Control change ::  Channel 5.  Controller 11.  Value: 105
000001t:  Control change ::  Channel 5.  Controller 11.  Value: 104
000001t:  Control change ::  Channel 5.  Controller 11.  Value: 103
000001t:  Control change ::  Channel 5.  Controller 11.  Value: 102
000001t:  Control change ::  Channel 5.  Controller 11.  Value: 101
000001t:  Control change ::  Channel 5.  Controller 11.  Value: 100
000001t:  Control change ::  Channel 5.  Controller 11.  Value: 99
000002t:  Control change ::  Channel 5.  Controller 11.  Value: 98
000001t:  Control change ::  Channel 5.  Controller 11.  Value: 97
000002t:  Control change ::  Channel 5.  Controller 11.  Value: 96
000001t:  Control change ::  Channel 5.  Controller 11.  Value: 95
000003t:  Control change ::  Channel 5.  Controller 11.  Value: 94
000002t:  Control change ::  Channel 5.  Controller 11.  Value: 93
000004t:  Control change ::  Channel 5.  Controller 11.  Value: 92
000005t:  Control change ::  Channel 5.  Controller 11.  Value: 91
000009t:  Control change ::  Channel 5.  Controller 11.  Value: 90
000023t:  Pitch wheel change ::  Channel 5.   -8192
000001t:  Note on ::  Channel 5.  Note 66.  Velocity 0
000000t:  Note on ::  Channel 5.  Note 42.  Velocity 0
000000t:  Note on ::  Channel 5.  Note 58.  Velocity 0
000001t:  Note on ::  Channel 5.  Note 49.  Velocity 0
000000t:  Note on ::  Channel 5.  Note 61.  Velocity 0
000000t:  Note on ::  Channel 5.  Note 54.  Velocity 0
000000t:  Pitch wheel change ::  Channel 5.   -8192
000002t:  Control change ::  Channel 5.  Controller 11.  Value: 120
000000t:  Note on ::  Channel 5.  Note 44.  Velocity 80
000000t:  Pitch wheel change ::  Channel 5.   -8192
000001t:  Note on ::  Channel 5.  Note 51.  Velocity 83
000000t:  Control change ::  Channel 5.  Controller 11.  Value: 116
000001t:  Note on ::  Channel 5.  Note 56.  Velocity 87
000000t:  Control change ::  Channel 5.  Controller 11.  Value: 113
000001t:  Note on ::  Channel 5.  Note 60.  Velocity 92
000000t:  Control change ::  Channel 5.  Controller 11.  Value: 111
000001t:  Note on ::  Channel 5.  Note 63.  Velocity 98
000000t:  Note on ::  Channel 5.  Note 68.  Velocity 105
000000t:  Control change ::  Channel 5.  Controller 11.  Value: 108
000001t:  Control change ::  Channel 5.  Controller 11.  Value: 106
000001t:  Control change ::  Channel 5.  Controller 11.  Value: 105
000001t:  Control change ::  Channel 5.  Controller 11.  Value: 103
000001t:  Control change ::  Channel 5.  Controller 11.  Value: 101
000001t:  Control change ::  Channel 5.  Controller 11.  Value: 100
000001t:  Control change ::  Channel 5.  Controller 11.  Value: 99
000001t:  Control change ::  Channel 5.  Controller 11.  Value: 98
000001t:  Control change ::  Channel 5.  Controller 11.  Value: 97
000001t:  Control change ::  Channel 5.  Controller 11.  Value: 96
000001t:  Control change ::  Channel 5.  Controller 11.  Value: 95
000002t:  Control change ::  Channel 5.  Controller 11.  Value: 94
000002t:  Control change ::  Channel 5.  Controller 11.  Value: 93
000002t:  Control change ::  Channel 5.  Controller 11.  Value: 92
000003t:  Control change ::  Channel 5.  Controller 11.  Value: 91
000006t:  Control change ::  Channel 5.  Controller 11.  Value: 90
000003t:  Note on ::  Channel 5.  Note 63.  Velocity 0
000000t:  Note on ::  Channel 5.  Note 56.  Velocity 0
000000t:  Note on ::  Channel 5.  Note 44.  Velocity 0
000000t:  Note on ::  Channel 5.  Note 51.  Velocity 0
000001t:  Note on ::  Channel 5.  Note 60.  Velocity 0
000001t:  Note on ::  Channel 5.  Note 68.  Velocity 0
000012t:  Pitch wheel change ::  Channel 5.   -8192
000001t:  Pitch wheel change ::  Channel 5.   -8192
000001t:  Control change ::  Channel 5.  Controller 11.  Value: 120
000000t:  Note on ::  Channel 5.  Note 49.  Velocity 80
000001t:  Note on ::  Channel 5.  Note 49.  Velocity 0
000000t:  Pitch wheel change ::  Channel 5.   -8192
000000t:  Note on ::  Channel 5.  Note 49.  Velocity 90
000000t:  Control change ::  Channel 5.  Controller 11.  Value: 113
000001t:  Note on ::  Channel 5.  Note 56.  Velocity 94
000000t:  Control change ::  Channel 5.  Controller 11.  Value: 108
000001t:  Note on ::  Channel 5.  Note 61.  Velocity 98
000000t:  Note on ::  Channel 5.  Note 65.  Velocity 105
000000t:  Control change ::  Channel 5.  Controller 11.  Value: 105
000001t:  Control change ::  Channel 5.  Controller 11.  Value: 102
000001t:  Control change ::  Channel 5.  Controller 11.  Value: 99
000001t:  Control change ::  Channel 5.  Controller 11.  Value: 97
000001t:  Control change ::  Channel 5.  Controller 11.  Value: 96
000001t:  Control change ::  Channel 5.  Controller 11.  Value: 95
000001t:  Control change ::  Channel 5.  Controller 11.  Value: 93
000002t:  Control change ::  Channel 5.  Controller 11.  Value: 92
000001t:  Control change ::  Channel 5.  Controller 11.  Value: 91
000004t:  Control change ::  Channel 5.  Controller 11.  Value: 90
000005t:  Note on ::  Channel 5.  Note 56.  Velocity 0
000000t:  Note on ::  Channel 5.  Note 49.  Velocity 0
000002t:  Note on ::  Channel 5.  Note 61.  Velocity 0
000000t:  Note on ::  Channel 5.  Note 65.  Velocity 0
000002t:  Control change ::  Channel 5.  Controller 11.  Value: 120
000000t:  Note on ::  Channel 5.  Note 49.  Velocity 94
000001t:  Note on ::  Channel 5.  Note 56.  Velocity 97
000000t:  Control change ::  Channel 5.  Controller 11.  Value: 117
000001t:  Note on ::  Channel 5.  Note 61.  Velocity 101
000000t:  Note on ::  Channel 5.  Note 85.  Velocity 20
000000t:  Note on ::  Channel 5.  Note 65.  Velocity 106
000000t:  Control change ::  Channel 5.  Controller 11.  Value: 115
000001t:  Control change ::  Channel 5.  Controller 11.  Value: 114
000001t:  Control change ::  Channel 5.  Controller 11.  Value: 112
000001t:  Control change ::  Channel 5.  Controller 11.  Value: 111
000001t:  Control change ::  Channel 5.  Controller 11.  Value: 109
000001t:  Control change ::  Channel 5.  Controller 11.  Value: 108
000001t:  Control change ::  Channel 5.  Controller 11.  Value: 106
000001t:  Control change ::  Channel 5.  Controller 11.  Value: 105
000002t:  Control change ::  Channel 5.  Controller 11.  Value: 103
000001t:  Control change ::  Channel 5.  Controller 11.  Value: 102
000002t:  Control change ::  Channel 5.  Controller 11.  Value: 101
000001t:  Control change ::  Channel 5.  Controller 11.  Value: 100
000001t:  Control change ::  Channel 5.  Controller 11.  Value: 99
000002t:  Control change ::  Channel 5.  Controller 11.  Value: 98
000001t:  Control change ::  Channel 5.  Controller 11.  Value: 97
000002t:  Control change ::  Channel 5.  Controller 11.  Value: 96
000002t:  Control change ::  Channel 5.  Controller 11.  Value: 95
000003t:  Control change ::  Channel 5.  Controller 11.  Value: 94
000003t:  Control change ::  Channel 5.  Controller 11.  Value: 93
000004t:  Control change ::  Channel 5.  Controller 11.  Value: 92
000006t:  Control change ::  Channel 5.  Controller 11.  Value: 91
000010t:  Control change ::  Channel 5.  Controller 11.  Value: 90
000123t:  Note on ::  Channel 5.  Note 56.  Velocity 0
000007t:  Note on ::  Channel 5.  Note 65.  Velocity 0
000003t:  Note on ::  Channel 5.  Note 49.  Velocity 0
000010t:  Note on ::  Channel 5.  Note 61.  Velocity 0
000000t:  Note on ::  Channel 5.  Note 85.  Velocity 0
000000t:  Control change ::  Channel 5.  Controller 11.  Value: 120
000000t:  Note on ::  Channel 5.  Note 44.  Velocity 80
000001t:  Note on ::  Channel 5.  Note 51.  Velocity 83
000000t:  Control change ::  Channel 5.  Controller 11.  Value: 117
000001t:  Note on ::  Channel 5.  Note 56.  Velocity 87
000000t:  Control change ::  Channel 5.  Controller 11.  Value: 115
000001t:  Note on ::  Channel 5.  Note 60.  Velocity 92
000000t:  Control change ::  Channel 5.  Controller 11.  Value: 113
000001t:  Note on ::  Channel 5.  Note 63.  Velocity 98
000000t:  Note on ::  Channel 5.  Note 68.  Velocity 105
000000t:  Control change ::  Channel 5.  Controller 11.  Value: 111
000001t:  Control change ::  Channel 5.  Controller 11.  Value: 109
000001t:  Control change ::  Channel 5.  Controller 11.  Value: 108
000001t:  Control change ::  Channel 5.  Controller 11.  Value: 106
000001t:  Control change ::  Channel 5.  Controller 11.  Value: 105
000001t:  Control change ::  Channel 5.  Controller 11.  Value: 104
000001t:  Control change ::  Channel 5.  Controller 11.  Value: 103
000001t:  Control change ::  Channel 5.  Controller 11.  Value: 102
000001t:  Control change ::  Channel 5.  Controller 11.  Value: 101
000001t:  Control change ::  Channel 5.  Controller 11.  Value: 100
000001t:  Control change ::  Channel 5.  Controller 11.  Value: 99
000002t:  Control change ::  Channel 5.  Controller 11.  Value: 98
000001t:  Control change ::  Channel 5.  Controller 11.  Value: 97
000002t:  Control change ::  Channel 5.  Controller 11.  Value: 96
000001t:  Control change ::  Channel 5.  Controller 11.  Value: 95
000003t:  Control change ::  Channel 5.  Controller 11.  Value: 94
000002t:  Control change ::  Channel 5.  Controller 11.  Value: 93
000004t:  Control change ::  Channel 5.  Controller 11.  Value: 92
000005t:  Control change ::  Channel 5.  Controller 11.  Value: 91
000009t:  Control change ::  Channel 5.  Controller 11.  Value: 90
000025t:  Note on ::  Channel 5.  Note 60.  Velocity 0
000000t:  Note on ::  Channel 5.  Note 44.  Velocity 0
000000t:  Pitch wheel change ::  Channel 5.   -8192
000001t:  Note on ::  Channel 5.  Note 63.  Velocity 0
000000t:  Note on ::  Channel 5.  Note 51.  Velocity 0
000000t:  Note on ::  Channel 5.  Note 68.  Velocity 0
000000t:  Note on ::  Channel 5.  Note 56.  Velocity 0
000001t:  Pitch wheel change ::  Channel 5.   -8192
000002t:  Control change ::  Channel 5.  Controller 11.  Value: 120
000000t:  Note on ::  Channel 5.  Note 46.  Velocity 70
000001t:  Note on ::  Channel 5.  Note 46.  Velocity 0
000000t:  Pitch wheel change ::  Channel 5.   -8192
000000t:  Note on ::  Channel 5.  Note 46.  Velocity 80
000000t:  Control change ::  Channel 5.  Controller 11.  Value: 117
000001t:  Note on ::  Channel 5.  Note 53.  Velocity 83
000000t:  Control change ::  Channel 5.  Controller 11.  Value: 115
000001t:  Note on ::  Channel 5.  Note 58.  Velocity 87
000000t:  Control change ::  Channel 5.  Controller 11.  Value: 113
000001t:  Note on ::  Channel 5.  Note 61.  Velocity 92
000000t:  Control change ::  Channel 5.  Controller 11.  Value: 111
000001t:  Note on ::  Channel 5.  Note 65.  Velocity 98
000000t:  Note on ::  Channel 5.  Note 70.  Velocity 104
000000t:  Control change ::  Channel 5.  Controller 11.  Value: 109
000001t:  Control change ::  Channel 5.  Controller 11.  Value: 108
000001t:  Control change ::  Channel 5.  Controller 11.  Value: 106
000001t:  Control change ::  Channel 5.  Controller 11.  Value: 105
000001t:  Control change ::  Channel 5.  Controller 11.  Value: 104
000001t:  Control change ::  Channel 5.  Controller 11.  Value: 103
000001t:  Control change ::  Channel 5.  Controller 11.  Value: 102
000001t:  Control change ::  Channel 5.  Controller 11.  Value: 101
000001t:  Control change ::  Channel 5.  Controller 11.  Value: 100
000001t:  Control change ::  Channel 5.  Controller 11.  Value: 99
000002t:  Control change ::  Channel 5.  Controller 11.  Value: 98
000001t:  Control change ::  Channel 5.  Controller 11.  Value: 97
000002t:  Control change ::  Channel 5.  Controller 11.  Value: 96
000001t:  Control change ::  Channel 5.  Controller 11.  Value: 95
000003t:  Control change ::  Channel 5.  Controller 11.  Value: 94
000002t:  Control change ::  Channel 5.  Controller 11.  Value: 93
000004t:  Control change ::  Channel 5.  Controller 11.  Value: 92
000005t:  Control change ::  Channel 5.  Controller 11.  Value: 91
000009t:  Control change ::  Channel 5.  Controller 11.  Value: 90
000025t:  Note on ::  Channel 5.  Note 58.  Velocity 0
000000t:  Pitch wheel change ::  Channel 5.   -8192
000001t:  Note on ::  Channel 5.  Note 46.  Velocity 0
000000t:  Note on ::  Channel 5.  Note 61.  Velocity 0
000000t:  Note on ::  Channel 5.  Note 65.  Velocity 0
000000t:  Note on ::  Channel 5.  Note 70.  Velocity 0
000001t:  Note on ::  Channel 5.  Note 53.  Velocity 0
000000t:  Pitch wheel change ::  Channel 5.   -8192
000002t:  Control change ::  Channel 5.  Controller 11.  Value: 120
000000t:  Note on ::  Channel 5.  Note 42.  Velocity 60
000001t:  Note on ::  Channel 5.  Note 42.  Velocity 0
000000t:  Pitch wheel change ::  Channel 5.   -8192
000000t:  Note on ::  Channel 5.  Note 42.  Velocity 80
000000t:  Control change ::  Channel 5.  Controller 11.  Value: 117
000001t:  Note on ::  Channel 5.  Note 49.  Velocity 83
000000t:  Control change ::  Channel 5.  Controller 11.  Value: 115
000001t:  Note on ::  Channel 5.  Note 54.  Velocity 87
000000t:  Control change ::  Channel 5.  Controller 11.  Value: 113
000001t:  Note on ::  Channel 5.  Note 58.  Velocity 92
000000t:  Control change ::  Channel 5.  Controller 11.  Value: 111
000001t:  Note on ::  Channel 5.  Note 61.  Velocity 98
000000t:  Note on ::  Channel 5.  Note 66.  Velocity 105
000000t:  Control change ::  Channel 5.  Controller 11.  Value: 109
000001t:  Control change ::  Channel 5.  Controller 11.  Value: 108
000001t:  Control change ::  Channel 5.  Controller 11.  Value: 106
000001t:  Control change ::  Channel 5.  Controller 11.  Value: 105
000001t:  Control change ::  Channel 5.  Controller 11.  Value: 104
000001t:  Control change ::  Channel 5.  Controller 11.  Value: 103
000001t:  Control change ::  Channel 5.  Controller 11.  Value: 102
000001t:  Control change ::  Channel 5.  Controller 11.  Value: 101
000001t:  Control change ::  Channel 5.  Controller 11.  Value: 100
000001t:  Control change ::  Channel 5.  Controller 11.  Value: 99
000002t:  Control change ::  Channel 5.  Controller 11.  Value: 98
000001t:  Control change ::  Channel 5.  Controller 11.  Value: 97
000002t:  Control change ::  Channel 5.  Controller 11.  Value: 96
000001t:  Control change ::  Channel 5.  Controller 11.  Value: 95
000003t:  Control change ::  Channel 5.  Controller 11.  Value: 94
000002t:  Control change ::  Channel 5.  Controller 11.  Value: 93
000004t:  Control change ::  Channel 5.  Controller 11.  Value: 92
000005t:  Control change ::  Channel 5.  Controller 11.  Value: 91
000009t:  Control change ::  Channel 5.  Controller 11.  Value: 90
000025t:  Note on ::  Channel 5.  Note 54.  Velocity 0
000000t:  Pitch wheel change ::  Channel 5.   -8192
000001t:  Note on ::  Channel 5.  Note 49.  Velocity 0
000000t:  Note on ::  Channel 5.  Note 58.  Velocity 0
000000t:  Note on ::  Channel 5.  Note 42.  Velocity 0
000000t:  Note on ::  Channel 5.  Note 66.  Velocity 0
000000t:  Note on ::  Channel 5.  Note 61.  Velocity 0
000001t:  Pitch wheel change ::  Channel 5.   -8192
000002t:  Control change ::  Channel 5.  Controller 11.  Value: 120
000000t:  Note on ::  Channel 5.  Note 44.  Velocity 68
000001t:  Note on ::  Channel 5.  Note 44.  Velocity 0
000000t:  Pitch wheel change ::  Channel 5.   -8192
000000t:  Note on ::  Channel 5.  Note 44.  Velocity 80
000000t:  Control change ::  Channel 5.  Controller 11.  Value: 116
000001t:  Note on ::  Channel 5.  Note 51.  Velocity 83
000000t:  Control change ::  Channel 5.  Controller 11.  Value: 113
000001t:  Note on ::  Channel 5.  Note 56.  Velocity 87
000000t:  Control change ::  Channel 5.  Controller 11.  Value: 111
000001t:  Note on ::  Channel 5.  Note 60.  Velocity 92
000000t:  Control change ::  Channel 5.  Controller 11.  Value: 108
000001t:  Note on ::  Channel 5.  Note 63.  Velocity 98
000000t:  Note on ::  Channel 5.  Note 68.  Velocity 105
000000t:  Control change ::  Channel 5.  Controller 11.  Value: 106
000001t:  Control change ::  Channel 5.  Controller 11.  Value: 105
000001t:  Control change ::  Channel 5.  Controller 11.  Value: 103
000001t:  Control change ::  Channel 5.  Controller 11.  Value: 101
000001t:  Control change ::  Channel 5.  Controller 11.  Value: 100
000001t:  Control change ::  Channel 5.  Controller 11.  Value: 99
000001t:  Control change ::  Channel 5.  Controller 11.  Value: 98
000001t:  Control change ::  Channel 5.  Controller 11.  Value: 97
000001t:  Control change ::  Channel 5.  Controller 11.  Value: 96
000001t:  Control change ::  Channel 5.  Controller 11.  Value: 95
000002t:  Control change ::  Channel 5.  Controller 11.  Value: 94
000002t:  Control change ::  Channel 5.  Controller 11.  Value: 93
000002t:  Control change ::  Channel 5.  Controller 11.  Value: 92
000003t:  Control change ::  Channel 5.  Controller 11.  Value: 91
000006t:  Control change ::  Channel 5.  Controller 11.  Value: 90
000003t:  Note on ::  Channel 5.  Note 51.  Velocity 0
000000t:  Note on ::  Channel 5.  Note 44.  Velocity 0
000001t:  Note on ::  Channel 5.  Note 63.  Velocity 0
000000t:  Note on ::  Channel 5.  Note 56.  Velocity 0
000000t:  Note on ::  Channel 5.  Note 68.  Velocity 0
000001t:  Note on ::  Channel 5.  Note 60.  Velocity 0
000014t:  Control change ::  Channel 5.  Controller 11.  Value: 120
000000t:  Note on ::  Channel 5.  Note 49.  Velocity 90
000001t:  Note on ::  Channel 5.  Note 56.  Velocity 93
000000t:  Control change ::  Channel 5.  Controller 11.  Value: 113
000001t:  Note on ::  Channel 5.  Note 61.  Velocity 97
000000t:  Note on ::  Channel 5.  Note 65.  Velocity 104
000000t:  Control change ::  Channel 5.  Controller 11.  Value: 108
000001t:  Control change ::  Channel 5.  Controller 11.  Value: 105
000001t:  Control change ::  Channel 5.  Controller 11.  Value: 101
000001t:  Control change ::  Channel 5.  Controller 11.  Value: 99
000001t:  Control change ::  Channel 5.  Controller 11.  Value: 97
000001t:  Control change ::  Channel 5.  Controller 11.  Value: 95
000001t:  Control change ::  Channel 5.  Controller 11.  Value: 94
000001t:  Control change ::  Channel 5.  Controller 11.  Value: 93
000001t:  Control change ::  Channel 5.  Controller 11.  Value: 92
000002t:  Control change ::  Channel 5.  Controller 11.  Value: 91
000003t:  Control change ::  Channel 5.  Controller 11.  Value: 90
000005t:  Note on ::  Channel 5.  Note 49.  Velocity 0
000002t:  Note on ::  Channel 5.  Note 56.  Velocity 0
000000t:  Note on ::  Channel 5.  Note 61.  Velocity 0
000001t:  Note on ::  Channel 5.  Note 65.  Velocity 0
000001t:  Control change ::  Channel 5.  Controller 11.  Value: 120
000000t:  Note on ::  Channel 5.  Note 49.  Velocity 90
000001t:  Note on ::  Channel 5.  Note 56.  Velocity 93
000000t:  Control change ::  Channel 5.  Controller 11.  Value: 117
000001t:  Note on ::  Channel 5.  Note 61.  Velocity 97
000000t:  Note on ::  Channel 5.  Note 85.  Velocity 21
000000t:  Note on ::  Channel 5.  Note 65.  Velocity 104
000000t:  Control change ::  Channel 5.  Controller 11.  Value: 115
000001t:  Control change ::  Channel 5.  Controller 11.  Value: 114
000001t:  Control change ::  Channel 5.  Controller 11.  Value: 112
000001t:  Control change ::  Channel 5.  Controller 11.  Value: 111
000001t:  Control change ::  Channel 5.  Controller 11.  Value: 109
000001t:  Control change ::  Channel 5.  Controller 11.  Value: 108
000001t:  Control change ::  Channel 5.  Controller 11.  Value: 106
000001t:  Control change ::  Channel 5.  Controller 11.  Value: 105
000002t:  Control change ::  Channel 5.  Controller 11.  Value: 103
000001t:  Control change ::  Channel 5.  Controller 11.  Value: 102
000002t:  Control change ::  Channel 5.  Controller 11.  Value: 101
000001t:  Control change ::  Channel 5.  Controller 11.  Value: 100
000001t:  Control change ::  Channel 5.  Controller 11.  Value: 99
000002t:  Control change ::  Channel 5.  Controller 11.  Value: 98
000001t:  Control change ::  Channel 5.  Controller 11.  Value: 97
000002t:  Control change ::  Channel 5.  Controller 11.  Value: 96
000002t:  Control change ::  Channel 5.  Controller 11.  Value: 95
000003t:  Control change ::  Channel 5.  Controller 11.  Value: 94
000003t:  Control change ::  Channel 5.  Controller 11.  Value: 93
000004t:  Control change ::  Channel 5.  Controller 11.  Value: 92
000006t:  Control change ::  Channel 5.  Controller 11.  Value: 91
000010t:  Control change ::  Channel 5.  Controller 11.  Value: 90
000126t:  Note on ::  Channel 5.  Note 56.  Velocity 0
000005t:  Note on ::  Channel 5.  Note 65.  Velocity 0
000007t:  Note on ::  Channel 5.  Note 49.  Velocity 0
000005t:  Note on ::  Channel 5.  Note 61.  Velocity 0
000000t:  Note on ::  Channel 5.  Note 85.  Velocity 0
000000t:  Control change ::  Channel 5.  Controller 11.  Value: 120
000000t:  Note on ::  Channel 5.  Note 44.  Velocity 80
000001t:  Note on ::  Channel 5.  Note 51.  Velocity 83
000000t:  Control change ::  Channel 5.  Controller 11.  Value: 117
000001t:  Note on ::  Channel 5.  Note 56.  Velocity 87
000000t:  Control change ::  Channel 5.  Controller 11.  Value: 115
000001t:  Note on ::  Channel 5.  Note 60.  Velocity 92
000000t:  Control change ::  Channel 5.  Controller 11.  Value: 113
000001t:  Note on ::  Channel 5.  Note 63.  Velocity 98
000000t:  Note on ::  Channel 5.  Note 68.  Velocity 105
000000t:  Control change ::  Channel 5.  Controller 11.  Value: 111
000001t:  Control change ::  Channel 5.  Controller 11.  Value: 109
000001t:  Control change ::  Channel 5.  Controller 11.  Value: 108
000001t:  Control change ::  Channel 5.  Controller 11.  Value: 106
000001t:  Control change ::  Channel 5.  Controller 11.  Value: 105
000001t:  Control change ::  Channel 5.  Controller 11.  Value: 104
000001t:  Control change ::  Channel 5.  Controller 11.  Value: 103
000001t:  Control change ::  Channel 5.  Controller 11.  Value: 102
000001t:  Control change ::  Channel 5.  Controller 11.  Value: 101
000001t:  Control change ::  Channel 5.  Controller 11.  Value: 100
000001t:  Control change ::  Channel 5.  Controller 11.  Value: 99
000002t:  Control change ::  Channel 5.  Controller 11.  Value: 98
000001t:  Control change ::  Channel 5.  Controller 11.  Value: 97
000002t:  Control change ::  Channel 5.  Controller 11.  Value: 96
000001t:  Control change ::  Channel 5.  Controller 11.  Value: 95
000003t:  Control change ::  Channel 5.  Controller 11.  Value: 94
000002t:  Control change ::  Channel 5.  Controller 11.  Value: 93
000004t:  Control change ::  Channel 5.  Controller 11.  Value: 92
000005t:  Control change ::  Channel 5.  Controller 11.  Value: 91
000009t:  Control change ::  Channel 5.  Controller 11.  Value: 90
000025t:  Pitch wheel change ::  Channel 5.   -8192
000001t:  Note on ::  Channel 5.  Note 44.  Velocity 0
000001t:  Note on ::  Channel 5.  Note 56.  Velocity 0
000000t:  Note on ::  Channel 5.  Note 60.  Velocity 0
000000t:  Note on ::  Channel 5.  Note 51.  Velocity 0
000000t:  Note on ::  Channel 5.  Note 68.  Velocity 0
000000t:  Note on ::  Channel 5.  Note 63.  Velocity 0
000000t:  Control change ::  Channel 5.  Controller 11.  Value: 120
000000t:  Pitch wheel change ::  Channel 5.   -8192
000001t:  Control change ::  Channel 5.  Controller 11.  Value: 117
000001t:  Note on ::  Channel 5.  Note 46.  Velocity 60
000000t:  Control change ::  Channel 5.  Controller 11.  Value: 115
000001t:  Note on ::  Channel 5.  Note 46.  Velocity 0
000000t:  Pitch wheel change ::  Channel 5.   -8192
000000t:  Note on ::  Channel 5.  Note 46.  Velocity 80
000000t:  Control change ::  Channel 5.  Controller 11.  Value: 113
000001t:  Note on ::  Channel 5.  Note 53.  Velocity 83
000000t:  Control change ::  Channel 5.  Controller 11.  Value: 111
000001t:  Note on ::  Channel 5.  Note 58.  Velocity 87
000000t:  Control change ::  Channel 5.  Controller 11.  Value: 109
000001t:  Note on ::  Channel 5.  Note 61.  Velocity 92
000000t:  Control change ::  Channel 5.  Controller 11.  Value: 108
000001t:  Note on ::  Channel 5.  Note 65.  Velocity 98
000000t:  Note on ::  Channel 5.  Note 70.  Velocity 105
000000t:  Control change ::  Channel 5.  Controller 11.  Value: 106
000001t:  Control change ::  Channel 5.  Controller 11.  Value: 105
000001t:  Control change ::  Channel 5.  Controller 11.  Value: 104
000001t:  Control change ::  Channel 5.  Controller 11.  Value: 103
000001t:  Control change ::  Channel 5.  Controller 11.  Value: 102
000001t:  Control change ::  Channel 5.  Controller 11.  Value: 101
000001t:  Control change ::  Channel 5.  Controller 11.  Value: 100
000001t:  Control change ::  Channel 5.  Controller 11.  Value: 99
000002t:  Control change ::  Channel 5.  Controller 11.  Value: 98
000001t:  Control change ::  Channel 5.  Controller 11.  Value: 97
000002t:  Control change ::  Channel 5.  Controller 11.  Value: 96
000001t:  Control change ::  Channel 5.  Controller 11.  Value: 95
000003t:  Control change ::  Channel 5.  Controller 11.  Value: 94
000002t:  Control change ::  Channel 5.  Controller 11.  Value: 93
000004t:  Control change ::  Channel 5.  Controller 11.  Value: 92
000005t:  Control change ::  Channel 5.  Controller 11.  Value: 91
000009t:  Control change ::  Channel 5.  Controller 11.  Value: 90
000027t:  Pitch wheel change ::  Channel 5.   -8192
000001t:  Note on ::  Channel 5.  Note 70.  Velocity 0
000000t:  Note on ::  Channel 5.  Note 61.  Velocity 0
000000t:  Note on ::  Channel 5.  Note 46.  Velocity 0
000000t:  Note on ::  Channel 5.  Note 65.  Velocity 0
000001t:  Note on ::  Channel 5.  Note 53.  Velocity 0
000000t:  Note on ::  Channel 5.  Note 58.  Velocity 0
000000t:  Pitch wheel change ::  Channel 5.   -8192
000003t:  Note on ::  Channel 5.  Note 42.  Velocity 68
000001t:  Note on ::  Channel 5.  Note 42.  Velocity 0
000000t:  Pitch wheel change ::  Channel 5.   -8192
000000t:  Control change ::  Channel 5.  Controller 11.  Value: 120
000000t:  Note on ::  Channel 5.  Note 42.  Velocity 80
000001t:  Note on ::  Channel 5.  Note 49.  Velocity 83
000000t:  Control change ::  Channel 5.  Controller 11.  Value: 117
000001t:  Note on ::  Channel 5.  Note 54.  Velocity 87
000000t:  Control change ::  Channel 5.  Controller 11.  Value: 115
000001t:  Note on ::  Channel 5.  Note 58.  Velocity 92
000000t:  Control change ::  Channel 5.  Controller 11.  Value: 113
000001t:  Note on ::  Channel 5.  Note 61.  Velocity 98
000000t:  Note on ::  Channel 5.  Note 66.  Velocity 105
000000t:  Control change ::  Channel 5.  Controller 11.  Value: 111
000001t:  Control change ::  Channel 5.  Controller 11.  Value: 109
000001t:  Control change ::  Channel 5.  Controller 11.  Value: 108
000001t:  Control change ::  Channel 5.  Controller 11.  Value: 106
000001t:  Control change ::  Channel 5.  Controller 11.  Value: 105
000001t:  Control change ::  Channel 5.  Controller 11.  Value: 104
000001t:  Control change ::  Channel 5.  Controller 11.  Value: 103
000001t:  Control change ::  Channel 5.  Controller 11.  Value: 102
000001t:  Control change ::  Channel 5.  Controller 11.  Value: 101
000001t:  Control change ::  Channel 5.  Controller 11.  Value: 100
000001t:  Control change ::  Channel 5.  Controller 11.  Value: 99
000002t:  Control change ::  Channel 5.  Controller 11.  Value: 98
000001t:  Control change ::  Channel 5.  Controller 11.  Value: 97
000002t:  Control change ::  Channel 5.  Controller 11.  Value: 96
000001t:  Control change ::  Channel 5.  Controller 11.  Value: 95
000003t:  Control change ::  Channel 5.  Controller 11.  Value: 94
000002t:  Control change ::  Channel 5.  Controller 11.  Value: 93
000004t:  Control change ::  Channel 5.  Controller 11.  Value: 92
000005t:  Control change ::  Channel 5.  Controller 11.  Value: 91
000009t:  Control change ::  Channel 5.  Controller 11.  Value: 90
000023t:  Note on ::  Channel 5.  Note 54.  Velocity 0
000000t:  Pitch wheel change ::  Channel 5.   -8192
000001t:  Note on ::  Channel 5.  Note 61.  Velocity 0
000000t:  Note on ::  Channel 5.  Note 66.  Velocity 0
000001t:  Note on ::  Channel 5.  Note 42.  Velocity 0
000000t:  Note on ::  Channel 5.  Note 58.  Velocity 0
000000t:  Note on ::  Channel 5.  Note 49.  Velocity 0
000000t:  Pitch wheel change ::  Channel 5.   -8192
000002t:  Note on ::  Channel 5.  Note 44.  Velocity 72
000001t:  Note on ::  Channel 5.  Note 44.  Velocity 0
000000t:  Pitch wheel change ::  Channel 5.   -8192
000000t:  Control change ::  Channel 5.  Controller 11.  Value: 120
000000t:  Note on ::  Channel 5.  Note 44.  Velocity 80
000001t:  Note on ::  Channel 5.  Note 51.  Velocity 83
000000t:  Control change ::  Channel 5.  Controller 11.  Value: 116
000001t:  Note on ::  Channel 5.  Note 56.  Velocity 87
000000t:  Control change ::  Channel 5.  Controller 11.  Value: 113
000001t:  Note on ::  Channel 5.  Note 60.  Velocity 92
000000t:  Control change ::  Channel 5.  Controller 11.  Value: 110
000001t:  Note on ::  Channel 5.  Note 63.  Velocity 98
000000t:  Note on ::  Channel 5.  Note 68.  Velocity 105
000000t:  Control change ::  Channel 5.  Controller 11.  Value: 108
000001t:  Control change ::  Channel 5.  Controller 11.  Value: 106
000001t:  Control change ::  Channel 5.  Controller 11.  Value: 104
000001t:  Control change ::  Channel 5.  Controller 11.  Value: 102
000001t:  Control change ::  Channel 5.  Controller 11.  Value: 101
000001t:  Control change ::  Channel 5.  Controller 11.  Value: 100
000001t:  Control change ::  Channel 5.  Controller 11.  Value: 99
000001t:  Control change ::  Channel 5.  Controller 11.  Value: 98
000001t:  Control change ::  Channel 5.  Controller 11.  Value: 97
000001t:  Control change ::  Channel 5.  Controller 11.  Value: 96
000001t:  Control change ::  Channel 5.  Controller 11.  Value: 95
000002t:  Control change ::  Channel 5.  Controller 11.  Value: 94
000001t:  Control change ::  Channel 5.  Controller 11.  Value: 93
000003t:  Control change ::  Channel 5.  Controller 11.  Value: 92
000003t:  Control change ::  Channel 5.  Controller 11.  Value: 91
000006t:  Control change ::  Channel 5.  Controller 11.  Value: 90
000001t:  Note on ::  Channel 5.  Note 44.  Velocity 0
000001t:  Note on ::  Channel 5.  Note 51.  Velocity 0
000001t:  Note on ::  Channel 5.  Note 63.  Velocity 0
000000t:  Note on ::  Channel 5.  Note 60.  Velocity 0
000000t:  Note on ::  Channel 5.  Note 68.  Velocity 0
000000t:  Note on ::  Channel 5.  Note 56.  Velocity 0
000015t:  Control change ::  Channel 5.  Controller 11.  Value: 120
000000t:  Note on ::  Channel 5.  Note 49.  Velocity 90
000001t:  Note on ::  Channel 5.  Note 56.  Velocity 94
000000t:  Control change ::  Channel 5.  Controller 11.  Value: 113
000001t:  Note on ::  Channel 5.  Note 61.  Velocity 99
000000t:  Note on ::  Channel 5.  Note 65.  Velocity 105
000000t:  Control change ::  Channel 5.  Controller 11.  Value: 108
000001t:  Control change ::  Channel 5.  Controller 11.  Value: 105
000001t:  Control change ::  Channel 5.  Controller 11.  Value: 101
000001t:  Control change ::  Channel 5.  Controller 11.  Value: 99
000001t:  Control change ::  Channel 5.  Controller 11.  Value: 97
000001t:  Control change ::  Channel 5.  Controller 11.  Value: 95
000001t:  Control change ::  Channel 5.  Controller 11.  Value: 94
000001t:  Control change ::  Channel 5.  Controller 11.  Value: 93
000001t:  Control change ::  Channel 5.  Controller 11.  Value: 92
000002t:  Control change ::  Channel 5.  Controller 11.  Value: 91
000003t:  Control change ::  Channel 5.  Controller 11.  Value: 90
000007t:  Note on ::  Channel 5.  Note 61.  Velocity 0
000000t:  Note on ::  Channel 5.  Note 49.  Velocity 0
000000t:  Note on ::  Channel 5.  Note 56.  Velocity 0
000001t:  Note on ::  Channel 5.  Note 65.  Velocity 0
000001t:  Control change ::  Channel 5.  Controller 11.  Value: 120
000000t:  Note on ::  Channel 5.  Note 49.  Velocity 90
000001t:  Note on ::  Channel 5.  Note 56.  Velocity 94
000000t:  Control change ::  Channel 5.  Controller 11.  Value: 117
000001t:  Note on ::  Channel 5.  Note 61.  Velocity 99
000000t:  Note on ::  Channel 5.  Note 85.  Velocity 21
000000t:  Note on ::  Channel 5.  Note 65.  Velocity 105
000000t:  Control change ::  Channel 5.  Controller 11.  Value: 115
000001t:  Control change ::  Channel 5.  Controller 11.  Value: 113
000001t:  Control change ::  Channel 5.  Controller 11.  Value: 111
000001t:  Control change ::  Channel 5.  Controller 11.  Value: 109
000001t:  Control change ::  Channel 5.  Controller 11.  Value: 108
000001t:  Control change ::  Channel 5.  Controller 11.  Value: 106
000001t:  Control change ::  Channel 5.  Controller 11.  Value: 105
000001t:  Control change ::  Channel 5.  Controller 11.  Value: 104
000001t:  Control change ::  Channel 5.  Controller 11.  Value: 103
000001t:  Control change ::  Channel 5.  Controller 11.  Value: 102
000001t:  Control change ::  Channel 5.  Controller 11.  Value: 101
000001t:  Control change ::  Channel 5.  Controller 11.  Value: 100
000001t:  Control change ::  Channel 5.  Controller 11.  Value: 99
000002t:  Control change ::  Channel 5.  Controller 11.  Value: 98
000001t:  Control change ::  Channel 5.  Controller 11.  Value: 97
000002t:  Control change ::  Channel 5.  Controller 11.  Value: 96
000001t:  Control change ::  Channel 5.  Controller 11.  Value: 95
000003t:  Control change ::  Channel 5.  Controller 11.  Value: 94
000002t:  Control change ::  Channel 5.  Controller 11.  Value: 93
000004t:  Control change ::  Channel 5.  Controller 11.  Value: 92
000005t:  Control change ::  Channel 5.  Controller 11.  Value: 91
000009t:  Control change ::  Channel 5.  Controller 11.  Value: 90
000129t:  Note on ::  Channel 5.  Note 56.  Velocity 0
000007t:  Note on ::  Channel 5.  Note 65.  Velocity 0
000007t:  Note on ::  Channel 5.  Note 49.  Velocity 0
000006t:  Note on ::  Channel 5.  Note 61.  Velocity 0
000000t:  Note on ::  Channel 5.  Note 85.  Velocity 0
000000t:  Control change ::  Channel 5.  Controller 11.  Value: 120
000000t:  Note on ::  Channel 5.  Note 44.  Velocity 80
000001t:  Note on ::  Channel 5.  Note 51.  Velocity 83
000000t:  Control change ::  Channel 5.  Controller 11.  Value: 117
000001t:  Note on ::  Channel 5.  Note 56.  Velocity 87
000000t:  Control change ::  Channel 5.  Controller 11.  Value: 115
000001t:  Note on ::  Channel 5.  Note 60.  Velocity 92
000000t:  Control change ::  Channel 5.  Controller 11.  Value: 113
000001t:  Note on ::  Channel 5.  Note 63.  Velocity 98
000000t:  Note on ::  Channel 5.  Note 68.  Velocity 105
000000t:  Control change ::  Channel 5.  Controller 11.  Value: 111
000001t:  Control change ::  Channel 5.  Controller 11.  Value: 109
000001t:  Control change ::  Channel 5.  Controller 11.  Value: 108
000001t:  Control change ::  Channel 5.  Controller 11.  Value: 106
000001t:  Control change ::  Channel 5.  Controller 11.  Value: 105
000001t:  Control change ::  Channel 5.  Controller 11.  Value: 104
000001t:  Control change ::  Channel 5.  Controller 11.  Value: 103
000001t:  Control change ::  Channel 5.  Controller 11.  Value: 102
000001t:  Control change ::  Channel 5.  Controller 11.  Value: 101
000001t:  Control change ::  Channel 5.  Controller 11.  Value: 100
000001t:  Control change ::  Channel 5.  Controller 11.  Value: 99
000002t:  Control change ::  Channel 5.  Controller 11.  Value: 98
000001t:  Control change ::  Channel 5.  Controller 11.  Value: 97
000002t:  Control change ::  Channel 5.  Controller 11.  Value: 96
000001t:  Control change ::  Channel 5.  Controller 11.  Value: 95
000003t:  Control change ::  Channel 5.  Controller 11.  Value: 94
000002t:  Control change ::  Channel 5.  Controller 11.  Value: 93
000004t:  Control change ::  Channel 5.  Controller 11.  Value: 92
000005t:  Control change ::  Channel 5.  Controller 11.  Value: 91
000009t:  Control change ::  Channel 5.  Controller 11.  Value: 90
000025t:  Note on ::  Channel 5.  Note 68.  Velocity 0
000000t:  Note on ::  Channel 5.  Note 44.  Velocity 0
000000t:  Note on ::  Channel 5.  Note 56.  Velocity 0
000000t:  Pitch wheel change ::  Channel 5.   -8192
000001t:  Note on ::  Channel 5.  Note 51.  Velocity 0
000001t:  Note on ::  Channel 5.  Note 63.  Velocity 0
000000t:  Note on ::  Channel 5.  Note 60.  Velocity 0
000000t:  Pitch wheel change ::  Channel 5.   -8192
000002t:  Control change ::  Channel 5.  Controller 11.  Value: 120
000000t:  Note on ::  Channel 5.  Note 46.  Velocity 70
000001t:  Note on ::  Channel 5.  Note 46.  Velocity 0
000000t:  Pitch wheel change ::  Channel 5.   -8192
000000t:  Note on ::  Channel 5.  Note 46.  Velocity 80
000000t:  Control change ::  Channel 5.  Controller 11.  Value: 117
000001t:  Note on ::  Channel 5.  Note 53.  Velocity 83
000000t:  Control change ::  Channel 5.  Controller 11.  Value: 115
000001t:  Note on ::  Channel 5.  Note 58.  Velocity 87
000000t:  Control change ::  Channel 5.  Controller 11.  Value: 113
000001t:  Note on ::  Channel 5.  Note 61.  Velocity 92
000000t:  Control change ::  Channel 5.  Controller 11.  Value: 111
000001t:  Note on ::  Channel 5.  Note 65.  Velocity 98
000000t:  Note on ::  Channel 5.  Note 70.  Velocity 105
000000t:  Control change ::  Channel 5.  Controller 11.  Value: 109
000001t:  Control change ::  Channel 5.  Controller 11.  Value: 108
000001t:  Control change ::  Channel 5.  Controller 11.  Value: 106
000001t:  Control change ::  Channel 5.  Controller 11.  Value: 105
000001t:  Control change ::  Channel 5.  Controller 11.  Value: 104
000001t:  Control change ::  Channel 5.  Controller 11.  Value: 103
000001t:  Control change ::  Channel 5.  Controller 11.  Value: 102
000001t:  Control change ::  Channel 5.  Controller 11.  Value: 101
000001t:  Control change ::  Channel 5.  Controller 11.  Value: 100
000001t:  Control change ::  Channel 5.  Controller 11.  Value: 99
000002t:  Control change ::  Channel 5.  Controller 11.  Value: 98
000001t:  Control change ::  Channel 5.  Controller 11.  Value: 97
000002t:  Control change ::  Channel 5.  Controller 11.  Value: 96
000001t:  Control change ::  Channel 5.  Controller 11.  Value: 95
000003t:  Control change ::  Channel 5.  Controller 11.  Value: 94
000002t:  Control change ::  Channel 5.  Controller 11.  Value: 93
000004t:  Control change ::  Channel 5.  Controller 11.  Value: 92
000005t:  Control change ::  Channel 5.  Controller 11.  Value: 91
000009t:  Control change ::  Channel 5.  Controller 11.  Value: 90
000025t:  Pitch wheel change ::  Channel 5.   -8192
000001t:  Note on ::  Channel 5.  Note 46.  Velocity 0
000001t:  Note on ::  Channel 5.  Note 58.  Velocity 0
000000t:  Note on ::  Channel 5.  Note 61.  Velocity 0
000000t:  Note on ::  Channel 5.  Note 53.  Velocity 0
000000t:  Note on ::  Channel 5.  Note 70.  Velocity 0
000000t:  Note on ::  Channel 5.  Note 65.  Velocity 0
000000t:  Pitch wheel change ::  Channel 5.   -8192
000002t:  Control change ::  Channel 5.  Controller 11.  Value: 120
000000t:  Note on ::  Channel 5.  Note 42.  Velocity 70
000001t:  Note on ::  Channel 5.  Note 42.  Velocity 0
000000t:  Pitch wheel change ::  Channel 5.   -8192
000000t:  Note on ::  Channel 5.  Note 42.  Velocity 80
000000t:  Control change ::  Channel 5.  Controller 11.  Value: 117
000001t:  Note on ::  Channel 5.  Note 49.  Velocity 83
000000t:  Control change ::  Channel 5.  Controller 11.  Value: 115
000001t:  Note on ::  Channel 5.  Note 54.  Velocity 87
000000t:  Control change ::  Channel 5.  Controller 11.  Value: 113
000001t:  Note on ::  Channel 5.  Note 58.  Velocity 92
000000t:  Control change ::  Channel 5.  Controller 11.  Value: 111
000001t:  Note on ::  Channel 5.  Note 61.  Velocity 98
000000t:  Note on ::  Channel 5.  Note 66.  Velocity 105
000000t:  Control change ::  Channel 5.  Controller 11.  Value: 109
000001t:  Control change ::  Channel 5.  Controller 11.  Value: 108
000001t:  Control change ::  Channel 5.  Controller 11.  Value: 106
000001t:  Control change ::  Channel 5.  Controller 11.  Value: 105
000001t:  Control change ::  Channel 5.  Controller 11.  Value: 104
000001t:  Control change ::  Channel 5.  Controller 11.  Value: 103
000001t:  Control change ::  Channel 5.  Controller 11.  Value: 102
000001t:  Control change ::  Channel 5.  Controller 11.  Value: 101
000001t:  Control change ::  Channel 5.  Controller 11.  Value: 100
000001t:  Control change ::  Channel 5.  Controller 11.  Value: 99
000002t:  Control change ::  Channel 5.  Controller 11.  Value: 98
000001t:  Control change ::  Channel 5.  Controller 11.  Value: 97
000002t:  Control change ::  Channel 5.  Controller 11.  Value: 96
000001t:  Control change ::  Channel 5.  Controller 11.  Value: 95
000003t:  Control change ::  Channel 5.  Controller 11.  Value: 94
000002t:  Control change ::  Channel 5.  Controller 11.  Value: 93
000004t:  Control change ::  Channel 5.  Controller 11.  Value: 92
000005t:  Control change ::  Channel 5.  Controller 11.  Value: 91
000009t:  Control change ::  Channel 5.  Controller 11.  Value: 90
000025t:  Pitch wheel change ::  Channel 5.   -8192
000001t:  Note on ::  Channel 5.  Note 66.  Velocity 0
000000t:  Note on ::  Channel 5.  Note 49.  Velocity 0
000000t:  Note on ::  Channel 5.  Note 54.  Velocity 0
000000t:  Note on ::  Channel 5.  Note 42.  Velocity 0
000000t:  Note on ::  Channel 5.  Note 61.  Velocity 0
000000t:  Note on ::  Channel 5.  Note 58.  Velocity 0
000001t:  Pitch wheel change ::  Channel 5.   -8192
000002t:  Note on ::  Channel 5.  Note 41.  Velocity 72
000001t:  Note on ::  Channel 5.  Note 41.  Velocity 0
000000t:  Pitch wheel change ::  Channel 5.   -8192
000000t:  Control change ::  Channel 5.  Controller 11.  Value: 120
000000t:  Note on ::  Channel 5.  Note 41.  Velocity 82
000001t:  Note on ::  Channel 5.  Note 49.  Velocity 86
000000t:  Control change ::  Channel 5.  Controller 11.  Value: 116
000001t:  Note on ::  Channel 5.  Note 56.  Velocity 91
000000t:  Control change ::  Channel 5.  Controller 11.  Value: 113
000001t:  Note on ::  Channel 5.  Note 61.  Velocity 98
000000t:  Note on ::  Channel 5.  Note 65.  Velocity 105
000000t:  Control change ::  Channel 5.  Controller 11.  Value: 110
000001t:  Control change ::  Channel 5.  Controller 11.  Value: 108
000001t:  Control change ::  Channel 5.  Controller 11.  Value: 106
000001t:  Control change ::  Channel 5.  Controller 11.  Value: 104
000001t:  Control change ::  Channel 5.  Controller 11.  Value: 102
000001t:  Control change ::  Channel 5.  Controller 11.  Value: 101
000001t:  Control change ::  Channel 5.  Controller 11.  Value: 100
000001t:  Control change ::  Channel 5.  Controller 11.  Value: 99
000001t:  Control change ::  Channel 5.  Controller 11.  Value: 98
000001t:  Control change ::  Channel 5.  Controller 11.  Value: 97
000001t:  Control change ::  Channel 5.  Controller 11.  Value: 96
000001t:  Control change ::  Channel 5.  Controller 11.  Value: 95
000002t:  Control change ::  Channel 5.  Controller 11.  Value: 94
000001t:  Control change ::  Channel 5.  Controller 11.  Value: 93
000003t:  Control change ::  Channel 5.  Controller 11.  Value: 92
000003t:  Control change ::  Channel 5.  Controller 11.  Value: 91
000006t:  Control change ::  Channel 5.  Controller 11.  Value: 90
000001t:  Note on ::  Channel 5.  Note 56.  Velocity 0
000001t:  Note on ::  Channel 5.  Note 61.  Velocity 0
000000t:  Note on ::  Channel 5.  Note 65.  Velocity 0
000000t:  Note on ::  Channel 5.  Note 49.  Velocity 0
000001t:  Note on ::  Channel 5.  Note 41.  Velocity 0
000015t:  Control change ::  Channel 5.  Controller 11.  Value: 120
000000t:  Note on ::  Channel 5.  Note 42.  Velocity 80
000001t:  Note on ::  Channel 5.  Note 49.  Velocity 83
000000t:  Control change ::  Channel 5.  Controller 11.  Value: 113
000001t:  Note on ::  Channel 5.  Note 54.  Velocity 87
000000t:  Control change ::  Channel 5.  Controller 11.  Value: 108
000001t:  Note on ::  Channel 5.  Note 58.  Velocity 92
000000t:  Control change ::  Channel 5.  Controller 11.  Value: 105
000001t:  Note on ::  Channel 5.  Note 61.  Velocity 98
000000t:  Note on ::  Channel 5.  Note 66.  Velocity 105
000000t:  Control change ::  Channel 5.  Controller 11.  Value: 101
000001t:  Control change ::  Channel 5.  Controller 11.  Value: 99
000001t:  Control change ::  Channel 5.  Controller 11.  Value: 97
000001t:  Control change ::  Channel 5.  Controller 11.  Value: 95
000001t:  Control change ::  Channel 5.  Controller 11.  Value: 94
000001t:  Control change ::  Channel 5.  Controller 11.  Value: 93
000001t:  Control change ::  Channel 5.  Controller 11.  Value: 92
000002t:  Control change ::  Channel 5.  Controller 11.  Value: 91
000003t:  Control change ::  Channel 5.  Controller 11.  Value: 90
000006t:  Note on ::  Channel 5.  Note 49.  Velocity 0
000001t:  Note on ::  Channel 5.  Note 61.  Velocity 0
000000t:  Note on ::  Channel 5.  Note 42.  Velocity 0
000000t:  Note on ::  Channel 5.  Note 66.  Velocity 0
000001t:  Note on ::  Channel 5.  Note 58.  Velocity 0
000000t:  Note on ::  Channel 5.  Note 54.  Velocity 0
000001t:  Control change ::  Channel 5.  Controller 11.  Value: 120
000000t:  Note on ::  Channel 5.  Note 42.  Velocity 80
000001t:  Note on ::  Channel 5.  Note 49.  Velocity 83
000000t:  Control change ::  Channel 5.  Controller 11.  Value: 117
000001t:  Note on ::  Channel 5.  Note 54.  Velocity 87
000000t:  Control change ::  Channel 5.  Controller 11.  Value: 115
000001t:  Note on ::  Channel 5.  Note 58.  Velocity 92
000000t:  Control change ::  Channel 5.  Controller 11.  Value: 114
000001t:  Note on ::  Channel 5.  Note 61.  Velocity 98
000000t:  Note on ::  Channel 5.  Note 66.  Velocity 105
000000t:  Control change ::  Channel 5.  Controller 11.  Value: 112
000001t:  Control change ::  Channel 5.  Controller 11.  Value: 111
000001t:  Control change ::  Channel 5.  Controller 11.  Value: 109
000001t:  Control change ::  Channel 5.  Controller 11.  Value: 108
000001t:  Control change ::  Channel 5.  Controller 11.  Value: 106
000001t:  Control change ::  Channel 5.  Controller 11.  Value: 105
000002t:  Control change ::  Channel 5.  Controller 11.  Value: 103
000001t:  Control change ::  Channel 5.  Controller 11.  Value: 102
000002t:  Control change ::  Channel 5.  Controller 11.  Value: 101
000001t:  Control change ::  Channel 5.  Controller 11.  Value: 100
000001t:  Control change ::  Channel 5.  Controller 11.  Value: 99
000002t:  Control change ::  Channel 5.  Controller 11.  Value: 98
000001t:  Control change ::  Channel 5.  Controller 11.  Value: 97
000002t:  Control change ::  Channel 5.  Controller 11.  Value: 96
000002t:  Control change ::  Channel 5.  Controller 11.  Value: 95
000003t:  Control change ::  Channel 5.  Controller 11.  Value: 94
000003t:  Control change ::  Channel 5.  Controller 11.  Value: 93
000004t:  Control change ::  Channel 5.  Controller 11.  Value: 92
000006t:  Control change ::  Channel 5.  Controller 11.  Value: 91
000010t:  Control change ::  Channel 5.  Controller 11.  Value: 90
000333t:  Note on ::  Channel 5.  Note 42.  Velocity 0
000001t:  Note on ::  Channel 5.  Note 49.  Velocity 0
000001t:  Note on ::  Channel 5.  Note 54.  Velocity 0
000000t:  Control change ::  Channel 5.  Controller 7.  Value: 85
000001t:  Note on ::  Channel 5.  Note 58.  Velocity 0
000001t:  Note on ::  Channel 5.  Note 61.  Velocity 0
000000t:  Note on ::  Channel 5.  Note 66.  Velocity 0
000000t:  Program (patch) change ::  Channel 5.  Patch 29 (Overdriven Guitar)
000024t:  Note on ::  Channel 5.  Note 56.  Velocity 80
000009t:  Note on ::  Channel 5.  Note 56.  Velocity 0
000015t:  Note on ::  Channel 5.  Note 61.  Velocity 80
000009t:  Note on ::  Channel 5.  Note 61.  Velocity 0
000015t:  Note on ::  Channel 5.  Note 65.  Velocity 83
000009t:  Note on ::  Channel 5.  Note 65.  Velocity 0
000039t:  Note on ::  Channel 5.  Note 56.  Velocity 80
000009t:  Note on ::  Channel 5.  Note 56.  Velocity 0
000015t:  Note on ::  Channel 5.  Note 60.  Velocity 80
000009t:  Note on ::  Channel 5.  Note 60.  Velocity 0
000015t:  Note on ::  Channel 5.  Note 63.  Velocity 83
000009t:  Note on ::  Channel 5.  Note 63.  Velocity 0
000039t:  Note on ::  Channel 5.  Note 54.  Velocity 80
000009t:  Note on ::  Channel 5.  Note 54.  Velocity 0
000015t:  Note on ::  Channel 5.  Note 58.  Velocity 80
000009t:  Note on ::  Channel 5.  Note 58.  Velocity 0
000015t:  Note on ::  Channel 5.  Note 61.  Velocity 83
000009t:  Note on ::  Channel 5.  Note 61.  Velocity 0
000039t:  Note on ::  Channel 5.  Note 56.  Velocity 80
000009t:  Note on ::  Channel 5.  Note 56.  Velocity 0
000015t:  Note on ::  Channel 5.  Note 60.  Velocity 80
000009t:  Note on ::  Channel 5.  Note 60.  Velocity 0
000015t:  Note on ::  Channel 5.  Note 63.  Velocity 83
000009t:  Note on ::  Channel 5.  Note 63.  Velocity 0
000039t:  Note on ::  Channel 5.  Note 56.  Velocity 82
000009t:  Note on ::  Channel 5.  Note 56.  Velocity 0
000015t:  Note on ::  Channel 5.  Note 61.  Velocity 80
000009t:  Note on ::  Channel 5.  Note 61.  Velocity 0
000015t:  Note on ::  Channel 5.  Note 65.  Velocity 84
000009t:  Note on ::  Channel 5.  Note 65.  Velocity 0
000039t:  Note on ::  Channel 5.  Note 56.  Velocity 80
000009t:  Note on ::  Channel 5.  Note 56.  Velocity 0
000015t:  Note on ::  Channel 5.  Note 60.  Velocity 80
000009t:  Note on ::  Channel 5.  Note 60.  Velocity 0
000015t:  Note on ::  Channel 5.  Note 63.  Velocity 84
000009t:  Note on ::  Channel 5.  Note 63.  Velocity 0
000039t:  Note on ::  Channel 5.  Note 58.  Velocity 80
000009t:  Note on ::  Channel 5.  Note 58.  Velocity 0
000015t:  Note on ::  Channel 5.  Note 61.  Velocity 80
000009t:  Note on ::  Channel 5.  Note 61.  Velocity 0
000015t:  Note on ::  Channel 5.  Note 65.  Velocity 84
000009t:  Note on ::  Channel 5.  Note 65.  Velocity 0
000039t:  Note on ::  Channel 5.  Note 58.  Velocity 80
000009t:  Note on ::  Channel 5.  Note 58.  Velocity 0
000015t:  Note on ::  Channel 5.  Note 61.  Velocity 80
000009t:  Note on ::  Channel 5.  Note 61.  Velocity 0
000015t:  Note on ::  Channel 5.  Note 66.  Velocity 85
000009t:  Note on ::  Channel 5.  Note 66.  Velocity 0
000039t:  Note on ::  Channel 5.  Note 61.  Velocity 80
000009t:  Note on ::  Channel 5.  Note 61.  Velocity 0
000015t:  Note on ::  Channel 5.  Note 65.  Velocity 80
000009t:  Note on ::  Channel 5.  Note 65.  Velocity 0
000015t:  Note on ::  Channel 5.  Note 68.  Velocity 87
000007t:  Note on ::  Channel 5.  Note 68.  Velocity 0
000041t:  Note on ::  Channel 5.  Note 60.  Velocity 83
000001t:  Note on ::  Channel 5.  Note 65.  Velocity 80
000007t:  Note on ::  Channel 5.  Note 60.  Velocity 0
000002t:  Note on ::  Channel 5.  Note 65.  Velocity 0
000014t:  Note on ::  Channel 5.  Note 65.  Velocity 80
000001t:  Note on ::  Channel 5.  Note 68.  Velocity 83
000007t:  Note on ::  Channel 5.  Note 68.  Velocity 0
000001t:  Note on ::  Channel 5.  Note 65.  Velocity 0
000015t:  Note on ::  Channel 5.  Note 68.  Velocity 87
000001t:  Note on ::  Channel 5.  Note 72.  Velocity 84
000007t:  Note on ::  Channel 5.  Note 72.  Velocity 0
000001t:  Note on ::  Channel 5.  Note 68.  Velocity 0
000038t:  Note on ::  Channel 5.  Note 58.  Velocity 80
000001t:  Note on ::  Channel 5.  Note 65.  Velocity 78
000008t:  Note on ::  Channel 5.  Note 58.  Velocity 0
000001t:  Note on ::  Channel 5.  Note 65.  Velocity 0
000014t:  Note on ::  Channel 5.  Note 61.  Velocity 80
000001t:  Note on ::  Channel 5.  Note 70.  Velocity 79
000008t:  Note on ::  Channel 5.  Note 61.  Velocity 0
000001t:  Note on ::  Channel 5.  Note 70.  Velocity 0
000014t:  Note on ::  Channel 5.  Note 65.  Velocity 84
000001t:  Note on ::  Channel 5.  Note 73.  Velocity 82
000008t:  Note on ::  Channel 5.  Note 65.  Velocity 0
000001t:  Note on ::  Channel 5.  Note 73.  Velocity 0
000038t:  Note on ::  Channel 5.  Note 58.  Velocity 82
000001t:  Note on ::  Channel 5.  Note 73.  Velocity 84
000008t:  Note on ::  Channel 5.  Note 58.  Velocity 0
000001t:  Note on ::  Channel 5.  Note 73.  Velocity 0
000014t:  Note on ::  Channel 5.  Note 61.  Velocity 81
000001t:  Note on ::  Channel 5.  Note 70.  Velocity 80
000008t:  Note on ::  Channel 5.  Note 61.  Velocity 0
000001t:  Note on ::  Channel 5.  Note 70.  Velocity 0
000034t:  Program (patch) change ::  Channel 5.  Patch 30 (Distortion Guitar)
000002t:  Control change ::  Channel 5.  Controller 11.  Value: 120
000000t:  Note on ::  Channel 5.  Note 44.  Velocity 90
000001t:  Note on ::  Channel 5.  Note 51.  Velocity 94
000000t:  Control change ::  Channel 5.  Controller 11.  Value: 117
000001t:  Note on ::  Channel 5.  Note 56.  Velocity 99
000000t:  Note on ::  Channel 5.  Note 61.  Velocity 106
000000t:  Control change ::  Channel 5.  Controller 11.  Value: 115
000001t:  Control change ::  Channel 5.  Controller 11.  Value: 114
000001t:  Control change ::  Channel 5.  Controller 11.  Value: 112
000001t:  Control change ::  Channel 5.  Controller 11.  Value: 111
000001t:  Control change ::  Channel 5.  Controller 11.  Value: 109
000001t:  Control change ::  Channel 5.  Controller 11.  Value: 108
000001t:  Control change ::  Channel 5.  Controller 11.  Value: 107
000001t:  Control change ::  Channel 5.  Controller 11.  Value: 106
000001t:  Control change ::  Channel 5.  Controller 11.  Value: 105
000001t:  Control change ::  Channel 5.  Controller 11.  Value: 104
000001t:  Control change ::  Channel 5.  Controller 11.  Value: 103
000001t:  Control change ::  Channel 5.  Controller 11.  Value: 102
000001t:  Control change ::  Channel 5.  Controller 11.  Value: 101
000002t:  Control change ::  Channel 5.  Controller 11.  Value: 100
000001t:  Control change ::  Channel 5.  Controller 11.  Value: 99
000002t:  Control change ::  Channel 5.  Controller 11.  Value: 98
000001t:  Control change ::  Channel 5.  Controller 11.  Value: 97
000002t:  Control change ::  Channel 5.  Controller 11.  Value: 96
000003t:  Control change ::  Channel 5.  Controller 11.  Value: 95
000003t:  Control change ::  Channel 5.  Controller 11.  Value: 94
000003t:  Control change ::  Channel 5.  Controller 11.  Value: 93
000004t:  Control change ::  Channel 5.  Controller 11.  Value: 92
000006t:  Control change ::  Channel 5.  Controller 11.  Value: 91
000011t:  Control change ::  Channel 5.  Controller 11.  Value: 90
000138t:  Note on ::  Channel 5.  Note 44.  Velocity 0
000001t:  Note on ::  Channel 5.  Note 51.  Velocity 0
000001t:  Note on ::  Channel 5.  Note 56.  Velocity 0
000000t:  Note on ::  Channel 5.  Note 61.  Velocity 0
000000t:  Control change ::  Channel 5.  Controller 11.  Value: 120
000000t:  Note on ::  Channel 5.  Note 44.  Velocity 90
000001t:  Note on ::  Channel 5.  Note 51.  Velocity 94
000000t:  Control change ::  Channel 5.  Controller 11.  Value: 118
000001t:  Note on ::  Channel 5.  Note 56.  Velocity 99
000000t:  Note on ::  Channel 5.  Note 60.  Velocity 106
000000t:  Control change ::  Channel 5.  Controller 11.  Value: 116
000001t:  Control change ::  Channel 5.  Controller 11.  Value: 114
000001t:  Control change ::  Channel 5.  Controller 11.  Value: 113
000001t:  Control change ::  Channel 5.  Controller 11.  Value: 111
000001t:  Control change ::  Channel 5.  Controller 11.  Value: 110
000001t:  Control change ::  Channel 5.  Controller 11.  Value: 108
000001t:  Control change ::  Channel 5.  Controller 11.  Value: 107
000001t:  Control change ::  Channel 5.  Controller 11.  Value: 106
000001t:  Control change ::  Channel 5.  Controller 11.  Value: 105
000001t:  Control change ::  Channel 5.  Controller 11.  Value: 104
000001t:  Control change ::  Channel 5.  Controller 11.  Value: 103
000001t:  Control change ::  Channel 5.  Controller 11.  Value: 102
000002t:  Control change ::  Channel 5.  Controller 11.  Value: 101
000001t:  Control change ::  Channel 5.  Controller 11.  Value: 100
000001t:  Control change ::  Channel 5.  Controller 11.  Value: 99
000002t:  Control change ::  Channel 5.  Controller 11.  Value: 98
000002t:  Control change ::  Channel 5.  Controller 11.  Value: 97
000002t:  Control change ::  Channel 5.  Controller 11.  Value: 96
000002t:  Control change ::  Channel 5.  Controller 11.  Value: 95
000003t:  Control change ::  Channel 5.  Controller 11.  Value: 94
000003t:  Control change ::  Channel 5.  Controller 11.  Value: 93
000005t:  Control change ::  Channel 5.  Controller 11.  Value: 92
000005t:  Control change ::  Channel 5.  Controller 11.  Value: 91
000011t:  Control change ::  Channel 5.  Controller 11.  Value: 90
000138t:  Note on ::  Channel 5.  Note 44.  Velocity 0
000000t:  Control change ::  Channel 5.  Controller 7.  Value: 71
000001t:  Note on ::  Channel 5.  Note 51.  Velocity 0
000001t:  Note on ::  Channel 5.  Note 56.  Velocity 0
000000t:  Note on ::  Channel 5.  Note 60.  Velocity 0
000000t:  Control change ::  Channel 5.  Controller 11.  Value: 120
000000t:  Note on ::  Channel 5.  Note 44.  Velocity 80
000001t:  Note on ::  Channel 5.  Note 51.  Velocity 83
000000t:  Control change ::  Channel 5.  Controller 11.  Value: 117
000001t:  Note on ::  Channel 5.  Note 56.  Velocity 87
000000t:  Control change ::  Channel 5.  Controller 11.  Value: 115
000001t:  Note on ::  Channel 5.  Note 60.  Velocity 92
000000t:  Control change ::  Channel 5.  Controller 11.  Value: 113
000001t:  Note on ::  Channel 5.  Note 63.  Velocity 98
000000t:  Note on ::  Channel 5.  Note 68.  Velocity 105
000000t:  Control change ::  Channel 5.  Controller 11.  Value: 111
000001t:  Control change ::  Channel 5.  Controller 11.  Value: 109
000001t:  Control change ::  Channel 5.  Controller 11.  Value: 108
000001t:  Control change ::  Channel 5.  Controller 11.  Value: 106
000001t:  Control change ::  Channel 5.  Controller 11.  Value: 105
000001t:  Control change ::  Channel 5.  Controller 11.  Value: 104
000001t:  Control change ::  Channel 5.  Controller 11.  Value: 103
000001t:  Control change ::  Channel 5.  Controller 11.  Value: 102
000001t:  Control change ::  Channel 5.  Controller 11.  Value: 101
000001t:  Control change ::  Channel 5.  Controller 11.  Value: 100
000001t:  Control change ::  Channel 5.  Controller 11.  Value: 99
000002t:  Control change ::  Channel 5.  Controller 11.  Value: 98
000001t:  Control change ::  Channel 5.  Controller 11.  Value: 97
000002t:  Control change ::  Channel 5.  Controller 11.  Value: 96
000001t:  Control change ::  Channel 5.  Controller 11.  Value: 95
000003t:  Control change ::  Channel 5.  Controller 11.  Value: 94
000002t:  Control change ::  Channel 5.  Controller 11.  Value: 93
000004t:  Control change ::  Channel 5.  Controller 11.  Value: 92
000005t:  Control change ::  Channel 5.  Controller 11.  Value: 91
000009t:  Control change ::  Channel 5.  Controller 11.  Value: 90
000025t:  Pitch wheel change ::  Channel 5.   -8192
000003t:  Note on ::  Channel 5.  Note 51.  Velocity 0
000000t:  Note on ::  Channel 5.  Note 44.  Velocity 0
000000t:  Pitch wheel change ::  Channel 5.   -8192
000001t:  Note on ::  Channel 5.  Note 63.  Velocity 0
000000t:  Note on ::  Channel 5.  Note 60.  Velocity 0
000000t:  Note on ::  Channel 5.  Note 68.  Velocity 0
000000t:  Note on ::  Channel 5.  Note 56.  Velocity 0
000002t:  Control change ::  Channel 5.  Controller 11.  Value: 120
000000t:  Note on ::  Channel 5.  Note 46.  Velocity 80
000000t:  Pitch wheel change ::  Channel 5.   -8192
000001t:  Note on ::  Channel 5.  Note 53.  Velocity 83
000000t:  Control change ::  Channel 5.  Controller 11.  Value: 117
000001t:  Note on ::  Channel 5.  Note 58.  Velocity 87
000000t:  Control change ::  Channel 5.  Controller 11.  Value: 115
000001t:  Note on ::  Channel 5.  Note 61.  Velocity 92
000000t:  Control change ::  Channel 5.  Controller 11.  Value: 113
000001t:  Note on ::  Channel 5.  Note 65.  Velocity 98
000000t:  Note on ::  Channel 5.  Note 70.  Velocity 105
000000t:  Control change ::  Channel 5.  Controller 11.  Value: 111
000001t:  Control change ::  Channel 5.  Controller 11.  Value: 109
000001t:  Control change ::  Channel 5.  Controller 11.  Value: 108
000001t:  Control change ::  Channel 5.  Controller 11.  Value: 106
000001t:  Control change ::  Channel 5.  Controller 11.  Value: 105
000001t:  Control change ::  Channel 5.  Controller 11.  Value: 104
000001t:  Control change ::  Channel 5.  Controller 11.  Value: 103
000001t:  Control change ::  Channel 5.  Controller 11.  Value: 102
000001t:  Control change ::  Channel 5.  Controller 11.  Value: 101
000001t:  Control change ::  Channel 5.  Controller 11.  Value: 100
000001t:  Control change ::  Channel 5.  Controller 11.  Value: 99
000002t:  Control change ::  Channel 5.  Controller 11.  Value: 98
000001t:  Control change ::  Channel 5.  Controller 11.  Value: 97
000002t:  Control change ::  Channel 5.  Controller 11.  Value: 96
000001t:  Control change ::  Channel 5.  Controller 11.  Value: 95
000003t:  Control change ::  Channel 5.  Controller 11.  Value: 94
000002t:  Control change ::  Channel 5.  Controller 11.  Value: 93
000004t:  Control change ::  Channel 5.  Controller 11.  Value: 92
000005t:  Control change ::  Channel 5.  Controller 11.  Value: 91
000009t:  Control change ::  Channel 5.  Controller 11.  Value: 90
000024t:  Note on ::  Channel 5.  Note 46.  Velocity 0
000000t:  Pitch wheel change ::  Channel 5.   -8192
000001t:  Note on ::  Channel 5.  Note 58.  Velocity 0
000000t:  Note on ::  Channel 5.  Note 61.  Velocity 0
000000t:  Note on ::  Channel 5.  Note 65.  Velocity 0
000000t:  Note on ::  Channel 5.  Note 70.  Velocity 0
000001t:  Note on ::  Channel 5.  Note 53.  Velocity 0
000000t:  Pitch wheel change ::  Channel 5.   -8192
000002t:  Control change ::  Channel 5.  Controller 11.  Value: 120
000000t:  Note on ::  Channel 5.  Note 42.  Velocity 80
000000t:  Pitch wheel change ::  Channel 5.   -8192
000001t:  Note on ::  Channel 5.  Note 49.  Velocity 83
000000t:  Control change ::  Channel 5.  Controller 11.  Value: 117
000001t:  Note on ::  Channel 5.  Note 54.  Velocity 87
000000t:  Control change ::  Channel 5.  Controller 11.  Value: 115
000001t:  Note on ::  Channel 5.  Note 58.  Velocity 92
000000t:  Control change ::  Channel 5.  Controller 11.  Value: 113
000001t:  Note on ::  Channel 5.  Note 61.  Velocity 98
000000t:  Note on ::  Channel 5.  Note 66.  Velocity 105
000000t:  Control change ::  Channel 5.  Controller 11.  Value: 111
000001t:  Control change ::  Channel 5.  Controller 11.  Value: 109
000001t:  Control change ::  Channel 5.  Controller 11.  Value: 108
000001t:  Control change ::  Channel 5.  Controller 11.  Value: 106
000001t:  Control change ::  Channel 5.  Controller 11.  Value: 105
000001t:  Control change ::  Channel 5.  Controller 11.  Value: 104
000001t:  Control change ::  Channel 5.  Controller 11.  Value: 103
000001t:  Control change ::  Channel 5.  Controller 11.  Value: 102
000001t:  Control change ::  Channel 5.  Controller 11.  Value: 101
000001t:  Control change ::  Channel 5.  Controller 11.  Value: 100
000001t:  Control change ::  Channel 5.  Controller 11.  Value: 99
000002t:  Control change ::  Channel 5.  Controller 11.  Value: 98
000001t:  Control change ::  Channel 5.  Controller 11.  Value: 97
000002t:  Control change ::  Channel 5.  Controller 11.  Value: 96
000001t:  Control change ::  Channel 5.  Controller 11.  Value: 95
000003t:  Control change ::  Channel 5.  Controller 11.  Value: 94
000002t:  Control change ::  Channel 5.  Controller 11.  Value: 93
000004t:  Control change ::  Channel 5.  Controller 11.  Value: 92
000005t:  Control change ::  Channel 5.  Controller 11.  Value: 91
000009t:  Control change ::  Channel 5.  Controller 11.  Value: 90
000023t:  Note on ::  Channel 5.  Note 66.  Velocity 0
000000t:  Note on ::  Channel 5.  Note 49.  Velocity 0
000000t:  Note on ::  Channel 5.  Note 54.  Velocity 0
000000t:  Note on ::  Channel 5.  Note 58.  Velocity 0
000000t:  Pitch wheel change ::  Channel 5.   -8192
000001t:  Note on ::  Channel 5.  Note 42.  Velocity 0
000000t:  Note on ::  Channel 5.  Note 61.  Velocity 0
000001t:  Pitch wheel change ::  Channel 5.   -8192
000002t:  Control change ::  Channel 5.  Controller 11.  Value: 120
000000t:  Note on ::  Channel 5.  Note 44.  Velocity 80
000000t:  Pitch wheel change ::  Channel 5.   -8192
000001t:  Note on ::  Channel 5.  Note 51.  Velocity 83
000000t:  Control change ::  Channel 5.  Controller 11.  Value: 116
000001t:  Note on ::  Channel 5.  Note 56.  Velocity 87
000000t:  Control change ::  Channel 5.  Controller 11.  Value: 113
000001t:  Note on ::  Channel 5.  Note 60.  Velocity 92
000000t:  Control change ::  Channel 5.  Controller 11.  Value: 111
000001t:  Note on ::  Channel 5.  Note 63.  Velocity 98
000000t:  Note on ::  Channel 5.  Note 68.  Velocity 105
000000t:  Control change ::  Channel 5.  Controller 11.  Value: 108
000001t:  Control change ::  Channel 5.  Controller 11.  Value: 106
000001t:  Control change ::  Channel 5.  Controller 11.  Value: 105
000001t:  Control change ::  Channel 5.  Controller 11.  Value: 103
000001t:  Control change ::  Channel 5.  Controller 11.  Value: 101
000001t:  Control change ::  Channel 5.  Controller 11.  Value: 100
000001t:  Control change ::  Channel 5.  Controller 11.  Value: 99
000001t:  Control change ::  Channel 5.  Controller 11.  Value: 98
000001t:  Control change ::  Channel 5.  Controller 11.  Value: 97
000001t:  Control change ::  Channel 5.  Controller 11.  Value: 96
000001t:  Control change ::  Channel 5.  Controller 11.  Value: 95
000002t:  Control change ::  Channel 5.  Controller 11.  Value: 94
000002t:  Control change ::  Channel 5.  Controller 11.  Value: 93
000002t:  Control change ::  Channel 5.  Controller 11.  Value: 92
000003t:  Control change ::  Channel 5.  Controller 11.  Value: 91
000006t:  Control change ::  Channel 5.  Controller 11.  Value: 90
000003t:  Note on ::  Channel 5.  Note 44.  Velocity 0
000001t:  Note on ::  Channel 5.  Note 63.  Velocity 0
000000t:  Note on ::  Channel 5.  Note 51.  Velocity 0
000000t:  Note on ::  Channel 5.  Note 56.  Velocity 0
000001t:  Note on ::  Channel 5.  Note 60.  Velocity 0
000000t:  Note on ::  Channel 5.  Note 68.  Velocity 0
000012t:  Pitch wheel change ::  Channel 5.   -8192
000001t:  Pitch wheel change ::  Channel 5.   -8192
000001t:  Control change ::  Channel 5.  Controller 11.  Value: 120
000000t:  Note on ::  Channel 5.  Note 49.  Velocity 80
000001t:  Note on ::  Channel 5.  Note 49.  Velocity 0
000000t:  Pitch wheel change ::  Channel 5.   -8192
000000t:  Note on ::  Channel 5.  Note 49.  Velocity 90
000000t:  Control change ::  Channel 5.  Controller 11.  Value: 113
000001t:  Note on ::  Channel 5.  Note 56.  Velocity 94
000000t:  Control change ::  Channel 5.  Controller 11.  Value: 108
000001t:  Note on ::  Channel 5.  Note 61.  Velocity 98
000000t:  Note on ::  Channel 5.  Note 65.  Velocity 105
000000t:  Control change ::  Channel 5.  Controller 11.  Value: 105
000001t:  Control change ::  Channel 5.  Controller 11.  Value: 102
000001t:  Control change ::  Channel 5.  Controller 11.  Value: 99
000001t:  Control change ::  Channel 5.  Controller 11.  Value: 97
000001t:  Control change ::  Channel 5.  Controller 11.  Value: 96
000001t:  Control change ::  Channel 5.  Controller 11.  Value: 95
000001t:  Control change ::  Channel 5.  Controller 11.  Value: 93
000002t:  Control change ::  Channel 5.  Controller 11.  Value: 92
000001t:  Control change ::  Channel 5.  Controller 11.  Value: 91
000004t:  Control change ::  Channel 5.  Controller 11.  Value: 90
000005t:  Note on ::  Channel 5.  Note 65.  Velocity 0
000000t:  Note on ::  Channel 5.  Note 61.  Velocity 0
000001t:  Note on ::  Channel 5.  Note 56.  Velocity 0
000000t:  Note on ::  Channel 5.  Note 49.  Velocity 0
000003t:  Control change ::  Channel 5.  Controller 11.  Value: 120
000000t:  Note on ::  Channel 5.  Note 49.  Velocity 94
000001t:  Note on ::  Channel 5.  Note 56.  Velocity 97
000000t:  Control change ::  Channel 5.  Controller 11.  Value: 117
000001t:  Note on ::  Channel 5.  Note 61.  Velocity 101
000000t:  Note on ::  Channel 5.  Note 85.  Velocity 22
000000t:  Note on ::  Channel 5.  Note 65.  Velocity 106
000000t:  Control change ::  Channel 5.  Controller 11.  Value: 115
000001t:  Control change ::  Channel 5.  Controller 11.  Value: 114
000001t:  Control change ::  Channel 5.  Controller 11.  Value: 112
000001t:  Control change ::  Channel 5.  Controller 11.  Value: 111
000001t:  Control change ::  Channel 5.  Controller 11.  Value: 109
000001t:  Control change ::  Channel 5.  Controller 11.  Value: 108
000001t:  Control change ::  Channel 5.  Controller 11.  Value: 107
000001t:  Control change ::  Channel 5.  Controller 11.  Value: 106
000001t:  Control change ::  Channel 5.  Controller 11.  Value: 105
000001t:  Control change ::  Channel 5.  Controller 11.  Value: 104
000001t:  Control change ::  Channel 5.  Controller 11.  Value: 103
000001t:  Control change ::  Channel 5.  Controller 11.  Value: 102
000001t:  Control change ::  Channel 5.  Controller 11.  Value: 101
000001t:  Control change ::  Channel 5.  Controller 11.  Value: 100
000002t:  Control change ::  Channel 5.  Controller 11.  Value: 99
000001t:  Control change ::  Channel 5.  Controller 11.  Value: 98
000002t:  Control change ::  Channel 5.  Controller 11.  Value: 97
000002t:  Control change ::  Channel 5.  Controller 11.  Value: 96
000002t:  Control change ::  Channel 5.  Controller 11.  Value: 95
000003t:  Control change ::  Channel 5.  Controller 11.  Value: 94
000003t:  Control change ::  Channel 5.  Controller 11.  Value: 93
000005t:  Control change ::  Channel 5.  Controller 11.  Value: 92
000005t:  Control change ::  Channel 5.  Controller 11.  Value: 91
000010t:  Control change ::  Channel 5.  Controller 11.  Value: 90
000124t:  Note on ::  Channel 5.  Note 56.  Velocity 0
000006t:  Note on ::  Channel 5.  Note 65.  Velocity 0
000006t:  Note on ::  Channel 5.  Note 49.  Velocity 0
000006t:  Note on ::  Channel 5.  Note 61.  Velocity 0
000000t:  Note on ::  Channel 5.  Note 85.  Velocity 0
000000t:  Control change ::  Channel 5.  Controller 11.  Value: 120
000000t:  Note on ::  Channel 5.  Note 44.  Velocity 80
000001t:  Note on ::  Channel 5.  Note 51.  Velocity 83
000000t:  Control change ::  Channel 5.  Controller 11.  Value: 117
000001t:  Note on ::  Channel 5.  Note 56.  Velocity 87
000000t:  Control change ::  Channel 5.  Controller 11.  Value: 115
000001t:  Note on ::  Channel 5.  Note 60.  Velocity 92
000000t:  Control change ::  Channel 5.  Controller 11.  Value: 113
000001t:  Note on ::  Channel 5.  Note 63.  Velocity 98
000000t:  Note on ::  Channel 5.  Note 68.  Velocity 105
000000t:  Control change ::  Channel 5.  Controller 11.  Value: 111
000001t:  Control change ::  Channel 5.  Controller 11.  Value: 109
000001t:  Control change ::  Channel 5.  Controller 11.  Value: 108
000001t:  Control change ::  Channel 5.  Controller 11.  Value: 106
000001t:  Control change ::  Channel 5.  Controller 11.  Value: 105
000001t:  Control change ::  Channel 5.  Controller 11.  Value: 104
000001t:  Control change ::  Channel 5.  Controller 11.  Value: 103
000001t:  Control change ::  Channel 5.  Controller 11.  Value: 102
000001t:  Control change ::  Channel 5.  Controller 11.  Value: 101
000001t:  Control change ::  Channel 5.  Controller 11.  Value: 100
000001t:  Control change ::  Channel 5.  Controller 11.  Value: 99
000002t:  Control change ::  Channel 5.  Controller 11.  Value: 98
000001t:  Control change ::  Channel 5.  Controller 11.  Value: 97
000002t:  Control change ::  Channel 5.  Controller 11.  Value: 96
000001t:  Control change ::  Channel 5.  Controller 11.  Value: 95
000003t:  Control change ::  Channel 5.  Controller 11.  Value: 94
000002t:  Control change ::  Channel 5.  Controller 11.  Value: 93
000004t:  Control change ::  Channel 5.  Controller 11.  Value: 92
000005t:  Control change ::  Channel 5.  Controller 11.  Value: 91
000009t:  Control change ::  Channel 5.  Controller 11.  Value: 90
000023t:  Pitch wheel change ::  Channel 5.   -8192
000002t:  Note on ::  Channel 5.  Note 68.  Velocity 0
000000t:  Note on ::  Channel 5.  Note 44.  Velocity 0
000000t:  Pitch wheel change ::  Channel 5.   -8192
000001t:  Note on ::  Channel 5.  Note 60.  Velocity 0
000000t:  Note on ::  Channel 5.  Note 51.  Velocity 0
000000t:  Note on ::  Channel 5.  Note 56.  Velocity 0
000000t:  Note on ::  Channel 5.  Note 63.  Velocity 0
000003t:  Control change ::  Channel 5.  Controller 11.  Value: 120
000000t:  Note on ::  Channel 5.  Note 46.  Velocity 70
000001t:  Note on ::  Channel 5.  Note 46.  Velocity 0
000000t:  Pitch wheel change ::  Channel 5.   -8192
000000t:  Note on ::  Channel 5.  Note 46.  Velocity 80
000000t:  Control change ::  Channel 5.  Controller 11.  Value: 117
000001t:  Note on ::  Channel 5.  Note 53.  Velocity 83
000000t:  Control change ::  Channel 5.  Controller 11.  Value: 115
000001t:  Note on ::  Channel 5.  Note 58.  Velocity 87
000000t:  Control change ::  Channel 5.  Controller 11.  Value: 113
000001t:  Note on ::  Channel 5.  Note 61.  Velocity 92
000000t:  Control change ::  Channel 5.  Controller 11.  Value: 111
000001t:  Note on ::  Channel 5.  Note 65.  Velocity 98
000000t:  Note on ::  Channel 5.  Note 70.  Velocity 104
000000t:  Control change ::  Channel 5.  Controller 11.  Value: 109
000001t:  Control change ::  Channel 5.  Controller 11.  Value: 108
000001t:  Control change ::  Channel 5.  Controller 11.  Value: 106
000001t:  Control change ::  Channel 5.  Controller 11.  Value: 105
000001t:  Control change ::  Channel 5.  Controller 11.  Value: 104
000001t:  Control change ::  Channel 5.  Controller 11.  Value: 103
000001t:  Control change ::  Channel 5.  Controller 11.  Value: 102
000001t:  Control change ::  Channel 5.  Controller 11.  Value: 101
000001t:  Control change ::  Channel 5.  Controller 11.  Value: 100
000001t:  Control change ::  Channel 5.  Controller 11.  Value: 99
000002t:  Control change ::  Channel 5.  Controller 11.  Value: 98
000001t:  Control change ::  Channel 5.  Controller 11.  Value: 97
000002t:  Control change ::  Channel 5.  Controller 11.  Value: 96
000001t:  Control change ::  Channel 5.  Controller 11.  Value: 95
000003t:  Control change ::  Channel 5.  Controller 11.  Value: 94
000002t:  Control change ::  Channel 5.  Controller 11.  Value: 93
000004t:  Control change ::  Channel 5.  Controller 11.  Value: 92
000005t:  Control change ::  Channel 5.  Controller 11.  Value: 91
000009t:  Control change ::  Channel 5.  Controller 11.  Value: 90
000025t:  Pitch wheel change ::  Channel 5.   -8192
000001t:  Note on ::  Channel 5.  Note 65.  Velocity 0
000000t:  Note on ::  Channel 5.  Note 46.  Velocity 0
000001t:  Note on ::  Channel 5.  Note 61.  Velocity 0
000000t:  Note on ::  Channel 5.  Note 53.  Velocity 0
000000t:  Note on ::  Channel 5.  Note 70.  Velocity 0
000000t:  Note on ::  Channel 5.  Note 58.  Velocity 0
000000t:  Pitch wheel change ::  Channel 5.   -8192
000002t:  Note on ::  Channel 5.  Note 42.  Velocity 60
000001t:  Note on ::  Channel 5.  Note 42.  Velocity 0
000000t:  Pitch wheel change ::  Channel 5.   -8192
000000t:  Control change ::  Channel 5.  Controller 11.  Value: 120
000000t:  Note on ::  Channel 5.  Note 42.  Velocity 80
000001t:  Note on ::  Channel 5.  Note 49.  Velocity 83
000000t:  Control change ::  Channel 5.  Controller 11.  Value: 117
000001t:  Note on ::  Channel 5.  Note 54.  Velocity 87
000000t:  Control change ::  Channel 5.  Controller 11.  Value: 115
000001t:  Note on ::  Channel 5.  Note 58.  Velocity 92
000000t:  Control change ::  Channel 5.  Controller 11.  Value: 113
000001t:  Note on ::  Channel 5.  Note 61.  Velocity 98
000000t:  Note on ::  Channel 5.  Note 66.  Velocity 105
000000t:  Control change ::  Channel 5.  Controller 11.  Value: 111
000001t:  Control change ::  Channel 5.  Controller 11.  Value: 109
000001t:  Control change ::  Channel 5.  Controller 11.  Value: 108
000001t:  Control change ::  Channel 5.  Controller 11.  Value: 106
000001t:  Control change ::  Channel 5.  Controller 11.  Value: 105
000001t:  Control change ::  Channel 5.  Controller 11.  Value: 104
000001t:  Control change ::  Channel 5.  Controller 11.  Value: 103
000001t:  Control change ::  Channel 5.  Controller 11.  Value: 102
000001t:  Control change ::  Channel 5.  Controller 11.  Value: 101
000001t:  Control change ::  Channel 5.  Controller 11.  Value: 100
000001t:  Control change ::  Channel 5.  Controller 11.  Value: 99
000002t:  Control change ::  Channel 5.  Controller 11.  Value: 98
000001t:  Control change ::  Channel 5.  Controller 11.  Value: 97
000002t:  Control change ::  Channel 5.  Controller 11.  Value: 96
000001t:  Control change ::  Channel 5.  Controller 11.  Value: 95
000003t:  Control change ::  Channel 5.  Controller 11.  Value: 94
000002t:  Control change ::  Channel 5.  Controller 11.  Value: 93
000004t:  Control change ::  Channel 5.  Controller 11.  Value: 92
000005t:  Control change ::  Channel 5.  Controller 11.  Value: 91
000009t:  Control change ::  Channel 5.  Controller 11.  Value: 90
000024t:  Note on ::  Channel 5.  Note 58.  Velocity 0
000000t:  Pitch wheel change ::  Channel 5.   -8192
000001t:  Note on ::  Channel 5.  Note 42.  Velocity 0
000000t:  Note on ::  Channel 5.  Note 66.  Velocity 0
000001t:  Note on ::  Channel 5.  Note 49.  Velocity 0
000000t:  Note on ::  Channel 5.  Note 61.  Velocity 0
000000t:  Note on ::  Channel 5.  Note 54.  Velocity 0
000000t:  Pitch wheel change ::  Channel 5.   -8192
000002t:  Control change ::  Channel 5.  Controller 11.  Value: 120
000000t:  Note on ::  Channel 5.  Note 44.  Velocity 68
000001t:  Note on ::  Channel 5.  Note 44.  Velocity 0
000000t:  Pitch wheel change ::  Channel 5.   -8192
000000t:  Note on ::  Channel 5.  Note 44.  Velocity 80
000000t:  Control change ::  Channel 5.  Controller 11.  Value: 116
000001t:  Note on ::  Channel 5.  Note 51.  Velocity 83
000000t:  Control change ::  Channel 5.  Controller 11.  Value: 113
000001t:  Note on ::  Channel 5.  Note 56.  Velocity 87
000000t:  Control change ::  Channel 5.  Controller 11.  Value: 111
000001t:  Note on ::  Channel 5.  Note 60.  Velocity 92
000000t:  Control change ::  Channel 5.  Controller 11.  Value: 108
000001t:  Note on ::  Channel 5.  Note 63.  Velocity 98
000000t:  Note on ::  Channel 5.  Note 68.  Velocity 105
000000t:  Control change ::  Channel 5.  Controller 11.  Value: 106
000001t:  Control change ::  Channel 5.  Controller 11.  Value: 105
000001t:  Control change ::  Channel 5.  Controller 11.  Value: 103
000001t:  Control change ::  Channel 5.  Controller 11.  Value: 101
000001t:  Control change ::  Channel 5.  Controller 11.  Value: 100
000001t:  Control change ::  Channel 5.  Controller 11.  Value: 99
000001t:  Control change ::  Channel 5.  Controller 11.  Value: 98
000001t:  Control change ::  Channel 5.  Controller 11.  Value: 97
000001t:  Control change ::  Channel 5.  Controller 11.  Value: 96
000001t:  Control change ::  Channel 5.  Controller 11.  Value: 95
000002t:  Control change ::  Channel 5.  Controller 11.  Value: 94
000002t:  Control change ::  Channel 5.  Controller 11.  Value: 93
000002t:  Control change ::  Channel 5.  Controller 11.  Value: 92
000003t:  Control change ::  Channel 5.  Controller 11.  Value: 91
000006t:  Control change ::  Channel 5.  Controller 11.  Value: 90
000003t:  Note on ::  Channel 5.  Note 68.  Velocity 0
000000t:  Note on ::  Channel 5.  Note 51.  Velocity 0
000000t:  Note on ::  Channel 5.  Note 44.  Velocity 0
000000t:  Note on ::  Channel 5.  Note 60.  Velocity 0
000001t:  Note on ::  Channel 5.  Note 56.  Velocity 0
000000t:  Note on ::  Channel 5.  Note 63.  Velocity 0
000015t:  Control change ::  Channel 5.  Controller 11.  Value: 120
000000t:  Note on ::  Channel 5.  Note 49.  Velocity 90
000001t:  Note on ::  Channel 5.  Note 56.  Velocity 93
000000t:  Control change ::  Channel 5.  Controller 11.  Value: 113
000001t:  Note on ::  Channel 5.  Note 61.  Velocity 97
000000t:  Note on ::  Channel 5.  Note 65.  Velocity 104
000000t:  Control change ::  Channel 5.  Controller 11.  Value: 108
000001t:  Control change ::  Channel 5.  Controller 11.  Value: 105
000001t:  Control change ::  Channel 5.  Controller 11.  Value: 101
000001t:  Control change ::  Channel 5.  Controller 11.  Value: 99
000001t:  Control change ::  Channel 5.  Controller 11.  Value: 97
000001t:  Control change ::  Channel 5.  Controller 11.  Value: 95
000001t:  Control change ::  Channel 5.  Controller 11.  Value: 94
000001t:  Control change ::  Channel 5.  Controller 11.  Value: 93
000001t:  Control change ::  Channel 5.  Controller 11.  Value: 92
000002t:  Control change ::  Channel 5.  Controller 11.  Value: 91
000003t:  Control change ::  Channel 5.  Controller 11.  Value: 90
000007t:  Note on ::  Channel 5.  Note 61.  Velocity 0
000000t:  Note on ::  Channel 5.  Note 49.  Velocity 0
000000t:  Note on ::  Channel 5.  Note 56.  Velocity 0
000001t:  Note on ::  Channel 5.  Note 65.  Velocity 0
000001t:  Control change ::  Channel 5.  Controller 11.  Value: 120
000000t:  Note on ::  Channel 5.  Note 49.  Velocity 90
000001t:  Note on ::  Channel 5.  Note 56.  Velocity 93
000000t:  Control change ::  Channel 5.  Controller 11.  Value: 117
000001t:  Note on ::  Channel 5.  Note 61.  Velocity 97
000000t:  Note on ::  Channel 5.  Note 85.  Velocity 28
000000t:  Note on ::  Channel 5.  Note 65.  Velocity 104
000000t:  Control change ::  Channel 5.  Controller 11.  Value: 115
000001t:  Control change ::  Channel 5.  Controller 11.  Value: 114
000001t:  Control change ::  Channel 5.  Controller 11.  Value: 112
000001t:  Control change ::  Channel 5.  Controller 11.  Value: 111
000001t:  Control change ::  Channel 5.  Controller 11.  Value: 109
000001t:  Control change ::  Channel 5.  Controller 11.  Value: 108
000001t:  Control change ::  Channel 5.  Controller 11.  Value: 107
000001t:  Control change ::  Channel 5.  Controller 11.  Value: 106
000001t:  Control change ::  Channel 5.  Controller 11.  Value: 105
000001t:  Control change ::  Channel 5.  Controller 11.  Value: 104
000001t:  Control change ::  Channel 5.  Controller 11.  Value: 103
000001t:  Control change ::  Channel 5.  Controller 11.  Value: 102
000001t:  Control change ::  Channel 5.  Controller 11.  Value: 101
000001t:  Control change ::  Channel 5.  Controller 11.  Value: 100
000002t:  Control change ::  Channel 5.  Controller 11.  Value: 99
000001t:  Control change ::  Channel 5.  Controller 11.  Value: 98
000002t:  Control change ::  Channel 5.  Controller 11.  Value: 97
000002t:  Control change ::  Channel 5.  Controller 11.  Value: 96
000002t:  Control change ::  Channel 5.  Controller 11.  Value: 95
000003t:  Control change ::  Channel 5.  Controller 11.  Value: 94
000003t:  Control change ::  Channel 5.  Controller 11.  Value: 93
000005t:  Control change ::  Channel 5.  Controller 11.  Value: 92
000005t:  Control change ::  Channel 5.  Controller 11.  Value: 91
000010t:  Control change ::  Channel 5.  Controller 11.  Value: 90
000124t:  Note on ::  Channel 5.  Note 56.  Velocity 0
000005t:  Note on ::  Channel 5.  Note 65.  Velocity 0
000007t:  Note on ::  Channel 5.  Note 49.  Velocity 0
000006t:  Note on ::  Channel 5.  Note 61.  Velocity 0
000000t:  Note on ::  Channel 5.  Note 85.  Velocity 0
000000t:  Control change ::  Channel 5.  Controller 11.  Value: 120
000000t:  Note on ::  Channel 5.  Note 44.  Velocity 80
000001t:  Note on ::  Channel 5.  Note 51.  Velocity 83
000000t:  Control change ::  Channel 5.  Controller 11.  Value: 117
000001t:  Note on ::  Channel 5.  Note 56.  Velocity 87
000000t:  Control change ::  Channel 5.  Controller 11.  Value: 115
000001t:  Note on ::  Channel 5.  Note 60.  Velocity 92
000000t:  Control change ::  Channel 5.  Controller 11.  Value: 113
000001t:  Note on ::  Channel 5.  Note 63.  Velocity 98
000000t:  Note on ::  Channel 5.  Note 68.  Velocity 105
000000t:  Control change ::  Channel 5.  Controller 11.  Value: 111
000001t:  Control change ::  Channel 5.  Controller 11.  Value: 109
000001t:  Control change ::  Channel 5.  Controller 11.  Value: 108
000001t:  Control change ::  Channel 5.  Controller 11.  Value: 106
000001t:  Control change ::  Channel 5.  Controller 11.  Value: 105
000001t:  Control change ::  Channel 5.  Controller 11.  Value: 104
000001t:  Control change ::  Channel 5.  Controller 11.  Value: 103
000001t:  Control change ::  Channel 5.  Controller 11.  Value: 102
000001t:  Control change ::  Channel 5.  Controller 11.  Value: 101
000001t:  Control change ::  Channel 5.  Controller 11.  Value: 100
000001t:  Control change ::  Channel 5.  Controller 11.  Value: 99
000002t:  Control change ::  Channel 5.  Controller 11.  Value: 98
000001t:  Control change ::  Channel 5.  Controller 11.  Value: 97
000002t:  Control change ::  Channel 5.  Controller 11.  Value: 96
000001t:  Control change ::  Channel 5.  Controller 11.  Value: 95
000003t:  Control change ::  Channel 5.  Controller 11.  Value: 94
000002t:  Control change ::  Channel 5.  Controller 11.  Value: 93
000004t:  Control change ::  Channel 5.  Controller 11.  Value: 92
000005t:  Control change ::  Channel 5.  Controller 11.  Value: 91
000009t:  Control change ::  Channel 5.  Controller 11.  Value: 90
000022t:  Pitch wheel change ::  Channel 5.   -8192
000002t:  Note on ::  Channel 5.  Note 60.  Velocity 0
000000t:  Pitch wheel change ::  Channel 5.   -8192
000001t:  Note on ::  Channel 5.  Note 44.  Velocity 0
000000t:  Note on ::  Channel 5.  Note 56.  Velocity 0
000000t:  Note on ::  Channel 5.  Note 68.  Velocity 0
000001t:  Note on ::  Channel 5.  Note 51.  Velocity 0
000000t:  Note on ::  Channel 5.  Note 63.  Velocity 0
000003t:  Control change ::  Channel 5.  Controller 11.  Value: 120
000000t:  Note on ::  Channel 5.  Note 46.  Velocity 60
000001t:  Note on ::  Channel 5.  Note 46.  Velocity 0
000000t:  Pitch wheel change ::  Channel 5.   -8192
000000t:  Note on ::  Channel 5.  Note 46.  Velocity 80
000000t:  Control change ::  Channel 5.  Controller 11.  Value: 117
000001t:  Note on ::  Channel 5.  Note 53.  Velocity 83
000000t:  Control change ::  Channel 5.  Controller 11.  Value: 115
000001t:  Note on ::  Channel 5.  Note 58.  Velocity 87
000000t:  Control change ::  Channel 5.  Controller 11.  Value: 113
000001t:  Note on ::  Channel 5.  Note 61.  Velocity 92
000000t:  Control change ::  Channel 5.  Controller 11.  Value: 111
000001t:  Note on ::  Channel 5.  Note 65.  Velocity 98
000000t:  Note on ::  Channel 5.  Note 70.  Velocity 105
000000t:  Control change ::  Channel 5.  Controller 11.  Value: 109
000001t:  Control change ::  Channel 5.  Controller 11.  Value: 108
000001t:  Control change ::  Channel 5.  Controller 11.  Value: 106
000001t:  Control change ::  Channel 5.  Controller 11.  Value: 105
000001t:  Control change ::  Channel 5.  Controller 11.  Value: 104
000001t:  Control change ::  Channel 5.  Controller 11.  Value: 103
000001t:  Control change ::  Channel 5.  Controller 11.  Value: 102
000001t:  Control change ::  Channel 5.  Controller 11.  Value: 101
000001t:  Control change ::  Channel 5.  Controller 11.  Value: 100
000001t:  Control change ::  Channel 5.  Controller 11.  Value: 99
000002t:  Control change ::  Channel 5.  Controller 11.  Value: 98
000001t:  Control change ::  Channel 5.  Controller 11.  Value: 97
000002t:  Control change ::  Channel 5.  Controller 11.  Value: 96
000001t:  Control change ::  Channel 5.  Controller 11.  Value: 95
000003t:  Control change ::  Channel 5.  Controller 11.  Value: 94
000002t:  Control change ::  Channel 5.  Controller 11.  Value: 93
000004t:  Control change ::  Channel 5.  Controller 11.  Value: 92
000005t:  Control change ::  Channel 5.  Controller 11.  Value: 91
000009t:  Control change ::  Channel 5.  Controller 11.  Value: 90
000022t:  Pitch wheel change ::  Channel 5.   -8192
000002t:  Pitch wheel change ::  Channel 5.   -8192
000002t:  Note on ::  Channel 5.  Note 46.  Velocity 0
000001t:  Note on ::  Channel 5.  Note 58.  Velocity 0
000000t:  Note on ::  Channel 5.  Note 61.  Velocity 0
000000t:  Note on ::  Channel 5.  Note 53.  Velocity 0
000000t:  Note on ::  Channel 5.  Note 70.  Velocity 0
000000t:  Note on ::  Channel 5.  Note 65.  Velocity 0
000003t:  Control change ::  Channel 5.  Controller 11.  Value: 120
000000t:  Note on ::  Channel 5.  Note 42.  Velocity 68
000001t:  Note on ::  Channel 5.  Note 42.  Velocity 0
000000t:  Pitch wheel change ::  Channel 5.   -8192
000000t:  Note on ::  Channel 5.  Note 42.  Velocity 80
000000t:  Control change ::  Channel 5.  Controller 11.  Value: 117
000001t:  Note on ::  Channel 5.  Note 49.  Velocity 83
000000t:  Control change ::  Channel 5.  Controller 11.  Value: 115
000001t:  Note on ::  Channel 5.  Note 54.  Velocity 87
000000t:  Control change ::  Channel 5.  Controller 11.  Value: 113
000001t:  Note on ::  Channel 5.  Note 58.  Velocity 92
000000t:  Control change ::  Channel 5.  Controller 11.  Value: 111
000001t:  Note on ::  Channel 5.  Note 61.  Velocity 98
000000t:  Note on ::  Channel 5.  Note 66.  Velocity 105
000000t:  Control change ::  Channel 5.  Controller 11.  Value: 109
000001t:  Control change ::  Channel 5.  Controller 11.  Value: 108
000001t:  Control change ::  Channel 5.  Controller 11.  Value: 106
000001t:  Control change ::  Channel 5.  Controller 11.  Value: 105
000001t:  Control change ::  Channel 5.  Controller 11.  Value: 104
000001t:  Control change ::  Channel 5.  Controller 11.  Value: 103
000001t:  Control change ::  Channel 5.  Controller 11.  Value: 102
000001t:  Control change ::  Channel 5.  Controller 11.  Value: 101
000001t:  Control change ::  Channel 5.  Controller 11.  Value: 100
000001t:  Control change ::  Channel 5.  Controller 11.  Value: 99
000002t:  Control change ::  Channel 5.  Controller 11.  Value: 98
000001t:  Control change ::  Channel 5.  Controller 11.  Value: 97
000002t:  Control change ::  Channel 5.  Controller 11.  Value: 96
000001t:  Control change ::  Channel 5.  Controller 11.  Value: 95
000003t:  Control change ::  Channel 5.  Controller 11.  Value: 94
000002t:  Control change ::  Channel 5.  Controller 11.  Value: 93
000004t:  Control change ::  Channel 5.  Controller 11.  Value: 92
000005t:  Control change ::  Channel 5.  Controller 11.  Value: 91
000009t:  Control change ::  Channel 5.  Controller 11.  Value: 90
000020t:  Pitch wheel change ::  Channel 5.   -8192
000002t:  Pitch wheel change ::  Channel 5.   -8192
000003t:  Note on ::  Channel 5.  Note 58.  Velocity 0
000000t:  Note on ::  Channel 5.  Note 54.  Velocity 0
000000t:  Note on ::  Channel 5.  Note 49.  Velocity 0
000001t:  Note on ::  Channel 5.  Note 42.  Velocity 0
000000t:  Note on ::  Channel 5.  Note 61.  Velocity 0
000000t:  Note on ::  Channel 5.  Note 66.  Velocity 0
000002t:  Note on ::  Channel 5.  Note 44.  Velocity 72
000001t:  Note on ::  Channel 5.  Note 44.  Velocity 0
000000t:  Pitch wheel change ::  Channel 5.   -8192
000000t:  Control change ::  Channel 5.  Controller 11.  Value: 120
000000t:  Note on ::  Channel 5.  Note 44.  Velocity 80
000001t:  Note on ::  Channel 5.  Note 51.  Velocity 83
000000t:  Control change ::  Channel 5.  Controller 11.  Value: 116
000001t:  Note on ::  Channel 5.  Note 56.  Velocity 87
000000t:  Control change ::  Channel 5.  Controller 11.  Value: 113
000001t:  Note on ::  Channel 5.  Note 60.  Velocity 92
000000t:  Control change ::  Channel 5.  Controller 11.  Value: 110
000001t:  Note on ::  Channel 5.  Note 63.  Velocity 98
000000t:  Note on ::  Channel 5.  Note 68.  Velocity 105
000000t:  Control change ::  Channel 5.  Controller 11.  Value: 108
000001t:  Control change ::  Channel 5.  Controller 11.  Value: 106
000001t:  Control change ::  Channel 5.  Controller 11.  Value: 104
000001t:  Control change ::  Channel 5.  Controller 11.  Value: 102
000001t:  Control change ::  Channel 5.  Controller 11.  Value: 101
000001t:  Control change ::  Channel 5.  Controller 11.  Value: 100
000001t:  Control change ::  Channel 5.  Controller 11.  Value: 99
000001t:  Control change ::  Channel 5.  Controller 11.  Value: 98
000001t:  Control change ::  Channel 5.  Controller 11.  Value: 97
000001t:  Control change ::  Channel 5.  Controller 11.  Value: 96
000001t:  Control change ::  Channel 5.  Controller 11.  Value: 95
000002t:  Control change ::  Channel 5.  Controller 11.  Value: 94
000001t:  Control change ::  Channel 5.  Controller 11.  Value: 93
000003t:  Control change ::  Channel 5.  Controller 11.  Value: 92
000003t:  Control change ::  Channel 5.  Controller 11.  Value: 91
000006t:  Control change ::  Channel 5.  Controller 11.  Value: 90
000003t:  Note on ::  Channel 5.  Note 68.  Velocity 0
000000t:  Note on ::  Channel 5.  Note 51.  Velocity 0
000000t:  Note on ::  Channel 5.  Note 56.  Velocity 0
000000t:  Note on ::  Channel 5.  Note 44.  Velocity 0
000000t:  Note on ::  Channel 5.  Note 60.  Velocity 0
000001t:  Note on ::  Channel 5.  Note 63.  Velocity 0
000014t:  Control change ::  Channel 5.  Controller 11.  Value: 120
000000t:  Note on ::  Channel 5.  Note 49.  Velocity 90
000001t:  Note on ::  Channel 5.  Note 56.  Velocity 94
000000t:  Control change ::  Channel 5.  Controller 11.  Value: 113
000001t:  Note on ::  Channel 5.  Note 61.  Velocity 99
000000t:  Note on ::  Channel 5.  Note 65.  Velocity 105
000000t:  Control change ::  Channel 5.  Controller 11.  Value: 108
000001t:  Control change ::  Channel 5.  Controller 11.  Value: 105
000001t:  Control change ::  Channel 5.  Controller 11.  Value: 101
000001t:  Control change ::  Channel 5.  Controller 11.  Value: 99
000001t:  Control change ::  Channel 5.  Controller 11.  Value: 97
000001t:  Control change ::  Channel 5.  Controller 11.  Value: 95
000001t:  Control change ::  Channel 5.  Controller 11.  Value: 94
000001t:  Control change ::  Channel 5.  Controller 11.  Value: 93
000001t:  Control change ::  Channel 5.  Controller 11.  Value: 92
000002t:  Control change ::  Channel 5.  Controller 11.  Value: 91
000003t:  Control change ::  Channel 5.  Controller 11.  Value: 90
000006t:  Note on ::  Channel 5.  Note 61.  Velocity 0
000000t:  Note on ::  Channel 5.  Note 56.  Velocity 0
000001t:  Note on ::  Channel 5.  Note 49.  Velocity 0
000000t:  Note on ::  Channel 5.  Note 65.  Velocity 0
000002t:  Control change ::  Channel 5.  Controller 11.  Value: 120
000000t:  Note on ::  Channel 5.  Note 49.  Velocity 90
000001t:  Note on ::  Channel 5.  Note 56.  Velocity 94
000000t:  Control change ::  Channel 5.  Controller 11.  Value: 118
000001t:  Note on ::  Channel 5.  Note 61.  Velocity 99
000000t:  Note on ::  Channel 5.  Note 85.  Velocity 26
000000t:  Note on ::  Channel 5.  Note 65.  Velocity 105
000000t:  Control change ::  Channel 5.  Controller 11.  Value: 116
000001t:  Control change ::  Channel 5.  Controller 11.  Value: 114
000001t:  Control change ::  Channel 5.  Controller 11.  Value: 113
000001t:  Control change ::  Channel 5.  Controller 11.  Value: 112
000001t:  Control change ::  Channel 5.  Controller 11.  Value: 110
000001t:  Control change ::  Channel 5.  Controller 11.  Value: 109
000001t:  Control change ::  Channel 5.  Controller 11.  Value: 108
000001t:  Control change ::  Channel 5.  Controller 11.  Value: 106
000002t:  Control change ::  Channel 5.  Controller 11.  Value: 105
000001t:  Control change ::  Channel 5.  Controller 11.  Value: 104
000001t:  Control change ::  Channel 5.  Controller 11.  Value: 103
000001t:  Control change ::  Channel 5.  Controller 11.  Value: 102
000002t:  Control change ::  Channel 5.  Controller 11.  Value: 101
000001t:  Control change ::  Channel 5.  Controller 11.  Value: 100
000001t:  Control change ::  Channel 5.  Controller 11.  Value: 99
000002t:  Control change ::  Channel 5.  Controller 11.  Value: 98
000002t:  Control change ::  Channel 5.  Controller 11.  Value: 97
000002t:  Control change ::  Channel 5.  Controller 11.  Value: 96
000003t:  Control change ::  Channel 5.  Controller 11.  Value: 95
000003t:  Control change ::  Channel 5.  Controller 11.  Value: 94
000003t:  Control change ::  Channel 5.  Controller 11.  Value: 93
000005t:  Control change ::  Channel 5.  Controller 11.  Value: 92
000006t:  Control change ::  Channel 5.  Controller 11.  Value: 91
000012t:  Control change ::  Channel 5.  Controller 11.  Value: 90
000119t:  Note on ::  Channel 5.  Note 56.  Velocity 0
000005t:  Note on ::  Channel 5.  Note 65.  Velocity 0
000006t:  Note on ::  Channel 5.  Note 49.  Velocity 0
000006t:  Note on ::  Channel 5.  Note 61.  Velocity 0
000000t:  Note on ::  Channel 5.  Note 85.  Velocity 0
000000t:  Control change ::  Channel 5.  Controller 11.  Value: 120
000000t:  Note on ::  Channel 5.  Note 44.  Velocity 80
000001t:  Note on ::  Channel 5.  Note 51.  Velocity 83
000000t:  Control change ::  Channel 5.  Controller 11.  Value: 117
000001t:  Note on ::  Channel 5.  Note 56.  Velocity 87
000000t:  Control change ::  Channel 5.  Controller 11.  Value: 115
000001t:  Note on ::  Channel 5.  Note 60.  Velocity 92
000000t:  Control change ::  Channel 5.  Controller 11.  Value: 113
000001t:  Note on ::  Channel 5.  Note 63.  Velocity 98
000000t:  Note on ::  Channel 5.  Note 68.  Velocity 105
000000t:  Control change ::  Channel 5.  Controller 11.  Value: 111
000001t:  Control change ::  Channel 5.  Controller 11.  Value: 109
000001t:  Control change ::  Channel 5.  Controller 11.  Value: 108
000001t:  Control change ::  Channel 5.  Controller 11.  Value: 106
000001t:  Control change ::  Channel 5.  Controller 11.  Value: 105
000001t:  Control change ::  Channel 5.  Controller 11.  Value: 104
000001t:  Control change ::  Channel 5.  Controller 11.  Value: 103
000001t:  Control change ::  Channel 5.  Controller 11.  Value: 102
000001t:  Control change ::  Channel 5.  Controller 11.  Value: 101
000001t:  Control change ::  Channel 5.  Controller 11.  Value: 100
000001t:  Control change ::  Channel 5.  Controller 11.  Value: 99
000002t:  Control change ::  Channel 5.  Controller 11.  Value: 98
000001t:  Control change ::  Channel 5.  Controller 11.  Value: 97
000002t:  Control change ::  Channel 5.  Controller 11.  Value: 96
000001t:  Control change ::  Channel 5.  Controller 11.  Value: 95
000003t:  Control change ::  Channel 5.  Controller 11.  Value: 94
000002t:  Control change ::  Channel 5.  Controller 11.  Value: 93
000004t:  Control change ::  Channel 5.  Controller 11.  Value: 92
000005t:  Control change ::  Channel 5.  Controller 11.  Value: 91
000009t:  Control change ::  Channel 5.  Controller 11.  Value: 90
000021t:  Pitch wheel change ::  Channel 5.   -8192
000002t:  Pitch wheel change ::  Channel 5.   -8192
000002t:  Note on ::  Channel 5.  Note 44.  Velocity 0
000001t:  Note on ::  Channel 5.  Note 51.  Velocity 0
000001t:  Note on ::  Channel 5.  Note 63.  Velocity 0
000000t:  Note on ::  Channel 5.  Note 60.  Velocity 0
000000t:  Note on ::  Channel 5.  Note 68.  Velocity 0
000000t:  Note on ::  Channel 5.  Note 56.  Velocity 0
000002t:  Control change ::  Channel 5.  Controller 11.  Value: 120
000000t:  Note on ::  Channel 5.  Note 46.  Velocity 70
000001t:  Note on ::  Channel 5.  Note 46.  Velocity 0
000000t:  Pitch wheel change ::  Channel 5.   -8192
000000t:  Note on ::  Channel 5.  Note 46.  Velocity 80
000000t:  Control change ::  Channel 5.  Controller 11.  Value: 117
000001t:  Note on ::  Channel 5.  Note 53.  Velocity 83
000000t:  Control change ::  Channel 5.  Controller 11.  Value: 115
000001t:  Note on ::  Channel 5.  Note 58.  Velocity 87
000000t:  Control change ::  Channel 5.  Controller 11.  Value: 113
000001t:  Note on ::  Channel 5.  Note 61.  Velocity 92
000000t:  Control change ::  Channel 5.  Controller 11.  Value: 111
000001t:  Note on ::  Channel 5.  Note 65.  Velocity 98
000000t:  Note on ::  Channel 5.  Note 70.  Velocity 105
000000t:  Control change ::  Channel 5.  Controller 11.  Value: 109
000001t:  Control change ::  Channel 5.  Controller 11.  Value: 108
000001t:  Control change ::  Channel 5.  Controller 11.  Value: 106
000001t:  Control change ::  Channel 5.  Controller 11.  Value: 105
000001t:  Control change ::  Channel 5.  Controller 11.  Value: 104
000001t:  Control change ::  Channel 5.  Controller 11.  Value: 103
000001t:  Control change ::  Channel 5.  Controller 11.  Value: 102
000001t:  Control change ::  Channel 5.  Controller 11.  Value: 101
000001t:  Control change ::  Channel 5.  Controller 11.  Value: 100
000001t:  Control change ::  Channel 5.  Controller 11.  Value: 99
000002t:  Control change ::  Channel 5.  Controller 11.  Value: 98
000001t:  Control change ::  Channel 5.  Controller 11.  Value: 97
000002t:  Control change ::  Channel 5.  Controller 11.  Value: 96
000002t:  Control change ::  Channel 5.  Controller 11.  Value: 95
000002t:  Control change ::  Channel 5.  Controller 11.  Value: 94
000003t:  Control change ::  Channel 5.  Controller 11.  Value: 93
000004t:  Control change ::  Channel 5.  Controller 11.  Value: 92
000004t:  Control change ::  Channel 5.  Controller 11.  Value: 91
000009t:  Control change ::  Channel 5.  Controller 11.  Value: 90
000021t:  Pitch wheel change ::  Channel 5.   -8192
000002t:  Pitch wheel change ::  Channel 5.   -8192
000003t:  Note on ::  Channel 5.  Note 70.  Velocity 0
000000t:  Note on ::  Channel 5.  Note 53.  Velocity 0
000000t:  Note on ::  Channel 5.  Note 46.  Velocity 0
000000t:  Note on ::  Channel 5.  Note 58.  Velocity 0
000000t:  Note on ::  Channel 5.  Note 65.  Velocity 0
000001t:  Note on ::  Channel 5.  Note 61.  Velocity 0
000002t:  Control change ::  Channel 5.  Controller 11.  Value: 120
000000t:  Note on ::  Channel 5.  Note 42.  Velocity 70
000001t:  Note on ::  Channel 5.  Note 42.  Velocity 0
000000t:  Pitch wheel change ::  Channel 5.   -8192
000000t:  Note on ::  Channel 5.  Note 42.  Velocity 80
000000t:  Control change ::  Channel 5.  Controller 11.  Value: 117
000001t:  Note on ::  Channel 5.  Note 49.  Velocity 83
000000t:  Control change ::  Channel 5.  Controller 11.  Value: 115
000001t:  Note on ::  Channel 5.  Note 54.  Velocity 87
000000t:  Control change ::  Channel 5.  Controller 11.  Value: 113
000001t:  Note on ::  Channel 5.  Note 58.  Velocity 92
000000t:  Control change ::  Channel 5.  Controller 11.  Value: 111
000001t:  Note on ::  Channel 5.  Note 61.  Velocity 98
000000t:  Note on ::  Channel 5.  Note 66.  Velocity 105
000000t:  Control change ::  Channel 5.  Controller 11.  Value: 109
000001t:  Control change ::  Channel 5.  Controller 11.  Value: 108
000001t:  Control change ::  Channel 5.  Controller 11.  Value: 106
000001t:  Control change ::  Channel 5.  Controller 11.  Value: 105
000001t:  Control change ::  Channel 5.  Controller 11.  Value: 104
000001t:  Control change ::  Channel 5.  Controller 11.  Value: 103
000001t:  Control change ::  Channel 5.  Controller 11.  Value: 102
000001t:  Control change ::  Channel 5.  Controller 11.  Value: 101
000001t:  Control change ::  Channel 5.  Controller 11.  Value: 100
000001t:  Control change ::  Channel 5.  Controller 11.  Value: 99
000002t:  Control change ::  Channel 5.  Controller 11.  Value: 98
000001t:  Control change ::  Channel 5.  Controller 11.  Value: 97
000002t:  Control change ::  Channel 5.  Controller 11.  Value: 96
000002t:  Control change ::  Channel 5.  Controller 11.  Value: 95
000002t:  Control change ::  Channel 5.  Controller 11.  Value: 94
000003t:  Control change ::  Channel 5.  Controller 11.  Value: 93
000004t:  Control change ::  Channel 5.  Controller 11.  Value: 92
000004t:  Control change ::  Channel 5.  Controller 11.  Value: 91
000009t:  Control change ::  Channel 5.  Controller 11.  Value: 90
000021t:  Pitch wheel change ::  Channel 5.   -8192
000002t:  Pitch wheel change ::  Channel 5.   -8192
000003t:  Note on ::  Channel 5.  Note 61.  Velocity 0
000000t:  Note on ::  Channel 5.  Note 58.  Velocity 0
000000t:  Note on ::  Channel 5.  Note 42.  Velocity 0
000001t:  Note on ::  Channel 5.  Note 49.  Velocity 0
000000t:  Note on ::  Channel 5.  Note 66.  Velocity 0
000000t:  Note on ::  Channel 5.  Note 54.  Velocity 0
000002t:  Note on ::  Channel 5.  Note 41.  Velocity 72
000001t:  Note on ::  Channel 5.  Note 41.  Velocity 0
000000t:  Pitch wheel change ::  Channel 5.   -8192
000000t:  Control change ::  Channel 5.  Controller 11.  Value: 120
000000t:  Note on ::  Channel 5.  Note 41.  Velocity 82
000001t:  Note on ::  Channel 5.  Note 49.  Velocity 86
000000t:  Control change ::  Channel 5.  Controller 11.  Value: 116
000001t:  Note on ::  Channel 5.  Note 56.  Velocity 91
000000t:  Control change ::  Channel 5.  Controller 11.  Value: 113
000001t:  Note on ::  Channel 5.  Note 61.  Velocity 98
000000t:  Note on ::  Channel 5.  Note 65.  Velocity 105
000000t:  Control change ::  Channel 5.  Controller 11.  Value: 110
000001t:  Control change ::  Channel 5.  Controller 11.  Value: 108
000001t:  Control change ::  Channel 5.  Controller 11.  Value: 106
000001t:  Control change ::  Channel 5.  Controller 11.  Value: 104
000001t:  Control change ::  Channel 5.  Controller 11.  Value: 102
000001t:  Control change ::  Channel 5.  Controller 11.  Value: 101
000001t:  Control change ::  Channel 5.  Controller 11.  Value: 99
000001t:  Control change ::  Channel 5.  Controller 11.  Value: 98
000001t:  Control change ::  Channel 5.  Controller 11.  Value: 97
000001t:  Control change ::  Channel 5.  Controller 11.  Value: 96
000002t:  Control change ::  Channel 5.  Controller 11.  Value: 95
000001t:  Control change ::  Channel 5.  Controller 11.  Value: 94
000002t:  Control change ::  Channel 5.  Controller 11.  Value: 93
000002t:  Control change ::  Channel 5.  Controller 11.  Value: 92
000003t:  Control change ::  Channel 5.  Controller 11.  Value: 91
000006t:  Control change ::  Channel 5.  Controller 11.  Value: 90
000003t:  Note on ::  Channel 5.  Note 65.  Velocity 0
000000t:  Note on ::  Channel 5.  Note 56.  Velocity 0
000000t:  Note on ::  Channel 5.  Note 41.  Velocity 0
000000t:  Note on ::  Channel 5.  Note 49.  Velocity 0
000000t:  Note on ::  Channel 5.  Note 61.  Velocity 0
000016t:  Control change ::  Channel 5.  Controller 11.  Value: 120
000000t:  Note on ::  Channel 5.  Note 42.  Velocity 80
000001t:  Note on ::  Channel 5.  Note 49.  Velocity 83
000000t:  Control change ::  Channel 5.  Controller 11.  Value: 114
000001t:  Note on ::  Channel 5.  Note 54.  Velocity 87
000000t:  Control change ::  Channel 5.  Controller 11.  Value: 110
000001t:  Note on ::  Channel 5.  Note 58.  Velocity 92
000000t:  Control change ::  Channel 5.  Controller 11.  Value: 107
000001t:  Note on ::  Channel 5.  Note 61.  Velocity 98
000000t:  Note on ::  Channel 5.  Note 66.  Velocity 105
000000t:  Control change ::  Channel 5.  Controller 11.  Value: 105
000001t:  Control change ::  Channel 5.  Controller 11.  Value: 103
000001t:  Control change ::  Channel 5.  Controller 11.  Value: 101
000001t:  Control change ::  Channel 5.  Controller 11.  Value: 100
000001t:  Control change ::  Channel 5.  Controller 11.  Value: 99
000001t:  Control change ::  Channel 5.  Controller 11.  Value: 98
000002t:  Control change ::  Channel 5.  Controller 11.  Value: 97
000003t:  Control change ::  Channel 5.  Controller 11.  Value: 96
000007t:  Note on ::  Channel 5.  Note 58.  Velocity 0
000001t:  Note on ::  Channel 5.  Note 49.  Velocity 0
000000t:  Note on ::  Channel 5.  Note 42.  Velocity 0
000001t:  Note on ::  Channel 5.  Note 54.  Velocity 0
000000t:  Note on ::  Channel 5.  Note 66.  Velocity 0
000000t:  Note on ::  Channel 5.  Note 61.  Velocity 0
000001t:  Control change ::  Channel 5.  Controller 11.  Value: 121
000000t:  Note on ::  Channel 5.  Note 42.  Velocity 80
000001t:  Note on ::  Channel 5.  Note 49.  Velocity 83
000000t:  Control change ::  Channel 5.  Controller 11.  Value: 118
000001t:  Note on ::  Channel 5.  Note 54.  Velocity 87
000000t:  Control change ::  Channel 5.  Controller 11.  Value: 117
000001t:  Note on ::  Channel 5.  Note 58.  Velocity 92
000000t:  Control change ::  Channel 5.  Controller 11.  Value: 115
000001t:  Note on ::  Channel 5.  Note 61.  Velocity 98
000000t:  Note on ::  Channel 5.  Note 66.  Velocity 105
000000t:  Control change ::  Channel 5.  Controller 11.  Value: 113
000001t:  Control change ::  Channel 5.  Controller 11.  Value: 112
000001t:  Control change ::  Channel 5.  Controller 11.  Value: 110
000001t:  Control change ::  Channel 5.  Controller 11.  Value: 109
000001t:  Control change ::  Channel 5.  Controller 11.  Value: 108
000001t:  Control change ::  Channel 5.  Controller 11.  Value: 107
000001t:  Control change ::  Channel 5.  Controller 11.  Value: 106
000001t:  Control change ::  Channel 5.  Controller 11.  Value: 105
000001t:  Control change ::  Channel 5.  Controller 11.  Value: 104
000001t:  Control change ::  Channel 5.  Controller 11.  Value: 103
000001t:  Control change ::  Channel 5.  Controller 11.  Value: 102
000001t:  Control change ::  Channel 5.  Controller 11.  Value: 101
000001t:  Control change ::  Channel 5.  Controller 11.  Value: 100
000002t:  Control change ::  Channel 5.  Controller 11.  Value: 99
000002t:  Control change ::  Channel 5.  Controller 11.  Value: 98
000001t:  Control change ::  Channel 5.  Controller 11.  Value: 97
000003t:  Control change ::  Channel 5.  Controller 11.  Value: 96
000002t:  Control change ::  Channel 5.  Controller 11.  Value: 95
000003t:  Control change ::  Channel 5.  Controller 11.  Value: 94
000003t:  Control change ::  Channel 5.  Controller 11.  Value: 93
000005t:  Control change ::  Channel 5.  Controller 11.  Value: 92
000006t:  Control change ::  Channel 5.  Controller 11.  Value: 91
000010t:  Control change ::  Channel 5.  Controller 11.  Value: 90
000329t:  Note on ::  Channel 5.  Note 42.  Velocity 0
000001t:  Note on ::  Channel 5.  Note 49.  Velocity 0
000001t:  Note on ::  Channel 5.  Note 54.  Velocity 0
000000t:  Control change ::  Channel 5.  Controller 7.  Value: 84
000001t:  Note on ::  Channel 5.  Note 58.  Velocity 0
000001t:  Note on ::  Channel 5.  Note 61.  Velocity 0
000000t:  Note on ::  Channel 5.  Note 66.  Velocity 0
000012t:  Program (patch) change ::  Channel 5.  Patch 29 (Overdriven Guitar)
000014t:  Note on ::  Channel 5.  Note 56.  Velocity 80
000008t:  Note on ::  Channel 5.  Note 56.  Velocity 0
000016t:  Note on ::  Channel 5.  Note 61.  Velocity 80
000008t:  Note on ::  Channel 5.  Note 61.  Velocity 0
000016t:  Note on ::  Channel 5.  Note 65.  Velocity 84
000008t:  Note on ::  Channel 5.  Note 65.  Velocity 0
000040t:  Note on ::  Channel 5.  Note 56.  Velocity 80
000008t:  Note on ::  Channel 5.  Note 56.  Velocity 0
000016t:  Note on ::  Channel 5.  Note 60.  Velocity 80
000008t:  Note on ::  Channel 5.  Note 60.  Velocity 0
000016t:  Note on ::  Channel 5.  Note 63.  Velocity 83
000008t:  Note on ::  Channel 5.  Note 63.  Velocity 0
000040t:  Note on ::  Channel 5.  Note 54.  Velocity 80
000008t:  Note on ::  Channel 5.  Note 54.  Velocity 0
000016t:  Note on ::  Channel 5.  Note 58.  Velocity 80
000008t:  Note on ::  Channel 5.  Note 58.  Velocity 0
000016t:  Note on ::  Channel 5.  Note 61.  Velocity 84
000008t:  Note on ::  Channel 5.  Note 61.  Velocity 0
000040t:  Note on ::  Channel 5.  Note 56.  Velocity 80
000008t:  Note on ::  Channel 5.  Note 56.  Velocity 0
000016t:  Note on ::  Channel 5.  Note 60.  Velocity 80
000008t:  Note on ::  Channel 5.  Note 60.  Velocity 0
000016t:  Note on ::  Channel 5.  Note 63.  Velocity 82
000008t:  Note on ::  Channel 5.  Note 63.  Velocity 0
000040t:  Note on ::  Channel 5.  Note 56.  Velocity 80
000008t:  Note on ::  Channel 5.  Note 56.  Velocity 0
000016t:  Note on ::  Channel 5.  Note 61.  Velocity 80
000008t:  Note on ::  Channel 5.  Note 61.  Velocity 0
000016t:  Note on ::  Channel 5.  Note 65.  Velocity 83
000008t:  Note on ::  Channel 5.  Note 65.  Velocity 0
000040t:  Note on ::  Channel 5.  Note 56.  Velocity 80
000008t:  Note on ::  Channel 5.  Note 56.  Velocity 0
000016t:  Note on ::  Channel 5.  Note 60.  Velocity 80
000008t:  Note on ::  Channel 5.  Note 60.  Velocity 0
000016t:  Note on ::  Channel 5.  Note 63.  Velocity 84
000008t:  Note on ::  Channel 5.  Note 63.  Velocity 0
000040t:  Note on ::  Channel 5.  Note 58.  Velocity 80
000008t:  Note on ::  Channel 5.  Note 58.  Velocity 0
000016t:  Note on ::  Channel 5.  Note 61.  Velocity 79
000008t:  Note on ::  Channel 5.  Note 61.  Velocity 0
000016t:  Note on ::  Channel 5.  Note 65.  Velocity 83
000008t:  Note on ::  Channel 5.  Note 65.  Velocity 0
000040t:  Note on ::  Channel 5.  Note 58.  Velocity 80
000008t:  Note on ::  Channel 5.  Note 58.  Velocity 0
000016t:  Note on ::  Channel 5.  Note 61.  Velocity 78
000008t:  Note on ::  Channel 5.  Note 61.  Velocity 0
000016t:  Note on ::  Channel 5.  Note 66.  Velocity 83
000008t:  Note on ::  Channel 5.  Note 66.  Velocity 0
000040t:  Note on ::  Channel 5.  Note 61.  Velocity 80
000008t:  Note on ::  Channel 5.  Note 61.  Velocity 0
000016t:  Note on ::  Channel 5.  Note 65.  Velocity 80
000008t:  Note on ::  Channel 5.  Note 65.  Velocity 0
000016t:  Note on ::  Channel 5.  Note 68.  Velocity 84
000008t:  Note on ::  Channel 5.  Note 68.  Velocity 0
000039t:  Note on ::  Channel 5.  Note 60.  Velocity 80
000001t:  Note on ::  Channel 5.  Note 65.  Velocity 80
000007t:  Note on ::  Channel 5.  Note 60.  Velocity 0
000001t:  Note on ::  Channel 5.  Note 65.  Velocity 0
000015t:  Note on ::  Channel 5.  Note 65.  Velocity 80
000001t:  Note on ::  Channel 5.  Note 68.  Velocity 80
000007t:  Note on ::  Channel 5.  Note 65.  Velocity 0
000001t:  Note on ::  Channel 5.  Note 68.  Velocity 0
000015t:  Note on ::  Channel 5.  Note 68.  Velocity 84
000001t:  Note on ::  Channel 5.  Note 72.  Velocity 85
000007t:  Note on ::  Channel 5.  Note 68.  Velocity 0
000001t:  Note on ::  Channel 5.  Note 72.  Velocity 0
000039t:  Note on ::  Channel 5.  Note 58.  Velocity 78
000001t:  Note on ::  Channel 5.  Note 65.  Velocity 80
000007t:  Note on ::  Channel 5.  Note 58.  Velocity 0
000001t:  Note on ::  Channel 5.  Note 65.  Velocity 0
000015t:  Note on ::  Channel 5.  Note 61.  Velocity 79
000001t:  Note on ::  Channel 5.  Note 70.  Velocity 80
000007t:  Note on ::  Channel 5.  Note 61.  Velocity 0
000001t:  Note on ::  Channel 5.  Note 70.  Velocity 0
000015t:  Note on ::  Channel 5.  Note 65.  Velocity 85
000001t:  Note on ::  Channel 5.  Note 73.  Velocity 84
000007t:  Note on ::  Channel 5.  Note 65.  Velocity 0
000001t:  Note on ::  Channel 5.  Note 73.  Velocity 0
000039t:  Note on ::  Channel 5.  Note 58.  Velocity 80
000001t:  Note on ::  Channel 5.  Note 73.  Velocity 80
000007t:  Note on ::  Channel 5.  Note 58.  Velocity 0
000001t:  Note on ::  Channel 5.  Note 73.  Velocity 0
000015t:  Note on ::  Channel 5.  Note 61.  Velocity 83
000001t:  Note on ::  Channel 5.  Note 70.  Velocity 81
000007t:  Note on ::  Channel 5.  Note 61.  Velocity 0
000001t:  Note on ::  Channel 5.  Note 70.  Velocity 0
000040t:  Control change ::  Channel 5.  Controller 7.  Value: 102
000006t:  Control change ::  Channel 5.  Controller 11.  Value: 127
000006t:  Pitch wheel change ::  Channel 5.   -8192
000006t:  Note on ::  Channel 5.  Note 77.  Velocity 91
000006t:  Pitch wheel change ::  Channel 5.   -8192
000045t:  Note on ::  Channel 5.  Note 77.  Velocity 0
000003t:  Note on ::  Channel 5.  Note 75.  Velocity 89
000046t:  Note on ::  Channel 5.  Note 75.  Velocity 0
000002t:  Note on ::  Channel 5.  Note 73.  Velocity 85
000045t:  Note on ::  Channel 5.  Note 73.  Velocity 0
000003t:  Note on ::  Channel 5.  Note 72.  Velocity 80
000044t:  Pitch wheel change ::  Channel 5.   -8192
000000t:  Note on ::  Channel 5.  Note 73.  Velocity 89
000001t:  Note on ::  Channel 5.  Note 72.  Velocity 0
000005t:  Pitch wheel change ::  Channel 5.   -8192
000002t:  Pitch wheel change ::  Channel 5.   -8192
000001t:  Pitch wheel change ::  Channel 5.   -8192
000001t:  Pitch wheel change ::  Channel 5.   -8192
000001t:  Pitch wheel change ::  Channel 5.   -8192
000001t:  Pitch wheel change ::  Channel 5.   -8192
000001t:  Pitch wheel change ::  Channel 5.   -8192
000001t:  Pitch wheel change ::  Channel 5.   -8192
000001t:  Pitch wheel change ::  Channel 5.   -8192
000001t:  Pitch wheel change ::  Channel 5.   -8192
000001t:  Pitch wheel change ::  Channel 5.   -8192
000001t:  Pitch wheel change ::  Channel 5.   -8192
000027t:  Note on ::  Channel 5.  Note 73.  Velocity 0
000009t:  Pitch wheel change ::  Channel 5.   -8192
000000t:  Note on ::  Channel 5.  Note 73.  Velocity 88
000046t:  Note on ::  Channel 5.  Note 73.  Velocity 0
000002t:  Note on ::  Channel 5.  Note 72.  Velocity 84
000068t:  Note on ::  Channel 5.  Note 72.  Velocity 0
000002t:  Pitch wheel change ::  Channel 5.   -8192
000000t:  Note on ::  Channel 5.  Note 75.  Velocity 80
000001t:  Pitch wheel change ::  Channel 5.   -8192
000001t:  Pitch wheel change ::  Channel 5.   -8192
000001t:  Pitch wheel change ::  Channel 5.   -8192
000001t:  Pitch wheel change ::  Channel 5.   -8192
000001t:  Pitch wheel change ::  Channel 5.   -8192
000001t:  Pitch wheel change ::  Channel 5.   -8192
000062t:  Note on ::  Channel 5.  Note 75.  Velocity 0
000006t:  Note on ::  Channel 5.  Note 73.  Velocity 76
000116t:  Note on ::  Channel 5.  Note 73.  Velocity 0
000002t:  Note on ::  Channel 5.  Note 73.  Velocity 80
000092t:  Note on ::  Channel 5.  Note 73.  Velocity 0
000001t:  Control change ::  Channel 5.  Controller 7.  Value: 87
000001t:  Control change ::  Channel 5.  Controller 11.  Value: 100
000001t:  Pitch wheel change ::  Channel 5.   -8192
000001t:  Note on ::  Channel 5.  Note 46.  Velocity 100
000006t:  Pitch wheel change ::  Channel 5.   -8192
000010t:  Pitch wheel change ::  Channel 5.   -8192
000010t:  Pitch wheel change ::  Channel 5.   -8192
000010t:  Pitch wheel change ::  Channel 5.   -8192
000008t:  Pitch wheel change ::  Channel 5.   -8192
000008t:  Pitch wheel change ::  Channel 5.   -8192
000007t:  Pitch wheel change ::  Channel 5.   -8192
000007t:  Pitch wheel change ::  Channel 5.   -8192
000006t:  Pitch wheel change ::  Channel 5.   -8192
000006t:  Pitch wheel change ::  Channel 5.   -8192
000005t:  Pitch wheel change ::  Channel 5.   -8192
000005t:  Pitch wheel change ::  Channel 5.   -8192
000004t:  Pitch wheel change ::  Channel 5.   -8192
000004t:  Pitch wheel change ::  Channel 5.   -8192
000000t:  Control change ::  Channel 5.  Controller 11.  Value: 100
000001t:  Control change ::  Channel 5.  Controller 11.  Value: 96
000001t:  Control change ::  Channel 5.  Controller 11.  Value: 93
000001t:  Control change ::  Channel 5.  Controller 11.  Value: 91
000001t:  Control change ::  Channel 5.  Controller 11.  Value: 89
000001t:  Control change ::  Channel 5.  Controller 11.  Value: 86
000001t:  Control change ::  Channel 5.  Controller 11.  Value: 85
000001t:  Control change ::  Channel 5.  Controller 11.  Value: 83
000001t:  Control change ::  Channel 5.  Controller 11.  Value: 81
000001t:  Control change ::  Channel 5.  Controller 11.  Value: 79
000001t:  Control change ::  Channel 5.  Controller 11.  Value: 77
000001t:  Control change ::  Channel 5.  Controller 11.  Value: 76
000001t:  Control change ::  Channel 5.  Controller 11.  Value: 75
000001t:  Control change ::  Channel 5.  Controller 11.  Value: 73
000001t:  Control change ::  Channel 5.  Controller 11.  Value: 72
000001t:  Control change ::  Channel 5.  Controller 11.  Value: 70
000002t:  Control change ::  Channel 5.  Controller 11.  Value: 68
000001t:  Control change ::  Channel 5.  Controller 11.  Value: 67
000001t:  Control change ::  Channel 5.  Controller 11.  Value: 66
000001t:  Control change ::  Channel 5.  Controller 11.  Value: 65
000002t:  Control change ::  Channel 5.  Controller 11.  Value: 64
000001t:  Control change ::  Channel 5.  Controller 11.  Value: 63
000001t:  Control change ::  Channel 5.  Controller 11.  Value: 62
000001t:  Control change ::  Channel 5.  Controller 11.  Value: 61
000002t:  Control change ::  Channel 5.  Controller 11.  Value: 60
000001t:  Control change ::  Channel 5.  Controller 11.  Value: 59
000002t:  Control change ::  Channel 5.  Controller 11.  Value: 58
000003t:  Control change ::  Channel 5.  Controller 11.  Value: 57
000002t:  Control change ::  Channel 5.  Controller 11.  Value: 56
000003t:  Control change ::  Channel 5.  Controller 11.  Value: 55
000003t:  Control change ::  Channel 5.  Controller 11.  Value: 54
000004t:  Control change ::  Channel 5.  Controller 11.  Value: 53
000005t:  Control change ::  Channel 5.  Controller 11.  Value: 52
000006t:  Control change ::  Channel 5.  Controller 11.  Value: 51
000011t:  Control change ::  Channel 5.  Controller 11.  Value: 50
000290t:  Note on ::  Channel 5.  Note 46.  Velocity 0
000001t:  Pitch wheel change ::  Channel 5.   -8192
000001t:  Control change ::  Channel 5.  Controller 11.  Value: 100
000001t:  Note on ::  Channel 5.  Note 46.  Velocity 80
000308t:  Note on ::  Channel 5.  Note 46.  Velocity 0
000002t:  Control change ::  Channel 5.  Controller 11.  Value: 100
000001t:  Pitch wheel change ::  Channel 5.   -8192
000001t:  Note on ::  Channel 5.  Note 46.  Velocity 80
000007t:  Pitch wheel change ::  Channel 5.   -8192
000010t:  Pitch wheel change ::  Channel 5.   -8192
000010t:  Pitch wheel change ::  Channel 5.   -8192
000009t:  Pitch wheel change ::  Channel 5.   -8192
000009t:  Pitch wheel change ::  Channel 5.   -8192
000008t:  Pitch wheel change ::  Channel 5.   -8192
000008t:  Pitch wheel change ::  Channel 5.   -8192
000007t:  Pitch wheel change ::  Channel 5.   -8192
000006t:  Pitch wheel change ::  Channel 5.   -8192
000006t:  Pitch wheel change ::  Channel 5.   -8192
000005t:  Pitch wheel change ::  Channel 5.   -8192
000004t:  Pitch wheel change ::  Channel 5.   -8192
000004t:  Pitch wheel change ::  Channel 5.   -8192
000003t:  Pitch wheel change ::  Channel 5.   -8192
000000t:  Control change ::  Channel 5.  Controller 11.  Value: 100
000001t:  Control change ::  Channel 5.  Controller 11.  Value: 96
000001t:  Control change ::  Channel 5.  Controller 11.  Value: 93
000001t:  Control change ::  Channel 5.  Controller 11.  Value: 91
000001t:  Control change ::  Channel 5.  Controller 11.  Value: 89
000001t:  Control change ::  Channel 5.  Controller 11.  Value: 86
000001t:  Control change ::  Channel 5.  Controller 11.  Value: 85
000001t:  Control change ::  Channel 5.  Controller 11.  Value: 83
000001t:  Control change ::  Channel 5.  Controller 11.  Value: 81
000001t:  Control change ::  Channel 5.  Controller 11.  Value: 79
000001t:  Control change ::  Channel 5.  Controller 11.  Value: 77
000001t:  Control change ::  Channel 5.  Controller 11.  Value: 76
000001t:  Control change ::  Channel 5.  Controller 11.  Value: 75
000001t:  Control change ::  Channel 5.  Controller 11.  Value: 73
000001t:  Control change ::  Channel 5.  Controller 11.  Value: 72
000001t:  Control change ::  Channel 5.  Controller 11.  Value: 70
000002t:  Control change ::  Channel 5.  Controller 11.  Value: 68
000001t:  Control change ::  Channel 5.  Controller 11.  Value: 67
000001t:  Control change ::  Channel 5.  Controller 11.  Value: 66
000001t:  Control change ::  Channel 5.  Controller 11.  Value: 65
000002t:  Control change ::  Channel 5.  Controller 11.  Value: 64
000001t:  Control change ::  Channel 5.  Controller 11.  Value: 63
000001t:  Control change ::  Channel 5.  Controller 11.  Value: 62
000001t:  Control change ::  Channel 5.  Controller 11.  Value: 61
000002t:  Control change ::  Channel 5.  Controller 11.  Value: 60
000001t:  Control change ::  Channel 5.  Controller 11.  Value: 59
000002t:  Control change ::  Channel 5.  Controller 11.  Value: 58
000003t:  Control change ::  Channel 5.  Controller 11.  Value: 57
000002t:  Control change ::  Channel 5.  Controller 11.  Value: 56
000003t:  Control change ::  Channel 5.  Controller 11.  Value: 55
000003t:  Control change ::  Channel 5.  Controller 11.  Value: 54
000004t:  Control change ::  Channel 5.  Controller 11.  Value: 53
000005t:  Control change ::  Channel 5.  Controller 11.  Value: 52
000006t:  Control change ::  Channel 5.  Controller 11.  Value: 51
000011t:  Control change ::  Channel 5.  Controller 11.  Value: 50
000290t:  Note on ::  Channel 5.  Note 46.  Velocity 0
000001t:  Pitch wheel change ::  Channel 5.   -8192
000001t:  Control change ::  Channel 5.  Controller 11.  Value: 100
000001t:  Note on ::  Channel 5.  Note 46.  Velocity 80
000308t:  Note on ::  Channel 5.  Note 46.  Velocity 0
000002t:  Control change ::  Channel 5.  Controller 11.  Value: 100
000001t:  Pitch wheel change ::  Channel 5.   -8192
000001t:  Note on ::  Channel 5.  Note 46.  Velocity 80
000010t:  Pitch wheel change ::  Channel 5.   -8192
000010t:  Pitch wheel change ::  Channel 5.   -8192
000007t:  Pitch wheel change ::  Channel 5.   -8192
000009t:  Pitch wheel change ::  Channel 5.   -8192
000009t:  Pitch wheel change ::  Channel 5.   -8192
000008t:  Pitch wheel change ::  Channel 5.   -8192
000008t:  Pitch wheel change ::  Channel 5.   -8192
000007t:  Pitch wheel change ::  Channel 5.   -8192
000006t:  Pitch wheel change ::  Channel 5.   -8192
000006t:  Pitch wheel change ::  Channel 5.   -8192
000005t:  Pitch wheel change ::  Channel 5.   -8192
000004t:  Pitch wheel change ::  Channel 5.   -8192
000004t:  Pitch wheel change ::  Channel 5.   -8192
000003t:  Pitch wheel change ::  Channel 5.   -8192
000000t:  Control change ::  Channel 5.  Controller 11.  Value: 100
000001t:  Control change ::  Channel 5.  Controller 11.  Value: 97
000001t:  Control change ::  Channel 5.  Controller 11.  Value: 95
000001t:  Control change ::  Channel 5.  Controller 11.  Value: 93
000001t:  Control change ::  Channel 5.  Controller 11.  Value: 91
000001t:  Control change ::  Channel 5.  Controller 11.  Value: 89
000001t:  Control change ::  Channel 5.  Controller 11.  Value: 88
000001t:  Control change ::  Channel 5.  Controller 11.  Value: 86
000001t:  Control change ::  Channel 5.  Controller 11.  Value: 85
000001t:  Control change ::  Channel 5.  Controller 11.  Value: 83
000001t:  Control change ::  Channel 5.  Controller 11.  Value: 82
000001t:  Control change ::  Channel 5.  Controller 11.  Value: 81
000001t:  Control change ::  Channel 5.  Controller 11.  Value: 80
000001t:  Control change ::  Channel 5.  Controller 11.  Value: 79
000001t:  Control change ::  Channel 5.  Controller 11.  Value: 77
000001t:  Control change ::  Channel 5.  Controller 11.  Value: 76
000002t:  Control change ::  Channel 5.  Controller 11.  Value: 75
000001t:  Control change ::  Channel 5.  Controller 11.  Value: 74
000001t:  Control change ::  Channel 5.  Controller 11.  Value: 73
000001t:  Control change ::  Channel 5.  Controller 11.  Value: 72
000002t:  Control change ::  Channel 5.  Controller 11.  Value: 71
000001t:  Control change ::  Channel 5.  Controller 11.  Value: 70
000002t:  Control change ::  Channel 5.  Controller 11.  Value: 69
000002t:  Control change ::  Channel 5.  Controller 11.  Value: 68
000001t:  Control change ::  Channel 5.  Controller 11.  Value: 67
000003t:  Control change ::  Channel 5.  Controller 11.  Value: 66
000002t:  Control change ::  Channel 5.  Controller 11.  Value: 65
000004t:  Control change ::  Channel 5.  Controller 11.  Value: 64
000004t:  Control change ::  Channel 5.  Controller 11.  Value: 63
000004t:  Control change ::  Channel 5.  Controller 11.  Value: 62
000008t:  Control change ::  Channel 5.  Controller 11.  Value: 61
000011t:  Control change ::  Channel 5.  Controller 11.  Value: 60
000294t:  Note on ::  Channel 5.  Note 46.  Velocity 0
000001t:  Pitch wheel change ::  Channel 5.   -8192
000001t:  Note on ::  Channel 5.  Note 46.  Velocity 80
000308t:  Note on ::  Channel 5.  Note 46.  Velocity 0
000002t:  Control change ::  Channel 5.  Controller 11.  Value: 100
000001t:  Pitch wheel change ::  Channel 5.   -8192
000001t:  Note on ::  Channel 5.  Note 46.  Velocity 80
000007t:  Pitch wheel change ::  Channel 5.   -8192
000010t:  Pitch wheel change ::  Channel 5.   -8192
000010t:  Pitch wheel change ::  Channel 5.   -8192
000009t:  Pitch wheel change ::  Channel 5.   -8192
000009t:  Pitch wheel change ::  Channel 5.   -8192
000008t:  Pitch wheel change ::  Channel 5.   -8192
000007t:  Pitch wheel change ::  Channel 5.   -8192
000007t:  Pitch wheel change ::  Channel 5.   -8192
000006t:  Pitch wheel change ::  Channel 5.   -8192
000006t:  Pitch wheel change ::  Channel 5.   -8192
000005t:  Pitch wheel change ::  Channel 5.   -8192
000005t:  Pitch wheel change ::  Channel 5.   -8192
000004t:  Pitch wheel change ::  Channel 5.   -8192
000003t:  Pitch wheel change ::  Channel 5.   -8192
000000t:  Control change ::  Channel 5.  Controller 11.  Value: 100
000001t:  Control change ::  Channel 5.  Controller 11.  Value: 98
000001t:  Control change ::  Channel 5.  Controller 11.  Value: 96
000001t:  Control change ::  Channel 5.  Controller 11.  Value: 95
000001t:  Control change ::  Channel 5.  Controller 11.  Value: 93
000001t:  Control change ::  Channel 5.  Controller 11.  Value: 92
000001t:  Control change ::  Channel 5.  Controller 11.  Value: 91
000001t:  Control change ::  Channel 5.  Controller 11.  Value: 89
000001t:  Control change ::  Channel 5.  Controller 11.  Value: 88
000001t:  Control change ::  Channel 5.  Controller 11.  Value: 87
000001t:  Control change ::  Channel 5.  Controller 11.  Value: 86
000001t:  Control change ::  Channel 5.  Controller 11.  Value: 85
000002t:  Control change ::  Channel 5.  Controller 11.  Value: 84
000001t:  Control change ::  Channel 5.  Controller 11.  Value: 83
000001t:  Control change ::  Channel 5.  Controller 11.  Value: 82
000002t:  Control change ::  Channel 5.  Controller 11.  Value: 81
000001t:  Control change ::  Channel 5.  Controller 11.  Value: 80
000002t:  Control change ::  Channel 5.  Controller 11.  Value: 79
000002t:  Control change ::  Channel 5.  Controller 11.  Value: 78
000001t:  Control change ::  Channel 5.  Controller 11.  Value: 77
000003t:  Control change ::  Channel 5.  Controller 11.  Value: 76
000002t:  Control change ::  Channel 5.  Controller 11.  Value: 75
000004t:  Control change ::  Channel 5.  Controller 11.  Value: 74
000003t:  Control change ::  Channel 5.  Controller 11.  Value: 73
000006t:  Control change ::  Channel 5.  Controller 11.  Value: 72
000006t:  Control change ::  Channel 5.  Controller 11.  Value: 71
000012t:  Control change ::  Channel 5.  Controller 11.  Value: 70
000295t:  Program (patch) change ::  Channel 5.  Patch 30 (Distortion Guitar)
000001t:  Control change ::  Channel 5.  Controller 7.  Value: 98
000001t:  Pitch wheel change ::  Channel 5.   -8192
000001t:  Control change ::  Channel 5.  Controller 11.  Value: 100
000001t:  Note on ::  Channel 5.  Note 46.  Velocity 0
000000t:  Note on ::  Channel 5.  Note 42.  Velocity 92
000001t:  Note on ::  Channel 5.  Note 49.  Velocity 93
000001t:  Note on ::  Channel 5.  Note 54.  Velocity 93
000001t:  Note on ::  Channel 5.  Note 61.  Velocity 100
000213t:  Note on ::  Channel 5.  Note 42.  Velocity 0
000001t:  Note on ::  Channel 5.  Note 49.  Velocity 0
000001t:  Note on ::  Channel 5.  Note 54.  Velocity 0
000000t:  Note on ::  Channel 5.  Note 61.  Velocity 0
000002t:  Program (patch) change ::  Channel 5.  Patch 28 (Electric Guitar(muted))
000000t:  Note on ::  Channel 5.  Note 54.  Velocity 94
000001t:  Note on ::  Channel 5.  Note 54.  Velocity 0
000000t:  Program (patch) change ::  Channel 5.  Patch 30 (Distortion Guitar)
000000t:  Note on ::  Channel 5.  Note 54.  Velocity 94
000000t:  Note on ::  Channel 5.  Note 61.  Velocity 100
000010t:  Note on ::  Channel 5.  Note 61.  Velocity 0
000000t:  Note on ::  Channel 5.  Note 54.  Velocity 0
000013t:  Program (patch) change ::  Channel 5.  Patch 28 (Electric Guitar(muted))
000000t:  Note on ::  Channel 5.  Note 54.  Velocity 95
000001t:  Note on ::  Channel 5.  Note 54.  Velocity 0
000000t:  Program (patch) change ::  Channel 5.  Patch 30 (Distortion Guitar)
000000t:  Note on ::  Channel 5.  Note 54.  Velocity 94
000000t:  Note on ::  Channel 5.  Note 61.  Velocity 100
000010t:  Note on ::  Channel 5.  Note 61.  Velocity 0
000000t:  Note on ::  Channel 5.  Note 54.  Velocity 0
000013t:  Program (patch) change ::  Channel 5.  Patch 28 (Electric Guitar(muted))
000000t:  Note on ::  Channel 5.  Note 54.  Velocity 95
000001t:  Note on ::  Channel 5.  Note 54.  Velocity 0
000000t:  Program (patch) change ::  Channel 5.  Patch 30 (Distortion Guitar)
000000t:  Note on ::  Channel 5.  Note 54.  Velocity 95
000000t:  Note on ::  Channel 5.  Note 61.  Velocity 100
000010t:  Note on ::  Channel 5.  Note 61.  Velocity 0
000000t:  Note on ::  Channel 5.  Note 54.  Velocity 0
000013t:  Program (patch) change ::  Channel 5.  Patch 28 (Electric Guitar(muted))
000000t:  Note on ::  Channel 5.  Note 54.  Velocity 93
000001t:  Note on ::  Channel 5.  Note 54.  Velocity 0
000000t:  Program (patch) change ::  Channel 5.  Patch 30 (Distortion Guitar)
000000t:  Note on ::  Channel 5.  Note 54.  Velocity 94
000000t:  Note on ::  Channel 5.  Note 61.  Velocity 100
000010t:  Note on ::  Channel 5.  Note 61.  Velocity 0
000000t:  Note on ::  Channel 5.  Note 54.  Velocity 0
000013t:  Program (patch) change ::  Channel 5.  Patch 28 (Electric Guitar(muted))
000000t:  Note on ::  Channel 5.  Note 54.  Velocity 94
000001t:  Note on ::  Channel 5.  Note 54.  Velocity 0
000000t:  Program (patch) change ::  Channel 5.  Patch 30 (Distortion Guitar)
000000t:  Note on ::  Channel 5.  Note 54.  Velocity 94
000000t:  Note on ::  Channel 5.  Note 61.  Velocity 100
000010t:  Note on ::  Channel 5.  Note 61.  Velocity 0
000000t:  Note on ::  Channel 5.  Note 54.  Velocity 0
000013t:  Program (patch) change ::  Channel 5.  Patch 28 (Electric Guitar(muted))
000000t:  Note on ::  Channel 5.  Note 54.  Velocity 94
000001t:  Note on ::  Channel 5.  Note 54.  Velocity 0
000000t:  Program (patch) change ::  Channel 5.  Patch 30 (Distortion Guitar)
000000t:  Note on ::  Channel 5.  Note 54.  Velocity 94
000000t:  Note on ::  Channel 5.  Note 61.  Velocity 100
000010t:  Note on ::  Channel 5.  Note 61.  Velocity 0
000000t:  Note on ::  Channel 5.  Note 54.  Velocity 0
000013t:  Pitch wheel change ::  Channel 5.   -8192
000000t:  Control change ::  Channel 5.  Controller 11.  Value: 120
000000t:  Program (patch) change ::  Channel 5.  Patch 28 (Electric Guitar(muted))
000000t:  Note on ::  Channel 5.  Note 54.  Velocity 100
000001t:  Program (patch) change ::  Channel 5.  Patch 30 (Distortion Guitar)
000000t:  Note on ::  Channel 5.  Note 61.  Velocity 118
000015t:  Pitch wheel change ::  Channel 5.   -8192
000006t:  Pitch wheel change ::  Channel 5.   -8192
000003t:  Pitch wheel change ::  Channel 5.   -8192
000003t:  Pitch wheel change ::  Channel 5.   -8192
000001t:  Control change ::  Channel 5.  Controller 11.  Value: 118
000001t:  Pitch wheel change ::  Channel 5.   -8192
000000t:  Control change ::  Channel 5.  Controller 11.  Value: 110
000001t:  Pitch wheel change ::  Channel 5.   -8192
000000t:  Control change ::  Channel 5.  Controller 11.  Value: 105
000001t:  Pitch wheel change ::  Channel 5.   -8192
000000t:  Control change ::  Channel 5.  Controller 11.  Value: 98
000001t:  Pitch wheel change ::  Channel 5.   -8192
000000t:  Control change ::  Channel 5.  Controller 11.  Value: 90
000001t:  Pitch wheel change ::  Channel 5.   -8192
000000t:  Control change ::  Channel 5.  Controller 11.  Value: 78
000001t:  Pitch wheel change ::  Channel 5.   -8192
000000t:  Control change ::  Channel 5.  Controller 11.  Value: 68
000001t:  Pitch wheel change ::  Channel 5.   -8192
000000t:  Control change ::  Channel 5.  Controller 11.  Value: 57
000001t:  Pitch wheel change ::  Channel 5.   -8192
000000t:  Control change ::  Channel 5.  Controller 11.  Value: 51
000001t:  Pitch wheel change ::  Channel 5.   -8192
000000t:  Control change ::  Channel 5.  Controller 11.  Value: 43
000001t:  Pitch wheel change ::  Channel 5.   -8192
000000t:  Control change ::  Channel 5.  Controller 11.  Value: 37
000001t:  Pitch wheel change ::  Channel 5.   -8192
000000t:  Control change ::  Channel 5.  Controller 11.  Value: 31
000001t:  Pitch wheel change ::  Channel 5.   -8192
000000t:  Pitch wheel change ::  Channel 5.   -8192
000000t:  Pitch wheel change ::  Channel 5.   -8192
000000t:  Control change ::  Channel 5.  Controller 7.  Value: 75
000001t:  Control change ::  Channel 5.  Controller 11.  Value: 100
000001t:  Pitch wheel change ::  Channel 5.   -8192
000001t:  Control change ::  Channel 5.  Controller 11.  Value: 120
000000t:  Note on ::  Channel 5.  Note 44.  Velocity 80
000001t:  Note on ::  Channel 5.  Note 51.  Velocity 83
000000t:  Control change ::  Channel 5.  Controller 11.  Value: 117
000001t:  Note on ::  Channel 5.  Note 61.  Velocity 0
000000t:  Note on ::  Channel 5.  Note 54.  Velocity 0
000000t:  Note on ::  Channel 5.  Note 56.  Velocity 87
000000t:  Control change ::  Channel 5.  Controller 11.  Value: 115
000001t:  Note on ::  Channel 5.  Note 60.  Velocity 92
000000t:  Control change ::  Channel 5.  Controller 11.  Value: 113
000001t:  Note on ::  Channel 5.  Note 63.  Velocity 98
000000t:  Note on ::  Channel 5.  Note 68.  Velocity 105
000000t:  Control change ::  Channel 5.  Controller 11.  Value: 111
000001t:  Control change ::  Channel 5.  Controller 11.  Value: 109
000001t:  Control change ::  Channel 5.  Controller 11.  Value: 108
000001t:  Control change ::  Channel 5.  Controller 11.  Value: 106
000001t:  Control change ::  Channel 5.  Controller 11.  Value: 105
000001t:  Control change ::  Channel 5.  Controller 11.  Value: 104
000001t:  Control change ::  Channel 5.  Controller 11.  Value: 103
000001t:  Control change ::  Channel 5.  Controller 11.  Value: 102
000001t:  Control change ::  Channel 5.  Controller 11.  Value: 101
000001t:  Control change ::  Channel 5.  Controller 11.  Value: 100
000001t:  Control change ::  Channel 5.  Controller 11.  Value: 99
000002t:  Control change ::  Channel 5.  Controller 11.  Value: 98
000001t:  Control change ::  Channel 5.  Controller 11.  Value: 97
000002t:  Control change ::  Channel 5.  Controller 11.  Value: 96
000002t:  Control change ::  Channel 5.  Controller 11.  Value: 95
000002t:  Control change ::  Channel 5.  Controller 11.  Value: 94
000003t:  Control change ::  Channel 5.  Controller 11.  Value: 93
000004t:  Control change ::  Channel 5.  Controller 11.  Value: 92
000004t:  Control change ::  Channel 5.  Controller 11.  Value: 91
000009t:  Control change ::  Channel 5.  Controller 11.  Value: 90
000025t:  Note on ::  Channel 5.  Note 44.  Velocity 0
000000t:  Pitch wheel change ::  Channel 5.   -8192
000001t:  Note on ::  Channel 5.  Note 51.  Velocity 0
000001t:  Note on ::  Channel 5.  Note 56.  Velocity 0
000000t:  Pitch wheel change ::  Channel 5.   -8192
000001t:  Note on ::  Channel 5.  Note 60.  Velocity 0
000001t:  Note on ::  Channel 5.  Note 63.  Velocity 0
000000t:  Note on ::  Channel 5.  Note 68.  Velocity 0
000000t:  Control change ::  Channel 5.  Controller 11.  Value: 120
000000t:  Note on ::  Channel 5.  Note 46.  Velocity 70
000001t:  Note on ::  Channel 5.  Note 46.  Velocity 0
000000t:  Pitch wheel change ::  Channel 5.   -8192
000000t:  Note on ::  Channel 5.  Note 46.  Velocity 80
000000t:  Control change ::  Channel 5.  Controller 11.  Value: 117
000001t:  Note on ::  Channel 5.  Note 53.  Velocity 83
000000t:  Control change ::  Channel 5.  Controller 11.  Value: 115
000001t:  Note on ::  Channel 5.  Note 58.  Velocity 87
000000t:  Control change ::  Channel 5.  Controller 11.  Value: 113
000001t:  Note on ::  Channel 5.  Note 61.  Velocity 92
000000t:  Control change ::  Channel 5.  Controller 11.  Value: 111
000001t:  Note on ::  Channel 5.  Note 65.  Velocity 98
000000t:  Note on ::  Channel 5.  Note 70.  Velocity 104
000000t:  Control change ::  Channel 5.  Controller 11.  Value: 109
000001t:  Control change ::  Channel 5.  Controller 11.  Value: 108
000001t:  Control change ::  Channel 5.  Controller 11.  Value: 106
000001t:  Control change ::  Channel 5.  Controller 11.  Value: 105
000001t:  Control change ::  Channel 5.  Controller 11.  Value: 104
000001t:  Control change ::  Channel 5.  Controller 11.  Value: 103
000001t:  Control change ::  Channel 5.  Controller 11.  Value: 102
000001t:  Control change ::  Channel 5.  Controller 11.  Value: 101
000001t:  Control change ::  Channel 5.  Controller 11.  Value: 100
000001t:  Control change ::  Channel 5.  Controller 11.  Value: 99
000002t:  Control change ::  Channel 5.  Controller 11.  Value: 98
000001t:  Control change ::  Channel 5.  Controller 11.  Value: 97
000002t:  Control change ::  Channel 5.  Controller 11.  Value: 96
000002t:  Control change ::  Channel 5.  Controller 11.  Value: 95
000002t:  Control change ::  Channel 5.  Controller 11.  Value: 94
000003t:  Control change ::  Channel 5.  Controller 11.  Value: 93
000004t:  Control change ::  Channel 5.  Controller 11.  Value: 92
000004t:  Control change ::  Channel 5.  Controller 11.  Value: 91
000009t:  Control change ::  Channel 5.  Controller 11.  Value: 90
000025t:  Pitch wheel change ::  Channel 5.   -8192
000001t:  Note on ::  Channel 5.  Note 46.  Velocity 0
000001t:  Note on ::  Channel 5.  Note 53.  Velocity 0
000000t:  Pitch wheel change ::  Channel 5.   -8192
000001t:  Note on ::  Channel 5.  Note 58.  Velocity 0
000001t:  Note on ::  Channel 5.  Note 61.  Velocity 0
000000t:  Control change ::  Channel 5.  Controller 11.  Value: 120
000000t:  Note on ::  Channel 5.  Note 42.  Velocity 60
000001t:  Note on ::  Channel 5.  Note 42.  Velocity 0
000000t:  Note on ::  Channel 5.  Note 65.  Velocity 0
000000t:  Note on ::  Channel 5.  Note 70.  Velocity 0
000000t:  Pitch wheel change ::  Channel 5.   -8192
000000t:  Note on ::  Channel 5.  Note 42.  Velocity 80
000000t:  Control change ::  Channel 5.  Controller 11.  Value: 117
000001t:  Note on ::  Channel 5.  Note 49.  Velocity 83
000000t:  Control change ::  Channel 5.  Controller 11.  Value: 115
000001t:  Note on ::  Channel 5.  Note 54.  Velocity 87
000000t:  Control change ::  Channel 5.  Controller 11.  Value: 113
000001t:  Note on ::  Channel 5.  Note 58.  Velocity 92
000000t:  Control change ::  Channel 5.  Controller 11.  Value: 111
000001t:  Note on ::  Channel 5.  Note 61.  Velocity 98
000000t:  Note on ::  Channel 5.  Note 66.  Velocity 105
000000t:  Control change ::  Channel 5.  Controller 11.  Value: 109
000001t:  Control change ::  Channel 5.  Controller 11.  Value: 108
000001t:  Control change ::  Channel 5.  Controller 11.  Value: 106
000001t:  Control change ::  Channel 5.  Controller 11.  Value: 105
000001t:  Control change ::  Channel 5.  Controller 11.  Value: 104
000001t:  Control change ::  Channel 5.  Controller 11.  Value: 103
000001t:  Control change ::  Channel 5.  Controller 11.  Value: 102
000001t:  Control change ::  Channel 5.  Controller 11.  Value: 101
000001t:  Control change ::  Channel 5.  Controller 11.  Value: 100
000001t:  Control change ::  Channel 5.  Controller 11.  Value: 99
000002t:  Control change ::  Channel 5.  Controller 11.  Value: 98
000001t:  Control change ::  Channel 5.  Controller 11.  Value: 97
000002t:  Control change ::  Channel 5.  Controller 11.  Value: 96
000002t:  Control change ::  Channel 5.  Controller 11.  Value: 95
000002t:  Control change ::  Channel 5.  Controller 11.  Value: 94
000003t:  Control change ::  Channel 5.  Controller 11.  Value: 93
000004t:  Control change ::  Channel 5.  Controller 11.  Value: 92
000004t:  Control change ::  Channel 5.  Controller 11.  Value: 91
000009t:  Control change ::  Channel 5.  Controller 11.  Value: 90
000025t:  Pitch wheel change ::  Channel 5.   -8192
000001t:  Note on ::  Channel 5.  Note 42.  Velocity 0
000001t:  Note on ::  Channel 5.  Note 49.  Velocity 0
000000t:  Pitch wheel change ::  Channel 5.   -8192
000001t:  Note on ::  Channel 5.  Note 54.  Velocity 0
000001t:  Note on ::  Channel 5.  Note 58.  Velocity 0
000000t:  Control change ::  Channel 5.  Controller 11.  Value: 120
000000t:  Note on ::  Channel 5.  Note 44.  Velocity 68
000001t:  Note on ::  Channel 5.  Note 44.  Velocity 0
000000t:  Note on ::  Channel 5.  Note 61.  Velocity 0
000000t:  Note on ::  Channel 5.  Note 66.  Velocity 0
000000t:  Pitch wheel change ::  Channel 5.   -8192
000000t:  Note on ::  Channel 5.  Note 44.  Velocity 80
000000t:  Control change ::  Channel 5.  Controller 11.  Value: 116
000001t:  Note on ::  Channel 5.  Note 51.  Velocity 83
000000t:  Control change ::  Channel 5.  Controller 11.  Value: 113
000001t:  Note on ::  Channel 5.  Note 56.  Velocity 87
000000t:  Control change ::  Channel 5.  Controller 11.  Value: 111
000001t:  Note on ::  Channel 5.  Note 60.  Velocity 92
000000t:  Control change ::  Channel 5.  Controller 11.  Value: 108
000001t:  Note on ::  Channel 5.  Note 63.  Velocity 98
000000t:  Note on ::  Channel 5.  Note 68.  Velocity 105
000000t:  Control change ::  Channel 5.  Controller 11.  Value: 106
000001t:  Control change ::  Channel 5.  Controller 11.  Value: 105
000001t:  Control change ::  Channel 5.  Controller 11.  Value: 103
000001t:  Control change ::  Channel 5.  Controller 11.  Value: 101
000001t:  Control change ::  Channel 5.  Controller 11.  Value: 100
000001t:  Control change ::  Channel 5.  Controller 11.  Value: 99
000001t:  Control change ::  Channel 5.  Controller 11.  Value: 98
000001t:  Control change ::  Channel 5.  Controller 11.  Value: 97
000001t:  Control change ::  Channel 5.  Controller 11.  Value: 96
000001t:  Control change ::  Channel 5.  Controller 11.  Value: 95
000002t:  Control change ::  Channel 5.  Controller 11.  Value: 94
000002t:  Control change ::  Channel 5.  Controller 11.  Value: 93
000002t:  Control change ::  Channel 5.  Controller 11.  Value: 92
000003t:  Control change ::  Channel 5.  Controller 11.  Value: 91
000006t:  Control change ::  Channel 5.  Controller 11.  Value: 90
000010t:  Note on ::  Channel 5.  Note 44.  Velocity 0
000001t:  Note on ::  Channel 5.  Note 51.  Velocity 0
000001t:  Note on ::  Channel 5.  Note 56.  Velocity 0
000001t:  Note on ::  Channel 5.  Note 60.  Velocity 0
000001t:  Note on ::  Channel 5.  Note 63.  Velocity 0
000000t:  Note on ::  Channel 5.  Note 68.  Velocity 0
000005t:  Control change ::  Channel 5.  Controller 11.  Value: 120
000000t:  Note on ::  Channel 5.  Note 49.  Velocity 90
000001t:  Note on ::  Channel 5.  Note 56.  Velocity 93
000000t:  Control change ::  Channel 5.  Controller 11.  Value: 113
000001t:  Note on ::  Channel 5.  Note 61.  Velocity 97
000000t:  Note on ::  Channel 5.  Note 65.  Velocity 104
000000t:  Control change ::  Channel 5.  Controller 11.  Value: 108
000001t:  Control change ::  Channel 5.  Controller 11.  Value: 105
000001t:  Control change ::  Channel 5.  Controller 11.  Value: 101
000001t:  Control change ::  Channel 5.  Controller 11.  Value: 99
000001t:  Control change ::  Channel 5.  Controller 11.  Value: 97
000001t:  Control change ::  Channel 5.  Controller 11.  Value: 95
000001t:  Control change ::  Channel 5.  Controller 11.  Value: 94
000001t:  Control change ::  Channel 5.  Controller 11.  Value: 93
000001t:  Control change ::  Channel 5.  Controller 11.  Value: 92
000002t:  Control change ::  Channel 5.  Controller 11.  Value: 91
000003t:  Control change ::  Channel 5.  Controller 11.  Value: 90
000003t:  Note on ::  Channel 5.  Note 49.  Velocity 0
000001t:  Note on ::  Channel 5.  Note 56.  Velocity 0
000001t:  Note on ::  Channel 5.  Note 61.  Velocity 0
000000t:  Note on ::  Channel 5.  Note 65.  Velocity 0
000004t:  Control change ::  Channel 5.  Controller 11.  Value: 120
000000t:  Note on ::  Channel 5.  Note 49.  Velocity 90
000001t:  Note on ::  Channel 5.  Note 56.  Velocity 93
000000t:  Control change ::  Channel 5.  Controller 11.  Value: 118
000001t:  Note on ::  Channel 5.  Note 61.  Velocity 97
000000t:  Note on ::  Channel 5.  Note 65.  Velocity 104
000000t:  Control change ::  Channel 5.  Controller 11.  Value: 116
000001t:  Control change ::  Channel 5.  Controller 11.  Value: 114
000001t:  Control change ::  Channel 5.  Controller 11.  Value: 113
000001t:  Control change ::  Channel 5.  Controller 11.  Value: 112
000001t:  Control change ::  Channel 5.  Controller 11.  Value: 110
000001t:  Control change ::  Channel 5.  Controller 11.  Value: 109
000001t:  Control change ::  Channel 5.  Controller 11.  Value: 108
000001t:  Control change ::  Channel 5.  Controller 11.  Value: 106
000002t:  Control change ::  Channel 5.  Controller 11.  Value: 105
000001t:  Control change ::  Channel 5.  Controller 11.  Value: 104
000001t:  Control change ::  Channel 5.  Controller 11.  Value: 103
000001t:  Control change ::  Channel 5.  Controller 11.  Value: 102
000002t:  Control change ::  Channel 5.  Controller 11.  Value: 101
000001t:  Control change ::  Channel 5.  Controller 11.  Value: 100
000001t:  Control change ::  Channel 5.  Controller 11.  Value: 99
000002t:  Control change ::  Channel 5.  Controller 11.  Value: 98
000002t:  Control change ::  Channel 5.  Controller 11.  Value: 97
000002t:  Control change ::  Channel 5.  Controller 11.  Value: 96
000003t:  Control change ::  Channel 5.  Controller 11.  Value: 95
000003t:  Control change ::  Channel 5.  Controller 11.  Value: 94
000003t:  Control change ::  Channel 5.  Controller 11.  Value: 93
000005t:  Control change ::  Channel 5.  Controller 11.  Value: 92
000006t:  Control change ::  Channel 5.  Controller 11.  Value: 91
000012t:  Control change ::  Channel 5.  Controller 11.  Value: 90
000132t:  Note on ::  Channel 5.  Note 49.  Velocity 0
000001t:  Note on ::  Channel 5.  Note 56.  Velocity 0
000001t:  Note on ::  Channel 5.  Note 61.  Velocity 0
000000t:  Note on ::  Channel 5.  Note 65.  Velocity 0
000002t:  Control change ::  Channel 5.  Controller 11.  Value: 120
000000t:  Note on ::  Channel 5.  Note 44.  Velocity 80
000001t:  Note on ::  Channel 5.  Note 51.  Velocity 83
000000t:  Control change ::  Channel 5.  Controller 11.  Value: 117
000001t:  Note on ::  Channel 5.  Note 56.  Velocity 87
000000t:  Control change ::  Channel 5.  Controller 11.  Value: 115
000001t:  Note on ::  Channel 5.  Note 60.  Velocity 92
000000t:  Control change ::  Channel 5.  Controller 11.  Value: 113
000001t:  Note on ::  Channel 5.  Note 63.  Velocity 98
000000t:  Note on ::  Channel 5.  Note 68.  Velocity 105
000000t:  Control change ::  Channel 5.  Controller 11.  Value: 111
000001t:  Control change ::  Channel 5.  Controller 11.  Value: 109
000001t:  Control change ::  Channel 5.  Controller 11.  Value: 108
000001t:  Control change ::  Channel 5.  Controller 11.  Value: 106
000001t:  Control change ::  Channel 5.  Controller 11.  Value: 105
000001t:  Control change ::  Channel 5.  Controller 11.  Value: 104
000001t:  Control change ::  Channel 5.  Controller 11.  Value: 103
000001t:  Control change ::  Channel 5.  Controller 11.  Value: 102
000001t:  Control change ::  Channel 5.  Controller 11.  Value: 101
000001t:  Control change ::  Channel 5.  Controller 11.  Value: 100
000001t:  Control change ::  Channel 5.  Controller 11.  Value: 99
000002t:  Control change ::  Channel 5.  Controller 11.  Value: 98
000001t:  Control change ::  Channel 5.  Controller 11.  Value: 97
000002t:  Control change ::  Channel 5.  Controller 11.  Value: 96
000002t:  Control change ::  Channel 5.  Controller 11.  Value: 95
000002t:  Control change ::  Channel 5.  Controller 11.  Value: 94
000003t:  Control change ::  Channel 5.  Controller 11.  Value: 93
000004t:  Control change ::  Channel 5.  Controller 11.  Value: 92
000004t:  Control change ::  Channel 5.  Controller 11.  Value: 91
000009t:  Control change ::  Channel 5.  Controller 11.  Value: 90
000025t:  Note on ::  Channel 5.  Note 44.  Velocity 0
000000t:  Pitch wheel change ::  Channel 5.   -8192
000001t:  Note on ::  Channel 5.  Note 51.  Velocity 0
000001t:  Note on ::  Channel 5.  Note 56.  Velocity 0
000000t:  Pitch wheel change ::  Channel 5.   -8192
000001t:  Note on ::  Channel 5.  Note 60.  Velocity 0
000001t:  Note on ::  Channel 5.  Note 63.  Velocity 0
000000t:  Note on ::  Channel 5.  Note 68.  Velocity 0
000000t:  Control change ::  Channel 5.  Controller 11.  Value: 120
000000t:  Note on ::  Channel 5.  Note 46.  Velocity 60
000001t:  Note on ::  Channel 5.  Note 46.  Velocity 0
000000t:  Pitch wheel change ::  Channel 5.   -8192
000000t:  Note on ::  Channel 5.  Note 46.  Velocity 80
000000t:  Control change ::  Channel 5.  Controller 11.  Value: 117
000001t:  Note on ::  Channel 5.  Note 53.  Velocity 83
000000t:  Control change ::  Channel 5.  Controller 11.  Value: 115
000001t:  Note on ::  Channel 5.  Note 58.  Velocity 87
000000t:  Control change ::  Channel 5.  Controller 11.  Value: 113
000001t:  Note on ::  Channel 5.  Note 61.  Velocity 92
000000t:  Control change ::  Channel 5.  Controller 11.  Value: 111
000001t:  Note on ::  Channel 5.  Note 65.  Velocity 98
000000t:  Note on ::  Channel 5.  Note 70.  Velocity 105
000000t:  Control change ::  Channel 5.  Controller 11.  Value: 110
000001t:  Control change ::  Channel 5.  Controller 11.  Value: 108
000001t:  Control change ::  Channel 5.  Controller 11.  Value: 107
000001t:  Control change ::  Channel 5.  Controller 11.  Value: 105
000002t:  Control change ::  Channel 5.  Controller 11.  Value: 103
000001t:  Control change ::  Channel 5.  Controller 11.  Value: 102
000001t:  Control change ::  Channel 5.  Controller 11.  Value: 101
000001t:  Control change ::  Channel 5.  Controller 11.  Value: 100
000002t:  Control change ::  Channel 5.  Controller 11.  Value: 99
000001t:  Control change ::  Channel 5.  Controller 11.  Value: 98
000001t:  Control change ::  Channel 5.  Controller 11.  Value: 97
000002t:  Control change ::  Channel 5.  Controller 11.  Value: 96
000002t:  Control change ::  Channel 5.  Controller 11.  Value: 95
000003t:  Control change ::  Channel 5.  Controller 11.  Value: 94
000002t:  Control change ::  Channel 5.  Controller 11.  Value: 93
000004t:  Control change ::  Channel 5.  Controller 11.  Value: 92
000005t:  Control change ::  Channel 5.  Controller 11.  Value: 91
000009t:  Control change ::  Channel 5.  Controller 11.  Value: 90
000024t:  Pitch wheel change ::  Channel 5.   -8192
000001t:  Note on ::  Channel 5.  Note 46.  Velocity 0
000001t:  Note on ::  Channel 5.  Note 53.  Velocity 0
000000t:  Pitch wheel change ::  Channel 5.   -8192
000001t:  Note on ::  Channel 5.  Note 58.  Velocity 0
000001t:  Note on ::  Channel 5.  Note 61.  Velocity 0
000001t:  Note on ::  Channel 5.  Note 65.  Velocity 0
000000t:  Note on ::  Channel 5.  Note 70.  Velocity 0
000000t:  Control change ::  Channel 5.  Controller 11.  Value: 120
000000t:  Note on ::  Channel 5.  Note 42.  Velocity 68
000001t:  Note on ::  Channel 5.  Note 42.  Velocity 0
000000t:  Pitch wheel change ::  Channel 5.   -8192
000000t:  Note on ::  Channel 5.  Note 42.  Velocity 80
000000t:  Control change ::  Channel 5.  Controller 11.  Value: 117
000001t:  Note on ::  Channel 5.  Note 49.  Velocity 83
000000t:  Control change ::  Channel 5.  Controller 11.  Value: 115
000001t:  Note on ::  Channel 5.  Note 54.  Velocity 87
000000t:  Control change ::  Channel 5.  Controller 11.  Value: 113
000001t:  Note on ::  Channel 5.  Note 58.  Velocity 92
000000t:  Control change ::  Channel 5.  Controller 11.  Value: 111
000001t:  Note on ::  Channel 5.  Note 61.  Velocity 98
000000t:  Note on ::  Channel 5.  Note 66.  Velocity 105
000000t:  Control change ::  Channel 5.  Controller 11.  Value: 109
000001t:  Control change ::  Channel 5.  Controller 11.  Value: 108
000001t:  Control change ::  Channel 5.  Controller 11.  Value: 106
000001t:  Control change ::  Channel 5.  Controller 11.  Value: 105
000001t:  Control change ::  Channel 5.  Controller 11.  Value: 104
000001t:  Control change ::  Channel 5.  Controller 11.  Value: 103
000001t:  Control change ::  Channel 5.  Controller 11.  Value: 102
000001t:  Control change ::  Channel 5.  Controller 11.  Value: 101
000001t:  Control change ::  Channel 5.  Controller 11.  Value: 100
000001t:  Control change ::  Channel 5.  Controller 11.  Value: 99
000002t:  Control change ::  Channel 5.  Controller 11.  Value: 98
000001t:  Control change ::  Channel 5.  Controller 11.  Value: 97
000002t:  Control change ::  Channel 5.  Controller 11.  Value: 96
000001t:  Control change ::  Channel 5.  Controller 11.  Value: 95
000003t:  Control change ::  Channel 5.  Controller 11.  Value: 94
000002t:  Control change ::  Channel 5.  Controller 11.  Value: 93
000004t:  Control change ::  Channel 5.  Controller 11.  Value: 92
000005t:  Control change ::  Channel 5.  Controller 11.  Value: 91
000009t:  Control change ::  Channel 5.  Controller 11.  Value: 90
000024t:  Pitch wheel change ::  Channel 5.   -8192
000002t:  Note on ::  Channel 5.  Note 42.  Velocity 0
000000t:  Pitch wheel change ::  Channel 5.   -8192
000001t:  Note on ::  Channel 5.  Note 49.  Velocity 0
000001t:  Note on ::  Channel 5.  Note 54.  Velocity 0
000000t:  Control change ::  Channel 5.  Controller 11.  Value: 120
000000t:  Note on ::  Channel 5.  Note 44.  Velocity 72
000001t:  Note on ::  Channel 5.  Note 44.  Velocity 0
000000t:  Note on ::  Channel 5.  Note 58.  Velocity 0
000000t:  Pitch wheel change ::  Channel 5.   -8192
000000t:  Note on ::  Channel 5.  Note 44.  Velocity 80
000000t:  Control change ::  Channel 5.  Controller 11.  Value: 116
000001t:  Note on ::  Channel 5.  Note 61.  Velocity 0
000000t:  Note on ::  Channel 5.  Note 66.  Velocity 0
000000t:  Note on ::  Channel 5.  Note 51.  Velocity 83
000000t:  Control change ::  Channel 5.  Controller 11.  Value: 113
000001t:  Note on ::  Channel 5.  Note 56.  Velocity 87
000000t:  Control change ::  Channel 5.  Controller 11.  Value: 110
000001t:  Note on ::  Channel 5.  Note 60.  Velocity 92
000000t:  Control change ::  Channel 5.  Controller 11.  Value: 108
000001t:  Note on ::  Channel 5.  Note 63.  Velocity 98
000000t:  Note on ::  Channel 5.  Note 68.  Velocity 105
000000t:  Control change ::  Channel 5.  Controller 11.  Value: 106
000001t:  Control change ::  Channel 5.  Controller 11.  Value: 104
000001t:  Control change ::  Channel 5.  Controller 11.  Value: 102
000001t:  Control change ::  Channel 5.  Controller 11.  Value: 101
000001t:  Control change ::  Channel 5.  Controller 11.  Value: 100
000001t:  Control change ::  Channel 5.  Controller 11.  Value: 99
000001t:  Control change ::  Channel 5.  Controller 11.  Value: 98
000001t:  Control change ::  Channel 5.  Controller 11.  Value: 97
000001t:  Control change ::  Channel 5.  Controller 11.  Value: 96
000001t:  Control change ::  Channel 5.  Controller 11.  Value: 95
000002t:  Control change ::  Channel 5.  Controller 11.  Value: 94
000001t:  Control change ::  Channel 5.  Controller 11.  Value: 93
000003t:  Control change ::  Channel 5.  Controller 11.  Value: 92
000003t:  Control change ::  Channel 5.  Controller 11.  Value: 91
000006t:  Control change ::  Channel 5.  Controller 11.  Value: 90
000010t:  Note on ::  Channel 5.  Note 44.  Velocity 0
000001t:  Note on ::  Channel 5.  Note 51.  Velocity 0
000001t:  Note on ::  Channel 5.  Note 56.  Velocity 0
000001t:  Note on ::  Channel 5.  Note 60.  Velocity 0
000001t:  Note on ::  Channel 5.  Note 63.  Velocity 0
000000t:  Note on ::  Channel 5.  Note 68.  Velocity 0
000005t:  Control change ::  Channel 5.  Controller 11.  Value: 120
000000t:  Note on ::  Channel 5.  Note 49.  Velocity 90
000001t:  Note on ::  Channel 5.  Note 56.  Velocity 94
000000t:  Control change ::  Channel 5.  Controller 11.  Value: 113
000001t:  Note on ::  Channel 5.  Note 61.  Velocity 99
000000t:  Note on ::  Channel 5.  Note 65.  Velocity 105
000000t:  Control change ::  Channel 5.  Controller 11.  Value: 108
000001t:  Control change ::  Channel 5.  Controller 11.  Value: 104
000001t:  Control change ::  Channel 5.  Controller 11.  Value: 101
000001t:  Control change ::  Channel 5.  Controller 11.  Value: 98
000001t:  Control change ::  Channel 5.  Controller 11.  Value: 96
000001t:  Control change ::  Channel 5.  Controller 11.  Value: 95
000001t:  Control change ::  Channel 5.  Controller 11.  Value: 94
000001t:  Control change ::  Channel 5.  Controller 11.  Value: 93
000001t:  Control change ::  Channel 5.  Controller 11.  Value: 92
000001t:  Control change ::  Channel 5.  Controller 11.  Value: 91
000003t:  Control change ::  Channel 5.  Controller 11.  Value: 90
000004t:  Note on ::  Channel 5.  Note 49.  Velocity 0
000001t:  Note on ::  Channel 5.  Note 56.  Velocity 0
000001t:  Note on ::  Channel 5.  Note 61.  Velocity 0
000000t:  Note on ::  Channel 5.  Note 65.  Velocity 0
000004t:  Control change ::  Channel 5.  Controller 11.  Value: 120
000000t:  Note on ::  Channel 5.  Note 49.  Velocity 90
000001t:  Note on ::  Channel 5.  Note 56.  Velocity 94
000000t:  Control change ::  Channel 5.  Controller 11.  Value: 117
000001t:  Note on ::  Channel 5.  Note 61.  Velocity 99
000000t:  Note on ::  Channel 5.  Note 65.  Velocity 105
000000t:  Control change ::  Channel 5.  Controller 11.  Value: 115
000001t:  Control change ::  Channel 5.  Controller 11.  Value: 114
000001t:  Control change ::  Channel 5.  Controller 11.  Value: 112
000001t:  Control change ::  Channel 5.  Controller 11.  Value: 111
000001t:  Control change ::  Channel 5.  Controller 11.  Value: 109
000001t:  Control change ::  Channel 5.  Controller 11.  Value: 108
000001t:  Control change ::  Channel 5.  Controller 11.  Value: 107
000001t:  Control change ::  Channel 5.  Controller 11.  Value: 106
000001t:  Control change ::  Channel 5.  Controller 11.  Value: 105
000001t:  Control change ::  Channel 5.  Controller 11.  Value: 104
000001t:  Control change ::  Channel 5.  Controller 11.  Value: 103
000001t:  Control change ::  Channel 5.  Controller 11.  Value: 102
000001t:  Control change ::  Channel 5.  Controller 11.  Value: 101
000002t:  Control change ::  Channel 5.  Controller 11.  Value: 100
000001t:  Control change ::  Channel 5.  Controller 11.  Value: 99
000002t:  Control change ::  Channel 5.  Controller 11.  Value: 98
000001t:  Control change ::  Channel 5.  Controller 11.  Value: 97
000002t:  Control change ::  Channel 5.  Controller 11.  Value: 96
000003t:  Control change ::  Channel 5.  Controller 11.  Value: 95
000003t:  Control change ::  Channel 5.  Controller 11.  Value: 94
000003t:  Control change ::  Channel 5.  Controller 11.  Value: 93
000004t:  Control change ::  Channel 5.  Controller 11.  Value: 92
000006t:  Control change ::  Channel 5.  Controller 11.  Value: 91
000011t:  Control change ::  Channel 5.  Controller 11.  Value: 90
000136t:  Note on ::  Channel 5.  Note 49.  Velocity 0
000001t:  Note on ::  Channel 5.  Note 56.  Velocity 0
000002t:  Note on ::  Channel 5.  Note 61.  Velocity 0
000000t:  Note on ::  Channel 5.  Note 65.  Velocity 0
000001t:  Control change ::  Channel 5.  Controller 11.  Value: 120
000000t:  Note on ::  Channel 5.  Note 44.  Velocity 80
000001t:  Note on ::  Channel 5.  Note 51.  Velocity 83
000000t:  Control change ::  Channel 5.  Controller 11.  Value: 117
000001t:  Note on ::  Channel 5.  Note 56.  Velocity 87
000000t:  Control change ::  Channel 5.  Controller 11.  Value: 115
000001t:  Note on ::  Channel 5.  Note 60.  Velocity 92
000000t:  Control change ::  Channel 5.  Controller 11.  Value: 113
000001t:  Note on ::  Channel 5.  Note 63.  Velocity 98
000000t:  Note on ::  Channel 5.  Note 68.  Velocity 105
000000t:  Control change ::  Channel 5.  Controller 11.  Value: 111
000001t:  Control change ::  Channel 5.  Controller 11.  Value: 109
000001t:  Control change ::  Channel 5.  Controller 11.  Value: 108
000001t:  Control change ::  Channel 5.  Controller 11.  Value: 106
000001t:  Control change ::  Channel 5.  Controller 11.  Value: 105
000001t:  Control change ::  Channel 5.  Controller 11.  Value: 104
000001t:  Control change ::  Channel 5.  Controller 11.  Value: 103
000001t:  Control change ::  Channel 5.  Controller 11.  Value: 102
000001t:  Control change ::  Channel 5.  Controller 11.  Value: 101
000001t:  Control change ::  Channel 5.  Controller 11.  Value: 100
000001t:  Control change ::  Channel 5.  Controller 11.  Value: 99
000002t:  Control change ::  Channel 5.  Controller 11.  Value: 98
000001t:  Control change ::  Channel 5.  Controller 11.  Value: 97
000002t:  Control change ::  Channel 5.  Controller 11.  Value: 96
000002t:  Control change ::  Channel 5.  Controller 11.  Value: 95
000002t:  Control change ::  Channel 5.  Controller 11.  Value: 94
000003t:  Control change ::  Channel 5.  Controller 11.  Value: 93
000004t:  Control change ::  Channel 5.  Controller 11.  Value: 92
000004t:  Control change ::  Channel 5.  Controller 11.  Value: 91
000009t:  Control change ::  Channel 5.  Controller 11.  Value: 90
000025t:  Pitch wheel change ::  Channel 5.   -8192
000001t:  Note on ::  Channel 5.  Note 51.  Velocity 0
000000t:  Note on ::  Channel 5.  Note 44.  Velocity 0
000001t:  Note on ::  Channel 5.  Note 56.  Velocity 0
000001t:  Note on ::  Channel 5.  Note 60.  Velocity 0
000000t:  Pitch wheel change ::  Channel 5.   -8192
000001t:  Note on ::  Channel 5.  Note 63.  Velocity 0
000000t:  Note on ::  Channel 5.  Note 68.  Velocity 0
000002t:  Control change ::  Channel 5.  Controller 11.  Value: 120
000000t:  Note on ::  Channel 5.  Note 46.  Velocity 80
000000t:  Pitch wheel change ::  Channel 5.   -8192
000001t:  Note on ::  Channel 5.  Note 53.  Velocity 83
000000t:  Control change ::  Channel 5.  Controller 11.  Value: 117
000001t:  Note on ::  Channel 5.  Note 58.  Velocity 87
000000t:  Control change ::  Channel 5.  Controller 11.  Value: 115
000001t:  Note on ::  Channel 5.  Note 61.  Velocity 92
000000t:  Control change ::  Channel 5.  Controller 11.  Value: 113
000001t:  Note on ::  Channel 5.  Note 65.  Velocity 98
000000t:  Note on ::  Channel 5.  Note 70.  Velocity 105
000000t:  Control change ::  Channel 5.  Controller 11.  Value: 111
000001t:  Control change ::  Channel 5.  Controller 11.  Value: 109
000001t:  Control change ::  Channel 5.  Controller 11.  Value: 108
000001t:  Control change ::  Channel 5.  Controller 11.  Value: 106
000001t:  Control change ::  Channel 5.  Controller 11.  Value: 105
000001t:  Control change ::  Channel 5.  Controller 11.  Value: 104
000001t:  Control change ::  Channel 5.  Controller 11.  Value: 103
000001t:  Control change ::  Channel 5.  Controller 11.  Value: 102
000001t:  Control change ::  Channel 5.  Controller 11.  Value: 101
000001t:  Control change ::  Channel 5.  Controller 11.  Value: 100
000001t:  Control change ::  Channel 5.  Controller 11.  Value: 99
000002t:  Control change ::  Channel 5.  Controller 11.  Value: 98
000001t:  Control change ::  Channel 5.  Controller 11.  Value: 97
000002t:  Control change ::  Channel 5.  Controller 11.  Value: 96
000001t:  Control change ::  Channel 5.  Controller 11.  Value: 95
000003t:  Control change ::  Channel 5.  Controller 11.  Value: 94
000002t:  Control change ::  Channel 5.  Controller 11.  Value: 93
000004t:  Control change ::  Channel 5.  Controller 11.  Value: 92
000005t:  Control change ::  Channel 5.  Controller 11.  Value: 91
000009t:  Control change ::  Channel 5.  Controller 11.  Value: 90
000024t:  Pitch wheel change ::  Channel 5.   -8192
000001t:  Note on ::  Channel 5.  Note 46.  Velocity 0
000001t:  Note on ::  Channel 5.  Note 53.  Velocity 0
000000t:  Pitch wheel change ::  Channel 5.   -8192
000001t:  Note on ::  Channel 5.  Note 58.  Velocity 0
000001t:  Note on ::  Channel 5.  Note 61.  Velocity 0
000000t:  Control change ::  Channel 5.  Controller 11.  Value: 120
000000t:  Note on ::  Channel 5.  Note 42.  Velocity 80
000000t:  Pitch wheel change ::  Channel 5.   -8192
000001t:  Note on ::  Channel 5.  Note 65.  Velocity 0
000000t:  Note on ::  Channel 5.  Note 70.  Velocity 0
000000t:  Note on ::  Channel 5.  Note 49.  Velocity 83
000000t:  Control change ::  Channel 5.  Controller 11.  Value: 117
000001t:  Note on ::  Channel 5.  Note 54.  Velocity 87
000000t:  Control change ::  Channel 5.  Controller 11.  Value: 115
000001t:  Note on ::  Channel 5.  Note 58.  Velocity 92
000000t:  Control change ::  Channel 5.  Controller 11.  Value: 113
000001t:  Note on ::  Channel 5.  Note 61.  Velocity 98
000000t:  Note on ::  Channel 5.  Note 66.  Velocity 105
000000t:  Control change ::  Channel 5.  Controller 11.  Value: 111
000001t:  Control change ::  Channel 5.  Controller 11.  Value: 109
000001t:  Control change ::  Channel 5.  Controller 11.  Value: 108
000001t:  Control change ::  Channel 5.  Controller 11.  Value: 106
000001t:  Control change ::  Channel 5.  Controller 11.  Value: 105
000001t:  Control change ::  Channel 5.  Controller 11.  Value: 104
000001t:  Control change ::  Channel 5.  Controller 11.  Value: 103
000001t:  Control change ::  Channel 5.  Controller 11.  Value: 102
000001t:  Control change ::  Channel 5.  Controller 11.  Value: 101
000001t:  Control change ::  Channel 5.  Controller 11.  Value: 100
000001t:  Control change ::  Channel 5.  Controller 11.  Value: 99
000002t:  Control change ::  Channel 5.  Controller 11.  Value: 98
000001t:  Control change ::  Channel 5.  Controller 11.  Value: 97
000002t:  Control change ::  Channel 5.  Controller 11.  Value: 96
000001t:  Control change ::  Channel 5.  Controller 11.  Value: 95
000003t:  Control change ::  Channel 5.  Controller 11.  Value: 94
000002t:  Control change ::  Channel 5.  Controller 11.  Value: 93
000004t:  Control change ::  Channel 5.  Controller 11.  Value: 92
000005t:  Control change ::  Channel 5.  Controller 11.  Value: 91
000009t:  Control change ::  Channel 5.  Controller 11.  Value: 90
000023t:  Pitch wheel change ::  Channel 5.   -8192
000002t:  Note on ::  Channel 5.  Note 42.  Velocity 0
000000t:  Pitch wheel change ::  Channel 5.   -8192
000001t:  Note on ::  Channel 5.  Note 49.  Velocity 0
000001t:  Note on ::  Channel 5.  Note 54.  Velocity 0
000000t:  Control change ::  Channel 5.  Controller 11.  Value: 120
000000t:  Note on ::  Channel 5.  Note 44.  Velocity 80
000000t:  Pitch wheel change ::  Channel 5.   -8192
000001t:  Note on ::  Channel 5.  Note 58.  Velocity 0
000000t:  Note on ::  Channel 5.  Note 51.  Velocity 83
000000t:  Control change ::  Channel 5.  Controller 11.  Value: 116
000001t:  Note on ::  Channel 5.  Note 66.  Velocity 0
000000t:  Note on ::  Channel 5.  Note 61.  Velocity 0
000000t:  Note on ::  Channel 5.  Note 56.  Velocity 87
000000t:  Control change ::  Channel 5.  Controller 11.  Value: 114
000001t:  Note on ::  Channel 5.  Note 60.  Velocity 92
000000t:  Control change ::  Channel 5.  Controller 11.  Value: 112
000001t:  Note on ::  Channel 5.  Note 63.  Velocity 98
000000t:  Note on ::  Channel 5.  Note 68.  Velocity 105
000000t:  Control change ::  Channel 5.  Controller 11.  Value: 109
000001t:  Control change ::  Channel 5.  Controller 11.  Value: 107
000001t:  Control change ::  Channel 5.  Controller 11.  Value: 106
000001t:  Control change ::  Channel 5.  Controller 11.  Value: 104
000001t:  Control change ::  Channel 5.  Controller 11.  Value: 103
000001t:  Control change ::  Channel 5.  Controller 11.  Value: 102
000001t:  Control change ::  Channel 5.  Controller 11.  Value: 101
000001t:  Control change ::  Channel 5.  Controller 11.  Value: 100
000001t:  Control change ::  Channel 5.  Controller 11.  Value: 99
000001t:  Control change ::  Channel 5.  Controller 11.  Value: 98
000002t:  Control change ::  Channel 5.  Controller 11.  Value: 97
000002t:  Control change ::  Channel 5.  Controller 11.  Value: 96
000002t:  Control change ::  Channel 5.  Controller 11.  Value: 95
000004t:  Control change ::  Channel 5.  Controller 11.  Value: 94
000005t:  Control change ::  Channel 5.  Controller 11.  Value: 93
000010t:  Note on ::  Channel 5.  Note 44.  Velocity 0
000001t:  Note on ::  Channel 5.  Note 51.  Velocity 0
000001t:  Note on ::  Channel 5.  Note 56.  Velocity 0
000001t:  Note on ::  Channel 5.  Note 60.  Velocity 0
000001t:  Note on ::  Channel 5.  Note 63.  Velocity 0
000002t:  Note on ::  Channel 5.  Note 68.  Velocity 0
000002t:  Pitch wheel change ::  Channel 5.   -8192
000001t:  Pitch wheel change ::  Channel 5.   -8192
000001t:  Control change ::  Channel 5.  Controller 11.  Value: 120
000000t:  Note on ::  Channel 5.  Note 49.  Velocity 80
000001t:  Note on ::  Channel 5.  Note 49.  Velocity 0
000000t:  Pitch wheel change ::  Channel 5.   -8192
000000t:  Note on ::  Channel 5.  Note 49.  Velocity 90
000000t:  Control change ::  Channel 5.  Controller 11.  Value: 115
000001t:  Note on ::  Channel 5.  Note 56.  Velocity 94
000000t:  Control change ::  Channel 5.  Controller 11.  Value: 113
000001t:  Note on ::  Channel 5.  Note 61.  Velocity 98
000000t:  Note on ::  Channel 5.  Note 65.  Velocity 105
000000t:  Control change ::  Channel 5.  Controller 11.  Value: 110
000001t:  Control change ::  Channel 5.  Controller 11.  Value: 108
000001t:  Control change ::  Channel 5.  Controller 11.  Value: 107
000001t:  Control change ::  Channel 5.  Controller 11.  Value: 105
000001t:  Control change ::  Channel 5.  Controller 11.  Value: 104
000002t:  Control change ::  Channel 5.  Controller 11.  Value: 103
000002t:  Control change ::  Channel 5.  Controller 11.  Value: 102
000003t:  Control change ::  Channel 5.  Controller 11.  Value: 101
000005t:  Note on ::  Channel 5.  Note 49.  Velocity 0
000001t:  Note on ::  Channel 5.  Note 56.  Velocity 0
000001t:  Note on ::  Channel 5.  Note 61.  Velocity 0
000000t:  Note on ::  Channel 5.  Note 65.  Velocity 0
000004t:  Control change ::  Channel 5.  Controller 11.  Value: 120
000000t:  Note on ::  Channel 5.  Note 49.  Velocity 94
000001t:  Note on ::  Channel 5.  Note 56.  Velocity 97
000000t:  Control change ::  Channel 5.  Controller 11.  Value: 118
000001t:  Note on ::  Channel 5.  Note 61.  Velocity 101
000000t:  Note on ::  Channel 5.  Note 65.  Velocity 106
000000t:  Control change ::  Channel 5.  Controller 11.  Value: 116
000001t:  Control change ::  Channel 5.  Controller 11.  Value: 114
000001t:  Control change ::  Channel 5.  Controller 11.  Value: 113
000001t:  Control change ::  Channel 5.  Controller 11.  Value: 111
000001t:  Control change ::  Channel 5.  Controller 11.  Value: 110
000001t:  Control change ::  Channel 5.  Controller 11.  Value: 108
000001t:  Control change ::  Channel 5.  Controller 11.  Value: 107
000001t:  Control change ::  Channel 5.  Controller 11.  Value: 106
000001t:  Control change ::  Channel 5.  Controller 11.  Value: 105
000002t:  Control change ::  Channel 5.  Controller 11.  Value: 103
000002t:  Control change ::  Channel 5.  Controller 11.  Value: 102
000001t:  Control change ::  Channel 5.  Controller 11.  Value: 101
000001t:  Control change ::  Channel 5.  Controller 11.  Value: 100
000002t:  Control change ::  Channel 5.  Controller 11.  Value: 99
000001t:  Control change ::  Channel 5.  Controller 11.  Value: 98
000002t:  Control change ::  Channel 5.  Controller 11.  Value: 97
000002t:  Control change ::  Channel 5.  Controller 11.  Value: 96
000003t:  Control change ::  Channel 5.  Controller 11.  Value: 95
000003t:  Control change ::  Channel 5.  Controller 11.  Value: 94
000003t:  Control change ::  Channel 5.  Controller 11.  Value: 93
000005t:  Control change ::  Channel 5.  Controller 11.  Value: 92
000005t:  Control change ::  Channel 5.  Controller 11.  Value: 91
000011t:  Control change ::  Channel 5.  Controller 11.  Value: 90
000135t:  Note on ::  Channel 5.  Note 49.  Velocity 0
000001t:  Note on ::  Channel 5.  Note 56.  Velocity 0
000001t:  Note on ::  Channel 5.  Note 61.  Velocity 0
000000t:  Note on ::  Channel 5.  Note 65.  Velocity 0
000002t:  Control change ::  Channel 5.  Controller 11.  Value: 120
000000t:  Note on ::  Channel 5.  Note 44.  Velocity 80
000001t:  Note on ::  Channel 5.  Note 51.  Velocity 83
000000t:  Control change ::  Channel 5.  Controller 11.  Value: 117
000001t:  Note on ::  Channel 5.  Note 56.  Velocity 87
000000t:  Control change ::  Channel 5.  Controller 11.  Value: 115
000001t:  Note on ::  Channel 5.  Note 60.  Velocity 92
000000t:  Control change ::  Channel 5.  Controller 11.  Value: 113
000001t:  Note on ::  Channel 5.  Note 63.  Velocity 98
000000t:  Note on ::  Channel 5.  Note 68.  Velocity 105
000000t:  Control change ::  Channel 5.  Controller 11.  Value: 111
000001t:  Control change ::  Channel 5.  Controller 11.  Value: 109
000001t:  Control change ::  Channel 5.  Controller 11.  Value: 108
000001t:  Control change ::  Channel 5.  Controller 11.  Value: 106
000001t:  Control change ::  Channel 5.  Controller 11.  Value: 105
000001t:  Control change ::  Channel 5.  Controller 11.  Value: 104
000001t:  Control change ::  Channel 5.  Controller 11.  Value: 103
000001t:  Control change ::  Channel 5.  Controller 11.  Value: 102
000001t:  Control change ::  Channel 5.  Controller 11.  Value: 101
000001t:  Control change ::  Channel 5.  Controller 11.  Value: 100
000001t:  Control change ::  Channel 5.  Controller 11.  Value: 99
000002t:  Control change ::  Channel 5.  Controller 11.  Value: 98
000001t:  Control change ::  Channel 5.  Controller 11.  Value: 97
000002t:  Control change ::  Channel 5.  Controller 11.  Value: 96
000002t:  Control change ::  Channel 5.  Controller 11.  Value: 95
000002t:  Control change ::  Channel 5.  Controller 11.  Value: 94
000003t:  Control change ::  Channel 5.  Controller 11.  Value: 93
000004t:  Control change ::  Channel 5.  Controller 11.  Value: 92
000004t:  Control change ::  Channel 5.  Controller 11.  Value: 91
000009t:  Control change ::  Channel 5.  Controller 11.  Value: 90
000025t:  Note on ::  Channel 5.  Note 44.  Velocity 0
000000t:  Pitch wheel change ::  Channel 5.   -8192
000001t:  Note on ::  Channel 5.  Note 51.  Velocity 0
000001t:  Note on ::  Channel 5.  Note 56.  Velocity 0
000000t:  Pitch wheel change ::  Channel 5.   -8192
000001t:  Note on ::  Channel 5.  Note 60.  Velocity 0
000001t:  Note on ::  Channel 5.  Note 63.  Velocity 0
000000t:  Note on ::  Channel 5.  Note 68.  Velocity 0
000000t:  Control change ::  Channel 5.  Controller 11.  Value: 120
000000t:  Note on ::  Channel 5.  Note 46.  Velocity 70
000001t:  Note on ::  Channel 5.  Note 46.  Velocity 0
000000t:  Pitch wheel change ::  Channel 5.   -8192
000000t:  Note on ::  Channel 5.  Note 46.  Velocity 80
000000t:  Control change ::  Channel 5.  Controller 11.  Value: 117
000001t:  Note on ::  Channel 5.  Note 53.  Velocity 83
000000t:  Control change ::  Channel 5.  Controller 11.  Value: 115
000001t:  Note on ::  Channel 5.  Note 58.  Velocity 87
000000t:  Control change ::  Channel 5.  Controller 11.  Value: 113
000001t:  Note on ::  Channel 5.  Note 61.  Velocity 92
000000t:  Control change ::  Channel 5.  Controller 11.  Value: 111
000001t:  Note on ::  Channel 5.  Note 65.  Velocity 98
000000t:  Note on ::  Channel 5.  Note 70.  Velocity 105
000000t:  Control change ::  Channel 5.  Controller 11.  Value: 109
000001t:  Control change ::  Channel 5.  Controller 11.  Value: 108
000001t:  Control change ::  Channel 5.  Controller 11.  Value: 106
000001t:  Control change ::  Channel 5.  Controller 11.  Value: 105
000001t:  Control change ::  Channel 5.  Controller 11.  Value: 104
000001t:  Control change ::  Channel 5.  Controller 11.  Value: 103
000001t:  Control change ::  Channel 5.  Controller 11.  Value: 102
000001t:  Control change ::  Channel 5.  Controller 11.  Value: 101
000001t:  Control change ::  Channel 5.  Controller 11.  Value: 100
000001t:  Control change ::  Channel 5.  Controller 11.  Value: 99
000002t:  Control change ::  Channel 5.  Controller 11.  Value: 98
000001t:  Control change ::  Channel 5.  Controller 11.  Value: 97
000002t:  Control change ::  Channel 5.  Controller 11.  Value: 96
000002t:  Control change ::  Channel 5.  Controller 11.  Value: 95
000002t:  Control change ::  Channel 5.  Controller 11.  Value: 94
000003t:  Control change ::  Channel 5.  Controller 11.  Value: 93
000004t:  Control change ::  Channel 5.  Controller 11.  Value: 92
000004t:  Control change ::  Channel 5.  Controller 11.  Value: 91
000009t:  Control change ::  Channel 5.  Controller 11.  Value: 90
000025t:  Pitch wheel change ::  Channel 5.   -8192
000001t:  Note on ::  Channel 5.  Note 46.  Velocity 0
000001t:  Note on ::  Channel 5.  Note 53.  Velocity 0
000000t:  Pitch wheel change ::  Channel 5.   -8192
000001t:  Note on ::  Channel 5.  Note 58.  Velocity 0
000001t:  Note on ::  Channel 5.  Note 61.  Velocity 0
000000t:  Control change ::  Channel 5.  Controller 11.  Value: 120
000000t:  Note on ::  Channel 5.  Note 42.  Velocity 70
000001t:  Note on ::  Channel 5.  Note 42.  Velocity 0
000000t:  Note on ::  Channel 5.  Note 65.  Velocity 0
000000t:  Note on ::  Channel 5.  Note 70.  Velocity 0
000000t:  Pitch wheel change ::  Channel 5.   -8192
000000t:  Note on ::  Channel 5.  Note 42.  Velocity 80
000000t:  Control change ::  Channel 5.  Controller 11.  Value: 117
000001t:  Note on ::  Channel 5.  Note 49.  Velocity 83
000000t:  Control change ::  Channel 5.  Controller 11.  Value: 115
000001t:  Note on ::  Channel 5.  Note 54.  Velocity 87
000000t:  Control change ::  Channel 5.  Controller 11.  Value: 113
000001t:  Note on ::  Channel 5.  Note 58.  Velocity 92
000000t:  Control change ::  Channel 5.  Controller 11.  Value: 111
000001t:  Note on ::  Channel 5.  Note 61.  Velocity 98
000000t:  Note on ::  Channel 5.  Note 66.  Velocity 105
000000t:  Control change ::  Channel 5.  Controller 11.  Value: 109
000001t:  Control change ::  Channel 5.  Controller 11.  Value: 108
000001t:  Control change ::  Channel 5.  Controller 11.  Value: 106
000001t:  Control change ::  Channel 5.  Controller 11.  Value: 105
000001t:  Control change ::  Channel 5.  Controller 11.  Value: 104
000001t:  Control change ::  Channel 5.  Controller 11.  Value: 103
000001t:  Control change ::  Channel 5.  Controller 11.  Value: 102
000001t:  Control change ::  Channel 5.  Controller 11.  Value: 101
000001t:  Control change ::  Channel 5.  Controller 11.  Value: 100
000001t:  Control change ::  Channel 5.  Controller 11.  Value: 99
000002t:  Control change ::  Channel 5.  Controller 11.  Value: 98
000001t:  Control change ::  Channel 5.  Controller 11.  Value: 97
000002t:  Control change ::  Channel 5.  Controller 11.  Value: 96
000002t:  Control change ::  Channel 5.  Controller 11.  Value: 95
000002t:  Control change ::  Channel 5.  Controller 11.  Value: 94
000003t:  Control change ::  Channel 5.  Controller 11.  Value: 93
000004t:  Control change ::  Channel 5.  Controller 11.  Value: 92
000004t:  Control change ::  Channel 5.  Controller 11.  Value: 91
000009t:  Control change ::  Channel 5.  Controller 11.  Value: 90
000025t:  Pitch wheel change ::  Channel 5.   -8192
000001t:  Note on ::  Channel 5.  Note 42.  Velocity 0
000001t:  Note on ::  Channel 5.  Note 49.  Velocity 0
000000t:  Pitch wheel change ::  Channel 5.   -8192
000001t:  Note on ::  Channel 5.  Note 54.  Velocity 0
000001t:  Note on ::  Channel 5.  Note 58.  Velocity 0
000000t:  Control change ::  Channel 5.  Controller 11.  Value: 120
000000t:  Note on ::  Channel 5.  Note 41.  Velocity 72
000001t:  Note on ::  Channel 5.  Note 41.  Velocity 0
000000t:  Note on ::  Channel 5.  Note 61.  Velocity 0
000000t:  Note on ::  Channel 5.  Note 66.  Velocity 0
000000t:  Pitch wheel change ::  Channel 5.   -8192
000000t:  Note on ::  Channel 5.  Note 41.  Velocity 82
000000t:  Control change ::  Channel 5.  Controller 11.  Value: 116
000001t:  Note on ::  Channel 5.  Note 49.  Velocity 86
000000t:  Control change ::  Channel 5.  Controller 11.  Value: 114
000001t:  Note on ::  Channel 5.  Note 56.  Velocity 91
000000t:  Control change ::  Channel 5.  Controller 11.  Value: 111
000001t:  Note on ::  Channel 5.  Note 61.  Velocity 98
000000t:  Note on ::  Channel 5.  Note 65.  Velocity 105
000000t:  Control change ::  Channel 5.  Controller 11.  Value: 109
000001t:  Control change ::  Channel 5.  Controller 11.  Value: 107
000001t:  Control change ::  Channel 5.  Controller 11.  Value: 106
000001t:  Control change ::  Channel 5.  Controller 11.  Value: 104
000001t:  Control change ::  Channel 5.  Controller 11.  Value: 103
000001t:  Control change ::  Channel 5.  Controller 11.  Value: 102
000001t:  Control change ::  Channel 5.  Controller 11.  Value: 101
000001t:  Control change ::  Channel 5.  Controller 11.  Value: 100
000001t:  Control change ::  Channel 5.  Controller 11.  Value: 99
000001t:  Control change ::  Channel 5.  Controller 11.  Value: 98
000002t:  Control change ::  Channel 5.  Controller 11.  Value: 97
000002t:  Control change ::  Channel 5.  Controller 11.  Value: 96
000002t:  Control change ::  Channel 5.  Controller 11.  Value: 95
000004t:  Control change ::  Channel 5.  Controller 11.  Value: 94
000005t:  Control change ::  Channel 5.  Controller 11.  Value: 93
000011t:  Note on ::  Channel 5.  Note 41.  Velocity 0
000001t:  Note on ::  Channel 5.  Note 49.  Velocity 0
000001t:  Note on ::  Channel 5.  Note 56.  Velocity 0
000001t:  Note on ::  Channel 5.  Note 61.  Velocity 0
000000t:  Note on ::  Channel 5.  Note 65.  Velocity 0
000006t:  Control change ::  Channel 5.  Controller 11.  Value: 120
000000t:  Note on ::  Channel 5.  Note 42.  Velocity 80
000001t:  Note on ::  Channel 5.  Note 49.  Velocity 83
000000t:  Control change ::  Channel 5.  Controller 11.  Value: 114
000001t:  Note on ::  Channel 5.  Note 54.  Velocity 87
000000t:  Control change ::  Channel 5.  Controller 11.  Value: 110
000001t:  Note on ::  Channel 5.  Note 58.  Velocity 92
000000t:  Control change ::  Channel 5.  Controller 11.  Value: 107
000001t:  Note on ::  Channel 5.  Note 61.  Velocity 98
000000t:  Note on ::  Channel 5.  Note 66.  Velocity 105
000000t:  Control change ::  Channel 5.  Controller 11.  Value: 105
000001t:  Control change ::  Channel 5.  Controller 11.  Value: 103
000001t:  Control change ::  Channel 5.  Controller 11.  Value: 101
000001t:  Control change ::  Channel 5.  Controller 11.  Value: 100
000001t:  Control change ::  Channel 5.  Controller 11.  Value: 99
000001t:  Control change ::  Channel 5.  Controller 11.  Value: 98
000002t:  Control change ::  Channel 5.  Controller 11.  Value: 97
000003t:  Control change ::  Channel 5.  Controller 11.  Value: 96
000004t:  Note on ::  Channel 5.  Note 42.  Velocity 0
000001t:  Note on ::  Channel 5.  Note 49.  Velocity 0
000001t:  Note on ::  Channel 5.  Note 54.  Velocity 0
000001t:  Note on ::  Channel 5.  Note 58.  Velocity 0
000001t:  Note on ::  Channel 5.  Note 61.  Velocity 0
000000t:  Note on ::  Channel 5.  Note 66.  Velocity 0
000002t:  Control change ::  Channel 5.  Controller 11.  Value: 121
000000t:  Note on ::  Channel 5.  Note 42.  Velocity 80
000001t:  Note on ::  Channel 5.  Note 49.  Velocity 83
000000t:  Control change ::  Channel 5.  Controller 11.  Value: 118
000001t:  Note on ::  Channel 5.  Note 54.  Velocity 87
000000t:  Control change ::  Channel 5.  Controller 11.  Value: 117
000001t:  Note on ::  Channel 5.  Note 58.  Velocity 92
000000t:  Control change ::  Channel 5.  Controller 11.  Value: 115
000001t:  Note on ::  Channel 5.  Note 61.  Velocity 98
000000t:  Note on ::  Channel 5.  Note 66.  Velocity 105
000000t:  Control change ::  Channel 5.  Controller 11.  Value: 113
000001t:  Control change ::  Channel 5.  Controller 11.  Value: 112
000001t:  Control change ::  Channel 5.  Controller 11.  Value: 111
000001t:  Control change ::  Channel 5.  Controller 11.  Value: 109
000001t:  Control change ::  Channel 5.  Controller 11.  Value: 108
000001t:  Control change ::  Channel 5.  Controller 11.  Value: 107
000001t:  Control change ::  Channel 5.  Controller 11.  Value: 106
000001t:  Control change ::  Channel 5.  Controller 11.  Value: 105
000001t:  Control change ::  Channel 5.  Controller 11.  Value: 104
000001t:  Control change ::  Channel 5.  Controller 11.  Value: 103
000001t:  Control change ::  Channel 5.  Controller 11.  Value: 102
000002t:  Control change ::  Channel 5.  Controller 11.  Value: 101
000001t:  Control change ::  Channel 5.  Controller 11.  Value: 100
000002t:  Control change ::  Channel 5.  Controller 11.  Value: 99
000001t:  Control change ::  Channel 5.  Controller 11.  Value: 98
000002t:  Control change ::  Channel 5.  Controller 11.  Value: 97
000003t:  Control change ::  Channel 5.  Controller 11.  Value: 96
000002t:  Control change ::  Channel 5.  Controller 11.  Value: 95
000003t:  Control change ::  Channel 5.  Controller 11.  Value: 94
000004t:  Control change ::  Channel 5.  Controller 11.  Value: 93
000005t:  Control change ::  Channel 5.  Controller 11.  Value: 92
000006t:  Control change ::  Channel 5.  Controller 11.  Value: 91
000010t:  Control change ::  Channel 5.  Controller 11.  Value: 90
000147t:  Note on ::  Channel 5.  Note 42.  Velocity 0
000001t:  Note on ::  Channel 5.  Note 49.  Velocity 0
000000t:  Note on ::  Channel 5.  Note 54.  Velocity 0
000001t:  Note on ::  Channel 5.  Note 58.  Velocity 0
000000t:  Note on ::  Channel 5.  Note 61.  Velocity 0
000000t:  Note on ::  Channel 5.  Note 66.  Velocity 0
000012t:  Note on ::  Channel 5.  Note 42.  Velocity 80
000001t:  Note on ::  Channel 5.  Note 49.  Velocity 93
000000t:  Note on ::  Channel 5.  Note 54.  Velocity 87
000001t:  Note on ::  Channel 5.  Note 58.  Velocity 92
000000t:  Note on ::  Channel 5.  Note 61.  Velocity 98
000000t:  Note on ::  Channel 5.  Note 66.  Velocity 105
000003t:  Note on ::  Channel 5.  Note 42.  Velocity 0
000001t:  Note on ::  Channel 5.  Note 49.  Velocity 0
000000t:  Note on ::  Channel 5.  Note 54.  Velocity 0
000001t:  Note on ::  Channel 5.  Note 58.  Velocity 0
000000t:  Note on ::  Channel 5.  Note 61.  Velocity 0
000000t:  Note on ::  Channel 5.  Note 66.  Velocity 0
000017t:  Note on ::  Channel 5.  Note 42.  Velocity 80
000001t:  Note on ::  Channel 5.  Note 49.  Velocity 93
000000t:  Note on ::  Channel 5.  Note 54.  Velocity 87
000001t:  Note on ::  Channel 5.  Note 58.  Velocity 92
000000t:  Note on ::  Channel 5.  Note 61.  Velocity 98
000000t:  Note on ::  Channel 5.  Note 66.  Velocity 105
000003t:  Note on ::  Channel 5.  Note 42.  Velocity 0
000001t:  Note on ::  Channel 5.  Note 49.  Velocity 0
000000t:  Note on ::  Channel 5.  Note 54.  Velocity 0
000001t:  Note on ::  Channel 5.  Note 58.  Velocity 0
000000t:  Note on ::  Channel 5.  Note 61.  Velocity 0
000000t:  Note on ::  Channel 5.  Note 66.  Velocity 0
000017t:  Note on ::  Channel 5.  Note 42.  Velocity 80
000001t:  Note on ::  Channel 5.  Note 49.  Velocity 93
000000t:  Note on ::  Channel 5.  Note 54.  Velocity 87
000001t:  Note on ::  Channel 5.  Note 58.  Velocity 92
000000t:  Note on ::  Channel 5.  Note 61.  Velocity 98
000000t:  Note on ::  Channel 5.  Note 66.  Velocity 105
000003t:  Note on ::  Channel 5.  Note 54.  Velocity 0
000000t:  Note on ::  Channel 5.  Note 42.  Velocity 0
000001t:  Note on ::  Channel 5.  Note 49.  Velocity 0
000001t:  Note on ::  Channel 5.  Note 58.  Velocity 0
000000t:  Note on ::  Channel 5.  Note 66.  Velocity 0
000000t:  Note on ::  Channel 5.  Note 61.  Velocity 0
000017t:  Note on ::  Channel 5.  Note 42.  Velocity 80
000001t:  Note on ::  Channel 5.  Note 49.  Velocity 93
000000t:  Note on ::  Channel 5.  Note 54.  Velocity 87
000001t:  Note on ::  Channel 5.  Note 58.  Velocity 92
000000t:  Note on ::  Channel 5.  Note 61.  Velocity 98
000000t:  Note on ::  Channel 5.  Note 66.  Velocity 105
000003t:  Note on ::  Channel 5.  Note 54.  Velocity 0
000000t:  Note on ::  Channel 5.  Note 42.  Velocity 0
000001t:  Note on ::  Channel 5.  Note 49.  Velocity 0
000001t:  Note on ::  Channel 5.  Note 58.  Velocity 0
000000t:  Note on ::  Channel 5.  Note 66.  Velocity 0
000000t:  Note on ::  Channel 5.  Note 61.  Velocity 0
000017t:  Note on ::  Channel 5.  Note 42.  Velocity 80
000001t:  Note on ::  Channel 5.  Note 49.  Velocity 93
000000t:  Note on ::  Channel 5.  Note 54.  Velocity 87
000001t:  Note on ::  Channel 5.  Note 58.  Velocity 92
000000t:  Note on ::  Channel 5.  Note 61.  Velocity 98
000000t:  Note on ::  Channel 5.  Note 66.  Velocity 105
000003t:  Note on ::  Channel 5.  Note 54.  Velocity 0
000000t:  Note on ::  Channel 5.  Note 42.  Velocity 0
000001t:  Note on ::  Channel 5.  Note 49.  Velocity 0
000001t:  Note on ::  Channel 5.  Note 58.  Velocity 0
000000t:  Note on ::  Channel 5.  Note 66.  Velocity 0
000000t:  Note on ::  Channel 5.  Note 61.  Velocity 0
000017t:  Note on ::  Channel 5.  Note 42.  Velocity 80
000001t:  Note on ::  Channel 5.  Note 49.  Velocity 93
000000t:  Note on ::  Channel 5.  Note 54.  Velocity 87
000001t:  Note on ::  Channel 5.  Note 58.  Velocity 92
000000t:  Note on ::  Channel 5.  Note 61.  Velocity 98
000000t:  Note on ::  Channel 5.  Note 66.  Velocity 105
000003t:  Note on ::  Channel 5.  Note 54.  Velocity 0
000000t:  Note on ::  Channel 5.  Note 42.  Velocity 0
000001t:  Note on ::  Channel 5.  Note 49.  Velocity 0
000001t:  Note on ::  Channel 5.  Note 58.  Velocity 0
000000t:  Note on ::  Channel 5.  Note 66.  Velocity 0
000000t:  Note on ::  Channel 5.  Note 61.  Velocity 0
000017t:  Note on ::  Channel 5.  Note 42.  Velocity 80
000001t:  Note on ::  Channel 5.  Note 49.  Velocity 93
000000t:  Note on ::  Channel 5.  Note 54.  Velocity 87
000001t:  Note on ::  Channel 5.  Note 58.  Velocity 92
000000t:  Note on ::  Channel 5.  Note 61.  Velocity 98
000000t:  Note on ::  Channel 5.  Note 66.  Velocity 105
000003t:  Note on ::  Channel 5.  Note 54.  Velocity 0
000000t:  Note on ::  Channel 5.  Note 42.  Velocity 0
000001t:  Note on ::  Channel 5.  Note 49.  Velocity 0
000001t:  Note on ::  Channel 5.  Note 58.  Velocity 0
000000t:  Note on ::  Channel 5.  Note 66.  Velocity 0
000000t:  Note on ::  Channel 5.  Note 61.  Velocity 0
000017t:  Control change ::  Channel 5.  Controller 7.  Value: 97
000004t:  Program (patch) change ::  Channel 5.  Patch 29 (Overdriven Guitar)
000024t:  Note on ::  Channel 5.  Note 56.  Velocity 80
000009t:  Note on ::  Channel 5.  Note 56.  Velocity 0
000015t:  Note on ::  Channel 5.  Note 61.  Velocity 80
000009t:  Note on ::  Channel 5.  Note 61.  Velocity 0
000015t:  Note on ::  Channel 5.  Note 65.  Velocity 87
000008t:  Note on ::  Channel 5.  Note 65.  Velocity 0
000040t:  Note on ::  Channel 5.  Note 56.  Velocity 80
000009t:  Note on ::  Channel 5.  Note 56.  Velocity 0
000015t:  Note on ::  Channel 5.  Note 60.  Velocity 80
000009t:  Note on ::  Channel 5.  Note 60.  Velocity 0
000015t:  Note on ::  Channel 5.  Note 63.  Velocity 88
000010t:  Note on ::  Channel 5.  Note 63.  Velocity 0
000038t:  Note on ::  Channel 5.  Note 54.  Velocity 80
000009t:  Note on ::  Channel 5.  Note 54.  Velocity 0
000015t:  Note on ::  Channel 5.  Note 58.  Velocity 80
000009t:  Note on ::  Channel 5.  Note 58.  Velocity 0
000015t:  Note on ::  Channel 5.  Note 61.  Velocity 87
000008t:  Note on ::  Channel 5.  Note 61.  Velocity 0
000040t:  Note on ::  Channel 5.  Note 56.  Velocity 80
000009t:  Note on ::  Channel 5.  Note 56.  Velocity 0
000015t:  Note on ::  Channel 5.  Note 60.  Velocity 77
000009t:  Note on ::  Channel 5.  Note 60.  Velocity 0
000015t:  Note on ::  Channel 5.  Note 63.  Velocity 86
000009t:  Note on ::  Channel 5.  Note 63.  Velocity 0
000039t:  Note on ::  Channel 5.  Note 56.  Velocity 80
000009t:  Note on ::  Channel 5.  Note 56.  Velocity 0
000015t:  Note on ::  Channel 5.  Note 61.  Velocity 80
000009t:  Note on ::  Channel 5.  Note 61.  Velocity 0
000015t:  Note on ::  Channel 5.  Note 65.  Velocity 87
000007t:  Note on ::  Channel 5.  Note 65.  Velocity 0
000041t:  Note on ::  Channel 5.  Note 56.  Velocity 80
000009t:  Note on ::  Channel 5.  Note 56.  Velocity 0
000015t:  Note on ::  Channel 5.  Note 60.  Velocity 78
000008t:  Note on ::  Channel 5.  Note 60.  Velocity 0
000016t:  Note on ::  Channel 5.  Note 63.  Velocity 88
000007t:  Note on ::  Channel 5.  Note 63.  Velocity 0
000041t:  Note on ::  Channel 5.  Note 58.  Velocity 80
000009t:  Note on ::  Channel 5.  Note 58.  Velocity 0
000015t:  Note on ::  Channel 5.  Note 61.  Velocity 80
000009t:  Note on ::  Channel 5.  Note 61.  Velocity 0
000015t:  Note on ::  Channel 5.  Note 65.  Velocity 88
000007t:  Note on ::  Channel 5.  Note 65.  Velocity 0
000041t:  Note on ::  Channel 5.  Note 58.  Velocity 80
000009t:  Note on ::  Channel 5.  Note 58.  Velocity 0
000015t:  Note on ::  Channel 5.  Note 61.  Velocity 80
000009t:  Note on ::  Channel 5.  Note 61.  Velocity 0
000015t:  Note on ::  Channel 5.  Note 66.  Velocity 86
000007t:  Note on ::  Channel 5.  Note 66.  Velocity 0
000041t:  Note on ::  Channel 5.  Note 61.  Velocity 80
000009t:  Note on ::  Channel 5.  Note 61.  Velocity 0
000015t:  Note on ::  Channel 5.  Note 65.  Velocity 80
000009t:  Note on ::  Channel 5.  Note 65.  Velocity 0
000015t:  Note on ::  Channel 5.  Note 68.  Velocity 85
000008t:  Note on ::  Channel 5.  Note 68.  Velocity 0
000039t:  Note on ::  Channel 5.  Note 60.  Velocity 80
000001t:  Note on ::  Channel 5.  Note 65.  Velocity 80
000008t:  Note on ::  Channel 5.  Note 60.  Velocity 0
000001t:  Note on ::  Channel 5.  Note 65.  Velocity 0
000014t:  Note on ::  Channel 5.  Note 65.  Velocity 79
000001t:  Note on ::  Channel 5.  Note 68.  Velocity 78
000007t:  Note on ::  Channel 5.  Note 65.  Velocity 0
000002t:  Note on ::  Channel 5.  Note 68.  Velocity 0
000014t:  Note on ::  Channel 5.  Note 68.  Velocity 84
000001t:  Note on ::  Channel 5.  Note 72.  Velocity 85
000008t:  Note on ::  Channel 5.  Note 68.  Velocity 0
000001t:  Note on ::  Channel 5.  Note 72.  Velocity 0
000038t:  Note on ::  Channel 5.  Note 58.  Velocity 80
000001t:  Note on ::  Channel 5.  Note 65.  Velocity 80
000008t:  Note on ::  Channel 5.  Note 58.  Velocity 0
000001t:  Note on ::  Channel 5.  Note 65.  Velocity 0
000014t:  Note on ::  Channel 5.  Note 61.  Velocity 79
000001t:  Note on ::  Channel 5.  Note 70.  Velocity 78
000008t:  Note on ::  Channel 5.  Note 61.  Velocity 0
000001t:  Note on ::  Channel 5.  Note 70.  Velocity 0
000014t:  Note on ::  Channel 5.  Note 65.  Velocity 83
000001t:  Note on ::  Channel 5.  Note 73.  Velocity 83
000008t:  Note on ::  Channel 5.  Note 65.  Velocity 0
000001t:  Note on ::  Channel 5.  Note 73.  Velocity 0
000038t:  Note on ::  Channel 5.  Note 58.  Velocity 80
000001t:  Note on ::  Channel 5.  Note 73.  Velocity 80
000008t:  Note on ::  Channel 5.  Note 58.  Velocity 0
000001t:  Note on ::  Channel 5.  Note 73.  Velocity 0
000014t:  Note on ::  Channel 5.  Note 61.  Velocity 85
000001t:  Note on ::  Channel 5.  Note 70.  Velocity 84
000008t:  Note on ::  Channel 5.  Note 61.  Velocity 0
000001t:  Note on ::  Channel 5.  Note 70.  Velocity 0
000063t:  Note on ::  Channel 5.  Note 73.  Velocity 80
000008t:  Note on ::  Channel 5.  Note 73.  Velocity 0
000016t:  Note on ::  Channel 5.  Note 75.  Velocity 77
000008t:  Note on ::  Channel 5.  Note 75.  Velocity 0
000016t:  Note on ::  Channel 5.  Note 80.  Velocity 86
000008t:  Note on ::  Channel 5.  Note 80.  Velocity 0
000136t:  Note on ::  Channel 5.  Note 72.  Velocity 80
000008t:  Note on ::  Channel 5.  Note 72.  Velocity 0
000016t:  Note on ::  Channel 5.  Note 75.  Velocity 78
000008t:  Note on ::  Channel 5.  Note 75.  Velocity 0
000016t:  Note on ::  Channel 5.  Note 82.  Velocity 86
000008t:  Note on ::  Channel 5.  Note 82.  Velocity 0
000016t:  Note on ::  Channel 5.  Note 80.  Velocity 80
000092t:  Note on ::  Channel 5.  Note 80.  Velocity 0
000004t:  Pitch wheel change ::  Channel 5.   -8192
000000t:  Note on ::  Channel 5.  Note 65.  Velocity 80
000020t:  Pitch wheel change ::  Channel 5.   -8192
000001t:  Pitch wheel change ::  Channel 5.   -8192
000001t:  Pitch wheel change ::  Channel 5.   -8192
000001t:  Pitch wheel change ::  Channel 5.   -8192
000001t:  Pitch wheel change ::  Channel 5.   -8192
000001t:  Pitch wheel change ::  Channel 5.   -8192
000007t:  Note on ::  Channel 5.  Note 65.  Velocity 0
000016t:  Note on ::  Channel 5.  Note 68.  Velocity 80
000008t:  Note on ::  Channel 5.  Note 68.  Velocity 0
000016t:  Note on ::  Channel 5.  Note 73.  Velocity 91
000007t:  Note on ::  Channel 5.  Note 73.  Velocity 0
000041t:  Note on ::  Channel 5.  Note 60.  Velocity 80
000008t:  Note on ::  Channel 5.  Note 60.  Velocity 0
000016t:  Note on ::  Channel 5.  Note 63.  Velocity 80
000008t:  Note on ::  Channel 5.  Note 63.  Velocity 0
000016t:  Note on ::  Channel 5.  Note 68.  Velocity 89
000007t:  Note on ::  Channel 5.  Note 68.  Velocity 0
000041t:  Note on ::  Channel 5.  Note 58.  Velocity 80
000008t:  Note on ::  Channel 5.  Note 58.  Velocity 0
000016t:  Note on ::  Channel 5.  Note 61.  Velocity 80
000008t:  Note on ::  Channel 5.  Note 61.  Velocity 0
000016t:  Note on ::  Channel 5.  Note 66.  Velocity 88
000007t:  Note on ::  Channel 5.  Note 66.  Velocity 0
000017t:  Pitch wheel change ::  Channel 5.   -8192
000000t:  Note on ::  Channel 5.  Note 60.  Velocity 80
000020t:  Pitch wheel change ::  Channel 5.   -8192
000001t:  Pitch wheel change ::  Channel 5.   -8192
000001t:  Pitch wheel change ::  Channel 5.   -8192
000001t:  Pitch wheel change ::  Channel 5.   -8192
000001t:  Pitch wheel change ::  Channel 5.   -8192
000001t:  Pitch wheel change ::  Channel 5.   -8192
000007t:  Note on ::  Channel 5.  Note 60.  Velocity 0
000016t:  Note on ::  Channel 5.  Note 63.  Velocity 80
000008t:  Note on ::  Channel 5.  Note 63.  Velocity 0
000016t:  Note on ::  Channel 5.  Note 68.  Velocity 87
000006t:  Note on ::  Channel 5.  Note 68.  Velocity 0
000018t:  Pitch wheel change ::  Channel 5.   -8192
000000t:  Note on ::  Channel 5.  Note 65.  Velocity 80
000020t:  Pitch wheel change ::  Channel 5.   -8192
000001t:  Pitch wheel change ::  Channel 5.   -8192
000001t:  Pitch wheel change ::  Channel 5.   -8192
000001t:  Pitch wheel change ::  Channel 5.   -8192
000001t:  Pitch wheel change ::  Channel 5.   -8192
000001t:  Pitch wheel change ::  Channel 5.   -8192
000007t:  Note on ::  Channel 5.  Note 65.  Velocity 0
000016t:  Note on ::  Channel 5.  Note 68.  Velocity 80
000008t:  Note on ::  Channel 5.  Note 68.  Velocity 0
000016t:  Note on ::  Channel 5.  Note 73.  Velocity 87
000006t:  Note on ::  Channel 5.  Note 73.  Velocity 0
000042t:  Note on ::  Channel 5.  Note 60.  Velocity 80
000008t:  Note on ::  Channel 5.  Note 60.  Velocity 0
000016t:  Note on ::  Channel 5.  Note 63.  Velocity 80
000008t:  Note on ::  Channel 5.  Note 63.  Velocity 0
000016t:  Note on ::  Channel 5.  Note 68.  Velocity 87
000007t:  Note on ::  Channel 5.  Note 68.  Velocity 0
000041t:  Note on ::  Channel 5.  Note 61.  Velocity 80
000008t:  Note on ::  Channel 5.  Note 61.  Velocity 0
000016t:  Note on ::  Channel 5.  Note 65.  Velocity 80
000008t:  Note on ::  Channel 5.  Note 65.  Velocity 0
000016t:  Note on ::  Channel 5.  Note 70.  Velocity 87
000007t:  Note on ::  Channel 5.  Note 70.  Velocity 0
000017t:  Pitch wheel change ::  Channel 5.   -8192
000000t:  Note on ::  Channel 5.  Note 70.  Velocity 80
000020t:  Pitch wheel change ::  Channel 5.   -8192
000001t:  Pitch wheel change ::  Channel 5.   -8192
000001t:  Pitch wheel change ::  Channel 5.   -8192
000001t:  Pitch wheel change ::  Channel 5.   -8192
000001t:  Pitch wheel change ::  Channel 5.   -8192
000001t:  Pitch wheel change ::  Channel 5.   -8192
000007t:  Note on ::  Channel 5.  Note 70.  Velocity 0
000016t:  Note on ::  Channel 5.  Note 73.  Velocity 80
000008t:  Note on ::  Channel 5.  Note 73.  Velocity 0
000016t:  Note on ::  Channel 5.  Note 78.  Velocity 90
000007t:  Note on ::  Channel 5.  Note 78.  Velocity 0
000017t:  Pitch wheel change ::  Channel 5.   -8192
000000t:  Note on ::  Channel 5.  Note 65.  Velocity 80
000020t:  Pitch wheel change ::  Channel 5.   -8192
000001t:  Pitch wheel change ::  Channel 5.   -8192
000001t:  Pitch wheel change ::  Channel 5.   -8192
000001t:  Pitch wheel change ::  Channel 5.   -8192
000001t:  Pitch wheel change ::  Channel 5.   -8192
000001t:  Pitch wheel change ::  Channel 5.   -8192
000007t:  Note on ::  Channel 5.  Note 65.  Velocity 0
000016t:  Note on ::  Channel 5.  Note 68.  Velocity 80
000008t:  Note on ::  Channel 5.  Note 68.  Velocity 0
000016t:  Note on ::  Channel 5.  Note 73.  Velocity 91
000008t:  Note on ::  Channel 5.  Note 73.  Velocity 0
000040t:  Note on ::  Channel 5.  Note 65.  Velocity 80
000008t:  Note on ::  Channel 5.  Note 65.  Velocity 0
000016t:  Note on ::  Channel 5.  Note 68.  Velocity 80
000008t:  Note on ::  Channel 5.  Note 68.  Velocity 0
000016t:  Note on ::  Channel 5.  Note 72.  Velocity 91
000006t:  Note on ::  Channel 5.  Note 72.  Velocity 0
000042t:  Note on ::  Channel 5.  Note 65.  Velocity 80
000008t:  Note on ::  Channel 5.  Note 65.  Velocity 0
000016t:  Note on ::  Channel 5.  Note 70.  Velocity 80
000008t:  Note on ::  Channel 5.  Note 70.  Velocity 0
000016t:  Note on ::  Channel 5.  Note 73.  Velocity 90
000006t:  Note on ::  Channel 5.  Note 73.  Velocity 0
000018t:  Pitch wheel change ::  Channel 5.   -8192
000000t:  Note on ::  Channel 5.  Note 68.  Velocity 80
000020t:  Pitch wheel change ::  Channel 5.   -8192
000001t:  Pitch wheel change ::  Channel 5.   -8192
000001t:  Pitch wheel change ::  Channel 5.   -8192
000001t:  Pitch wheel change ::  Channel 5.   -8192
000001t:  Pitch wheel change ::  Channel 5.   -8192
000001t:  Pitch wheel change ::  Channel 5.   -8192
000019t:  Note on ::  Channel 5.  Note 68.  Velocity 0
000004t:  Note on ::  Channel 5.  Note 72.  Velocity 80
000046t:  Note on ::  Channel 5.  Note 72.  Velocity 0
000002t:  Control change ::  Channel 5.  Controller 7.  Value: 125
000000t:  Pitch wheel change ::  Channel 5.   -8192
000000t:  Program (patch) change ::  Channel 5.  Patch 30 (Distortion Guitar)
000000t:  Note on ::  Channel 5.  Note 75.  Velocity 80
000007t:  Pitch wheel change ::  Channel 5.   -8192
000001t:  Pitch wheel change ::  Channel 5.   -8192
000001t:  Pitch wheel change ::  Channel 5.   -8192
000001t:  Pitch wheel change ::  Channel 5.   -8192
000106t:  Note on ::  Channel 5.  Note 75.  Velocity 0
000002t:  Pitch wheel change ::  Channel 5.   -8192
000000t:  Note on ::  Channel 5.  Note 75.  Velocity 85
000003t:  Pitch wheel change ::  Channel 5.   -8192
000001t:  Pitch wheel change ::  Channel 5.   -8192
000001t:  Pitch wheel change ::  Channel 5.   -8192
000001t:  Pitch wheel change ::  Channel 5.   -8192
000001t:  Pitch wheel change ::  Channel 5.   -8192
000001t:  Pitch wheel change ::  Channel 5.   -8192
000001t:  Pitch wheel change ::  Channel 5.   -8192
000001t:  Pitch wheel change ::  Channel 5.   -8192
000001t:  Pitch wheel change ::  Channel 5.   -8192
000001t:  Pitch wheel change ::  Channel 5.   -8192
000001t:  Pitch wheel change ::  Channel 5.   -8192
000001t:  Pitch wheel change ::  Channel 5.   -8192
000001t:  Pitch wheel change ::  Channel 5.   -8192
000001t:  Pitch wheel change ::  Channel 5.   -8192
000001t:  Pitch wheel change ::  Channel 5.   -8192
000001t:  Pitch wheel change ::  Channel 5.   -8192
000001t:  Pitch wheel change ::  Channel 5.   -8192
000001t:  Pitch wheel change ::  Channel 5.   -8192
000001t:  Pitch wheel change ::  Channel 5.   -8192
000001t:  Pitch wheel change ::  Channel 5.   -8192
000001t:  Pitch wheel change ::  Channel 5.   -8192
000001t:  Pitch wheel change ::  Channel 5.   -8192
000026t:  Note on ::  Channel 5.  Note 75.  Velocity 0
000000t:  Pitch wheel change ::  Channel 5.   -8192
000000t:  Note on ::  Channel 5.  Note 75.  Velocity 80
000022t:  Note on ::  Channel 5.  Note 75.  Velocity 0
000002t:  Pitch wheel change ::  Channel 5.   -8192
000000t:  Note on ::  Channel 5.  Note 72.  Velocity 80
000021t:  Pitch wheel change ::  Channel 5.   -8192
000001t:  Pitch wheel change ::  Channel 5.   -8192
000001t:  Pitch wheel change ::  Channel 5.   -8192
000001t:  Pitch wheel change ::  Channel 5.   -8192
000116t:  Note on ::  Channel 5.  Note 72.  Velocity 0
000004t:  Pitch wheel change ::  Channel 5.   -8192
000000t:  Note on ::  Channel 5.  Note 73.  Velocity 80
000006t:  Pitch wheel change ::  Channel 5.   -8192
000001t:  Pitch wheel change ::  Channel 5.   -8192
000001t:  Pitch wheel change ::  Channel 5.   -8192
000001t:  Pitch wheel change ::  Channel 5.   -8192
000001t:  Pitch wheel change ::  Channel 5.   -8192
000001t:  Pitch wheel change ::  Channel 5.   -8192
000001t:  Pitch wheel change ::  Channel 5.   -8192
000010t:  Note on ::  Channel 5.  Note 73.  Velocity 0
000002t:  Control change ::  Channel 5.  Controller 11.  Value: 40
000000t:  Note on ::  Channel 5.  Note 75.  Velocity 91
000001t:  Control change ::  Channel 5.  Controller 11.  Value: 67
000001t:  Control change ::  Channel 5.  Controller 11.  Value: 81
000001t:  Control change ::  Channel 5.  Controller 11.  Value: 89
000001t:  Control change ::  Channel 5.  Controller 11.  Value: 94
000001t:  Control change ::  Channel 5.  Controller 11.  Value: 97
000001t:  Control change ::  Channel 5.  Controller 11.  Value: 98
000001t:  Control change ::  Channel 5.  Controller 11.  Value: 99
000001t:  Control change ::  Channel 5.  Controller 11.  Value: 100
000015t:  Note on ::  Channel 5.  Note 75.  Velocity 0
000001t:  Note on ::  Channel 5.  Note 75.  Velocity 87
000068t:  Note on ::  Channel 5.  Note 75.  Velocity 0
000004t:  Note on ::  Channel 5.  Note 73.  Velocity 80
000116t:  Note on ::  Channel 5.  Note 73.  Velocity 0
000004t:  Note on ::  Channel 5.  Note 73.  Velocity 88
000068t:  Note on ::  Channel 5.  Note 73.  Velocity 0
000004t:  Note on ::  Channel 5.  Note 72.  Velocity 80
000116t:  Note on ::  Channel 5.  Note 72.  Velocity 0
000004t:  Control change ::  Channel 5.  Controller 7.  Value: 120
000024t:  Note on ::  Channel 5.  Note 53.  Velocity 100
000015t:  Note on ::  Channel 5.  Note 53.  Velocity 0
000009t:  Note on ::  Channel 5.  Note 51.  Velocity 104
000015t:  Note on ::  Channel 5.  Note 51.  Velocity 0
000009t:  Note on ::  Channel 5.  Note 49.  Velocity 106
000015t:  Note on ::  Channel 5.  Note 49.  Velocity 0
000009t:  Note on ::  Channel 5.  Note 48.  Velocity 108
000015t:  Note on ::  Channel 5.  Note 48.  Velocity 0
000009t:  Note on ::  Channel 5.  Note 46.  Velocity 110
000015t:  Note on ::  Channel 5.  Note 46.  Velocity 0
000009t:  Note on ::  Channel 5.  Note 44.  Velocity 112
000020t:  Note on ::  Channel 5.  Note 44.  Velocity 0
000025t:  Program (patch) change ::  Channel 5.  Patch 28 (Electric Guitar(muted))
000000t:  Note on ::  Channel 5.  Note 53.  Velocity 48
000002t:  Note on ::  Channel 5.  Note 53.  Velocity 0
000001t:  Program (patch) change ::  Channel 5.  Patch 30 (Distortion Guitar)
000000t:  Control change ::  Channel 5.  Controller 7.  Value: 126
000000t:  Pitch wheel change ::  Channel 5.   -8192
000000t:  Note on ::  Channel 5.  Note 53.  Velocity 100
000009t:  Pitch wheel change ::  Channel 5.   -8192
000002t:  Pitch wheel change ::  Channel 5.   -8192
000001t:  Pitch wheel change ::  Channel 5.   -8192
000001t:  Pitch wheel change ::  Channel 5.   -8192
000001t:  Pitch wheel change ::  Channel 5.   -8192
000078t:  Note on ::  Channel 5.  Note 53.  Velocity 0
000004t:  Note on ::  Channel 5.  Note 54.  Velocity 100
000010t:  Note on ::  Channel 5.  Note 54.  Velocity 0
000002t:  Control change ::  Channel 5.  Controller 11.  Value: 30
000000t:  Note on ::  Channel 5.  Note 51.  Velocity 50
000001t:  Control change ::  Channel 5.  Controller 11.  Value: 72
000001t:  Control change ::  Channel 5.  Controller 11.  Value: 84
000001t:  Control change ::  Channel 5.  Controller 11.  Value: 91
000001t:  Control change ::  Channel 5.  Controller 11.  Value: 95
000001t:  Control change ::  Channel 5.  Controller 11.  Value: 97
000001t:  Control change ::  Channel 5.  Controller 11.  Value: 99
000001t:  Control change ::  Channel 5.  Controller 11.  Value: 100
000015t:  Note on ::  Channel 5.  Note 51.  Velocity 0
000002t:  Control change ::  Channel 5.  Controller 11.  Value: 30
000000t:  Note on ::  Channel 5.  Note 51.  Velocity 50
000001t:  Control change ::  Channel 5.  Controller 11.  Value: 78
000001t:  Control change ::  Channel 5.  Controller 11.  Value: 93
000001t:  Control change ::  Channel 5.  Controller 11.  Value: 98
000001t:  Control change ::  Channel 5.  Controller 11.  Value: 100
000006t:  Note on ::  Channel 5.  Note 51.  Velocity 0
000002t:  Note on ::  Channel 5.  Note 51.  Velocity 110
000012t:  Note on ::  Channel 5.  Note 51.  Velocity 0
000000t:  Note on ::  Channel 5.  Note 51.  Velocity 50
000010t:  Note on ::  Channel 5.  Note 51.  Velocity 0
000002t:  Note on ::  Channel 5.  Note 51.  Velocity 70
000022t:  Note on ::  Channel 5.  Note 51.  Velocity 0
000002t:  Pitch wheel change ::  Channel 5.   -8192
000000t:  Note on ::  Channel 5.  Note 58.  Velocity 100
000009t:  Pitch wheel change ::  Channel 5.   -8192
000003t:  Pitch wheel change ::  Channel 5.   -8192
000001t:  Pitch wheel change ::  Channel 5.   -8192
000001t:  Pitch wheel change ::  Channel 5.   -8192
000001t:  Pitch wheel change ::  Channel 5.   -8192
000001t:  Pitch wheel change ::  Channel 5.   -8192
000001t:  Pitch wheel change ::  Channel 5.   -8192
000067t:  Program (patch) change ::  Channel 5.  Patch 28 (Electric Guitar(muted))
000000t:  Note on ::  Channel 5.  Note 54.  Velocity 50
000008t:  Note on ::  Channel 5.  Note 58.  Velocity 0
000002t:  Note on ::  Channel 5.  Note 54.  Velocity 0
000002t:  Program (patch) change ::  Channel 5.  Patch 30 (Distortion Guitar)
000000t:  Note on ::  Channel 5.  Note 56.  Velocity 100
000022t:  Note on ::  Channel 5.  Note 56.  Velocity 0
000002t:  Note on ::  Channel 5.  Note 51.  Velocity 50
000022t:  Note on ::  Channel 5.  Note 51.  Velocity 0
000002t:  Note on ::  Channel 5.  Note 51.  Velocity 80
000024t:  Note on ::  Channel 5.  Note 51.  Velocity 0
000000t:  Note on ::  Channel 5.  Note 51.  Velocity 50
000024t:  Note on ::  Channel 5.  Note 51.  Velocity 0
000000t:  Note on ::  Channel 5.  Note 54.  Velocity 100
000024t:  Note on ::  Channel 5.  Note 54.  Velocity 0
000000t:  Note on ::  Channel 5.  Note 53.  Velocity 50
000007t:  Note on ::  Channel 5.  Note 53.  Velocity 0
000005t:  Note on ::  Channel 5.  Note 53.  Velocity 70
000046t:  Note on ::  Channel 5.  Note 53.  Velocity 0
000002t:  Program (patch) change ::  Channel 5.  Patch 28 (Electric Guitar(muted))
000000t:  Note on ::  Channel 5.  Note 51.  Velocity 50
000008t:  Note on ::  Channel 5.  Note 51.  Velocity 0
000004t:  Program (patch) change ::  Channel 5.  Patch 30 (Distortion Guitar)
000000t:  Note on ::  Channel 5.  Note 54.  Velocity 100
000022t:  Note on ::  Channel 5.  Note 54.  Velocity 0
000002t:  Note on ::  Channel 5.  Note 53.  Velocity 50
000010t:  Note on ::  Channel 5.  Note 53.  Velocity 0
000002t:  Note on ::  Channel 5.  Note 53.  Velocity 100
000022t:  Note on ::  Channel 5.  Note 53.  Velocity 0
000002t:  Note on ::  Channel 5.  Note 51.  Velocity 70
000007t:  Note on ::  Channel 5.  Note 51.  Velocity 0
000005t:  Note on ::  Channel 5.  Note 51.  Velocity 70
000016t:  Note on ::  Channel 5.  Note 51.  Velocity 0
000008t:  Pitch wheel change ::  Channel 5.   -8192
000000t:  Note on ::  Channel 5.  Note 58.  Velocity 100
000006t:  Pitch wheel change ::  Channel 5.   -8192
000002t:  Pitch wheel change ::  Channel 5.   -8192
000001t:  Pitch wheel change ::  Channel 5.   -8192
000001t:  Pitch wheel change ::  Channel 5.   -8192
000001t:  Pitch wheel change ::  Channel 5.   -8192
000001t:  Pitch wheel change ::  Channel 5.   -8192
000056t:  Note on ::  Channel 5.  Note 58.  Velocity 0
000004t:  Note on ::  Channel 5.  Note 58.  Velocity 60
000004t:  Note on ::  Channel 5.  Note 58.  Velocity 0
000008t:  Note on ::  Channel 5.  Note 61.  Velocity 100
000008t:  Note on ::  Channel 5.  Note 61.  Velocity 0
000016t:  Note on ::  Channel 5.  Note 58.  Velocity 93
000008t:  Note on ::  Channel 5.  Note 58.  Velocity 0
000004t:  Note on ::  Channel 5.  Note 61.  Velocity 83
000140t:  Note on ::  Channel 5.  Note 61.  Velocity 0
000016t:  Program (patch) change ::  Channel 5.  Patch 28 (Electric Guitar(muted))
000000t:  Note on ::  Channel 5.  Note 58.  Velocity 52
000004t:  Note on ::  Channel 5.  Note 58.  Velocity 0
000008t:  Program (patch) change ::  Channel 5.  Patch 30 (Distortion Guitar)
000000t:  Pitch wheel change ::  Channel 5.   -8192
000000t:  Note on ::  Channel 5.  Note 63.  Velocity 100
000004t:  Pitch wheel change ::  Channel 5.   -8192
000001t:  Pitch wheel change ::  Channel 5.   -8192
000001t:  Pitch wheel change ::  Channel 5.   -8192
000001t:  Pitch wheel change ::  Channel 5.   -8192
000038t:  Note on ::  Channel 5.  Note 63.  Velocity 0
000003t:  Pitch wheel change ::  Channel 5.   -8192
000000t:  Note on ::  Channel 5.  Note 63.  Velocity 100
000017t:  Pitch wheel change ::  Channel 5.   -8192
000001t:  Pitch wheel change ::  Channel 5.   -8192
000016t:  Note on ::  Channel 5.  Note 63.  Velocity 0
000002t:  Pitch wheel change ::  Channel 5.   -8192
000000t:  Note on ::  Channel 5.  Note 63.  Velocity 90
000008t:  Note on ::  Channel 5.  Note 63.  Velocity 0
000040t:  Note on ::  Channel 5.  Note 61.  Velocity 50
000006t:  Note on ::  Channel 5.  Note 61.  Velocity 0
000006t:  Note on ::  Channel 5.  Note 65.  Velocity 100
000047t:  Note on ::  Channel 5.  Note 65.  Velocity 0
000001t:  Pitch wheel change ::  Channel 5.   -8192
000000t:  Control change ::  Channel 5.  Controller 11.  Value: 100
000000t:  Note on ::  Channel 5.  Note 60.  Velocity 100
000013t:  Pitch wheel change ::  Channel 5.   -8192
000000t:  Control change ::  Channel 5.  Controller 11.  Value: 85
000001t:  Pitch wheel change ::  Channel 5.   -8192
000000t:  Control change ::  Channel 5.  Controller 11.  Value: 70
000020t:  Note on ::  Channel 5.  Note 60.  Velocity 0
000002t:  Pitch wheel change ::  Channel 5.   -8192
000000t:  Control change ::  Channel 5.  Controller 11.  Value: 100
000000t:  Note on ::  Channel 5.  Note 58.  Velocity 90
000057t:  Note on ::  Channel 5.  Note 58.  Velocity 0
000003t:  Pitch wheel change ::  Channel 5.   -8192
000000t:  Control change ::  Channel 5.  Controller 11.  Value: 100
000000t:  Note on ::  Channel 5.  Note 58.  Velocity 100
000020t:  Control change ::  Channel 5.  Controller 11.  Value: 97
000001t:  Control change ::  Channel 5.  Controller 11.  Value: 94
000001t:  Control change ::  Channel 5.  Controller 11.  Value: 90
000001t:  Pitch wheel change ::  Channel 5.   -8192
000000t:  Control change ::  Channel 5.  Controller 11.  Value: 87
000001t:  Pitch wheel change ::  Channel 5.   -8192
000000t:  Control change ::  Channel 5.  Controller 11.  Value: 84
000001t:  Pitch wheel change ::  Channel 5.   -8192
000000t:  Control change ::  Channel 5.  Controller 11.  Value: 80
000001t:  Pitch wheel change ::  Channel 5.   -8192
000019t:  Note on ::  Channel 5.  Note 58.  Velocity 0
000003t:  Pitch wheel change ::  Channel 5.   -8192
000000t:  Control change ::  Channel 5.  Controller 11.  Value: 100
000000t:  Note on ::  Channel 5.  Note 61.  Velocity 100
000021t:  Control change ::  Channel 5.  Controller 11.  Value: 98
000001t:  Control change ::  Channel 5.  Controller 11.  Value: 95
000001t:  Pitch wheel change ::  Channel 5.   -8192
000000t:  Control change ::  Channel 5.  Controller 11.  Value: 92
000001t:  Pitch wheel change ::  Channel 5.   -8192
000000t:  Control change ::  Channel 5.  Controller 11.  Value: 89
000001t:  Pitch wheel change ::  Channel 5.   -8192
000000t:  Control change ::  Channel 5.  Controller 11.  Value: 86
000001t:  Pitch wheel change ::  Channel 5.   -8192
000000t:  Control change ::  Channel 5.  Controller 11.  Value: 83
000001t:  Control change ::  Channel 5.  Controller 11.  Value: 80
000018t:  Note on ::  Channel 5.  Note 61.  Velocity 0
000003t:  Pitch wheel change ::  Channel 5.   -8192
000000t:  Control change ::  Channel 5.  Controller 11.  Value: 100
000000t:  Note on ::  Channel 5.  Note 60.  Velocity 100
000022t:  Control change ::  Channel 5.  Controller 11.  Value: 96
000001t:  Pitch wheel change ::  Channel 5.   -8192
000000t:  Control change ::  Channel 5.  Controller 11.  Value: 92
000001t:  Pitch wheel change ::  Channel 5.   -8192
000000t:  Control change ::  Channel 5.  Controller 11.  Value: 88
000001t:  Pitch wheel change ::  Channel 5.   -8192
000000t:  Control change ::  Channel 5.  Controller 11.  Value: 84
000001t:  Pitch wheel change ::  Channel 5.   -8192
000000t:  Control change ::  Channel 5.  Controller 11.  Value: 80
000019t:  Note on ::  Channel 5.  Note 60.  Velocity 0
000003t:  Pitch wheel change ::  Channel 5.   -8192
000000t:  Control change ::  Channel 5.  Controller 11.  Value: 100
000000t:  Note on ::  Channel 5.  Note 63.  Velocity 100
000022t:  Control change ::  Channel 5.  Controller 11.  Value: 96
000001t:  Pitch wheel change ::  Channel 5.   -8192
000000t:  Control change ::  Channel 5.  Controller 11.  Value: 92
000001t:  Pitch wheel change ::  Channel 5.   -8192
000000t:  Control change ::  Channel 5.  Controller 11.  Value: 88
000001t:  Pitch wheel change ::  Channel 5.   -8192
000000t:  Control change ::  Channel 5.  Controller 11.  Value: 84
000001t:  Pitch wheel change ::  Channel 5.   -8192
000000t:  Control change ::  Channel 5.  Controller 11.  Value: 80
000019t:  Note on ::  Channel 5.  Note 63.  Velocity 0
000003t:  Control change ::  Channel 5.  Controller 11.  Value: 100
000000t:  Pitch wheel change ::  Channel 5.   -8192
000000t:  Note on ::  Channel 5.  Note 60.  Velocity 100
000021t:  Control change ::  Channel 5.  Controller 11.  Value: 95
000001t:  Control change ::  Channel 5.  Controller 11.  Value: 90
000001t:  Control change ::  Channel 5.  Controller 11.  Value: 85
000001t:  Pitch wheel change ::  Channel 5.   -8192
000000t:  Control change ::  Channel 5.  Controller 11.  Value: 80
000021t:  Note on ::  Channel 5.  Note 60.  Velocity 0
000003t:  Pitch wheel change ::  Channel 5.   -8192
000000t:  Control change ::  Channel 5.  Controller 11.  Value: 100
000000t:  Note on ::  Channel 5.  Note 60.  Velocity 100
000021t:  Control change ::  Channel 5.  Controller 11.  Value: 95
000001t:  Control change ::  Channel 5.  Controller 11.  Value: 90
000001t:  Control change ::  Channel 5.  Controller 11.  Value: 85
000001t:  Pitch wheel change ::  Channel 5.   -8192
000000t:  Control change ::  Channel 5.  Controller 11.  Value: 80
000021t:  Note on ::  Channel 5.  Note 60.  Velocity 0
000003t:  Pitch wheel change ::  Channel 5.   -8192
000000t:  Note on ::  Channel 5.  Note 60.  Velocity 100
000022t:  Note on ::  Channel 5.  Note 60.  Velocity 0
000002t:  Pitch wheel change ::  Channel 5.   -8192
000000t:  Control change ::  Channel 5.  Controller 11.  Value: 100
000000t:  Note on ::  Channel 5.  Note 61.  Velocity 100
000010t:  Control change ::  Channel 5.  Controller 11.  Value: 94
000001t:  Control change ::  Channel 5.  Controller 11.  Value: 87
000001t:  Pitch wheel change ::  Channel 5.   -8192
000000t:  Control change ::  Channel 5.  Controller 11.  Value: 80
000010t:  Note on ::  Channel 5.  Note 61.  Velocity 0
000002t:  Pitch wheel change ::  Channel 5.   -8192
000000t:  Control change ::  Channel 5.  Controller 11.  Value: 100
000000t:  Note on ::  Channel 5.  Note 65.  Velocity 100
000010t:  Control change ::  Channel 5.  Controller 11.  Value: 94
000001t:  Control change ::  Channel 5.  Controller 11.  Value: 87
000001t:  Pitch wheel change ::  Channel 5.   -8192
000000t:  Control change ::  Channel 5.  Controller 11.  Value: 80
000010t:  Note on ::  Channel 5.  Note 65.  Velocity 0
000002t:  Pitch wheel change ::  Channel 5.   -8192
000000t:  Control change ::  Channel 5.  Controller 11.  Value: 100
000000t:  Note on ::  Channel 5.  Note 68.  Velocity 100
000022t:  Note on ::  Channel 5.  Note 68.  Velocity 0
000002t:  Pitch wheel change ::  Channel 5.   -8192
000000t:  Control change ::  Channel 5.  Controller 11.  Value: 100
000000t:  Note on ::  Channel 5.  Note 75.  Velocity 100
000009t:  Pitch wheel change ::  Channel 5.   -8192
000000t:  Control change ::  Channel 5.  Controller 11.  Value: 98
000001t:  Control change ::  Channel 5.  Controller 11.  Value: 95
000001t:  Control change ::  Channel 5.  Controller 11.  Value: 93
000001t:  Control change ::  Channel 5.  Controller 11.  Value: 90
000033t:  Note on ::  Channel 5.  Note 75.  Velocity 0
000003t:  Pitch wheel change ::  Channel 5.   -8192
000000t:  Control change ::  Channel 5.  Controller 11.  Value: 100
000000t:  Note on ::  Channel 5.  Note 73.  Velocity 100
000007t:  Pitch wheel change ::  Channel 5.   -8192
000000t:  Control change ::  Channel 5.  Controller 11.  Value: 90
000007t:  Control change ::  Channel 5.  Controller 11.  Value: 90
000000t:  Pitch wheel change ::  Channel 5.   -8192
000007t:  Control change ::  Channel 5.  Controller 11.  Value: 75
000024t:  Note on ::  Channel 5.  Note 73.  Velocity 0
000003t:  Control change ::  Channel 5.  Controller 11.  Value: 100
000000t:  Note on ::  Channel 5.  Note 72.  Velocity 100
000024t:  Pitch wheel change ::  Channel 5.   -8192
000012t:  Pitch wheel change ::  Channel 5.   -8192
000007t:  Note on ::  Channel 5.  Note 72.  Velocity 0
000005t:  Note on ::  Channel 5.  Note 70.  Velocity 50
000008t:  Note on ::  Channel 5.  Note 70.  Velocity 0
000004t:  Note on ::  Channel 5.  Note 70.  Velocity 100
000034t:  Note on ::  Channel 5.  Note 70.  Velocity 0
000002t:  Note on ::  Channel 5.  Note 70.  Velocity 100
000045t:  Note on ::  Channel 5.  Note 70.  Velocity 0
000003t:  Note on ::  Channel 5.  Note 68.  Velocity 87
000018t:  Note on ::  Channel 5.  Note 68.  Velocity 0
000006t:  Note on ::  Channel 5.  Note 68.  Velocity 100
000060t:  Pitch wheel change ::  Channel 5.   -8192
000012t:  Pitch wheel change ::  Channel 5.   -8192
000014t:  Note on ::  Channel 5.  Note 68.  Velocity 0
000010t:  Note on ::  Channel 5.  Note 68.  Velocity 91
000014t:  Note on ::  Channel 5.  Note 68.  Velocity 0
000010t:  Note on ::  Channel 5.  Note 66.  Velocity 100
000022t:  Note on ::  Channel 5.  Note 66.  Velocity 0
000002t:  Note on ::  Channel 5.  Note 65.  Velocity 71
000007t:  Note on ::  Channel 5.  Note 65.  Velocity 0
000005t:  Note on ::  Channel 5.  Note 68.  Velocity 100
000095t:  Note on ::  Channel 5.  Note 68.  Velocity 0
000037t:  Note on ::  Channel 5.  Note 63.  Velocity 91
000013t:  Note on ::  Channel 5.  Note 63.  Velocity 0
000011t:  Note on ::  Channel 5.  Note 65.  Velocity 100
000036t:  Pitch wheel change ::  Channel 5.   -8192
000012t:  Pitch wheel change ::  Channel 5.   -8192
000022t:  Note on ::  Channel 5.  Note 65.  Velocity 0
000002t:  Note on ::  Channel 5.  Note 66.  Velocity 100
000022t:  Note on ::  Channel 5.  Note 66.  Velocity 0
000002t:  Note on ::  Channel 5.  Note 65.  Velocity 100
000024t:  Pitch wheel change ::  Channel 5.   -8192
000022t:  Note on ::  Channel 5.  Note 65.  Velocity 0
000002t:  Pitch wheel change ::  Channel 5.   -8192
000000t:  Note on ::  Channel 5.  Note 68.  Velocity 100
000022t:  Note on ::  Channel 5.  Note 68.  Velocity 0
000002t:  Note on ::  Channel 5.  Note 68.  Velocity 76
000092t:  Note on ::  Channel 5.  Note 68.  Velocity 0
000004t:  Pitch wheel change ::  Channel 5.   -8192
000000t:  Control change ::  Channel 5.  Controller 11.  Value: 100
000000t:  Note on ::  Channel 5.  Note 63.  Velocity 100
000017t:  Control change ::  Channel 5.  Controller 11.  Value: 99
000001t:  Control change ::  Channel 5.  Controller 11.  Value: 98
000001t:  Control change ::  Channel 5.  Controller 11.  Value: 97
000001t:  Control change ::  Channel 5.  Controller 11.  Value: 95
000001t:  Control change ::  Channel 5.  Controller 11.  Value: 94
000001t:  Control change ::  Channel 5.  Controller 11.  Value: 93
000001t:  Pitch wheel change ::  Channel 5.   -8192
000000t:  Control change ::  Channel 5.  Controller 11.  Value: 92
000001t:  Pitch wheel change ::  Channel 5.   -8192
000000t:  Control change ::  Channel 5.  Controller 11.  Value: 90
000001t:  Pitch wheel change ::  Channel 5.   -8192
000000t:  Control change ::  Channel 5.  Controller 11.  Value: 89
000001t:  Pitch wheel change ::  Channel 5.   -8192
000000t:  Control change ::  Channel 5.  Controller 11.  Value: 88
000001t:  Pitch wheel change ::  Channel 5.   -8192
000000t:  Control change ::  Channel 5.  Controller 11.  Value: 87
000001t:  Control change ::  Channel 5.  Controller 11.  Value: 85
000001t:  Pitch wheel change ::  Channel 5.   -8192
000000t:  Control change ::  Channel 5.  Controller 11.  Value: 84
000001t:  Pitch wheel change ::  Channel 5.   -8192
000000t:  Control change ::  Channel 5.  Controller 11.  Value: 83
000001t:  Control change ::  Channel 5.  Controller 11.  Value: 82
000001t:  Pitch wheel change ::  Channel 5.   -8192
000000t:  Control change ::  Channel 5.  Controller 11.  Value: 80
000001t:  Control change ::  Channel 5.  Controller 11.  Value: 79
000001t:  Pitch wheel change ::  Channel 5.   -8192
000000t:  Control change ::  Channel 5.  Controller 11.  Value: 78
000001t:  Control change ::  Channel 5.  Controller 11.  Value: 76
000081t:  Note on ::  Channel 5.  Note 63.  Velocity 0
000004t:  Control change ::  Channel 5.  Controller 11.  Value: 100
000000t:  Pitch wheel change ::  Channel 5.   -8192
000000t:  Note on ::  Channel 5.  Note 65.  Velocity 100
000020t:  Pitch wheel change ::  Channel 5.   -8192
000001t:  Control change ::  Channel 5.  Controller 11.  Value: 99
000001t:  Pitch wheel change ::  Channel 5.   -8192
000000t:  Control change ::  Channel 5.  Controller 11.  Value: 97
000001t:  Control change ::  Channel 5.  Controller 11.  Value: 96
000001t:  Pitch wheel change ::  Channel 5.   -8192
000000t:  Control change ::  Channel 5.  Controller 11.  Value: 94
000001t:  Pitch wheel change ::  Channel 5.   -8192
000000t:  Control change ::  Channel 5.  Controller 11.  Value: 92
000001t:  Control change ::  Channel 5.  Controller 11.  Value: 91
000001t:  Pitch wheel change ::  Channel 5.   -8192
000000t:  Control change ::  Channel 5.  Controller 11.  Value: 89
000001t:  Pitch wheel change ::  Channel 5.   -8192
000000t:  Control change ::  Channel 5.  Controller 11.  Value: 87
000001t:  Control change ::  Channel 5.  Controller 11.  Value: 86
000001t:  Pitch wheel change ::  Channel 5.   -8192
000000t:  Control change ::  Channel 5.  Controller 11.  Value: 84
000001t:  Control change ::  Channel 5.  Controller 11.  Value: 82
000017t:  Control change ::  Channel 5.  Controller 11.  Value: 74
000000t:  Pitch wheel change ::  Channel 5.   -8192
000044t:  Note on ::  Channel 5.  Note 65.  Velocity 0
000004t:  Pitch wheel change ::  Channel 5.   -8192
000000t:  Pitch wheel change ::  Channel 5.   -8192
000000t:  Control change ::  Channel 5.  Controller 11.  Value: 100
000000t:  Note on ::  Channel 5.  Note 63.  Velocity 100
000021t:  Control change ::  Channel 5.  Controller 11.  Value: 100
000000t:  Pitch wheel change ::  Channel 5.   -8192
000001t:  Pitch wheel change ::  Channel 5.   -8192
000000t:  Control change ::  Channel 5.  Controller 11.  Value: 98
000001t:  Pitch wheel change ::  Channel 5.   -8192
000000t:  Control change ::  Channel 5.  Controller 11.  Value: 96
000001t:  Pitch wheel change ::  Channel 5.   -8192
000000t:  Control change ::  Channel 5.  Controller 11.  Value: 93
000001t:  Pitch wheel change ::  Channel 5.   -8192
000000t:  Control change ::  Channel 5.  Controller 11.  Value: 91
000001t:  Pitch wheel change ::  Channel 5.   -8192
000000t:  Control change ::  Channel 5.  Controller 11.  Value: 89
000001t:  Control change ::  Channel 5.  Controller 11.  Value: 86
000001t:  Pitch wheel change ::  Channel 5.   -8192
000022t:  Pitch wheel change ::  Channel 5.   -8192
000018t:  Note on ::  Channel 5.  Note 63.  Velocity 0
000004t:  Pitch wheel change ::  Channel 5.   -8192
000001t:  Note on ::  Channel 5.  Note 63.  Velocity 100
000023t:  Pitch wheel change ::  Channel 5.   -8192
000002t:  Pitch wheel change ::  Channel 5.   -8192
000002t:  Pitch wheel change ::  Channel 5.   -8192
000002t:  Pitch wheel change ::  Channel 5.   -8192
000002t:  Pitch wheel change ::  Channel 5.   -8192
000002t:  Pitch wheel change ::  Channel 5.   -8192
000002t:  Pitch wheel change ::  Channel 5.   -8192
000081t:  Note on ::  Channel 5.  Note 63.  Velocity 0
000003t:  Control change ::  Channel 5.  Controller 11.  Value: 100
000024t:  Note on ::  Channel 5.  Note 66.  Velocity 100
000010t:  Note on ::  Channel 5.  Note 66.  Velocity 0
000026t:  Note on ::  Channel 5.  Note 66.  Velocity 100
000006t:  Note on ::  Channel 5.  Note 66.  Velocity 0
000030t:  Note on ::  Channel 5.  Note 66.  Velocity 100
000012t:  Note on ::  Channel 5.  Note 66.  Velocity 0
000024t:  Pitch wheel change ::  Channel 5.   -8192
000000t:  Note on ::  Channel 5.  Note 56.  Velocity 100
000009t:  Pitch wheel change ::  Channel 5.   -8192
000001t:  Pitch wheel change ::  Channel 5.   -8192
000002t:  Pitch wheel change ::  Channel 5.   -8192
000002t:  Pitch wheel change ::  Channel 5.   -8192
000019t:  Pitch wheel change ::  Channel 5.   -8192
000002t:  Pitch wheel change ::  Channel 5.   -8192
000002t:  Pitch wheel change ::  Channel 5.   -8192
000001t:  Pitch wheel change ::  Channel 5.   -8192
000020t:  Note on ::  Channel 5.  Note 56.  Velocity 0
000026t:  Pitch wheel change ::  Channel 5.   -8192
000000t:  Note on ::  Channel 5.  Note 54.  Velocity 100
000011t:  Pitch wheel change ::  Channel 5.   -8192
000012t:  Pitch wheel change ::  Channel 5.   -8192
000011t:  Note on ::  Channel 5.  Note 54.  Velocity 0
000002t:  Note on ::  Channel 5.  Note 51.  Velocity 83
000008t:  Note on ::  Channel 5.  Note 51.  Velocity 0
000004t:  Note on ::  Channel 5.  Note 54.  Velocity 95
000014t:  Note on ::  Channel 5.  Note 54.  Velocity 0
000034t:  Note on ::  Channel 5.  Note 61.  Velocity 100
000022t:  Note on ::  Channel 5.  Note 61.  Velocity 0
000194t:  Note on ::  Channel 5.  Note 68.  Velocity 100
000017t:  Note on ::  Channel 5.  Note 68.  Velocity 0
000007t:  Note on ::  Channel 5.  Note 68.  Velocity 93
000024t:  Note on ::  Channel 5.  Note 68.  Velocity 0
000000t:  Note on ::  Channel 5.  Note 68.  Velocity 88
000048t:  Note on ::  Channel 5.  Note 68.  Velocity 0
000000t:  Note on ::  Channel 5.  Note 68.  Velocity 101
000009t:  Note on ::  Channel 5.  Note 68.  Velocity 0
000003t:  Note on ::  Channel 5.  Note 70.  Velocity 84
000008t:  Note on ::  Channel 5.  Note 70.  Velocity 0
000004t:  Pitch wheel change ::  Channel 5.   -8192
000000t:  Note on ::  Channel 5.  Note 72.  Velocity 100
000007t:  Pitch wheel change ::  Channel 5.   -8192
000002t:  Pitch wheel change ::  Channel 5.   -8192
000002t:  Pitch wheel change ::  Channel 5.   -8192
000001t:  Pitch wheel change ::  Channel 5.   -8192
000010t:  Note on ::  Channel 5.  Note 72.  Velocity 0
000002t:  Pitch wheel change ::  Channel 5.   -8192
000000t:  Note on ::  Channel 5.  Note 75.  Velocity 100
000045t:  Note on ::  Channel 5.  Note 75.  Velocity 0
000147t:  Pitch wheel change ::  Channel 5.   -8192
000000t:  Note on ::  Channel 5.  Note 80.  Velocity 100
000019t:  Pitch wheel change ::  Channel 5.   -8192
000001t:  Pitch wheel change ::  Channel 5.   -8192
000025t:  Note on ::  Channel 5.  Note 80.  Velocity 0
000003t:  Pitch wheel change ::  Channel 5.   -8192
000000t:  Note on ::  Channel 5.  Note 80.  Velocity 100
000022t:  Note on ::  Channel 5.  Note 80.  Velocity 0
000026t:  Note on ::  Channel 5.  Note 78.  Velocity 100
000010t:  Note on ::  Channel 5.  Note 78.  Velocity 0
000014t:  Note on ::  Channel 5.  Note 77.  Velocity 87
000010t:  Note on ::  Channel 5.  Note 77.  Velocity 0
000014t:  Note on ::  Channel 5.  Note 75.  Velocity 90
000018t:  Note on ::  Channel 5.  Note 75.  Velocity 0
000006t:  Note on ::  Channel 5.  Note 72.  Velocity 83
000022t:  Note on ::  Channel 5.  Note 72.  Velocity 0
000000t:  Control change ::  Channel 5.  Controller 7.  Value: 126
000001t:  Pitch wheel change ::  Channel 5.   -8192
000001t:  Control change ::  Channel 5.  Controller 7.  Value: 126
000000t:  Note on ::  Channel 5.  Note 75.  Velocity 100
000011t:  Control change ::  Channel 5.  Controller 7.  Value: 125
000008t:  Pitch wheel change ::  Channel 5.   -8192
000001t:  Pitch wheel change ::  Channel 5.   -8192
000002t:  Control change ::  Channel 5.  Controller 7.  Value: 124
000010t:  Control change ::  Channel 5.  Controller 7.  Value: 123
000011t:  Control change ::  Channel 5.  Controller 7.  Value: 122
000002t:  Note on ::  Channel 5.  Note 75.  Velocity 0
000003t:  Pitch wheel change ::  Channel 5.   -8192
000000t:  Note on ::  Channel 5.  Note 68.  Velocity 100
000006t:  Control change ::  Channel 5.  Controller 7.  Value: 121
000008t:  Note on ::  Channel 5.  Note 68.  Velocity 0
000002t:  Control change ::  Channel 5.  Controller 7.  Value: 120
000008t:  Note on ::  Channel 5.  Note 68.  Velocity 85
000003t:  Control change ::  Channel 5.  Controller 7.  Value: 119
000011t:  Note on ::  Channel 5.  Note 68.  Velocity 0
000000t:  Control change ::  Channel 5.  Controller 7.  Value: 118
000010t:  Note on ::  Channel 5.  Note 68.  Velocity 100
000000t:  Control change ::  Channel 5.  Controller 7.  Value: 117
000011t:  Control change ::  Channel 5.  Controller 7.  Value: 116
000011t:  Control change ::  Channel 5.  Controller 7.  Value: 115
000010t:  Control change ::  Channel 5.  Controller 7.  Value: 114
000011t:  Control change ::  Channel 5.  Controller 7.  Value: 113
000002t:  Note on ::  Channel 5.  Note 68.  Velocity 0
000003t:  Note on ::  Channel 5.  Note 73.  Velocity 100
000006t:  Control change ::  Channel 5.  Controller 7.  Value: 112
000004t:  Note on ::  Channel 5.  Note 73.  Velocity 0
000006t:  Control change ::  Channel 5.  Controller 7.  Value: 111
000008t:  Note on ::  Channel 5.  Note 72.  Velocity 86
000003t:  Control change ::  Channel 5.  Controller 7.  Value: 110
000007t:  Note on ::  Channel 5.  Note 72.  Velocity 0
000004t:  Control change ::  Channel 5.  Controller 7.  Value: 109
000010t:  Pitch wheel change ::  Channel 5.   -8192
000000t:  Note on ::  Channel 5.  Note 72.  Velocity 100
000000t:  Control change ::  Channel 5.  Controller 7.  Value: 108
000011t:  Control change ::  Channel 5.  Controller 7.  Value: 107
000008t:  Pitch wheel change ::  Channel 5.   -8192
000001t:  Pitch wheel change ::  Channel 5.   -8192
000002t:  Control change ::  Channel 5.  Controller 7.  Value: 106
000010t:  Control change ::  Channel 5.  Controller 7.  Value: 105
000011t:  Control change ::  Channel 5.  Controller 7.  Value: 104
000002t:  Note on ::  Channel 5.  Note 72.  Velocity 0
000003t:  Pitch wheel change ::  Channel 5.   -8192
000000t:  Note on ::  Channel 5.  Note 72.  Velocity 100
000006t:  Control change ::  Channel 5.  Controller 7.  Value: 103
000004t:  Note on ::  Channel 5.  Note 72.  Velocity 0
000006t:  Control change ::  Channel 5.  Controller 7.  Value: 102
000008t:  Note on ::  Channel 5.  Note 73.  Velocity 100
000003t:  Control change ::  Channel 5.  Controller 7.  Value: 101
000007t:  Note on ::  Channel 5.  Note 73.  Velocity 0
000004t:  Control change ::  Channel 5.  Controller 7.  Value: 100
000010t:  Note on ::  Channel 5.  Note 72.  Velocity 100
000000t:  Control change ::  Channel 5.  Controller 7.  Value: 99
000010t:  Note on ::  Channel 5.  Note 72.  Velocity 0
000001t:  Control change ::  Channel 5.  Controller 7.  Value: 98
000011t:  Control change ::  Channel 5.  Controller 7.  Value: 97
000002t:  Note on ::  Channel 5.  Note 70.  Velocity 100
000008t:  Control change ::  Channel 5.  Controller 7.  Value: 96
000006t:  Note on ::  Channel 5.  Note 70.  Velocity 0
000005t:  Control change ::  Channel 5.  Controller 7.  Value: 95
000005t:  Note on ::  Channel 5.  Note 68.  Velocity 100
000006t:  Control change ::  Channel 5.  Controller 7.  Value: 94
000010t:  Control change ::  Channel 5.  Controller 7.  Value: 93
000002t:  Note on ::  Channel 5.  Note 68.  Velocity 0
000006t:  Note on ::  Channel 5.  Note 65.  Velocity 100
000003t:  Control change ::  Channel 5.  Controller 7.  Value: 92
000011t:  Control change ::  Channel 5.  Controller 7.  Value: 91
000008t:  Note on ::  Channel 5.  Note 65.  Velocity 0
000002t:  Note on ::  Channel 5.  Note 65.  Velocity 100
000000t:  Control change ::  Channel 5.  Controller 7.  Value: 90
000011t:  Control change ::  Channel 5.  Controller 7.  Value: 89
000011t:  Control change ::  Channel 5.  Controller 7.  Value: 88
000010t:  Control change ::  Channel 5.  Controller 7.  Value: 87
000011t:  Control change ::  Channel 5.  Controller 7.  Value: 86
000002t:  Note on ::  Channel 5.  Note 65.  Velocity 0
000003t:  Note on ::  Channel 5.  Note 63.  Velocity 100
000006t:  Control change ::  Channel 5.  Controller 7.  Value: 85
000010t:  Control change ::  Channel 5.  Controller 7.  Value: 84
000006t:  Note on ::  Channel 5.  Note 63.  Velocity 0
000002t:  Pitch wheel change ::  Channel 5.   -8192
000000t:  Note on ::  Channel 5.  Note 63.  Velocity 100
000003t:  Control change ::  Channel 5.  Controller 7.  Value: 83
000010t:  Control change ::  Channel 5.  Controller 7.  Value: 82
000006t:  Pitch wheel change ::  Channel 5.   -8192
000001t:  Pitch wheel change ::  Channel 5.   -8192
000004t:  Control change ::  Channel 5.  Controller 7.  Value: 81
000011t:  Control change ::  Channel 5.  Controller 7.  Value: 80
000010t:  Note on ::  Channel 5.  Note 63.  Velocity 0
000000t:  Control change ::  Channel 5.  Controller 7.  Value: 79
000003t:  Pitch wheel change ::  Channel 5.   -8192
000000t:  Note on ::  Channel 5.  Note 60.  Velocity 100
000008t:  Control change ::  Channel 5.  Controller 7.  Value: 78
000011t:  Control change ::  Channel 5.  Controller 7.  Value: 77
000010t:  Control change ::  Channel 5.  Controller 7.  Value: 76
000011t:  Control change ::  Channel 5.  Controller 7.  Value: 75
000011t:  Control change ::  Channel 5.  Controller 7.  Value: 74
000010t:  Control change ::  Channel 5.  Controller 7.  Value: 73
000007t:  Note on ::  Channel 5.  Note 60.  Velocity 0
000004t:  Note on ::  Channel 5.  Note 60.  Velocity 100
000000t:  Control change ::  Channel 5.  Controller 7.  Value: 72
000010t:  Note on ::  Channel 5.  Note 60.  Velocity 0
000001t:  Control change ::  Channel 5.  Controller 7.  Value: 71
000001t:  Note on ::  Channel 5.  Note 58.  Velocity 70
000009t:  Control change ::  Channel 5.  Controller 7.  Value: 70
000001t:  Note on ::  Channel 5.  Note 58.  Velocity 0
000002t:  Note on ::  Channel 5.  Note 56.  Velocity 70
000008t:  Control change ::  Channel 5.  Controller 7.  Value: 69
000002t:  Note on ::  Channel 5.  Note 56.  Velocity 0
000002t:  Note on ::  Channel 5.  Note 58.  Velocity 100
000007t:  Control change ::  Channel 5.  Controller 7.  Value: 68
000003t:  Note on ::  Channel 5.  Note 58.  Velocity 0
000002t:  Note on ::  Channel 5.  Note 56.  Velocity 70
000005t:  Control change ::  Channel 5.  Controller 7.  Value: 67
000005t:  Note on ::  Channel 5.  Note 56.  Velocity 0
000002t:  Note on ::  Channel 5.  Note 54.  Velocity 70
000004t:  Control change ::  Channel 5.  Controller 7.  Value: 66
000006t:  Note on ::  Channel 5.  Note 54.  Velocity 0
000002t:  Note on ::  Channel 5.  Note 56.  Velocity 100
000003t:  Control change ::  Channel 5.  Controller 7.  Value: 65
000007t:  Note on ::  Channel 5.  Note 56.  Velocity 0
000002t:  Note on ::  Channel 5.  Note 54.  Velocity 70
000001t:  Control change ::  Channel 5.  Controller 7.  Value: 64
000009t:  Note on ::  Channel 5.  Note 54.  Velocity 0
000002t:  Note on ::  Channel 5.  Note 51.  Velocity 70
000000t:  Control change ::  Channel 5.  Controller 7.  Value: 63
000010t:  Note on ::  Channel 5.  Note 51.  Velocity 0
000001t:  Control change ::  Channel 5.  Controller 7.  Value: 62
000001t:  Note on ::  Channel 5.  Note 54.  Velocity 100
000009t:  Control change ::  Channel 5.  Controller 7.  Value: 61
000001t:  Note on ::  Channel 5.  Note 54.  Velocity 0
000002t:  Note on ::  Channel 5.  Note 51.  Velocity 70
000008t:  Control change ::  Channel 5.  Controller 7.  Value: 60
000002t:  Note on ::  Channel 5.  Note 51.  Velocity 0
000002t:  Note on ::  Channel 5.  Note 49.  Velocity 70
000007t:  Control change ::  Channel 5.  Controller 7.  Value: 59
000003t:  Note on ::  Channel 5.  Note 49.  Velocity 0
000002t:  Pitch wheel change ::  Channel 5.   -8192
000000t:  Note on ::  Channel 5.  Note 48.  Velocity 100
000005t:  Control change ::  Channel 5.  Controller 7.  Value: 58
000004t:  Pitch wheel change ::  Channel 5.   -8192
000001t:  Pitch wheel change ::  Channel 5.   -8192
000001t:  Pitch wheel change ::  Channel 5.   -8192
000001t:  Pitch wheel change ::  Channel 5.   -8192
000004t:  Control change ::  Channel 5.  Controller 7.  Value: 57
000005t:  Pitch wheel change ::  Channel 5.   -8192
000001t:  Pitch wheel change ::  Channel 5.   -8192
000001t:  Pitch wheel change ::  Channel 5.   -8192
000001t:  Pitch wheel change ::  Channel 5.   -8192
000003t:  Control change ::  Channel 5.  Controller 7.  Value: 56
000010t:  Control change ::  Channel 5.  Controller 7.  Value: 55
000008t:  Note on ::  Channel 5.  Note 48.  Velocity 0
000003t:  Pitch wheel change ::  Channel 5.   -8192
000000t:  Note on ::  Channel 5.  Note 65.  Velocity 80
000000t:  Control change ::  Channel 5.  Controller 7.  Value: 54
000011t:  Control change ::  Channel 5.  Controller 7.  Value: 53
000009t:  Pitch wheel change ::  Channel 5.   -8192
000001t:  Pitch wheel change ::  Channel 5.   -8192
000000t:  Control change ::  Channel 5.  Controller 7.  Value: 52
000001t:  Pitch wheel change ::  Channel 5.   -8192
000001t:  Pitch wheel change ::  Channel 5.   -8192
000001t:  Pitch wheel change ::  Channel 5.   -8192
000001t:  Pitch wheel change ::  Channel 5.   -8192
000007t:  Note on ::  Channel 5.  Note 65.  Velocity 0
000000t:  Control change ::  Channel 5.  Controller 7.  Value: 51
000011t:  Control change ::  Channel 5.  Controller 7.  Value: 50
000005t:  Note on ::  Channel 5.  Note 68.  Velocity 80
000005t:  Control change ::  Channel 5.  Controller 7.  Value: 49
000003t:  Note on ::  Channel 5.  Note 68.  Velocity 0
000008t:  Control change ::  Channel 5.  Controller 7.  Value: 48
000008t:  Note on ::  Channel 5.  Note 73.  Velocity 80
000003t:  Control change ::  Channel 5.  Controller 7.  Value: 47
000005t:  Note on ::  Channel 5.  Note 73.  Velocity 0
000005t:  Control change ::  Channel 5.  Controller 7.  Value: 46
000011t:  Control change ::  Channel 5.  Controller 7.  Value: 45
000011t:  Control change ::  Channel 5.  Controller 7.  Value: 44
000010t:  Control change ::  Channel 5.  Controller 7.  Value: 43
000003t:  Note on ::  Channel 5.  Note 60.  Velocity 80
000008t:  Note on ::  Channel 5.  Note 60.  Velocity 0
000000t:  Control change ::  Channel 5.  Controller 7.  Value: 42
000010t:  Control change ::  Channel 5.  Controller 7.  Value: 41
000006t:  Note on ::  Channel 5.  Note 63.  Velocity 80
000005t:  Control change ::  Channel 5.  Controller 7.  Value: 40
000003t:  Note on ::  Channel 5.  Note 63.  Velocity 0
000008t:  Control change ::  Channel 5.  Controller 7.  Value: 39
000008t:  Note on ::  Channel 5.  Note 68.  Velocity 80
000002t:  Control change ::  Channel 5.  Controller 7.  Value: 38
000006t:  Note on ::  Channel 5.  Note 68.  Velocity 0
000005t:  Control change ::  Channel 5.  Controller 7.  Value: 37
000011t:  Control change ::  Channel 5.  Controller 7.  Value: 36
000010t:  Control change ::  Channel 5.  Controller 7.  Value: 35
000011t:  Control change ::  Channel 5.  Controller 7.  Value: 34
000003t:  Note on ::  Channel 5.  Note 58.  Velocity 80
000008t:  Note on ::  Channel 5.  Note 58.  Velocity 0
000000t:  Control change ::  Channel 5.  Controller 7.  Value: 33
000010t:  Control change ::  Channel 5.  Controller 7.  Value: 32
000006t:  Note on ::  Channel 5.  Note 61.  Velocity 80
000005t:  Control change ::  Channel 5.  Controller 7.  Value: 31
000003t:  Note on ::  Channel 5.  Note 61.  Velocity 0
000008t:  Control change ::  Channel 5.  Controller 7.  Value: 30
000008t:  Note on ::  Channel 5.  Note 66.  Velocity 80
000002t:  Control change ::  Channel 5.  Controller 7.  Value: 29
000006t:  Note on ::  Channel 5.  Note 66.  Velocity 0
000005t:  Control change ::  Channel 5.  Controller 7.  Value: 28
000011t:  Pitch wheel change ::  Channel 5.   -8192
000000t:  Note on ::  Channel 5.  Note 60.  Velocity 80
000000t:  Control change ::  Channel 5.  Controller 7.  Value: 27
000010t:  Control change ::  Channel 5.  Controller 7.  Value: 26
000010t:  Pitch wheel change ::  Channel 5.   -8192
000001t:  Pitch wheel change ::  Channel 5.   -8192
000000t:  Control change ::  Channel 5.  Controller 7.  Value: 25
000001t:  Pitch wheel change ::  Channel 5.   -8192
000001t:  Pitch wheel change ::  Channel 5.   -8192
000001t:  Pitch wheel change ::  Channel 5.   -8192
000001t:  Pitch wheel change ::  Channel 5.   -8192
000007t:  Note on ::  Channel 5.  Note 60.  Velocity 0
000000t:  Control change ::  Channel 5.  Controller 7.  Value: 24
000010t:  Control change ::  Channel 5.  Controller 7.  Value: 23
000006t:  Note on ::  Channel 5.  Note 63.  Velocity 80
000005t:  Control change ::  Channel 5.  Controller 7.  Value: 22
000003t:  Note on ::  Channel 5.  Note 63.  Velocity 0
000008t:  Control change ::  Channel 5.  Controller 7.  Value: 21
000008t:  Note on ::  Channel 5.  Note 68.  Velocity 80
000002t:  Control change ::  Channel 5.  Controller 7.  Value: 20
000006t:  Note on ::  Channel 5.  Note 68.  Velocity 0
000005t:  Control change ::  Channel 5.  Controller 7.  Value: 19
000011t:  Pitch wheel change ::  Channel 5.   -8192
000000t:  Note on ::  Channel 5.  Note 65.  Velocity 80
000000t:  Control change ::  Channel 5.  Controller 7.  Value: 18
000010t:  Control change ::  Channel 5.  Controller 7.  Value: 17
000010t:  Pitch wheel change ::  Channel 5.   -8192
000001t:  Pitch wheel change ::  Channel 5.   -8192
000000t:  Control change ::  Channel 5.  Controller 7.  Value: 16
000001t:  Pitch wheel change ::  Channel 5.   -8192
000001t:  Pitch wheel change ::  Channel 5.   -8192
000001t:  Pitch wheel change ::  Channel 5.   -8192
000001t:  Pitch wheel change ::  Channel 5.   -8192
000007t:  Note on ::  Channel 5.  Note 65.  Velocity 0
000000t:  Control change ::  Channel 5.  Controller 7.  Value: 15
000010t:  Control change ::  Channel 5.  Controller 7.  Value: 14
000006t:  Note on ::  Channel 5.  Note 68.  Velocity 80
000005t:  Control change ::  Channel 5.  Controller 7.  Value: 13
000003t:  Note on ::  Channel 5.  Note 68.  Velocity 0
000008t:  Control change ::  Channel 5.  Controller 7.  Value: 12
000008t:  Note on ::  Channel 5.  Note 73.  Velocity 80
000002t:  Control change ::  Channel 5.  Controller 7.  Value: 11
000006t:  Note on ::  Channel 5.  Note 73.  Velocity 0
000005t:  Control change ::  Channel 5.  Controller 7.  Value: 10
000011t:  Control change ::  Channel 5.  Controller 7.  Value: 9
000010t:  Control change ::  Channel 5.  Controller 7.  Value: 8
000011t:  Control change ::  Channel 5.  Controller 7.  Value: 7
000003t:  Note on ::  Channel 5.  Note 60.  Velocity 80
000008t:  Note on ::  Channel 5.  Note 60.  Velocity 0
000000t:  Control change ::  Channel 5.  Controller 7.  Value: 6
000010t:  Control change ::  Channel 5.  Controller 7.  Value: 5
000006t:  Note on ::  Channel 5.  Note 63.  Velocity 80
000005t:  Control change ::  Channel 5.  Controller 7.  Value: 4
000003t:  Note on ::  Channel 5.  Note 63.  Velocity 0
000008t:  Control change ::  Channel 5.  Controller 7.  Value: 3
000008t:  Note on ::  Channel 5.  Note 68.  Velocity 80
000002t:  Control change ::  Channel 5.  Controller 7.  Value: 2
000006t:  Note on ::  Channel 5.  Note 68.  Velocity 0
000005t:  Control change ::  Channel 5.  Controller 7.  Value: 1
000010t:  Control change ::  Channel 5.  Controller 7.  Value: 0
000000t:  Meta-event type $2f (End-track event) of length 0
Sigma t = 24913

Track chunk of 4321 bytes
000000t:  Meta-event type $21 (?) of length 1
	  _
000000t:  Program (patch) change ::  Channel 6.  Patch 51 (SynthStrings 2)
000000t:  Control change ::  Channel 6.  Controller 7.  Value: 80
000000t:  Control change ::  Channel 6.  Controller 10.  Value: 64
000087t:  Control change ::  Channel 6.  Controller 11.  Value: 100
000005t:  Control change ::  Channel 6.  Controller 100.  Value: 0
000002t:  Control change ::  Channel 6.  Controller 101.  Value: 0
000002t:  Control change ::  Channel 6.  Controller 6.  Value: 16
000002t:  Pitch wheel change ::  Channel 6.   -8192
000008t:  Control change ::  Channel 6.  Controller 1.  Value: 30
000002t:  Meta-event type $21 (?) of length 1
	  _
000000t:  Sysex type f0 of length 9
000000t:  Meta-event type $21 (?) of length 1
	  _
000002t:  Control change ::  Channel 6.  Controller 65.  Value: 0
000002t:  Control change ::  Channel 6.  Controller 5.  Value: 0
000002t:  Meta-event type $21 (?) of length 1
	  _
000000t:  Sysex type f0 of length 9
000000t:  Meta-event type $21 (?) of length 1
	  _
000002t:  Meta-event type $21 (?) of length 1
	  _
000000t:  Sysex type f0 of length 9
000000t:  Meta-event type $21 (?) of length 1
	  _
000292t:  Note on ::  Channel 6.  Note 37.  Velocity 80
000000t:  Note on ::  Channel 6.  Note 49.  Velocity 80
000000t:  Note on ::  Channel 6.  Note 56.  Velocity 80
000000t:  Note on ::  Channel 6.  Note 61.  Velocity 80
000000t:  Note on ::  Channel 6.  Note 65.  Velocity 80
000022t:  Note on ::  Channel 6.  Note 65.  Velocity 0
000000t:  Note on ::  Channel 6.  Note 56.  Velocity 0
000000t:  Note on ::  Channel 6.  Note 37.  Velocity 0
000000t:  Note on ::  Channel 6.  Note 49.  Velocity 0
000000t:  Note on ::  Channel 6.  Note 61.  Velocity 0
000002t:  Note on ::  Channel 6.  Note 37.  Velocity 80
000000t:  Note on ::  Channel 6.  Note 49.  Velocity 80
000000t:  Note on ::  Channel 6.  Note 56.  Velocity 80
000000t:  Note on ::  Channel 6.  Note 61.  Velocity 80
000000t:  Note on ::  Channel 6.  Note 65.  Velocity 80
000190t:  Note on ::  Channel 6.  Note 65.  Velocity 0
000000t:  Note on ::  Channel 6.  Note 56.  Velocity 0
000000t:  Note on ::  Channel 6.  Note 37.  Velocity 0
000000t:  Note on ::  Channel 6.  Note 49.  Velocity 0
000000t:  Note on ::  Channel 6.  Note 61.  Velocity 0
000266t:  Note on ::  Channel 6.  Note 37.  Velocity 80
000000t:  Note on ::  Channel 6.  Note 49.  Velocity 80
000000t:  Note on ::  Channel 6.  Note 56.  Velocity 80
000000t:  Note on ::  Channel 6.  Note 61.  Velocity 80
000000t:  Note on ::  Channel 6.  Note 65.  Velocity 80
000022t:  Note on ::  Channel 6.  Note 65.  Velocity 0
000000t:  Note on ::  Channel 6.  Note 56.  Velocity 0
000000t:  Note on ::  Channel 6.  Note 37.  Velocity 0
000000t:  Note on ::  Channel 6.  Note 49.  Velocity 0
000000t:  Note on ::  Channel 6.  Note 61.  Velocity 0
000002t:  Note on ::  Channel 6.  Note 37.  Velocity 80
000000t:  Note on ::  Channel 6.  Note 49.  Velocity 80
000000t:  Note on ::  Channel 6.  Note 56.  Velocity 80
000000t:  Note on ::  Channel 6.  Note 61.  Velocity 80
000000t:  Note on ::  Channel 6.  Note 65.  Velocity 80
000190t:  Note on ::  Channel 6.  Note 65.  Velocity 0
000000t:  Note on ::  Channel 6.  Note 56.  Velocity 0
000000t:  Note on ::  Channel 6.  Note 37.  Velocity 0
000000t:  Note on ::  Channel 6.  Note 49.  Velocity 0
000000t:  Note on ::  Channel 6.  Note 61.  Velocity 0
004226t:  Note on ::  Channel 6.  Note 56.  Velocity 80
000000t:  Note on ::  Channel 6.  Note 53.  Velocity 80
000000t:  Note on ::  Channel 6.  Note 49.  Velocity 80
000092t:  Note on ::  Channel 6.  Note 49.  Velocity 0
000000t:  Note on ::  Channel 6.  Note 53.  Velocity 0
000000t:  Note on ::  Channel 6.  Note 56.  Velocity 0
000004t:  Note on ::  Channel 6.  Note 51.  Velocity 80
000000t:  Note on ::  Channel 6.  Note 48.  Velocity 80
000000t:  Note on ::  Channel 6.  Note 56.  Velocity 80
000092t:  Note on ::  Channel 6.  Note 56.  Velocity 0
000000t:  Note on ::  Channel 6.  Note 48.  Velocity 0
000000t:  Note on ::  Channel 6.  Note 51.  Velocity 0
000004t:  Note on ::  Channel 6.  Note 49.  Velocity 80
000000t:  Note on ::  Channel 6.  Note 58.  Velocity 80
000000t:  Note on ::  Channel 6.  Note 54.  Velocity 80
000092t:  Note on ::  Channel 6.  Note 54.  Velocity 0
000000t:  Note on ::  Channel 6.  Note 58.  Velocity 0
000000t:  Note on ::  Channel 6.  Note 49.  Velocity 0
000004t:  Note on ::  Channel 6.  Note 56.  Velocity 80
000000t:  Note on ::  Channel 6.  Note 51.  Velocity 80
000000t:  Note on ::  Channel 6.  Note 48.  Velocity 80
000092t:  Note on ::  Channel 6.  Note 48.  Velocity 0
000000t:  Note on ::  Channel 6.  Note 51.  Velocity 0
000000t:  Note on ::  Channel 6.  Note 56.  Velocity 0
000004t:  Note on ::  Channel 6.  Note 56.  Velocity 80
000000t:  Note on ::  Channel 6.  Note 53.  Velocity 80
000000t:  Note on ::  Channel 6.  Note 49.  Velocity 80
000092t:  Note on ::  Channel 6.  Note 49.  Velocity 0
000000t:  Note on ::  Channel 6.  Note 53.  Velocity 0
000000t:  Note on ::  Channel 6.  Note 56.  Velocity 0
000004t:  Note on ::  Channel 6.  Note 51.  Velocity 80
000000t:  Note on ::  Channel 6.  Note 48.  Velocity 80
000000t:  Note on ::  Channel 6.  Note 56.  Velocity 80
000092t:  Note on ::  Channel 6.  Note 56.  Velocity 0
000000t:  Note on ::  Channel 6.  Note 48.  Velocity 0
000000t:  Note on ::  Channel 6.  Note 51.  Velocity 0
000004t:  Note on ::  Channel 6.  Note 53.  Velocity 80
000000t:  Note on ::  Channel 6.  Note 49.  Velocity 80
000000t:  Note on ::  Channel 6.  Note 46.  Velocity 80
000092t:  Note on ::  Channel 6.  Note 46.  Velocity 0
000000t:  Note on ::  Channel 6.  Note 49.  Velocity 0
000000t:  Note on ::  Channel 6.  Note 53.  Velocity 0
000004t:  Note on ::  Channel 6.  Note 58.  Velocity 80
000000t:  Note on ::  Channel 6.  Note 54.  Velocity 80
000000t:  Note on ::  Channel 6.  Note 49.  Velocity 80
000092t:  Note on ::  Channel 6.  Note 49.  Velocity 0
000000t:  Note on ::  Channel 6.  Note 54.  Velocity 0
000000t:  Note on ::  Channel 6.  Note 58.  Velocity 0
000004t:  Note on ::  Channel 6.  Note 56.  Velocity 80
000000t:  Note on ::  Channel 6.  Note 53.  Velocity 80
000000t:  Note on ::  Channel 6.  Note 49.  Velocity 80
000092t:  Note on ::  Channel 6.  Note 49.  Velocity 0
000000t:  Note on ::  Channel 6.  Note 53.  Velocity 0
000000t:  Note on ::  Channel 6.  Note 56.  Velocity 0
000004t:  Note on ::  Channel 6.  Note 56.  Velocity 80
000000t:  Note on ::  Channel 6.  Note 53.  Velocity 80
000000t:  Note on ::  Channel 6.  Note 48.  Velocity 80
000092t:  Note on ::  Channel 6.  Note 48.  Velocity 0
000000t:  Note on ::  Channel 6.  Note 53.  Velocity 0
000000t:  Note on ::  Channel 6.  Note 56.  Velocity 0
000004t:  Note on ::  Channel 6.  Note 58.  Velocity 80
000000t:  Note on ::  Channel 6.  Note 53.  Velocity 80
000000t:  Note on ::  Channel 6.  Note 49.  Velocity 80
000092t:  Note on ::  Channel 6.  Note 49.  Velocity 0
000000t:  Note on ::  Channel 6.  Note 53.  Velocity 0
000000t:  Note on ::  Channel 6.  Note 58.  Velocity 0
000004t:  Note on ::  Channel 6.  Note 58.  Velocity 80
000000t:  Note on ::  Channel 6.  Note 54.  Velocity 80
000000t:  Note on ::  Channel 6.  Note 51.  Velocity 80
000000t:  Note on ::  Channel 6.  Note 49.  Velocity 80
000092t:  Note on ::  Channel 6.  Note 49.  Velocity 0
000000t:  Note on ::  Channel 6.  Note 58.  Velocity 0
000000t:  Note on ::  Channel 6.  Note 54.  Velocity 0
000000t:  Note on ::  Channel 6.  Note 51.  Velocity 0
000004t:  Note on ::  Channel 6.  Note 51.  Velocity 80
000000t:  Note on ::  Channel 6.  Note 49.  Velocity 80
000000t:  Note on ::  Channel 6.  Note 56.  Velocity 80
000190t:  Note on ::  Channel 6.  Note 56.  Velocity 0
000000t:  Note on ::  Channel 6.  Note 49.  Velocity 0
000000t:  Note on ::  Channel 6.  Note 51.  Velocity 0
000002t:  Note on ::  Channel 6.  Note 56.  Velocity 80
000000t:  Note on ::  Channel 6.  Note 51.  Velocity 80
000000t:  Note on ::  Channel 6.  Note 48.  Velocity 80
000190t:  Note on ::  Channel 6.  Note 48.  Velocity 0
000000t:  Note on ::  Channel 6.  Note 51.  Velocity 0
000000t:  Note on ::  Channel 6.  Note 56.  Velocity 0
000000t:  Control change ::  Channel 6.  Controller 7.  Value: 112
000001t:  Program (patch) change ::  Channel 6.  Patch 1 (Bright Acoustic)
000001t:  Control change ::  Channel 6.  Controller 10.  Value: 88
000000t:  Note on ::  Channel 6.  Note 56.  Velocity 92
000000t:  Note on ::  Channel 6.  Note 63.  Velocity 92
000000t:  Note on ::  Channel 6.  Note 75.  Velocity 92
000022t:  Note on ::  Channel 6.  Note 75.  Velocity 0
000002t:  Note on ::  Channel 6.  Note 72.  Velocity 68
000022t:  Note on ::  Channel 6.  Note 72.  Velocity 0
000002t:  Note on ::  Channel 6.  Note 68.  Velocity 70
000020t:  Note on ::  Channel 6.  Note 63.  Velocity 0
000000t:  Note on ::  Channel 6.  Note 56.  Velocity 0
000002t:  Note on ::  Channel 6.  Note 68.  Velocity 0
000002t:  Note on ::  Channel 6.  Note 58.  Velocity 76
000000t:  Note on ::  Channel 6.  Note 65.  Velocity 76
000000t:  Note on ::  Channel 6.  Note 77.  Velocity 76
000022t:  Note on ::  Channel 6.  Note 77.  Velocity 0
000002t:  Note on ::  Channel 6.  Note 73.  Velocity 68
000022t:  Note on ::  Channel 6.  Note 73.  Velocity 0
000002t:  Note on ::  Channel 6.  Note 70.  Velocity 70
000021t:  Note on ::  Channel 6.  Note 65.  Velocity 0
000000t:  Note on ::  Channel 6.  Note 58.  Velocity 0
000001t:  Note on ::  Channel 6.  Note 70.  Velocity 0
000002t:  Note on ::  Channel 6.  Note 54.  Velocity 80
000000t:  Note on ::  Channel 6.  Note 61.  Velocity 80
000000t:  Note on ::  Channel 6.  Note 73.  Velocity 80
000022t:  Note on ::  Channel 6.  Note 73.  Velocity 0
000002t:  Note on ::  Channel 6.  Note 70.  Velocity 68
000022t:  Note on ::  Channel 6.  Note 70.  Velocity 0
000002t:  Note on ::  Channel 6.  Note 66.  Velocity 68
000020t:  Note on ::  Channel 6.  Note 61.  Velocity 0
000000t:  Note on ::  Channel 6.  Note 54.  Velocity 0
000002t:  Note on ::  Channel 6.  Note 66.  Velocity 0
000002t:  Note on ::  Channel 6.  Note 56.  Velocity 76
000000t:  Note on ::  Channel 6.  Note 63.  Velocity 76
000000t:  Note on ::  Channel 6.  Note 75.  Velocity 76
000022t:  Note on ::  Channel 6.  Note 75.  Velocity 0
000002t:  Note on ::  Channel 6.  Note 72.  Velocity 68
000022t:  Note on ::  Channel 6.  Note 72.  Velocity 0
000002t:  Note on ::  Channel 6.  Note 68.  Velocity 68
000021t:  Note on ::  Channel 6.  Note 63.  Velocity 0
000000t:  Note on ::  Channel 6.  Note 56.  Velocity 0
000001t:  Note on ::  Channel 6.  Note 68.  Velocity 0
000002t:  Note on ::  Channel 6.  Note 49.  Velocity 80
000000t:  Note on ::  Channel 6.  Note 56.  Velocity 80
000000t:  Note on ::  Channel 6.  Note 65.  Velocity 80
000000t:  Note on ::  Channel 6.  Note 73.  Velocity 80
000190t:  Note on ::  Channel 6.  Note 73.  Velocity 0
000000t:  Note on ::  Channel 6.  Note 49.  Velocity 0
000000t:  Note on ::  Channel 6.  Note 56.  Velocity 0
000000t:  Note on ::  Channel 6.  Note 65.  Velocity 0
000002t:  Note on ::  Channel 6.  Note 56.  Velocity 92
000000t:  Note on ::  Channel 6.  Note 63.  Velocity 92
000000t:  Note on ::  Channel 6.  Note 75.  Velocity 92
000022t:  Note on ::  Channel 6.  Note 75.  Velocity 0
000002t:  Note on ::  Channel 6.  Note 72.  Velocity 67
000022t:  Note on ::  Channel 6.  Note 72.  Velocity 0
000002t:  Note on ::  Channel 6.  Note 68.  Velocity 67
000020t:  Note on ::  Channel 6.  Note 63.  Velocity 0
000000t:  Note on ::  Channel 6.  Note 56.  Velocity 0
000002t:  Note on ::  Channel 6.  Note 68.  Velocity 0
000002t:  Note on ::  Channel 6.  Note 58.  Velocity 76
000000t:  Note on ::  Channel 6.  Note 65.  Velocity 76
000000t:  Note on ::  Channel 6.  Note 77.  Velocity 76
000022t:  Note on ::  Channel 6.  Note 77.  Velocity 0
000002t:  Note on ::  Channel 6.  Note 73.  Velocity 66
000022t:  Note on ::  Channel 6.  Note 73.  Velocity 0
000002t:  Note on ::  Channel 6.  Note 70.  Velocity 67
000021t:  Note on ::  Channel 6.  Note 65.  Velocity 0
000000t:  Note on ::  Channel 6.  Note 58.  Velocity 0
000001t:  Note on ::  Channel 6.  Note 70.  Velocity 0
000002t:  Note on ::  Channel 6.  Note 54.  Velocity 80
000000t:  Note on ::  Channel 6.  Note 61.  Velocity 80
000000t:  Note on ::  Channel 6.  Note 73.  Velocity 80
000022t:  Note on ::  Channel 6.  Note 73.  Velocity 0
000002t:  Note on ::  Channel 6.  Note 70.  Velocity 67
000022t:  Note on ::  Channel 6.  Note 70.  Velocity 0
000002t:  Note on ::  Channel 6.  Note 66.  Velocity 67
000020t:  Note on ::  Channel 6.  Note 61.  Velocity 0
000000t:  Note on ::  Channel 6.  Note 54.  Velocity 0
000002t:  Note on ::  Channel 6.  Note 66.  Velocity 0
000002t:  Note on ::  Channel 6.  Note 56.  Velocity 76
000000t:  Note on ::  Channel 6.  Note 63.  Velocity 76
000000t:  Note on ::  Channel 6.  Note 75.  Velocity 76
000022t:  Note on ::  Channel 6.  Note 75.  Velocity 0
000002t:  Note on ::  Channel 6.  Note 72.  Velocity 66
000022t:  Note on ::  Channel 6.  Note 72.  Velocity 0
000002t:  Note on ::  Channel 6.  Note 68.  Velocity 66
000021t:  Note on ::  Channel 6.  Note 63.  Velocity 0
000000t:  Note on ::  Channel 6.  Note 56.  Velocity 0
000001t:  Note on ::  Channel 6.  Note 68.  Velocity 0
000002t:  Note on ::  Channel 6.  Note 49.  Velocity 80
000000t:  Note on ::  Channel 6.  Note 56.  Velocity 80
000000t:  Note on ::  Channel 6.  Note 65.  Velocity 80
000000t:  Note on ::  Channel 6.  Note 73.  Velocity 80
000190t:  Note on ::  Channel 6.  Note 73.  Velocity 0
000000t:  Note on ::  Channel 6.  Note 49.  Velocity 0
000000t:  Note on ::  Channel 6.  Note 56.  Velocity 0
000000t:  Note on ::  Channel 6.  Note 65.  Velocity 0
000002t:  Note on ::  Channel 6.  Note 56.  Velocity 92
000000t:  Note on ::  Channel 6.  Note 63.  Velocity 92
000000t:  Note on ::  Channel 6.  Note 75.  Velocity 92
000022t:  Note on ::  Channel 6.  Note 75.  Velocity 0
000002t:  Note on ::  Channel 6.  Note 72.  Velocity 68
000022t:  Note on ::  Channel 6.  Note 72.  Velocity 0
000002t:  Note on ::  Channel 6.  Note 68.  Velocity 68
000020t:  Note on ::  Channel 6.  Note 63.  Velocity 0
000000t:  Note on ::  Channel 6.  Note 56.  Velocity 0
000002t:  Note on ::  Channel 6.  Note 68.  Velocity 0
000002t:  Note on ::  Channel 6.  Note 58.  Velocity 76
000000t:  Note on ::  Channel 6.  Note 65.  Velocity 76
000000t:  Note on ::  Channel 6.  Note 77.  Velocity 76
000022t:  Note on ::  Channel 6.  Note 77.  Velocity 0
000002t:  Note on ::  Channel 6.  Note 73.  Velocity 66
000022t:  Note on ::  Channel 6.  Note 73.  Velocity 0
000002t:  Note on ::  Channel 6.  Note 70.  Velocity 66
000021t:  Note on ::  Channel 6.  Note 65.  Velocity 0
000000t:  Note on ::  Channel 6.  Note 58.  Velocity 0
000001t:  Note on ::  Channel 6.  Note 70.  Velocity 0
000002t:  Note on ::  Channel 6.  Note 54.  Velocity 80
000000t:  Note on ::  Channel 6.  Note 61.  Velocity 80
000000t:  Note on ::  Channel 6.  Note 73.  Velocity 80
000022t:  Note on ::  Channel 6.  Note 73.  Velocity 0
000002t:  Note on ::  Channel 6.  Note 70.  Velocity 67
000022t:  Note on ::  Channel 6.  Note 70.  Velocity 0
000002t:  Note on ::  Channel 6.  Note 66.  Velocity 67
000020t:  Note on ::  Channel 6.  Note 61.  Velocity 0
000000t:  Note on ::  Channel 6.  Note 54.  Velocity 0
000002t:  Note on ::  Channel 6.  Note 66.  Velocity 0
000002t:  Note on ::  Channel 6.  Note 56.  Velocity 76
000000t:  Note on ::  Channel 6.  Note 63.  Velocity 76
000000t:  Note on ::  Channel 6.  Note 75.  Velocity 76
000022t:  Note on ::  Channel 6.  Note 75.  Velocity 0
000002t:  Note on ::  Channel 6.  Note 72.  Velocity 66
000022t:  Note on ::  Channel 6.  Note 72.  Velocity 0
000002t:  Note on ::  Channel 6.  Note 68.  Velocity 66
000021t:  Note on ::  Channel 6.  Note 63.  Velocity 0
000000t:  Note on ::  Channel 6.  Note 56.  Velocity 0
000001t:  Note on ::  Channel 6.  Note 68.  Velocity 0
000002t:  Note on ::  Channel 6.  Note 49.  Velocity 80
000000t:  Note on ::  Channel 6.  Note 56.  Velocity 80
000000t:  Note on ::  Channel 6.  Note 65.  Velocity 80
000000t:  Note on ::  Channel 6.  Note 73.  Velocity 80
000190t:  Note on ::  Channel 6.  Note 73.  Velocity 0
000000t:  Note on ::  Channel 6.  Note 49.  Velocity 0
000000t:  Note on ::  Channel 6.  Note 56.  Velocity 0
000000t:  Note on ::  Channel 6.  Note 65.  Velocity 0
000002t:  Note on ::  Channel 6.  Note 56.  Velocity 92
000000t:  Note on ::  Channel 6.  Note 63.  Velocity 92
000000t:  Note on ::  Channel 6.  Note 75.  Velocity 92
000022t:  Note on ::  Channel 6.  Note 75.  Velocity 0
000002t:  Note on ::  Channel 6.  Note 72.  Velocity 68
000022t:  Note on ::  Channel 6.  Note 72.  Velocity 0
000002t:  Note on ::  Channel 6.  Note 68.  Velocity 68
000020t:  Note on ::  Channel 6.  Note 63.  Velocity 0
000000t:  Note on ::  Channel 6.  Note 56.  Velocity 0
000002t:  Note on ::  Channel 6.  Note 68.  Velocity 0
000002t:  Note on ::  Channel 6.  Note 58.  Velocity 76
000000t:  Note on ::  Channel 6.  Note 65.  Velocity 76
000000t:  Note on ::  Channel 6.  Note 77.  Velocity 76
000022t:  Note on ::  Channel 6.  Note 77.  Velocity 0
000002t:  Note on ::  Channel 6.  Note 73.  Velocity 66
000022t:  Note on ::  Channel 6.  Note 73.  Velocity 0
000002t:  Note on ::  Channel 6.  Note 70.  Velocity 67
000021t:  Note on ::  Channel 6.  Note 65.  Velocity 0
000000t:  Note on ::  Channel 6.  Note 58.  Velocity 0
000001t:  Note on ::  Channel 6.  Note 70.  Velocity 0
000002t:  Note on ::  Channel 6.  Note 54.  Velocity 80
000000t:  Note on ::  Channel 6.  Note 61.  Velocity 80
000000t:  Note on ::  Channel 6.  Note 73.  Velocity 80
000022t:  Note on ::  Channel 6.  Note 73.  Velocity 0
000002t:  Note on ::  Channel 6.  Note 70.  Velocity 67
000022t:  Note on ::  Channel 6.  Note 70.  Velocity 0
000002t:  Note on ::  Channel 6.  Note 66.  Velocity 67
000020t:  Note on ::  Channel 6.  Note 61.  Velocity 0
000000t:  Note on ::  Channel 6.  Note 54.  Velocity 0
000002t:  Note on ::  Channel 6.  Note 66.  Velocity 0
000002t:  Note on ::  Channel 6.  Note 53.  Velocity 76
000000t:  Note on ::  Channel 6.  Note 61.  Velocity 76
000000t:  Note on ::  Channel 6.  Note 75.  Velocity 76
000022t:  Note on ::  Channel 6.  Note 75.  Velocity 0
000002t:  Note on ::  Channel 6.  Note 73.  Velocity 66
000022t:  Note on ::  Channel 6.  Note 73.  Velocity 0
000002t:  Note on ::  Channel 6.  Note 68.  Velocity 67
000021t:  Note on ::  Channel 6.  Note 61.  Velocity 0
000000t:  Note on ::  Channel 6.  Note 53.  Velocity 0
000001t:  Note on ::  Channel 6.  Note 68.  Velocity 0
000002t:  Note on ::  Channel 6.  Note 54.  Velocity 80
000000t:  Note on ::  Channel 6.  Note 61.  Velocity 80
000000t:  Note on ::  Channel 6.  Note 66.  Velocity 80
000000t:  Note on ::  Channel 6.  Note 70.  Velocity 80
000000t:  Note on ::  Channel 6.  Note 73.  Velocity 80
000381t:  Control change ::  Channel 6.  Controller 7.  Value: 60
000001t:  Note on ::  Channel 6.  Note 73.  Velocity 0
000000t:  Note on ::  Channel 6.  Note 66.  Velocity 0
000000t:  Note on ::  Channel 6.  Note 54.  Velocity 0
000000t:  Note on ::  Channel 6.  Note 61.  Velocity 0
000000t:  Note on ::  Channel 6.  Note 70.  Velocity 0
000000t:  Program (patch) change ::  Channel 6.  Patch 51 (SynthStrings 2)
000001t:  Control change ::  Channel 6.  Controller 10.  Value: 64
000001t:  Note on ::  Channel 6.  Note 56.  Velocity 80
000000t:  Note on ::  Channel 6.  Note 53.  Velocity 80
000000t:  Note on ::  Channel 6.  Note 49.  Velocity 80
000092t:  Note on ::  Channel 6.  Note 49.  Velocity 0
000000t:  Note on ::  Channel 6.  Note 53.  Velocity 0
000000t:  Note on ::  Channel 6.  Note 56.  Velocity 0
000004t:  Note on ::  Channel 6.  Note 51.  Velocity 80
000000t:  Note on ::  Channel 6.  Note 48.  Velocity 80
000000t:  Note on ::  Channel 6.  Note 56.  Velocity 80
000092t:  Note on ::  Channel 6.  Note 56.  Velocity 0
000000t:  Note on ::  Channel 6.  Note 48.  Velocity 0
000000t:  Note on ::  Channel 6.  Note 51.  Velocity 0
000004t:  Note on ::  Channel 6.  Note 49.  Velocity 80
000000t:  Note on ::  Channel 6.  Note 58.  Velocity 80
000000t:  Note on ::  Channel 6.  Note 54.  Velocity 80
000092t:  Note on ::  Channel 6.  Note 54.  Velocity 0
000000t:  Note on ::  Channel 6.  Note 58.  Velocity 0
000000t:  Note on ::  Channel 6.  Note 49.  Velocity 0
000004t:  Note on ::  Channel 6.  Note 56.  Velocity 80
000000t:  Note on ::  Channel 6.  Note 51.  Velocity 80
000000t:  Note on ::  Channel 6.  Note 48.  Velocity 80
000092t:  Note on ::  Channel 6.  Note 48.  Velocity 0
000000t:  Note on ::  Channel 6.  Note 51.  Velocity 0
000000t:  Note on ::  Channel 6.  Note 56.  Velocity 0
000004t:  Note on ::  Channel 6.  Note 56.  Velocity 80
000000t:  Note on ::  Channel 6.  Note 53.  Velocity 80
000000t:  Note on ::  Channel 6.  Note 49.  Velocity 80
000092t:  Note on ::  Channel 6.  Note 49.  Velocity 0
000000t:  Note on ::  Channel 6.  Note 53.  Velocity 0
000000t:  Note on ::  Channel 6.  Note 56.  Velocity 0
000004t:  Note on ::  Channel 6.  Note 51.  Velocity 80
000000t:  Note on ::  Channel 6.  Note 48.  Velocity 80
000000t:  Note on ::  Channel 6.  Note 56.  Velocity 80
000092t:  Note on ::  Channel 6.  Note 56.  Velocity 0
000000t:  Note on ::  Channel 6.  Note 48.  Velocity 0
000000t:  Note on ::  Channel 6.  Note 51.  Velocity 0
000004t:  Note on ::  Channel 6.  Note 53.  Velocity 80
000000t:  Note on ::  Channel 6.  Note 49.  Velocity 80
000000t:  Note on ::  Channel 6.  Note 46.  Velocity 80
000092t:  Note on ::  Channel 6.  Note 46.  Velocity 0
000000t:  Note on ::  Channel 6.  Note 49.  Velocity 0
000000t:  Note on ::  Channel 6.  Note 53.  Velocity 0
000004t:  Note on ::  Channel 6.  Note 58.  Velocity 80
000000t:  Note on ::  Channel 6.  Note 54.  Velocity 80
000000t:  Note on ::  Channel 6.  Note 49.  Velocity 80
000092t:  Note on ::  Channel 6.  Note 49.  Velocity 0
000000t:  Note on ::  Channel 6.  Note 54.  Velocity 0
000000t:  Note on ::  Channel 6.  Note 58.  Velocity 0
000004t:  Note on ::  Channel 6.  Note 56.  Velocity 80
000000t:  Note on ::  Channel 6.  Note 53.  Velocity 80
000000t:  Note on ::  Channel 6.  Note 49.  Velocity 80
000092t:  Note on ::  Channel 6.  Note 49.  Velocity 0
000000t:  Note on ::  Channel 6.  Note 53.  Velocity 0
000000t:  Note on ::  Channel 6.  Note 56.  Velocity 0
000004t:  Note on ::  Channel 6.  Note 56.  Velocity 80
000000t:  Note on ::  Channel 6.  Note 53.  Velocity 80
000000t:  Note on ::  Channel 6.  Note 48.  Velocity 80
000092t:  Note on ::  Channel 6.  Note 48.  Velocity 0
000000t:  Note on ::  Channel 6.  Note 53.  Velocity 0
000000t:  Note on ::  Channel 6.  Note 56.  Velocity 0
000004t:  Note on ::  Channel 6.  Note 58.  Velocity 80
000000t:  Note on ::  Channel 6.  Note 53.  Velocity 80
000000t:  Note on ::  Channel 6.  Note 49.  Velocity 80
000092t:  Note on ::  Channel 6.  Note 49.  Velocity 0
000000t:  Note on ::  Channel 6.  Note 53.  Velocity 0
000000t:  Note on ::  Channel 6.  Note 58.  Velocity 0
000004t:  Note on ::  Channel 6.  Note 58.  Velocity 80
000000t:  Note on ::  Channel 6.  Note 54.  Velocity 80
000000t:  Note on ::  Channel 6.  Note 51.  Velocity 80
000000t:  Note on ::  Channel 6.  Note 49.  Velocity 80
000092t:  Note on ::  Channel 6.  Note 49.  Velocity 0
000000t:  Note on ::  Channel 6.  Note 58.  Velocity 0
000000t:  Note on ::  Channel 6.  Note 54.  Velocity 0
000000t:  Note on ::  Channel 6.  Note 51.  Velocity 0
000002t:  Control change ::  Channel 6.  Controller 7.  Value: 99
000001t:  Program (patch) change ::  Channel 6.  Patch 2 (Electric Grand)
000001t:  Note on ::  Channel 6.  Note 44.  Velocity 84
000000t:  Note on ::  Channel 6.  Note 56.  Velocity 80
000000t:  Note on ::  Channel 6.  Note 60.  Velocity 80
000000t:  Note on ::  Channel 6.  Note 63.  Velocity 81
000000t:  Note on ::  Channel 6.  Note 68.  Velocity 83
000068t:  Note on ::  Channel 6.  Note 68.  Velocity 0
000000t:  Note on ::  Channel 6.  Note 60.  Velocity 0
000000t:  Note on ::  Channel 6.  Note 63.  Velocity 0
000004t:  Note on ::  Channel 6.  Note 60.  Velocity 88
000069t:  Note on ::  Channel 6.  Note 60.  Velocity 0
000003t:  Note on ::  Channel 6.  Note 63.  Velocity 90
000045t:  Note on ::  Channel 6.  Note 63.  Velocity 0
000001t:  Note on ::  Channel 6.  Note 56.  Velocity 0
000000t:  Note on ::  Channel 6.  Note 44.  Velocity 0
000002t:  Note on ::  Channel 6.  Note 42.  Velocity 84
000000t:  Note on ::  Channel 6.  Note 54.  Velocity 82
000000t:  Note on ::  Channel 6.  Note 60.  Velocity 80
000000t:  Note on ::  Channel 6.  Note 63.  Velocity 81
000000t:  Note on ::  Channel 6.  Note 68.  Velocity 82
000068t:  Note on ::  Channel 6.  Note 68.  Velocity 0
000000t:  Note on ::  Channel 6.  Note 60.  Velocity 0
000000t:  Note on ::  Channel 6.  Note 63.  Velocity 0
000004t:  Note on ::  Channel 6.  Note 60.  Velocity 82
000000t:  Note on ::  Channel 6.  Note 63.  Velocity 81
000000t:  Note on ::  Channel 6.  Note 68.  Velocity 82
000069t:  Note on ::  Channel 6.  Note 68.  Velocity 0
000000t:  Note on ::  Channel 6.  Note 60.  Velocity 0
000000t:  Note on ::  Channel 6.  Note 63.  Velocity 0
000003t:  Note on ::  Channel 6.  Note 60.  Velocity 87
000000t:  Note on ::  Channel 6.  Note 63.  Velocity 84
000000t:  Note on ::  Channel 6.  Note 68.  Velocity 86
000045t:  Note on ::  Channel 6.  Note 68.  Velocity 0
000000t:  Note on ::  Channel 6.  Note 60.  Velocity 0
000000t:  Note on ::  Channel 6.  Note 63.  Velocity 0
000001t:  Note on ::  Channel 6.  Note 54.  Velocity 0
000000t:  Note on ::  Channel 6.  Note 42.  Velocity 0
000002t:  Note on ::  Channel 6.  Note 41.  Velocity 84
000000t:  Note on ::  Channel 6.  Note 53.  Velocity 81
000000t:  Note on ::  Channel 6.  Note 56.  Velocity 80
000000t:  Note on ::  Channel 6.  Note 61.  Velocity 80
000000t:  Note on ::  Channel 6.  Note 65.  Velocity 83
000000t:  Note on ::  Channel 6.  Note 68.  Velocity 84
000068t:  Note on ::  Channel 6.  Note 68.  Velocity 0
000000t:  Note on ::  Channel 6.  Note 61.  Velocity 0
000000t:  Note on ::  Channel 6.  Note 56.  Velocity 0
000000t:  Note on ::  Channel 6.  Note 65.  Velocity 0
000004t:  Note on ::  Channel 6.  Note 56.  Velocity 81
000000t:  Note on ::  Channel 6.  Note 61.  Velocity 80
000000t:  Note on ::  Channel 6.  Note 65.  Velocity 81
000000t:  Note on ::  Channel 6.  Note 68.  Velocity 81
000116t:  Note on ::  Channel 6.  Note 68.  Velocity 0
000000t:  Note on ::  Channel 6.  Note 61.  Velocity 0
000000t:  Note on ::  Channel 6.  Note 56.  Velocity 0
000000t:  Note on ::  Channel 6.  Note 65.  Velocity 0
000002t:  Note on ::  Channel 6.  Note 53.  Velocity 0
000000t:  Note on ::  Channel 6.  Note 41.  Velocity 0
000002t:  Note on ::  Channel 6.  Note 39.  Velocity 83
000000t:  Note on ::  Channel 6.  Note 51.  Velocity 82
000000t:  Note on ::  Channel 6.  Note 56.  Velocity 80
000000t:  Note on ::  Channel 6.  Note 60.  Velocity 82
000000t:  Note on ::  Channel 6.  Note 66.  Velocity 84
000068t:  Note on ::  Channel 6.  Note 66.  Velocity 0
000000t:  Note on ::  Channel 6.  Note 56.  Velocity 0
000000t:  Note on ::  Channel 6.  Note 60.  Velocity 0
000004t:  Note on ::  Channel 6.  Note 54.  Velocity 82
000000t:  Note on ::  Channel 6.  Note 60.  Velocity 80
000000t:  Note on ::  Channel 6.  Note 63.  Velocity 82
000069t:  Control change ::  Channel 6.  Controller 11.  Value: 65
000022t:  Control change ::  Channel 6.  Controller 10.  Value: 64
000001t:  Note on ::  Channel 6.  Note 63.  Velocity 0
000000t:  Note on ::  Channel 6.  Note 54.  Velocity 0
000000t:  Note on ::  Channel 6.  Note 60.  Velocity 0
000000t:  Control change ::  Channel 6.  Controller 7.  Value: 78
000001t:  Note on ::  Channel 6.  Note 51.  Velocity 0
000000t:  Note on ::  Channel 6.  Note 39.  Velocity 0
000000t:  Program (patch) change ::  Channel 6.  Patch 52 (Choir Aahs)
000001t:  Control change ::  Channel 6.  Controller 1.  Value: 64
000001t:  Control change ::  Channel 6.  Controller 11.  Value: 64
000001t:  Note on ::  Channel 6.  Note 34.  Velocity 80
000000t:  Note on ::  Channel 6.  Note 46.  Velocity 80
000000t:  Note on ::  Channel 6.  Note 56.  Velocity 80
000000t:  Note on ::  Channel 6.  Note 60.  Velocity 80
000000t:  Note on ::  Channel 6.  Note 63.  Velocity 80
000000t:  Note on ::  Channel 6.  Note 68.  Velocity 80
000017t:  Control change ::  Channel 6.  Controller 11.  Value: 66
000044t:  Control change ::  Channel 6.  Controller 11.  Value: 67
000044t:  Control change ::  Channel 6.  Controller 11.  Value: 68
000044t:  Control change ::  Channel 6.  Controller 11.  Value: 69
000045t:  Control change ::  Channel 6.  Controller 11.  Value: 70
000044t:  Control change ::  Channel 6.  Controller 11.  Value: 71
000044t:  Control change ::  Channel 6.  Controller 11.  Value: 72
000044t:  Control change ::  Channel 6.  Controller 11.  Value: 73
000044t:  Control change ::  Channel 6.  Controller 11.  Value: 74
000012t:  Note on ::  Channel 6.  Note 68.  Velocity 0
000000t:  Note on ::  Channel 6.  Note 46.  Velocity 0
000000t:  Note on ::  Channel 6.  Note 56.  Velocity 0
000000t:  Note on ::  Channel 6.  Note 34.  Velocity 0
000000t:  Note on ::  Channel 6.  Note 63.  Velocity 0
000000t:  Note on ::  Channel 6.  Note 60.  Velocity 0
000002t:  Note on ::  Channel 6.  Note 34.  Velocity 80
000000t:  Note on ::  Channel 6.  Note 46.  Velocity 80
000000t:  Note on ::  Channel 6.  Note 56.  Velocity 80
000000t:  Note on ::  Channel 6.  Note 61.  Velocity 80
000000t:  Note on ::  Channel 6.  Note 65.  Velocity 80
000000t:  Note on ::  Channel 6.  Note 68.  Velocity 80
000030t:  Control change ::  Channel 6.  Controller 11.  Value: 75
000045t:  Control change ::  Channel 6.  Controller 11.  Value: 76
000044t:  Control change ::  Channel 6.  Controller 11.  Value: 77
000044t:  Control change ::  Channel 6.  Controller 11.  Value: 78
000044t:  Control change ::  Channel 6.  Controller 11.  Value: 79
000044t:  Control change ::  Channel 6.  Controller 11.  Value: 80
000044t:  Control change ::  Channel 6.  Controller 11.  Value: 81
000045t:  Control change ::  Channel 6.  Controller 11.  Value: 82
000044t:  Control change ::  Channel 6.  Controller 11.  Value: 83
000024t:  Note on ::  Channel 6.  Note 68.  Velocity 0
000000t:  Note on ::  Channel 6.  Note 46.  Velocity 0
000000t:  Note on ::  Channel 6.  Note 56.  Velocity 0
000000t:  Note on ::  Channel 6.  Note 34.  Velocity 0
000000t:  Note on ::  Channel 6.  Note 65.  Velocity 0
000000t:  Note on ::  Channel 6.  Note 61.  Velocity 0
000000t:  Note on ::  Channel 6.  Note 34.  Velocity 80
000000t:  Note on ::  Channel 6.  Note 46.  Velocity 80
000000t:  Note on ::  Channel 6.  Note 56.  Velocity 80
000000t:  Note on ::  Channel 6.  Note 60.  Velocity 80
000000t:  Note on ::  Channel 6.  Note 63.  Velocity 80
000000t:  Note on ::  Channel 6.  Note 68.  Velocity 80
000020t:  Control change ::  Channel 6.  Controller 11.  Value: 84
000044t:  Control change ::  Channel 6.  Controller 11.  Value: 85
000044t:  Control change ::  Channel 6.  Controller 11.  Value: 86
000045t:  Control change ::  Channel 6.  Controller 11.  Value: 87
000044t:  Control change ::  Channel 6.  Controller 11.  Value: 88
000044t:  Control change ::  Channel 6.  Controller 11.  Value: 89
000044t:  Control change ::  Channel 6.  Controller 11.  Value: 90
000044t:  Control change ::  Channel 6.  Controller 11.  Value: 91
000029t:  Note on ::  Channel 6.  Note 68.  Velocity 0
000000t:  Note on ::  Channel 6.  Note 46.  Velocity 0
000000t:  Note on ::  Channel 6.  Note 56.  Velocity 0
000000t:  Note on ::  Channel 6.  Note 34.  Velocity 0
000000t:  Note on ::  Channel 6.  Note 63.  Velocity 0
000000t:  Note on ::  Channel 6.  Note 60.  Velocity 0
000002t:  Note on ::  Channel 6.  Note 34.  Velocity 80
000000t:  Note on ::  Channel 6.  Note 46.  Velocity 80
000000t:  Note on ::  Channel 6.  Note 56.  Velocity 80
000000t:  Note on ::  Channel 6.  Note 61.  Velocity 80
000000t:  Note on ::  Channel 6.  Note 65.  Velocity 80
000000t:  Note on ::  Channel 6.  Note 68.  Velocity 80
000013t:  Control change ::  Channel 6.  Controller 11.  Value: 92
000045t:  Control change ::  Channel 6.  Controller 11.  Value: 93
000044t:  Control change ::  Channel 6.  Controller 11.  Value: 94
000044t:  Control change ::  Channel 6.  Controller 11.  Value: 95
000044t:  Control change ::  Channel 6.  Controller 11.  Value: 96
000044t:  Control change ::  Channel 6.  Controller 11.  Value: 97
000044t:  Control change ::  Channel 6.  Controller 11.  Value: 98
000045t:  Control change ::  Channel 6.  Controller 11.  Value: 99
000044t:  Control change ::  Channel 6.  Controller 11.  Value: 100
000041t:  Note on ::  Channel 6.  Note 68.  Velocity 0
000000t:  Note on ::  Channel 6.  Note 46.  Velocity 0
000000t:  Note on ::  Channel 6.  Note 56.  Velocity 0
000000t:  Note on ::  Channel 6.  Note 34.  Velocity 0
000000t:  Note on ::  Channel 6.  Note 65.  Velocity 0
000000t:  Note on ::  Channel 6.  Note 61.  Velocity 0
000000t:  Note on ::  Channel 6.  Note 34.  Velocity 80
000000t:  Note on ::  Channel 6.  Note 46.  Velocity 80
000000t:  Note on ::  Channel 6.  Note 56.  Velocity 80
000000t:  Note on ::  Channel 6.  Note 60.  Velocity 80
000000t:  Note on ::  Channel 6.  Note 63.  Velocity 80
000000t:  Note on ::  Channel 6.  Note 68.  Velocity 80
000003t:  Control change ::  Channel 6.  Controller 11.  Value: 101
000044t:  Control change ::  Channel 6.  Controller 11.  Value: 102
000044t:  Control change ::  Channel 6.  Controller 11.  Value: 103
000044t:  Control change ::  Channel 6.  Controller 11.  Value: 104
000045t:  Control change ::  Channel 6.  Controller 11.  Value: 105
000044t:  Control change ::  Channel 6.  Controller 11.  Value: 106
000044t:  Control change ::  Channel 6.  Controller 11.  Value: 107
000044t:  Control change ::  Channel 6.  Controller 11.  Value: 108
000044t:  Control change ::  Channel 6.  Controller 11.  Value: 109
000002t:  Note on ::  Channel 6.  Note 68.  Velocity 0
000000t:  Note on ::  Channel 6.  Note 46.  Velocity 0
000000t:  Note on ::  Channel 6.  Note 56.  Velocity 0
000000t:  Note on ::  Channel 6.  Note 34.  Velocity 0
000000t:  Note on ::  Channel 6.  Note 63.  Velocity 0
000000t:  Note on ::  Channel 6.  Note 60.  Velocity 0
000002t:  Note on ::  Channel 6.  Note 34.  Velocity 80
000000t:  Note on ::  Channel 6.  Note 46.  Velocity 80
000000t:  Note on ::  Channel 6.  Note 56.  Velocity 80
000000t:  Note on ::  Channel 6.  Note 61.  Velocity 80
000000t:  Note on ::  Channel 6.  Note 65.  Velocity 80
000000t:  Note on ::  Channel 6.  Note 68.  Velocity 80
000041t:  Control change ::  Channel 6.  Controller 11.  Value: 110
000044t:  Control change ::  Channel 6.  Controller 11.  Value: 111
000044t:  Control change ::  Channel 6.  Controller 11.  Value: 112
000044t:  Control change ::  Channel 6.  Controller 11.  Value: 113
000044t:  Control change ::  Channel 6.  Controller 11.  Value: 114
000044t:  Control change ::  Channel 6.  Controller 11.  Value: 115
000045t:  Control change ::  Channel 6.  Controller 11.  Value: 116
000044t:  Control change ::  Channel 6.  Controller 11.  Value: 117
000044t:  Control change ::  Channel 6.  Controller 11.  Value: 118
000014t:  Note on ::  Channel 6.  Note 68.  Velocity 0
000000t:  Note on ::  Channel 6.  Note 46.  Velocity 0
000000t:  Note on ::  Channel 6.  Note 56.  Velocity 0
000000t:  Note on ::  Channel 6.  Note 34.  Velocity 0
000000t:  Note on ::  Channel 6.  Note 65.  Velocity 0
000000t:  Note on ::  Channel 6.  Note 61.  Velocity 0
000000t:  Note on ::  Channel 6.  Note 34.  Velocity 80
000000t:  Note on ::  Channel 6.  Note 46.  Velocity 80
000000t:  Note on ::  Channel 6.  Note 56.  Velocity 80
000000t:  Note on ::  Channel 6.  Note 60.  Velocity 80
000000t:  Note on ::  Channel 6.  Note 63.  Velocity 80
000000t:  Note on ::  Channel 6.  Note 68.  Velocity 80
000030t:  Control change ::  Channel 6.  Controller 11.  Value: 119
000044t:  Control change ::  Channel 6.  Controller 11.  Value: 120
000044t:  Control change ::  Channel 6.  Controller 11.  Value: 121
000045t:  Control change ::  Channel 6.  Controller 11.  Value: 122
000044t:  Control change ::  Channel 6.  Controller 11.  Value: 123
000044t:  Control change ::  Channel 6.  Controller 11.  Value: 124
000044t:  Control change ::  Channel 6.  Controller 11.  Value: 125
000044t:  Control change ::  Channel 6.  Controller 11.  Value: 126
000019t:  Note on ::  Channel 6.  Note 68.  Velocity 0
000000t:  Note on ::  Channel 6.  Note 46.  Velocity 0
000000t:  Note on ::  Channel 6.  Note 56.  Velocity 0
000000t:  Note on ::  Channel 6.  Note 34.  Velocity 0
000000t:  Note on ::  Channel 6.  Note 63.  Velocity 0
000000t:  Note on ::  Channel 6.  Note 60.  Velocity 0
000025t:  Control change ::  Channel 6.  Controller 11.  Value: 127
000001t:  Program (patch) change ::  Channel 6.  Patch 1 (Bright Acoustic)
000002t:  Control change ::  Channel 6.  Controller 10.  Value: 90
000002t:  Control change ::  Channel 6.  Controller 11.  Value: 110
000002t:  Control change ::  Channel 6.  Controller 1.  Value: 30
000378t:  Note on ::  Channel 6.  Note 56.  Velocity 92
000000t:  Note on ::  Channel 6.  Note 63.  Velocity 92
000000t:  Note on ::  Channel 6.  Note 75.  Velocity 92
000022t:  Note on ::  Channel 6.  Note 75.  Velocity 0
000002t:  Note on ::  Channel 6.  Note 72.  Velocity 67
000022t:  Note on ::  Channel 6.  Note 72.  Velocity 0
000002t:  Note on ::  Channel 6.  Note 68.  Velocity 67
000020t:  Note on ::  Channel 6.  Note 63.  Velocity 0
000000t:  Note on ::  Channel 6.  Note 56.  Velocity 0
000002t:  Note on ::  Channel 6.  Note 68.  Velocity 0
000002t:  Note on ::  Channel 6.  Note 58.  Velocity 76
000000t:  Note on ::  Channel 6.  Note 65.  Velocity 76
000000t:  Note on ::  Channel 6.  Note 77.  Velocity 76
000022t:  Note on ::  Channel 6.  Note 77.  Velocity 0
000002t:  Note on ::  Channel 6.  Note 73.  Velocity 66
000022t:  Note on ::  Channel 6.  Note 73.  Velocity 0
000002t:  Note on ::  Channel 6.  Note 70.  Velocity 67
000021t:  Note on ::  Channel 6.  Note 65.  Velocity 0
000000t:  Note on ::  Channel 6.  Note 58.  Velocity 0
000001t:  Note on ::  Channel 6.  Note 70.  Velocity 0
000002t:  Note on ::  Channel 6.  Note 54.  Velocity 80
000000t:  Note on ::  Channel 6.  Note 61.  Velocity 80
000000t:  Note on ::  Channel 6.  Note 73.  Velocity 80
000022t:  Note on ::  Channel 6.  Note 73.  Velocity 0
000002t:  Note on ::  Channel 6.  Note 70.  Velocity 67
000022t:  Note on ::  Channel 6.  Note 70.  Velocity 0
000002t:  Note on ::  Channel 6.  Note 66.  Velocity 67
000020t:  Note on ::  Channel 6.  Note 61.  Velocity 0
000000t:  Note on ::  Channel 6.  Note 54.  Velocity 0
000002t:  Note on ::  Channel 6.  Note 66.  Velocity 0
000002t:  Note on ::  Channel 6.  Note 56.  Velocity 76
000000t:  Note on ::  Channel 6.  Note 63.  Velocity 76
000000t:  Note on ::  Channel 6.  Note 75.  Velocity 76
000022t:  Note on ::  Channel 6.  Note 75.  Velocity 0
000002t:  Note on ::  Channel 6.  Note 72.  Velocity 67
000022t:  Note on ::  Channel 6.  Note 72.  Velocity 0
000002t:  Note on ::  Channel 6.  Note 68.  Velocity 67
000021t:  Note on ::  Channel 6.  Note 63.  Velocity 0
000000t:  Note on ::  Channel 6.  Note 56.  Velocity 0
000001t:  Note on ::  Channel 6.  Note 68.  Velocity 0
000002t:  Note on ::  Channel 6.  Note 49.  Velocity 82
000000t:  Note on ::  Channel 6.  Note 56.  Velocity 80
000000t:  Note on ::  Channel 6.  Note 65.  Velocity 80
000000t:  Note on ::  Channel 6.  Note 73.  Velocity 83
000190t:  Note on ::  Channel 6.  Note 73.  Velocity 0
000000t:  Note on ::  Channel 6.  Note 49.  Velocity 0
000000t:  Note on ::  Channel 6.  Note 56.  Velocity 0
000000t:  Note on ::  Channel 6.  Note 65.  Velocity 0
000002t:  Note on ::  Channel 6.  Note 56.  Velocity 92
000000t:  Note on ::  Channel 6.  Note 63.  Velocity 92
000000t:  Note on ::  Channel 6.  Note 75.  Velocity 92
000022t:  Note on ::  Channel 6.  Note 75.  Velocity 0
000002t:  Note on ::  Channel 6.  Note 72.  Velocity 67
000022t:  Note on ::  Channel 6.  Note 72.  Velocity 0
000002t:  Note on ::  Channel 6.  Note 68.  Velocity 67
000020t:  Note on ::  Channel 6.  Note 63.  Velocity 0
000000t:  Note on ::  Channel 6.  Note 56.  Velocity 0
000002t:  Note on ::  Channel 6.  Note 68.  Velocity 0
000002t:  Note on ::  Channel 6.  Note 58.  Velocity 76
000000t:  Note on ::  Channel 6.  Note 65.  Velocity 76
000000t:  Note on ::  Channel 6.  Note 77.  Velocity 76
000022t:  Note on ::  Channel 6.  Note 77.  Velocity 0
000002t:  Note on ::  Channel 6.  Note 73.  Velocity 66
000022t:  Note on ::  Channel 6.  Note 73.  Velocity 0
000002t:  Note on ::  Channel 6.  Note 70.  Velocity 67
000021t:  Note on ::  Channel 6.  Note 65.  Velocity 0
000000t:  Note on ::  Channel 6.  Note 58.  Velocity 0
000001t:  Note on ::  Channel 6.  Note 70.  Velocity 0
000002t:  Note on ::  Channel 6.  Note 54.  Velocity 80
000000t:  Note on ::  Channel 6.  Note 61.  Velocity 80
000000t:  Note on ::  Channel 6.  Note 73.  Velocity 80
000022t:  Note on ::  Channel 6.  Note 73.  Velocity 0
000002t:  Note on ::  Channel 6.  Note 70.  Velocity 67
000022t:  Note on ::  Channel 6.  Note 70.  Velocity 0
000002t:  Note on ::  Channel 6.  Note 66.  Velocity 67
000020t:  Note on ::  Channel 6.  Note 61.  Velocity 0
000000t:  Note on ::  Channel 6.  Note 54.  Velocity 0
000002t:  Note on ::  Channel 6.  Note 66.  Velocity 0
000002t:  Note on ::  Channel 6.  Note 56.  Velocity 76
000000t:  Note on ::  Channel 6.  Note 63.  Velocity 76
000000t:  Note on ::  Channel 6.  Note 75.  Velocity 76
000022t:  Note on ::  Channel 6.  Note 75.  Velocity 0
000002t:  Note on ::  Channel 6.  Note 72.  Velocity 67
000022t:  Note on ::  Channel 6.  Note 72.  Velocity 0
000002t:  Note on ::  Channel 6.  Note 68.  Velocity 67
000021t:  Note on ::  Channel 6.  Note 63.  Velocity 0
000000t:  Note on ::  Channel 6.  Note 56.  Velocity 0
000001t:  Note on ::  Channel 6.  Note 68.  Velocity 0
000002t:  Note on ::  Channel 6.  Note 49.  Velocity 80
000000t:  Note on ::  Channel 6.  Note 56.  Velocity 80
000000t:  Note on ::  Channel 6.  Note 65.  Velocity 80
000000t:  Note on ::  Channel 6.  Note 73.  Velocity 80
000190t:  Note on ::  Channel 6.  Note 73.  Velocity 0
000000t:  Note on ::  Channel 6.  Note 49.  Velocity 0
000000t:  Note on ::  Channel 6.  Note 56.  Velocity 0
000000t:  Note on ::  Channel 6.  Note 65.  Velocity 0
000002t:  Note on ::  Channel 6.  Note 56.  Velocity 92
000000t:  Note on ::  Channel 6.  Note 63.  Velocity 92
000000t:  Note on ::  Channel 6.  Note 75.  Velocity 92
000022t:  Note on ::  Channel 6.  Note 75.  Velocity 0
000002t:  Note on ::  Channel 6.  Note 72.  Velocity 67
000022t:  Note on ::  Channel 6.  Note 72.  Velocity 0
000002t:  Note on ::  Channel 6.  Note 68.  Velocity 67
000020t:  Note on ::  Channel 6.  Note 63.  Velocity 0
000000t:  Note on ::  Channel 6.  Note 56.  Velocity 0
000002t:  Note on ::  Channel 6.  Note 68.  Velocity 0
000002t:  Note on ::  Channel 6.  Note 58.  Velocity 76
000000t:  Note on ::  Channel 6.  Note 65.  Velocity 76
000000t:  Note on ::  Channel 6.  Note 77.  Velocity 76
000022t:  Note on ::  Channel 6.  Note 77.  Velocity 0
000002t:  Note on ::  Channel 6.  Note 73.  Velocity 66
000022t:  Note on ::  Channel 6.  Note 73.  Velocity 0
000002t:  Note on ::  Channel 6.  Note 70.  Velocity 67
000021t:  Note on ::  Channel 6.  Note 65.  Velocity 0
000000t:  Note on ::  Channel 6.  Note 58.  Velocity 0
000001t:  Note on ::  Channel 6.  Note 70.  Velocity 0
000002t:  Note on ::  Channel 6.  Note 54.  Velocity 81
000000t:  Note on ::  Channel 6.  Note 61.  Velocity 80
000000t:  Note on ::  Channel 6.  Note 73.  Velocity 81
000022t:  Note on ::  Channel 6.  Note 73.  Velocity 0
000002t:  Note on ::  Channel 6.  Note 70.  Velocity 66
000022t:  Note on ::  Channel 6.  Note 70.  Velocity 0
000002t:  Note on ::  Channel 6.  Note 66.  Velocity 67
000020t:  Note on ::  Channel 6.  Note 61.  Velocity 0
000000t:  Note on ::  Channel 6.  Note 54.  Velocity 0
000002t:  Note on ::  Channel 6.  Note 66.  Velocity 0
000002t:  Note on ::  Channel 6.  Note 56.  Velocity 76
000000t:  Note on ::  Channel 6.  Note 63.  Velocity 76
000000t:  Note on ::  Channel 6.  Note 75.  Velocity 76
000022t:  Note on ::  Channel 6.  Note 75.  Velocity 0
000002t:  Note on ::  Channel 6.  Note 72.  Velocity 66
000022t:  Note on ::  Channel 6.  Note 72.  Velocity 0
000002t:  Note on ::  Channel 6.  Note 68.  Velocity 67
000021t:  Note on ::  Channel 6.  Note 63.  Velocity 0
000000t:  Note on ::  Channel 6.  Note 56.  Velocity 0
000001t:  Note on ::  Channel 6.  Note 68.  Velocity 0
000002t:  Note on ::  Channel 6.  Note 49.  Velocity 80
000000t:  Note on ::  Channel 6.  Note 56.  Velocity 80
000000t:  Note on ::  Channel 6.  Note 65.  Velocity 80
000000t:  Note on ::  Channel 6.  Note 73.  Velocity 80
000190t:  Note on ::  Channel 6.  Note 73.  Velocity 0
000000t:  Note on ::  Channel 6.  Note 49.  Velocity 0
000000t:  Note on ::  Channel 6.  Note 56.  Velocity 0
000000t:  Note on ::  Channel 6.  Note 65.  Velocity 0
000002t:  Note on ::  Channel 6.  Note 56.  Velocity 93
000000t:  Note on ::  Channel 6.  Note 63.  Velocity 92
000000t:  Note on ::  Channel 6.  Note 75.  Velocity 92
000022t:  Note on ::  Channel 6.  Note 75.  Velocity 0
000002t:  Note on ::  Channel 6.  Note 72.  Velocity 66
000022t:  Note on ::  Channel 6.  Note 72.  Velocity 0
000002t:  Note on ::  Channel 6.  Note 68.  Velocity 67
000020t:  Note on ::  Channel 6.  Note 63.  Velocity 0
000000t:  Note on ::  Channel 6.  Note 56.  Velocity 0
000002t:  Note on ::  Channel 6.  Note 68.  Velocity 0
000002t:  Note on ::  Channel 6.  Note 58.  Velocity 76
000000t:  Note on ::  Channel 6.  Note 65.  Velocity 76
000000t:  Note on ::  Channel 6.  Note 77.  Velocity 77
000022t:  Note on ::  Channel 6.  Note 77.  Velocity 0
000002t:  Note on ::  Channel 6.  Note 73.  Velocity 66
000022t:  Note on ::  Channel 6.  Note 73.  Velocity 0
000002t:  Note on ::  Channel 6.  Note 70.  Velocity 67
000021t:  Note on ::  Channel 6.  Note 65.  Velocity 0
000000t:  Note on ::  Channel 6.  Note 58.  Velocity 0
000001t:  Note on ::  Channel 6.  Note 70.  Velocity 0
000002t:  Note on ::  Channel 6.  Note 54.  Velocity 81
000000t:  Note on ::  Channel 6.  Note 61.  Velocity 80
000000t:  Note on ::  Channel 6.  Note 73.  Velocity 80
000022t:  Note on ::  Channel 6.  Note 73.  Velocity 0
000002t:  Note on ::  Channel 6.  Note 70.  Velocity 67
000022t:  Note on ::  Channel 6.  Note 70.  Velocity 0
000002t:  Note on ::  Channel 6.  Note 66.  Velocity 67
000020t:  Note on ::  Channel 6.  Note 61.  Velocity 0
000000t:  Note on ::  Channel 6.  Note 54.  Velocity 0
000002t:  Note on ::  Channel 6.  Note 66.  Velocity 0
000002t:  Note on ::  Channel 6.  Note 53.  Velocity 76
000000t:  Note on ::  Channel 6.  Note 61.  Velocity 76
000000t:  Note on ::  Channel 6.  Note 75.  Velocity 76
000022t:  Note on ::  Channel 6.  Note 75.  Velocity 0
000002t:  Note on ::  Channel 6.  Note 73.  Velocity 66
000022t:  Note on ::  Channel 6.  Note 73.  Velocity 0
000002t:  Note on ::  Channel 6.  Note 68.  Velocity 67
000021t:  Note on ::  Channel 6.  Note 61.  Velocity 0
000000t:  Note on ::  Channel 6.  Note 53.  Velocity 0
000001t:  Note on ::  Channel 6.  Note 68.  Velocity 0
000002t:  Note on ::  Channel 6.  Note 54.  Velocity 80
000000t:  Note on ::  Channel 6.  Note 61.  Velocity 80
000000t:  Note on ::  Channel 6.  Note 66.  Velocity 80
000000t:  Note on ::  Channel 6.  Note 70.  Velocity 80
000000t:  Note on ::  Channel 6.  Note 73.  Velocity 80
000190t:  Control change ::  Channel 6.  Controller 7.  Value: 104
000192t:  Note on ::  Channel 6.  Note 73.  Velocity 0
000000t:  Note on ::  Channel 6.  Note 66.  Velocity 0
000000t:  Note on ::  Channel 6.  Note 54.  Velocity 0
000000t:  Note on ::  Channel 6.  Note 61.  Velocity 0
000000t:  Note on ::  Channel 6.  Note 70.  Velocity 0
000000t:  Control change ::  Channel 6.  Controller 7.  Value: 60
000001t:  Program (patch) change ::  Channel 6.  Patch 51 (SynthStrings 2)
000001t:  Note on ::  Channel 6.  Note 56.  Velocity 80
000000t:  Note on ::  Channel 6.  Note 53.  Velocity 80
000000t:  Note on ::  Channel 6.  Note 49.  Velocity 80
000092t:  Note on ::  Channel 6.  Note 49.  Velocity 0
000000t:  Note on ::  Channel 6.  Note 53.  Velocity 0
000000t:  Note on ::  Channel 6.  Note 56.  Velocity 0
000004t:  Note on ::  Channel 6.  Note 51.  Velocity 80
000000t:  Note on ::  Channel 6.  Note 48.  Velocity 80
000000t:  Note on ::  Channel 6.  Note 56.  Velocity 80
000092t:  Note on ::  Channel 6.  Note 56.  Velocity 0
000000t:  Note on ::  Channel 6.  Note 48.  Velocity 0
000000t:  Note on ::  Channel 6.  Note 51.  Velocity 0
000004t:  Note on ::  Channel 6.  Note 49.  Velocity 80
000000t:  Note on ::  Channel 6.  Note 58.  Velocity 80
000000t:  Note on ::  Channel 6.  Note 54.  Velocity 80
000092t:  Note on ::  Channel 6.  Note 54.  Velocity 0
000000t:  Note on ::  Channel 6.  Note 58.  Velocity 0
000000t:  Note on ::  Channel 6.  Note 49.  Velocity 0
000004t:  Note on ::  Channel 6.  Note 56.  Velocity 80
000000t:  Note on ::  Channel 6.  Note 51.  Velocity 80
000000t:  Note on ::  Channel 6.  Note 48.  Velocity 80
000092t:  Note on ::  Channel 6.  Note 48.  Velocity 0
000000t:  Note on ::  Channel 6.  Note 51.  Velocity 0
000000t:  Note on ::  Channel 6.  Note 56.  Velocity 0
000004t:  Note on ::  Channel 6.  Note 56.  Velocity 80
000000t:  Note on ::  Channel 6.  Note 53.  Velocity 80
000000t:  Note on ::  Channel 6.  Note 49.  Velocity 80
000092t:  Note on ::  Channel 6.  Note 49.  Velocity 0
000000t:  Note on ::  Channel 6.  Note 53.  Velocity 0
000000t:  Note on ::  Channel 6.  Note 56.  Velocity 0
000004t:  Note on ::  Channel 6.  Note 51.  Velocity 80
000000t:  Note on ::  Channel 6.  Note 48.  Velocity 80
000000t:  Note on ::  Channel 6.  Note 56.  Velocity 80
000092t:  Note on ::  Channel 6.  Note 56.  Velocity 0
000000t:  Note on ::  Channel 6.  Note 48.  Velocity 0
000000t:  Note on ::  Channel 6.  Note 51.  Velocity 0
000004t:  Note on ::  Channel 6.  Note 53.  Velocity 80
000000t:  Note on ::  Channel 6.  Note 49.  Velocity 80
000000t:  Note on ::  Channel 6.  Note 46.  Velocity 80
000092t:  Note on ::  Channel 6.  Note 46.  Velocity 0
000000t:  Note on ::  Channel 6.  Note 49.  Velocity 0
000000t:  Note on ::  Channel 6.  Note 53.  Velocity 0
000004t:  Note on ::  Channel 6.  Note 58.  Velocity 80
000000t:  Note on ::  Channel 6.  Note 54.  Velocity 80
000000t:  Note on ::  Channel 6.  Note 49.  Velocity 80
000092t:  Note on ::  Channel 6.  Note 49.  Velocity 0
000000t:  Note on ::  Channel 6.  Note 54.  Velocity 0
000000t:  Note on ::  Channel 6.  Note 58.  Velocity 0
000004t:  Note on ::  Channel 6.  Note 56.  Velocity 80
000000t:  Note on ::  Channel 6.  Note 53.  Velocity 80
000000t:  Note on ::  Channel 6.  Note 49.  Velocity 80
000092t:  Note on ::  Channel 6.  Note 49.  Velocity 0
000000t:  Note on ::  Channel 6.  Note 53.  Velocity 0
000000t:  Note on ::  Channel 6.  Note 56.  Velocity 0
000004t:  Note on ::  Channel 6.  Note 56.  Velocity 80
000000t:  Note on ::  Channel 6.  Note 53.  Velocity 80
000000t:  Note on ::  Channel 6.  Note 48.  Velocity 80
000092t:  Note on ::  Channel 6.  Note 48.  Velocity 0
000000t:  Note on ::  Channel 6.  Note 53.  Velocity 0
000000t:  Note on ::  Channel 6.  Note 56.  Velocity 0
000004t:  Note on ::  Channel 6.  Note 58.  Velocity 80
000000t:  Note on ::  Channel 6.  Note 53.  Velocity 80
000000t:  Note on ::  Channel 6.  Note 49.  Velocity 80
000092t:  Note on ::  Channel 6.  Note 49.  Velocity 0
000000t:  Note on ::  Channel 6.  Note 53.  Velocity 0
000000t:  Note on ::  Channel 6.  Note 58.  Velocity 0
000004t:  Note on ::  Channel 6.  Note 58.  Velocity 80
000000t:  Note on ::  Channel 6.  Note 54.  Velocity 80
000000t:  Note on ::  Channel 6.  Note 51.  Velocity 80
000000t:  Note on ::  Channel 6.  Note 49.  Velocity 80
000092t:  Note on ::  Channel 6.  Note 49.  Velocity 0
000000t:  Note on ::  Channel 6.  Note 58.  Velocity 0
000000t:  Note on ::  Channel 6.  Note 54.  Velocity 0
000000t:  Note on ::  Channel 6.  Note 51.  Velocity 0
000004t:  Note on ::  Channel 6.  Note 51.  Velocity 80
000000t:  Note on ::  Channel 6.  Note 49.  Velocity 80
000000t:  Note on ::  Channel 6.  Note 56.  Velocity 80
000190t:  Note on ::  Channel 6.  Note 56.  Velocity 0
000000t:  Note on ::  Channel 6.  Note 49.  Velocity 0
000000t:  Note on ::  Channel 6.  Note 51.  Velocity 0
000002t:  Note on ::  Channel 6.  Note 56.  Velocity 80
000000t:  Note on ::  Channel 6.  Note 51.  Velocity 80
000000t:  Note on ::  Channel 6.  Note 48.  Velocity 80
000190t:  Note on ::  Channel 6.  Note 48.  Velocity 0
000000t:  Note on ::  Channel 6.  Note 51.  Velocity 0
000000t:  Note on ::  Channel 6.  Note 56.  Velocity 0
000002t:  Note on ::  Channel 6.  Note 56.  Velocity 80
000000t:  Note on ::  Channel 6.  Note 53.  Velocity 80
000000t:  Note on ::  Channel 6.  Note 49.  Velocity 80
000092t:  Note on ::  Channel 6.  Note 49.  Velocity 0
000000t:  Note on ::  Channel 6.  Note 53.  Velocity 0
000000t:  Note on ::  Channel 6.  Note 56.  Velocity 0
000004t:  Note on ::  Channel 6.  Note 51.  Velocity 80
000000t:  Note on ::  Channel 6.  Note 48.  Velocity 80
000000t:  Note on ::  Channel 6.  Note 56.  Velocity 80
000092t:  Note on ::  Channel 6.  Note 56.  Velocity 0
000000t:  Note on ::  Channel 6.  Note 48.  Velocity 0
000000t:  Note on ::  Channel 6.  Note 51.  Velocity 0
000004t:  Note on ::  Channel 6.  Note 49.  Velocity 80
000000t:  Note on ::  Channel 6.  Note 58.  Velocity 80
000000t:  Note on ::  Channel 6.  Note 54.  Velocity 80
000092t:  Note on ::  Channel 6.  Note 54.  Velocity 0
000000t:  Note on ::  Channel 6.  Note 58.  Velocity 0
000000t:  Note on ::  Channel 6.  Note 49.  Velocity 0
000004t:  Note on ::  Channel 6.  Note 56.  Velocity 80
000000t:  Note on ::  Channel 6.  Note 51.  Velocity 80
000000t:  Note on ::  Channel 6.  Note 48.  Velocity 80
000092t:  Note on ::  Channel 6.  Note 48.  Velocity 0
000000t:  Note on ::  Channel 6.  Note 51.  Velocity 0
000000t:  Note on ::  Channel 6.  Note 56.  Velocity 0
000004t:  Note on ::  Channel 6.  Note 56.  Velocity 80
000000t:  Note on ::  Channel 6.  Note 53.  Velocity 80
000000t:  Note on ::  Channel 6.  Note 49.  Velocity 80
000092t:  Note on ::  Channel 6.  Note 49.  Velocity 0
000000t:  Note on ::  Channel 6.  Note 53.  Velocity 0
000000t:  Note on ::  Channel 6.  Note 56.  Velocity 0
000004t:  Note on ::  Channel 6.  Note 51.  Velocity 80
000000t:  Note on ::  Channel 6.  Note 48.  Velocity 80
000000t:  Note on ::  Channel 6.  Note 56.  Velocity 80
000092t:  Note on ::  Channel 6.  Note 56.  Velocity 0
000000t:  Note on ::  Channel 6.  Note 48.  Velocity 0
000000t:  Note on ::  Channel 6.  Note 51.  Velocity 0
000004t:  Note on ::  Channel 6.  Note 53.  Velocity 80
000000t:  Note on ::  Channel 6.  Note 49.  Velocity 80
000000t:  Note on ::  Channel 6.  Note 46.  Velocity 80
000092t:  Note on ::  Channel 6.  Note 46.  Velocity 0
000000t:  Note on ::  Channel 6.  Note 49.  Velocity 0
000000t:  Note on ::  Channel 6.  Note 53.  Velocity 0
000004t:  Note on ::  Channel 6.  Note 58.  Velocity 80
000000t:  Note on ::  Channel 6.  Note 54.  Velocity 80
000000t:  Note on ::  Channel 6.  Note 49.  Velocity 80
000092t:  Note on ::  Channel 6.  Note 49.  Velocity 0
000000t:  Note on ::  Channel 6.  Note 54.  Velocity 0
000000t:  Note on ::  Channel 6.  Note 58.  Velocity 0
000004t:  Note on ::  Channel 6.  Note 56.  Velocity 80
000000t:  Note on ::  Channel 6.  Note 53.  Velocity 80
000000t:  Note on ::  Channel 6.  Note 49.  Velocity 80
000092t:  Note on ::  Channel 6.  Note 49.  Velocity 0
000000t:  Note on ::  Channel 6.  Note 53.  Velocity 0
000000t:  Note on ::  Channel 6.  Note 56.  Velocity 0
000004t:  Note on ::  Channel 6.  Note 56.  Velocity 80
000000t:  Note on ::  Channel 6.  Note 53.  Velocity 80
000000t:  Note on ::  Channel 6.  Note 48.  Velocity 80
000092t:  Note on ::  Channel 6.  Note 48.  Velocity 0
000000t:  Note on ::  Channel 6.  Note 53.  Velocity 0
000000t:  Note on ::  Channel 6.  Note 56.  Velocity 0
000004t:  Note on ::  Channel 6.  Note 58.  Velocity 80
000000t:  Note on ::  Channel 6.  Note 53.  Velocity 80
000000t:  Note on ::  Channel 6.  Note 49.  Velocity 80
000092t:  Note on ::  Channel 6.  Note 49.  Velocity 0
000000t:  Note on ::  Channel 6.  Note 53.  Velocity 0
000000t:  Note on ::  Channel 6.  Note 58.  Velocity 0
000004t:  Note on ::  Channel 6.  Note 58.  Velocity 80
000000t:  Note on ::  Channel 6.  Note 54.  Velocity 80
000000t:  Note on ::  Channel 6.  Note 51.  Velocity 80
000000t:  Note on ::  Channel 6.  Note 49.  Velocity 80
000092t:  Note on ::  Channel 6.  Note 49.  Velocity 0
000000t:  Note on ::  Channel 6.  Note 58.  Velocity 0
000000t:  Note on ::  Channel 6.  Note 54.  Velocity 0
000000t:  Note on ::  Channel 6.  Note 51.  Velocity 0
000004t:  Note on ::  Channel 6.  Note 51.  Velocity 80
000000t:  Note on ::  Channel 6.  Note 49.  Velocity 80
000000t:  Note on ::  Channel 6.  Note 56.  Velocity 80
000190t:  Note on ::  Channel 6.  Note 56.  Velocity 0
000000t:  Note on ::  Channel 6.  Note 49.  Velocity 0
000000t:  Note on ::  Channel 6.  Note 51.  Velocity 0
000002t:  Note on ::  Channel 6.  Note 56.  Velocity 80
000000t:  Note on ::  Channel 6.  Note 51.  Velocity 80
000000t:  Note on ::  Channel 6.  Note 60.  Velocity 80
000190t:  Note on ::  Channel 6.  Note 60.  Velocity 0
000000t:  Note on ::  Channel 6.  Note 51.  Velocity 0
000000t:  Note on ::  Channel 6.  Note 56.  Velocity 0
000002t:  Note on ::  Channel 6.  Note 56.  Velocity 80
000000t:  Note on ::  Channel 6.  Note 53.  Velocity 80
000000t:  Note on ::  Channel 6.  Note 51.  Velocity 80
000000t:  Note on ::  Channel 6.  Note 48.  Velocity 80
000190t:  Note on ::  Channel 6.  Note 48.  Velocity 0
000000t:  Note on ::  Channel 6.  Note 56.  Velocity 0
000000t:  Note on ::  Channel 6.  Note 53.  Velocity 0
000000t:  Note on ::  Channel 6.  Note 51.  Velocity 0
000002t:  Note on ::  Channel 6.  Note 60.  Velocity 80
000000t:  Note on ::  Channel 6.  Note 56.  Velocity 80
000000t:  Note on ::  Channel 6.  Note 54.  Velocity 80
000000t:  Note on ::  Channel 6.  Note 51.  Velocity 80
000190t:  Note on ::  Channel 6.  Note 51.  Velocity 0
000000t:  Note on ::  Channel 6.  Note 60.  Velocity 0
000000t:  Note on ::  Channel 6.  Note 56.  Velocity 0
000000t:  Note on ::  Channel 6.  Note 54.  Velocity 0
000194t:  Note on ::  Channel 6.  Note 56.  Velocity 80
000000t:  Note on ::  Channel 6.  Note 53.  Velocity 80
000000t:  Note on ::  Channel 6.  Note 49.  Velocity 80
000092t:  Note on ::  Channel 6.  Note 49.  Velocity 0
000000t:  Note on ::  Channel 6.  Note 53.  Velocity 0
000000t:  Note on ::  Channel 6.  Note 56.  Velocity 0
000004t:  Note on ::  Channel 6.  Note 51.  Velocity 80
000000t:  Note on ::  Channel 6.  Note 48.  Velocity 80
000000t:  Note on ::  Channel 6.  Note 56.  Velocity 80
000092t:  Note on ::  Channel 6.  Note 56.  Velocity 0
000000t:  Note on ::  Channel 6.  Note 48.  Velocity 0
000000t:  Note on ::  Channel 6.  Note 51.  Velocity 0
000004t:  Note on ::  Channel 6.  Note 49.  Velocity 80
000000t:  Note on ::  Channel 6.  Note 58.  Velocity 80
000000t:  Note on ::  Channel 6.  Note 54.  Velocity 80
000092t:  Note on ::  Channel 6.  Note 54.  Velocity 0
000000t:  Note on ::  Channel 6.  Note 58.  Velocity 0
000000t:  Note on ::  Channel 6.  Note 49.  Velocity 0
000004t:  Note on ::  Channel 6.  Note 56.  Velocity 80
000000t:  Note on ::  Channel 6.  Note 51.  Velocity 80
000000t:  Note on ::  Channel 6.  Note 48.  Velocity 80
000092t:  Note on ::  Channel 6.  Note 48.  Velocity 0
000000t:  Note on ::  Channel 6.  Note 51.  Velocity 0
000000t:  Note on ::  Channel 6.  Note 56.  Velocity 0
000004t:  Note on ::  Channel 6.  Note 56.  Velocity 80
000000t:  Note on ::  Channel 6.  Note 53.  Velocity 80
000000t:  Note on ::  Channel 6.  Note 49.  Velocity 80
000092t:  Note on ::  Channel 6.  Note 49.  Velocity 0
000000t:  Note on ::  Channel 6.  Note 53.  Velocity 0
000000t:  Note on ::  Channel 6.  Note 56.  Velocity 0
000004t:  Note on ::  Channel 6.  Note 51.  Velocity 80
000000t:  Note on ::  Channel 6.  Note 48.  Velocity 80
000000t:  Note on ::  Channel 6.  Note 56.  Velocity 80
000092t:  Note on ::  Channel 6.  Note 56.  Velocity 0
000000t:  Note on ::  Channel 6.  Note 48.  Velocity 0
000000t:  Note on ::  Channel 6.  Note 51.  Velocity 0
000004t:  Note on ::  Channel 6.  Note 53.  Velocity 80
000000t:  Note on ::  Channel 6.  Note 49.  Velocity 80
000000t:  Note on ::  Channel 6.  Note 46.  Velocity 80
000092t:  Note on ::  Channel 6.  Note 46.  Velocity 0
000000t:  Note on ::  Channel 6.  Note 49.  Velocity 0
000000t:  Note on ::  Channel 6.  Note 53.  Velocity 0
000004t:  Note on ::  Channel 6.  Note 58.  Velocity 80
000000t:  Note on ::  Channel 6.  Note 54.  Velocity 80
000000t:  Note on ::  Channel 6.  Note 49.  Velocity 80
000092t:  Note on ::  Channel 6.  Note 49.  Velocity 0
000000t:  Note on ::  Channel 6.  Note 54.  Velocity 0
000000t:  Note on ::  Channel 6.  Note 58.  Velocity 0
000004t:  Note on ::  Channel 6.  Note 56.  Velocity 80
000000t:  Note on ::  Channel 6.  Note 53.  Velocity 80
000000t:  Note on ::  Channel 6.  Note 49.  Velocity 80
000092t:  Note on ::  Channel 6.  Note 49.  Velocity 0
000000t:  Note on ::  Channel 6.  Note 53.  Velocity 0
000000t:  Note on ::  Channel 6.  Note 56.  Velocity 0
000004t:  Note on ::  Channel 6.  Note 56.  Velocity 80
000000t:  Note on ::  Channel 6.  Note 53.  Velocity 80
000000t:  Note on ::  Channel 6.  Note 48.  Velocity 80
000092t:  Note on ::  Channel 6.  Note 48.  Velocity 0
000000t:  Note on ::  Channel 6.  Note 53.  Velocity 0
000000t:  Note on ::  Channel 6.  Note 56.  Velocity 0
000004t:  Note on ::  Channel 6.  Note 58.  Velocity 80
000000t:  Note on ::  Channel 6.  Note 53.  Velocity 80
000000t:  Note on ::  Channel 6.  Note 49.  Velocity 80
000092t:  Note on ::  Channel 6.  Note 49.  Velocity 0
000000t:  Note on ::  Channel 6.  Note 53.  Velocity 0
000000t:  Note on ::  Channel 6.  Note 58.  Velocity 0
000004t:  Note on ::  Channel 6.  Note 58.  Velocity 80
000000t:  Note on ::  Channel 6.  Note 54.  Velocity 80
000000t:  Note on ::  Channel 6.  Note 51.  Velocity 80
000000t:  Note on ::  Channel 6.  Note 49.  Velocity 80
000092t:  Note on ::  Channel 6.  Note 49.  Velocity 0
000000t:  Note on ::  Channel 6.  Note 58.  Velocity 0
000000t:  Note on ::  Channel 6.  Note 54.  Velocity 0
000000t:  Note on ::  Channel 6.  Note 51.  Velocity 0
000004t:  Note on ::  Channel 6.  Note 51.  Velocity 80
000000t:  Note on ::  Channel 6.  Note 49.  Velocity 80
000000t:  Note on ::  Channel 6.  Note 56.  Velocity 80
000190t:  Note on ::  Channel 6.  Note 56.  Velocity 0
000000t:  Note on ::  Channel 6.  Note 49.  Velocity 0
000000t:  Note on ::  Channel 6.  Note 51.  Velocity 0
000002t:  Note on ::  Channel 6.  Note 56.  Velocity 80
000000t:  Note on ::  Channel 6.  Note 51.  Velocity 80
000000t:  Note on ::  Channel 6.  Note 60.  Velocity 80
000190t:  Note on ::  Channel 6.  Note 60.  Velocity 0
000000t:  Note on ::  Channel 6.  Note 51.  Velocity 0
000000t:  Note on ::  Channel 6.  Note 56.  Velocity 0
000002t:  Note on ::  Channel 6.  Note 56.  Velocity 80
000000t:  Note on ::  Channel 6.  Note 53.  Velocity 80
000000t:  Note on ::  Channel 6.  Note 49.  Velocity 80
000092t:  Note on ::  Channel 6.  Note 49.  Velocity 0
000000t:  Note on ::  Channel 6.  Note 53.  Velocity 0
000000t:  Note on ::  Channel 6.  Note 56.  Velocity 0
000004t:  Note on ::  Channel 6.  Note 51.  Velocity 80
000000t:  Note on ::  Channel 6.  Note 48.  Velocity 80
000000t:  Note on ::  Channel 6.  Note 56.  Velocity 80
000092t:  Note on ::  Channel 6.  Note 56.  Velocity 0
000000t:  Note on ::  Channel 6.  Note 48.  Velocity 0
000000t:  Note on ::  Channel 6.  Note 51.  Velocity 0
000004t:  Note on ::  Channel 6.  Note 49.  Velocity 80
000000t:  Note on ::  Channel 6.  Note 58.  Velocity 80
000000t:  Note on ::  Channel 6.  Note 54.  Velocity 80
000092t:  Note on ::  Channel 6.  Note 54.  Velocity 0
000000t:  Note on ::  Channel 6.  Note 58.  Velocity 0
000000t:  Note on ::  Channel 6.  Note 49.  Velocity 0
000004t:  Note on ::  Channel 6.  Note 56.  Velocity 80
000000t:  Note on ::  Channel 6.  Note 51.  Velocity 80
000000t:  Note on ::  Channel 6.  Note 48.  Velocity 80
000092t:  Note on ::  Channel 6.  Note 48.  Velocity 0
000000t:  Note on ::  Channel 6.  Note 51.  Velocity 0
000000t:  Note on ::  Channel 6.  Note 56.  Velocity 0
000004t:  Note on ::  Channel 6.  Note 56.  Velocity 80
000000t:  Note on ::  Channel 6.  Note 53.  Velocity 80
000000t:  Note on ::  Channel 6.  Note 49.  Velocity 80
000092t:  Note on ::  Channel 6.  Note 49.  Velocity 0
000000t:  Note on ::  Channel 6.  Note 53.  Velocity 0
000000t:  Note on ::  Channel 6.  Note 56.  Velocity 0
000004t:  Note on ::  Channel 6.  Note 51.  Velocity 80
000000t:  Note on ::  Channel 6.  Note 48.  Velocity 80
000000t:  Note on ::  Channel 6.  Note 56.  Velocity 80
000092t:  Note on ::  Channel 6.  Note 56.  Velocity 0
000000t:  Note on ::  Channel 6.  Note 48.  Velocity 0
000000t:  Note on ::  Channel 6.  Note 51.  Velocity 0
000004t:  Note on ::  Channel 6.  Note 53.  Velocity 80
000000t:  Note on ::  Channel 6.  Note 49.  Velocity 80
000000t:  Note on ::  Channel 6.  Note 46.  Velocity 80
000092t:  Note on ::  Channel 6.  Note 46.  Velocity 0
000000t:  Note on ::  Channel 6.  Note 49.  Velocity 0
000000t:  Note on ::  Channel 6.  Note 53.  Velocity 0
000004t:  Note on ::  Channel 6.  Note 58.  Velocity 80
000000t:  Note on ::  Channel 6.  Note 54.  Velocity 80
000000t:  Note on ::  Channel 6.  Note 49.  Velocity 80
000092t:  Note on ::  Channel 6.  Note 49.  Velocity 0
000000t:  Note on ::  Channel 6.  Note 54.  Velocity 0
000000t:  Note on ::  Channel 6.  Note 58.  Velocity 0
000004t:  Note on ::  Channel 6.  Note 56.  Velocity 80
000000t:  Note on ::  Channel 6.  Note 53.  Velocity 80
000000t:  Note on ::  Channel 6.  Note 49.  Velocity 80
000092t:  Note on ::  Channel 6.  Note 49.  Velocity 0
000000t:  Note on ::  Channel 6.  Note 53.  Velocity 0
000000t:  Note on ::  Channel 6.  Note 56.  Velocity 0
000004t:  Note on ::  Channel 6.  Note 56.  Velocity 80
000000t:  Note on ::  Channel 6.  Note 53.  Velocity 80
000000t:  Note on ::  Channel 6.  Note 48.  Velocity 80
000092t:  Note on ::  Channel 6.  Note 48.  Velocity 0
000000t:  Note on ::  Channel 6.  Note 53.  Velocity 0
000000t:  Note on ::  Channel 6.  Note 56.  Velocity 0
000004t:  Note on ::  Channel 6.  Note 58.  Velocity 80
000000t:  Note on ::  Channel 6.  Note 53.  Velocity 80
000000t:  Note on ::  Channel 6.  Note 49.  Velocity 80
000092t:  Note on ::  Channel 6.  Note 49.  Velocity 0
000000t:  Note on ::  Channel 6.  Note 53.  Velocity 0
000000t:  Note on ::  Channel 6.  Note 58.  Velocity 0
000004t:  Note on ::  Channel 6.  Note 58.  Velocity 80
000000t:  Note on ::  Channel 6.  Note 54.  Velocity 80
000000t:  Note on ::  Channel 6.  Note 51.  Velocity 80
000000t:  Note on ::  Channel 6.  Note 49.  Velocity 80
000092t:  Note on ::  Channel 6.  Note 49.  Velocity 0
000000t:  Note on ::  Channel 6.  Note 58.  Velocity 0
000000t:  Note on ::  Channel 6.  Note 54.  Velocity 0
000000t:  Note on ::  Channel 6.  Note 51.  Velocity 0
000004t:  Note on ::  Channel 6.  Note 51.  Velocity 80
000000t:  Note on ::  Channel 6.  Note 49.  Velocity 80
000000t:  Note on ::  Channel 6.  Note 56.  Velocity 80
000190t:  Note on ::  Channel 6.  Note 56.  Velocity 0
000000t:  Note on ::  Channel 6.  Note 49.  Velocity 0
000000t:  Note on ::  Channel 6.  Note 51.  Velocity 0
000002t:  Note on ::  Channel 6.  Note 56.  Velocity 80
000000t:  Note on ::  Channel 6.  Note 51.  Velocity 80
000000t:  Note on ::  Channel 6.  Note 60.  Velocity 80
000190t:  Note on ::  Channel 6.  Note 60.  Velocity 0
000000t:  Note on ::  Channel 6.  Note 51.  Velocity 0
000000t:  Note on ::  Channel 6.  Note 56.  Velocity 0
000002t:  Note on ::  Channel 6.  Note 56.  Velocity 80
000000t:  Note on ::  Channel 6.  Note 53.  Velocity 80
000000t:  Note on ::  Channel 6.  Note 49.  Velocity 80
000092t:  Note on ::  Channel 6.  Note 49.  Velocity 0
000000t:  Note on ::  Channel 6.  Note 53.  Velocity 0
000000t:  Note on ::  Channel 6.  Note 56.  Velocity 0
000004t:  Note on ::  Channel 6.  Note 51.  Velocity 80
000000t:  Note on ::  Channel 6.  Note 48.  Velocity 80
000000t:  Note on ::  Channel 6.  Note 56.  Velocity 80
000092t:  Note on ::  Channel 6.  Note 56.  Velocity 0
000000t:  Note on ::  Channel 6.  Note 48.  Velocity 0
000000t:  Note on ::  Channel 6.  Note 51.  Velocity 0
000004t:  Note on ::  Channel 6.  Note 49.  Velocity 80
000000t:  Note on ::  Channel 6.  Note 58.  Velocity 80
000000t:  Note on ::  Channel 6.  Note 54.  Velocity 80
000092t:  Note on ::  Channel 6.  Note 54.  Velocity 0
000000t:  Note on ::  Channel 6.  Note 58.  Velocity 0
000000t:  Note on ::  Channel 6.  Note 49.  Velocity 0
000004t:  Note on ::  Channel 6.  Note 56.  Velocity 80
000000t:  Note on ::  Channel 6.  Note 51.  Velocity 80
000000t:  Note on ::  Channel 6.  Note 48.  Velocity 80
000092t:  Note on ::  Channel 6.  Note 48.  Velocity 0
000000t:  Note on ::  Channel 6.  Note 51.  Velocity 0
000000t:  Note on ::  Channel 6.  Note 56.  Velocity 0
000004t:  Note on ::  Channel 6.  Note 56.  Velocity 80
000000t:  Note on ::  Channel 6.  Note 53.  Velocity 80
000000t:  Note on ::  Channel 6.  Note 49.  Velocity 80
000092t:  Note on ::  Channel 6.  Note 49.  Velocity 0
000000t:  Note on ::  Channel 6.  Note 53.  Velocity 0
000000t:  Note on ::  Channel 6.  Note 56.  Velocity 0
000004t:  Note on ::  Channel 6.  Note 51.  Velocity 80
000000t:  Note on ::  Channel 6.  Note 48.  Velocity 80
000000t:  Note on ::  Channel 6.  Note 56.  Velocity 80
000092t:  Note on ::  Channel 6.  Note 56.  Velocity 0
000000t:  Note on ::  Channel 6.  Note 48.  Velocity 0
000000t:  Note on ::  Channel 6.  Note 51.  Velocity 0
000004t:  Note on ::  Channel 6.  Note 53.  Velocity 80
000000t:  Note on ::  Channel 6.  Note 49.  Velocity 80
000000t:  Note on ::  Channel 6.  Note 46.  Velocity 80
000092t:  Note on ::  Channel 6.  Note 46.  Velocity 0
000000t:  Note on ::  Channel 6.  Note 49.  Velocity 0
000000t:  Note on ::  Channel 6.  Note 53.  Velocity 0
000004t:  Note on ::  Channel 6.  Note 58.  Velocity 80
000000t:  Note on ::  Channel 6.  Note 54.  Velocity 80
000000t:  Note on ::  Channel 6.  Note 49.  Velocity 80
000092t:  Note on ::  Channel 6.  Note 49.  Velocity 0
000000t:  Note on ::  Channel 6.  Note 54.  Velocity 0
000000t:  Note on ::  Channel 6.  Note 58.  Velocity 0
000000t:  Control change ::  Channel 6.  Controller 7.  Value: 60
000004t:  Control change ::  Channel 6.  Controller 7.  Value: 60
000000t:  Note on ::  Channel 6.  Note 56.  Velocity 80
000000t:  Note on ::  Channel 6.  Note 53.  Velocity 80
000000t:  Note on ::  Channel 6.  Note 49.  Velocity 80
000023t:  Control change ::  Channel 6.  Controller 7.  Value: 59
000022t:  Control change ::  Channel 6.  Controller 7.  Value: 58
000023t:  Control change ::  Channel 6.  Controller 7.  Value: 57
000022t:  Control change ::  Channel 6.  Controller 7.  Value: 56
000002t:  Note on ::  Channel 6.  Note 49.  Velocity 0
000000t:  Note on ::  Channel 6.  Note 53.  Velocity 0
000000t:  Note on ::  Channel 6.  Note 56.  Velocity 0
000004t:  Note on ::  Channel 6.  Note 56.  Velocity 80
000000t:  Note on ::  Channel 6.  Note 53.  Velocity 80
000000t:  Note on ::  Channel 6.  Note 48.  Velocity 80
000016t:  Control change ::  Channel 6.  Controller 7.  Value: 55
000023t:  Control change ::  Channel 6.  Controller 7.  Value: 54
000022t:  Control change ::  Channel 6.  Controller 7.  Value: 53
000023t:  Control change ::  Channel 6.  Controller 7.  Value: 52
000008t:  Note on ::  Channel 6.  Note 48.  Velocity 0
000000t:  Note on ::  Channel 6.  Note 53.  Velocity 0
000000t:  Note on ::  Channel 6.  Note 56.  Velocity 0
000004t:  Note on ::  Channel 6.  Note 58.  Velocity 80
000000t:  Note on ::  Channel 6.  Note 53.  Velocity 80
000000t:  Note on ::  Channel 6.  Note 49.  Velocity 80
000010t:  Control change ::  Channel 6.  Controller 7.  Value: 51
000022t:  Control change ::  Channel 6.  Controller 7.  Value: 50
000023t:  Control change ::  Channel 6.  Controller 7.  Value: 49
000022t:  Control change ::  Channel 6.  Controller 7.  Value: 48
000015t:  Note on ::  Channel 6.  Note 49.  Velocity 0
000000t:  Note on ::  Channel 6.  Note 53.  Velocity 0
000000t:  Note on ::  Channel 6.  Note 58.  Velocity 0
000004t:  Note on ::  Channel 6.  Note 58.  Velocity 80
000000t:  Note on ::  Channel 6.  Note 54.  Velocity 80
000000t:  Note on ::  Channel 6.  Note 51.  Velocity 80
000000t:  Note on ::  Channel 6.  Note 49.  Velocity 80
000003t:  Control change ::  Channel 6.  Controller 7.  Value: 47
000023t:  Control change ::  Channel 6.  Controller 7.  Value: 46
000022t:  Control change ::  Channel 6.  Controller 7.  Value: 45
000023t:  Control change ::  Channel 6.  Controller 7.  Value: 44
000021t:  Note on ::  Channel 6.  Note 49.  Velocity 0
000000t:  Note on ::  Channel 6.  Note 58.  Velocity 0
000000t:  Note on ::  Channel 6.  Note 54.  Velocity 0
000000t:  Note on ::  Channel 6.  Note 51.  Velocity 0
000001t:  Control change ::  Channel 6.  Controller 7.  Value: 43
000003t:  Note on ::  Channel 6.  Note 51.  Velocity 80
000000t:  Note on ::  Channel 6.  Note 49.  Velocity 80
000000t:  Note on ::  Channel 6.  Note 56.  Velocity 80
000019t:  Control change ::  Channel 6.  Controller 7.  Value: 42
000023t:  Control change ::  Channel 6.  Controller 7.  Value: 41
000022t:  Control change ::  Channel 6.  Controller 7.  Value: 40
000023t:  Control change ::  Channel 6.  Controller 7.  Value: 39
000022t:  Control change ::  Channel 6.  Controller 7.  Value: 38
000022t:  Control change ::  Channel 6.  Controller 7.  Value: 37
000023t:  Control change ::  Channel 6.  Controller 7.  Value: 36
000022t:  Control change ::  Channel 6.  Controller 7.  Value: 35
000014t:  Note on ::  Channel 6.  Note 56.  Velocity 0
000000t:  Note on ::  Channel 6.  Note 49.  Velocity 0
000000t:  Note on ::  Channel 6.  Note 51.  Velocity 0
000002t:  Note on ::  Channel 6.  Note 56.  Velocity 80
000000t:  Note on ::  Channel 6.  Note 51.  Velocity 80
000000t:  Note on ::  Channel 6.  Note 60.  Velocity 80
000006t:  Control change ::  Channel 6.  Controller 7.  Value: 34
000023t:  Control change ::  Channel 6.  Controller 7.  Value: 33
000022t:  Control change ::  Channel 6.  Controller 7.  Value: 32
000023t:  Control change ::  Channel 6.  Controller 7.  Value: 31
000022t:  Control change ::  Channel 6.  Controller 7.  Value: 30
000022t:  Control change ::  Channel 6.  Controller 7.  Value: 29
000023t:  Control change ::  Channel 6.  Controller 7.  Value: 28
000022t:  Control change ::  Channel 6.  Controller 7.  Value: 27
000023t:  Control change ::  Channel 6.  Controller 7.  Value: 26
000004t:  Note on ::  Channel 6.  Note 60.  Velocity 0
000000t:  Note on ::  Channel 6.  Note 51.  Velocity 0
000000t:  Note on ::  Channel 6.  Note 56.  Velocity 0
000002t:  Note on ::  Channel 6.  Note 56.  Velocity 80
000000t:  Note on ::  Channel 6.  Note 53.  Velocity 80
000000t:  Note on ::  Channel 6.  Note 49.  Velocity 80
000016t:  Control change ::  Channel 6.  Controller 7.  Value: 25
000022t:  Control change ::  Channel 6.  Controller 7.  Value: 24
000023t:  Control change ::  Channel 6.  Controller 7.  Value: 23
000022t:  Control change ::  Channel 6.  Controller 7.  Value: 22
000009t:  Note on ::  Channel 6.  Note 49.  Velocity 0
000000t:  Note on ::  Channel 6.  Note 53.  Velocity 0
000000t:  Note on ::  Channel 6.  Note 56.  Velocity 0
000004t:  Note on ::  Channel 6.  Note 51.  Velocity 80
000000t:  Note on ::  Channel 6.  Note 48.  Velocity 80
000000t:  Note on ::  Channel 6.  Note 56.  Velocity 80
000009t:  Control change ::  Channel 6.  Controller 7.  Value: 21
000023t:  Control change ::  Channel 6.  Controller 7.  Value: 20
000022t:  Control change ::  Channel 6.  Controller 7.  Value: 19
000023t:  Control change ::  Channel 6.  Controller 7.  Value: 18
000015t:  Note on ::  Channel 6.  Note 56.  Velocity 0
000000t:  Note on ::  Channel 6.  Note 48.  Velocity 0
000000t:  Note on ::  Channel 6.  Note 51.  Velocity 0
000004t:  Note on ::  Channel 6.  Note 49.  Velocity 80
000000t:  Note on ::  Channel 6.  Note 58.  Velocity 80
000000t:  Note on ::  Channel 6.  Note 54.  Velocity 80
000003t:  Control change ::  Channel 6.  Controller 7.  Value: 17
000022t:  Control change ::  Channel 6.  Controller 7.  Value: 16
000023t:  Control change ::  Channel 6.  Controller 7.  Value: 15
000022t:  Control change ::  Channel 6.  Controller 7.  Value: 14
000022t:  Note on ::  Channel 6.  Note 54.  Velocity 0
000000t:  Note on ::  Channel 6.  Note 58.  Velocity 0
000000t:  Note on ::  Channel 6.  Note 49.  Velocity 0
000001t:  Control change ::  Channel 6.  Controller 7.  Value: 13
000003t:  Note on ::  Channel 6.  Note 56.  Velocity 80
000000t:  Note on ::  Channel 6.  Note 51.  Velocity 80
000000t:  Note on ::  Channel 6.  Note 48.  Velocity 80
000019t:  Control change ::  Channel 6.  Controller 7.  Value: 12
000022t:  Control change ::  Channel 6.  Controller 7.  Value: 11
000023t:  Control change ::  Channel 6.  Controller 7.  Value: 10
000022t:  Control change ::  Channel 6.  Controller 7.  Value: 9
000006t:  Note on ::  Channel 6.  Note 48.  Velocity 0
000000t:  Note on ::  Channel 6.  Note 51.  Velocity 0
000000t:  Note on ::  Channel 6.  Note 56.  Velocity 0
000004t:  Note on ::  Channel 6.  Note 56.  Velocity 80
000000t:  Note on ::  Channel 6.  Note 53.  Velocity 80
000000t:  Note on ::  Channel 6.  Note 49.  Velocity 80
000012t:  Control change ::  Channel 6.  Controller 7.  Value: 8
000023t:  Control change ::  Channel 6.  Controller 7.  Value: 7
000022t:  Control change ::  Channel 6.  Controller 7.  Value: 6
000023t:  Control change ::  Channel 6.  Controller 7.  Value: 5
000012t:  Note on ::  Channel 6.  Note 49.  Velocity 0
000000t:  Note on ::  Channel 6.  Note 53.  Velocity 0
000000t:  Note on ::  Channel 6.  Note 56.  Velocity 0
000004t:  Note on ::  Channel 6.  Note 51.  Velocity 80
000000t:  Note on ::  Channel 6.  Note 48.  Velocity 80
000000t:  Note on ::  Channel 6.  Note 56.  Velocity 80
000006t:  Control change ::  Channel 6.  Controller 7.  Value: 4
000022t:  Control change ::  Channel 6.  Controller 7.  Value: 3
000023t:  Control change ::  Channel 6.  Controller 7.  Value: 2
000022t:  Control change ::  Channel 6.  Controller 7.  Value: 1
000019t:  Note on ::  Channel 6.  Note 56.  Velocity 0
000000t:  Note on ::  Channel 6.  Note 48.  Velocity 0
000000t:  Note on ::  Channel 6.  Note 51.  Velocity 0
000003t:  Control change ::  Channel 6.  Controller 7.  Value: 0
000000t:  Meta-event type $2f (End-track event) of length 0
Sigma t = 24911

Track chunk of 309 bytes
000000t:  Meta-event type $21 (?) of length 1
	  _
000000t:  Program (patch) change ::  Channel 7.  Patch 88 (Pad 1 (new age))
000000t:  Control change ::  Channel 7.  Controller 7.  Value: 88
000000t:  Control change ::  Channel 7.  Controller 10.  Value: 64
000089t:  Control change ::  Channel 7.  Controller 11.  Value: 88
000005t:  Control change ::  Channel 7.  Controller 100.  Value: 0
000002t:  Control change ::  Channel 7.  Controller 101.  Value: 0
000002t:  Control change ::  Channel 7.  Controller 6.  Value: 16
000002t:  Pitch wheel change ::  Channel 7.   -8192
000008t:  Control change ::  Channel 7.  Controller 1.  Value: 0
000002t:  Meta-event type $21 (?) of length 1
	  _
000000t:  Sysex type f0 of length 9
000000t:  Meta-event type $21 (?) of length 1
	  _
000002t:  Control change ::  Channel 7.  Controller 65.  Value: 0
000002t:  Control change ::  Channel 7.  Controller 5.  Value: 0
000002t:  Meta-event type $21 (?) of length 1
	  _
000000t:  Sysex type f0 of length 9
000000t:  Meta-event type $21 (?) of length 1
	  _
000002t:  Meta-event type $21 (?) of length 1
	  _
000000t:  Sysex type f0 of length 9
000000t:  Meta-event type $21 (?) of length 1
	  _
010802t:  Control change ::  Channel 7.  Controller 7.  Value: 100
000168t:  Pitch wheel change ::  Channel 7.   -8192
000024t:  Note on ::  Channel 7.  Note 77.  Velocity 64
000024t:  Pitch wheel change ::  Channel 7.   -8192
000022t:  Note on ::  Channel 7.  Note 77.  Velocity 0
000002t:  Note on ::  Channel 7.  Note 75.  Velocity 64
000022t:  Note on ::  Channel 7.  Note 75.  Velocity 0
000002t:  Note on ::  Channel 7.  Note 74.  Velocity 64
000024t:  Pitch wheel change ::  Channel 7.   -8192
000022t:  Note on ::  Channel 7.  Note 74.  Velocity 0
000002t:  Note on ::  Channel 7.  Note 72.  Velocity 64
000022t:  Note on ::  Channel 7.  Note 72.  Velocity 0
000002t:  Note on ::  Channel 7.  Note 74.  Velocity 64
000214t:  Note on ::  Channel 7.  Note 74.  Velocity 0
000386t:  Pitch wheel change ::  Channel 7.   -8192
000024t:  Note on ::  Channel 7.  Note 77.  Velocity 64
000024t:  Pitch wheel change ::  Channel 7.   -8192
000022t:  Note on ::  Channel 7.  Note 77.  Velocity 0
000002t:  Note on ::  Channel 7.  Note 75.  Velocity 64
000022t:  Note on ::  Channel 7.  Note 75.  Velocity 0
000002t:  Note on ::  Channel 7.  Note 74.  Velocity 64
000024t:  Pitch wheel change ::  Channel 7.   -8192
000022t:  Note on ::  Channel 7.  Note 74.  Velocity 0
000002t:  Note on ::  Channel 7.  Note 72.  Velocity 64
000022t:  Note on ::  Channel 7.  Note 72.  Velocity 0
000002t:  Note on ::  Channel 7.  Note 74.  Velocity 64
000214t:  Note on ::  Channel 7.  Note 74.  Velocity 0
000386t:  Pitch wheel change ::  Channel 7.   -8192
000024t:  Note on ::  Channel 7.  Note 77.  Velocity 64
000024t:  Pitch wheel change ::  Channel 7.   -8192
000022t:  Note on ::  Channel 7.  Note 77.  Velocity 0
000002t:  Note on ::  Channel 7.  Note 75.  Velocity 64
000022t:  Note on ::  Channel 7.  Note 75.  Velocity 0
000002t:  Note on ::  Channel 7.  Note 74.  Velocity 64
000024t:  Pitch wheel change ::  Channel 7.   -8192
000022t:  Note on ::  Channel 7.  Note 74.  Velocity 0
000002t:  Note on ::  Channel 7.  Note 72.  Velocity 64
000022t:  Note on ::  Channel 7.  Note 72.  Velocity 0
000002t:  Note on ::  Channel 7.  Note 74.  Velocity 64
000214t:  Note on ::  Channel 7.  Note 74.  Velocity 0
000386t:  Pitch wheel change ::  Channel 7.   -8192
000024t:  Note on ::  Channel 7.  Note 77.  Velocity 64
000024t:  Pitch wheel change ::  Channel 7.   -8192
000022t:  Note on ::  Channel 7.  Note 77.  Velocity 0
000002t:  Note on ::  Channel 7.  Note 75.  Velocity 64
000022t:  Note on ::  Channel 7.  Note 75.  Velocity 0
000002t:  Note on ::  Channel 7.  Note 74.  Velocity 64
000024t:  Pitch wheel change ::  Channel 7.   -8192
000022t:  Note on ::  Channel 7.  Note 74.  Velocity 0
000002t:  Note on ::  Channel 7.  Note 72.  Velocity 64
000022t:  Note on ::  Channel 7.  Note 72.  Velocity 0
000002t:  Note on ::  Channel 7.  Note 70.  Velocity 64
000214t:  Note on ::  Channel 7.  Note 70.  Velocity 0
000002t:  Pitch wheel change ::  Channel 7.   -8192
000000t:  Meta-event type $2f (End-track event) of length 0
Sigma t = 13776

Track chunk of 2568 bytes
000000t:  Meta-event type $21 (?) of length 1
	  _
000000t:  Program (patch) change ::  Channel 8.  Patch 33 (Electric Bass(finger))
000000t:  Control change ::  Channel 8.  Controller 7.  Value: 125
000000t:  Control change ::  Channel 8.  Controller 10.  Value: 64
000091t:  Control change ::  Channel 8.  Controller 11.  Value: 100
000005t:  Control change ::  Channel 8.  Controller 100.  Value: 0
000002t:  Control change ::  Channel 8.  Controller 101.  Value: 0
000002t:  Control change ::  Channel 8.  Controller 6.  Value: 16
000002t:  Pitch wheel change ::  Channel 8.   -8192
000008t:  Control change ::  Channel 8.  Controller 1.  Value: 30
000002t:  Meta-event type $21 (?) of length 1
	  _
000000t:  Sysex type f0 of length 9
000000t:  Meta-event type $21 (?) of length 1
	  _
000002t:  Control change ::  Channel 8.  Controller 65.  Value: 0
000002t:  Control change ::  Channel 8.  Controller 5.  Value: 0
000002t:  Meta-event type $21 (?) of length 1
	  _
000000t:  Sysex type f0 of length 9
000000t:  Meta-event type $21 (?) of length 1
	  _
000002t:  Meta-event type $21 (?) of length 1
	  _
000000t:  Sysex type f0 of length 9
000000t:  Meta-event type $21 (?) of length 1
	  _
000288t:  Note on ::  Channel 8.  Note 49.  Velocity 97
000017t:  Note on ::  Channel 8.  Note 49.  Velocity 0
000007t:  Note on ::  Channel 8.  Note 37.  Velocity 110
000152t:  Note on ::  Channel 8.  Note 37.  Velocity 0
000304t:  Note on ::  Channel 8.  Note 49.  Velocity 97
000017t:  Note on ::  Channel 8.  Note 49.  Velocity 0
000007t:  Note on ::  Channel 8.  Note 37.  Velocity 110
000152t:  Note on ::  Channel 8.  Note 37.  Velocity 0
002152t:  Note on ::  Channel 8.  Note 44.  Velocity 105
000054t:  Note on ::  Channel 8.  Note 44.  Velocity 0
000018t:  Note on ::  Channel 8.  Note 46.  Velocity 95
000054t:  Note on ::  Channel 8.  Note 46.  Velocity 0
000018t:  Note on ::  Channel 8.  Note 42.  Velocity 100
000054t:  Note on ::  Channel 8.  Note 42.  Velocity 0
000018t:  Note on ::  Channel 8.  Note 44.  Velocity 95
000036t:  Note on ::  Channel 8.  Note 44.  Velocity 0
000012t:  Note on ::  Channel 8.  Note 37.  Velocity 97
000017t:  Note on ::  Channel 8.  Note 37.  Velocity 0
000007t:  Note on ::  Channel 8.  Note 37.  Velocity 110
000152t:  Note on ::  Channel 8.  Note 37.  Velocity 0
000040t:  Note on ::  Channel 8.  Note 44.  Velocity 105
000054t:  Note on ::  Channel 8.  Note 44.  Velocity 0
000018t:  Note on ::  Channel 8.  Note 46.  Velocity 95
000054t:  Note on ::  Channel 8.  Note 46.  Velocity 0
000018t:  Note on ::  Channel 8.  Note 42.  Velocity 100
000054t:  Note on ::  Channel 8.  Note 42.  Velocity 0
000018t:  Note on ::  Channel 8.  Note 44.  Velocity 95
000036t:  Note on ::  Channel 8.  Note 44.  Velocity 0
000012t:  Note on ::  Channel 8.  Note 37.  Velocity 97
000017t:  Note on ::  Channel 8.  Note 37.  Velocity 0
000007t:  Note on ::  Channel 8.  Note 37.  Velocity 110
000152t:  Note on ::  Channel 8.  Note 37.  Velocity 0
000040t:  Note on ::  Channel 8.  Note 44.  Velocity 105
000054t:  Note on ::  Channel 8.  Note 44.  Velocity 0
000018t:  Note on ::  Channel 8.  Note 46.  Velocity 95
000054t:  Note on ::  Channel 8.  Note 46.  Velocity 0
000018t:  Note on ::  Channel 8.  Note 42.  Velocity 100
000054t:  Note on ::  Channel 8.  Note 42.  Velocity 0
000018t:  Note on ::  Channel 8.  Note 44.  Velocity 95
000036t:  Note on ::  Channel 8.  Note 44.  Velocity 0
000012t:  Note on ::  Channel 8.  Note 37.  Velocity 97
000017t:  Note on ::  Channel 8.  Note 37.  Velocity 0
000007t:  Note on ::  Channel 8.  Note 37.  Velocity 110
000152t:  Note on ::  Channel 8.  Note 37.  Velocity 0
000040t:  Note on ::  Channel 8.  Note 44.  Velocity 105
000054t:  Note on ::  Channel 8.  Note 44.  Velocity 0
000018t:  Note on ::  Channel 8.  Note 46.  Velocity 95
000054t:  Note on ::  Channel 8.  Note 46.  Velocity 0
000018t:  Note on ::  Channel 8.  Note 42.  Velocity 100
000054t:  Note on ::  Channel 8.  Note 42.  Velocity 0
000018t:  Note on ::  Channel 8.  Note 41.  Velocity 95
000036t:  Note on ::  Channel 8.  Note 41.  Velocity 0
000012t:  Note on ::  Channel 8.  Note 42.  Velocity 97
000017t:  Note on ::  Channel 8.  Note 42.  Velocity 0
000007t:  Note on ::  Channel 8.  Note 42.  Velocity 110
000344t:  Note on ::  Channel 8.  Note 42.  Velocity 0
000040t:  Note on ::  Channel 8.  Note 37.  Velocity 105
000073t:  Note on ::  Channel 8.  Note 37.  Velocity 0
000023t:  Note on ::  Channel 8.  Note 32.  Velocity 103
000073t:  Note on ::  Channel 8.  Note 32.  Velocity 0
000023t:  Note on ::  Channel 8.  Note 30.  Velocity 105
000073t:  Note on ::  Channel 8.  Note 30.  Velocity 0
000023t:  Note on ::  Channel 8.  Note 32.  Velocity 103
000073t:  Note on ::  Channel 8.  Note 32.  Velocity 0
000023t:  Note on ::  Channel 8.  Note 37.  Velocity 105
000073t:  Note on ::  Channel 8.  Note 37.  Velocity 0
000023t:  Note on ::  Channel 8.  Note 32.  Velocity 103
000073t:  Note on ::  Channel 8.  Note 32.  Velocity 0
000023t:  Note on ::  Channel 8.  Note 34.  Velocity 105
000073t:  Note on ::  Channel 8.  Note 34.  Velocity 0
000023t:  Note on ::  Channel 8.  Note 30.  Velocity 100
000054t:  Note on ::  Channel 8.  Note 30.  Velocity 0
000018t:  Note on ::  Channel 8.  Note 32.  Velocity 97
000017t:  Note on ::  Channel 8.  Note 32.  Velocity 0
000007t:  Note on ::  Channel 8.  Note 37.  Velocity 105
000073t:  Note on ::  Channel 8.  Note 37.  Velocity 0
000023t:  Note on ::  Channel 8.  Note 36.  Velocity 103
000073t:  Note on ::  Channel 8.  Note 36.  Velocity 0
000023t:  Note on ::  Channel 8.  Note 34.  Velocity 105
000073t:  Note on ::  Channel 8.  Note 34.  Velocity 0
000023t:  Note on ::  Channel 8.  Note 27.  Velocity 100
000017t:  Note on ::  Channel 8.  Note 27.  Velocity 0
000007t:  Note on ::  Channel 8.  Note 29.  Velocity 95
000017t:  Note on ::  Channel 8.  Note 29.  Velocity 0
000007t:  Note on ::  Channel 8.  Note 30.  Velocity 97
000017t:  Note on ::  Channel 8.  Note 30.  Velocity 0
000007t:  Note on ::  Channel 8.  Note 27.  Velocity 95
000017t:  Note on ::  Channel 8.  Note 27.  Velocity 0
000007t:  Note on ::  Channel 8.  Note 32.  Velocity 110
000054t:  Note on ::  Channel 8.  Note 32.  Velocity 0
000018t:  Note on ::  Channel 8.  Note 32.  Velocity 100
000017t:  Note on ::  Channel 8.  Note 32.  Velocity 0
000007t:  Note on ::  Channel 8.  Note 32.  Velocity 97
000073t:  Note on ::  Channel 8.  Note 32.  Velocity 0
000023t:  Note on ::  Channel 8.  Note 32.  Velocity 110
000152t:  Note on ::  Channel 8.  Note 32.  Velocity 0
000040t:  Note on ::  Channel 8.  Note 44.  Velocity 105
000054t:  Note on ::  Channel 8.  Note 44.  Velocity 0
000018t:  Note on ::  Channel 8.  Note 46.  Velocity 95
000054t:  Note on ::  Channel 8.  Note 46.  Velocity 0
000018t:  Note on ::  Channel 8.  Note 42.  Velocity 100
000054t:  Note on ::  Channel 8.  Note 42.  Velocity 0
000018t:  Note on ::  Channel 8.  Note 44.  Velocity 95
000036t:  Note on ::  Channel 8.  Note 44.  Velocity 0
000012t:  Note on ::  Channel 8.  Note 37.  Velocity 97
000017t:  Note on ::  Channel 8.  Note 37.  Velocity 0
000007t:  Note on ::  Channel 8.  Note 37.  Velocity 110
000152t:  Note on ::  Channel 8.  Note 37.  Velocity 0
000040t:  Note on ::  Channel 8.  Note 44.  Velocity 105
000054t:  Note on ::  Channel 8.  Note 44.  Velocity 0
000018t:  Note on ::  Channel 8.  Note 46.  Velocity 95
000054t:  Note on ::  Channel 8.  Note 46.  Velocity 0
000018t:  Note on ::  Channel 8.  Note 42.  Velocity 100
000054t:  Note on ::  Channel 8.  Note 42.  Velocity 0
000018t:  Note on ::  Channel 8.  Note 44.  Velocity 95
000036t:  Note on ::  Channel 8.  Note 44.  Velocity 0
000012t:  Note on ::  Channel 8.  Note 37.  Velocity 97
000017t:  Note on ::  Channel 8.  Note 37.  Velocity 0
000007t:  Note on ::  Channel 8.  Note 37.  Velocity 110
000152t:  Note on ::  Channel 8.  Note 37.  Velocity 0
000040t:  Note on ::  Channel 8.  Note 44.  Velocity 105
000054t:  Note on ::  Channel 8.  Note 44.  Velocity 0
000018t:  Note on ::  Channel 8.  Note 46.  Velocity 95
000054t:  Note on ::  Channel 8.  Note 46.  Velocity 0
000018t:  Note on ::  Channel 8.  Note 42.  Velocity 100
000054t:  Note on ::  Channel 8.  Note 42.  Velocity 0
000018t:  Note on ::  Channel 8.  Note 44.  Velocity 95
000036t:  Note on ::  Channel 8.  Note 44.  Velocity 0
000012t:  Note on ::  Channel 8.  Note 37.  Velocity 97
000017t:  Note on ::  Channel 8.  Note 37.  Velocity 0
000007t:  Note on ::  Channel 8.  Note 37.  Velocity 110
000152t:  Note on ::  Channel 8.  Note 37.  Velocity 0
000040t:  Note on ::  Channel 8.  Note 44.  Velocity 105
000054t:  Note on ::  Channel 8.  Note 44.  Velocity 0
000018t:  Note on ::  Channel 8.  Note 46.  Velocity 95
000054t:  Note on ::  Channel 8.  Note 46.  Velocity 0
000018t:  Note on ::  Channel 8.  Note 42.  Velocity 100
000054t:  Note on ::  Channel 8.  Note 42.  Velocity 0
000018t:  Note on ::  Channel 8.  Note 41.  Velocity 95
000036t:  Note on ::  Channel 8.  Note 41.  Velocity 0
000012t:  Note on ::  Channel 8.  Note 42.  Velocity 97
000017t:  Note on ::  Channel 8.  Note 42.  Velocity 0
000007t:  Note on ::  Channel 8.  Note 42.  Velocity 110
000344t:  Note on ::  Channel 8.  Note 42.  Velocity 0
000040t:  Note on ::  Channel 8.  Note 37.  Velocity 105
000073t:  Note on ::  Channel 8.  Note 37.  Velocity 0
000023t:  Note on ::  Channel 8.  Note 32.  Velocity 103
000073t:  Note on ::  Channel 8.  Note 32.  Velocity 0
000023t:  Note on ::  Channel 8.  Note 30.  Velocity 105
000073t:  Note on ::  Channel 8.  Note 30.  Velocity 0
000023t:  Note on ::  Channel 8.  Note 32.  Velocity 103
000073t:  Note on ::  Channel 8.  Note 32.  Velocity 0
000023t:  Note on ::  Channel 8.  Note 37.  Velocity 105
000073t:  Note on ::  Channel 8.  Note 37.  Velocity 0
000023t:  Note on ::  Channel 8.  Note 32.  Velocity 103
000073t:  Note on ::  Channel 8.  Note 32.  Velocity 0
000023t:  Note on ::  Channel 8.  Note 34.  Velocity 105
000073t:  Note on ::  Channel 8.  Note 34.  Velocity 0
000023t:  Note on ::  Channel 8.  Note 30.  Velocity 100
000054t:  Note on ::  Channel 8.  Note 30.  Velocity 0
000018t:  Note on ::  Channel 8.  Note 32.  Velocity 95
000017t:  Note on ::  Channel 8.  Note 32.  Velocity 0
000007t:  Note on ::  Channel 8.  Note 37.  Velocity 105
000073t:  Note on ::  Channel 8.  Note 37.  Velocity 0
000023t:  Note on ::  Channel 8.  Note 36.  Velocity 103
000073t:  Note on ::  Channel 8.  Note 36.  Velocity 0
000023t:  Note on ::  Channel 8.  Note 34.  Velocity 105
000073t:  Note on ::  Channel 8.  Note 34.  Velocity 0
000023t:  Note on ::  Channel 8.  Note 27.  Velocity 100
000017t:  Note on ::  Channel 8.  Note 27.  Velocity 0
000007t:  Note on ::  Channel 8.  Note 29.  Velocity 95
000017t:  Note on ::  Channel 8.  Note 29.  Velocity 0
000007t:  Note on ::  Channel 8.  Note 30.  Velocity 97
000017t:  Note on ::  Channel 8.  Note 30.  Velocity 0
000007t:  Note on ::  Channel 8.  Note 27.  Velocity 95
000017t:  Note on ::  Channel 8.  Note 27.  Velocity 0
000007t:  Note on ::  Channel 8.  Note 32.  Velocity 105
000152t:  Note on ::  Channel 8.  Note 32.  Velocity 0
000040t:  Note on ::  Channel 8.  Note 30.  Velocity 105
000152t:  Note on ::  Channel 8.  Note 30.  Velocity 0
000040t:  Note on ::  Channel 8.  Note 29.  Velocity 105
000152t:  Note on ::  Channel 8.  Note 29.  Velocity 0
000040t:  Note on ::  Channel 8.  Note 27.  Velocity 105
000152t:  Note on ::  Channel 8.  Note 27.  Velocity 0
000040t:  Program (patch) change ::  Channel 8.  Patch 34 (Electric Bass(pick))
000000t:  Note on ::  Channel 8.  Note 34.  Velocity 100
000000t:  Note on ::  Channel 8.  Note 46.  Velocity 105
000304t:  Note on ::  Channel 8.  Note 34.  Velocity 0
000001t:  Note on ::  Channel 8.  Note 46.  Velocity 0
000055t:  Note on ::  Channel 8.  Note 34.  Velocity 103
000137t:  Note on ::  Channel 8.  Note 34.  Velocity 0
000007t:  Note on ::  Channel 8.  Note 34.  Velocity 97
000017t:  Note on ::  Channel 8.  Note 34.  Velocity 0
000031t:  Note on ::  Channel 8.  Note 34.  Velocity 103
000176t:  Note on ::  Channel 8.  Note 34.  Velocity 0
000040t:  Note on ::  Channel 8.  Note 34.  Velocity 100
000000t:  Note on ::  Channel 8.  Note 46.  Velocity 105
000305t:  Note on ::  Channel 8.  Note 46.  Velocity 0
000000t:  Note on ::  Channel 8.  Note 34.  Velocity 0
000055t:  Note on ::  Channel 8.  Note 34.  Velocity 103
000137t:  Note on ::  Channel 8.  Note 34.  Velocity 0
000007t:  Note on ::  Channel 8.  Note 34.  Velocity 97
000017t:  Note on ::  Channel 8.  Note 34.  Velocity 0
000031t:  Note on ::  Channel 8.  Note 34.  Velocity 103
000176t:  Note on ::  Channel 8.  Note 34.  Velocity 0
000040t:  Note on ::  Channel 8.  Note 34.  Velocity 100
000000t:  Note on ::  Channel 8.  Note 46.  Velocity 105
000304t:  Note on ::  Channel 8.  Note 34.  Velocity 0
000001t:  Note on ::  Channel 8.  Note 46.  Velocity 0
000055t:  Note on ::  Channel 8.  Note 34.  Velocity 103
000137t:  Note on ::  Channel 8.  Note 34.  Velocity 0
000007t:  Note on ::  Channel 8.  Note 34.  Velocity 97
000017t:  Note on ::  Channel 8.  Note 34.  Velocity 0
000031t:  Note on ::  Channel 8.  Note 34.  Velocity 103
000176t:  Note on ::  Channel 8.  Note 34.  Velocity 0
000040t:  Note on ::  Channel 8.  Note 34.  Velocity 97
000000t:  Note on ::  Channel 8.  Note 46.  Velocity 97
000305t:  Note on ::  Channel 8.  Note 46.  Velocity 0
000000t:  Note on ::  Channel 8.  Note 34.  Velocity 0
000055t:  Program (patch) change ::  Channel 8.  Patch 34 (Electric Bass(pick))
000000t:  Note on ::  Channel 8.  Note 42.  Velocity 97
000041t:  Note on ::  Channel 8.  Note 42.  Velocity 0
000007t:  Note on ::  Channel 8.  Note 42.  Velocity 97
000017t:  Note on ::  Channel 8.  Note 42.  Velocity 0
000007t:  Note on ::  Channel 8.  Note 42.  Velocity 110
000017t:  Note on ::  Channel 8.  Note 42.  Velocity 0
000007t:  Note on ::  Channel 8.  Note 42.  Velocity 97
000017t:  Note on ::  Channel 8.  Note 42.  Velocity 0
000007t:  Note on ::  Channel 8.  Note 42.  Velocity 123
000017t:  Note on ::  Channel 8.  Note 42.  Velocity 0
000007t:  Note on ::  Channel 8.  Note 42.  Velocity 97
000017t:  Note on ::  Channel 8.  Note 42.  Velocity 0
000007t:  Note on ::  Channel 8.  Note 42.  Velocity 110
000017t:  Note on ::  Channel 8.  Note 42.  Velocity 0
000007t:  Note on ::  Channel 8.  Note 42.  Velocity 97
000017t:  Note on ::  Channel 8.  Note 42.  Velocity 0
000007t:  Control change ::  Channel 8.  Controller 11.  Value: 100
000000t:  Note on ::  Channel 8.  Note 42.  Velocity 123
000011t:  Control change ::  Channel 8.  Controller 11.  Value: 101
000006t:  Note on ::  Channel 8.  Note 42.  Velocity 0
000005t:  Control change ::  Channel 8.  Controller 11.  Value: 102
000002t:  Note on ::  Channel 8.  Note 42.  Velocity 97
000008t:  Control change ::  Channel 8.  Controller 11.  Value: 103
000009t:  Note on ::  Channel 8.  Note 42.  Velocity 0
000002t:  Control change ::  Channel 8.  Controller 11.  Value: 104
000005t:  Note on ::  Channel 8.  Note 42.  Velocity 110
000006t:  Control change ::  Channel 8.  Controller 11.  Value: 105
000010t:  Control change ::  Channel 8.  Controller 11.  Value: 106
000001t:  Note on ::  Channel 8.  Note 42.  Velocity 0
000007t:  Note on ::  Channel 8.  Note 42.  Velocity 97
000003t:  Control change ::  Channel 8.  Controller 11.  Value: 107
000011t:  Control change ::  Channel 8.  Controller 11.  Value: 108
000003t:  Note on ::  Channel 8.  Note 42.  Velocity 0
000007t:  Note on ::  Channel 8.  Note 42.  Velocity 123
000000t:  Control change ::  Channel 8.  Controller 11.  Value: 109
000011t:  Control change ::  Channel 8.  Controller 11.  Value: 110
000006t:  Note on ::  Channel 8.  Note 42.  Velocity 0
000005t:  Control change ::  Channel 8.  Controller 11.  Value: 111
000002t:  Note on ::  Channel 8.  Note 42.  Velocity 97
000008t:  Control change ::  Channel 8.  Controller 11.  Value: 112
000009t:  Note on ::  Channel 8.  Note 42.  Velocity 0
000002t:  Control change ::  Channel 8.  Controller 11.  Value: 113
000005t:  Note on ::  Channel 8.  Note 42.  Velocity 110
000006t:  Control change ::  Channel 8.  Controller 11.  Value: 114
000010t:  Control change ::  Channel 8.  Controller 11.  Value: 115
000001t:  Note on ::  Channel 8.  Note 42.  Velocity 0
000007t:  Note on ::  Channel 8.  Note 42.  Velocity 97
000003t:  Control change ::  Channel 8.  Controller 11.  Value: 116
000011t:  Control change ::  Channel 8.  Controller 11.  Value: 117
000003t:  Note on ::  Channel 8.  Note 42.  Velocity 0
000007t:  Note on ::  Channel 8.  Note 44.  Velocity 105
000000t:  Control change ::  Channel 8.  Controller 11.  Value: 118
000011t:  Program (patch) change ::  Channel 8.  Patch 33 (Electric Bass(finger))
000000t:  Control change ::  Channel 8.  Controller 11.  Value: 119
000010t:  Control change ::  Channel 8.  Controller 11.  Value: 120
000033t:  Note on ::  Channel 8.  Note 44.  Velocity 0
000018t:  Control change ::  Channel 8.  Controller 11.  Value: 120
000000t:  Note on ::  Channel 8.  Note 46.  Velocity 95
000021t:  Control change ::  Channel 8.  Controller 11.  Value: 119
000020t:  Control change ::  Channel 8.  Controller 11.  Value: 118
000013t:  Note on ::  Channel 8.  Note 46.  Velocity 0
000008t:  Control change ::  Channel 8.  Controller 11.  Value: 117
000010t:  Note on ::  Channel 8.  Note 42.  Velocity 100
000010t:  Control change ::  Channel 8.  Controller 11.  Value: 116
000020t:  Control change ::  Channel 8.  Controller 11.  Value: 115
000021t:  Control change ::  Channel 8.  Controller 11.  Value: 114
000003t:  Note on ::  Channel 8.  Note 42.  Velocity 0
000017t:  Control change ::  Channel 8.  Controller 11.  Value: 113
000001t:  Note on ::  Channel 8.  Note 44.  Velocity 95
000019t:  Control change ::  Channel 8.  Controller 11.  Value: 112
000017t:  Note on ::  Channel 8.  Note 44.  Velocity 0
000004t:  Control change ::  Channel 8.  Controller 11.  Value: 111
000008t:  Note on ::  Channel 8.  Note 37.  Velocity 95
000012t:  Control change ::  Channel 8.  Controller 11.  Value: 110
000005t:  Note on ::  Channel 8.  Note 37.  Velocity 0
000007t:  Note on ::  Channel 8.  Note 37.  Velocity 110
000008t:  Control change ::  Channel 8.  Controller 11.  Value: 109
000021t:  Control change ::  Channel 8.  Controller 11.  Value: 108
000020t:  Control change ::  Channel 8.  Controller 11.  Value: 107
000020t:  Control change ::  Channel 8.  Controller 11.  Value: 106
000021t:  Control change ::  Channel 8.  Controller 11.  Value: 105
000020t:  Control change ::  Channel 8.  Controller 11.  Value: 104
000020t:  Control change ::  Channel 8.  Controller 11.  Value: 103
000021t:  Control change ::  Channel 8.  Controller 11.  Value: 102
000001t:  Note on ::  Channel 8.  Note 37.  Velocity 0
000019t:  Control change ::  Channel 8.  Controller 11.  Value: 101
000020t:  Control change ::  Channel 8.  Controller 11.  Value: 100
000001t:  Note on ::  Channel 8.  Note 44.  Velocity 105
000054t:  Note on ::  Channel 8.  Note 44.  Velocity 0
000018t:  Note on ::  Channel 8.  Note 46.  Velocity 95
000054t:  Note on ::  Channel 8.  Note 46.  Velocity 0
000018t:  Note on ::  Channel 8.  Note 42.  Velocity 100
000054t:  Note on ::  Channel 8.  Note 42.  Velocity 0
000018t:  Note on ::  Channel 8.  Note 44.  Velocity 95
000036t:  Note on ::  Channel 8.  Note 44.  Velocity 0
000012t:  Note on ::  Channel 8.  Note 37.  Velocity 95
000017t:  Note on ::  Channel 8.  Note 37.  Velocity 0
000007t:  Note on ::  Channel 8.  Note 37.  Velocity 110
000152t:  Note on ::  Channel 8.  Note 37.  Velocity 0
000040t:  Note on ::  Channel 8.  Note 44.  Velocity 105
000054t:  Note on ::  Channel 8.  Note 44.  Velocity 0
000018t:  Note on ::  Channel 8.  Note 46.  Velocity 95
000054t:  Note on ::  Channel 8.  Note 46.  Velocity 0
000018t:  Note on ::  Channel 8.  Note 42.  Velocity 100
000054t:  Note on ::  Channel 8.  Note 42.  Velocity 0
000018t:  Note on ::  Channel 8.  Note 44.  Velocity 95
000036t:  Note on ::  Channel 8.  Note 44.  Velocity 0
000012t:  Note on ::  Channel 8.  Note 37.  Velocity 95
000017t:  Note on ::  Channel 8.  Note 37.  Velocity 0
000007t:  Note on ::  Channel 8.  Note 37.  Velocity 110
000152t:  Note on ::  Channel 8.  Note 37.  Velocity 0
000040t:  Note on ::  Channel 8.  Note 44.  Velocity 105
000054t:  Note on ::  Channel 8.  Note 44.  Velocity 0
000018t:  Note on ::  Channel 8.  Note 46.  Velocity 95
000054t:  Note on ::  Channel 8.  Note 46.  Velocity 0
000018t:  Note on ::  Channel 8.  Note 42.  Velocity 100
000054t:  Note on ::  Channel 8.  Note 42.  Velocity 0
000018t:  Note on ::  Channel 8.  Note 41.  Velocity 95
000036t:  Note on ::  Channel 8.  Note 41.  Velocity 0
000012t:  Note on ::  Channel 8.  Note 42.  Velocity 95
000017t:  Note on ::  Channel 8.  Note 42.  Velocity 0
000007t:  Note on ::  Channel 8.  Note 42.  Velocity 110
000344t:  Note on ::  Channel 8.  Note 42.  Velocity 0
000040t:  Note on ::  Channel 8.  Note 37.  Velocity 105
000073t:  Note on ::  Channel 8.  Note 37.  Velocity 0
000023t:  Note on ::  Channel 8.  Note 32.  Velocity 103
000073t:  Note on ::  Channel 8.  Note 32.  Velocity 0
000023t:  Note on ::  Channel 8.  Note 30.  Velocity 105
000073t:  Note on ::  Channel 8.  Note 30.  Velocity 0
000023t:  Note on ::  Channel 8.  Note 32.  Velocity 103
000073t:  Note on ::  Channel 8.  Note 32.  Velocity 0
000023t:  Note on ::  Channel 8.  Note 37.  Velocity 105
000073t:  Note on ::  Channel 8.  Note 37.  Velocity 0
000023t:  Note on ::  Channel 8.  Note 32.  Velocity 103
000073t:  Note on ::  Channel 8.  Note 32.  Velocity 0
000023t:  Note on ::  Channel 8.  Note 34.  Velocity 105
000073t:  Note on ::  Channel 8.  Note 34.  Velocity 0
000023t:  Note on ::  Channel 8.  Note 30.  Velocity 100
000054t:  Note on ::  Channel 8.  Note 30.  Velocity 0
000018t:  Note on ::  Channel 8.  Note 32.  Velocity 95
000017t:  Note on ::  Channel 8.  Note 32.  Velocity 0
000007t:  Note on ::  Channel 8.  Note 37.  Velocity 105
000073t:  Note on ::  Channel 8.  Note 37.  Velocity 0
000023t:  Note on ::  Channel 8.  Note 36.  Velocity 103
000073t:  Note on ::  Channel 8.  Note 36.  Velocity 0
000023t:  Note on ::  Channel 8.  Note 34.  Velocity 105
000073t:  Note on ::  Channel 8.  Note 34.  Velocity 0
000023t:  Note on ::  Channel 8.  Note 27.  Velocity 100
000017t:  Note on ::  Channel 8.  Note 27.  Velocity 0
000007t:  Note on ::  Channel 8.  Note 29.  Velocity 95
000017t:  Note on ::  Channel 8.  Note 29.  Velocity 0
000007t:  Note on ::  Channel 8.  Note 30.  Velocity 97
000017t:  Note on ::  Channel 8.  Note 30.  Velocity 0
000007t:  Note on ::  Channel 8.  Note 27.  Velocity 95
000017t:  Note on ::  Channel 8.  Note 27.  Velocity 0
000007t:  Note on ::  Channel 8.  Note 32.  Velocity 105
000054t:  Note on ::  Channel 8.  Note 32.  Velocity 0
000018t:  Note on ::  Channel 8.  Note 32.  Velocity 95
000017t:  Note on ::  Channel 8.  Note 32.  Velocity 0
000007t:  Note on ::  Channel 8.  Note 32.  Velocity 100
000073t:  Note on ::  Channel 8.  Note 32.  Velocity 0
000023t:  Note on ::  Channel 8.  Note 32.  Velocity 105
000073t:  Note on ::  Channel 8.  Note 32.  Velocity 0
000023t:  Note on ::  Channel 8.  Note 32.  Velocity 103
000073t:  Note on ::  Channel 8.  Note 32.  Velocity 0
000023t:  Note on ::  Channel 8.  Note 37.  Velocity 105
000073t:  Note on ::  Channel 8.  Note 37.  Velocity 0
000023t:  Note on ::  Channel 8.  Note 32.  Velocity 103
000073t:  Note on ::  Channel 8.  Note 32.  Velocity 0
000023t:  Note on ::  Channel 8.  Note 30.  Velocity 105
000073t:  Note on ::  Channel 8.  Note 30.  Velocity 0
000023t:  Note on ::  Channel 8.  Note 32.  Velocity 103
000073t:  Note on ::  Channel 8.  Note 32.  Velocity 0
000023t:  Note on ::  Channel 8.  Note 37.  Velocity 105
000073t:  Note on ::  Channel 8.  Note 37.  Velocity 0
000023t:  Note on ::  Channel 8.  Note 32.  Velocity 103
000073t:  Note on ::  Channel 8.  Note 32.  Velocity 0
000023t:  Note on ::  Channel 8.  Note 34.  Velocity 105
000073t:  Note on ::  Channel 8.  Note 34.  Velocity 0
000023t:  Note on ::  Channel 8.  Note 30.  Velocity 100
000054t:  Note on ::  Channel 8.  Note 30.  Velocity 0
000018t:  Note on ::  Channel 8.  Note 32.  Velocity 95
000017t:  Note on ::  Channel 8.  Note 32.  Velocity 0
000007t:  Note on ::  Channel 8.  Note 37.  Velocity 105
000073t:  Note on ::  Channel 8.  Note 37.  Velocity 0
000023t:  Note on ::  Channel 8.  Note 36.  Velocity 103
000073t:  Note on ::  Channel 8.  Note 36.  Velocity 0
000023t:  Note on ::  Channel 8.  Note 34.  Velocity 105
000073t:  Note on ::  Channel 8.  Note 34.  Velocity 0
000023t:  Note on ::  Channel 8.  Note 27.  Velocity 100
000017t:  Note on ::  Channel 8.  Note 27.  Velocity 0
000007t:  Note on ::  Channel 8.  Note 29.  Velocity 95
000017t:  Note on ::  Channel 8.  Note 29.  Velocity 0
000007t:  Note on ::  Channel 8.  Note 30.  Velocity 97
000017t:  Note on ::  Channel 8.  Note 30.  Velocity 0
000007t:  Note on ::  Channel 8.  Note 27.  Velocity 95
000017t:  Note on ::  Channel 8.  Note 27.  Velocity 0
000007t:  Note on ::  Channel 8.  Note 32.  Velocity 105
000054t:  Note on ::  Channel 8.  Note 32.  Velocity 0
000018t:  Note on ::  Channel 8.  Note 32.  Velocity 97
000097t:  Note on ::  Channel 8.  Note 32.  Velocity 0
000023t:  Note on ::  Channel 8.  Note 30.  Velocity 108
000152t:  Note on ::  Channel 8.  Note 30.  Velocity 0
000040t:  Note on ::  Channel 8.  Note 27.  Velocity 105
000054t:  Note on ::  Channel 8.  Note 27.  Velocity 0
000018t:  Note on ::  Channel 8.  Note 27.  Velocity 97
000097t:  Note on ::  Channel 8.  Note 27.  Velocity 0
000023t:  Note on ::  Channel 8.  Note 27.  Velocity 108
000152t:  Note on ::  Channel 8.  Note 27.  Velocity 0
000064t:  Note on ::  Channel 8.  Note 41.  Velocity 97
000017t:  Note on ::  Channel 8.  Note 41.  Velocity 0
000007t:  Note on ::  Channel 8.  Note 39.  Velocity 100
000017t:  Note on ::  Channel 8.  Note 39.  Velocity 0
000007t:  Note on ::  Channel 8.  Note 37.  Velocity 97
000017t:  Note on ::  Channel 8.  Note 37.  Velocity 0
000007t:  Note on ::  Channel 8.  Note 36.  Velocity 103
000017t:  Note on ::  Channel 8.  Note 36.  Velocity 0
000007t:  Note on ::  Channel 8.  Note 34.  Velocity 100
000017t:  Note on ::  Channel 8.  Note 34.  Velocity 0
000007t:  Note on ::  Channel 8.  Note 32.  Velocity 105
000036t:  Note on ::  Channel 8.  Note 32.  Velocity 0
000012t:  Note on ::  Channel 8.  Note 37.  Velocity 105
000054t:  Note on ::  Channel 8.  Note 37.  Velocity 0
000018t:  Note on ::  Channel 8.  Note 37.  Velocity 95
000017t:  Note on ::  Channel 8.  Note 37.  Velocity 0
000007t:  Note on ::  Channel 8.  Note 32.  Velocity 100
000036t:  Note on ::  Channel 8.  Note 32.  Velocity 0
000012t:  Note on ::  Channel 8.  Note 32.  Velocity 97
000036t:  Note on ::  Channel 8.  Note 32.  Velocity 0
000012t:  Note on ::  Channel 8.  Note 30.  Velocity 105
000054t:  Note on ::  Channel 8.  Note 30.  Velocity 0
000018t:  Note on ::  Channel 8.  Note 30.  Velocity 95
000017t:  Note on ::  Channel 8.  Note 30.  Velocity 0
000007t:  Note on ::  Channel 8.  Note 32.  Velocity 100
000036t:  Note on ::  Channel 8.  Note 32.  Velocity 0
000012t:  Note on ::  Channel 8.  Note 32.  Velocity 97
000036t:  Note on ::  Channel 8.  Note 32.  Velocity 0
000012t:  Note on ::  Channel 8.  Note 37.  Velocity 105
000054t:  Note on ::  Channel 8.  Note 37.  Velocity 0
000018t:  Note on ::  Channel 8.  Note 37.  Velocity 95
000017t:  Note on ::  Channel 8.  Note 37.  Velocity 0
000007t:  Note on ::  Channel 8.  Note 32.  Velocity 100
000036t:  Note on ::  Channel 8.  Note 32.  Velocity 0
000012t:  Note on ::  Channel 8.  Note 32.  Velocity 97
000036t:  Note on ::  Channel 8.  Note 32.  Velocity 0
000012t:  Note on ::  Channel 8.  Note 34.  Velocity 105
000054t:  Note on ::  Channel 8.  Note 34.  Velocity 0
000018t:  Note on ::  Channel 8.  Note 34.  Velocity 95
000017t:  Note on ::  Channel 8.  Note 34.  Velocity 0
000007t:  Note on ::  Channel 8.  Note 30.  Velocity 100
000036t:  Note on ::  Channel 8.  Note 30.  Velocity 0
000012t:  Note on ::  Channel 8.  Note 30.  Velocity 97
000036t:  Note on ::  Channel 8.  Note 30.  Velocity 0
000012t:  Note on ::  Channel 8.  Note 37.  Velocity 105
000054t:  Note on ::  Channel 8.  Note 37.  Velocity 0
000018t:  Note on ::  Channel 8.  Note 37.  Velocity 95
000017t:  Note on ::  Channel 8.  Note 37.  Velocity 0
000007t:  Note on ::  Channel 8.  Note 36.  Velocity 103
000073t:  Note on ::  Channel 8.  Note 36.  Velocity 0
000023t:  Note on ::  Channel 8.  Note 34.  Velocity 105
000054t:  Note on ::  Channel 8.  Note 34.  Velocity 0
000018t:  Note on ::  Channel 8.  Note 34.  Velocity 95
000017t:  Note on ::  Channel 8.  Note 34.  Velocity 0
000007t:  Note on ::  Channel 8.  Note 27.  Velocity 103
000017t:  Note on ::  Channel 8.  Note 27.  Velocity 0
000007t:  Note on ::  Channel 8.  Note 29.  Velocity 95
000017t:  Note on ::  Channel 8.  Note 29.  Velocity 0
000007t:  Note on ::  Channel 8.  Note 30.  Velocity 100
000017t:  Note on ::  Channel 8.  Note 30.  Velocity 0
000007t:  Note on ::  Channel 8.  Note 27.  Velocity 95
000017t:  Note on ::  Channel 8.  Note 27.  Velocity 0
000007t:  Note on ::  Channel 8.  Note 32.  Velocity 105
000054t:  Note on ::  Channel 8.  Note 32.  Velocity 0
000018t:  Note on ::  Channel 8.  Note 32.  Velocity 95
000017t:  Note on ::  Channel 8.  Note 32.  Velocity 0
000007t:  Note on ::  Channel 8.  Note 32.  Velocity 100
000073t:  Note on ::  Channel 8.  Note 32.  Velocity 0
000023t:  Note on ::  Channel 8.  Note 32.  Velocity 105
000054t:  Note on ::  Channel 8.  Note 32.  Velocity 0
000018t:  Note on ::  Channel 8.  Note 32.  Velocity 95
000017t:  Note on ::  Channel 8.  Note 32.  Velocity 0
000007t:  Note on ::  Channel 8.  Note 32.  Velocity 100
000073t:  Note on ::  Channel 8.  Note 32.  Velocity 0
000023t:  Note on ::  Channel 8.  Note 37.  Velocity 104
000054t:  Note on ::  Channel 8.  Note 37.  Velocity 0
000018t:  Note on ::  Channel 8.  Note 37.  Velocity 95
000017t:  Note on ::  Channel 8.  Note 37.  Velocity 0
000007t:  Note on ::  Channel 8.  Note 32.  Velocity 100
000054t:  Note on ::  Channel 8.  Note 32.  Velocity 0
000018t:  Note on ::  Channel 8.  Note 32.  Velocity 95
000017t:  Note on ::  Channel 8.  Note 32.  Velocity 0
000007t:  Note on ::  Channel 8.  Note 30.  Velocity 105
000054t:  Note on ::  Channel 8.  Note 30.  Velocity 0
000018t:  Note on ::  Channel 8.  Note 30.  Velocity 95
000017t:  Note on ::  Channel 8.  Note 30.  Velocity 0
000007t:  Note on ::  Channel 8.  Note 32.  Velocity 100
000036t:  Note on ::  Channel 8.  Note 32.  Velocity 0
000012t:  Note on ::  Channel 8.  Note 32.  Velocity 95
000036t:  Note on ::  Channel 8.  Note 32.  Velocity 0
000012t:  Note on ::  Channel 8.  Note 37.  Velocity 105
000054t:  Note on ::  Channel 8.  Note 37.  Velocity 0
000018t:  Note on ::  Channel 8.  Note 37.  Velocity 95
000017t:  Note on ::  Channel 8.  Note 37.  Velocity 0
000007t:  Note on ::  Channel 8.  Note 32.  Velocity 100
000054t:  Note on ::  Channel 8.  Note 32.  Velocity 0
000018t:  Note on ::  Channel 8.  Note 32.  Velocity 95
000017t:  Note on ::  Channel 8.  Note 32.  Velocity 0
000007t:  Note on ::  Channel 8.  Note 34.  Velocity 105
000054t:  Note on ::  Channel 8.  Note 34.  Velocity 0
000018t:  Note on ::  Channel 8.  Note 34.  Velocity 95
000017t:  Note on ::  Channel 8.  Note 34.  Velocity 0
000007t:  Note on ::  Channel 8.  Note 30.  Velocity 100
000054t:  Note on ::  Channel 8.  Note 30.  Velocity 0
000018t:  Note on ::  Channel 8.  Note 30.  Velocity 95
000017t:  Note on ::  Channel 8.  Note 30.  Velocity 0
000007t:  Note on ::  Channel 8.  Note 37.  Velocity 105
000054t:  Note on ::  Channel 8.  Note 37.  Velocity 0
000018t:  Note on ::  Channel 8.  Note 37.  Velocity 95
000017t:  Note on ::  Channel 8.  Note 37.  Velocity 0
000007t:  Note on ::  Channel 8.  Note 36.  Velocity 103
000073t:  Note on ::  Channel 8.  Note 36.  Velocity 0
000023t:  Note on ::  Channel 8.  Note 34.  Velocity 105
000054t:  Note on ::  Channel 8.  Note 34.  Velocity 0
000018t:  Note on ::  Channel 8.  Note 34.  Velocity 95
000017t:  Note on ::  Channel 8.  Note 34.  Velocity 0
000007t:  Note on ::  Channel 8.  Note 27.  Velocity 100
000017t:  Note on ::  Channel 8.  Note 27.  Velocity 0
000007t:  Note on ::  Channel 8.  Note 29.  Velocity 95
000017t:  Note on ::  Channel 8.  Note 29.  Velocity 0
000007t:  Note on ::  Channel 8.  Note 30.  Velocity 97
000017t:  Note on ::  Channel 8.  Note 30.  Velocity 0
000007t:  Note on ::  Channel 8.  Note 27.  Velocity 95
000017t:  Note on ::  Channel 8.  Note 27.  Velocity 0
000007t:  Note on ::  Channel 8.  Note 32.  Velocity 105
000073t:  Note on ::  Channel 8.  Note 32.  Velocity 0
000023t:  Note on ::  Channel 8.  Note 32.  Velocity 103
000073t:  Note on ::  Channel 8.  Note 32.  Velocity 0
000023t:  Note on ::  Channel 8.  Note 32.  Velocity 105
000073t:  Note on ::  Channel 8.  Note 32.  Velocity 0
000023t:  Note on ::  Channel 8.  Note 32.  Velocity 100
000073t:  Note on ::  Channel 8.  Note 32.  Velocity 0
000023t:  Note on ::  Channel 8.  Note 37.  Velocity 105
000054t:  Note on ::  Channel 8.  Note 37.  Velocity 0
000018t:  Note on ::  Channel 8.  Note 37.  Velocity 95
000017t:  Note on ::  Channel 8.  Note 37.  Velocity 0
000007t:  Note on ::  Channel 8.  Note 32.  Velocity 103
000073t:  Note on ::  Channel 8.  Note 32.  Velocity 0
000023t:  Note on ::  Channel 8.  Note 30.  Velocity 105
000054t:  Note on ::  Channel 8.  Note 30.  Velocity 0
000018t:  Note on ::  Channel 8.  Note 30.  Velocity 95
000017t:  Note on ::  Channel 8.  Note 30.  Velocity 0
000007t:  Note on ::  Channel 8.  Note 32.  Velocity 103
000073t:  Note on ::  Channel 8.  Note 32.  Velocity 0
000023t:  Note on ::  Channel 8.  Note 37.  Velocity 105
000054t:  Note on ::  Channel 8.  Note 37.  Velocity 0
000018t:  Note on ::  Channel 8.  Note 37.  Velocity 95
000017t:  Note on ::  Channel 8.  Note 37.  Velocity 0
000007t:  Note on ::  Channel 8.  Note 32.  Velocity 103
000073t:  Note on ::  Channel 8.  Note 32.  Velocity 0
000023t:  Note on ::  Channel 8.  Note 34.  Velocity 105
000054t:  Note on ::  Channel 8.  Note 34.  Velocity 0
000018t:  Note on ::  Channel 8.  Note 34.  Velocity 95
000017t:  Note on ::  Channel 8.  Note 34.  Velocity 0
000007t:  Note on ::  Channel 8.  Note 30.  Velocity 103
000073t:  Note on ::  Channel 8.  Note 30.  Velocity 0
000019t:  Control change ::  Channel 8.  Controller 7.  Value: 125
000004t:  Control change ::  Channel 8.  Controller 7.  Value: 125
000000t:  Note on ::  Channel 8.  Note 37.  Velocity 105
000011t:  Control change ::  Channel 8.  Controller 7.  Value: 124
000011t:  Control change ::  Channel 8.  Controller 7.  Value: 123
000011t:  Control change ::  Channel 8.  Controller 7.  Value: 122
000010t:  Control change ::  Channel 8.  Controller 7.  Value: 121
000011t:  Note on ::  Channel 8.  Note 37.  Velocity 0
000000t:  Control change ::  Channel 8.  Controller 7.  Value: 120
000011t:  Control change ::  Channel 8.  Controller 7.  Value: 119
000007t:  Note on ::  Channel 8.  Note 37.  Velocity 95
000004t:  Control change ::  Channel 8.  Controller 7.  Value: 118
000010t:  Control change ::  Channel 8.  Controller 7.  Value: 117
000003t:  Note on ::  Channel 8.  Note 37.  Velocity 0
000007t:  Note on ::  Channel 8.  Note 36.  Velocity 103
000001t:  Control change ::  Channel 8.  Controller 7.  Value: 116
000011t:  Control change ::  Channel 8.  Controller 7.  Value: 115
000011t:  Control change ::  Channel 8.  Controller 7.  Value: 114
000010t:  Control change ::  Channel 8.  Controller 7.  Value: 113
000011t:  Control change ::  Channel 8.  Controller 7.  Value: 112
000011t:  Control change ::  Channel 8.  Controller 7.  Value: 111
000011t:  Control change ::  Channel 8.  Controller 7.  Value: 110
000007t:  Note on ::  Channel 8.  Note 36.  Velocity 0
000003t:  Control change ::  Channel 8.  Controller 7.  Value: 109
000011t:  Control change ::  Channel 8.  Controller 7.  Value: 108
000009t:  Note on ::  Channel 8.  Note 34.  Velocity 105
000002t:  Control change ::  Channel 8.  Controller 7.  Value: 107
000011t:  Control change ::  Channel 8.  Controller 7.  Value: 106
000010t:  Control change ::  Channel 8.  Controller 7.  Value: 105
000011t:  Control change ::  Channel 8.  Controller 7.  Value: 104
000011t:  Control change ::  Channel 8.  Controller 7.  Value: 103
000009t:  Note on ::  Channel 8.  Note 34.  Velocity 0
000002t:  Control change ::  Channel 8.  Controller 7.  Value: 102
000010t:  Control change ::  Channel 8.  Controller 7.  Value: 101
000006t:  Note on ::  Channel 8.  Note 34.  Velocity 95
000005t:  Control change ::  Channel 8.  Controller 7.  Value: 100
000011t:  Control change ::  Channel 8.  Controller 7.  Value: 99
000001t:  Note on ::  Channel 8.  Note 34.  Velocity 0
000007t:  Note on ::  Channel 8.  Note 27.  Velocity 100
000003t:  Control change ::  Channel 8.  Controller 7.  Value: 98
000010t:  Control change ::  Channel 8.  Controller 7.  Value: 97
000004t:  Note on ::  Channel 8.  Note 27.  Velocity 0
000007t:  Note on ::  Channel 8.  Note 29.  Velocity 95
000000t:  Control change ::  Channel 8.  Controller 7.  Value: 96
000011t:  Control change ::  Channel 8.  Controller 7.  Value: 95
000006t:  Note on ::  Channel 8.  Note 29.  Velocity 0
000005t:  Control change ::  Channel 8.  Controller 7.  Value: 94
000002t:  Note on ::  Channel 8.  Note 30.  Velocity 97
000008t:  Control change ::  Channel 8.  Controller 7.  Value: 93
000009t:  Note on ::  Channel 8.  Note 30.  Velocity 0
000002t:  Control change ::  Channel 8.  Controller 7.  Value: 92
000005t:  Note on ::  Channel 8.  Note 27.  Velocity 95
000006t:  Control change ::  Channel 8.  Controller 7.  Value: 91
000011t:  Note on ::  Channel 8.  Note 27.  Velocity 0
000000t:  Control change ::  Channel 8.  Controller 7.  Value: 90
000007t:  Note on ::  Channel 8.  Note 32.  Velocity 105
000003t:  Control change ::  Channel 8.  Controller 7.  Value: 89
000011t:  Control change ::  Channel 8.  Controller 7.  Value: 88
000011t:  Control change ::  Channel 8.  Controller 7.  Value: 87
000011t:  Control change ::  Channel 8.  Controller 7.  Value: 86
000010t:  Control change ::  Channel 8.  Controller 7.  Value: 85
000008t:  Note on ::  Channel 8.  Note 32.  Velocity 0
000003t:  Control change ::  Channel 8.  Controller 7.  Value: 84
000011t:  Control change ::  Channel 8.  Controller 7.  Value: 83
000004t:  Note on ::  Channel 8.  Note 32.  Velocity 95
000006t:  Control change ::  Channel 8.  Controller 7.  Value: 82
000011t:  Note on ::  Channel 8.  Note 32.  Velocity 0
000000t:  Control change ::  Channel 8.  Controller 7.  Value: 81
000007t:  Note on ::  Channel 8.  Note 32.  Velocity 103
000004t:  Control change ::  Channel 8.  Controller 7.  Value: 80
000011t:  Control change ::  Channel 8.  Controller 7.  Value: 79
000010t:  Control change ::  Channel 8.  Controller 7.  Value: 78
000011t:  Control change ::  Channel 8.  Controller 7.  Value: 77
000011t:  Control change ::  Channel 8.  Controller 7.  Value: 76
000011t:  Control change ::  Channel 8.  Controller 7.  Value: 75
000010t:  Control change ::  Channel 8.  Controller 7.  Value: 74
000005t:  Note on ::  Channel 8.  Note 32.  Velocity 0
000006t:  Control change ::  Channel 8.  Controller 7.  Value: 73
000011t:  Control change ::  Channel 8.  Controller 7.  Value: 72
000006t:  Note on ::  Channel 8.  Note 32.  Velocity 105
000005t:  Control change ::  Channel 8.  Controller 7.  Value: 71
000010t:  Control change ::  Channel 8.  Controller 7.  Value: 70
000011t:  Control change ::  Channel 8.  Controller 7.  Value: 69
000011t:  Control change ::  Channel 8.  Controller 7.  Value: 68
000011t:  Control change ::  Channel 8.  Controller 7.  Value: 67
000006t:  Note on ::  Channel 8.  Note 32.  Velocity 0
000004t:  Control change ::  Channel 8.  Controller 7.  Value: 66
000011t:  Control change ::  Channel 8.  Controller 7.  Value: 65
000003t:  Note on ::  Channel 8.  Note 32.  Velocity 95
000008t:  Control change ::  Channel 8.  Controller 7.  Value: 64
000009t:  Note on ::  Channel 8.  Note 32.  Velocity 0
000002t:  Control change ::  Channel 8.  Controller 7.  Value: 63
000005t:  Note on ::  Channel 8.  Note 32.  Velocity 103
000005t:  Control change ::  Channel 8.  Controller 7.  Value: 62
000011t:  Control change ::  Channel 8.  Controller 7.  Value: 61
000011t:  Control change ::  Channel 8.  Controller 7.  Value: 60
000011t:  Control change ::  Channel 8.  Controller 7.  Value: 59
000010t:  Control change ::  Channel 8.  Controller 7.  Value: 58
000011t:  Control change ::  Channel 8.  Controller 7.  Value: 57
000011t:  Control change ::  Channel 8.  Controller 7.  Value: 56
000003t:  Note on ::  Channel 8.  Note 32.  Velocity 0
000008t:  Control change ::  Channel 8.  Controller 7.  Value: 55
000010t:  Control change ::  Channel 8.  Controller 7.  Value: 54
000005t:  Note on ::  Channel 8.  Note 37.  Velocity 105
000006t:  Control change ::  Channel 8.  Controller 7.  Value: 53
000011t:  Control change ::  Channel 8.  Controller 7.  Value: 52
000011t:  Control change ::  Channel 8.  Controller 7.  Value: 51
000010t:  Control change ::  Channel 8.  Controller 7.  Value: 50
000011t:  Control change ::  Channel 8.  Controller 7.  Value: 49
000005t:  Note on ::  Channel 8.  Note 37.  Velocity 0
000006t:  Control change ::  Channel 8.  Controller 7.  Value: 48
000011t:  Control change ::  Channel 8.  Controller 7.  Value: 47
000001t:  Note on ::  Channel 8.  Note 37.  Velocity 95
000009t:  Control change ::  Channel 8.  Controller 7.  Value: 46
000008t:  Note on ::  Channel 8.  Note 37.  Velocity 0
000003t:  Control change ::  Channel 8.  Controller 7.  Value: 45
000004t:  Note on ::  Channel 8.  Note 32.  Velocity 103
000007t:  Control change ::  Channel 8.  Controller 7.  Value: 44
000011t:  Control change ::  Channel 8.  Controller 7.  Value: 43
000010t:  Control change ::  Channel 8.  Controller 7.  Value: 42
000011t:  Control change ::  Channel 8.  Controller 7.  Value: 41
000011t:  Control change ::  Channel 8.  Controller 7.  Value: 40
000010t:  Control change ::  Channel 8.  Controller 7.  Value: 39
000011t:  Control change ::  Channel 8.  Controller 7.  Value: 38
000002t:  Note on ::  Channel 8.  Note 32.  Velocity 0
000009t:  Control change ::  Channel 8.  Controller 7.  Value: 37
000011t:  Control change ::  Channel 8.  Controller 7.  Value: 36
000003t:  Note on ::  Channel 8.  Note 30.  Velocity 105
000007t:  Control change ::  Channel 8.  Controller 7.  Value: 35
000011t:  Control change ::  Channel 8.  Controller 7.  Value: 34
000011t:  Control change ::  Channel 8.  Controller 7.  Value: 33
000011t:  Control change ::  Channel 8.  Controller 7.  Value: 32
000010t:  Control change ::  Channel 8.  Controller 7.  Value: 31
000004t:  Note on ::  Channel 8.  Note 30.  Velocity 0
000007t:  Control change ::  Channel 8.  Controller 7.  Value: 30
000011t:  Note on ::  Channel 8.  Note 30.  Velocity 95
000000t:  Control change ::  Channel 8.  Controller 7.  Value: 29
000011t:  Control change ::  Channel 8.  Controller 7.  Value: 28
000006t:  Note on ::  Channel 8.  Note 30.  Velocity 0
000004t:  Control change ::  Channel 8.  Controller 7.  Value: 27
000003t:  Note on ::  Channel 8.  Note 32.  Velocity 103
000008t:  Control change ::  Channel 8.  Controller 7.  Value: 26
000011t:  Control change ::  Channel 8.  Controller 7.  Value: 25
000011t:  Control change ::  Channel 8.  Controller 7.  Value: 24
000010t:  Control change ::  Channel 8.  Controller 7.  Value: 23
000011t:  Control change ::  Channel 8.  Controller 7.  Value: 22
000011t:  Control change ::  Channel 8.  Controller 7.  Value: 21
000011t:  Note on ::  Channel 8.  Note 32.  Velocity 0
000000t:  Control change ::  Channel 8.  Controller 7.  Value: 20
000010t:  Control change ::  Channel 8.  Controller 7.  Value: 19
000011t:  Control change ::  Channel 8.  Controller 7.  Value: 18
000002t:  Note on ::  Channel 8.  Note 37.  Velocity 105
000009t:  Control change ::  Channel 8.  Controller 7.  Value: 17
000011t:  Control change ::  Channel 8.  Controller 7.  Value: 16
000010t:  Control change ::  Channel 8.  Controller 7.  Value: 15
000011t:  Control change ::  Channel 8.  Controller 7.  Value: 14
000011t:  Control change ::  Channel 8.  Controller 7.  Value: 13
000002t:  Note on ::  Channel 8.  Note 37.  Velocity 0
000009t:  Control change ::  Channel 8.  Controller 7.  Value: 12
000009t:  Note on ::  Channel 8.  Note 37.  Velocity 95
000001t:  Control change ::  Channel 8.  Controller 7.  Value: 11
000011t:  Control change ::  Channel 8.  Controller 7.  Value: 10
000005t:  Note on ::  Channel 8.  Note 37.  Velocity 0
000006t:  Control change ::  Channel 8.  Controller 7.  Value: 9
000001t:  Note on ::  Channel 8.  Note 32.  Velocity 103
000010t:  Control change ::  Channel 8.  Controller 7.  Value: 8
000010t:  Control change ::  Channel 8.  Controller 7.  Value: 7
000011t:  Control change ::  Channel 8.  Controller 7.  Value: 6
000011t:  Control change ::  Channel 8.  Controller 7.  Value: 5
000011t:  Control change ::  Channel 8.  Controller 7.  Value: 4
000010t:  Control change ::  Channel 8.  Controller 7.  Value: 3
000010t:  Note on ::  Channel 8.  Note 32.  Velocity 0
000001t:  Control change ::  Channel 8.  Controller 7.  Value: 2
000011t:  Control change ::  Channel 8.  Controller 7.  Value: 1
000010t:  Control change ::  Channel 8.  Controller 7.  Value: 0
000000t:  Meta-event type $2f (End-track event) of length 0
Sigma t = 24911

Track chunk of 8789 bytes
000000t:  Meta-event type $21 (?) of length 1
	  _
000000t:  Program (patch) change ::  Channel 9.  Patch 17 (Percussive Organ)
000000t:  Control change ::  Channel 9.  Controller 7.  Value: 105
000012t:  Meta-event type $21 (?) of length 1
	  _
000000t:  Sysex type f0 of length 9
000000t:  Meta-event type $21 (?) of length 1
	  _
000002t:  Meta-event type $21 (?) of length 1
	  _
000000t:  Sysex type f0 of length 9
000000t:  Meta-event type $21 (?) of length 1
	  _
000002t:  Meta-event type $21 (?) of length 1
	  _
000000t:  Sysex type f0 of length 9
000000t:  Meta-event type $21 (?) of length 1
	  _
000002t:  Control change ::  Channel 9.  Controller 91.  Value: 40
000000t:  Meta-event type $21 (?) of length 1
	  _
000000t:  Sysex type f0 of length 9
000000t:  Meta-event type $21 (?) of length 1
	  _
000002t:  Meta-event type $21 (?) of length 1
	  _
000000t:  Sysex type f0 of length 9
000000t:  Meta-event type $21 (?) of length 1
	  _
000002t:  Meta-event type $21 (?) of length 1
	  _
000000t:  Sysex type f0 of length 9
000000t:  Meta-event type $21 (?) of length 1
	  _
000002t:  Meta-event type $21 (?) of length 1
	  _
000000t:  Sysex type f0 of length 9
000000t:  Meta-event type $21 (?) of length 1
	  _
000038t:  Meta-event type $21 (?) of length 1
	  _
000000t:  Sysex type f0 of length 32
000000t:  Meta-event type $21 (?) of length 1
	  _
000010t:  Control change ::  Channel 9.  Controller 11.  Value: 100
000005t:  Pitch wheel change ::  Channel 9.   -8192
000331t:  Note on ::  Channel 9.  Note 36.  Velocity 82
000000t:  Note on ::  Channel 9.  Note 44.  Velocity 82
000001t:  Note on ::  Channel 9.  Note 44.  Velocity 0
000000t:  Note on ::  Channel 9.  Note 36.  Velocity 0
000023t:  Note on ::  Channel 9.  Note 36.  Velocity 82
000000t:  Note on ::  Channel 9.  Note 49.  Velocity 82
000000t:  Note on ::  Channel 9.  Note 51.  Velocity 82
000001t:  Note on ::  Channel 9.  Note 51.  Velocity 0
000000t:  Note on ::  Channel 9.  Note 49.  Velocity 0
000000t:  Note on ::  Channel 9.  Note 36.  Velocity 0
000455t:  Note on ::  Channel 9.  Note 36.  Velocity 82
000000t:  Note on ::  Channel 9.  Note 44.  Velocity 82
000001t:  Note on ::  Channel 9.  Note 44.  Velocity 0
000000t:  Note on ::  Channel 9.  Note 36.  Velocity 0
000023t:  Note on ::  Channel 9.  Note 36.  Velocity 82
000000t:  Note on ::  Channel 9.  Note 49.  Velocity 82
000000t:  Note on ::  Channel 9.  Note 51.  Velocity 82
000001t:  Note on ::  Channel 9.  Note 51.  Velocity 0
000000t:  Note on ::  Channel 9.  Note 49.  Velocity 0
000000t:  Note on ::  Channel 9.  Note 36.  Velocity 0
000191t:  Note on ::  Channel 9.  Note 42.  Velocity 100
000000t:  Note on ::  Channel 9.  Note 51.  Velocity 10
000001t:  Note on ::  Channel 9.  Note 51.  Velocity 0
000000t:  Note on ::  Channel 9.  Note 42.  Velocity 0
000047t:  Note on ::  Channel 9.  Note 42.  Velocity 100
000000t:  Note on ::  Channel 9.  Note 51.  Velocity 10
000001t:  Note on ::  Channel 9.  Note 51.  Velocity 0
000000t:  Note on ::  Channel 9.  Note 42.  Velocity 0
000047t:  Note on ::  Channel 9.  Note 42.  Velocity 100
000000t:  Note on ::  Channel 9.  Note 51.  Velocity 10
000001t:  Note on ::  Channel 9.  Note 51.  Velocity 0
000000t:  Note on ::  Channel 9.  Note 42.  Velocity 0
000047t:  Note on ::  Channel 9.  Note 42.  Velocity 100
000000t:  Note on ::  Channel 9.  Note 51.  Velocity 10
000001t:  Note on ::  Channel 9.  Note 51.  Velocity 0
000000t:  Note on ::  Channel 9.  Note 42.  Velocity 0
000047t:  Note on ::  Channel 9.  Note 42.  Velocity 100
000000t:  Note on ::  Channel 9.  Note 51.  Velocity 10
000001t:  Note on ::  Channel 9.  Note 51.  Velocity 0
000000t:  Note on ::  Channel 9.  Note 42.  Velocity 0
000047t:  Note on ::  Channel 9.  Note 42.  Velocity 100
000000t:  Note on ::  Channel 9.  Note 51.  Velocity 10
000001t:  Note on ::  Channel 9.  Note 51.  Velocity 0
000000t:  Note on ::  Channel 9.  Note 42.  Velocity 0
000047t:  Note on ::  Channel 9.  Note 42.  Velocity 100
000000t:  Note on ::  Channel 9.  Note 51.  Velocity 10
000001t:  Note on ::  Channel 9.  Note 51.  Velocity 0
000000t:  Note on ::  Channel 9.  Note 42.  Velocity 0
000047t:  Note on ::  Channel 9.  Note 42.  Velocity 100
000000t:  Note on ::  Channel 9.  Note 51.  Velocity 10
000001t:  Note on ::  Channel 9.  Note 51.  Velocity 0
000000t:  Note on ::  Channel 9.  Note 42.  Velocity 0
000047t:  Note on ::  Channel 9.  Note 42.  Velocity 100
000000t:  Note on ::  Channel 9.  Note 51.  Velocity 10
000001t:  Note on ::  Channel 9.  Note 51.  Velocity 0
000000t:  Note on ::  Channel 9.  Note 42.  Velocity 0
000047t:  Note on ::  Channel 9.  Note 42.  Velocity 100
000000t:  Note on ::  Channel 9.  Note 51.  Velocity 10
000001t:  Note on ::  Channel 9.  Note 51.  Velocity 0
000000t:  Note on ::  Channel 9.  Note 42.  Velocity 0
000047t:  Note on ::  Channel 9.  Note 42.  Velocity 100
000000t:  Note on ::  Channel 9.  Note 51.  Velocity 10
000001t:  Note on ::  Channel 9.  Note 51.  Velocity 0
000000t:  Note on ::  Channel 9.  Note 42.  Velocity 0
000047t:  Note on ::  Channel 9.  Note 42.  Velocity 100
000000t:  Note on ::  Channel 9.  Note 51.  Velocity 10
000001t:  Note on ::  Channel 9.  Note 51.  Velocity 0
000000t:  Note on ::  Channel 9.  Note 42.  Velocity 0
000047t:  Note on ::  Channel 9.  Note 42.  Velocity 100
000000t:  Note on ::  Channel 9.  Note 51.  Velocity 10
000001t:  Note on ::  Channel 9.  Note 51.  Velocity 0
000000t:  Note on ::  Channel 9.  Note 42.  Velocity 0
000047t:  Note on ::  Channel 9.  Note 42.  Velocity 100
000000t:  Note on ::  Channel 9.  Note 51.  Velocity 10
000001t:  Note on ::  Channel 9.  Note 51.  Velocity 0
000000t:  Note on ::  Channel 9.  Note 42.  Velocity 0
000047t:  Note on ::  Channel 9.  Note 42.  Velocity 100
000000t:  Note on ::  Channel 9.  Note 51.  Velocity 10
000001t:  Note on ::  Channel 9.  Note 51.  Velocity 0
000000t:  Note on ::  Channel 9.  Note 42.  Velocity 0
000047t:  Note on ::  Channel 9.  Note 42.  Velocity 100
000000t:  Note on ::  Channel 9.  Note 51.  Velocity 10
000001t:  Note on ::  Channel 9.  Note 51.  Velocity 0
000000t:  Note on ::  Channel 9.  Note 42.  Velocity 0
000047t:  Note on ::  Channel 9.  Note 42.  Velocity 100
000000t:  Note on ::  Channel 9.  Note 51.  Velocity 10
000001t:  Note on ::  Channel 9.  Note 51.  Velocity 0
000000t:  Note on ::  Channel 9.  Note 42.  Velocity 0
000047t:  Note on ::  Channel 9.  Note 42.  Velocity 100
000000t:  Note on ::  Channel 9.  Note 51.  Velocity 10
000001t:  Note on ::  Channel 9.  Note 51.  Velocity 0
000000t:  Note on ::  Channel 9.  Note 42.  Velocity 0
000047t:  Note on ::  Channel 9.  Note 42.  Velocity 100
000000t:  Note on ::  Channel 9.  Note 51.  Velocity 10
000001t:  Note on ::  Channel 9.  Note 51.  Velocity 0
000000t:  Note on ::  Channel 9.  Note 42.  Velocity 0
000047t:  Note on ::  Channel 9.  Note 42.  Velocity 100
000000t:  Note on ::  Channel 9.  Note 51.  Velocity 10
000001t:  Note on ::  Channel 9.  Note 51.  Velocity 0
000000t:  Note on ::  Channel 9.  Note 42.  Velocity 0
000047t:  Note on ::  Channel 9.  Note 42.  Velocity 100
000000t:  Note on ::  Channel 9.  Note 51.  Velocity 10
000001t:  Note on ::  Channel 9.  Note 51.  Velocity 0
000000t:  Note on ::  Channel 9.  Note 42.  Velocity 0
000047t:  Note on ::  Channel 9.  Note 42.  Velocity 100
000000t:  Note on ::  Channel 9.  Note 51.  Velocity 10
000001t:  Note on ::  Channel 9.  Note 51.  Velocity 0
000000t:  Note on ::  Channel 9.  Note 42.  Velocity 0
000047t:  Note on ::  Channel 9.  Note 42.  Velocity 100
000000t:  Note on ::  Channel 9.  Note 51.  Velocity 10
000001t:  Note on ::  Channel 9.  Note 51.  Velocity 0
000000t:  Note on ::  Channel 9.  Note 42.  Velocity 0
000047t:  Note on ::  Channel 9.  Note 42.  Velocity 100
000000t:  Note on ::  Channel 9.  Note 51.  Velocity 10
000001t:  Note on ::  Channel 9.  Note 51.  Velocity 0
000000t:  Note on ::  Channel 9.  Note 42.  Velocity 0
000047t:  Note on ::  Channel 9.  Note 42.  Velocity 100
000000t:  Note on ::  Channel 9.  Note 51.  Velocity 10
000001t:  Note on ::  Channel 9.  Note 51.  Velocity 0
000000t:  Note on ::  Channel 9.  Note 42.  Velocity 0
000047t:  Note on ::  Channel 9.  Note 42.  Velocity 100
000000t:  Note on ::  Channel 9.  Note 51.  Velocity 10
000001t:  Note on ::  Channel 9.  Note 51.  Velocity 0
000000t:  Note on ::  Channel 9.  Note 42.  Velocity 0
000047t:  Note on ::  Channel 9.  Note 42.  Velocity 100
000000t:  Note on ::  Channel 9.  Note 51.  Velocity 10
000001t:  Note on ::  Channel 9.  Note 51.  Velocity 0
000000t:  Note on ::  Channel 9.  Note 42.  Velocity 0
000047t:  Note on ::  Channel 9.  Note 42.  Velocity 100
000000t:  Note on ::  Channel 9.  Note 51.  Velocity 10
000001t:  Note on ::  Channel 9.  Note 51.  Velocity 0
000000t:  Note on ::  Channel 9.  Note 42.  Velocity 0
000047t:  Note on ::  Channel 9.  Note 42.  Velocity 100
000000t:  Note on ::  Channel 9.  Note 51.  Velocity 10
000001t:  Note on ::  Channel 9.  Note 51.  Velocity 0
000000t:  Note on ::  Channel 9.  Note 42.  Velocity 0
000047t:  Note on ::  Channel 9.  Note 42.  Velocity 100
000000t:  Note on ::  Channel 9.  Note 51.  Velocity 10
000001t:  Note on ::  Channel 9.  Note 51.  Velocity 0
000000t:  Note on ::  Channel 9.  Note 42.  Velocity 0
000047t:  Note on ::  Channel 9.  Note 42.  Velocity 100
000000t:  Note on ::  Channel 9.  Note 51.  Velocity 10
000001t:  Note on ::  Channel 9.  Note 51.  Velocity 0
000000t:  Note on ::  Channel 9.  Note 42.  Velocity 0
000047t:  Note on ::  Channel 9.  Note 42.  Velocity 100
000000t:  Note on ::  Channel 9.  Note 51.  Velocity 10
000001t:  Note on ::  Channel 9.  Note 51.  Velocity 0
000000t:  Note on ::  Channel 9.  Note 42.  Velocity 0
000047t:  Note on ::  Channel 9.  Note 42.  Velocity 100
000000t:  Note on ::  Channel 9.  Note 51.  Velocity 10
000001t:  Note on ::  Channel 9.  Note 51.  Velocity 0
000000t:  Note on ::  Channel 9.  Note 42.  Velocity 0
000047t:  Note on ::  Channel 9.  Note 42.  Velocity 100
000000t:  Note on ::  Channel 9.  Note 51.  Velocity 10
000001t:  Note on ::  Channel 9.  Note 51.  Velocity 0
000000t:  Note on ::  Channel 9.  Note 42.  Velocity 0
000047t:  Note on ::  Channel 9.  Note 42.  Velocity 100
000000t:  Note on ::  Channel 9.  Note 51.  Velocity 10
000001t:  Note on ::  Channel 9.  Note 51.  Velocity 0
000000t:  Note on ::  Channel 9.  Note 42.  Velocity 0
000047t:  Note on ::  Channel 9.  Note 42.  Velocity 100
000000t:  Note on ::  Channel 9.  Note 51.  Velocity 10
000001t:  Note on ::  Channel 9.  Note 51.  Velocity 0
000000t:  Note on ::  Channel 9.  Note 42.  Velocity 0
000047t:  Note on ::  Channel 9.  Note 42.  Velocity 100
000000t:  Note on ::  Channel 9.  Note 51.  Velocity 10
000001t:  Note on ::  Channel 9.  Note 51.  Velocity 0
000000t:  Note on ::  Channel 9.  Note 42.  Velocity 0
000047t:  Note on ::  Channel 9.  Note 42.  Velocity 100
000000t:  Note on ::  Channel 9.  Note 51.  Velocity 10
000001t:  Note on ::  Channel 9.  Note 51.  Velocity 0
000000t:  Note on ::  Channel 9.  Note 42.  Velocity 0
000047t:  Note on ::  Channel 9.  Note 42.  Velocity 100
000000t:  Note on ::  Channel 9.  Note 51.  Velocity 10
000001t:  Note on ::  Channel 9.  Note 51.  Velocity 0
000000t:  Note on ::  Channel 9.  Note 42.  Velocity 0
000047t:  Note on ::  Channel 9.  Note 42.  Velocity 100
000000t:  Note on ::  Channel 9.  Note 51.  Velocity 10
000001t:  Note on ::  Channel 9.  Note 51.  Velocity 0
000000t:  Note on ::  Channel 9.  Note 42.  Velocity 0
000047t:  Note on ::  Channel 9.  Note 42.  Velocity 100
000000t:  Note on ::  Channel 9.  Note 51.  Velocity 10
000001t:  Note on ::  Channel 9.  Note 51.  Velocity 0
000000t:  Note on ::  Channel 9.  Note 42.  Velocity 0
000047t:  Note on ::  Channel 9.  Note 42.  Velocity 100
000000t:  Note on ::  Channel 9.  Note 51.  Velocity 10
000001t:  Note on ::  Channel 9.  Note 51.  Velocity 0
000000t:  Note on ::  Channel 9.  Note 42.  Velocity 0
000047t:  Note on ::  Channel 9.  Note 42.  Velocity 100
000000t:  Note on ::  Channel 9.  Note 51.  Velocity 10
000001t:  Note on ::  Channel 9.  Note 51.  Velocity 0
000000t:  Note on ::  Channel 9.  Note 42.  Velocity 0
000045t:  Note on ::  Channel 9.  Note 38.  Velocity 28
000001t:  Note on ::  Channel 9.  Note 38.  Velocity 0
000001t:  Note on ::  Channel 9.  Note 38.  Velocity 100
000000t:  Note on ::  Channel 9.  Note 55.  Velocity 92
000000t:  Note on ::  Channel 9.  Note 35.  Velocity 120
000001t:  Note on ::  Channel 9.  Note 35.  Velocity 0
000000t:  Note on ::  Channel 9.  Note 55.  Velocity 0
000000t:  Note on ::  Channel 9.  Note 38.  Velocity 0
000047t:  Note on ::  Channel 9.  Note 42.  Velocity 100
000000t:  Note on ::  Channel 9.  Note 51.  Velocity 10
000000t:  Note on ::  Channel 9.  Note 55.  Velocity 8
000001t:  Note on ::  Channel 9.  Note 55.  Velocity 0
000000t:  Note on ::  Channel 9.  Note 51.  Velocity 0
000000t:  Note on ::  Channel 9.  Note 42.  Velocity 0
000047t:  Note on ::  Channel 9.  Note 42.  Velocity 100
000000t:  Note on ::  Channel 9.  Note 51.  Velocity 10
000001t:  Note on ::  Channel 9.  Note 51.  Velocity 0
000000t:  Note on ::  Channel 9.  Note 42.  Velocity 0
000047t:  Note on ::  Channel 9.  Note 42.  Velocity 100
000000t:  Note on ::  Channel 9.  Note 51.  Velocity 10
000001t:  Note on ::  Channel 9.  Note 51.  Velocity 0
000000t:  Note on ::  Channel 9.  Note 42.  Velocity 0
000047t:  Note on ::  Channel 9.  Note 42.  Velocity 100
000000t:  Note on ::  Channel 9.  Note 51.  Velocity 10
000001t:  Note on ::  Channel 9.  Note 51.  Velocity 0
000000t:  Note on ::  Channel 9.  Note 42.  Velocity 0
000047t:  Note on ::  Channel 9.  Note 42.  Velocity 100
000000t:  Note on ::  Channel 9.  Note 51.  Velocity 10
000001t:  Note on ::  Channel 9.  Note 51.  Velocity 0
000000t:  Note on ::  Channel 9.  Note 42.  Velocity 0
000047t:  Note on ::  Channel 9.  Note 42.  Velocity 100
000000t:  Note on ::  Channel 9.  Note 51.  Velocity 10
000001t:  Note on ::  Channel 9.  Note 51.  Velocity 0
000000t:  Note on ::  Channel 9.  Note 42.  Velocity 0
000047t:  Note on ::  Channel 9.  Note 36.  Velocity 82
000001t:  Note on ::  Channel 9.  Note 36.  Velocity 0
000071t:  Note on ::  Channel 9.  Note 36.  Velocity 64
000001t:  Note on ::  Channel 9.  Note 36.  Velocity 0
000023t:  Note on ::  Channel 9.  Note 36.  Velocity 82
000001t:  Note on ::  Channel 9.  Note 36.  Velocity 0
000045t:  Note on ::  Channel 9.  Note 38.  Velocity 28
000001t:  Note on ::  Channel 9.  Note 38.  Velocity 0
000001t:  Note on ::  Channel 9.  Note 38.  Velocity 100
000000t:  Note on ::  Channel 9.  Note 41.  Velocity 118
000000t:  Note on ::  Channel 9.  Note 55.  Velocity 92
000001t:  Note on ::  Channel 9.  Note 55.  Velocity 0
000000t:  Note on ::  Channel 9.  Note 41.  Velocity 0
000000t:  Note on ::  Channel 9.  Note 38.  Velocity 0
000047t:  Note on ::  Channel 9.  Note 42.  Velocity 100
000000t:  Note on ::  Channel 9.  Note 51.  Velocity 10
000000t:  Note on ::  Channel 9.  Note 55.  Velocity 8
000001t:  Note on ::  Channel 9.  Note 55.  Velocity 0
000000t:  Note on ::  Channel 9.  Note 51.  Velocity 0
000000t:  Note on ::  Channel 9.  Note 42.  Velocity 0
000047t:  Note on ::  Channel 9.  Note 42.  Velocity 100
000000t:  Note on ::  Channel 9.  Note 51.  Velocity 10
000001t:  Note on ::  Channel 9.  Note 51.  Velocity 0
000000t:  Note on ::  Channel 9.  Note 42.  Velocity 0
000047t:  Note on ::  Channel 9.  Note 42.  Velocity 100
000000t:  Note on ::  Channel 9.  Note 51.  Velocity 10
000001t:  Note on ::  Channel 9.  Note 51.  Velocity 0
000000t:  Note on ::  Channel 9.  Note 42.  Velocity 0
000047t:  Note on ::  Channel 9.  Note 42.  Velocity 100
000000t:  Note on ::  Channel 9.  Note 51.  Velocity 10
000001t:  Note on ::  Channel 9.  Note 51.  Velocity 0
000000t:  Note on ::  Channel 9.  Note 42.  Velocity 0
000047t:  Note on ::  Channel 9.  Note 42.  Velocity 100
000000t:  Note on ::  Channel 9.  Note 51.  Velocity 10
000001t:  Note on ::  Channel 9.  Note 51.  Velocity 0
000000t:  Note on ::  Channel 9.  Note 42.  Velocity 0
000047t:  Note on ::  Channel 9.  Note 42.  Velocity 100
000000t:  Note on ::  Channel 9.  Note 51.  Velocity 10
000001t:  Note on ::  Channel 9.  Note 51.  Velocity 0
000000t:  Note on ::  Channel 9.  Note 42.  Velocity 0
000047t:  Note on ::  Channel 9.  Note 36.  Velocity 82
000001t:  Note on ::  Channel 9.  Note 36.  Velocity 0
000071t:  Note on ::  Channel 9.  Note 36.  Velocity 64
000001t:  Note on ::  Channel 9.  Note 36.  Velocity 0
000023t:  Note on ::  Channel 9.  Note 36.  Velocity 82
000001t:  Note on ::  Channel 9.  Note 36.  Velocity 0
000045t:  Note on ::  Channel 9.  Note 38.  Velocity 28
000001t:  Note on ::  Channel 9.  Note 38.  Velocity 0
000001t:  Note on ::  Channel 9.  Note 38.  Velocity 100
000000t:  Note on ::  Channel 9.  Note 41.  Velocity 118
000000t:  Note on ::  Channel 9.  Note 55.  Velocity 92
000001t:  Note on ::  Channel 9.  Note 55.  Velocity 0
000000t:  Note on ::  Channel 9.  Note 41.  Velocity 0
000000t:  Note on ::  Channel 9.  Note 38.  Velocity 0
000047t:  Note on ::  Channel 9.  Note 42.  Velocity 100
000000t:  Note on ::  Channel 9.  Note 51.  Velocity 10
000000t:  Note on ::  Channel 9.  Note 55.  Velocity 8
000001t:  Note on ::  Channel 9.  Note 55.  Velocity 0
000000t:  Note on ::  Channel 9.  Note 51.  Velocity 0
000000t:  Note on ::  Channel 9.  Note 42.  Velocity 0
000047t:  Note on ::  Channel 9.  Note 42.  Velocity 100
000000t:  Note on ::  Channel 9.  Note 51.  Velocity 10
000001t:  Note on ::  Channel 9.  Note 51.  Velocity 0
000000t:  Note on ::  Channel 9.  Note 42.  Velocity 0
000047t:  Note on ::  Channel 9.  Note 42.  Velocity 100
000000t:  Note on ::  Channel 9.  Note 51.  Velocity 10
000001t:  Note on ::  Channel 9.  Note 51.  Velocity 0
000000t:  Note on ::  Channel 9.  Note 42.  Velocity 0
000047t:  Note on ::  Channel 9.  Note 42.  Velocity 100
000000t:  Note on ::  Channel 9.  Note 51.  Velocity 10
000001t:  Note on ::  Channel 9.  Note 51.  Velocity 0
000000t:  Note on ::  Channel 9.  Note 42.  Velocity 0
000047t:  Note on ::  Channel 9.  Note 42.  Velocity 100
000000t:  Note on ::  Channel 9.  Note 51.  Velocity 10
000001t:  Note on ::  Channel 9.  Note 51.  Velocity 0
000000t:  Note on ::  Channel 9.  Note 42.  Velocity 0
000047t:  Note on ::  Channel 9.  Note 42.  Velocity 100
000000t:  Note on ::  Channel 9.  Note 51.  Velocity 10
000001t:  Note on ::  Channel 9.  Note 51.  Velocity 0
000000t:  Note on ::  Channel 9.  Note 42.  Velocity 0
000047t:  Note on ::  Channel 9.  Note 36.  Velocity 82
000001t:  Note on ::  Channel 9.  Note 36.  Velocity 0
000071t:  Note on ::  Channel 9.  Note 36.  Velocity 64
000001t:  Note on ::  Channel 9.  Note 36.  Velocity 0
000023t:  Note on ::  Channel 9.  Note 36.  Velocity 82
000001t:  Note on ::  Channel 9.  Note 36.  Velocity 0
000045t:  Note on ::  Channel 9.  Note 38.  Velocity 28
000001t:  Note on ::  Channel 9.  Note 38.  Velocity 0
000001t:  Note on ::  Channel 9.  Note 38.  Velocity 100
000000t:  Note on ::  Channel 9.  Note 41.  Velocity 118
000000t:  Note on ::  Channel 9.  Note 55.  Velocity 92
000001t:  Note on ::  Channel 9.  Note 55.  Velocity 0
000000t:  Note on ::  Channel 9.  Note 41.  Velocity 0
000000t:  Note on ::  Channel 9.  Note 38.  Velocity 0
000047t:  Note on ::  Channel 9.  Note 42.  Velocity 100
000000t:  Note on ::  Channel 9.  Note 51.  Velocity 10
000000t:  Note on ::  Channel 9.  Note 55.  Velocity 8
000001t:  Note on ::  Channel 9.  Note 55.  Velocity 0
000000t:  Note on ::  Channel 9.  Note 51.  Velocity 0
000000t:  Note on ::  Channel 9.  Note 42.  Velocity 0
000047t:  Note on ::  Channel 9.  Note 42.  Velocity 100
000000t:  Note on ::  Channel 9.  Note 51.  Velocity 10
000001t:  Note on ::  Channel 9.  Note 51.  Velocity 0
000000t:  Note on ::  Channel 9.  Note 42.  Velocity 0
000047t:  Note on ::  Channel 9.  Note 42.  Velocity 100
000000t:  Note on ::  Channel 9.  Note 51.  Velocity 10
000001t:  Note on ::  Channel 9.  Note 51.  Velocity 0
000000t:  Note on ::  Channel 9.  Note 42.  Velocity 0
000047t:  Note on ::  Channel 9.  Note 42.  Velocity 100
000000t:  Note on ::  Channel 9.  Note 51.  Velocity 10
000001t:  Note on ::  Channel 9.  Note 51.  Velocity 0
000000t:  Note on ::  Channel 9.  Note 42.  Velocity 0
000047t:  Note on ::  Channel 9.  Note 42.  Velocity 100
000000t:  Note on ::  Channel 9.  Note 51.  Velocity 10
000001t:  Note on ::  Channel 9.  Note 51.  Velocity 0
000000t:  Note on ::  Channel 9.  Note 42.  Velocity 0
000047t:  Note on ::  Channel 9.  Note 42.  Velocity 100
000000t:  Note on ::  Channel 9.  Note 51.  Velocity 10
000001t:  Note on ::  Channel 9.  Note 51.  Velocity 0
000000t:  Note on ::  Channel 9.  Note 42.  Velocity 0
000047t:  Note on ::  Channel 9.  Note 36.  Velocity 82
000001t:  Note on ::  Channel 9.  Note 36.  Velocity 0
000071t:  Note on ::  Channel 9.  Note 36.  Velocity 64
000001t:  Note on ::  Channel 9.  Note 36.  Velocity 0
000023t:  Note on ::  Channel 9.  Note 36.  Velocity 82
000001t:  Note on ::  Channel 9.  Note 36.  Velocity 0
000045t:  Note on ::  Channel 9.  Note 38.  Velocity 28
000001t:  Note on ::  Channel 9.  Note 38.  Velocity 0
000001t:  Note on ::  Channel 9.  Note 38.  Velocity 100
000000t:  Note on ::  Channel 9.  Note 41.  Velocity 118
000000t:  Note on ::  Channel 9.  Note 55.  Velocity 92
000001t:  Note on ::  Channel 9.  Note 55.  Velocity 0
000000t:  Note on ::  Channel 9.  Note 41.  Velocity 0
000000t:  Note on ::  Channel 9.  Note 38.  Velocity 0
000047t:  Note on ::  Channel 9.  Note 36.  Velocity 82
000000t:  Note on ::  Channel 9.  Note 55.  Velocity 8
000001t:  Note on ::  Channel 9.  Note 55.  Velocity 0
000000t:  Note on ::  Channel 9.  Note 36.  Velocity 0
000023t:  Note on ::  Channel 9.  Note 36.  Velocity 64
000001t:  Note on ::  Channel 9.  Note 36.  Velocity 0
000047t:  Note on ::  Channel 9.  Note 36.  Velocity 64
000001t:  Note on ::  Channel 9.  Note 36.  Velocity 0
000023t:  Note on ::  Channel 9.  Note 36.  Velocity 82
000001t:  Note on ::  Channel 9.  Note 36.  Velocity 0
000045t:  Note on ::  Channel 9.  Note 38.  Velocity 28
000001t:  Note on ::  Channel 9.  Note 38.  Velocity 0
000001t:  Note on ::  Channel 9.  Note 38.  Velocity 100
000000t:  Note on ::  Channel 9.  Note 41.  Velocity 118
000000t:  Note on ::  Channel 9.  Note 55.  Velocity 92
000001t:  Note on ::  Channel 9.  Note 55.  Velocity 0
000000t:  Note on ::  Channel 9.  Note 41.  Velocity 0
000000t:  Note on ::  Channel 9.  Note 38.  Velocity 0
000047t:  Note on ::  Channel 9.  Note 36.  Velocity 82
000000t:  Note on ::  Channel 9.  Note 42.  Velocity 82
000000t:  Note on ::  Channel 9.  Note 55.  Velocity 8
000001t:  Note on ::  Channel 9.  Note 55.  Velocity 0
000000t:  Note on ::  Channel 9.  Note 42.  Velocity 0
000000t:  Note on ::  Channel 9.  Note 36.  Velocity 0
000047t:  Note on ::  Channel 9.  Note 38.  Velocity 82
000000t:  Note on ::  Channel 9.  Note 42.  Velocity 82
000001t:  Note on ::  Channel 9.  Note 42.  Velocity 0
000000t:  Note on ::  Channel 9.  Note 38.  Velocity 0
000047t:  Note on ::  Channel 9.  Note 36.  Velocity 64
000000t:  Note on ::  Channel 9.  Note 42.  Velocity 82
000001t:  Note on ::  Channel 9.  Note 42.  Velocity 0
000000t:  Note on ::  Channel 9.  Note 36.  Velocity 0
000023t:  Note on ::  Channel 9.  Note 36.  Velocity 82
000000t:  Note on ::  Channel 9.  Note 42.  Velocity 82
000001t:  Note on ::  Channel 9.  Note 42.  Velocity 0
000000t:  Note on ::  Channel 9.  Note 36.  Velocity 0
000023t:  Note on ::  Channel 9.  Note 38.  Velocity 82
000000t:  Note on ::  Channel 9.  Note 42.  Velocity 82
000001t:  Note on ::  Channel 9.  Note 42.  Velocity 0
000000t:  Note on ::  Channel 9.  Note 38.  Velocity 0
000047t:  Note on ::  Channel 9.  Note 36.  Velocity 82
000000t:  Note on ::  Channel 9.  Note 42.  Velocity 82
000001t:  Note on ::  Channel 9.  Note 42.  Velocity 0
000000t:  Note on ::  Channel 9.  Note 36.  Velocity 0
000047t:  Note on ::  Channel 9.  Note 38.  Velocity 82
000000t:  Note on ::  Channel 9.  Note 42.  Velocity 82
000001t:  Note on ::  Channel 9.  Note 42.  Velocity 0
000000t:  Note on ::  Channel 9.  Note 38.  Velocity 0
000047t:  Note on ::  Channel 9.  Note 36.  Velocity 64
000000t:  Note on ::  Channel 9.  Note 42.  Velocity 82
000001t:  Note on ::  Channel 9.  Note 42.  Velocity 0
000000t:  Note on ::  Channel 9.  Note 36.  Velocity 0
000023t:  Note on ::  Channel 9.  Note 36.  Velocity 82
000000t:  Note on ::  Channel 9.  Note 42.  Velocity 82
000001t:  Note on ::  Channel 9.  Note 42.  Velocity 0
000000t:  Note on ::  Channel 9.  Note 36.  Velocity 0
000023t:  Note on ::  Channel 9.  Note 38.  Velocity 82
000000t:  Note on ::  Channel 9.  Note 42.  Velocity 82
000001t:  Note on ::  Channel 9.  Note 42.  Velocity 0
000000t:  Note on ::  Channel 9.  Note 38.  Velocity 0
000047t:  Note on ::  Channel 9.  Note 36.  Velocity 82
000000t:  Note on ::  Channel 9.  Note 42.  Velocity 82
000001t:  Note on ::  Channel 9.  Note 42.  Velocity 0
000000t:  Note on ::  Channel 9.  Note 36.  Velocity 0
000047t:  Note on ::  Channel 9.  Note 38.  Velocity 82
000000t:  Note on ::  Channel 9.  Note 42.  Velocity 82
000001t:  Note on ::  Channel 9.  Note 42.  Velocity 0
000000t:  Note on ::  Channel 9.  Note 38.  Velocity 0
000047t:  Note on ::  Channel 9.  Note 36.  Velocity 64
000000t:  Note on ::  Channel 9.  Note 42.  Velocity 82
000001t:  Note on ::  Channel 9.  Note 42.  Velocity 0
000000t:  Note on ::  Channel 9.  Note 36.  Velocity 0
000023t:  Note on ::  Channel 9.  Note 36.  Velocity 82
000000t:  Note on ::  Channel 9.  Note 42.  Velocity 82
000001t:  Note on ::  Channel 9.  Note 42.  Velocity 0
000000t:  Note on ::  Channel 9.  Note 36.  Velocity 0
000023t:  Note on ::  Channel 9.  Note 38.  Velocity 82
000000t:  Note on ::  Channel 9.  Note 42.  Velocity 82
000001t:  Note on ::  Channel 9.  Note 42.  Velocity 0
000000t:  Note on ::  Channel 9.  Note 38.  Velocity 0
000047t:  Note on ::  Channel 9.  Note 36.  Velocity 82
000000t:  Note on ::  Channel 9.  Note 42.  Velocity 82
000001t:  Note on ::  Channel 9.  Note 42.  Velocity 0
000000t:  Note on ::  Channel 9.  Note 36.  Velocity 0
000047t:  Note on ::  Channel 9.  Note 38.  Velocity 82
000000t:  Note on ::  Channel 9.  Note 42.  Velocity 82
000001t:  Note on ::  Channel 9.  Note 42.  Velocity 0
000000t:  Note on ::  Channel 9.  Note 38.  Velocity 0
000047t:  Note on ::  Channel 9.  Note 36.  Velocity 64
000000t:  Note on ::  Channel 9.  Note 42.  Velocity 82
000001t:  Note on ::  Channel 9.  Note 42.  Velocity 0
000000t:  Note on ::  Channel 9.  Note 36.  Velocity 0
000023t:  Note on ::  Channel 9.  Note 36.  Velocity 82
000000t:  Note on ::  Channel 9.  Note 42.  Velocity 82
000001t:  Note on ::  Channel 9.  Note 42.  Velocity 0
000000t:  Note on ::  Channel 9.  Note 36.  Velocity 0
000023t:  Note on ::  Channel 9.  Note 38.  Velocity 82
000000t:  Note on ::  Channel 9.  Note 42.  Velocity 82
000001t:  Note on ::  Channel 9.  Note 42.  Velocity 0
000000t:  Note on ::  Channel 9.  Note 38.  Velocity 0
000047t:  Note on ::  Channel 9.  Note 36.  Velocity 82
000000t:  Note on ::  Channel 9.  Note 42.  Velocity 82
000001t:  Note on ::  Channel 9.  Note 42.  Velocity 0
000000t:  Note on ::  Channel 9.  Note 36.  Velocity 0
000047t:  Note on ::  Channel 9.  Note 38.  Velocity 82
000000t:  Note on ::  Channel 9.  Note 42.  Velocity 82
000001t:  Note on ::  Channel 9.  Note 42.  Velocity 0
000000t:  Note on ::  Channel 9.  Note 38.  Velocity 0
000047t:  Note on ::  Channel 9.  Note 36.  Velocity 64
000000t:  Note on ::  Channel 9.  Note 42.  Velocity 82
000001t:  Note on ::  Channel 9.  Note 42.  Velocity 0
000000t:  Note on ::  Channel 9.  Note 36.  Velocity 0
000023t:  Note on ::  Channel 9.  Note 36.  Velocity 82
000000t:  Note on ::  Channel 9.  Note 42.  Velocity 82
000001t:  Note on ::  Channel 9.  Note 42.  Velocity 0
000000t:  Note on ::  Channel 9.  Note 36.  Velocity 0
000023t:  Note on ::  Channel 9.  Note 38.  Velocity 82
000000t:  Note on ::  Channel 9.  Note 42.  Velocity 82
000001t:  Note on ::  Channel 9.  Note 42.  Velocity 0
000000t:  Note on ::  Channel 9.  Note 38.  Velocity 0
000047t:  Note on ::  Channel 9.  Note 36.  Velocity 82
000000t:  Note on ::  Channel 9.  Note 42.  Velocity 82
000001t:  Note on ::  Channel 9.  Note 42.  Velocity 0
000000t:  Note on ::  Channel 9.  Note 36.  Velocity 0
000047t:  Note on ::  Channel 9.  Note 38.  Velocity 82
000000t:  Note on ::  Channel 9.  Note 42.  Velocity 82
000001t:  Note on ::  Channel 9.  Note 42.  Velocity 0
000000t:  Note on ::  Channel 9.  Note 38.  Velocity 0
000047t:  Note on ::  Channel 9.  Note 36.  Velocity 64
000000t:  Note on ::  Channel 9.  Note 42.  Velocity 82
000001t:  Note on ::  Channel 9.  Note 42.  Velocity 0
000000t:  Note on ::  Channel 9.  Note 36.  Velocity 0
000023t:  Note on ::  Channel 9.  Note 36.  Velocity 82
000000t:  Note on ::  Channel 9.  Note 42.  Velocity 82
000001t:  Note on ::  Channel 9.  Note 42.  Velocity 0
000000t:  Note on ::  Channel 9.  Note 36.  Velocity 0
000023t:  Note on ::  Channel 9.  Note 38.  Velocity 82
000000t:  Note on ::  Channel 9.  Note 42.  Velocity 82
000001t:  Note on ::  Channel 9.  Note 42.  Velocity 0
000000t:  Note on ::  Channel 9.  Note 38.  Velocity 0
000047t:  Note on ::  Channel 9.  Note 36.  Velocity 82
000000t:  Note on ::  Channel 9.  Note 42.  Velocity 82
000001t:  Note on ::  Channel 9.  Note 42.  Velocity 0
000000t:  Note on ::  Channel 9.  Note 36.  Velocity 0
000047t:  Note on ::  Channel 9.  Note 38.  Velocity 82
000000t:  Note on ::  Channel 9.  Note 42.  Velocity 82
000001t:  Note on ::  Channel 9.  Note 42.  Velocity 0
000000t:  Note on ::  Channel 9.  Note 38.  Velocity 0
000047t:  Note on ::  Channel 9.  Note 36.  Velocity 64
000000t:  Note on ::  Channel 9.  Note 42.  Velocity 82
000001t:  Note on ::  Channel 9.  Note 42.  Velocity 0
000000t:  Note on ::  Channel 9.  Note 36.  Velocity 0
000023t:  Note on ::  Channel 9.  Note 36.  Velocity 82
000000t:  Note on ::  Channel 9.  Note 42.  Velocity 82
000001t:  Note on ::  Channel 9.  Note 42.  Velocity 0
000000t:  Note on ::  Channel 9.  Note 36.  Velocity 0
000023t:  Note on ::  Channel 9.  Note 38.  Velocity 82
000000t:  Note on ::  Channel 9.  Note 42.  Velocity 82
000001t:  Note on ::  Channel 9.  Note 42.  Velocity 0
000000t:  Note on ::  Channel 9.  Note 38.  Velocity 0
000045t:  Control change ::  Channel 9.  Controller 7.  Value: 120
000002t:  Note on ::  Channel 9.  Note 50.  Velocity 82
000001t:  Note on ::  Channel 9.  Note 50.  Velocity 0
000011t:  Note on ::  Channel 9.  Note 50.  Velocity 46
000001t:  Note on ::  Channel 9.  Note 50.  Velocity 0
000011t:  Note on ::  Channel 9.  Note 50.  Velocity 64
000001t:  Note on ::  Channel 9.  Note 50.  Velocity 0
000011t:  Note on ::  Channel 9.  Note 50.  Velocity 46
000001t:  Note on ::  Channel 9.  Note 50.  Velocity 0
000011t:  Note on ::  Channel 9.  Note 38.  Velocity 82
000001t:  Note on ::  Channel 9.  Note 38.  Velocity 0
000047t:  Note on ::  Channel 9.  Note 50.  Velocity 82
000001t:  Note on ::  Channel 9.  Note 50.  Velocity 0
000011t:  Note on ::  Channel 9.  Note 50.  Velocity 46
000001t:  Note on ::  Channel 9.  Note 50.  Velocity 0
000011t:  Note on ::  Channel 9.  Note 50.  Velocity 64
000001t:  Note on ::  Channel 9.  Note 50.  Velocity 0
000011t:  Note on ::  Channel 9.  Note 50.  Velocity 46
000001t:  Note on ::  Channel 9.  Note 50.  Velocity 0
000011t:  Note on ::  Channel 9.  Note 38.  Velocity 82
000001t:  Note on ::  Channel 9.  Note 38.  Velocity 0
000011t:  Note on ::  Channel 9.  Note 38.  Velocity 46
000001t:  Note on ::  Channel 9.  Note 38.  Velocity 0
000011t:  Note on ::  Channel 9.  Note 38.  Velocity 64
000001t:  Note on ::  Channel 9.  Note 38.  Velocity 0
000011t:  Note on ::  Channel 9.  Note 38.  Velocity 46
000001t:  Note on ::  Channel 9.  Note 38.  Velocity 0
000009t:  Control change ::  Channel 9.  Controller 7.  Value: 105
000002t:  Note on ::  Channel 9.  Note 36.  Velocity 82
000000t:  Note on ::  Channel 9.  Note 38.  Velocity 82
000000t:  Note on ::  Channel 9.  Note 41.  Velocity 118
000000t:  Note on ::  Channel 9.  Note 42.  Velocity 100
000000t:  Note on ::  Channel 9.  Note 51.  Velocity 10
000001t:  Note on ::  Channel 9.  Note 51.  Velocity 0
000000t:  Note on ::  Channel 9.  Note 41.  Velocity 0
000000t:  Note on ::  Channel 9.  Note 36.  Velocity 0
000000t:  Note on ::  Channel 9.  Note 38.  Velocity 0
000000t:  Note on ::  Channel 9.  Note 42.  Velocity 0
000047t:  Note on ::  Channel 9.  Note 42.  Velocity 100
000000t:  Note on ::  Channel 9.  Note 51.  Velocity 10
000001t:  Note on ::  Channel 9.  Note 51.  Velocity 0
000000t:  Note on ::  Channel 9.  Note 42.  Velocity 0
000047t:  Note on ::  Channel 9.  Note 42.  Velocity 100
000000t:  Note on ::  Channel 9.  Note 51.  Velocity 10
000001t:  Note on ::  Channel 9.  Note 51.  Velocity 0
000000t:  Note on ::  Channel 9.  Note 42.  Velocity 0
000047t:  Note on ::  Channel 9.  Note 42.  Velocity 100
000000t:  Note on ::  Channel 9.  Note 51.  Velocity 10
000001t:  Note on ::  Channel 9.  Note 51.  Velocity 0
000000t:  Note on ::  Channel 9.  Note 42.  Velocity 0
000047t:  Note on ::  Channel 9.  Note 42.  Velocity 100
000000t:  Note on ::  Channel 9.  Note 51.  Velocity 10
000001t:  Note on ::  Channel 9.  Note 51.  Velocity 0
000000t:  Note on ::  Channel 9.  Note 42.  Velocity 0
000047t:  Note on ::  Channel 9.  Note 42.  Velocity 100
000000t:  Note on ::  Channel 9.  Note 51.  Velocity 10
000001t:  Note on ::  Channel 9.  Note 51.  Velocity 0
000000t:  Note on ::  Channel 9.  Note 42.  Velocity 0
000047t:  Note on ::  Channel 9.  Note 36.  Velocity 82
000001t:  Note on ::  Channel 9.  Note 36.  Velocity 0
000071t:  Note on ::  Channel 9.  Note 36.  Velocity 64
000001t:  Note on ::  Channel 9.  Note 36.  Velocity 0
000023t:  Note on ::  Channel 9.  Note 36.  Velocity 82
000001t:  Note on ::  Channel 9.  Note 36.  Velocity 0
000045t:  Note on ::  Channel 9.  Note 38.  Velocity 28
000001t:  Note on ::  Channel 9.  Note 38.  Velocity 0
000001t:  Note on ::  Channel 9.  Note 38.  Velocity 100
000000t:  Note on ::  Channel 9.  Note 41.  Velocity 118
000000t:  Note on ::  Channel 9.  Note 55.  Velocity 106
000001t:  Note on ::  Channel 9.  Note 55.  Velocity 0
000000t:  Note on ::  Channel 9.  Note 41.  Velocity 0
000000t:  Note on ::  Channel 9.  Note 38.  Velocity 0
000047t:  Note on ::  Channel 9.  Note 42.  Velocity 100
000000t:  Note on ::  Channel 9.  Note 51.  Velocity 10
000000t:  Note on ::  Channel 9.  Note 55.  Velocity 8
000001t:  Note on ::  Channel 9.  Note 55.  Velocity 0
000000t:  Note on ::  Channel 9.  Note 51.  Velocity 0
000000t:  Note on ::  Channel 9.  Note 42.  Velocity 0
000047t:  Note on ::  Channel 9.  Note 42.  Velocity 100
000000t:  Note on ::  Channel 9.  Note 51.  Velocity 10
000001t:  Note on ::  Channel 9.  Note 51.  Velocity 0
000000t:  Note on ::  Channel 9.  Note 42.  Velocity 0
000047t:  Note on ::  Channel 9.  Note 42.  Velocity 100
000000t:  Note on ::  Channel 9.  Note 51.  Velocity 10
000001t:  Note on ::  Channel 9.  Note 51.  Velocity 0
000000t:  Note on ::  Channel 9.  Note 42.  Velocity 0
000047t:  Note on ::  Channel 9.  Note 42.  Velocity 100
000000t:  Note on ::  Channel 9.  Note 51.  Velocity 10
000001t:  Note on ::  Channel 9.  Note 51.  Velocity 0
000000t:  Note on ::  Channel 9.  Note 42.  Velocity 0
000047t:  Note on ::  Channel 9.  Note 42.  Velocity 100
000000t:  Note on ::  Channel 9.  Note 51.  Velocity 10
000001t:  Note on ::  Channel 9.  Note 51.  Velocity 0
000000t:  Note on ::  Channel 9.  Note 42.  Velocity 0
000047t:  Note on ::  Channel 9.  Note 42.  Velocity 100
000000t:  Note on ::  Channel 9.  Note 51.  Velocity 10
000001t:  Note on ::  Channel 9.  Note 51.  Velocity 0
000000t:  Note on ::  Channel 9.  Note 42.  Velocity 0
000047t:  Note on ::  Channel 9.  Note 36.  Velocity 82
000001t:  Note on ::  Channel 9.  Note 36.  Velocity 0
000071t:  Note on ::  Channel 9.  Note 36.  Velocity 64
000001t:  Note on ::  Channel 9.  Note 36.  Velocity 0
000023t:  Note on ::  Channel 9.  Note 36.  Velocity 82
000001t:  Note on ::  Channel 9.  Note 36.  Velocity 0
000045t:  Note on ::  Channel 9.  Note 38.  Velocity 28
000001t:  Note on ::  Channel 9.  Note 38.  Velocity 0
000001t:  Note on ::  Channel 9.  Note 38.  Velocity 100
000000t:  Note on ::  Channel 9.  Note 41.  Velocity 118
000000t:  Note on ::  Channel 9.  Note 55.  Velocity 106
000001t:  Note on ::  Channel 9.  Note 55.  Velocity 0
000000t:  Note on ::  Channel 9.  Note 41.  Velocity 0
000000t:  Note on ::  Channel 9.  Note 38.  Velocity 0
000047t:  Note on ::  Channel 9.  Note 42.  Velocity 100
000000t:  Note on ::  Channel 9.  Note 51.  Velocity 10
000000t:  Note on ::  Channel 9.  Note 55.  Velocity 8
000001t:  Note on ::  Channel 9.  Note 55.  Velocity 0
000000t:  Note on ::  Channel 9.  Note 51.  Velocity 0
000000t:  Note on ::  Channel 9.  Note 42.  Velocity 0
000047t:  Note on ::  Channel 9.  Note 42.  Velocity 100
000000t:  Note on ::  Channel 9.  Note 51.  Velocity 10
000001t:  Note on ::  Channel 9.  Note 51.  Velocity 0
000000t:  Note on ::  Channel 9.  Note 42.  Velocity 0
000047t:  Note on ::  Channel 9.  Note 42.  Velocity 100
000000t:  Note on ::  Channel 9.  Note 51.  Velocity 10
000001t:  Note on ::  Channel 9.  Note 51.  Velocity 0
000000t:  Note on ::  Channel 9.  Note 42.  Velocity 0
000047t:  Note on ::  Channel 9.  Note 42.  Velocity 100
000000t:  Note on ::  Channel 9.  Note 51.  Velocity 10
000001t:  Note on ::  Channel 9.  Note 51.  Velocity 0
000000t:  Note on ::  Channel 9.  Note 42.  Velocity 0
000047t:  Note on ::  Channel 9.  Note 42.  Velocity 100
000000t:  Note on ::  Channel 9.  Note 51.  Velocity 10
000001t:  Note on ::  Channel 9.  Note 51.  Velocity 0
000000t:  Note on ::  Channel 9.  Note 42.  Velocity 0
000047t:  Note on ::  Channel 9.  Note 42.  Velocity 100
000000t:  Note on ::  Channel 9.  Note 51.  Velocity 10
000001t:  Note on ::  Channel 9.  Note 51.  Velocity 0
000000t:  Note on ::  Channel 9.  Note 42.  Velocity 0
000047t:  Note on ::  Channel 9.  Note 36.  Velocity 82
000001t:  Note on ::  Channel 9.  Note 36.  Velocity 0
000071t:  Note on ::  Channel 9.  Note 36.  Velocity 64
000001t:  Note on ::  Channel 9.  Note 36.  Velocity 0
000023t:  Note on ::  Channel 9.  Note 36.  Velocity 82
000001t:  Note on ::  Channel 9.  Note 36.  Velocity 0
000045t:  Note on ::  Channel 9.  Note 38.  Velocity 28
000001t:  Note on ::  Channel 9.  Note 38.  Velocity 0
000001t:  Note on ::  Channel 9.  Note 38.  Velocity 100
000000t:  Note on ::  Channel 9.  Note 41.  Velocity 118
000000t:  Note on ::  Channel 9.  Note 55.  Velocity 106
000001t:  Note on ::  Channel 9.  Note 55.  Velocity 0
000000t:  Note on ::  Channel 9.  Note 41.  Velocity 0
000000t:  Note on ::  Channel 9.  Note 38.  Velocity 0
000047t:  Note on ::  Channel 9.  Note 42.  Velocity 100
000000t:  Note on ::  Channel 9.  Note 51.  Velocity 10
000000t:  Note on ::  Channel 9.  Note 55.  Velocity 8
000001t:  Note on ::  Channel 9.  Note 55.  Velocity 0
000000t:  Note on ::  Channel 9.  Note 51.  Velocity 0
000000t:  Note on ::  Channel 9.  Note 42.  Velocity 0
000047t:  Note on ::  Channel 9.  Note 42.  Velocity 100
000000t:  Note on ::  Channel 9.  Note 51.  Velocity 10
000001t:  Note on ::  Channel 9.  Note 51.  Velocity 0
000000t:  Note on ::  Channel 9.  Note 42.  Velocity 0
000047t:  Note on ::  Channel 9.  Note 42.  Velocity 100
000000t:  Note on ::  Channel 9.  Note 51.  Velocity 10
000001t:  Note on ::  Channel 9.  Note 51.  Velocity 0
000000t:  Note on ::  Channel 9.  Note 42.  Velocity 0
000047t:  Note on ::  Channel 9.  Note 42.  Velocity 100
000000t:  Note on ::  Channel 9.  Note 51.  Velocity 10
000001t:  Note on ::  Channel 9.  Note 51.  Velocity 0
000000t:  Note on ::  Channel 9.  Note 42.  Velocity 0
000047t:  Note on ::  Channel 9.  Note 42.  Velocity 100
000000t:  Note on ::  Channel 9.  Note 51.  Velocity 10
000001t:  Note on ::  Channel 9.  Note 51.  Velocity 0
000000t:  Note on ::  Channel 9.  Note 42.  Velocity 0
000047t:  Note on ::  Channel 9.  Note 42.  Velocity 100
000000t:  Note on ::  Channel 9.  Note 51.  Velocity 10
000001t:  Note on ::  Channel 9.  Note 51.  Velocity 0
000000t:  Note on ::  Channel 9.  Note 42.  Velocity 0
000047t:  Note on ::  Channel 9.  Note 36.  Velocity 82
000001t:  Note on ::  Channel 9.  Note 36.  Velocity 0
000071t:  Note on ::  Channel 9.  Note 36.  Velocity 64
000001t:  Note on ::  Channel 9.  Note 36.  Velocity 0
000023t:  Note on ::  Channel 9.  Note 36.  Velocity 82
000001t:  Note on ::  Channel 9.  Note 36.  Velocity 0
000045t:  Note on ::  Channel 9.  Note 38.  Velocity 28
000001t:  Note on ::  Channel 9.  Note 38.  Velocity 0
000001t:  Note on ::  Channel 9.  Note 38.  Velocity 100
000000t:  Note on ::  Channel 9.  Note 41.  Velocity 118
000000t:  Note on ::  Channel 9.  Note 55.  Velocity 106
000001t:  Note on ::  Channel 9.  Note 55.  Velocity 0
000000t:  Note on ::  Channel 9.  Note 41.  Velocity 0
000000t:  Note on ::  Channel 9.  Note 38.  Velocity 0
000047t:  Note on ::  Channel 9.  Note 36.  Velocity 82
000000t:  Note on ::  Channel 9.  Note 55.  Velocity 8
000001t:  Note on ::  Channel 9.  Note 55.  Velocity 0
000000t:  Note on ::  Channel 9.  Note 36.  Velocity 0
000023t:  Note on ::  Channel 9.  Note 36.  Velocity 64
000001t:  Note on ::  Channel 9.  Note 36.  Velocity 0
000047t:  Note on ::  Channel 9.  Note 36.  Velocity 64
000001t:  Note on ::  Channel 9.  Note 36.  Velocity 0
000023t:  Note on ::  Channel 9.  Note 36.  Velocity 82
000001t:  Note on ::  Channel 9.  Note 36.  Velocity 0
000045t:  Note on ::  Channel 9.  Note 38.  Velocity 28
000001t:  Note on ::  Channel 9.  Note 38.  Velocity 0
000001t:  Note on ::  Channel 9.  Note 38.  Velocity 100
000000t:  Note on ::  Channel 9.  Note 41.  Velocity 118
000000t:  Note on ::  Channel 9.  Note 55.  Velocity 106
000001t:  Note on ::  Channel 9.  Note 55.  Velocity 0
000000t:  Note on ::  Channel 9.  Note 41.  Velocity 0
000000t:  Note on ::  Channel 9.  Note 38.  Velocity 0
000047t:  Note on ::  Channel 9.  Note 36.  Velocity 82
000000t:  Note on ::  Channel 9.  Note 42.  Velocity 82
000000t:  Note on ::  Channel 9.  Note 55.  Velocity 8
000001t:  Note on ::  Channel 9.  Note 55.  Velocity 0
000000t:  Note on ::  Channel 9.  Note 42.  Velocity 0
000000t:  Note on ::  Channel 9.  Note 36.  Velocity 0
000047t:  Note on ::  Channel 9.  Note 38.  Velocity 82
000000t:  Note on ::  Channel 9.  Note 42.  Velocity 82
000001t:  Note on ::  Channel 9.  Note 42.  Velocity 0
000000t:  Note on ::  Channel 9.  Note 38.  Velocity 0
000047t:  Note on ::  Channel 9.  Note 36.  Velocity 64
000000t:  Note on ::  Channel 9.  Note 42.  Velocity 82
000001t:  Note on ::  Channel 9.  Note 42.  Velocity 0
000000t:  Note on ::  Channel 9.  Note 36.  Velocity 0
000023t:  Note on ::  Channel 9.  Note 36.  Velocity 82
000000t:  Note on ::  Channel 9.  Note 42.  Velocity 82
000001t:  Note on ::  Channel 9.  Note 42.  Velocity 0
000000t:  Note on ::  Channel 9.  Note 36.  Velocity 0
000023t:  Note on ::  Channel 9.  Note 38.  Velocity 82
000000t:  Note on ::  Channel 9.  Note 42.  Velocity 82
000001t:  Note on ::  Channel 9.  Note 42.  Velocity 0
000000t:  Note on ::  Channel 9.  Note 38.  Velocity 0
000047t:  Note on ::  Channel 9.  Note 36.  Velocity 82
000000t:  Note on ::  Channel 9.  Note 42.  Velocity 82
000001t:  Note on ::  Channel 9.  Note 42.  Velocity 0
000000t:  Note on ::  Channel 9.  Note 36.  Velocity 0
000047t:  Note on ::  Channel 9.  Note 38.  Velocity 82
000000t:  Note on ::  Channel 9.  Note 42.  Velocity 82
000001t:  Note on ::  Channel 9.  Note 42.  Velocity 0
000000t:  Note on ::  Channel 9.  Note 38.  Velocity 0
000047t:  Note on ::  Channel 9.  Note 36.  Velocity 64
000000t:  Note on ::  Channel 9.  Note 42.  Velocity 82
000001t:  Note on ::  Channel 9.  Note 42.  Velocity 0
000000t:  Note on ::  Channel 9.  Note 36.  Velocity 0
000023t:  Note on ::  Channel 9.  Note 36.  Velocity 82
000000t:  Note on ::  Channel 9.  Note 42.  Velocity 82
000001t:  Note on ::  Channel 9.  Note 42.  Velocity 0
000000t:  Note on ::  Channel 9.  Note 36.  Velocity 0
000023t:  Note on ::  Channel 9.  Note 38.  Velocity 82
000000t:  Note on ::  Channel 9.  Note 42.  Velocity 82
000001t:  Note on ::  Channel 9.  Note 42.  Velocity 0
000000t:  Note on ::  Channel 9.  Note 38.  Velocity 0
000047t:  Note on ::  Channel 9.  Note 36.  Velocity 82
000000t:  Note on ::  Channel 9.  Note 42.  Velocity 82
000001t:  Note on ::  Channel 9.  Note 42.  Velocity 0
000000t:  Note on ::  Channel 9.  Note 36.  Velocity 0
000047t:  Note on ::  Channel 9.  Note 38.  Velocity 82
000000t:  Note on ::  Channel 9.  Note 42.  Velocity 82
000001t:  Note on ::  Channel 9.  Note 42.  Velocity 0
000000t:  Note on ::  Channel 9.  Note 38.  Velocity 0
000047t:  Note on ::  Channel 9.  Note 36.  Velocity 64
000000t:  Note on ::  Channel 9.  Note 42.  Velocity 82
000001t:  Note on ::  Channel 9.  Note 42.  Velocity 0
000000t:  Note on ::  Channel 9.  Note 36.  Velocity 0
000023t:  Note on ::  Channel 9.  Note 36.  Velocity 82
000000t:  Note on ::  Channel 9.  Note 42.  Velocity 82
000001t:  Note on ::  Channel 9.  Note 42.  Velocity 0
000000t:  Note on ::  Channel 9.  Note 36.  Velocity 0
000023t:  Note on ::  Channel 9.  Note 38.  Velocity 82
000000t:  Note on ::  Channel 9.  Note 42.  Velocity 82
000001t:  Note on ::  Channel 9.  Note 42.  Velocity 0
000000t:  Note on ::  Channel 9.  Note 38.  Velocity 0
000047t:  Note on ::  Channel 9.  Note 36.  Velocity 82
000000t:  Note on ::  Channel 9.  Note 42.  Velocity 82
000001t:  Note on ::  Channel 9.  Note 42.  Velocity 0
000000t:  Note on ::  Channel 9.  Note 36.  Velocity 0
000047t:  Note on ::  Channel 9.  Note 38.  Velocity 82
000000t:  Note on ::  Channel 9.  Note 42.  Velocity 82
000001t:  Note on ::  Channel 9.  Note 42.  Velocity 0
000000t:  Note on ::  Channel 9.  Note 38.  Velocity 0
000047t:  Note on ::  Channel 9.  Note 36.  Velocity 64
000000t:  Note on ::  Channel 9.  Note 42.  Velocity 82
000001t:  Note on ::  Channel 9.  Note 42.  Velocity 0
000000t:  Note on ::  Channel 9.  Note 36.  Velocity 0
000023t:  Note on ::  Channel 9.  Note 36.  Velocity 82
000000t:  Note on ::  Channel 9.  Note 42.  Velocity 82
000001t:  Note on ::  Channel 9.  Note 42.  Velocity 0
000000t:  Note on ::  Channel 9.  Note 36.  Velocity 0
000023t:  Note on ::  Channel 9.  Note 38.  Velocity 82
000000t:  Note on ::  Channel 9.  Note 42.  Velocity 82
000001t:  Note on ::  Channel 9.  Note 42.  Velocity 0
000000t:  Note on ::  Channel 9.  Note 38.  Velocity 0
000047t:  Note on ::  Channel 9.  Note 36.  Velocity 82
000000t:  Note on ::  Channel 9.  Note 42.  Velocity 82
000001t:  Note on ::  Channel 9.  Note 42.  Velocity 0
000000t:  Note on ::  Channel 9.  Note 36.  Velocity 0
000047t:  Note on ::  Channel 9.  Note 38.  Velocity 82
000000t:  Note on ::  Channel 9.  Note 42.  Velocity 82
000001t:  Note on ::  Channel 9.  Note 42.  Velocity 0
000000t:  Note on ::  Channel 9.  Note 38.  Velocity 0
000047t:  Note on ::  Channel 9.  Note 36.  Velocity 64
000000t:  Note on ::  Channel 9.  Note 42.  Velocity 82
000001t:  Note on ::  Channel 9.  Note 42.  Velocity 0
000000t:  Note on ::  Channel 9.  Note 36.  Velocity 0
000023t:  Note on ::  Channel 9.  Note 36.  Velocity 82
000000t:  Note on ::  Channel 9.  Note 42.  Velocity 82
000001t:  Note on ::  Channel 9.  Note 42.  Velocity 0
000000t:  Note on ::  Channel 9.  Note 36.  Velocity 0
000023t:  Note on ::  Channel 9.  Note 38.  Velocity 82
000000t:  Note on ::  Channel 9.  Note 42.  Velocity 82
000001t:  Note on ::  Channel 9.  Note 42.  Velocity 0
000000t:  Note on ::  Channel 9.  Note 38.  Velocity 0
000047t:  Note on ::  Channel 9.  Note 36.  Velocity 82
000000t:  Note on ::  Channel 9.  Note 42.  Velocity 82
000001t:  Note on ::  Channel 9.  Note 42.  Velocity 0
000000t:  Note on ::  Channel 9.  Note 36.  Velocity 0
000047t:  Note on ::  Channel 9.  Note 38.  Velocity 82
000000t:  Note on ::  Channel 9.  Note 42.  Velocity 82
000001t:  Note on ::  Channel 9.  Note 42.  Velocity 0
000000t:  Note on ::  Channel 9.  Note 38.  Velocity 0
000047t:  Note on ::  Channel 9.  Note 36.  Velocity 64
000000t:  Note on ::  Channel 9.  Note 42.  Velocity 82
000001t:  Note on ::  Channel 9.  Note 42.  Velocity 0
000000t:  Note on ::  Channel 9.  Note 36.  Velocity 0
000023t:  Note on ::  Channel 9.  Note 36.  Velocity 82
000000t:  Note on ::  Channel 9.  Note 42.  Velocity 82
000001t:  Note on ::  Channel 9.  Note 42.  Velocity 0
000000t:  Note on ::  Channel 9.  Note 36.  Velocity 0
000023t:  Note on ::  Channel 9.  Note 38.  Velocity 82
000000t:  Note on ::  Channel 9.  Note 42.  Velocity 82
000001t:  Note on ::  Channel 9.  Note 42.  Velocity 0
000000t:  Note on ::  Channel 9.  Note 38.  Velocity 0
000047t:  Note on ::  Channel 9.  Note 36.  Velocity 94
000000t:  Note on ::  Channel 9.  Note 49.  Velocity 82
000000t:  Note on ::  Channel 9.  Note 51.  Velocity 82
000001t:  Note on ::  Channel 9.  Note 51.  Velocity 0
000000t:  Note on ::  Channel 9.  Note 49.  Velocity 0
000000t:  Note on ::  Channel 9.  Note 36.  Velocity 0
000191t:  Note on ::  Channel 9.  Note 36.  Velocity 94
000000t:  Note on ::  Channel 9.  Note 49.  Velocity 82
000000t:  Note on ::  Channel 9.  Note 51.  Velocity 82
000001t:  Note on ::  Channel 9.  Note 51.  Velocity 0
000000t:  Note on ::  Channel 9.  Note 49.  Velocity 0
000000t:  Note on ::  Channel 9.  Note 36.  Velocity 0
000191t:  Note on ::  Channel 9.  Note 36.  Velocity 94
000000t:  Note on ::  Channel 9.  Note 49.  Velocity 82
000000t:  Note on ::  Channel 9.  Note 51.  Velocity 82
000001t:  Note on ::  Channel 9.  Note 51.  Velocity 0
000000t:  Note on ::  Channel 9.  Note 49.  Velocity 0
000000t:  Note on ::  Channel 9.  Note 36.  Velocity 0
000191t:  Note on ::  Channel 9.  Note 36.  Velocity 94
000000t:  Note on ::  Channel 9.  Note 49.  Velocity 82
000000t:  Note on ::  Channel 9.  Note 51.  Velocity 82
000001t:  Note on ::  Channel 9.  Note 51.  Velocity 0
000000t:  Note on ::  Channel 9.  Note 49.  Velocity 0
000000t:  Note on ::  Channel 9.  Note 36.  Velocity 0
000191t:  Note on ::  Channel 9.  Note 46.  Velocity 87
000001t:  Note on ::  Channel 9.  Note 46.  Velocity 0
000023t:  Note on ::  Channel 9.  Note 42.  Velocity 36
000001t:  Note on ::  Channel 9.  Note 42.  Velocity 0
000023t:  Note on ::  Channel 9.  Note 42.  Velocity 127
000001t:  Note on ::  Channel 9.  Note 42.  Velocity 0
000011t:  Note on ::  Channel 9.  Note 42.  Velocity 41
000001t:  Note on ::  Channel 9.  Note 42.  Velocity 0
000011t:  Note on ::  Channel 9.  Note 42.  Velocity 64
000001t:  Note on ::  Channel 9.  Note 42.  Velocity 0
000011t:  Note on ::  Channel 9.  Note 42.  Velocity 41
000001t:  Note on ::  Channel 9.  Note 42.  Velocity 0
000011t:  Note on ::  Channel 9.  Note 42.  Velocity 106
000001t:  Note on ::  Channel 9.  Note 42.  Velocity 0
000011t:  Note on ::  Channel 9.  Note 42.  Velocity 41
000001t:  Note on ::  Channel 9.  Note 42.  Velocity 0
000011t:  Note on ::  Channel 9.  Note 42.  Velocity 64
000001t:  Note on ::  Channel 9.  Note 42.  Velocity 0
000011t:  Note on ::  Channel 9.  Note 42.  Velocity 41
000001t:  Note on ::  Channel 9.  Note 42.  Velocity 0
000011t:  Note on ::  Channel 9.  Note 42.  Velocity 92
000001t:  Note on ::  Channel 9.  Note 42.  Velocity 0
000011t:  Note on ::  Channel 9.  Note 42.  Velocity 41
000001t:  Note on ::  Channel 9.  Note 42.  Velocity 0
000011t:  Note on ::  Channel 9.  Note 42.  Velocity 64
000001t:  Note on ::  Channel 9.  Note 42.  Velocity 0
000011t:  Note on ::  Channel 9.  Note 42.  Velocity 41
000001t:  Note on ::  Channel 9.  Note 42.  Velocity 0
000011t:  Note on ::  Channel 9.  Note 42.  Velocity 92
000001t:  Note on ::  Channel 9.  Note 42.  Velocity 0
000011t:  Note on ::  Channel 9.  Note 42.  Velocity 41
000001t:  Note on ::  Channel 9.  Note 42.  Velocity 0
000011t:  Note on ::  Channel 9.  Note 42.  Velocity 64
000001t:  Note on ::  Channel 9.  Note 42.  Velocity 0
000011t:  Note on ::  Channel 9.  Note 42.  Velocity 41
000001t:  Note on ::  Channel 9.  Note 42.  Velocity 0
000011t:  Note on ::  Channel 9.  Note 42.  Velocity 127
000001t:  Note on ::  Channel 9.  Note 42.  Velocity 0
000011t:  Note on ::  Channel 9.  Note 42.  Velocity 41
000001t:  Note on ::  Channel 9.  Note 42.  Velocity 0
000011t:  Note on ::  Channel 9.  Note 42.  Velocity 64
000001t:  Note on ::  Channel 9.  Note 42.  Velocity 0
000011t:  Note on ::  Channel 9.  Note 42.  Velocity 41
000001t:  Note on ::  Channel 9.  Note 42.  Velocity 0
000011t:  Note on ::  Channel 9.  Note 42.  Velocity 87
000001t:  Note on ::  Channel 9.  Note 42.  Velocity 0
000011t:  Note on ::  Channel 9.  Note 42.  Velocity 41
000001t:  Note on ::  Channel 9.  Note 42.  Velocity 0
000011t:  Note on ::  Channel 9.  Note 42.  Velocity 64
000001t:  Note on ::  Channel 9.  Note 42.  Velocity 0
000011t:  Note on ::  Channel 9.  Note 42.  Velocity 41
000001t:  Note on ::  Channel 9.  Note 42.  Velocity 0
000011t:  Note on ::  Channel 9.  Note 42.  Velocity 127
000001t:  Note on ::  Channel 9.  Note 42.  Velocity 0
000011t:  Note on ::  Channel 9.  Note 42.  Velocity 41
000001t:  Note on ::  Channel 9.  Note 42.  Velocity 0
000011t:  Note on ::  Channel 9.  Note 55.  Velocity 106
000000t:  Note on ::  Channel 9.  Note 42.  Velocity 64
000000t:  Note on ::  Channel 9.  Note 36.  Velocity 87
000001t:  Note on ::  Channel 9.  Note 36.  Velocity 0
000000t:  Note on ::  Channel 9.  Note 42.  Velocity 0
000000t:  Note on ::  Channel 9.  Note 55.  Velocity 0
000011t:  Note on ::  Channel 9.  Note 42.  Velocity 41
000001t:  Note on ::  Channel 9.  Note 42.  Velocity 0
000011t:  Note on ::  Channel 9.  Note 42.  Velocity 41
000001t:  Note on ::  Channel 9.  Note 42.  Velocity 0
000011t:  Note on ::  Channel 9.  Note 42.  Velocity 41
000001t:  Note on ::  Channel 9.  Note 42.  Velocity 0
000011t:  Note on ::  Channel 9.  Note 42.  Velocity 64
000001t:  Note on ::  Channel 9.  Note 42.  Velocity 0
000011t:  Note on ::  Channel 9.  Note 42.  Velocity 41
000001t:  Note on ::  Channel 9.  Note 42.  Velocity 0
000011t:  Note on ::  Channel 9.  Note 42.  Velocity 127
000001t:  Note on ::  Channel 9.  Note 42.  Velocity 0
000011t:  Note on ::  Channel 9.  Note 42.  Velocity 41
000001t:  Note on ::  Channel 9.  Note 42.  Velocity 0
000011t:  Note on ::  Channel 9.  Note 42.  Velocity 64
000001t:  Note on ::  Channel 9.  Note 42.  Velocity 0
000011t:  Note on ::  Channel 9.  Note 42.  Velocity 41
000001t:  Note on ::  Channel 9.  Note 42.  Velocity 0
000011t:  Note on ::  Channel 9.  Note 42.  Velocity 87
000001t:  Note on ::  Channel 9.  Note 42.  Velocity 0
000011t:  Note on ::  Channel 9.  Note 42.  Velocity 41
000001t:  Note on ::  Channel 9.  Note 42.  Velocity 0
000011t:  Note on ::  Channel 9.  Note 42.  Velocity 127
000000t:  Note on ::  Channel 9.  Note 36.  Velocity 87
000001t:  Note on ::  Channel 9.  Note 36.  Velocity 0
000000t:  Note on ::  Channel 9.  Note 42.  Velocity 0
000011t:  Note on ::  Channel 9.  Note 42.  Velocity 41
000001t:  Note on ::  Channel 9.  Note 42.  Velocity 0
000011t:  Note on ::  Channel 9.  Note 42.  Velocity 87
000001t:  Note on ::  Channel 9.  Note 42.  Velocity 0
000011t:  Note on ::  Channel 9.  Note 42.  Velocity 41
000001t:  Note on ::  Channel 9.  Note 42.  Velocity 0
000011t:  Note on ::  Channel 9.  Note 42.  Velocity 127
000000t:  Note on ::  Channel 9.  Note 36.  Velocity 87
000001t:  Note on ::  Channel 9.  Note 36.  Velocity 0
000000t:  Note on ::  Channel 9.  Note 42.  Velocity 0
000011t:  Note on ::  Channel 9.  Note 42.  Velocity 41
000001t:  Note on ::  Channel 9.  Note 42.  Velocity 0
000011t:  Note on ::  Channel 9.  Note 42.  Velocity 87
000001t:  Note on ::  Channel 9.  Note 42.  Velocity 0
000011t:  Note on ::  Channel 9.  Note 42.  Velocity 41
000001t:  Note on ::  Channel 9.  Note 42.  Velocity 0
000011t:  Note on ::  Channel 9.  Note 42.  Velocity 64
000001t:  Note on ::  Channel 9.  Note 42.  Velocity 0
000011t:  Note on ::  Channel 9.  Note 42.  Velocity 41
000001t:  Note on ::  Channel 9.  Note 42.  Velocity 0
000011t:  Note on ::  Channel 9.  Note 42.  Velocity 127
000001t:  Note on ::  Channel 9.  Note 42.  Velocity 0
000011t:  Note on ::  Channel 9.  Note 42.  Velocity 41
000001t:  Note on ::  Channel 9.  Note 42.  Velocity 0
000011t:  Note on ::  Channel 9.  Note 42.  Velocity 64
000001t:  Note on ::  Channel 9.  Note 42.  Velocity 0
000011t:  Note on ::  Channel 9.  Note 42.  Velocity 41
000001t:  Note on ::  Channel 9.  Note 42.  Velocity 0
000011t:  Note on ::  Channel 9.  Note 42.  Velocity 87
000001t:  Note on ::  Channel 9.  Note 42.  Velocity 0
000011t:  Note on ::  Channel 9.  Note 42.  Velocity 41
000001t:  Note on ::  Channel 9.  Note 42.  Velocity 0
000011t:  Note on ::  Channel 9.  Note 42.  Velocity 64
000001t:  Note on ::  Channel 9.  Note 42.  Velocity 0
000011t:  Note on ::  Channel 9.  Note 42.  Velocity 41
000001t:  Note on ::  Channel 9.  Note 42.  Velocity 0
000011t:  Note on ::  Channel 9.  Note 42.  Velocity 127
000001t:  Note on ::  Channel 9.  Note 42.  Velocity 0
000011t:  Note on ::  Channel 9.  Note 42.  Velocity 41
000001t:  Note on ::  Channel 9.  Note 42.  Velocity 0
000011t:  Note on ::  Channel 9.  Note 42.  Velocity 64
000001t:  Note on ::  Channel 9.  Note 42.  Velocity 0
000011t:  Note on ::  Channel 9.  Note 42.  Velocity 41
000001t:  Note on ::  Channel 9.  Note 42.  Velocity 0
000011t:  Note on ::  Channel 9.  Note 36.  Velocity 110
000000t:  Note on ::  Channel 9.  Note 46.  Velocity 87
000001t:  Note on ::  Channel 9.  Note 46.  Velocity 0
000000t:  Note on ::  Channel 9.  Note 36.  Velocity 0
000023t:  Note on ::  Channel 9.  Note 42.  Velocity 36
000001t:  Note on ::  Channel 9.  Note 42.  Velocity 0
000023t:  Note on ::  Channel 9.  Note 42.  Velocity 127
000001t:  Note on ::  Channel 9.  Note 42.  Velocity 0
000011t:  Note on ::  Channel 9.  Note 42.  Velocity 41
000001t:  Note on ::  Channel 9.  Note 42.  Velocity 0
000011t:  Note on ::  Channel 9.  Note 42.  Velocity 64
000001t:  Note on ::  Channel 9.  Note 42.  Velocity 0
000011t:  Note on ::  Channel 9.  Note 42.  Velocity 41
000001t:  Note on ::  Channel 9.  Note 42.  Velocity 0
000011t:  Note on ::  Channel 9.  Note 42.  Velocity 87
000001t:  Note on ::  Channel 9.  Note 42.  Velocity 0
000011t:  Note on ::  Channel 9.  Note 42.  Velocity 41
000001t:  Note on ::  Channel 9.  Note 42.  Velocity 0
000011t:  Note on ::  Channel 9.  Note 42.  Velocity 64
000001t:  Note on ::  Channel 9.  Note 42.  Velocity 0
000011t:  Note on ::  Channel 9.  Note 42.  Velocity 41
000001t:  Note on ::  Channel 9.  Note 42.  Velocity 0
000011t:  Note on ::  Channel 9.  Note 42.  Velocity 127
000001t:  Note on ::  Channel 9.  Note 42.  Velocity 0
000011t:  Note on ::  Channel 9.  Note 42.  Velocity 41
000001t:  Note on ::  Channel 9.  Note 42.  Velocity 0
000011t:  Note on ::  Channel 9.  Note 42.  Velocity 64
000001t:  Note on ::  Channel 9.  Note 42.  Velocity 0
000011t:  Note on ::  Channel 9.  Note 42.  Velocity 41
000001t:  Note on ::  Channel 9.  Note 42.  Velocity 0
000011t:  Note on ::  Channel 9.  Note 42.  Velocity 87
000001t:  Note on ::  Channel 9.  Note 42.  Velocity 0
000011t:  Note on ::  Channel 9.  Note 42.  Velocity 41
000001t:  Note on ::  Channel 9.  Note 42.  Velocity 0
000011t:  Note on ::  Channel 9.  Note 42.  Velocity 64
000001t:  Note on ::  Channel 9.  Note 42.  Velocity 0
000011t:  Note on ::  Channel 9.  Note 42.  Velocity 41
000001t:  Note on ::  Channel 9.  Note 42.  Velocity 0
000011t:  Note on ::  Channel 9.  Note 42.  Velocity 127
000001t:  Note on ::  Channel 9.  Note 42.  Velocity 0
000011t:  Note on ::  Channel 9.  Note 42.  Velocity 41
000001t:  Note on ::  Channel 9.  Note 42.  Velocity 0
000011t:  Note on ::  Channel 9.  Note 42.  Velocity 64
000001t:  Note on ::  Channel 9.  Note 42.  Velocity 0
000011t:  Note on ::  Channel 9.  Note 42.  Velocity 41
000001t:  Note on ::  Channel 9.  Note 42.  Velocity 0
000011t:  Note on ::  Channel 9.  Note 42.  Velocity 87
000001t:  Note on ::  Channel 9.  Note 42.  Velocity 0
000011t:  Note on ::  Channel 9.  Note 42.  Velocity 41
000001t:  Note on ::  Channel 9.  Note 42.  Velocity 0
000011t:  Note on ::  Channel 9.  Note 42.  Velocity 64
000001t:  Note on ::  Channel 9.  Note 42.  Velocity 0
000011t:  Note on ::  Channel 9.  Note 42.  Velocity 41
000001t:  Note on ::  Channel 9.  Note 42.  Velocity 0
000011t:  Note on ::  Channel 9.  Note 42.  Velocity 127
000001t:  Note on ::  Channel 9.  Note 42.  Velocity 0
000011t:  Note on ::  Channel 9.  Note 42.  Velocity 41
000001t:  Note on ::  Channel 9.  Note 42.  Velocity 0
000011t:  Note on ::  Channel 9.  Note 42.  Velocity 64
000000t:  Note on ::  Channel 9.  Note 36.  Velocity 87
000000t:  Note on ::  Channel 9.  Note 55.  Velocity 106
000001t:  Note on ::  Channel 9.  Note 55.  Velocity 0
000000t:  Note on ::  Channel 9.  Note 36.  Velocity 0
000000t:  Note on ::  Channel 9.  Note 42.  Velocity 0
000011t:  Note on ::  Channel 9.  Note 42.  Velocity 41
000001t:  Note on ::  Channel 9.  Note 42.  Velocity 0
000011t:  Note on ::  Channel 9.  Note 42.  Velocity 87
000001t:  Note on ::  Channel 9.  Note 42.  Velocity 0
000011t:  Note on ::  Channel 9.  Note 42.  Velocity 41
000001t:  Note on ::  Channel 9.  Note 42.  Velocity 0
000011t:  Note on ::  Channel 9.  Note 42.  Velocity 64
000001t:  Note on ::  Channel 9.  Note 42.  Velocity 0
000011t:  Note on ::  Channel 9.  Note 42.  Velocity 41
000001t:  Note on ::  Channel 9.  Note 42.  Velocity 0
000011t:  Note on ::  Channel 9.  Note 42.  Velocity 127
000001t:  Note on ::  Channel 9.  Note 42.  Velocity 0
000011t:  Note on ::  Channel 9.  Note 42.  Velocity 41
000001t:  Note on ::  Channel 9.  Note 42.  Velocity 0
000011t:  Note on ::  Channel 9.  Note 42.  Velocity 64
000001t:  Note on ::  Channel 9.  Note 42.  Velocity 0
000011t:  Note on ::  Channel 9.  Note 42.  Velocity 41
000001t:  Note on ::  Channel 9.  Note 42.  Velocity 0
000011t:  Note on ::  Channel 9.  Note 42.  Velocity 87
000001t:  Note on ::  Channel 9.  Note 42.  Velocity 0
000011t:  Note on ::  Channel 9.  Note 42.  Velocity 41
000001t:  Note on ::  Channel 9.  Note 42.  Velocity 0
000011t:  Note on ::  Channel 9.  Note 42.  Velocity 127
000000t:  Note on ::  Channel 9.  Note 36.  Velocity 87
000001t:  Note on ::  Channel 9.  Note 36.  Velocity 0
000000t:  Note on ::  Channel 9.  Note 42.  Velocity 0
000011t:  Note on ::  Channel 9.  Note 42.  Velocity 41
000001t:  Note on ::  Channel 9.  Note 42.  Velocity 0
000011t:  Note on ::  Channel 9.  Note 42.  Velocity 87
000001t:  Note on ::  Channel 9.  Note 42.  Velocity 0
000011t:  Note on ::  Channel 9.  Note 42.  Velocity 41
000001t:  Note on ::  Channel 9.  Note 42.  Velocity 0
000011t:  Note on ::  Channel 9.  Note 42.  Velocity 127
000000t:  Note on ::  Channel 9.  Note 36.  Velocity 87
000001t:  Note on ::  Channel 9.  Note 36.  Velocity 0
000000t:  Note on ::  Channel 9.  Note 42.  Velocity 0
000011t:  Note on ::  Channel 9.  Note 42.  Velocity 41
000001t:  Note on ::  Channel 9.  Note 42.  Velocity 0
000011t:  Note on ::  Channel 9.  Note 42.  Velocity 87
000001t:  Note on ::  Channel 9.  Note 42.  Velocity 0
000011t:  Note on ::  Channel 9.  Note 42.  Velocity 41
000001t:  Note on ::  Channel 9.  Note 42.  Velocity 0
000011t:  Note on ::  Channel 9.  Note 42.  Velocity 64
000001t:  Note on ::  Channel 9.  Note 42.  Velocity 0
000011t:  Note on ::  Channel 9.  Note 42.  Velocity 41
000001t:  Note on ::  Channel 9.  Note 42.  Velocity 0
000011t:  Note on ::  Channel 9.  Note 42.  Velocity 127
000001t:  Note on ::  Channel 9.  Note 42.  Velocity 0
000011t:  Note on ::  Channel 9.  Note 42.  Velocity 41
000001t:  Note on ::  Channel 9.  Note 42.  Velocity 0
000011t:  Note on ::  Channel 9.  Note 42.  Velocity 64
000001t:  Note on ::  Channel 9.  Note 42.  Velocity 0
000011t:  Note on ::  Channel 9.  Note 42.  Velocity 41
000001t:  Note on ::  Channel 9.  Note 42.  Velocity 0
000011t:  Note on ::  Channel 9.  Note 42.  Velocity 87
000001t:  Note on ::  Channel 9.  Note 42.  Velocity 0
000011t:  Note on ::  Channel 9.  Note 42.  Velocity 41
000001t:  Note on ::  Channel 9.  Note 42.  Velocity 0
000011t:  Note on ::  Channel 9.  Note 42.  Velocity 64
000001t:  Note on ::  Channel 9.  Note 42.  Velocity 0
000011t:  Note on ::  Channel 9.  Note 42.  Velocity 41
000001t:  Note on ::  Channel 9.  Note 42.  Velocity 0
000011t:  Note on ::  Channel 9.  Note 42.  Velocity 127
000001t:  Note on ::  Channel 9.  Note 42.  Velocity 0
000011t:  Note on ::  Channel 9.  Note 42.  Velocity 41
000001t:  Note on ::  Channel 9.  Note 42.  Velocity 0
000011t:  Note on ::  Channel 9.  Note 42.  Velocity 64
000001t:  Note on ::  Channel 9.  Note 42.  Velocity 0
000011t:  Note on ::  Channel 9.  Note 42.  Velocity 41
000001t:  Note on ::  Channel 9.  Note 42.  Velocity 0
000011t:  Note on ::  Channel 9.  Note 36.  Velocity 110
000000t:  Note on ::  Channel 9.  Note 46.  Velocity 87
000001t:  Note on ::  Channel 9.  Note 46.  Velocity 0
000000t:  Note on ::  Channel 9.  Note 36.  Velocity 0
000023t:  Note on ::  Channel 9.  Note 42.  Velocity 36
000001t:  Note on ::  Channel 9.  Note 42.  Velocity 0
000023t:  Note on ::  Channel 9.  Note 42.  Velocity 127
000001t:  Note on ::  Channel 9.  Note 42.  Velocity 0
000011t:  Note on ::  Channel 9.  Note 42.  Velocity 41
000001t:  Note on ::  Channel 9.  Note 42.  Velocity 0
000011t:  Note on ::  Channel 9.  Note 42.  Velocity 64
000001t:  Note on ::  Channel 9.  Note 42.  Velocity 0
000011t:  Note on ::  Channel 9.  Note 42.  Velocity 41
000001t:  Note on ::  Channel 9.  Note 42.  Velocity 0
000011t:  Note on ::  Channel 9.  Note 42.  Velocity 87
000001t:  Note on ::  Channel 9.  Note 42.  Velocity 0
000011t:  Note on ::  Channel 9.  Note 42.  Velocity 41
000001t:  Note on ::  Channel 9.  Note 42.  Velocity 0
000011t:  Note on ::  Channel 9.  Note 42.  Velocity 64
000001t:  Note on ::  Channel 9.  Note 42.  Velocity 0
000011t:  Note on ::  Channel 9.  Note 42.  Velocity 41
000001t:  Note on ::  Channel 9.  Note 42.  Velocity 0
000011t:  Note on ::  Channel 9.  Note 42.  Velocity 127
000001t:  Note on ::  Channel 9.  Note 42.  Velocity 0
000011t:  Note on ::  Channel 9.  Note 42.  Velocity 41
000001t:  Note on ::  Channel 9.  Note 42.  Velocity 0
000011t:  Note on ::  Channel 9.  Note 42.  Velocity 64
000001t:  Note on ::  Channel 9.  Note 42.  Velocity 0
000011t:  Note on ::  Channel 9.  Note 42.  Velocity 41
000001t:  Note on ::  Channel 9.  Note 42.  Velocity 0
000011t:  Note on ::  Channel 9.  Note 42.  Velocity 87
000001t:  Note on ::  Channel 9.  Note 42.  Velocity 0
000011t:  Note on ::  Channel 9.  Note 42.  Velocity 41
000001t:  Note on ::  Channel 9.  Note 42.  Velocity 0
000011t:  Note on ::  Channel 9.  Note 42.  Velocity 64
000001t:  Note on ::  Channel 9.  Note 42.  Velocity 0
000011t:  Note on ::  Channel 9.  Note 42.  Velocity 41
000001t:  Note on ::  Channel 9.  Note 42.  Velocity 0
000011t:  Note on ::  Channel 9.  Note 42.  Velocity 127
000001t:  Note on ::  Channel 9.  Note 42.  Velocity 0
000011t:  Note on ::  Channel 9.  Note 42.  Velocity 41
000001t:  Note on ::  Channel 9.  Note 42.  Velocity 0
000011t:  Note on ::  Channel 9.  Note 42.  Velocity 64
000001t:  Note on ::  Channel 9.  Note 42.  Velocity 0
000011t:  Note on ::  Channel 9.  Note 42.  Velocity 41
000001t:  Note on ::  Channel 9.  Note 42.  Velocity 0
000011t:  Note on ::  Channel 9.  Note 42.  Velocity 87
000001t:  Note on ::  Channel 9.  Note 42.  Velocity 0
000011t:  Note on ::  Channel 9.  Note 42.  Velocity 41
000001t:  Note on ::  Channel 9.  Note 42.  Velocity 0
000011t:  Note on ::  Channel 9.  Note 42.  Velocity 64
000001t:  Note on ::  Channel 9.  Note 42.  Velocity 0
000011t:  Note on ::  Channel 9.  Note 42.  Velocity 41
000001t:  Note on ::  Channel 9.  Note 42.  Velocity 0
000011t:  Note on ::  Channel 9.  Note 42.  Velocity 127
000001t:  Note on ::  Channel 9.  Note 42.  Velocity 0
000011t:  Note on ::  Channel 9.  Note 42.  Velocity 41
000001t:  Note on ::  Channel 9.  Note 42.  Velocity 0
000011t:  Note on ::  Channel 9.  Note 42.  Velocity 64
000000t:  Note on ::  Channel 9.  Note 36.  Velocity 87
000000t:  Note on ::  Channel 9.  Note 55.  Velocity 106
000001t:  Note on ::  Channel 9.  Note 55.  Velocity 0
000000t:  Note on ::  Channel 9.  Note 36.  Velocity 0
000000t:  Note on ::  Channel 9.  Note 42.  Velocity 0
000011t:  Note on ::  Channel 9.  Note 42.  Velocity 41
000001t:  Note on ::  Channel 9.  Note 42.  Velocity 0
000011t:  Note on ::  Channel 9.  Note 42.  Velocity 87
000001t:  Note on ::  Channel 9.  Note 42.  Velocity 0
000011t:  Note on ::  Channel 9.  Note 42.  Velocity 41
000001t:  Note on ::  Channel 9.  Note 42.  Velocity 0
000011t:  Note on ::  Channel 9.  Note 42.  Velocity 64
000001t:  Note on ::  Channel 9.  Note 42.  Velocity 0
000011t:  Note on ::  Channel 9.  Note 42.  Velocity 41
000001t:  Note on ::  Channel 9.  Note 42.  Velocity 0
000011t:  Note on ::  Channel 9.  Note 42.  Velocity 127
000001t:  Note on ::  Channel 9.  Note 42.  Velocity 0
000011t:  Note on ::  Channel 9.  Note 42.  Velocity 41
000001t:  Note on ::  Channel 9.  Note 42.  Velocity 0
000011t:  Note on ::  Channel 9.  Note 42.  Velocity 64
000001t:  Note on ::  Channel 9.  Note 42.  Velocity 0
000011t:  Note on ::  Channel 9.  Note 42.  Velocity 41
000001t:  Note on ::  Channel 9.  Note 42.  Velocity 0
000011t:  Note on ::  Channel 9.  Note 42.  Velocity 87
000001t:  Note on ::  Channel 9.  Note 42.  Velocity 0
000011t:  Note on ::  Channel 9.  Note 42.  Velocity 41
000001t:  Note on ::  Channel 9.  Note 42.  Velocity 0
000011t:  Note on ::  Channel 9.  Note 42.  Velocity 127
000000t:  Note on ::  Channel 9.  Note 36.  Velocity 87
000001t:  Note on ::  Channel 9.  Note 36.  Velocity 0
000000t:  Note on ::  Channel 9.  Note 42.  Velocity 0
000011t:  Note on ::  Channel 9.  Note 42.  Velocity 41
000001t:  Note on ::  Channel 9.  Note 42.  Velocity 0
000011t:  Note on ::  Channel 9.  Note 42.  Velocity 87
000001t:  Note on ::  Channel 9.  Note 42.  Velocity 0
000011t:  Note on ::  Channel 9.  Note 42.  Velocity 41
000001t:  Note on ::  Channel 9.  Note 42.  Velocity 0
000011t:  Note on ::  Channel 9.  Note 42.  Velocity 127
000000t:  Note on ::  Channel 9.  Note 36.  Velocity 87
000001t:  Note on ::  Channel 9.  Note 36.  Velocity 0
000000t:  Note on ::  Channel 9.  Note 42.  Velocity 0
000011t:  Note on ::  Channel 9.  Note 42.  Velocity 41
000001t:  Note on ::  Channel 9.  Note 42.  Velocity 0
000011t:  Note on ::  Channel 9.  Note 42.  Velocity 87
000001t:  Note on ::  Channel 9.  Note 42.  Velocity 0
000011t:  Note on ::  Channel 9.  Note 42.  Velocity 41
000001t:  Note on ::  Channel 9.  Note 42.  Velocity 0
000011t:  Note on ::  Channel 9.  Note 42.  Velocity 64
000001t:  Note on ::  Channel 9.  Note 42.  Velocity 0
000011t:  Note on ::  Channel 9.  Note 42.  Velocity 41
000001t:  Note on ::  Channel 9.  Note 42.  Velocity 0
000011t:  Note on ::  Channel 9.  Note 42.  Velocity 127
000001t:  Note on ::  Channel 9.  Note 42.  Velocity 0
000011t:  Note on ::  Channel 9.  Note 42.  Velocity 41
000001t:  Note on ::  Channel 9.  Note 42.  Velocity 0
000011t:  Note on ::  Channel 9.  Note 42.  Velocity 64
000001t:  Note on ::  Channel 9.  Note 42.  Velocity 0
000011t:  Note on ::  Channel 9.  Note 42.  Velocity 41
000001t:  Note on ::  Channel 9.  Note 42.  Velocity 0
000011t:  Note on ::  Channel 9.  Note 42.  Velocity 87
000001t:  Note on ::  Channel 9.  Note 42.  Velocity 0
000011t:  Note on ::  Channel 9.  Note 42.  Velocity 41
000001t:  Note on ::  Channel 9.  Note 42.  Velocity 0
000011t:  Note on ::  Channel 9.  Note 42.  Velocity 64
000001t:  Note on ::  Channel 9.  Note 42.  Velocity 0
000011t:  Note on ::  Channel 9.  Note 42.  Velocity 41
000001t:  Note on ::  Channel 9.  Note 42.  Velocity 0
000011t:  Note on ::  Channel 9.  Note 42.  Velocity 127
000001t:  Note on ::  Channel 9.  Note 42.  Velocity 0
000011t:  Note on ::  Channel 9.  Note 42.  Velocity 41
000001t:  Note on ::  Channel 9.  Note 42.  Velocity 0
000011t:  Note on ::  Channel 9.  Note 42.  Velocity 64
000001t:  Note on ::  Channel 9.  Note 42.  Velocity 0
000011t:  Note on ::  Channel 9.  Note 42.  Velocity 41
000001t:  Note on ::  Channel 9.  Note 42.  Velocity 0
000011t:  Note on ::  Channel 9.  Note 36.  Velocity 110
000000t:  Note on ::  Channel 9.  Note 46.  Velocity 87
000001t:  Note on ::  Channel 9.  Note 46.  Velocity 0
000000t:  Note on ::  Channel 9.  Note 36.  Velocity 0
000023t:  Note on ::  Channel 9.  Note 42.  Velocity 36
000001t:  Note on ::  Channel 9.  Note 42.  Velocity 0
000023t:  Note on ::  Channel 9.  Note 42.  Velocity 127
000001t:  Note on ::  Channel 9.  Note 42.  Velocity 0
000011t:  Note on ::  Channel 9.  Note 42.  Velocity 41
000001t:  Note on ::  Channel 9.  Note 42.  Velocity 0
000011t:  Note on ::  Channel 9.  Note 42.  Velocity 64
000001t:  Note on ::  Channel 9.  Note 42.  Velocity 0
000011t:  Note on ::  Channel 9.  Note 42.  Velocity 41
000001t:  Note on ::  Channel 9.  Note 42.  Velocity 0
000011t:  Note on ::  Channel 9.  Note 42.  Velocity 87
000001t:  Note on ::  Channel 9.  Note 42.  Velocity 0
000011t:  Note on ::  Channel 9.  Note 42.  Velocity 41
000001t:  Note on ::  Channel 9.  Note 42.  Velocity 0
000011t:  Note on ::  Channel 9.  Note 42.  Velocity 64
000001t:  Note on ::  Channel 9.  Note 42.  Velocity 0
000011t:  Note on ::  Channel 9.  Note 42.  Velocity 41
000001t:  Note on ::  Channel 9.  Note 42.  Velocity 0
000011t:  Note on ::  Channel 9.  Note 42.  Velocity 127
000001t:  Note on ::  Channel 9.  Note 42.  Velocity 0
000011t:  Note on ::  Channel 9.  Note 42.  Velocity 41
000001t:  Note on ::  Channel 9.  Note 42.  Velocity 0
000011t:  Note on ::  Channel 9.  Note 42.  Velocity 64
000001t:  Note on ::  Channel 9.  Note 42.  Velocity 0
000011t:  Note on ::  Channel 9.  Note 42.  Velocity 41
000001t:  Note on ::  Channel 9.  Note 42.  Velocity 0
000011t:  Note on ::  Channel 9.  Note 42.  Velocity 87
000001t:  Note on ::  Channel 9.  Note 42.  Velocity 0
000011t:  Note on ::  Channel 9.  Note 42.  Velocity 41
000001t:  Note on ::  Channel 9.  Note 42.  Velocity 0
000011t:  Note on ::  Channel 9.  Note 42.  Velocity 64
000001t:  Note on ::  Channel 9.  Note 42.  Velocity 0
000011t:  Note on ::  Channel 9.  Note 42.  Velocity 41
000001t:  Note on ::  Channel 9.  Note 42.  Velocity 0
000011t:  Note on ::  Channel 9.  Note 42.  Velocity 127
000001t:  Note on ::  Channel 9.  Note 42.  Velocity 0
000011t:  Note on ::  Channel 9.  Note 42.  Velocity 41
000001t:  Note on ::  Channel 9.  Note 42.  Velocity 0
000011t:  Note on ::  Channel 9.  Note 42.  Velocity 64
000001t:  Note on ::  Channel 9.  Note 42.  Velocity 0
000011t:  Note on ::  Channel 9.  Note 42.  Velocity 41
000001t:  Note on ::  Channel 9.  Note 42.  Velocity 0
000011t:  Note on ::  Channel 9.  Note 42.  Velocity 87
000001t:  Note on ::  Channel 9.  Note 42.  Velocity 0
000011t:  Note on ::  Channel 9.  Note 42.  Velocity 41
000001t:  Note on ::  Channel 9.  Note 42.  Velocity 0
000011t:  Note on ::  Channel 9.  Note 42.  Velocity 64
000001t:  Note on ::  Channel 9.  Note 42.  Velocity 0
000011t:  Note on ::  Channel 9.  Note 42.  Velocity 41
000001t:  Note on ::  Channel 9.  Note 42.  Velocity 0
000011t:  Note on ::  Channel 9.  Note 42.  Velocity 127
000001t:  Note on ::  Channel 9.  Note 42.  Velocity 0
000011t:  Note on ::  Channel 9.  Note 42.  Velocity 64
000001t:  Note on ::  Channel 9.  Note 42.  Velocity 0
000011t:  Note on ::  Channel 9.  Note 46.  Velocity 127
000001t:  Note on ::  Channel 9.  Note 46.  Velocity 0
000047t:  Note on ::  Channel 9.  Note 42.  Velocity 64
000001t:  Note on ::  Channel 9.  Note 42.  Velocity 0
000011t:  Note on ::  Channel 9.  Note 42.  Velocity 46
000001t:  Note on ::  Channel 9.  Note 42.  Velocity 0
000011t:  Note on ::  Channel 9.  Note 38.  Velocity 82
000000t:  Note on ::  Channel 9.  Note 49.  Velocity 106
000000t:  Note on ::  Channel 9.  Note 55.  Velocity 78
000001t:  Note on ::  Channel 9.  Note 55.  Velocity 0
000000t:  Note on ::  Channel 9.  Note 49.  Velocity 0
000000t:  Note on ::  Channel 9.  Note 38.  Velocity 0
000011t:  Note on ::  Channel 9.  Note 42.  Velocity 46
000001t:  Note on ::  Channel 9.  Note 42.  Velocity 0
000011t:  Note on ::  Channel 9.  Note 42.  Velocity 64
000001t:  Note on ::  Channel 9.  Note 42.  Velocity 0
000011t:  Note on ::  Channel 9.  Note 42.  Velocity 46
000001t:  Note on ::  Channel 9.  Note 42.  Velocity 0
000011t:  Note on ::  Channel 9.  Note 42.  Velocity 82
000000t:  Note on ::  Channel 9.  Note 36.  Velocity 82
000001t:  Note on ::  Channel 9.  Note 36.  Velocity 0
000000t:  Note on ::  Channel 9.  Note 42.  Velocity 0
000011t:  Note on ::  Channel 9.  Note 42.  Velocity 46
000001t:  Note on ::  Channel 9.  Note 42.  Velocity 0
000011t:  Note on ::  Channel 9.  Note 42.  Velocity 64
000001t:  Note on ::  Channel 9.  Note 42.  Velocity 0
000011t:  Note on ::  Channel 9.  Note 42.  Velocity 46
000001t:  Note on ::  Channel 9.  Note 42.  Velocity 0
000011t:  Note on ::  Channel 9.  Note 38.  Velocity 82
000000t:  Note on ::  Channel 9.  Note 49.  Velocity 106
000000t:  Note on ::  Channel 9.  Note 55.  Velocity 78
000001t:  Note on ::  Channel 9.  Note 55.  Velocity 0
000000t:  Note on ::  Channel 9.  Note 49.  Velocity 0
000000t:  Note on ::  Channel 9.  Note 38.  Velocity 0
000011t:  Note on ::  Channel 9.  Note 42.  Velocity 46
000001t:  Note on ::  Channel 9.  Note 42.  Velocity 0
000011t:  Note on ::  Channel 9.  Note 42.  Velocity 64
000001t:  Note on ::  Channel 9.  Note 42.  Velocity 0
000011t:  Note on ::  Channel 9.  Note 42.  Velocity 46
000001t:  Note on ::  Channel 9.  Note 42.  Velocity 0
000011t:  Note on ::  Channel 9.  Note 42.  Velocity 82
000000t:  Note on ::  Channel 9.  Note 36.  Velocity 82
000001t:  Note on ::  Channel 9.  Note 36.  Velocity 0
000000t:  Note on ::  Channel 9.  Note 42.  Velocity 0
000011t:  Note on ::  Channel 9.  Note 42.  Velocity 46
000001t:  Note on ::  Channel 9.  Note 42.  Velocity 0
000011t:  Note on ::  Channel 9.  Note 42.  Velocity 64
000001t:  Note on ::  Channel 9.  Note 42.  Velocity 0
000011t:  Note on ::  Channel 9.  Note 42.  Velocity 46
000001t:  Note on ::  Channel 9.  Note 42.  Velocity 0
000011t:  Note on ::  Channel 9.  Note 38.  Velocity 82
000000t:  Note on ::  Channel 9.  Note 49.  Velocity 106
000000t:  Note on ::  Channel 9.  Note 55.  Velocity 78
000001t:  Note on ::  Channel 9.  Note 55.  Velocity 0
000000t:  Note on ::  Channel 9.  Note 49.  Velocity 0
000000t:  Note on ::  Channel 9.  Note 38.  Velocity 0
000023t:  Note on ::  Channel 9.  Note 38.  Velocity 64
000001t:  Note on ::  Channel 9.  Note 38.  Velocity 0
000011t:  Note on ::  Channel 9.  Note 38.  Velocity 64
000001t:  Note on ::  Channel 9.  Note 38.  Velocity 0
000011t:  Note on ::  Channel 9.  Note 38.  Velocity 82
000000t:  Note on ::  Channel 9.  Note 36.  Velocity 82
000001t:  Note on ::  Channel 9.  Note 36.  Velocity 0
000000t:  Note on ::  Channel 9.  Note 38.  Velocity 0
000011t:  Note on ::  Channel 9.  Note 38.  Velocity 64
000001t:  Note on ::  Channel 9.  Note 38.  Velocity 0
000011t:  Note on ::  Channel 9.  Note 38.  Velocity 82
000001t:  Note on ::  Channel 9.  Note 38.  Velocity 0
000011t:  Note on ::  Channel 9.  Note 38.  Velocity 64
000001t:  Note on ::  Channel 9.  Note 38.  Velocity 0
000011t:  Note on ::  Channel 9.  Note 38.  Velocity 82
000000t:  Note on ::  Channel 9.  Note 36.  Velocity 82
000000t:  Note on ::  Channel 9.  Note 49.  Velocity 106
000000t:  Note on ::  Channel 9.  Note 55.  Velocity 78
000001t:  Note on ::  Channel 9.  Note 55.  Velocity 0
000000t:  Note on ::  Channel 9.  Note 38.  Velocity 0
000000t:  Note on ::  Channel 9.  Note 36.  Velocity 0
000000t:  Note on ::  Channel 9.  Note 49.  Velocity 0
000011t:  Note on ::  Channel 9.  Note 38.  Velocity 64
000001t:  Note on ::  Channel 9.  Note 38.  Velocity 0
000011t:  Note on ::  Channel 9.  Note 38.  Velocity 82
000001t:  Note on ::  Channel 9.  Note 38.  Velocity 0
000011t:  Note on ::  Channel 9.  Note 38.  Velocity 64
000001t:  Note on ::  Channel 9.  Note 38.  Velocity 0
000011t:  Note on ::  Channel 9.  Note 36.  Velocity 82
000000t:  Note on ::  Channel 9.  Note 38.  Velocity 82
000000t:  Note on ::  Channel 9.  Note 41.  Velocity 118
000000t:  Note on ::  Channel 9.  Note 42.  Velocity 100
000000t:  Note on ::  Channel 9.  Note 51.  Velocity 10
000000t:  Note on ::  Channel 9.  Note 56.  Velocity 106
000001t:  Note on ::  Channel 9.  Note 56.  Velocity 0
000000t:  Note on ::  Channel 9.  Note 38.  Velocity 0
000000t:  Note on ::  Channel 9.  Note 41.  Velocity 0
000000t:  Note on ::  Channel 9.  Note 36.  Velocity 0
000000t:  Note on ::  Channel 9.  Note 51.  Velocity 0
000000t:  Note on ::  Channel 9.  Note 42.  Velocity 0
000047t:  Note on ::  Channel 9.  Note 42.  Velocity 100
000000t:  Note on ::  Channel 9.  Note 51.  Velocity 10
000000t:  Note on ::  Channel 9.  Note 56.  Velocity 78
000001t:  Note on ::  Channel 9.  Note 56.  Velocity 0
000000t:  Note on ::  Channel 9.  Note 51.  Velocity 0
000000t:  Note on ::  Channel 9.  Note 42.  Velocity 0
000047t:  Note on ::  Channel 9.  Note 42.  Velocity 100
000000t:  Note on ::  Channel 9.  Note 51.  Velocity 10
000000t:  Note on ::  Channel 9.  Note 56.  Velocity 92
000001t:  Note on ::  Channel 9.  Note 56.  Velocity 0
000000t:  Note on ::  Channel 9.  Note 51.  Velocity 0
000000t:  Note on ::  Channel 9.  Note 42.  Velocity 0
000047t:  Note on ::  Channel 9.  Note 42.  Velocity 100
000000t:  Note on ::  Channel 9.  Note 51.  Velocity 10
000000t:  Note on ::  Channel 9.  Note 56.  Velocity 78
000001t:  Note on ::  Channel 9.  Note 56.  Velocity 0
000000t:  Note on ::  Channel 9.  Note 51.  Velocity 0
000000t:  Note on ::  Channel 9.  Note 42.  Velocity 0
000047t:  Note on ::  Channel 9.  Note 42.  Velocity 100
000000t:  Note on ::  Channel 9.  Note 51.  Velocity 10
000000t:  Note on ::  Channel 9.  Note 56.  Velocity 92
000001t:  Note on ::  Channel 9.  Note 56.  Velocity 0
000000t:  Note on ::  Channel 9.  Note 51.  Velocity 0
000000t:  Note on ::  Channel 9.  Note 42.  Velocity 0
000047t:  Note on ::  Channel 9.  Note 42.  Velocity 100
000000t:  Note on ::  Channel 9.  Note 51.  Velocity 10
000000t:  Note on ::  Channel 9.  Note 56.  Velocity 78
000001t:  Note on ::  Channel 9.  Note 56.  Velocity 0
000000t:  Note on ::  Channel 9.  Note 51.  Velocity 0
000000t:  Note on ::  Channel 9.  Note 42.  Velocity 0
000047t:  Note on ::  Channel 9.  Note 36.  Velocity 82
000001t:  Note on ::  Channel 9.  Note 36.  Velocity 0
000071t:  Note on ::  Channel 9.  Note 36.  Velocity 64
000001t:  Note on ::  Channel 9.  Note 36.  Velocity 0
000023t:  Note on ::  Channel 9.  Note 36.  Velocity 82
000001t:  Note on ::  Channel 9.  Note 36.  Velocity 0
000045t:  Note on ::  Channel 9.  Note 38.  Velocity 28
000001t:  Note on ::  Channel 9.  Note 38.  Velocity 0
000001t:  Note on ::  Channel 9.  Note 38.  Velocity 100
000000t:  Note on ::  Channel 9.  Note 41.  Velocity 118
000000t:  Note on ::  Channel 9.  Note 55.  Velocity 106
000001t:  Note on ::  Channel 9.  Note 55.  Velocity 0
000000t:  Note on ::  Channel 9.  Note 41.  Velocity 0
000000t:  Note on ::  Channel 9.  Note 38.  Velocity 0
000047t:  Note on ::  Channel 9.  Note 42.  Velocity 100
000000t:  Note on ::  Channel 9.  Note 51.  Velocity 10
000000t:  Note on ::  Channel 9.  Note 55.  Velocity 8
000000t:  Note on ::  Channel 9.  Note 56.  Velocity 106
000001t:  Note on ::  Channel 9.  Note 56.  Velocity 0
000000t:  Note on ::  Channel 9.  Note 42.  Velocity 0
000000t:  Note on ::  Channel 9.  Note 51.  Velocity 0
000000t:  Note on ::  Channel 9.  Note 55.  Velocity 0
000047t:  Note on ::  Channel 9.  Note 42.  Velocity 100
000000t:  Note on ::  Channel 9.  Note 51.  Velocity 10
000000t:  Note on ::  Channel 9.  Note 56.  Velocity 78
000001t:  Note on ::  Channel 9.  Note 56.  Velocity 0
000000t:  Note on ::  Channel 9.  Note 51.  Velocity 0
000000t:  Note on ::  Channel 9.  Note 42.  Velocity 0
000047t:  Note on ::  Channel 9.  Note 42.  Velocity 100
000000t:  Note on ::  Channel 9.  Note 51.  Velocity 10
000000t:  Note on ::  Channel 9.  Note 56.  Velocity 92
000001t:  Note on ::  Channel 9.  Note 56.  Velocity 0
000000t:  Note on ::  Channel 9.  Note 51.  Velocity 0
000000t:  Note on ::  Channel 9.  Note 42.  Velocity 0
000047t:  Note on ::  Channel 9.  Note 42.  Velocity 100
000000t:  Note on ::  Channel 9.  Note 51.  Velocity 10
000000t:  Note on ::  Channel 9.  Note 56.  Velocity 78
000001t:  Note on ::  Channel 9.  Note 56.  Velocity 0
000000t:  Note on ::  Channel 9.  Note 51.  Velocity 0
000000t:  Note on ::  Channel 9.  Note 42.  Velocity 0
000047t:  Note on ::  Channel 9.  Note 42.  Velocity 100
000000t:  Note on ::  Channel 9.  Note 51.  Velocity 10
000000t:  Note on ::  Channel 9.  Note 56.  Velocity 92
000001t:  Note on ::  Channel 9.  Note 56.  Velocity 0
000000t:  Note on ::  Channel 9.  Note 51.  Velocity 0
000000t:  Note on ::  Channel 9.  Note 42.  Velocity 0
000047t:  Note on ::  Channel 9.  Note 42.  Velocity 100
000000t:  Note on ::  Channel 9.  Note 51.  Velocity 10
000000t:  Note on ::  Channel 9.  Note 56.  Velocity 78
000001t:  Note on ::  Channel 9.  Note 56.  Velocity 0
000000t:  Note on ::  Channel 9.  Note 51.  Velocity 0
000000t:  Note on ::  Channel 9.  Note 42.  Velocity 0
000047t:  Note on ::  Channel 9.  Note 36.  Velocity 82
000001t:  Note on ::  Channel 9.  Note 36.  Velocity 0
000071t:  Note on ::  Channel 9.  Note 36.  Velocity 64
000001t:  Note on ::  Channel 9.  Note 36.  Velocity 0
000023t:  Note on ::  Channel 9.  Note 36.  Velocity 82
000001t:  Note on ::  Channel 9.  Note 36.  Velocity 0
000045t:  Note on ::  Channel 9.  Note 38.  Velocity 28
000001t:  Note on ::  Channel 9.  Note 38.  Velocity 0
000001t:  Note on ::  Channel 9.  Note 38.  Velocity 100
000000t:  Note on ::  Channel 9.  Note 41.  Velocity 118
000000t:  Note on ::  Channel 9.  Note 55.  Velocity 106
000001t:  Note on ::  Channel 9.  Note 55.  Velocity 0
000000t:  Note on ::  Channel 9.  Note 41.  Velocity 0
000000t:  Note on ::  Channel 9.  Note 38.  Velocity 0
000047t:  Note on ::  Channel 9.  Note 42.  Velocity 100
000000t:  Note on ::  Channel 9.  Note 51.  Velocity 10
000000t:  Note on ::  Channel 9.  Note 55.  Velocity 8
000000t:  Note on ::  Channel 9.  Note 56.  Velocity 106
000001t:  Note on ::  Channel 9.  Note 56.  Velocity 0
000000t:  Note on ::  Channel 9.  Note 42.  Velocity 0
000000t:  Note on ::  Channel 9.  Note 51.  Velocity 0
000000t:  Note on ::  Channel 9.  Note 55.  Velocity 0
000047t:  Note on ::  Channel 9.  Note 42.  Velocity 100
000000t:  Note on ::  Channel 9.  Note 51.  Velocity 10
000000t:  Note on ::  Channel 9.  Note 56.  Velocity 78
000001t:  Note on ::  Channel 9.  Note 56.  Velocity 0
000000t:  Note on ::  Channel 9.  Note 51.  Velocity 0
000000t:  Note on ::  Channel 9.  Note 42.  Velocity 0
000047t:  Note on ::  Channel 9.  Note 42.  Velocity 100
000000t:  Note on ::  Channel 9.  Note 51.  Velocity 10
000000t:  Note on ::  Channel 9.  Note 56.  Velocity 92
000001t:  Note on ::  Channel 9.  Note 56.  Velocity 0
000000t:  Note on ::  Channel 9.  Note 51.  Velocity 0
000000t:  Note on ::  Channel 9.  Note 42.  Velocity 0
000047t:  Note on ::  Channel 9.  Note 42.  Velocity 100
000000t:  Note on ::  Channel 9.  Note 51.  Velocity 10
000000t:  Note on ::  Channel 9.  Note 56.  Velocity 78
000001t:  Note on ::  Channel 9.  Note 56.  Velocity 0
000000t:  Note on ::  Channel 9.  Note 51.  Velocity 0
000000t:  Note on ::  Channel 9.  Note 42.  Velocity 0
000047t:  Note on ::  Channel 9.  Note 42.  Velocity 100
000000t:  Note on ::  Channel 9.  Note 51.  Velocity 10
000000t:  Note on ::  Channel 9.  Note 56.  Velocity 92
000001t:  Note on ::  Channel 9.  Note 56.  Velocity 0
000000t:  Note on ::  Channel 9.  Note 51.  Velocity 0
000000t:  Note on ::  Channel 9.  Note 42.  Velocity 0
000047t:  Note on ::  Channel 9.  Note 42.  Velocity 100
000000t:  Note on ::  Channel 9.  Note 51.  Velocity 10
000000t:  Note on ::  Channel 9.  Note 56.  Velocity 78
000001t:  Note on ::  Channel 9.  Note 56.  Velocity 0
000000t:  Note on ::  Channel 9.  Note 51.  Velocity 0
000000t:  Note on ::  Channel 9.  Note 42.  Velocity 0
000047t:  Note on ::  Channel 9.  Note 36.  Velocity 82
000001t:  Note on ::  Channel 9.  Note 36.  Velocity 0
000071t:  Note on ::  Channel 9.  Note 36.  Velocity 64
000001t:  Note on ::  Channel 9.  Note 36.  Velocity 0
000023t:  Note on ::  Channel 9.  Note 36.  Velocity 82
000001t:  Note on ::  Channel 9.  Note 36.  Velocity 0
000045t:  Note on ::  Channel 9.  Note 38.  Velocity 28
000001t:  Note on ::  Channel 9.  Note 38.  Velocity 0
000001t:  Note on ::  Channel 9.  Note 38.  Velocity 100
000000t:  Note on ::  Channel 9.  Note 41.  Velocity 118
000000t:  Note on ::  Channel 9.  Note 55.  Velocity 106
000001t:  Note on ::  Channel 9.  Note 55.  Velocity 0
000000t:  Note on ::  Channel 9.  Note 41.  Velocity 0
000000t:  Note on ::  Channel 9.  Note 38.  Velocity 0
000047t:  Note on ::  Channel 9.  Note 42.  Velocity 100
000000t:  Note on ::  Channel 9.  Note 51.  Velocity 10
000000t:  Note on ::  Channel 9.  Note 55.  Velocity 8
000000t:  Note on ::  Channel 9.  Note 56.  Velocity 106
000001t:  Note on ::  Channel 9.  Note 56.  Velocity 0
000000t:  Note on ::  Channel 9.  Note 42.  Velocity 0
000000t:  Note on ::  Channel 9.  Note 51.  Velocity 0
000000t:  Note on ::  Channel 9.  Note 55.  Velocity 0
000047t:  Note on ::  Channel 9.  Note 42.  Velocity 100
000000t:  Note on ::  Channel 9.  Note 51.  Velocity 10
000000t:  Note on ::  Channel 9.  Note 56.  Velocity 78
000001t:  Note on ::  Channel 9.  Note 56.  Velocity 0
000000t:  Note on ::  Channel 9.  Note 51.  Velocity 0
000000t:  Note on ::  Channel 9.  Note 42.  Velocity 0
000047t:  Note on ::  Channel 9.  Note 42.  Velocity 100
000000t:  Note on ::  Channel 9.  Note 51.  Velocity 10
000000t:  Note on ::  Channel 9.  Note 56.  Velocity 92
000001t:  Note on ::  Channel 9.  Note 56.  Velocity 0
000000t:  Note on ::  Channel 9.  Note 51.  Velocity 0
000000t:  Note on ::  Channel 9.  Note 42.  Velocity 0
000047t:  Note on ::  Channel 9.  Note 42.  Velocity 100
000000t:  Note on ::  Channel 9.  Note 51.  Velocity 10
000000t:  Note on ::  Channel 9.  Note 56.  Velocity 78
000001t:  Note on ::  Channel 9.  Note 56.  Velocity 0
000000t:  Note on ::  Channel 9.  Note 51.  Velocity 0
000000t:  Note on ::  Channel 9.  Note 42.  Velocity 0
000047t:  Note on ::  Channel 9.  Note 42.  Velocity 100
000000t:  Note on ::  Channel 9.  Note 51.  Velocity 10
000000t:  Note on ::  Channel 9.  Note 56.  Velocity 92
000001t:  Note on ::  Channel 9.  Note 56.  Velocity 0
000000t:  Note on ::  Channel 9.  Note 51.  Velocity 0
000000t:  Note on ::  Channel 9.  Note 42.  Velocity 0
000047t:  Note on ::  Channel 9.  Note 42.  Velocity 100
000000t:  Note on ::  Channel 9.  Note 51.  Velocity 10
000000t:  Note on ::  Channel 9.  Note 56.  Velocity 78
000001t:  Note on ::  Channel 9.  Note 56.  Velocity 0
000000t:  Note on ::  Channel 9.  Note 51.  Velocity 0
000000t:  Note on ::  Channel 9.  Note 42.  Velocity 0
000047t:  Note on ::  Channel 9.  Note 36.  Velocity 82
000001t:  Note on ::  Channel 9.  Note 36.  Velocity 0
000071t:  Note on ::  Channel 9.  Note 36.  Velocity 64
000001t:  Note on ::  Channel 9.  Note 36.  Velocity 0
000023t:  Note on ::  Channel 9.  Note 36.  Velocity 82
000001t:  Note on ::  Channel 9.  Note 36.  Velocity 0
000045t:  Note on ::  Channel 9.  Note 38.  Velocity 28
000001t:  Note on ::  Channel 9.  Note 38.  Velocity 0
000001t:  Note on ::  Channel 9.  Note 38.  Velocity 100
000000t:  Note on ::  Channel 9.  Note 41.  Velocity 118
000000t:  Note on ::  Channel 9.  Note 55.  Velocity 106
000001t:  Note on ::  Channel 9.  Note 55.  Velocity 0
000000t:  Note on ::  Channel 9.  Note 41.  Velocity 0
000000t:  Note on ::  Channel 9.  Note 38.  Velocity 0
000047t:  Note on ::  Channel 9.  Note 36.  Velocity 82
000000t:  Note on ::  Channel 9.  Note 55.  Velocity 8
000001t:  Note on ::  Channel 9.  Note 55.  Velocity 0
000000t:  Note on ::  Channel 9.  Note 36.  Velocity 0
000023t:  Note on ::  Channel 9.  Note 36.  Velocity 64
000001t:  Note on ::  Channel 9.  Note 36.  Velocity 0
000047t:  Note on ::  Channel 9.  Note 36.  Velocity 64
000001t:  Note on ::  Channel 9.  Note 36.  Velocity 0
000023t:  Note on ::  Channel 9.  Note 36.  Velocity 82
000001t:  Note on ::  Channel 9.  Note 36.  Velocity 0
000045t:  Note on ::  Channel 9.  Note 38.  Velocity 28
000001t:  Note on ::  Channel 9.  Note 38.  Velocity 0
000001t:  Note on ::  Channel 9.  Note 38.  Velocity 100
000000t:  Note on ::  Channel 9.  Note 41.  Velocity 118
000000t:  Note on ::  Channel 9.  Note 55.  Velocity 106
000001t:  Note on ::  Channel 9.  Note 55.  Velocity 0
000000t:  Note on ::  Channel 9.  Note 41.  Velocity 0
000000t:  Note on ::  Channel 9.  Note 38.  Velocity 0
000047t:  Note on ::  Channel 9.  Note 36.  Velocity 82
000000t:  Note on ::  Channel 9.  Note 42.  Velocity 82
000000t:  Note on ::  Channel 9.  Note 55.  Velocity 8
000001t:  Note on ::  Channel 9.  Note 55.  Velocity 0
000000t:  Note on ::  Channel 9.  Note 42.  Velocity 0
000000t:  Note on ::  Channel 9.  Note 36.  Velocity 0
000047t:  Note on ::  Channel 9.  Note 38.  Velocity 82
000000t:  Note on ::  Channel 9.  Note 42.  Velocity 82
000001t:  Note on ::  Channel 9.  Note 42.  Velocity 0
000000t:  Note on ::  Channel 9.  Note 38.  Velocity 0
000047t:  Note on ::  Channel 9.  Note 36.  Velocity 64
000000t:  Note on ::  Channel 9.  Note 42.  Velocity 82
000001t:  Note on ::  Channel 9.  Note 42.  Velocity 0
000000t:  Note on ::  Channel 9.  Note 36.  Velocity 0
000023t:  Note on ::  Channel 9.  Note 36.  Velocity 82
000000t:  Note on ::  Channel 9.  Note 42.  Velocity 82
000001t:  Note on ::  Channel 9.  Note 42.  Velocity 0
000000t:  Note on ::  Channel 9.  Note 36.  Velocity 0
000023t:  Note on ::  Channel 9.  Note 38.  Velocity 82
000000t:  Note on ::  Channel 9.  Note 42.  Velocity 82
000001t:  Note on ::  Channel 9.  Note 42.  Velocity 0
000000t:  Note on ::  Channel 9.  Note 38.  Velocity 0
000047t:  Note on ::  Channel 9.  Note 36.  Velocity 82
000000t:  Note on ::  Channel 9.  Note 42.  Velocity 82
000001t:  Note on ::  Channel 9.  Note 42.  Velocity 0
000000t:  Note on ::  Channel 9.  Note 36.  Velocity 0
000047t:  Note on ::  Channel 9.  Note 38.  Velocity 82
000000t:  Note on ::  Channel 9.  Note 42.  Velocity 82
000001t:  Note on ::  Channel 9.  Note 42.  Velocity 0
000000t:  Note on ::  Channel 9.  Note 38.  Velocity 0
000047t:  Note on ::  Channel 9.  Note 36.  Velocity 64
000000t:  Note on ::  Channel 9.  Note 42.  Velocity 82
000001t:  Note on ::  Channel 9.  Note 42.  Velocity 0
000000t:  Note on ::  Channel 9.  Note 36.  Velocity 0
000023t:  Note on ::  Channel 9.  Note 36.  Velocity 82
000000t:  Note on ::  Channel 9.  Note 42.  Velocity 82
000001t:  Note on ::  Channel 9.  Note 42.  Velocity 0
000000t:  Note on ::  Channel 9.  Note 36.  Velocity 0
000023t:  Note on ::  Channel 9.  Note 38.  Velocity 82
000000t:  Note on ::  Channel 9.  Note 42.  Velocity 82
000001t:  Note on ::  Channel 9.  Note 42.  Velocity 0
000000t:  Note on ::  Channel 9.  Note 38.  Velocity 0
000047t:  Note on ::  Channel 9.  Note 36.  Velocity 82
000000t:  Note on ::  Channel 9.  Note 42.  Velocity 82
000001t:  Note on ::  Channel 9.  Note 42.  Velocity 0
000000t:  Note on ::  Channel 9.  Note 36.  Velocity 0
000047t:  Note on ::  Channel 9.  Note 38.  Velocity 82
000000t:  Note on ::  Channel 9.  Note 42.  Velocity 82
000001t:  Note on ::  Channel 9.  Note 42.  Velocity 0
000000t:  Note on ::  Channel 9.  Note 38.  Velocity 0
000047t:  Note on ::  Channel 9.  Note 36.  Velocity 64
000000t:  Note on ::  Channel 9.  Note 42.  Velocity 82
000001t:  Note on ::  Channel 9.  Note 42.  Velocity 0
000000t:  Note on ::  Channel 9.  Note 36.  Velocity 0
000023t:  Note on ::  Channel 9.  Note 36.  Velocity 82
000000t:  Note on ::  Channel 9.  Note 42.  Velocity 82
000001t:  Note on ::  Channel 9.  Note 42.  Velocity 0
000000t:  Note on ::  Channel 9.  Note 36.  Velocity 0
000023t:  Note on ::  Channel 9.  Note 38.  Velocity 82
000000t:  Note on ::  Channel 9.  Note 42.  Velocity 82
000001t:  Note on ::  Channel 9.  Note 42.  Velocity 0
000000t:  Note on ::  Channel 9.  Note 38.  Velocity 0
000047t:  Note on ::  Channel 9.  Note 36.  Velocity 82
000000t:  Note on ::  Channel 9.  Note 42.  Velocity 82
000001t:  Note on ::  Channel 9.  Note 42.  Velocity 0
000000t:  Note on ::  Channel 9.  Note 36.  Velocity 0
000047t:  Note on ::  Channel 9.  Note 38.  Velocity 82
000000t:  Note on ::  Channel 9.  Note 42.  Velocity 82
000001t:  Note on ::  Channel 9.  Note 42.  Velocity 0
000000t:  Note on ::  Channel 9.  Note 38.  Velocity 0
000047t:  Note on ::  Channel 9.  Note 36.  Velocity 64
000000t:  Note on ::  Channel 9.  Note 42.  Velocity 82
000001t:  Note on ::  Channel 9.  Note 42.  Velocity 0
000000t:  Note on ::  Channel 9.  Note 36.  Velocity 0
000023t:  Note on ::  Channel 9.  Note 36.  Velocity 82
000000t:  Note on ::  Channel 9.  Note 42.  Velocity 82
000001t:  Note on ::  Channel 9.  Note 42.  Velocity 0
000000t:  Note on ::  Channel 9.  Note 36.  Velocity 0
000023t:  Note on ::  Channel 9.  Note 38.  Velocity 82
000000t:  Note on ::  Channel 9.  Note 42.  Velocity 82
000001t:  Note on ::  Channel 9.  Note 42.  Velocity 0
000000t:  Note on ::  Channel 9.  Note 38.  Velocity 0
000047t:  Note on ::  Channel 9.  Note 36.  Velocity 82
000000t:  Note on ::  Channel 9.  Note 42.  Velocity 82
000001t:  Note on ::  Channel 9.  Note 42.  Velocity 0
000000t:  Note on ::  Channel 9.  Note 36.  Velocity 0
000047t:  Note on ::  Channel 9.  Note 38.  Velocity 82
000000t:  Note on ::  Channel 9.  Note 42.  Velocity 82
000001t:  Note on ::  Channel 9.  Note 42.  Velocity 0
000000t:  Note on ::  Channel 9.  Note 38.  Velocity 0
000047t:  Note on ::  Channel 9.  Note 36.  Velocity 64
000000t:  Note on ::  Channel 9.  Note 42.  Velocity 82
000001t:  Note on ::  Channel 9.  Note 42.  Velocity 0
000000t:  Note on ::  Channel 9.  Note 36.  Velocity 0
000023t:  Note on ::  Channel 9.  Note 36.  Velocity 82
000000t:  Note on ::  Channel 9.  Note 42.  Velocity 82
000001t:  Note on ::  Channel 9.  Note 42.  Velocity 0
000000t:  Note on ::  Channel 9.  Note 36.  Velocity 0
000023t:  Note on ::  Channel 9.  Note 38.  Velocity 82
000000t:  Note on ::  Channel 9.  Note 42.  Velocity 82
000001t:  Note on ::  Channel 9.  Note 42.  Velocity 0
000000t:  Note on ::  Channel 9.  Note 38.  Velocity 0
000047t:  Note on ::  Channel 9.  Note 36.  Velocity 82
000000t:  Note on ::  Channel 9.  Note 42.  Velocity 82
000001t:  Note on ::  Channel 9.  Note 42.  Velocity 0
000000t:  Note on ::  Channel 9.  Note 36.  Velocity 0
000047t:  Note on ::  Channel 9.  Note 38.  Velocity 82
000000t:  Note on ::  Channel 9.  Note 42.  Velocity 82
000001t:  Note on ::  Channel 9.  Note 42.  Velocity 0
000000t:  Note on ::  Channel 9.  Note 38.  Velocity 0
000047t:  Note on ::  Channel 9.  Note 36.  Velocity 64
000000t:  Note on ::  Channel 9.  Note 42.  Velocity 82
000001t:  Note on ::  Channel 9.  Note 42.  Velocity 0
000000t:  Note on ::  Channel 9.  Note 36.  Velocity 0
000023t:  Note on ::  Channel 9.  Note 36.  Velocity 82
000000t:  Note on ::  Channel 9.  Note 42.  Velocity 82
000001t:  Note on ::  Channel 9.  Note 42.  Velocity 0
000000t:  Note on ::  Channel 9.  Note 36.  Velocity 0
000023t:  Note on ::  Channel 9.  Note 38.  Velocity 82
000000t:  Note on ::  Channel 9.  Note 42.  Velocity 82
000001t:  Note on ::  Channel 9.  Note 42.  Velocity 0
000000t:  Note on ::  Channel 9.  Note 38.  Velocity 0
000045t:  Control change ::  Channel 9.  Controller 7.  Value: 125
000002t:  Note on ::  Channel 9.  Note 50.  Velocity 82
000000t:  Note on ::  Channel 9.  Note 36.  Velocity 118
000001t:  Note on ::  Channel 9.  Note 36.  Velocity 0
000000t:  Note on ::  Channel 9.  Note 50.  Velocity 0
000011t:  Note on ::  Channel 9.  Note 50.  Velocity 46
000001t:  Note on ::  Channel 9.  Note 50.  Velocity 0
000011t:  Note on ::  Channel 9.  Note 50.  Velocity 64
000001t:  Note on ::  Channel 9.  Note 50.  Velocity 0
000011t:  Note on ::  Channel 9.  Note 50.  Velocity 46
000001t:  Note on ::  Channel 9.  Note 50.  Velocity 0
000011t:  Note on ::  Channel 9.  Note 50.  Velocity 82
000001t:  Note on ::  Channel 9.  Note 50.  Velocity 0
000011t:  Note on ::  Channel 9.  Note 50.  Velocity 46
000001t:  Note on ::  Channel 9.  Note 50.  Velocity 0
000011t:  Note on ::  Channel 9.  Note 50.  Velocity 64
000001t:  Note on ::  Channel 9.  Note 50.  Velocity 0
000011t:  Note on ::  Channel 9.  Note 50.  Velocity 46
000001t:  Note on ::  Channel 9.  Note 50.  Velocity 0
000011t:  Note on ::  Channel 9.  Note 48.  Velocity 82
000000t:  Note on ::  Channel 9.  Note 36.  Velocity 118
000001t:  Note on ::  Channel 9.  Note 36.  Velocity 0
000000t:  Note on ::  Channel 9.  Note 48.  Velocity 0
000011t:  Note on ::  Channel 9.  Note 48.  Velocity 46
000001t:  Note on ::  Channel 9.  Note 48.  Velocity 0
000011t:  Note on ::  Channel 9.  Note 48.  Velocity 64
000001t:  Note on ::  Channel 9.  Note 48.  Velocity 0
000011t:  Note on ::  Channel 9.  Note 48.  Velocity 46
000001t:  Note on ::  Channel 9.  Note 48.  Velocity 0
000011t:  Note on ::  Channel 9.  Note 48.  Velocity 82
000001t:  Note on ::  Channel 9.  Note 48.  Velocity 0
000011t:  Note on ::  Channel 9.  Note 48.  Velocity 46
000001t:  Note on ::  Channel 9.  Note 48.  Velocity 0
000011t:  Note on ::  Channel 9.  Note 48.  Velocity 64
000001t:  Note on ::  Channel 9.  Note 48.  Velocity 0
000011t:  Note on ::  Channel 9.  Note 48.  Velocity 46
000001t:  Note on ::  Channel 9.  Note 48.  Velocity 0
000011t:  Note on ::  Channel 9.  Note 45.  Velocity 82
000000t:  Note on ::  Channel 9.  Note 36.  Velocity 118
000001t:  Note on ::  Channel 9.  Note 36.  Velocity 0
000000t:  Note on ::  Channel 9.  Note 45.  Velocity 0
000011t:  Note on ::  Channel 9.  Note 45.  Velocity 46
000001t:  Note on ::  Channel 9.  Note 45.  Velocity 0
000011t:  Note on ::  Channel 9.  Note 45.  Velocity 64
000001t:  Note on ::  Channel 9.  Note 45.  Velocity 0
000011t:  Note on ::  Channel 9.  Note 45.  Velocity 46
000001t:  Note on ::  Channel 9.  Note 45.  Velocity 0
000011t:  Note on ::  Channel 9.  Note 38.  Velocity 82
000001t:  Note on ::  Channel 9.  Note 38.  Velocity 0
000011t:  Note on ::  Channel 9.  Note 38.  Velocity 46
000001t:  Note on ::  Channel 9.  Note 38.  Velocity 0
000011t:  Note on ::  Channel 9.  Note 38.  Velocity 64
000001t:  Note on ::  Channel 9.  Note 38.  Velocity 0
000011t:  Note on ::  Channel 9.  Note 38.  Velocity 46
000001t:  Note on ::  Channel 9.  Note 38.  Velocity 0
000011t:  Note on ::  Channel 9.  Note 45.  Velocity 82
000000t:  Note on ::  Channel 9.  Note 36.  Velocity 118
000001t:  Note on ::  Channel 9.  Note 36.  Velocity 0
000000t:  Note on ::  Channel 9.  Note 45.  Velocity 0
000011t:  Note on ::  Channel 9.  Note 45.  Velocity 46
000001t:  Note on ::  Channel 9.  Note 45.  Velocity 0
000011t:  Note on ::  Channel 9.  Note 45.  Velocity 64
000001t:  Note on ::  Channel 9.  Note 45.  Velocity 0
000011t:  Note on ::  Channel 9.  Note 45.  Velocity 46
000001t:  Note on ::  Channel 9.  Note 45.  Velocity 0
000011t:  Note on ::  Channel 9.  Note 41.  Velocity 82
000001t:  Note on ::  Channel 9.  Note 41.  Velocity 0
000011t:  Note on ::  Channel 9.  Note 41.  Velocity 46
000001t:  Note on ::  Channel 9.  Note 41.  Velocity 0
000011t:  Note on ::  Channel 9.  Note 41.  Velocity 64
000001t:  Note on ::  Channel 9.  Note 41.  Velocity 0
000011t:  Note on ::  Channel 9.  Note 41.  Velocity 46
000001t:  Note on ::  Channel 9.  Note 41.  Velocity 0
000009t:  Control change ::  Channel 9.  Controller 7.  Value: 105
000002t:  Note on ::  Channel 9.  Note 36.  Velocity 82
000000t:  Note on ::  Channel 9.  Note 46.  Velocity 82
000001t:  Note on ::  Channel 9.  Note 46.  Velocity 0
000000t:  Note on ::  Channel 9.  Note 36.  Velocity 0
000047t:  Note on ::  Channel 9.  Note 42.  Velocity 100
000000t:  Note on ::  Channel 9.  Note 38.  Velocity 82
000001t:  Note on ::  Channel 9.  Note 38.  Velocity 0
000000t:  Note on ::  Channel 9.  Note 42.  Velocity 0
000023t:  Note on ::  Channel 9.  Note 42.  Velocity 82
000001t:  Note on ::  Channel 9.  Note 42.  Velocity 0
000023t:  Note on ::  Channel 9.  Note 42.  Velocity 100
000000t:  Note on ::  Channel 9.  Note 36.  Velocity 82
000001t:  Note on ::  Channel 9.  Note 36.  Velocity 0
000000t:  Note on ::  Channel 9.  Note 42.  Velocity 0
000023t:  Note on ::  Channel 9.  Note 42.  Velocity 82
000000t:  Note on ::  Channel 9.  Note 36.  Velocity 64
000001t:  Note on ::  Channel 9.  Note 36.  Velocity 0
000000t:  Note on ::  Channel 9.  Note 42.  Velocity 0
000023t:  Note on ::  Channel 9.  Note 42.  Velocity 100
000000t:  Note on ::  Channel 9.  Note 38.  Velocity 82
000001t:  Note on ::  Channel 9.  Note 38.  Velocity 0
000000t:  Note on ::  Channel 9.  Note 42.  Velocity 0
000023t:  Note on ::  Channel 9.  Note 42.  Velocity 82
000001t:  Note on ::  Channel 9.  Note 42.  Velocity 0
000023t:  Note on ::  Channel 9.  Note 42.  Velocity 100
000000t:  Note on ::  Channel 9.  Note 36.  Velocity 82
000001t:  Note on ::  Channel 9.  Note 36.  Velocity 0
000000t:  Note on ::  Channel 9.  Note 42.  Velocity 0
000023t:  Note on ::  Channel 9.  Note 42.  Velocity 82
000001t:  Note on ::  Channel 9.  Note 42.  Velocity 0
000023t:  Note on ::  Channel 9.  Note 42.  Velocity 100
000000t:  Note on ::  Channel 9.  Note 38.  Velocity 82
000001t:  Note on ::  Channel 9.  Note 38.  Velocity 0
000000t:  Note on ::  Channel 9.  Note 42.  Velocity 0
000023t:  Note on ::  Channel 9.  Note 42.  Velocity 82
000001t:  Note on ::  Channel 9.  Note 42.  Velocity 0
000023t:  Note on ::  Channel 9.  Note 42.  Velocity 100
000000t:  Note on ::  Channel 9.  Note 36.  Velocity 82
000001t:  Note on ::  Channel 9.  Note 36.  Velocity 0
000000t:  Note on ::  Channel 9.  Note 42.  Velocity 0
000023t:  Note on ::  Channel 9.  Note 42.  Velocity 82
000000t:  Note on ::  Channel 9.  Note 36.  Velocity 64
000001t:  Note on ::  Channel 9.  Note 36.  Velocity 0
000000t:  Note on ::  Channel 9.  Note 42.  Velocity 0
000023t:  Note on ::  Channel 9.  Note 42.  Velocity 100
000000t:  Note on ::  Channel 9.  Note 38.  Velocity 82
000001t:  Note on ::  Channel 9.  Note 38.  Velocity 0
000000t:  Note on ::  Channel 9.  Note 42.  Velocity 0
000023t:  Note on ::  Channel 9.  Note 42.  Velocity 82
000001t:  Note on ::  Channel 9.  Note 42.  Velocity 0
000023t:  Note on ::  Channel 9.  Note 42.  Velocity 100
000000t:  Note on ::  Channel 9.  Note 36.  Velocity 82
000001t:  Note on ::  Channel 9.  Note 36.  Velocity 0
000000t:  Note on ::  Channel 9.  Note 42.  Velocity 0
000023t:  Note on ::  Channel 9.  Note 42.  Velocity 82
000001t:  Note on ::  Channel 9.  Note 42.  Velocity 0
000023t:  Note on ::  Channel 9.  Note 42.  Velocity 100
000000t:  Note on ::  Channel 9.  Note 38.  Velocity 82
000001t:  Note on ::  Channel 9.  Note 38.  Velocity 0
000000t:  Note on ::  Channel 9.  Note 42.  Velocity 0
000023t:  Note on ::  Channel 9.  Note 42.  Velocity 82
000001t:  Note on ::  Channel 9.  Note 42.  Velocity 0
000023t:  Note on ::  Channel 9.  Note 42.  Velocity 100
000000t:  Note on ::  Channel 9.  Note 36.  Velocity 82
000001t:  Note on ::  Channel 9.  Note 36.  Velocity 0
000000t:  Note on ::  Channel 9.  Note 42.  Velocity 0
000023t:  Note on ::  Channel 9.  Note 42.  Velocity 82
000000t:  Note on ::  Channel 9.  Note 36.  Velocity 64
000001t:  Note on ::  Channel 9.  Note 36.  Velocity 0
000000t:  Note on ::  Channel 9.  Note 42.  Velocity 0
000023t:  Note on ::  Channel 9.  Note 42.  Velocity 100
000000t:  Note on ::  Channel 9.  Note 38.  Velocity 82
000001t:  Note on ::  Channel 9.  Note 38.  Velocity 0
000000t:  Note on ::  Channel 9.  Note 42.  Velocity 0
000023t:  Note on ::  Channel 9.  Note 42.  Velocity 82
000001t:  Note on ::  Channel 9.  Note 42.  Velocity 0
000023t:  Note on ::  Channel 9.  Note 42.  Velocity 100
000000t:  Note on ::  Channel 9.  Note 36.  Velocity 82
000001t:  Note on ::  Channel 9.  Note 36.  Velocity 0
000000t:  Note on ::  Channel 9.  Note 42.  Velocity 0
000023t:  Note on ::  Channel 9.  Note 42.  Velocity 82
000001t:  Note on ::  Channel 9.  Note 42.  Velocity 0
000023t:  Note on ::  Channel 9.  Note 42.  Velocity 100
000000t:  Note on ::  Channel 9.  Note 38.  Velocity 82
000001t:  Note on ::  Channel 9.  Note 38.  Velocity 0
000000t:  Note on ::  Channel 9.  Note 42.  Velocity 0
000023t:  Note on ::  Channel 9.  Note 42.  Velocity 82
000001t:  Note on ::  Channel 9.  Note 42.  Velocity 0
000023t:  Note on ::  Channel 9.  Note 42.  Velocity 100
000000t:  Note on ::  Channel 9.  Note 36.  Velocity 82
000001t:  Note on ::  Channel 9.  Note 36.  Velocity 0
000000t:  Note on ::  Channel 9.  Note 42.  Velocity 0
000023t:  Note on ::  Channel 9.  Note 42.  Velocity 82
000000t:  Note on ::  Channel 9.  Note 36.  Velocity 64
000001t:  Note on ::  Channel 9.  Note 36.  Velocity 0
000000t:  Note on ::  Channel 9.  Note 42.  Velocity 0
000023t:  Note on ::  Channel 9.  Note 42.  Velocity 100
000000t:  Note on ::  Channel 9.  Note 38.  Velocity 82
000001t:  Note on ::  Channel 9.  Note 38.  Velocity 0
000000t:  Note on ::  Channel 9.  Note 42.  Velocity 0
000023t:  Note on ::  Channel 9.  Note 42.  Velocity 82
000001t:  Note on ::  Channel 9.  Note 42.  Velocity 0
000023t:  Note on ::  Channel 9.  Note 42.  Velocity 100
000000t:  Note on ::  Channel 9.  Note 36.  Velocity 82
000001t:  Note on ::  Channel 9.  Note 36.  Velocity 0
000000t:  Note on ::  Channel 9.  Note 42.  Velocity 0
000023t:  Note on ::  Channel 9.  Note 42.  Velocity 82
000001t:  Note on ::  Channel 9.  Note 42.  Velocity 0
000023t:  Note on ::  Channel 9.  Note 42.  Velocity 100
000000t:  Note on ::  Channel 9.  Note 38.  Velocity 82
000001t:  Note on ::  Channel 9.  Note 38.  Velocity 0
000000t:  Note on ::  Channel 9.  Note 42.  Velocity 0
000023t:  Note on ::  Channel 9.  Note 42.  Velocity 82
000001t:  Note on ::  Channel 9.  Note 42.  Velocity 0
000023t:  Note on ::  Channel 9.  Note 42.  Velocity 100
000000t:  Note on ::  Channel 9.  Note 36.  Velocity 82
000001t:  Note on ::  Channel 9.  Note 36.  Velocity 0
000000t:  Note on ::  Channel 9.  Note 42.  Velocity 0
000023t:  Note on ::  Channel 9.  Note 42.  Velocity 82
000000t:  Note on ::  Channel 9.  Note 36.  Velocity 64
000001t:  Note on ::  Channel 9.  Note 36.  Velocity 0
000000t:  Note on ::  Channel 9.  Note 42.  Velocity 0
000023t:  Note on ::  Channel 9.  Note 42.  Velocity 100
000000t:  Note on ::  Channel 9.  Note 38.  Velocity 82
000001t:  Note on ::  Channel 9.  Note 38.  Velocity 0
000000t:  Note on ::  Channel 9.  Note 42.  Velocity 0
000023t:  Note on ::  Channel 9.  Note 42.  Velocity 82
000001t:  Note on ::  Channel 9.  Note 42.  Velocity 0
000023t:  Note on ::  Channel 9.  Note 42.  Velocity 100
000000t:  Note on ::  Channel 9.  Note 36.  Velocity 82
000001t:  Note on ::  Channel 9.  Note 36.  Velocity 0
000000t:  Note on ::  Channel 9.  Note 42.  Velocity 0
000023t:  Note on ::  Channel 9.  Note 42.  Velocity 82
000001t:  Note on ::  Channel 9.  Note 42.  Velocity 0
000023t:  Note on ::  Channel 9.  Note 42.  Velocity 100
000000t:  Note on ::  Channel 9.  Note 38.  Velocity 82
000001t:  Note on ::  Channel 9.  Note 38.  Velocity 0
000000t:  Note on ::  Channel 9.  Note 42.  Velocity 0
000023t:  Note on ::  Channel 9.  Note 42.  Velocity 82
000001t:  Note on ::  Channel 9.  Note 42.  Velocity 0
000023t:  Note on ::  Channel 9.  Note 42.  Velocity 100
000000t:  Note on ::  Channel 9.  Note 36.  Velocity 82
000001t:  Note on ::  Channel 9.  Note 36.  Velocity 0
000000t:  Note on ::  Channel 9.  Note 42.  Velocity 0
000023t:  Note on ::  Channel 9.  Note 42.  Velocity 82
000000t:  Note on ::  Channel 9.  Note 36.  Velocity 64
000001t:  Note on ::  Channel 9.  Note 36.  Velocity 0
000000t:  Note on ::  Channel 9.  Note 42.  Velocity 0
000023t:  Note on ::  Channel 9.  Note 42.  Velocity 100
000000t:  Note on ::  Channel 9.  Note 38.  Velocity 82
000001t:  Note on ::  Channel 9.  Note 38.  Velocity 0
000000t:  Note on ::  Channel 9.  Note 42.  Velocity 0
000023t:  Note on ::  Channel 9.  Note 42.  Velocity 82
000001t:  Note on ::  Channel 9.  Note 42.  Velocity 0
000023t:  Note on ::  Channel 9.  Note 46.  Velocity 100
000000t:  Note on ::  Channel 9.  Note 36.  Velocity 82
000001t:  Note on ::  Channel 9.  Note 36.  Velocity 0
000000t:  Note on ::  Channel 9.  Note 46.  Velocity 0
000047t:  Note on ::  Channel 9.  Note 42.  Velocity 100
000000t:  Note on ::  Channel 9.  Note 38.  Velocity 82
000001t:  Note on ::  Channel 9.  Note 38.  Velocity 0
000000t:  Note on ::  Channel 9.  Note 42.  Velocity 0
000023t:  Note on ::  Channel 9.  Note 42.  Velocity 82
000000t:  Note on ::  Channel 9.  Note 36.  Velocity 64
000001t:  Note on ::  Channel 9.  Note 36.  Velocity 0
000000t:  Note on ::  Channel 9.  Note 42.  Velocity 0
000023t:  Note on ::  Channel 9.  Note 42.  Velocity 100
000001t:  Note on ::  Channel 9.  Note 42.  Velocity 0
000023t:  Note on ::  Channel 9.  Note 42.  Velocity 82
000000t:  Note on ::  Channel 9.  Note 36.  Velocity 82
000001t:  Note on ::  Channel 9.  Note 36.  Velocity 0
000000t:  Note on ::  Channel 9.  Note 42.  Velocity 0
000023t:  Note on ::  Channel 9.  Note 42.  Velocity 100
000000t:  Note on ::  Channel 9.  Note 38.  Velocity 82
000001t:  Note on ::  Channel 9.  Note 38.  Velocity 0
000000t:  Note on ::  Channel 9.  Note 42.  Velocity 0
000023t:  Note on ::  Channel 9.  Note 42.  Velocity 82
000001t:  Note on ::  Channel 9.  Note 42.  Velocity 0
000021t:  Control change ::  Channel 9.  Controller 7.  Value: 120
000002t:  Note on ::  Channel 9.  Note 46.  Velocity 100
000000t:  Note on ::  Channel 9.  Note 36.  Velocity 82
000001t:  Note on ::  Channel 9.  Note 36.  Velocity 0
000000t:  Note on ::  Channel 9.  Note 46.  Velocity 0
000023t:  Note on ::  Channel 9.  Note 38.  Velocity 64
000001t:  Note on ::  Channel 9.  Note 38.  Velocity 0
000011t:  Note on ::  Channel 9.  Note 38.  Velocity 46
000001t:  Note on ::  Channel 9.  Note 38.  Velocity 0
000011t:  Note on ::  Channel 9.  Note 38.  Velocity 82
000001t:  Note on ::  Channel 9.  Note 38.  Velocity 0
000011t:  Note on ::  Channel 9.  Note 38.  Velocity 46
000001t:  Note on ::  Channel 9.  Note 38.  Velocity 0
000011t:  Note on ::  Channel 9.  Note 38.  Velocity 64
000001t:  Note on ::  Channel 9.  Note 38.  Velocity 0
000011t:  Note on ::  Channel 9.  Note 38.  Velocity 46
000001t:  Note on ::  Channel 9.  Note 38.  Velocity 0
000011t:  Note on ::  Channel 9.  Note 48.  Velocity 82
000000t:  Note on ::  Channel 9.  Note 36.  Velocity 82
000001t:  Note on ::  Channel 9.  Note 36.  Velocity 0
000000t:  Note on ::  Channel 9.  Note 48.  Velocity 0
000011t:  Note on ::  Channel 9.  Note 48.  Velocity 46
000001t:  Note on ::  Channel 9.  Note 48.  Velocity 0
000011t:  Note on ::  Channel 9.  Note 48.  Velocity 64
000001t:  Note on ::  Channel 9.  Note 48.  Velocity 0
000011t:  Note on ::  Channel 9.  Note 48.  Velocity 46
000001t:  Note on ::  Channel 9.  Note 48.  Velocity 0
000011t:  Note on ::  Channel 9.  Note 38.  Velocity 82
000001t:  Note on ::  Channel 9.  Note 38.  Velocity 0
000011t:  Note on ::  Channel 9.  Note 38.  Velocity 46
000001t:  Note on ::  Channel 9.  Note 38.  Velocity 0
000011t:  Note on ::  Channel 9.  Note 38.  Velocity 64
000001t:  Note on ::  Channel 9.  Note 38.  Velocity 0
000011t:  Note on ::  Channel 9.  Note 38.  Velocity 46
000001t:  Note on ::  Channel 9.  Note 38.  Velocity 0
000009t:  Control change ::  Channel 9.  Controller 7.  Value: 105
000002t:  Note on ::  Channel 9.  Note 36.  Velocity 82
000000t:  Note on ::  Channel 9.  Note 42.  Velocity 100
000001t:  Note on ::  Channel 9.  Note 42.  Velocity 0
000000t:  Note on ::  Channel 9.  Note 36.  Velocity 0
000047t:  Note on ::  Channel 9.  Note 38.  Velocity 82
000001t:  Note on ::  Channel 9.  Note 38.  Velocity 0
000023t:  Note on ::  Channel 9.  Note 42.  Velocity 82
000000t:  Note on ::  Channel 9.  Note 36.  Velocity 82
000001t:  Note on ::  Channel 9.  Note 36.  Velocity 0
000000t:  Note on ::  Channel 9.  Note 42.  Velocity 0
000047t:  Note on ::  Channel 9.  Note 38.  Velocity 64
000001t:  Note on ::  Channel 9.  Note 38.  Velocity 0
000023t:  Note on ::  Channel 9.  Note 38.  Velocity 82
000001t:  Note on ::  Channel 9.  Note 38.  Velocity 0
000023t:  Note on ::  Channel 9.  Note 38.  Velocity 64
000001t:  Note on ::  Channel 9.  Note 38.  Velocity 0
000023t:  Note on ::  Channel 9.  Note 36.  Velocity 82
000000t:  Note on ::  Channel 9.  Note 38.  Velocity 82
000001t:  Note on ::  Channel 9.  Note 38.  Velocity 0
000000t:  Note on ::  Channel 9.  Note 36.  Velocity 0
000011t:  Note on ::  Channel 9.  Note 38.  Velocity 10
000001t:  Note on ::  Channel 9.  Note 38.  Velocity 0
000011t:  Note on ::  Channel 9.  Note 38.  Velocity 64
000001t:  Note on ::  Channel 9.  Note 38.  Velocity 0
000011t:  Note on ::  Channel 9.  Note 38.  Velocity 46
000001t:  Note on ::  Channel 9.  Note 38.  Velocity 0
000011t:  Note on ::  Channel 9.  Note 38.  Velocity 82
000001t:  Note on ::  Channel 9.  Note 38.  Velocity 0
000047t:  Control change ::  Channel 9.  Controller 7.  Value: 125
000002t:  Note on ::  Channel 9.  Note 45.  Velocity 82
000001t:  Note on ::  Channel 9.  Note 45.  Velocity 0
000011t:  Note on ::  Channel 9.  Note 45.  Velocity 46
000001t:  Note on ::  Channel 9.  Note 45.  Velocity 0
000011t:  Note on ::  Channel 9.  Note 45.  Velocity 64
000001t:  Note on ::  Channel 9.  Note 45.  Velocity 0
000011t:  Note on ::  Channel 9.  Note 45.  Velocity 46
000001t:  Note on ::  Channel 9.  Note 45.  Velocity 0
000011t:  Note on ::  Channel 9.  Note 41.  Velocity 82
000001t:  Note on ::  Channel 9.  Note 41.  Velocity 0
000011t:  Note on ::  Channel 9.  Note 41.  Velocity 46
000001t:  Note on ::  Channel 9.  Note 41.  Velocity 0
000011t:  Note on ::  Channel 9.  Note 41.  Velocity 64
000001t:  Note on ::  Channel 9.  Note 41.  Velocity 0
000011t:  Note on ::  Channel 9.  Note 41.  Velocity 46
000001t:  Note on ::  Channel 9.  Note 41.  Velocity 0
000009t:  Note on ::  Channel 9.  Note 41.  Velocity 28
000001t:  Note on ::  Channel 9.  Note 41.  Velocity 0
000001t:  Note on ::  Channel 9.  Note 41.  Velocity 64
000001t:  Note on ::  Channel 9.  Note 41.  Velocity 0
000045t:  Control change ::  Channel 9.  Controller 7.  Value: 105
000093t:  Note on ::  Channel 9.  Note 38.  Velocity 28
000001t:  Note on ::  Channel 9.  Note 38.  Velocity 0
000002t:  Note on ::  Channel 9.  Note 38.  Velocity 64
000001t:  Note on ::  Channel 9.  Note 38.  Velocity 0
000047t:  Note on ::  Channel 9.  Note 36.  Velocity 82
000001t:  Note on ::  Channel 9.  Note 36.  Velocity 0
000045t:  Note on ::  Channel 9.  Note 38.  Velocity 28
000001t:  Note on ::  Channel 9.  Note 38.  Velocity 0
000001t:  Note on ::  Channel 9.  Note 38.  Velocity 82
000001t:  Note on ::  Channel 9.  Note 38.  Velocity 0
000047t:  Note on ::  Channel 9.  Note 36.  Velocity 82
000001t:  Note on ::  Channel 9.  Note 36.  Velocity 0
000023t:  Note on ::  Channel 9.  Note 36.  Velocity 64
000001t:  Note on ::  Channel 9.  Note 36.  Velocity 0
000023t:  Note on ::  Channel 9.  Note 38.  Velocity 82
000001t:  Note on ::  Channel 9.  Note 38.  Velocity 0
000011t:  Note on ::  Channel 9.  Note 38.  Velocity 46
000001t:  Note on ::  Channel 9.  Note 38.  Velocity 0
000011t:  Note on ::  Channel 9.  Note 38.  Velocity 64
000001t:  Note on ::  Channel 9.  Note 38.  Velocity 0
000023t:  Note on ::  Channel 9.  Note 36.  Velocity 82
000001t:  Note on ::  Channel 9.  Note 36.  Velocity 0
000045t:  Note on ::  Channel 9.  Note 38.  Velocity 28
000001t:  Note on ::  Channel 9.  Note 38.  Velocity 0
000001t:  Note on ::  Channel 9.  Note 38.  Velocity 82
000001t:  Note on ::  Channel 9.  Note 38.  Velocity 0
000023t:  Note on ::  Channel 9.  Note 36.  Velocity 46
000001t:  Note on ::  Channel 9.  Note 36.  Velocity 0
000023t:  Note on ::  Channel 9.  Note 36.  Velocity 82
000001t:  Note on ::  Channel 9.  Note 36.  Velocity 0
000011t:  Note on ::  Channel 9.  Note 38.  Velocity 64
000001t:  Note on ::  Channel 9.  Note 38.  Velocity 0
000011t:  Note on ::  Channel 9.  Note 38.  Velocity 46
000001t:  Note on ::  Channel 9.  Note 38.  Velocity 0
000011t:  Note on ::  Channel 9.  Note 38.  Velocity 64
000001t:  Note on ::  Channel 9.  Note 38.  Velocity 0
000011t:  Note on ::  Channel 9.  Note 38.  Velocity 82
000001t:  Note on ::  Channel 9.  Note 38.  Velocity 0
000011t:  Note on ::  Channel 9.  Note 38.  Velocity 46
000001t:  Note on ::  Channel 9.  Note 38.  Velocity 0
000011t:  Note on ::  Channel 9.  Note 38.  Velocity 64
000001t:  Note on ::  Channel 9.  Note 38.  Velocity 0
000023t:  Note on ::  Channel 9.  Note 36.  Velocity 82
000001t:  Note on ::  Channel 9.  Note 36.  Velocity 0
000045t:  Note on ::  Channel 9.  Note 38.  Velocity 28
000001t:  Note on ::  Channel 9.  Note 38.  Velocity 0
000001t:  Note on ::  Channel 9.  Note 38.  Velocity 82
000001t:  Note on ::  Channel 9.  Note 38.  Velocity 0
000023t:  Note on ::  Channel 9.  Note 36.  Velocity 46
000001t:  Note on ::  Channel 9.  Note 36.  Velocity 0
000023t:  Note on ::  Channel 9.  Note 36.  Velocity 82
000001t:  Note on ::  Channel 9.  Note 36.  Velocity 0
000047t:  Note on ::  Channel 9.  Note 38.  Velocity 82
000001t:  Note on ::  Channel 9.  Note 38.  Velocity 0
000011t:  Note on ::  Channel 9.  Note 38.  Velocity 46
000001t:  Note on ::  Channel 9.  Note 38.  Velocity 0
000011t:  Note on ::  Channel 9.  Note 38.  Velocity 64
000001t:  Note on ::  Channel 9.  Note 38.  Velocity 0
000023t:  Note on ::  Channel 9.  Note 36.  Velocity 82
000001t:  Note on ::  Channel 9.  Note 36.  Velocity 0
000045t:  Note on ::  Channel 9.  Note 38.  Velocity 28
000001t:  Note on ::  Channel 9.  Note 38.  Velocity 0
000001t:  Note on ::  Channel 9.  Note 38.  Velocity 82
000001t:  Note on ::  Channel 9.  Note 38.  Velocity 0
000023t:  Note on ::  Channel 9.  Note 36.  Velocity 46
000001t:  Note on ::  Channel 9.  Note 36.  Velocity 0
000023t:  Note on ::  Channel 9.  Note 36.  Velocity 82
000001t:  Note on ::  Channel 9.  Note 36.  Velocity 0
000011t:  Note on ::  Channel 9.  Note 38.  Velocity 64
000001t:  Note on ::  Channel 9.  Note 38.  Velocity 0
000011t:  Note on ::  Channel 9.  Note 38.  Velocity 46
000001t:  Note on ::  Channel 9.  Note 38.  Velocity 0
000011t:  Note on ::  Channel 9.  Note 38.  Velocity 64
000001t:  Note on ::  Channel 9.  Note 38.  Velocity 0
000011t:  Note on ::  Channel 9.  Note 38.  Velocity 82
000001t:  Note on ::  Channel 9.  Note 38.  Velocity 0
000011t:  Note on ::  Channel 9.  Note 38.  Velocity 46
000001t:  Note on ::  Channel 9.  Note 38.  Velocity 0
000011t:  Note on ::  Channel 9.  Note 38.  Velocity 64
000001t:  Note on ::  Channel 9.  Note 38.  Velocity 0
000023t:  Note on ::  Channel 9.  Note 36.  Velocity 82
000001t:  Note on ::  Channel 9.  Note 36.  Velocity 0
000045t:  Note on ::  Channel 9.  Note 38.  Velocity 28
000001t:  Note on ::  Channel 9.  Note 38.  Velocity 0
000001t:  Note on ::  Channel 9.  Note 38.  Velocity 82
000001t:  Note on ::  Channel 9.  Note 38.  Velocity 0
000023t:  Note on ::  Channel 9.  Note 36.  Velocity 46
000001t:  Note on ::  Channel 9.  Note 36.  Velocity 0
000023t:  Note on ::  Channel 9.  Note 36.  Velocity 82
000001t:  Note on ::  Channel 9.  Note 36.  Velocity 0
000047t:  Note on ::  Channel 9.  Note 38.  Velocity 82
000001t:  Note on ::  Channel 9.  Note 38.  Velocity 0
000011t:  Note on ::  Channel 9.  Note 38.  Velocity 46
000001t:  Note on ::  Channel 9.  Note 38.  Velocity 0
000011t:  Note on ::  Channel 9.  Note 38.  Velocity 64
000001t:  Note on ::  Channel 9.  Note 38.  Velocity 0
000023t:  Note on ::  Channel 9.  Note 36.  Velocity 82
000001t:  Note on ::  Channel 9.  Note 36.  Velocity 0
000045t:  Note on ::  Channel 9.  Note 38.  Velocity 28
000001t:  Note on ::  Channel 9.  Note 38.  Velocity 0
000001t:  Note on ::  Channel 9.  Note 38.  Velocity 82
000001t:  Note on ::  Channel 9.  Note 38.  Velocity 0
000023t:  Note on ::  Channel 9.  Note 36.  Velocity 46
000001t:  Note on ::  Channel 9.  Note 36.  Velocity 0
000023t:  Note on ::  Channel 9.  Note 36.  Velocity 82
000001t:  Note on ::  Channel 9.  Note 36.  Velocity 0
000011t:  Note on ::  Channel 9.  Note 38.  Velocity 64
000001t:  Note on ::  Channel 9.  Note 38.  Velocity 0
000011t:  Note on ::  Channel 9.  Note 38.  Velocity 46
000001t:  Note on ::  Channel 9.  Note 38.  Velocity 0
000011t:  Note on ::  Channel 9.  Note 38.  Velocity 64
000001t:  Note on ::  Channel 9.  Note 38.  Velocity 0
000011t:  Note on ::  Channel 9.  Note 38.  Velocity 82
000001t:  Note on ::  Channel 9.  Note 38.  Velocity 0
000011t:  Note on ::  Channel 9.  Note 38.  Velocity 46
000001t:  Note on ::  Channel 9.  Note 38.  Velocity 0
000011t:  Note on ::  Channel 9.  Note 38.  Velocity 64
000001t:  Note on ::  Channel 9.  Note 38.  Velocity 0
000023t:  Note on ::  Channel 9.  Note 36.  Velocity 82
000001t:  Note on ::  Channel 9.  Note 36.  Velocity 0
000045t:  Note on ::  Channel 9.  Note 38.  Velocity 28
000001t:  Note on ::  Channel 9.  Note 38.  Velocity 0
000001t:  Note on ::  Channel 9.  Note 38.  Velocity 82
000001t:  Note on ::  Channel 9.  Note 38.  Velocity 0
000023t:  Note on ::  Channel 9.  Note 36.  Velocity 46
000001t:  Note on ::  Channel 9.  Note 36.  Velocity 0
000023t:  Note on ::  Channel 9.  Note 36.  Velocity 82
000001t:  Note on ::  Channel 9.  Note 36.  Velocity 0
000011t:  Note on ::  Channel 9.  Note 38.  Velocity 64
000001t:  Note on ::  Channel 9.  Note 38.  Velocity 0
000011t:  Note on ::  Channel 9.  Note 38.  Velocity 46
000001t:  Note on ::  Channel 9.  Note 38.  Velocity 0
000011t:  Note on ::  Channel 9.  Note 38.  Velocity 64
000001t:  Note on ::  Channel 9.  Note 38.  Velocity 0
000011t:  Note on ::  Channel 9.  Note 38.  Velocity 82
000001t:  Note on ::  Channel 9.  Note 38.  Velocity 0
000011t:  Note on ::  Channel 9.  Note 38.  Velocity 46
000001t:  Note on ::  Channel 9.  Note 38.  Velocity 0
000011t:  Note on ::  Channel 9.  Note 38.  Velocity 64
000001t:  Note on ::  Channel 9.  Note 38.  Velocity 0
000023t:  Note on ::  Channel 9.  Note 36.  Velocity 82
000001t:  Note on ::  Channel 9.  Note 36.  Velocity 0
000011t:  Note on ::  Channel 9.  Note 38.  Velocity 64
000001t:  Note on ::  Channel 9.  Note 38.  Velocity 0
000011t:  Note on ::  Channel 9.  Note 38.  Velocity 46
000001t:  Note on ::  Channel 9.  Note 38.  Velocity 0
000011t:  Note on ::  Channel 9.  Note 38.  Velocity 64
000001t:  Note on ::  Channel 9.  Note 38.  Velocity 0
000011t:  Note on ::  Channel 9.  Note 38.  Velocity 82
000001t:  Note on ::  Channel 9.  Note 38.  Velocity 0
000011t:  Note on ::  Channel 9.  Note 38.  Velocity 46
000001t:  Note on ::  Channel 9.  Note 38.  Velocity 0
000011t:  Note on ::  Channel 9.  Note 38.  Velocity 64
000001t:  Note on ::  Channel 9.  Note 38.  Velocity 0
000023t:  Note on ::  Channel 9.  Note 36.  Velocity 82
000000t:  Note on ::  Channel 9.  Note 38.  Velocity 64
000001t:  Note on ::  Channel 9.  Note 38.  Velocity 0
000000t:  Note on ::  Channel 9.  Note 36.  Velocity 0
000011t:  Note on ::  Channel 9.  Note 38.  Velocity 46
000001t:  Note on ::  Channel 9.  Note 38.  Velocity 0
000011t:  Note on ::  Channel 9.  Note 38.  Velocity 82
000001t:  Note on ::  Channel 9.  Note 38.  Velocity 0
000011t:  Note on ::  Channel 9.  Note 38.  Velocity 46
000001t:  Note on ::  Channel 9.  Note 38.  Velocity 0
000011t:  Note on ::  Channel 9.  Note 38.  Velocity 82
000001t:  Note on ::  Channel 9.  Note 38.  Velocity 0
000011t:  Note on ::  Channel 9.  Note 38.  Velocity 46
000001t:  Note on ::  Channel 9.  Note 38.  Velocity 0
000011t:  Note on ::  Channel 9.  Note 38.  Velocity 64
000001t:  Note on ::  Channel 9.  Note 38.  Velocity 0
000011t:  Note on ::  Channel 9.  Note 38.  Velocity 46
000001t:  Note on ::  Channel 9.  Note 38.  Velocity 0
000011t:  Note on ::  Channel 9.  Note 36.  Velocity 82
000000t:  Note on ::  Channel 9.  Note 46.  Velocity 100
000001t:  Note on ::  Channel 9.  Note 46.  Velocity 0
000000t:  Note on ::  Channel 9.  Note 36.  Velocity 0
000045t:  Note on ::  Channel 9.  Note 38.  Velocity 28
000001t:  Note on ::  Channel 9.  Note 38.  Velocity 0
000001t:  Note on ::  Channel 9.  Note 38.  Velocity 82
000001t:  Note on ::  Channel 9.  Note 38.  Velocity 0
000047t:  Note on ::  Channel 9.  Note 36.  Velocity 82
000001t:  Note on ::  Channel 9.  Note 36.  Velocity 0
000023t:  Note on ::  Channel 9.  Note 36.  Velocity 64
000001t:  Note on ::  Channel 9.  Note 36.  Velocity 0
000023t:  Note on ::  Channel 9.  Note 38.  Velocity 82
000001t:  Note on ::  Channel 9.  Note 38.  Velocity 0
000011t:  Note on ::  Channel 9.  Note 38.  Velocity 46
000001t:  Note on ::  Channel 9.  Note 38.  Velocity 0
000011t:  Note on ::  Channel 9.  Note 38.  Velocity 64
000001t:  Note on ::  Channel 9.  Note 38.  Velocity 0
000023t:  Note on ::  Channel 9.  Note 36.  Velocity 82
000001t:  Note on ::  Channel 9.  Note 36.  Velocity 0
000045t:  Note on ::  Channel 9.  Note 38.  Velocity 28
000001t:  Note on ::  Channel 9.  Note 38.  Velocity 0
000001t:  Note on ::  Channel 9.  Note 38.  Velocity 82
000001t:  Note on ::  Channel 9.  Note 38.  Velocity 0
000023t:  Note on ::  Channel 9.  Note 36.  Velocity 46
000001t:  Note on ::  Channel 9.  Note 36.  Velocity 0
000023t:  Note on ::  Channel 9.  Note 36.  Velocity 82
000001t:  Note on ::  Channel 9.  Note 36.  Velocity 0
000011t:  Note on ::  Channel 9.  Note 38.  Velocity 64
000001t:  Note on ::  Channel 9.  Note 38.  Velocity 0
000011t:  Note on ::  Channel 9.  Note 38.  Velocity 46
000001t:  Note on ::  Channel 9.  Note 38.  Velocity 0
000011t:  Note on ::  Channel 9.  Note 38.  Velocity 64
000001t:  Note on ::  Channel 9.  Note 38.  Velocity 0
000011t:  Note on ::  Channel 9.  Note 38.  Velocity 82
000001t:  Note on ::  Channel 9.  Note 38.  Velocity 0
000047t:  Note on ::  Channel 9.  Note 36.  Velocity 82
000001t:  Note on ::  Channel 9.  Note 36.  Velocity 0
000045t:  Note on ::  Channel 9.  Note 38.  Velocity 28
000001t:  Note on ::  Channel 9.  Note 38.  Velocity 0
000001t:  Note on ::  Channel 9.  Note 38.  Velocity 82
000001t:  Note on ::  Channel 9.  Note 38.  Velocity 0
000023t:  Note on ::  Channel 9.  Note 36.  Velocity 46
000001t:  Note on ::  Channel 9.  Note 36.  Velocity 0
000023t:  Note on ::  Channel 9.  Note 36.  Velocity 82
000001t:  Note on ::  Channel 9.  Note 36.  Velocity 0
000011t:  Note on ::  Channel 9.  Note 38.  Velocity 64
000001t:  Note on ::  Channel 9.  Note 38.  Velocity 0
000011t:  Note on ::  Channel 9.  Note 38.  Velocity 46
000001t:  Note on ::  Channel 9.  Note 38.  Velocity 0
000011t:  Note on ::  Channel 9.  Note 38.  Velocity 64
000001t:  Note on ::  Channel 9.  Note 38.  Velocity 0
000011t:  Note on ::  Channel 9.  Note 38.  Velocity 82
000001t:  Note on ::  Channel 9.  Note 38.  Velocity 0
000011t:  Note on ::  Channel 9.  Note 38.  Velocity 46
000001t:  Note on ::  Channel 9.  Note 38.  Velocity 0
000011t:  Note on ::  Channel 9.  Note 38.  Velocity 64
000001t:  Note on ::  Channel 9.  Note 38.  Velocity 0
000023t:  Note on ::  Channel 9.  Note 36.  Velocity 82
000001t:  Note on ::  Channel 9.  Note 36.  Velocity 0
000045t:  Note on ::  Channel 9.  Note 38.  Velocity 28
000001t:  Note on ::  Channel 9.  Note 38.  Velocity 0
000001t:  Note on ::  Channel 9.  Note 38.  Velocity 82
000001t:  Note on ::  Channel 9.  Note 38.  Velocity 0
000023t:  Note on ::  Channel 9.  Note 36.  Velocity 46
000001t:  Note on ::  Channel 9.  Note 36.  Velocity 0
000023t:  Note on ::  Channel 9.  Note 36.  Velocity 82
000001t:  Note on ::  Channel 9.  Note 36.  Velocity 0
000011t:  Note on ::  Channel 9.  Note 38.  Velocity 64
000001t:  Note on ::  Channel 9.  Note 38.  Velocity 0
000011t:  Note on ::  Channel 9.  Note 38.  Velocity 46
000001t:  Note on ::  Channel 9.  Note 38.  Velocity 0
000011t:  Note on ::  Channel 9.  Note 38.  Velocity 64
000001t:  Note on ::  Channel 9.  Note 38.  Velocity 0
000011t:  Note on ::  Channel 9.  Note 38.  Velocity 82
000001t:  Note on ::  Channel 9.  Note 38.  Velocity 0
000047t:  Note on ::  Channel 9.  Note 36.  Velocity 82
000001t:  Note on ::  Channel 9.  Note 36.  Velocity 0
000045t:  Note on ::  Channel 9.  Note 38.  Velocity 28
000001t:  Note on ::  Channel 9.  Note 38.  Velocity 0
000001t:  Note on ::  Channel 9.  Note 38.  Velocity 82
000001t:  Note on ::  Channel 9.  Note 38.  Velocity 0
000023t:  Note on ::  Channel 9.  Note 36.  Velocity 46
000001t:  Note on ::  Channel 9.  Note 36.  Velocity 0
000023t:  Note on ::  Channel 9.  Note 36.  Velocity 82
000001t:  Note on ::  Channel 9.  Note 36.  Velocity 0
000011t:  Note on ::  Channel 9.  Note 38.  Velocity 64
000001t:  Note on ::  Channel 9.  Note 38.  Velocity 0
000011t:  Note on ::  Channel 9.  Note 38.  Velocity 46
000001t:  Note on ::  Channel 9.  Note 38.  Velocity 0
000011t:  Note on ::  Channel 9.  Note 38.  Velocity 64
000001t:  Note on ::  Channel 9.  Note 38.  Velocity 0
000011t:  Note on ::  Channel 9.  Note 38.  Velocity 82
000001t:  Note on ::  Channel 9.  Note 38.  Velocity 0
000011t:  Note on ::  Channel 9.  Note 38.  Velocity 46
000001t:  Note on ::  Channel 9.  Note 38.  Velocity 0
000011t:  Note on ::  Channel 9.  Note 38.  Velocity 64
000001t:  Note on ::  Channel 9.  Note 38.  Velocity 0
000023t:  Note on ::  Channel 9.  Note 36.  Velocity 82
000001t:  Note on ::  Channel 9.  Note 36.  Velocity 0
000045t:  Note on ::  Channel 9.  Note 38.  Velocity 28
000001t:  Note on ::  Channel 9.  Note 38.  Velocity 0
000001t:  Note on ::  Channel 9.  Note 38.  Velocity 82
000001t:  Note on ::  Channel 9.  Note 38.  Velocity 0
000023t:  Note on ::  Channel 9.  Note 36.  Velocity 46
000001t:  Note on ::  Channel 9.  Note 36.  Velocity 0
000023t:  Note on ::  Channel 9.  Note 36.  Velocity 82
000001t:  Note on ::  Channel 9.  Note 36.  Velocity 0
000011t:  Note on ::  Channel 9.  Note 38.  Velocity 64
000001t:  Note on ::  Channel 9.  Note 38.  Velocity 0
000011t:  Note on ::  Channel 9.  Note 38.  Velocity 46
000001t:  Note on ::  Channel 9.  Note 38.  Velocity 0
000011t:  Note on ::  Channel 9.  Note 38.  Velocity 64
000001t:  Note on ::  Channel 9.  Note 38.  Velocity 0
000011t:  Note on ::  Channel 9.  Note 38.  Velocity 82
000001t:  Note on ::  Channel 9.  Note 38.  Velocity 0
000011t:  Note on ::  Channel 9.  Note 38.  Velocity 46
000001t:  Note on ::  Channel 9.  Note 38.  Velocity 0
000011t:  Note on ::  Channel 9.  Note 38.  Velocity 64
000001t:  Note on ::  Channel 9.  Note 38.  Velocity 0
000023t:  Note on ::  Channel 9.  Note 36.  Velocity 82
000000t:  Note on ::  Channel 9.  Note 46.  Velocity 100
000001t:  Note on ::  Channel 9.  Note 46.  Velocity 0
000000t:  Note on ::  Channel 9.  Note 36.  Velocity 0
000023t:  Note on ::  Channel 9.  Note 36.  Velocity 64
000001t:  Note on ::  Channel 9.  Note 36.  Velocity 0
000021t:  Note on ::  Channel 9.  Note 38.  Velocity 28
000001t:  Note on ::  Channel 9.  Note 38.  Velocity 0
000001t:  Note on ::  Channel 9.  Note 38.  Velocity 82
000001t:  Note on ::  Channel 9.  Note 38.  Velocity 0
000035t:  Note on ::  Channel 9.  Note 38.  Velocity 46
000001t:  Note on ::  Channel 9.  Note 38.  Velocity 0
000011t:  Note on ::  Channel 9.  Note 38.  Velocity 64
000000t:  Note on ::  Channel 9.  Note 36.  Velocity 82
000001t:  Note on ::  Channel 9.  Note 36.  Velocity 0
000000t:  Note on ::  Channel 9.  Note 38.  Velocity 0
000011t:  Note on ::  Channel 9.  Note 38.  Velocity 46
000001t:  Note on ::  Channel 9.  Note 38.  Velocity 0
000011t:  Note on ::  Channel 9.  Note 38.  Velocity 64
000000t:  Note on ::  Channel 9.  Note 36.  Velocity 64
000001t:  Note on ::  Channel 9.  Note 36.  Velocity 0
000000t:  Note on ::  Channel 9.  Note 38.  Velocity 0
000021t:  Note on ::  Channel 9.  Note 38.  Velocity 28
000001t:  Note on ::  Channel 9.  Note 38.  Velocity 0
000001t:  Note on ::  Channel 9.  Note 38.  Velocity 82
000001t:  Note on ::  Channel 9.  Note 38.  Velocity 0
000035t:  Note on ::  Channel 9.  Note 38.  Velocity 46
000001t:  Note on ::  Channel 9.  Note 38.  Velocity 0
000011t:  Note on ::  Channel 9.  Note 36.  Velocity 82
000000t:  Note on ::  Channel 9.  Note 38.  Velocity 82
000001t:  Note on ::  Channel 9.  Note 38.  Velocity 0
000000t:  Note on ::  Channel 9.  Note 36.  Velocity 0
000011t:  Note on ::  Channel 9.  Note 38.  Velocity 46
000001t:  Note on ::  Channel 9.  Note 38.  Velocity 0
000011t:  Note on ::  Channel 9.  Note 38.  Velocity 64
000001t:  Note on ::  Channel 9.  Note 38.  Velocity 0
000011t:  Note on ::  Channel 9.  Note 38.  Velocity 46
000001t:  Note on ::  Channel 9.  Note 38.  Velocity 0
000011t:  Note on ::  Channel 9.  Note 38.  Velocity 100
000001t:  Note on ::  Channel 9.  Note 38.  Velocity 0
000011t:  Note on ::  Channel 9.  Note 38.  Velocity 46
000001t:  Note on ::  Channel 9.  Note 38.  Velocity 0
000035t:  Note on ::  Channel 9.  Note 38.  Velocity 82
000000t:  Note on ::  Channel 9.  Note 36.  Velocity 82
000001t:  Note on ::  Channel 9.  Note 36.  Velocity 0
000000t:  Note on ::  Channel 9.  Note 38.  Velocity 0
000011t:  Note on ::  Channel 9.  Note 38.  Velocity 46
000001t:  Note on ::  Channel 9.  Note 38.  Velocity 0
000011t:  Note on ::  Channel 9.  Note 38.  Velocity 64
000001t:  Note on ::  Channel 9.  Note 38.  Velocity 0
000011t:  Note on ::  Channel 9.  Note 38.  Velocity 46
000001t:  Note on ::  Channel 9.  Note 38.  Velocity 0
000011t:  Note on ::  Channel 9.  Note 38.  Velocity 82
000001t:  Note on ::  Channel 9.  Note 38.  Velocity 0
000011t:  Note on ::  Channel 9.  Note 38.  Velocity 46
000001t:  Note on ::  Channel 9.  Note 38.  Velocity 0
000011t:  Note on ::  Channel 9.  Note 38.  Velocity 64
000001t:  Note on ::  Channel 9.  Note 38.  Velocity 0
000011t:  Note on ::  Channel 9.  Note 38.  Velocity 46
000001t:  Note on ::  Channel 9.  Note 38.  Velocity 0
000011t:  Note on ::  Channel 9.  Note 36.  Velocity 82
000000t:  Note on ::  Channel 9.  Note 46.  Velocity 100
000001t:  Note on ::  Channel 9.  Note 46.  Velocity 0
000000t:  Note on ::  Channel 9.  Note 36.  Velocity 0
000045t:  Note on ::  Channel 9.  Note 38.  Velocity 28
000001t:  Note on ::  Channel 9.  Note 38.  Velocity 0
000001t:  Note on ::  Channel 9.  Note 38.  Velocity 82
000001t:  Note on ::  Channel 9.  Note 38.  Velocity 0
000047t:  Note on ::  Channel 9.  Note 36.  Velocity 82
000001t:  Note on ::  Channel 9.  Note 36.  Velocity 0
000023t:  Note on ::  Channel 9.  Note 36.  Velocity 64
000001t:  Note on ::  Channel 9.  Note 36.  Velocity 0
000023t:  Note on ::  Channel 9.  Note 38.  Velocity 82
000001t:  Note on ::  Channel 9.  Note 38.  Velocity 0
000011t:  Note on ::  Channel 9.  Note 38.  Velocity 46
000001t:  Note on ::  Channel 9.  Note 38.  Velocity 0
000011t:  Note on ::  Channel 9.  Note 38.  Velocity 64
000001t:  Note on ::  Channel 9.  Note 38.  Velocity 0
000023t:  Note on ::  Channel 9.  Note 36.  Velocity 82
000000t:  Note on ::  Channel 9.  Note 46.  Velocity 100
000001t:  Note on ::  Channel 9.  Note 46.  Velocity 0
000000t:  Note on ::  Channel 9.  Note 36.  Velocity 0
000045t:  Note on ::  Channel 9.  Note 38.  Velocity 28
000001t:  Note on ::  Channel 9.  Note 38.  Velocity 0
000001t:  Note on ::  Channel 9.  Note 38.  Velocity 82
000001t:  Note on ::  Channel 9.  Note 38.  Velocity 0
000023t:  Note on ::  Channel 9.  Note 36.  Velocity 46
000001t:  Note on ::  Channel 9.  Note 36.  Velocity 0
000023t:  Note on ::  Channel 9.  Note 36.  Velocity 82
000001t:  Note on ::  Channel 9.  Note 36.  Velocity 0
000011t:  Note on ::  Channel 9.  Note 38.  Velocity 10
000001t:  Note on ::  Channel 9.  Note 38.  Velocity 0
000011t:  Note on ::  Channel 9.  Note 38.  Velocity 46
000001t:  Note on ::  Channel 9.  Note 38.  Velocity 0
000011t:  Note on ::  Channel 9.  Note 38.  Velocity 64
000001t:  Note on ::  Channel 9.  Note 38.  Velocity 0
000011t:  Note on ::  Channel 9.  Note 38.  Velocity 82
000001t:  Note on ::  Channel 9.  Note 38.  Velocity 0
000011t:  Note on ::  Channel 9.  Note 38.  Velocity 46
000001t:  Note on ::  Channel 9.  Note 38.  Velocity 0
000011t:  Note on ::  Channel 9.  Note 38.  Velocity 64
000001t:  Note on ::  Channel 9.  Note 38.  Velocity 0
000023t:  Note on ::  Channel 9.  Note 36.  Velocity 82
000000t:  Note on ::  Channel 9.  Note 46.  Velocity 100
000001t:  Note on ::  Channel 9.  Note 46.  Velocity 0
000000t:  Note on ::  Channel 9.  Note 36.  Velocity 0
000045t:  Note on ::  Channel 9.  Note 38.  Velocity 28
000001t:  Note on ::  Channel 9.  Note 38.  Velocity 0
000001t:  Note on ::  Channel 9.  Note 38.  Velocity 82
000001t:  Note on ::  Channel 9.  Note 38.  Velocity 0
000023t:  Note on ::  Channel 9.  Note 36.  Velocity 46
000001t:  Note on ::  Channel 9.  Note 36.  Velocity 0
000023t:  Note on ::  Channel 9.  Note 36.  Velocity 82
000001t:  Note on ::  Channel 9.  Note 36.  Velocity 0
000047t:  Note on ::  Channel 9.  Note 38.  Velocity 82
000001t:  Note on ::  Channel 9.  Note 38.  Velocity 0
000011t:  Note on ::  Channel 9.  Note 38.  Velocity 46
000001t:  Note on ::  Channel 9.  Note 38.  Velocity 0
000011t:  Note on ::  Channel 9.  Note 38.  Velocity 64
000001t:  Note on ::  Channel 9.  Note 38.  Velocity 0
000023t:  Note on ::  Channel 9.  Note 36.  Velocity 82
000001t:  Note on ::  Channel 9.  Note 36.  Velocity 0
000045t:  Note on ::  Channel 9.  Note 38.  Velocity 28
000001t:  Note on ::  Channel 9.  Note 38.  Velocity 0
000001t:  Note on ::  Channel 9.  Note 38.  Velocity 82
000001t:  Note on ::  Channel 9.  Note 38.  Velocity 0
000023t:  Note on ::  Channel 9.  Note 36.  Velocity 46
000001t:  Note on ::  Channel 9.  Note 36.  Velocity 0
000023t:  Note on ::  Channel 9.  Note 36.  Velocity 82
000001t:  Note on ::  Channel 9.  Note 36.  Velocity 0
000011t:  Note on ::  Channel 9.  Note 38.  Velocity 28
000001t:  Note on ::  Channel 9.  Note 38.  Velocity 0
000011t:  Note on ::  Channel 9.  Note 38.  Velocity 46
000001t:  Note on ::  Channel 9.  Note 38.  Velocity 0
000011t:  Note on ::  Channel 9.  Note 38.  Velocity 64
000001t:  Note on ::  Channel 9.  Note 38.  Velocity 0
000011t:  Note on ::  Channel 9.  Note 38.  Velocity 82
000001t:  Note on ::  Channel 9.  Note 38.  Velocity 0
000011t:  Note on ::  Channel 9.  Note 38.  Velocity 46
000001t:  Note on ::  Channel 9.  Note 38.  Velocity 0
000011t:  Note on ::  Channel 9.  Note 38.  Velocity 64
000001t:  Note on ::  Channel 9.  Note 38.  Velocity 0
000019t:  Control change ::  Channel 9.  Controller 7.  Value: 105
000004t:  Control change ::  Channel 9.  Controller 7.  Value: 105
000000t:  Note on ::  Channel 9.  Note 36.  Velocity 82
000000t:  Note on ::  Channel 9.  Note 46.  Velocity 100
000001t:  Note on ::  Channel 9.  Note 46.  Velocity 0
000000t:  Note on ::  Channel 9.  Note 36.  Velocity 0
000012t:  Control change ::  Channel 9.  Controller 7.  Value: 104
000013t:  Control change ::  Channel 9.  Controller 7.  Value: 103
000013t:  Control change ::  Channel 9.  Controller 7.  Value: 102
000007t:  Note on ::  Channel 9.  Note 38.  Velocity 28
000001t:  Note on ::  Channel 9.  Note 38.  Velocity 0
000001t:  Note on ::  Channel 9.  Note 38.  Velocity 82
000001t:  Note on ::  Channel 9.  Note 38.  Velocity 0
000003t:  Control change ::  Channel 9.  Controller 7.  Value: 101
000012t:  Control change ::  Channel 9.  Controller 7.  Value: 100
000008t:  Note on ::  Channel 9.  Note 36.  Velocity 46
000001t:  Note on ::  Channel 9.  Note 36.  Velocity 0
000004t:  Control change ::  Channel 9.  Controller 7.  Value: 99
000013t:  Control change ::  Channel 9.  Controller 7.  Value: 98
000006t:  Note on ::  Channel 9.  Note 36.  Velocity 82
000001t:  Note on ::  Channel 9.  Note 36.  Velocity 0
000006t:  Control change ::  Channel 9.  Controller 7.  Value: 97
000013t:  Control change ::  Channel 9.  Controller 7.  Value: 96
000004t:  Note on ::  Channel 9.  Note 36.  Velocity 64
000001t:  Note on ::  Channel 9.  Note 36.  Velocity 0
000007t:  Control change ::  Channel 9.  Controller 7.  Value: 95
000013t:  Control change ::  Channel 9.  Controller 7.  Value: 94
000003t:  Note on ::  Channel 9.  Note 38.  Velocity 82
000001t:  Note on ::  Channel 9.  Note 38.  Velocity 0
000009t:  Control change ::  Channel 9.  Controller 7.  Value: 93
000002t:  Note on ::  Channel 9.  Note 38.  Velocity 10
000001t:  Note on ::  Channel 9.  Note 38.  Velocity 0
000010t:  Control change ::  Channel 9.  Controller 7.  Value: 92
000001t:  Note on ::  Channel 9.  Note 38.  Velocity 64
000001t:  Note on ::  Channel 9.  Note 38.  Velocity 0
000011t:  Control change ::  Channel 9.  Controller 7.  Value: 91
000012t:  Note on ::  Channel 9.  Note 36.  Velocity 82
000000t:  Control change ::  Channel 9.  Controller 7.  Value: 90
000001t:  Note on ::  Channel 9.  Note 36.  Velocity 0
000012t:  Control change ::  Channel 9.  Controller 7.  Value: 89
000013t:  Control change ::  Channel 9.  Controller 7.  Value: 88
000013t:  Control change ::  Channel 9.  Controller 7.  Value: 87
000007t:  Note on ::  Channel 9.  Note 38.  Velocity 28
000001t:  Note on ::  Channel 9.  Note 38.  Velocity 0
000001t:  Note on ::  Channel 9.  Note 38.  Velocity 82
000001t:  Note on ::  Channel 9.  Note 38.  Velocity 0
000003t:  Control change ::  Channel 9.  Controller 7.  Value: 86
000012t:  Control change ::  Channel 9.  Controller 7.  Value: 85
000008t:  Note on ::  Channel 9.  Note 36.  Velocity 46
000001t:  Note on ::  Channel 9.  Note 36.  Velocity 0
000004t:  Control change ::  Channel 9.  Controller 7.  Value: 84
000013t:  Control change ::  Channel 9.  Controller 7.  Value: 83
000006t:  Note on ::  Channel 9.  Note 36.  Velocity 82
000001t:  Note on ::  Channel 9.  Note 36.  Velocity 0
000006t:  Control change ::  Channel 9.  Controller 7.  Value: 82
000005t:  Note on ::  Channel 9.  Note 38.  Velocity 10
000001t:  Note on ::  Channel 9.  Note 38.  Velocity 0
000006t:  Control change ::  Channel 9.  Controller 7.  Value: 81
000005t:  Note on ::  Channel 9.  Note 38.  Velocity 46
000001t:  Note on ::  Channel 9.  Note 38.  Velocity 0
000007t:  Control change ::  Channel 9.  Controller 7.  Value: 80
000004t:  Note on ::  Channel 9.  Note 38.  Velocity 64
000001t:  Note on ::  Channel 9.  Note 38.  Velocity 0
000008t:  Control change ::  Channel 9.  Controller 7.  Value: 79
000003t:  Note on ::  Channel 9.  Note 38.  Velocity 82
000001t:  Note on ::  Channel 9.  Note 38.  Velocity 0
000009t:  Control change ::  Channel 9.  Controller 7.  Value: 78
000002t:  Note on ::  Channel 9.  Note 38.  Velocity 46
000001t:  Note on ::  Channel 9.  Note 38.  Velocity 0
000010t:  Control change ::  Channel 9.  Controller 7.  Value: 77
000001t:  Note on ::  Channel 9.  Note 38.  Velocity 64
000001t:  Note on ::  Channel 9.  Note 38.  Velocity 0
000010t:  Control change ::  Channel 9.  Controller 7.  Value: 76
000013t:  Note on ::  Channel 9.  Note 36.  Velocity 82
000000t:  Control change ::  Channel 9.  Controller 7.  Value: 75
000001t:  Note on ::  Channel 9.  Note 36.  Velocity 0
000011t:  Note on ::  Channel 9.  Note 38.  Velocity 10
000001t:  Note on ::  Channel 9.  Note 38.  Velocity 0
000000t:  Control change ::  Channel 9.  Controller 7.  Value: 74
000011t:  Note on ::  Channel 9.  Note 38.  Velocity 64
000001t:  Note on ::  Channel 9.  Note 38.  Velocity 0
000001t:  Control change ::  Channel 9.  Controller 7.  Value: 73
000010t:  Note on ::  Channel 9.  Note 38.  Velocity 46
000001t:  Note on ::  Channel 9.  Note 38.  Velocity 0
000002t:  Control change ::  Channel 9.  Controller 7.  Value: 72
000009t:  Note on ::  Channel 9.  Note 38.  Velocity 82
000001t:  Note on ::  Channel 9.  Note 38.  Velocity 0
000002t:  Control change ::  Channel 9.  Controller 7.  Value: 71
000009t:  Note on ::  Channel 9.  Note 38.  Velocity 46
000001t:  Note on ::  Channel 9.  Note 38.  Velocity 0
000003t:  Control change ::  Channel 9.  Controller 7.  Value: 70
000008t:  Note on ::  Channel 9.  Note 38.  Velocity 64
000001t:  Note on ::  Channel 9.  Note 38.  Velocity 0
000004t:  Control change ::  Channel 9.  Controller 7.  Value: 69
000013t:  Control change ::  Channel 9.  Controller 7.  Value: 68
000006t:  Note on ::  Channel 9.  Note 36.  Velocity 82
000001t:  Note on ::  Channel 9.  Note 36.  Velocity 0
000006t:  Control change ::  Channel 9.  Controller 7.  Value: 67
000012t:  Control change ::  Channel 9.  Controller 7.  Value: 66
000005t:  Note on ::  Channel 9.  Note 36.  Velocity 64
000001t:  Note on ::  Channel 9.  Note 36.  Velocity 0
000007t:  Control change ::  Channel 9.  Controller 7.  Value: 65
000013t:  Control change ::  Channel 9.  Controller 7.  Value: 64
000001t:  Note on ::  Channel 9.  Note 38.  Velocity 28
000001t:  Note on ::  Channel 9.  Note 38.  Velocity 0
000001t:  Note on ::  Channel 9.  Note 38.  Velocity 82
000001t:  Note on ::  Channel 9.  Note 38.  Velocity 0
000009t:  Control change ::  Channel 9.  Controller 7.  Value: 63
000012t:  Note on ::  Channel 9.  Note 38.  Velocity 28
000000t:  Control change ::  Channel 9.  Controller 7.  Value: 62
000001t:  Note on ::  Channel 9.  Note 38.  Velocity 0
000001t:  Note on ::  Channel 9.  Note 38.  Velocity 82
000001t:  Note on ::  Channel 9.  Note 38.  Velocity 0
000010t:  Control change ::  Channel 9.  Controller 7.  Value: 61
000013t:  Note on ::  Channel 9.  Note 36.  Velocity 82
000000t:  Control change ::  Channel 9.  Controller 7.  Value: 60
000001t:  Note on ::  Channel 9.  Note 36.  Velocity 0
000012t:  Control change ::  Channel 9.  Controller 7.  Value: 59
000011t:  Note on ::  Channel 9.  Note 36.  Velocity 64
000001t:  Note on ::  Channel 9.  Note 36.  Velocity 0
000001t:  Control change ::  Channel 9.  Controller 7.  Value: 58
000012t:  Control change ::  Channel 9.  Controller 7.  Value: 57
000010t:  Note on ::  Channel 9.  Note 38.  Velocity 82
000001t:  Note on ::  Channel 9.  Note 38.  Velocity 0
000002t:  Control change ::  Channel 9.  Controller 7.  Value: 56
000009t:  Note on ::  Channel 9.  Note 38.  Velocity 46
000001t:  Note on ::  Channel 9.  Note 38.  Velocity 0
000003t:  Control change ::  Channel 9.  Controller 7.  Value: 55
000008t:  Note on ::  Channel 9.  Note 38.  Velocity 64
000001t:  Note on ::  Channel 9.  Note 38.  Velocity 0
000004t:  Control change ::  Channel 9.  Controller 7.  Value: 54
000013t:  Control change ::  Channel 9.  Controller 7.  Value: 53
000006t:  Note on ::  Channel 9.  Note 38.  Velocity 82
000001t:  Note on ::  Channel 9.  Note 38.  Velocity 0
000005t:  Control change ::  Channel 9.  Controller 7.  Value: 52
000006t:  Note on ::  Channel 9.  Note 38.  Velocity 46
000001t:  Note on ::  Channel 9.  Note 38.  Velocity 0
000006t:  Control change ::  Channel 9.  Controller 7.  Value: 51
000005t:  Note on ::  Channel 9.  Note 38.  Velocity 64
000001t:  Note on ::  Channel 9.  Note 38.  Velocity 0
000007t:  Control change ::  Channel 9.  Controller 7.  Value: 50
000013t:  Control change ::  Channel 9.  Controller 7.  Value: 49
000003t:  Note on ::  Channel 9.  Note 38.  Velocity 82
000001t:  Note on ::  Channel 9.  Note 38.  Velocity 0
000009t:  Control change ::  Channel 9.  Controller 7.  Value: 48
000002t:  Note on ::  Channel 9.  Note 38.  Velocity 46
000001t:  Note on ::  Channel 9.  Note 38.  Velocity 0
000009t:  Control change ::  Channel 9.  Controller 7.  Value: 47
000002t:  Note on ::  Channel 9.  Note 38.  Velocity 64
000001t:  Note on ::  Channel 9.  Note 38.  Velocity 0
000010t:  Control change ::  Channel 9.  Controller 7.  Value: 46
000013t:  Note on ::  Channel 9.  Note 36.  Velocity 82
000000t:  Note on ::  Channel 9.  Note 46.  Velocity 100
000000t:  Control change ::  Channel 9.  Controller 7.  Value: 45
000001t:  Note on ::  Channel 9.  Note 46.  Velocity 0
000000t:  Note on ::  Channel 9.  Note 36.  Velocity 0
000012t:  Control change ::  Channel 9.  Controller 7.  Value: 44
000013t:  Control change ::  Channel 9.  Controller 7.  Value: 43
000012t:  Control change ::  Channel 9.  Controller 7.  Value: 42
000008t:  Note on ::  Channel 9.  Note 38.  Velocity 28
000001t:  Note on ::  Channel 9.  Note 38.  Velocity 0
000001t:  Note on ::  Channel 9.  Note 38.  Velocity 82
000001t:  Note on ::  Channel 9.  Note 38.  Velocity 0
000002t:  Control change ::  Channel 9.  Controller 7.  Value: 41
000013t:  Control change ::  Channel 9.  Controller 7.  Value: 40
000013t:  Control change ::  Channel 9.  Controller 7.  Value: 39
000012t:  Control change ::  Channel 9.  Controller 7.  Value: 38
000007t:  Note on ::  Channel 9.  Note 36.  Velocity 82
000001t:  Note on ::  Channel 9.  Note 36.  Velocity 0
000005t:  Control change ::  Channel 9.  Controller 7.  Value: 37
000013t:  Control change ::  Channel 9.  Controller 7.  Value: 36
000005t:  Note on ::  Channel 9.  Note 36.  Velocity 64
000001t:  Note on ::  Channel 9.  Note 36.  Velocity 0
000007t:  Control change ::  Channel 9.  Controller 7.  Value: 35
000013t:  Control change ::  Channel 9.  Controller 7.  Value: 34
000003t:  Note on ::  Channel 9.  Note 38.  Velocity 82
000001t:  Note on ::  Channel 9.  Note 38.  Velocity 0
000008t:  Control change ::  Channel 9.  Controller 7.  Value: 33
000003t:  Note on ::  Channel 9.  Note 38.  Velocity 46
000001t:  Note on ::  Channel 9.  Note 38.  Velocity 0
000009t:  Control change ::  Channel 9.  Controller 7.  Value: 32
000002t:  Note on ::  Channel 9.  Note 38.  Velocity 64
000001t:  Note on ::  Channel 9.  Note 38.  Velocity 0
000010t:  Control change ::  Channel 9.  Controller 7.  Value: 31
000013t:  Note on ::  Channel 9.  Note 36.  Velocity 82
000000t:  Note on ::  Channel 9.  Note 46.  Velocity 100
000000t:  Control change ::  Channel 9.  Controller 7.  Value: 30
000001t:  Note on ::  Channel 9.  Note 46.  Velocity 0
000000t:  Note on ::  Channel 9.  Note 36.  Velocity 0
000012t:  Control change ::  Channel 9.  Controller 7.  Value: 29
000012t:  Control change ::  Channel 9.  Controller 7.  Value: 28
000013t:  Control change ::  Channel 9.  Controller 7.  Value: 27
000008t:  Note on ::  Channel 9.  Note 38.  Velocity 28
000001t:  Note on ::  Channel 9.  Note 38.  Velocity 0
000001t:  Note on ::  Channel 9.  Note 38.  Velocity 82
000001t:  Note on ::  Channel 9.  Note 38.  Velocity 0
000002t:  Control change ::  Channel 9.  Controller 7.  Value: 26
000013t:  Control change ::  Channel 9.  Controller 7.  Value: 25
000008t:  Note on ::  Channel 9.  Note 36.  Velocity 46
000001t:  Note on ::  Channel 9.  Note 36.  Velocity 0
000004t:  Control change ::  Channel 9.  Controller 7.  Value: 24
000012t:  Control change ::  Channel 9.  Controller 7.  Value: 23
000007t:  Note on ::  Channel 9.  Note 36.  Velocity 82
000001t:  Note on ::  Channel 9.  Note 36.  Velocity 0
000005t:  Control change ::  Channel 9.  Controller 7.  Value: 22
000006t:  Note on ::  Channel 9.  Note 38.  Velocity 10
000001t:  Note on ::  Channel 9.  Note 38.  Velocity 0
000006t:  Control change ::  Channel 9.  Controller 7.  Value: 21
000005t:  Note on ::  Channel 9.  Note 38.  Velocity 46
000001t:  Note on ::  Channel 9.  Note 38.  Velocity 0
000007t:  Control change ::  Channel 9.  Controller 7.  Value: 20
000004t:  Note on ::  Channel 9.  Note 38.  Velocity 64
000001t:  Note on ::  Channel 9.  Note 38.  Velocity 0
000007t:  Control change ::  Channel 9.  Controller 7.  Value: 19
000004t:  Note on ::  Channel 9.  Note 38.  Velocity 82
000001t:  Note on ::  Channel 9.  Note 38.  Velocity 0
000008t:  Control change ::  Channel 9.  Controller 7.  Value: 18
000003t:  Note on ::  Channel 9.  Note 38.  Velocity 46
000001t:  Note on ::  Channel 9.  Note 38.  Velocity 0
000009t:  Control change ::  Channel 9.  Controller 7.  Value: 17
000002t:  Note on ::  Channel 9.  Note 38.  Velocity 64
000001t:  Note on ::  Channel 9.  Note 38.  Velocity 0
000010t:  Control change ::  Channel 9.  Controller 7.  Value: 16
000013t:  Note on ::  Channel 9.  Note 36.  Velocity 82
000000t:  Note on ::  Channel 9.  Note 46.  Velocity 100
000000t:  Control change ::  Channel 9.  Controller 7.  Value: 15
000001t:  Note on ::  Channel 9.  Note 46.  Velocity 0
000000t:  Note on ::  Channel 9.  Note 36.  Velocity 0
000011t:  Control change ::  Channel 9.  Controller 7.  Value: 14
000013t:  Control change ::  Channel 9.  Controller 7.  Value: 13
000013t:  Control change ::  Channel 9.  Controller 7.  Value: 12
000008t:  Note on ::  Channel 9.  Note 38.  Velocity 28
000001t:  Note on ::  Channel 9.  Note 38.  Velocity 0
000001t:  Note on ::  Channel 9.  Note 38.  Velocity 82
000001t:  Note on ::  Channel 9.  Note 38.  Velocity 0
000002t:  Control change ::  Channel 9.  Controller 7.  Value: 11
000013t:  Control change ::  Channel 9.  Controller 7.  Value: 10
000008t:  Note on ::  Channel 9.  Note 36.  Velocity 46
000001t:  Note on ::  Channel 9.  Note 36.  Velocity 0
000003t:  Control change ::  Channel 9.  Controller 7.  Value: 9
000013t:  Control change ::  Channel 9.  Controller 7.  Value: 8
000007t:  Note on ::  Channel 9.  Note 36.  Velocity 82
000001t:  Note on ::  Channel 9.  Note 36.  Velocity 0
000005t:  Control change ::  Channel 9.  Controller 7.  Value: 7
000013t:  Control change ::  Channel 9.  Controller 7.  Value: 6
000013t:  Control change ::  Channel 9.  Controller 7.  Value: 5
000012t:  Control change ::  Channel 9.  Controller 7.  Value: 4
000004t:  Note on ::  Channel 9.  Note 38.  Velocity 82
000001t:  Note on ::  Channel 9.  Note 38.  Velocity 0
000008t:  Control change ::  Channel 9.  Controller 7.  Value: 3
000003t:  Note on ::  Channel 9.  Note 38.  Velocity 46
000001t:  Note on ::  Channel 9.  Note 38.  Velocity 0
000009t:  Control change ::  Channel 9.  Controller 7.  Value: 2
000002t:  Note on ::  Channel 9.  Note 38.  Velocity 64
000001t:  Note on ::  Channel 9.  Note 38.  Velocity 0
000010t:  Control change ::  Channel 9.  Controller 7.  Value: 1
000012t:  Control change ::  Channel 9.  Controller 7.  Value: 0
000000t:  Meta-event type $2f (End-track event) of length 0
Sigma t = 24911

Track chunk of 309 bytes
000000t:  Meta-event type $21 (?) of length 1
	  _
000000t:  Program (patch) change ::  Channel 10.  Patch 11 (Vibraphone)
000000t:  Control change ::  Channel 10.  Controller 7.  Value: 88
000000t:  Control change ::  Channel 10.  Controller 10.  Value: 25
000093t:  Control change ::  Channel 10.  Controller 11.  Value: 88
000005t:  Control change ::  Channel 10.  Controller 100.  Value: 0
000002t:  Control change ::  Channel 10.  Controller 101.  Value: 0
000002t:  Control change ::  Channel 10.  Controller 6.  Value: 16
000002t:  Pitch wheel change ::  Channel 10.   -8192
000008t:  Control change ::  Channel 10.  Controller 1.  Value: 0
000002t:  Meta-event type $21 (?) of length 1
	  _
000000t:  Sysex type f0 of length 9
000000t:  Meta-event type $21 (?) of length 1
	  _
000002t:  Control change ::  Channel 10.  Controller 65.  Value: 0
000002t:  Control change ::  Channel 10.  Controller 5.  Value: 0
000002t:  Meta-event type $21 (?) of length 1
	  _
000000t:  Sysex type f0 of length 9
000000t:  Meta-event type $21 (?) of length 1
	  _
000002t:  Meta-event type $21 (?) of length 1
	  _
000000t:  Sysex type f0 of length 9
000000t:  Meta-event type $21 (?) of length 1
	  _
010798t:  Control change ::  Channel 10.  Controller 7.  Value: 98
000168t:  Pitch wheel change ::  Channel 10.   -8192
000024t:  Note on ::  Channel 10.  Note 77.  Velocity 64
000024t:  Pitch wheel change ::  Channel 10.   -8192
000022t:  Note on ::  Channel 10.  Note 77.  Velocity 0
000002t:  Note on ::  Channel 10.  Note 75.  Velocity 64
000022t:  Note on ::  Channel 10.  Note 75.  Velocity 0
000002t:  Note on ::  Channel 10.  Note 74.  Velocity 64
000024t:  Pitch wheel change ::  Channel 10.   -8192
000022t:  Note on ::  Channel 10.  Note 74.  Velocity 0
000002t:  Note on ::  Channel 10.  Note 72.  Velocity 64
000022t:  Note on ::  Channel 10.  Note 72.  Velocity 0
000002t:  Note on ::  Channel 10.  Note 74.  Velocity 64
000214t:  Note on ::  Channel 10.  Note 74.  Velocity 0
000386t:  Pitch wheel change ::  Channel 10.   -8192
000024t:  Note on ::  Channel 10.  Note 77.  Velocity 64
000024t:  Pitch wheel change ::  Channel 10.   -8192
000022t:  Note on ::  Channel 10.  Note 77.  Velocity 0
000002t:  Note on ::  Channel 10.  Note 75.  Velocity 64
000022t:  Note on ::  Channel 10.  Note 75.  Velocity 0
000002t:  Note on ::  Channel 10.  Note 74.  Velocity 64
000024t:  Pitch wheel change ::  Channel 10.   -8192
000022t:  Note on ::  Channel 10.  Note 74.  Velocity 0
000002t:  Note on ::  Channel 10.  Note 72.  Velocity 64
000022t:  Note on ::  Channel 10.  Note 72.  Velocity 0
000002t:  Note on ::  Channel 10.  Note 74.  Velocity 64
000214t:  Note on ::  Channel 10.  Note 74.  Velocity 0
000385t:  Pitch wheel change ::  Channel 10.   -8192
000024t:  Note on ::  Channel 10.  Note 77.  Velocity 64
000024t:  Pitch wheel change ::  Channel 10.   -8192
000022t:  Note on ::  Channel 10.  Note 77.  Velocity 0
000002t:  Note on ::  Channel 10.  Note 75.  Velocity 64
000022t:  Note on ::  Channel 10.  Note 75.  Velocity 0
000002t:  Note on ::  Channel 10.  Note 74.  Velocity 64
000024t:  Pitch wheel change ::  Channel 10.   -8192
000022t:  Note on ::  Channel 10.  Note 74.  Velocity 0
000002t:  Note on ::  Channel 10.  Note 72.  Velocity 64
000022t:  Note on ::  Channel 10.  Note 72.  Velocity 0
000002t:  Note on ::  Channel 10.  Note 74.  Velocity 64
000214t:  Note on ::  Channel 10.  Note 74.  Velocity 0
000386t:  Pitch wheel change ::  Channel 10.   -8192
000024t:  Note on ::  Channel 10.  Note 77.  Velocity 64
000024t:  Pitch wheel change ::  Channel 10.   -8192
000022t:  Note on ::  Channel 10.  Note 77.  Velocity 0
000002t:  Note on ::  Channel 10.  Note 75.  Velocity 64
000022t:  Note on ::  Channel 10.  Note 75.  Velocity 0
000002t:  Note on ::  Channel 10.  Note 74.  Velocity 64
000024t:  Pitch wheel change ::  Channel 10.   -8192
000022t:  Note on ::  Channel 10.  Note 74.  Velocity 0
000002t:  Note on ::  Channel 10.  Note 72.  Velocity 64
000022t:  Note on ::  Channel 10.  Note 72.  Velocity 0
000002t:  Note on ::  Channel 10.  Note 70.  Velocity 64
000214t:  Note on ::  Channel 10.  Note 70.  Velocity 0
000002t:  Pitch wheel change ::  Channel 10.   -8192
000000t:  Meta-event type $2f (End-track event) of length 0
Sigma t = 13775

Track chunk of 309 bytes
000000t:  Meta-event type $21 (?) of length 1
	  _
000000t:  Program (patch) change ::  Channel 11.  Patch 11 (Vibraphone)
000000t:  Control change ::  Channel 11.  Controller 7.  Value: 88
000000t:  Control change ::  Channel 11.  Controller 10.  Value: 102
000095t:  Control change ::  Channel 11.  Controller 11.  Value: 88
000005t:  Control change ::  Channel 11.  Controller 100.  Value: 0
000002t:  Control change ::  Channel 11.  Controller 101.  Value: 0
000002t:  Control change ::  Channel 11.  Controller 6.  Value: 16
000002t:  Pitch wheel change ::  Channel 11.   -8192
000008t:  Control change ::  Channel 11.  Controller 1.  Value: 0
000002t:  Meta-event type $21 (?) of length 1
	  _
000000t:  Sysex type f0 of length 9
000000t:  Meta-event type $21 (?) of length 1
	  _
000002t:  Control change ::  Channel 11.  Controller 65.  Value: 0
000002t:  Control change ::  Channel 11.  Controller 5.  Value: 0
000002t:  Meta-event type $21 (?) of length 1
	  _
000000t:  Sysex type f0 of length 9
000000t:  Meta-event type $21 (?) of length 1
	  _
000002t:  Meta-event type $21 (?) of length 1
	  _
000000t:  Sysex type f0 of length 9
000000t:  Meta-event type $21 (?) of length 1
	  _
010796t:  Control change ::  Channel 11.  Controller 7.  Value: 98
000167t:  Pitch wheel change ::  Channel 11.   -8192
000024t:  Note on ::  Channel 11.  Note 77.  Velocity 64
000024t:  Pitch wheel change ::  Channel 11.   -8192
000022t:  Note on ::  Channel 11.  Note 77.  Velocity 0
000002t:  Note on ::  Channel 11.  Note 75.  Velocity 64
000022t:  Note on ::  Channel 11.  Note 75.  Velocity 0
000002t:  Note on ::  Channel 11.  Note 74.  Velocity 64
000024t:  Pitch wheel change ::  Channel 11.   -8192
000022t:  Note on ::  Channel 11.  Note 74.  Velocity 0
000002t:  Note on ::  Channel 11.  Note 72.  Velocity 64
000022t:  Note on ::  Channel 11.  Note 72.  Velocity 0
000002t:  Note on ::  Channel 11.  Note 74.  Velocity 64
000214t:  Note on ::  Channel 11.  Note 74.  Velocity 0
000386t:  Pitch wheel change ::  Channel 11.   -8192
000024t:  Note on ::  Channel 11.  Note 77.  Velocity 64
000024t:  Pitch wheel change ::  Channel 11.   -8192
000022t:  Note on ::  Channel 11.  Note 77.  Velocity 0
000002t:  Note on ::  Channel 11.  Note 75.  Velocity 64
000022t:  Note on ::  Channel 11.  Note 75.  Velocity 0
000002t:  Note on ::  Channel 11.  Note 74.  Velocity 64
000024t:  Pitch wheel change ::  Channel 11.   -8192
000022t:  Note on ::  Channel 11.  Note 74.  Velocity 0
000002t:  Note on ::  Channel 11.  Note 72.  Velocity 64
000022t:  Note on ::  Channel 11.  Note 72.  Velocity 0
000002t:  Note on ::  Channel 11.  Note 74.  Velocity 64
000214t:  Note on ::  Channel 11.  Note 74.  Velocity 0
000386t:  Pitch wheel change ::  Channel 11.   -8192
000024t:  Note on ::  Channel 11.  Note 77.  Velocity 64
000024t:  Pitch wheel change ::  Channel 11.   -8192
000022t:  Note on ::  Channel 11.  Note 77.  Velocity 0
000002t:  Note on ::  Channel 11.  Note 75.  Velocity 64
000022t:  Note on ::  Channel 11.  Note 75.  Velocity 0
000002t:  Note on ::  Channel 11.  Note 74.  Velocity 64
000024t:  Pitch wheel change ::  Channel 11.   -8192
000022t:  Note on ::  Channel 11.  Note 74.  Velocity 0
000002t:  Note on ::  Channel 11.  Note 72.  Velocity 64
000022t:  Note on ::  Channel 11.  Note 72.  Velocity 0
000002t:  Note on ::  Channel 11.  Note 74.  Velocity 64
000214t:  Note on ::  Channel 11.  Note 74.  Velocity 0
000386t:  Pitch wheel change ::  Channel 11.   -8192
000024t:  Note on ::  Channel 11.  Note 77.  Velocity 64
000024t:  Pitch wheel change ::  Channel 11.   -8192
000022t:  Note on ::  Channel 11.  Note 77.  Velocity 0
000002t:  Note on ::  Channel 11.  Note 75.  Velocity 64
000022t:  Note on ::  Channel 11.  Note 75.  Velocity 0
000002t:  Note on ::  Channel 11.  Note 74.  Velocity 64
000024t:  Pitch wheel change ::  Channel 11.   -8192
000022t:  Note on ::  Channel 11.  Note 74.  Velocity 0
000002t:  Note on ::  Channel 11.  Note 72.  Velocity 64
000022t:  Note on ::  Channel 11.  Note 72.  Velocity 0
000002t:  Note on ::  Channel 11.  Note 70.  Velocity 64
000214t:  Note on ::  Channel 11.  Note 70.  Velocity 0
000002t:  Pitch wheel change ::  Channel 11.   -8192
000000t:  Meta-event type $2f (End-track event) of length 0
Sigma t = 13775

Track chunk of 112 bytes
000000t:  Meta-event type $21 (?) of length 1
	  _
000000t:  Program (patch) change ::  Channel 12.  Patch 0 (Acoustic Grand)
000000t:  Control change ::  Channel 12.  Controller 7.  Value: 100
000000t:  Control change ::  Channel 12.  Controller 10.  Value: 64
000097t:  Control change ::  Channel 12.  Controller 11.  Value: 127
000005t:  Control change ::  Channel 12.  Controller 100.  Value: 0
000002t:  Control change ::  Channel 12.  Controller 101.  Value: 0
000002t:  Control change ::  Channel 12.  Controller 6.  Value: 16
000002t:  Pitch wheel change ::  Channel 12.   -8192
000008t:  Control change ::  Channel 12.  Controller 1.  Value: 0
000002t:  Meta-event type $21 (?) of length 1
	  _
000000t:  Sysex type f0 of length 9
000000t:  Meta-event type $21 (?) of length 1
	  _
000002t:  Control change ::  Channel 12.  Controller 65.  Value: 0
000002t:  Control change ::  Channel 12.  Controller 5.  Value: 0
000000t:  Meta-event type $21 (?) of length 1
	  _
000000t:  Sysex type f0 of length 9
000000t:  Meta-event type $21 (?) of length 1
	  _
000002t:  Meta-event type $21 (?) of length 1
	  _
000000t:  Sysex type f0 of length 9
000000t:  Meta-event type $21 (?) of length 1
	  _
000000t:  Meta-event type $2f (End-track event) of length 0
Sigma t = 124
End.
