File: ../../sample-midi/Elton John - Rocket Man.mid
Format: 0
Tracks: 1
Ticks per quarter note: 96

Track chunk of 26108 bytes
000000t:  Meta-event type $03 (Track name) of length 10
	  Rocket Man
000000t:  Meta-event type $02 (Copyright text event) of length 24
	  (C)1993 Music Sales Ltd.
000000t:  Meta-event type $58 (Time signature) of length 4
	  ____
000000t:  Meta-event type $51 (Set tempo) of length 3
	  _ª 
000000t:  Sysex type f0 of length 5
000103t:  Program (patch) change ::  Channel 1.  Patch 35 (Fretless Bass)
000001t:  Control change ::  Channel 1.  Controller 7.  Value: 80
000000t:  Control change ::  Channel 1.  Controller 10.  Value: 64
000000t:  Control change ::  Channel 1.  Controller 11.  Value: 127
000001t:  Control change ::  Channel 1.  Controller 91.  Value: 18
000000t:  Control change ::  Channel 1.  Controller 93.  Value: 80
000003t:  Program (patch) change ::  Channel 2.  Patch 0 (Acoustic Grand)
000001t:  Control change ::  Channel 2.  Controller 7.  Value: 100
000000t:  Control change ::  Channel 2.  Controller 10.  Value: 55
000000t:  Control change ::  Channel 2.  Controller 11.  Value: 127
000001t:  Control change ::  Channel 2.  Controller 91.  Value: 85
000000t:  Control change ::  Channel 2.  Controller 93.  Value: 0
000003t:  Program (patch) change ::  Channel 3.  Patch 0 (Acoustic Grand)
000001t:  Control change ::  Channel 3.  Controller 7.  Value: 100
000000t:  Control change ::  Channel 3.  Controller 10.  Value: 70
000000t:  Control change ::  Channel 3.  Controller 11.  Value: 127
000001t:  Control change ::  Channel 3.  Controller 91.  Value: 80
000000t:  Control change ::  Channel 3.  Controller 93.  Value: 0
000003t:  Program (patch) change ::  Channel 4.  Patch 49 (String Ensemble 2)
000001t:  Control change ::  Channel 4.  Controller 7.  Value: 70
000000t:  Control change ::  Channel 4.  Controller 10.  Value: 110
000000t:  Control change ::  Channel 4.  Controller 11.  Value: 127
000001t:  Control change ::  Channel 4.  Controller 91.  Value: 110
000000t:  Control change ::  Channel 4.  Controller 93.  Value: 0
000003t:  Program (patch) change ::  Channel 5.  Patch 49 (String Ensemble 2)
000001t:  Control change ::  Channel 5.  Controller 7.  Value: 70
000000t:  Control change ::  Channel 5.  Controller 10.  Value: 14
000000t:  Control change ::  Channel 5.  Controller 11.  Value: 127
000001t:  Control change ::  Channel 5.  Controller 91.  Value: 110
000000t:  Control change ::  Channel 5.  Controller 93.  Value: 0
000003t:  Program (patch) change ::  Channel 6.  Patch 30 (Distortion Guitar)
000001t:  Control change ::  Channel 6.  Controller 7.  Value: 100
000000t:  Control change ::  Channel 6.  Controller 10.  Value: 94
000000t:  Control change ::  Channel 6.  Controller 11.  Value: 10
000001t:  Control change ::  Channel 6.  Controller 91.  Value: 100
000000t:  Control change ::  Channel 6.  Controller 93.  Value: 0
000003t:  Program (patch) change ::  Channel 7.  Patch 25 (Acoustic Guitar(steel))
000001t:  Control change ::  Channel 7.  Controller 7.  Value: 91
000000t:  Control change ::  Channel 7.  Controller 10.  Value: 36
000000t:  Control change ::  Channel 7.  Controller 11.  Value: 127
000001t:  Control change ::  Channel 7.  Controller 91.  Value: 90
000000t:  Control change ::  Channel 7.  Controller 93.  Value: 40
000009t:  Control change ::  Channel 9.  Controller 7.  Value: 60
000000t:  Control change ::  Channel 9.  Controller 11.  Value: 127
000001t:  Control change ::  Channel 9.  Controller 91.  Value: 100
000000t:  Control change ::  Channel 9.  Controller 93.  Value: 0
000047t:  Control change ::  Channel 6.  Controller 101.  Value: 0
000001t:  Control change ::  Channel 6.  Controller 100.  Value: 0
000001t:  Control change ::  Channel 6.  Controller 6.  Value: 12
000001t:  Control change ::  Channel 6.  Controller 101.  Value: 127
000001t:  Control change ::  Channel 6.  Controller 100.  Value: 127
000188t:  Meta-event type $58 (Time signature) of length 4
	  ____
000000t:  Note on ::  Channel 9.  Note 42.  Velocity 127
000001t:  Note off ::  Channel 9.  Note 42.  Velocity 127
000095t:  Note on ::  Channel 9.  Note 42.  Velocity 87
000001t:  Note off ::  Channel 9.  Note 42.  Velocity 87
000095t:  Note on ::  Channel 9.  Note 42.  Velocity 89
000001t:  Note off ::  Channel 9.  Note 42.  Velocity 89
000095t:  Note on ::  Channel 9.  Note 42.  Velocity 89
000001t:  Note off ::  Channel 9.  Note 42.  Velocity 89
000089t:  Note on ::  Channel 7.  Note 55.  Velocity 57
000004t:  Note on ::  Channel 7.  Note 58.  Velocity 51
000002t:  Note on ::  Channel 2.  Note 58.  Velocity 42
000000t:  Note on ::  Channel 2.  Note 62.  Velocity 63
000000t:  Note on ::  Channel 4.  Note 55.  Velocity 62
000000t:  Note on ::  Channel 5.  Note 70.  Velocity 54
000000t:  Note on ::  Channel 5.  Note 62.  Velocity 54
000000t:  Note on ::  Channel 9.  Note 36.  Velocity 109
000001t:  Note on ::  Channel 2.  Note 55.  Velocity 56
000000t:  Note off ::  Channel 9.  Note 36.  Velocity 109
000001t:  Control change ::  Channel 2.  Controller 64.  Value: 127
000000t:  Note on ::  Channel 7.  Note 62.  Velocity 52
000004t:  Note on ::  Channel 7.  Note 67.  Velocity 58
000030t:  Note off ::  Channel 2.  Note 62.  Velocity 63
000001t:  Note off ::  Channel 2.  Note 58.  Velocity 42
000007t:  Note off ::  Channel 2.  Note 55.  Velocity 56
000004t:  Note on ::  Channel 3.  Note 67.  Velocity 64
000024t:  Note on ::  Channel 3.  Note 70.  Velocity 68
000024t:  Note on ::  Channel 2.  Note 55.  Velocity 59
000000t:  Note on ::  Channel 2.  Note 58.  Velocity 59
000001t:  Note on ::  Channel 2.  Note 62.  Velocity 61
000002t:  Note off ::  Channel 3.  Note 67.  Velocity 64
000015t:  Note off ::  Channel 3.  Note 70.  Velocity 68
000009t:  Note off ::  Channel 2.  Note 62.  Velocity 61
000001t:  Note off ::  Channel 2.  Note 58.  Velocity 59
000002t:  Note off ::  Channel 2.  Note 55.  Velocity 59
000017t:  Note on ::  Channel 3.  Note 67.  Velocity 61
000002t:  Note on ::  Channel 9.  Note 36.  Velocity 64
000001t:  Note off ::  Channel 9.  Note 36.  Velocity 64
000001t:  Note off ::  Channel 7.  Note 55.  Velocity 57
000018t:  Note off ::  Channel 7.  Note 58.  Velocity 51
000001t:  Note off ::  Channel 7.  Note 67.  Velocity 58
000002t:  Note on ::  Channel 3.  Note 70.  Velocity 62
000000t:  Note off ::  Channel 7.  Note 62.  Velocity 52
000003t:  Note off ::  Channel 3.  Note 67.  Velocity 61
000015t:  Note on ::  Channel 7.  Note 53.  Velocity 65
000004t:  Note on ::  Channel 4.  Note 53.  Velocity 57
000000t:  Note on ::  Channel 7.  Note 58.  Velocity 55
000002t:  Note on ::  Channel 2.  Note 58.  Velocity 46
000000t:  Note on ::  Channel 2.  Note 62.  Velocity 62
000000t:  Note on ::  Channel 9.  Note 36.  Velocity 113
000001t:  Note on ::  Channel 2.  Note 53.  Velocity 37
000000t:  Note off ::  Channel 9.  Note 36.  Velocity 113
000001t:  Note on ::  Channel 7.  Note 62.  Velocity 59
000003t:  Note on ::  Channel 7.  Note 67.  Velocity 55
000002t:  Control change ::  Channel 2.  Controller 64.  Value: 0
000004t:  Note off ::  Channel 4.  Note 55.  Velocity 62
000016t:  Control change ::  Channel 2.  Controller 64.  Value: 127
000008t:  Note off ::  Channel 2.  Note 62.  Velocity 62
000003t:  Note off ::  Channel 2.  Note 58.  Velocity 46
000002t:  Note off ::  Channel 3.  Note 70.  Velocity 62
000007t:  Note on ::  Channel 3.  Note 67.  Velocity 58
000003t:  Note off ::  Channel 2.  Note 53.  Velocity 37
000045t:  Note on ::  Channel 2.  Note 58.  Velocity 49
000000t:  Note off ::  Channel 3.  Note 67.  Velocity 58
000000t:  Note on ::  Channel 3.  Note 70.  Velocity 67
000001t:  Note on ::  Channel 2.  Note 62.  Velocity 65
000000t:  Note on ::  Channel 2.  Note 53.  Velocity 47
000032t:  Note off ::  Channel 2.  Note 62.  Velocity 65
000004t:  Note off ::  Channel 2.  Note 53.  Velocity 47
000002t:  Note off ::  Channel 2.  Note 58.  Velocity 49
000034t:  Note off ::  Channel 7.  Note 53.  Velocity 65
000004t:  Note off ::  Channel 7.  Note 67.  Velocity 55
000000t:  Note off ::  Channel 7.  Note 58.  Velocity 55
000001t:  Note off ::  Channel 7.  Note 62.  Velocity 59
000012t:  Note on ::  Channel 7.  Note 52.  Velocity 55
000002t:  Note on ::  Channel 4.  Note 52.  Velocity 59
000001t:  Note off ::  Channel 4.  Note 53.  Velocity 57
000001t:  Note on ::  Channel 5.  Note 64.  Velocity 61
000000t:  Note on ::  Channel 7.  Note 55.  Velocity 56
000000t:  Note on ::  Channel 9.  Note 36.  Velocity 94
000001t:  Note off ::  Channel 9.  Note 36.  Velocity 94
000001t:  Note on ::  Channel 3.  Note 67.  Velocity 70
000001t:  Note on ::  Channel 2.  Note 58.  Velocity 32
000000t:  Note on ::  Channel 2.  Note 60.  Velocity 64
000000t:  Note off ::  Channel 5.  Note 62.  Velocity 54
000001t:  Note on ::  Channel 2.  Note 52.  Velocity 53
000000t:  Note off ::  Channel 3.  Note 70.  Velocity 67
000000t:  Note on ::  Channel 7.  Note 60.  Velocity 44
000004t:  Note on ::  Channel 7.  Note 67.  Velocity 60
000007t:  Control change ::  Channel 2.  Controller 64.  Value: 0
000018t:  Note off ::  Channel 3.  Note 67.  Velocity 70
000003t:  Control change ::  Channel 2.  Controller 64.  Value: 127
000007t:  Note off ::  Channel 2.  Note 60.  Velocity 64
000001t:  Note off ::  Channel 2.  Note 58.  Velocity 32
000007t:  Note on ::  Channel 3.  Note 70.  Velocity 71
000012t:  Note off ::  Channel 2.  Note 52.  Velocity 53
000012t:  Note on ::  Channel 3.  Note 72.  Velocity 73
000025t:  Note on ::  Channel 2.  Note 52.  Velocity 46
000000t:  Note on ::  Channel 2.  Note 58.  Velocity 41
000000t:  Note on ::  Channel 2.  Note 60.  Velocity 59
000000t:  Note off ::  Channel 3.  Note 70.  Velocity 71
000010t:  Control change ::  Channel 2.  Controller 64.  Value: 0
000015t:  Control change ::  Channel 2.  Controller 64.  Value: 127
000008t:  Note off ::  Channel 2.  Note 52.  Velocity 46
000012t:  Note off ::  Channel 2.  Note 60.  Velocity 59
000002t:  Note on ::  Channel 9.  Note 36.  Velocity 63
000001t:  Note off ::  Channel 2.  Note 58.  Velocity 41
000000t:  Note off ::  Channel 9.  Note 36.  Velocity 63
000011t:  Note off ::  Channel 7.  Note 52.  Velocity 55
000012t:  Note off ::  Channel 7.  Note 60.  Velocity 44
000006t:  Note off ::  Channel 7.  Note 55.  Velocity 56
000005t:  Note off ::  Channel 7.  Note 67.  Velocity 60
000009t:  Control change ::  Channel 2.  Controller 64.  Value: 0
000000t:  Note on ::  Channel 7.  Note 48.  Velocity 71
000003t:  Note on ::  Channel 2.  Note 48.  Velocity 65
000001t:  Note on ::  Channel 9.  Note 36.  Velocity 109
000001t:  Note off ::  Channel 9.  Note 36.  Velocity 109
000015t:  Control change ::  Channel 2.  Controller 64.  Value: 127
000005t:  Note on ::  Channel 7.  Note 52.  Velocity 66
000002t:  Note on ::  Channel 2.  Note 52.  Velocity 58
000022t:  Note off ::  Channel 2.  Note 48.  Velocity 65
000000t:  Note on ::  Channel 7.  Note 55.  Velocity 58
000002t:  Note on ::  Channel 2.  Note 55.  Velocity 75
000012t:  Note off ::  Channel 2.  Note 52.  Velocity 58
000009t:  Note on ::  Channel 7.  Note 58.  Velocity 74
000004t:  Note on ::  Channel 2.  Note 58.  Velocity 72
000005t:  Note off ::  Channel 2.  Note 55.  Velocity 75
000010t:  Control change ::  Channel 7.  Controller 1.  Value: 14
000005t:  Note off ::  Channel 3.  Note 72.  Velocity 73
000004t:  Control change ::  Channel 7.  Controller 1.  Value: 61
000008t:  Control change ::  Channel 7.  Controller 1.  Value: 94
000008t:  Control change ::  Channel 7.  Controller 1.  Value: 0
000001t:  Note off ::  Channel 7.  Note 55.  Velocity 58
000004t:  Note on ::  Channel 7.  Note 55.  Velocity 50
000003t:  Note on ::  Channel 2.  Note 55.  Velocity 68
000001t:  Note off ::  Channel 2.  Note 58.  Velocity 72
000011t:  Note off ::  Channel 7.  Note 58.  Velocity 74
000009t:  Note on ::  Channel 7.  Note 60.  Velocity 50
000001t:  Note off ::  Channel 2.  Note 55.  Velocity 68
000002t:  Note on ::  Channel 2.  Note 60.  Velocity 73
000014t:  Note off ::  Channel 7.  Note 48.  Velocity 71
000002t:  Note off ::  Channel 2.  Note 60.  Velocity 73
000008t:  Note off ::  Channel 5.  Note 70.  Velocity 54
000003t:  Note off ::  Channel 7.  Note 52.  Velocity 66
000002t:  Note off ::  Channel 7.  Note 55.  Velocity 50
000009t:  Note off ::  Channel 5.  Note 64.  Velocity 61
000003t:  Control change ::  Channel 2.  Controller 64.  Value: 0
000000t:  Note off ::  Channel 4.  Note 52.  Velocity 59
000000t:  Note off ::  Channel 7.  Note 60.  Velocity 50
000001t:  Note on ::  Channel 7.  Note 55.  Velocity 57
000002t:  Note on ::  Channel 4.  Note 55.  Velocity 53
000002t:  Note on ::  Channel 7.  Note 58.  Velocity 51
000001t:  Note on ::  Channel 2.  Note 55.  Velocity 56
000000t:  Note on ::  Channel 2.  Note 58.  Velocity 50
000000t:  Note on ::  Channel 2.  Note 62.  Velocity 78
000000t:  Note on ::  Channel 5.  Note 62.  Velocity 60
000000t:  Note on ::  Channel 5.  Note 70.  Velocity 52
000001t:  Note on ::  Channel 9.  Note 36.  Velocity 113
000001t:  Note off ::  Channel 9.  Note 36.  Velocity 113
000001t:  Note on ::  Channel 7.  Note 62.  Velocity 52
000004t:  Note on ::  Channel 7.  Note 67.  Velocity 58
000012t:  Control change ::  Channel 2.  Controller 64.  Value: 127
000019t:  Note off ::  Channel 2.  Note 62.  Velocity 78
000004t:  Note off ::  Channel 2.  Note 58.  Velocity 50
000004t:  Note off ::  Channel 2.  Note 55.  Velocity 56
000003t:  Note on ::  Channel 3.  Note 70.  Velocity 73
000023t:  Note off ::  Channel 3.  Note 70.  Velocity 73
000001t:  Note on ::  Channel 3.  Note 67.  Velocity 65
000023t:  Note on ::  Channel 2.  Note 55.  Velocity 49
000000t:  Note on ::  Channel 2.  Note 58.  Velocity 56
000000t:  Note on ::  Channel 2.  Note 62.  Velocity 58
000001t:  Note on ::  Channel 3.  Note 70.  Velocity 71
000004t:  Note off ::  Channel 3.  Note 67.  Velocity 65
000005t:  Control change ::  Channel 2.  Controller 64.  Value: 0
000017t:  Control change ::  Channel 2.  Controller 64.  Value: 127
000010t:  Note off ::  Channel 2.  Note 62.  Velocity 58
000000t:  Note off ::  Channel 2.  Note 58.  Velocity 56
000005t:  Note off ::  Channel 2.  Note 55.  Velocity 49
000006t:  Note off ::  Channel 3.  Note 70.  Velocity 71
000000t:  Note on ::  Channel 9.  Note 36.  Velocity 79
000001t:  Note on ::  Channel 3.  Note 67.  Velocity 79
000000t:  Note off ::  Channel 9.  Note 36.  Velocity 79
000006t:  Note off ::  Channel 7.  Note 55.  Velocity 57
000007t:  Note off ::  Channel 7.  Note 58.  Velocity 51
000011t:  Note off ::  Channel 7.  Note 62.  Velocity 52
000002t:  Note off ::  Channel 7.  Note 67.  Velocity 58
000016t:  Note on ::  Channel 7.  Note 53.  Velocity 65
000004t:  Note off ::  Channel 4.  Note 55.  Velocity 53
000000t:  Note on ::  Channel 4.  Note 53.  Velocity 61
000000t:  Note on ::  Channel 7.  Note 58.  Velocity 55
000001t:  Note on ::  Channel 2.  Note 62.  Velocity 54
000000t:  Note on ::  Channel 9.  Note 36.  Velocity 127
000001t:  Note on ::  Channel 2.  Note 53.  Velocity 56
000000t:  Note on ::  Channel 2.  Note 58.  Velocity 50
000000t:  Note off ::  Channel 9.  Note 36.  Velocity 127
000002t:  Note on ::  Channel 7.  Note 62.  Velocity 59
000003t:  Note on ::  Channel 7.  Note 67.  Velocity 55
000001t:  Note off ::  Channel 3.  Note 67.  Velocity 79
000004t:  Control change ::  Channel 2.  Controller 64.  Value: 0
000019t:  Control change ::  Channel 2.  Controller 64.  Value: 127
000007t:  Note off ::  Channel 2.  Note 62.  Velocity 54
000004t:  Note off ::  Channel 2.  Note 58.  Velocity 50
000010t:  Note off ::  Channel 2.  Note 53.  Velocity 56
000045t:  Note on ::  Channel 3.  Note 70.  Velocity 72
000001t:  Note on ::  Channel 2.  Note 53.  Velocity 50
000000t:  Note on ::  Channel 2.  Note 58.  Velocity 52
000000t:  Note on ::  Channel 2.  Note 62.  Velocity 74
000012t:  Control change ::  Channel 2.  Controller 64.  Value: 0
000009t:  Note off ::  Channel 3.  Note 70.  Velocity 72
000002t:  Note on ::  Channel 3.  Note 72.  Velocity 65
000008t:  Control change ::  Channel 2.  Controller 64.  Value: 127
000002t:  Note off ::  Channel 2.  Note 62.  Velocity 74
000001t:  Note off ::  Channel 2.  Note 58.  Velocity 52
000001t:  Note off ::  Channel 2.  Note 53.  Velocity 50
000012t:  Note on ::  Channel 3.  Note 70.  Velocity 73
000001t:  Note off ::  Channel 3.  Note 72.  Velocity 65
000022t:  Note off ::  Channel 3.  Note 70.  Velocity 73
000001t:  Note on ::  Channel 3.  Note 72.  Velocity 80
000005t:  Note off ::  Channel 7.  Note 67.  Velocity 55
000001t:  Note off ::  Channel 7.  Note 62.  Velocity 59
000000t:  Note off ::  Channel 7.  Note 53.  Velocity 65
000001t:  Note off ::  Channel 7.  Note 58.  Velocity 55
000011t:  Note on ::  Channel 7.  Note 52.  Velocity 55
000002t:  Note on ::  Channel 5.  Note 64.  Velocity 70
000001t:  Note on ::  Channel 4.  Note 52.  Velocity 70
000000t:  Note off ::  Channel 5.  Note 62.  Velocity 60
000001t:  Note on ::  Channel 7.  Note 55.  Velocity 56
000002t:  Note on ::  Channel 2.  Note 58.  Velocity 39
000000t:  Note off ::  Channel 4.  Note 53.  Velocity 61
000000t:  Note on ::  Channel 9.  Note 36.  Velocity 111
000001t:  Note on ::  Channel 2.  Note 52.  Velocity 61
000000t:  Note on ::  Channel 2.  Note 60.  Velocity 65
000000t:  Note off ::  Channel 9.  Note 36.  Velocity 111
000001t:  Note on ::  Channel 7.  Note 60.  Velocity 44
000004t:  Note on ::  Channel 7.  Note 67.  Velocity 60
000004t:  Control change ::  Channel 2.  Controller 64.  Value: 0
000020t:  Control change ::  Channel 2.  Controller 64.  Value: 127
000004t:  Note off ::  Channel 2.  Note 60.  Velocity 65
000001t:  Note off ::  Channel 2.  Note 58.  Velocity 39
000004t:  Note off ::  Channel 2.  Note 52.  Velocity 61
000058t:  Note on ::  Channel 2.  Note 52.  Velocity 51
000000t:  Note on ::  Channel 2.  Note 58.  Velocity 36
000000t:  Note on ::  Channel 2.  Note 60.  Velocity 59
000010t:  Control change ::  Channel 2.  Controller 64.  Value: 0
000017t:  Control change ::  Channel 2.  Controller 64.  Value: 127
000006t:  Note off ::  Channel 2.  Note 52.  Velocity 51
000003t:  Note off ::  Channel 2.  Note 60.  Velocity 59
000003t:  Note off ::  Channel 2.  Note 58.  Velocity 36
000008t:  Note on ::  Channel 9.  Note 36.  Velocity 68
000001t:  Note off ::  Channel 9.  Note 36.  Velocity 68
000012t:  Note off ::  Channel 7.  Note 52.  Velocity 55
000012t:  Note off ::  Channel 7.  Note 60.  Velocity 44
000006t:  Note off ::  Channel 7.  Note 55.  Velocity 56
000005t:  Note off ::  Channel 7.  Note 67.  Velocity 60
000010t:  Note on ::  Channel 4.  Note 48.  Velocity 63
000001t:  Note off ::  Channel 4.  Note 52.  Velocity 70
000000t:  Note on ::  Channel 7.  Note 60.  Velocity 73
000000t:  Note on ::  Channel 9.  Note 36.  Velocity 127
000001t:  Note on ::  Channel 2.  Note 48.  Velocity 60
000000t:  Note off ::  Channel 9.  Note 36.  Velocity 127
000004t:  Note off ::  Channel 3.  Note 72.  Velocity 80
000002t:  Control change ::  Channel 2.  Controller 64.  Value: 0
000015t:  Note on ::  Channel 7.  Note 64.  Velocity 65
000003t:  Note on ::  Channel 2.  Note 52.  Velocity 74
000000t:  Control change ::  Channel 2.  Controller 64.  Value: 127
000001t:  Note off ::  Channel 2.  Note 48.  Velocity 60
000020t:  Note off ::  Channel 7.  Note 60.  Velocity 73
000001t:  Note on ::  Channel 7.  Note 67.  Velocity 73
000002t:  Note on ::  Channel 2.  Note 55.  Velocity 76
000004t:  Note off ::  Channel 7.  Note 64.  Velocity 65
000002t:  Note off ::  Channel 2.  Note 52.  Velocity 74
000002t:  Note off ::  Channel 7.  Note 67.  Velocity 73
000014t:  Note on ::  Channel 7.  Note 70.  Velocity 72
000002t:  Note on ::  Channel 2.  Note 58.  Velocity 73
000006t:  Note off ::  Channel 2.  Note 55.  Velocity 76
000017t:  Note on ::  Channel 9.  Note 44.  Velocity 60
000001t:  Note off ::  Channel 9.  Note 44.  Velocity 60
000004t:  Control change ::  Channel 7.  Controller 1.  Value: 49
000008t:  Control change ::  Channel 7.  Controller 1.  Value: 89
000008t:  Control change ::  Channel 7.  Controller 1.  Value: 0
000001t:  Note on ::  Channel 7.  Note 69.  Velocity 53
000001t:  Note on ::  Channel 9.  Note 44.  Velocity 52
000001t:  Note off ::  Channel 9.  Note 44.  Velocity 52
000003t:  Note off ::  Channel 2.  Note 58.  Velocity 73
000000t:  Note on ::  Channel 2.  Note 57.  Velocity 58
000017t:  Note off ::  Channel 2.  Note 57.  Velocity 58
000003t:  Note on ::  Channel 9.  Note 46.  Velocity 89
000001t:  Note on ::  Channel 7.  Note 67.  Velocity 63
000000t:  Note off ::  Channel 9.  Note 46.  Velocity 89
000002t:  Note on ::  Channel 2.  Note 55.  Velocity 59
000002t:  Note off ::  Channel 4.  Note 48.  Velocity 63
000001t:  Note on ::  Channel 4.  Note 50.  Velocity 91
000010t:  Note off ::  Channel 5.  Note 70.  Velocity 52
000002t:  Note off ::  Channel 2.  Note 55.  Velocity 59
000022t:  Note off ::  Channel 7.  Note 69.  Velocity 53
000004t:  Note off ::  Channel 7.  Note 67.  Velocity 63
000000t:  Note off ::  Channel 7.  Note 70.  Velocity 72
000000t:  Note on ::  Channel 7.  Note 51.  Velocity 55
000001t:  Note on ::  Channel 5.  Note 67.  Velocity 61
000001t:  Note on ::  Channel 5.  Note 70.  Velocity 54
000001t:  Note off ::  Channel 5.  Note 64.  Velocity 70
000001t:  Note on ::  Channel 7.  Note 58.  Velocity 56
000001t:  Note on ::  Channel 9.  Note 36.  Velocity 107
000001t:  Note off ::  Channel 9.  Note 36.  Velocity 107
000001t:  Note on ::  Channel 2.  Note 51.  Velocity 53
000000t:  Note on ::  Channel 2.  Note 55.  Velocity 59
000001t:  Note on ::  Channel 2.  Note 58.  Velocity 62
000000t:  Note on ::  Channel 7.  Note 63.  Velocity 44
000001t:  Note on ::  Channel 4.  Note 51.  Velocity 72
000001t:  Note off ::  Channel 4.  Note 50.  Velocity 91
000002t:  Control change ::  Channel 2.  Controller 64.  Value: 0
000000t:  Note on ::  Channel 7.  Note 67.  Velocity 60
000019t:  Note off ::  Channel 2.  Note 55.  Velocity 59
000004t:  Control change ::  Channel 2.  Controller 64.  Value: 127
000007t:  Note off ::  Channel 2.  Note 58.  Velocity 62
000005t:  Note off ::  Channel 2.  Note 51.  Velocity 53
000007t:  Note on ::  Channel 3.  Note 67.  Velocity 60
000010t:  Note off ::  Channel 3.  Note 67.  Velocity 60
000014t:  Note on ::  Channel 3.  Note 67.  Velocity 69
000024t:  Note on ::  Channel 3.  Note 70.  Velocity 76
000001t:  Note on ::  Channel 2.  Note 51.  Velocity 51
000000t:  Note on ::  Channel 2.  Note 55.  Velocity 52
000000t:  Note on ::  Channel 2.  Note 58.  Velocity 51
000000t:  Note on ::  Channel 9.  Note 44.  Velocity 110
000001t:  Note off ::  Channel 9.  Note 44.  Velocity 110
000004t:  Note off ::  Channel 3.  Note 67.  Velocity 69
000006t:  Control change ::  Channel 2.  Controller 64.  Value: 0
000000t:  Note off ::  Channel 3.  Note 70.  Velocity 76
000012t:  Note on ::  Channel 3.  Note 70.  Velocity 82
000007t:  Control change ::  Channel 2.  Controller 64.  Value: 127
000002t:  Note off ::  Channel 2.  Note 51.  Velocity 51
000002t:  Note off ::  Channel 2.  Note 58.  Velocity 51
000001t:  Note off ::  Channel 2.  Note 55.  Velocity 52
000012t:  Note on ::  Channel 3.  Note 74.  Velocity 102
000001t:  Note on ::  Channel 9.  Note 36.  Velocity 80
000001t:  Note off ::  Channel 9.  Note 36.  Velocity 80
000008t:  Note off ::  Channel 3.  Note 70.  Velocity 82
000003t:  Note off ::  Channel 7.  Note 51.  Velocity 55
000012t:  Note off ::  Channel 7.  Note 63.  Velocity 44
000006t:  Note off ::  Channel 7.  Note 58.  Velocity 56
000005t:  Note off ::  Channel 7.  Note 67.  Velocity 60
000001t:  Note off ::  Channel 5.  Note 67.  Velocity 61
000002t:  Note on ::  Channel 5.  Note 65.  Velocity 74
000002t:  Note off ::  Channel 4.  Note 51.  Velocity 72
000000t:  Note on ::  Channel 4.  Note 50.  Velocity 66
000002t:  Note on ::  Channel 7.  Note 50.  Velocity 65
000004t:  Note on ::  Channel 2.  Note 58.  Velocity 63
000000t:  Note on ::  Channel 7.  Note 53.  Velocity 55
000001t:  Note on ::  Channel 2.  Note 50.  Velocity 50
000000t:  Note on ::  Channel 2.  Note 53.  Velocity 55
000000t:  Note on ::  Channel 3.  Note 77.  Velocity 99
000001t:  Note off ::  Channel 3.  Note 74.  Velocity 102
000000t:  Note on ::  Channel 9.  Note 36.  Velocity 127
000001t:  Note off ::  Channel 9.  Note 36.  Velocity 127
000001t:  Control change ::  Channel 2.  Controller 64.  Value: 0
000000t:  Note on ::  Channel 7.  Note 58.  Velocity 59
000003t:  Note on ::  Channel 7.  Note 65.  Velocity 55
000020t:  Control change ::  Channel 2.  Controller 64.  Value: 127
000010t:  Note off ::  Channel 2.  Note 53.  Velocity 55
000001t:  Note off ::  Channel 2.  Note 50.  Velocity 50
000001t:  Note off ::  Channel 2.  Note 58.  Velocity 63
000058t:  Note on ::  Channel 2.  Note 50.  Velocity 49
000000t:  Note on ::  Channel 2.  Note 53.  Velocity 48
000000t:  Note on ::  Channel 2.  Note 58.  Velocity 59
000000t:  Note on ::  Channel 9.  Note 44.  Velocity 91
000001t:  Note off ::  Channel 9.  Note 44.  Velocity 91
000001t:  Control change ::  Channel 2.  Controller 64.  Value: 0
000018t:  Control change ::  Channel 2.  Controller 64.  Value: 127
000010t:  Note off ::  Channel 2.  Note 58.  Velocity 59
000003t:  Note off ::  Channel 2.  Note 50.  Velocity 49
000001t:  Note off ::  Channel 2.  Note 53.  Velocity 48
000014t:  Note on ::  Channel 3.  Note 82.  Velocity 96
000018t:  Note off ::  Channel 3.  Note 77.  Velocity 99
000007t:  Note off ::  Channel 7.  Note 50.  Velocity 65
000004t:  Note off ::  Channel 7.  Note 65.  Velocity 55
000000t:  Note off ::  Channel 7.  Note 53.  Velocity 55
000001t:  Note off ::  Channel 7.  Note 58.  Velocity 59
000012t:  Note on ::  Channel 7.  Note 48.  Velocity 55
000002t:  Note on ::  Channel 5.  Note 63.  Velocity 68
000001t:  Note off ::  Channel 5.  Note 65.  Velocity 74
000001t:  Note on ::  Channel 7.  Note 55.  Velocity 56
000001t:  Note on ::  Channel 4.  Note 48.  Velocity 74
000001t:  Note off ::  Channel 4.  Note 50.  Velocity 66
000000t:  Note on ::  Channel 9.  Note 36.  Velocity 127
000001t:  Note on ::  Channel 2.  Note 48.  Velocity 44
000000t:  Note on ::  Channel 2.  Note 51.  Velocity 47
000000t:  Note on ::  Channel 2.  Note 55.  Velocity 47
000000t:  Note off ::  Channel 9.  Note 36.  Velocity 127
000001t:  Note on ::  Channel 7.  Note 60.  Velocity 44
000004t:  Note on ::  Channel 7.  Note 63.  Velocity 60
000002t:  Control change ::  Channel 2.  Controller 64.  Value: 0
000018t:  Control change ::  Channel 2.  Controller 64.  Value: 127
000009t:  Note off ::  Channel 2.  Note 55.  Velocity 47
000014t:  Note off ::  Channel 2.  Note 51.  Velocity 47
000000t:  Note off ::  Channel 2.  Note 48.  Velocity 44
000000t:  Note on ::  Channel 3.  Note 74.  Velocity 83
000011t:  Note off ::  Channel 3.  Note 82.  Velocity 96
000013t:  Note off ::  Channel 3.  Note 74.  Velocity 83
000001t:  Note on ::  Channel 3.  Note 72.  Velocity 67
000022t:  Note on ::  Channel 2.  Note 55.  Velocity 58
000000t:  Note on ::  Channel 2.  Note 48.  Velocity 52
000000t:  Note on ::  Channel 2.  Note 51.  Velocity 52
000001t:  Note on ::  Channel 9.  Note 44.  Velocity 80
000001t:  Note on ::  Channel 3.  Note 70.  Velocity 60
000000t:  Note off ::  Channel 9.  Note 44.  Velocity 80
000001t:  Control change ::  Channel 2.  Controller 64.  Value: 0
000000t:  Note off ::  Channel 3.  Note 72.  Velocity 67
000017t:  Control change ::  Channel 2.  Controller 64.  Value: 127
000021t:  Note off ::  Channel 2.  Note 51.  Velocity 52
000001t:  Note off ::  Channel 2.  Note 48.  Velocity 52
000004t:  Note off ::  Channel 2.  Note 55.  Velocity 58
000003t:  Note off ::  Channel 3.  Note 70.  Velocity 60
000000t:  Note on ::  Channel 3.  Note 72.  Velocity 73
000000t:  Note on ::  Channel 9.  Note 36.  Velocity 81
000001t:  Note off ::  Channel 9.  Note 36.  Velocity 81
000011t:  Note off ::  Channel 7.  Note 48.  Velocity 55
000012t:  Note off ::  Channel 7.  Note 60.  Velocity 44
000006t:  Note off ::  Channel 7.  Note 55.  Velocity 56
000005t:  Note off ::  Channel 7.  Note 63.  Velocity 60
000007t:  Note on ::  Channel 4.  Note 46.  Velocity 63
000002t:  Note off ::  Channel 4.  Note 48.  Velocity 74
000000t:  Note on ::  Channel 7.  Note 46.  Velocity 71
000002t:  Note on ::  Channel 9.  Note 36.  Velocity 127
000001t:  Note off ::  Channel 9.  Note 36.  Velocity 127
000002t:  Note on ::  Channel 2.  Note 51.  Velocity 46
000000t:  Note on ::  Channel 2.  Note 55.  Velocity 58
000000t:  Note on ::  Channel 2.  Note 46.  Velocity 46
000010t:  Control change ::  Channel 2.  Controller 64.  Value: 0
000002t:  Note off ::  Channel 3.  Note 72.  Velocity 73
000008t:  Note on ::  Channel 7.  Note 51.  Velocity 66
000010t:  Control change ::  Channel 2.  Controller 64.  Value: 127
000006t:  Note off ::  Channel 2.  Note 51.  Velocity 46
000002t:  Note off ::  Channel 2.  Note 55.  Velocity 58
000004t:  Note off ::  Channel 2.  Note 46.  Velocity 46
000002t:  Note on ::  Channel 7.  Note 55.  Velocity 58
000003t:  Note on ::  Channel 3.  Note 67.  Velocity 75
000020t:  Note on ::  Channel 7.  Note 53.  Velocity 74
000003t:  Note on ::  Channel 3.  Note 65.  Velocity 74
000001t:  Note off ::  Channel 3.  Note 67.  Velocity 75
000021t:  Note off ::  Channel 7.  Note 51.  Velocity 66
000000t:  Note on ::  Channel 7.  Note 58.  Velocity 68
000003t:  Note on ::  Channel 2.  Note 46.  Velocity 58
000000t:  Note on ::  Channel 2.  Note 55.  Velocity 69
000000t:  Note on ::  Channel 3.  Note 70.  Velocity 70
000000t:  Note on ::  Channel 9.  Note 44.  Velocity 110
000001t:  Note on ::  Channel 2.  Note 51.  Velocity 52
000000t:  Note off ::  Channel 9.  Note 44.  Velocity 110
000002t:  Note off ::  Channel 3.  Note 65.  Velocity 74
000014t:  Control change ::  Channel 2.  Controller 64.  Value: 0
000000t:  Note off ::  Channel 7.  Note 55.  Velocity 58
000016t:  Control change ::  Channel 2.  Controller 64.  Value: 127
000004t:  Note off ::  Channel 7.  Note 53.  Velocity 74
000006t:  Note off ::  Channel 2.  Note 46.  Velocity 58
000001t:  Note off ::  Channel 3.  Note 70.  Velocity 70
000001t:  Note on ::  Channel 7.  Note 53.  Velocity 66
000001t:  Note off ::  Channel 2.  Note 51.  Velocity 52
000002t:  Note on ::  Channel 3.  Note 65.  Velocity 59
000003t:  Note off ::  Channel 2.  Note 55.  Velocity 69
000011t:  Note off ::  Channel 7.  Note 46.  Velocity 71
000003t:  Note off ::  Channel 7.  Note 58.  Velocity 68
000015t:  Note off ::  Channel 3.  Note 65.  Velocity 59
000005t:  Note off ::  Channel 7.  Note 53.  Velocity 66
000005t:  Note on ::  Channel 7.  Note 45.  Velocity 57
000004t:  Note on ::  Channel 4.  Note 45.  Velocity 70
000000t:  Note on ::  Channel 7.  Note 53.  Velocity 51
000002t:  Note on ::  Channel 2.  Note 53.  Velocity 58
000000t:  Note on ::  Channel 3.  Note 65.  Velocity 85
000000t:  Note off ::  Channel 5.  Note 70.  Velocity 54
000000t:  Note on ::  Channel 9.  Note 36.  Velocity 118
000001t:  Note on ::  Channel 2.  Note 45.  Velocity 49
000000t:  Note on ::  Channel 2.  Note 48.  Velocity 36
000000t:  Note off ::  Channel 9.  Note 36.  Velocity 118
000001t:  Note off ::  Channel 4.  Note 46.  Velocity 63
000000t:  Note on ::  Channel 5.  Note 60.  Velocity 61
000000t:  Note on ::  Channel 5.  Note 65.  Velocity 72
000000t:  Note on ::  Channel 7.  Note 60.  Velocity 52
000004t:  Note off ::  Channel 5.  Note 63.  Velocity 68
000000t:  Note on ::  Channel 7.  Note 65.  Velocity 58
000011t:  Control change ::  Channel 2.  Controller 64.  Value: 0
000021t:  Control change ::  Channel 2.  Controller 64.  Value: 127
000010t:  Note on ::  Channel 3.  Note 60.  Velocity 84
000006t:  Note off ::  Channel 3.  Note 65.  Velocity 85
000001t:  Note off ::  Channel 2.  Note 48.  Velocity 36
000002t:  Note off ::  Channel 2.  Note 53.  Velocity 58
000002t:  Note off ::  Channel 2.  Note 45.  Velocity 49
000012t:  Note on ::  Channel 3.  Note 65.  Velocity 84
000009t:  Note off ::  Channel 3.  Note 60.  Velocity 84
000015t:  Note on ::  Channel 2.  Note 53.  Velocity 57
000000t:  Note on ::  Channel 3.  Note 69.  Velocity 80
000000t:  Note on ::  Channel 9.  Note 44.  Velocity 113
000001t:  Note on ::  Channel 2.  Note 45.  Velocity 33
000000t:  Note on ::  Channel 2.  Note 48.  Velocity 42
000000t:  Note off ::  Channel 9.  Note 44.  Velocity 113
000017t:  Note off ::  Channel 3.  Note 65.  Velocity 84
000007t:  Note on ::  Channel 3.  Note 72.  Velocity 78
000011t:  Note off ::  Channel 3.  Note 69.  Velocity 80
000001t:  Note off ::  Channel 2.  Note 48.  Velocity 42
000003t:  Note off ::  Channel 2.  Note 45.  Velocity 33
000001t:  Note off ::  Channel 2.  Note 53.  Velocity 57
000007t:  Note on ::  Channel 9.  Note 36.  Velocity 80
000001t:  Note off ::  Channel 9.  Note 36.  Velocity 80
000006t:  Note off ::  Channel 7.  Note 45.  Velocity 57
000007t:  Note off ::  Channel 7.  Note 53.  Velocity 51
000011t:  Note off ::  Channel 7.  Note 60.  Velocity 52
000002t:  Note off ::  Channel 7.  Note 65.  Velocity 58
000015t:  Note off ::  Channel 3.  Note 72.  Velocity 78
000001t:  Note on ::  Channel 7.  Note 45.  Velocity 65
000004t:  Note on ::  Channel 7.  Note 60.  Velocity 67
000001t:  Note on ::  Channel 2.  Note 45.  Velocity 41
000000t:  Note on ::  Channel 2.  Note 48.  Velocity 39
000000t:  Note on ::  Channel 2.  Note 53.  Velocity 62
000000t:  Note on ::  Channel 3.  Note 69.  Velocity 75
000000t:  Note off ::  Channel 4.  Note 45.  Velocity 70
000000t:  Note on ::  Channel 9.  Note 36.  Velocity 127
000001t:  Note off ::  Channel 9.  Note 36.  Velocity 127
000001t:  Note on ::  Channel 4.  Note 48.  Velocity 61
000001t:  Note on ::  Channel 7.  Note 65.  Velocity 68
000003t:  Note on ::  Channel 7.  Note 72.  Velocity 75
000005t:  Control change ::  Channel 2.  Controller 64.  Value: 0
000013t:  Note off ::  Channel 3.  Note 69.  Velocity 75
000000t:  Note on ::  Channel 3.  Note 65.  Velocity 68
000004t:  Control change ::  Channel 2.  Controller 64.  Value: 127
000015t:  Note off ::  Channel 2.  Note 48.  Velocity 39
000004t:  Note off ::  Channel 3.  Note 65.  Velocity 68
000001t:  Note off ::  Channel 2.  Note 53.  Velocity 62
000000t:  Note on ::  Channel 3.  Note 60.  Velocity 56
000003t:  Note off ::  Channel 2.  Note 45.  Velocity 41
000021t:  Note on ::  Channel 3.  Note 65.  Velocity 83
000000t:  Note on ::  Channel 3.  Note 69.  Velocity 69
000007t:  Note off ::  Channel 3.  Note 60.  Velocity 56
000017t:  Note on ::  Channel 2.  Note 48.  Velocity 43
000000t:  Note on ::  Channel 2.  Note 53.  Velocity 64
000000t:  Note on ::  Channel 9.  Note 44.  Velocity 127
000001t:  Note on ::  Channel 2.  Note 45.  Velocity 45
000000t:  Note off ::  Channel 9.  Note 44.  Velocity 127
000021t:  Control change ::  Channel 2.  Controller 64.  Value: 0
000002t:  Note on ::  Channel 3.  Note 60.  Velocity 65
000004t:  Note off ::  Channel 3.  Note 65.  Velocity 83
000009t:  Control change ::  Channel 2.  Controller 64.  Value: 127
000010t:  Note off ::  Channel 2.  Note 48.  Velocity 43
000002t:  Note on ::  Channel 3.  Note 64.  Velocity 71
000000t:  Note on ::  Channel 3.  Note 67.  Velocity 67
000002t:  Note off ::  Channel 2.  Note 53.  Velocity 64
000001t:  Note off ::  Channel 2.  Note 45.  Velocity 45
000001t:  Note off ::  Channel 3.  Note 69.  Velocity 69
000010t:  Note off ::  Channel 3.  Note 60.  Velocity 65
000014t:  Note off ::  Channel 7.  Note 72.  Velocity 75
000001t:  Note off ::  Channel 7.  Note 65.  Velocity 68
000000t:  Note off ::  Channel 7.  Note 45.  Velocity 65
000001t:  Note off ::  Channel 7.  Note 60.  Velocity 67
000011t:  Note on ::  Channel 7.  Note 45.  Velocity 55
000001t:  Note on ::  Channel 4.  Note 53.  Velocity 70
000003t:  Note on ::  Channel 7.  Note 53.  Velocity 56
000001t:  Note on ::  Channel 9.  Note 36.  Velocity 127
000001t:  Note on ::  Channel 2.  Note 53.  Velocity 64
000000t:  Note off ::  Channel 9.  Note 36.  Velocity 127
000001t:  Note on ::  Channel 2.  Note 45.  Velocity 48
000000t:  Note on ::  Channel 2.  Note 48.  Velocity 47
000001t:  Note on ::  Channel 7.  Note 60.  Velocity 44
000001t:  Note off ::  Channel 4.  Note 48.  Velocity 61
000003t:  Note on ::  Channel 7.  Note 65.  Velocity 60
000001t:  Note off ::  Channel 3.  Note 64.  Velocity 71
000001t:  Note off ::  Channel 3.  Note 67.  Velocity 67
000007t:  Control change ::  Channel 2.  Controller 64.  Value: 0
000018t:  Control change ::  Channel 2.  Controller 64.  Value: 127
000014t:  Note off ::  Channel 2.  Note 53.  Velocity 64
000002t:  Note off ::  Channel 2.  Note 48.  Velocity 47
000000t:  Note on ::  Channel 3.  Note 60.  Velocity 61
000008t:  Note off ::  Channel 2.  Note 45.  Velocity 48
000015t:  Note on ::  Channel 3.  Note 65.  Velocity 70
000024t:  Note on ::  Channel 2.  Note 45.  Velocity 50
000000t:  Note on ::  Channel 2.  Note 48.  Velocity 49
000000t:  Note on ::  Channel 2.  Note 53.  Velocity 62
000000t:  Note on ::  Channel 3.  Note 69.  Velocity 79
000002t:  Note on ::  Channel 9.  Note 44.  Velocity 116
000001t:  Note off ::  Channel 9.  Note 44.  Velocity 116
000019t:  Note off ::  Channel 3.  Note 65.  Velocity 70
000003t:  Note on ::  Channel 3.  Note 72.  Velocity 78
000007t:  Note off ::  Channel 3.  Note 69.  Velocity 79
000005t:  Note off ::  Channel 2.  Note 48.  Velocity 49
000005t:  Note off ::  Channel 2.  Note 53.  Velocity 62
000005t:  Note off ::  Channel 3.  Note 60.  Velocity 61
000001t:  Note off ::  Channel 2.  Note 45.  Velocity 50
000009t:  Note off ::  Channel 3.  Note 72.  Velocity 78
000004t:  Note off ::  Channel 7.  Note 45.  Velocity 55
000012t:  Note off ::  Channel 7.  Note 60.  Velocity 44
000006t:  Note off ::  Channel 7.  Note 53.  Velocity 56
000005t:  Note off ::  Channel 7.  Note 65.  Velocity 60
000011t:  Note on ::  Channel 7.  Note 69.  Velocity 73
000001t:  Note on ::  Channel 2.  Note 45.  Velocity 48
000000t:  Note on ::  Channel 2.  Note 48.  Velocity 46
000000t:  Note on ::  Channel 2.  Note 53.  Velocity 67
000000t:  Note on ::  Channel 3.  Note 69.  Velocity 77
000000t:  Note on ::  Channel 9.  Note 36.  Velocity 127
000001t:  Note off ::  Channel 9.  Note 36.  Velocity 127
000004t:  Control change ::  Channel 2.  Controller 64.  Value: 0
000016t:  Note on ::  Channel 7.  Note 65.  Velocity 65
000003t:  Note on ::  Channel 3.  Note 65.  Velocity 73
000001t:  Control change ::  Channel 2.  Controller 64.  Value: 127
000004t:  Note off ::  Channel 3.  Note 69.  Velocity 77
000012t:  Note off ::  Channel 2.  Note 48.  Velocity 46
000004t:  Note off ::  Channel 7.  Note 69.  Velocity 73
000001t:  Note on ::  Channel 7.  Note 60.  Velocity 73
000001t:  Note off ::  Channel 3.  Note 65.  Velocity 73
000001t:  Note on ::  Channel 3.  Note 60.  Velocity 65
000001t:  Note off ::  Channel 2.  Note 53.  Velocity 67
000003t:  Note off ::  Channel 2.  Note 45.  Velocity 48
000000t:  Note off ::  Channel 7.  Note 65.  Velocity 65
000018t:  Note off ::  Channel 7.  Note 60.  Velocity 73
000000t:  Note on ::  Channel 7.  Note 65.  Velocity 88
000002t:  Note on ::  Channel 3.  Note 69.  Velocity 77
000001t:  Note on ::  Channel 3.  Note 65.  Velocity 77
000005t:  Note off ::  Channel 3.  Note 60.  Velocity 65
000018t:  Note on ::  Channel 2.  Note 45.  Velocity 49
000000t:  Note on ::  Channel 2.  Note 53.  Velocity 65
000001t:  Note on ::  Channel 2.  Note 48.  Velocity 36
000002t:  Control change ::  Channel 2.  Controller 64.  Value: 0
000001t:  Control change ::  Channel 7.  Controller 1.  Value: 49
000008t:  Control change ::  Channel 7.  Controller 1.  Value: 89
000007t:  Control change ::  Channel 2.  Controller 64.  Value: 127
000001t:  Note off ::  Channel 7.  Note 65.  Velocity 88
000000t:  Control change ::  Channel 7.  Controller 1.  Value: 0
000001t:  Note on ::  Channel 7.  Note 67.  Velocity 76
000003t:  Note on ::  Channel 3.  Note 67.  Velocity 73
000001t:  Note off ::  Channel 3.  Note 65.  Velocity 77
000000t:  Note on ::  Channel 9.  Note 41.  Velocity 52
000001t:  Note off ::  Channel 3.  Note 69.  Velocity 77
000000t:  Note off ::  Channel 9.  Note 41.  Velocity 52
000008t:  Note off ::  Channel 2.  Note 45.  Velocity 49
000001t:  Note off ::  Channel 2.  Note 53.  Velocity 65
000001t:  Note off ::  Channel 2.  Note 48.  Velocity 36
000011t:  Note on ::  Channel 7.  Note 65.  Velocity 81
000002t:  Note on ::  Channel 3.  Note 65.  Velocity 73
000000t:  Note on ::  Channel 9.  Note 41.  Velocity 119
000001t:  Note off ::  Channel 9.  Note 41.  Velocity 119
000009t:  Note off ::  Channel 3.  Note 67.  Velocity 73
000019t:  Note off ::  Channel 5.  Note 60.  Velocity 61
000008t:  Note off ::  Channel 7.  Note 67.  Velocity 76
000001t:  Note off ::  Channel 4.  Note 53.  Velocity 70
000000t:  Note on ::  Channel 5.  Note 70.  Velocity 70
000001t:  Note on ::  Channel 5.  Note 62.  Velocity 78
000001t:  Note off ::  Channel 7.  Note 65.  Velocity 81
000001t:  Note on ::  Channel 4.  Note 55.  Velocity 70
000001t:  Note on ::  Channel 7.  Note 55.  Velocity 70
000003t:  Note off ::  Channel 5.  Note 65.  Velocity 72
000001t:  Note on ::  Channel 7.  Note 58.  Velocity 62
000000t:  Pitch wheel change ::  Channel 1.   -8192
000001t:  Note on ::  Channel 1.  Note 55.  Velocity 81
000000t:  Note on ::  Channel 2.  Note 58.  Velocity 48
000001t:  Note on ::  Channel 2.  Note 55.  Velocity 56
000000t:  Note on ::  Channel 2.  Note 62.  Velocity 68
000000t:  Note on ::  Channel 9.  Note 36.  Velocity 125
000001t:  Pitch wheel change ::  Channel 1.   -8192
000000t:  Note off ::  Channel 3.  Note 65.  Velocity 73
000000t:  Note off ::  Channel 9.  Note 36.  Velocity 125
000001t:  Note on ::  Channel 7.  Note 62.  Velocity 56
000001t:  Pitch wheel change ::  Channel 1.   -8192
000001t:  Pitch wheel change ::  Channel 1.   -8192
000002t:  Pitch wheel change ::  Channel 1.   -8192
000000t:  Note on ::  Channel 7.  Note 67.  Velocity 62
000001t:  Pitch wheel change ::  Channel 1.   -8192
000001t:  Control change ::  Channel 2.  Controller 64.  Value: 0
000001t:  Pitch wheel change ::  Channel 1.   -8192
000001t:  Pitch wheel change ::  Channel 1.   -8192
000002t:  Pitch wheel change ::  Channel 1.   -8192
000001t:  Pitch wheel change ::  Channel 1.   -8192
000015t:  Control change ::  Channel 2.  Controller 64.  Value: 127
000013t:  Note off ::  Channel 2.  Note 62.  Velocity 68
000005t:  Note off ::  Channel 2.  Note 58.  Velocity 48
000001t:  Note off ::  Channel 2.  Note 55.  Velocity 56
000001t:  Note on ::  Channel 3.  Note 67.  Velocity 73
000019t:  Note off ::  Channel 3.  Note 67.  Velocity 73
000003t:  Note off ::  Channel 7.  Note 67.  Velocity 62
000001t:  Note on ::  Channel 3.  Note 70.  Velocity 72
000001t:  Note off ::  Channel 7.  Note 62.  Velocity 56
000000t:  Note off ::  Channel 7.  Note 55.  Velocity 70
000003t:  Note on ::  Channel 9.  Note 36.  Velocity 80
000001t:  Note off ::  Channel 7.  Note 58.  Velocity 62
000000t:  Note off ::  Channel 9.  Note 36.  Velocity 80
000015t:  Note on ::  Channel 7.  Note 55.  Velocity 54
000004t:  Note on ::  Channel 2.  Note 62.  Velocity 58
000000t:  Note on ::  Channel 7.  Note 58.  Velocity 43
000001t:  Note on ::  Channel 2.  Note 55.  Velocity 48
000000t:  Note on ::  Channel 2.  Note 58.  Velocity 41
000002t:  Note on ::  Channel 7.  Note 62.  Velocity 44
000001t:  Note on ::  Channel 9.  Note 44.  Velocity 127
000001t:  Note off ::  Channel 9.  Note 44.  Velocity 127
000001t:  Note on ::  Channel 7.  Note 67.  Velocity 53
000009t:  Control change ::  Channel 2.  Controller 64.  Value: 0
000012t:  Control change ::  Channel 2.  Controller 64.  Value: 127
000022t:  Note off ::  Channel 3.  Note 70.  Velocity 72
000000t:  Note on ::  Channel 3.  Note 67.  Velocity 68
000002t:  Note on ::  Channel 9.  Note 36.  Velocity 80
000001t:  Note off ::  Channel 9.  Note 36.  Velocity 80
000001t:  Note off ::  Channel 2.  Note 55.  Velocity 48
000000t:  Note off ::  Channel 2.  Note 62.  Velocity 58
000003t:  Note off ::  Channel 2.  Note 58.  Velocity 41
000001t:  Control change ::  Channel 1.  Controller 1.  Value: 2
000001t:  Control change ::  Channel 1.  Controller 1.  Value: 3
000003t:  Control change ::  Channel 1.  Controller 1.  Value: 5
000002t:  Control change ::  Channel 1.  Controller 1.  Value: 8
000004t:  Control change ::  Channel 1.  Controller 1.  Value: 10
000001t:  Note off ::  Channel 3.  Note 67.  Velocity 68
000001t:  Control change ::  Channel 1.  Controller 1.  Value: 12
000002t:  Note off ::  Channel 7.  Note 67.  Velocity 53
000001t:  Note on ::  Channel 3.  Note 70.  Velocity 72
000001t:  Control change ::  Channel 1.  Controller 1.  Value: 15
000001t:  Note off ::  Channel 7.  Note 62.  Velocity 44
000000t:  Note off ::  Channel 7.  Note 55.  Velocity 54
000001t:  Control change ::  Channel 1.  Controller 1.  Value: 17
000002t:  Note off ::  Channel 7.  Note 58.  Velocity 43
000004t:  Control change ::  Channel 1.  Controller 1.  Value: 19
000003t:  Control change ::  Channel 1.  Controller 1.  Value: 22
000003t:  Control change ::  Channel 1.  Controller 1.  Value: 24
000003t:  Control change ::  Channel 1.  Controller 1.  Value: 26
000001t:  Note on ::  Channel 7.  Note 53.  Velocity 65
000001t:  Note on ::  Channel 4.  Note 53.  Velocity 60
000000t:  Note on ::  Channel 5.  Note 74.  Velocity 72
000002t:  Control change ::  Channel 1.  Controller 1.  Value: 28
000001t:  Note on ::  Channel 7.  Note 58.  Velocity 55
000001t:  Control change ::  Channel 1.  Controller 1.  Value: 30
000000t:  Note on ::  Channel 2.  Note 53.  Velocity 47
000000t:  Note on ::  Channel 2.  Note 58.  Velocity 42
000000t:  Note on ::  Channel 2.  Note 62.  Velocity 65
000000t:  Note off ::  Channel 4.  Note 55.  Velocity 70
000001t:  Control change ::  Channel 1.  Controller 1.  Value: 31
000002t:  Note on ::  Channel 7.  Note 62.  Velocity 59
000000t:  Note on ::  Channel 9.  Note 36.  Velocity 127
000001t:  Note off ::  Channel 9.  Note 36.  Velocity 127
000002t:  Note on ::  Channel 7.  Note 67.  Velocity 55
000001t:  Control change ::  Channel 1.  Controller 1.  Value: 33
000002t:  Control change ::  Channel 1.  Controller 1.  Value: 37
000000t:  Control change ::  Channel 2.  Controller 64.  Value: 0
000009t:  Control change ::  Channel 1.  Controller 1.  Value: 39
000001t:  Control change ::  Channel 1.  Controller 1.  Value: 42
000008t:  Control change ::  Channel 2.  Controller 64.  Value: 127
000017t:  Control change ::  Channel 1.  Controller 1.  Value: 38
000001t:  Note off ::  Channel 2.  Note 62.  Velocity 65
000001t:  Control change ::  Channel 1.  Controller 1.  Value: 37
000001t:  Control change ::  Channel 1.  Controller 1.  Value: 35
000001t:  Note off ::  Channel 2.  Note 58.  Velocity 42
000001t:  Control change ::  Channel 1.  Controller 1.  Value: 29
000000t:  Note on ::  Channel 3.  Note 67.  Velocity 69
000001t:  Control change ::  Channel 1.  Controller 1.  Value: 25
000000t:  Note off ::  Channel 3.  Note 70.  Velocity 72
000002t:  Control change ::  Channel 1.  Controller 1.  Value: 22
000001t:  Control change ::  Channel 1.  Controller 1.  Value: 18
000002t:  Control change ::  Channel 1.  Controller 1.  Value: 16
000001t:  Control change ::  Channel 1.  Controller 1.  Value: 11
000002t:  Control change ::  Channel 1.  Controller 1.  Value: 4
000001t:  Control change ::  Channel 1.  Controller 1.  Value: 0
000002t:  Note off ::  Channel 2.  Note 53.  Velocity 47
000012t:  Note off ::  Channel 7.  Note 53.  Velocity 65
000003t:  Note off ::  Channel 3.  Note 67.  Velocity 69
000001t:  Note off ::  Channel 7.  Note 67.  Velocity 55
000000t:  Note off ::  Channel 7.  Note 58.  Velocity 55
000001t:  Note off ::  Channel 7.  Note 62.  Velocity 59
000014t:  Note on ::  Channel 7.  Note 53.  Velocity 54
000003t:  Note on ::  Channel 7.  Note 58.  Velocity 45
000001t:  Note on ::  Channel 9.  Note 44.  Velocity 127
000001t:  Note on ::  Channel 2.  Note 53.  Velocity 39
000000t:  Note on ::  Channel 2.  Note 58.  Velocity 44
000000t:  Note on ::  Channel 2.  Note 62.  Velocity 66
000000t:  Note on ::  Channel 3.  Note 70.  Velocity 75
000000t:  Note off ::  Channel 9.  Note 44.  Velocity 127
000003t:  Note on ::  Channel 7.  Note 62.  Velocity 54
000002t:  Note on ::  Channel 7.  Note 67.  Velocity 42
000007t:  Control change ::  Channel 2.  Controller 64.  Value: 0
000007t:  Note off ::  Channel 1.  Note 55.  Velocity 81
000004t:  Note on ::  Channel 1.  Note 55.  Velocity 93
000004t:  Control change ::  Channel 2.  Controller 64.  Value: 127
000012t:  Note off ::  Channel 2.  Note 62.  Velocity 66
000001t:  Note off ::  Channel 2.  Note 58.  Velocity 44
000004t:  Note off ::  Channel 2.  Note 53.  Velocity 39
000004t:  Note on ::  Channel 1.  Note 50.  Velocity 72
000004t:  Note off ::  Channel 1.  Note 55.  Velocity 93
000013t:  Note off ::  Channel 1.  Note 50.  Velocity 72
000007t:  Note on ::  Channel 1.  Note 43.  Velocity 76
000000t:  Note off ::  Channel 5.  Note 62.  Velocity 78
000001t:  Note off ::  Channel 7.  Note 53.  Velocity 54
000002t:  Note off ::  Channel 7.  Note 67.  Velocity 42
000000t:  Note off ::  Channel 7.  Note 58.  Velocity 45
000003t:  Note off ::  Channel 7.  Note 62.  Velocity 54
000011t:  Note on ::  Channel 7.  Note 52.  Velocity 55
000004t:  Note on ::  Channel 7.  Note 55.  Velocity 56
000003t:  Note off ::  Channel 1.  Note 43.  Velocity 76
000000t:  Note on ::  Channel 1.  Note 48.  Velocity 87
000000t:  Note on ::  Channel 2.  Note 58.  Velocity 37
000000t:  Note on ::  Channel 2.  Note 60.  Velocity 64
000000t:  Note on ::  Channel 3.  Note 67.  Velocity 75
000001t:  Note on ::  Channel 2.  Note 52.  Velocity 46
000000t:  Note on ::  Channel 5.  Note 72.  Velocity 74
000000t:  Note on ::  Channel 7.  Note 60.  Velocity 44
000000t:  Note on ::  Channel 9.  Note 36.  Velocity 127
000001t:  Note off ::  Channel 3.  Note 70.  Velocity 75
000000t:  Note off ::  Channel 9.  Note 36.  Velocity 127
000001t:  Note off ::  Channel 4.  Note 53.  Velocity 60
000000t:  Note on ::  Channel 5.  Note 64.  Velocity 60
000001t:  Note on ::  Channel 4.  Note 52.  Velocity 64
000001t:  Note off ::  Channel 5.  Note 74.  Velocity 72
000000t:  Note on ::  Channel 7.  Note 67.  Velocity 60
000004t:  Control change ::  Channel 2.  Controller 64.  Value: 0
000009t:  Note off ::  Channel 5.  Note 70.  Velocity 70
000012t:  Control change ::  Channel 2.  Controller 64.  Value: 127
000015t:  Note off ::  Channel 2.  Note 60.  Velocity 64
000001t:  Note off ::  Channel 2.  Note 58.  Velocity 37
000002t:  Note off ::  Channel 3.  Note 67.  Velocity 75
000000t:  Note on ::  Channel 3.  Note 70.  Velocity 72
000005t:  Note off ::  Channel 2.  Note 52.  Velocity 46
000007t:  Note off ::  Channel 7.  Note 52.  Velocity 55
000012t:  Note off ::  Channel 7.  Note 60.  Velocity 44
000001t:  Note on ::  Channel 3.  Note 72.  Velocity 70
000000t:  Note on ::  Channel 9.  Note 36.  Velocity 72
000001t:  Note off ::  Channel 9.  Note 36.  Velocity 72
000001t:  Note off ::  Channel 3.  Note 70.  Velocity 72
000003t:  Note off ::  Channel 7.  Note 55.  Velocity 56
000005t:  Note off ::  Channel 7.  Note 67.  Velocity 60
000006t:  Note on ::  Channel 7.  Note 52.  Velocity 51
000003t:  Note on ::  Channel 7.  Note 55.  Velocity 54
000004t:  Note on ::  Channel 2.  Note 52.  Velocity 50
000000t:  Note on ::  Channel 2.  Note 58.  Velocity 43
000000t:  Note on ::  Channel 2.  Note 60.  Velocity 61
000000t:  Note on ::  Channel 7.  Note 60.  Velocity 51
000001t:  Note on ::  Channel 9.  Note 44.  Velocity 114
000001t:  Note off ::  Channel 9.  Note 44.  Velocity 114
000002t:  Note on ::  Channel 7.  Note 67.  Velocity 49
000010t:  Control change ::  Channel 2.  Controller 64.  Value: 0
000014t:  Control change ::  Channel 2.  Controller 64.  Value: 127
000010t:  Note off ::  Channel 2.  Note 52.  Velocity 50
000013t:  Note off ::  Channel 2.  Note 60.  Velocity 61
000001t:  Note on ::  Channel 9.  Note 36.  Velocity 85
000001t:  Note off ::  Channel 9.  Note 36.  Velocity 85
000004t:  Note off ::  Channel 2.  Note 58.  Velocity 43
000003t:  Note off ::  Channel 7.  Note 52.  Velocity 51
000011t:  Note off ::  Channel 7.  Note 60.  Velocity 51
000006t:  Note off ::  Channel 7.  Note 55.  Velocity 54
000005t:  Note off ::  Channel 7.  Note 67.  Velocity 49
000009t:  Note on ::  Channel 7.  Note 48.  Velocity 69
000005t:  Note on ::  Channel 2.  Note 48.  Velocity 61
000001t:  Note off ::  Channel 3.  Note 72.  Velocity 70
000000t:  Note on ::  Channel 9.  Note 36.  Velocity 127
000001t:  Control change ::  Channel 2.  Controller 64.  Value: 0
000000t:  Note off ::  Channel 9.  Note 36.  Velocity 127
000020t:  Note on ::  Channel 7.  Note 52.  Velocity 72
000001t:  Control change ::  Channel 2.  Controller 64.  Value: 127
000001t:  Note on ::  Channel 2.  Note 52.  Velocity 37
000006t:  Note off ::  Channel 2.  Note 48.  Velocity 61
000014t:  Note on ::  Channel 7.  Note 55.  Velocity 54
000003t:  Note on ::  Channel 2.  Note 55.  Velocity 56
000022t:  Note on ::  Channel 7.  Note 58.  Velocity 74
000001t:  Note off ::  Channel 2.  Note 52.  Velocity 37
000002t:  Note on ::  Channel 2.  Note 58.  Velocity 76
000004t:  Note off ::  Channel 2.  Note 55.  Velocity 56
000011t:  Control change ::  Channel 7.  Controller 1.  Value: 14
000008t:  Note on ::  Channel 9.  Note 44.  Velocity 127
000001t:  Control change ::  Channel 7.  Controller 1.  Value: 61
000000t:  Note off ::  Channel 9.  Note 44.  Velocity 127
000008t:  Control change ::  Channel 7.  Controller 1.  Value: 94
000008t:  Note off ::  Channel 7.  Note 55.  Velocity 54
000000t:  Control change ::  Channel 7.  Controller 1.  Value: 0
000004t:  Note on ::  Channel 7.  Note 55.  Velocity 42
000005t:  Note off ::  Channel 2.  Note 58.  Velocity 76
000000t:  Note on ::  Channel 2.  Note 55.  Velocity 69
000012t:  Note off ::  Channel 7.  Note 58.  Velocity 74
000009t:  Note on ::  Channel 7.  Note 60.  Velocity 65
000002t:  Note off ::  Channel 2.  Note 55.  Velocity 69
000000t:  Note on ::  Channel 9.  Note 46.  Velocity 87
000001t:  Note on ::  Channel 2.  Note 60.  Velocity 60
000000t:  Note off ::  Channel 9.  Note 46.  Velocity 87
000013t:  Note off ::  Channel 7.  Note 48.  Velocity 69
000004t:  Note off ::  Channel 2.  Note 60.  Velocity 60
000010t:  Note off ::  Channel 7.  Note 55.  Velocity 42
000000t:  Note off ::  Channel 7.  Note 52.  Velocity 72
000008t:  Pitch wheel change ::  Channel 1.   -8192
000002t:  Pitch wheel change ::  Channel 1.   -8192
000001t:  Pitch wheel change ::  Channel 1.   -8192
000002t:  Pitch wheel change ::  Channel 1.   -8192
000001t:  Note off ::  Channel 1.  Note 48.  Velocity 87
000000t:  Pitch wheel change ::  Channel 1.   -8192
000000t:  Note off ::  Channel 7.  Note 60.  Velocity 65
000000t:  Note on ::  Channel 7.  Note 55.  Velocity 54
000001t:  Note on ::  Channel 5.  Note 62.  Velocity 68
000000t:  Note on ::  Channel 5.  Note 70.  Velocity 61
000001t:  Pitch wheel change ::  Channel 1.   -8192
000001t:  Pitch wheel change ::  Channel 1.   -8192
000000t:  Note on ::  Channel 4.  Note 55.  Velocity 63
000001t:  Note off ::  Channel 4.  Note 52.  Velocity 64
000000t:  Note on ::  Channel 7.  Note 58.  Velocity 62
000001t:  Note on ::  Channel 1.  Note 55.  Velocity 87
000001t:  Note on ::  Channel 2.  Note 62.  Velocity 76
000000t:  Note off ::  Channel 5.  Note 72.  Velocity 74
000001t:  Note on ::  Channel 2.  Note 55.  Velocity 52
000000t:  Note on ::  Channel 2.  Note 58.  Velocity 52
000000t:  Note on ::  Channel 9.  Note 36.  Velocity 127
000001t:  Note off ::  Channel 5.  Note 64.  Velocity 60
000000t:  Note on ::  Channel 7.  Note 62.  Velocity 56
000000t:  Note off ::  Channel 9.  Note 36.  Velocity 127
000003t:  Note on ::  Channel 7.  Note 67.  Velocity 62
000001t:  Pitch wheel change ::  Channel 1.   -8192
000001t:  Pitch wheel change ::  Channel 1.   -8192
000000t:  Control change ::  Channel 2.  Controller 64.  Value: 0
000002t:  Pitch wheel change ::  Channel 1.   -8192
000002t:  Pitch wheel change ::  Channel 1.   -8192
000001t:  Pitch wheel change ::  Channel 1.   -8192
000001t:  Pitch wheel change ::  Channel 1.   -8192
000002t:  Pitch wheel change ::  Channel 1.   -8192
000001t:  Pitch wheel change ::  Channel 1.   -8192
000002t:  Pitch wheel change ::  Channel 1.   -8192
000001t:  Pitch wheel change ::  Channel 1.   -8192
000002t:  Pitch wheel change ::  Channel 1.   -8192
000001t:  Pitch wheel change ::  Channel 1.   -8192
000002t:  Pitch wheel change ::  Channel 1.   -8192
000001t:  Pitch wheel change ::  Channel 1.   -8192
000002t:  Pitch wheel change ::  Channel 1.   -8192
000002t:  Control change ::  Channel 2.  Controller 64.  Value: 127
000010t:  Note off ::  Channel 2.  Note 62.  Velocity 76
000004t:  Note off ::  Channel 2.  Note 58.  Velocity 52
000005t:  Note on ::  Channel 3.  Note 70.  Velocity 72
000005t:  Note off ::  Channel 2.  Note 55.  Velocity 52
000014t:  Note off ::  Channel 3.  Note 70.  Velocity 72
000003t:  Note off ::  Channel 7.  Note 67.  Velocity 62
000001t:  Note on ::  Channel 3.  Note 67.  Velocity 79
000001t:  Note off ::  Channel 7.  Note 55.  Velocity 54
000001t:  Note off ::  Channel 7.  Note 62.  Velocity 56
000000t:  Note on ::  Channel 9.  Note 36.  Velocity 88
000001t:  Note off ::  Channel 9.  Note 36.  Velocity 88
000001t:  Note off ::  Channel 7.  Note 58.  Velocity 62
000015t:  Note on ::  Channel 7.  Note 55.  Velocity 54
000005t:  Note on ::  Channel 2.  Note 58.  Velocity 47
000000t:  Note on ::  Channel 2.  Note 62.  Velocity 73
000000t:  Note on ::  Channel 2.  Note 55.  Velocity 49
000000t:  Note on ::  Channel 3.  Note 70.  Velocity 70
000000t:  Note on ::  Channel 7.  Note 58.  Velocity 43
000002t:  Note on ::  Channel 9.  Note 44.  Velocity 127
000001t:  Note on ::  Channel 7.  Note 62.  Velocity 44
000000t:  Note off ::  Channel 9.  Note 44.  Velocity 127
000002t:  Note off ::  Channel 3.  Note 67.  Velocity 79
000001t:  Note on ::  Channel 7.  Note 67.  Velocity 53
000003t:  Control change ::  Channel 2.  Controller 64.  Value: 0
000018t:  Control change ::  Channel 2.  Controller 64.  Value: 127
000002t:  Control change ::  Channel 1.  Controller 1.  Value: 1
000001t:  Control change ::  Channel 1.  Controller 1.  Value: 3
000002t:  Control change ::  Channel 1.  Controller 1.  Value: 4
000001t:  Control change ::  Channel 1.  Controller 1.  Value: 6
000002t:  Control change ::  Channel 1.  Controller 1.  Value: 8
000001t:  Control change ::  Channel 1.  Controller 1.  Value: 9
000002t:  Control change ::  Channel 1.  Controller 1.  Value: 11
000004t:  Control change ::  Channel 1.  Controller 1.  Value: 14
000005t:  Control change ::  Channel 1.  Controller 1.  Value: 16
000001t:  Note off ::  Channel 2.  Note 62.  Velocity 73
000001t:  Note off ::  Channel 3.  Note 70.  Velocity 70
000000t:  Note on ::  Channel 3.  Note 67.  Velocity 72
000000t:  Note on ::  Channel 9.  Note 36.  Velocity 70
000001t:  Note off ::  Channel 9.  Note 36.  Velocity 70
000006t:  Control change ::  Channel 1.  Controller 1.  Value: 18
000000t:  Note off ::  Channel 2.  Note 55.  Velocity 49
000001t:  Note off ::  Channel 2.  Note 58.  Velocity 47
000002t:  Control change ::  Channel 1.  Controller 1.  Value: 21
000002t:  Control change ::  Channel 1.  Controller 1.  Value: 23
000002t:  Control change ::  Channel 1.  Controller 1.  Value: 24
000002t:  Control change ::  Channel 1.  Controller 1.  Value: 28
000004t:  Control change ::  Channel 1.  Controller 1.  Value: 30
000001t:  Note off ::  Channel 7.  Note 67.  Velocity 53
000003t:  Note off ::  Channel 7.  Note 62.  Velocity 44
000000t:  Note off ::  Channel 7.  Note 55.  Velocity 54
000002t:  Control change ::  Channel 1.  Controller 1.  Value: 32
000001t:  Control change ::  Channel 1.  Controller 1.  Value: 35
000002t:  Note off ::  Channel 7.  Note 58.  Velocity 43
000004t:  Control change ::  Channel 1.  Controller 1.  Value: 37
000003t:  Control change ::  Channel 1.  Controller 1.  Value: 38
000007t:  Note off ::  Channel 4.  Note 55.  Velocity 63
000000t:  Note on ::  Channel 7.  Note 53.  Velocity 65
000001t:  Note on ::  Channel 5.  Note 74.  Velocity 68
000002t:  Note on ::  Channel 4.  Note 53.  Velocity 76
000000t:  Note on ::  Channel 7.  Note 58.  Velocity 55
000001t:  Note on ::  Channel 2.  Note 58.  Velocity 49
000000t:  Note on ::  Channel 2.  Note 62.  Velocity 73
000001t:  Note on ::  Channel 2.  Note 53.  Velocity 57
000000t:  Note on ::  Channel 9.  Note 36.  Velocity 127
000001t:  Note off ::  Channel 9.  Note 36.  Velocity 127
000001t:  Note on ::  Channel 7.  Note 62.  Velocity 59
000003t:  Note on ::  Channel 7.  Note 67.  Velocity 55
000001t:  Control change ::  Channel 1.  Controller 1.  Value: 36
000001t:  Control change ::  Channel 2.  Controller 64.  Value: 0
000001t:  Control change ::  Channel 1.  Controller 1.  Value: 33
000001t:  Control change ::  Channel 1.  Controller 1.  Value: 30
000002t:  Control change ::  Channel 1.  Controller 1.  Value: 26
000001t:  Control change ::  Channel 1.  Controller 1.  Value: 24
000002t:  Control change ::  Channel 1.  Controller 1.  Value: 21
000001t:  Control change ::  Channel 1.  Controller 1.  Value: 19
000002t:  Control change ::  Channel 1.  Controller 1.  Value: 17
000001t:  Control change ::  Channel 1.  Controller 1.  Value: 15
000002t:  Control change ::  Channel 1.  Controller 1.  Value: 12
000001t:  Control change ::  Channel 1.  Controller 1.  Value: 11
000002t:  Control change ::  Channel 1.  Controller 1.  Value: 9
000001t:  Control change ::  Channel 1.  Controller 1.  Value: 7
000002t:  Control change ::  Channel 1.  Controller 1.  Value: 5
000002t:  Control change ::  Channel 2.  Controller 64.  Value: 127
000001t:  Note off ::  Channel 3.  Note 67.  Velocity 72
000001t:  Control change ::  Channel 1.  Controller 1.  Value: 3
000003t:  Control change ::  Channel 1.  Controller 1.  Value: 1
000016t:  Control change ::  Channel 1.  Controller 1.  Value: 4
000001t:  Note off ::  Channel 2.  Note 62.  Velocity 73
000001t:  Control change ::  Channel 1.  Controller 1.  Value: 5
000001t:  Control change ::  Channel 1.  Controller 1.  Value: 8
000010t:  Note off ::  Channel 2.  Note 53.  Velocity 57
000000t:  Note off ::  Channel 2.  Note 58.  Velocity 49
000001t:  Control change ::  Channel 1.  Controller 1.  Value: 4
000001t:  Control change ::  Channel 1.  Controller 1.  Value: 0
000009t:  Note off ::  Channel 7.  Note 53.  Velocity 65
000002t:  Note off ::  Channel 7.  Note 58.  Velocity 55
000001t:  Note off ::  Channel 7.  Note 67.  Velocity 55
000001t:  Note off ::  Channel 7.  Note 62.  Velocity 59
000014t:  Note off ::  Channel 1.  Note 55.  Velocity 87
000000t:  Note on ::  Channel 7.  Note 53.  Velocity 54
000003t:  Note on ::  Channel 7.  Note 58.  Velocity 45
000000t:  Note on ::  Channel 9.  Note 44.  Velocity 113
000001t:  Note on ::  Channel 1.  Note 57.  Velocity 72
000000t:  Note on ::  Channel 2.  Note 62.  Velocity 68
000000t:  Note on ::  Channel 3.  Note 70.  Velocity 84
000000t:  Note off ::  Channel 9.  Note 44.  Velocity 113
000001t:  Note on ::  Channel 2.  Note 53.  Velocity 53
000000t:  Note on ::  Channel 2.  Note 58.  Velocity 50
000003t:  Note on ::  Channel 7.  Note 62.  Velocity 54
000002t:  Note on ::  Channel 7.  Note 67.  Velocity 42
000006t:  Control change ::  Channel 2.  Controller 64.  Value: 0
000011t:  Note on ::  Channel 1.  Note 55.  Velocity 62
000001t:  Note on ::  Channel 3.  Note 72.  Velocity 93
000003t:  Note off ::  Channel 3.  Note 70.  Velocity 84
000002t:  Note off ::  Channel 1.  Note 57.  Velocity 72
000004t:  Control change ::  Channel 2.  Controller 64.  Value: 127
000009t:  Note off ::  Channel 1.  Note 55.  Velocity 62
000000t:  Note off ::  Channel 2.  Note 62.  Velocity 68
000006t:  Note on ::  Channel 1.  Note 50.  Velocity 66
000000t:  Note on ::  Channel 3.  Note 70.  Velocity 94
000004t:  Note off ::  Channel 3.  Note 72.  Velocity 93
000001t:  Note off ::  Channel 2.  Note 58.  Velocity 50
000002t:  Note off ::  Channel 2.  Note 53.  Velocity 53
000016t:  Note on ::  Channel 1.  Note 43.  Velocity 74
000001t:  Note on ::  Channel 3.  Note 72.  Velocity 89
000001t:  Note off ::  Channel 5.  Note 62.  Velocity 68
000001t:  Note off ::  Channel 7.  Note 53.  Velocity 54
000002t:  Note off ::  Channel 1.  Note 50.  Velocity 66
000000t:  Note off ::  Channel 7.  Note 67.  Velocity 42
000000t:  Note off ::  Channel 7.  Note 58.  Velocity 45
000001t:  Note off ::  Channel 3.  Note 70.  Velocity 94
000002t:  Note off ::  Channel 7.  Note 62.  Velocity 54
000011t:  Note on ::  Channel 7.  Note 52.  Velocity 55
000002t:  Note off ::  Channel 4.  Note 53.  Velocity 76
000002t:  Note on ::  Channel 7.  Note 55.  Velocity 56
000001t:  Note on ::  Channel 9.  Note 36.  Velocity 127
000001t:  Note on ::  Channel 1.  Note 48.  Velocity 89
000000t:  Note off ::  Channel 9.  Note 36.  Velocity 127
000001t:  Note off ::  Channel 5.  Note 74.  Velocity 68
000000t:  Note on ::  Channel 5.  Note 72.  Velocity 74
000001t:  Note on ::  Channel 2.  Note 52.  Velocity 47
000000t:  Note on ::  Channel 2.  Note 58.  Velocity 42
000000t:  Note on ::  Channel 2.  Note 60.  Velocity 69
000000t:  Note on ::  Channel 4.  Note 52.  Velocity 72
000000t:  Note on ::  Channel 7.  Note 60.  Velocity 44
000003t:  Note off ::  Channel 1.  Note 43.  Velocity 74
000000t:  Note on ::  Channel 5.  Note 64.  Velocity 78
000001t:  Note on ::  Channel 7.  Note 67.  Velocity 60
000007t:  Note off ::  Channel 5.  Note 70.  Velocity 61
000002t:  Control change ::  Channel 2.  Controller 64.  Value: 0
000020t:  Control change ::  Channel 2.  Controller 64.  Value: 127
000010t:  Note off ::  Channel 2.  Note 58.  Velocity 42
000002t:  Note off ::  Channel 2.  Note 60.  Velocity 69
000008t:  Note off ::  Channel 2.  Note 52.  Velocity 47
000006t:  Note off ::  Channel 7.  Note 52.  Velocity 55
000009t:  Note on ::  Channel 9.  Note 36.  Velocity 58
000001t:  Note off ::  Channel 9.  Note 36.  Velocity 58
000002t:  Note off ::  Channel 7.  Note 60.  Velocity 44
000006t:  Note off ::  Channel 7.  Note 55.  Velocity 56
000005t:  Note off ::  Channel 7.  Note 67.  Velocity 60
000006t:  Note on ::  Channel 7.  Note 52.  Velocity 51
000003t:  Note on ::  Channel 7.  Note 55.  Velocity 54
000002t:  Note on ::  Channel 9.  Note 44.  Velocity 127
000001t:  Note off ::  Channel 9.  Note 44.  Velocity 127
000001t:  Note on ::  Channel 7.  Note 60.  Velocity 51
000001t:  Note on ::  Channel 2.  Note 52.  Velocity 34
000000t:  Note on ::  Channel 2.  Note 58.  Velocity 44
000000t:  Note on ::  Channel 2.  Note 60.  Velocity 70
000003t:  Note on ::  Channel 7.  Note 67.  Velocity 49
000009t:  Control change ::  Channel 2.  Controller 64.  Value: 0
000018t:  Control change ::  Channel 2.  Controller 64.  Value: 127
000011t:  Note off ::  Channel 2.  Note 52.  Velocity 34
000004t:  Note on ::  Channel 9.  Note 36.  Velocity 88
000001t:  Note off ::  Channel 2.  Note 60.  Velocity 70
000000t:  Note off ::  Channel 9.  Note 36.  Velocity 88
000005t:  Note off ::  Channel 2.  Note 58.  Velocity 44
000008t:  Note off ::  Channel 7.  Note 52.  Velocity 51
000011t:  Note off ::  Channel 7.  Note 60.  Velocity 51
000006t:  Note off ::  Channel 7.  Note 55.  Velocity 54
000005t:  Note off ::  Channel 7.  Note 67.  Velocity 49
000009t:  Note on ::  Channel 7.  Note 48.  Velocity 69
000002t:  Control change ::  Channel 2.  Controller 64.  Value: 0
000000t:  Note on ::  Channel 9.  Note 36.  Velocity 127
000001t:  Note off ::  Channel 9.  Note 36.  Velocity 127
000001t:  Note on ::  Channel 2.  Note 48.  Velocity 57
000006t:  Note off ::  Channel 3.  Note 72.  Velocity 89
000014t:  Control change ::  Channel 2.  Controller 64.  Value: 127
000003t:  Note on ::  Channel 7.  Note 52.  Velocity 72
000001t:  Note on ::  Channel 2.  Note 52.  Velocity 69
000005t:  Note off ::  Channel 2.  Note 48.  Velocity 57
000016t:  Note on ::  Channel 7.  Note 55.  Velocity 54
000003t:  Note on ::  Channel 2.  Note 55.  Velocity 66
000022t:  Note on ::  Channel 7.  Note 58.  Velocity 76
000001t:  Note on ::  Channel 9.  Note 36.  Velocity 69
000001t:  Note off ::  Channel 2.  Note 52.  Velocity 69
000000t:  Note on ::  Channel 2.  Note 58.  Velocity 77
000000t:  Note off ::  Channel 9.  Note 36.  Velocity 69
000005t:  Pitch wheel change ::  Channel 1.   -8192
000000t:  Note off ::  Channel 2.  Note 55.  Velocity 66
000011t:  Control change ::  Channel 7.  Controller 1.  Value: 14
000007t:  Note on ::  Channel 9.  Note 45.  Velocity 95
000001t:  Note off ::  Channel 9.  Note 45.  Velocity 95
000001t:  Control change ::  Channel 7.  Controller 1.  Value: 61
000008t:  Control change ::  Channel 7.  Controller 1.  Value: 94
000008t:  Note off ::  Channel 7.  Note 55.  Velocity 54
000000t:  Control change ::  Channel 7.  Controller 1.  Value: 0
000001t:  Pitch wheel change ::  Channel 1.   -8192
000003t:  Pitch wheel change ::  Channel 1.   -8192
000000t:  Note on ::  Channel 7.  Note 57.  Velocity 50
000001t:  Pitch wheel change ::  Channel 1.   -8192
000001t:  Note on ::  Channel 9.  Note 43.  Velocity 70
000001t:  Pitch wheel change ::  Channel 1.   -8192
000000t:  Note off ::  Channel 9.  Note 43.  Velocity 70
000001t:  Pitch wheel change ::  Channel 1.   -8192
000001t:  Note on ::  Channel 2.  Note 57.  Velocity 62
000000t:  Control change ::  Channel 2.  Controller 64.  Value: 0
000001t:  Pitch wheel change ::  Channel 1.   -8192
000001t:  Pitch wheel change ::  Channel 1.   -8192
000002t:  Pitch wheel change ::  Channel 1.   -8192
000001t:  Pitch wheel change ::  Channel 1.   -8192
000002t:  Pitch wheel change ::  Channel 1.   -8192
000000t:  Note off ::  Channel 2.  Note 58.  Velocity 77
000001t:  Pitch wheel change ::  Channel 1.   -8192
000002t:  Pitch wheel change ::  Channel 1.   -8192
000001t:  Pitch wheel change ::  Channel 1.   -8192
000001t:  Note off ::  Channel 7.  Note 58.  Velocity 76
000001t:  Pitch wheel change ::  Channel 1.   -8192
000002t:  Pitch wheel change ::  Channel 1.   -8192
000001t:  Note off ::  Channel 1.  Note 48.  Velocity 89
000002t:  Pitch wheel change ::  Channel 1.   -8192
000001t:  Note off ::  Channel 2.  Note 57.  Velocity 62
000002t:  Note on ::  Channel 7.  Note 55.  Velocity 70
000001t:  Note on ::  Channel 1.  Note 36.  Velocity 91
000000t:  Note on ::  Channel 9.  Note 41.  Velocity 93
000001t:  Note on ::  Channel 2.  Note 55.  Velocity 72
000000t:  Note off ::  Channel 4.  Note 52.  Velocity 72
000000t:  Note on ::  Channel 4.  Note 48.  Velocity 114
000000t:  Note off ::  Channel 9.  Note 41.  Velocity 93
000002t:  Control change ::  Channel 2.  Controller 64.  Value: 127
000002t:  Pitch wheel change ::  Channel 1.   -8192
000002t:  Pitch wheel change ::  Channel 1.   -8192
000001t:  Pitch wheel change ::  Channel 1.   -8192
000002t:  Pitch wheel change ::  Channel 1.   -8192
000001t:  Pitch wheel change ::  Channel 1.   -8192
000004t:  Note off ::  Channel 7.  Note 48.  Velocity 69
000010t:  Note off ::  Channel 2.  Note 55.  Velocity 72
000000t:  Note on ::  Channel 4.  Note 50.  Velocity 111
000001t:  Note on ::  Channel 1.  Note 38.  Velocity 101
000003t:  Note off ::  Channel 4.  Note 48.  Velocity 114
000000t:  Note off ::  Channel 7.  Note 57.  Velocity 50
000000t:  Note off ::  Channel 7.  Note 52.  Velocity 72
000005t:  Note off ::  Channel 1.  Note 36.  Velocity 91
000009t:  Note off ::  Channel 7.  Note 55.  Velocity 70
000001t:  Note on ::  Channel 4.  Note 51.  Velocity 81
000000t:  Note off ::  Channel 5.  Note 72.  Velocity 74
000001t:  Note on ::  Channel 7.  Note 51.  Velocity 67
000002t:  Note on ::  Channel 9.  Note 36.  Velocity 118
000001t:  Note on ::  Channel 7.  Note 58.  Velocity 67
000000t:  Note off ::  Channel 9.  Note 36.  Velocity 118
000001t:  Note on ::  Channel 2.  Note 51.  Velocity 45
000000t:  Note on ::  Channel 2.  Note 55.  Velocity 53
000000t:  Note on ::  Channel 2.  Note 58.  Velocity 65
000000t:  Note on ::  Channel 7.  Note 63.  Velocity 76
000000t:  Note on ::  Channel 9.  Note 42.  Velocity 107
000001t:  Note off ::  Channel 1.  Note 38.  Velocity 101
000000t:  Note on ::  Channel 1.  Note 39.  Velocity 110
000000t:  Note off ::  Channel 9.  Note 42.  Velocity 107
000001t:  Control change ::  Channel 2.  Controller 64.  Value: 0
000000t:  Note on ::  Channel 5.  Note 70.  Velocity 76
000000t:  Note on ::  Channel 7.  Note 67.  Velocity 64
000001t:  Note on ::  Channel 5.  Note 67.  Velocity 91
000001t:  Note off ::  Channel 5.  Note 64.  Velocity 78
000001t:  Note off ::  Channel 4.  Note 50.  Velocity 111
000022t:  Control change ::  Channel 2.  Controller 64.  Value: 127
000012t:  Note off ::  Channel 7.  Note 58.  Velocity 67
000001t:  Note off ::  Channel 7.  Note 63.  Velocity 76
000001t:  Note off ::  Channel 2.  Note 55.  Velocity 53
000003t:  Note off ::  Channel 7.  Note 67.  Velocity 64
000001t:  Note off ::  Channel 2.  Note 58.  Velocity 65
000000t:  Note off ::  Channel 2.  Note 51.  Velocity 45
000000t:  Note on ::  Channel 7.  Note 58.  Velocity 33
000002t:  Note on ::  Channel 3.  Note 67.  Velocity 87
000000t:  Note on ::  Channel 7.  Note 63.  Velocity 64
000000t:  Note on ::  Channel 7.  Note 67.  Velocity 59
000001t:  Note on ::  Channel 9.  Note 42.  Velocity 54
000001t:  Note off ::  Channel 9.  Note 42.  Velocity 54
000016t:  Note off ::  Channel 3.  Note 67.  Velocity 87
000001t:  Note off ::  Channel 7.  Note 67.  Velocity 59
000000t:  Note off ::  Channel 7.  Note 63.  Velocity 64
000002t:  Note off ::  Channel 7.  Note 58.  Velocity 33
000002t:  Note on ::  Channel 7.  Note 67.  Velocity 70
000001t:  Note on ::  Channel 3.  Note 67.  Velocity 87
000000t:  Note on ::  Channel 7.  Note 63.  Velocity 69
000001t:  Note on ::  Channel 7.  Note 58.  Velocity 59
000000t:  Note on ::  Channel 9.  Note 36.  Velocity 88
000001t:  Note off ::  Channel 9.  Note 36.  Velocity 88
000018t:  Note off ::  Channel 7.  Note 58.  Velocity 59
000001t:  Note off ::  Channel 7.  Note 63.  Velocity 69
000000t:  Note off ::  Channel 7.  Note 67.  Velocity 70
000001t:  Note on ::  Channel 7.  Note 58.  Velocity 33
000001t:  Note on ::  Channel 2.  Note 51.  Velocity 52
000001t:  Note on ::  Channel 2.  Note 55.  Velocity 52
000000t:  Note on ::  Channel 2.  Note 58.  Velocity 60
000000t:  Note on ::  Channel 3.  Note 70.  Velocity 81
000000t:  Note on ::  Channel 7.  Note 63.  Velocity 64
000000t:  Note on ::  Channel 7.  Note 67.  Velocity 59
000001t:  Note on ::  Channel 9.  Note 46.  Velocity 100
000001t:  Note off ::  Channel 9.  Note 46.  Velocity 100
000006t:  Note off ::  Channel 3.  Note 67.  Velocity 87
000001t:  Control change ::  Channel 2.  Controller 64.  Value: 0
000003t:  Note off ::  Channel 3.  Note 70.  Velocity 81
000012t:  Note on ::  Channel 3.  Note 70.  Velocity 88
000004t:  Control change ::  Channel 2.  Controller 64.  Value: 127
000010t:  Note off ::  Channel 2.  Note 55.  Velocity 52
000003t:  Note off ::  Channel 7.  Note 58.  Velocity 33
000001t:  Note off ::  Channel 2.  Note 51.  Velocity 52
000000t:  Note off ::  Channel 7.  Note 67.  Velocity 59
000001t:  Note off ::  Channel 2.  Note 58.  Velocity 60
000000t:  Note off ::  Channel 7.  Note 63.  Velocity 64
000004t:  Note on ::  Channel 7.  Note 58.  Velocity 61
000001t:  Note on ::  Channel 3.  Note 74.  Velocity 93
000000t:  Note on ::  Channel 7.  Note 63.  Velocity 74
000001t:  Note on ::  Channel 7.  Note 67.  Velocity 52
000000t:  Note on ::  Channel 9.  Note 36.  Velocity 107
000001t:  Note off ::  Channel 9.  Note 36.  Velocity 107
000007t:  Note off ::  Channel 3.  Note 70.  Velocity 88
000011t:  Note off ::  Channel 7.  Note 67.  Velocity 52
000000t:  Note off ::  Channel 7.  Note 63.  Velocity 74
000000t:  Note off ::  Channel 7.  Note 58.  Velocity 61
000002t:  Note on ::  Channel 7.  Note 67.  Velocity 72
000001t:  Note on ::  Channel 7.  Note 63.  Velocity 71
000001t:  Note on ::  Channel 7.  Note 58.  Velocity 68
000005t:  Note off ::  Channel 7.  Note 51.  Velocity 67
000010t:  Note off ::  Channel 4.  Note 51.  Velocity 81
000000t:  Note on ::  Channel 4.  Note 50.  Velocity 81
000004t:  Note on ::  Channel 5.  Note 65.  Velocity 91
000000t:  Note off ::  Channel 7.  Note 67.  Velocity 72
000001t:  Note off ::  Channel 5.  Note 67.  Velocity 91
000001t:  Note off ::  Channel 7.  Note 63.  Velocity 71
000001t:  Note off ::  Channel 7.  Note 58.  Velocity 68
000000t:  Note on ::  Channel 7.  Note 50.  Velocity 50
000000t:  Note on ::  Channel 7.  Note 58.  Velocity 33
000001t:  Note off ::  Channel 1.  Note 39.  Velocity 110
000000t:  Note on ::  Channel 3.  Note 77.  Velocity 102
000001t:  Note on ::  Channel 1.  Note 38.  Velocity 89
000000t:  Note on ::  Channel 2.  Note 58.  Velocity 60
000000t:  Note on ::  Channel 2.  Note 50.  Velocity 57
000000t:  Note on ::  Channel 2.  Note 53.  Velocity 54
000000t:  Control change ::  Channel 2.  Controller 64.  Value: 0
000000t:  Note on ::  Channel 7.  Note 62.  Velocity 64
000000t:  Note on ::  Channel 7.  Note 65.  Velocity 59
000001t:  Note on ::  Channel 9.  Note 42.  Velocity 116
000000t:  Note on ::  Channel 9.  Note 36.  Velocity 125
000001t:  Note off ::  Channel 9.  Note 36.  Velocity 125
000000t:  Note off ::  Channel 9.  Note 42.  Velocity 116
000017t:  Note off ::  Channel 7.  Note 65.  Velocity 59
000000t:  Note off ::  Channel 7.  Note 62.  Velocity 64
000003t:  Note off ::  Channel 7.  Note 58.  Velocity 33
000001t:  Control change ::  Channel 2.  Controller 64.  Value: 127
000000t:  Note on ::  Channel 7.  Note 65.  Velocity 70
000001t:  Note on ::  Channel 7.  Note 62.  Velocity 69
000001t:  Note on ::  Channel 7.  Note 58.  Velocity 59
000010t:  Note off ::  Channel 7.  Note 50.  Velocity 50
000002t:  Note off ::  Channel 2.  Note 53.  Velocity 54
000004t:  Note off ::  Channel 2.  Note 58.  Velocity 60
000001t:  Note off ::  Channel 2.  Note 50.  Velocity 57
000002t:  Note off ::  Channel 7.  Note 58.  Velocity 59
000001t:  Note off ::  Channel 7.  Note 62.  Velocity 69
000000t:  Note off ::  Channel 7.  Note 65.  Velocity 70
000002t:  Note on ::  Channel 7.  Note 58.  Velocity 61
000001t:  Note on ::  Channel 7.  Note 62.  Velocity 74
000001t:  Note on ::  Channel 7.  Note 65.  Velocity 52
000002t:  Note on ::  Channel 9.  Note 42.  Velocity 58
000001t:  Note off ::  Channel 9.  Note 42.  Velocity 58
000002t:  Note off ::  Channel 3.  Note 74.  Velocity 93
000012t:  Note off ::  Channel 7.  Note 65.  Velocity 52
000002t:  Note off ::  Channel 7.  Note 62.  Velocity 74
000000t:  Note off ::  Channel 7.  Note 58.  Velocity 61
000002t:  Note on ::  Channel 7.  Note 65.  Velocity 72
000001t:  Note on ::  Channel 7.  Note 62.  Velocity 71
000001t:  Note on ::  Channel 7.  Note 58.  Velocity 68
000002t:  Note on ::  Channel 9.  Note 36.  Velocity 80
000001t:  Note off ::  Channel 9.  Note 36.  Velocity 80
000012t:  Control change ::  Channel 1.  Controller 1.  Value: 1
000002t:  Control change ::  Channel 1.  Controller 1.  Value: 2
000002t:  Control change ::  Channel 1.  Controller 1.  Value: 4
000001t:  Control change ::  Channel 1.  Controller 1.  Value: 7
000001t:  Control change ::  Channel 1.  Controller 1.  Value: 9
000001t:  Note off ::  Channel 7.  Note 58.  Velocity 68
000000t:  Note off ::  Channel 7.  Note 62.  Velocity 71
000000t:  Note off ::  Channel 7.  Note 65.  Velocity 72
000001t:  Control change ::  Channel 1.  Controller 1.  Value: 11
000001t:  Note on ::  Channel 2.  Note 50.  Velocity 59
000000t:  Note on ::  Channel 2.  Note 53.  Velocity 52
000000t:  Note on ::  Channel 2.  Note 58.  Velocity 68
000002t:  Control change ::  Channel 1.  Controller 1.  Value: 14
000000t:  Note on ::  Channel 9.  Note 46.  Velocity 116
000000t:  Note on ::  Channel 9.  Note 36.  Velocity 118
000001t:  Note off ::  Channel 9.  Note 36.  Velocity 118
000000t:  Note off ::  Channel 9.  Note 46.  Velocity 116
000005t:  Control change ::  Channel 2.  Controller 64.  Value: 0
000009t:  Control change ::  Channel 1.  Controller 1.  Value: 12
000001t:  Control change ::  Channel 1.  Controller 1.  Value: 5
000002t:  Control change ::  Channel 1.  Controller 1.  Value: 0
000001t:  Note on ::  Channel 7.  Note 65.  Velocity 94
000001t:  Note on ::  Channel 7.  Note 62.  Velocity 71
000001t:  Note on ::  Channel 7.  Note 58.  Velocity 60
000005t:  Control change ::  Channel 2.  Controller 64.  Value: 127
000008t:  Note off ::  Channel 2.  Note 58.  Velocity 68
000001t:  Note off ::  Channel 2.  Note 50.  Velocity 59
000004t:  Note off ::  Channel 7.  Note 58.  Velocity 60
000000t:  Note off ::  Channel 7.  Note 62.  Velocity 71
000002t:  Note off ::  Channel 7.  Note 65.  Velocity 94
000003t:  Note off ::  Channel 2.  Note 53.  Velocity 52
000000t:  Note on ::  Channel 7.  Note 58.  Velocity 33
000002t:  Note on ::  Channel 3.  Note 82.  Velocity 91
000000t:  Note on ::  Channel 7.  Note 62.  Velocity 64
000000t:  Note on ::  Channel 7.  Note 65.  Velocity 59
000014t:  Note off ::  Channel 3.  Note 77.  Velocity 102
000005t:  Note off ::  Channel 7.  Note 65.  Velocity 59
000000t:  Note off ::  Channel 7.  Note 62.  Velocity 64
000002t:  Note off ::  Channel 7.  Note 58.  Velocity 33
000002t:  Note on ::  Channel 7.  Note 65.  Velocity 70
000001t:  Note on ::  Channel 7.  Note 62.  Velocity 69
000001t:  Note on ::  Channel 7.  Note 58.  Velocity 59
000013t:  Note off ::  Channel 7.  Note 65.  Velocity 70
000003t:  Note off ::  Channel 7.  Note 62.  Velocity 69
000001t:  Note on ::  Channel 4.  Note 48.  Velocity 80
000002t:  Note off ::  Channel 7.  Note 58.  Velocity 59
000001t:  Note off ::  Channel 4.  Note 50.  Velocity 81
000001t:  Note off ::  Channel 5.  Note 65.  Velocity 91
000000t:  Note on ::  Channel 7.  Note 48.  Velocity 50
000001t:  Note on ::  Channel 5.  Note 63.  Velocity 102
000000t:  Note on ::  Channel 7.  Note 60.  Velocity 61
000000t:  Note on ::  Channel 7.  Note 63.  Velocity 74
000001t:  Note on ::  Channel 2.  Note 55.  Velocity 63
000000t:  Note on ::  Channel 9.  Note 36.  Velocity 115
000001t:  Note on ::  Channel 1.  Note 36.  Velocity 70
000000t:  Note on ::  Channel 2.  Note 48.  Velocity 53
000000t:  Note on ::  Channel 2.  Note 51.  Velocity 58
000000t:  Note on ::  Channel 7.  Note 67.  Velocity 52
000000t:  Note on ::  Channel 9.  Note 42.  Velocity 107
000000t:  Note off ::  Channel 9.  Note 36.  Velocity 115
000001t:  Note off ::  Channel 9.  Note 42.  Velocity 107
000001t:  Note off ::  Channel 1.  Note 38.  Velocity 89
000003t:  Control change ::  Channel 2.  Controller 64.  Value: 0
000012t:  Note off ::  Channel 7.  Note 67.  Velocity 52
000001t:  Note off ::  Channel 7.  Note 63.  Velocity 74
000001t:  Note off ::  Channel 7.  Note 60.  Velocity 61
000003t:  Note on ::  Channel 7.  Note 67.  Velocity 80
000001t:  Note on ::  Channel 7.  Note 63.  Velocity 71
000001t:  Note on ::  Channel 7.  Note 60.  Velocity 60
000006t:  Control change ::  Channel 2.  Controller 64.  Value: 127
000004t:  Note off ::  Channel 7.  Note 48.  Velocity 50
000004t:  Note off ::  Channel 2.  Note 51.  Velocity 58
000004t:  Note off ::  Channel 7.  Note 60.  Velocity 60
000000t:  Note off ::  Channel 7.  Note 63.  Velocity 71
000002t:  Note off ::  Channel 2.  Note 48.  Velocity 53
000000t:  Note off ::  Channel 2.  Note 55.  Velocity 63
000000t:  Note off ::  Channel 7.  Note 67.  Velocity 80
000002t:  Note on ::  Channel 7.  Note 60.  Velocity 61
000000t:  Note on ::  Channel 7.  Note 63.  Velocity 74
000001t:  Note on ::  Channel 3.  Note 74.  Velocity 93
000001t:  Note on ::  Channel 7.  Note 67.  Velocity 52
000001t:  Note on ::  Channel 9.  Note 42.  Velocity 72
000001t:  Note off ::  Channel 9.  Note 42.  Velocity 72
000007t:  Note off ::  Channel 3.  Note 82.  Velocity 91
000008t:  Note off ::  Channel 7.  Note 67.  Velocity 52
000001t:  Note off ::  Channel 7.  Note 63.  Velocity 74
000001t:  Note off ::  Channel 7.  Note 60.  Velocity 61
000002t:  Note on ::  Channel 7.  Note 67.  Velocity 72
000001t:  Note off ::  Channel 3.  Note 74.  Velocity 93
000000t:  Note on ::  Channel 7.  Note 63.  Velocity 71
000001t:  Note on ::  Channel 3.  Note 72.  Velocity 82
000000t:  Note on ::  Channel 7.  Note 60.  Velocity 68
000002t:  Note on ::  Channel 9.  Note 36.  Velocity 59
000001t:  Note off ::  Channel 9.  Note 36.  Velocity 59
000021t:  Note on ::  Channel 2.  Note 51.  Velocity 50
000000t:  Note on ::  Channel 2.  Note 55.  Velocity 70
000001t:  Note on ::  Channel 2.  Note 48.  Velocity 61
000000t:  Note on ::  Channel 3.  Note 70.  Velocity 80
000001t:  Note on ::  Channel 9.  Note 36.  Velocity 113
000000t:  Note on ::  Channel 9.  Note 46.  Velocity 107
000001t:  Note off ::  Channel 9.  Note 46.  Velocity 107
000000t:  Note off ::  Channel 9.  Note 36.  Velocity 113
000005t:  Control change ::  Channel 2.  Controller 64.  Value: 0
000001t:  Note off ::  Channel 3.  Note 72.  Velocity 82
000008t:  Note off ::  Channel 7.  Note 67.  Velocity 72
000001t:  Note off ::  Channel 7.  Note 63.  Velocity 71
000002t:  Note off ::  Channel 7.  Note 60.  Velocity 68
000001t:  Note on ::  Channel 7.  Note 67.  Velocity 81
000001t:  Note on ::  Channel 7.  Note 63.  Velocity 71
000001t:  Note on ::  Channel 7.  Note 60.  Velocity 60
000008t:  Control change ::  Channel 2.  Controller 64.  Value: 127
000010t:  Note off ::  Channel 7.  Note 60.  Velocity 60
000000t:  Note off ::  Channel 7.  Note 63.  Velocity 71
000002t:  Note off ::  Channel 7.  Note 67.  Velocity 81
000003t:  Note on ::  Channel 7.  Note 60.  Velocity 33
000002t:  Note off ::  Channel 2.  Note 51.  Velocity 50
000000t:  Note on ::  Channel 3.  Note 72.  Velocity 83
000000t:  Note on ::  Channel 7.  Note 63.  Velocity 64
000000t:  Note on ::  Channel 7.  Note 67.  Velocity 59
000001t:  Note off ::  Channel 2.  Note 55.  Velocity 70
000000t:  Note off ::  Channel 3.  Note 70.  Velocity 80
000010t:  Note off ::  Channel 2.  Note 48.  Velocity 61
000008t:  Note off ::  Channel 7.  Note 67.  Velocity 59
000000t:  Note off ::  Channel 7.  Note 63.  Velocity 64
000002t:  Note off ::  Channel 7.  Note 60.  Velocity 33
000002t:  Note on ::  Channel 7.  Note 67.  Velocity 70
000001t:  Note on ::  Channel 7.  Note 63.  Velocity 69
000001t:  Note on ::  Channel 7.  Note 60.  Velocity 59
000019t:  Note off ::  Channel 7.  Note 60.  Velocity 59
000001t:  Note off ::  Channel 7.  Note 63.  Velocity 69
000000t:  Note off ::  Channel 7.  Note 67.  Velocity 70
000001t:  Note off ::  Channel 1.  Note 36.  Velocity 70
000001t:  Note on ::  Channel 4.  Note 46.  Velocity 93
000000t:  Note on ::  Channel 7.  Note 51.  Velocity 67
000000t:  Note on ::  Channel 7.  Note 58.  Velocity 67
000001t:  Note on ::  Channel 1.  Note 34.  Velocity 91
000000t:  Note off ::  Channel 4.  Note 48.  Velocity 80
000000t:  Note on ::  Channel 7.  Note 63.  Velocity 76
000001t:  Note on ::  Channel 2.  Note 46.  Velocity 66
000000t:  Note on ::  Channel 2.  Note 51.  Velocity 49
000000t:  Note on ::  Channel 2.  Note 55.  Velocity 72
000000t:  Note on ::  Channel 7.  Note 67.  Velocity 64
000000t:  Note on ::  Channel 9.  Note 42.  Velocity 113
000000t:  Note on ::  Channel 9.  Note 36.  Velocity 127
000001t:  Note off ::  Channel 9.  Note 36.  Velocity 127
000000t:  Note off ::  Channel 9.  Note 42.  Velocity 113
000009t:  Control change ::  Channel 2.  Controller 64.  Value: 0
000020t:  Control change ::  Channel 2.  Controller 64.  Value: 127
000009t:  Note off ::  Channel 7.  Note 63.  Velocity 76
000000t:  Note off ::  Channel 7.  Note 58.  Velocity 67
000002t:  Note off ::  Channel 2.  Note 51.  Velocity 49
000000t:  Note off ::  Channel 7.  Note 51.  Velocity 67
000001t:  Note off ::  Channel 7.  Note 67.  Velocity 64
000002t:  Note off ::  Channel 2.  Note 55.  Velocity 72
000002t:  Note on ::  Channel 7.  Note 58.  Velocity 61
000000t:  Note on ::  Channel 7.  Note 63.  Velocity 74
000001t:  Note on ::  Channel 3.  Note 67.  Velocity 78
000001t:  Note on ::  Channel 7.  Note 67.  Velocity 52
000001t:  Note on ::  Channel 9.  Note 42.  Velocity 55
000001t:  Note off ::  Channel 9.  Note 42.  Velocity 55
000004t:  Note off ::  Channel 2.  Note 46.  Velocity 66
000005t:  Note off ::  Channel 3.  Note 72.  Velocity 83
000006t:  Note off ::  Channel 7.  Note 67.  Velocity 52
000001t:  Note off ::  Channel 7.  Note 63.  Velocity 74
000001t:  Note off ::  Channel 7.  Note 58.  Velocity 61
000002t:  Note on ::  Channel 7.  Note 67.  Velocity 72
000001t:  Note on ::  Channel 7.  Note 63.  Velocity 71
000001t:  Note on ::  Channel 3.  Note 65.  Velocity 85
000000t:  Note on ::  Channel 7.  Note 58.  Velocity 68
000001t:  Note on ::  Channel 7.  Note 51.  Velocity 50
000000t:  Note on ::  Channel 9.  Note 36.  Velocity 80
000001t:  Note off ::  Channel 9.  Note 36.  Velocity 80
000009t:  Note off ::  Channel 3.  Note 67.  Velocity 78
000013t:  Note on ::  Channel 2.  Note 46.  Velocity 58
000001t:  Note on ::  Channel 2.  Note 55.  Velocity 68
000000t:  Note on ::  Channel 2.  Note 51.  Velocity 46
000000t:  Note on ::  Channel 3.  Note 70.  Velocity 90
000000t:  Note on ::  Channel 9.  Note 36.  Velocity 120
000000t:  Note on ::  Channel 9.  Note 46.  Velocity 110
000001t:  Note off ::  Channel 9.  Note 46.  Velocity 110
000000t:  Note off ::  Channel 9.  Note 36.  Velocity 120
000007t:  Control change ::  Channel 2.  Controller 64.  Value: 0
000000t:  Note off ::  Channel 3.  Note 65.  Velocity 85
000005t:  Note off ::  Channel 7.  Note 51.  Velocity 50
000003t:  Note off ::  Channel 7.  Note 67.  Velocity 72
000001t:  Note off ::  Channel 7.  Note 63.  Velocity 71
000002t:  Note off ::  Channel 7.  Note 58.  Velocity 68
000002t:  Note on ::  Channel 7.  Note 67.  Velocity 45
000002t:  Note on ::  Channel 7.  Note 63.  Velocity 54
000001t:  Note on ::  Channel 7.  Note 58.  Velocity 44
000003t:  Control change ::  Channel 2.  Controller 64.  Value: 127
000007t:  Note off ::  Channel 7.  Note 67.  Velocity 45
000003t:  Note off ::  Channel 7.  Note 58.  Velocity 44
000000t:  Note off ::  Channel 7.  Note 63.  Velocity 54
000005t:  Note off ::  Channel 2.  Note 51.  Velocity 46
000002t:  Note off ::  Channel 2.  Note 55.  Velocity 68
000002t:  Note on ::  Channel 7.  Note 58.  Velocity 49
000001t:  Note on ::  Channel 3.  Note 65.  Velocity 84
000000t:  Note on ::  Channel 7.  Note 63.  Velocity 64
000001t:  Note on ::  Channel 7.  Note 67.  Velocity 57
000001t:  Note on ::  Channel 9.  Note 42.  Velocity 76
000001t:  Note off ::  Channel 2.  Note 46.  Velocity 58
000000t:  Note off ::  Channel 9.  Note 42.  Velocity 76
000012t:  Note off ::  Channel 7.  Note 63.  Velocity 64
000002t:  Note off ::  Channel 7.  Note 67.  Velocity 57
000000t:  Note off ::  Channel 7.  Note 58.  Velocity 49
000002t:  Note off ::  Channel 3.  Note 70.  Velocity 90
000003t:  Note on ::  Channel 7.  Note 67.  Velocity 52
000002t:  Note on ::  Channel 7.  Note 63.  Velocity 59
000001t:  Note on ::  Channel 7.  Note 58.  Velocity 49
000012t:  Pitch wheel change ::  Channel 1.   -8192
000001t:  Pitch wheel change ::  Channel 1.   -8192
000001t:  Note off ::  Channel 3.  Note 65.  Velocity 84
000001t:  Pitch wheel change ::  Channel 1.   -8192
000000t:  Note off ::  Channel 7.  Note 67.  Velocity 52
000001t:  Pitch wheel change ::  Channel 1.   -8192
000000t:  Note off ::  Channel 7.  Note 63.  Velocity 59
000001t:  Pitch wheel change ::  Channel 1.   -8192
000000t:  Note on ::  Channel 5.  Note 69.  Velocity 74
000000t:  Note off ::  Channel 7.  Note 58.  Velocity 49
000001t:  Note on ::  Channel 5.  Note 65.  Velocity 80
000001t:  Pitch wheel change ::  Channel 1.   -8192
000001t:  Pitch wheel change ::  Channel 1.   -8192
000002t:  Pitch wheel change ::  Channel 1.   -8192
000000t:  Note off ::  Channel 4.  Note 46.  Velocity 93
000000t:  Note on ::  Channel 4.  Note 45.  Velocity 91
000000t:  Note off ::  Channel 5.  Note 63.  Velocity 102
000000t:  Note on ::  Channel 7.  Note 45.  Velocity 72
000001t:  Note on ::  Channel 2.  Note 53.  Velocity 71
000000t:  Note on ::  Channel 7.  Note 53.  Velocity 72
000000t:  Note on ::  Channel 9.  Note 36.  Velocity 127
000000t:  Note on ::  Channel 9.  Note 49.  Velocity 110
000001t:  Note on ::  Channel 1.  Note 33.  Velocity 89
000000t:  Note on ::  Channel 2.  Note 45.  Velocity 48
000000t:  Note on ::  Channel 2.  Note 48.  Velocity 55
000000t:  Note on ::  Channel 3.  Note 65.  Velocity 90
000000t:  Note off ::  Channel 5.  Note 70.  Velocity 76
000000t:  Note on ::  Channel 7.  Note 60.  Velocity 61
000000t:  Note on ::  Channel 7.  Note 65.  Velocity 71
000000t:  Note off ::  Channel 9.  Note 49.  Velocity 110
000000t:  Note off ::  Channel 9.  Note 36.  Velocity 127
000002t:  Note off ::  Channel 1.  Note 34.  Velocity 91
000004t:  Control change ::  Channel 2.  Controller 64.  Value: 0
000001t:  Pitch wheel change ::  Channel 1.   -8192
000001t:  Pitch wheel change ::  Channel 1.   -8192
000002t:  Pitch wheel change ::  Channel 1.   -8192
000001t:  Pitch wheel change ::  Channel 1.   -8192
000001t:  Pitch wheel change ::  Channel 1.   -8192
000002t:  Pitch wheel change ::  Channel 1.   -8192
000002t:  Pitch wheel change ::  Channel 1.   -8192
000001t:  Pitch wheel change ::  Channel 1.   -8192
000001t:  Pitch wheel change ::  Channel 1.   -8192
000001t:  Note off ::  Channel 7.  Note 65.  Velocity 71
000000t:  Note off ::  Channel 7.  Note 60.  Velocity 61
000000t:  Note off ::  Channel 7.  Note 53.  Velocity 72
000001t:  Pitch wheel change ::  Channel 1.   -8192
000001t:  Pitch wheel change ::  Channel 1.   -8192
000000t:  Note on ::  Channel 7.  Note 65.  Velocity 68
000001t:  Note on ::  Channel 7.  Note 60.  Velocity 52
000001t:  Pitch wheel change ::  Channel 1.   -8192
000004t:  Control change ::  Channel 2.  Controller 64.  Value: 127
000013t:  Note off ::  Channel 7.  Note 60.  Velocity 52
000002t:  Note off ::  Channel 7.  Note 65.  Velocity 68
000002t:  Note on ::  Channel 7.  Note 53.  Velocity 49
000001t:  Note on ::  Channel 7.  Note 60.  Velocity 60
000003t:  Note on ::  Channel 3.  Note 60.  Velocity 67
000000t:  Note on ::  Channel 9.  Note 42.  Velocity 72
000001t:  Note off ::  Channel 2.  Note 48.  Velocity 55
000000t:  Note off ::  Channel 9.  Note 42.  Velocity 72
000002t:  Note on ::  Channel 7.  Note 65.  Velocity 44
000001t:  Note off ::  Channel 2.  Note 45.  Velocity 48
000000t:  Note off ::  Channel 2.  Note 53.  Velocity 71
000002t:  Note off ::  Channel 3.  Note 65.  Velocity 90
000013t:  Note off ::  Channel 7.  Note 65.  Velocity 44
000000t:  Note off ::  Channel 7.  Note 45.  Velocity 72
000001t:  Note off ::  Channel 7.  Note 60.  Velocity 60
000000t:  Note on ::  Channel 7.  Note 65.  Velocity 68
000001t:  Note off ::  Channel 7.  Note 53.  Velocity 49
000002t:  Note on ::  Channel 3.  Note 65.  Velocity 80
000000t:  Note on ::  Channel 7.  Note 53.  Velocity 60
000000t:  Note on ::  Channel 7.  Note 60.  Velocity 67
000002t:  Note off ::  Channel 3.  Note 60.  Velocity 67
000000t:  Note on ::  Channel 9.  Note 36.  Velocity 51
000001t:  Note off ::  Channel 9.  Note 36.  Velocity 51
000021t:  Note on ::  Channel 2.  Note 53.  Velocity 63
000001t:  Note on ::  Channel 2.  Note 45.  Velocity 43
000000t:  Note on ::  Channel 2.  Note 48.  Velocity 56
000000t:  Note on ::  Channel 3.  Note 69.  Velocity 79
000000t:  Note on ::  Channel 9.  Note 46.  Velocity 107
000000t:  Note on ::  Channel 9.  Note 36.  Velocity 113
000001t:  Note off ::  Channel 9.  Note 36.  Velocity 113
000000t:  Note off ::  Channel 9.  Note 46.  Velocity 107
000007t:  Note off ::  Channel 3.  Note 65.  Velocity 80
000010t:  Note off ::  Channel 7.  Note 65.  Velocity 68
000002t:  Note off ::  Channel 7.  Note 60.  Velocity 67
000000t:  Note off ::  Channel 7.  Note 53.  Velocity 60
000002t:  Note on ::  Channel 7.  Note 65.  Velocity 56
000001t:  Note on ::  Channel 7.  Note 60.  Velocity 62
000001t:  Note on ::  Channel 3.  Note 72.  Velocity 60
000000t:  Note on ::  Channel 7.  Note 53.  Velocity 54
000001t:  Note off ::  Channel 3.  Note 69.  Velocity 79
000017t:  Note off ::  Channel 7.  Note 53.  Velocity 54
000001t:  Note off ::  Channel 7.  Note 60.  Velocity 62
000001t:  Note off ::  Channel 2.  Note 48.  Velocity 56
000000t:  Note off ::  Channel 7.  Note 65.  Velocity 56
000000t:  Note on ::  Channel 7.  Note 53.  Velocity 51
000001t:  Note off ::  Channel 2.  Note 45.  Velocity 43
000000t:  Note on ::  Channel 7.  Note 60.  Velocity 59
000001t:  Note off ::  Channel 2.  Note 53.  Velocity 63
000000t:  Note on ::  Channel 7.  Note 65.  Velocity 52
000022t:  Note off ::  Channel 7.  Note 65.  Velocity 52
000001t:  Note off ::  Channel 7.  Note 60.  Velocity 59
000000t:  Note on ::  Channel 7.  Note 65.  Velocity 78
000001t:  Note off ::  Channel 7.  Note 53.  Velocity 51
000000t:  Note on ::  Channel 7.  Note 60.  Velocity 64
000001t:  Note on ::  Channel 7.  Note 53.  Velocity 59
000014t:  Note off ::  Channel 7.  Note 53.  Velocity 59
000000t:  Note off ::  Channel 7.  Note 65.  Velocity 78
000001t:  Note off ::  Channel 7.  Note 60.  Velocity 64
000006t:  Note off ::  Channel 3.  Note 72.  Velocity 60
000000t:  Note on ::  Channel 7.  Note 45.  Velocity 67
000002t:  Note on ::  Channel 4.  Note 48.  Velocity 91
000001t:  Note on ::  Channel 2.  Note 53.  Velocity 67
000000t:  Note off ::  Channel 4.  Note 45.  Velocity 91
000000t:  Note on ::  Channel 7.  Note 60.  Velocity 67
000000t:  Note on ::  Channel 9.  Note 42.  Velocity 107
000001t:  Note on ::  Channel 2.  Note 45.  Velocity 56
000000t:  Note on ::  Channel 2.  Note 48.  Velocity 57
000000t:  Note on ::  Channel 3.  Note 69.  Velocity 74
000000t:  Note on ::  Channel 7.  Note 65.  Velocity 76
000000t:  Note on ::  Channel 9.  Note 36.  Velocity 125
000000t:  Note off ::  Channel 9.  Note 42.  Velocity 107
000001t:  Note off ::  Channel 9.  Note 36.  Velocity 125
000001t:  Note on ::  Channel 7.  Note 72.  Velocity 80
000002t:  Control change ::  Channel 2.  Controller 64.  Value: 0
000019t:  Note on ::  Channel 3.  Note 65.  Velocity 71
000002t:  Control change ::  Channel 2.  Controller 64.  Value: 127
000000t:  Note off ::  Channel 3.  Note 69.  Velocity 74
000015t:  Note off ::  Channel 7.  Note 65.  Velocity 76
000003t:  Note off ::  Channel 2.  Note 48.  Velocity 57
000001t:  Note off ::  Channel 7.  Note 72.  Velocity 80
000001t:  Note off ::  Channel 7.  Note 60.  Velocity 67
000000t:  Note on ::  Channel 7.  Note 57.  Velocity 33
000001t:  Note off ::  Channel 3.  Note 65.  Velocity 71
000001t:  Note on ::  Channel 7.  Note 65.  Velocity 64
000000t:  Note on ::  Channel 7.  Note 72.  Velocity 76
000000t:  Note on ::  Channel 9.  Note 42.  Velocity 70
000001t:  Note off ::  Channel 2.  Note 45.  Velocity 56
000000t:  Note on ::  Channel 3.  Note 60.  Velocity 61
000000t:  Note off ::  Channel 9.  Note 42.  Velocity 70
000002t:  Note off ::  Channel 2.  Note 53.  Velocity 67
000016t:  Note off ::  Channel 7.  Note 45.  Velocity 67
000004t:  Note on ::  Channel 9.  Note 36.  Velocity 77
000001t:  Note off ::  Channel 9.  Note 36.  Velocity 77
000001t:  Note on ::  Channel 3.  Note 69.  Velocity 84
000000t:  Note on ::  Channel 3.  Note 65.  Velocity 76
000003t:  Note off ::  Channel 3.  Note 60.  Velocity 61
000013t:  Note off ::  Channel 7.  Note 57.  Velocity 33
000002t:  Note off ::  Channel 7.  Note 72.  Velocity 76
000000t:  Note off ::  Channel 7.  Note 65.  Velocity 64
000003t:  Note on ::  Channel 7.  Note 57.  Velocity 33
000002t:  Note on ::  Channel 2.  Note 53.  Velocity 66
000000t:  Note on ::  Channel 7.  Note 65.  Velocity 64
000000t:  Note on ::  Channel 7.  Note 72.  Velocity 76
000001t:  Note on ::  Channel 2.  Note 45.  Velocity 47
000000t:  Note on ::  Channel 2.  Note 48.  Velocity 57
000000t:  Note on ::  Channel 9.  Note 46.  Velocity 127
000000t:  Note on ::  Channel 9.  Note 36.  Velocity 127
000001t:  Note off ::  Channel 9.  Note 36.  Velocity 127
000000t:  Note off ::  Channel 9.  Note 46.  Velocity 127
000013t:  Control change ::  Channel 2.  Controller 64.  Value: 0
000004t:  Note off ::  Channel 7.  Note 72.  Velocity 76
000000t:  Note off ::  Channel 7.  Note 65.  Velocity 64
000002t:  Note off ::  Channel 7.  Note 57.  Velocity 33
000002t:  Note on ::  Channel 7.  Note 72.  Velocity 79
000001t:  Note on ::  Channel 7.  Note 65.  Velocity 69
000001t:  Note on ::  Channel 3.  Note 60.  Velocity 80
000000t:  Note on ::  Channel 7.  Note 57.  Velocity 59
000006t:  Note off ::  Channel 3.  Note 65.  Velocity 76
000003t:  Control change ::  Channel 2.  Controller 64.  Value: 127
000010t:  Note off ::  Channel 7.  Note 57.  Velocity 59
000001t:  Note off ::  Channel 7.  Note 65.  Velocity 69
000000t:  Note off ::  Channel 7.  Note 72.  Velocity 79
000002t:  Note on ::  Channel 7.  Note 57.  Velocity 61
000001t:  Note on ::  Channel 7.  Note 65.  Velocity 74
000001t:  Note off ::  Channel 2.  Note 48.  Velocity 57
000000t:  Note on ::  Channel 3.  Note 64.  Velocity 73
000000t:  Note on ::  Channel 3.  Note 67.  Velocity 70
000000t:  Note on ::  Channel 7.  Note 72.  Velocity 70
000001t:  Note off ::  Channel 3.  Note 69.  Velocity 84
000001t:  Note off ::  Channel 3.  Note 60.  Velocity 80
000001t:  Note off ::  Channel 2.  Note 45.  Velocity 47
000001t:  Note off ::  Channel 2.  Note 53.  Velocity 66
000013t:  Note off ::  Channel 7.  Note 72.  Velocity 70
000002t:  Note off ::  Channel 7.  Note 65.  Velocity 74
000000t:  Note off ::  Channel 7.  Note 57.  Velocity 61
000002t:  Note on ::  Channel 7.  Note 72.  Velocity 82
000001t:  Note on ::  Channel 7.  Note 65.  Velocity 71
000001t:  Note on ::  Channel 7.  Note 57.  Velocity 68
000018t:  Note off ::  Channel 4.  Note 48.  Velocity 91
000000t:  Note on ::  Channel 4.  Note 53.  Velocity 87
000002t:  Note off ::  Channel 7.  Note 72.  Velocity 82
000001t:  Note off ::  Channel 7.  Note 65.  Velocity 71
000000t:  Note on ::  Channel 7.  Note 45.  Velocity 67
000001t:  Note off ::  Channel 7.  Note 57.  Velocity 68
000002t:  Note on ::  Channel 7.  Note 65.  Velocity 67
000001t:  Note on ::  Channel 2.  Note 53.  Velocity 64
000000t:  Note on ::  Channel 7.  Note 72.  Velocity 76
000000t:  Note on ::  Channel 9.  Note 49.  Velocity 116
000000t:  Note on ::  Channel 9.  Note 36.  Velocity 127
000001t:  Note on ::  Channel 2.  Note 45.  Velocity 32
000000t:  Note on ::  Channel 2.  Note 48.  Velocity 43
000000t:  Note off ::  Channel 9.  Note 36.  Velocity 127
000000t:  Note off ::  Channel 9.  Note 49.  Velocity 116
000001t:  Note off ::  Channel 3.  Note 64.  Velocity 73
000000t:  Note on ::  Channel 7.  Note 77.  Velocity 80
000002t:  Note off ::  Channel 3.  Note 67.  Velocity 70
000010t:  Control change ::  Channel 2.  Controller 64.  Value: 0
000019t:  Control change ::  Channel 2.  Controller 64.  Value: 127
000007t:  Note off ::  Channel 7.  Note 72.  Velocity 76
000004t:  Note off ::  Channel 7.  Note 77.  Velocity 80
000000t:  Note off ::  Channel 7.  Note 65.  Velocity 67
000000t:  Note on ::  Channel 7.  Note 65.  Velocity 49
000001t:  Note on ::  Channel 7.  Note 72.  Velocity 60
000003t:  Note on ::  Channel 3.  Note 60.  Velocity 59
000000t:  Note on ::  Channel 9.  Note 42.  Velocity 76
000001t:  Note off ::  Channel 9.  Note 42.  Velocity 76
000002t:  Note on ::  Channel 7.  Note 77.  Velocity 44
000007t:  Note off ::  Channel 2.  Note 45.  Velocity 32
000002t:  Note off ::  Channel 2.  Note 48.  Velocity 43
000001t:  Note off ::  Channel 7.  Note 65.  Velocity 49
000001t:  Note off ::  Channel 2.  Note 53.  Velocity 64
000003t:  Note off ::  Channel 7.  Note 72.  Velocity 60
000002t:  Note off ::  Channel 7.  Note 77.  Velocity 44
000001t:  Note on ::  Channel 7.  Note 77.  Velocity 68
000003t:  Note on ::  Channel 7.  Note 65.  Velocity 60
000000t:  Note on ::  Channel 7.  Note 72.  Velocity 67
000001t:  Note on ::  Channel 3.  Note 65.  Velocity 68
000000t:  Note on ::  Channel 9.  Note 36.  Velocity 67
000001t:  Note off ::  Channel 9.  Note 36.  Velocity 67
000010t:  Note off ::  Channel 3.  Note 60.  Velocity 59
000007t:  Note off ::  Channel 7.  Note 77.  Velocity 68
000000t:  Note off ::  Channel 7.  Note 45.  Velocity 67
000002t:  Note off ::  Channel 7.  Note 72.  Velocity 67
000000t:  Note off ::  Channel 7.  Note 65.  Velocity 60
000000t:  Note on ::  Channel 7.  Note 65.  Velocity 49
000001t:  Note on ::  Channel 7.  Note 72.  Velocity 60
000002t:  Note on ::  Channel 3.  Note 69.  Velocity 73
000001t:  Note on ::  Channel 2.  Note 45.  Velocity 45
000000t:  Note on ::  Channel 2.  Note 48.  Velocity 40
000000t:  Note on ::  Channel 2.  Note 53.  Velocity 50
000000t:  Note on ::  Channel 9.  Note 46.  Velocity 116
000000t:  Note on ::  Channel 9.  Note 36.  Velocity 127
000001t:  Note off ::  Channel 9.  Note 36.  Velocity 127
000000t:  Note off ::  Channel 9.  Note 46.  Velocity 116
000002t:  Note on ::  Channel 7.  Note 77.  Velocity 44
000008t:  Note off ::  Channel 3.  Note 65.  Velocity 68
000005t:  Control change ::  Channel 2.  Controller 64.  Value: 0
000000t:  Note off ::  Channel 7.  Note 65.  Velocity 49
000003t:  Note off ::  Channel 7.  Note 77.  Velocity 44
000001t:  Note off ::  Channel 7.  Note 72.  Velocity 60
000000t:  Note on ::  Channel 7.  Note 77.  Velocity 68
000003t:  Note on ::  Channel 7.  Note 65.  Velocity 60
000000t:  Note on ::  Channel 7.  Note 72.  Velocity 67
000001t:  Note on ::  Channel 3.  Note 72.  Velocity 85
000005t:  Control change ::  Channel 2.  Controller 64.  Value: 127
000001t:  Note off ::  Channel 3.  Note 69.  Velocity 73
000005t:  Note off ::  Channel 2.  Note 45.  Velocity 45
000012t:  Note off ::  Channel 3.  Note 72.  Velocity 85
000002t:  Note off ::  Channel 2.  Note 48.  Velocity 40
000002t:  Note off ::  Channel 2.  Note 53.  Velocity 50
000014t:  Note off ::  Channel 7.  Note 77.  Velocity 68
000001t:  Note off ::  Channel 7.  Note 72.  Velocity 67
000000t:  Note off ::  Channel 7.  Note 65.  Velocity 60
000002t:  Note on ::  Channel 7.  Note 65.  Velocity 49
000001t:  Note on ::  Channel 7.  Note 72.  Velocity 60
000003t:  Note on ::  Channel 9.  Note 36.  Velocity 118
000001t:  Note off ::  Channel 9.  Note 36.  Velocity 118
000002t:  Note on ::  Channel 7.  Note 77.  Velocity 44
000010t:  Note off ::  Channel 1.  Note 33.  Velocity 89
000003t:  Note off ::  Channel 7.  Note 65.  Velocity 49
000001t:  Note on ::  Channel 5.  Note 60.  Velocity 85
000002t:  Note on ::  Channel 5.  Note 70.  Velocity 107
000000t:  Note off ::  Channel 7.  Note 77.  Velocity 44
000001t:  Note off ::  Channel 7.  Note 72.  Velocity 60
000001t:  Note off ::  Channel 5.  Note 69.  Velocity 74
000001t:  Note on ::  Channel 7.  Note 53.  Velocity 72
000000t:  Note on ::  Channel 9.  Note 49.  Velocity 107
000001t:  Note on ::  Channel 1.  Note 29.  Velocity 98
000000t:  Note on ::  Channel 7.  Note 70.  Velocity 72
000000t:  Note on ::  Channel 9.  Note 36.  Velocity 127
000000t:  Note off ::  Channel 9.  Note 49.  Velocity 107
000001t:  Note on ::  Channel 2.  Note 53.  Velocity 54
000000t:  Note on ::  Channel 3.  Note 58.  Velocity 64
000000t:  Note on ::  Channel 3.  Note 65.  Velocity 64
000000t:  Note on ::  Channel 7.  Note 72.  Velocity 61
000000t:  Note on ::  Channel 7.  Note 77.  Velocity 71
000000t:  Note off ::  Channel 9.  Note 36.  Velocity 127
000001t:  Note on ::  Channel 2.  Note 41.  Velocity 49
000000t:  Note on ::  Channel 3.  Note 63.  Velocity 64
000007t:  Note off ::  Channel 3.  Note 63.  Velocity 64
000003t:  Note off ::  Channel 3.  Note 58.  Velocity 64
000001t:  Note off ::  Channel 3.  Note 65.  Velocity 64
000001t:  Control change ::  Channel 2.  Controller 64.  Value: 0
000006t:  Note off ::  Channel 7.  Note 77.  Velocity 71
000000t:  Note off ::  Channel 7.  Note 72.  Velocity 61
000000t:  Note off ::  Channel 7.  Note 70.  Velocity 72
000002t:  Note on ::  Channel 7.  Note 77.  Velocity 68
000001t:  Note on ::  Channel 7.  Note 72.  Velocity 52
000001t:  Note on ::  Channel 9.  Note 47.  Velocity 87
000001t:  Note on ::  Channel 3.  Note 58.  Velocity 67
000000t:  Note on ::  Channel 3.  Note 63.  Velocity 67
000000t:  Note on ::  Channel 3.  Note 65.  Velocity 67
000000t:  Note off ::  Channel 9.  Note 47.  Velocity 87
000006t:  Note off ::  Channel 3.  Note 63.  Velocity 67
000003t:  Control change ::  Channel 2.  Controller 64.  Value: 127
000001t:  Note off ::  Channel 3.  Note 65.  Velocity 67
000000t:  Note off ::  Channel 3.  Note 58.  Velocity 67
000006t:  Note off ::  Channel 7.  Note 72.  Velocity 52
000002t:  Note off ::  Channel 7.  Note 77.  Velocity 68
000002t:  Note on ::  Channel 7.  Note 70.  Velocity 49
000001t:  Note on ::  Channel 7.  Note 72.  Velocity 60
000002t:  Note on ::  Channel 3.  Note 58.  Velocity 71
000000t:  Note on ::  Channel 3.  Note 63.  Velocity 71
000000t:  Note on ::  Channel 3.  Note 65.  Velocity 71
000000t:  Note on ::  Channel 9.  Note 47.  Velocity 113
000001t:  Note off ::  Channel 9.  Note 47.  Velocity 113
000003t:  Note on ::  Channel 7.  Note 77.  Velocity 44
000002t:  Note off ::  Channel 3.  Note 63.  Velocity 71
000002t:  Note off ::  Channel 2.  Note 41.  Velocity 49
000001t:  Note off ::  Channel 2.  Note 53.  Velocity 54
000000t:  Note off ::  Channel 3.  Note 65.  Velocity 71
000000t:  Note off ::  Channel 3.  Note 58.  Velocity 71
000011t:  Note off ::  Channel 7.  Note 77.  Velocity 44
000000t:  Note off ::  Channel 7.  Note 53.  Velocity 72
000001t:  Note off ::  Channel 7.  Note 72.  Velocity 60
000000t:  Note on ::  Channel 7.  Note 77.  Velocity 68
000001t:  Note off ::  Channel 7.  Note 70.  Velocity 49
000002t:  Note on ::  Channel 3.  Note 58.  Velocity 75
000000t:  Note on ::  Channel 3.  Note 63.  Velocity 75
000000t:  Note on ::  Channel 3.  Note 65.  Velocity 75
000000t:  Note on ::  Channel 7.  Note 70.  Velocity 60
000000t:  Note on ::  Channel 7.  Note 72.  Velocity 67
000000t:  Note on ::  Channel 9.  Note 45.  Velocity 127
000001t:  Note off ::  Channel 9.  Note 45.  Velocity 127
000023t:  Note on ::  Channel 9.  Note 45.  Velocity 127
000001t:  Note off ::  Channel 1.  Note 29.  Velocity 98
000000t:  Note on ::  Channel 1.  Note 41.  Velocity 98
000000t:  Note on ::  Channel 2.  Note 41.  Velocity 55
000000t:  Note on ::  Channel 2.  Note 53.  Velocity 55
000000t:  Note off ::  Channel 9.  Note 45.  Velocity 127
000014t:  Note off ::  Channel 3.  Note 63.  Velocity 75
000003t:  Control change ::  Channel 2.  Controller 64.  Value: 0
000001t:  Note off ::  Channel 3.  Note 65.  Velocity 75
000000t:  Note off ::  Channel 3.  Note 58.  Velocity 75
000000t:  Note off ::  Channel 7.  Note 77.  Velocity 68
000002t:  Note off ::  Channel 7.  Note 72.  Velocity 67
000000t:  Note off ::  Channel 7.  Note 70.  Velocity 60
000002t:  Note on ::  Channel 7.  Note 77.  Velocity 56
000000t:  Note on ::  Channel 9.  Note 43.  Velocity 119
000001t:  Note on ::  Channel 7.  Note 72.  Velocity 62
000000t:  Note off ::  Channel 9.  Note 43.  Velocity 119
000001t:  Note on ::  Channel 3.  Note 58.  Velocity 83
000000t:  Note on ::  Channel 3.  Note 63.  Velocity 83
000000t:  Note on ::  Channel 3.  Note 65.  Velocity 83
000000t:  Note on ::  Channel 7.  Note 70.  Velocity 54
000003t:  Control change ::  Channel 2.  Controller 64.  Value: 127
000002t:  Note off ::  Channel 3.  Note 63.  Velocity 83
000005t:  Note off ::  Channel 3.  Note 65.  Velocity 83
000001t:  Note off ::  Channel 3.  Note 58.  Velocity 83
000007t:  Note off ::  Channel 7.  Note 70.  Velocity 54
000001t:  Note off ::  Channel 7.  Note 72.  Velocity 62
000001t:  Note off ::  Channel 7.  Note 77.  Velocity 56
000000t:  Note on ::  Channel 7.  Note 70.  Velocity 51
000000t:  Note on ::  Channel 9.  Note 41.  Velocity 119
000001t:  Note on ::  Channel 7.  Note 72.  Velocity 59
000001t:  Note on ::  Channel 7.  Note 77.  Velocity 52
000000t:  Note off ::  Channel 9.  Note 41.  Velocity 119
000001t:  Note on ::  Channel 3.  Note 58.  Velocity 87
000000t:  Note on ::  Channel 3.  Note 65.  Velocity 87
000001t:  Note on ::  Channel 3.  Note 63.  Velocity 87
000000t:  Note on ::  Channel 9.  Note 41.  Velocity 122
000002t:  Note off ::  Channel 2.  Note 53.  Velocity 55
000000t:  Note off ::  Channel 9.  Note 41.  Velocity 122
000002t:  Note off ::  Channel 2.  Note 41.  Velocity 55
000016t:  Note off ::  Channel 7.  Note 77.  Velocity 52
000001t:  Note off ::  Channel 7.  Note 72.  Velocity 59
000000t:  Note on ::  Channel 7.  Note 77.  Velocity 78
000000t:  Note on ::  Channel 9.  Note 41.  Velocity 122
000001t:  Note off ::  Channel 7.  Note 70.  Velocity 51
000000t:  Note on ::  Channel 7.  Note 72.  Velocity 64
000000t:  Note off ::  Channel 9.  Note 41.  Velocity 122
000001t:  Note on ::  Channel 7.  Note 70.  Velocity 59
000014t:  Note off ::  Channel 7.  Note 70.  Velocity 59
000000t:  Note off ::  Channel 7.  Note 77.  Velocity 78
000001t:  Note on ::  Channel 4.  Note 58.  Velocity 87
000000t:  Note off ::  Channel 7.  Note 72.  Velocity 64
000001t:  Note off ::  Channel 3.  Note 63.  Velocity 87
000000t:  Note off ::  Channel 4.  Note 53.  Velocity 87
000002t:  Note off ::  Channel 5.  Note 70.  Velocity 107
000002t:  Note on ::  Channel 5.  Note 62.  Velocity 74
000001t:  Note on ::  Channel 7.  Note 46.  Velocity 67
000001t:  Note off ::  Channel 1.  Note 41.  Velocity 98
000000t:  Note off ::  Channel 5.  Note 60.  Velocity 85
000001t:  Note on ::  Channel 9.  Note 36.  Velocity 127
000001t:  Note on ::  Channel 1.  Note 34.  Velocity 91
000000t:  Note off ::  Channel 3.  Note 65.  Velocity 87
000000t:  Note on ::  Channel 7.  Note 62.  Velocity 67
000000t:  Note off ::  Channel 9.  Note 36.  Velocity 127
000001t:  Note on ::  Channel 2.  Note 50.  Velocity 58
000000t:  Note on ::  Channel 2.  Note 53.  Velocity 58
000000t:  Note on ::  Channel 5.  Note 70.  Velocity 102
000000t:  Note on ::  Channel 7.  Note 65.  Velocity 76
000000t:  Note on ::  Channel 9.  Note 49.  Velocity 127
000001t:  Note on ::  Channel 2.  Note 46.  Velocity 58
000000t:  Note off ::  Channel 9.  Note 49.  Velocity 127
000001t:  Note on ::  Channel 7.  Note 70.  Velocity 64
000001t:  Note off ::  Channel 3.  Note 58.  Velocity 87
000010t:  Control change ::  Channel 2.  Controller 64.  Value: 0
000020t:  Control change ::  Channel 2.  Controller 64.  Value: 127
000006t:  Note off ::  Channel 7.  Note 62.  Velocity 67
000001t:  Note off ::  Channel 7.  Note 65.  Velocity 76
000004t:  Note off ::  Channel 7.  Note 70.  Velocity 64
000001t:  Note on ::  Channel 7.  Note 62.  Velocity 33
000001t:  Note off ::  Channel 2.  Note 50.  Velocity 58
000001t:  Note off ::  Channel 2.  Note 46.  Velocity 58
000000t:  Note off ::  Channel 2.  Note 53.  Velocity 58
000000t:  Note on ::  Channel 3.  Note 65.  Velocity 74
000000t:  Note on ::  Channel 7.  Note 65.  Velocity 64
000000t:  Note on ::  Channel 7.  Note 70.  Velocity 59
000000t:  Note on ::  Channel 9.  Note 51.  Velocity 122
000001t:  Note off ::  Channel 9.  Note 51.  Velocity 122
000011t:  Note off ::  Channel 3.  Note 65.  Velocity 74
000007t:  Note off ::  Channel 7.  Note 70.  Velocity 59
000000t:  Note off ::  Channel 7.  Note 65.  Velocity 64
000002t:  Note off ::  Channel 7.  Note 62.  Velocity 33
000002t:  Note on ::  Channel 7.  Note 70.  Velocity 70
000000t:  Note on ::  Channel 9.  Note 36.  Velocity 105
000001t:  Note on ::  Channel 3.  Note 65.  Velocity 92
000000t:  Note on ::  Channel 7.  Note 65.  Velocity 69
000000t:  Note off ::  Channel 9.  Note 36.  Velocity 105
000001t:  Note on ::  Channel 7.  Note 62.  Velocity 59
000011t:  Note off ::  Channel 1.  Note 34.  Velocity 91
000008t:  Note off ::  Channel 7.  Note 62.  Velocity 59
000001t:  Note off ::  Channel 7.  Note 65.  Velocity 69
000000t:  Note off ::  Channel 7.  Note 70.  Velocity 70
000001t:  Note on ::  Channel 7.  Note 62.  Velocity 33
000001t:  Note on ::  Channel 3.  Note 70.  Velocity 94
000001t:  Note on ::  Channel 1.  Note 34.  Velocity 72
000000t:  Note on ::  Channel 7.  Note 65.  Velocity 64
000000t:  Note on ::  Channel 7.  Note 70.  Velocity 59
000000t:  Note on ::  Channel 9.  Note 40.  Velocity 127
000000t:  Note on ::  Channel 9.  Note 51.  Velocity 127
000001t:  Note on ::  Channel 2.  Note 46.  Velocity 56
000000t:  Note on ::  Channel 2.  Note 50.  Velocity 64
000000t:  Note on ::  Channel 2.  Note 53.  Velocity 82
000000t:  Note off ::  Channel 9.  Note 51.  Velocity 127
000000t:  Note off ::  Channel 9.  Note 40.  Velocity 127
000006t:  Note off ::  Channel 3.  Note 65.  Velocity 92
000005t:  Control change ::  Channel 2.  Controller 64.  Value: 0
000002t:  Note off ::  Channel 3.  Note 70.  Velocity 94
000009t:  Note on ::  Channel 3.  Note 70.  Velocity 79
000009t:  Control change ::  Channel 2.  Controller 64.  Value: 127
000002t:  Note off ::  Channel 2.  Note 50.  Velocity 64
000007t:  Note off ::  Channel 7.  Note 62.  Velocity 33
000001t:  Note off ::  Channel 2.  Note 53.  Velocity 82
000000t:  Note off ::  Channel 7.  Note 70.  Velocity 59
000001t:  Note off ::  Channel 7.  Note 65.  Velocity 64
000002t:  Note off ::  Channel 2.  Note 46.  Velocity 56
000002t:  Note on ::  Channel 7.  Note 62.  Velocity 61
000001t:  Note on ::  Channel 3.  Note 74.  Velocity 103
000000t:  Note on ::  Channel 7.  Note 65.  Velocity 74
000001t:  Note on ::  Channel 7.  Note 70.  Velocity 52
000000t:  Note on ::  Channel 9.  Note 51.  Velocity 107
000001t:  Note off ::  Channel 9.  Note 51.  Velocity 107
000010t:  Note off ::  Channel 3.  Note 70.  Velocity 79
000003t:  Note off ::  Channel 3.  Note 74.  Velocity 103
000005t:  Note off ::  Channel 7.  Note 70.  Velocity 52
000000t:  Note off ::  Channel 7.  Note 65.  Velocity 74
000000t:  Note off ::  Channel 7.  Note 62.  Velocity 61
000002t:  Note on ::  Channel 7.  Note 70.  Velocity 72
000001t:  Note on ::  Channel 3.  Note 74.  Velocity 92
000000t:  Note on ::  Channel 7.  Note 65.  Velocity 71
000000t:  Note on ::  Channel 9.  Note 36.  Velocity 79
000001t:  Note on ::  Channel 7.  Note 62.  Velocity 68
000000t:  Note off ::  Channel 9.  Note 36.  Velocity 79
000005t:  Note off ::  Channel 7.  Note 46.  Velocity 67
000013t:  Note off ::  Channel 1.  Note 34.  Velocity 72
000001t:  Note off ::  Channel 7.  Note 70.  Velocity 72
000002t:  Note off ::  Channel 7.  Note 65.  Velocity 71
000001t:  Note off ::  Channel 7.  Note 62.  Velocity 68
000000t:  Note on ::  Channel 7.  Note 46.  Velocity 50
000000t:  Note on ::  Channel 7.  Note 62.  Velocity 33
000002t:  Note on ::  Channel 1.  Note 34.  Velocity 68
000000t:  Note on ::  Channel 2.  Note 50.  Velocity 64
000000t:  Note on ::  Channel 2.  Note 53.  Velocity 53
000000t:  Note on ::  Channel 2.  Note 58.  Velocity 65
000000t:  Note on ::  Channel 3.  Note 75.  Velocity 101
000000t:  Note on ::  Channel 7.  Note 65.  Velocity 64
000000t:  Note on ::  Channel 7.  Note 70.  Velocity 59
000000t:  Note on ::  Channel 9.  Note 51.  Velocity 119
000000t:  Note on ::  Channel 9.  Note 36.  Velocity 127
000001t:  Control change ::  Channel 2.  Controller 64.  Value: 0
000000t:  Note off ::  Channel 9.  Note 36.  Velocity 127
000000t:  Note off ::  Channel 9.  Note 51.  Velocity 119
000013t:  Note off ::  Channel 3.  Note 74.  Velocity 92
000002t:  Note off ::  Channel 7.  Note 62.  Velocity 33
000003t:  Note off ::  Channel 7.  Note 70.  Velocity 59
000000t:  Note off ::  Channel 7.  Note 65.  Velocity 64
000002t:  Control change ::  Channel 2.  Controller 64.  Value: 127
000002t:  Note on ::  Channel 7.  Note 70.  Velocity 70
000001t:  Note on ::  Channel 7.  Note 65.  Velocity 69
000001t:  Note on ::  Channel 7.  Note 62.  Velocity 59
000010t:  Note off ::  Channel 7.  Note 46.  Velocity 50
000009t:  Note off ::  Channel 7.  Note 62.  Velocity 59
000001t:  Note off ::  Channel 7.  Note 65.  Velocity 69
000000t:  Note off ::  Channel 7.  Note 70.  Velocity 70
000002t:  Note on ::  Channel 7.  Note 62.  Velocity 61
000001t:  Note on ::  Channel 3.  Note 74.  Velocity 106
000000t:  Note on ::  Channel 7.  Note 65.  Velocity 74
000000t:  Note on ::  Channel 9.  Note 51.  Velocity 100
000001t:  Note off ::  Channel 3.  Note 75.  Velocity 101
000000t:  Note on ::  Channel 7.  Note 70.  Velocity 52
000000t:  Note off ::  Channel 9.  Note 51.  Velocity 100
000001t:  Note off ::  Channel 1.  Note 34.  Velocity 68
000001t:  Note off ::  Channel 2.  Note 53.  Velocity 53
000001t:  Note off ::  Channel 2.  Note 58.  Velocity 65
000009t:  Note off ::  Channel 2.  Note 50.  Velocity 64
000005t:  Note off ::  Channel 7.  Note 70.  Velocity 52
000002t:  Note off ::  Channel 7.  Note 65.  Velocity 74
000000t:  Note off ::  Channel 7.  Note 62.  Velocity 61
000002t:  Note on ::  Channel 7.  Note 70.  Velocity 82
000001t:  Note on ::  Channel 7.  Note 65.  Velocity 74
000000t:  Note on ::  Channel 9.  Note 36.  Velocity 105
000001t:  Note on ::  Channel 1.  Note 34.  Velocity 27
000000t:  Note on ::  Channel 7.  Note 62.  Velocity 78
000000t:  Note off ::  Channel 9.  Note 36.  Velocity 105
000001t:  Note on ::  Channel 3.  Note 72.  Velocity 102
000005t:  Note off ::  Channel 1.  Note 34.  Velocity 27
000000t:  Note off ::  Channel 3.  Note 74.  Velocity 106
000016t:  Note off ::  Channel 7.  Note 62.  Velocity 78
000000t:  Note off ::  Channel 7.  Note 65.  Velocity 74
000000t:  Note off ::  Channel 7.  Note 70.  Velocity 82
000002t:  Note on ::  Channel 1.  Note 34.  Velocity 60
000000t:  Note on ::  Channel 2.  Note 58.  Velocity 69
000000t:  Note on ::  Channel 9.  Note 51.  Velocity 127
000000t:  Note on ::  Channel 9.  Note 40.  Velocity 127
000001t:  Note on ::  Channel 2.  Note 50.  Velocity 51
000000t:  Note on ::  Channel 2.  Note 53.  Velocity 62
000000t:  Note off ::  Channel 9.  Note 40.  Velocity 127
000000t:  Note off ::  Channel 9.  Note 51.  Velocity 127
000012t:  Control change ::  Channel 2.  Controller 64.  Value: 0
000008t:  Note on ::  Channel 7.  Note 70.  Velocity 94
000001t:  Note on ::  Channel 7.  Note 65.  Velocity 71
000001t:  Note on ::  Channel 7.  Note 62.  Velocity 60
000007t:  Control change ::  Channel 2.  Controller 64.  Value: 127
000007t:  Note off ::  Channel 2.  Note 53.  Velocity 62
000001t:  Note off ::  Channel 2.  Note 50.  Velocity 51
000003t:  Note off ::  Channel 7.  Note 62.  Velocity 60
000000t:  Note off ::  Channel 7.  Note 65.  Velocity 71
000002t:  Note off ::  Channel 2.  Note 58.  Velocity 69
000000t:  Note off ::  Channel 7.  Note 70.  Velocity 94
000003t:  Note on ::  Channel 7.  Note 62.  Velocity 33
000001t:  Note off ::  Channel 3.  Note 72.  Velocity 102
000001t:  Note on ::  Channel 1.  Note 26.  Velocity 89
000000t:  Note on ::  Channel 3.  Note 74.  Velocity 100
000000t:  Note on ::  Channel 7.  Note 65.  Velocity 64
000000t:  Note on ::  Channel 7.  Note 70.  Velocity 59
000001t:  Note off ::  Channel 1.  Note 34.  Velocity 60
000000t:  Note on ::  Channel 9.  Note 51.  Velocity 122
000001t:  Note off ::  Channel 9.  Note 51.  Velocity 122
000017t:  Note off ::  Channel 7.  Note 70.  Velocity 59
000000t:  Note off ::  Channel 7.  Note 65.  Velocity 64
000002t:  Note off ::  Channel 7.  Note 62.  Velocity 33
000002t:  Note on ::  Channel 7.  Note 70.  Velocity 70
000001t:  Note on ::  Channel 7.  Note 65.  Velocity 69
000001t:  Note on ::  Channel 7.  Note 62.  Velocity 59
000013t:  Note off ::  Channel 7.  Note 70.  Velocity 70
000002t:  Note on ::  Channel 5.  Note 63.  Velocity 85
000000t:  Note on ::  Channel 5.  Note 67.  Velocity 78
000001t:  Note off ::  Channel 7.  Note 65.  Velocity 69
000001t:  Note off ::  Channel 5.  Note 62.  Velocity 74
000000t:  Note off ::  Channel 5.  Note 65.  Velocity 80
000002t:  Note off ::  Channel 7.  Note 62.  Velocity 59
000002t:  Note on ::  Channel 7.  Note 51.  Velocity 50
000001t:  Note on ::  Channel 7.  Note 58.  Velocity 61
000000t:  Note on ::  Channel 7.  Note 63.  Velocity 74
000001t:  Note off ::  Channel 1.  Note 26.  Velocity 89
000000t:  Note on ::  Channel 1.  Note 27.  Velocity 89
000000t:  Note on ::  Channel 2.  Note 55.  Velocity 71
000000t:  Note on ::  Channel 2.  Note 58.  Velocity 60
000000t:  Note on ::  Channel 2.  Note 51.  Velocity 57
000000t:  Note on ::  Channel 3.  Note 70.  Velocity 93
000000t:  Note on ::  Channel 9.  Note 36.  Velocity 127
000001t:  Note on ::  Channel 7.  Note 67.  Velocity 52
000000t:  Note on ::  Channel 9.  Note 51.  Velocity 122
000000t:  Note off ::  Channel 9.  Note 36.  Velocity 127
000001t:  Note off ::  Channel 9.  Note 51.  Velocity 122
000004t:  Control change ::  Channel 2.  Controller 64.  Value: 0
000011t:  Note off ::  Channel 3.  Note 74.  Velocity 100
000001t:  Note off ::  Channel 7.  Note 67.  Velocity 52
000007t:  Control change ::  Channel 2.  Controller 64.  Value: 127
000010t:  Note off ::  Channel 7.  Note 51.  Velocity 50
000004t:  Note off ::  Channel 7.  Note 63.  Velocity 74
000000t:  Note off ::  Channel 7.  Note 58.  Velocity 61
000007t:  Note off ::  Channel 2.  Note 55.  Velocity 71
000001t:  Note on ::  Channel 7.  Note 58.  Velocity 61
000000t:  Note on ::  Channel 7.  Note 63.  Velocity 74
000001t:  Note off ::  Channel 2.  Note 58.  Velocity 60
000000t:  Note on ::  Channel 9.  Note 51.  Velocity 100
000001t:  Note on ::  Channel 3.  Note 67.  Velocity 87
000000t:  Note on ::  Channel 7.  Note 67.  Velocity 52
000000t:  Note off ::  Channel 9.  Note 51.  Velocity 100
000001t:  Note off ::  Channel 2.  Note 51.  Velocity 57
000001t:  Note off ::  Channel 3.  Note 70.  Velocity 93
000015t:  Note off ::  Channel 7.  Note 67.  Velocity 52
000001t:  Note off ::  Channel 7.  Note 63.  Velocity 74
000001t:  Note off ::  Channel 7.  Note 58.  Velocity 61
000002t:  Note on ::  Channel 7.  Note 67.  Velocity 72
000001t:  Note on ::  Channel 7.  Note 63.  Velocity 71
000001t:  Note on ::  Channel 7.  Note 58.  Velocity 68
000001t:  Note on ::  Channel 3.  Note 70.  Velocity 94
000000t:  Note on ::  Channel 9.  Note 36.  Velocity 105
000001t:  Note off ::  Channel 9.  Note 36.  Velocity 105
000008t:  Note off ::  Channel 3.  Note 67.  Velocity 87
000008t:  Note off ::  Channel 1.  Note 27.  Velocity 89
000006t:  Note on ::  Channel 2.  Note 51.  Velocity 45
000000t:  Note on ::  Channel 2.  Note 55.  Velocity 48
000000t:  Note on ::  Channel 2.  Note 58.  Velocity 67
000000t:  Note on ::  Channel 9.  Note 51.  Velocity 127
000001t:  Note on ::  Channel 1.  Note 27.  Velocity 87
000000t:  Note on ::  Channel 9.  Note 40.  Velocity 119
000000t:  Note off ::  Channel 9.  Note 51.  Velocity 127
000001t:  Note off ::  Channel 9.  Note 40.  Velocity 119
000002t:  Control change ::  Channel 2.  Controller 64.  Value: 0
000013t:  Note off ::  Channel 7.  Note 67.  Velocity 72
000001t:  Note off ::  Channel 7.  Note 63.  Velocity 71
000002t:  Note off ::  Channel 7.  Note 58.  Velocity 68
000001t:  Note on ::  Channel 7.  Note 67.  Velocity 81
000001t:  Note on ::  Channel 7.  Note 63.  Velocity 71
000001t:  Note on ::  Channel 7.  Note 58.  Velocity 60
000001t:  Control change ::  Channel 2.  Controller 64.  Value: 127
000017t:  Note off ::  Channel 7.  Note 58.  Velocity 60
000000t:  Note off ::  Channel 7.  Note 63.  Velocity 71
000001t:  Note off ::  Channel 2.  Note 55.  Velocity 48
000001t:  Note off ::  Channel 7.  Note 67.  Velocity 81
000001t:  Note off ::  Channel 2.  Note 58.  Velocity 67
000001t:  Note off ::  Channel 2.  Note 51.  Velocity 45
000000t:  Note off ::  Channel 3.  Note 70.  Velocity 94
000001t:  Note on ::  Channel 7.  Note 58.  Velocity 33
000002t:  Note on ::  Channel 3.  Note 72.  Velocity 99
000000t:  Note on ::  Channel 7.  Note 63.  Velocity 64
000000t:  Note on ::  Channel 7.  Note 67.  Velocity 59
000000t:  Note on ::  Channel 9.  Note 51.  Velocity 116
000001t:  Note off ::  Channel 9.  Note 51.  Velocity 116
000018t:  Note off ::  Channel 7.  Note 67.  Velocity 59
000000t:  Note off ::  Channel 7.  Note 63.  Velocity 64
000002t:  Note off ::  Channel 7.  Note 58.  Velocity 33
000002t:  Note on ::  Channel 7.  Note 67.  Velocity 70
000001t:  Note on ::  Channel 7.  Note 63.  Velocity 69
000001t:  Note on ::  Channel 7.  Note 58.  Velocity 59
000008t:  Note off ::  Channel 1.  Note 27.  Velocity 87
000011t:  Note off ::  Channel 7.  Note 58.  Velocity 59
000001t:  Note off ::  Channel 7.  Note 63.  Velocity 69
000000t:  Note off ::  Channel 7.  Note 67.  Velocity 70
000002t:  Note on ::  Channel 7.  Note 51.  Velocity 67
000000t:  Note on ::  Channel 7.  Note 58.  Velocity 67
000001t:  Note on ::  Channel 1.  Note 27.  Velocity 72
000000t:  Note on ::  Channel 2.  Note 51.  Velocity 60
000000t:  Note on ::  Channel 2.  Note 55.  Velocity 59
000000t:  Note on ::  Channel 2.  Note 58.  Velocity 65
000000t:  Note on ::  Channel 7.  Note 63.  Velocity 76
000001t:  Control change ::  Channel 2.  Controller 64.  Value: 0
000000t:  Note on ::  Channel 3.  Note 75.  Velocity 98
000000t:  Note on ::  Channel 7.  Note 67.  Velocity 64
000000t:  Note on ::  Channel 9.  Note 36.  Velocity 127
000000t:  Note on ::  Channel 9.  Note 51.  Velocity 122
000001t:  Note off ::  Channel 9.  Note 51.  Velocity 122
000000t:  Note off ::  Channel 9.  Note 36.  Velocity 127
000007t:  Note off ::  Channel 3.  Note 72.  Velocity 99
000007t:  Note off ::  Channel 7.  Note 63.  Velocity 76
000000t:  Note off ::  Channel 7.  Note 58.  Velocity 67
000002t:  Note off ::  Channel 7.  Note 51.  Velocity 67
000001t:  Note off ::  Channel 7.  Note 67.  Velocity 64
000003t:  Control change ::  Channel 2.  Controller 64.  Value: 127
000001t:  Note on ::  Channel 7.  Note 58.  Velocity 80
000000t:  Note on ::  Channel 7.  Note 63.  Velocity 79
000001t:  Note on ::  Channel 9.  Note 40.  Velocity 122
000001t:  Note on ::  Channel 3.  Note 74.  Velocity 98
000000t:  Note on ::  Channel 7.  Note 67.  Velocity 84
000000t:  Note off ::  Channel 9.  Note 40.  Velocity 122
000002t:  Note off ::  Channel 3.  Note 75.  Velocity 98
000012t:  Note off ::  Channel 2.  Note 58.  Velocity 65
000004t:  Note off ::  Channel 2.  Note 55.  Velocity 59
000005t:  Note on ::  Channel 3.  Note 70.  Velocity 88
000000t:  Note on ::  Channel 9.  Note 51.  Velocity 127
000001t:  Note off ::  Channel 9.  Note 51.  Velocity 127
000003t:  Note off ::  Channel 1.  Note 27.  Velocity 72
000000t:  Note off ::  Channel 2.  Note 51.  Velocity 60
000007t:  Note off ::  Channel 3.  Note 74.  Velocity 98
000006t:  Note off ::  Channel 7.  Note 58.  Velocity 80
000001t:  Note off ::  Channel 7.  Note 63.  Velocity 79
000001t:  Note off ::  Channel 3.  Note 70.  Velocity 88
000001t:  Note off ::  Channel 7.  Note 67.  Velocity 84
000002t:  Note on ::  Channel 7.  Note 67.  Velocity 72
000001t:  Note on ::  Channel 7.  Note 63.  Velocity 71
000000t:  Note on ::  Channel 9.  Note 36.  Velocity 122
000001t:  Note on ::  Channel 1.  Note 27.  Velocity 64
000000t:  Note on ::  Channel 3.  Note 74.  Velocity 34
000000t:  Note on ::  Channel 3.  Note 70.  Velocity 78
000000t:  Note on ::  Channel 7.  Note 58.  Velocity 68
000000t:  Note off ::  Channel 9.  Note 36.  Velocity 122
000007t:  Note off ::  Channel 3.  Note 74.  Velocity 34
000001t:  Note off ::  Channel 1.  Note 27.  Velocity 64
000009t:  Note off ::  Channel 7.  Note 67.  Velocity 72
000001t:  Note off ::  Channel 7.  Note 63.  Velocity 71
000001t:  Note off ::  Channel 7.  Note 58.  Velocity 68
000001t:  Control change ::  Channel 2.  Controller 64.  Value: 0
000002t:  Note on ::  Channel 7.  Note 67.  Velocity 45
000001t:  Note on ::  Channel 2.  Note 51.  Velocity 55
000000t:  Note on ::  Channel 2.  Note 55.  Velocity 59
000000t:  Note on ::  Channel 2.  Note 58.  Velocity 68
000000t:  Note on ::  Channel 9.  Note 51.  Velocity 127
000000t:  Note on ::  Channel 9.  Note 40.  Velocity 127
000001t:  Note on ::  Channel 1.  Note 27.  Velocity 80
000000t:  Note on ::  Channel 7.  Note 63.  Velocity 54
000000t:  Note off ::  Channel 9.  Note 40.  Velocity 127
000000t:  Note off ::  Channel 9.  Note 51.  Velocity 127
000001t:  Note on ::  Channel 3.  Note 72.  Velocity 96
000000t:  Note on ::  Channel 5.  Note 72.  Velocity 73
000000t:  Note on ::  Channel 7.  Note 51.  Velocity 63
000000t:  Note on ::  Channel 7.  Note 58.  Velocity 69
000010t:  Note off ::  Channel 7.  Note 67.  Velocity 45
000001t:  Note off ::  Channel 3.  Note 70.  Velocity 78
000002t:  Note off ::  Channel 7.  Note 58.  Velocity 69
000000t:  Note off ::  Channel 7.  Note 63.  Velocity 54
000001t:  Control change ::  Channel 2.  Controller 64.  Value: 127
000008t:  Note on ::  Channel 7.  Note 58.  Velocity 52
000001t:  Note on ::  Channel 7.  Note 63.  Velocity 40
000001t:  Note on ::  Channel 7.  Note 67.  Velocity 47
000007t:  Note off ::  Channel 2.  Note 58.  Velocity 68
000000t:  Note off ::  Channel 2.  Note 55.  Velocity 59
000000t:  Note off ::  Channel 2.  Note 51.  Velocity 55
000007t:  Note off ::  Channel 7.  Note 63.  Velocity 40
000002t:  Note off ::  Channel 7.  Note 67.  Velocity 47
000000t:  Note off ::  Channel 7.  Note 58.  Velocity 52
000003t:  Note off ::  Channel 7.  Note 51.  Velocity 63
000001t:  Note off ::  Channel 1.  Note 27.  Velocity 80
000001t:  Note on ::  Channel 7.  Note 67.  Velocity 75
000000t:  Note on ::  Channel 9.  Note 51.  Velocity 127
000001t:  Note on ::  Channel 9.  Note 40.  Velocity 116
000000t:  Note off ::  Channel 9.  Note 51.  Velocity 127
000001t:  Note on ::  Channel 3.  Note 74.  Velocity 92
000000t:  Note on ::  Channel 7.  Note 63.  Velocity 78
000000t:  Note off ::  Channel 9.  Note 40.  Velocity 116
000001t:  Note on ::  Channel 1.  Note 39.  Velocity 60
000000t:  Note on ::  Channel 7.  Note 58.  Velocity 69
000001t:  Note off ::  Channel 3.  Note 72.  Velocity 96
000019t:  Note off ::  Channel 1.  Note 39.  Velocity 60
000004t:  Note on ::  Channel 1.  Note 41.  Velocity 46
000015t:  Note off ::  Channel 7.  Note 67.  Velocity 75
000001t:  Note off ::  Channel 7.  Note 63.  Velocity 78
000001t:  Note off ::  Channel 7.  Note 58.  Velocity 69
000001t:  Note on ::  Channel 5.  Note 74.  Velocity 91
000000t:  Note on ::  Channel 5.  Note 65.  Velocity 89
000002t:  Note off ::  Channel 5.  Note 63.  Velocity 85
000001t:  Control change ::  Channel 2.  Controller 64.  Value: 0
000000t:  Note on ::  Channel 9.  Note 36.  Velocity 127
000000t:  Note on ::  Channel 9.  Note 49.  Velocity 116
000001t:  Note on ::  Channel 2.  Note 50.  Velocity 48
000000t:  Note on ::  Channel 7.  Note 46.  Velocity 72
000000t:  Note off ::  Channel 9.  Note 49.  Velocity 116
000000t:  Note off ::  Channel 9.  Note 36.  Velocity 127
000001t:  Note on ::  Channel 2.  Note 46.  Velocity 51
000000t:  Note on ::  Channel 2.  Note 53.  Velocity 64
000000t:  Note on ::  Channel 3.  Note 70.  Velocity 88
000000t:  Note on ::  Channel 7.  Note 62.  Velocity 72
000001t:  Note on ::  Channel 1.  Note 34.  Velocity 80
000000t:  Note off ::  Channel 5.  Note 72.  Velocity 73
000000t:  Note on ::  Channel 7.  Note 65.  Velocity 61
000000t:  Note on ::  Channel 7.  Note 70.  Velocity 71
000001t:  Note off ::  Channel 5.  Note 67.  Velocity 78
000001t:  Note off ::  Channel 1.  Note 41.  Velocity 46
000009t:  Note off ::  Channel 3.  Note 74.  Velocity 92
000007t:  Control change ::  Channel 2.  Controller 64.  Value: 127
000001t:  Note off ::  Channel 7.  Note 70.  Velocity 71
000000t:  Note off ::  Channel 7.  Note 65.  Velocity 61
000000t:  Note off ::  Channel 7.  Note 62.  Velocity 72
000002t:  Note on ::  Channel 7.  Note 70.  Velocity 68
000001t:  Note on ::  Channel 7.  Note 65.  Velocity 52
000018t:  Note off ::  Channel 7.  Note 65.  Velocity 52
000002t:  Note off ::  Channel 7.  Note 70.  Velocity 68
000001t:  Note off ::  Channel 2.  Note 46.  Velocity 51
000001t:  Note on ::  Channel 7.  Note 62.  Velocity 49
000001t:  Note on ::  Channel 7.  Note 65.  Velocity 60
000000t:  Note on ::  Channel 9.  Note 51.  Velocity 100
000001t:  Note off ::  Channel 9.  Note 51.  Velocity 100
000001t:  Note off ::  Channel 2.  Note 53.  Velocity 64
000000t:  Note off ::  Channel 2.  Note 50.  Velocity 48
000000t:  Note on ::  Channel 3.  Note 65.  Velocity 84
000004t:  Note on ::  Channel 7.  Note 70.  Velocity 44
000003t:  Note off ::  Channel 3.  Note 70.  Velocity 88
000002t:  Note off ::  Channel 1.  Note 34.  Velocity 80
000005t:  Note off ::  Channel 7.  Note 62.  Velocity 49
000006t:  Note off ::  Channel 7.  Note 70.  Velocity 44
000000t:  Note off ::  Channel 7.  Note 46.  Velocity 72
000001t:  Note off ::  Channel 7.  Note 65.  Velocity 60
000000t:  Note on ::  Channel 7.  Note 70.  Velocity 68
000001t:  Note on ::  Channel 9.  Note 36.  Velocity 107
000001t:  Note off ::  Channel 9.  Note 36.  Velocity 107
000001t:  Note on ::  Channel 7.  Note 62.  Velocity 60
000000t:  Note on ::  Channel 7.  Note 65.  Velocity 67
000001t:  Note on ::  Channel 1.  Note 34.  Velocity 42
000004t:  Note off ::  Channel 1.  Note 34.  Velocity 42
000018t:  Note on ::  Channel 2.  Note 46.  Velocity 57
000000t:  Note on ::  Channel 2.  Note 50.  Velocity 46
000000t:  Note on ::  Channel 2.  Note 53.  Velocity 61
000000t:  Note on ::  Channel 9.  Note 40.  Velocity 127
000000t:  Note on ::  Channel 9.  Note 51.  Velocity 127
000001t:  Note on ::  Channel 3.  Note 70.  Velocity 80
000000t:  Note off ::  Channel 9.  Note 51.  Velocity 127
000000t:  Note off ::  Channel 9.  Note 40.  Velocity 127
000001t:  Note on ::  Channel 1.  Note 34.  Velocity 87
000000t:  Control change ::  Channel 2.  Controller 64.  Value: 0
000007t:  Note off ::  Channel 3.  Note 65.  Velocity 84
000010t:  Control change ::  Channel 2.  Controller 64.  Value: 127
000001t:  Note off ::  Channel 7.  Note 70.  Velocity 68
000002t:  Note off ::  Channel 7.  Note 65.  Velocity 67
000000t:  Note off ::  Channel 7.  Note 62.  Velocity 60
000002t:  Note on ::  Channel 7.  Note 70.  Velocity 56
000001t:  Note on ::  Channel 7.  Note 65.  Velocity 62
000001t:  Note on ::  Channel 7.  Note 62.  Velocity 54
000006t:  Note off ::  Channel 2.  Note 50.  Velocity 46
000005t:  Note off ::  Channel 2.  Note 53.  Velocity 61
000002t:  Note off ::  Channel 7.  Note 62.  Velocity 54
000006t:  Note off ::  Channel 7.  Note 65.  Velocity 62
000001t:  Note off ::  Channel 7.  Note 70.  Velocity 56
000000t:  Note on ::  Channel 7.  Note 62.  Velocity 51
000001t:  Note on ::  Channel 7.  Note 65.  Velocity 59
000001t:  Note on ::  Channel 7.  Note 70.  Velocity 52
000000t:  Note on ::  Channel 9.  Note 51.  Velocity 116
000001t:  Note on ::  Channel 3.  Note 72.  Velocity 87
000000t:  Note off ::  Channel 9.  Note 51.  Velocity 116
000001t:  Note off ::  Channel 2.  Note 46.  Velocity 57
000004t:  Note off ::  Channel 3.  Note 70.  Velocity 80
000009t:  Note off ::  Channel 7.  Note 65.  Velocity 59
000004t:  Note off ::  Channel 7.  Note 62.  Velocity 51
000003t:  Note off ::  Channel 7.  Note 70.  Velocity 52
000001t:  Note on ::  Channel 7.  Note 70.  Velocity 78
000000t:  Note on ::  Channel 9.  Note 36.  Velocity 72
000001t:  Note on ::  Channel 7.  Note 65.  Velocity 64
000000t:  Note off ::  Channel 9.  Note 36.  Velocity 72
000001t:  Note on ::  Channel 7.  Note 62.  Velocity 59
000008t:  Note off ::  Channel 1.  Note 34.  Velocity 87
000001t:  Note off ::  Channel 7.  Note 62.  Velocity 59
000005t:  Note off ::  Channel 7.  Note 70.  Velocity 78
000001t:  Note off ::  Channel 7.  Note 65.  Velocity 64
000004t:  Control change ::  Channel 2.  Controller 64.  Value: 0
000002t:  Note on ::  Channel 7.  Note 46.  Velocity 67
000002t:  Note on ::  Channel 2.  Note 50.  Velocity 65
000000t:  Note on ::  Channel 2.  Note 53.  Velocity 56
000000t:  Note on ::  Channel 2.  Note 58.  Velocity 59
000000t:  Note on ::  Channel 9.  Note 36.  Velocity 127
000000t:  Note on ::  Channel 9.  Note 51.  Velocity 122
000001t:  Note on ::  Channel 3.  Note 75.  Velocity 85
000000t:  Note on ::  Channel 7.  Note 62.  Velocity 67
000000t:  Note off ::  Channel 9.  Note 51.  Velocity 122
000000t:  Note off ::  Channel 9.  Note 36.  Velocity 127
000001t:  Note on ::  Channel 1.  Note 34.  Velocity 76
000000t:  Note on ::  Channel 7.  Note 65.  Velocity 76
000002t:  Note on ::  Channel 7.  Note 70.  Velocity 80
000007t:  Note off ::  Channel 3.  Note 72.  Velocity 87
000004t:  Control change ::  Channel 2.  Controller 64.  Value: 127
000011t:  Note off ::  Channel 3.  Note 75.  Velocity 85
000000t:  Note on ::  Channel 3.  Note 74.  Velocity 92
000008t:  Note off ::  Channel 7.  Note 62.  Velocity 67
000008t:  Note off ::  Channel 2.  Note 58.  Velocity 59
000000t:  Note off ::  Channel 2.  Note 53.  Velocity 56
000000t:  Note off ::  Channel 7.  Note 65.  Velocity 76
000004t:  Note off ::  Channel 7.  Note 70.  Velocity 80
000001t:  Note on ::  Channel 7.  Note 62.  Velocity 33
000001t:  Note on ::  Channel 9.  Note 51.  Velocity 116
000001t:  Note on ::  Channel 3.  Note 72.  Velocity 91
000000t:  Note on ::  Channel 7.  Note 65.  Velocity 64
000000t:  Note on ::  Channel 7.  Note 70.  Velocity 76
000000t:  Note off ::  Channel 9.  Note 51.  Velocity 116
000002t:  Note off ::  Channel 3.  Note 74.  Velocity 92
000005t:  Note off ::  Channel 1.  Note 34.  Velocity 76
000002t:  Note off ::  Channel 2.  Note 50.  Velocity 65
000010t:  Note off ::  Channel 7.  Note 46.  Velocity 67
000003t:  Note on ::  Channel 9.  Note 36.  Velocity 105
000001t:  Note off ::  Channel 9.  Note 36.  Velocity 105
000001t:  Note on ::  Channel 1.  Note 34.  Velocity 57
000000t:  Note on ::  Channel 3.  Note 70.  Velocity 87
000004t:  Note off ::  Channel 3.  Note 72.  Velocity 91
000002t:  Note off ::  Channel 1.  Note 34.  Velocity 57
000001t:  Note off ::  Channel 7.  Note 62.  Velocity 33
000007t:  Control change ::  Channel 2.  Controller 64.  Value: 0
000005t:  Note off ::  Channel 7.  Note 70.  Velocity 76
000000t:  Note off ::  Channel 7.  Note 65.  Velocity 64
000003t:  Note on ::  Channel 7.  Note 62.  Velocity 33
000001t:  Note on ::  Channel 2.  Note 50.  Velocity 55
000000t:  Note on ::  Channel 2.  Note 53.  Velocity 57
000000t:  Note on ::  Channel 2.  Note 58.  Velocity 68
000000t:  Note on ::  Channel 9.  Note 51.  Velocity 122
000000t:  Note on ::  Channel 9.  Note 40.  Velocity 122
000001t:  Note on ::  Channel 1.  Note 34.  Velocity 85
000000t:  Note on ::  Channel 3.  Note 72.  Velocity 96
000000t:  Note on ::  Channel 7.  Note 65.  Velocity 64
000000t:  Note on ::  Channel 7.  Note 70.  Velocity 76
000000t:  Note off ::  Channel 9.  Note 40.  Velocity 122
000000t:  Note off ::  Channel 9.  Note 51.  Velocity 122
000005t:  Control change ::  Channel 2.  Controller 64.  Value: 127
000001t:  Note off ::  Channel 3.  Note 70.  Velocity 87
000010t:  Note off ::  Channel 7.  Note 62.  Velocity 33
000003t:  Note off ::  Channel 7.  Note 70.  Velocity 76
000000t:  Note off ::  Channel 7.  Note 65.  Velocity 64
000004t:  Note on ::  Channel 7.  Note 70.  Velocity 92
000001t:  Note on ::  Channel 3.  Note 74.  Velocity 100
000000t:  Note on ::  Channel 7.  Note 65.  Velocity 81
000001t:  Note on ::  Channel 7.  Note 62.  Velocity 71
000007t:  Note off ::  Channel 3.  Note 72.  Velocity 96
000009t:  Note off ::  Channel 2.  Note 53.  Velocity 57
000001t:  Note off ::  Channel 2.  Note 58.  Velocity 68
000000t:  Note off ::  Channel 2.  Note 50.  Velocity 55
000006t:  Note on ::  Channel 1.  Note 26.  Velocity 95
000000t:  Note on ::  Channel 9.  Note 51.  Velocity 116
000001t:  Note off ::  Channel 9.  Note 51.  Velocity 116
000004t:  Note off ::  Channel 1.  Note 34.  Velocity 85
000010t:  Note off ::  Channel 7.  Note 62.  Velocity 71
000006t:  Note off ::  Channel 7.  Note 65.  Velocity 81
000000t:  Note off ::  Channel 7.  Note 70.  Velocity 92
000001t:  Note on ::  Channel 7.  Note 70.  Velocity 82
000001t:  Note on ::  Channel 7.  Note 65.  Velocity 71
000001t:  Note on ::  Channel 7.  Note 62.  Velocity 68
000000t:  Note on ::  Channel 9.  Note 36.  Velocity 80
000001t:  Note off ::  Channel 9.  Note 36.  Velocity 80
000003t:  Note off ::  Channel 5.  Note 70.  Velocity 102
000006t:  Note off ::  Channel 4.  Note 58.  Velocity 87
000001t:  Note off ::  Channel 5.  Note 65.  Velocity 89
000006t:  Note on ::  Channel 5.  Note 75.  Velocity 74
000000t:  Note off ::  Channel 7.  Note 62.  Velocity 68
000001t:  Note on ::  Channel 5.  Note 67.  Velocity 91
000001t:  Note off ::  Channel 3.  Note 74.  Velocity 100
000000t:  Note on ::  Channel 4.  Note 58.  Velocity 68
000001t:  Control change ::  Channel 2.  Controller 64.  Value: 0
000000t:  Note off ::  Channel 5.  Note 74.  Velocity 91
000000t:  Note off ::  Channel 7.  Note 70.  Velocity 82
000001t:  Note off ::  Channel 7.  Note 65.  Velocity 71
000000t:  Note on ::  Channel 7.  Note 51.  Velocity 67
000001t:  Note off ::  Channel 1.  Note 26.  Velocity 95
000001t:  Note on ::  Channel 2.  Note 51.  Velocity 55
000000t:  Note on ::  Channel 2.  Note 55.  Velocity 61
000000t:  Note on ::  Channel 2.  Note 58.  Velocity 62
000001t:  Note on ::  Channel 1.  Note 27.  Velocity 89
000000t:  Note on ::  Channel 3.  Note 70.  Velocity 92
000000t:  Note on ::  Channel 7.  Note 63.  Velocity 67
000000t:  Note on ::  Channel 9.  Note 36.  Velocity 125
000000t:  Note on ::  Channel 9.  Note 51.  Velocity 119
000001t:  Note on ::  Channel 7.  Note 67.  Velocity 76
000000t:  Note off ::  Channel 9.  Note 51.  Velocity 119
000000t:  Note off ::  Channel 9.  Note 36.  Velocity 125
000002t:  Note on ::  Channel 7.  Note 70.  Velocity 64
000010t:  Control change ::  Channel 2.  Controller 64.  Value: 127
000023t:  Note off ::  Channel 2.  Note 58.  Velocity 62
000003t:  Note off ::  Channel 2.  Note 55.  Velocity 61
000001t:  Note off ::  Channel 7.  Note 63.  Velocity 67
000001t:  Note off ::  Channel 7.  Note 67.  Velocity 76
000001t:  Note off ::  Channel 2.  Note 51.  Velocity 55
000003t:  Note off ::  Channel 7.  Note 70.  Velocity 64
000001t:  Note on ::  Channel 7.  Note 63.  Velocity 76
000002t:  Note on ::  Channel 3.  Note 82.  Velocity 103
000000t:  Note on ::  Channel 7.  Note 67.  Velocity 85
000000t:  Note on ::  Channel 7.  Note 70.  Velocity 82
000000t:  Note on ::  Channel 9.  Note 51.  Velocity 122
000001t:  Note off ::  Channel 9.  Note 51.  Velocity 122
000002t:  Note off ::  Channel 3.  Note 70.  Velocity 92
000037t:  Control change ::  Channel 2.  Controller 64.  Value: 0
000003t:  Note off ::  Channel 7.  Note 70.  Velocity 82
000000t:  Note off ::  Channel 7.  Note 67.  Velocity 85
000002t:  Note off ::  Channel 7.  Note 63.  Velocity 76
000001t:  Note off ::  Channel 1.  Note 27.  Velocity 89
000000t:  Note on ::  Channel 7.  Note 63.  Velocity 57
000001t:  Note on ::  Channel 1.  Note 39.  Velocity 80
000000t:  Note off ::  Channel 3.  Note 82.  Velocity 103
000001t:  Note on ::  Channel 3.  Note 70.  Velocity 81
000000t:  Note on ::  Channel 7.  Note 67.  Velocity 71
000000t:  Note on ::  Channel 7.  Note 70.  Velocity 73
000001t:  Note on ::  Channel 2.  Note 55.  Velocity 60
000000t:  Note on ::  Channel 2.  Note 58.  Velocity 59
000000t:  Note on ::  Channel 2.  Note 51.  Velocity 49
000000t:  Note on ::  Channel 9.  Note 51.  Velocity 122
000001t:  Note on ::  Channel 9.  Note 40.  Velocity 127
000000t:  Note off ::  Channel 9.  Note 51.  Velocity 122
000001t:  Note off ::  Channel 9.  Note 40.  Velocity 127
000008t:  Control change ::  Channel 2.  Controller 64.  Value: 127
000006t:  Note off ::  Channel 7.  Note 63.  Velocity 57
000001t:  Note off ::  Channel 7.  Note 70.  Velocity 73
000001t:  Note off ::  Channel 7.  Note 67.  Velocity 71
000004t:  Note on ::  Channel 7.  Note 63.  Velocity 84
000001t:  Note on ::  Channel 7.  Note 67.  Velocity 85
000001t:  Note on ::  Channel 3.  Note 72.  Velocity 52
000000t:  Note on ::  Channel 7.  Note 70.  Velocity 76
000004t:  Note off ::  Channel 3.  Note 70.  Velocity 81
000012t:  Note off ::  Channel 2.  Note 55.  Velocity 60
000003t:  Note off ::  Channel 2.  Note 58.  Velocity 59
000004t:  Note off ::  Channel 2.  Note 51.  Velocity 49
000002t:  Note on ::  Channel 9.  Note 51.  Velocity 116
000001t:  Note off ::  Channel 9.  Note 51.  Velocity 116
000002t:  Note off ::  Channel 7.  Note 51.  Velocity 67
000015t:  Note off ::  Channel 7.  Note 70.  Velocity 76
000000t:  Note off ::  Channel 7.  Note 67.  Velocity 85
000000t:  Note off ::  Channel 7.  Note 63.  Velocity 84
000002t:  Note on ::  Channel 7.  Note 70.  Velocity 63
000001t:  Note on ::  Channel 7.  Note 67.  Velocity 66
000001t:  Note on ::  Channel 3.  Note 70.  Velocity 83
000000t:  Note on ::  Channel 7.  Note 63.  Velocity 64
000001t:  Note off ::  Channel 3.  Note 72.  Velocity 52
000000t:  Note on ::  Channel 9.  Note 36.  Velocity 78
000001t:  Note off ::  Channel 9.  Note 36.  Velocity 78
000001t:  Control change ::  Channel 2.  Controller 64.  Value: 0
000008t:  Note on ::  Channel 5.  Note 65.  Velocity 78
000001t:  Note on ::  Channel 5.  Note 74.  Velocity 85
000004t:  Note off ::  Channel 5.  Note 67.  Velocity 91
000000t:  Note off ::  Channel 5.  Note 75.  Velocity 74
000003t:  Note off ::  Channel 7.  Note 70.  Velocity 63
000002t:  Note off ::  Channel 7.  Note 63.  Velocity 64
000000t:  Note off ::  Channel 7.  Note 67.  Velocity 66
000001t:  Note on ::  Channel 7.  Note 50.  Velocity 75
000000t:  Note on ::  Channel 7.  Note 58.  Velocity 68
000001t:  Note on ::  Channel 1.  Note 38.  Velocity 80
000001t:  Note on ::  Channel 2.  Note 53.  Velocity 48
000000t:  Note on ::  Channel 2.  Note 58.  Velocity 57
000000t:  Note on ::  Channel 7.  Note 65.  Velocity 79
000000t:  Note on ::  Channel 7.  Note 70.  Velocity 82
000001t:  Note off ::  Channel 1.  Note 39.  Velocity 80
000000t:  Note on ::  Channel 2.  Note 50.  Velocity 46
000000t:  Note on ::  Channel 9.  Note 51.  Velocity 122
000001t:  Control change ::  Channel 2.  Controller 64.  Value: 127
000000t:  Note on ::  Channel 9.  Note 36.  Velocity 127
000000t:  Note off ::  Channel 9.  Note 51.  Velocity 122
000001t:  Note off ::  Channel 9.  Note 36.  Velocity 127
000027t:  Note off ::  Channel 7.  Note 58.  Velocity 68
000010t:  Note off ::  Channel 2.  Note 53.  Velocity 48
000001t:  Note off ::  Channel 2.  Note 58.  Velocity 57
000002t:  Note off ::  Channel 7.  Note 70.  Velocity 82
000000t:  Note off ::  Channel 7.  Note 65.  Velocity 79
000004t:  Note on ::  Channel 7.  Note 58.  Velocity 61
000001t:  Note off ::  Channel 2.  Note 50.  Velocity 46
000000t:  Note on ::  Channel 7.  Note 65.  Velocity 74
000001t:  Note on ::  Channel 7.  Note 70.  Velocity 52
000000t:  Note on ::  Channel 9.  Note 51.  Velocity 122
000001t:  Note off ::  Channel 9.  Note 51.  Velocity 122
000009t:  Note off ::  Channel 7.  Note 50.  Velocity 75
000001t:  Note off ::  Channel 7.  Note 58.  Velocity 61
000006t:  Note off ::  Channel 7.  Note 70.  Velocity 52
000002t:  Note off ::  Channel 7.  Note 65.  Velocity 74
000002t:  Note on ::  Channel 7.  Note 50.  Velocity 75
000000t:  Note on ::  Channel 7.  Note 70.  Velocity 82
000001t:  Note on ::  Channel 7.  Note 65.  Velocity 74
000001t:  Note on ::  Channel 7.  Note 58.  Velocity 78
000000t:  Note on ::  Channel 9.  Note 36.  Velocity 88
000001t:  Note off ::  Channel 9.  Note 36.  Velocity 88
000005t:  Control change ::  Channel 2.  Controller 64.  Value: 0
000009t:  Note off ::  Channel 1.  Note 38.  Velocity 80
000007t:  Note off ::  Channel 7.  Note 58.  Velocity 78
000000t:  Note off ::  Channel 7.  Note 65.  Velocity 74
000000t:  Note off ::  Channel 7.  Note 70.  Velocity 82
000001t:  Note on ::  Channel 1.  Note 38.  Velocity 87
000001t:  Note on ::  Channel 2.  Note 53.  Velocity 54
000000t:  Note on ::  Channel 2.  Note 58.  Velocity 63
000001t:  Note on ::  Channel 2.  Note 50.  Velocity 55
000000t:  Note on ::  Channel 9.  Note 40.  Velocity 127
000000t:  Note on ::  Channel 9.  Note 51.  Velocity 127
000001t:  Note off ::  Channel 9.  Note 51.  Velocity 127
000000t:  Note off ::  Channel 9.  Note 40.  Velocity 127
000002t:  Control change ::  Channel 2.  Controller 64.  Value: 127
000017t:  Note on ::  Channel 7.  Note 70.  Velocity 94
000001t:  Note on ::  Channel 7.  Note 65.  Velocity 71
000001t:  Note on ::  Channel 7.  Note 58.  Velocity 60
000012t:  Note off ::  Channel 3.  Note 70.  Velocity 83
000003t:  Note off ::  Channel 2.  Note 50.  Velocity 55
000000t:  Note off ::  Channel 2.  Note 53.  Velocity 54
000003t:  Note off ::  Channel 2.  Note 58.  Velocity 63
000000t:  Note off ::  Channel 7.  Note 58.  Velocity 60
000000t:  Note off ::  Channel 7.  Note 65.  Velocity 71
000002t:  Note off ::  Channel 7.  Note 70.  Velocity 94
000003t:  Note on ::  Channel 7.  Note 58.  Velocity 33
000002t:  Note on ::  Channel 3.  Note 70.  Velocity 90
000000t:  Note on ::  Channel 7.  Note 65.  Velocity 64
000000t:  Note on ::  Channel 7.  Note 70.  Velocity 59
000001t:  Note on ::  Channel 9.  Note 51.  Velocity 119
000001t:  Note off ::  Channel 9.  Note 51.  Velocity 119
000009t:  Note off ::  Channel 7.  Note 50.  Velocity 75
000008t:  Note off ::  Channel 7.  Note 70.  Velocity 59
000000t:  Note off ::  Channel 7.  Note 65.  Velocity 64
000002t:  Note off ::  Channel 7.  Note 58.  Velocity 33
000002t:  Note on ::  Channel 7.  Note 70.  Velocity 70
000000t:  Note on ::  Channel 9.  Note 36.  Velocity 72
000001t:  Note off ::  Channel 3.  Note 70.  Velocity 90
000000t:  Note on ::  Channel 3.  Note 67.  Velocity 85
000000t:  Note on ::  Channel 7.  Note 65.  Velocity 69
000000t:  Note off ::  Channel 9.  Note 36.  Velocity 72
000001t:  Note on ::  Channel 7.  Note 58.  Velocity 59
000013t:  Note off ::  Channel 7.  Note 70.  Velocity 70
000003t:  Control change ::  Channel 2.  Controller 64.  Value: 0
000000t:  Note off ::  Channel 7.  Note 65.  Velocity 69
000003t:  Note on ::  Channel 4.  Note 60.  Velocity 89
000000t:  Note on ::  Channel 5.  Note 72.  Velocity 87
000000t:  Note off ::  Channel 7.  Note 58.  Velocity 59
000001t:  Note off ::  Channel 4.  Note 58.  Velocity 68
000000t:  Note on ::  Channel 5.  Note 64.  Velocity 59
000000t:  Note on ::  Channel 7.  Note 48.  Velocity 67
000002t:  Note off ::  Channel 1.  Note 38.  Velocity 87
000001t:  Note on ::  Channel 7.  Note 64.  Velocity 67
000001t:  Note on ::  Channel 1.  Note 36.  Velocity 87
000000t:  Note on ::  Channel 2.  Note 48.  Velocity 38
000000t:  Note on ::  Channel 2.  Note 58.  Velocity 60
000000t:  Note on ::  Channel 2.  Note 52.  Velocity 53
000000t:  Note on ::  Channel 3.  Note 74.  Velocity 105
000000t:  Note off ::  Channel 5.  Note 74.  Velocity 85
000000t:  Note on ::  Channel 7.  Note 67.  Velocity 76
000000t:  Note on ::  Channel 9.  Note 36.  Velocity 127
000000t:  Note on ::  Channel 9.  Note 49.  Velocity 127
000001t:  Note off ::  Channel 5.  Note 65.  Velocity 78
000000t:  Note off ::  Channel 9.  Note 49.  Velocity 127
000000t:  Note off ::  Channel 9.  Note 36.  Velocity 127
000001t:  Note on ::  Channel 7.  Note 70.  Velocity 80
000010t:  Note off ::  Channel 3.  Note 67.  Velocity 85
000002t:  Control change ::  Channel 2.  Controller 64.  Value: 127
000009t:  Note on ::  Channel 3.  Note 70.  Velocity 94
000005t:  Note off ::  Channel 2.  Note 52.  Velocity 53
000001t:  Note off ::  Channel 3.  Note 74.  Velocity 105
000011t:  Note off ::  Channel 7.  Note 67.  Velocity 76
000000t:  Note off ::  Channel 7.  Note 64.  Velocity 67
000003t:  Note off ::  Channel 2.  Note 58.  Velocity 60
000001t:  Note off ::  Channel 7.  Note 70.  Velocity 80
000001t:  Note on ::  Channel 7.  Note 64.  Velocity 58
000001t:  Note off ::  Channel 2.  Note 48.  Velocity 38
000001t:  Note on ::  Channel 7.  Note 67.  Velocity 64
000000t:  Note on ::  Channel 7.  Note 70.  Velocity 76
000001t:  Note on ::  Channel 3.  Note 72.  Velocity 97
000000t:  Note on ::  Channel 9.  Note 51.  Velocity 105
000001t:  Note off ::  Channel 9.  Note 51.  Velocity 105
000005t:  Note off ::  Channel 1.  Note 36.  Velocity 87
000004t:  Note off ::  Channel 3.  Note 70.  Velocity 94
000008t:  Note off ::  Channel 7.  Note 48.  Velocity 67
000005t:  Note on ::  Channel 1.  Note 36.  Velocity 49
000010t:  Control change ::  Channel 2.  Controller 64.  Value: 0
000001t:  Note off ::  Channel 1.  Note 36.  Velocity 49
000006t:  Note off ::  Channel 7.  Note 64.  Velocity 58
000002t:  Note off ::  Channel 7.  Note 70.  Velocity 76
000000t:  Note off ::  Channel 7.  Note 67.  Velocity 64
000002t:  Note on ::  Channel 7.  Note 48.  Velocity 48
000001t:  Note on ::  Channel 7.  Note 64.  Velocity 65
000002t:  Note on ::  Channel 1.  Note 36.  Velocity 91
000000t:  Note on ::  Channel 2.  Note 58.  Velocity 65
000000t:  Note on ::  Channel 2.  Note 52.  Velocity 53
000000t:  Note on ::  Channel 7.  Note 67.  Velocity 72
000000t:  Note on ::  Channel 7.  Note 70.  Velocity 69
000001t:  Note on ::  Channel 2.  Note 48.  Velocity 52
000000t:  Note on ::  Channel 9.  Note 40.  Velocity 127
000001t:  Note on ::  Channel 9.  Note 51.  Velocity 119
000000t:  Note off ::  Channel 9.  Note 40.  Velocity 127
000001t:  Control change ::  Channel 2.  Controller 64.  Value: 127
000000t:  Note off ::  Channel 9.  Note 51.  Velocity 119
000016t:  Note off ::  Channel 7.  Note 70.  Velocity 69
000000t:  Note off ::  Channel 7.  Note 67.  Velocity 72
000002t:  Note off ::  Channel 7.  Note 64.  Velocity 65
000002t:  Note on ::  Channel 7.  Note 70.  Velocity 58
000001t:  Note on ::  Channel 7.  Note 67.  Velocity 47
000001t:  Note off ::  Channel 3.  Note 72.  Velocity 97
000000t:  Note on ::  Channel 7.  Note 64.  Velocity 52
000001t:  Note on ::  Channel 3.  Note 74.  Velocity 90
000004t:  Note on ::  Channel 3.  Note 72.  Velocity 91
000009t:  Note off ::  Channel 2.  Note 52.  Velocity 53
000000t:  Note off ::  Channel 3.  Note 74.  Velocity 90
000001t:  Note off ::  Channel 7.  Note 70.  Velocity 58
000001t:  Note off ::  Channel 7.  Note 67.  Velocity 47
000002t:  Note off ::  Channel 7.  Note 64.  Velocity 52
000002t:  Note off ::  Channel 2.  Note 58.  Velocity 65
000001t:  Note on ::  Channel 7.  Note 64.  Velocity 56
000001t:  Note on ::  Channel 7.  Note 67.  Velocity 58
000001t:  Note on ::  Channel 7.  Note 70.  Velocity 70
000001t:  Note off ::  Channel 3.  Note 72.  Velocity 91
000000t:  Note on ::  Channel 3.  Note 70.  Velocity 58
000000t:  Note on ::  Channel 9.  Note 51.  Velocity 116
000001t:  Note off ::  Channel 2.  Note 48.  Velocity 52
000000t:  Note off ::  Channel 9.  Note 51.  Velocity 116
000017t:  Note off ::  Channel 7.  Note 48.  Velocity 48
000001t:  Note off ::  Channel 7.  Note 64.  Velocity 56
000001t:  Note off ::  Channel 7.  Note 67.  Velocity 58
000001t:  Note off ::  Channel 7.  Note 70.  Velocity 70
000000t:  Note on ::  Channel 7.  Note 70.  Velocity 80
000001t:  Note on ::  Channel 7.  Note 67.  Velocity 73
000001t:  Note on ::  Channel 7.  Note 64.  Velocity 86
000010t:  Note off ::  Channel 1.  Note 36.  Velocity 91
000007t:  Control change ::  Channel 2.  Controller 64.  Value: 0
000006t:  Note on ::  Channel 2.  Note 48.  Velocity 57
000001t:  Note on ::  Channel 1.  Note 36.  Velocity 87
000001t:  Note on ::  Channel 2.  Note 58.  Velocity 54
000000t:  Note on ::  Channel 2.  Note 52.  Velocity 53
000000t:  Note on ::  Channel 9.  Note 36.  Velocity 127
000001t:  Note on ::  Channel 9.  Note 51.  Velocity 119
000000t:  Note off ::  Channel 9.  Note 36.  Velocity 127
000001t:  Note off ::  Channel 9.  Note 51.  Velocity 119
000010t:  Control change ::  Channel 2.  Controller 64.  Value: 127
000008t:  Note off ::  Channel 7.  Note 67.  Velocity 73
000001t:  Note off ::  Channel 7.  Note 64.  Velocity 86
000001t:  Note off ::  Channel 7.  Note 70.  Velocity 80
000000t:  Note on ::  Channel 7.  Note 70.  Velocity 61
000001t:  Note on ::  Channel 7.  Note 67.  Velocity 48
000001t:  Note on ::  Channel 7.  Note 64.  Velocity 45
000010t:  Note off ::  Channel 2.  Note 52.  Velocity 53
000000t:  Note off ::  Channel 2.  Note 58.  Velocity 54
000002t:  Note off ::  Channel 2.  Note 48.  Velocity 57
000003t:  Note off ::  Channel 7.  Note 70.  Velocity 61
000001t:  Note off ::  Channel 7.  Note 67.  Velocity 48
000002t:  Note off ::  Channel 7.  Note 64.  Velocity 45
000003t:  Note on ::  Channel 7.  Note 64.  Velocity 82
000001t:  Note on ::  Channel 7.  Note 67.  Velocity 71
000001t:  Note on ::  Channel 7.  Note 70.  Velocity 68
000000t:  Note on ::  Channel 9.  Note 51.  Velocity 119
000001t:  Note off ::  Channel 9.  Note 51.  Velocity 119
000001t:  Note on ::  Channel 6.  Note 82.  Velocity 127
000000t:  Control change ::  Channel 6.  Controller 11.  Value: 11
000001t:  Note on ::  Channel 6.  Note 70.  Velocity 127
000001t:  Control change ::  Channel 6.  Controller 11.  Value: 12
000002t:  Control change ::  Channel 6.  Controller 11.  Value: 13
000002t:  Control change ::  Channel 6.  Controller 11.  Value: 14
000001t:  Control change ::  Channel 6.  Controller 11.  Value: 15
000002t:  Control change ::  Channel 6.  Controller 11.  Value: 16
000001t:  Note off ::  Channel 1.  Note 36.  Velocity 87
000001t:  Control change ::  Channel 6.  Controller 11.  Value: 17
000001t:  Control change ::  Channel 6.  Controller 11.  Value: 18
000002t:  Control change ::  Channel 6.  Controller 11.  Value: 19
000002t:  Control change ::  Channel 6.  Controller 11.  Value: 20
000002t:  Control change ::  Channel 6.  Controller 11.  Value: 21
000000t:  Note off ::  Channel 7.  Note 70.  Velocity 68
000001t:  Note off ::  Channel 7.  Note 67.  Velocity 71
000001t:  Pitch wheel change ::  Channel 6.   -8192
000000t:  Control change ::  Channel 6.  Controller 11.  Value: 22
000000t:  Note on ::  Channel 7.  Note 70.  Velocity 82
000001t:  Control change ::  Channel 6.  Controller 11.  Value: 23
000000t:  Pitch wheel change ::  Channel 6.   -8192
000000t:  Note on ::  Channel 7.  Note 67.  Velocity 82
000001t:  Note off ::  Channel 7.  Note 64.  Velocity 82
000000t:  Note on ::  Channel 7.  Note 64.  Velocity 84
000001t:  Note on ::  Channel 1.  Note 36.  Velocity 51
000000t:  Pitch wheel change ::  Channel 6.   -8192
000000t:  Note on ::  Channel 9.  Note 36.  Velocity 111
000001t:  Note off ::  Channel 9.  Note 36.  Velocity 111
000001t:  Control change ::  Channel 6.  Controller 11.  Value: 24
000002t:  Control change ::  Channel 6.  Controller 11.  Value: 25
000002t:  Pitch wheel change ::  Channel 6.   -8192
000000t:  Control change ::  Channel 6.  Controller 11.  Value: 26
000001t:  Pitch wheel change ::  Channel 6.   -8192
000000t:  Control change ::  Channel 6.  Controller 11.  Value: 27
000001t:  Note off ::  Channel 1.  Note 36.  Velocity 51
000000t:  Control change ::  Channel 6.  Controller 11.  Value: 28
000001t:  Pitch wheel change ::  Channel 6.   -8192
000000t:  Control change ::  Channel 6.  Controller 11.  Value: 29
000002t:  Control change ::  Channel 6.  Controller 11.  Value: 30
000000t:  Pitch wheel change ::  Channel 6.   -8192
000001t:  Note off ::  Channel 3.  Note 70.  Velocity 58
000000t:  Control change ::  Channel 6.  Controller 11.  Value: 31
000001t:  Control change ::  Channel 6.  Controller 11.  Value: 32
000001t:  Pitch wheel change ::  Channel 6.   -8192
000001t:  Control change ::  Channel 6.  Controller 11.  Value: 33
000001t:  Control change ::  Channel 6.  Controller 11.  Value: 34
000001t:  Control change ::  Channel 6.  Controller 11.  Value: 35
000001t:  Pitch wheel change ::  Channel 6.   -8192
000000t:  Control change ::  Channel 6.  Controller 11.  Value: 36
000001t:  Control change ::  Channel 6.  Controller 11.  Value: 37
000001t:  Control change ::  Channel 6.  Controller 11.  Value: 38
000001t:  Control change ::  Channel 6.  Controller 11.  Value: 39
000001t:  Control change ::  Channel 2.  Controller 64.  Value: 0
000000t:  Note on ::  Channel 2.  Note 58.  Velocity 64
000001t:  Note on ::  Channel 2.  Note 48.  Velocity 54
000000t:  Note on ::  Channel 2.  Note 52.  Velocity 44
000000t:  Control change ::  Channel 6.  Controller 11.  Value: 40
000001t:  Note on ::  Channel 1.  Note 36.  Velocity 91
000000t:  Control change ::  Channel 6.  Controller 11.  Value: 41
000000t:  Note on ::  Channel 9.  Note 40.  Velocity 119
000000t:  Note on ::  Channel 9.  Note 51.  Velocity 119
000001t:  Pitch wheel change ::  Channel 6.   -8192
000000t:  Note off ::  Channel 9.  Note 51.  Velocity 119
000000t:  Note off ::  Channel 9.  Note 40.  Velocity 119
000001t:  Control change ::  Channel 6.  Controller 11.  Value: 42
000000t:  Pitch wheel change ::  Channel 6.   -8192
000001t:  Control change ::  Channel 6.  Controller 11.  Value: 43
000002t:  Control change ::  Channel 6.  Controller 11.  Value: 44
000000t:  Pitch wheel change ::  Channel 6.   -8192
000002t:  Control change ::  Channel 6.  Controller 11.  Value: 45
000001t:  Control change ::  Channel 6.  Controller 11.  Value: 46
000001t:  Control change ::  Channel 6.  Controller 11.  Value: 47
000001t:  Pitch wheel change ::  Channel 6.   -8192
000000t:  Control change ::  Channel 6.  Controller 11.  Value: 48
000001t:  Control change ::  Channel 6.  Controller 11.  Value: 49
000001t:  Control change ::  Channel 6.  Controller 11.  Value: 50
000001t:  Control change ::  Channel 2.  Controller 64.  Value: 127
000000t:  Control change ::  Channel 6.  Controller 11.  Value: 51
000001t:  Control change ::  Channel 6.  Controller 11.  Value: 52
000001t:  Pitch wheel change ::  Channel 6.   -8192
000000t:  Control change ::  Channel 6.  Controller 11.  Value: 53
000001t:  Control change ::  Channel 6.  Controller 11.  Value: 54
000000t:  Note off ::  Channel 7.  Note 67.  Velocity 82
000000t:  Note off ::  Channel 7.  Note 70.  Velocity 82
000001t:  Control change ::  Channel 6.  Controller 11.  Value: 55
000001t:  Pitch wheel change ::  Channel 6.   -8192
000000t:  Note off ::  Channel 7.  Note 64.  Velocity 84
000001t:  Control change ::  Channel 6.  Controller 11.  Value: 56
000001t:  Control change ::  Channel 6.  Controller 11.  Value: 57
000000t:  Pitch wheel change ::  Channel 6.   -8192
000001t:  Control change ::  Channel 6.  Controller 11.  Value: 58
000001t:  Pitch wheel change ::  Channel 6.   -8192
000000t:  Note on ::  Channel 7.  Note 70.  Velocity 59
000001t:  Control change ::  Channel 6.  Controller 11.  Value: 59
000000t:  Note on ::  Channel 7.  Note 67.  Velocity 48
000001t:  Control change ::  Channel 6.  Controller 11.  Value: 60
000000t:  Pitch wheel change ::  Channel 6.   -8192
000000t:  Note on ::  Channel 7.  Note 64.  Velocity 45
000000t:  Note on ::  Channel 9.  Note 36.  Velocity 105
000001t:  Note off ::  Channel 9.  Note 36.  Velocity 105
000001t:  Control change ::  Channel 6.  Controller 11.  Value: 61
000001t:  Pitch wheel change ::  Channel 6.   -8192
000001t:  Control change ::  Channel 6.  Controller 11.  Value: 62
000002t:  Pitch wheel change ::  Channel 6.   -8192
000000t:  Control change ::  Channel 6.  Controller 11.  Value: 63
000002t:  Control change ::  Channel 6.  Controller 11.  Value: 64
000001t:  Note off ::  Channel 2.  Note 52.  Velocity 44
000001t:  Pitch wheel change ::  Channel 6.   -8192
000000t:  Control change ::  Channel 6.  Controller 11.  Value: 65
000000t:  Control change ::  Channel 6.  Controller 11.  Value: 66
000002t:  Note off ::  Channel 2.  Note 58.  Velocity 64
000000t:  Pitch wheel change ::  Channel 6.   -8192
000000t:  Control change ::  Channel 6.  Controller 11.  Value: 67
000001t:  Note off ::  Channel 2.  Note 48.  Velocity 54
000000t:  Pitch wheel change ::  Channel 6.   -8192
000001t:  Control change ::  Channel 6.  Controller 11.  Value: 68
000000t:  Pitch wheel change ::  Channel 6.   -8192
000001t:  Control change ::  Channel 6.  Controller 11.  Value: 69
000000t:  Note off ::  Channel 7.  Note 70.  Velocity 59
000001t:  Pitch wheel change ::  Channel 6.   -8192
000000t:  Control change ::  Channel 6.  Controller 11.  Value: 70
000000t:  Note off ::  Channel 7.  Note 67.  Velocity 48
000001t:  Pitch wheel change ::  Channel 6.   -8192
000000t:  Control change ::  Channel 6.  Controller 11.  Value: 71
000001t:  Control change ::  Channel 6.  Controller 11.  Value: 72
000000t:  Note off ::  Channel 7.  Note 64.  Velocity 45
000000t:  Note on ::  Channel 9.  Note 36.  Velocity 127
000001t:  Pitch wheel change ::  Channel 6.   -8192
000000t:  Control change ::  Channel 6.  Controller 11.  Value: 73
000000t:  Note off ::  Channel 9.  Note 36.  Velocity 127
000001t:  Pitch wheel change ::  Channel 6.   -8192
000001t:  Note off ::  Channel 1.  Note 36.  Velocity 91
000000t:  Control change ::  Channel 6.  Controller 11.  Value: 74
000000t:  Note on ::  Channel 7.  Note 64.  Velocity 82
000001t:  Pitch wheel change ::  Channel 6.   -8192
000000t:  Control change ::  Channel 6.  Controller 11.  Value: 75
000000t:  Note on ::  Channel 7.  Note 67.  Velocity 71
000001t:  Note on ::  Channel 1.  Note 24.  Velocity 89
000000t:  Control change ::  Channel 6.  Controller 11.  Value: 76
000000t:  Note on ::  Channel 7.  Note 70.  Velocity 68
000001t:  Control change ::  Channel 6.  Controller 11.  Value: 77
000000t:  Note on ::  Channel 9.  Note 51.  Velocity 127
000001t:  Control change ::  Channel 6.  Controller 11.  Value: 78
000000t:  Note on ::  Channel 9.  Note 40.  Velocity 127
000000t:  Note off ::  Channel 9.  Note 51.  Velocity 127
000001t:  Pitch wheel change ::  Channel 6.   -8192
000000t:  Control change ::  Channel 6.  Controller 11.  Value: 79
000000t:  Note off ::  Channel 9.  Note 40.  Velocity 127
000002t:  Control change ::  Channel 6.  Controller 11.  Value: 80
000000t:  Pitch wheel change ::  Channel 6.   -8192
000001t:  Control change ::  Channel 6.  Controller 11.  Value: 81
000001t:  Control change ::  Channel 6.  Controller 11.  Value: 82
000000t:  Pitch wheel change ::  Channel 6.   -8192
000001t:  Pitch wheel change ::  Channel 6.   -8192
000000t:  Control change ::  Channel 6.  Controller 11.  Value: 83
000001t:  Pitch wheel change ::  Channel 6.   -8192
000000t:  Control change ::  Channel 6.  Controller 11.  Value: 84
000001t:  Pitch wheel change ::  Channel 6.   -8192
000001t:  Control change ::  Channel 6.  Controller 11.  Value: 85
000000t:  Pitch wheel change ::  Channel 6.   -8192
000001t:  Control change ::  Channel 6.  Controller 11.  Value: 86
000001t:  Control change ::  Channel 6.  Controller 11.  Value: 87
000000t:  Pitch wheel change ::  Channel 6.   -8192
000001t:  Control change ::  Channel 6.  Controller 11.  Value: 88
000000t:  Note off ::  Channel 7.  Note 64.  Velocity 82
000001t:  Control change ::  Channel 6.  Controller 11.  Value: 89
000000t:  Pitch wheel change ::  Channel 6.   -8192
000002t:  Control change ::  Channel 6.  Controller 11.  Value: 90
000000t:  Pitch wheel change ::  Channel 6.   -8192
000001t:  Control change ::  Channel 6.  Controller 11.  Value: 91
000001t:  Control change ::  Channel 6.  Controller 11.  Value: 92
000000t:  Pitch wheel change ::  Channel 6.   -8192
000001t:  Pitch wheel change ::  Channel 6.   -8192
000000t:  Note off ::  Channel 7.  Note 70.  Velocity 68
000001t:  Pitch wheel change ::  Channel 6.   -8192
000000t:  Control change ::  Channel 6.  Controller 11.  Value: 93
000000t:  Note off ::  Channel 7.  Note 67.  Velocity 71
000001t:  Pitch wheel change ::  Channel 6.   -8192
000000t:  Note on ::  Channel 7.  Note 70.  Velocity 82
000001t:  Pitch wheel change ::  Channel 6.   -8192
000000t:  Control change ::  Channel 6.  Controller 11.  Value: 94
000000t:  Note on ::  Channel 7.  Note 67.  Velocity 71
000001t:  Note on ::  Channel 1.  Note 26.  Velocity 87
000000t:  Pitch wheel change ::  Channel 6.   -8192
000000t:  Control change ::  Channel 6.  Controller 11.  Value: 95
000000t:  Note on ::  Channel 7.  Note 64.  Velocity 68
000001t:  Pitch wheel change ::  Channel 6.   -8192
000001t:  Control change ::  Channel 6.  Controller 11.  Value: 96
000001t:  Pitch wheel change ::  Channel 6.   -8192
000001t:  Note off ::  Channel 1.  Note 24.  Velocity 89
000000t:  Control change ::  Channel 6.  Controller 11.  Value: 97
000000t:  Pitch wheel change ::  Channel 6.   -8192
000001t:  Control change ::  Channel 6.  Controller 11.  Value: 98
000001t:  Control change ::  Channel 6.  Controller 11.  Value: 99
000000t:  Pitch wheel change ::  Channel 6.   -8192
000001t:  Control change ::  Channel 6.  Controller 11.  Value: 100
000001t:  Pitch wheel change ::  Channel 6.   -8192
000001t:  Control change ::  Channel 6.  Controller 11.  Value: 101
000000t:  Pitch wheel change ::  Channel 6.   -8192
000001t:  Control change ::  Channel 6.  Controller 11.  Value: 102
000000t:  Pitch wheel change ::  Channel 6.   -8192
000001t:  Control change ::  Channel 6.  Controller 11.  Value: 103
000001t:  Pitch wheel change ::  Channel 6.   -8192
000001t:  Control change ::  Channel 6.  Controller 11.  Value: 104
000001t:  Pitch wheel change ::  Channel 6.   -8192
000000t:  Control change ::  Channel 6.  Controller 11.  Value: 105
000001t:  Control change ::  Channel 6.  Controller 11.  Value: 106
000001t:  Pitch wheel change ::  Channel 6.   -8192
000000t:  Control change ::  Channel 6.  Controller 11.  Value: 107
000001t:  Note off ::  Channel 4.  Note 60.  Velocity 89
000000t:  Note off ::  Channel 7.  Note 70.  Velocity 82
000001t:  Control change ::  Channel 6.  Controller 11.  Value: 108
000000t:  Pitch wheel change ::  Channel 6.   -8192
000001t:  Note on ::  Channel 5.  Note 67.  Velocity 76
000000t:  Note on ::  Channel 5.  Note 75.  Velocity 70
000000t:  Control change ::  Channel 6.  Controller 11.  Value: 109
000000t:  Pitch wheel change ::  Channel 6.   -8192
000001t:  Note off ::  Channel 5.  Note 64.  Velocity 59
000000t:  Control change ::  Channel 6.  Controller 11.  Value: 110
000000t:  Note off ::  Channel 7.  Note 64.  Velocity 68
000001t:  Note on ::  Channel 4.  Note 58.  Velocity 72
000000t:  Pitch wheel change ::  Channel 6.   -8192
000000t:  Note off ::  Channel 7.  Note 67.  Velocity 71
000001t:  Control change ::  Channel 6.  Controller 11.  Value: 111
000000t:  Pitch wheel change ::  Channel 6.   -8192
000000t:  Note on ::  Channel 7.  Note 51.  Velocity 80
000001t:  Pitch wheel change ::  Channel 6.   -8192
000000t:  Note on ::  Channel 7.  Note 63.  Velocity 75
000000t:  Note on ::  Channel 7.  Note 67.  Velocity 87
000001t:  Note on ::  Channel 1.  Note 27.  Velocity 107
000000t:  Note on ::  Channel 2.  Note 51.  Velocity 59
000000t:  Note on ::  Channel 2.  Note 58.  Velocity 65
000000t:  Note on ::  Channel 3.  Note 75.  Velocity 83
000000t:  Note off ::  Channel 5.  Note 72.  Velocity 87
000000t:  Control change ::  Channel 6.  Controller 11.  Value: 112
000001t:  Note off ::  Channel 1.  Note 26.  Velocity 87
000000t:  Note on ::  Channel 2.  Note 55.  Velocity 73
000000t:  Pitch wheel change ::  Channel 6.   -8192
000000t:  Control change ::  Channel 6.  Controller 11.  Value: 113
000000t:  Pitch wheel change ::  Channel 6.   -8192
000000t:  Note on ::  Channel 7.  Note 70.  Velocity 76
000000t:  Note on ::  Channel 9.  Note 36.  Velocity 127
000000t:  Note on ::  Channel 9.  Note 51.  Velocity 127
000001t:  Control change ::  Channel 6.  Controller 11.  Value: 114
000000t:  Note off ::  Channel 9.  Note 51.  Velocity 127
000000t:  Note off ::  Channel 9.  Note 36.  Velocity 127
000001t:  Control change ::  Channel 6.  Controller 11.  Value: 115
000001t:  Control change ::  Channel 2.  Controller 64.  Value: 0
000000t:  Control change ::  Channel 6.  Controller 11.  Value: 116
000001t:  Control change ::  Channel 6.  Controller 11.  Value: 117
000002t:  Control change ::  Channel 6.  Controller 11.  Value: 118
000001t:  Control change ::  Channel 6.  Controller 11.  Value: 119
000001t:  Control change ::  Channel 6.  Controller 11.  Value: 120
000002t:  Control change ::  Channel 6.  Controller 11.  Value: 121
000001t:  Control change ::  Channel 6.  Controller 11.  Value: 122
000002t:  Control change ::  Channel 6.  Controller 11.  Value: 123
000001t:  Control change ::  Channel 6.  Controller 11.  Value: 124
000002t:  Control change ::  Channel 6.  Controller 11.  Value: 125
000001t:  Note off ::  Channel 7.  Note 70.  Velocity 76
000002t:  Control change ::  Channel 6.  Controller 11.  Value: 126
000002t:  Control change ::  Channel 6.  Controller 11.  Value: 127
000002t:  Note off ::  Channel 3.  Note 75.  Velocity 83
000000t:  Note on ::  Channel 3.  Note 74.  Velocity 96
000001t:  Control change ::  Channel 2.  Controller 64.  Value: 127
000010t:  Note off ::  Channel 7.  Note 51.  Velocity 80
000003t:  Note off ::  Channel 2.  Note 55.  Velocity 73
000000t:  Note off ::  Channel 2.  Note 58.  Velocity 65
000001t:  Note off ::  Channel 7.  Note 67.  Velocity 87
000000t:  Note off ::  Channel 7.  Note 63.  Velocity 75
000004t:  Note off ::  Channel 2.  Note 51.  Velocity 59
000004t:  Note on ::  Channel 7.  Note 63.  Velocity 59
000000t:  Note on ::  Channel 7.  Note 67.  Velocity 74
000002t:  Note on ::  Channel 3.  Note 75.  Velocity 84
000000t:  Note on ::  Channel 7.  Note 70.  Velocity 52
000000t:  Note on ::  Channel 9.  Note 51.  Velocity 113
000001t:  Note off ::  Channel 9.  Note 51.  Velocity 113
000008t:  Note off ::  Channel 1.  Note 27.  Velocity 107
000000t:  Note off ::  Channel 3.  Note 74.  Velocity 96
000008t:  Note off ::  Channel 7.  Note 70.  Velocity 52
000001t:  Note off ::  Channel 7.  Note 67.  Velocity 74
000001t:  Note off ::  Channel 7.  Note 63.  Velocity 59
000002t:  Note on ::  Channel 7.  Note 70.  Velocity 72
000001t:  Note on ::  Channel 7.  Note 67.  Velocity 71
000001t:  Note on ::  Channel 7.  Note 63.  Velocity 68
000001t:  Note on ::  Channel 1.  Note 27.  Velocity 54
000000t:  Note on ::  Channel 9.  Note 36.  Velocity 105
000001t:  Note off ::  Channel 9.  Note 36.  Velocity 105
000006t:  Note off ::  Channel 1.  Note 27.  Velocity 54
000016t:  Note on ::  Channel 2.  Note 51.  Velocity 54
000000t:  Note on ::  Channel 2.  Note 58.  Velocity 58
000001t:  Note on ::  Channel 1.  Note 27.  Velocity 105
000000t:  Note on ::  Channel 2.  Note 55.  Velocity 60
000000t:  Note on ::  Channel 9.  Note 40.  Velocity 127
000001t:  Note on ::  Channel 9.  Note 51.  Velocity 127
000000t:  Note off ::  Channel 9.  Note 40.  Velocity 127
000001t:  Note off ::  Channel 9.  Note 51.  Velocity 127
000008t:  Control change ::  Channel 2.  Controller 64.  Value: 0
000006t:  Note off ::  Channel 7.  Note 70.  Velocity 72
000001t:  Note off ::  Channel 7.  Note 67.  Velocity 71
000002t:  Note off ::  Channel 7.  Note 63.  Velocity 68
000001t:  Note on ::  Channel 7.  Note 70.  Velocity 81
000001t:  Note on ::  Channel 7.  Note 67.  Velocity 71
000001t:  Note on ::  Channel 7.  Note 63.  Velocity 60
000003t:  Control change ::  Channel 2.  Controller 64.  Value: 127
000015t:  Note off ::  Channel 7.  Note 63.  Velocity 60
000000t:  Note off ::  Channel 7.  Note 67.  Velocity 71
000001t:  Note off ::  Channel 2.  Note 55.  Velocity 60
000001t:  Note off ::  Channel 7.  Note 70.  Velocity 81
000003t:  Note on ::  Channel 7.  Note 63.  Velocity 33
000002t:  Note off ::  Channel 2.  Note 58.  Velocity 58
000000t:  Note off ::  Channel 2.  Note 51.  Velocity 54
000000t:  Note on ::  Channel 7.  Note 67.  Velocity 64
000000t:  Note on ::  Channel 7.  Note 70.  Velocity 59
000002t:  Note on ::  Channel 9.  Note 51.  Velocity 116
000001t:  Note off ::  Channel 9.  Note 51.  Velocity 116
000011t:  Control change ::  Channel 6.  Controller 11.  Value: 126
000002t:  Control change ::  Channel 6.  Controller 11.  Value: 125
000003t:  Note off ::  Channel 7.  Note 70.  Velocity 59
000000t:  Note off ::  Channel 7.  Note 67.  Velocity 64
000001t:  Control change ::  Channel 6.  Controller 11.  Value: 124
000001t:  Note off ::  Channel 7.  Note 63.  Velocity 33
000001t:  Control change ::  Channel 6.  Controller 11.  Value: 123
000001t:  Note on ::  Channel 7.  Note 70.  Velocity 70
000001t:  Note on ::  Channel 7.  Note 67.  Velocity 69
000000t:  Note on ::  Channel 9.  Note 36.  Velocity 83
000001t:  Note on ::  Channel 7.  Note 63.  Velocity 59
000000t:  Note off ::  Channel 9.  Note 36.  Velocity 83
000001t:  Control change ::  Channel 6.  Controller 11.  Value: 122
000002t:  Control change ::  Channel 6.  Controller 11.  Value: 121
000002t:  Control change ::  Channel 6.  Controller 11.  Value: 120
000003t:  Control change ::  Channel 6.  Controller 11.  Value: 119
000001t:  Note off ::  Channel 1.  Note 27.  Velocity 105
000001t:  Control change ::  Channel 6.  Controller 11.  Value: 118
000001t:  Note off ::  Channel 3.  Note 75.  Velocity 84
000002t:  Control change ::  Channel 6.  Controller 11.  Value: 117
000003t:  Control change ::  Channel 6.  Controller 11.  Value: 116
000002t:  Control change ::  Channel 6.  Controller 11.  Value: 115
000001t:  Note off ::  Channel 7.  Note 63.  Velocity 59
000001t:  Control change ::  Channel 6.  Controller 11.  Value: 114
000000t:  Note off ::  Channel 7.  Note 67.  Velocity 69
000000t:  Note off ::  Channel 7.  Note 70.  Velocity 70
000002t:  Control change ::  Channel 6.  Controller 11.  Value: 113
000000t:  Note on ::  Channel 7.  Note 51.  Velocity 67
000000t:  Note on ::  Channel 7.  Note 63.  Velocity 67
000001t:  Note on ::  Channel 2.  Note 58.  Velocity 60
000000t:  Note on ::  Channel 3.  Note 75.  Velocity 97
000000t:  Note on ::  Channel 7.  Note 67.  Velocity 76
000001t:  Note on ::  Channel 1.  Note 27.  Velocity 57
000000t:  Note on ::  Channel 2.  Note 55.  Velocity 46
000000t:  Note on ::  Channel 2.  Note 51.  Velocity 50
000000t:  Note on ::  Channel 7.  Note 70.  Velocity 64
000000t:  Note on ::  Channel 9.  Note 36.  Velocity 127
000000t:  Note on ::  Channel 9.  Note 51.  Velocity 127
000001t:  Control change ::  Channel 6.  Controller 11.  Value: 112
000000t:  Note off ::  Channel 9.  Note 51.  Velocity 127
000000t:  Note off ::  Channel 9.  Note 36.  Velocity 127
000002t:  Control change ::  Channel 6.  Controller 11.  Value: 111
000002t:  Control change ::  Channel 6.  Controller 11.  Value: 110
000002t:  Control change ::  Channel 6.  Controller 11.  Value: 109
000001t:  Control change ::  Channel 2.  Controller 64.  Value: 0
000000t:  Control change ::  Channel 6.  Controller 11.  Value: 108
000002t:  Control change ::  Channel 6.  Controller 11.  Value: 107
000001t:  Control change ::  Channel 6.  Controller 11.  Value: 106
000001t:  Control change ::  Channel 6.  Controller 11.  Value: 105
000002t:  Control change ::  Channel 6.  Controller 11.  Value: 104
000001t:  Control change ::  Channel 6.  Controller 11.  Value: 103
000002t:  Control change ::  Channel 6.  Controller 11.  Value: 102
000000t:  Note off ::  Channel 7.  Note 51.  Velocity 67
000001t:  Control change ::  Channel 6.  Controller 11.  Value: 101
000002t:  Control change ::  Channel 6.  Controller 11.  Value: 100
000001t:  Control change ::  Channel 6.  Controller 11.  Value: 99
000002t:  Control change ::  Channel 6.  Controller 11.  Value: 98
000001t:  Note on ::  Channel 3.  Note 74.  Velocity 93
000000t:  Control change ::  Channel 6.  Controller 11.  Value: 97
000001t:  Control change ::  Channel 6.  Controller 11.  Value: 96
000002t:  Control change ::  Channel 6.  Controller 11.  Value: 95
000001t:  Control change ::  Channel 2.  Controller 64.  Value: 127
000000t:  Control change ::  Channel 6.  Controller 11.  Value: 94
000002t:  Note off ::  Channel 3.  Note 75.  Velocity 97
000000t:  Control change ::  Channel 6.  Controller 11.  Value: 93
000002t:  Control change ::  Channel 6.  Controller 11.  Value: 92
000001t:  Control change ::  Channel 6.  Controller 11.  Value: 91
000001t:  Control change ::  Channel 6.  Controller 11.  Value: 90
000001t:  Control change ::  Channel 6.  Controller 11.  Value: 89
000002t:  Control change ::  Channel 6.  Controller 11.  Value: 88
000001t:  Control change ::  Channel 6.  Controller 11.  Value: 87
000001t:  Control change ::  Channel 6.  Controller 11.  Value: 86
000000t:  Note off ::  Channel 7.  Note 67.  Velocity 76
000000t:  Note off ::  Channel 7.  Note 63.  Velocity 67
000002t:  Control change ::  Channel 6.  Controller 11.  Value: 85
000001t:  Note off ::  Channel 2.  Note 55.  Velocity 46
000000t:  Control change ::  Channel 6.  Controller 11.  Value: 84
000000t:  Note off ::  Channel 7.  Note 70.  Velocity 64
000002t:  Note off ::  Channel 2.  Note 58.  Velocity 60
000000t:  Control change ::  Channel 6.  Controller 11.  Value: 83
000001t:  Note on ::  Channel 7.  Note 63.  Velocity 33
000001t:  Control change ::  Channel 6.  Controller 11.  Value: 82
000001t:  Control change ::  Channel 6.  Controller 11.  Value: 81
000000t:  Note on ::  Channel 7.  Note 67.  Velocity 64
000000t:  Note on ::  Channel 7.  Note 70.  Velocity 59
000000t:  Note on ::  Channel 9.  Note 51.  Velocity 119
000001t:  Note off ::  Channel 1.  Note 27.  Velocity 57
000000t:  Note off ::  Channel 2.  Note 51.  Velocity 50
000000t:  Note on ::  Channel 3.  Note 75.  Velocity 87
000000t:  Control change ::  Channel 6.  Controller 11.  Value: 80
000000t:  Note off ::  Channel 9.  Note 51.  Velocity 119
000002t:  Control change ::  Channel 6.  Controller 11.  Value: 79
000001t:  Control change ::  Channel 6.  Controller 11.  Value: 78
000002t:  Note off ::  Channel 3.  Note 74.  Velocity 93
000000t:  Control change ::  Channel 6.  Controller 11.  Value: 77
000002t:  Control change ::  Channel 6.  Controller 11.  Value: 76
000002t:  Control change ::  Channel 6.  Controller 11.  Value: 75
000002t:  Control change ::  Channel 6.  Controller 11.  Value: 74
000002t:  Control change ::  Channel 6.  Controller 11.  Value: 73
000002t:  Control change ::  Channel 6.  Controller 11.  Value: 72
000001t:  Control change ::  Channel 6.  Controller 11.  Value: 71
000001t:  Control change ::  Channel 6.  Controller 11.  Value: 70
000001t:  Note off ::  Channel 7.  Note 70.  Velocity 59
000000t:  Note off ::  Channel 7.  Note 67.  Velocity 64
000001t:  Control change ::  Channel 6.  Controller 11.  Value: 69
000001t:  Note off ::  Channel 7.  Note 63.  Velocity 33
000001t:  Control change ::  Channel 6.  Controller 11.  Value: 68
000000t:  Note on ::  Channel 7.  Note 70.  Velocity 72
000001t:  Note on ::  Channel 7.  Note 67.  Velocity 71
000001t:  Note on ::  Channel 1.  Note 27.  Velocity 55
000000t:  Control change ::  Channel 6.  Controller 11.  Value: 67
000000t:  Note on ::  Channel 7.  Note 63.  Velocity 68
000001t:  Note on ::  Channel 3.  Note 74.  Velocity 93
000000t:  Note on ::  Channel 9.  Note 36.  Velocity 90
000001t:  Control change ::  Channel 6.  Controller 11.  Value: 66
000000t:  Note off ::  Channel 9.  Note 36.  Velocity 90
000001t:  Control change ::  Channel 6.  Controller 11.  Value: 65
000002t:  Control change ::  Channel 6.  Controller 11.  Value: 64
000001t:  Note off ::  Channel 1.  Note 27.  Velocity 55
000000t:  Note off ::  Channel 3.  Note 75.  Velocity 87
000001t:  Control change ::  Channel 6.  Controller 11.  Value: 63
000002t:  Control change ::  Channel 6.  Controller 11.  Value: 62
000002t:  Control change ::  Channel 6.  Controller 11.  Value: 61
000002t:  Control change ::  Channel 6.  Controller 11.  Value: 60
000001t:  Control change ::  Channel 6.  Controller 11.  Value: 59
000002t:  Control change ::  Channel 6.  Controller 11.  Value: 58
000001t:  Control change ::  Channel 6.  Controller 11.  Value: 57
000000t:  Note off ::  Channel 7.  Note 70.  Velocity 72
000001t:  Note off ::  Channel 7.  Note 67.  Velocity 71
000001t:  Control change ::  Channel 6.  Controller 11.  Value: 56
000000t:  Note off ::  Channel 7.  Note 63.  Velocity 68
000002t:  Control change ::  Channel 6.  Controller 11.  Value: 55
000002t:  Control change ::  Channel 6.  Controller 11.  Value: 54
000000t:  Note on ::  Channel 7.  Note 51.  Velocity 63
000001t:  Note on ::  Channel 2.  Note 51.  Velocity 47
000000t:  Note on ::  Channel 2.  Note 55.  Velocity 49
000000t:  Note on ::  Channel 2.  Note 58.  Velocity 60
000001t:  Note on ::  Channel 1.  Note 27.  Velocity 102
000000t:  Control change ::  Channel 6.  Controller 11.  Value: 53
000000t:  Note on ::  Channel 7.  Note 63.  Velocity 69
000000t:  Note on ::  Channel 9.  Note 40.  Velocity 127
000000t:  Note on ::  Channel 9.  Note 51.  Velocity 119
000001t:  Note on ::  Channel 3.  Note 75.  Velocity 94
000000t:  Control change ::  Channel 6.  Controller 11.  Value: 52
000000t:  Note on ::  Channel 7.  Note 67.  Velocity 54
000000t:  Note off ::  Channel 9.  Note 51.  Velocity 119
000000t:  Note off ::  Channel 9.  Note 40.  Velocity 127
000001t:  Control change ::  Channel 6.  Controller 11.  Value: 51
000001t:  Note on ::  Channel 7.  Note 70.  Velocity 45
000001t:  Control change ::  Channel 6.  Controller 11.  Value: 50
000001t:  Control change ::  Channel 6.  Controller 11.  Value: 49
000001t:  Control change ::  Channel 2.  Controller 64.  Value: 0
000000t:  Control change ::  Channel 6.  Controller 11.  Value: 48
000002t:  Note off ::  Channel 3.  Note 74.  Velocity 93
000000t:  Control change ::  Channel 6.  Controller 11.  Value: 47
000001t:  Control change ::  Channel 6.  Controller 11.  Value: 46
000002t:  Control change ::  Channel 6.  Controller 11.  Value: 45
000002t:  Control change ::  Channel 6.  Controller 11.  Value: 44
000000t:  Note off ::  Channel 7.  Note 63.  Velocity 69
000001t:  Control change ::  Channel 6.  Controller 11.  Value: 43
000001t:  Control change ::  Channel 6.  Controller 11.  Value: 42
000000t:  Note off ::  Channel 7.  Note 70.  Velocity 45
000000t:  Note off ::  Channel 7.  Note 67.  Velocity 54
000001t:  Control change ::  Channel 6.  Controller 11.  Value: 41
000001t:  Control change ::  Channel 6.  Controller 11.  Value: 40
000001t:  Control change ::  Channel 6.  Controller 11.  Value: 39
000001t:  Control change ::  Channel 6.  Controller 11.  Value: 38
000001t:  Control change ::  Channel 6.  Controller 11.  Value: 37
000001t:  Control change ::  Channel 6.  Controller 11.  Value: 36
000001t:  Control change ::  Channel 6.  Controller 11.  Value: 35
000000t:  Note on ::  Channel 7.  Note 70.  Velocity 84
000001t:  Note on ::  Channel 1.  Note 34.  Velocity 62
000000t:  Control change ::  Channel 6.  Controller 11.  Value: 34
000000t:  Note on ::  Channel 7.  Note 67.  Velocity 74
000001t:  Control change ::  Channel 6.  Controller 11.  Value: 33
000000t:  Note on ::  Channel 7.  Note 63.  Velocity 70
000001t:  Note off ::  Channel 1.  Note 27.  Velocity 102
000000t:  Note on ::  Channel 3.  Note 74.  Velocity 97
000000t:  Control change ::  Channel 6.  Controller 11.  Value: 32
000001t:  Control change ::  Channel 6.  Controller 11.  Value: 31
000001t:  Control change ::  Channel 2.  Controller 64.  Value: 127
000000t:  Control change ::  Channel 6.  Controller 11.  Value: 30
000002t:  Control change ::  Channel 6.  Controller 11.  Value: 29
000000t:  Control change ::  Channel 6.  Controller 11.  Value: 28
000001t:  Note off ::  Channel 3.  Note 75.  Velocity 94
000000t:  Control change ::  Channel 6.  Controller 11.  Value: 26
000001t:  Control change ::  Channel 6.  Controller 11.  Value: 25
000001t:  Control change ::  Channel 6.  Controller 11.  Value: 24
000001t:  Control change ::  Channel 6.  Controller 11.  Value: 23
000000t:  Control change ::  Channel 6.  Controller 11.  Value: 17
000000t:  Control change ::  Channel 6.  Controller 11.  Value: 18
000000t:  Control change ::  Channel 6.  Controller 11.  Value: 19
000000t:  Control change ::  Channel 6.  Controller 11.  Value: 20
000000t:  Control change ::  Channel 6.  Controller 11.  Value: 21
000000t:  Control change ::  Channel 6.  Controller 11.  Value: 22
000001t:  Note off ::  Channel 1.  Note 34.  Velocity 62
000002t:  Note off ::  Channel 2.  Note 58.  Velocity 60
000000t:  Note off ::  Channel 2.  Note 55.  Velocity 49
000000t:  Control change ::  Channel 6.  Controller 11.  Value: 16
000001t:  Control change ::  Channel 6.  Controller 11.  Value: 15
000000t:  Control change ::  Channel 6.  Controller 11.  Value: 14
000001t:  Control change ::  Channel 6.  Controller 11.  Value: 13
000001t:  Note off ::  Channel 2.  Note 51.  Velocity 47
000000t:  Control change ::  Channel 6.  Controller 11.  Value: 11
000000t:  Control change ::  Channel 6.  Controller 11.  Value: 10
000001t:  Control change ::  Channel 6.  Controller 11.  Value: 8
000000t:  Control change ::  Channel 6.  Controller 11.  Value: 7
000001t:  Control change ::  Channel 6.  Controller 11.  Value: 6
000000t:  Control change ::  Channel 6.  Controller 11.  Value: 5
000000t:  Note off ::  Channel 7.  Note 51.  Velocity 63
000001t:  Control change ::  Channel 6.  Controller 11.  Value: 4
000000t:  Control change ::  Channel 6.  Controller 11.  Value: 3
000001t:  Control change ::  Channel 6.  Controller 11.  Value: 2
000000t:  Control change ::  Channel 6.  Controller 11.  Value: 1
000001t:  Control change ::  Channel 6.  Controller 11.  Value: 0
000003t:  Note on ::  Channel 1.  Note 39.  Velocity 91
000002t:  Note on ::  Channel 9.  Note 51.  Velocity 119
000001t:  Note off ::  Channel 9.  Note 51.  Velocity 119
000006t:  Pitch wheel change ::  Channel 6.   -8192
000001t:  Pitch wheel change ::  Channel 6.   -8192
000001t:  Pitch wheel change ::  Channel 6.   -8192
000000t:  Pitch wheel change ::  Channel 6.   -8192
000001t:  Pitch wheel change ::  Channel 6.   -8192
000000t:  Pitch wheel change ::  Channel 6.   -8192
000001t:  Pitch wheel change ::  Channel 6.   -8192
000001t:  Pitch wheel change ::  Channel 6.   -8192
000000t:  Pitch wheel change ::  Channel 6.   -8192
000001t:  Pitch wheel change ::  Channel 6.   -8192
000000t:  Pitch wheel change ::  Channel 6.   -8192
000000t:  Note off ::  Channel 7.  Note 67.  Velocity 74
000001t:  Note off ::  Channel 1.  Note 39.  Velocity 91
000000t:  Pitch wheel change ::  Channel 6.   -8192
000000t:  Pitch wheel change ::  Channel 6.   -8192
000001t:  Pitch wheel change ::  Channel 6.   -8192
000000t:  Pitch wheel change ::  Channel 6.   -8192
000000t:  Note off ::  Channel 7.  Note 63.  Velocity 70
000000t:  Note off ::  Channel 7.  Note 70.  Velocity 84
000001t:  Pitch wheel change ::  Channel 6.   -8192
000000t:  Pitch wheel change ::  Channel 6.   -8192
000001t:  Pitch wheel change ::  Channel 6.   -8192
000001t:  Pitch wheel change ::  Channel 6.   -8192
000001t:  Pitch wheel change ::  Channel 6.   -8192
000000t:  Pitch wheel change ::  Channel 6.   -8192
000001t:  Pitch wheel change ::  Channel 6.   -8192
000001t:  Pitch wheel change ::  Channel 6.   -8192
000000t:  Pitch wheel change ::  Channel 6.   -8192
000000t:  Note on ::  Channel 7.  Note 46.  Velocity 84
000001t:  Pitch wheel change ::  Channel 6.   -8192
000000t:  Pitch wheel change ::  Channel 6.   -8192
000000t:  Note on ::  Channel 7.  Note 62.  Velocity 80
000001t:  Note on ::  Channel 3.  Note 77.  Velocity 98
000000t:  Pitch wheel change ::  Channel 6.   -8192
000000t:  Pitch wheel change ::  Channel 6.   -8192
000000t:  Note on ::  Channel 7.  Note 65.  Velocity 67
000000t:  Note on ::  Channel 7.  Note 70.  Velocity 79
000001t:  Pitch wheel change ::  Channel 6.   -8192
000000t:  Pitch wheel change ::  Channel 6.   -8192
000000t:  Note on ::  Channel 9.  Note 36.  Velocity 72
000001t:  Pitch wheel change ::  Channel 6.   -8192
000000t:  Note off ::  Channel 9.  Note 36.  Velocity 72
000001t:  Pitch wheel change ::  Channel 6.   -8192
000000t:  Pitch wheel change ::  Channel 6.   -8192
000001t:  Note off ::  Channel 3.  Note 74.  Velocity 97
000000t:  Pitch wheel change ::  Channel 6.   -8192
000000t:  Pitch wheel change ::  Channel 6.   -8192
000001t:  Pitch wheel change ::  Channel 6.   -8192
000000t:  Pitch wheel change ::  Channel 6.   -8192
000001t:  Pitch wheel change ::  Channel 6.   -8192
000000t:  Pitch wheel change ::  Channel 6.   -8192
000001t:  Pitch wheel change ::  Channel 6.   -8192
000006t:  Note off ::  Channel 6.  Note 70.  Velocity 127
000001t:  Note off ::  Channel 6.  Note 82.  Velocity 127
000009t:  Note on ::  Channel 2.  Note 58.  Velocity 61
000001t:  Note on ::  Channel 1.  Note 34.  Velocity 80
000000t:  Note on ::  Channel 2.  Note 50.  Velocity 54
000000t:  Note on ::  Channel 2.  Note 53.  Velocity 53
000000t:  Note on ::  Channel 5.  Note 65.  Velocity 91
000000t:  Note on ::  Channel 9.  Note 51.  Velocity 122
000001t:  Note on ::  Channel 5.  Note 74.  Velocity 87
000000t:  Note on ::  Channel 9.  Note 36.  Velocity 127
000000t:  Note off ::  Channel 9.  Note 51.  Velocity 122
000001t:  Note off ::  Channel 9.  Note 36.  Velocity 127
000001t:  Control change ::  Channel 2.  Controller 64.  Value: 0
000002t:  Note off ::  Channel 5.  Note 75.  Velocity 70
000000t:  Note off ::  Channel 5.  Note 67.  Velocity 76
000014t:  Note off ::  Channel 7.  Note 70.  Velocity 79
000000t:  Note off ::  Channel 7.  Note 65.  Velocity 67
000000t:  Note off ::  Channel 7.  Note 62.  Velocity 80
000002t:  Note on ::  Channel 7.  Note 70.  Velocity 68
000001t:  Control change ::  Channel 2.  Controller 64.  Value: 127
000000t:  Note off ::  Channel 3.  Note 77.  Velocity 98
000000t:  Note on ::  Channel 7.  Note 65.  Velocity 52
000001t:  Note on ::  Channel 3.  Note 74.  Velocity 85
000017t:  Note off ::  Channel 7.  Note 65.  Velocity 52
000002t:  Note off ::  Channel 7.  Note 70.  Velocity 68
000001t:  Note off ::  Channel 7.  Note 46.  Velocity 84
000001t:  Note on ::  Channel 7.  Note 62.  Velocity 49
000001t:  Note on ::  Channel 7.  Note 65.  Velocity 60
000001t:  Note off ::  Channel 2.  Note 53.  Velocity 53
000001t:  Note off ::  Channel 2.  Note 58.  Velocity 61
000001t:  Note on ::  Channel 3.  Note 70.  Velocity 75
000001t:  Note on ::  Channel 9.  Note 51.  Velocity 102
000001t:  Note off ::  Channel 9.  Note 51.  Velocity 102
000001t:  Note on ::  Channel 7.  Note 70.  Velocity 44
000002t:  Note off ::  Channel 2.  Note 50.  Velocity 54
000001t:  Note off ::  Channel 1.  Note 34.  Velocity 80
000006t:  Note off ::  Channel 3.  Note 74.  Velocity 85
000007t:  Note off ::  Channel 7.  Note 70.  Velocity 44
000001t:  Note off ::  Channel 7.  Note 65.  Velocity 60
000000t:  Note on ::  Channel 7.  Note 70.  Velocity 68
000001t:  Note off ::  Channel 7.  Note 62.  Velocity 49
000002t:  Note on ::  Channel 7.  Note 62.  Velocity 60
000000t:  Note on ::  Channel 7.  Note 65.  Velocity 67
000001t:  Note on ::  Channel 1.  Note 34.  Velocity 59
000000t:  Note on ::  Channel 9.  Note 36.  Velocity 94
000001t:  Note off ::  Channel 9.  Note 36.  Velocity 94
000006t:  Note off ::  Channel 1.  Note 34.  Velocity 59
000016t:  Note on ::  Channel 2.  Note 58.  Velocity 63
000000t:  Note on ::  Channel 2.  Note 50.  Velocity 49
000000t:  Note on ::  Channel 2.  Note 53.  Velocity 46
000000t:  Note off ::  Channel 3.  Note 70.  Velocity 75
000001t:  Note on ::  Channel 3.  Note 65.  Velocity 85
000000t:  Note on ::  Channel 9.  Note 40.  Velocity 127
000001t:  Note on ::  Channel 1.  Note 34.  Velocity 100
000000t:  Control change ::  Channel 2.  Controller 64.  Value: 0
000000t:  Note on ::  Channel 9.  Note 51.  Velocity 116
000000t:  Note off ::  Channel 9.  Note 40.  Velocity 127
000001t:  Note off ::  Channel 9.  Note 51.  Velocity 116
000016t:  Note off ::  Channel 7.  Note 70.  Velocity 68
000002t:  Note off ::  Channel 7.  Note 65.  Velocity 67
000000t:  Note off ::  Channel 7.  Note 62.  Velocity 60
000001t:  Control change ::  Channel 2.  Controller 64.  Value: 127
000001t:  Note on ::  Channel 7.  Note 70.  Velocity 56
000001t:  Note on ::  Channel 7.  Note 65.  Velocity 62
000001t:  Note on ::  Channel 7.  Note 62.  Velocity 54
000014t:  Note off ::  Channel 2.  Note 53.  Velocity 46
000003t:  Note off ::  Channel 2.  Note 50.  Velocity 49
000000t:  Note off ::  Channel 2.  Note 58.  Velocity 63
000001t:  Note off ::  Channel 7.  Note 62.  Velocity 54
000001t:  Note off ::  Channel 7.  Note 65.  Velocity 62
000001t:  Note off ::  Channel 7.  Note 70.  Velocity 56
000000t:  Note on ::  Channel 7.  Note 62.  Velocity 51
000001t:  Note on ::  Channel 7.  Note 65.  Velocity 59
000001t:  Note on ::  Channel 7.  Note 70.  Velocity 52
000002t:  Note on ::  Channel 9.  Note 51.  Velocity 107
000001t:  Note off ::  Channel 9.  Note 51.  Velocity 107
000019t:  Note off ::  Channel 7.  Note 70.  Velocity 52
000001t:  Note off ::  Channel 7.  Note 65.  Velocity 59
000000t:  Note on ::  Channel 7.  Note 70.  Velocity 78
000001t:  Note off ::  Channel 7.  Note 62.  Velocity 51
000000t:  Note on ::  Channel 7.  Note 65.  Velocity 64
000001t:  Note on ::  Channel 7.  Note 62.  Velocity 59
000001t:  Note on ::  Channel 9.  Note 36.  Velocity 78
000001t:  Note off ::  Channel 9.  Note 36.  Velocity 78
000012t:  Note off ::  Channel 7.  Note 62.  Velocity 59
000000t:  Note off ::  Channel 7.  Note 70.  Velocity 78
000001t:  Note off ::  Channel 7.  Note 65.  Velocity 64
000005t:  Note on ::  Channel 5.  Note 75.  Velocity 70
000000t:  Note on ::  Channel 5.  Note 67.  Velocity 78
000001t:  Note on ::  Channel 7.  Note 51.  Velocity 67
000001t:  Note off ::  Channel 1.  Note 34.  Velocity 100
000001t:  Note on ::  Channel 3.  Note 63.  Velocity 88
000001t:  Note on ::  Channel 1.  Note 39.  Velocity 98
000000t:  Note on ::  Channel 2.  Note 58.  Velocity 56
000000t:  Control change ::  Channel 2.  Controller 64.  Value: 0
000000t:  Note on ::  Channel 2.  Note 51.  Velocity 45
000000t:  Note on ::  Channel 2.  Note 55.  Velocity 61
000000t:  Note off ::  Channel 5.  Note 74.  Velocity 87
000000t:  Note off ::  Channel 5.  Note 65.  Velocity 91
000000t:  Note on ::  Channel 7.  Note 63.  Velocity 67
000001t:  Note on ::  Channel 7.  Note 67.  Velocity 76
000000t:  Note on ::  Channel 9.  Note 51.  Velocity 119
000000t:  Note on ::  Channel 9.  Note 36.  Velocity 127
000001t:  Note off ::  Channel 9.  Note 36.  Velocity 127
000000t:  Note off ::  Channel 9.  Note 51.  Velocity 119
000001t:  Note on ::  Channel 7.  Note 70.  Velocity 80
000007t:  Note off ::  Channel 3.  Note 65.  Velocity 85
000002t:  Note off ::  Channel 3.  Note 63.  Velocity 88
000005t:  Note off ::  Channel 7.  Note 67.  Velocity 76
000000t:  Note off ::  Channel 7.  Note 63.  Velocity 67
000003t:  Control change ::  Channel 2.  Controller 64.  Value: 127
000001t:  Note off ::  Channel 7.  Note 70.  Velocity 80
000002t:  Note on ::  Channel 3.  Note 63.  Velocity 92
000000t:  Note on ::  Channel 7.  Note 70.  Velocity 92
000001t:  Note on ::  Channel 7.  Note 67.  Velocity 81
000001t:  Note on ::  Channel 7.  Note 63.  Velocity 71
000018t:  Note off ::  Channel 2.  Note 55.  Velocity 61
000000t:  Note off ::  Channel 2.  Note 58.  Velocity 56
000001t:  Note off ::  Channel 2.  Note 51.  Velocity 45
000001t:  Note off ::  Channel 1.  Note 39.  Velocity 98
000003t:  Note on ::  Channel 9.  Note 51.  Velocity 119
000001t:  Note off ::  Channel 9.  Note 51.  Velocity 119
000014t:  Note off ::  Channel 3.  Note 63.  Velocity 92
000004t:  Note off ::  Channel 7.  Note 51.  Velocity 67
000001t:  Note off ::  Channel 7.  Note 63.  Velocity 71
000001t:  Note off ::  Channel 7.  Note 67.  Velocity 81
000000t:  Note off ::  Channel 7.  Note 70.  Velocity 92
000001t:  Note on ::  Channel 7.  Note 70.  Velocity 82
000001t:  Note on ::  Channel 1.  Note 39.  Velocity 52
000000t:  Note on ::  Channel 7.  Note 67.  Velocity 71
000001t:  Note on ::  Channel 3.  Note 63.  Velocity 86
000000t:  Note on ::  Channel 7.  Note 63.  Velocity 68
000005t:  Note off ::  Channel 1.  Note 39.  Velocity 52
000018t:  Note on ::  Channel 2.  Note 51.  Velocity 41
000000t:  Note on ::  Channel 2.  Note 55.  Velocity 52
000000t:  Note on ::  Channel 2.  Note 58.  Velocity 50
000000t:  Control change ::  Channel 2.  Controller 64.  Value: 0
000001t:  Note on ::  Channel 1.  Note 39.  Velocity 110
000001t:  Note on ::  Channel 9.  Note 40.  Velocity 119
000000t:  Note on ::  Channel 9.  Note 51.  Velocity 119
000001t:  Note off ::  Channel 9.  Note 51.  Velocity 119
000000t:  Note off ::  Channel 9.  Note 40.  Velocity 119
000012t:  Note off ::  Channel 7.  Note 70.  Velocity 82
000003t:  Note off ::  Channel 7.  Note 67.  Velocity 71
000001t:  Control change ::  Channel 2.  Controller 64.  Value: 127
000002t:  Note off ::  Channel 3.  Note 63.  Velocity 86
000000t:  Note off ::  Channel 7.  Note 63.  Velocity 68
000003t:  Note on ::  Channel 7.  Note 70.  Velocity 56
000001t:  Note on ::  Channel 7.  Note 67.  Velocity 62
000001t:  Note on ::  Channel 3.  Note 63.  Velocity 92
000000t:  Note on ::  Channel 7.  Note 63.  Velocity 54
000018t:  Note off ::  Channel 7.  Note 63.  Velocity 54
000001t:  Note off ::  Channel 7.  Note 67.  Velocity 62
000001t:  Note off ::  Channel 7.  Note 70.  Velocity 56
000000t:  Note on ::  Channel 7.  Note 65.  Velocity 53
000001t:  Note on ::  Channel 7.  Note 67.  Velocity 49
000001t:  Note off ::  Channel 2.  Note 58.  Velocity 50
000000t:  Note on ::  Channel 7.  Note 70.  Velocity 66
000001t:  Note off ::  Channel 2.  Note 55.  Velocity 52
000001t:  Note off ::  Channel 2.  Note 51.  Velocity 41
000000t:  Note on ::  Channel 3.  Note 65.  Velocity 83
000000t:  Note on ::  Channel 9.  Note 51.  Velocity 119
000001t:  Note off ::  Channel 9.  Note 51.  Velocity 119
000003t:  Note off ::  Channel 3.  Note 63.  Velocity 92
000016t:  Note off ::  Channel 1.  Note 39.  Velocity 110
000017t:  Note off ::  Channel 7.  Note 65.  Velocity 53
000003t:  Note off ::  Channel 7.  Note 67.  Velocity 49
000001t:  Note off ::  Channel 7.  Note 70.  Velocity 66
000002t:  Control change ::  Channel 2.  Controller 64.  Value: 0
000001t:  Note off ::  Channel 3.  Note 65.  Velocity 83
000000t:  Note on ::  Channel 7.  Note 51.  Velocity 67
000002t:  Note on ::  Channel 2.  Note 51.  Velocity 53
000000t:  Note on ::  Channel 2.  Note 58.  Velocity 51
000001t:  Note on ::  Channel 1.  Note 39.  Velocity 102
000000t:  Note on ::  Channel 2.  Note 55.  Velocity 56
000000t:  Note on ::  Channel 7.  Note 67.  Velocity 78
000000t:  Note on ::  Channel 9.  Note 36.  Velocity 127
000000t:  Note on ::  Channel 9.  Note 51.  Velocity 119
000001t:  Note on ::  Channel 3.  Note 63.  Velocity 84
000000t:  Note on ::  Channel 7.  Note 70.  Velocity 77
000000t:  Note off ::  Channel 9.  Note 51.  Velocity 119
000000t:  Note off ::  Channel 9.  Note 36.  Velocity 127
000002t:  Note on ::  Channel 7.  Note 75.  Velocity 81
000012t:  Control change ::  Channel 2.  Controller 64.  Value: 127
000000t:  Note off ::  Channel 3.  Note 63.  Velocity 84
000010t:  Note on ::  Channel 3.  Note 63.  Velocity 84
000006t:  Note off ::  Channel 2.  Note 55.  Velocity 56
000001t:  Note off ::  Channel 2.  Note 58.  Velocity 51
000007t:  Note off ::  Channel 3.  Note 63.  Velocity 84
000001t:  Note off ::  Channel 7.  Note 67.  Velocity 78
000001t:  Note off ::  Channel 7.  Note 70.  Velocity 77
000001t:  Note off ::  Channel 2.  Note 51.  Velocity 53
000003t:  Note off ::  Channel 7.  Note 75.  Velocity 81
000002t:  Note on ::  Channel 7.  Note 67.  Velocity 56
000001t:  Note on ::  Channel 7.  Note 70.  Velocity 68
000000t:  Note on ::  Channel 9.  Note 51.  Velocity 119
000001t:  Note on ::  Channel 3.  Note 63.  Velocity 63
000000t:  Note on ::  Channel 7.  Note 75.  Velocity 68
000000t:  Note off ::  Channel 9.  Note 51.  Velocity 119
000007t:  Note off ::  Channel 1.  Note 39.  Velocity 102
000006t:  Note off ::  Channel 3.  Note 63.  Velocity 63
000003t:  Note off ::  Channel 7.  Note 67.  Velocity 56
000001t:  Note off ::  Channel 7.  Note 75.  Velocity 68
000002t:  Note off ::  Channel 7.  Note 70.  Velocity 68
000002t:  Note on ::  Channel 7.  Note 75.  Velocity 81
000001t:  Note on ::  Channel 7.  Note 70.  Velocity 88
000001t:  Note on ::  Channel 1.  Note 39.  Velocity 59
000000t:  Note on ::  Channel 7.  Note 67.  Velocity 82
000001t:  Note on ::  Channel 3.  Note 63.  Velocity 69
000004t:  Note off ::  Channel 7.  Note 51.  Velocity 67
000003t:  Control change ::  Channel 2.  Controller 64.  Value: 0
000001t:  Note off ::  Channel 1.  Note 39.  Velocity 59
000013t:  Control change ::  Channel 2.  Controller 64.  Value: 127
000003t:  Note on ::  Channel 1.  Note 39.  Velocity 89
000000t:  Note on ::  Channel 2.  Note 58.  Velocity 54
000000t:  Note on ::  Channel 2.  Note 51.  Velocity 50
000000t:  Note on ::  Channel 2.  Note 55.  Velocity 52
000000t:  Note on ::  Channel 9.  Note 40.  Velocity 122
000000t:  Note on ::  Channel 9.  Note 51.  Velocity 119
000001t:  Note off ::  Channel 9.  Note 51.  Velocity 119
000000t:  Note off ::  Channel 9.  Note 40.  Velocity 122
000015t:  Note off ::  Channel 7.  Note 75.  Velocity 81
000001t:  Note off ::  Channel 7.  Note 67.  Velocity 82
000000t:  Note off ::  Channel 7.  Note 70.  Velocity 88
000003t:  Note on ::  Channel 7.  Note 75.  Velocity 69
000001t:  Note on ::  Channel 7.  Note 70.  Velocity 52
000001t:  Note on ::  Channel 7.  Note 67.  Velocity 47
000002t:  Note off ::  Channel 3.  Note 63.  Velocity 69
000000t:  Note on ::  Channel 3.  Note 62.  Velocity 81
000016t:  Note off ::  Channel 2.  Note 51.  Velocity 50
000000t:  Note off ::  Channel 3.  Note 62.  Velocity 81
000000t:  Note off ::  Channel 7.  Note 67.  Velocity 47
000000t:  Note off ::  Channel 7.  Note 70.  Velocity 52
000002t:  Note off ::  Channel 7.  Note 75.  Velocity 69
000001t:  Note off ::  Channel 2.  Note 55.  Velocity 52
000002t:  Note off ::  Channel 2.  Note 58.  Velocity 54
000000t:  Note on ::  Channel 7.  Note 67.  Velocity 72
000001t:  Note on ::  Channel 9.  Note 51.  Velocity 116
000001t:  Note on ::  Channel 7.  Note 70.  Velocity 75
000000t:  Note on ::  Channel 7.  Note 75.  Velocity 85
000000t:  Note off ::  Channel 9.  Note 51.  Velocity 116
000002t:  Note on ::  Channel 3.  Note 63.  Velocity 63
000022t:  Note on ::  Channel 9.  Note 36.  Velocity 62
000001t:  Note off ::  Channel 9.  Note 36.  Velocity 62
000001t:  Note off ::  Channel 3.  Note 63.  Velocity 63
000010t:  Note off ::  Channel 4.  Note 58.  Velocity 72
000003t:  Control change ::  Channel 2.  Controller 64.  Value: 0
000004t:  Note off ::  Channel 7.  Note 75.  Velocity 85
000000t:  Note off ::  Channel 7.  Note 70.  Velocity 75
000001t:  Note on ::  Channel 5.  Note 70.  Velocity 65
000001t:  Note off ::  Channel 5.  Note 67.  Velocity 78
000000t:  Note off ::  Channel 7.  Note 67.  Velocity 72
000001t:  Note on ::  Channel 4.  Note 58.  Velocity 66
000000t:  Note on ::  Channel 7.  Note 53.  Velocity 75
000000t:  Note on ::  Channel 7.  Note 70.  Velocity 68
000001t:  Note off ::  Channel 1.  Note 39.  Velocity 89
000000t:  Note on ::  Channel 9.  Note 36.  Velocity 127
000000t:  Note on ::  Channel 9.  Note 49.  Velocity 127
000001t:  Note on ::  Channel 1.  Note 41.  Velocity 87
000000t:  Note on ::  Channel 7.  Note 72.  Velocity 79
000000t:  Note on ::  Channel 7.  Note 77.  Velocity 84
000000t:  Note off ::  Channel 9.  Note 49.  Velocity 127
000000t:  Note off ::  Channel 9.  Note 36.  Velocity 127
000001t:  Note on ::  Channel 2.  Note 41.  Velocity 76
000000t:  Note on ::  Channel 2.  Note 53.  Velocity 76
000000t:  Note on ::  Channel 3.  Note 58.  Velocity 74
000000t:  Note on ::  Channel 3.  Note 65.  Velocity 84
000000t:  Note on ::  Channel 5.  Note 72.  Velocity 92
000000t:  Note on ::  Channel 5.  Note 77.  Velocity 92
000001t:  Note on ::  Channel 3.  Note 63.  Velocity 47
000002t:  Note off ::  Channel 5.  Note 75.  Velocity 70
000005t:  Control change ::  Channel 2.  Controller 64.  Value: 127
000001t:  Note off ::  Channel 3.  Note 58.  Velocity 74
000001t:  Note off ::  Channel 3.  Note 63.  Velocity 47
000002t:  Note off ::  Channel 3.  Note 65.  Velocity 84
000012t:  Note on ::  Channel 3.  Note 58.  Velocity 66
000000t:  Note on ::  Channel 3.  Note 65.  Velocity 73
000001t:  Note on ::  Channel 3.  Note 63.  Velocity 70
000004t:  Note off ::  Channel 7.  Note 70.  Velocity 68
000001t:  Note off ::  Channel 3.  Note 63.  Velocity 70
000002t:  Note off ::  Channel 3.  Note 58.  Velocity 66
000003t:  Note off ::  Channel 3.  Note 65.  Velocity 73
000007t:  Note off ::  Channel 7.  Note 77.  Velocity 84
000000t:  Note off ::  Channel 7.  Note 72.  Velocity 79
000004t:  Note on ::  Channel 7.  Note 70.  Velocity 61
000001t:  Note on ::  Channel 7.  Note 72.  Velocity 74
000000t:  Note on ::  Channel 9.  Note 51.  Velocity 107
000001t:  Note on ::  Channel 3.  Note 58.  Velocity 72
000000t:  Note on ::  Channel 3.  Note 63.  Velocity 73
000000t:  Note on ::  Channel 3.  Note 65.  Velocity 82
000000t:  Note on ::  Channel 7.  Note 77.  Velocity 52
000000t:  Note off ::  Channel 9.  Note 51.  Velocity 107
000002t:  Note off ::  Channel 1.  Note 41.  Velocity 87
000007t:  Note off ::  Channel 3.  Note 63.  Velocity 73
000000t:  Note off ::  Channel 3.  Note 58.  Velocity 72
000001t:  Note off ::  Channel 7.  Note 53.  Velocity 75
000001t:  Note off ::  Channel 7.  Note 70.  Velocity 61
000001t:  Note off ::  Channel 3.  Note 65.  Velocity 82
000001t:  Note off ::  Channel 2.  Note 53.  Velocity 76
000001t:  Note off ::  Channel 2.  Note 41.  Velocity 76
000003t:  Note off ::  Channel 7.  Note 77.  Velocity 52
000002t:  Note off ::  Channel 7.  Note 72.  Velocity 74
000002t:  Note on ::  Channel 7.  Note 53.  Velocity 75
000000t:  Note on ::  Channel 7.  Note 77.  Velocity 89
000001t:  Note on ::  Channel 7.  Note 72.  Velocity 86
000001t:  Note on ::  Channel 7.  Note 70.  Velocity 90
000001t:  Note on ::  Channel 1.  Note 41.  Velocity 89
000000t:  Note on ::  Channel 3.  Note 58.  Velocity 70
000000t:  Note on ::  Channel 3.  Note 63.  Velocity 86
000000t:  Note on ::  Channel 3.  Note 65.  Velocity 73
000006t:  Note off ::  Channel 1.  Note 41.  Velocity 89
000013t:  Control change ::  Channel 2.  Controller 64.  Value: 0
000003t:  Note on ::  Channel 9.  Note 40.  Velocity 127
000001t:  Note on ::  Channel 9.  Note 55.  Velocity 116
000000t:  Note off ::  Channel 9.  Note 40.  Velocity 127
000001t:  Note on ::  Channel 1.  Note 41.  Velocity 95
000000t:  Note on ::  Channel 2.  Note 41.  Velocity 72
000000t:  Note on ::  Channel 2.  Note 53.  Velocity 85
000000t:  Note off ::  Channel 9.  Note 55.  Velocity 116
000012t:  Note off ::  Channel 3.  Note 63.  Velocity 86
000001t:  Control change ::  Channel 2.  Controller 64.  Value: 127
000001t:  Note off ::  Channel 3.  Note 58.  Velocity 70
000000t:  Note off ::  Channel 7.  Note 77.  Velocity 89
000002t:  Note off ::  Channel 3.  Note 65.  Velocity 73
000001t:  Note off ::  Channel 7.  Note 72.  Velocity 86
000001t:  Note off ::  Channel 7.  Note 70.  Velocity 90
000002t:  Note on ::  Channel 7.  Note 77.  Velocity 94
000001t:  Note on ::  Channel 7.  Note 72.  Velocity 71
000001t:  Note on ::  Channel 7.  Note 70.  Velocity 60
000002t:  Note on ::  Channel 3.  Note 58.  Velocity 95
000001t:  Note on ::  Channel 3.  Note 63.  Velocity 85
000000t:  Note on ::  Channel 3.  Note 65.  Velocity 90
000006t:  Note off ::  Channel 1.  Note 41.  Velocity 95
000002t:  Note off ::  Channel 3.  Note 58.  Velocity 95
000001t:  Note off ::  Channel 3.  Note 63.  Velocity 85
000001t:  Note off ::  Channel 3.  Note 65.  Velocity 90
000005t:  Note off ::  Channel 7.  Note 70.  Velocity 60
000000t:  Note off ::  Channel 7.  Note 72.  Velocity 71
000002t:  Note off ::  Channel 7.  Note 77.  Velocity 94
000002t:  Note off ::  Channel 2.  Note 41.  Velocity 72
000001t:  Note on ::  Channel 7.  Note 70.  Velocity 70
000001t:  Note on ::  Channel 9.  Note 51.  Velocity 89
000001t:  Note on ::  Channel 7.  Note 72.  Velocity 78
000000t:  Note on ::  Channel 7.  Note 77.  Velocity 77
000000t:  Note off ::  Channel 9.  Note 51.  Velocity 89
000001t:  Note on ::  Channel 1.  Note 41.  Velocity 105
000000t:  Note on ::  Channel 3.  Note 58.  Velocity 82
000000t:  Note on ::  Channel 3.  Note 63.  Velocity 85
000000t:  Note on ::  Channel 3.  Note 65.  Velocity 78
000003t:  Note off ::  Channel 2.  Note 53.  Velocity 85
000007t:  Note off ::  Channel 7.  Note 53.  Velocity 75
000005t:  Note off ::  Channel 3.  Note 58.  Velocity 82
000003t:  Note off ::  Channel 7.  Note 77.  Velocity 77
000000t:  Note off ::  Channel 7.  Note 72.  Velocity 78
000002t:  Note off ::  Channel 7.  Note 70.  Velocity 70
000002t:  Note on ::  Channel 7.  Note 77.  Velocity 70
000001t:  Note on ::  Channel 7.  Note 72.  Velocity 69
000001t:  Note off ::  Channel 3.  Note 65.  Velocity 78
000000t:  Note off ::  Channel 3.  Note 63.  Velocity 85
000000t:  Note on ::  Channel 7.  Note 70.  Velocity 59
000010t:  Note off ::  Channel 4.  Note 58.  Velocity 66
000003t:  Note off ::  Channel 7.  Note 77.  Velocity 70
000003t:  Note off ::  Channel 7.  Note 72.  Velocity 69
000003t:  Note off ::  Channel 7.  Note 70.  Velocity 59
000001t:  Note on ::  Channel 7.  Note 46.  Velocity 67
000003t:  Note off ::  Channel 1.  Note 41.  Velocity 105
000000t:  Note on ::  Channel 2.  Note 46.  Velocity 62
000000t:  Note on ::  Channel 2.  Note 50.  Velocity 63
000000t:  Note on ::  Channel 2.  Note 53.  Velocity 75
000000t:  Note on ::  Channel 4.  Note 58.  Velocity 87
000000t:  Note on ::  Channel 7.  Note 70.  Velocity 67
000001t:  Note on ::  Channel 1.  Note 34.  Velocity 116
000000t:  Control change ::  Channel 2.  Controller 64.  Value: 0
000000t:  Note off ::  Channel 5.  Note 72.  Velocity 92
000000t:  Note on ::  Channel 5.  Note 74.  Velocity 73
000000t:  Note on ::  Channel 7.  Note 74.  Velocity 76
000000t:  Note on ::  Channel 9.  Note 36.  Velocity 127
000000t:  Note on ::  Channel 9.  Note 49.  Velocity 122
000001t:  Note off ::  Channel 9.  Note 49.  Velocity 122
000000t:  Note off ::  Channel 9.  Note 36.  Velocity 127
000001t:  Note on ::  Channel 7.  Note 77.  Velocity 89
000019t:  Control change ::  Channel 2.  Controller 64.  Value: 127
000018t:  Note off ::  Channel 7.  Note 70.  Velocity 67
000001t:  Note off ::  Channel 7.  Note 74.  Velocity 76
000005t:  Note on ::  Channel 7.  Note 62.  Velocity 33
000001t:  Note on ::  Channel 9.  Note 51.  Velocity 102
000001t:  Note off ::  Channel 1.  Note 34.  Velocity 116
000000t:  Note on ::  Channel 3.  Note 65.  Velocity 65
000000t:  Note on ::  Channel 7.  Note 65.  Velocity 64
000000t:  Note on ::  Channel 7.  Note 70.  Velocity 59
000000t:  Note off ::  Channel 9.  Note 51.  Velocity 102
000007t:  Note off ::  Channel 2.  Note 50.  Velocity 63
000001t:  Note off ::  Channel 2.  Note 53.  Velocity 75
000005t:  Note off ::  Channel 2.  Note 46.  Velocity 62
000000t:  Note off ::  Channel 3.  Note 65.  Velocity 65
000006t:  Note off ::  Channel 7.  Note 70.  Velocity 59
000000t:  Note off ::  Channel 7.  Note 65.  Velocity 64
000002t:  Note off ::  Channel 7.  Note 62.  Velocity 33
000002t:  Note on ::  Channel 7.  Note 70.  Velocity 70
000001t:  Note on ::  Channel 3.  Note 65.  Velocity 78
000000t:  Note on ::  Channel 7.  Note 65.  Velocity 69
000001t:  Note on ::  Channel 7.  Note 62.  Velocity 59
000000t:  Note on ::  Channel 9.  Note 36.  Velocity 88
000001t:  Note on ::  Channel 1.  Note 34.  Velocity 44
000000t:  Note off ::  Channel 9.  Note 36.  Velocity 88
000007t:  Note off ::  Channel 1.  Note 34.  Velocity 44
000011t:  Note off ::  Channel 7.  Note 62.  Velocity 59
000001t:  Note off ::  Channel 7.  Note 65.  Velocity 69
000000t:  Note off ::  Channel 7.  Note 70.  Velocity 70
000000t:  Note off ::  Channel 7.  Note 77.  Velocity 89
000001t:  Note on ::  Channel 7.  Note 62.  Velocity 33
000002t:  Note on ::  Channel 2.  Note 46.  Velocity 57
000000t:  Note on ::  Channel 2.  Note 50.  Velocity 57
000000t:  Note on ::  Channel 2.  Note 53.  Velocity 79
000000t:  Note on ::  Channel 3.  Note 70.  Velocity 85
000000t:  Note on ::  Channel 7.  Note 65.  Velocity 64
000000t:  Note on ::  Channel 7.  Note 70.  Velocity 59
000000t:  Note on ::  Channel 9.  Note 51.  Velocity 119
000001t:  Note on ::  Channel 1.  Note 34.  Velocity 93
000000t:  Note on ::  Channel 9.  Note 40.  Velocity 122
000000t:  Note off ::  Channel 9.  Note 51.  Velocity 119
000001t:  Note off ::  Channel 9.  Note 40.  Velocity 122
000001t:  Control change ::  Channel 2.  Controller 64.  Value: 0
000004t:  Note off ::  Channel 3.  Note 65.  Velocity 78
000005t:  Note off ::  Channel 3.  Note 70.  Velocity 85
000009t:  Control change ::  Channel 2.  Controller 64.  Value: 127
000003t:  Note on ::  Channel 3.  Note 70.  Velocity 67
000017t:  Note off ::  Channel 7.  Note 62.  Velocity 33
000001t:  Note off ::  Channel 7.  Note 70.  Velocity 59
000001t:  Note off ::  Channel 7.  Note 65.  Velocity 64
000002t:  Note off ::  Channel 2.  Note 50.  Velocity 57
000002t:  Note on ::  Channel 7.  Note 62.  Velocity 61
000001t:  Note on ::  Channel 3.  Note 74.  Velocity 93
000000t:  Note on ::  Channel 7.  Note 65.  Velocity 74
000001t:  Note on ::  Channel 7.  Note 70.  Velocity 52
000000t:  Note on ::  Channel 9.  Note 51.  Velocity 119
000001t:  Note off ::  Channel 2.  Note 53.  Velocity 79
000000t:  Note off ::  Channel 9.  Note 51.  Velocity 119
000003t:  Note off ::  Channel 2.  Note 46.  Velocity 57
000000t:  Note off ::  Channel 3.  Note 70.  Velocity 67
000007t:  Note off ::  Channel 3.  Note 74.  Velocity 93
000008t:  Note off ::  Channel 7.  Note 70.  Velocity 52
000000t:  Note off ::  Channel 7.  Note 65.  Velocity 74
000000t:  Note off ::  Channel 7.  Note 62.  Velocity 61
000002t:  Note on ::  Channel 7.  Note 70.  Velocity 72
000001t:  Note on ::  Channel 7.  Note 65.  Velocity 71
000001t:  Note on ::  Channel 3.  Note 74.  Velocity 85
000000t:  Note on ::  Channel 7.  Note 62.  Velocity 68
000000t:  Note on ::  Channel 9.  Note 36.  Velocity 81
000001t:  Note off ::  Channel 9.  Note 36.  Velocity 81
000001t:  Note off ::  Channel 1.  Note 34.  Velocity 93
000003t:  Note off ::  Channel 7.  Note 46.  Velocity 67
000014t:  Note off ::  Channel 7.  Note 70.  Velocity 72
000002t:  Note off ::  Channel 7.  Note 65.  Velocity 71
000001t:  Note off ::  Channel 7.  Note 62.  Velocity 68
000000t:  Note on ::  Channel 7.  Note 51.  Velocity 50
000000t:  Note on ::  Channel 7.  Note 62.  Velocity 33
000002t:  Note on ::  Channel 1.  Note 34.  Velocity 95
000000t:  Note on ::  Channel 2.  Note 50.  Velocity 67
000000t:  Note on ::  Channel 2.  Note 53.  Velocity 63
000000t:  Note on ::  Channel 2.  Note 58.  Velocity 74
000000t:  Control change ::  Channel 2.  Controller 64.  Value: 0
000000t:  Note on ::  Channel 3.  Note 75.  Velocity 90
000000t:  Note on ::  Channel 7.  Note 65.  Velocity 64
000000t:  Note on ::  Channel 7.  Note 70.  Velocity 59
000000t:  Note on ::  Channel 9.  Note 51.  Velocity 119
000000t:  Note on ::  Channel 9.  Note 36.  Velocity 125
000001t:  Note off ::  Channel 9.  Note 36.  Velocity 125
000000t:  Note off ::  Channel 9.  Note 51.  Velocity 119
000001t:  Note off ::  Channel 3.  Note 74.  Velocity 85
000014t:  Note off ::  Channel 7.  Note 62.  Velocity 33
000003t:  Note off ::  Channel 7.  Note 70.  Velocity 59
000000t:  Note off ::  Channel 7.  Note 65.  Velocity 64
000002t:  Control change ::  Channel 2.  Controller 64.  Value: 127
000002t:  Note on ::  Channel 7.  Note 70.  Velocity 70
000000t:  Note on ::  Channel 9.  Note 40.  Velocity 91
000001t:  Note on ::  Channel 7.  Note 65.  Velocity 69
000000t:  Note off ::  Channel 9.  Note 40.  Velocity 91
000001t:  Note on ::  Channel 7.  Note 62.  Velocity 59
000010t:  Note off ::  Channel 7.  Note 51.  Velocity 50
000009t:  Note off ::  Channel 7.  Note 62.  Velocity 59
000001t:  Note off ::  Channel 2.  Note 53.  Velocity 63
000000t:  Note off ::  Channel 7.  Note 65.  Velocity 69
000000t:  Note off ::  Channel 7.  Note 70.  Velocity 70
000001t:  Note off ::  Channel 2.  Note 58.  Velocity 74
000001t:  Note on ::  Channel 7.  Note 62.  Velocity 61
000001t:  Note on ::  Channel 7.  Note 65.  Velocity 74
000000t:  Note on ::  Channel 9.  Note 51.  Velocity 119
000001t:  Note off ::  Channel 3.  Note 75.  Velocity 90
000000t:  Note on ::  Channel 3.  Note 74.  Velocity 90
000000t:  Note on ::  Channel 7.  Note 70.  Velocity 52
000000t:  Note off ::  Channel 9.  Note 51.  Velocity 119
000005t:  Note off ::  Channel 1.  Note 34.  Velocity 95
000008t:  Note off ::  Channel 2.  Note 50.  Velocity 67
000004t:  Note off ::  Channel 7.  Note 70.  Velocity 52
000002t:  Note off ::  Channel 7.  Note 65.  Velocity 74
000000t:  Note off ::  Channel 7.  Note 62.  Velocity 61
000002t:  Note on ::  Channel 7.  Note 70.  Velocity 82
000001t:  Note on ::  Channel 7.  Note 65.  Velocity 74
000000t:  Note on ::  Channel 9.  Note 36.  Velocity 90
000001t:  Note on ::  Channel 1.  Note 34.  Velocity 66
000000t:  Note off ::  Channel 3.  Note 74.  Velocity 90
000000t:  Note on ::  Channel 7.  Note 62.  Velocity 78
000000t:  Note off ::  Channel 9.  Note 36.  Velocity 90
000001t:  Note on ::  Channel 3.  Note 72.  Velocity 74
000006t:  Note off ::  Channel 1.  Note 34.  Velocity 66
000015t:  Note off ::  Channel 7.  Note 62.  Velocity 78
000000t:  Note off ::  Channel 7.  Note 65.  Velocity 74
000000t:  Note off ::  Channel 7.  Note 70.  Velocity 82
000001t:  Note on ::  Channel 9.  Note 51.  Velocity 122
000001t:  Note on ::  Channel 2.  Note 58.  Velocity 72
000000t:  Note on ::  Channel 2.  Note 50.  Velocity 54
000000t:  Note on ::  Channel 2.  Note 53.  Velocity 61
000000t:  Note on ::  Channel 9.  Note 40.  Velocity 127
000000t:  Note off ::  Channel 9.  Note 51.  Velocity 122
000001t:  Note on ::  Channel 1.  Note 34.  Velocity 105
000000t:  Control change ::  Channel 2.  Controller 64.  Value: 0
000000t:  Note off ::  Channel 9.  Note 40.  Velocity 127
000020t:  Note on ::  Channel 7.  Note 70.  Velocity 94
000001t:  Note on ::  Channel 7.  Note 65.  Velocity 71
000001t:  Control change ::  Channel 2.  Controller 64.  Value: 127
000000t:  Note on ::  Channel 7.  Note 62.  Velocity 60
000014t:  Note off ::  Channel 1.  Note 34.  Velocity 105
000004t:  Note off ::  Channel 2.  Note 53.  Velocity 61
000000t:  Note off ::  Channel 7.  Note 62.  Velocity 60
000000t:  Note off ::  Channel 7.  Note 65.  Velocity 71
000002t:  Note off ::  Channel 7.  Note 70.  Velocity 94
000003t:  Note off ::  Channel 2.  Note 50.  Velocity 54
000000t:  Note off ::  Channel 2.  Note 58.  Velocity 72
000000t:  Note off ::  Channel 3.  Note 72.  Velocity 74
000000t:  Note on ::  Channel 7.  Note 62.  Velocity 33
000002t:  Note on ::  Channel 1.  Note 34.  Velocity 58
000000t:  Note on ::  Channel 3.  Note 74.  Velocity 87
000000t:  Note on ::  Channel 7.  Note 65.  Velocity 64
000000t:  Note on ::  Channel 7.  Note 70.  Velocity 59
000000t:  Note on ::  Channel 9.  Note 51.  Velocity 116
000001t:  Note off ::  Channel 9.  Note 51.  Velocity 116
000018t:  Note off ::  Channel 7.  Note 70.  Velocity 59
000000t:  Note off ::  Channel 7.  Note 65.  Velocity 64
000002t:  Note off ::  Channel 7.  Note 62.  Velocity 33
000002t:  Note on ::  Channel 7.  Note 70.  Velocity 70
000001t:  Note on ::  Channel 7.  Note 65.  Velocity 69
000001t:  Note off ::  Channel 5.  Note 74.  Velocity 73
000000t:  Note on ::  Channel 7.  Note 62.  Velocity 59
000000t:  Note on ::  Channel 9.  Note 36.  Velocity 68
000001t:  Note off ::  Channel 9.  Note 36.  Velocity 68
000012t:  Note off ::  Channel 7.  Note 70.  Velocity 70
000003t:  Note off ::  Channel 7.  Note 65.  Velocity 69
000002t:  Note on ::  Channel 5.  Note 67.  Velocity 89
000001t:  Note off ::  Channel 1.  Note 34.  Velocity 58
000000t:  Note on ::  Channel 5.  Note 75.  Velocity 76
000000t:  Note off ::  Channel 7.  Note 62.  Velocity 59
000002t:  Control change ::  Channel 2.  Controller 64.  Value: 0
000000t:  Note on ::  Channel 7.  Note 51.  Velocity 50
000001t:  Note on ::  Channel 2.  Note 51.  Velocity 53
000000t:  Note on ::  Channel 2.  Note 55.  Velocity 70
000000t:  Note on ::  Channel 2.  Note 58.  Velocity 68
000000t:  Note off ::  Channel 5.  Note 77.  Velocity 92
000000t:  Note on ::  Channel 7.  Note 58.  Velocity 61
000000t:  Note on ::  Channel 7.  Note 63.  Velocity 74
000001t:  Note on ::  Channel 1.  Note 39.  Velocity 82
000000t:  Note on ::  Channel 9.  Note 36.  Velocity 127
000000t:  Note on ::  Channel 9.  Note 49.  Velocity 113
000001t:  Note on ::  Channel 3.  Note 70.  Velocity 76
000000t:  Note on ::  Channel 7.  Note 67.  Velocity 52
000000t:  Note off ::  Channel 9.  Note 49.  Velocity 113
000000t:  Note off ::  Channel 9.  Note 36.  Velocity 127
000002t:  Note off ::  Channel 5.  Note 70.  Velocity 65
000007t:  Note off ::  Channel 3.  Note 74.  Velocity 87
000008t:  Note off ::  Channel 7.  Note 67.  Velocity 52
000002t:  Control change ::  Channel 2.  Controller 64.  Value: 127
000015t:  Note off ::  Channel 7.  Note 51.  Velocity 50
000004t:  Note off ::  Channel 7.  Note 63.  Velocity 74
000000t:  Note off ::  Channel 7.  Note 58.  Velocity 61
000007t:  Note off ::  Channel 2.  Note 55.  Velocity 70
000001t:  Note off ::  Channel 2.  Note 58.  Velocity 68
000000t:  Note on ::  Channel 7.  Note 58.  Velocity 61
000000t:  Note on ::  Channel 7.  Note 63.  Velocity 74
000001t:  Note off ::  Channel 3.  Note 70.  Velocity 76
000001t:  Note off ::  Channel 2.  Note 51.  Velocity 53
000000t:  Note on ::  Channel 3.  Note 67.  Velocity 77
000000t:  Note on ::  Channel 7.  Note 67.  Velocity 52
000000t:  Note on ::  Channel 9.  Note 51.  Velocity 91
000001t:  Note off ::  Channel 1.  Note 39.  Velocity 82
000000t:  Note off ::  Channel 9.  Note 51.  Velocity 91
000016t:  Note off ::  Channel 7.  Note 67.  Velocity 52
000001t:  Note off ::  Channel 7.  Note 63.  Velocity 74
000001t:  Note off ::  Channel 7.  Note 58.  Velocity 61
000002t:  Note on ::  Channel 7.  Note 67.  Velocity 72
000001t:  Note on ::  Channel 7.  Note 63.  Velocity 71
000001t:  Note on ::  Channel 1.  Note 39.  Velocity 49
000000t:  Note on ::  Channel 7.  Note 58.  Velocity 68
000001t:  Note on ::  Channel 3.  Note 70.  Velocity 81
000008t:  Note off ::  Channel 1.  Note 39.  Velocity 49
000000t:  Note off ::  Channel 3.  Note 67.  Velocity 77
000001t:  Control change ::  Channel 2.  Controller 64.  Value: 0
000014t:  Note on ::  Channel 1.  Note 39.  Velocity 107
000001t:  Note on ::  Channel 2.  Note 55.  Velocity 76
000000t:  Note on ::  Channel 2.  Note 58.  Velocity 72
000000t:  Note on ::  Channel 2.  Note 51.  Velocity 55
000000t:  Note on ::  Channel 9.  Note 51.  Velocity 113
000000t:  Note on ::  Channel 9.  Note 40.  Velocity 127
000001t:  Note off ::  Channel 9.  Note 40.  Velocity 127
000000t:  Note off ::  Channel 9.  Note 51.  Velocity 113
000002t:  Control change ::  Channel 2.  Controller 64.  Value: 127
000013t:  Note off ::  Channel 7.  Note 67.  Velocity 72
000001t:  Note off ::  Channel 7.  Note 63.  Velocity 71
000002t:  Note off ::  Channel 7.  Note 58.  Velocity 68
000001t:  Note on ::  Channel 7.  Note 67.  Velocity 81
000001t:  Note on ::  Channel 7.  Note 63.  Velocity 71
000001t:  Note on ::  Channel 7.  Note 58.  Velocity 60
000018t:  Note off ::  Channel 7.  Note 58.  Velocity 60
000000t:  Note off ::  Channel 7.  Note 63.  Velocity 71
000002t:  Note off ::  Channel 7.  Note 67.  Velocity 81
000003t:  Note on ::  Channel 7.  Note 58.  Velocity 33
000002t:  Note on ::  Channel 7.  Note 63.  Velocity 64
000000t:  Note on ::  Channel 7.  Note 67.  Velocity 59
000001t:  Note on ::  Channel 3.  Note 72.  Velocity 89
000000t:  Note on ::  Channel 9.  Note 51.  Velocity 113
000001t:  Note off ::  Channel 9.  Note 51.  Velocity 113
000002t:  Note off ::  Channel 2.  Note 58.  Velocity 72
000002t:  Note off ::  Channel 2.  Note 55.  Velocity 76
000002t:  Note off ::  Channel 3.  Note 70.  Velocity 81
000001t:  Note off ::  Channel 2.  Note 51.  Velocity 55
000010t:  Note off ::  Channel 7.  Note 67.  Velocity 59
000000t:  Note off ::  Channel 7.  Note 63.  Velocity 64
000002t:  Note off ::  Channel 7.  Note 58.  Velocity 33
000002t:  Note on ::  Channel 7.  Note 67.  Velocity 70
000000t:  Note on ::  Channel 9.  Note 36.  Velocity 81
000001t:  Note on ::  Channel 7.  Note 63.  Velocity 69
000000t:  Note off ::  Channel 9.  Note 36.  Velocity 81
000001t:  Note on ::  Channel 7.  Note 58.  Velocity 59
000011t:  Control change ::  Channel 2.  Controller 64.  Value: 0
000001t:  Note off ::  Channel 1.  Note 39.  Velocity 107
000007t:  Note off ::  Channel 7.  Note 58.  Velocity 59
000001t:  Note off ::  Channel 7.  Note 63.  Velocity 69
000000t:  Note off ::  Channel 7.  Note 67.  Velocity 70
000002t:  Note on ::  Channel 7.  Note 51.  Velocity 67
000000t:  Note on ::  Channel 7.  Note 58.  Velocity 67
000001t:  Note on ::  Channel 1.  Note 27.  Velocity 95
000000t:  Note on ::  Channel 7.  Note 63.  Velocity 76
000000t:  Note on ::  Channel 9.  Note 51.  Velocity 119
000000t:  Note on ::  Channel 9.  Note 36.  Velocity 127
000001t:  Note on ::  Channel 2.  Note 51.  Velocity 50
000000t:  Note on ::  Channel 2.  Note 55.  Velocity 66
000000t:  Note on ::  Channel 2.  Note 58.  Velocity 71
000000t:  Note on ::  Channel 7.  Note 67.  Velocity 64
000000t:  Note off ::  Channel 9.  Note 36.  Velocity 127
000000t:  Note off ::  Channel 9.  Note 51.  Velocity 119
000001t:  Note on ::  Channel 3.  Note 75.  Velocity 89
000006t:  Control change ::  Channel 2.  Controller 64.  Value: 127
000003t:  Note off ::  Channel 3.  Note 72.  Velocity 89
000005t:  Note off ::  Channel 7.  Note 63.  Velocity 76
000000t:  Note off ::  Channel 7.  Note 58.  Velocity 67
000002t:  Note off ::  Channel 7.  Note 51.  Velocity 67
000001t:  Note off ::  Channel 7.  Note 67.  Velocity 64
000004t:  Note on ::  Channel 7.  Note 58.  Velocity 80
000000t:  Note on ::  Channel 7.  Note 63.  Velocity 79
000000t:  Note on ::  Channel 9.  Note 40.  Velocity 107
000001t:  Note off ::  Channel 9.  Note 40.  Velocity 107
000001t:  Note on ::  Channel 7.  Note 67.  Velocity 84
000001t:  Note on ::  Channel 3.  Note 74.  Velocity 90
000002t:  Note off ::  Channel 3.  Note 75.  Velocity 89
000015t:  Note off ::  Channel 2.  Note 55.  Velocity 66
000001t:  Note off ::  Channel 2.  Note 58.  Velocity 71
000002t:  Note off ::  Channel 2.  Note 51.  Velocity 50
000002t:  Note on ::  Channel 9.  Note 51.  Velocity 119
000001t:  Note on ::  Channel 3.  Note 70.  Velocity 90
000000t:  Note off ::  Channel 9.  Note 51.  Velocity 119
000002t:  Note off ::  Channel 3.  Note 74.  Velocity 90
000004t:  Note off ::  Channel 1.  Note 27.  Velocity 95
000007t:  Note off ::  Channel 3.  Note 70.  Velocity 90
000003t:  Note off ::  Channel 7.  Note 58.  Velocity 80
000001t:  Note off ::  Channel 7.  Note 63.  Velocity 79
000002t:  Note off ::  Channel 7.  Note 67.  Velocity 84
000002t:  Note on ::  Channel 7.  Note 67.  Velocity 72
000001t:  Note on ::  Channel 7.  Note 63.  Velocity 71
000001t:  Note on ::  Channel 3.  Note 70.  Velocity 75
000000t:  Note on ::  Channel 7.  Note 58.  Velocity 68
000000t:  Note on ::  Channel 9.  Note 36.  Velocity 125
000001t:  Note on ::  Channel 1.  Note 27.  Velocity 64
000000t:  Note off ::  Channel 9.  Note 36.  Velocity 125
000002t:  Control change ::  Channel 2.  Controller 64.  Value: 0
000007t:  Note off ::  Channel 1.  Note 27.  Velocity 64
000007t:  Note off ::  Channel 7.  Note 67.  Velocity 72
000001t:  Note off ::  Channel 7.  Note 63.  Velocity 71
000001t:  Note off ::  Channel 7.  Note 58.  Velocity 68
000003t:  Note on ::  Channel 7.  Note 67.  Velocity 45
000001t:  Control change ::  Channel 2.  Controller 64.  Value: 127
000001t:  Note on ::  Channel 2.  Note 51.  Velocity 60
000000t:  Note on ::  Channel 2.  Note 55.  Velocity 70
000000t:  Note on ::  Channel 2.  Note 58.  Velocity 72
000000t:  Note on ::  Channel 7.  Note 63.  Velocity 54
000000t:  Note on ::  Channel 9.  Note 51.  Velocity 122
000000t:  Note on ::  Channel 9.  Note 40.  Velocity 127
000001t:  Note on ::  Channel 1.  Note 27.  Velocity 89
000000t:  Note on ::  Channel 3.  Note 72.  Velocity 93
000000t:  Note on ::  Channel 7.  Note 51.  Velocity 63
000000t:  Note on ::  Channel 7.  Note 58.  Velocity 69
000000t:  Note off ::  Channel 9.  Note 40.  Velocity 127
000000t:  Note off ::  Channel 9.  Note 51.  Velocity 122
000010t:  Note off ::  Channel 3.  Note 70.  Velocity 75
000000t:  Note off ::  Channel 7.  Note 67.  Velocity 45
000003t:  Note off ::  Channel 7.  Note 58.  Velocity 69
000000t:  Note off ::  Channel 7.  Note 63.  Velocity 54
000009t:  Note on ::  Channel 7.  Note 58.  Velocity 52
000001t:  Note on ::  Channel 7.  Note 63.  Velocity 40
000001t:  Note on ::  Channel 7.  Note 67.  Velocity 47
000008t:  Note off ::  Channel 3.  Note 72.  Velocity 93
000006t:  Note off ::  Channel 7.  Note 63.  Velocity 40
000002t:  Note off ::  Channel 7.  Note 67.  Velocity 47
000000t:  Note off ::  Channel 7.  Note 58.  Velocity 52
000003t:  Note off ::  Channel 7.  Note 51.  Velocity 63
000001t:  Note off ::  Channel 1.  Note 27.  Velocity 89
000000t:  Note off ::  Channel 2.  Note 51.  Velocity 60
000001t:  Note off ::  Channel 2.  Note 55.  Velocity 70
000000t:  Note on ::  Channel 7.  Note 67.  Velocity 75
000001t:  Note off ::  Channel 2.  Note 58.  Velocity 72
000000t:  Note on ::  Channel 9.  Note 51.  Velocity 107
000001t:  Note on ::  Channel 1.  Note 31.  Velocity 87
000000t:  Note on ::  Channel 7.  Note 63.  Velocity 78
000000t:  Note off ::  Channel 9.  Note 51.  Velocity 107
000001t:  Note on ::  Channel 3.  Note 74.  Velocity 94
000000t:  Note on ::  Channel 7.  Note 58.  Velocity 69
000021t:  Note on ::  Channel 9.  Note 36.  Velocity 100
000001t:  Note on ::  Channel 9.  Note 57.  Velocity 86
000000t:  Note off ::  Channel 9.  Note 36.  Velocity 100
000001t:  Note off ::  Channel 4.  Note 58.  Velocity 87
000000t:  Note off ::  Channel 9.  Note 57.  Velocity 86
000009t:  Control change ::  Channel 2.  Controller 64.  Value: 0
000006t:  Note on ::  Channel 5.  Note 65.  Velocity 74
000000t:  Note on ::  Channel 5.  Note 74.  Velocity 85
000001t:  Note off ::  Channel 7.  Note 67.  Velocity 75
000001t:  Note off ::  Channel 7.  Note 63.  Velocity 78
000001t:  Note on ::  Channel 4.  Note 58.  Velocity 72
000000t:  Note off ::  Channel 5.  Note 67.  Velocity 89
000000t:  Note off ::  Channel 7.  Note 58.  Velocity 69
000001t:  Note off ::  Channel 5.  Note 75.  Velocity 76
000001t:  Note off ::  Channel 1.  Note 31.  Velocity 87
000002t:  Note on ::  Channel 9.  Note 36.  Velocity 127
000001t:  Note on ::  Channel 7.  Note 46.  Velocity 72
000000t:  Note on ::  Channel 9.  Note 49.  Velocity 127
000000t:  Note off ::  Channel 9.  Note 36.  Velocity 127
000001t:  Note on ::  Channel 1.  Note 34.  Velocity 74
000000t:  Note on ::  Channel 2.  Note 46.  Velocity 42
000000t:  Note on ::  Channel 3.  Note 70.  Velocity 88
000000t:  Note on ::  Channel 7.  Note 62.  Velocity 72
000000t:  Note off ::  Channel 9.  Note 49.  Velocity 127
000001t:  Note on ::  Channel 2.  Note 53.  Velocity 67
000000t:  Note on ::  Channel 2.  Note 50.  Velocity 53
000000t:  Note on ::  Channel 7.  Note 65.  Velocity 61
000000t:  Note on ::  Channel 7.  Note 70.  Velocity 71
000005t:  Control change ::  Channel 2.  Controller 64.  Value: 127
000008t:  Note off ::  Channel 7.  Note 62.  Velocity 72
000006t:  Note off ::  Channel 7.  Note 70.  Velocity 71
000000t:  Note off ::  Channel 7.  Note 65.  Velocity 61
000002t:  Note on ::  Channel 7.  Note 70.  Velocity 68
000001t:  Note on ::  Channel 7.  Note 65.  Velocity 52
000004t:  Note off ::  Channel 3.  Note 74.  Velocity 94
000003t:  Note off ::  Channel 2.  Note 46.  Velocity 42
000009t:  Note off ::  Channel 2.  Note 53.  Velocity 67
000002t:  Note off ::  Channel 7.  Note 65.  Velocity 52
000002t:  Note off ::  Channel 7.  Note 70.  Velocity 68
000002t:  Note on ::  Channel 7.  Note 62.  Velocity 49
000001t:  Note on ::  Channel 7.  Note 65.  Velocity 60
000001t:  Note on ::  Channel 9.  Note 51.  Velocity 91
000001t:  Note off ::  Channel 9.  Note 51.  Velocity 91
000001t:  Note on ::  Channel 3.  Note 65.  Velocity 86
000003t:  Note on ::  Channel 7.  Note 70.  Velocity 44
000003t:  Note off ::  Channel 2.  Note 50.  Velocity 53
000008t:  Note off ::  Channel 1.  Note 34.  Velocity 74
000001t:  Note off ::  Channel 3.  Note 70.  Velocity 88
000000t:  Note off ::  Channel 7.  Note 62.  Velocity 49
000004t:  Note off ::  Channel 7.  Note 70.  Velocity 44
000000t:  Note off ::  Channel 7.  Note 46.  Velocity 72
000001t:  Note off ::  Channel 7.  Note 65.  Velocity 60
000000t:  Note on ::  Channel 7.  Note 70.  Velocity 68
000001t:  Note on ::  Channel 9.  Note 36.  Velocity 109
000001t:  Note off ::  Channel 9.  Note 36.  Velocity 109
000001t:  Note on ::  Channel 7.  Note 62.  Velocity 60
000000t:  Note on ::  Channel 7.  Note 65.  Velocity 67
000001t:  Note on ::  Channel 1.  Note 34.  Velocity 68
000007t:  Note off ::  Channel 1.  Note 34.  Velocity 68
000003t:  Control change ::  Channel 2.  Controller 64.  Value: 0
000011t:  Note on ::  Channel 9.  Note 51.  Velocity 119
000001t:  Note on ::  Channel 2.  Note 46.  Velocity 35
000000t:  Note on ::  Channel 9.  Note 40.  Velocity 127
000000t:  Note off ::  Channel 9.  Note 51.  Velocity 119
000001t:  Note on ::  Channel 3.  Note 70.  Velocity 85
000000t:  Note off ::  Channel 9.  Note 40.  Velocity 127
000001t:  Note on ::  Channel 1.  Note 34.  Velocity 107
000000t:  Note on ::  Channel 2.  Note 50.  Velocity 41
000000t:  Note on ::  Channel 2.  Note 53.  Velocity 59
000009t:  Control change ::  Channel 2.  Controller 64.  Value: 127
000000t:  Note off ::  Channel 3.  Note 65.  Velocity 86
000005t:  Note off ::  Channel 7.  Note 62.  Velocity 60
000004t:  Note off ::  Channel 7.  Note 70.  Velocity 68
000002t:  Note off ::  Channel 7.  Note 65.  Velocity 67
000002t:  Note on ::  Channel 7.  Note 70.  Velocity 56
000001t:  Note on ::  Channel 7.  Note 65.  Velocity 62
000001t:  Note on ::  Channel 7.  Note 62.  Velocity 54
000011t:  Note off ::  Channel 2.  Note 53.  Velocity 59
000001t:  Note off ::  Channel 2.  Note 46.  Velocity 35
000000t:  Note off ::  Channel 7.  Note 62.  Velocity 54
000001t:  Note off ::  Channel 2.  Note 50.  Velocity 41
000006t:  Note off ::  Channel 7.  Note 65.  Velocity 62
000001t:  Note off ::  Channel 7.  Note 70.  Velocity 56
000000t:  Note on ::  Channel 7.  Note 62.  Velocity 51
000001t:  Note on ::  Channel 7.  Note 65.  Velocity 59
000000t:  Note on ::  Channel 9.  Note 51.  Velocity 110
000001t:  Note on ::  Channel 7.  Note 70.  Velocity 52
000000t:  Note off ::  Channel 9.  Note 51.  Velocity 110
000001t:  Note on ::  Channel 3.  Note 72.  Velocity 85
000005t:  Note off ::  Channel 3.  Note 70.  Velocity 85
000012t:  Note off ::  Channel 7.  Note 62.  Velocity 51
000002t:  Note off ::  Channel 7.  Note 65.  Velocity 59
000002t:  Note off ::  Channel 7.  Note 70.  Velocity 52
000001t:  Note on ::  Channel 7.  Note 70.  Velocity 78
000001t:  Note on ::  Channel 7.  Note 65.  Velocity 64
000000t:  Note on ::  Channel 9.  Note 36.  Velocity 80
000001t:  Note off ::  Channel 1.  Note 34.  Velocity 107
000000t:  Note on ::  Channel 7.  Note 62.  Velocity 59
000000t:  Note off ::  Channel 9.  Note 36.  Velocity 80
000008t:  Note off ::  Channel 7.  Note 62.  Velocity 59
000005t:  Control change ::  Channel 2.  Controller 64.  Value: 0
000001t:  Note off ::  Channel 7.  Note 70.  Velocity 78
000001t:  Note off ::  Channel 7.  Note 65.  Velocity 64
000006t:  Note on ::  Channel 7.  Note 46.  Velocity 67
000001t:  Note on ::  Channel 9.  Note 36.  Velocity 125
000000t:  Note on ::  Channel 9.  Note 51.  Velocity 119
000001t:  Note off ::  Channel 9.  Note 51.  Velocity 119
000000t:  Note off ::  Channel 9.  Note 36.  Velocity 125
000001t:  Note on ::  Channel 1.  Note 34.  Velocity 105
000000t:  Note on ::  Channel 3.  Note 75.  Velocity 84
000000t:  Note on ::  Channel 7.  Note 62.  Velocity 67
000001t:  Note on ::  Channel 2.  Note 58.  Velocity 62
000000t:  Note on ::  Channel 2.  Note 50.  Velocity 58
000000t:  Note on ::  Channel 2.  Note 53.  Velocity 49
000000t:  Note on ::  Channel 7.  Note 65.  Velocity 76
000002t:  Note on ::  Channel 7.  Note 70.  Velocity 80
000004t:  Control change ::  Channel 2.  Controller 64.  Value: 127
000006t:  Note off ::  Channel 3.  Note 72.  Velocity 85
000012t:  Note on ::  Channel 3.  Note 74.  Velocity 93
000012t:  Note off ::  Channel 3.  Note 75.  Velocity 84
000003t:  Note off ::  Channel 7.  Note 62.  Velocity 67
000001t:  Note off ::  Channel 7.  Note 65.  Velocity 76
000004t:  Note off ::  Channel 2.  Note 53.  Velocity 49
000000t:  Note off ::  Channel 7.  Note 70.  Velocity 80
000001t:  Note on ::  Channel 7.  Note 62.  Velocity 33
000000t:  Note on ::  Channel 9.  Note 51.  Velocity 116
000001t:  Note off ::  Channel 2.  Note 58.  Velocity 62
000000t:  Note off ::  Channel 9.  Note 51.  Velocity 116
000001t:  Note on ::  Channel 3.  Note 72.  Velocity 93
000000t:  Note on ::  Channel 7.  Note 65.  Velocity 64
000000t:  Note on ::  Channel 7.  Note 70.  Velocity 76
000003t:  Note off ::  Channel 3.  Note 74.  Velocity 93
000005t:  Note off ::  Channel 1.  Note 34.  Velocity 105
000000t:  Note off ::  Channel 2.  Note 50.  Velocity 58
000011t:  Note off ::  Channel 7.  Note 46.  Velocity 67
000003t:  Note on ::  Channel 9.  Note 36.  Velocity 102
000001t:  Note off ::  Channel 9.  Note 36.  Velocity 102
000001t:  Note on ::  Channel 3.  Note 70.  Velocity 92
000001t:  Note on ::  Channel 1.  Note 34.  Velocity 87
000002t:  Note off ::  Channel 3.  Note 72.  Velocity 93
000004t:  Note off ::  Channel 1.  Note 34.  Velocity 87
000004t:  Control change ::  Channel 2.  Controller 64.  Value: 0
000005t:  Note off ::  Channel 7.  Note 62.  Velocity 33
000003t:  Note off ::  Channel 7.  Note 70.  Velocity 76
000000t:  Note off ::  Channel 7.  Note 65.  Velocity 64
000003t:  Note on ::  Channel 7.  Note 62.  Velocity 33
000000t:  Note on ::  Channel 9.  Note 40.  Velocity 127
000001t:  Note on ::  Channel 9.  Note 51.  Velocity 119
000000t:  Note off ::  Channel 9.  Note 40.  Velocity 127
000001t:  Note on ::  Channel 1.  Note 34.  Velocity 98
000000t:  Note on ::  Channel 3.  Note 72.  Velocity 92
000000t:  Note on ::  Channel 7.  Note 65.  Velocity 64
000000t:  Note on ::  Channel 7.  Note 70.  Velocity 76
000000t:  Note off ::  Channel 9.  Note 51.  Velocity 119
000001t:  Note on ::  Channel 2.  Note 58.  Velocity 71
000000t:  Note on ::  Channel 2.  Note 50.  Velocity 49
000000t:  Note on ::  Channel 2.  Note 53.  Velocity 59
000005t:  Note off ::  Channel 3.  Note 70.  Velocity 92
000001t:  Control change ::  Channel 2.  Controller 64.  Value: 127
000008t:  Note off ::  Channel 7.  Note 62.  Velocity 33
000004t:  Note off ::  Channel 7.  Note 70.  Velocity 76
000000t:  Note off ::  Channel 7.  Note 65.  Velocity 64
000004t:  Note on ::  Channel 7.  Note 70.  Velocity 92
000001t:  Note on ::  Channel 3.  Note 74.  Velocity 97
000000t:  Note on ::  Channel 7.  Note 65.  Velocity 81
000001t:  Note on ::  Channel 7.  Note 62.  Velocity 71
000008t:  Note off ::  Channel 3.  Note 72.  Velocity 92
000009t:  Note off ::  Channel 1.  Note 34.  Velocity 98
000002t:  Note off ::  Channel 2.  Note 50.  Velocity 49
000003t:  Note on ::  Channel 1.  Note 26.  Velocity 98
000000t:  Note on ::  Channel 9.  Note 51.  Velocity 119
000001t:  Note off ::  Channel 9.  Note 51.  Velocity 119
000004t:  Note off ::  Channel 2.  Note 53.  Velocity 59
000001t:  Note off ::  Channel 2.  Note 58.  Velocity 71
000009t:  Note off ::  Channel 7.  Note 62.  Velocity 71
000007t:  Note off ::  Channel 7.  Note 65.  Velocity 81
000000t:  Note off ::  Channel 7.  Note 70.  Velocity 92
000001t:  Note on ::  Channel 7.  Note 70.  Velocity 82
000001t:  Note on ::  Channel 7.  Note 65.  Velocity 71
000001t:  Note on ::  Channel 7.  Note 62.  Velocity 68
000007t:  Control change ::  Channel 2.  Controller 64.  Value: 0
000009t:  Note off ::  Channel 7.  Note 62.  Velocity 68
000002t:  Note on ::  Channel 5.  Note 75.  Velocity 74
000000t:  Note on ::  Channel 5.  Note 67.  Velocity 93
000001t:  Note off ::  Channel 5.  Note 65.  Velocity 74
000001t:  Note off ::  Channel 1.  Note 26.  Velocity 98
000000t:  Note off ::  Channel 7.  Note 70.  Velocity 82
000001t:  Note off ::  Channel 5.  Note 74.  Velocity 85
000000t:  Note off ::  Channel 7.  Note 65.  Velocity 71
000000t:  Note on ::  Channel 7.  Note 51.  Velocity 67
000002t:  Note on ::  Channel 9.  Note 36.  Velocity 127
000000t:  Note on ::  Channel 9.  Note 49.  Velocity 116
000001t:  Note on ::  Channel 1.  Note 27.  Velocity 100
000000t:  Note on ::  Channel 2.  Note 51.  Velocity 54
000000t:  Note on ::  Channel 2.  Note 55.  Velocity 58
000000t:  Note on ::  Channel 2.  Note 58.  Velocity 59
000000t:  Note on ::  Channel 7.  Note 63.  Velocity 67
000000t:  Note off ::  Channel 9.  Note 49.  Velocity 116
000000t:  Note off ::  Channel 9.  Note 36.  Velocity 127
000001t:  Note on ::  Channel 3.  Note 70.  Velocity 74
000000t:  Note on ::  Channel 7.  Note 67.  Velocity 76
000002t:  Note on ::  Channel 7.  Note 70.  Velocity 64
000001t:  Control change ::  Channel 2.  Controller 64.  Value: 127
000004t:  Note off ::  Channel 3.  Note 74.  Velocity 97
000032t:  Note off ::  Channel 2.  Note 55.  Velocity 58
000000t:  Note off ::  Channel 7.  Note 63.  Velocity 67
000001t:  Note off ::  Channel 7.  Note 67.  Velocity 76
000002t:  Note off ::  Channel 2.  Note 58.  Velocity 59
000002t:  Note off ::  Channel 7.  Note 70.  Velocity 64
000001t:  Note off ::  Channel 2.  Note 51.  Velocity 54
000000t:  Note on ::  Channel 7.  Note 63.  Velocity 76
000000t:  Note on ::  Channel 9.  Note 51.  Velocity 107
000001t:  Note off ::  Channel 9.  Note 51.  Velocity 107
000001t:  Note on ::  Channel 3.  Note 82.  Velocity 101
000000t:  Note on ::  Channel 7.  Note 67.  Velocity 85
000000t:  Note on ::  Channel 7.  Note 70.  Velocity 82
000007t:  Note off ::  Channel 3.  Note 70.  Velocity 74
000003t:  Note off ::  Channel 1.  Note 27.  Velocity 100
000013t:  Control change ::  Channel 2.  Controller 64.  Value: 0
000002t:  Note on ::  Channel 1.  Note 27.  Velocity 62
000005t:  Note off ::  Channel 1.  Note 27.  Velocity 62
000011t:  Control change ::  Channel 2.  Controller 64.  Value: 127
000002t:  Note off ::  Channel 7.  Note 70.  Velocity 82
000000t:  Note off ::  Channel 7.  Note 67.  Velocity 85
000002t:  Note off ::  Channel 7.  Note 63.  Velocity 76
000001t:  Note on ::  Channel 7.  Note 63.  Velocity 57
000001t:  Note on ::  Channel 9.  Note 55.  Velocity 110
000000t:  Note on ::  Channel 9.  Note 40.  Velocity 122
000001t:  Note on ::  Channel 3.  Note 70.  Velocity 84
000000t:  Note on ::  Channel 7.  Note 67.  Velocity 71
000000t:  Note on ::  Channel 7.  Note 70.  Velocity 73
000000t:  Note off ::  Channel 9.  Note 40.  Velocity 122
000000t:  Note off ::  Channel 9.  Note 55.  Velocity 110
000001t:  Note on ::  Channel 1.  Note 27.  Velocity 119
000000t:  Note on ::  Channel 2.  Note 51.  Velocity 51
000000t:  Note on ::  Channel 2.  Note 55.  Velocity 57
000000t:  Note on ::  Channel 2.  Note 58.  Velocity 57
000000t:  Note off ::  Channel 3.  Note 82.  Velocity 101
000016t:  Note off ::  Channel 7.  Note 63.  Velocity 57
000001t:  Note off ::  Channel 7.  Note 70.  Velocity 73
000001t:  Note off ::  Channel 7.  Note 67.  Velocity 71
000004t:  Note on ::  Channel 7.  Note 63.  Velocity 84
000001t:  Note on ::  Channel 7.  Note 67.  Velocity 85
000001t:  Note on ::  Channel 3.  Note 72.  Velocity 93
000000t:  Note on ::  Channel 7.  Note 70.  Velocity 76
000004t:  Note off ::  Channel 3.  Note 70.  Velocity 84
000014t:  Note off ::  Channel 2.  Note 58.  Velocity 57
000001t:  Note off ::  Channel 1.  Note 27.  Velocity 119
000000t:  Note off ::  Channel 2.  Note 55.  Velocity 57
000002t:  Note off ::  Channel 2.  Note 51.  Velocity 51
000002t:  Note on ::  Channel 1.  Note 39.  Velocity 110
000000t:  Note on ::  Channel 9.  Note 51.  Velocity 93
000001t:  Note off ::  Channel 9.  Note 51.  Velocity 93
000004t:  Note off ::  Channel 7.  Note 51.  Velocity 67
000009t:  Control change ::  Channel 2.  Controller 64.  Value: 0
000006t:  Note off ::  Channel 7.  Note 70.  Velocity 76
000000t:  Note off ::  Channel 7.  Note 67.  Velocity 85
000000t:  Note off ::  Channel 7.  Note 63.  Velocity 84
000002t:  Note on ::  Channel 7.  Note 70.  Velocity 63
000001t:  Note on ::  Channel 7.  Note 67.  Velocity 66
000001t:  Note off ::  Channel 3.  Note 72.  Velocity 93
000000t:  Note on ::  Channel 3.  Note 70.  Velocity 81
000000t:  Note on ::  Channel 7.  Note 63.  Velocity 64
000000t:  Note on ::  Channel 9.  Note 36.  Velocity 72
000001t:  Note off ::  Channel 9.  Note 36.  Velocity 72
000010t:  Control change ::  Channel 2.  Controller 64.  Value: 127
000005t:  Note on ::  Channel 5.  Note 65.  Velocity 74
000002t:  Note on ::  Channel 5.  Note 74.  Velocity 87
000001t:  Note off ::  Channel 7.  Note 70.  Velocity 63
000002t:  Note off ::  Channel 7.  Note 63.  Velocity 64
000000t:  Note off ::  Channel 7.  Note 67.  Velocity 66
000001t:  Note off ::  Channel 5.  Note 75.  Velocity 74
000000t:  Note on ::  Channel 7.  Note 50.  Velocity 75
000000t:  Note on ::  Channel 7.  Note 58.  Velocity 68
000001t:  Note on ::  Channel 9.  Note 51.  Velocity 119
000001t:  Note off ::  Channel 1.  Note 39.  Velocity 110
000000t:  Note on ::  Channel 1.  Note 38.  Velocity 89
000000t:  Note on ::  Channel 7.  Note 65.  Velocity 79
000000t:  Note on ::  Channel 7.  Note 70.  Velocity 82
000000t:  Note on ::  Channel 9.  Note 36.  Velocity 127
000000t:  Note off ::  Channel 9.  Note 51.  Velocity 119
000001t:  Note on ::  Channel 2.  Note 53.  Velocity 50
000000t:  Note on ::  Channel 2.  Note 50.  Velocity 39
000000t:  Note on ::  Channel 2.  Note 58.  Velocity 58
000000t:  Note off ::  Channel 9.  Note 36.  Velocity 127
000001t:  Note off ::  Channel 5.  Note 67.  Velocity 93
000028t:  Note off ::  Channel 7.  Note 58.  Velocity 68
000013t:  Note off ::  Channel 7.  Note 70.  Velocity 82
000000t:  Note off ::  Channel 7.  Note 65.  Velocity 79
000004t:  Note on ::  Channel 7.  Note 58.  Velocity 61
000000t:  Note on ::  Channel 9.  Note 51.  Velocity 116
000001t:  Note on ::  Channel 7.  Note 65.  Velocity 74
000000t:  Note off ::  Channel 9.  Note 51.  Velocity 116
000001t:  Note on ::  Channel 7.  Note 70.  Velocity 52
000003t:  Note off ::  Channel 2.  Note 53.  Velocity 50
000001t:  Note off ::  Channel 2.  Note 58.  Velocity 58
000001t:  Note off ::  Channel 1.  Note 38.  Velocity 89
000005t:  Note off ::  Channel 7.  Note 50.  Velocity 75
000001t:  Note off ::  Channel 2.  Note 50.  Velocity 39
000000t:  Note off ::  Channel 7.  Note 58.  Velocity 61
000006t:  Note off ::  Channel 7.  Note 70.  Velocity 52
000002t:  Note off ::  Channel 7.  Note 65.  Velocity 74
000002t:  Note on ::  Channel 7.  Note 50.  Velocity 75
000000t:  Note on ::  Channel 7.  Note 70.  Velocity 82
000000t:  Note on ::  Channel 9.  Note 36.  Velocity 107
000001t:  Note on ::  Channel 7.  Note 65.  Velocity 74
000000t:  Note off ::  Channel 9.  Note 36.  Velocity 107
000001t:  Note on ::  Channel 1.  Note 38.  Velocity 59
000000t:  Note on ::  Channel 7.  Note 58.  Velocity 78
000007t:  Note off ::  Channel 1.  Note 38.  Velocity 59
000015t:  Note off ::  Channel 7.  Note 58.  Velocity 78
000000t:  Note off ::  Channel 7.  Note 65.  Velocity 74
000000t:  Note off ::  Channel 7.  Note 70.  Velocity 82
000000t:  Note on ::  Channel 9.  Note 51.  Velocity 119
000001t:  Note on ::  Channel 9.  Note 40.  Velocity 127
000000t:  Note off ::  Channel 9.  Note 51.  Velocity 119
000001t:  Note on ::  Channel 2.  Note 58.  Velocity 63
000000t:  Note off ::  Channel 9.  Note 40.  Velocity 127
000001t:  Note on ::  Channel 1.  Note 38.  Velocity 107
000000t:  Note on ::  Channel 2.  Note 53.  Velocity 55
000000t:  Note on ::  Channel 2.  Note 50.  Velocity 51
000020t:  Note on ::  Channel 7.  Note 70.  Velocity 94
000001t:  Note on ::  Channel 7.  Note 65.  Velocity 71
000001t:  Note on ::  Channel 7.  Note 58.  Velocity 60
000006t:  Note off ::  Channel 3.  Note 70.  Velocity 81
000012t:  Note off ::  Channel 7.  Note 58.  Velocity 60
000000t:  Note off ::  Channel 7.  Note 65.  Velocity 71
000002t:  Note off ::  Channel 7.  Note 70.  Velocity 94
000003t:  Note on ::  Channel 7.  Note 58.  Velocity 33
000001t:  Note on ::  Channel 9.  Note 51.  Velocity 119
000001t:  Note on ::  Channel 3.  Note 70.  Velocity 99
000000t:  Note on ::  Channel 7.  Note 65.  Velocity 64
000000t:  Note on ::  Channel 7.  Note 70.  Velocity 59
000000t:  Note off ::  Channel 9.  Note 51.  Velocity 119
000011t:  Note off ::  Channel 7.  Note 50.  Velocity 75
000008t:  Note off ::  Channel 7.  Note 70.  Velocity 59
000000t:  Note off ::  Channel 7.  Note 65.  Velocity 64
000002t:  Note off ::  Channel 7.  Note 58.  Velocity 33
000002t:  Note on ::  Channel 7.  Note 70.  Velocity 70
000001t:  Note off ::  Channel 2.  Note 50.  Velocity 51
000000t:  Note off ::  Channel 2.  Note 53.  Velocity 55
000000t:  Note on ::  Channel 3.  Note 67.  Velocity 91
000000t:  Note on ::  Channel 7.  Note 65.  Velocity 69
000001t:  Note off ::  Channel 3.  Note 70.  Velocity 99
000000t:  Note on ::  Channel 7.  Note 58.  Velocity 59
000002t:  Note off ::  Channel 2.  Note 58.  Velocity 63
000011t:  Note off ::  Channel 7.  Note 70.  Velocity 70
000002t:  Note off ::  Channel 1.  Note 38.  Velocity 107
000001t:  Note off ::  Channel 7.  Note 65.  Velocity 69
000003t:  Note on ::  Channel 4.  Note 60.  Velocity 78
000000t:  Note on ::  Channel 5.  Note 72.  Velocity 93
000000t:  Note on ::  Channel 5.  Note 64.  Velocity 72
000000t:  Note off ::  Channel 7.  Note 58.  Velocity 59
000001t:  Note off ::  Channel 4.  Note 58.  Velocity 72
000000t:  Note on ::  Channel 7.  Note 48.  Velocity 67
000001t:  Note off ::  Channel 5.  Note 74.  Velocity 87
000001t:  Note on ::  Channel 9.  Note 36.  Velocity 127
000000t:  Note on ::  Channel 9.  Note 49.  Velocity 127
000001t:  Note on ::  Channel 2.  Note 58.  Velocity 67
000000t:  Control change ::  Channel 2.  Controller 64.  Value: 0
000000t:  Note on ::  Channel 2.  Note 52.  Velocity 60
000000t:  Note on ::  Channel 3.  Note 74.  Velocity 109
000000t:  Note off ::  Channel 5.  Note 65.  Velocity 74
000000t:  Note on ::  Channel 7.  Note 64.  Velocity 67
000000t:  Note off ::  Channel 9.  Note 49.  Velocity 127
000000t:  Note off ::  Channel 9.  Note 36.  Velocity 127
000001t:  Note on ::  Channel 1.  Note 36.  Velocity 87
000000t:  Note on ::  Channel 2.  Note 48.  Velocity 56
000000t:  Note on ::  Channel 7.  Note 67.  Velocity 76
000002t:  Note on ::  Channel 7.  Note 70.  Velocity 80
000007t:  Note off ::  Channel 3.  Note 67.  Velocity 91
000012t:  Control change ::  Channel 2.  Controller 64.  Value: 127
000002t:  Note on ::  Channel 3.  Note 70.  Velocity 83
000013t:  Note off ::  Channel 2.  Note 52.  Velocity 60
000004t:  Note off ::  Channel 7.  Note 67.  Velocity 76
000000t:  Note off ::  Channel 7.  Note 64.  Velocity 67
000002t:  Note off ::  Channel 2.  Note 48.  Velocity 56
000001t:  Note off ::  Channel 2.  Note 58.  Velocity 67
000001t:  Note off ::  Channel 7.  Note 70.  Velocity 80
000001t:  Note on ::  Channel 7.  Note 64.  Velocity 58
000001t:  Note off ::  Channel 3.  Note 74.  Velocity 109
000001t:  Note on ::  Channel 7.  Note 67.  Velocity 64
000000t:  Note on ::  Channel 7.  Note 70.  Velocity 76
000000t:  Note on ::  Channel 9.  Note 51.  Velocity 95
000001t:  Note on ::  Channel 3.  Note 72.  Velocity 93
000000t:  Note off ::  Channel 9.  Note 51.  Velocity 95
000002t:  Note off ::  Channel 3.  Note 70.  Velocity 83
000004t:  Note off ::  Channel 1.  Note 36.  Velocity 87
000012t:  Note off ::  Channel 7.  Note 48.  Velocity 67
000004t:  Note on ::  Channel 9.  Note 36.  Velocity 107
000001t:  Note on ::  Channel 1.  Note 36.  Velocity 58
000000t:  Note off ::  Channel 9.  Note 36.  Velocity 107
000008t:  Note off ::  Channel 1.  Note 36.  Velocity 58
000009t:  Note off ::  Channel 7.  Note 64.  Velocity 58
000002t:  Note off ::  Channel 7.  Note 70.  Velocity 76
000000t:  Note off ::  Channel 7.  Note 67.  Velocity 64
000002t:  Note on ::  Channel 7.  Note 48.  Velocity 48
000001t:  Note on ::  Channel 7.  Note 64.  Velocity 65
000002t:  Note on ::  Channel 1.  Note 36.  Velocity 85
000000t:  Note on ::  Channel 7.  Note 67.  Velocity 72
000000t:  Note on ::  Channel 7.  Note 70.  Velocity 69
000000t:  Note on ::  Channel 9.  Note 40.  Velocity 127
000000t:  Note on ::  Channel 9.  Note 51.  Velocity 122
000001t:  Note on ::  Channel 2.  Note 52.  Velocity 56
000000t:  Note on ::  Channel 2.  Note 58.  Velocity 71
000000t:  Control change ::  Channel 6.  Controller 11.  Value: 0
000000t:  Note off ::  Channel 9.  Note 51.  Velocity 122
000000t:  Note off ::  Channel 9.  Note 40.  Velocity 127
000001t:  Note on ::  Channel 2.  Note 48.  Velocity 52
000005t:  Control change ::  Channel 2.  Controller 64.  Value: 0
000012t:  Note off ::  Channel 7.  Note 70.  Velocity 69
000000t:  Note off ::  Channel 7.  Note 67.  Velocity 72
000002t:  Note off ::  Channel 3.  Note 72.  Velocity 93
000000t:  Note off ::  Channel 7.  Note 64.  Velocity 65
000002t:  Note on ::  Channel 7.  Note 70.  Velocity 58
000001t:  Control change ::  Channel 2.  Controller 64.  Value: 127
000000t:  Note on ::  Channel 3.  Note 74.  Velocity 96
000000t:  Note on ::  Channel 7.  Note 67.  Velocity 47
000001t:  Note on ::  Channel 7.  Note 64.  Velocity 52
000011t:  Note off ::  Channel 3.  Note 74.  Velocity 96
000002t:  Note off ::  Channel 2.  Note 52.  Velocity 56
000002t:  Note off ::  Channel 7.  Note 70.  Velocity 58
000001t:  Note off ::  Channel 7.  Note 67.  Velocity 47
000001t:  Note off ::  Channel 2.  Note 48.  Velocity 52
000001t:  Note on ::  Channel 3.  Note 72.  Velocity 82
000000t:  Note off ::  Channel 7.  Note 64.  Velocity 52
000001t:  Note off ::  Channel 2.  Note 58.  Velocity 71
000002t:  Note off ::  Channel 1.  Note 36.  Velocity 85
000000t:  Note on ::  Channel 7.  Note 64.  Velocity 56
000001t:  Note on ::  Channel 7.  Note 67.  Velocity 58
000001t:  Note on ::  Channel 1.  Note 34.  Velocity 68
000000t:  Note on ::  Channel 7.  Note 70.  Velocity 70
000000t:  Note on ::  Channel 9.  Note 51.  Velocity 102
000001t:  Note on ::  Channel 3.  Note 70.  Velocity 78
000000t:  Note off ::  Channel 9.  Note 51.  Velocity 102
000011t:  Note off ::  Channel 3.  Note 72.  Velocity 82
000007t:  Note off ::  Channel 7.  Note 48.  Velocity 48
000001t:  Note off ::  Channel 7.  Note 64.  Velocity 56
000001t:  Note off ::  Channel 7.  Note 67.  Velocity 58
000001t:  Note off ::  Channel 7.  Note 70.  Velocity 70
000000t:  Note on ::  Channel 7.  Note 70.  Velocity 80
000001t:  Note on ::  Channel 7.  Note 67.  Velocity 73
000001t:  Note off ::  Channel 1.  Note 34.  Velocity 68
000000t:  Note on ::  Channel 1.  Note 36.  Velocity 54
000000t:  Note on ::  Channel 7.  Note 64.  Velocity 86
000001t:  Note on ::  Channel 9.  Note 36.  Velocity 107
000001t:  Note off ::  Channel 9.  Note 36.  Velocity 107
000008t:  Note off ::  Channel 1.  Note 36.  Velocity 54
000013t:  Note on ::  Channel 6.  Note 82.  Velocity 127
000001t:  Note on ::  Channel 1.  Note 36.  Velocity 91
000000t:  Note on ::  Channel 6.  Note 70.  Velocity 127
000001t:  Note on ::  Channel 2.  Note 48.  Velocity 61
000000t:  Note on ::  Channel 2.  Note 52.  Velocity 50
000000t:  Note on ::  Channel 2.  Note 58.  Velocity 69
000000t:  Note on ::  Channel 9.  Note 51.  Velocity 122
000000t:  Note on ::  Channel 9.  Note 36.  Velocity 127
000001t:  Note off ::  Channel 9.  Note 36.  Velocity 127
000000t:  Note off ::  Channel 9.  Note 51.  Velocity 122
000006t:  Control change ::  Channel 2.  Controller 64.  Value: 0
000013t:  Note off ::  Channel 7.  Note 67.  Velocity 73
000001t:  Note off ::  Channel 7.  Note 64.  Velocity 86
000001t:  Note off ::  Channel 7.  Note 70.  Velocity 80
000000t:  Note on ::  Channel 7.  Note 70.  Velocity 61
000001t:  Note on ::  Channel 7.  Note 67.  Velocity 48
000001t:  Note on ::  Channel 7.  Note 64.  Velocity 45
000000t:  Note on ::  Channel 9.  Note 48.  Velocity 102
000001t:  Note off ::  Channel 9.  Note 48.  Velocity 102
000001t:  Control change ::  Channel 2.  Controller 64.  Value: 127
000005t:  Control change ::  Channel 6.  Controller 11.  Value: 1
000002t:  Control change ::  Channel 6.  Controller 11.  Value: 2
000001t:  Note off ::  Channel 2.  Note 52.  Velocity 50
000001t:  Control change ::  Channel 6.  Controller 11.  Value: 3
000001t:  Control change ::  Channel 6.  Controller 11.  Value: 4
000001t:  Note off ::  Channel 2.  Note 58.  Velocity 69
000000t:  Control change ::  Channel 6.  Controller 11.  Value: 5
000002t:  Control change ::  Channel 6.  Controller 11.  Value: 6
000000t:  Note off ::  Channel 7.  Note 70.  Velocity 61
000001t:  Note off ::  Channel 7.  Note 67.  Velocity 48
000002t:  Control change ::  Channel 6.  Controller 11.  Value: 7
000000t:  Note off ::  Channel 7.  Note 64.  Velocity 45
000002t:  Note off ::  Channel 2.  Note 48.  Velocity 61
000001t:  Control change ::  Channel 6.  Controller 11.  Value: 8
000000t:  Note on ::  Channel 7.  Note 64.  Velocity 82
000001t:  Note on ::  Channel 7.  Note 67.  Velocity 71
000001t:  Control change ::  Channel 6.  Controller 11.  Value: 9
000000t:  Note on ::  Channel 7.  Note 70.  Velocity 68
000001t:  Note on ::  Channel 9.  Note 47.  Velocity 127
000001t:  Control change ::  Channel 6.  Controller 11.  Value: 10
000000t:  Control change ::  Channel 6.  Controller 11.  Value: 11
000000t:  Note off ::  Channel 9.  Note 47.  Velocity 127
000002t:  Note off ::  Channel 1.  Note 36.  Velocity 91
000000t:  Control change ::  Channel 6.  Controller 11.  Value: 12
000002t:  Control change ::  Channel 6.  Controller 11.  Value: 13
000002t:  Control change ::  Channel 6.  Controller 11.  Value: 14
000001t:  Control change ::  Channel 6.  Controller 11.  Value: 15
000002t:  Control change ::  Channel 6.  Controller 11.  Value: 16
000002t:  Control change ::  Channel 6.  Controller 11.  Value: 17
000001t:  Control change ::  Channel 6.  Controller 11.  Value: 18
000002t:  Control change ::  Channel 6.  Controller 11.  Value: 19
000002t:  Control change ::  Channel 6.  Controller 11.  Value: 20
000002t:  Control change ::  Channel 6.  Controller 11.  Value: 21
000000t:  Note off ::  Channel 7.  Note 70.  Velocity 68
000001t:  Note off ::  Channel 7.  Note 67.  Velocity 71
000001t:  Pitch wheel change ::  Channel 6.   -8192
000000t:  Control change ::  Channel 6.  Controller 11.  Value: 22
000000t:  Note on ::  Channel 7.  Note 70.  Velocity 82
000001t:  Note on ::  Channel 1.  Note 36.  Velocity 55
000000t:  Control change ::  Channel 6.  Controller 11.  Value: 23
000000t:  Pitch wheel change ::  Channel 6.   -8192
000000t:  Note on ::  Channel 7.  Note 67.  Velocity 82
000001t:  Note off ::  Channel 7.  Note 64.  Velocity 82
000000t:  Note on ::  Channel 7.  Note 64.  Velocity 84
000001t:  Pitch wheel change ::  Channel 6.   -8192
000000t:  Note on ::  Channel 9.  Note 36.  Velocity 127
000001t:  Note off ::  Channel 9.  Note 36.  Velocity 127
000001t:  Control change ::  Channel 6.  Controller 11.  Value: 24
000002t:  Control change ::  Channel 6.  Controller 11.  Value: 25
000002t:  Note off ::  Channel 1.  Note 36.  Velocity 55
000000t:  Pitch wheel change ::  Channel 6.   -8192
000000t:  Control change ::  Channel 6.  Controller 11.  Value: 26
000001t:  Pitch wheel change ::  Channel 6.   -8192
000000t:  Control change ::  Channel 6.  Controller 11.  Value: 27
000001t:  Control change ::  Channel 6.  Controller 11.  Value: 28
000001t:  Pitch wheel change ::  Channel 6.   -8192
000000t:  Control change ::  Channel 6.  Controller 11.  Value: 29
000002t:  Control change ::  Channel 6.  Controller 11.  Value: 30
000000t:  Pitch wheel change ::  Channel 6.   -8192
000001t:  Control change ::  Channel 6.  Controller 11.  Value: 31
000001t:  Control change ::  Channel 6.  Controller 11.  Value: 32
000001t:  Pitch wheel change ::  Channel 6.   -8192
000001t:  Control change ::  Channel 6.  Controller 11.  Value: 33
000001t:  Control change ::  Channel 6.  Controller 11.  Value: 34
000001t:  Control change ::  Channel 6.  Controller 11.  Value: 35
000001t:  Pitch wheel change ::  Channel 6.   -8192
000000t:  Control change ::  Channel 6.  Controller 11.  Value: 36
000001t:  Control change ::  Channel 6.  Controller 11.  Value: 37
000001t:  Control change ::  Channel 6.  Controller 11.  Value: 38
000001t:  Control change ::  Channel 6.  Controller 11.  Value: 39
000002t:  Note on ::  Channel 1.  Note 36.  Velocity 93
000000t:  Note on ::  Channel 2.  Note 58.  Velocity 76
000000t:  Control change ::  Channel 6.  Controller 11.  Value: 40
000001t:  Note on ::  Channel 2.  Note 48.  Velocity 57
000000t:  Note on ::  Channel 2.  Note 52.  Velocity 48
000000t:  Control change ::  Channel 6.  Controller 11.  Value: 41
000000t:  Note on ::  Channel 9.  Note 47.  Velocity 119
000000t:  Note on ::  Channel 9.  Note 45.  Velocity 106
000001t:  Pitch wheel change ::  Channel 6.   -8192
000000t:  Note off ::  Channel 9.  Note 45.  Velocity 106
000000t:  Note off ::  Channel 9.  Note 47.  Velocity 119
000001t:  Control change ::  Channel 6.  Controller 11.  Value: 42
000000t:  Pitch wheel change ::  Channel 6.   -8192
000001t:  Note off ::  Channel 3.  Note 70.  Velocity 78
000000t:  Control change ::  Channel 6.  Controller 11.  Value: 43
000002t:  Control change ::  Channel 6.  Controller 11.  Value: 44
000000t:  Pitch wheel change ::  Channel 6.   -8192
000002t:  Control change ::  Channel 6.  Controller 11.  Value: 45
000001t:  Control change ::  Channel 2.  Controller 64.  Value: 0
000000t:  Control change ::  Channel 6.  Controller 11.  Value: 46
000001t:  Control change ::  Channel 6.  Controller 11.  Value: 47
000001t:  Pitch wheel change ::  Channel 6.   -8192
000000t:  Control change ::  Channel 6.  Controller 11.  Value: 48
000001t:  Control change ::  Channel 6.  Controller 11.  Value: 49
000001t:  Control change ::  Channel 6.  Controller 11.  Value: 50
000001t:  Control change ::  Channel 6.  Controller 11.  Value: 51
000001t:  Control change ::  Channel 6.  Controller 11.  Value: 52
000001t:  Pitch wheel change ::  Channel 6.   -8192
000000t:  Control change ::  Channel 6.  Controller 11.  Value: 53
000001t:  Control change ::  Channel 6.  Controller 11.  Value: 54
000000t:  Note off ::  Channel 7.  Note 67.  Velocity 82
000000t:  Note off ::  Channel 7.  Note 70.  Velocity 82
000001t:  Control change ::  Channel 6.  Controller 11.  Value: 55
000001t:  Pitch wheel change ::  Channel 6.   -8192
000000t:  Note off ::  Channel 7.  Note 64.  Velocity 84
000001t:  Control change ::  Channel 6.  Controller 11.  Value: 56
000001t:  Control change ::  Channel 6.  Controller 11.  Value: 57
000000t:  Pitch wheel change ::  Channel 6.   -8192
000001t:  Control change ::  Channel 6.  Controller 11.  Value: 58
000001t:  Pitch wheel change ::  Channel 6.   -8192
000000t:  Note on ::  Channel 7.  Note 70.  Velocity 59
000001t:  Control change ::  Channel 6.  Controller 11.  Value: 59
000000t:  Note on ::  Channel 7.  Note 67.  Velocity 48
000001t:  Control change ::  Channel 6.  Controller 11.  Value: 60
000000t:  Pitch wheel change ::  Channel 6.   -8192
000000t:  Note on ::  Channel 7.  Note 64.  Velocity 45
000000t:  Note on ::  Channel 9.  Note 36.  Velocity 127
000001t:  Control change ::  Channel 2.  Controller 64.  Value: 127
000000t:  Note off ::  Channel 9.  Note 36.  Velocity 127
000001t:  Control change ::  Channel 6.  Controller 11.  Value: 61
000001t:  Pitch wheel change ::  Channel 6.   -8192
000001t:  Control change ::  Channel 6.  Controller 11.  Value: 62
000002t:  Pitch wheel change ::  Channel 6.   -8192
000000t:  Control change ::  Channel 6.  Controller 11.  Value: 63
000002t:  Control change ::  Channel 6.  Controller 11.  Value: 64
000002t:  Pitch wheel change ::  Channel 6.   -8192
000000t:  Control change ::  Channel 6.  Controller 11.  Value: 65
000000t:  Control change ::  Channel 6.  Controller 11.  Value: 66
000001t:  Note off ::  Channel 2.  Note 52.  Velocity 48
000001t:  Pitch wheel change ::  Channel 6.   -8192
000000t:  Control change ::  Channel 6.  Controller 11.  Value: 67
000001t:  Pitch wheel change ::  Channel 6.   -8192
000001t:  Control change ::  Channel 6.  Controller 11.  Value: 68
000000t:  Pitch wheel change ::  Channel 6.   -8192
000001t:  Note off ::  Channel 2.  Note 48.  Velocity 57
000000t:  Control change ::  Channel 6.  Controller 11.  Value: 69
000000t:  Note off ::  Channel 7.  Note 70.  Velocity 59
000001t:  Pitch wheel change ::  Channel 6.   -8192
000000t:  Control change ::  Channel 6.  Controller 11.  Value: 70
000000t:  Note off ::  Channel 7.  Note 67.  Velocity 48
000001t:  Pitch wheel change ::  Channel 6.   -8192
000000t:  Control change ::  Channel 6.  Controller 11.  Value: 71
000001t:  Note off ::  Channel 1.  Note 36.  Velocity 93
000000t:  Control change ::  Channel 6.  Controller 11.  Value: 72
000000t:  Note off ::  Channel 7.  Note 64.  Velocity 45
000001t:  Pitch wheel change ::  Channel 6.   -8192
000000t:  Control change ::  Channel 6.  Controller 11.  Value: 73
000001t:  Pitch wheel change ::  Channel 6.   -8192
000001t:  Note off ::  Channel 2.  Note 58.  Velocity 76
000000t:  Control change ::  Channel 6.  Controller 11.  Value: 74
000000t:  Note on ::  Channel 7.  Note 64.  Velocity 82
000001t:  Note on ::  Channel 1.  Note 24.  Velocity 102
000000t:  Pitch wheel change ::  Channel 6.   -8192
000000t:  Control change ::  Channel 6.  Controller 11.  Value: 75
000000t:  Note on ::  Channel 7.  Note 67.  Velocity 71
000001t:  Control change ::  Channel 6.  Controller 11.  Value: 76
000000t:  Note on ::  Channel 7.  Note 70.  Velocity 68
000001t:  Control change ::  Channel 6.  Controller 11.  Value: 77
000000t:  Note on ::  Channel 9.  Note 43.  Velocity 127
000001t:  Control change ::  Channel 6.  Controller 11.  Value: 78
000000t:  Note off ::  Channel 9.  Note 43.  Velocity 127
000001t:  Pitch wheel change ::  Channel 6.   -8192
000000t:  Control change ::  Channel 6.  Controller 11.  Value: 79
000002t:  Control change ::  Channel 6.  Controller 11.  Value: 80
000000t:  Pitch wheel change ::  Channel 6.   -8192
000001t:  Control change ::  Channel 6.  Controller 11.  Value: 81
000001t:  Control change ::  Channel 6.  Controller 11.  Value: 82
000000t:  Pitch wheel change ::  Channel 6.   -8192
000001t:  Pitch wheel change ::  Channel 6.   -8192
000000t:  Control change ::  Channel 6.  Controller 11.  Value: 83
000001t:  Pitch wheel change ::  Channel 6.   -8192
000000t:  Control change ::  Channel 6.  Controller 11.  Value: 84
000001t:  Pitch wheel change ::  Channel 6.   -8192
000001t:  Control change ::  Channel 6.  Controller 11.  Value: 85
000000t:  Pitch wheel change ::  Channel 6.   -8192
000001t:  Control change ::  Channel 6.  Controller 11.  Value: 86
000001t:  Control change ::  Channel 6.  Controller 11.  Value: 87
000000t:  Pitch wheel change ::  Channel 6.   -8192
000001t:  Control change ::  Channel 6.  Controller 11.  Value: 88
000000t:  Note off ::  Channel 7.  Note 64.  Velocity 82
000001t:  Control change ::  Channel 6.  Controller 11.  Value: 89
000000t:  Pitch wheel change ::  Channel 6.   -8192
000002t:  Control change ::  Channel 6.  Controller 11.  Value: 90
000000t:  Pitch wheel change ::  Channel 6.   -8192
000001t:  Control change ::  Channel 6.  Controller 11.  Value: 91
000001t:  Control change ::  Channel 6.  Controller 11.  Value: 92
000000t:  Pitch wheel change ::  Channel 6.   -8192
000001t:  Pitch wheel change ::  Channel 6.   -8192
000000t:  Note off ::  Channel 7.  Note 70.  Velocity 68
000001t:  Pitch wheel change ::  Channel 6.   -8192
000000t:  Control change ::  Channel 6.  Controller 11.  Value: 93
000000t:  Note off ::  Channel 7.  Note 67.  Velocity 71
000001t:  Pitch wheel change ::  Channel 6.   -8192
000000t:  Note on ::  Channel 7.  Note 70.  Velocity 82
000001t:  Note on ::  Channel 1.  Note 26.  Velocity 87
000000t:  Pitch wheel change ::  Channel 6.   -8192
000000t:  Control change ::  Channel 6.  Controller 11.  Value: 94
000000t:  Note on ::  Channel 7.  Note 67.  Velocity 71
000001t:  Pitch wheel change ::  Channel 6.   -8192
000000t:  Control change ::  Channel 6.  Controller 11.  Value: 95
000000t:  Note on ::  Channel 7.  Note 64.  Velocity 68
000001t:  Pitch wheel change ::  Channel 6.   -8192
000000t:  Note on ::  Channel 9.  Note 36.  Velocity 113
000000t:  Note on ::  Channel 9.  Note 40.  Velocity 127
000001t:  Note off ::  Channel 1.  Note 24.  Velocity 102
000000t:  Control change ::  Channel 6.  Controller 11.  Value: 96
000000t:  Note off ::  Channel 9.  Note 40.  Velocity 127
000000t:  Note off ::  Channel 9.  Note 36.  Velocity 113
000001t:  Pitch wheel change ::  Channel 6.   -8192
000001t:  Control change ::  Channel 6.  Controller 11.  Value: 97
000000t:  Pitch wheel change ::  Channel 6.   -8192
000001t:  Control change ::  Channel 6.  Controller 11.  Value: 98
000001t:  Control change ::  Channel 6.  Controller 11.  Value: 99
000000t:  Pitch wheel change ::  Channel 6.   -8192
000001t:  Control change ::  Channel 6.  Controller 11.  Value: 100
000001t:  Pitch wheel change ::  Channel 6.   -8192
000001t:  Control change ::  Channel 6.  Controller 11.  Value: 101
000000t:  Pitch wheel change ::  Channel 6.   -8192
000001t:  Note off ::  Channel 4.  Note 60.  Velocity 78
000000t:  Control change ::  Channel 6.  Controller 11.  Value: 102
000000t:  Pitch wheel change ::  Channel 6.   -8192
000001t:  Control change ::  Channel 6.  Controller 11.  Value: 103
000001t:  Pitch wheel change ::  Channel 6.   -8192
000001t:  Control change ::  Channel 6.  Controller 11.  Value: 104
000001t:  Pitch wheel change ::  Channel 6.   -8192
000000t:  Control change ::  Channel 6.  Controller 11.  Value: 105
000001t:  Control change ::  Channel 6.  Controller 11.  Value: 106
000001t:  Pitch wheel change ::  Channel 6.   -8192
000000t:  Control change ::  Channel 6.  Controller 11.  Value: 107
000001t:  Note off ::  Channel 7.  Note 70.  Velocity 82
000001t:  Control change ::  Channel 6.  Controller 11.  Value: 108
000000t:  Pitch wheel change ::  Channel 6.   -8192
000001t:  Note off ::  Channel 1.  Note 26.  Velocity 87
000000t:  Control change ::  Channel 6.  Controller 11.  Value: 109
000000t:  Pitch wheel change ::  Channel 6.   -8192
000001t:  Control change ::  Channel 6.  Controller 11.  Value: 110
000000t:  Note off ::  Channel 7.  Note 64.  Velocity 68
000001t:  Pitch wheel change ::  Channel 6.   -8192
000000t:  Note off ::  Channel 7.  Note 67.  Velocity 71
000001t:  Note on ::  Channel 4.  Note 58.  Velocity 74
000000t:  Note off ::  Channel 5.  Note 72.  Velocity 93
000000t:  Note on ::  Channel 5.  Note 75.  Velocity 80
000000t:  Control change ::  Channel 6.  Controller 11.  Value: 111
000000t:  Pitch wheel change ::  Channel 6.   -8192
000000t:  Note on ::  Channel 7.  Note 51.  Velocity 80
000001t:  Note on ::  Channel 5.  Note 65.  Velocity 107
000000t:  Pitch wheel change ::  Channel 6.   -8192
000000t:  Note on ::  Channel 7.  Note 63.  Velocity 75
000000t:  Note on ::  Channel 7.  Note 67.  Velocity 87
000001t:  Note on ::  Channel 1.  Note 27.  Velocity 116
000000t:  Control change ::  Channel 6.  Controller 11.  Value: 112
000001t:  Note on ::  Channel 2.  Note 51.  Velocity 59
000000t:  Note on ::  Channel 2.  Note 55.  Velocity 70
000000t:  Note on ::  Channel 2.  Note 58.  Velocity 62
000000t:  Note on ::  Channel 3.  Note 75.  Velocity 102
000000t:  Pitch wheel change ::  Channel 6.   -8192
000000t:  Control change ::  Channel 6.  Controller 11.  Value: 113
000000t:  Pitch wheel change ::  Channel 6.   -8192
000000t:  Note on ::  Channel 7.  Note 70.  Velocity 76
000000t:  Note on ::  Channel 9.  Note 51.  Velocity 122
000000t:  Note on ::  Channel 9.  Note 36.  Velocity 127
000001t:  Control change ::  Channel 6.  Controller 11.  Value: 114
000000t:  Note off ::  Channel 9.  Note 36.  Velocity 127
000000t:  Note off ::  Channel 9.  Note 51.  Velocity 122
000001t:  Note off ::  Channel 5.  Note 64.  Velocity 72
000000t:  Control change ::  Channel 6.  Controller 11.  Value: 115
000001t:  Control change ::  Channel 6.  Controller 11.  Value: 116
000001t:  Control change ::  Channel 6.  Controller 11.  Value: 117
000002t:  Control change ::  Channel 6.  Controller 11.  Value: 118
000001t:  Control change ::  Channel 6.  Controller 11.  Value: 119
000001t:  Control change ::  Channel 6.  Controller 11.  Value: 120
000002t:  Control change ::  Channel 2.  Controller 64.  Value: 0
000000t:  Control change ::  Channel 6.  Controller 11.  Value: 121
000001t:  Control change ::  Channel 6.  Controller 11.  Value: 122
000002t:  Control change ::  Channel 6.  Controller 11.  Value: 123
000001t:  Control change ::  Channel 6.  Controller 11.  Value: 124
000002t:  Control change ::  Channel 6.  Controller 11.  Value: 125
000001t:  Note off ::  Channel 7.  Note 70.  Velocity 76
000002t:  Control change ::  Channel 6.  Controller 11.  Value: 126
000002t:  Control change ::  Channel 6.  Controller 11.  Value: 127
000003t:  Note on ::  Channel 3.  Note 74.  Velocity 100
000001t:  Note off ::  Channel 3.  Note 75.  Velocity 102
000000t:  Note on ::  Channel 5.  Note 67.  Velocity 91
000001t:  Note off ::  Channel 5.  Note 65.  Velocity 107
000004t:  Control change ::  Channel 2.  Controller 64.  Value: 127
000004t:  Note off ::  Channel 7.  Note 51.  Velocity 80
000004t:  Note off ::  Channel 7.  Note 67.  Velocity 87
000000t:  Note off ::  Channel 7.  Note 63.  Velocity 75
000005t:  Note off ::  Channel 2.  Note 58.  Velocity 62
000001t:  Note off ::  Channel 2.  Note 55.  Velocity 70
000002t:  Note off ::  Channel 2.  Note 51.  Velocity 59
000000t:  Note on ::  Channel 7.  Note 63.  Velocity 59
000000t:  Note on ::  Channel 7.  Note 67.  Velocity 74
000001t:  Note on ::  Channel 9.  Note 51.  Velocity 127
000001t:  Note on ::  Channel 3.  Note 75.  Velocity 91
000000t:  Note on ::  Channel 7.  Note 70.  Velocity 52
000000t:  Note off ::  Channel 9.  Note 51.  Velocity 127
000005t:  Note off ::  Channel 1.  Note 27.  Velocity 116
000002t:  Note off ::  Channel 3.  Note 74.  Velocity 100
000010t:  Note off ::  Channel 7.  Note 70.  Velocity 52
000001t:  Note off ::  Channel 7.  Note 67.  Velocity 74
000001t:  Note off ::  Channel 7.  Note 63.  Velocity 59
000002t:  Note on ::  Channel 7.  Note 70.  Velocity 72
000001t:  Note on ::  Channel 7.  Note 67.  Velocity 71
000001t:  Note on ::  Channel 1.  Note 27.  Velocity 82
000000t:  Note on ::  Channel 7.  Note 63.  Velocity 68
000000t:  Note on ::  Channel 9.  Note 36.  Velocity 113
000001t:  Note off ::  Channel 9.  Note 36.  Velocity 113
000022t:  Note off ::  Channel 1.  Note 27.  Velocity 82
000001t:  Note on ::  Channel 9.  Note 40.  Velocity 127
000001t:  Note on ::  Channel 1.  Note 39.  Velocity 113
000000t:  Note on ::  Channel 2.  Note 55.  Velocity 54
000000t:  Note on ::  Channel 2.  Note 58.  Velocity 54
000000t:  Note on ::  Channel 2.  Note 51.  Velocity 46
000000t:  Note on ::  Channel 9.  Note 51.  Velocity 127
000000t:  Note off ::  Channel 9.  Note 40.  Velocity 127
000001t:  Note off ::  Channel 9.  Note 51.  Velocity 127
000007t:  Control change ::  Channel 2.  Controller 64.  Value: 0
000008t:  Note off ::  Channel 7.  Note 70.  Velocity 72
000001t:  Note off ::  Channel 7.  Note 67.  Velocity 71
000002t:  Note off ::  Channel 7.  Note 63.  Velocity 68
000001t:  Note on ::  Channel 7.  Note 70.  Velocity 81
000001t:  Note on ::  Channel 7.  Note 67.  Velocity 71
000001t:  Note on ::  Channel 7.  Note 63.  Velocity 60
000005t:  Control change ::  Channel 2.  Controller 64.  Value: 127
000013t:  Note off ::  Channel 7.  Note 63.  Velocity 60
000000t:  Note off ::  Channel 7.  Note 67.  Velocity 71
000002t:  Note off ::  Channel 7.  Note 70.  Velocity 81
000001t:  Note off ::  Channel 2.  Note 58.  Velocity 54
000002t:  Note on ::  Channel 7.  Note 63.  Velocity 33
000002t:  Note off ::  Channel 1.  Note 39.  Velocity 113
000000t:  Note on ::  Channel 1.  Note 27.  Velocity 89
000000t:  Note on ::  Channel 7.  Note 67.  Velocity 64
000000t:  Note on ::  Channel 7.  Note 70.  Velocity 59
000000t:  Note on ::  Channel 9.  Note 51.  Velocity 119
000001t:  Note off ::  Channel 2.  Note 55.  Velocity 54
000000t:  Note off ::  Channel 9.  Note 51.  Velocity 119
000002t:  Note off ::  Channel 2.  Note 51.  Velocity 46
000011t:  Control change ::  Channel 6.  Controller 11.  Value: 126
000002t:  Control change ::  Channel 6.  Controller 11.  Value: 125
000003t:  Note off ::  Channel 7.  Note 70.  Velocity 59
000000t:  Note off ::  Channel 7.  Note 67.  Velocity 64
000001t:  Control change ::  Channel 6.  Controller 11.  Value: 124
000001t:  Note off ::  Channel 7.  Note 63.  Velocity 33
000001t:  Control change ::  Channel 6.  Controller 11.  Value: 123
000001t:  Note on ::  Channel 7.  Note 70.  Velocity 70
000001t:  Note on ::  Channel 7.  Note 67.  Velocity 69
000001t:  Note on ::  Channel 7.  Note 63.  Velocity 59
000001t:  Control change ::  Channel 6.  Controller 11.  Value: 122
000000t:  Note on ::  Channel 9.  Note 36.  Velocity 81
000001t:  Note off ::  Channel 9.  Note 36.  Velocity 81
000001t:  Control change ::  Channel 6.  Controller 11.  Value: 121
000002t:  Control change ::  Channel 6.  Controller 11.  Value: 120
000003t:  Control change ::  Channel 6.  Controller 11.  Value: 119
000002t:  Control change ::  Channel 6.  Controller 11.  Value: 118
000003t:  Control change ::  Channel 6.  Controller 11.  Value: 117
000002t:  Note off ::  Channel 1.  Note 27.  Velocity 89
000001t:  Note off ::  Channel 3.  Note 75.  Velocity 91
000000t:  Control change ::  Channel 6.  Controller 11.  Value: 116
000002t:  Control change ::  Channel 6.  Controller 11.  Value: 115
000001t:  Note off ::  Channel 7.  Note 63.  Velocity 59
000001t:  Control change ::  Channel 6.  Controller 11.  Value: 114
000000t:  Note off ::  Channel 7.  Note 67.  Velocity 69
000000t:  Note off ::  Channel 7.  Note 70.  Velocity 70
000002t:  Control change ::  Channel 6.  Controller 11.  Value: 113
000000t:  Note on ::  Channel 7.  Note 51.  Velocity 67
000000t:  Note on ::  Channel 7.  Note 63.  Velocity 67
000001t:  Note on ::  Channel 3.  Note 75.  Velocity 96
000000t:  Note on ::  Channel 7.  Note 67.  Velocity 76
000001t:  Note on ::  Channel 1.  Note 27.  Velocity 107
000000t:  Note on ::  Channel 2.  Note 51.  Velocity 35
000000t:  Note on ::  Channel 2.  Note 55.  Velocity 46
000000t:  Note on ::  Channel 2.  Note 58.  Velocity 54
000000t:  Note on ::  Channel 7.  Note 70.  Velocity 64
000000t:  Note on ::  Channel 9.  Note 36.  Velocity 127
000000t:  Note on ::  Channel 9.  Note 51.  Velocity 122
000001t:  Control change ::  Channel 6.  Controller 11.  Value: 112
000000t:  Note off ::  Channel 9.  Note 51.  Velocity 122
000000t:  Note off ::  Channel 9.  Note 36.  Velocity 127
000002t:  Control change ::  Channel 6.  Controller 11.  Value: 111
000002t:  Control change ::  Channel 6.  Controller 11.  Value: 110
000002t:  Control change ::  Channel 6.  Controller 11.  Value: 109
000001t:  Control change ::  Channel 6.  Controller 11.  Value: 108
000002t:  Control change ::  Channel 6.  Controller 11.  Value: 107
000001t:  Control change ::  Channel 6.  Controller 11.  Value: 106
000001t:  Control change ::  Channel 6.  Controller 11.  Value: 105
000002t:  Control change ::  Channel 2.  Controller 64.  Value: 0
000000t:  Control change ::  Channel 6.  Controller 11.  Value: 104
000001t:  Control change ::  Channel 6.  Controller 11.  Value: 103
000002t:  Control change ::  Channel 6.  Controller 11.  Value: 102
000000t:  Note off ::  Channel 7.  Note 51.  Velocity 67
000001t:  Control change ::  Channel 6.  Controller 11.  Value: 101
000002t:  Control change ::  Channel 6.  Controller 11.  Value: 100
000001t:  Control change ::  Channel 6.  Controller 11.  Value: 99
000002t:  Note off ::  Channel 3.  Note 75.  Velocity 96
000000t:  Note on ::  Channel 3.  Note 74.  Velocity 94
000000t:  Control change ::  Channel 6.  Controller 11.  Value: 98
000001t:  Control change ::  Channel 6.  Controller 11.  Value: 97
000001t:  Control change ::  Channel 6.  Controller 11.  Value: 96
000002t:  Control change ::  Channel 6.  Controller 11.  Value: 95
000001t:  Control change ::  Channel 6.  Controller 11.  Value: 94
000001t:  Control change ::  Channel 2.  Controller 64.  Value: 127
000001t:  Control change ::  Channel 6.  Controller 11.  Value: 93
000002t:  Control change ::  Channel 6.  Controller 11.  Value: 92
000001t:  Control change ::  Channel 6.  Controller 11.  Value: 91
000001t:  Control change ::  Channel 6.  Controller 11.  Value: 90
000001t:  Control change ::  Channel 6.  Controller 11.  Value: 89
000002t:  Control change ::  Channel 6.  Controller 11.  Value: 88
000001t:  Control change ::  Channel 6.  Controller 11.  Value: 87
000001t:  Control change ::  Channel 6.  Controller 11.  Value: 86
000000t:  Note off ::  Channel 7.  Note 67.  Velocity 76
000000t:  Note off ::  Channel 7.  Note 63.  Velocity 67
000002t:  Note off ::  Channel 2.  Note 51.  Velocity 35
000000t:  Control change ::  Channel 6.  Controller 11.  Value: 85
000001t:  Control change ::  Channel 6.  Controller 11.  Value: 84
000000t:  Note off ::  Channel 7.  Note 70.  Velocity 64
000001t:  Note off ::  Channel 2.  Note 58.  Velocity 54
000000t:  Note off ::  Channel 2.  Note 55.  Velocity 46
000001t:  Control change ::  Channel 6.  Controller 11.  Value: 83
000001t:  Note on ::  Channel 7.  Note 63.  Velocity 33
000001t:  Control change ::  Channel 6.  Controller 11.  Value: 82
000001t:  Note on ::  Channel 3.  Note 75.  Velocity 91
000000t:  Control change ::  Channel 6.  Controller 11.  Value: 81
000000t:  Note on ::  Channel 7.  Note 67.  Velocity 64
000000t:  Note on ::  Channel 7.  Note 70.  Velocity 59
000000t:  Note on ::  Channel 9.  Note 51.  Velocity 122
000001t:  Control change ::  Channel 6.  Controller 11.  Value: 80
000000t:  Note off ::  Channel 9.  Note 51.  Velocity 122
000002t:  Note off ::  Channel 1.  Note 27.  Velocity 107
000000t:  Control change ::  Channel 6.  Controller 11.  Value: 79
000001t:  Control change ::  Channel 6.  Controller 11.  Value: 78
000001t:  Note off ::  Channel 3.  Note 74.  Velocity 94
000001t:  Control change ::  Channel 6.  Controller 11.  Value: 77
000002t:  Control change ::  Channel 6.  Controller 11.  Value: 76
000002t:  Control change ::  Channel 6.  Controller 11.  Value: 75
000002t:  Control change ::  Channel 6.  Controller 11.  Value: 74
000002t:  Control change ::  Channel 6.  Controller 11.  Value: 73
000002t:  Control change ::  Channel 6.  Controller 11.  Value: 72
000001t:  Control change ::  Channel 6.  Controller 11.  Value: 71
000001t:  Control change ::  Channel 6.  Controller 11.  Value: 70
000001t:  Note off ::  Channel 7.  Note 70.  Velocity 59
000000t:  Note off ::  Channel 7.  Note 67.  Velocity 64
000001t:  Control change ::  Channel 6.  Controller 11.  Value: 69
000001t:  Note off ::  Channel 7.  Note 63.  Velocity 33
000001t:  Control change ::  Channel 6.  Controller 11.  Value: 68
000000t:  Note on ::  Channel 7.  Note 70.  Velocity 72
000001t:  Note on ::  Channel 7.  Note 67.  Velocity 71
000001t:  Note on ::  Channel 3.  Note 74.  Velocity 92
000000t:  Control change ::  Channel 6.  Controller 11.  Value: 67
000000t:  Note on ::  Channel 7.  Note 63.  Velocity 68
000001t:  Note on ::  Channel 9.  Note 36.  Velocity 102
000001t:  Control change ::  Channel 6.  Controller 11.  Value: 66
000000t:  Note off ::  Channel 9.  Note 36.  Velocity 102
000001t:  Note off ::  Channel 3.  Note 75.  Velocity 91
000000t:  Control change ::  Channel 6.  Controller 11.  Value: 65
000002t:  Control change ::  Channel 6.  Controller 11.  Value: 64
000002t:  Control change ::  Channel 6.  Controller 11.  Value: 63
000002t:  Control change ::  Channel 6.  Controller 11.  Value: 62
000002t:  Control change ::  Channel 6.  Controller 11.  Value: 61
000002t:  Control change ::  Channel 6.  Controller 11.  Value: 60
000001t:  Control change ::  Channel 6.  Controller 11.  Value: 59
000002t:  Control change ::  Channel 6.  Controller 11.  Value: 58
000001t:  Control change ::  Channel 6.  Controller 11.  Value: 57
000000t:  Note off ::  Channel 7.  Note 70.  Velocity 72
000001t:  Note off ::  Channel 7.  Note 67.  Velocity 71
000001t:  Control change ::  Channel 6.  Controller 11.  Value: 56
000000t:  Note off ::  Channel 7.  Note 63.  Velocity 68
000002t:  Control change ::  Channel 6.  Controller 11.  Value: 55
000002t:  Control change ::  Channel 2.  Controller 64.  Value: 0
000000t:  Control change ::  Channel 6.  Controller 11.  Value: 54
000000t:  Note on ::  Channel 7.  Note 51.  Velocity 63
000001t:  Note on ::  Channel 1.  Note 27.  Velocity 98
000000t:  Note on ::  Channel 2.  Note 55.  Velocity 56
000000t:  Note on ::  Channel 2.  Note 58.  Velocity 60
000000t:  Note on ::  Channel 2.  Note 51.  Velocity 45
000000t:  Note on ::  Channel 3.  Note 75.  Velocity 94
000000t:  Note on ::  Channel 9.  Note 40.  Velocity 113
000001t:  Control change ::  Channel 6.  Controller 11.  Value: 53
000000t:  Note on ::  Channel 7.  Note 63.  Velocity 69
000000t:  Note on ::  Channel 9.  Note 51.  Velocity 119
000000t:  Note off ::  Channel 9.  Note 40.  Velocity 113
000001t:  Control change ::  Channel 6.  Controller 11.  Value: 52
000000t:  Note on ::  Channel 7.  Note 67.  Velocity 54
000000t:  Note off ::  Channel 9.  Note 51.  Velocity 119
000001t:  Note off ::  Channel 3.  Note 74.  Velocity 92
000000t:  Control change ::  Channel 6.  Controller 11.  Value: 51
000001t:  Note on ::  Channel 7.  Note 70.  Velocity 45
000001t:  Control change ::  Channel 6.  Controller 11.  Value: 50
000001t:  Control change ::  Channel 6.  Controller 11.  Value: 49
000001t:  Control change ::  Channel 6.  Controller 11.  Value: 48
000002t:  Control change ::  Channel 6.  Controller 11.  Value: 47
000001t:  Control change ::  Channel 6.  Controller 11.  Value: 46
000002t:  Control change ::  Channel 6.  Controller 11.  Value: 45
000002t:  Control change ::  Channel 6.  Controller 11.  Value: 44
000000t:  Note off ::  Channel 7.  Note 63.  Velocity 69
000001t:  Control change ::  Channel 6.  Controller 11.  Value: 43
000001t:  Control change ::  Channel 6.  Controller 11.  Value: 42
000000t:  Note off ::  Channel 7.  Note 70.  Velocity 45
000000t:  Note off ::  Channel 7.  Note 67.  Velocity 54
000001t:  Control change ::  Channel 2.  Controller 64.  Value: 127
000000t:  Control change ::  Channel 6.  Controller 11.  Value: 41
000001t:  Control change ::  Channel 6.  Controller 11.  Value: 40
000001t:  Control change ::  Channel 6.  Controller 11.  Value: 39
000001t:  Control change ::  Channel 6.  Controller 11.  Value: 38
000001t:  Control change ::  Channel 6.  Controller 11.  Value: 37
000001t:  Control change ::  Channel 6.  Controller 11.  Value: 36
000001t:  Control change ::  Channel 6.  Controller 11.  Value: 35
000000t:  Note on ::  Channel 7.  Note 70.  Velocity 84
000001t:  Note on ::  Channel 3.  Note 74.  Velocity 95
000000t:  Control change ::  Channel 6.  Controller 11.  Value: 34
000000t:  Note on ::  Channel 7.  Note 67.  Velocity 74
000001t:  Control change ::  Channel 6.  Controller 11.  Value: 33
000000t:  Note on ::  Channel 7.  Note 63.  Velocity 70
000001t:  Control change ::  Channel 6.  Controller 11.  Value: 32
000001t:  Control change ::  Channel 6.  Controller 11.  Value: 31
000001t:  Note off ::  Channel 3.  Note 75.  Velocity 94
000000t:  Control change ::  Channel 6.  Controller 11.  Value: 30
000002t:  Control change ::  Channel 6.  Controller 11.  Value: 29
000000t:  Control change ::  Channel 6.  Controller 11.  Value: 28
000001t:  Control change ::  Channel 6.  Controller 11.  Value: 26
000001t:  Control change ::  Channel 6.  Controller 11.  Value: 25
000001t:  Control change ::  Channel 6.  Controller 11.  Value: 24
000001t:  Control change ::  Channel 6.  Controller 11.  Value: 23
000000t:  Control change ::  Channel 6.  Controller 11.  Value: 17
000000t:  Control change ::  Channel 6.  Controller 11.  Value: 18
000000t:  Control change ::  Channel 6.  Controller 11.  Value: 19
000000t:  Control change ::  Channel 6.  Controller 11.  Value: 20
000000t:  Control change ::  Channel 6.  Controller 11.  Value: 21
000000t:  Control change ::  Channel 6.  Controller 11.  Value: 22
000001t:  Note off ::  Channel 6.  Note 70.  Velocity 127
000001t:  Note off ::  Channel 6.  Note 82.  Velocity 127
000001t:  Control change ::  Channel 6.  Controller 11.  Value: 16
000001t:  Control change ::  Channel 6.  Controller 11.  Value: 15
000000t:  Control change ::  Channel 6.  Controller 11.  Value: 14
000001t:  Control change ::  Channel 6.  Controller 11.  Value: 13
000001t:  Control change ::  Channel 6.  Controller 11.  Value: 11
000000t:  Control change ::  Channel 6.  Controller 11.  Value: 10
000001t:  Control change ::  Channel 6.  Controller 11.  Value: 8
000000t:  Control change ::  Channel 6.  Controller 11.  Value: 7
000001t:  Control change ::  Channel 6.  Controller 11.  Value: 6
000000t:  Control change ::  Channel 6.  Controller 11.  Value: 5
000000t:  Note off ::  Channel 7.  Note 51.  Velocity 63
000001t:  Control change ::  Channel 6.  Controller 11.  Value: 4
000000t:  Control change ::  Channel 6.  Controller 11.  Value: 3
000001t:  Note off ::  Channel 2.  Note 58.  Velocity 60
000000t:  Control change ::  Channel 6.  Controller 11.  Value: 2
000000t:  Control change ::  Channel 6.  Controller 11.  Value: 1
000001t:  Note off ::  Channel 2.  Note 55.  Velocity 56
000000t:  Control change ::  Channel 6.  Controller 11.  Value: 0
000002t:  Note off ::  Channel 2.  Note 51.  Velocity 45
000002t:  Note on ::  Channel 9.  Note 51.  Velocity 122
000001t:  Note off ::  Channel 9.  Note 51.  Velocity 122
000007t:  Pitch wheel change ::  Channel 6.   -8192
000001t:  Pitch wheel change ::  Channel 6.   -8192
000001t:  Pitch wheel change ::  Channel 6.   -8192
000000t:  Pitch wheel change ::  Channel 6.   -8192
000001t:  Pitch wheel change ::  Channel 6.   -8192
000000t:  Pitch wheel change ::  Channel 6.   -8192
000001t:  Pitch wheel change ::  Channel 6.   -8192
000001t:  Pitch wheel change ::  Channel 6.   -8192
000000t:  Pitch wheel change ::  Channel 6.   -8192
000001t:  Pitch wheel change ::  Channel 6.   -8192
000000t:  Pitch wheel change ::  Channel 6.   -8192
000000t:  Note off ::  Channel 7.  Note 67.  Velocity 74
000001t:  Pitch wheel change ::  Channel 6.   -8192
000000t:  Pitch wheel change ::  Channel 6.   -8192
000001t:  Pitch wheel change ::  Channel 6.   -8192
000000t:  Pitch wheel change ::  Channel 6.   -8192
000000t:  Note off ::  Channel 7.  Note 63.  Velocity 70
000000t:  Note off ::  Channel 7.  Note 70.  Velocity 84
000001t:  Pitch wheel change ::  Channel 6.   -8192
000000t:  Pitch wheel change ::  Channel 6.   -8192
000001t:  Pitch wheel change ::  Channel 6.   -8192
000001t:  Pitch wheel change ::  Channel 6.   -8192
000001t:  Pitch wheel change ::  Channel 6.   -8192
000000t:  Pitch wheel change ::  Channel 6.   -8192
000001t:  Pitch wheel change ::  Channel 6.   -8192
000001t:  Pitch wheel change ::  Channel 6.   -8192
000000t:  Pitch wheel change ::  Channel 6.   -8192
000000t:  Note on ::  Channel 7.  Note 46.  Velocity 84
000001t:  Note off ::  Channel 3.  Note 74.  Velocity 95
000000t:  Note on ::  Channel 3.  Note 77.  Velocity 97
000000t:  Pitch wheel change ::  Channel 6.   -8192
000000t:  Pitch wheel change ::  Channel 6.   -8192
000000t:  Note on ::  Channel 7.  Note 62.  Velocity 80
000000t:  Note on ::  Channel 9.  Note 36.  Velocity 80
000001t:  Pitch wheel change ::  Channel 6.   -8192
000000t:  Pitch wheel change ::  Channel 6.   -8192
000000t:  Note on ::  Channel 7.  Note 65.  Velocity 67
000000t:  Note on ::  Channel 7.  Note 70.  Velocity 79
000000t:  Note off ::  Channel 9.  Note 36.  Velocity 80
000001t:  Pitch wheel change ::  Channel 6.   -8192
000000t:  Pitch wheel change ::  Channel 6.   -8192
000001t:  Pitch wheel change ::  Channel 6.   -8192
000001t:  Pitch wheel change ::  Channel 6.   -8192
000000t:  Pitch wheel change ::  Channel 6.   -8192
000001t:  Pitch wheel change ::  Channel 6.   -8192
000000t:  Pitch wheel change ::  Channel 6.   -8192
000001t:  Pitch wheel change ::  Channel 6.   -8192
000000t:  Pitch wheel change ::  Channel 6.   -8192
000001t:  Pitch wheel change ::  Channel 6.   -8192
000000t:  Pitch wheel change ::  Channel 6.   -8192
000004t:  Note off ::  Channel 4.  Note 58.  Velocity 74
000008t:  Control change ::  Channel 2.  Controller 64.  Value: 0
000000t:  Note on ::  Channel 5.  Note 65.  Velocity 64
000001t:  Note on ::  Channel 5.  Note 74.  Velocity 72
000002t:  Note on ::  Channel 4.  Note 58.  Velocity 70
000001t:  Note on ::  Channel 2.  Note 58.  Velocity 62
000001t:  Note off ::  Channel 1.  Note 27.  Velocity 98
000001t:  Note on ::  Channel 1.  Note 34.  Velocity 93
000000t:  Note on ::  Channel 2.  Note 50.  Velocity 59
000000t:  Note on ::  Channel 2.  Note 53.  Velocity 56
000000t:  Note off ::  Channel 5.  Note 67.  Velocity 91
000000t:  Note on ::  Channel 9.  Note 36.  Velocity 127
000000t:  Note on ::  Channel 9.  Note 51.  Velocity 119
000001t:  Note off ::  Channel 9.  Note 51.  Velocity 119
000000t:  Note off ::  Channel 9.  Note 36.  Velocity 127
000001t:  Note off ::  Channel 5.  Note 75.  Velocity 80
000010t:  Control change ::  Channel 2.  Controller 64.  Value: 127
000007t:  Note off ::  Channel 7.  Note 70.  Velocity 79
000000t:  Note off ::  Channel 7.  Note 65.  Velocity 67
000000t:  Note off ::  Channel 7.  Note 62.  Velocity 80
000002t:  Note on ::  Channel 7.  Note 70.  Velocity 68
000001t:  Note on ::  Channel 7.  Note 65.  Velocity 52
000003t:  Note on ::  Channel 3.  Note 74.  Velocity 84
000005t:  Note off ::  Channel 2.  Note 53.  Velocity 56
000007t:  Note off ::  Channel 3.  Note 77.  Velocity 97
000003t:  Note off ::  Channel 7.  Note 65.  Velocity 52
000002t:  Note off ::  Channel 7.  Note 70.  Velocity 68
000001t:  Note off ::  Channel 7.  Note 46.  Velocity 84
000001t:  Note on ::  Channel 7.  Note 62.  Velocity 49
000001t:  Note off ::  Channel 3.  Note 74.  Velocity 84
000000t:  Note on ::  Channel 7.  Note 65.  Velocity 60
000002t:  Note off ::  Channel 2.  Note 58.  Velocity 62
000000t:  Note on ::  Channel 3.  Note 70.  Velocity 60
000000t:  Note on ::  Channel 9.  Note 51.  Velocity 116
000001t:  Note off ::  Channel 9.  Note 51.  Velocity 116
000002t:  Note off ::  Channel 2.  Note 50.  Velocity 59
000001t:  Note on ::  Channel 7.  Note 70.  Velocity 44
000001t:  Note off ::  Channel 1.  Note 34.  Velocity 93
000015t:  Note off ::  Channel 7.  Note 70.  Velocity 44
000001t:  Note off ::  Channel 7.  Note 65.  Velocity 60
000000t:  Note on ::  Channel 7.  Note 70.  Velocity 68
000001t:  Note off ::  Channel 7.  Note 62.  Velocity 49
000002t:  Note on ::  Channel 7.  Note 62.  Velocity 60
000000t:  Note on ::  Channel 7.  Note 65.  Velocity 67
000001t:  Note on ::  Channel 9.  Note 36.  Velocity 109
000001t:  Note off ::  Channel 9.  Note 36.  Velocity 109
000015t:  Control change ::  Channel 2.  Controller 64.  Value: 0
000007t:  Note on ::  Channel 1.  Note 34.  Velocity 100
000000t:  Note on ::  Channel 9.  Note 51.  Velocity 122
000000t:  Note on ::  Channel 9.  Note 40.  Velocity 122
000001t:  Note on ::  Channel 2.  Note 50.  Velocity 46
000000t:  Note on ::  Channel 2.  Note 53.  Velocity 54
000000t:  Note on ::  Channel 2.  Note 58.  Velocity 58
000000t:  Note off ::  Channel 9.  Note 40.  Velocity 122
000000t:  Note off ::  Channel 9.  Note 51.  Velocity 122
000011t:  Control change ::  Channel 2.  Controller 64.  Value: 127
000007t:  Note off ::  Channel 7.  Note 70.  Velocity 68
000002t:  Note off ::  Channel 7.  Note 65.  Velocity 67
000000t:  Note off ::  Channel 7.  Note 62.  Velocity 60
000002t:  Note on ::  Channel 7.  Note 70.  Velocity 56
000001t:  Note on ::  Channel 7.  Note 65.  Velocity 62
000001t:  Note on ::  Channel 7.  Note 62.  Velocity 54
000016t:  Note off ::  Channel 2.  Note 50.  Velocity 46
000002t:  Note off ::  Channel 7.  Note 62.  Velocity 54
000001t:  Note off ::  Channel 7.  Note 65.  Velocity 62
000001t:  Note off ::  Channel 7.  Note 70.  Velocity 56
000000t:  Note on ::  Channel 7.  Note 62.  Velocity 51
000001t:  Note off ::  Channel 2.  Note 53.  Velocity 54
000000t:  Note on ::  Channel 7.  Note 65.  Velocity 59
000001t:  Note on ::  Channel 7.  Note 70.  Velocity 52
000001t:  Note on ::  Channel 9.  Note 51.  Velocity 119
000001t:  Note off ::  Channel 9.  Note 51.  Velocity 119
000020t:  Note off ::  Channel 2.  Note 58.  Velocity 58
000000t:  Note off ::  Channel 7.  Note 70.  Velocity 52
000001t:  Note off ::  Channel 7.  Note 65.  Velocity 59
000000t:  Note on ::  Channel 7.  Note 70.  Velocity 78
000000t:  Note on ::  Channel 9.  Note 36.  Velocity 75
000001t:  Note off ::  Channel 7.  Note 62.  Velocity 51
000000t:  Note on ::  Channel 7.  Note 65.  Velocity 64
000000t:  Note off ::  Channel 9.  Note 36.  Velocity 75
000001t:  Note off ::  Channel 1.  Note 34.  Velocity 100
000000t:  Note on ::  Channel 7.  Note 62.  Velocity 59
000014t:  Note off ::  Channel 7.  Note 62.  Velocity 59
000000t:  Note off ::  Channel 7.  Note 70.  Velocity 78
000001t:  Note off ::  Channel 7.  Note 65.  Velocity 64
000002t:  Control change ::  Channel 2.  Controller 64.  Value: 0
000006t:  Note on ::  Channel 1.  Note 34.  Velocity 87
000000t:  Note on ::  Channel 7.  Note 46.  Velocity 67
000000t:  Note on ::  Channel 9.  Note 51.  Velocity 127
000000t:  Note on ::  Channel 9.  Note 36.  Velocity 127
000001t:  Note on ::  Channel 7.  Note 62.  Velocity 67
000000t:  Note off ::  Channel 9.  Note 36.  Velocity 127
000000t:  Note off ::  Channel 9.  Note 51.  Velocity 127
000001t:  Note on ::  Channel 2.  Note 46.  Velocity 74
000000t:  Note on ::  Channel 7.  Note 65.  Velocity 76
000001t:  Note on ::  Channel 7.  Note 70.  Velocity 80
000015t:  Note off ::  Channel 7.  Note 65.  Velocity 76
000000t:  Note off ::  Channel 7.  Note 62.  Velocity 67
000003t:  Note off ::  Channel 7.  Note 70.  Velocity 80
000003t:  Note on ::  Channel 7.  Note 70.  Velocity 92
000000t:  Note on ::  Channel 9.  Note 40.  Velocity 127
000001t:  Note on ::  Channel 7.  Note 65.  Velocity 81
000000t:  Note off ::  Channel 9.  Note 40.  Velocity 127
000001t:  Note on ::  Channel 1.  Note 38.  Velocity 91
000000t:  Note on ::  Channel 2.  Note 50.  Velocity 64
000000t:  Control change ::  Channel 2.  Controller 64.  Value: 127
000000t:  Note on ::  Channel 7.  Note 62.  Velocity 71
000002t:  Note off ::  Channel 1.  Note 34.  Velocity 87
000002t:  Note off ::  Channel 2.  Note 46.  Velocity 74
000005t:  Note off ::  Channel 3.  Note 70.  Velocity 60
000014t:  Note on ::  Channel 9.  Note 51.  Velocity 127
000001t:  Note off ::  Channel 9.  Note 51.  Velocity 127
000016t:  Note off ::  Channel 1.  Note 38.  Velocity 91
000003t:  Note off ::  Channel 7.  Note 62.  Velocity 71
000001t:  Note off ::  Channel 7.  Note 65.  Velocity 81
000000t:  Note off ::  Channel 7.  Note 70.  Velocity 92
000000t:  Note off ::  Channel 7.  Note 46.  Velocity 67
000001t:  Note on ::  Channel 7.  Note 70.  Velocity 94
000001t:  Note on ::  Channel 7.  Note 65.  Velocity 82
000000t:  Note on ::  Channel 9.  Note 36.  Velocity 125
000001t:  Note on ::  Channel 1.  Note 39.  Velocity 87
000000t:  Note on ::  Channel 7.  Note 63.  Velocity 84
000000t:  Note off ::  Channel 9.  Note 36.  Velocity 125
000001t:  Note on ::  Channel 2.  Note 51.  Velocity 73
000003t:  Note off ::  Channel 2.  Note 50.  Velocity 64
000009t:  Control change ::  Channel 2.  Controller 64.  Value: 0
000010t:  Note on ::  Channel 9.  Note 51.  Velocity 127
000000t:  Note on ::  Channel 9.  Note 40.  Velocity 116
000001t:  Note off ::  Channel 9.  Note 40.  Velocity 116
000000t:  Note off ::  Channel 9.  Note 51.  Velocity 127
000014t:  Note off ::  Channel 1.  Note 39.  Velocity 87
000000t:  Note off ::  Channel 7.  Note 70.  Velocity 94
000003t:  Note off ::  Channel 7.  Note 65.  Velocity 82
000003t:  Note off ::  Channel 7.  Note 63.  Velocity 84
000002t:  Note on ::  Channel 9.  Note 36.  Velocity 127
000001t:  Note off ::  Channel 2.  Note 51.  Velocity 73
000000t:  Note on ::  Channel 7.  Note 70.  Velocity 78
000000t:  Note off ::  Channel 9.  Note 36.  Velocity 127
000001t:  Note on ::  Channel 7.  Note 65.  Velocity 83
000001t:  Note on ::  Channel 1.  Note 40.  Velocity 93
000000t:  Note on ::  Channel 2.  Note 52.  Velocity 74
000000t:  Note on ::  Channel 7.  Note 62.  Velocity 83
000021t:  Note on ::  Channel 9.  Note 40.  Velocity 127
000001t:  Control change ::  Channel 2.  Controller 64.  Value: 127
000000t:  Note on ::  Channel 9.  Note 51.  Velocity 127
000000t:  Note off ::  Channel 9.  Note 40.  Velocity 127
000001t:  Note off ::  Channel 9.  Note 51.  Velocity 127
000017t:  Note off ::  Channel 1.  Note 40.  Velocity 93
000000t:  Note off ::  Channel 7.  Note 65.  Velocity 83
000001t:  Note off ::  Channel 7.  Note 70.  Velocity 78
000001t:  Note off ::  Channel 7.  Note 62.  Velocity 83
000003t:  Note on ::  Channel 9.  Note 36.  Velocity 113
000001t:  Note on ::  Channel 1.  Note 41.  Velocity 85
000000t:  Note on ::  Channel 7.  Note 70.  Velocity 80
000000t:  Note off ::  Channel 9.  Note 36.  Velocity 113
000001t:  Note on ::  Channel 7.  Note 65.  Velocity 85
000001t:  Note off ::  Channel 2.  Note 52.  Velocity 74
000000t:  Note on ::  Channel 2.  Note 53.  Velocity 81
000000t:  Note on ::  Channel 7.  Note 62.  Velocity 76
000018t:  Note off ::  Channel 5.  Note 65.  Velocity 64
000000t:  Note on ::  Channel 5.  Note 67.  Velocity 74
000000t:  Note off ::  Channel 7.  Note 62.  Velocity 76
000001t:  Note on ::  Channel 5.  Note 75.  Velocity 55
000000t:  Note off ::  Channel 7.  Note 65.  Velocity 85
000001t:  Control change ::  Channel 2.  Controller 64.  Value: 0
000000t:  Note off ::  Channel 7.  Note 70.  Velocity 80
000001t:  Note on ::  Channel 7.  Note 51.  Velocity 80
000000t:  Note on ::  Channel 9.  Note 36.  Velocity 127
000000t:  Note on ::  Channel 9.  Note 49.  Velocity 127
000001t:  Note off ::  Channel 1.  Note 41.  Velocity 85
000000t:  Note off ::  Channel 5.  Note 74.  Velocity 72
000000t:  Note on ::  Channel 7.  Note 63.  Velocity 75
000000t:  Note on ::  Channel 7.  Note 67.  Velocity 87
000000t:  Note off ::  Channel 9.  Note 49.  Velocity 127
000000t:  Note off ::  Channel 9.  Note 36.  Velocity 127
000001t:  Note on ::  Channel 2.  Note 51.  Velocity 67
000000t:  Note on ::  Channel 2.  Note 55.  Velocity 59
000000t:  Note on ::  Channel 2.  Note 58.  Velocity 73
000001t:  Note on ::  Channel 1.  Note 27.  Velocity 98
000000t:  Note off ::  Channel 2.  Note 53.  Velocity 81
000000t:  Note on ::  Channel 7.  Note 70.  Velocity 76
000017t:  Note off ::  Channel 7.  Note 70.  Velocity 76
000004t:  Control change ::  Channel 2.  Controller 64.  Value: 127
000013t:  Note off ::  Channel 7.  Note 51.  Velocity 80
000004t:  Note off ::  Channel 7.  Note 67.  Velocity 87
000000t:  Note off ::  Channel 7.  Note 63.  Velocity 75
000002t:  Note off ::  Channel 2.  Note 55.  Velocity 59
000005t:  Note off ::  Channel 2.  Note 58.  Velocity 73
000001t:  Note on ::  Channel 7.  Note 63.  Velocity 59
000000t:  Note on ::  Channel 7.  Note 67.  Velocity 74
000001t:  Note on ::  Channel 9.  Note 51.  Velocity 116
000001t:  Note off ::  Channel 1.  Note 27.  Velocity 98
000000t:  Note on ::  Channel 7.  Note 70.  Velocity 52
000000t:  Note off ::  Channel 9.  Note 51.  Velocity 116
000003t:  Note off ::  Channel 2.  Note 51.  Velocity 67
000014t:  Note off ::  Channel 7.  Note 70.  Velocity 52
000001t:  Note off ::  Channel 7.  Note 67.  Velocity 74
000001t:  Note off ::  Channel 7.  Note 63.  Velocity 59
000002t:  Note on ::  Channel 7.  Note 70.  Velocity 72
000000t:  Note on ::  Channel 9.  Note 36.  Velocity 125
000001t:  Note on ::  Channel 1.  Note 27.  Velocity 53
000000t:  Note on ::  Channel 7.  Note 67.  Velocity 71
000000t:  Note off ::  Channel 9.  Note 36.  Velocity 125
000001t:  Note on ::  Channel 7.  Note 63.  Velocity 68
000004t:  Note off ::  Channel 1.  Note 27.  Velocity 53
000018t:  Note on ::  Channel 9.  Note 51.  Velocity 116
000000t:  Note on ::  Channel 9.  Note 40.  Velocity 127
000001t:  Note on ::  Channel 1.  Note 27.  Velocity 105
000000t:  Note off ::  Channel 9.  Note 40.  Velocity 127
000000t:  Note off ::  Channel 9.  Note 51.  Velocity 116
000001t:  Note on ::  Channel 2.  Note 51.  Velocity 58
000000t:  Note on ::  Channel 2.  Note 55.  Velocity 64
000000t:  Note on ::  Channel 2.  Note 58.  Velocity 70
000000t:  Control change ::  Channel 2.  Controller 64.  Value: 0
000017t:  Note off ::  Channel 7.  Note 70.  Velocity 72
000001t:  Note off ::  Channel 7.  Note 67.  Velocity 71
000002t:  Control change ::  Channel 2.  Controller 64.  Value: 127
000000t:  Note off ::  Channel 7.  Note 63.  Velocity 68
000001t:  Note on ::  Channel 7.  Note 70.  Velocity 81
000001t:  Note on ::  Channel 7.  Note 67.  Velocity 71
000001t:  Note on ::  Channel 7.  Note 63.  Velocity 60
000018t:  Note off ::  Channel 2.  Note 55.  Velocity 64
000000t:  Note off ::  Channel 7.  Note 63.  Velocity 60
000000t:  Note off ::  Channel 7.  Note 67.  Velocity 71
000002t:  Note off ::  Channel 7.  Note 70.  Velocity 81
000001t:  Note off ::  Channel 2.  Note 58.  Velocity 70
000001t:  Note on ::  Channel 9.  Note 51.  Velocity 119
000001t:  Note on ::  Channel 7.  Note 63.  Velocity 33
000000t:  Note off ::  Channel 9.  Note 51.  Velocity 119
000002t:  Note on ::  Channel 7.  Note 67.  Velocity 64
000000t:  Note on ::  Channel 7.  Note 70.  Velocity 59
000001t:  Note off ::  Channel 2.  Note 51.  Velocity 58
000001t:  Note on ::  Channel 3.  Note 67.  Velocity 79
000017t:  Note off ::  Channel 7.  Note 70.  Velocity 59
000000t:  Note off ::  Channel 7.  Note 67.  Velocity 64
000002t:  Note off ::  Channel 7.  Note 63.  Velocity 33
000001t:  Note on ::  Channel 9.  Note 36.  Velocity 59
000001t:  Note on ::  Channel 7.  Note 70.  Velocity 70
000000t:  Note off ::  Channel 9.  Note 36.  Velocity 59
000001t:  Note on ::  Channel 7.  Note 67.  Velocity 69
000001t:  Note off ::  Channel 1.  Note 27.  Velocity 105
000000t:  Note on ::  Channel 3.  Note 70.  Velocity 82
000000t:  Note on ::  Channel 7.  Note 63.  Velocity 59
000007t:  Note off ::  Channel 3.  Note 67.  Velocity 79
000012t:  Note off ::  Channel 7.  Note 63.  Velocity 59
000001t:  Note off ::  Channel 7.  Note 67.  Velocity 69
000000t:  Note off ::  Channel 7.  Note 70.  Velocity 70
000000t:  Note on ::  Channel 9.  Note 36.  Velocity 127
000001t:  Note on ::  Channel 9.  Note 51.  Velocity 119
000000t:  Note off ::  Channel 9.  Note 36.  Velocity 127
000001t:  Note on ::  Channel 7.  Note 51.  Velocity 67
000000t:  Note on ::  Channel 7.  Note 63.  Velocity 67
000000t:  Note off ::  Channel 9.  Note 51.  Velocity 119
000001t:  Note on ::  Channel 1.  Note 27.  Velocity 107
000000t:  Note on ::  Channel 2.  Note 51.  Velocity 60
000000t:  Note on ::  Channel 7.  Note 67.  Velocity 76
000001t:  Note on ::  Channel 2.  Note 58.  Velocity 64
000000t:  Note on ::  Channel 2.  Note 55.  Velocity 59
000000t:  Note on ::  Channel 3.  Note 75.  Velocity 94
000000t:  Note on ::  Channel 7.  Note 70.  Velocity 64
000002t:  Control change ::  Channel 2.  Controller 64.  Value: 0
000003t:  Note off ::  Channel 3.  Note 70.  Velocity 82
000010t:  Note off ::  Channel 7.  Note 67.  Velocity 76
000000t:  Note off ::  Channel 7.  Note 63.  Velocity 67
000002t:  Note off ::  Channel 7.  Note 51.  Velocity 67
000001t:  Note off ::  Channel 7.  Note 70.  Velocity 64
000002t:  Note on ::  Channel 9.  Note 40.  Velocity 119
000001t:  Note on ::  Channel 7.  Note 70.  Velocity 72
000000t:  Note off ::  Channel 9.  Note 40.  Velocity 119
000001t:  Control change ::  Channel 2.  Controller 64.  Value: 127
000000t:  Note on ::  Channel 7.  Note 67.  Velocity 71
000001t:  Note on ::  Channel 7.  Note 63.  Velocity 68
000001t:  Note on ::  Channel 3.  Note 74.  Velocity 101
000003t:  Note off ::  Channel 3.  Note 75.  Velocity 94
000013t:  Note off ::  Channel 7.  Note 70.  Velocity 72
000001t:  Note off ::  Channel 2.  Note 55.  Velocity 59
000000t:  Note off ::  Channel 7.  Note 67.  Velocity 71
000001t:  Note off ::  Channel 7.  Note 63.  Velocity 68
000002t:  Note off ::  Channel 2.  Note 58.  Velocity 64
000001t:  Note on ::  Channel 7.  Note 63.  Velocity 81
000000t:  Note on ::  Channel 9.  Note 51.  Velocity 127
000001t:  Note off ::  Channel 9.  Note 51.  Velocity 127
000001t:  Note on ::  Channel 7.  Note 67.  Velocity 87
000000t:  Note on ::  Channel 7.  Note 70.  Velocity 71
000001t:  Note on ::  Channel 3.  Note 75.  Velocity 93
000003t:  Note off ::  Channel 1.  Note 27.  Velocity 107
000000t:  Note off ::  Channel 3.  Note 74.  Velocity 101
000008t:  Note off ::  Channel 2.  Note 51.  Velocity 60
000010t:  Note off ::  Channel 3.  Note 75.  Velocity 93
000000t:  Note on ::  Channel 9.  Note 36.  Velocity 113
000001t:  Note off ::  Channel 9.  Note 36.  Velocity 113
000001t:  Note on ::  Channel 3.  Note 74.  Velocity 97
000001t:  Note on ::  Channel 1.  Note 27.  Velocity 68
000007t:  Note off ::  Channel 1.  Note 27.  Velocity 68
000009t:  Note off ::  Channel 7.  Note 63.  Velocity 81
000002t:  Note off ::  Channel 7.  Note 70.  Velocity 71
000000t:  Note off ::  Channel 7.  Note 67.  Velocity 87
000004t:  Note on ::  Channel 7.  Note 51.  Velocity 63
000000t:  Note on ::  Channel 9.  Note 40.  Velocity 127
000000t:  Note on ::  Channel 9.  Note 51.  Velocity 127
000001t:  Note on ::  Channel 2.  Note 51.  Velocity 57
000000t:  Note on ::  Channel 2.  Note 55.  Velocity 56
000000t:  Note on ::  Channel 2.  Note 58.  Velocity 64
000000t:  Note off ::  Channel 9.  Note 51.  Velocity 127
000000t:  Note off ::  Channel 9.  Note 40.  Velocity 127
000001t:  Note on ::  Channel 1.  Note 27.  Velocity 107
000000t:  Note on ::  Channel 7.  Note 63.  Velocity 69
000001t:  Note on ::  Channel 3.  Note 75.  Velocity 92
000000t:  Note on ::  Channel 7.  Note 67.  Velocity 54
000002t:  Note on ::  Channel 7.  Note 70.  Velocity 45
000001t:  Note off ::  Channel 3.  Note 74.  Velocity 97
000002t:  Control change ::  Channel 2.  Controller 64.  Value: 0
000007t:  Note off ::  Channel 7.  Note 63.  Velocity 69
000002t:  Note off ::  Channel 7.  Note 70.  Velocity 45
000000t:  Note off ::  Channel 7.  Note 67.  Velocity 54
000006t:  Note off ::  Channel 3.  Note 75.  Velocity 92
000001t:  Note on ::  Channel 7.  Note 70.  Velocity 84
000001t:  Note on ::  Channel 7.  Note 67.  Velocity 74
000001t:  Control change ::  Channel 2.  Controller 64.  Value: 127
000000t:  Note on ::  Channel 7.  Note 63.  Velocity 70
000001t:  Note on ::  Channel 3.  Note 74.  Velocity 90
000008t:  Note off ::  Channel 2.  Note 55.  Velocity 56
000006t:  Note off ::  Channel 2.  Note 58.  Velocity 64
000002t:  Note off ::  Channel 7.  Note 51.  Velocity 63
000005t:  Note on ::  Channel 9.  Note 51.  Velocity 116
000001t:  Note off ::  Channel 9.  Note 51.  Velocity 116
000008t:  Note off ::  Channel 2.  Note 51.  Velocity 57
000007t:  Note off ::  Channel 7.  Note 67.  Velocity 74
000002t:  Note off ::  Channel 7.  Note 63.  Velocity 70
000000t:  Note off ::  Channel 7.  Note 70.  Velocity 84
000003t:  Note off ::  Channel 3.  Note 74.  Velocity 90
000003t:  Note on ::  Channel 7.  Note 46.  Velocity 100
000000t:  Note on ::  Channel 9.  Note 36.  Velocity 94
000001t:  Note on ::  Channel 7.  Note 62.  Velocity 102
000000t:  Note off ::  Channel 9.  Note 36.  Velocity 94
000001t:  Note on ::  Channel 7.  Note 65.  Velocity 87
000000t:  Note on ::  Channel 7.  Note 70.  Velocity 101
000001t:  Note on ::  Channel 3.  Note 77.  Velocity 79
000014t:  Note on ::  Channel 5.  Note 74.  Velocity 83
000000t:  Note on ::  Channel 5.  Note 65.  Velocity 83
000002t:  Note off ::  Channel 1.  Note 27.  Velocity 107
000003t:  Note off ::  Channel 5.  Note 67.  Velocity 74
000001t:  Note off ::  Channel 5.  Note 75.  Velocity 55
000001t:  Note on ::  Channel 9.  Note 36.  Velocity 127
000000t:  Note on ::  Channel 9.  Note 51.  Velocity 127
000001t:  Note on ::  Channel 2.  Note 50.  Velocity 69
000000t:  Note on ::  Channel 2.  Note 53.  Velocity 59
000000t:  Note on ::  Channel 2.  Note 58.  Velocity 72
000000t:  Note off ::  Channel 9.  Note 51.  Velocity 127
000000t:  Note off ::  Channel 9.  Note 36.  Velocity 127
000001t:  Note on ::  Channel 1.  Note 34.  Velocity 89
000000t:  Control change ::  Channel 2.  Controller 64.  Value: 0
000019t:  Note off ::  Channel 3.  Note 77.  Velocity 79
000000t:  Note off ::  Channel 7.  Note 70.  Velocity 101
000000t:  Note off ::  Channel 7.  Note 65.  Velocity 87
000000t:  Note off ::  Channel 7.  Note 62.  Velocity 102
000002t:  Note on ::  Channel 7.  Note 70.  Velocity 68
000001t:  Control change ::  Channel 2.  Controller 64.  Value: 127
000000t:  Note on ::  Channel 7.  Note 65.  Velocity 52
000003t:  Note on ::  Channel 3.  Note 74.  Velocity 88
000015t:  Note off ::  Channel 7.  Note 65.  Velocity 52
000002t:  Note off ::  Channel 7.  Note 70.  Velocity 68
000001t:  Note off ::  Channel 7.  Note 46.  Velocity 100
000001t:  Note on ::  Channel 7.  Note 62.  Velocity 49
000001t:  Note on ::  Channel 7.  Note 65.  Velocity 60
000002t:  Note off ::  Channel 3.  Note 74.  Velocity 88
000000t:  Note on ::  Channel 9.  Note 51.  Velocity 119
000001t:  Note off ::  Channel 9.  Note 51.  Velocity 119
000001t:  Note on ::  Channel 3.  Note 70.  Velocity 73
000002t:  Note off ::  Channel 1.  Note 34.  Velocity 89
000000t:  Note on ::  Channel 7.  Note 70.  Velocity 44
000002t:  Note off ::  Channel 2.  Note 58.  Velocity 72
000000t:  Note off ::  Channel 2.  Note 53.  Velocity 59
000008t:  Note off ::  Channel 2.  Note 50.  Velocity 69
000006t:  Note off ::  Channel 7.  Note 70.  Velocity 44
000001t:  Note off ::  Channel 7.  Note 65.  Velocity 60
000000t:  Note on ::  Channel 7.  Note 70.  Velocity 68
000001t:  Note off ::  Channel 7.  Note 62.  Velocity 49
000001t:  Note on ::  Channel 9.  Note 36.  Velocity 107
000001t:  Note on ::  Channel 1.  Note 34.  Velocity 56
000000t:  Note on ::  Channel 7.  Note 62.  Velocity 60
000000t:  Note on ::  Channel 7.  Note 65.  Velocity 67
000000t:  Note off ::  Channel 9.  Note 36.  Velocity 107
000005t:  Note off ::  Channel 1.  Note 34.  Velocity 56
000018t:  Note on ::  Channel 9.  Note 40.  Velocity 127
000001t:  Note on ::  Channel 2.  Note 50.  Velocity 67
000000t:  Note on ::  Channel 2.  Note 58.  Velocity 64
000000t:  Control change ::  Channel 2.  Controller 64.  Value: 0
000000t:  Note on ::  Channel 9.  Note 51.  Velocity 122
000000t:  Note off ::  Channel 9.  Note 40.  Velocity 127
000001t:  Note on ::  Channel 1.  Note 34.  Velocity 105
000000t:  Note on ::  Channel 2.  Note 53.  Velocity 53
000000t:  Note off ::  Channel 9.  Note 51.  Velocity 122
000018t:  Note off ::  Channel 7.  Note 70.  Velocity 68
000002t:  Control change ::  Channel 2.  Controller 64.  Value: 127
000000t:  Note off ::  Channel 7.  Note 65.  Velocity 67
000000t:  Note off ::  Channel 7.  Note 62.  Velocity 60
000002t:  Note on ::  Channel 7.  Note 70.  Velocity 56
000001t:  Note on ::  Channel 7.  Note 65.  Velocity 62
000001t:  Note on ::  Channel 7.  Note 62.  Velocity 54
000013t:  Note off ::  Channel 2.  Note 50.  Velocity 67
000002t:  Note off ::  Channel 3.  Note 70.  Velocity 73
000003t:  Note off ::  Channel 7.  Note 62.  Velocity 54
000001t:  Note off ::  Channel 7.  Note 65.  Velocity 62
000001t:  Note off ::  Channel 7.  Note 70.  Velocity 56
000000t:  Note on ::  Channel 7.  Note 62.  Velocity 51
000001t:  Note on ::  Channel 7.  Note 65.  Velocity 59
000000t:  Note on ::  Channel 9.  Note 51.  Velocity 116
000001t:  Note on ::  Channel 7.  Note 70.  Velocity 52
000000t:  Note off ::  Channel 9.  Note 51.  Velocity 116
000005t:  Note off ::  Channel 2.  Note 53.  Velocity 53
000010t:  Note off ::  Channel 1.  Note 34.  Velocity 105
000007t:  Note off ::  Channel 7.  Note 70.  Velocity 52
000001t:  Note off ::  Channel 7.  Note 65.  Velocity 59
000000t:  Note on ::  Channel 7.  Note 70.  Velocity 78
000001t:  Note off ::  Channel 7.  Note 62.  Velocity 51
000000t:  Note on ::  Channel 7.  Note 65.  Velocity 64
000000t:  Note on ::  Channel 9.  Note 36.  Velocity 88
000001t:  Note on ::  Channel 7.  Note 62.  Velocity 59
000000t:  Note off ::  Channel 9.  Note 36.  Velocity 88
000014t:  Note off ::  Channel 7.  Note 62.  Velocity 59
000000t:  Note off ::  Channel 7.  Note 70.  Velocity 78
000001t:  Note off ::  Channel 7.  Note 65.  Velocity 64
000006t:  Note on ::  Channel 7.  Note 46.  Velocity 67
000002t:  Control change ::  Channel 2.  Controller 64.  Value: 0
000000t:  Note on ::  Channel 9.  Note 36.  Velocity 127
000000t:  Note on ::  Channel 9.  Note 51.  Velocity 127
000001t:  Note on ::  Channel 1.  Note 34.  Velocity 107
000000t:  Note on ::  Channel 7.  Note 62.  Velocity 67
000000t:  Note off ::  Channel 9.  Note 51.  Velocity 127
000000t:  Note off ::  Channel 9.  Note 36.  Velocity 127
000001t:  Note on ::  Channel 2.  Note 46.  Velocity 73
000000t:  Note on ::  Channel 7.  Note 65.  Velocity 76
000002t:  Note on ::  Channel 7.  Note 70.  Velocity 80
000014t:  Note off ::  Channel 7.  Note 65.  Velocity 76
000000t:  Note off ::  Channel 7.  Note 62.  Velocity 67
000004t:  Note off ::  Channel 2.  Note 46.  Velocity 73
000000t:  Note off ::  Channel 7.  Note 70.  Velocity 80
000002t:  Note off ::  Channel 1.  Note 34.  Velocity 107
000000t:  Note on ::  Channel 7.  Note 70.  Velocity 92
000000t:  Note on ::  Channel 9.  Note 40.  Velocity 127
000001t:  Note on ::  Channel 7.  Note 65.  Velocity 81
000000t:  Note off ::  Channel 9.  Note 40.  Velocity 127
000001t:  Note on ::  Channel 1.  Note 38.  Velocity 91
000000t:  Note on ::  Channel 2.  Note 50.  Velocity 78
000000t:  Note on ::  Channel 7.  Note 62.  Velocity 71
000022t:  Note on ::  Channel 9.  Note 51.  Velocity 127
000001t:  Note off ::  Channel 9.  Note 51.  Velocity 127
000014t:  Note off ::  Channel 1.  Note 38.  Velocity 91
000005t:  Note off ::  Channel 7.  Note 46.  Velocity 67
000001t:  Note off ::  Channel 7.  Note 62.  Velocity 71
000001t:  Note off ::  Channel 7.  Note 65.  Velocity 81
000000t:  Note off ::  Channel 7.  Note 70.  Velocity 92
000001t:  Note on ::  Channel 7.  Note 70.  Velocity 94
000001t:  Note off ::  Channel 2.  Note 50.  Velocity 78
000000t:  Note on ::  Channel 7.  Note 65.  Velocity 82
000000t:  Note on ::  Channel 9.  Note 36.  Velocity 127
000001t:  Note on ::  Channel 1.  Note 39.  Velocity 110
000000t:  Note on ::  Channel 7.  Note 63.  Velocity 84
000000t:  Note off ::  Channel 9.  Note 36.  Velocity 127
000001t:  Note on ::  Channel 2.  Note 51.  Velocity 79
000022t:  Note on ::  Channel 9.  Note 51.  Velocity 127
000000t:  Note on ::  Channel 9.  Note 40.  Velocity 127
000001t:  Note off ::  Channel 9.  Note 40.  Velocity 127
000000t:  Note off ::  Channel 9.  Note 51.  Velocity 127
000006t:  Note off ::  Channel 2.  Note 58.  Velocity 64
000007t:  Note off ::  Channel 1.  Note 39.  Velocity 110
000001t:  Note off ::  Channel 7.  Note 70.  Velocity 94
000003t:  Note off ::  Channel 7.  Note 65.  Velocity 82
000003t:  Note off ::  Channel 7.  Note 63.  Velocity 84
000001t:  Note off ::  Channel 2.  Note 51.  Velocity 79
000002t:  Note on ::  Channel 7.  Note 70.  Velocity 78
000000t:  Note on ::  Channel 9.  Note 36.  Velocity 127
000001t:  Note on ::  Channel 7.  Note 65.  Velocity 83
000000t:  Note off ::  Channel 9.  Note 36.  Velocity 127
000001t:  Note on ::  Channel 1.  Note 40.  Velocity 89
000000t:  Note on ::  Channel 2.  Note 52.  Velocity 79
000000t:  Note on ::  Channel 7.  Note 62.  Velocity 83
000021t:  Note on ::  Channel 9.  Note 40.  Velocity 127
000001t:  Note on ::  Channel 9.  Note 51.  Velocity 127
000000t:  Note off ::  Channel 9.  Note 40.  Velocity 127
000001t:  Note off ::  Channel 9.  Note 51.  Velocity 127
000008t:  Control change ::  Channel 2.  Controller 64.  Value: 127
000009t:  Note off ::  Channel 1.  Note 40.  Velocity 89
000000t:  Note off ::  Channel 7.  Note 65.  Velocity 83
000001t:  Note off ::  Channel 7.  Note 70.  Velocity 78
000001t:  Note off ::  Channel 7.  Note 62.  Velocity 83
000003t:  Note off ::  Channel 2.  Note 52.  Velocity 79
000001t:  Note on ::  Channel 7.  Note 70.  Velocity 80
000001t:  Note on ::  Channel 1.  Note 41.  Velocity 82
000000t:  Note on ::  Channel 7.  Note 65.  Velocity 85
000000t:  Note on ::  Channel 9.  Note 36.  Velocity 120
000001t:  Note on ::  Channel 2.  Note 53.  Velocity 83
000000t:  Note on ::  Channel 7.  Note 62.  Velocity 76
000000t:  Note off ::  Channel 9.  Note 36.  Velocity 120
000011t:  Note on ::  Channel 5.  Note 67.  Velocity 70
000001t:  Note on ::  Channel 5.  Note 75.  Velocity 76
000001t:  Note off ::  Channel 5.  Note 65.  Velocity 83
000003t:  Note off ::  Channel 5.  Note 74.  Velocity 83
000001t:  Note off ::  Channel 1.  Note 41.  Velocity 82
000001t:  Note off ::  Channel 7.  Note 62.  Velocity 76
000001t:  Note off ::  Channel 7.  Note 65.  Velocity 85
000001t:  Note off ::  Channel 7.  Note 70.  Velocity 80
000001t:  Note on ::  Channel 7.  Note 51.  Velocity 80
000001t:  Note on ::  Channel 7.  Note 63.  Velocity 75
000000t:  Note on ::  Channel 7.  Note 67.  Velocity 87
000001t:  Note on ::  Channel 1.  Note 27.  Velocity 116
000000t:  Note on ::  Channel 2.  Note 55.  Velocity 65
000000t:  Note on ::  Channel 2.  Note 58.  Velocity 73
000001t:  Note off ::  Channel 2.  Note 53.  Velocity 83
000000t:  Note on ::  Channel 2.  Note 51.  Velocity 79
000000t:  Control change ::  Channel 2.  Controller 64.  Value: 0
000000t:  Note on ::  Channel 7.  Note 70.  Velocity 76
000000t:  Note on ::  Channel 9.  Note 36.  Velocity 127
000000t:  Note on ::  Channel 9.  Note 49.  Velocity 127
000001t:  Note off ::  Channel 9.  Note 36.  Velocity 127
000000t:  Note off ::  Channel 9.  Note 49.  Velocity 127
000016t:  Note off ::  Channel 7.  Note 70.  Velocity 76
000013t:  Control change ::  Channel 2.  Controller 64.  Value: 127
000004t:  Note off ::  Channel 7.  Note 51.  Velocity 80
000004t:  Note off ::  Channel 7.  Note 67.  Velocity 87
000000t:  Note off ::  Channel 7.  Note 63.  Velocity 75
000008t:  Note on ::  Channel 7.  Note 63.  Velocity 59
000000t:  Note on ::  Channel 7.  Note 67.  Velocity 74
000001t:  Note off ::  Channel 2.  Note 51.  Velocity 79
000000t:  Note on ::  Channel 9.  Note 51.  Velocity 113
000001t:  Note on ::  Channel 7.  Note 70.  Velocity 52
000000t:  Note off ::  Channel 9.  Note 51.  Velocity 113
000003t:  Note off ::  Channel 1.  Note 27.  Velocity 116
000003t:  Note off ::  Channel 2.  Note 55.  Velocity 65
000004t:  Note off ::  Channel 2.  Note 58.  Velocity 73
000007t:  Note off ::  Channel 7.  Note 70.  Velocity 52
000001t:  Note off ::  Channel 7.  Note 67.  Velocity 74
000001t:  Note off ::  Channel 7.  Note 63.  Velocity 59
000002t:  Note on ::  Channel 7.  Note 70.  Velocity 72
000001t:  Note on ::  Channel 7.  Note 67.  Velocity 71
000000t:  Note on ::  Channel 9.  Note 36.  Velocity 77
000001t:  Note on ::  Channel 1.  Note 27.  Velocity 41
000000t:  Note on ::  Channel 7.  Note 63.  Velocity 68
000000t:  Note off ::  Channel 9.  Note 36.  Velocity 77
000004t:  Note off ::  Channel 1.  Note 27.  Velocity 41
000019t:  Note on ::  Channel 2.  Note 55.  Velocity 41
000000t:  Note on ::  Channel 2.  Note 58.  Velocity 69
000000t:  Note on ::  Channel 9.  Note 51.  Velocity 122
000001t:  Note on ::  Channel 1.  Note 27.  Velocity 107
000000t:  Note on ::  Channel 2.  Note 51.  Velocity 67
000000t:  Note on ::  Channel 9.  Note 40.  Velocity 127
000000t:  Note off ::  Channel 9.  Note 51.  Velocity 122
000001t:  Note off ::  Channel 9.  Note 40.  Velocity 127
000002t:  Control change ::  Channel 2.  Controller 64.  Value: 0
000014t:  Note off ::  Channel 7.  Note 70.  Velocity 72
000001t:  Note off ::  Channel 7.  Note 67.  Velocity 71
000002t:  Note off ::  Channel 7.  Note 63.  Velocity 68
000001t:  Note on ::  Channel 7.  Note 70.  Velocity 81
000001t:  Note on ::  Channel 7.  Note 67.  Velocity 71
000001t:  Note on ::  Channel 7.  Note 63.  Velocity 60
000001t:  Control change ::  Channel 2.  Controller 64.  Value: 127
000017t:  Note off ::  Channel 7.  Note 63.  Velocity 60
000000t:  Note off ::  Channel 7.  Note 67.  Velocity 71
000002t:  Note off ::  Channel 7.  Note 70.  Velocity 81
000003t:  Note on ::  Channel 7.  Note 63.  Velocity 33
000001t:  Note on ::  Channel 9.  Note 51.  Velocity 113
000001t:  Note on ::  Channel 7.  Note 67.  Velocity 64
000000t:  Note on ::  Channel 7.  Note 70.  Velocity 59
000000t:  Note off ::  Channel 9.  Note 51.  Velocity 113
000001t:  Note on ::  Channel 3.  Note 67.  Velocity 86
000001t:  Note off ::  Channel 2.  Note 58.  Velocity 69
000002t:  Note off ::  Channel 2.  Note 55.  Velocity 41
000002t:  Note off ::  Channel 2.  Note 51.  Velocity 67
000013t:  Note off ::  Channel 7.  Note 70.  Velocity 59
000000t:  Note off ::  Channel 7.  Note 67.  Velocity 64
000002t:  Note off ::  Channel 7.  Note 63.  Velocity 33
000002t:  Note on ::  Channel 7.  Note 70.  Velocity 70
000001t:  Note on ::  Channel 3.  Note 70.  Velocity 91
000000t:  Note on ::  Channel 7.  Note 67.  Velocity 69
000000t:  Note on ::  Channel 9.  Note 36.  Velocity 77
000001t:  Note on ::  Channel 7.  Note 63.  Velocity 59
000000t:  Note off ::  Channel 9.  Note 36.  Velocity 77
000001t:  Note off ::  Channel 1.  Note 27.  Velocity 107
000004t:  Note off ::  Channel 3.  Note 67.  Velocity 86
000014t:  Note off ::  Channel 7.  Note 63.  Velocity 59
000001t:  Note off ::  Channel 7.  Note 67.  Velocity 69
000000t:  Note off ::  Channel 7.  Note 70.  Velocity 70
000002t:  Note on ::  Channel 7.  Note 51.  Velocity 67
000000t:  Note on ::  Channel 7.  Note 63.  Velocity 67
000001t:  Note on ::  Channel 2.  Note 51.  Velocity 53
000000t:  Note on ::  Channel 2.  Note 58.  Velocity 55
000000t:  Note on ::  Channel 2.  Note 55.  Velocity 49
000000t:  Note on ::  Channel 7.  Note 67.  Velocity 76
000000t:  Note on ::  Channel 9.  Note 51.  Velocity 127
000000t:  Note on ::  Channel 9.  Note 36.  Velocity 127
000001t:  Note on ::  Channel 3.  Note 75.  Velocity 95
000000t:  Note on ::  Channel 7.  Note 70.  Velocity 64
000000t:  Note off ::  Channel 9.  Note 36.  Velocity 127
000000t:  Note off ::  Channel 9.  Note 51.  Velocity 127
000001t:  Note on ::  Channel 1.  Note 27.  Velocity 91
000001t:  Control change ::  Channel 2.  Controller 64.  Value: 0
000005t:  Note off ::  Channel 3.  Note 70.  Velocity 91
000010t:  Note off ::  Channel 7.  Note 51.  Velocity 67
000003t:  Control change ::  Channel 2.  Controller 64.  Value: 127
000004t:  Note on ::  Channel 3.  Note 74.  Velocity 102
000003t:  Note off ::  Channel 3.  Note 75.  Velocity 95
000012t:  Note off ::  Channel 7.  Note 67.  Velocity 76
000000t:  Note off ::  Channel 7.  Note 63.  Velocity 67
000003t:  Note off ::  Channel 7.  Note 70.  Velocity 64
000003t:  Note on ::  Channel 7.  Note 63.  Velocity 33
000001t:  Note off ::  Channel 3.  Note 74.  Velocity 102
000001t:  Note off ::  Channel 1.  Note 27.  Velocity 91
000000t:  Note on ::  Channel 7.  Note 67.  Velocity 64
000000t:  Note on ::  Channel 7.  Note 70.  Velocity 59
000001t:  Note on ::  Channel 3.  Note 75.  Velocity 88
000000t:  Note on ::  Channel 9.  Note 51.  Velocity 119
000001t:  Note off ::  Channel 9.  Note 51.  Velocity 119
000007t:  Note off ::  Channel 2.  Note 55.  Velocity 49
000007t:  Note off ::  Channel 2.  Note 58.  Velocity 55
000003t:  Note off ::  Channel 7.  Note 70.  Velocity 59
000000t:  Note off ::  Channel 7.  Note 67.  Velocity 64
000002t:  Note off ::  Channel 2.  Note 51.  Velocity 53
000000t:  Note off ::  Channel 7.  Note 63.  Velocity 33
000001t:  Note off ::  Channel 3.  Note 75.  Velocity 88
000000t:  Note on ::  Channel 7.  Note 70.  Velocity 72
000001t:  Note on ::  Channel 7.  Note 67.  Velocity 71
000001t:  Note on ::  Channel 1.  Note 27.  Velocity 82
000000t:  Note on ::  Channel 7.  Note 63.  Velocity 68
000001t:  Note on ::  Channel 3.  Note 74.  Velocity 91
000000t:  Note on ::  Channel 9.  Note 36.  Velocity 88
000001t:  Note off ::  Channel 9.  Note 36.  Velocity 88
000005t:  Note off ::  Channel 1.  Note 27.  Velocity 82
000010t:  Note off ::  Channel 7.  Note 70.  Velocity 72
000001t:  Note off ::  Channel 7.  Note 67.  Velocity 71
000001t:  Note off ::  Channel 7.  Note 63.  Velocity 68
000004t:  Note on ::  Channel 7.  Note 51.  Velocity 63
000001t:  Note on ::  Channel 2.  Note 55.  Velocity 64
000000t:  Note on ::  Channel 2.  Note 58.  Velocity 63
000000t:  Note on ::  Channel 2.  Note 51.  Velocity 56
000000t:  Note on ::  Channel 9.  Note 51.  Velocity 127
000001t:  Note on ::  Channel 1.  Note 27.  Velocity 105
000000t:  Note on ::  Channel 3.  Note 75.  Velocity 92
000000t:  Note on ::  Channel 7.  Note 63.  Velocity 69
000000t:  Note on ::  Channel 9.  Note 40.  Velocity 127
000000t:  Note off ::  Channel 9.  Note 51.  Velocity 127
000001t:  Control change ::  Channel 2.  Controller 64.  Value: 0
000000t:  Note on ::  Channel 7.  Note 67.  Velocity 54
000000t:  Note off ::  Channel 9.  Note 40.  Velocity 127
000002t:  Note on ::  Channel 7.  Note 70.  Velocity 45
000001t:  Note off ::  Channel 3.  Note 74.  Velocity 91
000009t:  Note off ::  Channel 7.  Note 63.  Velocity 69
000002t:  Control change ::  Channel 2.  Controller 64.  Value: 127
000000t:  Note off ::  Channel 7.  Note 70.  Velocity 45
000000t:  Note off ::  Channel 7.  Note 67.  Velocity 54
000006t:  Note off ::  Channel 3.  Note 75.  Velocity 92
000001t:  Note on ::  Channel 7.  Note 70.  Velocity 84
000001t:  Note on ::  Channel 7.  Note 67.  Velocity 74
000001t:  Note on ::  Channel 3.  Note 74.  Velocity 89
000000t:  Note on ::  Channel 7.  Note 63.  Velocity 70
000017t:  Note off ::  Channel 7.  Note 51.  Velocity 63
000007t:  Note on ::  Channel 9.  Note 51.  Velocity 116
000001t:  Note off ::  Channel 9.  Note 51.  Velocity 116
000002t:  Note off ::  Channel 2.  Note 55.  Velocity 64
000002t:  Note off ::  Channel 2.  Note 51.  Velocity 56
000000t:  Note off ::  Channel 2.  Note 58.  Velocity 63
000009t:  Note off ::  Channel 7.  Note 67.  Velocity 74
000002t:  Note off ::  Channel 1.  Note 27.  Velocity 105
000000t:  Note off ::  Channel 7.  Note 63.  Velocity 70
000000t:  Note off ::  Channel 7.  Note 70.  Velocity 84
000006t:  Note on ::  Channel 7.  Note 46.  Velocity 84
000001t:  Note on ::  Channel 7.  Note 62.  Velocity 80
000000t:  Note on ::  Channel 9.  Note 36.  Velocity 90
000001t:  Note on ::  Channel 3.  Note 77.  Velocity 93
000000t:  Note on ::  Channel 7.  Note 65.  Velocity 67
000000t:  Note on ::  Channel 7.  Note 70.  Velocity 79
000000t:  Note off ::  Channel 9.  Note 36.  Velocity 90
000004t:  Note off ::  Channel 3.  Note 74.  Velocity 89
000019t:  Note on ::  Channel 2.  Note 58.  Velocity 60
000000t:  Note off ::  Channel 5.  Note 67.  Velocity 70
000001t:  Note on ::  Channel 1.  Note 34.  Velocity 85
000000t:  Note on ::  Channel 2.  Note 50.  Velocity 68
000000t:  Note on ::  Channel 2.  Note 53.  Velocity 60
000000t:  Note on ::  Channel 9.  Note 36.  Velocity 127
000000t:  Note on ::  Channel 9.  Note 49.  Velocity 122
000001t:  Note on ::  Channel 5.  Note 65.  Velocity 76
000000t:  Note off ::  Channel 9.  Note 49.  Velocity 122
000000t:  Note off ::  Channel 9.  Note 36.  Velocity 127
000001t:  Control change ::  Channel 1.  Controller 11.  Value: 126
000000t:  Control change ::  Channel 2.  Controller 11.  Value: 126
000000t:  Control change ::  Channel 3.  Controller 11.  Value: 126
000000t:  Control change ::  Channel 4.  Controller 11.  Value: 126
000000t:  Note on ::  Channel 5.  Note 74.  Velocity 57
000000t:  Control change ::  Channel 5.  Controller 11.  Value: 126
000000t:  Control change ::  Channel 6.  Controller 11.  Value: 126
000000t:  Control change ::  Channel 7.  Controller 11.  Value: 126
000000t:  Control change ::  Channel 9.  Controller 11.  Value: 126
000001t:  Control change ::  Channel 2.  Controller 64.  Value: 0
000004t:  Control change ::  Channel 1.  Controller 11.  Value: 125
000000t:  Control change ::  Channel 2.  Controller 11.  Value: 125
000000t:  Control change ::  Channel 3.  Controller 11.  Value: 125
000000t:  Control change ::  Channel 4.  Controller 11.  Value: 125
000000t:  Note off ::  Channel 5.  Note 75.  Velocity 76
000000t:  Control change ::  Channel 5.  Controller 11.  Value: 125
000000t:  Control change ::  Channel 6.  Controller 11.  Value: 125
000000t:  Control change ::  Channel 7.  Controller 11.  Value: 125
000000t:  Control change ::  Channel 9.  Controller 11.  Value: 125
000005t:  Control change ::  Channel 1.  Controller 11.  Value: 124
000000t:  Control change ::  Channel 2.  Controller 11.  Value: 124
000000t:  Control change ::  Channel 3.  Controller 11.  Value: 124
000000t:  Control change ::  Channel 4.  Controller 11.  Value: 124
000000t:  Control change ::  Channel 5.  Controller 11.  Value: 124
000000t:  Control change ::  Channel 6.  Controller 11.  Value: 124
000000t:  Control change ::  Channel 7.  Controller 11.  Value: 124
000000t:  Control change ::  Channel 9.  Controller 11.  Value: 124
000003t:  Control change ::  Channel 1.  Controller 11.  Value: 123
000000t:  Control change ::  Channel 2.  Controller 11.  Value: 123
000000t:  Control change ::  Channel 3.  Controller 11.  Value: 123
000000t:  Control change ::  Channel 4.  Controller 11.  Value: 123
000000t:  Control change ::  Channel 5.  Controller 11.  Value: 123
000000t:  Control change ::  Channel 6.  Controller 11.  Value: 123
000000t:  Control change ::  Channel 7.  Controller 11.  Value: 123
000000t:  Control change ::  Channel 9.  Controller 11.  Value: 123
000003t:  Control change ::  Channel 1.  Controller 11.  Value: 121
000000t:  Control change ::  Channel 2.  Controller 11.  Value: 121
000000t:  Control change ::  Channel 3.  Controller 11.  Value: 121
000000t:  Control change ::  Channel 4.  Controller 11.  Value: 121
000000t:  Control change ::  Channel 5.  Controller 11.  Value: 121
000000t:  Control change ::  Channel 6.  Controller 11.  Value: 121
000000t:  Control change ::  Channel 7.  Controller 11.  Value: 121
000000t:  Control change ::  Channel 9.  Controller 11.  Value: 121
000001t:  Note off ::  Channel 7.  Note 70.  Velocity 79
000000t:  Note off ::  Channel 7.  Note 65.  Velocity 67
000000t:  Note off ::  Channel 7.  Note 62.  Velocity 80
000002t:  Note on ::  Channel 7.  Note 70.  Velocity 68
000001t:  Control change ::  Channel 2.  Controller 64.  Value: 127
000000t:  Note on ::  Channel 7.  Note 65.  Velocity 52
000002t:  Control change ::  Channel 1.  Controller 11.  Value: 120
000000t:  Control change ::  Channel 2.  Controller 11.  Value: 120
000000t:  Note on ::  Channel 3.  Note 74.  Velocity 93
000000t:  Control change ::  Channel 3.  Controller 11.  Value: 120
000000t:  Control change ::  Channel 4.  Controller 11.  Value: 120
000000t:  Control change ::  Channel 5.  Controller 11.  Value: 120
000000t:  Control change ::  Channel 6.  Controller 11.  Value: 120
000000t:  Control change ::  Channel 7.  Controller 11.  Value: 120
000000t:  Control change ::  Channel 9.  Controller 11.  Value: 120
000004t:  Control change ::  Channel 1.  Controller 11.  Value: 118
000000t:  Control change ::  Channel 2.  Controller 11.  Value: 118
000000t:  Control change ::  Channel 3.  Controller 11.  Value: 118
000000t:  Control change ::  Channel 4.  Controller 11.  Value: 118
000000t:  Control change ::  Channel 5.  Controller 11.  Value: 118
000000t:  Control change ::  Channel 6.  Controller 11.  Value: 118
000000t:  Control change ::  Channel 7.  Controller 11.  Value: 118
000000t:  Control change ::  Channel 9.  Controller 11.  Value: 118
000004t:  Control change ::  Channel 1.  Controller 11.  Value: 116
000000t:  Control change ::  Channel 2.  Controller 11.  Value: 116
000000t:  Control change ::  Channel 3.  Controller 11.  Value: 116
000000t:  Control change ::  Channel 4.  Controller 11.  Value: 116
000000t:  Control change ::  Channel 5.  Controller 11.  Value: 116
000000t:  Control change ::  Channel 6.  Controller 11.  Value: 116
000000t:  Control change ::  Channel 7.  Controller 11.  Value: 116
000000t:  Control change ::  Channel 9.  Controller 11.  Value: 116
000005t:  Control change ::  Channel 1.  Controller 11.  Value: 114
000000t:  Control change ::  Channel 2.  Controller 11.  Value: 114
000000t:  Control change ::  Channel 3.  Controller 11.  Value: 114
000000t:  Control change ::  Channel 4.  Controller 11.  Value: 114
000000t:  Control change ::  Channel 5.  Controller 11.  Value: 114
000000t:  Control change ::  Channel 6.  Controller 11.  Value: 114
000000t:  Control change ::  Channel 7.  Controller 11.  Value: 114
000000t:  Control change ::  Channel 9.  Controller 11.  Value: 114
000001t:  Note off ::  Channel 3.  Note 77.  Velocity 93
000002t:  Note off ::  Channel 7.  Note 65.  Velocity 52
000002t:  Note off ::  Channel 7.  Note 70.  Velocity 68
000001t:  Note off ::  Channel 7.  Note 46.  Velocity 84
000001t:  Control change ::  Channel 1.  Controller 11.  Value: 113
000000t:  Note off ::  Channel 2.  Note 53.  Velocity 60
000000t:  Control change ::  Channel 2.  Controller 11.  Value: 113
000000t:  Control change ::  Channel 3.  Controller 11.  Value: 113
000000t:  Control change ::  Channel 4.  Controller 11.  Value: 113
000000t:  Control change ::  Channel 5.  Controller 11.  Value: 113
000000t:  Control change ::  Channel 6.  Controller 11.  Value: 113
000000t:  Note on ::  Channel 7.  Note 62.  Velocity 49
000000t:  Control change ::  Channel 7.  Controller 11.  Value: 113
000000t:  Control change ::  Channel 9.  Controller 11.  Value: 113
000001t:  Note off ::  Channel 3.  Note 74.  Velocity 93
000000t:  Note on ::  Channel 7.  Note 65.  Velocity 60
000003t:  Control change ::  Channel 1.  Controller 11.  Value: 112
000000t:  Control change ::  Channel 2.  Controller 11.  Value: 112
000000t:  Control change ::  Channel 3.  Controller 11.  Value: 112
000000t:  Note on ::  Channel 3.  Note 70.  Velocity 72
000000t:  Control change ::  Channel 4.  Controller 11.  Value: 112
000000t:  Control change ::  Channel 5.  Controller 11.  Value: 112
000000t:  Control change ::  Channel 6.  Controller 11.  Value: 112
000000t:  Control change ::  Channel 7.  Controller 11.  Value: 112
000000t:  Note on ::  Channel 9.  Note 51.  Velocity 116
000000t:  Control change ::  Channel 9.  Controller 11.  Value: 112
000001t:  Note off ::  Channel 1.  Note 34.  Velocity 85
000000t:  Note off ::  Channel 2.  Note 58.  Velocity 60
000000t:  Note off ::  Channel 9.  Note 51.  Velocity 116
000001t:  Control change ::  Channel 1.  Controller 11.  Value: 110
000000t:  Control change ::  Channel 2.  Controller 11.  Value: 110
000000t:  Control change ::  Channel 3.  Controller 11.  Value: 110
000000t:  Control change ::  Channel 4.  Controller 11.  Value: 110
000000t:  Control change ::  Channel 5.  Controller 11.  Value: 110
000000t:  Control change ::  Channel 6.  Controller 11.  Value: 110
000000t:  Control change ::  Channel 7.  Controller 11.  Value: 110
000000t:  Control change ::  Channel 9.  Controller 11.  Value: 110
000001t:  Note off ::  Channel 2.  Note 50.  Velocity 68
000000t:  Note on ::  Channel 7.  Note 70.  Velocity 44
000005t:  Control change ::  Channel 1.  Controller 11.  Value: 109
000000t:  Control change ::  Channel 2.  Controller 11.  Value: 109
000000t:  Control change ::  Channel 3.  Controller 11.  Value: 109
000000t:  Control change ::  Channel 4.  Controller 11.  Value: 109
000000t:  Control change ::  Channel 5.  Controller 11.  Value: 109
000000t:  Control change ::  Channel 6.  Controller 11.  Value: 109
000000t:  Control change ::  Channel 7.  Controller 11.  Value: 109
000000t:  Control change ::  Channel 9.  Controller 11.  Value: 109
000003t:  Control change ::  Channel 1.  Controller 11.  Value: 108
000000t:  Control change ::  Channel 2.  Controller 11.  Value: 108
000000t:  Control change ::  Channel 3.  Controller 11.  Value: 108
000000t:  Control change ::  Channel 4.  Controller 11.  Value: 108
000000t:  Control change ::  Channel 5.  Controller 11.  Value: 108
000000t:  Control change ::  Channel 6.  Controller 11.  Value: 108
000000t:  Control change ::  Channel 7.  Controller 11.  Value: 108
000000t:  Control change ::  Channel 9.  Controller 11.  Value: 108
000004t:  Control change ::  Channel 1.  Controller 11.  Value: 106
000000t:  Control change ::  Channel 2.  Controller 11.  Value: 106
000000t:  Control change ::  Channel 3.  Controller 11.  Value: 106
000000t:  Control change ::  Channel 4.  Controller 11.  Value: 106
000000t:  Control change ::  Channel 5.  Controller 11.  Value: 106
000000t:  Control change ::  Channel 6.  Controller 11.  Value: 106
000000t:  Control change ::  Channel 7.  Controller 11.  Value: 106
000000t:  Control change ::  Channel 9.  Controller 11.  Value: 106
000004t:  Note off ::  Channel 7.  Note 70.  Velocity 44
000001t:  Note off ::  Channel 7.  Note 65.  Velocity 60
000000t:  Note on ::  Channel 7.  Note 70.  Velocity 68
000001t:  Control change ::  Channel 1.  Controller 11.  Value: 104
000000t:  Control change ::  Channel 2.  Controller 11.  Value: 104
000000t:  Control change ::  Channel 3.  Controller 11.  Value: 104
000000t:  Control change ::  Channel 4.  Controller 11.  Value: 104
000000t:  Control change ::  Channel 5.  Controller 11.  Value: 104
000000t:  Control change ::  Channel 6.  Controller 11.  Value: 104
000000t:  Note off ::  Channel 7.  Note 62.  Velocity 49
000000t:  Control change ::  Channel 7.  Controller 11.  Value: 104
000000t:  Control change ::  Channel 9.  Controller 11.  Value: 104
000002t:  Note on ::  Channel 1.  Note 34.  Velocity 68
000000t:  Note on ::  Channel 7.  Note 62.  Velocity 60
000000t:  Note on ::  Channel 7.  Note 65.  Velocity 67
000001t:  Note on ::  Channel 9.  Note 36.  Velocity 107
000001t:  Note off ::  Channel 9.  Note 36.  Velocity 107
000001t:  Control change ::  Channel 1.  Controller 11.  Value: 103
000000t:  Control change ::  Channel 2.  Controller 11.  Value: 103
000000t:  Control change ::  Channel 3.  Controller 11.  Value: 103
000000t:  Control change ::  Channel 4.  Controller 11.  Value: 103
000000t:  Control change ::  Channel 5.  Controller 11.  Value: 103
000000t:  Control change ::  Channel 6.  Controller 11.  Value: 103
000000t:  Control change ::  Channel 7.  Controller 11.  Value: 103
000000t:  Control change ::  Channel 9.  Controller 11.  Value: 103
000004t:  Note off ::  Channel 1.  Note 34.  Velocity 68
000000t:  Control change ::  Channel 1.  Controller 11.  Value: 101
000000t:  Control change ::  Channel 2.  Controller 11.  Value: 101
000000t:  Control change ::  Channel 3.  Controller 11.  Value: 101
000000t:  Control change ::  Channel 4.  Controller 11.  Value: 101
000000t:  Control change ::  Channel 5.  Controller 11.  Value: 101
000000t:  Control change ::  Channel 6.  Controller 11.  Value: 101
000000t:  Control change ::  Channel 7.  Controller 11.  Value: 101
000000t:  Control change ::  Channel 9.  Controller 11.  Value: 101
000005t:  Control change ::  Channel 1.  Controller 11.  Value: 100
000000t:  Control change ::  Channel 2.  Controller 11.  Value: 100
000000t:  Control change ::  Channel 3.  Controller 11.  Value: 100
000000t:  Control change ::  Channel 4.  Controller 11.  Value: 100
000000t:  Control change ::  Channel 5.  Controller 11.  Value: 100
000000t:  Control change ::  Channel 6.  Controller 11.  Value: 100
000000t:  Control change ::  Channel 7.  Controller 11.  Value: 100
000000t:  Control change ::  Channel 9.  Controller 11.  Value: 100
000002t:  Control change ::  Channel 1.  Controller 11.  Value: 99
000000t:  Control change ::  Channel 2.  Controller 11.  Value: 99
000000t:  Control change ::  Channel 3.  Controller 11.  Value: 99
000000t:  Control change ::  Channel 4.  Controller 11.  Value: 99
000000t:  Control change ::  Channel 5.  Controller 11.  Value: 99
000000t:  Control change ::  Channel 6.  Controller 11.  Value: 99
000000t:  Control change ::  Channel 7.  Controller 11.  Value: 99
000000t:  Control change ::  Channel 9.  Controller 11.  Value: 99
000005t:  Control change ::  Channel 1.  Controller 11.  Value: 95
000000t:  Control change ::  Channel 2.  Controller 11.  Value: 95
000000t:  Control change ::  Channel 3.  Controller 11.  Value: 95
000000t:  Control change ::  Channel 4.  Controller 11.  Value: 95
000000t:  Control change ::  Channel 5.  Controller 11.  Value: 95
000000t:  Control change ::  Channel 6.  Controller 11.  Value: 95
000000t:  Control change ::  Channel 7.  Controller 11.  Value: 95
000000t:  Control change ::  Channel 9.  Controller 11.  Value: 95
000005t:  Control change ::  Channel 1.  Controller 11.  Value: 93
000000t:  Note on ::  Channel 2.  Note 58.  Velocity 67
000000t:  Control change ::  Channel 2.  Controller 11.  Value: 93
000000t:  Control change ::  Channel 3.  Controller 11.  Value: 93
000000t:  Control change ::  Channel 4.  Controller 11.  Value: 93
000000t:  Control change ::  Channel 5.  Controller 11.  Value: 93
000000t:  Control change ::  Channel 6.  Controller 11.  Value: 93
000000t:  Control change ::  Channel 7.  Controller 11.  Value: 93
000000t:  Control change ::  Channel 9.  Controller 11.  Value: 93
000001t:  Note on ::  Channel 1.  Note 34.  Velocity 100
000000t:  Note on ::  Channel 2.  Note 50.  Velocity 58
000000t:  Note on ::  Channel 2.  Note 53.  Velocity 50
000000t:  Note on ::  Channel 9.  Note 40.  Velocity 127
000000t:  Note on ::  Channel 9.  Note 51.  Velocity 119
000001t:  Note off ::  Channel 9.  Note 51.  Velocity 119
000000t:  Note off ::  Channel 9.  Note 40.  Velocity 127
000004t:  Control change ::  Channel 1.  Controller 11.  Value: 91
000000t:  Control change ::  Channel 2.  Controller 11.  Value: 91
000000t:  Control change ::  Channel 3.  Controller 11.  Value: 91
000000t:  Control change ::  Channel 4.  Controller 11.  Value: 91
000000t:  Control change ::  Channel 5.  Controller 11.  Value: 91
000000t:  Control change ::  Channel 6.  Controller 11.  Value: 91
000000t:  Control change ::  Channel 7.  Controller 11.  Value: 91
000000t:  Control change ::  Channel 9.  Controller 11.  Value: 91
000003t:  Control change ::  Channel 1.  Controller 11.  Value: 89
000000t:  Control change ::  Channel 2.  Controller 11.  Value: 89
000000t:  Control change ::  Channel 3.  Controller 11.  Value: 89
000000t:  Control change ::  Channel 4.  Controller 11.  Value: 89
000000t:  Control change ::  Channel 5.  Controller 11.  Value: 89
000000t:  Control change ::  Channel 6.  Controller 11.  Value: 89
000000t:  Control change ::  Channel 7.  Controller 11.  Value: 89
000000t:  Control change ::  Channel 9.  Controller 11.  Value: 89
000004t:  Control change ::  Channel 1.  Controller 11.  Value: 87
000000t:  Control change ::  Channel 2.  Controller 11.  Value: 87
000000t:  Control change ::  Channel 2.  Controller 64.  Value: 0
000000t:  Control change ::  Channel 3.  Controller 11.  Value: 87
000000t:  Control change ::  Channel 4.  Controller 11.  Value: 87
000000t:  Control change ::  Channel 5.  Controller 11.  Value: 87
000000t:  Control change ::  Channel 6.  Controller 11.  Value: 87
000000t:  Control change ::  Channel 7.  Controller 11.  Value: 87
000000t:  Control change ::  Channel 9.  Controller 11.  Value: 87
000004t:  Control change ::  Channel 1.  Controller 11.  Value: 84
000000t:  Control change ::  Channel 2.  Controller 11.  Value: 84
000000t:  Control change ::  Channel 3.  Controller 11.  Value: 84
000000t:  Control change ::  Channel 4.  Controller 11.  Value: 84
000000t:  Control change ::  Channel 5.  Controller 11.  Value: 84
000000t:  Control change ::  Channel 6.  Controller 11.  Value: 84
000000t:  Control change ::  Channel 7.  Controller 11.  Value: 84
000000t:  Control change ::  Channel 9.  Controller 11.  Value: 84
000002t:  Note off ::  Channel 7.  Note 70.  Velocity 68
000002t:  Note off ::  Channel 7.  Note 65.  Velocity 67
000000t:  Note off ::  Channel 7.  Note 62.  Velocity 60
000002t:  Control change ::  Channel 1.  Controller 11.  Value: 82
000000t:  Control change ::  Channel 2.  Controller 11.  Value: 82
000000t:  Control change ::  Channel 3.  Controller 11.  Value: 82
000000t:  Control change ::  Channel 4.  Controller 11.  Value: 82
000000t:  Control change ::  Channel 5.  Controller 11.  Value: 82
000000t:  Control change ::  Channel 6.  Controller 11.  Value: 82
000000t:  Control change ::  Channel 7.  Controller 11.  Value: 82
000000t:  Note on ::  Channel 7.  Note 70.  Velocity 56
000000t:  Control change ::  Channel 9.  Controller 11.  Value: 82
000001t:  Note on ::  Channel 7.  Note 65.  Velocity 62
000001t:  Note on ::  Channel 7.  Note 62.  Velocity 54
000002t:  Control change ::  Channel 1.  Controller 11.  Value: 80
000000t:  Control change ::  Channel 2.  Controller 11.  Value: 80
000000t:  Control change ::  Channel 3.  Controller 11.  Value: 80
000000t:  Control change ::  Channel 4.  Controller 11.  Value: 80
000000t:  Control change ::  Channel 5.  Controller 11.  Value: 80
000000t:  Control change ::  Channel 6.  Controller 11.  Value: 80
000000t:  Control change ::  Channel 7.  Controller 11.  Value: 80
000000t:  Control change ::  Channel 9.  Controller 11.  Value: 80
000004t:  Control change ::  Channel 1.  Controller 11.  Value: 78
000000t:  Control change ::  Channel 2.  Controller 11.  Value: 78
000000t:  Control change ::  Channel 3.  Controller 11.  Value: 78
000000t:  Control change ::  Channel 4.  Controller 11.  Value: 78
000000t:  Control change ::  Channel 5.  Controller 11.  Value: 78
000000t:  Control change ::  Channel 6.  Controller 11.  Value: 78
000000t:  Control change ::  Channel 7.  Controller 11.  Value: 78
000000t:  Control change ::  Channel 9.  Controller 11.  Value: 78
000001t:  Control change ::  Channel 2.  Controller 64.  Value: 127
000003t:  Control change ::  Channel 1.  Controller 11.  Value: 75
000000t:  Control change ::  Channel 2.  Controller 11.  Value: 75
000000t:  Control change ::  Channel 3.  Controller 11.  Value: 75
000000t:  Control change ::  Channel 4.  Controller 11.  Value: 75
000000t:  Control change ::  Channel 5.  Controller 11.  Value: 75
000000t:  Control change ::  Channel 6.  Controller 11.  Value: 75
000000t:  Control change ::  Channel 7.  Controller 11.  Value: 75
000000t:  Control change ::  Channel 9.  Controller 11.  Value: 75
000006t:  Control change ::  Channel 1.  Controller 11.  Value: 73
000000t:  Note off ::  Channel 2.  Note 50.  Velocity 58
000000t:  Control change ::  Channel 2.  Controller 11.  Value: 73
000000t:  Control change ::  Channel 3.  Controller 11.  Value: 73
000000t:  Control change ::  Channel 4.  Controller 11.  Value: 73
000000t:  Control change ::  Channel 5.  Controller 11.  Value: 73
000000t:  Control change ::  Channel 6.  Controller 11.  Value: 73
000000t:  Control change ::  Channel 7.  Controller 11.  Value: 73
000000t:  Control change ::  Channel 9.  Controller 11.  Value: 73
000002t:  Note off ::  Channel 7.  Note 62.  Velocity 54
000001t:  Note off ::  Channel 7.  Note 65.  Velocity 62
000001t:  Note off ::  Channel 7.  Note 70.  Velocity 56
000000t:  Note on ::  Channel 7.  Note 62.  Velocity 51
000001t:  Control change ::  Channel 1.  Controller 11.  Value: 71
000000t:  Control change ::  Channel 2.  Controller 11.  Value: 71
000000t:  Control change ::  Channel 3.  Controller 11.  Value: 71
000000t:  Control change ::  Channel 4.  Controller 11.  Value: 71
000000t:  Control change ::  Channel 5.  Controller 11.  Value: 71
000000t:  Control change ::  Channel 6.  Controller 11.  Value: 71
000000t:  Control change ::  Channel 7.  Controller 11.  Value: 71
000000t:  Note on ::  Channel 7.  Note 65.  Velocity 59
000000t:  Control change ::  Channel 9.  Controller 11.  Value: 71
000001t:  Note on ::  Channel 7.  Note 70.  Velocity 52
000001t:  Note on ::  Channel 9.  Note 51.  Velocity 122
000001t:  Note off ::  Channel 2.  Note 53.  Velocity 50
000000t:  Note off ::  Channel 9.  Note 51.  Velocity 122
000001t:  Control change ::  Channel 1.  Controller 11.  Value: 69
000000t:  Control change ::  Channel 2.  Controller 11.  Value: 69
000000t:  Control change ::  Channel 3.  Controller 11.  Value: 69
000000t:  Control change ::  Channel 4.  Controller 11.  Value: 69
000000t:  Control change ::  Channel 5.  Controller 11.  Value: 69
000000t:  Control change ::  Channel 6.  Controller 11.  Value: 69
000000t:  Control change ::  Channel 7.  Controller 11.  Value: 69
000000t:  Control change ::  Channel 9.  Controller 11.  Value: 69
000004t:  Control change ::  Channel 1.  Controller 11.  Value: 67
000000t:  Control change ::  Channel 2.  Controller 11.  Value: 67
000000t:  Control change ::  Channel 3.  Controller 11.  Value: 67
000000t:  Control change ::  Channel 4.  Controller 11.  Value: 67
000000t:  Control change ::  Channel 5.  Controller 11.  Value: 67
000000t:  Control change ::  Channel 6.  Controller 11.  Value: 67
000000t:  Control change ::  Channel 7.  Controller 11.  Value: 67
000000t:  Control change ::  Channel 9.  Controller 11.  Value: 67
000005t:  Control change ::  Channel 1.  Controller 11.  Value: 65
000000t:  Control change ::  Channel 2.  Controller 11.  Value: 65
000000t:  Control change ::  Channel 3.  Controller 11.  Value: 65
000000t:  Control change ::  Channel 4.  Controller 11.  Value: 65
000000t:  Control change ::  Channel 5.  Controller 11.  Value: 65
000000t:  Control change ::  Channel 6.  Controller 11.  Value: 65
000000t:  Control change ::  Channel 7.  Controller 11.  Value: 65
000000t:  Control change ::  Channel 9.  Controller 11.  Value: 65
000003t:  Control change ::  Channel 1.  Controller 11.  Value: 62
000000t:  Control change ::  Channel 2.  Controller 11.  Value: 62
000000t:  Control change ::  Channel 3.  Controller 11.  Value: 62
000000t:  Control change ::  Channel 4.  Controller 11.  Value: 62
000000t:  Control change ::  Channel 5.  Controller 11.  Value: 62
000000t:  Control change ::  Channel 6.  Controller 11.  Value: 62
000000t:  Control change ::  Channel 7.  Controller 11.  Value: 62
000000t:  Control change ::  Channel 9.  Controller 11.  Value: 62
000005t:  Note off ::  Channel 1.  Note 34.  Velocity 100
000000t:  Control change ::  Channel 1.  Controller 11.  Value: 60
000000t:  Control change ::  Channel 2.  Controller 11.  Value: 60
000000t:  Control change ::  Channel 3.  Controller 11.  Value: 60
000000t:  Control change ::  Channel 4.  Controller 11.  Value: 60
000000t:  Control change ::  Channel 5.  Controller 11.  Value: 60
000000t:  Control change ::  Channel 6.  Controller 11.  Value: 60
000000t:  Control change ::  Channel 7.  Controller 11.  Value: 60
000000t:  Control change ::  Channel 9.  Controller 11.  Value: 60
000002t:  Note off ::  Channel 7.  Note 70.  Velocity 52
000001t:  Note off ::  Channel 7.  Note 65.  Velocity 59
000000t:  Note on ::  Channel 7.  Note 70.  Velocity 78
000001t:  Note off ::  Channel 7.  Note 62.  Velocity 51
000000t:  Note on ::  Channel 7.  Note 65.  Velocity 64
000000t:  Note on ::  Channel 9.  Note 36.  Velocity 127
000001t:  Control change ::  Channel 1.  Controller 11.  Value: 58
000000t:  Control change ::  Channel 2.  Controller 11.  Value: 58
000000t:  Control change ::  Channel 3.  Controller 11.  Value: 58
000000t:  Control change ::  Channel 4.  Controller 11.  Value: 58
000000t:  Control change ::  Channel 5.  Controller 11.  Value: 58
000000t:  Control change ::  Channel 6.  Controller 11.  Value: 58
000000t:  Control change ::  Channel 7.  Controller 11.  Value: 58
000000t:  Note on ::  Channel 7.  Note 62.  Velocity 59
000000t:  Control change ::  Channel 9.  Controller 11.  Value: 58
000000t:  Note off ::  Channel 9.  Note 36.  Velocity 127
000004t:  Control change ::  Channel 1.  Controller 11.  Value: 55
000000t:  Control change ::  Channel 2.  Controller 11.  Value: 55
000000t:  Control change ::  Channel 3.  Controller 11.  Value: 55
000000t:  Control change ::  Channel 4.  Controller 11.  Value: 55
000000t:  Control change ::  Channel 5.  Controller 11.  Value: 55
000000t:  Control change ::  Channel 6.  Controller 11.  Value: 55
000000t:  Control change ::  Channel 7.  Controller 11.  Value: 55
000000t:  Control change ::  Channel 9.  Controller 11.  Value: 55
000005t:  Control change ::  Channel 1.  Controller 11.  Value: 52
000000t:  Control change ::  Channel 2.  Controller 11.  Value: 52
000000t:  Note off ::  Channel 3.  Note 70.  Velocity 72
000000t:  Control change ::  Channel 3.  Controller 11.  Value: 52
000000t:  Control change ::  Channel 4.  Controller 11.  Value: 52
000000t:  Control change ::  Channel 5.  Controller 11.  Value: 52
000000t:  Control change ::  Channel 6.  Controller 11.  Value: 52
000000t:  Control change ::  Channel 7.  Controller 11.  Value: 52
000000t:  Control change ::  Channel 9.  Controller 11.  Value: 52
000005t:  Note off ::  Channel 7.  Note 62.  Velocity 59
000000t:  Note off ::  Channel 7.  Note 70.  Velocity 78
000001t:  Control change ::  Channel 1.  Controller 11.  Value: 51
000000t:  Control change ::  Channel 2.  Controller 11.  Value: 51
000000t:  Control change ::  Channel 3.  Controller 11.  Value: 51
000000t:  Control change ::  Channel 4.  Controller 11.  Value: 51
000000t:  Control change ::  Channel 5.  Controller 11.  Value: 51
000000t:  Control change ::  Channel 6.  Controller 11.  Value: 51
000000t:  Note off ::  Channel 7.  Note 65.  Velocity 64
000000t:  Control change ::  Channel 7.  Controller 11.  Value: 51
000000t:  Control change ::  Channel 9.  Controller 11.  Value: 51
000002t:  Control change ::  Channel 2.  Controller 64.  Value: 0
000001t:  Control change ::  Channel 1.  Controller 11.  Value: 48
000000t:  Control change ::  Channel 2.  Controller 11.  Value: 48
000000t:  Control change ::  Channel 3.  Controller 11.  Value: 48
000000t:  Control change ::  Channel 4.  Controller 11.  Value: 48
000000t:  Control change ::  Channel 5.  Controller 11.  Value: 48
000000t:  Control change ::  Channel 6.  Controller 11.  Value: 48
000000t:  Control change ::  Channel 7.  Controller 11.  Value: 48
000000t:  Control change ::  Channel 9.  Controller 11.  Value: 48
000005t:  Control change ::  Channel 1.  Controller 11.  Value: 46
000000t:  Note on ::  Channel 1.  Note 34.  Velocity 100
000000t:  Control change ::  Channel 2.  Controller 11.  Value: 46
000000t:  Control change ::  Channel 3.  Controller 11.  Value: 46
000000t:  Control change ::  Channel 4.  Controller 11.  Value: 46
000000t:  Control change ::  Channel 5.  Controller 11.  Value: 46
000000t:  Control change ::  Channel 6.  Controller 11.  Value: 46
000000t:  Control change ::  Channel 7.  Controller 11.  Value: 46
000000t:  Note on ::  Channel 7.  Note 46.  Velocity 67
000000t:  Control change ::  Channel 9.  Controller 11.  Value: 46
000000t:  Note on ::  Channel 9.  Note 51.  Velocity 122
000001t:  Note on ::  Channel 7.  Note 62.  Velocity 67
000000t:  Note on ::  Channel 9.  Note 36.  Velocity 127
000000t:  Note off ::  Channel 9.  Note 51.  Velocity 122
000001t:  Note on ::  Channel 2.  Note 46.  Velocity 68
000000t:  Note on ::  Channel 7.  Note 65.  Velocity 76
000000t:  Note off ::  Channel 9.  Note 36.  Velocity 127
000001t:  Note on ::  Channel 7.  Note 70.  Velocity 80
000001t:  Control change ::  Channel 1.  Controller 11.  Value: 44
000000t:  Control change ::  Channel 2.  Controller 11.  Value: 44
000000t:  Control change ::  Channel 3.  Controller 11.  Value: 44
000000t:  Control change ::  Channel 4.  Controller 11.  Value: 44
000000t:  Control change ::  Channel 5.  Controller 11.  Value: 44
000000t:  Control change ::  Channel 6.  Controller 11.  Value: 44
000000t:  Control change ::  Channel 7.  Controller 11.  Value: 44
000000t:  Control change ::  Channel 9.  Controller 11.  Value: 44
000004t:  Control change ::  Channel 1.  Controller 11.  Value: 42
000000t:  Control change ::  Channel 2.  Controller 11.  Value: 42
000000t:  Control change ::  Channel 3.  Controller 11.  Value: 42
000000t:  Control change ::  Channel 4.  Controller 11.  Value: 42
000000t:  Control change ::  Channel 5.  Controller 11.  Value: 42
000000t:  Control change ::  Channel 6.  Controller 11.  Value: 42
000000t:  Control change ::  Channel 7.  Controller 11.  Value: 42
000000t:  Control change ::  Channel 9.  Controller 11.  Value: 42
000006t:  Control change ::  Channel 1.  Controller 11.  Value: 41
000000t:  Control change ::  Channel 2.  Controller 11.  Value: 41
000000t:  Control change ::  Channel 3.  Controller 11.  Value: 41
000000t:  Control change ::  Channel 4.  Controller 11.  Value: 41
000000t:  Control change ::  Channel 5.  Controller 11.  Value: 41
000000t:  Control change ::  Channel 6.  Controller 11.  Value: 41
000000t:  Control change ::  Channel 7.  Controller 11.  Value: 41
000000t:  Control change ::  Channel 9.  Controller 11.  Value: 41
000003t:  Control change ::  Channel 1.  Controller 11.  Value: 39
000000t:  Control change ::  Channel 2.  Controller 11.  Value: 39
000000t:  Control change ::  Channel 3.  Controller 11.  Value: 39
000000t:  Control change ::  Channel 4.  Controller 11.  Value: 39
000000t:  Control change ::  Channel 5.  Controller 11.  Value: 39
000000t:  Control change ::  Channel 6.  Controller 11.  Value: 39
000000t:  Control change ::  Channel 7.  Controller 11.  Value: 39
000000t:  Control change ::  Channel 9.  Controller 11.  Value: 39
000001t:  Note off ::  Channel 7.  Note 65.  Velocity 76
000000t:  Note off ::  Channel 7.  Note 62.  Velocity 67
000001t:  Note off ::  Channel 2.  Note 46.  Velocity 68
000002t:  Control change ::  Channel 1.  Controller 11.  Value: 36
000000t:  Control change ::  Channel 2.  Controller 11.  Value: 36
000000t:  Control change ::  Channel 3.  Controller 11.  Value: 36
000000t:  Control change ::  Channel 4.  Controller 11.  Value: 36
000000t:  Control change ::  Channel 5.  Controller 11.  Value: 36
000000t:  Control change ::  Channel 6.  Controller 11.  Value: 36
000000t:  Note off ::  Channel 7.  Note 70.  Velocity 80
000000t:  Control change ::  Channel 7.  Controller 11.  Value: 36
000000t:  Control change ::  Channel 9.  Controller 11.  Value: 36
000001t:  Control change ::  Channel 2.  Controller 64.  Value: 127
000002t:  Note on ::  Channel 7.  Note 70.  Velocity 92
000000t:  Note on ::  Channel 9.  Note 40.  Velocity 127
000001t:  Note on ::  Channel 7.  Note 65.  Velocity 81
000000t:  Note off ::  Channel 9.  Note 40.  Velocity 127
000001t:  Note on ::  Channel 1.  Note 38.  Velocity 85
000000t:  Note on ::  Channel 2.  Note 50.  Velocity 64
000000t:  Note on ::  Channel 7.  Note 62.  Velocity 71
000001t:  Control change ::  Channel 1.  Controller 11.  Value: 33
000000t:  Control change ::  Channel 2.  Controller 11.  Value: 33
000000t:  Control change ::  Channel 3.  Controller 11.  Value: 33
000000t:  Control change ::  Channel 4.  Controller 11.  Value: 33
000000t:  Control change ::  Channel 5.  Controller 11.  Value: 33
000000t:  Control change ::  Channel 6.  Controller 11.  Value: 33
000000t:  Control change ::  Channel 7.  Controller 11.  Value: 33
000000t:  Control change ::  Channel 9.  Controller 11.  Value: 33
000005t:  Note off ::  Channel 1.  Note 34.  Velocity 100
000000t:  Control change ::  Channel 1.  Controller 11.  Value: 31
000000t:  Control change ::  Channel 2.  Controller 11.  Value: 31
000000t:  Control change ::  Channel 3.  Controller 11.  Value: 31
000000t:  Control change ::  Channel 4.  Controller 11.  Value: 31
000000t:  Control change ::  Channel 5.  Controller 11.  Value: 31
000000t:  Control change ::  Channel 6.  Controller 11.  Value: 31
000000t:  Control change ::  Channel 7.  Controller 11.  Value: 31
000000t:  Control change ::  Channel 9.  Controller 11.  Value: 31
000003t:  Control change ::  Channel 2.  Controller 64.  Value: 0
000001t:  Control change ::  Channel 1.  Controller 11.  Value: 29
000000t:  Control change ::  Channel 2.  Controller 11.  Value: 29
000000t:  Control change ::  Channel 3.  Controller 11.  Value: 29
000000t:  Control change ::  Channel 4.  Controller 11.  Value: 29
000000t:  Control change ::  Channel 5.  Controller 11.  Value: 29
000000t:  Control change ::  Channel 6.  Controller 11.  Value: 29
000000t:  Control change ::  Channel 7.  Controller 11.  Value: 29
000000t:  Control change ::  Channel 9.  Controller 11.  Value: 29
000004t:  Control change ::  Channel 1.  Controller 11.  Value: 27
000000t:  Control change ::  Channel 2.  Controller 11.  Value: 27
000000t:  Control change ::  Channel 3.  Controller 11.  Value: 27
000000t:  Control change ::  Channel 4.  Controller 11.  Value: 27
000000t:  Control change ::  Channel 5.  Controller 11.  Value: 27
000000t:  Control change ::  Channel 6.  Controller 11.  Value: 27
000000t:  Control change ::  Channel 7.  Controller 11.  Value: 27
000000t:  Control change ::  Channel 9.  Controller 11.  Value: 27
000005t:  Control change ::  Channel 1.  Controller 11.  Value: 25
000000t:  Control change ::  Channel 2.  Controller 11.  Value: 25
000000t:  Control change ::  Channel 3.  Controller 11.  Value: 25
000000t:  Control change ::  Channel 4.  Controller 11.  Value: 25
000000t:  Control change ::  Channel 5.  Controller 11.  Value: 25
000000t:  Control change ::  Channel 6.  Controller 11.  Value: 25
000000t:  Control change ::  Channel 7.  Controller 11.  Value: 25
000000t:  Control change ::  Channel 9.  Controller 11.  Value: 25
000003t:  Control change ::  Channel 1.  Controller 11.  Value: 23
000000t:  Control change ::  Channel 2.  Controller 11.  Value: 23
000000t:  Control change ::  Channel 3.  Controller 11.  Value: 23
000000t:  Control change ::  Channel 4.  Controller 11.  Value: 23
000000t:  Control change ::  Channel 5.  Controller 11.  Value: 23
000000t:  Control change ::  Channel 6.  Controller 11.  Value: 23
000000t:  Control change ::  Channel 7.  Controller 11.  Value: 23
000000t:  Control change ::  Channel 9.  Controller 11.  Value: 23
000002t:  Note on ::  Channel 9.  Note 51.  Velocity 127
000001t:  Note off ::  Channel 9.  Note 51.  Velocity 127
000003t:  Control change ::  Channel 1.  Controller 11.  Value: 21
000000t:  Control change ::  Channel 2.  Controller 11.  Value: 21
000000t:  Control change ::  Channel 3.  Controller 11.  Value: 21
000000t:  Control change ::  Channel 4.  Controller 11.  Value: 21
000000t:  Control change ::  Channel 5.  Controller 11.  Value: 21
000000t:  Control change ::  Channel 6.  Controller 11.  Value: 21
000000t:  Control change ::  Channel 7.  Controller 11.  Value: 21
000000t:  Control change ::  Channel 9.  Controller 11.  Value: 21
000006t:  Control change ::  Channel 1.  Controller 11.  Value: 20
000000t:  Control change ::  Channel 2.  Controller 11.  Value: 20
000000t:  Control change ::  Channel 3.  Controller 11.  Value: 20
000000t:  Control change ::  Channel 4.  Controller 11.  Value: 20
000000t:  Control change ::  Channel 5.  Controller 11.  Value: 20
000000t:  Control change ::  Channel 6.  Controller 11.  Value: 20
000000t:  Control change ::  Channel 7.  Controller 11.  Value: 20
000000t:  Control change ::  Channel 9.  Controller 11.  Value: 20
000003t:  Note off ::  Channel 1.  Note 38.  Velocity 85
000000t:  Control change ::  Channel 1.  Controller 11.  Value: 18
000000t:  Control change ::  Channel 2.  Controller 11.  Value: 18
000000t:  Control change ::  Channel 3.  Controller 11.  Value: 18
000000t:  Control change ::  Channel 4.  Controller 11.  Value: 18
000000t:  Control change ::  Channel 5.  Controller 11.  Value: 18
000000t:  Control change ::  Channel 6.  Controller 11.  Value: 18
000000t:  Control change ::  Channel 7.  Controller 11.  Value: 18
000000t:  Control change ::  Channel 9.  Controller 11.  Value: 18
000006t:  Control change ::  Channel 1.  Controller 11.  Value: 17
000000t:  Control change ::  Channel 2.  Controller 11.  Value: 17
000000t:  Control change ::  Channel 3.  Controller 11.  Value: 17
000000t:  Control change ::  Channel 4.  Controller 11.  Value: 17
000000t:  Control change ::  Channel 5.  Controller 11.  Value: 17
000000t:  Control change ::  Channel 6.  Controller 11.  Value: 17
000000t:  Note off ::  Channel 7.  Note 62.  Velocity 71
000000t:  Control change ::  Channel 7.  Controller 11.  Value: 17
000000t:  Control change ::  Channel 9.  Controller 11.  Value: 17
000001t:  Note off ::  Channel 7.  Note 65.  Velocity 81
000000t:  Note off ::  Channel 7.  Note 70.  Velocity 92
000000t:  Note off ::  Channel 7.  Note 46.  Velocity 67
000001t:  Note off ::  Channel 2.  Note 50.  Velocity 64
000000t:  Note on ::  Channel 7.  Note 70.  Velocity 94
000001t:  Note on ::  Channel 7.  Note 65.  Velocity 82
000000t:  Note on ::  Channel 9.  Note 36.  Velocity 127
000001t:  Control change ::  Channel 1.  Controller 11.  Value: 16
000000t:  Note on ::  Channel 1.  Note 39.  Velocity 87
000000t:  Control change ::  Channel 2.  Controller 11.  Value: 16
000000t:  Control change ::  Channel 3.  Controller 11.  Value: 16
000000t:  Control change ::  Channel 4.  Controller 11.  Value: 16
000000t:  Control change ::  Channel 5.  Controller 11.  Value: 16
000000t:  Control change ::  Channel 6.  Controller 11.  Value: 16
000000t:  Control change ::  Channel 7.  Controller 11.  Value: 16
000000t:  Note on ::  Channel 7.  Note 63.  Velocity 84
000000t:  Control change ::  Channel 9.  Controller 11.  Value: 16
000000t:  Note off ::  Channel 9.  Note 36.  Velocity 127
000001t:  Note on ::  Channel 2.  Note 51.  Velocity 71
000002t:  Control change ::  Channel 1.  Controller 11.  Value: 14
000000t:  Control change ::  Channel 2.  Controller 11.  Value: 14
000000t:  Control change ::  Channel 3.  Controller 11.  Value: 14
000000t:  Control change ::  Channel 4.  Controller 11.  Value: 14
000000t:  Control change ::  Channel 5.  Controller 11.  Value: 14
000000t:  Control change ::  Channel 6.  Controller 11.  Value: 14
000000t:  Control change ::  Channel 7.  Controller 11.  Value: 14
000000t:  Control change ::  Channel 9.  Controller 11.  Value: 14
000002t:  Note off ::  Channel 2.  Note 58.  Velocity 67
000002t:  Control change ::  Channel 1.  Controller 11.  Value: 12
000000t:  Control change ::  Channel 2.  Controller 11.  Value: 12
000000t:  Control change ::  Channel 3.  Controller 11.  Value: 12
000000t:  Control change ::  Channel 4.  Controller 11.  Value: 12
000000t:  Control change ::  Channel 5.  Controller 11.  Value: 12
000000t:  Control change ::  Channel 6.  Controller 11.  Value: 12
000000t:  Control change ::  Channel 7.  Controller 11.  Value: 12
000000t:  Control change ::  Channel 9.  Controller 11.  Value: 12
000005t:  Control change ::  Channel 1.  Controller 11.  Value: 10
000000t:  Control change ::  Channel 2.  Controller 11.  Value: 10
000000t:  Control change ::  Channel 3.  Controller 11.  Value: 10
000000t:  Control change ::  Channel 4.  Controller 11.  Value: 10
000000t:  Control change ::  Channel 5.  Controller 11.  Value: 10
000000t:  Control change ::  Channel 6.  Controller 11.  Value: 10
000000t:  Control change ::  Channel 7.  Controller 11.  Value: 10
000000t:  Control change ::  Channel 9.  Controller 11.  Value: 10
000004t:  Control change ::  Channel 1.  Controller 11.  Value: 8
000000t:  Control change ::  Channel 2.  Controller 11.  Value: 8
000000t:  Control change ::  Channel 3.  Controller 11.  Value: 8
000000t:  Control change ::  Channel 4.  Controller 11.  Value: 8
000000t:  Control change ::  Channel 5.  Controller 11.  Value: 8
000000t:  Control change ::  Channel 6.  Controller 11.  Value: 8
000000t:  Control change ::  Channel 7.  Controller 11.  Value: 8
000000t:  Control change ::  Channel 9.  Controller 11.  Value: 8
000004t:  Control change ::  Channel 1.  Controller 11.  Value: 5
000000t:  Control change ::  Channel 2.  Controller 11.  Value: 5
000000t:  Control change ::  Channel 3.  Controller 11.  Value: 5
000000t:  Control change ::  Channel 4.  Controller 11.  Value: 5
000000t:  Control change ::  Channel 5.  Controller 11.  Value: 5
000000t:  Control change ::  Channel 6.  Controller 11.  Value: 5
000000t:  Control change ::  Channel 7.  Controller 11.  Value: 5
000000t:  Control change ::  Channel 9.  Controller 11.  Value: 5
000004t:  Note on ::  Channel 9.  Note 51.  Velocity 127
000000t:  Note on ::  Channel 9.  Note 40.  Velocity 127
000001t:  Control change ::  Channel 1.  Controller 11.  Value: 1
000000t:  Control change ::  Channel 2.  Controller 11.  Value: 1
000000t:  Control change ::  Channel 3.  Controller 11.  Value: 1
000000t:  Control change ::  Channel 4.  Controller 11.  Value: 1
000000t:  Control change ::  Channel 5.  Controller 11.  Value: 1
000000t:  Control change ::  Channel 6.  Controller 11.  Value: 1
000000t:  Control change ::  Channel 7.  Controller 11.  Value: 1
000000t:  Control change ::  Channel 9.  Controller 11.  Value: 1
000000t:  Note off ::  Channel 9.  Note 40.  Velocity 127
000000t:  Note off ::  Channel 9.  Note 51.  Velocity 127
000013t:  Note off ::  Channel 7.  Note 70.  Velocity 94
000002t:  Note off ::  Channel 2.  Note 51.  Velocity 71
000001t:  Note off ::  Channel 7.  Note 65.  Velocity 82
000002t:  Note off ::  Channel 1.  Note 39.  Velocity 87
000001t:  Note off ::  Channel 7.  Note 63.  Velocity 84
000003t:  Note on ::  Channel 7.  Note 70.  Velocity 78
000001t:  Note on ::  Channel 7.  Note 65.  Velocity 83
000000t:  Note on ::  Channel 9.  Note 36.  Velocity 84
000001t:  Note on ::  Channel 1.  Note 40.  Velocity 72
000000t:  Note on ::  Channel 2.  Note 52.  Velocity 76
000000t:  Note on ::  Channel 7.  Note 62.  Velocity 83
000000t:  Note off ::  Channel 9.  Note 36.  Velocity 84
000024t:  Note on ::  Channel 9.  Note 51.  Velocity 116
000000t:  Note on ::  Channel 9.  Note 40.  Velocity 127
000001t:  Note off ::  Channel 9.  Note 40.  Velocity 127
000000t:  Note off ::  Channel 9.  Note 51.  Velocity 116
000015t:  Note off ::  Channel 1.  Note 40.  Velocity 72
000000t:  Note off ::  Channel 2.  Note 52.  Velocity 76
000000t:  Note off ::  Channel 7.  Note 65.  Velocity 83
000001t:  Note off ::  Channel 7.  Note 70.  Velocity 78
000001t:  Note off ::  Channel 7.  Note 62.  Velocity 83
000004t:  Note on ::  Channel 7.  Note 70.  Velocity 80
000001t:  Note on ::  Channel 1.  Note 41.  Velocity 66
000000t:  Note on ::  Channel 7.  Note 65.  Velocity 85
000001t:  Note on ::  Channel 2.  Note 53.  Velocity 69
000000t:  Note on ::  Channel 7.  Note 62.  Velocity 76
000000t:  Note on ::  Channel 9.  Note 36.  Velocity 127
000001t:  Note off ::  Channel 9.  Note 36.  Velocity 127
000012t:  Note off ::  Channel 5.  Note 74.  Velocity 57
000001t:  Note off ::  Channel 5.  Note 65.  Velocity 76
000003t:  Note off ::  Channel 1.  Note 41.  Velocity 66
000001t:  Note off ::  Channel 7.  Note 62.  Velocity 76
000001t:  Note off ::  Channel 7.  Note 65.  Velocity 85
000001t:  Note off ::  Channel 4.  Note 58.  Velocity 70
000000t:  Note off ::  Channel 7.  Note 70.  Velocity 80
000004t:  Note off ::  Channel 2.  Note 53.  Velocity 69
000384t:  Meta-event type $2f (End-track event) of length 0
Sigma t = 14592
End.
