File: ../../sample-midi/house_of_the_rising_sun.mid
Format: 1
Tracks: 2
Ticks per quarter note: 256

Track chunk of 51 bytes
000000t:  Meta-event type $58 (Time signature) of length 4
	  __$_
000000t:  Meta-event type $59 (Key signature) of length 2
	  __
000000t:  Meta-event type $51 (Set tempo) of length 3
	  _z#
000000t:  Meta-event type $02 (Copyright text event) of length 12
	  Copyright © 
030720t:  Meta-event type $58 (Time signature) of length 4
	  __$_
000001t:  Meta-event type $2f (End-track event) of length 0
Sigma t = 30721

Track chunk of 2680 bytes
000000t:  Control change ::  Channel 0.  Controller 121.  Value: 0
000000t:  Control change ::  Channel 0.  Controller 64.  Value: 0
000000t:  Control change ::  Channel 0.  Controller 91.  Value: 48
000000t:  Control change ::  Channel 0.  Controller 10.  Value: 51
000000t:  Control change ::  Channel 0.  Controller 7.  Value: 88
000000t:  Control change ::  Channel 0.  Controller 121.  Value: 0
000000t:  Control change ::  Channel 0.  Controller 64.  Value: 0
000000t:  Control change ::  Channel 0.  Controller 91.  Value: 48
000000t:  Control change ::  Channel 0.  Controller 10.  Value: 51
000000t:  Control change ::  Channel 0.  Controller 7.  Value: 88
000000t:  Meta-event type $03 (Track name) of length 5
	  Piano
000000t:  Note on ::  Channel 0.  Note 45.  Velocity 55
000128t:  Note off ::  Channel 0.  Note 45.  Velocity 0
000000t:  Note on ::  Channel 0.  Note 48.  Velocity 61
000128t:  Note on ::  Channel 0.  Note 52.  Velocity 64
000002t:  Note off ::  Channel 0.  Note 48.  Velocity 0
000126t:  Note on ::  Channel 0.  Note 57.  Velocity 64
000002t:  Note off ::  Channel 0.  Note 52.  Velocity 0
000126t:  Note on ::  Channel 0.  Note 52.  Velocity 58
000002t:  Note off ::  Channel 0.  Note 57.  Velocity 0
000126t:  Note on ::  Channel 0.  Note 45.  Velocity 56
000002t:  Note off ::  Channel 0.  Note 52.  Velocity 0
000119t:  Note off ::  Channel 0.  Note 45.  Velocity 0
000007t:  Note on ::  Channel 0.  Note 48.  Velocity 59
000128t:  Note off ::  Channel 0.  Note 48.  Velocity 0
000000t:  Note on ::  Channel 0.  Note 52.  Velocity 70
000128t:  Note on ::  Channel 0.  Note 55.  Velocity 73
000002t:  Note off ::  Channel 0.  Note 52.  Velocity 0
000126t:  Note on ::  Channel 0.  Note 60.  Velocity 72
000002t:  Note off ::  Channel 0.  Note 55.  Velocity 0
000126t:  Note on ::  Channel 0.  Note 55.  Velocity 68
000002t:  Note off ::  Channel 0.  Note 60.  Velocity 0
000126t:  Note on ::  Channel 0.  Note 52.  Velocity 58
000002t:  Note off ::  Channel 0.  Note 55.  Velocity 0
000119t:  Note off ::  Channel 0.  Note 52.  Velocity 0
000007t:  Note on ::  Channel 0.  Note 50.  Velocity 59
000128t:  Note off ::  Channel 0.  Note 50.  Velocity 0
000000t:  Note on ::  Channel 0.  Note 54.  Velocity 66
000128t:  Note on ::  Channel 0.  Note 57.  Velocity 71
000002t:  Note off ::  Channel 0.  Note 54.  Velocity 0
000126t:  Note on ::  Channel 0.  Note 62.  Velocity 69
000002t:  Note off ::  Channel 0.  Note 57.  Velocity 0
000126t:  Note on ::  Channel 0.  Note 57.  Velocity 64
000002t:  Note off ::  Channel 0.  Note 62.  Velocity 0
000126t:  Note on ::  Channel 0.  Note 50.  Velocity 51
000002t:  Note off ::  Channel 0.  Note 57.  Velocity 0
000119t:  Note off ::  Channel 0.  Note 50.  Velocity 0
000007t:  Note on ::  Channel 0.  Note 41.  Velocity 55
000128t:  Note off ::  Channel 0.  Note 41.  Velocity 0
000000t:  Note on ::  Channel 0.  Note 48.  Velocity 64
000128t:  Note on ::  Channel 0.  Note 53.  Velocity 68
000002t:  Note off ::  Channel 0.  Note 48.  Velocity 0
000126t:  Note on ::  Channel 0.  Note 57.  Velocity 68
000002t:  Note off ::  Channel 0.  Note 53.  Velocity 0
000126t:  Note on ::  Channel 0.  Note 53.  Velocity 59
000002t:  Note off ::  Channel 0.  Note 57.  Velocity 0
000126t:  Note on ::  Channel 0.  Note 64.  Velocity 51
000000t:  Note on ::  Channel 0.  Note 48.  Velocity 56
000002t:  Note off ::  Channel 0.  Note 53.  Velocity 0
000119t:  Note off ::  Channel 0.  Note 48.  Velocity 0
000007t:  Note off ::  Channel 0.  Note 64.  Velocity 0
000000t:  Note on ::  Channel 0.  Note 69.  Velocity 68
000000t:  Note on ::  Channel 0.  Note 45.  Velocity 56
000128t:  Note off ::  Channel 0.  Note 45.  Velocity 0
000000t:  Note on ::  Channel 0.  Note 48.  Velocity 68
000128t:  Note on ::  Channel 0.  Note 52.  Velocity 74
000002t:  Note off ::  Channel 0.  Note 48.  Velocity 0
000126t:  Note on ::  Channel 0.  Note 57.  Velocity 62
000002t:  Note off ::  Channel 0.  Note 52.  Velocity 0
000126t:  Note off ::  Channel 0.  Note 69.  Velocity 0
000000t:  Note on ::  Channel 0.  Note 69.  Velocity 60
000000t:  Note on ::  Channel 0.  Note 52.  Velocity 57
000002t:  Note off ::  Channel 0.  Note 57.  Velocity 0
000126t:  Note on ::  Channel 0.  Note 71.  Velocity 63
000000t:  Note on ::  Channel 0.  Note 45.  Velocity 60
000002t:  Note off ::  Channel 0.  Note 69.  Velocity 0
000000t:  Note off ::  Channel 0.  Note 52.  Velocity 0
000119t:  Note off ::  Channel 0.  Note 71.  Velocity 0
000000t:  Note off ::  Channel 0.  Note 45.  Velocity 0
000007t:  Note on ::  Channel 0.  Note 72.  Velocity 71
000000t:  Note on ::  Channel 0.  Note 48.  Velocity 59
000128t:  Note off ::  Channel 0.  Note 48.  Velocity 0
000000t:  Note on ::  Channel 0.  Note 52.  Velocity 62
000128t:  Note on ::  Channel 0.  Note 55.  Velocity 67
000002t:  Note off ::  Channel 0.  Note 52.  Velocity 0
000126t:  Note on ::  Channel 0.  Note 60.  Velocity 72
000002t:  Note off ::  Channel 0.  Note 55.  Velocity 0
000126t:  Note off ::  Channel 0.  Note 72.  Velocity 0
000000t:  Note on ::  Channel 0.  Note 72.  Velocity 65
000000t:  Note on ::  Channel 0.  Note 55.  Velocity 66
000002t:  Note off ::  Channel 0.  Note 60.  Velocity 0
000126t:  Note on ::  Channel 0.  Note 74.  Velocity 72
000000t:  Note on ::  Channel 0.  Note 48.  Velocity 58
000002t:  Note off ::  Channel 0.  Note 72.  Velocity 0
000000t:  Note off ::  Channel 0.  Note 55.  Velocity 0
000119t:  Note off ::  Channel 0.  Note 74.  Velocity 0
000000t:  Note off ::  Channel 0.  Note 48.  Velocity 0
000007t:  Note on ::  Channel 0.  Note 76.  Velocity 69
000000t:  Note on ::  Channel 0.  Note 50.  Velocity 62
000128t:  Note off ::  Channel 0.  Note 50.  Velocity 0
000000t:  Note on ::  Channel 0.  Note 54.  Velocity 61
000128t:  Note on ::  Channel 0.  Note 57.  Velocity 61
000002t:  Note off ::  Channel 0.  Note 54.  Velocity 0
000126t:  Note off ::  Channel 0.  Note 76.  Velocity 0
000000t:  Note on ::  Channel 0.  Note 74.  Velocity 60
000000t:  Note on ::  Channel 0.  Note 62.  Velocity 69
000002t:  Note off ::  Channel 0.  Note 57.  Velocity 0
000126t:  Note on ::  Channel 0.  Note 57.  Velocity 63
000002t:  Note off ::  Channel 0.  Note 62.  Velocity 0
000126t:  Note on ::  Channel 0.  Note 72.  Velocity 60
000000t:  Note on ::  Channel 0.  Note 50.  Velocity 57
000002t:  Note off ::  Channel 0.  Note 57.  Velocity 0
000003t:  Note off ::  Channel 0.  Note 74.  Velocity 0
000116t:  Note off ::  Channel 0.  Note 72.  Velocity 0
000000t:  Note off ::  Channel 0.  Note 50.  Velocity 0
000007t:  Note on ::  Channel 0.  Note 72.  Velocity 58
000000t:  Note on ::  Channel 0.  Note 41.  Velocity 52
000128t:  Note on ::  Channel 0.  Note 69.  Velocity 49
000000t:  Note off ::  Channel 0.  Note 41.  Velocity 0
000000t:  Note on ::  Channel 0.  Note 48.  Velocity 61
000002t:  Note off ::  Channel 0.  Note 72.  Velocity 0
000126t:  Note on ::  Channel 0.  Note 53.  Velocity 67
000002t:  Note off ::  Channel 0.  Note 48.  Velocity 0
000126t:  Note on ::  Channel 0.  Note 57.  Velocity 66
000002t:  Note off ::  Channel 0.  Note 53.  Velocity 0
000126t:  Note on ::  Channel 0.  Note 53.  Velocity 62
000002t:  Note off ::  Channel 0.  Note 57.  Velocity 0
000100t:  Note off ::  Channel 0.  Note 69.  Velocity 0
000026t:  Note on ::  Channel 0.  Note 81.  Velocity 72
000000t:  Note on ::  Channel 0.  Note 48.  Velocity 58
000002t:  Note off ::  Channel 0.  Note 53.  Velocity 0
000119t:  Note off ::  Channel 0.  Note 48.  Velocity 0
000007t:  Note off ::  Channel 0.  Note 81.  Velocity 0
000000t:  Note on ::  Channel 0.  Note 81.  Velocity 64
000000t:  Note on ::  Channel 0.  Note 45.  Velocity 57
000128t:  Note off ::  Channel 0.  Note 45.  Velocity 0
000000t:  Note on ::  Channel 0.  Note 48.  Velocity 62
000128t:  Note on ::  Channel 0.  Note 52.  Velocity 65
000002t:  Note off ::  Channel 0.  Note 48.  Velocity 0
000126t:  Note off ::  Channel 0.  Note 81.  Velocity 0
000000t:  Note on ::  Channel 0.  Note 81.  Velocity 63
000000t:  Note on ::  Channel 0.  Note 57.  Velocity 65
000002t:  Note off ::  Channel 0.  Note 52.  Velocity 0
000126t:  Note on ::  Channel 0.  Note 52.  Velocity 63
000002t:  Note off ::  Channel 0.  Note 57.  Velocity 0
000126t:  Note off ::  Channel 0.  Note 81.  Velocity 0
000000t:  Note on ::  Channel 0.  Note 81.  Velocity 58
000000t:  Note on ::  Channel 0.  Note 45.  Velocity 55
000002t:  Note off ::  Channel 0.  Note 52.  Velocity 0
000119t:  Note off ::  Channel 0.  Note 45.  Velocity 0
000007t:  Note off ::  Channel 0.  Note 81.  Velocity 0
000000t:  Note on ::  Channel 0.  Note 79.  Velocity 58
000000t:  Note on ::  Channel 0.  Note 48.  Velocity 69
000128t:  Note off ::  Channel 0.  Note 48.  Velocity 0
000000t:  Note on ::  Channel 0.  Note 52.  Velocity 61
000128t:  Note on ::  Channel 0.  Note 55.  Velocity 61
000002t:  Note off ::  Channel 0.  Note 52.  Velocity 0
000126t:  Note on ::  Channel 0.  Note 60.  Velocity 70
000002t:  Note off ::  Channel 0.  Note 55.  Velocity 0
000126t:  Note on ::  Channel 0.  Note 55.  Velocity 70
000002t:  Note off ::  Channel 0.  Note 60.  Velocity 0
000126t:  Note off ::  Channel 0.  Note 79.  Velocity 0
000000t:  Note on ::  Channel 0.  Note 81.  Velocity 65
000000t:  Note on ::  Channel 0.  Note 48.  Velocity 52
000002t:  Note off ::  Channel 0.  Note 55.  Velocity 0
000119t:  Note off ::  Channel 0.  Note 48.  Velocity 0
000007t:  Note off ::  Channel 0.  Note 81.  Velocity 0
000000t:  Note on ::  Channel 0.  Note 76.  Velocity 51
000000t:  Note on ::  Channel 0.  Note 52.  Velocity 64
000128t:  Note off ::  Channel 0.  Note 52.  Velocity 0
000000t:  Note on ::  Channel 0.  Note 56.  Velocity 63
000128t:  Note on ::  Channel 0.  Note 59.  Velocity 68
000002t:  Note off ::  Channel 0.  Note 56.  Velocity 0
000126t:  Note on ::  Channel 0.  Note 64.  Velocity 67
000002t:  Note off ::  Channel 0.  Note 59.  Velocity 0
000126t:  Note on ::  Channel 0.  Note 59.  Velocity 69
000002t:  Note off ::  Channel 0.  Note 64.  Velocity 0
000126t:  Note on ::  Channel 0.  Note 56.  Velocity 57
000002t:  Note off ::  Channel 0.  Note 59.  Velocity 0
000119t:  Note off ::  Channel 0.  Note 56.  Velocity 0
000007t:  Note on ::  Channel 0.  Note 52.  Velocity 60
000128t:  Note on ::  Channel 0.  Note 59.  Velocity 62
000002t:  Note off ::  Channel 0.  Note 52.  Velocity 0
000126t:  Note on ::  Channel 0.  Note 64.  Velocity 65
000002t:  Note off ::  Channel 0.  Note 59.  Velocity 0
000126t:  Note off ::  Channel 0.  Note 76.  Velocity 0
000000t:  Note on ::  Channel 0.  Note 81.  Velocity 70
000000t:  Note on ::  Channel 0.  Note 56.  Velocity 60
000002t:  Note off ::  Channel 0.  Note 64.  Velocity 0
000126t:  Note on ::  Channel 0.  Note 59.  Velocity 65
000002t:  Note off ::  Channel 0.  Note 56.  Velocity 0
000126t:  Note off ::  Channel 0.  Note 81.  Velocity 0
000000t:  Note on ::  Channel 0.  Note 81.  Velocity 64
000000t:  Note on ::  Channel 0.  Note 52.  Velocity 58
000002t:  Note off ::  Channel 0.  Note 59.  Velocity 0
000119t:  Note off ::  Channel 0.  Note 52.  Velocity 0
000007t:  Note off ::  Channel 0.  Note 81.  Velocity 0
000000t:  Note on ::  Channel 0.  Note 81.  Velocity 59
000000t:  Note on ::  Channel 0.  Note 45.  Velocity 57
000128t:  Note off ::  Channel 0.  Note 45.  Velocity 0
000000t:  Note on ::  Channel 0.  Note 48.  Velocity 65
000128t:  Note on ::  Channel 0.  Note 52.  Velocity 66
000002t:  Note off ::  Channel 0.  Note 48.  Velocity 0
000126t:  Note on ::  Channel 0.  Note 57.  Velocity 67
000002t:  Note off ::  Channel 0.  Note 52.  Velocity 0
000126t:  Note on ::  Channel 0.  Note 52.  Velocity 62
000002t:  Note off ::  Channel 0.  Note 57.  Velocity 0
000126t:  Note off ::  Channel 0.  Note 81.  Velocity 0
000000t:  Note on ::  Channel 0.  Note 69.  Velocity 46
000000t:  Note on ::  Channel 0.  Note 45.  Velocity 55
000002t:  Note off ::  Channel 0.  Note 52.  Velocity 0
000119t:  Note off ::  Channel 0.  Note 45.  Velocity 0
000007t:  Note off ::  Channel 0.  Note 69.  Velocity 0
000000t:  Note on ::  Channel 0.  Note 72.  Velocity 66
000000t:  Note on ::  Channel 0.  Note 48.  Velocity 63
000128t:  Note off ::  Channel 0.  Note 72.  Velocity 0
000000t:  Note on ::  Channel 0.  Note 72.  Velocity 59
000000t:  Note off ::  Channel 0.  Note 48.  Velocity 0
000000t:  Note on ::  Channel 0.  Note 52.  Velocity 64
000128t:  Note on ::  Channel 0.  Note 55.  Velocity 68
000002t:  Note off ::  Channel 0.  Note 52.  Velocity 0
000126t:  Note on ::  Channel 0.  Note 60.  Velocity 69
000002t:  Note off ::  Channel 0.  Note 55.  Velocity 0
000126t:  Note on ::  Channel 0.  Note 55.  Velocity 65
000002t:  Note off ::  Channel 0.  Note 60.  Velocity 0
000126t:  Note off ::  Channel 0.  Note 72.  Velocity 0
000000t:  Note on ::  Channel 0.  Note 74.  Velocity 64
000000t:  Note on ::  Channel 0.  Note 48.  Velocity 56
000002t:  Note off ::  Channel 0.  Note 55.  Velocity 0
000119t:  Note off ::  Channel 0.  Note 48.  Velocity 0
000007t:  Note off ::  Channel 0.  Note 74.  Velocity 0
000000t:  Note on ::  Channel 0.  Note 76.  Velocity 65
000000t:  Note on ::  Channel 0.  Note 50.  Velocity 62
000128t:  Note off ::  Channel 0.  Note 76.  Velocity 0
000000t:  Note on ::  Channel 0.  Note 76.  Velocity 62
000000t:  Note off ::  Channel 0.  Note 50.  Velocity 0
000000t:  Note on ::  Channel 0.  Note 54.  Velocity 67
000128t:  Note on ::  Channel 0.  Note 57.  Velocity 70
000002t:  Note off ::  Channel 0.  Note 54.  Velocity 0
000126t:  Note off ::  Channel 0.  Note 76.  Velocity 0
000000t:  Note on ::  Channel 0.  Note 74.  Velocity 63
000000t:  Note on ::  Channel 0.  Note 62.  Velocity 73
000002t:  Note off ::  Channel 0.  Note 57.  Velocity 0
000126t:  Note on ::  Channel 0.  Note 57.  Velocity 70
000002t:  Note off ::  Channel 0.  Note 62.  Velocity 0
000126t:  Note off ::  Channel 0.  Note 74.  Velocity 0
000000t:  Note on ::  Channel 0.  Note 72.  Velocity 56
000000t:  Note on ::  Channel 0.  Note 50.  Velocity 58
000002t:  Note off ::  Channel 0.  Note 57.  Velocity 0
000119t:  Note off ::  Channel 0.  Note 50.  Velocity 0
000007t:  Note off ::  Channel 0.  Note 72.  Velocity 0
000000t:  Note on ::  Channel 0.  Note 72.  Velocity 61
000000t:  Note on ::  Channel 0.  Note 41.  Velocity 55
000128t:  Note on ::  Channel 0.  Note 69.  Velocity 56
000000t:  Note off ::  Channel 0.  Note 41.  Velocity 0
000000t:  Note on ::  Channel 0.  Note 48.  Velocity 65
000002t:  Note off ::  Channel 0.  Note 72.  Velocity 0
000126t:  Note on ::  Channel 0.  Note 53.  Velocity 74
000002t:  Note off ::  Channel 0.  Note 48.  Velocity 0
000126t:  Note on ::  Channel 0.  Note 57.  Velocity 64
000002t:  Note off ::  Channel 0.  Note 53.  Velocity 0
000106t:  Note off ::  Channel 0.  Note 69.  Velocity 0
000020t:  Note on ::  Channel 0.  Note 53.  Velocity 58
000002t:  Note off ::  Channel 0.  Note 57.  Velocity 0
000126t:  Note on ::  Channel 0.  Note 76.  Velocity 55
000000t:  Note on ::  Channel 0.  Note 48.  Velocity 54
000002t:  Note off ::  Channel 0.  Note 53.  Velocity 0
000119t:  Note off ::  Channel 0.  Note 48.  Velocity 0
000007t:  Note off ::  Channel 0.  Note 76.  Velocity 0
000000t:  Note on ::  Channel 0.  Note 76.  Velocity 59
000000t:  Note on ::  Channel 0.  Note 38.  Velocity 50
000128t:  Note on ::  Channel 0.  Note 74.  Velocity 60
000000t:  Note off ::  Channel 0.  Note 38.  Velocity 0
000000t:  Note on ::  Channel 0.  Note 54.  Velocity 68
000002t:  Note off ::  Channel 0.  Note 76.  Velocity 0
000126t:  Note on ::  Channel 0.  Note 57.  Velocity 67
000002t:  Note off ::  Channel 0.  Note 54.  Velocity 0
000126t:  Note on ::  Channel 0.  Note 62.  Velocity 71
000002t:  Note off ::  Channel 0.  Note 57.  Velocity 0
000106t:  Note off ::  Channel 0.  Note 74.  Velocity 0
000020t:  Note on ::  Channel 0.  Note 72.  Velocity 56
000000t:  Note on ::  Channel 0.  Note 57.  Velocity 65
000002t:  Note off ::  Channel 0.  Note 62.  Velocity 0
000126t:  Note on ::  Channel 0.  Note 54.  Velocity 62
000002t:  Note off ::  Channel 0.  Note 57.  Velocity 0
000119t:  Note off ::  Channel 0.  Note 54.  Velocity 0
000007t:  Note off ::  Channel 0.  Note 72.  Velocity 0
000000t:  Note on ::  Channel 0.  Note 69.  Velocity 60
000000t:  Note on ::  Channel 0.  Note 40.  Velocity 57
000128t:  Note on ::  Channel 0.  Note 64.  Velocity 54
000000t:  Note off ::  Channel 0.  Note 40.  Velocity 0
000000t:  Note on ::  Channel 0.  Note 47.  Velocity 68
000002t:  Note off ::  Channel 0.  Note 69.  Velocity 0
000126t:  Note on ::  Channel 0.  Note 52.  Velocity 72
000002t:  Note off ::  Channel 0.  Note 47.  Velocity 0
000126t:  Note on ::  Channel 0.  Note 47.  Velocity 57
000002t:  Note off ::  Channel 0.  Note 52.  Velocity 0
000106t:  Note off ::  Channel 0.  Note 64.  Velocity 0
000020t:  Note on ::  Channel 0.  Note 64.  Velocity 65
000000t:  Note on ::  Channel 0.  Note 52.  Velocity 58
000002t:  Note off ::  Channel 0.  Note 47.  Velocity 0
000126t:  Note off ::  Channel 0.  Note 64.  Velocity 0
000000t:  Note on ::  Channel 0.  Note 67.  Velocity 66
000000t:  Note on ::  Channel 0.  Note 47.  Velocity 59
000002t:  Note off ::  Channel 0.  Note 52.  Velocity 0
000119t:  Note off ::  Channel 0.  Note 47.  Velocity 0
000007t:  Note off ::  Channel 0.  Note 67.  Velocity 0
000000t:  Note on ::  Channel 0.  Note 69.  Velocity 72
000000t:  Note on ::  Channel 0.  Note 45.  Velocity 63
000128t:  Note off ::  Channel 0.  Note 45.  Velocity 0
000000t:  Note on ::  Channel 0.  Note 48.  Velocity 67
000128t:  Note on ::  Channel 0.  Note 52.  Velocity 73
000002t:  Note off ::  Channel 0.  Note 48.  Velocity 0
000126t:  Note on ::  Channel 0.  Note 57.  Velocity 66
000002t:  Note off ::  Channel 0.  Note 52.  Velocity 0
000126t:  Note on ::  Channel 0.  Note 52.  Velocity 65
000002t:  Note off ::  Channel 0.  Note 57.  Velocity 0
000126t:  Note on ::  Channel 0.  Note 48.  Velocity 53
000002t:  Note off ::  Channel 0.  Note 52.  Velocity 0
000119t:  Note off ::  Channel 0.  Note 48.  Velocity 0
000007t:  Note on ::  Channel 0.  Note 45.  Velocity 60
000128t:  Note on ::  Channel 0.  Note 52.  Velocity 65
000002t:  Note off ::  Channel 0.  Note 45.  Velocity 0
000126t:  Note on ::  Channel 0.  Note 57.  Velocity 62
000002t:  Note off ::  Channel 0.  Note 52.  Velocity 0
000126t:  Note off ::  Channel 0.  Note 69.  Velocity 0
000000t:  Note on ::  Channel 0.  Note 52.  Velocity 54
000002t:  Note off ::  Channel 0.  Note 57.  Velocity 0
000126t:  Note on ::  Channel 0.  Note 57.  Velocity 66
000002t:  Note off ::  Channel 0.  Note 52.  Velocity 0
000126t:  Note on ::  Channel 0.  Note 52.  Velocity 60
000002t:  Note off ::  Channel 0.  Note 57.  Velocity 0
000119t:  Note off ::  Channel 0.  Note 52.  Velocity 0
000007t:  Note on ::  Channel 0.  Note 45.  Velocity 61
000128t:  Note off ::  Channel 0.  Note 45.  Velocity 0
000000t:  Note on ::  Channel 0.  Note 48.  Velocity 61
000128t:  Note on ::  Channel 0.  Note 52.  Velocity 62
000002t:  Note off ::  Channel 0.  Note 48.  Velocity 0
000126t:  Note on ::  Channel 0.  Note 57.  Velocity 61
000002t:  Note off ::  Channel 0.  Note 52.  Velocity 0
000126t:  Note on ::  Channel 0.  Note 52.  Velocity 61
000002t:  Note off ::  Channel 0.  Note 57.  Velocity 0
000126t:  Note on ::  Channel 0.  Note 64.  Velocity 52
000000t:  Note on ::  Channel 0.  Note 57.  Velocity 62
000002t:  Note off ::  Channel 0.  Note 52.  Velocity 0
000119t:  Note off ::  Channel 0.  Note 57.  Velocity 0
000007t:  Note off ::  Channel 0.  Note 64.  Velocity 0
000000t:  Note on ::  Channel 0.  Note 69.  Velocity 67
000000t:  Note on ::  Channel 0.  Note 60.  Velocity 70
000000t:  Note on ::  Channel 0.  Note 45.  Velocity 70
000128t:  Note on ::  Channel 0.  Note 48.  Velocity 74
000128t:  Note on ::  Channel 0.  Note 52.  Velocity 77
000002t:  Note off ::  Channel 0.  Note 48.  Velocity 0
000126t:  Note on ::  Channel 0.  Note 57.  Velocity 89
000002t:  Note off ::  Channel 0.  Note 52.  Velocity 0
000126t:  Note off ::  Channel 0.  Note 69.  Velocity 0
000000t:  Note on ::  Channel 0.  Note 69.  Velocity 61
000128t:  Note off ::  Channel 0.  Note 69.  Velocity 0
000000t:  Note on ::  Channel 0.  Note 71.  Velocity 68
000108t:  Note off ::  Channel 0.  Note 57.  Velocity 0
000020t:  Note off ::  Channel 0.  Note 60.  Velocity 0
000000t:  Note off ::  Channel 0.  Note 71.  Velocity 0
000000t:  Note on ::  Channel 0.  Note 72.  Velocity 62
000000t:  Note on ::  Channel 0.  Note 64.  Velocity 83
000000t:  Note off ::  Channel 0.  Note 45.  Velocity 0
000000t:  Note on ::  Channel 0.  Note 48.  Velocity 78
000128t:  Note on ::  Channel 0.  Note 52.  Velocity 74
000128t:  Note on ::  Channel 0.  Note 55.  Velocity 80
000002t:  Note off ::  Channel 0.  Note 52.  Velocity 0
000126t:  Note on ::  Channel 0.  Note 60.  Velocity 93
000002t:  Note off ::  Channel 0.  Note 55.  Velocity 0
000126t:  Note off ::  Channel 0.  Note 72.  Velocity 0
000000t:  Note on ::  Channel 0.  Note 72.  Velocity 65
000128t:  Note off ::  Channel 0.  Note 72.  Velocity 0
000000t:  Note on ::  Channel 0.  Note 74.  Velocity 64
000108t:  Note off ::  Channel 0.  Note 60.  Velocity 0
000020t:  Note off ::  Channel 0.  Note 64.  Velocity 0
000000t:  Note off ::  Channel 0.  Note 74.  Velocity 0
000000t:  Note on ::  Channel 0.  Note 76.  Velocity 68
000000t:  Note on ::  Channel 0.  Note 66.  Velocity 84
000000t:  Note off ::  Channel 0.  Note 48.  Velocity 0
000000t:  Note on ::  Channel 0.  Note 50.  Velocity 74
000128t:  Note on ::  Channel 0.  Note 54.  Velocity 75
000128t:  Note on ::  Channel 0.  Note 57.  Velocity 75
000002t:  Note off ::  Channel 0.  Note 54.  Velocity 0
000126t:  Note off ::  Channel 0.  Note 76.  Velocity 0
000000t:  Note on ::  Channel 0.  Note 74.  Velocity 60
000000t:  Note on ::  Channel 0.  Note 62.  Velocity 96
000002t:  Note off ::  Channel 0.  Note 57.  Velocity 0
000254t:  Note off ::  Channel 0.  Note 74.  Velocity 0
000000t:  Note on ::  Channel 0.  Note 72.  Velocity 57
000108t:  Note off ::  Channel 0.  Note 62.  Velocity 0
000020t:  Note off ::  Channel 0.  Note 66.  Velocity 0
000000t:  Note off ::  Channel 0.  Note 72.  Velocity 0
000000t:  Note on ::  Channel 0.  Note 72.  Velocity 60
000000t:  Note on ::  Channel 0.  Note 65.  Velocity 67
000000t:  Note off ::  Channel 0.  Note 50.  Velocity 0
000000t:  Note on ::  Channel 0.  Note 57.  Velocity 79
000000t:  Note on ::  Channel 0.  Note 53.  Velocity 77
000128t:  Note off ::  Channel 0.  Note 72.  Velocity 0
000000t:  Note on ::  Channel 0.  Note 69.  Velocity 55
000000t:  Note on ::  Channel 0.  Note 60.  Velocity 85
000002t:  Note off ::  Channel 0.  Note 57.  Velocity 0
000126t:  Note on ::  Channel 0.  Note 57.  Velocity 80
000002t:  Note off ::  Channel 0.  Note 60.  Velocity 0
000126t:  Note on ::  Channel 0.  Note 60.  Velocity 90
000002t:  Note off ::  Channel 0.  Note 57.  Velocity 0
000119t:  Note off ::  Channel 0.  Note 60.  Velocity 0
000135t:  Note off ::  Channel 0.  Note 65.  Velocity 0
000000t:  Note off ::  Channel 0.  Note 69.  Velocity 0
000000t:  Note on ::  Channel 0.  Note 81.  Velocity 80
000089t:  Note off ::  Channel 0.  Note 53.  Velocity 0
000039t:  Note off ::  Channel 0.  Note 81.  Velocity 0
000000t:  Note on ::  Channel 0.  Note 81.  Velocity 65
000000t:  Note on ::  Channel 0.  Note 72.  Velocity 97
000000t:  Note on ::  Channel 0.  Note 76.  Velocity 97
000000t:  Note on ::  Channel 0.  Note 45.  Velocity 68
000128t:  Note on ::  Channel 0.  Note 48.  Velocity 76
000128t:  Note on ::  Channel 0.  Note 52.  Velocity 78
000002t:  Note off ::  Channel 0.  Note 48.  Velocity 0
000126t:  Note off ::  Channel 0.  Note 81.  Velocity 0
000000t:  Note on ::  Channel 0.  Note 81.  Velocity 60
000000t:  Note on ::  Channel 0.  Note 57.  Velocity 90
000002t:  Note off ::  Channel 0.  Note 52.  Velocity 0
000126t:  Note on ::  Channel 0.  Note 52.  Velocity 88
000002t:  Note off ::  Channel 0.  Note 57.  Velocity 0
000126t:  Note off ::  Channel 0.  Note 81.  Velocity 0
000000t:  Note on ::  Channel 0.  Note 81.  Velocity 58
000000t:  Note on ::  Channel 0.  Note 57.  Velocity 92
000002t:  Note off ::  Channel 0.  Note 52.  Velocity 0
000119t:  Note off ::  Channel 0.  Note 57.  Velocity 0
000007t:  Note off ::  Channel 0.  Note 72.  Velocity 0
000000t:  Note off ::  Channel 0.  Note 76.  Velocity 0
000000t:  Note off ::  Channel 0.  Note 81.  Velocity 0
000000t:  Note on ::  Channel 0.  Note 79.  Velocity 54
000000t:  Note on ::  Channel 0.  Note 72.  Velocity 84
000000t:  Note on ::  Channel 0.  Note 76.  Velocity 84
000000t:  Note off ::  Channel 0.  Note 45.  Velocity 0
000000t:  Note on ::  Channel 0.  Note 48.  Velocity 84
000128t:  Note on ::  Channel 0.  Note 52.  Velocity 74
000128t:  Note on ::  Channel 0.  Note 55.  Velocity 77
000002t:  Note off ::  Channel 0.  Note 52.  Velocity 0
000126t:  Note on ::  Channel 0.  Note 60.  Velocity 103
000002t:  Note off ::  Channel 0.  Note 55.  Velocity 0
000126t:  Note on ::  Channel 0.  Note 55.  Velocity 98
000002t:  Note off ::  Channel 0.  Note 60.  Velocity 0
000126t:  Note off ::  Channel 0.  Note 79.  Velocity 0
000000t:  Note on ::  Channel 0.  Note 81.  Velocity 63
000000t:  Note on ::  Channel 0.  Note 60.  Velocity 91
000002t:  Note off ::  Channel 0.  Note 55.  Velocity 0
000119t:  Note off ::  Channel 0.  Note 60.  Velocity 0
000007t:  Note off ::  Channel 0.  Note 72.  Velocity 0
000000t:  Note off ::  Channel 0.  Note 76.  Velocity 0
000000t:  Note off ::  Channel 0.  Note 81.  Velocity 0
000000t:  Note on ::  Channel 0.  Note 68.  Velocity 56
000000t:  Note on ::  Channel 0.  Note 71.  Velocity 56
000000t:  Note on ::  Channel 0.  Note 76.  Velocity 56
000000t:  Note off ::  Channel 0.  Note 48.  Velocity 0
000000t:  Note on ::  Channel 0.  Note 52.  Velocity 81
000128t:  Note on ::  Channel 0.  Note 56.  Velocity 75
000128t:  Note on ::  Channel 0.  Note 59.  Velocity 75
000002t:  Note off ::  Channel 0.  Note 56.  Velocity 0
000126t:  Note on ::  Channel 0.  Note 64.  Velocity 95
000002t:  Note off ::  Channel 0.  Note 59.  Velocity 0
000126t:  Note on ::  Channel 0.  Note 56.  Velocity 91
000002t:  Note off ::  Channel 0.  Note 64.  Velocity 0
000126t:  Note on ::  Channel 0.  Note 59.  Velocity 84
000002t:  Note off ::  Channel 0.  Note 56.  Velocity 0
000119t:  Note off ::  Channel 0.  Note 59.  Velocity 0
000007t:  Note off ::  Channel 0.  Note 52.  Velocity 0
000000t:  Note on ::  Channel 0.  Note 52.  Velocity 77
000384t:  Note off ::  Channel 0.  Note 68.  Velocity 0
000000t:  Note off ::  Channel 0.  Note 71.  Velocity 0
000000t:  Note off ::  Channel 0.  Note 76.  Velocity 0
000000t:  Note on ::  Channel 0.  Note 81.  Velocity 68
000000t:  Note on ::  Channel 0.  Note 72.  Velocity 71
000000t:  Note on ::  Channel 0.  Note 76.  Velocity 71
000000t:  Note off ::  Channel 0.  Note 52.  Velocity 0
000000t:  Note on ::  Channel 0.  Note 40.  Velocity 70
000256t:  Note off ::  Channel 0.  Note 81.  Velocity 0
000000t:  Note on ::  Channel 0.  Note 81.  Velocity 68
000128t:  Note off ::  Channel 0.  Note 72.  Velocity 0
000000t:  Note off ::  Channel 0.  Note 76.  Velocity 0
000000t:  Note off ::  Channel 0.  Note 81.  Velocity 0
000000t:  Note on ::  Channel 0.  Note 81.  Velocity 59
000000t:  Note on ::  Channel 0.  Note 72.  Velocity 73
000000t:  Note on ::  Channel 0.  Note 76.  Velocity 73
000000t:  Note off ::  Channel 0.  Note 40.  Velocity 0
000000t:  Note on ::  Channel 0.  Note 33.  Velocity 65
000128t:  Note on ::  Channel 0.  Note 36.  Velocity 74
000128t:  Note on ::  Channel 0.  Note 40.  Velocity 77
000002t:  Note off ::  Channel 0.  Note 36.  Velocity 0
000126t:  Note on ::  Channel 0.  Note 45.  Velocity 93
000002t:  Note off ::  Channel 0.  Note 40.  Velocity 0
000254t:  Note off ::  Channel 0.  Note 81.  Velocity 0
000000t:  Note off ::  Channel 0.  Note 72.  Velocity 0
000000t:  Note off ::  Channel 0.  Note 76.  Velocity 0
000000t:  Note on ::  Channel 0.  Note 69.  Velocity 43
000108t:  Note off ::  Channel 0.  Note 45.  Velocity 0
000020t:  Note off ::  Channel 0.  Note 69.  Velocity 0
000000t:  Note on ::  Channel 0.  Note 72.  Velocity 64
000000t:  Note on ::  Channel 0.  Note 64.  Velocity 64
000000t:  Note on ::  Channel 0.  Note 67.  Velocity 64
000000t:  Note off ::  Channel 0.  Note 33.  Velocity 0
000000t:  Note on ::  Channel 0.  Note 36.  Velocity 80
000128t:  Note off ::  Channel 0.  Note 72.  Velocity 0
000000t:  Note on ::  Channel 0.  Note 72.  Velocity 60
000000t:  Note on ::  Channel 0.  Note 40.  Velocity 76
000128t:  Note on ::  Channel 0.  Note 43.  Velocity 78
000002t:  Note off ::  Channel 0.  Note 40.  Velocity 0
000126t:  Note on ::  Channel 0.  Note 48.  Velocity 91
000002t:  Note off ::  Channel 0.  Note 43.  Velocity 0
000254t:  Note off ::  Channel 0.  Note 72.  Velocity 0
000000t:  Note on ::  Channel 0.  Note 74.  Velocity 62
000108t:  Note off ::  Channel 0.  Note 48.  Velocity 0
000020t:  Note off ::  Channel 0.  Note 64.  Velocity 0
000000t:  Note off ::  Channel 0.  Note 67.  Velocity 0
000000t:  Note off ::  Channel 0.  Note 74.  Velocity 0
000000t:  Note on ::  Channel 0.  Note 76.  Velocity 67
000000t:  Note on ::  Channel 0.  Note 66.  Velocity 79
000000t:  Note on ::  Channel 0.  Note 69.  Velocity 79
000000t:  Note off ::  Channel 0.  Note 36.  Velocity 0
000000t:  Note on ::  Channel 0.  Note 38.  Velocity 84
000128t:  Note off ::  Channel 0.  Note 76.  Velocity 0
000000t:  Note on ::  Channel 0.  Note 76.  Velocity 62
000000t:  Note on ::  Channel 0.  Note 42.  Velocity 76
000128t:  Note on ::  Channel 0.  Note 45.  Velocity 78
000002t:  Note off ::  Channel 0.  Note 42.  Velocity 0
000126t:  Note off ::  Channel 0.  Note 76.  Velocity 0
000000t:  Note on ::  Channel 0.  Note 74.  Velocity 54
000000t:  Note on ::  Channel 0.  Note 50.  Velocity 94
000002t:  Note off ::  Channel 0.  Note 45.  Velocity 0
000126t:  Note on ::  Channel 0.  Note 42.  Velocity 89
000002t:  Note off ::  Channel 0.  Note 50.  Velocity 0
000126t:  Note off ::  Channel 0.  Note 74.  Velocity 0
000000t:  Note on ::  Channel 0.  Note 72.  Velocity 53
000000t:  Note on ::  Channel 0.  Note 45.  Velocity 80
000002t:  Note off ::  Channel 0.  Note 42.  Velocity 0
000119t:  Note off ::  Channel 0.  Note 45.  Velocity 0
000007t:  Note off ::  Channel 0.  Note 66.  Velocity 0
000000t:  Note off ::  Channel 0.  Note 69.  Velocity 0
000000t:  Note off ::  Channel 0.  Note 72.  Velocity 0
000000t:  Note on ::  Channel 0.  Note 72.  Velocity 61
000000t:  Note on ::  Channel 0.  Note 65.  Velocity 71
000000t:  Note off ::  Channel 0.  Note 38.  Velocity 0
000000t:  Note on ::  Channel 0.  Note 41.  Velocity 78
000128t:  Note off ::  Channel 0.  Note 72.  Velocity 0
000000t:  Note on ::  Channel 0.  Note 69.  Velocity 54
000000t:  Note on ::  Channel 0.  Note 45.  Velocity 78
000128t:  Note off ::  Channel 0.  Note 45.  Velocity 0
000000t:  Note on ::  Channel 0.  Note 48.  Velocity 83
000128t:  Note off ::  Channel 0.  Note 48.  Velocity 0
000000t:  Note on ::  Channel 0.  Note 53.  Velocity 88
000256t:  Note off ::  Channel 0.  Note 65.  Velocity 0
000000t:  Note off ::  Channel 0.  Note 69.  Velocity 0
000000t:  Note on ::  Channel 0.  Note 76.  Velocity 70
000128t:  Note off ::  Channel 0.  Note 76.  Velocity 0
000000t:  Note on ::  Channel 0.  Note 81.  Velocity 78
000000t:  Note on ::  Channel 0.  Note 76.  Velocity 69
000000t:  Note off ::  Channel 0.  Note 41.  Velocity 0
000000t:  Note off ::  Channel 0.  Note 53.  Velocity 0
000000t:  Note on ::  Channel 0.  Note 40.  Velocity 82
000000t:  Note on ::  Channel 0.  Note 52.  Velocity 82
000036t:  Note on ::  Channel 0.  Note 84.  Velocity 78
000036t:  Note on ::  Channel 0.  Note 88.  Velocity 78
000056t:  Note on ::  Channel 0.  Note 74.  Velocity 66
000002t:  Note off ::  Channel 0.  Note 76.  Velocity 0
000362t:  Note off ::  Channel 0.  Note 74.  Velocity 0
000020t:  Note on ::  Channel 0.  Note 72.  Velocity 72
000256t:  Note off ::  Channel 0.  Note 72.  Velocity 0
000000t:  Note on ::  Channel 0.  Note 76.  Velocity 84
000000t:  Note on ::  Channel 0.  Note 69.  Velocity 71
000128t:  Note on ::  Channel 0.  Note 64.  Velocity 59
000002t:  Note off ::  Channel 0.  Note 69.  Velocity 0
000362t:  Note off ::  Channel 0.  Note 64.  Velocity 0
000020t:  Note on ::  Channel 0.  Note 64.  Velocity 78
000128t:  Note off ::  Channel 0.  Note 64.  Velocity 0
000000t:  Note on ::  Channel 0.  Note 67.  Velocity 82
000051t:  Note off ::  Channel 0.  Note 81.  Velocity 0
000002t:  Note off ::  Channel 0.  Note 84.  Velocity 0
000001t:  Note off ::  Channel 0.  Note 88.  Velocity 0
000035t:  Note off ::  Channel 0.  Note 76.  Velocity 0
000039t:  Note off ::  Channel 0.  Note 67.  Velocity 0
000000t:  Note on ::  Channel 0.  Note 81.  Velocity 83
000000t:  Note off ::  Channel 0.  Note 40.  Velocity 0
000000t:  Note off ::  Channel 0.  Note 52.  Velocity 0
000000t:  Note on ::  Channel 0.  Note 33.  Velocity 37
000000t:  Note on ::  Channel 0.  Note 45.  Velocity 37
000384t:  Note on ::  Channel 0.  Note 69.  Velocity 35
000036t:  Note on ::  Channel 0.  Note 72.  Velocity 35
000036t:  Note on ::  Channel 0.  Note 76.  Velocity 35
000036t:  Note on ::  Channel 0.  Note 81.  Velocity 35
000276t:  Note off ::  Channel 0.  Note 81.  Velocity 0
000000t:  Note off ::  Channel 0.  Note 69.  Velocity 0
000000t:  Note off ::  Channel 0.  Note 72.  Velocity 0
000000t:  Note off ::  Channel 0.  Note 76.  Velocity 0
000000t:  Note off ::  Channel 0.  Note 81.  Velocity 0
000000t:  Note on ::  Channel 0.  Note 81.  Velocity 48
000036t:  Note on ::  Channel 0.  Note 84.  Velocity 48
000036t:  Note on ::  Channel 0.  Note 88.  Velocity 48
000036t:  Note on ::  Channel 0.  Note 93.  Velocity 48
000276t:  Note off ::  Channel 0.  Note 33.  Velocity 0
000000t:  Note off ::  Channel 0.  Note 45.  Velocity 0
000000t:  Note on ::  Channel 0.  Note 36.  Velocity 41
000000t:  Note on ::  Channel 0.  Note 48.  Velocity 41
000384t:  Note off ::  Channel 0.  Note 81.  Velocity 0
000000t:  Note off ::  Channel 0.  Note 84.  Velocity 0
000000t:  Note off ::  Channel 0.  Note 88.  Velocity 0
000000t:  Note off ::  Channel 0.  Note 93.  Velocity 0
000000t:  Note off ::  Channel 0.  Note 36.  Velocity 0
000000t:  Note off ::  Channel 0.  Note 48.  Velocity 0
000000t:  Note on ::  Channel 0.  Note 33.  Velocity 36
000000t:  Note on ::  Channel 0.  Note 45.  Velocity 36
000384t:  Note on ::  Channel 0.  Note 69.  Velocity 31
000036t:  Note on ::  Channel 0.  Note 72.  Velocity 31
000036t:  Note on ::  Channel 0.  Note 76.  Velocity 31
000036t:  Note on ::  Channel 0.  Note 81.  Velocity 31
000276t:  Note off ::  Channel 0.  Note 69.  Velocity 0
000000t:  Note off ::  Channel 0.  Note 72.  Velocity 0
000000t:  Note off ::  Channel 0.  Note 76.  Velocity 0
000000t:  Note off ::  Channel 0.  Note 81.  Velocity 0
000000t:  Note on ::  Channel 0.  Note 81.  Velocity 47
000036t:  Note on ::  Channel 0.  Note 84.  Velocity 47
000036t:  Note on ::  Channel 0.  Note 88.  Velocity 47
000036t:  Note on ::  Channel 0.  Note 93.  Velocity 47
000660t:  Note off ::  Channel 0.  Note 81.  Velocity 0
000000t:  Note off ::  Channel 0.  Note 84.  Velocity 0
000000t:  Note off ::  Channel 0.  Note 88.  Velocity 0
000000t:  Note off ::  Channel 0.  Note 93.  Velocity 0
000000t:  Note off ::  Channel 0.  Note 33.  Velocity 0
000000t:  Note off ::  Channel 0.  Note 45.  Velocity 0
000000t:  Note on ::  Channel 0.  Note 36.  Velocity 18
000000t:  Note on ::  Channel 0.  Note 48.  Velocity 18
000768t:  Note on ::  Channel 0.  Note 88.  Velocity 22
000000t:  Note off ::  Channel 0.  Note 36.  Velocity 0
000000t:  Note off ::  Channel 0.  Note 48.  Velocity 0
000000t:  Note on ::  Channel 0.  Note 33.  Velocity 21
000000t:  Note on ::  Channel 0.  Note 45.  Velocity 21
000036t:  Note on ::  Channel 0.  Note 93.  Velocity 22
000036t:  Note on ::  Channel 0.  Note 96.  Velocity 22
000036t:  Note on ::  Channel 0.  Note 100.  Velocity 22
001044t:  Note off ::  Channel 0.  Note 88.  Velocity 0
000000t:  Note off ::  Channel 0.  Note 93.  Velocity 0
000000t:  Note off ::  Channel 0.  Note 96.  Velocity 0
000000t:  Note off ::  Channel 0.  Note 100.  Velocity 0
000000t:  Note off ::  Channel 0.  Note 33.  Velocity 0
000000t:  Note off ::  Channel 0.  Note 45.  Velocity 0
000001t:  Meta-event type $2f (End-track event) of length 0
Sigma t = 31873
End.
