File: ./Tim Minchin - Rock N Roll Nerd.musescore.midi
Format: 1
Tracks: 2
Ticks per quarter note: 480

Track chunk of 1236 bytes
000000t:  Meta-event type $58 (Time signature) of length 4
	  ____
000000t:  Meta-event type $59 (Key signature) of length 2
	  __
000000t:  Meta-event type $51 (Set tempo) of length 3
	  _¡ 
000000t:  Control change ::  Channel 0.  Controller 121.  Value: 0
000000t:  Program (patch) change ::  Channel 0.  Patch 0 (Acoustic Grand)
000000t:  Control change ::  Channel 0.  Controller 7.  Value: 100
000000t:  Control change ::  Channel 0.  Controller 10.  Value: 63
000000t:  Control change ::  Channel 0.  Controller 91.  Value: 0
000000t:  Control change ::  Channel 0.  Controller 93.  Value: 0
000000t:  Meta-event type $21 (?) of length 1
	  _
000000t:  Note on ::  Channel 0.  Note 69.  Velocity 96
000000t:  Note on ::  Channel 0.  Note 72.  Velocity 96
000000t:  Note on ::  Channel 0.  Note 76.  Velocity 96
000000t:  Note on ::  Channel 0.  Note 81.  Velocity 96
000959t:  Note on ::  Channel 0.  Note 69.  Velocity 0
000000t:  Note on ::  Channel 0.  Note 72.  Velocity 0
000000t:  Note on ::  Channel 0.  Note 76.  Velocity 0
000000t:  Note on ::  Channel 0.  Note 81.  Velocity 0
000001t:  Note on ::  Channel 0.  Note 69.  Velocity 80
000119t:  Note on ::  Channel 0.  Note 69.  Velocity 0
000001t:  Note on ::  Channel 0.  Note 72.  Velocity 80
000119t:  Note on ::  Channel 0.  Note 72.  Velocity 0
000001t:  Note on ::  Channel 0.  Note 76.  Velocity 80
000119t:  Note on ::  Channel 0.  Note 76.  Velocity 0
000001t:  Note on ::  Channel 0.  Note 71.  Velocity 80
000119t:  Note on ::  Channel 0.  Note 71.  Velocity 0
000001t:  Note on ::  Channel 0.  Note 72.  Velocity 80
000119t:  Note on ::  Channel 0.  Note 72.  Velocity 0
000001t:  Note on ::  Channel 0.  Note 69.  Velocity 80
000119t:  Note on ::  Channel 0.  Note 69.  Velocity 0
000001t:  Note on ::  Channel 0.  Note 72.  Velocity 80
000119t:  Note on ::  Channel 0.  Note 72.  Velocity 0
000001t:  Note on ::  Channel 0.  Note 71.  Velocity 80
000119t:  Note on ::  Channel 0.  Note 71.  Velocity 0
000001t:  Note on ::  Channel 0.  Note 57.  Velocity 80
000000t:  Note on ::  Channel 0.  Note 60.  Velocity 80
001919t:  Note on ::  Channel 0.  Note 57.  Velocity 0
000000t:  Note on ::  Channel 0.  Note 60.  Velocity 0
000001t:  Note on ::  Channel 0.  Note 55.  Velocity 80
000000t:  Note on ::  Channel 0.  Note 59.  Velocity 80
000000t:  Note on ::  Channel 0.  Note 62.  Velocity 80
001919t:  Note on ::  Channel 0.  Note 55.  Velocity 0
000000t:  Note on ::  Channel 0.  Note 59.  Velocity 0
000000t:  Note on ::  Channel 0.  Note 62.  Velocity 0
000001t:  Note on ::  Channel 0.  Note 55.  Velocity 80
000000t:  Note on ::  Channel 0.  Note 59.  Velocity 80
000000t:  Note on ::  Channel 0.  Note 62.  Velocity 80
001919t:  Note on ::  Channel 0.  Note 55.  Velocity 0
000000t:  Note on ::  Channel 0.  Note 59.  Velocity 0
000000t:  Note on ::  Channel 0.  Note 62.  Velocity 0
000001t:  Note on ::  Channel 0.  Note 57.  Velocity 80
000239t:  Note on ::  Channel 0.  Note 57.  Velocity 0
000001t:  Note on ::  Channel 0.  Note 60.  Velocity 80
000239t:  Note on ::  Channel 0.  Note 60.  Velocity 0
000001t:  Note on ::  Channel 0.  Note 64.  Velocity 80
000239t:  Note on ::  Channel 0.  Note 64.  Velocity 0
000001t:  Note on ::  Channel 0.  Note 69.  Velocity 80
000239t:  Note on ::  Channel 0.  Note 69.  Velocity 0
000001t:  Note on ::  Channel 0.  Note 71.  Velocity 80
000239t:  Note on ::  Channel 0.  Note 71.  Velocity 0
000001t:  Note on ::  Channel 0.  Note 60.  Velocity 80
000239t:  Note on ::  Channel 0.  Note 60.  Velocity 0
000001t:  Note on ::  Channel 0.  Note 72.  Velocity 80
000239t:  Note on ::  Channel 0.  Note 72.  Velocity 0
000241t:  Note on ::  Channel 0.  Note 57.  Velocity 80
000000t:  Note on ::  Channel 0.  Note 60.  Velocity 80
001919t:  Note on ::  Channel 0.  Note 57.  Velocity 0
000000t:  Note on ::  Channel 0.  Note 60.  Velocity 0
000001t:  Note on ::  Channel 0.  Note 55.  Velocity 80
000000t:  Note on ::  Channel 0.  Note 59.  Velocity 80
000000t:  Note on ::  Channel 0.  Note 62.  Velocity 80
001919t:  Note on ::  Channel 0.  Note 55.  Velocity 0
000000t:  Note on ::  Channel 0.  Note 59.  Velocity 0
000000t:  Note on ::  Channel 0.  Note 62.  Velocity 0
000001t:  Note on ::  Channel 0.  Note 55.  Velocity 80
000000t:  Note on ::  Channel 0.  Note 59.  Velocity 80
000000t:  Note on ::  Channel 0.  Note 62.  Velocity 80
001919t:  Note on ::  Channel 0.  Note 55.  Velocity 0
000000t:  Note on ::  Channel 0.  Note 59.  Velocity 0
000000t:  Note on ::  Channel 0.  Note 62.  Velocity 0
000001t:  Note on ::  Channel 0.  Note 57.  Velocity 80
000239t:  Note on ::  Channel 0.  Note 57.  Velocity 0
000001t:  Note on ::  Channel 0.  Note 60.  Velocity 80
000239t:  Note on ::  Channel 0.  Note 60.  Velocity 0
000001t:  Note on ::  Channel 0.  Note 64.  Velocity 80
000239t:  Note on ::  Channel 0.  Note 64.  Velocity 0
000001t:  Note on ::  Channel 0.  Note 69.  Velocity 80
000239t:  Note on ::  Channel 0.  Note 69.  Velocity 0
000001t:  Note on ::  Channel 0.  Note 71.  Velocity 80
000239t:  Note on ::  Channel 0.  Note 71.  Velocity 0
000001t:  Note on ::  Channel 0.  Note 60.  Velocity 80
000239t:  Note on ::  Channel 0.  Note 60.  Velocity 0
000001t:  Note on ::  Channel 0.  Note 72.  Velocity 80
000239t:  Note on ::  Channel 0.  Note 72.  Velocity 0
001201t:  Note on ::  Channel 0.  Note 65.  Velocity 80
000239t:  Note on ::  Channel 0.  Note 65.  Velocity 0
000001t:  Note on ::  Channel 0.  Note 69.  Velocity 80
000239t:  Note on ::  Channel 0.  Note 69.  Velocity 0
000001t:  Note on ::  Channel 0.  Note 72.  Velocity 80
000239t:  Note on ::  Channel 0.  Note 72.  Velocity 0
000001t:  Note on ::  Channel 0.  Note 77.  Velocity 80
000239t:  Note on ::  Channel 0.  Note 77.  Velocity 0
000961t:  Note on ::  Channel 0.  Note 67.  Velocity 80
000239t:  Note on ::  Channel 0.  Note 67.  Velocity 0
000001t:  Note on ::  Channel 0.  Note 71.  Velocity 80
000239t:  Note on ::  Channel 0.  Note 71.  Velocity 0
000001t:  Note on ::  Channel 0.  Note 74.  Velocity 80
000239t:  Note on ::  Channel 0.  Note 74.  Velocity 0
000001t:  Note on ::  Channel 0.  Note 79.  Velocity 80
000239t:  Note on ::  Channel 0.  Note 79.  Velocity 0
000001t:  Note on ::  Channel 0.  Note 72.  Velocity 80
000000t:  Note on ::  Channel 0.  Note 76.  Velocity 80
000239t:  Note on ::  Channel 0.  Note 72.  Velocity 0
000000t:  Note on ::  Channel 0.  Note 76.  Velocity 0
000001t:  Note on ::  Channel 0.  Note 79.  Velocity 80
000239t:  Note on ::  Channel 0.  Note 79.  Velocity 0
000001t:  Note on ::  Channel 0.  Note 72.  Velocity 80
000000t:  Note on ::  Channel 0.  Note 76.  Velocity 80
000239t:  Note on ::  Channel 0.  Note 72.  Velocity 0
000000t:  Note on ::  Channel 0.  Note 76.  Velocity 0
000001t:  Note on ::  Channel 0.  Note 71.  Velocity 80
000000t:  Note on ::  Channel 0.  Note 74.  Velocity 80
000239t:  Note on ::  Channel 0.  Note 71.  Velocity 0
000000t:  Note on ::  Channel 0.  Note 74.  Velocity 0
000001t:  Note on ::  Channel 0.  Note 79.  Velocity 80
000239t:  Note on ::  Channel 0.  Note 79.  Velocity 0
000001t:  Note on ::  Channel 0.  Note 71.  Velocity 80
000000t:  Note on ::  Channel 0.  Note 74.  Velocity 80
000239t:  Note on ::  Channel 0.  Note 71.  Velocity 0
000000t:  Note on ::  Channel 0.  Note 74.  Velocity 0
000481t:  Note on ::  Channel 0.  Note 69.  Velocity 80
000000t:  Note on ::  Channel 0.  Note 72.  Velocity 80
000239t:  Note on ::  Channel 0.  Note 69.  Velocity 0
000000t:  Note on ::  Channel 0.  Note 72.  Velocity 0
000001t:  Note on ::  Channel 0.  Note 76.  Velocity 80
000239t:  Note on ::  Channel 0.  Note 76.  Velocity 0
000001t:  Note on ::  Channel 0.  Note 69.  Velocity 80
000000t:  Note on ::  Channel 0.  Note 72.  Velocity 80
000239t:  Note on ::  Channel 0.  Note 69.  Velocity 0
000000t:  Note on ::  Channel 0.  Note 72.  Velocity 0
000001t:  Note on ::  Channel 0.  Note 67.  Velocity 80
000000t:  Note on ::  Channel 0.  Note 71.  Velocity 80
000239t:  Note on ::  Channel 0.  Note 67.  Velocity 0
000000t:  Note on ::  Channel 0.  Note 71.  Velocity 0
000001t:  Note on ::  Channel 0.  Note 76.  Velocity 80
000239t:  Note on ::  Channel 0.  Note 76.  Velocity 0
000001t:  Note on ::  Channel 0.  Note 67.  Velocity 80
000000t:  Note on ::  Channel 0.  Note 71.  Velocity 80
000239t:  Note on ::  Channel 0.  Note 67.  Velocity 0
000000t:  Note on ::  Channel 0.  Note 71.  Velocity 0
000481t:  Note on ::  Channel 0.  Note 65.  Velocity 80
000000t:  Note on ::  Channel 0.  Note 69.  Velocity 80
000000t:  Note on ::  Channel 0.  Note 72.  Velocity 80
000479t:  Note on ::  Channel 0.  Note 65.  Velocity 0
000000t:  Note on ::  Channel 0.  Note 69.  Velocity 0
000000t:  Note on ::  Channel 0.  Note 72.  Velocity 0
000001t:  Note on ::  Channel 0.  Note 57.  Velocity 80
000000t:  Note on ::  Channel 0.  Note 60.  Velocity 80
000000t:  Note on ::  Channel 0.  Note 65.  Velocity 80
000479t:  Note on ::  Channel 0.  Note 57.  Velocity 0
000000t:  Note on ::  Channel 0.  Note 60.  Velocity 0
000000t:  Note on ::  Channel 0.  Note 65.  Velocity 0
000001t:  Note on ::  Channel 0.  Note 57.  Velocity 80
000000t:  Note on ::  Channel 0.  Note 60.  Velocity 80
000239t:  Note on ::  Channel 0.  Note 57.  Velocity 0
000000t:  Note on ::  Channel 0.  Note 60.  Velocity 0
000001t:  Note on ::  Channel 0.  Note 52.  Velocity 80
000000t:  Note on ::  Channel 0.  Note 55.  Velocity 80
000000t:  Note on ::  Channel 0.  Note 59.  Velocity 80
000239t:  Note on ::  Channel 0.  Note 52.  Velocity 0
000000t:  Note on ::  Channel 0.  Note 55.  Velocity 0
000000t:  Note on ::  Channel 0.  Note 59.  Velocity 0
000481t:  Note on ::  Channel 0.  Note 52.  Velocity 80
000000t:  Note on ::  Channel 0.  Note 59.  Velocity 80
000000t:  Note on ::  Channel 0.  Note 64.  Velocity 80
000479t:  Note on ::  Channel 0.  Note 52.  Velocity 0
000000t:  Note on ::  Channel 0.  Note 59.  Velocity 0
000000t:  Note on ::  Channel 0.  Note 64.  Velocity 0
000481t:  Note on ::  Channel 0.  Note 52.  Velocity 80
000239t:  Note on ::  Channel 0.  Note 52.  Velocity 0
000001t:  Note on ::  Channel 0.  Note 59.  Velocity 80
000239t:  Note on ::  Channel 0.  Note 59.  Velocity 0
000001t:  Note on ::  Channel 0.  Note 64.  Velocity 80
000239t:  Note on ::  Channel 0.  Note 64.  Velocity 0
000241t:  Note on ::  Channel 0.  Note 67.  Velocity 80
000239t:  Note on ::  Channel 0.  Note 67.  Velocity 0
000001t:  Note on ::  Channel 0.  Note 69.  Velocity 80
000239t:  Note on ::  Channel 0.  Note 69.  Velocity 0
000001t:  Note on ::  Channel 0.  Note 72.  Velocity 80
000239t:  Note on ::  Channel 0.  Note 72.  Velocity 0
000241t:  Note on ::  Channel 0.  Note 57.  Velocity 80
000000t:  Note on ::  Channel 0.  Note 60.  Velocity 80
000000t:  Note on ::  Channel 0.  Note 64.  Velocity 80
000479t:  Note on ::  Channel 0.  Note 57.  Velocity 0
000000t:  Note on ::  Channel 0.  Note 60.  Velocity 0
000000t:  Note on ::  Channel 0.  Note 64.  Velocity 0
000241t:  Note on ::  Channel 0.  Note 57.  Velocity 80
000000t:  Note on ::  Channel 0.  Note 60.  Velocity 80
000000t:  Note on ::  Channel 0.  Note 64.  Velocity 80
000239t:  Note on ::  Channel 0.  Note 57.  Velocity 0
000000t:  Note on ::  Channel 0.  Note 60.  Velocity 0
000000t:  Note on ::  Channel 0.  Note 64.  Velocity 0
000241t:  Note on ::  Channel 0.  Note 57.  Velocity 80
000000t:  Note on ::  Channel 0.  Note 60.  Velocity 80
000000t:  Note on ::  Channel 0.  Note 64.  Velocity 80
000239t:  Note on ::  Channel 0.  Note 57.  Velocity 0
000000t:  Note on ::  Channel 0.  Note 60.  Velocity 0
000000t:  Note on ::  Channel 0.  Note 64.  Velocity 0
000241t:  Note on ::  Channel 0.  Note 57.  Velocity 80
000000t:  Note on ::  Channel 0.  Note 60.  Velocity 80
000000t:  Note on ::  Channel 0.  Note 64.  Velocity 80
000239t:  Note on ::  Channel 0.  Note 57.  Velocity 0
000000t:  Note on ::  Channel 0.  Note 60.  Velocity 0
000000t:  Note on ::  Channel 0.  Note 64.  Velocity 0
000241t:  Note on ::  Channel 0.  Note 55.  Velocity 80
000000t:  Note on ::  Channel 0.  Note 59.  Velocity 80
000000t:  Note on ::  Channel 0.  Note 62.  Velocity 80
000239t:  Note on ::  Channel 0.  Note 55.  Velocity 0
000000t:  Note on ::  Channel 0.  Note 59.  Velocity 0
000000t:  Note on ::  Channel 0.  Note 62.  Velocity 0
000481t:  Note on ::  Channel 0.  Note 57.  Velocity 80
000000t:  Note on ::  Channel 0.  Note 60.  Velocity 80
000000t:  Note on ::  Channel 0.  Note 64.  Velocity 80
000239t:  Note on ::  Channel 0.  Note 57.  Velocity 0
000000t:  Note on ::  Channel 0.  Note 60.  Velocity 0
000000t:  Note on ::  Channel 0.  Note 64.  Velocity 0
000241t:  Note on ::  Channel 0.  Note 57.  Velocity 80
000000t:  Note on ::  Channel 0.  Note 60.  Velocity 80
000000t:  Note on ::  Channel 0.  Note 64.  Velocity 80
000239t:  Note on ::  Channel 0.  Note 57.  Velocity 0
000000t:  Note on ::  Channel 0.  Note 60.  Velocity 0
000000t:  Note on ::  Channel 0.  Note 64.  Velocity 0
000241t:  Note on ::  Channel 0.  Note 55.  Velocity 80
000000t:  Note on ::  Channel 0.  Note 59.  Velocity 80
000000t:  Note on ::  Channel 0.  Note 62.  Velocity 80
000239t:  Note on ::  Channel 0.  Note 55.  Velocity 0
000000t:  Note on ::  Channel 0.  Note 59.  Velocity 0
000000t:  Note on ::  Channel 0.  Note 62.  Velocity 0
000721t:  Note on ::  Channel 0.  Note 60.  Velocity 80
000000t:  Note on ::  Channel 0.  Note 64.  Velocity 80
000000t:  Note on ::  Channel 0.  Note 67.  Velocity 80
000239t:  Note on ::  Channel 0.  Note 60.  Velocity 0
000000t:  Note on ::  Channel 0.  Note 64.  Velocity 0
000000t:  Note on ::  Channel 0.  Note 67.  Velocity 0
000241t:  Note on ::  Channel 0.  Note 60.  Velocity 80
000000t:  Note on ::  Channel 0.  Note 64.  Velocity 80
000000t:  Note on ::  Channel 0.  Note 67.  Velocity 80
000239t:  Note on ::  Channel 0.  Note 60.  Velocity 0
000000t:  Note on ::  Channel 0.  Note 64.  Velocity 0
000000t:  Note on ::  Channel 0.  Note 67.  Velocity 0
000241t:  Note on ::  Channel 0.  Note 55.  Velocity 80
000000t:  Note on ::  Channel 0.  Note 59.  Velocity 80
000000t:  Note on ::  Channel 0.  Note 62.  Velocity 80
000239t:  Note on ::  Channel 0.  Note 55.  Velocity 0
000000t:  Note on ::  Channel 0.  Note 59.  Velocity 0
000000t:  Note on ::  Channel 0.  Note 62.  Velocity 0
000241t:  Note on ::  Channel 0.  Note 55.  Velocity 80
000000t:  Note on ::  Channel 0.  Note 59.  Velocity 80
000000t:  Note on ::  Channel 0.  Note 62.  Velocity 80
000239t:  Note on ::  Channel 0.  Note 55.  Velocity 0
000000t:  Note on ::  Channel 0.  Note 59.  Velocity 0
000000t:  Note on ::  Channel 0.  Note 62.  Velocity 0
000241t:  Note on ::  Channel 0.  Note 57.  Velocity 80
000000t:  Note on ::  Channel 0.  Note 60.  Velocity 80
000000t:  Note on ::  Channel 0.  Note 64.  Velocity 80
000239t:  Note on ::  Channel 0.  Note 57.  Velocity 0
000000t:  Note on ::  Channel 0.  Note 60.  Velocity 0
000000t:  Note on ::  Channel 0.  Note 64.  Velocity 0
000241t:  Note on ::  Channel 0.  Note 57.  Velocity 80
000000t:  Note on ::  Channel 0.  Note 60.  Velocity 80
000000t:  Note on ::  Channel 0.  Note 64.  Velocity 80
000239t:  Note on ::  Channel 0.  Note 57.  Velocity 0
000000t:  Note on ::  Channel 0.  Note 60.  Velocity 0
000000t:  Note on ::  Channel 0.  Note 64.  Velocity 0
000241t:  Note on ::  Channel 0.  Note 60.  Velocity 80
000000t:  Note on ::  Channel 0.  Note 64.  Velocity 80
000000t:  Note on ::  Channel 0.  Note 67.  Velocity 80
000239t:  Note on ::  Channel 0.  Note 60.  Velocity 0
000000t:  Note on ::  Channel 0.  Note 64.  Velocity 0
000000t:  Note on ::  Channel 0.  Note 67.  Velocity 0
000241t:  Note on ::  Channel 0.  Note 60.  Velocity 80
000000t:  Note on ::  Channel 0.  Note 64.  Velocity 80
000000t:  Note on ::  Channel 0.  Note 67.  Velocity 80
000239t:  Note on ::  Channel 0.  Note 60.  Velocity 0
000000t:  Note on ::  Channel 0.  Note 64.  Velocity 0
000000t:  Note on ::  Channel 0.  Note 67.  Velocity 0
000241t:  Note on ::  Channel 0.  Note 62.  Velocity 80
000000t:  Note on ::  Channel 0.  Note 66.  Velocity 80
000000t:  Note on ::  Channel 0.  Note 69.  Velocity 80
000479t:  Note on ::  Channel 0.  Note 62.  Velocity 0
000000t:  Note on ::  Channel 0.  Note 66.  Velocity 0
000000t:  Note on ::  Channel 0.  Note 69.  Velocity 0
000001t:  Note on ::  Channel 0.  Note 74.  Velocity 80
000000t:  Note on ::  Channel 0.  Note 86.  Velocity 80
000119t:  Note on ::  Channel 0.  Note 74.  Velocity 0
000000t:  Note on ::  Channel 0.  Note 86.  Velocity 0
000001t:  Note on ::  Channel 0.  Note 74.  Velocity 80
000000t:  Note on ::  Channel 0.  Note 86.  Velocity 80
000119t:  Note on ::  Channel 0.  Note 74.  Velocity 0
000000t:  Note on ::  Channel 0.  Note 86.  Velocity 0
000001t:  Note on ::  Channel 0.  Note 74.  Velocity 80
000000t:  Note on ::  Channel 0.  Note 86.  Velocity 80
000119t:  Note on ::  Channel 0.  Note 74.  Velocity 0
000000t:  Note on ::  Channel 0.  Note 86.  Velocity 0
000001t:  Note on ::  Channel 0.  Note 72.  Velocity 80
000000t:  Note on ::  Channel 0.  Note 84.  Velocity 80
000119t:  Note on ::  Channel 0.  Note 72.  Velocity 0
000000t:  Note on ::  Channel 0.  Note 84.  Velocity 0
000001t:  Note on ::  Channel 0.  Note 69.  Velocity 80
000000t:  Note on ::  Channel 0.  Note 81.  Velocity 80
000119t:  Note on ::  Channel 0.  Note 69.  Velocity 0
000000t:  Note on ::  Channel 0.  Note 81.  Velocity 0
000001t:  Note on ::  Channel 0.  Note 67.  Velocity 80
000000t:  Note on ::  Channel 0.  Note 79.  Velocity 80
000119t:  Note on ::  Channel 0.  Note 67.  Velocity 0
000000t:  Note on ::  Channel 0.  Note 79.  Velocity 0
000481t:  Note on ::  Channel 0.  Note 67.  Velocity 80
000000t:  Note on ::  Channel 0.  Note 79.  Velocity 80
000239t:  Note on ::  Channel 0.  Note 67.  Velocity 0
000000t:  Note on ::  Channel 0.  Note 79.  Velocity 0
000001t:  Note on ::  Channel 0.  Note 62.  Velocity 80
000000t:  Note on ::  Channel 0.  Note 66.  Velocity 80
000000t:  Note on ::  Channel 0.  Note 69.  Velocity 80
000239t:  Note on ::  Channel 0.  Note 62.  Velocity 0
000000t:  Note on ::  Channel 0.  Note 66.  Velocity 0
000000t:  Note on ::  Channel 0.  Note 69.  Velocity 0
000241t:  Note on ::  Channel 0.  Note 62.  Velocity 80
000000t:  Note on ::  Channel 0.  Note 65.  Velocity 80
000000t:  Note on ::  Channel 0.  Note 69.  Velocity 80
000239t:  Note on ::  Channel 0.  Note 62.  Velocity 0
000000t:  Note on ::  Channel 0.  Note 65.  Velocity 0
000000t:  Note on ::  Channel 0.  Note 69.  Velocity 0
000241t:  Note on ::  Channel 0.  Note 67.  Velocity 80
000000t:  Note on ::  Channel 0.  Note 70.  Velocity 80
000000t:  Note on ::  Channel 0.  Note 74.  Velocity 80
000239t:  Note on ::  Channel 0.  Note 67.  Velocity 0
000000t:  Note on ::  Channel 0.  Note 70.  Velocity 0
000000t:  Note on ::  Channel 0.  Note 74.  Velocity 0
000241t:  Note on ::  Channel 0.  Note 67.  Velocity 80
000000t:  Note on ::  Channel 0.  Note 70.  Velocity 80
000000t:  Note on ::  Channel 0.  Note 74.  Velocity 80
000239t:  Note on ::  Channel 0.  Note 67.  Velocity 0
000000t:  Note on ::  Channel 0.  Note 70.  Velocity 0
000000t:  Note on ::  Channel 0.  Note 74.  Velocity 0
000241t:  Note on ::  Channel 0.  Note 72.  Velocity 80
000000t:  Note on ::  Channel 0.  Note 76.  Velocity 80
000000t:  Note on ::  Channel 0.  Note 79.  Velocity 80
000239t:  Note on ::  Channel 0.  Note 72.  Velocity 0
000000t:  Note on ::  Channel 0.  Note 76.  Velocity 0
000000t:  Note on ::  Channel 0.  Note 79.  Velocity 0
000241t:  Note on ::  Channel 0.  Note 72.  Velocity 80
000000t:  Note on ::  Channel 0.  Note 76.  Velocity 80
000000t:  Note on ::  Channel 0.  Note 79.  Velocity 80
000239t:  Note on ::  Channel 0.  Note 72.  Velocity 0
000000t:  Note on ::  Channel 0.  Note 76.  Velocity 0
000000t:  Note on ::  Channel 0.  Note 79.  Velocity 0
000241t:  Note on ::  Channel 0.  Note 69.  Velocity 80
000000t:  Note on ::  Channel 0.  Note 72.  Velocity 80
000000t:  Note on ::  Channel 0.  Note 77.  Velocity 80
000239t:  Note on ::  Channel 0.  Note 69.  Velocity 0
000000t:  Note on ::  Channel 0.  Note 72.  Velocity 0
000000t:  Note on ::  Channel 0.  Note 77.  Velocity 0
000241t:  Note on ::  Channel 0.  Note 69.  Velocity 80
000000t:  Note on ::  Channel 0.  Note 72.  Velocity 80
000000t:  Note on ::  Channel 0.  Note 77.  Velocity 80
000239t:  Note on ::  Channel 0.  Note 69.  Velocity 0
000000t:  Note on ::  Channel 0.  Note 72.  Velocity 0
000000t:  Note on ::  Channel 0.  Note 77.  Velocity 0
000001t:  Meta-event type $2f (End-track event) of length 0
Sigma t = 43920

Track chunk of 589 bytes
000000t:  Meta-event type $59 (Key signature) of length 2
	  __
000000t:  Meta-event type $21 (?) of length 1
	  _
000000t:  Note on ::  Channel 0.  Note 45.  Velocity 80
000000t:  Note on ::  Channel 0.  Note 57.  Velocity 80
001919t:  Note on ::  Channel 0.  Note 45.  Velocity 0
000000t:  Note on ::  Channel 0.  Note 57.  Velocity 0
000001t:  Note on ::  Channel 0.  Note 45.  Velocity 80
000000t:  Note on ::  Channel 0.  Note 52.  Velocity 80
001919t:  Note on ::  Channel 0.  Note 45.  Velocity 0
000000t:  Note on ::  Channel 0.  Note 52.  Velocity 0
000001t:  Note on ::  Channel 0.  Note 41.  Velocity 80
000000t:  Note on ::  Channel 0.  Note 48.  Velocity 80
001919t:  Note on ::  Channel 0.  Note 41.  Velocity 0
000000t:  Note on ::  Channel 0.  Note 48.  Velocity 0
000001t:  Note on ::  Channel 0.  Note 43.  Velocity 80
000000t:  Note on ::  Channel 0.  Note 50.  Velocity 80
001919t:  Note on ::  Channel 0.  Note 43.  Velocity 0
000000t:  Note on ::  Channel 0.  Note 50.  Velocity 0
000001t:  Note on ::  Channel 0.  Note 45.  Velocity 80
000000t:  Note on ::  Channel 0.  Note 52.  Velocity 80
001919t:  Note on ::  Channel 0.  Note 45.  Velocity 0
000000t:  Note on ::  Channel 0.  Note 52.  Velocity 0
000001t:  Note on ::  Channel 0.  Note 45.  Velocity 80
000000t:  Note on ::  Channel 0.  Note 52.  Velocity 80
001919t:  Note on ::  Channel 0.  Note 45.  Velocity 0
000000t:  Note on ::  Channel 0.  Note 52.  Velocity 0
000001t:  Note on ::  Channel 0.  Note 41.  Velocity 80
000000t:  Note on ::  Channel 0.  Note 48.  Velocity 80
001919t:  Note on ::  Channel 0.  Note 41.  Velocity 0
000000t:  Note on ::  Channel 0.  Note 48.  Velocity 0
000001t:  Note on ::  Channel 0.  Note 43.  Velocity 80
000000t:  Note on ::  Channel 0.  Note 50.  Velocity 80
001919t:  Note on ::  Channel 0.  Note 43.  Velocity 0
000000t:  Note on ::  Channel 0.  Note 50.  Velocity 0
000001t:  Note on ::  Channel 0.  Note 45.  Velocity 80
000000t:  Note on ::  Channel 0.  Note 52.  Velocity 80
001919t:  Note on ::  Channel 0.  Note 45.  Velocity 0
000000t:  Note on ::  Channel 0.  Note 52.  Velocity 0
000001t:  Note on ::  Channel 0.  Note 53.  Velocity 80
000239t:  Note on ::  Channel 0.  Note 53.  Velocity 0
000001t:  Note on ::  Channel 0.  Note 57.  Velocity 80
000239t:  Note on ::  Channel 0.  Note 57.  Velocity 0
001441t:  Note on ::  Channel 0.  Note 55.  Velocity 80
000239t:  Note on ::  Channel 0.  Note 55.  Velocity 0
000001t:  Note on ::  Channel 0.  Note 64.  Velocity 80
000239t:  Note on ::  Channel 0.  Note 64.  Velocity 0
001441t:  Note on ::  Channel 0.  Note 48.  Velocity 80
000000t:  Note on ::  Channel 0.  Note 55.  Velocity 80
000479t:  Note on ::  Channel 0.  Note 48.  Velocity 0
000000t:  Note on ::  Channel 0.  Note 55.  Velocity 0
000001t:  Note on ::  Channel 0.  Note 47.  Velocity 80
000000t:  Note on ::  Channel 0.  Note 55.  Velocity 80
000479t:  Note on ::  Channel 0.  Note 47.  Velocity 0
000000t:  Note on ::  Channel 0.  Note 55.  Velocity 0
000961t:  Note on ::  Channel 0.  Note 45.  Velocity 80
000000t:  Note on ::  Channel 0.  Note 52.  Velocity 80
000479t:  Note on ::  Channel 0.  Note 45.  Velocity 0
000000t:  Note on ::  Channel 0.  Note 52.  Velocity 0
000001t:  Note on ::  Channel 0.  Note 43.  Velocity 80
000000t:  Note on ::  Channel 0.  Note 52.  Velocity 80
000479t:  Note on ::  Channel 0.  Note 43.  Velocity 0
000000t:  Note on ::  Channel 0.  Note 52.  Velocity 0
000961t:  Note on ::  Channel 0.  Note 53.  Velocity 80
000000t:  Note on ::  Channel 0.  Note 60.  Velocity 80
000479t:  Note on ::  Channel 0.  Note 53.  Velocity 0
000000t:  Note on ::  Channel 0.  Note 60.  Velocity 0
000001t:  Note on ::  Channel 0.  Note 41.  Velocity 80
000239t:  Note on ::  Channel 0.  Note 41.  Velocity 0
000001t:  Note on ::  Channel 0.  Note 48.  Velocity 80
000239t:  Note on ::  Channel 0.  Note 48.  Velocity 0
000241t:  Note on ::  Channel 0.  Note 43.  Velocity 80
000000t:  Note on ::  Channel 0.  Note 50.  Velocity 80
000479t:  Note on ::  Channel 0.  Note 43.  Velocity 0
000000t:  Note on ::  Channel 0.  Note 50.  Velocity 0
000241t:  Note on ::  Channel 0.  Note 40.  Velocity 80
000000t:  Note on ::  Channel 0.  Note 50.  Velocity 80
000479t:  Note on ::  Channel 0.  Note 40.  Velocity 0
000000t:  Note on ::  Channel 0.  Note 50.  Velocity 0
000001t:  Note on ::  Channel 0.  Note 40.  Velocity 80
000239t:  Note on ::  Channel 0.  Note 40.  Velocity 0
000001t:  Note on ::  Channel 0.  Note 47.  Velocity 80
000239t:  Note on ::  Channel 0.  Note 47.  Velocity 0
000961t:  Note on ::  Channel 0.  Note 43.  Velocity 80
000239t:  Note on ::  Channel 0.  Note 43.  Velocity 0
000001t:  Note on ::  Channel 0.  Note 45.  Velocity 80
000239t:  Note on ::  Channel 0.  Note 45.  Velocity 0
000001t:  Note on ::  Channel 0.  Note 48.  Velocity 80
000239t:  Note on ::  Channel 0.  Note 48.  Velocity 0
000241t:  Note on ::  Channel 0.  Note 33.  Velocity 80
000239t:  Note on ::  Channel 0.  Note 33.  Velocity 0
000001t:  Note on ::  Channel 0.  Note 45.  Velocity 80
000239t:  Note on ::  Channel 0.  Note 45.  Velocity 0
000481t:  Note on ::  Channel 0.  Note 45.  Velocity 80
000239t:  Note on ::  Channel 0.  Note 45.  Velocity 0
000241t:  Note on ::  Channel 0.  Note 45.  Velocity 80
000239t:  Note on ::  Channel 0.  Note 45.  Velocity 0
000241t:  Note on ::  Channel 0.  Note 45.  Velocity 80
000239t:  Note on ::  Channel 0.  Note 45.  Velocity 0
000001t:  Note on ::  Channel 0.  Note 31.  Velocity 80
000239t:  Note on ::  Channel 0.  Note 31.  Velocity 0
000001t:  Note on ::  Channel 0.  Note 43.  Velocity 80
000239t:  Note on ::  Channel 0.  Note 43.  Velocity 0
000481t:  Note on ::  Channel 0.  Note 43.  Velocity 80
000239t:  Note on ::  Channel 0.  Note 43.  Velocity 0
000241t:  Note on ::  Channel 0.  Note 43.  Velocity 80
000239t:  Note on ::  Channel 0.  Note 43.  Velocity 0
000241t:  Note on ::  Channel 0.  Note 43.  Velocity 80
000239t:  Note on ::  Channel 0.  Note 43.  Velocity 0
000481t:  Note on ::  Channel 0.  Note 38.  Velocity 80
000239t:  Note on ::  Channel 0.  Note 38.  Velocity 0
000001t:  Note on ::  Channel 0.  Note 48.  Velocity 80
000239t:  Note on ::  Channel 0.  Note 48.  Velocity 0
000241t:  Note on ::  Channel 0.  Note 48.  Velocity 80
000239t:  Note on ::  Channel 0.  Note 48.  Velocity 0
000001t:  Note on ::  Channel 0.  Note 36.  Velocity 80
000239t:  Note on ::  Channel 0.  Note 36.  Velocity 0
000001t:  Note on ::  Channel 0.  Note 47.  Velocity 80
000239t:  Note on ::  Channel 0.  Note 47.  Velocity 0
000241t:  Note on ::  Channel 0.  Note 47.  Velocity 80
000239t:  Note on ::  Channel 0.  Note 47.  Velocity 0
000001t:  Note on ::  Channel 0.  Note 33.  Velocity 80
000239t:  Note on ::  Channel 0.  Note 33.  Velocity 0
000001t:  Note on ::  Channel 0.  Note 45.  Velocity 80
000239t:  Note on ::  Channel 0.  Note 45.  Velocity 0
000241t:  Note on ::  Channel 0.  Note 45.  Velocity 80
000239t:  Note on ::  Channel 0.  Note 45.  Velocity 0
000001t:  Note on ::  Channel 0.  Note 31.  Velocity 80
000239t:  Note on ::  Channel 0.  Note 31.  Velocity 0
000001t:  Note on ::  Channel 0.  Note 43.  Velocity 80
000239t:  Note on ::  Channel 0.  Note 43.  Velocity 0
000241t:  Note on ::  Channel 0.  Note 43.  Velocity 80
000239t:  Note on ::  Channel 0.  Note 43.  Velocity 0
000001t:  Note on ::  Channel 0.  Note 34.  Velocity 80
000000t:  Note on ::  Channel 0.  Note 42.  Velocity 80
001439t:  Note on ::  Channel 0.  Note 34.  Velocity 0
000000t:  Note on ::  Channel 0.  Note 42.  Velocity 0
000001t:  Note on ::  Channel 0.  Note 52.  Velocity 80
000239t:  Note on ::  Channel 0.  Note 52.  Velocity 0
000001t:  Note on ::  Channel 0.  Note 64.  Velocity 80
000239t:  Note on ::  Channel 0.  Note 64.  Velocity 0
000001t:  Note on ::  Channel 0.  Note 50.  Velocity 80
000239t:  Note on ::  Channel 0.  Note 50.  Velocity 0
000001t:  Note on ::  Channel 0.  Note 57.  Velocity 80
000239t:  Note on ::  Channel 0.  Note 57.  Velocity 0
000241t:  Note on ::  Channel 0.  Note 57.  Velocity 80
000239t:  Note on ::  Channel 0.  Note 57.  Velocity 0
000001t:  Note on ::  Channel 0.  Note 55.  Velocity 80
000239t:  Note on ::  Channel 0.  Note 55.  Velocity 0
000001t:  Note on ::  Channel 0.  Note 62.  Velocity 80
000239t:  Note on ::  Channel 0.  Note 62.  Velocity 0
000241t:  Note on ::  Channel 0.  Note 62.  Velocity 80
000239t:  Note on ::  Channel 0.  Note 62.  Velocity 0
000001t:  Note on ::  Channel 0.  Note 64.  Velocity 80
000239t:  Note on ::  Channel 0.  Note 64.  Velocity 0
000001t:  Note on ::  Channel 0.  Note 71.  Velocity 80
000239t:  Note on ::  Channel 0.  Note 71.  Velocity 0
000241t:  Note on ::  Channel 0.  Note 71.  Velocity 80
000239t:  Note on ::  Channel 0.  Note 71.  Velocity 0
000001t:  Note on ::  Channel 0.  Note 53.  Velocity 80
000239t:  Note on ::  Channel 0.  Note 53.  Velocity 0
000001t:  Note on ::  Channel 0.  Note 60.  Velocity 80
000239t:  Note on ::  Channel 0.  Note 60.  Velocity 0
000241t:  Note on ::  Channel 0.  Note 60.  Velocity 80
000239t:  Note on ::  Channel 0.  Note 60.  Velocity 0
000001t:  Meta-event type $2f (End-track event) of length 0
Sigma t = 44160
End.
