File: ./Tim Minchin - Rock N Roll Nerd.midi
Format: 1
Tracks: 2
Ticks per quarter note: 4

Track chunk of 1327 bytes
000000t:  Program (patch) change ::  Channel 0.  Patch 1 (Bright Acoustic)
000000t:  Meta-event type $58 (Time signature) of length 4
	  ____
000000t:  Note on ::  Channel 0.  Note 72.  Velocity 64
000000t:  Note on ::  Channel 0.  Note 69.  Velocity 64
000000t:  Note on ::  Channel 0.  Note 76.  Velocity 64
000000t:  Note on ::  Channel 0.  Note 81.  Velocity 64
000008t:  Note off ::  Channel 0.  Note 76.  Velocity 64
000000t:  Note off ::  Channel 0.  Note 69.  Velocity 64
000000t:  Note off ::  Channel 0.  Note 81.  Velocity 64
000000t:  Note off ::  Channel 0.  Note 72.  Velocity 64
000000t:  Note on ::  Channel 0.  Note 69.  Velocity 64
000001t:  Note off ::  Channel 0.  Note 69.  Velocity 64
000000t:  Note on ::  Channel 0.  Note 72.  Velocity 64
000001t:  Note off ::  Channel 0.  Note 72.  Velocity 64
000000t:  Note on ::  Channel 0.  Note 76.  Velocity 64
000001t:  Note on ::  Channel 0.  Note 71.  Velocity 64
000000t:  Note off ::  Channel 0.  Note 76.  Velocity 64
000001t:  Note off ::  Channel 0.  Note 71.  Velocity 64
000000t:  Note on ::  Channel 0.  Note 72.  Velocity 64
000001t:  Note off ::  Channel 0.  Note 72.  Velocity 64
000000t:  Note on ::  Channel 0.  Note 69.  Velocity 64
000001t:  Note off ::  Channel 0.  Note 69.  Velocity 64
000000t:  Note on ::  Channel 0.  Note 72.  Velocity 64
000001t:  Note off ::  Channel 0.  Note 72.  Velocity 64
000000t:  Note on ::  Channel 0.  Note 71.  Velocity 64
000001t:  Note off ::  Channel 0.  Note 71.  Velocity 64
000000t:  Note on ::  Channel 0.  Note 57.  Velocity 64
000000t:  Note on ::  Channel 0.  Note 60.  Velocity 64
000016t:  Note off ::  Channel 0.  Note 60.  Velocity 64
000000t:  Note off ::  Channel 0.  Note 57.  Velocity 64
000000t:  Note on ::  Channel 0.  Note 62.  Velocity 64
000000t:  Note on ::  Channel 0.  Note 55.  Velocity 64
000000t:  Note on ::  Channel 0.  Note 59.  Velocity 64
000016t:  Note on ::  Channel 0.  Note 55.  Velocity 64
000000t:  Note on ::  Channel 0.  Note 59.  Velocity 64
000000t:  Note on ::  Channel 0.  Note 62.  Velocity 64
000000t:  Note off ::  Channel 0.  Note 59.  Velocity 64
000000t:  Note off ::  Channel 0.  Note 55.  Velocity 64
000000t:  Note off ::  Channel 0.  Note 62.  Velocity 64
000016t:  Note on ::  Channel 0.  Note 57.  Velocity 64
000000t:  Note off ::  Channel 0.  Note 62.  Velocity 64
000000t:  Note off ::  Channel 0.  Note 59.  Velocity 64
000000t:  Note off ::  Channel 0.  Note 55.  Velocity 64
000002t:  Note off ::  Channel 0.  Note 57.  Velocity 64
000000t:  Note on ::  Channel 0.  Note 60.  Velocity 64
000002t:  Note off ::  Channel 0.  Note 60.  Velocity 64
000000t:  Note on ::  Channel 0.  Note 64.  Velocity 64
000002t:  Note off ::  Channel 0.  Note 64.  Velocity 64
000000t:  Note on ::  Channel 0.  Note 69.  Velocity 64
000002t:  Note off ::  Channel 0.  Note 69.  Velocity 64
000000t:  Note on ::  Channel 0.  Note 71.  Velocity 64
000002t:  Note on ::  Channel 0.  Note 60.  Velocity 64
000000t:  Note off ::  Channel 0.  Note 71.  Velocity 64
000002t:  Note on ::  Channel 0.  Note 72.  Velocity 64
000000t:  Note off ::  Channel 0.  Note 60.  Velocity 64
000002t:  Note off ::  Channel 0.  Note 72.  Velocity 64
000010t:  Note on ::  Channel 0.  Note 65.  Velocity 64
000002t:  Note on ::  Channel 0.  Note 69.  Velocity 64
000000t:  Note off ::  Channel 0.  Note 65.  Velocity 64
000002t:  Note off ::  Channel 0.  Note 69.  Velocity 64
000000t:  Note on ::  Channel 0.  Note 72.  Velocity 64
000002t:  Note on ::  Channel 0.  Note 77.  Velocity 64
000000t:  Note off ::  Channel 0.  Note 72.  Velocity 64
000002t:  Note off ::  Channel 0.  Note 77.  Velocity 64
000008t:  Note on ::  Channel 0.  Note 67.  Velocity 64
000002t:  Note off ::  Channel 0.  Note 67.  Velocity 64
000000t:  Note on ::  Channel 0.  Note 71.  Velocity 64
000002t:  Note off ::  Channel 0.  Note 71.  Velocity 64
000000t:  Note on ::  Channel 0.  Note 74.  Velocity 64
000002t:  Note off ::  Channel 0.  Note 74.  Velocity 64
000000t:  Note on ::  Channel 0.  Note 79.  Velocity 64
000002t:  Note on ::  Channel 0.  Note 72.  Velocity 64
000000t:  Note on ::  Channel 0.  Note 76.  Velocity 64
000000t:  Note off ::  Channel 0.  Note 79.  Velocity 64
000002t:  Note off ::  Channel 0.  Note 72.  Velocity 64
000000t:  Note off ::  Channel 0.  Note 76.  Velocity 64
000000t:  Note on ::  Channel 0.  Note 79.  Velocity 64
000002t:  Note on ::  Channel 0.  Note 72.  Velocity 64
000000t:  Note on ::  Channel 0.  Note 76.  Velocity 64
000000t:  Note off ::  Channel 0.  Note 79.  Velocity 64
000002t:  Note on ::  Channel 0.  Note 74.  Velocity 64
000000t:  Note on ::  Channel 0.  Note 71.  Velocity 64
000000t:  Note off ::  Channel 0.  Note 72.  Velocity 64
000000t:  Note off ::  Channel 0.  Note 76.  Velocity 64
000002t:  Note off ::  Channel 0.  Note 71.  Velocity 64
000000t:  Note off ::  Channel 0.  Note 74.  Velocity 64
000000t:  Note on ::  Channel 0.  Note 79.  Velocity 64
000002t:  Note off ::  Channel 0.  Note 79.  Velocity 64
000000t:  Note on ::  Channel 0.  Note 71.  Velocity 64
000000t:  Note on ::  Channel 0.  Note 74.  Velocity 64
000002t:  Note off ::  Channel 0.  Note 71.  Velocity 64
000000t:  Note off ::  Channel 0.  Note 74.  Velocity 64
000004t:  Note on ::  Channel 0.  Note 69.  Velocity 64
000000t:  Note on ::  Channel 0.  Note 72.  Velocity 64
000002t:  Note on ::  Channel 0.  Note 76.  Velocity 64
000000t:  Note off ::  Channel 0.  Note 69.  Velocity 64
000000t:  Note off ::  Channel 0.  Note 72.  Velocity 64
000002t:  Note on ::  Channel 0.  Note 69.  Velocity 64
000000t:  Note on ::  Channel 0.  Note 72.  Velocity 64
000000t:  Note off ::  Channel 0.  Note 76.  Velocity 64
000002t:  Note on ::  Channel 0.  Note 67.  Velocity 64
000000t:  Note on ::  Channel 0.  Note 71.  Velocity 64
000000t:  Note off ::  Channel 0.  Note 72.  Velocity 64
000000t:  Note off ::  Channel 0.  Note 69.  Velocity 64
000002t:  Note on ::  Channel 0.  Note 76.  Velocity 64
000000t:  Note off ::  Channel 0.  Note 67.  Velocity 64
000000t:  Note off ::  Channel 0.  Note 71.  Velocity 64
000002t:  Note on ::  Channel 0.  Note 67.  Velocity 64
000000t:  Note off ::  Channel 0.  Note 76.  Velocity 64
000000t:  Note on ::  Channel 0.  Note 71.  Velocity 64
000002t:  Note off ::  Channel 0.  Note 71.  Velocity 64
000000t:  Note off ::  Channel 0.  Note 67.  Velocity 64
000004t:  Note on ::  Channel 0.  Note 69.  Velocity 64
000000t:  Note on ::  Channel 0.  Note 72.  Velocity 64
000000t:  Note on ::  Channel 0.  Note 65.  Velocity 64
000004t:  Note off ::  Channel 0.  Note 72.  Velocity 64
000000t:  Note off ::  Channel 0.  Note 69.  Velocity 64
000000t:  Note off ::  Channel 0.  Note 65.  Velocity 64
000000t:  Note on ::  Channel 0.  Note 60.  Velocity 64
000000t:  Note on ::  Channel 0.  Note 65.  Velocity 64
000000t:  Note on ::  Channel 0.  Note 57.  Velocity 64
000004t:  Note on ::  Channel 0.  Note 57.  Velocity 64
000000t:  Note on ::  Channel 0.  Note 60.  Velocity 64
000000t:  Note off ::  Channel 0.  Note 60.  Velocity 64
000000t:  Note off ::  Channel 0.  Note 65.  Velocity 64
000000t:  Note off ::  Channel 0.  Note 57.  Velocity 64
000002t:  Note off ::  Channel 0.  Note 60.  Velocity 64
000000t:  Note off ::  Channel 0.  Note 57.  Velocity 64
000000t:  Note on ::  Channel 0.  Note 55.  Velocity 64
000000t:  Note on ::  Channel 0.  Note 59.  Velocity 64
000000t:  Note on ::  Channel 0.  Note 52.  Velocity 64
000002t:  Note off ::  Channel 0.  Note 59.  Velocity 64
000000t:  Note off ::  Channel 0.  Note 52.  Velocity 64
000000t:  Note off ::  Channel 0.  Note 55.  Velocity 64
000004t:  Note on ::  Channel 0.  Note 59.  Velocity 64
000000t:  Note on ::  Channel 0.  Note 64.  Velocity 64
000000t:  Note on ::  Channel 0.  Note 52.  Velocity 64
000004t:  Note off ::  Channel 0.  Note 52.  Velocity 64
000000t:  Note off ::  Channel 0.  Note 64.  Velocity 64
000000t:  Note off ::  Channel 0.  Note 59.  Velocity 64
000004t:  Note on ::  Channel 0.  Note 52.  Velocity 64
000002t:  Note on ::  Channel 0.  Note 59.  Velocity 64
000000t:  Note off ::  Channel 0.  Note 52.  Velocity 64
000002t:  Note on ::  Channel 0.  Note 64.  Velocity 64
000000t:  Note off ::  Channel 0.  Note 59.  Velocity 64
000002t:  Note off ::  Channel 0.  Note 64.  Velocity 64
000002t:  Note on ::  Channel 0.  Note 67.  Velocity 64
000002t:  Note on ::  Channel 0.  Note 69.  Velocity 64
000000t:  Note off ::  Channel 0.  Note 67.  Velocity 64
000002t:  Note on ::  Channel 0.  Note 72.  Velocity 64
000000t:  Note off ::  Channel 0.  Note 69.  Velocity 64
000002t:  Note off ::  Channel 0.  Note 72.  Velocity 64
000002t:  Note on ::  Channel 0.  Note 57.  Velocity 64
000000t:  Note on ::  Channel 0.  Note 60.  Velocity 64
000000t:  Note on ::  Channel 0.  Note 64.  Velocity 64
000004t:  Note off ::  Channel 0.  Note 57.  Velocity 64
000000t:  Note off ::  Channel 0.  Note 60.  Velocity 64
000000t:  Note off ::  Channel 0.  Note 64.  Velocity 64
000002t:  Note on ::  Channel 0.  Note 57.  Velocity 64
000000t:  Note on ::  Channel 0.  Note 60.  Velocity 64
000000t:  Note on ::  Channel 0.  Note 64.  Velocity 64
000002t:  Note off ::  Channel 0.  Note 60.  Velocity 64
000000t:  Note off ::  Channel 0.  Note 64.  Velocity 64
000000t:  Note off ::  Channel 0.  Note 57.  Velocity 64
000002t:  Note on ::  Channel 0.  Note 57.  Velocity 64
000000t:  Note on ::  Channel 0.  Note 60.  Velocity 64
000000t:  Note on ::  Channel 0.  Note 64.  Velocity 64
000002t:  Note off ::  Channel 0.  Note 60.  Velocity 64
000000t:  Note off ::  Channel 0.  Note 57.  Velocity 64
000000t:  Note off ::  Channel 0.  Note 64.  Velocity 64
000002t:  Note on ::  Channel 0.  Note 57.  Velocity 64
000000t:  Note on ::  Channel 0.  Note 64.  Velocity 64
000000t:  Note on ::  Channel 0.  Note 60.  Velocity 64
000002t:  Note off ::  Channel 0.  Note 57.  Velocity 64
000000t:  Note off ::  Channel 0.  Note 64.  Velocity 64
000000t:  Note off ::  Channel 0.  Note 60.  Velocity 64
000002t:  Note on ::  Channel 0.  Note 55.  Velocity 64
000000t:  Note on ::  Channel 0.  Note 62.  Velocity 64
000000t:  Note on ::  Channel 0.  Note 59.  Velocity 64
000002t:  Note off ::  Channel 0.  Note 62.  Velocity 64
000000t:  Note off ::  Channel 0.  Note 55.  Velocity 64
000000t:  Note off ::  Channel 0.  Note 59.  Velocity 64
000004t:  Note on ::  Channel 0.  Note 60.  Velocity 64
000000t:  Note on ::  Channel 0.  Note 64.  Velocity 64
000000t:  Note on ::  Channel 0.  Note 57.  Velocity 64
000002t:  Note off ::  Channel 0.  Note 64.  Velocity 64
000000t:  Note off ::  Channel 0.  Note 57.  Velocity 64
000000t:  Note off ::  Channel 0.  Note 60.  Velocity 64
000002t:  Note on ::  Channel 0.  Note 57.  Velocity 64
000000t:  Note on ::  Channel 0.  Note 60.  Velocity 64
000000t:  Note on ::  Channel 0.  Note 64.  Velocity 64
000002t:  Note off ::  Channel 0.  Note 64.  Velocity 64
000000t:  Note off ::  Channel 0.  Note 60.  Velocity 64
000000t:  Note off ::  Channel 0.  Note 57.  Velocity 64
000002t:  Note on ::  Channel 0.  Note 59.  Velocity 64
000000t:  Note on ::  Channel 0.  Note 62.  Velocity 64
000000t:  Note on ::  Channel 0.  Note 55.  Velocity 64
000002t:  Note off ::  Channel 0.  Note 62.  Velocity 64
000000t:  Note off ::  Channel 0.  Note 55.  Velocity 64
000000t:  Note off ::  Channel 0.  Note 59.  Velocity 64
000006t:  Note on ::  Channel 0.  Note 67.  Velocity 64
000000t:  Note on ::  Channel 0.  Note 60.  Velocity 64
000000t:  Note on ::  Channel 0.  Note 64.  Velocity 64
000002t:  Note off ::  Channel 0.  Note 60.  Velocity 64
000000t:  Note off ::  Channel 0.  Note 64.  Velocity 64
000000t:  Note off ::  Channel 0.  Note 67.  Velocity 64
000002t:  Note on ::  Channel 0.  Note 67.  Velocity 64
000000t:  Note on ::  Channel 0.  Note 64.  Velocity 64
000000t:  Note on ::  Channel 0.  Note 60.  Velocity 64
000002t:  Note off ::  Channel 0.  Note 64.  Velocity 64
000000t:  Note off ::  Channel 0.  Note 60.  Velocity 64
000000t:  Note off ::  Channel 0.  Note 67.  Velocity 64
000002t:  Note on ::  Channel 0.  Note 55.  Velocity 64
000000t:  Note on ::  Channel 0.  Note 59.  Velocity 64
000000t:  Note on ::  Channel 0.  Note 62.  Velocity 64
000002t:  Note off ::  Channel 0.  Note 55.  Velocity 64
000000t:  Note off ::  Channel 0.  Note 62.  Velocity 64
000000t:  Note off ::  Channel 0.  Note 59.  Velocity 64
000002t:  Note on ::  Channel 0.  Note 62.  Velocity 64
000000t:  Note on ::  Channel 0.  Note 55.  Velocity 64
000000t:  Note on ::  Channel 0.  Note 59.  Velocity 64
000002t:  Note off ::  Channel 0.  Note 55.  Velocity 64
000000t:  Note off ::  Channel 0.  Note 59.  Velocity 64
000000t:  Note off ::  Channel 0.  Note 62.  Velocity 64
000002t:  Note on ::  Channel 0.  Note 57.  Velocity 64
000000t:  Note on ::  Channel 0.  Note 60.  Velocity 64
000000t:  Note on ::  Channel 0.  Note 64.  Velocity 64
000002t:  Note off ::  Channel 0.  Note 57.  Velocity 64
000000t:  Note off ::  Channel 0.  Note 64.  Velocity 64
000000t:  Note off ::  Channel 0.  Note 60.  Velocity 64
000002t:  Note on ::  Channel 0.  Note 64.  Velocity 64
000000t:  Note on ::  Channel 0.  Note 57.  Velocity 64
000000t:  Note on ::  Channel 0.  Note 60.  Velocity 64
000002t:  Note off ::  Channel 0.  Note 57.  Velocity 64
000000t:  Note off ::  Channel 0.  Note 64.  Velocity 64
000000t:  Note off ::  Channel 0.  Note 60.  Velocity 64
000002t:  Note on ::  Channel 0.  Note 67.  Velocity 64
000000t:  Note on ::  Channel 0.  Note 60.  Velocity 64
000000t:  Note on ::  Channel 0.  Note 64.  Velocity 64
000002t:  Note off ::  Channel 0.  Note 60.  Velocity 64
000000t:  Note off ::  Channel 0.  Note 67.  Velocity 64
000000t:  Note off ::  Channel 0.  Note 64.  Velocity 64
000002t:  Note on ::  Channel 0.  Note 60.  Velocity 64
000000t:  Note on ::  Channel 0.  Note 64.  Velocity 64
000000t:  Note on ::  Channel 0.  Note 67.  Velocity 64
000002t:  Note off ::  Channel 0.  Note 64.  Velocity 64
000000t:  Note off ::  Channel 0.  Note 67.  Velocity 64
000000t:  Note off ::  Channel 0.  Note 60.  Velocity 64
000002t:  Note on ::  Channel 0.  Note 62.  Velocity 64
000000t:  Note on ::  Channel 0.  Note 69.  Velocity 64
000000t:  Note on ::  Channel 0.  Note 66.  Velocity 64
000004t:  Note off ::  Channel 0.  Note 66.  Velocity 64
000000t:  Note off ::  Channel 0.  Note 62.  Velocity 64
000000t:  Note off ::  Channel 0.  Note 69.  Velocity 64
000000t:  Note on ::  Channel 0.  Note 74.  Velocity 64
000000t:  Note on ::  Channel 0.  Note 86.  Velocity 64
000001t:  Note off ::  Channel 0.  Note 74.  Velocity 64
000000t:  Note off ::  Channel 0.  Note 86.  Velocity 64
000000t:  Note on ::  Channel 0.  Note 86.  Velocity 64
000000t:  Note on ::  Channel 0.  Note 74.  Velocity 64
000001t:  Note on ::  Channel 0.  Note 74.  Velocity 64
000000t:  Note on ::  Channel 0.  Note 86.  Velocity 64
000000t:  Note off ::  Channel 0.  Note 86.  Velocity 64
000000t:  Note off ::  Channel 0.  Note 74.  Velocity 64
000001t:  Note on ::  Channel 0.  Note 72.  Velocity 64
000000t:  Note on ::  Channel 0.  Note 84.  Velocity 64
000000t:  Note off ::  Channel 0.  Note 86.  Velocity 64
000000t:  Note off ::  Channel 0.  Note 74.  Velocity 64
000001t:  Note on ::  Channel 0.  Note 69.  Velocity 64
000000t:  Note on ::  Channel 0.  Note 81.  Velocity 64
000000t:  Note off ::  Channel 0.  Note 84.  Velocity 64
000000t:  Note off ::  Channel 0.  Note 72.  Velocity 64
000001t:  Note on ::  Channel 0.  Note 79.  Velocity 64
000000t:  Note on ::  Channel 0.  Note 67.  Velocity 64
000000t:  Note off ::  Channel 0.  Note 81.  Velocity 64
000000t:  Note off ::  Channel 0.  Note 69.  Velocity 64
000001t:  Note off ::  Channel 0.  Note 67.  Velocity 64
000000t:  Note off ::  Channel 0.  Note 79.  Velocity 64
000004t:  Note on ::  Channel 0.  Note 67.  Velocity 64
000000t:  Note on ::  Channel 0.  Note 79.  Velocity 64
000002t:  Note off ::  Channel 0.  Note 67.  Velocity 64
000000t:  Note off ::  Channel 0.  Note 79.  Velocity 64
000000t:  Note on ::  Channel 0.  Note 62.  Velocity 64
000000t:  Note on ::  Channel 0.  Note 66.  Velocity 64
000000t:  Note on ::  Channel 0.  Note 69.  Velocity 64
000002t:  Note off ::  Channel 0.  Note 62.  Velocity 64
000000t:  Note off ::  Channel 0.  Note 66.  Velocity 64
000000t:  Note off ::  Channel 0.  Note 69.  Velocity 64
000002t:  Note on ::  Channel 0.  Note 62.  Velocity 64
000000t:  Note on ::  Channel 0.  Note 69.  Velocity 64
000000t:  Note on ::  Channel 0.  Note 65.  Velocity 64
000002t:  Note off ::  Channel 0.  Note 65.  Velocity 64
000000t:  Note off ::  Channel 0.  Note 62.  Velocity 64
000000t:  Note off ::  Channel 0.  Note 69.  Velocity 64
000002t:  Note on ::  Channel 0.  Note 74.  Velocity 64
000000t:  Note on ::  Channel 0.  Note 67.  Velocity 64
000000t:  Note on ::  Channel 0.  Note 70.  Velocity 64
000002t:  Note off ::  Channel 0.  Note 67.  Velocity 64
000000t:  Note off ::  Channel 0.  Note 70.  Velocity 64
000000t:  Note off ::  Channel 0.  Note 74.  Velocity 64
000002t:  Note on ::  Channel 0.  Note 67.  Velocity 64
000000t:  Note on ::  Channel 0.  Note 70.  Velocity 64
000000t:  Note on ::  Channel 0.  Note 74.  Velocity 64
000002t:  Note off ::  Channel 0.  Note 70.  Velocity 64
000000t:  Note off ::  Channel 0.  Note 74.  Velocity 64
000000t:  Note off ::  Channel 0.  Note 67.  Velocity 64
000002t:  Note on ::  Channel 0.  Note 72.  Velocity 64
000000t:  Note on ::  Channel 0.  Note 79.  Velocity 64
000000t:  Note on ::  Channel 0.  Note 76.  Velocity 64
000002t:  Note off ::  Channel 0.  Note 76.  Velocity 64
000000t:  Note off ::  Channel 0.  Note 72.  Velocity 64
000000t:  Note off ::  Channel 0.  Note 79.  Velocity 64
000002t:  Note on ::  Channel 0.  Note 79.  Velocity 64
000000t:  Note on ::  Channel 0.  Note 76.  Velocity 64
000000t:  Note on ::  Channel 0.  Note 72.  Velocity 64
000002t:  Note off ::  Channel 0.  Note 76.  Velocity 64
000000t:  Note off ::  Channel 0.  Note 79.  Velocity 64
000000t:  Note off ::  Channel 0.  Note 72.  Velocity 64
000002t:  Note on ::  Channel 0.  Note 69.  Velocity 64
000000t:  Note on ::  Channel 0.  Note 72.  Velocity 64
000000t:  Note on ::  Channel 0.  Note 77.  Velocity 64
000002t:  Note off ::  Channel 0.  Note 72.  Velocity 64
000000t:  Note off ::  Channel 0.  Note 69.  Velocity 64
000000t:  Note off ::  Channel 0.  Note 77.  Velocity 64
000002t:  Note on ::  Channel 0.  Note 69.  Velocity 64
000000t:  Note on ::  Channel 0.  Note 72.  Velocity 64
000000t:  Note on ::  Channel 0.  Note 77.  Velocity 64
000002t:  Note off ::  Channel 0.  Note 69.  Velocity 64
000000t:  Note off ::  Channel 0.  Note 72.  Velocity 64
000000t:  Note off ::  Channel 0.  Note 77.  Velocity 64
000000t:  Meta-event type $2f (End-track event) of length 0
Sigma t = 302

Track chunk of 599 bytes
000000t:  Program (patch) change ::  Channel 0.  Patch 1 (Bright Acoustic)
000000t:  Meta-event type $58 (Time signature) of length 4
	  ____
000000t:  Note on ::  Channel 0.  Note 57.  Velocity 64
000000t:  Note on ::  Channel 0.  Note 45.  Velocity 64
000016t:  Note off ::  Channel 0.  Note 45.  Velocity 64
000000t:  Note off ::  Channel 0.  Note 57.  Velocity 64
000000t:  Note on ::  Channel 0.  Note 52.  Velocity 64
000000t:  Note on ::  Channel 0.  Note 45.  Velocity 64
000016t:  Note off ::  Channel 0.  Note 52.  Velocity 64
000000t:  Note off ::  Channel 0.  Note 45.  Velocity 64
000000t:  Note on ::  Channel 0.  Note 41.  Velocity 64
000000t:  Note on ::  Channel 0.  Note 48.  Velocity 64
000016t:  Note on ::  Channel 0.  Note 43.  Velocity 64
000000t:  Note on ::  Channel 0.  Note 50.  Velocity 64
000000t:  Note off ::  Channel 0.  Note 48.  Velocity 64
000000t:  Note off ::  Channel 0.  Note 41.  Velocity 64
000016t:  Note on ::  Channel 0.  Note 45.  Velocity 64
000000t:  Note on ::  Channel 0.  Note 52.  Velocity 64
000000t:  Note off ::  Channel 0.  Note 43.  Velocity 64
000000t:  Note off ::  Channel 0.  Note 50.  Velocity 64
000016t:  Note off ::  Channel 0.  Note 52.  Velocity 64
000000t:  Note off ::  Channel 0.  Note 45.  Velocity 64
000000t:  Note on ::  Channel 0.  Note 53.  Velocity 64
000002t:  Note off ::  Channel 0.  Note 53.  Velocity 64
000000t:  Note on ::  Channel 0.  Note 57.  Velocity 64
000002t:  Note off ::  Channel 0.  Note 57.  Velocity 64
000012t:  Note on ::  Channel 0.  Note 55.  Velocity 64
000002t:  Note on ::  Channel 0.  Note 64.  Velocity 64
000000t:  Note off ::  Channel 0.  Note 55.  Velocity 64
000002t:  Note off ::  Channel 0.  Note 64.  Velocity 64
000012t:  Note on ::  Channel 0.  Note 48.  Velocity 64
000000t:  Note on ::  Channel 0.  Note 55.  Velocity 64
000004t:  Note off ::  Channel 0.  Note 55.  Velocity 64
000000t:  Note off ::  Channel 0.  Note 48.  Velocity 64
000000t:  Note on ::  Channel 0.  Note 47.  Velocity 64
000000t:  Note on ::  Channel 0.  Note 55.  Velocity 64
000004t:  Note off ::  Channel 0.  Note 47.  Velocity 64
000000t:  Note off ::  Channel 0.  Note 55.  Velocity 64
000008t:  Note on ::  Channel 0.  Note 45.  Velocity 64
000000t:  Note on ::  Channel 0.  Note 52.  Velocity 64
000004t:  Note off ::  Channel 0.  Note 52.  Velocity 64
000000t:  Note off ::  Channel 0.  Note 45.  Velocity 64
000000t:  Note on ::  Channel 0.  Note 43.  Velocity 64
000000t:  Note on ::  Channel 0.  Note 52.  Velocity 64
000004t:  Note off ::  Channel 0.  Note 43.  Velocity 64
000000t:  Note off ::  Channel 0.  Note 52.  Velocity 64
000008t:  Note on ::  Channel 0.  Note 60.  Velocity 64
000000t:  Note on ::  Channel 0.  Note 53.  Velocity 64
000004t:  Note on ::  Channel 0.  Note 41.  Velocity 64
000000t:  Note off ::  Channel 0.  Note 60.  Velocity 64
000000t:  Note off ::  Channel 0.  Note 53.  Velocity 64
000002t:  Note on ::  Channel 0.  Note 48.  Velocity 64
000000t:  Note off ::  Channel 0.  Note 41.  Velocity 64
000002t:  Note off ::  Channel 0.  Note 48.  Velocity 64
000002t:  Note on ::  Channel 0.  Note 50.  Velocity 64
000000t:  Note on ::  Channel 0.  Note 43.  Velocity 64
000004t:  Note off ::  Channel 0.  Note 50.  Velocity 64
000000t:  Note off ::  Channel 0.  Note 43.  Velocity 64
000002t:  Note on ::  Channel 0.  Note 40.  Velocity 64
000000t:  Note on ::  Channel 0.  Note 50.  Velocity 64
000004t:  Note on ::  Channel 0.  Note 40.  Velocity 64
000000t:  Note off ::  Channel 0.  Note 50.  Velocity 64
000000t:  Note off ::  Channel 0.  Note 40.  Velocity 64
000002t:  Note on ::  Channel 0.  Note 47.  Velocity 64
000000t:  Note off ::  Channel 0.  Note 40.  Velocity 64
000002t:  Note off ::  Channel 0.  Note 47.  Velocity 64
000008t:  Note on ::  Channel 0.  Note 43.  Velocity 64
000002t:  Note off ::  Channel 0.  Note 43.  Velocity 64
000000t:  Note on ::  Channel 0.  Note 45.  Velocity 64
000002t:  Note on ::  Channel 0.  Note 48.  Velocity 64
000000t:  Note off ::  Channel 0.  Note 45.  Velocity 64
000002t:  Note off ::  Channel 0.  Note 48.  Velocity 64
000002t:  Note on ::  Channel 0.  Note 33.  Velocity 64
000002t:  Note on ::  Channel 0.  Note 45.  Velocity 64
000000t:  Note off ::  Channel 0.  Note 33.  Velocity 64
000002t:  Note off ::  Channel 0.  Note 45.  Velocity 64
000004t:  Note on ::  Channel 0.  Note 45.  Velocity 64
000002t:  Note off ::  Channel 0.  Note 45.  Velocity 64
000002t:  Note on ::  Channel 0.  Note 45.  Velocity 64
000002t:  Note off ::  Channel 0.  Note 45.  Velocity 64
000002t:  Note on ::  Channel 0.  Note 45.  Velocity 64
000002t:  Note on ::  Channel 0.  Note 31.  Velocity 64
000000t:  Note off ::  Channel 0.  Note 45.  Velocity 64
000002t:  Note on ::  Channel 0.  Note 43.  Velocity 64
000000t:  Note off ::  Channel 0.  Note 31.  Velocity 64
000002t:  Note off ::  Channel 0.  Note 43.  Velocity 64
000004t:  Note on ::  Channel 0.  Note 43.  Velocity 64
000002t:  Note off ::  Channel 0.  Note 43.  Velocity 64
000002t:  Note on ::  Channel 0.  Note 43.  Velocity 64
000002t:  Note off ::  Channel 0.  Note 43.  Velocity 64
000002t:  Note on ::  Channel 0.  Note 43.  Velocity 64
000002t:  Note off ::  Channel 0.  Note 43.  Velocity 64
000004t:  Note on ::  Channel 0.  Note 38.  Velocity 64
000002t:  Note on ::  Channel 0.  Note 48.  Velocity 64
000000t:  Note off ::  Channel 0.  Note 38.  Velocity 64
000002t:  Note off ::  Channel 0.  Note 48.  Velocity 64
000002t:  Note on ::  Channel 0.  Note 48.  Velocity 64
000002t:  Note on ::  Channel 0.  Note 36.  Velocity 64
000000t:  Note off ::  Channel 0.  Note 48.  Velocity 64
000002t:  Note on ::  Channel 0.  Note 47.  Velocity 64
000000t:  Note off ::  Channel 0.  Note 36.  Velocity 64
000002t:  Note off ::  Channel 0.  Note 47.  Velocity 64
000002t:  Note on ::  Channel 0.  Note 47.  Velocity 64
000002t:  Note on ::  Channel 0.  Note 33.  Velocity 64
000000t:  Note off ::  Channel 0.  Note 47.  Velocity 64
000002t:  Note on ::  Channel 0.  Note 45.  Velocity 64
000000t:  Note off ::  Channel 0.  Note 33.  Velocity 64
000002t:  Note off ::  Channel 0.  Note 45.  Velocity 64
000002t:  Note on ::  Channel 0.  Note 45.  Velocity 64
000002t:  Note on ::  Channel 0.  Note 31.  Velocity 64
000000t:  Note off ::  Channel 0.  Note 45.  Velocity 64
000002t:  Note off ::  Channel 0.  Note 31.  Velocity 64
000000t:  Note on ::  Channel 0.  Note 43.  Velocity 64
000002t:  Note off ::  Channel 0.  Note 43.  Velocity 64
000002t:  Note on ::  Channel 0.  Note 43.  Velocity 64
000002t:  Note on ::  Channel 0.  Note 42.  Velocity 64
000000t:  Note on ::  Channel 0.  Note 34.  Velocity 64
000000t:  Note off ::  Channel 0.  Note 43.  Velocity 64
000012t:  Note on ::  Channel 0.  Note 52.  Velocity 64
000000t:  Note off ::  Channel 0.  Note 34.  Velocity 64
000000t:  Note off ::  Channel 0.  Note 42.  Velocity 64
000002t:  Note on ::  Channel 0.  Note 64.  Velocity 64
000000t:  Note off ::  Channel 0.  Note 52.  Velocity 64
000002t:  Note on ::  Channel 0.  Note 50.  Velocity 64
000000t:  Note off ::  Channel 0.  Note 64.  Velocity 64
000002t:  Note on ::  Channel 0.  Note 57.  Velocity 64
000000t:  Note off ::  Channel 0.  Note 50.  Velocity 64
000002t:  Note off ::  Channel 0.  Note 57.  Velocity 64
000002t:  Note on ::  Channel 0.  Note 57.  Velocity 64
000002t:  Note on ::  Channel 0.  Note 55.  Velocity 64
000000t:  Note off ::  Channel 0.  Note 57.  Velocity 64
000002t:  Note off ::  Channel 0.  Note 55.  Velocity 64
000000t:  Note on ::  Channel 0.  Note 62.  Velocity 64
000002t:  Note off ::  Channel 0.  Note 62.  Velocity 64
000002t:  Note on ::  Channel 0.  Note 62.  Velocity 64
000002t:  Note on ::  Channel 0.  Note 64.  Velocity 64
000000t:  Note off ::  Channel 0.  Note 62.  Velocity 64
000002t:  Note on ::  Channel 0.  Note 71.  Velocity 64
000000t:  Note off ::  Channel 0.  Note 64.  Velocity 64
000002t:  Note off ::  Channel 0.  Note 71.  Velocity 64
000002t:  Note on ::  Channel 0.  Note 71.  Velocity 64
000002t:  Note on ::  Channel 0.  Note 53.  Velocity 64
000000t:  Note off ::  Channel 0.  Note 71.  Velocity 64
000002t:  Note on ::  Channel 0.  Note 60.  Velocity 64
000000t:  Note off ::  Channel 0.  Note 53.  Velocity 64
000002t:  Note off ::  Channel 0.  Note 60.  Velocity 64
000002t:  Note on ::  Channel 0.  Note 60.  Velocity 64
000002t:  Note off ::  Channel 0.  Note 60.  Velocity 64
000000t:  Meta-event type $2f (End-track event) of length 0
Sigma t = 304
End.
