File: ./Tim Minchin - Not Perfect.musescore.midi
Format: 1
Tracks: 2
Ticks per quarter note: 480

Track chunk of 8686 bytes
000000t:  Meta-event type $58 (Time signature) of length 4
	  ____
000000t:  Meta-event type $59 (Key signature) of length 2
	  __
000000t:  Meta-event type $51 (Set tempo) of length 3
	  _уз
000000t:  Control change ::  Channel 0.  Controller 121.  Value: 0
000000t:  Program (patch) change ::  Channel 0.  Patch 0 (Acoustic Grand)
000000t:  Control change ::  Channel 0.  Controller 7.  Value: 100
000000t:  Control change ::  Channel 0.  Controller 10.  Value: 64
000000t:  Control change ::  Channel 0.  Controller 91.  Value: 0
000000t:  Control change ::  Channel 0.  Controller 93.  Value: 0
000000t:  Meta-event type $21 (?) of length 1
	  _
000000t:  Note on ::  Channel 0.  Note 57.  Velocity 80
000000t:  Note on ::  Channel 0.  Note 61.  Velocity 80
000000t:  Note on ::  Channel 0.  Note 64.  Velocity 80
000227t:  Note on ::  Channel 0.  Note 57.  Velocity 0
000000t:  Note on ::  Channel 0.  Note 61.  Velocity 0
000000t:  Note on ::  Channel 0.  Note 64.  Velocity 0
000013t:  Note on ::  Channel 0.  Note 52.  Velocity 80
000227t:  Note on ::  Channel 0.  Note 52.  Velocity 0
000013t:  Note on ::  Channel 0.  Note 57.  Velocity 80
000000t:  Note on ::  Channel 0.  Note 61.  Velocity 80
000000t:  Note on ::  Channel 0.  Note 64.  Velocity 80
000227t:  Note on ::  Channel 0.  Note 57.  Velocity 0
000000t:  Note on ::  Channel 0.  Note 61.  Velocity 0
000000t:  Note on ::  Channel 0.  Note 64.  Velocity 0
000013t:  Note on ::  Channel 0.  Note 52.  Velocity 80
000227t:  Note on ::  Channel 0.  Note 52.  Velocity 0
000013t:  Note on ::  Channel 0.  Note 57.  Velocity 80
000000t:  Note on ::  Channel 0.  Note 61.  Velocity 80
000000t:  Note on ::  Channel 0.  Note 64.  Velocity 80
000227t:  Note on ::  Channel 0.  Note 57.  Velocity 0
000000t:  Note on ::  Channel 0.  Note 61.  Velocity 0
000000t:  Note on ::  Channel 0.  Note 64.  Velocity 0
000013t:  Note on ::  Channel 0.  Note 52.  Velocity 80
000227t:  Note on ::  Channel 0.  Note 52.  Velocity 0
000013t:  Note on ::  Channel 0.  Note 57.  Velocity 80
000000t:  Note on ::  Channel 0.  Note 61.  Velocity 80
000000t:  Note on ::  Channel 0.  Note 64.  Velocity 80
000455t:  Note on ::  Channel 0.  Note 57.  Velocity 0
000000t:  Note on ::  Channel 0.  Note 61.  Velocity 0
000000t:  Note on ::  Channel 0.  Note 64.  Velocity 0
000025t:  Note on ::  Channel 0.  Note 57.  Velocity 80
000000t:  Note on ::  Channel 0.  Note 61.  Velocity 80
000000t:  Note on ::  Channel 0.  Note 64.  Velocity 80
000227t:  Note on ::  Channel 0.  Note 57.  Velocity 0
000000t:  Note on ::  Channel 0.  Note 61.  Velocity 0
000000t:  Note on ::  Channel 0.  Note 64.  Velocity 0
000013t:  Note on ::  Channel 0.  Note 52.  Velocity 80
000227t:  Note on ::  Channel 0.  Note 52.  Velocity 0
000013t:  Note on ::  Channel 0.  Note 57.  Velocity 80
000000t:  Note on ::  Channel 0.  Note 61.  Velocity 80
000000t:  Note on ::  Channel 0.  Note 64.  Velocity 80
000227t:  Note on ::  Channel 0.  Note 57.  Velocity 0
000000t:  Note on ::  Channel 0.  Note 61.  Velocity 0
000000t:  Note on ::  Channel 0.  Note 64.  Velocity 0
000013t:  Note on ::  Channel 0.  Note 52.  Velocity 80
000227t:  Note on ::  Channel 0.  Note 52.  Velocity 0
000013t:  Note on ::  Channel 0.  Note 57.  Velocity 80
000000t:  Note on ::  Channel 0.  Note 61.  Velocity 80
000000t:  Note on ::  Channel 0.  Note 64.  Velocity 80
000227t:  Note on ::  Channel 0.  Note 57.  Velocity 0
000000t:  Note on ::  Channel 0.  Note 61.  Velocity 0
000000t:  Note on ::  Channel 0.  Note 64.  Velocity 0
000733t:  Note on ::  Channel 0.  Note 57.  Velocity 80
000000t:  Note on ::  Channel 0.  Note 61.  Velocity 80
000000t:  Note on ::  Channel 0.  Note 64.  Velocity 80
000227t:  Note on ::  Channel 0.  Note 57.  Velocity 0
000000t:  Note on ::  Channel 0.  Note 61.  Velocity 0
000000t:  Note on ::  Channel 0.  Note 64.  Velocity 0
000013t:  Note on ::  Channel 0.  Note 52.  Velocity 80
000227t:  Note on ::  Channel 0.  Note 52.  Velocity 0
000013t:  Note on ::  Channel 0.  Note 57.  Velocity 80
000000t:  Note on ::  Channel 0.  Note 61.  Velocity 80
000000t:  Note on ::  Channel 0.  Note 64.  Velocity 80
000227t:  Note on ::  Channel 0.  Note 57.  Velocity 0
000000t:  Note on ::  Channel 0.  Note 61.  Velocity 0
000000t:  Note on ::  Channel 0.  Note 64.  Velocity 0
000013t:  Note on ::  Channel 0.  Note 52.  Velocity 80
000227t:  Note on ::  Channel 0.  Note 52.  Velocity 0
000013t:  Note on ::  Channel 0.  Note 57.  Velocity 80
000000t:  Note on ::  Channel 0.  Note 61.  Velocity 80
000000t:  Note on ::  Channel 0.  Note 64.  Velocity 80
000227t:  Note on ::  Channel 0.  Note 57.  Velocity 0
000000t:  Note on ::  Channel 0.  Note 61.  Velocity 0
000000t:  Note on ::  Channel 0.  Note 64.  Velocity 0
000013t:  Note on ::  Channel 0.  Note 52.  Velocity 80
000227t:  Note on ::  Channel 0.  Note 52.  Velocity 0
000013t:  Note on ::  Channel 0.  Note 57.  Velocity 80
000000t:  Note on ::  Channel 0.  Note 61.  Velocity 80
000000t:  Note on ::  Channel 0.  Note 64.  Velocity 80
000455t:  Note on ::  Channel 0.  Note 57.  Velocity 0
000000t:  Note on ::  Channel 0.  Note 61.  Velocity 0
000000t:  Note on ::  Channel 0.  Note 64.  Velocity 0
000025t:  Note on ::  Channel 0.  Note 56.  Velocity 80
000000t:  Note on ::  Channel 0.  Note 59.  Velocity 80
000000t:  Note on ::  Channel 0.  Note 64.  Velocity 80
000455t:  Note on ::  Channel 0.  Note 56.  Velocity 0
000000t:  Note on ::  Channel 0.  Note 59.  Velocity 0
000000t:  Note on ::  Channel 0.  Note 64.  Velocity 0
000025t:  Note on ::  Channel 0.  Note 56.  Velocity 80
000000t:  Note on ::  Channel 0.  Note 59.  Velocity 80
000000t:  Note on ::  Channel 0.  Note 64.  Velocity 80
000227t:  Note on ::  Channel 0.  Note 56.  Velocity 0
000000t:  Note on ::  Channel 0.  Note 59.  Velocity 0
000000t:  Note on ::  Channel 0.  Note 64.  Velocity 0
000013t:  Note on ::  Channel 0.  Note 52.  Velocity 80
000227t:  Note on ::  Channel 0.  Note 52.  Velocity 0
000013t:  Note on ::  Channel 0.  Note 57.  Velocity 80
000000t:  Note on ::  Channel 0.  Note 68.  Velocity 80
000227t:  Note on ::  Channel 0.  Note 57.  Velocity 0
000000t:  Note on ::  Channel 0.  Note 68.  Velocity 0
000013t:  Note on ::  Channel 0.  Note 52.  Velocity 80
000227t:  Note on ::  Channel 0.  Note 52.  Velocity 0
000013t:  Note on ::  Channel 0.  Note 56.  Velocity 80
000000t:  Note on ::  Channel 0.  Note 59.  Velocity 80
000000t:  Note on ::  Channel 0.  Note 68.  Velocity 80
000227t:  Note on ::  Channel 0.  Note 56.  Velocity 0
000000t:  Note on ::  Channel 0.  Note 59.  Velocity 0
000000t:  Note on ::  Channel 0.  Note 68.  Velocity 0
000013t:  Note on ::  Channel 0.  Note 52.  Velocity 80
000227t:  Note on ::  Channel 0.  Note 52.  Velocity 0
000013t:  Note on ::  Channel 0.  Note 57.  Velocity 80
000000t:  Note on ::  Channel 0.  Note 62.  Velocity 80
000227t:  Note on ::  Channel 0.  Note 57.  Velocity 0
000000t:  Note on ::  Channel 0.  Note 62.  Velocity 0
000013t:  Note on ::  Channel 0.  Note 54.  Velocity 80
000227t:  Note on ::  Channel 0.  Note 54.  Velocity 0
000013t:  Note on ::  Channel 0.  Note 57.  Velocity 80
000000t:  Note on ::  Channel 0.  Note 62.  Velocity 80
000227t:  Note on ::  Channel 0.  Note 57.  Velocity 0
000000t:  Note on ::  Channel 0.  Note 62.  Velocity 0
000013t:  Note on ::  Channel 0.  Note 54.  Velocity 80
000227t:  Note on ::  Channel 0.  Note 54.  Velocity 0
000013t:  Note on ::  Channel 0.  Note 57.  Velocity 80
000000t:  Note on ::  Channel 0.  Note 62.  Velocity 80
000227t:  Note on ::  Channel 0.  Note 57.  Velocity 0
000000t:  Note on ::  Channel 0.  Note 62.  Velocity 0
000013t:  Note on ::  Channel 0.  Note 54.  Velocity 80
000227t:  Note on ::  Channel 0.  Note 54.  Velocity 0
000013t:  Note on ::  Channel 0.  Note 57.  Velocity 80
000000t:  Note on ::  Channel 0.  Note 62.  Velocity 80
000227t:  Note on ::  Channel 0.  Note 57.  Velocity 0
000000t:  Note on ::  Channel 0.  Note 62.  Velocity 0
000013t:  Note on ::  Channel 0.  Note 54.  Velocity 80
000227t:  Note on ::  Channel 0.  Note 54.  Velocity 0
000013t:  Note on ::  Channel 0.  Note 57.  Velocity 80
000000t:  Note on ::  Channel 0.  Note 62.  Velocity 80
000227t:  Note on ::  Channel 0.  Note 57.  Velocity 0
000000t:  Note on ::  Channel 0.  Note 62.  Velocity 0
000013t:  Note on ::  Channel 0.  Note 53.  Velocity 80
000227t:  Note on ::  Channel 0.  Note 53.  Velocity 0
000013t:  Note on ::  Channel 0.  Note 57.  Velocity 80
000000t:  Note on ::  Channel 0.  Note 62.  Velocity 80
000227t:  Note on ::  Channel 0.  Note 57.  Velocity 0
000000t:  Note on ::  Channel 0.  Note 62.  Velocity 0
000013t:  Note on ::  Channel 0.  Note 53.  Velocity 80
000227t:  Note on ::  Channel 0.  Note 53.  Velocity 0
000013t:  Note on ::  Channel 0.  Note 57.  Velocity 80
000000t:  Note on ::  Channel 0.  Note 62.  Velocity 80
000227t:  Note on ::  Channel 0.  Note 57.  Velocity 0
000000t:  Note on ::  Channel 0.  Note 62.  Velocity 0
000013t:  Note on ::  Channel 0.  Note 53.  Velocity 80
000227t:  Note on ::  Channel 0.  Note 53.  Velocity 0
000013t:  Note on ::  Channel 0.  Note 53.  Velocity 80
000000t:  Note on ::  Channel 0.  Note 57.  Velocity 80
000000t:  Note on ::  Channel 0.  Note 62.  Velocity 80
000455t:  Note on ::  Channel 0.  Note 53.  Velocity 0
000000t:  Note on ::  Channel 0.  Note 57.  Velocity 0
000000t:  Note on ::  Channel 0.  Note 62.  Velocity 0
000025t:  Note on ::  Channel 0.  Note 57.  Velocity 80
000000t:  Note on ::  Channel 0.  Note 61.  Velocity 80
000000t:  Note on ::  Channel 0.  Note 64.  Velocity 80
000227t:  Note on ::  Channel 0.  Note 57.  Velocity 0
000000t:  Note on ::  Channel 0.  Note 61.  Velocity 0
000000t:  Note on ::  Channel 0.  Note 64.  Velocity 0
000013t:  Note on ::  Channel 0.  Note 52.  Velocity 80
000227t:  Note on ::  Channel 0.  Note 52.  Velocity 0
000013t:  Note on ::  Channel 0.  Note 57.  Velocity 80
000000t:  Note on ::  Channel 0.  Note 61.  Velocity 80
000000t:  Note on ::  Channel 0.  Note 64.  Velocity 80
000227t:  Note on ::  Channel 0.  Note 57.  Velocity 0
000000t:  Note on ::  Channel 0.  Note 61.  Velocity 0
000000t:  Note on ::  Channel 0.  Note 64.  Velocity 0
000013t:  Note on ::  Channel 0.  Note 52.  Velocity 80
000227t:  Note on ::  Channel 0.  Note 52.  Velocity 0
000013t:  Note on ::  Channel 0.  Note 57.  Velocity 80
000000t:  Note on ::  Channel 0.  Note 61.  Velocity 80
000000t:  Note on ::  Channel 0.  Note 64.  Velocity 80
000227t:  Note on ::  Channel 0.  Note 57.  Velocity 0
000000t:  Note on ::  Channel 0.  Note 61.  Velocity 0
000000t:  Note on ::  Channel 0.  Note 64.  Velocity 0
000013t:  Note on ::  Channel 0.  Note 52.  Velocity 80
000227t:  Note on ::  Channel 0.  Note 52.  Velocity 0
000013t:  Note on ::  Channel 0.  Note 57.  Velocity 80
000000t:  Note on ::  Channel 0.  Note 61.  Velocity 80
000000t:  Note on ::  Channel 0.  Note 64.  Velocity 80
000227t:  Note on ::  Channel 0.  Note 57.  Velocity 0
000000t:  Note on ::  Channel 0.  Note 61.  Velocity 0
000000t:  Note on ::  Channel 0.  Note 64.  Velocity 0
000013t:  Note on ::  Channel 0.  Note 52.  Velocity 80
000227t:  Note on ::  Channel 0.  Note 52.  Velocity 0
000013t:  Note on ::  Channel 0.  Note 55.  Velocity 80
000000t:  Note on ::  Channel 0.  Note 61.  Velocity 80
000000t:  Note on ::  Channel 0.  Note 64.  Velocity 80
000227t:  Note on ::  Channel 0.  Note 55.  Velocity 0
000000t:  Note on ::  Channel 0.  Note 61.  Velocity 0
000000t:  Note on ::  Channel 0.  Note 64.  Velocity 0
000013t:  Note on ::  Channel 0.  Note 52.  Velocity 80
000227t:  Note on ::  Channel 0.  Note 52.  Velocity 0
000013t:  Note on ::  Channel 0.  Note 55.  Velocity 80
000000t:  Note on ::  Channel 0.  Note 61.  Velocity 80
000000t:  Note on ::  Channel 0.  Note 64.  Velocity 80
000227t:  Note on ::  Channel 0.  Note 55.  Velocity 0
000000t:  Note on ::  Channel 0.  Note 61.  Velocity 0
000000t:  Note on ::  Channel 0.  Note 64.  Velocity 0
000013t:  Note on ::  Channel 0.  Note 52.  Velocity 80
000227t:  Note on ::  Channel 0.  Note 52.  Velocity 0
000013t:  Note on ::  Channel 0.  Note 57.  Velocity 80
000000t:  Note on ::  Channel 0.  Note 61.  Velocity 80
000000t:  Note on ::  Channel 0.  Note 64.  Velocity 80
000227t:  Note on ::  Channel 0.  Note 57.  Velocity 0
000000t:  Note on ::  Channel 0.  Note 61.  Velocity 0
000000t:  Note on ::  Channel 0.  Note 64.  Velocity 0
000013t:  Note on ::  Channel 0.  Note 52.  Velocity 80
000227t:  Note on ::  Channel 0.  Note 52.  Velocity 0
000013t:  Note on ::  Channel 0.  Note 57.  Velocity 80
000000t:  Note on ::  Channel 0.  Note 61.  Velocity 80
000000t:  Note on ::  Channel 0.  Note 64.  Velocity 80
000227t:  Note on ::  Channel 0.  Note 57.  Velocity 0
000000t:  Note on ::  Channel 0.  Note 61.  Velocity 0
000000t:  Note on ::  Channel 0.  Note 64.  Velocity 0
000013t:  Note on ::  Channel 0.  Note 52.  Velocity 80
000227t:  Note on ::  Channel 0.  Note 52.  Velocity 0
000013t:  Note on ::  Channel 0.  Note 54.  Velocity 80
000000t:  Note on ::  Channel 0.  Note 57.  Velocity 80
000000t:  Note on ::  Channel 0.  Note 62.  Velocity 80
000227t:  Note on ::  Channel 0.  Note 54.  Velocity 0
000000t:  Note on ::  Channel 0.  Note 57.  Velocity 0
000000t:  Note on ::  Channel 0.  Note 62.  Velocity 0
000013t:  Note on ::  Channel 0.  Note 50.  Velocity 80
000227t:  Note on ::  Channel 0.  Note 50.  Velocity 0
000013t:  Note on ::  Channel 0.  Note 54.  Velocity 80
000000t:  Note on ::  Channel 0.  Note 57.  Velocity 80
000000t:  Note on ::  Channel 0.  Note 62.  Velocity 80
000227t:  Note on ::  Channel 0.  Note 54.  Velocity 0
000000t:  Note on ::  Channel 0.  Note 57.  Velocity 0
000000t:  Note on ::  Channel 0.  Note 62.  Velocity 0
000013t:  Note on ::  Channel 0.  Note 50.  Velocity 80
000227t:  Note on ::  Channel 0.  Note 50.  Velocity 0
000013t:  Note on ::  Channel 0.  Note 55.  Velocity 80
000000t:  Note on ::  Channel 0.  Note 59.  Velocity 80
000000t:  Note on ::  Channel 0.  Note 62.  Velocity 80
000227t:  Note on ::  Channel 0.  Note 55.  Velocity 0
000000t:  Note on ::  Channel 0.  Note 59.  Velocity 0
000000t:  Note on ::  Channel 0.  Note 62.  Velocity 0
000013t:  Note on ::  Channel 0.  Note 50.  Velocity 80
000227t:  Note on ::  Channel 0.  Note 50.  Velocity 0
000013t:  Note on ::  Channel 0.  Note 55.  Velocity 80
000000t:  Note on ::  Channel 0.  Note 59.  Velocity 80
000000t:  Note on ::  Channel 0.  Note 62.  Velocity 80
000227t:  Note on ::  Channel 0.  Note 55.  Velocity 0
000000t:  Note on ::  Channel 0.  Note 59.  Velocity 0
000000t:  Note on ::  Channel 0.  Note 62.  Velocity 0
000013t:  Note on ::  Channel 0.  Note 50.  Velocity 80
000227t:  Note on ::  Channel 0.  Note 50.  Velocity 0
000013t:  Note on ::  Channel 0.  Note 57.  Velocity 80
000000t:  Note on ::  Channel 0.  Note 61.  Velocity 80
000000t:  Note on ::  Channel 0.  Note 64.  Velocity 80
000227t:  Note on ::  Channel 0.  Note 57.  Velocity 0
000000t:  Note on ::  Channel 0.  Note 61.  Velocity 0
000000t:  Note on ::  Channel 0.  Note 64.  Velocity 0
000013t:  Note on ::  Channel 0.  Note 52.  Velocity 80
000227t:  Note on ::  Channel 0.  Note 52.  Velocity 0
000013t:  Note on ::  Channel 0.  Note 57.  Velocity 80
000000t:  Note on ::  Channel 0.  Note 61.  Velocity 80
000000t:  Note on ::  Channel 0.  Note 64.  Velocity 80
000227t:  Note on ::  Channel 0.  Note 57.  Velocity 0
000000t:  Note on ::  Channel 0.  Note 61.  Velocity 0
000000t:  Note on ::  Channel 0.  Note 64.  Velocity 0
000013t:  Note on ::  Channel 0.  Note 52.  Velocity 80
000227t:  Note on ::  Channel 0.  Note 52.  Velocity 0
000013t:  Note on ::  Channel 0.  Note 57.  Velocity 80
000000t:  Note on ::  Channel 0.  Note 59.  Velocity 80
000000t:  Note on ::  Channel 0.  Note 64.  Velocity 80
000227t:  Note on ::  Channel 0.  Note 57.  Velocity 0
000000t:  Note on ::  Channel 0.  Note 59.  Velocity 0
000000t:  Note on ::  Channel 0.  Note 64.  Velocity 0
000013t:  Note on ::  Channel 0.  Note 52.  Velocity 80
000227t:  Note on ::  Channel 0.  Note 52.  Velocity 0
000013t:  Note on ::  Channel 0.  Note 57.  Velocity 80
000000t:  Note on ::  Channel 0.  Note 61.  Velocity 80
000000t:  Note on ::  Channel 0.  Note 64.  Velocity 80
000227t:  Note on ::  Channel 0.  Note 57.  Velocity 0
000000t:  Note on ::  Channel 0.  Note 61.  Velocity 0
000000t:  Note on ::  Channel 0.  Note 64.  Velocity 0
000013t:  Note on ::  Channel 0.  Note 52.  Velocity 80
000227t:  Note on ::  Channel 0.  Note 52.  Velocity 0
000013t:  Note on ::  Channel 0.  Note 59.  Velocity 80
000000t:  Note on ::  Channel 0.  Note 61.  Velocity 80
000000t:  Note on ::  Channel 0.  Note 66.  Velocity 80
000227t:  Note on ::  Channel 0.  Note 59.  Velocity 0
000000t:  Note on ::  Channel 0.  Note 61.  Velocity 0
000000t:  Note on ::  Channel 0.  Note 66.  Velocity 0
000013t:  Note on ::  Channel 0.  Note 54.  Velocity 80
000227t:  Note on ::  Channel 0.  Note 54.  Velocity 0
000013t:  Note on ::  Channel 0.  Note 59.  Velocity 80
000000t:  Note on ::  Channel 0.  Note 61.  Velocity 80
000000t:  Note on ::  Channel 0.  Note 66.  Velocity 80
000227t:  Note on ::  Channel 0.  Note 59.  Velocity 0
000000t:  Note on ::  Channel 0.  Note 61.  Velocity 0
000000t:  Note on ::  Channel 0.  Note 66.  Velocity 0
000013t:  Note on ::  Channel 0.  Note 54.  Velocity 80
000227t:  Note on ::  Channel 0.  Note 54.  Velocity 0
000013t:  Note on ::  Channel 0.  Note 57.  Velocity 80
000000t:  Note on ::  Channel 0.  Note 61.  Velocity 80
000000t:  Note on ::  Channel 0.  Note 66.  Velocity 80
000455t:  Note on ::  Channel 0.  Note 57.  Velocity 0
000000t:  Note on ::  Channel 0.  Note 61.  Velocity 0
000000t:  Note on ::  Channel 0.  Note 66.  Velocity 0
000025t:  Note on ::  Channel 0.  Note 57.  Velocity 80
000000t:  Note on ::  Channel 0.  Note 61.  Velocity 80
000000t:  Note on ::  Channel 0.  Note 66.  Velocity 80
000455t:  Note on ::  Channel 0.  Note 57.  Velocity 0
000000t:  Note on ::  Channel 0.  Note 61.  Velocity 0
000000t:  Note on ::  Channel 0.  Note 66.  Velocity 0
000025t:  Note on ::  Channel 0.  Note 59.  Velocity 80
000000t:  Note on ::  Channel 0.  Note 64.  Velocity 80
000000t:  Note on ::  Channel 0.  Note 66.  Velocity 80
000455t:  Note on ::  Channel 0.  Note 59.  Velocity 0
000000t:  Note on ::  Channel 0.  Note 64.  Velocity 0
000000t:  Note on ::  Channel 0.  Note 66.  Velocity 0
000025t:  Note on ::  Channel 0.  Note 59.  Velocity 80
000000t:  Note on ::  Channel 0.  Note 64.  Velocity 80
000000t:  Note on ::  Channel 0.  Note 66.  Velocity 80
000455t:  Note on ::  Channel 0.  Note 59.  Velocity 0
000000t:  Note on ::  Channel 0.  Note 64.  Velocity 0
000000t:  Note on ::  Channel 0.  Note 66.  Velocity 0
000025t:  Note on ::  Channel 0.  Note 59.  Velocity 80
000000t:  Note on ::  Channel 0.  Note 63.  Velocity 80
000000t:  Note on ::  Channel 0.  Note 66.  Velocity 80
000455t:  Note on ::  Channel 0.  Note 59.  Velocity 0
000000t:  Note on ::  Channel 0.  Note 63.  Velocity 0
000000t:  Note on ::  Channel 0.  Note 66.  Velocity 0
000025t:  Note on ::  Channel 0.  Note 59.  Velocity 80
000000t:  Note on ::  Channel 0.  Note 63.  Velocity 80
000000t:  Note on ::  Channel 0.  Note 66.  Velocity 80
000455t:  Note on ::  Channel 0.  Note 59.  Velocity 0
000000t:  Note on ::  Channel 0.  Note 63.  Velocity 0
000000t:  Note on ::  Channel 0.  Note 66.  Velocity 0
000025t:  Note on ::  Channel 0.  Note 57.  Velocity 80
000000t:  Note on ::  Channel 0.  Note 62.  Velocity 80
000000t:  Note on ::  Channel 0.  Note 66.  Velocity 80
000000t:  Note on ::  Channel 0.  Note 69.  Velocity 80
000455t:  Note on ::  Channel 0.  Note 57.  Velocity 0
000000t:  Note on ::  Channel 0.  Note 62.  Velocity 0
000000t:  Note on ::  Channel 0.  Note 66.  Velocity 0
000000t:  Note on ::  Channel 0.  Note 69.  Velocity 0
000025t:  Note on ::  Channel 0.  Note 57.  Velocity 80
000000t:  Note on ::  Channel 0.  Note 62.  Velocity 80
000000t:  Note on ::  Channel 0.  Note 66.  Velocity 80
000000t:  Note on ::  Channel 0.  Note 69.  Velocity 80
000455t:  Note on ::  Channel 0.  Note 57.  Velocity 0
000000t:  Note on ::  Channel 0.  Note 62.  Velocity 0
000000t:  Note on ::  Channel 0.  Note 66.  Velocity 0
000000t:  Note on ::  Channel 0.  Note 69.  Velocity 0
000025t:  Note on ::  Channel 0.  Note 57.  Velocity 80
000000t:  Note on ::  Channel 0.  Note 61.  Velocity 80
000000t:  Note on ::  Channel 0.  Note 64.  Velocity 80
000000t:  Note on ::  Channel 0.  Note 69.  Velocity 80
000455t:  Note on ::  Channel 0.  Note 57.  Velocity 0
000000t:  Note on ::  Channel 0.  Note 61.  Velocity 0
000000t:  Note on ::  Channel 0.  Note 64.  Velocity 0
000000t:  Note on ::  Channel 0.  Note 69.  Velocity 0
000025t:  Note on ::  Channel 0.  Note 57.  Velocity 80
000000t:  Note on ::  Channel 0.  Note 61.  Velocity 80
000000t:  Note on ::  Channel 0.  Note 64.  Velocity 80
000000t:  Note on ::  Channel 0.  Note 69.  Velocity 80
000455t:  Note on ::  Channel 0.  Note 57.  Velocity 0
000000t:  Note on ::  Channel 0.  Note 61.  Velocity 0
000000t:  Note on ::  Channel 0.  Note 64.  Velocity 0
000000t:  Note on ::  Channel 0.  Note 69.  Velocity 0
000025t:  Note on ::  Channel 0.  Note 56.  Velocity 80
000000t:  Note on ::  Channel 0.  Note 59.  Velocity 80
000000t:  Note on ::  Channel 0.  Note 64.  Velocity 80
000455t:  Note on ::  Channel 0.  Note 56.  Velocity 0
000000t:  Note on ::  Channel 0.  Note 59.  Velocity 0
000000t:  Note on ::  Channel 0.  Note 64.  Velocity 0
000025t:  Note on ::  Channel 0.  Note 56.  Velocity 80
000000t:  Note on ::  Channel 0.  Note 59.  Velocity 80
000000t:  Note on ::  Channel 0.  Note 64.  Velocity 80
000455t:  Note on ::  Channel 0.  Note 56.  Velocity 0
000000t:  Note on ::  Channel 0.  Note 59.  Velocity 0
000000t:  Note on ::  Channel 0.  Note 64.  Velocity 0
000025t:  Note on ::  Channel 0.  Note 56.  Velocity 80
000000t:  Note on ::  Channel 0.  Note 59.  Velocity 80
000000t:  Note on ::  Channel 0.  Note 64.  Velocity 80
000455t:  Note on ::  Channel 0.  Note 56.  Velocity 0
000000t:  Note on ::  Channel 0.  Note 59.  Velocity 0
000000t:  Note on ::  Channel 0.  Note 64.  Velocity 0
000025t:  Note on ::  Channel 0.  Note 56.  Velocity 80
000000t:  Note on ::  Channel 0.  Note 59.  Velocity 80
000000t:  Note on ::  Channel 0.  Note 64.  Velocity 80
000455t:  Note on ::  Channel 0.  Note 56.  Velocity 0
000000t:  Note on ::  Channel 0.  Note 59.  Velocity 0
000000t:  Note on ::  Channel 0.  Note 64.  Velocity 0
000025t:  Note on ::  Channel 0.  Note 66.  Velocity 80
000455t:  Note on ::  Channel 0.  Note 66.  Velocity 0
000025t:  Note on ::  Channel 0.  Note 59.  Velocity 80
000000t:  Note on ::  Channel 0.  Note 66.  Velocity 80
000455t:  Note on ::  Channel 0.  Note 59.  Velocity 0
000000t:  Note on ::  Channel 0.  Note 66.  Velocity 0
000025t:  Note on ::  Channel 0.  Note 57.  Velocity 80
000000t:  Note on ::  Channel 0.  Note 61.  Velocity 80
000000t:  Note on ::  Channel 0.  Note 66.  Velocity 80
000455t:  Note on ::  Channel 0.  Note 57.  Velocity 0
000000t:  Note on ::  Channel 0.  Note 61.  Velocity 0
000000t:  Note on ::  Channel 0.  Note 66.  Velocity 0
000025t:  Note on ::  Channel 0.  Note 57.  Velocity 80
000000t:  Note on ::  Channel 0.  Note 61.  Velocity 80
000000t:  Note on ::  Channel 0.  Note 66.  Velocity 80
000455t:  Note on ::  Channel 0.  Note 57.  Velocity 0
000000t:  Note on ::  Channel 0.  Note 61.  Velocity 0
000000t:  Note on ::  Channel 0.  Note 66.  Velocity 0
000025t:  Note on ::  Channel 0.  Note 59.  Velocity 80
000000t:  Note on ::  Channel 0.  Note 61.  Velocity 80
000000t:  Note on ::  Channel 0.  Note 66.  Velocity 80
000455t:  Note on ::  Channel 0.  Note 59.  Velocity 0
000000t:  Note on ::  Channel 0.  Note 61.  Velocity 0
000000t:  Note on ::  Channel 0.  Note 66.  Velocity 0
000025t:  Note on ::  Channel 0.  Note 59.  Velocity 80
000000t:  Note on ::  Channel 0.  Note 61.  Velocity 80
000000t:  Note on ::  Channel 0.  Note 66.  Velocity 80
000455t:  Note on ::  Channel 0.  Note 59.  Velocity 0
000000t:  Note on ::  Channel 0.  Note 61.  Velocity 0
000000t:  Note on ::  Channel 0.  Note 66.  Velocity 0
000025t:  Note on ::  Channel 0.  Note 57.  Velocity 80
000000t:  Note on ::  Channel 0.  Note 61.  Velocity 80
000000t:  Note on ::  Channel 0.  Note 66.  Velocity 80
000455t:  Note on ::  Channel 0.  Note 57.  Velocity 0
000000t:  Note on ::  Channel 0.  Note 61.  Velocity 0
000000t:  Note on ::  Channel 0.  Note 66.  Velocity 0
000025t:  Note on ::  Channel 0.  Note 57.  Velocity 80
000000t:  Note on ::  Channel 0.  Note 61.  Velocity 80
000000t:  Note on ::  Channel 0.  Note 66.  Velocity 80
000113t:  Note on ::  Channel 0.  Note 57.  Velocity 0
000000t:  Note on ::  Channel 0.  Note 61.  Velocity 0
000000t:  Note on ::  Channel 0.  Note 66.  Velocity 0
000007t:  Note on ::  Channel 0.  Note 59.  Velocity 80
000113t:  Note on ::  Channel 0.  Note 59.  Velocity 0
000007t:  Note on ::  Channel 0.  Note 57.  Velocity 80
000113t:  Note on ::  Channel 0.  Note 57.  Velocity 0
000007t:  Note on ::  Channel 0.  Note 56.  Velocity 80
000113t:  Note on ::  Channel 0.  Note 56.  Velocity 0
000007t:  Note on ::  Channel 0.  Note 56.  Velocity 80
000000t:  Note on ::  Channel 0.  Note 59.  Velocity 80
000000t:  Note on ::  Channel 0.  Note 64.  Velocity 80
000227t:  Note on ::  Channel 0.  Note 56.  Velocity 0
000000t:  Note on ::  Channel 0.  Note 59.  Velocity 0
000000t:  Note on ::  Channel 0.  Note 64.  Velocity 0
000013t:  Note on ::  Channel 0.  Note 52.  Velocity 80
000227t:  Note on ::  Channel 0.  Note 52.  Velocity 0
000013t:  Note on ::  Channel 0.  Note 56.  Velocity 80
000000t:  Note on ::  Channel 0.  Note 59.  Velocity 80
000000t:  Note on ::  Channel 0.  Note 64.  Velocity 80
000227t:  Note on ::  Channel 0.  Note 56.  Velocity 0
000000t:  Note on ::  Channel 0.  Note 59.  Velocity 0
000000t:  Note on ::  Channel 0.  Note 64.  Velocity 0
000013t:  Note on ::  Channel 0.  Note 52.  Velocity 80
000227t:  Note on ::  Channel 0.  Note 52.  Velocity 0
000013t:  Note on ::  Channel 0.  Note 56.  Velocity 80
000000t:  Note on ::  Channel 0.  Note 59.  Velocity 80
000000t:  Note on ::  Channel 0.  Note 64.  Velocity 80
000227t:  Note on ::  Channel 0.  Note 56.  Velocity 0
000000t:  Note on ::  Channel 0.  Note 59.  Velocity 0
000000t:  Note on ::  Channel 0.  Note 64.  Velocity 0
000013t:  Note on ::  Channel 0.  Note 52.  Velocity 80
000227t:  Note on ::  Channel 0.  Note 52.  Velocity 0
000013t:  Note on ::  Channel 0.  Note 56.  Velocity 80
000000t:  Note on ::  Channel 0.  Note 59.  Velocity 80
000000t:  Note on ::  Channel 0.  Note 64.  Velocity 80
000227t:  Note on ::  Channel 0.  Note 56.  Velocity 0
000000t:  Note on ::  Channel 0.  Note 59.  Velocity 0
000000t:  Note on ::  Channel 0.  Note 64.  Velocity 0
000013t:  Note on ::  Channel 0.  Note 52.  Velocity 80
000227t:  Note on ::  Channel 0.  Note 52.  Velocity 0
000013t:  Note on ::  Channel 0.  Note 56.  Velocity 80
000000t:  Note on ::  Channel 0.  Note 61.  Velocity 80
000000t:  Note on ::  Channel 0.  Note 65.  Velocity 80
000227t:  Note on ::  Channel 0.  Note 56.  Velocity 0
000000t:  Note on ::  Channel 0.  Note 61.  Velocity 0
000000t:  Note on ::  Channel 0.  Note 65.  Velocity 0
000013t:  Note on ::  Channel 0.  Note 53.  Velocity 80
000227t:  Note on ::  Channel 0.  Note 53.  Velocity 0
000013t:  Note on ::  Channel 0.  Note 56.  Velocity 80
000000t:  Note on ::  Channel 0.  Note 61.  Velocity 80
000000t:  Note on ::  Channel 0.  Note 65.  Velocity 80
000227t:  Note on ::  Channel 0.  Note 56.  Velocity 0
000000t:  Note on ::  Channel 0.  Note 61.  Velocity 0
000000t:  Note on ::  Channel 0.  Note 65.  Velocity 0
000013t:  Note on ::  Channel 0.  Note 54.  Velocity 80
000000t:  Note on ::  Channel 0.  Note 57.  Velocity 80
000000t:  Note on ::  Channel 0.  Note 61.  Velocity 80
000000t:  Note on ::  Channel 0.  Note 66.  Velocity 80
000683t:  Note on ::  Channel 0.  Note 54.  Velocity 0
000000t:  Note on ::  Channel 0.  Note 57.  Velocity 0
000000t:  Note on ::  Channel 0.  Note 61.  Velocity 0
000000t:  Note on ::  Channel 0.  Note 66.  Velocity 0
000037t:  Note on ::  Channel 0.  Note 58.  Velocity 80
000000t:  Note on ::  Channel 0.  Note 61.  Velocity 80
000000t:  Note on ::  Channel 0.  Note 66.  Velocity 80
000455t:  Note on ::  Channel 0.  Note 58.  Velocity 0
000000t:  Note on ::  Channel 0.  Note 61.  Velocity 0
000000t:  Note on ::  Channel 0.  Note 66.  Velocity 0
000025t:  Note on ::  Channel 0.  Note 59.  Velocity 80
000000t:  Note on ::  Channel 0.  Note 62.  Velocity 80
000000t:  Note on ::  Channel 0.  Note 66.  Velocity 80
000227t:  Note on ::  Channel 0.  Note 59.  Velocity 0
000000t:  Note on ::  Channel 0.  Note 62.  Velocity 0
000000t:  Note on ::  Channel 0.  Note 66.  Velocity 0
000013t:  Note on ::  Channel 0.  Note 54.  Velocity 80
000227t:  Note on ::  Channel 0.  Note 54.  Velocity 0
000013t:  Note on ::  Channel 0.  Note 59.  Velocity 80
000000t:  Note on ::  Channel 0.  Note 62.  Velocity 80
000000t:  Note on ::  Channel 0.  Note 66.  Velocity 80
000227t:  Note on ::  Channel 0.  Note 59.  Velocity 0
000000t:  Note on ::  Channel 0.  Note 62.  Velocity 0
000000t:  Note on ::  Channel 0.  Note 66.  Velocity 0
000013t:  Note on ::  Channel 0.  Note 54.  Velocity 80
000227t:  Note on ::  Channel 0.  Note 54.  Velocity 0
000013t:  Note on ::  Channel 0.  Note 57.  Velocity 80
000000t:  Note on ::  Channel 0.  Note 62.  Velocity 80
000000t:  Note on ::  Channel 0.  Note 66.  Velocity 80
000227t:  Note on ::  Channel 0.  Note 57.  Velocity 0
000000t:  Note on ::  Channel 0.  Note 62.  Velocity 0
000000t:  Note on ::  Channel 0.  Note 66.  Velocity 0
000013t:  Note on ::  Channel 0.  Note 54.  Velocity 80
000227t:  Note on ::  Channel 0.  Note 54.  Velocity 0
000013t:  Note on ::  Channel 0.  Note 57.  Velocity 80
000000t:  Note on ::  Channel 0.  Note 62.  Velocity 80
000000t:  Note on ::  Channel 0.  Note 66.  Velocity 80
000227t:  Note on ::  Channel 0.  Note 57.  Velocity 0
000000t:  Note on ::  Channel 0.  Note 62.  Velocity 0
000000t:  Note on ::  Channel 0.  Note 66.  Velocity 0
000013t:  Note on ::  Channel 0.  Note 54.  Velocity 80
000227t:  Note on ::  Channel 0.  Note 54.  Velocity 0
000013t:  Note on ::  Channel 0.  Note 61.  Velocity 80
000000t:  Note on ::  Channel 0.  Note 64.  Velocity 80
000000t:  Note on ::  Channel 0.  Note 69.  Velocity 80
000227t:  Note on ::  Channel 0.  Note 61.  Velocity 0
000000t:  Note on ::  Channel 0.  Note 64.  Velocity 0
000000t:  Note on ::  Channel 0.  Note 69.  Velocity 0
000013t:  Note on ::  Channel 0.  Note 57.  Velocity 80
000227t:  Note on ::  Channel 0.  Note 57.  Velocity 0
000013t:  Note on ::  Channel 0.  Note 61.  Velocity 80
000000t:  Note on ::  Channel 0.  Note 64.  Velocity 80
000000t:  Note on ::  Channel 0.  Note 69.  Velocity 80
000227t:  Note on ::  Channel 0.  Note 61.  Velocity 0
000000t:  Note on ::  Channel 0.  Note 64.  Velocity 0
000000t:  Note on ::  Channel 0.  Note 69.  Velocity 0
000013t:  Note on ::  Channel 0.  Note 57.  Velocity 80
000227t:  Note on ::  Channel 0.  Note 57.  Velocity 0
000013t:  Note on ::  Channel 0.  Note 61.  Velocity 80
000000t:  Note on ::  Channel 0.  Note 64.  Velocity 80
000000t:  Note on ::  Channel 0.  Note 69.  Velocity 80
000227t:  Note on ::  Channel 0.  Note 61.  Velocity 0
000000t:  Note on ::  Channel 0.  Note 64.  Velocity 0
000000t:  Note on ::  Channel 0.  Note 69.  Velocity 0
000013t:  Note on ::  Channel 0.  Note 57.  Velocity 80
000227t:  Note on ::  Channel 0.  Note 57.  Velocity 0
000013t:  Note on ::  Channel 0.  Note 61.  Velocity 80
000000t:  Note on ::  Channel 0.  Note 64.  Velocity 80
000000t:  Note on ::  Channel 0.  Note 69.  Velocity 80
000227t:  Note on ::  Channel 0.  Note 61.  Velocity 0
000000t:  Note on ::  Channel 0.  Note 64.  Velocity 0
000000t:  Note on ::  Channel 0.  Note 69.  Velocity 0
000013t:  Note on ::  Channel 0.  Note 57.  Velocity 80
000227t:  Note on ::  Channel 0.  Note 57.  Velocity 0
000013t:  Note on ::  Channel 0.  Note 59.  Velocity 80
000000t:  Note on ::  Channel 0.  Note 62.  Velocity 80
000000t:  Note on ::  Channel 0.  Note 66.  Velocity 80
000227t:  Note on ::  Channel 0.  Note 59.  Velocity 0
000000t:  Note on ::  Channel 0.  Note 62.  Velocity 0
000000t:  Note on ::  Channel 0.  Note 66.  Velocity 0
000013t:  Note on ::  Channel 0.  Note 54.  Velocity 80
000227t:  Note on ::  Channel 0.  Note 54.  Velocity 0
000013t:  Note on ::  Channel 0.  Note 59.  Velocity 80
000000t:  Note on ::  Channel 0.  Note 62.  Velocity 80
000000t:  Note on ::  Channel 0.  Note 66.  Velocity 80
000227t:  Note on ::  Channel 0.  Note 59.  Velocity 0
000000t:  Note on ::  Channel 0.  Note 62.  Velocity 0
000000t:  Note on ::  Channel 0.  Note 66.  Velocity 0
000013t:  Note on ::  Channel 0.  Note 54.  Velocity 80
000227t:  Note on ::  Channel 0.  Note 54.  Velocity 0
000013t:  Note on ::  Channel 0.  Note 59.  Velocity 80
000000t:  Note on ::  Channel 0.  Note 62.  Velocity 80
000000t:  Note on ::  Channel 0.  Note 66.  Velocity 80
000227t:  Note on ::  Channel 0.  Note 59.  Velocity 0
000000t:  Note on ::  Channel 0.  Note 62.  Velocity 0
000000t:  Note on ::  Channel 0.  Note 66.  Velocity 0
000013t:  Note on ::  Channel 0.  Note 54.  Velocity 80
000227t:  Note on ::  Channel 0.  Note 54.  Velocity 0
000013t:  Note on ::  Channel 0.  Note 59.  Velocity 80
000000t:  Note on ::  Channel 0.  Note 62.  Velocity 80
000000t:  Note on ::  Channel 0.  Note 66.  Velocity 80
000227t:  Note on ::  Channel 0.  Note 59.  Velocity 0
000000t:  Note on ::  Channel 0.  Note 62.  Velocity 0
000000t:  Note on ::  Channel 0.  Note 66.  Velocity 0
000013t:  Note on ::  Channel 0.  Note 54.  Velocity 80
000113t:  Note on ::  Channel 0.  Note 54.  Velocity 0
000007t:  Note on ::  Channel 0.  Note 62.  Velocity 80
000113t:  Note on ::  Channel 0.  Note 62.  Velocity 0
000007t:  Note on ::  Channel 0.  Note 62.  Velocity 80
000227t:  Note on ::  Channel 0.  Note 62.  Velocity 0
000013t:  Note on ::  Channel 0.  Note 57.  Velocity 80
000227t:  Note on ::  Channel 0.  Note 57.  Velocity 0
000013t:  Note on ::  Channel 0.  Note 62.  Velocity 80
000227t:  Note on ::  Channel 0.  Note 62.  Velocity 0
000013t:  Note on ::  Channel 0.  Note 69.  Velocity 80
000455t:  Note on ::  Channel 0.  Note 69.  Velocity 0
000025t:  Note on ::  Channel 0.  Note 62.  Velocity 80
000227t:  Note on ::  Channel 0.  Note 62.  Velocity 0
000013t:  Note on ::  Channel 0.  Note 62.  Velocity 80
000113t:  Note on ::  Channel 0.  Note 62.  Velocity 0
000007t:  Note on ::  Channel 0.  Note 62.  Velocity 80
000113t:  Note on ::  Channel 0.  Note 62.  Velocity 0
000007t:  Note on ::  Channel 0.  Note 62.  Velocity 80
000113t:  Note on ::  Channel 0.  Note 62.  Velocity 0
000007t:  Note on ::  Channel 0.  Note 62.  Velocity 80
000113t:  Note on ::  Channel 0.  Note 62.  Velocity 0
000007t:  Note on ::  Channel 0.  Note 62.  Velocity 80
000227t:  Note on ::  Channel 0.  Note 62.  Velocity 0
000013t:  Note on ::  Channel 0.  Note 57.  Velocity 80
000227t:  Note on ::  Channel 0.  Note 57.  Velocity 0
000013t:  Note on ::  Channel 0.  Note 62.  Velocity 80
000227t:  Note on ::  Channel 0.  Note 62.  Velocity 0
000013t:  Note on ::  Channel 0.  Note 69.  Velocity 80
001139t:  Note on ::  Channel 0.  Note 69.  Velocity 0
000061t:  Note on ::  Channel 0.  Note 57.  Velocity 80
000000t:  Note on ::  Channel 0.  Note 61.  Velocity 80
000000t:  Note on ::  Channel 0.  Note 64.  Velocity 80
000227t:  Note on ::  Channel 0.  Note 57.  Velocity 0
000000t:  Note on ::  Channel 0.  Note 61.  Velocity 0
000000t:  Note on ::  Channel 0.  Note 64.  Velocity 0
000013t:  Note on ::  Channel 0.  Note 52.  Velocity 80
000227t:  Note on ::  Channel 0.  Note 52.  Velocity 0
000013t:  Note on ::  Channel 0.  Note 57.  Velocity 80
000000t:  Note on ::  Channel 0.  Note 61.  Velocity 80
000000t:  Note on ::  Channel 0.  Note 64.  Velocity 80
000227t:  Note on ::  Channel 0.  Note 57.  Velocity 0
000000t:  Note on ::  Channel 0.  Note 61.  Velocity 0
000000t:  Note on ::  Channel 0.  Note 64.  Velocity 0
000013t:  Note on ::  Channel 0.  Note 52.  Velocity 80
000227t:  Note on ::  Channel 0.  Note 52.  Velocity 0
000013t:  Note on ::  Channel 0.  Note 57.  Velocity 80
000000t:  Note on ::  Channel 0.  Note 61.  Velocity 80
000000t:  Note on ::  Channel 0.  Note 64.  Velocity 80
000227t:  Note on ::  Channel 0.  Note 57.  Velocity 0
000000t:  Note on ::  Channel 0.  Note 61.  Velocity 0
000000t:  Note on ::  Channel 0.  Note 64.  Velocity 0
000013t:  Note on ::  Channel 0.  Note 52.  Velocity 80
000227t:  Note on ::  Channel 0.  Note 52.  Velocity 0
000013t:  Note on ::  Channel 0.  Note 57.  Velocity 80
000000t:  Note on ::  Channel 0.  Note 61.  Velocity 80
000000t:  Note on ::  Channel 0.  Note 64.  Velocity 80
000455t:  Note on ::  Channel 0.  Note 57.  Velocity 0
000000t:  Note on ::  Channel 0.  Note 61.  Velocity 0
000000t:  Note on ::  Channel 0.  Note 64.  Velocity 0
000025t:  Note on ::  Channel 0.  Note 56.  Velocity 80
000000t:  Note on ::  Channel 0.  Note 59.  Velocity 80
000000t:  Note on ::  Channel 0.  Note 64.  Velocity 80
000455t:  Note on ::  Channel 0.  Note 56.  Velocity 0
000000t:  Note on ::  Channel 0.  Note 59.  Velocity 0
000000t:  Note on ::  Channel 0.  Note 64.  Velocity 0
000025t:  Note on ::  Channel 0.  Note 56.  Velocity 80
000000t:  Note on ::  Channel 0.  Note 59.  Velocity 80
000000t:  Note on ::  Channel 0.  Note 64.  Velocity 80
000227t:  Note on ::  Channel 0.  Note 56.  Velocity 0
000000t:  Note on ::  Channel 0.  Note 59.  Velocity 0
000000t:  Note on ::  Channel 0.  Note 64.  Velocity 0
000013t:  Note on ::  Channel 0.  Note 52.  Velocity 80
000227t:  Note on ::  Channel 0.  Note 52.  Velocity 0
000013t:  Note on ::  Channel 0.  Note 57.  Velocity 80
000000t:  Note on ::  Channel 0.  Note 68.  Velocity 80
000227t:  Note on ::  Channel 0.  Note 57.  Velocity 0
000000t:  Note on ::  Channel 0.  Note 68.  Velocity 0
000013t:  Note on ::  Channel 0.  Note 52.  Velocity 80
000227t:  Note on ::  Channel 0.  Note 52.  Velocity 0
000013t:  Note on ::  Channel 0.  Note 56.  Velocity 80
000000t:  Note on ::  Channel 0.  Note 59.  Velocity 80
000000t:  Note on ::  Channel 0.  Note 68.  Velocity 80
000227t:  Note on ::  Channel 0.  Note 56.  Velocity 0
000000t:  Note on ::  Channel 0.  Note 59.  Velocity 0
000000t:  Note on ::  Channel 0.  Note 68.  Velocity 0
000013t:  Note on ::  Channel 0.  Note 52.  Velocity 80
000227t:  Note on ::  Channel 0.  Note 52.  Velocity 0
000013t:  Note on ::  Channel 0.  Note 57.  Velocity 80
000000t:  Note on ::  Channel 0.  Note 62.  Velocity 80
000227t:  Note on ::  Channel 0.  Note 57.  Velocity 0
000000t:  Note on ::  Channel 0.  Note 62.  Velocity 0
000013t:  Note on ::  Channel 0.  Note 54.  Velocity 80
000227t:  Note on ::  Channel 0.  Note 54.  Velocity 0
000013t:  Note on ::  Channel 0.  Note 57.  Velocity 80
000000t:  Note on ::  Channel 0.  Note 62.  Velocity 80
000227t:  Note on ::  Channel 0.  Note 57.  Velocity 0
000000t:  Note on ::  Channel 0.  Note 62.  Velocity 0
000013t:  Note on ::  Channel 0.  Note 54.  Velocity 80
000227t:  Note on ::  Channel 0.  Note 54.  Velocity 0
000013t:  Note on ::  Channel 0.  Note 57.  Velocity 80
000000t:  Note on ::  Channel 0.  Note 62.  Velocity 80
000227t:  Note on ::  Channel 0.  Note 57.  Velocity 0
000000t:  Note on ::  Channel 0.  Note 62.  Velocity 0
000013t:  Note on ::  Channel 0.  Note 54.  Velocity 80
000227t:  Note on ::  Channel 0.  Note 54.  Velocity 0
000013t:  Note on ::  Channel 0.  Note 57.  Velocity 80
000000t:  Note on ::  Channel 0.  Note 62.  Velocity 80
000227t:  Note on ::  Channel 0.  Note 57.  Velocity 0
000000t:  Note on ::  Channel 0.  Note 62.  Velocity 0
000013t:  Note on ::  Channel 0.  Note 54.  Velocity 80
000227t:  Note on ::  Channel 0.  Note 54.  Velocity 0
000013t:  Note on ::  Channel 0.  Note 57.  Velocity 80
000000t:  Note on ::  Channel 0.  Note 62.  Velocity 80
000227t:  Note on ::  Channel 0.  Note 57.  Velocity 0
000000t:  Note on ::  Channel 0.  Note 62.  Velocity 0
000013t:  Note on ::  Channel 0.  Note 53.  Velocity 80
000227t:  Note on ::  Channel 0.  Note 53.  Velocity 0
000013t:  Note on ::  Channel 0.  Note 57.  Velocity 80
000000t:  Note on ::  Channel 0.  Note 62.  Velocity 80
000227t:  Note on ::  Channel 0.  Note 57.  Velocity 0
000000t:  Note on ::  Channel 0.  Note 62.  Velocity 0
000013t:  Note on ::  Channel 0.  Note 53.  Velocity 80
000227t:  Note on ::  Channel 0.  Note 53.  Velocity 0
000013t:  Note on ::  Channel 0.  Note 57.  Velocity 80
000000t:  Note on ::  Channel 0.  Note 62.  Velocity 80
000227t:  Note on ::  Channel 0.  Note 57.  Velocity 0
000000t:  Note on ::  Channel 0.  Note 62.  Velocity 0
000013t:  Note on ::  Channel 0.  Note 53.  Velocity 80
000227t:  Note on ::  Channel 0.  Note 53.  Velocity 0
000013t:  Note on ::  Channel 0.  Note 53.  Velocity 80
000000t:  Note on ::  Channel 0.  Note 57.  Velocity 80
000000t:  Note on ::  Channel 0.  Note 62.  Velocity 80
000455t:  Note on ::  Channel 0.  Note 53.  Velocity 0
000000t:  Note on ::  Channel 0.  Note 57.  Velocity 0
000000t:  Note on ::  Channel 0.  Note 62.  Velocity 0
000025t:  Note on ::  Channel 0.  Note 57.  Velocity 80
000000t:  Note on ::  Channel 0.  Note 61.  Velocity 80
000000t:  Note on ::  Channel 0.  Note 64.  Velocity 80
000227t:  Note on ::  Channel 0.  Note 57.  Velocity 0
000000t:  Note on ::  Channel 0.  Note 61.  Velocity 0
000000t:  Note on ::  Channel 0.  Note 64.  Velocity 0
000013t:  Note on ::  Channel 0.  Note 52.  Velocity 80
000227t:  Note on ::  Channel 0.  Note 52.  Velocity 0
000013t:  Note on ::  Channel 0.  Note 57.  Velocity 80
000000t:  Note on ::  Channel 0.  Note 61.  Velocity 80
000000t:  Note on ::  Channel 0.  Note 64.  Velocity 80
000227t:  Note on ::  Channel 0.  Note 57.  Velocity 0
000000t:  Note on ::  Channel 0.  Note 61.  Velocity 0
000000t:  Note on ::  Channel 0.  Note 64.  Velocity 0
000013t:  Note on ::  Channel 0.  Note 52.  Velocity 80
000227t:  Note on ::  Channel 0.  Note 52.  Velocity 0
000013t:  Note on ::  Channel 0.  Note 57.  Velocity 80
000000t:  Note on ::  Channel 0.  Note 61.  Velocity 80
000000t:  Note on ::  Channel 0.  Note 64.  Velocity 80
000227t:  Note on ::  Channel 0.  Note 57.  Velocity 0
000000t:  Note on ::  Channel 0.  Note 61.  Velocity 0
000000t:  Note on ::  Channel 0.  Note 64.  Velocity 0
000013t:  Note on ::  Channel 0.  Note 52.  Velocity 80
000227t:  Note on ::  Channel 0.  Note 52.  Velocity 0
000013t:  Note on ::  Channel 0.  Note 57.  Velocity 80
000000t:  Note on ::  Channel 0.  Note 61.  Velocity 80
000000t:  Note on ::  Channel 0.  Note 64.  Velocity 80
000227t:  Note on ::  Channel 0.  Note 57.  Velocity 0
000000t:  Note on ::  Channel 0.  Note 61.  Velocity 0
000000t:  Note on ::  Channel 0.  Note 64.  Velocity 0
000013t:  Note on ::  Channel 0.  Note 52.  Velocity 80
000227t:  Note on ::  Channel 0.  Note 52.  Velocity 0
000013t:  Note on ::  Channel 0.  Note 55.  Velocity 80
000000t:  Note on ::  Channel 0.  Note 61.  Velocity 80
000000t:  Note on ::  Channel 0.  Note 64.  Velocity 80
000227t:  Note on ::  Channel 0.  Note 55.  Velocity 0
000000t:  Note on ::  Channel 0.  Note 61.  Velocity 0
000000t:  Note on ::  Channel 0.  Note 64.  Velocity 0
000013t:  Note on ::  Channel 0.  Note 52.  Velocity 80
000227t:  Note on ::  Channel 0.  Note 52.  Velocity 0
000013t:  Note on ::  Channel 0.  Note 55.  Velocity 80
000000t:  Note on ::  Channel 0.  Note 61.  Velocity 80
000000t:  Note on ::  Channel 0.  Note 64.  Velocity 80
000227t:  Note on ::  Channel 0.  Note 55.  Velocity 0
000000t:  Note on ::  Channel 0.  Note 61.  Velocity 0
000000t:  Note on ::  Channel 0.  Note 64.  Velocity 0
000013t:  Note on ::  Channel 0.  Note 52.  Velocity 80
000227t:  Note on ::  Channel 0.  Note 52.  Velocity 0
000013t:  Note on ::  Channel 0.  Note 57.  Velocity 80
000000t:  Note on ::  Channel 0.  Note 61.  Velocity 80
000000t:  Note on ::  Channel 0.  Note 64.  Velocity 80
000227t:  Note on ::  Channel 0.  Note 57.  Velocity 0
000000t:  Note on ::  Channel 0.  Note 61.  Velocity 0
000000t:  Note on ::  Channel 0.  Note 64.  Velocity 0
000013t:  Note on ::  Channel 0.  Note 52.  Velocity 80
000227t:  Note on ::  Channel 0.  Note 52.  Velocity 0
000013t:  Note on ::  Channel 0.  Note 57.  Velocity 80
000000t:  Note on ::  Channel 0.  Note 61.  Velocity 80
000000t:  Note on ::  Channel 0.  Note 64.  Velocity 80
000227t:  Note on ::  Channel 0.  Note 57.  Velocity 0
000000t:  Note on ::  Channel 0.  Note 61.  Velocity 0
000000t:  Note on ::  Channel 0.  Note 64.  Velocity 0
000013t:  Note on ::  Channel 0.  Note 52.  Velocity 80
000227t:  Note on ::  Channel 0.  Note 52.  Velocity 0
000013t:  Note on ::  Channel 0.  Note 54.  Velocity 80
000000t:  Note on ::  Channel 0.  Note 57.  Velocity 80
000000t:  Note on ::  Channel 0.  Note 62.  Velocity 80
000227t:  Note on ::  Channel 0.  Note 54.  Velocity 0
000000t:  Note on ::  Channel 0.  Note 57.  Velocity 0
000000t:  Note on ::  Channel 0.  Note 62.  Velocity 0
000013t:  Note on ::  Channel 0.  Note 50.  Velocity 80
000227t:  Note on ::  Channel 0.  Note 50.  Velocity 0
000013t:  Note on ::  Channel 0.  Note 54.  Velocity 80
000000t:  Note on ::  Channel 0.  Note 57.  Velocity 80
000000t:  Note on ::  Channel 0.  Note 62.  Velocity 80
000227t:  Note on ::  Channel 0.  Note 54.  Velocity 0
000000t:  Note on ::  Channel 0.  Note 57.  Velocity 0
000000t:  Note on ::  Channel 0.  Note 62.  Velocity 0
000013t:  Note on ::  Channel 0.  Note 50.  Velocity 80
000227t:  Note on ::  Channel 0.  Note 50.  Velocity 0
000013t:  Note on ::  Channel 0.  Note 55.  Velocity 80
000000t:  Note on ::  Channel 0.  Note 59.  Velocity 80
000000t:  Note on ::  Channel 0.  Note 62.  Velocity 80
000227t:  Note on ::  Channel 0.  Note 55.  Velocity 0
000000t:  Note on ::  Channel 0.  Note 59.  Velocity 0
000000t:  Note on ::  Channel 0.  Note 62.  Velocity 0
000013t:  Note on ::  Channel 0.  Note 50.  Velocity 80
000227t:  Note on ::  Channel 0.  Note 50.  Velocity 0
000013t:  Note on ::  Channel 0.  Note 55.  Velocity 80
000000t:  Note on ::  Channel 0.  Note 59.  Velocity 80
000000t:  Note on ::  Channel 0.  Note 62.  Velocity 80
000227t:  Note on ::  Channel 0.  Note 55.  Velocity 0
000000t:  Note on ::  Channel 0.  Note 59.  Velocity 0
000000t:  Note on ::  Channel 0.  Note 62.  Velocity 0
000013t:  Note on ::  Channel 0.  Note 50.  Velocity 80
000227t:  Note on ::  Channel 0.  Note 50.  Velocity 0
000013t:  Note on ::  Channel 0.  Note 57.  Velocity 80
000000t:  Note on ::  Channel 0.  Note 61.  Velocity 80
000000t:  Note on ::  Channel 0.  Note 64.  Velocity 80
000227t:  Note on ::  Channel 0.  Note 57.  Velocity 0
000000t:  Note on ::  Channel 0.  Note 61.  Velocity 0
000000t:  Note on ::  Channel 0.  Note 64.  Velocity 0
000013t:  Note on ::  Channel 0.  Note 52.  Velocity 80
000227t:  Note on ::  Channel 0.  Note 52.  Velocity 0
000013t:  Note on ::  Channel 0.  Note 57.  Velocity 80
000000t:  Note on ::  Channel 0.  Note 61.  Velocity 80
000000t:  Note on ::  Channel 0.  Note 64.  Velocity 80
000227t:  Note on ::  Channel 0.  Note 57.  Velocity 0
000000t:  Note on ::  Channel 0.  Note 61.  Velocity 0
000000t:  Note on ::  Channel 0.  Note 64.  Velocity 0
000013t:  Note on ::  Channel 0.  Note 52.  Velocity 80
000227t:  Note on ::  Channel 0.  Note 52.  Velocity 0
000013t:  Note on ::  Channel 0.  Note 57.  Velocity 80
000000t:  Note on ::  Channel 0.  Note 59.  Velocity 80
000000t:  Note on ::  Channel 0.  Note 64.  Velocity 80
000227t:  Note on ::  Channel 0.  Note 57.  Velocity 0
000000t:  Note on ::  Channel 0.  Note 59.  Velocity 0
000000t:  Note on ::  Channel 0.  Note 64.  Velocity 0
000013t:  Note on ::  Channel 0.  Note 52.  Velocity 80
000227t:  Note on ::  Channel 0.  Note 52.  Velocity 0
000013t:  Note on ::  Channel 0.  Note 57.  Velocity 80
000000t:  Note on ::  Channel 0.  Note 61.  Velocity 80
000000t:  Note on ::  Channel 0.  Note 64.  Velocity 80
000227t:  Note on ::  Channel 0.  Note 57.  Velocity 0
000000t:  Note on ::  Channel 0.  Note 61.  Velocity 0
000000t:  Note on ::  Channel 0.  Note 64.  Velocity 0
000013t:  Note on ::  Channel 0.  Note 52.  Velocity 80
000227t:  Note on ::  Channel 0.  Note 52.  Velocity 0
000013t:  Note on ::  Channel 0.  Note 59.  Velocity 80
000000t:  Note on ::  Channel 0.  Note 61.  Velocity 80
000000t:  Note on ::  Channel 0.  Note 66.  Velocity 80
000227t:  Note on ::  Channel 0.  Note 59.  Velocity 0
000000t:  Note on ::  Channel 0.  Note 61.  Velocity 0
000000t:  Note on ::  Channel 0.  Note 66.  Velocity 0
000013t:  Note on ::  Channel 0.  Note 54.  Velocity 80
000227t:  Note on ::  Channel 0.  Note 54.  Velocity 0
000013t:  Note on ::  Channel 0.  Note 59.  Velocity 80
000000t:  Note on ::  Channel 0.  Note 61.  Velocity 80
000000t:  Note on ::  Channel 0.  Note 66.  Velocity 80
000227t:  Note on ::  Channel 0.  Note 59.  Velocity 0
000000t:  Note on ::  Channel 0.  Note 61.  Velocity 0
000000t:  Note on ::  Channel 0.  Note 66.  Velocity 0
000013t:  Note on ::  Channel 0.  Note 54.  Velocity 80
000227t:  Note on ::  Channel 0.  Note 54.  Velocity 0
000013t:  Note on ::  Channel 0.  Note 57.  Velocity 80
000000t:  Note on ::  Channel 0.  Note 61.  Velocity 80
000000t:  Note on ::  Channel 0.  Note 66.  Velocity 80
000455t:  Note on ::  Channel 0.  Note 57.  Velocity 0
000000t:  Note on ::  Channel 0.  Note 61.  Velocity 0
000000t:  Note on ::  Channel 0.  Note 66.  Velocity 0
000025t:  Note on ::  Channel 0.  Note 57.  Velocity 80
000000t:  Note on ::  Channel 0.  Note 61.  Velocity 80
000000t:  Note on ::  Channel 0.  Note 66.  Velocity 80
000455t:  Note on ::  Channel 0.  Note 57.  Velocity 0
000000t:  Note on ::  Channel 0.  Note 61.  Velocity 0
000000t:  Note on ::  Channel 0.  Note 66.  Velocity 0
000025t:  Note on ::  Channel 0.  Note 59.  Velocity 80
000000t:  Note on ::  Channel 0.  Note 64.  Velocity 80
000000t:  Note on ::  Channel 0.  Note 66.  Velocity 80
000455t:  Note on ::  Channel 0.  Note 59.  Velocity 0
000000t:  Note on ::  Channel 0.  Note 64.  Velocity 0
000000t:  Note on ::  Channel 0.  Note 66.  Velocity 0
000025t:  Note on ::  Channel 0.  Note 59.  Velocity 80
000000t:  Note on ::  Channel 0.  Note 64.  Velocity 80
000000t:  Note on ::  Channel 0.  Note 66.  Velocity 80
000455t:  Note on ::  Channel 0.  Note 59.  Velocity 0
000000t:  Note on ::  Channel 0.  Note 64.  Velocity 0
000000t:  Note on ::  Channel 0.  Note 66.  Velocity 0
000025t:  Note on ::  Channel 0.  Note 59.  Velocity 80
000000t:  Note on ::  Channel 0.  Note 63.  Velocity 80
000000t:  Note on ::  Channel 0.  Note 66.  Velocity 80
000455t:  Note on ::  Channel 0.  Note 59.  Velocity 0
000000t:  Note on ::  Channel 0.  Note 63.  Velocity 0
000000t:  Note on ::  Channel 0.  Note 66.  Velocity 0
000025t:  Note on ::  Channel 0.  Note 59.  Velocity 80
000000t:  Note on ::  Channel 0.  Note 63.  Velocity 80
000000t:  Note on ::  Channel 0.  Note 66.  Velocity 80
000455t:  Note on ::  Channel 0.  Note 59.  Velocity 0
000000t:  Note on ::  Channel 0.  Note 63.  Velocity 0
000000t:  Note on ::  Channel 0.  Note 66.  Velocity 0
000025t:  Note on ::  Channel 0.  Note 57.  Velocity 80
000000t:  Note on ::  Channel 0.  Note 62.  Velocity 80
000000t:  Note on ::  Channel 0.  Note 66.  Velocity 80
000000t:  Note on ::  Channel 0.  Note 69.  Velocity 80
000455t:  Note on ::  Channel 0.  Note 57.  Velocity 0
000000t:  Note on ::  Channel 0.  Note 62.  Velocity 0
000000t:  Note on ::  Channel 0.  Note 66.  Velocity 0
000000t:  Note on ::  Channel 0.  Note 69.  Velocity 0
000025t:  Note on ::  Channel 0.  Note 57.  Velocity 80
000000t:  Note on ::  Channel 0.  Note 62.  Velocity 80
000000t:  Note on ::  Channel 0.  Note 66.  Velocity 80
000000t:  Note on ::  Channel 0.  Note 69.  Velocity 80
000455t:  Note on ::  Channel 0.  Note 57.  Velocity 0
000000t:  Note on ::  Channel 0.  Note 62.  Velocity 0
000000t:  Note on ::  Channel 0.  Note 66.  Velocity 0
000000t:  Note on ::  Channel 0.  Note 69.  Velocity 0
000025t:  Note on ::  Channel 0.  Note 57.  Velocity 80
000000t:  Note on ::  Channel 0.  Note 61.  Velocity 80
000000t:  Note on ::  Channel 0.  Note 64.  Velocity 80
000000t:  Note on ::  Channel 0.  Note 69.  Velocity 80
000455t:  Note on ::  Channel 0.  Note 57.  Velocity 0
000000t:  Note on ::  Channel 0.  Note 61.  Velocity 0
000000t:  Note on ::  Channel 0.  Note 64.  Velocity 0
000000t:  Note on ::  Channel 0.  Note 69.  Velocity 0
000025t:  Note on ::  Channel 0.  Note 57.  Velocity 80
000000t:  Note on ::  Channel 0.  Note 61.  Velocity 80
000000t:  Note on ::  Channel 0.  Note 64.  Velocity 80
000000t:  Note on ::  Channel 0.  Note 69.  Velocity 80
000455t:  Note on ::  Channel 0.  Note 57.  Velocity 0
000000t:  Note on ::  Channel 0.  Note 61.  Velocity 0
000000t:  Note on ::  Channel 0.  Note 64.  Velocity 0
000000t:  Note on ::  Channel 0.  Note 69.  Velocity 0
000025t:  Note on ::  Channel 0.  Note 56.  Velocity 80
000000t:  Note on ::  Channel 0.  Note 59.  Velocity 80
000000t:  Note on ::  Channel 0.  Note 64.  Velocity 80
000455t:  Note on ::  Channel 0.  Note 56.  Velocity 0
000000t:  Note on ::  Channel 0.  Note 59.  Velocity 0
000000t:  Note on ::  Channel 0.  Note 64.  Velocity 0
000025t:  Note on ::  Channel 0.  Note 56.  Velocity 80
000000t:  Note on ::  Channel 0.  Note 59.  Velocity 80
000000t:  Note on ::  Channel 0.  Note 64.  Velocity 80
000455t:  Note on ::  Channel 0.  Note 56.  Velocity 0
000000t:  Note on ::  Channel 0.  Note 59.  Velocity 0
000000t:  Note on ::  Channel 0.  Note 64.  Velocity 0
000025t:  Note on ::  Channel 0.  Note 56.  Velocity 80
000000t:  Note on ::  Channel 0.  Note 59.  Velocity 80
000000t:  Note on ::  Channel 0.  Note 64.  Velocity 80
000455t:  Note on ::  Channel 0.  Note 56.  Velocity 0
000000t:  Note on ::  Channel 0.  Note 59.  Velocity 0
000000t:  Note on ::  Channel 0.  Note 64.  Velocity 0
000025t:  Note on ::  Channel 0.  Note 56.  Velocity 80
000000t:  Note on ::  Channel 0.  Note 59.  Velocity 80
000000t:  Note on ::  Channel 0.  Note 64.  Velocity 80
000455t:  Note on ::  Channel 0.  Note 56.  Velocity 0
000000t:  Note on ::  Channel 0.  Note 59.  Velocity 0
000000t:  Note on ::  Channel 0.  Note 64.  Velocity 0
000025t:  Note on ::  Channel 0.  Note 66.  Velocity 80
000455t:  Note on ::  Channel 0.  Note 66.  Velocity 0
000025t:  Note on ::  Channel 0.  Note 59.  Velocity 80
000000t:  Note on ::  Channel 0.  Note 66.  Velocity 80
000455t:  Note on ::  Channel 0.  Note 59.  Velocity 0
000000t:  Note on ::  Channel 0.  Note 66.  Velocity 0
000025t:  Note on ::  Channel 0.  Note 57.  Velocity 80
000000t:  Note on ::  Channel 0.  Note 61.  Velocity 80
000000t:  Note on ::  Channel 0.  Note 66.  Velocity 80
000455t:  Note on ::  Channel 0.  Note 57.  Velocity 0
000000t:  Note on ::  Channel 0.  Note 61.  Velocity 0
000000t:  Note on ::  Channel 0.  Note 66.  Velocity 0
000025t:  Note on ::  Channel 0.  Note 57.  Velocity 80
000000t:  Note on ::  Channel 0.  Note 61.  Velocity 80
000000t:  Note on ::  Channel 0.  Note 66.  Velocity 80
000455t:  Note on ::  Channel 0.  Note 57.  Velocity 0
000000t:  Note on ::  Channel 0.  Note 61.  Velocity 0
000000t:  Note on ::  Channel 0.  Note 66.  Velocity 0
000025t:  Note on ::  Channel 0.  Note 59.  Velocity 80
000000t:  Note on ::  Channel 0.  Note 61.  Velocity 80
000000t:  Note on ::  Channel 0.  Note 66.  Velocity 80
000455t:  Note on ::  Channel 0.  Note 59.  Velocity 0
000000t:  Note on ::  Channel 0.  Note 61.  Velocity 0
000000t:  Note on ::  Channel 0.  Note 66.  Velocity 0
000025t:  Note on ::  Channel 0.  Note 59.  Velocity 80
000000t:  Note on ::  Channel 0.  Note 61.  Velocity 80
000000t:  Note on ::  Channel 0.  Note 66.  Velocity 80
000455t:  Note on ::  Channel 0.  Note 59.  Velocity 0
000000t:  Note on ::  Channel 0.  Note 61.  Velocity 0
000000t:  Note on ::  Channel 0.  Note 66.  Velocity 0
000025t:  Note on ::  Channel 0.  Note 57.  Velocity 80
000000t:  Note on ::  Channel 0.  Note 61.  Velocity 80
000000t:  Note on ::  Channel 0.  Note 66.  Velocity 80
000455t:  Note on ::  Channel 0.  Note 57.  Velocity 0
000000t:  Note on ::  Channel 0.  Note 61.  Velocity 0
000000t:  Note on ::  Channel 0.  Note 66.  Velocity 0
000025t:  Note on ::  Channel 0.  Note 57.  Velocity 80
000000t:  Note on ::  Channel 0.  Note 61.  Velocity 80
000000t:  Note on ::  Channel 0.  Note 66.  Velocity 80
000113t:  Note on ::  Channel 0.  Note 57.  Velocity 0
000000t:  Note on ::  Channel 0.  Note 61.  Velocity 0
000000t:  Note on ::  Channel 0.  Note 66.  Velocity 0
000007t:  Note on ::  Channel 0.  Note 59.  Velocity 80
000113t:  Note on ::  Channel 0.  Note 59.  Velocity 0
000007t:  Note on ::  Channel 0.  Note 57.  Velocity 80
000113t:  Note on ::  Channel 0.  Note 57.  Velocity 0
000007t:  Note on ::  Channel 0.  Note 56.  Velocity 80
000113t:  Note on ::  Channel 0.  Note 56.  Velocity 0
000007t:  Note on ::  Channel 0.  Note 56.  Velocity 80
000000t:  Note on ::  Channel 0.  Note 59.  Velocity 80
000000t:  Note on ::  Channel 0.  Note 64.  Velocity 80
000227t:  Note on ::  Channel 0.  Note 56.  Velocity 0
000000t:  Note on ::  Channel 0.  Note 59.  Velocity 0
000000t:  Note on ::  Channel 0.  Note 64.  Velocity 0
000013t:  Note on ::  Channel 0.  Note 52.  Velocity 80
000227t:  Note on ::  Channel 0.  Note 52.  Velocity 0
000013t:  Note on ::  Channel 0.  Note 56.  Velocity 80
000000t:  Note on ::  Channel 0.  Note 59.  Velocity 80
000000t:  Note on ::  Channel 0.  Note 64.  Velocity 80
000227t:  Note on ::  Channel 0.  Note 56.  Velocity 0
000000t:  Note on ::  Channel 0.  Note 59.  Velocity 0
000000t:  Note on ::  Channel 0.  Note 64.  Velocity 0
000013t:  Note on ::  Channel 0.  Note 52.  Velocity 80
000227t:  Note on ::  Channel 0.  Note 52.  Velocity 0
000013t:  Note on ::  Channel 0.  Note 56.  Velocity 80
000000t:  Note on ::  Channel 0.  Note 59.  Velocity 80
000000t:  Note on ::  Channel 0.  Note 64.  Velocity 80
000227t:  Note on ::  Channel 0.  Note 56.  Velocity 0
000000t:  Note on ::  Channel 0.  Note 59.  Velocity 0
000000t:  Note on ::  Channel 0.  Note 64.  Velocity 0
000013t:  Note on ::  Channel 0.  Note 52.  Velocity 80
000227t:  Note on ::  Channel 0.  Note 52.  Velocity 0
000013t:  Note on ::  Channel 0.  Note 56.  Velocity 80
000000t:  Note on ::  Channel 0.  Note 59.  Velocity 80
000000t:  Note on ::  Channel 0.  Note 64.  Velocity 80
000227t:  Note on ::  Channel 0.  Note 56.  Velocity 0
000000t:  Note on ::  Channel 0.  Note 59.  Velocity 0
000000t:  Note on ::  Channel 0.  Note 64.  Velocity 0
000013t:  Note on ::  Channel 0.  Note 52.  Velocity 80
000227t:  Note on ::  Channel 0.  Note 52.  Velocity 0
000013t:  Note on ::  Channel 0.  Note 56.  Velocity 80
000000t:  Note on ::  Channel 0.  Note 61.  Velocity 80
000000t:  Note on ::  Channel 0.  Note 65.  Velocity 80
000227t:  Note on ::  Channel 0.  Note 56.  Velocity 0
000000t:  Note on ::  Channel 0.  Note 61.  Velocity 0
000000t:  Note on ::  Channel 0.  Note 65.  Velocity 0
000013t:  Note on ::  Channel 0.  Note 53.  Velocity 80
000227t:  Note on ::  Channel 0.  Note 53.  Velocity 0
000013t:  Note on ::  Channel 0.  Note 56.  Velocity 80
000000t:  Note on ::  Channel 0.  Note 61.  Velocity 80
000000t:  Note on ::  Channel 0.  Note 65.  Velocity 80
000227t:  Note on ::  Channel 0.  Note 56.  Velocity 0
000000t:  Note on ::  Channel 0.  Note 61.  Velocity 0
000000t:  Note on ::  Channel 0.  Note 65.  Velocity 0
000013t:  Note on ::  Channel 0.  Note 54.  Velocity 80
000000t:  Note on ::  Channel 0.  Note 57.  Velocity 80
000000t:  Note on ::  Channel 0.  Note 61.  Velocity 80
000000t:  Note on ::  Channel 0.  Note 66.  Velocity 80
000683t:  Note on ::  Channel 0.  Note 54.  Velocity 0
000000t:  Note on ::  Channel 0.  Note 57.  Velocity 0
000000t:  Note on ::  Channel 0.  Note 61.  Velocity 0
000000t:  Note on ::  Channel 0.  Note 66.  Velocity 0
000037t:  Note on ::  Channel 0.  Note 58.  Velocity 80
000000t:  Note on ::  Channel 0.  Note 61.  Velocity 80
000000t:  Note on ::  Channel 0.  Note 66.  Velocity 80
000455t:  Note on ::  Channel 0.  Note 58.  Velocity 0
000000t:  Note on ::  Channel 0.  Note 61.  Velocity 0
000000t:  Note on ::  Channel 0.  Note 66.  Velocity 0
000025t:  Note on ::  Channel 0.  Note 59.  Velocity 80
000000t:  Note on ::  Channel 0.  Note 62.  Velocity 80
000000t:  Note on ::  Channel 0.  Note 66.  Velocity 80
000227t:  Note on ::  Channel 0.  Note 59.  Velocity 0
000000t:  Note on ::  Channel 0.  Note 62.  Velocity 0
000000t:  Note on ::  Channel 0.  Note 66.  Velocity 0
000013t:  Note on ::  Channel 0.  Note 54.  Velocity 80
000227t:  Note on ::  Channel 0.  Note 54.  Velocity 0
000013t:  Note on ::  Channel 0.  Note 59.  Velocity 80
000000t:  Note on ::  Channel 0.  Note 62.  Velocity 80
000000t:  Note on ::  Channel 0.  Note 66.  Velocity 80
000227t:  Note on ::  Channel 0.  Note 59.  Velocity 0
000000t:  Note on ::  Channel 0.  Note 62.  Velocity 0
000000t:  Note on ::  Channel 0.  Note 66.  Velocity 0
000013t:  Note on ::  Channel 0.  Note 54.  Velocity 80
000227t:  Note on ::  Channel 0.  Note 54.  Velocity 0
000013t:  Note on ::  Channel 0.  Note 57.  Velocity 80
000000t:  Note on ::  Channel 0.  Note 62.  Velocity 80
000000t:  Note on ::  Channel 0.  Note 66.  Velocity 80
000227t:  Note on ::  Channel 0.  Note 57.  Velocity 0
000000t:  Note on ::  Channel 0.  Note 62.  Velocity 0
000000t:  Note on ::  Channel 0.  Note 66.  Velocity 0
000013t:  Note on ::  Channel 0.  Note 54.  Velocity 80
000227t:  Note on ::  Channel 0.  Note 54.  Velocity 0
000013t:  Note on ::  Channel 0.  Note 57.  Velocity 80
000000t:  Note on ::  Channel 0.  Note 62.  Velocity 80
000000t:  Note on ::  Channel 0.  Note 66.  Velocity 80
000227t:  Note on ::  Channel 0.  Note 57.  Velocity 0
000000t:  Note on ::  Channel 0.  Note 62.  Velocity 0
000000t:  Note on ::  Channel 0.  Note 66.  Velocity 0
000013t:  Note on ::  Channel 0.  Note 54.  Velocity 80
000227t:  Note on ::  Channel 0.  Note 54.  Velocity 0
000013t:  Note on ::  Channel 0.  Note 61.  Velocity 80
000000t:  Note on ::  Channel 0.  Note 64.  Velocity 80
000000t:  Note on ::  Channel 0.  Note 69.  Velocity 80
000227t:  Note on ::  Channel 0.  Note 61.  Velocity 0
000000t:  Note on ::  Channel 0.  Note 64.  Velocity 0
000000t:  Note on ::  Channel 0.  Note 69.  Velocity 0
000013t:  Note on ::  Channel 0.  Note 57.  Velocity 80
000227t:  Note on ::  Channel 0.  Note 57.  Velocity 0
000013t:  Note on ::  Channel 0.  Note 61.  Velocity 80
000000t:  Note on ::  Channel 0.  Note 64.  Velocity 80
000000t:  Note on ::  Channel 0.  Note 69.  Velocity 80
000227t:  Note on ::  Channel 0.  Note 61.  Velocity 0
000000t:  Note on ::  Channel 0.  Note 64.  Velocity 0
000000t:  Note on ::  Channel 0.  Note 69.  Velocity 0
000013t:  Note on ::  Channel 0.  Note 57.  Velocity 80
000227t:  Note on ::  Channel 0.  Note 57.  Velocity 0
000013t:  Note on ::  Channel 0.  Note 61.  Velocity 80
000000t:  Note on ::  Channel 0.  Note 64.  Velocity 80
000000t:  Note on ::  Channel 0.  Note 69.  Velocity 80
000227t:  Note on ::  Channel 0.  Note 61.  Velocity 0
000000t:  Note on ::  Channel 0.  Note 64.  Velocity 0
000000t:  Note on ::  Channel 0.  Note 69.  Velocity 0
000013t:  Note on ::  Channel 0.  Note 57.  Velocity 80
000227t:  Note on ::  Channel 0.  Note 57.  Velocity 0
000013t:  Note on ::  Channel 0.  Note 61.  Velocity 80
000000t:  Note on ::  Channel 0.  Note 64.  Velocity 80
000000t:  Note on ::  Channel 0.  Note 69.  Velocity 80
000227t:  Note on ::  Channel 0.  Note 61.  Velocity 0
000000t:  Note on ::  Channel 0.  Note 64.  Velocity 0
000000t:  Note on ::  Channel 0.  Note 69.  Velocity 0
000013t:  Note on ::  Channel 0.  Note 57.  Velocity 80
000227t:  Note on ::  Channel 0.  Note 57.  Velocity 0
000013t:  Note on ::  Channel 0.  Note 59.  Velocity 80
000000t:  Note on ::  Channel 0.  Note 62.  Velocity 80
000000t:  Note on ::  Channel 0.  Note 66.  Velocity 80
000227t:  Note on ::  Channel 0.  Note 59.  Velocity 0
000000t:  Note on ::  Channel 0.  Note 62.  Velocity 0
000000t:  Note on ::  Channel 0.  Note 66.  Velocity 0
000013t:  Note on ::  Channel 0.  Note 54.  Velocity 80
000227t:  Note on ::  Channel 0.  Note 54.  Velocity 0
000013t:  Note on ::  Channel 0.  Note 59.  Velocity 80
000000t:  Note on ::  Channel 0.  Note 62.  Velocity 80
000000t:  Note on ::  Channel 0.  Note 66.  Velocity 80
000227t:  Note on ::  Channel 0.  Note 59.  Velocity 0
000000t:  Note on ::  Channel 0.  Note 62.  Velocity 0
000000t:  Note on ::  Channel 0.  Note 66.  Velocity 0
000013t:  Note on ::  Channel 0.  Note 54.  Velocity 80
000227t:  Note on ::  Channel 0.  Note 54.  Velocity 0
000013t:  Note on ::  Channel 0.  Note 57.  Velocity 80
000000t:  Note on ::  Channel 0.  Note 62.  Velocity 80
000000t:  Note on ::  Channel 0.  Note 66.  Velocity 80
000227t:  Note on ::  Channel 0.  Note 57.  Velocity 0
000000t:  Note on ::  Channel 0.  Note 62.  Velocity 0
000000t:  Note on ::  Channel 0.  Note 66.  Velocity 0
000013t:  Note on ::  Channel 0.  Note 54.  Velocity 80
000227t:  Note on ::  Channel 0.  Note 54.  Velocity 0
000013t:  Note on ::  Channel 0.  Note 57.  Velocity 80
000000t:  Note on ::  Channel 0.  Note 62.  Velocity 80
000000t:  Note on ::  Channel 0.  Note 66.  Velocity 80
000227t:  Note on ::  Channel 0.  Note 57.  Velocity 0
000000t:  Note on ::  Channel 0.  Note 62.  Velocity 0
000000t:  Note on ::  Channel 0.  Note 66.  Velocity 0
000013t:  Note on ::  Channel 0.  Note 54.  Velocity 80
000227t:  Note on ::  Channel 0.  Note 54.  Velocity 0
000013t:  Note on ::  Channel 0.  Note 55.  Velocity 96
000000t:  Note on ::  Channel 0.  Note 59.  Velocity 96
000000t:  Note on ::  Channel 0.  Note 67.  Velocity 96
000227t:  Note on ::  Channel 0.  Note 55.  Velocity 0
000000t:  Note on ::  Channel 0.  Note 59.  Velocity 0
000000t:  Note on ::  Channel 0.  Note 67.  Velocity 0
000133t:  Note on ::  Channel 0.  Note 55.  Velocity 96
000000t:  Note on ::  Channel 0.  Note 59.  Velocity 96
000000t:  Note on ::  Channel 0.  Note 67.  Velocity 96
000113t:  Note on ::  Channel 0.  Note 59.  Velocity 0
000000t:  Note on ::  Channel 0.  Note 67.  Velocity 0
000007t:  Note on ::  Channel 0.  Note 59.  Velocity 96
000000t:  Note on ::  Channel 0.  Note 67.  Velocity 96
000107t:  Note on ::  Channel 0.  Note 55.  Velocity 0
000006t:  Note on ::  Channel 0.  Note 59.  Velocity 0
000000t:  Note on ::  Channel 0.  Note 67.  Velocity 0
000127t:  Note on ::  Channel 0.  Note 54.  Velocity 96
000000t:  Note on ::  Channel 0.  Note 57.  Velocity 96
000000t:  Note on ::  Channel 0.  Note 66.  Velocity 96
000455t:  Note on ::  Channel 0.  Note 54.  Velocity 0
000000t:  Note on ::  Channel 0.  Note 57.  Velocity 0
000000t:  Note on ::  Channel 0.  Note 66.  Velocity 0
000025t:  Note on ::  Channel 0.  Note 52.  Velocity 96
000000t:  Note on ::  Channel 0.  Note 55.  Velocity 96
000000t:  Note on ::  Channel 0.  Note 64.  Velocity 96
000455t:  Note on ::  Channel 0.  Note 52.  Velocity 0
000000t:  Note on ::  Channel 0.  Note 55.  Velocity 0
000000t:  Note on ::  Channel 0.  Note 64.  Velocity 0
000025t:  Note on ::  Channel 0.  Note 55.  Velocity 96
000000t:  Note on ::  Channel 0.  Note 59.  Velocity 96
000000t:  Note on ::  Channel 0.  Note 67.  Velocity 96
000455t:  Note on ::  Channel 0.  Note 55.  Velocity 0
000000t:  Note on ::  Channel 0.  Note 59.  Velocity 0
000000t:  Note on ::  Channel 0.  Note 67.  Velocity 0
000025t:  Note on ::  Channel 0.  Note 54.  Velocity 96
000000t:  Note on ::  Channel 0.  Note 57.  Velocity 96
000000t:  Note on ::  Channel 0.  Note 66.  Velocity 96
000455t:  Note on ::  Channel 0.  Note 54.  Velocity 0
000000t:  Note on ::  Channel 0.  Note 57.  Velocity 0
000000t:  Note on ::  Channel 0.  Note 66.  Velocity 0
000025t:  Note on ::  Channel 0.  Note 49.  Velocity 92
000000t:  Note on ::  Channel 0.  Note 52.  Velocity 92
000000t:  Note on ::  Channel 0.  Note 61.  Velocity 92
000227t:  Note on ::  Channel 0.  Note 49.  Velocity 0
000000t:  Note on ::  Channel 0.  Note 52.  Velocity 0
000000t:  Note on ::  Channel 0.  Note 61.  Velocity 0
000013t:  Note on ::  Channel 0.  Note 49.  Velocity 90
000000t:  Note on ::  Channel 0.  Note 52.  Velocity 90
000000t:  Note on ::  Channel 0.  Note 61.  Velocity 90
000455t:  Note on ::  Channel 0.  Note 49.  Velocity 0
000000t:  Note on ::  Channel 0.  Note 52.  Velocity 0
000000t:  Note on ::  Channel 0.  Note 61.  Velocity 0
000025t:  Note on ::  Channel 0.  Note 50.  Velocity 85
000000t:  Note on ::  Channel 0.  Note 54.  Velocity 85
000000t:  Note on ::  Channel 0.  Note 62.  Velocity 85
000455t:  Note on ::  Channel 0.  Note 50.  Velocity 0
000000t:  Note on ::  Channel 0.  Note 54.  Velocity 0
000000t:  Note on ::  Channel 0.  Note 62.  Velocity 0
000025t:  Note on ::  Channel 0.  Note 55.  Velocity 80
000000t:  Note on ::  Channel 0.  Note 59.  Velocity 80
000000t:  Note on ::  Channel 0.  Note 67.  Velocity 80
000683t:  Note on ::  Channel 0.  Note 55.  Velocity 0
000000t:  Note on ::  Channel 0.  Note 59.  Velocity 0
000000t:  Note on ::  Channel 0.  Note 67.  Velocity 0
000037t:  Note on ::  Channel 0.  Note 54.  Velocity 80
000000t:  Note on ::  Channel 0.  Note 57.  Velocity 80
000000t:  Note on ::  Channel 0.  Note 66.  Velocity 80
000455t:  Note on ::  Channel 0.  Note 54.  Velocity 0
000000t:  Note on ::  Channel 0.  Note 57.  Velocity 0
000000t:  Note on ::  Channel 0.  Note 66.  Velocity 0
000025t:  Note on ::  Channel 0.  Note 52.  Velocity 80
000000t:  Note on ::  Channel 0.  Note 55.  Velocity 80
000000t:  Note on ::  Channel 0.  Note 64.  Velocity 80
000455t:  Note on ::  Channel 0.  Note 52.  Velocity 0
000000t:  Note on ::  Channel 0.  Note 55.  Velocity 0
000000t:  Note on ::  Channel 0.  Note 64.  Velocity 0
000025t:  Note on ::  Channel 0.  Note 55.  Velocity 80
000000t:  Note on ::  Channel 0.  Note 59.  Velocity 80
000000t:  Note on ::  Channel 0.  Note 67.  Velocity 80
000455t:  Note on ::  Channel 0.  Note 55.  Velocity 0
000000t:  Note on ::  Channel 0.  Note 59.  Velocity 0
000000t:  Note on ::  Channel 0.  Note 67.  Velocity 0
000025t:  Note on ::  Channel 0.  Note 54.  Velocity 77
000000t:  Note on ::  Channel 0.  Note 57.  Velocity 77
000000t:  Note on ::  Channel 0.  Note 66.  Velocity 77
000455t:  Note on ::  Channel 0.  Note 54.  Velocity 0
000000t:  Note on ::  Channel 0.  Note 57.  Velocity 0
000000t:  Note on ::  Channel 0.  Note 66.  Velocity 0
000025t:  Note on ::  Channel 0.  Note 49.  Velocity 69
000000t:  Note on ::  Channel 0.  Note 52.  Velocity 69
000000t:  Note on ::  Channel 0.  Note 61.  Velocity 69
000227t:  Note on ::  Channel 0.  Note 49.  Velocity 0
000000t:  Note on ::  Channel 0.  Note 52.  Velocity 0
000000t:  Note on ::  Channel 0.  Note 61.  Velocity 0
000013t:  Note on ::  Channel 0.  Note 49.  Velocity 65
000000t:  Note on ::  Channel 0.  Note 52.  Velocity 65
000000t:  Note on ::  Channel 0.  Note 61.  Velocity 65
000455t:  Note on ::  Channel 0.  Note 49.  Velocity 0
000000t:  Note on ::  Channel 0.  Note 52.  Velocity 0
000000t:  Note on ::  Channel 0.  Note 61.  Velocity 0
000025t:  Note on ::  Channel 0.  Note 50.  Velocity 57
000000t:  Note on ::  Channel 0.  Note 54.  Velocity 57
000000t:  Note on ::  Channel 0.  Note 62.  Velocity 57
000455t:  Note on ::  Channel 0.  Note 50.  Velocity 0
000000t:  Note on ::  Channel 0.  Note 54.  Velocity 0
000000t:  Note on ::  Channel 0.  Note 62.  Velocity 0
000025t:  Note on ::  Channel 0.  Note 57.  Velocity 49
000000t:  Note on ::  Channel 0.  Note 61.  Velocity 49
000000t:  Note on ::  Channel 0.  Note 64.  Velocity 49
000227t:  Note on ::  Channel 0.  Note 57.  Velocity 0
000000t:  Note on ::  Channel 0.  Note 61.  Velocity 0
000000t:  Note on ::  Channel 0.  Note 64.  Velocity 0
000013t:  Note on ::  Channel 0.  Note 52.  Velocity 80
000227t:  Note on ::  Channel 0.  Note 52.  Velocity 0
000013t:  Note on ::  Channel 0.  Note 57.  Velocity 80
000000t:  Note on ::  Channel 0.  Note 61.  Velocity 80
000000t:  Note on ::  Channel 0.  Note 64.  Velocity 80
000227t:  Note on ::  Channel 0.  Note 57.  Velocity 0
000000t:  Note on ::  Channel 0.  Note 61.  Velocity 0
000000t:  Note on ::  Channel 0.  Note 64.  Velocity 0
000013t:  Note on ::  Channel 0.  Note 52.  Velocity 80
000227t:  Note on ::  Channel 0.  Note 52.  Velocity 0
000013t:  Note on ::  Channel 0.  Note 57.  Velocity 80
000000t:  Note on ::  Channel 0.  Note 61.  Velocity 80
000000t:  Note on ::  Channel 0.  Note 64.  Velocity 80
000227t:  Note on ::  Channel 0.  Note 57.  Velocity 0
000000t:  Note on ::  Channel 0.  Note 61.  Velocity 0
000000t:  Note on ::  Channel 0.  Note 64.  Velocity 0
000013t:  Note on ::  Channel 0.  Note 52.  Velocity 80
000227t:  Note on ::  Channel 0.  Note 52.  Velocity 0
000013t:  Note on ::  Channel 0.  Note 57.  Velocity 80
000000t:  Note on ::  Channel 0.  Note 61.  Velocity 80
000000t:  Note on ::  Channel 0.  Note 64.  Velocity 80
000455t:  Note on ::  Channel 0.  Note 57.  Velocity 0
000000t:  Note on ::  Channel 0.  Note 61.  Velocity 0
000000t:  Note on ::  Channel 0.  Note 64.  Velocity 0
000025t:  Note on ::  Channel 0.  Note 56.  Velocity 80
000000t:  Note on ::  Channel 0.  Note 61.  Velocity 80
000000t:  Note on ::  Channel 0.  Note 65.  Velocity 80
000455t:  Note on ::  Channel 0.  Note 56.  Velocity 0
000000t:  Note on ::  Channel 0.  Note 61.  Velocity 0
000000t:  Note on ::  Channel 0.  Note 65.  Velocity 0
000025t:  Note on ::  Channel 0.  Note 56.  Velocity 80
000000t:  Note on ::  Channel 0.  Note 61.  Velocity 80
000000t:  Note on ::  Channel 0.  Note 65.  Velocity 80
000227t:  Note on ::  Channel 0.  Note 56.  Velocity 0
000000t:  Note on ::  Channel 0.  Note 61.  Velocity 0
000000t:  Note on ::  Channel 0.  Note 65.  Velocity 0
000013t:  Note on ::  Channel 0.  Note 53.  Velocity 80
000227t:  Note on ::  Channel 0.  Note 53.  Velocity 0
000013t:  Note on ::  Channel 0.  Note 56.  Velocity 80
000000t:  Note on ::  Channel 0.  Note 59.  Velocity 80
000000t:  Note on ::  Channel 0.  Note 65.  Velocity 80
000227t:  Note on ::  Channel 0.  Note 56.  Velocity 0
000000t:  Note on ::  Channel 0.  Note 59.  Velocity 0
000000t:  Note on ::  Channel 0.  Note 65.  Velocity 0
000013t:  Note on ::  Channel 0.  Note 53.  Velocity 80
000227t:  Note on ::  Channel 0.  Note 53.  Velocity 0
000013t:  Note on ::  Channel 0.  Note 56.  Velocity 80
000000t:  Note on ::  Channel 0.  Note 61.  Velocity 80
000000t:  Note on ::  Channel 0.  Note 65.  Velocity 80
000227t:  Note on ::  Channel 0.  Note 56.  Velocity 0
000000t:  Note on ::  Channel 0.  Note 61.  Velocity 0
000000t:  Note on ::  Channel 0.  Note 65.  Velocity 0
000013t:  Note on ::  Channel 0.  Note 53.  Velocity 80
000227t:  Note on ::  Channel 0.  Note 53.  Velocity 0
000013t:  Note on ::  Channel 0.  Note 57.  Velocity 80
000000t:  Note on ::  Channel 0.  Note 62.  Velocity 80
000227t:  Note on ::  Channel 0.  Note 57.  Velocity 0
000000t:  Note on ::  Channel 0.  Note 62.  Velocity 0
000013t:  Note on ::  Channel 0.  Note 54.  Velocity 80
000227t:  Note on ::  Channel 0.  Note 54.  Velocity 0
000013t:  Note on ::  Channel 0.  Note 57.  Velocity 80
000000t:  Note on ::  Channel 0.  Note 62.  Velocity 80
000227t:  Note on ::  Channel 0.  Note 57.  Velocity 0
000000t:  Note on ::  Channel 0.  Note 62.  Velocity 0
000013t:  Note on ::  Channel 0.  Note 54.  Velocity 80
000227t:  Note on ::  Channel 0.  Note 54.  Velocity 0
000013t:  Note on ::  Channel 0.  Note 57.  Velocity 80
000000t:  Note on ::  Channel 0.  Note 62.  Velocity 80
000227t:  Note on ::  Channel 0.  Note 57.  Velocity 0
000000t:  Note on ::  Channel 0.  Note 62.  Velocity 0
000013t:  Note on ::  Channel 0.  Note 54.  Velocity 80
000227t:  Note on ::  Channel 0.  Note 54.  Velocity 0
000013t:  Note on ::  Channel 0.  Note 57.  Velocity 80
000000t:  Note on ::  Channel 0.  Note 62.  Velocity 80
000227t:  Note on ::  Channel 0.  Note 57.  Velocity 0
000000t:  Note on ::  Channel 0.  Note 62.  Velocity 0
000013t:  Note on ::  Channel 0.  Note 54.  Velocity 80
000227t:  Note on ::  Channel 0.  Note 54.  Velocity 0
000013t:  Note on ::  Channel 0.  Note 57.  Velocity 80
000000t:  Note on ::  Channel 0.  Note 62.  Velocity 80
000227t:  Note on ::  Channel 0.  Note 57.  Velocity 0
000000t:  Note on ::  Channel 0.  Note 62.  Velocity 0
000013t:  Note on ::  Channel 0.  Note 53.  Velocity 80
000227t:  Note on ::  Channel 0.  Note 53.  Velocity 0
000013t:  Note on ::  Channel 0.  Note 57.  Velocity 80
000000t:  Note on ::  Channel 0.  Note 62.  Velocity 80
000227t:  Note on ::  Channel 0.  Note 57.  Velocity 0
000000t:  Note on ::  Channel 0.  Note 62.  Velocity 0
000013t:  Note on ::  Channel 0.  Note 53.  Velocity 80
000227t:  Note on ::  Channel 0.  Note 53.  Velocity 0
000013t:  Note on ::  Channel 0.  Note 57.  Velocity 80
000000t:  Note on ::  Channel 0.  Note 62.  Velocity 80
000227t:  Note on ::  Channel 0.  Note 57.  Velocity 0
000000t:  Note on ::  Channel 0.  Note 62.  Velocity 0
000013t:  Note on ::  Channel 0.  Note 53.  Velocity 80
000227t:  Note on ::  Channel 0.  Note 53.  Velocity 0
000013t:  Note on ::  Channel 0.  Note 53.  Velocity 80
000000t:  Note on ::  Channel 0.  Note 57.  Velocity 80
000000t:  Note on ::  Channel 0.  Note 62.  Velocity 80
000455t:  Note on ::  Channel 0.  Note 53.  Velocity 0
000000t:  Note on ::  Channel 0.  Note 57.  Velocity 0
000000t:  Note on ::  Channel 0.  Note 62.  Velocity 0
000025t:  Note on ::  Channel 0.  Note 57.  Velocity 80
000000t:  Note on ::  Channel 0.  Note 61.  Velocity 80
000000t:  Note on ::  Channel 0.  Note 64.  Velocity 80
000227t:  Note on ::  Channel 0.  Note 57.  Velocity 0
000000t:  Note on ::  Channel 0.  Note 61.  Velocity 0
000000t:  Note on ::  Channel 0.  Note 64.  Velocity 0
000013t:  Note on ::  Channel 0.  Note 52.  Velocity 80
000227t:  Note on ::  Channel 0.  Note 52.  Velocity 0
000013t:  Note on ::  Channel 0.  Note 57.  Velocity 80
000000t:  Note on ::  Channel 0.  Note 61.  Velocity 80
000000t:  Note on ::  Channel 0.  Note 64.  Velocity 80
000227t:  Note on ::  Channel 0.  Note 57.  Velocity 0
000000t:  Note on ::  Channel 0.  Note 61.  Velocity 0
000000t:  Note on ::  Channel 0.  Note 64.  Velocity 0
000013t:  Note on ::  Channel 0.  Note 52.  Velocity 80
000227t:  Note on ::  Channel 0.  Note 52.  Velocity 0
000013t:  Note on ::  Channel 0.  Note 57.  Velocity 80
000000t:  Note on ::  Channel 0.  Note 61.  Velocity 80
000000t:  Note on ::  Channel 0.  Note 64.  Velocity 80
000227t:  Note on ::  Channel 0.  Note 57.  Velocity 0
000000t:  Note on ::  Channel 0.  Note 61.  Velocity 0
000000t:  Note on ::  Channel 0.  Note 64.  Velocity 0
000013t:  Note on ::  Channel 0.  Note 52.  Velocity 80
000227t:  Note on ::  Channel 0.  Note 52.  Velocity 0
000013t:  Note on ::  Channel 0.  Note 57.  Velocity 80
000000t:  Note on ::  Channel 0.  Note 61.  Velocity 80
000000t:  Note on ::  Channel 0.  Note 64.  Velocity 80
000227t:  Note on ::  Channel 0.  Note 57.  Velocity 0
000000t:  Note on ::  Channel 0.  Note 61.  Velocity 0
000000t:  Note on ::  Channel 0.  Note 64.  Velocity 0
000013t:  Note on ::  Channel 0.  Note 52.  Velocity 80
000227t:  Note on ::  Channel 0.  Note 52.  Velocity 0
000013t:  Note on ::  Channel 0.  Note 55.  Velocity 80
000000t:  Note on ::  Channel 0.  Note 61.  Velocity 80
000000t:  Note on ::  Channel 0.  Note 64.  Velocity 80
000227t:  Note on ::  Channel 0.  Note 55.  Velocity 0
000000t:  Note on ::  Channel 0.  Note 61.  Velocity 0
000000t:  Note on ::  Channel 0.  Note 64.  Velocity 0
000013t:  Note on ::  Channel 0.  Note 52.  Velocity 80
000227t:  Note on ::  Channel 0.  Note 52.  Velocity 0
000013t:  Note on ::  Channel 0.  Note 55.  Velocity 80
000000t:  Note on ::  Channel 0.  Note 61.  Velocity 80
000000t:  Note on ::  Channel 0.  Note 64.  Velocity 80
000227t:  Note on ::  Channel 0.  Note 55.  Velocity 0
000000t:  Note on ::  Channel 0.  Note 61.  Velocity 0
000000t:  Note on ::  Channel 0.  Note 64.  Velocity 0
000013t:  Note on ::  Channel 0.  Note 52.  Velocity 80
000227t:  Note on ::  Channel 0.  Note 52.  Velocity 0
000013t:  Note on ::  Channel 0.  Note 55.  Velocity 80
000000t:  Note on ::  Channel 0.  Note 61.  Velocity 80
000000t:  Note on ::  Channel 0.  Note 64.  Velocity 80
000227t:  Note on ::  Channel 0.  Note 55.  Velocity 0
000000t:  Note on ::  Channel 0.  Note 61.  Velocity 0
000000t:  Note on ::  Channel 0.  Note 64.  Velocity 0
000013t:  Note on ::  Channel 0.  Note 52.  Velocity 80
000227t:  Note on ::  Channel 0.  Note 52.  Velocity 0
000013t:  Note on ::  Channel 0.  Note 55.  Velocity 80
000000t:  Note on ::  Channel 0.  Note 61.  Velocity 80
000000t:  Note on ::  Channel 0.  Note 64.  Velocity 80
000227t:  Note on ::  Channel 0.  Note 55.  Velocity 0
000000t:  Note on ::  Channel 0.  Note 61.  Velocity 0
000000t:  Note on ::  Channel 0.  Note 64.  Velocity 0
000013t:  Note on ::  Channel 0.  Note 52.  Velocity 80
000227t:  Note on ::  Channel 0.  Note 52.  Velocity 0
000013t:  Note on ::  Channel 0.  Note 57.  Velocity 80
000000t:  Note on ::  Channel 0.  Note 61.  Velocity 80
000000t:  Note on ::  Channel 0.  Note 66.  Velocity 80
000227t:  Note on ::  Channel 0.  Note 57.  Velocity 0
000000t:  Note on ::  Channel 0.  Note 61.  Velocity 0
000000t:  Note on ::  Channel 0.  Note 66.  Velocity 0
000013t:  Note on ::  Channel 0.  Note 50.  Velocity 80
000227t:  Note on ::  Channel 0.  Note 50.  Velocity 0
000013t:  Note on ::  Channel 0.  Note 57.  Velocity 80
000000t:  Note on ::  Channel 0.  Note 61.  Velocity 80
000000t:  Note on ::  Channel 0.  Note 66.  Velocity 80
000227t:  Note on ::  Channel 0.  Note 57.  Velocity 0
000000t:  Note on ::  Channel 0.  Note 61.  Velocity 0
000000t:  Note on ::  Channel 0.  Note 66.  Velocity 0
000013t:  Note on ::  Channel 0.  Note 50.  Velocity 80
000227t:  Note on ::  Channel 0.  Note 50.  Velocity 0
000013t:  Note on ::  Channel 0.  Note 56.  Velocity 80
000000t:  Note on ::  Channel 0.  Note 59.  Velocity 80
000000t:  Note on ::  Channel 0.  Note 62.  Velocity 80
000227t:  Note on ::  Channel 0.  Note 56.  Velocity 0
000000t:  Note on ::  Channel 0.  Note 59.  Velocity 0
000000t:  Note on ::  Channel 0.  Note 62.  Velocity 0
000013t:  Note on ::  Channel 0.  Note 50.  Velocity 80
000227t:  Note on ::  Channel 0.  Note 50.  Velocity 0
000013t:  Note on ::  Channel 0.  Note 56.  Velocity 80
000000t:  Note on ::  Channel 0.  Note 59.  Velocity 80
000000t:  Note on ::  Channel 0.  Note 62.  Velocity 80
000227t:  Note on ::  Channel 0.  Note 56.  Velocity 0
000000t:  Note on ::  Channel 0.  Note 59.  Velocity 0
000000t:  Note on ::  Channel 0.  Note 62.  Velocity 0
000013t:  Note on ::  Channel 0.  Note 50.  Velocity 80
000227t:  Note on ::  Channel 0.  Note 50.  Velocity 0
000013t:  Note on ::  Channel 0.  Note 57.  Velocity 80
000000t:  Note on ::  Channel 0.  Note 61.  Velocity 80
000000t:  Note on ::  Channel 0.  Note 64.  Velocity 80
000227t:  Note on ::  Channel 0.  Note 57.  Velocity 0
000000t:  Note on ::  Channel 0.  Note 61.  Velocity 0
000000t:  Note on ::  Channel 0.  Note 64.  Velocity 0
000013t:  Note on ::  Channel 0.  Note 52.  Velocity 80
000227t:  Note on ::  Channel 0.  Note 52.  Velocity 0
000013t:  Note on ::  Channel 0.  Note 57.  Velocity 80
000000t:  Note on ::  Channel 0.  Note 61.  Velocity 80
000000t:  Note on ::  Channel 0.  Note 64.  Velocity 80
000227t:  Note on ::  Channel 0.  Note 57.  Velocity 0
000000t:  Note on ::  Channel 0.  Note 61.  Velocity 0
000000t:  Note on ::  Channel 0.  Note 64.  Velocity 0
000013t:  Note on ::  Channel 0.  Note 52.  Velocity 80
000227t:  Note on ::  Channel 0.  Note 52.  Velocity 0
000013t:  Note on ::  Channel 0.  Note 61.  Velocity 80
000000t:  Note on ::  Channel 0.  Note 62.  Velocity 80
000000t:  Note on ::  Channel 0.  Note 68.  Velocity 80
000227t:  Note on ::  Channel 0.  Note 61.  Velocity 0
000000t:  Note on ::  Channel 0.  Note 62.  Velocity 0
000000t:  Note on ::  Channel 0.  Note 68.  Velocity 0
000013t:  Note on ::  Channel 0.  Note 52.  Velocity 80
000227t:  Note on ::  Channel 0.  Note 52.  Velocity 0
000013t:  Note on ::  Channel 0.  Note 61.  Velocity 80
000000t:  Note on ::  Channel 0.  Note 64.  Velocity 80
000000t:  Note on ::  Channel 0.  Note 68.  Velocity 80
000227t:  Note on ::  Channel 0.  Note 61.  Velocity 0
000000t:  Note on ::  Channel 0.  Note 64.  Velocity 0
000000t:  Note on ::  Channel 0.  Note 68.  Velocity 0
000013t:  Note on ::  Channel 0.  Note 52.  Velocity 80
000227t:  Note on ::  Channel 0.  Note 52.  Velocity 0
000013t:  Note on ::  Channel 0.  Note 59.  Velocity 80
000000t:  Note on ::  Channel 0.  Note 61.  Velocity 80
000000t:  Note on ::  Channel 0.  Note 69.  Velocity 80
000227t:  Note on ::  Channel 0.  Note 59.  Velocity 0
000000t:  Note on ::  Channel 0.  Note 61.  Velocity 0
000000t:  Note on ::  Channel 0.  Note 69.  Velocity 0
000013t:  Note on ::  Channel 0.  Note 54.  Velocity 80
000227t:  Note on ::  Channel 0.  Note 54.  Velocity 0
000013t:  Note on ::  Channel 0.  Note 59.  Velocity 80
000000t:  Note on ::  Channel 0.  Note 61.  Velocity 80
000000t:  Note on ::  Channel 0.  Note 69.  Velocity 80
000227t:  Note on ::  Channel 0.  Note 59.  Velocity 0
000000t:  Note on ::  Channel 0.  Note 61.  Velocity 0
000000t:  Note on ::  Channel 0.  Note 69.  Velocity 0
000013t:  Note on ::  Channel 0.  Note 54.  Velocity 80
000227t:  Note on ::  Channel 0.  Note 54.  Velocity 0
000013t:  Note on ::  Channel 0.  Note 57.  Velocity 80
000000t:  Note on ::  Channel 0.  Note 61.  Velocity 80
000000t:  Note on ::  Channel 0.  Note 66.  Velocity 80
000455t:  Note on ::  Channel 0.  Note 57.  Velocity 0
000000t:  Note on ::  Channel 0.  Note 61.  Velocity 0
000000t:  Note on ::  Channel 0.  Note 66.  Velocity 0
000025t:  Note on ::  Channel 0.  Note 57.  Velocity 80
000000t:  Note on ::  Channel 0.  Note 61.  Velocity 80
000000t:  Note on ::  Channel 0.  Note 66.  Velocity 80
000455t:  Note on ::  Channel 0.  Note 57.  Velocity 0
000000t:  Note on ::  Channel 0.  Note 61.  Velocity 0
000000t:  Note on ::  Channel 0.  Note 66.  Velocity 0
000025t:  Note on ::  Channel 0.  Note 59.  Velocity 80
000000t:  Note on ::  Channel 0.  Note 64.  Velocity 80
000000t:  Note on ::  Channel 0.  Note 66.  Velocity 80
000455t:  Note on ::  Channel 0.  Note 59.  Velocity 0
000000t:  Note on ::  Channel 0.  Note 64.  Velocity 0
000000t:  Note on ::  Channel 0.  Note 66.  Velocity 0
000025t:  Note on ::  Channel 0.  Note 59.  Velocity 80
000000t:  Note on ::  Channel 0.  Note 64.  Velocity 80
000000t:  Note on ::  Channel 0.  Note 66.  Velocity 80
000455t:  Note on ::  Channel 0.  Note 59.  Velocity 0
000000t:  Note on ::  Channel 0.  Note 64.  Velocity 0
000000t:  Note on ::  Channel 0.  Note 66.  Velocity 0
000025t:  Note on ::  Channel 0.  Note 59.  Velocity 80
000000t:  Note on ::  Channel 0.  Note 63.  Velocity 80
000000t:  Note on ::  Channel 0.  Note 66.  Velocity 80
000455t:  Note on ::  Channel 0.  Note 59.  Velocity 0
000000t:  Note on ::  Channel 0.  Note 63.  Velocity 0
000000t:  Note on ::  Channel 0.  Note 66.  Velocity 0
000025t:  Note on ::  Channel 0.  Note 59.  Velocity 80
000000t:  Note on ::  Channel 0.  Note 63.  Velocity 80
000000t:  Note on ::  Channel 0.  Note 66.  Velocity 80
000455t:  Note on ::  Channel 0.  Note 59.  Velocity 0
000000t:  Note on ::  Channel 0.  Note 63.  Velocity 0
000000t:  Note on ::  Channel 0.  Note 66.  Velocity 0
000025t:  Note on ::  Channel 0.  Note 57.  Velocity 80
000000t:  Note on ::  Channel 0.  Note 62.  Velocity 80
000000t:  Note on ::  Channel 0.  Note 66.  Velocity 80
000000t:  Note on ::  Channel 0.  Note 69.  Velocity 80
000455t:  Note on ::  Channel 0.  Note 57.  Velocity 0
000000t:  Note on ::  Channel 0.  Note 62.  Velocity 0
000000t:  Note on ::  Channel 0.  Note 66.  Velocity 0
000000t:  Note on ::  Channel 0.  Note 69.  Velocity 0
000025t:  Note on ::  Channel 0.  Note 57.  Velocity 80
000000t:  Note on ::  Channel 0.  Note 62.  Velocity 80
000000t:  Note on ::  Channel 0.  Note 66.  Velocity 80
000000t:  Note on ::  Channel 0.  Note 69.  Velocity 80
000455t:  Note on ::  Channel 0.  Note 57.  Velocity 0
000000t:  Note on ::  Channel 0.  Note 62.  Velocity 0
000000t:  Note on ::  Channel 0.  Note 66.  Velocity 0
000000t:  Note on ::  Channel 0.  Note 69.  Velocity 0
000025t:  Note on ::  Channel 0.  Note 57.  Velocity 80
000000t:  Note on ::  Channel 0.  Note 61.  Velocity 80
000000t:  Note on ::  Channel 0.  Note 64.  Velocity 80
000000t:  Note on ::  Channel 0.  Note 69.  Velocity 80
000455t:  Note on ::  Channel 0.  Note 57.  Velocity 0
000000t:  Note on ::  Channel 0.  Note 61.  Velocity 0
000000t:  Note on ::  Channel 0.  Note 64.  Velocity 0
000000t:  Note on ::  Channel 0.  Note 69.  Velocity 0
000025t:  Note on ::  Channel 0.  Note 57.  Velocity 80
000000t:  Note on ::  Channel 0.  Note 61.  Velocity 80
000000t:  Note on ::  Channel 0.  Note 64.  Velocity 80
000000t:  Note on ::  Channel 0.  Note 69.  Velocity 80
000455t:  Note on ::  Channel 0.  Note 57.  Velocity 0
000000t:  Note on ::  Channel 0.  Note 61.  Velocity 0
000000t:  Note on ::  Channel 0.  Note 64.  Velocity 0
000000t:  Note on ::  Channel 0.  Note 69.  Velocity 0
000025t:  Note on ::  Channel 0.  Note 56.  Velocity 80
000000t:  Note on ::  Channel 0.  Note 59.  Velocity 80
000000t:  Note on ::  Channel 0.  Note 64.  Velocity 80
000000t:  Note on ::  Channel 0.  Note 68.  Velocity 80
000455t:  Note on ::  Channel 0.  Note 56.  Velocity 0
000000t:  Note on ::  Channel 0.  Note 59.  Velocity 0
000000t:  Note on ::  Channel 0.  Note 64.  Velocity 0
000000t:  Note on ::  Channel 0.  Note 68.  Velocity 0
000025t:  Note on ::  Channel 0.  Note 56.  Velocity 80
000000t:  Note on ::  Channel 0.  Note 59.  Velocity 80
000000t:  Note on ::  Channel 0.  Note 64.  Velocity 80
000000t:  Note on ::  Channel 0.  Note 68.  Velocity 80
000455t:  Note on ::  Channel 0.  Note 56.  Velocity 0
000000t:  Note on ::  Channel 0.  Note 59.  Velocity 0
000000t:  Note on ::  Channel 0.  Note 64.  Velocity 0
000000t:  Note on ::  Channel 0.  Note 68.  Velocity 0
000025t:  Note on ::  Channel 0.  Note 56.  Velocity 80
000000t:  Note on ::  Channel 0.  Note 59.  Velocity 80
000000t:  Note on ::  Channel 0.  Note 64.  Velocity 80
000000t:  Note on ::  Channel 0.  Note 68.  Velocity 80
000455t:  Note on ::  Channel 0.  Note 56.  Velocity 0
000000t:  Note on ::  Channel 0.  Note 59.  Velocity 0
000000t:  Note on ::  Channel 0.  Note 64.  Velocity 0
000000t:  Note on ::  Channel 0.  Note 68.  Velocity 0
000025t:  Note on ::  Channel 0.  Note 56.  Velocity 80
000000t:  Note on ::  Channel 0.  Note 59.  Velocity 80
000000t:  Note on ::  Channel 0.  Note 64.  Velocity 80
000000t:  Note on ::  Channel 0.  Note 68.  Velocity 80
000455t:  Note on ::  Channel 0.  Note 56.  Velocity 0
000000t:  Note on ::  Channel 0.  Note 59.  Velocity 0
000000t:  Note on ::  Channel 0.  Note 64.  Velocity 0
000000t:  Note on ::  Channel 0.  Note 68.  Velocity 0
000025t:  Note on ::  Channel 0.  Note 59.  Velocity 80
000000t:  Note on ::  Channel 0.  Note 61.  Velocity 80
000000t:  Note on ::  Channel 0.  Note 66.  Velocity 80
000455t:  Note on ::  Channel 0.  Note 59.  Velocity 0
000000t:  Note on ::  Channel 0.  Note 61.  Velocity 0
000000t:  Note on ::  Channel 0.  Note 66.  Velocity 0
000025t:  Note on ::  Channel 0.  Note 59.  Velocity 80
000000t:  Note on ::  Channel 0.  Note 61.  Velocity 80
000000t:  Note on ::  Channel 0.  Note 66.  Velocity 80
000455t:  Note on ::  Channel 0.  Note 59.  Velocity 0
000000t:  Note on ::  Channel 0.  Note 61.  Velocity 0
000000t:  Note on ::  Channel 0.  Note 66.  Velocity 0
000025t:  Note on ::  Channel 0.  Note 57.  Velocity 80
000000t:  Note on ::  Channel 0.  Note 61.  Velocity 80
000000t:  Note on ::  Channel 0.  Note 66.  Velocity 80
000455t:  Note on ::  Channel 0.  Note 57.  Velocity 0
000000t:  Note on ::  Channel 0.  Note 61.  Velocity 0
000000t:  Note on ::  Channel 0.  Note 66.  Velocity 0
000025t:  Note on ::  Channel 0.  Note 57.  Velocity 80
000000t:  Note on ::  Channel 0.  Note 61.  Velocity 80
000000t:  Note on ::  Channel 0.  Note 66.  Velocity 80
000113t:  Note on ::  Channel 0.  Note 57.  Velocity 0
000000t:  Note on ::  Channel 0.  Note 61.  Velocity 0
000000t:  Note on ::  Channel 0.  Note 66.  Velocity 0
000007t:  Note on ::  Channel 0.  Note 59.  Velocity 80
000113t:  Note on ::  Channel 0.  Note 59.  Velocity 0
000007t:  Note on ::  Channel 0.  Note 57.  Velocity 80
000113t:  Note on ::  Channel 0.  Note 57.  Velocity 0
000007t:  Note on ::  Channel 0.  Note 56.  Velocity 80
000113t:  Note on ::  Channel 0.  Note 56.  Velocity 0
000007t:  Note on ::  Channel 0.  Note 56.  Velocity 80
000000t:  Note on ::  Channel 0.  Note 59.  Velocity 80
000000t:  Note on ::  Channel 0.  Note 64.  Velocity 80
000227t:  Note on ::  Channel 0.  Note 56.  Velocity 0
000000t:  Note on ::  Channel 0.  Note 59.  Velocity 0
000000t:  Note on ::  Channel 0.  Note 64.  Velocity 0
000013t:  Note on ::  Channel 0.  Note 52.  Velocity 80
000227t:  Note on ::  Channel 0.  Note 52.  Velocity 0
000013t:  Note on ::  Channel 0.  Note 56.  Velocity 80
000000t:  Note on ::  Channel 0.  Note 59.  Velocity 80
000000t:  Note on ::  Channel 0.  Note 64.  Velocity 80
000227t:  Note on ::  Channel 0.  Note 56.  Velocity 0
000000t:  Note on ::  Channel 0.  Note 59.  Velocity 0
000000t:  Note on ::  Channel 0.  Note 64.  Velocity 0
000013t:  Note on ::  Channel 0.  Note 52.  Velocity 80
000227t:  Note on ::  Channel 0.  Note 52.  Velocity 0
000013t:  Note on ::  Channel 0.  Note 56.  Velocity 80
000000t:  Note on ::  Channel 0.  Note 59.  Velocity 80
000000t:  Note on ::  Channel 0.  Note 64.  Velocity 80
000227t:  Note on ::  Channel 0.  Note 56.  Velocity 0
000000t:  Note on ::  Channel 0.  Note 59.  Velocity 0
000000t:  Note on ::  Channel 0.  Note 64.  Velocity 0
000013t:  Note on ::  Channel 0.  Note 52.  Velocity 80
000227t:  Note on ::  Channel 0.  Note 52.  Velocity 0
000013t:  Note on ::  Channel 0.  Note 56.  Velocity 80
000000t:  Note on ::  Channel 0.  Note 59.  Velocity 80
000000t:  Note on ::  Channel 0.  Note 64.  Velocity 80
000227t:  Note on ::  Channel 0.  Note 56.  Velocity 0
000000t:  Note on ::  Channel 0.  Note 59.  Velocity 0
000000t:  Note on ::  Channel 0.  Note 64.  Velocity 0
000013t:  Note on ::  Channel 0.  Note 52.  Velocity 80
000227t:  Note on ::  Channel 0.  Note 52.  Velocity 0
000013t:  Note on ::  Channel 0.  Note 56.  Velocity 80
000000t:  Note on ::  Channel 0.  Note 61.  Velocity 80
000000t:  Note on ::  Channel 0.  Note 65.  Velocity 80
000227t:  Note on ::  Channel 0.  Note 56.  Velocity 0
000000t:  Note on ::  Channel 0.  Note 61.  Velocity 0
000000t:  Note on ::  Channel 0.  Note 65.  Velocity 0
000013t:  Note on ::  Channel 0.  Note 52.  Velocity 80
000227t:  Note on ::  Channel 0.  Note 52.  Velocity 0
000013t:  Note on ::  Channel 0.  Note 56.  Velocity 80
000000t:  Note on ::  Channel 0.  Note 61.  Velocity 80
000000t:  Note on ::  Channel 0.  Note 65.  Velocity 80
000227t:  Note on ::  Channel 0.  Note 56.  Velocity 0
000000t:  Note on ::  Channel 0.  Note 61.  Velocity 0
000000t:  Note on ::  Channel 0.  Note 65.  Velocity 0
000013t:  Note on ::  Channel 0.  Note 54.  Velocity 80
000000t:  Note on ::  Channel 0.  Note 57.  Velocity 80
000000t:  Note on ::  Channel 0.  Note 61.  Velocity 80
000000t:  Note on ::  Channel 0.  Note 66.  Velocity 80
000683t:  Note on ::  Channel 0.  Note 54.  Velocity 0
000000t:  Note on ::  Channel 0.  Note 57.  Velocity 0
000000t:  Note on ::  Channel 0.  Note 61.  Velocity 0
000000t:  Note on ::  Channel 0.  Note 66.  Velocity 0
000037t:  Note on ::  Channel 0.  Note 58.  Velocity 80
000000t:  Note on ::  Channel 0.  Note 61.  Velocity 80
000000t:  Note on ::  Channel 0.  Note 66.  Velocity 80
000455t:  Note on ::  Channel 0.  Note 58.  Velocity 0
000000t:  Note on ::  Channel 0.  Note 61.  Velocity 0
000000t:  Note on ::  Channel 0.  Note 66.  Velocity 0
000025t:  Note on ::  Channel 0.  Note 59.  Velocity 80
000000t:  Note on ::  Channel 0.  Note 62.  Velocity 80
000000t:  Note on ::  Channel 0.  Note 66.  Velocity 80
000227t:  Note on ::  Channel 0.  Note 59.  Velocity 0
000000t:  Note on ::  Channel 0.  Note 62.  Velocity 0
000000t:  Note on ::  Channel 0.  Note 66.  Velocity 0
000013t:  Note on ::  Channel 0.  Note 54.  Velocity 80
000227t:  Note on ::  Channel 0.  Note 54.  Velocity 0
000013t:  Note on ::  Channel 0.  Note 59.  Velocity 80
000000t:  Note on ::  Channel 0.  Note 62.  Velocity 80
000000t:  Note on ::  Channel 0.  Note 66.  Velocity 80
000227t:  Note on ::  Channel 0.  Note 59.  Velocity 0
000000t:  Note on ::  Channel 0.  Note 62.  Velocity 0
000000t:  Note on ::  Channel 0.  Note 66.  Velocity 0
000013t:  Note on ::  Channel 0.  Note 54.  Velocity 80
000227t:  Note on ::  Channel 0.  Note 54.  Velocity 0
000013t:  Note on ::  Channel 0.  Note 57.  Velocity 80
000000t:  Note on ::  Channel 0.  Note 62.  Velocity 80
000000t:  Note on ::  Channel 0.  Note 66.  Velocity 80
000227t:  Note on ::  Channel 0.  Note 57.  Velocity 0
000000t:  Note on ::  Channel 0.  Note 62.  Velocity 0
000000t:  Note on ::  Channel 0.  Note 66.  Velocity 0
000013t:  Note on ::  Channel 0.  Note 54.  Velocity 80
000227t:  Note on ::  Channel 0.  Note 54.  Velocity 0
000013t:  Note on ::  Channel 0.  Note 57.  Velocity 80
000000t:  Note on ::  Channel 0.  Note 62.  Velocity 80
000000t:  Note on ::  Channel 0.  Note 66.  Velocity 80
000227t:  Note on ::  Channel 0.  Note 57.  Velocity 0
000000t:  Note on ::  Channel 0.  Note 62.  Velocity 0
000000t:  Note on ::  Channel 0.  Note 66.  Velocity 0
000013t:  Note on ::  Channel 0.  Note 54.  Velocity 80
000227t:  Note on ::  Channel 0.  Note 54.  Velocity 0
000013t:  Note on ::  Channel 0.  Note 57.  Velocity 80
000000t:  Note on ::  Channel 0.  Note 61.  Velocity 80
000000t:  Note on ::  Channel 0.  Note 64.  Velocity 80
000227t:  Note on ::  Channel 0.  Note 57.  Velocity 0
000000t:  Note on ::  Channel 0.  Note 61.  Velocity 0
000000t:  Note on ::  Channel 0.  Note 64.  Velocity 0
000013t:  Note on ::  Channel 0.  Note 52.  Velocity 80
000227t:  Note on ::  Channel 0.  Note 52.  Velocity 0
000013t:  Note on ::  Channel 0.  Note 57.  Velocity 80
000000t:  Note on ::  Channel 0.  Note 61.  Velocity 80
000000t:  Note on ::  Channel 0.  Note 64.  Velocity 80
000227t:  Note on ::  Channel 0.  Note 57.  Velocity 0
000000t:  Note on ::  Channel 0.  Note 61.  Velocity 0
000000t:  Note on ::  Channel 0.  Note 64.  Velocity 0
000013t:  Note on ::  Channel 0.  Note 52.  Velocity 80
000227t:  Note on ::  Channel 0.  Note 52.  Velocity 0
000013t:  Note on ::  Channel 0.  Note 61.  Velocity 80
000000t:  Note on ::  Channel 0.  Note 64.  Velocity 80
000000t:  Note on ::  Channel 0.  Note 69.  Velocity 80
000227t:  Note on ::  Channel 0.  Note 61.  Velocity 0
000000t:  Note on ::  Channel 0.  Note 64.  Velocity 0
000000t:  Note on ::  Channel 0.  Note 69.  Velocity 0
000013t:  Note on ::  Channel 0.  Note 57.  Velocity 80
000227t:  Note on ::  Channel 0.  Note 57.  Velocity 0
000013t:  Note on ::  Channel 0.  Note 61.  Velocity 80
000000t:  Note on ::  Channel 0.  Note 64.  Velocity 80
000000t:  Note on ::  Channel 0.  Note 69.  Velocity 80
000227t:  Note on ::  Channel 0.  Note 61.  Velocity 0
000000t:  Note on ::  Channel 0.  Note 64.  Velocity 0
000000t:  Note on ::  Channel 0.  Note 69.  Velocity 0
000013t:  Note on ::  Channel 0.  Note 57.  Velocity 80
000227t:  Note on ::  Channel 0.  Note 57.  Velocity 0
000013t:  Note on ::  Channel 0.  Note 59.  Velocity 80
000000t:  Note on ::  Channel 0.  Note 62.  Velocity 80
000000t:  Note on ::  Channel 0.  Note 66.  Velocity 80
000227t:  Note on ::  Channel 0.  Note 59.  Velocity 0
000000t:  Note on ::  Channel 0.  Note 62.  Velocity 0
000000t:  Note on ::  Channel 0.  Note 66.  Velocity 0
000013t:  Note on ::  Channel 0.  Note 54.  Velocity 80
000227t:  Note on ::  Channel 0.  Note 54.  Velocity 0
000013t:  Note on ::  Channel 0.  Note 59.  Velocity 80
000000t:  Note on ::  Channel 0.  Note 62.  Velocity 80
000000t:  Note on ::  Channel 0.  Note 66.  Velocity 80
000227t:  Note on ::  Channel 0.  Note 59.  Velocity 0
000000t:  Note on ::  Channel 0.  Note 62.  Velocity 0
000000t:  Note on ::  Channel 0.  Note 66.  Velocity 0
000013t:  Note on ::  Channel 0.  Note 54.  Velocity 80
000227t:  Note on ::  Channel 0.  Note 54.  Velocity 0
000013t:  Note on ::  Channel 0.  Note 59.  Velocity 80
000000t:  Note on ::  Channel 0.  Note 62.  Velocity 80
000000t:  Note on ::  Channel 0.  Note 66.  Velocity 80
000227t:  Note on ::  Channel 0.  Note 59.  Velocity 0
000000t:  Note on ::  Channel 0.  Note 62.  Velocity 0
000000t:  Note on ::  Channel 0.  Note 66.  Velocity 0
000013t:  Note on ::  Channel 0.  Note 54.  Velocity 80
000227t:  Note on ::  Channel 0.  Note 54.  Velocity 0
000013t:  Note on ::  Channel 0.  Note 59.  Velocity 80
000000t:  Note on ::  Channel 0.  Note 62.  Velocity 80
000000t:  Note on ::  Channel 0.  Note 66.  Velocity 80
000227t:  Note on ::  Channel 0.  Note 59.  Velocity 0
000000t:  Note on ::  Channel 0.  Note 62.  Velocity 0
000000t:  Note on ::  Channel 0.  Note 66.  Velocity 0
000013t:  Note on ::  Channel 0.  Note 54.  Velocity 80
000113t:  Note on ::  Channel 0.  Note 54.  Velocity 0
000007t:  Note on ::  Channel 0.  Note 62.  Velocity 80
000113t:  Note on ::  Channel 0.  Note 62.  Velocity 0
000007t:  Note on ::  Channel 0.  Note 62.  Velocity 80
000227t:  Note on ::  Channel 0.  Note 62.  Velocity 0
000013t:  Note on ::  Channel 0.  Note 57.  Velocity 80
000227t:  Note on ::  Channel 0.  Note 57.  Velocity 0
000013t:  Note on ::  Channel 0.  Note 62.  Velocity 80
000227t:  Note on ::  Channel 0.  Note 62.  Velocity 0
000013t:  Note on ::  Channel 0.  Note 69.  Velocity 80
000455t:  Note on ::  Channel 0.  Note 69.  Velocity 0
000025t:  Note on ::  Channel 0.  Note 62.  Velocity 80
000227t:  Note on ::  Channel 0.  Note 62.  Velocity 0
000013t:  Note on ::  Channel 0.  Note 62.  Velocity 80
000113t:  Note on ::  Channel 0.  Note 62.  Velocity 0
000007t:  Note on ::  Channel 0.  Note 62.  Velocity 80
000113t:  Note on ::  Channel 0.  Note 62.  Velocity 0
000007t:  Note on ::  Channel 0.  Note 62.  Velocity 80
000113t:  Note on ::  Channel 0.  Note 62.  Velocity 0
000007t:  Note on ::  Channel 0.  Note 62.  Velocity 80
000113t:  Note on ::  Channel 0.  Note 62.  Velocity 0
000007t:  Note on ::  Channel 0.  Note 62.  Velocity 80
000227t:  Note on ::  Channel 0.  Note 62.  Velocity 0
000013t:  Note on ::  Channel 0.  Note 57.  Velocity 80
000227t:  Note on ::  Channel 0.  Note 57.  Velocity 0
000013t:  Note on ::  Channel 0.  Note 62.  Velocity 80
000227t:  Note on ::  Channel 0.  Note 62.  Velocity 0
000013t:  Note on ::  Channel 0.  Note 69.  Velocity 80
001139t:  Note on ::  Channel 0.  Note 69.  Velocity 0
000061t:  Note on ::  Channel 0.  Note 57.  Velocity 49
000000t:  Note on ::  Channel 0.  Note 61.  Velocity 49
000000t:  Note on ::  Channel 0.  Note 64.  Velocity 49
000227t:  Note on ::  Channel 0.  Note 57.  Velocity 0
000000t:  Note on ::  Channel 0.  Note 61.  Velocity 0
000000t:  Note on ::  Channel 0.  Note 64.  Velocity 0
000013t:  Note on ::  Channel 0.  Note 52.  Velocity 80
000227t:  Note on ::  Channel 0.  Note 52.  Velocity 0
000013t:  Note on ::  Channel 0.  Note 57.  Velocity 80
000000t:  Note on ::  Channel 0.  Note 61.  Velocity 80
000000t:  Note on ::  Channel 0.  Note 64.  Velocity 80
000227t:  Note on ::  Channel 0.  Note 57.  Velocity 0
000000t:  Note on ::  Channel 0.  Note 61.  Velocity 0
000000t:  Note on ::  Channel 0.  Note 64.  Velocity 0
000013t:  Note on ::  Channel 0.  Note 52.  Velocity 80
000227t:  Note on ::  Channel 0.  Note 52.  Velocity 0
000013t:  Note on ::  Channel 0.  Note 57.  Velocity 80
000000t:  Note on ::  Channel 0.  Note 61.  Velocity 80
000000t:  Note on ::  Channel 0.  Note 64.  Velocity 80
000227t:  Note on ::  Channel 0.  Note 57.  Velocity 0
000000t:  Note on ::  Channel 0.  Note 61.  Velocity 0
000000t:  Note on ::  Channel 0.  Note 64.  Velocity 0
000013t:  Note on ::  Channel 0.  Note 52.  Velocity 80
000227t:  Note on ::  Channel 0.  Note 52.  Velocity 0
000013t:  Note on ::  Channel 0.  Note 57.  Velocity 80
000000t:  Note on ::  Channel 0.  Note 61.  Velocity 80
000000t:  Note on ::  Channel 0.  Note 64.  Velocity 80
000455t:  Note on ::  Channel 0.  Note 57.  Velocity 0
000000t:  Note on ::  Channel 0.  Note 61.  Velocity 0
000000t:  Note on ::  Channel 0.  Note 64.  Velocity 0
000025t:  Note on ::  Channel 0.  Note 56.  Velocity 80
000000t:  Note on ::  Channel 0.  Note 61.  Velocity 80
000000t:  Note on ::  Channel 0.  Note 65.  Velocity 80
000455t:  Note on ::  Channel 0.  Note 56.  Velocity 0
000000t:  Note on ::  Channel 0.  Note 61.  Velocity 0
000000t:  Note on ::  Channel 0.  Note 65.  Velocity 0
000025t:  Note on ::  Channel 0.  Note 56.  Velocity 80
000000t:  Note on ::  Channel 0.  Note 61.  Velocity 80
000000t:  Note on ::  Channel 0.  Note 65.  Velocity 80
000227t:  Note on ::  Channel 0.  Note 56.  Velocity 0
000000t:  Note on ::  Channel 0.  Note 61.  Velocity 0
000000t:  Note on ::  Channel 0.  Note 65.  Velocity 0
000013t:  Note on ::  Channel 0.  Note 53.  Velocity 80
000227t:  Note on ::  Channel 0.  Note 53.  Velocity 0
000013t:  Note on ::  Channel 0.  Note 56.  Velocity 80
000000t:  Note on ::  Channel 0.  Note 59.  Velocity 80
000000t:  Note on ::  Channel 0.  Note 65.  Velocity 80
000227t:  Note on ::  Channel 0.  Note 56.  Velocity 0
000000t:  Note on ::  Channel 0.  Note 59.  Velocity 0
000000t:  Note on ::  Channel 0.  Note 65.  Velocity 0
000013t:  Note on ::  Channel 0.  Note 53.  Velocity 80
000227t:  Note on ::  Channel 0.  Note 53.  Velocity 0
000013t:  Note on ::  Channel 0.  Note 56.  Velocity 80
000000t:  Note on ::  Channel 0.  Note 61.  Velocity 80
000000t:  Note on ::  Channel 0.  Note 65.  Velocity 80
000227t:  Note on ::  Channel 0.  Note 56.  Velocity 0
000000t:  Note on ::  Channel 0.  Note 61.  Velocity 0
000000t:  Note on ::  Channel 0.  Note 65.  Velocity 0
000013t:  Note on ::  Channel 0.  Note 53.  Velocity 80
000227t:  Note on ::  Channel 0.  Note 53.  Velocity 0
000013t:  Note on ::  Channel 0.  Note 57.  Velocity 80
000000t:  Note on ::  Channel 0.  Note 62.  Velocity 80
000227t:  Note on ::  Channel 0.  Note 57.  Velocity 0
000000t:  Note on ::  Channel 0.  Note 62.  Velocity 0
000013t:  Note on ::  Channel 0.  Note 54.  Velocity 80
000227t:  Note on ::  Channel 0.  Note 54.  Velocity 0
000013t:  Note on ::  Channel 0.  Note 57.  Velocity 80
000000t:  Note on ::  Channel 0.  Note 62.  Velocity 80
000227t:  Note on ::  Channel 0.  Note 57.  Velocity 0
000000t:  Note on ::  Channel 0.  Note 62.  Velocity 0
000013t:  Note on ::  Channel 0.  Note 54.  Velocity 80
000227t:  Note on ::  Channel 0.  Note 54.  Velocity 0
000013t:  Note on ::  Channel 0.  Note 57.  Velocity 80
000000t:  Note on ::  Channel 0.  Note 62.  Velocity 80
000227t:  Note on ::  Channel 0.  Note 57.  Velocity 0
000000t:  Note on ::  Channel 0.  Note 62.  Velocity 0
000013t:  Note on ::  Channel 0.  Note 54.  Velocity 80
000227t:  Note on ::  Channel 0.  Note 54.  Velocity 0
000013t:  Note on ::  Channel 0.  Note 57.  Velocity 80
000000t:  Note on ::  Channel 0.  Note 62.  Velocity 80
000227t:  Note on ::  Channel 0.  Note 57.  Velocity 0
000000t:  Note on ::  Channel 0.  Note 62.  Velocity 0
000013t:  Note on ::  Channel 0.  Note 54.  Velocity 80
000227t:  Note on ::  Channel 0.  Note 54.  Velocity 0
000013t:  Note on ::  Channel 0.  Note 57.  Velocity 80
000000t:  Note on ::  Channel 0.  Note 62.  Velocity 80
000227t:  Note on ::  Channel 0.  Note 57.  Velocity 0
000000t:  Note on ::  Channel 0.  Note 62.  Velocity 0
000013t:  Note on ::  Channel 0.  Note 53.  Velocity 80
000227t:  Note on ::  Channel 0.  Note 53.  Velocity 0
000013t:  Note on ::  Channel 0.  Note 57.  Velocity 80
000000t:  Note on ::  Channel 0.  Note 62.  Velocity 80
000227t:  Note on ::  Channel 0.  Note 57.  Velocity 0
000000t:  Note on ::  Channel 0.  Note 62.  Velocity 0
000013t:  Note on ::  Channel 0.  Note 53.  Velocity 80
000227t:  Note on ::  Channel 0.  Note 53.  Velocity 0
000013t:  Note on ::  Channel 0.  Note 57.  Velocity 80
000000t:  Note on ::  Channel 0.  Note 62.  Velocity 80
000227t:  Note on ::  Channel 0.  Note 57.  Velocity 0
000000t:  Note on ::  Channel 0.  Note 62.  Velocity 0
000013t:  Note on ::  Channel 0.  Note 53.  Velocity 80
000227t:  Note on ::  Channel 0.  Note 53.  Velocity 0
000013t:  Note on ::  Channel 0.  Note 53.  Velocity 80
000000t:  Note on ::  Channel 0.  Note 57.  Velocity 80
000000t:  Note on ::  Channel 0.  Note 62.  Velocity 80
000455t:  Note on ::  Channel 0.  Note 53.  Velocity 0
000000t:  Note on ::  Channel 0.  Note 57.  Velocity 0
000000t:  Note on ::  Channel 0.  Note 62.  Velocity 0
000025t:  Note on ::  Channel 0.  Note 57.  Velocity 80
000000t:  Note on ::  Channel 0.  Note 61.  Velocity 80
000000t:  Note on ::  Channel 0.  Note 64.  Velocity 80
000227t:  Note on ::  Channel 0.  Note 57.  Velocity 0
000000t:  Note on ::  Channel 0.  Note 61.  Velocity 0
000000t:  Note on ::  Channel 0.  Note 64.  Velocity 0
000013t:  Note on ::  Channel 0.  Note 52.  Velocity 80
000227t:  Note on ::  Channel 0.  Note 52.  Velocity 0
000013t:  Note on ::  Channel 0.  Note 57.  Velocity 80
000000t:  Note on ::  Channel 0.  Note 61.  Velocity 80
000000t:  Note on ::  Channel 0.  Note 64.  Velocity 80
000227t:  Note on ::  Channel 0.  Note 57.  Velocity 0
000000t:  Note on ::  Channel 0.  Note 61.  Velocity 0
000000t:  Note on ::  Channel 0.  Note 64.  Velocity 0
000013t:  Note on ::  Channel 0.  Note 52.  Velocity 80
000227t:  Note on ::  Channel 0.  Note 52.  Velocity 0
000013t:  Note on ::  Channel 0.  Note 57.  Velocity 80
000000t:  Note on ::  Channel 0.  Note 61.  Velocity 80
000000t:  Note on ::  Channel 0.  Note 64.  Velocity 80
000227t:  Note on ::  Channel 0.  Note 57.  Velocity 0
000000t:  Note on ::  Channel 0.  Note 61.  Velocity 0
000000t:  Note on ::  Channel 0.  Note 64.  Velocity 0
000013t:  Note on ::  Channel 0.  Note 52.  Velocity 80
000227t:  Note on ::  Channel 0.  Note 52.  Velocity 0
000013t:  Note on ::  Channel 0.  Note 57.  Velocity 80
000000t:  Note on ::  Channel 0.  Note 61.  Velocity 80
000000t:  Note on ::  Channel 0.  Note 64.  Velocity 80
000227t:  Note on ::  Channel 0.  Note 57.  Velocity 0
000000t:  Note on ::  Channel 0.  Note 61.  Velocity 0
000000t:  Note on ::  Channel 0.  Note 64.  Velocity 0
000013t:  Note on ::  Channel 0.  Note 52.  Velocity 80
000227t:  Note on ::  Channel 0.  Note 52.  Velocity 0
000013t:  Note on ::  Channel 0.  Note 55.  Velocity 80
000000t:  Note on ::  Channel 0.  Note 61.  Velocity 80
000000t:  Note on ::  Channel 0.  Note 64.  Velocity 80
000227t:  Note on ::  Channel 0.  Note 55.  Velocity 0
000000t:  Note on ::  Channel 0.  Note 61.  Velocity 0
000000t:  Note on ::  Channel 0.  Note 64.  Velocity 0
000013t:  Note on ::  Channel 0.  Note 52.  Velocity 80
000227t:  Note on ::  Channel 0.  Note 52.  Velocity 0
000013t:  Note on ::  Channel 0.  Note 55.  Velocity 80
000000t:  Note on ::  Channel 0.  Note 61.  Velocity 80
000000t:  Note on ::  Channel 0.  Note 64.  Velocity 80
000227t:  Note on ::  Channel 0.  Note 55.  Velocity 0
000000t:  Note on ::  Channel 0.  Note 61.  Velocity 0
000000t:  Note on ::  Channel 0.  Note 64.  Velocity 0
000013t:  Note on ::  Channel 0.  Note 52.  Velocity 80
000227t:  Note on ::  Channel 0.  Note 52.  Velocity 0
000013t:  Note on ::  Channel 0.  Note 55.  Velocity 80
000000t:  Note on ::  Channel 0.  Note 61.  Velocity 80
000000t:  Note on ::  Channel 0.  Note 64.  Velocity 80
000227t:  Note on ::  Channel 0.  Note 55.  Velocity 0
000000t:  Note on ::  Channel 0.  Note 61.  Velocity 0
000000t:  Note on ::  Channel 0.  Note 64.  Velocity 0
000013t:  Note on ::  Channel 0.  Note 52.  Velocity 80
000227t:  Note on ::  Channel 0.  Note 52.  Velocity 0
000013t:  Note on ::  Channel 0.  Note 55.  Velocity 80
000000t:  Note on ::  Channel 0.  Note 61.  Velocity 80
000000t:  Note on ::  Channel 0.  Note 64.  Velocity 80
000227t:  Note on ::  Channel 0.  Note 55.  Velocity 0
000000t:  Note on ::  Channel 0.  Note 61.  Velocity 0
000000t:  Note on ::  Channel 0.  Note 64.  Velocity 0
000013t:  Note on ::  Channel 0.  Note 52.  Velocity 80
000227t:  Note on ::  Channel 0.  Note 52.  Velocity 0
000013t:  Note on ::  Channel 0.  Note 57.  Velocity 80
000000t:  Note on ::  Channel 0.  Note 61.  Velocity 80
000000t:  Note on ::  Channel 0.  Note 66.  Velocity 80
000227t:  Note on ::  Channel 0.  Note 57.  Velocity 0
000000t:  Note on ::  Channel 0.  Note 61.  Velocity 0
000000t:  Note on ::  Channel 0.  Note 66.  Velocity 0
000013t:  Note on ::  Channel 0.  Note 50.  Velocity 80
000227t:  Note on ::  Channel 0.  Note 50.  Velocity 0
000013t:  Note on ::  Channel 0.  Note 57.  Velocity 80
000000t:  Note on ::  Channel 0.  Note 61.  Velocity 80
000000t:  Note on ::  Channel 0.  Note 66.  Velocity 80
000227t:  Note on ::  Channel 0.  Note 57.  Velocity 0
000000t:  Note on ::  Channel 0.  Note 61.  Velocity 0
000000t:  Note on ::  Channel 0.  Note 66.  Velocity 0
000013t:  Note on ::  Channel 0.  Note 50.  Velocity 80
000227t:  Note on ::  Channel 0.  Note 50.  Velocity 0
000013t:  Note on ::  Channel 0.  Note 56.  Velocity 80
000000t:  Note on ::  Channel 0.  Note 59.  Velocity 80
000000t:  Note on ::  Channel 0.  Note 62.  Velocity 80
000227t:  Note on ::  Channel 0.  Note 56.  Velocity 0
000000t:  Note on ::  Channel 0.  Note 59.  Velocity 0
000000t:  Note on ::  Channel 0.  Note 62.  Velocity 0
000013t:  Note on ::  Channel 0.  Note 50.  Velocity 80
000227t:  Note on ::  Channel 0.  Note 50.  Velocity 0
000013t:  Note on ::  Channel 0.  Note 56.  Velocity 80
000000t:  Note on ::  Channel 0.  Note 59.  Velocity 80
000000t:  Note on ::  Channel 0.  Note 62.  Velocity 80
000227t:  Note on ::  Channel 0.  Note 56.  Velocity 0
000000t:  Note on ::  Channel 0.  Note 59.  Velocity 0
000000t:  Note on ::  Channel 0.  Note 62.  Velocity 0
000013t:  Note on ::  Channel 0.  Note 50.  Velocity 80
000227t:  Note on ::  Channel 0.  Note 50.  Velocity 0
000013t:  Note on ::  Channel 0.  Note 57.  Velocity 80
000000t:  Note on ::  Channel 0.  Note 61.  Velocity 80
000000t:  Note on ::  Channel 0.  Note 64.  Velocity 80
000227t:  Note on ::  Channel 0.  Note 57.  Velocity 0
000000t:  Note on ::  Channel 0.  Note 61.  Velocity 0
000000t:  Note on ::  Channel 0.  Note 64.  Velocity 0
000013t:  Note on ::  Channel 0.  Note 52.  Velocity 80
000227t:  Note on ::  Channel 0.  Note 52.  Velocity 0
000013t:  Note on ::  Channel 0.  Note 57.  Velocity 80
000000t:  Note on ::  Channel 0.  Note 61.  Velocity 80
000000t:  Note on ::  Channel 0.  Note 64.  Velocity 80
000227t:  Note on ::  Channel 0.  Note 57.  Velocity 0
000000t:  Note on ::  Channel 0.  Note 61.  Velocity 0
000000t:  Note on ::  Channel 0.  Note 64.  Velocity 0
000013t:  Note on ::  Channel 0.  Note 52.  Velocity 80
000227t:  Note on ::  Channel 0.  Note 52.  Velocity 0
000013t:  Note on ::  Channel 0.  Note 61.  Velocity 80
000000t:  Note on ::  Channel 0.  Note 62.  Velocity 80
000000t:  Note on ::  Channel 0.  Note 68.  Velocity 80
000227t:  Note on ::  Channel 0.  Note 61.  Velocity 0
000000t:  Note on ::  Channel 0.  Note 62.  Velocity 0
000000t:  Note on ::  Channel 0.  Note 68.  Velocity 0
000013t:  Note on ::  Channel 0.  Note 52.  Velocity 80
000227t:  Note on ::  Channel 0.  Note 52.  Velocity 0
000013t:  Note on ::  Channel 0.  Note 61.  Velocity 80
000000t:  Note on ::  Channel 0.  Note 64.  Velocity 80
000000t:  Note on ::  Channel 0.  Note 68.  Velocity 80
000227t:  Note on ::  Channel 0.  Note 61.  Velocity 0
000000t:  Note on ::  Channel 0.  Note 64.  Velocity 0
000000t:  Note on ::  Channel 0.  Note 68.  Velocity 0
000013t:  Note on ::  Channel 0.  Note 52.  Velocity 80
000227t:  Note on ::  Channel 0.  Note 52.  Velocity 0
000013t:  Note on ::  Channel 0.  Note 59.  Velocity 80
000000t:  Note on ::  Channel 0.  Note 61.  Velocity 80
000000t:  Note on ::  Channel 0.  Note 69.  Velocity 80
000227t:  Note on ::  Channel 0.  Note 59.  Velocity 0
000000t:  Note on ::  Channel 0.  Note 61.  Velocity 0
000000t:  Note on ::  Channel 0.  Note 69.  Velocity 0
000013t:  Note on ::  Channel 0.  Note 54.  Velocity 80
000227t:  Note on ::  Channel 0.  Note 54.  Velocity 0
000013t:  Note on ::  Channel 0.  Note 59.  Velocity 80
000000t:  Note on ::  Channel 0.  Note 61.  Velocity 80
000000t:  Note on ::  Channel 0.  Note 69.  Velocity 80
000227t:  Note on ::  Channel 0.  Note 59.  Velocity 0
000000t:  Note on ::  Channel 0.  Note 61.  Velocity 0
000000t:  Note on ::  Channel 0.  Note 69.  Velocity 0
000013t:  Note on ::  Channel 0.  Note 54.  Velocity 80
000227t:  Note on ::  Channel 0.  Note 54.  Velocity 0
000013t:  Note on ::  Channel 0.  Note 57.  Velocity 80
000000t:  Note on ::  Channel 0.  Note 61.  Velocity 80
000000t:  Note on ::  Channel 0.  Note 66.  Velocity 80
000455t:  Note on ::  Channel 0.  Note 57.  Velocity 0
000000t:  Note on ::  Channel 0.  Note 61.  Velocity 0
000000t:  Note on ::  Channel 0.  Note 66.  Velocity 0
000025t:  Note on ::  Channel 0.  Note 57.  Velocity 80
000000t:  Note on ::  Channel 0.  Note 61.  Velocity 80
000000t:  Note on ::  Channel 0.  Note 66.  Velocity 80
000455t:  Note on ::  Channel 0.  Note 57.  Velocity 0
000000t:  Note on ::  Channel 0.  Note 61.  Velocity 0
000000t:  Note on ::  Channel 0.  Note 66.  Velocity 0
000025t:  Note on ::  Channel 0.  Note 59.  Velocity 80
000000t:  Note on ::  Channel 0.  Note 64.  Velocity 80
000000t:  Note on ::  Channel 0.  Note 66.  Velocity 80
000455t:  Note on ::  Channel 0.  Note 59.  Velocity 0
000000t:  Note on ::  Channel 0.  Note 64.  Velocity 0
000000t:  Note on ::  Channel 0.  Note 66.  Velocity 0
000025t:  Note on ::  Channel 0.  Note 59.  Velocity 80
000000t:  Note on ::  Channel 0.  Note 64.  Velocity 80
000000t:  Note on ::  Channel 0.  Note 66.  Velocity 80
000455t:  Note on ::  Channel 0.  Note 59.  Velocity 0
000000t:  Note on ::  Channel 0.  Note 64.  Velocity 0
000000t:  Note on ::  Channel 0.  Note 66.  Velocity 0
000025t:  Note on ::  Channel 0.  Note 59.  Velocity 80
000000t:  Note on ::  Channel 0.  Note 63.  Velocity 80
000000t:  Note on ::  Channel 0.  Note 66.  Velocity 80
000455t:  Note on ::  Channel 0.  Note 59.  Velocity 0
000000t:  Note on ::  Channel 0.  Note 63.  Velocity 0
000000t:  Note on ::  Channel 0.  Note 66.  Velocity 0
000025t:  Note on ::  Channel 0.  Note 59.  Velocity 80
000000t:  Note on ::  Channel 0.  Note 63.  Velocity 80
000000t:  Note on ::  Channel 0.  Note 66.  Velocity 80
000455t:  Note on ::  Channel 0.  Note 59.  Velocity 0
000000t:  Note on ::  Channel 0.  Note 63.  Velocity 0
000000t:  Note on ::  Channel 0.  Note 66.  Velocity 0
000025t:  Note on ::  Channel 0.  Note 57.  Velocity 80
000000t:  Note on ::  Channel 0.  Note 62.  Velocity 80
000000t:  Note on ::  Channel 0.  Note 66.  Velocity 80
000000t:  Note on ::  Channel 0.  Note 69.  Velocity 80
000455t:  Note on ::  Channel 0.  Note 57.  Velocity 0
000000t:  Note on ::  Channel 0.  Note 62.  Velocity 0
000000t:  Note on ::  Channel 0.  Note 66.  Velocity 0
000000t:  Note on ::  Channel 0.  Note 69.  Velocity 0
000025t:  Note on ::  Channel 0.  Note 57.  Velocity 80
000000t:  Note on ::  Channel 0.  Note 62.  Velocity 80
000000t:  Note on ::  Channel 0.  Note 66.  Velocity 80
000000t:  Note on ::  Channel 0.  Note 69.  Velocity 80
000455t:  Note on ::  Channel 0.  Note 57.  Velocity 0
000000t:  Note on ::  Channel 0.  Note 62.  Velocity 0
000000t:  Note on ::  Channel 0.  Note 66.  Velocity 0
000000t:  Note on ::  Channel 0.  Note 69.  Velocity 0
000025t:  Note on ::  Channel 0.  Note 57.  Velocity 80
000000t:  Note on ::  Channel 0.  Note 61.  Velocity 80
000000t:  Note on ::  Channel 0.  Note 64.  Velocity 80
000000t:  Note on ::  Channel 0.  Note 69.  Velocity 80
000455t:  Note on ::  Channel 0.  Note 57.  Velocity 0
000000t:  Note on ::  Channel 0.  Note 61.  Velocity 0
000000t:  Note on ::  Channel 0.  Note 64.  Velocity 0
000000t:  Note on ::  Channel 0.  Note 69.  Velocity 0
000025t:  Note on ::  Channel 0.  Note 57.  Velocity 80
000000t:  Note on ::  Channel 0.  Note 61.  Velocity 80
000000t:  Note on ::  Channel 0.  Note 64.  Velocity 80
000000t:  Note on ::  Channel 0.  Note 69.  Velocity 80
000455t:  Note on ::  Channel 0.  Note 57.  Velocity 0
000000t:  Note on ::  Channel 0.  Note 61.  Velocity 0
000000t:  Note on ::  Channel 0.  Note 64.  Velocity 0
000000t:  Note on ::  Channel 0.  Note 69.  Velocity 0
000025t:  Note on ::  Channel 0.  Note 56.  Velocity 80
000000t:  Note on ::  Channel 0.  Note 59.  Velocity 80
000000t:  Note on ::  Channel 0.  Note 64.  Velocity 80
000000t:  Note on ::  Channel 0.  Note 68.  Velocity 80
000455t:  Note on ::  Channel 0.  Note 56.  Velocity 0
000000t:  Note on ::  Channel 0.  Note 59.  Velocity 0
000000t:  Note on ::  Channel 0.  Note 64.  Velocity 0
000000t:  Note on ::  Channel 0.  Note 68.  Velocity 0
000025t:  Note on ::  Channel 0.  Note 56.  Velocity 80
000000t:  Note on ::  Channel 0.  Note 59.  Velocity 80
000000t:  Note on ::  Channel 0.  Note 64.  Velocity 80
000000t:  Note on ::  Channel 0.  Note 68.  Velocity 80
000455t:  Note on ::  Channel 0.  Note 56.  Velocity 0
000000t:  Note on ::  Channel 0.  Note 59.  Velocity 0
000000t:  Note on ::  Channel 0.  Note 64.  Velocity 0
000000t:  Note on ::  Channel 0.  Note 68.  Velocity 0
000025t:  Note on ::  Channel 0.  Note 56.  Velocity 80
000000t:  Note on ::  Channel 0.  Note 59.  Velocity 80
000000t:  Note on ::  Channel 0.  Note 64.  Velocity 80
000000t:  Note on ::  Channel 0.  Note 68.  Velocity 80
000455t:  Note on ::  Channel 0.  Note 56.  Velocity 0
000000t:  Note on ::  Channel 0.  Note 59.  Velocity 0
000000t:  Note on ::  Channel 0.  Note 64.  Velocity 0
000000t:  Note on ::  Channel 0.  Note 68.  Velocity 0
000025t:  Note on ::  Channel 0.  Note 56.  Velocity 80
000000t:  Note on ::  Channel 0.  Note 59.  Velocity 80
000000t:  Note on ::  Channel 0.  Note 64.  Velocity 80
000000t:  Note on ::  Channel 0.  Note 68.  Velocity 80
000455t:  Note on ::  Channel 0.  Note 56.  Velocity 0
000000t:  Note on ::  Channel 0.  Note 59.  Velocity 0
000000t:  Note on ::  Channel 0.  Note 64.  Velocity 0
000000t:  Note on ::  Channel 0.  Note 68.  Velocity 0
000025t:  Note on ::  Channel 0.  Note 59.  Velocity 80
000000t:  Note on ::  Channel 0.  Note 61.  Velocity 80
000000t:  Note on ::  Channel 0.  Note 66.  Velocity 80
000455t:  Note on ::  Channel 0.  Note 59.  Velocity 0
000000t:  Note on ::  Channel 0.  Note 61.  Velocity 0
000000t:  Note on ::  Channel 0.  Note 66.  Velocity 0
000025t:  Note on ::  Channel 0.  Note 59.  Velocity 80
000000t:  Note on ::  Channel 0.  Note 61.  Velocity 80
000000t:  Note on ::  Channel 0.  Note 66.  Velocity 80
000455t:  Note on ::  Channel 0.  Note 59.  Velocity 0
000000t:  Note on ::  Channel 0.  Note 61.  Velocity 0
000000t:  Note on ::  Channel 0.  Note 66.  Velocity 0
000025t:  Note on ::  Channel 0.  Note 57.  Velocity 80
000000t:  Note on ::  Channel 0.  Note 61.  Velocity 80
000000t:  Note on ::  Channel 0.  Note 66.  Velocity 80
000455t:  Note on ::  Channel 0.  Note 57.  Velocity 0
000000t:  Note on ::  Channel 0.  Note 61.  Velocity 0
000000t:  Note on ::  Channel 0.  Note 66.  Velocity 0
000025t:  Note on ::  Channel 0.  Note 57.  Velocity 80
000000t:  Note on ::  Channel 0.  Note 61.  Velocity 80
000000t:  Note on ::  Channel 0.  Note 66.  Velocity 80
000113t:  Note on ::  Channel 0.  Note 57.  Velocity 0
000000t:  Note on ::  Channel 0.  Note 61.  Velocity 0
000000t:  Note on ::  Channel 0.  Note 66.  Velocity 0
000007t:  Note on ::  Channel 0.  Note 59.  Velocity 80
000113t:  Note on ::  Channel 0.  Note 59.  Velocity 0
000007t:  Note on ::  Channel 0.  Note 57.  Velocity 80
000113t:  Note on ::  Channel 0.  Note 57.  Velocity 0
000007t:  Note on ::  Channel 0.  Note 56.  Velocity 80
000113t:  Note on ::  Channel 0.  Note 56.  Velocity 0
000007t:  Note on ::  Channel 0.  Note 56.  Velocity 80
000000t:  Note on ::  Channel 0.  Note 59.  Velocity 80
000000t:  Note on ::  Channel 0.  Note 64.  Velocity 80
000227t:  Note on ::  Channel 0.  Note 56.  Velocity 0
000000t:  Note on ::  Channel 0.  Note 59.  Velocity 0
000000t:  Note on ::  Channel 0.  Note 64.  Velocity 0
000013t:  Note on ::  Channel 0.  Note 52.  Velocity 80
000227t:  Note on ::  Channel 0.  Note 52.  Velocity 0
000013t:  Note on ::  Channel 0.  Note 56.  Velocity 80
000000t:  Note on ::  Channel 0.  Note 59.  Velocity 80
000000t:  Note on ::  Channel 0.  Note 64.  Velocity 80
000227t:  Note on ::  Channel 0.  Note 56.  Velocity 0
000000t:  Note on ::  Channel 0.  Note 59.  Velocity 0
000000t:  Note on ::  Channel 0.  Note 64.  Velocity 0
000013t:  Note on ::  Channel 0.  Note 52.  Velocity 80
000227t:  Note on ::  Channel 0.  Note 52.  Velocity 0
000013t:  Note on ::  Channel 0.  Note 56.  Velocity 80
000000t:  Note on ::  Channel 0.  Note 59.  Velocity 80
000000t:  Note on ::  Channel 0.  Note 64.  Velocity 80
000227t:  Note on ::  Channel 0.  Note 56.  Velocity 0
000000t:  Note on ::  Channel 0.  Note 59.  Velocity 0
000000t:  Note on ::  Channel 0.  Note 64.  Velocity 0
000013t:  Note on ::  Channel 0.  Note 52.  Velocity 80
000227t:  Note on ::  Channel 0.  Note 52.  Velocity 0
000013t:  Note on ::  Channel 0.  Note 56.  Velocity 80
000000t:  Note on ::  Channel 0.  Note 59.  Velocity 80
000000t:  Note on ::  Channel 0.  Note 64.  Velocity 80
000227t:  Note on ::  Channel 0.  Note 56.  Velocity 0
000000t:  Note on ::  Channel 0.  Note 59.  Velocity 0
000000t:  Note on ::  Channel 0.  Note 64.  Velocity 0
000013t:  Note on ::  Channel 0.  Note 52.  Velocity 80
000227t:  Note on ::  Channel 0.  Note 52.  Velocity 0
000013t:  Note on ::  Channel 0.  Note 56.  Velocity 80
000000t:  Note on ::  Channel 0.  Note 61.  Velocity 80
000000t:  Note on ::  Channel 0.  Note 65.  Velocity 80
000227t:  Note on ::  Channel 0.  Note 56.  Velocity 0
000000t:  Note on ::  Channel 0.  Note 61.  Velocity 0
000000t:  Note on ::  Channel 0.  Note 65.  Velocity 0
000013t:  Note on ::  Channel 0.  Note 52.  Velocity 80
000227t:  Note on ::  Channel 0.  Note 52.  Velocity 0
000013t:  Note on ::  Channel 0.  Note 56.  Velocity 80
000000t:  Note on ::  Channel 0.  Note 61.  Velocity 80
000000t:  Note on ::  Channel 0.  Note 65.  Velocity 80
000227t:  Note on ::  Channel 0.  Note 56.  Velocity 0
000000t:  Note on ::  Channel 0.  Note 61.  Velocity 0
000000t:  Note on ::  Channel 0.  Note 65.  Velocity 0
000013t:  Note on ::  Channel 0.  Note 54.  Velocity 80
000000t:  Note on ::  Channel 0.  Note 57.  Velocity 80
000000t:  Note on ::  Channel 0.  Note 61.  Velocity 80
000000t:  Note on ::  Channel 0.  Note 66.  Velocity 80
000683t:  Note on ::  Channel 0.  Note 54.  Velocity 0
000000t:  Note on ::  Channel 0.  Note 57.  Velocity 0
000000t:  Note on ::  Channel 0.  Note 61.  Velocity 0
000000t:  Note on ::  Channel 0.  Note 66.  Velocity 0
000037t:  Note on ::  Channel 0.  Note 58.  Velocity 80
000000t:  Note on ::  Channel 0.  Note 61.  Velocity 80
000000t:  Note on ::  Channel 0.  Note 66.  Velocity 80
000455t:  Note on ::  Channel 0.  Note 58.  Velocity 0
000000t:  Note on ::  Channel 0.  Note 61.  Velocity 0
000000t:  Note on ::  Channel 0.  Note 66.  Velocity 0
000025t:  Note on ::  Channel 0.  Note 59.  Velocity 80
000000t:  Note on ::  Channel 0.  Note 62.  Velocity 80
000000t:  Note on ::  Channel 0.  Note 66.  Velocity 80
000227t:  Note on ::  Channel 0.  Note 59.  Velocity 0
000000t:  Note on ::  Channel 0.  Note 62.  Velocity 0
000000t:  Note on ::  Channel 0.  Note 66.  Velocity 0
000013t:  Note on ::  Channel 0.  Note 54.  Velocity 80
000227t:  Note on ::  Channel 0.  Note 54.  Velocity 0
000013t:  Note on ::  Channel 0.  Note 59.  Velocity 80
000000t:  Note on ::  Channel 0.  Note 62.  Velocity 80
000000t:  Note on ::  Channel 0.  Note 66.  Velocity 80
000227t:  Note on ::  Channel 0.  Note 59.  Velocity 0
000000t:  Note on ::  Channel 0.  Note 62.  Velocity 0
000000t:  Note on ::  Channel 0.  Note 66.  Velocity 0
000013t:  Note on ::  Channel 0.  Note 54.  Velocity 80
000227t:  Note on ::  Channel 0.  Note 54.  Velocity 0
000013t:  Note on ::  Channel 0.  Note 57.  Velocity 80
000000t:  Note on ::  Channel 0.  Note 62.  Velocity 80
000000t:  Note on ::  Channel 0.  Note 66.  Velocity 80
000227t:  Note on ::  Channel 0.  Note 57.  Velocity 0
000000t:  Note on ::  Channel 0.  Note 62.  Velocity 0
000000t:  Note on ::  Channel 0.  Note 66.  Velocity 0
000013t:  Note on ::  Channel 0.  Note 54.  Velocity 80
000227t:  Note on ::  Channel 0.  Note 54.  Velocity 0
000013t:  Note on ::  Channel 0.  Note 57.  Velocity 80
000000t:  Note on ::  Channel 0.  Note 62.  Velocity 80
000000t:  Note on ::  Channel 0.  Note 66.  Velocity 80
000227t:  Note on ::  Channel 0.  Note 57.  Velocity 0
000000t:  Note on ::  Channel 0.  Note 62.  Velocity 0
000000t:  Note on ::  Channel 0.  Note 66.  Velocity 0
000013t:  Note on ::  Channel 0.  Note 54.  Velocity 80
000227t:  Note on ::  Channel 0.  Note 54.  Velocity 0
000013t:  Note on ::  Channel 0.  Note 57.  Velocity 80
000000t:  Note on ::  Channel 0.  Note 61.  Velocity 80
000000t:  Note on ::  Channel 0.  Note 64.  Velocity 80
000227t:  Note on ::  Channel 0.  Note 57.  Velocity 0
000000t:  Note on ::  Channel 0.  Note 61.  Velocity 0
000000t:  Note on ::  Channel 0.  Note 64.  Velocity 0
000013t:  Note on ::  Channel 0.  Note 52.  Velocity 80
000227t:  Note on ::  Channel 0.  Note 52.  Velocity 0
000013t:  Note on ::  Channel 0.  Note 57.  Velocity 80
000000t:  Note on ::  Channel 0.  Note 61.  Velocity 80
000000t:  Note on ::  Channel 0.  Note 64.  Velocity 80
000227t:  Note on ::  Channel 0.  Note 57.  Velocity 0
000000t:  Note on ::  Channel 0.  Note 61.  Velocity 0
000000t:  Note on ::  Channel 0.  Note 64.  Velocity 0
000013t:  Note on ::  Channel 0.  Note 52.  Velocity 80
000227t:  Note on ::  Channel 0.  Note 52.  Velocity 0
000013t:  Note on ::  Channel 0.  Note 61.  Velocity 80
000000t:  Note on ::  Channel 0.  Note 64.  Velocity 80
000000t:  Note on ::  Channel 0.  Note 69.  Velocity 80
000227t:  Note on ::  Channel 0.  Note 61.  Velocity 0
000000t:  Note on ::  Channel 0.  Note 64.  Velocity 0
000000t:  Note on ::  Channel 0.  Note 69.  Velocity 0
000013t:  Note on ::  Channel 0.  Note 57.  Velocity 80
000227t:  Note on ::  Channel 0.  Note 57.  Velocity 0
000013t:  Note on ::  Channel 0.  Note 61.  Velocity 80
000000t:  Note on ::  Channel 0.  Note 64.  Velocity 80
000000t:  Note on ::  Channel 0.  Note 69.  Velocity 80
000227t:  Note on ::  Channel 0.  Note 61.  Velocity 0
000000t:  Note on ::  Channel 0.  Note 64.  Velocity 0
000000t:  Note on ::  Channel 0.  Note 69.  Velocity 0
000013t:  Note on ::  Channel 0.  Note 57.  Velocity 80
000227t:  Note on ::  Channel 0.  Note 57.  Velocity 0
000013t:  Note on ::  Channel 0.  Note 59.  Velocity 80
000000t:  Note on ::  Channel 0.  Note 62.  Velocity 80
000000t:  Note on ::  Channel 0.  Note 66.  Velocity 80
000227t:  Note on ::  Channel 0.  Note 59.  Velocity 0
000000t:  Note on ::  Channel 0.  Note 62.  Velocity 0
000000t:  Note on ::  Channel 0.  Note 66.  Velocity 0
000013t:  Note on ::  Channel 0.  Note 54.  Velocity 80
000227t:  Note on ::  Channel 0.  Note 54.  Velocity 0
000013t:  Note on ::  Channel 0.  Note 59.  Velocity 80
000000t:  Note on ::  Channel 0.  Note 62.  Velocity 80
000000t:  Note on ::  Channel 0.  Note 66.  Velocity 80
000227t:  Note on ::  Channel 0.  Note 59.  Velocity 0
000000t:  Note on ::  Channel 0.  Note 62.  Velocity 0
000000t:  Note on ::  Channel 0.  Note 66.  Velocity 0
000013t:  Note on ::  Channel 0.  Note 54.  Velocity 80
000227t:  Note on ::  Channel 0.  Note 54.  Velocity 0
000013t:  Note on ::  Channel 0.  Note 57.  Velocity 80
000000t:  Note on ::  Channel 0.  Note 62.  Velocity 80
000000t:  Note on ::  Channel 0.  Note 66.  Velocity 80
000227t:  Note on ::  Channel 0.  Note 57.  Velocity 0
000000t:  Note on ::  Channel 0.  Note 62.  Velocity 0
000000t:  Note on ::  Channel 0.  Note 66.  Velocity 0
000013t:  Note on ::  Channel 0.  Note 54.  Velocity 80
000227t:  Note on ::  Channel 0.  Note 54.  Velocity 0
000013t:  Note on ::  Channel 0.  Note 57.  Velocity 80
000000t:  Note on ::  Channel 0.  Note 62.  Velocity 80
000000t:  Note on ::  Channel 0.  Note 66.  Velocity 80
000227t:  Note on ::  Channel 0.  Note 57.  Velocity 0
000000t:  Note on ::  Channel 0.  Note 62.  Velocity 0
000000t:  Note on ::  Channel 0.  Note 66.  Velocity 0
000013t:  Note on ::  Channel 0.  Note 54.  Velocity 80
000227t:  Note on ::  Channel 0.  Note 54.  Velocity 0
000013t:  Note on ::  Channel 0.  Note 57.  Velocity 80
000000t:  Note on ::  Channel 0.  Note 61.  Velocity 80
000000t:  Note on ::  Channel 0.  Note 64.  Velocity 80
000227t:  Note on ::  Channel 0.  Note 57.  Velocity 0
000000t:  Note on ::  Channel 0.  Note 61.  Velocity 0
000000t:  Note on ::  Channel 0.  Note 64.  Velocity 0
000013t:  Note on ::  Channel 0.  Note 52.  Velocity 80
000227t:  Note on ::  Channel 0.  Note 52.  Velocity 0
000013t:  Note on ::  Channel 0.  Note 57.  Velocity 80
000000t:  Note on ::  Channel 0.  Note 61.  Velocity 80
000000t:  Note on ::  Channel 0.  Note 64.  Velocity 80
000227t:  Note on ::  Channel 0.  Note 57.  Velocity 0
000000t:  Note on ::  Channel 0.  Note 61.  Velocity 0
000000t:  Note on ::  Channel 0.  Note 64.  Velocity 0
000013t:  Note on ::  Channel 0.  Note 52.  Velocity 80
000227t:  Note on ::  Channel 0.  Note 52.  Velocity 0
000013t:  Note on ::  Channel 0.  Note 57.  Velocity 80
000000t:  Note on ::  Channel 0.  Note 61.  Velocity 80
000000t:  Note on ::  Channel 0.  Note 64.  Velocity 80
000227t:  Note on ::  Channel 0.  Note 57.  Velocity 0
000000t:  Note on ::  Channel 0.  Note 61.  Velocity 0
000000t:  Note on ::  Channel 0.  Note 64.  Velocity 0
000013t:  Note on ::  Channel 0.  Note 52.  Velocity 80
000240t:  Note on ::  Channel 0.  Note 57.  Velocity 80
000000t:  Note on ::  Channel 0.  Note 61.  Velocity 80
000000t:  Note on ::  Channel 0.  Note 64.  Velocity 80
000227t:  Note on ::  Channel 0.  Note 57.  Velocity 0
000000t:  Note on ::  Channel 0.  Note 61.  Velocity 0
000000t:  Note on ::  Channel 0.  Note 64.  Velocity 0
000013t:  Note on ::  Channel 0.  Note 52.  Velocity 0
000000t:  Note on ::  Channel 0.  Note 52.  Velocity 80
000227t:  Note on ::  Channel 0.  Note 52.  Velocity 0
000013t:  Note on ::  Channel 0.  Note 59.  Velocity 80
000000t:  Note on ::  Channel 0.  Note 62.  Velocity 80
000000t:  Note on ::  Channel 0.  Note 66.  Velocity 80
000227t:  Note on ::  Channel 0.  Note 59.  Velocity 0
000000t:  Note on ::  Channel 0.  Note 62.  Velocity 0
000000t:  Note on ::  Channel 0.  Note 66.  Velocity 0
000013t:  Note on ::  Channel 0.  Note 54.  Velocity 80
000227t:  Note on ::  Channel 0.  Note 54.  Velocity 0
000013t:  Note on ::  Channel 0.  Note 59.  Velocity 80
000000t:  Note on ::  Channel 0.  Note 62.  Velocity 80
000000t:  Note on ::  Channel 0.  Note 66.  Velocity 80
000227t:  Note on ::  Channel 0.  Note 59.  Velocity 0
000000t:  Note on ::  Channel 0.  Note 62.  Velocity 0
000000t:  Note on ::  Channel 0.  Note 66.  Velocity 0
000013t:  Note on ::  Channel 0.  Note 54.  Velocity 80
000227t:  Note on ::  Channel 0.  Note 54.  Velocity 0
000013t:  Note on ::  Channel 0.  Note 59.  Velocity 80
000000t:  Note on ::  Channel 0.  Note 62.  Velocity 80
000000t:  Note on ::  Channel 0.  Note 66.  Velocity 80
000227t:  Note on ::  Channel 0.  Note 59.  Velocity 0
000000t:  Note on ::  Channel 0.  Note 62.  Velocity 0
000000t:  Note on ::  Channel 0.  Note 66.  Velocity 0
000013t:  Note on ::  Channel 0.  Note 54.  Velocity 80
000227t:  Note on ::  Channel 0.  Note 54.  Velocity 0
000013t:  Note on ::  Channel 0.  Note 59.  Velocity 80
000000t:  Note on ::  Channel 0.  Note 62.  Velocity 80
000000t:  Note on ::  Channel 0.  Note 66.  Velocity 80
000227t:  Note on ::  Channel 0.  Note 59.  Velocity 0
000000t:  Note on ::  Channel 0.  Note 62.  Velocity 0
000000t:  Note on ::  Channel 0.  Note 66.  Velocity 0
000013t:  Note on ::  Channel 0.  Note 54.  Velocity 80
000227t:  Note on ::  Channel 0.  Note 54.  Velocity 0
000013t:  Note on ::  Channel 0.  Note 57.  Velocity 80
000000t:  Note on ::  Channel 0.  Note 61.  Velocity 80
000000t:  Note on ::  Channel 0.  Note 64.  Velocity 80
000227t:  Note on ::  Channel 0.  Note 57.  Velocity 0
000000t:  Note on ::  Channel 0.  Note 61.  Velocity 0
000000t:  Note on ::  Channel 0.  Note 64.  Velocity 0
000013t:  Note on ::  Channel 0.  Note 52.  Velocity 80
000227t:  Note on ::  Channel 0.  Note 52.  Velocity 0
000013t:  Note on ::  Channel 0.  Note 57.  Velocity 80
000000t:  Note on ::  Channel 0.  Note 61.  Velocity 80
000000t:  Note on ::  Channel 0.  Note 64.  Velocity 80
000227t:  Note on ::  Channel 0.  Note 57.  Velocity 0
000000t:  Note on ::  Channel 0.  Note 61.  Velocity 0
000000t:  Note on ::  Channel 0.  Note 64.  Velocity 0
000013t:  Note on ::  Channel 0.  Note 52.  Velocity 80
000227t:  Note on ::  Channel 0.  Note 52.  Velocity 0
000013t:  Note on ::  Channel 0.  Note 57.  Velocity 80
000000t:  Note on ::  Channel 0.  Note 61.  Velocity 80
000000t:  Note on ::  Channel 0.  Note 64.  Velocity 80
000227t:  Note on ::  Channel 0.  Note 57.  Velocity 0
000000t:  Note on ::  Channel 0.  Note 61.  Velocity 0
000000t:  Note on ::  Channel 0.  Note 64.  Velocity 0
000013t:  Note on ::  Channel 0.  Note 52.  Velocity 80
000227t:  Note on ::  Channel 0.  Note 52.  Velocity 0
000013t:  Note on ::  Channel 0.  Note 57.  Velocity 80
000000t:  Note on ::  Channel 0.  Note 61.  Velocity 80
000000t:  Note on ::  Channel 0.  Note 64.  Velocity 80
000227t:  Note on ::  Channel 0.  Note 57.  Velocity 0
000000t:  Note on ::  Channel 0.  Note 61.  Velocity 0
000000t:  Note on ::  Channel 0.  Note 64.  Velocity 0
000013t:  Note on ::  Channel 0.  Note 52.  Velocity 80
000227t:  Note on ::  Channel 0.  Note 52.  Velocity 0
000013t:  Note on ::  Channel 0.  Note 59.  Velocity 80
000000t:  Note on ::  Channel 0.  Note 62.  Velocity 80
000000t:  Note on ::  Channel 0.  Note 66.  Velocity 80
000227t:  Note on ::  Channel 0.  Note 59.  Velocity 0
000000t:  Note on ::  Channel 0.  Note 62.  Velocity 0
000000t:  Note on ::  Channel 0.  Note 66.  Velocity 0
000013t:  Note on ::  Channel 0.  Note 54.  Velocity 80
000227t:  Note on ::  Channel 0.  Note 54.  Velocity 0
000013t:  Note on ::  Channel 0.  Note 59.  Velocity 80
000000t:  Note on ::  Channel 0.  Note 62.  Velocity 80
000000t:  Note on ::  Channel 0.  Note 66.  Velocity 80
000227t:  Note on ::  Channel 0.  Note 59.  Velocity 0
000000t:  Note on ::  Channel 0.  Note 62.  Velocity 0
000000t:  Note on ::  Channel 0.  Note 66.  Velocity 0
000013t:  Note on ::  Channel 0.  Note 54.  Velocity 80
000227t:  Note on ::  Channel 0.  Note 54.  Velocity 0
000013t:  Note on ::  Channel 0.  Note 59.  Velocity 80
000000t:  Note on ::  Channel 0.  Note 62.  Velocity 80
000000t:  Note on ::  Channel 0.  Note 66.  Velocity 80
000227t:  Note on ::  Channel 0.  Note 59.  Velocity 0
000000t:  Note on ::  Channel 0.  Note 62.  Velocity 0
000000t:  Note on ::  Channel 0.  Note 66.  Velocity 0
000013t:  Note on ::  Channel 0.  Note 54.  Velocity 80
000227t:  Note on ::  Channel 0.  Note 54.  Velocity 0
000013t:  Note on ::  Channel 0.  Note 59.  Velocity 80
000000t:  Note on ::  Channel 0.  Note 62.  Velocity 80
000000t:  Note on ::  Channel 0.  Note 66.  Velocity 80
000227t:  Note on ::  Channel 0.  Note 59.  Velocity 0
000000t:  Note on ::  Channel 0.  Note 62.  Velocity 0
000000t:  Note on ::  Channel 0.  Note 66.  Velocity 0
000013t:  Note on ::  Channel 0.  Note 54.  Velocity 80
000227t:  Note on ::  Channel 0.  Note 54.  Velocity 0
000013t:  Note on ::  Channel 0.  Note 57.  Velocity 80
000000t:  Note on ::  Channel 0.  Note 61.  Velocity 80
000000t:  Note on ::  Channel 0.  Note 64.  Velocity 80
000227t:  Note on ::  Channel 0.  Note 57.  Velocity 0
000000t:  Note on ::  Channel 0.  Note 61.  Velocity 0
000000t:  Note on ::  Channel 0.  Note 64.  Velocity 0
000013t:  Note on ::  Channel 0.  Note 52.  Velocity 80
000227t:  Note on ::  Channel 0.  Note 52.  Velocity 0
000013t:  Note on ::  Channel 0.  Note 57.  Velocity 80
000000t:  Note on ::  Channel 0.  Note 61.  Velocity 80
000000t:  Note on ::  Channel 0.  Note 64.  Velocity 80
000227t:  Note on ::  Channel 0.  Note 57.  Velocity 0
000000t:  Note on ::  Channel 0.  Note 61.  Velocity 0
000000t:  Note on ::  Channel 0.  Note 64.  Velocity 0
000013t:  Note on ::  Channel 0.  Note 52.  Velocity 80
000227t:  Note on ::  Channel 0.  Note 52.  Velocity 0
000013t:  Note on ::  Channel 0.  Note 57.  Velocity 80
000000t:  Note on ::  Channel 0.  Note 61.  Velocity 80
000000t:  Note on ::  Channel 0.  Note 64.  Velocity 80
000227t:  Note on ::  Channel 0.  Note 57.  Velocity 0
000000t:  Note on ::  Channel 0.  Note 61.  Velocity 0
000000t:  Note on ::  Channel 0.  Note 64.  Velocity 0
000013t:  Note on ::  Channel 0.  Note 52.  Velocity 80
000227t:  Note on ::  Channel 0.  Note 52.  Velocity 0
000013t:  Note on ::  Channel 0.  Note 57.  Velocity 80
000000t:  Note on ::  Channel 0.  Note 61.  Velocity 80
000000t:  Note on ::  Channel 0.  Note 64.  Velocity 80
000227t:  Note on ::  Channel 0.  Note 57.  Velocity 0
000000t:  Note on ::  Channel 0.  Note 61.  Velocity 0
000000t:  Note on ::  Channel 0.  Note 64.  Velocity 0
000013t:  Note on ::  Channel 0.  Note 52.  Velocity 80
000227t:  Note on ::  Channel 0.  Note 52.  Velocity 0
000013t:  Note on ::  Channel 0.  Note 59.  Velocity 80
000000t:  Note on ::  Channel 0.  Note 62.  Velocity 80
000000t:  Note on ::  Channel 0.  Note 66.  Velocity 80
000227t:  Note on ::  Channel 0.  Note 59.  Velocity 0
000000t:  Note on ::  Channel 0.  Note 62.  Velocity 0
000000t:  Note on ::  Channel 0.  Note 66.  Velocity 0
000013t:  Note on ::  Channel 0.  Note 54.  Velocity 80
000227t:  Note on ::  Channel 0.  Note 54.  Velocity 0
000013t:  Note on ::  Channel 0.  Note 59.  Velocity 80
000000t:  Note on ::  Channel 0.  Note 62.  Velocity 80
000000t:  Note on ::  Channel 0.  Note 66.  Velocity 80
000227t:  Note on ::  Channel 0.  Note 59.  Velocity 0
000000t:  Note on ::  Channel 0.  Note 62.  Velocity 0
000000t:  Note on ::  Channel 0.  Note 66.  Velocity 0
000013t:  Note on ::  Channel 0.  Note 54.  Velocity 80
000227t:  Note on ::  Channel 0.  Note 54.  Velocity 0
000013t:  Note on ::  Channel 0.  Note 57.  Velocity 80
000000t:  Note on ::  Channel 0.  Note 62.  Velocity 80
000000t:  Note on ::  Channel 0.  Note 66.  Velocity 80
000911t:  Note on ::  Channel 0.  Note 57.  Velocity 0
000000t:  Note on ::  Channel 0.  Note 62.  Velocity 0
000000t:  Note on ::  Channel 0.  Note 66.  Velocity 0
000049t:  Note on ::  Channel 0.  Note 55.  Velocity 96
000000t:  Note on ::  Channel 0.  Note 59.  Velocity 96
000000t:  Note on ::  Channel 0.  Note 67.  Velocity 96
000239t:  Note on ::  Channel 0.  Note 55.  Velocity 0
000000t:  Note on ::  Channel 0.  Note 59.  Velocity 0
000000t:  Note on ::  Channel 0.  Note 67.  Velocity 0
000121t:  Note on ::  Channel 0.  Note 55.  Velocity 96
000000t:  Note on ::  Channel 0.  Note 59.  Velocity 96
000000t:  Note on ::  Channel 0.  Note 67.  Velocity 96
000233t:  Note on ::  Channel 0.  Note 55.  Velocity 0
000000t:  Note on ::  Channel 0.  Note 59.  Velocity 0
000000t:  Note on ::  Channel 0.  Note 67.  Velocity 0
000127t:  Note on ::  Channel 0.  Note 54.  Velocity 96
000000t:  Note on ::  Channel 0.  Note 57.  Velocity 96
000000t:  Note on ::  Channel 0.  Note 66.  Velocity 96
000467t:  Note on ::  Channel 0.  Note 54.  Velocity 0
000000t:  Note on ::  Channel 0.  Note 57.  Velocity 0
000000t:  Note on ::  Channel 0.  Note 66.  Velocity 0
000013t:  Note on ::  Channel 0.  Note 52.  Velocity 96
000000t:  Note on ::  Channel 0.  Note 55.  Velocity 96
000000t:  Note on ::  Channel 0.  Note 64.  Velocity 96
000467t:  Note on ::  Channel 0.  Note 52.  Velocity 0
000000t:  Note on ::  Channel 0.  Note 55.  Velocity 0
000000t:  Note on ::  Channel 0.  Note 64.  Velocity 0
000013t:  Note on ::  Channel 0.  Note 55.  Velocity 96
000000t:  Note on ::  Channel 0.  Note 59.  Velocity 96
000000t:  Note on ::  Channel 0.  Note 67.  Velocity 96
000467t:  Note on ::  Channel 0.  Note 55.  Velocity 0
000000t:  Note on ::  Channel 0.  Note 59.  Velocity 0
000000t:  Note on ::  Channel 0.  Note 67.  Velocity 0
000013t:  Note on ::  Channel 0.  Note 54.  Velocity 96
000000t:  Note on ::  Channel 0.  Note 57.  Velocity 96
000000t:  Note on ::  Channel 0.  Note 66.  Velocity 96
000467t:  Note on ::  Channel 0.  Note 54.  Velocity 0
000000t:  Note on ::  Channel 0.  Note 57.  Velocity 0
000000t:  Note on ::  Channel 0.  Note 66.  Velocity 0
000013t:  Note on ::  Channel 0.  Note 49.  Velocity 80
000000t:  Note on ::  Channel 0.  Note 52.  Velocity 80
000000t:  Note on ::  Channel 0.  Note 61.  Velocity 80
000227t:  Note on ::  Channel 0.  Note 49.  Velocity 0
000000t:  Note on ::  Channel 0.  Note 52.  Velocity 0
000000t:  Note on ::  Channel 0.  Note 61.  Velocity 0
000013t:  Note on ::  Channel 0.  Note 49.  Velocity 96
000000t:  Note on ::  Channel 0.  Note 52.  Velocity 96
000000t:  Note on ::  Channel 0.  Note 61.  Velocity 96
000479t:  Note on ::  Channel 0.  Note 49.  Velocity 0
000000t:  Note on ::  Channel 0.  Note 52.  Velocity 0
000000t:  Note on ::  Channel 0.  Note 61.  Velocity 0
000001t:  Note on ::  Channel 0.  Note 50.  Velocity 96
000000t:  Note on ::  Channel 0.  Note 54.  Velocity 96
000000t:  Note on ::  Channel 0.  Note 62.  Velocity 96
000479t:  Note on ::  Channel 0.  Note 50.  Velocity 0
000000t:  Note on ::  Channel 0.  Note 54.  Velocity 0
000000t:  Note on ::  Channel 0.  Note 62.  Velocity 0
000001t:  Note on ::  Channel 0.  Note 55.  Velocity 96
000000t:  Note on ::  Channel 0.  Note 59.  Velocity 96
000000t:  Note on ::  Channel 0.  Note 67.  Velocity 96
000239t:  Note on ::  Channel 0.  Note 55.  Velocity 0
000000t:  Note on ::  Channel 0.  Note 59.  Velocity 0
000000t:  Note on ::  Channel 0.  Note 67.  Velocity 0
000121t:  Note on ::  Channel 0.  Note 55.  Velocity 80
000000t:  Note on ::  Channel 0.  Note 59.  Velocity 80
000000t:  Note on ::  Channel 0.  Note 67.  Velocity 80
000227t:  Note on ::  Channel 0.  Note 55.  Velocity 0
000000t:  Note on ::  Channel 0.  Note 59.  Velocity 0
000000t:  Note on ::  Channel 0.  Note 67.  Velocity 0
000133t:  Note on ::  Channel 0.  Note 54.  Velocity 96
000000t:  Note on ::  Channel 0.  Note 57.  Velocity 96
000000t:  Note on ::  Channel 0.  Note 66.  Velocity 96
000467t:  Note on ::  Channel 0.  Note 54.  Velocity 0
000000t:  Note on ::  Channel 0.  Note 57.  Velocity 0
000000t:  Note on ::  Channel 0.  Note 66.  Velocity 0
000013t:  Note on ::  Channel 0.  Note 52.  Velocity 80
000000t:  Note on ::  Channel 0.  Note 55.  Velocity 80
000000t:  Note on ::  Channel 0.  Note 64.  Velocity 80
000455t:  Note on ::  Channel 0.  Note 52.  Velocity 0
000000t:  Note on ::  Channel 0.  Note 55.  Velocity 0
000000t:  Note on ::  Channel 0.  Note 64.  Velocity 0
000025t:  Note on ::  Channel 0.  Note 55.  Velocity 96
000000t:  Note on ::  Channel 0.  Note 59.  Velocity 96
000000t:  Note on ::  Channel 0.  Note 67.  Velocity 96
000467t:  Note on ::  Channel 0.  Note 55.  Velocity 0
000000t:  Note on ::  Channel 0.  Note 59.  Velocity 0
000000t:  Note on ::  Channel 0.  Note 67.  Velocity 0
000013t:  Note on ::  Channel 0.  Note 54.  Velocity 96
000000t:  Note on ::  Channel 0.  Note 57.  Velocity 96
000000t:  Note on ::  Channel 0.  Note 66.  Velocity 96
000467t:  Note on ::  Channel 0.  Note 54.  Velocity 0
000000t:  Note on ::  Channel 0.  Note 57.  Velocity 0
000000t:  Note on ::  Channel 0.  Note 66.  Velocity 0
000013t:  Note on ::  Channel 0.  Note 49.  Velocity 80
000000t:  Note on ::  Channel 0.  Note 52.  Velocity 80
000000t:  Note on ::  Channel 0.  Note 61.  Velocity 80
000227t:  Note on ::  Channel 0.  Note 49.  Velocity 0
000000t:  Note on ::  Channel 0.  Note 52.  Velocity 0
000000t:  Note on ::  Channel 0.  Note 61.  Velocity 0
000013t:  Note on ::  Channel 0.  Note 49.  Velocity 96
000000t:  Note on ::  Channel 0.  Note 52.  Velocity 96
000000t:  Note on ::  Channel 0.  Note 61.  Velocity 96
000479t:  Note on ::  Channel 0.  Note 49.  Velocity 0
000000t:  Note on ::  Channel 0.  Note 52.  Velocity 0
000000t:  Note on ::  Channel 0.  Note 61.  Velocity 0
000001t:  Note on ::  Channel 0.  Note 50.  Velocity 96
000000t:  Note on ::  Channel 0.  Note 54.  Velocity 96
000000t:  Note on ::  Channel 0.  Note 62.  Velocity 96
000479t:  Note on ::  Channel 0.  Note 50.  Velocity 0
000000t:  Note on ::  Channel 0.  Note 54.  Velocity 0
000000t:  Note on ::  Channel 0.  Note 62.  Velocity 0
000001t:  Note on ::  Channel 0.  Note 52.  Velocity 80
000000t:  Note on ::  Channel 0.  Note 57.  Velocity 80
000000t:  Note on ::  Channel 0.  Note 61.  Velocity 80
000000t:  Note on ::  Channel 0.  Note 64.  Velocity 80
001823t:  Note on ::  Channel 0.  Note 52.  Velocity 0
000000t:  Note on ::  Channel 0.  Note 57.  Velocity 0
000000t:  Note on ::  Channel 0.  Note 61.  Velocity 0
000000t:  Note on ::  Channel 0.  Note 64.  Velocity 0
000001t:  Meta-event type $2f (End-track event) of length 0
Sigma t = 182304

Track chunk of 1764 bytes
000000t:  Meta-event type $59 (Key signature) of length 2
	  __
000000t:  Meta-event type $21 (?) of length 1
	  _
000000t:  Note on ::  Channel 0.  Note 45.  Velocity 80
000002t:  Control change ::  Channel 0.  Controller 64.  Value: 127
001593t:  Note on ::  Channel 0.  Note 45.  Velocity 0
000085t:  Note on ::  Channel 0.  Note 33.  Velocity 80
000000t:  Note on ::  Channel 0.  Note 45.  Velocity 80
000227t:  Note on ::  Channel 0.  Note 33.  Velocity 0
000000t:  Note on ::  Channel 0.  Note 45.  Velocity 0
000013t:  Note on ::  Channel 0.  Note 33.  Velocity 80
000000t:  Note on ::  Channel 0.  Note 45.  Velocity 80
001823t:  Note on ::  Channel 0.  Note 33.  Velocity 0
000000t:  Note on ::  Channel 0.  Note 45.  Velocity 0
000097t:  Note on ::  Channel 0.  Note 45.  Velocity 80
000001t:  Control change ::  Channel 0.  Controller 64.  Value: 0
001822t:  Note on ::  Channel 0.  Note 45.  Velocity 0
000097t:  Note on ::  Channel 0.  Note 40.  Velocity 80
000227t:  Note on ::  Channel 0.  Note 40.  Velocity 0
000733t:  Note on ::  Channel 0.  Note 40.  Velocity 80
000227t:  Note on ::  Channel 0.  Note 40.  Velocity 0
000013t:  Note on ::  Channel 0.  Note 47.  Velocity 80
000683t:  Note on ::  Channel 0.  Note 47.  Velocity 0
000037t:  Note on ::  Channel 0.  Note 50.  Velocity 80
001823t:  Note on ::  Channel 0.  Note 50.  Velocity 0
000097t:  Note on ::  Channel 0.  Note 38.  Velocity 80
000000t:  Note on ::  Channel 0.  Note 50.  Velocity 80
001139t:  Note on ::  Channel 0.  Note 38.  Velocity 0
000000t:  Note on ::  Channel 0.  Note 50.  Velocity 0
000061t:  Note on ::  Channel 0.  Note 38.  Velocity 80
000455t:  Note on ::  Channel 0.  Note 38.  Velocity 0
000025t:  Note on ::  Channel 0.  Note 44.  Velocity 80
000227t:  Note on ::  Channel 0.  Note 44.  Velocity 0
000013t:  Note on ::  Channel 0.  Note 45.  Velocity 80
001595t:  Note on ::  Channel 0.  Note 45.  Velocity 0
000085t:  Note on ::  Channel 0.  Note 33.  Velocity 80
000000t:  Note on ::  Channel 0.  Note 45.  Velocity 80
000227t:  Note on ::  Channel 0.  Note 33.  Velocity 0
000000t:  Note on ::  Channel 0.  Note 45.  Velocity 0
000013t:  Note on ::  Channel 0.  Note 33.  Velocity 80
000000t:  Note on ::  Channel 0.  Note 45.  Velocity 80
001823t:  Note on ::  Channel 0.  Note 33.  Velocity 0
000000t:  Note on ::  Channel 0.  Note 45.  Velocity 0
000097t:  Note on ::  Channel 0.  Note 38.  Velocity 80
000911t:  Note on ::  Channel 0.  Note 38.  Velocity 0
000049t:  Note on ::  Channel 0.  Note 43.  Velocity 80
000455t:  Note on ::  Channel 0.  Note 43.  Velocity 0
000025t:  Note on ::  Channel 0.  Note 43.  Velocity 80
000227t:  Note on ::  Channel 0.  Note 43.  Velocity 0
000013t:  Note on ::  Channel 0.  Note 44.  Velocity 80
000227t:  Note on ::  Channel 0.  Note 44.  Velocity 0
000013t:  Note on ::  Channel 0.  Note 45.  Velocity 80
000227t:  Note on ::  Channel 0.  Note 45.  Velocity 0
000733t:  Note on ::  Channel 0.  Note 45.  Velocity 80
000227t:  Note on ::  Channel 0.  Note 45.  Velocity 0
000013t:  Note on ::  Channel 0.  Note 45.  Velocity 80
000683t:  Note on ::  Channel 0.  Note 45.  Velocity 0
000037t:  Note on ::  Channel 0.  Note 42.  Velocity 80
000683t:  Note on ::  Channel 0.  Note 42.  Velocity 0
000037t:  Note on ::  Channel 0.  Note 49.  Velocity 80
000227t:  Note on ::  Channel 0.  Note 49.  Velocity 0
000013t:  Note on ::  Channel 0.  Note 54.  Velocity 80
000911t:  Note on ::  Channel 0.  Note 54.  Velocity 0
000049t:  Note on ::  Channel 0.  Note 47.  Velocity 80
001595t:  Note on ::  Channel 0.  Note 47.  Velocity 0
000085t:  Note on ::  Channel 0.  Note 47.  Velocity 80
000227t:  Note on ::  Channel 0.  Note 47.  Velocity 0
000013t:  Note on ::  Channel 0.  Note 50.  Velocity 80
000683t:  Note on ::  Channel 0.  Note 50.  Velocity 0
000037t:  Note on ::  Channel 0.  Note 50.  Velocity 80
000227t:  Note on ::  Channel 0.  Note 50.  Velocity 0
000013t:  Note on ::  Channel 0.  Note 49.  Velocity 80
000911t:  Note on ::  Channel 0.  Note 49.  Velocity 0
000049t:  Note on ::  Channel 0.  Note 52.  Velocity 80
001823t:  Note on ::  Channel 0.  Note 52.  Velocity 0
000097t:  Note on ::  Channel 0.  Note 42.  Velocity 80
000683t:  Note on ::  Channel 0.  Note 42.  Velocity 0
000037t:  Note on ::  Channel 0.  Note 49.  Velocity 80
000227t:  Note on ::  Channel 0.  Note 49.  Velocity 0
000013t:  Note on ::  Channel 0.  Note 54.  Velocity 80
000911t:  Note on ::  Channel 0.  Note 54.  Velocity 0
000049t:  Note on ::  Channel 0.  Note 50.  Velocity 80
001823t:  Note on ::  Channel 0.  Note 50.  Velocity 0
000097t:  Note on ::  Channel 0.  Note 40.  Velocity 80
001823t:  Note on ::  Channel 0.  Note 40.  Velocity 0
000097t:  Note on ::  Channel 0.  Note 37.  Velocity 80
000455t:  Note on ::  Channel 0.  Note 37.  Velocity 0
000025t:  Note on ::  Channel 0.  Note 41.  Velocity 80
000227t:  Note on ::  Channel 0.  Note 41.  Velocity 0
000013t:  Note on ::  Channel 0.  Note 42.  Velocity 80
000455t:  Note on ::  Channel 0.  Note 42.  Velocity 0
000025t:  Note on ::  Channel 0.  Note 42.  Velocity 80
000227t:  Note on ::  Channel 0.  Note 42.  Velocity 0
000013t:  Note on ::  Channel 0.  Note 46.  Velocity 80
000455t:  Note on ::  Channel 0.  Note 46.  Velocity 0
000025t:  Note on ::  Channel 0.  Note 47.  Velocity 80
000911t:  Note on ::  Channel 0.  Note 47.  Velocity 0
000049t:  Note on ::  Channel 0.  Note 50.  Velocity 80
000911t:  Note on ::  Channel 0.  Note 50.  Velocity 0
000049t:  Note on ::  Channel 0.  Note 49.  Velocity 80
000911t:  Note on ::  Channel 0.  Note 49.  Velocity 0
000049t:  Note on ::  Channel 0.  Note 52.  Velocity 80
000911t:  Note on ::  Channel 0.  Note 52.  Velocity 0
000049t:  Note on ::  Channel 0.  Note 40.  Velocity 80
001823t:  Note on ::  Channel 0.  Note 40.  Velocity 0
000097t:  Note on ::  Channel 0.  Note 50.  Velocity 80
003647t:  Note on ::  Channel 0.  Note 50.  Velocity 0
000193t:  Note on ::  Channel 0.  Note 45.  Velocity 80
000001t:  Control change ::  Channel 0.  Controller 64.  Value: 0
001822t:  Note on ::  Channel 0.  Note 45.  Velocity 0
000097t:  Note on ::  Channel 0.  Note 40.  Velocity 80
000227t:  Note on ::  Channel 0.  Note 40.  Velocity 0
000733t:  Note on ::  Channel 0.  Note 40.  Velocity 80
000227t:  Note on ::  Channel 0.  Note 40.  Velocity 0
000013t:  Note on ::  Channel 0.  Note 47.  Velocity 80
000683t:  Note on ::  Channel 0.  Note 47.  Velocity 0
000037t:  Note on ::  Channel 0.  Note 50.  Velocity 80
001823t:  Note on ::  Channel 0.  Note 50.  Velocity 0
000097t:  Note on ::  Channel 0.  Note 38.  Velocity 80
000000t:  Note on ::  Channel 0.  Note 50.  Velocity 80
001139t:  Note on ::  Channel 0.  Note 38.  Velocity 0
000000t:  Note on ::  Channel 0.  Note 50.  Velocity 0
000061t:  Note on ::  Channel 0.  Note 38.  Velocity 80
000455t:  Note on ::  Channel 0.  Note 38.  Velocity 0
000025t:  Note on ::  Channel 0.  Note 44.  Velocity 80
000227t:  Note on ::  Channel 0.  Note 44.  Velocity 0
000013t:  Note on ::  Channel 0.  Note 45.  Velocity 80
001595t:  Note on ::  Channel 0.  Note 45.  Velocity 0
000085t:  Note on ::  Channel 0.  Note 33.  Velocity 80
000000t:  Note on ::  Channel 0.  Note 45.  Velocity 80
000227t:  Note on ::  Channel 0.  Note 33.  Velocity 0
000000t:  Note on ::  Channel 0.  Note 45.  Velocity 0
000013t:  Note on ::  Channel 0.  Note 33.  Velocity 80
000000t:  Note on ::  Channel 0.  Note 45.  Velocity 80
001823t:  Note on ::  Channel 0.  Note 33.  Velocity 0
000000t:  Note on ::  Channel 0.  Note 45.  Velocity 0
000097t:  Note on ::  Channel 0.  Note 38.  Velocity 80
000911t:  Note on ::  Channel 0.  Note 38.  Velocity 0
000049t:  Note on ::  Channel 0.  Note 43.  Velocity 80
000455t:  Note on ::  Channel 0.  Note 43.  Velocity 0
000025t:  Note on ::  Channel 0.  Note 43.  Velocity 80
000227t:  Note on ::  Channel 0.  Note 43.  Velocity 0
000013t:  Note on ::  Channel 0.  Note 44.  Velocity 80
000227t:  Note on ::  Channel 0.  Note 44.  Velocity 0
000013t:  Note on ::  Channel 0.  Note 45.  Velocity 80
000227t:  Note on ::  Channel 0.  Note 45.  Velocity 0
000733t:  Note on ::  Channel 0.  Note 45.  Velocity 80
000227t:  Note on ::  Channel 0.  Note 45.  Velocity 0
000013t:  Note on ::  Channel 0.  Note 45.  Velocity 80
000683t:  Note on ::  Channel 0.  Note 45.  Velocity 0
000037t:  Note on ::  Channel 0.  Note 42.  Velocity 80
000683t:  Note on ::  Channel 0.  Note 42.  Velocity 0
000037t:  Note on ::  Channel 0.  Note 49.  Velocity 80
000227t:  Note on ::  Channel 0.  Note 49.  Velocity 0
000013t:  Note on ::  Channel 0.  Note 54.  Velocity 80
000911t:  Note on ::  Channel 0.  Note 54.  Velocity 0
000049t:  Note on ::  Channel 0.  Note 47.  Velocity 80
001595t:  Note on ::  Channel 0.  Note 47.  Velocity 0
000085t:  Note on ::  Channel 0.  Note 47.  Velocity 80
000227t:  Note on ::  Channel 0.  Note 47.  Velocity 0
000013t:  Note on ::  Channel 0.  Note 50.  Velocity 80
000683t:  Note on ::  Channel 0.  Note 50.  Velocity 0
000037t:  Note on ::  Channel 0.  Note 50.  Velocity 80
000227t:  Note on ::  Channel 0.  Note 50.  Velocity 0
000013t:  Note on ::  Channel 0.  Note 49.  Velocity 80
000911t:  Note on ::  Channel 0.  Note 49.  Velocity 0
000049t:  Note on ::  Channel 0.  Note 52.  Velocity 80
001823t:  Note on ::  Channel 0.  Note 52.  Velocity 0
000097t:  Note on ::  Channel 0.  Note 42.  Velocity 80
000683t:  Note on ::  Channel 0.  Note 42.  Velocity 0
000037t:  Note on ::  Channel 0.  Note 49.  Velocity 80
000227t:  Note on ::  Channel 0.  Note 49.  Velocity 0
000013t:  Note on ::  Channel 0.  Note 54.  Velocity 80
000911t:  Note on ::  Channel 0.  Note 54.  Velocity 0
000049t:  Note on ::  Channel 0.  Note 50.  Velocity 80
001823t:  Note on ::  Channel 0.  Note 50.  Velocity 0
000097t:  Note on ::  Channel 0.  Note 40.  Velocity 80
001823t:  Note on ::  Channel 0.  Note 40.  Velocity 0
000097t:  Note on ::  Channel 0.  Note 37.  Velocity 80
000455t:  Note on ::  Channel 0.  Note 37.  Velocity 0
000025t:  Note on ::  Channel 0.  Note 41.  Velocity 80
000227t:  Note on ::  Channel 0.  Note 41.  Velocity 0
000013t:  Note on ::  Channel 0.  Note 42.  Velocity 80
000455t:  Note on ::  Channel 0.  Note 42.  Velocity 0
000025t:  Note on ::  Channel 0.  Note 42.  Velocity 80
000227t:  Note on ::  Channel 0.  Note 42.  Velocity 0
000013t:  Note on ::  Channel 0.  Note 46.  Velocity 80
000455t:  Note on ::  Channel 0.  Note 46.  Velocity 0
000025t:  Note on ::  Channel 0.  Note 47.  Velocity 80
000911t:  Note on ::  Channel 0.  Note 47.  Velocity 0
000049t:  Note on ::  Channel 0.  Note 50.  Velocity 80
000911t:  Note on ::  Channel 0.  Note 50.  Velocity 0
000049t:  Note on ::  Channel 0.  Note 49.  Velocity 80
000911t:  Note on ::  Channel 0.  Note 49.  Velocity 0
000049t:  Note on ::  Channel 0.  Note 52.  Velocity 80
000911t:  Note on ::  Channel 0.  Note 52.  Velocity 0
000049t:  Note on ::  Channel 0.  Note 47.  Velocity 80
000911t:  Note on ::  Channel 0.  Note 47.  Velocity 0
000049t:  Note on ::  Channel 0.  Note 50.  Velocity 80
000911t:  Note on ::  Channel 0.  Note 50.  Velocity 0
000049t:  Note on ::  Channel 0.  Note 43.  Velocity 96
000227t:  Note on ::  Channel 0.  Note 43.  Velocity 0
000013t:  Note on ::  Channel 0.  Note 31.  Velocity 96
000227t:  Note on ::  Channel 0.  Note 31.  Velocity 0
000013t:  Note on ::  Channel 0.  Note 43.  Velocity 96
000455t:  Note on ::  Channel 0.  Note 43.  Velocity 0
000025t:  Note on ::  Channel 0.  Note 43.  Velocity 96
000455t:  Note on ::  Channel 0.  Note 43.  Velocity 0
000025t:  Note on ::  Channel 0.  Note 43.  Velocity 96
000455t:  Note on ::  Channel 0.  Note 43.  Velocity 0
000025t:  Note on ::  Channel 0.  Note 43.  Velocity 96
000455t:  Note on ::  Channel 0.  Note 43.  Velocity 0
000025t:  Note on ::  Channel 0.  Note 43.  Velocity 94
000455t:  Note on ::  Channel 0.  Note 43.  Velocity 0
000025t:  Note on ::  Channel 0.  Note 43.  Velocity 90
000455t:  Note on ::  Channel 0.  Note 43.  Velocity 0
000025t:  Note on ::  Channel 0.  Note 43.  Velocity 85
000227t:  Note on ::  Channel 0.  Note 43.  Velocity 0
000013t:  Note on ::  Channel 0.  Note 31.  Velocity 83
000227t:  Note on ::  Channel 0.  Note 31.  Velocity 0
000013t:  Note on ::  Channel 0.  Note 31.  Velocity 80
000000t:  Note on ::  Channel 0.  Note 43.  Velocity 80
000455t:  Note on ::  Channel 0.  Note 31.  Velocity 0
000000t:  Note on ::  Channel 0.  Note 43.  Velocity 0
000025t:  Note on ::  Channel 0.  Note 31.  Velocity 80
000000t:  Note on ::  Channel 0.  Note 43.  Velocity 80
000455t:  Note on ::  Channel 0.  Note 31.  Velocity 0
000000t:  Note on ::  Channel 0.  Note 43.  Velocity 0
000025t:  Note on ::  Channel 0.  Note 43.  Velocity 80
000455t:  Note on ::  Channel 0.  Note 43.  Velocity 0
000025t:  Note on ::  Channel 0.  Note 43.  Velocity 80
000455t:  Note on ::  Channel 0.  Note 43.  Velocity 0
000025t:  Note on ::  Channel 0.  Note 43.  Velocity 80
000455t:  Note on ::  Channel 0.  Note 43.  Velocity 0
000025t:  Note on ::  Channel 0.  Note 43.  Velocity 73
000455t:  Note on ::  Channel 0.  Note 43.  Velocity 0
000025t:  Note on ::  Channel 0.  Note 43.  Velocity 65
000455t:  Note on ::  Channel 0.  Note 43.  Velocity 0
000025t:  Note on ::  Channel 0.  Note 43.  Velocity 57
000455t:  Note on ::  Channel 0.  Note 43.  Velocity 0
000025t:  Note on ::  Channel 0.  Note 45.  Velocity 49
001595t:  Note on ::  Channel 0.  Note 45.  Velocity 0
000085t:  Note on ::  Channel 0.  Note 33.  Velocity 80
000000t:  Note on ::  Channel 0.  Note 45.  Velocity 80
000113t:  Note on ::  Channel 0.  Note 33.  Velocity 0
000000t:  Note on ::  Channel 0.  Note 45.  Velocity 0
000007t:  Note on ::  Channel 0.  Note 35.  Velocity 80
000000t:  Note on ::  Channel 0.  Note 47.  Velocity 80
000113t:  Note on ::  Channel 0.  Note 35.  Velocity 0
000000t:  Note on ::  Channel 0.  Note 47.  Velocity 0
000007t:  Note on ::  Channel 0.  Note 37.  Velocity 80
000000t:  Note on ::  Channel 0.  Note 49.  Velocity 80
001139t:  Note on ::  Channel 0.  Note 37.  Velocity 0
000000t:  Note on ::  Channel 0.  Note 49.  Velocity 0
000061t:  Note on ::  Channel 0.  Note 37.  Velocity 80
000000t:  Note on ::  Channel 0.  Note 49.  Velocity 80
000683t:  Note on ::  Channel 0.  Note 37.  Velocity 0
000000t:  Note on ::  Channel 0.  Note 49.  Velocity 0
000037t:  Note on ::  Channel 0.  Note 50.  Velocity 80
001823t:  Note on ::  Channel 0.  Note 50.  Velocity 0
000097t:  Note on ::  Channel 0.  Note 38.  Velocity 80
000000t:  Note on ::  Channel 0.  Note 50.  Velocity 80
001139t:  Note on ::  Channel 0.  Note 38.  Velocity 0
000000t:  Note on ::  Channel 0.  Note 50.  Velocity 0
000061t:  Note on ::  Channel 0.  Note 38.  Velocity 80
000455t:  Note on ::  Channel 0.  Note 38.  Velocity 0
000025t:  Note on ::  Channel 0.  Note 44.  Velocity 80
000227t:  Note on ::  Channel 0.  Note 44.  Velocity 0
000013t:  Note on ::  Channel 0.  Note 45.  Velocity 80
001595t:  Note on ::  Channel 0.  Note 45.  Velocity 0
000085t:  Note on ::  Channel 0.  Note 33.  Velocity 80
000000t:  Note on ::  Channel 0.  Note 45.  Velocity 80
000227t:  Note on ::  Channel 0.  Note 33.  Velocity 0
000000t:  Note on ::  Channel 0.  Note 45.  Velocity 0
000013t:  Note on ::  Channel 0.  Note 33.  Velocity 80
000000t:  Note on ::  Channel 0.  Note 45.  Velocity 80
001823t:  Note on ::  Channel 0.  Note 33.  Velocity 0
000000t:  Note on ::  Channel 0.  Note 45.  Velocity 0
000097t:  Note on ::  Channel 0.  Note 38.  Velocity 80
000911t:  Note on ::  Channel 0.  Note 38.  Velocity 0
000049t:  Note on ::  Channel 0.  Note 43.  Velocity 80
000455t:  Note on ::  Channel 0.  Note 43.  Velocity 0
000025t:  Note on ::  Channel 0.  Note 43.  Velocity 80
000227t:  Note on ::  Channel 0.  Note 43.  Velocity 0
000013t:  Note on ::  Channel 0.  Note 44.  Velocity 80
000227t:  Note on ::  Channel 0.  Note 44.  Velocity 0
000013t:  Note on ::  Channel 0.  Note 45.  Velocity 80
001139t:  Note on ::  Channel 0.  Note 45.  Velocity 0
000061t:  Note on ::  Channel 0.  Note 45.  Velocity 80
000683t:  Note on ::  Channel 0.  Note 45.  Velocity 0
000037t:  Note on ::  Channel 0.  Note 42.  Velocity 80
000683t:  Note on ::  Channel 0.  Note 42.  Velocity 0
000037t:  Note on ::  Channel 0.  Note 49.  Velocity 80
000227t:  Note on ::  Channel 0.  Note 49.  Velocity 0
000013t:  Note on ::  Channel 0.  Note 54.  Velocity 80
000683t:  Note on ::  Channel 0.  Note 54.  Velocity 0
000037t:  Note on ::  Channel 0.  Note 45.  Velocity 80
000227t:  Note on ::  Channel 0.  Note 45.  Velocity 0
000013t:  Note on ::  Channel 0.  Note 47.  Velocity 80
000683t:  Note on ::  Channel 0.  Note 47.  Velocity 0
000037t:  Note on ::  Channel 0.  Note 42.  Velocity 80
000227t:  Note on ::  Channel 0.  Note 42.  Velocity 0
000013t:  Note on ::  Channel 0.  Note 35.  Velocity 80
000683t:  Note on ::  Channel 0.  Note 35.  Velocity 0
000037t:  Note on ::  Channel 0.  Note 47.  Velocity 80
000227t:  Note on ::  Channel 0.  Note 47.  Velocity 0
000013t:  Note on ::  Channel 0.  Note 50.  Velocity 80
000683t:  Note on ::  Channel 0.  Note 50.  Velocity 0
000037t:  Note on ::  Channel 0.  Note 50.  Velocity 80
000227t:  Note on ::  Channel 0.  Note 50.  Velocity 0
000013t:  Note on ::  Channel 0.  Note 49.  Velocity 80
000911t:  Note on ::  Channel 0.  Note 49.  Velocity 0
000049t:  Note on ::  Channel 0.  Note 52.  Velocity 80
001823t:  Note on ::  Channel 0.  Note 52.  Velocity 0
000097t:  Note on ::  Channel 0.  Note 50.  Velocity 80
000683t:  Note on ::  Channel 0.  Note 50.  Velocity 0
000037t:  Note on ::  Channel 0.  Note 45.  Velocity 80
000227t:  Note on ::  Channel 0.  Note 45.  Velocity 0
000013t:  Note on ::  Channel 0.  Note 38.  Velocity 80
000911t:  Note on ::  Channel 0.  Note 38.  Velocity 0
000049t:  Note on ::  Channel 0.  Note 40.  Velocity 80
001823t:  Note on ::  Channel 0.  Note 40.  Velocity 0
000097t:  Note on ::  Channel 0.  Note 37.  Velocity 80
000455t:  Note on ::  Channel 0.  Note 37.  Velocity 0
000025t:  Note on ::  Channel 0.  Note 41.  Velocity 80
000227t:  Note on ::  Channel 0.  Note 41.  Velocity 0
000013t:  Note on ::  Channel 0.  Note 42.  Velocity 80
000455t:  Note on ::  Channel 0.  Note 42.  Velocity 0
000025t:  Note on ::  Channel 0.  Note 42.  Velocity 80
000227t:  Note on ::  Channel 0.  Note 42.  Velocity 0
000013t:  Note on ::  Channel 0.  Note 46.  Velocity 80
000455t:  Note on ::  Channel 0.  Note 46.  Velocity 0
000025t:  Note on ::  Channel 0.  Note 47.  Velocity 80
000911t:  Note on ::  Channel 0.  Note 47.  Velocity 0
000049t:  Note on ::  Channel 0.  Note 50.  Velocity 80
000911t:  Note on ::  Channel 0.  Note 50.  Velocity 0
000049t:  Note on ::  Channel 0.  Note 49.  Velocity 80
000911t:  Note on ::  Channel 0.  Note 49.  Velocity 0
000049t:  Note on ::  Channel 0.  Note 52.  Velocity 80
000911t:  Note on ::  Channel 0.  Note 52.  Velocity 0
000049t:  Note on ::  Channel 0.  Note 47.  Velocity 80
001823t:  Note on ::  Channel 0.  Note 47.  Velocity 0
000097t:  Note on ::  Channel 0.  Note 50.  Velocity 80
003647t:  Note on ::  Channel 0.  Note 50.  Velocity 0
000193t:  Note on ::  Channel 0.  Note 45.  Velocity 49
001595t:  Note on ::  Channel 0.  Note 45.  Velocity 0
000085t:  Note on ::  Channel 0.  Note 33.  Velocity 80
000000t:  Note on ::  Channel 0.  Note 45.  Velocity 80
000113t:  Note on ::  Channel 0.  Note 33.  Velocity 0
000000t:  Note on ::  Channel 0.  Note 45.  Velocity 0
000007t:  Note on ::  Channel 0.  Note 35.  Velocity 80
000000t:  Note on ::  Channel 0.  Note 47.  Velocity 80
000113t:  Note on ::  Channel 0.  Note 35.  Velocity 0
000000t:  Note on ::  Channel 0.  Note 47.  Velocity 0
000007t:  Note on ::  Channel 0.  Note 37.  Velocity 80
000000t:  Note on ::  Channel 0.  Note 49.  Velocity 80
001139t:  Note on ::  Channel 0.  Note 37.  Velocity 0
000000t:  Note on ::  Channel 0.  Note 49.  Velocity 0
000061t:  Note on ::  Channel 0.  Note 37.  Velocity 80
000000t:  Note on ::  Channel 0.  Note 49.  Velocity 80
000683t:  Note on ::  Channel 0.  Note 37.  Velocity 0
000000t:  Note on ::  Channel 0.  Note 49.  Velocity 0
000037t:  Note on ::  Channel 0.  Note 50.  Velocity 80
001823t:  Note on ::  Channel 0.  Note 50.  Velocity 0
000097t:  Note on ::  Channel 0.  Note 38.  Velocity 80
000000t:  Note on ::  Channel 0.  Note 50.  Velocity 80
001139t:  Note on ::  Channel 0.  Note 38.  Velocity 0
000000t:  Note on ::  Channel 0.  Note 50.  Velocity 0
000061t:  Note on ::  Channel 0.  Note 38.  Velocity 80
000455t:  Note on ::  Channel 0.  Note 38.  Velocity 0
000025t:  Note on ::  Channel 0.  Note 44.  Velocity 80
000227t:  Note on ::  Channel 0.  Note 44.  Velocity 0
000013t:  Note on ::  Channel 0.  Note 45.  Velocity 80
001595t:  Note on ::  Channel 0.  Note 45.  Velocity 0
000085t:  Note on ::  Channel 0.  Note 33.  Velocity 80
000000t:  Note on ::  Channel 0.  Note 45.  Velocity 80
000227t:  Note on ::  Channel 0.  Note 33.  Velocity 0
000000t:  Note on ::  Channel 0.  Note 45.  Velocity 0
000013t:  Note on ::  Channel 0.  Note 33.  Velocity 80
000000t:  Note on ::  Channel 0.  Note 45.  Velocity 80
001823t:  Note on ::  Channel 0.  Note 33.  Velocity 0
000000t:  Note on ::  Channel 0.  Note 45.  Velocity 0
000097t:  Note on ::  Channel 0.  Note 38.  Velocity 80
000911t:  Note on ::  Channel 0.  Note 38.  Velocity 0
000049t:  Note on ::  Channel 0.  Note 43.  Velocity 80
000455t:  Note on ::  Channel 0.  Note 43.  Velocity 0
000025t:  Note on ::  Channel 0.  Note 43.  Velocity 80
000227t:  Note on ::  Channel 0.  Note 43.  Velocity 0
000013t:  Note on ::  Channel 0.  Note 44.  Velocity 80
000227t:  Note on ::  Channel 0.  Note 44.  Velocity 0
000013t:  Note on ::  Channel 0.  Note 45.  Velocity 80
001139t:  Note on ::  Channel 0.  Note 45.  Velocity 0
000061t:  Note on ::  Channel 0.  Note 45.  Velocity 80
000683t:  Note on ::  Channel 0.  Note 45.  Velocity 0
000037t:  Note on ::  Channel 0.  Note 42.  Velocity 80
000683t:  Note on ::  Channel 0.  Note 42.  Velocity 0
000037t:  Note on ::  Channel 0.  Note 49.  Velocity 80
000227t:  Note on ::  Channel 0.  Note 49.  Velocity 0
000013t:  Note on ::  Channel 0.  Note 54.  Velocity 80
000683t:  Note on ::  Channel 0.  Note 54.  Velocity 0
000037t:  Note on ::  Channel 0.  Note 45.  Velocity 80
000227t:  Note on ::  Channel 0.  Note 45.  Velocity 0
000013t:  Note on ::  Channel 0.  Note 47.  Velocity 80
000683t:  Note on ::  Channel 0.  Note 47.  Velocity 0
000037t:  Note on ::  Channel 0.  Note 42.  Velocity 80
000227t:  Note on ::  Channel 0.  Note 42.  Velocity 0
000013t:  Note on ::  Channel 0.  Note 35.  Velocity 80
000683t:  Note on ::  Channel 0.  Note 35.  Velocity 0
000037t:  Note on ::  Channel 0.  Note 47.  Velocity 80
000227t:  Note on ::  Channel 0.  Note 47.  Velocity 0
000013t:  Note on ::  Channel 0.  Note 50.  Velocity 80
000683t:  Note on ::  Channel 0.  Note 50.  Velocity 0
000037t:  Note on ::  Channel 0.  Note 50.  Velocity 80
000227t:  Note on ::  Channel 0.  Note 50.  Velocity 0
000013t:  Note on ::  Channel 0.  Note 49.  Velocity 80
000911t:  Note on ::  Channel 0.  Note 49.  Velocity 0
000049t:  Note on ::  Channel 0.  Note 52.  Velocity 80
001823t:  Note on ::  Channel 0.  Note 52.  Velocity 0
000097t:  Note on ::  Channel 0.  Note 50.  Velocity 80
000683t:  Note on ::  Channel 0.  Note 50.  Velocity 0
000037t:  Note on ::  Channel 0.  Note 45.  Velocity 80
000227t:  Note on ::  Channel 0.  Note 45.  Velocity 0
000013t:  Note on ::  Channel 0.  Note 38.  Velocity 80
000911t:  Note on ::  Channel 0.  Note 38.  Velocity 0
000049t:  Note on ::  Channel 0.  Note 40.  Velocity 80
001823t:  Note on ::  Channel 0.  Note 40.  Velocity 0
000097t:  Note on ::  Channel 0.  Note 37.  Velocity 80
000455t:  Note on ::  Channel 0.  Note 37.  Velocity 0
000025t:  Note on ::  Channel 0.  Note 41.  Velocity 80
000227t:  Note on ::  Channel 0.  Note 41.  Velocity 0
000013t:  Note on ::  Channel 0.  Note 42.  Velocity 80
000455t:  Note on ::  Channel 0.  Note 42.  Velocity 0
000025t:  Note on ::  Channel 0.  Note 42.  Velocity 80
000227t:  Note on ::  Channel 0.  Note 42.  Velocity 0
000013t:  Note on ::  Channel 0.  Note 46.  Velocity 80
000455t:  Note on ::  Channel 0.  Note 46.  Velocity 0
000025t:  Note on ::  Channel 0.  Note 47.  Velocity 80
000911t:  Note on ::  Channel 0.  Note 47.  Velocity 0
000049t:  Note on ::  Channel 0.  Note 50.  Velocity 80
000911t:  Note on ::  Channel 0.  Note 50.  Velocity 0
000049t:  Note on ::  Channel 0.  Note 49.  Velocity 80
000911t:  Note on ::  Channel 0.  Note 49.  Velocity 0
000049t:  Note on ::  Channel 0.  Note 52.  Velocity 80
000911t:  Note on ::  Channel 0.  Note 52.  Velocity 0
000049t:  Note on ::  Channel 0.  Note 47.  Velocity 80
000911t:  Note on ::  Channel 0.  Note 47.  Velocity 0
000049t:  Note on ::  Channel 0.  Note 50.  Velocity 80
000911t:  Note on ::  Channel 0.  Note 50.  Velocity 0
000049t:  Note on ::  Channel 0.  Note 49.  Velocity 80
000911t:  Note on ::  Channel 0.  Note 49.  Velocity 0
000049t:  Note on ::  Channel 0.  Note 52.  Velocity 80
000240t:  Note on ::  Channel 0.  Note 52.  Velocity 0
000720t:  Note on ::  Channel 0.  Note 47.  Velocity 80
001823t:  Note on ::  Channel 0.  Note 47.  Velocity 0
000097t:  Note on ::  Channel 0.  Note 49.  Velocity 80
001823t:  Note on ::  Channel 0.  Note 49.  Velocity 0
000097t:  Note on ::  Channel 0.  Note 47.  Velocity 80
001823t:  Note on ::  Channel 0.  Note 47.  Velocity 0
000097t:  Note on ::  Channel 0.  Note 49.  Velocity 80
001823t:  Note on ::  Channel 0.  Note 49.  Velocity 0
000097t:  Note on ::  Channel 0.  Note 47.  Velocity 80
000911t:  Note on ::  Channel 0.  Note 47.  Velocity 0
000049t:  Note on ::  Channel 0.  Note 50.  Velocity 80
000911t:  Note on ::  Channel 0.  Note 50.  Velocity 0
000049t:  Note on ::  Channel 0.  Note 43.  Velocity 80
000227t:  Note on ::  Channel 0.  Note 43.  Velocity 0
000013t:  Note on ::  Channel 0.  Note 31.  Velocity 80
000227t:  Note on ::  Channel 0.  Note 31.  Velocity 0
000013t:  Note on ::  Channel 0.  Note 43.  Velocity 80
000455t:  Note on ::  Channel 0.  Note 43.  Velocity 0
000025t:  Note on ::  Channel 0.  Note 43.  Velocity 80
000455t:  Note on ::  Channel 0.  Note 43.  Velocity 0
000025t:  Note on ::  Channel 0.  Note 43.  Velocity 80
000455t:  Note on ::  Channel 0.  Note 43.  Velocity 0
000025t:  Note on ::  Channel 0.  Note 43.  Velocity 80
000455t:  Note on ::  Channel 0.  Note 43.  Velocity 0
000025t:  Note on ::  Channel 0.  Note 43.  Velocity 80
000455t:  Note on ::  Channel 0.  Note 43.  Velocity 0
000025t:  Note on ::  Channel 0.  Note 43.  Velocity 80
000455t:  Note on ::  Channel 0.  Note 43.  Velocity 0
000025t:  Note on ::  Channel 0.  Note 43.  Velocity 80
000227t:  Note on ::  Channel 0.  Note 43.  Velocity 0
000013t:  Note on ::  Channel 0.  Note 31.  Velocity 80
000227t:  Note on ::  Channel 0.  Note 31.  Velocity 0
000013t:  Note on ::  Channel 0.  Note 31.  Velocity 80
000000t:  Note on ::  Channel 0.  Note 43.  Velocity 80
000455t:  Note on ::  Channel 0.  Note 31.  Velocity 0
000000t:  Note on ::  Channel 0.  Note 43.  Velocity 0
000025t:  Note on ::  Channel 0.  Note 31.  Velocity 80
000000t:  Note on ::  Channel 0.  Note 43.  Velocity 80
000455t:  Note on ::  Channel 0.  Note 31.  Velocity 0
000000t:  Note on ::  Channel 0.  Note 43.  Velocity 0
000025t:  Note on ::  Channel 0.  Note 43.  Velocity 80
000455t:  Note on ::  Channel 0.  Note 43.  Velocity 0
000025t:  Note on ::  Channel 0.  Note 43.  Velocity 80
000455t:  Note on ::  Channel 0.  Note 43.  Velocity 0
000025t:  Note on ::  Channel 0.  Note 43.  Velocity 80
000455t:  Note on ::  Channel 0.  Note 43.  Velocity 0
000025t:  Note on ::  Channel 0.  Note 43.  Velocity 80
000455t:  Note on ::  Channel 0.  Note 43.  Velocity 0
000025t:  Note on ::  Channel 0.  Note 43.  Velocity 80
000455t:  Note on ::  Channel 0.  Note 43.  Velocity 0
000025t:  Note on ::  Channel 0.  Note 43.  Velocity 80
000455t:  Note on ::  Channel 0.  Note 43.  Velocity 0
000025t:  Note on ::  Channel 0.  Note 21.  Velocity 80
000000t:  Note on ::  Channel 0.  Note 33.  Velocity 80
001823t:  Note on ::  Channel 0.  Note 21.  Velocity 0
000000t:  Note on ::  Channel 0.  Note 33.  Velocity 0
000001t:  Meta-event type $2f (End-track event) of length 0
Sigma t = 182304
End.
