{
  "header": {
    "formatType": 1,
    "trackCount": 12,
    "ticksPerBeat": 96
  },
  "tracks": [
    [
      {
        "type": "meta",
        "subType": "timeSignature",
        "typeByte": 255,
        "subTypeByte": 88,
        "deltaTime": 0,
        "numerator": 4,
        "denominator": 4,
        "metronome": 24,
        "thirtySeconds": 8
      },
      {
        "type": "meta",
        "subType": "keySignature",
        "typeByte": 255,
        "subTypeByte": 89,
        "deltaTime": 0,
        "key": 0,
        "scale": 0
      },
      {
        "type": "meta",
        "subType": "setTempo",
        "typeByte": 255,
        "subTypeByte": 81,
        "deltaTime": 0,
        "microsecondsPerBeat": 355029
      },
      {
        "type": "meta",
        "subType": "endOfTrack",
        "typeByte": 255,
        "subTypeByte": 47,
        "deltaTime": 0
      }
    ],
    [
      {
        "type": "meta",
        "typeByte": 255,
        "subTypeByte": 33,
        "deltaTime": 0,
        "data": {}
      },
      {
        "type": "meta",
        "subType": "trackName",
        "typeByte": 255,
        "subTypeByte": 3,
        "deltaTime": 0,
        "text": "Slap Bass 2         "
      },
      {
        "type": "midi",
        "subType": "programChange",
        "typeByte": 193,
        "deltaTime": 0,
        "channel": 1,
        "program": 36
      },
      {
        "type": "midi",
        "subType": "controller",
        "typeByte": 177,
        "deltaTime": 0,
        "channel": 1,
        "controllerType": 7,
        "value": 120
      },
      {
        "type": "midi",
        "subType": "controller",
        "typeByte": 177,
        "deltaTime": 0,
        "channel": 1,
        "controllerType": 10,
        "value": 60
      },
      {
        "type": "midi",
        "subType": "noteOn",
        "typeByte": 145,
        "deltaTime": 3438,
        "channel": 1,
        "note": 47,
        "velocity": 127
      },
      {
        "type": "midi",
        "subType": "noteOff",
        "typeByte": 145,
        "deltaTime": 42,
        "channel": 1,
        "note": 47,
        "velocity": 0
      },
      {
        "type": "midi",
        "subType": "noteOn",
        "typeByte": 145,
        "deltaTime": 141,
        "channel": 1,
        "note": 35,
        "velocity": 127
      },
      {
        "type": "midi",
        "subType": "noteOff",
        "typeByte": 145,
        "deltaTime": 44,
        "channel": 1,
        "note": 35,
        "velocity": 0
      },
      {
        "type": "midi",
        "subType": "noteOn",
        "typeByte": 145,
        "deltaTime": 53,
        "channel": 1,
        "note": 35,
        "velocity": 127
      },
      {
        "type": "midi",
        "subType": "noteOff",
        "typeByte": 145,
        "deltaTime": 28,
        "channel": 1,
        "note": 35,
        "velocity": 0
      },
      {
        "type": "midi",
        "subType": "noteOn",
        "typeByte": 145,
        "deltaTime": 19,
        "channel": 1,
        "note": 35,
        "velocity": 127
      },
      {
        "type": "midi",
        "subType": "noteOff",
        "typeByte": 145,
        "deltaTime": 32,
        "channel": 1,
        "note": 35,
        "velocity": 0
      },
      {
        "type": "midi",
        "subType": "noteOn",
        "typeByte": 145,
        "deltaTime": 17,
        "channel": 1,
        "note": 47,
        "velocity": 127
      },
      {
        "type": "midi",
        "subType": "noteOff",
        "typeByte": 145,
        "deltaTime": 39,
        "channel": 1,
        "note": 47,
        "velocity": 0
      },
      {
        "type": "midi",
        "subType": "noteOn",
        "typeByte": 145,
        "deltaTime": 17,
        "channel": 1,
        "note": 47,
        "velocity": 127
      },
      {
        "type": "midi",
        "subType": "noteOff",
        "typeByte": 145,
        "deltaTime": 49,
        "channel": 1,
        "note": 47,
        "velocity": 0
      },
      {
        "type": "midi",
        "subType": "noteOn",
        "typeByte": 145,
        "deltaTime": 39,
        "channel": 1,
        "note": 35,
        "velocity": 127
      },
      {
        "type": "midi",
        "subType": "noteOff",
        "typeByte": 145,
        "deltaTime": 40,
        "channel": 1,
        "note": 35,
        "velocity": 0
      },
      {
        "type": "midi",
        "subType": "noteOn",
        "typeByte": 145,
        "deltaTime": 105,
        "channel": 1,
        "note": 35,
        "velocity": 127
      },
      {
        "type": "midi",
        "subType": "noteOff",
        "typeByte": 145,
        "deltaTime": 30,
        "channel": 1,
        "note": 35,
        "velocity": 0
      },
      {
        "type": "midi",
        "subType": "noteOn",
        "typeByte": 145,
        "deltaTime": 9,
        "channel": 1,
        "note": 35,
        "velocity": 127
      },
      {
        "type": "midi",
        "subType": "noteOff",
        "typeByte": 145,
        "deltaTime": 33,
        "channel": 1,
        "note": 35,
        "velocity": 0
      },
      {
        "type": "midi",
        "subType": "noteOn",
        "typeByte": 145,
        "deltaTime": 24,
        "channel": 1,
        "note": 47,
        "velocity": 127
      },
      {
        "type": "midi",
        "subType": "noteOff",
        "typeByte": 145,
        "deltaTime": 49,
        "channel": 1,
        "note": 47,
        "velocity": 0
      },
      {
        "type": "midi",
        "subType": "noteOn",
        "typeByte": 145,
        "deltaTime": 144,
        "channel": 1,
        "note": 35,
        "velocity": 127
      },
      {
        "type": "midi",
        "subType": "noteOff",
        "typeByte": 145,
        "deltaTime": 42,
        "channel": 1,
        "note": 35,
        "velocity": 0
      },
      {
        "type": "midi",
        "subType": "noteOn",
        "typeByte": 145,
        "deltaTime": 64,
        "channel": 1,
        "note": 35,
        "velocity": 127
      },
      {
        "type": "midi",
        "subType": "noteOff",
        "typeByte": 145,
        "deltaTime": 29,
        "channel": 1,
        "note": 35,
        "velocity": 0
      },
      {
        "type": "midi",
        "subType": "noteOn",
        "typeByte": 145,
        "deltaTime": 17,
        "channel": 1,
        "note": 35,
        "velocity": 127
      },
      {
        "type": "midi",
        "subType": "noteOff",
        "typeByte": 145,
        "deltaTime": 32,
        "channel": 1,
        "note": 35,
        "velocity": 0
      },
      {
        "type": "midi",
        "subType": "noteOn",
        "typeByte": 145,
        "deltaTime": 8,
        "channel": 1,
        "note": 47,
        "velocity": 127
      },
      {
        "type": "midi",
        "subType": "noteOff",
        "typeByte": 145,
        "deltaTime": 40,
        "channel": 1,
        "note": 47,
        "velocity": 0
      },
      {
        "type": "midi",
        "subType": "noteOn",
        "typeByte": 145,
        "deltaTime": 8,
        "channel": 1,
        "note": 47,
        "velocity": 127
      },
      {
        "type": "midi",
        "subType": "noteOff",
        "typeByte": 145,
        "deltaTime": 46,
        "channel": 1,
        "note": 47,
        "velocity": 0
      },
      {
        "type": "midi",
        "subType": "noteOn",
        "typeByte": 145,
        "deltaTime": 50,
        "channel": 1,
        "note": 35,
        "velocity": 127
      },
      {
        "type": "midi",
        "subType": "noteOff",
        "typeByte": 145,
        "deltaTime": 52,
        "channel": 1,
        "note": 35,
        "velocity": 0
      },
      {
        "type": "midi",
        "subType": "noteOn",
        "typeByte": 145,
        "deltaTime": 200,
        "channel": 1,
        "note": 35,
        "velocity": 127
      },
      {
        "type": "midi",
        "subType": "noteOff",
        "typeByte": 145,
        "deltaTime": 32,
        "channel": 1,
        "note": 35,
        "velocity": 0
      },
      {
        "type": "midi",
        "subType": "noteOn",
        "typeByte": 145,
        "deltaTime": 14,
        "channel": 1,
        "note": 35,
        "velocity": 127
      },
      {
        "type": "midi",
        "subType": "noteOff",
        "typeByte": 145,
        "deltaTime": 32,
        "channel": 1,
        "note": 35,
        "velocity": 0
      },
      {
        "type": "midi",
        "subType": "noteOn",
        "typeByte": 145,
        "deltaTime": 17,
        "channel": 1,
        "note": 35,
        "velocity": 127
      },
      {
        "type": "midi",
        "subType": "noteOff",
        "typeByte": 145,
        "deltaTime": 30,
        "channel": 1,
        "note": 35,
        "velocity": 0
      },
      {
        "type": "midi",
        "subType": "noteOn",
        "typeByte": 145,
        "deltaTime": 210,
        "channel": 1,
        "note": 40,
        "velocity": 127
      },
      {
        "type": "midi",
        "subType": "noteOff",
        "typeByte": 145,
        "deltaTime": 36,
        "channel": 1,
        "note": 40,
        "velocity": 0
      },
      {
        "type": "midi",
        "subType": "noteOn",
        "typeByte": 145,
        "deltaTime": 60,
        "channel": 1,
        "note": 40,
        "velocity": 127
      },
      {
        "type": "midi",
        "subType": "noteOff",
        "typeByte": 145,
        "deltaTime": 35,
        "channel": 1,
        "note": 40,
        "velocity": 0
      },
      {
        "type": "midi",
        "subType": "noteOn",
        "typeByte": 145,
        "deltaTime": 62,
        "channel": 1,
        "note": 40,
        "velocity": 127
      },
      {
        "type": "midi",
        "subType": "noteOff",
        "typeByte": 145,
        "deltaTime": 27,
        "channel": 1,
        "note": 40,
        "velocity": 0
      },
      {
        "type": "midi",
        "subType": "noteOn",
        "typeByte": 145,
        "deltaTime": 22,
        "channel": 1,
        "note": 40,
        "velocity": 127
      },
      {
        "type": "midi",
        "subType": "noteOff",
        "typeByte": 145,
        "deltaTime": 130,
        "channel": 1,
        "note": 40,
        "velocity": 0
      },
      {
        "type": "midi",
        "subType": "noteOn",
        "typeByte": 145,
        "deltaTime": 63,
        "channel": 1,
        "note": 33,
        "velocity": 127
      },
      {
        "type": "midi",
        "subType": "noteOff",
        "typeByte": 145,
        "deltaTime": 33,
        "channel": 1,
        "note": 33,
        "velocity": 0
      },
      {
        "type": "midi",
        "subType": "noteOn",
        "typeByte": 145,
        "deltaTime": 14,
        "channel": 1,
        "note": 33,
        "velocity": 127
      },
      {
        "type": "midi",
        "subType": "noteOff",
        "typeByte": 145,
        "deltaTime": 32,
        "channel": 1,
        "note": 33,
        "velocity": 0
      },
      {
        "type": "midi",
        "subType": "noteOn",
        "typeByte": 145,
        "deltaTime": 17,
        "channel": 1,
        "note": 33,
        "velocity": 127
      },
      {
        "type": "midi",
        "subType": "noteOff",
        "typeByte": 145,
        "deltaTime": 34,
        "channel": 1,
        "note": 33,
        "velocity": 0
      },
      {
        "type": "midi",
        "subType": "noteOn",
        "typeByte": 145,
        "deltaTime": 205,
        "channel": 1,
        "note": 38,
        "velocity": 127
      },
      {
        "type": "midi",
        "subType": "noteOff",
        "typeByte": 145,
        "deltaTime": 36,
        "channel": 1,
        "note": 38,
        "velocity": 0
      },
      {
        "type": "midi",
        "subType": "noteOn",
        "typeByte": 145,
        "deltaTime": 61,
        "channel": 1,
        "note": 38,
        "velocity": 127
      },
      {
        "type": "midi",
        "subType": "noteOff",
        "typeByte": 145,
        "deltaTime": 34,
        "channel": 1,
        "note": 38,
        "velocity": 0
      },
      {
        "type": "midi",
        "subType": "noteOn",
        "typeByte": 145,
        "deltaTime": 62,
        "channel": 1,
        "note": 38,
        "velocity": 127
      },
      {
        "type": "midi",
        "subType": "noteOff",
        "typeByte": 145,
        "deltaTime": 32,
        "channel": 1,
        "note": 38,
        "velocity": 0
      },
      {
        "type": "midi",
        "subType": "noteOn",
        "typeByte": 145,
        "deltaTime": 18,
        "channel": 1,
        "note": 37,
        "velocity": 127
      },
      {
        "type": "midi",
        "subType": "noteOff",
        "typeByte": 145,
        "deltaTime": 147,
        "channel": 1,
        "note": 37,
        "velocity": 0
      },
      {
        "type": "midi",
        "subType": "noteOn",
        "typeByte": 145,
        "deltaTime": 46,
        "channel": 1,
        "note": 35,
        "velocity": 127
      },
      {
        "type": "midi",
        "subType": "noteOff",
        "typeByte": 145,
        "deltaTime": 31,
        "channel": 1,
        "note": 35,
        "velocity": 0
      },
      {
        "type": "midi",
        "subType": "noteOn",
        "typeByte": 145,
        "deltaTime": 15,
        "channel": 1,
        "note": 35,
        "velocity": 127
      },
      {
        "type": "midi",
        "subType": "noteOff",
        "typeByte": 145,
        "deltaTime": 31,
        "channel": 1,
        "note": 35,
        "velocity": 0
      },
      {
        "type": "midi",
        "subType": "noteOn",
        "typeByte": 145,
        "deltaTime": 18,
        "channel": 1,
        "note": 35,
        "velocity": 127
      },
      {
        "type": "midi",
        "subType": "noteOff",
        "typeByte": 145,
        "deltaTime": 30,
        "channel": 1,
        "note": 35,
        "velocity": 0
      },
      {
        "type": "midi",
        "subType": "noteOn",
        "typeByte": 145,
        "deltaTime": 210,
        "channel": 1,
        "note": 40,
        "velocity": 127
      },
      {
        "type": "midi",
        "subType": "noteOff",
        "typeByte": 145,
        "deltaTime": 35,
        "channel": 1,
        "note": 40,
        "velocity": 0
      },
      {
        "type": "midi",
        "subType": "noteOn",
        "typeByte": 145,
        "deltaTime": 61,
        "channel": 1,
        "note": 40,
        "velocity": 127
      },
      {
        "type": "midi",
        "subType": "noteOff",
        "typeByte": 145,
        "deltaTime": 34,
        "channel": 1,
        "note": 40,
        "velocity": 0
      },
      {
        "type": "midi",
        "subType": "noteOn",
        "typeByte": 145,
        "deltaTime": 62,
        "channel": 1,
        "note": 40,
        "velocity": 127
      },
      {
        "type": "midi",
        "subType": "noteOff",
        "typeByte": 145,
        "deltaTime": 28,
        "channel": 1,
        "note": 40,
        "velocity": 0
      },
      {
        "type": "midi",
        "subType": "noteOn",
        "typeByte": 145,
        "deltaTime": 22,
        "channel": 1,
        "note": 40,
        "velocity": 127
      },
      {
        "type": "midi",
        "subType": "noteOff",
        "typeByte": 145,
        "deltaTime": 130,
        "channel": 1,
        "note": 40,
        "velocity": 0
      },
      {
        "type": "midi",
        "subType": "noteOn",
        "typeByte": 145,
        "deltaTime": 63,
        "channel": 1,
        "note": 33,
        "velocity": 127
      },
      {
        "type": "midi",
        "subType": "noteOff",
        "typeByte": 145,
        "deltaTime": 33,
        "channel": 1,
        "note": 33,
        "velocity": 0
      },
      {
        "type": "midi",
        "subType": "noteOn",
        "typeByte": 145,
        "deltaTime": 13,
        "channel": 1,
        "note": 33,
        "velocity": 127
      },
      {
        "type": "midi",
        "subType": "noteOff",
        "typeByte": 145,
        "deltaTime": 33,
        "channel": 1,
        "note": 33,
        "velocity": 0
      },
      {
        "type": "midi",
        "subType": "noteOn",
        "typeByte": 145,
        "deltaTime": 16,
        "channel": 1,
        "note": 33,
        "velocity": 127
      },
      {
        "type": "midi",
        "subType": "noteOff",
        "typeByte": 145,
        "deltaTime": 34,
        "channel": 1,
        "note": 33,
        "velocity": 0
      },
      {
        "type": "midi",
        "subType": "noteOn",
        "typeByte": 145,
        "deltaTime": 206,
        "channel": 1,
        "note": 38,
        "velocity": 127
      },
      {
        "type": "midi",
        "subType": "noteOff",
        "typeByte": 145,
        "deltaTime": 36,
        "channel": 1,
        "note": 38,
        "velocity": 0
      },
      {
        "type": "midi",
        "subType": "noteOn",
        "typeByte": 145,
        "deltaTime": 60,
        "channel": 1,
        "note": 38,
        "velocity": 127
      },
      {
        "type": "midi",
        "subType": "noteOff",
        "typeByte": 145,
        "deltaTime": 35,
        "channel": 1,
        "note": 38,
        "velocity": 0
      },
      {
        "type": "midi",
        "subType": "noteOn",
        "typeByte": 145,
        "deltaTime": 62,
        "channel": 1,
        "note": 38,
        "velocity": 127
      },
      {
        "type": "midi",
        "subType": "noteOff",
        "typeByte": 145,
        "deltaTime": 31,
        "channel": 1,
        "note": 38,
        "velocity": 0
      },
      {
        "type": "midi",
        "subType": "noteOn",
        "typeByte": 145,
        "deltaTime": 18,
        "channel": 1,
        "note": 37,
        "velocity": 127
      },
      {
        "type": "midi",
        "subType": "noteOff",
        "typeByte": 145,
        "deltaTime": 148,
        "channel": 1,
        "note": 37,
        "velocity": 0
      },
      {
        "type": "midi",
        "subType": "noteOn",
        "typeByte": 145,
        "deltaTime": 46,
        "channel": 1,
        "note": 35,
        "velocity": 127
      },
      {
        "type": "midi",
        "subType": "noteOff",
        "typeByte": 145,
        "deltaTime": 31,
        "channel": 1,
        "note": 35,
        "velocity": 0
      },
      {
        "type": "midi",
        "subType": "noteOn",
        "typeByte": 145,
        "deltaTime": 15,
        "channel": 1,
        "note": 35,
        "velocity": 127
      },
      {
        "type": "midi",
        "subType": "noteOff",
        "typeByte": 145,
        "deltaTime": 31,
        "channel": 1,
        "note": 35,
        "velocity": 0
      },
      {
        "type": "midi",
        "subType": "noteOn",
        "typeByte": 145,
        "deltaTime": 18,
        "channel": 1,
        "note": 35,
        "velocity": 127
      },
      {
        "type": "midi",
        "subType": "noteOff",
        "typeByte": 145,
        "deltaTime": 31,
        "channel": 1,
        "note": 35,
        "velocity": 0
      },
      {
        "type": "midi",
        "subType": "noteOn",
        "typeByte": 145,
        "deltaTime": 209,
        "channel": 1,
        "note": 40,
        "velocity": 127
      },
      {
        "type": "midi",
        "subType": "noteOff",
        "typeByte": 145,
        "deltaTime": 35,
        "channel": 1,
        "note": 40,
        "velocity": 0
      },
      {
        "type": "midi",
        "subType": "noteOn",
        "typeByte": 145,
        "deltaTime": 61,
        "channel": 1,
        "note": 40,
        "velocity": 127
      },
      {
        "type": "midi",
        "subType": "noteOff",
        "typeByte": 145,
        "deltaTime": 34,
        "channel": 1,
        "note": 40,
        "velocity": 0
      },
      {
        "type": "midi",
        "subType": "noteOn",
        "typeByte": 145,
        "deltaTime": 62,
        "channel": 1,
        "note": 40,
        "velocity": 127
      },
      {
        "type": "midi",
        "subType": "noteOff",
        "typeByte": 145,
        "deltaTime": 27,
        "channel": 1,
        "note": 40,
        "velocity": 0
      },
      {
        "type": "midi",
        "subType": "noteOn",
        "typeByte": 145,
        "deltaTime": 23,
        "channel": 1,
        "note": 40,
        "velocity": 127
      },
      {
        "type": "midi",
        "subType": "noteOff",
        "typeByte": 145,
        "deltaTime": 129,
        "channel": 1,
        "note": 40,
        "velocity": 0
      },
      {
        "type": "midi",
        "subType": "noteOn",
        "typeByte": 145,
        "deltaTime": 64,
        "channel": 1,
        "note": 35,
        "velocity": 127
      },
      {
        "type": "midi",
        "subType": "noteOff",
        "typeByte": 145,
        "deltaTime": 33,
        "channel": 1,
        "note": 35,
        "velocity": 0
      },
      {
        "type": "midi",
        "subType": "noteOn",
        "typeByte": 145,
        "deltaTime": 13,
        "channel": 1,
        "note": 35,
        "velocity": 127
      },
      {
        "type": "midi",
        "subType": "noteOff",
        "typeByte": 145,
        "deltaTime": 34,
        "channel": 1,
        "note": 35,
        "velocity": 0
      },
      {
        "type": "midi",
        "subType": "noteOn",
        "typeByte": 145,
        "deltaTime": 15,
        "channel": 1,
        "note": 35,
        "velocity": 127
      },
      {
        "type": "midi",
        "subType": "noteOff",
        "typeByte": 145,
        "deltaTime": 34,
        "channel": 1,
        "note": 35,
        "velocity": 0
      },
      {
        "type": "midi",
        "subType": "noteOn",
        "typeByte": 145,
        "deltaTime": 206,
        "channel": 1,
        "note": 40,
        "velocity": 127
      },
      {
        "type": "midi",
        "subType": "noteOff",
        "typeByte": 145,
        "deltaTime": 35,
        "channel": 1,
        "note": 40,
        "velocity": 0
      },
      {
        "type": "midi",
        "subType": "noteOn",
        "typeByte": 145,
        "deltaTime": 61,
        "channel": 1,
        "note": 40,
        "velocity": 127
      },
      {
        "type": "midi",
        "subType": "noteOff",
        "typeByte": 145,
        "deltaTime": 34,
        "channel": 1,
        "note": 40,
        "velocity": 0
      },
      {
        "type": "midi",
        "subType": "noteOn",
        "typeByte": 145,
        "deltaTime": 62,
        "channel": 1,
        "note": 40,
        "velocity": 127
      },
      {
        "type": "midi",
        "subType": "noteOff",
        "typeByte": 145,
        "deltaTime": 32,
        "channel": 1,
        "note": 40,
        "velocity": 0
      },
      {
        "type": "midi",
        "subType": "noteOn",
        "typeByte": 145,
        "deltaTime": 18,
        "channel": 1,
        "note": 40,
        "velocity": 127
      },
      {
        "type": "midi",
        "subType": "noteOff",
        "typeByte": 145,
        "deltaTime": 147,
        "channel": 1,
        "note": 40,
        "velocity": 0
      },
      {
        "type": "midi",
        "subType": "noteOn",
        "typeByte": 145,
        "deltaTime": 46,
        "channel": 1,
        "note": 35,
        "velocity": 127
      },
      {
        "type": "midi",
        "subType": "noteOff",
        "typeByte": 145,
        "deltaTime": 32,
        "channel": 1,
        "note": 35,
        "velocity": 0
      },
      {
        "type": "midi",
        "subType": "noteOn",
        "typeByte": 145,
        "deltaTime": 14,
        "channel": 1,
        "note": 35,
        "velocity": 127
      },
      {
        "type": "midi",
        "subType": "noteOff",
        "typeByte": 145,
        "deltaTime": 32,
        "channel": 1,
        "note": 35,
        "velocity": 0
      },
      {
        "type": "midi",
        "subType": "noteOn",
        "typeByte": 145,
        "deltaTime": 17,
        "channel": 1,
        "note": 35,
        "velocity": 127
      },
      {
        "type": "midi",
        "subType": "noteOff",
        "typeByte": 145,
        "deltaTime": 32,
        "channel": 1,
        "note": 35,
        "velocity": 0
      },
      {
        "type": "midi",
        "subType": "noteOn",
        "typeByte": 145,
        "deltaTime": 208,
        "channel": 1,
        "note": 40,
        "velocity": 127
      },
      {
        "type": "midi",
        "subType": "noteOff",
        "typeByte": 145,
        "deltaTime": 36,
        "channel": 1,
        "note": 40,
        "velocity": 0
      },
      {
        "type": "midi",
        "subType": "noteOn",
        "typeByte": 145,
        "deltaTime": 60,
        "channel": 1,
        "note": 40,
        "velocity": 127
      },
      {
        "type": "midi",
        "subType": "noteOff",
        "typeByte": 145,
        "deltaTime": 35,
        "channel": 1,
        "note": 40,
        "velocity": 0
      },
      {
        "type": "midi",
        "subType": "noteOn",
        "typeByte": 145,
        "deltaTime": 61,
        "channel": 1,
        "note": 40,
        "velocity": 127
      },
      {
        "type": "midi",
        "subType": "noteOff",
        "typeByte": 145,
        "deltaTime": 28,
        "channel": 1,
        "note": 40,
        "velocity": 0
      },
      {
        "type": "midi",
        "subType": "noteOn",
        "typeByte": 145,
        "deltaTime": 22,
        "channel": 1,
        "note": 40,
        "velocity": 127
      },
      {
        "type": "midi",
        "subType": "noteOff",
        "typeByte": 145,
        "deltaTime": 130,
        "channel": 1,
        "note": 40,
        "velocity": 0
      },
      {
        "type": "midi",
        "subType": "noteOn",
        "typeByte": 145,
        "deltaTime": 63,
        "channel": 1,
        "note": 33,
        "velocity": 127
      },
      {
        "type": "midi",
        "subType": "noteOff",
        "typeByte": 145,
        "deltaTime": 33,
        "channel": 1,
        "note": 33,
        "velocity": 0
      },
      {
        "type": "midi",
        "subType": "noteOn",
        "typeByte": 145,
        "deltaTime": 14,
        "channel": 1,
        "note": 33,
        "velocity": 127
      },
      {
        "type": "midi",
        "subType": "noteOff",
        "typeByte": 145,
        "deltaTime": 34,
        "channel": 1,
        "note": 33,
        "velocity": 0
      },
      {
        "type": "midi",
        "subType": "noteOn",
        "typeByte": 145,
        "deltaTime": 14,
        "channel": 1,
        "note": 33,
        "velocity": 127
      },
      {
        "type": "midi",
        "subType": "noteOff",
        "typeByte": 145,
        "deltaTime": 35,
        "channel": 1,
        "note": 33,
        "velocity": 0
      },
      {
        "type": "midi",
        "subType": "noteOn",
        "typeByte": 145,
        "deltaTime": 205,
        "channel": 1,
        "note": 38,
        "velocity": 127
      },
      {
        "type": "midi",
        "subType": "noteOff",
        "typeByte": 145,
        "deltaTime": 36,
        "channel": 1,
        "note": 38,
        "velocity": 0
      },
      {
        "type": "midi",
        "subType": "noteOn",
        "typeByte": 145,
        "deltaTime": 61,
        "channel": 1,
        "note": 38,
        "velocity": 127
      },
      {
        "type": "midi",
        "subType": "noteOff",
        "typeByte": 145,
        "deltaTime": 34,
        "channel": 1,
        "note": 38,
        "velocity": 0
      },
      {
        "type": "midi",
        "subType": "noteOn",
        "typeByte": 145,
        "deltaTime": 62,
        "channel": 1,
        "note": 38,
        "velocity": 127
      },
      {
        "type": "midi",
        "subType": "noteOff",
        "typeByte": 145,
        "deltaTime": 32,
        "channel": 1,
        "note": 38,
        "velocity": 0
      },
      {
        "type": "midi",
        "subType": "noteOn",
        "typeByte": 145,
        "deltaTime": 18,
        "channel": 1,
        "note": 37,
        "velocity": 127
      },
      {
        "type": "midi",
        "subType": "noteOff",
        "typeByte": 145,
        "deltaTime": 147,
        "channel": 1,
        "note": 37,
        "velocity": 0
      },
      {
        "type": "midi",
        "subType": "noteOn",
        "typeByte": 145,
        "deltaTime": 46,
        "channel": 1,
        "note": 35,
        "velocity": 127
      },
      {
        "type": "midi",
        "subType": "noteOff",
        "typeByte": 145,
        "deltaTime": 31,
        "channel": 1,
        "note": 35,
        "velocity": 0
      },
      {
        "type": "midi",
        "subType": "noteOn",
        "typeByte": 145,
        "deltaTime": 15,
        "channel": 1,
        "note": 35,
        "velocity": 127
      },
      {
        "type": "midi",
        "subType": "noteOff",
        "typeByte": 145,
        "deltaTime": 32,
        "channel": 1,
        "note": 35,
        "velocity": 0
      },
      {
        "type": "midi",
        "subType": "noteOn",
        "typeByte": 145,
        "deltaTime": 17,
        "channel": 1,
        "note": 35,
        "velocity": 127
      },
      {
        "type": "midi",
        "subType": "noteOff",
        "typeByte": 145,
        "deltaTime": 31,
        "channel": 1,
        "note": 35,
        "velocity": 0
      },
      {
        "type": "midi",
        "subType": "noteOn",
        "typeByte": 145,
        "deltaTime": 209,
        "channel": 1,
        "note": 40,
        "velocity": 127
      },
      {
        "type": "midi",
        "subType": "noteOff",
        "typeByte": 145,
        "deltaTime": 35,
        "channel": 1,
        "note": 40,
        "velocity": 0
      },
      {
        "type": "midi",
        "subType": "noteOn",
        "typeByte": 145,
        "deltaTime": 61,
        "channel": 1,
        "note": 40,
        "velocity": 127
      },
      {
        "type": "midi",
        "subType": "noteOff",
        "typeByte": 145,
        "deltaTime": 34,
        "channel": 1,
        "note": 40,
        "velocity": 0
      },
      {
        "type": "midi",
        "subType": "noteOn",
        "typeByte": 145,
        "deltaTime": 62,
        "channel": 1,
        "note": 40,
        "velocity": 127
      },
      {
        "type": "midi",
        "subType": "noteOff",
        "typeByte": 145,
        "deltaTime": 28,
        "channel": 1,
        "note": 40,
        "velocity": 0
      },
      {
        "type": "midi",
        "subType": "noteOn",
        "typeByte": 145,
        "deltaTime": 22,
        "channel": 1,
        "note": 40,
        "velocity": 127
      },
      {
        "type": "midi",
        "subType": "noteOff",
        "typeByte": 145,
        "deltaTime": 130,
        "channel": 1,
        "note": 40,
        "velocity": 0
      },
      {
        "type": "midi",
        "subType": "noteOn",
        "typeByte": 145,
        "deltaTime": 63,
        "channel": 1,
        "note": 33,
        "velocity": 127
      },
      {
        "type": "midi",
        "subType": "noteOff",
        "typeByte": 145,
        "deltaTime": 33,
        "channel": 1,
        "note": 33,
        "velocity": 0
      },
      {
        "type": "midi",
        "subType": "noteOn",
        "typeByte": 145,
        "deltaTime": 13,
        "channel": 1,
        "note": 33,
        "velocity": 127
      },
      {
        "type": "midi",
        "subType": "noteOff",
        "typeByte": 145,
        "deltaTime": 35,
        "channel": 1,
        "note": 33,
        "velocity": 0
      },
      {
        "type": "midi",
        "subType": "noteOn",
        "typeByte": 145,
        "deltaTime": 14,
        "channel": 1,
        "note": 33,
        "velocity": 127
      },
      {
        "type": "midi",
        "subType": "noteOff",
        "typeByte": 145,
        "deltaTime": 34,
        "channel": 1,
        "note": 33,
        "velocity": 0
      },
      {
        "type": "midi",
        "subType": "noteOn",
        "typeByte": 145,
        "deltaTime": 206,
        "channel": 1,
        "note": 38,
        "velocity": 127
      },
      {
        "type": "midi",
        "subType": "noteOff",
        "typeByte": 145,
        "deltaTime": 36,
        "channel": 1,
        "note": 38,
        "velocity": 0
      },
      {
        "type": "midi",
        "subType": "noteOn",
        "typeByte": 145,
        "deltaTime": 60,
        "channel": 1,
        "note": 38,
        "velocity": 127
      },
      {
        "type": "midi",
        "subType": "noteOff",
        "typeByte": 145,
        "deltaTime": 35,
        "channel": 1,
        "note": 38,
        "velocity": 0
      },
      {
        "type": "midi",
        "subType": "noteOn",
        "typeByte": 145,
        "deltaTime": 62,
        "channel": 1,
        "note": 38,
        "velocity": 127
      },
      {
        "type": "midi",
        "subType": "noteOff",
        "typeByte": 145,
        "deltaTime": 31,
        "channel": 1,
        "note": 38,
        "velocity": 0
      },
      {
        "type": "midi",
        "subType": "noteOn",
        "typeByte": 145,
        "deltaTime": 18,
        "channel": 1,
        "note": 37,
        "velocity": 127
      },
      {
        "type": "midi",
        "subType": "noteOff",
        "typeByte": 145,
        "deltaTime": 148,
        "channel": 1,
        "note": 37,
        "velocity": 0
      },
      {
        "type": "midi",
        "subType": "noteOn",
        "typeByte": 145,
        "deltaTime": 45,
        "channel": 1,
        "note": 35,
        "velocity": 127
      },
      {
        "type": "midi",
        "subType": "noteOff",
        "typeByte": 145,
        "deltaTime": 32,
        "channel": 1,
        "note": 35,
        "velocity": 0
      },
      {
        "type": "midi",
        "subType": "noteOn",
        "typeByte": 145,
        "deltaTime": 14,
        "channel": 1,
        "note": 35,
        "velocity": 127
      },
      {
        "type": "midi",
        "subType": "noteOff",
        "typeByte": 145,
        "deltaTime": 32,
        "channel": 1,
        "note": 35,
        "velocity": 0
      },
      {
        "type": "midi",
        "subType": "noteOn",
        "typeByte": 145,
        "deltaTime": 18,
        "channel": 1,
        "note": 35,
        "velocity": 127
      },
      {
        "type": "midi",
        "subType": "noteOff",
        "typeByte": 145,
        "deltaTime": 31,
        "channel": 1,
        "note": 35,
        "velocity": 0
      },
      {
        "type": "midi",
        "subType": "noteOn",
        "typeByte": 145,
        "deltaTime": 208,
        "channel": 1,
        "note": 40,
        "velocity": 127
      },
      {
        "type": "midi",
        "subType": "noteOff",
        "typeByte": 145,
        "deltaTime": 36,
        "channel": 1,
        "note": 40,
        "velocity": 0
      },
      {
        "type": "midi",
        "subType": "noteOn",
        "typeByte": 145,
        "deltaTime": 61,
        "channel": 1,
        "note": 40,
        "velocity": 127
      },
      {
        "type": "midi",
        "subType": "noteOff",
        "typeByte": 145,
        "deltaTime": 34,
        "channel": 1,
        "note": 40,
        "velocity": 0
      },
      {
        "type": "midi",
        "subType": "noteOn",
        "typeByte": 145,
        "deltaTime": 62,
        "channel": 1,
        "note": 40,
        "velocity": 127
      },
      {
        "type": "midi",
        "subType": "noteOff",
        "typeByte": 145,
        "deltaTime": 28,
        "channel": 1,
        "note": 40,
        "velocity": 0
      },
      {
        "type": "midi",
        "subType": "noteOn",
        "typeByte": 145,
        "deltaTime": 21,
        "channel": 1,
        "note": 40,
        "velocity": 127
      },
      {
        "type": "midi",
        "subType": "noteOff",
        "typeByte": 145,
        "deltaTime": 131,
        "channel": 1,
        "note": 40,
        "velocity": 0
      },
      {
        "type": "midi",
        "subType": "noteOn",
        "typeByte": 145,
        "deltaTime": 62,
        "channel": 1,
        "note": 42,
        "velocity": 127
      },
      {
        "type": "midi",
        "subType": "noteOff",
        "typeByte": 145,
        "deltaTime": 34,
        "channel": 1,
        "note": 42,
        "velocity": 0
      },
      {
        "type": "midi",
        "subType": "noteOn",
        "typeByte": 145,
        "deltaTime": 13,
        "channel": 1,
        "note": 42,
        "velocity": 127
      },
      {
        "type": "midi",
        "subType": "noteOff",
        "typeByte": 145,
        "deltaTime": 34,
        "channel": 1,
        "note": 42,
        "velocity": 0
      },
      {
        "type": "midi",
        "subType": "noteOn",
        "typeByte": 145,
        "deltaTime": 15,
        "channel": 1,
        "note": 42,
        "velocity": 127
      },
      {
        "type": "midi",
        "subType": "noteOff",
        "typeByte": 145,
        "deltaTime": 34,
        "channel": 1,
        "note": 42,
        "velocity": 0
      },
      {
        "type": "midi",
        "subType": "noteOn",
        "typeByte": 145,
        "deltaTime": 206,
        "channel": 1,
        "note": 38,
        "velocity": 127
      },
      {
        "type": "midi",
        "subType": "noteOff",
        "typeByte": 145,
        "deltaTime": 36,
        "channel": 1,
        "note": 38,
        "velocity": 0
      },
      {
        "type": "midi",
        "subType": "noteOn",
        "typeByte": 145,
        "deltaTime": 60,
        "channel": 1,
        "note": 38,
        "velocity": 127
      },
      {
        "type": "midi",
        "subType": "noteOff",
        "typeByte": 145,
        "deltaTime": 34,
        "channel": 1,
        "note": 38,
        "velocity": 0
      },
      {
        "type": "midi",
        "subType": "noteOn",
        "typeByte": 145,
        "deltaTime": 62,
        "channel": 1,
        "note": 54,
        "velocity": 127
      },
      {
        "type": "midi",
        "subType": "noteOff",
        "typeByte": 145,
        "deltaTime": 44,
        "channel": 1,
        "note": 54,
        "velocity": 0
      },
      {
        "type": "midi",
        "subType": "noteOn",
        "typeByte": 145,
        "deltaTime": 6,
        "channel": 1,
        "note": 52,
        "velocity": 127
      },
      {
        "type": "midi",
        "subType": "noteOff",
        "typeByte": 145,
        "deltaTime": 42,
        "channel": 1,
        "note": 52,
        "velocity": 0
      },
      {
        "type": "midi",
        "subType": "noteOn",
        "typeByte": 145,
        "deltaTime": 5,
        "channel": 1,
        "note": 50,
        "velocity": 127
      },
      {
        "type": "midi",
        "subType": "noteOff",
        "typeByte": 145,
        "deltaTime": 44,
        "channel": 1,
        "note": 50,
        "velocity": 0
      },
      {
        "type": "midi",
        "subType": "noteOn",
        "typeByte": 145,
        "deltaTime": 5,
        "channel": 1,
        "note": 49,
        "velocity": 127
      },
      {
        "type": "midi",
        "subType": "noteOff",
        "typeByte": 145,
        "deltaTime": 42,
        "channel": 1,
        "note": 49,
        "velocity": 0
      },
      {
        "type": "midi",
        "subType": "noteOn",
        "typeByte": 145,
        "deltaTime": 5,
        "channel": 1,
        "note": 47,
        "velocity": 127
      },
      {
        "type": "midi",
        "subType": "noteOff",
        "typeByte": 145,
        "deltaTime": 44,
        "channel": 1,
        "note": 47,
        "velocity": 0
      },
      {
        "type": "midi",
        "subType": "noteOn",
        "typeByte": 145,
        "deltaTime": 6,
        "channel": 1,
        "note": 33,
        "velocity": 127
      },
      {
        "type": "midi",
        "subType": "noteOff",
        "typeByte": 145,
        "deltaTime": 33,
        "channel": 1,
        "note": 33,
        "velocity": 0
      },
      {
        "type": "midi",
        "subType": "noteOn",
        "typeByte": 145,
        "deltaTime": 13,
        "channel": 1,
        "note": 33,
        "velocity": 127
      },
      {
        "type": "midi",
        "subType": "noteOff",
        "typeByte": 145,
        "deltaTime": 31,
        "channel": 1,
        "note": 33,
        "velocity": 0
      },
      {
        "type": "midi",
        "subType": "noteOn",
        "typeByte": 145,
        "deltaTime": 18,
        "channel": 1,
        "note": 33,
        "velocity": 127
      },
      {
        "type": "midi",
        "subType": "noteOff",
        "typeByte": 145,
        "deltaTime": 70,
        "channel": 1,
        "note": 33,
        "velocity": 0
      },
      {
        "type": "midi",
        "subType": "noteOn",
        "typeByte": 145,
        "deltaTime": 26,
        "channel": 1,
        "note": 33,
        "velocity": 127
      },
      {
        "type": "midi",
        "subType": "noteOff",
        "typeByte": 145,
        "deltaTime": 67,
        "channel": 1,
        "note": 33,
        "velocity": 0
      },
      {
        "type": "midi",
        "subType": "noteOn",
        "typeByte": 145,
        "deltaTime": 29,
        "channel": 1,
        "note": 33,
        "velocity": 127
      },
      {
        "type": "midi",
        "subType": "noteOff",
        "typeByte": 145,
        "deltaTime": 68,
        "channel": 1,
        "note": 33,
        "velocity": 0
      },
      {
        "type": "midi",
        "subType": "noteOn",
        "typeByte": 145,
        "deltaTime": 30,
        "channel": 1,
        "note": 32,
        "velocity": 127
      },
      {
        "type": "midi",
        "subType": "noteOff",
        "typeByte": 145,
        "deltaTime": 66,
        "channel": 1,
        "note": 32,
        "velocity": 0
      },
      {
        "type": "midi",
        "subType": "noteOn",
        "typeByte": 145,
        "deltaTime": 29,
        "channel": 1,
        "note": 32,
        "velocity": 127
      },
      {
        "type": "midi",
        "subType": "noteOff",
        "typeByte": 145,
        "deltaTime": 74,
        "channel": 1,
        "note": 32,
        "velocity": 0
      },
      {
        "type": "midi",
        "subType": "noteOn",
        "typeByte": 145,
        "deltaTime": 22,
        "channel": 1,
        "note": 32,
        "velocity": 127
      },
      {
        "type": "midi",
        "subType": "noteOff",
        "typeByte": 145,
        "deltaTime": 68,
        "channel": 1,
        "note": 32,
        "velocity": 0
      },
      {
        "type": "midi",
        "subType": "noteOn",
        "typeByte": 145,
        "deltaTime": 29,
        "channel": 1,
        "note": 32,
        "velocity": 127
      },
      {
        "type": "midi",
        "subType": "noteOff",
        "typeByte": 145,
        "deltaTime": 75,
        "channel": 1,
        "note": 32,
        "velocity": 0
      },
      {
        "type": "midi",
        "subType": "noteOn",
        "typeByte": 145,
        "deltaTime": 22,
        "channel": 1,
        "note": 30,
        "velocity": 127
      },
      {
        "type": "midi",
        "subType": "noteOff",
        "typeByte": 145,
        "deltaTime": 72,
        "channel": 1,
        "note": 30,
        "velocity": 0
      },
      {
        "type": "midi",
        "subType": "noteOn",
        "typeByte": 145,
        "deltaTime": 23,
        "channel": 1,
        "note": 30,
        "velocity": 127
      },
      {
        "type": "midi",
        "subType": "noteOff",
        "typeByte": 145,
        "deltaTime": 70,
        "channel": 1,
        "note": 30,
        "velocity": 0
      },
      {
        "type": "midi",
        "subType": "noteOn",
        "typeByte": 145,
        "deltaTime": 26,
        "channel": 1,
        "note": 30,
        "velocity": 127
      },
      {
        "type": "midi",
        "subType": "noteOff",
        "typeByte": 145,
        "deltaTime": 76,
        "channel": 1,
        "note": 30,
        "velocity": 0
      },
      {
        "type": "midi",
        "subType": "noteOn",
        "typeByte": 145,
        "deltaTime": 21,
        "channel": 1,
        "note": 30,
        "velocity": 127
      },
      {
        "type": "midi",
        "subType": "noteOff",
        "typeByte": 145,
        "deltaTime": 89,
        "channel": 1,
        "note": 30,
        "velocity": 0
      },
      {
        "type": "midi",
        "subType": "noteOn",
        "typeByte": 145,
        "deltaTime": 7,
        "channel": 1,
        "note": 38,
        "velocity": 127
      },
      {
        "type": "midi",
        "subType": "noteOff",
        "typeByte": 145,
        "deltaTime": 28,
        "channel": 1,
        "note": 38,
        "velocity": 0
      },
      {
        "type": "midi",
        "subType": "noteOn",
        "typeByte": 145,
        "deltaTime": 19,
        "channel": 1,
        "note": 38,
        "velocity": 127
      },
      {
        "type": "midi",
        "subType": "noteOff",
        "typeByte": 145,
        "deltaTime": 24,
        "channel": 1,
        "note": 38,
        "velocity": 0
      },
      {
        "type": "midi",
        "subType": "noteOn",
        "typeByte": 145,
        "deltaTime": 25,
        "channel": 1,
        "note": 38,
        "velocity": 127
      },
      {
        "type": "midi",
        "subType": "noteOff",
        "typeByte": 145,
        "deltaTime": 25,
        "channel": 1,
        "note": 38,
        "velocity": 0
      },
      {
        "type": "midi",
        "subType": "noteOn",
        "typeByte": 145,
        "deltaTime": 23,
        "channel": 1,
        "note": 38,
        "velocity": 127
      },
      {
        "type": "midi",
        "subType": "noteOff",
        "typeByte": 145,
        "deltaTime": 26,
        "channel": 1,
        "note": 38,
        "velocity": 0
      },
      {
        "type": "midi",
        "subType": "noteOn",
        "typeByte": 145,
        "deltaTime": 23,
        "channel": 1,
        "note": 38,
        "velocity": 127
      },
      {
        "type": "midi",
        "subType": "noteOff",
        "typeByte": 145,
        "deltaTime": 29,
        "channel": 1,
        "note": 38,
        "velocity": 0
      },
      {
        "type": "midi",
        "subType": "noteOn",
        "typeByte": 145,
        "deltaTime": 18,
        "channel": 1,
        "note": 38,
        "velocity": 127
      },
      {
        "type": "midi",
        "subType": "noteOff",
        "typeByte": 145,
        "deltaTime": 28,
        "channel": 1,
        "note": 38,
        "velocity": 0
      },
      {
        "type": "midi",
        "subType": "noteOn",
        "typeByte": 145,
        "deltaTime": 21,
        "channel": 1,
        "note": 38,
        "velocity": 127
      },
      {
        "type": "midi",
        "subType": "noteOff",
        "typeByte": 145,
        "deltaTime": 31,
        "channel": 1,
        "note": 38,
        "velocity": 0
      },
      {
        "type": "midi",
        "subType": "noteOn",
        "typeByte": 145,
        "deltaTime": 16,
        "channel": 1,
        "note": 38,
        "velocity": 127
      },
      {
        "type": "midi",
        "subType": "noteOff",
        "typeByte": 145,
        "deltaTime": 31,
        "channel": 1,
        "note": 38,
        "velocity": 0
      },
      {
        "type": "midi",
        "subType": "noteOn",
        "typeByte": 145,
        "deltaTime": 20,
        "channel": 1,
        "note": 33,
        "velocity": 127
      },
      {
        "type": "midi",
        "subType": "noteOff",
        "typeByte": 145,
        "deltaTime": 32,
        "channel": 1,
        "note": 33,
        "velocity": 0
      },
      {
        "type": "midi",
        "subType": "noteOn",
        "typeByte": 145,
        "deltaTime": 13,
        "channel": 1,
        "note": 33,
        "velocity": 127
      },
      {
        "type": "midi",
        "subType": "noteOff",
        "typeByte": 145,
        "deltaTime": 34,
        "channel": 1,
        "note": 33,
        "velocity": 0
      },
      {
        "type": "midi",
        "subType": "noteOn",
        "typeByte": 145,
        "deltaTime": 16,
        "channel": 1,
        "note": 33,
        "velocity": 127
      },
      {
        "type": "midi",
        "subType": "noteOff",
        "typeByte": 145,
        "deltaTime": 69,
        "channel": 1,
        "note": 33,
        "velocity": 0
      },
      {
        "type": "midi",
        "subType": "noteOn",
        "typeByte": 145,
        "deltaTime": 27,
        "channel": 1,
        "note": 33,
        "velocity": 127
      },
      {
        "type": "midi",
        "subType": "noteOff",
        "typeByte": 145,
        "deltaTime": 74,
        "channel": 1,
        "note": 33,
        "velocity": 0
      },
      {
        "type": "midi",
        "subType": "noteOn",
        "typeByte": 145,
        "deltaTime": 22,
        "channel": 1,
        "note": 33,
        "velocity": 127
      },
      {
        "type": "midi",
        "subType": "noteOff",
        "typeByte": 145,
        "deltaTime": 77,
        "channel": 1,
        "note": 33,
        "velocity": 0
      },
      {
        "type": "midi",
        "subType": "noteOn",
        "typeByte": 145,
        "deltaTime": 21,
        "channel": 1,
        "note": 32,
        "velocity": 127
      },
      {
        "type": "midi",
        "subType": "noteOff",
        "typeByte": 145,
        "deltaTime": 68,
        "channel": 1,
        "note": 32,
        "velocity": 0
      },
      {
        "type": "midi",
        "subType": "noteOn",
        "typeByte": 145,
        "deltaTime": 27,
        "channel": 1,
        "note": 32,
        "velocity": 127
      },
      {
        "type": "midi",
        "subType": "noteOff",
        "typeByte": 145,
        "deltaTime": 78,
        "channel": 1,
        "note": 32,
        "velocity": 0
      },
      {
        "type": "midi",
        "subType": "noteOn",
        "typeByte": 145,
        "deltaTime": 18,
        "channel": 1,
        "note": 32,
        "velocity": 127
      },
      {
        "type": "midi",
        "subType": "noteOff",
        "typeByte": 145,
        "deltaTime": 74,
        "channel": 1,
        "note": 32,
        "velocity": 0
      },
      {
        "type": "midi",
        "subType": "noteOn",
        "typeByte": 145,
        "deltaTime": 22,
        "channel": 1,
        "note": 32,
        "velocity": 127
      },
      {
        "type": "midi",
        "subType": "noteOff",
        "typeByte": 145,
        "deltaTime": 78,
        "channel": 1,
        "note": 32,
        "velocity": 0
      },
      {
        "type": "midi",
        "subType": "noteOn",
        "typeByte": 145,
        "deltaTime": 20,
        "channel": 1,
        "note": 30,
        "velocity": 127
      },
      {
        "type": "midi",
        "subType": "noteOff",
        "typeByte": 145,
        "deltaTime": 67,
        "channel": 1,
        "note": 30,
        "velocity": 0
      },
      {
        "type": "midi",
        "subType": "noteOn",
        "typeByte": 145,
        "deltaTime": 28,
        "channel": 1,
        "note": 30,
        "velocity": 127
      },
      {
        "type": "midi",
        "subType": "noteOff",
        "typeByte": 145,
        "deltaTime": 74,
        "channel": 1,
        "note": 30,
        "velocity": 0
      },
      {
        "type": "midi",
        "subType": "noteOn",
        "typeByte": 145,
        "deltaTime": 22,
        "channel": 1,
        "note": 30,
        "velocity": 127
      },
      {
        "type": "midi",
        "subType": "noteOff",
        "typeByte": 145,
        "deltaTime": 78,
        "channel": 1,
        "note": 30,
        "velocity": 0
      },
      {
        "type": "midi",
        "subType": "noteOn",
        "typeByte": 145,
        "deltaTime": 19,
        "channel": 1,
        "note": 30,
        "velocity": 127
      },
      {
        "type": "midi",
        "subType": "noteOff",
        "typeByte": 145,
        "deltaTime": 75,
        "channel": 1,
        "note": 30,
        "velocity": 0
      },
      {
        "type": "midi",
        "subType": "noteOn",
        "typeByte": 145,
        "deltaTime": 21,
        "channel": 1,
        "note": 38,
        "velocity": 127
      },
      {
        "type": "midi",
        "subType": "noteOff",
        "typeByte": 145,
        "deltaTime": 30,
        "channel": 1,
        "note": 38,
        "velocity": 0
      },
      {
        "type": "midi",
        "subType": "noteOn",
        "typeByte": 145,
        "deltaTime": 18,
        "channel": 1,
        "note": 38,
        "velocity": 127
      },
      {
        "type": "midi",
        "subType": "noteOff",
        "typeByte": 145,
        "deltaTime": 26,
        "channel": 1,
        "note": 38,
        "velocity": 0
      },
      {
        "type": "midi",
        "subType": "noteOn",
        "typeByte": 145,
        "deltaTime": 22,
        "channel": 1,
        "note": 38,
        "velocity": 127
      },
      {
        "type": "midi",
        "subType": "noteOff",
        "typeByte": 145,
        "deltaTime": 24,
        "channel": 1,
        "note": 38,
        "velocity": 0
      },
      {
        "type": "midi",
        "subType": "noteOn",
        "typeByte": 145,
        "deltaTime": 25,
        "channel": 1,
        "note": 38,
        "velocity": 127
      },
      {
        "type": "midi",
        "subType": "noteOff",
        "typeByte": 145,
        "deltaTime": 24,
        "channel": 1,
        "note": 38,
        "velocity": 0
      },
      {
        "type": "midi",
        "subType": "noteOn",
        "typeByte": 145,
        "deltaTime": 23,
        "channel": 1,
        "note": 38,
        "velocity": 127
      },
      {
        "type": "midi",
        "subType": "noteOff",
        "typeByte": 145,
        "deltaTime": 28,
        "channel": 1,
        "note": 38,
        "velocity": 0
      },
      {
        "type": "midi",
        "subType": "noteOn",
        "typeByte": 145,
        "deltaTime": 21,
        "channel": 1,
        "note": 38,
        "velocity": 127
      },
      {
        "type": "midi",
        "subType": "noteOff",
        "typeByte": 145,
        "deltaTime": 28,
        "channel": 1,
        "note": 38,
        "velocity": 0
      },
      {
        "type": "midi",
        "subType": "noteOn",
        "typeByte": 145,
        "deltaTime": 20,
        "channel": 1,
        "note": 38,
        "velocity": 127
      },
      {
        "type": "midi",
        "subType": "noteOff",
        "typeByte": 145,
        "deltaTime": 24,
        "channel": 1,
        "note": 38,
        "velocity": 0
      },
      {
        "type": "midi",
        "subType": "noteOn",
        "typeByte": 145,
        "deltaTime": 24,
        "channel": 1,
        "note": 38,
        "velocity": 127
      },
      {
        "type": "midi",
        "subType": "noteOff",
        "typeByte": 145,
        "deltaTime": 25,
        "channel": 1,
        "note": 38,
        "velocity": 0
      },
      {
        "type": "midi",
        "subType": "noteOn",
        "typeByte": 145,
        "deltaTime": 24,
        "channel": 1,
        "note": 33,
        "velocity": 127
      },
      {
        "type": "midi",
        "subType": "noteOff",
        "typeByte": 145,
        "deltaTime": 32,
        "channel": 1,
        "note": 33,
        "velocity": 0
      },
      {
        "type": "midi",
        "subType": "noteOn",
        "typeByte": 145,
        "deltaTime": 16,
        "channel": 1,
        "note": 33,
        "velocity": 127
      },
      {
        "type": "midi",
        "subType": "noteOff",
        "typeByte": 145,
        "deltaTime": 29,
        "channel": 1,
        "note": 33,
        "velocity": 0
      },
      {
        "type": "midi",
        "subType": "noteOn",
        "typeByte": 145,
        "deltaTime": 18,
        "channel": 1,
        "note": 33,
        "velocity": 127
      },
      {
        "type": "midi",
        "subType": "noteOff",
        "typeByte": 145,
        "deltaTime": 35,
        "channel": 1,
        "note": 33,
        "velocity": 0
      },
      {
        "type": "midi",
        "subType": "noteOn",
        "typeByte": 145,
        "deltaTime": 206,
        "channel": 1,
        "note": 33,
        "velocity": 127
      },
      {
        "type": "midi",
        "subType": "noteOff",
        "typeByte": 145,
        "deltaTime": 37,
        "channel": 1,
        "note": 33,
        "velocity": 0
      },
      {
        "type": "midi",
        "subType": "noteOn",
        "typeByte": 145,
        "deltaTime": 12,
        "channel": 1,
        "note": 32,
        "velocity": 127
      },
      {
        "type": "midi",
        "subType": "noteOff",
        "typeByte": 145,
        "deltaTime": 31,
        "channel": 1,
        "note": 32,
        "velocity": 0
      },
      {
        "type": "midi",
        "subType": "noteOn",
        "typeByte": 145,
        "deltaTime": 17,
        "channel": 1,
        "note": 32,
        "velocity": 127
      },
      {
        "type": "midi",
        "subType": "noteOff",
        "typeByte": 145,
        "deltaTime": 33,
        "channel": 1,
        "note": 32,
        "velocity": 0
      },
      {
        "type": "midi",
        "subType": "noteOn",
        "typeByte": 145,
        "deltaTime": 14,
        "channel": 1,
        "note": 32,
        "velocity": 127
      },
      {
        "type": "midi",
        "subType": "noteOff",
        "typeByte": 145,
        "deltaTime": 43,
        "channel": 1,
        "note": 32,
        "velocity": 0
      },
      {
        "type": "midi",
        "subType": "noteOn",
        "typeByte": 145,
        "deltaTime": 198,
        "channel": 1,
        "note": 32,
        "velocity": 127
      },
      {
        "type": "midi",
        "subType": "noteOff",
        "typeByte": 145,
        "deltaTime": 32,
        "channel": 1,
        "note": 32,
        "velocity": 0
      },
      {
        "type": "midi",
        "subType": "noteOn",
        "typeByte": 145,
        "deltaTime": 17,
        "channel": 1,
        "note": 30,
        "velocity": 127
      },
      {
        "type": "midi",
        "subType": "noteOff",
        "typeByte": 145,
        "deltaTime": 31,
        "channel": 1,
        "note": 30,
        "velocity": 0
      },
      {
        "type": "midi",
        "subType": "noteOn",
        "typeByte": 145,
        "deltaTime": 17,
        "channel": 1,
        "note": 30,
        "velocity": 127
      },
      {
        "type": "midi",
        "subType": "noteOff",
        "typeByte": 145,
        "deltaTime": 29,
        "channel": 1,
        "note": 30,
        "velocity": 0
      },
      {
        "type": "midi",
        "subType": "noteOn",
        "typeByte": 145,
        "deltaTime": 18,
        "channel": 1,
        "note": 30,
        "velocity": 127
      },
      {
        "type": "midi",
        "subType": "noteOff",
        "typeByte": 145,
        "deltaTime": 39,
        "channel": 1,
        "note": 30,
        "velocity": 0
      },
      {
        "type": "midi",
        "subType": "noteOn",
        "typeByte": 145,
        "deltaTime": 203,
        "channel": 1,
        "note": 38,
        "velocity": 127
      },
      {
        "type": "midi",
        "subType": "noteOff",
        "typeByte": 145,
        "deltaTime": 31,
        "channel": 1,
        "note": 38,
        "velocity": 0
      },
      {
        "type": "midi",
        "subType": "noteOn",
        "typeByte": 145,
        "deltaTime": 16,
        "channel": 1,
        "note": 38,
        "velocity": 127
      },
      {
        "type": "midi",
        "subType": "noteOff",
        "typeByte": 145,
        "deltaTime": 35,
        "channel": 1,
        "note": 38,
        "velocity": 0
      },
      {
        "type": "midi",
        "subType": "noteOn",
        "typeByte": 145,
        "deltaTime": 14,
        "channel": 1,
        "note": 38,
        "velocity": 127
      },
      {
        "type": "midi",
        "subType": "noteOff",
        "typeByte": 145,
        "deltaTime": 30,
        "channel": 1,
        "note": 38,
        "velocity": 0
      },
      {
        "type": "midi",
        "subType": "noteOn",
        "typeByte": 145,
        "deltaTime": 18,
        "channel": 1,
        "note": 38,
        "velocity": 127
      },
      {
        "type": "midi",
        "subType": "noteOff",
        "typeByte": 145,
        "deltaTime": 29,
        "channel": 1,
        "note": 38,
        "velocity": 0
      },
      {
        "type": "midi",
        "subType": "noteOn",
        "typeByte": 145,
        "deltaTime": 19,
        "channel": 1,
        "note": 38,
        "velocity": 127
      },
      {
        "type": "midi",
        "subType": "noteOff",
        "typeByte": 145,
        "deltaTime": 30,
        "channel": 1,
        "note": 38,
        "velocity": 0
      },
      {
        "type": "midi",
        "subType": "noteOn",
        "typeByte": 145,
        "deltaTime": 18,
        "channel": 1,
        "note": 38,
        "velocity": 127
      },
      {
        "type": "midi",
        "subType": "noteOff",
        "typeByte": 145,
        "deltaTime": 28,
        "channel": 1,
        "note": 38,
        "velocity": 0
      },
      {
        "type": "midi",
        "subType": "noteOn",
        "typeByte": 145,
        "deltaTime": 21,
        "channel": 1,
        "note": 42,
        "velocity": 127
      },
      {
        "type": "midi",
        "subType": "noteOff",
        "typeByte": 145,
        "deltaTime": 33,
        "channel": 1,
        "note": 42,
        "velocity": 0
      },
      {
        "type": "midi",
        "subType": "noteOn",
        "typeByte": 145,
        "deltaTime": 14,
        "channel": 1,
        "note": 40,
        "velocity": 127
      },
      {
        "type": "midi",
        "subType": "noteOff",
        "typeByte": 145,
        "deltaTime": 34,
        "channel": 1,
        "note": 40,
        "velocity": 0
      },
      {
        "type": "midi",
        "subType": "noteOn",
        "typeByte": 145,
        "deltaTime": 15,
        "channel": 1,
        "note": 38,
        "velocity": 127
      },
      {
        "type": "midi",
        "subType": "noteOff",
        "typeByte": 145,
        "deltaTime": 34,
        "channel": 1,
        "note": 38,
        "velocity": 0
      },
      {
        "type": "midi",
        "subType": "noteOn",
        "typeByte": 145,
        "deltaTime": 16,
        "channel": 1,
        "note": 33,
        "velocity": 127
      },
      {
        "type": "midi",
        "subType": "noteOff",
        "typeByte": 145,
        "deltaTime": 57,
        "channel": 1,
        "note": 33,
        "velocity": 0
      },
      {
        "type": "midi",
        "subType": "noteOn",
        "typeByte": 145,
        "deltaTime": 37,
        "channel": 1,
        "note": 33,
        "velocity": 127
      },
      {
        "type": "midi",
        "subType": "noteOff",
        "typeByte": 145,
        "deltaTime": 63,
        "channel": 1,
        "note": 33,
        "velocity": 0
      },
      {
        "type": "midi",
        "subType": "noteOn",
        "typeByte": 145,
        "deltaTime": 34,
        "channel": 1,
        "note": 33,
        "velocity": 127
      },
      {
        "type": "midi",
        "subType": "noteOff",
        "typeByte": 145,
        "deltaTime": 50,
        "channel": 1,
        "note": 33,
        "velocity": 0
      },
      {
        "type": "midi",
        "subType": "noteOn",
        "typeByte": 145,
        "deltaTime": 46,
        "channel": 1,
        "note": 33,
        "velocity": 127
      },
      {
        "type": "midi",
        "subType": "noteOff",
        "typeByte": 145,
        "deltaTime": 71,
        "channel": 1,
        "note": 33,
        "velocity": 0
      },
      {
        "type": "midi",
        "subType": "noteOn",
        "typeByte": 145,
        "deltaTime": 25,
        "channel": 1,
        "note": 32,
        "velocity": 127
      },
      {
        "type": "midi",
        "subType": "noteOff",
        "typeByte": 145,
        "deltaTime": 73,
        "channel": 1,
        "note": 32,
        "velocity": 0
      },
      {
        "type": "midi",
        "subType": "noteOn",
        "typeByte": 145,
        "deltaTime": 23,
        "channel": 1,
        "note": 32,
        "velocity": 127
      },
      {
        "type": "midi",
        "subType": "noteOff",
        "typeByte": 145,
        "deltaTime": 69,
        "channel": 1,
        "note": 32,
        "velocity": 0
      },
      {
        "type": "midi",
        "subType": "noteOn",
        "typeByte": 145,
        "deltaTime": 28,
        "channel": 1,
        "note": 32,
        "velocity": 127
      },
      {
        "type": "midi",
        "subType": "noteOff",
        "typeByte": 145,
        "deltaTime": 76,
        "channel": 1,
        "note": 32,
        "velocity": 0
      },
      {
        "type": "midi",
        "subType": "noteOn",
        "typeByte": 145,
        "deltaTime": 20,
        "channel": 1,
        "note": 32,
        "velocity": 127
      },
      {
        "type": "midi",
        "subType": "noteOff",
        "typeByte": 145,
        "deltaTime": 73,
        "channel": 1,
        "note": 32,
        "velocity": 0
      },
      {
        "type": "midi",
        "subType": "noteOn",
        "typeByte": 145,
        "deltaTime": 23,
        "channel": 1,
        "note": 38,
        "velocity": 127
      },
      {
        "type": "midi",
        "subType": "noteOff",
        "typeByte": 145,
        "deltaTime": 32,
        "channel": 1,
        "note": 38,
        "velocity": 0
      },
      {
        "type": "midi",
        "subType": "noteOn",
        "typeByte": 145,
        "deltaTime": 17,
        "channel": 1,
        "note": 38,
        "velocity": 127
      },
      {
        "type": "midi",
        "subType": "noteOff",
        "typeByte": 145,
        "deltaTime": 26,
        "channel": 1,
        "note": 38,
        "velocity": 0
      },
      {
        "type": "midi",
        "subType": "noteOn",
        "typeByte": 145,
        "deltaTime": 21,
        "channel": 1,
        "note": 38,
        "velocity": 127
      },
      {
        "type": "midi",
        "subType": "noteOff",
        "typeByte": 145,
        "deltaTime": 27,
        "channel": 1,
        "note": 38,
        "velocity": 0
      },
      {
        "type": "midi",
        "subType": "noteOn",
        "typeByte": 145,
        "deltaTime": 22,
        "channel": 1,
        "note": 38,
        "velocity": 127
      },
      {
        "type": "midi",
        "subType": "noteOff",
        "typeByte": 145,
        "deltaTime": 27,
        "channel": 1,
        "note": 38,
        "velocity": 0
      },
      {
        "type": "midi",
        "subType": "noteOn",
        "typeByte": 145,
        "deltaTime": 21,
        "channel": 1,
        "note": 38,
        "velocity": 127
      },
      {
        "type": "midi",
        "subType": "noteOff",
        "typeByte": 145,
        "deltaTime": 28,
        "channel": 1,
        "note": 38,
        "velocity": 0
      },
      {
        "type": "midi",
        "subType": "noteOn",
        "typeByte": 145,
        "deltaTime": 21,
        "channel": 1,
        "note": 38,
        "velocity": 127
      },
      {
        "type": "midi",
        "subType": "noteOff",
        "typeByte": 145,
        "deltaTime": 26,
        "channel": 1,
        "note": 38,
        "velocity": 0
      },
      {
        "type": "midi",
        "subType": "noteOn",
        "typeByte": 145,
        "deltaTime": 21,
        "channel": 1,
        "note": 38,
        "velocity": 127
      },
      {
        "type": "midi",
        "subType": "noteOff",
        "typeByte": 145,
        "deltaTime": 27,
        "channel": 1,
        "note": 38,
        "velocity": 0
      },
      {
        "type": "midi",
        "subType": "noteOn",
        "typeByte": 145,
        "deltaTime": 22,
        "channel": 1,
        "note": 38,
        "velocity": 127
      },
      {
        "type": "midi",
        "subType": "noteOff",
        "typeByte": 145,
        "deltaTime": 30,
        "channel": 1,
        "note": 38,
        "velocity": 0
      },
      {
        "type": "midi",
        "subType": "noteOn",
        "typeByte": 145,
        "deltaTime": 18,
        "channel": 1,
        "note": 40,
        "velocity": 127
      },
      {
        "type": "midi",
        "subType": "noteOff",
        "typeByte": 145,
        "deltaTime": 31,
        "channel": 1,
        "note": 40,
        "velocity": 0
      },
      {
        "type": "midi",
        "subType": "noteOn",
        "typeByte": 145,
        "deltaTime": 17,
        "channel": 1,
        "note": 40,
        "velocity": 127
      },
      {
        "type": "midi",
        "subType": "noteOff",
        "typeByte": 145,
        "deltaTime": 23,
        "channel": 1,
        "note": 40,
        "velocity": 0
      },
      {
        "type": "midi",
        "subType": "noteOn",
        "typeByte": 145,
        "deltaTime": 25,
        "channel": 1,
        "note": 40,
        "velocity": 127
      },
      {
        "type": "midi",
        "subType": "noteOff",
        "typeByte": 145,
        "deltaTime": 27,
        "channel": 1,
        "note": 40,
        "velocity": 0
      },
      {
        "type": "midi",
        "subType": "noteOn",
        "typeByte": 145,
        "deltaTime": 21,
        "channel": 1,
        "note": 40,
        "velocity": 127
      },
      {
        "type": "midi",
        "subType": "noteOff",
        "typeByte": 145,
        "deltaTime": 27,
        "channel": 1,
        "note": 40,
        "velocity": 0
      },
      {
        "type": "midi",
        "subType": "noteOn",
        "typeByte": 145,
        "deltaTime": 21,
        "channel": 1,
        "note": 40,
        "velocity": 127
      },
      {
        "type": "midi",
        "subType": "noteOff",
        "typeByte": 145,
        "deltaTime": 32,
        "channel": 1,
        "note": 40,
        "velocity": 0
      },
      {
        "type": "midi",
        "subType": "noteOn",
        "typeByte": 145,
        "deltaTime": 17,
        "channel": 1,
        "note": 40,
        "velocity": 127
      },
      {
        "type": "midi",
        "subType": "noteOff",
        "typeByte": 145,
        "deltaTime": 33,
        "channel": 1,
        "note": 40,
        "velocity": 0
      },
      {
        "type": "midi",
        "subType": "noteOn",
        "typeByte": 145,
        "deltaTime": 14,
        "channel": 1,
        "note": 40,
        "velocity": 127
      },
      {
        "type": "midi",
        "subType": "noteOff",
        "typeByte": 145,
        "deltaTime": 31,
        "channel": 1,
        "note": 40,
        "velocity": 0
      },
      {
        "type": "midi",
        "subType": "noteOn",
        "typeByte": 145,
        "deltaTime": 18,
        "channel": 1,
        "note": 40,
        "velocity": 127
      },
      {
        "type": "midi",
        "subType": "noteOff",
        "typeByte": 145,
        "deltaTime": 26,
        "channel": 1,
        "note": 40,
        "velocity": 0
      },
      {
        "type": "midi",
        "subType": "noteOn",
        "typeByte": 145,
        "deltaTime": 23,
        "channel": 1,
        "note": 35,
        "velocity": 127
      },
      {
        "type": "midi",
        "subType": "noteOff",
        "typeByte": 145,
        "deltaTime": 32,
        "channel": 1,
        "note": 35,
        "velocity": 0
      },
      {
        "type": "midi",
        "subType": "noteOn",
        "typeByte": 145,
        "deltaTime": 15,
        "channel": 1,
        "note": 35,
        "velocity": 127
      },
      {
        "type": "midi",
        "subType": "noteOff",
        "typeByte": 145,
        "deltaTime": 31,
        "channel": 1,
        "note": 35,
        "velocity": 0
      },
      {
        "type": "midi",
        "subType": "noteOn",
        "typeByte": 145,
        "deltaTime": 17,
        "channel": 1,
        "note": 35,
        "velocity": 127
      },
      {
        "type": "midi",
        "subType": "noteOff",
        "typeByte": 145,
        "deltaTime": 32,
        "channel": 1,
        "note": 35,
        "velocity": 0
      },
      {
        "type": "midi",
        "subType": "noteOn",
        "typeByte": 145,
        "deltaTime": 209,
        "channel": 1,
        "note": 40,
        "velocity": 127
      },
      {
        "type": "midi",
        "subType": "noteOff",
        "typeByte": 145,
        "deltaTime": 35,
        "channel": 1,
        "note": 40,
        "velocity": 0
      },
      {
        "type": "midi",
        "subType": "noteOn",
        "typeByte": 145,
        "deltaTime": 61,
        "channel": 1,
        "note": 40,
        "velocity": 127
      },
      {
        "type": "midi",
        "subType": "noteOff",
        "typeByte": 145,
        "deltaTime": 34,
        "channel": 1,
        "note": 40,
        "velocity": 0
      },
      {
        "type": "midi",
        "subType": "noteOn",
        "typeByte": 145,
        "deltaTime": 63,
        "channel": 1,
        "note": 40,
        "velocity": 127
      },
      {
        "type": "midi",
        "subType": "noteOff",
        "typeByte": 145,
        "deltaTime": 26,
        "channel": 1,
        "note": 40,
        "velocity": 0
      },
      {
        "type": "midi",
        "subType": "noteOn",
        "typeByte": 145,
        "deltaTime": 22,
        "channel": 1,
        "note": 40,
        "velocity": 127
      },
      {
        "type": "midi",
        "subType": "noteOff",
        "typeByte": 145,
        "deltaTime": 130,
        "channel": 1,
        "note": 40,
        "velocity": 0
      },
      {
        "type": "midi",
        "subType": "noteOn",
        "typeByte": 145,
        "deltaTime": 63,
        "channel": 1,
        "note": 33,
        "velocity": 127
      },
      {
        "type": "midi",
        "subType": "noteOff",
        "typeByte": 145,
        "deltaTime": 33,
        "channel": 1,
        "note": 33,
        "velocity": 0
      },
      {
        "type": "midi",
        "subType": "noteOn",
        "typeByte": 145,
        "deltaTime": 15,
        "channel": 1,
        "note": 33,
        "velocity": 127
      },
      {
        "type": "midi",
        "subType": "noteOff",
        "typeByte": 145,
        "deltaTime": 33,
        "channel": 1,
        "note": 33,
        "velocity": 0
      },
      {
        "type": "midi",
        "subType": "noteOn",
        "typeByte": 145,
        "deltaTime": 14,
        "channel": 1,
        "note": 33,
        "velocity": 127
      },
      {
        "type": "midi",
        "subType": "noteOff",
        "typeByte": 145,
        "deltaTime": 35,
        "channel": 1,
        "note": 33,
        "velocity": 0
      },
      {
        "type": "midi",
        "subType": "noteOn",
        "typeByte": 145,
        "deltaTime": 207,
        "channel": 1,
        "note": 38,
        "velocity": 127
      },
      {
        "type": "midi",
        "subType": "noteOff",
        "typeByte": 145,
        "deltaTime": 34,
        "channel": 1,
        "note": 38,
        "velocity": 0
      },
      {
        "type": "midi",
        "subType": "noteOn",
        "typeByte": 145,
        "deltaTime": 62,
        "channel": 1,
        "note": 38,
        "velocity": 127
      },
      {
        "type": "midi",
        "subType": "noteOff",
        "typeByte": 145,
        "deltaTime": 33,
        "channel": 1,
        "note": 38,
        "velocity": 0
      },
      {
        "type": "midi",
        "subType": "noteOn",
        "typeByte": 145,
        "deltaTime": 63,
        "channel": 1,
        "note": 38,
        "velocity": 127
      },
      {
        "type": "midi",
        "subType": "noteOff",
        "typeByte": 145,
        "deltaTime": 31,
        "channel": 1,
        "note": 38,
        "velocity": 0
      },
      {
        "type": "midi",
        "subType": "noteOn",
        "typeByte": 145,
        "deltaTime": 18,
        "channel": 1,
        "note": 37,
        "velocity": 127
      },
      {
        "type": "midi",
        "subType": "noteOff",
        "typeByte": 145,
        "deltaTime": 147,
        "channel": 1,
        "note": 37,
        "velocity": 0
      },
      {
        "type": "midi",
        "subType": "noteOn",
        "typeByte": 145,
        "deltaTime": 46,
        "channel": 1,
        "note": 35,
        "velocity": 127
      },
      {
        "type": "midi",
        "subType": "noteOff",
        "typeByte": 145,
        "deltaTime": 31,
        "channel": 1,
        "note": 35,
        "velocity": 0
      },
      {
        "type": "midi",
        "subType": "noteOn",
        "typeByte": 145,
        "deltaTime": 16,
        "channel": 1,
        "note": 35,
        "velocity": 127
      },
      {
        "type": "midi",
        "subType": "noteOff",
        "typeByte": 145,
        "deltaTime": 31,
        "channel": 1,
        "note": 35,
        "velocity": 0
      },
      {
        "type": "midi",
        "subType": "noteOn",
        "typeByte": 145,
        "deltaTime": 17,
        "channel": 1,
        "note": 35,
        "velocity": 127
      },
      {
        "type": "midi",
        "subType": "noteOff",
        "typeByte": 145,
        "deltaTime": 31,
        "channel": 1,
        "note": 35,
        "velocity": 0
      },
      {
        "type": "midi",
        "subType": "noteOn",
        "typeByte": 145,
        "deltaTime": 210,
        "channel": 1,
        "note": 40,
        "velocity": 127
      },
      {
        "type": "midi",
        "subType": "noteOff",
        "typeByte": 145,
        "deltaTime": 34,
        "channel": 1,
        "note": 40,
        "velocity": 0
      },
      {
        "type": "midi",
        "subType": "noteOn",
        "typeByte": 145,
        "deltaTime": 62,
        "channel": 1,
        "note": 40,
        "velocity": 127
      },
      {
        "type": "midi",
        "subType": "noteOff",
        "typeByte": 145,
        "deltaTime": 33,
        "channel": 1,
        "note": 40,
        "velocity": 0
      },
      {
        "type": "midi",
        "subType": "noteOn",
        "typeByte": 145,
        "deltaTime": 64,
        "channel": 1,
        "note": 40,
        "velocity": 127
      },
      {
        "type": "midi",
        "subType": "noteOff",
        "typeByte": 145,
        "deltaTime": 26,
        "channel": 1,
        "note": 40,
        "velocity": 0
      },
      {
        "type": "midi",
        "subType": "noteOn",
        "typeByte": 145,
        "deltaTime": 22,
        "channel": 1,
        "note": 40,
        "velocity": 127
      },
      {
        "type": "midi",
        "subType": "noteOff",
        "typeByte": 145,
        "deltaTime": 130,
        "channel": 1,
        "note": 40,
        "velocity": 0
      },
      {
        "type": "midi",
        "subType": "noteOn",
        "typeByte": 145,
        "deltaTime": 63,
        "channel": 1,
        "note": 33,
        "velocity": 127
      },
      {
        "type": "midi",
        "subType": "noteOff",
        "typeByte": 145,
        "deltaTime": 33,
        "channel": 1,
        "note": 33,
        "velocity": 0
      },
      {
        "type": "midi",
        "subType": "noteOn",
        "typeByte": 145,
        "deltaTime": 15,
        "channel": 1,
        "note": 33,
        "velocity": 127
      },
      {
        "type": "midi",
        "subType": "noteOff",
        "typeByte": 145,
        "deltaTime": 33,
        "channel": 1,
        "note": 33,
        "velocity": 0
      },
      {
        "type": "midi",
        "subType": "noteOn",
        "typeByte": 145,
        "deltaTime": 14,
        "channel": 1,
        "note": 33,
        "velocity": 127
      },
      {
        "type": "midi",
        "subType": "noteOff",
        "typeByte": 145,
        "deltaTime": 34,
        "channel": 1,
        "note": 33,
        "velocity": 0
      },
      {
        "type": "midi",
        "subType": "noteOn",
        "typeByte": 145,
        "deltaTime": 208,
        "channel": 1,
        "note": 38,
        "velocity": 127
      },
      {
        "type": "midi",
        "subType": "noteOff",
        "typeByte": 145,
        "deltaTime": 34,
        "channel": 1,
        "note": 38,
        "velocity": 0
      },
      {
        "type": "midi",
        "subType": "noteOn",
        "typeByte": 145,
        "deltaTime": 62,
        "channel": 1,
        "note": 38,
        "velocity": 127
      },
      {
        "type": "midi",
        "subType": "noteOff",
        "typeByte": 145,
        "deltaTime": 33,
        "channel": 1,
        "note": 38,
        "velocity": 0
      },
      {
        "type": "midi",
        "subType": "noteOn",
        "typeByte": 145,
        "deltaTime": 63,
        "channel": 1,
        "note": 38,
        "velocity": 127
      },
      {
        "type": "midi",
        "subType": "noteOff",
        "typeByte": 145,
        "deltaTime": 30,
        "channel": 1,
        "note": 38,
        "velocity": 0
      },
      {
        "type": "midi",
        "subType": "noteOn",
        "typeByte": 145,
        "deltaTime": 18,
        "channel": 1,
        "note": 37,
        "velocity": 127
      },
      {
        "type": "midi",
        "subType": "noteOff",
        "typeByte": 145,
        "deltaTime": 148,
        "channel": 1,
        "note": 37,
        "velocity": 0
      },
      {
        "type": "midi",
        "subType": "noteOn",
        "typeByte": 145,
        "deltaTime": 45,
        "channel": 1,
        "note": 35,
        "velocity": 127
      },
      {
        "type": "midi",
        "subType": "noteOff",
        "typeByte": 145,
        "deltaTime": 32,
        "channel": 1,
        "note": 35,
        "velocity": 0
      },
      {
        "type": "midi",
        "subType": "noteOn",
        "typeByte": 145,
        "deltaTime": 16,
        "channel": 1,
        "note": 35,
        "velocity": 127
      },
      {
        "type": "midi",
        "subType": "noteOff",
        "typeByte": 145,
        "deltaTime": 30,
        "channel": 1,
        "note": 35,
        "velocity": 0
      },
      {
        "type": "midi",
        "subType": "noteOn",
        "typeByte": 145,
        "deltaTime": 18,
        "channel": 1,
        "note": 35,
        "velocity": 127
      },
      {
        "type": "midi",
        "subType": "noteOff",
        "typeByte": 145,
        "deltaTime": 31,
        "channel": 1,
        "note": 35,
        "velocity": 0
      },
      {
        "type": "midi",
        "subType": "noteOn",
        "typeByte": 145,
        "deltaTime": 210,
        "channel": 1,
        "note": 40,
        "velocity": 127
      },
      {
        "type": "midi",
        "subType": "noteOff",
        "typeByte": 145,
        "deltaTime": 34,
        "channel": 1,
        "note": 40,
        "velocity": 0
      },
      {
        "type": "midi",
        "subType": "noteOn",
        "typeByte": 145,
        "deltaTime": 62,
        "channel": 1,
        "note": 40,
        "velocity": 127
      },
      {
        "type": "midi",
        "subType": "noteOff",
        "typeByte": 145,
        "deltaTime": 35,
        "channel": 1,
        "note": 40,
        "velocity": 0
      },
      {
        "type": "midi",
        "subType": "noteOn",
        "typeByte": 145,
        "deltaTime": 61,
        "channel": 1,
        "note": 40,
        "velocity": 127
      },
      {
        "type": "midi",
        "subType": "noteOff",
        "typeByte": 145,
        "deltaTime": 27,
        "channel": 1,
        "note": 40,
        "velocity": 0
      },
      {
        "type": "midi",
        "subType": "noteOn",
        "typeByte": 145,
        "deltaTime": 21,
        "channel": 1,
        "note": 40,
        "velocity": 127
      },
      {
        "type": "midi",
        "subType": "noteOff",
        "typeByte": 145,
        "deltaTime": 131,
        "channel": 1,
        "note": 40,
        "velocity": 0
      },
      {
        "type": "midi",
        "subType": "noteOn",
        "typeByte": 145,
        "deltaTime": 62,
        "channel": 1,
        "note": 42,
        "velocity": 127
      },
      {
        "type": "midi",
        "subType": "noteOff",
        "typeByte": 145,
        "deltaTime": 34,
        "channel": 1,
        "note": 42,
        "velocity": 0
      },
      {
        "type": "midi",
        "subType": "noteOn",
        "typeByte": 145,
        "deltaTime": 14,
        "channel": 1,
        "note": 42,
        "velocity": 127
      },
      {
        "type": "midi",
        "subType": "noteOff",
        "typeByte": 145,
        "deltaTime": 33,
        "channel": 1,
        "note": 42,
        "velocity": 0
      },
      {
        "type": "midi",
        "subType": "noteOn",
        "typeByte": 145,
        "deltaTime": 15,
        "channel": 1,
        "note": 42,
        "velocity": 127
      },
      {
        "type": "midi",
        "subType": "noteOff",
        "typeByte": 145,
        "deltaTime": 34,
        "channel": 1,
        "note": 42,
        "velocity": 0
      },
      {
        "type": "midi",
        "subType": "noteOn",
        "typeByte": 145,
        "deltaTime": 207,
        "channel": 1,
        "note": 38,
        "velocity": 127
      },
      {
        "type": "midi",
        "subType": "noteOff",
        "typeByte": 145,
        "deltaTime": 35,
        "channel": 1,
        "note": 38,
        "velocity": 0
      },
      {
        "type": "midi",
        "subType": "noteOn",
        "typeByte": 145,
        "deltaTime": 62,
        "channel": 1,
        "note": 38,
        "velocity": 127
      },
      {
        "type": "midi",
        "subType": "noteOff",
        "typeByte": 145,
        "deltaTime": 34,
        "channel": 1,
        "note": 38,
        "velocity": 0
      },
      {
        "type": "midi",
        "subType": "noteOn",
        "typeByte": 145,
        "deltaTime": 62,
        "channel": 1,
        "note": 54,
        "velocity": 127
      },
      {
        "type": "midi",
        "subType": "noteOff",
        "typeByte": 145,
        "deltaTime": 42,
        "channel": 1,
        "note": 54,
        "velocity": 0
      },
      {
        "type": "midi",
        "subType": "noteOn",
        "typeByte": 145,
        "deltaTime": 6,
        "channel": 1,
        "note": 52,
        "velocity": 127
      },
      {
        "type": "midi",
        "subType": "noteOff",
        "typeByte": 145,
        "deltaTime": 43,
        "channel": 1,
        "note": 52,
        "velocity": 0
      },
      {
        "type": "midi",
        "subType": "noteOn",
        "typeByte": 145,
        "deltaTime": 5,
        "channel": 1,
        "note": 50,
        "velocity": 127
      },
      {
        "type": "midi",
        "subType": "noteOff",
        "typeByte": 145,
        "deltaTime": 43,
        "channel": 1,
        "note": 50,
        "velocity": 0
      },
      {
        "type": "midi",
        "subType": "noteOn",
        "typeByte": 145,
        "deltaTime": 5,
        "channel": 1,
        "note": 49,
        "velocity": 127
      },
      {
        "type": "midi",
        "subType": "noteOff",
        "typeByte": 145,
        "deltaTime": 43,
        "channel": 1,
        "note": 49,
        "velocity": 0
      },
      {
        "type": "midi",
        "subType": "noteOn",
        "typeByte": 145,
        "deltaTime": 5,
        "channel": 1,
        "note": 47,
        "velocity": 127
      },
      {
        "type": "midi",
        "subType": "noteOff",
        "typeByte": 145,
        "deltaTime": 43,
        "channel": 1,
        "note": 47,
        "velocity": 0
      },
      {
        "type": "midi",
        "subType": "noteOn",
        "typeByte": 145,
        "deltaTime": 6,
        "channel": 1,
        "note": 33,
        "velocity": 127
      },
      {
        "type": "midi",
        "subType": "noteOff",
        "typeByte": 145,
        "deltaTime": 33,
        "channel": 1,
        "note": 33,
        "velocity": 0
      },
      {
        "type": "midi",
        "subType": "noteOn",
        "typeByte": 145,
        "deltaTime": 14,
        "channel": 1,
        "note": 33,
        "velocity": 127
      },
      {
        "type": "midi",
        "subType": "noteOff",
        "typeByte": 145,
        "deltaTime": 30,
        "channel": 1,
        "note": 33,
        "velocity": 0
      },
      {
        "type": "midi",
        "subType": "noteOn",
        "typeByte": 145,
        "deltaTime": 18,
        "channel": 1,
        "note": 33,
        "velocity": 127
      },
      {
        "type": "midi",
        "subType": "noteOff",
        "typeByte": 145,
        "deltaTime": 71,
        "channel": 1,
        "note": 33,
        "velocity": 0
      },
      {
        "type": "midi",
        "subType": "noteOn",
        "typeByte": 145,
        "deltaTime": 25,
        "channel": 1,
        "note": 33,
        "velocity": 127
      },
      {
        "type": "midi",
        "subType": "noteOff",
        "typeByte": 145,
        "deltaTime": 67,
        "channel": 1,
        "note": 33,
        "velocity": 0
      },
      {
        "type": "midi",
        "subType": "noteOn",
        "typeByte": 145,
        "deltaTime": 30,
        "channel": 1,
        "note": 33,
        "velocity": 127
      },
      {
        "type": "midi",
        "subType": "noteOff",
        "typeByte": 145,
        "deltaTime": 67,
        "channel": 1,
        "note": 33,
        "velocity": 0
      },
      {
        "type": "midi",
        "subType": "noteOn",
        "typeByte": 145,
        "deltaTime": 30,
        "channel": 1,
        "note": 32,
        "velocity": 127
      },
      {
        "type": "midi",
        "subType": "noteOff",
        "typeByte": 145,
        "deltaTime": 66,
        "channel": 1,
        "note": 32,
        "velocity": 0
      },
      {
        "type": "midi",
        "subType": "noteOn",
        "typeByte": 145,
        "deltaTime": 29,
        "channel": 1,
        "note": 32,
        "velocity": 127
      },
      {
        "type": "midi",
        "subType": "noteOff",
        "typeByte": 145,
        "deltaTime": 75,
        "channel": 1,
        "note": 32,
        "velocity": 0
      },
      {
        "type": "midi",
        "subType": "noteOn",
        "typeByte": 145,
        "deltaTime": 21,
        "channel": 1,
        "note": 32,
        "velocity": 127
      },
      {
        "type": "midi",
        "subType": "noteOff",
        "typeByte": 145,
        "deltaTime": 68,
        "channel": 1,
        "note": 32,
        "velocity": 0
      },
      {
        "type": "midi",
        "subType": "noteOn",
        "typeByte": 145,
        "deltaTime": 29,
        "channel": 1,
        "note": 32,
        "velocity": 127
      },
      {
        "type": "midi",
        "subType": "noteOff",
        "typeByte": 145,
        "deltaTime": 75,
        "channel": 1,
        "note": 32,
        "velocity": 0
      },
      {
        "type": "midi",
        "subType": "noteOn",
        "typeByte": 145,
        "deltaTime": 22,
        "channel": 1,
        "note": 30,
        "velocity": 127
      },
      {
        "type": "midi",
        "subType": "noteOff",
        "typeByte": 145,
        "deltaTime": 72,
        "channel": 1,
        "note": 30,
        "velocity": 0
      },
      {
        "type": "midi",
        "subType": "noteOn",
        "typeByte": 145,
        "deltaTime": 23,
        "channel": 1,
        "note": 30,
        "velocity": 127
      },
      {
        "type": "midi",
        "subType": "noteOff",
        "typeByte": 145,
        "deltaTime": 70,
        "channel": 1,
        "note": 30,
        "velocity": 0
      },
      {
        "type": "midi",
        "subType": "noteOn",
        "typeByte": 145,
        "deltaTime": 26,
        "channel": 1,
        "note": 30,
        "velocity": 127
      },
      {
        "type": "midi",
        "subType": "noteOff",
        "typeByte": 145,
        "deltaTime": 76,
        "channel": 1,
        "note": 30,
        "velocity": 0
      },
      {
        "type": "midi",
        "subType": "noteOn",
        "typeByte": 145,
        "deltaTime": 21,
        "channel": 1,
        "note": 30,
        "velocity": 127
      },
      {
        "type": "midi",
        "subType": "noteOff",
        "typeByte": 145,
        "deltaTime": 89,
        "channel": 1,
        "note": 30,
        "velocity": 0
      },
      {
        "type": "midi",
        "subType": "noteOn",
        "typeByte": 145,
        "deltaTime": 7,
        "channel": 1,
        "note": 38,
        "velocity": 127
      },
      {
        "type": "midi",
        "subType": "noteOff",
        "typeByte": 145,
        "deltaTime": 29,
        "channel": 1,
        "note": 38,
        "velocity": 0
      },
      {
        "type": "midi",
        "subType": "noteOn",
        "typeByte": 145,
        "deltaTime": 20,
        "channel": 1,
        "note": 38,
        "velocity": 127
      },
      {
        "type": "midi",
        "subType": "noteOff",
        "typeByte": 145,
        "deltaTime": 22,
        "channel": 1,
        "note": 38,
        "velocity": 0
      },
      {
        "type": "midi",
        "subType": "noteOn",
        "typeByte": 145,
        "deltaTime": 25,
        "channel": 1,
        "note": 38,
        "velocity": 127
      },
      {
        "type": "midi",
        "subType": "noteOff",
        "typeByte": 145,
        "deltaTime": 26,
        "channel": 1,
        "note": 38,
        "velocity": 0
      },
      {
        "type": "midi",
        "subType": "noteOn",
        "typeByte": 145,
        "deltaTime": 23,
        "channel": 1,
        "note": 38,
        "velocity": 127
      },
      {
        "type": "midi",
        "subType": "noteOff",
        "typeByte": 145,
        "deltaTime": 27,
        "channel": 1,
        "note": 38,
        "velocity": 0
      },
      {
        "type": "midi",
        "subType": "noteOn",
        "typeByte": 145,
        "deltaTime": 21,
        "channel": 1,
        "note": 38,
        "velocity": 127
      },
      {
        "type": "midi",
        "subType": "noteOff",
        "typeByte": 145,
        "deltaTime": 29,
        "channel": 1,
        "note": 38,
        "velocity": 0
      },
      {
        "type": "midi",
        "subType": "noteOn",
        "typeByte": 145,
        "deltaTime": 19,
        "channel": 1,
        "note": 38,
        "velocity": 127
      },
      {
        "type": "midi",
        "subType": "noteOff",
        "typeByte": 145,
        "deltaTime": 27,
        "channel": 1,
        "note": 38,
        "velocity": 0
      },
      {
        "type": "midi",
        "subType": "noteOn",
        "typeByte": 145,
        "deltaTime": 21,
        "channel": 1,
        "note": 38,
        "velocity": 127
      },
      {
        "type": "midi",
        "subType": "noteOff",
        "typeByte": 145,
        "deltaTime": 31,
        "channel": 1,
        "note": 38,
        "velocity": 0
      },
      {
        "type": "midi",
        "subType": "noteOn",
        "typeByte": 145,
        "deltaTime": 18,
        "channel": 1,
        "note": 38,
        "velocity": 127
      },
      {
        "type": "midi",
        "subType": "noteOff",
        "typeByte": 145,
        "deltaTime": 29,
        "channel": 1,
        "note": 38,
        "velocity": 0
      },
      {
        "type": "midi",
        "subType": "noteOn",
        "typeByte": 145,
        "deltaTime": 20,
        "channel": 1,
        "note": 33,
        "velocity": 127
      },
      {
        "type": "midi",
        "subType": "noteOff",
        "typeByte": 145,
        "deltaTime": 32,
        "channel": 1,
        "note": 33,
        "velocity": 0
      },
      {
        "type": "midi",
        "subType": "noteOn",
        "typeByte": 145,
        "deltaTime": 15,
        "channel": 1,
        "note": 33,
        "velocity": 127
      },
      {
        "type": "midi",
        "subType": "noteOff",
        "typeByte": 145,
        "deltaTime": 32,
        "channel": 1,
        "note": 33,
        "velocity": 0
      },
      {
        "type": "midi",
        "subType": "noteOn",
        "typeByte": 145,
        "deltaTime": 16,
        "channel": 1,
        "note": 33,
        "velocity": 127
      },
      {
        "type": "midi",
        "subType": "noteOff",
        "typeByte": 145,
        "deltaTime": 69,
        "channel": 1,
        "note": 33,
        "velocity": 0
      },
      {
        "type": "midi",
        "subType": "noteOn",
        "typeByte": 145,
        "deltaTime": 27,
        "channel": 1,
        "note": 33,
        "velocity": 127
      },
      {
        "type": "midi",
        "subType": "noteOff",
        "typeByte": 145,
        "deltaTime": 75,
        "channel": 1,
        "note": 33,
        "velocity": 0
      },
      {
        "type": "midi",
        "subType": "noteOn",
        "typeByte": 145,
        "deltaTime": 21,
        "channel": 1,
        "note": 33,
        "velocity": 127
      },
      {
        "type": "midi",
        "subType": "noteOff",
        "typeByte": 145,
        "deltaTime": 76,
        "channel": 1,
        "note": 33,
        "velocity": 0
      },
      {
        "type": "midi",
        "subType": "noteOn",
        "typeByte": 145,
        "deltaTime": 22,
        "channel": 1,
        "note": 32,
        "velocity": 127
      },
      {
        "type": "midi",
        "subType": "noteOff",
        "typeByte": 145,
        "deltaTime": 68,
        "channel": 1,
        "note": 32,
        "velocity": 0
      },
      {
        "type": "midi",
        "subType": "noteOn",
        "typeByte": 145,
        "deltaTime": 27,
        "channel": 1,
        "note": 32,
        "velocity": 127
      },
      {
        "type": "midi",
        "subType": "noteOff",
        "typeByte": 145,
        "deltaTime": 78,
        "channel": 1,
        "note": 32,
        "velocity": 0
      },
      {
        "type": "midi",
        "subType": "noteOn",
        "typeByte": 145,
        "deltaTime": 18,
        "channel": 1,
        "note": 32,
        "velocity": 127
      },
      {
        "type": "midi",
        "subType": "noteOff",
        "typeByte": 145,
        "deltaTime": 74,
        "channel": 1,
        "note": 32,
        "velocity": 0
      },
      {
        "type": "midi",
        "subType": "noteOn",
        "typeByte": 145,
        "deltaTime": 22,
        "channel": 1,
        "note": 32,
        "velocity": 127
      },
      {
        "type": "midi",
        "subType": "noteOff",
        "typeByte": 145,
        "deltaTime": 78,
        "channel": 1,
        "note": 32,
        "velocity": 0
      },
      {
        "type": "midi",
        "subType": "noteOn",
        "typeByte": 145,
        "deltaTime": 20,
        "channel": 1,
        "note": 30,
        "velocity": 127
      },
      {
        "type": "midi",
        "subType": "noteOff",
        "typeByte": 145,
        "deltaTime": 67,
        "channel": 1,
        "note": 30,
        "velocity": 0
      },
      {
        "type": "midi",
        "subType": "noteOn",
        "typeByte": 145,
        "deltaTime": 28,
        "channel": 1,
        "note": 30,
        "velocity": 127
      },
      {
        "type": "midi",
        "subType": "noteOff",
        "typeByte": 145,
        "deltaTime": 75,
        "channel": 1,
        "note": 30,
        "velocity": 0
      },
      {
        "type": "midi",
        "subType": "noteOn",
        "typeByte": 145,
        "deltaTime": 21,
        "channel": 1,
        "note": 30,
        "velocity": 127
      },
      {
        "type": "midi",
        "subType": "noteOff",
        "typeByte": 145,
        "deltaTime": 80,
        "channel": 1,
        "note": 30,
        "velocity": 0
      },
      {
        "type": "midi",
        "subType": "noteOn",
        "typeByte": 145,
        "deltaTime": 17,
        "channel": 1,
        "note": 30,
        "velocity": 127
      },
      {
        "type": "midi",
        "subType": "noteOff",
        "typeByte": 145,
        "deltaTime": 75,
        "channel": 1,
        "note": 30,
        "velocity": 0
      },
      {
        "type": "midi",
        "subType": "noteOn",
        "typeByte": 145,
        "deltaTime": 21,
        "channel": 1,
        "note": 38,
        "velocity": 127
      },
      {
        "type": "midi",
        "subType": "noteOff",
        "typeByte": 145,
        "deltaTime": 30,
        "channel": 1,
        "note": 38,
        "velocity": 0
      },
      {
        "type": "midi",
        "subType": "noteOn",
        "typeByte": 145,
        "deltaTime": 18,
        "channel": 1,
        "note": 38,
        "velocity": 127
      },
      {
        "type": "midi",
        "subType": "noteOff",
        "typeByte": 145,
        "deltaTime": 27,
        "channel": 1,
        "note": 38,
        "velocity": 0
      },
      {
        "type": "midi",
        "subType": "noteOn",
        "typeByte": 145,
        "deltaTime": 21,
        "channel": 1,
        "note": 38,
        "velocity": 127
      },
      {
        "type": "midi",
        "subType": "noteOff",
        "typeByte": 145,
        "deltaTime": 25,
        "channel": 1,
        "note": 38,
        "velocity": 0
      },
      {
        "type": "midi",
        "subType": "noteOn",
        "typeByte": 145,
        "deltaTime": 24,
        "channel": 1,
        "note": 38,
        "velocity": 127
      },
      {
        "type": "midi",
        "subType": "noteOff",
        "typeByte": 145,
        "deltaTime": 24,
        "channel": 1,
        "note": 38,
        "velocity": 0
      },
      {
        "type": "midi",
        "subType": "noteOn",
        "typeByte": 145,
        "deltaTime": 23,
        "channel": 1,
        "note": 38,
        "velocity": 127
      },
      {
        "type": "midi",
        "subType": "noteOff",
        "typeByte": 145,
        "deltaTime": 28,
        "channel": 1,
        "note": 38,
        "velocity": 0
      },
      {
        "type": "midi",
        "subType": "noteOn",
        "typeByte": 145,
        "deltaTime": 21,
        "channel": 1,
        "note": 38,
        "velocity": 127
      },
      {
        "type": "midi",
        "subType": "noteOff",
        "typeByte": 145,
        "deltaTime": 28,
        "channel": 1,
        "note": 38,
        "velocity": 0
      },
      {
        "type": "midi",
        "subType": "noteOn",
        "typeByte": 145,
        "deltaTime": 20,
        "channel": 1,
        "note": 38,
        "velocity": 127
      },
      {
        "type": "midi",
        "subType": "noteOff",
        "typeByte": 145,
        "deltaTime": 25,
        "channel": 1,
        "note": 38,
        "velocity": 0
      },
      {
        "type": "midi",
        "subType": "noteOn",
        "typeByte": 145,
        "deltaTime": 23,
        "channel": 1,
        "note": 38,
        "velocity": 127
      },
      {
        "type": "midi",
        "subType": "noteOff",
        "typeByte": 145,
        "deltaTime": 24,
        "channel": 1,
        "note": 38,
        "velocity": 0
      },
      {
        "type": "midi",
        "subType": "noteOn",
        "typeByte": 145,
        "deltaTime": 25,
        "channel": 1,
        "note": 33,
        "velocity": 127
      },
      {
        "type": "midi",
        "subType": "noteOff",
        "typeByte": 145,
        "deltaTime": 32,
        "channel": 1,
        "note": 33,
        "velocity": 0
      },
      {
        "type": "midi",
        "subType": "noteOn",
        "typeByte": 145,
        "deltaTime": 16,
        "channel": 1,
        "note": 33,
        "velocity": 127
      },
      {
        "type": "midi",
        "subType": "noteOff",
        "typeByte": 145,
        "deltaTime": 30,
        "channel": 1,
        "note": 33,
        "velocity": 0
      },
      {
        "type": "midi",
        "subType": "noteOn",
        "typeByte": 145,
        "deltaTime": 17,
        "channel": 1,
        "note": 33,
        "velocity": 127
      },
      {
        "type": "midi",
        "subType": "noteOff",
        "typeByte": 145,
        "deltaTime": 35,
        "channel": 1,
        "note": 33,
        "velocity": 0
      },
      {
        "type": "midi",
        "subType": "noteOn",
        "typeByte": 145,
        "deltaTime": 206,
        "channel": 1,
        "note": 33,
        "velocity": 127
      },
      {
        "type": "midi",
        "subType": "noteOff",
        "typeByte": 145,
        "deltaTime": 37,
        "channel": 1,
        "note": 33,
        "velocity": 0
      },
      {
        "type": "midi",
        "subType": "noteOn",
        "typeByte": 145,
        "deltaTime": 12,
        "channel": 1,
        "note": 32,
        "velocity": 127
      },
      {
        "type": "midi",
        "subType": "noteOff",
        "typeByte": 145,
        "deltaTime": 31,
        "channel": 1,
        "note": 32,
        "velocity": 0
      },
      {
        "type": "midi",
        "subType": "noteOn",
        "typeByte": 145,
        "deltaTime": 17,
        "channel": 1,
        "note": 32,
        "velocity": 127
      },
      {
        "type": "midi",
        "subType": "noteOff",
        "typeByte": 145,
        "deltaTime": 33,
        "channel": 1,
        "note": 32,
        "velocity": 0
      },
      {
        "type": "midi",
        "subType": "noteOn",
        "typeByte": 145,
        "deltaTime": 14,
        "channel": 1,
        "note": 32,
        "velocity": 127
      },
      {
        "type": "midi",
        "subType": "noteOff",
        "typeByte": 145,
        "deltaTime": 43,
        "channel": 1,
        "note": 32,
        "velocity": 0
      },
      {
        "type": "midi",
        "subType": "noteOn",
        "typeByte": 145,
        "deltaTime": 199,
        "channel": 1,
        "note": 32,
        "velocity": 127
      },
      {
        "type": "midi",
        "subType": "noteOff",
        "typeByte": 145,
        "deltaTime": 30,
        "channel": 1,
        "note": 32,
        "velocity": 0
      },
      {
        "type": "midi",
        "subType": "noteOn",
        "typeByte": 145,
        "deltaTime": 18,
        "channel": 1,
        "note": 30,
        "velocity": 127
      },
      {
        "type": "midi",
        "subType": "noteOff",
        "typeByte": 145,
        "deltaTime": 31,
        "channel": 1,
        "note": 30,
        "velocity": 0
      },
      {
        "type": "midi",
        "subType": "noteOn",
        "typeByte": 145,
        "deltaTime": 17,
        "channel": 1,
        "note": 30,
        "velocity": 127
      },
      {
        "type": "midi",
        "subType": "noteOff",
        "typeByte": 145,
        "deltaTime": 31,
        "channel": 1,
        "note": 30,
        "velocity": 0
      },
      {
        "type": "midi",
        "subType": "noteOn",
        "typeByte": 145,
        "deltaTime": 16,
        "channel": 1,
        "note": 30,
        "velocity": 127
      },
      {
        "type": "midi",
        "subType": "noteOff",
        "typeByte": 145,
        "deltaTime": 39,
        "channel": 1,
        "note": 30,
        "velocity": 0
      },
      {
        "type": "midi",
        "subType": "noteOn",
        "typeByte": 145,
        "deltaTime": 203,
        "channel": 1,
        "note": 38,
        "velocity": 127
      },
      {
        "type": "midi",
        "subType": "noteOff",
        "typeByte": 145,
        "deltaTime": 31,
        "channel": 1,
        "note": 38,
        "velocity": 0
      },
      {
        "type": "midi",
        "subType": "noteOn",
        "typeByte": 145,
        "deltaTime": 16,
        "channel": 1,
        "note": 38,
        "velocity": 127
      },
      {
        "type": "midi",
        "subType": "noteOff",
        "typeByte": 145,
        "deltaTime": 35,
        "channel": 1,
        "note": 38,
        "velocity": 0
      },
      {
        "type": "midi",
        "subType": "noteOn",
        "typeByte": 145,
        "deltaTime": 14,
        "channel": 1,
        "note": 38,
        "velocity": 127
      },
      {
        "type": "midi",
        "subType": "noteOff",
        "typeByte": 145,
        "deltaTime": 30,
        "channel": 1,
        "note": 38,
        "velocity": 0
      },
      {
        "type": "midi",
        "subType": "noteOn",
        "typeByte": 145,
        "deltaTime": 18,
        "channel": 1,
        "note": 38,
        "velocity": 127
      },
      {
        "type": "midi",
        "subType": "noteOff",
        "typeByte": 145,
        "deltaTime": 29,
        "channel": 1,
        "note": 38,
        "velocity": 0
      },
      {
        "type": "midi",
        "subType": "noteOn",
        "typeByte": 145,
        "deltaTime": 20,
        "channel": 1,
        "note": 38,
        "velocity": 127
      },
      {
        "type": "midi",
        "subType": "noteOff",
        "typeByte": 145,
        "deltaTime": 29,
        "channel": 1,
        "note": 38,
        "velocity": 0
      },
      {
        "type": "midi",
        "subType": "noteOn",
        "typeByte": 145,
        "deltaTime": 18,
        "channel": 1,
        "note": 38,
        "velocity": 127
      },
      {
        "type": "midi",
        "subType": "noteOff",
        "typeByte": 145,
        "deltaTime": 28,
        "channel": 1,
        "note": 38,
        "velocity": 0
      },
      {
        "type": "midi",
        "subType": "noteOn",
        "typeByte": 145,
        "deltaTime": 21,
        "channel": 1,
        "note": 42,
        "velocity": 127
      },
      {
        "type": "midi",
        "subType": "noteOff",
        "typeByte": 145,
        "deltaTime": 33,
        "channel": 1,
        "note": 42,
        "velocity": 0
      },
      {
        "type": "midi",
        "subType": "noteOn",
        "typeByte": 145,
        "deltaTime": 15,
        "channel": 1,
        "note": 40,
        "velocity": 127
      },
      {
        "type": "midi",
        "subType": "noteOff",
        "typeByte": 145,
        "deltaTime": 33,
        "channel": 1,
        "note": 40,
        "velocity": 0
      },
      {
        "type": "midi",
        "subType": "noteOn",
        "typeByte": 145,
        "deltaTime": 15,
        "channel": 1,
        "note": 38,
        "velocity": 127
      },
      {
        "type": "midi",
        "subType": "noteOff",
        "typeByte": 145,
        "deltaTime": 34,
        "channel": 1,
        "note": 38,
        "velocity": 0
      },
      {
        "type": "midi",
        "subType": "noteOn",
        "typeByte": 145,
        "deltaTime": 16,
        "channel": 1,
        "note": 33,
        "velocity": 127
      },
      {
        "type": "midi",
        "subType": "noteOff",
        "typeByte": 145,
        "deltaTime": 57,
        "channel": 1,
        "note": 33,
        "velocity": 0
      },
      {
        "type": "midi",
        "subType": "noteOn",
        "typeByte": 145,
        "deltaTime": 37,
        "channel": 1,
        "note": 33,
        "velocity": 127
      },
      {
        "type": "midi",
        "subType": "noteOff",
        "typeByte": 145,
        "deltaTime": 65,
        "channel": 1,
        "note": 33,
        "velocity": 0
      },
      {
        "type": "midi",
        "subType": "noteOn",
        "typeByte": 145,
        "deltaTime": 32,
        "channel": 1,
        "note": 33,
        "velocity": 127
      },
      {
        "type": "midi",
        "subType": "noteOff",
        "typeByte": 145,
        "deltaTime": 52,
        "channel": 1,
        "note": 33,
        "velocity": 0
      },
      {
        "type": "midi",
        "subType": "noteOn",
        "typeByte": 145,
        "deltaTime": 44,
        "channel": 1,
        "note": 33,
        "velocity": 127
      },
      {
        "type": "midi",
        "subType": "noteOff",
        "typeByte": 145,
        "deltaTime": 71,
        "channel": 1,
        "note": 33,
        "velocity": 0
      },
      {
        "type": "midi",
        "subType": "noteOn",
        "typeByte": 145,
        "deltaTime": 25,
        "channel": 1,
        "note": 32,
        "velocity": 127
      },
      {
        "type": "midi",
        "subType": "noteOff",
        "typeByte": 145,
        "deltaTime": 73,
        "channel": 1,
        "note": 32,
        "velocity": 0
      },
      {
        "type": "midi",
        "subType": "noteOn",
        "typeByte": 145,
        "deltaTime": 23,
        "channel": 1,
        "note": 32,
        "velocity": 127
      },
      {
        "type": "midi",
        "subType": "noteOff",
        "typeByte": 145,
        "deltaTime": 69,
        "channel": 1,
        "note": 32,
        "velocity": 0
      },
      {
        "type": "midi",
        "subType": "noteOn",
        "typeByte": 145,
        "deltaTime": 28,
        "channel": 1,
        "note": 32,
        "velocity": 127
      },
      {
        "type": "midi",
        "subType": "noteOff",
        "typeByte": 145,
        "deltaTime": 76,
        "channel": 1,
        "note": 32,
        "velocity": 0
      },
      {
        "type": "midi",
        "subType": "noteOn",
        "typeByte": 145,
        "deltaTime": 20,
        "channel": 1,
        "note": 32,
        "velocity": 127
      },
      {
        "type": "midi",
        "subType": "noteOff",
        "typeByte": 145,
        "deltaTime": 73,
        "channel": 1,
        "note": 32,
        "velocity": 0
      },
      {
        "type": "midi",
        "subType": "noteOn",
        "typeByte": 145,
        "deltaTime": 23,
        "channel": 1,
        "note": 38,
        "velocity": 127
      },
      {
        "type": "midi",
        "subType": "noteOff",
        "typeByte": 145,
        "deltaTime": 33,
        "channel": 1,
        "note": 38,
        "velocity": 0
      },
      {
        "type": "midi",
        "subType": "noteOn",
        "typeByte": 145,
        "deltaTime": 16,
        "channel": 1,
        "note": 38,
        "velocity": 127
      },
      {
        "type": "midi",
        "subType": "noteOff",
        "typeByte": 145,
        "deltaTime": 26,
        "channel": 1,
        "note": 38,
        "velocity": 0
      },
      {
        "type": "midi",
        "subType": "noteOn",
        "typeByte": 145,
        "deltaTime": 21,
        "channel": 1,
        "note": 38,
        "velocity": 127
      },
      {
        "type": "midi",
        "subType": "noteOff",
        "typeByte": 145,
        "deltaTime": 27,
        "channel": 1,
        "note": 38,
        "velocity": 0
      },
      {
        "type": "midi",
        "subType": "noteOn",
        "typeByte": 145,
        "deltaTime": 22,
        "channel": 1,
        "note": 38,
        "velocity": 127
      },
      {
        "type": "midi",
        "subType": "noteOff",
        "typeByte": 145,
        "deltaTime": 27,
        "channel": 1,
        "note": 38,
        "velocity": 0
      },
      {
        "type": "midi",
        "subType": "noteOn",
        "typeByte": 145,
        "deltaTime": 21,
        "channel": 1,
        "note": 38,
        "velocity": 127
      },
      {
        "type": "midi",
        "subType": "noteOff",
        "typeByte": 145,
        "deltaTime": 29,
        "channel": 1,
        "note": 38,
        "velocity": 0
      },
      {
        "type": "midi",
        "subType": "noteOn",
        "typeByte": 145,
        "deltaTime": 20,
        "channel": 1,
        "note": 38,
        "velocity": 127
      },
      {
        "type": "midi",
        "subType": "noteOff",
        "typeByte": 145,
        "deltaTime": 26,
        "channel": 1,
        "note": 38,
        "velocity": 0
      },
      {
        "type": "midi",
        "subType": "noteOn",
        "typeByte": 145,
        "deltaTime": 21,
        "channel": 1,
        "note": 38,
        "velocity": 127
      },
      {
        "type": "midi",
        "subType": "noteOff",
        "typeByte": 145,
        "deltaTime": 27,
        "channel": 1,
        "note": 38,
        "velocity": 0
      },
      {
        "type": "midi",
        "subType": "noteOn",
        "typeByte": 145,
        "deltaTime": 22,
        "channel": 1,
        "note": 38,
        "velocity": 127
      },
      {
        "type": "midi",
        "subType": "noteOff",
        "typeByte": 145,
        "deltaTime": 30,
        "channel": 1,
        "note": 38,
        "velocity": 0
      },
      {
        "type": "midi",
        "subType": "noteOn",
        "typeByte": 145,
        "deltaTime": 18,
        "channel": 1,
        "note": 40,
        "velocity": 127
      },
      {
        "type": "midi",
        "subType": "noteOff",
        "typeByte": 145,
        "deltaTime": 33,
        "channel": 1,
        "note": 40,
        "velocity": 0
      },
      {
        "type": "midi",
        "subType": "noteOn",
        "typeByte": 145,
        "deltaTime": 15,
        "channel": 1,
        "note": 40,
        "velocity": 127
      },
      {
        "type": "midi",
        "subType": "noteOff",
        "typeByte": 145,
        "deltaTime": 23,
        "channel": 1,
        "note": 40,
        "velocity": 0
      },
      {
        "type": "midi",
        "subType": "noteOn",
        "typeByte": 145,
        "deltaTime": 25,
        "channel": 1,
        "note": 40,
        "velocity": 127
      },
      {
        "type": "midi",
        "subType": "noteOff",
        "typeByte": 145,
        "deltaTime": 27,
        "channel": 1,
        "note": 40,
        "velocity": 0
      },
      {
        "type": "midi",
        "subType": "noteOn",
        "typeByte": 145,
        "deltaTime": 21,
        "channel": 1,
        "note": 40,
        "velocity": 127
      },
      {
        "type": "midi",
        "subType": "noteOff",
        "typeByte": 145,
        "deltaTime": 27,
        "channel": 1,
        "note": 40,
        "velocity": 0
      },
      {
        "type": "midi",
        "subType": "noteOn",
        "typeByte": 145,
        "deltaTime": 21,
        "channel": 1,
        "note": 40,
        "velocity": 127
      },
      {
        "type": "midi",
        "subType": "noteOff",
        "typeByte": 145,
        "deltaTime": 33,
        "channel": 1,
        "note": 40,
        "velocity": 0
      },
      {
        "type": "midi",
        "subType": "noteOn",
        "typeByte": 145,
        "deltaTime": 16,
        "channel": 1,
        "note": 40,
        "velocity": 127
      },
      {
        "type": "midi",
        "subType": "noteOff",
        "typeByte": 145,
        "deltaTime": 33,
        "channel": 1,
        "note": 40,
        "velocity": 0
      },
      {
        "type": "midi",
        "subType": "noteOn",
        "typeByte": 145,
        "deltaTime": 14,
        "channel": 1,
        "note": 40,
        "velocity": 127
      },
      {
        "type": "midi",
        "subType": "noteOff",
        "typeByte": 145,
        "deltaTime": 31,
        "channel": 1,
        "note": 40,
        "velocity": 0
      },
      {
        "type": "midi",
        "subType": "noteOn",
        "typeByte": 145,
        "deltaTime": 18,
        "channel": 1,
        "note": 40,
        "velocity": 127
      },
      {
        "type": "midi",
        "subType": "noteOff",
        "typeByte": 145,
        "deltaTime": 26,
        "channel": 1,
        "note": 40,
        "velocity": 0
      },
      {
        "type": "midi",
        "subType": "noteOn",
        "typeByte": 145,
        "deltaTime": 22,
        "channel": 1,
        "note": 37,
        "velocity": 127
      },
      {
        "type": "midi",
        "subType": "noteOff",
        "typeByte": 145,
        "deltaTime": 31,
        "channel": 1,
        "note": 37,
        "velocity": 0
      },
      {
        "type": "midi",
        "subType": "noteOn",
        "typeByte": 145,
        "deltaTime": 162,
        "channel": 1,
        "note": 25,
        "velocity": 127
      },
      {
        "type": "midi",
        "subType": "noteOff",
        "typeByte": 145,
        "deltaTime": 31,
        "channel": 1,
        "note": 25,
        "velocity": 0
      },
      {
        "type": "midi",
        "subType": "noteOn",
        "typeByte": 145,
        "deltaTime": 65,
        "channel": 1,
        "note": 32,
        "velocity": 127
      },
      {
        "type": "midi",
        "subType": "noteOff",
        "typeByte": 145,
        "deltaTime": 29,
        "channel": 1,
        "note": 32,
        "velocity": 0
      },
      {
        "type": "midi",
        "subType": "noteOn",
        "typeByte": 145,
        "deltaTime": 19,
        "channel": 1,
        "note": 25,
        "velocity": 127
      },
      {
        "type": "midi",
        "subType": "noteOff",
        "typeByte": 145,
        "deltaTime": 21,
        "channel": 1,
        "note": 25,
        "velocity": 0
      },
      {
        "type": "midi",
        "subType": "noteOn",
        "typeByte": 145,
        "deltaTime": 27,
        "channel": 1,
        "note": 37,
        "velocity": 127
      },
      {
        "type": "midi",
        "subType": "noteOff",
        "typeByte": 145,
        "deltaTime": 29,
        "channel": 1,
        "note": 37,
        "velocity": 0
      },
      {
        "type": "midi",
        "subType": "noteOn",
        "typeByte": 145,
        "deltaTime": 19,
        "channel": 1,
        "note": 37,
        "velocity": 127
      },
      {
        "type": "midi",
        "subType": "noteOff",
        "typeByte": 145,
        "deltaTime": 27,
        "channel": 1,
        "note": 37,
        "velocity": 0
      },
      {
        "type": "midi",
        "subType": "noteOn",
        "typeByte": 145,
        "deltaTime": 70,
        "channel": 1,
        "note": 25,
        "velocity": 127
      },
      {
        "type": "midi",
        "subType": "noteOff",
        "typeByte": 145,
        "deltaTime": 29,
        "channel": 1,
        "note": 25,
        "velocity": 0
      },
      {
        "type": "midi",
        "subType": "noteOn",
        "typeByte": 145,
        "deltaTime": 115,
        "channel": 1,
        "note": 37,
        "velocity": 127
      },
      {
        "type": "midi",
        "subType": "noteOff",
        "typeByte": 145,
        "deltaTime": 30,
        "channel": 1,
        "note": 37,
        "velocity": 0
      },
      {
        "type": "midi",
        "subType": "noteOn",
        "typeByte": 145,
        "deltaTime": 18,
        "channel": 1,
        "note": 25,
        "velocity": 127
      },
      {
        "type": "midi",
        "subType": "noteOff",
        "typeByte": 145,
        "deltaTime": 20,
        "channel": 1,
        "note": 25,
        "velocity": 0
      },
      {
        "type": "midi",
        "subType": "noteOn",
        "typeByte": 145,
        "deltaTime": 28,
        "channel": 1,
        "note": 43,
        "velocity": 127
      },
      {
        "type": "midi",
        "subType": "noteOff",
        "typeByte": 145,
        "deltaTime": 32,
        "channel": 1,
        "note": 43,
        "velocity": 0
      },
      {
        "type": "midi",
        "subType": "noteOn",
        "typeByte": 145,
        "deltaTime": 161,
        "channel": 1,
        "note": 31,
        "velocity": 127
      },
      {
        "type": "midi",
        "subType": "noteOff",
        "typeByte": 145,
        "deltaTime": 31,
        "channel": 1,
        "note": 31,
        "velocity": 0
      },
      {
        "type": "midi",
        "subType": "noteOn",
        "typeByte": 145,
        "deltaTime": 65,
        "channel": 1,
        "note": 38,
        "velocity": 127
      },
      {
        "type": "midi",
        "subType": "noteOff",
        "typeByte": 145,
        "deltaTime": 29,
        "channel": 1,
        "note": 38,
        "velocity": 0
      },
      {
        "type": "midi",
        "subType": "noteOn",
        "typeByte": 145,
        "deltaTime": 19,
        "channel": 1,
        "note": 31,
        "velocity": 127
      },
      {
        "type": "midi",
        "subType": "noteOff",
        "typeByte": 145,
        "deltaTime": 22,
        "channel": 1,
        "note": 31,
        "velocity": 0
      },
      {
        "type": "midi",
        "subType": "noteOn",
        "typeByte": 145,
        "deltaTime": 26,
        "channel": 1,
        "note": 43,
        "velocity": 127
      },
      {
        "type": "midi",
        "subType": "noteOff",
        "typeByte": 145,
        "deltaTime": 29,
        "channel": 1,
        "note": 43,
        "velocity": 0
      },
      {
        "type": "midi",
        "subType": "noteOn",
        "typeByte": 145,
        "deltaTime": 20,
        "channel": 1,
        "note": 43,
        "velocity": 127
      },
      {
        "type": "midi",
        "subType": "noteOff",
        "typeByte": 145,
        "deltaTime": 26,
        "channel": 1,
        "note": 43,
        "velocity": 0
      },
      {
        "type": "midi",
        "subType": "noteOn",
        "typeByte": 145,
        "deltaTime": 70,
        "channel": 1,
        "note": 31,
        "velocity": 127
      },
      {
        "type": "midi",
        "subType": "noteOff",
        "typeByte": 145,
        "deltaTime": 29,
        "channel": 1,
        "note": 31,
        "velocity": 0
      },
      {
        "type": "midi",
        "subType": "noteOn",
        "typeByte": 145,
        "deltaTime": 115,
        "channel": 1,
        "note": 43,
        "velocity": 127
      },
      {
        "type": "midi",
        "subType": "noteOff",
        "typeByte": 145,
        "deltaTime": 30,
        "channel": 1,
        "note": 43,
        "velocity": 0
      },
      {
        "type": "midi",
        "subType": "noteOn",
        "typeByte": 145,
        "deltaTime": 19,
        "channel": 1,
        "note": 31,
        "velocity": 127
      },
      {
        "type": "midi",
        "subType": "noteOff",
        "typeByte": 145,
        "deltaTime": 19,
        "channel": 1,
        "note": 31,
        "velocity": 0
      },
      {
        "type": "midi",
        "subType": "noteOn",
        "typeByte": 145,
        "deltaTime": 29,
        "channel": 1,
        "note": 37,
        "velocity": 127
      },
      {
        "type": "midi",
        "subType": "noteOff",
        "typeByte": 145,
        "deltaTime": 31,
        "channel": 1,
        "note": 37,
        "velocity": 0
      },
      {
        "type": "midi",
        "subType": "noteOn",
        "typeByte": 145,
        "deltaTime": 162,
        "channel": 1,
        "note": 25,
        "velocity": 127
      },
      {
        "type": "midi",
        "subType": "noteOff",
        "typeByte": 145,
        "deltaTime": 31,
        "channel": 1,
        "note": 25,
        "velocity": 0
      },
      {
        "type": "midi",
        "subType": "noteOn",
        "typeByte": 145,
        "deltaTime": 65,
        "channel": 1,
        "note": 32,
        "velocity": 127
      },
      {
        "type": "midi",
        "subType": "noteOff",
        "typeByte": 145,
        "deltaTime": 28,
        "channel": 1,
        "note": 32,
        "velocity": 0
      },
      {
        "type": "midi",
        "subType": "noteOn",
        "typeByte": 145,
        "deltaTime": 20,
        "channel": 1,
        "note": 25,
        "velocity": 127
      },
      {
        "type": "midi",
        "subType": "noteOff",
        "typeByte": 145,
        "deltaTime": 21,
        "channel": 1,
        "note": 25,
        "velocity": 0
      },
      {
        "type": "midi",
        "subType": "noteOn",
        "typeByte": 145,
        "deltaTime": 27,
        "channel": 1,
        "note": 37,
        "velocity": 127
      },
      {
        "type": "midi",
        "subType": "noteOff",
        "typeByte": 145,
        "deltaTime": 29,
        "channel": 1,
        "note": 37,
        "velocity": 0
      },
      {
        "type": "midi",
        "subType": "noteOn",
        "typeByte": 145,
        "deltaTime": 19,
        "channel": 1,
        "note": 37,
        "velocity": 127
      },
      {
        "type": "midi",
        "subType": "noteOff",
        "typeByte": 145,
        "deltaTime": 27,
        "channel": 1,
        "note": 37,
        "velocity": 0
      },
      {
        "type": "midi",
        "subType": "noteOn",
        "typeByte": 145,
        "deltaTime": 70,
        "channel": 1,
        "note": 25,
        "velocity": 127
      },
      {
        "type": "midi",
        "subType": "noteOff",
        "typeByte": 145,
        "deltaTime": 29,
        "channel": 1,
        "note": 25,
        "velocity": 0
      },
      {
        "type": "midi",
        "subType": "noteOn",
        "typeByte": 145,
        "deltaTime": 115,
        "channel": 1,
        "note": 37,
        "velocity": 127
      },
      {
        "type": "midi",
        "subType": "noteOff",
        "typeByte": 145,
        "deltaTime": 30,
        "channel": 1,
        "note": 37,
        "velocity": 0
      },
      {
        "type": "midi",
        "subType": "noteOn",
        "typeByte": 145,
        "deltaTime": 18,
        "channel": 1,
        "note": 25,
        "velocity": 127
      },
      {
        "type": "midi",
        "subType": "noteOff",
        "typeByte": 145,
        "deltaTime": 20,
        "channel": 1,
        "note": 25,
        "velocity": 0
      },
      {
        "type": "midi",
        "subType": "noteOn",
        "typeByte": 145,
        "deltaTime": 30,
        "channel": 1,
        "note": 43,
        "velocity": 127
      },
      {
        "type": "midi",
        "subType": "noteOff",
        "typeByte": 145,
        "deltaTime": 29,
        "channel": 1,
        "note": 43,
        "velocity": 0
      },
      {
        "type": "midi",
        "subType": "noteOn",
        "typeByte": 145,
        "deltaTime": 162,
        "channel": 1,
        "note": 31,
        "velocity": 127
      },
      {
        "type": "midi",
        "subType": "noteOff",
        "typeByte": 145,
        "deltaTime": 31,
        "channel": 1,
        "note": 31,
        "velocity": 0
      },
      {
        "type": "midi",
        "subType": "noteOn",
        "typeByte": 145,
        "deltaTime": 65,
        "channel": 1,
        "note": 38,
        "velocity": 127
      },
      {
        "type": "midi",
        "subType": "noteOff",
        "typeByte": 145,
        "deltaTime": 29,
        "channel": 1,
        "note": 38,
        "velocity": 0
      },
      {
        "type": "midi",
        "subType": "noteOn",
        "typeByte": 145,
        "deltaTime": 20,
        "channel": 1,
        "note": 31,
        "velocity": 127
      },
      {
        "type": "midi",
        "subType": "noteOff",
        "typeByte": 145,
        "deltaTime": 20,
        "channel": 1,
        "note": 31,
        "velocity": 0
      },
      {
        "type": "midi",
        "subType": "noteOn",
        "typeByte": 145,
        "deltaTime": 27,
        "channel": 1,
        "note": 43,
        "velocity": 127
      },
      {
        "type": "midi",
        "subType": "noteOff",
        "typeByte": 145,
        "deltaTime": 29,
        "channel": 1,
        "note": 43,
        "velocity": 0
      },
      {
        "type": "midi",
        "subType": "noteOn",
        "typeByte": 145,
        "deltaTime": 20,
        "channel": 1,
        "note": 43,
        "velocity": 127
      },
      {
        "type": "midi",
        "subType": "noteOff",
        "typeByte": 145,
        "deltaTime": 26,
        "channel": 1,
        "note": 43,
        "velocity": 0
      },
      {
        "type": "midi",
        "subType": "noteOn",
        "typeByte": 145,
        "deltaTime": 70,
        "channel": 1,
        "note": 31,
        "velocity": 127
      },
      {
        "type": "midi",
        "subType": "noteOff",
        "typeByte": 145,
        "deltaTime": 29,
        "channel": 1,
        "note": 31,
        "velocity": 0
      },
      {
        "type": "midi",
        "subType": "noteOn",
        "typeByte": 145,
        "deltaTime": 115,
        "channel": 1,
        "note": 43,
        "velocity": 127
      },
      {
        "type": "midi",
        "subType": "noteOff",
        "typeByte": 145,
        "deltaTime": 30,
        "channel": 1,
        "note": 43,
        "velocity": 0
      },
      {
        "type": "midi",
        "subType": "noteOn",
        "typeByte": 145,
        "deltaTime": 18,
        "channel": 1,
        "note": 31,
        "velocity": 127
      },
      {
        "type": "midi",
        "subType": "noteOff",
        "typeByte": 145,
        "deltaTime": 20,
        "channel": 1,
        "note": 31,
        "velocity": 0
      },
      {
        "type": "midi",
        "subType": "noteOn",
        "typeByte": 145,
        "deltaTime": 31,
        "channel": 1,
        "note": 47,
        "velocity": 127
      },
      {
        "type": "midi",
        "subType": "noteOff",
        "typeByte": 145,
        "deltaTime": 29,
        "channel": 1,
        "note": 47,
        "velocity": 0
      },
      {
        "type": "midi",
        "subType": "noteOn",
        "typeByte": 145,
        "deltaTime": 161,
        "channel": 1,
        "note": 35,
        "velocity": 127
      },
      {
        "type": "midi",
        "subType": "noteOff",
        "typeByte": 145,
        "deltaTime": 31,
        "channel": 1,
        "note": 35,
        "velocity": 0
      },
      {
        "type": "midi",
        "subType": "noteOn",
        "typeByte": 145,
        "deltaTime": 65,
        "channel": 1,
        "note": 42,
        "velocity": 127
      },
      {
        "type": "midi",
        "subType": "noteOff",
        "typeByte": 145,
        "deltaTime": 29,
        "channel": 1,
        "note": 42,
        "velocity": 0
      },
      {
        "type": "midi",
        "subType": "noteOn",
        "typeByte": 145,
        "deltaTime": 20,
        "channel": 1,
        "note": 35,
        "velocity": 127
      },
      {
        "type": "midi",
        "subType": "noteOff",
        "typeByte": 145,
        "deltaTime": 21,
        "channel": 1,
        "note": 35,
        "velocity": 0
      },
      {
        "type": "midi",
        "subType": "noteOn",
        "typeByte": 145,
        "deltaTime": 26,
        "channel": 1,
        "note": 47,
        "velocity": 127
      },
      {
        "type": "midi",
        "subType": "noteOff",
        "typeByte": 145,
        "deltaTime": 29,
        "channel": 1,
        "note": 47,
        "velocity": 0
      },
      {
        "type": "midi",
        "subType": "noteOn",
        "typeByte": 145,
        "deltaTime": 20,
        "channel": 1,
        "note": 47,
        "velocity": 127
      },
      {
        "type": "midi",
        "subType": "noteOff",
        "typeByte": 145,
        "deltaTime": 28,
        "channel": 1,
        "note": 47,
        "velocity": 0
      },
      {
        "type": "midi",
        "subType": "noteOn",
        "typeByte": 145,
        "deltaTime": 68,
        "channel": 1,
        "note": 35,
        "velocity": 127
      },
      {
        "type": "midi",
        "subType": "noteOff",
        "typeByte": 145,
        "deltaTime": 29,
        "channel": 1,
        "note": 35,
        "velocity": 0
      },
      {
        "type": "midi",
        "subType": "noteOn",
        "typeByte": 145,
        "deltaTime": 115,
        "channel": 1,
        "note": 47,
        "velocity": 127
      },
      {
        "type": "midi",
        "subType": "noteOff",
        "typeByte": 145,
        "deltaTime": 31,
        "channel": 1,
        "note": 47,
        "velocity": 0
      },
      {
        "type": "midi",
        "subType": "noteOn",
        "typeByte": 145,
        "deltaTime": 18,
        "channel": 1,
        "note": 35,
        "velocity": 127
      },
      {
        "type": "midi",
        "subType": "noteOff",
        "typeByte": 145,
        "deltaTime": 20,
        "channel": 1,
        "note": 35,
        "velocity": 0
      },
      {
        "type": "midi",
        "subType": "noteOn",
        "typeByte": 145,
        "deltaTime": 30,
        "channel": 1,
        "note": 40,
        "velocity": 127
      },
      {
        "type": "midi",
        "subType": "noteOff",
        "typeByte": 145,
        "deltaTime": 29,
        "channel": 1,
        "note": 40,
        "velocity": 0
      },
      {
        "type": "midi",
        "subType": "noteOn",
        "typeByte": 145,
        "deltaTime": 162,
        "channel": 1,
        "note": 28,
        "velocity": 127
      },
      {
        "type": "midi",
        "subType": "noteOff",
        "typeByte": 145,
        "deltaTime": 31,
        "channel": 1,
        "note": 28,
        "velocity": 0
      },
      {
        "type": "midi",
        "subType": "noteOn",
        "typeByte": 145,
        "deltaTime": 65,
        "channel": 1,
        "note": 35,
        "velocity": 127
      },
      {
        "type": "midi",
        "subType": "noteOff",
        "typeByte": 145,
        "deltaTime": 28,
        "channel": 1,
        "note": 35,
        "velocity": 0
      },
      {
        "type": "midi",
        "subType": "noteOn",
        "typeByte": 145,
        "deltaTime": 20,
        "channel": 1,
        "note": 28,
        "velocity": 127
      },
      {
        "type": "midi",
        "subType": "noteOff",
        "typeByte": 145,
        "deltaTime": 21,
        "channel": 1,
        "note": 28,
        "velocity": 0
      },
      {
        "type": "midi",
        "subType": "noteOn",
        "typeByte": 145,
        "deltaTime": 27,
        "channel": 1,
        "note": 40,
        "velocity": 127
      },
      {
        "type": "midi",
        "subType": "noteOff",
        "typeByte": 145,
        "deltaTime": 19,
        "channel": 1,
        "note": 40,
        "velocity": 0
      },
      {
        "type": "midi",
        "subType": "noteOn",
        "typeByte": 145,
        "deltaTime": 29,
        "channel": 1,
        "note": 40,
        "velocity": 127
      },
      {
        "type": "midi",
        "subType": "noteOff",
        "typeByte": 145,
        "deltaTime": 20,
        "channel": 1,
        "note": 40,
        "velocity": 0
      },
      {
        "type": "midi",
        "subType": "noteOn",
        "typeByte": 145,
        "deltaTime": 28,
        "channel": 1,
        "note": 28,
        "velocity": 127
      },
      {
        "type": "midi",
        "subType": "noteOff",
        "typeByte": 145,
        "deltaTime": 64,
        "channel": 1,
        "note": 28,
        "velocity": 0
      },
      {
        "type": "midi",
        "subType": "noteOn",
        "typeByte": 145,
        "deltaTime": 33,
        "channel": 1,
        "note": 28,
        "velocity": 127
      },
      {
        "type": "midi",
        "subType": "noteOff",
        "typeByte": 145,
        "deltaTime": 64,
        "channel": 1,
        "note": 28,
        "velocity": 0
      },
      {
        "type": "midi",
        "subType": "noteOn",
        "typeByte": 145,
        "deltaTime": 32,
        "channel": 1,
        "note": 28,
        "velocity": 127
      },
      {
        "type": "midi",
        "subType": "noteOff",
        "typeByte": 145,
        "deltaTime": 64,
        "channel": 1,
        "note": 28,
        "velocity": 0
      },
      {
        "type": "midi",
        "subType": "noteOn",
        "typeByte": 145,
        "deltaTime": 1574,
        "channel": 1,
        "note": 35,
        "velocity": 127
      },
      {
        "type": "midi",
        "subType": "noteOff",
        "typeByte": 145,
        "deltaTime": 32,
        "channel": 1,
        "note": 35,
        "velocity": 0
      },
      {
        "type": "midi",
        "subType": "noteOn",
        "typeByte": 145,
        "deltaTime": 16,
        "channel": 1,
        "note": 35,
        "velocity": 127
      },
      {
        "type": "midi",
        "subType": "noteOff",
        "typeByte": 145,
        "deltaTime": 31,
        "channel": 1,
        "note": 35,
        "velocity": 0
      },
      {
        "type": "midi",
        "subType": "noteOn",
        "typeByte": 145,
        "deltaTime": 17,
        "channel": 1,
        "note": 35,
        "velocity": 127
      },
      {
        "type": "midi",
        "subType": "noteOff",
        "typeByte": 145,
        "deltaTime": 31,
        "channel": 1,
        "note": 35,
        "velocity": 0
      },
      {
        "type": "midi",
        "subType": "noteOn",
        "typeByte": 145,
        "deltaTime": 210,
        "channel": 1,
        "note": 40,
        "velocity": 127
      },
      {
        "type": "midi",
        "subType": "noteOff",
        "typeByte": 145,
        "deltaTime": 34,
        "channel": 1,
        "note": 40,
        "velocity": 0
      },
      {
        "type": "midi",
        "subType": "noteOn",
        "typeByte": 145,
        "deltaTime": 62,
        "channel": 1,
        "note": 40,
        "velocity": 127
      },
      {
        "type": "midi",
        "subType": "noteOff",
        "typeByte": 145,
        "deltaTime": 34,
        "channel": 1,
        "note": 40,
        "velocity": 0
      },
      {
        "type": "midi",
        "subType": "noteOn",
        "typeByte": 145,
        "deltaTime": 62,
        "channel": 1,
        "note": 40,
        "velocity": 127
      },
      {
        "type": "midi",
        "subType": "noteOff",
        "typeByte": 145,
        "deltaTime": 27,
        "channel": 1,
        "note": 40,
        "velocity": 0
      },
      {
        "type": "midi",
        "subType": "noteOn",
        "typeByte": 145,
        "deltaTime": 22,
        "channel": 1,
        "note": 40,
        "velocity": 127
      },
      {
        "type": "midi",
        "subType": "noteOff",
        "typeByte": 145,
        "deltaTime": 129,
        "channel": 1,
        "note": 40,
        "velocity": 0
      },
      {
        "type": "midi",
        "subType": "noteOn",
        "typeByte": 145,
        "deltaTime": 64,
        "channel": 1,
        "note": 33,
        "velocity": 127
      },
      {
        "type": "midi",
        "subType": "noteOff",
        "typeByte": 145,
        "deltaTime": 32,
        "channel": 1,
        "note": 33,
        "velocity": 0
      },
      {
        "type": "midi",
        "subType": "noteOn",
        "typeByte": 145,
        "deltaTime": 15,
        "channel": 1,
        "note": 33,
        "velocity": 127
      },
      {
        "type": "midi",
        "subType": "noteOff",
        "typeByte": 145,
        "deltaTime": 33,
        "channel": 1,
        "note": 33,
        "velocity": 0
      },
      {
        "type": "midi",
        "subType": "noteOn",
        "typeByte": 145,
        "deltaTime": 15,
        "channel": 1,
        "note": 33,
        "velocity": 127
      },
      {
        "type": "midi",
        "subType": "noteOff",
        "typeByte": 145,
        "deltaTime": 34,
        "channel": 1,
        "note": 33,
        "velocity": 0
      },
      {
        "type": "midi",
        "subType": "noteOn",
        "typeByte": 145,
        "deltaTime": 207,
        "channel": 1,
        "note": 38,
        "velocity": 127
      },
      {
        "type": "midi",
        "subType": "noteOff",
        "typeByte": 145,
        "deltaTime": 34,
        "channel": 1,
        "note": 38,
        "velocity": 0
      },
      {
        "type": "midi",
        "subType": "noteOn",
        "typeByte": 145,
        "deltaTime": 62,
        "channel": 1,
        "note": 38,
        "velocity": 127
      },
      {
        "type": "midi",
        "subType": "noteOff",
        "typeByte": 145,
        "deltaTime": 34,
        "channel": 1,
        "note": 38,
        "velocity": 0
      },
      {
        "type": "midi",
        "subType": "noteOn",
        "typeByte": 145,
        "deltaTime": 62,
        "channel": 1,
        "note": 38,
        "velocity": 127
      },
      {
        "type": "midi",
        "subType": "noteOff",
        "typeByte": 145,
        "deltaTime": 32,
        "channel": 1,
        "note": 38,
        "velocity": 0
      },
      {
        "type": "midi",
        "subType": "noteOn",
        "typeByte": 145,
        "deltaTime": 17,
        "channel": 1,
        "note": 37,
        "velocity": 127
      },
      {
        "type": "midi",
        "subType": "noteOff",
        "typeByte": 145,
        "deltaTime": 148,
        "channel": 1,
        "note": 37,
        "velocity": 0
      },
      {
        "type": "midi",
        "subType": "noteOn",
        "typeByte": 145,
        "deltaTime": 45,
        "channel": 1,
        "note": 35,
        "velocity": 127
      },
      {
        "type": "midi",
        "subType": "noteOff",
        "typeByte": 145,
        "deltaTime": 33,
        "channel": 1,
        "note": 35,
        "velocity": 0
      },
      {
        "type": "midi",
        "subType": "noteOn",
        "typeByte": 145,
        "deltaTime": 14,
        "channel": 1,
        "note": 35,
        "velocity": 127
      },
      {
        "type": "midi",
        "subType": "noteOff",
        "typeByte": 145,
        "deltaTime": 32,
        "channel": 1,
        "note": 35,
        "velocity": 0
      },
      {
        "type": "midi",
        "subType": "noteOn",
        "typeByte": 145,
        "deltaTime": 16,
        "channel": 1,
        "note": 35,
        "velocity": 127
      },
      {
        "type": "midi",
        "subType": "noteOff",
        "typeByte": 145,
        "deltaTime": 31,
        "channel": 1,
        "note": 35,
        "velocity": 0
      },
      {
        "type": "midi",
        "subType": "noteOn",
        "typeByte": 145,
        "deltaTime": 210,
        "channel": 1,
        "note": 40,
        "velocity": 127
      },
      {
        "type": "midi",
        "subType": "noteOff",
        "typeByte": 145,
        "deltaTime": 34,
        "channel": 1,
        "note": 40,
        "velocity": 0
      },
      {
        "type": "midi",
        "subType": "noteOn",
        "typeByte": 145,
        "deltaTime": 63,
        "channel": 1,
        "note": 40,
        "velocity": 127
      },
      {
        "type": "midi",
        "subType": "noteOff",
        "typeByte": 145,
        "deltaTime": 34,
        "channel": 1,
        "note": 40,
        "velocity": 0
      },
      {
        "type": "midi",
        "subType": "noteOn",
        "typeByte": 145,
        "deltaTime": 62,
        "channel": 1,
        "note": 40,
        "velocity": 127
      },
      {
        "type": "midi",
        "subType": "noteOff",
        "typeByte": 145,
        "deltaTime": 27,
        "channel": 1,
        "note": 40,
        "velocity": 0
      },
      {
        "type": "midi",
        "subType": "noteOn",
        "typeByte": 145,
        "deltaTime": 21,
        "channel": 1,
        "note": 40,
        "velocity": 127
      },
      {
        "type": "midi",
        "subType": "noteOff",
        "typeByte": 145,
        "deltaTime": 130,
        "channel": 1,
        "note": 40,
        "velocity": 0
      },
      {
        "type": "midi",
        "subType": "noteOn",
        "typeByte": 145,
        "deltaTime": 63,
        "channel": 1,
        "note": 33,
        "velocity": 127
      },
      {
        "type": "midi",
        "subType": "noteOff",
        "typeByte": 145,
        "deltaTime": 34,
        "channel": 1,
        "note": 33,
        "velocity": 0
      },
      {
        "type": "midi",
        "subType": "noteOn",
        "typeByte": 145,
        "deltaTime": 14,
        "channel": 1,
        "note": 33,
        "velocity": 127
      },
      {
        "type": "midi",
        "subType": "noteOff",
        "typeByte": 145,
        "deltaTime": 33,
        "channel": 1,
        "note": 33,
        "velocity": 0
      },
      {
        "type": "midi",
        "subType": "noteOn",
        "typeByte": 145,
        "deltaTime": 14,
        "channel": 1,
        "note": 33,
        "velocity": 127
      },
      {
        "type": "midi",
        "subType": "noteOff",
        "typeByte": 145,
        "deltaTime": 34,
        "channel": 1,
        "note": 33,
        "velocity": 0
      },
      {
        "type": "midi",
        "subType": "noteOn",
        "typeByte": 145,
        "deltaTime": 208,
        "channel": 1,
        "note": 38,
        "velocity": 127
      },
      {
        "type": "midi",
        "subType": "noteOff",
        "typeByte": 145,
        "deltaTime": 35,
        "channel": 1,
        "note": 38,
        "velocity": 0
      },
      {
        "type": "midi",
        "subType": "noteOn",
        "typeByte": 145,
        "deltaTime": 61,
        "channel": 1,
        "note": 38,
        "velocity": 127
      },
      {
        "type": "midi",
        "subType": "noteOff",
        "typeByte": 145,
        "deltaTime": 34,
        "channel": 1,
        "note": 38,
        "velocity": 0
      },
      {
        "type": "midi",
        "subType": "noteOn",
        "typeByte": 145,
        "deltaTime": 62,
        "channel": 1,
        "note": 38,
        "velocity": 127
      },
      {
        "type": "midi",
        "subType": "noteOff",
        "typeByte": 145,
        "deltaTime": 32,
        "channel": 1,
        "note": 38,
        "velocity": 0
      },
      {
        "type": "midi",
        "subType": "noteOn",
        "typeByte": 145,
        "deltaTime": 16,
        "channel": 1,
        "note": 37,
        "velocity": 127
      },
      {
        "type": "midi",
        "subType": "noteOff",
        "typeByte": 145,
        "deltaTime": 149,
        "channel": 1,
        "note": 37,
        "velocity": 0
      },
      {
        "type": "midi",
        "subType": "noteOn",
        "typeByte": 145,
        "deltaTime": 45,
        "channel": 1,
        "note": 35,
        "velocity": 127
      },
      {
        "type": "midi",
        "subType": "noteOff",
        "typeByte": 145,
        "deltaTime": 33,
        "channel": 1,
        "note": 35,
        "velocity": 0
      },
      {
        "type": "midi",
        "subType": "noteOn",
        "typeByte": 145,
        "deltaTime": 14,
        "channel": 1,
        "note": 35,
        "velocity": 127
      },
      {
        "type": "midi",
        "subType": "noteOff",
        "typeByte": 145,
        "deltaTime": 32,
        "channel": 1,
        "note": 35,
        "velocity": 0
      },
      {
        "type": "midi",
        "subType": "noteOn",
        "typeByte": 145,
        "deltaTime": 16,
        "channel": 1,
        "note": 35,
        "velocity": 127
      },
      {
        "type": "midi",
        "subType": "noteOff",
        "typeByte": 145,
        "deltaTime": 31,
        "channel": 1,
        "note": 35,
        "velocity": 0
      },
      {
        "type": "midi",
        "subType": "noteOn",
        "typeByte": 145,
        "deltaTime": 210,
        "channel": 1,
        "note": 40,
        "velocity": 127
      },
      {
        "type": "midi",
        "subType": "noteOff",
        "typeByte": 145,
        "deltaTime": 35,
        "channel": 1,
        "note": 40,
        "velocity": 0
      },
      {
        "type": "midi",
        "subType": "noteOn",
        "typeByte": 145,
        "deltaTime": 61,
        "channel": 1,
        "note": 40,
        "velocity": 127
      },
      {
        "type": "midi",
        "subType": "noteOff",
        "typeByte": 145,
        "deltaTime": 34,
        "channel": 1,
        "note": 40,
        "velocity": 0
      },
      {
        "type": "midi",
        "subType": "noteOn",
        "typeByte": 145,
        "deltaTime": 63,
        "channel": 1,
        "note": 40,
        "velocity": 127
      },
      {
        "type": "midi",
        "subType": "noteOff",
        "typeByte": 145,
        "deltaTime": 27,
        "channel": 1,
        "note": 40,
        "velocity": 0
      },
      {
        "type": "midi",
        "subType": "noteOn",
        "typeByte": 145,
        "deltaTime": 21,
        "channel": 1,
        "note": 40,
        "velocity": 127
      },
      {
        "type": "midi",
        "subType": "noteOff",
        "typeByte": 145,
        "deltaTime": 130,
        "channel": 1,
        "note": 40,
        "velocity": 0
      },
      {
        "type": "midi",
        "subType": "noteOn",
        "typeByte": 145,
        "deltaTime": 63,
        "channel": 1,
        "note": 35,
        "velocity": 127
      },
      {
        "type": "midi",
        "subType": "noteOff",
        "typeByte": 145,
        "deltaTime": 33,
        "channel": 1,
        "note": 35,
        "velocity": 0
      },
      {
        "type": "midi",
        "subType": "noteOn",
        "typeByte": 145,
        "deltaTime": 14,
        "channel": 1,
        "note": 35,
        "velocity": 127
      },
      {
        "type": "midi",
        "subType": "noteOff",
        "typeByte": 145,
        "deltaTime": 33,
        "channel": 1,
        "note": 35,
        "velocity": 0
      },
      {
        "type": "midi",
        "subType": "noteOn",
        "typeByte": 145,
        "deltaTime": 15,
        "channel": 1,
        "note": 35,
        "velocity": 127
      },
      {
        "type": "midi",
        "subType": "noteOff",
        "typeByte": 145,
        "deltaTime": 34,
        "channel": 1,
        "note": 35,
        "velocity": 0
      },
      {
        "type": "midi",
        "subType": "noteOn",
        "typeByte": 145,
        "deltaTime": 207,
        "channel": 1,
        "note": 40,
        "velocity": 127
      },
      {
        "type": "midi",
        "subType": "noteOff",
        "typeByte": 145,
        "deltaTime": 36,
        "channel": 1,
        "note": 40,
        "velocity": 0
      },
      {
        "type": "midi",
        "subType": "noteOn",
        "typeByte": 145,
        "deltaTime": 60,
        "channel": 1,
        "note": 40,
        "velocity": 127
      },
      {
        "type": "midi",
        "subType": "noteOff",
        "typeByte": 145,
        "deltaTime": 35,
        "channel": 1,
        "note": 40,
        "velocity": 0
      },
      {
        "type": "midi",
        "subType": "noteOn",
        "typeByte": 145,
        "deltaTime": 62,
        "channel": 1,
        "note": 40,
        "velocity": 127
      },
      {
        "type": "midi",
        "subType": "noteOff",
        "typeByte": 145,
        "deltaTime": 31,
        "channel": 1,
        "note": 40,
        "velocity": 0
      },
      {
        "type": "midi",
        "subType": "noteOn",
        "typeByte": 145,
        "deltaTime": 17,
        "channel": 1,
        "note": 40,
        "velocity": 127
      },
      {
        "type": "midi",
        "subType": "noteOff",
        "typeByte": 145,
        "deltaTime": 149,
        "channel": 1,
        "note": 40,
        "velocity": 0
      },
      {
        "type": "midi",
        "subType": "noteOn",
        "typeByte": 145,
        "deltaTime": 44,
        "channel": 1,
        "note": 35,
        "velocity": 127
      },
      {
        "type": "midi",
        "subType": "noteOff",
        "typeByte": 145,
        "deltaTime": 33,
        "channel": 1,
        "note": 35,
        "velocity": 0
      },
      {
        "type": "midi",
        "subType": "noteOn",
        "typeByte": 145,
        "deltaTime": 14,
        "channel": 1,
        "note": 35,
        "velocity": 127
      },
      {
        "type": "midi",
        "subType": "noteOff",
        "typeByte": 145,
        "deltaTime": 32,
        "channel": 1,
        "note": 35,
        "velocity": 0
      },
      {
        "type": "midi",
        "subType": "noteOn",
        "typeByte": 145,
        "deltaTime": 16,
        "channel": 1,
        "note": 35,
        "velocity": 127
      },
      {
        "type": "midi",
        "subType": "noteOff",
        "typeByte": 145,
        "deltaTime": 32,
        "channel": 1,
        "note": 35,
        "velocity": 0
      },
      {
        "type": "midi",
        "subType": "noteOn",
        "typeByte": 145,
        "deltaTime": 209,
        "channel": 1,
        "note": 40,
        "velocity": 127
      },
      {
        "type": "midi",
        "subType": "noteOff",
        "typeByte": 145,
        "deltaTime": 36,
        "channel": 1,
        "note": 40,
        "velocity": 0
      },
      {
        "type": "midi",
        "subType": "noteOn",
        "typeByte": 145,
        "deltaTime": 60,
        "channel": 1,
        "note": 40,
        "velocity": 127
      },
      {
        "type": "midi",
        "subType": "noteOff",
        "typeByte": 145,
        "deltaTime": 35,
        "channel": 1,
        "note": 40,
        "velocity": 0
      },
      {
        "type": "midi",
        "subType": "noteOn",
        "typeByte": 145,
        "deltaTime": 62,
        "channel": 1,
        "note": 40,
        "velocity": 127
      },
      {
        "type": "midi",
        "subType": "noteOff",
        "typeByte": 145,
        "deltaTime": 28,
        "channel": 1,
        "note": 40,
        "velocity": 0
      },
      {
        "type": "midi",
        "subType": "noteOn",
        "typeByte": 145,
        "deltaTime": 20,
        "channel": 1,
        "note": 40,
        "velocity": 127
      },
      {
        "type": "midi",
        "subType": "noteOff",
        "typeByte": 145,
        "deltaTime": 130,
        "channel": 1,
        "note": 40,
        "velocity": 0
      },
      {
        "type": "midi",
        "subType": "noteOn",
        "typeByte": 145,
        "deltaTime": 63,
        "channel": 1,
        "note": 33,
        "velocity": 127
      },
      {
        "type": "midi",
        "subType": "noteOff",
        "typeByte": 145,
        "deltaTime": 33,
        "channel": 1,
        "note": 33,
        "velocity": 0
      },
      {
        "type": "midi",
        "subType": "noteOn",
        "typeByte": 145,
        "deltaTime": 15,
        "channel": 1,
        "note": 33,
        "velocity": 127
      },
      {
        "type": "midi",
        "subType": "noteOff",
        "typeByte": 145,
        "deltaTime": 33,
        "channel": 1,
        "note": 33,
        "velocity": 0
      },
      {
        "type": "midi",
        "subType": "noteOn",
        "typeByte": 145,
        "deltaTime": 14,
        "channel": 1,
        "note": 33,
        "velocity": 127
      },
      {
        "type": "midi",
        "subType": "noteOff",
        "typeByte": 145,
        "deltaTime": 35,
        "channel": 1,
        "note": 33,
        "velocity": 0
      },
      {
        "type": "midi",
        "subType": "noteOn",
        "typeByte": 145,
        "deltaTime": 207,
        "channel": 1,
        "note": 38,
        "velocity": 127
      },
      {
        "type": "midi",
        "subType": "noteOff",
        "typeByte": 145,
        "deltaTime": 36,
        "channel": 1,
        "note": 38,
        "velocity": 0
      },
      {
        "type": "midi",
        "subType": "noteOn",
        "typeByte": 145,
        "deltaTime": 60,
        "channel": 1,
        "note": 38,
        "velocity": 127
      },
      {
        "type": "midi",
        "subType": "noteOff",
        "typeByte": 145,
        "deltaTime": 34,
        "channel": 1,
        "note": 38,
        "velocity": 0
      },
      {
        "type": "midi",
        "subType": "noteOn",
        "typeByte": 145,
        "deltaTime": 62,
        "channel": 1,
        "note": 38,
        "velocity": 127
      },
      {
        "type": "midi",
        "subType": "noteOff",
        "typeByte": 145,
        "deltaTime": 32,
        "channel": 1,
        "note": 38,
        "velocity": 0
      },
      {
        "type": "midi",
        "subType": "noteOn",
        "typeByte": 145,
        "deltaTime": 17,
        "channel": 1,
        "note": 37,
        "velocity": 127
      },
      {
        "type": "midi",
        "subType": "noteOff",
        "typeByte": 145,
        "deltaTime": 149,
        "channel": 1,
        "note": 37,
        "velocity": 0
      },
      {
        "type": "midi",
        "subType": "noteOn",
        "typeByte": 145,
        "deltaTime": 44,
        "channel": 1,
        "note": 35,
        "velocity": 127
      },
      {
        "type": "midi",
        "subType": "noteOff",
        "typeByte": 145,
        "deltaTime": 33,
        "channel": 1,
        "note": 35,
        "velocity": 0
      },
      {
        "type": "midi",
        "subType": "noteOn",
        "typeByte": 145,
        "deltaTime": 14,
        "channel": 1,
        "note": 35,
        "velocity": 127
      },
      {
        "type": "midi",
        "subType": "noteOff",
        "typeByte": 145,
        "deltaTime": 32,
        "channel": 1,
        "note": 35,
        "velocity": 0
      },
      {
        "type": "midi",
        "subType": "noteOn",
        "typeByte": 145,
        "deltaTime": 16,
        "channel": 1,
        "note": 35,
        "velocity": 127
      },
      {
        "type": "midi",
        "subType": "noteOff",
        "typeByte": 145,
        "deltaTime": 31,
        "channel": 1,
        "note": 35,
        "velocity": 0
      },
      {
        "type": "midi",
        "subType": "noteOn",
        "typeByte": 145,
        "deltaTime": 210,
        "channel": 1,
        "note": 40,
        "velocity": 127
      },
      {
        "type": "midi",
        "subType": "noteOff",
        "typeByte": 145,
        "deltaTime": 36,
        "channel": 1,
        "note": 40,
        "velocity": 0
      },
      {
        "type": "midi",
        "subType": "noteOn",
        "typeByte": 145,
        "deltaTime": 60,
        "channel": 1,
        "note": 40,
        "velocity": 127
      },
      {
        "type": "midi",
        "subType": "noteOff",
        "typeByte": 145,
        "deltaTime": 35,
        "channel": 1,
        "note": 40,
        "velocity": 0
      },
      {
        "type": "midi",
        "subType": "noteOn",
        "typeByte": 145,
        "deltaTime": 61,
        "channel": 1,
        "note": 40,
        "velocity": 127
      },
      {
        "type": "midi",
        "subType": "noteOff",
        "typeByte": 145,
        "deltaTime": 28,
        "channel": 1,
        "note": 40,
        "velocity": 0
      },
      {
        "type": "midi",
        "subType": "noteOn",
        "typeByte": 145,
        "deltaTime": 21,
        "channel": 1,
        "note": 40,
        "velocity": 127
      },
      {
        "type": "midi",
        "subType": "noteOff",
        "typeByte": 145,
        "deltaTime": 130,
        "channel": 1,
        "note": 40,
        "velocity": 0
      },
      {
        "type": "midi",
        "subType": "noteOn",
        "typeByte": 145,
        "deltaTime": 63,
        "channel": 1,
        "note": 33,
        "velocity": 127
      },
      {
        "type": "midi",
        "subType": "noteOff",
        "typeByte": 145,
        "deltaTime": 33,
        "channel": 1,
        "note": 33,
        "velocity": 0
      },
      {
        "type": "midi",
        "subType": "noteOn",
        "typeByte": 145,
        "deltaTime": 15,
        "channel": 1,
        "note": 33,
        "velocity": 127
      },
      {
        "type": "midi",
        "subType": "noteOff",
        "typeByte": 145,
        "deltaTime": 33,
        "channel": 1,
        "note": 33,
        "velocity": 0
      },
      {
        "type": "midi",
        "subType": "noteOn",
        "typeByte": 145,
        "deltaTime": 14,
        "channel": 1,
        "note": 33,
        "velocity": 127
      },
      {
        "type": "midi",
        "subType": "noteOff",
        "typeByte": 145,
        "deltaTime": 34,
        "channel": 1,
        "note": 33,
        "velocity": 0
      },
      {
        "type": "midi",
        "subType": "noteOn",
        "typeByte": 145,
        "deltaTime": 208,
        "channel": 1,
        "note": 38,
        "velocity": 127
      },
      {
        "type": "midi",
        "subType": "noteOff",
        "typeByte": 145,
        "deltaTime": 35,
        "channel": 1,
        "note": 38,
        "velocity": 0
      },
      {
        "type": "midi",
        "subType": "noteOn",
        "typeByte": 145,
        "deltaTime": 61,
        "channel": 1,
        "note": 38,
        "velocity": 127
      },
      {
        "type": "midi",
        "subType": "noteOff",
        "typeByte": 145,
        "deltaTime": 34,
        "channel": 1,
        "note": 38,
        "velocity": 0
      },
      {
        "type": "midi",
        "subType": "noteOn",
        "typeByte": 145,
        "deltaTime": 62,
        "channel": 1,
        "note": 38,
        "velocity": 127
      },
      {
        "type": "midi",
        "subType": "noteOff",
        "typeByte": 145,
        "deltaTime": 32,
        "channel": 1,
        "note": 38,
        "velocity": 0
      },
      {
        "type": "midi",
        "subType": "noteOn",
        "typeByte": 145,
        "deltaTime": 17,
        "channel": 1,
        "note": 37,
        "velocity": 127
      },
      {
        "type": "midi",
        "subType": "noteOff",
        "typeByte": 145,
        "deltaTime": 148,
        "channel": 1,
        "note": 37,
        "velocity": 0
      },
      {
        "type": "midi",
        "subType": "noteOn",
        "typeByte": 145,
        "deltaTime": 44,
        "channel": 1,
        "note": 35,
        "velocity": 127
      },
      {
        "type": "midi",
        "subType": "noteOff",
        "typeByte": 145,
        "deltaTime": 34,
        "channel": 1,
        "note": 35,
        "velocity": 0
      },
      {
        "type": "midi",
        "subType": "noteOn",
        "typeByte": 145,
        "deltaTime": 14,
        "channel": 1,
        "note": 35,
        "velocity": 127
      },
      {
        "type": "midi",
        "subType": "noteOff",
        "typeByte": 145,
        "deltaTime": 32,
        "channel": 1,
        "note": 35,
        "velocity": 0
      },
      {
        "type": "midi",
        "subType": "noteOn",
        "typeByte": 145,
        "deltaTime": 16,
        "channel": 1,
        "note": 35,
        "velocity": 127
      },
      {
        "type": "midi",
        "subType": "noteOff",
        "typeByte": 145,
        "deltaTime": 31,
        "channel": 1,
        "note": 35,
        "velocity": 0
      },
      {
        "type": "midi",
        "subType": "noteOn",
        "typeByte": 145,
        "deltaTime": 210,
        "channel": 1,
        "note": 40,
        "velocity": 127
      },
      {
        "type": "midi",
        "subType": "noteOff",
        "typeByte": 145,
        "deltaTime": 36,
        "channel": 1,
        "note": 40,
        "velocity": 0
      },
      {
        "type": "midi",
        "subType": "noteOn",
        "typeByte": 145,
        "deltaTime": 60,
        "channel": 1,
        "note": 40,
        "velocity": 127
      },
      {
        "type": "midi",
        "subType": "noteOff",
        "typeByte": 145,
        "deltaTime": 35,
        "channel": 1,
        "note": 40,
        "velocity": 0
      },
      {
        "type": "midi",
        "subType": "noteOn",
        "typeByte": 145,
        "deltaTime": 61,
        "channel": 1,
        "note": 40,
        "velocity": 127
      },
      {
        "type": "midi",
        "subType": "noteOff",
        "typeByte": 145,
        "deltaTime": 28,
        "channel": 1,
        "note": 40,
        "velocity": 0
      },
      {
        "type": "midi",
        "subType": "noteOn",
        "typeByte": 145,
        "deltaTime": 21,
        "channel": 1,
        "note": 40,
        "velocity": 127
      },
      {
        "type": "midi",
        "subType": "noteOff",
        "typeByte": 145,
        "deltaTime": 130,
        "channel": 1,
        "note": 40,
        "velocity": 0
      },
      {
        "type": "midi",
        "subType": "noteOn",
        "typeByte": 145,
        "deltaTime": 63,
        "channel": 1,
        "note": 42,
        "velocity": 127
      },
      {
        "type": "midi",
        "subType": "noteOff",
        "typeByte": 145,
        "deltaTime": 33,
        "channel": 1,
        "note": 42,
        "velocity": 0
      },
      {
        "type": "midi",
        "subType": "noteOn",
        "typeByte": 145,
        "deltaTime": 14,
        "channel": 1,
        "note": 42,
        "velocity": 127
      },
      {
        "type": "midi",
        "subType": "noteOff",
        "typeByte": 145,
        "deltaTime": 33,
        "channel": 1,
        "note": 42,
        "velocity": 0
      },
      {
        "type": "midi",
        "subType": "noteOn",
        "typeByte": 145,
        "deltaTime": 15,
        "channel": 1,
        "note": 42,
        "velocity": 127
      },
      {
        "type": "midi",
        "subType": "noteOff",
        "typeByte": 145,
        "deltaTime": 34,
        "channel": 1,
        "note": 42,
        "velocity": 0
      },
      {
        "type": "midi",
        "subType": "noteOn",
        "typeByte": 145,
        "deltaTime": 207,
        "channel": 1,
        "note": 38,
        "velocity": 127
      },
      {
        "type": "midi",
        "subType": "noteOff",
        "typeByte": 145,
        "deltaTime": 36,
        "channel": 1,
        "note": 38,
        "velocity": 0
      },
      {
        "type": "midi",
        "subType": "noteOn",
        "typeByte": 145,
        "deltaTime": 61,
        "channel": 1,
        "note": 38,
        "velocity": 127
      },
      {
        "type": "midi",
        "subType": "noteOff",
        "typeByte": 145,
        "deltaTime": 34,
        "channel": 1,
        "note": 38,
        "velocity": 0
      },
      {
        "type": "midi",
        "subType": "noteOn",
        "typeByte": 145,
        "deltaTime": 62,
        "channel": 1,
        "note": 54,
        "velocity": 127
      },
      {
        "type": "midi",
        "subType": "noteOff",
        "typeByte": 145,
        "deltaTime": 44,
        "channel": 1,
        "note": 54,
        "velocity": 0
      },
      {
        "type": "midi",
        "subType": "noteOn",
        "typeByte": 145,
        "deltaTime": 4,
        "channel": 1,
        "note": 52,
        "velocity": 127
      },
      {
        "type": "midi",
        "subType": "noteOff",
        "typeByte": 145,
        "deltaTime": 43,
        "channel": 1,
        "note": 52,
        "velocity": 0
      },
      {
        "type": "midi",
        "subType": "noteOn",
        "typeByte": 145,
        "deltaTime": 5,
        "channel": 1,
        "note": 50,
        "velocity": 127
      },
      {
        "type": "midi",
        "subType": "noteOff",
        "typeByte": 145,
        "deltaTime": 44,
        "channel": 1,
        "note": 50,
        "velocity": 0
      },
      {
        "type": "midi",
        "subType": "noteOn",
        "typeByte": 145,
        "deltaTime": 4,
        "channel": 1,
        "note": 49,
        "velocity": 127
      },
      {
        "type": "midi",
        "subType": "noteOff",
        "typeByte": 145,
        "deltaTime": 43,
        "channel": 1,
        "note": 49,
        "velocity": 0
      },
      {
        "type": "midi",
        "subType": "noteOn",
        "typeByte": 145,
        "deltaTime": 5,
        "channel": 1,
        "note": 47,
        "velocity": 127
      },
      {
        "type": "midi",
        "subType": "noteOff",
        "typeByte": 145,
        "deltaTime": 45,
        "channel": 1,
        "note": 47,
        "velocity": 0
      },
      {
        "type": "midi",
        "subType": "noteOn",
        "typeByte": 145,
        "deltaTime": 4,
        "channel": 1,
        "note": 33,
        "velocity": 127
      },
      {
        "type": "midi",
        "subType": "noteOff",
        "typeByte": 145,
        "deltaTime": 33,
        "channel": 1,
        "note": 33,
        "velocity": 0
      },
      {
        "type": "midi",
        "subType": "noteOn",
        "typeByte": 145,
        "deltaTime": 14,
        "channel": 1,
        "note": 33,
        "velocity": 127
      },
      {
        "type": "midi",
        "subType": "noteOff",
        "typeByte": 145,
        "deltaTime": 30,
        "channel": 1,
        "note": 33,
        "velocity": 0
      },
      {
        "type": "midi",
        "subType": "noteOn",
        "typeByte": 145,
        "deltaTime": 18,
        "channel": 1,
        "note": 33,
        "velocity": 127
      },
      {
        "type": "midi",
        "subType": "noteOff",
        "typeByte": 145,
        "deltaTime": 71,
        "channel": 1,
        "note": 33,
        "velocity": 0
      },
      {
        "type": "midi",
        "subType": "noteOn",
        "typeByte": 145,
        "deltaTime": 25,
        "channel": 1,
        "note": 33,
        "velocity": 127
      },
      {
        "type": "midi",
        "subType": "noteOff",
        "typeByte": 145,
        "deltaTime": 69,
        "channel": 1,
        "note": 33,
        "velocity": 0
      },
      {
        "type": "midi",
        "subType": "noteOn",
        "typeByte": 145,
        "deltaTime": 28,
        "channel": 1,
        "note": 33,
        "velocity": 127
      },
      {
        "type": "midi",
        "subType": "noteOff",
        "typeByte": 145,
        "deltaTime": 67,
        "channel": 1,
        "note": 33,
        "velocity": 0
      },
      {
        "type": "midi",
        "subType": "noteOn",
        "typeByte": 145,
        "deltaTime": 31,
        "channel": 1,
        "note": 32,
        "velocity": 127
      },
      {
        "type": "midi",
        "subType": "noteOff",
        "typeByte": 145,
        "deltaTime": 65,
        "channel": 1,
        "note": 32,
        "velocity": 0
      },
      {
        "type": "midi",
        "subType": "noteOn",
        "typeByte": 145,
        "deltaTime": 31,
        "channel": 1,
        "note": 32,
        "velocity": 127
      },
      {
        "type": "midi",
        "subType": "noteOff",
        "typeByte": 145,
        "deltaTime": 73,
        "channel": 1,
        "note": 32,
        "velocity": 0
      },
      {
        "type": "midi",
        "subType": "noteOn",
        "typeByte": 145,
        "deltaTime": 23,
        "channel": 1,
        "note": 32,
        "velocity": 127
      },
      {
        "type": "midi",
        "subType": "noteOff",
        "typeByte": 145,
        "deltaTime": 67,
        "channel": 1,
        "note": 32,
        "velocity": 0
      },
      {
        "type": "midi",
        "subType": "noteOn",
        "typeByte": 145,
        "deltaTime": 29,
        "channel": 1,
        "note": 32,
        "velocity": 127
      },
      {
        "type": "midi",
        "subType": "noteOff",
        "typeByte": 145,
        "deltaTime": 75,
        "channel": 1,
        "note": 32,
        "velocity": 0
      },
      {
        "type": "midi",
        "subType": "noteOn",
        "typeByte": 145,
        "deltaTime": 23,
        "channel": 1,
        "note": 30,
        "velocity": 127
      },
      {
        "type": "midi",
        "subType": "noteOff",
        "typeByte": 145,
        "deltaTime": 70,
        "channel": 1,
        "note": 30,
        "velocity": 0
      },
      {
        "type": "midi",
        "subType": "noteOn",
        "typeByte": 145,
        "deltaTime": 25,
        "channel": 1,
        "note": 30,
        "velocity": 127
      },
      {
        "type": "midi",
        "subType": "noteOff",
        "typeByte": 145,
        "deltaTime": 68,
        "channel": 1,
        "note": 30,
        "velocity": 0
      },
      {
        "type": "midi",
        "subType": "noteOn",
        "typeByte": 145,
        "deltaTime": 28,
        "channel": 1,
        "note": 30,
        "velocity": 127
      },
      {
        "type": "midi",
        "subType": "noteOff",
        "typeByte": 145,
        "deltaTime": 75,
        "channel": 1,
        "note": 30,
        "velocity": 0
      },
      {
        "type": "midi",
        "subType": "noteOn",
        "typeByte": 145,
        "deltaTime": 21,
        "channel": 1,
        "note": 30,
        "velocity": 127
      },
      {
        "type": "midi",
        "subType": "noteOff",
        "typeByte": 145,
        "deltaTime": 88,
        "channel": 1,
        "note": 30,
        "velocity": 0
      },
      {
        "type": "midi",
        "subType": "noteOn",
        "typeByte": 145,
        "deltaTime": 9,
        "channel": 1,
        "note": 38,
        "velocity": 127
      },
      {
        "type": "midi",
        "subType": "noteOff",
        "typeByte": 145,
        "deltaTime": 27,
        "channel": 1,
        "note": 38,
        "velocity": 0
      },
      {
        "type": "midi",
        "subType": "noteOn",
        "typeByte": 145,
        "deltaTime": 20,
        "channel": 1,
        "note": 38,
        "velocity": 127
      },
      {
        "type": "midi",
        "subType": "noteOff",
        "typeByte": 145,
        "deltaTime": 24,
        "channel": 1,
        "note": 38,
        "velocity": 0
      },
      {
        "type": "midi",
        "subType": "noteOn",
        "typeByte": 145,
        "deltaTime": 25,
        "channel": 1,
        "note": 38,
        "velocity": 127
      },
      {
        "type": "midi",
        "subType": "noteOff",
        "typeByte": 145,
        "deltaTime": 24,
        "channel": 1,
        "note": 38,
        "velocity": 0
      },
      {
        "type": "midi",
        "subType": "noteOn",
        "typeByte": 145,
        "deltaTime": 23,
        "channel": 1,
        "note": 38,
        "velocity": 127
      },
      {
        "type": "midi",
        "subType": "noteOff",
        "typeByte": 145,
        "deltaTime": 27,
        "channel": 1,
        "note": 38,
        "velocity": 0
      },
      {
        "type": "midi",
        "subType": "noteOn",
        "typeByte": 145,
        "deltaTime": 22,
        "channel": 1,
        "note": 38,
        "velocity": 127
      },
      {
        "type": "midi",
        "subType": "noteOff",
        "typeByte": 145,
        "deltaTime": 29,
        "channel": 1,
        "note": 38,
        "velocity": 0
      },
      {
        "type": "midi",
        "subType": "noteOn",
        "typeByte": 145,
        "deltaTime": 18,
        "channel": 1,
        "note": 38,
        "velocity": 127
      },
      {
        "type": "midi",
        "subType": "noteOff",
        "typeByte": 145,
        "deltaTime": 28,
        "channel": 1,
        "note": 38,
        "velocity": 0
      },
      {
        "type": "midi",
        "subType": "noteOn",
        "typeByte": 145,
        "deltaTime": 22,
        "channel": 1,
        "note": 38,
        "velocity": 127
      },
      {
        "type": "midi",
        "subType": "noteOff",
        "typeByte": 145,
        "deltaTime": 29,
        "channel": 1,
        "note": 38,
        "velocity": 0
      },
      {
        "type": "midi",
        "subType": "noteOn",
        "typeByte": 145,
        "deltaTime": 17,
        "channel": 1,
        "note": 38,
        "velocity": 127
      },
      {
        "type": "midi",
        "subType": "noteOff",
        "typeByte": 145,
        "deltaTime": 30,
        "channel": 1,
        "note": 38,
        "velocity": 0
      },
      {
        "type": "midi",
        "subType": "noteOn",
        "typeByte": 145,
        "deltaTime": 21,
        "channel": 1,
        "note": 33,
        "velocity": 127
      },
      {
        "type": "midi",
        "subType": "noteOff",
        "typeByte": 145,
        "deltaTime": 32,
        "channel": 1,
        "note": 33,
        "velocity": 0
      },
      {
        "type": "midi",
        "subType": "noteOn",
        "typeByte": 145,
        "deltaTime": 14,
        "channel": 1,
        "note": 33,
        "velocity": 127
      },
      {
        "type": "midi",
        "subType": "noteOff",
        "typeByte": 145,
        "deltaTime": 32,
        "channel": 1,
        "note": 33,
        "velocity": 0
      },
      {
        "type": "midi",
        "subType": "noteOn",
        "typeByte": 145,
        "deltaTime": 17,
        "channel": 1,
        "note": 33,
        "velocity": 127
      },
      {
        "type": "midi",
        "subType": "noteOff",
        "typeByte": 145,
        "deltaTime": 69,
        "channel": 1,
        "note": 33,
        "velocity": 0
      },
      {
        "type": "midi",
        "subType": "noteOn",
        "typeByte": 145,
        "deltaTime": 27,
        "channel": 1,
        "note": 33,
        "velocity": 127
      },
      {
        "type": "midi",
        "subType": "noteOff",
        "typeByte": 145,
        "deltaTime": 74,
        "channel": 1,
        "note": 33,
        "velocity": 0
      },
      {
        "type": "midi",
        "subType": "noteOn",
        "typeByte": 145,
        "deltaTime": 23,
        "channel": 1,
        "note": 33,
        "velocity": 127
      },
      {
        "type": "midi",
        "subType": "noteOff",
        "typeByte": 145,
        "deltaTime": 75,
        "channel": 1,
        "note": 33,
        "velocity": 0
      },
      {
        "type": "midi",
        "subType": "noteOn",
        "typeByte": 145,
        "deltaTime": 22,
        "channel": 1,
        "note": 32,
        "velocity": 127
      },
      {
        "type": "midi",
        "subType": "noteOff",
        "typeByte": 145,
        "deltaTime": 67,
        "channel": 1,
        "note": 32,
        "velocity": 0
      },
      {
        "type": "midi",
        "subType": "noteOn",
        "typeByte": 145,
        "deltaTime": 28,
        "channel": 1,
        "note": 32,
        "velocity": 127
      },
      {
        "type": "midi",
        "subType": "noteOff",
        "typeByte": 145,
        "deltaTime": 77,
        "channel": 1,
        "note": 32,
        "velocity": 0
      },
      {
        "type": "midi",
        "subType": "noteOn",
        "typeByte": 145,
        "deltaTime": 19,
        "channel": 1,
        "note": 32,
        "velocity": 127
      },
      {
        "type": "midi",
        "subType": "noteOff",
        "typeByte": 145,
        "deltaTime": 73,
        "channel": 1,
        "note": 32,
        "velocity": 0
      },
      {
        "type": "midi",
        "subType": "noteOn",
        "typeByte": 145,
        "deltaTime": 24,
        "channel": 1,
        "note": 32,
        "velocity": 127
      },
      {
        "type": "midi",
        "subType": "noteOff",
        "typeByte": 145,
        "deltaTime": 76,
        "channel": 1,
        "note": 32,
        "velocity": 0
      },
      {
        "type": "midi",
        "subType": "noteOn",
        "typeByte": 145,
        "deltaTime": 21,
        "channel": 1,
        "note": 30,
        "velocity": 127
      },
      {
        "type": "midi",
        "subType": "noteOff",
        "typeByte": 145,
        "deltaTime": 68,
        "channel": 1,
        "note": 30,
        "velocity": 0
      },
      {
        "type": "midi",
        "subType": "noteOn",
        "typeByte": 145,
        "deltaTime": 27,
        "channel": 1,
        "note": 30,
        "velocity": 127
      },
      {
        "type": "midi",
        "subType": "noteOff",
        "typeByte": 145,
        "deltaTime": 74,
        "channel": 1,
        "note": 30,
        "velocity": 0
      },
      {
        "type": "midi",
        "subType": "noteOn",
        "typeByte": 145,
        "deltaTime": 23,
        "channel": 1,
        "note": 30,
        "velocity": 127
      },
      {
        "type": "midi",
        "subType": "noteOff",
        "typeByte": 145,
        "deltaTime": 78,
        "channel": 1,
        "note": 30,
        "velocity": 0
      },
      {
        "type": "midi",
        "subType": "noteOn",
        "typeByte": 145,
        "deltaTime": 18,
        "channel": 1,
        "note": 30,
        "velocity": 127
      },
      {
        "type": "midi",
        "subType": "noteOff",
        "typeByte": 145,
        "deltaTime": 75,
        "channel": 1,
        "note": 30,
        "velocity": 0
      },
      {
        "type": "midi",
        "subType": "noteOn",
        "typeByte": 145,
        "deltaTime": 22,
        "channel": 1,
        "note": 38,
        "velocity": 127
      },
      {
        "type": "midi",
        "subType": "noteOff",
        "typeByte": 145,
        "deltaTime": 29,
        "channel": 1,
        "note": 38,
        "velocity": 0
      },
      {
        "type": "midi",
        "subType": "noteOn",
        "typeByte": 145,
        "deltaTime": 17,
        "channel": 1,
        "note": 38,
        "velocity": 127
      },
      {
        "type": "midi",
        "subType": "noteOff",
        "typeByte": 145,
        "deltaTime": 27,
        "channel": 1,
        "note": 38,
        "velocity": 0
      },
      {
        "type": "midi",
        "subType": "noteOn",
        "typeByte": 145,
        "deltaTime": 23,
        "channel": 1,
        "note": 38,
        "velocity": 127
      },
      {
        "type": "midi",
        "subType": "noteOff",
        "typeByte": 145,
        "deltaTime": 23,
        "channel": 1,
        "note": 38,
        "velocity": 0
      },
      {
        "type": "midi",
        "subType": "noteOn",
        "typeByte": 145,
        "deltaTime": 24,
        "channel": 1,
        "note": 38,
        "velocity": 127
      },
      {
        "type": "midi",
        "subType": "noteOff",
        "typeByte": 145,
        "deltaTime": 25,
        "channel": 1,
        "note": 38,
        "velocity": 0
      },
      {
        "type": "midi",
        "subType": "noteOn",
        "typeByte": 145,
        "deltaTime": 24,
        "channel": 1,
        "note": 38,
        "velocity": 127
      },
      {
        "type": "midi",
        "subType": "noteOff",
        "typeByte": 145,
        "deltaTime": 26,
        "channel": 1,
        "note": 38,
        "velocity": 0
      },
      {
        "type": "midi",
        "subType": "noteOn",
        "typeByte": 145,
        "deltaTime": 21,
        "channel": 1,
        "note": 38,
        "velocity": 127
      },
      {
        "type": "midi",
        "subType": "noteOff",
        "typeByte": 145,
        "deltaTime": 28,
        "channel": 1,
        "note": 38,
        "velocity": 0
      },
      {
        "type": "midi",
        "subType": "noteOn",
        "typeByte": 145,
        "deltaTime": 21,
        "channel": 1,
        "note": 38,
        "velocity": 127
      },
      {
        "type": "midi",
        "subType": "noteOff",
        "typeByte": 145,
        "deltaTime": 24,
        "channel": 1,
        "note": 38,
        "velocity": 0
      },
      {
        "type": "midi",
        "subType": "noteOn",
        "typeByte": 145,
        "deltaTime": 23,
        "channel": 1,
        "note": 38,
        "velocity": 127
      },
      {
        "type": "midi",
        "subType": "noteOff",
        "typeByte": 145,
        "deltaTime": 26,
        "channel": 1,
        "note": 38,
        "velocity": 0
      },
      {
        "type": "midi",
        "subType": "noteOn",
        "typeByte": 145,
        "deltaTime": 25,
        "channel": 1,
        "note": 33,
        "velocity": 127
      },
      {
        "type": "midi",
        "subType": "noteOff",
        "typeByte": 145,
        "deltaTime": 32,
        "channel": 1,
        "note": 33,
        "velocity": 0
      },
      {
        "type": "midi",
        "subType": "noteOn",
        "typeByte": 145,
        "deltaTime": 13,
        "channel": 1,
        "note": 33,
        "velocity": 127
      },
      {
        "type": "midi",
        "subType": "noteOff",
        "typeByte": 145,
        "deltaTime": 31,
        "channel": 1,
        "note": 33,
        "velocity": 0
      },
      {
        "type": "midi",
        "subType": "noteOn",
        "typeByte": 145,
        "deltaTime": 18,
        "channel": 1,
        "note": 33,
        "velocity": 127
      },
      {
        "type": "midi",
        "subType": "noteOff",
        "typeByte": 145,
        "deltaTime": 34,
        "channel": 1,
        "note": 33,
        "velocity": 0
      },
      {
        "type": "midi",
        "subType": "noteOn",
        "typeByte": 145,
        "deltaTime": 206,
        "channel": 1,
        "note": 33,
        "velocity": 127
      },
      {
        "type": "midi",
        "subType": "noteOff",
        "typeByte": 145,
        "deltaTime": 37,
        "channel": 1,
        "note": 33,
        "velocity": 0
      },
      {
        "type": "midi",
        "subType": "noteOn",
        "typeByte": 145,
        "deltaTime": 13,
        "channel": 1,
        "note": 32,
        "velocity": 127
      },
      {
        "type": "midi",
        "subType": "noteOff",
        "typeByte": 145,
        "deltaTime": 30,
        "channel": 1,
        "note": 32,
        "velocity": 0
      },
      {
        "type": "midi",
        "subType": "noteOn",
        "typeByte": 145,
        "deltaTime": 17,
        "channel": 1,
        "note": 32,
        "velocity": 127
      },
      {
        "type": "midi",
        "subType": "noteOff",
        "typeByte": 145,
        "deltaTime": 33,
        "channel": 1,
        "note": 32,
        "velocity": 0
      },
      {
        "type": "midi",
        "subType": "noteOn",
        "typeByte": 145,
        "deltaTime": 16,
        "channel": 1,
        "note": 32,
        "velocity": 127
      },
      {
        "type": "midi",
        "subType": "noteOff",
        "typeByte": 145,
        "deltaTime": 41,
        "channel": 1,
        "note": 32,
        "velocity": 0
      },
      {
        "type": "midi",
        "subType": "noteOn",
        "typeByte": 145,
        "deltaTime": 199,
        "channel": 1,
        "note": 32,
        "velocity": 127
      },
      {
        "type": "midi",
        "subType": "noteOff",
        "typeByte": 145,
        "deltaTime": 32,
        "channel": 1,
        "note": 32,
        "velocity": 0
      },
      {
        "type": "midi",
        "subType": "noteOn",
        "typeByte": 145,
        "deltaTime": 18,
        "channel": 1,
        "note": 30,
        "velocity": 127
      },
      {
        "type": "midi",
        "subType": "noteOff",
        "typeByte": 145,
        "deltaTime": 29,
        "channel": 1,
        "note": 30,
        "velocity": 0
      },
      {
        "type": "midi",
        "subType": "noteOn",
        "typeByte": 145,
        "deltaTime": 17,
        "channel": 1,
        "note": 30,
        "velocity": 127
      },
      {
        "type": "midi",
        "subType": "noteOff",
        "typeByte": 145,
        "deltaTime": 31,
        "channel": 1,
        "note": 30,
        "velocity": 0
      },
      {
        "type": "midi",
        "subType": "noteOn",
        "typeByte": 145,
        "deltaTime": 18,
        "channel": 1,
        "note": 30,
        "velocity": 127
      },
      {
        "type": "midi",
        "subType": "noteOff",
        "typeByte": 145,
        "deltaTime": 37,
        "channel": 1,
        "note": 30,
        "velocity": 0
      },
      {
        "type": "midi",
        "subType": "noteOn",
        "typeByte": 145,
        "deltaTime": 203,
        "channel": 1,
        "note": 38,
        "velocity": 127
      },
      {
        "type": "midi",
        "subType": "noteOff",
        "typeByte": 145,
        "deltaTime": 32,
        "channel": 1,
        "note": 38,
        "velocity": 0
      },
      {
        "type": "midi",
        "subType": "noteOn",
        "typeByte": 145,
        "deltaTime": 17,
        "channel": 1,
        "note": 38,
        "velocity": 127
      },
      {
        "type": "midi",
        "subType": "noteOff",
        "typeByte": 145,
        "deltaTime": 33,
        "channel": 1,
        "note": 38,
        "velocity": 0
      },
      {
        "type": "midi",
        "subType": "noteOn",
        "typeByte": 145,
        "deltaTime": 14,
        "channel": 1,
        "note": 38,
        "velocity": 127
      },
      {
        "type": "midi",
        "subType": "noteOff",
        "typeByte": 145,
        "deltaTime": 30,
        "channel": 1,
        "note": 38,
        "velocity": 0
      },
      {
        "type": "midi",
        "subType": "noteOn",
        "typeByte": 145,
        "deltaTime": 19,
        "channel": 1,
        "note": 38,
        "velocity": 127
      },
      {
        "type": "midi",
        "subType": "noteOff",
        "typeByte": 145,
        "deltaTime": 29,
        "channel": 1,
        "note": 38,
        "velocity": 0
      },
      {
        "type": "midi",
        "subType": "noteOn",
        "typeByte": 145,
        "deltaTime": 18,
        "channel": 1,
        "note": 38,
        "velocity": 127
      },
      {
        "type": "midi",
        "subType": "noteOff",
        "typeByte": 145,
        "deltaTime": 30,
        "channel": 1,
        "note": 38,
        "velocity": 0
      },
      {
        "type": "midi",
        "subType": "noteOn",
        "typeByte": 145,
        "deltaTime": 19,
        "channel": 1,
        "note": 38,
        "velocity": 127
      },
      {
        "type": "midi",
        "subType": "noteOff",
        "typeByte": 145,
        "deltaTime": 27,
        "channel": 1,
        "note": 38,
        "velocity": 0
      },
      {
        "type": "midi",
        "subType": "noteOn",
        "typeByte": 145,
        "deltaTime": 21,
        "channel": 1,
        "note": 42,
        "velocity": 127
      },
      {
        "type": "midi",
        "subType": "noteOff",
        "typeByte": 145,
        "deltaTime": 33,
        "channel": 1,
        "note": 42,
        "velocity": 0
      },
      {
        "type": "midi",
        "subType": "noteOn",
        "typeByte": 145,
        "deltaTime": 16,
        "channel": 1,
        "note": 40,
        "velocity": 127
      },
      {
        "type": "midi",
        "subType": "noteOff",
        "typeByte": 145,
        "deltaTime": 33,
        "channel": 1,
        "note": 40,
        "velocity": 0
      },
      {
        "type": "midi",
        "subType": "noteOn",
        "typeByte": 145,
        "deltaTime": 14,
        "channel": 1,
        "note": 38,
        "velocity": 127
      },
      {
        "type": "midi",
        "subType": "noteOff",
        "typeByte": 145,
        "deltaTime": 34,
        "channel": 1,
        "note": 38,
        "velocity": 0
      },
      {
        "type": "midi",
        "subType": "noteOn",
        "typeByte": 145,
        "deltaTime": 18,
        "channel": 1,
        "note": 33,
        "velocity": 127
      },
      {
        "type": "midi",
        "subType": "noteOff",
        "typeByte": 145,
        "deltaTime": 30,
        "channel": 1,
        "note": 33,
        "velocity": 0
      },
      {
        "type": "midi",
        "subType": "noteOn",
        "typeByte": 145,
        "deltaTime": 14,
        "channel": 1,
        "note": 33,
        "velocity": 127
      },
      {
        "type": "midi",
        "subType": "noteOff",
        "typeByte": 145,
        "deltaTime": 30,
        "channel": 1,
        "note": 33,
        "velocity": 0
      },
      {
        "type": "midi",
        "subType": "noteOn",
        "typeByte": 145,
        "deltaTime": 20,
        "channel": 1,
        "note": 33,
        "velocity": 127
      },
      {
        "type": "midi",
        "subType": "noteOff",
        "typeByte": 145,
        "deltaTime": 70,
        "channel": 1,
        "note": 33,
        "velocity": 0
      },
      {
        "type": "midi",
        "subType": "noteOn",
        "typeByte": 145,
        "deltaTime": 26,
        "channel": 1,
        "note": 33,
        "velocity": 127
      },
      {
        "type": "midi",
        "subType": "noteOff",
        "typeByte": 145,
        "deltaTime": 67,
        "channel": 1,
        "note": 33,
        "velocity": 0
      },
      {
        "type": "midi",
        "subType": "noteOn",
        "typeByte": 145,
        "deltaTime": 29,
        "channel": 1,
        "note": 33,
        "velocity": 127
      },
      {
        "type": "midi",
        "subType": "noteOff",
        "typeByte": 145,
        "deltaTime": 66,
        "channel": 1,
        "note": 33,
        "velocity": 0
      },
      {
        "type": "midi",
        "subType": "noteOn",
        "typeByte": 145,
        "deltaTime": 31,
        "channel": 1,
        "note": 32,
        "velocity": 127
      },
      {
        "type": "midi",
        "subType": "noteOff",
        "typeByte": 145,
        "deltaTime": 65,
        "channel": 1,
        "note": 32,
        "velocity": 0
      },
      {
        "type": "midi",
        "subType": "noteOn",
        "typeByte": 145,
        "deltaTime": 31,
        "channel": 1,
        "note": 32,
        "velocity": 127
      },
      {
        "type": "midi",
        "subType": "noteOff",
        "typeByte": 145,
        "deltaTime": 74,
        "channel": 1,
        "note": 32,
        "velocity": 0
      },
      {
        "type": "midi",
        "subType": "noteOn",
        "typeByte": 145,
        "deltaTime": 22,
        "channel": 1,
        "note": 32,
        "velocity": 127
      },
      {
        "type": "midi",
        "subType": "noteOff",
        "typeByte": 145,
        "deltaTime": 67,
        "channel": 1,
        "note": 32,
        "velocity": 0
      },
      {
        "type": "midi",
        "subType": "noteOn",
        "typeByte": 145,
        "deltaTime": 29,
        "channel": 1,
        "note": 32,
        "velocity": 127
      },
      {
        "type": "midi",
        "subType": "noteOff",
        "typeByte": 145,
        "deltaTime": 75,
        "channel": 1,
        "note": 32,
        "velocity": 0
      },
      {
        "type": "midi",
        "subType": "noteOn",
        "typeByte": 145,
        "deltaTime": 23,
        "channel": 1,
        "note": 30,
        "velocity": 127
      },
      {
        "type": "midi",
        "subType": "noteOff",
        "typeByte": 145,
        "deltaTime": 71,
        "channel": 1,
        "note": 30,
        "velocity": 0
      },
      {
        "type": "midi",
        "subType": "noteOn",
        "typeByte": 145,
        "deltaTime": 24,
        "channel": 1,
        "note": 30,
        "velocity": 127
      },
      {
        "type": "midi",
        "subType": "noteOff",
        "typeByte": 145,
        "deltaTime": 68,
        "channel": 1,
        "note": 30,
        "velocity": 0
      },
      {
        "type": "midi",
        "subType": "noteOn",
        "typeByte": 145,
        "deltaTime": 28,
        "channel": 1,
        "note": 30,
        "velocity": 127
      },
      {
        "type": "midi",
        "subType": "noteOff",
        "typeByte": 145,
        "deltaTime": 75,
        "channel": 1,
        "note": 30,
        "velocity": 0
      },
      {
        "type": "midi",
        "subType": "noteOn",
        "typeByte": 145,
        "deltaTime": 21,
        "channel": 1,
        "note": 30,
        "velocity": 127
      },
      {
        "type": "midi",
        "subType": "noteOff",
        "typeByte": 145,
        "deltaTime": 88,
        "channel": 1,
        "note": 30,
        "velocity": 0
      },
      {
        "type": "midi",
        "subType": "noteOn",
        "typeByte": 145,
        "deltaTime": 9,
        "channel": 1,
        "note": 38,
        "velocity": 127
      },
      {
        "type": "midi",
        "subType": "noteOff",
        "typeByte": 145,
        "deltaTime": 28,
        "channel": 1,
        "note": 38,
        "velocity": 0
      },
      {
        "type": "midi",
        "subType": "noteOn",
        "typeByte": 145,
        "deltaTime": 19,
        "channel": 1,
        "note": 38,
        "velocity": 127
      },
      {
        "type": "midi",
        "subType": "noteOff",
        "typeByte": 145,
        "deltaTime": 24,
        "channel": 1,
        "note": 38,
        "velocity": 0
      },
      {
        "type": "midi",
        "subType": "noteOn",
        "typeByte": 145,
        "deltaTime": 25,
        "channel": 1,
        "note": 38,
        "velocity": 127
      },
      {
        "type": "midi",
        "subType": "noteOff",
        "typeByte": 145,
        "deltaTime": 24,
        "channel": 1,
        "note": 38,
        "velocity": 0
      },
      {
        "type": "midi",
        "subType": "noteOn",
        "typeByte": 145,
        "deltaTime": 23,
        "channel": 1,
        "note": 38,
        "velocity": 127
      },
      {
        "type": "midi",
        "subType": "noteOff",
        "typeByte": 145,
        "deltaTime": 27,
        "channel": 1,
        "note": 38,
        "velocity": 0
      },
      {
        "type": "midi",
        "subType": "noteOn",
        "typeByte": 145,
        "deltaTime": 22,
        "channel": 1,
        "note": 38,
        "velocity": 127
      },
      {
        "type": "midi",
        "subType": "noteOff",
        "typeByte": 145,
        "deltaTime": 29,
        "channel": 1,
        "note": 38,
        "velocity": 0
      },
      {
        "type": "midi",
        "subType": "noteOn",
        "typeByte": 145,
        "deltaTime": 18,
        "channel": 1,
        "note": 38,
        "velocity": 127
      },
      {
        "type": "midi",
        "subType": "noteOff",
        "typeByte": 145,
        "deltaTime": 29,
        "channel": 1,
        "note": 38,
        "velocity": 0
      },
      {
        "type": "midi",
        "subType": "noteOn",
        "typeByte": 145,
        "deltaTime": 21,
        "channel": 1,
        "note": 38,
        "velocity": 127
      },
      {
        "type": "midi",
        "subType": "noteOff",
        "typeByte": 145,
        "deltaTime": 30,
        "channel": 1,
        "note": 38,
        "velocity": 0
      },
      {
        "type": "midi",
        "subType": "noteOn",
        "typeByte": 145,
        "deltaTime": 17,
        "channel": 1,
        "note": 38,
        "velocity": 127
      },
      {
        "type": "midi",
        "subType": "noteOff",
        "typeByte": 145,
        "deltaTime": 29,
        "channel": 1,
        "note": 38,
        "velocity": 0
      },
      {
        "type": "midi",
        "subType": "noteOn",
        "typeByte": 145,
        "deltaTime": 21,
        "channel": 1,
        "note": 33,
        "velocity": 127
      },
      {
        "type": "midi",
        "subType": "noteOff",
        "typeByte": 145,
        "deltaTime": 32,
        "channel": 1,
        "note": 33,
        "velocity": 0
      },
      {
        "type": "midi",
        "subType": "noteOn",
        "typeByte": 145,
        "deltaTime": 14,
        "channel": 1,
        "note": 33,
        "velocity": 127
      },
      {
        "type": "midi",
        "subType": "noteOff",
        "typeByte": 145,
        "deltaTime": 34,
        "channel": 1,
        "note": 33,
        "velocity": 0
      },
      {
        "type": "midi",
        "subType": "noteOn",
        "typeByte": 145,
        "deltaTime": 15,
        "channel": 1,
        "note": 33,
        "velocity": 127
      },
      {
        "type": "midi",
        "subType": "noteOff",
        "typeByte": 145,
        "deltaTime": 69,
        "channel": 1,
        "note": 33,
        "velocity": 0
      },
      {
        "type": "midi",
        "subType": "noteOn",
        "typeByte": 145,
        "deltaTime": 27,
        "channel": 1,
        "note": 33,
        "velocity": 127
      },
      {
        "type": "midi",
        "subType": "noteOff",
        "typeByte": 145,
        "deltaTime": 74,
        "channel": 1,
        "note": 33,
        "velocity": 0
      },
      {
        "type": "midi",
        "subType": "noteOn",
        "typeByte": 145,
        "deltaTime": 23,
        "channel": 1,
        "note": 33,
        "velocity": 127
      },
      {
        "type": "midi",
        "subType": "noteOff",
        "typeByte": 145,
        "deltaTime": 75,
        "channel": 1,
        "note": 33,
        "velocity": 0
      },
      {
        "type": "midi",
        "subType": "noteOn",
        "typeByte": 145,
        "deltaTime": 22,
        "channel": 1,
        "note": 32,
        "velocity": 127
      },
      {
        "type": "midi",
        "subType": "noteOff",
        "typeByte": 145,
        "deltaTime": 68,
        "channel": 1,
        "note": 32,
        "velocity": 0
      },
      {
        "type": "midi",
        "subType": "noteOn",
        "typeByte": 145,
        "deltaTime": 27,
        "channel": 1,
        "note": 32,
        "velocity": 127
      },
      {
        "type": "midi",
        "subType": "noteOff",
        "typeByte": 145,
        "deltaTime": 77,
        "channel": 1,
        "note": 32,
        "velocity": 0
      },
      {
        "type": "midi",
        "subType": "noteOn",
        "typeByte": 145,
        "deltaTime": 20,
        "channel": 1,
        "note": 32,
        "velocity": 127
      },
      {
        "type": "midi",
        "subType": "noteOff",
        "typeByte": 145,
        "deltaTime": 72,
        "channel": 1,
        "note": 32,
        "velocity": 0
      },
      {
        "type": "midi",
        "subType": "noteOn",
        "typeByte": 145,
        "deltaTime": 24,
        "channel": 1,
        "note": 32,
        "velocity": 127
      },
      {
        "type": "midi",
        "subType": "noteOff",
        "typeByte": 145,
        "deltaTime": 77,
        "channel": 1,
        "note": 32,
        "velocity": 0
      },
      {
        "type": "midi",
        "subType": "noteOn",
        "typeByte": 145,
        "deltaTime": 20,
        "channel": 1,
        "note": 30,
        "velocity": 127
      },
      {
        "type": "midi",
        "subType": "noteOff",
        "typeByte": 145,
        "deltaTime": 68,
        "channel": 1,
        "note": 30,
        "velocity": 0
      },
      {
        "type": "midi",
        "subType": "noteOn",
        "typeByte": 145,
        "deltaTime": 28,
        "channel": 1,
        "note": 30,
        "velocity": 127
      },
      {
        "type": "midi",
        "subType": "noteOff",
        "typeByte": 145,
        "deltaTime": 73,
        "channel": 1,
        "note": 30,
        "velocity": 0
      },
      {
        "type": "midi",
        "subType": "noteOn",
        "typeByte": 145,
        "deltaTime": 23,
        "channel": 1,
        "note": 30,
        "velocity": 127
      },
      {
        "type": "midi",
        "subType": "noteOff",
        "typeByte": 145,
        "deltaTime": 78,
        "channel": 1,
        "note": 30,
        "velocity": 0
      },
      {
        "type": "midi",
        "subType": "noteOn",
        "typeByte": 145,
        "deltaTime": 18,
        "channel": 1,
        "note": 30,
        "velocity": 127
      },
      {
        "type": "midi",
        "subType": "noteOff",
        "typeByte": 145,
        "deltaTime": 75,
        "channel": 1,
        "note": 30,
        "velocity": 0
      },
      {
        "type": "midi",
        "subType": "noteOn",
        "typeByte": 145,
        "deltaTime": 22,
        "channel": 1,
        "note": 38,
        "velocity": 127
      },
      {
        "type": "midi",
        "subType": "noteOff",
        "typeByte": 145,
        "deltaTime": 30,
        "channel": 1,
        "note": 38,
        "velocity": 0
      },
      {
        "type": "midi",
        "subType": "noteOn",
        "typeByte": 145,
        "deltaTime": 16,
        "channel": 1,
        "note": 38,
        "velocity": 127
      },
      {
        "type": "midi",
        "subType": "noteOff",
        "typeByte": 145,
        "deltaTime": 27,
        "channel": 1,
        "note": 38,
        "velocity": 0
      },
      {
        "type": "midi",
        "subType": "noteOn",
        "typeByte": 145,
        "deltaTime": 23,
        "channel": 1,
        "note": 38,
        "velocity": 127
      },
      {
        "type": "midi",
        "subType": "noteOff",
        "typeByte": 145,
        "deltaTime": 24,
        "channel": 1,
        "note": 38,
        "velocity": 0
      },
      {
        "type": "midi",
        "subType": "noteOn",
        "typeByte": 145,
        "deltaTime": 23,
        "channel": 1,
        "note": 38,
        "velocity": 127
      },
      {
        "type": "midi",
        "subType": "noteOff",
        "typeByte": 145,
        "deltaTime": 25,
        "channel": 1,
        "note": 38,
        "velocity": 0
      },
      {
        "type": "midi",
        "subType": "noteOn",
        "typeByte": 145,
        "deltaTime": 24,
        "channel": 1,
        "note": 38,
        "velocity": 127
      },
      {
        "type": "midi",
        "subType": "noteOff",
        "typeByte": 145,
        "deltaTime": 26,
        "channel": 1,
        "note": 38,
        "velocity": 0
      },
      {
        "type": "midi",
        "subType": "noteOn",
        "typeByte": 145,
        "deltaTime": 21,
        "channel": 1,
        "note": 38,
        "velocity": 127
      },
      {
        "type": "midi",
        "subType": "noteOff",
        "typeByte": 145,
        "deltaTime": 30,
        "channel": 1,
        "note": 38,
        "velocity": 0
      },
      {
        "type": "midi",
        "subType": "noteOn",
        "typeByte": 145,
        "deltaTime": 19,
        "channel": 1,
        "note": 38,
        "velocity": 127
      },
      {
        "type": "midi",
        "subType": "noteOff",
        "typeByte": 145,
        "deltaTime": 24,
        "channel": 1,
        "note": 38,
        "velocity": 0
      },
      {
        "type": "midi",
        "subType": "noteOn",
        "typeByte": 145,
        "deltaTime": 23,
        "channel": 1,
        "note": 38,
        "velocity": 127
      },
      {
        "type": "midi",
        "subType": "noteOff",
        "typeByte": 145,
        "deltaTime": 26,
        "channel": 1,
        "note": 38,
        "velocity": 0
      },
      {
        "type": "midi",
        "subType": "noteOn",
        "typeByte": 145,
        "deltaTime": 25,
        "channel": 1,
        "note": 33,
        "velocity": 127
      },
      {
        "type": "midi",
        "subType": "noteOff",
        "typeByte": 145,
        "deltaTime": 33,
        "channel": 1,
        "note": 33,
        "velocity": 0
      },
      {
        "type": "midi",
        "subType": "noteOn",
        "typeByte": 145,
        "deltaTime": 13,
        "channel": 1,
        "note": 33,
        "velocity": 127
      },
      {
        "type": "midi",
        "subType": "noteOff",
        "typeByte": 145,
        "deltaTime": 29,
        "channel": 1,
        "note": 33,
        "velocity": 0
      },
      {
        "type": "midi",
        "subType": "noteOn",
        "typeByte": 145,
        "deltaTime": 20,
        "channel": 1,
        "note": 33,
        "velocity": 127
      },
      {
        "type": "midi",
        "subType": "noteOff",
        "typeByte": 145,
        "deltaTime": 70,
        "channel": 1,
        "note": 33,
        "velocity": 0
      },
      {
        "type": "midi",
        "subType": "noteOn",
        "typeByte": 145,
        "deltaTime": 26,
        "channel": 1,
        "note": 33,
        "velocity": 127
      },
      {
        "type": "midi",
        "subType": "noteOff",
        "typeByte": 145,
        "deltaTime": 67,
        "channel": 1,
        "note": 33,
        "velocity": 0
      },
      {
        "type": "midi",
        "subType": "noteOn",
        "typeByte": 145,
        "deltaTime": 30,
        "channel": 1,
        "note": 33,
        "velocity": 127
      },
      {
        "type": "midi",
        "subType": "noteOff",
        "typeByte": 145,
        "deltaTime": 65,
        "channel": 1,
        "note": 33,
        "velocity": 0
      },
      {
        "type": "midi",
        "subType": "noteOn",
        "typeByte": 145,
        "deltaTime": 31,
        "channel": 1,
        "note": 32,
        "velocity": 127
      },
      {
        "type": "midi",
        "subType": "noteOff",
        "typeByte": 145,
        "deltaTime": 66,
        "channel": 1,
        "note": 32,
        "velocity": 0
      },
      {
        "type": "midi",
        "subType": "noteOn",
        "typeByte": 145,
        "deltaTime": 30,
        "channel": 1,
        "note": 32,
        "velocity": 127
      },
      {
        "type": "midi",
        "subType": "noteOff",
        "typeByte": 145,
        "deltaTime": 74,
        "channel": 1,
        "note": 32,
        "velocity": 0
      },
      {
        "type": "midi",
        "subType": "noteOn",
        "typeByte": 145,
        "deltaTime": 22,
        "channel": 1,
        "note": 32,
        "velocity": 127
      },
      {
        "type": "midi",
        "subType": "noteOff",
        "typeByte": 145,
        "deltaTime": 68,
        "channel": 1,
        "note": 32,
        "velocity": 0
      },
      {
        "type": "midi",
        "subType": "noteOn",
        "typeByte": 145,
        "deltaTime": 29,
        "channel": 1,
        "note": 32,
        "velocity": 127
      },
      {
        "type": "midi",
        "subType": "noteOff",
        "typeByte": 145,
        "deltaTime": 75,
        "channel": 1,
        "note": 32,
        "velocity": 0
      },
      {
        "type": "midi",
        "subType": "noteOn",
        "typeByte": 145,
        "deltaTime": 22,
        "channel": 1,
        "note": 30,
        "velocity": 127
      },
      {
        "type": "midi",
        "subType": "noteOff",
        "typeByte": 145,
        "deltaTime": 72,
        "channel": 1,
        "note": 30,
        "velocity": 0
      },
      {
        "type": "midi",
        "subType": "noteOn",
        "typeByte": 145,
        "deltaTime": 23,
        "channel": 1,
        "note": 30,
        "velocity": 127
      },
      {
        "type": "midi",
        "subType": "noteOff",
        "typeByte": 145,
        "deltaTime": 69,
        "channel": 1,
        "note": 30,
        "velocity": 0
      },
      {
        "type": "midi",
        "subType": "noteOn",
        "typeByte": 145,
        "deltaTime": 27,
        "channel": 1,
        "note": 30,
        "velocity": 127
      },
      {
        "type": "midi",
        "subType": "noteOff",
        "typeByte": 145,
        "deltaTime": 76,
        "channel": 1,
        "note": 30,
        "velocity": 0
      },
      {
        "type": "midi",
        "subType": "noteOn",
        "typeByte": 145,
        "deltaTime": 21,
        "channel": 1,
        "note": 30,
        "velocity": 127
      },
      {
        "type": "midi",
        "subType": "noteOff",
        "typeByte": 145,
        "deltaTime": 87,
        "channel": 1,
        "note": 30,
        "velocity": 0
      },
      {
        "type": "midi",
        "subType": "noteOn",
        "typeByte": 145,
        "deltaTime": 9,
        "channel": 1,
        "note": 38,
        "velocity": 127
      },
      {
        "type": "midi",
        "subType": "noteOff",
        "typeByte": 145,
        "deltaTime": 28,
        "channel": 1,
        "note": 38,
        "velocity": 0
      },
      {
        "type": "midi",
        "subType": "noteOn",
        "typeByte": 145,
        "deltaTime": 19,
        "channel": 1,
        "note": 38,
        "velocity": 127
      },
      {
        "type": "midi",
        "subType": "noteOff",
        "typeByte": 145,
        "deltaTime": 24,
        "channel": 1,
        "note": 38,
        "velocity": 0
      },
      {
        "type": "midi",
        "subType": "noteOn",
        "typeByte": 145,
        "deltaTime": 26,
        "channel": 1,
        "note": 38,
        "velocity": 127
      },
      {
        "type": "midi",
        "subType": "noteOff",
        "typeByte": 145,
        "deltaTime": 23,
        "channel": 1,
        "note": 38,
        "velocity": 0
      },
      {
        "type": "midi",
        "subType": "noteOn",
        "typeByte": 145,
        "deltaTime": 24,
        "channel": 1,
        "note": 38,
        "velocity": 127
      },
      {
        "type": "midi",
        "subType": "noteOff",
        "typeByte": 145,
        "deltaTime": 26,
        "channel": 1,
        "note": 38,
        "velocity": 0
      },
      {
        "type": "midi",
        "subType": "noteOn",
        "typeByte": 145,
        "deltaTime": 23,
        "channel": 1,
        "note": 38,
        "velocity": 127
      },
      {
        "type": "midi",
        "subType": "noteOff",
        "typeByte": 145,
        "deltaTime": 29,
        "channel": 1,
        "note": 38,
        "velocity": 0
      },
      {
        "type": "midi",
        "subType": "noteOn",
        "typeByte": 145,
        "deltaTime": 18,
        "channel": 1,
        "note": 38,
        "velocity": 127
      },
      {
        "type": "midi",
        "subType": "noteOff",
        "typeByte": 145,
        "deltaTime": 28,
        "channel": 1,
        "note": 38,
        "velocity": 0
      },
      {
        "type": "midi",
        "subType": "noteOn",
        "typeByte": 145,
        "deltaTime": 21,
        "channel": 1,
        "note": 38,
        "velocity": 127
      },
      {
        "type": "midi",
        "subType": "noteOff",
        "typeByte": 145,
        "deltaTime": 31,
        "channel": 1,
        "note": 38,
        "velocity": 0
      },
      {
        "type": "midi",
        "subType": "noteOn",
        "typeByte": 145,
        "deltaTime": 16,
        "channel": 1,
        "note": 38,
        "velocity": 127
      },
      {
        "type": "midi",
        "subType": "noteOff",
        "typeByte": 145,
        "deltaTime": 30,
        "channel": 1,
        "note": 38,
        "velocity": 0
      },
      {
        "type": "midi",
        "subType": "noteOn",
        "typeByte": 145,
        "deltaTime": 21,
        "channel": 1,
        "note": 33,
        "velocity": 127
      },
      {
        "type": "midi",
        "subType": "noteOff",
        "typeByte": 145,
        "deltaTime": 33,
        "channel": 1,
        "note": 33,
        "velocity": 0
      },
      {
        "type": "midi",
        "subType": "noteOn",
        "typeByte": 145,
        "deltaTime": 12,
        "channel": 1,
        "note": 33,
        "velocity": 127
      },
      {
        "type": "midi",
        "subType": "noteOff",
        "typeByte": 145,
        "deltaTime": 30,
        "channel": 1,
        "note": 33,
        "velocity": 0
      },
      {
        "type": "midi",
        "subType": "noteOn",
        "typeByte": 145,
        "deltaTime": 20,
        "channel": 1,
        "note": 33,
        "velocity": 127
      },
      {
        "type": "midi",
        "subType": "noteOff",
        "typeByte": 145,
        "deltaTime": 70,
        "channel": 1,
        "note": 33,
        "velocity": 0
      },
      {
        "type": "midi",
        "subType": "noteOn",
        "typeByte": 145,
        "deltaTime": 26,
        "channel": 1,
        "note": 33,
        "velocity": 127
      },
      {
        "type": "midi",
        "subType": "noteOff",
        "typeByte": 145,
        "deltaTime": 67,
        "channel": 1,
        "note": 33,
        "velocity": 0
      },
      {
        "type": "midi",
        "subType": "noteOn",
        "typeByte": 145,
        "deltaTime": 29,
        "channel": 1,
        "note": 33,
        "velocity": 127
      },
      {
        "type": "midi",
        "subType": "noteOff",
        "typeByte": 145,
        "deltaTime": 66,
        "channel": 1,
        "note": 33,
        "velocity": 0
      },
      {
        "type": "midi",
        "subType": "noteOn",
        "typeByte": 145,
        "deltaTime": 31,
        "channel": 1,
        "note": 32,
        "velocity": 127
      },
      {
        "type": "midi",
        "subType": "noteOff",
        "typeByte": 145,
        "deltaTime": 65,
        "channel": 1,
        "note": 32,
        "velocity": 0
      },
      {
        "type": "midi",
        "subType": "noteOn",
        "typeByte": 145,
        "deltaTime": 31,
        "channel": 1,
        "note": 32,
        "velocity": 127
      },
      {
        "type": "midi",
        "subType": "noteOff",
        "typeByte": 145,
        "deltaTime": 74,
        "channel": 1,
        "note": 32,
        "velocity": 0
      },
      {
        "type": "midi",
        "subType": "noteOn",
        "typeByte": 145,
        "deltaTime": 22,
        "channel": 1,
        "note": 32,
        "velocity": 127
      },
      {
        "type": "midi",
        "subType": "noteOff",
        "typeByte": 145,
        "deltaTime": 67,
        "channel": 1,
        "note": 32,
        "velocity": 0
      },
      {
        "type": "midi",
        "subType": "noteOn",
        "typeByte": 145,
        "deltaTime": 30,
        "channel": 1,
        "note": 32,
        "velocity": 127
      },
      {
        "type": "midi",
        "subType": "noteOff",
        "typeByte": 145,
        "deltaTime": 75,
        "channel": 1,
        "note": 32,
        "velocity": 0
      },
      {
        "type": "midi",
        "subType": "noteOn",
        "typeByte": 145,
        "deltaTime": 22,
        "channel": 1,
        "note": 30,
        "velocity": 127
      },
      {
        "type": "midi",
        "subType": "noteOff",
        "typeByte": 145,
        "deltaTime": 72,
        "channel": 1,
        "note": 30,
        "velocity": 0
      },
      {
        "type": "midi",
        "subType": "noteOn",
        "typeByte": 145,
        "deltaTime": 23,
        "channel": 1,
        "note": 30,
        "velocity": 127
      },
      {
        "type": "midi",
        "subType": "noteOff",
        "typeByte": 145,
        "deltaTime": 69,
        "channel": 1,
        "note": 30,
        "velocity": 0
      },
      {
        "type": "midi",
        "subType": "noteOn",
        "typeByte": 145,
        "deltaTime": 27,
        "channel": 1,
        "note": 30,
        "velocity": 127
      },
      {
        "type": "midi",
        "subType": "noteOff",
        "typeByte": 145,
        "deltaTime": 76,
        "channel": 1,
        "note": 30,
        "velocity": 0
      },
      {
        "type": "midi",
        "subType": "noteOn",
        "typeByte": 145,
        "deltaTime": 21,
        "channel": 1,
        "note": 30,
        "velocity": 127
      },
      {
        "type": "midi",
        "subType": "noteOff",
        "typeByte": 145,
        "deltaTime": 87,
        "channel": 1,
        "note": 30,
        "velocity": 0
      },
      {
        "type": "midi",
        "subType": "noteOn",
        "typeByte": 145,
        "deltaTime": 9,
        "channel": 1,
        "note": 38,
        "velocity": 127
      },
      {
        "type": "midi",
        "subType": "noteOff",
        "typeByte": 145,
        "deltaTime": 28,
        "channel": 1,
        "note": 38,
        "velocity": 0
      },
      {
        "type": "midi",
        "subType": "noteOn",
        "typeByte": 145,
        "deltaTime": 19,
        "channel": 1,
        "note": 38,
        "velocity": 127
      },
      {
        "type": "midi",
        "subType": "noteOff",
        "typeByte": 145,
        "deltaTime": 24,
        "channel": 1,
        "note": 38,
        "velocity": 0
      },
      {
        "type": "midi",
        "subType": "noteOn",
        "typeByte": 145,
        "deltaTime": 25,
        "channel": 1,
        "note": 38,
        "velocity": 127
      },
      {
        "type": "midi",
        "subType": "noteOff",
        "typeByte": 145,
        "deltaTime": 24,
        "channel": 1,
        "note": 38,
        "velocity": 0
      },
      {
        "type": "midi",
        "subType": "noteOn",
        "typeByte": 145,
        "deltaTime": 23,
        "channel": 1,
        "note": 38,
        "velocity": 127
      },
      {
        "type": "midi",
        "subType": "noteOff",
        "typeByte": 145,
        "deltaTime": 27,
        "channel": 1,
        "note": 38,
        "velocity": 0
      },
      {
        "type": "midi",
        "subType": "noteOn",
        "typeByte": 145,
        "deltaTime": 22,
        "channel": 1,
        "note": 38,
        "velocity": 127
      },
      {
        "type": "midi",
        "subType": "noteOff",
        "typeByte": 145,
        "deltaTime": 30,
        "channel": 1,
        "note": 38,
        "velocity": 0
      },
      {
        "type": "midi",
        "subType": "noteOn",
        "typeByte": 145,
        "deltaTime": 17,
        "channel": 1,
        "note": 38,
        "velocity": 127
      },
      {
        "type": "midi",
        "subType": "noteOff",
        "typeByte": 145,
        "deltaTime": 29,
        "channel": 1,
        "note": 38,
        "velocity": 0
      },
      {
        "type": "midi",
        "subType": "noteOn",
        "typeByte": 145,
        "deltaTime": 21,
        "channel": 1,
        "note": 38,
        "velocity": 127
      },
      {
        "type": "midi",
        "subType": "noteOff",
        "typeByte": 145,
        "deltaTime": 31,
        "channel": 1,
        "note": 38,
        "velocity": 0
      },
      {
        "type": "midi",
        "subType": "noteOn",
        "typeByte": 145,
        "deltaTime": 16,
        "channel": 1,
        "note": 38,
        "velocity": 127
      },
      {
        "type": "midi",
        "subType": "noteOff",
        "typeByte": 145,
        "deltaTime": 29,
        "channel": 1,
        "note": 38,
        "velocity": 0
      },
      {
        "type": "midi",
        "subType": "noteOn",
        "typeByte": 145,
        "deltaTime": 22,
        "channel": 1,
        "note": 33,
        "velocity": 127
      },
      {
        "type": "midi",
        "subType": "noteOff",
        "typeByte": 145,
        "deltaTime": 31,
        "channel": 1,
        "note": 33,
        "velocity": 0
      },
      {
        "type": "midi",
        "subType": "noteOn",
        "typeByte": 145,
        "deltaTime": 14,
        "channel": 1,
        "note": 33,
        "velocity": 127
      },
      {
        "type": "midi",
        "subType": "noteOff",
        "typeByte": 145,
        "deltaTime": 34,
        "channel": 1,
        "note": 33,
        "velocity": 0
      },
      {
        "type": "midi",
        "subType": "noteOn",
        "typeByte": 145,
        "deltaTime": 15,
        "channel": 1,
        "note": 33,
        "velocity": 127
      },
      {
        "type": "midi",
        "subType": "noteOff",
        "typeByte": 145,
        "deltaTime": 69,
        "channel": 1,
        "note": 33,
        "velocity": 0
      },
      {
        "type": "midi",
        "subType": "noteOn",
        "typeByte": 145,
        "deltaTime": 27,
        "channel": 1,
        "note": 33,
        "velocity": 127
      },
      {
        "type": "midi",
        "subType": "noteOff",
        "typeByte": 145,
        "deltaTime": 75,
        "channel": 1,
        "note": 33,
        "velocity": 0
      },
      {
        "type": "midi",
        "subType": "noteOn",
        "typeByte": 145,
        "deltaTime": 22,
        "channel": 1,
        "note": 33,
        "velocity": 127
      },
      {
        "type": "midi",
        "subType": "controller",
        "typeByte": 177,
        "deltaTime": 50,
        "channel": 1,
        "controllerType": 7,
        "value": 99
      },
      {
        "type": "midi",
        "subType": "controller",
        "typeByte": 177,
        "deltaTime": 22,
        "channel": 1,
        "controllerType": 7,
        "value": 98
      },
      {
        "type": "midi",
        "subType": "noteOff",
        "typeByte": 145,
        "deltaTime": 3,
        "channel": 1,
        "note": 33,
        "velocity": 0
      },
      {
        "type": "midi",
        "subType": "noteOn",
        "typeByte": 145,
        "deltaTime": 23,
        "channel": 1,
        "note": 32,
        "velocity": 127
      },
      {
        "type": "midi",
        "subType": "controller",
        "typeByte": 177,
        "deltaTime": 2,
        "channel": 1,
        "controllerType": 7,
        "value": 97
      },
      {
        "type": "midi",
        "subType": "controller",
        "typeByte": 177,
        "deltaTime": 30,
        "channel": 1,
        "controllerType": 7,
        "value": 96
      },
      {
        "type": "midi",
        "subType": "controller",
        "typeByte": 177,
        "deltaTime": 11,
        "channel": 1,
        "controllerType": 7,
        "value": 95
      },
      {
        "type": "midi",
        "subType": "controller",
        "typeByte": 177,
        "deltaTime": 18,
        "channel": 1,
        "controllerType": 7,
        "value": 94
      },
      {
        "type": "midi",
        "subType": "noteOff",
        "typeByte": 145,
        "deltaTime": 6,
        "channel": 1,
        "note": 32,
        "velocity": 0
      },
      {
        "type": "midi",
        "subType": "noteOn",
        "typeByte": 145,
        "deltaTime": 28,
        "channel": 1,
        "note": 32,
        "velocity": 127
      },
      {
        "type": "midi",
        "subType": "controller",
        "typeByte": 177,
        "deltaTime": 9,
        "channel": 1,
        "controllerType": 7,
        "value": 93
      },
      {
        "type": "midi",
        "subType": "controller",
        "typeByte": 177,
        "deltaTime": 33,
        "channel": 1,
        "controllerType": 7,
        "value": 92
      },
      {
        "type": "midi",
        "subType": "controller",
        "typeByte": 177,
        "deltaTime": 28,
        "channel": 1,
        "controllerType": 7,
        "value": 91
      },
      {
        "type": "midi",
        "subType": "noteOff",
        "typeByte": 145,
        "deltaTime": 6,
        "channel": 1,
        "note": 32,
        "velocity": 0
      },
      {
        "type": "midi",
        "subType": "noteOn",
        "typeByte": 145,
        "deltaTime": 20,
        "channel": 1,
        "note": 32,
        "velocity": 127
      },
      {
        "type": "midi",
        "subType": "controller",
        "typeByte": 177,
        "deltaTime": 40,
        "channel": 1,
        "controllerType": 7,
        "value": 90
      },
      {
        "type": "midi",
        "subType": "noteOff",
        "typeByte": 145,
        "deltaTime": 32,
        "channel": 1,
        "note": 32,
        "velocity": 0
      },
      {
        "type": "midi",
        "subType": "controller",
        "typeByte": 177,
        "deltaTime": 15,
        "channel": 1,
        "controllerType": 7,
        "value": 89
      },
      {
        "type": "midi",
        "subType": "noteOn",
        "typeByte": 145,
        "deltaTime": 9,
        "channel": 1,
        "note": 32,
        "velocity": 127
      },
      {
        "type": "midi",
        "subType": "controller",
        "typeByte": 177,
        "deltaTime": 30,
        "channel": 1,
        "controllerType": 7,
        "value": 88
      },
      {
        "type": "midi",
        "subType": "controller",
        "typeByte": 177,
        "deltaTime": 18,
        "channel": 1,
        "controllerType": 7,
        "value": 87
      },
      {
        "type": "midi",
        "subType": "noteOff",
        "typeByte": 145,
        "deltaTime": 29,
        "channel": 1,
        "note": 32,
        "velocity": 0
      },
      {
        "type": "midi",
        "subType": "controller",
        "typeByte": 177,
        "deltaTime": 19,
        "channel": 1,
        "controllerType": 7,
        "value": 86
      },
      {
        "type": "midi",
        "subType": "noteOn",
        "typeByte": 145,
        "deltaTime": 2,
        "channel": 1,
        "note": 30,
        "velocity": 127
      },
      {
        "type": "midi",
        "subType": "controller",
        "typeByte": 177,
        "deltaTime": 11,
        "channel": 1,
        "controllerType": 7,
        "value": 85
      },
      {
        "type": "midi",
        "subType": "controller",
        "typeByte": 177,
        "deltaTime": 15,
        "channel": 1,
        "controllerType": 7,
        "value": 84
      },
      {
        "type": "midi",
        "subType": "controller",
        "typeByte": 177,
        "deltaTime": 8,
        "channel": 1,
        "controllerType": 7,
        "value": 83
      },
      {
        "type": "midi",
        "subType": "controller",
        "typeByte": 177,
        "deltaTime": 22,
        "channel": 1,
        "controllerType": 7,
        "value": 82
      },
      {
        "type": "midi",
        "subType": "noteOff",
        "typeByte": 145,
        "deltaTime": 11,
        "channel": 1,
        "note": 30,
        "velocity": 0
      },
      {
        "type": "midi",
        "subType": "noteOn",
        "typeByte": 145,
        "deltaTime": 28,
        "channel": 1,
        "note": 30,
        "velocity": 127
      },
      {
        "type": "midi",
        "subType": "controller",
        "typeByte": 177,
        "deltaTime": 11,
        "channel": 1,
        "controllerType": 7,
        "value": 81
      },
      {
        "type": "midi",
        "subType": "controller",
        "typeByte": 177,
        "deltaTime": 29,
        "channel": 1,
        "controllerType": 7,
        "value": 80
      },
      {
        "type": "midi",
        "subType": "controller",
        "typeByte": 177,
        "deltaTime": 25,
        "channel": 1,
        "controllerType": 7,
        "value": 79
      },
      {
        "type": "midi",
        "subType": "noteOff",
        "typeByte": 145,
        "deltaTime": 9,
        "channel": 1,
        "note": 30,
        "velocity": 0
      },
      {
        "type": "midi",
        "subType": "noteOn",
        "typeByte": 145,
        "deltaTime": 22,
        "channel": 1,
        "note": 30,
        "velocity": 127
      },
      {
        "type": "midi",
        "subType": "controller",
        "typeByte": 177,
        "deltaTime": 13,
        "channel": 1,
        "controllerType": 7,
        "value": 78
      },
      {
        "type": "midi",
        "subType": "controller",
        "typeByte": 177,
        "deltaTime": 28,
        "channel": 1,
        "controllerType": 7,
        "value": 77
      },
      {
        "type": "midi",
        "subType": "controller",
        "typeByte": 177,
        "deltaTime": 15,
        "channel": 1,
        "controllerType": 7,
        "value": 76
      },
      {
        "type": "midi",
        "subType": "noteOff",
        "typeByte": 145,
        "deltaTime": 22,
        "channel": 1,
        "note": 30,
        "velocity": 0
      },
      {
        "type": "midi",
        "subType": "controller",
        "typeByte": 177,
        "deltaTime": 15,
        "channel": 1,
        "controllerType": 7,
        "value": 75
      },
      {
        "type": "midi",
        "subType": "noteOn",
        "typeByte": 145,
        "deltaTime": 4,
        "channel": 1,
        "note": 30,
        "velocity": 127
      },
      {
        "type": "midi",
        "subType": "controller",
        "typeByte": 177,
        "deltaTime": 20,
        "channel": 1,
        "controllerType": 7,
        "value": 74
      },
      {
        "type": "midi",
        "subType": "controller",
        "typeByte": 177,
        "deltaTime": 15,
        "channel": 1,
        "controllerType": 7,
        "value": 73
      },
      {
        "type": "midi",
        "subType": "controller",
        "typeByte": 177,
        "deltaTime": 15,
        "channel": 1,
        "controllerType": 7,
        "value": 72
      },
      {
        "type": "midi",
        "subType": "controller",
        "typeByte": 177,
        "deltaTime": 22,
        "channel": 1,
        "controllerType": 7,
        "value": 71
      },
      {
        "type": "midi",
        "subType": "noteOff",
        "typeByte": 145,
        "deltaTime": 3,
        "channel": 1,
        "note": 30,
        "velocity": 0
      },
      {
        "type": "midi",
        "subType": "controller",
        "typeByte": 177,
        "deltaTime": 18,
        "channel": 1,
        "controllerType": 7,
        "value": 70
      },
      {
        "type": "midi",
        "subType": "noteOn",
        "typeByte": 145,
        "deltaTime": 3,
        "channel": 1,
        "note": 38,
        "velocity": 127
      },
      {
        "type": "midi",
        "subType": "controller",
        "typeByte": 177,
        "deltaTime": 28,
        "channel": 1,
        "controllerType": 7,
        "value": 69
      },
      {
        "type": "midi",
        "subType": "noteOff",
        "typeByte": 145,
        "deltaTime": 2,
        "channel": 1,
        "note": 38,
        "velocity": 0
      },
      {
        "type": "midi",
        "subType": "controller",
        "typeByte": 177,
        "deltaTime": 8,
        "channel": 1,
        "controllerType": 7,
        "value": 68
      },
      {
        "type": "midi",
        "subType": "noteOn",
        "typeByte": 145,
        "deltaTime": 9,
        "channel": 1,
        "note": 38,
        "velocity": 127
      },
      {
        "type": "midi",
        "subType": "controller",
        "typeByte": 177,
        "deltaTime": 2,
        "channel": 1,
        "controllerType": 7,
        "value": 67
      },
      {
        "type": "midi",
        "subType": "controller",
        "typeByte": 177,
        "deltaTime": 4,
        "channel": 1,
        "controllerType": 7,
        "value": 66
      },
      {
        "type": "midi",
        "subType": "controller",
        "typeByte": 177,
        "deltaTime": 11,
        "channel": 1,
        "controllerType": 7,
        "value": 65
      },
      {
        "type": "midi",
        "subType": "noteOff",
        "typeByte": 145,
        "deltaTime": 10,
        "channel": 1,
        "note": 38,
        "velocity": 0
      },
      {
        "type": "midi",
        "subType": "controller",
        "typeByte": 177,
        "deltaTime": 19,
        "channel": 1,
        "controllerType": 7,
        "value": 64
      },
      {
        "type": "midi",
        "subType": "noteOn",
        "typeByte": 145,
        "deltaTime": 3,
        "channel": 1,
        "note": 38,
        "velocity": 127
      },
      {
        "type": "midi",
        "subType": "controller",
        "typeByte": 177,
        "deltaTime": 12,
        "channel": 1,
        "controllerType": 7,
        "value": 63
      },
      {
        "type": "midi",
        "subType": "noteOff",
        "typeByte": 145,
        "deltaTime": 12,
        "channel": 1,
        "note": 38,
        "velocity": 0
      },
      {
        "type": "midi",
        "subType": "noteOn",
        "typeByte": 145,
        "deltaTime": 23,
        "channel": 1,
        "note": 38,
        "velocity": 127
      },
      {
        "type": "midi",
        "subType": "controller",
        "typeByte": 177,
        "deltaTime": 12,
        "channel": 1,
        "controllerType": 7,
        "value": 62
      },
      {
        "type": "midi",
        "subType": "noteOff",
        "typeByte": 145,
        "deltaTime": 14,
        "channel": 1,
        "note": 38,
        "velocity": 0
      },
      {
        "type": "midi",
        "subType": "noteOn",
        "typeByte": 145,
        "deltaTime": 23,
        "channel": 1,
        "note": 38,
        "velocity": 127
      },
      {
        "type": "midi",
        "subType": "noteOff",
        "typeByte": 145,
        "deltaTime": 27,
        "channel": 1,
        "note": 38,
        "velocity": 0
      },
      {
        "type": "midi",
        "subType": "controller",
        "typeByte": 177,
        "deltaTime": 0,
        "channel": 1,
        "controllerType": 7,
        "value": 61
      },
      {
        "type": "midi",
        "subType": "controller",
        "typeByte": 177,
        "deltaTime": 22,
        "channel": 1,
        "controllerType": 7,
        "value": 60
      },
      {
        "type": "midi",
        "subType": "noteOn",
        "typeByte": 145,
        "deltaTime": 0,
        "channel": 1,
        "note": 38,
        "velocity": 127
      },
      {
        "type": "midi",
        "subType": "noteOff",
        "typeByte": 145,
        "deltaTime": 28,
        "channel": 1,
        "note": 38,
        "velocity": 0
      },
      {
        "type": "midi",
        "subType": "controller",
        "typeByte": 177,
        "deltaTime": 5,
        "channel": 1,
        "controllerType": 7,
        "value": 59
      },
      {
        "type": "midi",
        "subType": "noteOn",
        "typeByte": 145,
        "deltaTime": 15,
        "channel": 1,
        "note": 38,
        "velocity": 127
      },
      {
        "type": "midi",
        "subType": "controller",
        "typeByte": 177,
        "deltaTime": 17,
        "channel": 1,
        "controllerType": 7,
        "value": 58
      },
      {
        "type": "midi",
        "subType": "noteOff",
        "typeByte": 145,
        "deltaTime": 6,
        "channel": 1,
        "note": 38,
        "velocity": 0
      },
      {
        "type": "midi",
        "subType": "noteOn",
        "typeByte": 145,
        "deltaTime": 24,
        "channel": 1,
        "note": 38,
        "velocity": 127
      },
      {
        "type": "midi",
        "subType": "controller",
        "typeByte": 177,
        "deltaTime": 13,
        "channel": 1,
        "controllerType": 7,
        "value": 57
      },
      {
        "type": "midi",
        "subType": "noteOff",
        "typeByte": 145,
        "deltaTime": 12,
        "channel": 1,
        "note": 38,
        "velocity": 0
      },
      {
        "type": "midi",
        "subType": "controller",
        "typeByte": 177,
        "deltaTime": 27,
        "channel": 1,
        "controllerType": 7,
        "value": 56
      },
      {
        "type": "midi",
        "subType": "noteOn",
        "typeByte": 145,
        "deltaTime": 0,
        "channel": 1,
        "note": 33,
        "velocity": 127
      },
      {
        "type": "midi",
        "subType": "controller",
        "typeByte": 177,
        "deltaTime": 26,
        "channel": 1,
        "controllerType": 7,
        "value": 55
      },
      {
        "type": "midi",
        "subType": "noteOff",
        "typeByte": 145,
        "deltaTime": 5,
        "channel": 1,
        "note": 33,
        "velocity": 0
      },
      {
        "type": "midi",
        "subType": "controller",
        "typeByte": 177,
        "deltaTime": 10,
        "channel": 1,
        "controllerType": 7,
        "value": 54
      },
      {
        "type": "midi",
        "subType": "noteOn",
        "typeByte": 145,
        "deltaTime": 3,
        "channel": 1,
        "note": 33,
        "velocity": 127
      },
      {
        "type": "midi",
        "subType": "controller",
        "typeByte": 177,
        "deltaTime": 19,
        "channel": 1,
        "controllerType": 7,
        "value": 53
      },
      {
        "type": "midi",
        "subType": "noteOff",
        "typeByte": 145,
        "deltaTime": 10,
        "channel": 1,
        "note": 33,
        "velocity": 0
      },
      {
        "type": "midi",
        "subType": "noteOn",
        "typeByte": 145,
        "deltaTime": 20,
        "channel": 1,
        "note": 33,
        "velocity": 127
      },
      {
        "type": "midi",
        "subType": "controller",
        "typeByte": 177,
        "deltaTime": 27,
        "channel": 1,
        "controllerType": 7,
        "value": 52
      },
      {
        "type": "midi",
        "subType": "controller",
        "typeByte": 177,
        "deltaTime": 28,
        "channel": 1,
        "controllerType": 7,
        "value": 51
      },
      {
        "type": "midi",
        "subType": "noteOff",
        "typeByte": 145,
        "deltaTime": 15,
        "channel": 1,
        "note": 33,
        "velocity": 0
      },
      {
        "type": "midi",
        "subType": "controller",
        "typeByte": 177,
        "deltaTime": 12,
        "channel": 1,
        "controllerType": 7,
        "value": 50
      },
      {
        "type": "midi",
        "subType": "controller",
        "typeByte": 177,
        "deltaTime": 10,
        "channel": 1,
        "controllerType": 7,
        "value": 49
      },
      {
        "type": "midi",
        "subType": "noteOn",
        "typeByte": 145,
        "deltaTime": 4,
        "channel": 1,
        "note": 33,
        "velocity": 127
      },
      {
        "type": "midi",
        "subType": "controller",
        "typeByte": 177,
        "deltaTime": 15,
        "channel": 1,
        "controllerType": 7,
        "value": 48
      },
      {
        "type": "midi",
        "subType": "controller",
        "typeByte": 177,
        "deltaTime": 43,
        "channel": 1,
        "controllerType": 7,
        "value": 47
      },
      {
        "type": "midi",
        "subType": "noteOff",
        "typeByte": 145,
        "deltaTime": 9,
        "channel": 1,
        "note": 33,
        "velocity": 0
      },
      {
        "type": "midi",
        "subType": "controller",
        "typeByte": 177,
        "deltaTime": 9,
        "channel": 1,
        "controllerType": 7,
        "value": 46
      },
      {
        "type": "midi",
        "subType": "controller",
        "typeByte": 177,
        "deltaTime": 22,
        "channel": 1,
        "controllerType": 7,
        "value": 45
      },
      {
        "type": "midi",
        "subType": "noteOn",
        "typeByte": 145,
        "deltaTime": 1,
        "channel": 1,
        "note": 33,
        "velocity": 127
      },
      {
        "type": "midi",
        "subType": "controller",
        "typeByte": 177,
        "deltaTime": 17,
        "channel": 1,
        "controllerType": 7,
        "value": 44
      },
      {
        "type": "midi",
        "subType": "controller",
        "typeByte": 177,
        "deltaTime": 14,
        "channel": 1,
        "controllerType": 7,
        "value": 43
      },
      {
        "type": "midi",
        "subType": "noteOff",
        "typeByte": 145,
        "deltaTime": 32,
        "channel": 1,
        "note": 33,
        "velocity": 0
      },
      {
        "type": "midi",
        "subType": "controller",
        "typeByte": 177,
        "deltaTime": 9,
        "channel": 1,
        "controllerType": 7,
        "value": 42
      },
      {
        "type": "midi",
        "subType": "controller",
        "typeByte": 177,
        "deltaTime": 11,
        "channel": 1,
        "controllerType": 7,
        "value": 41
      },
      {
        "type": "midi",
        "subType": "controller",
        "typeByte": 177,
        "deltaTime": 10,
        "channel": 1,
        "controllerType": 7,
        "value": 40
      },
      {
        "type": "midi",
        "subType": "noteOn",
        "typeByte": 145,
        "deltaTime": 3,
        "channel": 1,
        "note": 32,
        "velocity": 127
      },
      {
        "type": "midi",
        "subType": "controller",
        "typeByte": 177,
        "deltaTime": 22,
        "channel": 1,
        "controllerType": 7,
        "value": 39
      },
      {
        "type": "midi",
        "subType": "controller",
        "typeByte": 177,
        "deltaTime": 16,
        "channel": 1,
        "controllerType": 7,
        "value": 38
      },
      {
        "type": "midi",
        "subType": "controller",
        "typeByte": 177,
        "deltaTime": 11,
        "channel": 1,
        "controllerType": 7,
        "value": 37
      },
      {
        "type": "midi",
        "subType": "noteOff",
        "typeByte": 145,
        "deltaTime": 15,
        "channel": 1,
        "note": 32,
        "velocity": 0
      },
      {
        "type": "midi",
        "subType": "controller",
        "typeByte": 177,
        "deltaTime": 3,
        "channel": 1,
        "controllerType": 7,
        "value": 36
      },
      {
        "type": "midi",
        "subType": "noteOn",
        "typeByte": 145,
        "deltaTime": 28,
        "channel": 1,
        "note": 32,
        "velocity": 127
      },
      {
        "type": "midi",
        "subType": "controller",
        "typeByte": 177,
        "deltaTime": 18,
        "channel": 1,
        "controllerType": 7,
        "value": 35
      },
      {
        "type": "midi",
        "subType": "controller",
        "typeByte": 177,
        "deltaTime": 19,
        "channel": 1,
        "controllerType": 7,
        "value": 34
      },
      {
        "type": "midi",
        "subType": "controller",
        "typeByte": 177,
        "deltaTime": 25,
        "channel": 1,
        "controllerType": 7,
        "value": 33
      },
      {
        "type": "midi",
        "subType": "noteOff",
        "typeByte": 145,
        "deltaTime": 11,
        "channel": 1,
        "note": 32,
        "velocity": 0
      },
      {
        "type": "midi",
        "subType": "controller",
        "typeByte": 177,
        "deltaTime": 14,
        "channel": 1,
        "controllerType": 7,
        "value": 32
      },
      {
        "type": "midi",
        "subType": "noteOn",
        "typeByte": 145,
        "deltaTime": 8,
        "channel": 1,
        "note": 32,
        "velocity": 127
      },
      {
        "type": "midi",
        "subType": "controller",
        "typeByte": 177,
        "deltaTime": 18,
        "channel": 1,
        "controllerType": 7,
        "value": 31
      },
      {
        "type": "midi",
        "subType": "controller",
        "typeByte": 177,
        "deltaTime": 28,
        "channel": 1,
        "controllerType": 7,
        "value": 30
      },
      {
        "type": "midi",
        "subType": "noteOff",
        "typeByte": 145,
        "deltaTime": 22,
        "channel": 1,
        "note": 32,
        "velocity": 0
      },
      {
        "type": "midi",
        "subType": "controller",
        "typeByte": 177,
        "deltaTime": 7,
        "channel": 1,
        "controllerType": 7,
        "value": 29
      },
      {
        "type": "midi",
        "subType": "controller",
        "typeByte": 177,
        "deltaTime": 12,
        "channel": 1,
        "controllerType": 7,
        "value": 28
      },
      {
        "type": "midi",
        "subType": "noteOn",
        "typeByte": 145,
        "deltaTime": 10,
        "channel": 1,
        "note": 32,
        "velocity": 127
      },
      {
        "type": "midi",
        "subType": "controller",
        "typeByte": 177,
        "deltaTime": 25,
        "channel": 1,
        "controllerType": 7,
        "value": 27
      },
      {
        "type": "midi",
        "subType": "controller",
        "typeByte": 177,
        "deltaTime": 19,
        "channel": 1,
        "controllerType": 7,
        "value": 26
      },
      {
        "type": "midi",
        "subType": "controller",
        "typeByte": 177,
        "deltaTime": 15,
        "channel": 1,
        "controllerType": 7,
        "value": 25
      },
      {
        "type": "midi",
        "subType": "controller",
        "typeByte": 177,
        "deltaTime": 7,
        "channel": 1,
        "controllerType": 7,
        "value": 24
      },
      {
        "type": "midi",
        "subType": "noteOff",
        "typeByte": 145,
        "deltaTime": 9,
        "channel": 1,
        "note": 32,
        "velocity": 0
      },
      {
        "type": "midi",
        "subType": "controller",
        "typeByte": 177,
        "deltaTime": 15,
        "channel": 1,
        "controllerType": 7,
        "value": 23
      },
      {
        "type": "midi",
        "subType": "controller",
        "typeByte": 177,
        "deltaTime": 9,
        "channel": 1,
        "controllerType": 7,
        "value": 22
      },
      {
        "type": "midi",
        "subType": "noteOn",
        "typeByte": 145,
        "deltaTime": 0,
        "channel": 1,
        "note": 30,
        "velocity": 127
      },
      {
        "type": "midi",
        "subType": "controller",
        "typeByte": 177,
        "deltaTime": 10,
        "channel": 1,
        "controllerType": 7,
        "value": 21
      },
      {
        "type": "midi",
        "subType": "controller",
        "typeByte": 177,
        "deltaTime": 8,
        "channel": 1,
        "controllerType": 7,
        "value": 20
      },
      {
        "type": "midi",
        "subType": "controller",
        "typeByte": 177,
        "deltaTime": 11,
        "channel": 1,
        "controllerType": 7,
        "value": 19
      },
      {
        "type": "midi",
        "subType": "controller",
        "typeByte": 177,
        "deltaTime": 7,
        "channel": 1,
        "controllerType": 7,
        "value": 18
      },
      {
        "type": "midi",
        "subType": "controller",
        "typeByte": 177,
        "deltaTime": 8,
        "channel": 1,
        "controllerType": 7,
        "value": 17
      },
      {
        "type": "midi",
        "subType": "controller",
        "typeByte": 177,
        "deltaTime": 24,
        "channel": 1,
        "controllerType": 7,
        "value": 16
      },
      {
        "type": "midi",
        "subType": "noteOff",
        "typeByte": 145,
        "deltaTime": 2,
        "channel": 1,
        "note": 30,
        "velocity": 0
      },
      {
        "type": "midi",
        "subType": "controller",
        "typeByte": 177,
        "deltaTime": 18,
        "channel": 1,
        "controllerType": 7,
        "value": 15
      },
      {
        "type": "midi",
        "subType": "noteOn",
        "typeByte": 145,
        "deltaTime": 6,
        "channel": 1,
        "note": 30,
        "velocity": 127
      },
      {
        "type": "midi",
        "subType": "controller",
        "typeByte": 177,
        "deltaTime": 11,
        "channel": 1,
        "controllerType": 7,
        "value": 14
      },
      {
        "type": "midi",
        "subType": "controller",
        "typeByte": 177,
        "deltaTime": 11,
        "channel": 1,
        "controllerType": 7,
        "value": 13
      },
      {
        "type": "midi",
        "subType": "controller",
        "typeByte": 177,
        "deltaTime": 15,
        "channel": 1,
        "controllerType": 7,
        "value": 12
      },
      {
        "type": "midi",
        "subType": "noteOff",
        "typeByte": 145,
        "deltaTime": 32,
        "channel": 1,
        "note": 30,
        "velocity": 0
      },
      {
        "type": "midi",
        "subType": "controller",
        "typeByte": 177,
        "deltaTime": 1,
        "channel": 1,
        "controllerType": 7,
        "value": 11
      },
      {
        "type": "midi",
        "subType": "controller",
        "typeByte": 177,
        "deltaTime": 12,
        "channel": 1,
        "controllerType": 7,
        "value": 10
      },
      {
        "type": "midi",
        "subType": "controller",
        "typeByte": 177,
        "deltaTime": 6,
        "channel": 1,
        "controllerType": 7,
        "value": 9
      },
      {
        "type": "midi",
        "subType": "noteOn",
        "typeByte": 145,
        "deltaTime": 7,
        "channel": 1,
        "note": 30,
        "velocity": 127
      },
      {
        "type": "midi",
        "subType": "controller",
        "typeByte": 177,
        "deltaTime": 29,
        "channel": 1,
        "controllerType": 7,
        "value": 8
      },
      {
        "type": "midi",
        "subType": "controller",
        "typeByte": 177,
        "deltaTime": 4,
        "channel": 1,
        "controllerType": 7,
        "value": 7
      },
      {
        "type": "midi",
        "subType": "controller",
        "typeByte": 177,
        "deltaTime": 4,
        "channel": 1,
        "controllerType": 7,
        "value": 6
      },
      {
        "type": "midi",
        "subType": "controller",
        "typeByte": 177,
        "deltaTime": 4,
        "channel": 1,
        "controllerType": 7,
        "value": 5
      },
      {
        "type": "midi",
        "subType": "controller",
        "typeByte": 177,
        "deltaTime": 7,
        "channel": 1,
        "controllerType": 7,
        "value": 4
      },
      {
        "type": "midi",
        "subType": "controller",
        "typeByte": 177,
        "deltaTime": 8,
        "channel": 1,
        "controllerType": 7,
        "value": 3
      },
      {
        "type": "midi",
        "subType": "noteOff",
        "typeByte": 145,
        "deltaTime": 20,
        "channel": 1,
        "note": 30,
        "velocity": 0
      },
      {
        "type": "midi",
        "subType": "noteOn",
        "typeByte": 145,
        "deltaTime": 23,
        "channel": 1,
        "note": 30,
        "velocity": 127
      },
      {
        "type": "midi",
        "subType": "controller",
        "typeByte": 177,
        "deltaTime": 0,
        "channel": 1,
        "controllerType": 7,
        "value": 2
      },
      {
        "type": "midi",
        "subType": "controller",
        "typeByte": 177,
        "deltaTime": 15,
        "channel": 1,
        "controllerType": 7,
        "value": 1
      },
      {
        "type": "midi",
        "subType": "controller",
        "typeByte": 177,
        "deltaTime": 11,
        "channel": 1,
        "controllerType": 7,
        "value": 0
      },
      {
        "type": "midi",
        "subType": "noteOff",
        "typeByte": 145,
        "deltaTime": 61,
        "channel": 1,
        "note": 30,
        "velocity": 0
      },
      {
        "type": "midi",
        "subType": "noteOn",
        "typeByte": 145,
        "deltaTime": 7,
        "channel": 1,
        "note": 38,
        "velocity": 127
      },
      {
        "type": "midi",
        "subType": "noteOff",
        "typeByte": 145,
        "deltaTime": 28,
        "channel": 1,
        "note": 38,
        "velocity": 0
      },
      {
        "type": "midi",
        "subType": "noteOn",
        "typeByte": 145,
        "deltaTime": 19,
        "channel": 1,
        "note": 38,
        "velocity": 127
      },
      {
        "type": "midi",
        "subType": "noteOff",
        "typeByte": 145,
        "deltaTime": 24,
        "channel": 1,
        "note": 38,
        "velocity": 0
      },
      {
        "type": "midi",
        "subType": "noteOn",
        "typeByte": 145,
        "deltaTime": 26,
        "channel": 1,
        "note": 38,
        "velocity": 127
      },
      {
        "type": "midi",
        "subType": "noteOff",
        "typeByte": 145,
        "deltaTime": 23,
        "channel": 1,
        "note": 38,
        "velocity": 0
      },
      {
        "type": "midi",
        "subType": "noteOn",
        "typeByte": 145,
        "deltaTime": 24,
        "channel": 1,
        "note": 38,
        "velocity": 127
      },
      {
        "type": "midi",
        "subType": "noteOff",
        "typeByte": 145,
        "deltaTime": 27,
        "channel": 1,
        "note": 38,
        "velocity": 0
      },
      {
        "type": "midi",
        "subType": "noteOn",
        "typeByte": 145,
        "deltaTime": 22,
        "channel": 1,
        "note": 38,
        "velocity": 127
      },
      {
        "type": "midi",
        "subType": "noteOff",
        "typeByte": 145,
        "deltaTime": 29,
        "channel": 1,
        "note": 38,
        "velocity": 0
      },
      {
        "type": "midi",
        "subType": "noteOn",
        "typeByte": 145,
        "deltaTime": 18,
        "channel": 1,
        "note": 38,
        "velocity": 127
      },
      {
        "type": "midi",
        "subType": "noteOff",
        "typeByte": 145,
        "deltaTime": 28,
        "channel": 1,
        "note": 38,
        "velocity": 0
      },
      {
        "type": "midi",
        "subType": "noteOn",
        "typeByte": 145,
        "deltaTime": 21,
        "channel": 1,
        "note": 38,
        "velocity": 127
      },
      {
        "type": "midi",
        "subType": "noteOff",
        "typeByte": 145,
        "deltaTime": 31,
        "channel": 1,
        "note": 38,
        "velocity": 0
      },
      {
        "type": "midi",
        "subType": "noteOn",
        "typeByte": 145,
        "deltaTime": 16,
        "channel": 1,
        "note": 38,
        "velocity": 127
      },
      {
        "type": "midi",
        "subType": "noteOff",
        "typeByte": 145,
        "deltaTime": 30,
        "channel": 1,
        "note": 38,
        "velocity": 0
      },
      {
        "type": "midi",
        "subType": "programChange",
        "typeByte": 193,
        "deltaTime": 21,
        "channel": 1,
        "program": 68
      },
      {
        "type": "midi",
        "subType": "controller",
        "typeByte": 177,
        "deltaTime": 0,
        "channel": 1,
        "controllerType": 7,
        "value": 99
      },
      {
        "type": "midi",
        "subType": "controller",
        "typeByte": 177,
        "deltaTime": 339,
        "channel": 1,
        "controllerType": 64,
        "value": 0
      },
      {
        "type": "midi",
        "subType": "pitchBend",
        "typeByte": 225,
        "deltaTime": 1,
        "channel": 1,
        "value": 8192
      },
      {
        "type": "meta",
        "subType": "endOfTrack",
        "typeByte": 255,
        "subTypeByte": 47,
        "deltaTime": 0
      }
    ],
    [
      {
        "type": "meta",
        "typeByte": 255,
        "subTypeByte": 33,
        "deltaTime": 0,
        "data": {}
      },
      {
        "type": "meta",
        "subType": "trackName",
        "typeByte": 255,
        "subTypeByte": 3,
        "deltaTime": 0,
        "text": "Elec Guitar 1       "
      },
      {
        "type": "midi",
        "subType": "programChange",
        "typeByte": 194,
        "deltaTime": 0,
        "channel": 2,
        "program": 27
      },
      {
        "type": "midi",
        "subType": "controller",
        "typeByte": 178,
        "deltaTime": 0,
        "channel": 2,
        "controllerType": 7,
        "value": 105
      },
      {
        "type": "midi",
        "subType": "controller",
        "typeByte": 178,
        "deltaTime": 0,
        "channel": 2,
        "controllerType": 10,
        "value": 40
      },
      {
        "type": "midi",
        "subType": "noteOn",
        "typeByte": 146,
        "deltaTime": 1897,
        "channel": 2,
        "note": 78,
        "velocity": 127
      },
      {
        "type": "midi",
        "subType": "noteOn",
        "typeByte": 146,
        "deltaTime": 7,
        "channel": 2,
        "note": 83,
        "velocity": 127
      },
      {
        "type": "midi",
        "subType": "noteOn",
        "typeByte": 146,
        "deltaTime": 8,
        "channel": 2,
        "note": 74,
        "velocity": 127
      },
      {
        "type": "midi",
        "subType": "noteOn",
        "typeByte": 146,
        "deltaTime": 9,
        "channel": 2,
        "note": 86,
        "velocity": 127
      },
      {
        "type": "midi",
        "subType": "noteOn",
        "typeByte": 146,
        "deltaTime": 6,
        "channel": 2,
        "note": 90,
        "velocity": 127
      },
      {
        "type": "midi",
        "subType": "noteOn",
        "typeByte": 146,
        "deltaTime": 740,
        "channel": 2,
        "note": 73,
        "velocity": 127
      },
      {
        "type": "midi",
        "subType": "noteOn",
        "typeByte": 146,
        "deltaTime": 144,
        "channel": 2,
        "note": 69,
        "velocity": 127
      },
      {
        "type": "midi",
        "subType": "noteOff",
        "typeByte": 146,
        "deltaTime": 142,
        "channel": 2,
        "note": 73,
        "velocity": 0
      },
      {
        "type": "midi",
        "subType": "noteOff",
        "typeByte": 146,
        "deltaTime": 480,
        "channel": 2,
        "note": 90,
        "velocity": 0
      },
      {
        "type": "midi",
        "subType": "noteOff",
        "typeByte": 146,
        "deltaTime": 0,
        "channel": 2,
        "note": 83,
        "velocity": 0
      },
      {
        "type": "midi",
        "subType": "noteOff",
        "typeByte": 146,
        "deltaTime": 0,
        "channel": 2,
        "note": 74,
        "velocity": 0
      },
      {
        "type": "midi",
        "subType": "noteOff",
        "typeByte": 146,
        "deltaTime": 0,
        "channel": 2,
        "note": 78,
        "velocity": 0
      },
      {
        "type": "midi",
        "subType": "noteOff",
        "typeByte": 146,
        "deltaTime": 0,
        "channel": 2,
        "note": 69,
        "velocity": 0
      },
      {
        "type": "midi",
        "subType": "noteOff",
        "typeByte": 146,
        "deltaTime": 0,
        "channel": 2,
        "note": 86,
        "velocity": 0
      },
      {
        "type": "midi",
        "subType": "noteOn",
        "typeByte": 146,
        "deltaTime": 775,
        "channel": 2,
        "note": 61,
        "velocity": 127
      },
      {
        "type": "midi",
        "subType": "noteOff",
        "typeByte": 146,
        "deltaTime": 139,
        "channel": 2,
        "note": 61,
        "velocity": 0
      },
      {
        "type": "midi",
        "subType": "noteOn",
        "typeByte": 146,
        "deltaTime": 4,
        "channel": 2,
        "note": 73,
        "velocity": 127
      },
      {
        "type": "midi",
        "subType": "noteOff",
        "typeByte": 146,
        "deltaTime": 138,
        "channel": 2,
        "note": 73,
        "velocity": 0
      },
      {
        "type": "midi",
        "subType": "noteOn",
        "typeByte": 146,
        "deltaTime": 8,
        "channel": 2,
        "note": 69,
        "velocity": 127
      },
      {
        "type": "midi",
        "subType": "noteOff",
        "typeByte": 146,
        "deltaTime": 420,
        "channel": 2,
        "note": 69,
        "velocity": 0
      },
      {
        "type": "midi",
        "subType": "noteOn",
        "typeByte": 146,
        "deltaTime": 63,
        "channel": 2,
        "note": 78,
        "velocity": 127
      },
      {
        "type": "midi",
        "subType": "noteOff",
        "typeByte": 146,
        "deltaTime": 21,
        "channel": 2,
        "note": 78,
        "velocity": 0
      },
      {
        "type": "midi",
        "subType": "noteOn",
        "typeByte": 146,
        "deltaTime": 25,
        "channel": 2,
        "note": 78,
        "velocity": 127
      },
      {
        "type": "midi",
        "subType": "noteOff",
        "typeByte": 146,
        "deltaTime": 29,
        "channel": 2,
        "note": 78,
        "velocity": 0
      },
      {
        "type": "midi",
        "subType": "noteOn",
        "typeByte": 146,
        "deltaTime": 20,
        "channel": 2,
        "note": 74,
        "velocity": 127
      },
      {
        "type": "midi",
        "subType": "noteOff",
        "typeByte": 146,
        "deltaTime": 29,
        "channel": 2,
        "note": 74,
        "velocity": 0
      },
      {
        "type": "midi",
        "subType": "noteOn",
        "typeByte": 146,
        "deltaTime": 19,
        "channel": 2,
        "note": 71,
        "velocity": 127
      },
      {
        "type": "midi",
        "subType": "noteOff",
        "typeByte": 146,
        "deltaTime": 26,
        "channel": 2,
        "note": 71,
        "velocity": 0
      },
      {
        "type": "midi",
        "subType": "noteOn",
        "typeByte": 146,
        "deltaTime": 70,
        "channel": 2,
        "note": 71,
        "velocity": 127
      },
      {
        "type": "midi",
        "subType": "noteOff",
        "typeByte": 146,
        "deltaTime": 30,
        "channel": 2,
        "note": 71,
        "velocity": 0
      },
      {
        "type": "midi",
        "subType": "noteOn",
        "typeByte": 146,
        "deltaTime": 66,
        "channel": 2,
        "note": 76,
        "velocity": 127
      },
      {
        "type": "midi",
        "subType": "noteOff",
        "typeByte": 146,
        "deltaTime": 26,
        "channel": 2,
        "note": 76,
        "velocity": 0
      },
      {
        "type": "midi",
        "subType": "noteOn",
        "typeByte": 146,
        "deltaTime": 70,
        "channel": 2,
        "note": 76,
        "velocity": 127
      },
      {
        "type": "midi",
        "subType": "noteOff",
        "typeByte": 146,
        "deltaTime": 29,
        "channel": 2,
        "note": 76,
        "velocity": 0
      },
      {
        "type": "midi",
        "subType": "noteOn",
        "typeByte": 146,
        "deltaTime": 67,
        "channel": 2,
        "note": 76,
        "velocity": 127
      },
      {
        "type": "midi",
        "subType": "noteOff",
        "typeByte": 146,
        "deltaTime": 31,
        "channel": 2,
        "note": 76,
        "velocity": 0
      },
      {
        "type": "midi",
        "subType": "noteOn",
        "typeByte": 146,
        "deltaTime": 19,
        "channel": 2,
        "note": 80,
        "velocity": 127
      },
      {
        "type": "midi",
        "subType": "noteOff",
        "typeByte": 146,
        "deltaTime": 23,
        "channel": 2,
        "note": 80,
        "velocity": 0
      },
      {
        "type": "midi",
        "subType": "noteOn",
        "typeByte": 146,
        "deltaTime": 24,
        "channel": 2,
        "note": 80,
        "velocity": 127
      },
      {
        "type": "midi",
        "subType": "noteOff",
        "typeByte": 146,
        "deltaTime": 26,
        "channel": 2,
        "note": 80,
        "velocity": 0
      },
      {
        "type": "midi",
        "subType": "noteOn",
        "typeByte": 146,
        "deltaTime": 23,
        "channel": 2,
        "note": 81,
        "velocity": 127
      },
      {
        "type": "midi",
        "subType": "noteOff",
        "typeByte": 146,
        "deltaTime": 27,
        "channel": 2,
        "note": 81,
        "velocity": 0
      },
      {
        "type": "midi",
        "subType": "noteOn",
        "typeByte": 146,
        "deltaTime": 20,
        "channel": 2,
        "note": 83,
        "velocity": 127
      },
      {
        "type": "midi",
        "subType": "noteOff",
        "typeByte": 146,
        "deltaTime": 30,
        "channel": 2,
        "note": 83,
        "velocity": 0
      },
      {
        "type": "midi",
        "subType": "noteOn",
        "typeByte": 146,
        "deltaTime": 20,
        "channel": 2,
        "note": 81,
        "velocity": 127
      },
      {
        "type": "midi",
        "subType": "noteOff",
        "typeByte": 146,
        "deltaTime": 23,
        "channel": 2,
        "note": 81,
        "velocity": 0
      },
      {
        "type": "midi",
        "subType": "noteOn",
        "typeByte": 146,
        "deltaTime": 23,
        "channel": 2,
        "note": 81,
        "velocity": 127
      },
      {
        "type": "midi",
        "subType": "noteOff",
        "typeByte": 146,
        "deltaTime": 27,
        "channel": 2,
        "note": 81,
        "velocity": 0
      },
      {
        "type": "midi",
        "subType": "noteOn",
        "typeByte": 146,
        "deltaTime": 22,
        "channel": 2,
        "note": 81,
        "velocity": 127
      },
      {
        "type": "midi",
        "subType": "noteOff",
        "typeByte": 146,
        "deltaTime": 24,
        "channel": 2,
        "note": 81,
        "velocity": 0
      },
      {
        "type": "midi",
        "subType": "noteOn",
        "typeByte": 146,
        "deltaTime": 24,
        "channel": 2,
        "note": 76,
        "velocity": 127
      },
      {
        "type": "midi",
        "subType": "noteOff",
        "typeByte": 146,
        "deltaTime": 26,
        "channel": 2,
        "note": 76,
        "velocity": 0
      },
      {
        "type": "midi",
        "subType": "noteOn",
        "typeByte": 146,
        "deltaTime": 70,
        "channel": 2,
        "note": 74,
        "velocity": 127
      },
      {
        "type": "midi",
        "subType": "noteOff",
        "typeByte": 146,
        "deltaTime": 23,
        "channel": 2,
        "note": 74,
        "velocity": 0
      },
      {
        "type": "midi",
        "subType": "noteOn",
        "typeByte": 146,
        "deltaTime": 73,
        "channel": 2,
        "note": 78,
        "velocity": 127
      },
      {
        "type": "midi",
        "subType": "noteOff",
        "typeByte": 146,
        "deltaTime": 26,
        "channel": 2,
        "note": 78,
        "velocity": 0
      },
      {
        "type": "midi",
        "subType": "noteOn",
        "typeByte": 146,
        "deltaTime": 70,
        "channel": 2,
        "note": 78,
        "velocity": 127
      },
      {
        "type": "midi",
        "subType": "noteOff",
        "typeByte": 146,
        "deltaTime": 27,
        "channel": 2,
        "note": 78,
        "velocity": 0
      },
      {
        "type": "midi",
        "subType": "noteOn",
        "typeByte": 146,
        "deltaTime": 70,
        "channel": 2,
        "note": 78,
        "velocity": 127
      },
      {
        "type": "midi",
        "subType": "noteOff",
        "typeByte": 146,
        "deltaTime": 26,
        "channel": 2,
        "note": 78,
        "velocity": 0
      },
      {
        "type": "midi",
        "subType": "noteOn",
        "typeByte": 146,
        "deltaTime": 23,
        "channel": 2,
        "note": 76,
        "velocity": 127
      },
      {
        "type": "midi",
        "subType": "noteOff",
        "typeByte": 146,
        "deltaTime": 27,
        "channel": 2,
        "note": 76,
        "velocity": 0
      },
      {
        "type": "midi",
        "subType": "noteOn",
        "typeByte": 146,
        "deltaTime": 21,
        "channel": 2,
        "note": 76,
        "velocity": 127
      },
      {
        "type": "midi",
        "subType": "noteOff",
        "typeByte": 146,
        "deltaTime": 27,
        "channel": 2,
        "note": 76,
        "velocity": 0
      },
      {
        "type": "midi",
        "subType": "noteOn",
        "typeByte": 146,
        "deltaTime": 21,
        "channel": 2,
        "note": 78,
        "velocity": 127
      },
      {
        "type": "midi",
        "subType": "noteOff",
        "typeByte": 146,
        "deltaTime": 23,
        "channel": 2,
        "note": 78,
        "velocity": 0
      },
      {
        "type": "midi",
        "subType": "noteOn",
        "typeByte": 146,
        "deltaTime": 24,
        "channel": 2,
        "note": 76,
        "velocity": 127
      },
      {
        "type": "midi",
        "subType": "noteOff",
        "typeByte": 146,
        "deltaTime": 28,
        "channel": 2,
        "note": 76,
        "velocity": 0
      },
      {
        "type": "midi",
        "subType": "noteOn",
        "typeByte": 146,
        "deltaTime": 22,
        "channel": 2,
        "note": 78,
        "velocity": 127
      },
      {
        "type": "midi",
        "subType": "noteOff",
        "typeByte": 146,
        "deltaTime": 23,
        "channel": 2,
        "note": 78,
        "velocity": 0
      },
      {
        "type": "midi",
        "subType": "noteOn",
        "typeByte": 146,
        "deltaTime": 24,
        "channel": 2,
        "note": 78,
        "velocity": 127
      },
      {
        "type": "midi",
        "subType": "noteOff",
        "typeByte": 146,
        "deltaTime": 26,
        "channel": 2,
        "note": 78,
        "velocity": 0
      },
      {
        "type": "midi",
        "subType": "noteOn",
        "typeByte": 146,
        "deltaTime": 23,
        "channel": 2,
        "note": 74,
        "velocity": 127
      },
      {
        "type": "midi",
        "subType": "noteOff",
        "typeByte": 146,
        "deltaTime": 26,
        "channel": 2,
        "note": 74,
        "velocity": 0
      },
      {
        "type": "midi",
        "subType": "noteOn",
        "typeByte": 146,
        "deltaTime": 21,
        "channel": 2,
        "note": 71,
        "velocity": 127
      },
      {
        "type": "midi",
        "subType": "noteOff",
        "typeByte": 146,
        "deltaTime": 22,
        "channel": 2,
        "note": 71,
        "velocity": 0
      },
      {
        "type": "midi",
        "subType": "noteOn",
        "typeByte": 146,
        "deltaTime": 75,
        "channel": 2,
        "note": 71,
        "velocity": 127
      },
      {
        "type": "midi",
        "subType": "noteOff",
        "typeByte": 146,
        "deltaTime": 27,
        "channel": 2,
        "note": 71,
        "velocity": 0
      },
      {
        "type": "midi",
        "subType": "noteOn",
        "typeByte": 146,
        "deltaTime": 69,
        "channel": 2,
        "note": 76,
        "velocity": 127
      },
      {
        "type": "midi",
        "subType": "noteOff",
        "typeByte": 146,
        "deltaTime": 29,
        "channel": 2,
        "note": 76,
        "velocity": 0
      },
      {
        "type": "midi",
        "subType": "noteOn",
        "typeByte": 146,
        "deltaTime": 67,
        "channel": 2,
        "note": 76,
        "velocity": 127
      },
      {
        "type": "midi",
        "subType": "noteOff",
        "typeByte": 146,
        "deltaTime": 32,
        "channel": 2,
        "note": 76,
        "velocity": 0
      },
      {
        "type": "midi",
        "subType": "noteOn",
        "typeByte": 146,
        "deltaTime": 64,
        "channel": 2,
        "note": 76,
        "velocity": 127
      },
      {
        "type": "midi",
        "subType": "noteOff",
        "typeByte": 146,
        "deltaTime": 29,
        "channel": 2,
        "note": 76,
        "velocity": 0
      },
      {
        "type": "midi",
        "subType": "noteOn",
        "typeByte": 146,
        "deltaTime": 21,
        "channel": 2,
        "note": 80,
        "velocity": 127
      },
      {
        "type": "midi",
        "subType": "noteOff",
        "typeByte": 146,
        "deltaTime": 24,
        "channel": 2,
        "note": 80,
        "velocity": 0
      },
      {
        "type": "midi",
        "subType": "noteOn",
        "typeByte": 146,
        "deltaTime": 23,
        "channel": 2,
        "note": 80,
        "velocity": 127
      },
      {
        "type": "midi",
        "subType": "noteOff",
        "typeByte": 146,
        "deltaTime": 24,
        "channel": 2,
        "note": 80,
        "velocity": 0
      },
      {
        "type": "midi",
        "subType": "noteOn",
        "typeByte": 146,
        "deltaTime": 25,
        "channel": 2,
        "note": 81,
        "velocity": 127
      },
      {
        "type": "midi",
        "subType": "noteOff",
        "typeByte": 146,
        "deltaTime": 23,
        "channel": 2,
        "note": 81,
        "velocity": 0
      },
      {
        "type": "midi",
        "subType": "noteOn",
        "typeByte": 146,
        "deltaTime": 24,
        "channel": 2,
        "note": 83,
        "velocity": 127
      },
      {
        "type": "midi",
        "subType": "noteOff",
        "typeByte": 146,
        "deltaTime": 26,
        "channel": 2,
        "note": 83,
        "velocity": 0
      },
      {
        "type": "midi",
        "subType": "noteOn",
        "typeByte": 146,
        "deltaTime": 24,
        "channel": 2,
        "note": 81,
        "velocity": 127
      },
      {
        "type": "midi",
        "subType": "noteOff",
        "typeByte": 146,
        "deltaTime": 19,
        "channel": 2,
        "note": 81,
        "velocity": 0
      },
      {
        "type": "midi",
        "subType": "noteOn",
        "typeByte": 146,
        "deltaTime": 27,
        "channel": 2,
        "note": 81,
        "velocity": 127
      },
      {
        "type": "midi",
        "subType": "noteOff",
        "typeByte": 146,
        "deltaTime": 24,
        "channel": 2,
        "note": 81,
        "velocity": 0
      },
      {
        "type": "midi",
        "subType": "noteOn",
        "typeByte": 146,
        "deltaTime": 25,
        "channel": 2,
        "note": 81,
        "velocity": 127
      },
      {
        "type": "midi",
        "subType": "noteOff",
        "typeByte": 146,
        "deltaTime": 18,
        "channel": 2,
        "note": 81,
        "velocity": 0
      },
      {
        "type": "midi",
        "subType": "noteOn",
        "typeByte": 146,
        "deltaTime": 29,
        "channel": 2,
        "note": 76,
        "velocity": 127
      },
      {
        "type": "midi",
        "subType": "noteOff",
        "typeByte": 146,
        "deltaTime": 21,
        "channel": 2,
        "note": 76,
        "velocity": 0
      },
      {
        "type": "midi",
        "subType": "noteOn",
        "typeByte": 146,
        "deltaTime": 76,
        "channel": 2,
        "note": 74,
        "velocity": 127
      },
      {
        "type": "midi",
        "subType": "noteOff",
        "typeByte": 146,
        "deltaTime": 18,
        "channel": 2,
        "note": 74,
        "velocity": 0
      },
      {
        "type": "midi",
        "subType": "noteOn",
        "typeByte": 146,
        "deltaTime": 78,
        "channel": 2,
        "note": 78,
        "velocity": 127
      },
      {
        "type": "midi",
        "subType": "noteOff",
        "typeByte": 146,
        "deltaTime": 23,
        "channel": 2,
        "note": 78,
        "velocity": 0
      },
      {
        "type": "midi",
        "subType": "noteOn",
        "typeByte": 146,
        "deltaTime": 73,
        "channel": 2,
        "note": 78,
        "velocity": 127
      },
      {
        "type": "midi",
        "subType": "noteOff",
        "typeByte": 146,
        "deltaTime": 25,
        "channel": 2,
        "note": 78,
        "velocity": 0
      },
      {
        "type": "midi",
        "subType": "noteOn",
        "typeByte": 146,
        "deltaTime": 72,
        "channel": 2,
        "note": 78,
        "velocity": 127
      },
      {
        "type": "midi",
        "subType": "noteOff",
        "typeByte": 146,
        "deltaTime": 26,
        "channel": 2,
        "note": 78,
        "velocity": 0
      },
      {
        "type": "midi",
        "subType": "noteOn",
        "typeByte": 146,
        "deltaTime": 23,
        "channel": 2,
        "note": 76,
        "velocity": 127
      },
      {
        "type": "midi",
        "subType": "noteOff",
        "typeByte": 146,
        "deltaTime": 23,
        "channel": 2,
        "note": 76,
        "velocity": 0
      },
      {
        "type": "midi",
        "subType": "noteOn",
        "typeByte": 146,
        "deltaTime": 24,
        "channel": 2,
        "note": 76,
        "velocity": 127
      },
      {
        "type": "midi",
        "subType": "noteOff",
        "typeByte": 146,
        "deltaTime": 30,
        "channel": 2,
        "note": 76,
        "velocity": 0
      },
      {
        "type": "midi",
        "subType": "noteOn",
        "typeByte": 146,
        "deltaTime": 19,
        "channel": 2,
        "note": 78,
        "velocity": 127
      },
      {
        "type": "midi",
        "subType": "noteOff",
        "typeByte": 146,
        "deltaTime": 25,
        "channel": 2,
        "note": 78,
        "velocity": 0
      },
      {
        "type": "midi",
        "subType": "noteOn",
        "typeByte": 146,
        "deltaTime": 22,
        "channel": 2,
        "note": 76,
        "velocity": 127
      },
      {
        "type": "midi",
        "subType": "noteOff",
        "typeByte": 146,
        "deltaTime": 28,
        "channel": 2,
        "note": 76,
        "velocity": 0
      },
      {
        "type": "midi",
        "subType": "noteOn",
        "typeByte": 146,
        "deltaTime": 23,
        "channel": 2,
        "note": 78,
        "velocity": 127
      },
      {
        "type": "midi",
        "subType": "noteOff",
        "typeByte": 146,
        "deltaTime": 20,
        "channel": 2,
        "note": 78,
        "velocity": 0
      },
      {
        "type": "midi",
        "subType": "noteOn",
        "typeByte": 146,
        "deltaTime": 25,
        "channel": 2,
        "note": 78,
        "velocity": 127
      },
      {
        "type": "midi",
        "subType": "noteOff",
        "typeByte": 146,
        "deltaTime": 31,
        "channel": 2,
        "note": 78,
        "velocity": 0
      },
      {
        "type": "midi",
        "subType": "noteOn",
        "typeByte": 146,
        "deltaTime": 19,
        "channel": 2,
        "note": 74,
        "velocity": 127
      },
      {
        "type": "midi",
        "subType": "noteOff",
        "typeByte": 146,
        "deltaTime": 28,
        "channel": 2,
        "note": 74,
        "velocity": 0
      },
      {
        "type": "midi",
        "subType": "noteOn",
        "typeByte": 146,
        "deltaTime": 19,
        "channel": 2,
        "note": 71,
        "velocity": 127
      },
      {
        "type": "midi",
        "subType": "noteOff",
        "typeByte": 146,
        "deltaTime": 26,
        "channel": 2,
        "note": 71,
        "velocity": 0
      },
      {
        "type": "midi",
        "subType": "noteOn",
        "typeByte": 146,
        "deltaTime": 70,
        "channel": 2,
        "note": 71,
        "velocity": 127
      },
      {
        "type": "midi",
        "subType": "noteOff",
        "typeByte": 146,
        "deltaTime": 30,
        "channel": 2,
        "note": 71,
        "velocity": 0
      },
      {
        "type": "midi",
        "subType": "noteOn",
        "typeByte": 146,
        "deltaTime": 66,
        "channel": 2,
        "note": 76,
        "velocity": 127
      },
      {
        "type": "midi",
        "subType": "noteOff",
        "typeByte": 146,
        "deltaTime": 27,
        "channel": 2,
        "note": 76,
        "velocity": 0
      },
      {
        "type": "midi",
        "subType": "noteOn",
        "typeByte": 146,
        "deltaTime": 70,
        "channel": 2,
        "note": 76,
        "velocity": 127
      },
      {
        "type": "midi",
        "subType": "noteOff",
        "typeByte": 146,
        "deltaTime": 30,
        "channel": 2,
        "note": 76,
        "velocity": 0
      },
      {
        "type": "midi",
        "subType": "noteOn",
        "typeByte": 146,
        "deltaTime": 66,
        "channel": 2,
        "note": 76,
        "velocity": 127
      },
      {
        "type": "midi",
        "subType": "noteOff",
        "typeByte": 146,
        "deltaTime": 30,
        "channel": 2,
        "note": 76,
        "velocity": 0
      },
      {
        "type": "midi",
        "subType": "noteOn",
        "typeByte": 146,
        "deltaTime": 19,
        "channel": 2,
        "note": 80,
        "velocity": 127
      },
      {
        "type": "midi",
        "subType": "noteOff",
        "typeByte": 146,
        "deltaTime": 24,
        "channel": 2,
        "note": 80,
        "velocity": 0
      },
      {
        "type": "midi",
        "subType": "noteOn",
        "typeByte": 146,
        "deltaTime": 24,
        "channel": 2,
        "note": 80,
        "velocity": 127
      },
      {
        "type": "midi",
        "subType": "noteOff",
        "typeByte": 146,
        "deltaTime": 25,
        "channel": 2,
        "note": 80,
        "velocity": 0
      },
      {
        "type": "midi",
        "subType": "noteOn",
        "typeByte": 146,
        "deltaTime": 23,
        "channel": 2,
        "note": 81,
        "velocity": 127
      },
      {
        "type": "midi",
        "subType": "noteOff",
        "typeByte": 146,
        "deltaTime": 28,
        "channel": 2,
        "note": 81,
        "velocity": 0
      },
      {
        "type": "midi",
        "subType": "noteOn",
        "typeByte": 146,
        "deltaTime": 19,
        "channel": 2,
        "note": 83,
        "velocity": 127
      },
      {
        "type": "midi",
        "subType": "noteOff",
        "typeByte": 146,
        "deltaTime": 31,
        "channel": 2,
        "note": 83,
        "velocity": 0
      },
      {
        "type": "midi",
        "subType": "noteOn",
        "typeByte": 146,
        "deltaTime": 20,
        "channel": 2,
        "note": 81,
        "velocity": 127
      },
      {
        "type": "midi",
        "subType": "noteOff",
        "typeByte": 146,
        "deltaTime": 22,
        "channel": 2,
        "note": 81,
        "velocity": 0
      },
      {
        "type": "midi",
        "subType": "noteOn",
        "typeByte": 146,
        "deltaTime": 24,
        "channel": 2,
        "note": 81,
        "velocity": 127
      },
      {
        "type": "midi",
        "subType": "noteOff",
        "typeByte": 146,
        "deltaTime": 26,
        "channel": 2,
        "note": 81,
        "velocity": 0
      },
      {
        "type": "midi",
        "subType": "noteOn",
        "typeByte": 146,
        "deltaTime": 23,
        "channel": 2,
        "note": 81,
        "velocity": 127
      },
      {
        "type": "midi",
        "subType": "noteOff",
        "typeByte": 146,
        "deltaTime": 23,
        "channel": 2,
        "note": 81,
        "velocity": 0
      },
      {
        "type": "midi",
        "subType": "noteOn",
        "typeByte": 146,
        "deltaTime": 24,
        "channel": 2,
        "note": 78,
        "velocity": 127
      },
      {
        "type": "midi",
        "subType": "noteOff",
        "typeByte": 146,
        "deltaTime": 26,
        "channel": 2,
        "note": 78,
        "velocity": 0
      },
      {
        "type": "midi",
        "subType": "noteOn",
        "typeByte": 146,
        "deltaTime": 71,
        "channel": 2,
        "note": 74,
        "velocity": 127
      },
      {
        "type": "midi",
        "subType": "noteOff",
        "typeByte": 146,
        "deltaTime": 23,
        "channel": 2,
        "note": 74,
        "velocity": 0
      },
      {
        "type": "midi",
        "subType": "noteOn",
        "typeByte": 146,
        "deltaTime": 73,
        "channel": 2,
        "note": 78,
        "velocity": 127
      },
      {
        "type": "midi",
        "subType": "noteOff",
        "typeByte": 146,
        "deltaTime": 26,
        "channel": 2,
        "note": 78,
        "velocity": 0
      },
      {
        "type": "midi",
        "subType": "noteOn",
        "typeByte": 146,
        "deltaTime": 70,
        "channel": 2,
        "note": 78,
        "velocity": 127
      },
      {
        "type": "midi",
        "subType": "noteOff",
        "typeByte": 146,
        "deltaTime": 26,
        "channel": 2,
        "note": 78,
        "velocity": 0
      },
      {
        "type": "midi",
        "subType": "noteOn",
        "typeByte": 146,
        "deltaTime": 70,
        "channel": 2,
        "note": 78,
        "velocity": 127
      },
      {
        "type": "midi",
        "subType": "noteOff",
        "typeByte": 146,
        "deltaTime": 26,
        "channel": 2,
        "note": 78,
        "velocity": 0
      },
      {
        "type": "midi",
        "subType": "noteOn",
        "typeByte": 146,
        "deltaTime": 24,
        "channel": 2,
        "note": 76,
        "velocity": 127
      },
      {
        "type": "midi",
        "subType": "noteOff",
        "typeByte": 146,
        "deltaTime": 27,
        "channel": 2,
        "note": 76,
        "velocity": 0
      },
      {
        "type": "midi",
        "subType": "noteOn",
        "typeByte": 146,
        "deltaTime": 20,
        "channel": 2,
        "note": 76,
        "velocity": 127
      },
      {
        "type": "midi",
        "subType": "noteOff",
        "typeByte": 146,
        "deltaTime": 27,
        "channel": 2,
        "note": 76,
        "velocity": 0
      },
      {
        "type": "midi",
        "subType": "noteOn",
        "typeByte": 146,
        "deltaTime": 22,
        "channel": 2,
        "note": 76,
        "velocity": 127
      },
      {
        "type": "midi",
        "subType": "noteOff",
        "typeByte": 146,
        "deltaTime": 23,
        "channel": 2,
        "note": 76,
        "velocity": 0
      },
      {
        "type": "midi",
        "subType": "noteOn",
        "typeByte": 146,
        "deltaTime": 9318,
        "channel": 2,
        "note": 76,
        "velocity": 127
      },
      {
        "type": "midi",
        "subType": "noteOn",
        "typeByte": 146,
        "deltaTime": 4,
        "channel": 2,
        "note": 73,
        "velocity": 127
      },
      {
        "type": "midi",
        "subType": "noteOn",
        "typeByte": 146,
        "deltaTime": 6,
        "channel": 2,
        "note": 81,
        "velocity": 127
      },
      {
        "type": "midi",
        "subType": "noteOn",
        "typeByte": 146,
        "deltaTime": 6,
        "channel": 2,
        "note": 69,
        "velocity": 127
      },
      {
        "type": "midi",
        "subType": "noteOff",
        "typeByte": 146,
        "deltaTime": 173,
        "channel": 2,
        "note": 76,
        "velocity": 0
      },
      {
        "type": "midi",
        "subType": "noteOff",
        "typeByte": 146,
        "deltaTime": 6,
        "channel": 2,
        "note": 73,
        "velocity": 0
      },
      {
        "type": "midi",
        "subType": "noteOff",
        "typeByte": 146,
        "deltaTime": 5,
        "channel": 2,
        "note": 81,
        "velocity": 0
      },
      {
        "type": "midi",
        "subType": "noteOff",
        "typeByte": 146,
        "deltaTime": 7,
        "channel": 2,
        "note": 69,
        "velocity": 0
      },
      {
        "type": "midi",
        "subType": "noteOn",
        "typeByte": 146,
        "deltaTime": 177,
        "channel": 2,
        "note": 76,
        "velocity": 127
      },
      {
        "type": "midi",
        "subType": "noteOn",
        "typeByte": 146,
        "deltaTime": 5,
        "channel": 2,
        "note": 71,
        "velocity": 127
      },
      {
        "type": "midi",
        "subType": "noteOn",
        "typeByte": 146,
        "deltaTime": 6,
        "channel": 2,
        "note": 83,
        "velocity": 127
      },
      {
        "type": "midi",
        "subType": "noteOn",
        "typeByte": 146,
        "deltaTime": 6,
        "channel": 2,
        "note": 80,
        "velocity": 127
      },
      {
        "type": "midi",
        "subType": "noteOff",
        "typeByte": 146,
        "deltaTime": 173,
        "channel": 2,
        "note": 76,
        "velocity": 0
      },
      {
        "type": "midi",
        "subType": "noteOff",
        "typeByte": 146,
        "deltaTime": 6,
        "channel": 2,
        "note": 71,
        "velocity": 0
      },
      {
        "type": "midi",
        "subType": "noteOff",
        "typeByte": 146,
        "deltaTime": 5,
        "channel": 2,
        "note": 83,
        "velocity": 0
      },
      {
        "type": "midi",
        "subType": "noteOff",
        "typeByte": 146,
        "deltaTime": 7,
        "channel": 2,
        "note": 80,
        "velocity": 0
      },
      {
        "type": "midi",
        "subType": "noteOn",
        "typeByte": 146,
        "deltaTime": 177,
        "channel": 2,
        "note": 81,
        "velocity": 127
      },
      {
        "type": "midi",
        "subType": "noteOn",
        "typeByte": 146,
        "deltaTime": 5,
        "channel": 2,
        "note": 86,
        "velocity": 127
      },
      {
        "type": "midi",
        "subType": "noteOn",
        "typeByte": 146,
        "deltaTime": 7,
        "channel": 2,
        "note": 74,
        "velocity": 127
      },
      {
        "type": "midi",
        "subType": "noteOn",
        "typeByte": 146,
        "deltaTime": 5,
        "channel": 2,
        "note": 78,
        "velocity": 127
      },
      {
        "type": "midi",
        "subType": "noteOff",
        "typeByte": 146,
        "deltaTime": 174,
        "channel": 2,
        "note": 81,
        "velocity": 0
      },
      {
        "type": "midi",
        "subType": "noteOff",
        "typeByte": 146,
        "deltaTime": 5,
        "channel": 2,
        "note": 86,
        "velocity": 0
      },
      {
        "type": "midi",
        "subType": "noteOff",
        "typeByte": 146,
        "deltaTime": 5,
        "channel": 2,
        "note": 74,
        "velocity": 0
      },
      {
        "type": "midi",
        "subType": "noteOff",
        "typeByte": 146,
        "deltaTime": 7,
        "channel": 2,
        "note": 78,
        "velocity": 0
      },
      {
        "type": "midi",
        "subType": "noteOn",
        "typeByte": 146,
        "deltaTime": 177,
        "channel": 2,
        "note": 76,
        "velocity": 127
      },
      {
        "type": "midi",
        "subType": "noteOn",
        "typeByte": 146,
        "deltaTime": 5,
        "channel": 2,
        "note": 83,
        "velocity": 127
      },
      {
        "type": "midi",
        "subType": "noteOn",
        "typeByte": 146,
        "deltaTime": 7,
        "channel": 2,
        "note": 88,
        "velocity": 127
      },
      {
        "type": "midi",
        "subType": "noteOn",
        "typeByte": 146,
        "deltaTime": 5,
        "channel": 2,
        "note": 80,
        "velocity": 127
      },
      {
        "type": "midi",
        "subType": "noteOff",
        "typeByte": 146,
        "deltaTime": 174,
        "channel": 2,
        "note": 76,
        "velocity": 0
      },
      {
        "type": "midi",
        "subType": "noteOff",
        "typeByte": 146,
        "deltaTime": 5,
        "channel": 2,
        "note": 83,
        "velocity": 0
      },
      {
        "type": "midi",
        "subType": "noteOff",
        "typeByte": 146,
        "deltaTime": 6,
        "channel": 2,
        "note": 88,
        "velocity": 0
      },
      {
        "type": "midi",
        "subType": "noteOff",
        "typeByte": 146,
        "deltaTime": 6,
        "channel": 2,
        "note": 80,
        "velocity": 0
      },
      {
        "type": "midi",
        "subType": "noteOn",
        "typeByte": 146,
        "deltaTime": 9423,
        "channel": 2,
        "note": 76,
        "velocity": 127
      },
      {
        "type": "midi",
        "subType": "noteOn",
        "typeByte": 146,
        "deltaTime": 5,
        "channel": 2,
        "note": 73,
        "velocity": 127
      },
      {
        "type": "midi",
        "subType": "noteOn",
        "typeByte": 146,
        "deltaTime": 5,
        "channel": 2,
        "note": 81,
        "velocity": 127
      },
      {
        "type": "midi",
        "subType": "noteOn",
        "typeByte": 146,
        "deltaTime": 7,
        "channel": 2,
        "note": 69,
        "velocity": 127
      },
      {
        "type": "midi",
        "subType": "noteOff",
        "typeByte": 146,
        "deltaTime": 172,
        "channel": 2,
        "note": 76,
        "velocity": 0
      },
      {
        "type": "midi",
        "subType": "noteOff",
        "typeByte": 146,
        "deltaTime": 6,
        "channel": 2,
        "note": 73,
        "velocity": 0
      },
      {
        "type": "midi",
        "subType": "noteOff",
        "typeByte": 146,
        "deltaTime": 6,
        "channel": 2,
        "note": 81,
        "velocity": 0
      },
      {
        "type": "midi",
        "subType": "noteOff",
        "typeByte": 146,
        "deltaTime": 6,
        "channel": 2,
        "note": 69,
        "velocity": 0
      },
      {
        "type": "midi",
        "subType": "noteOn",
        "typeByte": 146,
        "deltaTime": 177,
        "channel": 2,
        "note": 76,
        "velocity": 127
      },
      {
        "type": "midi",
        "subType": "noteOn",
        "typeByte": 146,
        "deltaTime": 6,
        "channel": 2,
        "note": 71,
        "velocity": 127
      },
      {
        "type": "midi",
        "subType": "noteOn",
        "typeByte": 146,
        "deltaTime": 5,
        "channel": 2,
        "note": 83,
        "velocity": 127
      },
      {
        "type": "midi",
        "subType": "noteOn",
        "typeByte": 146,
        "deltaTime": 7,
        "channel": 2,
        "note": 80,
        "velocity": 127
      },
      {
        "type": "midi",
        "subType": "noteOff",
        "typeByte": 146,
        "deltaTime": 173,
        "channel": 2,
        "note": 76,
        "velocity": 0
      },
      {
        "type": "midi",
        "subType": "noteOff",
        "typeByte": 146,
        "deltaTime": 5,
        "channel": 2,
        "note": 71,
        "velocity": 0
      },
      {
        "type": "midi",
        "subType": "noteOff",
        "typeByte": 146,
        "deltaTime": 7,
        "channel": 2,
        "note": 83,
        "velocity": 0
      },
      {
        "type": "midi",
        "subType": "noteOff",
        "typeByte": 146,
        "deltaTime": 5,
        "channel": 2,
        "note": 80,
        "velocity": 0
      },
      {
        "type": "midi",
        "subType": "noteOn",
        "typeByte": 146,
        "deltaTime": 177,
        "channel": 2,
        "note": 81,
        "velocity": 127
      },
      {
        "type": "midi",
        "subType": "noteOn",
        "typeByte": 146,
        "deltaTime": 6,
        "channel": 2,
        "note": 86,
        "velocity": 127
      },
      {
        "type": "midi",
        "subType": "noteOn",
        "typeByte": 146,
        "deltaTime": 6,
        "channel": 2,
        "note": 74,
        "velocity": 127
      },
      {
        "type": "midi",
        "subType": "noteOn",
        "typeByte": 146,
        "deltaTime": 6,
        "channel": 2,
        "note": 78,
        "velocity": 127
      },
      {
        "type": "midi",
        "subType": "noteOff",
        "typeByte": 146,
        "deltaTime": 173,
        "channel": 2,
        "note": 81,
        "velocity": 0
      },
      {
        "type": "midi",
        "subType": "noteOff",
        "typeByte": 146,
        "deltaTime": 5,
        "channel": 2,
        "note": 86,
        "velocity": 0
      },
      {
        "type": "midi",
        "subType": "noteOff",
        "typeByte": 146,
        "deltaTime": 7,
        "channel": 2,
        "note": 74,
        "velocity": 0
      },
      {
        "type": "midi",
        "subType": "noteOff",
        "typeByte": 146,
        "deltaTime": 5,
        "channel": 2,
        "note": 78,
        "velocity": 0
      },
      {
        "type": "midi",
        "subType": "noteOn",
        "typeByte": 146,
        "deltaTime": 177,
        "channel": 2,
        "note": 76,
        "velocity": 127
      },
      {
        "type": "midi",
        "subType": "noteOn",
        "typeByte": 146,
        "deltaTime": 6,
        "channel": 2,
        "note": 83,
        "velocity": 127
      },
      {
        "type": "midi",
        "subType": "noteOn",
        "typeByte": 146,
        "deltaTime": 6,
        "channel": 2,
        "note": 88,
        "velocity": 127
      },
      {
        "type": "midi",
        "subType": "noteOn",
        "typeByte": 146,
        "deltaTime": 7,
        "channel": 2,
        "note": 80,
        "velocity": 127
      },
      {
        "type": "midi",
        "subType": "noteOff",
        "typeByte": 146,
        "deltaTime": 172,
        "channel": 2,
        "note": 76,
        "velocity": 0
      },
      {
        "type": "midi",
        "subType": "noteOff",
        "typeByte": 146,
        "deltaTime": 5,
        "channel": 2,
        "note": 83,
        "velocity": 0
      },
      {
        "type": "midi",
        "subType": "noteOff",
        "typeByte": 146,
        "deltaTime": 7,
        "channel": 2,
        "note": 88,
        "velocity": 0
      },
      {
        "type": "midi",
        "subType": "noteOff",
        "typeByte": 146,
        "deltaTime": 5,
        "channel": 2,
        "note": 80,
        "velocity": 0
      },
      {
        "type": "midi",
        "subType": "noteOn",
        "typeByte": 146,
        "deltaTime": 177,
        "channel": 2,
        "note": 76,
        "velocity": 127
      },
      {
        "type": "midi",
        "subType": "noteOn",
        "typeByte": 146,
        "deltaTime": 12,
        "channel": 2,
        "note": 73,
        "velocity": 127
      },
      {
        "type": "midi",
        "subType": "noteOn",
        "typeByte": 146,
        "deltaTime": 12,
        "channel": 2,
        "note": 68,
        "velocity": 127
      },
      {
        "type": "midi",
        "subType": "noteOn",
        "typeByte": 146,
        "deltaTime": 12,
        "channel": 2,
        "note": 80,
        "velocity": 127
      },
      {
        "type": "midi",
        "subType": "noteOff",
        "typeByte": 146,
        "deltaTime": 345,
        "channel": 2,
        "note": 76,
        "velocity": 0
      },
      {
        "type": "midi",
        "subType": "noteOff",
        "typeByte": 146,
        "deltaTime": 12,
        "channel": 2,
        "note": 73,
        "velocity": 0
      },
      {
        "type": "midi",
        "subType": "noteOff",
        "typeByte": 146,
        "deltaTime": 12,
        "channel": 2,
        "note": 68,
        "velocity": 0
      },
      {
        "type": "midi",
        "subType": "noteOff",
        "typeByte": 146,
        "deltaTime": 13,
        "channel": 2,
        "note": 80,
        "velocity": 0
      },
      {
        "type": "midi",
        "subType": "controller",
        "typeByte": 178,
        "deltaTime": 1118,
        "channel": 2,
        "controllerType": 7,
        "value": 101
      },
      {
        "type": "midi",
        "subType": "noteOn",
        "typeByte": 146,
        "deltaTime": 6,
        "channel": 2,
        "note": 80,
        "velocity": 127
      },
      {
        "type": "midi",
        "subType": "noteOff",
        "typeByte": 146,
        "deltaTime": 15,
        "channel": 2,
        "note": 80,
        "velocity": 0
      },
      {
        "type": "midi",
        "subType": "noteOn",
        "typeByte": 146,
        "deltaTime": 8,
        "channel": 2,
        "note": 79,
        "velocity": 127
      },
      {
        "type": "midi",
        "subType": "noteOff",
        "typeByte": 146,
        "deltaTime": 16,
        "channel": 2,
        "note": 79,
        "velocity": 0
      },
      {
        "type": "midi",
        "subType": "noteOn",
        "typeByte": 146,
        "deltaTime": 9,
        "channel": 2,
        "note": 78,
        "velocity": 127
      },
      {
        "type": "midi",
        "subType": "noteOff",
        "typeByte": 146,
        "deltaTime": 16,
        "channel": 2,
        "note": 78,
        "velocity": 0
      },
      {
        "type": "midi",
        "subType": "noteOn",
        "typeByte": 146,
        "deltaTime": 8,
        "channel": 2,
        "note": 77,
        "velocity": 127
      },
      {
        "type": "midi",
        "subType": "noteOff",
        "typeByte": 146,
        "deltaTime": 15,
        "channel": 2,
        "note": 77,
        "velocity": 0
      },
      {
        "type": "midi",
        "subType": "noteOn",
        "typeByte": 146,
        "deltaTime": 8,
        "channel": 2,
        "note": 76,
        "velocity": 127
      },
      {
        "type": "midi",
        "subType": "noteOff",
        "typeByte": 146,
        "deltaTime": 16,
        "channel": 2,
        "note": 76,
        "velocity": 0
      },
      {
        "type": "midi",
        "subType": "noteOn",
        "typeByte": 146,
        "deltaTime": 8,
        "channel": 2,
        "note": 77,
        "velocity": 127
      },
      {
        "type": "midi",
        "subType": "noteOff",
        "typeByte": 146,
        "deltaTime": 17,
        "channel": 2,
        "note": 77,
        "velocity": 0
      },
      {
        "type": "midi",
        "subType": "noteOn",
        "typeByte": 146,
        "deltaTime": 8,
        "channel": 2,
        "note": 78,
        "velocity": 127
      },
      {
        "type": "midi",
        "subType": "noteOff",
        "typeByte": 146,
        "deltaTime": 16,
        "channel": 2,
        "note": 78,
        "velocity": 0
      },
      {
        "type": "midi",
        "subType": "noteOn",
        "typeByte": 146,
        "deltaTime": 8,
        "channel": 2,
        "note": 79,
        "velocity": 127
      },
      {
        "type": "midi",
        "subType": "noteOff",
        "typeByte": 146,
        "deltaTime": 15,
        "channel": 2,
        "note": 79,
        "velocity": 0
      },
      {
        "type": "midi",
        "subType": "noteOn",
        "typeByte": 146,
        "deltaTime": 10,
        "channel": 2,
        "note": 80,
        "velocity": 127
      },
      {
        "type": "midi",
        "subType": "noteOff",
        "typeByte": 146,
        "deltaTime": 14,
        "channel": 2,
        "note": 80,
        "velocity": 0
      },
      {
        "type": "midi",
        "subType": "noteOn",
        "typeByte": 146,
        "deltaTime": 9,
        "channel": 2,
        "note": 79,
        "velocity": 127
      },
      {
        "type": "midi",
        "subType": "noteOff",
        "typeByte": 146,
        "deltaTime": 16,
        "channel": 2,
        "note": 79,
        "velocity": 0
      },
      {
        "type": "midi",
        "subType": "noteOn",
        "typeByte": 146,
        "deltaTime": 9,
        "channel": 2,
        "note": 78,
        "velocity": 127
      },
      {
        "type": "midi",
        "subType": "noteOff",
        "typeByte": 146,
        "deltaTime": 15,
        "channel": 2,
        "note": 78,
        "velocity": 0
      },
      {
        "type": "midi",
        "subType": "noteOn",
        "typeByte": 146,
        "deltaTime": 8,
        "channel": 2,
        "note": 77,
        "velocity": 127
      },
      {
        "type": "midi",
        "subType": "noteOff",
        "typeByte": 146,
        "deltaTime": 15,
        "channel": 2,
        "note": 77,
        "velocity": 0
      },
      {
        "type": "midi",
        "subType": "noteOn",
        "typeByte": 146,
        "deltaTime": 9,
        "channel": 2,
        "note": 76,
        "velocity": 127
      },
      {
        "type": "midi",
        "subType": "noteOff",
        "typeByte": 146,
        "deltaTime": 16,
        "channel": 2,
        "note": 76,
        "velocity": 0
      },
      {
        "type": "midi",
        "subType": "noteOn",
        "typeByte": 146,
        "deltaTime": 8,
        "channel": 2,
        "note": 77,
        "velocity": 127
      },
      {
        "type": "midi",
        "subType": "noteOff",
        "typeByte": 146,
        "deltaTime": 16,
        "channel": 2,
        "note": 77,
        "velocity": 0
      },
      {
        "type": "midi",
        "subType": "noteOn",
        "typeByte": 146,
        "deltaTime": 9,
        "channel": 2,
        "note": 78,
        "velocity": 127
      },
      {
        "type": "midi",
        "subType": "noteOff",
        "typeByte": 146,
        "deltaTime": 16,
        "channel": 2,
        "note": 78,
        "velocity": 0
      },
      {
        "type": "midi",
        "subType": "noteOn",
        "typeByte": 146,
        "deltaTime": 8,
        "channel": 2,
        "note": 79,
        "velocity": 127
      },
      {
        "type": "midi",
        "subType": "noteOff",
        "typeByte": 146,
        "deltaTime": 15,
        "channel": 2,
        "note": 79,
        "velocity": 0
      },
      {
        "type": "midi",
        "subType": "noteOn",
        "typeByte": 146,
        "deltaTime": 9,
        "channel": 2,
        "note": 80,
        "velocity": 127
      },
      {
        "type": "midi",
        "subType": "noteOff",
        "typeByte": 146,
        "deltaTime": 15,
        "channel": 2,
        "note": 80,
        "velocity": 0
      },
      {
        "type": "midi",
        "subType": "noteOn",
        "typeByte": 146,
        "deltaTime": 8,
        "channel": 2,
        "note": 79,
        "velocity": 127
      },
      {
        "type": "midi",
        "subType": "noteOff",
        "typeByte": 146,
        "deltaTime": 16,
        "channel": 2,
        "note": 79,
        "velocity": 0
      },
      {
        "type": "midi",
        "subType": "noteOn",
        "typeByte": 146,
        "deltaTime": 9,
        "channel": 2,
        "note": 78,
        "velocity": 127
      },
      {
        "type": "midi",
        "subType": "noteOff",
        "typeByte": 146,
        "deltaTime": 16,
        "channel": 2,
        "note": 78,
        "velocity": 0
      },
      {
        "type": "midi",
        "subType": "noteOn",
        "typeByte": 146,
        "deltaTime": 8,
        "channel": 2,
        "note": 77,
        "velocity": 127
      },
      {
        "type": "midi",
        "subType": "noteOff",
        "typeByte": 146,
        "deltaTime": 15,
        "channel": 2,
        "note": 77,
        "velocity": 0
      },
      {
        "type": "midi",
        "subType": "noteOn",
        "typeByte": 146,
        "deltaTime": 9,
        "channel": 2,
        "note": 76,
        "velocity": 127
      },
      {
        "type": "midi",
        "subType": "noteOff",
        "typeByte": 146,
        "deltaTime": 15,
        "channel": 2,
        "note": 76,
        "velocity": 0
      },
      {
        "type": "midi",
        "subType": "noteOn",
        "typeByte": 146,
        "deltaTime": 8,
        "channel": 2,
        "note": 77,
        "velocity": 127
      },
      {
        "type": "midi",
        "subType": "noteOff",
        "typeByte": 146,
        "deltaTime": 17,
        "channel": 2,
        "note": 77,
        "velocity": 0
      },
      {
        "type": "midi",
        "subType": "noteOn",
        "typeByte": 146,
        "deltaTime": 8,
        "channel": 2,
        "note": 78,
        "velocity": 127
      },
      {
        "type": "midi",
        "subType": "noteOff",
        "typeByte": 146,
        "deltaTime": 16,
        "channel": 2,
        "note": 78,
        "velocity": 0
      },
      {
        "type": "midi",
        "subType": "noteOn",
        "typeByte": 146,
        "deltaTime": 8,
        "channel": 2,
        "note": 79,
        "velocity": 127
      },
      {
        "type": "midi",
        "subType": "noteOff",
        "typeByte": 146,
        "deltaTime": 15,
        "channel": 2,
        "note": 79,
        "velocity": 0
      },
      {
        "type": "midi",
        "subType": "noteOn",
        "typeByte": 146,
        "deltaTime": 10,
        "channel": 2,
        "note": 80,
        "velocity": 127
      },
      {
        "type": "midi",
        "subType": "noteOff",
        "typeByte": 146,
        "deltaTime": 15,
        "channel": 2,
        "note": 80,
        "velocity": 0
      },
      {
        "type": "midi",
        "subType": "noteOn",
        "typeByte": 146,
        "deltaTime": 8,
        "channel": 2,
        "note": 79,
        "velocity": 127
      },
      {
        "type": "midi",
        "subType": "noteOff",
        "typeByte": 146,
        "deltaTime": 16,
        "channel": 2,
        "note": 79,
        "velocity": 0
      },
      {
        "type": "midi",
        "subType": "noteOn",
        "typeByte": 146,
        "deltaTime": 9,
        "channel": 2,
        "note": 78,
        "velocity": 127
      },
      {
        "type": "midi",
        "subType": "noteOff",
        "typeByte": 146,
        "deltaTime": 15,
        "channel": 2,
        "note": 78,
        "velocity": 0
      },
      {
        "type": "midi",
        "subType": "noteOn",
        "typeByte": 146,
        "deltaTime": 9,
        "channel": 2,
        "note": 77,
        "velocity": 127
      },
      {
        "type": "midi",
        "subType": "noteOff",
        "typeByte": 146,
        "deltaTime": 15,
        "channel": 2,
        "note": 77,
        "velocity": 0
      },
      {
        "type": "midi",
        "subType": "noteOn",
        "typeByte": 146,
        "deltaTime": 9,
        "channel": 2,
        "note": 76,
        "velocity": 127
      },
      {
        "type": "midi",
        "subType": "noteOff",
        "typeByte": 146,
        "deltaTime": 15,
        "channel": 2,
        "note": 76,
        "velocity": 0
      },
      {
        "type": "midi",
        "subType": "controller",
        "typeByte": 178,
        "deltaTime": 3,
        "channel": 2,
        "controllerType": 7,
        "value": 101
      },
      {
        "type": "midi",
        "subType": "controller",
        "typeByte": 178,
        "deltaTime": 4,
        "channel": 2,
        "controllerType": 7,
        "value": 100
      },
      {
        "type": "midi",
        "subType": "noteOn",
        "typeByte": 146,
        "deltaTime": 0,
        "channel": 2,
        "note": 77,
        "velocity": 127
      },
      {
        "type": "midi",
        "subType": "controller",
        "typeByte": 178,
        "deltaTime": 4,
        "channel": 2,
        "controllerType": 7,
        "value": 99
      },
      {
        "type": "midi",
        "subType": "controller",
        "typeByte": 178,
        "deltaTime": 2,
        "channel": 2,
        "controllerType": 7,
        "value": 98
      },
      {
        "type": "midi",
        "subType": "controller",
        "typeByte": 178,
        "deltaTime": 5,
        "channel": 2,
        "controllerType": 7,
        "value": 97
      },
      {
        "type": "midi",
        "subType": "controller",
        "typeByte": 178,
        "deltaTime": 4,
        "channel": 2,
        "controllerType": 7,
        "value": 96
      },
      {
        "type": "midi",
        "subType": "noteOff",
        "typeByte": 146,
        "deltaTime": 2,
        "channel": 2,
        "note": 77,
        "velocity": 0
      },
      {
        "type": "midi",
        "subType": "noteOn",
        "typeByte": 146,
        "deltaTime": 9,
        "channel": 2,
        "note": 78,
        "velocity": 127
      },
      {
        "type": "midi",
        "subType": "controller",
        "typeByte": 178,
        "deltaTime": 1,
        "channel": 2,
        "controllerType": 7,
        "value": 95
      },
      {
        "type": "midi",
        "subType": "noteOff",
        "typeByte": 146,
        "deltaTime": 15,
        "channel": 2,
        "note": 78,
        "velocity": 0
      },
      {
        "type": "midi",
        "subType": "noteOn",
        "typeByte": 146,
        "deltaTime": 8,
        "channel": 2,
        "note": 79,
        "velocity": 127
      },
      {
        "type": "midi",
        "subType": "noteOff",
        "typeByte": 146,
        "deltaTime": 15,
        "channel": 2,
        "note": 79,
        "velocity": 0
      },
      {
        "type": "midi",
        "subType": "noteOn",
        "typeByte": 146,
        "deltaTime": 10,
        "channel": 2,
        "note": 80,
        "velocity": 127
      },
      {
        "type": "midi",
        "subType": "controller",
        "typeByte": 178,
        "deltaTime": 1,
        "channel": 2,
        "controllerType": 7,
        "value": 94
      },
      {
        "type": "midi",
        "subType": "noteOff",
        "typeByte": 146,
        "deltaTime": 13,
        "channel": 2,
        "note": 80,
        "velocity": 0
      },
      {
        "type": "midi",
        "subType": "controller",
        "typeByte": 178,
        "deltaTime": 3,
        "channel": 2,
        "controllerType": 7,
        "value": 93
      },
      {
        "type": "midi",
        "subType": "noteOn",
        "typeByte": 146,
        "deltaTime": 5,
        "channel": 2,
        "note": 79,
        "velocity": 127
      },
      {
        "type": "midi",
        "subType": "controller",
        "typeByte": 178,
        "deltaTime": 2,
        "channel": 2,
        "controllerType": 7,
        "value": 92
      },
      {
        "type": "midi",
        "subType": "controller",
        "typeByte": 178,
        "deltaTime": 8,
        "channel": 2,
        "controllerType": 7,
        "value": 91
      },
      {
        "type": "midi",
        "subType": "controller",
        "typeByte": 178,
        "deltaTime": 4,
        "channel": 2,
        "controllerType": 7,
        "value": 90
      },
      {
        "type": "midi",
        "subType": "noteOff",
        "typeByte": 146,
        "deltaTime": 3,
        "channel": 2,
        "note": 79,
        "velocity": 0
      },
      {
        "type": "midi",
        "subType": "controller",
        "typeByte": 178,
        "deltaTime": 1,
        "channel": 2,
        "controllerType": 7,
        "value": 89
      },
      {
        "type": "midi",
        "subType": "controller",
        "typeByte": 178,
        "deltaTime": 7,
        "channel": 2,
        "controllerType": 7,
        "value": 88
      },
      {
        "type": "midi",
        "subType": "noteOn",
        "typeByte": 146,
        "deltaTime": 0,
        "channel": 2,
        "note": 78,
        "velocity": 127
      },
      {
        "type": "midi",
        "subType": "controller",
        "typeByte": 178,
        "deltaTime": 11,
        "channel": 2,
        "controllerType": 7,
        "value": 87
      },
      {
        "type": "midi",
        "subType": "noteOff",
        "typeByte": 146,
        "deltaTime": 5,
        "channel": 2,
        "note": 78,
        "velocity": 0
      },
      {
        "type": "midi",
        "subType": "noteOn",
        "typeByte": 146,
        "deltaTime": 8,
        "channel": 2,
        "note": 77,
        "velocity": 127
      },
      {
        "type": "midi",
        "subType": "noteOff",
        "typeByte": 146,
        "deltaTime": 15,
        "channel": 2,
        "note": 77,
        "velocity": 0
      },
      {
        "type": "midi",
        "subType": "controller",
        "typeByte": 178,
        "deltaTime": 9,
        "channel": 2,
        "controllerType": 7,
        "value": 86
      },
      {
        "type": "midi",
        "subType": "noteOn",
        "typeByte": 146,
        "deltaTime": 0,
        "channel": 2,
        "note": 76,
        "velocity": 127
      },
      {
        "type": "midi",
        "subType": "controller",
        "typeByte": 178,
        "deltaTime": 10,
        "channel": 2,
        "controllerType": 7,
        "value": 85
      },
      {
        "type": "midi",
        "subType": "noteOff",
        "typeByte": 146,
        "deltaTime": 5,
        "channel": 2,
        "note": 76,
        "velocity": 0
      },
      {
        "type": "midi",
        "subType": "controller",
        "typeByte": 178,
        "deltaTime": 2,
        "channel": 2,
        "controllerType": 7,
        "value": 84
      },
      {
        "type": "midi",
        "subType": "noteOn",
        "typeByte": 146,
        "deltaTime": 7,
        "channel": 2,
        "note": 77,
        "velocity": 127
      },
      {
        "type": "midi",
        "subType": "controller",
        "typeByte": 178,
        "deltaTime": 1,
        "channel": 2,
        "controllerType": 7,
        "value": 83
      },
      {
        "type": "midi",
        "subType": "controller",
        "typeByte": 178,
        "deltaTime": 4,
        "channel": 2,
        "controllerType": 7,
        "value": 82
      },
      {
        "type": "midi",
        "subType": "controller",
        "typeByte": 178,
        "deltaTime": 7,
        "channel": 2,
        "controllerType": 7,
        "value": 81
      },
      {
        "type": "midi",
        "subType": "noteOff",
        "typeByte": 146,
        "deltaTime": 4,
        "channel": 2,
        "note": 77,
        "velocity": 0
      },
      {
        "type": "midi",
        "subType": "controller",
        "typeByte": 178,
        "deltaTime": 0,
        "channel": 2,
        "controllerType": 7,
        "value": 80
      },
      {
        "type": "midi",
        "subType": "controller",
        "typeByte": 178,
        "deltaTime": 8,
        "channel": 2,
        "controllerType": 7,
        "value": 79
      },
      {
        "type": "midi",
        "subType": "noteOn",
        "typeByte": 146,
        "deltaTime": 1,
        "channel": 2,
        "note": 78,
        "velocity": 127
      },
      {
        "type": "midi",
        "subType": "controller",
        "typeByte": 178,
        "deltaTime": 8,
        "channel": 2,
        "controllerType": 7,
        "value": 78
      },
      {
        "type": "midi",
        "subType": "noteOff",
        "typeByte": 146,
        "deltaTime": 7,
        "channel": 2,
        "note": 78,
        "velocity": 0
      },
      {
        "type": "midi",
        "subType": "controller",
        "typeByte": 178,
        "deltaTime": 2,
        "channel": 2,
        "controllerType": 7,
        "value": 77
      },
      {
        "type": "midi",
        "subType": "noteOn",
        "typeByte": 146,
        "deltaTime": 7,
        "channel": 2,
        "note": 79,
        "velocity": 127
      },
      {
        "type": "midi",
        "subType": "controller",
        "typeByte": 178,
        "deltaTime": 4,
        "channel": 2,
        "controllerType": 7,
        "value": 76
      },
      {
        "type": "midi",
        "subType": "noteOff",
        "typeByte": 146,
        "deltaTime": 10,
        "channel": 2,
        "note": 79,
        "velocity": 0
      },
      {
        "type": "midi",
        "subType": "controller",
        "typeByte": 178,
        "deltaTime": 1,
        "channel": 2,
        "controllerType": 7,
        "value": 75
      },
      {
        "type": "midi",
        "subType": "noteOn",
        "typeByte": 146,
        "deltaTime": 9,
        "channel": 2,
        "note": 80,
        "velocity": 127
      },
      {
        "type": "midi",
        "subType": "noteOff",
        "typeByte": 146,
        "deltaTime": 15,
        "channel": 2,
        "note": 80,
        "velocity": 0
      },
      {
        "type": "midi",
        "subType": "controller",
        "typeByte": 178,
        "deltaTime": 4,
        "channel": 2,
        "controllerType": 7,
        "value": 74
      },
      {
        "type": "midi",
        "subType": "noteOn",
        "typeByte": 146,
        "deltaTime": 4,
        "channel": 2,
        "note": 79,
        "velocity": 127
      },
      {
        "type": "midi",
        "subType": "controller",
        "typeByte": 178,
        "deltaTime": 11,
        "channel": 2,
        "controllerType": 7,
        "value": 73
      },
      {
        "type": "midi",
        "subType": "noteOff",
        "typeByte": 146,
        "deltaTime": 5,
        "channel": 2,
        "note": 79,
        "velocity": 0
      },
      {
        "type": "midi",
        "subType": "controller",
        "typeByte": 178,
        "deltaTime": 3,
        "channel": 2,
        "controllerType": 7,
        "value": 72
      },
      {
        "type": "midi",
        "subType": "noteOn",
        "typeByte": 146,
        "deltaTime": 6,
        "channel": 2,
        "note": 78,
        "velocity": 127
      },
      {
        "type": "midi",
        "subType": "controller",
        "typeByte": 178,
        "deltaTime": 1,
        "channel": 2,
        "controllerType": 7,
        "value": 71
      },
      {
        "type": "midi",
        "subType": "controller",
        "typeByte": 178,
        "deltaTime": 8,
        "channel": 2,
        "controllerType": 7,
        "value": 70
      },
      {
        "type": "midi",
        "subType": "controller",
        "typeByte": 178,
        "deltaTime": 2,
        "channel": 2,
        "controllerType": 7,
        "value": 69
      },
      {
        "type": "midi",
        "subType": "noteOff",
        "typeByte": 146,
        "deltaTime": 5,
        "channel": 2,
        "note": 78,
        "velocity": 0
      },
      {
        "type": "midi",
        "subType": "controller",
        "typeByte": 178,
        "deltaTime": 0,
        "channel": 2,
        "controllerType": 7,
        "value": 68
      },
      {
        "type": "midi",
        "subType": "noteOn",
        "typeByte": 146,
        "deltaTime": 8,
        "channel": 2,
        "note": 77,
        "velocity": 127
      },
      {
        "type": "midi",
        "subType": "controller",
        "typeByte": 178,
        "deltaTime": 0,
        "channel": 2,
        "controllerType": 7,
        "value": 67
      },
      {
        "type": "midi",
        "subType": "controller",
        "typeByte": 178,
        "deltaTime": 6,
        "channel": 2,
        "controllerType": 7,
        "value": 66
      },
      {
        "type": "midi",
        "subType": "noteOff",
        "typeByte": 146,
        "deltaTime": 9,
        "channel": 2,
        "note": 77,
        "velocity": 0
      },
      {
        "type": "midi",
        "subType": "noteOn",
        "typeByte": 146,
        "deltaTime": 9,
        "channel": 2,
        "note": 76,
        "velocity": 127
      },
      {
        "type": "midi",
        "subType": "controller",
        "typeByte": 178,
        "deltaTime": 6,
        "channel": 2,
        "controllerType": 7,
        "value": 65
      },
      {
        "type": "midi",
        "subType": "controller",
        "typeByte": 178,
        "deltaTime": 6,
        "channel": 2,
        "controllerType": 7,
        "value": 64
      },
      {
        "type": "midi",
        "subType": "noteOff",
        "typeByte": 146,
        "deltaTime": 3,
        "channel": 2,
        "note": 76,
        "velocity": 0
      },
      {
        "type": "midi",
        "subType": "controller",
        "typeByte": 178,
        "deltaTime": 1,
        "channel": 2,
        "controllerType": 7,
        "value": 63
      },
      {
        "type": "midi",
        "subType": "controller",
        "typeByte": 178,
        "deltaTime": 4,
        "channel": 2,
        "controllerType": 7,
        "value": 62
      },
      {
        "type": "midi",
        "subType": "noteOn",
        "typeByte": 146,
        "deltaTime": 3,
        "channel": 2,
        "note": 77,
        "velocity": 127
      },
      {
        "type": "midi",
        "subType": "controller",
        "typeByte": 178,
        "deltaTime": 2,
        "channel": 2,
        "controllerType": 7,
        "value": 61
      },
      {
        "type": "midi",
        "subType": "controller",
        "typeByte": 178,
        "deltaTime": 8,
        "channel": 2,
        "controllerType": 7,
        "value": 60
      },
      {
        "type": "midi",
        "subType": "noteOff",
        "typeByte": 146,
        "deltaTime": 7,
        "channel": 2,
        "note": 77,
        "velocity": 0
      },
      {
        "type": "midi",
        "subType": "controller",
        "typeByte": 178,
        "deltaTime": 0,
        "channel": 2,
        "controllerType": 7,
        "value": 59
      },
      {
        "type": "midi",
        "subType": "controller",
        "typeByte": 178,
        "deltaTime": 3,
        "channel": 2,
        "controllerType": 7,
        "value": 58
      },
      {
        "type": "midi",
        "subType": "controller",
        "typeByte": 178,
        "deltaTime": 5,
        "channel": 2,
        "controllerType": 7,
        "value": 57
      },
      {
        "type": "midi",
        "subType": "noteOn",
        "typeByte": 146,
        "deltaTime": 0,
        "channel": 2,
        "note": 78,
        "velocity": 127
      },
      {
        "type": "midi",
        "subType": "controller",
        "typeByte": 178,
        "deltaTime": 8,
        "channel": 2,
        "controllerType": 7,
        "value": 56
      },
      {
        "type": "midi",
        "subType": "controller",
        "typeByte": 178,
        "deltaTime": 6,
        "channel": 2,
        "controllerType": 7,
        "value": 55
      },
      {
        "type": "midi",
        "subType": "noteOff",
        "typeByte": 146,
        "deltaTime": 2,
        "channel": 2,
        "note": 78,
        "velocity": 0
      },
      {
        "type": "midi",
        "subType": "noteOn",
        "typeByte": 146,
        "deltaTime": 8,
        "channel": 2,
        "note": 79,
        "velocity": 127
      },
      {
        "type": "midi",
        "subType": "controller",
        "typeByte": 178,
        "deltaTime": 1,
        "channel": 2,
        "controllerType": 7,
        "value": 54
      },
      {
        "type": "midi",
        "subType": "controller",
        "typeByte": 178,
        "deltaTime": 4,
        "channel": 2,
        "controllerType": 7,
        "value": 53
      },
      {
        "type": "midi",
        "subType": "controller",
        "typeByte": 178,
        "deltaTime": 7,
        "channel": 2,
        "controllerType": 7,
        "value": 52
      },
      {
        "type": "midi",
        "subType": "noteOff",
        "typeByte": 146,
        "deltaTime": 3,
        "channel": 2,
        "note": 79,
        "velocity": 0
      },
      {
        "type": "midi",
        "subType": "noteOn",
        "typeByte": 146,
        "deltaTime": 9,
        "channel": 2,
        "note": 80,
        "velocity": 127
      },
      {
        "type": "midi",
        "subType": "controller",
        "typeByte": 178,
        "deltaTime": 0,
        "channel": 2,
        "controllerType": 7,
        "value": 51
      },
      {
        "type": "midi",
        "subType": "controller",
        "typeByte": 178,
        "deltaTime": 3,
        "channel": 2,
        "controllerType": 7,
        "value": 50
      },
      {
        "type": "midi",
        "subType": "controller",
        "typeByte": 178,
        "deltaTime": 7,
        "channel": 2,
        "controllerType": 7,
        "value": 49
      },
      {
        "type": "midi",
        "subType": "noteOff",
        "typeByte": 146,
        "deltaTime": 5,
        "channel": 2,
        "note": 80,
        "velocity": 0
      },
      {
        "type": "midi",
        "subType": "controller",
        "typeByte": 178,
        "deltaTime": 1,
        "channel": 2,
        "controllerType": 7,
        "value": 47
      },
      {
        "type": "midi",
        "subType": "controller",
        "typeByte": 178,
        "deltaTime": 2,
        "channel": 2,
        "controllerType": 7,
        "value": 46
      },
      {
        "type": "midi",
        "subType": "controller",
        "typeByte": 178,
        "deltaTime": 4,
        "channel": 2,
        "controllerType": 7,
        "value": 44
      },
      {
        "type": "midi",
        "subType": "noteOn",
        "typeByte": 146,
        "deltaTime": 2,
        "channel": 2,
        "note": 79,
        "velocity": 127
      },
      {
        "type": "midi",
        "subType": "controller",
        "typeByte": 178,
        "deltaTime": 2,
        "channel": 2,
        "controllerType": 7,
        "value": 42
      },
      {
        "type": "midi",
        "subType": "controller",
        "typeByte": 178,
        "deltaTime": 4,
        "channel": 2,
        "controllerType": 7,
        "value": 40
      },
      {
        "type": "midi",
        "subType": "controller",
        "typeByte": 178,
        "deltaTime": 4,
        "channel": 2,
        "controllerType": 7,
        "value": 37
      },
      {
        "type": "midi",
        "subType": "controller",
        "typeByte": 178,
        "deltaTime": 4,
        "channel": 2,
        "controllerType": 7,
        "value": 34
      },
      {
        "type": "midi",
        "subType": "noteOff",
        "typeByte": 146,
        "deltaTime": 2,
        "channel": 2,
        "note": 79,
        "velocity": 0
      },
      {
        "type": "midi",
        "subType": "controller",
        "typeByte": 178,
        "deltaTime": 2,
        "channel": 2,
        "controllerType": 7,
        "value": 30
      },
      {
        "type": "midi",
        "subType": "controller",
        "typeByte": 178,
        "deltaTime": 4,
        "channel": 2,
        "controllerType": 7,
        "value": 27
      },
      {
        "type": "midi",
        "subType": "noteOn",
        "typeByte": 146,
        "deltaTime": 2,
        "channel": 2,
        "note": 78,
        "velocity": 127
      },
      {
        "type": "midi",
        "subType": "controller",
        "typeByte": 178,
        "deltaTime": 3,
        "channel": 2,
        "controllerType": 7,
        "value": 22
      },
      {
        "type": "midi",
        "subType": "controller",
        "typeByte": 178,
        "deltaTime": 4,
        "channel": 2,
        "controllerType": 7,
        "value": 17
      },
      {
        "type": "midi",
        "subType": "controller",
        "typeByte": 178,
        "deltaTime": 2,
        "channel": 2,
        "controllerType": 7,
        "value": 13
      },
      {
        "type": "midi",
        "subType": "controller",
        "typeByte": 178,
        "deltaTime": 4,
        "channel": 2,
        "controllerType": 7,
        "value": 8
      },
      {
        "type": "midi",
        "subType": "noteOff",
        "typeByte": 146,
        "deltaTime": 3,
        "channel": 2,
        "note": 78,
        "velocity": 0
      },
      {
        "type": "midi",
        "subType": "controller",
        "typeByte": 178,
        "deltaTime": 2,
        "channel": 2,
        "controllerType": 7,
        "value": 2
      },
      {
        "type": "midi",
        "subType": "noteOn",
        "typeByte": 146,
        "deltaTime": 6,
        "channel": 2,
        "note": 77,
        "velocity": 127
      },
      {
        "type": "midi",
        "subType": "noteOff",
        "typeByte": 146,
        "deltaTime": 15,
        "channel": 2,
        "note": 77,
        "velocity": 0
      },
      {
        "type": "midi",
        "subType": "noteOn",
        "typeByte": 146,
        "deltaTime": 9,
        "channel": 2,
        "note": 76,
        "velocity": 127
      },
      {
        "type": "midi",
        "subType": "noteOff",
        "typeByte": 146,
        "deltaTime": 16,
        "channel": 2,
        "note": 76,
        "velocity": 0
      },
      {
        "type": "midi",
        "subType": "noteOn",
        "typeByte": 146,
        "deltaTime": 8,
        "channel": 2,
        "note": 77,
        "velocity": 127
      },
      {
        "type": "midi",
        "subType": "noteOff",
        "typeByte": 146,
        "deltaTime": 16,
        "channel": 2,
        "note": 77,
        "velocity": 0
      },
      {
        "type": "midi",
        "subType": "noteOn",
        "typeByte": 146,
        "deltaTime": 9,
        "channel": 2,
        "note": 78,
        "velocity": 127
      },
      {
        "type": "midi",
        "subType": "noteOff",
        "typeByte": 146,
        "deltaTime": 15,
        "channel": 2,
        "note": 78,
        "velocity": 0
      },
      {
        "type": "midi",
        "subType": "noteOn",
        "typeByte": 146,
        "deltaTime": 9,
        "channel": 2,
        "note": 79,
        "velocity": 127
      },
      {
        "type": "midi",
        "subType": "noteOff",
        "typeByte": 146,
        "deltaTime": 15,
        "channel": 2,
        "note": 79,
        "velocity": 0
      },
      {
        "type": "midi",
        "subType": "controller",
        "typeByte": 178,
        "deltaTime": 4,
        "channel": 2,
        "controllerType": 7,
        "value": 111
      },
      {
        "type": "midi",
        "subType": "noteOn",
        "typeByte": 146,
        "deltaTime": 5,
        "channel": 2,
        "note": 73,
        "velocity": 127
      },
      {
        "type": "midi",
        "subType": "noteOn",
        "typeByte": 146,
        "deltaTime": 0,
        "channel": 2,
        "note": 85,
        "velocity": 127
      },
      {
        "type": "midi",
        "subType": "controller",
        "typeByte": 178,
        "deltaTime": 179,
        "channel": 2,
        "controllerType": 7,
        "value": 111
      },
      {
        "type": "midi",
        "subType": "noteOff",
        "typeByte": 146,
        "deltaTime": 8,
        "channel": 2,
        "note": 85,
        "velocity": 0
      },
      {
        "type": "midi",
        "subType": "noteOff",
        "typeByte": 146,
        "deltaTime": 0,
        "channel": 2,
        "note": 73,
        "velocity": 0
      },
      {
        "type": "midi",
        "subType": "noteOn",
        "typeByte": 146,
        "deltaTime": 7,
        "channel": 2,
        "note": 73,
        "velocity": 127
      },
      {
        "type": "midi",
        "subType": "noteOn",
        "typeByte": 146,
        "deltaTime": 0,
        "channel": 2,
        "note": 85,
        "velocity": 127
      },
      {
        "type": "midi",
        "subType": "noteOn",
        "typeByte": 146,
        "deltaTime": 0,
        "channel": 2,
        "note": 80,
        "velocity": 112
      },
      {
        "type": "midi",
        "subType": "noteOff",
        "typeByte": 146,
        "deltaTime": 18,
        "channel": 2,
        "note": 80,
        "velocity": 0
      },
      {
        "type": "midi",
        "subType": "noteOff",
        "typeByte": 146,
        "deltaTime": 4,
        "channel": 2,
        "note": 73,
        "velocity": 0
      },
      {
        "type": "midi",
        "subType": "noteOn",
        "typeByte": 146,
        "deltaTime": 0,
        "channel": 2,
        "note": 79,
        "velocity": 112
      },
      {
        "type": "midi",
        "subType": "noteOff",
        "typeByte": 146,
        "deltaTime": 5,
        "channel": 2,
        "note": 85,
        "velocity": 0
      },
      {
        "type": "midi",
        "subType": "noteOff",
        "typeByte": 146,
        "deltaTime": 15,
        "channel": 2,
        "note": 79,
        "velocity": 0
      },
      {
        "type": "midi",
        "subType": "noteOn",
        "typeByte": 146,
        "deltaTime": 5,
        "channel": 2,
        "note": 78,
        "velocity": 112
      },
      {
        "type": "midi",
        "subType": "noteOn",
        "typeByte": 146,
        "deltaTime": 0,
        "channel": 2,
        "note": 74,
        "velocity": 127
      },
      {
        "type": "midi",
        "subType": "noteOn",
        "typeByte": 146,
        "deltaTime": 0,
        "channel": 2,
        "note": 86,
        "velocity": 127
      },
      {
        "type": "midi",
        "subType": "noteOff",
        "typeByte": 146,
        "deltaTime": 20,
        "channel": 2,
        "note": 78,
        "velocity": 0
      },
      {
        "type": "midi",
        "subType": "noteOn",
        "typeByte": 146,
        "deltaTime": 4,
        "channel": 2,
        "note": 77,
        "velocity": 112
      },
      {
        "type": "midi",
        "subType": "noteOff",
        "typeByte": 146,
        "deltaTime": 18,
        "channel": 2,
        "note": 77,
        "velocity": 0
      },
      {
        "type": "midi",
        "subType": "noteOn",
        "typeByte": 146,
        "deltaTime": 5,
        "channel": 2,
        "note": 76,
        "velocity": 112
      },
      {
        "type": "midi",
        "subType": "noteOff",
        "typeByte": 146,
        "deltaTime": 20,
        "channel": 2,
        "note": 76,
        "velocity": 0
      },
      {
        "type": "midi",
        "subType": "noteOn",
        "typeByte": 146,
        "deltaTime": 4,
        "channel": 2,
        "note": 77,
        "velocity": 112
      },
      {
        "type": "midi",
        "subType": "noteOff",
        "typeByte": 146,
        "deltaTime": 20,
        "channel": 2,
        "note": 77,
        "velocity": 0
      },
      {
        "type": "midi",
        "subType": "noteOn",
        "typeByte": 146,
        "deltaTime": 5,
        "channel": 2,
        "note": 78,
        "velocity": 112
      },
      {
        "type": "midi",
        "subType": "noteOff",
        "typeByte": 146,
        "deltaTime": 20,
        "channel": 2,
        "note": 78,
        "velocity": 0
      },
      {
        "type": "midi",
        "subType": "noteOn",
        "typeByte": 146,
        "deltaTime": 4,
        "channel": 2,
        "note": 79,
        "velocity": 112
      },
      {
        "type": "midi",
        "subType": "noteOff",
        "typeByte": 146,
        "deltaTime": 19,
        "channel": 2,
        "note": 79,
        "velocity": 0
      },
      {
        "type": "midi",
        "subType": "noteOn",
        "typeByte": 146,
        "deltaTime": 5,
        "channel": 2,
        "note": 80,
        "velocity": 115
      },
      {
        "type": "midi",
        "subType": "noteOff",
        "typeByte": 146,
        "deltaTime": 19,
        "channel": 2,
        "note": 80,
        "velocity": 0
      },
      {
        "type": "midi",
        "subType": "noteOn",
        "typeByte": 146,
        "deltaTime": 4,
        "channel": 2,
        "note": 79,
        "velocity": 115
      },
      {
        "type": "midi",
        "subType": "noteOff",
        "typeByte": 146,
        "deltaTime": 21,
        "channel": 2,
        "note": 79,
        "velocity": 0
      },
      {
        "type": "midi",
        "subType": "noteOn",
        "typeByte": 146,
        "deltaTime": 5,
        "channel": 2,
        "note": 78,
        "velocity": 115
      },
      {
        "type": "midi",
        "subType": "noteOff",
        "typeByte": 146,
        "deltaTime": 19,
        "channel": 2,
        "note": 78,
        "velocity": 0
      },
      {
        "type": "midi",
        "subType": "noteOn",
        "typeByte": 146,
        "deltaTime": 4,
        "channel": 2,
        "note": 77,
        "velocity": 116
      },
      {
        "type": "midi",
        "subType": "noteOff",
        "typeByte": 146,
        "deltaTime": 19,
        "channel": 2,
        "note": 77,
        "velocity": 0
      },
      {
        "type": "midi",
        "subType": "noteOn",
        "typeByte": 146,
        "deltaTime": 5,
        "channel": 2,
        "note": 76,
        "velocity": 116
      },
      {
        "type": "midi",
        "subType": "noteOff",
        "typeByte": 146,
        "deltaTime": 20,
        "channel": 2,
        "note": 76,
        "velocity": 0
      },
      {
        "type": "midi",
        "subType": "noteOn",
        "typeByte": 146,
        "deltaTime": 4,
        "channel": 2,
        "note": 77,
        "velocity": 116
      },
      {
        "type": "midi",
        "subType": "noteOff",
        "typeByte": 146,
        "deltaTime": 20,
        "channel": 2,
        "note": 77,
        "velocity": 0
      },
      {
        "type": "midi",
        "subType": "noteOn",
        "typeByte": 146,
        "deltaTime": 4,
        "channel": 2,
        "note": 78,
        "velocity": 116
      },
      {
        "type": "midi",
        "subType": "noteOff",
        "typeByte": 146,
        "deltaTime": 20,
        "channel": 2,
        "note": 78,
        "velocity": 0
      },
      {
        "type": "midi",
        "subType": "noteOn",
        "typeByte": 146,
        "deltaTime": 5,
        "channel": 2,
        "note": 79,
        "velocity": 120
      },
      {
        "type": "midi",
        "subType": "noteOff",
        "typeByte": 146,
        "deltaTime": 18,
        "channel": 2,
        "note": 79,
        "velocity": 0
      },
      {
        "type": "midi",
        "subType": "noteOn",
        "typeByte": 146,
        "deltaTime": 5,
        "channel": 2,
        "note": 80,
        "velocity": 120
      },
      {
        "type": "midi",
        "subType": "noteOff",
        "typeByte": 146,
        "deltaTime": 20,
        "channel": 2,
        "note": 80,
        "velocity": 0
      },
      {
        "type": "midi",
        "subType": "noteOn",
        "typeByte": 146,
        "deltaTime": 4,
        "channel": 2,
        "note": 79,
        "velocity": 121
      },
      {
        "type": "midi",
        "subType": "noteOff",
        "typeByte": 146,
        "deltaTime": 20,
        "channel": 2,
        "note": 79,
        "velocity": 0
      },
      {
        "type": "midi",
        "subType": "noteOn",
        "typeByte": 146,
        "deltaTime": 5,
        "channel": 2,
        "note": 78,
        "velocity": 121
      },
      {
        "type": "midi",
        "subType": "noteOff",
        "typeByte": 146,
        "deltaTime": 20,
        "channel": 2,
        "note": 78,
        "velocity": 0
      },
      {
        "type": "midi",
        "subType": "noteOff",
        "typeByte": 146,
        "deltaTime": 4,
        "channel": 2,
        "note": 86,
        "velocity": 0
      },
      {
        "type": "midi",
        "subType": "noteOff",
        "typeByte": 146,
        "deltaTime": 0,
        "channel": 2,
        "note": 74,
        "velocity": 0
      },
      {
        "type": "midi",
        "subType": "noteOn",
        "typeByte": 146,
        "deltaTime": 0,
        "channel": 2,
        "note": 77,
        "velocity": 121
      },
      {
        "type": "midi",
        "subType": "noteOff",
        "typeByte": 146,
        "deltaTime": 19,
        "channel": 2,
        "note": 77,
        "velocity": 0
      },
      {
        "type": "midi",
        "subType": "noteOn",
        "typeByte": 146,
        "deltaTime": 4,
        "channel": 2,
        "note": 76,
        "velocity": 123
      },
      {
        "type": "midi",
        "subType": "noteOff",
        "typeByte": 146,
        "deltaTime": 20,
        "channel": 2,
        "note": 76,
        "velocity": 0
      },
      {
        "type": "midi",
        "subType": "noteOn",
        "typeByte": 146,
        "deltaTime": 4,
        "channel": 2,
        "note": 77,
        "velocity": 123
      },
      {
        "type": "midi",
        "subType": "noteOff",
        "typeByte": 146,
        "deltaTime": 20,
        "channel": 2,
        "note": 77,
        "velocity": 0
      },
      {
        "type": "midi",
        "subType": "noteOn",
        "typeByte": 146,
        "deltaTime": 5,
        "channel": 2,
        "note": 78,
        "velocity": 127
      },
      {
        "type": "midi",
        "subType": "noteOff",
        "typeByte": 146,
        "deltaTime": 20,
        "channel": 2,
        "note": 78,
        "velocity": 0
      },
      {
        "type": "midi",
        "subType": "noteOn",
        "typeByte": 146,
        "deltaTime": 4,
        "channel": 2,
        "note": 79,
        "velocity": 127
      },
      {
        "type": "midi",
        "subType": "noteOff",
        "typeByte": 146,
        "deltaTime": 19,
        "channel": 2,
        "note": 79,
        "velocity": 0
      },
      {
        "type": "midi",
        "subType": "noteOn",
        "typeByte": 146,
        "deltaTime": 5,
        "channel": 2,
        "note": 80,
        "velocity": 127
      },
      {
        "type": "midi",
        "subType": "noteOn",
        "typeByte": 146,
        "deltaTime": 0,
        "channel": 2,
        "note": 69,
        "velocity": 127
      },
      {
        "type": "midi",
        "subType": "noteOn",
        "typeByte": 146,
        "deltaTime": 1,
        "channel": 2,
        "note": 81,
        "velocity": 127
      },
      {
        "type": "midi",
        "subType": "noteOff",
        "typeByte": 146,
        "deltaTime": 18,
        "channel": 2,
        "note": 80,
        "velocity": 0
      },
      {
        "type": "midi",
        "subType": "noteOn",
        "typeByte": 146,
        "deltaTime": 4,
        "channel": 2,
        "note": 79,
        "velocity": 127
      },
      {
        "type": "midi",
        "subType": "noteOff",
        "typeByte": 146,
        "deltaTime": 21,
        "channel": 2,
        "note": 79,
        "velocity": 0
      },
      {
        "type": "midi",
        "subType": "noteOn",
        "typeByte": 146,
        "deltaTime": 5,
        "channel": 2,
        "note": 78,
        "velocity": 127
      },
      {
        "type": "midi",
        "subType": "noteOff",
        "typeByte": 146,
        "deltaTime": 19,
        "channel": 2,
        "note": 78,
        "velocity": 0
      },
      {
        "type": "midi",
        "subType": "noteOn",
        "typeByte": 146,
        "deltaTime": 5,
        "channel": 2,
        "note": 77,
        "velocity": 127
      },
      {
        "type": "midi",
        "subType": "noteOff",
        "typeByte": 146,
        "deltaTime": 18,
        "channel": 2,
        "note": 77,
        "velocity": 0
      },
      {
        "type": "midi",
        "subType": "noteOn",
        "typeByte": 146,
        "deltaTime": 5,
        "channel": 2,
        "note": 76,
        "velocity": 127
      },
      {
        "type": "midi",
        "subType": "noteOff",
        "typeByte": 146,
        "deltaTime": 20,
        "channel": 2,
        "note": 76,
        "velocity": 0
      },
      {
        "type": "midi",
        "subType": "noteOff",
        "typeByte": 146,
        "deltaTime": 3,
        "channel": 2,
        "note": 81,
        "velocity": 0
      },
      {
        "type": "midi",
        "subType": "noteOn",
        "typeByte": 146,
        "deltaTime": 1,
        "channel": 2,
        "note": 77,
        "velocity": 127
      },
      {
        "type": "midi",
        "subType": "noteOff",
        "typeByte": 146,
        "deltaTime": 2,
        "channel": 2,
        "note": 69,
        "velocity": 0
      },
      {
        "type": "midi",
        "subType": "noteOff",
        "typeByte": 146,
        "deltaTime": 18,
        "channel": 2,
        "note": 77,
        "velocity": 0
      },
      {
        "type": "midi",
        "subType": "noteOn",
        "typeByte": 146,
        "deltaTime": 5,
        "channel": 2,
        "note": 78,
        "velocity": 127
      },
      {
        "type": "midi",
        "subType": "noteOff",
        "typeByte": 146,
        "deltaTime": 20,
        "channel": 2,
        "note": 78,
        "velocity": 0
      },
      {
        "type": "midi",
        "subType": "noteOn",
        "typeByte": 146,
        "deltaTime": 4,
        "channel": 2,
        "note": 79,
        "velocity": 127
      },
      {
        "type": "midi",
        "subType": "noteOff",
        "typeByte": 146,
        "deltaTime": 19,
        "channel": 2,
        "note": 79,
        "velocity": 0
      },
      {
        "type": "midi",
        "subType": "noteOn",
        "typeByte": 146,
        "deltaTime": 6,
        "channel": 2,
        "note": 69,
        "velocity": 127
      },
      {
        "type": "midi",
        "subType": "noteOn",
        "typeByte": 146,
        "deltaTime": 1,
        "channel": 2,
        "note": 81,
        "velocity": 127
      },
      {
        "type": "midi",
        "subType": "noteOn",
        "typeByte": 146,
        "deltaTime": 0,
        "channel": 2,
        "note": 80,
        "velocity": 127
      },
      {
        "type": "midi",
        "subType": "noteOff",
        "typeByte": 146,
        "deltaTime": 17,
        "channel": 2,
        "note": 80,
        "velocity": 0
      },
      {
        "type": "midi",
        "subType": "noteOn",
        "typeByte": 146,
        "deltaTime": 4,
        "channel": 2,
        "note": 79,
        "velocity": 127
      },
      {
        "type": "midi",
        "subType": "noteOff",
        "typeByte": 146,
        "deltaTime": 3,
        "channel": 2,
        "note": 81,
        "velocity": 0
      },
      {
        "type": "midi",
        "subType": "noteOff",
        "typeByte": 146,
        "deltaTime": 2,
        "channel": 2,
        "note": 69,
        "velocity": 0
      },
      {
        "type": "midi",
        "subType": "noteOff",
        "typeByte": 146,
        "deltaTime": 15,
        "channel": 2,
        "note": 79,
        "velocity": 0
      },
      {
        "type": "midi",
        "subType": "noteOn",
        "typeByte": 146,
        "deltaTime": 5,
        "channel": 2,
        "note": 71,
        "velocity": 127
      },
      {
        "type": "midi",
        "subType": "noteOn",
        "typeByte": 146,
        "deltaTime": 0,
        "channel": 2,
        "note": 83,
        "velocity": 127
      },
      {
        "type": "midi",
        "subType": "noteOn",
        "typeByte": 146,
        "deltaTime": 0,
        "channel": 2,
        "note": 78,
        "velocity": 127
      },
      {
        "type": "midi",
        "subType": "noteOff",
        "typeByte": 146,
        "deltaTime": 20,
        "channel": 2,
        "note": 78,
        "velocity": 0
      },
      {
        "type": "midi",
        "subType": "noteOn",
        "typeByte": 146,
        "deltaTime": 4,
        "channel": 2,
        "note": 77,
        "velocity": 127
      },
      {
        "type": "midi",
        "subType": "noteOff",
        "typeByte": 146,
        "deltaTime": 19,
        "channel": 2,
        "note": 77,
        "velocity": 0
      },
      {
        "type": "midi",
        "subType": "noteOn",
        "typeByte": 146,
        "deltaTime": 5,
        "channel": 2,
        "note": 76,
        "velocity": 127
      },
      {
        "type": "midi",
        "subType": "noteOff",
        "typeByte": 146,
        "deltaTime": 19,
        "channel": 2,
        "note": 76,
        "velocity": 0
      },
      {
        "type": "midi",
        "subType": "noteOn",
        "typeByte": 146,
        "deltaTime": 4,
        "channel": 2,
        "note": 77,
        "velocity": 127
      },
      {
        "type": "midi",
        "subType": "noteOff",
        "typeByte": 146,
        "deltaTime": 21,
        "channel": 2,
        "note": 77,
        "velocity": 0
      },
      {
        "type": "midi",
        "subType": "noteOn",
        "typeByte": 146,
        "deltaTime": 4,
        "channel": 2,
        "note": 78,
        "velocity": 127
      },
      {
        "type": "midi",
        "subType": "noteOff",
        "typeByte": 146,
        "deltaTime": 20,
        "channel": 2,
        "note": 78,
        "velocity": 0
      },
      {
        "type": "midi",
        "subType": "noteOn",
        "typeByte": 146,
        "deltaTime": 4,
        "channel": 2,
        "note": 79,
        "velocity": 127
      },
      {
        "type": "midi",
        "subType": "noteOff",
        "typeByte": 146,
        "deltaTime": 19,
        "channel": 2,
        "note": 79,
        "velocity": 0
      },
      {
        "type": "midi",
        "subType": "noteOn",
        "typeByte": 146,
        "deltaTime": 5,
        "channel": 2,
        "note": 80,
        "velocity": 127
      },
      {
        "type": "midi",
        "subType": "noteOff",
        "typeByte": 146,
        "deltaTime": 20,
        "channel": 2,
        "note": 80,
        "velocity": 0
      },
      {
        "type": "midi",
        "subType": "noteOn",
        "typeByte": 146,
        "deltaTime": 4,
        "channel": 2,
        "note": 79,
        "velocity": 127
      },
      {
        "type": "midi",
        "subType": "noteOff",
        "typeByte": 146,
        "deltaTime": 20,
        "channel": 2,
        "note": 79,
        "velocity": 0
      },
      {
        "type": "midi",
        "subType": "noteOn",
        "typeByte": 146,
        "deltaTime": 5,
        "channel": 2,
        "note": 78,
        "velocity": 127
      },
      {
        "type": "midi",
        "subType": "noteOff",
        "typeByte": 146,
        "deltaTime": 19,
        "channel": 2,
        "note": 78,
        "velocity": 0
      },
      {
        "type": "midi",
        "subType": "noteOn",
        "typeByte": 146,
        "deltaTime": 5,
        "channel": 2,
        "note": 77,
        "velocity": 127
      },
      {
        "type": "midi",
        "subType": "noteOff",
        "typeByte": 146,
        "deltaTime": 18,
        "channel": 2,
        "note": 77,
        "velocity": 0
      },
      {
        "type": "midi",
        "subType": "noteOn",
        "typeByte": 146,
        "deltaTime": 5,
        "channel": 2,
        "note": 76,
        "velocity": 127
      },
      {
        "type": "midi",
        "subType": "noteOff",
        "typeByte": 146,
        "deltaTime": 20,
        "channel": 2,
        "note": 76,
        "velocity": 0
      },
      {
        "type": "midi",
        "subType": "noteOn",
        "typeByte": 146,
        "deltaTime": 4,
        "channel": 2,
        "note": 77,
        "velocity": 127
      },
      {
        "type": "midi",
        "subType": "noteOff",
        "typeByte": 146,
        "deltaTime": 20,
        "channel": 2,
        "note": 77,
        "velocity": 0
      },
      {
        "type": "midi",
        "subType": "noteOn",
        "typeByte": 146,
        "deltaTime": 5,
        "channel": 2,
        "note": 78,
        "velocity": 127
      },
      {
        "type": "midi",
        "subType": "noteOff",
        "typeByte": 146,
        "deltaTime": 20,
        "channel": 2,
        "note": 78,
        "velocity": 0
      },
      {
        "type": "midi",
        "subType": "noteOn",
        "typeByte": 146,
        "deltaTime": 4,
        "channel": 2,
        "note": 79,
        "velocity": 127
      },
      {
        "type": "midi",
        "subType": "noteOff",
        "typeByte": 146,
        "deltaTime": 19,
        "channel": 2,
        "note": 79,
        "velocity": 0
      },
      {
        "type": "midi",
        "subType": "noteOn",
        "typeByte": 146,
        "deltaTime": 4,
        "channel": 2,
        "note": 80,
        "velocity": 127
      },
      {
        "type": "midi",
        "subType": "noteOff",
        "typeByte": 146,
        "deltaTime": 20,
        "channel": 2,
        "note": 80,
        "velocity": 0
      },
      {
        "type": "midi",
        "subType": "noteOn",
        "typeByte": 146,
        "deltaTime": 4,
        "channel": 2,
        "note": 79,
        "velocity": 127
      },
      {
        "type": "midi",
        "subType": "noteOff",
        "typeByte": 146,
        "deltaTime": 21,
        "channel": 2,
        "note": 79,
        "velocity": 0
      },
      {
        "type": "midi",
        "subType": "noteOn",
        "typeByte": 146,
        "deltaTime": 4,
        "channel": 2,
        "note": 78,
        "velocity": 127
      },
      {
        "type": "midi",
        "subType": "noteOff",
        "typeByte": 146,
        "deltaTime": 20,
        "channel": 2,
        "note": 78,
        "velocity": 0
      },
      {
        "type": "midi",
        "subType": "noteOn",
        "typeByte": 146,
        "deltaTime": 4,
        "channel": 2,
        "note": 77,
        "velocity": 127
      },
      {
        "type": "midi",
        "subType": "noteOff",
        "typeByte": 146,
        "deltaTime": 19,
        "channel": 2,
        "note": 77,
        "velocity": 0
      },
      {
        "type": "midi",
        "subType": "noteOn",
        "typeByte": 146,
        "deltaTime": 5,
        "channel": 2,
        "note": 76,
        "velocity": 127
      },
      {
        "type": "midi",
        "subType": "noteOff",
        "typeByte": 146,
        "deltaTime": 20,
        "channel": 2,
        "note": 76,
        "velocity": 0
      },
      {
        "type": "midi",
        "subType": "noteOn",
        "typeByte": 146,
        "deltaTime": 4,
        "channel": 2,
        "note": 77,
        "velocity": 127
      },
      {
        "type": "midi",
        "subType": "noteOff",
        "typeByte": 146,
        "deltaTime": 20,
        "channel": 2,
        "note": 77,
        "velocity": 0
      },
      {
        "type": "midi",
        "subType": "noteOn",
        "typeByte": 146,
        "deltaTime": 4,
        "channel": 2,
        "note": 78,
        "velocity": 127
      },
      {
        "type": "midi",
        "subType": "noteOff",
        "typeByte": 146,
        "deltaTime": 20,
        "channel": 2,
        "note": 78,
        "velocity": 0
      },
      {
        "type": "midi",
        "subType": "noteOn",
        "typeByte": 146,
        "deltaTime": 4,
        "channel": 2,
        "note": 79,
        "velocity": 127
      },
      {
        "type": "midi",
        "subType": "noteOff",
        "typeByte": 146,
        "deltaTime": 19,
        "channel": 2,
        "note": 79,
        "velocity": 0
      },
      {
        "type": "midi",
        "subType": "noteOn",
        "typeByte": 146,
        "deltaTime": 6,
        "channel": 2,
        "note": 80,
        "velocity": 127
      },
      {
        "type": "midi",
        "subType": "noteOff",
        "typeByte": 146,
        "deltaTime": 19,
        "channel": 2,
        "note": 80,
        "velocity": 0
      },
      {
        "type": "midi",
        "subType": "noteOn",
        "typeByte": 146,
        "deltaTime": 4,
        "channel": 2,
        "note": 79,
        "velocity": 127
      },
      {
        "type": "midi",
        "subType": "noteOff",
        "typeByte": 146,
        "deltaTime": 20,
        "channel": 2,
        "note": 79,
        "velocity": 0
      },
      {
        "type": "midi",
        "subType": "noteOn",
        "typeByte": 146,
        "deltaTime": 5,
        "channel": 2,
        "note": 78,
        "velocity": 127
      },
      {
        "type": "midi",
        "subType": "noteOff",
        "typeByte": 146,
        "deltaTime": 20,
        "channel": 2,
        "note": 78,
        "velocity": 0
      },
      {
        "type": "midi",
        "subType": "noteOff",
        "typeByte": 146,
        "deltaTime": 0,
        "channel": 2,
        "note": 83,
        "velocity": 0
      },
      {
        "type": "midi",
        "subType": "noteOff",
        "typeByte": 146,
        "deltaTime": 4,
        "channel": 2,
        "note": 71,
        "velocity": 0
      },
      {
        "type": "midi",
        "subType": "noteOn",
        "typeByte": 146,
        "deltaTime": 0,
        "channel": 2,
        "note": 77,
        "velocity": 127
      },
      {
        "type": "midi",
        "subType": "noteOff",
        "typeByte": 146,
        "deltaTime": 19,
        "channel": 2,
        "note": 77,
        "velocity": 0
      },
      {
        "type": "midi",
        "subType": "noteOn",
        "typeByte": 146,
        "deltaTime": 4,
        "channel": 2,
        "note": 76,
        "velocity": 127
      },
      {
        "type": "midi",
        "subType": "noteOff",
        "typeByte": 146,
        "deltaTime": 20,
        "channel": 2,
        "note": 76,
        "velocity": 0
      },
      {
        "type": "midi",
        "subType": "noteOn",
        "typeByte": 146,
        "deltaTime": 4,
        "channel": 2,
        "note": 77,
        "velocity": 127
      },
      {
        "type": "midi",
        "subType": "noteOff",
        "typeByte": 146,
        "deltaTime": 20,
        "channel": 2,
        "note": 77,
        "velocity": 0
      },
      {
        "type": "midi",
        "subType": "noteOn",
        "typeByte": 146,
        "deltaTime": 5,
        "channel": 2,
        "note": 78,
        "velocity": 127
      },
      {
        "type": "midi",
        "subType": "noteOff",
        "typeByte": 146,
        "deltaTime": 20,
        "channel": 2,
        "note": 78,
        "velocity": 0
      },
      {
        "type": "midi",
        "subType": "noteOn",
        "typeByte": 146,
        "deltaTime": 4,
        "channel": 2,
        "note": 79,
        "velocity": 127
      },
      {
        "type": "midi",
        "subType": "noteOff",
        "typeByte": 146,
        "deltaTime": 19,
        "channel": 2,
        "note": 79,
        "velocity": 0
      },
      {
        "type": "midi",
        "subType": "noteOn",
        "typeByte": 146,
        "deltaTime": 4,
        "channel": 2,
        "note": 78,
        "velocity": 127
      },
      {
        "type": "midi",
        "subType": "noteOff",
        "typeByte": 146,
        "deltaTime": 23,
        "channel": 2,
        "note": 78,
        "velocity": 0
      },
      {
        "type": "midi",
        "subType": "noteOn",
        "typeByte": 146,
        "deltaTime": 26,
        "channel": 2,
        "note": 78,
        "velocity": 127
      },
      {
        "type": "midi",
        "subType": "noteOff",
        "typeByte": 146,
        "deltaTime": 30,
        "channel": 2,
        "note": 78,
        "velocity": 0
      },
      {
        "type": "midi",
        "subType": "noteOn",
        "typeByte": 146,
        "deltaTime": 18,
        "channel": 2,
        "note": 74,
        "velocity": 127
      },
      {
        "type": "midi",
        "subType": "noteOff",
        "typeByte": 146,
        "deltaTime": 30,
        "channel": 2,
        "note": 74,
        "velocity": 0
      },
      {
        "type": "midi",
        "subType": "noteOn",
        "typeByte": 146,
        "deltaTime": 19,
        "channel": 2,
        "note": 71,
        "velocity": 127
      },
      {
        "type": "midi",
        "subType": "noteOff",
        "typeByte": 146,
        "deltaTime": 26,
        "channel": 2,
        "note": 71,
        "velocity": 0
      },
      {
        "type": "midi",
        "subType": "noteOn",
        "typeByte": 146,
        "deltaTime": 70,
        "channel": 2,
        "note": 71,
        "velocity": 127
      },
      {
        "type": "midi",
        "subType": "noteOff",
        "typeByte": 146,
        "deltaTime": 31,
        "channel": 2,
        "note": 71,
        "velocity": 0
      },
      {
        "type": "midi",
        "subType": "noteOn",
        "typeByte": 146,
        "deltaTime": 65,
        "channel": 2,
        "note": 76,
        "velocity": 127
      },
      {
        "type": "midi",
        "subType": "noteOff",
        "typeByte": 146,
        "deltaTime": 27,
        "channel": 2,
        "note": 76,
        "velocity": 0
      },
      {
        "type": "midi",
        "subType": "noteOn",
        "typeByte": 146,
        "deltaTime": 69,
        "channel": 2,
        "note": 76,
        "velocity": 127
      },
      {
        "type": "midi",
        "subType": "noteOff",
        "typeByte": 146,
        "deltaTime": 30,
        "channel": 2,
        "note": 76,
        "velocity": 0
      },
      {
        "type": "midi",
        "subType": "noteOn",
        "typeByte": 146,
        "deltaTime": 67,
        "channel": 2,
        "note": 76,
        "velocity": 127
      },
      {
        "type": "midi",
        "subType": "noteOff",
        "typeByte": 146,
        "deltaTime": 29,
        "channel": 2,
        "note": 76,
        "velocity": 0
      },
      {
        "type": "midi",
        "subType": "noteOn",
        "typeByte": 146,
        "deltaTime": 19,
        "channel": 2,
        "note": 80,
        "velocity": 127
      },
      {
        "type": "midi",
        "subType": "noteOff",
        "typeByte": 146,
        "deltaTime": 25,
        "channel": 2,
        "note": 80,
        "velocity": 0
      },
      {
        "type": "midi",
        "subType": "noteOn",
        "typeByte": 146,
        "deltaTime": 23,
        "channel": 2,
        "note": 80,
        "velocity": 127
      },
      {
        "type": "midi",
        "subType": "noteOff",
        "typeByte": 146,
        "deltaTime": 27,
        "channel": 2,
        "note": 80,
        "velocity": 0
      },
      {
        "type": "midi",
        "subType": "noteOn",
        "typeByte": 146,
        "deltaTime": 20,
        "channel": 2,
        "note": 81,
        "velocity": 127
      },
      {
        "type": "midi",
        "subType": "noteOff",
        "typeByte": 146,
        "deltaTime": 29,
        "channel": 2,
        "note": 81,
        "velocity": 0
      },
      {
        "type": "midi",
        "subType": "noteOn",
        "typeByte": 146,
        "deltaTime": 20,
        "channel": 2,
        "note": 83,
        "velocity": 127
      },
      {
        "type": "midi",
        "subType": "noteOff",
        "typeByte": 146,
        "deltaTime": 30,
        "channel": 2,
        "note": 83,
        "velocity": 0
      },
      {
        "type": "midi",
        "subType": "noteOn",
        "typeByte": 146,
        "deltaTime": 18,
        "channel": 2,
        "note": 78,
        "velocity": 127
      },
      {
        "type": "midi",
        "subType": "noteOff",
        "typeByte": 146,
        "deltaTime": 22,
        "channel": 2,
        "note": 78,
        "velocity": 0
      },
      {
        "type": "midi",
        "subType": "noteOn",
        "typeByte": 146,
        "deltaTime": 27,
        "channel": 2,
        "note": 78,
        "velocity": 127
      },
      {
        "type": "midi",
        "subType": "noteOff",
        "typeByte": 146,
        "deltaTime": 29,
        "channel": 2,
        "note": 78,
        "velocity": 0
      },
      {
        "type": "midi",
        "subType": "noteOn",
        "typeByte": 146,
        "deltaTime": 18,
        "channel": 2,
        "note": 74,
        "velocity": 127
      },
      {
        "type": "midi",
        "subType": "noteOff",
        "typeByte": 146,
        "deltaTime": 31,
        "channel": 2,
        "note": 74,
        "velocity": 0
      },
      {
        "type": "midi",
        "subType": "noteOn",
        "typeByte": 146,
        "deltaTime": 18,
        "channel": 2,
        "note": 71,
        "velocity": 127
      },
      {
        "type": "midi",
        "subType": "noteOff",
        "typeByte": 146,
        "deltaTime": 27,
        "channel": 2,
        "note": 71,
        "velocity": 0
      },
      {
        "type": "midi",
        "subType": "noteOn",
        "typeByte": 146,
        "deltaTime": 69,
        "channel": 2,
        "note": 71,
        "velocity": 127
      },
      {
        "type": "midi",
        "subType": "noteOff",
        "typeByte": 146,
        "deltaTime": 31,
        "channel": 2,
        "note": 71,
        "velocity": 0
      },
      {
        "type": "midi",
        "subType": "noteOn",
        "typeByte": 146,
        "deltaTime": 66,
        "channel": 2,
        "note": 76,
        "velocity": 127
      },
      {
        "type": "midi",
        "subType": "noteOff",
        "typeByte": 146,
        "deltaTime": 26,
        "channel": 2,
        "note": 76,
        "velocity": 0
      },
      {
        "type": "midi",
        "subType": "noteOn",
        "typeByte": 146,
        "deltaTime": 70,
        "channel": 2,
        "note": 76,
        "velocity": 127
      },
      {
        "type": "midi",
        "subType": "noteOff",
        "typeByte": 146,
        "deltaTime": 29,
        "channel": 2,
        "note": 76,
        "velocity": 0
      },
      {
        "type": "midi",
        "subType": "noteOn",
        "typeByte": 146,
        "deltaTime": 68,
        "channel": 2,
        "note": 76,
        "velocity": 127
      },
      {
        "type": "midi",
        "subType": "noteOff",
        "typeByte": 146,
        "deltaTime": 28,
        "channel": 2,
        "note": 76,
        "velocity": 0
      },
      {
        "type": "midi",
        "subType": "noteOn",
        "typeByte": 146,
        "deltaTime": 20,
        "channel": 2,
        "note": 80,
        "velocity": 127
      },
      {
        "type": "midi",
        "subType": "noteOff",
        "typeByte": 146,
        "deltaTime": 24,
        "channel": 2,
        "note": 80,
        "velocity": 0
      },
      {
        "type": "midi",
        "subType": "noteOn",
        "typeByte": 146,
        "deltaTime": 24,
        "channel": 2,
        "note": 80,
        "velocity": 127
      },
      {
        "type": "midi",
        "subType": "noteOff",
        "typeByte": 146,
        "deltaTime": 26,
        "channel": 2,
        "note": 80,
        "velocity": 0
      },
      {
        "type": "midi",
        "subType": "noteOn",
        "typeByte": 146,
        "deltaTime": 21,
        "channel": 2,
        "note": 81,
        "velocity": 127
      },
      {
        "type": "midi",
        "subType": "noteOff",
        "typeByte": 146,
        "deltaTime": 28,
        "channel": 2,
        "note": 81,
        "velocity": 0
      },
      {
        "type": "midi",
        "subType": "noteOn",
        "typeByte": 146,
        "deltaTime": 21,
        "channel": 2,
        "note": 83,
        "velocity": 127
      },
      {
        "type": "midi",
        "subType": "noteOff",
        "typeByte": 146,
        "deltaTime": 29,
        "channel": 2,
        "note": 83,
        "velocity": 0
      },
      {
        "type": "midi",
        "subType": "noteOn",
        "typeByte": 146,
        "deltaTime": 20,
        "channel": 2,
        "note": 78,
        "velocity": 127
      },
      {
        "type": "midi",
        "subType": "noteOff",
        "typeByte": 146,
        "deltaTime": 21,
        "channel": 2,
        "note": 78,
        "velocity": 0
      },
      {
        "type": "midi",
        "subType": "noteOn",
        "typeByte": 146,
        "deltaTime": 26,
        "channel": 2,
        "note": 78,
        "velocity": 127
      },
      {
        "type": "midi",
        "subType": "noteOff",
        "typeByte": 146,
        "deltaTime": 29,
        "channel": 2,
        "note": 78,
        "velocity": 0
      },
      {
        "type": "midi",
        "subType": "noteOn",
        "typeByte": 146,
        "deltaTime": 20,
        "channel": 2,
        "note": 74,
        "velocity": 127
      },
      {
        "type": "midi",
        "subType": "noteOff",
        "typeByte": 146,
        "deltaTime": 29,
        "channel": 2,
        "note": 74,
        "velocity": 0
      },
      {
        "type": "midi",
        "subType": "noteOn",
        "typeByte": 146,
        "deltaTime": 19,
        "channel": 2,
        "note": 71,
        "velocity": 127
      },
      {
        "type": "midi",
        "subType": "noteOff",
        "typeByte": 146,
        "deltaTime": 26,
        "channel": 2,
        "note": 71,
        "velocity": 0
      },
      {
        "type": "midi",
        "subType": "noteOn",
        "typeByte": 146,
        "deltaTime": 70,
        "channel": 2,
        "note": 71,
        "velocity": 127
      },
      {
        "type": "midi",
        "subType": "noteOff",
        "typeByte": 146,
        "deltaTime": 30,
        "channel": 2,
        "note": 71,
        "velocity": 0
      },
      {
        "type": "midi",
        "subType": "noteOn",
        "typeByte": 146,
        "deltaTime": 66,
        "channel": 2,
        "note": 76,
        "velocity": 127
      },
      {
        "type": "midi",
        "subType": "noteOff",
        "typeByte": 146,
        "deltaTime": 27,
        "channel": 2,
        "note": 76,
        "velocity": 0
      },
      {
        "type": "midi",
        "subType": "noteOn",
        "typeByte": 146,
        "deltaTime": 70,
        "channel": 2,
        "note": 76,
        "velocity": 127
      },
      {
        "type": "midi",
        "subType": "noteOff",
        "typeByte": 146,
        "deltaTime": 29,
        "channel": 2,
        "note": 76,
        "velocity": 0
      },
      {
        "type": "midi",
        "subType": "noteOn",
        "typeByte": 146,
        "deltaTime": 67,
        "channel": 2,
        "note": 76,
        "velocity": 127
      },
      {
        "type": "midi",
        "subType": "noteOff",
        "typeByte": 146,
        "deltaTime": 29,
        "channel": 2,
        "note": 76,
        "velocity": 0
      },
      {
        "type": "midi",
        "subType": "noteOn",
        "typeByte": 146,
        "deltaTime": 20,
        "channel": 2,
        "note": 80,
        "velocity": 127
      },
      {
        "type": "midi",
        "subType": "noteOff",
        "typeByte": 146,
        "deltaTime": 24,
        "channel": 2,
        "note": 80,
        "velocity": 0
      },
      {
        "type": "midi",
        "subType": "noteOn",
        "typeByte": 146,
        "deltaTime": 24,
        "channel": 2,
        "note": 80,
        "velocity": 127
      },
      {
        "type": "midi",
        "subType": "noteOff",
        "typeByte": 146,
        "deltaTime": 25,
        "channel": 2,
        "note": 80,
        "velocity": 0
      },
      {
        "type": "midi",
        "subType": "noteOn",
        "typeByte": 146,
        "deltaTime": 22,
        "channel": 2,
        "note": 81,
        "velocity": 127
      },
      {
        "type": "midi",
        "subType": "noteOff",
        "typeByte": 146,
        "deltaTime": 27,
        "channel": 2,
        "note": 81,
        "velocity": 0
      },
      {
        "type": "midi",
        "subType": "noteOn",
        "typeByte": 146,
        "deltaTime": 22,
        "channel": 2,
        "note": 83,
        "velocity": 127
      },
      {
        "type": "midi",
        "subType": "noteOff",
        "typeByte": 146,
        "deltaTime": 28,
        "channel": 2,
        "note": 83,
        "velocity": 0
      },
      {
        "type": "midi",
        "subType": "noteOn",
        "typeByte": 146,
        "deltaTime": 21,
        "channel": 2,
        "note": 81,
        "velocity": 127
      },
      {
        "type": "midi",
        "subType": "noteOff",
        "typeByte": 146,
        "deltaTime": 21,
        "channel": 2,
        "note": 81,
        "velocity": 0
      },
      {
        "type": "midi",
        "subType": "noteOn",
        "typeByte": 146,
        "deltaTime": 26,
        "channel": 2,
        "note": 81,
        "velocity": 127
      },
      {
        "type": "midi",
        "subType": "noteOff",
        "typeByte": 146,
        "deltaTime": 25,
        "channel": 2,
        "note": 81,
        "velocity": 0
      },
      {
        "type": "midi",
        "subType": "noteOn",
        "typeByte": 146,
        "deltaTime": 23,
        "channel": 2,
        "note": 81,
        "velocity": 127
      },
      {
        "type": "midi",
        "subType": "noteOff",
        "typeByte": 146,
        "deltaTime": 23,
        "channel": 2,
        "note": 81,
        "velocity": 0
      },
      {
        "type": "midi",
        "subType": "noteOn",
        "typeByte": 146,
        "deltaTime": 25,
        "channel": 2,
        "note": 76,
        "velocity": 127
      },
      {
        "type": "midi",
        "subType": "noteOff",
        "typeByte": 146,
        "deltaTime": 25,
        "channel": 2,
        "note": 76,
        "velocity": 0
      },
      {
        "type": "midi",
        "subType": "noteOn",
        "typeByte": 146,
        "deltaTime": 72,
        "channel": 2,
        "note": 74,
        "velocity": 127
      },
      {
        "type": "midi",
        "subType": "noteOff",
        "typeByte": 146,
        "deltaTime": 23,
        "channel": 2,
        "note": 74,
        "velocity": 0
      },
      {
        "type": "midi",
        "subType": "noteOn",
        "typeByte": 146,
        "deltaTime": 73,
        "channel": 2,
        "note": 78,
        "velocity": 127
      },
      {
        "type": "midi",
        "subType": "noteOff",
        "typeByte": 146,
        "deltaTime": 26,
        "channel": 2,
        "note": 78,
        "velocity": 0
      },
      {
        "type": "midi",
        "subType": "noteOn",
        "typeByte": 146,
        "deltaTime": 70,
        "channel": 2,
        "note": 78,
        "velocity": 127
      },
      {
        "type": "midi",
        "subType": "noteOff",
        "typeByte": 146,
        "deltaTime": 26,
        "channel": 2,
        "note": 78,
        "velocity": 0
      },
      {
        "type": "midi",
        "subType": "noteOn",
        "typeByte": 146,
        "deltaTime": 70,
        "channel": 2,
        "note": 78,
        "velocity": 127
      },
      {
        "type": "midi",
        "subType": "noteOff",
        "typeByte": 146,
        "deltaTime": 25,
        "channel": 2,
        "note": 78,
        "velocity": 0
      },
      {
        "type": "midi",
        "subType": "noteOn",
        "typeByte": 146,
        "deltaTime": 24,
        "channel": 2,
        "note": 76,
        "velocity": 127
      },
      {
        "type": "midi",
        "subType": "noteOff",
        "typeByte": 146,
        "deltaTime": 26,
        "channel": 2,
        "note": 76,
        "velocity": 0
      },
      {
        "type": "midi",
        "subType": "noteOn",
        "typeByte": 146,
        "deltaTime": 22,
        "channel": 2,
        "note": 76,
        "velocity": 127
      },
      {
        "type": "midi",
        "subType": "noteOff",
        "typeByte": 146,
        "deltaTime": 27,
        "channel": 2,
        "note": 76,
        "velocity": 0
      },
      {
        "type": "midi",
        "subType": "noteOn",
        "typeByte": 146,
        "deltaTime": 20,
        "channel": 2,
        "note": 78,
        "velocity": 127
      },
      {
        "type": "midi",
        "subType": "noteOff",
        "typeByte": 146,
        "deltaTime": 25,
        "channel": 2,
        "note": 78,
        "velocity": 0
      },
      {
        "type": "midi",
        "subType": "noteOn",
        "typeByte": 146,
        "deltaTime": 24,
        "channel": 2,
        "note": 76,
        "velocity": 127
      },
      {
        "type": "midi",
        "subType": "noteOff",
        "typeByte": 146,
        "deltaTime": 27,
        "channel": 2,
        "note": 76,
        "velocity": 0
      },
      {
        "type": "midi",
        "subType": "noteOn",
        "typeByte": 146,
        "deltaTime": 22,
        "channel": 2,
        "note": 78,
        "velocity": 127
      },
      {
        "type": "midi",
        "subType": "noteOff",
        "typeByte": 146,
        "deltaTime": 23,
        "channel": 2,
        "note": 78,
        "velocity": 0
      },
      {
        "type": "midi",
        "subType": "noteOn",
        "typeByte": 146,
        "deltaTime": 24,
        "channel": 2,
        "note": 78,
        "velocity": 127
      },
      {
        "type": "midi",
        "subType": "noteOff",
        "typeByte": 146,
        "deltaTime": 26,
        "channel": 2,
        "note": 78,
        "velocity": 0
      },
      {
        "type": "midi",
        "subType": "noteOn",
        "typeByte": 146,
        "deltaTime": 22,
        "channel": 2,
        "note": 74,
        "velocity": 127
      },
      {
        "type": "midi",
        "subType": "noteOff",
        "typeByte": 146,
        "deltaTime": 26,
        "channel": 2,
        "note": 74,
        "velocity": 0
      },
      {
        "type": "midi",
        "subType": "noteOn",
        "typeByte": 146,
        "deltaTime": 22,
        "channel": 2,
        "note": 71,
        "velocity": 127
      },
      {
        "type": "midi",
        "subType": "noteOff",
        "typeByte": 146,
        "deltaTime": 23,
        "channel": 2,
        "note": 71,
        "velocity": 0
      },
      {
        "type": "midi",
        "subType": "noteOn",
        "typeByte": 146,
        "deltaTime": 74,
        "channel": 2,
        "note": 71,
        "velocity": 127
      },
      {
        "type": "midi",
        "subType": "noteOff",
        "typeByte": 146,
        "deltaTime": 27,
        "channel": 2,
        "note": 71,
        "velocity": 0
      },
      {
        "type": "midi",
        "subType": "noteOn",
        "typeByte": 146,
        "deltaTime": 69,
        "channel": 2,
        "note": 76,
        "velocity": 127
      },
      {
        "type": "midi",
        "subType": "noteOff",
        "typeByte": 146,
        "deltaTime": 28,
        "channel": 2,
        "note": 76,
        "velocity": 0
      },
      {
        "type": "midi",
        "subType": "noteOn",
        "typeByte": 146,
        "deltaTime": 68,
        "channel": 2,
        "note": 76,
        "velocity": 127
      },
      {
        "type": "midi",
        "subType": "noteOff",
        "typeByte": 146,
        "deltaTime": 32,
        "channel": 2,
        "note": 76,
        "velocity": 0
      },
      {
        "type": "midi",
        "subType": "noteOn",
        "typeByte": 146,
        "deltaTime": 65,
        "channel": 2,
        "note": 76,
        "velocity": 127
      },
      {
        "type": "midi",
        "subType": "noteOff",
        "typeByte": 146,
        "deltaTime": 27,
        "channel": 2,
        "note": 76,
        "velocity": 0
      },
      {
        "type": "midi",
        "subType": "noteOn",
        "typeByte": 146,
        "deltaTime": 21,
        "channel": 2,
        "note": 80,
        "velocity": 127
      },
      {
        "type": "midi",
        "subType": "noteOff",
        "typeByte": 146,
        "deltaTime": 25,
        "channel": 2,
        "note": 80,
        "velocity": 0
      },
      {
        "type": "midi",
        "subType": "noteOn",
        "typeByte": 146,
        "deltaTime": 23,
        "channel": 2,
        "note": 80,
        "velocity": 127
      },
      {
        "type": "midi",
        "subType": "noteOff",
        "typeByte": 146,
        "deltaTime": 23,
        "channel": 2,
        "note": 80,
        "velocity": 0
      },
      {
        "type": "midi",
        "subType": "noteOn",
        "typeByte": 146,
        "deltaTime": 25,
        "channel": 2,
        "note": 81,
        "velocity": 127
      },
      {
        "type": "midi",
        "subType": "noteOff",
        "typeByte": 146,
        "deltaTime": 24,
        "channel": 2,
        "note": 81,
        "velocity": 0
      },
      {
        "type": "midi",
        "subType": "noteOn",
        "typeByte": 146,
        "deltaTime": 24,
        "channel": 2,
        "note": 83,
        "velocity": 127
      },
      {
        "type": "midi",
        "subType": "noteOff",
        "typeByte": 146,
        "deltaTime": 25,
        "channel": 2,
        "note": 83,
        "velocity": 0
      },
      {
        "type": "midi",
        "subType": "noteOn",
        "typeByte": 146,
        "deltaTime": 24,
        "channel": 2,
        "note": 81,
        "velocity": 127
      },
      {
        "type": "midi",
        "subType": "noteOff",
        "typeByte": 146,
        "deltaTime": 21,
        "channel": 2,
        "note": 81,
        "velocity": 0
      },
      {
        "type": "midi",
        "subType": "noteOn",
        "typeByte": 146,
        "deltaTime": 26,
        "channel": 2,
        "note": 81,
        "velocity": 127
      },
      {
        "type": "midi",
        "subType": "noteOff",
        "typeByte": 146,
        "deltaTime": 24,
        "channel": 2,
        "note": 81,
        "velocity": 0
      },
      {
        "type": "midi",
        "subType": "noteOn",
        "typeByte": 146,
        "deltaTime": 24,
        "channel": 2,
        "note": 81,
        "velocity": 127
      },
      {
        "type": "midi",
        "subType": "noteOff",
        "typeByte": 146,
        "deltaTime": 18,
        "channel": 2,
        "note": 81,
        "velocity": 0
      },
      {
        "type": "midi",
        "subType": "noteOn",
        "typeByte": 146,
        "deltaTime": 31,
        "channel": 2,
        "note": 76,
        "velocity": 127
      },
      {
        "type": "midi",
        "subType": "noteOff",
        "typeByte": 146,
        "deltaTime": 20,
        "channel": 2,
        "note": 76,
        "velocity": 0
      },
      {
        "type": "midi",
        "subType": "noteOn",
        "typeByte": 146,
        "deltaTime": 77,
        "channel": 2,
        "note": 74,
        "velocity": 127
      },
      {
        "type": "midi",
        "subType": "noteOff",
        "typeByte": 146,
        "deltaTime": 16,
        "channel": 2,
        "note": 74,
        "velocity": 0
      },
      {
        "type": "midi",
        "subType": "noteOn",
        "typeByte": 146,
        "deltaTime": 79,
        "channel": 2,
        "note": 78,
        "velocity": 127
      },
      {
        "type": "midi",
        "subType": "noteOff",
        "typeByte": 146,
        "deltaTime": 21,
        "channel": 2,
        "note": 78,
        "velocity": 0
      },
      {
        "type": "midi",
        "subType": "noteOn",
        "typeByte": 146,
        "deltaTime": 76,
        "channel": 2,
        "note": 78,
        "velocity": 127
      },
      {
        "type": "midi",
        "subType": "noteOff",
        "typeByte": 146,
        "deltaTime": 23,
        "channel": 2,
        "note": 78,
        "velocity": 0
      },
      {
        "type": "midi",
        "subType": "noteOn",
        "typeByte": 146,
        "deltaTime": 73,
        "channel": 2,
        "note": 78,
        "velocity": 127
      },
      {
        "type": "midi",
        "subType": "noteOff",
        "typeByte": 146,
        "deltaTime": 25,
        "channel": 2,
        "note": 78,
        "velocity": 0
      },
      {
        "type": "midi",
        "subType": "noteOn",
        "typeByte": 146,
        "deltaTime": 23,
        "channel": 2,
        "note": 76,
        "velocity": 127
      },
      {
        "type": "midi",
        "subType": "noteOff",
        "typeByte": 146,
        "deltaTime": 23,
        "channel": 2,
        "note": 76,
        "velocity": 0
      },
      {
        "type": "midi",
        "subType": "noteOn",
        "typeByte": 146,
        "deltaTime": 26,
        "channel": 2,
        "note": 76,
        "velocity": 127
      },
      {
        "type": "midi",
        "subType": "noteOff",
        "typeByte": 146,
        "deltaTime": 28,
        "channel": 2,
        "note": 76,
        "velocity": 0
      },
      {
        "type": "midi",
        "subType": "noteOn",
        "typeByte": 146,
        "deltaTime": 19,
        "channel": 2,
        "note": 78,
        "velocity": 127
      },
      {
        "type": "midi",
        "subType": "noteOff",
        "typeByte": 146,
        "deltaTime": 26,
        "channel": 2,
        "note": 78,
        "velocity": 0
      },
      {
        "type": "midi",
        "subType": "noteOn",
        "typeByte": 146,
        "deltaTime": 23,
        "channel": 2,
        "note": 76,
        "velocity": 127
      },
      {
        "type": "midi",
        "subType": "noteOff",
        "typeByte": 146,
        "deltaTime": 27,
        "channel": 2,
        "note": 76,
        "velocity": 0
      },
      {
        "type": "midi",
        "subType": "noteOn",
        "typeByte": 146,
        "deltaTime": 21,
        "channel": 2,
        "note": 78,
        "velocity": 127
      },
      {
        "type": "midi",
        "subType": "noteOff",
        "typeByte": 146,
        "deltaTime": 22,
        "channel": 2,
        "note": 78,
        "velocity": 0
      },
      {
        "type": "midi",
        "subType": "noteOn",
        "typeByte": 146,
        "deltaTime": 74,
        "channel": 2,
        "note": 74,
        "velocity": 127
      },
      {
        "type": "midi",
        "subType": "noteOff",
        "typeByte": 146,
        "deltaTime": 30,
        "channel": 2,
        "note": 74,
        "velocity": 0
      },
      {
        "type": "midi",
        "subType": "noteOn",
        "typeByte": 146,
        "deltaTime": 18,
        "channel": 2,
        "note": 71,
        "velocity": 127
      },
      {
        "type": "midi",
        "subType": "noteOff",
        "typeByte": 146,
        "deltaTime": 26,
        "channel": 2,
        "note": 71,
        "velocity": 0
      },
      {
        "type": "midi",
        "subType": "noteOn",
        "typeByte": 146,
        "deltaTime": 71,
        "channel": 2,
        "note": 71,
        "velocity": 127
      },
      {
        "type": "midi",
        "subType": "noteOff",
        "typeByte": 146,
        "deltaTime": 30,
        "channel": 2,
        "note": 71,
        "velocity": 0
      },
      {
        "type": "midi",
        "subType": "noteOn",
        "typeByte": 146,
        "deltaTime": 66,
        "channel": 2,
        "note": 76,
        "velocity": 127
      },
      {
        "type": "midi",
        "subType": "noteOff",
        "typeByte": 146,
        "deltaTime": 26,
        "channel": 2,
        "note": 76,
        "velocity": 0
      },
      {
        "type": "midi",
        "subType": "noteOn",
        "typeByte": 146,
        "deltaTime": 70,
        "channel": 2,
        "note": 76,
        "velocity": 127
      },
      {
        "type": "midi",
        "subType": "noteOff",
        "typeByte": 146,
        "deltaTime": 29,
        "channel": 2,
        "note": 76,
        "velocity": 0
      },
      {
        "type": "midi",
        "subType": "noteOn",
        "typeByte": 146,
        "deltaTime": 67,
        "channel": 2,
        "note": 76,
        "velocity": 127
      },
      {
        "type": "midi",
        "subType": "noteOff",
        "typeByte": 146,
        "deltaTime": 29,
        "channel": 2,
        "note": 76,
        "velocity": 0
      },
      {
        "type": "midi",
        "subType": "noteOn",
        "typeByte": 146,
        "deltaTime": 68,
        "channel": 2,
        "note": 80,
        "velocity": 127
      },
      {
        "type": "midi",
        "subType": "noteOff",
        "typeByte": 146,
        "deltaTime": 26,
        "channel": 2,
        "note": 80,
        "velocity": 0
      },
      {
        "type": "midi",
        "subType": "noteOn",
        "typeByte": 146,
        "deltaTime": 21,
        "channel": 2,
        "note": 81,
        "velocity": 127
      },
      {
        "type": "midi",
        "subType": "noteOff",
        "typeByte": 146,
        "deltaTime": 28,
        "channel": 2,
        "note": 81,
        "velocity": 0
      },
      {
        "type": "midi",
        "subType": "noteOn",
        "typeByte": 146,
        "deltaTime": 21,
        "channel": 2,
        "note": 83,
        "velocity": 127
      },
      {
        "type": "midi",
        "subType": "noteOff",
        "typeByte": 146,
        "deltaTime": 29,
        "channel": 2,
        "note": 83,
        "velocity": 0
      },
      {
        "type": "midi",
        "subType": "noteOn",
        "typeByte": 146,
        "deltaTime": 20,
        "channel": 2,
        "note": 81,
        "velocity": 127
      },
      {
        "type": "midi",
        "subType": "noteOff",
        "typeByte": 146,
        "deltaTime": 22,
        "channel": 2,
        "note": 81,
        "velocity": 0
      },
      {
        "type": "midi",
        "subType": "noteOn",
        "typeByte": 146,
        "deltaTime": 25,
        "channel": 2,
        "note": 81,
        "velocity": 127
      },
      {
        "type": "midi",
        "subType": "noteOff",
        "typeByte": 146,
        "deltaTime": 25,
        "channel": 2,
        "note": 81,
        "velocity": 0
      },
      {
        "type": "midi",
        "subType": "noteOn",
        "typeByte": 146,
        "deltaTime": 23,
        "channel": 2,
        "note": 81,
        "velocity": 127
      },
      {
        "type": "midi",
        "subType": "noteOff",
        "typeByte": 146,
        "deltaTime": 23,
        "channel": 2,
        "note": 81,
        "velocity": 0
      },
      {
        "type": "midi",
        "subType": "noteOn",
        "typeByte": 146,
        "deltaTime": 122,
        "channel": 2,
        "note": 74,
        "velocity": 127
      },
      {
        "type": "midi",
        "subType": "noteOff",
        "typeByte": 146,
        "deltaTime": 23,
        "channel": 2,
        "note": 74,
        "velocity": 0
      },
      {
        "type": "midi",
        "subType": "noteOn",
        "typeByte": 146,
        "deltaTime": 314,
        "channel": 2,
        "note": 76,
        "velocity": 127
      },
      {
        "type": "midi",
        "subType": "noteOff",
        "typeByte": 146,
        "deltaTime": 27,
        "channel": 2,
        "note": 76,
        "velocity": 0
      },
      {
        "type": "midi",
        "subType": "noteOn",
        "typeByte": 146,
        "deltaTime": 21,
        "channel": 2,
        "note": 76,
        "velocity": 127
      },
      {
        "type": "midi",
        "subType": "noteOff",
        "typeByte": 146,
        "deltaTime": 28,
        "channel": 2,
        "note": 76,
        "velocity": 0
      },
      {
        "type": "midi",
        "subType": "controller",
        "typeByte": 178,
        "deltaTime": 15341,
        "channel": 2,
        "controllerType": 7,
        "value": 111
      },
      {
        "type": "midi",
        "subType": "controller",
        "typeByte": 178,
        "deltaTime": 72,
        "channel": 2,
        "controllerType": 7,
        "value": 110
      },
      {
        "type": "midi",
        "subType": "controller",
        "typeByte": 178,
        "deltaTime": 46,
        "channel": 2,
        "controllerType": 7,
        "value": 109
      },
      {
        "type": "midi",
        "subType": "controller",
        "typeByte": 178,
        "deltaTime": 30,
        "channel": 2,
        "controllerType": 7,
        "value": 108
      },
      {
        "type": "midi",
        "subType": "controller",
        "typeByte": 178,
        "deltaTime": 30,
        "channel": 2,
        "controllerType": 7,
        "value": 107
      },
      {
        "type": "midi",
        "subType": "controller",
        "typeByte": 178,
        "deltaTime": 52,
        "channel": 2,
        "controllerType": 7,
        "value": 106
      },
      {
        "type": "midi",
        "subType": "controller",
        "typeByte": 178,
        "deltaTime": 29,
        "channel": 2,
        "controllerType": 7,
        "value": 105
      },
      {
        "type": "midi",
        "subType": "controller",
        "typeByte": 178,
        "deltaTime": 89,
        "channel": 2,
        "controllerType": 7,
        "value": 104
      },
      {
        "type": "midi",
        "subType": "controller",
        "typeByte": 178,
        "deltaTime": 23,
        "channel": 2,
        "controllerType": 7,
        "value": 103
      },
      {
        "type": "midi",
        "subType": "controller",
        "typeByte": 178,
        "deltaTime": 68,
        "channel": 2,
        "controllerType": 7,
        "value": 102
      },
      {
        "type": "midi",
        "subType": "controller",
        "typeByte": 178,
        "deltaTime": 22,
        "channel": 2,
        "controllerType": 7,
        "value": 101
      },
      {
        "type": "midi",
        "subType": "controller",
        "typeByte": 178,
        "deltaTime": 28,
        "channel": 2,
        "controllerType": 7,
        "value": 100
      },
      {
        "type": "midi",
        "subType": "controller",
        "typeByte": 178,
        "deltaTime": 33,
        "channel": 2,
        "controllerType": 7,
        "value": 99
      },
      {
        "type": "midi",
        "subType": "controller",
        "typeByte": 178,
        "deltaTime": 22,
        "channel": 2,
        "controllerType": 7,
        "value": 98
      },
      {
        "type": "midi",
        "subType": "controller",
        "typeByte": 178,
        "deltaTime": 28,
        "channel": 2,
        "controllerType": 7,
        "value": 97
      },
      {
        "type": "midi",
        "subType": "controller",
        "typeByte": 178,
        "deltaTime": 30,
        "channel": 2,
        "controllerType": 7,
        "value": 96
      },
      {
        "type": "midi",
        "subType": "controller",
        "typeByte": 178,
        "deltaTime": 11,
        "channel": 2,
        "controllerType": 7,
        "value": 95
      },
      {
        "type": "midi",
        "subType": "controller",
        "typeByte": 178,
        "deltaTime": 17,
        "channel": 2,
        "controllerType": 7,
        "value": 94
      },
      {
        "type": "midi",
        "subType": "controller",
        "typeByte": 178,
        "deltaTime": 44,
        "channel": 2,
        "controllerType": 7,
        "value": 93
      },
      {
        "type": "midi",
        "subType": "controller",
        "typeByte": 178,
        "deltaTime": 33,
        "channel": 2,
        "controllerType": 7,
        "value": 92
      },
      {
        "type": "midi",
        "subType": "controller",
        "typeByte": 178,
        "deltaTime": 28,
        "channel": 2,
        "controllerType": 7,
        "value": 91
      },
      {
        "type": "midi",
        "subType": "controller",
        "typeByte": 178,
        "deltaTime": 65,
        "channel": 2,
        "controllerType": 7,
        "value": 90
      },
      {
        "type": "midi",
        "subType": "controller",
        "typeByte": 178,
        "deltaTime": 48,
        "channel": 2,
        "controllerType": 7,
        "value": 89
      },
      {
        "type": "midi",
        "subType": "controller",
        "typeByte": 178,
        "deltaTime": 39,
        "channel": 2,
        "controllerType": 7,
        "value": 88
      },
      {
        "type": "midi",
        "subType": "controller",
        "typeByte": 178,
        "deltaTime": 18,
        "channel": 2,
        "controllerType": 7,
        "value": 87
      },
      {
        "type": "midi",
        "subType": "controller",
        "typeByte": 178,
        "deltaTime": 47,
        "channel": 2,
        "controllerType": 7,
        "value": 86
      },
      {
        "type": "midi",
        "subType": "controller",
        "typeByte": 178,
        "deltaTime": 14,
        "channel": 2,
        "controllerType": 7,
        "value": 85
      },
      {
        "type": "midi",
        "subType": "controller",
        "typeByte": 178,
        "deltaTime": 15,
        "channel": 2,
        "controllerType": 7,
        "value": 84
      },
      {
        "type": "midi",
        "subType": "controller",
        "typeByte": 178,
        "deltaTime": 8,
        "channel": 2,
        "controllerType": 7,
        "value": 83
      },
      {
        "type": "midi",
        "subType": "controller",
        "typeByte": 178,
        "deltaTime": 22,
        "channel": 2,
        "controllerType": 7,
        "value": 82
      },
      {
        "type": "midi",
        "subType": "controller",
        "typeByte": 178,
        "deltaTime": 50,
        "channel": 2,
        "controllerType": 7,
        "value": 81
      },
      {
        "type": "midi",
        "subType": "controller",
        "typeByte": 178,
        "deltaTime": 28,
        "channel": 2,
        "controllerType": 7,
        "value": 80
      },
      {
        "type": "midi",
        "subType": "controller",
        "typeByte": 178,
        "deltaTime": 26,
        "channel": 2,
        "controllerType": 7,
        "value": 79
      },
      {
        "type": "midi",
        "subType": "controller",
        "typeByte": 178,
        "deltaTime": 44,
        "channel": 2,
        "controllerType": 7,
        "value": 78
      },
      {
        "type": "midi",
        "subType": "controller",
        "typeByte": 178,
        "deltaTime": 28,
        "channel": 2,
        "controllerType": 7,
        "value": 77
      },
      {
        "type": "midi",
        "subType": "controller",
        "typeByte": 178,
        "deltaTime": 15,
        "channel": 2,
        "controllerType": 7,
        "value": 76
      },
      {
        "type": "midi",
        "subType": "controller",
        "typeByte": 178,
        "deltaTime": 37,
        "channel": 2,
        "controllerType": 7,
        "value": 75
      },
      {
        "type": "midi",
        "subType": "controller",
        "typeByte": 178,
        "deltaTime": 24,
        "channel": 2,
        "controllerType": 7,
        "value": 74
      },
      {
        "type": "midi",
        "subType": "controller",
        "typeByte": 178,
        "deltaTime": 15,
        "channel": 2,
        "controllerType": 7,
        "value": 73
      },
      {
        "type": "midi",
        "subType": "controller",
        "typeByte": 178,
        "deltaTime": 15,
        "channel": 2,
        "controllerType": 7,
        "value": 72
      },
      {
        "type": "midi",
        "subType": "controller",
        "typeByte": 178,
        "deltaTime": 21,
        "channel": 2,
        "controllerType": 7,
        "value": 71
      },
      {
        "type": "midi",
        "subType": "controller",
        "typeByte": 178,
        "deltaTime": 22,
        "channel": 2,
        "controllerType": 7,
        "value": 70
      },
      {
        "type": "midi",
        "subType": "controller",
        "typeByte": 178,
        "deltaTime": 30,
        "channel": 2,
        "controllerType": 7,
        "value": 69
      },
      {
        "type": "midi",
        "subType": "controller",
        "typeByte": 178,
        "deltaTime": 11,
        "channel": 2,
        "controllerType": 7,
        "value": 68
      },
      {
        "type": "midi",
        "subType": "controller",
        "typeByte": 178,
        "deltaTime": 11,
        "channel": 2,
        "controllerType": 7,
        "value": 67
      },
      {
        "type": "midi",
        "subType": "controller",
        "typeByte": 178,
        "deltaTime": 4,
        "channel": 2,
        "controllerType": 7,
        "value": 66
      },
      {
        "type": "midi",
        "subType": "controller",
        "typeByte": 178,
        "deltaTime": 11,
        "channel": 2,
        "controllerType": 7,
        "value": 65
      },
      {
        "type": "midi",
        "subType": "controller",
        "typeByte": 178,
        "deltaTime": 28,
        "channel": 2,
        "controllerType": 7,
        "value": 64
      },
      {
        "type": "midi",
        "subType": "controller",
        "typeByte": 178,
        "deltaTime": 15,
        "channel": 2,
        "controllerType": 7,
        "value": 63
      },
      {
        "type": "midi",
        "subType": "controller",
        "typeByte": 178,
        "deltaTime": 48,
        "channel": 2,
        "controllerType": 7,
        "value": 62
      },
      {
        "type": "midi",
        "subType": "controller",
        "typeByte": 178,
        "deltaTime": 63,
        "channel": 2,
        "controllerType": 7,
        "value": 61
      },
      {
        "type": "midi",
        "subType": "controller",
        "typeByte": 178,
        "deltaTime": 23,
        "channel": 2,
        "controllerType": 7,
        "value": 60
      },
      {
        "type": "midi",
        "subType": "controller",
        "typeByte": 178,
        "deltaTime": 33,
        "channel": 2,
        "controllerType": 7,
        "value": 59
      },
      {
        "type": "midi",
        "subType": "controller",
        "typeByte": 178,
        "deltaTime": 31,
        "channel": 2,
        "controllerType": 7,
        "value": 58
      },
      {
        "type": "midi",
        "subType": "controller",
        "typeByte": 178,
        "deltaTime": 44,
        "channel": 2,
        "controllerType": 7,
        "value": 57
      },
      {
        "type": "midi",
        "subType": "controller",
        "typeByte": 178,
        "deltaTime": 39,
        "channel": 2,
        "controllerType": 7,
        "value": 56
      },
      {
        "type": "midi",
        "subType": "controller",
        "typeByte": 178,
        "deltaTime": 26,
        "channel": 2,
        "controllerType": 7,
        "value": 55
      },
      {
        "type": "midi",
        "subType": "controller",
        "typeByte": 178,
        "deltaTime": 15,
        "channel": 2,
        "controllerType": 7,
        "value": 54
      },
      {
        "type": "midi",
        "subType": "controller",
        "typeByte": 178,
        "deltaTime": 21,
        "channel": 2,
        "controllerType": 7,
        "value": 53
      },
      {
        "type": "midi",
        "subType": "controller",
        "typeByte": 178,
        "deltaTime": 57,
        "channel": 2,
        "controllerType": 7,
        "value": 52
      },
      {
        "type": "midi",
        "subType": "controller",
        "typeByte": 178,
        "deltaTime": 29,
        "channel": 2,
        "controllerType": 7,
        "value": 51
      },
      {
        "type": "midi",
        "subType": "controller",
        "typeByte": 178,
        "deltaTime": 27,
        "channel": 2,
        "controllerType": 7,
        "value": 50
      },
      {
        "type": "midi",
        "subType": "controller",
        "typeByte": 178,
        "deltaTime": 10,
        "channel": 2,
        "controllerType": 7,
        "value": 49
      },
      {
        "type": "midi",
        "subType": "controller",
        "typeByte": 178,
        "deltaTime": 18,
        "channel": 2,
        "controllerType": 7,
        "value": 48
      },
      {
        "type": "midi",
        "subType": "controller",
        "typeByte": 178,
        "deltaTime": 44,
        "channel": 2,
        "controllerType": 7,
        "value": 47
      },
      {
        "type": "midi",
        "subType": "controller",
        "typeByte": 178,
        "deltaTime": 18,
        "channel": 2,
        "controllerType": 7,
        "value": 46
      },
      {
        "type": "midi",
        "subType": "controller",
        "typeByte": 178,
        "deltaTime": 22,
        "channel": 2,
        "controllerType": 7,
        "value": 45
      },
      {
        "type": "midi",
        "subType": "controller",
        "typeByte": 178,
        "deltaTime": 18,
        "channel": 2,
        "controllerType": 7,
        "value": 44
      },
      {
        "type": "midi",
        "subType": "controller",
        "typeByte": 178,
        "deltaTime": 14,
        "channel": 2,
        "controllerType": 7,
        "value": 43
      },
      {
        "type": "midi",
        "subType": "controller",
        "typeByte": 178,
        "deltaTime": 41,
        "channel": 2,
        "controllerType": 7,
        "value": 42
      },
      {
        "type": "midi",
        "subType": "controller",
        "typeByte": 178,
        "deltaTime": 10,
        "channel": 2,
        "controllerType": 7,
        "value": 41
      },
      {
        "type": "midi",
        "subType": "controller",
        "typeByte": 178,
        "deltaTime": 11,
        "channel": 2,
        "controllerType": 7,
        "value": 40
      },
      {
        "type": "midi",
        "subType": "controller",
        "typeByte": 178,
        "deltaTime": 25,
        "channel": 2,
        "controllerType": 7,
        "value": 39
      },
      {
        "type": "midi",
        "subType": "controller",
        "typeByte": 178,
        "deltaTime": 16,
        "channel": 2,
        "controllerType": 7,
        "value": 38
      },
      {
        "type": "midi",
        "subType": "controller",
        "typeByte": 178,
        "deltaTime": 11,
        "channel": 2,
        "controllerType": 7,
        "value": 37
      },
      {
        "type": "midi",
        "subType": "controller",
        "typeByte": 178,
        "deltaTime": 17,
        "channel": 2,
        "controllerType": 7,
        "value": 36
      },
      {
        "type": "midi",
        "subType": "controller",
        "typeByte": 178,
        "deltaTime": 46,
        "channel": 2,
        "controllerType": 7,
        "value": 35
      },
      {
        "type": "midi",
        "subType": "controller",
        "typeByte": 178,
        "deltaTime": 19,
        "channel": 2,
        "controllerType": 7,
        "value": 34
      },
      {
        "type": "midi",
        "subType": "controller",
        "typeByte": 178,
        "deltaTime": 26,
        "channel": 2,
        "controllerType": 7,
        "value": 33
      },
      {
        "type": "midi",
        "subType": "controller",
        "typeByte": 178,
        "deltaTime": 25,
        "channel": 2,
        "controllerType": 7,
        "value": 32
      },
      {
        "type": "midi",
        "subType": "controller",
        "typeByte": 178,
        "deltaTime": 25,
        "channel": 2,
        "controllerType": 7,
        "value": 31
      },
      {
        "type": "midi",
        "subType": "controller",
        "typeByte": 178,
        "deltaTime": 29,
        "channel": 2,
        "controllerType": 7,
        "value": 30
      },
      {
        "type": "midi",
        "subType": "controller",
        "typeByte": 178,
        "deltaTime": 29,
        "channel": 2,
        "controllerType": 7,
        "value": 29
      },
      {
        "type": "midi",
        "subType": "controller",
        "typeByte": 178,
        "deltaTime": 12,
        "channel": 2,
        "controllerType": 7,
        "value": 28
      },
      {
        "type": "midi",
        "subType": "controller",
        "typeByte": 178,
        "deltaTime": 35,
        "channel": 2,
        "controllerType": 7,
        "value": 27
      },
      {
        "type": "midi",
        "subType": "controller",
        "typeByte": 178,
        "deltaTime": 19,
        "channel": 2,
        "controllerType": 7,
        "value": 26
      },
      {
        "type": "midi",
        "subType": "controller",
        "typeByte": 178,
        "deltaTime": 15,
        "channel": 2,
        "controllerType": 7,
        "value": 25
      },
      {
        "type": "midi",
        "subType": "controller",
        "typeByte": 178,
        "deltaTime": 6,
        "channel": 2,
        "controllerType": 7,
        "value": 24
      },
      {
        "type": "midi",
        "subType": "controller",
        "typeByte": 178,
        "deltaTime": 25,
        "channel": 2,
        "controllerType": 7,
        "value": 23
      },
      {
        "type": "midi",
        "subType": "controller",
        "typeByte": 178,
        "deltaTime": 8,
        "channel": 2,
        "controllerType": 7,
        "value": 22
      },
      {
        "type": "midi",
        "subType": "controller",
        "typeByte": 178,
        "deltaTime": 11,
        "channel": 2,
        "controllerType": 7,
        "value": 21
      },
      {
        "type": "midi",
        "subType": "controller",
        "typeByte": 178,
        "deltaTime": 8,
        "channel": 2,
        "controllerType": 7,
        "value": 20
      },
      {
        "type": "midi",
        "subType": "controller",
        "typeByte": 178,
        "deltaTime": 11,
        "channel": 2,
        "controllerType": 7,
        "value": 19
      },
      {
        "type": "midi",
        "subType": "controller",
        "typeByte": 178,
        "deltaTime": 7,
        "channel": 2,
        "controllerType": 7,
        "value": 18
      },
      {
        "type": "midi",
        "subType": "controller",
        "typeByte": 178,
        "deltaTime": 8,
        "channel": 2,
        "controllerType": 7,
        "value": 17
      },
      {
        "type": "midi",
        "subType": "controller",
        "typeByte": 178,
        "deltaTime": 24,
        "channel": 2,
        "controllerType": 7,
        "value": 16
      },
      {
        "type": "midi",
        "subType": "controller",
        "typeByte": 178,
        "deltaTime": 19,
        "channel": 2,
        "controllerType": 7,
        "value": 15
      },
      {
        "type": "midi",
        "subType": "controller",
        "typeByte": 178,
        "deltaTime": 18,
        "channel": 2,
        "controllerType": 7,
        "value": 14
      },
      {
        "type": "midi",
        "subType": "controller",
        "typeByte": 178,
        "deltaTime": 11,
        "channel": 2,
        "controllerType": 7,
        "value": 13
      },
      {
        "type": "midi",
        "subType": "controller",
        "typeByte": 178,
        "deltaTime": 15,
        "channel": 2,
        "controllerType": 7,
        "value": 12
      },
      {
        "type": "midi",
        "subType": "controller",
        "typeByte": 178,
        "deltaTime": 32,
        "channel": 2,
        "controllerType": 7,
        "value": 11
      },
      {
        "type": "midi",
        "subType": "controller",
        "typeByte": 178,
        "deltaTime": 12,
        "channel": 2,
        "controllerType": 7,
        "value": 10
      },
      {
        "type": "midi",
        "subType": "controller",
        "typeByte": 178,
        "deltaTime": 7,
        "channel": 2,
        "controllerType": 7,
        "value": 9
      },
      {
        "type": "midi",
        "subType": "controller",
        "typeByte": 178,
        "deltaTime": 35,
        "channel": 2,
        "controllerType": 7,
        "value": 8
      },
      {
        "type": "midi",
        "subType": "controller",
        "typeByte": 178,
        "deltaTime": 4,
        "channel": 2,
        "controllerType": 7,
        "value": 7
      },
      {
        "type": "midi",
        "subType": "controller",
        "typeByte": 178,
        "deltaTime": 5,
        "channel": 2,
        "controllerType": 7,
        "value": 6
      },
      {
        "type": "midi",
        "subType": "controller",
        "typeByte": 178,
        "deltaTime": 4,
        "channel": 2,
        "controllerType": 7,
        "value": 5
      },
      {
        "type": "midi",
        "subType": "controller",
        "typeByte": 178,
        "deltaTime": 7,
        "channel": 2,
        "controllerType": 7,
        "value": 4
      },
      {
        "type": "midi",
        "subType": "controller",
        "typeByte": 178,
        "deltaTime": 7,
        "channel": 2,
        "controllerType": 7,
        "value": 3
      },
      {
        "type": "midi",
        "subType": "controller",
        "typeByte": 178,
        "deltaTime": 43,
        "channel": 2,
        "controllerType": 7,
        "value": 2
      },
      {
        "type": "midi",
        "subType": "controller",
        "typeByte": 178,
        "deltaTime": 16,
        "channel": 2,
        "controllerType": 7,
        "value": 1
      },
      {
        "type": "midi",
        "subType": "controller",
        "typeByte": 178,
        "deltaTime": 11,
        "channel": 2,
        "controllerType": 7,
        "value": 0
      },
      {
        "type": "midi",
        "subType": "programChange",
        "typeByte": 194,
        "deltaTime": 455,
        "channel": 2,
        "program": 61
      },
      {
        "type": "midi",
        "subType": "controller",
        "typeByte": 178,
        "deltaTime": 0,
        "channel": 2,
        "controllerType": 7,
        "value": 111
      },
      {
        "type": "midi",
        "subType": "controller",
        "typeByte": 178,
        "deltaTime": 341,
        "channel": 2,
        "controllerType": 64,
        "value": 0
      },
      {
        "type": "midi",
        "subType": "pitchBend",
        "typeByte": 226,
        "deltaTime": 1,
        "channel": 2,
        "value": 8192
      },
      {
        "type": "meta",
        "subType": "endOfTrack",
        "typeByte": 255,
        "subTypeByte": 47,
        "deltaTime": 0
      }
    ],
    [
      {
        "type": "meta",
        "typeByte": 255,
        "subTypeByte": 33,
        "deltaTime": 0,
        "data": {}
      },
      {
        "type": "meta",
        "subType": "trackName",
        "typeByte": 255,
        "subTypeByte": 3,
        "deltaTime": 0,
        "text": "String Sect 3       "
      },
      {
        "type": "midi",
        "subType": "programChange",
        "typeByte": 195,
        "deltaTime": 0,
        "channel": 3,
        "program": 49
      },
      {
        "type": "midi",
        "subType": "controller",
        "typeByte": 179,
        "deltaTime": 0,
        "channel": 3,
        "controllerType": 7,
        "value": 65
      },
      {
        "type": "midi",
        "subType": "controller",
        "typeByte": 179,
        "deltaTime": 0,
        "channel": 3,
        "controllerType": 10,
        "value": 75
      },
      {
        "type": "midi",
        "subType": "controller",
        "typeByte": 179,
        "deltaTime": 3341,
        "channel": 3,
        "controllerType": 7,
        "value": 25
      },
      {
        "type": "midi",
        "subType": "controller",
        "typeByte": 179,
        "deltaTime": 48,
        "channel": 3,
        "controllerType": 7,
        "value": 26
      },
      {
        "type": "midi",
        "subType": "controller",
        "typeByte": 179,
        "deltaTime": 36,
        "channel": 3,
        "controllerType": 7,
        "value": 27
      },
      {
        "type": "midi",
        "subType": "noteOn",
        "typeByte": 147,
        "deltaTime": 13,
        "channel": 3,
        "note": 62,
        "velocity": 127
      },
      {
        "type": "midi",
        "subType": "noteOn",
        "typeByte": 147,
        "deltaTime": 0,
        "channel": 3,
        "note": 59,
        "velocity": 127
      },
      {
        "type": "midi",
        "subType": "noteOn",
        "typeByte": 147,
        "deltaTime": 0,
        "channel": 3,
        "note": 54,
        "velocity": 117
      },
      {
        "type": "midi",
        "subType": "controller",
        "typeByte": 179,
        "deltaTime": 24,
        "channel": 3,
        "controllerType": 7,
        "value": 28
      },
      {
        "type": "midi",
        "subType": "controller",
        "typeByte": 179,
        "deltaTime": 47,
        "channel": 3,
        "controllerType": 7,
        "value": 29
      },
      {
        "type": "midi",
        "subType": "controller",
        "typeByte": 179,
        "deltaTime": 36,
        "channel": 3,
        "controllerType": 7,
        "value": 30
      },
      {
        "type": "midi",
        "subType": "controller",
        "typeByte": 179,
        "deltaTime": 36,
        "channel": 3,
        "controllerType": 7,
        "value": 31
      },
      {
        "type": "midi",
        "subType": "controller",
        "typeByte": 179,
        "deltaTime": 36,
        "channel": 3,
        "controllerType": 7,
        "value": 32
      },
      {
        "type": "midi",
        "subType": "controller",
        "typeByte": 179,
        "deltaTime": 48,
        "channel": 3,
        "controllerType": 7,
        "value": 33
      },
      {
        "type": "midi",
        "subType": "controller",
        "typeByte": 179,
        "deltaTime": 36,
        "channel": 3,
        "controllerType": 7,
        "value": 34
      },
      {
        "type": "midi",
        "subType": "controller",
        "typeByte": 179,
        "deltaTime": 37,
        "channel": 3,
        "controllerType": 7,
        "value": 35
      },
      {
        "type": "midi",
        "subType": "controller",
        "typeByte": 179,
        "deltaTime": 47,
        "channel": 3,
        "controllerType": 7,
        "value": 36
      },
      {
        "type": "midi",
        "subType": "controller",
        "typeByte": 179,
        "deltaTime": 38,
        "channel": 3,
        "controllerType": 7,
        "value": 37
      },
      {
        "type": "midi",
        "subType": "controller",
        "typeByte": 179,
        "deltaTime": 34,
        "channel": 3,
        "controllerType": 7,
        "value": 38
      },
      {
        "type": "midi",
        "subType": "controller",
        "typeByte": 179,
        "deltaTime": 37,
        "channel": 3,
        "controllerType": 7,
        "value": 39
      },
      {
        "type": "midi",
        "subType": "controller",
        "typeByte": 179,
        "deltaTime": 49,
        "channel": 3,
        "controllerType": 7,
        "value": 40
      },
      {
        "type": "midi",
        "subType": "controller",
        "typeByte": 179,
        "deltaTime": 35,
        "channel": 3,
        "controllerType": 7,
        "value": 41
      },
      {
        "type": "midi",
        "subType": "controller",
        "typeByte": 179,
        "deltaTime": 38,
        "channel": 3,
        "controllerType": 7,
        "value": 42
      },
      {
        "type": "midi",
        "subType": "controller",
        "typeByte": 179,
        "deltaTime": 47,
        "channel": 3,
        "controllerType": 7,
        "value": 43
      },
      {
        "type": "midi",
        "subType": "controller",
        "typeByte": 179,
        "deltaTime": 36,
        "channel": 3,
        "controllerType": 7,
        "value": 44
      },
      {
        "type": "midi",
        "subType": "controller",
        "typeByte": 179,
        "deltaTime": 37,
        "channel": 3,
        "controllerType": 7,
        "value": 45
      },
      {
        "type": "midi",
        "subType": "controller",
        "typeByte": 179,
        "deltaTime": 35,
        "channel": 3,
        "controllerType": 7,
        "value": 46
      },
      {
        "type": "midi",
        "subType": "controller",
        "typeByte": 179,
        "deltaTime": 48,
        "channel": 3,
        "controllerType": 7,
        "value": 47
      },
      {
        "type": "midi",
        "subType": "controller",
        "typeByte": 179,
        "deltaTime": 36,
        "channel": 3,
        "controllerType": 7,
        "value": 48
      },
      {
        "type": "midi",
        "subType": "controller",
        "typeByte": 179,
        "deltaTime": 36,
        "channel": 3,
        "controllerType": 7,
        "value": 49
      },
      {
        "type": "midi",
        "subType": "controller",
        "typeByte": 179,
        "deltaTime": 48,
        "channel": 3,
        "controllerType": 7,
        "value": 50
      },
      {
        "type": "midi",
        "subType": "controller",
        "typeByte": 179,
        "deltaTime": 36,
        "channel": 3,
        "controllerType": 7,
        "value": 51
      },
      {
        "type": "midi",
        "subType": "controller",
        "typeByte": 179,
        "deltaTime": 37,
        "channel": 3,
        "controllerType": 7,
        "value": 52
      },
      {
        "type": "midi",
        "subType": "controller",
        "typeByte": 179,
        "deltaTime": 36,
        "channel": 3,
        "controllerType": 7,
        "value": 53
      },
      {
        "type": "midi",
        "subType": "controller",
        "typeByte": 179,
        "deltaTime": 49,
        "channel": 3,
        "controllerType": 7,
        "value": 54
      },
      {
        "type": "midi",
        "subType": "controller",
        "typeByte": 179,
        "deltaTime": 34,
        "channel": 3,
        "controllerType": 7,
        "value": 55
      },
      {
        "type": "midi",
        "subType": "controller",
        "typeByte": 179,
        "deltaTime": 37,
        "channel": 3,
        "controllerType": 7,
        "value": 56
      },
      {
        "type": "midi",
        "subType": "controller",
        "typeByte": 179,
        "deltaTime": 37,
        "channel": 3,
        "controllerType": 7,
        "value": 57
      },
      {
        "type": "midi",
        "subType": "controller",
        "typeByte": 179,
        "deltaTime": 47,
        "channel": 3,
        "controllerType": 7,
        "value": 58
      },
      {
        "type": "midi",
        "subType": "controller",
        "typeByte": 179,
        "deltaTime": 37,
        "channel": 3,
        "controllerType": 7,
        "value": 59
      },
      {
        "type": "midi",
        "subType": "controller",
        "typeByte": 179,
        "deltaTime": 35,
        "channel": 3,
        "controllerType": 7,
        "value": 60
      },
      {
        "type": "midi",
        "subType": "controller",
        "typeByte": 179,
        "deltaTime": 49,
        "channel": 3,
        "controllerType": 7,
        "value": 61
      },
      {
        "type": "midi",
        "subType": "controller",
        "typeByte": 179,
        "deltaTime": 36,
        "channel": 3,
        "controllerType": 7,
        "value": 62
      },
      {
        "type": "midi",
        "subType": "controller",
        "typeByte": 179,
        "deltaTime": 36,
        "channel": 3,
        "controllerType": 7,
        "value": 63
      },
      {
        "type": "midi",
        "subType": "controller",
        "typeByte": 179,
        "deltaTime": 35,
        "channel": 3,
        "controllerType": 7,
        "value": 55
      },
      {
        "type": "midi",
        "subType": "noteOff",
        "typeByte": 147,
        "deltaTime": 94,
        "channel": 3,
        "note": 54,
        "velocity": 0
      },
      {
        "type": "midi",
        "subType": "noteOff",
        "typeByte": 147,
        "deltaTime": 0,
        "channel": 3,
        "note": 59,
        "velocity": 0
      },
      {
        "type": "midi",
        "subType": "noteOff",
        "typeByte": 147,
        "deltaTime": 0,
        "channel": 3,
        "note": 62,
        "velocity": 0
      },
      {
        "type": "midi",
        "subType": "noteOn",
        "typeByte": 147,
        "deltaTime": 5,
        "channel": 3,
        "note": 74,
        "velocity": 127
      },
      {
        "type": "midi",
        "subType": "noteOn",
        "typeByte": 147,
        "deltaTime": 0,
        "channel": 3,
        "note": 78,
        "velocity": 127
      },
      {
        "type": "midi",
        "subType": "noteOn",
        "typeByte": 147,
        "deltaTime": 0,
        "channel": 3,
        "note": 71,
        "velocity": 100
      },
      {
        "type": "midi",
        "subType": "noteOff",
        "typeByte": 147,
        "deltaTime": 380,
        "channel": 3,
        "note": 71,
        "velocity": 0
      },
      {
        "type": "midi",
        "subType": "noteOff",
        "typeByte": 147,
        "deltaTime": 0,
        "channel": 3,
        "note": 78,
        "velocity": 0
      },
      {
        "type": "midi",
        "subType": "noteOff",
        "typeByte": 147,
        "deltaTime": 0,
        "channel": 3,
        "note": 74,
        "velocity": 0
      },
      {
        "type": "midi",
        "subType": "noteOn",
        "typeByte": 147,
        "deltaTime": 4,
        "channel": 3,
        "note": 76,
        "velocity": 121
      },
      {
        "type": "midi",
        "subType": "noteOn",
        "typeByte": 147,
        "deltaTime": 0,
        "channel": 3,
        "note": 71,
        "velocity": 121
      },
      {
        "type": "midi",
        "subType": "noteOn",
        "typeByte": 147,
        "deltaTime": 1,
        "channel": 3,
        "note": 80,
        "velocity": 127
      },
      {
        "type": "midi",
        "subType": "noteOff",
        "typeByte": 147,
        "deltaTime": 380,
        "channel": 3,
        "note": 80,
        "velocity": 0
      },
      {
        "type": "midi",
        "subType": "noteOff",
        "typeByte": 147,
        "deltaTime": 0,
        "channel": 3,
        "note": 71,
        "velocity": 0
      },
      {
        "type": "midi",
        "subType": "noteOff",
        "typeByte": 147,
        "deltaTime": 0,
        "channel": 3,
        "note": 76,
        "velocity": 0
      },
      {
        "type": "midi",
        "subType": "noteOn",
        "typeByte": 147,
        "deltaTime": 5,
        "channel": 3,
        "note": 76,
        "velocity": 127
      },
      {
        "type": "midi",
        "subType": "noteOn",
        "typeByte": 147,
        "deltaTime": 0,
        "channel": 3,
        "note": 81,
        "velocity": 127
      },
      {
        "type": "midi",
        "subType": "noteOn",
        "typeByte": 147,
        "deltaTime": 1,
        "channel": 3,
        "note": 73,
        "velocity": 127
      },
      {
        "type": "midi",
        "subType": "noteOff",
        "typeByte": 147,
        "deltaTime": 379,
        "channel": 3,
        "note": 73,
        "velocity": 0
      },
      {
        "type": "midi",
        "subType": "noteOff",
        "typeByte": 147,
        "deltaTime": 0,
        "channel": 3,
        "note": 81,
        "velocity": 0
      },
      {
        "type": "midi",
        "subType": "noteOff",
        "typeByte": 147,
        "deltaTime": 0,
        "channel": 3,
        "note": 76,
        "velocity": 0
      },
      {
        "type": "midi",
        "subType": "noteOn",
        "typeByte": 147,
        "deltaTime": 5,
        "channel": 3,
        "note": 78,
        "velocity": 127
      },
      {
        "type": "midi",
        "subType": "noteOn",
        "typeByte": 147,
        "deltaTime": 0,
        "channel": 3,
        "note": 74,
        "velocity": 127
      },
      {
        "type": "midi",
        "subType": "noteOn",
        "typeByte": 147,
        "deltaTime": 1,
        "channel": 3,
        "note": 81,
        "velocity": 127
      },
      {
        "type": "midi",
        "subType": "noteOff",
        "typeByte": 147,
        "deltaTime": 379,
        "channel": 3,
        "note": 81,
        "velocity": 0
      },
      {
        "type": "midi",
        "subType": "noteOff",
        "typeByte": 147,
        "deltaTime": 0,
        "channel": 3,
        "note": 74,
        "velocity": 0
      },
      {
        "type": "midi",
        "subType": "noteOff",
        "typeByte": 147,
        "deltaTime": 0,
        "channel": 3,
        "note": 78,
        "velocity": 0
      },
      {
        "type": "midi",
        "subType": "noteOn",
        "typeByte": 147,
        "deltaTime": 6,
        "channel": 3,
        "note": 74,
        "velocity": 127
      },
      {
        "type": "midi",
        "subType": "noteOn",
        "typeByte": 147,
        "deltaTime": 0,
        "channel": 3,
        "note": 78,
        "velocity": 127
      },
      {
        "type": "midi",
        "subType": "noteOn",
        "typeByte": 147,
        "deltaTime": 0,
        "channel": 3,
        "note": 71,
        "velocity": 100
      },
      {
        "type": "midi",
        "subType": "noteOff",
        "typeByte": 147,
        "deltaTime": 379,
        "channel": 3,
        "note": 71,
        "velocity": 0
      },
      {
        "type": "midi",
        "subType": "noteOff",
        "typeByte": 147,
        "deltaTime": 0,
        "channel": 3,
        "note": 78,
        "velocity": 0
      },
      {
        "type": "midi",
        "subType": "noteOff",
        "typeByte": 147,
        "deltaTime": 0,
        "channel": 3,
        "note": 74,
        "velocity": 0
      },
      {
        "type": "midi",
        "subType": "noteOn",
        "typeByte": 147,
        "deltaTime": 5,
        "channel": 3,
        "note": 76,
        "velocity": 121
      },
      {
        "type": "midi",
        "subType": "noteOn",
        "typeByte": 147,
        "deltaTime": 0,
        "channel": 3,
        "note": 71,
        "velocity": 121
      },
      {
        "type": "midi",
        "subType": "noteOn",
        "typeByte": 147,
        "deltaTime": 1,
        "channel": 3,
        "note": 80,
        "velocity": 127
      },
      {
        "type": "midi",
        "subType": "noteOff",
        "typeByte": 147,
        "deltaTime": 380,
        "channel": 3,
        "note": 80,
        "velocity": 0
      },
      {
        "type": "midi",
        "subType": "noteOff",
        "typeByte": 147,
        "deltaTime": 0,
        "channel": 3,
        "note": 71,
        "velocity": 0
      },
      {
        "type": "midi",
        "subType": "noteOff",
        "typeByte": 147,
        "deltaTime": 0,
        "channel": 3,
        "note": 76,
        "velocity": 0
      },
      {
        "type": "midi",
        "subType": "noteOn",
        "typeByte": 147,
        "deltaTime": 5,
        "channel": 3,
        "note": 76,
        "velocity": 127
      },
      {
        "type": "midi",
        "subType": "noteOn",
        "typeByte": 147,
        "deltaTime": 0,
        "channel": 3,
        "note": 81,
        "velocity": 127
      },
      {
        "type": "midi",
        "subType": "noteOn",
        "typeByte": 147,
        "deltaTime": 1,
        "channel": 3,
        "note": 73,
        "velocity": 127
      },
      {
        "type": "midi",
        "subType": "noteOff",
        "typeByte": 147,
        "deltaTime": 379,
        "channel": 3,
        "note": 73,
        "velocity": 0
      },
      {
        "type": "midi",
        "subType": "noteOff",
        "typeByte": 147,
        "deltaTime": 0,
        "channel": 3,
        "note": 81,
        "velocity": 0
      },
      {
        "type": "midi",
        "subType": "noteOff",
        "typeByte": 147,
        "deltaTime": 0,
        "channel": 3,
        "note": 76,
        "velocity": 0
      },
      {
        "type": "midi",
        "subType": "noteOn",
        "typeByte": 147,
        "deltaTime": 5,
        "channel": 3,
        "note": 78,
        "velocity": 127
      },
      {
        "type": "midi",
        "subType": "noteOn",
        "typeByte": 147,
        "deltaTime": 0,
        "channel": 3,
        "note": 74,
        "velocity": 127
      },
      {
        "type": "midi",
        "subType": "noteOn",
        "typeByte": 147,
        "deltaTime": 0,
        "channel": 3,
        "note": 81,
        "velocity": 127
      },
      {
        "type": "midi",
        "subType": "noteOff",
        "typeByte": 147,
        "deltaTime": 380,
        "channel": 3,
        "note": 81,
        "velocity": 0
      },
      {
        "type": "midi",
        "subType": "noteOff",
        "typeByte": 147,
        "deltaTime": 0,
        "channel": 3,
        "note": 74,
        "velocity": 0
      },
      {
        "type": "midi",
        "subType": "noteOff",
        "typeByte": 147,
        "deltaTime": 0,
        "channel": 3,
        "note": 78,
        "velocity": 0
      },
      {
        "type": "midi",
        "subType": "noteOn",
        "typeByte": 147,
        "deltaTime": 6,
        "channel": 3,
        "note": 74,
        "velocity": 127
      },
      {
        "type": "midi",
        "subType": "noteOn",
        "typeByte": 147,
        "deltaTime": 0,
        "channel": 3,
        "note": 78,
        "velocity": 127
      },
      {
        "type": "midi",
        "subType": "noteOn",
        "typeByte": 147,
        "deltaTime": 1,
        "channel": 3,
        "note": 71,
        "velocity": 108
      },
      {
        "type": "midi",
        "subType": "noteOff",
        "typeByte": 147,
        "deltaTime": 378,
        "channel": 3,
        "note": 71,
        "velocity": 0
      },
      {
        "type": "midi",
        "subType": "noteOff",
        "typeByte": 147,
        "deltaTime": 0,
        "channel": 3,
        "note": 78,
        "velocity": 0
      },
      {
        "type": "midi",
        "subType": "noteOff",
        "typeByte": 147,
        "deltaTime": 0,
        "channel": 3,
        "note": 74,
        "velocity": 0
      },
      {
        "type": "midi",
        "subType": "noteOn",
        "typeByte": 147,
        "deltaTime": 6,
        "channel": 3,
        "note": 76,
        "velocity": 127
      },
      {
        "type": "midi",
        "subType": "noteOn",
        "typeByte": 147,
        "deltaTime": 0,
        "channel": 3,
        "note": 71,
        "velocity": 127
      },
      {
        "type": "midi",
        "subType": "noteOn",
        "typeByte": 147,
        "deltaTime": 0,
        "channel": 3,
        "note": 80,
        "velocity": 127
      },
      {
        "type": "midi",
        "subType": "noteOff",
        "typeByte": 147,
        "deltaTime": 379,
        "channel": 3,
        "note": 80,
        "velocity": 0
      },
      {
        "type": "midi",
        "subType": "noteOff",
        "typeByte": 147,
        "deltaTime": 0,
        "channel": 3,
        "note": 71,
        "velocity": 0
      },
      {
        "type": "midi",
        "subType": "noteOff",
        "typeByte": 147,
        "deltaTime": 0,
        "channel": 3,
        "note": 76,
        "velocity": 0
      },
      {
        "type": "midi",
        "subType": "noteOn",
        "typeByte": 147,
        "deltaTime": 6,
        "channel": 3,
        "note": 74,
        "velocity": 127
      },
      {
        "type": "midi",
        "subType": "noteOn",
        "typeByte": 147,
        "deltaTime": 0,
        "channel": 3,
        "note": 78,
        "velocity": 127
      },
      {
        "type": "midi",
        "subType": "noteOn",
        "typeByte": 147,
        "deltaTime": 1,
        "channel": 3,
        "note": 71,
        "velocity": 127
      },
      {
        "type": "midi",
        "subType": "noteOff",
        "typeByte": 147,
        "deltaTime": 379,
        "channel": 3,
        "note": 71,
        "velocity": 0
      },
      {
        "type": "midi",
        "subType": "noteOff",
        "typeByte": 147,
        "deltaTime": 0,
        "channel": 3,
        "note": 78,
        "velocity": 0
      },
      {
        "type": "midi",
        "subType": "noteOff",
        "typeByte": 147,
        "deltaTime": 0,
        "channel": 3,
        "note": 74,
        "velocity": 0
      },
      {
        "type": "midi",
        "subType": "noteOn",
        "typeByte": 147,
        "deltaTime": 5,
        "channel": 3,
        "note": 76,
        "velocity": 127
      },
      {
        "type": "midi",
        "subType": "noteOn",
        "typeByte": 147,
        "deltaTime": 0,
        "channel": 3,
        "note": 71,
        "velocity": 127
      },
      {
        "type": "midi",
        "subType": "noteOn",
        "typeByte": 147,
        "deltaTime": 0,
        "channel": 3,
        "note": 80,
        "velocity": 127
      },
      {
        "type": "midi",
        "subType": "noteOff",
        "typeByte": 147,
        "deltaTime": 380,
        "channel": 3,
        "note": 80,
        "velocity": 0
      },
      {
        "type": "midi",
        "subType": "noteOff",
        "typeByte": 147,
        "deltaTime": 0,
        "channel": 3,
        "note": 71,
        "velocity": 0
      },
      {
        "type": "midi",
        "subType": "noteOff",
        "typeByte": 147,
        "deltaTime": 0,
        "channel": 3,
        "note": 76,
        "velocity": 0
      },
      {
        "type": "midi",
        "subType": "controller",
        "typeByte": 179,
        "deltaTime": 5,
        "channel": 3,
        "controllerType": 7,
        "value": 44
      },
      {
        "type": "midi",
        "subType": "noteOn",
        "typeByte": 147,
        "deltaTime": 0,
        "channel": 3,
        "note": 59,
        "velocity": 127
      },
      {
        "type": "midi",
        "subType": "noteOn",
        "typeByte": 147,
        "deltaTime": 0,
        "channel": 3,
        "note": 66,
        "velocity": 127
      },
      {
        "type": "midi",
        "subType": "noteOn",
        "typeByte": 147,
        "deltaTime": 1,
        "channel": 3,
        "note": 62,
        "velocity": 127
      },
      {
        "type": "midi",
        "subType": "noteOff",
        "typeByte": 147,
        "deltaTime": 379,
        "channel": 3,
        "note": 62,
        "velocity": 0
      },
      {
        "type": "midi",
        "subType": "noteOff",
        "typeByte": 147,
        "deltaTime": 0,
        "channel": 3,
        "note": 66,
        "velocity": 0
      },
      {
        "type": "midi",
        "subType": "noteOff",
        "typeByte": 147,
        "deltaTime": 0,
        "channel": 3,
        "note": 59,
        "velocity": 0
      },
      {
        "type": "midi",
        "subType": "noteOn",
        "typeByte": 147,
        "deltaTime": 5,
        "channel": 3,
        "note": 68,
        "velocity": 127
      },
      {
        "type": "midi",
        "subType": "noteOn",
        "typeByte": 147,
        "deltaTime": 0,
        "channel": 3,
        "note": 59,
        "velocity": 120
      },
      {
        "type": "midi",
        "subType": "noteOn",
        "typeByte": 147,
        "deltaTime": 1,
        "channel": 3,
        "note": 64,
        "velocity": 127
      },
      {
        "type": "midi",
        "subType": "noteOff",
        "typeByte": 147,
        "deltaTime": 379,
        "channel": 3,
        "note": 64,
        "velocity": 0
      },
      {
        "type": "midi",
        "subType": "noteOff",
        "typeByte": 147,
        "deltaTime": 0,
        "channel": 3,
        "note": 59,
        "velocity": 0
      },
      {
        "type": "midi",
        "subType": "noteOff",
        "typeByte": 147,
        "deltaTime": 0,
        "channel": 3,
        "note": 68,
        "velocity": 0
      },
      {
        "type": "midi",
        "subType": "noteOn",
        "typeByte": 147,
        "deltaTime": 5,
        "channel": 3,
        "note": 57,
        "velocity": 127
      },
      {
        "type": "midi",
        "subType": "noteOn",
        "typeByte": 147,
        "deltaTime": 0,
        "channel": 3,
        "note": 64,
        "velocity": 127
      },
      {
        "type": "midi",
        "subType": "noteOn",
        "typeByte": 147,
        "deltaTime": 1,
        "channel": 3,
        "note": 61,
        "velocity": 127
      },
      {
        "type": "midi",
        "subType": "noteOff",
        "typeByte": 147,
        "deltaTime": 379,
        "channel": 3,
        "note": 61,
        "velocity": 0
      },
      {
        "type": "midi",
        "subType": "noteOff",
        "typeByte": 147,
        "deltaTime": 0,
        "channel": 3,
        "note": 57,
        "velocity": 0
      },
      {
        "type": "midi",
        "subType": "noteOff",
        "typeByte": 147,
        "deltaTime": 2,
        "channel": 3,
        "note": 64,
        "velocity": 0
      },
      {
        "type": "midi",
        "subType": "noteOn",
        "typeByte": 147,
        "deltaTime": 3,
        "channel": 3,
        "note": 62,
        "velocity": 127
      },
      {
        "type": "midi",
        "subType": "noteOn",
        "typeByte": 147,
        "deltaTime": 0,
        "channel": 3,
        "note": 66,
        "velocity": 127
      },
      {
        "type": "midi",
        "subType": "noteOn",
        "typeByte": 147,
        "deltaTime": 1,
        "channel": 3,
        "note": 57,
        "velocity": 122
      },
      {
        "type": "midi",
        "subType": "noteOff",
        "typeByte": 147,
        "deltaTime": 380,
        "channel": 3,
        "note": 57,
        "velocity": 0
      },
      {
        "type": "midi",
        "subType": "noteOff",
        "typeByte": 147,
        "deltaTime": 0,
        "channel": 3,
        "note": 66,
        "velocity": 0
      },
      {
        "type": "midi",
        "subType": "noteOff",
        "typeByte": 147,
        "deltaTime": 0,
        "channel": 3,
        "note": 62,
        "velocity": 0
      },
      {
        "type": "midi",
        "subType": "noteOn",
        "typeByte": 147,
        "deltaTime": 5,
        "channel": 3,
        "note": 59,
        "velocity": 127
      },
      {
        "type": "midi",
        "subType": "noteOn",
        "typeByte": 147,
        "deltaTime": 0,
        "channel": 3,
        "note": 66,
        "velocity": 127
      },
      {
        "type": "midi",
        "subType": "noteOn",
        "typeByte": 147,
        "deltaTime": 0,
        "channel": 3,
        "note": 62,
        "velocity": 127
      },
      {
        "type": "midi",
        "subType": "noteOff",
        "typeByte": 147,
        "deltaTime": 380,
        "channel": 3,
        "note": 62,
        "velocity": 0
      },
      {
        "type": "midi",
        "subType": "noteOff",
        "typeByte": 147,
        "deltaTime": 0,
        "channel": 3,
        "note": 66,
        "velocity": 0
      },
      {
        "type": "midi",
        "subType": "noteOff",
        "typeByte": 147,
        "deltaTime": 0,
        "channel": 3,
        "note": 59,
        "velocity": 0
      },
      {
        "type": "midi",
        "subType": "noteOn",
        "typeByte": 147,
        "deltaTime": 5,
        "channel": 3,
        "note": 68,
        "velocity": 127
      },
      {
        "type": "midi",
        "subType": "noteOn",
        "typeByte": 147,
        "deltaTime": 0,
        "channel": 3,
        "note": 59,
        "velocity": 120
      },
      {
        "type": "midi",
        "subType": "noteOn",
        "typeByte": 147,
        "deltaTime": 1,
        "channel": 3,
        "note": 64,
        "velocity": 127
      },
      {
        "type": "midi",
        "subType": "noteOff",
        "typeByte": 147,
        "deltaTime": 379,
        "channel": 3,
        "note": 64,
        "velocity": 0
      },
      {
        "type": "midi",
        "subType": "noteOff",
        "typeByte": 147,
        "deltaTime": 0,
        "channel": 3,
        "note": 59,
        "velocity": 0
      },
      {
        "type": "midi",
        "subType": "noteOff",
        "typeByte": 147,
        "deltaTime": 0,
        "channel": 3,
        "note": 68,
        "velocity": 0
      },
      {
        "type": "midi",
        "subType": "noteOn",
        "typeByte": 147,
        "deltaTime": 5,
        "channel": 3,
        "note": 57,
        "velocity": 127
      },
      {
        "type": "midi",
        "subType": "noteOn",
        "typeByte": 147,
        "deltaTime": 0,
        "channel": 3,
        "note": 64,
        "velocity": 127
      },
      {
        "type": "midi",
        "subType": "noteOn",
        "typeByte": 147,
        "deltaTime": 1,
        "channel": 3,
        "note": 61,
        "velocity": 127
      },
      {
        "type": "midi",
        "subType": "noteOff",
        "typeByte": 147,
        "deltaTime": 379,
        "channel": 3,
        "note": 61,
        "velocity": 0
      },
      {
        "type": "midi",
        "subType": "noteOff",
        "typeByte": 147,
        "deltaTime": 0,
        "channel": 3,
        "note": 64,
        "velocity": 0
      },
      {
        "type": "midi",
        "subType": "noteOff",
        "typeByte": 147,
        "deltaTime": 0,
        "channel": 3,
        "note": 57,
        "velocity": 0
      },
      {
        "type": "midi",
        "subType": "noteOn",
        "typeByte": 147,
        "deltaTime": 5,
        "channel": 3,
        "note": 62,
        "velocity": 127
      },
      {
        "type": "midi",
        "subType": "noteOn",
        "typeByte": 147,
        "deltaTime": 0,
        "channel": 3,
        "note": 66,
        "velocity": 127
      },
      {
        "type": "midi",
        "subType": "noteOn",
        "typeByte": 147,
        "deltaTime": 1,
        "channel": 3,
        "note": 57,
        "velocity": 122
      },
      {
        "type": "midi",
        "subType": "noteOff",
        "typeByte": 147,
        "deltaTime": 379,
        "channel": 3,
        "note": 57,
        "velocity": 0
      },
      {
        "type": "midi",
        "subType": "noteOff",
        "typeByte": 147,
        "deltaTime": 0,
        "channel": 3,
        "note": 66,
        "velocity": 0
      },
      {
        "type": "midi",
        "subType": "noteOff",
        "typeByte": 147,
        "deltaTime": 0,
        "channel": 3,
        "note": 62,
        "velocity": 0
      },
      {
        "type": "midi",
        "subType": "noteOn",
        "typeByte": 147,
        "deltaTime": 5,
        "channel": 3,
        "note": 59,
        "velocity": 127
      },
      {
        "type": "midi",
        "subType": "noteOn",
        "typeByte": 147,
        "deltaTime": 0,
        "channel": 3,
        "note": 62,
        "velocity": 127
      },
      {
        "type": "midi",
        "subType": "noteOn",
        "typeByte": 147,
        "deltaTime": 1,
        "channel": 3,
        "note": 66,
        "velocity": 127
      },
      {
        "type": "midi",
        "subType": "noteOff",
        "typeByte": 147,
        "deltaTime": 379,
        "channel": 3,
        "note": 59,
        "velocity": 0
      },
      {
        "type": "midi",
        "subType": "noteOff",
        "typeByte": 147,
        "deltaTime": 1,
        "channel": 3,
        "note": 66,
        "velocity": 0
      },
      {
        "type": "midi",
        "subType": "noteOff",
        "typeByte": 147,
        "deltaTime": 0,
        "channel": 3,
        "note": 62,
        "velocity": 0
      },
      {
        "type": "midi",
        "subType": "noteOn",
        "typeByte": 147,
        "deltaTime": 4,
        "channel": 3,
        "note": 64,
        "velocity": 127
      },
      {
        "type": "midi",
        "subType": "noteOn",
        "typeByte": 147,
        "deltaTime": 0,
        "channel": 3,
        "note": 59,
        "velocity": 127
      },
      {
        "type": "midi",
        "subType": "noteOn",
        "typeByte": 147,
        "deltaTime": 1,
        "channel": 3,
        "note": 68,
        "velocity": 127
      },
      {
        "type": "midi",
        "subType": "noteOff",
        "typeByte": 147,
        "deltaTime": 380,
        "channel": 3,
        "note": 68,
        "velocity": 0
      },
      {
        "type": "midi",
        "subType": "noteOff",
        "typeByte": 147,
        "deltaTime": 0,
        "channel": 3,
        "note": 59,
        "velocity": 0
      },
      {
        "type": "midi",
        "subType": "noteOff",
        "typeByte": 147,
        "deltaTime": 0,
        "channel": 3,
        "note": 64,
        "velocity": 0
      },
      {
        "type": "midi",
        "subType": "noteOn",
        "typeByte": 147,
        "deltaTime": 4,
        "channel": 3,
        "note": 61,
        "velocity": 127
      },
      {
        "type": "midi",
        "subType": "noteOn",
        "typeByte": 147,
        "deltaTime": 0,
        "channel": 3,
        "note": 66,
        "velocity": 127
      },
      {
        "type": "midi",
        "subType": "noteOn",
        "typeByte": 147,
        "deltaTime": 1,
        "channel": 3,
        "note": 69,
        "velocity": 127
      },
      {
        "type": "midi",
        "subType": "noteOff",
        "typeByte": 147,
        "deltaTime": 380,
        "channel": 3,
        "note": 69,
        "velocity": 0
      },
      {
        "type": "midi",
        "subType": "noteOff",
        "typeByte": 147,
        "deltaTime": 0,
        "channel": 3,
        "note": 66,
        "velocity": 0
      },
      {
        "type": "midi",
        "subType": "noteOff",
        "typeByte": 147,
        "deltaTime": 0,
        "channel": 3,
        "note": 61,
        "velocity": 0
      },
      {
        "type": "midi",
        "subType": "noteOn",
        "typeByte": 147,
        "deltaTime": 5,
        "channel": 3,
        "note": 62,
        "velocity": 127
      },
      {
        "type": "midi",
        "subType": "noteOn",
        "typeByte": 147,
        "deltaTime": 0,
        "channel": 3,
        "note": 66,
        "velocity": 127
      },
      {
        "type": "midi",
        "subType": "noteOn",
        "typeByte": 147,
        "deltaTime": 1,
        "channel": 3,
        "note": 69,
        "velocity": 127
      },
      {
        "type": "midi",
        "subType": "noteOff",
        "typeByte": 147,
        "deltaTime": 379,
        "channel": 3,
        "note": 69,
        "velocity": 0
      },
      {
        "type": "midi",
        "subType": "noteOff",
        "typeByte": 147,
        "deltaTime": 0,
        "channel": 3,
        "note": 66,
        "velocity": 0
      },
      {
        "type": "midi",
        "subType": "noteOff",
        "typeByte": 147,
        "deltaTime": 0,
        "channel": 3,
        "note": 62,
        "velocity": 0
      },
      {
        "type": "midi",
        "subType": "controller",
        "typeByte": 179,
        "deltaTime": 5,
        "channel": 3,
        "controllerType": 7,
        "value": 55
      },
      {
        "type": "midi",
        "subType": "noteOn",
        "typeByte": 147,
        "deltaTime": 1,
        "channel": 3,
        "note": 61,
        "velocity": 127
      },
      {
        "type": "midi",
        "subType": "noteOn",
        "typeByte": 147,
        "deltaTime": 0,
        "channel": 3,
        "note": 69,
        "velocity": 127
      },
      {
        "type": "midi",
        "subType": "noteOn",
        "typeByte": 147,
        "deltaTime": 0,
        "channel": 3,
        "note": 64,
        "velocity": 127
      },
      {
        "type": "midi",
        "subType": "noteOff",
        "typeByte": 147,
        "deltaTime": 380,
        "channel": 3,
        "note": 69,
        "velocity": 0
      },
      {
        "type": "midi",
        "subType": "noteOff",
        "typeByte": 147,
        "deltaTime": 0,
        "channel": 3,
        "note": 61,
        "velocity": 0
      },
      {
        "type": "midi",
        "subType": "noteOn",
        "typeByte": 147,
        "deltaTime": 4,
        "channel": 3,
        "note": 68,
        "velocity": 127
      },
      {
        "type": "midi",
        "subType": "noteOn",
        "typeByte": 147,
        "deltaTime": 0,
        "channel": 3,
        "note": 59,
        "velocity": 127
      },
      {
        "type": "midi",
        "subType": "noteOff",
        "typeByte": 147,
        "deltaTime": 381,
        "channel": 3,
        "note": 59,
        "velocity": 0
      },
      {
        "type": "midi",
        "subType": "noteOff",
        "typeByte": 147,
        "deltaTime": 0,
        "channel": 3,
        "note": 68,
        "velocity": 0
      },
      {
        "type": "midi",
        "subType": "noteOff",
        "typeByte": 147,
        "deltaTime": 0,
        "channel": 3,
        "note": 64,
        "velocity": 0
      },
      {
        "type": "midi",
        "subType": "noteOn",
        "typeByte": 147,
        "deltaTime": 4,
        "channel": 3,
        "note": 69,
        "velocity": 127
      },
      {
        "type": "midi",
        "subType": "noteOn",
        "typeByte": 147,
        "deltaTime": 0,
        "channel": 3,
        "note": 61,
        "velocity": 127
      },
      {
        "type": "midi",
        "subType": "noteOn",
        "typeByte": 147,
        "deltaTime": 1,
        "channel": 3,
        "note": 66,
        "velocity": 127
      },
      {
        "type": "midi",
        "subType": "noteOff",
        "typeByte": 147,
        "deltaTime": 765,
        "channel": 3,
        "note": 66,
        "velocity": 0
      },
      {
        "type": "midi",
        "subType": "noteOff",
        "typeByte": 147,
        "deltaTime": 0,
        "channel": 3,
        "note": 61,
        "velocity": 0
      },
      {
        "type": "midi",
        "subType": "noteOff",
        "typeByte": 147,
        "deltaTime": 0,
        "channel": 3,
        "note": 69,
        "velocity": 0
      },
      {
        "type": "midi",
        "subType": "noteOn",
        "typeByte": 147,
        "deltaTime": 5,
        "channel": 3,
        "note": 64,
        "velocity": 127
      },
      {
        "type": "midi",
        "subType": "noteOn",
        "typeByte": 147,
        "deltaTime": 0,
        "channel": 3,
        "note": 73,
        "velocity": 127
      },
      {
        "type": "midi",
        "subType": "noteOn",
        "typeByte": 147,
        "deltaTime": 1,
        "channel": 3,
        "note": 69,
        "velocity": 127
      },
      {
        "type": "midi",
        "subType": "noteOff",
        "typeByte": 147,
        "deltaTime": 380,
        "channel": 3,
        "note": 69,
        "velocity": 0
      },
      {
        "type": "midi",
        "subType": "noteOff",
        "typeByte": 147,
        "deltaTime": 0,
        "channel": 3,
        "note": 73,
        "velocity": 0
      },
      {
        "type": "midi",
        "subType": "noteOff",
        "typeByte": 147,
        "deltaTime": 0,
        "channel": 3,
        "note": 64,
        "velocity": 0
      },
      {
        "type": "midi",
        "subType": "noteOn",
        "typeByte": 147,
        "deltaTime": 4,
        "channel": 3,
        "note": 71,
        "velocity": 119
      },
      {
        "type": "midi",
        "subType": "noteOn",
        "typeByte": 147,
        "deltaTime": 0,
        "channel": 3,
        "note": 68,
        "velocity": 127
      },
      {
        "type": "midi",
        "subType": "noteOn",
        "typeByte": 147,
        "deltaTime": 0,
        "channel": 3,
        "note": 76,
        "velocity": 127
      },
      {
        "type": "midi",
        "subType": "noteOff",
        "typeByte": 147,
        "deltaTime": 380,
        "channel": 3,
        "note": 76,
        "velocity": 0
      },
      {
        "type": "midi",
        "subType": "noteOff",
        "typeByte": 147,
        "deltaTime": 0,
        "channel": 3,
        "note": 68,
        "velocity": 0
      },
      {
        "type": "midi",
        "subType": "noteOff",
        "typeByte": 147,
        "deltaTime": 0,
        "channel": 3,
        "note": 71,
        "velocity": 0
      },
      {
        "type": "midi",
        "subType": "noteOn",
        "typeByte": 147,
        "deltaTime": 5,
        "channel": 3,
        "note": 78,
        "velocity": 127
      },
      {
        "type": "midi",
        "subType": "noteOn",
        "typeByte": 147,
        "deltaTime": 0,
        "channel": 3,
        "note": 73,
        "velocity": 127
      },
      {
        "type": "midi",
        "subType": "noteOn",
        "typeByte": 147,
        "deltaTime": 0,
        "channel": 3,
        "note": 69,
        "velocity": 127
      },
      {
        "type": "midi",
        "subType": "noteOff",
        "typeByte": 147,
        "deltaTime": 766,
        "channel": 3,
        "note": 69,
        "velocity": 0
      },
      {
        "type": "midi",
        "subType": "noteOff",
        "typeByte": 147,
        "deltaTime": 0,
        "channel": 3,
        "note": 73,
        "velocity": 0
      },
      {
        "type": "midi",
        "subType": "noteOff",
        "typeByte": 147,
        "deltaTime": 0,
        "channel": 3,
        "note": 78,
        "velocity": 0
      },
      {
        "type": "midi",
        "subType": "noteOn",
        "typeByte": 147,
        "deltaTime": 5,
        "channel": 3,
        "note": 49,
        "velocity": 127
      },
      {
        "type": "midi",
        "subType": "noteOn",
        "typeByte": 147,
        "deltaTime": 0,
        "channel": 3,
        "note": 61,
        "velocity": 127
      },
      {
        "type": "midi",
        "subType": "noteOff",
        "typeByte": 147,
        "deltaTime": 380,
        "channel": 3,
        "note": 61,
        "velocity": 0
      },
      {
        "type": "midi",
        "subType": "noteOff",
        "typeByte": 147,
        "deltaTime": 0,
        "channel": 3,
        "note": 49,
        "velocity": 0
      },
      {
        "type": "midi",
        "subType": "noteOn",
        "typeByte": 147,
        "deltaTime": 4,
        "channel": 3,
        "note": 52,
        "velocity": 127
      },
      {
        "type": "midi",
        "subType": "noteOn",
        "typeByte": 147,
        "deltaTime": 0,
        "channel": 3,
        "note": 64,
        "velocity": 127
      },
      {
        "type": "midi",
        "subType": "noteOff",
        "typeByte": 147,
        "deltaTime": 381,
        "channel": 3,
        "note": 64,
        "velocity": 0
      },
      {
        "type": "midi",
        "subType": "noteOff",
        "typeByte": 147,
        "deltaTime": 0,
        "channel": 3,
        "note": 52,
        "velocity": 0
      },
      {
        "type": "midi",
        "subType": "noteOn",
        "typeByte": 147,
        "deltaTime": 4,
        "channel": 3,
        "note": 54,
        "velocity": 127
      },
      {
        "type": "midi",
        "subType": "noteOn",
        "typeByte": 147,
        "deltaTime": 1,
        "channel": 3,
        "note": 66,
        "velocity": 127
      },
      {
        "type": "midi",
        "subType": "noteOff",
        "typeByte": 147,
        "deltaTime": 765,
        "channel": 3,
        "note": 66,
        "velocity": 0
      },
      {
        "type": "midi",
        "subType": "noteOff",
        "typeByte": 147,
        "deltaTime": 0,
        "channel": 3,
        "note": 54,
        "velocity": 0
      },
      {
        "type": "midi",
        "subType": "controller",
        "typeByte": 179,
        "deltaTime": 1473,
        "channel": 3,
        "controllerType": 7,
        "value": 44
      },
      {
        "type": "midi",
        "subType": "noteOn",
        "typeByte": 147,
        "deltaTime": 73,
        "channel": 3,
        "note": 59,
        "velocity": 127
      },
      {
        "type": "midi",
        "subType": "noteOn",
        "typeByte": 147,
        "deltaTime": 0,
        "channel": 3,
        "note": 66,
        "velocity": 127
      },
      {
        "type": "midi",
        "subType": "noteOn",
        "typeByte": 147,
        "deltaTime": 1,
        "channel": 3,
        "note": 62,
        "velocity": 127
      },
      {
        "type": "midi",
        "subType": "noteOff",
        "typeByte": 147,
        "deltaTime": 379,
        "channel": 3,
        "note": 62,
        "velocity": 0
      },
      {
        "type": "midi",
        "subType": "noteOff",
        "typeByte": 147,
        "deltaTime": 0,
        "channel": 3,
        "note": 66,
        "velocity": 0
      },
      {
        "type": "midi",
        "subType": "noteOff",
        "typeByte": 147,
        "deltaTime": 0,
        "channel": 3,
        "note": 59,
        "velocity": 0
      },
      {
        "type": "midi",
        "subType": "noteOn",
        "typeByte": 147,
        "deltaTime": 5,
        "channel": 3,
        "note": 68,
        "velocity": 127
      },
      {
        "type": "midi",
        "subType": "noteOn",
        "typeByte": 147,
        "deltaTime": 0,
        "channel": 3,
        "note": 59,
        "velocity": 120
      },
      {
        "type": "midi",
        "subType": "noteOn",
        "typeByte": 147,
        "deltaTime": 1,
        "channel": 3,
        "note": 64,
        "velocity": 127
      },
      {
        "type": "midi",
        "subType": "noteOff",
        "typeByte": 147,
        "deltaTime": 379,
        "channel": 3,
        "note": 64,
        "velocity": 0
      },
      {
        "type": "midi",
        "subType": "noteOff",
        "typeByte": 147,
        "deltaTime": 0,
        "channel": 3,
        "note": 59,
        "velocity": 0
      },
      {
        "type": "midi",
        "subType": "noteOff",
        "typeByte": 147,
        "deltaTime": 0,
        "channel": 3,
        "note": 68,
        "velocity": 0
      },
      {
        "type": "midi",
        "subType": "noteOn",
        "typeByte": 147,
        "deltaTime": 5,
        "channel": 3,
        "note": 57,
        "velocity": 127
      },
      {
        "type": "midi",
        "subType": "noteOn",
        "typeByte": 147,
        "deltaTime": 0,
        "channel": 3,
        "note": 64,
        "velocity": 127
      },
      {
        "type": "midi",
        "subType": "noteOn",
        "typeByte": 147,
        "deltaTime": 1,
        "channel": 3,
        "note": 61,
        "velocity": 127
      },
      {
        "type": "midi",
        "subType": "noteOff",
        "typeByte": 147,
        "deltaTime": 379,
        "channel": 3,
        "note": 61,
        "velocity": 0
      },
      {
        "type": "midi",
        "subType": "noteOff",
        "typeByte": 147,
        "deltaTime": 0,
        "channel": 3,
        "note": 64,
        "velocity": 0
      },
      {
        "type": "midi",
        "subType": "noteOff",
        "typeByte": 147,
        "deltaTime": 0,
        "channel": 3,
        "note": 57,
        "velocity": 0
      },
      {
        "type": "midi",
        "subType": "noteOn",
        "typeByte": 147,
        "deltaTime": 5,
        "channel": 3,
        "note": 62,
        "velocity": 127
      },
      {
        "type": "midi",
        "subType": "noteOn",
        "typeByte": 147,
        "deltaTime": 1,
        "channel": 3,
        "note": 66,
        "velocity": 127
      },
      {
        "type": "midi",
        "subType": "noteOn",
        "typeByte": 147,
        "deltaTime": 0,
        "channel": 3,
        "note": 57,
        "velocity": 122
      },
      {
        "type": "midi",
        "subType": "noteOff",
        "typeByte": 147,
        "deltaTime": 380,
        "channel": 3,
        "note": 57,
        "velocity": 0
      },
      {
        "type": "midi",
        "subType": "noteOff",
        "typeByte": 147,
        "deltaTime": 0,
        "channel": 3,
        "note": 66,
        "velocity": 0
      },
      {
        "type": "midi",
        "subType": "noteOff",
        "typeByte": 147,
        "deltaTime": 0,
        "channel": 3,
        "note": 62,
        "velocity": 0
      },
      {
        "type": "midi",
        "subType": "noteOn",
        "typeByte": 147,
        "deltaTime": 5,
        "channel": 3,
        "note": 59,
        "velocity": 127
      },
      {
        "type": "midi",
        "subType": "noteOn",
        "typeByte": 147,
        "deltaTime": 0,
        "channel": 3,
        "note": 66,
        "velocity": 127
      },
      {
        "type": "midi",
        "subType": "noteOn",
        "typeByte": 147,
        "deltaTime": 0,
        "channel": 3,
        "note": 62,
        "velocity": 127
      },
      {
        "type": "midi",
        "subType": "noteOff",
        "typeByte": 147,
        "deltaTime": 380,
        "channel": 3,
        "note": 62,
        "velocity": 0
      },
      {
        "type": "midi",
        "subType": "noteOff",
        "typeByte": 147,
        "deltaTime": 0,
        "channel": 3,
        "note": 66,
        "velocity": 0
      },
      {
        "type": "midi",
        "subType": "noteOff",
        "typeByte": 147,
        "deltaTime": 0,
        "channel": 3,
        "note": 59,
        "velocity": 0
      },
      {
        "type": "midi",
        "subType": "noteOn",
        "typeByte": 147,
        "deltaTime": 5,
        "channel": 3,
        "note": 68,
        "velocity": 127
      },
      {
        "type": "midi",
        "subType": "noteOn",
        "typeByte": 147,
        "deltaTime": 0,
        "channel": 3,
        "note": 59,
        "velocity": 120
      },
      {
        "type": "midi",
        "subType": "noteOn",
        "typeByte": 147,
        "deltaTime": 0,
        "channel": 3,
        "note": 64,
        "velocity": 127
      },
      {
        "type": "midi",
        "subType": "noteOff",
        "typeByte": 147,
        "deltaTime": 380,
        "channel": 3,
        "note": 64,
        "velocity": 0
      },
      {
        "type": "midi",
        "subType": "noteOff",
        "typeByte": 147,
        "deltaTime": 0,
        "channel": 3,
        "note": 59,
        "velocity": 0
      },
      {
        "type": "midi",
        "subType": "noteOff",
        "typeByte": 147,
        "deltaTime": 0,
        "channel": 3,
        "note": 68,
        "velocity": 0
      },
      {
        "type": "midi",
        "subType": "noteOn",
        "typeByte": 147,
        "deltaTime": 5,
        "channel": 3,
        "note": 57,
        "velocity": 127
      },
      {
        "type": "midi",
        "subType": "noteOn",
        "typeByte": 147,
        "deltaTime": 0,
        "channel": 3,
        "note": 64,
        "velocity": 127
      },
      {
        "type": "midi",
        "subType": "noteOn",
        "typeByte": 147,
        "deltaTime": 1,
        "channel": 3,
        "note": 61,
        "velocity": 127
      },
      {
        "type": "midi",
        "subType": "noteOff",
        "typeByte": 147,
        "deltaTime": 379,
        "channel": 3,
        "note": 61,
        "velocity": 0
      },
      {
        "type": "midi",
        "subType": "noteOff",
        "typeByte": 147,
        "deltaTime": 0,
        "channel": 3,
        "note": 64,
        "velocity": 0
      },
      {
        "type": "midi",
        "subType": "noteOff",
        "typeByte": 147,
        "deltaTime": 0,
        "channel": 3,
        "note": 57,
        "velocity": 0
      },
      {
        "type": "midi",
        "subType": "noteOn",
        "typeByte": 147,
        "deltaTime": 5,
        "channel": 3,
        "note": 62,
        "velocity": 127
      },
      {
        "type": "midi",
        "subType": "noteOn",
        "typeByte": 147,
        "deltaTime": 0,
        "channel": 3,
        "note": 66,
        "velocity": 127
      },
      {
        "type": "midi",
        "subType": "noteOn",
        "typeByte": 147,
        "deltaTime": 1,
        "channel": 3,
        "note": 57,
        "velocity": 122
      },
      {
        "type": "midi",
        "subType": "noteOff",
        "typeByte": 147,
        "deltaTime": 379,
        "channel": 3,
        "note": 57,
        "velocity": 0
      },
      {
        "type": "midi",
        "subType": "noteOff",
        "typeByte": 147,
        "deltaTime": 0,
        "channel": 3,
        "note": 66,
        "velocity": 0
      },
      {
        "type": "midi",
        "subType": "noteOff",
        "typeByte": 147,
        "deltaTime": 0,
        "channel": 3,
        "note": 62,
        "velocity": 0
      },
      {
        "type": "midi",
        "subType": "noteOn",
        "typeByte": 147,
        "deltaTime": 5,
        "channel": 3,
        "note": 59,
        "velocity": 127
      },
      {
        "type": "midi",
        "subType": "noteOn",
        "typeByte": 147,
        "deltaTime": 0,
        "channel": 3,
        "note": 62,
        "velocity": 127
      },
      {
        "type": "midi",
        "subType": "noteOn",
        "typeByte": 147,
        "deltaTime": 1,
        "channel": 3,
        "note": 66,
        "velocity": 127
      },
      {
        "type": "midi",
        "subType": "noteOff",
        "typeByte": 147,
        "deltaTime": 379,
        "channel": 3,
        "note": 66,
        "velocity": 0
      },
      {
        "type": "midi",
        "subType": "noteOff",
        "typeByte": 147,
        "deltaTime": 0,
        "channel": 3,
        "note": 62,
        "velocity": 0
      },
      {
        "type": "midi",
        "subType": "noteOff",
        "typeByte": 147,
        "deltaTime": 0,
        "channel": 3,
        "note": 59,
        "velocity": 0
      },
      {
        "type": "midi",
        "subType": "noteOn",
        "typeByte": 147,
        "deltaTime": 5,
        "channel": 3,
        "note": 64,
        "velocity": 127
      },
      {
        "type": "midi",
        "subType": "noteOn",
        "typeByte": 147,
        "deltaTime": 1,
        "channel": 3,
        "note": 59,
        "velocity": 127
      },
      {
        "type": "midi",
        "subType": "noteOn",
        "typeByte": 147,
        "deltaTime": 0,
        "channel": 3,
        "note": 68,
        "velocity": 127
      },
      {
        "type": "midi",
        "subType": "noteOff",
        "typeByte": 147,
        "deltaTime": 380,
        "channel": 3,
        "note": 68,
        "velocity": 0
      },
      {
        "type": "midi",
        "subType": "noteOff",
        "typeByte": 147,
        "deltaTime": 0,
        "channel": 3,
        "note": 59,
        "velocity": 0
      },
      {
        "type": "midi",
        "subType": "noteOff",
        "typeByte": 147,
        "deltaTime": 0,
        "channel": 3,
        "note": 64,
        "velocity": 0
      },
      {
        "type": "midi",
        "subType": "noteOn",
        "typeByte": 147,
        "deltaTime": 4,
        "channel": 3,
        "note": 61,
        "velocity": 127
      },
      {
        "type": "midi",
        "subType": "noteOn",
        "typeByte": 147,
        "deltaTime": 1,
        "channel": 3,
        "note": 66,
        "velocity": 127
      },
      {
        "type": "midi",
        "subType": "noteOn",
        "typeByte": 147,
        "deltaTime": 0,
        "channel": 3,
        "note": 69,
        "velocity": 127
      },
      {
        "type": "midi",
        "subType": "noteOff",
        "typeByte": 147,
        "deltaTime": 380,
        "channel": 3,
        "note": 69,
        "velocity": 0
      },
      {
        "type": "midi",
        "subType": "noteOff",
        "typeByte": 147,
        "deltaTime": 0,
        "channel": 3,
        "note": 66,
        "velocity": 0
      },
      {
        "type": "midi",
        "subType": "noteOff",
        "typeByte": 147,
        "deltaTime": 0,
        "channel": 3,
        "note": 61,
        "velocity": 0
      },
      {
        "type": "midi",
        "subType": "noteOn",
        "typeByte": 147,
        "deltaTime": 5,
        "channel": 3,
        "note": 62,
        "velocity": 127
      },
      {
        "type": "midi",
        "subType": "noteOn",
        "typeByte": 147,
        "deltaTime": 0,
        "channel": 3,
        "note": 66,
        "velocity": 127
      },
      {
        "type": "midi",
        "subType": "noteOn",
        "typeByte": 147,
        "deltaTime": 1,
        "channel": 3,
        "note": 69,
        "velocity": 127
      },
      {
        "type": "midi",
        "subType": "noteOff",
        "typeByte": 147,
        "deltaTime": 379,
        "channel": 3,
        "note": 69,
        "velocity": 0
      },
      {
        "type": "midi",
        "subType": "noteOff",
        "typeByte": 147,
        "deltaTime": 0,
        "channel": 3,
        "note": 66,
        "velocity": 0
      },
      {
        "type": "midi",
        "subType": "noteOff",
        "typeByte": 147,
        "deltaTime": 0,
        "channel": 3,
        "note": 62,
        "velocity": 0
      },
      {
        "type": "midi",
        "subType": "controller",
        "typeByte": 179,
        "deltaTime": 5,
        "channel": 3,
        "controllerType": 7,
        "value": 55
      },
      {
        "type": "midi",
        "subType": "noteOn",
        "typeByte": 147,
        "deltaTime": 1,
        "channel": 3,
        "note": 61,
        "velocity": 127
      },
      {
        "type": "midi",
        "subType": "noteOn",
        "typeByte": 147,
        "deltaTime": 0,
        "channel": 3,
        "note": 69,
        "velocity": 127
      },
      {
        "type": "midi",
        "subType": "noteOn",
        "typeByte": 147,
        "deltaTime": 0,
        "channel": 3,
        "note": 64,
        "velocity": 127
      },
      {
        "type": "midi",
        "subType": "noteOff",
        "typeByte": 147,
        "deltaTime": 380,
        "channel": 3,
        "note": 69,
        "velocity": 0
      },
      {
        "type": "midi",
        "subType": "noteOff",
        "typeByte": 147,
        "deltaTime": 0,
        "channel": 3,
        "note": 61,
        "velocity": 0
      },
      {
        "type": "midi",
        "subType": "noteOn",
        "typeByte": 147,
        "deltaTime": 4,
        "channel": 3,
        "note": 68,
        "velocity": 127
      },
      {
        "type": "midi",
        "subType": "noteOn",
        "typeByte": 147,
        "deltaTime": 0,
        "channel": 3,
        "note": 59,
        "velocity": 127
      },
      {
        "type": "midi",
        "subType": "noteOff",
        "typeByte": 147,
        "deltaTime": 381,
        "channel": 3,
        "note": 59,
        "velocity": 0
      },
      {
        "type": "midi",
        "subType": "noteOff",
        "typeByte": 147,
        "deltaTime": 0,
        "channel": 3,
        "note": 68,
        "velocity": 0
      },
      {
        "type": "midi",
        "subType": "noteOff",
        "typeByte": 147,
        "deltaTime": 0,
        "channel": 3,
        "note": 64,
        "velocity": 0
      },
      {
        "type": "midi",
        "subType": "noteOn",
        "typeByte": 147,
        "deltaTime": 4,
        "channel": 3,
        "note": 69,
        "velocity": 127
      },
      {
        "type": "midi",
        "subType": "noteOn",
        "typeByte": 147,
        "deltaTime": 0,
        "channel": 3,
        "note": 61,
        "velocity": 127
      },
      {
        "type": "midi",
        "subType": "noteOn",
        "typeByte": 147,
        "deltaTime": 1,
        "channel": 3,
        "note": 66,
        "velocity": 127
      },
      {
        "type": "midi",
        "subType": "noteOff",
        "typeByte": 147,
        "deltaTime": 765,
        "channel": 3,
        "note": 66,
        "velocity": 0
      },
      {
        "type": "midi",
        "subType": "noteOff",
        "typeByte": 147,
        "deltaTime": 0,
        "channel": 3,
        "note": 61,
        "velocity": 0
      },
      {
        "type": "midi",
        "subType": "noteOff",
        "typeByte": 147,
        "deltaTime": 0,
        "channel": 3,
        "note": 69,
        "velocity": 0
      },
      {
        "type": "midi",
        "subType": "noteOn",
        "typeByte": 147,
        "deltaTime": 5,
        "channel": 3,
        "note": 64,
        "velocity": 127
      },
      {
        "type": "midi",
        "subType": "noteOn",
        "typeByte": 147,
        "deltaTime": 0,
        "channel": 3,
        "note": 73,
        "velocity": 127
      },
      {
        "type": "midi",
        "subType": "noteOn",
        "typeByte": 147,
        "deltaTime": 1,
        "channel": 3,
        "note": 69,
        "velocity": 127
      },
      {
        "type": "midi",
        "subType": "noteOff",
        "typeByte": 147,
        "deltaTime": 380,
        "channel": 3,
        "note": 69,
        "velocity": 0
      },
      {
        "type": "midi",
        "subType": "noteOff",
        "typeByte": 147,
        "deltaTime": 0,
        "channel": 3,
        "note": 73,
        "velocity": 0
      },
      {
        "type": "midi",
        "subType": "noteOff",
        "typeByte": 147,
        "deltaTime": 0,
        "channel": 3,
        "note": 64,
        "velocity": 0
      },
      {
        "type": "midi",
        "subType": "noteOn",
        "typeByte": 147,
        "deltaTime": 4,
        "channel": 3,
        "note": 71,
        "velocity": 119
      },
      {
        "type": "midi",
        "subType": "noteOn",
        "typeByte": 147,
        "deltaTime": 0,
        "channel": 3,
        "note": 68,
        "velocity": 127
      },
      {
        "type": "midi",
        "subType": "noteOn",
        "typeByte": 147,
        "deltaTime": 0,
        "channel": 3,
        "note": 76,
        "velocity": 127
      },
      {
        "type": "midi",
        "subType": "noteOff",
        "typeByte": 147,
        "deltaTime": 380,
        "channel": 3,
        "note": 71,
        "velocity": 0
      },
      {
        "type": "midi",
        "subType": "noteOff",
        "typeByte": 147,
        "deltaTime": 1,
        "channel": 3,
        "note": 76,
        "velocity": 0
      },
      {
        "type": "midi",
        "subType": "noteOff",
        "typeByte": 147,
        "deltaTime": 0,
        "channel": 3,
        "note": 68,
        "velocity": 0
      },
      {
        "type": "midi",
        "subType": "noteOn",
        "typeByte": 147,
        "deltaTime": 4,
        "channel": 3,
        "note": 78,
        "velocity": 127
      },
      {
        "type": "midi",
        "subType": "noteOn",
        "typeByte": 147,
        "deltaTime": 0,
        "channel": 3,
        "note": 73,
        "velocity": 127
      },
      {
        "type": "midi",
        "subType": "noteOn",
        "typeByte": 147,
        "deltaTime": 0,
        "channel": 3,
        "note": 69,
        "velocity": 127
      },
      {
        "type": "midi",
        "subType": "noteOff",
        "typeByte": 147,
        "deltaTime": 766,
        "channel": 3,
        "note": 69,
        "velocity": 0
      },
      {
        "type": "midi",
        "subType": "noteOff",
        "typeByte": 147,
        "deltaTime": 0,
        "channel": 3,
        "note": 73,
        "velocity": 0
      },
      {
        "type": "midi",
        "subType": "noteOff",
        "typeByte": 147,
        "deltaTime": 0,
        "channel": 3,
        "note": 78,
        "velocity": 0
      },
      {
        "type": "midi",
        "subType": "noteOn",
        "typeByte": 147,
        "deltaTime": 5,
        "channel": 3,
        "note": 49,
        "velocity": 127
      },
      {
        "type": "midi",
        "subType": "noteOn",
        "typeByte": 147,
        "deltaTime": 0,
        "channel": 3,
        "note": 61,
        "velocity": 127
      },
      {
        "type": "midi",
        "subType": "noteOff",
        "typeByte": 147,
        "deltaTime": 380,
        "channel": 3,
        "note": 61,
        "velocity": 0
      },
      {
        "type": "midi",
        "subType": "noteOff",
        "typeByte": 147,
        "deltaTime": 0,
        "channel": 3,
        "note": 49,
        "velocity": 0
      },
      {
        "type": "midi",
        "subType": "noteOn",
        "typeByte": 147,
        "deltaTime": 4,
        "channel": 3,
        "note": 52,
        "velocity": 127
      },
      {
        "type": "midi",
        "subType": "noteOn",
        "typeByte": 147,
        "deltaTime": 0,
        "channel": 3,
        "note": 64,
        "velocity": 127
      },
      {
        "type": "midi",
        "subType": "noteOff",
        "typeByte": 147,
        "deltaTime": 381,
        "channel": 3,
        "note": 64,
        "velocity": 0
      },
      {
        "type": "midi",
        "subType": "noteOff",
        "typeByte": 147,
        "deltaTime": 0,
        "channel": 3,
        "note": 52,
        "velocity": 0
      },
      {
        "type": "midi",
        "subType": "noteOn",
        "typeByte": 147,
        "deltaTime": 4,
        "channel": 3,
        "note": 54,
        "velocity": 127
      },
      {
        "type": "midi",
        "subType": "noteOn",
        "typeByte": 147,
        "deltaTime": 1,
        "channel": 3,
        "note": 66,
        "velocity": 127
      },
      {
        "type": "midi",
        "subType": "noteOff",
        "typeByte": 147,
        "deltaTime": 765,
        "channel": 3,
        "note": 66,
        "velocity": 0
      },
      {
        "type": "midi",
        "subType": "noteOff",
        "typeByte": 147,
        "deltaTime": 0,
        "channel": 3,
        "note": 54,
        "velocity": 0
      },
      {
        "type": "midi",
        "subType": "controller",
        "typeByte": 179,
        "deltaTime": 2292,
        "channel": 3,
        "controllerType": 7,
        "value": 76
      },
      {
        "type": "midi",
        "subType": "noteOn",
        "typeByte": 147,
        "deltaTime": 18,
        "channel": 3,
        "note": 67,
        "velocity": 127
      },
      {
        "type": "midi",
        "subType": "noteOn",
        "typeByte": 147,
        "deltaTime": 0,
        "channel": 3,
        "note": 71,
        "velocity": 127
      },
      {
        "type": "midi",
        "subType": "noteOff",
        "typeByte": 147,
        "deltaTime": 290,
        "channel": 3,
        "note": 67,
        "velocity": 0
      },
      {
        "type": "midi",
        "subType": "noteOff",
        "typeByte": 147,
        "deltaTime": 3,
        "channel": 3,
        "note": 71,
        "velocity": 0
      },
      {
        "type": "midi",
        "subType": "controller",
        "typeByte": 179,
        "deltaTime": 435,
        "channel": 3,
        "controllerType": 7,
        "value": 70
      },
      {
        "type": "midi",
        "subType": "noteOn",
        "typeByte": 147,
        "deltaTime": 48,
        "channel": 3,
        "note": 49,
        "velocity": 127
      },
      {
        "type": "midi",
        "subType": "noteOn",
        "typeByte": 147,
        "deltaTime": 0,
        "channel": 3,
        "note": 37,
        "velocity": 127
      },
      {
        "type": "midi",
        "subType": "noteOn",
        "typeByte": 147,
        "deltaTime": 1,
        "channel": 3,
        "note": 61,
        "velocity": 127
      },
      {
        "type": "midi",
        "subType": "noteOff",
        "typeByte": 147,
        "deltaTime": 9,
        "channel": 3,
        "note": 61,
        "velocity": 0
      },
      {
        "type": "midi",
        "subType": "noteOn",
        "typeByte": 147,
        "deltaTime": 39,
        "channel": 3,
        "note": 61,
        "velocity": 127
      },
      {
        "type": "midi",
        "subType": "noteOn",
        "typeByte": 147,
        "deltaTime": 144,
        "channel": 3,
        "note": 56,
        "velocity": 127
      },
      {
        "type": "midi",
        "subType": "noteOff",
        "typeByte": 147,
        "deltaTime": 185,
        "channel": 3,
        "note": 56,
        "velocity": 0
      },
      {
        "type": "midi",
        "subType": "noteOn",
        "typeByte": 147,
        "deltaTime": 7,
        "channel": 3,
        "note": 64,
        "velocity": 127
      },
      {
        "type": "midi",
        "subType": "noteOff",
        "typeByte": 147,
        "deltaTime": 285,
        "channel": 3,
        "note": 64,
        "velocity": 0
      },
      {
        "type": "midi",
        "subType": "noteOn",
        "typeByte": 147,
        "deltaTime": 4,
        "channel": 3,
        "note": 68,
        "velocity": 127
      },
      {
        "type": "midi",
        "subType": "noteOff",
        "typeByte": 147,
        "deltaTime": 53,
        "channel": 3,
        "note": 61,
        "velocity": 0
      },
      {
        "type": "midi",
        "subType": "noteOff",
        "typeByte": 147,
        "deltaTime": 39,
        "channel": 3,
        "note": 68,
        "velocity": 0
      },
      {
        "type": "midi",
        "subType": "noteOff",
        "typeByte": 147,
        "deltaTime": 0,
        "channel": 3,
        "note": 49,
        "velocity": 0
      },
      {
        "type": "midi",
        "subType": "noteOff",
        "typeByte": 147,
        "deltaTime": 5,
        "channel": 3,
        "note": 37,
        "velocity": 0
      },
      {
        "type": "midi",
        "subType": "noteOn",
        "typeByte": 147,
        "deltaTime": 0,
        "channel": 3,
        "note": 43,
        "velocity": 127
      },
      {
        "type": "midi",
        "subType": "noteOn",
        "typeByte": 147,
        "deltaTime": 0,
        "channel": 3,
        "note": 67,
        "velocity": 127
      },
      {
        "type": "midi",
        "subType": "noteOn",
        "typeByte": 147,
        "deltaTime": 0,
        "channel": 3,
        "note": 62,
        "velocity": 127
      },
      {
        "type": "midi",
        "subType": "noteOn",
        "typeByte": 147,
        "deltaTime": 1,
        "channel": 3,
        "note": 31,
        "velocity": 127
      },
      {
        "type": "midi",
        "subType": "noteOff",
        "typeByte": 147,
        "deltaTime": 764,
        "channel": 3,
        "note": 31,
        "velocity": 0
      },
      {
        "type": "midi",
        "subType": "noteOff",
        "typeByte": 147,
        "deltaTime": 0,
        "channel": 3,
        "note": 43,
        "velocity": 0
      },
      {
        "type": "midi",
        "subType": "noteOff",
        "typeByte": 147,
        "deltaTime": 0,
        "channel": 3,
        "note": 67,
        "velocity": 0
      },
      {
        "type": "midi",
        "subType": "noteOff",
        "typeByte": 147,
        "deltaTime": 0,
        "channel": 3,
        "note": 62,
        "velocity": 0
      },
      {
        "type": "midi",
        "subType": "noteOn",
        "typeByte": 147,
        "deltaTime": 5,
        "channel": 3,
        "note": 66,
        "velocity": 127
      },
      {
        "type": "midi",
        "subType": "noteOn",
        "typeByte": 147,
        "deltaTime": 0,
        "channel": 3,
        "note": 62,
        "velocity": 127
      },
      {
        "type": "midi",
        "subType": "noteOn",
        "typeByte": 147,
        "deltaTime": 0,
        "channel": 3,
        "note": 71,
        "velocity": 127
      },
      {
        "type": "midi",
        "subType": "noteOn",
        "typeByte": 147,
        "deltaTime": 1,
        "channel": 3,
        "note": 47,
        "velocity": 127
      },
      {
        "type": "midi",
        "subType": "noteOn",
        "typeByte": 147,
        "deltaTime": 1,
        "channel": 3,
        "note": 35,
        "velocity": 127
      },
      {
        "type": "midi",
        "subType": "noteOff",
        "typeByte": 147,
        "deltaTime": 759,
        "channel": 3,
        "note": 71,
        "velocity": 0
      },
      {
        "type": "midi",
        "subType": "noteOff",
        "typeByte": 147,
        "deltaTime": 0,
        "channel": 3,
        "note": 66,
        "velocity": 0
      },
      {
        "type": "midi",
        "subType": "noteOff",
        "typeByte": 147,
        "deltaTime": 0,
        "channel": 3,
        "note": 62,
        "velocity": 0
      },
      {
        "type": "midi",
        "subType": "noteOff",
        "typeByte": 147,
        "deltaTime": 4,
        "channel": 3,
        "note": 35,
        "velocity": 0
      },
      {
        "type": "midi",
        "subType": "noteOff",
        "typeByte": 147,
        "deltaTime": 1,
        "channel": 3,
        "note": 47,
        "velocity": 0
      },
      {
        "type": "midi",
        "subType": "noteOn",
        "typeByte": 147,
        "deltaTime": 4,
        "channel": 3,
        "note": 64,
        "velocity": 127
      },
      {
        "type": "midi",
        "subType": "noteOn",
        "typeByte": 147,
        "deltaTime": 1,
        "channel": 3,
        "note": 71,
        "velocity": 127
      },
      {
        "type": "midi",
        "subType": "noteOn",
        "typeByte": 147,
        "deltaTime": 0,
        "channel": 3,
        "note": 52,
        "velocity": 127
      },
      {
        "type": "midi",
        "subType": "noteOn",
        "typeByte": 147,
        "deltaTime": 0,
        "channel": 3,
        "note": 68,
        "velocity": 127
      },
      {
        "type": "midi",
        "subType": "noteOn",
        "typeByte": 147,
        "deltaTime": 1,
        "channel": 3,
        "note": 40,
        "velocity": 127
      },
      {
        "type": "midi",
        "subType": "noteOff",
        "typeByte": 147,
        "deltaTime": 760,
        "channel": 3,
        "note": 68,
        "velocity": 0
      },
      {
        "type": "midi",
        "subType": "noteOff",
        "typeByte": 147,
        "deltaTime": 0,
        "channel": 3,
        "note": 71,
        "velocity": 0
      },
      {
        "type": "midi",
        "subType": "noteOff",
        "typeByte": 147,
        "deltaTime": 0,
        "channel": 3,
        "note": 64,
        "velocity": 0
      },
      {
        "type": "midi",
        "subType": "noteOff",
        "typeByte": 147,
        "deltaTime": 4,
        "channel": 3,
        "note": 52,
        "velocity": 0
      },
      {
        "type": "midi",
        "subType": "noteOff",
        "typeByte": 147,
        "deltaTime": 0,
        "channel": 3,
        "note": 40,
        "velocity": 0
      },
      {
        "type": "midi",
        "subType": "controller",
        "typeByte": 179,
        "deltaTime": 1522,
        "channel": 3,
        "controllerType": 7,
        "value": 55
      },
      {
        "type": "midi",
        "subType": "noteOn",
        "typeByte": 147,
        "deltaTime": 24,
        "channel": 3,
        "note": 74,
        "velocity": 127
      },
      {
        "type": "midi",
        "subType": "noteOn",
        "typeByte": 147,
        "deltaTime": 0,
        "channel": 3,
        "note": 78,
        "velocity": 127
      },
      {
        "type": "midi",
        "subType": "noteOn",
        "typeByte": 147,
        "deltaTime": 1,
        "channel": 3,
        "note": 71,
        "velocity": 100
      },
      {
        "type": "midi",
        "subType": "noteOff",
        "typeByte": 147,
        "deltaTime": 379,
        "channel": 3,
        "note": 71,
        "velocity": 0
      },
      {
        "type": "midi",
        "subType": "noteOff",
        "typeByte": 147,
        "deltaTime": 0,
        "channel": 3,
        "note": 78,
        "velocity": 0
      },
      {
        "type": "midi",
        "subType": "noteOff",
        "typeByte": 147,
        "deltaTime": 0,
        "channel": 3,
        "note": 74,
        "velocity": 0
      },
      {
        "type": "midi",
        "subType": "noteOn",
        "typeByte": 147,
        "deltaTime": 5,
        "channel": 3,
        "note": 76,
        "velocity": 121
      },
      {
        "type": "midi",
        "subType": "noteOn",
        "typeByte": 147,
        "deltaTime": 0,
        "channel": 3,
        "note": 71,
        "velocity": 121
      },
      {
        "type": "midi",
        "subType": "noteOn",
        "typeByte": 147,
        "deltaTime": 0,
        "channel": 3,
        "note": 80,
        "velocity": 127
      },
      {
        "type": "midi",
        "subType": "noteOff",
        "typeByte": 147,
        "deltaTime": 380,
        "channel": 3,
        "note": 80,
        "velocity": 0
      },
      {
        "type": "midi",
        "subType": "noteOff",
        "typeByte": 147,
        "deltaTime": 0,
        "channel": 3,
        "note": 71,
        "velocity": 0
      },
      {
        "type": "midi",
        "subType": "noteOff",
        "typeByte": 147,
        "deltaTime": 0,
        "channel": 3,
        "note": 76,
        "velocity": 0
      },
      {
        "type": "midi",
        "subType": "noteOn",
        "typeByte": 147,
        "deltaTime": 6,
        "channel": 3,
        "note": 76,
        "velocity": 127
      },
      {
        "type": "midi",
        "subType": "noteOn",
        "typeByte": 147,
        "deltaTime": 0,
        "channel": 3,
        "note": 81,
        "velocity": 127
      },
      {
        "type": "midi",
        "subType": "noteOn",
        "typeByte": 147,
        "deltaTime": 0,
        "channel": 3,
        "note": 73,
        "velocity": 127
      },
      {
        "type": "midi",
        "subType": "noteOff",
        "typeByte": 147,
        "deltaTime": 379,
        "channel": 3,
        "note": 73,
        "velocity": 0
      },
      {
        "type": "midi",
        "subType": "noteOff",
        "typeByte": 147,
        "deltaTime": 0,
        "channel": 3,
        "note": 81,
        "velocity": 0
      },
      {
        "type": "midi",
        "subType": "noteOff",
        "typeByte": 147,
        "deltaTime": 0,
        "channel": 3,
        "note": 76,
        "velocity": 0
      },
      {
        "type": "midi",
        "subType": "noteOn",
        "typeByte": 147,
        "deltaTime": 5,
        "channel": 3,
        "note": 78,
        "velocity": 127
      },
      {
        "type": "midi",
        "subType": "noteOn",
        "typeByte": 147,
        "deltaTime": 0,
        "channel": 3,
        "note": 74,
        "velocity": 127
      },
      {
        "type": "midi",
        "subType": "noteOn",
        "typeByte": 147,
        "deltaTime": 1,
        "channel": 3,
        "note": 81,
        "velocity": 127
      },
      {
        "type": "midi",
        "subType": "noteOff",
        "typeByte": 147,
        "deltaTime": 380,
        "channel": 3,
        "note": 81,
        "velocity": 0
      },
      {
        "type": "midi",
        "subType": "noteOff",
        "typeByte": 147,
        "deltaTime": 0,
        "channel": 3,
        "note": 74,
        "velocity": 0
      },
      {
        "type": "midi",
        "subType": "noteOff",
        "typeByte": 147,
        "deltaTime": 0,
        "channel": 3,
        "note": 78,
        "velocity": 0
      },
      {
        "type": "midi",
        "subType": "noteOn",
        "typeByte": 147,
        "deltaTime": 5,
        "channel": 3,
        "note": 74,
        "velocity": 127
      },
      {
        "type": "midi",
        "subType": "noteOn",
        "typeByte": 147,
        "deltaTime": 0,
        "channel": 3,
        "note": 78,
        "velocity": 127
      },
      {
        "type": "midi",
        "subType": "noteOn",
        "typeByte": 147,
        "deltaTime": 0,
        "channel": 3,
        "note": 71,
        "velocity": 100
      },
      {
        "type": "midi",
        "subType": "noteOff",
        "typeByte": 147,
        "deltaTime": 379,
        "channel": 3,
        "note": 71,
        "velocity": 0
      },
      {
        "type": "midi",
        "subType": "noteOff",
        "typeByte": 147,
        "deltaTime": 0,
        "channel": 3,
        "note": 78,
        "velocity": 0
      },
      {
        "type": "midi",
        "subType": "noteOff",
        "typeByte": 147,
        "deltaTime": 0,
        "channel": 3,
        "note": 74,
        "velocity": 0
      },
      {
        "type": "midi",
        "subType": "noteOn",
        "typeByte": 147,
        "deltaTime": 5,
        "channel": 3,
        "note": 76,
        "velocity": 121
      },
      {
        "type": "midi",
        "subType": "noteOn",
        "typeByte": 147,
        "deltaTime": 0,
        "channel": 3,
        "note": 71,
        "velocity": 121
      },
      {
        "type": "midi",
        "subType": "noteOn",
        "typeByte": 147,
        "deltaTime": 1,
        "channel": 3,
        "note": 80,
        "velocity": 127
      },
      {
        "type": "midi",
        "subType": "noteOff",
        "typeByte": 147,
        "deltaTime": 380,
        "channel": 3,
        "note": 80,
        "velocity": 0
      },
      {
        "type": "midi",
        "subType": "noteOff",
        "typeByte": 147,
        "deltaTime": 0,
        "channel": 3,
        "note": 71,
        "velocity": 0
      },
      {
        "type": "midi",
        "subType": "noteOff",
        "typeByte": 147,
        "deltaTime": 0,
        "channel": 3,
        "note": 76,
        "velocity": 0
      },
      {
        "type": "midi",
        "subType": "noteOn",
        "typeByte": 147,
        "deltaTime": 5,
        "channel": 3,
        "note": 76,
        "velocity": 127
      },
      {
        "type": "midi",
        "subType": "noteOn",
        "typeByte": 147,
        "deltaTime": 0,
        "channel": 3,
        "note": 81,
        "velocity": 127
      },
      {
        "type": "midi",
        "subType": "noteOn",
        "typeByte": 147,
        "deltaTime": 1,
        "channel": 3,
        "note": 73,
        "velocity": 127
      },
      {
        "type": "midi",
        "subType": "noteOff",
        "typeByte": 147,
        "deltaTime": 379,
        "channel": 3,
        "note": 73,
        "velocity": 0
      },
      {
        "type": "midi",
        "subType": "noteOff",
        "typeByte": 147,
        "deltaTime": 0,
        "channel": 3,
        "note": 81,
        "velocity": 0
      },
      {
        "type": "midi",
        "subType": "noteOff",
        "typeByte": 147,
        "deltaTime": 0,
        "channel": 3,
        "note": 76,
        "velocity": 0
      },
      {
        "type": "midi",
        "subType": "noteOn",
        "typeByte": 147,
        "deltaTime": 5,
        "channel": 3,
        "note": 78,
        "velocity": 127
      },
      {
        "type": "midi",
        "subType": "noteOn",
        "typeByte": 147,
        "deltaTime": 0,
        "channel": 3,
        "note": 74,
        "velocity": 127
      },
      {
        "type": "midi",
        "subType": "noteOn",
        "typeByte": 147,
        "deltaTime": 0,
        "channel": 3,
        "note": 81,
        "velocity": 127
      },
      {
        "type": "midi",
        "subType": "noteOff",
        "typeByte": 147,
        "deltaTime": 381,
        "channel": 3,
        "note": 81,
        "velocity": 0
      },
      {
        "type": "midi",
        "subType": "noteOff",
        "typeByte": 147,
        "deltaTime": 0,
        "channel": 3,
        "note": 74,
        "velocity": 0
      },
      {
        "type": "midi",
        "subType": "noteOff",
        "typeByte": 147,
        "deltaTime": 0,
        "channel": 3,
        "note": 78,
        "velocity": 0
      },
      {
        "type": "midi",
        "subType": "noteOn",
        "typeByte": 147,
        "deltaTime": 5,
        "channel": 3,
        "note": 74,
        "velocity": 127
      },
      {
        "type": "midi",
        "subType": "noteOn",
        "typeByte": 147,
        "deltaTime": 0,
        "channel": 3,
        "note": 78,
        "velocity": 127
      },
      {
        "type": "midi",
        "subType": "noteOn",
        "typeByte": 147,
        "deltaTime": 0,
        "channel": 3,
        "note": 71,
        "velocity": 108
      },
      {
        "type": "midi",
        "subType": "noteOff",
        "typeByte": 147,
        "deltaTime": 379,
        "channel": 3,
        "note": 71,
        "velocity": 0
      },
      {
        "type": "midi",
        "subType": "noteOff",
        "typeByte": 147,
        "deltaTime": 0,
        "channel": 3,
        "note": 78,
        "velocity": 0
      },
      {
        "type": "midi",
        "subType": "noteOff",
        "typeByte": 147,
        "deltaTime": 0,
        "channel": 3,
        "note": 74,
        "velocity": 0
      },
      {
        "type": "midi",
        "subType": "noteOn",
        "typeByte": 147,
        "deltaTime": 5,
        "channel": 3,
        "note": 76,
        "velocity": 127
      },
      {
        "type": "midi",
        "subType": "noteOn",
        "typeByte": 147,
        "deltaTime": 0,
        "channel": 3,
        "note": 71,
        "velocity": 127
      },
      {
        "type": "midi",
        "subType": "noteOn",
        "typeByte": 147,
        "deltaTime": 1,
        "channel": 3,
        "note": 80,
        "velocity": 127
      },
      {
        "type": "midi",
        "subType": "noteOff",
        "typeByte": 147,
        "deltaTime": 379,
        "channel": 3,
        "note": 80,
        "velocity": 0
      },
      {
        "type": "midi",
        "subType": "noteOff",
        "typeByte": 147,
        "deltaTime": 0,
        "channel": 3,
        "note": 71,
        "velocity": 0
      },
      {
        "type": "midi",
        "subType": "noteOff",
        "typeByte": 147,
        "deltaTime": 0,
        "channel": 3,
        "note": 76,
        "velocity": 0
      },
      {
        "type": "midi",
        "subType": "noteOn",
        "typeByte": 147,
        "deltaTime": 6,
        "channel": 3,
        "note": 74,
        "velocity": 127
      },
      {
        "type": "midi",
        "subType": "noteOn",
        "typeByte": 147,
        "deltaTime": 0,
        "channel": 3,
        "note": 78,
        "velocity": 127
      },
      {
        "type": "midi",
        "subType": "noteOn",
        "typeByte": 147,
        "deltaTime": 1,
        "channel": 3,
        "note": 71,
        "velocity": 127
      },
      {
        "type": "midi",
        "subType": "noteOff",
        "typeByte": 147,
        "deltaTime": 379,
        "channel": 3,
        "note": 71,
        "velocity": 0
      },
      {
        "type": "midi",
        "subType": "noteOff",
        "typeByte": 147,
        "deltaTime": 0,
        "channel": 3,
        "note": 78,
        "velocity": 0
      },
      {
        "type": "midi",
        "subType": "noteOff",
        "typeByte": 147,
        "deltaTime": 0,
        "channel": 3,
        "note": 74,
        "velocity": 0
      },
      {
        "type": "midi",
        "subType": "noteOn",
        "typeByte": 147,
        "deltaTime": 4,
        "channel": 3,
        "note": 76,
        "velocity": 127
      },
      {
        "type": "midi",
        "subType": "noteOn",
        "typeByte": 147,
        "deltaTime": 1,
        "channel": 3,
        "note": 71,
        "velocity": 127
      },
      {
        "type": "midi",
        "subType": "noteOn",
        "typeByte": 147,
        "deltaTime": 0,
        "channel": 3,
        "note": 80,
        "velocity": 127
      },
      {
        "type": "midi",
        "subType": "controller",
        "typeByte": 179,
        "deltaTime": 361,
        "channel": 3,
        "controllerType": 7,
        "value": 44
      },
      {
        "type": "midi",
        "subType": "noteOff",
        "typeByte": 147,
        "deltaTime": 19,
        "channel": 3,
        "note": 80,
        "velocity": 0
      },
      {
        "type": "midi",
        "subType": "noteOff",
        "typeByte": 147,
        "deltaTime": 0,
        "channel": 3,
        "note": 71,
        "velocity": 0
      },
      {
        "type": "midi",
        "subType": "noteOff",
        "typeByte": 147,
        "deltaTime": 0,
        "channel": 3,
        "note": 76,
        "velocity": 0
      },
      {
        "type": "midi",
        "subType": "noteOn",
        "typeByte": 147,
        "deltaTime": 5,
        "channel": 3,
        "note": 59,
        "velocity": 127
      },
      {
        "type": "midi",
        "subType": "noteOn",
        "typeByte": 147,
        "deltaTime": 0,
        "channel": 3,
        "note": 66,
        "velocity": 127
      },
      {
        "type": "midi",
        "subType": "noteOn",
        "typeByte": 147,
        "deltaTime": 1,
        "channel": 3,
        "note": 62,
        "velocity": 127
      },
      {
        "type": "midi",
        "subType": "noteOff",
        "typeByte": 147,
        "deltaTime": 379,
        "channel": 3,
        "note": 62,
        "velocity": 0
      },
      {
        "type": "midi",
        "subType": "noteOff",
        "typeByte": 147,
        "deltaTime": 0,
        "channel": 3,
        "note": 66,
        "velocity": 0
      },
      {
        "type": "midi",
        "subType": "noteOff",
        "typeByte": 147,
        "deltaTime": 0,
        "channel": 3,
        "note": 59,
        "velocity": 0
      },
      {
        "type": "midi",
        "subType": "noteOn",
        "typeByte": 147,
        "deltaTime": 5,
        "channel": 3,
        "note": 68,
        "velocity": 127
      },
      {
        "type": "midi",
        "subType": "noteOn",
        "typeByte": 147,
        "deltaTime": 0,
        "channel": 3,
        "note": 59,
        "velocity": 120
      },
      {
        "type": "midi",
        "subType": "noteOn",
        "typeByte": 147,
        "deltaTime": 1,
        "channel": 3,
        "note": 64,
        "velocity": 127
      },
      {
        "type": "midi",
        "subType": "noteOff",
        "typeByte": 147,
        "deltaTime": 379,
        "channel": 3,
        "note": 64,
        "velocity": 0
      },
      {
        "type": "midi",
        "subType": "noteOff",
        "typeByte": 147,
        "deltaTime": 0,
        "channel": 3,
        "note": 59,
        "velocity": 0
      },
      {
        "type": "midi",
        "subType": "noteOff",
        "typeByte": 147,
        "deltaTime": 0,
        "channel": 3,
        "note": 68,
        "velocity": 0
      },
      {
        "type": "midi",
        "subType": "noteOn",
        "typeByte": 147,
        "deltaTime": 5,
        "channel": 3,
        "note": 57,
        "velocity": 127
      },
      {
        "type": "midi",
        "subType": "noteOn",
        "typeByte": 147,
        "deltaTime": 0,
        "channel": 3,
        "note": 64,
        "velocity": 127
      },
      {
        "type": "midi",
        "subType": "noteOn",
        "typeByte": 147,
        "deltaTime": 1,
        "channel": 3,
        "note": 61,
        "velocity": 127
      },
      {
        "type": "midi",
        "subType": "noteOff",
        "typeByte": 147,
        "deltaTime": 379,
        "channel": 3,
        "note": 57,
        "velocity": 0
      },
      {
        "type": "midi",
        "subType": "noteOff",
        "typeByte": 147,
        "deltaTime": 1,
        "channel": 3,
        "note": 61,
        "velocity": 0
      },
      {
        "type": "midi",
        "subType": "noteOff",
        "typeByte": 147,
        "deltaTime": 0,
        "channel": 3,
        "note": 64,
        "velocity": 0
      },
      {
        "type": "midi",
        "subType": "noteOn",
        "typeByte": 147,
        "deltaTime": 4,
        "channel": 3,
        "note": 62,
        "velocity": 127
      },
      {
        "type": "midi",
        "subType": "noteOn",
        "typeByte": 147,
        "deltaTime": 1,
        "channel": 3,
        "note": 66,
        "velocity": 127
      },
      {
        "type": "midi",
        "subType": "noteOn",
        "typeByte": 147,
        "deltaTime": 0,
        "channel": 3,
        "note": 57,
        "velocity": 122
      },
      {
        "type": "midi",
        "subType": "noteOff",
        "typeByte": 147,
        "deltaTime": 380,
        "channel": 3,
        "note": 57,
        "velocity": 0
      },
      {
        "type": "midi",
        "subType": "noteOff",
        "typeByte": 147,
        "deltaTime": 0,
        "channel": 3,
        "note": 66,
        "velocity": 0
      },
      {
        "type": "midi",
        "subType": "noteOff",
        "typeByte": 147,
        "deltaTime": 0,
        "channel": 3,
        "note": 62,
        "velocity": 0
      },
      {
        "type": "midi",
        "subType": "noteOn",
        "typeByte": 147,
        "deltaTime": 5,
        "channel": 3,
        "note": 59,
        "velocity": 127
      },
      {
        "type": "midi",
        "subType": "noteOn",
        "typeByte": 147,
        "deltaTime": 0,
        "channel": 3,
        "note": 66,
        "velocity": 127
      },
      {
        "type": "midi",
        "subType": "noteOn",
        "typeByte": 147,
        "deltaTime": 0,
        "channel": 3,
        "note": 62,
        "velocity": 127
      },
      {
        "type": "midi",
        "subType": "noteOff",
        "typeByte": 147,
        "deltaTime": 380,
        "channel": 3,
        "note": 62,
        "velocity": 0
      },
      {
        "type": "midi",
        "subType": "noteOff",
        "typeByte": 147,
        "deltaTime": 0,
        "channel": 3,
        "note": 66,
        "velocity": 0
      },
      {
        "type": "midi",
        "subType": "noteOff",
        "typeByte": 147,
        "deltaTime": 0,
        "channel": 3,
        "note": 59,
        "velocity": 0
      },
      {
        "type": "midi",
        "subType": "noteOn",
        "typeByte": 147,
        "deltaTime": 5,
        "channel": 3,
        "note": 68,
        "velocity": 127
      },
      {
        "type": "midi",
        "subType": "noteOn",
        "typeByte": 147,
        "deltaTime": 0,
        "channel": 3,
        "note": 59,
        "velocity": 120
      },
      {
        "type": "midi",
        "subType": "noteOn",
        "typeByte": 147,
        "deltaTime": 0,
        "channel": 3,
        "note": 64,
        "velocity": 127
      },
      {
        "type": "midi",
        "subType": "noteOff",
        "typeByte": 147,
        "deltaTime": 380,
        "channel": 3,
        "note": 64,
        "velocity": 0
      },
      {
        "type": "midi",
        "subType": "noteOff",
        "typeByte": 147,
        "deltaTime": 0,
        "channel": 3,
        "note": 59,
        "velocity": 0
      },
      {
        "type": "midi",
        "subType": "noteOff",
        "typeByte": 147,
        "deltaTime": 0,
        "channel": 3,
        "note": 68,
        "velocity": 0
      },
      {
        "type": "midi",
        "subType": "noteOn",
        "typeByte": 147,
        "deltaTime": 5,
        "channel": 3,
        "note": 57,
        "velocity": 127
      },
      {
        "type": "midi",
        "subType": "noteOn",
        "typeByte": 147,
        "deltaTime": 0,
        "channel": 3,
        "note": 64,
        "velocity": 127
      },
      {
        "type": "midi",
        "subType": "noteOn",
        "typeByte": 147,
        "deltaTime": 1,
        "channel": 3,
        "note": 61,
        "velocity": 127
      },
      {
        "type": "midi",
        "subType": "noteOff",
        "typeByte": 147,
        "deltaTime": 380,
        "channel": 3,
        "note": 61,
        "velocity": 0
      },
      {
        "type": "midi",
        "subType": "noteOff",
        "typeByte": 147,
        "deltaTime": 0,
        "channel": 3,
        "note": 64,
        "velocity": 0
      },
      {
        "type": "midi",
        "subType": "noteOff",
        "typeByte": 147,
        "deltaTime": 0,
        "channel": 3,
        "note": 57,
        "velocity": 0
      },
      {
        "type": "midi",
        "subType": "noteOn",
        "typeByte": 147,
        "deltaTime": 4,
        "channel": 3,
        "note": 62,
        "velocity": 127
      },
      {
        "type": "midi",
        "subType": "noteOn",
        "typeByte": 147,
        "deltaTime": 0,
        "channel": 3,
        "note": 66,
        "velocity": 127
      },
      {
        "type": "midi",
        "subType": "noteOn",
        "typeByte": 147,
        "deltaTime": 1,
        "channel": 3,
        "note": 57,
        "velocity": 122
      },
      {
        "type": "midi",
        "subType": "noteOff",
        "typeByte": 147,
        "deltaTime": 381,
        "channel": 3,
        "note": 57,
        "velocity": 0
      },
      {
        "type": "midi",
        "subType": "noteOff",
        "typeByte": 147,
        "deltaTime": 0,
        "channel": 3,
        "note": 66,
        "velocity": 0
      },
      {
        "type": "midi",
        "subType": "noteOff",
        "typeByte": 147,
        "deltaTime": 0,
        "channel": 3,
        "note": 62,
        "velocity": 0
      },
      {
        "type": "midi",
        "subType": "noteOn",
        "typeByte": 147,
        "deltaTime": 3,
        "channel": 3,
        "note": 59,
        "velocity": 127
      },
      {
        "type": "midi",
        "subType": "noteOn",
        "typeByte": 147,
        "deltaTime": 0,
        "channel": 3,
        "note": 62,
        "velocity": 127
      },
      {
        "type": "midi",
        "subType": "noteOn",
        "typeByte": 147,
        "deltaTime": 1,
        "channel": 3,
        "note": 66,
        "velocity": 127
      },
      {
        "type": "midi",
        "subType": "noteOff",
        "typeByte": 147,
        "deltaTime": 381,
        "channel": 3,
        "note": 66,
        "velocity": 0
      },
      {
        "type": "midi",
        "subType": "noteOff",
        "typeByte": 147,
        "deltaTime": 0,
        "channel": 3,
        "note": 62,
        "velocity": 0
      },
      {
        "type": "midi",
        "subType": "noteOff",
        "typeByte": 147,
        "deltaTime": 0,
        "channel": 3,
        "note": 59,
        "velocity": 0
      },
      {
        "type": "midi",
        "subType": "noteOn",
        "typeByte": 147,
        "deltaTime": 3,
        "channel": 3,
        "note": 64,
        "velocity": 127
      },
      {
        "type": "midi",
        "subType": "noteOn",
        "typeByte": 147,
        "deltaTime": 1,
        "channel": 3,
        "note": 59,
        "velocity": 127
      },
      {
        "type": "midi",
        "subType": "noteOn",
        "typeByte": 147,
        "deltaTime": 0,
        "channel": 3,
        "note": 68,
        "velocity": 127
      },
      {
        "type": "midi",
        "subType": "noteOff",
        "typeByte": 147,
        "deltaTime": 381,
        "channel": 3,
        "note": 68,
        "velocity": 0
      },
      {
        "type": "midi",
        "subType": "noteOff",
        "typeByte": 147,
        "deltaTime": 0,
        "channel": 3,
        "note": 59,
        "velocity": 0
      },
      {
        "type": "midi",
        "subType": "noteOff",
        "typeByte": 147,
        "deltaTime": 0,
        "channel": 3,
        "note": 64,
        "velocity": 0
      },
      {
        "type": "midi",
        "subType": "noteOn",
        "typeByte": 147,
        "deltaTime": 4,
        "channel": 3,
        "note": 61,
        "velocity": 127
      },
      {
        "type": "midi",
        "subType": "noteOn",
        "typeByte": 147,
        "deltaTime": 0,
        "channel": 3,
        "note": 66,
        "velocity": 127
      },
      {
        "type": "midi",
        "subType": "noteOn",
        "typeByte": 147,
        "deltaTime": 0,
        "channel": 3,
        "note": 69,
        "velocity": 127
      },
      {
        "type": "midi",
        "subType": "noteOff",
        "typeByte": 147,
        "deltaTime": 381,
        "channel": 3,
        "note": 69,
        "velocity": 0
      },
      {
        "type": "midi",
        "subType": "noteOff",
        "typeByte": 147,
        "deltaTime": 0,
        "channel": 3,
        "note": 66,
        "velocity": 0
      },
      {
        "type": "midi",
        "subType": "noteOff",
        "typeByte": 147,
        "deltaTime": 0,
        "channel": 3,
        "note": 61,
        "velocity": 0
      },
      {
        "type": "midi",
        "subType": "noteOn",
        "typeByte": 147,
        "deltaTime": 4,
        "channel": 3,
        "note": 62,
        "velocity": 127
      },
      {
        "type": "midi",
        "subType": "noteOn",
        "typeByte": 147,
        "deltaTime": 0,
        "channel": 3,
        "note": 66,
        "velocity": 127
      },
      {
        "type": "midi",
        "subType": "noteOn",
        "typeByte": 147,
        "deltaTime": 1,
        "channel": 3,
        "note": 69,
        "velocity": 127
      },
      {
        "type": "midi",
        "subType": "noteOff",
        "typeByte": 147,
        "deltaTime": 380,
        "channel": 3,
        "note": 62,
        "velocity": 0
      },
      {
        "type": "midi",
        "subType": "noteOff",
        "typeByte": 147,
        "deltaTime": 1,
        "channel": 3,
        "note": 69,
        "velocity": 0
      },
      {
        "type": "midi",
        "subType": "noteOff",
        "typeByte": 147,
        "deltaTime": 0,
        "channel": 3,
        "note": 66,
        "velocity": 0
      },
      {
        "type": "midi",
        "subType": "controller",
        "typeByte": 179,
        "deltaTime": 3,
        "channel": 3,
        "controllerType": 7,
        "value": 55
      },
      {
        "type": "midi",
        "subType": "noteOn",
        "typeByte": 147,
        "deltaTime": 0,
        "channel": 3,
        "note": 61,
        "velocity": 127
      },
      {
        "type": "midi",
        "subType": "noteOn",
        "typeByte": 147,
        "deltaTime": 1,
        "channel": 3,
        "note": 69,
        "velocity": 127
      },
      {
        "type": "midi",
        "subType": "noteOn",
        "typeByte": 147,
        "deltaTime": 0,
        "channel": 3,
        "note": 64,
        "velocity": 127
      },
      {
        "type": "midi",
        "subType": "noteOff",
        "typeByte": 147,
        "deltaTime": 381,
        "channel": 3,
        "note": 69,
        "velocity": 0
      },
      {
        "type": "midi",
        "subType": "noteOff",
        "typeByte": 147,
        "deltaTime": 0,
        "channel": 3,
        "note": 61,
        "velocity": 0
      },
      {
        "type": "midi",
        "subType": "noteOn",
        "typeByte": 147,
        "deltaTime": 4,
        "channel": 3,
        "note": 68,
        "velocity": 127
      },
      {
        "type": "midi",
        "subType": "noteOn",
        "typeByte": 147,
        "deltaTime": 1,
        "channel": 3,
        "note": 59,
        "velocity": 127
      },
      {
        "type": "midi",
        "subType": "noteOff",
        "typeByte": 147,
        "deltaTime": 380,
        "channel": 3,
        "note": 59,
        "velocity": 0
      },
      {
        "type": "midi",
        "subType": "noteOff",
        "typeByte": 147,
        "deltaTime": 0,
        "channel": 3,
        "note": 68,
        "velocity": 0
      },
      {
        "type": "midi",
        "subType": "noteOff",
        "typeByte": 147,
        "deltaTime": 0,
        "channel": 3,
        "note": 64,
        "velocity": 0
      },
      {
        "type": "midi",
        "subType": "noteOn",
        "typeByte": 147,
        "deltaTime": 4,
        "channel": 3,
        "note": 69,
        "velocity": 127
      },
      {
        "type": "midi",
        "subType": "noteOn",
        "typeByte": 147,
        "deltaTime": 0,
        "channel": 3,
        "note": 61,
        "velocity": 127
      },
      {
        "type": "midi",
        "subType": "noteOn",
        "typeByte": 147,
        "deltaTime": 1,
        "channel": 3,
        "note": 66,
        "velocity": 127
      },
      {
        "type": "midi",
        "subType": "noteOff",
        "typeByte": 147,
        "deltaTime": 765,
        "channel": 3,
        "note": 66,
        "velocity": 0
      },
      {
        "type": "midi",
        "subType": "noteOff",
        "typeByte": 147,
        "deltaTime": 0,
        "channel": 3,
        "note": 61,
        "velocity": 0
      },
      {
        "type": "midi",
        "subType": "noteOff",
        "typeByte": 147,
        "deltaTime": 0,
        "channel": 3,
        "note": 69,
        "velocity": 0
      },
      {
        "type": "midi",
        "subType": "noteOn",
        "typeByte": 147,
        "deltaTime": 5,
        "channel": 3,
        "note": 64,
        "velocity": 127
      },
      {
        "type": "midi",
        "subType": "noteOn",
        "typeByte": 147,
        "deltaTime": 0,
        "channel": 3,
        "note": 73,
        "velocity": 127
      },
      {
        "type": "midi",
        "subType": "noteOn",
        "typeByte": 147,
        "deltaTime": 1,
        "channel": 3,
        "note": 69,
        "velocity": 127
      },
      {
        "type": "midi",
        "subType": "noteOff",
        "typeByte": 147,
        "deltaTime": 380,
        "channel": 3,
        "note": 69,
        "velocity": 0
      },
      {
        "type": "midi",
        "subType": "noteOff",
        "typeByte": 147,
        "deltaTime": 0,
        "channel": 3,
        "note": 73,
        "velocity": 0
      },
      {
        "type": "midi",
        "subType": "noteOff",
        "typeByte": 147,
        "deltaTime": 0,
        "channel": 3,
        "note": 64,
        "velocity": 0
      },
      {
        "type": "midi",
        "subType": "noteOn",
        "typeByte": 147,
        "deltaTime": 4,
        "channel": 3,
        "note": 71,
        "velocity": 119
      },
      {
        "type": "midi",
        "subType": "noteOn",
        "typeByte": 147,
        "deltaTime": 0,
        "channel": 3,
        "note": 68,
        "velocity": 127
      },
      {
        "type": "midi",
        "subType": "noteOn",
        "typeByte": 147,
        "deltaTime": 1,
        "channel": 3,
        "note": 76,
        "velocity": 127
      },
      {
        "type": "midi",
        "subType": "noteOff",
        "typeByte": 147,
        "deltaTime": 380,
        "channel": 3,
        "note": 76,
        "velocity": 0
      },
      {
        "type": "midi",
        "subType": "noteOff",
        "typeByte": 147,
        "deltaTime": 0,
        "channel": 3,
        "note": 68,
        "velocity": 0
      },
      {
        "type": "midi",
        "subType": "noteOff",
        "typeByte": 147,
        "deltaTime": 0,
        "channel": 3,
        "note": 71,
        "velocity": 0
      },
      {
        "type": "midi",
        "subType": "noteOn",
        "typeByte": 147,
        "deltaTime": 4,
        "channel": 3,
        "note": 78,
        "velocity": 127
      },
      {
        "type": "midi",
        "subType": "noteOn",
        "typeByte": 147,
        "deltaTime": 0,
        "channel": 3,
        "note": 73,
        "velocity": 127
      },
      {
        "type": "midi",
        "subType": "noteOn",
        "typeByte": 147,
        "deltaTime": 1,
        "channel": 3,
        "note": 69,
        "velocity": 127
      },
      {
        "type": "midi",
        "subType": "noteOff",
        "typeByte": 147,
        "deltaTime": 765,
        "channel": 3,
        "note": 78,
        "velocity": 0
      },
      {
        "type": "midi",
        "subType": "noteOff",
        "typeByte": 147,
        "deltaTime": 1,
        "channel": 3,
        "note": 69,
        "velocity": 0
      },
      {
        "type": "midi",
        "subType": "noteOff",
        "typeByte": 147,
        "deltaTime": 0,
        "channel": 3,
        "note": 73,
        "velocity": 0
      },
      {
        "type": "midi",
        "subType": "noteOn",
        "typeByte": 147,
        "deltaTime": 4,
        "channel": 3,
        "note": 49,
        "velocity": 127
      },
      {
        "type": "midi",
        "subType": "noteOn",
        "typeByte": 147,
        "deltaTime": 0,
        "channel": 3,
        "note": 61,
        "velocity": 127
      },
      {
        "type": "midi",
        "subType": "noteOff",
        "typeByte": 147,
        "deltaTime": 380,
        "channel": 3,
        "note": 61,
        "velocity": 0
      },
      {
        "type": "midi",
        "subType": "noteOff",
        "typeByte": 147,
        "deltaTime": 0,
        "channel": 3,
        "note": 49,
        "velocity": 0
      },
      {
        "type": "midi",
        "subType": "noteOn",
        "typeByte": 147,
        "deltaTime": 4,
        "channel": 3,
        "note": 52,
        "velocity": 127
      },
      {
        "type": "midi",
        "subType": "noteOn",
        "typeByte": 147,
        "deltaTime": 1,
        "channel": 3,
        "note": 64,
        "velocity": 127
      },
      {
        "type": "midi",
        "subType": "noteOff",
        "typeByte": 147,
        "deltaTime": 380,
        "channel": 3,
        "note": 64,
        "velocity": 0
      },
      {
        "type": "midi",
        "subType": "noteOff",
        "typeByte": 147,
        "deltaTime": 0,
        "channel": 3,
        "note": 52,
        "velocity": 0
      },
      {
        "type": "midi",
        "subType": "noteOn",
        "typeByte": 147,
        "deltaTime": 5,
        "channel": 3,
        "note": 54,
        "velocity": 127
      },
      {
        "type": "midi",
        "subType": "noteOn",
        "typeByte": 147,
        "deltaTime": 0,
        "channel": 3,
        "note": 66,
        "velocity": 127
      },
      {
        "type": "midi",
        "subType": "noteOff",
        "typeByte": 147,
        "deltaTime": 765,
        "channel": 3,
        "note": 66,
        "velocity": 0
      },
      {
        "type": "midi",
        "subType": "noteOff",
        "typeByte": 147,
        "deltaTime": 0,
        "channel": 3,
        "note": 54,
        "velocity": 0
      },
      {
        "type": "midi",
        "subType": "controller",
        "typeByte": 179,
        "deltaTime": 6,
        "channel": 3,
        "controllerType": 7,
        "value": 58
      },
      {
        "type": "midi",
        "subType": "noteOn",
        "typeByte": 147,
        "deltaTime": 1,
        "channel": 3,
        "note": 61,
        "velocity": 127
      },
      {
        "type": "midi",
        "subType": "noteOn",
        "typeByte": 147,
        "deltaTime": 0,
        "channel": 3,
        "note": 69,
        "velocity": 127
      },
      {
        "type": "midi",
        "subType": "noteOn",
        "typeByte": 147,
        "deltaTime": 0,
        "channel": 3,
        "note": 64,
        "velocity": 127
      },
      {
        "type": "midi",
        "subType": "noteOff",
        "typeByte": 147,
        "deltaTime": 379,
        "channel": 3,
        "note": 69,
        "velocity": 0
      },
      {
        "type": "midi",
        "subType": "noteOff",
        "typeByte": 147,
        "deltaTime": 0,
        "channel": 3,
        "note": 61,
        "velocity": 0
      },
      {
        "type": "midi",
        "subType": "noteOn",
        "typeByte": 147,
        "deltaTime": 4,
        "channel": 3,
        "note": 68,
        "velocity": 127
      },
      {
        "type": "midi",
        "subType": "noteOn",
        "typeByte": 147,
        "deltaTime": 1,
        "channel": 3,
        "note": 59,
        "velocity": 127
      },
      {
        "type": "midi",
        "subType": "noteOff",
        "typeByte": 147,
        "deltaTime": 380,
        "channel": 3,
        "note": 59,
        "velocity": 0
      },
      {
        "type": "midi",
        "subType": "noteOff",
        "typeByte": 147,
        "deltaTime": 0,
        "channel": 3,
        "note": 68,
        "velocity": 0
      },
      {
        "type": "midi",
        "subType": "noteOff",
        "typeByte": 147,
        "deltaTime": 0,
        "channel": 3,
        "note": 64,
        "velocity": 0
      },
      {
        "type": "midi",
        "subType": "noteOn",
        "typeByte": 147,
        "deltaTime": 5,
        "channel": 3,
        "note": 69,
        "velocity": 127
      },
      {
        "type": "midi",
        "subType": "noteOn",
        "typeByte": 147,
        "deltaTime": 0,
        "channel": 3,
        "note": 61,
        "velocity": 127
      },
      {
        "type": "midi",
        "subType": "noteOn",
        "typeByte": 147,
        "deltaTime": 0,
        "channel": 3,
        "note": 66,
        "velocity": 127
      },
      {
        "type": "midi",
        "subType": "noteOff",
        "typeByte": 147,
        "deltaTime": 766,
        "channel": 3,
        "note": 66,
        "velocity": 0
      },
      {
        "type": "midi",
        "subType": "noteOff",
        "typeByte": 147,
        "deltaTime": 0,
        "channel": 3,
        "note": 61,
        "velocity": 0
      },
      {
        "type": "midi",
        "subType": "noteOff",
        "typeByte": 147,
        "deltaTime": 0,
        "channel": 3,
        "note": 69,
        "velocity": 0
      },
      {
        "type": "midi",
        "subType": "noteOn",
        "typeByte": 147,
        "deltaTime": 4,
        "channel": 3,
        "note": 73,
        "velocity": 127
      },
      {
        "type": "midi",
        "subType": "noteOn",
        "typeByte": 147,
        "deltaTime": 0,
        "channel": 3,
        "note": 64,
        "velocity": 127
      },
      {
        "type": "midi",
        "subType": "noteOn",
        "typeByte": 147,
        "deltaTime": 1,
        "channel": 3,
        "note": 69,
        "velocity": 127
      },
      {
        "type": "midi",
        "subType": "noteOff",
        "typeByte": 147,
        "deltaTime": 380,
        "channel": 3,
        "note": 69,
        "velocity": 0
      },
      {
        "type": "midi",
        "subType": "noteOff",
        "typeByte": 147,
        "deltaTime": 0,
        "channel": 3,
        "note": 64,
        "velocity": 0
      },
      {
        "type": "midi",
        "subType": "noteOff",
        "typeByte": 147,
        "deltaTime": 0,
        "channel": 3,
        "note": 73,
        "velocity": 0
      },
      {
        "type": "midi",
        "subType": "noteOn",
        "typeByte": 147,
        "deltaTime": 4,
        "channel": 3,
        "note": 76,
        "velocity": 127
      },
      {
        "type": "midi",
        "subType": "noteOn",
        "typeByte": 147,
        "deltaTime": 0,
        "channel": 3,
        "note": 71,
        "velocity": 119
      },
      {
        "type": "midi",
        "subType": "noteOn",
        "typeByte": 147,
        "deltaTime": 1,
        "channel": 3,
        "note": 68,
        "velocity": 127
      },
      {
        "type": "midi",
        "subType": "noteOff",
        "typeByte": 147,
        "deltaTime": 380,
        "channel": 3,
        "note": 68,
        "velocity": 0
      },
      {
        "type": "midi",
        "subType": "noteOff",
        "typeByte": 147,
        "deltaTime": 0,
        "channel": 3,
        "note": 71,
        "velocity": 0
      },
      {
        "type": "midi",
        "subType": "noteOff",
        "typeByte": 147,
        "deltaTime": 0,
        "channel": 3,
        "note": 76,
        "velocity": 0
      },
      {
        "type": "midi",
        "subType": "noteOn",
        "typeByte": 147,
        "deltaTime": 4,
        "channel": 3,
        "note": 69,
        "velocity": 127
      },
      {
        "type": "midi",
        "subType": "noteOn",
        "typeByte": 147,
        "deltaTime": 0,
        "channel": 3,
        "note": 78,
        "velocity": 127
      },
      {
        "type": "midi",
        "subType": "noteOn",
        "typeByte": 147,
        "deltaTime": 1,
        "channel": 3,
        "note": 73,
        "velocity": 127
      },
      {
        "type": "midi",
        "subType": "noteOff",
        "typeByte": 147,
        "deltaTime": 766,
        "channel": 3,
        "note": 73,
        "velocity": 0
      },
      {
        "type": "midi",
        "subType": "noteOff",
        "typeByte": 147,
        "deltaTime": 0,
        "channel": 3,
        "note": 78,
        "velocity": 0
      },
      {
        "type": "midi",
        "subType": "noteOff",
        "typeByte": 147,
        "deltaTime": 0,
        "channel": 3,
        "note": 69,
        "velocity": 0
      },
      {
        "type": "midi",
        "subType": "noteOn",
        "typeByte": 147,
        "deltaTime": 4,
        "channel": 3,
        "note": 61,
        "velocity": 127
      },
      {
        "type": "midi",
        "subType": "noteOn",
        "typeByte": 147,
        "deltaTime": 1,
        "channel": 3,
        "note": 69,
        "velocity": 127
      },
      {
        "type": "midi",
        "subType": "noteOn",
        "typeByte": 147,
        "deltaTime": 0,
        "channel": 3,
        "note": 64,
        "velocity": 127
      },
      {
        "type": "midi",
        "subType": "noteOff",
        "typeByte": 147,
        "deltaTime": 379,
        "channel": 3,
        "note": 69,
        "velocity": 0
      },
      {
        "type": "midi",
        "subType": "noteOff",
        "typeByte": 147,
        "deltaTime": 0,
        "channel": 3,
        "note": 61,
        "velocity": 0
      },
      {
        "type": "midi",
        "subType": "noteOn",
        "typeByte": 147,
        "deltaTime": 5,
        "channel": 3,
        "note": 68,
        "velocity": 127
      },
      {
        "type": "midi",
        "subType": "noteOn",
        "typeByte": 147,
        "deltaTime": 0,
        "channel": 3,
        "note": 59,
        "velocity": 127
      },
      {
        "type": "midi",
        "subType": "noteOff",
        "typeByte": 147,
        "deltaTime": 380,
        "channel": 3,
        "note": 59,
        "velocity": 0
      },
      {
        "type": "midi",
        "subType": "noteOff",
        "typeByte": 147,
        "deltaTime": 0,
        "channel": 3,
        "note": 68,
        "velocity": 0
      },
      {
        "type": "midi",
        "subType": "noteOff",
        "typeByte": 147,
        "deltaTime": 0,
        "channel": 3,
        "note": 64,
        "velocity": 0
      },
      {
        "type": "midi",
        "subType": "noteOn",
        "typeByte": 147,
        "deltaTime": 5,
        "channel": 3,
        "note": 69,
        "velocity": 127
      },
      {
        "type": "midi",
        "subType": "noteOn",
        "typeByte": 147,
        "deltaTime": 0,
        "channel": 3,
        "note": 61,
        "velocity": 127
      },
      {
        "type": "midi",
        "subType": "noteOn",
        "typeByte": 147,
        "deltaTime": 1,
        "channel": 3,
        "note": 66,
        "velocity": 127
      },
      {
        "type": "midi",
        "subType": "noteOff",
        "typeByte": 147,
        "deltaTime": 765,
        "channel": 3,
        "note": 66,
        "velocity": 0
      },
      {
        "type": "midi",
        "subType": "noteOff",
        "typeByte": 147,
        "deltaTime": 0,
        "channel": 3,
        "note": 61,
        "velocity": 0
      },
      {
        "type": "midi",
        "subType": "noteOff",
        "typeByte": 147,
        "deltaTime": 0,
        "channel": 3,
        "note": 69,
        "velocity": 0
      },
      {
        "type": "midi",
        "subType": "noteOn",
        "typeByte": 147,
        "deltaTime": 5,
        "channel": 3,
        "note": 61,
        "velocity": 127
      },
      {
        "type": "midi",
        "subType": "noteOn",
        "typeByte": 147,
        "deltaTime": 1,
        "channel": 3,
        "note": 69,
        "velocity": 127
      },
      {
        "type": "midi",
        "subType": "noteOn",
        "typeByte": 147,
        "deltaTime": 0,
        "channel": 3,
        "note": 64,
        "velocity": 127
      },
      {
        "type": "midi",
        "subType": "noteOff",
        "typeByte": 147,
        "deltaTime": 379,
        "channel": 3,
        "note": 69,
        "velocity": 0
      },
      {
        "type": "midi",
        "subType": "noteOff",
        "typeByte": 147,
        "deltaTime": 0,
        "channel": 3,
        "note": 61,
        "velocity": 0
      },
      {
        "type": "midi",
        "subType": "noteOn",
        "typeByte": 147,
        "deltaTime": 5,
        "channel": 3,
        "note": 68,
        "velocity": 127
      },
      {
        "type": "midi",
        "subType": "noteOn",
        "typeByte": 147,
        "deltaTime": 0,
        "channel": 3,
        "note": 59,
        "velocity": 127
      },
      {
        "type": "midi",
        "subType": "noteOff",
        "typeByte": 147,
        "deltaTime": 380,
        "channel": 3,
        "note": 59,
        "velocity": 0
      },
      {
        "type": "midi",
        "subType": "noteOff",
        "typeByte": 147,
        "deltaTime": 0,
        "channel": 3,
        "note": 68,
        "velocity": 0
      },
      {
        "type": "midi",
        "subType": "noteOff",
        "typeByte": 147,
        "deltaTime": 0,
        "channel": 3,
        "note": 64,
        "velocity": 0
      },
      {
        "type": "midi",
        "subType": "noteOn",
        "typeByte": 147,
        "deltaTime": 5,
        "channel": 3,
        "note": 69,
        "velocity": 127
      },
      {
        "type": "midi",
        "subType": "noteOn",
        "typeByte": 147,
        "deltaTime": 0,
        "channel": 3,
        "note": 61,
        "velocity": 127
      },
      {
        "type": "midi",
        "subType": "noteOn",
        "typeByte": 147,
        "deltaTime": 1,
        "channel": 3,
        "note": 66,
        "velocity": 127
      },
      {
        "type": "midi",
        "subType": "noteOff",
        "typeByte": 147,
        "deltaTime": 764,
        "channel": 3,
        "note": 66,
        "velocity": 0
      },
      {
        "type": "midi",
        "subType": "noteOff",
        "typeByte": 147,
        "deltaTime": 0,
        "channel": 3,
        "note": 61,
        "velocity": 0
      },
      {
        "type": "midi",
        "subType": "noteOff",
        "typeByte": 147,
        "deltaTime": 0,
        "channel": 3,
        "note": 69,
        "velocity": 0
      },
      {
        "type": "midi",
        "subType": "noteOn",
        "typeByte": 147,
        "deltaTime": 6,
        "channel": 3,
        "note": 73,
        "velocity": 127
      },
      {
        "type": "midi",
        "subType": "noteOn",
        "typeByte": 147,
        "deltaTime": 0,
        "channel": 3,
        "note": 64,
        "velocity": 127
      },
      {
        "type": "midi",
        "subType": "noteOn",
        "typeByte": 147,
        "deltaTime": 0,
        "channel": 3,
        "note": 69,
        "velocity": 127
      },
      {
        "type": "midi",
        "subType": "noteOff",
        "typeByte": 147,
        "deltaTime": 380,
        "channel": 3,
        "note": 69,
        "velocity": 0
      },
      {
        "type": "midi",
        "subType": "noteOff",
        "typeByte": 147,
        "deltaTime": 0,
        "channel": 3,
        "note": 64,
        "velocity": 0
      },
      {
        "type": "midi",
        "subType": "noteOff",
        "typeByte": 147,
        "deltaTime": 0,
        "channel": 3,
        "note": 73,
        "velocity": 0
      },
      {
        "type": "midi",
        "subType": "noteOn",
        "typeByte": 147,
        "deltaTime": 5,
        "channel": 3,
        "note": 76,
        "velocity": 127
      },
      {
        "type": "midi",
        "subType": "noteOn",
        "typeByte": 147,
        "deltaTime": 0,
        "channel": 3,
        "note": 71,
        "velocity": 119
      },
      {
        "type": "midi",
        "subType": "noteOn",
        "typeByte": 147,
        "deltaTime": 0,
        "channel": 3,
        "note": 68,
        "velocity": 127
      },
      {
        "type": "midi",
        "subType": "controller",
        "typeByte": 179,
        "deltaTime": 288,
        "channel": 3,
        "controllerType": 7,
        "value": 49
      },
      {
        "type": "midi",
        "subType": "controller",
        "typeByte": 179,
        "deltaTime": 59,
        "channel": 3,
        "controllerType": 7,
        "value": 48
      },
      {
        "type": "midi",
        "subType": "noteOff",
        "typeByte": 147,
        "deltaTime": 33,
        "channel": 3,
        "note": 68,
        "velocity": 0
      },
      {
        "type": "midi",
        "subType": "noteOff",
        "typeByte": 147,
        "deltaTime": 0,
        "channel": 3,
        "note": 71,
        "velocity": 0
      },
      {
        "type": "midi",
        "subType": "noteOff",
        "typeByte": 147,
        "deltaTime": 0,
        "channel": 3,
        "note": 76,
        "velocity": 0
      },
      {
        "type": "midi",
        "subType": "noteOn",
        "typeByte": 147,
        "deltaTime": 5,
        "channel": 3,
        "note": 69,
        "velocity": 127
      },
      {
        "type": "midi",
        "subType": "noteOn",
        "typeByte": 147,
        "deltaTime": 0,
        "channel": 3,
        "note": 78,
        "velocity": 127
      },
      {
        "type": "midi",
        "subType": "noteOn",
        "typeByte": 147,
        "deltaTime": 0,
        "channel": 3,
        "note": 73,
        "velocity": 127
      },
      {
        "type": "midi",
        "subType": "controller",
        "typeByte": 179,
        "deltaTime": 12,
        "channel": 3,
        "controllerType": 7,
        "value": 47
      },
      {
        "type": "midi",
        "subType": "controller",
        "typeByte": 179,
        "deltaTime": 59,
        "channel": 3,
        "controllerType": 7,
        "value": 46
      },
      {
        "type": "midi",
        "subType": "controller",
        "typeByte": 179,
        "deltaTime": 47,
        "channel": 3,
        "controllerType": 7,
        "value": 45
      },
      {
        "type": "midi",
        "subType": "controller",
        "typeByte": 179,
        "deltaTime": 61,
        "channel": 3,
        "controllerType": 7,
        "value": 44
      },
      {
        "type": "midi",
        "subType": "controller",
        "typeByte": 179,
        "deltaTime": 48,
        "channel": 3,
        "controllerType": 7,
        "value": 43
      },
      {
        "type": "midi",
        "subType": "controller",
        "typeByte": 179,
        "deltaTime": 61,
        "channel": 3,
        "controllerType": 7,
        "value": 42
      },
      {
        "type": "midi",
        "subType": "controller",
        "typeByte": 179,
        "deltaTime": 47,
        "channel": 3,
        "controllerType": 7,
        "value": 41
      },
      {
        "type": "midi",
        "subType": "controller",
        "typeByte": 179,
        "deltaTime": 61,
        "channel": 3,
        "controllerType": 7,
        "value": 40
      },
      {
        "type": "midi",
        "subType": "controller",
        "typeByte": 179,
        "deltaTime": 48,
        "channel": 3,
        "controllerType": 7,
        "value": 39
      },
      {
        "type": "midi",
        "subType": "controller",
        "typeByte": 179,
        "deltaTime": 60,
        "channel": 3,
        "controllerType": 7,
        "value": 38
      },
      {
        "type": "midi",
        "subType": "controller",
        "typeByte": 179,
        "deltaTime": 48,
        "channel": 3,
        "controllerType": 7,
        "value": 37
      },
      {
        "type": "midi",
        "subType": "controller",
        "typeByte": 179,
        "deltaTime": 60,
        "channel": 3,
        "controllerType": 7,
        "value": 36
      },
      {
        "type": "midi",
        "subType": "controller",
        "typeByte": 179,
        "deltaTime": 49,
        "channel": 3,
        "controllerType": 7,
        "value": 35
      },
      {
        "type": "midi",
        "subType": "controller",
        "typeByte": 179,
        "deltaTime": 59,
        "channel": 3,
        "controllerType": 7,
        "value": 34
      },
      {
        "type": "midi",
        "subType": "noteOff",
        "typeByte": 147,
        "deltaTime": 45,
        "channel": 3,
        "note": 69,
        "velocity": 0
      },
      {
        "type": "midi",
        "subType": "noteOff",
        "typeByte": 147,
        "deltaTime": 1,
        "channel": 3,
        "note": 73,
        "velocity": 0
      },
      {
        "type": "midi",
        "subType": "noteOff",
        "typeByte": 147,
        "deltaTime": 0,
        "channel": 3,
        "note": 78,
        "velocity": 0
      },
      {
        "type": "midi",
        "subType": "controller",
        "typeByte": 179,
        "deltaTime": 6,
        "channel": 3,
        "controllerType": 7,
        "value": 33
      },
      {
        "type": "midi",
        "subType": "noteOn",
        "typeByte": 147,
        "deltaTime": 0,
        "channel": 3,
        "note": 64,
        "velocity": 127
      },
      {
        "type": "midi",
        "subType": "noteOn",
        "typeByte": 147,
        "deltaTime": 0,
        "channel": 3,
        "note": 69,
        "velocity": 127
      },
      {
        "type": "midi",
        "subType": "noteOn",
        "typeByte": 147,
        "deltaTime": 0,
        "channel": 3,
        "note": 61,
        "velocity": 127
      },
      {
        "type": "midi",
        "subType": "controller",
        "typeByte": 179,
        "deltaTime": 57,
        "channel": 3,
        "controllerType": 7,
        "value": 32
      },
      {
        "type": "midi",
        "subType": "controller",
        "typeByte": 179,
        "deltaTime": 49,
        "channel": 3,
        "controllerType": 7,
        "value": 31
      },
      {
        "type": "midi",
        "subType": "controller",
        "typeByte": 179,
        "deltaTime": 59,
        "channel": 3,
        "controllerType": 7,
        "value": 30
      },
      {
        "type": "midi",
        "subType": "controller",
        "typeByte": 179,
        "deltaTime": 48,
        "channel": 3,
        "controllerType": 7,
        "value": 29
      },
      {
        "type": "midi",
        "subType": "controller",
        "typeByte": 179,
        "deltaTime": 61,
        "channel": 3,
        "controllerType": 7,
        "value": 28
      },
      {
        "type": "midi",
        "subType": "controller",
        "typeByte": 179,
        "deltaTime": 47,
        "channel": 3,
        "controllerType": 7,
        "value": 27
      },
      {
        "type": "midi",
        "subType": "noteOff",
        "typeByte": 147,
        "deltaTime": 57,
        "channel": 3,
        "note": 61,
        "velocity": 0
      },
      {
        "type": "midi",
        "subType": "noteOff",
        "typeByte": 147,
        "deltaTime": 0,
        "channel": 3,
        "note": 69,
        "velocity": 0
      },
      {
        "type": "midi",
        "subType": "controller",
        "typeByte": 179,
        "deltaTime": 6,
        "channel": 3,
        "controllerType": 7,
        "value": 26
      },
      {
        "type": "midi",
        "subType": "noteOn",
        "typeByte": 147,
        "deltaTime": 0,
        "channel": 3,
        "note": 68,
        "velocity": 127
      },
      {
        "type": "midi",
        "subType": "noteOn",
        "typeByte": 147,
        "deltaTime": 0,
        "channel": 3,
        "note": 59,
        "velocity": 127
      },
      {
        "type": "midi",
        "subType": "controller",
        "typeByte": 179,
        "deltaTime": 46,
        "channel": 3,
        "controllerType": 7,
        "value": 25
      },
      {
        "type": "midi",
        "subType": "controller",
        "typeByte": 179,
        "deltaTime": 49,
        "channel": 3,
        "controllerType": 7,
        "value": 24
      },
      {
        "type": "midi",
        "subType": "controller",
        "typeByte": 179,
        "deltaTime": 59,
        "channel": 3,
        "controllerType": 7,
        "value": 23
      },
      {
        "type": "midi",
        "subType": "controller",
        "typeByte": 179,
        "deltaTime": 49,
        "channel": 3,
        "controllerType": 7,
        "value": 22
      },
      {
        "type": "midi",
        "subType": "controller",
        "typeByte": 179,
        "deltaTime": 60,
        "channel": 3,
        "controllerType": 7,
        "value": 21
      },
      {
        "type": "midi",
        "subType": "controller",
        "typeByte": 179,
        "deltaTime": 48,
        "channel": 3,
        "controllerType": 7,
        "value": 20
      },
      {
        "type": "midi",
        "subType": "controller",
        "typeByte": 179,
        "deltaTime": 60,
        "channel": 3,
        "controllerType": 7,
        "value": 19
      },
      {
        "type": "midi",
        "subType": "noteOff",
        "typeByte": 147,
        "deltaTime": 8,
        "channel": 3,
        "note": 59,
        "velocity": 0
      },
      {
        "type": "midi",
        "subType": "noteOff",
        "typeByte": 147,
        "deltaTime": 0,
        "channel": 3,
        "note": 68,
        "velocity": 0
      },
      {
        "type": "midi",
        "subType": "noteOff",
        "typeByte": 147,
        "deltaTime": 0,
        "channel": 3,
        "note": 64,
        "velocity": 0
      },
      {
        "type": "midi",
        "subType": "noteOn",
        "typeByte": 147,
        "deltaTime": 7,
        "channel": 3,
        "note": 69,
        "velocity": 127
      },
      {
        "type": "midi",
        "subType": "noteOn",
        "typeByte": 147,
        "deltaTime": 0,
        "channel": 3,
        "note": 61,
        "velocity": 127
      },
      {
        "type": "midi",
        "subType": "noteOn",
        "typeByte": 147,
        "deltaTime": 0,
        "channel": 3,
        "note": 66,
        "velocity": 127
      },
      {
        "type": "midi",
        "subType": "controller",
        "typeByte": 179,
        "deltaTime": 33,
        "channel": 3,
        "controllerType": 7,
        "value": 18
      },
      {
        "type": "midi",
        "subType": "controller",
        "typeByte": 179,
        "deltaTime": 61,
        "channel": 3,
        "controllerType": 7,
        "value": 17
      },
      {
        "type": "midi",
        "subType": "controller",
        "typeByte": 179,
        "deltaTime": 47,
        "channel": 3,
        "controllerType": 7,
        "value": 16
      },
      {
        "type": "midi",
        "subType": "controller",
        "typeByte": 179,
        "deltaTime": 61,
        "channel": 3,
        "controllerType": 7,
        "value": 15
      },
      {
        "type": "midi",
        "subType": "controller",
        "typeByte": 179,
        "deltaTime": 48,
        "channel": 3,
        "controllerType": 7,
        "value": 14
      },
      {
        "type": "midi",
        "subType": "controller",
        "typeByte": 179,
        "deltaTime": 60,
        "channel": 3,
        "controllerType": 7,
        "value": 13
      },
      {
        "type": "midi",
        "subType": "controller",
        "typeByte": 179,
        "deltaTime": 48,
        "channel": 3,
        "controllerType": 7,
        "value": 12
      },
      {
        "type": "midi",
        "subType": "controller",
        "typeByte": 179,
        "deltaTime": 60,
        "channel": 3,
        "controllerType": 7,
        "value": 11
      },
      {
        "type": "midi",
        "subType": "controller",
        "typeByte": 179,
        "deltaTime": 49,
        "channel": 3,
        "controllerType": 7,
        "value": 10
      },
      {
        "type": "midi",
        "subType": "controller",
        "typeByte": 179,
        "deltaTime": 60,
        "channel": 3,
        "controllerType": 7,
        "value": 9
      },
      {
        "type": "midi",
        "subType": "controller",
        "typeByte": 179,
        "deltaTime": 49,
        "channel": 3,
        "controllerType": 7,
        "value": 8
      },
      {
        "type": "midi",
        "subType": "controller",
        "typeByte": 179,
        "deltaTime": 59,
        "channel": 3,
        "controllerType": 7,
        "value": 7
      },
      {
        "type": "midi",
        "subType": "controller",
        "typeByte": 179,
        "deltaTime": 49,
        "channel": 3,
        "controllerType": 7,
        "value": 6
      },
      {
        "type": "midi",
        "subType": "controller",
        "typeByte": 179,
        "deltaTime": 60,
        "channel": 3,
        "controllerType": 7,
        "value": 5
      },
      {
        "type": "midi",
        "subType": "noteOff",
        "typeByte": 147,
        "deltaTime": 20,
        "channel": 3,
        "note": 66,
        "velocity": 0
      },
      {
        "type": "midi",
        "subType": "noteOff",
        "typeByte": 147,
        "deltaTime": 0,
        "channel": 3,
        "note": 61,
        "velocity": 0
      },
      {
        "type": "midi",
        "subType": "noteOff",
        "typeByte": 147,
        "deltaTime": 0,
        "channel": 3,
        "note": 69,
        "velocity": 0
      },
      {
        "type": "midi",
        "subType": "controller",
        "typeByte": 179,
        "deltaTime": 27,
        "channel": 3,
        "controllerType": 7,
        "value": 4
      },
      {
        "type": "midi",
        "subType": "controller",
        "typeByte": 179,
        "deltaTime": 61,
        "channel": 3,
        "controllerType": 7,
        "value": 3
      },
      {
        "type": "midi",
        "subType": "controller",
        "typeByte": 179,
        "deltaTime": 47,
        "channel": 3,
        "controllerType": 7,
        "value": 2
      },
      {
        "type": "midi",
        "subType": "controller",
        "typeByte": 179,
        "deltaTime": 49,
        "channel": 3,
        "controllerType": 7,
        "value": 1
      },
      {
        "type": "midi",
        "subType": "controller",
        "typeByte": 179,
        "deltaTime": 60,
        "channel": 3,
        "controllerType": 7,
        "value": 0
      },
      {
        "type": "midi",
        "subType": "controller",
        "typeByte": 179,
        "deltaTime": 106,
        "channel": 3,
        "controllerType": 64,
        "value": 0
      },
      {
        "type": "midi",
        "subType": "pitchBend",
        "typeByte": 227,
        "deltaTime": 1,
        "channel": 3,
        "value": 8192
      },
      {
        "type": "meta",
        "subType": "endOfTrack",
        "typeByte": 255,
        "subTypeByte": 47,
        "deltaTime": 0
      }
    ],
    [
      {
        "type": "meta",
        "typeByte": 255,
        "subTypeByte": 33,
        "deltaTime": 0,
        "data": {}
      },
      {
        "type": "meta",
        "subType": "trackName",
        "typeByte": 255,
        "subTypeByte": 3,
        "deltaTime": 0,
        "text": "Doctor Solo         "
      },
      {
        "type": "midi",
        "subType": "programChange",
        "typeByte": 196,
        "deltaTime": 0,
        "channel": 4,
        "program": 88
      },
      {
        "type": "midi",
        "subType": "controller",
        "typeByte": 180,
        "deltaTime": 0,
        "channel": 4,
        "controllerType": 7,
        "value": 88
      },
      {
        "type": "midi",
        "subType": "controller",
        "typeByte": 180,
        "deltaTime": 0,
        "channel": 4,
        "controllerType": 10,
        "value": 80
      },
      {
        "type": "midi",
        "subType": "noteOn",
        "typeByte": 148,
        "deltaTime": 4978,
        "channel": 4,
        "note": 78,
        "velocity": 127
      },
      {
        "type": "midi",
        "subType": "noteOn",
        "typeByte": 148,
        "deltaTime": 0,
        "channel": 4,
        "note": 90,
        "velocity": 127
      },
      {
        "type": "midi",
        "subType": "noteOff",
        "typeByte": 148,
        "deltaTime": 35,
        "channel": 4,
        "note": 90,
        "velocity": 0
      },
      {
        "type": "midi",
        "subType": "noteOff",
        "typeByte": 148,
        "deltaTime": 0,
        "channel": 4,
        "note": 78,
        "velocity": 0
      },
      {
        "type": "midi",
        "subType": "noteOn",
        "typeByte": 148,
        "deltaTime": 13,
        "channel": 4,
        "note": 90,
        "velocity": 127
      },
      {
        "type": "midi",
        "subType": "noteOn",
        "typeByte": 148,
        "deltaTime": 0,
        "channel": 4,
        "note": 78,
        "velocity": 127
      },
      {
        "type": "midi",
        "subType": "noteOff",
        "typeByte": 148,
        "deltaTime": 47,
        "channel": 4,
        "note": 78,
        "velocity": 0
      },
      {
        "type": "midi",
        "subType": "noteOff",
        "typeByte": 148,
        "deltaTime": 0,
        "channel": 4,
        "note": 90,
        "velocity": 0
      },
      {
        "type": "midi",
        "subType": "noteOn",
        "typeByte": 148,
        "deltaTime": 2,
        "channel": 4,
        "note": 86,
        "velocity": 127
      },
      {
        "type": "midi",
        "subType": "noteOn",
        "typeByte": 148,
        "deltaTime": 0,
        "channel": 4,
        "note": 74,
        "velocity": 127
      },
      {
        "type": "midi",
        "subType": "noteOff",
        "typeByte": 148,
        "deltaTime": 47,
        "channel": 4,
        "note": 74,
        "velocity": 0
      },
      {
        "type": "midi",
        "subType": "noteOff",
        "typeByte": 148,
        "deltaTime": 0,
        "channel": 4,
        "note": 86,
        "velocity": 0
      },
      {
        "type": "midi",
        "subType": "noteOn",
        "typeByte": 148,
        "deltaTime": 0,
        "channel": 4,
        "note": 71,
        "velocity": 127
      },
      {
        "type": "midi",
        "subType": "noteOn",
        "typeByte": 148,
        "deltaTime": 1,
        "channel": 4,
        "note": 83,
        "velocity": 127
      },
      {
        "type": "midi",
        "subType": "noteOff",
        "typeByte": 148,
        "deltaTime": 40,
        "channel": 4,
        "note": 83,
        "velocity": 0
      },
      {
        "type": "midi",
        "subType": "noteOff",
        "typeByte": 148,
        "deltaTime": 0,
        "channel": 4,
        "note": 71,
        "velocity": 0
      },
      {
        "type": "midi",
        "subType": "noteOn",
        "typeByte": 148,
        "deltaTime": 56,
        "channel": 4,
        "note": 83,
        "velocity": 127
      },
      {
        "type": "midi",
        "subType": "noteOn",
        "typeByte": 148,
        "deltaTime": 0,
        "channel": 4,
        "note": 71,
        "velocity": 127
      },
      {
        "type": "midi",
        "subType": "noteOff",
        "typeByte": 148,
        "deltaTime": 48,
        "channel": 4,
        "note": 71,
        "velocity": 0
      },
      {
        "type": "midi",
        "subType": "noteOff",
        "typeByte": 148,
        "deltaTime": 0,
        "channel": 4,
        "note": 83,
        "velocity": 0
      },
      {
        "type": "midi",
        "subType": "noteOn",
        "typeByte": 148,
        "deltaTime": 47,
        "channel": 4,
        "note": 88,
        "velocity": 127
      },
      {
        "type": "midi",
        "subType": "noteOn",
        "typeByte": 148,
        "deltaTime": 0,
        "channel": 4,
        "note": 76,
        "velocity": 127
      },
      {
        "type": "midi",
        "subType": "noteOff",
        "typeByte": 148,
        "deltaTime": 42,
        "channel": 4,
        "note": 76,
        "velocity": 0
      },
      {
        "type": "midi",
        "subType": "noteOff",
        "typeByte": 148,
        "deltaTime": 0,
        "channel": 4,
        "note": 88,
        "velocity": 0
      },
      {
        "type": "midi",
        "subType": "noteOn",
        "typeByte": 148,
        "deltaTime": 55,
        "channel": 4,
        "note": 76,
        "velocity": 127
      },
      {
        "type": "midi",
        "subType": "noteOn",
        "typeByte": 148,
        "deltaTime": 0,
        "channel": 4,
        "note": 88,
        "velocity": 127
      },
      {
        "type": "midi",
        "subType": "noteOff",
        "typeByte": 148,
        "deltaTime": 47,
        "channel": 4,
        "note": 88,
        "velocity": 0
      },
      {
        "type": "midi",
        "subType": "noteOff",
        "typeByte": 148,
        "deltaTime": 0,
        "channel": 4,
        "note": 76,
        "velocity": 0
      },
      {
        "type": "midi",
        "subType": "noteOn",
        "typeByte": 148,
        "deltaTime": 49,
        "channel": 4,
        "note": 88,
        "velocity": 127
      },
      {
        "type": "midi",
        "subType": "noteOn",
        "typeByte": 148,
        "deltaTime": 0,
        "channel": 4,
        "note": 76,
        "velocity": 127
      },
      {
        "type": "midi",
        "subType": "noteOff",
        "typeByte": 148,
        "deltaTime": 47,
        "channel": 4,
        "note": 76,
        "velocity": 0
      },
      {
        "type": "midi",
        "subType": "noteOff",
        "typeByte": 148,
        "deltaTime": 0,
        "channel": 4,
        "note": 88,
        "velocity": 0
      },
      {
        "type": "midi",
        "subType": "noteOn",
        "typeByte": 148,
        "deltaTime": 3,
        "channel": 4,
        "note": 92,
        "velocity": 127
      },
      {
        "type": "midi",
        "subType": "noteOn",
        "typeByte": 148,
        "deltaTime": 0,
        "channel": 4,
        "note": 80,
        "velocity": 127
      },
      {
        "type": "midi",
        "subType": "noteOff",
        "typeByte": 148,
        "deltaTime": 38,
        "channel": 4,
        "note": 80,
        "velocity": 0
      },
      {
        "type": "midi",
        "subType": "noteOff",
        "typeByte": 148,
        "deltaTime": 0,
        "channel": 4,
        "note": 92,
        "velocity": 0
      },
      {
        "type": "midi",
        "subType": "noteOn",
        "typeByte": 148,
        "deltaTime": 9,
        "channel": 4,
        "note": 80,
        "velocity": 127
      },
      {
        "type": "midi",
        "subType": "noteOn",
        "typeByte": 148,
        "deltaTime": 0,
        "channel": 4,
        "note": 92,
        "velocity": 127
      },
      {
        "type": "midi",
        "subType": "noteOff",
        "typeByte": 148,
        "deltaTime": 41,
        "channel": 4,
        "note": 92,
        "velocity": 0
      },
      {
        "type": "midi",
        "subType": "noteOff",
        "typeByte": 148,
        "deltaTime": 0,
        "channel": 4,
        "note": 80,
        "velocity": 0
      },
      {
        "type": "midi",
        "subType": "noteOn",
        "typeByte": 148,
        "deltaTime": 7,
        "channel": 4,
        "note": 93,
        "velocity": 127
      },
      {
        "type": "midi",
        "subType": "noteOn",
        "typeByte": 148,
        "deltaTime": 1,
        "channel": 4,
        "note": 81,
        "velocity": 127
      },
      {
        "type": "midi",
        "subType": "noteOff",
        "typeByte": 148,
        "deltaTime": 42,
        "channel": 4,
        "note": 81,
        "velocity": 0
      },
      {
        "type": "midi",
        "subType": "noteOff",
        "typeByte": 148,
        "deltaTime": 0,
        "channel": 4,
        "note": 93,
        "velocity": 0
      },
      {
        "type": "midi",
        "subType": "noteOn",
        "typeByte": 148,
        "deltaTime": 5,
        "channel": 4,
        "note": 95,
        "velocity": 127
      },
      {
        "type": "midi",
        "subType": "noteOn",
        "typeByte": 148,
        "deltaTime": 0,
        "channel": 4,
        "note": 83,
        "velocity": 127
      },
      {
        "type": "midi",
        "subType": "noteOff",
        "typeByte": 148,
        "deltaTime": 47,
        "channel": 4,
        "note": 83,
        "velocity": 0
      },
      {
        "type": "midi",
        "subType": "noteOff",
        "typeByte": 148,
        "deltaTime": 0,
        "channel": 4,
        "note": 95,
        "velocity": 0
      },
      {
        "type": "midi",
        "subType": "noteOn",
        "typeByte": 148,
        "deltaTime": 2,
        "channel": 4,
        "note": 81,
        "velocity": 127
      },
      {
        "type": "midi",
        "subType": "noteOn",
        "typeByte": 148,
        "deltaTime": 0,
        "channel": 4,
        "note": 93,
        "velocity": 127
      },
      {
        "type": "midi",
        "subType": "noteOff",
        "typeByte": 148,
        "deltaTime": 37,
        "channel": 4,
        "note": 93,
        "velocity": 0
      },
      {
        "type": "midi",
        "subType": "noteOff",
        "typeByte": 148,
        "deltaTime": 0,
        "channel": 4,
        "note": 81,
        "velocity": 0
      },
      {
        "type": "midi",
        "subType": "noteOn",
        "typeByte": 148,
        "deltaTime": 10,
        "channel": 4,
        "note": 93,
        "velocity": 127
      },
      {
        "type": "midi",
        "subType": "noteOn",
        "typeByte": 148,
        "deltaTime": 0,
        "channel": 4,
        "note": 81,
        "velocity": 127
      },
      {
        "type": "midi",
        "subType": "noteOff",
        "typeByte": 148,
        "deltaTime": 41,
        "channel": 4,
        "note": 93,
        "velocity": 0
      },
      {
        "type": "midi",
        "subType": "noteOff",
        "typeByte": 148,
        "deltaTime": 1,
        "channel": 4,
        "note": 81,
        "velocity": 0
      },
      {
        "type": "midi",
        "subType": "noteOn",
        "typeByte": 148,
        "deltaTime": 7,
        "channel": 4,
        "note": 93,
        "velocity": 127
      },
      {
        "type": "midi",
        "subType": "noteOn",
        "typeByte": 148,
        "deltaTime": 0,
        "channel": 4,
        "note": 81,
        "velocity": 127
      },
      {
        "type": "midi",
        "subType": "noteOff",
        "typeByte": 148,
        "deltaTime": 37,
        "channel": 4,
        "note": 81,
        "velocity": 0
      },
      {
        "type": "midi",
        "subType": "noteOff",
        "typeByte": 148,
        "deltaTime": 0,
        "channel": 4,
        "note": 93,
        "velocity": 0
      },
      {
        "type": "midi",
        "subType": "noteOn",
        "typeByte": 148,
        "deltaTime": 10,
        "channel": 4,
        "note": 76,
        "velocity": 127
      },
      {
        "type": "midi",
        "subType": "noteOn",
        "typeByte": 148,
        "deltaTime": 0,
        "channel": 4,
        "note": 88,
        "velocity": 127
      },
      {
        "type": "midi",
        "subType": "noteOff",
        "typeByte": 148,
        "deltaTime": 42,
        "channel": 4,
        "note": 88,
        "velocity": 0
      },
      {
        "type": "midi",
        "subType": "noteOff",
        "typeByte": 148,
        "deltaTime": 0,
        "channel": 4,
        "note": 76,
        "velocity": 0
      },
      {
        "type": "midi",
        "subType": "noteOn",
        "typeByte": 148,
        "deltaTime": 55,
        "channel": 4,
        "note": 86,
        "velocity": 127
      },
      {
        "type": "midi",
        "subType": "noteOn",
        "typeByte": 148,
        "deltaTime": 0,
        "channel": 4,
        "note": 74,
        "velocity": 127
      },
      {
        "type": "midi",
        "subType": "noteOff",
        "typeByte": 148,
        "deltaTime": 37,
        "channel": 4,
        "note": 74,
        "velocity": 0
      },
      {
        "type": "midi",
        "subType": "noteOff",
        "typeByte": 148,
        "deltaTime": 0,
        "channel": 4,
        "note": 86,
        "velocity": 0
      },
      {
        "type": "midi",
        "subType": "noteOn",
        "typeByte": 148,
        "deltaTime": 59,
        "channel": 4,
        "note": 90,
        "velocity": 127
      },
      {
        "type": "midi",
        "subType": "noteOn",
        "typeByte": 148,
        "deltaTime": 0,
        "channel": 4,
        "note": 78,
        "velocity": 127
      },
      {
        "type": "midi",
        "subType": "noteOff",
        "typeByte": 148,
        "deltaTime": 41,
        "channel": 4,
        "note": 78,
        "velocity": 0
      },
      {
        "type": "midi",
        "subType": "noteOff",
        "typeByte": 148,
        "deltaTime": 0,
        "channel": 4,
        "note": 90,
        "velocity": 0
      },
      {
        "type": "midi",
        "subType": "noteOn",
        "typeByte": 148,
        "deltaTime": 55,
        "channel": 4,
        "note": 78,
        "velocity": 127
      },
      {
        "type": "midi",
        "subType": "noteOn",
        "typeByte": 148,
        "deltaTime": 0,
        "channel": 4,
        "note": 90,
        "velocity": 127
      },
      {
        "type": "midi",
        "subType": "noteOff",
        "typeByte": 148,
        "deltaTime": 42,
        "channel": 4,
        "note": 90,
        "velocity": 0
      },
      {
        "type": "midi",
        "subType": "noteOff",
        "typeByte": 148,
        "deltaTime": 0,
        "channel": 4,
        "note": 78,
        "velocity": 0
      },
      {
        "type": "midi",
        "subType": "noteOn",
        "typeByte": 148,
        "deltaTime": 54,
        "channel": 4,
        "note": 90,
        "velocity": 127
      },
      {
        "type": "midi",
        "subType": "noteOn",
        "typeByte": 148,
        "deltaTime": 1,
        "channel": 4,
        "note": 78,
        "velocity": 127
      },
      {
        "type": "midi",
        "subType": "noteOff",
        "typeByte": 148,
        "deltaTime": 41,
        "channel": 4,
        "note": 78,
        "velocity": 0
      },
      {
        "type": "midi",
        "subType": "noteOff",
        "typeByte": 148,
        "deltaTime": 0,
        "channel": 4,
        "note": 90,
        "velocity": 0
      },
      {
        "type": "midi",
        "subType": "noteOn",
        "typeByte": 148,
        "deltaTime": 8,
        "channel": 4,
        "note": 88,
        "velocity": 127
      },
      {
        "type": "midi",
        "subType": "noteOn",
        "typeByte": 148,
        "deltaTime": 0,
        "channel": 4,
        "note": 76,
        "velocity": 127
      },
      {
        "type": "midi",
        "subType": "noteOff",
        "typeByte": 148,
        "deltaTime": 42,
        "channel": 4,
        "note": 76,
        "velocity": 0
      },
      {
        "type": "midi",
        "subType": "noteOff",
        "typeByte": 148,
        "deltaTime": 0,
        "channel": 4,
        "note": 88,
        "velocity": 0
      },
      {
        "type": "midi",
        "subType": "noteOn",
        "typeByte": 148,
        "deltaTime": 5,
        "channel": 4,
        "note": 76,
        "velocity": 127
      },
      {
        "type": "midi",
        "subType": "noteOn",
        "typeByte": 148,
        "deltaTime": 0,
        "channel": 4,
        "note": 88,
        "velocity": 127
      },
      {
        "type": "midi",
        "subType": "noteOff",
        "typeByte": 148,
        "deltaTime": 43,
        "channel": 4,
        "note": 88,
        "velocity": 0
      },
      {
        "type": "midi",
        "subType": "noteOff",
        "typeByte": 148,
        "deltaTime": 0,
        "channel": 4,
        "note": 76,
        "velocity": 0
      },
      {
        "type": "midi",
        "subType": "noteOn",
        "typeByte": 148,
        "deltaTime": 6,
        "channel": 4,
        "note": 90,
        "velocity": 127
      },
      {
        "type": "midi",
        "subType": "noteOn",
        "typeByte": 148,
        "deltaTime": 0,
        "channel": 4,
        "note": 78,
        "velocity": 127
      },
      {
        "type": "midi",
        "subType": "noteOff",
        "typeByte": 148,
        "deltaTime": 38,
        "channel": 4,
        "note": 90,
        "velocity": 0
      },
      {
        "type": "midi",
        "subType": "noteOff",
        "typeByte": 148,
        "deltaTime": 1,
        "channel": 4,
        "note": 78,
        "velocity": 0
      },
      {
        "type": "midi",
        "subType": "noteOn",
        "typeByte": 148,
        "deltaTime": 8,
        "channel": 4,
        "note": 88,
        "velocity": 127
      },
      {
        "type": "midi",
        "subType": "noteOn",
        "typeByte": 148,
        "deltaTime": 0,
        "channel": 4,
        "note": 76,
        "velocity": 127
      },
      {
        "type": "midi",
        "subType": "noteOff",
        "typeByte": 148,
        "deltaTime": 43,
        "channel": 4,
        "note": 76,
        "velocity": 0
      },
      {
        "type": "midi",
        "subType": "noteOff",
        "typeByte": 148,
        "deltaTime": 0,
        "channel": 4,
        "note": 88,
        "velocity": 0
      },
      {
        "type": "midi",
        "subType": "noteOn",
        "typeByte": 148,
        "deltaTime": 6,
        "channel": 4,
        "note": 78,
        "velocity": 127
      },
      {
        "type": "midi",
        "subType": "noteOn",
        "typeByte": 148,
        "deltaTime": 0,
        "channel": 4,
        "note": 90,
        "velocity": 127
      },
      {
        "type": "midi",
        "subType": "noteOff",
        "typeByte": 148,
        "deltaTime": 39,
        "channel": 4,
        "note": 90,
        "velocity": 0
      },
      {
        "type": "midi",
        "subType": "noteOff",
        "typeByte": 148,
        "deltaTime": 0,
        "channel": 4,
        "note": 78,
        "velocity": 0
      },
      {
        "type": "midi",
        "subType": "noteOn",
        "typeByte": 148,
        "deltaTime": 8,
        "channel": 4,
        "note": 90,
        "velocity": 127
      },
      {
        "type": "midi",
        "subType": "noteOn",
        "typeByte": 148,
        "deltaTime": 0,
        "channel": 4,
        "note": 78,
        "velocity": 127
      },
      {
        "type": "midi",
        "subType": "noteOff",
        "typeByte": 148,
        "deltaTime": 42,
        "channel": 4,
        "note": 78,
        "velocity": 0
      },
      {
        "type": "midi",
        "subType": "noteOff",
        "typeByte": 148,
        "deltaTime": 0,
        "channel": 4,
        "note": 90,
        "velocity": 0
      },
      {
        "type": "midi",
        "subType": "noteOn",
        "typeByte": 148,
        "deltaTime": 7,
        "channel": 4,
        "note": 86,
        "velocity": 127
      },
      {
        "type": "midi",
        "subType": "noteOn",
        "typeByte": 148,
        "deltaTime": 1,
        "channel": 4,
        "note": 74,
        "velocity": 127
      },
      {
        "type": "midi",
        "subType": "noteOff",
        "typeByte": 148,
        "deltaTime": 41,
        "channel": 4,
        "note": 74,
        "velocity": 0
      },
      {
        "type": "midi",
        "subType": "noteOff",
        "typeByte": 148,
        "deltaTime": 0,
        "channel": 4,
        "note": 86,
        "velocity": 0
      },
      {
        "type": "midi",
        "subType": "noteOn",
        "typeByte": 148,
        "deltaTime": 6,
        "channel": 4,
        "note": 71,
        "velocity": 127
      },
      {
        "type": "midi",
        "subType": "noteOn",
        "typeByte": 148,
        "deltaTime": 0,
        "channel": 4,
        "note": 83,
        "velocity": 127
      },
      {
        "type": "midi",
        "subType": "noteOff",
        "typeByte": 148,
        "deltaTime": 34,
        "channel": 4,
        "note": 83,
        "velocity": 0
      },
      {
        "type": "midi",
        "subType": "noteOff",
        "typeByte": 148,
        "deltaTime": 0,
        "channel": 4,
        "note": 71,
        "velocity": 0
      },
      {
        "type": "midi",
        "subType": "noteOn",
        "typeByte": 148,
        "deltaTime": 62,
        "channel": 4,
        "note": 83,
        "velocity": 127
      },
      {
        "type": "midi",
        "subType": "noteOn",
        "typeByte": 148,
        "deltaTime": 1,
        "channel": 4,
        "note": 71,
        "velocity": 127
      },
      {
        "type": "midi",
        "subType": "noteOff",
        "typeByte": 148,
        "deltaTime": 42,
        "channel": 4,
        "note": 71,
        "velocity": 0
      },
      {
        "type": "midi",
        "subType": "noteOff",
        "typeByte": 148,
        "deltaTime": 0,
        "channel": 4,
        "note": 83,
        "velocity": 0
      },
      {
        "type": "midi",
        "subType": "noteOn",
        "typeByte": 148,
        "deltaTime": 53,
        "channel": 4,
        "note": 88,
        "velocity": 127
      },
      {
        "type": "midi",
        "subType": "noteOn",
        "typeByte": 148,
        "deltaTime": 0,
        "channel": 4,
        "note": 76,
        "velocity": 127
      },
      {
        "type": "midi",
        "subType": "noteOff",
        "typeByte": 148,
        "deltaTime": 46,
        "channel": 4,
        "note": 76,
        "velocity": 0
      },
      {
        "type": "midi",
        "subType": "noteOff",
        "typeByte": 148,
        "deltaTime": 0,
        "channel": 4,
        "note": 88,
        "velocity": 0
      },
      {
        "type": "midi",
        "subType": "noteOn",
        "typeByte": 148,
        "deltaTime": 50,
        "channel": 4,
        "note": 76,
        "velocity": 127
      },
      {
        "type": "midi",
        "subType": "noteOn",
        "typeByte": 148,
        "deltaTime": 0,
        "channel": 4,
        "note": 88,
        "velocity": 127
      },
      {
        "type": "midi",
        "subType": "noteOff",
        "typeByte": 148,
        "deltaTime": 50,
        "channel": 4,
        "note": 88,
        "velocity": 0
      },
      {
        "type": "midi",
        "subType": "noteOff",
        "typeByte": 148,
        "deltaTime": 0,
        "channel": 4,
        "note": 76,
        "velocity": 0
      },
      {
        "type": "midi",
        "subType": "noteOn",
        "typeByte": 148,
        "deltaTime": 47,
        "channel": 4,
        "note": 88,
        "velocity": 127
      },
      {
        "type": "midi",
        "subType": "noteOn",
        "typeByte": 148,
        "deltaTime": 0,
        "channel": 4,
        "note": 76,
        "velocity": 127
      },
      {
        "type": "midi",
        "subType": "noteOff",
        "typeByte": 148,
        "deltaTime": 45,
        "channel": 4,
        "note": 76,
        "velocity": 0
      },
      {
        "type": "midi",
        "subType": "noteOff",
        "typeByte": 148,
        "deltaTime": 0,
        "channel": 4,
        "note": 88,
        "velocity": 0
      },
      {
        "type": "midi",
        "subType": "noteOn",
        "typeByte": 148,
        "deltaTime": 4,
        "channel": 4,
        "note": 92,
        "velocity": 127
      },
      {
        "type": "midi",
        "subType": "noteOn",
        "typeByte": 148,
        "deltaTime": 0,
        "channel": 4,
        "note": 80,
        "velocity": 127
      },
      {
        "type": "midi",
        "subType": "noteOff",
        "typeByte": 148,
        "deltaTime": 40,
        "channel": 4,
        "note": 80,
        "velocity": 0
      },
      {
        "type": "midi",
        "subType": "noteOff",
        "typeByte": 148,
        "deltaTime": 0,
        "channel": 4,
        "note": 92,
        "velocity": 0
      },
      {
        "type": "midi",
        "subType": "noteOn",
        "typeByte": 148,
        "deltaTime": 7,
        "channel": 4,
        "note": 80,
        "velocity": 127
      },
      {
        "type": "midi",
        "subType": "noteOn",
        "typeByte": 148,
        "deltaTime": 0,
        "channel": 4,
        "note": 92,
        "velocity": 127
      },
      {
        "type": "midi",
        "subType": "noteOff",
        "typeByte": 148,
        "deltaTime": 39,
        "channel": 4,
        "note": 92,
        "velocity": 0
      },
      {
        "type": "midi",
        "subType": "noteOff",
        "typeByte": 148,
        "deltaTime": 0,
        "channel": 4,
        "note": 80,
        "velocity": 0
      },
      {
        "type": "midi",
        "subType": "noteOn",
        "typeByte": 148,
        "deltaTime": 10,
        "channel": 4,
        "note": 93,
        "velocity": 127
      },
      {
        "type": "midi",
        "subType": "noteOn",
        "typeByte": 148,
        "deltaTime": 0,
        "channel": 4,
        "note": 81,
        "velocity": 127
      },
      {
        "type": "midi",
        "subType": "noteOff",
        "typeByte": 148,
        "deltaTime": 39,
        "channel": 4,
        "note": 81,
        "velocity": 0
      },
      {
        "type": "midi",
        "subType": "noteOff",
        "typeByte": 148,
        "deltaTime": 0,
        "channel": 4,
        "note": 93,
        "velocity": 0
      },
      {
        "type": "midi",
        "subType": "noteOn",
        "typeByte": 148,
        "deltaTime": 8,
        "channel": 4,
        "note": 95,
        "velocity": 127
      },
      {
        "type": "midi",
        "subType": "noteOn",
        "typeByte": 148,
        "deltaTime": 0,
        "channel": 4,
        "note": 83,
        "velocity": 127
      },
      {
        "type": "midi",
        "subType": "noteOff",
        "typeByte": 148,
        "deltaTime": 42,
        "channel": 4,
        "note": 83,
        "velocity": 0
      },
      {
        "type": "midi",
        "subType": "noteOff",
        "typeByte": 148,
        "deltaTime": 0,
        "channel": 4,
        "note": 95,
        "velocity": 0
      },
      {
        "type": "midi",
        "subType": "noteOn",
        "typeByte": 148,
        "deltaTime": 7,
        "channel": 4,
        "note": 81,
        "velocity": 127
      },
      {
        "type": "midi",
        "subType": "noteOn",
        "typeByte": 148,
        "deltaTime": 1,
        "channel": 4,
        "note": 93,
        "velocity": 127
      },
      {
        "type": "midi",
        "subType": "noteOff",
        "typeByte": 148,
        "deltaTime": 33,
        "channel": 4,
        "note": 93,
        "velocity": 0
      },
      {
        "type": "midi",
        "subType": "noteOff",
        "typeByte": 148,
        "deltaTime": 0,
        "channel": 4,
        "note": 81,
        "velocity": 0
      },
      {
        "type": "midi",
        "subType": "noteOn",
        "typeByte": 148,
        "deltaTime": 14,
        "channel": 4,
        "note": 93,
        "velocity": 127
      },
      {
        "type": "midi",
        "subType": "noteOn",
        "typeByte": 148,
        "deltaTime": 0,
        "channel": 4,
        "note": 81,
        "velocity": 127
      },
      {
        "type": "midi",
        "subType": "noteOff",
        "typeByte": 148,
        "deltaTime": 37,
        "channel": 4,
        "note": 81,
        "velocity": 0
      },
      {
        "type": "midi",
        "subType": "noteOff",
        "typeByte": 148,
        "deltaTime": 0,
        "channel": 4,
        "note": 93,
        "velocity": 0
      },
      {
        "type": "midi",
        "subType": "noteOn",
        "typeByte": 148,
        "deltaTime": 12,
        "channel": 4,
        "note": 93,
        "velocity": 127
      },
      {
        "type": "midi",
        "subType": "noteOn",
        "typeByte": 148,
        "deltaTime": 0,
        "channel": 4,
        "note": 81,
        "velocity": 127
      },
      {
        "type": "midi",
        "subType": "noteOff",
        "typeByte": 148,
        "deltaTime": 28,
        "channel": 4,
        "note": 81,
        "velocity": 0
      },
      {
        "type": "midi",
        "subType": "noteOff",
        "typeByte": 148,
        "deltaTime": 0,
        "channel": 4,
        "note": 93,
        "velocity": 0
      },
      {
        "type": "midi",
        "subType": "noteOn",
        "typeByte": 148,
        "deltaTime": 19,
        "channel": 4,
        "note": 76,
        "velocity": 127
      },
      {
        "type": "midi",
        "subType": "noteOn",
        "typeByte": 148,
        "deltaTime": 0,
        "channel": 4,
        "note": 88,
        "velocity": 127
      },
      {
        "type": "midi",
        "subType": "noteOff",
        "typeByte": 148,
        "deltaTime": 33,
        "channel": 4,
        "note": 88,
        "velocity": 0
      },
      {
        "type": "midi",
        "subType": "noteOff",
        "typeByte": 148,
        "deltaTime": 0,
        "channel": 4,
        "note": 76,
        "velocity": 0
      },
      {
        "type": "midi",
        "subType": "noteOn",
        "typeByte": 148,
        "deltaTime": 64,
        "channel": 4,
        "note": 86,
        "velocity": 127
      },
      {
        "type": "midi",
        "subType": "noteOn",
        "typeByte": 148,
        "deltaTime": 0,
        "channel": 4,
        "note": 74,
        "velocity": 127
      },
      {
        "type": "midi",
        "subType": "noteOff",
        "typeByte": 148,
        "deltaTime": 26,
        "channel": 4,
        "note": 74,
        "velocity": 0
      },
      {
        "type": "midi",
        "subType": "noteOff",
        "typeByte": 148,
        "deltaTime": 0,
        "channel": 4,
        "note": 86,
        "velocity": 0
      },
      {
        "type": "midi",
        "subType": "noteOn",
        "typeByte": 148,
        "deltaTime": 70,
        "channel": 4,
        "note": 90,
        "velocity": 127
      },
      {
        "type": "midi",
        "subType": "noteOn",
        "typeByte": 148,
        "deltaTime": 0,
        "channel": 4,
        "note": 78,
        "velocity": 127
      },
      {
        "type": "midi",
        "subType": "noteOff",
        "typeByte": 148,
        "deltaTime": 33,
        "channel": 4,
        "note": 78,
        "velocity": 0
      },
      {
        "type": "midi",
        "subType": "noteOff",
        "typeByte": 148,
        "deltaTime": 0,
        "channel": 4,
        "note": 90,
        "velocity": 0
      },
      {
        "type": "midi",
        "subType": "noteOn",
        "typeByte": 148,
        "deltaTime": 63,
        "channel": 4,
        "note": 78,
        "velocity": 127
      },
      {
        "type": "midi",
        "subType": "noteOn",
        "typeByte": 148,
        "deltaTime": 0,
        "channel": 4,
        "note": 90,
        "velocity": 127
      },
      {
        "type": "midi",
        "subType": "noteOff",
        "typeByte": 148,
        "deltaTime": 39,
        "channel": 4,
        "note": 90,
        "velocity": 0
      },
      {
        "type": "midi",
        "subType": "noteOff",
        "typeByte": 148,
        "deltaTime": 0,
        "channel": 4,
        "note": 78,
        "velocity": 0
      },
      {
        "type": "midi",
        "subType": "noteOn",
        "typeByte": 148,
        "deltaTime": 57,
        "channel": 4,
        "note": 90,
        "velocity": 127
      },
      {
        "type": "midi",
        "subType": "noteOn",
        "typeByte": 148,
        "deltaTime": 0,
        "channel": 4,
        "note": 78,
        "velocity": 127
      },
      {
        "type": "midi",
        "subType": "noteOff",
        "typeByte": 148,
        "deltaTime": 42,
        "channel": 4,
        "note": 78,
        "velocity": 0
      },
      {
        "type": "midi",
        "subType": "noteOff",
        "typeByte": 148,
        "deltaTime": 0,
        "channel": 4,
        "note": 90,
        "velocity": 0
      },
      {
        "type": "midi",
        "subType": "noteOn",
        "typeByte": 148,
        "deltaTime": 8,
        "channel": 4,
        "note": 88,
        "velocity": 127
      },
      {
        "type": "midi",
        "subType": "noteOn",
        "typeByte": 148,
        "deltaTime": 0,
        "channel": 4,
        "note": 76,
        "velocity": 127
      },
      {
        "type": "midi",
        "subType": "noteOff",
        "typeByte": 148,
        "deltaTime": 36,
        "channel": 4,
        "note": 76,
        "velocity": 0
      },
      {
        "type": "midi",
        "subType": "noteOff",
        "typeByte": 148,
        "deltaTime": 0,
        "channel": 4,
        "note": 88,
        "velocity": 0
      },
      {
        "type": "midi",
        "subType": "noteOn",
        "typeByte": 148,
        "deltaTime": 11,
        "channel": 4,
        "note": 76,
        "velocity": 127
      },
      {
        "type": "midi",
        "subType": "noteOn",
        "typeByte": 148,
        "deltaTime": 0,
        "channel": 4,
        "note": 88,
        "velocity": 127
      },
      {
        "type": "midi",
        "subType": "noteOff",
        "typeByte": 148,
        "deltaTime": 46,
        "channel": 4,
        "note": 88,
        "velocity": 0
      },
      {
        "type": "midi",
        "subType": "noteOff",
        "typeByte": 148,
        "deltaTime": 0,
        "channel": 4,
        "note": 76,
        "velocity": 0
      },
      {
        "type": "midi",
        "subType": "noteOn",
        "typeByte": 148,
        "deltaTime": 2,
        "channel": 4,
        "note": 90,
        "velocity": 127
      },
      {
        "type": "midi",
        "subType": "noteOn",
        "typeByte": 148,
        "deltaTime": 0,
        "channel": 4,
        "note": 78,
        "velocity": 127
      },
      {
        "type": "midi",
        "subType": "noteOff",
        "typeByte": 148,
        "deltaTime": 40,
        "channel": 4,
        "note": 78,
        "velocity": 0
      },
      {
        "type": "midi",
        "subType": "noteOff",
        "typeByte": 148,
        "deltaTime": 0,
        "channel": 4,
        "note": 90,
        "velocity": 0
      },
      {
        "type": "midi",
        "subType": "noteOn",
        "typeByte": 148,
        "deltaTime": 8,
        "channel": 4,
        "note": 88,
        "velocity": 127
      },
      {
        "type": "midi",
        "subType": "noteOn",
        "typeByte": 148,
        "deltaTime": 0,
        "channel": 4,
        "note": 76,
        "velocity": 127
      },
      {
        "type": "midi",
        "subType": "noteOff",
        "typeByte": 148,
        "deltaTime": 43,
        "channel": 4,
        "note": 76,
        "velocity": 0
      },
      {
        "type": "midi",
        "subType": "noteOff",
        "typeByte": 148,
        "deltaTime": 0,
        "channel": 4,
        "note": 88,
        "velocity": 0
      },
      {
        "type": "midi",
        "subType": "noteOn",
        "typeByte": 148,
        "deltaTime": 7,
        "channel": 4,
        "note": 78,
        "velocity": 127
      },
      {
        "type": "midi",
        "subType": "noteOn",
        "typeByte": 148,
        "deltaTime": 0,
        "channel": 4,
        "note": 90,
        "velocity": 127
      },
      {
        "type": "midi",
        "subType": "noteOff",
        "typeByte": 148,
        "deltaTime": 33,
        "channel": 4,
        "note": 90,
        "velocity": 0
      },
      {
        "type": "midi",
        "subType": "noteOff",
        "typeByte": 148,
        "deltaTime": 0,
        "channel": 4,
        "note": 78,
        "velocity": 0
      },
      {
        "type": "midi",
        "subType": "noteOn",
        "typeByte": 148,
        "deltaTime": 13,
        "channel": 4,
        "note": 90,
        "velocity": 127
      },
      {
        "type": "midi",
        "subType": "noteOn",
        "typeByte": 148,
        "deltaTime": 0,
        "channel": 4,
        "note": 78,
        "velocity": 127
      },
      {
        "type": "midi",
        "subType": "noteOff",
        "typeByte": 148,
        "deltaTime": 47,
        "channel": 4,
        "note": 78,
        "velocity": 0
      },
      {
        "type": "midi",
        "subType": "noteOff",
        "typeByte": 148,
        "deltaTime": 0,
        "channel": 4,
        "note": 90,
        "velocity": 0
      },
      {
        "type": "midi",
        "subType": "noteOn",
        "typeByte": 148,
        "deltaTime": 2,
        "channel": 4,
        "note": 86,
        "velocity": 127
      },
      {
        "type": "midi",
        "subType": "noteOn",
        "typeByte": 148,
        "deltaTime": 0,
        "channel": 4,
        "note": 74,
        "velocity": 127
      },
      {
        "type": "midi",
        "subType": "noteOff",
        "typeByte": 148,
        "deltaTime": 47,
        "channel": 4,
        "note": 74,
        "velocity": 0
      },
      {
        "type": "midi",
        "subType": "noteOff",
        "typeByte": 148,
        "deltaTime": 0,
        "channel": 4,
        "note": 86,
        "velocity": 0
      },
      {
        "type": "midi",
        "subType": "noteOn",
        "typeByte": 148,
        "deltaTime": 1,
        "channel": 4,
        "note": 71,
        "velocity": 127
      },
      {
        "type": "midi",
        "subType": "noteOn",
        "typeByte": 148,
        "deltaTime": 0,
        "channel": 4,
        "note": 83,
        "velocity": 127
      },
      {
        "type": "midi",
        "subType": "noteOff",
        "typeByte": 148,
        "deltaTime": 41,
        "channel": 4,
        "note": 83,
        "velocity": 0
      },
      {
        "type": "midi",
        "subType": "noteOff",
        "typeByte": 148,
        "deltaTime": 0,
        "channel": 4,
        "note": 71,
        "velocity": 0
      },
      {
        "type": "midi",
        "subType": "noteOn",
        "typeByte": 148,
        "deltaTime": 55,
        "channel": 4,
        "note": 83,
        "velocity": 127
      },
      {
        "type": "midi",
        "subType": "noteOn",
        "typeByte": 148,
        "deltaTime": 0,
        "channel": 4,
        "note": 71,
        "velocity": 127
      },
      {
        "type": "midi",
        "subType": "noteOff",
        "typeByte": 148,
        "deltaTime": 49,
        "channel": 4,
        "note": 71,
        "velocity": 0
      },
      {
        "type": "midi",
        "subType": "noteOff",
        "typeByte": 148,
        "deltaTime": 0,
        "channel": 4,
        "note": 83,
        "velocity": 0
      },
      {
        "type": "midi",
        "subType": "noteOn",
        "typeByte": 148,
        "deltaTime": 47,
        "channel": 4,
        "note": 88,
        "velocity": 127
      },
      {
        "type": "midi",
        "subType": "noteOn",
        "typeByte": 148,
        "deltaTime": 0,
        "channel": 4,
        "note": 76,
        "velocity": 127
      },
      {
        "type": "midi",
        "subType": "noteOff",
        "typeByte": 148,
        "deltaTime": 42,
        "channel": 4,
        "note": 76,
        "velocity": 0
      },
      {
        "type": "midi",
        "subType": "noteOff",
        "typeByte": 148,
        "deltaTime": 0,
        "channel": 4,
        "note": 88,
        "velocity": 0
      },
      {
        "type": "midi",
        "subType": "noteOn",
        "typeByte": 148,
        "deltaTime": 54,
        "channel": 4,
        "note": 76,
        "velocity": 127
      },
      {
        "type": "midi",
        "subType": "noteOn",
        "typeByte": 148,
        "deltaTime": 0,
        "channel": 4,
        "note": 88,
        "velocity": 127
      },
      {
        "type": "midi",
        "subType": "noteOff",
        "typeByte": 148,
        "deltaTime": 47,
        "channel": 4,
        "note": 88,
        "velocity": 0
      },
      {
        "type": "midi",
        "subType": "noteOff",
        "typeByte": 148,
        "deltaTime": 0,
        "channel": 4,
        "note": 76,
        "velocity": 0
      },
      {
        "type": "midi",
        "subType": "noteOn",
        "typeByte": 148,
        "deltaTime": 49,
        "channel": 4,
        "note": 88,
        "velocity": 127
      },
      {
        "type": "midi",
        "subType": "noteOn",
        "typeByte": 148,
        "deltaTime": 0,
        "channel": 4,
        "note": 76,
        "velocity": 127
      },
      {
        "type": "midi",
        "subType": "noteOff",
        "typeByte": 148,
        "deltaTime": 47,
        "channel": 4,
        "note": 76,
        "velocity": 0
      },
      {
        "type": "midi",
        "subType": "noteOff",
        "typeByte": 148,
        "deltaTime": 0,
        "channel": 4,
        "note": 88,
        "velocity": 0
      },
      {
        "type": "midi",
        "subType": "noteOn",
        "typeByte": 148,
        "deltaTime": 3,
        "channel": 4,
        "note": 92,
        "velocity": 127
      },
      {
        "type": "midi",
        "subType": "noteOn",
        "typeByte": 148,
        "deltaTime": 0,
        "channel": 4,
        "note": 80,
        "velocity": 127
      },
      {
        "type": "midi",
        "subType": "noteOff",
        "typeByte": 148,
        "deltaTime": 38,
        "channel": 4,
        "note": 80,
        "velocity": 0
      },
      {
        "type": "midi",
        "subType": "noteOff",
        "typeByte": 148,
        "deltaTime": 0,
        "channel": 4,
        "note": 92,
        "velocity": 0
      },
      {
        "type": "midi",
        "subType": "noteOn",
        "typeByte": 148,
        "deltaTime": 9,
        "channel": 4,
        "note": 80,
        "velocity": 127
      },
      {
        "type": "midi",
        "subType": "noteOn",
        "typeByte": 148,
        "deltaTime": 0,
        "channel": 4,
        "note": 92,
        "velocity": 127
      },
      {
        "type": "midi",
        "subType": "noteOff",
        "typeByte": 148,
        "deltaTime": 41,
        "channel": 4,
        "note": 92,
        "velocity": 0
      },
      {
        "type": "midi",
        "subType": "noteOff",
        "typeByte": 148,
        "deltaTime": 0,
        "channel": 4,
        "note": 80,
        "velocity": 0
      },
      {
        "type": "midi",
        "subType": "noteOn",
        "typeByte": 148,
        "deltaTime": 8,
        "channel": 4,
        "note": 93,
        "velocity": 127
      },
      {
        "type": "midi",
        "subType": "noteOn",
        "typeByte": 148,
        "deltaTime": 0,
        "channel": 4,
        "note": 81,
        "velocity": 127
      },
      {
        "type": "midi",
        "subType": "noteOff",
        "typeByte": 148,
        "deltaTime": 42,
        "channel": 4,
        "note": 81,
        "velocity": 0
      },
      {
        "type": "midi",
        "subType": "noteOff",
        "typeByte": 148,
        "deltaTime": 0,
        "channel": 4,
        "note": 93,
        "velocity": 0
      },
      {
        "type": "midi",
        "subType": "noteOn",
        "typeByte": 148,
        "deltaTime": 5,
        "channel": 4,
        "note": 95,
        "velocity": 127
      },
      {
        "type": "midi",
        "subType": "noteOn",
        "typeByte": 148,
        "deltaTime": 0,
        "channel": 4,
        "note": 83,
        "velocity": 127
      },
      {
        "type": "midi",
        "subType": "noteOff",
        "typeByte": 148,
        "deltaTime": 47,
        "channel": 4,
        "note": 83,
        "velocity": 0
      },
      {
        "type": "midi",
        "subType": "noteOff",
        "typeByte": 148,
        "deltaTime": 0,
        "channel": 4,
        "note": 95,
        "velocity": 0
      },
      {
        "type": "midi",
        "subType": "noteOn",
        "typeByte": 148,
        "deltaTime": 3,
        "channel": 4,
        "note": 81,
        "velocity": 127
      },
      {
        "type": "midi",
        "subType": "noteOn",
        "typeByte": 148,
        "deltaTime": 0,
        "channel": 4,
        "note": 93,
        "velocity": 127
      },
      {
        "type": "midi",
        "subType": "noteOff",
        "typeByte": 148,
        "deltaTime": 36,
        "channel": 4,
        "note": 93,
        "velocity": 0
      },
      {
        "type": "midi",
        "subType": "noteOff",
        "typeByte": 148,
        "deltaTime": 0,
        "channel": 4,
        "note": 81,
        "velocity": 0
      },
      {
        "type": "midi",
        "subType": "noteOn",
        "typeByte": 148,
        "deltaTime": 10,
        "channel": 4,
        "note": 93,
        "velocity": 127
      },
      {
        "type": "midi",
        "subType": "noteOn",
        "typeByte": 148,
        "deltaTime": 0,
        "channel": 4,
        "note": 81,
        "velocity": 127
      },
      {
        "type": "midi",
        "subType": "noteOff",
        "typeByte": 148,
        "deltaTime": 42,
        "channel": 4,
        "note": 81,
        "velocity": 0
      },
      {
        "type": "midi",
        "subType": "noteOff",
        "typeByte": 148,
        "deltaTime": 0,
        "channel": 4,
        "note": 93,
        "velocity": 0
      },
      {
        "type": "midi",
        "subType": "noteOn",
        "typeByte": 148,
        "deltaTime": 7,
        "channel": 4,
        "note": 93,
        "velocity": 127
      },
      {
        "type": "midi",
        "subType": "noteOn",
        "typeByte": 148,
        "deltaTime": 1,
        "channel": 4,
        "note": 81,
        "velocity": 127
      },
      {
        "type": "midi",
        "subType": "noteOff",
        "typeByte": 148,
        "deltaTime": 37,
        "channel": 4,
        "note": 81,
        "velocity": 0
      },
      {
        "type": "midi",
        "subType": "noteOff",
        "typeByte": 148,
        "deltaTime": 0,
        "channel": 4,
        "note": 93,
        "velocity": 0
      },
      {
        "type": "midi",
        "subType": "noteOn",
        "typeByte": 148,
        "deltaTime": 10,
        "channel": 4,
        "note": 78,
        "velocity": 127
      },
      {
        "type": "midi",
        "subType": "noteOn",
        "typeByte": 148,
        "deltaTime": 0,
        "channel": 4,
        "note": 90,
        "velocity": 127
      },
      {
        "type": "midi",
        "subType": "noteOff",
        "typeByte": 148,
        "deltaTime": 41,
        "channel": 4,
        "note": 90,
        "velocity": 0
      },
      {
        "type": "midi",
        "subType": "noteOff",
        "typeByte": 148,
        "deltaTime": 0,
        "channel": 4,
        "note": 78,
        "velocity": 0
      },
      {
        "type": "midi",
        "subType": "noteOn",
        "typeByte": 148,
        "deltaTime": 55,
        "channel": 4,
        "note": 86,
        "velocity": 127
      },
      {
        "type": "midi",
        "subType": "noteOn",
        "typeByte": 148,
        "deltaTime": 1,
        "channel": 4,
        "note": 74,
        "velocity": 127
      },
      {
        "type": "midi",
        "subType": "noteOff",
        "typeByte": 148,
        "deltaTime": 36,
        "channel": 4,
        "note": 74,
        "velocity": 0
      },
      {
        "type": "midi",
        "subType": "noteOff",
        "typeByte": 148,
        "deltaTime": 0,
        "channel": 4,
        "note": 86,
        "velocity": 0
      },
      {
        "type": "midi",
        "subType": "noteOn",
        "typeByte": 148,
        "deltaTime": 59,
        "channel": 4,
        "note": 90,
        "velocity": 127
      },
      {
        "type": "midi",
        "subType": "noteOn",
        "typeByte": 148,
        "deltaTime": 0,
        "channel": 4,
        "note": 78,
        "velocity": 127
      },
      {
        "type": "midi",
        "subType": "noteOff",
        "typeByte": 148,
        "deltaTime": 42,
        "channel": 4,
        "note": 78,
        "velocity": 0
      },
      {
        "type": "midi",
        "subType": "noteOff",
        "typeByte": 148,
        "deltaTime": 0,
        "channel": 4,
        "note": 90,
        "velocity": 0
      },
      {
        "type": "midi",
        "subType": "noteOn",
        "typeByte": 148,
        "deltaTime": 54,
        "channel": 4,
        "note": 78,
        "velocity": 127
      },
      {
        "type": "midi",
        "subType": "noteOn",
        "typeByte": 148,
        "deltaTime": 1,
        "channel": 4,
        "note": 90,
        "velocity": 127
      },
      {
        "type": "midi",
        "subType": "noteOff",
        "typeByte": 148,
        "deltaTime": 41,
        "channel": 4,
        "note": 90,
        "velocity": 0
      },
      {
        "type": "midi",
        "subType": "noteOff",
        "typeByte": 148,
        "deltaTime": 0,
        "channel": 4,
        "note": 78,
        "velocity": 0
      },
      {
        "type": "midi",
        "subType": "noteOn",
        "typeByte": 148,
        "deltaTime": 55,
        "channel": 4,
        "note": 90,
        "velocity": 127
      },
      {
        "type": "midi",
        "subType": "noteOn",
        "typeByte": 148,
        "deltaTime": 0,
        "channel": 4,
        "note": 78,
        "velocity": 127
      },
      {
        "type": "midi",
        "subType": "noteOff",
        "typeByte": 148,
        "deltaTime": 41,
        "channel": 4,
        "note": 78,
        "velocity": 0
      },
      {
        "type": "midi",
        "subType": "noteOff",
        "typeByte": 148,
        "deltaTime": 0,
        "channel": 4,
        "note": 90,
        "velocity": 0
      },
      {
        "type": "midi",
        "subType": "noteOn",
        "typeByte": 148,
        "deltaTime": 8,
        "channel": 4,
        "note": 88,
        "velocity": 127
      },
      {
        "type": "midi",
        "subType": "noteOn",
        "typeByte": 148,
        "deltaTime": 0,
        "channel": 4,
        "note": 76,
        "velocity": 127
      },
      {
        "type": "midi",
        "subType": "noteOff",
        "typeByte": 148,
        "deltaTime": 43,
        "channel": 4,
        "note": 76,
        "velocity": 0
      },
      {
        "type": "midi",
        "subType": "noteOff",
        "typeByte": 148,
        "deltaTime": 0,
        "channel": 4,
        "note": 88,
        "velocity": 0
      },
      {
        "type": "midi",
        "subType": "noteOn",
        "typeByte": 148,
        "deltaTime": 4,
        "channel": 4,
        "note": 76,
        "velocity": 127
      },
      {
        "type": "midi",
        "subType": "noteOn",
        "typeByte": 148,
        "deltaTime": 1,
        "channel": 4,
        "note": 88,
        "velocity": 127
      },
      {
        "type": "midi",
        "subType": "noteOff",
        "typeByte": 148,
        "deltaTime": 42,
        "channel": 4,
        "note": 88,
        "velocity": 0
      },
      {
        "type": "midi",
        "subType": "noteOff",
        "typeByte": 148,
        "deltaTime": 0,
        "channel": 4,
        "note": 76,
        "velocity": 0
      },
      {
        "type": "midi",
        "subType": "noteOn",
        "typeByte": 148,
        "deltaTime": 6,
        "channel": 4,
        "note": 76,
        "velocity": 127
      },
      {
        "type": "midi",
        "subType": "noteOn",
        "typeByte": 148,
        "deltaTime": 1,
        "channel": 4,
        "note": 88,
        "velocity": 127
      },
      {
        "type": "midi",
        "subType": "noteOff",
        "typeByte": 148,
        "deltaTime": 38,
        "channel": 4,
        "note": 88,
        "velocity": 0
      },
      {
        "type": "midi",
        "subType": "noteOff",
        "typeByte": 148,
        "deltaTime": 0,
        "channel": 4,
        "note": 76,
        "velocity": 0
      },
      {
        "type": "midi",
        "subType": "noteOn",
        "typeByte": 148,
        "deltaTime": 26249,
        "channel": 4,
        "note": 78,
        "velocity": 127
      },
      {
        "type": "midi",
        "subType": "noteOn",
        "typeByte": 148,
        "deltaTime": 0,
        "channel": 4,
        "note": 90,
        "velocity": 127
      },
      {
        "type": "midi",
        "subType": "noteOff",
        "typeByte": 148,
        "deltaTime": 35,
        "channel": 4,
        "note": 90,
        "velocity": 0
      },
      {
        "type": "midi",
        "subType": "noteOff",
        "typeByte": 148,
        "deltaTime": 0,
        "channel": 4,
        "note": 78,
        "velocity": 0
      },
      {
        "type": "midi",
        "subType": "noteOn",
        "typeByte": 148,
        "deltaTime": 14,
        "channel": 4,
        "note": 90,
        "velocity": 127
      },
      {
        "type": "midi",
        "subType": "noteOn",
        "typeByte": 148,
        "deltaTime": 0,
        "channel": 4,
        "note": 78,
        "velocity": 127
      },
      {
        "type": "midi",
        "subType": "noteOff",
        "typeByte": 148,
        "deltaTime": 47,
        "channel": 4,
        "note": 78,
        "velocity": 0
      },
      {
        "type": "midi",
        "subType": "noteOff",
        "typeByte": 148,
        "deltaTime": 0,
        "channel": 4,
        "note": 90,
        "velocity": 0
      },
      {
        "type": "midi",
        "subType": "noteOn",
        "typeByte": 148,
        "deltaTime": 1,
        "channel": 4,
        "note": 86,
        "velocity": 127
      },
      {
        "type": "midi",
        "subType": "noteOn",
        "typeByte": 148,
        "deltaTime": 0,
        "channel": 4,
        "note": 74,
        "velocity": 127
      },
      {
        "type": "midi",
        "subType": "noteOff",
        "typeByte": 148,
        "deltaTime": 47,
        "channel": 4,
        "note": 74,
        "velocity": 0
      },
      {
        "type": "midi",
        "subType": "noteOff",
        "typeByte": 148,
        "deltaTime": 0,
        "channel": 4,
        "note": 86,
        "velocity": 0
      },
      {
        "type": "midi",
        "subType": "noteOn",
        "typeByte": 148,
        "deltaTime": 1,
        "channel": 4,
        "note": 71,
        "velocity": 127
      },
      {
        "type": "midi",
        "subType": "noteOn",
        "typeByte": 148,
        "deltaTime": 0,
        "channel": 4,
        "note": 83,
        "velocity": 127
      },
      {
        "type": "midi",
        "subType": "noteOff",
        "typeByte": 148,
        "deltaTime": 42,
        "channel": 4,
        "note": 83,
        "velocity": 0
      },
      {
        "type": "midi",
        "subType": "noteOff",
        "typeByte": 148,
        "deltaTime": 0,
        "channel": 4,
        "note": 71,
        "velocity": 0
      },
      {
        "type": "midi",
        "subType": "noteOn",
        "typeByte": 148,
        "deltaTime": 55,
        "channel": 4,
        "note": 83,
        "velocity": 127
      },
      {
        "type": "midi",
        "subType": "noteOn",
        "typeByte": 148,
        "deltaTime": 0,
        "channel": 4,
        "note": 71,
        "velocity": 127
      },
      {
        "type": "midi",
        "subType": "noteOff",
        "typeByte": 148,
        "deltaTime": 47,
        "channel": 4,
        "note": 71,
        "velocity": 0
      },
      {
        "type": "midi",
        "subType": "noteOff",
        "typeByte": 148,
        "deltaTime": 0,
        "channel": 4,
        "note": 83,
        "velocity": 0
      },
      {
        "type": "midi",
        "subType": "noteOn",
        "typeByte": 148,
        "deltaTime": 49,
        "channel": 4,
        "note": 88,
        "velocity": 127
      },
      {
        "type": "midi",
        "subType": "noteOn",
        "typeByte": 148,
        "deltaTime": 0,
        "channel": 4,
        "note": 76,
        "velocity": 127
      },
      {
        "type": "midi",
        "subType": "noteOff",
        "typeByte": 148,
        "deltaTime": 42,
        "channel": 4,
        "note": 76,
        "velocity": 0
      },
      {
        "type": "midi",
        "subType": "noteOff",
        "typeByte": 148,
        "deltaTime": 0,
        "channel": 4,
        "note": 88,
        "velocity": 0
      },
      {
        "type": "midi",
        "subType": "noteOn",
        "typeByte": 148,
        "deltaTime": 54,
        "channel": 4,
        "note": 76,
        "velocity": 127
      },
      {
        "type": "midi",
        "subType": "noteOn",
        "typeByte": 148,
        "deltaTime": 0,
        "channel": 4,
        "note": 88,
        "velocity": 127
      },
      {
        "type": "midi",
        "subType": "noteOff",
        "typeByte": 148,
        "deltaTime": 47,
        "channel": 4,
        "note": 88,
        "velocity": 0
      },
      {
        "type": "midi",
        "subType": "noteOff",
        "typeByte": 148,
        "deltaTime": 0,
        "channel": 4,
        "note": 76,
        "velocity": 0
      },
      {
        "type": "midi",
        "subType": "noteOn",
        "typeByte": 148,
        "deltaTime": 49,
        "channel": 4,
        "note": 88,
        "velocity": 127
      },
      {
        "type": "midi",
        "subType": "noteOn",
        "typeByte": 148,
        "deltaTime": 0,
        "channel": 4,
        "note": 76,
        "velocity": 127
      },
      {
        "type": "midi",
        "subType": "noteOff",
        "typeByte": 148,
        "deltaTime": 48,
        "channel": 4,
        "note": 76,
        "velocity": 0
      },
      {
        "type": "midi",
        "subType": "noteOff",
        "typeByte": 148,
        "deltaTime": 0,
        "channel": 4,
        "note": 88,
        "velocity": 0
      },
      {
        "type": "midi",
        "subType": "noteOn",
        "typeByte": 148,
        "deltaTime": 0,
        "channel": 4,
        "note": 92,
        "velocity": 127
      },
      {
        "type": "midi",
        "subType": "noteOn",
        "typeByte": 148,
        "deltaTime": 1,
        "channel": 4,
        "note": 80,
        "velocity": 127
      },
      {
        "type": "midi",
        "subType": "noteOff",
        "typeByte": 148,
        "deltaTime": 38,
        "channel": 4,
        "note": 80,
        "velocity": 0
      },
      {
        "type": "midi",
        "subType": "noteOff",
        "typeByte": 148,
        "deltaTime": 0,
        "channel": 4,
        "note": 92,
        "velocity": 0
      },
      {
        "type": "midi",
        "subType": "noteOn",
        "typeByte": 148,
        "deltaTime": 10,
        "channel": 4,
        "note": 80,
        "velocity": 127
      },
      {
        "type": "midi",
        "subType": "noteOn",
        "typeByte": 148,
        "deltaTime": 0,
        "channel": 4,
        "note": 92,
        "velocity": 127
      },
      {
        "type": "midi",
        "subType": "noteOff",
        "typeByte": 148,
        "deltaTime": 42,
        "channel": 4,
        "note": 92,
        "velocity": 0
      },
      {
        "type": "midi",
        "subType": "noteOff",
        "typeByte": 148,
        "deltaTime": 0,
        "channel": 4,
        "note": 80,
        "velocity": 0
      },
      {
        "type": "midi",
        "subType": "noteOn",
        "typeByte": 148,
        "deltaTime": 5,
        "channel": 4,
        "note": 93,
        "velocity": 127
      },
      {
        "type": "midi",
        "subType": "noteOn",
        "typeByte": 148,
        "deltaTime": 0,
        "channel": 4,
        "note": 81,
        "velocity": 127
      },
      {
        "type": "midi",
        "subType": "noteOff",
        "typeByte": 148,
        "deltaTime": 43,
        "channel": 4,
        "note": 81,
        "velocity": 0
      },
      {
        "type": "midi",
        "subType": "noteOff",
        "typeByte": 148,
        "deltaTime": 0,
        "channel": 4,
        "note": 93,
        "velocity": 0
      },
      {
        "type": "midi",
        "subType": "noteOn",
        "typeByte": 148,
        "deltaTime": 6,
        "channel": 4,
        "note": 95,
        "velocity": 127
      },
      {
        "type": "midi",
        "subType": "noteOn",
        "typeByte": 148,
        "deltaTime": 0,
        "channel": 4,
        "note": 83,
        "velocity": 127
      },
      {
        "type": "midi",
        "subType": "noteOff",
        "typeByte": 148,
        "deltaTime": 47,
        "channel": 4,
        "note": 95,
        "velocity": 0
      },
      {
        "type": "midi",
        "subType": "noteOff",
        "typeByte": 148,
        "deltaTime": 1,
        "channel": 4,
        "note": 83,
        "velocity": 0
      },
      {
        "type": "midi",
        "subType": "noteOn",
        "typeByte": 148,
        "deltaTime": 0,
        "channel": 4,
        "note": 78,
        "velocity": 127
      },
      {
        "type": "midi",
        "subType": "noteOn",
        "typeByte": 148,
        "deltaTime": 0,
        "channel": 4,
        "note": 90,
        "velocity": 127
      },
      {
        "type": "midi",
        "subType": "noteOff",
        "typeByte": 148,
        "deltaTime": 35,
        "channel": 4,
        "note": 90,
        "velocity": 0
      },
      {
        "type": "midi",
        "subType": "noteOff",
        "typeByte": 148,
        "deltaTime": 0,
        "channel": 4,
        "note": 78,
        "velocity": 0
      },
      {
        "type": "midi",
        "subType": "noteOn",
        "typeByte": 148,
        "deltaTime": 13,
        "channel": 4,
        "note": 90,
        "velocity": 127
      },
      {
        "type": "midi",
        "subType": "noteOn",
        "typeByte": 148,
        "deltaTime": 0,
        "channel": 4,
        "note": 78,
        "velocity": 127
      },
      {
        "type": "midi",
        "subType": "noteOff",
        "typeByte": 148,
        "deltaTime": 48,
        "channel": 4,
        "note": 78,
        "velocity": 0
      },
      {
        "type": "midi",
        "subType": "noteOff",
        "typeByte": 148,
        "deltaTime": 0,
        "channel": 4,
        "note": 90,
        "velocity": 0
      },
      {
        "type": "midi",
        "subType": "noteOn",
        "typeByte": 148,
        "deltaTime": 0,
        "channel": 4,
        "note": 86,
        "velocity": 127
      },
      {
        "type": "midi",
        "subType": "noteOn",
        "typeByte": 148,
        "deltaTime": 0,
        "channel": 4,
        "note": 74,
        "velocity": 127
      },
      {
        "type": "midi",
        "subType": "noteOff",
        "typeByte": 148,
        "deltaTime": 47,
        "channel": 4,
        "note": 74,
        "velocity": 0
      },
      {
        "type": "midi",
        "subType": "noteOff",
        "typeByte": 148,
        "deltaTime": 0,
        "channel": 4,
        "note": 86,
        "velocity": 0
      },
      {
        "type": "midi",
        "subType": "noteOn",
        "typeByte": 148,
        "deltaTime": 2,
        "channel": 4,
        "note": 71,
        "velocity": 127
      },
      {
        "type": "midi",
        "subType": "noteOn",
        "typeByte": 148,
        "deltaTime": 0,
        "channel": 4,
        "note": 83,
        "velocity": 127
      },
      {
        "type": "midi",
        "subType": "noteOff",
        "typeByte": 148,
        "deltaTime": 42,
        "channel": 4,
        "note": 83,
        "velocity": 0
      },
      {
        "type": "midi",
        "subType": "noteOff",
        "typeByte": 148,
        "deltaTime": 0,
        "channel": 4,
        "note": 71,
        "velocity": 0
      },
      {
        "type": "midi",
        "subType": "noteOn",
        "typeByte": 148,
        "deltaTime": 54,
        "channel": 4,
        "note": 83,
        "velocity": 127
      },
      {
        "type": "midi",
        "subType": "noteOn",
        "typeByte": 148,
        "deltaTime": 0,
        "channel": 4,
        "note": 71,
        "velocity": 127
      },
      {
        "type": "midi",
        "subType": "noteOff",
        "typeByte": 148,
        "deltaTime": 47,
        "channel": 4,
        "note": 71,
        "velocity": 0
      },
      {
        "type": "midi",
        "subType": "noteOff",
        "typeByte": 148,
        "deltaTime": 0,
        "channel": 4,
        "note": 83,
        "velocity": 0
      },
      {
        "type": "midi",
        "subType": "noteOn",
        "typeByte": 148,
        "deltaTime": 49,
        "channel": 4,
        "note": 88,
        "velocity": 127
      },
      {
        "type": "midi",
        "subType": "noteOn",
        "typeByte": 148,
        "deltaTime": 0,
        "channel": 4,
        "note": 76,
        "velocity": 127
      },
      {
        "type": "midi",
        "subType": "noteOff",
        "typeByte": 148,
        "deltaTime": 42,
        "channel": 4,
        "note": 76,
        "velocity": 0
      },
      {
        "type": "midi",
        "subType": "noteOff",
        "typeByte": 148,
        "deltaTime": 0,
        "channel": 4,
        "note": 88,
        "velocity": 0
      },
      {
        "type": "midi",
        "subType": "noteOn",
        "typeByte": 148,
        "deltaTime": 54,
        "channel": 4,
        "note": 76,
        "velocity": 127
      },
      {
        "type": "midi",
        "subType": "noteOn",
        "typeByte": 148,
        "deltaTime": 1,
        "channel": 4,
        "note": 88,
        "velocity": 127
      },
      {
        "type": "midi",
        "subType": "noteOff",
        "typeByte": 148,
        "deltaTime": 47,
        "channel": 4,
        "note": 88,
        "velocity": 0
      },
      {
        "type": "midi",
        "subType": "noteOff",
        "typeByte": 148,
        "deltaTime": 0,
        "channel": 4,
        "note": 76,
        "velocity": 0
      },
      {
        "type": "midi",
        "subType": "noteOn",
        "typeByte": 148,
        "deltaTime": 49,
        "channel": 4,
        "note": 88,
        "velocity": 127
      },
      {
        "type": "midi",
        "subType": "noteOn",
        "typeByte": 148,
        "deltaTime": 0,
        "channel": 4,
        "note": 76,
        "velocity": 127
      },
      {
        "type": "midi",
        "subType": "noteOff",
        "typeByte": 148,
        "deltaTime": 47,
        "channel": 4,
        "note": 76,
        "velocity": 0
      },
      {
        "type": "midi",
        "subType": "noteOff",
        "typeByte": 148,
        "deltaTime": 0,
        "channel": 4,
        "note": 88,
        "velocity": 0
      },
      {
        "type": "midi",
        "subType": "noteOn",
        "typeByte": 148,
        "deltaTime": 1,
        "channel": 4,
        "note": 92,
        "velocity": 127
      },
      {
        "type": "midi",
        "subType": "noteOn",
        "typeByte": 148,
        "deltaTime": 0,
        "channel": 4,
        "note": 80,
        "velocity": 127
      },
      {
        "type": "midi",
        "subType": "noteOff",
        "typeByte": 148,
        "deltaTime": 38,
        "channel": 4,
        "note": 80,
        "velocity": 0
      },
      {
        "type": "midi",
        "subType": "noteOff",
        "typeByte": 148,
        "deltaTime": 0,
        "channel": 4,
        "note": 92,
        "velocity": 0
      },
      {
        "type": "midi",
        "subType": "noteOn",
        "typeByte": 148,
        "deltaTime": 10,
        "channel": 4,
        "note": 80,
        "velocity": 127
      },
      {
        "type": "midi",
        "subType": "noteOn",
        "typeByte": 148,
        "deltaTime": 1,
        "channel": 4,
        "note": 92,
        "velocity": 127
      },
      {
        "type": "midi",
        "subType": "noteOff",
        "typeByte": 148,
        "deltaTime": 41,
        "channel": 4,
        "note": 92,
        "velocity": 0
      },
      {
        "type": "midi",
        "subType": "noteOff",
        "typeByte": 148,
        "deltaTime": 0,
        "channel": 4,
        "note": 80,
        "velocity": 0
      },
      {
        "type": "midi",
        "subType": "noteOn",
        "typeByte": 148,
        "deltaTime": 6,
        "channel": 4,
        "note": 93,
        "velocity": 127
      },
      {
        "type": "midi",
        "subType": "noteOn",
        "typeByte": 148,
        "deltaTime": 0,
        "channel": 4,
        "note": 81,
        "velocity": 127
      },
      {
        "type": "midi",
        "subType": "noteOff",
        "typeByte": 148,
        "deltaTime": 43,
        "channel": 4,
        "note": 81,
        "velocity": 0
      },
      {
        "type": "midi",
        "subType": "noteOff",
        "typeByte": 148,
        "deltaTime": 0,
        "channel": 4,
        "note": 93,
        "velocity": 0
      },
      {
        "type": "midi",
        "subType": "noteOn",
        "typeByte": 148,
        "deltaTime": 5,
        "channel": 4,
        "note": 95,
        "velocity": 127
      },
      {
        "type": "midi",
        "subType": "noteOn",
        "typeByte": 148,
        "deltaTime": 0,
        "channel": 4,
        "note": 83,
        "velocity": 127
      },
      {
        "type": "midi",
        "subType": "noteOff",
        "typeByte": 148,
        "deltaTime": 44,
        "channel": 4,
        "note": 83,
        "velocity": 0
      },
      {
        "type": "midi",
        "subType": "noteOff",
        "typeByte": 148,
        "deltaTime": 0,
        "channel": 4,
        "note": 95,
        "velocity": 0
      },
      {
        "type": "midi",
        "subType": "noteOn",
        "typeByte": 148,
        "deltaTime": 4,
        "channel": 4,
        "note": 78,
        "velocity": 127
      },
      {
        "type": "midi",
        "subType": "noteOn",
        "typeByte": 148,
        "deltaTime": 1,
        "channel": 4,
        "note": 90,
        "velocity": 127
      },
      {
        "type": "midi",
        "subType": "noteOff",
        "typeByte": 148,
        "deltaTime": 34,
        "channel": 4,
        "note": 90,
        "velocity": 0
      },
      {
        "type": "midi",
        "subType": "noteOff",
        "typeByte": 148,
        "deltaTime": 0,
        "channel": 4,
        "note": 78,
        "velocity": 0
      },
      {
        "type": "midi",
        "subType": "noteOn",
        "typeByte": 148,
        "deltaTime": 14,
        "channel": 4,
        "note": 90,
        "velocity": 127
      },
      {
        "type": "midi",
        "subType": "noteOn",
        "typeByte": 148,
        "deltaTime": 0,
        "channel": 4,
        "note": 78,
        "velocity": 127
      },
      {
        "type": "midi",
        "subType": "noteOff",
        "typeByte": 148,
        "deltaTime": 48,
        "channel": 4,
        "note": 78,
        "velocity": 0
      },
      {
        "type": "midi",
        "subType": "noteOff",
        "typeByte": 148,
        "deltaTime": 0,
        "channel": 4,
        "note": 90,
        "velocity": 0
      },
      {
        "type": "midi",
        "subType": "noteOn",
        "typeByte": 148,
        "deltaTime": 0,
        "channel": 4,
        "note": 86,
        "velocity": 127
      },
      {
        "type": "midi",
        "subType": "noteOn",
        "typeByte": 148,
        "deltaTime": 0,
        "channel": 4,
        "note": 74,
        "velocity": 127
      },
      {
        "type": "midi",
        "subType": "noteOff",
        "typeByte": 148,
        "deltaTime": 46,
        "channel": 4,
        "note": 74,
        "velocity": 0
      },
      {
        "type": "midi",
        "subType": "noteOff",
        "typeByte": 148,
        "deltaTime": 0,
        "channel": 4,
        "note": 86,
        "velocity": 0
      },
      {
        "type": "midi",
        "subType": "noteOn",
        "typeByte": 148,
        "deltaTime": 2,
        "channel": 4,
        "note": 71,
        "velocity": 127
      },
      {
        "type": "midi",
        "subType": "noteOn",
        "typeByte": 148,
        "deltaTime": 0,
        "channel": 4,
        "note": 83,
        "velocity": 127
      },
      {
        "type": "midi",
        "subType": "noteOff",
        "typeByte": 148,
        "deltaTime": 42,
        "channel": 4,
        "note": 83,
        "velocity": 0
      },
      {
        "type": "midi",
        "subType": "noteOff",
        "typeByte": 148,
        "deltaTime": 0,
        "channel": 4,
        "note": 71,
        "velocity": 0
      },
      {
        "type": "midi",
        "subType": "noteOn",
        "typeByte": 148,
        "deltaTime": 55,
        "channel": 4,
        "note": 83,
        "velocity": 127
      },
      {
        "type": "midi",
        "subType": "noteOn",
        "typeByte": 148,
        "deltaTime": 0,
        "channel": 4,
        "note": 71,
        "velocity": 127
      },
      {
        "type": "midi",
        "subType": "noteOff",
        "typeByte": 148,
        "deltaTime": 48,
        "channel": 4,
        "note": 71,
        "velocity": 0
      },
      {
        "type": "midi",
        "subType": "noteOff",
        "typeByte": 148,
        "deltaTime": 0,
        "channel": 4,
        "note": 83,
        "velocity": 0
      },
      {
        "type": "midi",
        "subType": "noteOn",
        "typeByte": 148,
        "deltaTime": 48,
        "channel": 4,
        "note": 88,
        "velocity": 127
      },
      {
        "type": "midi",
        "subType": "noteOn",
        "typeByte": 148,
        "deltaTime": 0,
        "channel": 4,
        "note": 76,
        "velocity": 127
      },
      {
        "type": "midi",
        "subType": "noteOff",
        "typeByte": 148,
        "deltaTime": 41,
        "channel": 4,
        "note": 76,
        "velocity": 0
      },
      {
        "type": "midi",
        "subType": "noteOff",
        "typeByte": 148,
        "deltaTime": 0,
        "channel": 4,
        "note": 88,
        "velocity": 0
      },
      {
        "type": "midi",
        "subType": "noteOn",
        "typeByte": 148,
        "deltaTime": 55,
        "channel": 4,
        "note": 76,
        "velocity": 127
      },
      {
        "type": "midi",
        "subType": "noteOn",
        "typeByte": 148,
        "deltaTime": 0,
        "channel": 4,
        "note": 88,
        "velocity": 127
      },
      {
        "type": "midi",
        "subType": "noteOff",
        "typeByte": 148,
        "deltaTime": 48,
        "channel": 4,
        "note": 88,
        "velocity": 0
      },
      {
        "type": "midi",
        "subType": "noteOff",
        "typeByte": 148,
        "deltaTime": 0,
        "channel": 4,
        "note": 76,
        "velocity": 0
      },
      {
        "type": "midi",
        "subType": "noteOn",
        "typeByte": 148,
        "deltaTime": 48,
        "channel": 4,
        "note": 88,
        "velocity": 127
      },
      {
        "type": "midi",
        "subType": "noteOn",
        "typeByte": 148,
        "deltaTime": 0,
        "channel": 4,
        "note": 76,
        "velocity": 127
      },
      {
        "type": "midi",
        "subType": "noteOff",
        "typeByte": 148,
        "deltaTime": 49,
        "channel": 4,
        "note": 76,
        "velocity": 0
      },
      {
        "type": "midi",
        "subType": "noteOff",
        "typeByte": 148,
        "deltaTime": 0,
        "channel": 4,
        "note": 88,
        "velocity": 0
      },
      {
        "type": "midi",
        "subType": "noteOn",
        "typeByte": 148,
        "deltaTime": 0,
        "channel": 4,
        "note": 92,
        "velocity": 127
      },
      {
        "type": "midi",
        "subType": "noteOn",
        "typeByte": 148,
        "deltaTime": 0,
        "channel": 4,
        "note": 80,
        "velocity": 127
      },
      {
        "type": "midi",
        "subType": "noteOff",
        "typeByte": 148,
        "deltaTime": 38,
        "channel": 4,
        "note": 80,
        "velocity": 0
      },
      {
        "type": "midi",
        "subType": "noteOff",
        "typeByte": 148,
        "deltaTime": 0,
        "channel": 4,
        "note": 92,
        "velocity": 0
      },
      {
        "type": "midi",
        "subType": "noteOn",
        "typeByte": 148,
        "deltaTime": 10,
        "channel": 4,
        "note": 80,
        "velocity": 127
      },
      {
        "type": "midi",
        "subType": "noteOn",
        "typeByte": 148,
        "deltaTime": 0,
        "channel": 4,
        "note": 92,
        "velocity": 127
      },
      {
        "type": "midi",
        "subType": "noteOff",
        "typeByte": 148,
        "deltaTime": 41,
        "channel": 4,
        "note": 92,
        "velocity": 0
      },
      {
        "type": "midi",
        "subType": "noteOff",
        "typeByte": 148,
        "deltaTime": 0,
        "channel": 4,
        "note": 80,
        "velocity": 0
      },
      {
        "type": "midi",
        "subType": "noteOn",
        "typeByte": 148,
        "deltaTime": 6,
        "channel": 4,
        "note": 93,
        "velocity": 127
      },
      {
        "type": "midi",
        "subType": "noteOn",
        "typeByte": 148,
        "deltaTime": 0,
        "channel": 4,
        "note": 81,
        "velocity": 127
      },
      {
        "type": "midi",
        "subType": "noteOff",
        "typeByte": 148,
        "deltaTime": 43,
        "channel": 4,
        "note": 81,
        "velocity": 0
      },
      {
        "type": "midi",
        "subType": "noteOff",
        "typeByte": 148,
        "deltaTime": 0,
        "channel": 4,
        "note": 93,
        "velocity": 0
      },
      {
        "type": "midi",
        "subType": "noteOn",
        "typeByte": 148,
        "deltaTime": 6,
        "channel": 4,
        "note": 95,
        "velocity": 127
      },
      {
        "type": "midi",
        "subType": "noteOn",
        "typeByte": 148,
        "deltaTime": 0,
        "channel": 4,
        "note": 83,
        "velocity": 127
      },
      {
        "type": "midi",
        "subType": "noteOff",
        "typeByte": 148,
        "deltaTime": 48,
        "channel": 4,
        "note": 83,
        "velocity": 0
      },
      {
        "type": "midi",
        "subType": "noteOff",
        "typeByte": 148,
        "deltaTime": 0,
        "channel": 4,
        "note": 95,
        "velocity": 0
      },
      {
        "type": "midi",
        "subType": "noteOn",
        "typeByte": 148,
        "deltaTime": 0,
        "channel": 4,
        "note": 81,
        "velocity": 127
      },
      {
        "type": "midi",
        "subType": "noteOn",
        "typeByte": 148,
        "deltaTime": 0,
        "channel": 4,
        "note": 93,
        "velocity": 127
      },
      {
        "type": "midi",
        "subType": "noteOff",
        "typeByte": 148,
        "deltaTime": 37,
        "channel": 4,
        "note": 93,
        "velocity": 0
      },
      {
        "type": "midi",
        "subType": "noteOff",
        "typeByte": 148,
        "deltaTime": 0,
        "channel": 4,
        "note": 81,
        "velocity": 0
      },
      {
        "type": "midi",
        "subType": "noteOn",
        "typeByte": 148,
        "deltaTime": 11,
        "channel": 4,
        "note": 93,
        "velocity": 127
      },
      {
        "type": "midi",
        "subType": "noteOn",
        "typeByte": 148,
        "deltaTime": 0,
        "channel": 4,
        "note": 81,
        "velocity": 127
      },
      {
        "type": "midi",
        "subType": "noteOff",
        "typeByte": 148,
        "deltaTime": 41,
        "channel": 4,
        "note": 81,
        "velocity": 0
      },
      {
        "type": "midi",
        "subType": "noteOff",
        "typeByte": 148,
        "deltaTime": 0,
        "channel": 4,
        "note": 93,
        "velocity": 0
      },
      {
        "type": "midi",
        "subType": "noteOn",
        "typeByte": 148,
        "deltaTime": 7,
        "channel": 4,
        "note": 93,
        "velocity": 127
      },
      {
        "type": "midi",
        "subType": "noteOn",
        "typeByte": 148,
        "deltaTime": 0,
        "channel": 4,
        "note": 81,
        "velocity": 127
      },
      {
        "type": "midi",
        "subType": "noteOff",
        "typeByte": 148,
        "deltaTime": 37,
        "channel": 4,
        "note": 81,
        "velocity": 0
      },
      {
        "type": "midi",
        "subType": "noteOff",
        "typeByte": 148,
        "deltaTime": 0,
        "channel": 4,
        "note": 93,
        "velocity": 0
      },
      {
        "type": "midi",
        "subType": "noteOn",
        "typeByte": 148,
        "deltaTime": 12,
        "channel": 4,
        "note": 76,
        "velocity": 127
      },
      {
        "type": "midi",
        "subType": "noteOn",
        "typeByte": 148,
        "deltaTime": 0,
        "channel": 4,
        "note": 88,
        "velocity": 127
      },
      {
        "type": "midi",
        "subType": "noteOff",
        "typeByte": 148,
        "deltaTime": 40,
        "channel": 4,
        "note": 88,
        "velocity": 0
      },
      {
        "type": "midi",
        "subType": "noteOff",
        "typeByte": 148,
        "deltaTime": 0,
        "channel": 4,
        "note": 76,
        "velocity": 0
      },
      {
        "type": "midi",
        "subType": "noteOn",
        "typeByte": 148,
        "deltaTime": 56,
        "channel": 4,
        "note": 86,
        "velocity": 127
      },
      {
        "type": "midi",
        "subType": "noteOn",
        "typeByte": 148,
        "deltaTime": 1,
        "channel": 4,
        "note": 74,
        "velocity": 127
      },
      {
        "type": "midi",
        "subType": "noteOff",
        "typeByte": 148,
        "deltaTime": 36,
        "channel": 4,
        "note": 74,
        "velocity": 0
      },
      {
        "type": "midi",
        "subType": "noteOff",
        "typeByte": 148,
        "deltaTime": 0,
        "channel": 4,
        "note": 86,
        "velocity": 0
      },
      {
        "type": "midi",
        "subType": "noteOn",
        "typeByte": 148,
        "deltaTime": 59,
        "channel": 4,
        "note": 90,
        "velocity": 127
      },
      {
        "type": "midi",
        "subType": "noteOn",
        "typeByte": 148,
        "deltaTime": 0,
        "channel": 4,
        "note": 78,
        "velocity": 127
      },
      {
        "type": "midi",
        "subType": "noteOff",
        "typeByte": 148,
        "deltaTime": 42,
        "channel": 4,
        "note": 78,
        "velocity": 0
      },
      {
        "type": "midi",
        "subType": "noteOff",
        "typeByte": 148,
        "deltaTime": 0,
        "channel": 4,
        "note": 90,
        "velocity": 0
      },
      {
        "type": "midi",
        "subType": "noteOn",
        "typeByte": 148,
        "deltaTime": 54,
        "channel": 4,
        "note": 78,
        "velocity": 127
      },
      {
        "type": "midi",
        "subType": "noteOn",
        "typeByte": 148,
        "deltaTime": 0,
        "channel": 4,
        "note": 90,
        "velocity": 127
      },
      {
        "type": "midi",
        "subType": "noteOff",
        "typeByte": 148,
        "deltaTime": 42,
        "channel": 4,
        "note": 90,
        "velocity": 0
      },
      {
        "type": "midi",
        "subType": "noteOff",
        "typeByte": 148,
        "deltaTime": 0,
        "channel": 4,
        "note": 78,
        "velocity": 0
      },
      {
        "type": "midi",
        "subType": "noteOn",
        "typeByte": 148,
        "deltaTime": 55,
        "channel": 4,
        "note": 90,
        "velocity": 127
      },
      {
        "type": "midi",
        "subType": "noteOn",
        "typeByte": 148,
        "deltaTime": 0,
        "channel": 4,
        "note": 78,
        "velocity": 127
      },
      {
        "type": "midi",
        "subType": "noteOff",
        "typeByte": 148,
        "deltaTime": 40,
        "channel": 4,
        "note": 78,
        "velocity": 0
      },
      {
        "type": "midi",
        "subType": "noteOff",
        "typeByte": 148,
        "deltaTime": 0,
        "channel": 4,
        "note": 90,
        "velocity": 0
      },
      {
        "type": "midi",
        "subType": "noteOn",
        "typeByte": 148,
        "deltaTime": 8,
        "channel": 4,
        "note": 88,
        "velocity": 127
      },
      {
        "type": "midi",
        "subType": "noteOn",
        "typeByte": 148,
        "deltaTime": 0,
        "channel": 4,
        "note": 76,
        "velocity": 127
      },
      {
        "type": "midi",
        "subType": "noteOff",
        "typeByte": 148,
        "deltaTime": 42,
        "channel": 4,
        "note": 76,
        "velocity": 0
      },
      {
        "type": "midi",
        "subType": "noteOff",
        "typeByte": 148,
        "deltaTime": 0,
        "channel": 4,
        "note": 88,
        "velocity": 0
      },
      {
        "type": "midi",
        "subType": "noteOn",
        "typeByte": 148,
        "deltaTime": 6,
        "channel": 4,
        "note": 76,
        "velocity": 127
      },
      {
        "type": "midi",
        "subType": "noteOn",
        "typeByte": 148,
        "deltaTime": 1,
        "channel": 4,
        "note": 88,
        "velocity": 127
      },
      {
        "type": "midi",
        "subType": "noteOff",
        "typeByte": 148,
        "deltaTime": 42,
        "channel": 4,
        "note": 88,
        "velocity": 0
      },
      {
        "type": "midi",
        "subType": "noteOff",
        "typeByte": 148,
        "deltaTime": 0,
        "channel": 4,
        "note": 76,
        "velocity": 0
      },
      {
        "type": "midi",
        "subType": "noteOn",
        "typeByte": 148,
        "deltaTime": 5,
        "channel": 4,
        "note": 90,
        "velocity": 127
      },
      {
        "type": "midi",
        "subType": "noteOn",
        "typeByte": 148,
        "deltaTime": 0,
        "channel": 4,
        "note": 78,
        "velocity": 127
      },
      {
        "type": "midi",
        "subType": "noteOff",
        "typeByte": 148,
        "deltaTime": 38,
        "channel": 4,
        "note": 78,
        "velocity": 0
      },
      {
        "type": "midi",
        "subType": "noteOff",
        "typeByte": 148,
        "deltaTime": 0,
        "channel": 4,
        "note": 90,
        "velocity": 0
      },
      {
        "type": "midi",
        "subType": "noteOn",
        "typeByte": 148,
        "deltaTime": 10,
        "channel": 4,
        "note": 88,
        "velocity": 127
      },
      {
        "type": "midi",
        "subType": "noteOn",
        "typeByte": 148,
        "deltaTime": 1,
        "channel": 4,
        "note": 76,
        "velocity": 127
      },
      {
        "type": "midi",
        "subType": "noteOff",
        "typeByte": 148,
        "deltaTime": 42,
        "channel": 4,
        "note": 76,
        "velocity": 0
      },
      {
        "type": "midi",
        "subType": "noteOff",
        "typeByte": 148,
        "deltaTime": 0,
        "channel": 4,
        "note": 88,
        "velocity": 0
      },
      {
        "type": "midi",
        "subType": "noteOn",
        "typeByte": 148,
        "deltaTime": 5,
        "channel": 4,
        "note": 78,
        "velocity": 127
      },
      {
        "type": "midi",
        "subType": "noteOn",
        "typeByte": 148,
        "deltaTime": 0,
        "channel": 4,
        "note": 90,
        "velocity": 127
      },
      {
        "type": "midi",
        "subType": "noteOff",
        "typeByte": 148,
        "deltaTime": 39,
        "channel": 4,
        "note": 90,
        "velocity": 0
      },
      {
        "type": "midi",
        "subType": "noteOff",
        "typeByte": 148,
        "deltaTime": 0,
        "channel": 4,
        "note": 78,
        "velocity": 0
      },
      {
        "type": "midi",
        "subType": "noteOn",
        "typeByte": 148,
        "deltaTime": 10,
        "channel": 4,
        "note": 90,
        "velocity": 127
      },
      {
        "type": "midi",
        "subType": "noteOn",
        "typeByte": 148,
        "deltaTime": 0,
        "channel": 4,
        "note": 78,
        "velocity": 127
      },
      {
        "type": "midi",
        "subType": "noteOff",
        "typeByte": 148,
        "deltaTime": 41,
        "channel": 4,
        "note": 78,
        "velocity": 0
      },
      {
        "type": "midi",
        "subType": "noteOff",
        "typeByte": 148,
        "deltaTime": 0,
        "channel": 4,
        "note": 90,
        "velocity": 0
      },
      {
        "type": "midi",
        "subType": "noteOn",
        "typeByte": 148,
        "deltaTime": 6,
        "channel": 4,
        "note": 86,
        "velocity": 127
      },
      {
        "type": "midi",
        "subType": "noteOn",
        "typeByte": 148,
        "deltaTime": 1,
        "channel": 4,
        "note": 74,
        "velocity": 127
      },
      {
        "type": "midi",
        "subType": "noteOff",
        "typeByte": 148,
        "deltaTime": 41,
        "channel": 4,
        "note": 74,
        "velocity": 0
      },
      {
        "type": "midi",
        "subType": "noteOff",
        "typeByte": 148,
        "deltaTime": 0,
        "channel": 4,
        "note": 86,
        "velocity": 0
      },
      {
        "type": "midi",
        "subType": "noteOn",
        "typeByte": 148,
        "deltaTime": 7,
        "channel": 4,
        "note": 71,
        "velocity": 127
      },
      {
        "type": "midi",
        "subType": "noteOn",
        "typeByte": 148,
        "deltaTime": 0,
        "channel": 4,
        "note": 83,
        "velocity": 127
      },
      {
        "type": "midi",
        "subType": "noteOff",
        "typeByte": 148,
        "deltaTime": 35,
        "channel": 4,
        "note": 83,
        "velocity": 0
      },
      {
        "type": "midi",
        "subType": "noteOff",
        "typeByte": 148,
        "deltaTime": 0,
        "channel": 4,
        "note": 71,
        "velocity": 0
      },
      {
        "type": "midi",
        "subType": "noteOn",
        "typeByte": 148,
        "deltaTime": 62,
        "channel": 4,
        "note": 83,
        "velocity": 127
      },
      {
        "type": "midi",
        "subType": "noteOn",
        "typeByte": 148,
        "deltaTime": 0,
        "channel": 4,
        "note": 71,
        "velocity": 127
      },
      {
        "type": "midi",
        "subType": "noteOff",
        "typeByte": 148,
        "deltaTime": 42,
        "channel": 4,
        "note": 71,
        "velocity": 0
      },
      {
        "type": "midi",
        "subType": "noteOff",
        "typeByte": 148,
        "deltaTime": 0,
        "channel": 4,
        "note": 83,
        "velocity": 0
      },
      {
        "type": "midi",
        "subType": "noteOn",
        "typeByte": 148,
        "deltaTime": 54,
        "channel": 4,
        "note": 88,
        "velocity": 127
      },
      {
        "type": "midi",
        "subType": "noteOn",
        "typeByte": 148,
        "deltaTime": 0,
        "channel": 4,
        "note": 76,
        "velocity": 127
      },
      {
        "type": "midi",
        "subType": "noteOff",
        "typeByte": 148,
        "deltaTime": 45,
        "channel": 4,
        "note": 76,
        "velocity": 0
      },
      {
        "type": "midi",
        "subType": "noteOff",
        "typeByte": 148,
        "deltaTime": 0,
        "channel": 4,
        "note": 88,
        "velocity": 0
      },
      {
        "type": "midi",
        "subType": "noteOn",
        "typeByte": 148,
        "deltaTime": 51,
        "channel": 4,
        "note": 76,
        "velocity": 127
      },
      {
        "type": "midi",
        "subType": "noteOn",
        "typeByte": 148,
        "deltaTime": 0,
        "channel": 4,
        "note": 88,
        "velocity": 127
      },
      {
        "type": "midi",
        "subType": "noteOff",
        "typeByte": 148,
        "deltaTime": 48,
        "channel": 4,
        "note": 88,
        "velocity": 0
      },
      {
        "type": "midi",
        "subType": "noteOff",
        "typeByte": 148,
        "deltaTime": 0,
        "channel": 4,
        "note": 76,
        "velocity": 0
      },
      {
        "type": "midi",
        "subType": "noteOn",
        "typeByte": 148,
        "deltaTime": 48,
        "channel": 4,
        "note": 88,
        "velocity": 127
      },
      {
        "type": "midi",
        "subType": "noteOn",
        "typeByte": 148,
        "deltaTime": 0,
        "channel": 4,
        "note": 76,
        "velocity": 127
      },
      {
        "type": "midi",
        "subType": "noteOff",
        "typeByte": 148,
        "deltaTime": 46,
        "channel": 4,
        "note": 76,
        "velocity": 0
      },
      {
        "type": "midi",
        "subType": "noteOff",
        "typeByte": 148,
        "deltaTime": 0,
        "channel": 4,
        "note": 88,
        "velocity": 0
      },
      {
        "type": "midi",
        "subType": "noteOn",
        "typeByte": 148,
        "deltaTime": 2,
        "channel": 4,
        "note": 92,
        "velocity": 127
      },
      {
        "type": "midi",
        "subType": "noteOn",
        "typeByte": 148,
        "deltaTime": 1,
        "channel": 4,
        "note": 80,
        "velocity": 127
      },
      {
        "type": "midi",
        "subType": "noteOff",
        "typeByte": 148,
        "deltaTime": 40,
        "channel": 4,
        "note": 80,
        "velocity": 0
      },
      {
        "type": "midi",
        "subType": "noteOff",
        "typeByte": 148,
        "deltaTime": 0,
        "channel": 4,
        "note": 92,
        "velocity": 0
      },
      {
        "type": "midi",
        "subType": "noteOn",
        "typeByte": 148,
        "deltaTime": 8,
        "channel": 4,
        "note": 80,
        "velocity": 127
      },
      {
        "type": "midi",
        "subType": "noteOn",
        "typeByte": 148,
        "deltaTime": 0,
        "channel": 4,
        "note": 92,
        "velocity": 127
      },
      {
        "type": "midi",
        "subType": "noteOff",
        "typeByte": 148,
        "deltaTime": 39,
        "channel": 4,
        "note": 92,
        "velocity": 0
      },
      {
        "type": "midi",
        "subType": "noteOff",
        "typeByte": 148,
        "deltaTime": 0,
        "channel": 4,
        "note": 80,
        "velocity": 0
      },
      {
        "type": "midi",
        "subType": "noteOn",
        "typeByte": 148,
        "deltaTime": 8,
        "channel": 4,
        "note": 93,
        "velocity": 127
      },
      {
        "type": "midi",
        "subType": "noteOn",
        "typeByte": 148,
        "deltaTime": 0,
        "channel": 4,
        "note": 81,
        "velocity": 127
      },
      {
        "type": "midi",
        "subType": "noteOff",
        "typeByte": 148,
        "deltaTime": 39,
        "channel": 4,
        "note": 81,
        "velocity": 0
      },
      {
        "type": "midi",
        "subType": "noteOff",
        "typeByte": 148,
        "deltaTime": 0,
        "channel": 4,
        "note": 93,
        "velocity": 0
      },
      {
        "type": "midi",
        "subType": "noteOn",
        "typeByte": 148,
        "deltaTime": 10,
        "channel": 4,
        "note": 95,
        "velocity": 127
      },
      {
        "type": "midi",
        "subType": "noteOn",
        "typeByte": 148,
        "deltaTime": 0,
        "channel": 4,
        "note": 83,
        "velocity": 127
      },
      {
        "type": "midi",
        "subType": "noteOff",
        "typeByte": 148,
        "deltaTime": 40,
        "channel": 4,
        "note": 83,
        "velocity": 0
      },
      {
        "type": "midi",
        "subType": "noteOff",
        "typeByte": 148,
        "deltaTime": 0,
        "channel": 4,
        "note": 95,
        "velocity": 0
      },
      {
        "type": "midi",
        "subType": "noteOn",
        "typeByte": 148,
        "deltaTime": 7,
        "channel": 4,
        "note": 81,
        "velocity": 127
      },
      {
        "type": "midi",
        "subType": "noteOn",
        "typeByte": 148,
        "deltaTime": 0,
        "channel": 4,
        "note": 93,
        "velocity": 127
      },
      {
        "type": "midi",
        "subType": "noteOff",
        "typeByte": 148,
        "deltaTime": 35,
        "channel": 4,
        "note": 93,
        "velocity": 0
      },
      {
        "type": "midi",
        "subType": "noteOff",
        "typeByte": 148,
        "deltaTime": 0,
        "channel": 4,
        "note": 81,
        "velocity": 0
      },
      {
        "type": "midi",
        "subType": "noteOn",
        "typeByte": 148,
        "deltaTime": 14,
        "channel": 4,
        "note": 93,
        "velocity": 127
      },
      {
        "type": "midi",
        "subType": "noteOn",
        "typeByte": 148,
        "deltaTime": 0,
        "channel": 4,
        "note": 81,
        "velocity": 127
      },
      {
        "type": "midi",
        "subType": "noteOff",
        "typeByte": 148,
        "deltaTime": 38,
        "channel": 4,
        "note": 81,
        "velocity": 0
      },
      {
        "type": "midi",
        "subType": "noteOff",
        "typeByte": 148,
        "deltaTime": 0,
        "channel": 4,
        "note": 93,
        "velocity": 0
      },
      {
        "type": "midi",
        "subType": "noteOn",
        "typeByte": 148,
        "deltaTime": 10,
        "channel": 4,
        "note": 93,
        "velocity": 127
      },
      {
        "type": "midi",
        "subType": "noteOn",
        "typeByte": 148,
        "deltaTime": 0,
        "channel": 4,
        "note": 81,
        "velocity": 127
      },
      {
        "type": "midi",
        "subType": "noteOff",
        "typeByte": 148,
        "deltaTime": 28,
        "channel": 4,
        "note": 81,
        "velocity": 0
      },
      {
        "type": "midi",
        "subType": "noteOff",
        "typeByte": 148,
        "deltaTime": 0,
        "channel": 4,
        "note": 93,
        "velocity": 0
      },
      {
        "type": "midi",
        "subType": "noteOn",
        "typeByte": 148,
        "deltaTime": 20,
        "channel": 4,
        "note": 76,
        "velocity": 127
      },
      {
        "type": "midi",
        "subType": "noteOn",
        "typeByte": 148,
        "deltaTime": 1,
        "channel": 4,
        "note": 88,
        "velocity": 127
      },
      {
        "type": "midi",
        "subType": "noteOff",
        "typeByte": 148,
        "deltaTime": 31,
        "channel": 4,
        "note": 88,
        "velocity": 0
      },
      {
        "type": "midi",
        "subType": "noteOff",
        "typeByte": 148,
        "deltaTime": 0,
        "channel": 4,
        "note": 76,
        "velocity": 0
      },
      {
        "type": "midi",
        "subType": "noteOn",
        "typeByte": 148,
        "deltaTime": 65,
        "channel": 4,
        "note": 86,
        "velocity": 127
      },
      {
        "type": "midi",
        "subType": "noteOn",
        "typeByte": 148,
        "deltaTime": 0,
        "channel": 4,
        "note": 74,
        "velocity": 127
      },
      {
        "type": "midi",
        "subType": "noteOff",
        "typeByte": 148,
        "deltaTime": 26,
        "channel": 4,
        "note": 74,
        "velocity": 0
      },
      {
        "type": "midi",
        "subType": "noteOff",
        "typeByte": 148,
        "deltaTime": 0,
        "channel": 4,
        "note": 86,
        "velocity": 0
      },
      {
        "type": "midi",
        "subType": "noteOn",
        "typeByte": 148,
        "deltaTime": 70,
        "channel": 4,
        "note": 90,
        "velocity": 127
      },
      {
        "type": "midi",
        "subType": "noteOn",
        "typeByte": 148,
        "deltaTime": 0,
        "channel": 4,
        "note": 78,
        "velocity": 127
      },
      {
        "type": "midi",
        "subType": "noteOff",
        "typeByte": 148,
        "deltaTime": 33,
        "channel": 4,
        "note": 78,
        "velocity": 0
      },
      {
        "type": "midi",
        "subType": "noteOff",
        "typeByte": 148,
        "deltaTime": 0,
        "channel": 4,
        "note": 90,
        "velocity": 0
      },
      {
        "type": "midi",
        "subType": "noteOn",
        "typeByte": 148,
        "deltaTime": 63,
        "channel": 4,
        "note": 78,
        "velocity": 127
      },
      {
        "type": "midi",
        "subType": "noteOn",
        "typeByte": 148,
        "deltaTime": 0,
        "channel": 4,
        "note": 90,
        "velocity": 127
      },
      {
        "type": "midi",
        "subType": "noteOff",
        "typeByte": 148,
        "deltaTime": 39,
        "channel": 4,
        "note": 90,
        "velocity": 0
      },
      {
        "type": "midi",
        "subType": "noteOff",
        "typeByte": 148,
        "deltaTime": 0,
        "channel": 4,
        "note": 78,
        "velocity": 0
      },
      {
        "type": "midi",
        "subType": "noteOn",
        "typeByte": 148,
        "deltaTime": 57,
        "channel": 4,
        "note": 90,
        "velocity": 127
      },
      {
        "type": "midi",
        "subType": "noteOn",
        "typeByte": 148,
        "deltaTime": 0,
        "channel": 4,
        "note": 78,
        "velocity": 127
      },
      {
        "type": "midi",
        "subType": "noteOff",
        "typeByte": 148,
        "deltaTime": 41,
        "channel": 4,
        "note": 78,
        "velocity": 0
      },
      {
        "type": "midi",
        "subType": "noteOff",
        "typeByte": 148,
        "deltaTime": 0,
        "channel": 4,
        "note": 90,
        "velocity": 0
      },
      {
        "type": "midi",
        "subType": "noteOn",
        "typeByte": 148,
        "deltaTime": 8,
        "channel": 4,
        "note": 88,
        "velocity": 127
      },
      {
        "type": "midi",
        "subType": "noteOn",
        "typeByte": 148,
        "deltaTime": 0,
        "channel": 4,
        "note": 76,
        "velocity": 127
      },
      {
        "type": "midi",
        "subType": "noteOff",
        "typeByte": 148,
        "deltaTime": 37,
        "channel": 4,
        "note": 76,
        "velocity": 0
      },
      {
        "type": "midi",
        "subType": "noteOff",
        "typeByte": 148,
        "deltaTime": 0,
        "channel": 4,
        "note": 88,
        "velocity": 0
      },
      {
        "type": "midi",
        "subType": "noteOn",
        "typeByte": 148,
        "deltaTime": 11,
        "channel": 4,
        "note": 76,
        "velocity": 127
      },
      {
        "type": "midi",
        "subType": "noteOn",
        "typeByte": 148,
        "deltaTime": 0,
        "channel": 4,
        "note": 88,
        "velocity": 127
      },
      {
        "type": "midi",
        "subType": "noteOff",
        "typeByte": 148,
        "deltaTime": 47,
        "channel": 4,
        "note": 88,
        "velocity": 0
      },
      {
        "type": "midi",
        "subType": "noteOff",
        "typeByte": 148,
        "deltaTime": 0,
        "channel": 4,
        "note": 76,
        "velocity": 0
      },
      {
        "type": "midi",
        "subType": "noteOn",
        "typeByte": 148,
        "deltaTime": 1,
        "channel": 4,
        "note": 90,
        "velocity": 127
      },
      {
        "type": "midi",
        "subType": "noteOn",
        "typeByte": 148,
        "deltaTime": 0,
        "channel": 4,
        "note": 78,
        "velocity": 127
      },
      {
        "type": "midi",
        "subType": "noteOff",
        "typeByte": 148,
        "deltaTime": 41,
        "channel": 4,
        "note": 78,
        "velocity": 0
      },
      {
        "type": "midi",
        "subType": "noteOff",
        "typeByte": 148,
        "deltaTime": 0,
        "channel": 4,
        "note": 90,
        "velocity": 0
      },
      {
        "type": "midi",
        "subType": "noteOn",
        "typeByte": 148,
        "deltaTime": 7,
        "channel": 4,
        "note": 88,
        "velocity": 127
      },
      {
        "type": "midi",
        "subType": "noteOn",
        "typeByte": 148,
        "deltaTime": 0,
        "channel": 4,
        "note": 76,
        "velocity": 127
      },
      {
        "type": "midi",
        "subType": "noteOff",
        "typeByte": 148,
        "deltaTime": 43,
        "channel": 4,
        "note": 76,
        "velocity": 0
      },
      {
        "type": "midi",
        "subType": "noteOff",
        "typeByte": 148,
        "deltaTime": 0,
        "channel": 4,
        "note": 88,
        "velocity": 0
      },
      {
        "type": "midi",
        "subType": "noteOn",
        "typeByte": 148,
        "deltaTime": 5,
        "channel": 4,
        "note": 78,
        "velocity": 127
      },
      {
        "type": "midi",
        "subType": "noteOn",
        "typeByte": 148,
        "deltaTime": 0,
        "channel": 4,
        "note": 90,
        "velocity": 127
      },
      {
        "type": "midi",
        "subType": "noteOff",
        "typeByte": 148,
        "deltaTime": 34,
        "channel": 4,
        "note": 78,
        "velocity": 0
      },
      {
        "type": "midi",
        "subType": "noteOff",
        "typeByte": 148,
        "deltaTime": 1,
        "channel": 4,
        "note": 90,
        "velocity": 0
      },
      {
        "type": "midi",
        "subType": "noteOn",
        "typeByte": 148,
        "deltaTime": 13,
        "channel": 4,
        "note": 90,
        "velocity": 127
      },
      {
        "type": "midi",
        "subType": "noteOn",
        "typeByte": 148,
        "deltaTime": 0,
        "channel": 4,
        "note": 78,
        "velocity": 127
      },
      {
        "type": "midi",
        "subType": "noteOff",
        "typeByte": 148,
        "deltaTime": 48,
        "channel": 4,
        "note": 78,
        "velocity": 0
      },
      {
        "type": "midi",
        "subType": "noteOff",
        "typeByte": 148,
        "deltaTime": 0,
        "channel": 4,
        "note": 90,
        "velocity": 0
      },
      {
        "type": "midi",
        "subType": "noteOn",
        "typeByte": 148,
        "deltaTime": 1,
        "channel": 4,
        "note": 86,
        "velocity": 127
      },
      {
        "type": "midi",
        "subType": "noteOn",
        "typeByte": 148,
        "deltaTime": 0,
        "channel": 4,
        "note": 74,
        "velocity": 127
      },
      {
        "type": "midi",
        "subType": "noteOff",
        "typeByte": 148,
        "deltaTime": 46,
        "channel": 4,
        "note": 74,
        "velocity": 0
      },
      {
        "type": "midi",
        "subType": "noteOff",
        "typeByte": 148,
        "deltaTime": 0,
        "channel": 4,
        "note": 86,
        "velocity": 0
      },
      {
        "type": "midi",
        "subType": "noteOn",
        "typeByte": 148,
        "deltaTime": 2,
        "channel": 4,
        "note": 71,
        "velocity": 127
      },
      {
        "type": "midi",
        "subType": "noteOn",
        "typeByte": 148,
        "deltaTime": 0,
        "channel": 4,
        "note": 83,
        "velocity": 127
      },
      {
        "type": "midi",
        "subType": "noteOff",
        "typeByte": 148,
        "deltaTime": 41,
        "channel": 4,
        "note": 83,
        "velocity": 0
      },
      {
        "type": "midi",
        "subType": "noteOff",
        "typeByte": 148,
        "deltaTime": 0,
        "channel": 4,
        "note": 71,
        "velocity": 0
      },
      {
        "type": "midi",
        "subType": "noteOn",
        "typeByte": 148,
        "deltaTime": 55,
        "channel": 4,
        "note": 83,
        "velocity": 127
      },
      {
        "type": "midi",
        "subType": "noteOn",
        "typeByte": 148,
        "deltaTime": 1,
        "channel": 4,
        "note": 71,
        "velocity": 127
      },
      {
        "type": "midi",
        "subType": "noteOff",
        "typeByte": 148,
        "deltaTime": 48,
        "channel": 4,
        "note": 71,
        "velocity": 0
      },
      {
        "type": "midi",
        "subType": "noteOff",
        "typeByte": 148,
        "deltaTime": 0,
        "channel": 4,
        "note": 83,
        "velocity": 0
      },
      {
        "type": "midi",
        "subType": "noteOn",
        "typeByte": 148,
        "deltaTime": 47,
        "channel": 4,
        "note": 88,
        "velocity": 127
      },
      {
        "type": "midi",
        "subType": "noteOn",
        "typeByte": 148,
        "deltaTime": 0,
        "channel": 4,
        "note": 76,
        "velocity": 127
      },
      {
        "type": "midi",
        "subType": "noteOff",
        "typeByte": 148,
        "deltaTime": 42,
        "channel": 4,
        "note": 76,
        "velocity": 0
      },
      {
        "type": "midi",
        "subType": "noteOff",
        "typeByte": 148,
        "deltaTime": 0,
        "channel": 4,
        "note": 88,
        "velocity": 0
      },
      {
        "type": "midi",
        "subType": "noteOn",
        "typeByte": 148,
        "deltaTime": 55,
        "channel": 4,
        "note": 76,
        "velocity": 127
      },
      {
        "type": "midi",
        "subType": "noteOn",
        "typeByte": 148,
        "deltaTime": 0,
        "channel": 4,
        "note": 88,
        "velocity": 127
      },
      {
        "type": "midi",
        "subType": "noteOff",
        "typeByte": 148,
        "deltaTime": 47,
        "channel": 4,
        "note": 88,
        "velocity": 0
      },
      {
        "type": "midi",
        "subType": "noteOff",
        "typeByte": 148,
        "deltaTime": 0,
        "channel": 4,
        "note": 76,
        "velocity": 0
      },
      {
        "type": "midi",
        "subType": "noteOn",
        "typeByte": 148,
        "deltaTime": 49,
        "channel": 4,
        "note": 88,
        "velocity": 127
      },
      {
        "type": "midi",
        "subType": "noteOn",
        "typeByte": 148,
        "deltaTime": 0,
        "channel": 4,
        "note": 76,
        "velocity": 127
      },
      {
        "type": "midi",
        "subType": "noteOff",
        "typeByte": 148,
        "deltaTime": 48,
        "channel": 4,
        "note": 76,
        "velocity": 0
      },
      {
        "type": "midi",
        "subType": "noteOff",
        "typeByte": 148,
        "deltaTime": 0,
        "channel": 4,
        "note": 88,
        "velocity": 0
      },
      {
        "type": "midi",
        "subType": "noteOn",
        "typeByte": 148,
        "deltaTime": 1,
        "channel": 4,
        "note": 92,
        "velocity": 127
      },
      {
        "type": "midi",
        "subType": "noteOn",
        "typeByte": 148,
        "deltaTime": 0,
        "channel": 4,
        "note": 80,
        "velocity": 127
      },
      {
        "type": "midi",
        "subType": "noteOff",
        "typeByte": 148,
        "deltaTime": 37,
        "channel": 4,
        "note": 80,
        "velocity": 0
      },
      {
        "type": "midi",
        "subType": "noteOff",
        "typeByte": 148,
        "deltaTime": 0,
        "channel": 4,
        "note": 92,
        "velocity": 0
      },
      {
        "type": "midi",
        "subType": "noteOn",
        "typeByte": 148,
        "deltaTime": 10,
        "channel": 4,
        "note": 80,
        "velocity": 127
      },
      {
        "type": "midi",
        "subType": "noteOn",
        "typeByte": 148,
        "deltaTime": 1,
        "channel": 4,
        "note": 92,
        "velocity": 127
      },
      {
        "type": "midi",
        "subType": "noteOff",
        "typeByte": 148,
        "deltaTime": 41,
        "channel": 4,
        "note": 92,
        "velocity": 0
      },
      {
        "type": "midi",
        "subType": "noteOff",
        "typeByte": 148,
        "deltaTime": 0,
        "channel": 4,
        "note": 80,
        "velocity": 0
      },
      {
        "type": "midi",
        "subType": "noteOn",
        "typeByte": 148,
        "deltaTime": 6,
        "channel": 4,
        "note": 93,
        "velocity": 127
      },
      {
        "type": "midi",
        "subType": "noteOn",
        "typeByte": 148,
        "deltaTime": 0,
        "channel": 4,
        "note": 81,
        "velocity": 127
      },
      {
        "type": "midi",
        "subType": "noteOff",
        "typeByte": 148,
        "deltaTime": 43,
        "channel": 4,
        "note": 81,
        "velocity": 0
      },
      {
        "type": "midi",
        "subType": "noteOff",
        "typeByte": 148,
        "deltaTime": 0,
        "channel": 4,
        "note": 93,
        "velocity": 0
      },
      {
        "type": "midi",
        "subType": "noteOn",
        "typeByte": 148,
        "deltaTime": 5,
        "channel": 4,
        "note": 95,
        "velocity": 127
      },
      {
        "type": "midi",
        "subType": "noteOn",
        "typeByte": 148,
        "deltaTime": 0,
        "channel": 4,
        "note": 83,
        "velocity": 127
      },
      {
        "type": "midi",
        "subType": "noteOff",
        "typeByte": 148,
        "deltaTime": 48,
        "channel": 4,
        "note": 83,
        "velocity": 0
      },
      {
        "type": "midi",
        "subType": "noteOff",
        "typeByte": 148,
        "deltaTime": 0,
        "channel": 4,
        "note": 95,
        "velocity": 0
      },
      {
        "type": "midi",
        "subType": "noteOn",
        "typeByte": 148,
        "deltaTime": 1,
        "channel": 4,
        "note": 81,
        "velocity": 127
      },
      {
        "type": "midi",
        "subType": "noteOn",
        "typeByte": 148,
        "deltaTime": 0,
        "channel": 4,
        "note": 93,
        "velocity": 127
      },
      {
        "type": "midi",
        "subType": "noteOff",
        "typeByte": 148,
        "deltaTime": 38,
        "channel": 4,
        "note": 93,
        "velocity": 0
      },
      {
        "type": "midi",
        "subType": "noteOff",
        "typeByte": 148,
        "deltaTime": 0,
        "channel": 4,
        "note": 81,
        "velocity": 0
      },
      {
        "type": "midi",
        "subType": "noteOn",
        "typeByte": 148,
        "deltaTime": 10,
        "channel": 4,
        "note": 93,
        "velocity": 127
      },
      {
        "type": "midi",
        "subType": "noteOn",
        "typeByte": 148,
        "deltaTime": 0,
        "channel": 4,
        "note": 81,
        "velocity": 127
      },
      {
        "type": "midi",
        "subType": "noteOff",
        "typeByte": 148,
        "deltaTime": 40,
        "channel": 4,
        "note": 81,
        "velocity": 0
      },
      {
        "type": "midi",
        "subType": "noteOff",
        "typeByte": 148,
        "deltaTime": 0,
        "channel": 4,
        "note": 93,
        "velocity": 0
      },
      {
        "type": "midi",
        "subType": "noteOn",
        "typeByte": 148,
        "deltaTime": 7,
        "channel": 4,
        "note": 93,
        "velocity": 127
      },
      {
        "type": "midi",
        "subType": "noteOn",
        "typeByte": 148,
        "deltaTime": 0,
        "channel": 4,
        "note": 81,
        "velocity": 127
      },
      {
        "type": "midi",
        "subType": "noteOff",
        "typeByte": 148,
        "deltaTime": 39,
        "channel": 4,
        "note": 81,
        "velocity": 0
      },
      {
        "type": "midi",
        "subType": "noteOff",
        "typeByte": 148,
        "deltaTime": 0,
        "channel": 4,
        "note": 93,
        "velocity": 0
      },
      {
        "type": "midi",
        "subType": "noteOn",
        "typeByte": 148,
        "deltaTime": 10,
        "channel": 4,
        "note": 78,
        "velocity": 127
      },
      {
        "type": "midi",
        "subType": "noteOn",
        "typeByte": 148,
        "deltaTime": 0,
        "channel": 4,
        "note": 90,
        "velocity": 127
      },
      {
        "type": "midi",
        "subType": "noteOff",
        "typeByte": 148,
        "deltaTime": 40,
        "channel": 4,
        "note": 78,
        "velocity": 0
      },
      {
        "type": "midi",
        "subType": "noteOff",
        "typeByte": 148,
        "deltaTime": 1,
        "channel": 4,
        "note": 90,
        "velocity": 0
      },
      {
        "type": "midi",
        "subType": "noteOn",
        "typeByte": 148,
        "deltaTime": 56,
        "channel": 4,
        "note": 86,
        "velocity": 127
      },
      {
        "type": "midi",
        "subType": "noteOn",
        "typeByte": 148,
        "deltaTime": 0,
        "channel": 4,
        "note": 74,
        "velocity": 127
      },
      {
        "type": "midi",
        "subType": "noteOff",
        "typeByte": 148,
        "deltaTime": 37,
        "channel": 4,
        "note": 74,
        "velocity": 0
      },
      {
        "type": "midi",
        "subType": "noteOff",
        "typeByte": 148,
        "deltaTime": 0,
        "channel": 4,
        "note": 86,
        "velocity": 0
      },
      {
        "type": "midi",
        "subType": "noteOn",
        "typeByte": 148,
        "deltaTime": 59,
        "channel": 4,
        "note": 90,
        "velocity": 127
      },
      {
        "type": "midi",
        "subType": "noteOn",
        "typeByte": 148,
        "deltaTime": 0,
        "channel": 4,
        "note": 78,
        "velocity": 127
      },
      {
        "type": "midi",
        "subType": "noteOff",
        "typeByte": 148,
        "deltaTime": 41,
        "channel": 4,
        "note": 78,
        "velocity": 0
      },
      {
        "type": "midi",
        "subType": "noteOff",
        "typeByte": 148,
        "deltaTime": 0,
        "channel": 4,
        "note": 90,
        "velocity": 0
      },
      {
        "type": "midi",
        "subType": "noteOn",
        "typeByte": 148,
        "deltaTime": 55,
        "channel": 4,
        "note": 78,
        "velocity": 127
      },
      {
        "type": "midi",
        "subType": "noteOn",
        "typeByte": 148,
        "deltaTime": 0,
        "channel": 4,
        "note": 90,
        "velocity": 127
      },
      {
        "type": "midi",
        "subType": "noteOff",
        "typeByte": 148,
        "deltaTime": 42,
        "channel": 4,
        "note": 90,
        "velocity": 0
      },
      {
        "type": "midi",
        "subType": "noteOff",
        "typeByte": 148,
        "deltaTime": 0,
        "channel": 4,
        "note": 78,
        "velocity": 0
      },
      {
        "type": "midi",
        "subType": "noteOn",
        "typeByte": 148,
        "deltaTime": 54,
        "channel": 4,
        "note": 90,
        "velocity": 127
      },
      {
        "type": "midi",
        "subType": "noteOn",
        "typeByte": 148,
        "deltaTime": 0,
        "channel": 4,
        "note": 78,
        "velocity": 127
      },
      {
        "type": "midi",
        "subType": "noteOff",
        "typeByte": 148,
        "deltaTime": 40,
        "channel": 4,
        "note": 78,
        "velocity": 0
      },
      {
        "type": "midi",
        "subType": "noteOff",
        "typeByte": 148,
        "deltaTime": 0,
        "channel": 4,
        "note": 90,
        "velocity": 0
      },
      {
        "type": "midi",
        "subType": "noteOn",
        "typeByte": 148,
        "deltaTime": 8,
        "channel": 4,
        "note": 88,
        "velocity": 127
      },
      {
        "type": "midi",
        "subType": "noteOn",
        "typeByte": 148,
        "deltaTime": 0,
        "channel": 4,
        "note": 76,
        "velocity": 127
      },
      {
        "type": "midi",
        "subType": "noteOff",
        "typeByte": 148,
        "deltaTime": 43,
        "channel": 4,
        "note": 76,
        "velocity": 0
      },
      {
        "type": "midi",
        "subType": "noteOff",
        "typeByte": 148,
        "deltaTime": 0,
        "channel": 4,
        "note": 88,
        "velocity": 0
      },
      {
        "type": "midi",
        "subType": "noteOn",
        "typeByte": 148,
        "deltaTime": 6,
        "channel": 4,
        "note": 76,
        "velocity": 127
      },
      {
        "type": "midi",
        "subType": "noteOn",
        "typeByte": 148,
        "deltaTime": 0,
        "channel": 4,
        "note": 88,
        "velocity": 127
      },
      {
        "type": "midi",
        "subType": "noteOff",
        "typeByte": 148,
        "deltaTime": 42,
        "channel": 4,
        "note": 88,
        "velocity": 0
      },
      {
        "type": "midi",
        "subType": "noteOff",
        "typeByte": 148,
        "deltaTime": 0,
        "channel": 4,
        "note": 76,
        "velocity": 0
      },
      {
        "type": "midi",
        "subType": "noteOn",
        "typeByte": 148,
        "deltaTime": 5,
        "channel": 4,
        "note": 76,
        "velocity": 127
      },
      {
        "type": "midi",
        "subType": "noteOn",
        "typeByte": 148,
        "deltaTime": 1,
        "channel": 4,
        "note": 88,
        "velocity": 127
      },
      {
        "type": "midi",
        "subType": "noteOff",
        "typeByte": 148,
        "deltaTime": 38,
        "channel": 4,
        "note": 88,
        "velocity": 0
      },
      {
        "type": "midi",
        "subType": "noteOff",
        "typeByte": 148,
        "deltaTime": 0,
        "channel": 4,
        "note": 76,
        "velocity": 0
      },
      {
        "type": "midi",
        "subType": "controller",
        "typeByte": 180,
        "deltaTime": 16649,
        "channel": 4,
        "controllerType": 7,
        "value": 69
      },
      {
        "type": "midi",
        "subType": "controller",
        "typeByte": 180,
        "deltaTime": 11,
        "channel": 4,
        "controllerType": 7,
        "value": 68
      },
      {
        "type": "midi",
        "subType": "controller",
        "typeByte": 180,
        "deltaTime": 11,
        "channel": 4,
        "controllerType": 7,
        "value": 67
      },
      {
        "type": "midi",
        "subType": "controller",
        "typeByte": 180,
        "deltaTime": 4,
        "channel": 4,
        "controllerType": 7,
        "value": 66
      },
      {
        "type": "midi",
        "subType": "controller",
        "typeByte": 180,
        "deltaTime": 11,
        "channel": 4,
        "controllerType": 7,
        "value": 65
      },
      {
        "type": "midi",
        "subType": "controller",
        "typeByte": 180,
        "deltaTime": 28,
        "channel": 4,
        "controllerType": 7,
        "value": 64
      },
      {
        "type": "midi",
        "subType": "controller",
        "typeByte": 180,
        "deltaTime": 15,
        "channel": 4,
        "controllerType": 7,
        "value": 63
      },
      {
        "type": "midi",
        "subType": "controller",
        "typeByte": 180,
        "deltaTime": 47,
        "channel": 4,
        "controllerType": 7,
        "value": 62
      },
      {
        "type": "midi",
        "subType": "controller",
        "typeByte": 180,
        "deltaTime": 64,
        "channel": 4,
        "controllerType": 7,
        "value": 61
      },
      {
        "type": "midi",
        "subType": "controller",
        "typeByte": 180,
        "deltaTime": 23,
        "channel": 4,
        "controllerType": 7,
        "value": 60
      },
      {
        "type": "midi",
        "subType": "controller",
        "typeByte": 180,
        "deltaTime": 33,
        "channel": 4,
        "controllerType": 7,
        "value": 59
      },
      {
        "type": "midi",
        "subType": "controller",
        "typeByte": 180,
        "deltaTime": 31,
        "channel": 4,
        "controllerType": 7,
        "value": 58
      },
      {
        "type": "midi",
        "subType": "controller",
        "typeByte": 180,
        "deltaTime": 43,
        "channel": 4,
        "controllerType": 7,
        "value": 57
      },
      {
        "type": "midi",
        "subType": "controller",
        "typeByte": 180,
        "deltaTime": 38,
        "channel": 4,
        "controllerType": 7,
        "value": 56
      },
      {
        "type": "midi",
        "subType": "controller",
        "typeByte": 180,
        "deltaTime": 28,
        "channel": 4,
        "controllerType": 7,
        "value": 55
      },
      {
        "type": "midi",
        "subType": "controller",
        "typeByte": 180,
        "deltaTime": 14,
        "channel": 4,
        "controllerType": 7,
        "value": 54
      },
      {
        "type": "midi",
        "subType": "controller",
        "typeByte": 180,
        "deltaTime": 22,
        "channel": 4,
        "controllerType": 7,
        "value": 53
      },
      {
        "type": "midi",
        "subType": "controller",
        "typeByte": 180,
        "deltaTime": 57,
        "channel": 4,
        "controllerType": 7,
        "value": 52
      },
      {
        "type": "midi",
        "subType": "controller",
        "typeByte": 180,
        "deltaTime": 29,
        "channel": 4,
        "controllerType": 7,
        "value": 51
      },
      {
        "type": "midi",
        "subType": "controller",
        "typeByte": 180,
        "deltaTime": 27,
        "channel": 4,
        "controllerType": 7,
        "value": 50
      },
      {
        "type": "midi",
        "subType": "controller",
        "typeByte": 180,
        "deltaTime": 9,
        "channel": 4,
        "controllerType": 7,
        "value": 49
      },
      {
        "type": "midi",
        "subType": "controller",
        "typeByte": 180,
        "deltaTime": 19,
        "channel": 4,
        "controllerType": 7,
        "value": 48
      },
      {
        "type": "midi",
        "subType": "controller",
        "typeByte": 180,
        "deltaTime": 44,
        "channel": 4,
        "controllerType": 7,
        "value": 47
      },
      {
        "type": "midi",
        "subType": "controller",
        "typeByte": 180,
        "deltaTime": 17,
        "channel": 4,
        "controllerType": 7,
        "value": 46
      },
      {
        "type": "midi",
        "subType": "controller",
        "typeByte": 180,
        "deltaTime": 23,
        "channel": 4,
        "controllerType": 7,
        "value": 45
      },
      {
        "type": "midi",
        "subType": "controller",
        "typeByte": 180,
        "deltaTime": 18,
        "channel": 4,
        "controllerType": 7,
        "value": 44
      },
      {
        "type": "midi",
        "subType": "controller",
        "typeByte": 180,
        "deltaTime": 13,
        "channel": 4,
        "controllerType": 7,
        "value": 43
      },
      {
        "type": "midi",
        "subType": "controller",
        "typeByte": 180,
        "deltaTime": 41,
        "channel": 4,
        "controllerType": 7,
        "value": 42
      },
      {
        "type": "midi",
        "subType": "controller",
        "typeByte": 180,
        "deltaTime": 11,
        "channel": 4,
        "controllerType": 7,
        "value": 41
      },
      {
        "type": "midi",
        "subType": "controller",
        "typeByte": 180,
        "deltaTime": 11,
        "channel": 4,
        "controllerType": 7,
        "value": 40
      },
      {
        "type": "midi",
        "subType": "controller",
        "typeByte": 180,
        "deltaTime": 24,
        "channel": 4,
        "controllerType": 7,
        "value": 39
      },
      {
        "type": "midi",
        "subType": "controller",
        "typeByte": 180,
        "deltaTime": 17,
        "channel": 4,
        "controllerType": 7,
        "value": 38
      },
      {
        "type": "midi",
        "subType": "controller",
        "typeByte": 180,
        "deltaTime": 10,
        "channel": 4,
        "controllerType": 7,
        "value": 37
      },
      {
        "type": "midi",
        "subType": "controller",
        "typeByte": 180,
        "deltaTime": 18,
        "channel": 4,
        "controllerType": 7,
        "value": 36
      },
      {
        "type": "midi",
        "subType": "controller",
        "typeByte": 180,
        "deltaTime": 46,
        "channel": 4,
        "controllerType": 7,
        "value": 35
      },
      {
        "type": "midi",
        "subType": "controller",
        "typeByte": 180,
        "deltaTime": 19,
        "channel": 4,
        "controllerType": 7,
        "value": 34
      },
      {
        "type": "midi",
        "subType": "controller",
        "typeByte": 180,
        "deltaTime": 26,
        "channel": 4,
        "controllerType": 7,
        "value": 33
      },
      {
        "type": "midi",
        "subType": "controller",
        "typeByte": 180,
        "deltaTime": 24,
        "channel": 4,
        "controllerType": 7,
        "value": 32
      },
      {
        "type": "midi",
        "subType": "controller",
        "typeByte": 180,
        "deltaTime": 26,
        "channel": 4,
        "controllerType": 7,
        "value": 31
      },
      {
        "type": "midi",
        "subType": "controller",
        "typeByte": 180,
        "deltaTime": 29,
        "channel": 4,
        "controllerType": 7,
        "value": 30
      },
      {
        "type": "midi",
        "subType": "controller",
        "typeByte": 180,
        "deltaTime": 28,
        "channel": 4,
        "controllerType": 7,
        "value": 29
      },
      {
        "type": "midi",
        "subType": "controller",
        "typeByte": 180,
        "deltaTime": 12,
        "channel": 4,
        "controllerType": 7,
        "value": 28
      },
      {
        "type": "midi",
        "subType": "controller",
        "typeByte": 180,
        "deltaTime": 36,
        "channel": 4,
        "controllerType": 7,
        "value": 27
      },
      {
        "type": "midi",
        "subType": "controller",
        "typeByte": 180,
        "deltaTime": 19,
        "channel": 4,
        "controllerType": 7,
        "value": 26
      },
      {
        "type": "midi",
        "subType": "controller",
        "typeByte": 180,
        "deltaTime": 14,
        "channel": 4,
        "controllerType": 7,
        "value": 25
      },
      {
        "type": "midi",
        "subType": "controller",
        "typeByte": 180,
        "deltaTime": 7,
        "channel": 4,
        "controllerType": 7,
        "value": 24
      },
      {
        "type": "midi",
        "subType": "controller",
        "typeByte": 180,
        "deltaTime": 25,
        "channel": 4,
        "controllerType": 7,
        "value": 23
      },
      {
        "type": "midi",
        "subType": "controller",
        "typeByte": 180,
        "deltaTime": 8,
        "channel": 4,
        "controllerType": 7,
        "value": 22
      },
      {
        "type": "midi",
        "subType": "controller",
        "typeByte": 180,
        "deltaTime": 11,
        "channel": 4,
        "controllerType": 7,
        "value": 21
      },
      {
        "type": "midi",
        "subType": "controller",
        "typeByte": 180,
        "deltaTime": 8,
        "channel": 4,
        "controllerType": 7,
        "value": 20
      },
      {
        "type": "midi",
        "subType": "controller",
        "typeByte": 180,
        "deltaTime": 11,
        "channel": 4,
        "controllerType": 7,
        "value": 19
      },
      {
        "type": "midi",
        "subType": "controller",
        "typeByte": 180,
        "deltaTime": 6,
        "channel": 4,
        "controllerType": 7,
        "value": 18
      },
      {
        "type": "midi",
        "subType": "controller",
        "typeByte": 180,
        "deltaTime": 8,
        "channel": 4,
        "controllerType": 7,
        "value": 17
      },
      {
        "type": "midi",
        "subType": "controller",
        "typeByte": 180,
        "deltaTime": 25,
        "channel": 4,
        "controllerType": 7,
        "value": 16
      },
      {
        "type": "midi",
        "subType": "controller",
        "typeByte": 180,
        "deltaTime": 19,
        "channel": 4,
        "controllerType": 7,
        "value": 15
      },
      {
        "type": "midi",
        "subType": "controller",
        "typeByte": 180,
        "deltaTime": 18,
        "channel": 4,
        "controllerType": 7,
        "value": 14
      },
      {
        "type": "midi",
        "subType": "controller",
        "typeByte": 180,
        "deltaTime": 10,
        "channel": 4,
        "controllerType": 7,
        "value": 13
      },
      {
        "type": "midi",
        "subType": "controller",
        "typeByte": 180,
        "deltaTime": 15,
        "channel": 4,
        "controllerType": 7,
        "value": 12
      },
      {
        "type": "midi",
        "subType": "controller",
        "typeByte": 180,
        "deltaTime": 33,
        "channel": 4,
        "controllerType": 7,
        "value": 11
      },
      {
        "type": "midi",
        "subType": "controller",
        "typeByte": 180,
        "deltaTime": 12,
        "channel": 4,
        "controllerType": 7,
        "value": 10
      },
      {
        "type": "midi",
        "subType": "controller",
        "typeByte": 180,
        "deltaTime": 7,
        "channel": 4,
        "controllerType": 7,
        "value": 9
      },
      {
        "type": "midi",
        "subType": "controller",
        "typeByte": 180,
        "deltaTime": 35,
        "channel": 4,
        "controllerType": 7,
        "value": 8
      },
      {
        "type": "midi",
        "subType": "controller",
        "typeByte": 180,
        "deltaTime": 4,
        "channel": 4,
        "controllerType": 7,
        "value": 7
      },
      {
        "type": "midi",
        "subType": "controller",
        "typeByte": 180,
        "deltaTime": 4,
        "channel": 4,
        "controllerType": 7,
        "value": 6
      },
      {
        "type": "midi",
        "subType": "controller",
        "typeByte": 180,
        "deltaTime": 4,
        "channel": 4,
        "controllerType": 7,
        "value": 5
      },
      {
        "type": "midi",
        "subType": "controller",
        "typeByte": 180,
        "deltaTime": 7,
        "channel": 4,
        "controllerType": 7,
        "value": 4
      },
      {
        "type": "midi",
        "subType": "controller",
        "typeByte": 180,
        "deltaTime": 8,
        "channel": 4,
        "controllerType": 7,
        "value": 3
      },
      {
        "type": "midi",
        "subType": "controller",
        "typeByte": 180,
        "deltaTime": 43,
        "channel": 4,
        "controllerType": 7,
        "value": 2
      },
      {
        "type": "midi",
        "subType": "controller",
        "typeByte": 180,
        "deltaTime": 16,
        "channel": 4,
        "controllerType": 7,
        "value": 1
      },
      {
        "type": "midi",
        "subType": "controller",
        "typeByte": 180,
        "deltaTime": 10,
        "channel": 4,
        "controllerType": 7,
        "value": 0
      },
      {
        "type": "midi",
        "subType": "controller",
        "typeByte": 180,
        "deltaTime": 455,
        "channel": 4,
        "controllerType": 7,
        "value": 69
      },
      {
        "type": "midi",
        "subType": "programChange",
        "typeByte": 196,
        "deltaTime": 0,
        "channel": 4,
        "program": 44
      },
      {
        "type": "midi",
        "subType": "controller",
        "typeByte": 180,
        "deltaTime": 347,
        "channel": 4,
        "controllerType": 64,
        "value": 0
      },
      {
        "type": "midi",
        "subType": "pitchBend",
        "typeByte": 228,
        "deltaTime": 2,
        "channel": 4,
        "value": 8192
      },
      {
        "type": "meta",
        "subType": "endOfTrack",
        "typeByte": 255,
        "subTypeByte": 47,
        "deltaTime": 0
      }
    ],
    [
      {
        "type": "meta",
        "typeByte": 255,
        "subTypeByte": 33,
        "deltaTime": 0,
        "data": {}
      },
      {
        "type": "meta",
        "subType": "trackName",
        "typeByte": 255,
        "subTypeByte": 3,
        "deltaTime": 0,
        "text": "Harpsichord 2       "
      },
      {
        "type": "midi",
        "subType": "programChange",
        "typeByte": 197,
        "deltaTime": 0,
        "channel": 5,
        "program": 6
      },
      {
        "type": "midi",
        "subType": "controller",
        "typeByte": 181,
        "deltaTime": 0,
        "channel": 5,
        "controllerType": 7,
        "value": 104
      },
      {
        "type": "midi",
        "subType": "controller",
        "typeByte": 181,
        "deltaTime": 0,
        "channel": 5,
        "controllerType": 10,
        "value": 95
      },
      {
        "type": "midi",
        "subType": "noteOn",
        "typeByte": 149,
        "deltaTime": 8060,
        "channel": 5,
        "note": 90,
        "velocity": 127
      },
      {
        "type": "midi",
        "subType": "noteOn",
        "typeByte": 149,
        "deltaTime": 0,
        "channel": 5,
        "note": 78,
        "velocity": 127
      },
      {
        "type": "midi",
        "subType": "noteOff",
        "typeByte": 149,
        "deltaTime": 327,
        "channel": 5,
        "note": 78,
        "velocity": 0
      },
      {
        "type": "midi",
        "subType": "noteOff",
        "typeByte": 149,
        "deltaTime": 12,
        "channel": 5,
        "note": 90,
        "velocity": 0
      },
      {
        "type": "midi",
        "subType": "noteOn",
        "typeByte": 149,
        "deltaTime": 46,
        "channel": 5,
        "note": 80,
        "velocity": 127
      },
      {
        "type": "midi",
        "subType": "noteOn",
        "typeByte": 149,
        "deltaTime": 0,
        "channel": 5,
        "note": 92,
        "velocity": 127
      },
      {
        "type": "midi",
        "subType": "noteOff",
        "typeByte": 149,
        "deltaTime": 367,
        "channel": 5,
        "note": 80,
        "velocity": 0
      },
      {
        "type": "midi",
        "subType": "noteOff",
        "typeByte": 149,
        "deltaTime": 11,
        "channel": 5,
        "note": 92,
        "velocity": 0
      },
      {
        "type": "midi",
        "subType": "noteOn",
        "typeByte": 149,
        "deltaTime": 7,
        "channel": 5,
        "note": 81,
        "velocity": 127
      },
      {
        "type": "midi",
        "subType": "noteOn",
        "typeByte": 149,
        "deltaTime": 0,
        "channel": 5,
        "note": 93,
        "velocity": 127
      },
      {
        "type": "midi",
        "subType": "noteOff",
        "typeByte": 149,
        "deltaTime": 334,
        "channel": 5,
        "note": 81,
        "velocity": 0
      },
      {
        "type": "midi",
        "subType": "noteOff",
        "typeByte": 149,
        "deltaTime": 14,
        "channel": 5,
        "note": 93,
        "velocity": 0
      },
      {
        "type": "midi",
        "subType": "noteOn",
        "typeByte": 149,
        "deltaTime": 37,
        "channel": 5,
        "note": 83,
        "velocity": 127
      },
      {
        "type": "midi",
        "subType": "noteOn",
        "typeByte": 149,
        "deltaTime": 1,
        "channel": 5,
        "note": 95,
        "velocity": 127
      },
      {
        "type": "midi",
        "subType": "noteOff",
        "typeByte": 149,
        "deltaTime": 380,
        "channel": 5,
        "note": 95,
        "velocity": 0
      },
      {
        "type": "midi",
        "subType": "noteOff",
        "typeByte": 149,
        "deltaTime": 0,
        "channel": 5,
        "note": 83,
        "velocity": 0
      },
      {
        "type": "midi",
        "subType": "noteOn",
        "typeByte": 149,
        "deltaTime": 4,
        "channel": 5,
        "note": 47,
        "velocity": 127
      },
      {
        "type": "midi",
        "subType": "noteOff",
        "typeByte": 149,
        "deltaTime": 11,
        "channel": 5,
        "note": 47,
        "velocity": 0
      },
      {
        "type": "midi",
        "subType": "noteOn",
        "typeByte": 149,
        "deltaTime": 37,
        "channel": 5,
        "note": 47,
        "velocity": 127
      },
      {
        "type": "midi",
        "subType": "noteOff",
        "typeByte": 149,
        "deltaTime": 11,
        "channel": 5,
        "note": 47,
        "velocity": 0
      },
      {
        "type": "midi",
        "subType": "noteOn",
        "typeByte": 149,
        "deltaTime": 38,
        "channel": 5,
        "note": 50,
        "velocity": 127
      },
      {
        "type": "midi",
        "subType": "noteOff",
        "typeByte": 149,
        "deltaTime": 10,
        "channel": 5,
        "note": 50,
        "velocity": 0
      },
      {
        "type": "midi",
        "subType": "noteOn",
        "typeByte": 149,
        "deltaTime": 37,
        "channel": 5,
        "note": 54,
        "velocity": 127
      },
      {
        "type": "midi",
        "subType": "noteOff",
        "typeByte": 149,
        "deltaTime": 12,
        "channel": 5,
        "note": 54,
        "velocity": 0
      },
      {
        "type": "midi",
        "subType": "noteOn",
        "typeByte": 149,
        "deltaTime": 38,
        "channel": 5,
        "note": 59,
        "velocity": 127
      },
      {
        "type": "midi",
        "subType": "noteOff",
        "typeByte": 149,
        "deltaTime": 9,
        "channel": 5,
        "note": 59,
        "velocity": 0
      },
      {
        "type": "midi",
        "subType": "noteOn",
        "typeByte": 149,
        "deltaTime": 38,
        "channel": 5,
        "note": 54,
        "velocity": 127
      },
      {
        "type": "midi",
        "subType": "noteOff",
        "typeByte": 149,
        "deltaTime": 11,
        "channel": 5,
        "note": 54,
        "velocity": 0
      },
      {
        "type": "midi",
        "subType": "noteOn",
        "typeByte": 149,
        "deltaTime": 38,
        "channel": 5,
        "note": 50,
        "velocity": 127
      },
      {
        "type": "midi",
        "subType": "noteOff",
        "typeByte": 149,
        "deltaTime": 9,
        "channel": 5,
        "note": 50,
        "velocity": 0
      },
      {
        "type": "midi",
        "subType": "noteOn",
        "typeByte": 149,
        "deltaTime": 38,
        "channel": 5,
        "note": 47,
        "velocity": 127
      },
      {
        "type": "midi",
        "subType": "noteOff",
        "typeByte": 149,
        "deltaTime": 11,
        "channel": 5,
        "note": 47,
        "velocity": 0
      },
      {
        "type": "midi",
        "subType": "noteOn",
        "typeByte": 149,
        "deltaTime": 38,
        "channel": 5,
        "note": 52,
        "velocity": 127
      },
      {
        "type": "midi",
        "subType": "noteOff",
        "typeByte": 149,
        "deltaTime": 10,
        "channel": 5,
        "note": 52,
        "velocity": 0
      },
      {
        "type": "midi",
        "subType": "noteOn",
        "typeByte": 149,
        "deltaTime": 37,
        "channel": 5,
        "note": 52,
        "velocity": 127
      },
      {
        "type": "midi",
        "subType": "noteOff",
        "typeByte": 149,
        "deltaTime": 12,
        "channel": 5,
        "note": 52,
        "velocity": 0
      },
      {
        "type": "midi",
        "subType": "noteOn",
        "typeByte": 149,
        "deltaTime": 37,
        "channel": 5,
        "note": 56,
        "velocity": 127
      },
      {
        "type": "midi",
        "subType": "noteOff",
        "typeByte": 149,
        "deltaTime": 10,
        "channel": 5,
        "note": 56,
        "velocity": 0
      },
      {
        "type": "midi",
        "subType": "noteOn",
        "typeByte": 149,
        "deltaTime": 37,
        "channel": 5,
        "note": 59,
        "velocity": 127
      },
      {
        "type": "midi",
        "subType": "noteOff",
        "typeByte": 149,
        "deltaTime": 12,
        "channel": 5,
        "note": 59,
        "velocity": 0
      },
      {
        "type": "midi",
        "subType": "noteOn",
        "typeByte": 149,
        "deltaTime": 38,
        "channel": 5,
        "note": 64,
        "velocity": 127
      },
      {
        "type": "midi",
        "subType": "noteOff",
        "typeByte": 149,
        "deltaTime": 9,
        "channel": 5,
        "note": 64,
        "velocity": 0
      },
      {
        "type": "midi",
        "subType": "noteOn",
        "typeByte": 149,
        "deltaTime": 38,
        "channel": 5,
        "note": 59,
        "velocity": 127
      },
      {
        "type": "midi",
        "subType": "noteOff",
        "typeByte": 149,
        "deltaTime": 11,
        "channel": 5,
        "note": 59,
        "velocity": 0
      },
      {
        "type": "midi",
        "subType": "noteOn",
        "typeByte": 149,
        "deltaTime": 38,
        "channel": 5,
        "note": 56,
        "velocity": 127
      },
      {
        "type": "midi",
        "subType": "noteOff",
        "typeByte": 149,
        "deltaTime": 10,
        "channel": 5,
        "note": 56,
        "velocity": 0
      },
      {
        "type": "midi",
        "subType": "noteOn",
        "typeByte": 149,
        "deltaTime": 37,
        "channel": 5,
        "note": 52,
        "velocity": 127
      },
      {
        "type": "midi",
        "subType": "noteOff",
        "typeByte": 149,
        "deltaTime": 11,
        "channel": 5,
        "note": 52,
        "velocity": 0
      },
      {
        "type": "midi",
        "subType": "noteOn",
        "typeByte": 149,
        "deltaTime": 38,
        "channel": 5,
        "note": 45,
        "velocity": 127
      },
      {
        "type": "midi",
        "subType": "noteOff",
        "typeByte": 149,
        "deltaTime": 10,
        "channel": 5,
        "note": 45,
        "velocity": 0
      },
      {
        "type": "midi",
        "subType": "noteOn",
        "typeByte": 149,
        "deltaTime": 37,
        "channel": 5,
        "note": 45,
        "velocity": 127
      },
      {
        "type": "midi",
        "subType": "noteOff",
        "typeByte": 149,
        "deltaTime": 12,
        "channel": 5,
        "note": 45,
        "velocity": 0
      },
      {
        "type": "midi",
        "subType": "noteOn",
        "typeByte": 149,
        "deltaTime": 37,
        "channel": 5,
        "note": 49,
        "velocity": 127
      },
      {
        "type": "midi",
        "subType": "noteOff",
        "typeByte": 149,
        "deltaTime": 10,
        "channel": 5,
        "note": 49,
        "velocity": 0
      },
      {
        "type": "midi",
        "subType": "noteOn",
        "typeByte": 149,
        "deltaTime": 38,
        "channel": 5,
        "note": 52,
        "velocity": 127
      },
      {
        "type": "midi",
        "subType": "noteOff",
        "typeByte": 149,
        "deltaTime": 11,
        "channel": 5,
        "note": 52,
        "velocity": 0
      },
      {
        "type": "midi",
        "subType": "noteOn",
        "typeByte": 149,
        "deltaTime": 38,
        "channel": 5,
        "note": 57,
        "velocity": 127
      },
      {
        "type": "midi",
        "subType": "noteOff",
        "typeByte": 149,
        "deltaTime": 10,
        "channel": 5,
        "note": 57,
        "velocity": 0
      },
      {
        "type": "midi",
        "subType": "noteOn",
        "typeByte": 149,
        "deltaTime": 37,
        "channel": 5,
        "note": 52,
        "velocity": 127
      },
      {
        "type": "midi",
        "subType": "noteOff",
        "typeByte": 149,
        "deltaTime": 11,
        "channel": 5,
        "note": 52,
        "velocity": 0
      },
      {
        "type": "midi",
        "subType": "noteOn",
        "typeByte": 149,
        "deltaTime": 38,
        "channel": 5,
        "note": 49,
        "velocity": 127
      },
      {
        "type": "midi",
        "subType": "noteOff",
        "typeByte": 149,
        "deltaTime": 10,
        "channel": 5,
        "note": 49,
        "velocity": 0
      },
      {
        "type": "midi",
        "subType": "noteOn",
        "typeByte": 149,
        "deltaTime": 37,
        "channel": 5,
        "note": 45,
        "velocity": 127
      },
      {
        "type": "midi",
        "subType": "noteOff",
        "typeByte": 149,
        "deltaTime": 12,
        "channel": 5,
        "note": 45,
        "velocity": 0
      },
      {
        "type": "midi",
        "subType": "noteOn",
        "typeByte": 149,
        "deltaTime": 37,
        "channel": 5,
        "note": 45,
        "velocity": 127
      },
      {
        "type": "midi",
        "subType": "noteOff",
        "typeByte": 149,
        "deltaTime": 10,
        "channel": 5,
        "note": 45,
        "velocity": 0
      },
      {
        "type": "midi",
        "subType": "noteOn",
        "typeByte": 149,
        "deltaTime": 37,
        "channel": 5,
        "note": 45,
        "velocity": 127
      },
      {
        "type": "midi",
        "subType": "noteOff",
        "typeByte": 149,
        "deltaTime": 12,
        "channel": 5,
        "note": 45,
        "velocity": 0
      },
      {
        "type": "midi",
        "subType": "noteOn",
        "typeByte": 149,
        "deltaTime": 37,
        "channel": 5,
        "note": 50,
        "velocity": 127
      },
      {
        "type": "midi",
        "subType": "noteOff",
        "typeByte": 149,
        "deltaTime": 10,
        "channel": 5,
        "note": 50,
        "velocity": 0
      },
      {
        "type": "midi",
        "subType": "noteOn",
        "typeByte": 149,
        "deltaTime": 38,
        "channel": 5,
        "note": 54,
        "velocity": 127
      },
      {
        "type": "midi",
        "subType": "noteOff",
        "typeByte": 149,
        "deltaTime": 11,
        "channel": 5,
        "note": 54,
        "velocity": 0
      },
      {
        "type": "midi",
        "subType": "noteOn",
        "typeByte": 149,
        "deltaTime": 38,
        "channel": 5,
        "note": 57,
        "velocity": 127
      },
      {
        "type": "midi",
        "subType": "noteOff",
        "typeByte": 149,
        "deltaTime": 10,
        "channel": 5,
        "note": 57,
        "velocity": 0
      },
      {
        "type": "midi",
        "subType": "noteOn",
        "typeByte": 149,
        "deltaTime": 37,
        "channel": 5,
        "note": 54,
        "velocity": 127
      },
      {
        "type": "midi",
        "subType": "noteOff",
        "typeByte": 149,
        "deltaTime": 12,
        "channel": 5,
        "note": 54,
        "velocity": 0
      },
      {
        "type": "midi",
        "subType": "noteOn",
        "typeByte": 149,
        "deltaTime": 37,
        "channel": 5,
        "note": 50,
        "velocity": 127
      },
      {
        "type": "midi",
        "subType": "noteOff",
        "typeByte": 149,
        "deltaTime": 10,
        "channel": 5,
        "note": 50,
        "velocity": 0
      },
      {
        "type": "midi",
        "subType": "noteOn",
        "typeByte": 149,
        "deltaTime": 37,
        "channel": 5,
        "note": 45,
        "velocity": 127
      },
      {
        "type": "midi",
        "subType": "noteOff",
        "typeByte": 149,
        "deltaTime": 12,
        "channel": 5,
        "note": 45,
        "velocity": 0
      },
      {
        "type": "midi",
        "subType": "noteOn",
        "typeByte": 149,
        "deltaTime": 37,
        "channel": 5,
        "note": 47,
        "velocity": 127
      },
      {
        "type": "midi",
        "subType": "noteOff",
        "typeByte": 149,
        "deltaTime": 10,
        "channel": 5,
        "note": 47,
        "velocity": 0
      },
      {
        "type": "midi",
        "subType": "noteOn",
        "typeByte": 149,
        "deltaTime": 37,
        "channel": 5,
        "note": 47,
        "velocity": 127
      },
      {
        "type": "midi",
        "subType": "noteOff",
        "typeByte": 149,
        "deltaTime": 12,
        "channel": 5,
        "note": 47,
        "velocity": 0
      },
      {
        "type": "midi",
        "subType": "noteOn",
        "typeByte": 149,
        "deltaTime": 37,
        "channel": 5,
        "note": 50,
        "velocity": 127
      },
      {
        "type": "midi",
        "subType": "noteOff",
        "typeByte": 149,
        "deltaTime": 11,
        "channel": 5,
        "note": 50,
        "velocity": 0
      },
      {
        "type": "midi",
        "subType": "noteOn",
        "typeByte": 149,
        "deltaTime": 37,
        "channel": 5,
        "note": 54,
        "velocity": 127
      },
      {
        "type": "midi",
        "subType": "noteOff",
        "typeByte": 149,
        "deltaTime": 11,
        "channel": 5,
        "note": 54,
        "velocity": 0
      },
      {
        "type": "midi",
        "subType": "noteOn",
        "typeByte": 149,
        "deltaTime": 39,
        "channel": 5,
        "note": 59,
        "velocity": 127
      },
      {
        "type": "midi",
        "subType": "noteOff",
        "typeByte": 149,
        "deltaTime": 9,
        "channel": 5,
        "note": 59,
        "velocity": 0
      },
      {
        "type": "midi",
        "subType": "noteOn",
        "typeByte": 149,
        "deltaTime": 38,
        "channel": 5,
        "note": 54,
        "velocity": 127
      },
      {
        "type": "midi",
        "subType": "noteOff",
        "typeByte": 149,
        "deltaTime": 11,
        "channel": 5,
        "note": 54,
        "velocity": 0
      },
      {
        "type": "midi",
        "subType": "noteOn",
        "typeByte": 149,
        "deltaTime": 37,
        "channel": 5,
        "note": 50,
        "velocity": 127
      },
      {
        "type": "midi",
        "subType": "noteOff",
        "typeByte": 149,
        "deltaTime": 10,
        "channel": 5,
        "note": 50,
        "velocity": 0
      },
      {
        "type": "midi",
        "subType": "noteOn",
        "typeByte": 149,
        "deltaTime": 37,
        "channel": 5,
        "note": 47,
        "velocity": 127
      },
      {
        "type": "midi",
        "subType": "noteOff",
        "typeByte": 149,
        "deltaTime": 12,
        "channel": 5,
        "note": 47,
        "velocity": 0
      },
      {
        "type": "midi",
        "subType": "noteOn",
        "typeByte": 149,
        "deltaTime": 38,
        "channel": 5,
        "note": 52,
        "velocity": 127
      },
      {
        "type": "midi",
        "subType": "noteOff",
        "typeByte": 149,
        "deltaTime": 9,
        "channel": 5,
        "note": 52,
        "velocity": 0
      },
      {
        "type": "midi",
        "subType": "noteOn",
        "typeByte": 149,
        "deltaTime": 38,
        "channel": 5,
        "note": 52,
        "velocity": 127
      },
      {
        "type": "midi",
        "subType": "noteOff",
        "typeByte": 149,
        "deltaTime": 11,
        "channel": 5,
        "note": 52,
        "velocity": 0
      },
      {
        "type": "midi",
        "subType": "noteOn",
        "typeByte": 149,
        "deltaTime": 38,
        "channel": 5,
        "note": 56,
        "velocity": 127
      },
      {
        "type": "midi",
        "subType": "noteOff",
        "typeByte": 149,
        "deltaTime": 10,
        "channel": 5,
        "note": 56,
        "velocity": 0
      },
      {
        "type": "midi",
        "subType": "noteOn",
        "typeByte": 149,
        "deltaTime": 37,
        "channel": 5,
        "note": 59,
        "velocity": 127
      },
      {
        "type": "midi",
        "subType": "noteOff",
        "typeByte": 149,
        "deltaTime": 12,
        "channel": 5,
        "note": 59,
        "velocity": 0
      },
      {
        "type": "midi",
        "subType": "noteOn",
        "typeByte": 149,
        "deltaTime": 37,
        "channel": 5,
        "note": 64,
        "velocity": 127
      },
      {
        "type": "midi",
        "subType": "noteOff",
        "typeByte": 149,
        "deltaTime": 10,
        "channel": 5,
        "note": 64,
        "velocity": 0
      },
      {
        "type": "midi",
        "subType": "noteOn",
        "typeByte": 149,
        "deltaTime": 37,
        "channel": 5,
        "note": 59,
        "velocity": 127
      },
      {
        "type": "midi",
        "subType": "noteOff",
        "typeByte": 149,
        "deltaTime": 12,
        "channel": 5,
        "note": 59,
        "velocity": 0
      },
      {
        "type": "midi",
        "subType": "noteOn",
        "typeByte": 149,
        "deltaTime": 37,
        "channel": 5,
        "note": 56,
        "velocity": 127
      },
      {
        "type": "midi",
        "subType": "noteOff",
        "typeByte": 149,
        "deltaTime": 10,
        "channel": 5,
        "note": 56,
        "velocity": 0
      },
      {
        "type": "midi",
        "subType": "noteOn",
        "typeByte": 149,
        "deltaTime": 37,
        "channel": 5,
        "note": 52,
        "velocity": 127
      },
      {
        "type": "midi",
        "subType": "noteOff",
        "typeByte": 149,
        "deltaTime": 12,
        "channel": 5,
        "note": 52,
        "velocity": 0
      },
      {
        "type": "midi",
        "subType": "noteOn",
        "typeByte": 149,
        "deltaTime": 38,
        "channel": 5,
        "note": 45,
        "velocity": 127
      },
      {
        "type": "midi",
        "subType": "noteOff",
        "typeByte": 149,
        "deltaTime": 10,
        "channel": 5,
        "note": 45,
        "velocity": 0
      },
      {
        "type": "midi",
        "subType": "noteOn",
        "typeByte": 149,
        "deltaTime": 37,
        "channel": 5,
        "note": 45,
        "velocity": 127
      },
      {
        "type": "midi",
        "subType": "noteOff",
        "typeByte": 149,
        "deltaTime": 11,
        "channel": 5,
        "note": 45,
        "velocity": 0
      },
      {
        "type": "midi",
        "subType": "noteOn",
        "typeByte": 149,
        "deltaTime": 38,
        "channel": 5,
        "note": 49,
        "velocity": 127
      },
      {
        "type": "midi",
        "subType": "noteOff",
        "typeByte": 149,
        "deltaTime": 10,
        "channel": 5,
        "note": 49,
        "velocity": 0
      },
      {
        "type": "midi",
        "subType": "noteOn",
        "typeByte": 149,
        "deltaTime": 37,
        "channel": 5,
        "note": 52,
        "velocity": 127
      },
      {
        "type": "midi",
        "subType": "noteOff",
        "typeByte": 149,
        "deltaTime": 12,
        "channel": 5,
        "note": 52,
        "velocity": 0
      },
      {
        "type": "midi",
        "subType": "noteOn",
        "typeByte": 149,
        "deltaTime": 38,
        "channel": 5,
        "note": 57,
        "velocity": 127
      },
      {
        "type": "midi",
        "subType": "noteOff",
        "typeByte": 149,
        "deltaTime": 9,
        "channel": 5,
        "note": 57,
        "velocity": 0
      },
      {
        "type": "midi",
        "subType": "noteOn",
        "typeByte": 149,
        "deltaTime": 38,
        "channel": 5,
        "note": 52,
        "velocity": 127
      },
      {
        "type": "midi",
        "subType": "noteOff",
        "typeByte": 149,
        "deltaTime": 11,
        "channel": 5,
        "note": 52,
        "velocity": 0
      },
      {
        "type": "midi",
        "subType": "noteOn",
        "typeByte": 149,
        "deltaTime": 38,
        "channel": 5,
        "note": 49,
        "velocity": 127
      },
      {
        "type": "midi",
        "subType": "noteOff",
        "typeByte": 149,
        "deltaTime": 10,
        "channel": 5,
        "note": 49,
        "velocity": 0
      },
      {
        "type": "midi",
        "subType": "noteOn",
        "typeByte": 149,
        "deltaTime": 37,
        "channel": 5,
        "note": 45,
        "velocity": 127
      },
      {
        "type": "midi",
        "subType": "noteOff",
        "typeByte": 149,
        "deltaTime": 11,
        "channel": 5,
        "note": 45,
        "velocity": 0
      },
      {
        "type": "midi",
        "subType": "noteOn",
        "typeByte": 149,
        "deltaTime": 38,
        "channel": 5,
        "note": 45,
        "velocity": 127
      },
      {
        "type": "midi",
        "subType": "noteOff",
        "typeByte": 149,
        "deltaTime": 10,
        "channel": 5,
        "note": 45,
        "velocity": 0
      },
      {
        "type": "midi",
        "subType": "noteOn",
        "typeByte": 149,
        "deltaTime": 37,
        "channel": 5,
        "note": 45,
        "velocity": 127
      },
      {
        "type": "midi",
        "subType": "noteOff",
        "typeByte": 149,
        "deltaTime": 12,
        "channel": 5,
        "note": 45,
        "velocity": 0
      },
      {
        "type": "midi",
        "subType": "noteOn",
        "typeByte": 149,
        "deltaTime": 37,
        "channel": 5,
        "note": 50,
        "velocity": 127
      },
      {
        "type": "midi",
        "subType": "noteOff",
        "typeByte": 149,
        "deltaTime": 10,
        "channel": 5,
        "note": 50,
        "velocity": 0
      },
      {
        "type": "midi",
        "subType": "noteOn",
        "typeByte": 149,
        "deltaTime": 37,
        "channel": 5,
        "note": 54,
        "velocity": 127
      },
      {
        "type": "midi",
        "subType": "noteOff",
        "typeByte": 149,
        "deltaTime": 12,
        "channel": 5,
        "note": 54,
        "velocity": 0
      },
      {
        "type": "midi",
        "subType": "noteOn",
        "typeByte": 149,
        "deltaTime": 38,
        "channel": 5,
        "note": 57,
        "velocity": 127
      },
      {
        "type": "midi",
        "subType": "noteOff",
        "typeByte": 149,
        "deltaTime": 9,
        "channel": 5,
        "note": 57,
        "velocity": 0
      },
      {
        "type": "midi",
        "subType": "noteOn",
        "typeByte": 149,
        "deltaTime": 38,
        "channel": 5,
        "note": 54,
        "velocity": 127
      },
      {
        "type": "midi",
        "subType": "noteOff",
        "typeByte": 149,
        "deltaTime": 11,
        "channel": 5,
        "note": 54,
        "velocity": 0
      },
      {
        "type": "midi",
        "subType": "noteOn",
        "typeByte": 149,
        "deltaTime": 38,
        "channel": 5,
        "note": 50,
        "velocity": 127
      },
      {
        "type": "midi",
        "subType": "noteOff",
        "typeByte": 149,
        "deltaTime": 10,
        "channel": 5,
        "note": 50,
        "velocity": 0
      },
      {
        "type": "midi",
        "subType": "noteOn",
        "typeByte": 149,
        "deltaTime": 37,
        "channel": 5,
        "note": 45,
        "velocity": 127
      },
      {
        "type": "midi",
        "subType": "noteOff",
        "typeByte": 149,
        "deltaTime": 12,
        "channel": 5,
        "note": 45,
        "velocity": 0
      },
      {
        "type": "midi",
        "subType": "noteOn",
        "typeByte": 149,
        "deltaTime": 37,
        "channel": 5,
        "note": 47,
        "velocity": 127
      },
      {
        "type": "midi",
        "subType": "noteOff",
        "typeByte": 149,
        "deltaTime": 10,
        "channel": 5,
        "note": 47,
        "velocity": 0
      },
      {
        "type": "midi",
        "subType": "noteOn",
        "typeByte": 149,
        "deltaTime": 37,
        "channel": 5,
        "note": 47,
        "velocity": 127
      },
      {
        "type": "midi",
        "subType": "noteOff",
        "typeByte": 149,
        "deltaTime": 12,
        "channel": 5,
        "note": 47,
        "velocity": 0
      },
      {
        "type": "midi",
        "subType": "noteOn",
        "typeByte": 149,
        "deltaTime": 37,
        "channel": 5,
        "note": 50,
        "velocity": 127
      },
      {
        "type": "midi",
        "subType": "noteOff",
        "typeByte": 149,
        "deltaTime": 10,
        "channel": 5,
        "note": 50,
        "velocity": 0
      },
      {
        "type": "midi",
        "subType": "noteOn",
        "typeByte": 149,
        "deltaTime": 37,
        "channel": 5,
        "note": 54,
        "velocity": 127
      },
      {
        "type": "midi",
        "subType": "noteOff",
        "typeByte": 149,
        "deltaTime": 12,
        "channel": 5,
        "note": 54,
        "velocity": 0
      },
      {
        "type": "midi",
        "subType": "noteOn",
        "typeByte": 149,
        "deltaTime": 38,
        "channel": 5,
        "note": 59,
        "velocity": 127
      },
      {
        "type": "midi",
        "subType": "noteOff",
        "typeByte": 149,
        "deltaTime": 10,
        "channel": 5,
        "note": 59,
        "velocity": 0
      },
      {
        "type": "midi",
        "subType": "noteOn",
        "typeByte": 149,
        "deltaTime": 37,
        "channel": 5,
        "note": 54,
        "velocity": 127
      },
      {
        "type": "midi",
        "subType": "noteOff",
        "typeByte": 149,
        "deltaTime": 11,
        "channel": 5,
        "note": 54,
        "velocity": 0
      },
      {
        "type": "midi",
        "subType": "noteOn",
        "typeByte": 149,
        "deltaTime": 38,
        "channel": 5,
        "note": 50,
        "velocity": 127
      },
      {
        "type": "midi",
        "subType": "noteOff",
        "typeByte": 149,
        "deltaTime": 10,
        "channel": 5,
        "note": 50,
        "velocity": 0
      },
      {
        "type": "midi",
        "subType": "noteOn",
        "typeByte": 149,
        "deltaTime": 37,
        "channel": 5,
        "note": 47,
        "velocity": 127
      },
      {
        "type": "midi",
        "subType": "noteOff",
        "typeByte": 149,
        "deltaTime": 12,
        "channel": 5,
        "note": 47,
        "velocity": 0
      },
      {
        "type": "midi",
        "subType": "noteOn",
        "typeByte": 149,
        "deltaTime": 37,
        "channel": 5,
        "note": 52,
        "velocity": 127
      },
      {
        "type": "midi",
        "subType": "noteOff",
        "typeByte": 149,
        "deltaTime": 10,
        "channel": 5,
        "note": 52,
        "velocity": 0
      },
      {
        "type": "midi",
        "subType": "noteOn",
        "typeByte": 149,
        "deltaTime": 37,
        "channel": 5,
        "note": 52,
        "velocity": 127
      },
      {
        "type": "midi",
        "subType": "noteOff",
        "typeByte": 149,
        "deltaTime": 12,
        "channel": 5,
        "note": 52,
        "velocity": 0
      },
      {
        "type": "midi",
        "subType": "noteOn",
        "typeByte": 149,
        "deltaTime": 37,
        "channel": 5,
        "note": 56,
        "velocity": 127
      },
      {
        "type": "midi",
        "subType": "noteOff",
        "typeByte": 149,
        "deltaTime": 10,
        "channel": 5,
        "note": 56,
        "velocity": 0
      },
      {
        "type": "midi",
        "subType": "noteOn",
        "typeByte": 149,
        "deltaTime": 38,
        "channel": 5,
        "note": 59,
        "velocity": 127
      },
      {
        "type": "midi",
        "subType": "noteOff",
        "typeByte": 149,
        "deltaTime": 11,
        "channel": 5,
        "note": 59,
        "velocity": 0
      },
      {
        "type": "midi",
        "subType": "noteOn",
        "typeByte": 149,
        "deltaTime": 38,
        "channel": 5,
        "note": 64,
        "velocity": 127
      },
      {
        "type": "midi",
        "subType": "noteOff",
        "typeByte": 149,
        "deltaTime": 10,
        "channel": 5,
        "note": 64,
        "velocity": 0
      },
      {
        "type": "midi",
        "subType": "noteOn",
        "typeByte": 149,
        "deltaTime": 37,
        "channel": 5,
        "note": 59,
        "velocity": 127
      },
      {
        "type": "midi",
        "subType": "noteOff",
        "typeByte": 149,
        "deltaTime": 12,
        "channel": 5,
        "note": 59,
        "velocity": 0
      },
      {
        "type": "midi",
        "subType": "noteOn",
        "typeByte": 149,
        "deltaTime": 37,
        "channel": 5,
        "note": 56,
        "velocity": 127
      },
      {
        "type": "midi",
        "subType": "noteOff",
        "typeByte": 149,
        "deltaTime": 10,
        "channel": 5,
        "note": 56,
        "velocity": 0
      },
      {
        "type": "midi",
        "subType": "noteOn",
        "typeByte": 149,
        "deltaTime": 37,
        "channel": 5,
        "note": 52,
        "velocity": 127
      },
      {
        "type": "midi",
        "subType": "noteOff",
        "typeByte": 149,
        "deltaTime": 12,
        "channel": 5,
        "note": 52,
        "velocity": 0
      },
      {
        "type": "midi",
        "subType": "noteOn",
        "typeByte": 149,
        "deltaTime": 37,
        "channel": 5,
        "note": 54,
        "velocity": 127
      },
      {
        "type": "midi",
        "subType": "noteOff",
        "typeByte": 149,
        "deltaTime": 10,
        "channel": 5,
        "note": 54,
        "velocity": 0
      },
      {
        "type": "midi",
        "subType": "noteOn",
        "typeByte": 149,
        "deltaTime": 37,
        "channel": 5,
        "note": 54,
        "velocity": 127
      },
      {
        "type": "midi",
        "subType": "noteOff",
        "typeByte": 149,
        "deltaTime": 12,
        "channel": 5,
        "note": 54,
        "velocity": 0
      },
      {
        "type": "midi",
        "subType": "noteOn",
        "typeByte": 149,
        "deltaTime": 38,
        "channel": 5,
        "note": 57,
        "velocity": 127
      },
      {
        "type": "midi",
        "subType": "noteOff",
        "typeByte": 149,
        "deltaTime": 10,
        "channel": 5,
        "note": 57,
        "velocity": 0
      },
      {
        "type": "midi",
        "subType": "noteOn",
        "typeByte": 149,
        "deltaTime": 37,
        "channel": 5,
        "note": 61,
        "velocity": 127
      },
      {
        "type": "midi",
        "subType": "noteOff",
        "typeByte": 149,
        "deltaTime": 12,
        "channel": 5,
        "note": 61,
        "velocity": 0
      },
      {
        "type": "midi",
        "subType": "noteOn",
        "typeByte": 149,
        "deltaTime": 38,
        "channel": 5,
        "note": 66,
        "velocity": 127
      },
      {
        "type": "midi",
        "subType": "noteOff",
        "typeByte": 149,
        "deltaTime": 9,
        "channel": 5,
        "note": 66,
        "velocity": 0
      },
      {
        "type": "midi",
        "subType": "noteOn",
        "typeByte": 149,
        "deltaTime": 38,
        "channel": 5,
        "note": 61,
        "velocity": 127
      },
      {
        "type": "midi",
        "subType": "noteOff",
        "typeByte": 149,
        "deltaTime": 11,
        "channel": 5,
        "note": 61,
        "velocity": 0
      },
      {
        "type": "midi",
        "subType": "noteOn",
        "typeByte": 149,
        "deltaTime": 38,
        "channel": 5,
        "note": 57,
        "velocity": 127
      },
      {
        "type": "midi",
        "subType": "noteOff",
        "typeByte": 149,
        "deltaTime": 9,
        "channel": 5,
        "note": 57,
        "velocity": 0
      },
      {
        "type": "midi",
        "subType": "noteOn",
        "typeByte": 149,
        "deltaTime": 38,
        "channel": 5,
        "note": 54,
        "velocity": 127
      },
      {
        "type": "midi",
        "subType": "noteOff",
        "typeByte": 149,
        "deltaTime": 11,
        "channel": 5,
        "note": 54,
        "velocity": 0
      },
      {
        "type": "midi",
        "subType": "noteOn",
        "typeByte": 149,
        "deltaTime": 38,
        "channel": 5,
        "note": 50,
        "velocity": 127
      },
      {
        "type": "midi",
        "subType": "noteOff",
        "typeByte": 149,
        "deltaTime": 10,
        "channel": 5,
        "note": 50,
        "velocity": 0
      },
      {
        "type": "midi",
        "subType": "noteOn",
        "typeByte": 149,
        "deltaTime": 37,
        "channel": 5,
        "note": 50,
        "velocity": 127
      },
      {
        "type": "midi",
        "subType": "noteOff",
        "typeByte": 149,
        "deltaTime": 11,
        "channel": 5,
        "note": 50,
        "velocity": 0
      },
      {
        "type": "midi",
        "subType": "noteOn",
        "typeByte": 149,
        "deltaTime": 38,
        "channel": 5,
        "note": 54,
        "velocity": 127
      },
      {
        "type": "midi",
        "subType": "noteOff",
        "typeByte": 149,
        "deltaTime": 10,
        "channel": 5,
        "note": 54,
        "velocity": 0
      },
      {
        "type": "midi",
        "subType": "noteOn",
        "typeByte": 149,
        "deltaTime": 37,
        "channel": 5,
        "note": 57,
        "velocity": 127
      },
      {
        "type": "midi",
        "subType": "noteOff",
        "typeByte": 149,
        "deltaTime": 12,
        "channel": 5,
        "note": 57,
        "velocity": 0
      },
      {
        "type": "midi",
        "subType": "noteOn",
        "typeByte": 149,
        "deltaTime": 38,
        "channel": 5,
        "note": 62,
        "velocity": 127
      },
      {
        "type": "midi",
        "subType": "noteOff",
        "typeByte": 149,
        "deltaTime": 9,
        "channel": 5,
        "note": 62,
        "velocity": 0
      },
      {
        "type": "midi",
        "subType": "noteOn",
        "typeByte": 149,
        "deltaTime": 37,
        "channel": 5,
        "note": 57,
        "velocity": 127
      },
      {
        "type": "midi",
        "subType": "noteOff",
        "typeByte": 149,
        "deltaTime": 12,
        "channel": 5,
        "note": 57,
        "velocity": 0
      },
      {
        "type": "midi",
        "subType": "noteOn",
        "typeByte": 149,
        "deltaTime": 37,
        "channel": 5,
        "note": 54,
        "velocity": 127
      },
      {
        "type": "midi",
        "subType": "noteOff",
        "typeByte": 149,
        "deltaTime": 10,
        "channel": 5,
        "note": 54,
        "velocity": 0
      },
      {
        "type": "midi",
        "subType": "noteOn",
        "typeByte": 149,
        "deltaTime": 38,
        "channel": 5,
        "note": 50,
        "velocity": 127
      },
      {
        "type": "midi",
        "subType": "noteOff",
        "typeByte": 149,
        "deltaTime": 11,
        "channel": 5,
        "note": 50,
        "velocity": 0
      },
      {
        "type": "midi",
        "subType": "noteOn",
        "typeByte": 149,
        "deltaTime": 6201,
        "channel": 5,
        "note": 47,
        "velocity": 127
      },
      {
        "type": "midi",
        "subType": "noteOff",
        "typeByte": 149,
        "deltaTime": 10,
        "channel": 5,
        "note": 47,
        "velocity": 0
      },
      {
        "type": "midi",
        "subType": "noteOn",
        "typeByte": 149,
        "deltaTime": 38,
        "channel": 5,
        "note": 47,
        "velocity": 127
      },
      {
        "type": "midi",
        "subType": "noteOff",
        "typeByte": 149,
        "deltaTime": 10,
        "channel": 5,
        "note": 47,
        "velocity": 0
      },
      {
        "type": "midi",
        "subType": "noteOn",
        "typeByte": 149,
        "deltaTime": 38,
        "channel": 5,
        "note": 50,
        "velocity": 127
      },
      {
        "type": "midi",
        "subType": "noteOff",
        "typeByte": 149,
        "deltaTime": 10,
        "channel": 5,
        "note": 50,
        "velocity": 0
      },
      {
        "type": "midi",
        "subType": "noteOn",
        "typeByte": 149,
        "deltaTime": 39,
        "channel": 5,
        "note": 54,
        "velocity": 127
      },
      {
        "type": "midi",
        "subType": "noteOff",
        "typeByte": 149,
        "deltaTime": 10,
        "channel": 5,
        "note": 54,
        "velocity": 0
      },
      {
        "type": "midi",
        "subType": "noteOn",
        "typeByte": 149,
        "deltaTime": 38,
        "channel": 5,
        "note": 59,
        "velocity": 127
      },
      {
        "type": "midi",
        "subType": "noteOff",
        "typeByte": 149,
        "deltaTime": 9,
        "channel": 5,
        "note": 59,
        "velocity": 0
      },
      {
        "type": "midi",
        "subType": "noteOn",
        "typeByte": 149,
        "deltaTime": 39,
        "channel": 5,
        "note": 54,
        "velocity": 127
      },
      {
        "type": "midi",
        "subType": "noteOff",
        "typeByte": 149,
        "deltaTime": 10,
        "channel": 5,
        "note": 54,
        "velocity": 0
      },
      {
        "type": "midi",
        "subType": "noteOn",
        "typeByte": 149,
        "deltaTime": 38,
        "channel": 5,
        "note": 50,
        "velocity": 127
      },
      {
        "type": "midi",
        "subType": "noteOff",
        "typeByte": 149,
        "deltaTime": 10,
        "channel": 5,
        "note": 50,
        "velocity": 0
      },
      {
        "type": "midi",
        "subType": "noteOn",
        "typeByte": 149,
        "deltaTime": 38,
        "channel": 5,
        "note": 47,
        "velocity": 127
      },
      {
        "type": "midi",
        "subType": "noteOff",
        "typeByte": 149,
        "deltaTime": 10,
        "channel": 5,
        "note": 47,
        "velocity": 0
      },
      {
        "type": "midi",
        "subType": "noteOn",
        "typeByte": 149,
        "deltaTime": 38,
        "channel": 5,
        "note": 52,
        "velocity": 127
      },
      {
        "type": "midi",
        "subType": "noteOff",
        "typeByte": 149,
        "deltaTime": 10,
        "channel": 5,
        "note": 52,
        "velocity": 0
      },
      {
        "type": "midi",
        "subType": "noteOn",
        "typeByte": 149,
        "deltaTime": 38,
        "channel": 5,
        "note": 52,
        "velocity": 127
      },
      {
        "type": "midi",
        "subType": "noteOff",
        "typeByte": 149,
        "deltaTime": 11,
        "channel": 5,
        "note": 52,
        "velocity": 0
      },
      {
        "type": "midi",
        "subType": "noteOn",
        "typeByte": 149,
        "deltaTime": 37,
        "channel": 5,
        "note": 56,
        "velocity": 127
      },
      {
        "type": "midi",
        "subType": "noteOff",
        "typeByte": 149,
        "deltaTime": 10,
        "channel": 5,
        "note": 56,
        "velocity": 0
      },
      {
        "type": "midi",
        "subType": "noteOn",
        "typeByte": 149,
        "deltaTime": 39,
        "channel": 5,
        "note": 59,
        "velocity": 127
      },
      {
        "type": "midi",
        "subType": "noteOff",
        "typeByte": 149,
        "deltaTime": 10,
        "channel": 5,
        "note": 59,
        "velocity": 0
      },
      {
        "type": "midi",
        "subType": "noteOn",
        "typeByte": 149,
        "deltaTime": 38,
        "channel": 5,
        "note": 64,
        "velocity": 127
      },
      {
        "type": "midi",
        "subType": "noteOff",
        "typeByte": 149,
        "deltaTime": 9,
        "channel": 5,
        "note": 64,
        "velocity": 0
      },
      {
        "type": "midi",
        "subType": "noteOn",
        "typeByte": 149,
        "deltaTime": 39,
        "channel": 5,
        "note": 59,
        "velocity": 127
      },
      {
        "type": "midi",
        "subType": "noteOff",
        "typeByte": 149,
        "deltaTime": 10,
        "channel": 5,
        "note": 59,
        "velocity": 0
      },
      {
        "type": "midi",
        "subType": "noteOn",
        "typeByte": 149,
        "deltaTime": 37,
        "channel": 5,
        "note": 56,
        "velocity": 127
      },
      {
        "type": "midi",
        "subType": "noteOff",
        "typeByte": 149,
        "deltaTime": 11,
        "channel": 5,
        "note": 56,
        "velocity": 0
      },
      {
        "type": "midi",
        "subType": "noteOn",
        "typeByte": 149,
        "deltaTime": 38,
        "channel": 5,
        "note": 52,
        "velocity": 127
      },
      {
        "type": "midi",
        "subType": "noteOff",
        "typeByte": 149,
        "deltaTime": 10,
        "channel": 5,
        "note": 52,
        "velocity": 0
      },
      {
        "type": "midi",
        "subType": "noteOn",
        "typeByte": 149,
        "deltaTime": 38,
        "channel": 5,
        "note": 45,
        "velocity": 127
      },
      {
        "type": "midi",
        "subType": "noteOff",
        "typeByte": 149,
        "deltaTime": 10,
        "channel": 5,
        "note": 45,
        "velocity": 0
      },
      {
        "type": "midi",
        "subType": "noteOn",
        "typeByte": 149,
        "deltaTime": 39,
        "channel": 5,
        "note": 45,
        "velocity": 127
      },
      {
        "type": "midi",
        "subType": "noteOff",
        "typeByte": 149,
        "deltaTime": 10,
        "channel": 5,
        "note": 45,
        "velocity": 0
      },
      {
        "type": "midi",
        "subType": "noteOn",
        "typeByte": 149,
        "deltaTime": 37,
        "channel": 5,
        "note": 49,
        "velocity": 127
      },
      {
        "type": "midi",
        "subType": "noteOff",
        "typeByte": 149,
        "deltaTime": 10,
        "channel": 5,
        "note": 49,
        "velocity": 0
      },
      {
        "type": "midi",
        "subType": "noteOn",
        "typeByte": 149,
        "deltaTime": 39,
        "channel": 5,
        "note": 52,
        "velocity": 127
      },
      {
        "type": "midi",
        "subType": "noteOff",
        "typeByte": 149,
        "deltaTime": 10,
        "channel": 5,
        "note": 52,
        "velocity": 0
      },
      {
        "type": "midi",
        "subType": "noteOn",
        "typeByte": 149,
        "deltaTime": 38,
        "channel": 5,
        "note": 57,
        "velocity": 127
      },
      {
        "type": "midi",
        "subType": "noteOff",
        "typeByte": 149,
        "deltaTime": 10,
        "channel": 5,
        "note": 57,
        "velocity": 0
      },
      {
        "type": "midi",
        "subType": "noteOn",
        "typeByte": 149,
        "deltaTime": 39,
        "channel": 5,
        "note": 52,
        "velocity": 127
      },
      {
        "type": "midi",
        "subType": "noteOff",
        "typeByte": 149,
        "deltaTime": 9,
        "channel": 5,
        "note": 52,
        "velocity": 0
      },
      {
        "type": "midi",
        "subType": "noteOn",
        "typeByte": 149,
        "deltaTime": 38,
        "channel": 5,
        "note": 49,
        "velocity": 127
      },
      {
        "type": "midi",
        "subType": "noteOff",
        "typeByte": 149,
        "deltaTime": 10,
        "channel": 5,
        "note": 49,
        "velocity": 0
      },
      {
        "type": "midi",
        "subType": "noteOn",
        "typeByte": 149,
        "deltaTime": 38,
        "channel": 5,
        "note": 45,
        "velocity": 127
      },
      {
        "type": "midi",
        "subType": "noteOff",
        "typeByte": 149,
        "deltaTime": 12,
        "channel": 5,
        "note": 45,
        "velocity": 0
      },
      {
        "type": "midi",
        "subType": "noteOn",
        "typeByte": 149,
        "deltaTime": 36,
        "channel": 5,
        "note": 45,
        "velocity": 127
      },
      {
        "type": "midi",
        "subType": "noteOff",
        "typeByte": 149,
        "deltaTime": 10,
        "channel": 5,
        "note": 45,
        "velocity": 0
      },
      {
        "type": "midi",
        "subType": "noteOn",
        "typeByte": 149,
        "deltaTime": 39,
        "channel": 5,
        "note": 45,
        "velocity": 127
      },
      {
        "type": "midi",
        "subType": "noteOff",
        "typeByte": 149,
        "deltaTime": 10,
        "channel": 5,
        "note": 45,
        "velocity": 0
      },
      {
        "type": "midi",
        "subType": "noteOn",
        "typeByte": 149,
        "deltaTime": 37,
        "channel": 5,
        "note": 50,
        "velocity": 127
      },
      {
        "type": "midi",
        "subType": "noteOff",
        "typeByte": 149,
        "deltaTime": 10,
        "channel": 5,
        "note": 50,
        "velocity": 0
      },
      {
        "type": "midi",
        "subType": "noteOn",
        "typeByte": 149,
        "deltaTime": 39,
        "channel": 5,
        "note": 54,
        "velocity": 127
      },
      {
        "type": "midi",
        "subType": "noteOff",
        "typeByte": 149,
        "deltaTime": 10,
        "channel": 5,
        "note": 54,
        "velocity": 0
      },
      {
        "type": "midi",
        "subType": "noteOn",
        "typeByte": 149,
        "deltaTime": 38,
        "channel": 5,
        "note": 57,
        "velocity": 127
      },
      {
        "type": "midi",
        "subType": "noteOff",
        "typeByte": 149,
        "deltaTime": 10,
        "channel": 5,
        "note": 57,
        "velocity": 0
      },
      {
        "type": "midi",
        "subType": "noteOn",
        "typeByte": 149,
        "deltaTime": 39,
        "channel": 5,
        "note": 54,
        "velocity": 127
      },
      {
        "type": "midi",
        "subType": "noteOff",
        "typeByte": 149,
        "deltaTime": 10,
        "channel": 5,
        "note": 54,
        "velocity": 0
      },
      {
        "type": "midi",
        "subType": "noteOn",
        "typeByte": 149,
        "deltaTime": 37,
        "channel": 5,
        "note": 50,
        "velocity": 127
      },
      {
        "type": "midi",
        "subType": "noteOff",
        "typeByte": 149,
        "deltaTime": 10,
        "channel": 5,
        "note": 50,
        "velocity": 0
      },
      {
        "type": "midi",
        "subType": "noteOn",
        "typeByte": 149,
        "deltaTime": 38,
        "channel": 5,
        "note": 45,
        "velocity": 127
      },
      {
        "type": "midi",
        "subType": "noteOff",
        "typeByte": 149,
        "deltaTime": 11,
        "channel": 5,
        "note": 45,
        "velocity": 0
      },
      {
        "type": "midi",
        "subType": "noteOn",
        "typeByte": 149,
        "deltaTime": 37,
        "channel": 5,
        "note": 47,
        "velocity": 127
      },
      {
        "type": "midi",
        "subType": "noteOff",
        "typeByte": 149,
        "deltaTime": 10,
        "channel": 5,
        "note": 47,
        "velocity": 0
      },
      {
        "type": "midi",
        "subType": "noteOn",
        "typeByte": 149,
        "deltaTime": 39,
        "channel": 5,
        "note": 47,
        "velocity": 127
      },
      {
        "type": "midi",
        "subType": "noteOff",
        "typeByte": 149,
        "deltaTime": 10,
        "channel": 5,
        "note": 47,
        "velocity": 0
      },
      {
        "type": "midi",
        "subType": "noteOn",
        "typeByte": 149,
        "deltaTime": 37,
        "channel": 5,
        "note": 50,
        "velocity": 127
      },
      {
        "type": "midi",
        "subType": "noteOff",
        "typeByte": 149,
        "deltaTime": 11,
        "channel": 5,
        "note": 50,
        "velocity": 0
      },
      {
        "type": "midi",
        "subType": "noteOn",
        "typeByte": 149,
        "deltaTime": 38,
        "channel": 5,
        "note": 54,
        "velocity": 127
      },
      {
        "type": "midi",
        "subType": "noteOff",
        "typeByte": 149,
        "deltaTime": 10,
        "channel": 5,
        "note": 54,
        "velocity": 0
      },
      {
        "type": "midi",
        "subType": "noteOn",
        "typeByte": 149,
        "deltaTime": 39,
        "channel": 5,
        "note": 59,
        "velocity": 127
      },
      {
        "type": "midi",
        "subType": "noteOff",
        "typeByte": 149,
        "deltaTime": 9,
        "channel": 5,
        "note": 59,
        "velocity": 0
      },
      {
        "type": "midi",
        "subType": "noteOn",
        "typeByte": 149,
        "deltaTime": 39,
        "channel": 5,
        "note": 54,
        "velocity": 127
      },
      {
        "type": "midi",
        "subType": "noteOff",
        "typeByte": 149,
        "deltaTime": 10,
        "channel": 5,
        "note": 54,
        "velocity": 0
      },
      {
        "type": "midi",
        "subType": "noteOn",
        "typeByte": 149,
        "deltaTime": 37,
        "channel": 5,
        "note": 50,
        "velocity": 127
      },
      {
        "type": "midi",
        "subType": "noteOff",
        "typeByte": 149,
        "deltaTime": 10,
        "channel": 5,
        "note": 50,
        "velocity": 0
      },
      {
        "type": "midi",
        "subType": "noteOn",
        "typeByte": 149,
        "deltaTime": 39,
        "channel": 5,
        "note": 47,
        "velocity": 127
      },
      {
        "type": "midi",
        "subType": "noteOff",
        "typeByte": 149,
        "deltaTime": 10,
        "channel": 5,
        "note": 47,
        "velocity": 0
      },
      {
        "type": "midi",
        "subType": "noteOn",
        "typeByte": 149,
        "deltaTime": 37,
        "channel": 5,
        "note": 52,
        "velocity": 127
      },
      {
        "type": "midi",
        "subType": "noteOff",
        "typeByte": 149,
        "deltaTime": 10,
        "channel": 5,
        "note": 52,
        "velocity": 0
      },
      {
        "type": "midi",
        "subType": "noteOn",
        "typeByte": 149,
        "deltaTime": 39,
        "channel": 5,
        "note": 52,
        "velocity": 127
      },
      {
        "type": "midi",
        "subType": "noteOff",
        "typeByte": 149,
        "deltaTime": 10,
        "channel": 5,
        "note": 52,
        "velocity": 0
      },
      {
        "type": "midi",
        "subType": "noteOn",
        "typeByte": 149,
        "deltaTime": 38,
        "channel": 5,
        "note": 56,
        "velocity": 127
      },
      {
        "type": "midi",
        "subType": "noteOff",
        "typeByte": 149,
        "deltaTime": 10,
        "channel": 5,
        "note": 56,
        "velocity": 0
      },
      {
        "type": "midi",
        "subType": "noteOn",
        "typeByte": 149,
        "deltaTime": 38,
        "channel": 5,
        "note": 59,
        "velocity": 127
      },
      {
        "type": "midi",
        "subType": "noteOff",
        "typeByte": 149,
        "deltaTime": 11,
        "channel": 5,
        "note": 59,
        "velocity": 0
      },
      {
        "type": "midi",
        "subType": "noteOn",
        "typeByte": 149,
        "deltaTime": 37,
        "channel": 5,
        "note": 64,
        "velocity": 127
      },
      {
        "type": "midi",
        "subType": "noteOff",
        "typeByte": 149,
        "deltaTime": 10,
        "channel": 5,
        "note": 64,
        "velocity": 0
      },
      {
        "type": "midi",
        "subType": "noteOn",
        "typeByte": 149,
        "deltaTime": 39,
        "channel": 5,
        "note": 59,
        "velocity": 127
      },
      {
        "type": "midi",
        "subType": "noteOff",
        "typeByte": 149,
        "deltaTime": 10,
        "channel": 5,
        "note": 59,
        "velocity": 0
      },
      {
        "type": "midi",
        "subType": "noteOn",
        "typeByte": 149,
        "deltaTime": 37,
        "channel": 5,
        "note": 56,
        "velocity": 127
      },
      {
        "type": "midi",
        "subType": "noteOff",
        "typeByte": 149,
        "deltaTime": 10,
        "channel": 5,
        "note": 56,
        "velocity": 0
      },
      {
        "type": "midi",
        "subType": "noteOn",
        "typeByte": 149,
        "deltaTime": 39,
        "channel": 5,
        "note": 52,
        "velocity": 127
      },
      {
        "type": "midi",
        "subType": "noteOff",
        "typeByte": 149,
        "deltaTime": 10,
        "channel": 5,
        "note": 52,
        "velocity": 0
      },
      {
        "type": "midi",
        "subType": "noteOn",
        "typeByte": 149,
        "deltaTime": 38,
        "channel": 5,
        "note": 45,
        "velocity": 127
      },
      {
        "type": "midi",
        "subType": "noteOff",
        "typeByte": 149,
        "deltaTime": 10,
        "channel": 5,
        "note": 45,
        "velocity": 0
      },
      {
        "type": "midi",
        "subType": "noteOn",
        "typeByte": 149,
        "deltaTime": 38,
        "channel": 5,
        "note": 45,
        "velocity": 127
      },
      {
        "type": "midi",
        "subType": "noteOff",
        "typeByte": 149,
        "deltaTime": 11,
        "channel": 5,
        "note": 45,
        "velocity": 0
      },
      {
        "type": "midi",
        "subType": "noteOn",
        "typeByte": 149,
        "deltaTime": 37,
        "channel": 5,
        "note": 49,
        "velocity": 127
      },
      {
        "type": "midi",
        "subType": "noteOff",
        "typeByte": 149,
        "deltaTime": 10,
        "channel": 5,
        "note": 49,
        "velocity": 0
      },
      {
        "type": "midi",
        "subType": "noteOn",
        "typeByte": 149,
        "deltaTime": 39,
        "channel": 5,
        "note": 52,
        "velocity": 127
      },
      {
        "type": "midi",
        "subType": "noteOff",
        "typeByte": 149,
        "deltaTime": 10,
        "channel": 5,
        "note": 52,
        "velocity": 0
      },
      {
        "type": "midi",
        "subType": "noteOn",
        "typeByte": 149,
        "deltaTime": 38,
        "channel": 5,
        "note": 57,
        "velocity": 127
      },
      {
        "type": "midi",
        "subType": "noteOff",
        "typeByte": 149,
        "deltaTime": 9,
        "channel": 5,
        "note": 57,
        "velocity": 0
      },
      {
        "type": "midi",
        "subType": "noteOn",
        "typeByte": 149,
        "deltaTime": 39,
        "channel": 5,
        "note": 52,
        "velocity": 127
      },
      {
        "type": "midi",
        "subType": "noteOff",
        "typeByte": 149,
        "deltaTime": 10,
        "channel": 5,
        "note": 52,
        "velocity": 0
      },
      {
        "type": "midi",
        "subType": "noteOn",
        "typeByte": 149,
        "deltaTime": 38,
        "channel": 5,
        "note": 49,
        "velocity": 127
      },
      {
        "type": "midi",
        "subType": "noteOff",
        "typeByte": 149,
        "deltaTime": 10,
        "channel": 5,
        "note": 49,
        "velocity": 0
      },
      {
        "type": "midi",
        "subType": "noteOn",
        "typeByte": 149,
        "deltaTime": 38,
        "channel": 5,
        "note": 45,
        "velocity": 127
      },
      {
        "type": "midi",
        "subType": "noteOff",
        "typeByte": 149,
        "deltaTime": 10,
        "channel": 5,
        "note": 45,
        "velocity": 0
      },
      {
        "type": "midi",
        "subType": "noteOn",
        "typeByte": 149,
        "deltaTime": 38,
        "channel": 5,
        "note": 45,
        "velocity": 127
      },
      {
        "type": "midi",
        "subType": "noteOff",
        "typeByte": 149,
        "deltaTime": 10,
        "channel": 5,
        "note": 45,
        "velocity": 0
      },
      {
        "type": "midi",
        "subType": "noteOn",
        "typeByte": 149,
        "deltaTime": 39,
        "channel": 5,
        "note": 45,
        "velocity": 127
      },
      {
        "type": "midi",
        "subType": "noteOff",
        "typeByte": 149,
        "deltaTime": 10,
        "channel": 5,
        "note": 45,
        "velocity": 0
      },
      {
        "type": "midi",
        "subType": "noteOn",
        "typeByte": 149,
        "deltaTime": 37,
        "channel": 5,
        "note": 50,
        "velocity": 127
      },
      {
        "type": "midi",
        "subType": "noteOff",
        "typeByte": 149,
        "deltaTime": 10,
        "channel": 5,
        "note": 50,
        "velocity": 0
      },
      {
        "type": "midi",
        "subType": "noteOn",
        "typeByte": 149,
        "deltaTime": 39,
        "channel": 5,
        "note": 54,
        "velocity": 127
      },
      {
        "type": "midi",
        "subType": "noteOff",
        "typeByte": 149,
        "deltaTime": 10,
        "channel": 5,
        "note": 54,
        "velocity": 0
      },
      {
        "type": "midi",
        "subType": "noteOn",
        "typeByte": 149,
        "deltaTime": 38,
        "channel": 5,
        "note": 57,
        "velocity": 127
      },
      {
        "type": "midi",
        "subType": "noteOff",
        "typeByte": 149,
        "deltaTime": 9,
        "channel": 5,
        "note": 57,
        "velocity": 0
      },
      {
        "type": "midi",
        "subType": "noteOn",
        "typeByte": 149,
        "deltaTime": 39,
        "channel": 5,
        "note": 54,
        "velocity": 127
      },
      {
        "type": "midi",
        "subType": "noteOff",
        "typeByte": 149,
        "deltaTime": 10,
        "channel": 5,
        "note": 54,
        "velocity": 0
      },
      {
        "type": "midi",
        "subType": "noteOn",
        "typeByte": 149,
        "deltaTime": 38,
        "channel": 5,
        "note": 50,
        "velocity": 127
      },
      {
        "type": "midi",
        "subType": "noteOff",
        "typeByte": 149,
        "deltaTime": 10,
        "channel": 5,
        "note": 50,
        "velocity": 0
      },
      {
        "type": "midi",
        "subType": "noteOn",
        "typeByte": 149,
        "deltaTime": 38,
        "channel": 5,
        "note": 45,
        "velocity": 127
      },
      {
        "type": "midi",
        "subType": "noteOff",
        "typeByte": 149,
        "deltaTime": 11,
        "channel": 5,
        "note": 45,
        "velocity": 0
      },
      {
        "type": "midi",
        "subType": "noteOn",
        "typeByte": 149,
        "deltaTime": 37,
        "channel": 5,
        "note": 47,
        "velocity": 127
      },
      {
        "type": "midi",
        "subType": "noteOff",
        "typeByte": 149,
        "deltaTime": 10,
        "channel": 5,
        "note": 47,
        "velocity": 0
      },
      {
        "type": "midi",
        "subType": "noteOn",
        "typeByte": 149,
        "deltaTime": 39,
        "channel": 5,
        "note": 47,
        "velocity": 127
      },
      {
        "type": "midi",
        "subType": "noteOff",
        "typeByte": 149,
        "deltaTime": 10,
        "channel": 5,
        "note": 47,
        "velocity": 0
      },
      {
        "type": "midi",
        "subType": "noteOn",
        "typeByte": 149,
        "deltaTime": 37,
        "channel": 5,
        "note": 50,
        "velocity": 127
      },
      {
        "type": "midi",
        "subType": "noteOff",
        "typeByte": 149,
        "deltaTime": 10,
        "channel": 5,
        "note": 50,
        "velocity": 0
      },
      {
        "type": "midi",
        "subType": "noteOn",
        "typeByte": 149,
        "deltaTime": 39,
        "channel": 5,
        "note": 54,
        "velocity": 127
      },
      {
        "type": "midi",
        "subType": "noteOff",
        "typeByte": 149,
        "deltaTime": 10,
        "channel": 5,
        "note": 54,
        "velocity": 0
      },
      {
        "type": "midi",
        "subType": "noteOn",
        "typeByte": 149,
        "deltaTime": 38,
        "channel": 5,
        "note": 59,
        "velocity": 127
      },
      {
        "type": "midi",
        "subType": "noteOff",
        "typeByte": 149,
        "deltaTime": 10,
        "channel": 5,
        "note": 59,
        "velocity": 0
      },
      {
        "type": "midi",
        "subType": "noteOn",
        "typeByte": 149,
        "deltaTime": 39,
        "channel": 5,
        "note": 54,
        "velocity": 127
      },
      {
        "type": "midi",
        "subType": "noteOff",
        "typeByte": 149,
        "deltaTime": 10,
        "channel": 5,
        "note": 54,
        "velocity": 0
      },
      {
        "type": "midi",
        "subType": "noteOn",
        "typeByte": 149,
        "deltaTime": 37,
        "channel": 5,
        "note": 50,
        "velocity": 127
      },
      {
        "type": "midi",
        "subType": "noteOff",
        "typeByte": 149,
        "deltaTime": 10,
        "channel": 5,
        "note": 50,
        "velocity": 0
      },
      {
        "type": "midi",
        "subType": "noteOn",
        "typeByte": 149,
        "deltaTime": 39,
        "channel": 5,
        "note": 47,
        "velocity": 127
      },
      {
        "type": "midi",
        "subType": "noteOff",
        "typeByte": 149,
        "deltaTime": 10,
        "channel": 5,
        "note": 47,
        "velocity": 0
      },
      {
        "type": "midi",
        "subType": "noteOn",
        "typeByte": 149,
        "deltaTime": 37,
        "channel": 5,
        "note": 52,
        "velocity": 127
      },
      {
        "type": "midi",
        "subType": "noteOff",
        "typeByte": 149,
        "deltaTime": 10,
        "channel": 5,
        "note": 52,
        "velocity": 0
      },
      {
        "type": "midi",
        "subType": "noteOn",
        "typeByte": 149,
        "deltaTime": 39,
        "channel": 5,
        "note": 52,
        "velocity": 127
      },
      {
        "type": "midi",
        "subType": "noteOff",
        "typeByte": 149,
        "deltaTime": 10,
        "channel": 5,
        "note": 52,
        "velocity": 0
      },
      {
        "type": "midi",
        "subType": "noteOn",
        "typeByte": 149,
        "deltaTime": 37,
        "channel": 5,
        "note": 56,
        "velocity": 127
      },
      {
        "type": "midi",
        "subType": "noteOff",
        "typeByte": 149,
        "deltaTime": 11,
        "channel": 5,
        "note": 56,
        "velocity": 0
      },
      {
        "type": "midi",
        "subType": "noteOn",
        "typeByte": 149,
        "deltaTime": 38,
        "channel": 5,
        "note": 59,
        "velocity": 127
      },
      {
        "type": "midi",
        "subType": "noteOff",
        "typeByte": 149,
        "deltaTime": 10,
        "channel": 5,
        "note": 59,
        "velocity": 0
      },
      {
        "type": "midi",
        "subType": "noteOn",
        "typeByte": 149,
        "deltaTime": 38,
        "channel": 5,
        "note": 64,
        "velocity": 127
      },
      {
        "type": "midi",
        "subType": "noteOff",
        "typeByte": 149,
        "deltaTime": 10,
        "channel": 5,
        "note": 64,
        "velocity": 0
      },
      {
        "type": "midi",
        "subType": "noteOn",
        "typeByte": 149,
        "deltaTime": 39,
        "channel": 5,
        "note": 59,
        "velocity": 127
      },
      {
        "type": "midi",
        "subType": "noteOff",
        "typeByte": 149,
        "deltaTime": 10,
        "channel": 5,
        "note": 59,
        "velocity": 0
      },
      {
        "type": "midi",
        "subType": "noteOn",
        "typeByte": 149,
        "deltaTime": 37,
        "channel": 5,
        "note": 56,
        "velocity": 127
      },
      {
        "type": "midi",
        "subType": "noteOff",
        "typeByte": 149,
        "deltaTime": 10,
        "channel": 5,
        "note": 56,
        "velocity": 0
      },
      {
        "type": "midi",
        "subType": "noteOn",
        "typeByte": 149,
        "deltaTime": 39,
        "channel": 5,
        "note": 52,
        "velocity": 127
      },
      {
        "type": "midi",
        "subType": "noteOff",
        "typeByte": 149,
        "deltaTime": 10,
        "channel": 5,
        "note": 52,
        "velocity": 0
      },
      {
        "type": "midi",
        "subType": "noteOn",
        "typeByte": 149,
        "deltaTime": 37,
        "channel": 5,
        "note": 54,
        "velocity": 127
      },
      {
        "type": "midi",
        "subType": "noteOff",
        "typeByte": 149,
        "deltaTime": 10,
        "channel": 5,
        "note": 54,
        "velocity": 0
      },
      {
        "type": "midi",
        "subType": "noteOn",
        "typeByte": 149,
        "deltaTime": 39,
        "channel": 5,
        "note": 54,
        "velocity": 127
      },
      {
        "type": "midi",
        "subType": "noteOff",
        "typeByte": 149,
        "deltaTime": 10,
        "channel": 5,
        "note": 54,
        "velocity": 0
      },
      {
        "type": "midi",
        "subType": "noteOn",
        "typeByte": 149,
        "deltaTime": 38,
        "channel": 5,
        "note": 57,
        "velocity": 127
      },
      {
        "type": "midi",
        "subType": "noteOff",
        "typeByte": 149,
        "deltaTime": 10,
        "channel": 5,
        "note": 57,
        "velocity": 0
      },
      {
        "type": "midi",
        "subType": "noteOn",
        "typeByte": 149,
        "deltaTime": 38,
        "channel": 5,
        "note": 61,
        "velocity": 127
      },
      {
        "type": "midi",
        "subType": "noteOff",
        "typeByte": 149,
        "deltaTime": 11,
        "channel": 5,
        "note": 61,
        "velocity": 0
      },
      {
        "type": "midi",
        "subType": "noteOn",
        "typeByte": 149,
        "deltaTime": 38,
        "channel": 5,
        "note": 66,
        "velocity": 127
      },
      {
        "type": "midi",
        "subType": "noteOff",
        "typeByte": 149,
        "deltaTime": 9,
        "channel": 5,
        "note": 66,
        "velocity": 0
      },
      {
        "type": "midi",
        "subType": "noteOn",
        "typeByte": 149,
        "deltaTime": 39,
        "channel": 5,
        "note": 61,
        "velocity": 127
      },
      {
        "type": "midi",
        "subType": "noteOff",
        "typeByte": 149,
        "deltaTime": 10,
        "channel": 5,
        "note": 61,
        "velocity": 0
      },
      {
        "type": "midi",
        "subType": "noteOn",
        "typeByte": 149,
        "deltaTime": 38,
        "channel": 5,
        "note": 57,
        "velocity": 127
      },
      {
        "type": "midi",
        "subType": "noteOff",
        "typeByte": 149,
        "deltaTime": 9,
        "channel": 5,
        "note": 57,
        "velocity": 0
      },
      {
        "type": "midi",
        "subType": "noteOn",
        "typeByte": 149,
        "deltaTime": 39,
        "channel": 5,
        "note": 54,
        "velocity": 127
      },
      {
        "type": "midi",
        "subType": "noteOff",
        "typeByte": 149,
        "deltaTime": 10,
        "channel": 5,
        "note": 54,
        "velocity": 0
      },
      {
        "type": "midi",
        "subType": "noteOn",
        "typeByte": 149,
        "deltaTime": 38,
        "channel": 5,
        "note": 50,
        "velocity": 127
      },
      {
        "type": "midi",
        "subType": "noteOff",
        "typeByte": 149,
        "deltaTime": 10,
        "channel": 5,
        "note": 50,
        "velocity": 0
      },
      {
        "type": "midi",
        "subType": "noteOn",
        "typeByte": 149,
        "deltaTime": 38,
        "channel": 5,
        "note": 50,
        "velocity": 127
      },
      {
        "type": "midi",
        "subType": "noteOff",
        "typeByte": 149,
        "deltaTime": 10,
        "channel": 5,
        "note": 50,
        "velocity": 0
      },
      {
        "type": "midi",
        "subType": "noteOn",
        "typeByte": 149,
        "deltaTime": 38,
        "channel": 5,
        "note": 54,
        "velocity": 127
      },
      {
        "type": "midi",
        "subType": "noteOff",
        "typeByte": 149,
        "deltaTime": 10,
        "channel": 5,
        "note": 54,
        "velocity": 0
      },
      {
        "type": "midi",
        "subType": "noteOn",
        "typeByte": 149,
        "deltaTime": 39,
        "channel": 5,
        "note": 57,
        "velocity": 127
      },
      {
        "type": "midi",
        "subType": "noteOff",
        "typeByte": 149,
        "deltaTime": 10,
        "channel": 5,
        "note": 57,
        "velocity": 0
      },
      {
        "type": "midi",
        "subType": "noteOn",
        "typeByte": 149,
        "deltaTime": 38,
        "channel": 5,
        "note": 62,
        "velocity": 127
      },
      {
        "type": "midi",
        "subType": "noteOff",
        "typeByte": 149,
        "deltaTime": 9,
        "channel": 5,
        "note": 62,
        "velocity": 0
      },
      {
        "type": "midi",
        "subType": "noteOn",
        "typeByte": 149,
        "deltaTime": 39,
        "channel": 5,
        "note": 57,
        "velocity": 127
      },
      {
        "type": "midi",
        "subType": "noteOff",
        "typeByte": 149,
        "deltaTime": 10,
        "channel": 5,
        "note": 57,
        "velocity": 0
      },
      {
        "type": "midi",
        "subType": "noteOn",
        "typeByte": 149,
        "deltaTime": 37,
        "channel": 5,
        "note": 54,
        "velocity": 127
      },
      {
        "type": "midi",
        "subType": "noteOff",
        "typeByte": 149,
        "deltaTime": 10,
        "channel": 5,
        "note": 54,
        "velocity": 0
      },
      {
        "type": "midi",
        "subType": "noteOn",
        "typeByte": 149,
        "deltaTime": 39,
        "channel": 5,
        "note": 50,
        "velocity": 127
      },
      {
        "type": "midi",
        "subType": "noteOff",
        "typeByte": 149,
        "deltaTime": 10,
        "channel": 5,
        "note": 50,
        "velocity": 0
      },
      {
        "type": "midi",
        "subType": "noteOn",
        "typeByte": 149,
        "deltaTime": 16986,
        "channel": 5,
        "note": 47,
        "velocity": 127
      },
      {
        "type": "midi",
        "subType": "noteOff",
        "typeByte": 149,
        "deltaTime": 11,
        "channel": 5,
        "note": 47,
        "velocity": 0
      },
      {
        "type": "midi",
        "subType": "noteOn",
        "typeByte": 149,
        "deltaTime": 37,
        "channel": 5,
        "note": 47,
        "velocity": 127
      },
      {
        "type": "midi",
        "subType": "noteOff",
        "typeByte": 149,
        "deltaTime": 11,
        "channel": 5,
        "note": 47,
        "velocity": 0
      },
      {
        "type": "midi",
        "subType": "noteOn",
        "typeByte": 149,
        "deltaTime": 37,
        "channel": 5,
        "note": 50,
        "velocity": 127
      },
      {
        "type": "midi",
        "subType": "noteOff",
        "typeByte": 149,
        "deltaTime": 11,
        "channel": 5,
        "note": 50,
        "velocity": 0
      },
      {
        "type": "midi",
        "subType": "noteOn",
        "typeByte": 149,
        "deltaTime": 38,
        "channel": 5,
        "note": 54,
        "velocity": 127
      },
      {
        "type": "midi",
        "subType": "noteOff",
        "typeByte": 149,
        "deltaTime": 10,
        "channel": 5,
        "note": 54,
        "velocity": 0
      },
      {
        "type": "midi",
        "subType": "noteOn",
        "typeByte": 149,
        "deltaTime": 38,
        "channel": 5,
        "note": 59,
        "velocity": 127
      },
      {
        "type": "midi",
        "subType": "noteOff",
        "typeByte": 149,
        "deltaTime": 11,
        "channel": 5,
        "note": 59,
        "velocity": 0
      },
      {
        "type": "midi",
        "subType": "noteOn",
        "typeByte": 149,
        "deltaTime": 37,
        "channel": 5,
        "note": 54,
        "velocity": 127
      },
      {
        "type": "midi",
        "subType": "noteOff",
        "typeByte": 149,
        "deltaTime": 10,
        "channel": 5,
        "note": 54,
        "velocity": 0
      },
      {
        "type": "midi",
        "subType": "noteOn",
        "typeByte": 149,
        "deltaTime": 38,
        "channel": 5,
        "note": 50,
        "velocity": 127
      },
      {
        "type": "midi",
        "subType": "noteOff",
        "typeByte": 149,
        "deltaTime": 11,
        "channel": 5,
        "note": 50,
        "velocity": 0
      },
      {
        "type": "midi",
        "subType": "noteOn",
        "typeByte": 149,
        "deltaTime": 37,
        "channel": 5,
        "note": 47,
        "velocity": 127
      },
      {
        "type": "midi",
        "subType": "noteOff",
        "typeByte": 149,
        "deltaTime": 10,
        "channel": 5,
        "note": 47,
        "velocity": 0
      },
      {
        "type": "midi",
        "subType": "noteOn",
        "typeByte": 149,
        "deltaTime": 38,
        "channel": 5,
        "note": 52,
        "velocity": 127
      },
      {
        "type": "midi",
        "subType": "noteOff",
        "typeByte": 149,
        "deltaTime": 11,
        "channel": 5,
        "note": 52,
        "velocity": 0
      },
      {
        "type": "midi",
        "subType": "noteOn",
        "typeByte": 149,
        "deltaTime": 37,
        "channel": 5,
        "note": 52,
        "velocity": 127
      },
      {
        "type": "midi",
        "subType": "noteOff",
        "typeByte": 149,
        "deltaTime": 11,
        "channel": 5,
        "note": 52,
        "velocity": 0
      },
      {
        "type": "midi",
        "subType": "noteOn",
        "typeByte": 149,
        "deltaTime": 37,
        "channel": 5,
        "note": 56,
        "velocity": 127
      },
      {
        "type": "midi",
        "subType": "noteOff",
        "typeByte": 149,
        "deltaTime": 11,
        "channel": 5,
        "note": 56,
        "velocity": 0
      },
      {
        "type": "midi",
        "subType": "noteOn",
        "typeByte": 149,
        "deltaTime": 38,
        "channel": 5,
        "note": 59,
        "velocity": 127
      },
      {
        "type": "midi",
        "subType": "noteOff",
        "typeByte": 149,
        "deltaTime": 10,
        "channel": 5,
        "note": 59,
        "velocity": 0
      },
      {
        "type": "midi",
        "subType": "noteOn",
        "typeByte": 149,
        "deltaTime": 38,
        "channel": 5,
        "note": 64,
        "velocity": 127
      },
      {
        "type": "midi",
        "subType": "noteOff",
        "typeByte": 149,
        "deltaTime": 11,
        "channel": 5,
        "note": 64,
        "velocity": 0
      },
      {
        "type": "midi",
        "subType": "noteOn",
        "typeByte": 149,
        "deltaTime": 37,
        "channel": 5,
        "note": 59,
        "velocity": 127
      },
      {
        "type": "midi",
        "subType": "noteOff",
        "typeByte": 149,
        "deltaTime": 10,
        "channel": 5,
        "note": 59,
        "velocity": 0
      },
      {
        "type": "midi",
        "subType": "noteOn",
        "typeByte": 149,
        "deltaTime": 38,
        "channel": 5,
        "note": 56,
        "velocity": 127
      },
      {
        "type": "midi",
        "subType": "noteOff",
        "typeByte": 149,
        "deltaTime": 11,
        "channel": 5,
        "note": 56,
        "velocity": 0
      },
      {
        "type": "midi",
        "subType": "noteOn",
        "typeByte": 149,
        "deltaTime": 37,
        "channel": 5,
        "note": 52,
        "velocity": 127
      },
      {
        "type": "midi",
        "subType": "noteOff",
        "typeByte": 149,
        "deltaTime": 11,
        "channel": 5,
        "note": 52,
        "velocity": 0
      },
      {
        "type": "midi",
        "subType": "noteOn",
        "typeByte": 149,
        "deltaTime": 37,
        "channel": 5,
        "note": 45,
        "velocity": 127
      },
      {
        "type": "midi",
        "subType": "noteOff",
        "typeByte": 149,
        "deltaTime": 11,
        "channel": 5,
        "note": 45,
        "velocity": 0
      },
      {
        "type": "midi",
        "subType": "noteOn",
        "typeByte": 149,
        "deltaTime": 38,
        "channel": 5,
        "note": 45,
        "velocity": 127
      },
      {
        "type": "midi",
        "subType": "noteOff",
        "typeByte": 149,
        "deltaTime": 10,
        "channel": 5,
        "note": 45,
        "velocity": 0
      },
      {
        "type": "midi",
        "subType": "noteOn",
        "typeByte": 149,
        "deltaTime": 37,
        "channel": 5,
        "note": 49,
        "velocity": 127
      },
      {
        "type": "midi",
        "subType": "noteOff",
        "typeByte": 149,
        "deltaTime": 12,
        "channel": 5,
        "note": 49,
        "velocity": 0
      },
      {
        "type": "midi",
        "subType": "noteOn",
        "typeByte": 149,
        "deltaTime": 37,
        "channel": 5,
        "note": 52,
        "velocity": 127
      },
      {
        "type": "midi",
        "subType": "noteOff",
        "typeByte": 149,
        "deltaTime": 10,
        "channel": 5,
        "note": 52,
        "velocity": 0
      },
      {
        "type": "midi",
        "subType": "noteOn",
        "typeByte": 149,
        "deltaTime": 38,
        "channel": 5,
        "note": 57,
        "velocity": 127
      },
      {
        "type": "midi",
        "subType": "noteOff",
        "typeByte": 149,
        "deltaTime": 11,
        "channel": 5,
        "note": 57,
        "velocity": 0
      },
      {
        "type": "midi",
        "subType": "noteOn",
        "typeByte": 149,
        "deltaTime": 38,
        "channel": 5,
        "note": 52,
        "velocity": 127
      },
      {
        "type": "midi",
        "subType": "noteOff",
        "typeByte": 149,
        "deltaTime": 9,
        "channel": 5,
        "note": 52,
        "velocity": 0
      },
      {
        "type": "midi",
        "subType": "noteOn",
        "typeByte": 149,
        "deltaTime": 38,
        "channel": 5,
        "note": 49,
        "velocity": 127
      },
      {
        "type": "midi",
        "subType": "noteOff",
        "typeByte": 149,
        "deltaTime": 11,
        "channel": 5,
        "note": 49,
        "velocity": 0
      },
      {
        "type": "midi",
        "subType": "noteOn",
        "typeByte": 149,
        "deltaTime": 37,
        "channel": 5,
        "note": 45,
        "velocity": 127
      },
      {
        "type": "midi",
        "subType": "noteOff",
        "typeByte": 149,
        "deltaTime": 11,
        "channel": 5,
        "note": 45,
        "velocity": 0
      },
      {
        "type": "midi",
        "subType": "noteOn",
        "typeByte": 149,
        "deltaTime": 37,
        "channel": 5,
        "note": 45,
        "velocity": 127
      },
      {
        "type": "midi",
        "subType": "noteOff",
        "typeByte": 149,
        "deltaTime": 12,
        "channel": 5,
        "note": 45,
        "velocity": 0
      },
      {
        "type": "midi",
        "subType": "noteOn",
        "typeByte": 149,
        "deltaTime": 37,
        "channel": 5,
        "note": 45,
        "velocity": 127
      },
      {
        "type": "midi",
        "subType": "noteOff",
        "typeByte": 149,
        "deltaTime": 10,
        "channel": 5,
        "note": 45,
        "velocity": 0
      },
      {
        "type": "midi",
        "subType": "noteOn",
        "typeByte": 149,
        "deltaTime": 37,
        "channel": 5,
        "note": 50,
        "velocity": 127
      },
      {
        "type": "midi",
        "subType": "noteOff",
        "typeByte": 149,
        "deltaTime": 12,
        "channel": 5,
        "note": 50,
        "velocity": 0
      },
      {
        "type": "midi",
        "subType": "noteOn",
        "typeByte": 149,
        "deltaTime": 37,
        "channel": 5,
        "note": 54,
        "velocity": 127
      },
      {
        "type": "midi",
        "subType": "noteOff",
        "typeByte": 149,
        "deltaTime": 10,
        "channel": 5,
        "note": 54,
        "velocity": 0
      },
      {
        "type": "midi",
        "subType": "noteOn",
        "typeByte": 149,
        "deltaTime": 38,
        "channel": 5,
        "note": 57,
        "velocity": 127
      },
      {
        "type": "midi",
        "subType": "noteOff",
        "typeByte": 149,
        "deltaTime": 11,
        "channel": 5,
        "note": 57,
        "velocity": 0
      },
      {
        "type": "midi",
        "subType": "noteOn",
        "typeByte": 149,
        "deltaTime": 37,
        "channel": 5,
        "note": 54,
        "velocity": 127
      },
      {
        "type": "midi",
        "subType": "noteOff",
        "typeByte": 149,
        "deltaTime": 11,
        "channel": 5,
        "note": 54,
        "velocity": 0
      },
      {
        "type": "midi",
        "subType": "noteOn",
        "typeByte": 149,
        "deltaTime": 37,
        "channel": 5,
        "note": 50,
        "velocity": 127
      },
      {
        "type": "midi",
        "subType": "noteOff",
        "typeByte": 149,
        "deltaTime": 11,
        "channel": 5,
        "note": 50,
        "velocity": 0
      },
      {
        "type": "midi",
        "subType": "noteOn",
        "typeByte": 149,
        "deltaTime": 37,
        "channel": 5,
        "note": 45,
        "velocity": 127
      },
      {
        "type": "midi",
        "subType": "noteOff",
        "typeByte": 149,
        "deltaTime": 11,
        "channel": 5,
        "note": 45,
        "velocity": 0
      },
      {
        "type": "midi",
        "subType": "noteOn",
        "typeByte": 149,
        "deltaTime": 37,
        "channel": 5,
        "note": 47,
        "velocity": 127
      },
      {
        "type": "midi",
        "subType": "noteOff",
        "typeByte": 149,
        "deltaTime": 12,
        "channel": 5,
        "note": 47,
        "velocity": 0
      },
      {
        "type": "midi",
        "subType": "noteOn",
        "typeByte": 149,
        "deltaTime": 37,
        "channel": 5,
        "note": 47,
        "velocity": 127
      },
      {
        "type": "midi",
        "subType": "noteOff",
        "typeByte": 149,
        "deltaTime": 10,
        "channel": 5,
        "note": 47,
        "velocity": 0
      },
      {
        "type": "midi",
        "subType": "noteOn",
        "typeByte": 149,
        "deltaTime": 38,
        "channel": 5,
        "note": 50,
        "velocity": 127
      },
      {
        "type": "midi",
        "subType": "noteOff",
        "typeByte": 149,
        "deltaTime": 11,
        "channel": 5,
        "note": 50,
        "velocity": 0
      },
      {
        "type": "midi",
        "subType": "noteOn",
        "typeByte": 149,
        "deltaTime": 37,
        "channel": 5,
        "note": 54,
        "velocity": 127
      },
      {
        "type": "midi",
        "subType": "noteOff",
        "typeByte": 149,
        "deltaTime": 10,
        "channel": 5,
        "note": 54,
        "velocity": 0
      },
      {
        "type": "midi",
        "subType": "noteOn",
        "typeByte": 149,
        "deltaTime": 39,
        "channel": 5,
        "note": 59,
        "velocity": 127
      },
      {
        "type": "midi",
        "subType": "noteOff",
        "typeByte": 149,
        "deltaTime": 10,
        "channel": 5,
        "note": 59,
        "velocity": 0
      },
      {
        "type": "midi",
        "subType": "noteOn",
        "typeByte": 149,
        "deltaTime": 38,
        "channel": 5,
        "note": 54,
        "velocity": 127
      },
      {
        "type": "midi",
        "subType": "noteOff",
        "typeByte": 149,
        "deltaTime": 10,
        "channel": 5,
        "note": 54,
        "velocity": 0
      },
      {
        "type": "midi",
        "subType": "noteOn",
        "typeByte": 149,
        "deltaTime": 37,
        "channel": 5,
        "note": 50,
        "velocity": 127
      },
      {
        "type": "midi",
        "subType": "noteOff",
        "typeByte": 149,
        "deltaTime": 12,
        "channel": 5,
        "note": 50,
        "velocity": 0
      },
      {
        "type": "midi",
        "subType": "noteOn",
        "typeByte": 149,
        "deltaTime": 37,
        "channel": 5,
        "note": 47,
        "velocity": 127
      },
      {
        "type": "midi",
        "subType": "noteOff",
        "typeByte": 149,
        "deltaTime": 10,
        "channel": 5,
        "note": 47,
        "velocity": 0
      },
      {
        "type": "midi",
        "subType": "noteOn",
        "typeByte": 149,
        "deltaTime": 37,
        "channel": 5,
        "note": 52,
        "velocity": 127
      },
      {
        "type": "midi",
        "subType": "noteOff",
        "typeByte": 149,
        "deltaTime": 12,
        "channel": 5,
        "note": 52,
        "velocity": 0
      },
      {
        "type": "midi",
        "subType": "noteOn",
        "typeByte": 149,
        "deltaTime": 37,
        "channel": 5,
        "note": 52,
        "velocity": 127
      },
      {
        "type": "midi",
        "subType": "noteOff",
        "typeByte": 149,
        "deltaTime": 10,
        "channel": 5,
        "note": 52,
        "velocity": 0
      },
      {
        "type": "midi",
        "subType": "noteOn",
        "typeByte": 149,
        "deltaTime": 38,
        "channel": 5,
        "note": 56,
        "velocity": 127
      },
      {
        "type": "midi",
        "subType": "noteOff",
        "typeByte": 149,
        "deltaTime": 11,
        "channel": 5,
        "note": 56,
        "velocity": 0
      },
      {
        "type": "midi",
        "subType": "noteOn",
        "typeByte": 149,
        "deltaTime": 37,
        "channel": 5,
        "note": 59,
        "velocity": 127
      },
      {
        "type": "midi",
        "subType": "noteOff",
        "typeByte": 149,
        "deltaTime": 11,
        "channel": 5,
        "note": 59,
        "velocity": 0
      },
      {
        "type": "midi",
        "subType": "noteOn",
        "typeByte": 149,
        "deltaTime": 38,
        "channel": 5,
        "note": 64,
        "velocity": 127
      },
      {
        "type": "midi",
        "subType": "noteOff",
        "typeByte": 149,
        "deltaTime": 11,
        "channel": 5,
        "note": 64,
        "velocity": 0
      },
      {
        "type": "midi",
        "subType": "noteOn",
        "typeByte": 149,
        "deltaTime": 37,
        "channel": 5,
        "note": 59,
        "velocity": 127
      },
      {
        "type": "midi",
        "subType": "noteOff",
        "typeByte": 149,
        "deltaTime": 10,
        "channel": 5,
        "note": 59,
        "velocity": 0
      },
      {
        "type": "midi",
        "subType": "noteOn",
        "typeByte": 149,
        "deltaTime": 37,
        "channel": 5,
        "note": 56,
        "velocity": 127
      },
      {
        "type": "midi",
        "subType": "noteOff",
        "typeByte": 149,
        "deltaTime": 12,
        "channel": 5,
        "note": 56,
        "velocity": 0
      },
      {
        "type": "midi",
        "subType": "noteOn",
        "typeByte": 149,
        "deltaTime": 37,
        "channel": 5,
        "note": 52,
        "velocity": 127
      },
      {
        "type": "midi",
        "subType": "noteOff",
        "typeByte": 149,
        "deltaTime": 10,
        "channel": 5,
        "note": 52,
        "velocity": 0
      },
      {
        "type": "midi",
        "subType": "noteOn",
        "typeByte": 149,
        "deltaTime": 38,
        "channel": 5,
        "note": 45,
        "velocity": 127
      },
      {
        "type": "midi",
        "subType": "noteOff",
        "typeByte": 149,
        "deltaTime": 11,
        "channel": 5,
        "note": 45,
        "velocity": 0
      },
      {
        "type": "midi",
        "subType": "noteOn",
        "typeByte": 149,
        "deltaTime": 37,
        "channel": 5,
        "note": 45,
        "velocity": 127
      },
      {
        "type": "midi",
        "subType": "noteOff",
        "typeByte": 149,
        "deltaTime": 11,
        "channel": 5,
        "note": 45,
        "velocity": 0
      },
      {
        "type": "midi",
        "subType": "noteOn",
        "typeByte": 149,
        "deltaTime": 37,
        "channel": 5,
        "note": 49,
        "velocity": 127
      },
      {
        "type": "midi",
        "subType": "noteOff",
        "typeByte": 149,
        "deltaTime": 12,
        "channel": 5,
        "note": 49,
        "velocity": 0
      },
      {
        "type": "midi",
        "subType": "noteOn",
        "typeByte": 149,
        "deltaTime": 37,
        "channel": 5,
        "note": 52,
        "velocity": 127
      },
      {
        "type": "midi",
        "subType": "noteOff",
        "typeByte": 149,
        "deltaTime": 10,
        "channel": 5,
        "note": 52,
        "velocity": 0
      },
      {
        "type": "midi",
        "subType": "noteOn",
        "typeByte": 149,
        "deltaTime": 38,
        "channel": 5,
        "note": 57,
        "velocity": 127
      },
      {
        "type": "midi",
        "subType": "noteOff",
        "typeByte": 149,
        "deltaTime": 11,
        "channel": 5,
        "note": 57,
        "velocity": 0
      },
      {
        "type": "midi",
        "subType": "noteOn",
        "typeByte": 149,
        "deltaTime": 37,
        "channel": 5,
        "note": 52,
        "velocity": 127
      },
      {
        "type": "midi",
        "subType": "noteOff",
        "typeByte": 149,
        "deltaTime": 10,
        "channel": 5,
        "note": 52,
        "velocity": 0
      },
      {
        "type": "midi",
        "subType": "noteOn",
        "typeByte": 149,
        "deltaTime": 38,
        "channel": 5,
        "note": 49,
        "velocity": 127
      },
      {
        "type": "midi",
        "subType": "noteOff",
        "typeByte": 149,
        "deltaTime": 11,
        "channel": 5,
        "note": 49,
        "velocity": 0
      },
      {
        "type": "midi",
        "subType": "noteOn",
        "typeByte": 149,
        "deltaTime": 37,
        "channel": 5,
        "note": 45,
        "velocity": 127
      },
      {
        "type": "midi",
        "subType": "noteOff",
        "typeByte": 149,
        "deltaTime": 10,
        "channel": 5,
        "note": 45,
        "velocity": 0
      },
      {
        "type": "midi",
        "subType": "noteOn",
        "typeByte": 149,
        "deltaTime": 38,
        "channel": 5,
        "note": 45,
        "velocity": 127
      },
      {
        "type": "midi",
        "subType": "noteOff",
        "typeByte": 149,
        "deltaTime": 11,
        "channel": 5,
        "note": 45,
        "velocity": 0
      },
      {
        "type": "midi",
        "subType": "noteOn",
        "typeByte": 149,
        "deltaTime": 38,
        "channel": 5,
        "note": 45,
        "velocity": 127
      },
      {
        "type": "midi",
        "subType": "noteOff",
        "typeByte": 149,
        "deltaTime": 10,
        "channel": 5,
        "note": 45,
        "velocity": 0
      },
      {
        "type": "midi",
        "subType": "noteOn",
        "typeByte": 149,
        "deltaTime": 37,
        "channel": 5,
        "note": 50,
        "velocity": 127
      },
      {
        "type": "midi",
        "subType": "noteOff",
        "typeByte": 149,
        "deltaTime": 12,
        "channel": 5,
        "note": 50,
        "velocity": 0
      },
      {
        "type": "midi",
        "subType": "noteOn",
        "typeByte": 149,
        "deltaTime": 37,
        "channel": 5,
        "note": 54,
        "velocity": 127
      },
      {
        "type": "midi",
        "subType": "noteOff",
        "typeByte": 149,
        "deltaTime": 10,
        "channel": 5,
        "note": 54,
        "velocity": 0
      },
      {
        "type": "midi",
        "subType": "noteOn",
        "typeByte": 149,
        "deltaTime": 38,
        "channel": 5,
        "note": 57,
        "velocity": 127
      },
      {
        "type": "midi",
        "subType": "noteOff",
        "typeByte": 149,
        "deltaTime": 11,
        "channel": 5,
        "note": 57,
        "velocity": 0
      },
      {
        "type": "midi",
        "subType": "noteOn",
        "typeByte": 149,
        "deltaTime": 37,
        "channel": 5,
        "note": 54,
        "velocity": 127
      },
      {
        "type": "midi",
        "subType": "noteOff",
        "typeByte": 149,
        "deltaTime": 10,
        "channel": 5,
        "note": 54,
        "velocity": 0
      },
      {
        "type": "midi",
        "subType": "noteOn",
        "typeByte": 149,
        "deltaTime": 38,
        "channel": 5,
        "note": 50,
        "velocity": 127
      },
      {
        "type": "midi",
        "subType": "noteOff",
        "typeByte": 149,
        "deltaTime": 11,
        "channel": 5,
        "note": 50,
        "velocity": 0
      },
      {
        "type": "midi",
        "subType": "noteOn",
        "typeByte": 149,
        "deltaTime": 37,
        "channel": 5,
        "note": 45,
        "velocity": 127
      },
      {
        "type": "midi",
        "subType": "noteOff",
        "typeByte": 149,
        "deltaTime": 11,
        "channel": 5,
        "note": 45,
        "velocity": 0
      },
      {
        "type": "midi",
        "subType": "noteOn",
        "typeByte": 149,
        "deltaTime": 37,
        "channel": 5,
        "note": 47,
        "velocity": 127
      },
      {
        "type": "midi",
        "subType": "noteOff",
        "typeByte": 149,
        "deltaTime": 12,
        "channel": 5,
        "note": 47,
        "velocity": 0
      },
      {
        "type": "midi",
        "subType": "noteOn",
        "typeByte": 149,
        "deltaTime": 36,
        "channel": 5,
        "note": 47,
        "velocity": 127
      },
      {
        "type": "midi",
        "subType": "noteOff",
        "typeByte": 149,
        "deltaTime": 11,
        "channel": 5,
        "note": 47,
        "velocity": 0
      },
      {
        "type": "midi",
        "subType": "noteOn",
        "typeByte": 149,
        "deltaTime": 37,
        "channel": 5,
        "note": 50,
        "velocity": 127
      },
      {
        "type": "midi",
        "subType": "noteOff",
        "typeByte": 149,
        "deltaTime": 12,
        "channel": 5,
        "note": 50,
        "velocity": 0
      },
      {
        "type": "midi",
        "subType": "noteOn",
        "typeByte": 149,
        "deltaTime": 37,
        "channel": 5,
        "note": 54,
        "velocity": 127
      },
      {
        "type": "midi",
        "subType": "noteOff",
        "typeByte": 149,
        "deltaTime": 10,
        "channel": 5,
        "note": 54,
        "velocity": 0
      },
      {
        "type": "midi",
        "subType": "noteOn",
        "typeByte": 149,
        "deltaTime": 38,
        "channel": 5,
        "note": 59,
        "velocity": 127
      },
      {
        "type": "midi",
        "subType": "noteOff",
        "typeByte": 149,
        "deltaTime": 11,
        "channel": 5,
        "note": 59,
        "velocity": 0
      },
      {
        "type": "midi",
        "subType": "noteOn",
        "typeByte": 149,
        "deltaTime": 38,
        "channel": 5,
        "note": 54,
        "velocity": 127
      },
      {
        "type": "midi",
        "subType": "noteOff",
        "typeByte": 149,
        "deltaTime": 10,
        "channel": 5,
        "note": 54,
        "velocity": 0
      },
      {
        "type": "midi",
        "subType": "noteOn",
        "typeByte": 149,
        "deltaTime": 37,
        "channel": 5,
        "note": 50,
        "velocity": 127
      },
      {
        "type": "midi",
        "subType": "noteOff",
        "typeByte": 149,
        "deltaTime": 11,
        "channel": 5,
        "note": 50,
        "velocity": 0
      },
      {
        "type": "midi",
        "subType": "noteOn",
        "typeByte": 149,
        "deltaTime": 38,
        "channel": 5,
        "note": 47,
        "velocity": 127
      },
      {
        "type": "midi",
        "subType": "noteOff",
        "typeByte": 149,
        "deltaTime": 10,
        "channel": 5,
        "note": 47,
        "velocity": 0
      },
      {
        "type": "midi",
        "subType": "noteOn",
        "typeByte": 149,
        "deltaTime": 37,
        "channel": 5,
        "note": 52,
        "velocity": 127
      },
      {
        "type": "midi",
        "subType": "noteOff",
        "typeByte": 149,
        "deltaTime": 12,
        "channel": 5,
        "note": 52,
        "velocity": 0
      },
      {
        "type": "midi",
        "subType": "noteOn",
        "typeByte": 149,
        "deltaTime": 37,
        "channel": 5,
        "note": 52,
        "velocity": 127
      },
      {
        "type": "midi",
        "subType": "noteOff",
        "typeByte": 149,
        "deltaTime": 10,
        "channel": 5,
        "note": 52,
        "velocity": 0
      },
      {
        "type": "midi",
        "subType": "noteOn",
        "typeByte": 149,
        "deltaTime": 37,
        "channel": 5,
        "note": 56,
        "velocity": 127
      },
      {
        "type": "midi",
        "subType": "noteOff",
        "typeByte": 149,
        "deltaTime": 12,
        "channel": 5,
        "note": 56,
        "velocity": 0
      },
      {
        "type": "midi",
        "subType": "noteOn",
        "typeByte": 149,
        "deltaTime": 37,
        "channel": 5,
        "note": 59,
        "velocity": 127
      },
      {
        "type": "midi",
        "subType": "noteOff",
        "typeByte": 149,
        "deltaTime": 10,
        "channel": 5,
        "note": 59,
        "velocity": 0
      },
      {
        "type": "midi",
        "subType": "noteOn",
        "typeByte": 149,
        "deltaTime": 38,
        "channel": 5,
        "note": 64,
        "velocity": 127
      },
      {
        "type": "midi",
        "subType": "noteOff",
        "typeByte": 149,
        "deltaTime": 11,
        "channel": 5,
        "note": 64,
        "velocity": 0
      },
      {
        "type": "midi",
        "subType": "noteOn",
        "typeByte": 149,
        "deltaTime": 38,
        "channel": 5,
        "note": 59,
        "velocity": 127
      },
      {
        "type": "midi",
        "subType": "noteOff",
        "typeByte": 149,
        "deltaTime": 10,
        "channel": 5,
        "note": 59,
        "velocity": 0
      },
      {
        "type": "midi",
        "subType": "noteOn",
        "typeByte": 149,
        "deltaTime": 37,
        "channel": 5,
        "note": 56,
        "velocity": 127
      },
      {
        "type": "midi",
        "subType": "noteOff",
        "typeByte": 149,
        "deltaTime": 12,
        "channel": 5,
        "note": 56,
        "velocity": 0
      },
      {
        "type": "midi",
        "subType": "noteOn",
        "typeByte": 149,
        "deltaTime": 37,
        "channel": 5,
        "note": 52,
        "velocity": 127
      },
      {
        "type": "midi",
        "subType": "noteOff",
        "typeByte": 149,
        "deltaTime": 10,
        "channel": 5,
        "note": 52,
        "velocity": 0
      },
      {
        "type": "midi",
        "subType": "noteOn",
        "typeByte": 149,
        "deltaTime": 37,
        "channel": 5,
        "note": 54,
        "velocity": 127
      },
      {
        "type": "midi",
        "subType": "noteOff",
        "typeByte": 149,
        "deltaTime": 12,
        "channel": 5,
        "note": 54,
        "velocity": 0
      },
      {
        "type": "midi",
        "subType": "noteOn",
        "typeByte": 149,
        "deltaTime": 37,
        "channel": 5,
        "note": 54,
        "velocity": 127
      },
      {
        "type": "midi",
        "subType": "noteOff",
        "typeByte": 149,
        "deltaTime": 10,
        "channel": 5,
        "note": 54,
        "velocity": 0
      },
      {
        "type": "midi",
        "subType": "noteOn",
        "typeByte": 149,
        "deltaTime": 38,
        "channel": 5,
        "note": 57,
        "velocity": 127
      },
      {
        "type": "midi",
        "subType": "noteOff",
        "typeByte": 149,
        "deltaTime": 11,
        "channel": 5,
        "note": 57,
        "velocity": 0
      },
      {
        "type": "midi",
        "subType": "noteOn",
        "typeByte": 149,
        "deltaTime": 37,
        "channel": 5,
        "note": 61,
        "velocity": 127
      },
      {
        "type": "midi",
        "subType": "noteOff",
        "typeByte": 149,
        "deltaTime": 11,
        "channel": 5,
        "note": 61,
        "velocity": 0
      },
      {
        "type": "midi",
        "subType": "noteOn",
        "typeByte": 149,
        "deltaTime": 38,
        "channel": 5,
        "note": 66,
        "velocity": 127
      },
      {
        "type": "midi",
        "subType": "noteOff",
        "typeByte": 149,
        "deltaTime": 10,
        "channel": 5,
        "note": 66,
        "velocity": 0
      },
      {
        "type": "midi",
        "subType": "noteOn",
        "typeByte": 149,
        "deltaTime": 38,
        "channel": 5,
        "note": 61,
        "velocity": 127
      },
      {
        "type": "midi",
        "subType": "noteOff",
        "typeByte": 149,
        "deltaTime": 10,
        "channel": 5,
        "note": 61,
        "velocity": 0
      },
      {
        "type": "midi",
        "subType": "noteOn",
        "typeByte": 149,
        "deltaTime": 38,
        "channel": 5,
        "note": 57,
        "velocity": 127
      },
      {
        "type": "midi",
        "subType": "noteOff",
        "typeByte": 149,
        "deltaTime": 11,
        "channel": 5,
        "note": 57,
        "velocity": 0
      },
      {
        "type": "midi",
        "subType": "noteOn",
        "typeByte": 149,
        "deltaTime": 37,
        "channel": 5,
        "note": 54,
        "velocity": 127
      },
      {
        "type": "midi",
        "subType": "noteOff",
        "typeByte": 149,
        "deltaTime": 10,
        "channel": 5,
        "note": 54,
        "velocity": 0
      },
      {
        "type": "midi",
        "subType": "noteOn",
        "typeByte": 149,
        "deltaTime": 38,
        "channel": 5,
        "note": 50,
        "velocity": 127
      },
      {
        "type": "midi",
        "subType": "noteOff",
        "typeByte": 149,
        "deltaTime": 11,
        "channel": 5,
        "note": 50,
        "velocity": 0
      },
      {
        "type": "midi",
        "subType": "noteOn",
        "typeByte": 149,
        "deltaTime": 37,
        "channel": 5,
        "note": 50,
        "velocity": 127
      },
      {
        "type": "midi",
        "subType": "noteOff",
        "typeByte": 149,
        "deltaTime": 10,
        "channel": 5,
        "note": 50,
        "velocity": 0
      },
      {
        "type": "midi",
        "subType": "noteOn",
        "typeByte": 149,
        "deltaTime": 38,
        "channel": 5,
        "note": 54,
        "velocity": 127
      },
      {
        "type": "midi",
        "subType": "noteOff",
        "typeByte": 149,
        "deltaTime": 11,
        "channel": 5,
        "note": 54,
        "velocity": 0
      },
      {
        "type": "midi",
        "subType": "noteOn",
        "typeByte": 149,
        "deltaTime": 38,
        "channel": 5,
        "note": 57,
        "velocity": 127
      },
      {
        "type": "midi",
        "subType": "noteOff",
        "typeByte": 149,
        "deltaTime": 10,
        "channel": 5,
        "note": 57,
        "velocity": 0
      },
      {
        "type": "midi",
        "subType": "noteOn",
        "typeByte": 149,
        "deltaTime": 38,
        "channel": 5,
        "note": 62,
        "velocity": 127
      },
      {
        "type": "midi",
        "subType": "noteOff",
        "typeByte": 149,
        "deltaTime": 11,
        "channel": 5,
        "note": 62,
        "velocity": 0
      },
      {
        "type": "midi",
        "subType": "noteOn",
        "typeByte": 149,
        "deltaTime": 37,
        "channel": 5,
        "note": 57,
        "velocity": 127
      },
      {
        "type": "midi",
        "subType": "noteOff",
        "typeByte": 149,
        "deltaTime": 10,
        "channel": 5,
        "note": 57,
        "velocity": 0
      },
      {
        "type": "midi",
        "subType": "noteOn",
        "typeByte": 149,
        "deltaTime": 37,
        "channel": 5,
        "note": 54,
        "velocity": 127
      },
      {
        "type": "midi",
        "subType": "noteOff",
        "typeByte": 149,
        "deltaTime": 12,
        "channel": 5,
        "note": 54,
        "velocity": 0
      },
      {
        "type": "midi",
        "subType": "noteOn",
        "typeByte": 149,
        "deltaTime": 37,
        "channel": 5,
        "note": 50,
        "velocity": 127
      },
      {
        "type": "midi",
        "subType": "noteOff",
        "typeByte": 149,
        "deltaTime": 10,
        "channel": 5,
        "note": 50,
        "velocity": 0
      },
      {
        "type": "midi",
        "subType": "controller",
        "typeByte": 181,
        "deltaTime": 11528,
        "channel": 5,
        "controllerType": 7,
        "value": 88
      },
      {
        "type": "midi",
        "subType": "controller",
        "typeByte": 181,
        "deltaTime": 18,
        "channel": 5,
        "controllerType": 7,
        "value": 87
      },
      {
        "type": "midi",
        "subType": "controller",
        "typeByte": 181,
        "deltaTime": 47,
        "channel": 5,
        "controllerType": 7,
        "value": 86
      },
      {
        "type": "midi",
        "subType": "controller",
        "typeByte": 181,
        "deltaTime": 14,
        "channel": 5,
        "controllerType": 7,
        "value": 85
      },
      {
        "type": "midi",
        "subType": "controller",
        "typeByte": 181,
        "deltaTime": 15,
        "channel": 5,
        "controllerType": 7,
        "value": 84
      },
      {
        "type": "midi",
        "subType": "controller",
        "typeByte": 181,
        "deltaTime": 8,
        "channel": 5,
        "controllerType": 7,
        "value": 83
      },
      {
        "type": "midi",
        "subType": "controller",
        "typeByte": 181,
        "deltaTime": 21,
        "channel": 5,
        "controllerType": 7,
        "value": 82
      },
      {
        "type": "midi",
        "subType": "controller",
        "typeByte": 181,
        "deltaTime": 51,
        "channel": 5,
        "controllerType": 7,
        "value": 81
      },
      {
        "type": "midi",
        "subType": "controller",
        "typeByte": 181,
        "deltaTime": 28,
        "channel": 5,
        "controllerType": 7,
        "value": 80
      },
      {
        "type": "midi",
        "subType": "controller",
        "typeByte": 181,
        "deltaTime": 26,
        "channel": 5,
        "controllerType": 7,
        "value": 79
      },
      {
        "type": "midi",
        "subType": "controller",
        "typeByte": 181,
        "deltaTime": 43,
        "channel": 5,
        "controllerType": 7,
        "value": 78
      },
      {
        "type": "midi",
        "subType": "controller",
        "typeByte": 181,
        "deltaTime": 29,
        "channel": 5,
        "controllerType": 7,
        "value": 77
      },
      {
        "type": "midi",
        "subType": "controller",
        "typeByte": 181,
        "deltaTime": 15,
        "channel": 5,
        "controllerType": 7,
        "value": 76
      },
      {
        "type": "midi",
        "subType": "controller",
        "typeByte": 181,
        "deltaTime": 36,
        "channel": 5,
        "controllerType": 7,
        "value": 75
      },
      {
        "type": "midi",
        "subType": "controller",
        "typeByte": 181,
        "deltaTime": 25,
        "channel": 5,
        "controllerType": 7,
        "value": 74
      },
      {
        "type": "midi",
        "subType": "controller",
        "typeByte": 181,
        "deltaTime": 15,
        "channel": 5,
        "controllerType": 7,
        "value": 73
      },
      {
        "type": "midi",
        "subType": "controller",
        "typeByte": 181,
        "deltaTime": 14,
        "channel": 5,
        "controllerType": 7,
        "value": 72
      },
      {
        "type": "midi",
        "subType": "controller",
        "typeByte": 181,
        "deltaTime": 22,
        "channel": 5,
        "controllerType": 7,
        "value": 71
      },
      {
        "type": "midi",
        "subType": "controller",
        "typeByte": 181,
        "deltaTime": 22,
        "channel": 5,
        "controllerType": 7,
        "value": 70
      },
      {
        "type": "midi",
        "subType": "controller",
        "typeByte": 181,
        "deltaTime": 30,
        "channel": 5,
        "controllerType": 7,
        "value": 69
      },
      {
        "type": "midi",
        "subType": "controller",
        "typeByte": 181,
        "deltaTime": 11,
        "channel": 5,
        "controllerType": 7,
        "value": 68
      },
      {
        "type": "midi",
        "subType": "controller",
        "typeByte": 181,
        "deltaTime": 10,
        "channel": 5,
        "controllerType": 7,
        "value": 67
      },
      {
        "type": "midi",
        "subType": "controller",
        "typeByte": 181,
        "deltaTime": 5,
        "channel": 5,
        "controllerType": 7,
        "value": 66
      },
      {
        "type": "midi",
        "subType": "controller",
        "typeByte": 181,
        "deltaTime": 10,
        "channel": 5,
        "controllerType": 7,
        "value": 65
      },
      {
        "type": "midi",
        "subType": "controller",
        "typeByte": 181,
        "deltaTime": 29,
        "channel": 5,
        "controllerType": 7,
        "value": 64
      },
      {
        "type": "midi",
        "subType": "controller",
        "typeByte": 181,
        "deltaTime": 15,
        "channel": 5,
        "controllerType": 7,
        "value": 63
      },
      {
        "type": "midi",
        "subType": "controller",
        "typeByte": 181,
        "deltaTime": 47,
        "channel": 5,
        "controllerType": 7,
        "value": 62
      },
      {
        "type": "midi",
        "subType": "controller",
        "typeByte": 181,
        "deltaTime": 64,
        "channel": 5,
        "controllerType": 7,
        "value": 61
      },
      {
        "type": "midi",
        "subType": "controller",
        "typeByte": 181,
        "deltaTime": 22,
        "channel": 5,
        "controllerType": 7,
        "value": 60
      },
      {
        "type": "midi",
        "subType": "controller",
        "typeByte": 181,
        "deltaTime": 34,
        "channel": 5,
        "controllerType": 7,
        "value": 59
      },
      {
        "type": "midi",
        "subType": "controller",
        "typeByte": 181,
        "deltaTime": 31,
        "channel": 5,
        "controllerType": 7,
        "value": 58
      },
      {
        "type": "midi",
        "subType": "controller",
        "typeByte": 181,
        "deltaTime": 43,
        "channel": 5,
        "controllerType": 7,
        "value": 57
      },
      {
        "type": "midi",
        "subType": "controller",
        "typeByte": 181,
        "deltaTime": 38,
        "channel": 5,
        "controllerType": 7,
        "value": 56
      },
      {
        "type": "midi",
        "subType": "controller",
        "typeByte": 181,
        "deltaTime": 27,
        "channel": 5,
        "controllerType": 7,
        "value": 55
      },
      {
        "type": "midi",
        "subType": "controller",
        "typeByte": 181,
        "deltaTime": 15,
        "channel": 5,
        "controllerType": 7,
        "value": 54
      },
      {
        "type": "midi",
        "subType": "controller",
        "typeByte": 181,
        "deltaTime": 22,
        "channel": 5,
        "controllerType": 7,
        "value": 53
      },
      {
        "type": "midi",
        "subType": "controller",
        "typeByte": 181,
        "deltaTime": 57,
        "channel": 5,
        "controllerType": 7,
        "value": 52
      },
      {
        "type": "midi",
        "subType": "controller",
        "typeByte": 181,
        "deltaTime": 28,
        "channel": 5,
        "controllerType": 7,
        "value": 51
      },
      {
        "type": "midi",
        "subType": "controller",
        "typeByte": 181,
        "deltaTime": 27,
        "channel": 5,
        "controllerType": 7,
        "value": 50
      },
      {
        "type": "midi",
        "subType": "controller",
        "typeByte": 181,
        "deltaTime": 10,
        "channel": 5,
        "controllerType": 7,
        "value": 49
      },
      {
        "type": "midi",
        "subType": "controller",
        "typeByte": 181,
        "deltaTime": 19,
        "channel": 5,
        "controllerType": 7,
        "value": 48
      },
      {
        "type": "midi",
        "subType": "controller",
        "typeByte": 181,
        "deltaTime": 43,
        "channel": 5,
        "controllerType": 7,
        "value": 47
      },
      {
        "type": "midi",
        "subType": "controller",
        "typeByte": 181,
        "deltaTime": 18,
        "channel": 5,
        "controllerType": 7,
        "value": 46
      },
      {
        "type": "midi",
        "subType": "controller",
        "typeByte": 181,
        "deltaTime": 23,
        "channel": 5,
        "controllerType": 7,
        "value": 45
      },
      {
        "type": "midi",
        "subType": "controller",
        "typeByte": 181,
        "deltaTime": 18,
        "channel": 5,
        "controllerType": 7,
        "value": 44
      },
      {
        "type": "midi",
        "subType": "controller",
        "typeByte": 181,
        "deltaTime": 13,
        "channel": 5,
        "controllerType": 7,
        "value": 43
      },
      {
        "type": "midi",
        "subType": "controller",
        "typeByte": 181,
        "deltaTime": 41,
        "channel": 5,
        "controllerType": 7,
        "value": 42
      },
      {
        "type": "midi",
        "subType": "controller",
        "typeByte": 181,
        "deltaTime": 11,
        "channel": 5,
        "controllerType": 7,
        "value": 41
      },
      {
        "type": "midi",
        "subType": "controller",
        "typeByte": 181,
        "deltaTime": 11,
        "channel": 5,
        "controllerType": 7,
        "value": 40
      },
      {
        "type": "midi",
        "subType": "controller",
        "typeByte": 181,
        "deltaTime": 24,
        "channel": 5,
        "controllerType": 7,
        "value": 39
      },
      {
        "type": "midi",
        "subType": "controller",
        "typeByte": 181,
        "deltaTime": 16,
        "channel": 5,
        "controllerType": 7,
        "value": 38
      },
      {
        "type": "midi",
        "subType": "controller",
        "typeByte": 181,
        "deltaTime": 11,
        "channel": 5,
        "controllerType": 7,
        "value": 37
      },
      {
        "type": "midi",
        "subType": "controller",
        "typeByte": 181,
        "deltaTime": 18,
        "channel": 5,
        "controllerType": 7,
        "value": 36
      },
      {
        "type": "midi",
        "subType": "controller",
        "typeByte": 181,
        "deltaTime": 46,
        "channel": 5,
        "controllerType": 7,
        "value": 35
      },
      {
        "type": "midi",
        "subType": "controller",
        "typeByte": 181,
        "deltaTime": 19,
        "channel": 5,
        "controllerType": 7,
        "value": 34
      },
      {
        "type": "midi",
        "subType": "controller",
        "typeByte": 181,
        "deltaTime": 26,
        "channel": 5,
        "controllerType": 7,
        "value": 33
      },
      {
        "type": "midi",
        "subType": "controller",
        "typeByte": 181,
        "deltaTime": 24,
        "channel": 5,
        "controllerType": 7,
        "value": 32
      },
      {
        "type": "midi",
        "subType": "controller",
        "typeByte": 181,
        "deltaTime": 26,
        "channel": 5,
        "controllerType": 7,
        "value": 31
      },
      {
        "type": "midi",
        "subType": "controller",
        "typeByte": 181,
        "deltaTime": 28,
        "channel": 5,
        "controllerType": 7,
        "value": 30
      },
      {
        "type": "midi",
        "subType": "controller",
        "typeByte": 181,
        "deltaTime": 29,
        "channel": 5,
        "controllerType": 7,
        "value": 29
      },
      {
        "type": "midi",
        "subType": "controller",
        "typeByte": 181,
        "deltaTime": 12,
        "channel": 5,
        "controllerType": 7,
        "value": 28
      },
      {
        "type": "midi",
        "subType": "controller",
        "typeByte": 181,
        "deltaTime": 36,
        "channel": 5,
        "controllerType": 7,
        "value": 27
      },
      {
        "type": "midi",
        "subType": "controller",
        "typeByte": 181,
        "deltaTime": 18,
        "channel": 5,
        "controllerType": 7,
        "value": 26
      },
      {
        "type": "midi",
        "subType": "controller",
        "typeByte": 181,
        "deltaTime": 15,
        "channel": 5,
        "controllerType": 7,
        "value": 25
      },
      {
        "type": "midi",
        "subType": "controller",
        "typeByte": 181,
        "deltaTime": 7,
        "channel": 5,
        "controllerType": 7,
        "value": 24
      },
      {
        "type": "midi",
        "subType": "controller",
        "typeByte": 181,
        "deltaTime": 24,
        "channel": 5,
        "controllerType": 7,
        "value": 23
      },
      {
        "type": "midi",
        "subType": "controller",
        "typeByte": 181,
        "deltaTime": 8,
        "channel": 5,
        "controllerType": 7,
        "value": 22
      },
      {
        "type": "midi",
        "subType": "controller",
        "typeByte": 181,
        "deltaTime": 11,
        "channel": 5,
        "controllerType": 7,
        "value": 21
      },
      {
        "type": "midi",
        "subType": "controller",
        "typeByte": 181,
        "deltaTime": 9,
        "channel": 5,
        "controllerType": 7,
        "value": 20
      },
      {
        "type": "midi",
        "subType": "controller",
        "typeByte": 181,
        "deltaTime": 10,
        "channel": 5,
        "controllerType": 7,
        "value": 19
      },
      {
        "type": "midi",
        "subType": "controller",
        "typeByte": 181,
        "deltaTime": 7,
        "channel": 5,
        "controllerType": 7,
        "value": 18
      },
      {
        "type": "midi",
        "subType": "controller",
        "typeByte": 181,
        "deltaTime": 8,
        "channel": 5,
        "controllerType": 7,
        "value": 17
      },
      {
        "type": "midi",
        "subType": "controller",
        "typeByte": 181,
        "deltaTime": 25,
        "channel": 5,
        "controllerType": 7,
        "value": 16
      },
      {
        "type": "midi",
        "subType": "controller",
        "typeByte": 181,
        "deltaTime": 19,
        "channel": 5,
        "controllerType": 7,
        "value": 15
      },
      {
        "type": "midi",
        "subType": "controller",
        "typeByte": 181,
        "deltaTime": 17,
        "channel": 5,
        "controllerType": 7,
        "value": 14
      },
      {
        "type": "midi",
        "subType": "controller",
        "typeByte": 181,
        "deltaTime": 11,
        "channel": 5,
        "controllerType": 7,
        "value": 13
      },
      {
        "type": "midi",
        "subType": "controller",
        "typeByte": 181,
        "deltaTime": 15,
        "channel": 5,
        "controllerType": 7,
        "value": 12
      },
      {
        "type": "midi",
        "subType": "controller",
        "typeByte": 181,
        "deltaTime": 33,
        "channel": 5,
        "controllerType": 7,
        "value": 11
      },
      {
        "type": "midi",
        "subType": "controller",
        "typeByte": 181,
        "deltaTime": 12,
        "channel": 5,
        "controllerType": 7,
        "value": 10
      },
      {
        "type": "midi",
        "subType": "controller",
        "typeByte": 181,
        "deltaTime": 7,
        "channel": 5,
        "controllerType": 7,
        "value": 9
      },
      {
        "type": "midi",
        "subType": "controller",
        "typeByte": 181,
        "deltaTime": 35,
        "channel": 5,
        "controllerType": 7,
        "value": 8
      },
      {
        "type": "midi",
        "subType": "controller",
        "typeByte": 181,
        "deltaTime": 4,
        "channel": 5,
        "controllerType": 7,
        "value": 7
      },
      {
        "type": "midi",
        "subType": "controller",
        "typeByte": 181,
        "deltaTime": 4,
        "channel": 5,
        "controllerType": 7,
        "value": 6
      },
      {
        "type": "midi",
        "subType": "controller",
        "typeByte": 181,
        "deltaTime": 4,
        "channel": 5,
        "controllerType": 7,
        "value": 5
      },
      {
        "type": "midi",
        "subType": "controller",
        "typeByte": 181,
        "deltaTime": 7,
        "channel": 5,
        "controllerType": 7,
        "value": 4
      },
      {
        "type": "midi",
        "subType": "controller",
        "typeByte": 181,
        "deltaTime": 8,
        "channel": 5,
        "controllerType": 7,
        "value": 3
      },
      {
        "type": "midi",
        "subType": "controller",
        "typeByte": 181,
        "deltaTime": 43,
        "channel": 5,
        "controllerType": 7,
        "value": 2
      },
      {
        "type": "midi",
        "subType": "controller",
        "typeByte": 181,
        "deltaTime": 15,
        "channel": 5,
        "controllerType": 7,
        "value": 1
      },
      {
        "type": "midi",
        "subType": "controller",
        "typeByte": 181,
        "deltaTime": 11,
        "channel": 5,
        "controllerType": 7,
        "value": 0
      },
      {
        "type": "midi",
        "subType": "controller",
        "typeByte": 181,
        "deltaTime": 455,
        "channel": 5,
        "controllerType": 7,
        "value": 88
      },
      {
        "type": "midi",
        "subType": "programChange",
        "typeByte": 197,
        "deltaTime": 0,
        "channel": 5,
        "program": 17
      },
      {
        "type": "midi",
        "subType": "controller",
        "typeByte": 181,
        "deltaTime": 350,
        "channel": 5,
        "controllerType": 64,
        "value": 0
      },
      {
        "type": "midi",
        "subType": "pitchBend",
        "typeByte": 229,
        "deltaTime": 1,
        "channel": 5,
        "value": 8192
      },
      {
        "type": "meta",
        "subType": "endOfTrack",
        "typeByte": 255,
        "subTypeByte": 47,
        "deltaTime": 0
      }
    ],
    [
      {
        "type": "meta",
        "typeByte": 255,
        "subTypeByte": 33,
        "deltaTime": 0,
        "data": {}
      },
      {
        "type": "meta",
        "subType": "trackName",
        "typeByte": 255,
        "subTypeByte": 3,
        "deltaTime": 0,
        "text": "Syn Brass 1         "
      },
      {
        "type": "midi",
        "subType": "programChange",
        "typeByte": 198,
        "deltaTime": 0,
        "channel": 6,
        "program": 63
      },
      {
        "type": "midi",
        "subType": "controller",
        "typeByte": 182,
        "deltaTime": 0,
        "channel": 6,
        "controllerType": 7,
        "value": 103
      },
      {
        "type": "midi",
        "subType": "controller",
        "typeByte": 182,
        "deltaTime": 0,
        "channel": 6,
        "controllerType": 10,
        "value": 60
      },
      {
        "type": "midi",
        "subType": "noteOn",
        "typeByte": 150,
        "deltaTime": 9600,
        "channel": 6,
        "note": 62,
        "velocity": 127
      },
      {
        "type": "midi",
        "subType": "noteOff",
        "typeByte": 150,
        "deltaTime": 116,
        "channel": 6,
        "note": 62,
        "velocity": 0
      },
      {
        "type": "midi",
        "subType": "noteOn",
        "typeByte": 150,
        "deltaTime": 28,
        "channel": 6,
        "note": 62,
        "velocity": 127
      },
      {
        "type": "midi",
        "subType": "noteOff",
        "typeByte": 150,
        "deltaTime": 88,
        "channel": 6,
        "note": 62,
        "velocity": 0
      },
      {
        "type": "midi",
        "subType": "noteOn",
        "typeByte": 150,
        "deltaTime": 9,
        "channel": 6,
        "note": 61,
        "velocity": 127
      },
      {
        "type": "midi",
        "subType": "noteOff",
        "typeByte": 150,
        "deltaTime": 45,
        "channel": 6,
        "note": 61,
        "velocity": 0
      },
      {
        "type": "midi",
        "subType": "noteOn",
        "typeByte": 150,
        "deltaTime": 4,
        "channel": 6,
        "note": 59,
        "velocity": 127
      },
      {
        "type": "midi",
        "subType": "noteOff",
        "typeByte": 150,
        "deltaTime": 442,
        "channel": 6,
        "note": 59,
        "velocity": 0
      },
      {
        "type": "midi",
        "subType": "noteOn",
        "typeByte": 150,
        "deltaTime": 39,
        "channel": 6,
        "note": 61,
        "velocity": 127
      },
      {
        "type": "midi",
        "subType": "noteOff",
        "typeByte": 150,
        "deltaTime": 38,
        "channel": 6,
        "note": 61,
        "velocity": 0
      },
      {
        "type": "midi",
        "subType": "noteOn",
        "typeByte": 150,
        "deltaTime": 9,
        "channel": 6,
        "note": 61,
        "velocity": 127
      },
      {
        "type": "midi",
        "subType": "noteOff",
        "typeByte": 150,
        "deltaTime": 65,
        "channel": 6,
        "note": 61,
        "velocity": 0
      },
      {
        "type": "midi",
        "subType": "noteOn",
        "typeByte": 150,
        "deltaTime": 31,
        "channel": 6,
        "note": 61,
        "velocity": 127
      },
      {
        "type": "midi",
        "subType": "noteOff",
        "typeByte": 150,
        "deltaTime": 92,
        "channel": 6,
        "note": 61,
        "velocity": 0
      },
      {
        "type": "midi",
        "subType": "noteOn",
        "typeByte": 150,
        "deltaTime": 5,
        "channel": 6,
        "note": 57,
        "velocity": 127
      },
      {
        "type": "midi",
        "subType": "noteOff",
        "typeByte": 150,
        "deltaTime": 66,
        "channel": 6,
        "note": 57,
        "velocity": 0
      },
      {
        "type": "midi",
        "subType": "noteOn",
        "typeByte": 150,
        "deltaTime": 126,
        "channel": 6,
        "note": 66,
        "velocity": 127
      },
      {
        "type": "midi",
        "subType": "noteOff",
        "typeByte": 150,
        "deltaTime": 39,
        "channel": 6,
        "note": 66,
        "velocity": 0
      },
      {
        "type": "midi",
        "subType": "noteOn",
        "typeByte": 150,
        "deltaTime": 58,
        "channel": 6,
        "note": 66,
        "velocity": 127
      },
      {
        "type": "midi",
        "subType": "noteOff",
        "typeByte": 150,
        "deltaTime": 26,
        "channel": 6,
        "note": 66,
        "velocity": 0
      },
      {
        "type": "midi",
        "subType": "noteOn",
        "typeByte": 150,
        "deltaTime": 23,
        "channel": 6,
        "note": 66,
        "velocity": 127
      },
      {
        "type": "midi",
        "subType": "noteOff",
        "typeByte": 150,
        "deltaTime": 91,
        "channel": 6,
        "note": 66,
        "velocity": 0
      },
      {
        "type": "midi",
        "subType": "noteOn",
        "typeByte": 150,
        "deltaTime": 5,
        "channel": 6,
        "note": 64,
        "velocity": 127
      },
      {
        "type": "midi",
        "subType": "noteOff",
        "typeByte": 150,
        "deltaTime": 92,
        "channel": 6,
        "note": 64,
        "velocity": 0
      },
      {
        "type": "midi",
        "subType": "noteOn",
        "typeByte": 150,
        "deltaTime": 4,
        "channel": 6,
        "note": 62,
        "velocity": 127
      },
      {
        "type": "midi",
        "subType": "noteOff",
        "typeByte": 150,
        "deltaTime": 118,
        "channel": 6,
        "note": 62,
        "velocity": 0
      },
      {
        "type": "midi",
        "subType": "noteOn",
        "typeByte": 150,
        "deltaTime": 26,
        "channel": 6,
        "note": 62,
        "velocity": 127
      },
      {
        "type": "midi",
        "subType": "noteOff",
        "typeByte": 150,
        "deltaTime": 34,
        "channel": 6,
        "note": 62,
        "velocity": 0
      },
      {
        "type": "midi",
        "subType": "noteOn",
        "typeByte": 150,
        "deltaTime": 15,
        "channel": 6,
        "note": 62,
        "velocity": 127
      },
      {
        "type": "midi",
        "subType": "noteOff",
        "typeByte": 150,
        "deltaTime": 42,
        "channel": 6,
        "note": 62,
        "velocity": 0
      },
      {
        "type": "midi",
        "subType": "noteOn",
        "typeByte": 150,
        "deltaTime": 5,
        "channel": 6,
        "note": 61,
        "velocity": 127
      },
      {
        "type": "midi",
        "subType": "noteOff",
        "typeByte": 150,
        "deltaTime": 88,
        "channel": 6,
        "note": 61,
        "velocity": 0
      },
      {
        "type": "midi",
        "subType": "noteOn",
        "typeByte": 150,
        "deltaTime": 8,
        "channel": 6,
        "note": 59,
        "velocity": 127
      },
      {
        "type": "midi",
        "subType": "noteOff",
        "typeByte": 150,
        "deltaTime": 354,
        "channel": 6,
        "note": 59,
        "velocity": 0
      },
      {
        "type": "midi",
        "subType": "noteOn",
        "typeByte": 150,
        "deltaTime": 80,
        "channel": 6,
        "note": 61,
        "velocity": 127
      },
      {
        "type": "midi",
        "subType": "noteOff",
        "typeByte": 150,
        "deltaTime": 41,
        "channel": 6,
        "note": 61,
        "velocity": 0
      },
      {
        "type": "midi",
        "subType": "noteOn",
        "typeByte": 150,
        "deltaTime": 7,
        "channel": 6,
        "note": 61,
        "velocity": 127
      },
      {
        "type": "midi",
        "subType": "noteOff",
        "typeByte": 150,
        "deltaTime": 59,
        "channel": 6,
        "note": 61,
        "velocity": 0
      },
      {
        "type": "midi",
        "subType": "noteOn",
        "typeByte": 150,
        "deltaTime": 37,
        "channel": 6,
        "note": 61,
        "velocity": 127
      },
      {
        "type": "midi",
        "subType": "noteOff",
        "typeByte": 150,
        "deltaTime": 92,
        "channel": 6,
        "note": 61,
        "velocity": 0
      },
      {
        "type": "midi",
        "subType": "noteOn",
        "typeByte": 150,
        "deltaTime": 5,
        "channel": 6,
        "note": 59,
        "velocity": 127
      },
      {
        "type": "midi",
        "subType": "noteOff",
        "typeByte": 150,
        "deltaTime": 91,
        "channel": 6,
        "note": 59,
        "velocity": 0
      },
      {
        "type": "midi",
        "subType": "noteOn",
        "typeByte": 150,
        "deltaTime": 5,
        "channel": 6,
        "note": 57,
        "velocity": 127
      },
      {
        "type": "midi",
        "subType": "noteOff",
        "typeByte": 150,
        "deltaTime": 91,
        "channel": 6,
        "note": 57,
        "velocity": 0
      },
      {
        "type": "midi",
        "subType": "noteOn",
        "typeByte": 150,
        "deltaTime": 5,
        "channel": 6,
        "note": 59,
        "velocity": 127
      },
      {
        "type": "midi",
        "subType": "noteOff",
        "typeByte": 150,
        "deltaTime": 92,
        "channel": 6,
        "note": 59,
        "velocity": 0
      },
      {
        "type": "midi",
        "subType": "noteOn",
        "typeByte": 150,
        "deltaTime": 4,
        "channel": 6,
        "note": 61,
        "velocity": 127
      },
      {
        "type": "midi",
        "subType": "noteOff",
        "typeByte": 150,
        "deltaTime": 47,
        "channel": 6,
        "note": 61,
        "velocity": 0
      },
      {
        "type": "midi",
        "subType": "noteOn",
        "typeByte": 150,
        "deltaTime": 3,
        "channel": 6,
        "note": 59,
        "velocity": 127
      },
      {
        "type": "midi",
        "subType": "noteOff",
        "typeByte": 150,
        "deltaTime": 89,
        "channel": 6,
        "note": 59,
        "velocity": 0
      },
      {
        "type": "midi",
        "subType": "noteOn",
        "typeByte": 150,
        "deltaTime": 7,
        "channel": 6,
        "note": 57,
        "velocity": 127
      },
      {
        "type": "midi",
        "subType": "noteOff",
        "typeByte": 150,
        "deltaTime": 87,
        "channel": 6,
        "note": 57,
        "velocity": 0
      },
      {
        "type": "midi",
        "subType": "noteOn",
        "typeByte": 150,
        "deltaTime": 105,
        "channel": 6,
        "note": 62,
        "velocity": 127
      },
      {
        "type": "midi",
        "subType": "noteOff",
        "typeByte": 150,
        "deltaTime": 128,
        "channel": 6,
        "note": 62,
        "velocity": 0
      },
      {
        "type": "midi",
        "subType": "noteOn",
        "typeByte": 150,
        "deltaTime": 16,
        "channel": 6,
        "note": 62,
        "velocity": 127
      },
      {
        "type": "midi",
        "subType": "noteOff",
        "typeByte": 150,
        "deltaTime": 35,
        "channel": 6,
        "note": 62,
        "velocity": 0
      },
      {
        "type": "midi",
        "subType": "noteOn",
        "typeByte": 150,
        "deltaTime": 14,
        "channel": 6,
        "note": 62,
        "velocity": 127
      },
      {
        "type": "midi",
        "subType": "noteOff",
        "typeByte": 150,
        "deltaTime": 33,
        "channel": 6,
        "note": 62,
        "velocity": 0
      },
      {
        "type": "midi",
        "subType": "noteOn",
        "typeByte": 150,
        "deltaTime": 14,
        "channel": 6,
        "note": 62,
        "velocity": 127
      },
      {
        "type": "midi",
        "subType": "noteOff",
        "typeByte": 150,
        "deltaTime": 66,
        "channel": 6,
        "note": 62,
        "velocity": 0
      },
      {
        "type": "midi",
        "subType": "noteOn",
        "typeByte": 150,
        "deltaTime": 465,
        "channel": 6,
        "note": 57,
        "velocity": 127
      },
      {
        "type": "midi",
        "subType": "noteOff",
        "typeByte": 150,
        "deltaTime": 30,
        "channel": 6,
        "note": 57,
        "velocity": 0
      },
      {
        "type": "midi",
        "subType": "noteOn",
        "typeByte": 150,
        "deltaTime": 17,
        "channel": 6,
        "note": 57,
        "velocity": 127
      },
      {
        "type": "midi",
        "subType": "noteOff",
        "typeByte": 150,
        "deltaTime": 29,
        "channel": 6,
        "note": 57,
        "velocity": 0
      },
      {
        "type": "midi",
        "subType": "noteOn",
        "typeByte": 150,
        "deltaTime": 20,
        "channel": 6,
        "note": 57,
        "velocity": 127
      },
      {
        "type": "midi",
        "subType": "noteOff",
        "typeByte": 150,
        "deltaTime": 28,
        "channel": 6,
        "note": 57,
        "velocity": 0
      },
      {
        "type": "midi",
        "subType": "noteOn",
        "typeByte": 150,
        "deltaTime": 19,
        "channel": 6,
        "note": 57,
        "velocity": 127
      },
      {
        "type": "midi",
        "subType": "noteOff",
        "typeByte": 150,
        "deltaTime": 27,
        "channel": 6,
        "note": 57,
        "velocity": 0
      },
      {
        "type": "midi",
        "subType": "noteOn",
        "typeByte": 150,
        "deltaTime": 22,
        "channel": 6,
        "note": 57,
        "velocity": 127
      },
      {
        "type": "midi",
        "subType": "noteOff",
        "typeByte": 150,
        "deltaTime": 27,
        "channel": 6,
        "note": 57,
        "velocity": 0
      },
      {
        "type": "midi",
        "subType": "noteOn",
        "typeByte": 150,
        "deltaTime": 20,
        "channel": 6,
        "note": 57,
        "velocity": 127
      },
      {
        "type": "midi",
        "subType": "noteOff",
        "typeByte": 150,
        "deltaTime": 27,
        "channel": 6,
        "note": 57,
        "velocity": 0
      },
      {
        "type": "midi",
        "subType": "noteOn",
        "typeByte": 150,
        "deltaTime": 22,
        "channel": 6,
        "note": 57,
        "velocity": 127
      },
      {
        "type": "midi",
        "subType": "noteOn",
        "typeByte": 150,
        "deltaTime": 48,
        "channel": 6,
        "note": 56,
        "velocity": 127
      },
      {
        "type": "midi",
        "subType": "noteOff",
        "typeByte": 150,
        "deltaTime": 14,
        "channel": 6,
        "note": 57,
        "velocity": 0
      },
      {
        "type": "midi",
        "subType": "noteOff",
        "typeByte": 150,
        "deltaTime": 77,
        "channel": 6,
        "note": 56,
        "velocity": 0
      },
      {
        "type": "midi",
        "subType": "noteOn",
        "typeByte": 150,
        "deltaTime": 5,
        "channel": 6,
        "note": 54,
        "velocity": 127
      },
      {
        "type": "midi",
        "subType": "noteOff",
        "typeByte": 150,
        "deltaTime": 119,
        "channel": 6,
        "note": 54,
        "velocity": 0
      },
      {
        "type": "midi",
        "subType": "noteOn",
        "typeByte": 150,
        "deltaTime": 123,
        "channel": 6,
        "note": 45,
        "velocity": 127
      },
      {
        "type": "midi",
        "subType": "noteOff",
        "typeByte": 150,
        "deltaTime": 380,
        "channel": 6,
        "note": 45,
        "velocity": 0
      },
      {
        "type": "midi",
        "subType": "noteOn",
        "typeByte": 150,
        "deltaTime": 5,
        "channel": 6,
        "note": 56,
        "velocity": 127
      },
      {
        "type": "midi",
        "subType": "noteOff",
        "typeByte": 150,
        "deltaTime": 380,
        "channel": 6,
        "note": 56,
        "velocity": 0
      },
      {
        "type": "midi",
        "subType": "noteOn",
        "typeByte": 150,
        "deltaTime": 5,
        "channel": 6,
        "note": 57,
        "velocity": 127
      },
      {
        "type": "midi",
        "subType": "noteOn",
        "typeByte": 150,
        "deltaTime": 385,
        "channel": 6,
        "note": 64,
        "velocity": 127
      },
      {
        "type": "midi",
        "subType": "noteOff",
        "typeByte": 150,
        "deltaTime": 120,
        "channel": 6,
        "note": 64,
        "velocity": 0
      },
      {
        "type": "midi",
        "subType": "noteOn",
        "typeByte": 150,
        "deltaTime": 23,
        "channel": 6,
        "note": 66,
        "velocity": 127
      },
      {
        "type": "midi",
        "subType": "noteOff",
        "typeByte": 150,
        "deltaTime": 117,
        "channel": 6,
        "note": 66,
        "velocity": 0
      },
      {
        "type": "midi",
        "subType": "noteOn",
        "typeByte": 150,
        "deltaTime": 4,
        "channel": 6,
        "note": 64,
        "velocity": 127
      },
      {
        "type": "midi",
        "subType": "noteOff",
        "typeByte": 150,
        "deltaTime": 117,
        "channel": 6,
        "note": 57,
        "velocity": 0
      },
      {
        "type": "midi",
        "subType": "noteOff",
        "typeByte": 150,
        "deltaTime": 2,
        "channel": 6,
        "note": 64,
        "velocity": 0
      },
      {
        "type": "midi",
        "subType": "noteOn",
        "typeByte": 150,
        "deltaTime": 3,
        "channel": 6,
        "note": 57,
        "velocity": 127
      },
      {
        "type": "midi",
        "subType": "noteOff",
        "typeByte": 150,
        "deltaTime": 380,
        "channel": 6,
        "note": 57,
        "velocity": 0
      },
      {
        "type": "midi",
        "subType": "noteOn",
        "typeByte": 150,
        "deltaTime": 4,
        "channel": 6,
        "note": 64,
        "velocity": 127
      },
      {
        "type": "midi",
        "subType": "noteOff",
        "typeByte": 150,
        "deltaTime": 381,
        "channel": 6,
        "note": 64,
        "velocity": 0
      },
      {
        "type": "midi",
        "subType": "noteOn",
        "typeByte": 150,
        "deltaTime": 4,
        "channel": 6,
        "note": 66,
        "velocity": 127
      },
      {
        "type": "midi",
        "subType": "noteOff",
        "typeByte": 150,
        "deltaTime": 386,
        "channel": 6,
        "note": 66,
        "velocity": 0
      },
      {
        "type": "midi",
        "subType": "noteOn",
        "typeByte": 150,
        "deltaTime": 0,
        "channel": 6,
        "note": 64,
        "velocity": 127
      },
      {
        "type": "midi",
        "subType": "noteOff",
        "typeByte": 150,
        "deltaTime": 120,
        "channel": 6,
        "note": 64,
        "velocity": 0
      },
      {
        "type": "midi",
        "subType": "noteOn",
        "typeByte": 150,
        "deltaTime": 25,
        "channel": 6,
        "note": 66,
        "velocity": 127
      },
      {
        "type": "midi",
        "subType": "noteOff",
        "typeByte": 150,
        "deltaTime": 119,
        "channel": 6,
        "note": 66,
        "velocity": 0
      },
      {
        "type": "midi",
        "subType": "noteOn",
        "typeByte": 150,
        "deltaTime": 0,
        "channel": 6,
        "note": 64,
        "velocity": 127
      },
      {
        "type": "midi",
        "subType": "noteOff",
        "typeByte": 150,
        "deltaTime": 117,
        "channel": 6,
        "note": 64,
        "velocity": 0
      },
      {
        "type": "midi",
        "subType": "noteOn",
        "typeByte": 150,
        "deltaTime": 4,
        "channel": 6,
        "note": 61,
        "velocity": 127
      },
      {
        "type": "midi",
        "subType": "noteOff",
        "typeByte": 150,
        "deltaTime": 380,
        "channel": 6,
        "note": 61,
        "velocity": 0
      },
      {
        "type": "midi",
        "subType": "noteOn",
        "typeByte": 150,
        "deltaTime": 5,
        "channel": 6,
        "note": 68,
        "velocity": 127
      },
      {
        "type": "midi",
        "subType": "noteOff",
        "typeByte": 150,
        "deltaTime": 375,
        "channel": 6,
        "note": 68,
        "velocity": 0
      },
      {
        "type": "midi",
        "subType": "noteOn",
        "typeByte": 150,
        "deltaTime": 10,
        "channel": 6,
        "note": 69,
        "velocity": 127
      },
      {
        "type": "midi",
        "subType": "noteOff",
        "typeByte": 150,
        "deltaTime": 477,
        "channel": 6,
        "note": 69,
        "velocity": 0
      },
      {
        "type": "midi",
        "subType": "noteOn",
        "typeByte": 150,
        "deltaTime": 4,
        "channel": 6,
        "note": 71,
        "velocity": 127
      },
      {
        "type": "midi",
        "subType": "noteOff",
        "typeByte": 150,
        "deltaTime": 45,
        "channel": 6,
        "note": 71,
        "velocity": 0
      },
      {
        "type": "midi",
        "subType": "noteOn",
        "typeByte": 150,
        "deltaTime": 4,
        "channel": 6,
        "note": 73,
        "velocity": 127
      },
      {
        "type": "midi",
        "subType": "noteOff",
        "typeByte": 150,
        "deltaTime": 92,
        "channel": 6,
        "note": 73,
        "velocity": 0
      },
      {
        "type": "midi",
        "subType": "noteOn",
        "typeByte": 150,
        "deltaTime": 5,
        "channel": 6,
        "note": 71,
        "velocity": 127
      },
      {
        "type": "midi",
        "subType": "noteOff",
        "typeByte": 150,
        "deltaTime": 43,
        "channel": 6,
        "note": 71,
        "velocity": 0
      },
      {
        "type": "midi",
        "subType": "noteOn",
        "typeByte": 150,
        "deltaTime": 4,
        "channel": 6,
        "note": 69,
        "velocity": 127
      },
      {
        "type": "midi",
        "subType": "noteOff",
        "typeByte": 150,
        "deltaTime": 73,
        "channel": 6,
        "note": 69,
        "velocity": 0
      },
      {
        "type": "midi",
        "subType": "noteOn",
        "typeByte": 150,
        "deltaTime": 25,
        "channel": 6,
        "note": 76,
        "velocity": 127
      },
      {
        "type": "midi",
        "subType": "noteOff",
        "typeByte": 150,
        "deltaTime": 1535,
        "channel": 6,
        "note": 76,
        "velocity": 0
      },
      {
        "type": "midi",
        "subType": "noteOn",
        "typeByte": 150,
        "deltaTime": 4,
        "channel": 6,
        "note": 62,
        "velocity": 127
      },
      {
        "type": "midi",
        "subType": "noteOff",
        "typeByte": 150,
        "deltaTime": 116,
        "channel": 6,
        "note": 62,
        "velocity": 0
      },
      {
        "type": "midi",
        "subType": "noteOn",
        "typeByte": 150,
        "deltaTime": 29,
        "channel": 6,
        "note": 62,
        "velocity": 127
      },
      {
        "type": "midi",
        "subType": "noteOff",
        "typeByte": 150,
        "deltaTime": 87,
        "channel": 6,
        "note": 62,
        "velocity": 0
      },
      {
        "type": "midi",
        "subType": "noteOn",
        "typeByte": 150,
        "deltaTime": 10,
        "channel": 6,
        "note": 61,
        "velocity": 127
      },
      {
        "type": "midi",
        "subType": "noteOff",
        "typeByte": 150,
        "deltaTime": 44,
        "channel": 6,
        "note": 61,
        "velocity": 0
      },
      {
        "type": "midi",
        "subType": "noteOn",
        "typeByte": 150,
        "deltaTime": 4,
        "channel": 6,
        "note": 59,
        "velocity": 127
      },
      {
        "type": "midi",
        "subType": "noteOff",
        "typeByte": 150,
        "deltaTime": 442,
        "channel": 6,
        "note": 59,
        "velocity": 0
      },
      {
        "type": "midi",
        "subType": "noteOn",
        "typeByte": 150,
        "deltaTime": 39,
        "channel": 6,
        "note": 61,
        "velocity": 127
      },
      {
        "type": "midi",
        "subType": "noteOff",
        "typeByte": 150,
        "deltaTime": 40,
        "channel": 6,
        "note": 61,
        "velocity": 0
      },
      {
        "type": "midi",
        "subType": "noteOn",
        "typeByte": 150,
        "deltaTime": 8,
        "channel": 6,
        "note": 61,
        "velocity": 127
      },
      {
        "type": "midi",
        "subType": "noteOff",
        "typeByte": 150,
        "deltaTime": 64,
        "channel": 6,
        "note": 61,
        "velocity": 0
      },
      {
        "type": "midi",
        "subType": "noteOn",
        "typeByte": 150,
        "deltaTime": 33,
        "channel": 6,
        "note": 61,
        "velocity": 127
      },
      {
        "type": "midi",
        "subType": "noteOff",
        "typeByte": 150,
        "deltaTime": 92,
        "channel": 6,
        "note": 61,
        "velocity": 0
      },
      {
        "type": "midi",
        "subType": "noteOn",
        "typeByte": 150,
        "deltaTime": 4,
        "channel": 6,
        "note": 57,
        "velocity": 127
      },
      {
        "type": "midi",
        "subType": "noteOff",
        "typeByte": 150,
        "deltaTime": 65,
        "channel": 6,
        "note": 57,
        "velocity": 0
      },
      {
        "type": "midi",
        "subType": "noteOn",
        "typeByte": 150,
        "deltaTime": 128,
        "channel": 6,
        "note": 66,
        "velocity": 127
      },
      {
        "type": "midi",
        "subType": "noteOff",
        "typeByte": 150,
        "deltaTime": 37,
        "channel": 6,
        "note": 66,
        "velocity": 0
      },
      {
        "type": "midi",
        "subType": "noteOn",
        "typeByte": 150,
        "deltaTime": 59,
        "channel": 6,
        "note": 66,
        "velocity": 127
      },
      {
        "type": "midi",
        "subType": "noteOff",
        "typeByte": 150,
        "deltaTime": 27,
        "channel": 6,
        "note": 66,
        "velocity": 0
      },
      {
        "type": "midi",
        "subType": "noteOn",
        "typeByte": 150,
        "deltaTime": 21,
        "channel": 6,
        "note": 66,
        "velocity": 127
      },
      {
        "type": "midi",
        "subType": "noteOff",
        "typeByte": 150,
        "deltaTime": 91,
        "channel": 6,
        "note": 66,
        "velocity": 0
      },
      {
        "type": "midi",
        "subType": "noteOn",
        "typeByte": 150,
        "deltaTime": 5,
        "channel": 6,
        "note": 64,
        "velocity": 127
      },
      {
        "type": "midi",
        "subType": "noteOff",
        "typeByte": 150,
        "deltaTime": 91,
        "channel": 6,
        "note": 64,
        "velocity": 0
      },
      {
        "type": "midi",
        "subType": "noteOn",
        "typeByte": 150,
        "deltaTime": 5,
        "channel": 6,
        "note": 62,
        "velocity": 127
      },
      {
        "type": "midi",
        "subType": "noteOff",
        "typeByte": 150,
        "deltaTime": 118,
        "channel": 6,
        "note": 62,
        "velocity": 0
      },
      {
        "type": "midi",
        "subType": "noteOn",
        "typeByte": 150,
        "deltaTime": 27,
        "channel": 6,
        "note": 62,
        "velocity": 127
      },
      {
        "type": "midi",
        "subType": "noteOff",
        "typeByte": 150,
        "deltaTime": 33,
        "channel": 6,
        "note": 62,
        "velocity": 0
      },
      {
        "type": "midi",
        "subType": "noteOn",
        "typeByte": 150,
        "deltaTime": 15,
        "channel": 6,
        "note": 62,
        "velocity": 127
      },
      {
        "type": "midi",
        "subType": "noteOff",
        "typeByte": 150,
        "deltaTime": 44,
        "channel": 6,
        "note": 62,
        "velocity": 0
      },
      {
        "type": "midi",
        "subType": "noteOn",
        "typeByte": 150,
        "deltaTime": 5,
        "channel": 6,
        "note": 61,
        "velocity": 127
      },
      {
        "type": "midi",
        "subType": "noteOff",
        "typeByte": 150,
        "deltaTime": 87,
        "channel": 6,
        "note": 61,
        "velocity": 0
      },
      {
        "type": "midi",
        "subType": "noteOn",
        "typeByte": 150,
        "deltaTime": 9,
        "channel": 6,
        "note": 59,
        "velocity": 127
      },
      {
        "type": "midi",
        "subType": "noteOff",
        "typeByte": 150,
        "deltaTime": 353,
        "channel": 6,
        "note": 59,
        "velocity": 0
      },
      {
        "type": "midi",
        "subType": "noteOn",
        "typeByte": 150,
        "deltaTime": 80,
        "channel": 6,
        "note": 61,
        "velocity": 127
      },
      {
        "type": "midi",
        "subType": "noteOff",
        "typeByte": 150,
        "deltaTime": 40,
        "channel": 6,
        "note": 61,
        "velocity": 0
      },
      {
        "type": "midi",
        "subType": "noteOn",
        "typeByte": 150,
        "deltaTime": 8,
        "channel": 6,
        "note": 61,
        "velocity": 127
      },
      {
        "type": "midi",
        "subType": "noteOff",
        "typeByte": 150,
        "deltaTime": 58,
        "channel": 6,
        "note": 61,
        "velocity": 0
      },
      {
        "type": "midi",
        "subType": "noteOn",
        "typeByte": 150,
        "deltaTime": 38,
        "channel": 6,
        "note": 61,
        "velocity": 127
      },
      {
        "type": "midi",
        "subType": "noteOff",
        "typeByte": 150,
        "deltaTime": 92,
        "channel": 6,
        "note": 61,
        "velocity": 0
      },
      {
        "type": "midi",
        "subType": "noteOn",
        "typeByte": 150,
        "deltaTime": 5,
        "channel": 6,
        "note": 59,
        "velocity": 127
      },
      {
        "type": "midi",
        "subType": "noteOff",
        "typeByte": 150,
        "deltaTime": 91,
        "channel": 6,
        "note": 59,
        "velocity": 0
      },
      {
        "type": "midi",
        "subType": "noteOn",
        "typeByte": 150,
        "deltaTime": 5,
        "channel": 6,
        "note": 57,
        "velocity": 127
      },
      {
        "type": "midi",
        "subType": "noteOff",
        "typeByte": 150,
        "deltaTime": 92,
        "channel": 6,
        "note": 57,
        "velocity": 0
      },
      {
        "type": "midi",
        "subType": "noteOn",
        "typeByte": 150,
        "deltaTime": 4,
        "channel": 6,
        "note": 59,
        "velocity": 127
      },
      {
        "type": "midi",
        "subType": "noteOff",
        "typeByte": 150,
        "deltaTime": 92,
        "channel": 6,
        "note": 59,
        "velocity": 0
      },
      {
        "type": "midi",
        "subType": "noteOn",
        "typeByte": 150,
        "deltaTime": 5,
        "channel": 6,
        "note": 61,
        "velocity": 127
      },
      {
        "type": "midi",
        "subType": "noteOff",
        "typeByte": 150,
        "deltaTime": 45,
        "channel": 6,
        "note": 61,
        "velocity": 0
      },
      {
        "type": "midi",
        "subType": "noteOn",
        "typeByte": 150,
        "deltaTime": 3,
        "channel": 6,
        "note": 59,
        "velocity": 127
      },
      {
        "type": "midi",
        "subType": "noteOff",
        "typeByte": 150,
        "deltaTime": 89,
        "channel": 6,
        "note": 59,
        "velocity": 0
      },
      {
        "type": "midi",
        "subType": "noteOn",
        "typeByte": 150,
        "deltaTime": 7,
        "channel": 6,
        "note": 57,
        "velocity": 127
      },
      {
        "type": "midi",
        "subType": "noteOff",
        "typeByte": 150,
        "deltaTime": 87,
        "channel": 6,
        "note": 57,
        "velocity": 0
      },
      {
        "type": "midi",
        "subType": "noteOn",
        "typeByte": 150,
        "deltaTime": 105,
        "channel": 6,
        "note": 62,
        "velocity": 127
      },
      {
        "type": "midi",
        "subType": "noteOff",
        "typeByte": 150,
        "deltaTime": 130,
        "channel": 6,
        "note": 62,
        "velocity": 0
      },
      {
        "type": "midi",
        "subType": "noteOn",
        "typeByte": 150,
        "deltaTime": 16,
        "channel": 6,
        "note": 62,
        "velocity": 127
      },
      {
        "type": "midi",
        "subType": "noteOff",
        "typeByte": 150,
        "deltaTime": 34,
        "channel": 6,
        "note": 62,
        "velocity": 0
      },
      {
        "type": "midi",
        "subType": "noteOn",
        "typeByte": 150,
        "deltaTime": 13,
        "channel": 6,
        "note": 62,
        "velocity": 127
      },
      {
        "type": "midi",
        "subType": "noteOff",
        "typeByte": 150,
        "deltaTime": 33,
        "channel": 6,
        "note": 62,
        "velocity": 0
      },
      {
        "type": "midi",
        "subType": "noteOn",
        "typeByte": 150,
        "deltaTime": 15,
        "channel": 6,
        "note": 62,
        "velocity": 127
      },
      {
        "type": "midi",
        "subType": "noteOff",
        "typeByte": 150,
        "deltaTime": 65,
        "channel": 6,
        "note": 62,
        "velocity": 0
      },
      {
        "type": "midi",
        "subType": "noteOn",
        "typeByte": 150,
        "deltaTime": 465,
        "channel": 6,
        "note": 57,
        "velocity": 127
      },
      {
        "type": "midi",
        "subType": "noteOff",
        "typeByte": 150,
        "deltaTime": 30,
        "channel": 6,
        "note": 57,
        "velocity": 0
      },
      {
        "type": "midi",
        "subType": "noteOn",
        "typeByte": 150,
        "deltaTime": 18,
        "channel": 6,
        "note": 57,
        "velocity": 127
      },
      {
        "type": "midi",
        "subType": "noteOff",
        "typeByte": 150,
        "deltaTime": 28,
        "channel": 6,
        "note": 57,
        "velocity": 0
      },
      {
        "type": "midi",
        "subType": "noteOn",
        "typeByte": 150,
        "deltaTime": 20,
        "channel": 6,
        "note": 57,
        "velocity": 127
      },
      {
        "type": "midi",
        "subType": "noteOff",
        "typeByte": 150,
        "deltaTime": 29,
        "channel": 6,
        "note": 57,
        "velocity": 0
      },
      {
        "type": "midi",
        "subType": "noteOn",
        "typeByte": 150,
        "deltaTime": 20,
        "channel": 6,
        "note": 57,
        "velocity": 127
      },
      {
        "type": "midi",
        "subType": "noteOff",
        "typeByte": 150,
        "deltaTime": 26,
        "channel": 6,
        "note": 57,
        "velocity": 0
      },
      {
        "type": "midi",
        "subType": "noteOn",
        "typeByte": 150,
        "deltaTime": 21,
        "channel": 6,
        "note": 57,
        "velocity": 127
      },
      {
        "type": "midi",
        "subType": "noteOff",
        "typeByte": 150,
        "deltaTime": 27,
        "channel": 6,
        "note": 57,
        "velocity": 0
      },
      {
        "type": "midi",
        "subType": "noteOn",
        "typeByte": 150,
        "deltaTime": 22,
        "channel": 6,
        "note": 57,
        "velocity": 127
      },
      {
        "type": "midi",
        "subType": "noteOff",
        "typeByte": 150,
        "deltaTime": 25,
        "channel": 6,
        "note": 57,
        "velocity": 0
      },
      {
        "type": "midi",
        "subType": "noteOn",
        "typeByte": 150,
        "deltaTime": 22,
        "channel": 6,
        "note": 57,
        "velocity": 127
      },
      {
        "type": "midi",
        "subType": "noteOn",
        "typeByte": 150,
        "deltaTime": 49,
        "channel": 6,
        "note": 56,
        "velocity": 127
      },
      {
        "type": "midi",
        "subType": "noteOff",
        "typeByte": 150,
        "deltaTime": 13,
        "channel": 6,
        "note": 57,
        "velocity": 0
      },
      {
        "type": "midi",
        "subType": "noteOff",
        "typeByte": 150,
        "deltaTime": 79,
        "channel": 6,
        "note": 56,
        "velocity": 0
      },
      {
        "type": "midi",
        "subType": "noteOn",
        "typeByte": 150,
        "deltaTime": 4,
        "channel": 6,
        "note": 54,
        "velocity": 127
      },
      {
        "type": "midi",
        "subType": "noteOff",
        "typeByte": 150,
        "deltaTime": 120,
        "channel": 6,
        "note": 54,
        "velocity": 0
      },
      {
        "type": "midi",
        "subType": "noteOn",
        "typeByte": 150,
        "deltaTime": 121,
        "channel": 6,
        "note": 45,
        "velocity": 127
      },
      {
        "type": "midi",
        "subType": "noteOff",
        "typeByte": 150,
        "deltaTime": 380,
        "channel": 6,
        "note": 45,
        "velocity": 0
      },
      {
        "type": "midi",
        "subType": "noteOn",
        "typeByte": 150,
        "deltaTime": 5,
        "channel": 6,
        "note": 56,
        "velocity": 127
      },
      {
        "type": "midi",
        "subType": "noteOff",
        "typeByte": 150,
        "deltaTime": 380,
        "channel": 6,
        "note": 56,
        "velocity": 0
      },
      {
        "type": "midi",
        "subType": "noteOn",
        "typeByte": 150,
        "deltaTime": 5,
        "channel": 6,
        "note": 57,
        "velocity": 127
      },
      {
        "type": "midi",
        "subType": "noteOn",
        "typeByte": 150,
        "deltaTime": 385,
        "channel": 6,
        "note": 64,
        "velocity": 127
      },
      {
        "type": "midi",
        "subType": "noteOff",
        "typeByte": 150,
        "deltaTime": 120,
        "channel": 6,
        "note": 64,
        "velocity": 0
      },
      {
        "type": "midi",
        "subType": "noteOn",
        "typeByte": 150,
        "deltaTime": 25,
        "channel": 6,
        "note": 66,
        "velocity": 127
      },
      {
        "type": "midi",
        "subType": "noteOff",
        "typeByte": 150,
        "deltaTime": 115,
        "channel": 6,
        "note": 66,
        "velocity": 0
      },
      {
        "type": "midi",
        "subType": "noteOn",
        "typeByte": 150,
        "deltaTime": 4,
        "channel": 6,
        "note": 64,
        "velocity": 127
      },
      {
        "type": "midi",
        "subType": "noteOff",
        "typeByte": 150,
        "deltaTime": 117,
        "channel": 6,
        "note": 57,
        "velocity": 0
      },
      {
        "type": "midi",
        "subType": "noteOff",
        "typeByte": 150,
        "deltaTime": 2,
        "channel": 6,
        "note": 64,
        "velocity": 0
      },
      {
        "type": "midi",
        "subType": "noteOn",
        "typeByte": 150,
        "deltaTime": 3,
        "channel": 6,
        "note": 57,
        "velocity": 127
      },
      {
        "type": "midi",
        "subType": "noteOff",
        "typeByte": 150,
        "deltaTime": 380,
        "channel": 6,
        "note": 57,
        "velocity": 0
      },
      {
        "type": "midi",
        "subType": "noteOn",
        "typeByte": 150,
        "deltaTime": 5,
        "channel": 6,
        "note": 64,
        "velocity": 127
      },
      {
        "type": "midi",
        "subType": "noteOff",
        "typeByte": 150,
        "deltaTime": 380,
        "channel": 6,
        "note": 64,
        "velocity": 0
      },
      {
        "type": "midi",
        "subType": "noteOn",
        "typeByte": 150,
        "deltaTime": 4,
        "channel": 6,
        "note": 66,
        "velocity": 127
      },
      {
        "type": "midi",
        "subType": "noteOff",
        "typeByte": 150,
        "deltaTime": 386,
        "channel": 6,
        "note": 66,
        "velocity": 0
      },
      {
        "type": "midi",
        "subType": "noteOn",
        "typeByte": 150,
        "deltaTime": 0,
        "channel": 6,
        "note": 64,
        "velocity": 127
      },
      {
        "type": "midi",
        "subType": "noteOff",
        "typeByte": 150,
        "deltaTime": 120,
        "channel": 6,
        "note": 64,
        "velocity": 0
      },
      {
        "type": "midi",
        "subType": "noteOn",
        "typeByte": 150,
        "deltaTime": 25,
        "channel": 6,
        "note": 66,
        "velocity": 127
      },
      {
        "type": "midi",
        "subType": "noteOff",
        "typeByte": 150,
        "deltaTime": 119,
        "channel": 6,
        "note": 66,
        "velocity": 0
      },
      {
        "type": "midi",
        "subType": "noteOn",
        "typeByte": 150,
        "deltaTime": 0,
        "channel": 6,
        "note": 64,
        "velocity": 127
      },
      {
        "type": "midi",
        "subType": "noteOff",
        "typeByte": 150,
        "deltaTime": 117,
        "channel": 6,
        "note": 64,
        "velocity": 0
      },
      {
        "type": "midi",
        "subType": "noteOn",
        "typeByte": 150,
        "deltaTime": 4,
        "channel": 6,
        "note": 61,
        "velocity": 127
      },
      {
        "type": "midi",
        "subType": "noteOff",
        "typeByte": 150,
        "deltaTime": 380,
        "channel": 6,
        "note": 61,
        "velocity": 0
      },
      {
        "type": "midi",
        "subType": "noteOn",
        "typeByte": 150,
        "deltaTime": 5,
        "channel": 6,
        "note": 68,
        "velocity": 127
      },
      {
        "type": "midi",
        "subType": "noteOff",
        "typeByte": 150,
        "deltaTime": 377,
        "channel": 6,
        "note": 68,
        "velocity": 0
      },
      {
        "type": "midi",
        "subType": "noteOn",
        "typeByte": 150,
        "deltaTime": 8,
        "channel": 6,
        "note": 69,
        "velocity": 127
      },
      {
        "type": "midi",
        "subType": "noteOff",
        "typeByte": 150,
        "deltaTime": 477,
        "channel": 6,
        "note": 69,
        "velocity": 0
      },
      {
        "type": "midi",
        "subType": "noteOn",
        "typeByte": 150,
        "deltaTime": 4,
        "channel": 6,
        "note": 71,
        "velocity": 127
      },
      {
        "type": "midi",
        "subType": "noteOff",
        "typeByte": 150,
        "deltaTime": 45,
        "channel": 6,
        "note": 71,
        "velocity": 0
      },
      {
        "type": "midi",
        "subType": "noteOn",
        "typeByte": 150,
        "deltaTime": 4,
        "channel": 6,
        "note": 73,
        "velocity": 127
      },
      {
        "type": "midi",
        "subType": "noteOff",
        "typeByte": 150,
        "deltaTime": 92,
        "channel": 6,
        "note": 73,
        "velocity": 0
      },
      {
        "type": "midi",
        "subType": "noteOn",
        "typeByte": 150,
        "deltaTime": 5,
        "channel": 6,
        "note": 71,
        "velocity": 127
      },
      {
        "type": "midi",
        "subType": "noteOff",
        "typeByte": 150,
        "deltaTime": 43,
        "channel": 6,
        "note": 71,
        "velocity": 0
      },
      {
        "type": "midi",
        "subType": "noteOn",
        "typeByte": 150,
        "deltaTime": 4,
        "channel": 6,
        "note": 69,
        "velocity": 127
      },
      {
        "type": "midi",
        "subType": "noteOff",
        "typeByte": 150,
        "deltaTime": 73,
        "channel": 6,
        "note": 69,
        "velocity": 0
      },
      {
        "type": "midi",
        "subType": "noteOn",
        "typeByte": 150,
        "deltaTime": 25,
        "channel": 6,
        "note": 76,
        "velocity": 127
      },
      {
        "type": "midi",
        "subType": "noteOff",
        "typeByte": 150,
        "deltaTime": 1536,
        "channel": 6,
        "note": 76,
        "velocity": 0
      },
      {
        "type": "midi",
        "subType": "noteOn",
        "typeByte": 150,
        "deltaTime": 10789,
        "channel": 6,
        "note": 62,
        "velocity": 127
      },
      {
        "type": "midi",
        "subType": "noteOff",
        "typeByte": 150,
        "deltaTime": 115,
        "channel": 6,
        "note": 62,
        "velocity": 0
      },
      {
        "type": "midi",
        "subType": "noteOn",
        "typeByte": 150,
        "deltaTime": 29,
        "channel": 6,
        "note": 62,
        "velocity": 127
      },
      {
        "type": "midi",
        "subType": "noteOff",
        "typeByte": 150,
        "deltaTime": 87,
        "channel": 6,
        "note": 62,
        "velocity": 0
      },
      {
        "type": "midi",
        "subType": "noteOn",
        "typeByte": 150,
        "deltaTime": 10,
        "channel": 6,
        "note": 61,
        "velocity": 127
      },
      {
        "type": "midi",
        "subType": "noteOff",
        "typeByte": 150,
        "deltaTime": 44,
        "channel": 6,
        "note": 61,
        "velocity": 0
      },
      {
        "type": "midi",
        "subType": "noteOn",
        "typeByte": 150,
        "deltaTime": 4,
        "channel": 6,
        "note": 59,
        "velocity": 127
      },
      {
        "type": "midi",
        "subType": "noteOff",
        "typeByte": 150,
        "deltaTime": 442,
        "channel": 6,
        "note": 59,
        "velocity": 0
      },
      {
        "type": "midi",
        "subType": "noteOn",
        "typeByte": 150,
        "deltaTime": 39,
        "channel": 6,
        "note": 61,
        "velocity": 127
      },
      {
        "type": "midi",
        "subType": "noteOff",
        "typeByte": 150,
        "deltaTime": 40,
        "channel": 6,
        "note": 61,
        "velocity": 0
      },
      {
        "type": "midi",
        "subType": "noteOn",
        "typeByte": 150,
        "deltaTime": 8,
        "channel": 6,
        "note": 61,
        "velocity": 127
      },
      {
        "type": "midi",
        "subType": "noteOff",
        "typeByte": 150,
        "deltaTime": 64,
        "channel": 6,
        "note": 61,
        "velocity": 0
      },
      {
        "type": "midi",
        "subType": "noteOn",
        "typeByte": 150,
        "deltaTime": 33,
        "channel": 6,
        "note": 61,
        "velocity": 127
      },
      {
        "type": "midi",
        "subType": "noteOff",
        "typeByte": 150,
        "deltaTime": 91,
        "channel": 6,
        "note": 61,
        "velocity": 0
      },
      {
        "type": "midi",
        "subType": "noteOn",
        "typeByte": 150,
        "deltaTime": 5,
        "channel": 6,
        "note": 57,
        "velocity": 127
      },
      {
        "type": "midi",
        "subType": "noteOff",
        "typeByte": 150,
        "deltaTime": 66,
        "channel": 6,
        "note": 57,
        "velocity": 0
      },
      {
        "type": "midi",
        "subType": "noteOn",
        "typeByte": 150,
        "deltaTime": 127,
        "channel": 6,
        "note": 66,
        "velocity": 127
      },
      {
        "type": "midi",
        "subType": "noteOff",
        "typeByte": 150,
        "deltaTime": 37,
        "channel": 6,
        "note": 66,
        "velocity": 0
      },
      {
        "type": "midi",
        "subType": "noteOn",
        "typeByte": 150,
        "deltaTime": 59,
        "channel": 6,
        "note": 66,
        "velocity": 127
      },
      {
        "type": "midi",
        "subType": "noteOff",
        "typeByte": 150,
        "deltaTime": 27,
        "channel": 6,
        "note": 66,
        "velocity": 0
      },
      {
        "type": "midi",
        "subType": "noteOn",
        "typeByte": 150,
        "deltaTime": 21,
        "channel": 6,
        "note": 66,
        "velocity": 127
      },
      {
        "type": "midi",
        "subType": "noteOff",
        "typeByte": 150,
        "deltaTime": 91,
        "channel": 6,
        "note": 66,
        "velocity": 0
      },
      {
        "type": "midi",
        "subType": "noteOn",
        "typeByte": 150,
        "deltaTime": 5,
        "channel": 6,
        "note": 64,
        "velocity": 127
      },
      {
        "type": "midi",
        "subType": "noteOff",
        "typeByte": 150,
        "deltaTime": 91,
        "channel": 6,
        "note": 64,
        "velocity": 0
      },
      {
        "type": "midi",
        "subType": "noteOn",
        "typeByte": 150,
        "deltaTime": 5,
        "channel": 6,
        "note": 62,
        "velocity": 127
      },
      {
        "type": "midi",
        "subType": "noteOff",
        "typeByte": 150,
        "deltaTime": 119,
        "channel": 6,
        "note": 62,
        "velocity": 0
      },
      {
        "type": "midi",
        "subType": "noteOn",
        "typeByte": 150,
        "deltaTime": 26,
        "channel": 6,
        "note": 62,
        "velocity": 127
      },
      {
        "type": "midi",
        "subType": "noteOff",
        "typeByte": 150,
        "deltaTime": 34,
        "channel": 6,
        "note": 62,
        "velocity": 0
      },
      {
        "type": "midi",
        "subType": "noteOn",
        "typeByte": 150,
        "deltaTime": 14,
        "channel": 6,
        "note": 62,
        "velocity": 127
      },
      {
        "type": "midi",
        "subType": "noteOff",
        "typeByte": 150,
        "deltaTime": 44,
        "channel": 6,
        "note": 62,
        "velocity": 0
      },
      {
        "type": "midi",
        "subType": "noteOn",
        "typeByte": 150,
        "deltaTime": 5,
        "channel": 6,
        "note": 61,
        "velocity": 127
      },
      {
        "type": "midi",
        "subType": "noteOff",
        "typeByte": 150,
        "deltaTime": 87,
        "channel": 6,
        "note": 61,
        "velocity": 0
      },
      {
        "type": "midi",
        "subType": "noteOn",
        "typeByte": 150,
        "deltaTime": 9,
        "channel": 6,
        "note": 59,
        "velocity": 127
      },
      {
        "type": "midi",
        "subType": "noteOff",
        "typeByte": 150,
        "deltaTime": 353,
        "channel": 6,
        "note": 59,
        "velocity": 0
      },
      {
        "type": "midi",
        "subType": "noteOn",
        "typeByte": 150,
        "deltaTime": 80,
        "channel": 6,
        "note": 61,
        "velocity": 127
      },
      {
        "type": "midi",
        "subType": "noteOff",
        "typeByte": 150,
        "deltaTime": 41,
        "channel": 6,
        "note": 61,
        "velocity": 0
      },
      {
        "type": "midi",
        "subType": "noteOn",
        "typeByte": 150,
        "deltaTime": 7,
        "channel": 6,
        "note": 61,
        "velocity": 127
      },
      {
        "type": "midi",
        "subType": "noteOff",
        "typeByte": 150,
        "deltaTime": 59,
        "channel": 6,
        "note": 61,
        "velocity": 0
      },
      {
        "type": "midi",
        "subType": "noteOn",
        "typeByte": 150,
        "deltaTime": 37,
        "channel": 6,
        "note": 61,
        "velocity": 127
      },
      {
        "type": "midi",
        "subType": "noteOff",
        "typeByte": 150,
        "deltaTime": 92,
        "channel": 6,
        "note": 61,
        "velocity": 0
      },
      {
        "type": "midi",
        "subType": "noteOn",
        "typeByte": 150,
        "deltaTime": 5,
        "channel": 6,
        "note": 59,
        "velocity": 127
      },
      {
        "type": "midi",
        "subType": "noteOff",
        "typeByte": 150,
        "deltaTime": 91,
        "channel": 6,
        "note": 59,
        "velocity": 0
      },
      {
        "type": "midi",
        "subType": "noteOn",
        "typeByte": 150,
        "deltaTime": 5,
        "channel": 6,
        "note": 57,
        "velocity": 127
      },
      {
        "type": "midi",
        "subType": "noteOff",
        "typeByte": 150,
        "deltaTime": 92,
        "channel": 6,
        "note": 57,
        "velocity": 0
      },
      {
        "type": "midi",
        "subType": "noteOn",
        "typeByte": 150,
        "deltaTime": 4,
        "channel": 6,
        "note": 59,
        "velocity": 127
      },
      {
        "type": "midi",
        "subType": "noteOff",
        "typeByte": 150,
        "deltaTime": 92,
        "channel": 6,
        "note": 59,
        "velocity": 0
      },
      {
        "type": "midi",
        "subType": "noteOn",
        "typeByte": 150,
        "deltaTime": 5,
        "channel": 6,
        "note": 61,
        "velocity": 127
      },
      {
        "type": "midi",
        "subType": "noteOff",
        "typeByte": 150,
        "deltaTime": 48,
        "channel": 6,
        "note": 61,
        "velocity": 0
      },
      {
        "type": "midi",
        "subType": "noteOn",
        "typeByte": 150,
        "deltaTime": 0,
        "channel": 6,
        "note": 59,
        "velocity": 127
      },
      {
        "type": "midi",
        "subType": "noteOff",
        "typeByte": 150,
        "deltaTime": 91,
        "channel": 6,
        "note": 59,
        "velocity": 0
      },
      {
        "type": "midi",
        "subType": "noteOn",
        "typeByte": 150,
        "deltaTime": 5,
        "channel": 6,
        "note": 57,
        "velocity": 127
      },
      {
        "type": "midi",
        "subType": "noteOff",
        "typeByte": 150,
        "deltaTime": 88,
        "channel": 6,
        "note": 57,
        "velocity": 0
      },
      {
        "type": "midi",
        "subType": "noteOn",
        "typeByte": 150,
        "deltaTime": 104,
        "channel": 6,
        "note": 62,
        "velocity": 127
      },
      {
        "type": "midi",
        "subType": "noteOff",
        "typeByte": 150,
        "deltaTime": 130,
        "channel": 6,
        "note": 62,
        "velocity": 0
      },
      {
        "type": "midi",
        "subType": "noteOn",
        "typeByte": 150,
        "deltaTime": 15,
        "channel": 6,
        "note": 62,
        "velocity": 127
      },
      {
        "type": "midi",
        "subType": "noteOff",
        "typeByte": 150,
        "deltaTime": 35,
        "channel": 6,
        "note": 62,
        "velocity": 0
      },
      {
        "type": "midi",
        "subType": "noteOn",
        "typeByte": 150,
        "deltaTime": 13,
        "channel": 6,
        "note": 62,
        "velocity": 127
      },
      {
        "type": "midi",
        "subType": "noteOff",
        "typeByte": 150,
        "deltaTime": 34,
        "channel": 6,
        "note": 62,
        "velocity": 0
      },
      {
        "type": "midi",
        "subType": "noteOn",
        "typeByte": 150,
        "deltaTime": 14,
        "channel": 6,
        "note": 62,
        "velocity": 127
      },
      {
        "type": "midi",
        "subType": "noteOff",
        "typeByte": 150,
        "deltaTime": 66,
        "channel": 6,
        "note": 62,
        "velocity": 0
      },
      {
        "type": "midi",
        "subType": "noteOn",
        "typeByte": 150,
        "deltaTime": 464,
        "channel": 6,
        "note": 57,
        "velocity": 127
      },
      {
        "type": "midi",
        "subType": "noteOff",
        "typeByte": 150,
        "deltaTime": 30,
        "channel": 6,
        "note": 57,
        "velocity": 0
      },
      {
        "type": "midi",
        "subType": "noteOn",
        "typeByte": 150,
        "deltaTime": 18,
        "channel": 6,
        "note": 57,
        "velocity": 127
      },
      {
        "type": "midi",
        "subType": "noteOff",
        "typeByte": 150,
        "deltaTime": 28,
        "channel": 6,
        "note": 57,
        "velocity": 0
      },
      {
        "type": "midi",
        "subType": "noteOn",
        "typeByte": 150,
        "deltaTime": 20,
        "channel": 6,
        "note": 57,
        "velocity": 127
      },
      {
        "type": "midi",
        "subType": "noteOff",
        "typeByte": 150,
        "deltaTime": 29,
        "channel": 6,
        "note": 57,
        "velocity": 0
      },
      {
        "type": "midi",
        "subType": "noteOn",
        "typeByte": 150,
        "deltaTime": 20,
        "channel": 6,
        "note": 57,
        "velocity": 127
      },
      {
        "type": "midi",
        "subType": "noteOff",
        "typeByte": 150,
        "deltaTime": 26,
        "channel": 6,
        "note": 57,
        "velocity": 0
      },
      {
        "type": "midi",
        "subType": "noteOn",
        "typeByte": 150,
        "deltaTime": 21,
        "channel": 6,
        "note": 57,
        "velocity": 127
      },
      {
        "type": "midi",
        "subType": "noteOff",
        "typeByte": 150,
        "deltaTime": 27,
        "channel": 6,
        "note": 57,
        "velocity": 0
      },
      {
        "type": "midi",
        "subType": "noteOn",
        "typeByte": 150,
        "deltaTime": 22,
        "channel": 6,
        "note": 57,
        "velocity": 127
      },
      {
        "type": "midi",
        "subType": "noteOff",
        "typeByte": 150,
        "deltaTime": 25,
        "channel": 6,
        "note": 57,
        "velocity": 0
      },
      {
        "type": "midi",
        "subType": "noteOn",
        "typeByte": 150,
        "deltaTime": 23,
        "channel": 6,
        "note": 57,
        "velocity": 127
      },
      {
        "type": "midi",
        "subType": "noteOn",
        "typeByte": 150,
        "deltaTime": 48,
        "channel": 6,
        "note": 56,
        "velocity": 127
      },
      {
        "type": "midi",
        "subType": "noteOff",
        "typeByte": 150,
        "deltaTime": 13,
        "channel": 6,
        "note": 57,
        "velocity": 0
      },
      {
        "type": "midi",
        "subType": "noteOff",
        "typeByte": 150,
        "deltaTime": 79,
        "channel": 6,
        "note": 56,
        "velocity": 0
      },
      {
        "type": "midi",
        "subType": "noteOn",
        "typeByte": 150,
        "deltaTime": 4,
        "channel": 6,
        "note": 54,
        "velocity": 127
      },
      {
        "type": "midi",
        "subType": "noteOff",
        "typeByte": 150,
        "deltaTime": 120,
        "channel": 6,
        "note": 54,
        "velocity": 0
      },
      {
        "type": "midi",
        "subType": "noteOn",
        "typeByte": 150,
        "deltaTime": 121,
        "channel": 6,
        "note": 45,
        "velocity": 127
      },
      {
        "type": "midi",
        "subType": "noteOff",
        "typeByte": 150,
        "deltaTime": 382,
        "channel": 6,
        "note": 45,
        "velocity": 0
      },
      {
        "type": "midi",
        "subType": "noteOn",
        "typeByte": 150,
        "deltaTime": 4,
        "channel": 6,
        "note": 56,
        "velocity": 127
      },
      {
        "type": "midi",
        "subType": "noteOff",
        "typeByte": 150,
        "deltaTime": 381,
        "channel": 6,
        "note": 56,
        "velocity": 0
      },
      {
        "type": "midi",
        "subType": "noteOn",
        "typeByte": 150,
        "deltaTime": 4,
        "channel": 6,
        "note": 57,
        "velocity": 127
      },
      {
        "type": "midi",
        "subType": "noteOn",
        "typeByte": 150,
        "deltaTime": 385,
        "channel": 6,
        "note": 64,
        "velocity": 127
      },
      {
        "type": "midi",
        "subType": "noteOff",
        "typeByte": 150,
        "deltaTime": 120,
        "channel": 6,
        "note": 64,
        "velocity": 0
      },
      {
        "type": "midi",
        "subType": "noteOn",
        "typeByte": 150,
        "deltaTime": 24,
        "channel": 6,
        "note": 66,
        "velocity": 127
      },
      {
        "type": "midi",
        "subType": "noteOff",
        "typeByte": 150,
        "deltaTime": 116,
        "channel": 6,
        "note": 66,
        "velocity": 0
      },
      {
        "type": "midi",
        "subType": "noteOn",
        "typeByte": 150,
        "deltaTime": 4,
        "channel": 6,
        "note": 64,
        "velocity": 127
      },
      {
        "type": "midi",
        "subType": "noteOff",
        "typeByte": 150,
        "deltaTime": 117,
        "channel": 6,
        "note": 57,
        "velocity": 0
      },
      {
        "type": "midi",
        "subType": "noteOff",
        "typeByte": 150,
        "deltaTime": 3,
        "channel": 6,
        "note": 64,
        "velocity": 0
      },
      {
        "type": "midi",
        "subType": "noteOn",
        "typeByte": 150,
        "deltaTime": 2,
        "channel": 6,
        "note": 57,
        "velocity": 127
      },
      {
        "type": "midi",
        "subType": "noteOff",
        "typeByte": 150,
        "deltaTime": 381,
        "channel": 6,
        "note": 57,
        "velocity": 0
      },
      {
        "type": "midi",
        "subType": "noteOn",
        "typeByte": 150,
        "deltaTime": 4,
        "channel": 6,
        "note": 64,
        "velocity": 127
      },
      {
        "type": "midi",
        "subType": "noteOff",
        "typeByte": 150,
        "deltaTime": 380,
        "channel": 6,
        "note": 64,
        "velocity": 0
      },
      {
        "type": "midi",
        "subType": "noteOn",
        "typeByte": 150,
        "deltaTime": 5,
        "channel": 6,
        "note": 66,
        "velocity": 127
      },
      {
        "type": "midi",
        "subType": "noteOff",
        "typeByte": 150,
        "deltaTime": 385,
        "channel": 6,
        "note": 66,
        "velocity": 0
      },
      {
        "type": "midi",
        "subType": "noteOn",
        "typeByte": 150,
        "deltaTime": 0,
        "channel": 6,
        "note": 64,
        "velocity": 127
      },
      {
        "type": "midi",
        "subType": "noteOff",
        "typeByte": 150,
        "deltaTime": 119,
        "channel": 6,
        "note": 64,
        "velocity": 0
      },
      {
        "type": "midi",
        "subType": "noteOn",
        "typeByte": 150,
        "deltaTime": 24,
        "channel": 6,
        "note": 66,
        "velocity": 127
      },
      {
        "type": "midi",
        "subType": "noteOff",
        "typeByte": 150,
        "deltaTime": 121,
        "channel": 6,
        "note": 66,
        "velocity": 0
      },
      {
        "type": "midi",
        "subType": "noteOn",
        "typeByte": 150,
        "deltaTime": 1,
        "channel": 6,
        "note": 64,
        "velocity": 127
      },
      {
        "type": "midi",
        "subType": "noteOff",
        "typeByte": 150,
        "deltaTime": 116,
        "channel": 6,
        "note": 64,
        "velocity": 0
      },
      {
        "type": "midi",
        "subType": "noteOn",
        "typeByte": 150,
        "deltaTime": 5,
        "channel": 6,
        "note": 61,
        "velocity": 127
      },
      {
        "type": "midi",
        "subType": "noteOff",
        "typeByte": 150,
        "deltaTime": 380,
        "channel": 6,
        "note": 61,
        "velocity": 0
      },
      {
        "type": "midi",
        "subType": "noteOn",
        "typeByte": 150,
        "deltaTime": 4,
        "channel": 6,
        "note": 68,
        "velocity": 127
      },
      {
        "type": "midi",
        "subType": "noteOff",
        "typeByte": 150,
        "deltaTime": 376,
        "channel": 6,
        "note": 68,
        "velocity": 0
      },
      {
        "type": "midi",
        "subType": "noteOn",
        "typeByte": 150,
        "deltaTime": 10,
        "channel": 6,
        "note": 69,
        "velocity": 127
      },
      {
        "type": "midi",
        "subType": "noteOff",
        "typeByte": 150,
        "deltaTime": 476,
        "channel": 6,
        "note": 69,
        "velocity": 0
      },
      {
        "type": "midi",
        "subType": "noteOn",
        "typeByte": 150,
        "deltaTime": 5,
        "channel": 6,
        "note": 71,
        "velocity": 127
      },
      {
        "type": "midi",
        "subType": "noteOff",
        "typeByte": 150,
        "deltaTime": 43,
        "channel": 6,
        "note": 71,
        "velocity": 0
      },
      {
        "type": "midi",
        "subType": "noteOn",
        "typeByte": 150,
        "deltaTime": 4,
        "channel": 6,
        "note": 73,
        "velocity": 127
      },
      {
        "type": "midi",
        "subType": "noteOff",
        "typeByte": 150,
        "deltaTime": 94,
        "channel": 6,
        "note": 73,
        "velocity": 0
      },
      {
        "type": "midi",
        "subType": "noteOn",
        "typeByte": 150,
        "deltaTime": 3,
        "channel": 6,
        "note": 71,
        "velocity": 127
      },
      {
        "type": "midi",
        "subType": "noteOff",
        "typeByte": 150,
        "deltaTime": 44,
        "channel": 6,
        "note": 71,
        "velocity": 0
      },
      {
        "type": "midi",
        "subType": "noteOn",
        "typeByte": 150,
        "deltaTime": 5,
        "channel": 6,
        "note": 69,
        "velocity": 127
      },
      {
        "type": "midi",
        "subType": "noteOff",
        "typeByte": 150,
        "deltaTime": 72,
        "channel": 6,
        "note": 69,
        "velocity": 0
      },
      {
        "type": "midi",
        "subType": "noteOn",
        "typeByte": 150,
        "deltaTime": 25,
        "channel": 6,
        "note": 45,
        "velocity": 127
      },
      {
        "type": "midi",
        "subType": "noteOn",
        "typeByte": 150,
        "deltaTime": 0,
        "channel": 6,
        "note": 76,
        "velocity": 127
      },
      {
        "type": "midi",
        "subType": "noteOff",
        "typeByte": 150,
        "deltaTime": 380,
        "channel": 6,
        "note": 45,
        "velocity": 0
      },
      {
        "type": "midi",
        "subType": "noteOn",
        "typeByte": 150,
        "deltaTime": 4,
        "channel": 6,
        "note": 56,
        "velocity": 127
      },
      {
        "type": "midi",
        "subType": "noteOff",
        "typeByte": 150,
        "deltaTime": 381,
        "channel": 6,
        "note": 56,
        "velocity": 0
      },
      {
        "type": "midi",
        "subType": "noteOn",
        "typeByte": 150,
        "deltaTime": 4,
        "channel": 6,
        "note": 57,
        "velocity": 127
      },
      {
        "type": "midi",
        "subType": "noteOn",
        "typeByte": 150,
        "deltaTime": 385,
        "channel": 6,
        "note": 64,
        "velocity": 127
      },
      {
        "type": "midi",
        "subType": "noteOn",
        "typeByte": 150,
        "deltaTime": 0,
        "channel": 6,
        "note": 64,
        "velocity": 127
      },
      {
        "type": "midi",
        "subType": "noteOff",
        "typeByte": 150,
        "deltaTime": 1,
        "channel": 6,
        "note": 64,
        "velocity": 0
      },
      {
        "type": "midi",
        "subType": "noteOff",
        "typeByte": 150,
        "deltaTime": 119,
        "channel": 6,
        "note": 64,
        "velocity": 0
      },
      {
        "type": "midi",
        "subType": "noteOn",
        "typeByte": 150,
        "deltaTime": 24,
        "channel": 6,
        "note": 66,
        "velocity": 127
      },
      {
        "type": "midi",
        "subType": "noteOn",
        "typeByte": 150,
        "deltaTime": 0,
        "channel": 6,
        "note": 66,
        "velocity": 127
      },
      {
        "type": "midi",
        "subType": "noteOff",
        "typeByte": 150,
        "deltaTime": 1,
        "channel": 6,
        "note": 66,
        "velocity": 0
      },
      {
        "type": "midi",
        "subType": "noteOff",
        "typeByte": 150,
        "deltaTime": 111,
        "channel": 6,
        "note": 66,
        "velocity": 0
      },
      {
        "type": "midi",
        "subType": "noteOn",
        "typeByte": 150,
        "deltaTime": 8,
        "channel": 6,
        "note": 64,
        "velocity": 127
      },
      {
        "type": "midi",
        "subType": "noteOff",
        "typeByte": 150,
        "deltaTime": 26,
        "channel": 6,
        "note": 64,
        "velocity": 0
      },
      {
        "type": "midi",
        "subType": "noteOn",
        "typeByte": 150,
        "deltaTime": 0,
        "channel": 6,
        "note": 64,
        "velocity": 127
      },
      {
        "type": "midi",
        "subType": "noteOff",
        "typeByte": 150,
        "deltaTime": 91,
        "channel": 6,
        "note": 64,
        "velocity": 0
      },
      {
        "type": "midi",
        "subType": "noteOff",
        "typeByte": 150,
        "deltaTime": 0,
        "channel": 6,
        "note": 57,
        "velocity": 0
      },
      {
        "type": "midi",
        "subType": "noteOff",
        "typeByte": 150,
        "deltaTime": 0,
        "channel": 6,
        "note": 76,
        "velocity": 0
      },
      {
        "type": "midi",
        "subType": "noteOn",
        "typeByte": 150,
        "deltaTime": 5,
        "channel": 6,
        "note": 57,
        "velocity": 127
      },
      {
        "type": "midi",
        "subType": "noteOff",
        "typeByte": 150,
        "deltaTime": 381,
        "channel": 6,
        "note": 57,
        "velocity": 0
      },
      {
        "type": "midi",
        "subType": "noteOn",
        "typeByte": 150,
        "deltaTime": 4,
        "channel": 6,
        "note": 64,
        "velocity": 127
      },
      {
        "type": "midi",
        "subType": "noteOff",
        "typeByte": 150,
        "deltaTime": 380,
        "channel": 6,
        "note": 64,
        "velocity": 0
      },
      {
        "type": "midi",
        "subType": "noteOn",
        "typeByte": 150,
        "deltaTime": 5,
        "channel": 6,
        "note": 66,
        "velocity": 127
      },
      {
        "type": "midi",
        "subType": "noteOff",
        "typeByte": 150,
        "deltaTime": 385,
        "channel": 6,
        "note": 66,
        "velocity": 0
      },
      {
        "type": "midi",
        "subType": "noteOn",
        "typeByte": 150,
        "deltaTime": 1,
        "channel": 6,
        "note": 64,
        "velocity": 127
      },
      {
        "type": "midi",
        "subType": "noteOff",
        "typeByte": 150,
        "deltaTime": 118,
        "channel": 6,
        "note": 64,
        "velocity": 0
      },
      {
        "type": "midi",
        "subType": "noteOn",
        "typeByte": 150,
        "deltaTime": 25,
        "channel": 6,
        "note": 66,
        "velocity": 127
      },
      {
        "type": "midi",
        "subType": "noteOff",
        "typeByte": 150,
        "deltaTime": 120,
        "channel": 6,
        "note": 66,
        "velocity": 0
      },
      {
        "type": "midi",
        "subType": "noteOn",
        "typeByte": 150,
        "deltaTime": 1,
        "channel": 6,
        "note": 64,
        "velocity": 127
      },
      {
        "type": "midi",
        "subType": "noteOff",
        "typeByte": 150,
        "deltaTime": 116,
        "channel": 6,
        "note": 64,
        "velocity": 0
      },
      {
        "type": "midi",
        "subType": "noteOn",
        "typeByte": 150,
        "deltaTime": 5,
        "channel": 6,
        "note": 61,
        "velocity": 127
      },
      {
        "type": "midi",
        "subType": "noteOff",
        "typeByte": 150,
        "deltaTime": 380,
        "channel": 6,
        "note": 61,
        "velocity": 0
      },
      {
        "type": "midi",
        "subType": "noteOn",
        "typeByte": 150,
        "deltaTime": 5,
        "channel": 6,
        "note": 68,
        "velocity": 127
      },
      {
        "type": "midi",
        "subType": "noteOff",
        "typeByte": 150,
        "deltaTime": 375,
        "channel": 6,
        "note": 68,
        "velocity": 0
      },
      {
        "type": "midi",
        "subType": "noteOn",
        "typeByte": 150,
        "deltaTime": 10,
        "channel": 6,
        "note": 69,
        "velocity": 127
      },
      {
        "type": "midi",
        "subType": "noteOff",
        "typeByte": 150,
        "deltaTime": 477,
        "channel": 6,
        "note": 69,
        "velocity": 0
      },
      {
        "type": "midi",
        "subType": "noteOn",
        "typeByte": 150,
        "deltaTime": 4,
        "channel": 6,
        "note": 71,
        "velocity": 127
      },
      {
        "type": "midi",
        "subType": "noteOff",
        "typeByte": 150,
        "deltaTime": 43,
        "channel": 6,
        "note": 71,
        "velocity": 0
      },
      {
        "type": "midi",
        "subType": "noteOn",
        "typeByte": 150,
        "deltaTime": 4,
        "channel": 6,
        "note": 73,
        "velocity": 127
      },
      {
        "type": "midi",
        "subType": "noteOff",
        "typeByte": 150,
        "deltaTime": 94,
        "channel": 6,
        "note": 73,
        "velocity": 0
      },
      {
        "type": "midi",
        "subType": "noteOn",
        "typeByte": 150,
        "deltaTime": 3,
        "channel": 6,
        "note": 71,
        "velocity": 127
      },
      {
        "type": "midi",
        "subType": "noteOff",
        "typeByte": 150,
        "deltaTime": 44,
        "channel": 6,
        "note": 71,
        "velocity": 0
      },
      {
        "type": "midi",
        "subType": "noteOn",
        "typeByte": 150,
        "deltaTime": 5,
        "channel": 6,
        "note": 69,
        "velocity": 127
      },
      {
        "type": "midi",
        "subType": "noteOff",
        "typeByte": 150,
        "deltaTime": 73,
        "channel": 6,
        "note": 69,
        "velocity": 0
      },
      {
        "type": "midi",
        "subType": "noteOn",
        "typeByte": 150,
        "deltaTime": 24,
        "channel": 6,
        "note": 76,
        "velocity": 127
      },
      {
        "type": "midi",
        "subType": "noteOn",
        "typeByte": 150,
        "deltaTime": 0,
        "channel": 6,
        "note": 45,
        "velocity": 127
      },
      {
        "type": "midi",
        "subType": "noteOff",
        "typeByte": 150,
        "deltaTime": 380,
        "channel": 6,
        "note": 45,
        "velocity": 0
      },
      {
        "type": "midi",
        "subType": "noteOn",
        "typeByte": 150,
        "deltaTime": 4,
        "channel": 6,
        "note": 56,
        "velocity": 127
      },
      {
        "type": "midi",
        "subType": "noteOff",
        "typeByte": 150,
        "deltaTime": 381,
        "channel": 6,
        "note": 56,
        "velocity": 0
      },
      {
        "type": "midi",
        "subType": "noteOn",
        "typeByte": 150,
        "deltaTime": 4,
        "channel": 6,
        "note": 57,
        "velocity": 127
      },
      {
        "type": "midi",
        "subType": "noteOn",
        "typeByte": 150,
        "deltaTime": 386,
        "channel": 6,
        "note": 64,
        "velocity": 127
      },
      {
        "type": "midi",
        "subType": "noteOff",
        "typeByte": 150,
        "deltaTime": 119,
        "channel": 6,
        "note": 64,
        "velocity": 0
      },
      {
        "type": "midi",
        "subType": "noteOn",
        "typeByte": 150,
        "deltaTime": 24,
        "channel": 6,
        "note": 66,
        "velocity": 127
      },
      {
        "type": "midi",
        "subType": "noteOff",
        "typeByte": 150,
        "deltaTime": 112,
        "channel": 6,
        "note": 66,
        "velocity": 0
      },
      {
        "type": "midi",
        "subType": "noteOn",
        "typeByte": 150,
        "deltaTime": 9,
        "channel": 6,
        "note": 64,
        "velocity": 127
      },
      {
        "type": "midi",
        "subType": "noteOff",
        "typeByte": 150,
        "deltaTime": 116,
        "channel": 6,
        "note": 64,
        "velocity": 0
      },
      {
        "type": "midi",
        "subType": "noteOff",
        "typeByte": 150,
        "deltaTime": 0,
        "channel": 6,
        "note": 57,
        "velocity": 0
      },
      {
        "type": "midi",
        "subType": "noteOff",
        "typeByte": 150,
        "deltaTime": 0,
        "channel": 6,
        "note": 76,
        "velocity": 0
      },
      {
        "type": "midi",
        "subType": "noteOn",
        "typeByte": 150,
        "deltaTime": 5,
        "channel": 6,
        "note": 57,
        "velocity": 127
      },
      {
        "type": "midi",
        "subType": "controller",
        "typeByte": 182,
        "deltaTime": 339,
        "channel": 6,
        "controllerType": 7,
        "value": 99
      },
      {
        "type": "midi",
        "subType": "controller",
        "typeByte": 182,
        "deltaTime": 21,
        "channel": 6,
        "controllerType": 7,
        "value": 98
      },
      {
        "type": "midi",
        "subType": "noteOff",
        "typeByte": 150,
        "deltaTime": 21,
        "channel": 6,
        "note": 57,
        "velocity": 0
      },
      {
        "type": "midi",
        "subType": "noteOn",
        "typeByte": 150,
        "deltaTime": 4,
        "channel": 6,
        "note": 64,
        "velocity": 127
      },
      {
        "type": "midi",
        "subType": "controller",
        "typeByte": 182,
        "deltaTime": 4,
        "channel": 6,
        "controllerType": 7,
        "value": 97
      },
      {
        "type": "midi",
        "subType": "controller",
        "typeByte": 182,
        "deltaTime": 30,
        "channel": 6,
        "controllerType": 7,
        "value": 96
      },
      {
        "type": "midi",
        "subType": "controller",
        "typeByte": 182,
        "deltaTime": 11,
        "channel": 6,
        "controllerType": 7,
        "value": 95
      },
      {
        "type": "midi",
        "subType": "controller",
        "typeByte": 182,
        "deltaTime": 17,
        "channel": 6,
        "controllerType": 7,
        "value": 94
      },
      {
        "type": "midi",
        "subType": "controller",
        "typeByte": 182,
        "deltaTime": 44,
        "channel": 6,
        "controllerType": 7,
        "value": 93
      },
      {
        "type": "midi",
        "subType": "controller",
        "typeByte": 182,
        "deltaTime": 32,
        "channel": 6,
        "controllerType": 7,
        "value": 92
      },
      {
        "type": "midi",
        "subType": "controller",
        "typeByte": 182,
        "deltaTime": 29,
        "channel": 6,
        "controllerType": 7,
        "value": 91
      },
      {
        "type": "midi",
        "subType": "controller",
        "typeByte": 182,
        "deltaTime": 65,
        "channel": 6,
        "controllerType": 7,
        "value": 90
      },
      {
        "type": "midi",
        "subType": "controller",
        "typeByte": 182,
        "deltaTime": 47,
        "channel": 6,
        "controllerType": 7,
        "value": 89
      },
      {
        "type": "midi",
        "subType": "controller",
        "typeByte": 182,
        "deltaTime": 40,
        "channel": 6,
        "controllerType": 7,
        "value": 88
      },
      {
        "type": "midi",
        "subType": "controller",
        "typeByte": 182,
        "deltaTime": 18,
        "channel": 6,
        "controllerType": 7,
        "value": 87
      },
      {
        "type": "midi",
        "subType": "noteOff",
        "typeByte": 150,
        "deltaTime": 44,
        "channel": 6,
        "note": 64,
        "velocity": 0
      },
      {
        "type": "midi",
        "subType": "controller",
        "typeByte": 182,
        "deltaTime": 3,
        "channel": 6,
        "controllerType": 7,
        "value": 86
      },
      {
        "type": "midi",
        "subType": "noteOn",
        "typeByte": 150,
        "deltaTime": 2,
        "channel": 6,
        "note": 66,
        "velocity": 127
      },
      {
        "type": "midi",
        "subType": "controller",
        "typeByte": 182,
        "deltaTime": 11,
        "channel": 6,
        "controllerType": 7,
        "value": 85
      },
      {
        "type": "midi",
        "subType": "controller",
        "typeByte": 182,
        "deltaTime": 15,
        "channel": 6,
        "controllerType": 7,
        "value": 84
      },
      {
        "type": "midi",
        "subType": "controller",
        "typeByte": 182,
        "deltaTime": 9,
        "channel": 6,
        "controllerType": 7,
        "value": 83
      },
      {
        "type": "midi",
        "subType": "controller",
        "typeByte": 182,
        "deltaTime": 21,
        "channel": 6,
        "controllerType": 7,
        "value": 82
      },
      {
        "type": "midi",
        "subType": "controller",
        "typeByte": 182,
        "deltaTime": 50,
        "channel": 6,
        "controllerType": 7,
        "value": 81
      },
      {
        "type": "midi",
        "subType": "controller",
        "typeByte": 182,
        "deltaTime": 29,
        "channel": 6,
        "controllerType": 7,
        "value": 80
      },
      {
        "type": "midi",
        "subType": "controller",
        "typeByte": 182,
        "deltaTime": 26,
        "channel": 6,
        "controllerType": 7,
        "value": 79
      },
      {
        "type": "midi",
        "subType": "controller",
        "typeByte": 182,
        "deltaTime": 43,
        "channel": 6,
        "controllerType": 7,
        "value": 78
      },
      {
        "type": "midi",
        "subType": "controller",
        "typeByte": 182,
        "deltaTime": 29,
        "channel": 6,
        "controllerType": 7,
        "value": 77
      },
      {
        "type": "midi",
        "subType": "controller",
        "typeByte": 182,
        "deltaTime": 14,
        "channel": 6,
        "controllerType": 7,
        "value": 76
      },
      {
        "type": "midi",
        "subType": "controller",
        "typeByte": 182,
        "deltaTime": 37,
        "channel": 6,
        "controllerType": 7,
        "value": 75
      },
      {
        "type": "midi",
        "subType": "controller",
        "typeByte": 182,
        "deltaTime": 24,
        "channel": 6,
        "controllerType": 7,
        "value": 74
      },
      {
        "type": "midi",
        "subType": "controller",
        "typeByte": 182,
        "deltaTime": 15,
        "channel": 6,
        "controllerType": 7,
        "value": 73
      },
      {
        "type": "midi",
        "subType": "controller",
        "typeByte": 182,
        "deltaTime": 15,
        "channel": 6,
        "controllerType": 7,
        "value": 72
      },
      {
        "type": "midi",
        "subType": "controller",
        "typeByte": 182,
        "deltaTime": 22,
        "channel": 6,
        "controllerType": 7,
        "value": 71
      },
      {
        "type": "midi",
        "subType": "controller",
        "typeByte": 182,
        "deltaTime": 22,
        "channel": 6,
        "controllerType": 7,
        "value": 70
      },
      {
        "type": "midi",
        "subType": "noteOff",
        "typeByte": 150,
        "deltaTime": 2,
        "channel": 6,
        "note": 66,
        "velocity": 0
      },
      {
        "type": "midi",
        "subType": "noteOn",
        "typeByte": 150,
        "deltaTime": 1,
        "channel": 6,
        "note": 64,
        "velocity": 127
      },
      {
        "type": "midi",
        "subType": "controller",
        "typeByte": 182,
        "deltaTime": 26,
        "channel": 6,
        "controllerType": 7,
        "value": 69
      },
      {
        "type": "midi",
        "subType": "controller",
        "typeByte": 182,
        "deltaTime": 11,
        "channel": 6,
        "controllerType": 7,
        "value": 68
      },
      {
        "type": "midi",
        "subType": "controller",
        "typeByte": 182,
        "deltaTime": 11,
        "channel": 6,
        "controllerType": 7,
        "value": 67
      },
      {
        "type": "midi",
        "subType": "controller",
        "typeByte": 182,
        "deltaTime": 4,
        "channel": 6,
        "controllerType": 7,
        "value": 66
      },
      {
        "type": "midi",
        "subType": "controller",
        "typeByte": 182,
        "deltaTime": 11,
        "channel": 6,
        "controllerType": 7,
        "value": 65
      },
      {
        "type": "midi",
        "subType": "controller",
        "typeByte": 182,
        "deltaTime": 29,
        "channel": 6,
        "controllerType": 7,
        "value": 64
      },
      {
        "type": "midi",
        "subType": "controller",
        "typeByte": 182,
        "deltaTime": 14,
        "channel": 6,
        "controllerType": 7,
        "value": 63
      },
      {
        "type": "midi",
        "subType": "noteOff",
        "typeByte": 150,
        "deltaTime": 13,
        "channel": 6,
        "note": 64,
        "velocity": 0
      },
      {
        "type": "midi",
        "subType": "noteOn",
        "typeByte": 150,
        "deltaTime": 24,
        "channel": 6,
        "note": 66,
        "velocity": 127
      },
      {
        "type": "midi",
        "subType": "controller",
        "typeByte": 182,
        "deltaTime": 11,
        "channel": 6,
        "controllerType": 7,
        "value": 62
      },
      {
        "type": "midi",
        "subType": "controller",
        "typeByte": 182,
        "deltaTime": 64,
        "channel": 6,
        "controllerType": 7,
        "value": 61
      },
      {
        "type": "midi",
        "subType": "noteOff",
        "typeByte": 150,
        "deltaTime": 22,
        "channel": 6,
        "note": 66,
        "velocity": 0
      },
      {
        "type": "midi",
        "subType": "controller",
        "typeByte": 182,
        "deltaTime": 0,
        "channel": 6,
        "controllerType": 7,
        "value": 60
      },
      {
        "type": "midi",
        "subType": "noteOn",
        "typeByte": 150,
        "deltaTime": 24,
        "channel": 6,
        "note": 64,
        "velocity": 127
      },
      {
        "type": "midi",
        "subType": "controller",
        "typeByte": 182,
        "deltaTime": 9,
        "channel": 6,
        "controllerType": 7,
        "value": 59
      },
      {
        "type": "midi",
        "subType": "controller",
        "typeByte": 182,
        "deltaTime": 32,
        "channel": 6,
        "controllerType": 7,
        "value": 58
      },
      {
        "type": "midi",
        "subType": "controller",
        "typeByte": 182,
        "deltaTime": 43,
        "channel": 6,
        "controllerType": 7,
        "value": 57
      },
      {
        "type": "midi",
        "subType": "noteOff",
        "typeByte": 150,
        "deltaTime": 32,
        "channel": 6,
        "note": 64,
        "velocity": 0
      },
      {
        "type": "midi",
        "subType": "controller",
        "typeByte": 182,
        "deltaTime": 6,
        "channel": 6,
        "controllerType": 7,
        "value": 56
      },
      {
        "type": "midi",
        "subType": "noteOn",
        "typeByte": 150,
        "deltaTime": 0,
        "channel": 6,
        "note": 61,
        "velocity": 127
      },
      {
        "type": "midi",
        "subType": "controller",
        "typeByte": 182,
        "deltaTime": 27,
        "channel": 6,
        "controllerType": 7,
        "value": 55
      },
      {
        "type": "midi",
        "subType": "controller",
        "typeByte": 182,
        "deltaTime": 15,
        "channel": 6,
        "controllerType": 7,
        "value": 54
      },
      {
        "type": "midi",
        "subType": "controller",
        "typeByte": 182,
        "deltaTime": 22,
        "channel": 6,
        "controllerType": 7,
        "value": 53
      },
      {
        "type": "midi",
        "subType": "controller",
        "typeByte": 182,
        "deltaTime": 57,
        "channel": 6,
        "controllerType": 7,
        "value": 52
      },
      {
        "type": "midi",
        "subType": "controller",
        "typeByte": 182,
        "deltaTime": 28,
        "channel": 6,
        "controllerType": 7,
        "value": 51
      },
      {
        "type": "midi",
        "subType": "controller",
        "typeByte": 182,
        "deltaTime": 27,
        "channel": 6,
        "controllerType": 7,
        "value": 50
      },
      {
        "type": "midi",
        "subType": "controller",
        "typeByte": 182,
        "deltaTime": 10,
        "channel": 6,
        "controllerType": 7,
        "value": 49
      },
      {
        "type": "midi",
        "subType": "controller",
        "typeByte": 182,
        "deltaTime": 19,
        "channel": 6,
        "controllerType": 7,
        "value": 48
      },
      {
        "type": "midi",
        "subType": "controller",
        "typeByte": 182,
        "deltaTime": 43,
        "channel": 6,
        "controllerType": 7,
        "value": 47
      },
      {
        "type": "midi",
        "subType": "controller",
        "typeByte": 182,
        "deltaTime": 18,
        "channel": 6,
        "controllerType": 7,
        "value": 46
      },
      {
        "type": "midi",
        "subType": "controller",
        "typeByte": 182,
        "deltaTime": 22,
        "channel": 6,
        "controllerType": 7,
        "value": 45
      },
      {
        "type": "midi",
        "subType": "controller",
        "typeByte": 182,
        "deltaTime": 18,
        "channel": 6,
        "controllerType": 7,
        "value": 44
      },
      {
        "type": "midi",
        "subType": "controller",
        "typeByte": 182,
        "deltaTime": 14,
        "channel": 6,
        "controllerType": 7,
        "value": 43
      },
      {
        "type": "midi",
        "subType": "controller",
        "typeByte": 182,
        "deltaTime": 41,
        "channel": 6,
        "controllerType": 7,
        "value": 42
      },
      {
        "type": "midi",
        "subType": "controller",
        "typeByte": 182,
        "deltaTime": 11,
        "channel": 6,
        "controllerType": 7,
        "value": 41
      },
      {
        "type": "midi",
        "subType": "noteOff",
        "typeByte": 150,
        "deltaTime": 7,
        "channel": 6,
        "note": 61,
        "velocity": 0
      },
      {
        "type": "midi",
        "subType": "controller",
        "typeByte": 182,
        "deltaTime": 3,
        "channel": 6,
        "controllerType": 7,
        "value": 40
      },
      {
        "type": "midi",
        "subType": "noteOn",
        "typeByte": 150,
        "deltaTime": 2,
        "channel": 6,
        "note": 68,
        "velocity": 127
      },
      {
        "type": "midi",
        "subType": "controller",
        "typeByte": 182,
        "deltaTime": 23,
        "channel": 6,
        "controllerType": 7,
        "value": 39
      },
      {
        "type": "midi",
        "subType": "controller",
        "typeByte": 182,
        "deltaTime": 16,
        "channel": 6,
        "controllerType": 7,
        "value": 38
      },
      {
        "type": "midi",
        "subType": "controller",
        "typeByte": 182,
        "deltaTime": 11,
        "channel": 6,
        "controllerType": 7,
        "value": 37
      },
      {
        "type": "midi",
        "subType": "controller",
        "typeByte": 182,
        "deltaTime": 17,
        "channel": 6,
        "controllerType": 7,
        "value": 36
      },
      {
        "type": "midi",
        "subType": "controller",
        "typeByte": 182,
        "deltaTime": 47,
        "channel": 6,
        "controllerType": 7,
        "value": 35
      },
      {
        "type": "midi",
        "subType": "controller",
        "typeByte": 182,
        "deltaTime": 19,
        "channel": 6,
        "controllerType": 7,
        "value": 34
      },
      {
        "type": "midi",
        "subType": "controller",
        "typeByte": 182,
        "deltaTime": 25,
        "channel": 6,
        "controllerType": 7,
        "value": 33
      },
      {
        "type": "midi",
        "subType": "controller",
        "typeByte": 182,
        "deltaTime": 25,
        "channel": 6,
        "controllerType": 7,
        "value": 32
      },
      {
        "type": "midi",
        "subType": "controller",
        "typeByte": 182,
        "deltaTime": 26,
        "channel": 6,
        "controllerType": 7,
        "value": 31
      },
      {
        "type": "midi",
        "subType": "controller",
        "typeByte": 182,
        "deltaTime": 28,
        "channel": 6,
        "controllerType": 7,
        "value": 30
      },
      {
        "type": "midi",
        "subType": "controller",
        "typeByte": 182,
        "deltaTime": 29,
        "channel": 6,
        "controllerType": 7,
        "value": 29
      },
      {
        "type": "midi",
        "subType": "controller",
        "typeByte": 182,
        "deltaTime": 12,
        "channel": 6,
        "controllerType": 7,
        "value": 28
      },
      {
        "type": "midi",
        "subType": "controller",
        "typeByte": 182,
        "deltaTime": 35,
        "channel": 6,
        "controllerType": 7,
        "value": 27
      },
      {
        "type": "midi",
        "subType": "controller",
        "typeByte": 182,
        "deltaTime": 19,
        "channel": 6,
        "controllerType": 7,
        "value": 26
      },
      {
        "type": "midi",
        "subType": "controller",
        "typeByte": 182,
        "deltaTime": 15,
        "channel": 6,
        "controllerType": 7,
        "value": 25
      },
      {
        "type": "midi",
        "subType": "controller",
        "typeByte": 182,
        "deltaTime": 7,
        "channel": 6,
        "controllerType": 7,
        "value": 24
      },
      {
        "type": "midi",
        "subType": "noteOff",
        "typeByte": 150,
        "deltaTime": 21,
        "channel": 6,
        "note": 68,
        "velocity": 0
      },
      {
        "type": "midi",
        "subType": "controller",
        "typeByte": 182,
        "deltaTime": 3,
        "channel": 6,
        "controllerType": 7,
        "value": 23
      },
      {
        "type": "midi",
        "subType": "controller",
        "typeByte": 182,
        "deltaTime": 8,
        "channel": 6,
        "controllerType": 7,
        "value": 22
      },
      {
        "type": "midi",
        "subType": "noteOn",
        "typeByte": 150,
        "deltaTime": 0,
        "channel": 6,
        "note": 69,
        "velocity": 127
      },
      {
        "type": "midi",
        "subType": "controller",
        "typeByte": 182,
        "deltaTime": 11,
        "channel": 6,
        "controllerType": 7,
        "value": 21
      },
      {
        "type": "midi",
        "subType": "controller",
        "typeByte": 182,
        "deltaTime": 8,
        "channel": 6,
        "controllerType": 7,
        "value": 20
      },
      {
        "type": "midi",
        "subType": "controller",
        "typeByte": 182,
        "deltaTime": 11,
        "channel": 6,
        "controllerType": 7,
        "value": 19
      },
      {
        "type": "midi",
        "subType": "controller",
        "typeByte": 182,
        "deltaTime": 7,
        "channel": 6,
        "controllerType": 7,
        "value": 18
      },
      {
        "type": "midi",
        "subType": "controller",
        "typeByte": 182,
        "deltaTime": 8,
        "channel": 6,
        "controllerType": 7,
        "value": 17
      },
      {
        "type": "midi",
        "subType": "controller",
        "typeByte": 182,
        "deltaTime": 24,
        "channel": 6,
        "controllerType": 7,
        "value": 16
      },
      {
        "type": "midi",
        "subType": "controller",
        "typeByte": 182,
        "deltaTime": 19,
        "channel": 6,
        "controllerType": 7,
        "value": 15
      },
      {
        "type": "midi",
        "subType": "controller",
        "typeByte": 182,
        "deltaTime": 18,
        "channel": 6,
        "controllerType": 7,
        "value": 14
      },
      {
        "type": "midi",
        "subType": "controller",
        "typeByte": 182,
        "deltaTime": 11,
        "channel": 6,
        "controllerType": 7,
        "value": 13
      },
      {
        "type": "midi",
        "subType": "controller",
        "typeByte": 182,
        "deltaTime": 15,
        "channel": 6,
        "controllerType": 7,
        "value": 12
      },
      {
        "type": "midi",
        "subType": "controller",
        "typeByte": 182,
        "deltaTime": 32,
        "channel": 6,
        "controllerType": 7,
        "value": 11
      },
      {
        "type": "midi",
        "subType": "controller",
        "typeByte": 182,
        "deltaTime": 13,
        "channel": 6,
        "controllerType": 7,
        "value": 10
      },
      {
        "type": "midi",
        "subType": "controller",
        "typeByte": 182,
        "deltaTime": 6,
        "channel": 6,
        "controllerType": 7,
        "value": 9
      },
      {
        "type": "midi",
        "subType": "controller",
        "typeByte": 182,
        "deltaTime": 36,
        "channel": 6,
        "controllerType": 7,
        "value": 8
      },
      {
        "type": "midi",
        "subType": "controller",
        "typeByte": 182,
        "deltaTime": 4,
        "channel": 6,
        "controllerType": 7,
        "value": 7
      },
      {
        "type": "midi",
        "subType": "controller",
        "typeByte": 182,
        "deltaTime": 4,
        "channel": 6,
        "controllerType": 7,
        "value": 6
      },
      {
        "type": "midi",
        "subType": "controller",
        "typeByte": 182,
        "deltaTime": 4,
        "channel": 6,
        "controllerType": 7,
        "value": 5
      },
      {
        "type": "midi",
        "subType": "controller",
        "typeByte": 182,
        "deltaTime": 7,
        "channel": 6,
        "controllerType": 7,
        "value": 4
      },
      {
        "type": "midi",
        "subType": "controller",
        "typeByte": 182,
        "deltaTime": 8,
        "channel": 6,
        "controllerType": 7,
        "value": 3
      },
      {
        "type": "midi",
        "subType": "controller",
        "typeByte": 182,
        "deltaTime": 43,
        "channel": 6,
        "controllerType": 7,
        "value": 2
      },
      {
        "type": "midi",
        "subType": "controller",
        "typeByte": 182,
        "deltaTime": 15,
        "channel": 6,
        "controllerType": 7,
        "value": 1
      },
      {
        "type": "midi",
        "subType": "controller",
        "typeByte": 182,
        "deltaTime": 11,
        "channel": 6,
        "controllerType": 7,
        "value": 0
      },
      {
        "type": "midi",
        "subType": "noteOff",
        "typeByte": 150,
        "deltaTime": 161,
        "channel": 6,
        "note": 69,
        "velocity": 0
      },
      {
        "type": "midi",
        "subType": "noteOn",
        "typeByte": 150,
        "deltaTime": 5,
        "channel": 6,
        "note": 71,
        "velocity": 127
      },
      {
        "type": "midi",
        "subType": "noteOff",
        "typeByte": 150,
        "deltaTime": 42,
        "channel": 6,
        "note": 71,
        "velocity": 0
      },
      {
        "type": "midi",
        "subType": "noteOn",
        "typeByte": 150,
        "deltaTime": 5,
        "channel": 6,
        "note": 73,
        "velocity": 127
      },
      {
        "type": "midi",
        "subType": "noteOff",
        "typeByte": 150,
        "deltaTime": 93,
        "channel": 6,
        "note": 73,
        "velocity": 0
      },
      {
        "type": "midi",
        "subType": "noteOn",
        "typeByte": 150,
        "deltaTime": 3,
        "channel": 6,
        "note": 71,
        "velocity": 127
      },
      {
        "type": "midi",
        "subType": "noteOff",
        "typeByte": 150,
        "deltaTime": 44,
        "channel": 6,
        "note": 71,
        "velocity": 0
      },
      {
        "type": "midi",
        "subType": "noteOn",
        "typeByte": 150,
        "deltaTime": 5,
        "channel": 6,
        "note": 69,
        "velocity": 127
      },
      {
        "type": "midi",
        "subType": "noteOff",
        "typeByte": 150,
        "deltaTime": 73,
        "channel": 6,
        "note": 69,
        "velocity": 0
      },
      {
        "type": "midi",
        "subType": "controller",
        "typeByte": 182,
        "deltaTime": 23,
        "channel": 6,
        "controllerType": 7,
        "value": 99
      },
      {
        "type": "midi",
        "subType": "programChange",
        "typeByte": 198,
        "deltaTime": 0,
        "channel": 6,
        "program": 107
      },
      {
        "type": "midi",
        "subType": "controller",
        "typeByte": 182,
        "deltaTime": 353,
        "channel": 6,
        "controllerType": 64,
        "value": 0
      },
      {
        "type": "midi",
        "subType": "pitchBend",
        "typeByte": 230,
        "deltaTime": 1,
        "channel": 6,
        "value": 8192
      },
      {
        "type": "meta",
        "subType": "endOfTrack",
        "typeByte": 255,
        "subTypeByte": 47,
        "deltaTime": 0
      }
    ],
    [
      {
        "type": "meta",
        "typeByte": 255,
        "subTypeByte": 33,
        "deltaTime": 0,
        "data": {}
      },
      {
        "type": "meta",
        "subType": "trackName",
        "typeByte": 255,
        "subTypeByte": 3,
        "deltaTime": 0,
        "text": "Chorale             "
      },
      {
        "type": "midi",
        "subType": "programChange",
        "typeByte": 199,
        "deltaTime": 0,
        "channel": 7,
        "program": 52
      },
      {
        "type": "midi",
        "subType": "controller",
        "typeByte": 183,
        "deltaTime": 0,
        "channel": 7,
        "controllerType": 7,
        "value": 95
      },
      {
        "type": "midi",
        "subType": "controller",
        "typeByte": 183,
        "deltaTime": 0,
        "channel": 7,
        "controllerType": 10,
        "value": 40
      },
      {
        "type": "midi",
        "subType": "noteOn",
        "typeByte": 151,
        "deltaTime": 14222,
        "channel": 7,
        "note": 64,
        "velocity": 127
      },
      {
        "type": "midi",
        "subType": "noteOn",
        "typeByte": 151,
        "deltaTime": 1,
        "channel": 7,
        "note": 57,
        "velocity": 127
      },
      {
        "type": "midi",
        "subType": "noteOff",
        "typeByte": 151,
        "deltaTime": 380,
        "channel": 7,
        "note": 57,
        "velocity": 0
      },
      {
        "type": "midi",
        "subType": "noteOn",
        "typeByte": 151,
        "deltaTime": 4,
        "channel": 7,
        "note": 56,
        "velocity": 127
      },
      {
        "type": "midi",
        "subType": "noteOff",
        "typeByte": 151,
        "deltaTime": 357,
        "channel": 7,
        "note": 56,
        "velocity": 0
      },
      {
        "type": "midi",
        "subType": "noteOff",
        "typeByte": 151,
        "deltaTime": 0,
        "channel": 7,
        "note": 64,
        "velocity": 0
      },
      {
        "type": "midi",
        "subType": "noteOn",
        "typeByte": 151,
        "deltaTime": 4,
        "channel": 7,
        "note": 61,
        "velocity": 127
      },
      {
        "type": "midi",
        "subType": "noteOn",
        "typeByte": 151,
        "deltaTime": 0,
        "channel": 7,
        "note": 66,
        "velocity": 127
      },
      {
        "type": "midi",
        "subType": "noteOff",
        "typeByte": 151,
        "deltaTime": 551,
        "channel": 7,
        "note": 66,
        "velocity": 0
      },
      {
        "type": "midi",
        "subType": "noteOff",
        "typeByte": 151,
        "deltaTime": 240,
        "channel": 7,
        "note": 61,
        "velocity": 0
      },
      {
        "type": "midi",
        "subType": "noteOn",
        "typeByte": 151,
        "deltaTime": 4,
        "channel": 7,
        "note": 64,
        "velocity": 127
      },
      {
        "type": "midi",
        "subType": "noteOn",
        "typeByte": 151,
        "deltaTime": 0,
        "channel": 7,
        "note": 57,
        "velocity": 127
      },
      {
        "type": "midi",
        "subType": "noteOff",
        "typeByte": 151,
        "deltaTime": 381,
        "channel": 7,
        "note": 57,
        "velocity": 0
      },
      {
        "type": "midi",
        "subType": "noteOn",
        "typeByte": 151,
        "deltaTime": 4,
        "channel": 7,
        "note": 56,
        "velocity": 127
      },
      {
        "type": "midi",
        "subType": "noteOff",
        "typeByte": 151,
        "deltaTime": 356,
        "channel": 7,
        "note": 56,
        "velocity": 0
      },
      {
        "type": "midi",
        "subType": "noteOff",
        "typeByte": 151,
        "deltaTime": 0,
        "channel": 7,
        "note": 64,
        "velocity": 0
      },
      {
        "type": "midi",
        "subType": "noteOn",
        "typeByte": 151,
        "deltaTime": 5,
        "channel": 7,
        "note": 61,
        "velocity": 127
      },
      {
        "type": "midi",
        "subType": "noteOn",
        "typeByte": 151,
        "deltaTime": 0,
        "channel": 7,
        "note": 66,
        "velocity": 127
      },
      {
        "type": "midi",
        "subType": "noteOff",
        "typeByte": 151,
        "deltaTime": 550,
        "channel": 7,
        "note": 66,
        "velocity": 0
      },
      {
        "type": "midi",
        "subType": "noteOff",
        "typeByte": 151,
        "deltaTime": 240,
        "channel": 7,
        "note": 61,
        "velocity": 0
      },
      {
        "type": "midi",
        "subType": "noteOn",
        "typeByte": 151,
        "deltaTime": 5,
        "channel": 7,
        "note": 64,
        "velocity": 127
      },
      {
        "type": "midi",
        "subType": "noteOn",
        "typeByte": 151,
        "deltaTime": 0,
        "channel": 7,
        "note": 61,
        "velocity": 127
      },
      {
        "type": "midi",
        "subType": "noteOff",
        "typeByte": 151,
        "deltaTime": 761,
        "channel": 7,
        "note": 61,
        "velocity": 0
      },
      {
        "type": "midi",
        "subType": "noteOff",
        "typeByte": 151,
        "deltaTime": 1,
        "channel": 7,
        "note": 64,
        "velocity": 0
      },
      {
        "type": "midi",
        "subType": "noteOn",
        "typeByte": 151,
        "deltaTime": 8,
        "channel": 7,
        "note": 66,
        "velocity": 127
      },
      {
        "type": "midi",
        "subType": "noteOff",
        "typeByte": 151,
        "deltaTime": 762,
        "channel": 7,
        "note": 66,
        "velocity": 0
      },
      {
        "type": "midi",
        "subType": "noteOn",
        "typeByte": 151,
        "deltaTime": 9,
        "channel": 7,
        "note": 64,
        "velocity": 127
      },
      {
        "type": "midi",
        "subType": "noteOn",
        "typeByte": 151,
        "deltaTime": 1,
        "channel": 7,
        "note": 71,
        "velocity": 127
      },
      {
        "type": "midi",
        "subType": "noteOff",
        "typeByte": 151,
        "deltaTime": 1535,
        "channel": 7,
        "note": 71,
        "velocity": 0
      },
      {
        "type": "midi",
        "subType": "noteOff",
        "typeByte": 151,
        "deltaTime": 0,
        "channel": 7,
        "note": 64,
        "velocity": 0
      },
      {
        "type": "midi",
        "subType": "noteOn",
        "typeByte": 151,
        "deltaTime": 4626,
        "channel": 7,
        "note": 64,
        "velocity": 127
      },
      {
        "type": "midi",
        "subType": "noteOn",
        "typeByte": 151,
        "deltaTime": 1,
        "channel": 7,
        "note": 57,
        "velocity": 127
      },
      {
        "type": "midi",
        "subType": "noteOff",
        "typeByte": 151,
        "deltaTime": 380,
        "channel": 7,
        "note": 57,
        "velocity": 0
      },
      {
        "type": "midi",
        "subType": "noteOn",
        "typeByte": 151,
        "deltaTime": 5,
        "channel": 7,
        "note": 56,
        "velocity": 127
      },
      {
        "type": "midi",
        "subType": "noteOff",
        "typeByte": 151,
        "deltaTime": 356,
        "channel": 7,
        "note": 56,
        "velocity": 0
      },
      {
        "type": "midi",
        "subType": "noteOff",
        "typeByte": 151,
        "deltaTime": 0,
        "channel": 7,
        "note": 64,
        "velocity": 0
      },
      {
        "type": "midi",
        "subType": "noteOn",
        "typeByte": 151,
        "deltaTime": 4,
        "channel": 7,
        "note": 61,
        "velocity": 127
      },
      {
        "type": "midi",
        "subType": "noteOn",
        "typeByte": 151,
        "deltaTime": 0,
        "channel": 7,
        "note": 66,
        "velocity": 127
      },
      {
        "type": "midi",
        "subType": "noteOff",
        "typeByte": 151,
        "deltaTime": 550,
        "channel": 7,
        "note": 66,
        "velocity": 0
      },
      {
        "type": "midi",
        "subType": "noteOff",
        "typeByte": 151,
        "deltaTime": 241,
        "channel": 7,
        "note": 61,
        "velocity": 0
      },
      {
        "type": "midi",
        "subType": "noteOn",
        "typeByte": 151,
        "deltaTime": 4,
        "channel": 7,
        "note": 64,
        "velocity": 127
      },
      {
        "type": "midi",
        "subType": "noteOn",
        "typeByte": 151,
        "deltaTime": 0,
        "channel": 7,
        "note": 57,
        "velocity": 127
      },
      {
        "type": "midi",
        "subType": "noteOff",
        "typeByte": 151,
        "deltaTime": 381,
        "channel": 7,
        "note": 57,
        "velocity": 0
      },
      {
        "type": "midi",
        "subType": "noteOn",
        "typeByte": 151,
        "deltaTime": 4,
        "channel": 7,
        "note": 56,
        "velocity": 127
      },
      {
        "type": "midi",
        "subType": "noteOff",
        "typeByte": 151,
        "deltaTime": 356,
        "channel": 7,
        "note": 56,
        "velocity": 0
      },
      {
        "type": "midi",
        "subType": "noteOff",
        "typeByte": 151,
        "deltaTime": 0,
        "channel": 7,
        "note": 64,
        "velocity": 0
      },
      {
        "type": "midi",
        "subType": "noteOn",
        "typeByte": 151,
        "deltaTime": 5,
        "channel": 7,
        "note": 61,
        "velocity": 127
      },
      {
        "type": "midi",
        "subType": "noteOn",
        "typeByte": 151,
        "deltaTime": 0,
        "channel": 7,
        "note": 66,
        "velocity": 127
      },
      {
        "type": "midi",
        "subType": "noteOff",
        "typeByte": 151,
        "deltaTime": 550,
        "channel": 7,
        "note": 66,
        "velocity": 0
      },
      {
        "type": "midi",
        "subType": "noteOff",
        "typeByte": 151,
        "deltaTime": 240,
        "channel": 7,
        "note": 61,
        "velocity": 0
      },
      {
        "type": "midi",
        "subType": "noteOn",
        "typeByte": 151,
        "deltaTime": 5,
        "channel": 7,
        "note": 64,
        "velocity": 127
      },
      {
        "type": "midi",
        "subType": "noteOn",
        "typeByte": 151,
        "deltaTime": 0,
        "channel": 7,
        "note": 61,
        "velocity": 127
      },
      {
        "type": "midi",
        "subType": "noteOff",
        "typeByte": 151,
        "deltaTime": 762,
        "channel": 7,
        "note": 61,
        "velocity": 0
      },
      {
        "type": "midi",
        "subType": "noteOff",
        "typeByte": 151,
        "deltaTime": 0,
        "channel": 7,
        "note": 64,
        "velocity": 0
      },
      {
        "type": "midi",
        "subType": "noteOn",
        "typeByte": 151,
        "deltaTime": 8,
        "channel": 7,
        "note": 66,
        "velocity": 127
      },
      {
        "type": "midi",
        "subType": "noteOff",
        "typeByte": 151,
        "deltaTime": 762,
        "channel": 7,
        "note": 66,
        "velocity": 0
      },
      {
        "type": "midi",
        "subType": "noteOn",
        "typeByte": 151,
        "deltaTime": 9,
        "channel": 7,
        "note": 64,
        "velocity": 127
      },
      {
        "type": "midi",
        "subType": "noteOn",
        "typeByte": 151,
        "deltaTime": 1,
        "channel": 7,
        "note": 71,
        "velocity": 127
      },
      {
        "type": "midi",
        "subType": "noteOff",
        "typeByte": 151,
        "deltaTime": 1535,
        "channel": 7,
        "note": 71,
        "velocity": 0
      },
      {
        "type": "midi",
        "subType": "noteOff",
        "typeByte": 151,
        "deltaTime": 0,
        "channel": 7,
        "note": 64,
        "velocity": 0
      },
      {
        "type": "midi",
        "subType": "noteOn",
        "typeByte": 151,
        "deltaTime": 15411,
        "channel": 7,
        "note": 64,
        "velocity": 127
      },
      {
        "type": "midi",
        "subType": "noteOn",
        "typeByte": 151,
        "deltaTime": 1,
        "channel": 7,
        "note": 57,
        "velocity": 127
      },
      {
        "type": "midi",
        "subType": "noteOff",
        "typeByte": 151,
        "deltaTime": 381,
        "channel": 7,
        "note": 57,
        "velocity": 0
      },
      {
        "type": "midi",
        "subType": "noteOn",
        "typeByte": 151,
        "deltaTime": 5,
        "channel": 7,
        "note": 56,
        "velocity": 127
      },
      {
        "type": "midi",
        "subType": "noteOff",
        "typeByte": 151,
        "deltaTime": 356,
        "channel": 7,
        "note": 56,
        "velocity": 0
      },
      {
        "type": "midi",
        "subType": "noteOff",
        "typeByte": 151,
        "deltaTime": 0,
        "channel": 7,
        "note": 64,
        "velocity": 0
      },
      {
        "type": "midi",
        "subType": "noteOn",
        "typeByte": 151,
        "deltaTime": 5,
        "channel": 7,
        "note": 61,
        "velocity": 127
      },
      {
        "type": "midi",
        "subType": "noteOn",
        "typeByte": 151,
        "deltaTime": 0,
        "channel": 7,
        "note": 66,
        "velocity": 127
      },
      {
        "type": "midi",
        "subType": "noteOff",
        "typeByte": 151,
        "deltaTime": 548,
        "channel": 7,
        "note": 66,
        "velocity": 0
      },
      {
        "type": "midi",
        "subType": "noteOff",
        "typeByte": 151,
        "deltaTime": 242,
        "channel": 7,
        "note": 61,
        "velocity": 0
      },
      {
        "type": "midi",
        "subType": "noteOn",
        "typeByte": 151,
        "deltaTime": 4,
        "channel": 7,
        "note": 64,
        "velocity": 127
      },
      {
        "type": "midi",
        "subType": "noteOn",
        "typeByte": 151,
        "deltaTime": 1,
        "channel": 7,
        "note": 57,
        "velocity": 127
      },
      {
        "type": "midi",
        "subType": "noteOff",
        "typeByte": 151,
        "deltaTime": 380,
        "channel": 7,
        "note": 57,
        "velocity": 0
      },
      {
        "type": "midi",
        "subType": "noteOn",
        "typeByte": 151,
        "deltaTime": 5,
        "channel": 7,
        "note": 56,
        "velocity": 127
      },
      {
        "type": "midi",
        "subType": "noteOff",
        "typeByte": 151,
        "deltaTime": 356,
        "channel": 7,
        "note": 56,
        "velocity": 0
      },
      {
        "type": "midi",
        "subType": "noteOff",
        "typeByte": 151,
        "deltaTime": 0,
        "channel": 7,
        "note": 64,
        "velocity": 0
      },
      {
        "type": "midi",
        "subType": "noteOn",
        "typeByte": 151,
        "deltaTime": 4,
        "channel": 7,
        "note": 61,
        "velocity": 127
      },
      {
        "type": "midi",
        "subType": "noteOn",
        "typeByte": 151,
        "deltaTime": 0,
        "channel": 7,
        "note": 66,
        "velocity": 127
      },
      {
        "type": "midi",
        "subType": "noteOff",
        "typeByte": 151,
        "deltaTime": 549,
        "channel": 7,
        "note": 66,
        "velocity": 0
      },
      {
        "type": "midi",
        "subType": "noteOff",
        "typeByte": 151,
        "deltaTime": 242,
        "channel": 7,
        "note": 61,
        "velocity": 0
      },
      {
        "type": "midi",
        "subType": "noteOn",
        "typeByte": 151,
        "deltaTime": 4,
        "channel": 7,
        "note": 64,
        "velocity": 127
      },
      {
        "type": "midi",
        "subType": "noteOn",
        "typeByte": 151,
        "deltaTime": 0,
        "channel": 7,
        "note": 61,
        "velocity": 127
      },
      {
        "type": "midi",
        "subType": "noteOff",
        "typeByte": 151,
        "deltaTime": 762,
        "channel": 7,
        "note": 61,
        "velocity": 0
      },
      {
        "type": "midi",
        "subType": "noteOff",
        "typeByte": 151,
        "deltaTime": 0,
        "channel": 7,
        "note": 64,
        "velocity": 0
      },
      {
        "type": "midi",
        "subType": "noteOn",
        "typeByte": 151,
        "deltaTime": 8,
        "channel": 7,
        "note": 66,
        "velocity": 127
      },
      {
        "type": "midi",
        "subType": "noteOff",
        "typeByte": 151,
        "deltaTime": 762,
        "channel": 7,
        "note": 66,
        "velocity": 0
      },
      {
        "type": "midi",
        "subType": "noteOn",
        "typeByte": 151,
        "deltaTime": 9,
        "channel": 7,
        "note": 64,
        "velocity": 127
      },
      {
        "type": "midi",
        "subType": "noteOn",
        "typeByte": 151,
        "deltaTime": 1,
        "channel": 7,
        "note": 71,
        "velocity": 127
      },
      {
        "type": "midi",
        "subType": "noteOff",
        "typeByte": 151,
        "deltaTime": 1535,
        "channel": 7,
        "note": 71,
        "velocity": 0
      },
      {
        "type": "midi",
        "subType": "noteOff",
        "typeByte": 151,
        "deltaTime": 0,
        "channel": 7,
        "note": 64,
        "velocity": 0
      },
      {
        "type": "midi",
        "subType": "noteOn",
        "typeByte": 151,
        "deltaTime": 5,
        "channel": 7,
        "note": 57,
        "velocity": 127
      },
      {
        "type": "midi",
        "subType": "noteOn",
        "typeByte": 151,
        "deltaTime": 0,
        "channel": 7,
        "note": 64,
        "velocity": 127
      },
      {
        "type": "midi",
        "subType": "noteOff",
        "typeByte": 151,
        "deltaTime": 380,
        "channel": 7,
        "note": 57,
        "velocity": 0
      },
      {
        "type": "midi",
        "subType": "noteOn",
        "typeByte": 151,
        "deltaTime": 5,
        "channel": 7,
        "note": 56,
        "velocity": 127
      },
      {
        "type": "midi",
        "subType": "noteOff",
        "typeByte": 151,
        "deltaTime": 356,
        "channel": 7,
        "note": 56,
        "velocity": 0
      },
      {
        "type": "midi",
        "subType": "noteOff",
        "typeByte": 151,
        "deltaTime": 0,
        "channel": 7,
        "note": 64,
        "velocity": 0
      },
      {
        "type": "midi",
        "subType": "noteOn",
        "typeByte": 151,
        "deltaTime": 4,
        "channel": 7,
        "note": 61,
        "velocity": 127
      },
      {
        "type": "midi",
        "subType": "noteOn",
        "typeByte": 151,
        "deltaTime": 0,
        "channel": 7,
        "note": 66,
        "velocity": 127
      },
      {
        "type": "midi",
        "subType": "noteOff",
        "typeByte": 151,
        "deltaTime": 549,
        "channel": 7,
        "note": 66,
        "velocity": 0
      },
      {
        "type": "midi",
        "subType": "noteOff",
        "typeByte": 151,
        "deltaTime": 242,
        "channel": 7,
        "note": 61,
        "velocity": 0
      },
      {
        "type": "midi",
        "subType": "noteOn",
        "typeByte": 151,
        "deltaTime": 4,
        "channel": 7,
        "note": 64,
        "velocity": 127
      },
      {
        "type": "midi",
        "subType": "noteOn",
        "typeByte": 151,
        "deltaTime": 1,
        "channel": 7,
        "note": 61,
        "velocity": 127
      },
      {
        "type": "midi",
        "subType": "noteOff",
        "typeByte": 151,
        "deltaTime": 761,
        "channel": 7,
        "note": 61,
        "velocity": 0
      },
      {
        "type": "midi",
        "subType": "noteOff",
        "typeByte": 151,
        "deltaTime": 0,
        "channel": 7,
        "note": 64,
        "velocity": 0
      },
      {
        "type": "midi",
        "subType": "noteOn",
        "typeByte": 151,
        "deltaTime": 9,
        "channel": 7,
        "note": 66,
        "velocity": 127
      },
      {
        "type": "midi",
        "subType": "noteOff",
        "typeByte": 151,
        "deltaTime": 761,
        "channel": 7,
        "note": 66,
        "velocity": 0
      },
      {
        "type": "midi",
        "subType": "noteOn",
        "typeByte": 151,
        "deltaTime": 9,
        "channel": 7,
        "note": 64,
        "velocity": 127
      },
      {
        "type": "midi",
        "subType": "noteOn",
        "typeByte": 151,
        "deltaTime": 0,
        "channel": 7,
        "note": 71,
        "velocity": 127
      },
      {
        "type": "midi",
        "subType": "controller",
        "typeByte": 183,
        "deltaTime": 449,
        "channel": 7,
        "controllerType": 7,
        "value": 125
      },
      {
        "type": "midi",
        "subType": "controller",
        "typeByte": 183,
        "deltaTime": 171,
        "channel": 7,
        "controllerType": 7,
        "value": 124
      },
      {
        "type": "midi",
        "subType": "controller",
        "typeByte": 183,
        "deltaTime": 69,
        "channel": 7,
        "controllerType": 7,
        "value": 123
      },
      {
        "type": "midi",
        "subType": "controller",
        "typeByte": 183,
        "deltaTime": 85,
        "channel": 7,
        "controllerType": 7,
        "value": 122
      },
      {
        "type": "midi",
        "subType": "controller",
        "typeByte": 183,
        "deltaTime": 87,
        "channel": 7,
        "controllerType": 7,
        "value": 121
      },
      {
        "type": "midi",
        "subType": "controller",
        "typeByte": 183,
        "deltaTime": 61,
        "channel": 7,
        "controllerType": 7,
        "value": 120
      },
      {
        "type": "midi",
        "subType": "controller",
        "typeByte": 183,
        "deltaTime": 33,
        "channel": 7,
        "controllerType": 7,
        "value": 119
      },
      {
        "type": "midi",
        "subType": "controller",
        "typeByte": 183,
        "deltaTime": 74,
        "channel": 7,
        "controllerType": 7,
        "value": 118
      },
      {
        "type": "midi",
        "subType": "controller",
        "typeByte": 183,
        "deltaTime": 80,
        "channel": 7,
        "controllerType": 7,
        "value": 117
      },
      {
        "type": "midi",
        "subType": "controller",
        "typeByte": 183,
        "deltaTime": 29,
        "channel": 7,
        "controllerType": 7,
        "value": 116
      },
      {
        "type": "midi",
        "subType": "controller",
        "typeByte": 183,
        "deltaTime": 76,
        "channel": 7,
        "controllerType": 7,
        "value": 115
      },
      {
        "type": "midi",
        "subType": "controller",
        "typeByte": 183,
        "deltaTime": 32,
        "channel": 7,
        "controllerType": 7,
        "value": 114
      },
      {
        "type": "midi",
        "subType": "controller",
        "typeByte": 183,
        "deltaTime": 57,
        "channel": 7,
        "controllerType": 7,
        "value": 113
      },
      {
        "type": "midi",
        "subType": "controller",
        "typeByte": 183,
        "deltaTime": 33,
        "channel": 7,
        "controllerType": 7,
        "value": 112
      },
      {
        "type": "midi",
        "subType": "controller",
        "typeByte": 183,
        "deltaTime": 21,
        "channel": 7,
        "controllerType": 7,
        "value": 111
      },
      {
        "type": "midi",
        "subType": "controller",
        "typeByte": 183,
        "deltaTime": 72,
        "channel": 7,
        "controllerType": 7,
        "value": 110
      },
      {
        "type": "midi",
        "subType": "controller",
        "typeByte": 183,
        "deltaTime": 46,
        "channel": 7,
        "controllerType": 7,
        "value": 109
      },
      {
        "type": "midi",
        "subType": "controller",
        "typeByte": 183,
        "deltaTime": 30,
        "channel": 7,
        "controllerType": 7,
        "value": 108
      },
      {
        "type": "midi",
        "subType": "noteOff",
        "typeByte": 151,
        "deltaTime": 31,
        "channel": 7,
        "note": 71,
        "velocity": 0
      },
      {
        "type": "midi",
        "subType": "noteOff",
        "typeByte": 151,
        "deltaTime": 0,
        "channel": 7,
        "note": 64,
        "velocity": 0
      },
      {
        "type": "midi",
        "subType": "noteOn",
        "typeByte": 151,
        "deltaTime": 5,
        "channel": 7,
        "note": 64,
        "velocity": 127
      },
      {
        "type": "midi",
        "subType": "noteOn",
        "typeByte": 151,
        "deltaTime": 0,
        "channel": 7,
        "note": 57,
        "velocity": 127
      },
      {
        "type": "midi",
        "subType": "noteOff",
        "typeByte": 151,
        "deltaTime": 380,
        "channel": 7,
        "note": 57,
        "velocity": 0
      },
      {
        "type": "midi",
        "subType": "noteOn",
        "typeByte": 151,
        "deltaTime": 5,
        "channel": 7,
        "note": 56,
        "velocity": 127
      },
      {
        "type": "midi",
        "subType": "controller",
        "typeByte": 183,
        "deltaTime": 105,
        "channel": 7,
        "controllerType": 7,
        "value": 93
      },
      {
        "type": "midi",
        "subType": "controller",
        "typeByte": 183,
        "deltaTime": 33,
        "channel": 7,
        "controllerType": 7,
        "value": 92
      },
      {
        "type": "midi",
        "subType": "controller",
        "typeByte": 183,
        "deltaTime": 29,
        "channel": 7,
        "controllerType": 7,
        "value": 91
      },
      {
        "type": "midi",
        "subType": "controller",
        "typeByte": 183,
        "deltaTime": 65,
        "channel": 7,
        "controllerType": 7,
        "value": 90
      },
      {
        "type": "midi",
        "subType": "controller",
        "typeByte": 183,
        "deltaTime": 47,
        "channel": 7,
        "controllerType": 7,
        "value": 89
      },
      {
        "type": "midi",
        "subType": "controller",
        "typeByte": 183,
        "deltaTime": 39,
        "channel": 7,
        "controllerType": 7,
        "value": 88
      },
      {
        "type": "midi",
        "subType": "controller",
        "typeByte": 183,
        "deltaTime": 18,
        "channel": 7,
        "controllerType": 7,
        "value": 87
      },
      {
        "type": "midi",
        "subType": "noteOff",
        "typeByte": 151,
        "deltaTime": 20,
        "channel": 7,
        "note": 56,
        "velocity": 0
      },
      {
        "type": "midi",
        "subType": "noteOff",
        "typeByte": 151,
        "deltaTime": 0,
        "channel": 7,
        "note": 64,
        "velocity": 0
      },
      {
        "type": "midi",
        "subType": "noteOn",
        "typeByte": 151,
        "deltaTime": 4,
        "channel": 7,
        "note": 66,
        "velocity": 127
      },
      {
        "type": "midi",
        "subType": "noteOn",
        "typeByte": 151,
        "deltaTime": 0,
        "channel": 7,
        "note": 61,
        "velocity": 127
      },
      {
        "type": "midi",
        "subType": "controller",
        "typeByte": 183,
        "deltaTime": 24,
        "channel": 7,
        "controllerType": 7,
        "value": 86
      },
      {
        "type": "midi",
        "subType": "controller",
        "typeByte": 183,
        "deltaTime": 13,
        "channel": 7,
        "controllerType": 7,
        "value": 85
      },
      {
        "type": "midi",
        "subType": "controller",
        "typeByte": 183,
        "deltaTime": 15,
        "channel": 7,
        "controllerType": 7,
        "value": 84
      },
      {
        "type": "midi",
        "subType": "controller",
        "typeByte": 183,
        "deltaTime": 8,
        "channel": 7,
        "controllerType": 7,
        "value": 83
      },
      {
        "type": "midi",
        "subType": "controller",
        "typeByte": 183,
        "deltaTime": 22,
        "channel": 7,
        "controllerType": 7,
        "value": 82
      },
      {
        "type": "midi",
        "subType": "controller",
        "typeByte": 183,
        "deltaTime": 50,
        "channel": 7,
        "controllerType": 7,
        "value": 81
      },
      {
        "type": "midi",
        "subType": "controller",
        "typeByte": 183,
        "deltaTime": 29,
        "channel": 7,
        "controllerType": 7,
        "value": 80
      },
      {
        "type": "midi",
        "subType": "controller",
        "typeByte": 183,
        "deltaTime": 25,
        "channel": 7,
        "controllerType": 7,
        "value": 79
      },
      {
        "type": "midi",
        "subType": "controller",
        "typeByte": 183,
        "deltaTime": 44,
        "channel": 7,
        "controllerType": 7,
        "value": 78
      },
      {
        "type": "midi",
        "subType": "controller",
        "typeByte": 183,
        "deltaTime": 28,
        "channel": 7,
        "controllerType": 7,
        "value": 77
      },
      {
        "type": "midi",
        "subType": "controller",
        "typeByte": 183,
        "deltaTime": 15,
        "channel": 7,
        "controllerType": 7,
        "value": 76
      },
      {
        "type": "midi",
        "subType": "controller",
        "typeByte": 183,
        "deltaTime": 37,
        "channel": 7,
        "controllerType": 7,
        "value": 75
      },
      {
        "type": "midi",
        "subType": "controller",
        "typeByte": 183,
        "deltaTime": 24,
        "channel": 7,
        "controllerType": 7,
        "value": 74
      },
      {
        "type": "midi",
        "subType": "controller",
        "typeByte": 183,
        "deltaTime": 15,
        "channel": 7,
        "controllerType": 7,
        "value": 73
      },
      {
        "type": "midi",
        "subType": "controller",
        "typeByte": 183,
        "deltaTime": 15,
        "channel": 7,
        "controllerType": 7,
        "value": 72
      },
      {
        "type": "midi",
        "subType": "controller",
        "typeByte": 183,
        "deltaTime": 22,
        "channel": 7,
        "controllerType": 7,
        "value": 71
      },
      {
        "type": "midi",
        "subType": "controller",
        "typeByte": 183,
        "deltaTime": 21,
        "channel": 7,
        "controllerType": 7,
        "value": 70
      },
      {
        "type": "midi",
        "subType": "controller",
        "typeByte": 183,
        "deltaTime": 30,
        "channel": 7,
        "controllerType": 7,
        "value": 69
      },
      {
        "type": "midi",
        "subType": "controller",
        "typeByte": 183,
        "deltaTime": 11,
        "channel": 7,
        "controllerType": 7,
        "value": 68
      },
      {
        "type": "midi",
        "subType": "controller",
        "typeByte": 183,
        "deltaTime": 11,
        "channel": 7,
        "controllerType": 7,
        "value": 67
      },
      {
        "type": "midi",
        "subType": "controller",
        "typeByte": 183,
        "deltaTime": 4,
        "channel": 7,
        "controllerType": 7,
        "value": 66
      },
      {
        "type": "midi",
        "subType": "controller",
        "typeByte": 183,
        "deltaTime": 11,
        "channel": 7,
        "controllerType": 7,
        "value": 65
      },
      {
        "type": "midi",
        "subType": "controller",
        "typeByte": 183,
        "deltaTime": 28,
        "channel": 7,
        "controllerType": 7,
        "value": 64
      },
      {
        "type": "midi",
        "subType": "controller",
        "typeByte": 183,
        "deltaTime": 15,
        "channel": 7,
        "controllerType": 7,
        "value": 63
      },
      {
        "type": "midi",
        "subType": "noteOff",
        "typeByte": 151,
        "deltaTime": 33,
        "channel": 7,
        "note": 66,
        "velocity": 0
      },
      {
        "type": "midi",
        "subType": "controller",
        "typeByte": 183,
        "deltaTime": 15,
        "channel": 7,
        "controllerType": 7,
        "value": 62
      },
      {
        "type": "midi",
        "subType": "controller",
        "typeByte": 183,
        "deltaTime": 63,
        "channel": 7,
        "controllerType": 7,
        "value": 61
      },
      {
        "type": "midi",
        "subType": "controller",
        "typeByte": 183,
        "deltaTime": 22,
        "channel": 7,
        "controllerType": 7,
        "value": 60
      },
      {
        "type": "midi",
        "subType": "controller",
        "typeByte": 183,
        "deltaTime": 34,
        "channel": 7,
        "controllerType": 7,
        "value": 59
      },
      {
        "type": "midi",
        "subType": "controller",
        "typeByte": 183,
        "deltaTime": 31,
        "channel": 7,
        "controllerType": 7,
        "value": 58
      },
      {
        "type": "midi",
        "subType": "controller",
        "typeByte": 183,
        "deltaTime": 44,
        "channel": 7,
        "controllerType": 7,
        "value": 57
      },
      {
        "type": "midi",
        "subType": "noteOff",
        "typeByte": 151,
        "deltaTime": 32,
        "channel": 7,
        "note": 61,
        "velocity": 0
      },
      {
        "type": "midi",
        "subType": "noteOn",
        "typeByte": 151,
        "deltaTime": 5,
        "channel": 7,
        "note": 64,
        "velocity": 127
      },
      {
        "type": "midi",
        "subType": "controller",
        "typeByte": 183,
        "deltaTime": 0,
        "channel": 7,
        "controllerType": 7,
        "value": 56
      },
      {
        "type": "midi",
        "subType": "noteOn",
        "typeByte": 151,
        "deltaTime": 0,
        "channel": 7,
        "note": 61,
        "velocity": 127
      },
      {
        "type": "midi",
        "subType": "controller",
        "typeByte": 183,
        "deltaTime": 28,
        "channel": 7,
        "controllerType": 7,
        "value": 55
      },
      {
        "type": "midi",
        "subType": "controller",
        "typeByte": 183,
        "deltaTime": 15,
        "channel": 7,
        "controllerType": 7,
        "value": 54
      },
      {
        "type": "midi",
        "subType": "controller",
        "typeByte": 183,
        "deltaTime": 21,
        "channel": 7,
        "controllerType": 7,
        "value": 53
      },
      {
        "type": "midi",
        "subType": "controller",
        "typeByte": 183,
        "deltaTime": 57,
        "channel": 7,
        "controllerType": 7,
        "value": 52
      },
      {
        "type": "midi",
        "subType": "controller",
        "typeByte": 183,
        "deltaTime": 29,
        "channel": 7,
        "controllerType": 7,
        "value": 51
      },
      {
        "type": "midi",
        "subType": "controller",
        "typeByte": 183,
        "deltaTime": 27,
        "channel": 7,
        "controllerType": 7,
        "value": 50
      },
      {
        "type": "midi",
        "subType": "controller",
        "typeByte": 183,
        "deltaTime": 9,
        "channel": 7,
        "controllerType": 7,
        "value": 49
      },
      {
        "type": "midi",
        "subType": "controller",
        "typeByte": 183,
        "deltaTime": 19,
        "channel": 7,
        "controllerType": 7,
        "value": 48
      },
      {
        "type": "midi",
        "subType": "controller",
        "typeByte": 183,
        "deltaTime": 44,
        "channel": 7,
        "controllerType": 7,
        "value": 47
      },
      {
        "type": "midi",
        "subType": "controller",
        "typeByte": 183,
        "deltaTime": 17,
        "channel": 7,
        "controllerType": 7,
        "value": 46
      },
      {
        "type": "midi",
        "subType": "controller",
        "typeByte": 183,
        "deltaTime": 23,
        "channel": 7,
        "controllerType": 7,
        "value": 45
      },
      {
        "type": "midi",
        "subType": "controller",
        "typeByte": 183,
        "deltaTime": 18,
        "channel": 7,
        "controllerType": 7,
        "value": 44
      },
      {
        "type": "midi",
        "subType": "controller",
        "typeByte": 183,
        "deltaTime": 14,
        "channel": 7,
        "controllerType": 7,
        "value": 43
      },
      {
        "type": "midi",
        "subType": "controller",
        "typeByte": 183,
        "deltaTime": 41,
        "channel": 7,
        "controllerType": 7,
        "value": 42
      },
      {
        "type": "midi",
        "subType": "controller",
        "typeByte": 183,
        "deltaTime": 10,
        "channel": 7,
        "controllerType": 7,
        "value": 41
      },
      {
        "type": "midi",
        "subType": "controller",
        "typeByte": 183,
        "deltaTime": 11,
        "channel": 7,
        "controllerType": 7,
        "value": 40
      },
      {
        "type": "midi",
        "subType": "controller",
        "typeByte": 183,
        "deltaTime": 25,
        "channel": 7,
        "controllerType": 7,
        "value": 39
      },
      {
        "type": "midi",
        "subType": "controller",
        "typeByte": 183,
        "deltaTime": 16,
        "channel": 7,
        "controllerType": 7,
        "value": 38
      },
      {
        "type": "midi",
        "subType": "controller",
        "typeByte": 183,
        "deltaTime": 11,
        "channel": 7,
        "controllerType": 7,
        "value": 37
      },
      {
        "type": "midi",
        "subType": "controller",
        "typeByte": 183,
        "deltaTime": 17,
        "channel": 7,
        "controllerType": 7,
        "value": 36
      },
      {
        "type": "midi",
        "subType": "controller",
        "typeByte": 183,
        "deltaTime": 46,
        "channel": 7,
        "controllerType": 7,
        "value": 35
      },
      {
        "type": "midi",
        "subType": "controller",
        "typeByte": 183,
        "deltaTime": 19,
        "channel": 7,
        "controllerType": 7,
        "value": 34
      },
      {
        "type": "midi",
        "subType": "controller",
        "typeByte": 183,
        "deltaTime": 26,
        "channel": 7,
        "controllerType": 7,
        "value": 33
      },
      {
        "type": "midi",
        "subType": "controller",
        "typeByte": 183,
        "deltaTime": 25,
        "channel": 7,
        "controllerType": 7,
        "value": 32
      },
      {
        "type": "midi",
        "subType": "controller",
        "typeByte": 183,
        "deltaTime": 25,
        "channel": 7,
        "controllerType": 7,
        "value": 31
      },
      {
        "type": "midi",
        "subType": "controller",
        "typeByte": 183,
        "deltaTime": 29,
        "channel": 7,
        "controllerType": 7,
        "value": 30
      },
      {
        "type": "midi",
        "subType": "controller",
        "typeByte": 183,
        "deltaTime": 28,
        "channel": 7,
        "controllerType": 7,
        "value": 29
      },
      {
        "type": "midi",
        "subType": "controller",
        "typeByte": 183,
        "deltaTime": 13,
        "channel": 7,
        "controllerType": 7,
        "value": 28
      },
      {
        "type": "midi",
        "subType": "controller",
        "typeByte": 183,
        "deltaTime": 35,
        "channel": 7,
        "controllerType": 7,
        "value": 27
      },
      {
        "type": "midi",
        "subType": "controller",
        "typeByte": 183,
        "deltaTime": 19,
        "channel": 7,
        "controllerType": 7,
        "value": 26
      },
      {
        "type": "midi",
        "subType": "controller",
        "typeByte": 183,
        "deltaTime": 15,
        "channel": 7,
        "controllerType": 7,
        "value": 25
      },
      {
        "type": "midi",
        "subType": "controller",
        "typeByte": 183,
        "deltaTime": 6,
        "channel": 7,
        "controllerType": 7,
        "value": 24
      },
      {
        "type": "midi",
        "subType": "noteOff",
        "typeByte": 151,
        "deltaTime": 23,
        "channel": 7,
        "note": 61,
        "velocity": 0
      },
      {
        "type": "midi",
        "subType": "noteOff",
        "typeByte": 151,
        "deltaTime": 0,
        "channel": 7,
        "note": 64,
        "velocity": 0
      },
      {
        "type": "midi",
        "subType": "controller",
        "typeByte": 183,
        "deltaTime": 2,
        "channel": 7,
        "controllerType": 7,
        "value": 23
      },
      {
        "type": "midi",
        "subType": "noteOn",
        "typeByte": 151,
        "deltaTime": 7,
        "channel": 7,
        "note": 66,
        "velocity": 127
      },
      {
        "type": "midi",
        "subType": "controller",
        "typeByte": 183,
        "deltaTime": 0,
        "channel": 7,
        "controllerType": 7,
        "value": 22
      },
      {
        "type": "midi",
        "subType": "controller",
        "typeByte": 183,
        "deltaTime": 12,
        "channel": 7,
        "controllerType": 7,
        "value": 21
      },
      {
        "type": "midi",
        "subType": "controller",
        "typeByte": 183,
        "deltaTime": 8,
        "channel": 7,
        "controllerType": 7,
        "value": 20
      },
      {
        "type": "midi",
        "subType": "controller",
        "typeByte": 183,
        "deltaTime": 11,
        "channel": 7,
        "controllerType": 7,
        "value": 19
      },
      {
        "type": "midi",
        "subType": "controller",
        "typeByte": 183,
        "deltaTime": 7,
        "channel": 7,
        "controllerType": 7,
        "value": 18
      },
      {
        "type": "midi",
        "subType": "controller",
        "typeByte": 183,
        "deltaTime": 8,
        "channel": 7,
        "controllerType": 7,
        "value": 17
      },
      {
        "type": "midi",
        "subType": "controller",
        "typeByte": 183,
        "deltaTime": 24,
        "channel": 7,
        "controllerType": 7,
        "value": 16
      },
      {
        "type": "midi",
        "subType": "controller",
        "typeByte": 183,
        "deltaTime": 19,
        "channel": 7,
        "controllerType": 7,
        "value": 15
      },
      {
        "type": "midi",
        "subType": "controller",
        "typeByte": 183,
        "deltaTime": 18,
        "channel": 7,
        "controllerType": 7,
        "value": 14
      },
      {
        "type": "midi",
        "subType": "controller",
        "typeByte": 183,
        "deltaTime": 11,
        "channel": 7,
        "controllerType": 7,
        "value": 13
      },
      {
        "type": "midi",
        "subType": "controller",
        "typeByte": 183,
        "deltaTime": 15,
        "channel": 7,
        "controllerType": 7,
        "value": 12
      },
      {
        "type": "midi",
        "subType": "controller",
        "typeByte": 183,
        "deltaTime": 32,
        "channel": 7,
        "controllerType": 7,
        "value": 11
      },
      {
        "type": "midi",
        "subType": "controller",
        "typeByte": 183,
        "deltaTime": 12,
        "channel": 7,
        "controllerType": 7,
        "value": 10
      },
      {
        "type": "midi",
        "subType": "controller",
        "typeByte": 183,
        "deltaTime": 7,
        "channel": 7,
        "controllerType": 7,
        "value": 9
      },
      {
        "type": "midi",
        "subType": "controller",
        "typeByte": 183,
        "deltaTime": 35,
        "channel": 7,
        "controllerType": 7,
        "value": 8
      },
      {
        "type": "midi",
        "subType": "controller",
        "typeByte": 183,
        "deltaTime": 4,
        "channel": 7,
        "controllerType": 7,
        "value": 7
      },
      {
        "type": "midi",
        "subType": "controller",
        "typeByte": 183,
        "deltaTime": 4,
        "channel": 7,
        "controllerType": 7,
        "value": 6
      },
      {
        "type": "midi",
        "subType": "controller",
        "typeByte": 183,
        "deltaTime": 5,
        "channel": 7,
        "controllerType": 7,
        "value": 5
      },
      {
        "type": "midi",
        "subType": "controller",
        "typeByte": 183,
        "deltaTime": 6,
        "channel": 7,
        "controllerType": 7,
        "value": 4
      },
      {
        "type": "midi",
        "subType": "controller",
        "typeByte": 183,
        "deltaTime": 8,
        "channel": 7,
        "controllerType": 7,
        "value": 3
      },
      {
        "type": "midi",
        "subType": "controller",
        "typeByte": 183,
        "deltaTime": 43,
        "channel": 7,
        "controllerType": 7,
        "value": 2
      },
      {
        "type": "midi",
        "subType": "controller",
        "typeByte": 183,
        "deltaTime": 16,
        "channel": 7,
        "controllerType": 7,
        "value": 1
      },
      {
        "type": "midi",
        "subType": "controller",
        "typeByte": 183,
        "deltaTime": 11,
        "channel": 7,
        "controllerType": 7,
        "value": 0
      },
      {
        "type": "midi",
        "subType": "noteOff",
        "typeByte": 151,
        "deltaTime": 446,
        "channel": 7,
        "note": 66,
        "velocity": 0
      },
      {
        "type": "midi",
        "subType": "controller",
        "typeByte": 183,
        "deltaTime": 8,
        "channel": 7,
        "controllerType": 7,
        "value": 93
      },
      {
        "type": "midi",
        "subType": "programChange",
        "typeByte": 199,
        "deltaTime": 0,
        "channel": 7,
        "program": 34
      },
      {
        "type": "midi",
        "subType": "controller",
        "typeByte": 183,
        "deltaTime": 356,
        "channel": 7,
        "controllerType": 64,
        "value": 0
      },
      {
        "type": "midi",
        "subType": "pitchBend",
        "typeByte": 231,
        "deltaTime": 1,
        "channel": 7,
        "value": 8192
      },
      {
        "type": "meta",
        "subType": "endOfTrack",
        "typeByte": 255,
        "subTypeByte": 47,
        "deltaTime": 0
      }
    ],
    [
      {
        "type": "meta",
        "typeByte": 255,
        "subTypeByte": 33,
        "deltaTime": 0,
        "data": {}
      },
      {
        "type": "meta",
        "subType": "trackName",
        "typeByte": 255,
        "subTypeByte": 3,
        "deltaTime": 0,
        "text": "Percussion          "
      },
      {
        "type": "midi",
        "subType": "programChange",
        "typeByte": 201,
        "deltaTime": 0,
        "channel": 9,
        "program": 0
      },
      {
        "type": "midi",
        "subType": "controller",
        "typeByte": 185,
        "deltaTime": 0,
        "channel": 9,
        "controllerType": 7,
        "value": 125
      },
      {
        "type": "midi",
        "subType": "noteOn",
        "typeByte": 153,
        "deltaTime": 355,
        "channel": 9,
        "note": 36,
        "velocity": 127
      },
      {
        "type": "midi",
        "subType": "noteOn",
        "typeByte": 153,
        "deltaTime": 0,
        "channel": 9,
        "note": 61,
        "velocity": 127
      },
      {
        "type": "midi",
        "subType": "noteOn",
        "typeByte": 153,
        "deltaTime": 1,
        "channel": 9,
        "note": 42,
        "velocity": 127
      },
      {
        "type": "midi",
        "subType": "noteOff",
        "typeByte": 153,
        "deltaTime": 23,
        "channel": 9,
        "note": 61,
        "velocity": 0
      },
      {
        "type": "midi",
        "subType": "noteOff",
        "typeByte": 153,
        "deltaTime": 0,
        "channel": 9,
        "note": 36,
        "velocity": 0
      },
      {
        "type": "midi",
        "subType": "noteOff",
        "typeByte": 153,
        "deltaTime": 1,
        "channel": 9,
        "note": 42,
        "velocity": 0
      },
      {
        "type": "midi",
        "subType": "noteOn",
        "typeByte": 153,
        "deltaTime": 23,
        "channel": 9,
        "note": 61,
        "velocity": 127
      },
      {
        "type": "midi",
        "subType": "noteOn",
        "typeByte": 153,
        "deltaTime": 0,
        "channel": 9,
        "note": 42,
        "velocity": 127
      },
      {
        "type": "midi",
        "subType": "noteOff",
        "typeByte": 153,
        "deltaTime": 20,
        "channel": 9,
        "note": 42,
        "velocity": 0
      },
      {
        "type": "midi",
        "subType": "noteOff",
        "typeByte": 153,
        "deltaTime": 3,
        "channel": 9,
        "note": 61,
        "velocity": 0
      },
      {
        "type": "midi",
        "subType": "noteOn",
        "typeByte": 153,
        "deltaTime": 26,
        "channel": 9,
        "note": 38,
        "velocity": 127
      },
      {
        "type": "midi",
        "subType": "noteOn",
        "typeByte": 153,
        "deltaTime": 0,
        "channel": 9,
        "note": 61,
        "velocity": 127
      },
      {
        "type": "midi",
        "subType": "noteOn",
        "typeByte": 153,
        "deltaTime": 0,
        "channel": 9,
        "note": 42,
        "velocity": 127
      },
      {
        "type": "midi",
        "subType": "noteOff",
        "typeByte": 153,
        "deltaTime": 21,
        "channel": 9,
        "note": 42,
        "velocity": 0
      },
      {
        "type": "midi",
        "subType": "noteOff",
        "typeByte": 153,
        "deltaTime": 2,
        "channel": 9,
        "note": 61,
        "velocity": 0
      },
      {
        "type": "midi",
        "subType": "noteOff",
        "typeByte": 153,
        "deltaTime": 0,
        "channel": 9,
        "note": 38,
        "velocity": 0
      },
      {
        "type": "midi",
        "subType": "noteOn",
        "typeByte": 153,
        "deltaTime": 24,
        "channel": 9,
        "note": 61,
        "velocity": 127
      },
      {
        "type": "midi",
        "subType": "noteOn",
        "typeByte": 153,
        "deltaTime": 0,
        "channel": 9,
        "note": 42,
        "velocity": 127
      },
      {
        "type": "midi",
        "subType": "noteOff",
        "typeByte": 153,
        "deltaTime": 23,
        "channel": 9,
        "note": 42,
        "velocity": 0
      },
      {
        "type": "midi",
        "subType": "noteOff",
        "typeByte": 153,
        "deltaTime": 0,
        "channel": 9,
        "note": 61,
        "velocity": 0
      },
      {
        "type": "midi",
        "subType": "noteOn",
        "typeByte": 153,
        "deltaTime": 26,
        "channel": 9,
        "note": 36,
        "velocity": 127
      },
      {
        "type": "midi",
        "subType": "noteOn",
        "typeByte": 153,
        "deltaTime": 0,
        "channel": 9,
        "note": 61,
        "velocity": 127
      },
      {
        "type": "midi",
        "subType": "noteOn",
        "typeByte": 153,
        "deltaTime": 0,
        "channel": 9,
        "note": 40,
        "velocity": 127
      },
      {
        "type": "midi",
        "subType": "noteOn",
        "typeByte": 153,
        "deltaTime": 1,
        "channel": 9,
        "note": 51,
        "velocity": 127
      },
      {
        "type": "midi",
        "subType": "noteOn",
        "typeByte": 153,
        "deltaTime": 0,
        "channel": 9,
        "note": 42,
        "velocity": 127
      },
      {
        "type": "midi",
        "subType": "noteOff",
        "typeByte": 153,
        "deltaTime": 22,
        "channel": 9,
        "note": 42,
        "velocity": 0
      },
      {
        "type": "midi",
        "subType": "noteOff",
        "typeByte": 153,
        "deltaTime": 0,
        "channel": 9,
        "note": 36,
        "velocity": 0
      },
      {
        "type": "midi",
        "subType": "noteOff",
        "typeByte": 153,
        "deltaTime": 0,
        "channel": 9,
        "note": 61,
        "velocity": 0
      },
      {
        "type": "midi",
        "subType": "noteOn",
        "typeByte": 153,
        "deltaTime": 24,
        "channel": 9,
        "note": 36,
        "velocity": 127
      },
      {
        "type": "midi",
        "subType": "noteOn",
        "typeByte": 153,
        "deltaTime": 0,
        "channel": 9,
        "note": 61,
        "velocity": 127
      },
      {
        "type": "midi",
        "subType": "noteOn",
        "typeByte": 153,
        "deltaTime": 1,
        "channel": 9,
        "note": 42,
        "velocity": 127
      },
      {
        "type": "midi",
        "subType": "noteOff",
        "typeByte": 153,
        "deltaTime": 22,
        "channel": 9,
        "note": 61,
        "velocity": 0
      },
      {
        "type": "midi",
        "subType": "noteOff",
        "typeByte": 153,
        "deltaTime": 0,
        "channel": 9,
        "note": 36,
        "velocity": 0
      },
      {
        "type": "midi",
        "subType": "noteOff",
        "typeByte": 153,
        "deltaTime": 3,
        "channel": 9,
        "note": 42,
        "velocity": 0
      },
      {
        "type": "midi",
        "subType": "noteOff",
        "typeByte": 153,
        "deltaTime": 23,
        "channel": 9,
        "note": 40,
        "velocity": 0
      },
      {
        "type": "midi",
        "subType": "noteOn",
        "typeByte": 153,
        "deltaTime": 1,
        "channel": 9,
        "note": 38,
        "velocity": 127
      },
      {
        "type": "midi",
        "subType": "noteOn",
        "typeByte": 153,
        "deltaTime": 0,
        "channel": 9,
        "note": 61,
        "velocity": 127
      },
      {
        "type": "midi",
        "subType": "noteOn",
        "typeByte": 153,
        "deltaTime": 0,
        "channel": 9,
        "note": 42,
        "velocity": 127
      },
      {
        "type": "midi",
        "subType": "noteOff",
        "typeByte": 153,
        "deltaTime": 3,
        "channel": 9,
        "note": 51,
        "velocity": 0
      },
      {
        "type": "midi",
        "subType": "noteOff",
        "typeByte": 153,
        "deltaTime": 19,
        "channel": 9,
        "note": 38,
        "velocity": 0
      },
      {
        "type": "midi",
        "subType": "noteOff",
        "typeByte": 153,
        "deltaTime": 0,
        "channel": 9,
        "note": 61,
        "velocity": 0
      },
      {
        "type": "midi",
        "subType": "noteOff",
        "typeByte": 153,
        "deltaTime": 2,
        "channel": 9,
        "note": 42,
        "velocity": 0
      },
      {
        "type": "midi",
        "subType": "noteOn",
        "typeByte": 153,
        "deltaTime": 23,
        "channel": 9,
        "note": 61,
        "velocity": 127
      },
      {
        "type": "midi",
        "subType": "noteOn",
        "typeByte": 153,
        "deltaTime": 0,
        "channel": 9,
        "note": 42,
        "velocity": 127
      },
      {
        "type": "midi",
        "subType": "noteOff",
        "typeByte": 153,
        "deltaTime": 23,
        "channel": 9,
        "note": 61,
        "velocity": 0
      },
      {
        "type": "midi",
        "subType": "noteOff",
        "typeByte": 153,
        "deltaTime": 2,
        "channel": 9,
        "note": 42,
        "velocity": 0
      },
      {
        "type": "midi",
        "subType": "noteOn",
        "typeByte": 153,
        "deltaTime": 24,
        "channel": 9,
        "note": 36,
        "velocity": 127
      },
      {
        "type": "midi",
        "subType": "noteOn",
        "typeByte": 153,
        "deltaTime": 0,
        "channel": 9,
        "note": 61,
        "velocity": 127
      },
      {
        "type": "midi",
        "subType": "noteOn",
        "typeByte": 153,
        "deltaTime": 0,
        "channel": 9,
        "note": 42,
        "velocity": 127
      },
      {
        "type": "midi",
        "subType": "noteOff",
        "typeByte": 153,
        "deltaTime": 23,
        "channel": 9,
        "note": 61,
        "velocity": 0
      },
      {
        "type": "midi",
        "subType": "noteOff",
        "typeByte": 153,
        "deltaTime": 0,
        "channel": 9,
        "note": 36,
        "velocity": 0
      },
      {
        "type": "midi",
        "subType": "noteOff",
        "typeByte": 153,
        "deltaTime": 5,
        "channel": 9,
        "note": 42,
        "velocity": 0
      },
      {
        "type": "midi",
        "subType": "noteOn",
        "typeByte": 153,
        "deltaTime": 19,
        "channel": 9,
        "note": 61,
        "velocity": 127
      },
      {
        "type": "midi",
        "subType": "noteOn",
        "typeByte": 153,
        "deltaTime": 0,
        "channel": 9,
        "note": 42,
        "velocity": 127
      },
      {
        "type": "midi",
        "subType": "noteOff",
        "typeByte": 153,
        "deltaTime": 23,
        "channel": 9,
        "note": 42,
        "velocity": 0
      },
      {
        "type": "midi",
        "subType": "noteOff",
        "typeByte": 153,
        "deltaTime": 0,
        "channel": 9,
        "note": 61,
        "velocity": 0
      },
      {
        "type": "midi",
        "subType": "noteOn",
        "typeByte": 153,
        "deltaTime": 26,
        "channel": 9,
        "note": 38,
        "velocity": 127
      },
      {
        "type": "midi",
        "subType": "noteOn",
        "typeByte": 153,
        "deltaTime": 0,
        "channel": 9,
        "note": 61,
        "velocity": 127
      },
      {
        "type": "midi",
        "subType": "noteOn",
        "typeByte": 153,
        "deltaTime": 0,
        "channel": 9,
        "note": 42,
        "velocity": 127
      },
      {
        "type": "midi",
        "subType": "noteOff",
        "typeByte": 153,
        "deltaTime": 23,
        "channel": 9,
        "note": 42,
        "velocity": 0
      },
      {
        "type": "midi",
        "subType": "noteOff",
        "typeByte": 153,
        "deltaTime": 0,
        "channel": 9,
        "note": 61,
        "velocity": 0
      },
      {
        "type": "midi",
        "subType": "noteOff",
        "typeByte": 153,
        "deltaTime": 0,
        "channel": 9,
        "note": 38,
        "velocity": 0
      },
      {
        "type": "midi",
        "subType": "noteOn",
        "typeByte": 153,
        "deltaTime": 24,
        "channel": 9,
        "note": 61,
        "velocity": 127
      },
      {
        "type": "midi",
        "subType": "noteOn",
        "typeByte": 153,
        "deltaTime": 0,
        "channel": 9,
        "note": 42,
        "velocity": 127
      },
      {
        "type": "midi",
        "subType": "noteOff",
        "typeByte": 153,
        "deltaTime": 23,
        "channel": 9,
        "note": 61,
        "velocity": 0
      },
      {
        "type": "midi",
        "subType": "noteOff",
        "typeByte": 153,
        "deltaTime": 2,
        "channel": 9,
        "note": 42,
        "velocity": 0
      },
      {
        "type": "midi",
        "subType": "noteOn",
        "typeByte": 153,
        "deltaTime": 24,
        "channel": 9,
        "note": 36,
        "velocity": 127
      },
      {
        "type": "midi",
        "subType": "noteOn",
        "typeByte": 153,
        "deltaTime": 0,
        "channel": 9,
        "note": 61,
        "velocity": 127
      },
      {
        "type": "midi",
        "subType": "noteOn",
        "typeByte": 153,
        "deltaTime": 1,
        "channel": 9,
        "note": 51,
        "velocity": 127
      },
      {
        "type": "midi",
        "subType": "noteOn",
        "typeByte": 153,
        "deltaTime": 0,
        "channel": 9,
        "note": 40,
        "velocity": 127
      },
      {
        "type": "midi",
        "subType": "noteOn",
        "typeByte": 153,
        "deltaTime": 0,
        "channel": 9,
        "note": 42,
        "velocity": 127
      },
      {
        "type": "midi",
        "subType": "noteOff",
        "typeByte": 153,
        "deltaTime": 22,
        "channel": 9,
        "note": 61,
        "velocity": 0
      },
      {
        "type": "midi",
        "subType": "noteOff",
        "typeByte": 153,
        "deltaTime": 0,
        "channel": 9,
        "note": 36,
        "velocity": 0
      },
      {
        "type": "midi",
        "subType": "noteOff",
        "typeByte": 153,
        "deltaTime": 1,
        "channel": 9,
        "note": 42,
        "velocity": 0
      },
      {
        "type": "midi",
        "subType": "noteOn",
        "typeByte": 153,
        "deltaTime": 24,
        "channel": 9,
        "note": 36,
        "velocity": 127
      },
      {
        "type": "midi",
        "subType": "noteOn",
        "typeByte": 153,
        "deltaTime": 0,
        "channel": 9,
        "note": 61,
        "velocity": 127
      },
      {
        "type": "midi",
        "subType": "noteOn",
        "typeByte": 153,
        "deltaTime": 0,
        "channel": 9,
        "note": 42,
        "velocity": 127
      },
      {
        "type": "midi",
        "subType": "noteOff",
        "typeByte": 153,
        "deltaTime": 23,
        "channel": 9,
        "note": 61,
        "velocity": 0
      },
      {
        "type": "midi",
        "subType": "noteOff",
        "typeByte": 153,
        "deltaTime": 0,
        "channel": 9,
        "note": 36,
        "velocity": 0
      },
      {
        "type": "midi",
        "subType": "noteOff",
        "typeByte": 153,
        "deltaTime": 1,
        "channel": 9,
        "note": 42,
        "velocity": 0
      },
      {
        "type": "midi",
        "subType": "noteOff",
        "typeByte": 153,
        "deltaTime": 15,
        "channel": 9,
        "note": 51,
        "velocity": 0
      },
      {
        "type": "midi",
        "subType": "noteOff",
        "typeByte": 153,
        "deltaTime": 1,
        "channel": 9,
        "note": 40,
        "velocity": 0
      },
      {
        "type": "midi",
        "subType": "noteOn",
        "typeByte": 153,
        "deltaTime": 9,
        "channel": 9,
        "note": 38,
        "velocity": 127
      },
      {
        "type": "midi",
        "subType": "noteOn",
        "typeByte": 153,
        "deltaTime": 0,
        "channel": 9,
        "note": 61,
        "velocity": 127
      },
      {
        "type": "midi",
        "subType": "noteOn",
        "typeByte": 153,
        "deltaTime": 0,
        "channel": 9,
        "note": 42,
        "velocity": 127
      },
      {
        "type": "midi",
        "subType": "noteOff",
        "typeByte": 153,
        "deltaTime": 22,
        "channel": 9,
        "note": 61,
        "velocity": 0
      },
      {
        "type": "midi",
        "subType": "noteOff",
        "typeByte": 153,
        "deltaTime": 0,
        "channel": 9,
        "note": 38,
        "velocity": 0
      },
      {
        "type": "midi",
        "subType": "noteOff",
        "typeByte": 153,
        "deltaTime": 2,
        "channel": 9,
        "note": 42,
        "velocity": 0
      },
      {
        "type": "midi",
        "subType": "noteOn",
        "typeByte": 153,
        "deltaTime": 23,
        "channel": 9,
        "note": 61,
        "velocity": 127
      },
      {
        "type": "midi",
        "subType": "noteOn",
        "typeByte": 153,
        "deltaTime": 0,
        "channel": 9,
        "note": 42,
        "velocity": 127
      },
      {
        "type": "midi",
        "subType": "noteOff",
        "typeByte": 153,
        "deltaTime": 23,
        "channel": 9,
        "note": 61,
        "velocity": 0
      },
      {
        "type": "midi",
        "subType": "noteOff",
        "typeByte": 153,
        "deltaTime": 3,
        "channel": 9,
        "note": 42,
        "velocity": 0
      },
      {
        "type": "midi",
        "subType": "noteOn",
        "typeByte": 153,
        "deltaTime": 23,
        "channel": 9,
        "note": 36,
        "velocity": 127
      },
      {
        "type": "midi",
        "subType": "noteOn",
        "typeByte": 153,
        "deltaTime": 0,
        "channel": 9,
        "note": 61,
        "velocity": 127
      },
      {
        "type": "midi",
        "subType": "noteOn",
        "typeByte": 153,
        "deltaTime": 0,
        "channel": 9,
        "note": 42,
        "velocity": 127
      },
      {
        "type": "midi",
        "subType": "noteOff",
        "typeByte": 153,
        "deltaTime": 23,
        "channel": 9,
        "note": 61,
        "velocity": 0
      },
      {
        "type": "midi",
        "subType": "noteOff",
        "typeByte": 153,
        "deltaTime": 0,
        "channel": 9,
        "note": 36,
        "velocity": 0
      },
      {
        "type": "midi",
        "subType": "noteOff",
        "typeByte": 153,
        "deltaTime": 1,
        "channel": 9,
        "note": 42,
        "velocity": 0
      },
      {
        "type": "midi",
        "subType": "noteOn",
        "typeByte": 153,
        "deltaTime": 23,
        "channel": 9,
        "note": 61,
        "velocity": 127
      },
      {
        "type": "midi",
        "subType": "noteOn",
        "typeByte": 153,
        "deltaTime": 0,
        "channel": 9,
        "note": 42,
        "velocity": 127
      },
      {
        "type": "midi",
        "subType": "noteOff",
        "typeByte": 153,
        "deltaTime": 23,
        "channel": 9,
        "note": 61,
        "velocity": 0
      },
      {
        "type": "midi",
        "subType": "noteOff",
        "typeByte": 153,
        "deltaTime": 3,
        "channel": 9,
        "note": 42,
        "velocity": 0
      },
      {
        "type": "midi",
        "subType": "noteOn",
        "typeByte": 153,
        "deltaTime": 23,
        "channel": 9,
        "note": 38,
        "velocity": 127
      },
      {
        "type": "midi",
        "subType": "noteOn",
        "typeByte": 153,
        "deltaTime": 0,
        "channel": 9,
        "note": 61,
        "velocity": 127
      },
      {
        "type": "midi",
        "subType": "noteOn",
        "typeByte": 153,
        "deltaTime": 1,
        "channel": 9,
        "note": 42,
        "velocity": 127
      },
      {
        "type": "midi",
        "subType": "noteOff",
        "typeByte": 153,
        "deltaTime": 22,
        "channel": 9,
        "note": 42,
        "velocity": 0
      },
      {
        "type": "midi",
        "subType": "noteOff",
        "typeByte": 153,
        "deltaTime": 0,
        "channel": 9,
        "note": 61,
        "velocity": 0
      },
      {
        "type": "midi",
        "subType": "noteOff",
        "typeByte": 153,
        "deltaTime": 0,
        "channel": 9,
        "note": 38,
        "velocity": 0
      },
      {
        "type": "midi",
        "subType": "noteOn",
        "typeByte": 153,
        "deltaTime": 24,
        "channel": 9,
        "note": 61,
        "velocity": 127
      },
      {
        "type": "midi",
        "subType": "noteOn",
        "typeByte": 153,
        "deltaTime": 1,
        "channel": 9,
        "note": 42,
        "velocity": 127
      },
      {
        "type": "midi",
        "subType": "noteOff",
        "typeByte": 153,
        "deltaTime": 23,
        "channel": 9,
        "note": 42,
        "velocity": 0
      },
      {
        "type": "midi",
        "subType": "noteOff",
        "typeByte": 153,
        "deltaTime": 0,
        "channel": 9,
        "note": 61,
        "velocity": 0
      },
      {
        "type": "midi",
        "subType": "noteOn",
        "typeByte": 153,
        "deltaTime": 25,
        "channel": 9,
        "note": 36,
        "velocity": 127
      },
      {
        "type": "midi",
        "subType": "noteOn",
        "typeByte": 153,
        "deltaTime": 1,
        "channel": 9,
        "note": 61,
        "velocity": 127
      },
      {
        "type": "midi",
        "subType": "noteOn",
        "typeByte": 153,
        "deltaTime": 0,
        "channel": 9,
        "note": 40,
        "velocity": 127
      },
      {
        "type": "midi",
        "subType": "noteOn",
        "typeByte": 153,
        "deltaTime": 0,
        "channel": 9,
        "note": 51,
        "velocity": 127
      },
      {
        "type": "midi",
        "subType": "noteOn",
        "typeByte": 153,
        "deltaTime": 0,
        "channel": 9,
        "note": 42,
        "velocity": 127
      },
      {
        "type": "midi",
        "subType": "noteOff",
        "typeByte": 153,
        "deltaTime": 22,
        "channel": 9,
        "note": 42,
        "velocity": 0
      },
      {
        "type": "midi",
        "subType": "noteOff",
        "typeByte": 153,
        "deltaTime": 0,
        "channel": 9,
        "note": 36,
        "velocity": 0
      },
      {
        "type": "midi",
        "subType": "noteOff",
        "typeByte": 153,
        "deltaTime": 1,
        "channel": 9,
        "note": 61,
        "velocity": 0
      },
      {
        "type": "midi",
        "subType": "noteOn",
        "typeByte": 153,
        "deltaTime": 24,
        "channel": 9,
        "note": 36,
        "velocity": 127
      },
      {
        "type": "midi",
        "subType": "noteOn",
        "typeByte": 153,
        "deltaTime": 0,
        "channel": 9,
        "note": 61,
        "velocity": 127
      },
      {
        "type": "midi",
        "subType": "noteOn",
        "typeByte": 153,
        "deltaTime": 0,
        "channel": 9,
        "note": 42,
        "velocity": 127
      },
      {
        "type": "midi",
        "subType": "noteOff",
        "typeByte": 153,
        "deltaTime": 23,
        "channel": 9,
        "note": 42,
        "velocity": 0
      },
      {
        "type": "midi",
        "subType": "noteOff",
        "typeByte": 153,
        "deltaTime": 0,
        "channel": 9,
        "note": 36,
        "velocity": 0
      },
      {
        "type": "midi",
        "subType": "noteOff",
        "typeByte": 153,
        "deltaTime": 0,
        "channel": 9,
        "note": 61,
        "velocity": 0
      },
      {
        "type": "midi",
        "subType": "noteOff",
        "typeByte": 153,
        "deltaTime": 26,
        "channel": 9,
        "note": 40,
        "velocity": 0
      },
      {
        "type": "midi",
        "subType": "noteOn",
        "typeByte": 153,
        "deltaTime": 0,
        "channel": 9,
        "note": 38,
        "velocity": 127
      },
      {
        "type": "midi",
        "subType": "noteOn",
        "typeByte": 153,
        "deltaTime": 0,
        "channel": 9,
        "note": 61,
        "velocity": 127
      },
      {
        "type": "midi",
        "subType": "noteOn",
        "typeByte": 153,
        "deltaTime": 0,
        "channel": 9,
        "note": 42,
        "velocity": 127
      },
      {
        "type": "midi",
        "subType": "noteOff",
        "typeByte": 153,
        "deltaTime": 4,
        "channel": 9,
        "note": 51,
        "velocity": 0
      },
      {
        "type": "midi",
        "subType": "noteOff",
        "typeByte": 153,
        "deltaTime": 19,
        "channel": 9,
        "note": 38,
        "velocity": 0
      },
      {
        "type": "midi",
        "subType": "noteOff",
        "typeByte": 153,
        "deltaTime": 0,
        "channel": 9,
        "note": 61,
        "velocity": 0
      },
      {
        "type": "midi",
        "subType": "noteOff",
        "typeByte": 153,
        "deltaTime": 0,
        "channel": 9,
        "note": 42,
        "velocity": 0
      },
      {
        "type": "midi",
        "subType": "noteOn",
        "typeByte": 153,
        "deltaTime": 24,
        "channel": 9,
        "note": 61,
        "velocity": 127
      },
      {
        "type": "midi",
        "subType": "noteOn",
        "typeByte": 153,
        "deltaTime": 0,
        "channel": 9,
        "note": 42,
        "velocity": 127
      },
      {
        "type": "midi",
        "subType": "noteOff",
        "typeByte": 153,
        "deltaTime": 23,
        "channel": 9,
        "note": 42,
        "velocity": 0
      },
      {
        "type": "midi",
        "subType": "noteOff",
        "typeByte": 153,
        "deltaTime": 0,
        "channel": 9,
        "note": 61,
        "velocity": 0
      },
      {
        "type": "midi",
        "subType": "noteOn",
        "typeByte": 153,
        "deltaTime": 26,
        "channel": 9,
        "note": 36,
        "velocity": 127
      },
      {
        "type": "midi",
        "subType": "noteOn",
        "typeByte": 153,
        "deltaTime": 0,
        "channel": 9,
        "note": 61,
        "velocity": 127
      },
      {
        "type": "midi",
        "subType": "noteOn",
        "typeByte": 153,
        "deltaTime": 0,
        "channel": 9,
        "note": 42,
        "velocity": 127
      },
      {
        "type": "midi",
        "subType": "noteOff",
        "typeByte": 153,
        "deltaTime": 18,
        "channel": 9,
        "note": 42,
        "velocity": 0
      },
      {
        "type": "midi",
        "subType": "noteOff",
        "typeByte": 153,
        "deltaTime": 5,
        "channel": 9,
        "note": 61,
        "velocity": 0
      },
      {
        "type": "midi",
        "subType": "noteOff",
        "typeByte": 153,
        "deltaTime": 0,
        "channel": 9,
        "note": 36,
        "velocity": 0
      },
      {
        "type": "midi",
        "subType": "noteOn",
        "typeByte": 153,
        "deltaTime": 24,
        "channel": 9,
        "note": 61,
        "velocity": 127
      },
      {
        "type": "midi",
        "subType": "noteOn",
        "typeByte": 153,
        "deltaTime": 1,
        "channel": 9,
        "note": 42,
        "velocity": 127
      },
      {
        "type": "midi",
        "subType": "noteOff",
        "typeByte": 153,
        "deltaTime": 17,
        "channel": 9,
        "note": 42,
        "velocity": 0
      },
      {
        "type": "midi",
        "subType": "noteOff",
        "typeByte": 153,
        "deltaTime": 5,
        "channel": 9,
        "note": 61,
        "velocity": 0
      },
      {
        "type": "midi",
        "subType": "noteOn",
        "typeByte": 153,
        "deltaTime": 26,
        "channel": 9,
        "note": 38,
        "velocity": 127
      },
      {
        "type": "midi",
        "subType": "noteOn",
        "typeByte": 153,
        "deltaTime": 0,
        "channel": 9,
        "note": 61,
        "velocity": 127
      },
      {
        "type": "midi",
        "subType": "noteOn",
        "typeByte": 153,
        "deltaTime": 1,
        "channel": 9,
        "note": 42,
        "velocity": 127
      },
      {
        "type": "midi",
        "subType": "noteOff",
        "typeByte": 153,
        "deltaTime": 20,
        "channel": 9,
        "note": 42,
        "velocity": 0
      },
      {
        "type": "midi",
        "subType": "noteOff",
        "typeByte": 153,
        "deltaTime": 2,
        "channel": 9,
        "note": 61,
        "velocity": 0
      },
      {
        "type": "midi",
        "subType": "noteOff",
        "typeByte": 153,
        "deltaTime": 0,
        "channel": 9,
        "note": 38,
        "velocity": 0
      },
      {
        "type": "midi",
        "subType": "noteOn",
        "typeByte": 153,
        "deltaTime": 25,
        "channel": 9,
        "note": 61,
        "velocity": 127
      },
      {
        "type": "midi",
        "subType": "noteOn",
        "typeByte": 153,
        "deltaTime": 0,
        "channel": 9,
        "note": 42,
        "velocity": 127
      },
      {
        "type": "midi",
        "subType": "noteOff",
        "typeByte": 153,
        "deltaTime": 15,
        "channel": 9,
        "note": 42,
        "velocity": 0
      },
      {
        "type": "midi",
        "subType": "noteOff",
        "typeByte": 153,
        "deltaTime": 8,
        "channel": 9,
        "note": 61,
        "velocity": 0
      },
      {
        "type": "midi",
        "subType": "noteOn",
        "typeByte": 153,
        "deltaTime": 26,
        "channel": 9,
        "note": 36,
        "velocity": 127
      },
      {
        "type": "midi",
        "subType": "noteOn",
        "typeByte": 153,
        "deltaTime": 0,
        "channel": 9,
        "note": 61,
        "velocity": 127
      },
      {
        "type": "midi",
        "subType": "noteOn",
        "typeByte": 153,
        "deltaTime": 0,
        "channel": 9,
        "note": 51,
        "velocity": 127
      },
      {
        "type": "midi",
        "subType": "noteOn",
        "typeByte": 153,
        "deltaTime": 0,
        "channel": 9,
        "note": 40,
        "velocity": 127
      },
      {
        "type": "midi",
        "subType": "noteOn",
        "typeByte": 153,
        "deltaTime": 0,
        "channel": 9,
        "note": 42,
        "velocity": 127
      },
      {
        "type": "midi",
        "subType": "noteOff",
        "typeByte": 153,
        "deltaTime": 20,
        "channel": 9,
        "note": 42,
        "velocity": 0
      },
      {
        "type": "midi",
        "subType": "noteOff",
        "typeByte": 153,
        "deltaTime": 3,
        "channel": 9,
        "note": 36,
        "velocity": 0
      },
      {
        "type": "midi",
        "subType": "noteOff",
        "typeByte": 153,
        "deltaTime": 0,
        "channel": 9,
        "note": 61,
        "velocity": 0
      },
      {
        "type": "midi",
        "subType": "noteOn",
        "typeByte": 153,
        "deltaTime": 24,
        "channel": 9,
        "note": 36,
        "velocity": 127
      },
      {
        "type": "midi",
        "subType": "noteOn",
        "typeByte": 153,
        "deltaTime": 0,
        "channel": 9,
        "note": 61,
        "velocity": 127
      },
      {
        "type": "midi",
        "subType": "noteOn",
        "typeByte": 153,
        "deltaTime": 0,
        "channel": 9,
        "note": 42,
        "velocity": 127
      },
      {
        "type": "midi",
        "subType": "noteOff",
        "typeByte": 153,
        "deltaTime": 23,
        "channel": 9,
        "note": 42,
        "velocity": 0
      },
      {
        "type": "midi",
        "subType": "noteOff",
        "typeByte": 153,
        "deltaTime": 0,
        "channel": 9,
        "note": 36,
        "velocity": 0
      },
      {
        "type": "midi",
        "subType": "noteOff",
        "typeByte": 153,
        "deltaTime": 0,
        "channel": 9,
        "note": 61,
        "velocity": 0
      },
      {
        "type": "midi",
        "subType": "noteOff",
        "typeByte": 153,
        "deltaTime": 16,
        "channel": 9,
        "note": 51,
        "velocity": 0
      },
      {
        "type": "midi",
        "subType": "noteOff",
        "typeByte": 153,
        "deltaTime": 2,
        "channel": 9,
        "note": 40,
        "velocity": 0
      },
      {
        "type": "midi",
        "subType": "noteOn",
        "typeByte": 153,
        "deltaTime": 8,
        "channel": 9,
        "note": 38,
        "velocity": 127
      },
      {
        "type": "midi",
        "subType": "noteOn",
        "typeByte": 153,
        "deltaTime": 0,
        "channel": 9,
        "note": 61,
        "velocity": 127
      },
      {
        "type": "midi",
        "subType": "noteOn",
        "typeByte": 153,
        "deltaTime": 0,
        "channel": 9,
        "note": 42,
        "velocity": 127
      },
      {
        "type": "midi",
        "subType": "noteOff",
        "typeByte": 153,
        "deltaTime": 23,
        "channel": 9,
        "note": 42,
        "velocity": 0
      },
      {
        "type": "midi",
        "subType": "noteOff",
        "typeByte": 153,
        "deltaTime": 0,
        "channel": 9,
        "note": 61,
        "velocity": 0
      },
      {
        "type": "midi",
        "subType": "noteOff",
        "typeByte": 153,
        "deltaTime": 0,
        "channel": 9,
        "note": 38,
        "velocity": 0
      },
      {
        "type": "midi",
        "subType": "noteOn",
        "typeByte": 153,
        "deltaTime": 24,
        "channel": 9,
        "note": 61,
        "velocity": 127
      },
      {
        "type": "midi",
        "subType": "noteOn",
        "typeByte": 153,
        "deltaTime": 0,
        "channel": 9,
        "note": 42,
        "velocity": 127
      },
      {
        "type": "midi",
        "subType": "noteOff",
        "typeByte": 153,
        "deltaTime": 23,
        "channel": 9,
        "note": 61,
        "velocity": 0
      },
      {
        "type": "midi",
        "subType": "noteOff",
        "typeByte": 153,
        "deltaTime": 2,
        "channel": 9,
        "note": 42,
        "velocity": 0
      },
      {
        "type": "midi",
        "subType": "noteOn",
        "typeByte": 153,
        "deltaTime": 24,
        "channel": 9,
        "note": 36,
        "velocity": 127
      },
      {
        "type": "midi",
        "subType": "noteOn",
        "typeByte": 153,
        "deltaTime": 0,
        "channel": 9,
        "note": 61,
        "velocity": 127
      },
      {
        "type": "midi",
        "subType": "noteOn",
        "typeByte": 153,
        "deltaTime": 1,
        "channel": 9,
        "note": 42,
        "velocity": 127
      },
      {
        "type": "midi",
        "subType": "noteOff",
        "typeByte": 153,
        "deltaTime": 22,
        "channel": 9,
        "note": 61,
        "velocity": 0
      },
      {
        "type": "midi",
        "subType": "noteOff",
        "typeByte": 153,
        "deltaTime": 0,
        "channel": 9,
        "note": 36,
        "velocity": 0
      },
      {
        "type": "midi",
        "subType": "noteOff",
        "typeByte": 153,
        "deltaTime": 2,
        "channel": 9,
        "note": 42,
        "velocity": 0
      },
      {
        "type": "midi",
        "subType": "noteOn",
        "typeByte": 153,
        "deltaTime": 23,
        "channel": 9,
        "note": 61,
        "velocity": 127
      },
      {
        "type": "midi",
        "subType": "noteOn",
        "typeByte": 153,
        "deltaTime": 0,
        "channel": 9,
        "note": 42,
        "velocity": 127
      },
      {
        "type": "midi",
        "subType": "noteOff",
        "typeByte": 153,
        "deltaTime": 20,
        "channel": 9,
        "note": 42,
        "velocity": 0
      },
      {
        "type": "midi",
        "subType": "noteOff",
        "typeByte": 153,
        "deltaTime": 3,
        "channel": 9,
        "note": 61,
        "velocity": 0
      },
      {
        "type": "midi",
        "subType": "noteOn",
        "typeByte": 153,
        "deltaTime": 25,
        "channel": 9,
        "note": 38,
        "velocity": 127
      },
      {
        "type": "midi",
        "subType": "noteOn",
        "typeByte": 153,
        "deltaTime": 0,
        "channel": 9,
        "note": 61,
        "velocity": 127
      },
      {
        "type": "midi",
        "subType": "noteOn",
        "typeByte": 153,
        "deltaTime": 1,
        "channel": 9,
        "note": 42,
        "velocity": 127
      },
      {
        "type": "midi",
        "subType": "noteOff",
        "typeByte": 153,
        "deltaTime": 21,
        "channel": 9,
        "note": 42,
        "velocity": 0
      },
      {
        "type": "midi",
        "subType": "noteOff",
        "typeByte": 153,
        "deltaTime": 1,
        "channel": 9,
        "note": 61,
        "velocity": 0
      },
      {
        "type": "midi",
        "subType": "noteOff",
        "typeByte": 153,
        "deltaTime": 0,
        "channel": 9,
        "note": 38,
        "velocity": 0
      },
      {
        "type": "midi",
        "subType": "noteOn",
        "typeByte": 153,
        "deltaTime": 25,
        "channel": 9,
        "note": 61,
        "velocity": 127
      },
      {
        "type": "midi",
        "subType": "noteOn",
        "typeByte": 153,
        "deltaTime": 0,
        "channel": 9,
        "note": 42,
        "velocity": 127
      },
      {
        "type": "midi",
        "subType": "noteOff",
        "typeByte": 153,
        "deltaTime": 23,
        "channel": 9,
        "note": 42,
        "velocity": 0
      },
      {
        "type": "midi",
        "subType": "noteOff",
        "typeByte": 153,
        "deltaTime": 0,
        "channel": 9,
        "note": 61,
        "velocity": 0
      },
      {
        "type": "midi",
        "subType": "noteOn",
        "typeByte": 153,
        "deltaTime": 26,
        "channel": 9,
        "note": 36,
        "velocity": 127
      },
      {
        "type": "midi",
        "subType": "noteOn",
        "typeByte": 153,
        "deltaTime": 0,
        "channel": 9,
        "note": 61,
        "velocity": 127
      },
      {
        "type": "midi",
        "subType": "noteOn",
        "typeByte": 153,
        "deltaTime": 0,
        "channel": 9,
        "note": 40,
        "velocity": 127
      },
      {
        "type": "midi",
        "subType": "noteOn",
        "typeByte": 153,
        "deltaTime": 0,
        "channel": 9,
        "note": 51,
        "velocity": 127
      },
      {
        "type": "midi",
        "subType": "noteOn",
        "typeByte": 153,
        "deltaTime": 1,
        "channel": 9,
        "note": 42,
        "velocity": 127
      },
      {
        "type": "midi",
        "subType": "noteOff",
        "typeByte": 153,
        "deltaTime": 22,
        "channel": 9,
        "note": 42,
        "velocity": 0
      },
      {
        "type": "midi",
        "subType": "noteOff",
        "typeByte": 153,
        "deltaTime": 0,
        "channel": 9,
        "note": 36,
        "velocity": 0
      },
      {
        "type": "midi",
        "subType": "noteOff",
        "typeByte": 153,
        "deltaTime": 0,
        "channel": 9,
        "note": 61,
        "velocity": 0
      },
      {
        "type": "midi",
        "subType": "noteOn",
        "typeByte": 153,
        "deltaTime": 24,
        "channel": 9,
        "note": 36,
        "velocity": 127
      },
      {
        "type": "midi",
        "subType": "noteOn",
        "typeByte": 153,
        "deltaTime": 0,
        "channel": 9,
        "note": 61,
        "velocity": 127
      },
      {
        "type": "midi",
        "subType": "noteOn",
        "typeByte": 153,
        "deltaTime": 1,
        "channel": 9,
        "note": 42,
        "velocity": 127
      },
      {
        "type": "midi",
        "subType": "noteOff",
        "typeByte": 153,
        "deltaTime": 22,
        "channel": 9,
        "note": 61,
        "velocity": 0
      },
      {
        "type": "midi",
        "subType": "noteOff",
        "typeByte": 153,
        "deltaTime": 0,
        "channel": 9,
        "note": 36,
        "velocity": 0
      },
      {
        "type": "midi",
        "subType": "noteOff",
        "typeByte": 153,
        "deltaTime": 3,
        "channel": 9,
        "note": 42,
        "velocity": 0
      },
      {
        "type": "midi",
        "subType": "noteOff",
        "typeByte": 153,
        "deltaTime": 23,
        "channel": 9,
        "note": 40,
        "velocity": 0
      },
      {
        "type": "midi",
        "subType": "noteOn",
        "typeByte": 153,
        "deltaTime": 0,
        "channel": 9,
        "note": 38,
        "velocity": 127
      },
      {
        "type": "midi",
        "subType": "noteOn",
        "typeByte": 153,
        "deltaTime": 1,
        "channel": 9,
        "note": 61,
        "velocity": 127
      },
      {
        "type": "midi",
        "subType": "noteOn",
        "typeByte": 153,
        "deltaTime": 0,
        "channel": 9,
        "note": 42,
        "velocity": 127
      },
      {
        "type": "midi",
        "subType": "noteOff",
        "typeByte": 153,
        "deltaTime": 3,
        "channel": 9,
        "note": 51,
        "velocity": 0
      },
      {
        "type": "midi",
        "subType": "noteOff",
        "typeByte": 153,
        "deltaTime": 19,
        "channel": 9,
        "note": 38,
        "velocity": 0
      },
      {
        "type": "midi",
        "subType": "noteOff",
        "typeByte": 153,
        "deltaTime": 0,
        "channel": 9,
        "note": 61,
        "velocity": 0
      },
      {
        "type": "midi",
        "subType": "noteOff",
        "typeByte": 153,
        "deltaTime": 1,
        "channel": 9,
        "note": 42,
        "velocity": 0
      },
      {
        "type": "midi",
        "subType": "noteOn",
        "typeByte": 153,
        "deltaTime": 23,
        "channel": 9,
        "note": 61,
        "velocity": 127
      },
      {
        "type": "midi",
        "subType": "noteOn",
        "typeByte": 153,
        "deltaTime": 0,
        "channel": 9,
        "note": 42,
        "velocity": 127
      },
      {
        "type": "midi",
        "subType": "noteOff",
        "typeByte": 153,
        "deltaTime": 24,
        "channel": 9,
        "note": 61,
        "velocity": 0
      },
      {
        "type": "midi",
        "subType": "noteOff",
        "typeByte": 153,
        "deltaTime": 2,
        "channel": 9,
        "note": 42,
        "velocity": 0
      },
      {
        "type": "midi",
        "subType": "noteOn",
        "typeByte": 153,
        "deltaTime": 23,
        "channel": 9,
        "note": 36,
        "velocity": 127
      },
      {
        "type": "midi",
        "subType": "noteOn",
        "typeByte": 153,
        "deltaTime": 1,
        "channel": 9,
        "note": 61,
        "velocity": 127
      },
      {
        "type": "midi",
        "subType": "noteOn",
        "typeByte": 153,
        "deltaTime": 0,
        "channel": 9,
        "note": 42,
        "velocity": 127
      },
      {
        "type": "midi",
        "subType": "noteOff",
        "typeByte": 153,
        "deltaTime": 23,
        "channel": 9,
        "note": 61,
        "velocity": 0
      },
      {
        "type": "midi",
        "subType": "noteOff",
        "typeByte": 153,
        "deltaTime": 0,
        "channel": 9,
        "note": 36,
        "velocity": 0
      },
      {
        "type": "midi",
        "subType": "noteOff",
        "typeByte": 153,
        "deltaTime": 3,
        "channel": 9,
        "note": 42,
        "velocity": 0
      },
      {
        "type": "midi",
        "subType": "noteOn",
        "typeByte": 153,
        "deltaTime": 21,
        "channel": 9,
        "note": 61,
        "velocity": 127
      },
      {
        "type": "midi",
        "subType": "noteOn",
        "typeByte": 153,
        "deltaTime": 0,
        "channel": 9,
        "note": 42,
        "velocity": 127
      },
      {
        "type": "midi",
        "subType": "noteOff",
        "typeByte": 153,
        "deltaTime": 23,
        "channel": 9,
        "note": 42,
        "velocity": 0
      },
      {
        "type": "midi",
        "subType": "noteOff",
        "typeByte": 153,
        "deltaTime": 0,
        "channel": 9,
        "note": 61,
        "velocity": 0
      },
      {
        "type": "midi",
        "subType": "noteOn",
        "typeByte": 153,
        "deltaTime": 26,
        "channel": 9,
        "note": 38,
        "velocity": 127
      },
      {
        "type": "midi",
        "subType": "noteOn",
        "typeByte": 153,
        "deltaTime": 0,
        "channel": 9,
        "note": 61,
        "velocity": 127
      },
      {
        "type": "midi",
        "subType": "noteOn",
        "typeByte": 153,
        "deltaTime": 0,
        "channel": 9,
        "note": 42,
        "velocity": 127
      },
      {
        "type": "midi",
        "subType": "noteOff",
        "typeByte": 153,
        "deltaTime": 23,
        "channel": 9,
        "note": 42,
        "velocity": 0
      },
      {
        "type": "midi",
        "subType": "noteOff",
        "typeByte": 153,
        "deltaTime": 0,
        "channel": 9,
        "note": 61,
        "velocity": 0
      },
      {
        "type": "midi",
        "subType": "noteOff",
        "typeByte": 153,
        "deltaTime": 0,
        "channel": 9,
        "note": 38,
        "velocity": 0
      },
      {
        "type": "midi",
        "subType": "noteOn",
        "typeByte": 153,
        "deltaTime": 24,
        "channel": 9,
        "note": 61,
        "velocity": 127
      },
      {
        "type": "midi",
        "subType": "noteOn",
        "typeByte": 153,
        "deltaTime": 0,
        "channel": 9,
        "note": 42,
        "velocity": 127
      },
      {
        "type": "midi",
        "subType": "noteOff",
        "typeByte": 153,
        "deltaTime": 23,
        "channel": 9,
        "note": 61,
        "velocity": 0
      },
      {
        "type": "midi",
        "subType": "noteOff",
        "typeByte": 153,
        "deltaTime": 1,
        "channel": 9,
        "note": 42,
        "velocity": 0
      },
      {
        "type": "midi",
        "subType": "noteOn",
        "typeByte": 153,
        "deltaTime": 25,
        "channel": 9,
        "note": 36,
        "velocity": 127
      },
      {
        "type": "midi",
        "subType": "noteOn",
        "typeByte": 153,
        "deltaTime": 0,
        "channel": 9,
        "note": 61,
        "velocity": 127
      },
      {
        "type": "midi",
        "subType": "noteOn",
        "typeByte": 153,
        "deltaTime": 0,
        "channel": 9,
        "note": 51,
        "velocity": 127
      },
      {
        "type": "midi",
        "subType": "noteOn",
        "typeByte": 153,
        "deltaTime": 1,
        "channel": 9,
        "note": 40,
        "velocity": 127
      },
      {
        "type": "midi",
        "subType": "noteOn",
        "typeByte": 153,
        "deltaTime": 0,
        "channel": 9,
        "note": 42,
        "velocity": 127
      },
      {
        "type": "midi",
        "subType": "noteOff",
        "typeByte": 153,
        "deltaTime": 22,
        "channel": 9,
        "note": 61,
        "velocity": 0
      },
      {
        "type": "midi",
        "subType": "noteOff",
        "typeByte": 153,
        "deltaTime": 0,
        "channel": 9,
        "note": 36,
        "velocity": 0
      },
      {
        "type": "midi",
        "subType": "noteOff",
        "typeByte": 153,
        "deltaTime": 1,
        "channel": 9,
        "note": 42,
        "velocity": 0
      },
      {
        "type": "midi",
        "subType": "noteOn",
        "typeByte": 153,
        "deltaTime": 23,
        "channel": 9,
        "note": 36,
        "velocity": 127
      },
      {
        "type": "midi",
        "subType": "noteOn",
        "typeByte": 153,
        "deltaTime": 1,
        "channel": 9,
        "note": 61,
        "velocity": 127
      },
      {
        "type": "midi",
        "subType": "noteOn",
        "typeByte": 153,
        "deltaTime": 0,
        "channel": 9,
        "note": 42,
        "velocity": 127
      },
      {
        "type": "midi",
        "subType": "noteOff",
        "typeByte": 153,
        "deltaTime": 22,
        "channel": 9,
        "note": 61,
        "velocity": 0
      },
      {
        "type": "midi",
        "subType": "noteOff",
        "typeByte": 153,
        "deltaTime": 0,
        "channel": 9,
        "note": 36,
        "velocity": 0
      },
      {
        "type": "midi",
        "subType": "noteOff",
        "typeByte": 153,
        "deltaTime": 2,
        "channel": 9,
        "note": 42,
        "velocity": 0
      },
      {
        "type": "midi",
        "subType": "noteOff",
        "typeByte": 153,
        "deltaTime": 15,
        "channel": 9,
        "note": 51,
        "velocity": 0
      },
      {
        "type": "midi",
        "subType": "noteOff",
        "typeByte": 153,
        "deltaTime": 1,
        "channel": 9,
        "note": 40,
        "velocity": 0
      },
      {
        "type": "midi",
        "subType": "noteOn",
        "typeByte": 153,
        "deltaTime": 8,
        "channel": 9,
        "note": 38,
        "velocity": 127
      },
      {
        "type": "midi",
        "subType": "noteOn",
        "typeByte": 153,
        "deltaTime": 0,
        "channel": 9,
        "note": 61,
        "velocity": 127
      },
      {
        "type": "midi",
        "subType": "noteOn",
        "typeByte": 153,
        "deltaTime": 1,
        "channel": 9,
        "note": 42,
        "velocity": 127
      },
      {
        "type": "midi",
        "subType": "noteOff",
        "typeByte": 153,
        "deltaTime": 22,
        "channel": 9,
        "note": 61,
        "velocity": 0
      },
      {
        "type": "midi",
        "subType": "noteOff",
        "typeByte": 153,
        "deltaTime": 0,
        "channel": 9,
        "note": 38,
        "velocity": 0
      },
      {
        "type": "midi",
        "subType": "noteOff",
        "typeByte": 153,
        "deltaTime": 2,
        "channel": 9,
        "note": 42,
        "velocity": 0
      },
      {
        "type": "midi",
        "subType": "noteOn",
        "typeByte": 153,
        "deltaTime": 23,
        "channel": 9,
        "note": 61,
        "velocity": 127
      },
      {
        "type": "midi",
        "subType": "noteOn",
        "typeByte": 153,
        "deltaTime": 0,
        "channel": 9,
        "note": 42,
        "velocity": 127
      },
      {
        "type": "midi",
        "subType": "noteOff",
        "typeByte": 153,
        "deltaTime": 23,
        "channel": 9,
        "note": 61,
        "velocity": 0
      },
      {
        "type": "midi",
        "subType": "noteOff",
        "typeByte": 153,
        "deltaTime": 2,
        "channel": 9,
        "note": 42,
        "velocity": 0
      },
      {
        "type": "midi",
        "subType": "noteOn",
        "typeByte": 153,
        "deltaTime": 23,
        "channel": 9,
        "note": 36,
        "velocity": 127
      },
      {
        "type": "midi",
        "subType": "noteOn",
        "typeByte": 153,
        "deltaTime": 0,
        "channel": 9,
        "note": 61,
        "velocity": 127
      },
      {
        "type": "midi",
        "subType": "noteOn",
        "typeByte": 153,
        "deltaTime": 1,
        "channel": 9,
        "note": 42,
        "velocity": 127
      },
      {
        "type": "midi",
        "subType": "noteOff",
        "typeByte": 153,
        "deltaTime": 22,
        "channel": 9,
        "note": 61,
        "velocity": 0
      },
      {
        "type": "midi",
        "subType": "noteOff",
        "typeByte": 153,
        "deltaTime": 0,
        "channel": 9,
        "note": 36,
        "velocity": 0
      },
      {
        "type": "midi",
        "subType": "noteOff",
        "typeByte": 153,
        "deltaTime": 2,
        "channel": 9,
        "note": 42,
        "velocity": 0
      },
      {
        "type": "midi",
        "subType": "noteOn",
        "typeByte": 153,
        "deltaTime": 23,
        "channel": 9,
        "note": 61,
        "velocity": 127
      },
      {
        "type": "midi",
        "subType": "noteOn",
        "typeByte": 153,
        "deltaTime": 0,
        "channel": 9,
        "note": 42,
        "velocity": 127
      },
      {
        "type": "midi",
        "subType": "noteOff",
        "typeByte": 153,
        "deltaTime": 23,
        "channel": 9,
        "note": 61,
        "velocity": 0
      },
      {
        "type": "midi",
        "subType": "noteOff",
        "typeByte": 153,
        "deltaTime": 3,
        "channel": 9,
        "note": 42,
        "velocity": 0
      },
      {
        "type": "midi",
        "subType": "noteOn",
        "typeByte": 153,
        "deltaTime": 23,
        "channel": 9,
        "note": 38,
        "velocity": 127
      },
      {
        "type": "midi",
        "subType": "noteOn",
        "typeByte": 153,
        "deltaTime": 0,
        "channel": 9,
        "note": 61,
        "velocity": 127
      },
      {
        "type": "midi",
        "subType": "noteOn",
        "typeByte": 153,
        "deltaTime": 0,
        "channel": 9,
        "note": 42,
        "velocity": 127
      },
      {
        "type": "midi",
        "subType": "noteOff",
        "typeByte": 153,
        "deltaTime": 23,
        "channel": 9,
        "note": 42,
        "velocity": 0
      },
      {
        "type": "midi",
        "subType": "noteOff",
        "typeByte": 153,
        "deltaTime": 0,
        "channel": 9,
        "note": 61,
        "velocity": 0
      },
      {
        "type": "midi",
        "subType": "noteOff",
        "typeByte": 153,
        "deltaTime": 0,
        "channel": 9,
        "note": 38,
        "velocity": 0
      },
      {
        "type": "midi",
        "subType": "noteOn",
        "typeByte": 153,
        "deltaTime": 24,
        "channel": 9,
        "note": 61,
        "velocity": 127
      },
      {
        "type": "midi",
        "subType": "noteOn",
        "typeByte": 153,
        "deltaTime": 0,
        "channel": 9,
        "note": 42,
        "velocity": 127
      },
      {
        "type": "midi",
        "subType": "noteOff",
        "typeByte": 153,
        "deltaTime": 23,
        "channel": 9,
        "note": 42,
        "velocity": 0
      },
      {
        "type": "midi",
        "subType": "noteOff",
        "typeByte": 153,
        "deltaTime": 0,
        "channel": 9,
        "note": 61,
        "velocity": 0
      },
      {
        "type": "midi",
        "subType": "noteOn",
        "typeByte": 153,
        "deltaTime": 26,
        "channel": 9,
        "note": 36,
        "velocity": 127
      },
      {
        "type": "midi",
        "subType": "noteOn",
        "typeByte": 153,
        "deltaTime": 0,
        "channel": 9,
        "note": 61,
        "velocity": 127
      },
      {
        "type": "midi",
        "subType": "noteOn",
        "typeByte": 153,
        "deltaTime": 0,
        "channel": 9,
        "note": 40,
        "velocity": 127
      },
      {
        "type": "midi",
        "subType": "noteOn",
        "typeByte": 153,
        "deltaTime": 1,
        "channel": 9,
        "note": 51,
        "velocity": 127
      },
      {
        "type": "midi",
        "subType": "noteOn",
        "typeByte": 153,
        "deltaTime": 0,
        "channel": 9,
        "note": 42,
        "velocity": 127
      },
      {
        "type": "midi",
        "subType": "noteOff",
        "typeByte": 153,
        "deltaTime": 22,
        "channel": 9,
        "note": 42,
        "velocity": 0
      },
      {
        "type": "midi",
        "subType": "noteOff",
        "typeByte": 153,
        "deltaTime": 0,
        "channel": 9,
        "note": 36,
        "velocity": 0
      },
      {
        "type": "midi",
        "subType": "noteOff",
        "typeByte": 153,
        "deltaTime": 0,
        "channel": 9,
        "note": 61,
        "velocity": 0
      },
      {
        "type": "midi",
        "subType": "noteOn",
        "typeByte": 153,
        "deltaTime": 25,
        "channel": 9,
        "note": 36,
        "velocity": 127
      },
      {
        "type": "midi",
        "subType": "noteOn",
        "typeByte": 153,
        "deltaTime": 0,
        "channel": 9,
        "note": 61,
        "velocity": 127
      },
      {
        "type": "midi",
        "subType": "noteOn",
        "typeByte": 153,
        "deltaTime": 0,
        "channel": 9,
        "note": 42,
        "velocity": 127
      },
      {
        "type": "midi",
        "subType": "noteOff",
        "typeByte": 153,
        "deltaTime": 23,
        "channel": 9,
        "note": 42,
        "velocity": 0
      },
      {
        "type": "midi",
        "subType": "noteOff",
        "typeByte": 153,
        "deltaTime": 0,
        "channel": 9,
        "note": 36,
        "velocity": 0
      },
      {
        "type": "midi",
        "subType": "noteOff",
        "typeByte": 153,
        "deltaTime": 0,
        "channel": 9,
        "note": 61,
        "velocity": 0
      },
      {
        "type": "midi",
        "subType": "noteOff",
        "typeByte": 153,
        "deltaTime": 25,
        "channel": 9,
        "note": 40,
        "velocity": 0
      },
      {
        "type": "midi",
        "subType": "noteOn",
        "typeByte": 153,
        "deltaTime": 1,
        "channel": 9,
        "note": 38,
        "velocity": 127
      },
      {
        "type": "midi",
        "subType": "noteOn",
        "typeByte": 153,
        "deltaTime": 0,
        "channel": 9,
        "note": 61,
        "velocity": 127
      },
      {
        "type": "midi",
        "subType": "noteOn",
        "typeByte": 153,
        "deltaTime": 0,
        "channel": 9,
        "note": 42,
        "velocity": 127
      },
      {
        "type": "midi",
        "subType": "noteOff",
        "typeByte": 153,
        "deltaTime": 4,
        "channel": 9,
        "note": 51,
        "velocity": 0
      },
      {
        "type": "midi",
        "subType": "noteOff",
        "typeByte": 153,
        "deltaTime": 18,
        "channel": 9,
        "note": 38,
        "velocity": 0
      },
      {
        "type": "midi",
        "subType": "noteOff",
        "typeByte": 153,
        "deltaTime": 0,
        "channel": 9,
        "note": 61,
        "velocity": 0
      },
      {
        "type": "midi",
        "subType": "noteOff",
        "typeByte": 153,
        "deltaTime": 2,
        "channel": 9,
        "note": 42,
        "velocity": 0
      },
      {
        "type": "midi",
        "subType": "noteOn",
        "typeByte": 153,
        "deltaTime": 23,
        "channel": 9,
        "note": 61,
        "velocity": 127
      },
      {
        "type": "midi",
        "subType": "noteOn",
        "typeByte": 153,
        "deltaTime": 0,
        "channel": 9,
        "note": 42,
        "velocity": 127
      },
      {
        "type": "midi",
        "subType": "noteOff",
        "typeByte": 153,
        "deltaTime": 23,
        "channel": 9,
        "note": 42,
        "velocity": 0
      },
      {
        "type": "midi",
        "subType": "noteOff",
        "typeByte": 153,
        "deltaTime": 0,
        "channel": 9,
        "note": 61,
        "velocity": 0
      },
      {
        "type": "midi",
        "subType": "noteOn",
        "typeByte": 153,
        "deltaTime": 26,
        "channel": 9,
        "note": 36,
        "velocity": 127
      },
      {
        "type": "midi",
        "subType": "noteOn",
        "typeByte": 153,
        "deltaTime": 0,
        "channel": 9,
        "note": 61,
        "velocity": 127
      },
      {
        "type": "midi",
        "subType": "noteOn",
        "typeByte": 153,
        "deltaTime": 0,
        "channel": 9,
        "note": 42,
        "velocity": 127
      },
      {
        "type": "midi",
        "subType": "noteOff",
        "typeByte": 153,
        "deltaTime": 17,
        "channel": 9,
        "note": 42,
        "velocity": 0
      },
      {
        "type": "midi",
        "subType": "noteOff",
        "typeByte": 153,
        "deltaTime": 6,
        "channel": 9,
        "note": 61,
        "velocity": 0
      },
      {
        "type": "midi",
        "subType": "noteOff",
        "typeByte": 153,
        "deltaTime": 0,
        "channel": 9,
        "note": 36,
        "velocity": 0
      },
      {
        "type": "midi",
        "subType": "noteOn",
        "typeByte": 153,
        "deltaTime": 24,
        "channel": 9,
        "note": 61,
        "velocity": 127
      },
      {
        "type": "midi",
        "subType": "noteOn",
        "typeByte": 153,
        "deltaTime": 0,
        "channel": 9,
        "note": 42,
        "velocity": 127
      },
      {
        "type": "midi",
        "subType": "noteOff",
        "typeByte": 153,
        "deltaTime": 18,
        "channel": 9,
        "note": 42,
        "velocity": 0
      },
      {
        "type": "midi",
        "subType": "noteOff",
        "typeByte": 153,
        "deltaTime": 5,
        "channel": 9,
        "note": 61,
        "velocity": 0
      },
      {
        "type": "midi",
        "subType": "noteOn",
        "typeByte": 153,
        "deltaTime": 26,
        "channel": 9,
        "note": 38,
        "velocity": 127
      },
      {
        "type": "midi",
        "subType": "noteOn",
        "typeByte": 153,
        "deltaTime": 0,
        "channel": 9,
        "note": 61,
        "velocity": 127
      },
      {
        "type": "midi",
        "subType": "noteOn",
        "typeByte": 153,
        "deltaTime": 0,
        "channel": 9,
        "note": 42,
        "velocity": 127
      },
      {
        "type": "midi",
        "subType": "noteOff",
        "typeByte": 153,
        "deltaTime": 20,
        "channel": 9,
        "note": 42,
        "velocity": 0
      },
      {
        "type": "midi",
        "subType": "noteOff",
        "typeByte": 153,
        "deltaTime": 3,
        "channel": 9,
        "note": 61,
        "velocity": 0
      },
      {
        "type": "midi",
        "subType": "noteOff",
        "typeByte": 153,
        "deltaTime": 0,
        "channel": 9,
        "note": 38,
        "velocity": 0
      },
      {
        "type": "midi",
        "subType": "noteOn",
        "typeByte": 153,
        "deltaTime": 24,
        "channel": 9,
        "note": 61,
        "velocity": 127
      },
      {
        "type": "midi",
        "subType": "noteOn",
        "typeByte": 153,
        "deltaTime": 0,
        "channel": 9,
        "note": 42,
        "velocity": 127
      },
      {
        "type": "midi",
        "subType": "noteOff",
        "typeByte": 153,
        "deltaTime": 15,
        "channel": 9,
        "note": 42,
        "velocity": 0
      },
      {
        "type": "midi",
        "subType": "noteOff",
        "typeByte": 153,
        "deltaTime": 8,
        "channel": 9,
        "note": 61,
        "velocity": 0
      },
      {
        "type": "midi",
        "subType": "noteOn",
        "typeByte": 153,
        "deltaTime": 26,
        "channel": 9,
        "note": 36,
        "velocity": 127
      },
      {
        "type": "midi",
        "subType": "noteOn",
        "typeByte": 153,
        "deltaTime": 0,
        "channel": 9,
        "note": 61,
        "velocity": 127
      },
      {
        "type": "midi",
        "subType": "noteOn",
        "typeByte": 153,
        "deltaTime": 1,
        "channel": 9,
        "note": 51,
        "velocity": 127
      },
      {
        "type": "midi",
        "subType": "noteOn",
        "typeByte": 153,
        "deltaTime": 0,
        "channel": 9,
        "note": 40,
        "velocity": 127
      },
      {
        "type": "midi",
        "subType": "noteOn",
        "typeByte": 153,
        "deltaTime": 0,
        "channel": 9,
        "note": 42,
        "velocity": 127
      },
      {
        "type": "midi",
        "subType": "noteOff",
        "typeByte": 153,
        "deltaTime": 20,
        "channel": 9,
        "note": 42,
        "velocity": 0
      },
      {
        "type": "midi",
        "subType": "noteOff",
        "typeByte": 153,
        "deltaTime": 2,
        "channel": 9,
        "note": 36,
        "velocity": 0
      },
      {
        "type": "midi",
        "subType": "noteOff",
        "typeByte": 153,
        "deltaTime": 0,
        "channel": 9,
        "note": 61,
        "velocity": 0
      },
      {
        "type": "midi",
        "subType": "noteOn",
        "typeByte": 153,
        "deltaTime": 25,
        "channel": 9,
        "note": 36,
        "velocity": 127
      },
      {
        "type": "midi",
        "subType": "noteOn",
        "typeByte": 153,
        "deltaTime": 0,
        "channel": 9,
        "note": 61,
        "velocity": 127
      },
      {
        "type": "midi",
        "subType": "noteOn",
        "typeByte": 153,
        "deltaTime": 0,
        "channel": 9,
        "note": 42,
        "velocity": 127
      },
      {
        "type": "midi",
        "subType": "noteOff",
        "typeByte": 153,
        "deltaTime": 23,
        "channel": 9,
        "note": 42,
        "velocity": 0
      },
      {
        "type": "midi",
        "subType": "noteOff",
        "typeByte": 153,
        "deltaTime": 0,
        "channel": 9,
        "note": 36,
        "velocity": 0
      },
      {
        "type": "midi",
        "subType": "noteOff",
        "typeByte": 153,
        "deltaTime": 0,
        "channel": 9,
        "note": 61,
        "velocity": 0
      },
      {
        "type": "midi",
        "subType": "noteOff",
        "typeByte": 153,
        "deltaTime": 16,
        "channel": 9,
        "note": 51,
        "velocity": 0
      },
      {
        "type": "midi",
        "subType": "noteOff",
        "typeByte": 153,
        "deltaTime": 1,
        "channel": 9,
        "note": 40,
        "velocity": 0
      },
      {
        "type": "midi",
        "subType": "noteOn",
        "typeByte": 153,
        "deltaTime": 9,
        "channel": 9,
        "note": 38,
        "velocity": 127
      },
      {
        "type": "midi",
        "subType": "noteOn",
        "typeByte": 153,
        "deltaTime": 0,
        "channel": 9,
        "note": 61,
        "velocity": 127
      },
      {
        "type": "midi",
        "subType": "noteOn",
        "typeByte": 153,
        "deltaTime": 0,
        "channel": 9,
        "note": 42,
        "velocity": 127
      },
      {
        "type": "midi",
        "subType": "noteOff",
        "typeByte": 153,
        "deltaTime": 23,
        "channel": 9,
        "note": 42,
        "velocity": 0
      },
      {
        "type": "midi",
        "subType": "noteOff",
        "typeByte": 153,
        "deltaTime": 0,
        "channel": 9,
        "note": 61,
        "velocity": 0
      },
      {
        "type": "midi",
        "subType": "noteOff",
        "typeByte": 153,
        "deltaTime": 0,
        "channel": 9,
        "note": 38,
        "velocity": 0
      },
      {
        "type": "midi",
        "subType": "noteOn",
        "typeByte": 153,
        "deltaTime": 24,
        "channel": 9,
        "note": 61,
        "velocity": 127
      },
      {
        "type": "midi",
        "subType": "noteOn",
        "typeByte": 153,
        "deltaTime": 0,
        "channel": 9,
        "note": 42,
        "velocity": 127
      },
      {
        "type": "midi",
        "subType": "noteOff",
        "typeByte": 153,
        "deltaTime": 23,
        "channel": 9,
        "note": 61,
        "velocity": 0
      },
      {
        "type": "midi",
        "subType": "noteOff",
        "typeByte": 153,
        "deltaTime": 1,
        "channel": 9,
        "note": 42,
        "velocity": 0
      },
      {
        "type": "midi",
        "subType": "noteOn",
        "typeByte": 153,
        "deltaTime": 25,
        "channel": 9,
        "note": 36,
        "velocity": 127
      },
      {
        "type": "midi",
        "subType": "noteOn",
        "typeByte": 153,
        "deltaTime": 0,
        "channel": 9,
        "note": 61,
        "velocity": 127
      },
      {
        "type": "midi",
        "subType": "noteOn",
        "typeByte": 153,
        "deltaTime": 0,
        "channel": 9,
        "note": 42,
        "velocity": 127
      },
      {
        "type": "midi",
        "subType": "noteOff",
        "typeByte": 153,
        "deltaTime": 23,
        "channel": 9,
        "note": 61,
        "velocity": 0
      },
      {
        "type": "midi",
        "subType": "noteOff",
        "typeByte": 153,
        "deltaTime": 0,
        "channel": 9,
        "note": 36,
        "velocity": 0
      },
      {
        "type": "midi",
        "subType": "noteOff",
        "typeByte": 153,
        "deltaTime": 1,
        "channel": 9,
        "note": 42,
        "velocity": 0
      },
      {
        "type": "midi",
        "subType": "noteOn",
        "typeByte": 153,
        "deltaTime": 23,
        "channel": 9,
        "note": 61,
        "velocity": 127
      },
      {
        "type": "midi",
        "subType": "noteOn",
        "typeByte": 153,
        "deltaTime": 1,
        "channel": 9,
        "note": 42,
        "velocity": 127
      },
      {
        "type": "midi",
        "subType": "noteOff",
        "typeByte": 153,
        "deltaTime": 20,
        "channel": 9,
        "note": 42,
        "velocity": 0
      },
      {
        "type": "midi",
        "subType": "noteOff",
        "typeByte": 153,
        "deltaTime": 2,
        "channel": 9,
        "note": 61,
        "velocity": 0
      },
      {
        "type": "midi",
        "subType": "noteOn",
        "typeByte": 153,
        "deltaTime": 26,
        "channel": 9,
        "note": 38,
        "velocity": 127
      },
      {
        "type": "midi",
        "subType": "noteOn",
        "typeByte": 153,
        "deltaTime": 0,
        "channel": 9,
        "note": 61,
        "velocity": 127
      },
      {
        "type": "midi",
        "subType": "noteOn",
        "typeByte": 153,
        "deltaTime": 1,
        "channel": 9,
        "note": 42,
        "velocity": 127
      },
      {
        "type": "midi",
        "subType": "noteOff",
        "typeByte": 153,
        "deltaTime": 21,
        "channel": 9,
        "note": 42,
        "velocity": 0
      },
      {
        "type": "midi",
        "subType": "noteOff",
        "typeByte": 153,
        "deltaTime": 1,
        "channel": 9,
        "note": 61,
        "velocity": 0
      },
      {
        "type": "midi",
        "subType": "noteOff",
        "typeByte": 153,
        "deltaTime": 0,
        "channel": 9,
        "note": 38,
        "velocity": 0
      },
      {
        "type": "midi",
        "subType": "noteOn",
        "typeByte": 153,
        "deltaTime": 25,
        "channel": 9,
        "note": 61,
        "velocity": 127
      },
      {
        "type": "midi",
        "subType": "noteOn",
        "typeByte": 153,
        "deltaTime": 0,
        "channel": 9,
        "note": 42,
        "velocity": 127
      },
      {
        "type": "midi",
        "subType": "noteOff",
        "typeByte": 153,
        "deltaTime": 23,
        "channel": 9,
        "note": 42,
        "velocity": 0
      },
      {
        "type": "midi",
        "subType": "noteOff",
        "typeByte": 153,
        "deltaTime": 0,
        "channel": 9,
        "note": 61,
        "velocity": 0
      },
      {
        "type": "midi",
        "subType": "noteOn",
        "typeByte": 153,
        "deltaTime": 25,
        "channel": 9,
        "note": 36,
        "velocity": 127
      },
      {
        "type": "midi",
        "subType": "noteOn",
        "typeByte": 153,
        "deltaTime": 0,
        "channel": 9,
        "note": 61,
        "velocity": 127
      },
      {
        "type": "midi",
        "subType": "noteOn",
        "typeByte": 153,
        "deltaTime": 1,
        "channel": 9,
        "note": 40,
        "velocity": 127
      },
      {
        "type": "midi",
        "subType": "noteOn",
        "typeByte": 153,
        "deltaTime": 0,
        "channel": 9,
        "note": 51,
        "velocity": 127
      },
      {
        "type": "midi",
        "subType": "noteOn",
        "typeByte": 153,
        "deltaTime": 0,
        "channel": 9,
        "note": 42,
        "velocity": 127
      },
      {
        "type": "midi",
        "subType": "noteOff",
        "typeByte": 153,
        "deltaTime": 22,
        "channel": 9,
        "note": 42,
        "velocity": 0
      },
      {
        "type": "midi",
        "subType": "noteOff",
        "typeByte": 153,
        "deltaTime": 0,
        "channel": 9,
        "note": 36,
        "velocity": 0
      },
      {
        "type": "midi",
        "subType": "noteOff",
        "typeByte": 153,
        "deltaTime": 1,
        "channel": 9,
        "note": 61,
        "velocity": 0
      },
      {
        "type": "midi",
        "subType": "noteOn",
        "typeByte": 153,
        "deltaTime": 24,
        "channel": 9,
        "note": 36,
        "velocity": 127
      },
      {
        "type": "midi",
        "subType": "noteOn",
        "typeByte": 153,
        "deltaTime": 0,
        "channel": 9,
        "note": 61,
        "velocity": 127
      },
      {
        "type": "midi",
        "subType": "noteOn",
        "typeByte": 153,
        "deltaTime": 0,
        "channel": 9,
        "note": 42,
        "velocity": 127
      },
      {
        "type": "midi",
        "subType": "noteOff",
        "typeByte": 153,
        "deltaTime": 23,
        "channel": 9,
        "note": 61,
        "velocity": 0
      },
      {
        "type": "midi",
        "subType": "noteOff",
        "typeByte": 153,
        "deltaTime": 0,
        "channel": 9,
        "note": 36,
        "velocity": 0
      },
      {
        "type": "midi",
        "subType": "noteOff",
        "typeByte": 153,
        "deltaTime": 3,
        "channel": 9,
        "note": 42,
        "velocity": 0
      },
      {
        "type": "midi",
        "subType": "noteOff",
        "typeByte": 153,
        "deltaTime": 23,
        "channel": 9,
        "note": 40,
        "velocity": 0
      },
      {
        "type": "midi",
        "subType": "noteOn",
        "typeByte": 153,
        "deltaTime": 0,
        "channel": 9,
        "note": 38,
        "velocity": 127
      },
      {
        "type": "midi",
        "subType": "noteOn",
        "typeByte": 153,
        "deltaTime": 0,
        "channel": 9,
        "note": 61,
        "velocity": 127
      },
      {
        "type": "midi",
        "subType": "noteOn",
        "typeByte": 153,
        "deltaTime": 0,
        "channel": 9,
        "note": 42,
        "velocity": 127
      },
      {
        "type": "midi",
        "subType": "noteOff",
        "typeByte": 153,
        "deltaTime": 4,
        "channel": 9,
        "note": 51,
        "velocity": 0
      },
      {
        "type": "midi",
        "subType": "noteOff",
        "typeByte": 153,
        "deltaTime": 19,
        "channel": 9,
        "note": 38,
        "velocity": 0
      },
      {
        "type": "midi",
        "subType": "noteOff",
        "typeByte": 153,
        "deltaTime": 0,
        "channel": 9,
        "note": 61,
        "velocity": 0
      },
      {
        "type": "midi",
        "subType": "noteOff",
        "typeByte": 153,
        "deltaTime": 1,
        "channel": 9,
        "note": 42,
        "velocity": 0
      },
      {
        "type": "midi",
        "subType": "noteOn",
        "typeByte": 153,
        "deltaTime": 23,
        "channel": 9,
        "note": 61,
        "velocity": 127
      },
      {
        "type": "midi",
        "subType": "noteOn",
        "typeByte": 153,
        "deltaTime": 0,
        "channel": 9,
        "note": 42,
        "velocity": 127
      },
      {
        "type": "midi",
        "subType": "noteOff",
        "typeByte": 153,
        "deltaTime": 23,
        "channel": 9,
        "note": 61,
        "velocity": 0
      },
      {
        "type": "midi",
        "subType": "noteOff",
        "typeByte": 153,
        "deltaTime": 3,
        "channel": 9,
        "note": 42,
        "velocity": 0
      },
      {
        "type": "midi",
        "subType": "noteOn",
        "typeByte": 153,
        "deltaTime": 23,
        "channel": 9,
        "note": 36,
        "velocity": 127
      },
      {
        "type": "midi",
        "subType": "noteOn",
        "typeByte": 153,
        "deltaTime": 0,
        "channel": 9,
        "note": 61,
        "velocity": 127
      },
      {
        "type": "midi",
        "subType": "noteOn",
        "typeByte": 153,
        "deltaTime": 0,
        "channel": 9,
        "note": 42,
        "velocity": 127
      },
      {
        "type": "midi",
        "subType": "noteOff",
        "typeByte": 153,
        "deltaTime": 23,
        "channel": 9,
        "note": 61,
        "velocity": 0
      },
      {
        "type": "midi",
        "subType": "noteOff",
        "typeByte": 153,
        "deltaTime": 0,
        "channel": 9,
        "note": 36,
        "velocity": 0
      },
      {
        "type": "midi",
        "subType": "noteOff",
        "typeByte": 153,
        "deltaTime": 4,
        "channel": 9,
        "note": 42,
        "velocity": 0
      },
      {
        "type": "midi",
        "subType": "noteOn",
        "typeByte": 153,
        "deltaTime": 20,
        "channel": 9,
        "note": 61,
        "velocity": 127
      },
      {
        "type": "midi",
        "subType": "noteOn",
        "typeByte": 153,
        "deltaTime": 0,
        "channel": 9,
        "note": 42,
        "velocity": 127
      },
      {
        "type": "midi",
        "subType": "noteOff",
        "typeByte": 153,
        "deltaTime": 24,
        "channel": 9,
        "note": 42,
        "velocity": 0
      },
      {
        "type": "midi",
        "subType": "noteOff",
        "typeByte": 153,
        "deltaTime": 0,
        "channel": 9,
        "note": 61,
        "velocity": 0
      },
      {
        "type": "midi",
        "subType": "noteOn",
        "typeByte": 153,
        "deltaTime": 25,
        "channel": 9,
        "note": 38,
        "velocity": 127
      },
      {
        "type": "midi",
        "subType": "noteOn",
        "typeByte": 153,
        "deltaTime": 1,
        "channel": 9,
        "note": 61,
        "velocity": 127
      },
      {
        "type": "midi",
        "subType": "noteOn",
        "typeByte": 153,
        "deltaTime": 0,
        "channel": 9,
        "note": 42,
        "velocity": 127
      },
      {
        "type": "midi",
        "subType": "noteOff",
        "typeByte": 153,
        "deltaTime": 22,
        "channel": 9,
        "note": 42,
        "velocity": 0
      },
      {
        "type": "midi",
        "subType": "noteOff",
        "typeByte": 153,
        "deltaTime": 0,
        "channel": 9,
        "note": 38,
        "velocity": 0
      },
      {
        "type": "midi",
        "subType": "noteOff",
        "typeByte": 153,
        "deltaTime": 1,
        "channel": 9,
        "note": 61,
        "velocity": 0
      },
      {
        "type": "midi",
        "subType": "noteOn",
        "typeByte": 153,
        "deltaTime": 24,
        "channel": 9,
        "note": 61,
        "velocity": 127
      },
      {
        "type": "midi",
        "subType": "noteOn",
        "typeByte": 153,
        "deltaTime": 0,
        "channel": 9,
        "note": 42,
        "velocity": 127
      },
      {
        "type": "midi",
        "subType": "noteOff",
        "typeByte": 153,
        "deltaTime": 23,
        "channel": 9,
        "note": 61,
        "velocity": 0
      },
      {
        "type": "midi",
        "subType": "noteOff",
        "typeByte": 153,
        "deltaTime": 1,
        "channel": 9,
        "note": 42,
        "velocity": 0
      },
      {
        "type": "midi",
        "subType": "noteOn",
        "typeByte": 153,
        "deltaTime": 25,
        "channel": 9,
        "note": 36,
        "velocity": 127
      },
      {
        "type": "midi",
        "subType": "noteOn",
        "typeByte": 153,
        "deltaTime": 0,
        "channel": 9,
        "note": 61,
        "velocity": 127
      },
      {
        "type": "midi",
        "subType": "noteOn",
        "typeByte": 153,
        "deltaTime": 0,
        "channel": 9,
        "note": 51,
        "velocity": 127
      },
      {
        "type": "midi",
        "subType": "noteOn",
        "typeByte": 153,
        "deltaTime": 0,
        "channel": 9,
        "note": 40,
        "velocity": 127
      },
      {
        "type": "midi",
        "subType": "noteOn",
        "typeByte": 153,
        "deltaTime": 1,
        "channel": 9,
        "note": 42,
        "velocity": 127
      },
      {
        "type": "midi",
        "subType": "noteOff",
        "typeByte": 153,
        "deltaTime": 22,
        "channel": 9,
        "note": 61,
        "velocity": 0
      },
      {
        "type": "midi",
        "subType": "noteOff",
        "typeByte": 153,
        "deltaTime": 0,
        "channel": 9,
        "note": 36,
        "velocity": 0
      },
      {
        "type": "midi",
        "subType": "noteOff",
        "typeByte": 153,
        "deltaTime": 1,
        "channel": 9,
        "note": 42,
        "velocity": 0
      },
      {
        "type": "midi",
        "subType": "noteOn",
        "typeByte": 153,
        "deltaTime": 23,
        "channel": 9,
        "note": 36,
        "velocity": 127
      },
      {
        "type": "midi",
        "subType": "noteOn",
        "typeByte": 153,
        "deltaTime": 0,
        "channel": 9,
        "note": 61,
        "velocity": 127
      },
      {
        "type": "midi",
        "subType": "noteOn",
        "typeByte": 153,
        "deltaTime": 1,
        "channel": 9,
        "note": 42,
        "velocity": 127
      },
      {
        "type": "midi",
        "subType": "noteOff",
        "typeByte": 153,
        "deltaTime": 22,
        "channel": 9,
        "note": 61,
        "velocity": 0
      },
      {
        "type": "midi",
        "subType": "noteOff",
        "typeByte": 153,
        "deltaTime": 0,
        "channel": 9,
        "note": 36,
        "velocity": 0
      },
      {
        "type": "midi",
        "subType": "noteOff",
        "typeByte": 153,
        "deltaTime": 1,
        "channel": 9,
        "note": 42,
        "velocity": 0
      },
      {
        "type": "midi",
        "subType": "noteOff",
        "typeByte": 153,
        "deltaTime": 15,
        "channel": 9,
        "note": 51,
        "velocity": 0
      },
      {
        "type": "midi",
        "subType": "noteOff",
        "typeByte": 153,
        "deltaTime": 2,
        "channel": 9,
        "note": 40,
        "velocity": 0
      },
      {
        "type": "midi",
        "subType": "noteOn",
        "typeByte": 153,
        "deltaTime": 8,
        "channel": 9,
        "note": 38,
        "velocity": 127
      },
      {
        "type": "midi",
        "subType": "noteOn",
        "typeByte": 153,
        "deltaTime": 0,
        "channel": 9,
        "note": 61,
        "velocity": 127
      },
      {
        "type": "midi",
        "subType": "noteOn",
        "typeByte": 153,
        "deltaTime": 0,
        "channel": 9,
        "note": 42,
        "velocity": 127
      },
      {
        "type": "midi",
        "subType": "noteOff",
        "typeByte": 153,
        "deltaTime": 23,
        "channel": 9,
        "note": 61,
        "velocity": 0
      },
      {
        "type": "midi",
        "subType": "noteOff",
        "typeByte": 153,
        "deltaTime": 0,
        "channel": 9,
        "note": 38,
        "velocity": 0
      },
      {
        "type": "midi",
        "subType": "noteOff",
        "typeByte": 153,
        "deltaTime": 1,
        "channel": 9,
        "note": 42,
        "velocity": 0
      },
      {
        "type": "midi",
        "subType": "noteOn",
        "typeByte": 153,
        "deltaTime": 23,
        "channel": 9,
        "note": 61,
        "velocity": 127
      },
      {
        "type": "midi",
        "subType": "noteOn",
        "typeByte": 153,
        "deltaTime": 1,
        "channel": 9,
        "note": 42,
        "velocity": 127
      },
      {
        "type": "midi",
        "subType": "noteOff",
        "typeByte": 153,
        "deltaTime": 22,
        "channel": 9,
        "note": 61,
        "velocity": 0
      },
      {
        "type": "midi",
        "subType": "noteOff",
        "typeByte": 153,
        "deltaTime": 3,
        "channel": 9,
        "note": 42,
        "velocity": 0
      },
      {
        "type": "midi",
        "subType": "noteOn",
        "typeByte": 153,
        "deltaTime": 23,
        "channel": 9,
        "note": 36,
        "velocity": 127
      },
      {
        "type": "midi",
        "subType": "noteOn",
        "typeByte": 153,
        "deltaTime": 0,
        "channel": 9,
        "note": 61,
        "velocity": 127
      },
      {
        "type": "midi",
        "subType": "noteOn",
        "typeByte": 153,
        "deltaTime": 1,
        "channel": 9,
        "note": 42,
        "velocity": 127
      },
      {
        "type": "midi",
        "subType": "noteOff",
        "typeByte": 153,
        "deltaTime": 22,
        "channel": 9,
        "note": 61,
        "velocity": 0
      },
      {
        "type": "midi",
        "subType": "noteOff",
        "typeByte": 153,
        "deltaTime": 0,
        "channel": 9,
        "note": 36,
        "velocity": 0
      },
      {
        "type": "midi",
        "subType": "noteOff",
        "typeByte": 153,
        "deltaTime": 2,
        "channel": 9,
        "note": 42,
        "velocity": 0
      },
      {
        "type": "midi",
        "subType": "noteOn",
        "typeByte": 153,
        "deltaTime": 23,
        "channel": 9,
        "note": 61,
        "velocity": 127
      },
      {
        "type": "midi",
        "subType": "noteOn",
        "typeByte": 153,
        "deltaTime": 0,
        "channel": 9,
        "note": 42,
        "velocity": 127
      },
      {
        "type": "midi",
        "subType": "noteOff",
        "typeByte": 153,
        "deltaTime": 23,
        "channel": 9,
        "note": 61,
        "velocity": 0
      },
      {
        "type": "midi",
        "subType": "noteOff",
        "typeByte": 153,
        "deltaTime": 4,
        "channel": 9,
        "note": 42,
        "velocity": 0
      },
      {
        "type": "midi",
        "subType": "noteOn",
        "typeByte": 153,
        "deltaTime": 21,
        "channel": 9,
        "note": 38,
        "velocity": 127
      },
      {
        "type": "midi",
        "subType": "noteOn",
        "typeByte": 153,
        "deltaTime": 0,
        "channel": 9,
        "note": 61,
        "velocity": 127
      },
      {
        "type": "midi",
        "subType": "noteOn",
        "typeByte": 153,
        "deltaTime": 1,
        "channel": 9,
        "note": 42,
        "velocity": 127
      },
      {
        "type": "midi",
        "subType": "noteOff",
        "typeByte": 153,
        "deltaTime": 23,
        "channel": 9,
        "note": 42,
        "velocity": 0
      },
      {
        "type": "midi",
        "subType": "noteOff",
        "typeByte": 153,
        "deltaTime": 0,
        "channel": 9,
        "note": 61,
        "velocity": 0
      },
      {
        "type": "midi",
        "subType": "noteOff",
        "typeByte": 153,
        "deltaTime": 0,
        "channel": 9,
        "note": 38,
        "velocity": 0
      },
      {
        "type": "midi",
        "subType": "noteOn",
        "typeByte": 153,
        "deltaTime": 24,
        "channel": 9,
        "note": 61,
        "velocity": 127
      },
      {
        "type": "midi",
        "subType": "noteOn",
        "typeByte": 153,
        "deltaTime": 0,
        "channel": 9,
        "note": 42,
        "velocity": 127
      },
      {
        "type": "midi",
        "subType": "noteOff",
        "typeByte": 153,
        "deltaTime": 23,
        "channel": 9,
        "note": 42,
        "velocity": 0
      },
      {
        "type": "midi",
        "subType": "noteOff",
        "typeByte": 153,
        "deltaTime": 0,
        "channel": 9,
        "note": 61,
        "velocity": 0
      },
      {
        "type": "midi",
        "subType": "noteOn",
        "typeByte": 153,
        "deltaTime": 26,
        "channel": 9,
        "note": 36,
        "velocity": 127
      },
      {
        "type": "midi",
        "subType": "noteOn",
        "typeByte": 153,
        "deltaTime": 0,
        "channel": 9,
        "note": 61,
        "velocity": 127
      },
      {
        "type": "midi",
        "subType": "noteOn",
        "typeByte": 153,
        "deltaTime": 0,
        "channel": 9,
        "note": 40,
        "velocity": 127
      },
      {
        "type": "midi",
        "subType": "noteOn",
        "typeByte": 153,
        "deltaTime": 0,
        "channel": 9,
        "note": 51,
        "velocity": 127
      },
      {
        "type": "midi",
        "subType": "noteOn",
        "typeByte": 153,
        "deltaTime": 1,
        "channel": 9,
        "note": 42,
        "velocity": 127
      },
      {
        "type": "midi",
        "subType": "noteOff",
        "typeByte": 153,
        "deltaTime": 22,
        "channel": 9,
        "note": 42,
        "velocity": 0
      },
      {
        "type": "midi",
        "subType": "noteOff",
        "typeByte": 153,
        "deltaTime": 0,
        "channel": 9,
        "note": 36,
        "velocity": 0
      },
      {
        "type": "midi",
        "subType": "noteOff",
        "typeByte": 153,
        "deltaTime": 0,
        "channel": 9,
        "note": 61,
        "velocity": 0
      },
      {
        "type": "midi",
        "subType": "noteOn",
        "typeByte": 153,
        "deltaTime": 24,
        "channel": 9,
        "note": 36,
        "velocity": 127
      },
      {
        "type": "midi",
        "subType": "noteOn",
        "typeByte": 153,
        "deltaTime": 0,
        "channel": 9,
        "note": 61,
        "velocity": 127
      },
      {
        "type": "midi",
        "subType": "noteOn",
        "typeByte": 153,
        "deltaTime": 1,
        "channel": 9,
        "note": 42,
        "velocity": 127
      },
      {
        "type": "midi",
        "subType": "noteOff",
        "typeByte": 153,
        "deltaTime": 22,
        "channel": 9,
        "note": 42,
        "velocity": 0
      },
      {
        "type": "midi",
        "subType": "noteOff",
        "typeByte": 153,
        "deltaTime": 1,
        "channel": 9,
        "note": 36,
        "velocity": 0
      },
      {
        "type": "midi",
        "subType": "noteOff",
        "typeByte": 153,
        "deltaTime": 0,
        "channel": 9,
        "note": 61,
        "velocity": 0
      },
      {
        "type": "midi",
        "subType": "noteOff",
        "typeByte": 153,
        "deltaTime": 25,
        "channel": 9,
        "note": 40,
        "velocity": 0
      },
      {
        "type": "midi",
        "subType": "noteOn",
        "typeByte": 153,
        "deltaTime": 0,
        "channel": 9,
        "note": 38,
        "velocity": 127
      },
      {
        "type": "midi",
        "subType": "noteOn",
        "typeByte": 153,
        "deltaTime": 1,
        "channel": 9,
        "note": 61,
        "velocity": 127
      },
      {
        "type": "midi",
        "subType": "noteOn",
        "typeByte": 153,
        "deltaTime": 0,
        "channel": 9,
        "note": 42,
        "velocity": 127
      },
      {
        "type": "midi",
        "subType": "noteOff",
        "typeByte": 153,
        "deltaTime": 3,
        "channel": 9,
        "note": 51,
        "velocity": 0
      },
      {
        "type": "midi",
        "subType": "noteOff",
        "typeByte": 153,
        "deltaTime": 19,
        "channel": 9,
        "note": 38,
        "velocity": 0
      },
      {
        "type": "midi",
        "subType": "noteOff",
        "typeByte": 153,
        "deltaTime": 0,
        "channel": 9,
        "note": 61,
        "velocity": 0
      },
      {
        "type": "midi",
        "subType": "noteOff",
        "typeByte": 153,
        "deltaTime": 1,
        "channel": 9,
        "note": 42,
        "velocity": 0
      },
      {
        "type": "midi",
        "subType": "noteOn",
        "typeByte": 153,
        "deltaTime": 24,
        "channel": 9,
        "note": 61,
        "velocity": 127
      },
      {
        "type": "midi",
        "subType": "noteOn",
        "typeByte": 153,
        "deltaTime": 0,
        "channel": 9,
        "note": 42,
        "velocity": 127
      },
      {
        "type": "midi",
        "subType": "noteOff",
        "typeByte": 153,
        "deltaTime": 23,
        "channel": 9,
        "note": 42,
        "velocity": 0
      },
      {
        "type": "midi",
        "subType": "noteOff",
        "typeByte": 153,
        "deltaTime": 0,
        "channel": 9,
        "note": 61,
        "velocity": 0
      },
      {
        "type": "midi",
        "subType": "noteOn",
        "typeByte": 153,
        "deltaTime": 25,
        "channel": 9,
        "note": 36,
        "velocity": 127
      },
      {
        "type": "midi",
        "subType": "noteOn",
        "typeByte": 153,
        "deltaTime": 1,
        "channel": 9,
        "note": 61,
        "velocity": 127
      },
      {
        "type": "midi",
        "subType": "noteOn",
        "typeByte": 153,
        "deltaTime": 0,
        "channel": 9,
        "note": 42,
        "velocity": 127
      },
      {
        "type": "midi",
        "subType": "noteOff",
        "typeByte": 153,
        "deltaTime": 17,
        "channel": 9,
        "note": 42,
        "velocity": 0
      },
      {
        "type": "midi",
        "subType": "noteOff",
        "typeByte": 153,
        "deltaTime": 5,
        "channel": 9,
        "note": 36,
        "velocity": 0
      },
      {
        "type": "midi",
        "subType": "noteOff",
        "typeByte": 153,
        "deltaTime": 1,
        "channel": 9,
        "note": 61,
        "velocity": 0
      },
      {
        "type": "midi",
        "subType": "noteOn",
        "typeByte": 153,
        "deltaTime": 24,
        "channel": 9,
        "note": 61,
        "velocity": 127
      },
      {
        "type": "midi",
        "subType": "noteOn",
        "typeByte": 153,
        "deltaTime": 0,
        "channel": 9,
        "note": 42,
        "velocity": 127
      },
      {
        "type": "midi",
        "subType": "noteOff",
        "typeByte": 153,
        "deltaTime": 17,
        "channel": 9,
        "note": 42,
        "velocity": 0
      },
      {
        "type": "midi",
        "subType": "noteOff",
        "typeByte": 153,
        "deltaTime": 6,
        "channel": 9,
        "note": 61,
        "velocity": 0
      },
      {
        "type": "midi",
        "subType": "noteOn",
        "typeByte": 153,
        "deltaTime": 26,
        "channel": 9,
        "note": 38,
        "velocity": 127
      },
      {
        "type": "midi",
        "subType": "noteOn",
        "typeByte": 153,
        "deltaTime": 0,
        "channel": 9,
        "note": 61,
        "velocity": 127
      },
      {
        "type": "midi",
        "subType": "noteOn",
        "typeByte": 153,
        "deltaTime": 0,
        "channel": 9,
        "note": 42,
        "velocity": 127
      },
      {
        "type": "midi",
        "subType": "noteOff",
        "typeByte": 153,
        "deltaTime": 20,
        "channel": 9,
        "note": 42,
        "velocity": 0
      },
      {
        "type": "midi",
        "subType": "noteOff",
        "typeByte": 153,
        "deltaTime": 3,
        "channel": 9,
        "note": 61,
        "velocity": 0
      },
      {
        "type": "midi",
        "subType": "noteOff",
        "typeByte": 153,
        "deltaTime": 0,
        "channel": 9,
        "note": 38,
        "velocity": 0
      },
      {
        "type": "midi",
        "subType": "noteOn",
        "typeByte": 153,
        "deltaTime": 24,
        "channel": 9,
        "note": 61,
        "velocity": 127
      },
      {
        "type": "midi",
        "subType": "noteOn",
        "typeByte": 153,
        "deltaTime": 0,
        "channel": 9,
        "note": 42,
        "velocity": 127
      },
      {
        "type": "midi",
        "subType": "noteOff",
        "typeByte": 153,
        "deltaTime": 15,
        "channel": 9,
        "note": 42,
        "velocity": 0
      },
      {
        "type": "midi",
        "subType": "noteOff",
        "typeByte": 153,
        "deltaTime": 8,
        "channel": 9,
        "note": 61,
        "velocity": 0
      },
      {
        "type": "midi",
        "subType": "noteOn",
        "typeByte": 153,
        "deltaTime": 26,
        "channel": 9,
        "note": 36,
        "velocity": 127
      },
      {
        "type": "midi",
        "subType": "noteOn",
        "typeByte": 153,
        "deltaTime": 0,
        "channel": 9,
        "note": 61,
        "velocity": 127
      },
      {
        "type": "midi",
        "subType": "noteOn",
        "typeByte": 153,
        "deltaTime": 0,
        "channel": 9,
        "note": 51,
        "velocity": 127
      },
      {
        "type": "midi",
        "subType": "noteOn",
        "typeByte": 153,
        "deltaTime": 1,
        "channel": 9,
        "note": 40,
        "velocity": 127
      },
      {
        "type": "midi",
        "subType": "noteOn",
        "typeByte": 153,
        "deltaTime": 0,
        "channel": 9,
        "note": 42,
        "velocity": 127
      },
      {
        "type": "midi",
        "subType": "noteOff",
        "typeByte": 153,
        "deltaTime": 19,
        "channel": 9,
        "note": 42,
        "velocity": 0
      },
      {
        "type": "midi",
        "subType": "noteOff",
        "typeByte": 153,
        "deltaTime": 3,
        "channel": 9,
        "note": 36,
        "velocity": 0
      },
      {
        "type": "midi",
        "subType": "noteOff",
        "typeByte": 153,
        "deltaTime": 0,
        "channel": 9,
        "note": 61,
        "velocity": 0
      },
      {
        "type": "midi",
        "subType": "noteOn",
        "typeByte": 153,
        "deltaTime": 24,
        "channel": 9,
        "note": 36,
        "velocity": 127
      },
      {
        "type": "midi",
        "subType": "noteOn",
        "typeByte": 153,
        "deltaTime": 1,
        "channel": 9,
        "note": 61,
        "velocity": 127
      },
      {
        "type": "midi",
        "subType": "noteOn",
        "typeByte": 153,
        "deltaTime": 0,
        "channel": 9,
        "note": 42,
        "velocity": 127
      },
      {
        "type": "midi",
        "subType": "noteOff",
        "typeByte": 153,
        "deltaTime": 22,
        "channel": 9,
        "note": 42,
        "velocity": 0
      },
      {
        "type": "midi",
        "subType": "noteOff",
        "typeByte": 153,
        "deltaTime": 0,
        "channel": 9,
        "note": 36,
        "velocity": 0
      },
      {
        "type": "midi",
        "subType": "noteOff",
        "typeByte": 153,
        "deltaTime": 1,
        "channel": 9,
        "note": 61,
        "velocity": 0
      },
      {
        "type": "midi",
        "subType": "noteOff",
        "typeByte": 153,
        "deltaTime": 16,
        "channel": 9,
        "note": 51,
        "velocity": 0
      },
      {
        "type": "midi",
        "subType": "noteOff",
        "typeByte": 153,
        "deltaTime": 1,
        "channel": 9,
        "note": 40,
        "velocity": 0
      },
      {
        "type": "midi",
        "subType": "noteOn",
        "typeByte": 153,
        "deltaTime": 8,
        "channel": 9,
        "note": 38,
        "velocity": 127
      },
      {
        "type": "midi",
        "subType": "noteOn",
        "typeByte": 153,
        "deltaTime": 0,
        "channel": 9,
        "note": 61,
        "velocity": 127
      },
      {
        "type": "midi",
        "subType": "noteOn",
        "typeByte": 153,
        "deltaTime": 1,
        "channel": 9,
        "note": 42,
        "velocity": 127
      },
      {
        "type": "midi",
        "subType": "noteOff",
        "typeByte": 153,
        "deltaTime": 22,
        "channel": 9,
        "note": 42,
        "velocity": 0
      },
      {
        "type": "midi",
        "subType": "noteOff",
        "typeByte": 153,
        "deltaTime": 0,
        "channel": 9,
        "note": 38,
        "velocity": 0
      },
      {
        "type": "midi",
        "subType": "noteOff",
        "typeByte": 153,
        "deltaTime": 1,
        "channel": 9,
        "note": 61,
        "velocity": 0
      },
      {
        "type": "midi",
        "subType": "noteOn",
        "typeByte": 153,
        "deltaTime": 24,
        "channel": 9,
        "note": 61,
        "velocity": 127
      },
      {
        "type": "midi",
        "subType": "noteOn",
        "typeByte": 153,
        "deltaTime": 0,
        "channel": 9,
        "note": 42,
        "velocity": 127
      },
      {
        "type": "midi",
        "subType": "noteOff",
        "typeByte": 153,
        "deltaTime": 23,
        "channel": 9,
        "note": 61,
        "velocity": 0
      },
      {
        "type": "midi",
        "subType": "noteOff",
        "typeByte": 153,
        "deltaTime": 1,
        "channel": 9,
        "note": 42,
        "velocity": 0
      },
      {
        "type": "midi",
        "subType": "noteOn",
        "typeByte": 153,
        "deltaTime": 25,
        "channel": 9,
        "note": 36,
        "velocity": 127
      },
      {
        "type": "midi",
        "subType": "noteOn",
        "typeByte": 153,
        "deltaTime": 0,
        "channel": 9,
        "note": 61,
        "velocity": 127
      },
      {
        "type": "midi",
        "subType": "noteOn",
        "typeByte": 153,
        "deltaTime": 0,
        "channel": 9,
        "note": 42,
        "velocity": 127
      },
      {
        "type": "midi",
        "subType": "noteOff",
        "typeByte": 153,
        "deltaTime": 23,
        "channel": 9,
        "note": 61,
        "velocity": 0
      },
      {
        "type": "midi",
        "subType": "noteOff",
        "typeByte": 153,
        "deltaTime": 0,
        "channel": 9,
        "note": 36,
        "velocity": 0
      },
      {
        "type": "midi",
        "subType": "noteOff",
        "typeByte": 153,
        "deltaTime": 1,
        "channel": 9,
        "note": 42,
        "velocity": 0
      },
      {
        "type": "midi",
        "subType": "noteOn",
        "typeByte": 153,
        "deltaTime": 23,
        "channel": 9,
        "note": 61,
        "velocity": 127
      },
      {
        "type": "midi",
        "subType": "noteOn",
        "typeByte": 153,
        "deltaTime": 0,
        "channel": 9,
        "note": 42,
        "velocity": 127
      },
      {
        "type": "midi",
        "subType": "noteOff",
        "typeByte": 153,
        "deltaTime": 20,
        "channel": 9,
        "note": 42,
        "velocity": 0
      },
      {
        "type": "midi",
        "subType": "noteOff",
        "typeByte": 153,
        "deltaTime": 3,
        "channel": 9,
        "note": 61,
        "velocity": 0
      },
      {
        "type": "midi",
        "subType": "noteOn",
        "typeByte": 153,
        "deltaTime": 26,
        "channel": 9,
        "note": 38,
        "velocity": 127
      },
      {
        "type": "midi",
        "subType": "noteOn",
        "typeByte": 153,
        "deltaTime": 0,
        "channel": 9,
        "note": 61,
        "velocity": 127
      },
      {
        "type": "midi",
        "subType": "noteOn",
        "typeByte": 153,
        "deltaTime": 0,
        "channel": 9,
        "note": 42,
        "velocity": 127
      },
      {
        "type": "midi",
        "subType": "noteOff",
        "typeByte": 153,
        "deltaTime": 22,
        "channel": 9,
        "note": 42,
        "velocity": 0
      },
      {
        "type": "midi",
        "subType": "noteOff",
        "typeByte": 153,
        "deltaTime": 1,
        "channel": 9,
        "note": 61,
        "velocity": 0
      },
      {
        "type": "midi",
        "subType": "noteOff",
        "typeByte": 153,
        "deltaTime": 0,
        "channel": 9,
        "note": 38,
        "velocity": 0
      },
      {
        "type": "midi",
        "subType": "noteOn",
        "typeByte": 153,
        "deltaTime": 24,
        "channel": 9,
        "note": 61,
        "velocity": 127
      },
      {
        "type": "midi",
        "subType": "noteOn",
        "typeByte": 153,
        "deltaTime": 1,
        "channel": 9,
        "note": 42,
        "velocity": 127
      },
      {
        "type": "midi",
        "subType": "noteOff",
        "typeByte": 153,
        "deltaTime": 22,
        "channel": 9,
        "note": 61,
        "velocity": 0
      },
      {
        "type": "midi",
        "subType": "noteOff",
        "typeByte": 153,
        "deltaTime": 1,
        "channel": 9,
        "note": 42,
        "velocity": 0
      },
      {
        "type": "midi",
        "subType": "noteOn",
        "typeByte": 153,
        "deltaTime": 25,
        "channel": 9,
        "note": 36,
        "velocity": 127
      },
      {
        "type": "midi",
        "subType": "noteOn",
        "typeByte": 153,
        "deltaTime": 0,
        "channel": 9,
        "note": 61,
        "velocity": 127
      },
      {
        "type": "midi",
        "subType": "noteOn",
        "typeByte": 153,
        "deltaTime": 1,
        "channel": 9,
        "note": 40,
        "velocity": 127
      },
      {
        "type": "midi",
        "subType": "noteOn",
        "typeByte": 153,
        "deltaTime": 0,
        "channel": 9,
        "note": 51,
        "velocity": 127
      },
      {
        "type": "midi",
        "subType": "noteOn",
        "typeByte": 153,
        "deltaTime": 0,
        "channel": 9,
        "note": 42,
        "velocity": 127
      },
      {
        "type": "midi",
        "subType": "noteOff",
        "typeByte": 153,
        "deltaTime": 22,
        "channel": 9,
        "note": 42,
        "velocity": 0
      },
      {
        "type": "midi",
        "subType": "noteOff",
        "typeByte": 153,
        "deltaTime": 0,
        "channel": 9,
        "note": 36,
        "velocity": 0
      },
      {
        "type": "midi",
        "subType": "noteOff",
        "typeByte": 153,
        "deltaTime": 1,
        "channel": 9,
        "note": 61,
        "velocity": 0
      },
      {
        "type": "midi",
        "subType": "noteOn",
        "typeByte": 153,
        "deltaTime": 24,
        "channel": 9,
        "note": 36,
        "velocity": 127
      },
      {
        "type": "midi",
        "subType": "noteOn",
        "typeByte": 153,
        "deltaTime": 0,
        "channel": 9,
        "note": 61,
        "velocity": 127
      },
      {
        "type": "midi",
        "subType": "noteOn",
        "typeByte": 153,
        "deltaTime": 0,
        "channel": 9,
        "note": 42,
        "velocity": 127
      },
      {
        "type": "midi",
        "subType": "noteOff",
        "typeByte": 153,
        "deltaTime": 23,
        "channel": 9,
        "note": 61,
        "velocity": 0
      },
      {
        "type": "midi",
        "subType": "noteOff",
        "typeByte": 153,
        "deltaTime": 0,
        "channel": 9,
        "note": 36,
        "velocity": 0
      },
      {
        "type": "midi",
        "subType": "noteOff",
        "typeByte": 153,
        "deltaTime": 2,
        "channel": 9,
        "note": 42,
        "velocity": 0
      },
      {
        "type": "midi",
        "subType": "noteOff",
        "typeByte": 153,
        "deltaTime": 23,
        "channel": 9,
        "note": 40,
        "velocity": 0
      },
      {
        "type": "midi",
        "subType": "noteOn",
        "typeByte": 153,
        "deltaTime": 1,
        "channel": 9,
        "note": 38,
        "velocity": 127
      },
      {
        "type": "midi",
        "subType": "noteOn",
        "typeByte": 153,
        "deltaTime": 0,
        "channel": 9,
        "note": 61,
        "velocity": 127
      },
      {
        "type": "midi",
        "subType": "noteOn",
        "typeByte": 153,
        "deltaTime": 0,
        "channel": 9,
        "note": 42,
        "velocity": 127
      },
      {
        "type": "midi",
        "subType": "noteOff",
        "typeByte": 153,
        "deltaTime": 5,
        "channel": 9,
        "note": 51,
        "velocity": 0
      },
      {
        "type": "midi",
        "subType": "noteOff",
        "typeByte": 153,
        "deltaTime": 17,
        "channel": 9,
        "note": 61,
        "velocity": 0
      },
      {
        "type": "midi",
        "subType": "noteOff",
        "typeByte": 153,
        "deltaTime": 1,
        "channel": 9,
        "note": 38,
        "velocity": 0
      },
      {
        "type": "midi",
        "subType": "noteOff",
        "typeByte": 153,
        "deltaTime": 1,
        "channel": 9,
        "note": 42,
        "velocity": 0
      },
      {
        "type": "midi",
        "subType": "noteOn",
        "typeByte": 153,
        "deltaTime": 23,
        "channel": 9,
        "note": 61,
        "velocity": 127
      },
      {
        "type": "midi",
        "subType": "noteOn",
        "typeByte": 153,
        "deltaTime": 0,
        "channel": 9,
        "note": 42,
        "velocity": 127
      },
      {
        "type": "midi",
        "subType": "noteOff",
        "typeByte": 153,
        "deltaTime": 23,
        "channel": 9,
        "note": 61,
        "velocity": 0
      },
      {
        "type": "midi",
        "subType": "noteOff",
        "typeByte": 153,
        "deltaTime": 3,
        "channel": 9,
        "note": 42,
        "velocity": 0
      },
      {
        "type": "midi",
        "subType": "noteOn",
        "typeByte": 153,
        "deltaTime": 23,
        "channel": 9,
        "note": 36,
        "velocity": 127
      },
      {
        "type": "midi",
        "subType": "noteOn",
        "typeByte": 153,
        "deltaTime": 0,
        "channel": 9,
        "note": 61,
        "velocity": 127
      },
      {
        "type": "midi",
        "subType": "noteOn",
        "typeByte": 153,
        "deltaTime": 0,
        "channel": 9,
        "note": 42,
        "velocity": 127
      },
      {
        "type": "midi",
        "subType": "noteOff",
        "typeByte": 153,
        "deltaTime": 23,
        "channel": 9,
        "note": 61,
        "velocity": 0
      },
      {
        "type": "midi",
        "subType": "noteOff",
        "typeByte": 153,
        "deltaTime": 0,
        "channel": 9,
        "note": 36,
        "velocity": 0
      },
      {
        "type": "midi",
        "subType": "noteOff",
        "typeByte": 153,
        "deltaTime": 5,
        "channel": 9,
        "note": 42,
        "velocity": 0
      },
      {
        "type": "midi",
        "subType": "noteOn",
        "typeByte": 153,
        "deltaTime": 19,
        "channel": 9,
        "note": 61,
        "velocity": 127
      },
      {
        "type": "midi",
        "subType": "noteOn",
        "typeByte": 153,
        "deltaTime": 0,
        "channel": 9,
        "note": 42,
        "velocity": 127
      },
      {
        "type": "midi",
        "subType": "noteOff",
        "typeByte": 153,
        "deltaTime": 23,
        "channel": 9,
        "note": 42,
        "velocity": 0
      },
      {
        "type": "midi",
        "subType": "noteOff",
        "typeByte": 153,
        "deltaTime": 0,
        "channel": 9,
        "note": 61,
        "velocity": 0
      },
      {
        "type": "midi",
        "subType": "noteOn",
        "typeByte": 153,
        "deltaTime": 26,
        "channel": 9,
        "note": 38,
        "velocity": 127
      },
      {
        "type": "midi",
        "subType": "noteOn",
        "typeByte": 153,
        "deltaTime": 0,
        "channel": 9,
        "note": 61,
        "velocity": 127
      },
      {
        "type": "midi",
        "subType": "noteOn",
        "typeByte": 153,
        "deltaTime": 0,
        "channel": 9,
        "note": 42,
        "velocity": 127
      },
      {
        "type": "midi",
        "subType": "noteOff",
        "typeByte": 153,
        "deltaTime": 23,
        "channel": 9,
        "note": 42,
        "velocity": 0
      },
      {
        "type": "midi",
        "subType": "noteOff",
        "typeByte": 153,
        "deltaTime": 0,
        "channel": 9,
        "note": 61,
        "velocity": 0
      },
      {
        "type": "midi",
        "subType": "noteOff",
        "typeByte": 153,
        "deltaTime": 0,
        "channel": 9,
        "note": 38,
        "velocity": 0
      },
      {
        "type": "midi",
        "subType": "noteOn",
        "typeByte": 153,
        "deltaTime": 25,
        "channel": 9,
        "note": 61,
        "velocity": 127
      },
      {
        "type": "midi",
        "subType": "noteOn",
        "typeByte": 153,
        "deltaTime": 0,
        "channel": 9,
        "note": 42,
        "velocity": 127
      },
      {
        "type": "midi",
        "subType": "noteOff",
        "typeByte": 153,
        "deltaTime": 23,
        "channel": 9,
        "note": 61,
        "velocity": 0
      },
      {
        "type": "midi",
        "subType": "noteOff",
        "typeByte": 153,
        "deltaTime": 1,
        "channel": 9,
        "note": 42,
        "velocity": 0
      },
      {
        "type": "midi",
        "subType": "noteOn",
        "typeByte": 153,
        "deltaTime": 24,
        "channel": 9,
        "note": 36,
        "velocity": 127
      },
      {
        "type": "midi",
        "subType": "noteOn",
        "typeByte": 153,
        "deltaTime": 0,
        "channel": 9,
        "note": 61,
        "velocity": 127
      },
      {
        "type": "midi",
        "subType": "noteOn",
        "typeByte": 153,
        "deltaTime": 1,
        "channel": 9,
        "note": 51,
        "velocity": 127
      },
      {
        "type": "midi",
        "subType": "noteOn",
        "typeByte": 153,
        "deltaTime": 0,
        "channel": 9,
        "note": 40,
        "velocity": 127
      },
      {
        "type": "midi",
        "subType": "noteOn",
        "typeByte": 153,
        "deltaTime": 0,
        "channel": 9,
        "note": 42,
        "velocity": 127
      },
      {
        "type": "midi",
        "subType": "noteOff",
        "typeByte": 153,
        "deltaTime": 22,
        "channel": 9,
        "note": 36,
        "velocity": 0
      },
      {
        "type": "midi",
        "subType": "noteOff",
        "typeByte": 153,
        "deltaTime": 1,
        "channel": 9,
        "note": 61,
        "velocity": 0
      },
      {
        "type": "midi",
        "subType": "noteOff",
        "typeByte": 153,
        "deltaTime": 1,
        "channel": 9,
        "note": 42,
        "velocity": 0
      },
      {
        "type": "midi",
        "subType": "noteOn",
        "typeByte": 153,
        "deltaTime": 23,
        "channel": 9,
        "note": 36,
        "velocity": 127
      },
      {
        "type": "midi",
        "subType": "noteOn",
        "typeByte": 153,
        "deltaTime": 0,
        "channel": 9,
        "note": 61,
        "velocity": 127
      },
      {
        "type": "midi",
        "subType": "noteOn",
        "typeByte": 153,
        "deltaTime": 0,
        "channel": 9,
        "note": 42,
        "velocity": 127
      },
      {
        "type": "midi",
        "subType": "noteOff",
        "typeByte": 153,
        "deltaTime": 23,
        "channel": 9,
        "note": 61,
        "velocity": 0
      },
      {
        "type": "midi",
        "subType": "noteOff",
        "typeByte": 153,
        "deltaTime": 0,
        "channel": 9,
        "note": 36,
        "velocity": 0
      },
      {
        "type": "midi",
        "subType": "noteOff",
        "typeByte": 153,
        "deltaTime": 1,
        "channel": 9,
        "note": 42,
        "velocity": 0
      },
      {
        "type": "midi",
        "subType": "noteOff",
        "typeByte": 153,
        "deltaTime": 15,
        "channel": 9,
        "note": 51,
        "velocity": 0
      },
      {
        "type": "midi",
        "subType": "noteOff",
        "typeByte": 153,
        "deltaTime": 1,
        "channel": 9,
        "note": 40,
        "velocity": 0
      },
      {
        "type": "midi",
        "subType": "noteOn",
        "typeByte": 153,
        "deltaTime": 9,
        "channel": 9,
        "note": 38,
        "velocity": 127
      },
      {
        "type": "midi",
        "subType": "noteOn",
        "typeByte": 153,
        "deltaTime": 0,
        "channel": 9,
        "note": 61,
        "velocity": 127
      },
      {
        "type": "midi",
        "subType": "noteOn",
        "typeByte": 153,
        "deltaTime": 0,
        "channel": 9,
        "note": 42,
        "velocity": 127
      },
      {
        "type": "midi",
        "subType": "noteOff",
        "typeByte": 153,
        "deltaTime": 23,
        "channel": 9,
        "note": 61,
        "velocity": 0
      },
      {
        "type": "midi",
        "subType": "noteOff",
        "typeByte": 153,
        "deltaTime": 0,
        "channel": 9,
        "note": 38,
        "velocity": 0
      },
      {
        "type": "midi",
        "subType": "noteOff",
        "typeByte": 153,
        "deltaTime": 1,
        "channel": 9,
        "note": 42,
        "velocity": 0
      },
      {
        "type": "midi",
        "subType": "noteOn",
        "typeByte": 153,
        "deltaTime": 23,
        "channel": 9,
        "note": 61,
        "velocity": 127
      },
      {
        "type": "midi",
        "subType": "noteOn",
        "typeByte": 153,
        "deltaTime": 0,
        "channel": 9,
        "note": 42,
        "velocity": 127
      },
      {
        "type": "midi",
        "subType": "noteOff",
        "typeByte": 153,
        "deltaTime": 23,
        "channel": 9,
        "note": 61,
        "velocity": 0
      },
      {
        "type": "midi",
        "subType": "noteOff",
        "typeByte": 153,
        "deltaTime": 3,
        "channel": 9,
        "note": 42,
        "velocity": 0
      },
      {
        "type": "midi",
        "subType": "noteOn",
        "typeByte": 153,
        "deltaTime": 23,
        "channel": 9,
        "note": 36,
        "velocity": 127
      },
      {
        "type": "midi",
        "subType": "noteOn",
        "typeByte": 153,
        "deltaTime": 0,
        "channel": 9,
        "note": 61,
        "velocity": 127
      },
      {
        "type": "midi",
        "subType": "noteOn",
        "typeByte": 153,
        "deltaTime": 0,
        "channel": 9,
        "note": 42,
        "velocity": 127
      },
      {
        "type": "midi",
        "subType": "noteOff",
        "typeByte": 153,
        "deltaTime": 23,
        "channel": 9,
        "note": 61,
        "velocity": 0
      },
      {
        "type": "midi",
        "subType": "noteOff",
        "typeByte": 153,
        "deltaTime": 0,
        "channel": 9,
        "note": 36,
        "velocity": 0
      },
      {
        "type": "midi",
        "subType": "noteOff",
        "typeByte": 153,
        "deltaTime": 1,
        "channel": 9,
        "note": 42,
        "velocity": 0
      },
      {
        "type": "midi",
        "subType": "noteOn",
        "typeByte": 153,
        "deltaTime": 23,
        "channel": 9,
        "note": 61,
        "velocity": 127
      },
      {
        "type": "midi",
        "subType": "noteOn",
        "typeByte": 153,
        "deltaTime": 1,
        "channel": 9,
        "note": 42,
        "velocity": 127
      },
      {
        "type": "midi",
        "subType": "noteOff",
        "typeByte": 153,
        "deltaTime": 22,
        "channel": 9,
        "note": 61,
        "velocity": 0
      },
      {
        "type": "midi",
        "subType": "noteOff",
        "typeByte": 153,
        "deltaTime": 4,
        "channel": 9,
        "note": 42,
        "velocity": 0
      },
      {
        "type": "midi",
        "subType": "noteOn",
        "typeByte": 153,
        "deltaTime": 22,
        "channel": 9,
        "note": 38,
        "velocity": 127
      },
      {
        "type": "midi",
        "subType": "noteOn",
        "typeByte": 153,
        "deltaTime": 0,
        "channel": 9,
        "note": 61,
        "velocity": 127
      },
      {
        "type": "midi",
        "subType": "noteOn",
        "typeByte": 153,
        "deltaTime": 1,
        "channel": 9,
        "note": 42,
        "velocity": 127
      },
      {
        "type": "midi",
        "subType": "noteOff",
        "typeByte": 153,
        "deltaTime": 22,
        "channel": 9,
        "note": 42,
        "velocity": 0
      },
      {
        "type": "midi",
        "subType": "noteOff",
        "typeByte": 153,
        "deltaTime": 0,
        "channel": 9,
        "note": 61,
        "velocity": 0
      },
      {
        "type": "midi",
        "subType": "noteOff",
        "typeByte": 153,
        "deltaTime": 0,
        "channel": 9,
        "note": 38,
        "velocity": 0
      },
      {
        "type": "midi",
        "subType": "noteOn",
        "typeByte": 153,
        "deltaTime": 25,
        "channel": 9,
        "note": 61,
        "velocity": 127
      },
      {
        "type": "midi",
        "subType": "noteOn",
        "typeByte": 153,
        "deltaTime": 0,
        "channel": 9,
        "note": 42,
        "velocity": 127
      },
      {
        "type": "midi",
        "subType": "noteOff",
        "typeByte": 153,
        "deltaTime": 23,
        "channel": 9,
        "note": 42,
        "velocity": 0
      },
      {
        "type": "midi",
        "subType": "noteOff",
        "typeByte": 153,
        "deltaTime": 0,
        "channel": 9,
        "note": 61,
        "velocity": 0
      },
      {
        "type": "midi",
        "subType": "noteOn",
        "typeByte": 153,
        "deltaTime": 25,
        "channel": 9,
        "note": 36,
        "velocity": 127
      },
      {
        "type": "midi",
        "subType": "noteOn",
        "typeByte": 153,
        "deltaTime": 0,
        "channel": 9,
        "note": 61,
        "velocity": 127
      },
      {
        "type": "midi",
        "subType": "noteOn",
        "typeByte": 153,
        "deltaTime": 1,
        "channel": 9,
        "note": 40,
        "velocity": 127
      },
      {
        "type": "midi",
        "subType": "noteOn",
        "typeByte": 153,
        "deltaTime": 0,
        "channel": 9,
        "note": 51,
        "velocity": 127
      },
      {
        "type": "midi",
        "subType": "noteOn",
        "typeByte": 153,
        "deltaTime": 0,
        "channel": 9,
        "note": 42,
        "velocity": 127
      },
      {
        "type": "midi",
        "subType": "noteOff",
        "typeByte": 153,
        "deltaTime": 23,
        "channel": 9,
        "note": 42,
        "velocity": 0
      },
      {
        "type": "midi",
        "subType": "noteOff",
        "typeByte": 153,
        "deltaTime": 0,
        "channel": 9,
        "note": 36,
        "velocity": 0
      },
      {
        "type": "midi",
        "subType": "noteOff",
        "typeByte": 153,
        "deltaTime": 0,
        "channel": 9,
        "note": 61,
        "velocity": 0
      },
      {
        "type": "midi",
        "subType": "noteOn",
        "typeByte": 153,
        "deltaTime": 24,
        "channel": 9,
        "note": 36,
        "velocity": 127
      },
      {
        "type": "midi",
        "subType": "noteOn",
        "typeByte": 153,
        "deltaTime": 0,
        "channel": 9,
        "note": 61,
        "velocity": 127
      },
      {
        "type": "midi",
        "subType": "noteOn",
        "typeByte": 153,
        "deltaTime": 1,
        "channel": 9,
        "note": 42,
        "velocity": 127
      },
      {
        "type": "midi",
        "subType": "noteOff",
        "typeByte": 153,
        "deltaTime": 22,
        "channel": 9,
        "note": 42,
        "velocity": 0
      },
      {
        "type": "midi",
        "subType": "noteOff",
        "typeByte": 153,
        "deltaTime": 0,
        "channel": 9,
        "note": 36,
        "velocity": 0
      },
      {
        "type": "midi",
        "subType": "noteOff",
        "typeByte": 153,
        "deltaTime": 0,
        "channel": 9,
        "note": 61,
        "velocity": 0
      },
      {
        "type": "midi",
        "subType": "noteOff",
        "typeByte": 153,
        "deltaTime": 26,
        "channel": 9,
        "note": 40,
        "velocity": 0
      },
      {
        "type": "midi",
        "subType": "noteOn",
        "typeByte": 153,
        "deltaTime": 0,
        "channel": 9,
        "note": 38,
        "velocity": 127
      },
      {
        "type": "midi",
        "subType": "noteOn",
        "typeByte": 153,
        "deltaTime": 0,
        "channel": 9,
        "note": 61,
        "velocity": 127
      },
      {
        "type": "midi",
        "subType": "noteOn",
        "typeByte": 153,
        "deltaTime": 0,
        "channel": 9,
        "note": 42,
        "velocity": 127
      },
      {
        "type": "midi",
        "subType": "noteOff",
        "typeByte": 153,
        "deltaTime": 5,
        "channel": 9,
        "note": 51,
        "velocity": 0
      },
      {
        "type": "midi",
        "subType": "noteOff",
        "typeByte": 153,
        "deltaTime": 18,
        "channel": 9,
        "note": 38,
        "velocity": 0
      },
      {
        "type": "midi",
        "subType": "noteOff",
        "typeByte": 153,
        "deltaTime": 0,
        "channel": 9,
        "note": 61,
        "velocity": 0
      },
      {
        "type": "midi",
        "subType": "noteOff",
        "typeByte": 153,
        "deltaTime": 1,
        "channel": 9,
        "note": 42,
        "velocity": 0
      },
      {
        "type": "midi",
        "subType": "noteOn",
        "typeByte": 153,
        "deltaTime": 23,
        "channel": 9,
        "note": 61,
        "velocity": 127
      },
      {
        "type": "midi",
        "subType": "noteOn",
        "typeByte": 153,
        "deltaTime": 0,
        "channel": 9,
        "note": 42,
        "velocity": 127
      },
      {
        "type": "midi",
        "subType": "noteOff",
        "typeByte": 153,
        "deltaTime": 23,
        "channel": 9,
        "note": 42,
        "velocity": 0
      },
      {
        "type": "midi",
        "subType": "noteOff",
        "typeByte": 153,
        "deltaTime": 1,
        "channel": 9,
        "note": 61,
        "velocity": 0
      },
      {
        "type": "midi",
        "subType": "noteOn",
        "typeByte": 153,
        "deltaTime": 25,
        "channel": 9,
        "note": 36,
        "velocity": 127
      },
      {
        "type": "midi",
        "subType": "noteOn",
        "typeByte": 153,
        "deltaTime": 0,
        "channel": 9,
        "note": 61,
        "velocity": 127
      },
      {
        "type": "midi",
        "subType": "noteOn",
        "typeByte": 153,
        "deltaTime": 0,
        "channel": 9,
        "note": 42,
        "velocity": 127
      },
      {
        "type": "midi",
        "subType": "noteOff",
        "typeByte": 153,
        "deltaTime": 18,
        "channel": 9,
        "note": 42,
        "velocity": 0
      },
      {
        "type": "midi",
        "subType": "noteOff",
        "typeByte": 153,
        "deltaTime": 5,
        "channel": 9,
        "note": 61,
        "velocity": 0
      },
      {
        "type": "midi",
        "subType": "noteOff",
        "typeByte": 153,
        "deltaTime": 0,
        "channel": 9,
        "note": 36,
        "velocity": 0
      },
      {
        "type": "midi",
        "subType": "noteOn",
        "typeByte": 153,
        "deltaTime": 25,
        "channel": 9,
        "note": 61,
        "velocity": 127
      },
      {
        "type": "midi",
        "subType": "noteOn",
        "typeByte": 153,
        "deltaTime": 0,
        "channel": 9,
        "note": 42,
        "velocity": 127
      },
      {
        "type": "midi",
        "subType": "noteOff",
        "typeByte": 153,
        "deltaTime": 17,
        "channel": 9,
        "note": 42,
        "velocity": 0
      },
      {
        "type": "midi",
        "subType": "noteOff",
        "typeByte": 153,
        "deltaTime": 6,
        "channel": 9,
        "note": 61,
        "velocity": 0
      },
      {
        "type": "midi",
        "subType": "noteOn",
        "typeByte": 153,
        "deltaTime": 25,
        "channel": 9,
        "note": 38,
        "velocity": 127
      },
      {
        "type": "midi",
        "subType": "noteOn",
        "typeByte": 153,
        "deltaTime": 0,
        "channel": 9,
        "note": 61,
        "velocity": 127
      },
      {
        "type": "midi",
        "subType": "noteOn",
        "typeByte": 153,
        "deltaTime": 1,
        "channel": 9,
        "note": 42,
        "velocity": 127
      },
      {
        "type": "midi",
        "subType": "noteOff",
        "typeByte": 153,
        "deltaTime": 20,
        "channel": 9,
        "note": 42,
        "velocity": 0
      },
      {
        "type": "midi",
        "subType": "noteOff",
        "typeByte": 153,
        "deltaTime": 2,
        "channel": 9,
        "note": 61,
        "velocity": 0
      },
      {
        "type": "midi",
        "subType": "noteOff",
        "typeByte": 153,
        "deltaTime": 0,
        "channel": 9,
        "note": 38,
        "velocity": 0
      },
      {
        "type": "midi",
        "subType": "noteOn",
        "typeByte": 153,
        "deltaTime": 25,
        "channel": 9,
        "note": 61,
        "velocity": 127
      },
      {
        "type": "midi",
        "subType": "noteOn",
        "typeByte": 153,
        "deltaTime": 0,
        "channel": 9,
        "note": 42,
        "velocity": 127
      },
      {
        "type": "midi",
        "subType": "noteOff",
        "typeByte": 153,
        "deltaTime": 15,
        "channel": 9,
        "note": 42,
        "velocity": 0
      },
      {
        "type": "midi",
        "subType": "noteOff",
        "typeByte": 153,
        "deltaTime": 8,
        "channel": 9,
        "note": 61,
        "velocity": 0
      },
      {
        "type": "midi",
        "subType": "noteOn",
        "typeByte": 153,
        "deltaTime": 26,
        "channel": 9,
        "note": 36,
        "velocity": 127
      },
      {
        "type": "midi",
        "subType": "noteOn",
        "typeByte": 153,
        "deltaTime": 0,
        "channel": 9,
        "note": 61,
        "velocity": 127
      },
      {
        "type": "midi",
        "subType": "noteOn",
        "typeByte": 153,
        "deltaTime": 0,
        "channel": 9,
        "note": 51,
        "velocity": 127
      },
      {
        "type": "midi",
        "subType": "noteOn",
        "typeByte": 153,
        "deltaTime": 0,
        "channel": 9,
        "note": 40,
        "velocity": 127
      },
      {
        "type": "midi",
        "subType": "noteOn",
        "typeByte": 153,
        "deltaTime": 1,
        "channel": 9,
        "note": 42,
        "velocity": 127
      },
      {
        "type": "midi",
        "subType": "noteOff",
        "typeByte": 153,
        "deltaTime": 19,
        "channel": 9,
        "note": 42,
        "velocity": 0
      },
      {
        "type": "midi",
        "subType": "noteOff",
        "typeByte": 153,
        "deltaTime": 3,
        "channel": 9,
        "note": 36,
        "velocity": 0
      },
      {
        "type": "midi",
        "subType": "noteOff",
        "typeByte": 153,
        "deltaTime": 0,
        "channel": 9,
        "note": 61,
        "velocity": 0
      },
      {
        "type": "midi",
        "subType": "noteOn",
        "typeByte": 153,
        "deltaTime": 24,
        "channel": 9,
        "note": 36,
        "velocity": 127
      },
      {
        "type": "midi",
        "subType": "noteOn",
        "typeByte": 153,
        "deltaTime": 0,
        "channel": 9,
        "note": 61,
        "velocity": 127
      },
      {
        "type": "midi",
        "subType": "noteOn",
        "typeByte": 153,
        "deltaTime": 1,
        "channel": 9,
        "note": 42,
        "velocity": 127
      },
      {
        "type": "midi",
        "subType": "noteOff",
        "typeByte": 153,
        "deltaTime": 22,
        "channel": 9,
        "note": 42,
        "velocity": 0
      },
      {
        "type": "midi",
        "subType": "noteOff",
        "typeByte": 153,
        "deltaTime": 0,
        "channel": 9,
        "note": 36,
        "velocity": 0
      },
      {
        "type": "midi",
        "subType": "noteOff",
        "typeByte": 153,
        "deltaTime": 1,
        "channel": 9,
        "note": 61,
        "velocity": 0
      },
      {
        "type": "midi",
        "subType": "noteOff",
        "typeByte": 153,
        "deltaTime": 15,
        "channel": 9,
        "note": 51,
        "velocity": 0
      },
      {
        "type": "midi",
        "subType": "noteOff",
        "typeByte": 153,
        "deltaTime": 2,
        "channel": 9,
        "note": 40,
        "velocity": 0
      },
      {
        "type": "midi",
        "subType": "noteOn",
        "typeByte": 153,
        "deltaTime": 8,
        "channel": 9,
        "note": 38,
        "velocity": 127
      },
      {
        "type": "midi",
        "subType": "noteOn",
        "typeByte": 153,
        "deltaTime": 0,
        "channel": 9,
        "note": 61,
        "velocity": 127
      },
      {
        "type": "midi",
        "subType": "noteOn",
        "typeByte": 153,
        "deltaTime": 0,
        "channel": 9,
        "note": 42,
        "velocity": 127
      },
      {
        "type": "midi",
        "subType": "noteOff",
        "typeByte": 153,
        "deltaTime": 23,
        "channel": 9,
        "note": 42,
        "velocity": 0
      },
      {
        "type": "midi",
        "subType": "noteOff",
        "typeByte": 153,
        "deltaTime": 0,
        "channel": 9,
        "note": 61,
        "velocity": 0
      },
      {
        "type": "midi",
        "subType": "noteOff",
        "typeByte": 153,
        "deltaTime": 0,
        "channel": 9,
        "note": 38,
        "velocity": 0
      },
      {
        "type": "midi",
        "subType": "noteOn",
        "typeByte": 153,
        "deltaTime": 24,
        "channel": 9,
        "note": 61,
        "velocity": 127
      },
      {
        "type": "midi",
        "subType": "noteOn",
        "typeByte": 153,
        "deltaTime": 0,
        "channel": 9,
        "note": 42,
        "velocity": 127
      },
      {
        "type": "midi",
        "subType": "noteOff",
        "typeByte": 153,
        "deltaTime": 23,
        "channel": 9,
        "note": 61,
        "velocity": 0
      },
      {
        "type": "midi",
        "subType": "noteOff",
        "typeByte": 153,
        "deltaTime": 2,
        "channel": 9,
        "note": 42,
        "velocity": 0
      },
      {
        "type": "midi",
        "subType": "noteOn",
        "typeByte": 153,
        "deltaTime": 24,
        "channel": 9,
        "note": 36,
        "velocity": 127
      },
      {
        "type": "midi",
        "subType": "noteOn",
        "typeByte": 153,
        "deltaTime": 1,
        "channel": 9,
        "note": 61,
        "velocity": 127
      },
      {
        "type": "midi",
        "subType": "noteOn",
        "typeByte": 153,
        "deltaTime": 0,
        "channel": 9,
        "note": 42,
        "velocity": 127
      },
      {
        "type": "midi",
        "subType": "noteOff",
        "typeByte": 153,
        "deltaTime": 22,
        "channel": 9,
        "note": 61,
        "velocity": 0
      },
      {
        "type": "midi",
        "subType": "noteOff",
        "typeByte": 153,
        "deltaTime": 0,
        "channel": 9,
        "note": 36,
        "velocity": 0
      },
      {
        "type": "midi",
        "subType": "noteOff",
        "typeByte": 153,
        "deltaTime": 4,
        "channel": 9,
        "note": 42,
        "velocity": 0
      },
      {
        "type": "midi",
        "subType": "noteOn",
        "typeByte": 153,
        "deltaTime": 21,
        "channel": 9,
        "note": 61,
        "velocity": 127
      },
      {
        "type": "midi",
        "subType": "noteOn",
        "typeByte": 153,
        "deltaTime": 0,
        "channel": 9,
        "note": 42,
        "velocity": 127
      },
      {
        "type": "midi",
        "subType": "noteOff",
        "typeByte": 153,
        "deltaTime": 23,
        "channel": 9,
        "note": 42,
        "velocity": 0
      },
      {
        "type": "midi",
        "subType": "noteOff",
        "typeByte": 153,
        "deltaTime": 0,
        "channel": 9,
        "note": 61,
        "velocity": 0
      },
      {
        "type": "midi",
        "subType": "noteOn",
        "typeByte": 153,
        "deltaTime": 26,
        "channel": 9,
        "note": 38,
        "velocity": 127
      },
      {
        "type": "midi",
        "subType": "noteOn",
        "typeByte": 153,
        "deltaTime": 0,
        "channel": 9,
        "note": 61,
        "velocity": 127
      },
      {
        "type": "midi",
        "subType": "noteOn",
        "typeByte": 153,
        "deltaTime": 0,
        "channel": 9,
        "note": 42,
        "velocity": 127
      },
      {
        "type": "midi",
        "subType": "noteOff",
        "typeByte": 153,
        "deltaTime": 21,
        "channel": 9,
        "note": 42,
        "velocity": 0
      },
      {
        "type": "midi",
        "subType": "noteOff",
        "typeByte": 153,
        "deltaTime": 2,
        "channel": 9,
        "note": 61,
        "velocity": 0
      },
      {
        "type": "midi",
        "subType": "noteOff",
        "typeByte": 153,
        "deltaTime": 0,
        "channel": 9,
        "note": 38,
        "velocity": 0
      },
      {
        "type": "midi",
        "subType": "noteOn",
        "typeByte": 153,
        "deltaTime": 24,
        "channel": 9,
        "note": 61,
        "velocity": 127
      },
      {
        "type": "midi",
        "subType": "noteOn",
        "typeByte": 153,
        "deltaTime": 0,
        "channel": 9,
        "note": 42,
        "velocity": 127
      },
      {
        "type": "midi",
        "subType": "noteOff",
        "typeByte": 153,
        "deltaTime": 20,
        "channel": 9,
        "note": 42,
        "velocity": 0
      },
      {
        "type": "midi",
        "subType": "noteOff",
        "typeByte": 153,
        "deltaTime": 3,
        "channel": 9,
        "note": 61,
        "velocity": 0
      },
      {
        "type": "midi",
        "subType": "noteOn",
        "typeByte": 153,
        "deltaTime": 26,
        "channel": 9,
        "note": 36,
        "velocity": 127
      },
      {
        "type": "midi",
        "subType": "noteOn",
        "typeByte": 153,
        "deltaTime": 0,
        "channel": 9,
        "note": 61,
        "velocity": 127
      },
      {
        "type": "midi",
        "subType": "noteOn",
        "typeByte": 153,
        "deltaTime": 0,
        "channel": 9,
        "note": 40,
        "velocity": 127
      },
      {
        "type": "midi",
        "subType": "noteOn",
        "typeByte": 153,
        "deltaTime": 1,
        "channel": 9,
        "note": 51,
        "velocity": 127
      },
      {
        "type": "midi",
        "subType": "noteOn",
        "typeByte": 153,
        "deltaTime": 0,
        "channel": 9,
        "note": 42,
        "velocity": 127
      },
      {
        "type": "midi",
        "subType": "noteOff",
        "typeByte": 153,
        "deltaTime": 18,
        "channel": 9,
        "note": 42,
        "velocity": 0
      },
      {
        "type": "midi",
        "subType": "noteOff",
        "typeByte": 153,
        "deltaTime": 4,
        "channel": 9,
        "note": 36,
        "velocity": 0
      },
      {
        "type": "midi",
        "subType": "noteOff",
        "typeByte": 153,
        "deltaTime": 0,
        "channel": 9,
        "note": 61,
        "velocity": 0
      },
      {
        "type": "midi",
        "subType": "noteOn",
        "typeByte": 153,
        "deltaTime": 24,
        "channel": 9,
        "note": 36,
        "velocity": 127
      },
      {
        "type": "midi",
        "subType": "noteOn",
        "typeByte": 153,
        "deltaTime": 0,
        "channel": 9,
        "note": 61,
        "velocity": 127
      },
      {
        "type": "midi",
        "subType": "noteOn",
        "typeByte": 153,
        "deltaTime": 1,
        "channel": 9,
        "note": 42,
        "velocity": 127
      },
      {
        "type": "midi",
        "subType": "noteOff",
        "typeByte": 153,
        "deltaTime": 22,
        "channel": 9,
        "note": 42,
        "velocity": 0
      },
      {
        "type": "midi",
        "subType": "noteOff",
        "typeByte": 153,
        "deltaTime": 0,
        "channel": 9,
        "note": 36,
        "velocity": 0
      },
      {
        "type": "midi",
        "subType": "noteOff",
        "typeByte": 153,
        "deltaTime": 1,
        "channel": 9,
        "note": 61,
        "velocity": 0
      },
      {
        "type": "midi",
        "subType": "noteOff",
        "typeByte": 153,
        "deltaTime": 25,
        "channel": 9,
        "note": 40,
        "velocity": 0
      },
      {
        "type": "midi",
        "subType": "noteOn",
        "typeByte": 153,
        "deltaTime": 0,
        "channel": 9,
        "note": 38,
        "velocity": 127
      },
      {
        "type": "midi",
        "subType": "noteOn",
        "typeByte": 153,
        "deltaTime": 0,
        "channel": 9,
        "note": 61,
        "velocity": 127
      },
      {
        "type": "midi",
        "subType": "noteOn",
        "typeByte": 153,
        "deltaTime": 1,
        "channel": 9,
        "note": 42,
        "velocity": 127
      },
      {
        "type": "midi",
        "subType": "noteOff",
        "typeByte": 153,
        "deltaTime": 5,
        "channel": 9,
        "note": 51,
        "velocity": 0
      },
      {
        "type": "midi",
        "subType": "noteOff",
        "typeByte": 153,
        "deltaTime": 17,
        "channel": 9,
        "note": 38,
        "velocity": 0
      },
      {
        "type": "midi",
        "subType": "noteOff",
        "typeByte": 153,
        "deltaTime": 0,
        "channel": 9,
        "note": 61,
        "velocity": 0
      },
      {
        "type": "midi",
        "subType": "noteOff",
        "typeByte": 153,
        "deltaTime": 2,
        "channel": 9,
        "note": 42,
        "velocity": 0
      },
      {
        "type": "midi",
        "subType": "noteOn",
        "typeByte": 153,
        "deltaTime": 23,
        "channel": 9,
        "note": 61,
        "velocity": 127
      },
      {
        "type": "midi",
        "subType": "noteOn",
        "typeByte": 153,
        "deltaTime": 0,
        "channel": 9,
        "note": 42,
        "velocity": 127
      },
      {
        "type": "midi",
        "subType": "noteOff",
        "typeByte": 153,
        "deltaTime": 23,
        "channel": 9,
        "note": 42,
        "velocity": 0
      },
      {
        "type": "midi",
        "subType": "noteOff",
        "typeByte": 153,
        "deltaTime": 0,
        "channel": 9,
        "note": 61,
        "velocity": 0
      },
      {
        "type": "midi",
        "subType": "noteOn",
        "typeByte": 153,
        "deltaTime": 25,
        "channel": 9,
        "note": 36,
        "velocity": 127
      },
      {
        "type": "midi",
        "subType": "noteOn",
        "typeByte": 153,
        "deltaTime": 0,
        "channel": 9,
        "note": 61,
        "velocity": 127
      },
      {
        "type": "midi",
        "subType": "noteOn",
        "typeByte": 153,
        "deltaTime": 1,
        "channel": 9,
        "note": 42,
        "velocity": 127
      },
      {
        "type": "midi",
        "subType": "noteOff",
        "typeByte": 153,
        "deltaTime": 21,
        "channel": 9,
        "note": 42,
        "velocity": 0
      },
      {
        "type": "midi",
        "subType": "noteOff",
        "typeByte": 153,
        "deltaTime": 1,
        "channel": 9,
        "note": 36,
        "velocity": 0
      },
      {
        "type": "midi",
        "subType": "noteOff",
        "typeByte": 153,
        "deltaTime": 1,
        "channel": 9,
        "note": 61,
        "velocity": 0
      },
      {
        "type": "midi",
        "subType": "noteOn",
        "typeByte": 153,
        "deltaTime": 24,
        "channel": 9,
        "note": 61,
        "velocity": 127
      },
      {
        "type": "midi",
        "subType": "noteOn",
        "typeByte": 153,
        "deltaTime": 0,
        "channel": 9,
        "note": 42,
        "velocity": 127
      },
      {
        "type": "midi",
        "subType": "noteOff",
        "typeByte": 153,
        "deltaTime": 19,
        "channel": 9,
        "note": 42,
        "velocity": 0
      },
      {
        "type": "midi",
        "subType": "noteOff",
        "typeByte": 153,
        "deltaTime": 4,
        "channel": 9,
        "note": 61,
        "velocity": 0
      },
      {
        "type": "midi",
        "subType": "noteOn",
        "typeByte": 153,
        "deltaTime": 26,
        "channel": 9,
        "note": 38,
        "velocity": 127
      },
      {
        "type": "midi",
        "subType": "noteOn",
        "typeByte": 153,
        "deltaTime": 0,
        "channel": 9,
        "note": 61,
        "velocity": 127
      },
      {
        "type": "midi",
        "subType": "noteOn",
        "typeByte": 153,
        "deltaTime": 0,
        "channel": 9,
        "note": 42,
        "velocity": 127
      },
      {
        "type": "midi",
        "subType": "noteOff",
        "typeByte": 153,
        "deltaTime": 19,
        "channel": 9,
        "note": 42,
        "velocity": 0
      },
      {
        "type": "midi",
        "subType": "noteOff",
        "typeByte": 153,
        "deltaTime": 4,
        "channel": 9,
        "note": 61,
        "velocity": 0
      },
      {
        "type": "midi",
        "subType": "noteOff",
        "typeByte": 153,
        "deltaTime": 0,
        "channel": 9,
        "note": 38,
        "velocity": 0
      },
      {
        "type": "midi",
        "subType": "noteOn",
        "typeByte": 153,
        "deltaTime": 24,
        "channel": 9,
        "note": 61,
        "velocity": 127
      },
      {
        "type": "midi",
        "subType": "noteOn",
        "typeByte": 153,
        "deltaTime": 0,
        "channel": 9,
        "note": 42,
        "velocity": 127
      },
      {
        "type": "midi",
        "subType": "noteOff",
        "typeByte": 153,
        "deltaTime": 19,
        "channel": 9,
        "note": 42,
        "velocity": 0
      },
      {
        "type": "midi",
        "subType": "noteOff",
        "typeByte": 153,
        "deltaTime": 4,
        "channel": 9,
        "note": 61,
        "velocity": 0
      },
      {
        "type": "midi",
        "subType": "noteOn",
        "typeByte": 153,
        "deltaTime": 26,
        "channel": 9,
        "note": 36,
        "velocity": 127
      },
      {
        "type": "midi",
        "subType": "noteOn",
        "typeByte": 153,
        "deltaTime": 0,
        "channel": 9,
        "note": 61,
        "velocity": 127
      },
      {
        "type": "midi",
        "subType": "noteOn",
        "typeByte": 153,
        "deltaTime": 0,
        "channel": 9,
        "note": 51,
        "velocity": 127
      },
      {
        "type": "midi",
        "subType": "noteOn",
        "typeByte": 153,
        "deltaTime": 1,
        "channel": 9,
        "note": 40,
        "velocity": 127
      },
      {
        "type": "midi",
        "subType": "noteOn",
        "typeByte": 153,
        "deltaTime": 0,
        "channel": 9,
        "note": 42,
        "velocity": 127
      },
      {
        "type": "midi",
        "subType": "noteOff",
        "typeByte": 153,
        "deltaTime": 18,
        "channel": 9,
        "note": 42,
        "velocity": 0
      },
      {
        "type": "midi",
        "subType": "noteOff",
        "typeByte": 153,
        "deltaTime": 4,
        "channel": 9,
        "note": 36,
        "velocity": 0
      },
      {
        "type": "midi",
        "subType": "noteOff",
        "typeByte": 153,
        "deltaTime": 0,
        "channel": 9,
        "note": 61,
        "velocity": 0
      },
      {
        "type": "midi",
        "subType": "noteOn",
        "typeByte": 153,
        "deltaTime": 24,
        "channel": 9,
        "note": 36,
        "velocity": 127
      },
      {
        "type": "midi",
        "subType": "noteOn",
        "typeByte": 153,
        "deltaTime": 0,
        "channel": 9,
        "note": 61,
        "velocity": 127
      },
      {
        "type": "midi",
        "subType": "noteOn",
        "typeByte": 153,
        "deltaTime": 1,
        "channel": 9,
        "note": 42,
        "velocity": 127
      },
      {
        "type": "midi",
        "subType": "noteOff",
        "typeByte": 153,
        "deltaTime": 21,
        "channel": 9,
        "note": 42,
        "velocity": 0
      },
      {
        "type": "midi",
        "subType": "noteOff",
        "typeByte": 153,
        "deltaTime": 2,
        "channel": 9,
        "note": 36,
        "velocity": 0
      },
      {
        "type": "midi",
        "subType": "noteOff",
        "typeByte": 153,
        "deltaTime": 0,
        "channel": 9,
        "note": 61,
        "velocity": 0
      },
      {
        "type": "midi",
        "subType": "noteOff",
        "typeByte": 153,
        "deltaTime": 16,
        "channel": 9,
        "note": 51,
        "velocity": 0
      },
      {
        "type": "midi",
        "subType": "noteOff",
        "typeByte": 153,
        "deltaTime": 1,
        "channel": 9,
        "note": 40,
        "velocity": 0
      },
      {
        "type": "midi",
        "subType": "noteOn",
        "typeByte": 153,
        "deltaTime": 8,
        "channel": 9,
        "note": 38,
        "velocity": 127
      },
      {
        "type": "midi",
        "subType": "noteOn",
        "typeByte": 153,
        "deltaTime": 0,
        "channel": 9,
        "note": 61,
        "velocity": 127
      },
      {
        "type": "midi",
        "subType": "noteOn",
        "typeByte": 153,
        "deltaTime": 1,
        "channel": 9,
        "note": 42,
        "velocity": 127
      },
      {
        "type": "midi",
        "subType": "noteOff",
        "typeByte": 153,
        "deltaTime": 22,
        "channel": 9,
        "note": 61,
        "velocity": 0
      },
      {
        "type": "midi",
        "subType": "noteOff",
        "typeByte": 153,
        "deltaTime": 0,
        "channel": 9,
        "note": 38,
        "velocity": 0
      },
      {
        "type": "midi",
        "subType": "noteOff",
        "typeByte": 153,
        "deltaTime": 2,
        "channel": 9,
        "note": 42,
        "velocity": 0
      },
      {
        "type": "midi",
        "subType": "noteOn",
        "typeByte": 153,
        "deltaTime": 23,
        "channel": 9,
        "note": 61,
        "velocity": 127
      },
      {
        "type": "midi",
        "subType": "noteOn",
        "typeByte": 153,
        "deltaTime": 0,
        "channel": 9,
        "note": 42,
        "velocity": 127
      },
      {
        "type": "midi",
        "subType": "noteOff",
        "typeByte": 153,
        "deltaTime": 23,
        "channel": 9,
        "note": 61,
        "velocity": 0
      },
      {
        "type": "midi",
        "subType": "noteOff",
        "typeByte": 153,
        "deltaTime": 4,
        "channel": 9,
        "note": 42,
        "velocity": 0
      },
      {
        "type": "midi",
        "subType": "noteOn",
        "typeByte": 153,
        "deltaTime": 22,
        "channel": 9,
        "note": 36,
        "velocity": 127
      },
      {
        "type": "midi",
        "subType": "noteOn",
        "typeByte": 153,
        "deltaTime": 0,
        "channel": 9,
        "note": 61,
        "velocity": 127
      },
      {
        "type": "midi",
        "subType": "noteOn",
        "typeByte": 153,
        "deltaTime": 0,
        "channel": 9,
        "note": 42,
        "velocity": 127
      },
      {
        "type": "midi",
        "subType": "noteOff",
        "typeByte": 153,
        "deltaTime": 23,
        "channel": 9,
        "note": 61,
        "velocity": 0
      },
      {
        "type": "midi",
        "subType": "noteOff",
        "typeByte": 153,
        "deltaTime": 0,
        "channel": 9,
        "note": 36,
        "velocity": 0
      },
      {
        "type": "midi",
        "subType": "noteOff",
        "typeByte": 153,
        "deltaTime": 12,
        "channel": 9,
        "note": 42,
        "velocity": 0
      },
      {
        "type": "midi",
        "subType": "noteOn",
        "typeByte": 153,
        "deltaTime": 12,
        "channel": 9,
        "note": 61,
        "velocity": 127
      },
      {
        "type": "midi",
        "subType": "noteOn",
        "typeByte": 153,
        "deltaTime": 0,
        "channel": 9,
        "note": 42,
        "velocity": 127
      },
      {
        "type": "midi",
        "subType": "noteOff",
        "typeByte": 153,
        "deltaTime": 23,
        "channel": 9,
        "note": 61,
        "velocity": 0
      },
      {
        "type": "midi",
        "subType": "noteOff",
        "typeByte": 153,
        "deltaTime": 1,
        "channel": 9,
        "note": 42,
        "velocity": 0
      },
      {
        "type": "midi",
        "subType": "noteOn",
        "typeByte": 153,
        "deltaTime": 25,
        "channel": 9,
        "note": 38,
        "velocity": 127
      },
      {
        "type": "midi",
        "subType": "noteOn",
        "typeByte": 153,
        "deltaTime": 0,
        "channel": 9,
        "note": 61,
        "velocity": 127
      },
      {
        "type": "midi",
        "subType": "noteOn",
        "typeByte": 153,
        "deltaTime": 0,
        "channel": 9,
        "note": 42,
        "velocity": 127
      },
      {
        "type": "midi",
        "subType": "noteOff",
        "typeByte": 153,
        "deltaTime": 19,
        "channel": 9,
        "note": 42,
        "velocity": 0
      },
      {
        "type": "midi",
        "subType": "noteOff",
        "typeByte": 153,
        "deltaTime": 4,
        "channel": 9,
        "note": 61,
        "velocity": 0
      },
      {
        "type": "midi",
        "subType": "noteOff",
        "typeByte": 153,
        "deltaTime": 0,
        "channel": 9,
        "note": 38,
        "velocity": 0
      },
      {
        "type": "midi",
        "subType": "noteOn",
        "typeByte": 153,
        "deltaTime": 24,
        "channel": 9,
        "note": 61,
        "velocity": 127
      },
      {
        "type": "midi",
        "subType": "noteOn",
        "typeByte": 153,
        "deltaTime": 1,
        "channel": 9,
        "note": 42,
        "velocity": 127
      },
      {
        "type": "midi",
        "subType": "noteOff",
        "typeByte": 153,
        "deltaTime": 20,
        "channel": 9,
        "note": 42,
        "velocity": 0
      },
      {
        "type": "midi",
        "subType": "noteOff",
        "typeByte": 153,
        "deltaTime": 2,
        "channel": 9,
        "note": 61,
        "velocity": 0
      },
      {
        "type": "midi",
        "subType": "noteOn",
        "typeByte": 153,
        "deltaTime": 26,
        "channel": 9,
        "note": 36,
        "velocity": 127
      },
      {
        "type": "midi",
        "subType": "noteOn",
        "typeByte": 153,
        "deltaTime": 0,
        "channel": 9,
        "note": 61,
        "velocity": 127
      },
      {
        "type": "midi",
        "subType": "noteOn",
        "typeByte": 153,
        "deltaTime": 1,
        "channel": 9,
        "note": 40,
        "velocity": 127
      },
      {
        "type": "midi",
        "subType": "noteOn",
        "typeByte": 153,
        "deltaTime": 0,
        "channel": 9,
        "note": 51,
        "velocity": 127
      },
      {
        "type": "midi",
        "subType": "noteOn",
        "typeByte": 153,
        "deltaTime": 0,
        "channel": 9,
        "note": 42,
        "velocity": 127
      },
      {
        "type": "midi",
        "subType": "noteOff",
        "typeByte": 153,
        "deltaTime": 20,
        "channel": 9,
        "note": 42,
        "velocity": 0
      },
      {
        "type": "midi",
        "subType": "noteOff",
        "typeByte": 153,
        "deltaTime": 2,
        "channel": 9,
        "note": 36,
        "velocity": 0
      },
      {
        "type": "midi",
        "subType": "noteOff",
        "typeByte": 153,
        "deltaTime": 0,
        "channel": 9,
        "note": 61,
        "velocity": 0
      },
      {
        "type": "midi",
        "subType": "noteOn",
        "typeByte": 153,
        "deltaTime": 25,
        "channel": 9,
        "note": 36,
        "velocity": 127
      },
      {
        "type": "midi",
        "subType": "noteOn",
        "typeByte": 153,
        "deltaTime": 0,
        "channel": 9,
        "note": 61,
        "velocity": 127
      },
      {
        "type": "midi",
        "subType": "noteOn",
        "typeByte": 153,
        "deltaTime": 0,
        "channel": 9,
        "note": 42,
        "velocity": 127
      },
      {
        "type": "midi",
        "subType": "noteOff",
        "typeByte": 153,
        "deltaTime": 20,
        "channel": 9,
        "note": 42,
        "velocity": 0
      },
      {
        "type": "midi",
        "subType": "noteOff",
        "typeByte": 153,
        "deltaTime": 3,
        "channel": 9,
        "note": 36,
        "velocity": 0
      },
      {
        "type": "midi",
        "subType": "noteOff",
        "typeByte": 153,
        "deltaTime": 0,
        "channel": 9,
        "note": 61,
        "velocity": 0
      },
      {
        "type": "midi",
        "subType": "noteOff",
        "typeByte": 153,
        "deltaTime": 25,
        "channel": 9,
        "note": 40,
        "velocity": 0
      },
      {
        "type": "midi",
        "subType": "noteOn",
        "typeByte": 153,
        "deltaTime": 1,
        "channel": 9,
        "note": 38,
        "velocity": 127
      },
      {
        "type": "midi",
        "subType": "noteOn",
        "typeByte": 153,
        "deltaTime": 0,
        "channel": 9,
        "note": 61,
        "velocity": 127
      },
      {
        "type": "midi",
        "subType": "noteOn",
        "typeByte": 153,
        "deltaTime": 0,
        "channel": 9,
        "note": 42,
        "velocity": 127
      },
      {
        "type": "midi",
        "subType": "noteOff",
        "typeByte": 153,
        "deltaTime": 5,
        "channel": 9,
        "note": 51,
        "velocity": 0
      },
      {
        "type": "midi",
        "subType": "noteOff",
        "typeByte": 153,
        "deltaTime": 18,
        "channel": 9,
        "note": 38,
        "velocity": 0
      },
      {
        "type": "midi",
        "subType": "noteOff",
        "typeByte": 153,
        "deltaTime": 0,
        "channel": 9,
        "note": 61,
        "velocity": 0
      },
      {
        "type": "midi",
        "subType": "noteOff",
        "typeByte": 153,
        "deltaTime": 0,
        "channel": 9,
        "note": 42,
        "velocity": 0
      },
      {
        "type": "midi",
        "subType": "noteOn",
        "typeByte": 153,
        "deltaTime": 24,
        "channel": 9,
        "note": 61,
        "velocity": 127
      },
      {
        "type": "midi",
        "subType": "noteOn",
        "typeByte": 153,
        "deltaTime": 0,
        "channel": 9,
        "note": 42,
        "velocity": 127
      },
      {
        "type": "midi",
        "subType": "noteOff",
        "typeByte": 153,
        "deltaTime": 23,
        "channel": 9,
        "note": 42,
        "velocity": 0
      },
      {
        "type": "midi",
        "subType": "noteOff",
        "typeByte": 153,
        "deltaTime": 0,
        "channel": 9,
        "note": 61,
        "velocity": 0
      },
      {
        "type": "midi",
        "subType": "noteOn",
        "typeByte": 153,
        "deltaTime": 26,
        "channel": 9,
        "note": 36,
        "velocity": 127
      },
      {
        "type": "midi",
        "subType": "noteOn",
        "typeByte": 153,
        "deltaTime": 0,
        "channel": 9,
        "note": 61,
        "velocity": 127
      },
      {
        "type": "midi",
        "subType": "noteOn",
        "typeByte": 153,
        "deltaTime": 0,
        "channel": 9,
        "note": 42,
        "velocity": 127
      },
      {
        "type": "midi",
        "subType": "noteOff",
        "typeByte": 153,
        "deltaTime": 23,
        "channel": 9,
        "note": 61,
        "velocity": 0
      },
      {
        "type": "midi",
        "subType": "noteOff",
        "typeByte": 153,
        "deltaTime": 0,
        "channel": 9,
        "note": 36,
        "velocity": 0
      },
      {
        "type": "midi",
        "subType": "noteOff",
        "typeByte": 153,
        "deltaTime": 7,
        "channel": 9,
        "note": 42,
        "velocity": 0
      },
      {
        "type": "midi",
        "subType": "noteOn",
        "typeByte": 153,
        "deltaTime": 17,
        "channel": 9,
        "note": 61,
        "velocity": 127
      },
      {
        "type": "midi",
        "subType": "noteOn",
        "typeByte": 153,
        "deltaTime": 0,
        "channel": 9,
        "note": 42,
        "velocity": 127
      },
      {
        "type": "midi",
        "subType": "noteOff",
        "typeByte": 153,
        "deltaTime": 23,
        "channel": 9,
        "note": 42,
        "velocity": 0
      },
      {
        "type": "midi",
        "subType": "noteOff",
        "typeByte": 153,
        "deltaTime": 0,
        "channel": 9,
        "note": 61,
        "velocity": 0
      },
      {
        "type": "midi",
        "subType": "noteOn",
        "typeByte": 153,
        "deltaTime": 26,
        "channel": 9,
        "note": 38,
        "velocity": 127
      },
      {
        "type": "midi",
        "subType": "noteOn",
        "typeByte": 153,
        "deltaTime": 0,
        "channel": 9,
        "note": 61,
        "velocity": 127
      },
      {
        "type": "midi",
        "subType": "noteOn",
        "typeByte": 153,
        "deltaTime": 1,
        "channel": 9,
        "note": 42,
        "velocity": 127
      },
      {
        "type": "midi",
        "subType": "noteOff",
        "typeByte": 153,
        "deltaTime": 19,
        "channel": 9,
        "note": 42,
        "velocity": 0
      },
      {
        "type": "midi",
        "subType": "noteOff",
        "typeByte": 153,
        "deltaTime": 3,
        "channel": 9,
        "note": 61,
        "velocity": 0
      },
      {
        "type": "midi",
        "subType": "noteOff",
        "typeByte": 153,
        "deltaTime": 0,
        "channel": 9,
        "note": 38,
        "velocity": 0
      },
      {
        "type": "midi",
        "subType": "noteOn",
        "typeByte": 153,
        "deltaTime": 25,
        "channel": 9,
        "note": 61,
        "velocity": 127
      },
      {
        "type": "midi",
        "subType": "noteOn",
        "typeByte": 153,
        "deltaTime": 0,
        "channel": 9,
        "note": 42,
        "velocity": 127
      },
      {
        "type": "midi",
        "subType": "noteOff",
        "typeByte": 153,
        "deltaTime": 23,
        "channel": 9,
        "note": 42,
        "velocity": 0
      },
      {
        "type": "midi",
        "subType": "noteOff",
        "typeByte": 153,
        "deltaTime": 0,
        "channel": 9,
        "note": 61,
        "velocity": 0
      },
      {
        "type": "midi",
        "subType": "noteOn",
        "typeByte": 153,
        "deltaTime": 25,
        "channel": 9,
        "note": 36,
        "velocity": 127
      },
      {
        "type": "midi",
        "subType": "noteOn",
        "typeByte": 153,
        "deltaTime": 0,
        "channel": 9,
        "note": 61,
        "velocity": 127
      },
      {
        "type": "midi",
        "subType": "noteOn",
        "typeByte": 153,
        "deltaTime": 1,
        "channel": 9,
        "note": 51,
        "velocity": 127
      },
      {
        "type": "midi",
        "subType": "noteOn",
        "typeByte": 153,
        "deltaTime": 0,
        "channel": 9,
        "note": 40,
        "velocity": 127
      },
      {
        "type": "midi",
        "subType": "noteOn",
        "typeByte": 153,
        "deltaTime": 0,
        "channel": 9,
        "note": 42,
        "velocity": 127
      },
      {
        "type": "midi",
        "subType": "noteOff",
        "typeByte": 153,
        "deltaTime": 22,
        "channel": 9,
        "note": 42,
        "velocity": 0
      },
      {
        "type": "midi",
        "subType": "noteOff",
        "typeByte": 153,
        "deltaTime": 0,
        "channel": 9,
        "note": 36,
        "velocity": 0
      },
      {
        "type": "midi",
        "subType": "noteOff",
        "typeByte": 153,
        "deltaTime": 1,
        "channel": 9,
        "note": 61,
        "velocity": 0
      },
      {
        "type": "midi",
        "subType": "noteOn",
        "typeByte": 153,
        "deltaTime": 24,
        "channel": 9,
        "note": 36,
        "velocity": 127
      },
      {
        "type": "midi",
        "subType": "noteOn",
        "typeByte": 153,
        "deltaTime": 0,
        "channel": 9,
        "note": 61,
        "velocity": 127
      },
      {
        "type": "midi",
        "subType": "noteOn",
        "typeByte": 153,
        "deltaTime": 0,
        "channel": 9,
        "note": 42,
        "velocity": 127
      },
      {
        "type": "midi",
        "subType": "noteOff",
        "typeByte": 153,
        "deltaTime": 23,
        "channel": 9,
        "note": 61,
        "velocity": 0
      },
      {
        "type": "midi",
        "subType": "noteOff",
        "typeByte": 153,
        "deltaTime": 0,
        "channel": 9,
        "note": 36,
        "velocity": 0
      },
      {
        "type": "midi",
        "subType": "noteOff",
        "typeByte": 153,
        "deltaTime": 1,
        "channel": 9,
        "note": 42,
        "velocity": 0
      },
      {
        "type": "midi",
        "subType": "noteOff",
        "typeByte": 153,
        "deltaTime": 15,
        "channel": 9,
        "note": 51,
        "velocity": 0
      },
      {
        "type": "midi",
        "subType": "noteOff",
        "typeByte": 153,
        "deltaTime": 1,
        "channel": 9,
        "note": 40,
        "velocity": 0
      },
      {
        "type": "midi",
        "subType": "noteOn",
        "typeByte": 153,
        "deltaTime": 9,
        "channel": 9,
        "note": 38,
        "velocity": 127
      },
      {
        "type": "midi",
        "subType": "noteOn",
        "typeByte": 153,
        "deltaTime": 0,
        "channel": 9,
        "note": 61,
        "velocity": 127
      },
      {
        "type": "midi",
        "subType": "noteOn",
        "typeByte": 153,
        "deltaTime": 0,
        "channel": 9,
        "note": 42,
        "velocity": 127
      },
      {
        "type": "midi",
        "subType": "noteOff",
        "typeByte": 153,
        "deltaTime": 20,
        "channel": 9,
        "note": 42,
        "velocity": 0
      },
      {
        "type": "midi",
        "subType": "noteOff",
        "typeByte": 153,
        "deltaTime": 3,
        "channel": 9,
        "note": 61,
        "velocity": 0
      },
      {
        "type": "midi",
        "subType": "noteOff",
        "typeByte": 153,
        "deltaTime": 0,
        "channel": 9,
        "note": 38,
        "velocity": 0
      },
      {
        "type": "midi",
        "subType": "noteOn",
        "typeByte": 153,
        "deltaTime": 24,
        "channel": 9,
        "note": 61,
        "velocity": 127
      },
      {
        "type": "midi",
        "subType": "noteOn",
        "typeByte": 153,
        "deltaTime": 0,
        "channel": 9,
        "note": 42,
        "velocity": 127
      },
      {
        "type": "midi",
        "subType": "noteOff",
        "typeByte": 153,
        "deltaTime": 23,
        "channel": 9,
        "note": 42,
        "velocity": 0
      },
      {
        "type": "midi",
        "subType": "noteOff",
        "typeByte": 153,
        "deltaTime": 0,
        "channel": 9,
        "note": 61,
        "velocity": 0
      },
      {
        "type": "midi",
        "subType": "noteOn",
        "typeByte": 153,
        "deltaTime": 26,
        "channel": 9,
        "note": 36,
        "velocity": 127
      },
      {
        "type": "midi",
        "subType": "noteOn",
        "typeByte": 153,
        "deltaTime": 0,
        "channel": 9,
        "note": 61,
        "velocity": 127
      },
      {
        "type": "midi",
        "subType": "noteOn",
        "typeByte": 153,
        "deltaTime": 0,
        "channel": 9,
        "note": 42,
        "velocity": 127
      },
      {
        "type": "midi",
        "subType": "noteOn",
        "typeByte": 153,
        "deltaTime": 1,
        "channel": 9,
        "note": 49,
        "velocity": 127
      },
      {
        "type": "midi",
        "subType": "controller",
        "typeByte": 185,
        "deltaTime": 7,
        "channel": 9,
        "controllerType": 66,
        "value": 0
      },
      {
        "type": "midi",
        "subType": "controller",
        "typeByte": 185,
        "deltaTime": 4,
        "channel": 9,
        "controllerType": 66,
        "value": 0
      },
      {
        "type": "midi",
        "subType": "controller",
        "typeByte": 185,
        "deltaTime": 4,
        "channel": 9,
        "controllerType": 66,
        "value": 0
      },
      {
        "type": "midi",
        "subType": "noteOff",
        "typeByte": 153,
        "deltaTime": 7,
        "channel": 9,
        "note": 61,
        "velocity": 0
      },
      {
        "type": "midi",
        "subType": "noteOff",
        "typeByte": 153,
        "deltaTime": 0,
        "channel": 9,
        "note": 36,
        "velocity": 0
      },
      {
        "type": "midi",
        "subType": "noteOff",
        "typeByte": 153,
        "deltaTime": 2,
        "channel": 9,
        "note": 42,
        "velocity": 0
      },
      {
        "type": "midi",
        "subType": "noteOn",
        "typeByte": 153,
        "deltaTime": 22,
        "channel": 9,
        "note": 61,
        "velocity": 127
      },
      {
        "type": "midi",
        "subType": "noteOn",
        "typeByte": 153,
        "deltaTime": 0,
        "channel": 9,
        "note": 42,
        "velocity": 127
      },
      {
        "type": "midi",
        "subType": "noteOff",
        "typeByte": 153,
        "deltaTime": 21,
        "channel": 9,
        "note": 42,
        "velocity": 0
      },
      {
        "type": "midi",
        "subType": "noteOff",
        "typeByte": 153,
        "deltaTime": 2,
        "channel": 9,
        "note": 61,
        "velocity": 0
      },
      {
        "type": "midi",
        "subType": "noteOn",
        "typeByte": 153,
        "deltaTime": 26,
        "channel": 9,
        "note": 38,
        "velocity": 127
      },
      {
        "type": "midi",
        "subType": "noteOn",
        "typeByte": 153,
        "deltaTime": 1,
        "channel": 9,
        "note": 61,
        "velocity": 127
      },
      {
        "type": "midi",
        "subType": "noteOn",
        "typeByte": 153,
        "deltaTime": 0,
        "channel": 9,
        "note": 42,
        "velocity": 127
      },
      {
        "type": "midi",
        "subType": "noteOff",
        "typeByte": 153,
        "deltaTime": 21,
        "channel": 9,
        "note": 42,
        "velocity": 0
      },
      {
        "type": "midi",
        "subType": "noteOff",
        "typeByte": 153,
        "deltaTime": 1,
        "channel": 9,
        "note": 61,
        "velocity": 0
      },
      {
        "type": "midi",
        "subType": "noteOff",
        "typeByte": 153,
        "deltaTime": 0,
        "channel": 9,
        "note": 38,
        "velocity": 0
      },
      {
        "type": "midi",
        "subType": "noteOn",
        "typeByte": 153,
        "deltaTime": 25,
        "channel": 9,
        "note": 61,
        "velocity": 127
      },
      {
        "type": "midi",
        "subType": "noteOn",
        "typeByte": 153,
        "deltaTime": 0,
        "channel": 9,
        "note": 42,
        "velocity": 127
      },
      {
        "type": "midi",
        "subType": "noteOff",
        "typeByte": 153,
        "deltaTime": 23,
        "channel": 9,
        "note": 42,
        "velocity": 0
      },
      {
        "type": "midi",
        "subType": "noteOff",
        "typeByte": 153,
        "deltaTime": 0,
        "channel": 9,
        "note": 61,
        "velocity": 0
      },
      {
        "type": "midi",
        "subType": "noteOn",
        "typeByte": 153,
        "deltaTime": 26,
        "channel": 9,
        "note": 36,
        "velocity": 127
      },
      {
        "type": "midi",
        "subType": "noteOn",
        "typeByte": 153,
        "deltaTime": 0,
        "channel": 9,
        "note": 61,
        "velocity": 127
      },
      {
        "type": "midi",
        "subType": "noteOn",
        "typeByte": 153,
        "deltaTime": 0,
        "channel": 9,
        "note": 40,
        "velocity": 127
      },
      {
        "type": "midi",
        "subType": "noteOn",
        "typeByte": 153,
        "deltaTime": 0,
        "channel": 9,
        "note": 51,
        "velocity": 127
      },
      {
        "type": "midi",
        "subType": "noteOn",
        "typeByte": 153,
        "deltaTime": 0,
        "channel": 9,
        "note": 42,
        "velocity": 127
      },
      {
        "type": "midi",
        "subType": "noteOff",
        "typeByte": 153,
        "deltaTime": 23,
        "channel": 9,
        "note": 42,
        "velocity": 0
      },
      {
        "type": "midi",
        "subType": "noteOff",
        "typeByte": 153,
        "deltaTime": 0,
        "channel": 9,
        "note": 36,
        "velocity": 0
      },
      {
        "type": "midi",
        "subType": "noteOff",
        "typeByte": 153,
        "deltaTime": 0,
        "channel": 9,
        "note": 61,
        "velocity": 0
      },
      {
        "type": "midi",
        "subType": "noteOn",
        "typeByte": 153,
        "deltaTime": 24,
        "channel": 9,
        "note": 36,
        "velocity": 127
      },
      {
        "type": "midi",
        "subType": "noteOn",
        "typeByte": 153,
        "deltaTime": 0,
        "channel": 9,
        "note": 61,
        "velocity": 127
      },
      {
        "type": "midi",
        "subType": "noteOn",
        "typeByte": 153,
        "deltaTime": 1,
        "channel": 9,
        "note": 42,
        "velocity": 127
      },
      {
        "type": "midi",
        "subType": "noteOff",
        "typeByte": 153,
        "deltaTime": 22,
        "channel": 9,
        "note": 61,
        "velocity": 0
      },
      {
        "type": "midi",
        "subType": "noteOff",
        "typeByte": 153,
        "deltaTime": 0,
        "channel": 9,
        "note": 36,
        "velocity": 0
      },
      {
        "type": "midi",
        "subType": "noteOff",
        "typeByte": 153,
        "deltaTime": 3,
        "channel": 9,
        "note": 42,
        "velocity": 0
      },
      {
        "type": "midi",
        "subType": "noteOff",
        "typeByte": 153,
        "deltaTime": 23,
        "channel": 9,
        "note": 40,
        "velocity": 0
      },
      {
        "type": "midi",
        "subType": "noteOn",
        "typeByte": 153,
        "deltaTime": 0,
        "channel": 9,
        "note": 38,
        "velocity": 127
      },
      {
        "type": "midi",
        "subType": "noteOn",
        "typeByte": 153,
        "deltaTime": 0,
        "channel": 9,
        "note": 61,
        "velocity": 127
      },
      {
        "type": "midi",
        "subType": "noteOn",
        "typeByte": 153,
        "deltaTime": 1,
        "channel": 9,
        "note": 42,
        "velocity": 127
      },
      {
        "type": "midi",
        "subType": "noteOff",
        "typeByte": 153,
        "deltaTime": 4,
        "channel": 9,
        "note": 51,
        "velocity": 0
      },
      {
        "type": "midi",
        "subType": "noteOff",
        "typeByte": 153,
        "deltaTime": 18,
        "channel": 9,
        "note": 61,
        "velocity": 0
      },
      {
        "type": "midi",
        "subType": "noteOff",
        "typeByte": 153,
        "deltaTime": 0,
        "channel": 9,
        "note": 38,
        "velocity": 0
      },
      {
        "type": "midi",
        "subType": "noteOff",
        "typeByte": 153,
        "deltaTime": 1,
        "channel": 9,
        "note": 42,
        "velocity": 0
      },
      {
        "type": "midi",
        "subType": "noteOn",
        "typeByte": 153,
        "deltaTime": 23,
        "channel": 9,
        "note": 61,
        "velocity": 127
      },
      {
        "type": "midi",
        "subType": "noteOn",
        "typeByte": 153,
        "deltaTime": 0,
        "channel": 9,
        "note": 42,
        "velocity": 127
      },
      {
        "type": "midi",
        "subType": "noteOff",
        "typeByte": 153,
        "deltaTime": 3,
        "channel": 9,
        "note": 49,
        "velocity": 0
      },
      {
        "type": "midi",
        "subType": "noteOff",
        "typeByte": 153,
        "deltaTime": 20,
        "channel": 9,
        "note": 61,
        "velocity": 0
      },
      {
        "type": "midi",
        "subType": "noteOff",
        "typeByte": 153,
        "deltaTime": 3,
        "channel": 9,
        "note": 42,
        "velocity": 0
      },
      {
        "type": "midi",
        "subType": "noteOn",
        "typeByte": 153,
        "deltaTime": 23,
        "channel": 9,
        "note": 36,
        "velocity": 127
      },
      {
        "type": "midi",
        "subType": "noteOn",
        "typeByte": 153,
        "deltaTime": 0,
        "channel": 9,
        "note": 61,
        "velocity": 127
      },
      {
        "type": "midi",
        "subType": "noteOn",
        "typeByte": 153,
        "deltaTime": 1,
        "channel": 9,
        "note": 42,
        "velocity": 127
      },
      {
        "type": "midi",
        "subType": "noteOff",
        "typeByte": 153,
        "deltaTime": 22,
        "channel": 9,
        "note": 61,
        "velocity": 0
      },
      {
        "type": "midi",
        "subType": "noteOff",
        "typeByte": 153,
        "deltaTime": 0,
        "channel": 9,
        "note": 36,
        "velocity": 0
      },
      {
        "type": "midi",
        "subType": "noteOff",
        "typeByte": 153,
        "deltaTime": 6,
        "channel": 9,
        "note": 42,
        "velocity": 0
      },
      {
        "type": "midi",
        "subType": "noteOn",
        "typeByte": 153,
        "deltaTime": 19,
        "channel": 9,
        "note": 61,
        "velocity": 127
      },
      {
        "type": "midi",
        "subType": "noteOn",
        "typeByte": 153,
        "deltaTime": 0,
        "channel": 9,
        "note": 42,
        "velocity": 127
      },
      {
        "type": "midi",
        "subType": "noteOff",
        "typeByte": 153,
        "deltaTime": 23,
        "channel": 9,
        "note": 42,
        "velocity": 0
      },
      {
        "type": "midi",
        "subType": "noteOff",
        "typeByte": 153,
        "deltaTime": 0,
        "channel": 9,
        "note": 61,
        "velocity": 0
      },
      {
        "type": "midi",
        "subType": "noteOn",
        "typeByte": 153,
        "deltaTime": 25,
        "channel": 9,
        "note": 38,
        "velocity": 127
      },
      {
        "type": "midi",
        "subType": "noteOn",
        "typeByte": 153,
        "deltaTime": 0,
        "channel": 9,
        "note": 61,
        "velocity": 127
      },
      {
        "type": "midi",
        "subType": "noteOn",
        "typeByte": 153,
        "deltaTime": 1,
        "channel": 9,
        "note": 42,
        "velocity": 127
      },
      {
        "type": "midi",
        "subType": "noteOff",
        "typeByte": 153,
        "deltaTime": 22,
        "channel": 9,
        "note": 42,
        "velocity": 0
      },
      {
        "type": "midi",
        "subType": "noteOff",
        "typeByte": 153,
        "deltaTime": 0,
        "channel": 9,
        "note": 38,
        "velocity": 0
      },
      {
        "type": "midi",
        "subType": "noteOff",
        "typeByte": 153,
        "deltaTime": 1,
        "channel": 9,
        "note": 61,
        "velocity": 0
      },
      {
        "type": "midi",
        "subType": "noteOn",
        "typeByte": 153,
        "deltaTime": 24,
        "channel": 9,
        "note": 61,
        "velocity": 127
      },
      {
        "type": "midi",
        "subType": "noteOn",
        "typeByte": 153,
        "deltaTime": 0,
        "channel": 9,
        "note": 42,
        "velocity": 127
      },
      {
        "type": "midi",
        "subType": "noteOff",
        "typeByte": 153,
        "deltaTime": 23,
        "channel": 9,
        "note": 61,
        "velocity": 0
      },
      {
        "type": "midi",
        "subType": "noteOff",
        "typeByte": 153,
        "deltaTime": 1,
        "channel": 9,
        "note": 42,
        "velocity": 0
      },
      {
        "type": "midi",
        "subType": "noteOn",
        "typeByte": 153,
        "deltaTime": 25,
        "channel": 9,
        "note": 36,
        "velocity": 127
      },
      {
        "type": "midi",
        "subType": "noteOn",
        "typeByte": 153,
        "deltaTime": 0,
        "channel": 9,
        "note": 61,
        "velocity": 127
      },
      {
        "type": "midi",
        "subType": "noteOn",
        "typeByte": 153,
        "deltaTime": 0,
        "channel": 9,
        "note": 51,
        "velocity": 127
      },
      {
        "type": "midi",
        "subType": "noteOn",
        "typeByte": 153,
        "deltaTime": 0,
        "channel": 9,
        "note": 40,
        "velocity": 127
      },
      {
        "type": "midi",
        "subType": "noteOn",
        "typeByte": 153,
        "deltaTime": 1,
        "channel": 9,
        "note": 42,
        "velocity": 127
      },
      {
        "type": "midi",
        "subType": "noteOff",
        "typeByte": 153,
        "deltaTime": 22,
        "channel": 9,
        "note": 61,
        "velocity": 0
      },
      {
        "type": "midi",
        "subType": "noteOff",
        "typeByte": 153,
        "deltaTime": 0,
        "channel": 9,
        "note": 36,
        "velocity": 0
      },
      {
        "type": "midi",
        "subType": "noteOff",
        "typeByte": 153,
        "deltaTime": 1,
        "channel": 9,
        "note": 42,
        "velocity": 0
      },
      {
        "type": "midi",
        "subType": "noteOn",
        "typeByte": 153,
        "deltaTime": 23,
        "channel": 9,
        "note": 36,
        "velocity": 127
      },
      {
        "type": "midi",
        "subType": "noteOn",
        "typeByte": 153,
        "deltaTime": 0,
        "channel": 9,
        "note": 61,
        "velocity": 127
      },
      {
        "type": "midi",
        "subType": "noteOn",
        "typeByte": 153,
        "deltaTime": 1,
        "channel": 9,
        "note": 42,
        "velocity": 127
      },
      {
        "type": "midi",
        "subType": "noteOff",
        "typeByte": 153,
        "deltaTime": 22,
        "channel": 9,
        "note": 61,
        "velocity": 0
      },
      {
        "type": "midi",
        "subType": "noteOff",
        "typeByte": 153,
        "deltaTime": 0,
        "channel": 9,
        "note": 36,
        "velocity": 0
      },
      {
        "type": "midi",
        "subType": "noteOff",
        "typeByte": 153,
        "deltaTime": 2,
        "channel": 9,
        "note": 42,
        "velocity": 0
      },
      {
        "type": "midi",
        "subType": "noteOff",
        "typeByte": 153,
        "deltaTime": 15,
        "channel": 9,
        "note": 51,
        "velocity": 0
      },
      {
        "type": "midi",
        "subType": "noteOff",
        "typeByte": 153,
        "deltaTime": 1,
        "channel": 9,
        "note": 40,
        "velocity": 0
      },
      {
        "type": "midi",
        "subType": "noteOn",
        "typeByte": 153,
        "deltaTime": 8,
        "channel": 9,
        "note": 38,
        "velocity": 127
      },
      {
        "type": "midi",
        "subType": "noteOn",
        "typeByte": 153,
        "deltaTime": 0,
        "channel": 9,
        "note": 61,
        "velocity": 127
      },
      {
        "type": "midi",
        "subType": "noteOn",
        "typeByte": 153,
        "deltaTime": 1,
        "channel": 9,
        "note": 42,
        "velocity": 127
      },
      {
        "type": "midi",
        "subType": "noteOff",
        "typeByte": 153,
        "deltaTime": 22,
        "channel": 9,
        "note": 61,
        "velocity": 0
      },
      {
        "type": "midi",
        "subType": "noteOff",
        "typeByte": 153,
        "deltaTime": 0,
        "channel": 9,
        "note": 38,
        "velocity": 0
      },
      {
        "type": "midi",
        "subType": "noteOff",
        "typeByte": 153,
        "deltaTime": 1,
        "channel": 9,
        "note": 42,
        "velocity": 0
      },
      {
        "type": "midi",
        "subType": "noteOn",
        "typeByte": 153,
        "deltaTime": 24,
        "channel": 9,
        "note": 61,
        "velocity": 127
      },
      {
        "type": "midi",
        "subType": "noteOn",
        "typeByte": 153,
        "deltaTime": 0,
        "channel": 9,
        "note": 42,
        "velocity": 127
      },
      {
        "type": "midi",
        "subType": "noteOff",
        "typeByte": 153,
        "deltaTime": 23,
        "channel": 9,
        "note": 61,
        "velocity": 0
      },
      {
        "type": "midi",
        "subType": "noteOff",
        "typeByte": 153,
        "deltaTime": 2,
        "channel": 9,
        "note": 42,
        "velocity": 0
      },
      {
        "type": "midi",
        "subType": "noteOn",
        "typeByte": 153,
        "deltaTime": 23,
        "channel": 9,
        "note": 36,
        "velocity": 127
      },
      {
        "type": "midi",
        "subType": "noteOn",
        "typeByte": 153,
        "deltaTime": 1,
        "channel": 9,
        "note": 61,
        "velocity": 127
      },
      {
        "type": "midi",
        "subType": "noteOn",
        "typeByte": 153,
        "deltaTime": 0,
        "channel": 9,
        "note": 42,
        "velocity": 127
      },
      {
        "type": "midi",
        "subType": "noteOff",
        "typeByte": 153,
        "deltaTime": 22,
        "channel": 9,
        "note": 61,
        "velocity": 0
      },
      {
        "type": "midi",
        "subType": "noteOff",
        "typeByte": 153,
        "deltaTime": 0,
        "channel": 9,
        "note": 36,
        "velocity": 0
      },
      {
        "type": "midi",
        "subType": "noteOff",
        "typeByte": 153,
        "deltaTime": 2,
        "channel": 9,
        "note": 42,
        "velocity": 0
      },
      {
        "type": "midi",
        "subType": "noteOn",
        "typeByte": 153,
        "deltaTime": 23,
        "channel": 9,
        "note": 61,
        "velocity": 127
      },
      {
        "type": "midi",
        "subType": "noteOn",
        "typeByte": 153,
        "deltaTime": 0,
        "channel": 9,
        "note": 42,
        "velocity": 127
      },
      {
        "type": "midi",
        "subType": "noteOff",
        "typeByte": 153,
        "deltaTime": 23,
        "channel": 9,
        "note": 61,
        "velocity": 0
      },
      {
        "type": "midi",
        "subType": "noteOff",
        "typeByte": 153,
        "deltaTime": 4,
        "channel": 9,
        "note": 42,
        "velocity": 0
      },
      {
        "type": "midi",
        "subType": "noteOn",
        "typeByte": 153,
        "deltaTime": 22,
        "channel": 9,
        "note": 38,
        "velocity": 127
      },
      {
        "type": "midi",
        "subType": "noteOn",
        "typeByte": 153,
        "deltaTime": 0,
        "channel": 9,
        "note": 61,
        "velocity": 127
      },
      {
        "type": "midi",
        "subType": "noteOn",
        "typeByte": 153,
        "deltaTime": 0,
        "channel": 9,
        "note": 42,
        "velocity": 127
      },
      {
        "type": "midi",
        "subType": "noteOff",
        "typeByte": 153,
        "deltaTime": 23,
        "channel": 9,
        "note": 42,
        "velocity": 0
      },
      {
        "type": "midi",
        "subType": "noteOff",
        "typeByte": 153,
        "deltaTime": 0,
        "channel": 9,
        "note": 61,
        "velocity": 0
      },
      {
        "type": "midi",
        "subType": "noteOff",
        "typeByte": 153,
        "deltaTime": 0,
        "channel": 9,
        "note": 38,
        "velocity": 0
      },
      {
        "type": "midi",
        "subType": "noteOn",
        "typeByte": 153,
        "deltaTime": 24,
        "channel": 9,
        "note": 61,
        "velocity": 127
      },
      {
        "type": "midi",
        "subType": "noteOn",
        "typeByte": 153,
        "deltaTime": 0,
        "channel": 9,
        "note": 42,
        "velocity": 127
      },
      {
        "type": "midi",
        "subType": "noteOff",
        "typeByte": 153,
        "deltaTime": 23,
        "channel": 9,
        "note": 42,
        "velocity": 0
      },
      {
        "type": "midi",
        "subType": "noteOff",
        "typeByte": 153,
        "deltaTime": 0,
        "channel": 9,
        "note": 61,
        "velocity": 0
      },
      {
        "type": "midi",
        "subType": "noteOn",
        "typeByte": 153,
        "deltaTime": 26,
        "channel": 9,
        "note": 36,
        "velocity": 127
      },
      {
        "type": "midi",
        "subType": "noteOn",
        "typeByte": 153,
        "deltaTime": 0,
        "channel": 9,
        "note": 61,
        "velocity": 127
      },
      {
        "type": "midi",
        "subType": "noteOn",
        "typeByte": 153,
        "deltaTime": 0,
        "channel": 9,
        "note": 40,
        "velocity": 127
      },
      {
        "type": "midi",
        "subType": "noteOn",
        "typeByte": 153,
        "deltaTime": 1,
        "channel": 9,
        "note": 51,
        "velocity": 127
      },
      {
        "type": "midi",
        "subType": "noteOn",
        "typeByte": 153,
        "deltaTime": 0,
        "channel": 9,
        "note": 42,
        "velocity": 127
      },
      {
        "type": "midi",
        "subType": "noteOff",
        "typeByte": 153,
        "deltaTime": 22,
        "channel": 9,
        "note": 42,
        "velocity": 0
      },
      {
        "type": "midi",
        "subType": "noteOff",
        "typeByte": 153,
        "deltaTime": 0,
        "channel": 9,
        "note": 36,
        "velocity": 0
      },
      {
        "type": "midi",
        "subType": "noteOff",
        "typeByte": 153,
        "deltaTime": 0,
        "channel": 9,
        "note": 61,
        "velocity": 0
      },
      {
        "type": "midi",
        "subType": "noteOn",
        "typeByte": 153,
        "deltaTime": 24,
        "channel": 9,
        "note": 36,
        "velocity": 127
      },
      {
        "type": "midi",
        "subType": "noteOn",
        "typeByte": 153,
        "deltaTime": 1,
        "channel": 9,
        "note": 61,
        "velocity": 127
      },
      {
        "type": "midi",
        "subType": "noteOn",
        "typeByte": 153,
        "deltaTime": 0,
        "channel": 9,
        "note": 42,
        "velocity": 127
      },
      {
        "type": "midi",
        "subType": "noteOff",
        "typeByte": 153,
        "deltaTime": 22,
        "channel": 9,
        "note": 42,
        "velocity": 0
      },
      {
        "type": "midi",
        "subType": "noteOff",
        "typeByte": 153,
        "deltaTime": 0,
        "channel": 9,
        "note": 36,
        "velocity": 0
      },
      {
        "type": "midi",
        "subType": "noteOff",
        "typeByte": 153,
        "deltaTime": 1,
        "channel": 9,
        "note": 61,
        "velocity": 0
      },
      {
        "type": "midi",
        "subType": "noteOff",
        "typeByte": 153,
        "deltaTime": 25,
        "channel": 9,
        "note": 40,
        "velocity": 0
      },
      {
        "type": "midi",
        "subType": "noteOn",
        "typeByte": 153,
        "deltaTime": 1,
        "channel": 9,
        "note": 38,
        "velocity": 127
      },
      {
        "type": "midi",
        "subType": "noteOn",
        "typeByte": 153,
        "deltaTime": 0,
        "channel": 9,
        "note": 61,
        "velocity": 127
      },
      {
        "type": "midi",
        "subType": "noteOn",
        "typeByte": 153,
        "deltaTime": 0,
        "channel": 9,
        "note": 42,
        "velocity": 127
      },
      {
        "type": "midi",
        "subType": "noteOff",
        "typeByte": 153,
        "deltaTime": 5,
        "channel": 9,
        "note": 51,
        "velocity": 0
      },
      {
        "type": "midi",
        "subType": "noteOff",
        "typeByte": 153,
        "deltaTime": 17,
        "channel": 9,
        "note": 38,
        "velocity": 0
      },
      {
        "type": "midi",
        "subType": "noteOff",
        "typeByte": 153,
        "deltaTime": 0,
        "channel": 9,
        "note": 61,
        "velocity": 0
      },
      {
        "type": "midi",
        "subType": "noteOff",
        "typeByte": 153,
        "deltaTime": 2,
        "channel": 9,
        "note": 42,
        "velocity": 0
      },
      {
        "type": "midi",
        "subType": "noteOn",
        "typeByte": 153,
        "deltaTime": 23,
        "channel": 9,
        "note": 61,
        "velocity": 127
      },
      {
        "type": "midi",
        "subType": "noteOn",
        "typeByte": 153,
        "deltaTime": 0,
        "channel": 9,
        "note": 42,
        "velocity": 127
      },
      {
        "type": "midi",
        "subType": "noteOff",
        "typeByte": 153,
        "deltaTime": 23,
        "channel": 9,
        "note": 42,
        "velocity": 0
      },
      {
        "type": "midi",
        "subType": "noteOff",
        "typeByte": 153,
        "deltaTime": 0,
        "channel": 9,
        "note": 61,
        "velocity": 0
      },
      {
        "type": "midi",
        "subType": "noteOn",
        "typeByte": 153,
        "deltaTime": 26,
        "channel": 9,
        "note": 36,
        "velocity": 127
      },
      {
        "type": "midi",
        "subType": "noteOn",
        "typeByte": 153,
        "deltaTime": 0,
        "channel": 9,
        "note": 61,
        "velocity": 127
      },
      {
        "type": "midi",
        "subType": "noteOn",
        "typeByte": 153,
        "deltaTime": 0,
        "channel": 9,
        "note": 42,
        "velocity": 127
      },
      {
        "type": "midi",
        "subType": "noteOff",
        "typeByte": 153,
        "deltaTime": 17,
        "channel": 9,
        "note": 42,
        "velocity": 0
      },
      {
        "type": "midi",
        "subType": "noteOff",
        "typeByte": 153,
        "deltaTime": 5,
        "channel": 9,
        "note": 36,
        "velocity": 0
      },
      {
        "type": "midi",
        "subType": "noteOff",
        "typeByte": 153,
        "deltaTime": 1,
        "channel": 9,
        "note": 61,
        "velocity": 0
      },
      {
        "type": "midi",
        "subType": "noteOn",
        "typeByte": 153,
        "deltaTime": 24,
        "channel": 9,
        "note": 61,
        "velocity": 127
      },
      {
        "type": "midi",
        "subType": "noteOn",
        "typeByte": 153,
        "deltaTime": 0,
        "channel": 9,
        "note": 42,
        "velocity": 127
      },
      {
        "type": "midi",
        "subType": "noteOff",
        "typeByte": 153,
        "deltaTime": 18,
        "channel": 9,
        "note": 42,
        "velocity": 0
      },
      {
        "type": "midi",
        "subType": "noteOff",
        "typeByte": 153,
        "deltaTime": 5,
        "channel": 9,
        "note": 61,
        "velocity": 0
      },
      {
        "type": "midi",
        "subType": "noteOn",
        "typeByte": 153,
        "deltaTime": 26,
        "channel": 9,
        "note": 38,
        "velocity": 127
      },
      {
        "type": "midi",
        "subType": "noteOn",
        "typeByte": 153,
        "deltaTime": 0,
        "channel": 9,
        "note": 61,
        "velocity": 127
      },
      {
        "type": "midi",
        "subType": "noteOn",
        "typeByte": 153,
        "deltaTime": 0,
        "channel": 9,
        "note": 42,
        "velocity": 127
      },
      {
        "type": "midi",
        "subType": "noteOff",
        "typeByte": 153,
        "deltaTime": 20,
        "channel": 9,
        "note": 42,
        "velocity": 0
      },
      {
        "type": "midi",
        "subType": "noteOff",
        "typeByte": 153,
        "deltaTime": 3,
        "channel": 9,
        "note": 61,
        "velocity": 0
      },
      {
        "type": "midi",
        "subType": "noteOff",
        "typeByte": 153,
        "deltaTime": 0,
        "channel": 9,
        "note": 38,
        "velocity": 0
      },
      {
        "type": "midi",
        "subType": "noteOn",
        "typeByte": 153,
        "deltaTime": 24,
        "channel": 9,
        "note": 61,
        "velocity": 127
      },
      {
        "type": "midi",
        "subType": "noteOn",
        "typeByte": 153,
        "deltaTime": 1,
        "channel": 9,
        "note": 42,
        "velocity": 127
      },
      {
        "type": "midi",
        "subType": "noteOff",
        "typeByte": 153,
        "deltaTime": 14,
        "channel": 9,
        "note": 42,
        "velocity": 0
      },
      {
        "type": "midi",
        "subType": "noteOff",
        "typeByte": 153,
        "deltaTime": 8,
        "channel": 9,
        "note": 61,
        "velocity": 0
      },
      {
        "type": "midi",
        "subType": "noteOn",
        "typeByte": 153,
        "deltaTime": 26,
        "channel": 9,
        "note": 36,
        "velocity": 127
      },
      {
        "type": "midi",
        "subType": "noteOn",
        "typeByte": 153,
        "deltaTime": 0,
        "channel": 9,
        "note": 61,
        "velocity": 127
      },
      {
        "type": "midi",
        "subType": "noteOn",
        "typeByte": 153,
        "deltaTime": 1,
        "channel": 9,
        "note": 51,
        "velocity": 127
      },
      {
        "type": "midi",
        "subType": "noteOn",
        "typeByte": 153,
        "deltaTime": 0,
        "channel": 9,
        "note": 40,
        "velocity": 127
      },
      {
        "type": "midi",
        "subType": "noteOn",
        "typeByte": 153,
        "deltaTime": 0,
        "channel": 9,
        "note": 42,
        "velocity": 127
      },
      {
        "type": "midi",
        "subType": "noteOff",
        "typeByte": 153,
        "deltaTime": 19,
        "channel": 9,
        "note": 42,
        "velocity": 0
      },
      {
        "type": "midi",
        "subType": "noteOff",
        "typeByte": 153,
        "deltaTime": 3,
        "channel": 9,
        "note": 36,
        "velocity": 0
      },
      {
        "type": "midi",
        "subType": "noteOff",
        "typeByte": 153,
        "deltaTime": 0,
        "channel": 9,
        "note": 61,
        "velocity": 0
      },
      {
        "type": "midi",
        "subType": "noteOn",
        "typeByte": 153,
        "deltaTime": 25,
        "channel": 9,
        "note": 36,
        "velocity": 127
      },
      {
        "type": "midi",
        "subType": "noteOn",
        "typeByte": 153,
        "deltaTime": 0,
        "channel": 9,
        "note": 61,
        "velocity": 127
      },
      {
        "type": "midi",
        "subType": "noteOn",
        "typeByte": 153,
        "deltaTime": 0,
        "channel": 9,
        "note": 42,
        "velocity": 127
      },
      {
        "type": "midi",
        "subType": "noteOff",
        "typeByte": 153,
        "deltaTime": 23,
        "channel": 9,
        "note": 42,
        "velocity": 0
      },
      {
        "type": "midi",
        "subType": "noteOff",
        "typeByte": 153,
        "deltaTime": 0,
        "channel": 9,
        "note": 36,
        "velocity": 0
      },
      {
        "type": "midi",
        "subType": "noteOff",
        "typeByte": 153,
        "deltaTime": 0,
        "channel": 9,
        "note": 61,
        "velocity": 0
      },
      {
        "type": "midi",
        "subType": "noteOff",
        "typeByte": 153,
        "deltaTime": 16,
        "channel": 9,
        "note": 51,
        "velocity": 0
      },
      {
        "type": "midi",
        "subType": "noteOff",
        "typeByte": 153,
        "deltaTime": 1,
        "channel": 9,
        "note": 40,
        "velocity": 0
      },
      {
        "type": "midi",
        "subType": "noteOn",
        "typeByte": 153,
        "deltaTime": 8,
        "channel": 9,
        "note": 38,
        "velocity": 127
      },
      {
        "type": "midi",
        "subType": "noteOn",
        "typeByte": 153,
        "deltaTime": 0,
        "channel": 9,
        "note": 61,
        "velocity": 127
      },
      {
        "type": "midi",
        "subType": "noteOn",
        "typeByte": 153,
        "deltaTime": 1,
        "channel": 9,
        "note": 42,
        "velocity": 127
      },
      {
        "type": "midi",
        "subType": "noteOff",
        "typeByte": 153,
        "deltaTime": 22,
        "channel": 9,
        "note": 42,
        "velocity": 0
      },
      {
        "type": "midi",
        "subType": "noteOff",
        "typeByte": 153,
        "deltaTime": 0,
        "channel": 9,
        "note": 38,
        "velocity": 0
      },
      {
        "type": "midi",
        "subType": "noteOff",
        "typeByte": 153,
        "deltaTime": 1,
        "channel": 9,
        "note": 61,
        "velocity": 0
      },
      {
        "type": "midi",
        "subType": "noteOn",
        "typeByte": 153,
        "deltaTime": 24,
        "channel": 9,
        "note": 38,
        "velocity": 127
      },
      {
        "type": "midi",
        "subType": "noteOn",
        "typeByte": 153,
        "deltaTime": 0,
        "channel": 9,
        "note": 61,
        "velocity": 127
      },
      {
        "type": "midi",
        "subType": "noteOn",
        "typeByte": 153,
        "deltaTime": 0,
        "channel": 9,
        "note": 42,
        "velocity": 127
      },
      {
        "type": "midi",
        "subType": "noteOff",
        "typeByte": 153,
        "deltaTime": 23,
        "channel": 9,
        "note": 61,
        "velocity": 0
      },
      {
        "type": "midi",
        "subType": "noteOff",
        "typeByte": 153,
        "deltaTime": 0,
        "channel": 9,
        "note": 38,
        "velocity": 0
      },
      {
        "type": "midi",
        "subType": "noteOff",
        "typeByte": 153,
        "deltaTime": 1,
        "channel": 9,
        "note": 42,
        "velocity": 0
      },
      {
        "type": "midi",
        "subType": "noteOn",
        "typeByte": 153,
        "deltaTime": 25,
        "channel": 9,
        "note": 36,
        "velocity": 127
      },
      {
        "type": "midi",
        "subType": "noteOn",
        "typeByte": 153,
        "deltaTime": 0,
        "channel": 9,
        "note": 61,
        "velocity": 127
      },
      {
        "type": "midi",
        "subType": "noteOn",
        "typeByte": 153,
        "deltaTime": 0,
        "channel": 9,
        "note": 42,
        "velocity": 127
      },
      {
        "type": "midi",
        "subType": "noteOff",
        "typeByte": 153,
        "deltaTime": 23,
        "channel": 9,
        "note": 61,
        "velocity": 0
      },
      {
        "type": "midi",
        "subType": "noteOff",
        "typeByte": 153,
        "deltaTime": 0,
        "channel": 9,
        "note": 36,
        "velocity": 0
      },
      {
        "type": "midi",
        "subType": "noteOff",
        "typeByte": 153,
        "deltaTime": 1,
        "channel": 9,
        "note": 42,
        "velocity": 0
      },
      {
        "type": "midi",
        "subType": "noteOn",
        "typeByte": 153,
        "deltaTime": 23,
        "channel": 9,
        "note": 61,
        "velocity": 127
      },
      {
        "type": "midi",
        "subType": "noteOn",
        "typeByte": 153,
        "deltaTime": 0,
        "channel": 9,
        "note": 42,
        "velocity": 127
      },
      {
        "type": "midi",
        "subType": "noteOff",
        "typeByte": 153,
        "deltaTime": 20,
        "channel": 9,
        "note": 42,
        "velocity": 0
      },
      {
        "type": "midi",
        "subType": "noteOff",
        "typeByte": 153,
        "deltaTime": 3,
        "channel": 9,
        "note": 61,
        "velocity": 0
      },
      {
        "type": "midi",
        "subType": "noteOn",
        "typeByte": 153,
        "deltaTime": 26,
        "channel": 9,
        "note": 38,
        "velocity": 127
      },
      {
        "type": "midi",
        "subType": "noteOn",
        "typeByte": 153,
        "deltaTime": 0,
        "channel": 9,
        "note": 61,
        "velocity": 127
      },
      {
        "type": "midi",
        "subType": "noteOn",
        "typeByte": 153,
        "deltaTime": 0,
        "channel": 9,
        "note": 42,
        "velocity": 127
      },
      {
        "type": "midi",
        "subType": "noteOff",
        "typeByte": 153,
        "deltaTime": 22,
        "channel": 9,
        "note": 42,
        "velocity": 0
      },
      {
        "type": "midi",
        "subType": "noteOff",
        "typeByte": 153,
        "deltaTime": 1,
        "channel": 9,
        "note": 61,
        "velocity": 0
      },
      {
        "type": "midi",
        "subType": "noteOff",
        "typeByte": 153,
        "deltaTime": 0,
        "channel": 9,
        "note": 38,
        "velocity": 0
      },
      {
        "type": "midi",
        "subType": "noteOn",
        "typeByte": 153,
        "deltaTime": 24,
        "channel": 9,
        "note": 61,
        "velocity": 127
      },
      {
        "type": "midi",
        "subType": "noteOn",
        "typeByte": 153,
        "deltaTime": 0,
        "channel": 9,
        "note": 42,
        "velocity": 127
      },
      {
        "type": "midi",
        "subType": "noteOff",
        "typeByte": 153,
        "deltaTime": 24,
        "channel": 9,
        "note": 42,
        "velocity": 0
      },
      {
        "type": "midi",
        "subType": "noteOff",
        "typeByte": 153,
        "deltaTime": 0,
        "channel": 9,
        "note": 61,
        "velocity": 0
      },
      {
        "type": "midi",
        "subType": "noteOn",
        "typeByte": 153,
        "deltaTime": 25,
        "channel": 9,
        "note": 36,
        "velocity": 127
      },
      {
        "type": "midi",
        "subType": "noteOn",
        "typeByte": 153,
        "deltaTime": 1,
        "channel": 9,
        "note": 61,
        "velocity": 127
      },
      {
        "type": "midi",
        "subType": "noteOn",
        "typeByte": 153,
        "deltaTime": 0,
        "channel": 9,
        "note": 40,
        "velocity": 127
      },
      {
        "type": "midi",
        "subType": "noteOn",
        "typeByte": 153,
        "deltaTime": 0,
        "channel": 9,
        "note": 51,
        "velocity": 127
      },
      {
        "type": "midi",
        "subType": "noteOn",
        "typeByte": 153,
        "deltaTime": 0,
        "channel": 9,
        "note": 42,
        "velocity": 127
      },
      {
        "type": "midi",
        "subType": "noteOff",
        "typeByte": 153,
        "deltaTime": 22,
        "channel": 9,
        "note": 42,
        "velocity": 0
      },
      {
        "type": "midi",
        "subType": "noteOff",
        "typeByte": 153,
        "deltaTime": 0,
        "channel": 9,
        "note": 36,
        "velocity": 0
      },
      {
        "type": "midi",
        "subType": "noteOff",
        "typeByte": 153,
        "deltaTime": 1,
        "channel": 9,
        "note": 61,
        "velocity": 0
      },
      {
        "type": "midi",
        "subType": "noteOn",
        "typeByte": 153,
        "deltaTime": 24,
        "channel": 9,
        "note": 36,
        "velocity": 127
      },
      {
        "type": "midi",
        "subType": "noteOn",
        "typeByte": 153,
        "deltaTime": 0,
        "channel": 9,
        "note": 61,
        "velocity": 127
      },
      {
        "type": "midi",
        "subType": "noteOn",
        "typeByte": 153,
        "deltaTime": 0,
        "channel": 9,
        "note": 42,
        "velocity": 127
      },
      {
        "type": "midi",
        "subType": "noteOff",
        "typeByte": 153,
        "deltaTime": 23,
        "channel": 9,
        "note": 61,
        "velocity": 0
      },
      {
        "type": "midi",
        "subType": "noteOff",
        "typeByte": 153,
        "deltaTime": 0,
        "channel": 9,
        "note": 36,
        "velocity": 0
      },
      {
        "type": "midi",
        "subType": "noteOff",
        "typeByte": 153,
        "deltaTime": 2,
        "channel": 9,
        "note": 42,
        "velocity": 0
      },
      {
        "type": "midi",
        "subType": "noteOff",
        "typeByte": 153,
        "deltaTime": 24,
        "channel": 9,
        "note": 40,
        "velocity": 0
      },
      {
        "type": "midi",
        "subType": "noteOn",
        "typeByte": 153,
        "deltaTime": 0,
        "channel": 9,
        "note": 38,
        "velocity": 127
      },
      {
        "type": "midi",
        "subType": "noteOn",
        "typeByte": 153,
        "deltaTime": 0,
        "channel": 9,
        "note": 61,
        "velocity": 127
      },
      {
        "type": "midi",
        "subType": "noteOn",
        "typeByte": 153,
        "deltaTime": 0,
        "channel": 9,
        "note": 42,
        "velocity": 127
      },
      {
        "type": "midi",
        "subType": "noteOff",
        "typeByte": 153,
        "deltaTime": 5,
        "channel": 9,
        "note": 51,
        "velocity": 0
      },
      {
        "type": "midi",
        "subType": "noteOff",
        "typeByte": 153,
        "deltaTime": 18,
        "channel": 9,
        "note": 38,
        "velocity": 0
      },
      {
        "type": "midi",
        "subType": "noteOff",
        "typeByte": 153,
        "deltaTime": 0,
        "channel": 9,
        "note": 61,
        "velocity": 0
      },
      {
        "type": "midi",
        "subType": "noteOff",
        "typeByte": 153,
        "deltaTime": 1,
        "channel": 9,
        "note": 42,
        "velocity": 0
      },
      {
        "type": "midi",
        "subType": "noteOn",
        "typeByte": 153,
        "deltaTime": 23,
        "channel": 9,
        "note": 61,
        "velocity": 127
      },
      {
        "type": "midi",
        "subType": "noteOn",
        "typeByte": 153,
        "deltaTime": 0,
        "channel": 9,
        "note": 42,
        "velocity": 127
      },
      {
        "type": "midi",
        "subType": "noteOff",
        "typeByte": 153,
        "deltaTime": 23,
        "channel": 9,
        "note": 61,
        "velocity": 0
      },
      {
        "type": "midi",
        "subType": "noteOff",
        "typeByte": 153,
        "deltaTime": 3,
        "channel": 9,
        "note": 42,
        "velocity": 0
      },
      {
        "type": "midi",
        "subType": "noteOn",
        "typeByte": 153,
        "deltaTime": 23,
        "channel": 9,
        "note": 36,
        "velocity": 127
      },
      {
        "type": "midi",
        "subType": "noteOn",
        "typeByte": 153,
        "deltaTime": 0,
        "channel": 9,
        "note": 61,
        "velocity": 127
      },
      {
        "type": "midi",
        "subType": "noteOn",
        "typeByte": 153,
        "deltaTime": 0,
        "channel": 9,
        "note": 42,
        "velocity": 127
      },
      {
        "type": "midi",
        "subType": "noteOff",
        "typeByte": 153,
        "deltaTime": 23,
        "channel": 9,
        "note": 61,
        "velocity": 0
      },
      {
        "type": "midi",
        "subType": "noteOff",
        "typeByte": 153,
        "deltaTime": 0,
        "channel": 9,
        "note": 36,
        "velocity": 0
      },
      {
        "type": "midi",
        "subType": "noteOff",
        "typeByte": 153,
        "deltaTime": 5,
        "channel": 9,
        "note": 42,
        "velocity": 0
      },
      {
        "type": "midi",
        "subType": "noteOn",
        "typeByte": 153,
        "deltaTime": 19,
        "channel": 9,
        "note": 61,
        "velocity": 127
      },
      {
        "type": "midi",
        "subType": "noteOn",
        "typeByte": 153,
        "deltaTime": 1,
        "channel": 9,
        "note": 42,
        "velocity": 127
      },
      {
        "type": "midi",
        "subType": "noteOff",
        "typeByte": 153,
        "deltaTime": 22,
        "channel": 9,
        "note": 42,
        "velocity": 0
      },
      {
        "type": "midi",
        "subType": "noteOff",
        "typeByte": 153,
        "deltaTime": 0,
        "channel": 9,
        "note": 61,
        "velocity": 0
      },
      {
        "type": "midi",
        "subType": "noteOn",
        "typeByte": 153,
        "deltaTime": 26,
        "channel": 9,
        "note": 38,
        "velocity": 127
      },
      {
        "type": "midi",
        "subType": "noteOn",
        "typeByte": 153,
        "deltaTime": 0,
        "channel": 9,
        "note": 61,
        "velocity": 127
      },
      {
        "type": "midi",
        "subType": "noteOn",
        "typeByte": 153,
        "deltaTime": 1,
        "channel": 9,
        "note": 42,
        "velocity": 127
      },
      {
        "type": "midi",
        "subType": "noteOff",
        "typeByte": 153,
        "deltaTime": 22,
        "channel": 9,
        "note": 42,
        "velocity": 0
      },
      {
        "type": "midi",
        "subType": "noteOff",
        "typeByte": 153,
        "deltaTime": 0,
        "channel": 9,
        "note": 61,
        "velocity": 0
      },
      {
        "type": "midi",
        "subType": "noteOff",
        "typeByte": 153,
        "deltaTime": 0,
        "channel": 9,
        "note": 38,
        "velocity": 0
      },
      {
        "type": "midi",
        "subType": "noteOn",
        "typeByte": 153,
        "deltaTime": 25,
        "channel": 9,
        "note": 61,
        "velocity": 127
      },
      {
        "type": "midi",
        "subType": "noteOn",
        "typeByte": 153,
        "deltaTime": 0,
        "channel": 9,
        "note": 42,
        "velocity": 127
      },
      {
        "type": "midi",
        "subType": "noteOff",
        "typeByte": 153,
        "deltaTime": 23,
        "channel": 9,
        "note": 61,
        "velocity": 0
      },
      {
        "type": "midi",
        "subType": "noteOff",
        "typeByte": 153,
        "deltaTime": 1,
        "channel": 9,
        "note": 42,
        "velocity": 0
      },
      {
        "type": "midi",
        "subType": "noteOn",
        "typeByte": 153,
        "deltaTime": 24,
        "channel": 9,
        "note": 36,
        "velocity": 127
      },
      {
        "type": "midi",
        "subType": "noteOn",
        "typeByte": 153,
        "deltaTime": 0,
        "channel": 9,
        "note": 61,
        "velocity": 127
      },
      {
        "type": "midi",
        "subType": "noteOn",
        "typeByte": 153,
        "deltaTime": 1,
        "channel": 9,
        "note": 51,
        "velocity": 127
      },
      {
        "type": "midi",
        "subType": "noteOn",
        "typeByte": 153,
        "deltaTime": 0,
        "channel": 9,
        "note": 40,
        "velocity": 127
      },
      {
        "type": "midi",
        "subType": "noteOn",
        "typeByte": 153,
        "deltaTime": 0,
        "channel": 9,
        "note": 42,
        "velocity": 127
      },
      {
        "type": "midi",
        "subType": "noteOff",
        "typeByte": 153,
        "deltaTime": 23,
        "channel": 9,
        "note": 61,
        "velocity": 0
      },
      {
        "type": "midi",
        "subType": "noteOff",
        "typeByte": 153,
        "deltaTime": 0,
        "channel": 9,
        "note": 36,
        "velocity": 0
      },
      {
        "type": "midi",
        "subType": "noteOff",
        "typeByte": 153,
        "deltaTime": 1,
        "channel": 9,
        "note": 42,
        "velocity": 0
      },
      {
        "type": "midi",
        "subType": "noteOn",
        "typeByte": 153,
        "deltaTime": 23,
        "channel": 9,
        "note": 36,
        "velocity": 127
      },
      {
        "type": "midi",
        "subType": "noteOn",
        "typeByte": 153,
        "deltaTime": 0,
        "channel": 9,
        "note": 61,
        "velocity": 127
      },
      {
        "type": "midi",
        "subType": "noteOn",
        "typeByte": 153,
        "deltaTime": 0,
        "channel": 9,
        "note": 42,
        "velocity": 127
      },
      {
        "type": "midi",
        "subType": "noteOff",
        "typeByte": 153,
        "deltaTime": 23,
        "channel": 9,
        "note": 61,
        "velocity": 0
      },
      {
        "type": "midi",
        "subType": "noteOff",
        "typeByte": 153,
        "deltaTime": 0,
        "channel": 9,
        "note": 36,
        "velocity": 0
      },
      {
        "type": "midi",
        "subType": "noteOff",
        "typeByte": 153,
        "deltaTime": 1,
        "channel": 9,
        "note": 42,
        "velocity": 0
      },
      {
        "type": "midi",
        "subType": "noteOff",
        "typeByte": 153,
        "deltaTime": 15,
        "channel": 9,
        "note": 51,
        "velocity": 0
      },
      {
        "type": "midi",
        "subType": "noteOff",
        "typeByte": 153,
        "deltaTime": 2,
        "channel": 9,
        "note": 40,
        "velocity": 0
      },
      {
        "type": "midi",
        "subType": "noteOn",
        "typeByte": 153,
        "deltaTime": 8,
        "channel": 9,
        "note": 38,
        "velocity": 127
      },
      {
        "type": "midi",
        "subType": "noteOn",
        "typeByte": 153,
        "deltaTime": 0,
        "channel": 9,
        "note": 61,
        "velocity": 127
      },
      {
        "type": "midi",
        "subType": "noteOn",
        "typeByte": 153,
        "deltaTime": 0,
        "channel": 9,
        "note": 42,
        "velocity": 127
      },
      {
        "type": "midi",
        "subType": "noteOff",
        "typeByte": 153,
        "deltaTime": 23,
        "channel": 9,
        "note": 61,
        "velocity": 0
      },
      {
        "type": "midi",
        "subType": "noteOff",
        "typeByte": 153,
        "deltaTime": 0,
        "channel": 9,
        "note": 38,
        "velocity": 0
      },
      {
        "type": "midi",
        "subType": "noteOff",
        "typeByte": 153,
        "deltaTime": 1,
        "channel": 9,
        "note": 42,
        "velocity": 0
      },
      {
        "type": "midi",
        "subType": "noteOn",
        "typeByte": 153,
        "deltaTime": 23,
        "channel": 9,
        "note": 61,
        "velocity": 127
      },
      {
        "type": "midi",
        "subType": "noteOn",
        "typeByte": 153,
        "deltaTime": 0,
        "channel": 9,
        "note": 42,
        "velocity": 127
      },
      {
        "type": "midi",
        "subType": "noteOff",
        "typeByte": 153,
        "deltaTime": 23,
        "channel": 9,
        "note": 61,
        "velocity": 0
      },
      {
        "type": "midi",
        "subType": "noteOff",
        "typeByte": 153,
        "deltaTime": 3,
        "channel": 9,
        "note": 42,
        "velocity": 0
      },
      {
        "type": "midi",
        "subType": "noteOn",
        "typeByte": 153,
        "deltaTime": 23,
        "channel": 9,
        "note": 36,
        "velocity": 127
      },
      {
        "type": "midi",
        "subType": "noteOn",
        "typeByte": 153,
        "deltaTime": 0,
        "channel": 9,
        "note": 61,
        "velocity": 127
      },
      {
        "type": "midi",
        "subType": "noteOn",
        "typeByte": 153,
        "deltaTime": 0,
        "channel": 9,
        "note": 42,
        "velocity": 127
      },
      {
        "type": "midi",
        "subType": "noteOff",
        "typeByte": 153,
        "deltaTime": 23,
        "channel": 9,
        "note": 61,
        "velocity": 0
      },
      {
        "type": "midi",
        "subType": "noteOff",
        "typeByte": 153,
        "deltaTime": 0,
        "channel": 9,
        "note": 36,
        "velocity": 0
      },
      {
        "type": "midi",
        "subType": "noteOff",
        "typeByte": 153,
        "deltaTime": 1,
        "channel": 9,
        "note": 42,
        "velocity": 0
      },
      {
        "type": "midi",
        "subType": "noteOn",
        "typeByte": 153,
        "deltaTime": 24,
        "channel": 9,
        "note": 61,
        "velocity": 127
      },
      {
        "type": "midi",
        "subType": "noteOn",
        "typeByte": 153,
        "deltaTime": 0,
        "channel": 9,
        "note": 42,
        "velocity": 127
      },
      {
        "type": "midi",
        "subType": "noteOff",
        "typeByte": 153,
        "deltaTime": 23,
        "channel": 9,
        "note": 61,
        "velocity": 0
      },
      {
        "type": "midi",
        "subType": "noteOff",
        "typeByte": 153,
        "deltaTime": 4,
        "channel": 9,
        "note": 42,
        "velocity": 0
      },
      {
        "type": "midi",
        "subType": "noteOn",
        "typeByte": 153,
        "deltaTime": 21,
        "channel": 9,
        "note": 38,
        "velocity": 127
      },
      {
        "type": "midi",
        "subType": "noteOn",
        "typeByte": 153,
        "deltaTime": 0,
        "channel": 9,
        "note": 61,
        "velocity": 127
      },
      {
        "type": "midi",
        "subType": "noteOn",
        "typeByte": 153,
        "deltaTime": 1,
        "channel": 9,
        "note": 42,
        "velocity": 127
      },
      {
        "type": "midi",
        "subType": "noteOff",
        "typeByte": 153,
        "deltaTime": 22,
        "channel": 9,
        "note": 42,
        "velocity": 0
      },
      {
        "type": "midi",
        "subType": "noteOff",
        "typeByte": 153,
        "deltaTime": 0,
        "channel": 9,
        "note": 38,
        "velocity": 0
      },
      {
        "type": "midi",
        "subType": "noteOff",
        "typeByte": 153,
        "deltaTime": 1,
        "channel": 9,
        "note": 61,
        "velocity": 0
      },
      {
        "type": "midi",
        "subType": "noteOn",
        "typeByte": 153,
        "deltaTime": 24,
        "channel": 9,
        "note": 61,
        "velocity": 127
      },
      {
        "type": "midi",
        "subType": "noteOn",
        "typeByte": 153,
        "deltaTime": 0,
        "channel": 9,
        "note": 42,
        "velocity": 127
      },
      {
        "type": "midi",
        "subType": "noteOff",
        "typeByte": 153,
        "deltaTime": 23,
        "channel": 9,
        "note": 42,
        "velocity": 0
      },
      {
        "type": "midi",
        "subType": "noteOff",
        "typeByte": 153,
        "deltaTime": 0,
        "channel": 9,
        "note": 61,
        "velocity": 0
      },
      {
        "type": "midi",
        "subType": "noteOn",
        "typeByte": 153,
        "deltaTime": 26,
        "channel": 9,
        "note": 36,
        "velocity": 127
      },
      {
        "type": "midi",
        "subType": "noteOn",
        "typeByte": 153,
        "deltaTime": 0,
        "channel": 9,
        "note": 61,
        "velocity": 127
      },
      {
        "type": "midi",
        "subType": "noteOn",
        "typeByte": 153,
        "deltaTime": 0,
        "channel": 9,
        "note": 40,
        "velocity": 127
      },
      {
        "type": "midi",
        "subType": "noteOn",
        "typeByte": 153,
        "deltaTime": 0,
        "channel": 9,
        "note": 51,
        "velocity": 127
      },
      {
        "type": "midi",
        "subType": "noteOn",
        "typeByte": 153,
        "deltaTime": 1,
        "channel": 9,
        "note": 42,
        "velocity": 127
      },
      {
        "type": "midi",
        "subType": "noteOff",
        "typeByte": 153,
        "deltaTime": 22,
        "channel": 9,
        "note": 42,
        "velocity": 0
      },
      {
        "type": "midi",
        "subType": "noteOff",
        "typeByte": 153,
        "deltaTime": 0,
        "channel": 9,
        "note": 36,
        "velocity": 0
      },
      {
        "type": "midi",
        "subType": "noteOff",
        "typeByte": 153,
        "deltaTime": 0,
        "channel": 9,
        "note": 61,
        "velocity": 0
      },
      {
        "type": "midi",
        "subType": "noteOn",
        "typeByte": 153,
        "deltaTime": 24,
        "channel": 9,
        "note": 36,
        "velocity": 127
      },
      {
        "type": "midi",
        "subType": "noteOn",
        "typeByte": 153,
        "deltaTime": 0,
        "channel": 9,
        "note": 61,
        "velocity": 127
      },
      {
        "type": "midi",
        "subType": "noteOn",
        "typeByte": 153,
        "deltaTime": 1,
        "channel": 9,
        "note": 42,
        "velocity": 127
      },
      {
        "type": "midi",
        "subType": "noteOff",
        "typeByte": 153,
        "deltaTime": 22,
        "channel": 9,
        "note": 42,
        "velocity": 0
      },
      {
        "type": "midi",
        "subType": "noteOff",
        "typeByte": 153,
        "deltaTime": 0,
        "channel": 9,
        "note": 36,
        "velocity": 0
      },
      {
        "type": "midi",
        "subType": "noteOff",
        "typeByte": 153,
        "deltaTime": 1,
        "channel": 9,
        "note": 61,
        "velocity": 0
      },
      {
        "type": "midi",
        "subType": "noteOff",
        "typeByte": 153,
        "deltaTime": 25,
        "channel": 9,
        "note": 40,
        "velocity": 0
      },
      {
        "type": "midi",
        "subType": "noteOn",
        "typeByte": 153,
        "deltaTime": 0,
        "channel": 9,
        "note": 38,
        "velocity": 127
      },
      {
        "type": "midi",
        "subType": "noteOn",
        "typeByte": 153,
        "deltaTime": 0,
        "channel": 9,
        "note": 61,
        "velocity": 127
      },
      {
        "type": "midi",
        "subType": "noteOn",
        "typeByte": 153,
        "deltaTime": 1,
        "channel": 9,
        "note": 42,
        "velocity": 127
      },
      {
        "type": "midi",
        "subType": "noteOff",
        "typeByte": 153,
        "deltaTime": 4,
        "channel": 9,
        "note": 51,
        "velocity": 0
      },
      {
        "type": "midi",
        "subType": "noteOff",
        "typeByte": 153,
        "deltaTime": 18,
        "channel": 9,
        "note": 38,
        "velocity": 0
      },
      {
        "type": "midi",
        "subType": "noteOff",
        "typeByte": 153,
        "deltaTime": 0,
        "channel": 9,
        "note": 61,
        "velocity": 0
      },
      {
        "type": "midi",
        "subType": "noteOff",
        "typeByte": 153,
        "deltaTime": 1,
        "channel": 9,
        "note": 42,
        "velocity": 0
      },
      {
        "type": "midi",
        "subType": "noteOn",
        "typeByte": 153,
        "deltaTime": 23,
        "channel": 9,
        "note": 61,
        "velocity": 127
      },
      {
        "type": "midi",
        "subType": "noteOn",
        "typeByte": 153,
        "deltaTime": 1,
        "channel": 9,
        "note": 42,
        "velocity": 127
      },
      {
        "type": "midi",
        "subType": "noteOff",
        "typeByte": 153,
        "deltaTime": 22,
        "channel": 9,
        "note": 42,
        "velocity": 0
      },
      {
        "type": "midi",
        "subType": "noteOff",
        "typeByte": 153,
        "deltaTime": 0,
        "channel": 9,
        "note": 61,
        "velocity": 0
      },
      {
        "type": "midi",
        "subType": "noteOn",
        "typeByte": 153,
        "deltaTime": 26,
        "channel": 9,
        "note": 36,
        "velocity": 127
      },
      {
        "type": "midi",
        "subType": "noteOn",
        "typeByte": 153,
        "deltaTime": 0,
        "channel": 9,
        "note": 61,
        "velocity": 127
      },
      {
        "type": "midi",
        "subType": "noteOn",
        "typeByte": 153,
        "deltaTime": 1,
        "channel": 9,
        "note": 42,
        "velocity": 127
      },
      {
        "type": "midi",
        "subType": "noteOff",
        "typeByte": 153,
        "deltaTime": 17,
        "channel": 9,
        "note": 42,
        "velocity": 0
      },
      {
        "type": "midi",
        "subType": "noteOff",
        "typeByte": 153,
        "deltaTime": 5,
        "channel": 9,
        "note": 61,
        "velocity": 0
      },
      {
        "type": "midi",
        "subType": "noteOff",
        "typeByte": 153,
        "deltaTime": 0,
        "channel": 9,
        "note": 36,
        "velocity": 0
      },
      {
        "type": "midi",
        "subType": "noteOn",
        "typeByte": 153,
        "deltaTime": 25,
        "channel": 9,
        "note": 61,
        "velocity": 127
      },
      {
        "type": "midi",
        "subType": "noteOn",
        "typeByte": 153,
        "deltaTime": 0,
        "channel": 9,
        "note": 42,
        "velocity": 127
      },
      {
        "type": "midi",
        "subType": "noteOff",
        "typeByte": 153,
        "deltaTime": 17,
        "channel": 9,
        "note": 42,
        "velocity": 0
      },
      {
        "type": "midi",
        "subType": "noteOff",
        "typeByte": 153,
        "deltaTime": 6,
        "channel": 9,
        "note": 61,
        "velocity": 0
      },
      {
        "type": "midi",
        "subType": "noteOn",
        "typeByte": 153,
        "deltaTime": 26,
        "channel": 9,
        "note": 38,
        "velocity": 127
      },
      {
        "type": "midi",
        "subType": "noteOn",
        "typeByte": 153,
        "deltaTime": 0,
        "channel": 9,
        "note": 61,
        "velocity": 127
      },
      {
        "type": "midi",
        "subType": "noteOn",
        "typeByte": 153,
        "deltaTime": 0,
        "channel": 9,
        "note": 42,
        "velocity": 127
      },
      {
        "type": "midi",
        "subType": "noteOff",
        "typeByte": 153,
        "deltaTime": 20,
        "channel": 9,
        "note": 42,
        "velocity": 0
      },
      {
        "type": "midi",
        "subType": "noteOff",
        "typeByte": 153,
        "deltaTime": 2,
        "channel": 9,
        "note": 38,
        "velocity": 0
      },
      {
        "type": "midi",
        "subType": "noteOff",
        "typeByte": 153,
        "deltaTime": 1,
        "channel": 9,
        "note": 61,
        "velocity": 0
      },
      {
        "type": "midi",
        "subType": "noteOn",
        "typeByte": 153,
        "deltaTime": 24,
        "channel": 9,
        "note": 61,
        "velocity": 127
      },
      {
        "type": "midi",
        "subType": "noteOn",
        "typeByte": 153,
        "deltaTime": 0,
        "channel": 9,
        "note": 42,
        "velocity": 127
      },
      {
        "type": "midi",
        "subType": "noteOff",
        "typeByte": 153,
        "deltaTime": 15,
        "channel": 9,
        "note": 42,
        "velocity": 0
      },
      {
        "type": "midi",
        "subType": "noteOff",
        "typeByte": 153,
        "deltaTime": 8,
        "channel": 9,
        "note": 61,
        "velocity": 0
      },
      {
        "type": "midi",
        "subType": "noteOn",
        "typeByte": 153,
        "deltaTime": 26,
        "channel": 9,
        "note": 36,
        "velocity": 127
      },
      {
        "type": "midi",
        "subType": "noteOn",
        "typeByte": 153,
        "deltaTime": 0,
        "channel": 9,
        "note": 61,
        "velocity": 127
      },
      {
        "type": "midi",
        "subType": "noteOn",
        "typeByte": 153,
        "deltaTime": 0,
        "channel": 9,
        "note": 51,
        "velocity": 127
      },
      {
        "type": "midi",
        "subType": "noteOn",
        "typeByte": 153,
        "deltaTime": 1,
        "channel": 9,
        "note": 40,
        "velocity": 127
      },
      {
        "type": "midi",
        "subType": "noteOn",
        "typeByte": 153,
        "deltaTime": 0,
        "channel": 9,
        "note": 42,
        "velocity": 127
      },
      {
        "type": "midi",
        "subType": "noteOff",
        "typeByte": 153,
        "deltaTime": 19,
        "channel": 9,
        "note": 42,
        "velocity": 0
      },
      {
        "type": "midi",
        "subType": "noteOff",
        "typeByte": 153,
        "deltaTime": 3,
        "channel": 9,
        "note": 36,
        "velocity": 0
      },
      {
        "type": "midi",
        "subType": "noteOff",
        "typeByte": 153,
        "deltaTime": 0,
        "channel": 9,
        "note": 61,
        "velocity": 0
      },
      {
        "type": "midi",
        "subType": "noteOn",
        "typeByte": 153,
        "deltaTime": 24,
        "channel": 9,
        "note": 36,
        "velocity": 127
      },
      {
        "type": "midi",
        "subType": "noteOn",
        "typeByte": 153,
        "deltaTime": 1,
        "channel": 9,
        "note": 61,
        "velocity": 127
      },
      {
        "type": "midi",
        "subType": "noteOn",
        "typeByte": 153,
        "deltaTime": 0,
        "channel": 9,
        "note": 42,
        "velocity": 127
      },
      {
        "type": "midi",
        "subType": "noteOff",
        "typeByte": 153,
        "deltaTime": 22,
        "channel": 9,
        "note": 42,
        "velocity": 0
      },
      {
        "type": "midi",
        "subType": "noteOff",
        "typeByte": 153,
        "deltaTime": 0,
        "channel": 9,
        "note": 36,
        "velocity": 0
      },
      {
        "type": "midi",
        "subType": "noteOff",
        "typeByte": 153,
        "deltaTime": 1,
        "channel": 9,
        "note": 61,
        "velocity": 0
      },
      {
        "type": "midi",
        "subType": "noteOff",
        "typeByte": 153,
        "deltaTime": 16,
        "channel": 9,
        "note": 51,
        "velocity": 0
      },
      {
        "type": "midi",
        "subType": "noteOff",
        "typeByte": 153,
        "deltaTime": 1,
        "channel": 9,
        "note": 40,
        "velocity": 0
      },
      {
        "type": "midi",
        "subType": "noteOn",
        "typeByte": 153,
        "deltaTime": 8,
        "channel": 9,
        "note": 38,
        "velocity": 127
      },
      {
        "type": "midi",
        "subType": "noteOn",
        "typeByte": 153,
        "deltaTime": 0,
        "channel": 9,
        "note": 61,
        "velocity": 127
      },
      {
        "type": "midi",
        "subType": "noteOn",
        "typeByte": 153,
        "deltaTime": 1,
        "channel": 9,
        "note": 42,
        "velocity": 127
      },
      {
        "type": "midi",
        "subType": "noteOff",
        "typeByte": 153,
        "deltaTime": 22,
        "channel": 9,
        "note": 42,
        "velocity": 0
      },
      {
        "type": "midi",
        "subType": "noteOff",
        "typeByte": 153,
        "deltaTime": 0,
        "channel": 9,
        "note": 61,
        "velocity": 0
      },
      {
        "type": "midi",
        "subType": "noteOff",
        "typeByte": 153,
        "deltaTime": 0,
        "channel": 9,
        "note": 38,
        "velocity": 0
      },
      {
        "type": "midi",
        "subType": "noteOn",
        "typeByte": 153,
        "deltaTime": 25,
        "channel": 9,
        "note": 61,
        "velocity": 127
      },
      {
        "type": "midi",
        "subType": "noteOn",
        "typeByte": 153,
        "deltaTime": 0,
        "channel": 9,
        "note": 42,
        "velocity": 127
      },
      {
        "type": "midi",
        "subType": "noteOff",
        "typeByte": 153,
        "deltaTime": 23,
        "channel": 9,
        "note": 61,
        "velocity": 0
      },
      {
        "type": "midi",
        "subType": "noteOff",
        "typeByte": 153,
        "deltaTime": 1,
        "channel": 9,
        "note": 42,
        "velocity": 0
      },
      {
        "type": "midi",
        "subType": "noteOn",
        "typeByte": 153,
        "deltaTime": 24,
        "channel": 9,
        "note": 36,
        "velocity": 127
      },
      {
        "type": "midi",
        "subType": "noteOn",
        "typeByte": 153,
        "deltaTime": 0,
        "channel": 9,
        "note": 61,
        "velocity": 127
      },
      {
        "type": "midi",
        "subType": "noteOn",
        "typeByte": 153,
        "deltaTime": 1,
        "channel": 9,
        "note": 42,
        "velocity": 127
      },
      {
        "type": "midi",
        "subType": "noteOff",
        "typeByte": 153,
        "deltaTime": 22,
        "channel": 9,
        "note": 61,
        "velocity": 0
      },
      {
        "type": "midi",
        "subType": "noteOff",
        "typeByte": 153,
        "deltaTime": 0,
        "channel": 9,
        "note": 36,
        "velocity": 0
      },
      {
        "type": "midi",
        "subType": "noteOff",
        "typeByte": 153,
        "deltaTime": 4,
        "channel": 9,
        "note": 42,
        "velocity": 0
      },
      {
        "type": "midi",
        "subType": "noteOn",
        "typeByte": 153,
        "deltaTime": 21,
        "channel": 9,
        "note": 61,
        "velocity": 127
      },
      {
        "type": "midi",
        "subType": "noteOn",
        "typeByte": 153,
        "deltaTime": 0,
        "channel": 9,
        "note": 42,
        "velocity": 127
      },
      {
        "type": "midi",
        "subType": "noteOff",
        "typeByte": 153,
        "deltaTime": 23,
        "channel": 9,
        "note": 42,
        "velocity": 0
      },
      {
        "type": "midi",
        "subType": "noteOff",
        "typeByte": 153,
        "deltaTime": 0,
        "channel": 9,
        "note": 61,
        "velocity": 0
      },
      {
        "type": "midi",
        "subType": "noteOn",
        "typeByte": 153,
        "deltaTime": 26,
        "channel": 9,
        "note": 38,
        "velocity": 127
      },
      {
        "type": "midi",
        "subType": "noteOn",
        "typeByte": 153,
        "deltaTime": 0,
        "channel": 9,
        "note": 61,
        "velocity": 127
      },
      {
        "type": "midi",
        "subType": "noteOn",
        "typeByte": 153,
        "deltaTime": 0,
        "channel": 9,
        "note": 42,
        "velocity": 127
      },
      {
        "type": "midi",
        "subType": "noteOff",
        "typeByte": 153,
        "deltaTime": 21,
        "channel": 9,
        "note": 42,
        "velocity": 0
      },
      {
        "type": "midi",
        "subType": "noteOff",
        "typeByte": 153,
        "deltaTime": 2,
        "channel": 9,
        "note": 61,
        "velocity": 0
      },
      {
        "type": "midi",
        "subType": "noteOff",
        "typeByte": 153,
        "deltaTime": 0,
        "channel": 9,
        "note": 38,
        "velocity": 0
      },
      {
        "type": "midi",
        "subType": "noteOn",
        "typeByte": 153,
        "deltaTime": 24,
        "channel": 9,
        "note": 61,
        "velocity": 127
      },
      {
        "type": "midi",
        "subType": "noteOn",
        "typeByte": 153,
        "deltaTime": 0,
        "channel": 9,
        "note": 42,
        "velocity": 127
      },
      {
        "type": "midi",
        "subType": "noteOff",
        "typeByte": 153,
        "deltaTime": 20,
        "channel": 9,
        "note": 42,
        "velocity": 0
      },
      {
        "type": "midi",
        "subType": "noteOff",
        "typeByte": 153,
        "deltaTime": 3,
        "channel": 9,
        "note": 61,
        "velocity": 0
      },
      {
        "type": "midi",
        "subType": "noteOn",
        "typeByte": 153,
        "deltaTime": 26,
        "channel": 9,
        "note": 36,
        "velocity": 127
      },
      {
        "type": "midi",
        "subType": "noteOn",
        "typeByte": 153,
        "deltaTime": 0,
        "channel": 9,
        "note": 61,
        "velocity": 127
      },
      {
        "type": "midi",
        "subType": "noteOn",
        "typeByte": 153,
        "deltaTime": 0,
        "channel": 9,
        "note": 40,
        "velocity": 127
      },
      {
        "type": "midi",
        "subType": "noteOn",
        "typeByte": 153,
        "deltaTime": 1,
        "channel": 9,
        "note": 51,
        "velocity": 127
      },
      {
        "type": "midi",
        "subType": "noteOn",
        "typeByte": 153,
        "deltaTime": 0,
        "channel": 9,
        "note": 42,
        "velocity": 127
      },
      {
        "type": "midi",
        "subType": "noteOff",
        "typeByte": 153,
        "deltaTime": 18,
        "channel": 9,
        "note": 42,
        "velocity": 0
      },
      {
        "type": "midi",
        "subType": "noteOff",
        "typeByte": 153,
        "deltaTime": 4,
        "channel": 9,
        "note": 36,
        "velocity": 0
      },
      {
        "type": "midi",
        "subType": "noteOff",
        "typeByte": 153,
        "deltaTime": 0,
        "channel": 9,
        "note": 61,
        "velocity": 0
      },
      {
        "type": "midi",
        "subType": "noteOn",
        "typeByte": 153,
        "deltaTime": 24,
        "channel": 9,
        "note": 36,
        "velocity": 127
      },
      {
        "type": "midi",
        "subType": "noteOn",
        "typeByte": 153,
        "deltaTime": 1,
        "channel": 9,
        "note": 61,
        "velocity": 127
      },
      {
        "type": "midi",
        "subType": "noteOn",
        "typeByte": 153,
        "deltaTime": 0,
        "channel": 9,
        "note": 42,
        "velocity": 127
      },
      {
        "type": "midi",
        "subType": "noteOff",
        "typeByte": 153,
        "deltaTime": 23,
        "channel": 9,
        "note": 42,
        "velocity": 0
      },
      {
        "type": "midi",
        "subType": "noteOff",
        "typeByte": 153,
        "deltaTime": 0,
        "channel": 9,
        "note": 36,
        "velocity": 0
      },
      {
        "type": "midi",
        "subType": "noteOff",
        "typeByte": 153,
        "deltaTime": 0,
        "channel": 9,
        "note": 61,
        "velocity": 0
      },
      {
        "type": "midi",
        "subType": "noteOff",
        "typeByte": 153,
        "deltaTime": 25,
        "channel": 9,
        "note": 40,
        "velocity": 0
      },
      {
        "type": "midi",
        "subType": "noteOn",
        "typeByte": 153,
        "deltaTime": 1,
        "channel": 9,
        "note": 38,
        "velocity": 127
      },
      {
        "type": "midi",
        "subType": "noteOn",
        "typeByte": 153,
        "deltaTime": 0,
        "channel": 9,
        "note": 61,
        "velocity": 127
      },
      {
        "type": "midi",
        "subType": "noteOn",
        "typeByte": 153,
        "deltaTime": 0,
        "channel": 9,
        "note": 42,
        "velocity": 127
      },
      {
        "type": "midi",
        "subType": "noteOff",
        "typeByte": 153,
        "deltaTime": 5,
        "channel": 9,
        "note": 51,
        "velocity": 0
      },
      {
        "type": "midi",
        "subType": "noteOff",
        "typeByte": 153,
        "deltaTime": 17,
        "channel": 9,
        "note": 61,
        "velocity": 0
      },
      {
        "type": "midi",
        "subType": "noteOff",
        "typeByte": 153,
        "deltaTime": 1,
        "channel": 9,
        "note": 38,
        "velocity": 0
      },
      {
        "type": "midi",
        "subType": "noteOff",
        "typeByte": 153,
        "deltaTime": 1,
        "channel": 9,
        "note": 42,
        "velocity": 0
      },
      {
        "type": "midi",
        "subType": "noteOn",
        "typeByte": 153,
        "deltaTime": 23,
        "channel": 9,
        "note": 61,
        "velocity": 127
      },
      {
        "type": "midi",
        "subType": "noteOn",
        "typeByte": 153,
        "deltaTime": 0,
        "channel": 9,
        "note": 42,
        "velocity": 127
      },
      {
        "type": "midi",
        "subType": "noteOff",
        "typeByte": 153,
        "deltaTime": 23,
        "channel": 9,
        "note": 42,
        "velocity": 0
      },
      {
        "type": "midi",
        "subType": "noteOff",
        "typeByte": 153,
        "deltaTime": 0,
        "channel": 9,
        "note": 61,
        "velocity": 0
      },
      {
        "type": "midi",
        "subType": "noteOn",
        "typeByte": 153,
        "deltaTime": 26,
        "channel": 9,
        "note": 36,
        "velocity": 127
      },
      {
        "type": "midi",
        "subType": "noteOn",
        "typeByte": 153,
        "deltaTime": 0,
        "channel": 9,
        "note": 61,
        "velocity": 127
      },
      {
        "type": "midi",
        "subType": "noteOn",
        "typeByte": 153,
        "deltaTime": 0,
        "channel": 9,
        "note": 42,
        "velocity": 127
      },
      {
        "type": "midi",
        "subType": "noteOff",
        "typeByte": 153,
        "deltaTime": 21,
        "channel": 9,
        "note": 42,
        "velocity": 0
      },
      {
        "type": "midi",
        "subType": "noteOff",
        "typeByte": 153,
        "deltaTime": 2,
        "channel": 9,
        "note": 61,
        "velocity": 0
      },
      {
        "type": "midi",
        "subType": "noteOff",
        "typeByte": 153,
        "deltaTime": 0,
        "channel": 9,
        "note": 36,
        "velocity": 0
      },
      {
        "type": "midi",
        "subType": "noteOn",
        "typeByte": 153,
        "deltaTime": 24,
        "channel": 9,
        "note": 61,
        "velocity": 127
      },
      {
        "type": "midi",
        "subType": "noteOn",
        "typeByte": 153,
        "deltaTime": 0,
        "channel": 9,
        "note": 42,
        "velocity": 127
      },
      {
        "type": "midi",
        "subType": "noteOff",
        "typeByte": 153,
        "deltaTime": 19,
        "channel": 9,
        "note": 42,
        "velocity": 0
      },
      {
        "type": "midi",
        "subType": "noteOff",
        "typeByte": 153,
        "deltaTime": 4,
        "channel": 9,
        "note": 61,
        "velocity": 0
      },
      {
        "type": "midi",
        "subType": "noteOn",
        "typeByte": 153,
        "deltaTime": 26,
        "channel": 9,
        "note": 38,
        "velocity": 127
      },
      {
        "type": "midi",
        "subType": "noteOn",
        "typeByte": 153,
        "deltaTime": 0,
        "channel": 9,
        "note": 61,
        "velocity": 127
      },
      {
        "type": "midi",
        "subType": "noteOn",
        "typeByte": 153,
        "deltaTime": 0,
        "channel": 9,
        "note": 42,
        "velocity": 127
      },
      {
        "type": "midi",
        "subType": "noteOff",
        "typeByte": 153,
        "deltaTime": 19,
        "channel": 9,
        "note": 42,
        "velocity": 0
      },
      {
        "type": "midi",
        "subType": "noteOff",
        "typeByte": 153,
        "deltaTime": 4,
        "channel": 9,
        "note": 61,
        "velocity": 0
      },
      {
        "type": "midi",
        "subType": "noteOff",
        "typeByte": 153,
        "deltaTime": 0,
        "channel": 9,
        "note": 38,
        "velocity": 0
      },
      {
        "type": "midi",
        "subType": "noteOn",
        "typeByte": 153,
        "deltaTime": 24,
        "channel": 9,
        "note": 61,
        "velocity": 127
      },
      {
        "type": "midi",
        "subType": "noteOn",
        "typeByte": 153,
        "deltaTime": 1,
        "channel": 9,
        "note": 42,
        "velocity": 127
      },
      {
        "type": "midi",
        "subType": "noteOff",
        "typeByte": 153,
        "deltaTime": 18,
        "channel": 9,
        "note": 42,
        "velocity": 0
      },
      {
        "type": "midi",
        "subType": "noteOff",
        "typeByte": 153,
        "deltaTime": 4,
        "channel": 9,
        "note": 61,
        "velocity": 0
      },
      {
        "type": "midi",
        "subType": "noteOn",
        "typeByte": 153,
        "deltaTime": 26,
        "channel": 9,
        "note": 36,
        "velocity": 127
      },
      {
        "type": "midi",
        "subType": "noteOn",
        "typeByte": 153,
        "deltaTime": 0,
        "channel": 9,
        "note": 61,
        "velocity": 127
      },
      {
        "type": "midi",
        "subType": "noteOn",
        "typeByte": 153,
        "deltaTime": 1,
        "channel": 9,
        "note": 51,
        "velocity": 127
      },
      {
        "type": "midi",
        "subType": "noteOn",
        "typeByte": 153,
        "deltaTime": 0,
        "channel": 9,
        "note": 40,
        "velocity": 127
      },
      {
        "type": "midi",
        "subType": "noteOn",
        "typeByte": 153,
        "deltaTime": 0,
        "channel": 9,
        "note": 42,
        "velocity": 127
      },
      {
        "type": "midi",
        "subType": "noteOff",
        "typeByte": 153,
        "deltaTime": 18,
        "channel": 9,
        "note": 42,
        "velocity": 0
      },
      {
        "type": "midi",
        "subType": "noteOff",
        "typeByte": 153,
        "deltaTime": 4,
        "channel": 9,
        "note": 36,
        "velocity": 0
      },
      {
        "type": "midi",
        "subType": "noteOff",
        "typeByte": 153,
        "deltaTime": 0,
        "channel": 9,
        "note": 61,
        "velocity": 0
      },
      {
        "type": "midi",
        "subType": "noteOn",
        "typeByte": 153,
        "deltaTime": 25,
        "channel": 9,
        "note": 36,
        "velocity": 127
      },
      {
        "type": "midi",
        "subType": "noteOn",
        "typeByte": 153,
        "deltaTime": 0,
        "channel": 9,
        "note": 61,
        "velocity": 127
      },
      {
        "type": "midi",
        "subType": "noteOn",
        "typeByte": 153,
        "deltaTime": 0,
        "channel": 9,
        "note": 42,
        "velocity": 127
      },
      {
        "type": "midi",
        "subType": "noteOff",
        "typeByte": 153,
        "deltaTime": 21,
        "channel": 9,
        "note": 42,
        "velocity": 0
      },
      {
        "type": "midi",
        "subType": "noteOff",
        "typeByte": 153,
        "deltaTime": 2,
        "channel": 9,
        "note": 36,
        "velocity": 0
      },
      {
        "type": "midi",
        "subType": "noteOff",
        "typeByte": 153,
        "deltaTime": 0,
        "channel": 9,
        "note": 61,
        "velocity": 0
      },
      {
        "type": "midi",
        "subType": "noteOff",
        "typeByte": 153,
        "deltaTime": 16,
        "channel": 9,
        "note": 51,
        "velocity": 0
      },
      {
        "type": "midi",
        "subType": "noteOff",
        "typeByte": 153,
        "deltaTime": 1,
        "channel": 9,
        "note": 40,
        "velocity": 0
      },
      {
        "type": "midi",
        "subType": "noteOn",
        "typeByte": 153,
        "deltaTime": 8,
        "channel": 9,
        "note": 38,
        "velocity": 127
      },
      {
        "type": "midi",
        "subType": "noteOn",
        "typeByte": 153,
        "deltaTime": 0,
        "channel": 9,
        "note": 61,
        "velocity": 127
      },
      {
        "type": "midi",
        "subType": "noteOn",
        "typeByte": 153,
        "deltaTime": 1,
        "channel": 9,
        "note": 42,
        "velocity": 127
      },
      {
        "type": "midi",
        "subType": "noteOff",
        "typeByte": 153,
        "deltaTime": 23,
        "channel": 9,
        "note": 61,
        "velocity": 0
      },
      {
        "type": "midi",
        "subType": "noteOff",
        "typeByte": 153,
        "deltaTime": 0,
        "channel": 9,
        "note": 38,
        "velocity": 0
      },
      {
        "type": "midi",
        "subType": "noteOff",
        "typeByte": 153,
        "deltaTime": 1,
        "channel": 9,
        "note": 42,
        "velocity": 0
      },
      {
        "type": "midi",
        "subType": "noteOn",
        "typeByte": 153,
        "deltaTime": 23,
        "channel": 9,
        "note": 61,
        "velocity": 127
      },
      {
        "type": "midi",
        "subType": "noteOn",
        "typeByte": 153,
        "deltaTime": 0,
        "channel": 9,
        "note": 42,
        "velocity": 127
      },
      {
        "type": "midi",
        "subType": "noteOff",
        "typeByte": 153,
        "deltaTime": 23,
        "channel": 9,
        "note": 61,
        "velocity": 0
      },
      {
        "type": "midi",
        "subType": "noteOff",
        "typeByte": 153,
        "deltaTime": 4,
        "channel": 9,
        "note": 42,
        "velocity": 0
      },
      {
        "type": "midi",
        "subType": "noteOn",
        "typeByte": 153,
        "deltaTime": 22,
        "channel": 9,
        "note": 36,
        "velocity": 127
      },
      {
        "type": "midi",
        "subType": "noteOn",
        "typeByte": 153,
        "deltaTime": 0,
        "channel": 9,
        "note": 61,
        "velocity": 127
      },
      {
        "type": "midi",
        "subType": "noteOn",
        "typeByte": 153,
        "deltaTime": 0,
        "channel": 9,
        "note": 42,
        "velocity": 127
      },
      {
        "type": "midi",
        "subType": "noteOff",
        "typeByte": 153,
        "deltaTime": 23,
        "channel": 9,
        "note": 61,
        "velocity": 0
      },
      {
        "type": "midi",
        "subType": "noteOff",
        "typeByte": 153,
        "deltaTime": 0,
        "channel": 9,
        "note": 36,
        "velocity": 0
      },
      {
        "type": "midi",
        "subType": "noteOff",
        "typeByte": 153,
        "deltaTime": 12,
        "channel": 9,
        "note": 42,
        "velocity": 0
      },
      {
        "type": "midi",
        "subType": "noteOn",
        "typeByte": 153,
        "deltaTime": 12,
        "channel": 9,
        "note": 61,
        "velocity": 127
      },
      {
        "type": "midi",
        "subType": "noteOn",
        "typeByte": 153,
        "deltaTime": 0,
        "channel": 9,
        "note": 42,
        "velocity": 127
      },
      {
        "type": "midi",
        "subType": "noteOff",
        "typeByte": 153,
        "deltaTime": 23,
        "channel": 9,
        "note": 61,
        "velocity": 0
      },
      {
        "type": "midi",
        "subType": "noteOff",
        "typeByte": 153,
        "deltaTime": 2,
        "channel": 9,
        "note": 42,
        "velocity": 0
      },
      {
        "type": "midi",
        "subType": "noteOn",
        "typeByte": 153,
        "deltaTime": 24,
        "channel": 9,
        "note": 38,
        "velocity": 127
      },
      {
        "type": "midi",
        "subType": "noteOn",
        "typeByte": 153,
        "deltaTime": 0,
        "channel": 9,
        "note": 61,
        "velocity": 127
      },
      {
        "type": "midi",
        "subType": "noteOn",
        "typeByte": 153,
        "deltaTime": 0,
        "channel": 9,
        "note": 42,
        "velocity": 127
      },
      {
        "type": "midi",
        "subType": "noteOff",
        "typeByte": 153,
        "deltaTime": 19,
        "channel": 9,
        "note": 42,
        "velocity": 0
      },
      {
        "type": "midi",
        "subType": "noteOff",
        "typeByte": 153,
        "deltaTime": 4,
        "channel": 9,
        "note": 61,
        "velocity": 0
      },
      {
        "type": "midi",
        "subType": "noteOff",
        "typeByte": 153,
        "deltaTime": 0,
        "channel": 9,
        "note": 38,
        "velocity": 0
      },
      {
        "type": "midi",
        "subType": "noteOn",
        "typeByte": 153,
        "deltaTime": 25,
        "channel": 9,
        "note": 61,
        "velocity": 127
      },
      {
        "type": "midi",
        "subType": "noteOn",
        "typeByte": 153,
        "deltaTime": 0,
        "channel": 9,
        "note": 42,
        "velocity": 127
      },
      {
        "type": "midi",
        "subType": "noteOff",
        "typeByte": 153,
        "deltaTime": 20,
        "channel": 9,
        "note": 42,
        "velocity": 0
      },
      {
        "type": "midi",
        "subType": "noteOff",
        "typeByte": 153,
        "deltaTime": 3,
        "channel": 9,
        "note": 61,
        "velocity": 0
      },
      {
        "type": "midi",
        "subType": "noteOn",
        "typeByte": 153,
        "deltaTime": 25,
        "channel": 9,
        "note": 36,
        "velocity": 127
      },
      {
        "type": "midi",
        "subType": "noteOn",
        "typeByte": 153,
        "deltaTime": 0,
        "channel": 9,
        "note": 61,
        "velocity": 127
      },
      {
        "type": "midi",
        "subType": "noteOn",
        "typeByte": 153,
        "deltaTime": 1,
        "channel": 9,
        "note": 40,
        "velocity": 127
      },
      {
        "type": "midi",
        "subType": "noteOn",
        "typeByte": 153,
        "deltaTime": 0,
        "channel": 9,
        "note": 51,
        "velocity": 127
      },
      {
        "type": "midi",
        "subType": "noteOn",
        "typeByte": 153,
        "deltaTime": 0,
        "channel": 9,
        "note": 42,
        "velocity": 127
      },
      {
        "type": "midi",
        "subType": "noteOff",
        "typeByte": 153,
        "deltaTime": 20,
        "channel": 9,
        "note": 42,
        "velocity": 0
      },
      {
        "type": "midi",
        "subType": "noteOff",
        "typeByte": 153,
        "deltaTime": 2,
        "channel": 9,
        "note": 36,
        "velocity": 0
      },
      {
        "type": "midi",
        "subType": "noteOff",
        "typeByte": 153,
        "deltaTime": 0,
        "channel": 9,
        "note": 61,
        "velocity": 0
      },
      {
        "type": "midi",
        "subType": "noteOn",
        "typeByte": 153,
        "deltaTime": 25,
        "channel": 9,
        "note": 36,
        "velocity": 127
      },
      {
        "type": "midi",
        "subType": "noteOn",
        "typeByte": 153,
        "deltaTime": 0,
        "channel": 9,
        "note": 61,
        "velocity": 127
      },
      {
        "type": "midi",
        "subType": "noteOn",
        "typeByte": 153,
        "deltaTime": 0,
        "channel": 9,
        "note": 42,
        "velocity": 127
      },
      {
        "type": "midi",
        "subType": "noteOff",
        "typeByte": 153,
        "deltaTime": 20,
        "channel": 9,
        "note": 42,
        "velocity": 0
      },
      {
        "type": "midi",
        "subType": "noteOff",
        "typeByte": 153,
        "deltaTime": 3,
        "channel": 9,
        "note": 36,
        "velocity": 0
      },
      {
        "type": "midi",
        "subType": "noteOff",
        "typeByte": 153,
        "deltaTime": 0,
        "channel": 9,
        "note": 61,
        "velocity": 0
      },
      {
        "type": "midi",
        "subType": "noteOff",
        "typeByte": 153,
        "deltaTime": 26,
        "channel": 9,
        "note": 40,
        "velocity": 0
      },
      {
        "type": "midi",
        "subType": "noteOn",
        "typeByte": 153,
        "deltaTime": 0,
        "channel": 9,
        "note": 38,
        "velocity": 127
      },
      {
        "type": "midi",
        "subType": "noteOn",
        "typeByte": 153,
        "deltaTime": 0,
        "channel": 9,
        "note": 61,
        "velocity": 127
      },
      {
        "type": "midi",
        "subType": "noteOn",
        "typeByte": 153,
        "deltaTime": 0,
        "channel": 9,
        "note": 42,
        "velocity": 127
      },
      {
        "type": "midi",
        "subType": "noteOff",
        "typeByte": 153,
        "deltaTime": 5,
        "channel": 9,
        "note": 51,
        "velocity": 0
      },
      {
        "type": "midi",
        "subType": "noteOff",
        "typeByte": 153,
        "deltaTime": 18,
        "channel": 9,
        "note": 38,
        "velocity": 0
      },
      {
        "type": "midi",
        "subType": "noteOff",
        "typeByte": 153,
        "deltaTime": 0,
        "channel": 9,
        "note": 61,
        "velocity": 0
      },
      {
        "type": "midi",
        "subType": "noteOff",
        "typeByte": 153,
        "deltaTime": 0,
        "channel": 9,
        "note": 42,
        "velocity": 0
      },
      {
        "type": "midi",
        "subType": "noteOn",
        "typeByte": 153,
        "deltaTime": 24,
        "channel": 9,
        "note": 61,
        "velocity": 127
      },
      {
        "type": "midi",
        "subType": "noteOn",
        "typeByte": 153,
        "deltaTime": 0,
        "channel": 9,
        "note": 42,
        "velocity": 127
      },
      {
        "type": "midi",
        "subType": "noteOff",
        "typeByte": 153,
        "deltaTime": 23,
        "channel": 9,
        "note": 42,
        "velocity": 0
      },
      {
        "type": "midi",
        "subType": "noteOff",
        "typeByte": 153,
        "deltaTime": 0,
        "channel": 9,
        "note": 61,
        "velocity": 0
      },
      {
        "type": "midi",
        "subType": "noteOn",
        "typeByte": 153,
        "deltaTime": 26,
        "channel": 9,
        "note": 36,
        "velocity": 127
      },
      {
        "type": "midi",
        "subType": "noteOn",
        "typeByte": 153,
        "deltaTime": 0,
        "channel": 9,
        "note": 61,
        "velocity": 127
      },
      {
        "type": "midi",
        "subType": "noteOn",
        "typeByte": 153,
        "deltaTime": 0,
        "channel": 9,
        "note": 42,
        "velocity": 127
      },
      {
        "type": "midi",
        "subType": "noteOff",
        "typeByte": 153,
        "deltaTime": 23,
        "channel": 9,
        "note": 61,
        "velocity": 0
      },
      {
        "type": "midi",
        "subType": "noteOff",
        "typeByte": 153,
        "deltaTime": 0,
        "channel": 9,
        "note": 36,
        "velocity": 0
      },
      {
        "type": "midi",
        "subType": "noteOff",
        "typeByte": 153,
        "deltaTime": 7,
        "channel": 9,
        "note": 42,
        "velocity": 0
      },
      {
        "type": "midi",
        "subType": "noteOn",
        "typeByte": 153,
        "deltaTime": 17,
        "channel": 9,
        "note": 61,
        "velocity": 127
      },
      {
        "type": "midi",
        "subType": "noteOn",
        "typeByte": 153,
        "deltaTime": 0,
        "channel": 9,
        "note": 42,
        "velocity": 127
      },
      {
        "type": "midi",
        "subType": "noteOff",
        "typeByte": 153,
        "deltaTime": 24,
        "channel": 9,
        "note": 42,
        "velocity": 0
      },
      {
        "type": "midi",
        "subType": "noteOff",
        "typeByte": 153,
        "deltaTime": 0,
        "channel": 9,
        "note": 61,
        "velocity": 0
      },
      {
        "type": "midi",
        "subType": "noteOn",
        "typeByte": 153,
        "deltaTime": 25,
        "channel": 9,
        "note": 38,
        "velocity": 127
      },
      {
        "type": "midi",
        "subType": "noteOn",
        "typeByte": 153,
        "deltaTime": 0,
        "channel": 9,
        "note": 61,
        "velocity": 127
      },
      {
        "type": "midi",
        "subType": "noteOn",
        "typeByte": 153,
        "deltaTime": 1,
        "channel": 9,
        "note": 42,
        "velocity": 127
      },
      {
        "type": "midi",
        "subType": "noteOff",
        "typeByte": 153,
        "deltaTime": 20,
        "channel": 9,
        "note": 42,
        "velocity": 0
      },
      {
        "type": "midi",
        "subType": "noteOff",
        "typeByte": 153,
        "deltaTime": 2,
        "channel": 9,
        "note": 61,
        "velocity": 0
      },
      {
        "type": "midi",
        "subType": "noteOff",
        "typeByte": 153,
        "deltaTime": 0,
        "channel": 9,
        "note": 38,
        "velocity": 0
      },
      {
        "type": "midi",
        "subType": "noteOn",
        "typeByte": 153,
        "deltaTime": 25,
        "channel": 9,
        "note": 61,
        "velocity": 127
      },
      {
        "type": "midi",
        "subType": "noteOn",
        "typeByte": 153,
        "deltaTime": 0,
        "channel": 9,
        "note": 42,
        "velocity": 127
      },
      {
        "type": "midi",
        "subType": "noteOff",
        "typeByte": 153,
        "deltaTime": 23,
        "channel": 9,
        "note": 42,
        "velocity": 0
      },
      {
        "type": "midi",
        "subType": "noteOff",
        "typeByte": 153,
        "deltaTime": 0,
        "channel": 9,
        "note": 61,
        "velocity": 0
      },
      {
        "type": "midi",
        "subType": "noteOn",
        "typeByte": 153,
        "deltaTime": 26,
        "channel": 9,
        "note": 36,
        "velocity": 127
      },
      {
        "type": "midi",
        "subType": "noteOn",
        "typeByte": 153,
        "deltaTime": 0,
        "channel": 9,
        "note": 61,
        "velocity": 127
      },
      {
        "type": "midi",
        "subType": "noteOn",
        "typeByte": 153,
        "deltaTime": 0,
        "channel": 9,
        "note": 51,
        "velocity": 127
      },
      {
        "type": "midi",
        "subType": "noteOn",
        "typeByte": 153,
        "deltaTime": 0,
        "channel": 9,
        "note": 40,
        "velocity": 127
      },
      {
        "type": "midi",
        "subType": "noteOn",
        "typeByte": 153,
        "deltaTime": 0,
        "channel": 9,
        "note": 42,
        "velocity": 127
      },
      {
        "type": "midi",
        "subType": "noteOff",
        "typeByte": 153,
        "deltaTime": 23,
        "channel": 9,
        "note": 42,
        "velocity": 0
      },
      {
        "type": "midi",
        "subType": "noteOff",
        "typeByte": 153,
        "deltaTime": 0,
        "channel": 9,
        "note": 36,
        "velocity": 0
      },
      {
        "type": "midi",
        "subType": "noteOff",
        "typeByte": 153,
        "deltaTime": 0,
        "channel": 9,
        "note": 61,
        "velocity": 0
      },
      {
        "type": "midi",
        "subType": "noteOn",
        "typeByte": 153,
        "deltaTime": 24,
        "channel": 9,
        "note": 36,
        "velocity": 127
      },
      {
        "type": "midi",
        "subType": "noteOn",
        "typeByte": 153,
        "deltaTime": 0,
        "channel": 9,
        "note": 61,
        "velocity": 127
      },
      {
        "type": "midi",
        "subType": "noteOn",
        "typeByte": 153,
        "deltaTime": 1,
        "channel": 9,
        "note": 42,
        "velocity": 127
      },
      {
        "type": "midi",
        "subType": "noteOff",
        "typeByte": 153,
        "deltaTime": 22,
        "channel": 9,
        "note": 61,
        "velocity": 0
      },
      {
        "type": "midi",
        "subType": "noteOff",
        "typeByte": 153,
        "deltaTime": 0,
        "channel": 9,
        "note": 36,
        "velocity": 0
      },
      {
        "type": "midi",
        "subType": "noteOff",
        "typeByte": 153,
        "deltaTime": 1,
        "channel": 9,
        "note": 42,
        "velocity": 0
      },
      {
        "type": "midi",
        "subType": "noteOff",
        "typeByte": 153,
        "deltaTime": 15,
        "channel": 9,
        "note": 51,
        "velocity": 0
      },
      {
        "type": "midi",
        "subType": "noteOff",
        "typeByte": 153,
        "deltaTime": 2,
        "channel": 9,
        "note": 40,
        "velocity": 0
      },
      {
        "type": "midi",
        "subType": "noteOn",
        "typeByte": 153,
        "deltaTime": 8,
        "channel": 9,
        "note": 38,
        "velocity": 127
      },
      {
        "type": "midi",
        "subType": "noteOn",
        "typeByte": 153,
        "deltaTime": 0,
        "channel": 9,
        "note": 61,
        "velocity": 127
      },
      {
        "type": "midi",
        "subType": "noteOn",
        "typeByte": 153,
        "deltaTime": 0,
        "channel": 9,
        "note": 42,
        "velocity": 127
      },
      {
        "type": "midi",
        "subType": "noteOff",
        "typeByte": 153,
        "deltaTime": 20,
        "channel": 9,
        "note": 42,
        "velocity": 0
      },
      {
        "type": "midi",
        "subType": "noteOff",
        "typeByte": 153,
        "deltaTime": 3,
        "channel": 9,
        "note": 61,
        "velocity": 0
      },
      {
        "type": "midi",
        "subType": "noteOff",
        "typeByte": 153,
        "deltaTime": 0,
        "channel": 9,
        "note": 38,
        "velocity": 0
      },
      {
        "type": "midi",
        "subType": "noteOn",
        "typeByte": 153,
        "deltaTime": 24,
        "channel": 9,
        "note": 61,
        "velocity": 127
      },
      {
        "type": "midi",
        "subType": "noteOn",
        "typeByte": 153,
        "deltaTime": 0,
        "channel": 9,
        "note": 42,
        "velocity": 127
      },
      {
        "type": "midi",
        "subType": "noteOff",
        "typeByte": 153,
        "deltaTime": 23,
        "channel": 9,
        "note": 42,
        "velocity": 0
      },
      {
        "type": "midi",
        "subType": "noteOff",
        "typeByte": 153,
        "deltaTime": 0,
        "channel": 9,
        "note": 61,
        "velocity": 0
      },
      {
        "type": "midi",
        "subType": "noteOn",
        "typeByte": 153,
        "deltaTime": 26,
        "channel": 9,
        "note": 36,
        "velocity": 127
      },
      {
        "type": "midi",
        "subType": "noteOn",
        "typeByte": 153,
        "deltaTime": 0,
        "channel": 9,
        "note": 61,
        "velocity": 127
      },
      {
        "type": "midi",
        "subType": "noteOn",
        "typeByte": 153,
        "deltaTime": 1,
        "channel": 9,
        "note": 42,
        "velocity": 127
      },
      {
        "type": "midi",
        "subType": "noteOn",
        "typeByte": 153,
        "deltaTime": 0,
        "channel": 9,
        "note": 49,
        "velocity": 127
      },
      {
        "type": "midi",
        "subType": "controller",
        "typeByte": 185,
        "deltaTime": 7,
        "channel": 9,
        "controllerType": 66,
        "value": 0
      },
      {
        "type": "midi",
        "subType": "controller",
        "typeByte": 185,
        "deltaTime": 4,
        "channel": 9,
        "controllerType": 66,
        "value": 0
      },
      {
        "type": "midi",
        "subType": "controller",
        "typeByte": 185,
        "deltaTime": 4,
        "channel": 9,
        "controllerType": 66,
        "value": 0
      },
      {
        "type": "midi",
        "subType": "noteOff",
        "typeByte": 153,
        "deltaTime": 7,
        "channel": 9,
        "note": 61,
        "velocity": 0
      },
      {
        "type": "midi",
        "subType": "noteOff",
        "typeByte": 153,
        "deltaTime": 0,
        "channel": 9,
        "note": 36,
        "velocity": 0
      },
      {
        "type": "midi",
        "subType": "noteOff",
        "typeByte": 153,
        "deltaTime": 2,
        "channel": 9,
        "note": 42,
        "velocity": 0
      },
      {
        "type": "midi",
        "subType": "noteOn",
        "typeByte": 153,
        "deltaTime": 23,
        "channel": 9,
        "note": 61,
        "velocity": 127
      },
      {
        "type": "midi",
        "subType": "noteOn",
        "typeByte": 153,
        "deltaTime": 0,
        "channel": 9,
        "note": 42,
        "velocity": 127
      },
      {
        "type": "midi",
        "subType": "noteOff",
        "typeByte": 153,
        "deltaTime": 20,
        "channel": 9,
        "note": 42,
        "velocity": 0
      },
      {
        "type": "midi",
        "subType": "noteOff",
        "typeByte": 153,
        "deltaTime": 3,
        "channel": 9,
        "note": 61,
        "velocity": 0
      },
      {
        "type": "midi",
        "subType": "noteOn",
        "typeByte": 153,
        "deltaTime": 25,
        "channel": 9,
        "note": 38,
        "velocity": 127
      },
      {
        "type": "midi",
        "subType": "noteOn",
        "typeByte": 153,
        "deltaTime": 1,
        "channel": 9,
        "note": 61,
        "velocity": 127
      },
      {
        "type": "midi",
        "subType": "noteOn",
        "typeByte": 153,
        "deltaTime": 0,
        "channel": 9,
        "note": 42,
        "velocity": 127
      },
      {
        "type": "midi",
        "subType": "noteOff",
        "typeByte": 153,
        "deltaTime": 21,
        "channel": 9,
        "note": 42,
        "velocity": 0
      },
      {
        "type": "midi",
        "subType": "noteOff",
        "typeByte": 153,
        "deltaTime": 1,
        "channel": 9,
        "note": 38,
        "velocity": 0
      },
      {
        "type": "midi",
        "subType": "noteOff",
        "typeByte": 153,
        "deltaTime": 1,
        "channel": 9,
        "note": 61,
        "velocity": 0
      },
      {
        "type": "midi",
        "subType": "noteOn",
        "typeByte": 153,
        "deltaTime": 24,
        "channel": 9,
        "note": 61,
        "velocity": 127
      },
      {
        "type": "midi",
        "subType": "noteOn",
        "typeByte": 153,
        "deltaTime": 0,
        "channel": 9,
        "note": 42,
        "velocity": 127
      },
      {
        "type": "midi",
        "subType": "noteOff",
        "typeByte": 153,
        "deltaTime": 23,
        "channel": 9,
        "note": 42,
        "velocity": 0
      },
      {
        "type": "midi",
        "subType": "noteOff",
        "typeByte": 153,
        "deltaTime": 0,
        "channel": 9,
        "note": 61,
        "velocity": 0
      },
      {
        "type": "midi",
        "subType": "noteOn",
        "typeByte": 153,
        "deltaTime": 26,
        "channel": 9,
        "note": 36,
        "velocity": 127
      },
      {
        "type": "midi",
        "subType": "noteOn",
        "typeByte": 153,
        "deltaTime": 0,
        "channel": 9,
        "note": 61,
        "velocity": 127
      },
      {
        "type": "midi",
        "subType": "noteOn",
        "typeByte": 153,
        "deltaTime": 0,
        "channel": 9,
        "note": 40,
        "velocity": 127
      },
      {
        "type": "midi",
        "subType": "noteOn",
        "typeByte": 153,
        "deltaTime": 0,
        "channel": 9,
        "note": 51,
        "velocity": 127
      },
      {
        "type": "midi",
        "subType": "noteOn",
        "typeByte": 153,
        "deltaTime": 1,
        "channel": 9,
        "note": 42,
        "velocity": 127
      },
      {
        "type": "midi",
        "subType": "noteOff",
        "typeByte": 153,
        "deltaTime": 22,
        "channel": 9,
        "note": 42,
        "velocity": 0
      },
      {
        "type": "midi",
        "subType": "noteOff",
        "typeByte": 153,
        "deltaTime": 0,
        "channel": 9,
        "note": 36,
        "velocity": 0
      },
      {
        "type": "midi",
        "subType": "noteOff",
        "typeByte": 153,
        "deltaTime": 0,
        "channel": 9,
        "note": 61,
        "velocity": 0
      },
      {
        "type": "midi",
        "subType": "noteOn",
        "typeByte": 153,
        "deltaTime": 24,
        "channel": 9,
        "note": 36,
        "velocity": 127
      },
      {
        "type": "midi",
        "subType": "noteOn",
        "typeByte": 153,
        "deltaTime": 0,
        "channel": 9,
        "note": 61,
        "velocity": 127
      },
      {
        "type": "midi",
        "subType": "noteOn",
        "typeByte": 153,
        "deltaTime": 1,
        "channel": 9,
        "note": 42,
        "velocity": 127
      },
      {
        "type": "midi",
        "subType": "noteOff",
        "typeByte": 153,
        "deltaTime": 22,
        "channel": 9,
        "note": 61,
        "velocity": 0
      },
      {
        "type": "midi",
        "subType": "noteOff",
        "typeByte": 153,
        "deltaTime": 0,
        "channel": 9,
        "note": 36,
        "velocity": 0
      },
      {
        "type": "midi",
        "subType": "noteOff",
        "typeByte": 153,
        "deltaTime": 3,
        "channel": 9,
        "note": 42,
        "velocity": 0
      },
      {
        "type": "midi",
        "subType": "noteOff",
        "typeByte": 153,
        "deltaTime": 23,
        "channel": 9,
        "note": 40,
        "velocity": 0
      },
      {
        "type": "midi",
        "subType": "noteOn",
        "typeByte": 153,
        "deltaTime": 0,
        "channel": 9,
        "note": 38,
        "velocity": 127
      },
      {
        "type": "midi",
        "subType": "noteOn",
        "typeByte": 153,
        "deltaTime": 1,
        "channel": 9,
        "note": 61,
        "velocity": 127
      },
      {
        "type": "midi",
        "subType": "noteOn",
        "typeByte": 153,
        "deltaTime": 0,
        "channel": 9,
        "note": 42,
        "velocity": 127
      },
      {
        "type": "midi",
        "subType": "noteOff",
        "typeByte": 153,
        "deltaTime": 5,
        "channel": 9,
        "note": 51,
        "velocity": 0
      },
      {
        "type": "midi",
        "subType": "noteOff",
        "typeByte": 153,
        "deltaTime": 17,
        "channel": 9,
        "note": 61,
        "velocity": 0
      },
      {
        "type": "midi",
        "subType": "noteOff",
        "typeByte": 153,
        "deltaTime": 0,
        "channel": 9,
        "note": 38,
        "velocity": 0
      },
      {
        "type": "midi",
        "subType": "noteOff",
        "typeByte": 153,
        "deltaTime": 1,
        "channel": 9,
        "note": 42,
        "velocity": 0
      },
      {
        "type": "midi",
        "subType": "noteOn",
        "typeByte": 153,
        "deltaTime": 23,
        "channel": 9,
        "note": 61,
        "velocity": 127
      },
      {
        "type": "midi",
        "subType": "noteOn",
        "typeByte": 153,
        "deltaTime": 0,
        "channel": 9,
        "note": 42,
        "velocity": 127
      },
      {
        "type": "midi",
        "subType": "noteOff",
        "typeByte": 153,
        "deltaTime": 3,
        "channel": 9,
        "note": 49,
        "velocity": 0
      },
      {
        "type": "midi",
        "subType": "noteOff",
        "typeByte": 153,
        "deltaTime": 21,
        "channel": 9,
        "note": 61,
        "velocity": 0
      },
      {
        "type": "midi",
        "subType": "noteOff",
        "typeByte": 153,
        "deltaTime": 2,
        "channel": 9,
        "note": 42,
        "velocity": 0
      },
      {
        "type": "midi",
        "subType": "noteOn",
        "typeByte": 153,
        "deltaTime": 23,
        "channel": 9,
        "note": 36,
        "velocity": 127
      },
      {
        "type": "midi",
        "subType": "noteOn",
        "typeByte": 153,
        "deltaTime": 1,
        "channel": 9,
        "note": 61,
        "velocity": 127
      },
      {
        "type": "midi",
        "subType": "noteOn",
        "typeByte": 153,
        "deltaTime": 0,
        "channel": 9,
        "note": 42,
        "velocity": 127
      },
      {
        "type": "midi",
        "subType": "noteOff",
        "typeByte": 153,
        "deltaTime": 22,
        "channel": 9,
        "note": 61,
        "velocity": 0
      },
      {
        "type": "midi",
        "subType": "noteOff",
        "typeByte": 153,
        "deltaTime": 0,
        "channel": 9,
        "note": 36,
        "velocity": 0
      },
      {
        "type": "midi",
        "subType": "noteOff",
        "typeByte": 153,
        "deltaTime": 6,
        "channel": 9,
        "note": 42,
        "velocity": 0
      },
      {
        "type": "midi",
        "subType": "noteOn",
        "typeByte": 153,
        "deltaTime": 19,
        "channel": 9,
        "note": 61,
        "velocity": 127
      },
      {
        "type": "midi",
        "subType": "noteOn",
        "typeByte": 153,
        "deltaTime": 0,
        "channel": 9,
        "note": 42,
        "velocity": 127
      },
      {
        "type": "midi",
        "subType": "noteOff",
        "typeByte": 153,
        "deltaTime": 23,
        "channel": 9,
        "note": 42,
        "velocity": 0
      },
      {
        "type": "midi",
        "subType": "noteOff",
        "typeByte": 153,
        "deltaTime": 0,
        "channel": 9,
        "note": 61,
        "velocity": 0
      },
      {
        "type": "midi",
        "subType": "noteOn",
        "typeByte": 153,
        "deltaTime": 26,
        "channel": 9,
        "note": 38,
        "velocity": 127
      },
      {
        "type": "midi",
        "subType": "noteOn",
        "typeByte": 153,
        "deltaTime": 0,
        "channel": 9,
        "note": 61,
        "velocity": 127
      },
      {
        "type": "midi",
        "subType": "noteOn",
        "typeByte": 153,
        "deltaTime": 0,
        "channel": 9,
        "note": 42,
        "velocity": 127
      },
      {
        "type": "midi",
        "subType": "noteOff",
        "typeByte": 153,
        "deltaTime": 23,
        "channel": 9,
        "note": 42,
        "velocity": 0
      },
      {
        "type": "midi",
        "subType": "noteOff",
        "typeByte": 153,
        "deltaTime": 0,
        "channel": 9,
        "note": 61,
        "velocity": 0
      },
      {
        "type": "midi",
        "subType": "noteOff",
        "typeByte": 153,
        "deltaTime": 0,
        "channel": 9,
        "note": 38,
        "velocity": 0
      },
      {
        "type": "midi",
        "subType": "noteOn",
        "typeByte": 153,
        "deltaTime": 24,
        "channel": 9,
        "note": 61,
        "velocity": 127
      },
      {
        "type": "midi",
        "subType": "noteOn",
        "typeByte": 153,
        "deltaTime": 0,
        "channel": 9,
        "note": 42,
        "velocity": 127
      },
      {
        "type": "midi",
        "subType": "noteOff",
        "typeByte": 153,
        "deltaTime": 23,
        "channel": 9,
        "note": 61,
        "velocity": 0
      },
      {
        "type": "midi",
        "subType": "noteOff",
        "typeByte": 153,
        "deltaTime": 1,
        "channel": 9,
        "note": 42,
        "velocity": 0
      },
      {
        "type": "midi",
        "subType": "noteOn",
        "typeByte": 153,
        "deltaTime": 25,
        "channel": 9,
        "note": 36,
        "velocity": 127
      },
      {
        "type": "midi",
        "subType": "noteOn",
        "typeByte": 153,
        "deltaTime": 0,
        "channel": 9,
        "note": 61,
        "velocity": 127
      },
      {
        "type": "midi",
        "subType": "noteOn",
        "typeByte": 153,
        "deltaTime": 0,
        "channel": 9,
        "note": 51,
        "velocity": 127
      },
      {
        "type": "midi",
        "subType": "noteOn",
        "typeByte": 153,
        "deltaTime": 1,
        "channel": 9,
        "note": 40,
        "velocity": 127
      },
      {
        "type": "midi",
        "subType": "noteOn",
        "typeByte": 153,
        "deltaTime": 0,
        "channel": 9,
        "note": 42,
        "velocity": 127
      },
      {
        "type": "midi",
        "subType": "noteOff",
        "typeByte": 153,
        "deltaTime": 22,
        "channel": 9,
        "note": 61,
        "velocity": 0
      },
      {
        "type": "midi",
        "subType": "noteOff",
        "typeByte": 153,
        "deltaTime": 0,
        "channel": 9,
        "note": 36,
        "velocity": 0
      },
      {
        "type": "midi",
        "subType": "noteOff",
        "typeByte": 153,
        "deltaTime": 1,
        "channel": 9,
        "note": 42,
        "velocity": 0
      },
      {
        "type": "midi",
        "subType": "noteOn",
        "typeByte": 153,
        "deltaTime": 23,
        "channel": 9,
        "note": 36,
        "velocity": 127
      },
      {
        "type": "midi",
        "subType": "noteOn",
        "typeByte": 153,
        "deltaTime": 1,
        "channel": 9,
        "note": 61,
        "velocity": 127
      },
      {
        "type": "midi",
        "subType": "noteOn",
        "typeByte": 153,
        "deltaTime": 0,
        "channel": 9,
        "note": 42,
        "velocity": 127
      },
      {
        "type": "midi",
        "subType": "noteOff",
        "typeByte": 153,
        "deltaTime": 22,
        "channel": 9,
        "note": 61,
        "velocity": 0
      },
      {
        "type": "midi",
        "subType": "noteOff",
        "typeByte": 153,
        "deltaTime": 0,
        "channel": 9,
        "note": 36,
        "velocity": 0
      },
      {
        "type": "midi",
        "subType": "noteOff",
        "typeByte": 153,
        "deltaTime": 2,
        "channel": 9,
        "note": 42,
        "velocity": 0
      },
      {
        "type": "midi",
        "subType": "noteOff",
        "typeByte": 153,
        "deltaTime": 15,
        "channel": 9,
        "note": 51,
        "velocity": 0
      },
      {
        "type": "midi",
        "subType": "noteOff",
        "typeByte": 153,
        "deltaTime": 1,
        "channel": 9,
        "note": 40,
        "velocity": 0
      },
      {
        "type": "midi",
        "subType": "noteOn",
        "typeByte": 153,
        "deltaTime": 8,
        "channel": 9,
        "note": 38,
        "velocity": 127
      },
      {
        "type": "midi",
        "subType": "noteOn",
        "typeByte": 153,
        "deltaTime": 0,
        "channel": 9,
        "note": 61,
        "velocity": 127
      },
      {
        "type": "midi",
        "subType": "noteOn",
        "typeByte": 153,
        "deltaTime": 1,
        "channel": 9,
        "note": 42,
        "velocity": 127
      },
      {
        "type": "midi",
        "subType": "noteOff",
        "typeByte": 153,
        "deltaTime": 22,
        "channel": 9,
        "note": 61,
        "velocity": 0
      },
      {
        "type": "midi",
        "subType": "noteOff",
        "typeByte": 153,
        "deltaTime": 0,
        "channel": 9,
        "note": 38,
        "velocity": 0
      },
      {
        "type": "midi",
        "subType": "noteOff",
        "typeByte": 153,
        "deltaTime": 2,
        "channel": 9,
        "note": 42,
        "velocity": 0
      },
      {
        "type": "midi",
        "subType": "noteOn",
        "typeByte": 153,
        "deltaTime": 23,
        "channel": 9,
        "note": 61,
        "velocity": 127
      },
      {
        "type": "midi",
        "subType": "noteOn",
        "typeByte": 153,
        "deltaTime": 0,
        "channel": 9,
        "note": 42,
        "velocity": 127
      },
      {
        "type": "midi",
        "subType": "noteOff",
        "typeByte": 153,
        "deltaTime": 23,
        "channel": 9,
        "note": 61,
        "velocity": 0
      },
      {
        "type": "midi",
        "subType": "noteOff",
        "typeByte": 153,
        "deltaTime": 2,
        "channel": 9,
        "note": 42,
        "velocity": 0
      },
      {
        "type": "midi",
        "subType": "noteOn",
        "typeByte": 153,
        "deltaTime": 24,
        "channel": 9,
        "note": 36,
        "velocity": 127
      },
      {
        "type": "midi",
        "subType": "noteOn",
        "typeByte": 153,
        "deltaTime": 0,
        "channel": 9,
        "note": 61,
        "velocity": 127
      },
      {
        "type": "midi",
        "subType": "noteOn",
        "typeByte": 153,
        "deltaTime": 0,
        "channel": 9,
        "note": 42,
        "velocity": 127
      },
      {
        "type": "midi",
        "subType": "noteOff",
        "typeByte": 153,
        "deltaTime": 23,
        "channel": 9,
        "note": 61,
        "velocity": 0
      },
      {
        "type": "midi",
        "subType": "noteOff",
        "typeByte": 153,
        "deltaTime": 0,
        "channel": 9,
        "note": 36,
        "velocity": 0
      },
      {
        "type": "midi",
        "subType": "noteOff",
        "typeByte": 153,
        "deltaTime": 1,
        "channel": 9,
        "note": 42,
        "velocity": 0
      },
      {
        "type": "midi",
        "subType": "noteOn",
        "typeByte": 153,
        "deltaTime": 23,
        "channel": 9,
        "note": 61,
        "velocity": 127
      },
      {
        "type": "midi",
        "subType": "noteOn",
        "typeByte": 153,
        "deltaTime": 0,
        "channel": 9,
        "note": 42,
        "velocity": 127
      },
      {
        "type": "midi",
        "subType": "noteOff",
        "typeByte": 153,
        "deltaTime": 23,
        "channel": 9,
        "note": 61,
        "velocity": 0
      },
      {
        "type": "midi",
        "subType": "noteOff",
        "typeByte": 153,
        "deltaTime": 4,
        "channel": 9,
        "note": 42,
        "velocity": 0
      },
      {
        "type": "midi",
        "subType": "noteOn",
        "typeByte": 153,
        "deltaTime": 22,
        "channel": 9,
        "note": 38,
        "velocity": 127
      },
      {
        "type": "midi",
        "subType": "noteOn",
        "typeByte": 153,
        "deltaTime": 0,
        "channel": 9,
        "note": 61,
        "velocity": 127
      },
      {
        "type": "midi",
        "subType": "noteOn",
        "typeByte": 153,
        "deltaTime": 0,
        "channel": 9,
        "note": 42,
        "velocity": 127
      },
      {
        "type": "midi",
        "subType": "noteOff",
        "typeByte": 153,
        "deltaTime": 23,
        "channel": 9,
        "note": 42,
        "velocity": 0
      },
      {
        "type": "midi",
        "subType": "noteOff",
        "typeByte": 153,
        "deltaTime": 0,
        "channel": 9,
        "note": 61,
        "velocity": 0
      },
      {
        "type": "midi",
        "subType": "noteOff",
        "typeByte": 153,
        "deltaTime": 0,
        "channel": 9,
        "note": 38,
        "velocity": 0
      },
      {
        "type": "midi",
        "subType": "noteOn",
        "typeByte": 153,
        "deltaTime": 24,
        "channel": 9,
        "note": 61,
        "velocity": 127
      },
      {
        "type": "midi",
        "subType": "noteOn",
        "typeByte": 153,
        "deltaTime": 0,
        "channel": 9,
        "note": 42,
        "velocity": 127
      },
      {
        "type": "midi",
        "subType": "noteOff",
        "typeByte": 153,
        "deltaTime": 23,
        "channel": 9,
        "note": 61,
        "velocity": 0
      },
      {
        "type": "midi",
        "subType": "noteOff",
        "typeByte": 153,
        "deltaTime": 1,
        "channel": 9,
        "note": 42,
        "velocity": 0
      },
      {
        "type": "midi",
        "subType": "noteOn",
        "typeByte": 153,
        "deltaTime": 25,
        "channel": 9,
        "note": 36,
        "velocity": 127
      },
      {
        "type": "midi",
        "subType": "noteOn",
        "typeByte": 153,
        "deltaTime": 0,
        "channel": 9,
        "note": 61,
        "velocity": 127
      },
      {
        "type": "midi",
        "subType": "noteOn",
        "typeByte": 153,
        "deltaTime": 0,
        "channel": 9,
        "note": 40,
        "velocity": 127
      },
      {
        "type": "midi",
        "subType": "noteOn",
        "typeByte": 153,
        "deltaTime": 1,
        "channel": 9,
        "note": 51,
        "velocity": 127
      },
      {
        "type": "midi",
        "subType": "noteOn",
        "typeByte": 153,
        "deltaTime": 0,
        "channel": 9,
        "note": 42,
        "velocity": 127
      },
      {
        "type": "midi",
        "subType": "noteOff",
        "typeByte": 153,
        "deltaTime": 22,
        "channel": 9,
        "note": 42,
        "velocity": 0
      },
      {
        "type": "midi",
        "subType": "noteOff",
        "typeByte": 153,
        "deltaTime": 0,
        "channel": 9,
        "note": 36,
        "velocity": 0
      },
      {
        "type": "midi",
        "subType": "noteOff",
        "typeByte": 153,
        "deltaTime": 0,
        "channel": 9,
        "note": 61,
        "velocity": 0
      },
      {
        "type": "midi",
        "subType": "noteOn",
        "typeByte": 153,
        "deltaTime": 25,
        "channel": 9,
        "note": 36,
        "velocity": 127
      },
      {
        "type": "midi",
        "subType": "noteOn",
        "typeByte": 153,
        "deltaTime": 0,
        "channel": 9,
        "note": 61,
        "velocity": 127
      },
      {
        "type": "midi",
        "subType": "noteOn",
        "typeByte": 153,
        "deltaTime": 0,
        "channel": 9,
        "note": 42,
        "velocity": 127
      },
      {
        "type": "midi",
        "subType": "noteOff",
        "typeByte": 153,
        "deltaTime": 23,
        "channel": 9,
        "note": 42,
        "velocity": 0
      },
      {
        "type": "midi",
        "subType": "noteOff",
        "typeByte": 153,
        "deltaTime": 0,
        "channel": 9,
        "note": 36,
        "velocity": 0
      },
      {
        "type": "midi",
        "subType": "noteOff",
        "typeByte": 153,
        "deltaTime": 0,
        "channel": 9,
        "note": 61,
        "velocity": 0
      },
      {
        "type": "midi",
        "subType": "noteOff",
        "typeByte": 153,
        "deltaTime": 25,
        "channel": 9,
        "note": 40,
        "velocity": 0
      },
      {
        "type": "midi",
        "subType": "noteOn",
        "typeByte": 153,
        "deltaTime": 1,
        "channel": 9,
        "note": 38,
        "velocity": 127
      },
      {
        "type": "midi",
        "subType": "noteOn",
        "typeByte": 153,
        "deltaTime": 0,
        "channel": 9,
        "note": 61,
        "velocity": 127
      },
      {
        "type": "midi",
        "subType": "noteOn",
        "typeByte": 153,
        "deltaTime": 0,
        "channel": 9,
        "note": 42,
        "velocity": 127
      },
      {
        "type": "midi",
        "subType": "noteOff",
        "typeByte": 153,
        "deltaTime": 5,
        "channel": 9,
        "note": 51,
        "velocity": 0
      },
      {
        "type": "midi",
        "subType": "noteOff",
        "typeByte": 153,
        "deltaTime": 17,
        "channel": 9,
        "note": 38,
        "velocity": 0
      },
      {
        "type": "midi",
        "subType": "noteOff",
        "typeByte": 153,
        "deltaTime": 0,
        "channel": 9,
        "note": 61,
        "velocity": 0
      },
      {
        "type": "midi",
        "subType": "noteOff",
        "typeByte": 153,
        "deltaTime": 2,
        "channel": 9,
        "note": 42,
        "velocity": 0
      },
      {
        "type": "midi",
        "subType": "noteOn",
        "typeByte": 153,
        "deltaTime": 23,
        "channel": 9,
        "note": 61,
        "velocity": 127
      },
      {
        "type": "midi",
        "subType": "noteOn",
        "typeByte": 153,
        "deltaTime": 0,
        "channel": 9,
        "note": 42,
        "velocity": 127
      },
      {
        "type": "midi",
        "subType": "noteOff",
        "typeByte": 153,
        "deltaTime": 23,
        "channel": 9,
        "note": 42,
        "velocity": 0
      },
      {
        "type": "midi",
        "subType": "noteOff",
        "typeByte": 153,
        "deltaTime": 0,
        "channel": 9,
        "note": 61,
        "velocity": 0
      },
      {
        "type": "midi",
        "subType": "noteOn",
        "typeByte": 153,
        "deltaTime": 26,
        "channel": 9,
        "note": 36,
        "velocity": 127
      },
      {
        "type": "midi",
        "subType": "noteOn",
        "typeByte": 153,
        "deltaTime": 0,
        "channel": 9,
        "note": 61,
        "velocity": 127
      },
      {
        "type": "midi",
        "subType": "noteOn",
        "typeByte": 153,
        "deltaTime": 0,
        "channel": 9,
        "note": 42,
        "velocity": 127
      },
      {
        "type": "midi",
        "subType": "noteOff",
        "typeByte": 153,
        "deltaTime": 17,
        "channel": 9,
        "note": 42,
        "velocity": 0
      },
      {
        "type": "midi",
        "subType": "noteOff",
        "typeByte": 153,
        "deltaTime": 6,
        "channel": 9,
        "note": 61,
        "velocity": 0
      },
      {
        "type": "midi",
        "subType": "noteOff",
        "typeByte": 153,
        "deltaTime": 0,
        "channel": 9,
        "note": 36,
        "velocity": 0
      },
      {
        "type": "midi",
        "subType": "noteOn",
        "typeByte": 153,
        "deltaTime": 24,
        "channel": 9,
        "note": 61,
        "velocity": 127
      },
      {
        "type": "midi",
        "subType": "noteOn",
        "typeByte": 153,
        "deltaTime": 0,
        "channel": 9,
        "note": 42,
        "velocity": 127
      },
      {
        "type": "midi",
        "subType": "noteOff",
        "typeByte": 153,
        "deltaTime": 18,
        "channel": 9,
        "note": 42,
        "velocity": 0
      },
      {
        "type": "midi",
        "subType": "noteOff",
        "typeByte": 153,
        "deltaTime": 5,
        "channel": 9,
        "note": 61,
        "velocity": 0
      },
      {
        "type": "midi",
        "subType": "noteOn",
        "typeByte": 153,
        "deltaTime": 26,
        "channel": 9,
        "note": 38,
        "velocity": 127
      },
      {
        "type": "midi",
        "subType": "noteOn",
        "typeByte": 153,
        "deltaTime": 0,
        "channel": 9,
        "note": 61,
        "velocity": 127
      },
      {
        "type": "midi",
        "subType": "noteOn",
        "typeByte": 153,
        "deltaTime": 0,
        "channel": 9,
        "note": 42,
        "velocity": 127
      },
      {
        "type": "midi",
        "subType": "noteOff",
        "typeByte": 153,
        "deltaTime": 20,
        "channel": 9,
        "note": 42,
        "velocity": 0
      },
      {
        "type": "midi",
        "subType": "noteOff",
        "typeByte": 153,
        "deltaTime": 3,
        "channel": 9,
        "note": 61,
        "velocity": 0
      },
      {
        "type": "midi",
        "subType": "noteOff",
        "typeByte": 153,
        "deltaTime": 0,
        "channel": 9,
        "note": 38,
        "velocity": 0
      },
      {
        "type": "midi",
        "subType": "noteOn",
        "typeByte": 153,
        "deltaTime": 24,
        "channel": 9,
        "note": 61,
        "velocity": 127
      },
      {
        "type": "midi",
        "subType": "noteOn",
        "typeByte": 153,
        "deltaTime": 0,
        "channel": 9,
        "note": 42,
        "velocity": 127
      },
      {
        "type": "midi",
        "subType": "noteOff",
        "typeByte": 153,
        "deltaTime": 15,
        "channel": 9,
        "note": 42,
        "velocity": 0
      },
      {
        "type": "midi",
        "subType": "noteOff",
        "typeByte": 153,
        "deltaTime": 8,
        "channel": 9,
        "note": 61,
        "velocity": 0
      },
      {
        "type": "midi",
        "subType": "noteOn",
        "typeByte": 153,
        "deltaTime": 26,
        "channel": 9,
        "note": 36,
        "velocity": 127
      },
      {
        "type": "midi",
        "subType": "noteOn",
        "typeByte": 153,
        "deltaTime": 0,
        "channel": 9,
        "note": 61,
        "velocity": 127
      },
      {
        "type": "midi",
        "subType": "noteOn",
        "typeByte": 153,
        "deltaTime": 1,
        "channel": 9,
        "note": 51,
        "velocity": 127
      },
      {
        "type": "midi",
        "subType": "noteOn",
        "typeByte": 153,
        "deltaTime": 0,
        "channel": 9,
        "note": 40,
        "velocity": 127
      },
      {
        "type": "midi",
        "subType": "noteOn",
        "typeByte": 153,
        "deltaTime": 0,
        "channel": 9,
        "note": 42,
        "velocity": 127
      },
      {
        "type": "midi",
        "subType": "noteOff",
        "typeByte": 153,
        "deltaTime": 20,
        "channel": 9,
        "note": 42,
        "velocity": 0
      },
      {
        "type": "midi",
        "subType": "noteOff",
        "typeByte": 153,
        "deltaTime": 2,
        "channel": 9,
        "note": 36,
        "velocity": 0
      },
      {
        "type": "midi",
        "subType": "noteOff",
        "typeByte": 153,
        "deltaTime": 0,
        "channel": 9,
        "note": 61,
        "velocity": 0
      },
      {
        "type": "midi",
        "subType": "noteOn",
        "typeByte": 153,
        "deltaTime": 25,
        "channel": 9,
        "note": 36,
        "velocity": 127
      },
      {
        "type": "midi",
        "subType": "noteOn",
        "typeByte": 153,
        "deltaTime": 0,
        "channel": 9,
        "note": 61,
        "velocity": 127
      },
      {
        "type": "midi",
        "subType": "noteOn",
        "typeByte": 153,
        "deltaTime": 0,
        "channel": 9,
        "note": 42,
        "velocity": 127
      },
      {
        "type": "midi",
        "subType": "noteOff",
        "typeByte": 153,
        "deltaTime": 23,
        "channel": 9,
        "note": 42,
        "velocity": 0
      },
      {
        "type": "midi",
        "subType": "noteOff",
        "typeByte": 153,
        "deltaTime": 0,
        "channel": 9,
        "note": 36,
        "velocity": 0
      },
      {
        "type": "midi",
        "subType": "noteOff",
        "typeByte": 153,
        "deltaTime": 0,
        "channel": 9,
        "note": 61,
        "velocity": 0
      },
      {
        "type": "midi",
        "subType": "noteOff",
        "typeByte": 153,
        "deltaTime": 16,
        "channel": 9,
        "note": 51,
        "velocity": 0
      },
      {
        "type": "midi",
        "subType": "noteOff",
        "typeByte": 153,
        "deltaTime": 1,
        "channel": 9,
        "note": 40,
        "velocity": 0
      },
      {
        "type": "midi",
        "subType": "noteOn",
        "typeByte": 153,
        "deltaTime": 9,
        "channel": 9,
        "note": 38,
        "velocity": 127
      },
      {
        "type": "midi",
        "subType": "noteOn",
        "typeByte": 153,
        "deltaTime": 0,
        "channel": 9,
        "note": 61,
        "velocity": 127
      },
      {
        "type": "midi",
        "subType": "noteOn",
        "typeByte": 153,
        "deltaTime": 0,
        "channel": 9,
        "note": 42,
        "velocity": 127
      },
      {
        "type": "midi",
        "subType": "noteOff",
        "typeByte": 153,
        "deltaTime": 23,
        "channel": 9,
        "note": 42,
        "velocity": 0
      },
      {
        "type": "midi",
        "subType": "noteOff",
        "typeByte": 153,
        "deltaTime": 0,
        "channel": 9,
        "note": 61,
        "velocity": 0
      },
      {
        "type": "midi",
        "subType": "noteOff",
        "typeByte": 153,
        "deltaTime": 0,
        "channel": 9,
        "note": 38,
        "velocity": 0
      },
      {
        "type": "midi",
        "subType": "noteOn",
        "typeByte": 153,
        "deltaTime": 24,
        "channel": 9,
        "note": 38,
        "velocity": 127
      },
      {
        "type": "midi",
        "subType": "noteOn",
        "typeByte": 153,
        "deltaTime": 0,
        "channel": 9,
        "note": 61,
        "velocity": 127
      },
      {
        "type": "midi",
        "subType": "noteOn",
        "typeByte": 153,
        "deltaTime": 0,
        "channel": 9,
        "note": 42,
        "velocity": 127
      },
      {
        "type": "midi",
        "subType": "noteOff",
        "typeByte": 153,
        "deltaTime": 23,
        "channel": 9,
        "note": 61,
        "velocity": 0
      },
      {
        "type": "midi",
        "subType": "noteOff",
        "typeByte": 153,
        "deltaTime": 0,
        "channel": 9,
        "note": 38,
        "velocity": 0
      },
      {
        "type": "midi",
        "subType": "noteOff",
        "typeByte": 153,
        "deltaTime": 1,
        "channel": 9,
        "note": 42,
        "velocity": 0
      },
      {
        "type": "midi",
        "subType": "noteOn",
        "typeByte": 153,
        "deltaTime": 25,
        "channel": 9,
        "note": 36,
        "velocity": 127
      },
      {
        "type": "midi",
        "subType": "noteOn",
        "typeByte": 153,
        "deltaTime": 0,
        "channel": 9,
        "note": 42,
        "velocity": 127
      },
      {
        "type": "midi",
        "subType": "noteOff",
        "typeByte": 153,
        "deltaTime": 23,
        "channel": 9,
        "note": 36,
        "velocity": 0
      },
      {
        "type": "midi",
        "subType": "noteOff",
        "typeByte": 153,
        "deltaTime": 1,
        "channel": 9,
        "note": 42,
        "velocity": 0
      },
      {
        "type": "midi",
        "subType": "noteOn",
        "typeByte": 153,
        "deltaTime": 23,
        "channel": 9,
        "note": 42,
        "velocity": 127
      },
      {
        "type": "midi",
        "subType": "noteOff",
        "typeByte": 153,
        "deltaTime": 21,
        "channel": 9,
        "note": 42,
        "velocity": 0
      },
      {
        "type": "midi",
        "subType": "noteOn",
        "typeByte": 153,
        "deltaTime": 28,
        "channel": 9,
        "note": 36,
        "velocity": 127
      },
      {
        "type": "midi",
        "subType": "noteOn",
        "typeByte": 153,
        "deltaTime": 0,
        "channel": 9,
        "note": 38,
        "velocity": 127
      },
      {
        "type": "midi",
        "subType": "noteOn",
        "typeByte": 153,
        "deltaTime": 1,
        "channel": 9,
        "note": 42,
        "velocity": 127
      },
      {
        "type": "midi",
        "subType": "noteOff",
        "typeByte": 153,
        "deltaTime": 21,
        "channel": 9,
        "note": 42,
        "velocity": 0
      },
      {
        "type": "midi",
        "subType": "noteOff",
        "typeByte": 153,
        "deltaTime": 1,
        "channel": 9,
        "note": 38,
        "velocity": 0
      },
      {
        "type": "midi",
        "subType": "noteOff",
        "typeByte": 153,
        "deltaTime": 0,
        "channel": 9,
        "note": 36,
        "velocity": 0
      },
      {
        "type": "midi",
        "subType": "noteOn",
        "typeByte": 153,
        "deltaTime": 25,
        "channel": 9,
        "note": 42,
        "velocity": 127
      },
      {
        "type": "midi",
        "subType": "noteOff",
        "typeByte": 153,
        "deltaTime": 23,
        "channel": 9,
        "note": 42,
        "velocity": 0
      },
      {
        "type": "midi",
        "subType": "noteOn",
        "typeByte": 153,
        "deltaTime": 25,
        "channel": 9,
        "note": 36,
        "velocity": 127
      },
      {
        "type": "midi",
        "subType": "noteOn",
        "typeByte": 153,
        "deltaTime": 0,
        "channel": 9,
        "note": 42,
        "velocity": 127
      },
      {
        "type": "midi",
        "subType": "noteOff",
        "typeByte": 153,
        "deltaTime": 23,
        "channel": 9,
        "note": 42,
        "velocity": 0
      },
      {
        "type": "midi",
        "subType": "noteOff",
        "typeByte": 153,
        "deltaTime": 0,
        "channel": 9,
        "note": 36,
        "velocity": 0
      },
      {
        "type": "midi",
        "subType": "noteOn",
        "typeByte": 153,
        "deltaTime": 25,
        "channel": 9,
        "note": 42,
        "velocity": 127
      },
      {
        "type": "midi",
        "subType": "noteOff",
        "typeByte": 153,
        "deltaTime": 26,
        "channel": 9,
        "note": 42,
        "velocity": 0
      },
      {
        "type": "midi",
        "subType": "noteOn",
        "typeByte": 153,
        "deltaTime": 23,
        "channel": 9,
        "note": 36,
        "velocity": 127
      },
      {
        "type": "midi",
        "subType": "noteOn",
        "typeByte": 153,
        "deltaTime": 0,
        "channel": 9,
        "note": 38,
        "velocity": 127
      },
      {
        "type": "midi",
        "subType": "noteOn",
        "typeByte": 153,
        "deltaTime": 0,
        "channel": 9,
        "note": 42,
        "velocity": 127
      },
      {
        "type": "midi",
        "subType": "noteOff",
        "typeByte": 153,
        "deltaTime": 23,
        "channel": 9,
        "note": 38,
        "velocity": 0
      },
      {
        "type": "midi",
        "subType": "noteOff",
        "typeByte": 153,
        "deltaTime": 0,
        "channel": 9,
        "note": 36,
        "velocity": 0
      },
      {
        "type": "midi",
        "subType": "noteOff",
        "typeByte": 153,
        "deltaTime": 1,
        "channel": 9,
        "note": 42,
        "velocity": 0
      },
      {
        "type": "midi",
        "subType": "noteOn",
        "typeByte": 153,
        "deltaTime": 23,
        "channel": 9,
        "note": 42,
        "velocity": 127
      },
      {
        "type": "midi",
        "subType": "noteOff",
        "typeByte": 153,
        "deltaTime": 26,
        "channel": 9,
        "note": 42,
        "velocity": 0
      },
      {
        "type": "midi",
        "subType": "noteOn",
        "typeByte": 153,
        "deltaTime": 23,
        "channel": 9,
        "note": 36,
        "velocity": 127
      },
      {
        "type": "midi",
        "subType": "noteOn",
        "typeByte": 153,
        "deltaTime": 0,
        "channel": 9,
        "note": 42,
        "velocity": 127
      },
      {
        "type": "midi",
        "subType": "noteOff",
        "typeByte": 153,
        "deltaTime": 23,
        "channel": 9,
        "note": 36,
        "velocity": 0
      },
      {
        "type": "midi",
        "subType": "noteOff",
        "typeByte": 153,
        "deltaTime": 5,
        "channel": 9,
        "note": 42,
        "velocity": 0
      },
      {
        "type": "midi",
        "subType": "noteOn",
        "typeByte": 153,
        "deltaTime": 19,
        "channel": 9,
        "note": 42,
        "velocity": 127
      },
      {
        "type": "midi",
        "subType": "noteOff",
        "typeByte": 153,
        "deltaTime": 24,
        "channel": 9,
        "note": 42,
        "velocity": 0
      },
      {
        "type": "midi",
        "subType": "noteOn",
        "typeByte": 153,
        "deltaTime": 25,
        "channel": 9,
        "note": 38,
        "velocity": 127
      },
      {
        "type": "midi",
        "subType": "noteOn",
        "typeByte": 153,
        "deltaTime": 0,
        "channel": 9,
        "note": 36,
        "velocity": 127
      },
      {
        "type": "midi",
        "subType": "noteOn",
        "typeByte": 153,
        "deltaTime": 1,
        "channel": 9,
        "note": 42,
        "velocity": 127
      },
      {
        "type": "midi",
        "subType": "noteOff",
        "typeByte": 153,
        "deltaTime": 22,
        "channel": 9,
        "note": 42,
        "velocity": 0
      },
      {
        "type": "midi",
        "subType": "noteOff",
        "typeByte": 153,
        "deltaTime": 0,
        "channel": 9,
        "note": 38,
        "velocity": 0
      },
      {
        "type": "midi",
        "subType": "noteOff",
        "typeByte": 153,
        "deltaTime": 1,
        "channel": 9,
        "note": 36,
        "velocity": 0
      },
      {
        "type": "midi",
        "subType": "noteOn",
        "typeByte": 153,
        "deltaTime": 24,
        "channel": 9,
        "note": 42,
        "velocity": 127
      },
      {
        "type": "midi",
        "subType": "noteOff",
        "typeByte": 153,
        "deltaTime": 24,
        "channel": 9,
        "note": 42,
        "velocity": 0
      },
      {
        "type": "midi",
        "subType": "noteOn",
        "typeByte": 153,
        "deltaTime": 25,
        "channel": 9,
        "note": 36,
        "velocity": 127
      },
      {
        "type": "midi",
        "subType": "noteOn",
        "typeByte": 153,
        "deltaTime": 0,
        "channel": 9,
        "note": 42,
        "velocity": 127
      },
      {
        "type": "midi",
        "subType": "noteOff",
        "typeByte": 153,
        "deltaTime": 23,
        "channel": 9,
        "note": 36,
        "velocity": 0
      },
      {
        "type": "midi",
        "subType": "noteOff",
        "typeByte": 153,
        "deltaTime": 1,
        "channel": 9,
        "note": 42,
        "velocity": 0
      },
      {
        "type": "midi",
        "subType": "noteOn",
        "typeByte": 153,
        "deltaTime": 23,
        "channel": 9,
        "note": 42,
        "velocity": 127
      },
      {
        "type": "midi",
        "subType": "noteOff",
        "typeByte": 153,
        "deltaTime": 24,
        "channel": 9,
        "note": 42,
        "velocity": 0
      },
      {
        "type": "midi",
        "subType": "noteOn",
        "typeByte": 153,
        "deltaTime": 25,
        "channel": 9,
        "note": 36,
        "velocity": 127
      },
      {
        "type": "midi",
        "subType": "noteOn",
        "typeByte": 153,
        "deltaTime": 0,
        "channel": 9,
        "note": 38,
        "velocity": 127
      },
      {
        "type": "midi",
        "subType": "noteOn",
        "typeByte": 153,
        "deltaTime": 0,
        "channel": 9,
        "note": 42,
        "velocity": 127
      },
      {
        "type": "midi",
        "subType": "noteOff",
        "typeByte": 153,
        "deltaTime": 23,
        "channel": 9,
        "note": 38,
        "velocity": 0
      },
      {
        "type": "midi",
        "subType": "noteOff",
        "typeByte": 153,
        "deltaTime": 0,
        "channel": 9,
        "note": 36,
        "velocity": 0
      },
      {
        "type": "midi",
        "subType": "noteOff",
        "typeByte": 153,
        "deltaTime": 1,
        "channel": 9,
        "note": 42,
        "velocity": 0
      },
      {
        "type": "midi",
        "subType": "noteOn",
        "typeByte": 153,
        "deltaTime": 23,
        "channel": 9,
        "note": 42,
        "velocity": 127
      },
      {
        "type": "midi",
        "subType": "noteOff",
        "typeByte": 153,
        "deltaTime": 26,
        "channel": 9,
        "note": 42,
        "velocity": 0
      },
      {
        "type": "midi",
        "subType": "noteOn",
        "typeByte": 153,
        "deltaTime": 23,
        "channel": 9,
        "note": 36,
        "velocity": 127
      },
      {
        "type": "midi",
        "subType": "noteOn",
        "typeByte": 153,
        "deltaTime": 0,
        "channel": 9,
        "note": 42,
        "velocity": 127
      },
      {
        "type": "midi",
        "subType": "noteOff",
        "typeByte": 153,
        "deltaTime": 23,
        "channel": 9,
        "note": 36,
        "velocity": 0
      },
      {
        "type": "midi",
        "subType": "noteOff",
        "typeByte": 153,
        "deltaTime": 2,
        "channel": 9,
        "note": 42,
        "velocity": 0
      },
      {
        "type": "midi",
        "subType": "noteOn",
        "typeByte": 153,
        "deltaTime": 23,
        "channel": 9,
        "note": 42,
        "velocity": 127
      },
      {
        "type": "midi",
        "subType": "noteOff",
        "typeByte": 153,
        "deltaTime": 27,
        "channel": 9,
        "note": 42,
        "velocity": 0
      },
      {
        "type": "midi",
        "subType": "noteOn",
        "typeByte": 153,
        "deltaTime": 22,
        "channel": 9,
        "note": 38,
        "velocity": 127
      },
      {
        "type": "midi",
        "subType": "noteOn",
        "typeByte": 153,
        "deltaTime": 0,
        "channel": 9,
        "note": 36,
        "velocity": 127
      },
      {
        "type": "midi",
        "subType": "noteOn",
        "typeByte": 153,
        "deltaTime": 0,
        "channel": 9,
        "note": 42,
        "velocity": 127
      },
      {
        "type": "midi",
        "subType": "noteOff",
        "typeByte": 153,
        "deltaTime": 23,
        "channel": 9,
        "note": 42,
        "velocity": 0
      },
      {
        "type": "midi",
        "subType": "noteOff",
        "typeByte": 153,
        "deltaTime": 0,
        "channel": 9,
        "note": 36,
        "velocity": 0
      },
      {
        "type": "midi",
        "subType": "noteOff",
        "typeByte": 153,
        "deltaTime": 0,
        "channel": 9,
        "note": 38,
        "velocity": 0
      },
      {
        "type": "midi",
        "subType": "noteOn",
        "typeByte": 153,
        "deltaTime": 24,
        "channel": 9,
        "note": 42,
        "velocity": 127
      },
      {
        "type": "midi",
        "subType": "noteOff",
        "typeByte": 153,
        "deltaTime": 23,
        "channel": 9,
        "note": 42,
        "velocity": 0
      },
      {
        "type": "midi",
        "subType": "noteOn",
        "typeByte": 153,
        "deltaTime": 26,
        "channel": 9,
        "note": 36,
        "velocity": 127
      },
      {
        "type": "midi",
        "subType": "noteOn",
        "typeByte": 153,
        "deltaTime": 0,
        "channel": 9,
        "note": 42,
        "velocity": 127
      },
      {
        "type": "midi",
        "subType": "noteOff",
        "typeByte": 153,
        "deltaTime": 23,
        "channel": 9,
        "note": 42,
        "velocity": 0
      },
      {
        "type": "midi",
        "subType": "noteOff",
        "typeByte": 153,
        "deltaTime": 0,
        "channel": 9,
        "note": 36,
        "velocity": 0
      },
      {
        "type": "midi",
        "subType": "noteOn",
        "typeByte": 153,
        "deltaTime": 24,
        "channel": 9,
        "note": 42,
        "velocity": 127
      },
      {
        "type": "midi",
        "subType": "noteOff",
        "typeByte": 153,
        "deltaTime": 23,
        "channel": 9,
        "note": 42,
        "velocity": 0
      },
      {
        "type": "midi",
        "subType": "noteOn",
        "typeByte": 153,
        "deltaTime": 26,
        "channel": 9,
        "note": 38,
        "velocity": 127
      },
      {
        "type": "midi",
        "subType": "noteOn",
        "typeByte": 153,
        "deltaTime": 0,
        "channel": 9,
        "note": 36,
        "velocity": 127
      },
      {
        "type": "midi",
        "subType": "noteOn",
        "typeByte": 153,
        "deltaTime": 1,
        "channel": 9,
        "note": 42,
        "velocity": 127
      },
      {
        "type": "midi",
        "subType": "noteOff",
        "typeByte": 153,
        "deltaTime": 22,
        "channel": 9,
        "note": 36,
        "velocity": 0
      },
      {
        "type": "midi",
        "subType": "noteOff",
        "typeByte": 153,
        "deltaTime": 0,
        "channel": 9,
        "note": 38,
        "velocity": 0
      },
      {
        "type": "midi",
        "subType": "noteOff",
        "typeByte": 153,
        "deltaTime": 2,
        "channel": 9,
        "note": 42,
        "velocity": 0
      },
      {
        "type": "midi",
        "subType": "noteOn",
        "typeByte": 153,
        "deltaTime": 23,
        "channel": 9,
        "note": 42,
        "velocity": 127
      },
      {
        "type": "midi",
        "subType": "noteOff",
        "typeByte": 153,
        "deltaTime": 23,
        "channel": 9,
        "note": 42,
        "velocity": 0
      },
      {
        "type": "midi",
        "subType": "noteOn",
        "typeByte": 153,
        "deltaTime": 25,
        "channel": 9,
        "note": 36,
        "velocity": 127
      },
      {
        "type": "midi",
        "subType": "noteOn",
        "typeByte": 153,
        "deltaTime": 1,
        "channel": 9,
        "note": 42,
        "velocity": 127
      },
      {
        "type": "midi",
        "subType": "noteOff",
        "typeByte": 153,
        "deltaTime": 17,
        "channel": 9,
        "note": 42,
        "velocity": 0
      },
      {
        "type": "midi",
        "subType": "noteOff",
        "typeByte": 153,
        "deltaTime": 5,
        "channel": 9,
        "note": 36,
        "velocity": 0
      },
      {
        "type": "midi",
        "subType": "noteOn",
        "typeByte": 153,
        "deltaTime": 25,
        "channel": 9,
        "note": 42,
        "velocity": 127
      },
      {
        "type": "midi",
        "subType": "noteOff",
        "typeByte": 153,
        "deltaTime": 18,
        "channel": 9,
        "note": 42,
        "velocity": 0
      },
      {
        "type": "midi",
        "subType": "noteOn",
        "typeByte": 153,
        "deltaTime": 31,
        "channel": 9,
        "note": 36,
        "velocity": 127
      },
      {
        "type": "midi",
        "subType": "noteOn",
        "typeByte": 153,
        "deltaTime": 0,
        "channel": 9,
        "note": 38,
        "velocity": 127
      },
      {
        "type": "midi",
        "subType": "noteOn",
        "typeByte": 153,
        "deltaTime": 0,
        "channel": 9,
        "note": 42,
        "velocity": 127
      },
      {
        "type": "midi",
        "subType": "noteOff",
        "typeByte": 153,
        "deltaTime": 20,
        "channel": 9,
        "note": 42,
        "velocity": 0
      },
      {
        "type": "midi",
        "subType": "noteOff",
        "typeByte": 153,
        "deltaTime": 3,
        "channel": 9,
        "note": 38,
        "velocity": 0
      },
      {
        "type": "midi",
        "subType": "noteOff",
        "typeByte": 153,
        "deltaTime": 0,
        "channel": 9,
        "note": 36,
        "velocity": 0
      },
      {
        "type": "midi",
        "subType": "noteOn",
        "typeByte": 153,
        "deltaTime": 24,
        "channel": 9,
        "note": 42,
        "velocity": 127
      },
      {
        "type": "midi",
        "subType": "noteOff",
        "typeByte": 153,
        "deltaTime": 15,
        "channel": 9,
        "note": 42,
        "velocity": 0
      },
      {
        "type": "midi",
        "subType": "noteOn",
        "typeByte": 153,
        "deltaTime": 34,
        "channel": 9,
        "note": 36,
        "velocity": 127
      },
      {
        "type": "midi",
        "subType": "noteOn",
        "typeByte": 153,
        "deltaTime": 0,
        "channel": 9,
        "note": 42,
        "velocity": 127
      },
      {
        "type": "midi",
        "subType": "noteOff",
        "typeByte": 153,
        "deltaTime": 22,
        "channel": 9,
        "note": 42,
        "velocity": 0
      },
      {
        "type": "midi",
        "subType": "noteOff",
        "typeByte": 153,
        "deltaTime": 1,
        "channel": 9,
        "note": 36,
        "velocity": 0
      },
      {
        "type": "midi",
        "subType": "noteOn",
        "typeByte": 153,
        "deltaTime": 24,
        "channel": 9,
        "note": 42,
        "velocity": 127
      },
      {
        "type": "midi",
        "subType": "noteOff",
        "typeByte": 153,
        "deltaTime": 24,
        "channel": 9,
        "note": 42,
        "velocity": 0
      },
      {
        "type": "midi",
        "subType": "noteOn",
        "typeByte": 153,
        "deltaTime": 25,
        "channel": 9,
        "note": 36,
        "velocity": 127
      },
      {
        "type": "midi",
        "subType": "noteOn",
        "typeByte": 153,
        "deltaTime": 0,
        "channel": 9,
        "note": 38,
        "velocity": 127
      },
      {
        "type": "midi",
        "subType": "noteOn",
        "typeByte": 153,
        "deltaTime": 1,
        "channel": 9,
        "note": 42,
        "velocity": 127
      },
      {
        "type": "midi",
        "subType": "noteOff",
        "typeByte": 153,
        "deltaTime": 22,
        "channel": 9,
        "note": 42,
        "velocity": 0
      },
      {
        "type": "midi",
        "subType": "noteOff",
        "typeByte": 153,
        "deltaTime": 0,
        "channel": 9,
        "note": 36,
        "velocity": 0
      },
      {
        "type": "midi",
        "subType": "noteOff",
        "typeByte": 153,
        "deltaTime": 1,
        "channel": 9,
        "note": 38,
        "velocity": 0
      },
      {
        "type": "midi",
        "subType": "noteOn",
        "typeByte": 153,
        "deltaTime": 24,
        "channel": 9,
        "note": 42,
        "velocity": 127
      },
      {
        "type": "midi",
        "subType": "noteOff",
        "typeByte": 153,
        "deltaTime": 24,
        "channel": 9,
        "note": 42,
        "velocity": 0
      },
      {
        "type": "midi",
        "subType": "noteOn",
        "typeByte": 153,
        "deltaTime": 25,
        "channel": 9,
        "note": 36,
        "velocity": 127
      },
      {
        "type": "midi",
        "subType": "noteOn",
        "typeByte": 153,
        "deltaTime": 0,
        "channel": 9,
        "note": 42,
        "velocity": 127
      },
      {
        "type": "midi",
        "subType": "noteOff",
        "typeByte": 153,
        "deltaTime": 23,
        "channel": 9,
        "note": 36,
        "velocity": 0
      },
      {
        "type": "midi",
        "subType": "noteOff",
        "typeByte": 153,
        "deltaTime": 4,
        "channel": 9,
        "note": 42,
        "velocity": 0
      },
      {
        "type": "midi",
        "subType": "noteOn",
        "typeByte": 153,
        "deltaTime": 20,
        "channel": 9,
        "note": 42,
        "velocity": 127
      },
      {
        "type": "midi",
        "subType": "noteOff",
        "typeByte": 153,
        "deltaTime": 23,
        "channel": 9,
        "note": 42,
        "velocity": 0
      },
      {
        "type": "midi",
        "subType": "noteOn",
        "typeByte": 153,
        "deltaTime": 26,
        "channel": 9,
        "note": 36,
        "velocity": 127
      },
      {
        "type": "midi",
        "subType": "noteOn",
        "typeByte": 153,
        "deltaTime": 0,
        "channel": 9,
        "note": 38,
        "velocity": 127
      },
      {
        "type": "midi",
        "subType": "noteOn",
        "typeByte": 153,
        "deltaTime": 0,
        "channel": 9,
        "note": 42,
        "velocity": 127
      },
      {
        "type": "midi",
        "subType": "noteOff",
        "typeByte": 153,
        "deltaTime": 22,
        "channel": 9,
        "note": 42,
        "velocity": 0
      },
      {
        "type": "midi",
        "subType": "noteOff",
        "typeByte": 153,
        "deltaTime": 1,
        "channel": 9,
        "note": 38,
        "velocity": 0
      },
      {
        "type": "midi",
        "subType": "noteOff",
        "typeByte": 153,
        "deltaTime": 0,
        "channel": 9,
        "note": 36,
        "velocity": 0
      },
      {
        "type": "midi",
        "subType": "noteOn",
        "typeByte": 153,
        "deltaTime": 24,
        "channel": 9,
        "note": 42,
        "velocity": 127
      },
      {
        "type": "midi",
        "subType": "noteOff",
        "typeByte": 153,
        "deltaTime": 21,
        "channel": 9,
        "note": 42,
        "velocity": 0
      },
      {
        "type": "midi",
        "subType": "noteOn",
        "typeByte": 153,
        "deltaTime": 28,
        "channel": 9,
        "note": 36,
        "velocity": 127
      },
      {
        "type": "midi",
        "subType": "noteOn",
        "typeByte": 153,
        "deltaTime": 0,
        "channel": 9,
        "note": 42,
        "velocity": 127
      },
      {
        "type": "midi",
        "subType": "noteOff",
        "typeByte": 153,
        "deltaTime": 19,
        "channel": 9,
        "note": 42,
        "velocity": 0
      },
      {
        "type": "midi",
        "subType": "noteOff",
        "typeByte": 153,
        "deltaTime": 4,
        "channel": 9,
        "note": 36,
        "velocity": 0
      },
      {
        "type": "midi",
        "subType": "noteOn",
        "typeByte": 153,
        "deltaTime": 25,
        "channel": 9,
        "note": 42,
        "velocity": 127
      },
      {
        "type": "midi",
        "subType": "noteOff",
        "typeByte": 153,
        "deltaTime": 23,
        "channel": 9,
        "note": 42,
        "velocity": 0
      },
      {
        "type": "midi",
        "subType": "noteOn",
        "typeByte": 153,
        "deltaTime": 25,
        "channel": 9,
        "note": 38,
        "velocity": 127
      },
      {
        "type": "midi",
        "subType": "noteOn",
        "typeByte": 153,
        "deltaTime": 0,
        "channel": 9,
        "note": 36,
        "velocity": 127
      },
      {
        "type": "midi",
        "subType": "noteOn",
        "typeByte": 153,
        "deltaTime": 1,
        "channel": 9,
        "note": 42,
        "velocity": 127
      },
      {
        "type": "midi",
        "subType": "noteOff",
        "typeByte": 153,
        "deltaTime": 22,
        "channel": 9,
        "note": 36,
        "velocity": 0
      },
      {
        "type": "midi",
        "subType": "noteOff",
        "typeByte": 153,
        "deltaTime": 0,
        "channel": 9,
        "note": 38,
        "velocity": 0
      },
      {
        "type": "midi",
        "subType": "noteOff",
        "typeByte": 153,
        "deltaTime": 2,
        "channel": 9,
        "note": 42,
        "velocity": 0
      },
      {
        "type": "midi",
        "subType": "noteOn",
        "typeByte": 153,
        "deltaTime": 23,
        "channel": 9,
        "note": 42,
        "velocity": 127
      },
      {
        "type": "midi",
        "subType": "noteOff",
        "typeByte": 153,
        "deltaTime": 23,
        "channel": 9,
        "note": 42,
        "velocity": 0
      },
      {
        "type": "midi",
        "subType": "noteOn",
        "typeByte": 153,
        "deltaTime": 26,
        "channel": 9,
        "note": 36,
        "velocity": 127
      },
      {
        "type": "midi",
        "subType": "noteOn",
        "typeByte": 153,
        "deltaTime": 0,
        "channel": 9,
        "note": 42,
        "velocity": 127
      },
      {
        "type": "midi",
        "subType": "noteOff",
        "typeByte": 153,
        "deltaTime": 21,
        "channel": 9,
        "note": 42,
        "velocity": 0
      },
      {
        "type": "midi",
        "subType": "noteOff",
        "typeByte": 153,
        "deltaTime": 2,
        "channel": 9,
        "note": 36,
        "velocity": 0
      },
      {
        "type": "midi",
        "subType": "noteOn",
        "typeByte": 153,
        "deltaTime": 24,
        "channel": 9,
        "note": 42,
        "velocity": 127
      },
      {
        "type": "midi",
        "subType": "noteOff",
        "typeByte": 153,
        "deltaTime": 21,
        "channel": 9,
        "note": 42,
        "velocity": 0
      },
      {
        "type": "midi",
        "subType": "noteOn",
        "typeByte": 153,
        "deltaTime": 28,
        "channel": 9,
        "note": 36,
        "velocity": 127
      },
      {
        "type": "midi",
        "subType": "noteOn",
        "typeByte": 153,
        "deltaTime": 0,
        "channel": 9,
        "note": 38,
        "velocity": 127
      },
      {
        "type": "midi",
        "subType": "noteOn",
        "typeByte": 153,
        "deltaTime": 1,
        "channel": 9,
        "note": 42,
        "velocity": 127
      },
      {
        "type": "midi",
        "subType": "noteOff",
        "typeByte": 153,
        "deltaTime": 18,
        "channel": 9,
        "note": 42,
        "velocity": 0
      },
      {
        "type": "midi",
        "subType": "noteOff",
        "typeByte": 153,
        "deltaTime": 4,
        "channel": 9,
        "note": 38,
        "velocity": 0
      },
      {
        "type": "midi",
        "subType": "noteOff",
        "typeByte": 153,
        "deltaTime": 0,
        "channel": 9,
        "note": 36,
        "velocity": 0
      },
      {
        "type": "midi",
        "subType": "noteOn",
        "typeByte": 153,
        "deltaTime": 25,
        "channel": 9,
        "note": 42,
        "velocity": 127
      },
      {
        "type": "midi",
        "subType": "noteOff",
        "typeByte": 153,
        "deltaTime": 20,
        "channel": 9,
        "note": 42,
        "velocity": 0
      },
      {
        "type": "midi",
        "subType": "noteOn",
        "typeByte": 153,
        "deltaTime": 28,
        "channel": 9,
        "note": 36,
        "velocity": 127
      },
      {
        "type": "midi",
        "subType": "noteOn",
        "typeByte": 153,
        "deltaTime": 1,
        "channel": 9,
        "note": 42,
        "velocity": 127
      },
      {
        "type": "midi",
        "subType": "noteOff",
        "typeByte": 153,
        "deltaTime": 18,
        "channel": 9,
        "note": 42,
        "velocity": 0
      },
      {
        "type": "midi",
        "subType": "noteOff",
        "typeByte": 153,
        "deltaTime": 4,
        "channel": 9,
        "note": 36,
        "velocity": 0
      },
      {
        "type": "midi",
        "subType": "noteOn",
        "typeByte": 153,
        "deltaTime": 25,
        "channel": 9,
        "note": 42,
        "velocity": 127
      },
      {
        "type": "midi",
        "subType": "noteOff",
        "typeByte": 153,
        "deltaTime": 22,
        "channel": 9,
        "note": 42,
        "velocity": 0
      },
      {
        "type": "midi",
        "subType": "noteOn",
        "typeByte": 153,
        "deltaTime": 27,
        "channel": 9,
        "note": 38,
        "velocity": 127
      },
      {
        "type": "midi",
        "subType": "noteOn",
        "typeByte": 153,
        "deltaTime": 0,
        "channel": 9,
        "note": 36,
        "velocity": 127
      },
      {
        "type": "midi",
        "subType": "noteOn",
        "typeByte": 153,
        "deltaTime": 0,
        "channel": 9,
        "note": 42,
        "velocity": 127
      },
      {
        "type": "midi",
        "subType": "noteOff",
        "typeByte": 153,
        "deltaTime": 23,
        "channel": 9,
        "note": 36,
        "velocity": 0
      },
      {
        "type": "midi",
        "subType": "noteOff",
        "typeByte": 153,
        "deltaTime": 0,
        "channel": 9,
        "note": 38,
        "velocity": 0
      },
      {
        "type": "midi",
        "subType": "noteOff",
        "typeByte": 153,
        "deltaTime": 1,
        "channel": 9,
        "note": 42,
        "velocity": 0
      },
      {
        "type": "midi",
        "subType": "noteOn",
        "typeByte": 153,
        "deltaTime": 23,
        "channel": 9,
        "note": 42,
        "velocity": 127
      },
      {
        "type": "midi",
        "subType": "noteOff",
        "typeByte": 153,
        "deltaTime": 27,
        "channel": 9,
        "note": 42,
        "velocity": 0
      },
      {
        "type": "midi",
        "subType": "noteOn",
        "typeByte": 153,
        "deltaTime": 22,
        "channel": 9,
        "note": 36,
        "velocity": 127
      },
      {
        "type": "midi",
        "subType": "noteOn",
        "typeByte": 153,
        "deltaTime": 0,
        "channel": 9,
        "note": 42,
        "velocity": 127
      },
      {
        "type": "midi",
        "subType": "noteOff",
        "typeByte": 153,
        "deltaTime": 23,
        "channel": 9,
        "note": 36,
        "velocity": 0
      },
      {
        "type": "midi",
        "subType": "noteOff",
        "typeByte": 153,
        "deltaTime": 12,
        "channel": 9,
        "note": 42,
        "velocity": 0
      },
      {
        "type": "midi",
        "subType": "noteOn",
        "typeByte": 153,
        "deltaTime": 12,
        "channel": 9,
        "note": 42,
        "velocity": 127
      },
      {
        "type": "midi",
        "subType": "noteOff",
        "typeByte": 153,
        "deltaTime": 25,
        "channel": 9,
        "note": 42,
        "velocity": 0
      },
      {
        "type": "midi",
        "subType": "noteOn",
        "typeByte": 153,
        "deltaTime": 24,
        "channel": 9,
        "note": 38,
        "velocity": 127
      },
      {
        "type": "midi",
        "subType": "noteOn",
        "typeByte": 153,
        "deltaTime": 0,
        "channel": 9,
        "note": 36,
        "velocity": 127
      },
      {
        "type": "midi",
        "subType": "noteOn",
        "typeByte": 153,
        "deltaTime": 1,
        "channel": 9,
        "note": 42,
        "velocity": 127
      },
      {
        "type": "midi",
        "subType": "noteOff",
        "typeByte": 153,
        "deltaTime": 18,
        "channel": 9,
        "note": 42,
        "velocity": 0
      },
      {
        "type": "midi",
        "subType": "noteOff",
        "typeByte": 153,
        "deltaTime": 4,
        "channel": 9,
        "note": 36,
        "velocity": 0
      },
      {
        "type": "midi",
        "subType": "noteOff",
        "typeByte": 153,
        "deltaTime": 0,
        "channel": 9,
        "note": 38,
        "velocity": 0
      },
      {
        "type": "midi",
        "subType": "noteOn",
        "typeByte": 153,
        "deltaTime": 25,
        "channel": 9,
        "note": 42,
        "velocity": 127
      },
      {
        "type": "midi",
        "subType": "noteOff",
        "typeByte": 153,
        "deltaTime": 20,
        "channel": 9,
        "note": 42,
        "velocity": 0
      },
      {
        "type": "midi",
        "subType": "noteOn",
        "typeByte": 153,
        "deltaTime": 28,
        "channel": 9,
        "note": 36,
        "velocity": 127
      },
      {
        "type": "midi",
        "subType": "noteOn",
        "typeByte": 153,
        "deltaTime": 1,
        "channel": 9,
        "note": 42,
        "velocity": 127
      },
      {
        "type": "midi",
        "subType": "noteOff",
        "typeByte": 153,
        "deltaTime": 21,
        "channel": 9,
        "note": 42,
        "velocity": 0
      },
      {
        "type": "midi",
        "subType": "noteOff",
        "typeByte": 153,
        "deltaTime": 1,
        "channel": 9,
        "note": 36,
        "velocity": 0
      },
      {
        "type": "midi",
        "subType": "noteOn",
        "typeByte": 153,
        "deltaTime": 25,
        "channel": 9,
        "note": 42,
        "velocity": 127
      },
      {
        "type": "midi",
        "subType": "noteOff",
        "typeByte": 153,
        "deltaTime": 20,
        "channel": 9,
        "note": 42,
        "velocity": 0
      },
      {
        "type": "midi",
        "subType": "noteOn",
        "typeByte": 153,
        "deltaTime": 29,
        "channel": 9,
        "note": 36,
        "velocity": 127
      },
      {
        "type": "midi",
        "subType": "noteOn",
        "typeByte": 153,
        "deltaTime": 0,
        "channel": 9,
        "note": 38,
        "velocity": 127
      },
      {
        "type": "midi",
        "subType": "noteOn",
        "typeByte": 153,
        "deltaTime": 0,
        "channel": 9,
        "note": 42,
        "velocity": 127
      },
      {
        "type": "midi",
        "subType": "noteOff",
        "typeByte": 153,
        "deltaTime": 23,
        "channel": 9,
        "note": 42,
        "velocity": 0
      },
      {
        "type": "midi",
        "subType": "noteOff",
        "typeByte": 153,
        "deltaTime": 0,
        "channel": 9,
        "note": 38,
        "velocity": 0
      },
      {
        "type": "midi",
        "subType": "noteOff",
        "typeByte": 153,
        "deltaTime": 0,
        "channel": 9,
        "note": 36,
        "velocity": 0
      },
      {
        "type": "midi",
        "subType": "noteOn",
        "typeByte": 153,
        "deltaTime": 26,
        "channel": 9,
        "note": 42,
        "velocity": 127
      },
      {
        "type": "midi",
        "subType": "noteOff",
        "typeByte": 153,
        "deltaTime": 23,
        "channel": 9,
        "note": 42,
        "velocity": 0
      },
      {
        "type": "midi",
        "subType": "noteOn",
        "typeByte": 153,
        "deltaTime": 24,
        "channel": 9,
        "note": 36,
        "velocity": 127
      },
      {
        "type": "midi",
        "subType": "noteOn",
        "typeByte": 153,
        "deltaTime": 0,
        "channel": 9,
        "note": 42,
        "velocity": 127
      },
      {
        "type": "midi",
        "subType": "noteOff",
        "typeByte": 153,
        "deltaTime": 23,
        "channel": 9,
        "note": 36,
        "velocity": 0
      },
      {
        "type": "midi",
        "subType": "noteOff",
        "typeByte": 153,
        "deltaTime": 7,
        "channel": 9,
        "note": 42,
        "velocity": 0
      },
      {
        "type": "midi",
        "subType": "noteOn",
        "typeByte": 153,
        "deltaTime": 19,
        "channel": 9,
        "note": 42,
        "velocity": 127
      },
      {
        "type": "midi",
        "subType": "noteOff",
        "typeByte": 153,
        "deltaTime": 23,
        "channel": 9,
        "note": 42,
        "velocity": 0
      },
      {
        "type": "midi",
        "subType": "noteOn",
        "typeByte": 153,
        "deltaTime": 24,
        "channel": 9,
        "note": 36,
        "velocity": 127
      },
      {
        "type": "midi",
        "subType": "noteOn",
        "typeByte": 153,
        "deltaTime": 0,
        "channel": 9,
        "note": 38,
        "velocity": 127
      },
      {
        "type": "midi",
        "subType": "noteOn",
        "typeByte": 153,
        "deltaTime": 1,
        "channel": 9,
        "note": 42,
        "velocity": 127
      },
      {
        "type": "midi",
        "subType": "noteOff",
        "typeByte": 153,
        "deltaTime": 21,
        "channel": 9,
        "note": 42,
        "velocity": 0
      },
      {
        "type": "midi",
        "subType": "noteOff",
        "typeByte": 153,
        "deltaTime": 1,
        "channel": 9,
        "note": 36,
        "velocity": 0
      },
      {
        "type": "midi",
        "subType": "noteOff",
        "typeByte": 153,
        "deltaTime": 1,
        "channel": 9,
        "note": 38,
        "velocity": 0
      },
      {
        "type": "midi",
        "subType": "noteOn",
        "typeByte": 153,
        "deltaTime": 25,
        "channel": 9,
        "note": 42,
        "velocity": 127
      },
      {
        "type": "midi",
        "subType": "noteOff",
        "typeByte": 153,
        "deltaTime": 23,
        "channel": 9,
        "note": 42,
        "velocity": 0
      },
      {
        "type": "midi",
        "subType": "noteOn",
        "typeByte": 153,
        "deltaTime": 25,
        "channel": 9,
        "note": 36,
        "velocity": 127
      },
      {
        "type": "midi",
        "subType": "noteOn",
        "typeByte": 153,
        "deltaTime": 0,
        "channel": 9,
        "note": 42,
        "velocity": 127
      },
      {
        "type": "midi",
        "subType": "noteOff",
        "typeByte": 153,
        "deltaTime": 23,
        "channel": 9,
        "note": 42,
        "velocity": 0
      },
      {
        "type": "midi",
        "subType": "noteOff",
        "typeByte": 153,
        "deltaTime": 0,
        "channel": 9,
        "note": 36,
        "velocity": 0
      },
      {
        "type": "midi",
        "subType": "noteOn",
        "typeByte": 153,
        "deltaTime": 26,
        "channel": 9,
        "note": 42,
        "velocity": 127
      },
      {
        "type": "midi",
        "subType": "noteOff",
        "typeByte": 153,
        "deltaTime": 23,
        "channel": 9,
        "note": 42,
        "velocity": 0
      },
      {
        "type": "midi",
        "subType": "noteOn",
        "typeByte": 153,
        "deltaTime": 24,
        "channel": 9,
        "note": 38,
        "velocity": 127
      },
      {
        "type": "midi",
        "subType": "noteOn",
        "typeByte": 153,
        "deltaTime": 0,
        "channel": 9,
        "note": 36,
        "velocity": 127
      },
      {
        "type": "midi",
        "subType": "noteOn",
        "typeByte": 153,
        "deltaTime": 0,
        "channel": 9,
        "note": 42,
        "velocity": 127
      },
      {
        "type": "midi",
        "subType": "noteOff",
        "typeByte": 153,
        "deltaTime": 22,
        "channel": 9,
        "note": 42,
        "velocity": 0
      },
      {
        "type": "midi",
        "subType": "noteOff",
        "typeByte": 153,
        "deltaTime": 1,
        "channel": 9,
        "note": 36,
        "velocity": 0
      },
      {
        "type": "midi",
        "subType": "noteOff",
        "typeByte": 153,
        "deltaTime": 0,
        "channel": 9,
        "note": 38,
        "velocity": 0
      },
      {
        "type": "midi",
        "subType": "noteOn",
        "typeByte": 153,
        "deltaTime": 26,
        "channel": 9,
        "note": 42,
        "velocity": 127
      },
      {
        "type": "midi",
        "subType": "noteOff",
        "typeByte": 153,
        "deltaTime": 21,
        "channel": 9,
        "note": 42,
        "velocity": 0
      },
      {
        "type": "midi",
        "subType": "noteOn",
        "typeByte": 153,
        "deltaTime": 26,
        "channel": 9,
        "note": 36,
        "velocity": 127
      },
      {
        "type": "midi",
        "subType": "noteOff",
        "typeByte": 153,
        "deltaTime": 23,
        "channel": 9,
        "note": 36,
        "velocity": 0
      },
      {
        "type": "midi",
        "subType": "noteOn",
        "typeByte": 153,
        "deltaTime": 26,
        "channel": 9,
        "note": 36,
        "velocity": 127
      },
      {
        "type": "midi",
        "subType": "noteOff",
        "typeByte": 153,
        "deltaTime": 23,
        "channel": 9,
        "note": 36,
        "velocity": 0
      },
      {
        "type": "midi",
        "subType": "noteOn",
        "typeByte": 153,
        "deltaTime": 25,
        "channel": 9,
        "note": 36,
        "velocity": 127
      },
      {
        "type": "midi",
        "subType": "noteOff",
        "typeByte": 153,
        "deltaTime": 23,
        "channel": 9,
        "note": 36,
        "velocity": 0
      },
      {
        "type": "midi",
        "subType": "noteOn",
        "typeByte": 153,
        "deltaTime": 73,
        "channel": 9,
        "note": 38,
        "velocity": 127
      },
      {
        "type": "midi",
        "subType": "noteOff",
        "typeByte": 153,
        "deltaTime": 23,
        "channel": 9,
        "note": 38,
        "velocity": 0
      },
      {
        "type": "midi",
        "subType": "noteOn",
        "typeByte": 153,
        "deltaTime": 122,
        "channel": 9,
        "note": 36,
        "velocity": 127
      },
      {
        "type": "midi",
        "subType": "noteOff",
        "typeByte": 153,
        "deltaTime": 24,
        "channel": 9,
        "note": 36,
        "velocity": 0
      },
      {
        "type": "midi",
        "subType": "noteOn",
        "typeByte": 153,
        "deltaTime": 23,
        "channel": 9,
        "note": 36,
        "velocity": 127
      },
      {
        "type": "midi",
        "subType": "noteOff",
        "typeByte": 153,
        "deltaTime": 24,
        "channel": 9,
        "note": 36,
        "velocity": 0
      },
      {
        "type": "midi",
        "subType": "noteOn",
        "typeByte": 153,
        "deltaTime": 25,
        "channel": 9,
        "note": 36,
        "velocity": 127
      },
      {
        "type": "midi",
        "subType": "noteOff",
        "typeByte": 153,
        "deltaTime": 23,
        "channel": 9,
        "note": 36,
        "velocity": 0
      },
      {
        "type": "midi",
        "subType": "noteOn",
        "typeByte": 153,
        "deltaTime": 25,
        "channel": 9,
        "note": 36,
        "velocity": 127
      },
      {
        "type": "midi",
        "subType": "noteOff",
        "typeByte": 153,
        "deltaTime": 23,
        "channel": 9,
        "note": 36,
        "velocity": 0
      },
      {
        "type": "midi",
        "subType": "noteOn",
        "typeByte": 153,
        "deltaTime": 73,
        "channel": 9,
        "note": 38,
        "velocity": 127
      },
      {
        "type": "midi",
        "subType": "noteOff",
        "typeByte": 153,
        "deltaTime": 23,
        "channel": 9,
        "note": 38,
        "velocity": 0
      },
      {
        "type": "midi",
        "subType": "noteOn",
        "typeByte": 153,
        "deltaTime": 122,
        "channel": 9,
        "note": 36,
        "velocity": 127
      },
      {
        "type": "midi",
        "subType": "noteOff",
        "typeByte": 153,
        "deltaTime": 23,
        "channel": 9,
        "note": 36,
        "velocity": 0
      },
      {
        "type": "midi",
        "subType": "noteOn",
        "typeByte": 153,
        "deltaTime": 25,
        "channel": 9,
        "note": 36,
        "velocity": 127
      },
      {
        "type": "midi",
        "subType": "noteOff",
        "typeByte": 153,
        "deltaTime": 23,
        "channel": 9,
        "note": 36,
        "velocity": 0
      },
      {
        "type": "midi",
        "subType": "noteOn",
        "typeByte": 153,
        "deltaTime": 26,
        "channel": 9,
        "note": 36,
        "velocity": 127
      },
      {
        "type": "midi",
        "subType": "noteOff",
        "typeByte": 153,
        "deltaTime": 23,
        "channel": 9,
        "note": 36,
        "velocity": 0
      },
      {
        "type": "midi",
        "subType": "noteOn",
        "typeByte": 153,
        "deltaTime": 24,
        "channel": 9,
        "note": 36,
        "velocity": 127
      },
      {
        "type": "midi",
        "subType": "noteOff",
        "typeByte": 153,
        "deltaTime": 23,
        "channel": 9,
        "note": 36,
        "velocity": 0
      },
      {
        "type": "midi",
        "subType": "noteOn",
        "typeByte": 153,
        "deltaTime": 73,
        "channel": 9,
        "note": 38,
        "velocity": 127
      },
      {
        "type": "midi",
        "subType": "noteOff",
        "typeByte": 153,
        "deltaTime": 23,
        "channel": 9,
        "note": 38,
        "velocity": 0
      },
      {
        "type": "midi",
        "subType": "noteOn",
        "typeByte": 153,
        "deltaTime": 74,
        "channel": 9,
        "note": 36,
        "velocity": 127
      },
      {
        "type": "midi",
        "subType": "noteOff",
        "typeByte": 153,
        "deltaTime": 23,
        "channel": 9,
        "note": 36,
        "velocity": 0
      },
      {
        "type": "midi",
        "subType": "noteOn",
        "typeByte": 153,
        "deltaTime": 25,
        "channel": 9,
        "note": 38,
        "velocity": 127
      },
      {
        "type": "midi",
        "subType": "noteOff",
        "typeByte": 153,
        "deltaTime": 23,
        "channel": 9,
        "note": 38,
        "velocity": 0
      },
      {
        "type": "midi",
        "subType": "noteOn",
        "typeByte": 153,
        "deltaTime": 25,
        "channel": 9,
        "note": 36,
        "velocity": 127
      },
      {
        "type": "midi",
        "subType": "noteOff",
        "typeByte": 153,
        "deltaTime": 23,
        "channel": 9,
        "note": 36,
        "velocity": 0
      },
      {
        "type": "midi",
        "subType": "noteOn",
        "typeByte": 153,
        "deltaTime": 26,
        "channel": 9,
        "note": 38,
        "velocity": 127
      },
      {
        "type": "midi",
        "subType": "noteOff",
        "typeByte": 153,
        "deltaTime": 23,
        "channel": 9,
        "note": 38,
        "velocity": 0
      },
      {
        "type": "midi",
        "subType": "noteOn",
        "typeByte": 153,
        "deltaTime": 24,
        "channel": 9,
        "note": 36,
        "velocity": 127
      },
      {
        "type": "midi",
        "subType": "noteOff",
        "typeByte": 153,
        "deltaTime": 23,
        "channel": 9,
        "note": 36,
        "velocity": 0
      },
      {
        "type": "midi",
        "subType": "noteOn",
        "typeByte": 153,
        "deltaTime": 26,
        "channel": 9,
        "note": 38,
        "velocity": 127
      },
      {
        "type": "midi",
        "subType": "noteOff",
        "typeByte": 153,
        "deltaTime": 23,
        "channel": 9,
        "note": 38,
        "velocity": 0
      },
      {
        "type": "midi",
        "subType": "noteOn",
        "typeByte": 153,
        "deltaTime": 24,
        "channel": 9,
        "note": 36,
        "velocity": 127
      },
      {
        "type": "midi",
        "subType": "noteOn",
        "typeByte": 153,
        "deltaTime": 0,
        "channel": 9,
        "note": 38,
        "velocity": 127
      },
      {
        "type": "midi",
        "subType": "noteOff",
        "typeByte": 153,
        "deltaTime": 23,
        "channel": 9,
        "note": 38,
        "velocity": 0
      },
      {
        "type": "midi",
        "subType": "noteOff",
        "typeByte": 153,
        "deltaTime": 0,
        "channel": 9,
        "note": 36,
        "velocity": 0
      },
      {
        "type": "midi",
        "subType": "noteOn",
        "typeByte": 153,
        "deltaTime": 26,
        "channel": 9,
        "note": 38,
        "velocity": 127
      },
      {
        "type": "midi",
        "subType": "noteOff",
        "typeByte": 153,
        "deltaTime": 23,
        "channel": 9,
        "note": 38,
        "velocity": 0
      },
      {
        "type": "midi",
        "subType": "noteOn",
        "typeByte": 153,
        "deltaTime": 25,
        "channel": 9,
        "note": 38,
        "velocity": 127
      },
      {
        "type": "midi",
        "subType": "noteOn",
        "typeByte": 153,
        "deltaTime": 0,
        "channel": 9,
        "note": 36,
        "velocity": 127
      },
      {
        "type": "midi",
        "subType": "noteOff",
        "typeByte": 153,
        "deltaTime": 23,
        "channel": 9,
        "note": 36,
        "velocity": 0
      },
      {
        "type": "midi",
        "subType": "noteOff",
        "typeByte": 153,
        "deltaTime": 0,
        "channel": 9,
        "note": 38,
        "velocity": 0
      },
      {
        "type": "midi",
        "subType": "noteOn",
        "typeByte": 153,
        "deltaTime": 26,
        "channel": 9,
        "note": 38,
        "velocity": 127
      },
      {
        "type": "midi",
        "subType": "noteOn",
        "typeByte": 153,
        "deltaTime": 0,
        "channel": 9,
        "note": 36,
        "velocity": 127
      },
      {
        "type": "midi",
        "subType": "noteOff",
        "typeByte": 153,
        "deltaTime": 23,
        "channel": 9,
        "note": 36,
        "velocity": 0
      },
      {
        "type": "midi",
        "subType": "noteOff",
        "typeByte": 153,
        "deltaTime": 0,
        "channel": 9,
        "note": 38,
        "velocity": 0
      },
      {
        "type": "midi",
        "subType": "noteOn",
        "typeByte": 153,
        "deltaTime": 24,
        "channel": 9,
        "note": 36,
        "velocity": 127
      },
      {
        "type": "midi",
        "subType": "noteOn",
        "typeByte": 153,
        "deltaTime": 0,
        "channel": 9,
        "note": 61,
        "velocity": 127
      },
      {
        "type": "midi",
        "subType": "noteOn",
        "typeByte": 153,
        "deltaTime": 0,
        "channel": 9,
        "note": 42,
        "velocity": 127
      },
      {
        "type": "midi",
        "subType": "noteOff",
        "typeByte": 153,
        "deltaTime": 23,
        "channel": 9,
        "note": 61,
        "velocity": 0
      },
      {
        "type": "midi",
        "subType": "noteOff",
        "typeByte": 153,
        "deltaTime": 0,
        "channel": 9,
        "note": 36,
        "velocity": 0
      },
      {
        "type": "midi",
        "subType": "noteOff",
        "typeByte": 153,
        "deltaTime": 3,
        "channel": 9,
        "note": 42,
        "velocity": 0
      },
      {
        "type": "midi",
        "subType": "noteOn",
        "typeByte": 153,
        "deltaTime": 23,
        "channel": 9,
        "note": 61,
        "velocity": 127
      },
      {
        "type": "midi",
        "subType": "noteOn",
        "typeByte": 153,
        "deltaTime": 0,
        "channel": 9,
        "note": 42,
        "velocity": 127
      },
      {
        "type": "midi",
        "subType": "noteOff",
        "typeByte": 153,
        "deltaTime": 19,
        "channel": 9,
        "note": 42,
        "velocity": 0
      },
      {
        "type": "midi",
        "subType": "noteOff",
        "typeByte": 153,
        "deltaTime": 4,
        "channel": 9,
        "note": 61,
        "velocity": 0
      },
      {
        "type": "midi",
        "subType": "noteOn",
        "typeByte": 153,
        "deltaTime": 24,
        "channel": 9,
        "note": 38,
        "velocity": 127
      },
      {
        "type": "midi",
        "subType": "noteOn",
        "typeByte": 153,
        "deltaTime": 0,
        "channel": 9,
        "note": 61,
        "velocity": 127
      },
      {
        "type": "midi",
        "subType": "noteOn",
        "typeByte": 153,
        "deltaTime": 1,
        "channel": 9,
        "note": 42,
        "velocity": 127
      },
      {
        "type": "midi",
        "subType": "noteOff",
        "typeByte": 153,
        "deltaTime": 21,
        "channel": 9,
        "note": 42,
        "velocity": 0
      },
      {
        "type": "midi",
        "subType": "noteOff",
        "typeByte": 153,
        "deltaTime": 1,
        "channel": 9,
        "note": 61,
        "velocity": 0
      },
      {
        "type": "midi",
        "subType": "noteOff",
        "typeByte": 153,
        "deltaTime": 0,
        "channel": 9,
        "note": 38,
        "velocity": 0
      },
      {
        "type": "midi",
        "subType": "noteOn",
        "typeByte": 153,
        "deltaTime": 26,
        "channel": 9,
        "note": 61,
        "velocity": 127
      },
      {
        "type": "midi",
        "subType": "noteOn",
        "typeByte": 153,
        "deltaTime": 0,
        "channel": 9,
        "note": 42,
        "velocity": 127
      },
      {
        "type": "midi",
        "subType": "noteOff",
        "typeByte": 153,
        "deltaTime": 23,
        "channel": 9,
        "note": 42,
        "velocity": 0
      },
      {
        "type": "midi",
        "subType": "noteOff",
        "typeByte": 153,
        "deltaTime": 0,
        "channel": 9,
        "note": 61,
        "velocity": 0
      },
      {
        "type": "midi",
        "subType": "noteOn",
        "typeByte": 153,
        "deltaTime": 25,
        "channel": 9,
        "note": 36,
        "velocity": 127
      },
      {
        "type": "midi",
        "subType": "noteOn",
        "typeByte": 153,
        "deltaTime": 0,
        "channel": 9,
        "note": 61,
        "velocity": 127
      },
      {
        "type": "midi",
        "subType": "noteOn",
        "typeByte": 153,
        "deltaTime": 0,
        "channel": 9,
        "note": 40,
        "velocity": 127
      },
      {
        "type": "midi",
        "subType": "noteOn",
        "typeByte": 153,
        "deltaTime": 0,
        "channel": 9,
        "note": 51,
        "velocity": 127
      },
      {
        "type": "midi",
        "subType": "noteOn",
        "typeByte": 153,
        "deltaTime": 1,
        "channel": 9,
        "note": 42,
        "velocity": 127
      },
      {
        "type": "midi",
        "subType": "noteOff",
        "typeByte": 153,
        "deltaTime": 22,
        "channel": 9,
        "note": 42,
        "velocity": 0
      },
      {
        "type": "midi",
        "subType": "noteOff",
        "typeByte": 153,
        "deltaTime": 0,
        "channel": 9,
        "note": 36,
        "velocity": 0
      },
      {
        "type": "midi",
        "subType": "noteOff",
        "typeByte": 153,
        "deltaTime": 0,
        "channel": 9,
        "note": 61,
        "velocity": 0
      },
      {
        "type": "midi",
        "subType": "noteOn",
        "typeByte": 153,
        "deltaTime": 25,
        "channel": 9,
        "note": 36,
        "velocity": 127
      },
      {
        "type": "midi",
        "subType": "noteOn",
        "typeByte": 153,
        "deltaTime": 1,
        "channel": 9,
        "note": 61,
        "velocity": 127
      },
      {
        "type": "midi",
        "subType": "noteOn",
        "typeByte": 153,
        "deltaTime": 0,
        "channel": 9,
        "note": 42,
        "velocity": 127
      },
      {
        "type": "midi",
        "subType": "noteOff",
        "typeByte": 153,
        "deltaTime": 23,
        "channel": 9,
        "note": 61,
        "velocity": 0
      },
      {
        "type": "midi",
        "subType": "noteOff",
        "typeByte": 153,
        "deltaTime": 0,
        "channel": 9,
        "note": 36,
        "velocity": 0
      },
      {
        "type": "midi",
        "subType": "noteOff",
        "typeByte": 153,
        "deltaTime": 1,
        "channel": 9,
        "note": 42,
        "velocity": 0
      },
      {
        "type": "midi",
        "subType": "noteOff",
        "typeByte": 153,
        "deltaTime": 23,
        "channel": 9,
        "note": 40,
        "velocity": 0
      },
      {
        "type": "midi",
        "subType": "noteOn",
        "typeByte": 153,
        "deltaTime": 0,
        "channel": 9,
        "note": 38,
        "velocity": 127
      },
      {
        "type": "midi",
        "subType": "noteOn",
        "typeByte": 153,
        "deltaTime": 0,
        "channel": 9,
        "note": 61,
        "velocity": 127
      },
      {
        "type": "midi",
        "subType": "noteOn",
        "typeByte": 153,
        "deltaTime": 1,
        "channel": 9,
        "note": 42,
        "velocity": 127
      },
      {
        "type": "midi",
        "subType": "noteOff",
        "typeByte": 153,
        "deltaTime": 4,
        "channel": 9,
        "note": 51,
        "velocity": 0
      },
      {
        "type": "midi",
        "subType": "noteOff",
        "typeByte": 153,
        "deltaTime": 18,
        "channel": 9,
        "note": 38,
        "velocity": 0
      },
      {
        "type": "midi",
        "subType": "noteOff",
        "typeByte": 153,
        "deltaTime": 0,
        "channel": 9,
        "note": 61,
        "velocity": 0
      },
      {
        "type": "midi",
        "subType": "noteOff",
        "typeByte": 153,
        "deltaTime": 3,
        "channel": 9,
        "note": 42,
        "velocity": 0
      },
      {
        "type": "midi",
        "subType": "noteOn",
        "typeByte": 153,
        "deltaTime": 23,
        "channel": 9,
        "note": 61,
        "velocity": 127
      },
      {
        "type": "midi",
        "subType": "noteOn",
        "typeByte": 153,
        "deltaTime": 0,
        "channel": 9,
        "note": 42,
        "velocity": 127
      },
      {
        "type": "midi",
        "subType": "noteOff",
        "typeByte": 153,
        "deltaTime": 23,
        "channel": 9,
        "note": 61,
        "velocity": 0
      },
      {
        "type": "midi",
        "subType": "noteOff",
        "typeByte": 153,
        "deltaTime": 1,
        "channel": 9,
        "note": 42,
        "velocity": 0
      },
      {
        "type": "midi",
        "subType": "noteOn",
        "typeByte": 153,
        "deltaTime": 23,
        "channel": 9,
        "note": 36,
        "velocity": 127
      },
      {
        "type": "midi",
        "subType": "noteOn",
        "typeByte": 153,
        "deltaTime": 0,
        "channel": 9,
        "note": 61,
        "velocity": 127
      },
      {
        "type": "midi",
        "subType": "noteOn",
        "typeByte": 153,
        "deltaTime": 1,
        "channel": 9,
        "note": 42,
        "velocity": 127
      },
      {
        "type": "midi",
        "subType": "noteOff",
        "typeByte": 153,
        "deltaTime": 22,
        "channel": 9,
        "note": 61,
        "velocity": 0
      },
      {
        "type": "midi",
        "subType": "noteOff",
        "typeByte": 153,
        "deltaTime": 0,
        "channel": 9,
        "note": 36,
        "velocity": 0
      },
      {
        "type": "midi",
        "subType": "noteOff",
        "typeByte": 153,
        "deltaTime": 6,
        "channel": 9,
        "note": 42,
        "velocity": 0
      },
      {
        "type": "midi",
        "subType": "noteOn",
        "typeByte": 153,
        "deltaTime": 20,
        "channel": 9,
        "note": 61,
        "velocity": 127
      },
      {
        "type": "midi",
        "subType": "noteOn",
        "typeByte": 153,
        "deltaTime": 0,
        "channel": 9,
        "note": 42,
        "velocity": 127
      },
      {
        "type": "midi",
        "subType": "noteOff",
        "typeByte": 153,
        "deltaTime": 22,
        "channel": 9,
        "note": 42,
        "velocity": 0
      },
      {
        "type": "midi",
        "subType": "noteOff",
        "typeByte": 153,
        "deltaTime": 1,
        "channel": 9,
        "note": 61,
        "velocity": 0
      },
      {
        "type": "midi",
        "subType": "noteOn",
        "typeByte": 153,
        "deltaTime": 25,
        "channel": 9,
        "note": 38,
        "velocity": 127
      },
      {
        "type": "midi",
        "subType": "noteOn",
        "typeByte": 153,
        "deltaTime": 0,
        "channel": 9,
        "note": 61,
        "velocity": 127
      },
      {
        "type": "midi",
        "subType": "noteOn",
        "typeByte": 153,
        "deltaTime": 0,
        "channel": 9,
        "note": 42,
        "velocity": 127
      },
      {
        "type": "midi",
        "subType": "noteOff",
        "typeByte": 153,
        "deltaTime": 23,
        "channel": 9,
        "note": 42,
        "velocity": 0
      },
      {
        "type": "midi",
        "subType": "noteOff",
        "typeByte": 153,
        "deltaTime": 0,
        "channel": 9,
        "note": 61,
        "velocity": 0
      },
      {
        "type": "midi",
        "subType": "noteOff",
        "typeByte": 153,
        "deltaTime": 0,
        "channel": 9,
        "note": 38,
        "velocity": 0
      },
      {
        "type": "midi",
        "subType": "noteOn",
        "typeByte": 153,
        "deltaTime": 25,
        "channel": 9,
        "note": 61,
        "velocity": 127
      },
      {
        "type": "midi",
        "subType": "noteOn",
        "typeByte": 153,
        "deltaTime": 1,
        "channel": 9,
        "note": 42,
        "velocity": 127
      },
      {
        "type": "midi",
        "subType": "noteOff",
        "typeByte": 153,
        "deltaTime": 22,
        "channel": 9,
        "note": 61,
        "velocity": 0
      },
      {
        "type": "midi",
        "subType": "noteOff",
        "typeByte": 153,
        "deltaTime": 1,
        "channel": 9,
        "note": 42,
        "velocity": 0
      },
      {
        "type": "midi",
        "subType": "noteOn",
        "typeByte": 153,
        "deltaTime": 24,
        "channel": 9,
        "note": 36,
        "velocity": 127
      },
      {
        "type": "midi",
        "subType": "noteOn",
        "typeByte": 153,
        "deltaTime": 0,
        "channel": 9,
        "note": 61,
        "velocity": 127
      },
      {
        "type": "midi",
        "subType": "noteOn",
        "typeByte": 153,
        "deltaTime": 0,
        "channel": 9,
        "note": 51,
        "velocity": 127
      },
      {
        "type": "midi",
        "subType": "noteOn",
        "typeByte": 153,
        "deltaTime": 1,
        "channel": 9,
        "note": 40,
        "velocity": 127
      },
      {
        "type": "midi",
        "subType": "noteOn",
        "typeByte": 153,
        "deltaTime": 0,
        "channel": 9,
        "note": 42,
        "velocity": 127
      },
      {
        "type": "midi",
        "subType": "noteOff",
        "typeByte": 153,
        "deltaTime": 22,
        "channel": 9,
        "note": 61,
        "velocity": 0
      },
      {
        "type": "midi",
        "subType": "noteOff",
        "typeByte": 153,
        "deltaTime": 0,
        "channel": 9,
        "note": 36,
        "velocity": 0
      },
      {
        "type": "midi",
        "subType": "noteOff",
        "typeByte": 153,
        "deltaTime": 2,
        "channel": 9,
        "note": 42,
        "velocity": 0
      },
      {
        "type": "midi",
        "subType": "noteOn",
        "typeByte": 153,
        "deltaTime": 24,
        "channel": 9,
        "note": 36,
        "velocity": 127
      },
      {
        "type": "midi",
        "subType": "noteOn",
        "typeByte": 153,
        "deltaTime": 0,
        "channel": 9,
        "note": 61,
        "velocity": 127
      },
      {
        "type": "midi",
        "subType": "noteOn",
        "typeByte": 153,
        "deltaTime": 0,
        "channel": 9,
        "note": 42,
        "velocity": 127
      },
      {
        "type": "midi",
        "subType": "noteOff",
        "typeByte": 153,
        "deltaTime": 23,
        "channel": 9,
        "note": 42,
        "velocity": 0
      },
      {
        "type": "midi",
        "subType": "noteOff",
        "typeByte": 153,
        "deltaTime": 0,
        "channel": 9,
        "note": 36,
        "velocity": 0
      },
      {
        "type": "midi",
        "subType": "noteOff",
        "typeByte": 153,
        "deltaTime": 0,
        "channel": 9,
        "note": 61,
        "velocity": 0
      },
      {
        "type": "midi",
        "subType": "noteOff",
        "typeByte": 153,
        "deltaTime": 15,
        "channel": 9,
        "note": 51,
        "velocity": 0
      },
      {
        "type": "midi",
        "subType": "noteOff",
        "typeByte": 153,
        "deltaTime": 1,
        "channel": 9,
        "note": 40,
        "velocity": 0
      },
      {
        "type": "midi",
        "subType": "noteOn",
        "typeByte": 153,
        "deltaTime": 8,
        "channel": 9,
        "note": 38,
        "velocity": 127
      },
      {
        "type": "midi",
        "subType": "noteOn",
        "typeByte": 153,
        "deltaTime": 0,
        "channel": 9,
        "note": 61,
        "velocity": 127
      },
      {
        "type": "midi",
        "subType": "noteOn",
        "typeByte": 153,
        "deltaTime": 0,
        "channel": 9,
        "note": 42,
        "velocity": 127
      },
      {
        "type": "midi",
        "subType": "noteOff",
        "typeByte": 153,
        "deltaTime": 23,
        "channel": 9,
        "note": 61,
        "velocity": 0
      },
      {
        "type": "midi",
        "subType": "noteOff",
        "typeByte": 153,
        "deltaTime": 0,
        "channel": 9,
        "note": 38,
        "velocity": 0
      },
      {
        "type": "midi",
        "subType": "noteOff",
        "typeByte": 153,
        "deltaTime": 3,
        "channel": 9,
        "note": 42,
        "velocity": 0
      },
      {
        "type": "midi",
        "subType": "noteOn",
        "typeByte": 153,
        "deltaTime": 23,
        "channel": 9,
        "note": 61,
        "velocity": 127
      },
      {
        "type": "midi",
        "subType": "noteOn",
        "typeByte": 153,
        "deltaTime": 0,
        "channel": 9,
        "note": 42,
        "velocity": 127
      },
      {
        "type": "midi",
        "subType": "noteOff",
        "typeByte": 153,
        "deltaTime": 23,
        "channel": 9,
        "note": 61,
        "velocity": 0
      },
      {
        "type": "midi",
        "subType": "noteOff",
        "typeByte": 153,
        "deltaTime": 1,
        "channel": 9,
        "note": 42,
        "velocity": 0
      },
      {
        "type": "midi",
        "subType": "noteOn",
        "typeByte": 153,
        "deltaTime": 23,
        "channel": 9,
        "note": 36,
        "velocity": 127
      },
      {
        "type": "midi",
        "subType": "noteOn",
        "typeByte": 153,
        "deltaTime": 1,
        "channel": 9,
        "note": 61,
        "velocity": 127
      },
      {
        "type": "midi",
        "subType": "noteOn",
        "typeByte": 153,
        "deltaTime": 0,
        "channel": 9,
        "note": 42,
        "velocity": 127
      },
      {
        "type": "midi",
        "subType": "noteOff",
        "typeByte": 153,
        "deltaTime": 22,
        "channel": 9,
        "note": 61,
        "velocity": 0
      },
      {
        "type": "midi",
        "subType": "noteOff",
        "typeByte": 153,
        "deltaTime": 0,
        "channel": 9,
        "note": 36,
        "velocity": 0
      },
      {
        "type": "midi",
        "subType": "noteOff",
        "typeByte": 153,
        "deltaTime": 3,
        "channel": 9,
        "note": 42,
        "velocity": 0
      },
      {
        "type": "midi",
        "subType": "noteOn",
        "typeByte": 153,
        "deltaTime": 23,
        "channel": 9,
        "note": 61,
        "velocity": 127
      },
      {
        "type": "midi",
        "subType": "noteOn",
        "typeByte": 153,
        "deltaTime": 0,
        "channel": 9,
        "note": 42,
        "velocity": 127
      },
      {
        "type": "midi",
        "subType": "noteOff",
        "typeByte": 153,
        "deltaTime": 23,
        "channel": 9,
        "note": 61,
        "velocity": 0
      },
      {
        "type": "midi",
        "subType": "noteOff",
        "typeByte": 153,
        "deltaTime": 3,
        "channel": 9,
        "note": 42,
        "velocity": 0
      },
      {
        "type": "midi",
        "subType": "noteOn",
        "typeByte": 153,
        "deltaTime": 22,
        "channel": 9,
        "note": 38,
        "velocity": 127
      },
      {
        "type": "midi",
        "subType": "noteOn",
        "typeByte": 153,
        "deltaTime": 0,
        "channel": 9,
        "note": 61,
        "velocity": 127
      },
      {
        "type": "midi",
        "subType": "noteOn",
        "typeByte": 153,
        "deltaTime": 0,
        "channel": 9,
        "note": 42,
        "velocity": 127
      },
      {
        "type": "midi",
        "subType": "noteOff",
        "typeByte": 153,
        "deltaTime": 23,
        "channel": 9,
        "note": 42,
        "velocity": 0
      },
      {
        "type": "midi",
        "subType": "noteOff",
        "typeByte": 153,
        "deltaTime": 0,
        "channel": 9,
        "note": 61,
        "velocity": 0
      },
      {
        "type": "midi",
        "subType": "noteOff",
        "typeByte": 153,
        "deltaTime": 0,
        "channel": 9,
        "note": 38,
        "velocity": 0
      },
      {
        "type": "midi",
        "subType": "noteOn",
        "typeByte": 153,
        "deltaTime": 26,
        "channel": 9,
        "note": 61,
        "velocity": 127
      },
      {
        "type": "midi",
        "subType": "noteOn",
        "typeByte": 153,
        "deltaTime": 0,
        "channel": 9,
        "note": 42,
        "velocity": 127
      },
      {
        "type": "midi",
        "subType": "noteOff",
        "typeByte": 153,
        "deltaTime": 23,
        "channel": 9,
        "note": 42,
        "velocity": 0
      },
      {
        "type": "midi",
        "subType": "noteOff",
        "typeByte": 153,
        "deltaTime": 0,
        "channel": 9,
        "note": 61,
        "velocity": 0
      },
      {
        "type": "midi",
        "subType": "noteOn",
        "typeByte": 153,
        "deltaTime": 24,
        "channel": 9,
        "note": 36,
        "velocity": 127
      },
      {
        "type": "midi",
        "subType": "noteOn",
        "typeByte": 153,
        "deltaTime": 0,
        "channel": 9,
        "note": 61,
        "velocity": 127
      },
      {
        "type": "midi",
        "subType": "noteOn",
        "typeByte": 153,
        "deltaTime": 0,
        "channel": 9,
        "note": 40,
        "velocity": 127
      },
      {
        "type": "midi",
        "subType": "noteOn",
        "typeByte": 153,
        "deltaTime": 1,
        "channel": 9,
        "note": 51,
        "velocity": 127
      },
      {
        "type": "midi",
        "subType": "noteOn",
        "typeByte": 153,
        "deltaTime": 0,
        "channel": 9,
        "note": 42,
        "velocity": 127
      },
      {
        "type": "midi",
        "subType": "noteOff",
        "typeByte": 153,
        "deltaTime": 22,
        "channel": 9,
        "note": 42,
        "velocity": 0
      },
      {
        "type": "midi",
        "subType": "noteOff",
        "typeByte": 153,
        "deltaTime": 0,
        "channel": 9,
        "note": 36,
        "velocity": 0
      },
      {
        "type": "midi",
        "subType": "noteOff",
        "typeByte": 153,
        "deltaTime": 0,
        "channel": 9,
        "note": 61,
        "velocity": 0
      },
      {
        "type": "midi",
        "subType": "noteOn",
        "typeByte": 153,
        "deltaTime": 26,
        "channel": 9,
        "note": 36,
        "velocity": 127
      },
      {
        "type": "midi",
        "subType": "noteOn",
        "typeByte": 153,
        "deltaTime": 0,
        "channel": 9,
        "note": 61,
        "velocity": 127
      },
      {
        "type": "midi",
        "subType": "noteOn",
        "typeByte": 153,
        "deltaTime": 0,
        "channel": 9,
        "note": 42,
        "velocity": 127
      },
      {
        "type": "midi",
        "subType": "noteOff",
        "typeByte": 153,
        "deltaTime": 22,
        "channel": 9,
        "note": 42,
        "velocity": 0
      },
      {
        "type": "midi",
        "subType": "noteOff",
        "typeByte": 153,
        "deltaTime": 1,
        "channel": 9,
        "note": 36,
        "velocity": 0
      },
      {
        "type": "midi",
        "subType": "noteOff",
        "typeByte": 153,
        "deltaTime": 0,
        "channel": 9,
        "note": 61,
        "velocity": 0
      },
      {
        "type": "midi",
        "subType": "noteOff",
        "typeByte": 153,
        "deltaTime": 24,
        "channel": 9,
        "note": 40,
        "velocity": 0
      },
      {
        "type": "midi",
        "subType": "noteOn",
        "typeByte": 153,
        "deltaTime": 1,
        "channel": 9,
        "note": 38,
        "velocity": 127
      },
      {
        "type": "midi",
        "subType": "noteOn",
        "typeByte": 153,
        "deltaTime": 0,
        "channel": 9,
        "note": 61,
        "velocity": 127
      },
      {
        "type": "midi",
        "subType": "noteOn",
        "typeByte": 153,
        "deltaTime": 0,
        "channel": 9,
        "note": 42,
        "velocity": 127
      },
      {
        "type": "midi",
        "subType": "noteOff",
        "typeByte": 153,
        "deltaTime": 5,
        "channel": 9,
        "note": 51,
        "velocity": 0
      },
      {
        "type": "midi",
        "subType": "noteOff",
        "typeByte": 153,
        "deltaTime": 17,
        "channel": 9,
        "note": 38,
        "velocity": 0
      },
      {
        "type": "midi",
        "subType": "noteOff",
        "typeByte": 153,
        "deltaTime": 0,
        "channel": 9,
        "note": 61,
        "velocity": 0
      },
      {
        "type": "midi",
        "subType": "noteOff",
        "typeByte": 153,
        "deltaTime": 2,
        "channel": 9,
        "note": 42,
        "velocity": 0
      },
      {
        "type": "midi",
        "subType": "noteOn",
        "typeByte": 153,
        "deltaTime": 24,
        "channel": 9,
        "note": 61,
        "velocity": 127
      },
      {
        "type": "midi",
        "subType": "noteOn",
        "typeByte": 153,
        "deltaTime": 0,
        "channel": 9,
        "note": 42,
        "velocity": 127
      },
      {
        "type": "midi",
        "subType": "noteOff",
        "typeByte": 153,
        "deltaTime": 22,
        "channel": 9,
        "note": 42,
        "velocity": 0
      },
      {
        "type": "midi",
        "subType": "noteOff",
        "typeByte": 153,
        "deltaTime": 1,
        "channel": 9,
        "note": 61,
        "velocity": 0
      },
      {
        "type": "midi",
        "subType": "noteOn",
        "typeByte": 153,
        "deltaTime": 25,
        "channel": 9,
        "note": 36,
        "velocity": 127
      },
      {
        "type": "midi",
        "subType": "noteOn",
        "typeByte": 153,
        "deltaTime": 0,
        "channel": 9,
        "note": 61,
        "velocity": 127
      },
      {
        "type": "midi",
        "subType": "noteOn",
        "typeByte": 153,
        "deltaTime": 0,
        "channel": 9,
        "note": 42,
        "velocity": 127
      },
      {
        "type": "midi",
        "subType": "noteOff",
        "typeByte": 153,
        "deltaTime": 17,
        "channel": 9,
        "note": 42,
        "velocity": 0
      },
      {
        "type": "midi",
        "subType": "noteOff",
        "typeByte": 153,
        "deltaTime": 6,
        "channel": 9,
        "note": 61,
        "velocity": 0
      },
      {
        "type": "midi",
        "subType": "noteOff",
        "typeByte": 153,
        "deltaTime": 0,
        "channel": 9,
        "note": 36,
        "velocity": 0
      },
      {
        "type": "midi",
        "subType": "noteOn",
        "typeByte": 153,
        "deltaTime": 25,
        "channel": 9,
        "note": 61,
        "velocity": 127
      },
      {
        "type": "midi",
        "subType": "noteOn",
        "typeByte": 153,
        "deltaTime": 1,
        "channel": 9,
        "note": 42,
        "velocity": 127
      },
      {
        "type": "midi",
        "subType": "noteOff",
        "typeByte": 153,
        "deltaTime": 16,
        "channel": 9,
        "note": 42,
        "velocity": 0
      },
      {
        "type": "midi",
        "subType": "noteOff",
        "typeByte": 153,
        "deltaTime": 6,
        "channel": 9,
        "note": 61,
        "velocity": 0
      },
      {
        "type": "midi",
        "subType": "noteOn",
        "typeByte": 153,
        "deltaTime": 25,
        "channel": 9,
        "note": 38,
        "velocity": 127
      },
      {
        "type": "midi",
        "subType": "noteOn",
        "typeByte": 153,
        "deltaTime": 0,
        "channel": 9,
        "note": 61,
        "velocity": 127
      },
      {
        "type": "midi",
        "subType": "noteOn",
        "typeByte": 153,
        "deltaTime": 0,
        "channel": 9,
        "note": 42,
        "velocity": 127
      },
      {
        "type": "midi",
        "subType": "noteOff",
        "typeByte": 153,
        "deltaTime": 20,
        "channel": 9,
        "note": 42,
        "velocity": 0
      },
      {
        "type": "midi",
        "subType": "noteOff",
        "typeByte": 153,
        "deltaTime": 3,
        "channel": 9,
        "note": 61,
        "velocity": 0
      },
      {
        "type": "midi",
        "subType": "noteOff",
        "typeByte": 153,
        "deltaTime": 0,
        "channel": 9,
        "note": 38,
        "velocity": 0
      },
      {
        "type": "midi",
        "subType": "noteOn",
        "typeByte": 153,
        "deltaTime": 26,
        "channel": 9,
        "note": 61,
        "velocity": 127
      },
      {
        "type": "midi",
        "subType": "noteOn",
        "typeByte": 153,
        "deltaTime": 0,
        "channel": 9,
        "note": 42,
        "velocity": 127
      },
      {
        "type": "midi",
        "subType": "noteOff",
        "typeByte": 153,
        "deltaTime": 13,
        "channel": 9,
        "note": 42,
        "velocity": 0
      },
      {
        "type": "midi",
        "subType": "noteOff",
        "typeByte": 153,
        "deltaTime": 10,
        "channel": 9,
        "note": 61,
        "velocity": 0
      },
      {
        "type": "midi",
        "subType": "noteOn",
        "typeByte": 153,
        "deltaTime": 24,
        "channel": 9,
        "note": 36,
        "velocity": 127
      },
      {
        "type": "midi",
        "subType": "noteOn",
        "typeByte": 153,
        "deltaTime": 0,
        "channel": 9,
        "note": 61,
        "velocity": 127
      },
      {
        "type": "midi",
        "subType": "noteOn",
        "typeByte": 153,
        "deltaTime": 1,
        "channel": 9,
        "note": 51,
        "velocity": 127
      },
      {
        "type": "midi",
        "subType": "noteOn",
        "typeByte": 153,
        "deltaTime": 0,
        "channel": 9,
        "note": 40,
        "velocity": 127
      },
      {
        "type": "midi",
        "subType": "noteOn",
        "typeByte": 153,
        "deltaTime": 0,
        "channel": 9,
        "note": 42,
        "velocity": 127
      },
      {
        "type": "midi",
        "subType": "noteOff",
        "typeByte": 153,
        "deltaTime": 21,
        "channel": 9,
        "note": 42,
        "velocity": 0
      },
      {
        "type": "midi",
        "subType": "noteOff",
        "typeByte": 153,
        "deltaTime": 1,
        "channel": 9,
        "note": 36,
        "velocity": 0
      },
      {
        "type": "midi",
        "subType": "noteOff",
        "typeByte": 153,
        "deltaTime": 0,
        "channel": 9,
        "note": 61,
        "velocity": 0
      },
      {
        "type": "midi",
        "subType": "noteOn",
        "typeByte": 153,
        "deltaTime": 26,
        "channel": 9,
        "note": 36,
        "velocity": 127
      },
      {
        "type": "midi",
        "subType": "noteOn",
        "typeByte": 153,
        "deltaTime": 0,
        "channel": 9,
        "note": 61,
        "velocity": 127
      },
      {
        "type": "midi",
        "subType": "noteOn",
        "typeByte": 153,
        "deltaTime": 0,
        "channel": 9,
        "note": 42,
        "velocity": 127
      },
      {
        "type": "midi",
        "subType": "noteOff",
        "typeByte": 153,
        "deltaTime": 23,
        "channel": 9,
        "note": 42,
        "velocity": 0
      },
      {
        "type": "midi",
        "subType": "noteOff",
        "typeByte": 153,
        "deltaTime": 0,
        "channel": 9,
        "note": 36,
        "velocity": 0
      },
      {
        "type": "midi",
        "subType": "noteOff",
        "typeByte": 153,
        "deltaTime": 0,
        "channel": 9,
        "note": 61,
        "velocity": 0
      },
      {
        "type": "midi",
        "subType": "noteOff",
        "typeByte": 153,
        "deltaTime": 15,
        "channel": 9,
        "note": 51,
        "velocity": 0
      },
      {
        "type": "midi",
        "subType": "noteOff",
        "typeByte": 153,
        "deltaTime": 1,
        "channel": 9,
        "note": 40,
        "velocity": 0
      },
      {
        "type": "midi",
        "subType": "noteOn",
        "typeByte": 153,
        "deltaTime": 8,
        "channel": 9,
        "note": 38,
        "velocity": 127
      },
      {
        "type": "midi",
        "subType": "noteOn",
        "typeByte": 153,
        "deltaTime": 0,
        "channel": 9,
        "note": 61,
        "velocity": 127
      },
      {
        "type": "midi",
        "subType": "noteOn",
        "typeByte": 153,
        "deltaTime": 1,
        "channel": 9,
        "note": 42,
        "velocity": 127
      },
      {
        "type": "midi",
        "subType": "noteOff",
        "typeByte": 153,
        "deltaTime": 22,
        "channel": 9,
        "note": 42,
        "velocity": 0
      },
      {
        "type": "midi",
        "subType": "noteOff",
        "typeByte": 153,
        "deltaTime": 0,
        "channel": 9,
        "note": 38,
        "velocity": 0
      },
      {
        "type": "midi",
        "subType": "noteOff",
        "typeByte": 153,
        "deltaTime": 1,
        "channel": 9,
        "note": 61,
        "velocity": 0
      },
      {
        "type": "midi",
        "subType": "noteOn",
        "typeByte": 153,
        "deltaTime": 25,
        "channel": 9,
        "note": 61,
        "velocity": 127
      },
      {
        "type": "midi",
        "subType": "noteOn",
        "typeByte": 153,
        "deltaTime": 1,
        "channel": 9,
        "note": 42,
        "velocity": 127
      },
      {
        "type": "midi",
        "subType": "noteOff",
        "typeByte": 153,
        "deltaTime": 22,
        "channel": 9,
        "note": 61,
        "velocity": 0
      },
      {
        "type": "midi",
        "subType": "noteOff",
        "typeByte": 153,
        "deltaTime": 1,
        "channel": 9,
        "note": 42,
        "velocity": 0
      },
      {
        "type": "midi",
        "subType": "noteOn",
        "typeByte": 153,
        "deltaTime": 24,
        "channel": 9,
        "note": 36,
        "velocity": 127
      },
      {
        "type": "midi",
        "subType": "noteOn",
        "typeByte": 153,
        "deltaTime": 0,
        "channel": 9,
        "note": 61,
        "velocity": 127
      },
      {
        "type": "midi",
        "subType": "noteOn",
        "typeByte": 153,
        "deltaTime": 0,
        "channel": 9,
        "note": 42,
        "velocity": 127
      },
      {
        "type": "midi",
        "subType": "noteOff",
        "typeByte": 153,
        "deltaTime": 23,
        "channel": 9,
        "note": 61,
        "velocity": 0
      },
      {
        "type": "midi",
        "subType": "noteOff",
        "typeByte": 153,
        "deltaTime": 0,
        "channel": 9,
        "note": 36,
        "velocity": 0
      },
      {
        "type": "midi",
        "subType": "noteOff",
        "typeByte": 153,
        "deltaTime": 2,
        "channel": 9,
        "note": 42,
        "velocity": 0
      },
      {
        "type": "midi",
        "subType": "noteOn",
        "typeByte": 153,
        "deltaTime": 24,
        "channel": 9,
        "note": 61,
        "velocity": 127
      },
      {
        "type": "midi",
        "subType": "noteOn",
        "typeByte": 153,
        "deltaTime": 0,
        "channel": 9,
        "note": 42,
        "velocity": 127
      },
      {
        "type": "midi",
        "subType": "noteOff",
        "typeByte": 153,
        "deltaTime": 19,
        "channel": 9,
        "note": 42,
        "velocity": 0
      },
      {
        "type": "midi",
        "subType": "noteOff",
        "typeByte": 153,
        "deltaTime": 3,
        "channel": 9,
        "note": 61,
        "velocity": 0
      },
      {
        "type": "midi",
        "subType": "noteOn",
        "typeByte": 153,
        "deltaTime": 25,
        "channel": 9,
        "note": 38,
        "velocity": 127
      },
      {
        "type": "midi",
        "subType": "noteOn",
        "typeByte": 153,
        "deltaTime": 0,
        "channel": 9,
        "note": 61,
        "velocity": 127
      },
      {
        "type": "midi",
        "subType": "noteOn",
        "typeByte": 153,
        "deltaTime": 0,
        "channel": 9,
        "note": 42,
        "velocity": 127
      },
      {
        "type": "midi",
        "subType": "noteOff",
        "typeByte": 153,
        "deltaTime": 22,
        "channel": 9,
        "note": 42,
        "velocity": 0
      },
      {
        "type": "midi",
        "subType": "noteOff",
        "typeByte": 153,
        "deltaTime": 1,
        "channel": 9,
        "note": 61,
        "velocity": 0
      },
      {
        "type": "midi",
        "subType": "noteOff",
        "typeByte": 153,
        "deltaTime": 0,
        "channel": 9,
        "note": 38,
        "velocity": 0
      },
      {
        "type": "midi",
        "subType": "noteOn",
        "typeByte": 153,
        "deltaTime": 26,
        "channel": 9,
        "note": 61,
        "velocity": 127
      },
      {
        "type": "midi",
        "subType": "noteOn",
        "typeByte": 153,
        "deltaTime": 0,
        "channel": 9,
        "note": 42,
        "velocity": 127
      },
      {
        "type": "midi",
        "subType": "noteOff",
        "typeByte": 153,
        "deltaTime": 23,
        "channel": 9,
        "note": 42,
        "velocity": 0
      },
      {
        "type": "midi",
        "subType": "noteOff",
        "typeByte": 153,
        "deltaTime": 0,
        "channel": 9,
        "note": 61,
        "velocity": 0
      },
      {
        "type": "midi",
        "subType": "noteOn",
        "typeByte": 153,
        "deltaTime": 24,
        "channel": 9,
        "note": 36,
        "velocity": 127
      },
      {
        "type": "midi",
        "subType": "noteOn",
        "typeByte": 153,
        "deltaTime": 1,
        "channel": 9,
        "note": 61,
        "velocity": 127
      },
      {
        "type": "midi",
        "subType": "noteOn",
        "typeByte": 153,
        "deltaTime": 0,
        "channel": 9,
        "note": 40,
        "velocity": 127
      },
      {
        "type": "midi",
        "subType": "noteOn",
        "typeByte": 153,
        "deltaTime": 0,
        "channel": 9,
        "note": 51,
        "velocity": 127
      },
      {
        "type": "midi",
        "subType": "noteOn",
        "typeByte": 153,
        "deltaTime": 0,
        "channel": 9,
        "note": 42,
        "velocity": 127
      },
      {
        "type": "midi",
        "subType": "noteOff",
        "typeByte": 153,
        "deltaTime": 22,
        "channel": 9,
        "note": 42,
        "velocity": 0
      },
      {
        "type": "midi",
        "subType": "noteOff",
        "typeByte": 153,
        "deltaTime": 0,
        "channel": 9,
        "note": 36,
        "velocity": 0
      },
      {
        "type": "midi",
        "subType": "noteOff",
        "typeByte": 153,
        "deltaTime": 1,
        "channel": 9,
        "note": 61,
        "velocity": 0
      },
      {
        "type": "midi",
        "subType": "noteOn",
        "typeByte": 153,
        "deltaTime": 25,
        "channel": 9,
        "note": 36,
        "velocity": 127
      },
      {
        "type": "midi",
        "subType": "noteOn",
        "typeByte": 153,
        "deltaTime": 0,
        "channel": 9,
        "note": 61,
        "velocity": 127
      },
      {
        "type": "midi",
        "subType": "noteOn",
        "typeByte": 153,
        "deltaTime": 1,
        "channel": 9,
        "note": 42,
        "velocity": 127
      },
      {
        "type": "midi",
        "subType": "noteOff",
        "typeByte": 153,
        "deltaTime": 22,
        "channel": 9,
        "note": 61,
        "velocity": 0
      },
      {
        "type": "midi",
        "subType": "noteOff",
        "typeByte": 153,
        "deltaTime": 0,
        "channel": 9,
        "note": 36,
        "velocity": 0
      },
      {
        "type": "midi",
        "subType": "noteOff",
        "typeByte": 153,
        "deltaTime": 2,
        "channel": 9,
        "note": 42,
        "velocity": 0
      },
      {
        "type": "midi",
        "subType": "noteOff",
        "typeByte": 153,
        "deltaTime": 23,
        "channel": 9,
        "note": 40,
        "velocity": 0
      },
      {
        "type": "midi",
        "subType": "noteOn",
        "typeByte": 153,
        "deltaTime": 0,
        "channel": 9,
        "note": 38,
        "velocity": 127
      },
      {
        "type": "midi",
        "subType": "noteOn",
        "typeByte": 153,
        "deltaTime": 0,
        "channel": 9,
        "note": 61,
        "velocity": 127
      },
      {
        "type": "midi",
        "subType": "noteOn",
        "typeByte": 153,
        "deltaTime": 0,
        "channel": 9,
        "note": 42,
        "velocity": 127
      },
      {
        "type": "midi",
        "subType": "noteOff",
        "typeByte": 153,
        "deltaTime": 5,
        "channel": 9,
        "note": 51,
        "velocity": 0
      },
      {
        "type": "midi",
        "subType": "noteOff",
        "typeByte": 153,
        "deltaTime": 18,
        "channel": 9,
        "note": 38,
        "velocity": 0
      },
      {
        "type": "midi",
        "subType": "noteOff",
        "typeByte": 153,
        "deltaTime": 0,
        "channel": 9,
        "note": 61,
        "velocity": 0
      },
      {
        "type": "midi",
        "subType": "noteOff",
        "typeByte": 153,
        "deltaTime": 2,
        "channel": 9,
        "note": 42,
        "velocity": 0
      },
      {
        "type": "midi",
        "subType": "noteOn",
        "typeByte": 153,
        "deltaTime": 23,
        "channel": 9,
        "note": 61,
        "velocity": 127
      },
      {
        "type": "midi",
        "subType": "noteOn",
        "typeByte": 153,
        "deltaTime": 0,
        "channel": 9,
        "note": 42,
        "velocity": 127
      },
      {
        "type": "midi",
        "subType": "noteOff",
        "typeByte": 153,
        "deltaTime": 24,
        "channel": 9,
        "note": 61,
        "velocity": 0
      },
      {
        "type": "midi",
        "subType": "noteOff",
        "typeByte": 153,
        "deltaTime": 1,
        "channel": 9,
        "note": 42,
        "velocity": 0
      },
      {
        "type": "midi",
        "subType": "noteOn",
        "typeByte": 153,
        "deltaTime": 23,
        "channel": 9,
        "note": 36,
        "velocity": 127
      },
      {
        "type": "midi",
        "subType": "noteOn",
        "typeByte": 153,
        "deltaTime": 0,
        "channel": 9,
        "note": 61,
        "velocity": 127
      },
      {
        "type": "midi",
        "subType": "noteOn",
        "typeByte": 153,
        "deltaTime": 0,
        "channel": 9,
        "note": 42,
        "velocity": 127
      },
      {
        "type": "midi",
        "subType": "noteOff",
        "typeByte": 153,
        "deltaTime": 23,
        "channel": 9,
        "note": 61,
        "velocity": 0
      },
      {
        "type": "midi",
        "subType": "noteOff",
        "typeByte": 153,
        "deltaTime": 0,
        "channel": 9,
        "note": 36,
        "velocity": 0
      },
      {
        "type": "midi",
        "subType": "noteOff",
        "typeByte": 153,
        "deltaTime": 5,
        "channel": 9,
        "note": 42,
        "velocity": 0
      },
      {
        "type": "midi",
        "subType": "noteOn",
        "typeByte": 153,
        "deltaTime": 21,
        "channel": 9,
        "note": 61,
        "velocity": 127
      },
      {
        "type": "midi",
        "subType": "noteOn",
        "typeByte": 153,
        "deltaTime": 0,
        "channel": 9,
        "note": 42,
        "velocity": 127
      },
      {
        "type": "midi",
        "subType": "noteOff",
        "typeByte": 153,
        "deltaTime": 21,
        "channel": 9,
        "note": 42,
        "velocity": 0
      },
      {
        "type": "midi",
        "subType": "noteOff",
        "typeByte": 153,
        "deltaTime": 2,
        "channel": 9,
        "note": 61,
        "velocity": 0
      },
      {
        "type": "midi",
        "subType": "noteOn",
        "typeByte": 153,
        "deltaTime": 24,
        "channel": 9,
        "note": 38,
        "velocity": 127
      },
      {
        "type": "midi",
        "subType": "noteOn",
        "typeByte": 153,
        "deltaTime": 0,
        "channel": 9,
        "note": 61,
        "velocity": 127
      },
      {
        "type": "midi",
        "subType": "noteOn",
        "typeByte": 153,
        "deltaTime": 1,
        "channel": 9,
        "note": 42,
        "velocity": 127
      },
      {
        "type": "midi",
        "subType": "noteOff",
        "typeByte": 153,
        "deltaTime": 22,
        "channel": 9,
        "note": 42,
        "velocity": 0
      },
      {
        "type": "midi",
        "subType": "noteOff",
        "typeByte": 153,
        "deltaTime": 0,
        "channel": 9,
        "note": 38,
        "velocity": 0
      },
      {
        "type": "midi",
        "subType": "noteOff",
        "typeByte": 153,
        "deltaTime": 1,
        "channel": 9,
        "note": 61,
        "velocity": 0
      },
      {
        "type": "midi",
        "subType": "noteOn",
        "typeByte": 153,
        "deltaTime": 25,
        "channel": 9,
        "note": 61,
        "velocity": 127
      },
      {
        "type": "midi",
        "subType": "noteOn",
        "typeByte": 153,
        "deltaTime": 0,
        "channel": 9,
        "note": 42,
        "velocity": 127
      },
      {
        "type": "midi",
        "subType": "noteOff",
        "typeByte": 153,
        "deltaTime": 23,
        "channel": 9,
        "note": 42,
        "velocity": 0
      },
      {
        "type": "midi",
        "subType": "noteOff",
        "typeByte": 153,
        "deltaTime": 0,
        "channel": 9,
        "note": 61,
        "velocity": 0
      },
      {
        "type": "midi",
        "subType": "noteOn",
        "typeByte": 153,
        "deltaTime": 25,
        "channel": 9,
        "note": 36,
        "velocity": 127
      },
      {
        "type": "midi",
        "subType": "noteOn",
        "typeByte": 153,
        "deltaTime": 0,
        "channel": 9,
        "note": 61,
        "velocity": 127
      },
      {
        "type": "midi",
        "subType": "noteOn",
        "typeByte": 153,
        "deltaTime": 0,
        "channel": 9,
        "note": 51,
        "velocity": 127
      },
      {
        "type": "midi",
        "subType": "noteOn",
        "typeByte": 153,
        "deltaTime": 0,
        "channel": 9,
        "note": 40,
        "velocity": 127
      },
      {
        "type": "midi",
        "subType": "noteOn",
        "typeByte": 153,
        "deltaTime": 0,
        "channel": 9,
        "note": 42,
        "velocity": 127
      },
      {
        "type": "midi",
        "subType": "noteOff",
        "typeByte": 153,
        "deltaTime": 23,
        "channel": 9,
        "note": 61,
        "velocity": 0
      },
      {
        "type": "midi",
        "subType": "noteOff",
        "typeByte": 153,
        "deltaTime": 0,
        "channel": 9,
        "note": 36,
        "velocity": 0
      },
      {
        "type": "midi",
        "subType": "noteOff",
        "typeByte": 153,
        "deltaTime": 2,
        "channel": 9,
        "note": 42,
        "velocity": 0
      },
      {
        "type": "midi",
        "subType": "noteOn",
        "typeByte": 153,
        "deltaTime": 23,
        "channel": 9,
        "note": 36,
        "velocity": 127
      },
      {
        "type": "midi",
        "subType": "noteOn",
        "typeByte": 153,
        "deltaTime": 1,
        "channel": 9,
        "note": 61,
        "velocity": 127
      },
      {
        "type": "midi",
        "subType": "noteOn",
        "typeByte": 153,
        "deltaTime": 0,
        "channel": 9,
        "note": 42,
        "velocity": 127
      },
      {
        "type": "midi",
        "subType": "noteOff",
        "typeByte": 153,
        "deltaTime": 22,
        "channel": 9,
        "note": 61,
        "velocity": 0
      },
      {
        "type": "midi",
        "subType": "noteOff",
        "typeByte": 153,
        "deltaTime": 0,
        "channel": 9,
        "note": 36,
        "velocity": 0
      },
      {
        "type": "midi",
        "subType": "noteOff",
        "typeByte": 153,
        "deltaTime": 1,
        "channel": 9,
        "note": 42,
        "velocity": 0
      },
      {
        "type": "midi",
        "subType": "noteOff",
        "typeByte": 153,
        "deltaTime": 14,
        "channel": 9,
        "note": 51,
        "velocity": 0
      },
      {
        "type": "midi",
        "subType": "noteOff",
        "typeByte": 153,
        "deltaTime": 2,
        "channel": 9,
        "note": 40,
        "velocity": 0
      },
      {
        "type": "midi",
        "subType": "noteOn",
        "typeByte": 153,
        "deltaTime": 8,
        "channel": 9,
        "note": 38,
        "velocity": 127
      },
      {
        "type": "midi",
        "subType": "noteOn",
        "typeByte": 153,
        "deltaTime": 0,
        "channel": 9,
        "note": 61,
        "velocity": 127
      },
      {
        "type": "midi",
        "subType": "noteOn",
        "typeByte": 153,
        "deltaTime": 0,
        "channel": 9,
        "note": 42,
        "velocity": 127
      },
      {
        "type": "midi",
        "subType": "noteOff",
        "typeByte": 153,
        "deltaTime": 23,
        "channel": 9,
        "note": 61,
        "velocity": 0
      },
      {
        "type": "midi",
        "subType": "noteOff",
        "typeByte": 153,
        "deltaTime": 0,
        "channel": 9,
        "note": 38,
        "velocity": 0
      },
      {
        "type": "midi",
        "subType": "noteOff",
        "typeByte": 153,
        "deltaTime": 3,
        "channel": 9,
        "note": 42,
        "velocity": 0
      },
      {
        "type": "midi",
        "subType": "noteOn",
        "typeByte": 153,
        "deltaTime": 23,
        "channel": 9,
        "note": 61,
        "velocity": 127
      },
      {
        "type": "midi",
        "subType": "noteOn",
        "typeByte": 153,
        "deltaTime": 0,
        "channel": 9,
        "note": 42,
        "velocity": 127
      },
      {
        "type": "midi",
        "subType": "noteOff",
        "typeByte": 153,
        "deltaTime": 23,
        "channel": 9,
        "note": 61,
        "velocity": 0
      },
      {
        "type": "midi",
        "subType": "noteOff",
        "typeByte": 153,
        "deltaTime": 1,
        "channel": 9,
        "note": 42,
        "velocity": 0
      },
      {
        "type": "midi",
        "subType": "noteOn",
        "typeByte": 153,
        "deltaTime": 23,
        "channel": 9,
        "note": 36,
        "velocity": 127
      },
      {
        "type": "midi",
        "subType": "noteOn",
        "typeByte": 153,
        "deltaTime": 0,
        "channel": 9,
        "note": 61,
        "velocity": 127
      },
      {
        "type": "midi",
        "subType": "noteOn",
        "typeByte": 153,
        "deltaTime": 0,
        "channel": 9,
        "note": 42,
        "velocity": 127
      },
      {
        "type": "midi",
        "subType": "noteOff",
        "typeByte": 153,
        "deltaTime": 23,
        "channel": 9,
        "note": 61,
        "velocity": 0
      },
      {
        "type": "midi",
        "subType": "noteOff",
        "typeByte": 153,
        "deltaTime": 0,
        "channel": 9,
        "note": 36,
        "velocity": 0
      },
      {
        "type": "midi",
        "subType": "noteOff",
        "typeByte": 153,
        "deltaTime": 3,
        "channel": 9,
        "note": 42,
        "velocity": 0
      },
      {
        "type": "midi",
        "subType": "noteOn",
        "typeByte": 153,
        "deltaTime": 23,
        "channel": 9,
        "note": 61,
        "velocity": 127
      },
      {
        "type": "midi",
        "subType": "noteOn",
        "typeByte": 153,
        "deltaTime": 0,
        "channel": 9,
        "note": 42,
        "velocity": 127
      },
      {
        "type": "midi",
        "subType": "noteOff",
        "typeByte": 153,
        "deltaTime": 23,
        "channel": 9,
        "note": 61,
        "velocity": 0
      },
      {
        "type": "midi",
        "subType": "noteOff",
        "typeByte": 153,
        "deltaTime": 3,
        "channel": 9,
        "note": 42,
        "velocity": 0
      },
      {
        "type": "midi",
        "subType": "noteOn",
        "typeByte": 153,
        "deltaTime": 21,
        "channel": 9,
        "note": 38,
        "velocity": 127
      },
      {
        "type": "midi",
        "subType": "noteOn",
        "typeByte": 153,
        "deltaTime": 0,
        "channel": 9,
        "note": 61,
        "velocity": 127
      },
      {
        "type": "midi",
        "subType": "noteOn",
        "typeByte": 153,
        "deltaTime": 1,
        "channel": 9,
        "note": 42,
        "velocity": 127
      },
      {
        "type": "midi",
        "subType": "noteOff",
        "typeByte": 153,
        "deltaTime": 22,
        "channel": 9,
        "note": 42,
        "velocity": 0
      },
      {
        "type": "midi",
        "subType": "noteOff",
        "typeByte": 153,
        "deltaTime": 0,
        "channel": 9,
        "note": 38,
        "velocity": 0
      },
      {
        "type": "midi",
        "subType": "noteOff",
        "typeByte": 153,
        "deltaTime": 1,
        "channel": 9,
        "note": 61,
        "velocity": 0
      },
      {
        "type": "midi",
        "subType": "noteOn",
        "typeByte": 153,
        "deltaTime": 25,
        "channel": 9,
        "note": 61,
        "velocity": 127
      },
      {
        "type": "midi",
        "subType": "noteOn",
        "typeByte": 153,
        "deltaTime": 0,
        "channel": 9,
        "note": 42,
        "velocity": 127
      },
      {
        "type": "midi",
        "subType": "noteOff",
        "typeByte": 153,
        "deltaTime": 23,
        "channel": 9,
        "note": 42,
        "velocity": 0
      },
      {
        "type": "midi",
        "subType": "noteOff",
        "typeByte": 153,
        "deltaTime": 0,
        "channel": 9,
        "note": 61,
        "velocity": 0
      },
      {
        "type": "midi",
        "subType": "noteOn",
        "typeByte": 153,
        "deltaTime": 25,
        "channel": 9,
        "note": 36,
        "velocity": 127
      },
      {
        "type": "midi",
        "subType": "noteOn",
        "typeByte": 153,
        "deltaTime": 0,
        "channel": 9,
        "note": 61,
        "velocity": 127
      },
      {
        "type": "midi",
        "subType": "noteOn",
        "typeByte": 153,
        "deltaTime": 0,
        "channel": 9,
        "note": 40,
        "velocity": 127
      },
      {
        "type": "midi",
        "subType": "noteOn",
        "typeByte": 153,
        "deltaTime": 0,
        "channel": 9,
        "note": 51,
        "velocity": 127
      },
      {
        "type": "midi",
        "subType": "noteOn",
        "typeByte": 153,
        "deltaTime": 1,
        "channel": 9,
        "note": 42,
        "velocity": 127
      },
      {
        "type": "midi",
        "subType": "noteOff",
        "typeByte": 153,
        "deltaTime": 22,
        "channel": 9,
        "note": 42,
        "velocity": 0
      },
      {
        "type": "midi",
        "subType": "noteOff",
        "typeByte": 153,
        "deltaTime": 0,
        "channel": 9,
        "note": 36,
        "velocity": 0
      },
      {
        "type": "midi",
        "subType": "noteOff",
        "typeByte": 153,
        "deltaTime": 0,
        "channel": 9,
        "note": 61,
        "velocity": 0
      },
      {
        "type": "midi",
        "subType": "noteOn",
        "typeByte": 153,
        "deltaTime": 26,
        "channel": 9,
        "note": 36,
        "velocity": 127
      },
      {
        "type": "midi",
        "subType": "noteOn",
        "typeByte": 153,
        "deltaTime": 0,
        "channel": 9,
        "note": 61,
        "velocity": 127
      },
      {
        "type": "midi",
        "subType": "noteOn",
        "typeByte": 153,
        "deltaTime": 0,
        "channel": 9,
        "note": 42,
        "velocity": 127
      },
      {
        "type": "midi",
        "subType": "noteOff",
        "typeByte": 153,
        "deltaTime": 21,
        "channel": 9,
        "note": 42,
        "velocity": 0
      },
      {
        "type": "midi",
        "subType": "noteOff",
        "typeByte": 153,
        "deltaTime": 1,
        "channel": 9,
        "note": 36,
        "velocity": 0
      },
      {
        "type": "midi",
        "subType": "noteOff",
        "typeByte": 153,
        "deltaTime": 0,
        "channel": 9,
        "note": 61,
        "velocity": 0
      },
      {
        "type": "midi",
        "subType": "noteOff",
        "typeByte": 153,
        "deltaTime": 25,
        "channel": 9,
        "note": 40,
        "velocity": 0
      },
      {
        "type": "midi",
        "subType": "noteOn",
        "typeByte": 153,
        "deltaTime": 0,
        "channel": 9,
        "note": 38,
        "velocity": 127
      },
      {
        "type": "midi",
        "subType": "noteOn",
        "typeByte": 153,
        "deltaTime": 0,
        "channel": 9,
        "note": 61,
        "velocity": 127
      },
      {
        "type": "midi",
        "subType": "noteOn",
        "typeByte": 153,
        "deltaTime": 1,
        "channel": 9,
        "note": 42,
        "velocity": 127
      },
      {
        "type": "midi",
        "subType": "noteOff",
        "typeByte": 153,
        "deltaTime": 4,
        "channel": 9,
        "note": 51,
        "velocity": 0
      },
      {
        "type": "midi",
        "subType": "noteOff",
        "typeByte": 153,
        "deltaTime": 18,
        "channel": 9,
        "note": 38,
        "velocity": 0
      },
      {
        "type": "midi",
        "subType": "noteOff",
        "typeByte": 153,
        "deltaTime": 0,
        "channel": 9,
        "note": 61,
        "velocity": 0
      },
      {
        "type": "midi",
        "subType": "noteOff",
        "typeByte": 153,
        "deltaTime": 1,
        "channel": 9,
        "note": 42,
        "velocity": 0
      },
      {
        "type": "midi",
        "subType": "noteOn",
        "typeByte": 153,
        "deltaTime": 25,
        "channel": 9,
        "note": 61,
        "velocity": 127
      },
      {
        "type": "midi",
        "subType": "noteOn",
        "typeByte": 153,
        "deltaTime": 0,
        "channel": 9,
        "note": 42,
        "velocity": 127
      },
      {
        "type": "midi",
        "subType": "noteOff",
        "typeByte": 153,
        "deltaTime": 22,
        "channel": 9,
        "note": 42,
        "velocity": 0
      },
      {
        "type": "midi",
        "subType": "noteOff",
        "typeByte": 153,
        "deltaTime": 1,
        "channel": 9,
        "note": 61,
        "velocity": 0
      },
      {
        "type": "midi",
        "subType": "noteOn",
        "typeByte": 153,
        "deltaTime": 24,
        "channel": 9,
        "note": 36,
        "velocity": 127
      },
      {
        "type": "midi",
        "subType": "noteOn",
        "typeByte": 153,
        "deltaTime": 0,
        "channel": 9,
        "note": 61,
        "velocity": 127
      },
      {
        "type": "midi",
        "subType": "noteOn",
        "typeByte": 153,
        "deltaTime": 1,
        "channel": 9,
        "note": 42,
        "velocity": 127
      },
      {
        "type": "midi",
        "subType": "noteOff",
        "typeByte": 153,
        "deltaTime": 17,
        "channel": 9,
        "note": 42,
        "velocity": 0
      },
      {
        "type": "midi",
        "subType": "noteOff",
        "typeByte": 153,
        "deltaTime": 5,
        "channel": 9,
        "note": 61,
        "velocity": 0
      },
      {
        "type": "midi",
        "subType": "noteOff",
        "typeByte": 153,
        "deltaTime": 0,
        "channel": 9,
        "note": 36,
        "velocity": 0
      },
      {
        "type": "midi",
        "subType": "noteOn",
        "typeByte": 153,
        "deltaTime": 26,
        "channel": 9,
        "note": 61,
        "velocity": 127
      },
      {
        "type": "midi",
        "subType": "noteOn",
        "typeByte": 153,
        "deltaTime": 0,
        "channel": 9,
        "note": 42,
        "velocity": 127
      },
      {
        "type": "midi",
        "subType": "noteOff",
        "typeByte": 153,
        "deltaTime": 16,
        "channel": 9,
        "note": 42,
        "velocity": 0
      },
      {
        "type": "midi",
        "subType": "noteOff",
        "typeByte": 153,
        "deltaTime": 7,
        "channel": 9,
        "note": 61,
        "velocity": 0
      },
      {
        "type": "midi",
        "subType": "noteOn",
        "typeByte": 153,
        "deltaTime": 25,
        "channel": 9,
        "note": 38,
        "velocity": 127
      },
      {
        "type": "midi",
        "subType": "noteOn",
        "typeByte": 153,
        "deltaTime": 0,
        "channel": 9,
        "note": 61,
        "velocity": 127
      },
      {
        "type": "midi",
        "subType": "noteOn",
        "typeByte": 153,
        "deltaTime": 0,
        "channel": 9,
        "note": 42,
        "velocity": 127
      },
      {
        "type": "midi",
        "subType": "noteOff",
        "typeByte": 153,
        "deltaTime": 20,
        "channel": 9,
        "note": 42,
        "velocity": 0
      },
      {
        "type": "midi",
        "subType": "noteOff",
        "typeByte": 153,
        "deltaTime": 3,
        "channel": 9,
        "note": 61,
        "velocity": 0
      },
      {
        "type": "midi",
        "subType": "noteOff",
        "typeByte": 153,
        "deltaTime": 0,
        "channel": 9,
        "note": 38,
        "velocity": 0
      },
      {
        "type": "midi",
        "subType": "noteOn",
        "typeByte": 153,
        "deltaTime": 25,
        "channel": 9,
        "note": 61,
        "velocity": 127
      },
      {
        "type": "midi",
        "subType": "noteOn",
        "typeByte": 153,
        "deltaTime": 0,
        "channel": 9,
        "note": 42,
        "velocity": 127
      },
      {
        "type": "midi",
        "subType": "noteOff",
        "typeByte": 153,
        "deltaTime": 14,
        "channel": 9,
        "note": 42,
        "velocity": 0
      },
      {
        "type": "midi",
        "subType": "noteOff",
        "typeByte": 153,
        "deltaTime": 9,
        "channel": 9,
        "note": 61,
        "velocity": 0
      },
      {
        "type": "midi",
        "subType": "noteOn",
        "typeByte": 153,
        "deltaTime": 25,
        "channel": 9,
        "note": 36,
        "velocity": 127
      },
      {
        "type": "midi",
        "subType": "noteOn",
        "typeByte": 153,
        "deltaTime": 0,
        "channel": 9,
        "note": 61,
        "velocity": 127
      },
      {
        "type": "midi",
        "subType": "noteOn",
        "typeByte": 153,
        "deltaTime": 0,
        "channel": 9,
        "note": 51,
        "velocity": 127
      },
      {
        "type": "midi",
        "subType": "noteOn",
        "typeByte": 153,
        "deltaTime": 1,
        "channel": 9,
        "note": 40,
        "velocity": 127
      },
      {
        "type": "midi",
        "subType": "noteOn",
        "typeByte": 153,
        "deltaTime": 0,
        "channel": 9,
        "note": 42,
        "velocity": 127
      },
      {
        "type": "midi",
        "subType": "noteOff",
        "typeByte": 153,
        "deltaTime": 21,
        "channel": 9,
        "note": 42,
        "velocity": 0
      },
      {
        "type": "midi",
        "subType": "noteOff",
        "typeByte": 153,
        "deltaTime": 1,
        "channel": 9,
        "note": 36,
        "velocity": 0
      },
      {
        "type": "midi",
        "subType": "noteOff",
        "typeByte": 153,
        "deltaTime": 0,
        "channel": 9,
        "note": 61,
        "velocity": 0
      },
      {
        "type": "midi",
        "subType": "noteOn",
        "typeByte": 153,
        "deltaTime": 26,
        "channel": 9,
        "note": 36,
        "velocity": 127
      },
      {
        "type": "midi",
        "subType": "noteOn",
        "typeByte": 153,
        "deltaTime": 0,
        "channel": 9,
        "note": 61,
        "velocity": 127
      },
      {
        "type": "midi",
        "subType": "noteOn",
        "typeByte": 153,
        "deltaTime": 0,
        "channel": 9,
        "note": 42,
        "velocity": 127
      },
      {
        "type": "midi",
        "subType": "noteOff",
        "typeByte": 153,
        "deltaTime": 23,
        "channel": 9,
        "note": 42,
        "velocity": 0
      },
      {
        "type": "midi",
        "subType": "noteOff",
        "typeByte": 153,
        "deltaTime": 0,
        "channel": 9,
        "note": 36,
        "velocity": 0
      },
      {
        "type": "midi",
        "subType": "noteOff",
        "typeByte": 153,
        "deltaTime": 0,
        "channel": 9,
        "note": 61,
        "velocity": 0
      },
      {
        "type": "midi",
        "subType": "noteOff",
        "typeByte": 153,
        "deltaTime": 15,
        "channel": 9,
        "note": 51,
        "velocity": 0
      },
      {
        "type": "midi",
        "subType": "noteOff",
        "typeByte": 153,
        "deltaTime": 1,
        "channel": 9,
        "note": 40,
        "velocity": 0
      },
      {
        "type": "midi",
        "subType": "noteOn",
        "typeByte": 153,
        "deltaTime": 8,
        "channel": 9,
        "note": 38,
        "velocity": 127
      },
      {
        "type": "midi",
        "subType": "noteOn",
        "typeByte": 153,
        "deltaTime": 0,
        "channel": 9,
        "note": 61,
        "velocity": 127
      },
      {
        "type": "midi",
        "subType": "noteOn",
        "typeByte": 153,
        "deltaTime": 1,
        "channel": 9,
        "note": 42,
        "velocity": 127
      },
      {
        "type": "midi",
        "subType": "noteOff",
        "typeByte": 153,
        "deltaTime": 22,
        "channel": 9,
        "note": 42,
        "velocity": 0
      },
      {
        "type": "midi",
        "subType": "noteOff",
        "typeByte": 153,
        "deltaTime": 0,
        "channel": 9,
        "note": 38,
        "velocity": 0
      },
      {
        "type": "midi",
        "subType": "noteOff",
        "typeByte": 153,
        "deltaTime": 1,
        "channel": 9,
        "note": 61,
        "velocity": 0
      },
      {
        "type": "midi",
        "subType": "noteOn",
        "typeByte": 153,
        "deltaTime": 25,
        "channel": 9,
        "note": 61,
        "velocity": 127
      },
      {
        "type": "midi",
        "subType": "noteOn",
        "typeByte": 153,
        "deltaTime": 0,
        "channel": 9,
        "note": 42,
        "velocity": 127
      },
      {
        "type": "midi",
        "subType": "noteOff",
        "typeByte": 153,
        "deltaTime": 23,
        "channel": 9,
        "note": 42,
        "velocity": 0
      },
      {
        "type": "midi",
        "subType": "noteOff",
        "typeByte": 153,
        "deltaTime": 0,
        "channel": 9,
        "note": 61,
        "velocity": 0
      },
      {
        "type": "midi",
        "subType": "noteOn",
        "typeByte": 153,
        "deltaTime": 24,
        "channel": 9,
        "note": 36,
        "velocity": 127
      },
      {
        "type": "midi",
        "subType": "noteOn",
        "typeByte": 153,
        "deltaTime": 0,
        "channel": 9,
        "note": 61,
        "velocity": 127
      },
      {
        "type": "midi",
        "subType": "noteOn",
        "typeByte": 153,
        "deltaTime": 1,
        "channel": 9,
        "note": 42,
        "velocity": 127
      },
      {
        "type": "midi",
        "subType": "noteOff",
        "typeByte": 153,
        "deltaTime": 23,
        "channel": 9,
        "note": 61,
        "velocity": 0
      },
      {
        "type": "midi",
        "subType": "noteOff",
        "typeByte": 153,
        "deltaTime": 0,
        "channel": 9,
        "note": 36,
        "velocity": 0
      },
      {
        "type": "midi",
        "subType": "noteOff",
        "typeByte": 153,
        "deltaTime": 4,
        "channel": 9,
        "note": 42,
        "velocity": 0
      },
      {
        "type": "midi",
        "subType": "noteOn",
        "typeByte": 153,
        "deltaTime": 21,
        "channel": 9,
        "note": 61,
        "velocity": 127
      },
      {
        "type": "midi",
        "subType": "noteOn",
        "typeByte": 153,
        "deltaTime": 0,
        "channel": 9,
        "note": 42,
        "velocity": 127
      },
      {
        "type": "midi",
        "subType": "noteOff",
        "typeByte": 153,
        "deltaTime": 23,
        "channel": 9,
        "note": 61,
        "velocity": 0
      },
      {
        "type": "midi",
        "subType": "noteOff",
        "typeByte": 153,
        "deltaTime": 1,
        "channel": 9,
        "note": 42,
        "velocity": 0
      },
      {
        "type": "midi",
        "subType": "noteOn",
        "typeByte": 153,
        "deltaTime": 24,
        "channel": 9,
        "note": 38,
        "velocity": 127
      },
      {
        "type": "midi",
        "subType": "noteOn",
        "typeByte": 153,
        "deltaTime": 0,
        "channel": 9,
        "note": 61,
        "velocity": 127
      },
      {
        "type": "midi",
        "subType": "noteOn",
        "typeByte": 153,
        "deltaTime": 0,
        "channel": 9,
        "note": 42,
        "velocity": 127
      },
      {
        "type": "midi",
        "subType": "noteOff",
        "typeByte": 153,
        "deltaTime": 21,
        "channel": 9,
        "note": 42,
        "velocity": 0
      },
      {
        "type": "midi",
        "subType": "noteOff",
        "typeByte": 153,
        "deltaTime": 2,
        "channel": 9,
        "note": 61,
        "velocity": 0
      },
      {
        "type": "midi",
        "subType": "noteOff",
        "typeByte": 153,
        "deltaTime": 0,
        "channel": 9,
        "note": 38,
        "velocity": 0
      },
      {
        "type": "midi",
        "subType": "noteOn",
        "typeByte": 153,
        "deltaTime": 26,
        "channel": 9,
        "note": 61,
        "velocity": 127
      },
      {
        "type": "midi",
        "subType": "noteOn",
        "typeByte": 153,
        "deltaTime": 0,
        "channel": 9,
        "note": 42,
        "velocity": 127
      },
      {
        "type": "midi",
        "subType": "noteOff",
        "typeByte": 153,
        "deltaTime": 19,
        "channel": 9,
        "note": 42,
        "velocity": 0
      },
      {
        "type": "midi",
        "subType": "noteOff",
        "typeByte": 153,
        "deltaTime": 4,
        "channel": 9,
        "note": 61,
        "velocity": 0
      },
      {
        "type": "midi",
        "subType": "noteOn",
        "typeByte": 153,
        "deltaTime": 24,
        "channel": 9,
        "note": 36,
        "velocity": 127
      },
      {
        "type": "midi",
        "subType": "noteOn",
        "typeByte": 153,
        "deltaTime": 0,
        "channel": 9,
        "note": 61,
        "velocity": 127
      },
      {
        "type": "midi",
        "subType": "noteOn",
        "typeByte": 153,
        "deltaTime": 0,
        "channel": 9,
        "note": 40,
        "velocity": 127
      },
      {
        "type": "midi",
        "subType": "noteOn",
        "typeByte": 153,
        "deltaTime": 1,
        "channel": 9,
        "note": 51,
        "velocity": 127
      },
      {
        "type": "midi",
        "subType": "noteOn",
        "typeByte": 153,
        "deltaTime": 0,
        "channel": 9,
        "note": 42,
        "velocity": 127
      },
      {
        "type": "midi",
        "subType": "noteOff",
        "typeByte": 153,
        "deltaTime": 18,
        "channel": 9,
        "note": 42,
        "velocity": 0
      },
      {
        "type": "midi",
        "subType": "noteOff",
        "typeByte": 153,
        "deltaTime": 4,
        "channel": 9,
        "note": 36,
        "velocity": 0
      },
      {
        "type": "midi",
        "subType": "noteOff",
        "typeByte": 153,
        "deltaTime": 0,
        "channel": 9,
        "note": 61,
        "velocity": 0
      },
      {
        "type": "midi",
        "subType": "noteOn",
        "typeByte": 153,
        "deltaTime": 26,
        "channel": 9,
        "note": 36,
        "velocity": 127
      },
      {
        "type": "midi",
        "subType": "noteOn",
        "typeByte": 153,
        "deltaTime": 0,
        "channel": 9,
        "note": 61,
        "velocity": 127
      },
      {
        "type": "midi",
        "subType": "noteOn",
        "typeByte": 153,
        "deltaTime": 0,
        "channel": 9,
        "note": 42,
        "velocity": 127
      },
      {
        "type": "midi",
        "subType": "noteOff",
        "typeByte": 153,
        "deltaTime": 22,
        "channel": 9,
        "note": 42,
        "velocity": 0
      },
      {
        "type": "midi",
        "subType": "noteOff",
        "typeByte": 153,
        "deltaTime": 1,
        "channel": 9,
        "note": 36,
        "velocity": 0
      },
      {
        "type": "midi",
        "subType": "noteOff",
        "typeByte": 153,
        "deltaTime": 0,
        "channel": 9,
        "note": 61,
        "velocity": 0
      },
      {
        "type": "midi",
        "subType": "noteOff",
        "typeByte": 153,
        "deltaTime": 24,
        "channel": 9,
        "note": 40,
        "velocity": 0
      },
      {
        "type": "midi",
        "subType": "noteOn",
        "typeByte": 153,
        "deltaTime": 1,
        "channel": 9,
        "note": 38,
        "velocity": 127
      },
      {
        "type": "midi",
        "subType": "noteOn",
        "typeByte": 153,
        "deltaTime": 0,
        "channel": 9,
        "note": 61,
        "velocity": 127
      },
      {
        "type": "midi",
        "subType": "noteOn",
        "typeByte": 153,
        "deltaTime": 0,
        "channel": 9,
        "note": 42,
        "velocity": 127
      },
      {
        "type": "midi",
        "subType": "noteOff",
        "typeByte": 153,
        "deltaTime": 5,
        "channel": 9,
        "note": 51,
        "velocity": 0
      },
      {
        "type": "midi",
        "subType": "noteOff",
        "typeByte": 153,
        "deltaTime": 17,
        "channel": 9,
        "note": 38,
        "velocity": 0
      },
      {
        "type": "midi",
        "subType": "noteOff",
        "typeByte": 153,
        "deltaTime": 0,
        "channel": 9,
        "note": 61,
        "velocity": 0
      },
      {
        "type": "midi",
        "subType": "noteOff",
        "typeByte": 153,
        "deltaTime": 3,
        "channel": 9,
        "note": 42,
        "velocity": 0
      },
      {
        "type": "midi",
        "subType": "noteOn",
        "typeByte": 153,
        "deltaTime": 23,
        "channel": 9,
        "note": 61,
        "velocity": 127
      },
      {
        "type": "midi",
        "subType": "noteOn",
        "typeByte": 153,
        "deltaTime": 0,
        "channel": 9,
        "note": 42,
        "velocity": 127
      },
      {
        "type": "midi",
        "subType": "noteOff",
        "typeByte": 153,
        "deltaTime": 23,
        "channel": 9,
        "note": 42,
        "velocity": 0
      },
      {
        "type": "midi",
        "subType": "noteOff",
        "typeByte": 153,
        "deltaTime": 0,
        "channel": 9,
        "note": 61,
        "velocity": 0
      },
      {
        "type": "midi",
        "subType": "noteOn",
        "typeByte": 153,
        "deltaTime": 25,
        "channel": 9,
        "note": 36,
        "velocity": 127
      },
      {
        "type": "midi",
        "subType": "noteOn",
        "typeByte": 153,
        "deltaTime": 0,
        "channel": 9,
        "note": 61,
        "velocity": 127
      },
      {
        "type": "midi",
        "subType": "noteOn",
        "typeByte": 153,
        "deltaTime": 0,
        "channel": 9,
        "note": 42,
        "velocity": 127
      },
      {
        "type": "midi",
        "subType": "noteOff",
        "typeByte": 153,
        "deltaTime": 21,
        "channel": 9,
        "note": 42,
        "velocity": 0
      },
      {
        "type": "midi",
        "subType": "noteOff",
        "typeByte": 153,
        "deltaTime": 2,
        "channel": 9,
        "note": 61,
        "velocity": 0
      },
      {
        "type": "midi",
        "subType": "noteOff",
        "typeByte": 153,
        "deltaTime": 0,
        "channel": 9,
        "note": 36,
        "velocity": 0
      },
      {
        "type": "midi",
        "subType": "noteOn",
        "typeByte": 153,
        "deltaTime": 26,
        "channel": 9,
        "note": 61,
        "velocity": 127
      },
      {
        "type": "midi",
        "subType": "noteOn",
        "typeByte": 153,
        "deltaTime": 0,
        "channel": 9,
        "note": 42,
        "velocity": 127
      },
      {
        "type": "midi",
        "subType": "noteOff",
        "typeByte": 153,
        "deltaTime": 18,
        "channel": 9,
        "note": 42,
        "velocity": 0
      },
      {
        "type": "midi",
        "subType": "noteOff",
        "typeByte": 153,
        "deltaTime": 4,
        "channel": 9,
        "note": 61,
        "velocity": 0
      },
      {
        "type": "midi",
        "subType": "noteOn",
        "typeByte": 153,
        "deltaTime": 25,
        "channel": 9,
        "note": 38,
        "velocity": 127
      },
      {
        "type": "midi",
        "subType": "noteOn",
        "typeByte": 153,
        "deltaTime": 0,
        "channel": 9,
        "note": 61,
        "velocity": 127
      },
      {
        "type": "midi",
        "subType": "noteOn",
        "typeByte": 153,
        "deltaTime": 0,
        "channel": 9,
        "note": 42,
        "velocity": 127
      },
      {
        "type": "midi",
        "subType": "noteOff",
        "typeByte": 153,
        "deltaTime": 19,
        "channel": 9,
        "note": 42,
        "velocity": 0
      },
      {
        "type": "midi",
        "subType": "noteOff",
        "typeByte": 153,
        "deltaTime": 4,
        "channel": 9,
        "note": 61,
        "velocity": 0
      },
      {
        "type": "midi",
        "subType": "noteOff",
        "typeByte": 153,
        "deltaTime": 0,
        "channel": 9,
        "note": 38,
        "velocity": 0
      },
      {
        "type": "midi",
        "subType": "noteOn",
        "typeByte": 153,
        "deltaTime": 26,
        "channel": 9,
        "note": 61,
        "velocity": 127
      },
      {
        "type": "midi",
        "subType": "noteOn",
        "typeByte": 153,
        "deltaTime": 0,
        "channel": 9,
        "note": 42,
        "velocity": 127
      },
      {
        "type": "midi",
        "subType": "noteOff",
        "typeByte": 153,
        "deltaTime": 19,
        "channel": 9,
        "note": 42,
        "velocity": 0
      },
      {
        "type": "midi",
        "subType": "noteOff",
        "typeByte": 153,
        "deltaTime": 4,
        "channel": 9,
        "note": 61,
        "velocity": 0
      },
      {
        "type": "midi",
        "subType": "noteOn",
        "typeByte": 153,
        "deltaTime": 24,
        "channel": 9,
        "note": 36,
        "velocity": 127
      },
      {
        "type": "midi",
        "subType": "noteOn",
        "typeByte": 153,
        "deltaTime": 0,
        "channel": 9,
        "note": 61,
        "velocity": 127
      },
      {
        "type": "midi",
        "subType": "noteOn",
        "typeByte": 153,
        "deltaTime": 1,
        "channel": 9,
        "note": 51,
        "velocity": 127
      },
      {
        "type": "midi",
        "subType": "noteOn",
        "typeByte": 153,
        "deltaTime": 0,
        "channel": 9,
        "note": 40,
        "velocity": 127
      },
      {
        "type": "midi",
        "subType": "noteOn",
        "typeByte": 153,
        "deltaTime": 0,
        "channel": 9,
        "note": 42,
        "velocity": 127
      },
      {
        "type": "midi",
        "subType": "noteOff",
        "typeByte": 153,
        "deltaTime": 18,
        "channel": 9,
        "note": 42,
        "velocity": 0
      },
      {
        "type": "midi",
        "subType": "noteOff",
        "typeByte": 153,
        "deltaTime": 4,
        "channel": 9,
        "note": 36,
        "velocity": 0
      },
      {
        "type": "midi",
        "subType": "noteOff",
        "typeByte": 153,
        "deltaTime": 0,
        "channel": 9,
        "note": 61,
        "velocity": 0
      },
      {
        "type": "midi",
        "subType": "noteOn",
        "typeByte": 153,
        "deltaTime": 26,
        "channel": 9,
        "note": 36,
        "velocity": 127
      },
      {
        "type": "midi",
        "subType": "noteOn",
        "typeByte": 153,
        "deltaTime": 0,
        "channel": 9,
        "note": 61,
        "velocity": 127
      },
      {
        "type": "midi",
        "subType": "noteOn",
        "typeByte": 153,
        "deltaTime": 1,
        "channel": 9,
        "note": 42,
        "velocity": 127
      },
      {
        "type": "midi",
        "subType": "noteOff",
        "typeByte": 153,
        "deltaTime": 19,
        "channel": 9,
        "note": 42,
        "velocity": 0
      },
      {
        "type": "midi",
        "subType": "noteOff",
        "typeByte": 153,
        "deltaTime": 3,
        "channel": 9,
        "note": 36,
        "velocity": 0
      },
      {
        "type": "midi",
        "subType": "noteOff",
        "typeByte": 153,
        "deltaTime": 0,
        "channel": 9,
        "note": 61,
        "velocity": 0
      },
      {
        "type": "midi",
        "subType": "noteOff",
        "typeByte": 153,
        "deltaTime": 15,
        "channel": 9,
        "note": 51,
        "velocity": 0
      },
      {
        "type": "midi",
        "subType": "noteOff",
        "typeByte": 153,
        "deltaTime": 1,
        "channel": 9,
        "note": 40,
        "velocity": 0
      },
      {
        "type": "midi",
        "subType": "noteOn",
        "typeByte": 153,
        "deltaTime": 9,
        "channel": 9,
        "note": 38,
        "velocity": 127
      },
      {
        "type": "midi",
        "subType": "noteOn",
        "typeByte": 153,
        "deltaTime": 0,
        "channel": 9,
        "note": 61,
        "velocity": 127
      },
      {
        "type": "midi",
        "subType": "noteOn",
        "typeByte": 153,
        "deltaTime": 0,
        "channel": 9,
        "note": 42,
        "velocity": 127
      },
      {
        "type": "midi",
        "subType": "noteOff",
        "typeByte": 153,
        "deltaTime": 23,
        "channel": 9,
        "note": 61,
        "velocity": 0
      },
      {
        "type": "midi",
        "subType": "noteOff",
        "typeByte": 153,
        "deltaTime": 0,
        "channel": 9,
        "note": 38,
        "velocity": 0
      },
      {
        "type": "midi",
        "subType": "noteOff",
        "typeByte": 153,
        "deltaTime": 2,
        "channel": 9,
        "note": 42,
        "velocity": 0
      },
      {
        "type": "midi",
        "subType": "noteOn",
        "typeByte": 153,
        "deltaTime": 23,
        "channel": 9,
        "note": 61,
        "velocity": 127
      },
      {
        "type": "midi",
        "subType": "noteOn",
        "typeByte": 153,
        "deltaTime": 1,
        "channel": 9,
        "note": 42,
        "velocity": 127
      },
      {
        "type": "midi",
        "subType": "noteOff",
        "typeByte": 153,
        "deltaTime": 22,
        "channel": 9,
        "note": 61,
        "velocity": 0
      },
      {
        "type": "midi",
        "subType": "noteOff",
        "typeByte": 153,
        "deltaTime": 4,
        "channel": 9,
        "note": 42,
        "velocity": 0
      },
      {
        "type": "midi",
        "subType": "noteOn",
        "typeByte": 153,
        "deltaTime": 21,
        "channel": 9,
        "note": 36,
        "velocity": 127
      },
      {
        "type": "midi",
        "subType": "noteOn",
        "typeByte": 153,
        "deltaTime": 0,
        "channel": 9,
        "note": 61,
        "velocity": 127
      },
      {
        "type": "midi",
        "subType": "noteOn",
        "typeByte": 153,
        "deltaTime": 0,
        "channel": 9,
        "note": 42,
        "velocity": 127
      },
      {
        "type": "midi",
        "subType": "noteOff",
        "typeByte": 153,
        "deltaTime": 23,
        "channel": 9,
        "note": 61,
        "velocity": 0
      },
      {
        "type": "midi",
        "subType": "noteOff",
        "typeByte": 153,
        "deltaTime": 0,
        "channel": 9,
        "note": 36,
        "velocity": 0
      },
      {
        "type": "midi",
        "subType": "noteOff",
        "typeByte": 153,
        "deltaTime": 12,
        "channel": 9,
        "note": 42,
        "velocity": 0
      },
      {
        "type": "midi",
        "subType": "noteOn",
        "typeByte": 153,
        "deltaTime": 14,
        "channel": 9,
        "note": 61,
        "velocity": 127
      },
      {
        "type": "midi",
        "subType": "noteOn",
        "typeByte": 153,
        "deltaTime": 0,
        "channel": 9,
        "note": 42,
        "velocity": 127
      },
      {
        "type": "midi",
        "subType": "noteOff",
        "typeByte": 153,
        "deltaTime": 23,
        "channel": 9,
        "note": 42,
        "velocity": 0
      },
      {
        "type": "midi",
        "subType": "noteOff",
        "typeByte": 153,
        "deltaTime": 0,
        "channel": 9,
        "note": 61,
        "velocity": 0
      },
      {
        "type": "midi",
        "subType": "noteOn",
        "typeByte": 153,
        "deltaTime": 24,
        "channel": 9,
        "note": 38,
        "velocity": 127
      },
      {
        "type": "midi",
        "subType": "noteOn",
        "typeByte": 153,
        "deltaTime": 0,
        "channel": 9,
        "note": 61,
        "velocity": 127
      },
      {
        "type": "midi",
        "subType": "noteOn",
        "typeByte": 153,
        "deltaTime": 1,
        "channel": 9,
        "note": 42,
        "velocity": 127
      },
      {
        "type": "midi",
        "subType": "noteOff",
        "typeByte": 153,
        "deltaTime": 18,
        "channel": 9,
        "note": 42,
        "velocity": 0
      },
      {
        "type": "midi",
        "subType": "noteOff",
        "typeByte": 153,
        "deltaTime": 4,
        "channel": 9,
        "note": 61,
        "velocity": 0
      },
      {
        "type": "midi",
        "subType": "noteOff",
        "typeByte": 153,
        "deltaTime": 0,
        "channel": 9,
        "note": 38,
        "velocity": 0
      },
      {
        "type": "midi",
        "subType": "noteOn",
        "typeByte": 153,
        "deltaTime": 26,
        "channel": 9,
        "note": 61,
        "velocity": 127
      },
      {
        "type": "midi",
        "subType": "noteOn",
        "typeByte": 153,
        "deltaTime": 0,
        "channel": 9,
        "note": 42,
        "velocity": 127
      },
      {
        "type": "midi",
        "subType": "noteOff",
        "typeByte": 153,
        "deltaTime": 19,
        "channel": 9,
        "note": 42,
        "velocity": 0
      },
      {
        "type": "midi",
        "subType": "noteOff",
        "typeByte": 153,
        "deltaTime": 4,
        "channel": 9,
        "note": 61,
        "velocity": 0
      },
      {
        "type": "midi",
        "subType": "noteOn",
        "typeByte": 153,
        "deltaTime": 24,
        "channel": 9,
        "note": 36,
        "velocity": 127
      },
      {
        "type": "midi",
        "subType": "noteOn",
        "typeByte": 153,
        "deltaTime": 1,
        "channel": 9,
        "note": 61,
        "velocity": 127
      },
      {
        "type": "midi",
        "subType": "noteOn",
        "typeByte": 153,
        "deltaTime": 0,
        "channel": 9,
        "note": 40,
        "velocity": 127
      },
      {
        "type": "midi",
        "subType": "noteOn",
        "typeByte": 153,
        "deltaTime": 0,
        "channel": 9,
        "note": 51,
        "velocity": 127
      },
      {
        "type": "midi",
        "subType": "noteOn",
        "typeByte": 153,
        "deltaTime": 0,
        "channel": 9,
        "note": 42,
        "velocity": 127
      },
      {
        "type": "midi",
        "subType": "noteOff",
        "typeByte": 153,
        "deltaTime": 21,
        "channel": 9,
        "note": 42,
        "velocity": 0
      },
      {
        "type": "midi",
        "subType": "noteOff",
        "typeByte": 153,
        "deltaTime": 1,
        "channel": 9,
        "note": 36,
        "velocity": 0
      },
      {
        "type": "midi",
        "subType": "noteOff",
        "typeByte": 153,
        "deltaTime": 0,
        "channel": 9,
        "note": 61,
        "velocity": 0
      },
      {
        "type": "midi",
        "subType": "noteOn",
        "typeByte": 153,
        "deltaTime": 26,
        "channel": 9,
        "note": 36,
        "velocity": 127
      },
      {
        "type": "midi",
        "subType": "noteOn",
        "typeByte": 153,
        "deltaTime": 0,
        "channel": 9,
        "note": 61,
        "velocity": 127
      },
      {
        "type": "midi",
        "subType": "noteOn",
        "typeByte": 153,
        "deltaTime": 1,
        "channel": 9,
        "note": 42,
        "velocity": 127
      },
      {
        "type": "midi",
        "subType": "noteOff",
        "typeByte": 153,
        "deltaTime": 18,
        "channel": 9,
        "note": 42,
        "velocity": 0
      },
      {
        "type": "midi",
        "subType": "noteOff",
        "typeByte": 153,
        "deltaTime": 4,
        "channel": 9,
        "note": 36,
        "velocity": 0
      },
      {
        "type": "midi",
        "subType": "noteOff",
        "typeByte": 153,
        "deltaTime": 0,
        "channel": 9,
        "note": 61,
        "velocity": 0
      },
      {
        "type": "midi",
        "subType": "noteOff",
        "typeByte": 153,
        "deltaTime": 25,
        "channel": 9,
        "note": 40,
        "velocity": 0
      },
      {
        "type": "midi",
        "subType": "noteOn",
        "typeByte": 153,
        "deltaTime": 0,
        "channel": 9,
        "note": 38,
        "velocity": 127
      },
      {
        "type": "midi",
        "subType": "noteOn",
        "typeByte": 153,
        "deltaTime": 0,
        "channel": 9,
        "note": 61,
        "velocity": 127
      },
      {
        "type": "midi",
        "subType": "noteOn",
        "typeByte": 153,
        "deltaTime": 0,
        "channel": 9,
        "note": 42,
        "velocity": 127
      },
      {
        "type": "midi",
        "subType": "noteOff",
        "typeByte": 153,
        "deltaTime": 5,
        "channel": 9,
        "note": 51,
        "velocity": 0
      },
      {
        "type": "midi",
        "subType": "noteOff",
        "typeByte": 153,
        "deltaTime": 18,
        "channel": 9,
        "note": 38,
        "velocity": 0
      },
      {
        "type": "midi",
        "subType": "noteOff",
        "typeByte": 153,
        "deltaTime": 0,
        "channel": 9,
        "note": 61,
        "velocity": 0
      },
      {
        "type": "midi",
        "subType": "noteOff",
        "typeByte": 153,
        "deltaTime": 0,
        "channel": 9,
        "note": 42,
        "velocity": 0
      },
      {
        "type": "midi",
        "subType": "noteOn",
        "typeByte": 153,
        "deltaTime": 26,
        "channel": 9,
        "note": 61,
        "velocity": 127
      },
      {
        "type": "midi",
        "subType": "noteOn",
        "typeByte": 153,
        "deltaTime": 0,
        "channel": 9,
        "note": 42,
        "velocity": 127
      },
      {
        "type": "midi",
        "subType": "noteOff",
        "typeByte": 153,
        "deltaTime": 23,
        "channel": 9,
        "note": 42,
        "velocity": 0
      },
      {
        "type": "midi",
        "subType": "noteOff",
        "typeByte": 153,
        "deltaTime": 0,
        "channel": 9,
        "note": 61,
        "velocity": 0
      },
      {
        "type": "midi",
        "subType": "noteOn",
        "typeByte": 153,
        "deltaTime": 24,
        "channel": 9,
        "note": 36,
        "velocity": 127
      },
      {
        "type": "midi",
        "subType": "noteOn",
        "typeByte": 153,
        "deltaTime": 0,
        "channel": 9,
        "note": 61,
        "velocity": 127
      },
      {
        "type": "midi",
        "subType": "noteOn",
        "typeByte": 153,
        "deltaTime": 0,
        "channel": 9,
        "note": 42,
        "velocity": 127
      },
      {
        "type": "midi",
        "subType": "noteOff",
        "typeByte": 153,
        "deltaTime": 23,
        "channel": 9,
        "note": 61,
        "velocity": 0
      },
      {
        "type": "midi",
        "subType": "noteOff",
        "typeByte": 153,
        "deltaTime": 0,
        "channel": 9,
        "note": 36,
        "velocity": 0
      },
      {
        "type": "midi",
        "subType": "noteOff",
        "typeByte": 153,
        "deltaTime": 7,
        "channel": 9,
        "note": 42,
        "velocity": 0
      },
      {
        "type": "midi",
        "subType": "noteOn",
        "typeByte": 153,
        "deltaTime": 19,
        "channel": 9,
        "note": 61,
        "velocity": 127
      },
      {
        "type": "midi",
        "subType": "noteOn",
        "typeByte": 153,
        "deltaTime": 0,
        "channel": 9,
        "note": 42,
        "velocity": 127
      },
      {
        "type": "midi",
        "subType": "noteOff",
        "typeByte": 153,
        "deltaTime": 23,
        "channel": 9,
        "note": 42,
        "velocity": 0
      },
      {
        "type": "midi",
        "subType": "noteOff",
        "typeByte": 153,
        "deltaTime": 0,
        "channel": 9,
        "note": 61,
        "velocity": 0
      },
      {
        "type": "midi",
        "subType": "noteOn",
        "typeByte": 153,
        "deltaTime": 24,
        "channel": 9,
        "note": 38,
        "velocity": 127
      },
      {
        "type": "midi",
        "subType": "noteOn",
        "typeByte": 153,
        "deltaTime": 0,
        "channel": 9,
        "note": 61,
        "velocity": 127
      },
      {
        "type": "midi",
        "subType": "noteOn",
        "typeByte": 153,
        "deltaTime": 1,
        "channel": 9,
        "note": 42,
        "velocity": 127
      },
      {
        "type": "midi",
        "subType": "noteOff",
        "typeByte": 153,
        "deltaTime": 21,
        "channel": 9,
        "note": 42,
        "velocity": 0
      },
      {
        "type": "midi",
        "subType": "noteOff",
        "typeByte": 153,
        "deltaTime": 1,
        "channel": 9,
        "note": 61,
        "velocity": 0
      },
      {
        "type": "midi",
        "subType": "noteOff",
        "typeByte": 153,
        "deltaTime": 0,
        "channel": 9,
        "note": 38,
        "velocity": 0
      },
      {
        "type": "midi",
        "subType": "noteOn",
        "typeByte": 153,
        "deltaTime": 26,
        "channel": 9,
        "note": 61,
        "velocity": 127
      },
      {
        "type": "midi",
        "subType": "noteOn",
        "typeByte": 153,
        "deltaTime": 0,
        "channel": 9,
        "note": 42,
        "velocity": 127
      },
      {
        "type": "midi",
        "subType": "noteOff",
        "typeByte": 153,
        "deltaTime": 23,
        "channel": 9,
        "note": 42,
        "velocity": 0
      },
      {
        "type": "midi",
        "subType": "noteOff",
        "typeByte": 153,
        "deltaTime": 0,
        "channel": 9,
        "note": 61,
        "velocity": 0
      },
      {
        "type": "midi",
        "subType": "noteOn",
        "typeByte": 153,
        "deltaTime": 25,
        "channel": 9,
        "note": 36,
        "velocity": 127
      },
      {
        "type": "midi",
        "subType": "noteOn",
        "typeByte": 153,
        "deltaTime": 0,
        "channel": 9,
        "note": 61,
        "velocity": 127
      },
      {
        "type": "midi",
        "subType": "noteOn",
        "typeByte": 153,
        "deltaTime": 0,
        "channel": 9,
        "note": 51,
        "velocity": 127
      },
      {
        "type": "midi",
        "subType": "noteOn",
        "typeByte": 153,
        "deltaTime": 0,
        "channel": 9,
        "note": 40,
        "velocity": 127
      },
      {
        "type": "midi",
        "subType": "noteOn",
        "typeByte": 153,
        "deltaTime": 0,
        "channel": 9,
        "note": 42,
        "velocity": 127
      },
      {
        "type": "midi",
        "subType": "noteOff",
        "typeByte": 153,
        "deltaTime": 23,
        "channel": 9,
        "note": 42,
        "velocity": 0
      },
      {
        "type": "midi",
        "subType": "noteOff",
        "typeByte": 153,
        "deltaTime": 0,
        "channel": 9,
        "note": 36,
        "velocity": 0
      },
      {
        "type": "midi",
        "subType": "noteOff",
        "typeByte": 153,
        "deltaTime": 0,
        "channel": 9,
        "note": 61,
        "velocity": 0
      },
      {
        "type": "midi",
        "subType": "noteOn",
        "typeByte": 153,
        "deltaTime": 25,
        "channel": 9,
        "note": 36,
        "velocity": 127
      },
      {
        "type": "midi",
        "subType": "noteOn",
        "typeByte": 153,
        "deltaTime": 1,
        "channel": 9,
        "note": 61,
        "velocity": 127
      },
      {
        "type": "midi",
        "subType": "noteOn",
        "typeByte": 153,
        "deltaTime": 0,
        "channel": 9,
        "note": 42,
        "velocity": 127
      },
      {
        "type": "midi",
        "subType": "noteOff",
        "typeByte": 153,
        "deltaTime": 22,
        "channel": 9,
        "note": 61,
        "velocity": 0
      },
      {
        "type": "midi",
        "subType": "noteOff",
        "typeByte": 153,
        "deltaTime": 0,
        "channel": 9,
        "note": 36,
        "velocity": 0
      },
      {
        "type": "midi",
        "subType": "noteOff",
        "typeByte": 153,
        "deltaTime": 1,
        "channel": 9,
        "note": 42,
        "velocity": 0
      },
      {
        "type": "midi",
        "subType": "noteOff",
        "typeByte": 153,
        "deltaTime": 14,
        "channel": 9,
        "note": 51,
        "velocity": 0
      },
      {
        "type": "midi",
        "subType": "noteOff",
        "typeByte": 153,
        "deltaTime": 2,
        "channel": 9,
        "note": 40,
        "velocity": 0
      },
      {
        "type": "midi",
        "subType": "noteOn",
        "typeByte": 153,
        "deltaTime": 8,
        "channel": 9,
        "note": 38,
        "velocity": 127
      },
      {
        "type": "midi",
        "subType": "noteOn",
        "typeByte": 153,
        "deltaTime": 0,
        "channel": 9,
        "note": 61,
        "velocity": 127
      },
      {
        "type": "midi",
        "subType": "noteOn",
        "typeByte": 153,
        "deltaTime": 0,
        "channel": 9,
        "note": 42,
        "velocity": 127
      },
      {
        "type": "midi",
        "subType": "noteOff",
        "typeByte": 153,
        "deltaTime": 22,
        "channel": 9,
        "note": 42,
        "velocity": 0
      },
      {
        "type": "midi",
        "subType": "noteOff",
        "typeByte": 153,
        "deltaTime": 1,
        "channel": 9,
        "note": 61,
        "velocity": 0
      },
      {
        "type": "midi",
        "subType": "noteOff",
        "typeByte": 153,
        "deltaTime": 0,
        "channel": 9,
        "note": 38,
        "velocity": 0
      },
      {
        "type": "midi",
        "subType": "noteOn",
        "typeByte": 153,
        "deltaTime": 26,
        "channel": 9,
        "note": 61,
        "velocity": 127
      },
      {
        "type": "midi",
        "subType": "noteOn",
        "typeByte": 153,
        "deltaTime": 0,
        "channel": 9,
        "note": 42,
        "velocity": 127
      },
      {
        "type": "midi",
        "subType": "noteOff",
        "typeByte": 153,
        "deltaTime": 21,
        "channel": 9,
        "note": 42,
        "velocity": 0
      },
      {
        "type": "midi",
        "subType": "noteOff",
        "typeByte": 153,
        "deltaTime": 2,
        "channel": 9,
        "note": 61,
        "velocity": 0
      },
      {
        "type": "midi",
        "subType": "noteOn",
        "typeByte": 153,
        "deltaTime": 24,
        "channel": 9,
        "note": 36,
        "velocity": 127
      },
      {
        "type": "midi",
        "subType": "noteOn",
        "typeByte": 153,
        "deltaTime": 0,
        "channel": 9,
        "note": 61,
        "velocity": 127
      },
      {
        "type": "midi",
        "subType": "noteOn",
        "typeByte": 153,
        "deltaTime": 1,
        "channel": 9,
        "note": 42,
        "velocity": 127
      },
      {
        "type": "midi",
        "subType": "noteOn",
        "typeByte": 153,
        "deltaTime": 0,
        "channel": 9,
        "note": 49,
        "velocity": 127
      },
      {
        "type": "midi",
        "subType": "controller",
        "typeByte": 185,
        "deltaTime": 7,
        "channel": 9,
        "controllerType": 66,
        "value": 0
      },
      {
        "type": "midi",
        "subType": "controller",
        "typeByte": 185,
        "deltaTime": 4,
        "channel": 9,
        "controllerType": 66,
        "value": 0
      },
      {
        "type": "midi",
        "subType": "controller",
        "typeByte": 185,
        "deltaTime": 4,
        "channel": 9,
        "controllerType": 66,
        "value": 0
      },
      {
        "type": "midi",
        "subType": "noteOff",
        "typeByte": 153,
        "deltaTime": 7,
        "channel": 9,
        "note": 61,
        "velocity": 0
      },
      {
        "type": "midi",
        "subType": "noteOff",
        "typeByte": 153,
        "deltaTime": 0,
        "channel": 9,
        "note": 36,
        "velocity": 0
      },
      {
        "type": "midi",
        "subType": "noteOff",
        "typeByte": 153,
        "deltaTime": 3,
        "channel": 9,
        "note": 42,
        "velocity": 0
      },
      {
        "type": "midi",
        "subType": "noteOn",
        "typeByte": 153,
        "deltaTime": 23,
        "channel": 9,
        "note": 61,
        "velocity": 127
      },
      {
        "type": "midi",
        "subType": "noteOn",
        "typeByte": 153,
        "deltaTime": 0,
        "channel": 9,
        "note": 42,
        "velocity": 127
      },
      {
        "type": "midi",
        "subType": "noteOff",
        "typeByte": 153,
        "deltaTime": 19,
        "channel": 9,
        "note": 42,
        "velocity": 0
      },
      {
        "type": "midi",
        "subType": "noteOff",
        "typeByte": 153,
        "deltaTime": 4,
        "channel": 9,
        "note": 61,
        "velocity": 0
      },
      {
        "type": "midi",
        "subType": "noteOn",
        "typeByte": 153,
        "deltaTime": 24,
        "channel": 9,
        "note": 38,
        "velocity": 127
      },
      {
        "type": "midi",
        "subType": "noteOn",
        "typeByte": 153,
        "deltaTime": 1,
        "channel": 9,
        "note": 61,
        "velocity": 127
      },
      {
        "type": "midi",
        "subType": "noteOn",
        "typeByte": 153,
        "deltaTime": 0,
        "channel": 9,
        "note": 42,
        "velocity": 127
      },
      {
        "type": "midi",
        "subType": "noteOff",
        "typeByte": 153,
        "deltaTime": 21,
        "channel": 9,
        "note": 42,
        "velocity": 0
      },
      {
        "type": "midi",
        "subType": "noteOff",
        "typeByte": 153,
        "deltaTime": 1,
        "channel": 9,
        "note": 38,
        "velocity": 0
      },
      {
        "type": "midi",
        "subType": "noteOff",
        "typeByte": 153,
        "deltaTime": 1,
        "channel": 9,
        "note": 61,
        "velocity": 0
      },
      {
        "type": "midi",
        "subType": "noteOn",
        "typeByte": 153,
        "deltaTime": 25,
        "channel": 9,
        "note": 61,
        "velocity": 127
      },
      {
        "type": "midi",
        "subType": "noteOn",
        "typeByte": 153,
        "deltaTime": 1,
        "channel": 9,
        "note": 42,
        "velocity": 127
      },
      {
        "type": "midi",
        "subType": "noteOff",
        "typeByte": 153,
        "deltaTime": 22,
        "channel": 9,
        "note": 42,
        "velocity": 0
      },
      {
        "type": "midi",
        "subType": "noteOff",
        "typeByte": 153,
        "deltaTime": 0,
        "channel": 9,
        "note": 61,
        "velocity": 0
      },
      {
        "type": "midi",
        "subType": "noteOn",
        "typeByte": 153,
        "deltaTime": 25,
        "channel": 9,
        "note": 36,
        "velocity": 127
      },
      {
        "type": "midi",
        "subType": "noteOn",
        "typeByte": 153,
        "deltaTime": 0,
        "channel": 9,
        "note": 61,
        "velocity": 127
      },
      {
        "type": "midi",
        "subType": "noteOn",
        "typeByte": 153,
        "deltaTime": 0,
        "channel": 9,
        "note": 40,
        "velocity": 127
      },
      {
        "type": "midi",
        "subType": "noteOn",
        "typeByte": 153,
        "deltaTime": 0,
        "channel": 9,
        "note": 51,
        "velocity": 127
      },
      {
        "type": "midi",
        "subType": "noteOn",
        "typeByte": 153,
        "deltaTime": 1,
        "channel": 9,
        "note": 42,
        "velocity": 127
      },
      {
        "type": "midi",
        "subType": "noteOff",
        "typeByte": 153,
        "deltaTime": 22,
        "channel": 9,
        "note": 42,
        "velocity": 0
      },
      {
        "type": "midi",
        "subType": "noteOff",
        "typeByte": 153,
        "deltaTime": 0,
        "channel": 9,
        "note": 36,
        "velocity": 0
      },
      {
        "type": "midi",
        "subType": "noteOff",
        "typeByte": 153,
        "deltaTime": 0,
        "channel": 9,
        "note": 61,
        "velocity": 0
      },
      {
        "type": "midi",
        "subType": "noteOn",
        "typeByte": 153,
        "deltaTime": 26,
        "channel": 9,
        "note": 36,
        "velocity": 127
      },
      {
        "type": "midi",
        "subType": "noteOn",
        "typeByte": 153,
        "deltaTime": 0,
        "channel": 9,
        "note": 61,
        "velocity": 127
      },
      {
        "type": "midi",
        "subType": "noteOn",
        "typeByte": 153,
        "deltaTime": 0,
        "channel": 9,
        "note": 42,
        "velocity": 127
      },
      {
        "type": "midi",
        "subType": "noteOff",
        "typeByte": 153,
        "deltaTime": 23,
        "channel": 9,
        "note": 61,
        "velocity": 0
      },
      {
        "type": "midi",
        "subType": "noteOff",
        "typeByte": 153,
        "deltaTime": 0,
        "channel": 9,
        "note": 36,
        "velocity": 0
      },
      {
        "type": "midi",
        "subType": "noteOff",
        "typeByte": 153,
        "deltaTime": 1,
        "channel": 9,
        "note": 42,
        "velocity": 0
      },
      {
        "type": "midi",
        "subType": "noteOff",
        "typeByte": 153,
        "deltaTime": 23,
        "channel": 9,
        "note": 40,
        "velocity": 0
      },
      {
        "type": "midi",
        "subType": "noteOn",
        "typeByte": 153,
        "deltaTime": 0,
        "channel": 9,
        "note": 38,
        "velocity": 127
      },
      {
        "type": "midi",
        "subType": "noteOn",
        "typeByte": 153,
        "deltaTime": 1,
        "channel": 9,
        "note": 61,
        "velocity": 127
      },
      {
        "type": "midi",
        "subType": "noteOn",
        "typeByte": 153,
        "deltaTime": 0,
        "channel": 9,
        "note": 42,
        "velocity": 127
      },
      {
        "type": "midi",
        "subType": "noteOff",
        "typeByte": 153,
        "deltaTime": 5,
        "channel": 9,
        "note": 51,
        "velocity": 0
      },
      {
        "type": "midi",
        "subType": "noteOff",
        "typeByte": 153,
        "deltaTime": 17,
        "channel": 9,
        "note": 61,
        "velocity": 0
      },
      {
        "type": "midi",
        "subType": "noteOff",
        "typeByte": 153,
        "deltaTime": 0,
        "channel": 9,
        "note": 38,
        "velocity": 0
      },
      {
        "type": "midi",
        "subType": "noteOff",
        "typeByte": 153,
        "deltaTime": 3,
        "channel": 9,
        "note": 42,
        "velocity": 0
      },
      {
        "type": "midi",
        "subType": "noteOn",
        "typeByte": 153,
        "deltaTime": 23,
        "channel": 9,
        "note": 61,
        "velocity": 127
      },
      {
        "type": "midi",
        "subType": "noteOn",
        "typeByte": 153,
        "deltaTime": 0,
        "channel": 9,
        "note": 42,
        "velocity": 127
      },
      {
        "type": "midi",
        "subType": "noteOff",
        "typeByte": 153,
        "deltaTime": 1,
        "channel": 9,
        "note": 49,
        "velocity": 0
      },
      {
        "type": "midi",
        "subType": "noteOff",
        "typeByte": 153,
        "deltaTime": 22,
        "channel": 9,
        "note": 61,
        "velocity": 0
      },
      {
        "type": "midi",
        "subType": "noteOff",
        "typeByte": 153,
        "deltaTime": 1,
        "channel": 9,
        "note": 42,
        "velocity": 0
      },
      {
        "type": "midi",
        "subType": "noteOn",
        "typeByte": 153,
        "deltaTime": 23,
        "channel": 9,
        "note": 36,
        "velocity": 127
      },
      {
        "type": "midi",
        "subType": "noteOn",
        "typeByte": 153,
        "deltaTime": 1,
        "channel": 9,
        "note": 61,
        "velocity": 127
      },
      {
        "type": "midi",
        "subType": "noteOn",
        "typeByte": 153,
        "deltaTime": 0,
        "channel": 9,
        "note": 42,
        "velocity": 127
      },
      {
        "type": "midi",
        "subType": "noteOff",
        "typeByte": 153,
        "deltaTime": 22,
        "channel": 9,
        "note": 61,
        "velocity": 0
      },
      {
        "type": "midi",
        "subType": "noteOff",
        "typeByte": 153,
        "deltaTime": 0,
        "channel": 9,
        "note": 36,
        "velocity": 0
      },
      {
        "type": "midi",
        "subType": "noteOff",
        "typeByte": 153,
        "deltaTime": 6,
        "channel": 9,
        "note": 42,
        "velocity": 0
      },
      {
        "type": "midi",
        "subType": "noteOn",
        "typeByte": 153,
        "deltaTime": 20,
        "channel": 9,
        "note": 61,
        "velocity": 127
      },
      {
        "type": "midi",
        "subType": "noteOn",
        "typeByte": 153,
        "deltaTime": 0,
        "channel": 9,
        "note": 42,
        "velocity": 127
      },
      {
        "type": "midi",
        "subType": "noteOff",
        "typeByte": 153,
        "deltaTime": 22,
        "channel": 9,
        "note": 42,
        "velocity": 0
      },
      {
        "type": "midi",
        "subType": "noteOff",
        "typeByte": 153,
        "deltaTime": 1,
        "channel": 9,
        "note": 61,
        "velocity": 0
      },
      {
        "type": "midi",
        "subType": "noteOn",
        "typeByte": 153,
        "deltaTime": 25,
        "channel": 9,
        "note": 38,
        "velocity": 127
      },
      {
        "type": "midi",
        "subType": "noteOn",
        "typeByte": 153,
        "deltaTime": 0,
        "channel": 9,
        "note": 61,
        "velocity": 127
      },
      {
        "type": "midi",
        "subType": "noteOn",
        "typeByte": 153,
        "deltaTime": 0,
        "channel": 9,
        "note": 42,
        "velocity": 127
      },
      {
        "type": "midi",
        "subType": "noteOff",
        "typeByte": 153,
        "deltaTime": 23,
        "channel": 9,
        "note": 42,
        "velocity": 0
      },
      {
        "type": "midi",
        "subType": "noteOff",
        "typeByte": 153,
        "deltaTime": 0,
        "channel": 9,
        "note": 61,
        "velocity": 0
      },
      {
        "type": "midi",
        "subType": "noteOff",
        "typeByte": 153,
        "deltaTime": 0,
        "channel": 9,
        "note": 38,
        "velocity": 0
      },
      {
        "type": "midi",
        "subType": "noteOn",
        "typeByte": 153,
        "deltaTime": 26,
        "channel": 9,
        "note": 61,
        "velocity": 127
      },
      {
        "type": "midi",
        "subType": "noteOn",
        "typeByte": 153,
        "deltaTime": 0,
        "channel": 9,
        "note": 42,
        "velocity": 127
      },
      {
        "type": "midi",
        "subType": "noteOff",
        "typeByte": 153,
        "deltaTime": 22,
        "channel": 9,
        "note": 42,
        "velocity": 0
      },
      {
        "type": "midi",
        "subType": "noteOff",
        "typeByte": 153,
        "deltaTime": 0,
        "channel": 9,
        "note": 61,
        "velocity": 0
      },
      {
        "type": "midi",
        "subType": "noteOn",
        "typeByte": 153,
        "deltaTime": 25,
        "channel": 9,
        "note": 36,
        "velocity": 127
      },
      {
        "type": "midi",
        "subType": "noteOn",
        "typeByte": 153,
        "deltaTime": 0,
        "channel": 9,
        "note": 61,
        "velocity": 127
      },
      {
        "type": "midi",
        "subType": "noteOn",
        "typeByte": 153,
        "deltaTime": 0,
        "channel": 9,
        "note": 51,
        "velocity": 127
      },
      {
        "type": "midi",
        "subType": "noteOn",
        "typeByte": 153,
        "deltaTime": 1,
        "channel": 9,
        "note": 40,
        "velocity": 127
      },
      {
        "type": "midi",
        "subType": "noteOn",
        "typeByte": 153,
        "deltaTime": 0,
        "channel": 9,
        "note": 42,
        "velocity": 127
      },
      {
        "type": "midi",
        "subType": "noteOff",
        "typeByte": 153,
        "deltaTime": 22,
        "channel": 9,
        "note": 61,
        "velocity": 0
      },
      {
        "type": "midi",
        "subType": "noteOff",
        "typeByte": 153,
        "deltaTime": 0,
        "channel": 9,
        "note": 36,
        "velocity": 0
      },
      {
        "type": "midi",
        "subType": "noteOff",
        "typeByte": 153,
        "deltaTime": 3,
        "channel": 9,
        "note": 42,
        "velocity": 0
      },
      {
        "type": "midi",
        "subType": "noteOn",
        "typeByte": 153,
        "deltaTime": 23,
        "channel": 9,
        "note": 36,
        "velocity": 127
      },
      {
        "type": "midi",
        "subType": "noteOn",
        "typeByte": 153,
        "deltaTime": 0,
        "channel": 9,
        "note": 61,
        "velocity": 127
      },
      {
        "type": "midi",
        "subType": "noteOn",
        "typeByte": 153,
        "deltaTime": 0,
        "channel": 9,
        "note": 42,
        "velocity": 127
      },
      {
        "type": "midi",
        "subType": "noteOff",
        "typeByte": 153,
        "deltaTime": 23,
        "channel": 9,
        "note": 42,
        "velocity": 0
      },
      {
        "type": "midi",
        "subType": "noteOff",
        "typeByte": 153,
        "deltaTime": 0,
        "channel": 9,
        "note": 36,
        "velocity": 0
      },
      {
        "type": "midi",
        "subType": "noteOff",
        "typeByte": 153,
        "deltaTime": 0,
        "channel": 9,
        "note": 61,
        "velocity": 0
      },
      {
        "type": "midi",
        "subType": "noteOff",
        "typeByte": 153,
        "deltaTime": 15,
        "channel": 9,
        "note": 51,
        "velocity": 0
      },
      {
        "type": "midi",
        "subType": "noteOff",
        "typeByte": 153,
        "deltaTime": 1,
        "channel": 9,
        "note": 40,
        "velocity": 0
      },
      {
        "type": "midi",
        "subType": "noteOn",
        "typeByte": 153,
        "deltaTime": 8,
        "channel": 9,
        "note": 38,
        "velocity": 127
      },
      {
        "type": "midi",
        "subType": "noteOn",
        "typeByte": 153,
        "deltaTime": 0,
        "channel": 9,
        "note": 61,
        "velocity": 127
      },
      {
        "type": "midi",
        "subType": "noteOn",
        "typeByte": 153,
        "deltaTime": 1,
        "channel": 9,
        "note": 42,
        "velocity": 127
      },
      {
        "type": "midi",
        "subType": "noteOff",
        "typeByte": 153,
        "deltaTime": 22,
        "channel": 9,
        "note": 61,
        "velocity": 0
      },
      {
        "type": "midi",
        "subType": "noteOff",
        "typeByte": 153,
        "deltaTime": 0,
        "channel": 9,
        "note": 38,
        "velocity": 0
      },
      {
        "type": "midi",
        "subType": "noteOff",
        "typeByte": 153,
        "deltaTime": 3,
        "channel": 9,
        "note": 42,
        "velocity": 0
      },
      {
        "type": "midi",
        "subType": "noteOn",
        "typeByte": 153,
        "deltaTime": 23,
        "channel": 9,
        "note": 61,
        "velocity": 127
      },
      {
        "type": "midi",
        "subType": "noteOn",
        "typeByte": 153,
        "deltaTime": 0,
        "channel": 9,
        "note": 42,
        "velocity": 127
      },
      {
        "type": "midi",
        "subType": "noteOff",
        "typeByte": 153,
        "deltaTime": 23,
        "channel": 9,
        "note": 61,
        "velocity": 0
      },
      {
        "type": "midi",
        "subType": "noteOff",
        "typeByte": 153,
        "deltaTime": 1,
        "channel": 9,
        "note": 42,
        "velocity": 0
      },
      {
        "type": "midi",
        "subType": "noteOn",
        "typeByte": 153,
        "deltaTime": 24,
        "channel": 9,
        "note": 36,
        "velocity": 127
      },
      {
        "type": "midi",
        "subType": "noteOn",
        "typeByte": 153,
        "deltaTime": 0,
        "channel": 9,
        "note": 61,
        "velocity": 127
      },
      {
        "type": "midi",
        "subType": "noteOn",
        "typeByte": 153,
        "deltaTime": 0,
        "channel": 9,
        "note": 42,
        "velocity": 127
      },
      {
        "type": "midi",
        "subType": "noteOff",
        "typeByte": 153,
        "deltaTime": 23,
        "channel": 9,
        "note": 61,
        "velocity": 0
      },
      {
        "type": "midi",
        "subType": "noteOff",
        "typeByte": 153,
        "deltaTime": 0,
        "channel": 9,
        "note": 36,
        "velocity": 0
      },
      {
        "type": "midi",
        "subType": "noteOff",
        "typeByte": 153,
        "deltaTime": 2,
        "channel": 9,
        "note": 42,
        "velocity": 0
      },
      {
        "type": "midi",
        "subType": "noteOn",
        "typeByte": 153,
        "deltaTime": 23,
        "channel": 9,
        "note": 61,
        "velocity": 127
      },
      {
        "type": "midi",
        "subType": "noteOn",
        "typeByte": 153,
        "deltaTime": 0,
        "channel": 9,
        "note": 42,
        "velocity": 127
      },
      {
        "type": "midi",
        "subType": "noteOff",
        "typeByte": 153,
        "deltaTime": 23,
        "channel": 9,
        "note": 61,
        "velocity": 0
      },
      {
        "type": "midi",
        "subType": "noteOff",
        "typeByte": 153,
        "deltaTime": 3,
        "channel": 9,
        "note": 42,
        "velocity": 0
      },
      {
        "type": "midi",
        "subType": "noteOn",
        "typeByte": 153,
        "deltaTime": 22,
        "channel": 9,
        "note": 38,
        "velocity": 127
      },
      {
        "type": "midi",
        "subType": "noteOn",
        "typeByte": 153,
        "deltaTime": 0,
        "channel": 9,
        "note": 61,
        "velocity": 127
      },
      {
        "type": "midi",
        "subType": "noteOn",
        "typeByte": 153,
        "deltaTime": 0,
        "channel": 9,
        "note": 42,
        "velocity": 127
      },
      {
        "type": "midi",
        "subType": "noteOff",
        "typeByte": 153,
        "deltaTime": 23,
        "channel": 9,
        "note": 42,
        "velocity": 0
      },
      {
        "type": "midi",
        "subType": "noteOff",
        "typeByte": 153,
        "deltaTime": 0,
        "channel": 9,
        "note": 61,
        "velocity": 0
      },
      {
        "type": "midi",
        "subType": "noteOff",
        "typeByte": 153,
        "deltaTime": 0,
        "channel": 9,
        "note": 38,
        "velocity": 0
      },
      {
        "type": "midi",
        "subType": "noteOn",
        "typeByte": 153,
        "deltaTime": 26,
        "channel": 9,
        "note": 61,
        "velocity": 127
      },
      {
        "type": "midi",
        "subType": "noteOn",
        "typeByte": 153,
        "deltaTime": 0,
        "channel": 9,
        "note": 42,
        "velocity": 127
      },
      {
        "type": "midi",
        "subType": "noteOff",
        "typeByte": 153,
        "deltaTime": 23,
        "channel": 9,
        "note": 42,
        "velocity": 0
      },
      {
        "type": "midi",
        "subType": "noteOff",
        "typeByte": 153,
        "deltaTime": 0,
        "channel": 9,
        "note": 61,
        "velocity": 0
      },
      {
        "type": "midi",
        "subType": "noteOn",
        "typeByte": 153,
        "deltaTime": 24,
        "channel": 9,
        "note": 36,
        "velocity": 127
      },
      {
        "type": "midi",
        "subType": "noteOn",
        "typeByte": 153,
        "deltaTime": 0,
        "channel": 9,
        "note": 61,
        "velocity": 127
      },
      {
        "type": "midi",
        "subType": "noteOn",
        "typeByte": 153,
        "deltaTime": 1,
        "channel": 9,
        "note": 40,
        "velocity": 127
      },
      {
        "type": "midi",
        "subType": "noteOn",
        "typeByte": 153,
        "deltaTime": 0,
        "channel": 9,
        "note": 51,
        "velocity": 127
      },
      {
        "type": "midi",
        "subType": "noteOn",
        "typeByte": 153,
        "deltaTime": 0,
        "channel": 9,
        "note": 42,
        "velocity": 127
      },
      {
        "type": "midi",
        "subType": "noteOff",
        "typeByte": 153,
        "deltaTime": 22,
        "channel": 9,
        "note": 42,
        "velocity": 0
      },
      {
        "type": "midi",
        "subType": "noteOff",
        "typeByte": 153,
        "deltaTime": 0,
        "channel": 9,
        "note": 36,
        "velocity": 0
      },
      {
        "type": "midi",
        "subType": "noteOff",
        "typeByte": 153,
        "deltaTime": 1,
        "channel": 9,
        "note": 61,
        "velocity": 0
      },
      {
        "type": "midi",
        "subType": "noteOn",
        "typeByte": 153,
        "deltaTime": 25,
        "channel": 9,
        "note": 36,
        "velocity": 127
      },
      {
        "type": "midi",
        "subType": "noteOn",
        "typeByte": 153,
        "deltaTime": 0,
        "channel": 9,
        "note": 61,
        "velocity": 127
      },
      {
        "type": "midi",
        "subType": "noteOn",
        "typeByte": 153,
        "deltaTime": 1,
        "channel": 9,
        "note": 42,
        "velocity": 127
      },
      {
        "type": "midi",
        "subType": "noteOff",
        "typeByte": 153,
        "deltaTime": 21,
        "channel": 9,
        "note": 42,
        "velocity": 0
      },
      {
        "type": "midi",
        "subType": "noteOff",
        "typeByte": 153,
        "deltaTime": 1,
        "channel": 9,
        "note": 36,
        "velocity": 0
      },
      {
        "type": "midi",
        "subType": "noteOff",
        "typeByte": 153,
        "deltaTime": 0,
        "channel": 9,
        "note": 61,
        "velocity": 0
      },
      {
        "type": "midi",
        "subType": "noteOff",
        "typeByte": 153,
        "deltaTime": 24,
        "channel": 9,
        "note": 40,
        "velocity": 0
      },
      {
        "type": "midi",
        "subType": "noteOn",
        "typeByte": 153,
        "deltaTime": 1,
        "channel": 9,
        "note": 38,
        "velocity": 127
      },
      {
        "type": "midi",
        "subType": "noteOn",
        "typeByte": 153,
        "deltaTime": 0,
        "channel": 9,
        "note": 61,
        "velocity": 127
      },
      {
        "type": "midi",
        "subType": "noteOn",
        "typeByte": 153,
        "deltaTime": 0,
        "channel": 9,
        "note": 42,
        "velocity": 127
      },
      {
        "type": "midi",
        "subType": "noteOff",
        "typeByte": 153,
        "deltaTime": 5,
        "channel": 9,
        "note": 51,
        "velocity": 0
      },
      {
        "type": "midi",
        "subType": "noteOff",
        "typeByte": 153,
        "deltaTime": 17,
        "channel": 9,
        "note": 38,
        "velocity": 0
      },
      {
        "type": "midi",
        "subType": "noteOff",
        "typeByte": 153,
        "deltaTime": 0,
        "channel": 9,
        "note": 61,
        "velocity": 0
      },
      {
        "type": "midi",
        "subType": "noteOff",
        "typeByte": 153,
        "deltaTime": 2,
        "channel": 9,
        "note": 42,
        "velocity": 0
      },
      {
        "type": "midi",
        "subType": "noteOn",
        "typeByte": 153,
        "deltaTime": 24,
        "channel": 9,
        "note": 61,
        "velocity": 127
      },
      {
        "type": "midi",
        "subType": "noteOn",
        "typeByte": 153,
        "deltaTime": 0,
        "channel": 9,
        "note": 42,
        "velocity": 127
      },
      {
        "type": "midi",
        "subType": "noteOff",
        "typeByte": 153,
        "deltaTime": 22,
        "channel": 9,
        "note": 42,
        "velocity": 0
      },
      {
        "type": "midi",
        "subType": "noteOff",
        "typeByte": 153,
        "deltaTime": 1,
        "channel": 9,
        "note": 61,
        "velocity": 0
      },
      {
        "type": "midi",
        "subType": "noteOn",
        "typeByte": 153,
        "deltaTime": 25,
        "channel": 9,
        "note": 36,
        "velocity": 127
      },
      {
        "type": "midi",
        "subType": "noteOn",
        "typeByte": 153,
        "deltaTime": 0,
        "channel": 9,
        "note": 61,
        "velocity": 127
      },
      {
        "type": "midi",
        "subType": "noteOn",
        "typeByte": 153,
        "deltaTime": 0,
        "channel": 9,
        "note": 42,
        "velocity": 127
      },
      {
        "type": "midi",
        "subType": "noteOff",
        "typeByte": 153,
        "deltaTime": 17,
        "channel": 9,
        "note": 42,
        "velocity": 0
      },
      {
        "type": "midi",
        "subType": "noteOff",
        "typeByte": 153,
        "deltaTime": 6,
        "channel": 9,
        "note": 61,
        "velocity": 0
      },
      {
        "type": "midi",
        "subType": "noteOff",
        "typeByte": 153,
        "deltaTime": 0,
        "channel": 9,
        "note": 36,
        "velocity": 0
      },
      {
        "type": "midi",
        "subType": "noteOn",
        "typeByte": 153,
        "deltaTime": 26,
        "channel": 9,
        "note": 61,
        "velocity": 127
      },
      {
        "type": "midi",
        "subType": "noteOn",
        "typeByte": 153,
        "deltaTime": 0,
        "channel": 9,
        "note": 42,
        "velocity": 127
      },
      {
        "type": "midi",
        "subType": "noteOff",
        "typeByte": 153,
        "deltaTime": 16,
        "channel": 9,
        "note": 42,
        "velocity": 0
      },
      {
        "type": "midi",
        "subType": "noteOff",
        "typeByte": 153,
        "deltaTime": 7,
        "channel": 9,
        "note": 61,
        "velocity": 0
      },
      {
        "type": "midi",
        "subType": "noteOn",
        "typeByte": 153,
        "deltaTime": 24,
        "channel": 9,
        "note": 38,
        "velocity": 127
      },
      {
        "type": "midi",
        "subType": "noteOn",
        "typeByte": 153,
        "deltaTime": 0,
        "channel": 9,
        "note": 61,
        "velocity": 127
      },
      {
        "type": "midi",
        "subType": "noteOn",
        "typeByte": 153,
        "deltaTime": 0,
        "channel": 9,
        "note": 42,
        "velocity": 127
      },
      {
        "type": "midi",
        "subType": "noteOff",
        "typeByte": 153,
        "deltaTime": 20,
        "channel": 9,
        "note": 42,
        "velocity": 0
      },
      {
        "type": "midi",
        "subType": "noteOff",
        "typeByte": 153,
        "deltaTime": 3,
        "channel": 9,
        "note": 61,
        "velocity": 0
      },
      {
        "type": "midi",
        "subType": "noteOff",
        "typeByte": 153,
        "deltaTime": 0,
        "channel": 9,
        "note": 38,
        "velocity": 0
      },
      {
        "type": "midi",
        "subType": "noteOn",
        "typeByte": 153,
        "deltaTime": 26,
        "channel": 9,
        "note": 61,
        "velocity": 127
      },
      {
        "type": "midi",
        "subType": "noteOn",
        "typeByte": 153,
        "deltaTime": 0,
        "channel": 9,
        "note": 42,
        "velocity": 127
      },
      {
        "type": "midi",
        "subType": "noteOff",
        "typeByte": 153,
        "deltaTime": 13,
        "channel": 9,
        "note": 42,
        "velocity": 0
      },
      {
        "type": "midi",
        "subType": "noteOff",
        "typeByte": 153,
        "deltaTime": 10,
        "channel": 9,
        "note": 61,
        "velocity": 0
      },
      {
        "type": "midi",
        "subType": "noteOn",
        "typeByte": 153,
        "deltaTime": 24,
        "channel": 9,
        "note": 36,
        "velocity": 127
      },
      {
        "type": "midi",
        "subType": "noteOn",
        "typeByte": 153,
        "deltaTime": 1,
        "channel": 9,
        "note": 61,
        "velocity": 127
      },
      {
        "type": "midi",
        "subType": "noteOn",
        "typeByte": 153,
        "deltaTime": 0,
        "channel": 9,
        "note": 51,
        "velocity": 127
      },
      {
        "type": "midi",
        "subType": "noteOn",
        "typeByte": 153,
        "deltaTime": 0,
        "channel": 9,
        "note": 40,
        "velocity": 127
      },
      {
        "type": "midi",
        "subType": "noteOn",
        "typeByte": 153,
        "deltaTime": 0,
        "channel": 9,
        "note": 42,
        "velocity": 127
      },
      {
        "type": "midi",
        "subType": "noteOff",
        "typeByte": 153,
        "deltaTime": 21,
        "channel": 9,
        "note": 42,
        "velocity": 0
      },
      {
        "type": "midi",
        "subType": "noteOff",
        "typeByte": 153,
        "deltaTime": 1,
        "channel": 9,
        "note": 36,
        "velocity": 0
      },
      {
        "type": "midi",
        "subType": "noteOff",
        "typeByte": 153,
        "deltaTime": 0,
        "channel": 9,
        "note": 61,
        "velocity": 0
      },
      {
        "type": "midi",
        "subType": "noteOn",
        "typeByte": 153,
        "deltaTime": 26,
        "channel": 9,
        "note": 36,
        "velocity": 127
      },
      {
        "type": "midi",
        "subType": "noteOn",
        "typeByte": 153,
        "deltaTime": 0,
        "channel": 9,
        "note": 61,
        "velocity": 127
      },
      {
        "type": "midi",
        "subType": "noteOn",
        "typeByte": 153,
        "deltaTime": 1,
        "channel": 9,
        "note": 42,
        "velocity": 127
      },
      {
        "type": "midi",
        "subType": "noteOff",
        "typeByte": 153,
        "deltaTime": 22,
        "channel": 9,
        "note": 42,
        "velocity": 0
      },
      {
        "type": "midi",
        "subType": "noteOff",
        "typeByte": 153,
        "deltaTime": 0,
        "channel": 9,
        "note": 36,
        "velocity": 0
      },
      {
        "type": "midi",
        "subType": "noteOff",
        "typeByte": 153,
        "deltaTime": 0,
        "channel": 9,
        "note": 61,
        "velocity": 0
      },
      {
        "type": "midi",
        "subType": "noteOff",
        "typeByte": 153,
        "deltaTime": 15,
        "channel": 9,
        "note": 51,
        "velocity": 0
      },
      {
        "type": "midi",
        "subType": "noteOff",
        "typeByte": 153,
        "deltaTime": 1,
        "channel": 9,
        "note": 40,
        "velocity": 0
      },
      {
        "type": "midi",
        "subType": "noteOn",
        "typeByte": 153,
        "deltaTime": 9,
        "channel": 9,
        "note": 38,
        "velocity": 127
      },
      {
        "type": "midi",
        "subType": "noteOn",
        "typeByte": 153,
        "deltaTime": 0,
        "channel": 9,
        "note": 61,
        "velocity": 127
      },
      {
        "type": "midi",
        "subType": "noteOn",
        "typeByte": 153,
        "deltaTime": 0,
        "channel": 9,
        "note": 42,
        "velocity": 127
      },
      {
        "type": "midi",
        "subType": "noteOff",
        "typeByte": 153,
        "deltaTime": 23,
        "channel": 9,
        "note": 42,
        "velocity": 0
      },
      {
        "type": "midi",
        "subType": "noteOff",
        "typeByte": 153,
        "deltaTime": 0,
        "channel": 9,
        "note": 61,
        "velocity": 0
      },
      {
        "type": "midi",
        "subType": "noteOff",
        "typeByte": 153,
        "deltaTime": 0,
        "channel": 9,
        "note": 38,
        "velocity": 0
      },
      {
        "type": "midi",
        "subType": "noteOn",
        "typeByte": 153,
        "deltaTime": 25,
        "channel": 9,
        "note": 38,
        "velocity": 127
      },
      {
        "type": "midi",
        "subType": "noteOn",
        "typeByte": 153,
        "deltaTime": 0,
        "channel": 9,
        "note": 61,
        "velocity": 127
      },
      {
        "type": "midi",
        "subType": "noteOn",
        "typeByte": 153,
        "deltaTime": 1,
        "channel": 9,
        "note": 42,
        "velocity": 127
      },
      {
        "type": "midi",
        "subType": "noteOff",
        "typeByte": 153,
        "deltaTime": 22,
        "channel": 9,
        "note": 42,
        "velocity": 0
      },
      {
        "type": "midi",
        "subType": "noteOff",
        "typeByte": 153,
        "deltaTime": 0,
        "channel": 9,
        "note": 61,
        "velocity": 0
      },
      {
        "type": "midi",
        "subType": "noteOff",
        "typeByte": 153,
        "deltaTime": 0,
        "channel": 9,
        "note": 38,
        "velocity": 0
      },
      {
        "type": "midi",
        "subType": "noteOn",
        "typeByte": 153,
        "deltaTime": 25,
        "channel": 9,
        "note": 36,
        "velocity": 127
      },
      {
        "type": "midi",
        "subType": "noteOn",
        "typeByte": 153,
        "deltaTime": 0,
        "channel": 9,
        "note": 42,
        "velocity": 127
      },
      {
        "type": "midi",
        "subType": "noteOff",
        "typeByte": 153,
        "deltaTime": 23,
        "channel": 9,
        "note": 36,
        "velocity": 0
      },
      {
        "type": "midi",
        "subType": "noteOff",
        "typeByte": 153,
        "deltaTime": 3,
        "channel": 9,
        "note": 42,
        "velocity": 0
      },
      {
        "type": "midi",
        "subType": "noteOn",
        "typeByte": 153,
        "deltaTime": 23,
        "channel": 9,
        "note": 42,
        "velocity": 127
      },
      {
        "type": "midi",
        "subType": "noteOff",
        "typeByte": 153,
        "deltaTime": 19,
        "channel": 9,
        "note": 42,
        "velocity": 0
      },
      {
        "type": "midi",
        "subType": "noteOn",
        "typeByte": 153,
        "deltaTime": 28,
        "channel": 9,
        "note": 36,
        "velocity": 127
      },
      {
        "type": "midi",
        "subType": "noteOn",
        "typeByte": 153,
        "deltaTime": 0,
        "channel": 9,
        "note": 38,
        "velocity": 127
      },
      {
        "type": "midi",
        "subType": "noteOn",
        "typeByte": 153,
        "deltaTime": 1,
        "channel": 9,
        "note": 42,
        "velocity": 127
      },
      {
        "type": "midi",
        "subType": "noteOff",
        "typeByte": 153,
        "deltaTime": 21,
        "channel": 9,
        "note": 42,
        "velocity": 0
      },
      {
        "type": "midi",
        "subType": "noteOff",
        "typeByte": 153,
        "deltaTime": 1,
        "channel": 9,
        "note": 38,
        "velocity": 0
      },
      {
        "type": "midi",
        "subType": "noteOff",
        "typeByte": 153,
        "deltaTime": 0,
        "channel": 9,
        "note": 36,
        "velocity": 0
      },
      {
        "type": "midi",
        "subType": "noteOn",
        "typeByte": 153,
        "deltaTime": 26,
        "channel": 9,
        "note": 42,
        "velocity": 127
      },
      {
        "type": "midi",
        "subType": "noteOff",
        "typeByte": 153,
        "deltaTime": 23,
        "channel": 9,
        "note": 42,
        "velocity": 0
      },
      {
        "type": "midi",
        "subType": "noteOn",
        "typeByte": 153,
        "deltaTime": 24,
        "channel": 9,
        "note": 36,
        "velocity": 127
      },
      {
        "type": "midi",
        "subType": "noteOn",
        "typeByte": 153,
        "deltaTime": 0,
        "channel": 9,
        "note": 42,
        "velocity": 127
      },
      {
        "type": "midi",
        "subType": "noteOff",
        "typeByte": 153,
        "deltaTime": 24,
        "channel": 9,
        "note": 42,
        "velocity": 0
      },
      {
        "type": "midi",
        "subType": "noteOff",
        "typeByte": 153,
        "deltaTime": 0,
        "channel": 9,
        "note": 36,
        "velocity": 0
      },
      {
        "type": "midi",
        "subType": "noteOn",
        "typeByte": 153,
        "deltaTime": 25,
        "channel": 9,
        "note": 42,
        "velocity": 127
      },
      {
        "type": "midi",
        "subType": "noteOff",
        "typeByte": 153,
        "deltaTime": 25,
        "channel": 9,
        "note": 42,
        "velocity": 0
      },
      {
        "type": "midi",
        "subType": "noteOn",
        "typeByte": 153,
        "deltaTime": 23,
        "channel": 9,
        "note": 36,
        "velocity": 127
      },
      {
        "type": "midi",
        "subType": "noteOn",
        "typeByte": 153,
        "deltaTime": 0,
        "channel": 9,
        "note": 38,
        "velocity": 127
      },
      {
        "type": "midi",
        "subType": "noteOn",
        "typeByte": 153,
        "deltaTime": 0,
        "channel": 9,
        "note": 42,
        "velocity": 127
      },
      {
        "type": "midi",
        "subType": "noteOff",
        "typeByte": 153,
        "deltaTime": 23,
        "channel": 9,
        "note": 38,
        "velocity": 0
      },
      {
        "type": "midi",
        "subType": "noteOff",
        "typeByte": 153,
        "deltaTime": 0,
        "channel": 9,
        "note": 36,
        "velocity": 0
      },
      {
        "type": "midi",
        "subType": "noteOff",
        "typeByte": 153,
        "deltaTime": 3,
        "channel": 9,
        "note": 42,
        "velocity": 0
      },
      {
        "type": "midi",
        "subType": "noteOn",
        "typeByte": 153,
        "deltaTime": 23,
        "channel": 9,
        "note": 42,
        "velocity": 127
      },
      {
        "type": "midi",
        "subType": "noteOff",
        "typeByte": 153,
        "deltaTime": 24,
        "channel": 9,
        "note": 42,
        "velocity": 0
      },
      {
        "type": "midi",
        "subType": "noteOn",
        "typeByte": 153,
        "deltaTime": 23,
        "channel": 9,
        "note": 36,
        "velocity": 127
      },
      {
        "type": "midi",
        "subType": "noteOn",
        "typeByte": 153,
        "deltaTime": 0,
        "channel": 9,
        "note": 42,
        "velocity": 127
      },
      {
        "type": "midi",
        "subType": "noteOff",
        "typeByte": 153,
        "deltaTime": 23,
        "channel": 9,
        "note": 36,
        "velocity": 0
      },
      {
        "type": "midi",
        "subType": "noteOff",
        "typeByte": 153,
        "deltaTime": 5,
        "channel": 9,
        "note": 42,
        "velocity": 0
      },
      {
        "type": "midi",
        "subType": "noteOn",
        "typeByte": 153,
        "deltaTime": 21,
        "channel": 9,
        "note": 42,
        "velocity": 127
      },
      {
        "type": "midi",
        "subType": "noteOff",
        "typeByte": 153,
        "deltaTime": 22,
        "channel": 9,
        "note": 42,
        "velocity": 0
      },
      {
        "type": "midi",
        "subType": "noteOn",
        "typeByte": 153,
        "deltaTime": 25,
        "channel": 9,
        "note": 38,
        "velocity": 127
      },
      {
        "type": "midi",
        "subType": "noteOn",
        "typeByte": 153,
        "deltaTime": 1,
        "channel": 9,
        "note": 36,
        "velocity": 127
      },
      {
        "type": "midi",
        "subType": "noteOn",
        "typeByte": 153,
        "deltaTime": 0,
        "channel": 9,
        "note": 42,
        "velocity": 127
      },
      {
        "type": "midi",
        "subType": "noteOff",
        "typeByte": 153,
        "deltaTime": 22,
        "channel": 9,
        "note": 42,
        "velocity": 0
      },
      {
        "type": "midi",
        "subType": "noteOff",
        "typeByte": 153,
        "deltaTime": 0,
        "channel": 9,
        "note": 38,
        "velocity": 0
      },
      {
        "type": "midi",
        "subType": "noteOff",
        "typeByte": 153,
        "deltaTime": 1,
        "channel": 9,
        "note": 36,
        "velocity": 0
      },
      {
        "type": "midi",
        "subType": "noteOn",
        "typeByte": 153,
        "deltaTime": 25,
        "channel": 9,
        "note": 42,
        "velocity": 127
      },
      {
        "type": "midi",
        "subType": "noteOff",
        "typeByte": 153,
        "deltaTime": 23,
        "channel": 9,
        "note": 42,
        "velocity": 0
      },
      {
        "type": "midi",
        "subType": "noteOn",
        "typeByte": 153,
        "deltaTime": 25,
        "channel": 9,
        "note": 36,
        "velocity": 127
      },
      {
        "type": "midi",
        "subType": "noteOn",
        "typeByte": 153,
        "deltaTime": 0,
        "channel": 9,
        "note": 42,
        "velocity": 127
      },
      {
        "type": "midi",
        "subType": "noteOff",
        "typeByte": 153,
        "deltaTime": 23,
        "channel": 9,
        "note": 36,
        "velocity": 0
      },
      {
        "type": "midi",
        "subType": "noteOff",
        "typeByte": 153,
        "deltaTime": 2,
        "channel": 9,
        "note": 42,
        "velocity": 0
      },
      {
        "type": "midi",
        "subType": "noteOn",
        "typeByte": 153,
        "deltaTime": 23,
        "channel": 9,
        "note": 42,
        "velocity": 127
      },
      {
        "type": "midi",
        "subType": "noteOff",
        "typeByte": 153,
        "deltaTime": 24,
        "channel": 9,
        "note": 42,
        "velocity": 0
      },
      {
        "type": "midi",
        "subType": "noteOn",
        "typeByte": 153,
        "deltaTime": 24,
        "channel": 9,
        "note": 36,
        "velocity": 127
      },
      {
        "type": "midi",
        "subType": "noteOn",
        "typeByte": 153,
        "deltaTime": 0,
        "channel": 9,
        "note": 38,
        "velocity": 127
      },
      {
        "type": "midi",
        "subType": "noteOn",
        "typeByte": 153,
        "deltaTime": 0,
        "channel": 9,
        "note": 42,
        "velocity": 127
      },
      {
        "type": "midi",
        "subType": "noteOff",
        "typeByte": 153,
        "deltaTime": 23,
        "channel": 9,
        "note": 38,
        "velocity": 0
      },
      {
        "type": "midi",
        "subType": "noteOff",
        "typeByte": 153,
        "deltaTime": 0,
        "channel": 9,
        "note": 36,
        "velocity": 0
      },
      {
        "type": "midi",
        "subType": "noteOff",
        "typeByte": 153,
        "deltaTime": 3,
        "channel": 9,
        "note": 42,
        "velocity": 0
      },
      {
        "type": "midi",
        "subType": "noteOn",
        "typeByte": 153,
        "deltaTime": 23,
        "channel": 9,
        "note": 42,
        "velocity": 127
      },
      {
        "type": "midi",
        "subType": "noteOff",
        "typeByte": 153,
        "deltaTime": 24,
        "channel": 9,
        "note": 42,
        "velocity": 0
      },
      {
        "type": "midi",
        "subType": "noteOn",
        "typeByte": 153,
        "deltaTime": 23,
        "channel": 9,
        "note": 36,
        "velocity": 127
      },
      {
        "type": "midi",
        "subType": "noteOn",
        "typeByte": 153,
        "deltaTime": 0,
        "channel": 9,
        "note": 42,
        "velocity": 127
      },
      {
        "type": "midi",
        "subType": "noteOff",
        "typeByte": 153,
        "deltaTime": 23,
        "channel": 9,
        "note": 36,
        "velocity": 0
      },
      {
        "type": "midi",
        "subType": "noteOff",
        "typeByte": 153,
        "deltaTime": 3,
        "channel": 9,
        "note": 42,
        "velocity": 0
      },
      {
        "type": "midi",
        "subType": "noteOn",
        "typeByte": 153,
        "deltaTime": 23,
        "channel": 9,
        "note": 42,
        "velocity": 127
      },
      {
        "type": "midi",
        "subType": "noteOff",
        "typeByte": 153,
        "deltaTime": 26,
        "channel": 9,
        "note": 42,
        "velocity": 0
      },
      {
        "type": "midi",
        "subType": "noteOn",
        "typeByte": 153,
        "deltaTime": 22,
        "channel": 9,
        "note": 38,
        "velocity": 127
      },
      {
        "type": "midi",
        "subType": "noteOn",
        "typeByte": 153,
        "deltaTime": 0,
        "channel": 9,
        "note": 36,
        "velocity": 127
      },
      {
        "type": "midi",
        "subType": "noteOn",
        "typeByte": 153,
        "deltaTime": 0,
        "channel": 9,
        "note": 42,
        "velocity": 127
      },
      {
        "type": "midi",
        "subType": "noteOff",
        "typeByte": 153,
        "deltaTime": 23,
        "channel": 9,
        "note": 42,
        "velocity": 0
      },
      {
        "type": "midi",
        "subType": "noteOff",
        "typeByte": 153,
        "deltaTime": 0,
        "channel": 9,
        "note": 36,
        "velocity": 0
      },
      {
        "type": "midi",
        "subType": "noteOff",
        "typeByte": 153,
        "deltaTime": 0,
        "channel": 9,
        "note": 38,
        "velocity": 0
      },
      {
        "type": "midi",
        "subType": "noteOn",
        "typeByte": 153,
        "deltaTime": 25,
        "channel": 9,
        "note": 42,
        "velocity": 127
      },
      {
        "type": "midi",
        "subType": "noteOff",
        "typeByte": 153,
        "deltaTime": 23,
        "channel": 9,
        "note": 42,
        "velocity": 0
      },
      {
        "type": "midi",
        "subType": "noteOn",
        "typeByte": 153,
        "deltaTime": 25,
        "channel": 9,
        "note": 36,
        "velocity": 127
      },
      {
        "type": "midi",
        "subType": "noteOn",
        "typeByte": 153,
        "deltaTime": 0,
        "channel": 9,
        "note": 42,
        "velocity": 127
      },
      {
        "type": "midi",
        "subType": "noteOff",
        "typeByte": 153,
        "deltaTime": 23,
        "channel": 9,
        "note": 42,
        "velocity": 0
      },
      {
        "type": "midi",
        "subType": "noteOff",
        "typeByte": 153,
        "deltaTime": 0,
        "channel": 9,
        "note": 36,
        "velocity": 0
      },
      {
        "type": "midi",
        "subType": "noteOn",
        "typeByte": 153,
        "deltaTime": 26,
        "channel": 9,
        "note": 42,
        "velocity": 127
      },
      {
        "type": "midi",
        "subType": "noteOff",
        "typeByte": 153,
        "deltaTime": 21,
        "channel": 9,
        "note": 42,
        "velocity": 0
      },
      {
        "type": "midi",
        "subType": "noteOn",
        "typeByte": 153,
        "deltaTime": 26,
        "channel": 9,
        "note": 38,
        "velocity": 127
      },
      {
        "type": "midi",
        "subType": "noteOn",
        "typeByte": 153,
        "deltaTime": 0,
        "channel": 9,
        "note": 36,
        "velocity": 127
      },
      {
        "type": "midi",
        "subType": "noteOn",
        "typeByte": 153,
        "deltaTime": 1,
        "channel": 9,
        "note": 42,
        "velocity": 127
      },
      {
        "type": "midi",
        "subType": "noteOff",
        "typeByte": 153,
        "deltaTime": 22,
        "channel": 9,
        "note": 36,
        "velocity": 0
      },
      {
        "type": "midi",
        "subType": "noteOff",
        "typeByte": 153,
        "deltaTime": 0,
        "channel": 9,
        "note": 38,
        "velocity": 0
      },
      {
        "type": "midi",
        "subType": "noteOff",
        "typeByte": 153,
        "deltaTime": 1,
        "channel": 9,
        "note": 42,
        "velocity": 0
      },
      {
        "type": "midi",
        "subType": "noteOn",
        "typeByte": 153,
        "deltaTime": 25,
        "channel": 9,
        "note": 42,
        "velocity": 127
      },
      {
        "type": "midi",
        "subType": "noteOff",
        "typeByte": 153,
        "deltaTime": 22,
        "channel": 9,
        "note": 42,
        "velocity": 0
      },
      {
        "type": "midi",
        "subType": "noteOn",
        "typeByte": 153,
        "deltaTime": 25,
        "channel": 9,
        "note": 36,
        "velocity": 127
      },
      {
        "type": "midi",
        "subType": "noteOn",
        "typeByte": 153,
        "deltaTime": 0,
        "channel": 9,
        "note": 42,
        "velocity": 127
      },
      {
        "type": "midi",
        "subType": "noteOff",
        "typeByte": 153,
        "deltaTime": 18,
        "channel": 9,
        "note": 42,
        "velocity": 0
      },
      {
        "type": "midi",
        "subType": "noteOff",
        "typeByte": 153,
        "deltaTime": 5,
        "channel": 9,
        "note": 36,
        "velocity": 0
      },
      {
        "type": "midi",
        "subType": "noteOn",
        "typeByte": 153,
        "deltaTime": 26,
        "channel": 9,
        "note": 42,
        "velocity": 127
      },
      {
        "type": "midi",
        "subType": "noteOff",
        "typeByte": 153,
        "deltaTime": 17,
        "channel": 9,
        "note": 42,
        "velocity": 0
      },
      {
        "type": "midi",
        "subType": "noteOn",
        "typeByte": 153,
        "deltaTime": 31,
        "channel": 9,
        "note": 36,
        "velocity": 127
      },
      {
        "type": "midi",
        "subType": "noteOn",
        "typeByte": 153,
        "deltaTime": 0,
        "channel": 9,
        "note": 38,
        "velocity": 127
      },
      {
        "type": "midi",
        "subType": "noteOn",
        "typeByte": 153,
        "deltaTime": 0,
        "channel": 9,
        "note": 42,
        "velocity": 127
      },
      {
        "type": "midi",
        "subType": "noteOff",
        "typeByte": 153,
        "deltaTime": 20,
        "channel": 9,
        "note": 42,
        "velocity": 0
      },
      {
        "type": "midi",
        "subType": "noteOff",
        "typeByte": 153,
        "deltaTime": 3,
        "channel": 9,
        "note": 38,
        "velocity": 0
      },
      {
        "type": "midi",
        "subType": "noteOff",
        "typeByte": 153,
        "deltaTime": 0,
        "channel": 9,
        "note": 36,
        "velocity": 0
      },
      {
        "type": "midi",
        "subType": "noteOn",
        "typeByte": 153,
        "deltaTime": 26,
        "channel": 9,
        "note": 42,
        "velocity": 127
      },
      {
        "type": "midi",
        "subType": "noteOff",
        "typeByte": 153,
        "deltaTime": 13,
        "channel": 9,
        "note": 42,
        "velocity": 0
      },
      {
        "type": "midi",
        "subType": "noteOn",
        "typeByte": 153,
        "deltaTime": 34,
        "channel": 9,
        "note": 36,
        "velocity": 127
      },
      {
        "type": "midi",
        "subType": "noteOn",
        "typeByte": 153,
        "deltaTime": 0,
        "channel": 9,
        "note": 42,
        "velocity": 127
      },
      {
        "type": "midi",
        "subType": "noteOff",
        "typeByte": 153,
        "deltaTime": 22,
        "channel": 9,
        "note": 42,
        "velocity": 0
      },
      {
        "type": "midi",
        "subType": "noteOff",
        "typeByte": 153,
        "deltaTime": 1,
        "channel": 9,
        "note": 36,
        "velocity": 0
      },
      {
        "type": "midi",
        "subType": "noteOn",
        "typeByte": 153,
        "deltaTime": 26,
        "channel": 9,
        "note": 42,
        "velocity": 127
      },
      {
        "type": "midi",
        "subType": "noteOff",
        "typeByte": 153,
        "deltaTime": 23,
        "channel": 9,
        "note": 42,
        "velocity": 0
      },
      {
        "type": "midi",
        "subType": "noteOn",
        "typeByte": 153,
        "deltaTime": 24,
        "channel": 9,
        "note": 36,
        "velocity": 127
      },
      {
        "type": "midi",
        "subType": "noteOn",
        "typeByte": 153,
        "deltaTime": 1,
        "channel": 9,
        "note": 38,
        "velocity": 127
      },
      {
        "type": "midi",
        "subType": "noteOn",
        "typeByte": 153,
        "deltaTime": 0,
        "channel": 9,
        "note": 42,
        "velocity": 127
      },
      {
        "type": "midi",
        "subType": "noteOff",
        "typeByte": 153,
        "deltaTime": 22,
        "channel": 9,
        "note": 42,
        "velocity": 0
      },
      {
        "type": "midi",
        "subType": "noteOff",
        "typeByte": 153,
        "deltaTime": 0,
        "channel": 9,
        "note": 36,
        "velocity": 0
      },
      {
        "type": "midi",
        "subType": "noteOff",
        "typeByte": 153,
        "deltaTime": 1,
        "channel": 9,
        "note": 38,
        "velocity": 0
      },
      {
        "type": "midi",
        "subType": "noteOn",
        "typeByte": 153,
        "deltaTime": 25,
        "channel": 9,
        "note": 42,
        "velocity": 127
      },
      {
        "type": "midi",
        "subType": "noteOff",
        "typeByte": 153,
        "deltaTime": 23,
        "channel": 9,
        "note": 42,
        "velocity": 0
      },
      {
        "type": "midi",
        "subType": "noteOn",
        "typeByte": 153,
        "deltaTime": 25,
        "channel": 9,
        "note": 36,
        "velocity": 127
      },
      {
        "type": "midi",
        "subType": "noteOn",
        "typeByte": 153,
        "deltaTime": 0,
        "channel": 9,
        "note": 42,
        "velocity": 127
      },
      {
        "type": "midi",
        "subType": "noteOff",
        "typeByte": 153,
        "deltaTime": 23,
        "channel": 9,
        "note": 36,
        "velocity": 0
      },
      {
        "type": "midi",
        "subType": "noteOff",
        "typeByte": 153,
        "deltaTime": 4,
        "channel": 9,
        "note": 42,
        "velocity": 0
      },
      {
        "type": "midi",
        "subType": "noteOn",
        "typeByte": 153,
        "deltaTime": 22,
        "channel": 9,
        "note": 42,
        "velocity": 127
      },
      {
        "type": "midi",
        "subType": "noteOff",
        "typeByte": 153,
        "deltaTime": 23,
        "channel": 9,
        "note": 42,
        "velocity": 0
      },
      {
        "type": "midi",
        "subType": "noteOn",
        "typeByte": 153,
        "deltaTime": 24,
        "channel": 9,
        "note": 36,
        "velocity": 127
      },
      {
        "type": "midi",
        "subType": "noteOn",
        "typeByte": 153,
        "deltaTime": 0,
        "channel": 9,
        "note": 38,
        "velocity": 127
      },
      {
        "type": "midi",
        "subType": "noteOn",
        "typeByte": 153,
        "deltaTime": 0,
        "channel": 9,
        "note": 42,
        "velocity": 127
      },
      {
        "type": "midi",
        "subType": "noteOff",
        "typeByte": 153,
        "deltaTime": 22,
        "channel": 9,
        "note": 42,
        "velocity": 0
      },
      {
        "type": "midi",
        "subType": "noteOff",
        "typeByte": 153,
        "deltaTime": 1,
        "channel": 9,
        "note": 38,
        "velocity": 0
      },
      {
        "type": "midi",
        "subType": "noteOff",
        "typeByte": 153,
        "deltaTime": 0,
        "channel": 9,
        "note": 36,
        "velocity": 0
      },
      {
        "type": "midi",
        "subType": "noteOn",
        "typeByte": 153,
        "deltaTime": 26,
        "channel": 9,
        "note": 42,
        "velocity": 127
      },
      {
        "type": "midi",
        "subType": "noteOff",
        "typeByte": 153,
        "deltaTime": 19,
        "channel": 9,
        "note": 42,
        "velocity": 0
      },
      {
        "type": "midi",
        "subType": "noteOn",
        "typeByte": 153,
        "deltaTime": 28,
        "channel": 9,
        "note": 36,
        "velocity": 127
      },
      {
        "type": "midi",
        "subType": "noteOn",
        "typeByte": 153,
        "deltaTime": 0,
        "channel": 9,
        "note": 42,
        "velocity": 127
      },
      {
        "type": "midi",
        "subType": "noteOff",
        "typeByte": 153,
        "deltaTime": 19,
        "channel": 9,
        "note": 42,
        "velocity": 0
      },
      {
        "type": "midi",
        "subType": "noteOff",
        "typeByte": 153,
        "deltaTime": 4,
        "channel": 9,
        "note": 36,
        "velocity": 0
      },
      {
        "type": "midi",
        "subType": "noteOn",
        "typeByte": 153,
        "deltaTime": 26,
        "channel": 9,
        "note": 42,
        "velocity": 127
      },
      {
        "type": "midi",
        "subType": "noteOff",
        "typeByte": 153,
        "deltaTime": 22,
        "channel": 9,
        "note": 42,
        "velocity": 0
      },
      {
        "type": "midi",
        "subType": "noteOn",
        "typeByte": 153,
        "deltaTime": 25,
        "channel": 9,
        "note": 38,
        "velocity": 127
      },
      {
        "type": "midi",
        "subType": "noteOn",
        "typeByte": 153,
        "deltaTime": 0,
        "channel": 9,
        "note": 36,
        "velocity": 127
      },
      {
        "type": "midi",
        "subType": "noteOn",
        "typeByte": 153,
        "deltaTime": 1,
        "channel": 9,
        "note": 42,
        "velocity": 127
      },
      {
        "type": "midi",
        "subType": "noteOff",
        "typeByte": 153,
        "deltaTime": 23,
        "channel": 9,
        "note": 36,
        "velocity": 0
      },
      {
        "type": "midi",
        "subType": "noteOff",
        "typeByte": 153,
        "deltaTime": 0,
        "channel": 9,
        "note": 38,
        "velocity": 0
      },
      {
        "type": "midi",
        "subType": "noteOff",
        "typeByte": 153,
        "deltaTime": 2,
        "channel": 9,
        "note": 42,
        "velocity": 0
      },
      {
        "type": "midi",
        "subType": "noteOn",
        "typeByte": 153,
        "deltaTime": 23,
        "channel": 9,
        "note": 42,
        "velocity": 127
      },
      {
        "type": "midi",
        "subType": "noteOff",
        "typeByte": 153,
        "deltaTime": 23,
        "channel": 9,
        "note": 42,
        "velocity": 0
      },
      {
        "type": "midi",
        "subType": "noteOn",
        "typeByte": 153,
        "deltaTime": 25,
        "channel": 9,
        "note": 36,
        "velocity": 127
      },
      {
        "type": "midi",
        "subType": "noteOn",
        "typeByte": 153,
        "deltaTime": 0,
        "channel": 9,
        "note": 42,
        "velocity": 127
      },
      {
        "type": "midi",
        "subType": "noteOff",
        "typeByte": 153,
        "deltaTime": 22,
        "channel": 9,
        "note": 42,
        "velocity": 0
      },
      {
        "type": "midi",
        "subType": "noteOff",
        "typeByte": 153,
        "deltaTime": 1,
        "channel": 9,
        "note": 36,
        "velocity": 0
      },
      {
        "type": "midi",
        "subType": "noteOn",
        "typeByte": 153,
        "deltaTime": 26,
        "channel": 9,
        "note": 42,
        "velocity": 127
      },
      {
        "type": "midi",
        "subType": "noteOff",
        "typeByte": 153,
        "deltaTime": 19,
        "channel": 9,
        "note": 42,
        "velocity": 0
      },
      {
        "type": "midi",
        "subType": "noteOn",
        "typeByte": 153,
        "deltaTime": 28,
        "channel": 9,
        "note": 36,
        "velocity": 127
      },
      {
        "type": "midi",
        "subType": "noteOn",
        "typeByte": 153,
        "deltaTime": 0,
        "channel": 9,
        "note": 38,
        "velocity": 127
      },
      {
        "type": "midi",
        "subType": "noteOn",
        "typeByte": 153,
        "deltaTime": 0,
        "channel": 9,
        "note": 42,
        "velocity": 127
      },
      {
        "type": "midi",
        "subType": "noteOff",
        "typeByte": 153,
        "deltaTime": 19,
        "channel": 9,
        "note": 42,
        "velocity": 0
      },
      {
        "type": "midi",
        "subType": "noteOff",
        "typeByte": 153,
        "deltaTime": 4,
        "channel": 9,
        "note": 38,
        "velocity": 0
      },
      {
        "type": "midi",
        "subType": "noteOff",
        "typeByte": 153,
        "deltaTime": 0,
        "channel": 9,
        "note": 36,
        "velocity": 0
      },
      {
        "type": "midi",
        "subType": "noteOn",
        "typeByte": 153,
        "deltaTime": 26,
        "channel": 9,
        "note": 42,
        "velocity": 127
      },
      {
        "type": "midi",
        "subType": "noteOff",
        "typeByte": 153,
        "deltaTime": 19,
        "channel": 9,
        "note": 42,
        "velocity": 0
      },
      {
        "type": "midi",
        "subType": "noteOn",
        "typeByte": 153,
        "deltaTime": 28,
        "channel": 9,
        "note": 36,
        "velocity": 127
      },
      {
        "type": "midi",
        "subType": "noteOn",
        "typeByte": 153,
        "deltaTime": 1,
        "channel": 9,
        "note": 42,
        "velocity": 127
      },
      {
        "type": "midi",
        "subType": "noteOff",
        "typeByte": 153,
        "deltaTime": 18,
        "channel": 9,
        "note": 42,
        "velocity": 0
      },
      {
        "type": "midi",
        "subType": "noteOff",
        "typeByte": 153,
        "deltaTime": 4,
        "channel": 9,
        "note": 36,
        "velocity": 0
      },
      {
        "type": "midi",
        "subType": "noteOn",
        "typeByte": 153,
        "deltaTime": 26,
        "channel": 9,
        "note": 42,
        "velocity": 127
      },
      {
        "type": "midi",
        "subType": "noteOff",
        "typeByte": 153,
        "deltaTime": 21,
        "channel": 9,
        "note": 42,
        "velocity": 0
      },
      {
        "type": "midi",
        "subType": "noteOn",
        "typeByte": 153,
        "deltaTime": 27,
        "channel": 9,
        "note": 38,
        "velocity": 127
      },
      {
        "type": "midi",
        "subType": "noteOn",
        "typeByte": 153,
        "deltaTime": 0,
        "channel": 9,
        "note": 36,
        "velocity": 127
      },
      {
        "type": "midi",
        "subType": "noteOn",
        "typeByte": 153,
        "deltaTime": 0,
        "channel": 9,
        "note": 42,
        "velocity": 127
      },
      {
        "type": "midi",
        "subType": "noteOff",
        "typeByte": 153,
        "deltaTime": 23,
        "channel": 9,
        "note": 36,
        "velocity": 0
      },
      {
        "type": "midi",
        "subType": "noteOff",
        "typeByte": 153,
        "deltaTime": 0,
        "channel": 9,
        "note": 38,
        "velocity": 0
      },
      {
        "type": "midi",
        "subType": "noteOff",
        "typeByte": 153,
        "deltaTime": 2,
        "channel": 9,
        "note": 42,
        "velocity": 0
      },
      {
        "type": "midi",
        "subType": "noteOn",
        "typeByte": 153,
        "deltaTime": 24,
        "channel": 9,
        "note": 42,
        "velocity": 127
      },
      {
        "type": "midi",
        "subType": "noteOff",
        "typeByte": 153,
        "deltaTime": 27,
        "channel": 9,
        "note": 42,
        "velocity": 0
      },
      {
        "type": "midi",
        "subType": "noteOn",
        "typeByte": 153,
        "deltaTime": 20,
        "channel": 9,
        "note": 36,
        "velocity": 127
      },
      {
        "type": "midi",
        "subType": "noteOn",
        "typeByte": 153,
        "deltaTime": 0,
        "channel": 9,
        "note": 42,
        "velocity": 127
      },
      {
        "type": "midi",
        "subType": "noteOff",
        "typeByte": 153,
        "deltaTime": 23,
        "channel": 9,
        "note": 36,
        "velocity": 0
      },
      {
        "type": "midi",
        "subType": "noteOff",
        "typeByte": 153,
        "deltaTime": 12,
        "channel": 9,
        "note": 42,
        "velocity": 0
      },
      {
        "type": "midi",
        "subType": "noteOn",
        "typeByte": 153,
        "deltaTime": 14,
        "channel": 9,
        "note": 42,
        "velocity": 127
      },
      {
        "type": "midi",
        "subType": "noteOff",
        "typeByte": 153,
        "deltaTime": 23,
        "channel": 9,
        "note": 42,
        "velocity": 0
      },
      {
        "type": "midi",
        "subType": "noteOn",
        "typeByte": 153,
        "deltaTime": 24,
        "channel": 9,
        "note": 38,
        "velocity": 127
      },
      {
        "type": "midi",
        "subType": "noteOn",
        "typeByte": 153,
        "deltaTime": 0,
        "channel": 9,
        "note": 36,
        "velocity": 127
      },
      {
        "type": "midi",
        "subType": "noteOn",
        "typeByte": 153,
        "deltaTime": 1,
        "channel": 9,
        "note": 42,
        "velocity": 127
      },
      {
        "type": "midi",
        "subType": "noteOff",
        "typeByte": 153,
        "deltaTime": 18,
        "channel": 9,
        "note": 42,
        "velocity": 0
      },
      {
        "type": "midi",
        "subType": "noteOff",
        "typeByte": 153,
        "deltaTime": 4,
        "channel": 9,
        "note": 36,
        "velocity": 0
      },
      {
        "type": "midi",
        "subType": "noteOff",
        "typeByte": 153,
        "deltaTime": 0,
        "channel": 9,
        "note": 38,
        "velocity": 0
      },
      {
        "type": "midi",
        "subType": "noteOn",
        "typeByte": 153,
        "deltaTime": 26,
        "channel": 9,
        "note": 42,
        "velocity": 127
      },
      {
        "type": "midi",
        "subType": "noteOff",
        "typeByte": 153,
        "deltaTime": 19,
        "channel": 9,
        "note": 42,
        "velocity": 0
      },
      {
        "type": "midi",
        "subType": "noteOn",
        "typeByte": 153,
        "deltaTime": 29,
        "channel": 9,
        "note": 36,
        "velocity": 127
      },
      {
        "type": "midi",
        "subType": "noteOn",
        "typeByte": 153,
        "deltaTime": 0,
        "channel": 9,
        "note": 42,
        "velocity": 127
      },
      {
        "type": "midi",
        "subType": "noteOff",
        "typeByte": 153,
        "deltaTime": 21,
        "channel": 9,
        "note": 42,
        "velocity": 0
      },
      {
        "type": "midi",
        "subType": "noteOff",
        "typeByte": 153,
        "deltaTime": 1,
        "channel": 9,
        "note": 36,
        "velocity": 0
      },
      {
        "type": "midi",
        "subType": "noteOn",
        "typeByte": 153,
        "deltaTime": 26,
        "channel": 9,
        "note": 42,
        "velocity": 127
      },
      {
        "type": "midi",
        "subType": "noteOff",
        "typeByte": 153,
        "deltaTime": 19,
        "channel": 9,
        "note": 42,
        "velocity": 0
      },
      {
        "type": "midi",
        "subType": "noteOn",
        "typeByte": 153,
        "deltaTime": 29,
        "channel": 9,
        "note": 36,
        "velocity": 127
      },
      {
        "type": "midi",
        "subType": "noteOn",
        "typeByte": 153,
        "deltaTime": 0,
        "channel": 9,
        "note": 38,
        "velocity": 127
      },
      {
        "type": "midi",
        "subType": "noteOn",
        "typeByte": 153,
        "deltaTime": 0,
        "channel": 9,
        "note": 42,
        "velocity": 127
      },
      {
        "type": "midi",
        "subType": "noteOff",
        "typeByte": 153,
        "deltaTime": 23,
        "channel": 9,
        "note": 42,
        "velocity": 0
      },
      {
        "type": "midi",
        "subType": "noteOff",
        "typeByte": 153,
        "deltaTime": 0,
        "channel": 9,
        "note": 38,
        "velocity": 0
      },
      {
        "type": "midi",
        "subType": "noteOff",
        "typeByte": 153,
        "deltaTime": 0,
        "channel": 9,
        "note": 36,
        "velocity": 0
      },
      {
        "type": "midi",
        "subType": "noteOn",
        "typeByte": 153,
        "deltaTime": 26,
        "channel": 9,
        "note": 42,
        "velocity": 127
      },
      {
        "type": "midi",
        "subType": "noteOff",
        "typeByte": 153,
        "deltaTime": 23,
        "channel": 9,
        "note": 42,
        "velocity": 0
      },
      {
        "type": "midi",
        "subType": "noteOn",
        "typeByte": 153,
        "deltaTime": 24,
        "channel": 9,
        "note": 36,
        "velocity": 127
      },
      {
        "type": "midi",
        "subType": "noteOn",
        "typeByte": 153,
        "deltaTime": 0,
        "channel": 9,
        "note": 42,
        "velocity": 127
      },
      {
        "type": "midi",
        "subType": "noteOff",
        "typeByte": 153,
        "deltaTime": 23,
        "channel": 9,
        "note": 36,
        "velocity": 0
      },
      {
        "type": "midi",
        "subType": "noteOff",
        "typeByte": 153,
        "deltaTime": 7,
        "channel": 9,
        "note": 42,
        "velocity": 0
      },
      {
        "type": "midi",
        "subType": "noteOn",
        "typeByte": 153,
        "deltaTime": 19,
        "channel": 9,
        "note": 42,
        "velocity": 127
      },
      {
        "type": "midi",
        "subType": "noteOff",
        "typeByte": 153,
        "deltaTime": 23,
        "channel": 9,
        "note": 42,
        "velocity": 0
      },
      {
        "type": "midi",
        "subType": "noteOn",
        "typeByte": 153,
        "deltaTime": 24,
        "channel": 9,
        "note": 36,
        "velocity": 127
      },
      {
        "type": "midi",
        "subType": "noteOn",
        "typeByte": 153,
        "deltaTime": 0,
        "channel": 9,
        "note": 38,
        "velocity": 127
      },
      {
        "type": "midi",
        "subType": "noteOn",
        "typeByte": 153,
        "deltaTime": 1,
        "channel": 9,
        "note": 42,
        "velocity": 127
      },
      {
        "type": "midi",
        "subType": "noteOff",
        "typeByte": 153,
        "deltaTime": 21,
        "channel": 9,
        "note": 42,
        "velocity": 0
      },
      {
        "type": "midi",
        "subType": "noteOff",
        "typeByte": 153,
        "deltaTime": 1,
        "channel": 9,
        "note": 36,
        "velocity": 0
      },
      {
        "type": "midi",
        "subType": "noteOff",
        "typeByte": 153,
        "deltaTime": 1,
        "channel": 9,
        "note": 38,
        "velocity": 0
      },
      {
        "type": "midi",
        "subType": "noteOn",
        "typeByte": 153,
        "deltaTime": 25,
        "channel": 9,
        "note": 42,
        "velocity": 127
      },
      {
        "type": "midi",
        "subType": "noteOff",
        "typeByte": 153,
        "deltaTime": 23,
        "channel": 9,
        "note": 42,
        "velocity": 0
      },
      {
        "type": "midi",
        "subType": "noteOn",
        "typeByte": 153,
        "deltaTime": 25,
        "channel": 9,
        "note": 36,
        "velocity": 127
      },
      {
        "type": "midi",
        "subType": "noteOn",
        "typeByte": 153,
        "deltaTime": 0,
        "channel": 9,
        "note": 42,
        "velocity": 127
      },
      {
        "type": "midi",
        "subType": "noteOff",
        "typeByte": 153,
        "deltaTime": 23,
        "channel": 9,
        "note": 42,
        "velocity": 0
      },
      {
        "type": "midi",
        "subType": "noteOff",
        "typeByte": 153,
        "deltaTime": 0,
        "channel": 9,
        "note": 36,
        "velocity": 0
      },
      {
        "type": "midi",
        "subType": "noteOn",
        "typeByte": 153,
        "deltaTime": 26,
        "channel": 9,
        "note": 42,
        "velocity": 127
      },
      {
        "type": "midi",
        "subType": "noteOff",
        "typeByte": 153,
        "deltaTime": 23,
        "channel": 9,
        "note": 42,
        "velocity": 0
      },
      {
        "type": "midi",
        "subType": "noteOn",
        "typeByte": 153,
        "deltaTime": 24,
        "channel": 9,
        "note": 38,
        "velocity": 127
      },
      {
        "type": "midi",
        "subType": "noteOn",
        "typeByte": 153,
        "deltaTime": 0,
        "channel": 9,
        "note": 36,
        "velocity": 127
      },
      {
        "type": "midi",
        "subType": "noteOn",
        "typeByte": 153,
        "deltaTime": 0,
        "channel": 9,
        "note": 42,
        "velocity": 127
      },
      {
        "type": "midi",
        "subType": "noteOff",
        "typeByte": 153,
        "deltaTime": 22,
        "channel": 9,
        "note": 42,
        "velocity": 0
      },
      {
        "type": "midi",
        "subType": "noteOff",
        "typeByte": 153,
        "deltaTime": 1,
        "channel": 9,
        "note": 36,
        "velocity": 0
      },
      {
        "type": "midi",
        "subType": "noteOff",
        "typeByte": 153,
        "deltaTime": 0,
        "channel": 9,
        "note": 38,
        "velocity": 0
      },
      {
        "type": "midi",
        "subType": "noteOn",
        "typeByte": 153,
        "deltaTime": 26,
        "channel": 9,
        "note": 42,
        "velocity": 127
      },
      {
        "type": "midi",
        "subType": "noteOff",
        "typeByte": 153,
        "deltaTime": 22,
        "channel": 9,
        "note": 42,
        "velocity": 0
      },
      {
        "type": "midi",
        "subType": "noteOn",
        "typeByte": 153,
        "deltaTime": 25,
        "channel": 9,
        "note": 36,
        "velocity": 127
      },
      {
        "type": "midi",
        "subType": "noteOff",
        "typeByte": 153,
        "deltaTime": 23,
        "channel": 9,
        "note": 36,
        "velocity": 0
      },
      {
        "type": "midi",
        "subType": "noteOn",
        "typeByte": 153,
        "deltaTime": 26,
        "channel": 9,
        "note": 36,
        "velocity": 127
      },
      {
        "type": "midi",
        "subType": "noteOff",
        "typeByte": 153,
        "deltaTime": 23,
        "channel": 9,
        "note": 36,
        "velocity": 0
      },
      {
        "type": "midi",
        "subType": "noteOn",
        "typeByte": 153,
        "deltaTime": 25,
        "channel": 9,
        "note": 36,
        "velocity": 127
      },
      {
        "type": "midi",
        "subType": "noteOff",
        "typeByte": 153,
        "deltaTime": 23,
        "channel": 9,
        "note": 36,
        "velocity": 0
      },
      {
        "type": "midi",
        "subType": "noteOn",
        "typeByte": 153,
        "deltaTime": 73,
        "channel": 9,
        "note": 38,
        "velocity": 127
      },
      {
        "type": "midi",
        "subType": "noteOff",
        "typeByte": 153,
        "deltaTime": 23,
        "channel": 9,
        "note": 38,
        "velocity": 0
      },
      {
        "type": "midi",
        "subType": "noteOn",
        "typeByte": 153,
        "deltaTime": 122,
        "channel": 9,
        "note": 36,
        "velocity": 127
      },
      {
        "type": "midi",
        "subType": "noteOff",
        "typeByte": 153,
        "deltaTime": 23,
        "channel": 9,
        "note": 36,
        "velocity": 0
      },
      {
        "type": "midi",
        "subType": "noteOn",
        "typeByte": 153,
        "deltaTime": 25,
        "channel": 9,
        "note": 36,
        "velocity": 127
      },
      {
        "type": "midi",
        "subType": "noteOff",
        "typeByte": 153,
        "deltaTime": 23,
        "channel": 9,
        "note": 36,
        "velocity": 0
      },
      {
        "type": "midi",
        "subType": "noteOn",
        "typeByte": 153,
        "deltaTime": 25,
        "channel": 9,
        "note": 36,
        "velocity": 127
      },
      {
        "type": "midi",
        "subType": "noteOff",
        "typeByte": 153,
        "deltaTime": 23,
        "channel": 9,
        "note": 36,
        "velocity": 0
      },
      {
        "type": "midi",
        "subType": "noteOn",
        "typeByte": 153,
        "deltaTime": 25,
        "channel": 9,
        "note": 36,
        "velocity": 127
      },
      {
        "type": "midi",
        "subType": "noteOff",
        "typeByte": 153,
        "deltaTime": 23,
        "channel": 9,
        "note": 36,
        "velocity": 0
      },
      {
        "type": "midi",
        "subType": "noteOn",
        "typeByte": 153,
        "deltaTime": 73,
        "channel": 9,
        "note": 38,
        "velocity": 127
      },
      {
        "type": "midi",
        "subType": "noteOff",
        "typeByte": 153,
        "deltaTime": 23,
        "channel": 9,
        "note": 38,
        "velocity": 0
      },
      {
        "type": "midi",
        "subType": "noteOn",
        "typeByte": 153,
        "deltaTime": 122,
        "channel": 9,
        "note": 36,
        "velocity": 127
      },
      {
        "type": "midi",
        "subType": "noteOff",
        "typeByte": 153,
        "deltaTime": 23,
        "channel": 9,
        "note": 36,
        "velocity": 0
      },
      {
        "type": "midi",
        "subType": "noteOn",
        "typeByte": 153,
        "deltaTime": 25,
        "channel": 9,
        "note": 36,
        "velocity": 127
      },
      {
        "type": "midi",
        "subType": "noteOff",
        "typeByte": 153,
        "deltaTime": 23,
        "channel": 9,
        "note": 36,
        "velocity": 0
      },
      {
        "type": "midi",
        "subType": "noteOn",
        "typeByte": 153,
        "deltaTime": 26,
        "channel": 9,
        "note": 36,
        "velocity": 127
      },
      {
        "type": "midi",
        "subType": "noteOff",
        "typeByte": 153,
        "deltaTime": 23,
        "channel": 9,
        "note": 36,
        "velocity": 0
      },
      {
        "type": "midi",
        "subType": "noteOn",
        "typeByte": 153,
        "deltaTime": 24,
        "channel": 9,
        "note": 36,
        "velocity": 127
      },
      {
        "type": "midi",
        "subType": "noteOff",
        "typeByte": 153,
        "deltaTime": 23,
        "channel": 9,
        "note": 36,
        "velocity": 0
      },
      {
        "type": "midi",
        "subType": "noteOn",
        "typeByte": 153,
        "deltaTime": 73,
        "channel": 9,
        "note": 38,
        "velocity": 127
      },
      {
        "type": "midi",
        "subType": "noteOff",
        "typeByte": 153,
        "deltaTime": 23,
        "channel": 9,
        "note": 38,
        "velocity": 0
      },
      {
        "type": "midi",
        "subType": "noteOn",
        "typeByte": 153,
        "deltaTime": 74,
        "channel": 9,
        "note": 36,
        "velocity": 127
      },
      {
        "type": "midi",
        "subType": "noteOff",
        "typeByte": 153,
        "deltaTime": 23,
        "channel": 9,
        "note": 36,
        "velocity": 0
      },
      {
        "type": "midi",
        "subType": "noteOn",
        "typeByte": 153,
        "deltaTime": 25,
        "channel": 9,
        "note": 38,
        "velocity": 127
      },
      {
        "type": "midi",
        "subType": "noteOff",
        "typeByte": 153,
        "deltaTime": 23,
        "channel": 9,
        "note": 38,
        "velocity": 0
      },
      {
        "type": "midi",
        "subType": "noteOn",
        "typeByte": 153,
        "deltaTime": 25,
        "channel": 9,
        "note": 36,
        "velocity": 127
      },
      {
        "type": "midi",
        "subType": "noteOff",
        "typeByte": 153,
        "deltaTime": 23,
        "channel": 9,
        "note": 36,
        "velocity": 0
      },
      {
        "type": "midi",
        "subType": "noteOn",
        "typeByte": 153,
        "deltaTime": 26,
        "channel": 9,
        "note": 38,
        "velocity": 127
      },
      {
        "type": "midi",
        "subType": "noteOff",
        "typeByte": 153,
        "deltaTime": 23,
        "channel": 9,
        "note": 38,
        "velocity": 0
      },
      {
        "type": "midi",
        "subType": "noteOn",
        "typeByte": 153,
        "deltaTime": 24,
        "channel": 9,
        "note": 36,
        "velocity": 127
      },
      {
        "type": "midi",
        "subType": "noteOff",
        "typeByte": 153,
        "deltaTime": 23,
        "channel": 9,
        "note": 36,
        "velocity": 0
      },
      {
        "type": "midi",
        "subType": "noteOn",
        "typeByte": 153,
        "deltaTime": 26,
        "channel": 9,
        "note": 38,
        "velocity": 127
      },
      {
        "type": "midi",
        "subType": "noteOff",
        "typeByte": 153,
        "deltaTime": 23,
        "channel": 9,
        "note": 38,
        "velocity": 0
      },
      {
        "type": "midi",
        "subType": "noteOn",
        "typeByte": 153,
        "deltaTime": 24,
        "channel": 9,
        "note": 36,
        "velocity": 127
      },
      {
        "type": "midi",
        "subType": "noteOn",
        "typeByte": 153,
        "deltaTime": 1,
        "channel": 9,
        "note": 38,
        "velocity": 127
      },
      {
        "type": "midi",
        "subType": "noteOff",
        "typeByte": 153,
        "deltaTime": 22,
        "channel": 9,
        "note": 38,
        "velocity": 0
      },
      {
        "type": "midi",
        "subType": "noteOff",
        "typeByte": 153,
        "deltaTime": 0,
        "channel": 9,
        "note": 36,
        "velocity": 0
      },
      {
        "type": "midi",
        "subType": "noteOn",
        "typeByte": 153,
        "deltaTime": 26,
        "channel": 9,
        "note": 38,
        "velocity": 127
      },
      {
        "type": "midi",
        "subType": "noteOff",
        "typeByte": 153,
        "deltaTime": 23,
        "channel": 9,
        "note": 38,
        "velocity": 0
      },
      {
        "type": "midi",
        "subType": "noteOn",
        "typeByte": 153,
        "deltaTime": 25,
        "channel": 9,
        "note": 38,
        "velocity": 127
      },
      {
        "type": "midi",
        "subType": "noteOn",
        "typeByte": 153,
        "deltaTime": 0,
        "channel": 9,
        "note": 36,
        "velocity": 127
      },
      {
        "type": "midi",
        "subType": "noteOff",
        "typeByte": 153,
        "deltaTime": 23,
        "channel": 9,
        "note": 36,
        "velocity": 0
      },
      {
        "type": "midi",
        "subType": "noteOff",
        "typeByte": 153,
        "deltaTime": 0,
        "channel": 9,
        "note": 38,
        "velocity": 0
      },
      {
        "type": "midi",
        "subType": "noteOn",
        "typeByte": 153,
        "deltaTime": 26,
        "channel": 9,
        "note": 38,
        "velocity": 127
      },
      {
        "type": "midi",
        "subType": "noteOn",
        "typeByte": 153,
        "deltaTime": 0,
        "channel": 9,
        "note": 36,
        "velocity": 127
      },
      {
        "type": "midi",
        "subType": "noteOff",
        "typeByte": 153,
        "deltaTime": 23,
        "channel": 9,
        "note": 36,
        "velocity": 0
      },
      {
        "type": "midi",
        "subType": "noteOff",
        "typeByte": 153,
        "deltaTime": 0,
        "channel": 9,
        "note": 38,
        "velocity": 0
      },
      {
        "type": "midi",
        "subType": "noteOn",
        "typeByte": 153,
        "deltaTime": 24,
        "channel": 9,
        "note": 36,
        "velocity": 127
      },
      {
        "type": "midi",
        "subType": "noteOn",
        "typeByte": 153,
        "deltaTime": 0,
        "channel": 9,
        "note": 61,
        "velocity": 127
      },
      {
        "type": "midi",
        "subType": "noteOn",
        "typeByte": 153,
        "deltaTime": 0,
        "channel": 9,
        "note": 42,
        "velocity": 127
      },
      {
        "type": "midi",
        "subType": "noteOff",
        "typeByte": 153,
        "deltaTime": 23,
        "channel": 9,
        "note": 61,
        "velocity": 0
      },
      {
        "type": "midi",
        "subType": "noteOff",
        "typeByte": 153,
        "deltaTime": 0,
        "channel": 9,
        "note": 36,
        "velocity": 0
      },
      {
        "type": "midi",
        "subType": "noteOff",
        "typeByte": 153,
        "deltaTime": 3,
        "channel": 9,
        "note": 42,
        "velocity": 0
      },
      {
        "type": "midi",
        "subType": "noteOn",
        "typeByte": 153,
        "deltaTime": 23,
        "channel": 9,
        "note": 61,
        "velocity": 127
      },
      {
        "type": "midi",
        "subType": "noteOn",
        "typeByte": 153,
        "deltaTime": 0,
        "channel": 9,
        "note": 42,
        "velocity": 127
      },
      {
        "type": "midi",
        "subType": "noteOff",
        "typeByte": 153,
        "deltaTime": 20,
        "channel": 9,
        "note": 42,
        "velocity": 0
      },
      {
        "type": "midi",
        "subType": "noteOff",
        "typeByte": 153,
        "deltaTime": 3,
        "channel": 9,
        "note": 61,
        "velocity": 0
      },
      {
        "type": "midi",
        "subType": "noteOn",
        "typeByte": 153,
        "deltaTime": 24,
        "channel": 9,
        "note": 38,
        "velocity": 127
      },
      {
        "type": "midi",
        "subType": "noteOn",
        "typeByte": 153,
        "deltaTime": 1,
        "channel": 9,
        "note": 61,
        "velocity": 127
      },
      {
        "type": "midi",
        "subType": "noteOn",
        "typeByte": 153,
        "deltaTime": 0,
        "channel": 9,
        "note": 42,
        "velocity": 127
      },
      {
        "type": "midi",
        "subType": "noteOff",
        "typeByte": 153,
        "deltaTime": 21,
        "channel": 9,
        "note": 42,
        "velocity": 0
      },
      {
        "type": "midi",
        "subType": "noteOff",
        "typeByte": 153,
        "deltaTime": 1,
        "channel": 9,
        "note": 61,
        "velocity": 0
      },
      {
        "type": "midi",
        "subType": "noteOff",
        "typeByte": 153,
        "deltaTime": 0,
        "channel": 9,
        "note": 38,
        "velocity": 0
      },
      {
        "type": "midi",
        "subType": "noteOn",
        "typeByte": 153,
        "deltaTime": 26,
        "channel": 9,
        "note": 61,
        "velocity": 127
      },
      {
        "type": "midi",
        "subType": "noteOn",
        "typeByte": 153,
        "deltaTime": 0,
        "channel": 9,
        "note": 42,
        "velocity": 127
      },
      {
        "type": "midi",
        "subType": "noteOff",
        "typeByte": 153,
        "deltaTime": 23,
        "channel": 9,
        "note": 42,
        "velocity": 0
      },
      {
        "type": "midi",
        "subType": "noteOff",
        "typeByte": 153,
        "deltaTime": 0,
        "channel": 9,
        "note": 61,
        "velocity": 0
      },
      {
        "type": "midi",
        "subType": "noteOn",
        "typeByte": 153,
        "deltaTime": 25,
        "channel": 9,
        "note": 36,
        "velocity": 127
      },
      {
        "type": "midi",
        "subType": "noteOn",
        "typeByte": 153,
        "deltaTime": 0,
        "channel": 9,
        "note": 61,
        "velocity": 127
      },
      {
        "type": "midi",
        "subType": "noteOn",
        "typeByte": 153,
        "deltaTime": 0,
        "channel": 9,
        "note": 40,
        "velocity": 127
      },
      {
        "type": "midi",
        "subType": "noteOn",
        "typeByte": 153,
        "deltaTime": 0,
        "channel": 9,
        "note": 51,
        "velocity": 127
      },
      {
        "type": "midi",
        "subType": "noteOn",
        "typeByte": 153,
        "deltaTime": 1,
        "channel": 9,
        "note": 42,
        "velocity": 127
      },
      {
        "type": "midi",
        "subType": "noteOff",
        "typeByte": 153,
        "deltaTime": 22,
        "channel": 9,
        "note": 42,
        "velocity": 0
      },
      {
        "type": "midi",
        "subType": "noteOff",
        "typeByte": 153,
        "deltaTime": 0,
        "channel": 9,
        "note": 36,
        "velocity": 0
      },
      {
        "type": "midi",
        "subType": "noteOff",
        "typeByte": 153,
        "deltaTime": 0,
        "channel": 9,
        "note": 61,
        "velocity": 0
      },
      {
        "type": "midi",
        "subType": "noteOn",
        "typeByte": 153,
        "deltaTime": 25,
        "channel": 9,
        "note": 36,
        "velocity": 127
      },
      {
        "type": "midi",
        "subType": "noteOn",
        "typeByte": 153,
        "deltaTime": 1,
        "channel": 9,
        "note": 61,
        "velocity": 127
      },
      {
        "type": "midi",
        "subType": "noteOn",
        "typeByte": 153,
        "deltaTime": 0,
        "channel": 9,
        "note": 42,
        "velocity": 127
      },
      {
        "type": "midi",
        "subType": "noteOff",
        "typeByte": 153,
        "deltaTime": 22,
        "channel": 9,
        "note": 61,
        "velocity": 0
      },
      {
        "type": "midi",
        "subType": "noteOff",
        "typeByte": 153,
        "deltaTime": 0,
        "channel": 9,
        "note": 36,
        "velocity": 0
      },
      {
        "type": "midi",
        "subType": "noteOff",
        "typeByte": 153,
        "deltaTime": 2,
        "channel": 9,
        "note": 42,
        "velocity": 0
      },
      {
        "type": "midi",
        "subType": "noteOff",
        "typeByte": 153,
        "deltaTime": 23,
        "channel": 9,
        "note": 40,
        "velocity": 0
      },
      {
        "type": "midi",
        "subType": "noteOn",
        "typeByte": 153,
        "deltaTime": 0,
        "channel": 9,
        "note": 38,
        "velocity": 127
      },
      {
        "type": "midi",
        "subType": "noteOn",
        "typeByte": 153,
        "deltaTime": 0,
        "channel": 9,
        "note": 61,
        "velocity": 127
      },
      {
        "type": "midi",
        "subType": "noteOn",
        "typeByte": 153,
        "deltaTime": 1,
        "channel": 9,
        "note": 42,
        "velocity": 127
      },
      {
        "type": "midi",
        "subType": "noteOff",
        "typeByte": 153,
        "deltaTime": 4,
        "channel": 9,
        "note": 51,
        "velocity": 0
      },
      {
        "type": "midi",
        "subType": "noteOff",
        "typeByte": 153,
        "deltaTime": 18,
        "channel": 9,
        "note": 38,
        "velocity": 0
      },
      {
        "type": "midi",
        "subType": "noteOff",
        "typeByte": 153,
        "deltaTime": 0,
        "channel": 9,
        "note": 61,
        "velocity": 0
      },
      {
        "type": "midi",
        "subType": "noteOff",
        "typeByte": 153,
        "deltaTime": 3,
        "channel": 9,
        "note": 42,
        "velocity": 0
      },
      {
        "type": "midi",
        "subType": "noteOn",
        "typeByte": 153,
        "deltaTime": 23,
        "channel": 9,
        "note": 61,
        "velocity": 127
      },
      {
        "type": "midi",
        "subType": "noteOn",
        "typeByte": 153,
        "deltaTime": 0,
        "channel": 9,
        "note": 42,
        "velocity": 127
      },
      {
        "type": "midi",
        "subType": "noteOff",
        "typeByte": 153,
        "deltaTime": 23,
        "channel": 9,
        "note": 61,
        "velocity": 0
      },
      {
        "type": "midi",
        "subType": "noteOff",
        "typeByte": 153,
        "deltaTime": 1,
        "channel": 9,
        "note": 42,
        "velocity": 0
      },
      {
        "type": "midi",
        "subType": "noteOn",
        "typeByte": 153,
        "deltaTime": 23,
        "channel": 9,
        "note": 36,
        "velocity": 127
      },
      {
        "type": "midi",
        "subType": "noteOn",
        "typeByte": 153,
        "deltaTime": 0,
        "channel": 9,
        "note": 61,
        "velocity": 127
      },
      {
        "type": "midi",
        "subType": "noteOn",
        "typeByte": 153,
        "deltaTime": 1,
        "channel": 9,
        "note": 42,
        "velocity": 127
      },
      {
        "type": "midi",
        "subType": "noteOff",
        "typeByte": 153,
        "deltaTime": 22,
        "channel": 9,
        "note": 61,
        "velocity": 0
      },
      {
        "type": "midi",
        "subType": "noteOff",
        "typeByte": 153,
        "deltaTime": 0,
        "channel": 9,
        "note": 36,
        "velocity": 0
      },
      {
        "type": "midi",
        "subType": "noteOff",
        "typeByte": 153,
        "deltaTime": 6,
        "channel": 9,
        "note": 42,
        "velocity": 0
      },
      {
        "type": "midi",
        "subType": "noteOn",
        "typeByte": 153,
        "deltaTime": 20,
        "channel": 9,
        "note": 61,
        "velocity": 127
      },
      {
        "type": "midi",
        "subType": "noteOn",
        "typeByte": 153,
        "deltaTime": 0,
        "channel": 9,
        "note": 42,
        "velocity": 127
      },
      {
        "type": "midi",
        "subType": "noteOff",
        "typeByte": 153,
        "deltaTime": 22,
        "channel": 9,
        "note": 42,
        "velocity": 0
      },
      {
        "type": "midi",
        "subType": "noteOff",
        "typeByte": 153,
        "deltaTime": 1,
        "channel": 9,
        "note": 61,
        "velocity": 0
      },
      {
        "type": "midi",
        "subType": "noteOn",
        "typeByte": 153,
        "deltaTime": 24,
        "channel": 9,
        "note": 38,
        "velocity": 127
      },
      {
        "type": "midi",
        "subType": "noteOn",
        "typeByte": 153,
        "deltaTime": 1,
        "channel": 9,
        "note": 61,
        "velocity": 127
      },
      {
        "type": "midi",
        "subType": "noteOn",
        "typeByte": 153,
        "deltaTime": 0,
        "channel": 9,
        "note": 42,
        "velocity": 127
      },
      {
        "type": "midi",
        "subType": "noteOff",
        "typeByte": 153,
        "deltaTime": 23,
        "channel": 9,
        "note": 42,
        "velocity": 0
      },
      {
        "type": "midi",
        "subType": "noteOff",
        "typeByte": 153,
        "deltaTime": 0,
        "channel": 9,
        "note": 61,
        "velocity": 0
      },
      {
        "type": "midi",
        "subType": "noteOff",
        "typeByte": 153,
        "deltaTime": 0,
        "channel": 9,
        "note": 38,
        "velocity": 0
      },
      {
        "type": "midi",
        "subType": "noteOn",
        "typeByte": 153,
        "deltaTime": 25,
        "channel": 9,
        "note": 61,
        "velocity": 127
      },
      {
        "type": "midi",
        "subType": "noteOn",
        "typeByte": 153,
        "deltaTime": 1,
        "channel": 9,
        "note": 42,
        "velocity": 127
      },
      {
        "type": "midi",
        "subType": "noteOff",
        "typeByte": 153,
        "deltaTime": 22,
        "channel": 9,
        "note": 42,
        "velocity": 0
      },
      {
        "type": "midi",
        "subType": "noteOff",
        "typeByte": 153,
        "deltaTime": 0,
        "channel": 9,
        "note": 61,
        "velocity": 0
      },
      {
        "type": "midi",
        "subType": "noteOn",
        "typeByte": 153,
        "deltaTime": 25,
        "channel": 9,
        "note": 36,
        "velocity": 127
      },
      {
        "type": "midi",
        "subType": "noteOn",
        "typeByte": 153,
        "deltaTime": 0,
        "channel": 9,
        "note": 61,
        "velocity": 127
      },
      {
        "type": "midi",
        "subType": "noteOn",
        "typeByte": 153,
        "deltaTime": 0,
        "channel": 9,
        "note": 51,
        "velocity": 127
      },
      {
        "type": "midi",
        "subType": "noteOn",
        "typeByte": 153,
        "deltaTime": 0,
        "channel": 9,
        "note": 40,
        "velocity": 127
      },
      {
        "type": "midi",
        "subType": "noteOn",
        "typeByte": 153,
        "deltaTime": 1,
        "channel": 9,
        "note": 42,
        "velocity": 127
      },
      {
        "type": "midi",
        "subType": "noteOff",
        "typeByte": 153,
        "deltaTime": 22,
        "channel": 9,
        "note": 61,
        "velocity": 0
      },
      {
        "type": "midi",
        "subType": "noteOff",
        "typeByte": 153,
        "deltaTime": 0,
        "channel": 9,
        "note": 36,
        "velocity": 0
      },
      {
        "type": "midi",
        "subType": "noteOff",
        "typeByte": 153,
        "deltaTime": 3,
        "channel": 9,
        "note": 42,
        "velocity": 0
      },
      {
        "type": "midi",
        "subType": "noteOn",
        "typeByte": 153,
        "deltaTime": 23,
        "channel": 9,
        "note": 36,
        "velocity": 127
      },
      {
        "type": "midi",
        "subType": "noteOn",
        "typeByte": 153,
        "deltaTime": 0,
        "channel": 9,
        "note": 61,
        "velocity": 127
      },
      {
        "type": "midi",
        "subType": "noteOn",
        "typeByte": 153,
        "deltaTime": 0,
        "channel": 9,
        "note": 42,
        "velocity": 127
      },
      {
        "type": "midi",
        "subType": "noteOff",
        "typeByte": 153,
        "deltaTime": 23,
        "channel": 9,
        "note": 42,
        "velocity": 0
      },
      {
        "type": "midi",
        "subType": "noteOff",
        "typeByte": 153,
        "deltaTime": 0,
        "channel": 9,
        "note": 36,
        "velocity": 0
      },
      {
        "type": "midi",
        "subType": "noteOff",
        "typeByte": 153,
        "deltaTime": 0,
        "channel": 9,
        "note": 61,
        "velocity": 0
      },
      {
        "type": "midi",
        "subType": "noteOff",
        "typeByte": 153,
        "deltaTime": 16,
        "channel": 9,
        "note": 51,
        "velocity": 0
      },
      {
        "type": "midi",
        "subType": "noteOff",
        "typeByte": 153,
        "deltaTime": 0,
        "channel": 9,
        "note": 40,
        "velocity": 0
      },
      {
        "type": "midi",
        "subType": "noteOn",
        "typeByte": 153,
        "deltaTime": 8,
        "channel": 9,
        "note": 38,
        "velocity": 127
      },
      {
        "type": "midi",
        "subType": "noteOn",
        "typeByte": 153,
        "deltaTime": 0,
        "channel": 9,
        "note": 61,
        "velocity": 127
      },
      {
        "type": "midi",
        "subType": "noteOn",
        "typeByte": 153,
        "deltaTime": 0,
        "channel": 9,
        "note": 42,
        "velocity": 127
      },
      {
        "type": "midi",
        "subType": "noteOff",
        "typeByte": 153,
        "deltaTime": 23,
        "channel": 9,
        "note": 61,
        "velocity": 0
      },
      {
        "type": "midi",
        "subType": "noteOff",
        "typeByte": 153,
        "deltaTime": 0,
        "channel": 9,
        "note": 38,
        "velocity": 0
      },
      {
        "type": "midi",
        "subType": "noteOff",
        "typeByte": 153,
        "deltaTime": 3,
        "channel": 9,
        "note": 42,
        "velocity": 0
      },
      {
        "type": "midi",
        "subType": "noteOn",
        "typeByte": 153,
        "deltaTime": 23,
        "channel": 9,
        "note": 61,
        "velocity": 127
      },
      {
        "type": "midi",
        "subType": "noteOn",
        "typeByte": 153,
        "deltaTime": 0,
        "channel": 9,
        "note": 42,
        "velocity": 127
      },
      {
        "type": "midi",
        "subType": "noteOff",
        "typeByte": 153,
        "deltaTime": 23,
        "channel": 9,
        "note": 61,
        "velocity": 0
      },
      {
        "type": "midi",
        "subType": "noteOff",
        "typeByte": 153,
        "deltaTime": 1,
        "channel": 9,
        "note": 42,
        "velocity": 0
      },
      {
        "type": "midi",
        "subType": "noteOn",
        "typeByte": 153,
        "deltaTime": 23,
        "channel": 9,
        "note": 36,
        "velocity": 127
      },
      {
        "type": "midi",
        "subType": "noteOn",
        "typeByte": 153,
        "deltaTime": 0,
        "channel": 9,
        "note": 61,
        "velocity": 127
      },
      {
        "type": "midi",
        "subType": "noteOn",
        "typeByte": 153,
        "deltaTime": 1,
        "channel": 9,
        "note": 42,
        "velocity": 127
      },
      {
        "type": "midi",
        "subType": "noteOff",
        "typeByte": 153,
        "deltaTime": 22,
        "channel": 9,
        "note": 61,
        "velocity": 0
      },
      {
        "type": "midi",
        "subType": "noteOff",
        "typeByte": 153,
        "deltaTime": 0,
        "channel": 9,
        "note": 36,
        "velocity": 0
      },
      {
        "type": "midi",
        "subType": "noteOff",
        "typeByte": 153,
        "deltaTime": 3,
        "channel": 9,
        "note": 42,
        "velocity": 0
      },
      {
        "type": "midi",
        "subType": "noteOn",
        "typeByte": 153,
        "deltaTime": 23,
        "channel": 9,
        "note": 61,
        "velocity": 127
      },
      {
        "type": "midi",
        "subType": "noteOn",
        "typeByte": 153,
        "deltaTime": 0,
        "channel": 9,
        "note": 42,
        "velocity": 127
      },
      {
        "type": "midi",
        "subType": "noteOff",
        "typeByte": 153,
        "deltaTime": 23,
        "channel": 9,
        "note": 61,
        "velocity": 0
      },
      {
        "type": "midi",
        "subType": "noteOff",
        "typeByte": 153,
        "deltaTime": 3,
        "channel": 9,
        "note": 42,
        "velocity": 0
      },
      {
        "type": "midi",
        "subType": "noteOn",
        "typeByte": 153,
        "deltaTime": 22,
        "channel": 9,
        "note": 38,
        "velocity": 127
      },
      {
        "type": "midi",
        "subType": "noteOn",
        "typeByte": 153,
        "deltaTime": 0,
        "channel": 9,
        "note": 61,
        "velocity": 127
      },
      {
        "type": "midi",
        "subType": "noteOn",
        "typeByte": 153,
        "deltaTime": 0,
        "channel": 9,
        "note": 42,
        "velocity": 127
      },
      {
        "type": "midi",
        "subType": "noteOff",
        "typeByte": 153,
        "deltaTime": 23,
        "channel": 9,
        "note": 42,
        "velocity": 0
      },
      {
        "type": "midi",
        "subType": "noteOff",
        "typeByte": 153,
        "deltaTime": 0,
        "channel": 9,
        "note": 61,
        "velocity": 0
      },
      {
        "type": "midi",
        "subType": "noteOff",
        "typeByte": 153,
        "deltaTime": 0,
        "channel": 9,
        "note": 38,
        "velocity": 0
      },
      {
        "type": "midi",
        "subType": "noteOn",
        "typeByte": 153,
        "deltaTime": 26,
        "channel": 9,
        "note": 61,
        "velocity": 127
      },
      {
        "type": "midi",
        "subType": "noteOn",
        "typeByte": 153,
        "deltaTime": 0,
        "channel": 9,
        "note": 42,
        "velocity": 127
      },
      {
        "type": "midi",
        "subType": "noteOff",
        "typeByte": 153,
        "deltaTime": 23,
        "channel": 9,
        "note": 42,
        "velocity": 0
      },
      {
        "type": "midi",
        "subType": "noteOff",
        "typeByte": 153,
        "deltaTime": 0,
        "channel": 9,
        "note": 61,
        "velocity": 0
      },
      {
        "type": "midi",
        "subType": "noteOn",
        "typeByte": 153,
        "deltaTime": 24,
        "channel": 9,
        "note": 36,
        "velocity": 127
      },
      {
        "type": "midi",
        "subType": "noteOn",
        "typeByte": 153,
        "deltaTime": 0,
        "channel": 9,
        "note": 61,
        "velocity": 127
      },
      {
        "type": "midi",
        "subType": "noteOn",
        "typeByte": 153,
        "deltaTime": 0,
        "channel": 9,
        "note": 40,
        "velocity": 127
      },
      {
        "type": "midi",
        "subType": "noteOn",
        "typeByte": 153,
        "deltaTime": 1,
        "channel": 9,
        "note": 51,
        "velocity": 127
      },
      {
        "type": "midi",
        "subType": "noteOn",
        "typeByte": 153,
        "deltaTime": 0,
        "channel": 9,
        "note": 42,
        "velocity": 127
      },
      {
        "type": "midi",
        "subType": "noteOff",
        "typeByte": 153,
        "deltaTime": 22,
        "channel": 9,
        "note": 42,
        "velocity": 0
      },
      {
        "type": "midi",
        "subType": "noteOff",
        "typeByte": 153,
        "deltaTime": 0,
        "channel": 9,
        "note": 36,
        "velocity": 0
      },
      {
        "type": "midi",
        "subType": "noteOff",
        "typeByte": 153,
        "deltaTime": 0,
        "channel": 9,
        "note": 61,
        "velocity": 0
      },
      {
        "type": "midi",
        "subType": "noteOn",
        "typeByte": 153,
        "deltaTime": 26,
        "channel": 9,
        "note": 36,
        "velocity": 127
      },
      {
        "type": "midi",
        "subType": "noteOn",
        "typeByte": 153,
        "deltaTime": 0,
        "channel": 9,
        "note": 61,
        "velocity": 127
      },
      {
        "type": "midi",
        "subType": "noteOn",
        "typeByte": 153,
        "deltaTime": 0,
        "channel": 9,
        "note": 42,
        "velocity": 127
      },
      {
        "type": "midi",
        "subType": "noteOff",
        "typeByte": 153,
        "deltaTime": 22,
        "channel": 9,
        "note": 42,
        "velocity": 0
      },
      {
        "type": "midi",
        "subType": "noteOff",
        "typeByte": 153,
        "deltaTime": 1,
        "channel": 9,
        "note": 36,
        "velocity": 0
      },
      {
        "type": "midi",
        "subType": "noteOff",
        "typeByte": 153,
        "deltaTime": 0,
        "channel": 9,
        "note": 61,
        "velocity": 0
      },
      {
        "type": "midi",
        "subType": "noteOff",
        "typeByte": 153,
        "deltaTime": 24,
        "channel": 9,
        "note": 40,
        "velocity": 0
      },
      {
        "type": "midi",
        "subType": "noteOn",
        "typeByte": 153,
        "deltaTime": 1,
        "channel": 9,
        "note": 38,
        "velocity": 127
      },
      {
        "type": "midi",
        "subType": "noteOn",
        "typeByte": 153,
        "deltaTime": 0,
        "channel": 9,
        "note": 61,
        "velocity": 127
      },
      {
        "type": "midi",
        "subType": "noteOn",
        "typeByte": 153,
        "deltaTime": 0,
        "channel": 9,
        "note": 42,
        "velocity": 127
      },
      {
        "type": "midi",
        "subType": "noteOff",
        "typeByte": 153,
        "deltaTime": 5,
        "channel": 9,
        "note": 51,
        "velocity": 0
      },
      {
        "type": "midi",
        "subType": "noteOff",
        "typeByte": 153,
        "deltaTime": 17,
        "channel": 9,
        "note": 38,
        "velocity": 0
      },
      {
        "type": "midi",
        "subType": "noteOff",
        "typeByte": 153,
        "deltaTime": 0,
        "channel": 9,
        "note": 61,
        "velocity": 0
      },
      {
        "type": "midi",
        "subType": "noteOff",
        "typeByte": 153,
        "deltaTime": 2,
        "channel": 9,
        "note": 42,
        "velocity": 0
      },
      {
        "type": "midi",
        "subType": "noteOn",
        "typeByte": 153,
        "deltaTime": 24,
        "channel": 9,
        "note": 61,
        "velocity": 127
      },
      {
        "type": "midi",
        "subType": "noteOn",
        "typeByte": 153,
        "deltaTime": 0,
        "channel": 9,
        "note": 42,
        "velocity": 127
      },
      {
        "type": "midi",
        "subType": "noteOff",
        "typeByte": 153,
        "deltaTime": 22,
        "channel": 9,
        "note": 42,
        "velocity": 0
      },
      {
        "type": "midi",
        "subType": "noteOff",
        "typeByte": 153,
        "deltaTime": 1,
        "channel": 9,
        "note": 61,
        "velocity": 0
      },
      {
        "type": "midi",
        "subType": "noteOn",
        "typeByte": 153,
        "deltaTime": 25,
        "channel": 9,
        "note": 36,
        "velocity": 127
      },
      {
        "type": "midi",
        "subType": "noteOn",
        "typeByte": 153,
        "deltaTime": 0,
        "channel": 9,
        "note": 61,
        "velocity": 127
      },
      {
        "type": "midi",
        "subType": "noteOn",
        "typeByte": 153,
        "deltaTime": 0,
        "channel": 9,
        "note": 42,
        "velocity": 127
      },
      {
        "type": "midi",
        "subType": "noteOff",
        "typeByte": 153,
        "deltaTime": 19,
        "channel": 9,
        "note": 42,
        "velocity": 0
      },
      {
        "type": "midi",
        "subType": "noteOff",
        "typeByte": 153,
        "deltaTime": 4,
        "channel": 9,
        "note": 61,
        "velocity": 0
      },
      {
        "type": "midi",
        "subType": "noteOff",
        "typeByte": 153,
        "deltaTime": 0,
        "channel": 9,
        "note": 36,
        "velocity": 0
      },
      {
        "type": "midi",
        "subType": "noteOn",
        "typeByte": 153,
        "deltaTime": 25,
        "channel": 9,
        "note": 61,
        "velocity": 127
      },
      {
        "type": "midi",
        "subType": "noteOn",
        "typeByte": 153,
        "deltaTime": 1,
        "channel": 9,
        "note": 42,
        "velocity": 127
      },
      {
        "type": "midi",
        "subType": "noteOff",
        "typeByte": 153,
        "deltaTime": 16,
        "channel": 9,
        "note": 42,
        "velocity": 0
      },
      {
        "type": "midi",
        "subType": "noteOff",
        "typeByte": 153,
        "deltaTime": 6,
        "channel": 9,
        "note": 61,
        "velocity": 0
      },
      {
        "type": "midi",
        "subType": "noteOn",
        "typeByte": 153,
        "deltaTime": 25,
        "channel": 9,
        "note": 38,
        "velocity": 127
      },
      {
        "type": "midi",
        "subType": "noteOn",
        "typeByte": 153,
        "deltaTime": 0,
        "channel": 9,
        "note": 61,
        "velocity": 127
      },
      {
        "type": "midi",
        "subType": "noteOn",
        "typeByte": 153,
        "deltaTime": 0,
        "channel": 9,
        "note": 42,
        "velocity": 127
      },
      {
        "type": "midi",
        "subType": "noteOff",
        "typeByte": 153,
        "deltaTime": 20,
        "channel": 9,
        "note": 42,
        "velocity": 0
      },
      {
        "type": "midi",
        "subType": "noteOff",
        "typeByte": 153,
        "deltaTime": 3,
        "channel": 9,
        "note": 61,
        "velocity": 0
      },
      {
        "type": "midi",
        "subType": "noteOff",
        "typeByte": 153,
        "deltaTime": 0,
        "channel": 9,
        "note": 38,
        "velocity": 0
      },
      {
        "type": "midi",
        "subType": "noteOn",
        "typeByte": 153,
        "deltaTime": 26,
        "channel": 9,
        "note": 61,
        "velocity": 127
      },
      {
        "type": "midi",
        "subType": "noteOn",
        "typeByte": 153,
        "deltaTime": 0,
        "channel": 9,
        "note": 42,
        "velocity": 127
      },
      {
        "type": "midi",
        "subType": "noteOff",
        "typeByte": 153,
        "deltaTime": 13,
        "channel": 9,
        "note": 42,
        "velocity": 0
      },
      {
        "type": "midi",
        "subType": "noteOff",
        "typeByte": 153,
        "deltaTime": 10,
        "channel": 9,
        "note": 61,
        "velocity": 0
      },
      {
        "type": "midi",
        "subType": "noteOn",
        "typeByte": 153,
        "deltaTime": 24,
        "channel": 9,
        "note": 36,
        "velocity": 127
      },
      {
        "type": "midi",
        "subType": "noteOn",
        "typeByte": 153,
        "deltaTime": 0,
        "channel": 9,
        "note": 61,
        "velocity": 127
      },
      {
        "type": "midi",
        "subType": "noteOn",
        "typeByte": 153,
        "deltaTime": 1,
        "channel": 9,
        "note": 51,
        "velocity": 127
      },
      {
        "type": "midi",
        "subType": "noteOn",
        "typeByte": 153,
        "deltaTime": 0,
        "channel": 9,
        "note": 40,
        "velocity": 127
      },
      {
        "type": "midi",
        "subType": "noteOn",
        "typeByte": 153,
        "deltaTime": 0,
        "channel": 9,
        "note": 42,
        "velocity": 127
      },
      {
        "type": "midi",
        "subType": "noteOff",
        "typeByte": 153,
        "deltaTime": 21,
        "channel": 9,
        "note": 42,
        "velocity": 0
      },
      {
        "type": "midi",
        "subType": "noteOff",
        "typeByte": 153,
        "deltaTime": 1,
        "channel": 9,
        "note": 36,
        "velocity": 0
      },
      {
        "type": "midi",
        "subType": "noteOff",
        "typeByte": 153,
        "deltaTime": 0,
        "channel": 9,
        "note": 61,
        "velocity": 0
      },
      {
        "type": "midi",
        "subType": "noteOn",
        "typeByte": 153,
        "deltaTime": 26,
        "channel": 9,
        "note": 36,
        "velocity": 127
      },
      {
        "type": "midi",
        "subType": "noteOn",
        "typeByte": 153,
        "deltaTime": 0,
        "channel": 9,
        "note": 61,
        "velocity": 127
      },
      {
        "type": "midi",
        "subType": "noteOn",
        "typeByte": 153,
        "deltaTime": 0,
        "channel": 9,
        "note": 42,
        "velocity": 127
      },
      {
        "type": "midi",
        "subType": "noteOff",
        "typeByte": 153,
        "deltaTime": 23,
        "channel": 9,
        "note": 42,
        "velocity": 0
      },
      {
        "type": "midi",
        "subType": "noteOff",
        "typeByte": 153,
        "deltaTime": 0,
        "channel": 9,
        "note": 36,
        "velocity": 0
      },
      {
        "type": "midi",
        "subType": "noteOff",
        "typeByte": 153,
        "deltaTime": 0,
        "channel": 9,
        "note": 61,
        "velocity": 0
      },
      {
        "type": "midi",
        "subType": "noteOff",
        "typeByte": 153,
        "deltaTime": 16,
        "channel": 9,
        "note": 51,
        "velocity": 0
      },
      {
        "type": "midi",
        "subType": "noteOff",
        "typeByte": 153,
        "deltaTime": 0,
        "channel": 9,
        "note": 40,
        "velocity": 0
      },
      {
        "type": "midi",
        "subType": "noteOn",
        "typeByte": 153,
        "deltaTime": 8,
        "channel": 9,
        "note": 38,
        "velocity": 127
      },
      {
        "type": "midi",
        "subType": "noteOn",
        "typeByte": 153,
        "deltaTime": 0,
        "channel": 9,
        "note": 61,
        "velocity": 127
      },
      {
        "type": "midi",
        "subType": "noteOn",
        "typeByte": 153,
        "deltaTime": 1,
        "channel": 9,
        "note": 42,
        "velocity": 127
      },
      {
        "type": "midi",
        "subType": "noteOff",
        "typeByte": 153,
        "deltaTime": 23,
        "channel": 9,
        "note": 42,
        "velocity": 0
      },
      {
        "type": "midi",
        "subType": "noteOff",
        "typeByte": 153,
        "deltaTime": 0,
        "channel": 9,
        "note": 61,
        "velocity": 0
      },
      {
        "type": "midi",
        "subType": "noteOff",
        "typeByte": 153,
        "deltaTime": 0,
        "channel": 9,
        "note": 38,
        "velocity": 0
      },
      {
        "type": "midi",
        "subType": "noteOn",
        "typeByte": 153,
        "deltaTime": 25,
        "channel": 9,
        "note": 61,
        "velocity": 127
      },
      {
        "type": "midi",
        "subType": "noteOn",
        "typeByte": 153,
        "deltaTime": 0,
        "channel": 9,
        "note": 42,
        "velocity": 127
      },
      {
        "type": "midi",
        "subType": "noteOff",
        "typeByte": 153,
        "deltaTime": 23,
        "channel": 9,
        "note": 42,
        "velocity": 0
      },
      {
        "type": "midi",
        "subType": "noteOff",
        "typeByte": 153,
        "deltaTime": 0,
        "channel": 9,
        "note": 61,
        "velocity": 0
      },
      {
        "type": "midi",
        "subType": "noteOn",
        "typeByte": 153,
        "deltaTime": 25,
        "channel": 9,
        "note": 36,
        "velocity": 127
      },
      {
        "type": "midi",
        "subType": "noteOn",
        "typeByte": 153,
        "deltaTime": 0,
        "channel": 9,
        "note": 61,
        "velocity": 127
      },
      {
        "type": "midi",
        "subType": "noteOn",
        "typeByte": 153,
        "deltaTime": 0,
        "channel": 9,
        "note": 42,
        "velocity": 127
      },
      {
        "type": "midi",
        "subType": "noteOff",
        "typeByte": 153,
        "deltaTime": 23,
        "channel": 9,
        "note": 61,
        "velocity": 0
      },
      {
        "type": "midi",
        "subType": "noteOff",
        "typeByte": 153,
        "deltaTime": 0,
        "channel": 9,
        "note": 36,
        "velocity": 0
      },
      {
        "type": "midi",
        "subType": "noteOff",
        "typeByte": 153,
        "deltaTime": 3,
        "channel": 9,
        "note": 42,
        "velocity": 0
      },
      {
        "type": "midi",
        "subType": "noteOn",
        "typeByte": 153,
        "deltaTime": 23,
        "channel": 9,
        "note": 61,
        "velocity": 127
      },
      {
        "type": "midi",
        "subType": "noteOn",
        "typeByte": 153,
        "deltaTime": 0,
        "channel": 9,
        "note": 42,
        "velocity": 127
      },
      {
        "type": "midi",
        "subType": "noteOff",
        "typeByte": 153,
        "deltaTime": 20,
        "channel": 9,
        "note": 42,
        "velocity": 0
      },
      {
        "type": "midi",
        "subType": "noteOff",
        "typeByte": 153,
        "deltaTime": 3,
        "channel": 9,
        "note": 61,
        "velocity": 0
      },
      {
        "type": "midi",
        "subType": "noteOn",
        "typeByte": 153,
        "deltaTime": 24,
        "channel": 9,
        "note": 38,
        "velocity": 127
      },
      {
        "type": "midi",
        "subType": "noteOn",
        "typeByte": 153,
        "deltaTime": 0,
        "channel": 9,
        "note": 61,
        "velocity": 127
      },
      {
        "type": "midi",
        "subType": "noteOn",
        "typeByte": 153,
        "deltaTime": 0,
        "channel": 9,
        "note": 42,
        "velocity": 127
      },
      {
        "type": "midi",
        "subType": "noteOff",
        "typeByte": 153,
        "deltaTime": 23,
        "channel": 9,
        "note": 42,
        "velocity": 0
      },
      {
        "type": "midi",
        "subType": "noteOff",
        "typeByte": 153,
        "deltaTime": 0,
        "channel": 9,
        "note": 61,
        "velocity": 0
      },
      {
        "type": "midi",
        "subType": "noteOff",
        "typeByte": 153,
        "deltaTime": 0,
        "channel": 9,
        "note": 38,
        "velocity": 0
      },
      {
        "type": "midi",
        "subType": "noteOn",
        "typeByte": 153,
        "deltaTime": 26,
        "channel": 9,
        "note": 61,
        "velocity": 127
      },
      {
        "type": "midi",
        "subType": "noteOn",
        "typeByte": 153,
        "deltaTime": 0,
        "channel": 9,
        "note": 42,
        "velocity": 127
      },
      {
        "type": "midi",
        "subType": "noteOff",
        "typeByte": 153,
        "deltaTime": 23,
        "channel": 9,
        "note": 42,
        "velocity": 0
      },
      {
        "type": "midi",
        "subType": "noteOff",
        "typeByte": 153,
        "deltaTime": 0,
        "channel": 9,
        "note": 61,
        "velocity": 0
      },
      {
        "type": "midi",
        "subType": "noteOn",
        "typeByte": 153,
        "deltaTime": 24,
        "channel": 9,
        "note": 36,
        "velocity": 127
      },
      {
        "type": "midi",
        "subType": "noteOn",
        "typeByte": 153,
        "deltaTime": 1,
        "channel": 9,
        "note": 61,
        "velocity": 127
      },
      {
        "type": "midi",
        "subType": "noteOn",
        "typeByte": 153,
        "deltaTime": 0,
        "channel": 9,
        "note": 40,
        "velocity": 127
      },
      {
        "type": "midi",
        "subType": "noteOn",
        "typeByte": 153,
        "deltaTime": 0,
        "channel": 9,
        "note": 51,
        "velocity": 127
      },
      {
        "type": "midi",
        "subType": "noteOn",
        "typeByte": 153,
        "deltaTime": 0,
        "channel": 9,
        "note": 42,
        "velocity": 127
      },
      {
        "type": "midi",
        "subType": "noteOff",
        "typeByte": 153,
        "deltaTime": 22,
        "channel": 9,
        "note": 42,
        "velocity": 0
      },
      {
        "type": "midi",
        "subType": "noteOff",
        "typeByte": 153,
        "deltaTime": 0,
        "channel": 9,
        "note": 36,
        "velocity": 0
      },
      {
        "type": "midi",
        "subType": "noteOff",
        "typeByte": 153,
        "deltaTime": 1,
        "channel": 9,
        "note": 61,
        "velocity": 0
      },
      {
        "type": "midi",
        "subType": "noteOn",
        "typeByte": 153,
        "deltaTime": 25,
        "channel": 9,
        "note": 36,
        "velocity": 127
      },
      {
        "type": "midi",
        "subType": "noteOn",
        "typeByte": 153,
        "deltaTime": 0,
        "channel": 9,
        "note": 61,
        "velocity": 127
      },
      {
        "type": "midi",
        "subType": "noteOn",
        "typeByte": 153,
        "deltaTime": 1,
        "channel": 9,
        "note": 42,
        "velocity": 127
      },
      {
        "type": "midi",
        "subType": "noteOff",
        "typeByte": 153,
        "deltaTime": 22,
        "channel": 9,
        "note": 61,
        "velocity": 0
      },
      {
        "type": "midi",
        "subType": "noteOff",
        "typeByte": 153,
        "deltaTime": 0,
        "channel": 9,
        "note": 36,
        "velocity": 0
      },
      {
        "type": "midi",
        "subType": "noteOff",
        "typeByte": 153,
        "deltaTime": 1,
        "channel": 9,
        "note": 42,
        "velocity": 0
      },
      {
        "type": "midi",
        "subType": "noteOff",
        "typeByte": 153,
        "deltaTime": 24,
        "channel": 9,
        "note": 40,
        "velocity": 0
      },
      {
        "type": "midi",
        "subType": "noteOn",
        "typeByte": 153,
        "deltaTime": 0,
        "channel": 9,
        "note": 38,
        "velocity": 127
      },
      {
        "type": "midi",
        "subType": "noteOn",
        "typeByte": 153,
        "deltaTime": 0,
        "channel": 9,
        "note": 61,
        "velocity": 127
      },
      {
        "type": "midi",
        "subType": "noteOn",
        "typeByte": 153,
        "deltaTime": 0,
        "channel": 9,
        "note": 42,
        "velocity": 127
      },
      {
        "type": "midi",
        "subType": "noteOff",
        "typeByte": 153,
        "deltaTime": 5,
        "channel": 9,
        "note": 51,
        "velocity": 0
      },
      {
        "type": "midi",
        "subType": "noteOff",
        "typeByte": 153,
        "deltaTime": 18,
        "channel": 9,
        "note": 38,
        "velocity": 0
      },
      {
        "type": "midi",
        "subType": "noteOff",
        "typeByte": 153,
        "deltaTime": 0,
        "channel": 9,
        "note": 61,
        "velocity": 0
      },
      {
        "type": "midi",
        "subType": "noteOff",
        "typeByte": 153,
        "deltaTime": 2,
        "channel": 9,
        "note": 42,
        "velocity": 0
      },
      {
        "type": "midi",
        "subType": "noteOn",
        "typeByte": 153,
        "deltaTime": 24,
        "channel": 9,
        "note": 61,
        "velocity": 127
      },
      {
        "type": "midi",
        "subType": "noteOn",
        "typeByte": 153,
        "deltaTime": 0,
        "channel": 9,
        "note": 42,
        "velocity": 127
      },
      {
        "type": "midi",
        "subType": "noteOff",
        "typeByte": 153,
        "deltaTime": 22,
        "channel": 9,
        "note": 61,
        "velocity": 0
      },
      {
        "type": "midi",
        "subType": "noteOff",
        "typeByte": 153,
        "deltaTime": 2,
        "channel": 9,
        "note": 42,
        "velocity": 0
      },
      {
        "type": "midi",
        "subType": "noteOn",
        "typeByte": 153,
        "deltaTime": 23,
        "channel": 9,
        "note": 36,
        "velocity": 127
      },
      {
        "type": "midi",
        "subType": "noteOn",
        "typeByte": 153,
        "deltaTime": 0,
        "channel": 9,
        "note": 61,
        "velocity": 127
      },
      {
        "type": "midi",
        "subType": "noteOn",
        "typeByte": 153,
        "deltaTime": 0,
        "channel": 9,
        "note": 42,
        "velocity": 127
      },
      {
        "type": "midi",
        "subType": "noteOff",
        "typeByte": 153,
        "deltaTime": 23,
        "channel": 9,
        "note": 61,
        "velocity": 0
      },
      {
        "type": "midi",
        "subType": "noteOff",
        "typeByte": 153,
        "deltaTime": 0,
        "channel": 9,
        "note": 36,
        "velocity": 0
      },
      {
        "type": "midi",
        "subType": "noteOff",
        "typeByte": 153,
        "deltaTime": 5,
        "channel": 9,
        "note": 42,
        "velocity": 0
      },
      {
        "type": "midi",
        "subType": "noteOn",
        "typeByte": 153,
        "deltaTime": 21,
        "channel": 9,
        "note": 61,
        "velocity": 127
      },
      {
        "type": "midi",
        "subType": "noteOn",
        "typeByte": 153,
        "deltaTime": 0,
        "channel": 9,
        "note": 42,
        "velocity": 127
      },
      {
        "type": "midi",
        "subType": "noteOff",
        "typeByte": 153,
        "deltaTime": 21,
        "channel": 9,
        "note": 42,
        "velocity": 0
      },
      {
        "type": "midi",
        "subType": "noteOff",
        "typeByte": 153,
        "deltaTime": 2,
        "channel": 9,
        "note": 61,
        "velocity": 0
      },
      {
        "type": "midi",
        "subType": "noteOn",
        "typeByte": 153,
        "deltaTime": 24,
        "channel": 9,
        "note": 38,
        "velocity": 127
      },
      {
        "type": "midi",
        "subType": "noteOn",
        "typeByte": 153,
        "deltaTime": 0,
        "channel": 9,
        "note": 61,
        "velocity": 127
      },
      {
        "type": "midi",
        "subType": "noteOn",
        "typeByte": 153,
        "deltaTime": 1,
        "channel": 9,
        "note": 42,
        "velocity": 127
      },
      {
        "type": "midi",
        "subType": "noteOff",
        "typeByte": 153,
        "deltaTime": 22,
        "channel": 9,
        "note": 42,
        "velocity": 0
      },
      {
        "type": "midi",
        "subType": "noteOff",
        "typeByte": 153,
        "deltaTime": 0,
        "channel": 9,
        "note": 38,
        "velocity": 0
      },
      {
        "type": "midi",
        "subType": "noteOff",
        "typeByte": 153,
        "deltaTime": 1,
        "channel": 9,
        "note": 61,
        "velocity": 0
      },
      {
        "type": "midi",
        "subType": "noteOn",
        "typeByte": 153,
        "deltaTime": 25,
        "channel": 9,
        "note": 61,
        "velocity": 127
      },
      {
        "type": "midi",
        "subType": "noteOn",
        "typeByte": 153,
        "deltaTime": 0,
        "channel": 9,
        "note": 42,
        "velocity": 127
      },
      {
        "type": "midi",
        "subType": "noteOff",
        "typeByte": 153,
        "deltaTime": 23,
        "channel": 9,
        "note": 42,
        "velocity": 0
      },
      {
        "type": "midi",
        "subType": "noteOff",
        "typeByte": 153,
        "deltaTime": 0,
        "channel": 9,
        "note": 61,
        "velocity": 0
      },
      {
        "type": "midi",
        "subType": "noteOn",
        "typeByte": 153,
        "deltaTime": 25,
        "channel": 9,
        "note": 36,
        "velocity": 127
      },
      {
        "type": "midi",
        "subType": "noteOn",
        "typeByte": 153,
        "deltaTime": 0,
        "channel": 9,
        "note": 61,
        "velocity": 127
      },
      {
        "type": "midi",
        "subType": "noteOn",
        "typeByte": 153,
        "deltaTime": 0,
        "channel": 9,
        "note": 51,
        "velocity": 127
      },
      {
        "type": "midi",
        "subType": "noteOn",
        "typeByte": 153,
        "deltaTime": 0,
        "channel": 9,
        "note": 40,
        "velocity": 127
      },
      {
        "type": "midi",
        "subType": "noteOn",
        "typeByte": 153,
        "deltaTime": 0,
        "channel": 9,
        "note": 42,
        "velocity": 127
      },
      {
        "type": "midi",
        "subType": "noteOff",
        "typeByte": 153,
        "deltaTime": 23,
        "channel": 9,
        "note": 61,
        "velocity": 0
      },
      {
        "type": "midi",
        "subType": "noteOff",
        "typeByte": 153,
        "deltaTime": 0,
        "channel": 9,
        "note": 36,
        "velocity": 0
      },
      {
        "type": "midi",
        "subType": "noteOff",
        "typeByte": 153,
        "deltaTime": 2,
        "channel": 9,
        "note": 42,
        "velocity": 0
      },
      {
        "type": "midi",
        "subType": "noteOn",
        "typeByte": 153,
        "deltaTime": 23,
        "channel": 9,
        "note": 36,
        "velocity": 127
      },
      {
        "type": "midi",
        "subType": "noteOn",
        "typeByte": 153,
        "deltaTime": 1,
        "channel": 9,
        "note": 61,
        "velocity": 127
      },
      {
        "type": "midi",
        "subType": "noteOn",
        "typeByte": 153,
        "deltaTime": 0,
        "channel": 9,
        "note": 42,
        "velocity": 127
      },
      {
        "type": "midi",
        "subType": "noteOff",
        "typeByte": 153,
        "deltaTime": 22,
        "channel": 9,
        "note": 61,
        "velocity": 0
      },
      {
        "type": "midi",
        "subType": "noteOff",
        "typeByte": 153,
        "deltaTime": 0,
        "channel": 9,
        "note": 36,
        "velocity": 0
      },
      {
        "type": "midi",
        "subType": "noteOff",
        "typeByte": 153,
        "deltaTime": 1,
        "channel": 9,
        "note": 42,
        "velocity": 0
      },
      {
        "type": "midi",
        "subType": "noteOff",
        "typeByte": 153,
        "deltaTime": 16,
        "channel": 9,
        "note": 51,
        "velocity": 0
      },
      {
        "type": "midi",
        "subType": "noteOff",
        "typeByte": 153,
        "deltaTime": 0,
        "channel": 9,
        "note": 40,
        "velocity": 0
      },
      {
        "type": "midi",
        "subType": "noteOn",
        "typeByte": 153,
        "deltaTime": 8,
        "channel": 9,
        "note": 38,
        "velocity": 127
      },
      {
        "type": "midi",
        "subType": "noteOn",
        "typeByte": 153,
        "deltaTime": 0,
        "channel": 9,
        "note": 61,
        "velocity": 127
      },
      {
        "type": "midi",
        "subType": "noteOn",
        "typeByte": 153,
        "deltaTime": 0,
        "channel": 9,
        "note": 42,
        "velocity": 127
      },
      {
        "type": "midi",
        "subType": "noteOff",
        "typeByte": 153,
        "deltaTime": 23,
        "channel": 9,
        "note": 61,
        "velocity": 0
      },
      {
        "type": "midi",
        "subType": "noteOff",
        "typeByte": 153,
        "deltaTime": 0,
        "channel": 9,
        "note": 38,
        "velocity": 0
      },
      {
        "type": "midi",
        "subType": "noteOff",
        "typeByte": 153,
        "deltaTime": 3,
        "channel": 9,
        "note": 42,
        "velocity": 0
      },
      {
        "type": "midi",
        "subType": "noteOn",
        "typeByte": 153,
        "deltaTime": 23,
        "channel": 9,
        "note": 61,
        "velocity": 127
      },
      {
        "type": "midi",
        "subType": "noteOn",
        "typeByte": 153,
        "deltaTime": 0,
        "channel": 9,
        "note": 42,
        "velocity": 127
      },
      {
        "type": "midi",
        "subType": "noteOff",
        "typeByte": 153,
        "deltaTime": 23,
        "channel": 9,
        "note": 61,
        "velocity": 0
      },
      {
        "type": "midi",
        "subType": "noteOff",
        "typeByte": 153,
        "deltaTime": 1,
        "channel": 9,
        "note": 42,
        "velocity": 0
      },
      {
        "type": "midi",
        "subType": "noteOn",
        "typeByte": 153,
        "deltaTime": 23,
        "channel": 9,
        "note": 36,
        "velocity": 127
      },
      {
        "type": "midi",
        "subType": "noteOn",
        "typeByte": 153,
        "deltaTime": 0,
        "channel": 9,
        "note": 61,
        "velocity": 127
      },
      {
        "type": "midi",
        "subType": "noteOn",
        "typeByte": 153,
        "deltaTime": 1,
        "channel": 9,
        "note": 42,
        "velocity": 127
      },
      {
        "type": "midi",
        "subType": "noteOff",
        "typeByte": 153,
        "deltaTime": 22,
        "channel": 9,
        "note": 61,
        "velocity": 0
      },
      {
        "type": "midi",
        "subType": "noteOff",
        "typeByte": 153,
        "deltaTime": 0,
        "channel": 9,
        "note": 36,
        "velocity": 0
      },
      {
        "type": "midi",
        "subType": "noteOff",
        "typeByte": 153,
        "deltaTime": 3,
        "channel": 9,
        "note": 42,
        "velocity": 0
      },
      {
        "type": "midi",
        "subType": "noteOn",
        "typeByte": 153,
        "deltaTime": 23,
        "channel": 9,
        "note": 61,
        "velocity": 127
      },
      {
        "type": "midi",
        "subType": "noteOn",
        "typeByte": 153,
        "deltaTime": 0,
        "channel": 9,
        "note": 42,
        "velocity": 127
      },
      {
        "type": "midi",
        "subType": "noteOff",
        "typeByte": 153,
        "deltaTime": 23,
        "channel": 9,
        "note": 61,
        "velocity": 0
      },
      {
        "type": "midi",
        "subType": "noteOff",
        "typeByte": 153,
        "deltaTime": 3,
        "channel": 9,
        "note": 42,
        "velocity": 0
      },
      {
        "type": "midi",
        "subType": "noteOn",
        "typeByte": 153,
        "deltaTime": 21,
        "channel": 9,
        "note": 38,
        "velocity": 127
      },
      {
        "type": "midi",
        "subType": "noteOn",
        "typeByte": 153,
        "deltaTime": 1,
        "channel": 9,
        "note": 61,
        "velocity": 127
      },
      {
        "type": "midi",
        "subType": "noteOn",
        "typeByte": 153,
        "deltaTime": 0,
        "channel": 9,
        "note": 42,
        "velocity": 127
      },
      {
        "type": "midi",
        "subType": "noteOff",
        "typeByte": 153,
        "deltaTime": 22,
        "channel": 9,
        "note": 42,
        "velocity": 0
      },
      {
        "type": "midi",
        "subType": "noteOff",
        "typeByte": 153,
        "deltaTime": 0,
        "channel": 9,
        "note": 38,
        "velocity": 0
      },
      {
        "type": "midi",
        "subType": "noteOff",
        "typeByte": 153,
        "deltaTime": 1,
        "channel": 9,
        "note": 61,
        "velocity": 0
      },
      {
        "type": "midi",
        "subType": "noteOn",
        "typeByte": 153,
        "deltaTime": 25,
        "channel": 9,
        "note": 61,
        "velocity": 127
      },
      {
        "type": "midi",
        "subType": "noteOn",
        "typeByte": 153,
        "deltaTime": 0,
        "channel": 9,
        "note": 42,
        "velocity": 127
      },
      {
        "type": "midi",
        "subType": "noteOff",
        "typeByte": 153,
        "deltaTime": 23,
        "channel": 9,
        "note": 42,
        "velocity": 0
      },
      {
        "type": "midi",
        "subType": "noteOff",
        "typeByte": 153,
        "deltaTime": 0,
        "channel": 9,
        "note": 61,
        "velocity": 0
      },
      {
        "type": "midi",
        "subType": "noteOn",
        "typeByte": 153,
        "deltaTime": 25,
        "channel": 9,
        "note": 36,
        "velocity": 127
      },
      {
        "type": "midi",
        "subType": "noteOn",
        "typeByte": 153,
        "deltaTime": 0,
        "channel": 9,
        "note": 61,
        "velocity": 127
      },
      {
        "type": "midi",
        "subType": "noteOn",
        "typeByte": 153,
        "deltaTime": 0,
        "channel": 9,
        "note": 40,
        "velocity": 127
      },
      {
        "type": "midi",
        "subType": "noteOn",
        "typeByte": 153,
        "deltaTime": 0,
        "channel": 9,
        "note": 51,
        "velocity": 127
      },
      {
        "type": "midi",
        "subType": "noteOn",
        "typeByte": 153,
        "deltaTime": 1,
        "channel": 9,
        "note": 42,
        "velocity": 127
      },
      {
        "type": "midi",
        "subType": "noteOff",
        "typeByte": 153,
        "deltaTime": 22,
        "channel": 9,
        "note": 42,
        "velocity": 0
      },
      {
        "type": "midi",
        "subType": "noteOff",
        "typeByte": 153,
        "deltaTime": 0,
        "channel": 9,
        "note": 36,
        "velocity": 0
      },
      {
        "type": "midi",
        "subType": "noteOff",
        "typeByte": 153,
        "deltaTime": 0,
        "channel": 9,
        "note": 61,
        "velocity": 0
      },
      {
        "type": "midi",
        "subType": "noteOn",
        "typeByte": 153,
        "deltaTime": 26,
        "channel": 9,
        "note": 36,
        "velocity": 127
      },
      {
        "type": "midi",
        "subType": "noteOn",
        "typeByte": 153,
        "deltaTime": 0,
        "channel": 9,
        "note": 61,
        "velocity": 127
      },
      {
        "type": "midi",
        "subType": "noteOn",
        "typeByte": 153,
        "deltaTime": 0,
        "channel": 9,
        "note": 42,
        "velocity": 127
      },
      {
        "type": "midi",
        "subType": "noteOff",
        "typeByte": 153,
        "deltaTime": 21,
        "channel": 9,
        "note": 42,
        "velocity": 0
      },
      {
        "type": "midi",
        "subType": "noteOff",
        "typeByte": 153,
        "deltaTime": 1,
        "channel": 9,
        "note": 36,
        "velocity": 0
      },
      {
        "type": "midi",
        "subType": "noteOff",
        "typeByte": 153,
        "deltaTime": 1,
        "channel": 9,
        "note": 61,
        "velocity": 0
      },
      {
        "type": "midi",
        "subType": "noteOff",
        "typeByte": 153,
        "deltaTime": 24,
        "channel": 9,
        "note": 40,
        "velocity": 0
      },
      {
        "type": "midi",
        "subType": "noteOn",
        "typeByte": 153,
        "deltaTime": 0,
        "channel": 9,
        "note": 38,
        "velocity": 127
      },
      {
        "type": "midi",
        "subType": "noteOn",
        "typeByte": 153,
        "deltaTime": 0,
        "channel": 9,
        "note": 61,
        "velocity": 127
      },
      {
        "type": "midi",
        "subType": "noteOn",
        "typeByte": 153,
        "deltaTime": 1,
        "channel": 9,
        "note": 42,
        "velocity": 127
      },
      {
        "type": "midi",
        "subType": "noteOff",
        "typeByte": 153,
        "deltaTime": 4,
        "channel": 9,
        "note": 51,
        "velocity": 0
      },
      {
        "type": "midi",
        "subType": "noteOff",
        "typeByte": 153,
        "deltaTime": 18,
        "channel": 9,
        "note": 38,
        "velocity": 0
      },
      {
        "type": "midi",
        "subType": "noteOff",
        "typeByte": 153,
        "deltaTime": 0,
        "channel": 9,
        "note": 61,
        "velocity": 0
      },
      {
        "type": "midi",
        "subType": "noteOff",
        "typeByte": 153,
        "deltaTime": 1,
        "channel": 9,
        "note": 42,
        "velocity": 0
      },
      {
        "type": "midi",
        "subType": "noteOn",
        "typeByte": 153,
        "deltaTime": 25,
        "channel": 9,
        "note": 61,
        "velocity": 127
      },
      {
        "type": "midi",
        "subType": "noteOn",
        "typeByte": 153,
        "deltaTime": 0,
        "channel": 9,
        "note": 42,
        "velocity": 127
      },
      {
        "type": "midi",
        "subType": "noteOff",
        "typeByte": 153,
        "deltaTime": 21,
        "channel": 9,
        "note": 42,
        "velocity": 0
      },
      {
        "type": "midi",
        "subType": "noteOff",
        "typeByte": 153,
        "deltaTime": 2,
        "channel": 9,
        "note": 61,
        "velocity": 0
      },
      {
        "type": "midi",
        "subType": "noteOn",
        "typeByte": 153,
        "deltaTime": 24,
        "channel": 9,
        "note": 36,
        "velocity": 127
      },
      {
        "type": "midi",
        "subType": "noteOn",
        "typeByte": 153,
        "deltaTime": 0,
        "channel": 9,
        "note": 61,
        "velocity": 127
      },
      {
        "type": "midi",
        "subType": "noteOn",
        "typeByte": 153,
        "deltaTime": 1,
        "channel": 9,
        "note": 42,
        "velocity": 127
      },
      {
        "type": "midi",
        "subType": "noteOff",
        "typeByte": 153,
        "deltaTime": 18,
        "channel": 9,
        "note": 42,
        "velocity": 0
      },
      {
        "type": "midi",
        "subType": "noteOff",
        "typeByte": 153,
        "deltaTime": 4,
        "channel": 9,
        "note": 61,
        "velocity": 0
      },
      {
        "type": "midi",
        "subType": "noteOff",
        "typeByte": 153,
        "deltaTime": 0,
        "channel": 9,
        "note": 36,
        "velocity": 0
      },
      {
        "type": "midi",
        "subType": "noteOn",
        "typeByte": 153,
        "deltaTime": 26,
        "channel": 9,
        "note": 61,
        "velocity": 127
      },
      {
        "type": "midi",
        "subType": "noteOn",
        "typeByte": 153,
        "deltaTime": 0,
        "channel": 9,
        "note": 42,
        "velocity": 127
      },
      {
        "type": "midi",
        "subType": "noteOff",
        "typeByte": 153,
        "deltaTime": 16,
        "channel": 9,
        "note": 42,
        "velocity": 0
      },
      {
        "type": "midi",
        "subType": "noteOff",
        "typeByte": 153,
        "deltaTime": 7,
        "channel": 9,
        "note": 61,
        "velocity": 0
      },
      {
        "type": "midi",
        "subType": "noteOn",
        "typeByte": 153,
        "deltaTime": 25,
        "channel": 9,
        "note": 38,
        "velocity": 127
      },
      {
        "type": "midi",
        "subType": "noteOn",
        "typeByte": 153,
        "deltaTime": 0,
        "channel": 9,
        "note": 61,
        "velocity": 127
      },
      {
        "type": "midi",
        "subType": "noteOn",
        "typeByte": 153,
        "deltaTime": 0,
        "channel": 9,
        "note": 42,
        "velocity": 127
      },
      {
        "type": "midi",
        "subType": "noteOff",
        "typeByte": 153,
        "deltaTime": 20,
        "channel": 9,
        "note": 42,
        "velocity": 0
      },
      {
        "type": "midi",
        "subType": "noteOff",
        "typeByte": 153,
        "deltaTime": 3,
        "channel": 9,
        "note": 61,
        "velocity": 0
      },
      {
        "type": "midi",
        "subType": "noteOff",
        "typeByte": 153,
        "deltaTime": 0,
        "channel": 9,
        "note": 38,
        "velocity": 0
      },
      {
        "type": "midi",
        "subType": "noteOn",
        "typeByte": 153,
        "deltaTime": 25,
        "channel": 9,
        "note": 61,
        "velocity": 127
      },
      {
        "type": "midi",
        "subType": "noteOn",
        "typeByte": 153,
        "deltaTime": 1,
        "channel": 9,
        "note": 42,
        "velocity": 127
      },
      {
        "type": "midi",
        "subType": "noteOff",
        "typeByte": 153,
        "deltaTime": 13,
        "channel": 9,
        "note": 42,
        "velocity": 0
      },
      {
        "type": "midi",
        "subType": "noteOff",
        "typeByte": 153,
        "deltaTime": 9,
        "channel": 9,
        "note": 61,
        "velocity": 0
      },
      {
        "type": "midi",
        "subType": "noteOn",
        "typeByte": 153,
        "deltaTime": 25,
        "channel": 9,
        "note": 36,
        "velocity": 127
      },
      {
        "type": "midi",
        "subType": "noteOn",
        "typeByte": 153,
        "deltaTime": 0,
        "channel": 9,
        "note": 61,
        "velocity": 127
      },
      {
        "type": "midi",
        "subType": "noteOn",
        "typeByte": 153,
        "deltaTime": 0,
        "channel": 9,
        "note": 51,
        "velocity": 127
      },
      {
        "type": "midi",
        "subType": "noteOn",
        "typeByte": 153,
        "deltaTime": 1,
        "channel": 9,
        "note": 40,
        "velocity": 127
      },
      {
        "type": "midi",
        "subType": "noteOn",
        "typeByte": 153,
        "deltaTime": 0,
        "channel": 9,
        "note": 42,
        "velocity": 127
      },
      {
        "type": "midi",
        "subType": "noteOff",
        "typeByte": 153,
        "deltaTime": 21,
        "channel": 9,
        "note": 42,
        "velocity": 0
      },
      {
        "type": "midi",
        "subType": "noteOff",
        "typeByte": 153,
        "deltaTime": 1,
        "channel": 9,
        "note": 36,
        "velocity": 0
      },
      {
        "type": "midi",
        "subType": "noteOff",
        "typeByte": 153,
        "deltaTime": 0,
        "channel": 9,
        "note": 61,
        "velocity": 0
      },
      {
        "type": "midi",
        "subType": "noteOn",
        "typeByte": 153,
        "deltaTime": 26,
        "channel": 9,
        "note": 36,
        "velocity": 127
      },
      {
        "type": "midi",
        "subType": "noteOn",
        "typeByte": 153,
        "deltaTime": 0,
        "channel": 9,
        "note": 61,
        "velocity": 127
      },
      {
        "type": "midi",
        "subType": "noteOn",
        "typeByte": 153,
        "deltaTime": 0,
        "channel": 9,
        "note": 42,
        "velocity": 127
      },
      {
        "type": "midi",
        "subType": "noteOff",
        "typeByte": 153,
        "deltaTime": 23,
        "channel": 9,
        "note": 42,
        "velocity": 0
      },
      {
        "type": "midi",
        "subType": "noteOff",
        "typeByte": 153,
        "deltaTime": 0,
        "channel": 9,
        "note": 36,
        "velocity": 0
      },
      {
        "type": "midi",
        "subType": "noteOff",
        "typeByte": 153,
        "deltaTime": 0,
        "channel": 9,
        "note": 61,
        "velocity": 0
      },
      {
        "type": "midi",
        "subType": "noteOff",
        "typeByte": 153,
        "deltaTime": 16,
        "channel": 9,
        "note": 51,
        "velocity": 0
      },
      {
        "type": "midi",
        "subType": "noteOff",
        "typeByte": 153,
        "deltaTime": 0,
        "channel": 9,
        "note": 40,
        "velocity": 0
      },
      {
        "type": "midi",
        "subType": "noteOn",
        "typeByte": 153,
        "deltaTime": 8,
        "channel": 9,
        "note": 38,
        "velocity": 127
      },
      {
        "type": "midi",
        "subType": "noteOn",
        "typeByte": 153,
        "deltaTime": 0,
        "channel": 9,
        "note": 61,
        "velocity": 127
      },
      {
        "type": "midi",
        "subType": "noteOn",
        "typeByte": 153,
        "deltaTime": 1,
        "channel": 9,
        "note": 42,
        "velocity": 127
      },
      {
        "type": "midi",
        "subType": "noteOff",
        "typeByte": 153,
        "deltaTime": 22,
        "channel": 9,
        "note": 42,
        "velocity": 0
      },
      {
        "type": "midi",
        "subType": "noteOff",
        "typeByte": 153,
        "deltaTime": 0,
        "channel": 9,
        "note": 61,
        "velocity": 0
      },
      {
        "type": "midi",
        "subType": "noteOff",
        "typeByte": 153,
        "deltaTime": 0,
        "channel": 9,
        "note": 38,
        "velocity": 0
      },
      {
        "type": "midi",
        "subType": "noteOn",
        "typeByte": 153,
        "deltaTime": 26,
        "channel": 9,
        "note": 61,
        "velocity": 127
      },
      {
        "type": "midi",
        "subType": "noteOn",
        "typeByte": 153,
        "deltaTime": 0,
        "channel": 9,
        "note": 42,
        "velocity": 127
      },
      {
        "type": "midi",
        "subType": "noteOff",
        "typeByte": 153,
        "deltaTime": 23,
        "channel": 9,
        "note": 61,
        "velocity": 0
      },
      {
        "type": "midi",
        "subType": "noteOff",
        "typeByte": 153,
        "deltaTime": 1,
        "channel": 9,
        "note": 42,
        "velocity": 0
      },
      {
        "type": "midi",
        "subType": "noteOn",
        "typeByte": 153,
        "deltaTime": 23,
        "channel": 9,
        "note": 36,
        "velocity": 127
      },
      {
        "type": "midi",
        "subType": "noteOn",
        "typeByte": 153,
        "deltaTime": 0,
        "channel": 9,
        "note": 61,
        "velocity": 127
      },
      {
        "type": "midi",
        "subType": "noteOn",
        "typeByte": 153,
        "deltaTime": 1,
        "channel": 9,
        "note": 42,
        "velocity": 127
      },
      {
        "type": "midi",
        "subType": "noteOff",
        "typeByte": 153,
        "deltaTime": 23,
        "channel": 9,
        "note": 61,
        "velocity": 0
      },
      {
        "type": "midi",
        "subType": "noteOff",
        "typeByte": 153,
        "deltaTime": 0,
        "channel": 9,
        "note": 36,
        "velocity": 0
      },
      {
        "type": "midi",
        "subType": "noteOff",
        "typeByte": 153,
        "deltaTime": 4,
        "channel": 9,
        "note": 42,
        "velocity": 0
      },
      {
        "type": "midi",
        "subType": "noteOn",
        "typeByte": 153,
        "deltaTime": 21,
        "channel": 9,
        "note": 61,
        "velocity": 127
      },
      {
        "type": "midi",
        "subType": "noteOn",
        "typeByte": 153,
        "deltaTime": 1,
        "channel": 9,
        "note": 42,
        "velocity": 127
      },
      {
        "type": "midi",
        "subType": "noteOff",
        "typeByte": 153,
        "deltaTime": 22,
        "channel": 9,
        "note": 42,
        "velocity": 0
      },
      {
        "type": "midi",
        "subType": "noteOff",
        "typeByte": 153,
        "deltaTime": 0,
        "channel": 9,
        "note": 61,
        "velocity": 0
      },
      {
        "type": "midi",
        "subType": "noteOn",
        "typeByte": 153,
        "deltaTime": 25,
        "channel": 9,
        "note": 38,
        "velocity": 127
      },
      {
        "type": "midi",
        "subType": "noteOn",
        "typeByte": 153,
        "deltaTime": 0,
        "channel": 9,
        "note": 61,
        "velocity": 127
      },
      {
        "type": "midi",
        "subType": "noteOn",
        "typeByte": 153,
        "deltaTime": 0,
        "channel": 9,
        "note": 42,
        "velocity": 127
      },
      {
        "type": "midi",
        "subType": "noteOff",
        "typeByte": 153,
        "deltaTime": 23,
        "channel": 9,
        "note": 42,
        "velocity": 0
      },
      {
        "type": "midi",
        "subType": "noteOff",
        "typeByte": 153,
        "deltaTime": 0,
        "channel": 9,
        "note": 61,
        "velocity": 0
      },
      {
        "type": "midi",
        "subType": "noteOff",
        "typeByte": 153,
        "deltaTime": 0,
        "channel": 9,
        "note": 38,
        "velocity": 0
      },
      {
        "type": "midi",
        "subType": "noteOn",
        "typeByte": 153,
        "deltaTime": 26,
        "channel": 9,
        "note": 61,
        "velocity": 127
      },
      {
        "type": "midi",
        "subType": "noteOn",
        "typeByte": 153,
        "deltaTime": 0,
        "channel": 9,
        "note": 42,
        "velocity": 127
      },
      {
        "type": "midi",
        "subType": "noteOff",
        "typeByte": 153,
        "deltaTime": 20,
        "channel": 9,
        "note": 42,
        "velocity": 0
      },
      {
        "type": "midi",
        "subType": "noteOff",
        "typeByte": 153,
        "deltaTime": 3,
        "channel": 9,
        "note": 61,
        "velocity": 0
      },
      {
        "type": "midi",
        "subType": "noteOn",
        "typeByte": 153,
        "deltaTime": 24,
        "channel": 9,
        "note": 36,
        "velocity": 127
      },
      {
        "type": "midi",
        "subType": "noteOn",
        "typeByte": 153,
        "deltaTime": 0,
        "channel": 9,
        "note": 61,
        "velocity": 127
      },
      {
        "type": "midi",
        "subType": "noteOn",
        "typeByte": 153,
        "deltaTime": 0,
        "channel": 9,
        "note": 40,
        "velocity": 127
      },
      {
        "type": "midi",
        "subType": "noteOn",
        "typeByte": 153,
        "deltaTime": 1,
        "channel": 9,
        "note": 51,
        "velocity": 127
      },
      {
        "type": "midi",
        "subType": "noteOn",
        "typeByte": 153,
        "deltaTime": 0,
        "channel": 9,
        "note": 42,
        "velocity": 127
      },
      {
        "type": "midi",
        "subType": "noteOff",
        "typeByte": 153,
        "deltaTime": 18,
        "channel": 9,
        "note": 42,
        "velocity": 0
      },
      {
        "type": "midi",
        "subType": "noteOff",
        "typeByte": 153,
        "deltaTime": 4,
        "channel": 9,
        "note": 36,
        "velocity": 0
      },
      {
        "type": "midi",
        "subType": "noteOff",
        "typeByte": 153,
        "deltaTime": 0,
        "channel": 9,
        "note": 61,
        "velocity": 0
      },
      {
        "type": "midi",
        "subType": "noteOn",
        "typeByte": 153,
        "deltaTime": 26,
        "channel": 9,
        "note": 36,
        "velocity": 127
      },
      {
        "type": "midi",
        "subType": "noteOn",
        "typeByte": 153,
        "deltaTime": 0,
        "channel": 9,
        "note": 61,
        "velocity": 127
      },
      {
        "type": "midi",
        "subType": "noteOn",
        "typeByte": 153,
        "deltaTime": 0,
        "channel": 9,
        "note": 42,
        "velocity": 127
      },
      {
        "type": "midi",
        "subType": "noteOff",
        "typeByte": 153,
        "deltaTime": 22,
        "channel": 9,
        "note": 42,
        "velocity": 0
      },
      {
        "type": "midi",
        "subType": "noteOff",
        "typeByte": 153,
        "deltaTime": 1,
        "channel": 9,
        "note": 36,
        "velocity": 0
      },
      {
        "type": "midi",
        "subType": "noteOff",
        "typeByte": 153,
        "deltaTime": 0,
        "channel": 9,
        "note": 61,
        "velocity": 0
      },
      {
        "type": "midi",
        "subType": "noteOff",
        "typeByte": 153,
        "deltaTime": 24,
        "channel": 9,
        "note": 40,
        "velocity": 0
      },
      {
        "type": "midi",
        "subType": "noteOn",
        "typeByte": 153,
        "deltaTime": 1,
        "channel": 9,
        "note": 38,
        "velocity": 127
      },
      {
        "type": "midi",
        "subType": "noteOn",
        "typeByte": 153,
        "deltaTime": 0,
        "channel": 9,
        "note": 61,
        "velocity": 127
      },
      {
        "type": "midi",
        "subType": "noteOn",
        "typeByte": 153,
        "deltaTime": 0,
        "channel": 9,
        "note": 42,
        "velocity": 127
      },
      {
        "type": "midi",
        "subType": "noteOff",
        "typeByte": 153,
        "deltaTime": 5,
        "channel": 9,
        "note": 51,
        "velocity": 0
      },
      {
        "type": "midi",
        "subType": "noteOff",
        "typeByte": 153,
        "deltaTime": 17,
        "channel": 9,
        "note": 38,
        "velocity": 0
      },
      {
        "type": "midi",
        "subType": "noteOff",
        "typeByte": 153,
        "deltaTime": 0,
        "channel": 9,
        "note": 61,
        "velocity": 0
      },
      {
        "type": "midi",
        "subType": "noteOff",
        "typeByte": 153,
        "deltaTime": 3,
        "channel": 9,
        "note": 42,
        "velocity": 0
      },
      {
        "type": "midi",
        "subType": "noteOn",
        "typeByte": 153,
        "deltaTime": 23,
        "channel": 9,
        "note": 61,
        "velocity": 127
      },
      {
        "type": "midi",
        "subType": "noteOn",
        "typeByte": 153,
        "deltaTime": 0,
        "channel": 9,
        "note": 42,
        "velocity": 127
      },
      {
        "type": "midi",
        "subType": "noteOff",
        "typeByte": 153,
        "deltaTime": 23,
        "channel": 9,
        "note": 42,
        "velocity": 0
      },
      {
        "type": "midi",
        "subType": "noteOff",
        "typeByte": 153,
        "deltaTime": 0,
        "channel": 9,
        "note": 61,
        "velocity": 0
      },
      {
        "type": "midi",
        "subType": "noteOn",
        "typeByte": 153,
        "deltaTime": 25,
        "channel": 9,
        "note": 36,
        "velocity": 127
      },
      {
        "type": "midi",
        "subType": "noteOn",
        "typeByte": 153,
        "deltaTime": 0,
        "channel": 9,
        "note": 61,
        "velocity": 127
      },
      {
        "type": "midi",
        "subType": "noteOn",
        "typeByte": 153,
        "deltaTime": 0,
        "channel": 9,
        "note": 42,
        "velocity": 127
      },
      {
        "type": "midi",
        "subType": "noteOff",
        "typeByte": 153,
        "deltaTime": 23,
        "channel": 9,
        "note": 42,
        "velocity": 0
      },
      {
        "type": "midi",
        "subType": "noteOff",
        "typeByte": 153,
        "deltaTime": 0,
        "channel": 9,
        "note": 61,
        "velocity": 0
      },
      {
        "type": "midi",
        "subType": "noteOff",
        "typeByte": 153,
        "deltaTime": 0,
        "channel": 9,
        "note": 36,
        "velocity": 0
      },
      {
        "type": "midi",
        "subType": "noteOn",
        "typeByte": 153,
        "deltaTime": 25,
        "channel": 9,
        "note": 61,
        "velocity": 127
      },
      {
        "type": "midi",
        "subType": "noteOn",
        "typeByte": 153,
        "deltaTime": 0,
        "channel": 9,
        "note": 42,
        "velocity": 127
      },
      {
        "type": "midi",
        "subType": "noteOff",
        "typeByte": 153,
        "deltaTime": 19,
        "channel": 9,
        "note": 42,
        "velocity": 0
      },
      {
        "type": "midi",
        "subType": "noteOff",
        "typeByte": 153,
        "deltaTime": 4,
        "channel": 9,
        "note": 61,
        "velocity": 0
      },
      {
        "type": "midi",
        "subType": "noteOn",
        "typeByte": 153,
        "deltaTime": 25,
        "channel": 9,
        "note": 38,
        "velocity": 127
      },
      {
        "type": "midi",
        "subType": "noteOn",
        "typeByte": 153,
        "deltaTime": 0,
        "channel": 9,
        "note": 61,
        "velocity": 127
      },
      {
        "type": "midi",
        "subType": "noteOn",
        "typeByte": 153,
        "deltaTime": 0,
        "channel": 9,
        "note": 42,
        "velocity": 127
      },
      {
        "type": "midi",
        "subType": "noteOff",
        "typeByte": 153,
        "deltaTime": 19,
        "channel": 9,
        "note": 42,
        "velocity": 0
      },
      {
        "type": "midi",
        "subType": "noteOff",
        "typeByte": 153,
        "deltaTime": 4,
        "channel": 9,
        "note": 61,
        "velocity": 0
      },
      {
        "type": "midi",
        "subType": "noteOff",
        "typeByte": 153,
        "deltaTime": 0,
        "channel": 9,
        "note": 38,
        "velocity": 0
      },
      {
        "type": "midi",
        "subType": "noteOn",
        "typeByte": 153,
        "deltaTime": 26,
        "channel": 9,
        "note": 61,
        "velocity": 127
      },
      {
        "type": "midi",
        "subType": "noteOn",
        "typeByte": 153,
        "deltaTime": 0,
        "channel": 9,
        "note": 42,
        "velocity": 127
      },
      {
        "type": "midi",
        "subType": "noteOff",
        "typeByte": 153,
        "deltaTime": 19,
        "channel": 9,
        "note": 42,
        "velocity": 0
      },
      {
        "type": "midi",
        "subType": "noteOff",
        "typeByte": 153,
        "deltaTime": 4,
        "channel": 9,
        "note": 61,
        "velocity": 0
      },
      {
        "type": "midi",
        "subType": "noteOn",
        "typeByte": 153,
        "deltaTime": 24,
        "channel": 9,
        "note": 36,
        "velocity": 127
      },
      {
        "type": "midi",
        "subType": "noteOn",
        "typeByte": 153,
        "deltaTime": 0,
        "channel": 9,
        "note": 61,
        "velocity": 127
      },
      {
        "type": "midi",
        "subType": "noteOn",
        "typeByte": 153,
        "deltaTime": 1,
        "channel": 9,
        "note": 51,
        "velocity": 127
      },
      {
        "type": "midi",
        "subType": "noteOn",
        "typeByte": 153,
        "deltaTime": 0,
        "channel": 9,
        "note": 40,
        "velocity": 127
      },
      {
        "type": "midi",
        "subType": "noteOn",
        "typeByte": 153,
        "deltaTime": 0,
        "channel": 9,
        "note": 42,
        "velocity": 127
      },
      {
        "type": "midi",
        "subType": "noteOff",
        "typeByte": 153,
        "deltaTime": 18,
        "channel": 9,
        "note": 42,
        "velocity": 0
      },
      {
        "type": "midi",
        "subType": "noteOff",
        "typeByte": 153,
        "deltaTime": 4,
        "channel": 9,
        "note": 36,
        "velocity": 0
      },
      {
        "type": "midi",
        "subType": "noteOff",
        "typeByte": 153,
        "deltaTime": 0,
        "channel": 9,
        "note": 61,
        "velocity": 0
      },
      {
        "type": "midi",
        "subType": "noteOn",
        "typeByte": 153,
        "deltaTime": 26,
        "channel": 9,
        "note": 36,
        "velocity": 127
      },
      {
        "type": "midi",
        "subType": "noteOn",
        "typeByte": 153,
        "deltaTime": 0,
        "channel": 9,
        "note": 61,
        "velocity": 127
      },
      {
        "type": "midi",
        "subType": "noteOn",
        "typeByte": 153,
        "deltaTime": 0,
        "channel": 9,
        "note": 42,
        "velocity": 127
      },
      {
        "type": "midi",
        "subType": "noteOff",
        "typeByte": 153,
        "deltaTime": 20,
        "channel": 9,
        "note": 42,
        "velocity": 0
      },
      {
        "type": "midi",
        "subType": "noteOff",
        "typeByte": 153,
        "deltaTime": 3,
        "channel": 9,
        "note": 36,
        "velocity": 0
      },
      {
        "type": "midi",
        "subType": "noteOff",
        "typeByte": 153,
        "deltaTime": 0,
        "channel": 9,
        "note": 61,
        "velocity": 0
      },
      {
        "type": "midi",
        "subType": "noteOff",
        "typeByte": 153,
        "deltaTime": 16,
        "channel": 9,
        "note": 51,
        "velocity": 0
      },
      {
        "type": "midi",
        "subType": "noteOff",
        "typeByte": 153,
        "deltaTime": 0,
        "channel": 9,
        "note": 40,
        "velocity": 0
      },
      {
        "type": "midi",
        "subType": "noteOn",
        "typeByte": 153,
        "deltaTime": 9,
        "channel": 9,
        "note": 38,
        "velocity": 127
      },
      {
        "type": "midi",
        "subType": "noteOn",
        "typeByte": 153,
        "deltaTime": 0,
        "channel": 9,
        "note": 61,
        "velocity": 127
      },
      {
        "type": "midi",
        "subType": "noteOn",
        "typeByte": 153,
        "deltaTime": 0,
        "channel": 9,
        "note": 42,
        "velocity": 127
      },
      {
        "type": "midi",
        "subType": "noteOff",
        "typeByte": 153,
        "deltaTime": 24,
        "channel": 9,
        "note": 61,
        "velocity": 0
      },
      {
        "type": "midi",
        "subType": "noteOff",
        "typeByte": 153,
        "deltaTime": 0,
        "channel": 9,
        "note": 38,
        "velocity": 0
      },
      {
        "type": "midi",
        "subType": "noteOff",
        "typeByte": 153,
        "deltaTime": 1,
        "channel": 9,
        "note": 42,
        "velocity": 0
      },
      {
        "type": "midi",
        "subType": "noteOn",
        "typeByte": 153,
        "deltaTime": 23,
        "channel": 9,
        "note": 61,
        "velocity": 127
      },
      {
        "type": "midi",
        "subType": "noteOn",
        "typeByte": 153,
        "deltaTime": 0,
        "channel": 9,
        "note": 42,
        "velocity": 127
      },
      {
        "type": "midi",
        "subType": "noteOff",
        "typeByte": 153,
        "deltaTime": 23,
        "channel": 9,
        "note": 61,
        "velocity": 0
      },
      {
        "type": "midi",
        "subType": "noteOff",
        "typeByte": 153,
        "deltaTime": 4,
        "channel": 9,
        "note": 42,
        "velocity": 0
      },
      {
        "type": "midi",
        "subType": "noteOn",
        "typeByte": 153,
        "deltaTime": 21,
        "channel": 9,
        "note": 36,
        "velocity": 127
      },
      {
        "type": "midi",
        "subType": "noteOn",
        "typeByte": 153,
        "deltaTime": 0,
        "channel": 9,
        "note": 61,
        "velocity": 127
      },
      {
        "type": "midi",
        "subType": "noteOn",
        "typeByte": 153,
        "deltaTime": 0,
        "channel": 9,
        "note": 42,
        "velocity": 127
      },
      {
        "type": "midi",
        "subType": "noteOff",
        "typeByte": 153,
        "deltaTime": 23,
        "channel": 9,
        "note": 61,
        "velocity": 0
      },
      {
        "type": "midi",
        "subType": "noteOff",
        "typeByte": 153,
        "deltaTime": 0,
        "channel": 9,
        "note": 36,
        "velocity": 0
      },
      {
        "type": "midi",
        "subType": "noteOff",
        "typeByte": 153,
        "deltaTime": 12,
        "channel": 9,
        "note": 42,
        "velocity": 0
      },
      {
        "type": "midi",
        "subType": "noteOn",
        "typeByte": 153,
        "deltaTime": 14,
        "channel": 9,
        "note": 61,
        "velocity": 127
      },
      {
        "type": "midi",
        "subType": "noteOn",
        "typeByte": 153,
        "deltaTime": 0,
        "channel": 9,
        "note": 42,
        "velocity": 127
      },
      {
        "type": "midi",
        "subType": "noteOff",
        "typeByte": 153,
        "deltaTime": 23,
        "channel": 9,
        "note": 61,
        "velocity": 0
      },
      {
        "type": "midi",
        "subType": "noteOff",
        "typeByte": 153,
        "deltaTime": 1,
        "channel": 9,
        "note": 42,
        "velocity": 0
      },
      {
        "type": "midi",
        "subType": "noteOn",
        "typeByte": 153,
        "deltaTime": 23,
        "channel": 9,
        "note": 38,
        "velocity": 127
      },
      {
        "type": "midi",
        "subType": "noteOn",
        "typeByte": 153,
        "deltaTime": 0,
        "channel": 9,
        "note": 61,
        "velocity": 127
      },
      {
        "type": "midi",
        "subType": "noteOn",
        "typeByte": 153,
        "deltaTime": 1,
        "channel": 9,
        "note": 42,
        "velocity": 127
      },
      {
        "type": "midi",
        "subType": "noteOff",
        "typeByte": 153,
        "deltaTime": 18,
        "channel": 9,
        "note": 42,
        "velocity": 0
      },
      {
        "type": "midi",
        "subType": "noteOff",
        "typeByte": 153,
        "deltaTime": 4,
        "channel": 9,
        "note": 61,
        "velocity": 0
      },
      {
        "type": "midi",
        "subType": "noteOff",
        "typeByte": 153,
        "deltaTime": 0,
        "channel": 9,
        "note": 38,
        "velocity": 0
      },
      {
        "type": "midi",
        "subType": "noteOn",
        "typeByte": 153,
        "deltaTime": 26,
        "channel": 9,
        "note": 61,
        "velocity": 127
      },
      {
        "type": "midi",
        "subType": "noteOn",
        "typeByte": 153,
        "deltaTime": 0,
        "channel": 9,
        "note": 42,
        "velocity": 127
      },
      {
        "type": "midi",
        "subType": "noteOff",
        "typeByte": 153,
        "deltaTime": 20,
        "channel": 9,
        "note": 42,
        "velocity": 0
      },
      {
        "type": "midi",
        "subType": "noteOff",
        "typeByte": 153,
        "deltaTime": 3,
        "channel": 9,
        "note": 61,
        "velocity": 0
      },
      {
        "type": "midi",
        "subType": "noteOn",
        "typeByte": 153,
        "deltaTime": 24,
        "channel": 9,
        "note": 36,
        "velocity": 127
      },
      {
        "type": "midi",
        "subType": "noteOn",
        "typeByte": 153,
        "deltaTime": 1,
        "channel": 9,
        "note": 61,
        "velocity": 127
      },
      {
        "type": "midi",
        "subType": "noteOn",
        "typeByte": 153,
        "deltaTime": 0,
        "channel": 9,
        "note": 40,
        "velocity": 127
      },
      {
        "type": "midi",
        "subType": "noteOn",
        "typeByte": 153,
        "deltaTime": 0,
        "channel": 9,
        "note": 51,
        "velocity": 127
      },
      {
        "type": "midi",
        "subType": "noteOn",
        "typeByte": 153,
        "deltaTime": 0,
        "channel": 9,
        "note": 42,
        "velocity": 127
      },
      {
        "type": "midi",
        "subType": "noteOff",
        "typeByte": 153,
        "deltaTime": 21,
        "channel": 9,
        "note": 42,
        "velocity": 0
      },
      {
        "type": "midi",
        "subType": "noteOff",
        "typeByte": 153,
        "deltaTime": 1,
        "channel": 9,
        "note": 36,
        "velocity": 0
      },
      {
        "type": "midi",
        "subType": "noteOff",
        "typeByte": 153,
        "deltaTime": 0,
        "channel": 9,
        "note": 61,
        "velocity": 0
      },
      {
        "type": "midi",
        "subType": "noteOn",
        "typeByte": 153,
        "deltaTime": 26,
        "channel": 9,
        "note": 36,
        "velocity": 127
      },
      {
        "type": "midi",
        "subType": "noteOn",
        "typeByte": 153,
        "deltaTime": 0,
        "channel": 9,
        "note": 61,
        "velocity": 127
      },
      {
        "type": "midi",
        "subType": "noteOn",
        "typeByte": 153,
        "deltaTime": 1,
        "channel": 9,
        "note": 42,
        "velocity": 127
      },
      {
        "type": "midi",
        "subType": "noteOff",
        "typeByte": 153,
        "deltaTime": 20,
        "channel": 9,
        "note": 42,
        "velocity": 0
      },
      {
        "type": "midi",
        "subType": "noteOff",
        "typeByte": 153,
        "deltaTime": 2,
        "channel": 9,
        "note": 36,
        "velocity": 0
      },
      {
        "type": "midi",
        "subType": "noteOff",
        "typeByte": 153,
        "deltaTime": 0,
        "channel": 9,
        "note": 61,
        "velocity": 0
      },
      {
        "type": "midi",
        "subType": "noteOff",
        "typeByte": 153,
        "deltaTime": 25,
        "channel": 9,
        "note": 40,
        "velocity": 0
      },
      {
        "type": "midi",
        "subType": "noteOn",
        "typeByte": 153,
        "deltaTime": 0,
        "channel": 9,
        "note": 38,
        "velocity": 127
      },
      {
        "type": "midi",
        "subType": "noteOn",
        "typeByte": 153,
        "deltaTime": 0,
        "channel": 9,
        "note": 61,
        "velocity": 127
      },
      {
        "type": "midi",
        "subType": "noteOn",
        "typeByte": 153,
        "deltaTime": 0,
        "channel": 9,
        "note": 42,
        "velocity": 127
      },
      {
        "type": "midi",
        "subType": "noteOff",
        "typeByte": 153,
        "deltaTime": 5,
        "channel": 9,
        "note": 51,
        "velocity": 0
      },
      {
        "type": "midi",
        "subType": "noteOff",
        "typeByte": 153,
        "deltaTime": 18,
        "channel": 9,
        "note": 38,
        "velocity": 0
      },
      {
        "type": "midi",
        "subType": "noteOff",
        "typeByte": 153,
        "deltaTime": 0,
        "channel": 9,
        "note": 61,
        "velocity": 0
      },
      {
        "type": "midi",
        "subType": "noteOff",
        "typeByte": 153,
        "deltaTime": 0,
        "channel": 9,
        "note": 42,
        "velocity": 0
      },
      {
        "type": "midi",
        "subType": "noteOn",
        "typeByte": 153,
        "deltaTime": 25,
        "channel": 9,
        "note": 61,
        "velocity": 127
      },
      {
        "type": "midi",
        "subType": "noteOn",
        "typeByte": 153,
        "deltaTime": 1,
        "channel": 9,
        "note": 42,
        "velocity": 127
      },
      {
        "type": "midi",
        "subType": "noteOff",
        "typeByte": 153,
        "deltaTime": 23,
        "channel": 9,
        "note": 42,
        "velocity": 0
      },
      {
        "type": "midi",
        "subType": "noteOff",
        "typeByte": 153,
        "deltaTime": 0,
        "channel": 9,
        "note": 61,
        "velocity": 0
      },
      {
        "type": "midi",
        "subType": "noteOn",
        "typeByte": 153,
        "deltaTime": 24,
        "channel": 9,
        "note": 36,
        "velocity": 127
      },
      {
        "type": "midi",
        "subType": "noteOn",
        "typeByte": 153,
        "deltaTime": 0,
        "channel": 9,
        "note": 61,
        "velocity": 127
      },
      {
        "type": "midi",
        "subType": "noteOn",
        "typeByte": 153,
        "deltaTime": 0,
        "channel": 9,
        "note": 42,
        "velocity": 127
      },
      {
        "type": "midi",
        "subType": "noteOff",
        "typeByte": 153,
        "deltaTime": 23,
        "channel": 9,
        "note": 61,
        "velocity": 0
      },
      {
        "type": "midi",
        "subType": "noteOff",
        "typeByte": 153,
        "deltaTime": 0,
        "channel": 9,
        "note": 36,
        "velocity": 0
      },
      {
        "type": "midi",
        "subType": "noteOff",
        "typeByte": 153,
        "deltaTime": 7,
        "channel": 9,
        "note": 42,
        "velocity": 0
      },
      {
        "type": "midi",
        "subType": "noteOn",
        "typeByte": 153,
        "deltaTime": 19,
        "channel": 9,
        "note": 61,
        "velocity": 127
      },
      {
        "type": "midi",
        "subType": "noteOn",
        "typeByte": 153,
        "deltaTime": 0,
        "channel": 9,
        "note": 42,
        "velocity": 127
      },
      {
        "type": "midi",
        "subType": "noteOff",
        "typeByte": 153,
        "deltaTime": 23,
        "channel": 9,
        "note": 42,
        "velocity": 0
      },
      {
        "type": "midi",
        "subType": "noteOff",
        "typeByte": 153,
        "deltaTime": 0,
        "channel": 9,
        "note": 61,
        "velocity": 0
      },
      {
        "type": "midi",
        "subType": "noteOn",
        "typeByte": 153,
        "deltaTime": 24,
        "channel": 9,
        "note": 38,
        "velocity": 127
      },
      {
        "type": "midi",
        "subType": "noteOn",
        "typeByte": 153,
        "deltaTime": 0,
        "channel": 9,
        "note": 61,
        "velocity": 127
      },
      {
        "type": "midi",
        "subType": "noteOn",
        "typeByte": 153,
        "deltaTime": 1,
        "channel": 9,
        "note": 42,
        "velocity": 127
      },
      {
        "type": "midi",
        "subType": "noteOff",
        "typeByte": 153,
        "deltaTime": 21,
        "channel": 9,
        "note": 42,
        "velocity": 0
      },
      {
        "type": "midi",
        "subType": "noteOff",
        "typeByte": 153,
        "deltaTime": 1,
        "channel": 9,
        "note": 61,
        "velocity": 0
      },
      {
        "type": "midi",
        "subType": "noteOff",
        "typeByte": 153,
        "deltaTime": 0,
        "channel": 9,
        "note": 38,
        "velocity": 0
      },
      {
        "type": "midi",
        "subType": "noteOn",
        "typeByte": 153,
        "deltaTime": 26,
        "channel": 9,
        "note": 61,
        "velocity": 127
      },
      {
        "type": "midi",
        "subType": "noteOn",
        "typeByte": 153,
        "deltaTime": 0,
        "channel": 9,
        "note": 42,
        "velocity": 127
      },
      {
        "type": "midi",
        "subType": "noteOff",
        "typeByte": 153,
        "deltaTime": 23,
        "channel": 9,
        "note": 42,
        "velocity": 0
      },
      {
        "type": "midi",
        "subType": "noteOff",
        "typeByte": 153,
        "deltaTime": 0,
        "channel": 9,
        "note": 61,
        "velocity": 0
      },
      {
        "type": "midi",
        "subType": "noteOn",
        "typeByte": 153,
        "deltaTime": 25,
        "channel": 9,
        "note": 36,
        "velocity": 127
      },
      {
        "type": "midi",
        "subType": "noteOn",
        "typeByte": 153,
        "deltaTime": 0,
        "channel": 9,
        "note": 61,
        "velocity": 127
      },
      {
        "type": "midi",
        "subType": "noteOn",
        "typeByte": 153,
        "deltaTime": 0,
        "channel": 9,
        "note": 51,
        "velocity": 127
      },
      {
        "type": "midi",
        "subType": "noteOn",
        "typeByte": 153,
        "deltaTime": 0,
        "channel": 9,
        "note": 40,
        "velocity": 127
      },
      {
        "type": "midi",
        "subType": "noteOn",
        "typeByte": 153,
        "deltaTime": 0,
        "channel": 9,
        "note": 42,
        "velocity": 127
      },
      {
        "type": "midi",
        "subType": "noteOff",
        "typeByte": 153,
        "deltaTime": 23,
        "channel": 9,
        "note": 42,
        "velocity": 0
      },
      {
        "type": "midi",
        "subType": "noteOff",
        "typeByte": 153,
        "deltaTime": 0,
        "channel": 9,
        "note": 36,
        "velocity": 0
      },
      {
        "type": "midi",
        "subType": "noteOff",
        "typeByte": 153,
        "deltaTime": 0,
        "channel": 9,
        "note": 61,
        "velocity": 0
      },
      {
        "type": "midi",
        "subType": "noteOn",
        "typeByte": 153,
        "deltaTime": 25,
        "channel": 9,
        "note": 36,
        "velocity": 127
      },
      {
        "type": "midi",
        "subType": "noteOn",
        "typeByte": 153,
        "deltaTime": 0,
        "channel": 9,
        "note": 61,
        "velocity": 127
      },
      {
        "type": "midi",
        "subType": "noteOn",
        "typeByte": 153,
        "deltaTime": 1,
        "channel": 9,
        "note": 42,
        "velocity": 127
      },
      {
        "type": "midi",
        "subType": "noteOff",
        "typeByte": 153,
        "deltaTime": 22,
        "channel": 9,
        "note": 61,
        "velocity": 0
      },
      {
        "type": "midi",
        "subType": "noteOff",
        "typeByte": 153,
        "deltaTime": 0,
        "channel": 9,
        "note": 36,
        "velocity": 0
      },
      {
        "type": "midi",
        "subType": "noteOff",
        "typeByte": 153,
        "deltaTime": 2,
        "channel": 9,
        "note": 42,
        "velocity": 0
      },
      {
        "type": "midi",
        "subType": "noteOff",
        "typeByte": 153,
        "deltaTime": 15,
        "channel": 9,
        "note": 51,
        "velocity": 0
      },
      {
        "type": "midi",
        "subType": "noteOff",
        "typeByte": 153,
        "deltaTime": 0,
        "channel": 9,
        "note": 40,
        "velocity": 0
      },
      {
        "type": "midi",
        "subType": "noteOn",
        "typeByte": 153,
        "deltaTime": 8,
        "channel": 9,
        "note": 38,
        "velocity": 127
      },
      {
        "type": "midi",
        "subType": "noteOn",
        "typeByte": 153,
        "deltaTime": 0,
        "channel": 9,
        "note": 61,
        "velocity": 127
      },
      {
        "type": "midi",
        "subType": "noteOn",
        "typeByte": 153,
        "deltaTime": 0,
        "channel": 9,
        "note": 42,
        "velocity": 127
      },
      {
        "type": "midi",
        "subType": "noteOff",
        "typeByte": 153,
        "deltaTime": 22,
        "channel": 9,
        "note": 42,
        "velocity": 0
      },
      {
        "type": "midi",
        "subType": "noteOff",
        "typeByte": 153,
        "deltaTime": 1,
        "channel": 9,
        "note": 61,
        "velocity": 0
      },
      {
        "type": "midi",
        "subType": "noteOff",
        "typeByte": 153,
        "deltaTime": 0,
        "channel": 9,
        "note": 38,
        "velocity": 0
      },
      {
        "type": "midi",
        "subType": "noteOn",
        "typeByte": 153,
        "deltaTime": 26,
        "channel": 9,
        "note": 61,
        "velocity": 127
      },
      {
        "type": "midi",
        "subType": "noteOn",
        "typeByte": 153,
        "deltaTime": 0,
        "channel": 9,
        "note": 42,
        "velocity": 127
      },
      {
        "type": "midi",
        "subType": "noteOff",
        "typeByte": 153,
        "deltaTime": 21,
        "channel": 9,
        "note": 42,
        "velocity": 0
      },
      {
        "type": "midi",
        "subType": "noteOff",
        "typeByte": 153,
        "deltaTime": 2,
        "channel": 9,
        "note": 61,
        "velocity": 0
      },
      {
        "type": "midi",
        "subType": "noteOn",
        "typeByte": 153,
        "deltaTime": 24,
        "channel": 9,
        "note": 36,
        "velocity": 127
      },
      {
        "type": "midi",
        "subType": "noteOn",
        "typeByte": 153,
        "deltaTime": 0,
        "channel": 9,
        "note": 61,
        "velocity": 127
      },
      {
        "type": "midi",
        "subType": "noteOn",
        "typeByte": 153,
        "deltaTime": 1,
        "channel": 9,
        "note": 42,
        "velocity": 127
      },
      {
        "type": "midi",
        "subType": "noteOff",
        "typeByte": 153,
        "deltaTime": 22,
        "channel": 9,
        "note": 61,
        "velocity": 0
      },
      {
        "type": "midi",
        "subType": "noteOff",
        "typeByte": 153,
        "deltaTime": 0,
        "channel": 9,
        "note": 36,
        "velocity": 0
      },
      {
        "type": "midi",
        "subType": "noteOff",
        "typeByte": 153,
        "deltaTime": 3,
        "channel": 9,
        "note": 42,
        "velocity": 0
      },
      {
        "type": "midi",
        "subType": "noteOn",
        "typeByte": 153,
        "deltaTime": 23,
        "channel": 9,
        "note": 61,
        "velocity": 127
      },
      {
        "type": "midi",
        "subType": "noteOn",
        "typeByte": 153,
        "deltaTime": 0,
        "channel": 9,
        "note": 42,
        "velocity": 127
      },
      {
        "type": "midi",
        "subType": "noteOff",
        "typeByte": 153,
        "deltaTime": 20,
        "channel": 9,
        "note": 42,
        "velocity": 0
      },
      {
        "type": "midi",
        "subType": "noteOff",
        "typeByte": 153,
        "deltaTime": 3,
        "channel": 9,
        "note": 61,
        "velocity": 0
      },
      {
        "type": "midi",
        "subType": "noteOn",
        "typeByte": 153,
        "deltaTime": 24,
        "channel": 9,
        "note": 38,
        "velocity": 127
      },
      {
        "type": "midi",
        "subType": "noteOn",
        "typeByte": 153,
        "deltaTime": 0,
        "channel": 9,
        "note": 61,
        "velocity": 127
      },
      {
        "type": "midi",
        "subType": "noteOn",
        "typeByte": 153,
        "deltaTime": 1,
        "channel": 9,
        "note": 42,
        "velocity": 127
      },
      {
        "type": "midi",
        "subType": "noteOff",
        "typeByte": 153,
        "deltaTime": 23,
        "channel": 9,
        "note": 42,
        "velocity": 0
      },
      {
        "type": "midi",
        "subType": "noteOff",
        "typeByte": 153,
        "deltaTime": 0,
        "channel": 9,
        "note": 61,
        "velocity": 0
      },
      {
        "type": "midi",
        "subType": "noteOff",
        "typeByte": 153,
        "deltaTime": 0,
        "channel": 9,
        "note": 38,
        "velocity": 0
      },
      {
        "type": "midi",
        "subType": "noteOn",
        "typeByte": 153,
        "deltaTime": 25,
        "channel": 9,
        "note": 61,
        "velocity": 127
      },
      {
        "type": "midi",
        "subType": "noteOn",
        "typeByte": 153,
        "deltaTime": 1,
        "channel": 9,
        "note": 42,
        "velocity": 127
      },
      {
        "type": "midi",
        "subType": "noteOff",
        "typeByte": 153,
        "deltaTime": 22,
        "channel": 9,
        "note": 42,
        "velocity": 0
      },
      {
        "type": "midi",
        "subType": "noteOff",
        "typeByte": 153,
        "deltaTime": 0,
        "channel": 9,
        "note": 61,
        "velocity": 0
      },
      {
        "type": "midi",
        "subType": "noteOn",
        "typeByte": 153,
        "deltaTime": 25,
        "channel": 9,
        "note": 36,
        "velocity": 127
      },
      {
        "type": "midi",
        "subType": "noteOn",
        "typeByte": 153,
        "deltaTime": 0,
        "channel": 9,
        "note": 61,
        "velocity": 127
      },
      {
        "type": "midi",
        "subType": "noteOn",
        "typeByte": 153,
        "deltaTime": 0,
        "channel": 9,
        "note": 40,
        "velocity": 127
      },
      {
        "type": "midi",
        "subType": "noteOn",
        "typeByte": 153,
        "deltaTime": 0,
        "channel": 9,
        "note": 51,
        "velocity": 127
      },
      {
        "type": "midi",
        "subType": "noteOn",
        "typeByte": 153,
        "deltaTime": 1,
        "channel": 9,
        "note": 42,
        "velocity": 127
      },
      {
        "type": "midi",
        "subType": "noteOff",
        "typeByte": 153,
        "deltaTime": 22,
        "channel": 9,
        "note": 42,
        "velocity": 0
      },
      {
        "type": "midi",
        "subType": "noteOff",
        "typeByte": 153,
        "deltaTime": 0,
        "channel": 9,
        "note": 36,
        "velocity": 0
      },
      {
        "type": "midi",
        "subType": "noteOff",
        "typeByte": 153,
        "deltaTime": 0,
        "channel": 9,
        "note": 61,
        "velocity": 0
      },
      {
        "type": "midi",
        "subType": "noteOn",
        "typeByte": 153,
        "deltaTime": 26,
        "channel": 9,
        "note": 36,
        "velocity": 127
      },
      {
        "type": "midi",
        "subType": "noteOn",
        "typeByte": 153,
        "deltaTime": 0,
        "channel": 9,
        "note": 61,
        "velocity": 127
      },
      {
        "type": "midi",
        "subType": "noteOn",
        "typeByte": 153,
        "deltaTime": 0,
        "channel": 9,
        "note": 42,
        "velocity": 127
      },
      {
        "type": "midi",
        "subType": "noteOff",
        "typeByte": 153,
        "deltaTime": 23,
        "channel": 9,
        "note": 61,
        "velocity": 0
      },
      {
        "type": "midi",
        "subType": "noteOff",
        "typeByte": 153,
        "deltaTime": 0,
        "channel": 9,
        "note": 36,
        "velocity": 0
      },
      {
        "type": "midi",
        "subType": "noteOff",
        "typeByte": 153,
        "deltaTime": 1,
        "channel": 9,
        "note": 42,
        "velocity": 0
      },
      {
        "type": "midi",
        "subType": "noteOff",
        "typeByte": 153,
        "deltaTime": 23,
        "channel": 9,
        "note": 40,
        "velocity": 0
      },
      {
        "type": "midi",
        "subType": "noteOn",
        "typeByte": 153,
        "deltaTime": 0,
        "channel": 9,
        "note": 38,
        "velocity": 127
      },
      {
        "type": "midi",
        "subType": "noteOn",
        "typeByte": 153,
        "deltaTime": 1,
        "channel": 9,
        "note": 61,
        "velocity": 127
      },
      {
        "type": "midi",
        "subType": "noteOn",
        "typeByte": 153,
        "deltaTime": 0,
        "channel": 9,
        "note": 42,
        "velocity": 127
      },
      {
        "type": "midi",
        "subType": "noteOff",
        "typeByte": 153,
        "deltaTime": 5,
        "channel": 9,
        "note": 51,
        "velocity": 0
      },
      {
        "type": "midi",
        "subType": "noteOff",
        "typeByte": 153,
        "deltaTime": 17,
        "channel": 9,
        "note": 38,
        "velocity": 0
      },
      {
        "type": "midi",
        "subType": "noteOff",
        "typeByte": 153,
        "deltaTime": 0,
        "channel": 9,
        "note": 61,
        "velocity": 0
      },
      {
        "type": "midi",
        "subType": "noteOff",
        "typeByte": 153,
        "deltaTime": 3,
        "channel": 9,
        "note": 42,
        "velocity": 0
      },
      {
        "type": "midi",
        "subType": "noteOn",
        "typeByte": 153,
        "deltaTime": 23,
        "channel": 9,
        "note": 61,
        "velocity": 127
      },
      {
        "type": "midi",
        "subType": "noteOn",
        "typeByte": 153,
        "deltaTime": 0,
        "channel": 9,
        "note": 42,
        "velocity": 127
      },
      {
        "type": "midi",
        "subType": "noteOff",
        "typeByte": 153,
        "deltaTime": 23,
        "channel": 9,
        "note": 61,
        "velocity": 0
      },
      {
        "type": "midi",
        "subType": "noteOff",
        "typeByte": 153,
        "deltaTime": 1,
        "channel": 9,
        "note": 42,
        "velocity": 0
      },
      {
        "type": "midi",
        "subType": "noteOn",
        "typeByte": 153,
        "deltaTime": 23,
        "channel": 9,
        "note": 36,
        "velocity": 127
      },
      {
        "type": "midi",
        "subType": "noteOn",
        "typeByte": 153,
        "deltaTime": 1,
        "channel": 9,
        "note": 61,
        "velocity": 127
      },
      {
        "type": "midi",
        "subType": "noteOn",
        "typeByte": 153,
        "deltaTime": 0,
        "channel": 9,
        "note": 42,
        "velocity": 127
      },
      {
        "type": "midi",
        "subType": "noteOff",
        "typeByte": 153,
        "deltaTime": 22,
        "channel": 9,
        "note": 61,
        "velocity": 0
      },
      {
        "type": "midi",
        "subType": "noteOff",
        "typeByte": 153,
        "deltaTime": 0,
        "channel": 9,
        "note": 36,
        "velocity": 0
      },
      {
        "type": "midi",
        "subType": "noteOff",
        "typeByte": 153,
        "deltaTime": 6,
        "channel": 9,
        "note": 42,
        "velocity": 0
      },
      {
        "type": "midi",
        "subType": "noteOn",
        "typeByte": 153,
        "deltaTime": 20,
        "channel": 9,
        "note": 61,
        "velocity": 127
      },
      {
        "type": "midi",
        "subType": "noteOn",
        "typeByte": 153,
        "deltaTime": 0,
        "channel": 9,
        "note": 42,
        "velocity": 127
      },
      {
        "type": "midi",
        "subType": "noteOff",
        "typeByte": 153,
        "deltaTime": 22,
        "channel": 9,
        "note": 42,
        "velocity": 0
      },
      {
        "type": "midi",
        "subType": "noteOff",
        "typeByte": 153,
        "deltaTime": 1,
        "channel": 9,
        "note": 61,
        "velocity": 0
      },
      {
        "type": "midi",
        "subType": "noteOn",
        "typeByte": 153,
        "deltaTime": 25,
        "channel": 9,
        "note": 38,
        "velocity": 127
      },
      {
        "type": "midi",
        "subType": "noteOn",
        "typeByte": 153,
        "deltaTime": 0,
        "channel": 9,
        "note": 61,
        "velocity": 127
      },
      {
        "type": "midi",
        "subType": "noteOn",
        "typeByte": 153,
        "deltaTime": 0,
        "channel": 9,
        "note": 42,
        "velocity": 127
      },
      {
        "type": "midi",
        "subType": "noteOff",
        "typeByte": 153,
        "deltaTime": 23,
        "channel": 9,
        "note": 42,
        "velocity": 0
      },
      {
        "type": "midi",
        "subType": "noteOff",
        "typeByte": 153,
        "deltaTime": 0,
        "channel": 9,
        "note": 61,
        "velocity": 0
      },
      {
        "type": "midi",
        "subType": "noteOff",
        "typeByte": 153,
        "deltaTime": 0,
        "channel": 9,
        "note": 38,
        "velocity": 0
      },
      {
        "type": "midi",
        "subType": "noteOn",
        "typeByte": 153,
        "deltaTime": 26,
        "channel": 9,
        "note": 61,
        "velocity": 127
      },
      {
        "type": "midi",
        "subType": "noteOn",
        "typeByte": 153,
        "deltaTime": 0,
        "channel": 9,
        "note": 42,
        "velocity": 127
      },
      {
        "type": "midi",
        "subType": "noteOff",
        "typeByte": 153,
        "deltaTime": 23,
        "channel": 9,
        "note": 61,
        "velocity": 0
      },
      {
        "type": "midi",
        "subType": "noteOff",
        "typeByte": 153,
        "deltaTime": 1,
        "channel": 9,
        "note": 42,
        "velocity": 0
      },
      {
        "type": "midi",
        "subType": "noteOn",
        "typeByte": 153,
        "deltaTime": 23,
        "channel": 9,
        "note": 36,
        "velocity": 127
      },
      {
        "type": "midi",
        "subType": "noteOn",
        "typeByte": 153,
        "deltaTime": 0,
        "channel": 9,
        "note": 61,
        "velocity": 127
      },
      {
        "type": "midi",
        "subType": "noteOn",
        "typeByte": 153,
        "deltaTime": 0,
        "channel": 9,
        "note": 51,
        "velocity": 127
      },
      {
        "type": "midi",
        "subType": "noteOn",
        "typeByte": 153,
        "deltaTime": 1,
        "channel": 9,
        "note": 40,
        "velocity": 127
      },
      {
        "type": "midi",
        "subType": "noteOn",
        "typeByte": 153,
        "deltaTime": 0,
        "channel": 9,
        "note": 42,
        "velocity": 127
      },
      {
        "type": "midi",
        "subType": "noteOff",
        "typeByte": 153,
        "deltaTime": 22,
        "channel": 9,
        "note": 61,
        "velocity": 0
      },
      {
        "type": "midi",
        "subType": "noteOff",
        "typeByte": 153,
        "deltaTime": 0,
        "channel": 9,
        "note": 36,
        "velocity": 0
      },
      {
        "type": "midi",
        "subType": "noteOff",
        "typeByte": 153,
        "deltaTime": 3,
        "channel": 9,
        "note": 42,
        "velocity": 0
      },
      {
        "type": "midi",
        "subType": "noteOn",
        "typeByte": 153,
        "deltaTime": 23,
        "channel": 9,
        "note": 36,
        "velocity": 127
      },
      {
        "type": "midi",
        "subType": "noteOn",
        "typeByte": 153,
        "deltaTime": 0,
        "channel": 9,
        "note": 61,
        "velocity": 127
      },
      {
        "type": "midi",
        "subType": "noteOn",
        "typeByte": 153,
        "deltaTime": 0,
        "channel": 9,
        "note": 42,
        "velocity": 127
      },
      {
        "type": "midi",
        "subType": "noteOff",
        "typeByte": 153,
        "deltaTime": 23,
        "channel": 9,
        "note": 61,
        "velocity": 0
      },
      {
        "type": "midi",
        "subType": "noteOff",
        "typeByte": 153,
        "deltaTime": 0,
        "channel": 9,
        "note": 36,
        "velocity": 0
      },
      {
        "type": "midi",
        "subType": "noteOff",
        "typeByte": 153,
        "deltaTime": 1,
        "channel": 9,
        "note": 42,
        "velocity": 0
      },
      {
        "type": "midi",
        "subType": "noteOff",
        "typeByte": 153,
        "deltaTime": 15,
        "channel": 9,
        "note": 51,
        "velocity": 0
      },
      {
        "type": "midi",
        "subType": "noteOff",
        "typeByte": 153,
        "deltaTime": 0,
        "channel": 9,
        "note": 40,
        "velocity": 0
      },
      {
        "type": "midi",
        "subType": "noteOn",
        "typeByte": 153,
        "deltaTime": 8,
        "channel": 9,
        "note": 38,
        "velocity": 127
      },
      {
        "type": "midi",
        "subType": "noteOn",
        "typeByte": 153,
        "deltaTime": 0,
        "channel": 9,
        "note": 61,
        "velocity": 127
      },
      {
        "type": "midi",
        "subType": "noteOn",
        "typeByte": 153,
        "deltaTime": 1,
        "channel": 9,
        "note": 42,
        "velocity": 127
      },
      {
        "type": "midi",
        "subType": "noteOff",
        "typeByte": 153,
        "deltaTime": 22,
        "channel": 9,
        "note": 61,
        "velocity": 0
      },
      {
        "type": "midi",
        "subType": "noteOff",
        "typeByte": 153,
        "deltaTime": 0,
        "channel": 9,
        "note": 38,
        "velocity": 0
      },
      {
        "type": "midi",
        "subType": "noteOff",
        "typeByte": 153,
        "deltaTime": 3,
        "channel": 9,
        "note": 42,
        "velocity": 0
      },
      {
        "type": "midi",
        "subType": "noteOn",
        "typeByte": 153,
        "deltaTime": 23,
        "channel": 9,
        "note": 61,
        "velocity": 127
      },
      {
        "type": "midi",
        "subType": "noteOn",
        "typeByte": 153,
        "deltaTime": 0,
        "channel": 9,
        "note": 42,
        "velocity": 127
      },
      {
        "type": "midi",
        "subType": "noteOff",
        "typeByte": 153,
        "deltaTime": 23,
        "channel": 9,
        "note": 61,
        "velocity": 0
      },
      {
        "type": "midi",
        "subType": "noteOff",
        "typeByte": 153,
        "deltaTime": 1,
        "channel": 9,
        "note": 42,
        "velocity": 0
      },
      {
        "type": "midi",
        "subType": "noteOn",
        "typeByte": 153,
        "deltaTime": 24,
        "channel": 9,
        "note": 36,
        "velocity": 127
      },
      {
        "type": "midi",
        "subType": "noteOn",
        "typeByte": 153,
        "deltaTime": 0,
        "channel": 9,
        "note": 61,
        "velocity": 127
      },
      {
        "type": "midi",
        "subType": "noteOn",
        "typeByte": 153,
        "deltaTime": 0,
        "channel": 9,
        "note": 42,
        "velocity": 127
      },
      {
        "type": "midi",
        "subType": "noteOff",
        "typeByte": 153,
        "deltaTime": 23,
        "channel": 9,
        "note": 61,
        "velocity": 0
      },
      {
        "type": "midi",
        "subType": "noteOff",
        "typeByte": 153,
        "deltaTime": 0,
        "channel": 9,
        "note": 36,
        "velocity": 0
      },
      {
        "type": "midi",
        "subType": "noteOff",
        "typeByte": 153,
        "deltaTime": 2,
        "channel": 9,
        "note": 42,
        "velocity": 0
      },
      {
        "type": "midi",
        "subType": "noteOn",
        "typeByte": 153,
        "deltaTime": 23,
        "channel": 9,
        "note": 61,
        "velocity": 127
      },
      {
        "type": "midi",
        "subType": "noteOn",
        "typeByte": 153,
        "deltaTime": 1,
        "channel": 9,
        "note": 42,
        "velocity": 127
      },
      {
        "type": "midi",
        "subType": "noteOff",
        "typeByte": 153,
        "deltaTime": 22,
        "channel": 9,
        "note": 61,
        "velocity": 0
      },
      {
        "type": "midi",
        "subType": "noteOff",
        "typeByte": 153,
        "deltaTime": 3,
        "channel": 9,
        "note": 42,
        "velocity": 0
      },
      {
        "type": "midi",
        "subType": "noteOn",
        "typeByte": 153,
        "deltaTime": 22,
        "channel": 9,
        "note": 38,
        "velocity": 127
      },
      {
        "type": "midi",
        "subType": "noteOn",
        "typeByte": 153,
        "deltaTime": 0,
        "channel": 9,
        "note": 61,
        "velocity": 127
      },
      {
        "type": "midi",
        "subType": "noteOn",
        "typeByte": 153,
        "deltaTime": 0,
        "channel": 9,
        "note": 42,
        "velocity": 127
      },
      {
        "type": "midi",
        "subType": "noteOff",
        "typeByte": 153,
        "deltaTime": 23,
        "channel": 9,
        "note": 42,
        "velocity": 0
      },
      {
        "type": "midi",
        "subType": "noteOff",
        "typeByte": 153,
        "deltaTime": 0,
        "channel": 9,
        "note": 61,
        "velocity": 0
      },
      {
        "type": "midi",
        "subType": "noteOff",
        "typeByte": 153,
        "deltaTime": 0,
        "channel": 9,
        "note": 38,
        "velocity": 0
      },
      {
        "type": "midi",
        "subType": "noteOn",
        "typeByte": 153,
        "deltaTime": 26,
        "channel": 9,
        "note": 61,
        "velocity": 127
      },
      {
        "type": "midi",
        "subType": "noteOn",
        "typeByte": 153,
        "deltaTime": 0,
        "channel": 9,
        "note": 42,
        "velocity": 127
      },
      {
        "type": "midi",
        "subType": "noteOff",
        "typeByte": 153,
        "deltaTime": 23,
        "channel": 9,
        "note": 42,
        "velocity": 0
      },
      {
        "type": "midi",
        "subType": "noteOff",
        "typeByte": 153,
        "deltaTime": 0,
        "channel": 9,
        "note": 61,
        "velocity": 0
      },
      {
        "type": "midi",
        "subType": "noteOn",
        "typeByte": 153,
        "deltaTime": 24,
        "channel": 9,
        "note": 36,
        "velocity": 127
      },
      {
        "type": "midi",
        "subType": "noteOn",
        "typeByte": 153,
        "deltaTime": 0,
        "channel": 9,
        "note": 61,
        "velocity": 127
      },
      {
        "type": "midi",
        "subType": "noteOn",
        "typeByte": 153,
        "deltaTime": 1,
        "channel": 9,
        "note": 40,
        "velocity": 127
      },
      {
        "type": "midi",
        "subType": "noteOn",
        "typeByte": 153,
        "deltaTime": 0,
        "channel": 9,
        "note": 51,
        "velocity": 127
      },
      {
        "type": "midi",
        "subType": "noteOn",
        "typeByte": 153,
        "deltaTime": 0,
        "channel": 9,
        "note": 42,
        "velocity": 127
      },
      {
        "type": "midi",
        "subType": "noteOff",
        "typeByte": 153,
        "deltaTime": 22,
        "channel": 9,
        "note": 42,
        "velocity": 0
      },
      {
        "type": "midi",
        "subType": "noteOff",
        "typeByte": 153,
        "deltaTime": 0,
        "channel": 9,
        "note": 36,
        "velocity": 0
      },
      {
        "type": "midi",
        "subType": "noteOff",
        "typeByte": 153,
        "deltaTime": 0,
        "channel": 9,
        "note": 61,
        "velocity": 0
      },
      {
        "type": "midi",
        "subType": "noteOn",
        "typeByte": 153,
        "deltaTime": 26,
        "channel": 9,
        "note": 36,
        "velocity": 127
      },
      {
        "type": "midi",
        "subType": "noteOn",
        "typeByte": 153,
        "deltaTime": 0,
        "channel": 9,
        "note": 61,
        "velocity": 127
      },
      {
        "type": "midi",
        "subType": "noteOn",
        "typeByte": 153,
        "deltaTime": 0,
        "channel": 9,
        "note": 42,
        "velocity": 127
      },
      {
        "type": "midi",
        "subType": "noteOff",
        "typeByte": 153,
        "deltaTime": 22,
        "channel": 9,
        "note": 42,
        "velocity": 0
      },
      {
        "type": "midi",
        "subType": "noteOff",
        "typeByte": 153,
        "deltaTime": 1,
        "channel": 9,
        "note": 36,
        "velocity": 0
      },
      {
        "type": "midi",
        "subType": "noteOff",
        "typeByte": 153,
        "deltaTime": 0,
        "channel": 9,
        "note": 61,
        "velocity": 0
      },
      {
        "type": "midi",
        "subType": "noteOff",
        "typeByte": 153,
        "deltaTime": 24,
        "channel": 9,
        "note": 40,
        "velocity": 0
      },
      {
        "type": "midi",
        "subType": "noteOn",
        "typeByte": 153,
        "deltaTime": 1,
        "channel": 9,
        "note": 38,
        "velocity": 127
      },
      {
        "type": "midi",
        "subType": "noteOn",
        "typeByte": 153,
        "deltaTime": 0,
        "channel": 9,
        "note": 61,
        "velocity": 127
      },
      {
        "type": "midi",
        "subType": "noteOn",
        "typeByte": 153,
        "deltaTime": 0,
        "channel": 9,
        "note": 42,
        "velocity": 127
      },
      {
        "type": "midi",
        "subType": "noteOff",
        "typeByte": 153,
        "deltaTime": 5,
        "channel": 9,
        "note": 51,
        "velocity": 0
      },
      {
        "type": "midi",
        "subType": "noteOff",
        "typeByte": 153,
        "deltaTime": 17,
        "channel": 9,
        "note": 38,
        "velocity": 0
      },
      {
        "type": "midi",
        "subType": "noteOff",
        "typeByte": 153,
        "deltaTime": 0,
        "channel": 9,
        "note": 61,
        "velocity": 0
      },
      {
        "type": "midi",
        "subType": "noteOff",
        "typeByte": 153,
        "deltaTime": 2,
        "channel": 9,
        "note": 42,
        "velocity": 0
      },
      {
        "type": "midi",
        "subType": "noteOn",
        "typeByte": 153,
        "deltaTime": 24,
        "channel": 9,
        "note": 61,
        "velocity": 127
      },
      {
        "type": "midi",
        "subType": "noteOn",
        "typeByte": 153,
        "deltaTime": 0,
        "channel": 9,
        "note": 42,
        "velocity": 127
      },
      {
        "type": "midi",
        "subType": "noteOff",
        "typeByte": 153,
        "deltaTime": 22,
        "channel": 9,
        "note": 42,
        "velocity": 0
      },
      {
        "type": "midi",
        "subType": "noteOff",
        "typeByte": 153,
        "deltaTime": 1,
        "channel": 9,
        "note": 61,
        "velocity": 0
      },
      {
        "type": "midi",
        "subType": "noteOn",
        "typeByte": 153,
        "deltaTime": 25,
        "channel": 9,
        "note": 36,
        "velocity": 127
      },
      {
        "type": "midi",
        "subType": "noteOn",
        "typeByte": 153,
        "deltaTime": 0,
        "channel": 9,
        "note": 61,
        "velocity": 127
      },
      {
        "type": "midi",
        "subType": "noteOn",
        "typeByte": 153,
        "deltaTime": 0,
        "channel": 9,
        "note": 42,
        "velocity": 127
      },
      {
        "type": "midi",
        "subType": "noteOff",
        "typeByte": 153,
        "deltaTime": 19,
        "channel": 9,
        "note": 42,
        "velocity": 0
      },
      {
        "type": "midi",
        "subType": "noteOff",
        "typeByte": 153,
        "deltaTime": 4,
        "channel": 9,
        "note": 61,
        "velocity": 0
      },
      {
        "type": "midi",
        "subType": "noteOff",
        "typeByte": 153,
        "deltaTime": 0,
        "channel": 9,
        "note": 36,
        "velocity": 0
      },
      {
        "type": "midi",
        "subType": "noteOn",
        "typeByte": 153,
        "deltaTime": 26,
        "channel": 9,
        "note": 61,
        "velocity": 127
      },
      {
        "type": "midi",
        "subType": "noteOn",
        "typeByte": 153,
        "deltaTime": 0,
        "channel": 9,
        "note": 42,
        "velocity": 127
      },
      {
        "type": "midi",
        "subType": "noteOff",
        "typeByte": 153,
        "deltaTime": 16,
        "channel": 9,
        "note": 42,
        "velocity": 0
      },
      {
        "type": "midi",
        "subType": "noteOff",
        "typeByte": 153,
        "deltaTime": 7,
        "channel": 9,
        "note": 61,
        "velocity": 0
      },
      {
        "type": "midi",
        "subType": "noteOn",
        "typeByte": 153,
        "deltaTime": 24,
        "channel": 9,
        "note": 38,
        "velocity": 127
      },
      {
        "type": "midi",
        "subType": "noteOn",
        "typeByte": 153,
        "deltaTime": 0,
        "channel": 9,
        "note": 61,
        "velocity": 127
      },
      {
        "type": "midi",
        "subType": "noteOn",
        "typeByte": 153,
        "deltaTime": 0,
        "channel": 9,
        "note": 42,
        "velocity": 127
      },
      {
        "type": "midi",
        "subType": "noteOff",
        "typeByte": 153,
        "deltaTime": 20,
        "channel": 9,
        "note": 42,
        "velocity": 0
      },
      {
        "type": "midi",
        "subType": "noteOff",
        "typeByte": 153,
        "deltaTime": 3,
        "channel": 9,
        "note": 61,
        "velocity": 0
      },
      {
        "type": "midi",
        "subType": "noteOff",
        "typeByte": 153,
        "deltaTime": 0,
        "channel": 9,
        "note": 38,
        "velocity": 0
      },
      {
        "type": "midi",
        "subType": "noteOn",
        "typeByte": 153,
        "deltaTime": 26,
        "channel": 9,
        "note": 61,
        "velocity": 127
      },
      {
        "type": "midi",
        "subType": "noteOn",
        "typeByte": 153,
        "deltaTime": 0,
        "channel": 9,
        "note": 42,
        "velocity": 127
      },
      {
        "type": "midi",
        "subType": "noteOff",
        "typeByte": 153,
        "deltaTime": 13,
        "channel": 9,
        "note": 42,
        "velocity": 0
      },
      {
        "type": "midi",
        "subType": "noteOff",
        "typeByte": 153,
        "deltaTime": 10,
        "channel": 9,
        "note": 61,
        "velocity": 0
      },
      {
        "type": "midi",
        "subType": "noteOn",
        "typeByte": 153,
        "deltaTime": 24,
        "channel": 9,
        "note": 36,
        "velocity": 127
      },
      {
        "type": "midi",
        "subType": "noteOn",
        "typeByte": 153,
        "deltaTime": 0,
        "channel": 9,
        "note": 61,
        "velocity": 127
      },
      {
        "type": "midi",
        "subType": "noteOn",
        "typeByte": 153,
        "deltaTime": 1,
        "channel": 9,
        "note": 51,
        "velocity": 127
      },
      {
        "type": "midi",
        "subType": "noteOn",
        "typeByte": 153,
        "deltaTime": 0,
        "channel": 9,
        "note": 40,
        "velocity": 127
      },
      {
        "type": "midi",
        "subType": "noteOn",
        "typeByte": 153,
        "deltaTime": 0,
        "channel": 9,
        "note": 42,
        "velocity": 127
      },
      {
        "type": "midi",
        "subType": "noteOff",
        "typeByte": 153,
        "deltaTime": 21,
        "channel": 9,
        "note": 42,
        "velocity": 0
      },
      {
        "type": "midi",
        "subType": "noteOff",
        "typeByte": 153,
        "deltaTime": 1,
        "channel": 9,
        "note": 36,
        "velocity": 0
      },
      {
        "type": "midi",
        "subType": "noteOff",
        "typeByte": 153,
        "deltaTime": 0,
        "channel": 9,
        "note": 61,
        "velocity": 0
      },
      {
        "type": "midi",
        "subType": "noteOn",
        "typeByte": 153,
        "deltaTime": 26,
        "channel": 9,
        "note": 36,
        "velocity": 127
      },
      {
        "type": "midi",
        "subType": "noteOn",
        "typeByte": 153,
        "deltaTime": 0,
        "channel": 9,
        "note": 61,
        "velocity": 127
      },
      {
        "type": "midi",
        "subType": "noteOn",
        "typeByte": 153,
        "deltaTime": 1,
        "channel": 9,
        "note": 42,
        "velocity": 127
      },
      {
        "type": "midi",
        "subType": "noteOff",
        "typeByte": 153,
        "deltaTime": 22,
        "channel": 9,
        "note": 42,
        "velocity": 0
      },
      {
        "type": "midi",
        "subType": "noteOff",
        "typeByte": 153,
        "deltaTime": 0,
        "channel": 9,
        "note": 36,
        "velocity": 0
      },
      {
        "type": "midi",
        "subType": "noteOff",
        "typeByte": 153,
        "deltaTime": 0,
        "channel": 9,
        "note": 61,
        "velocity": 0
      },
      {
        "type": "midi",
        "subType": "noteOff",
        "typeByte": 153,
        "deltaTime": 16,
        "channel": 9,
        "note": 51,
        "velocity": 0
      },
      {
        "type": "midi",
        "subType": "noteOff",
        "typeByte": 153,
        "deltaTime": 0,
        "channel": 9,
        "note": 40,
        "velocity": 0
      },
      {
        "type": "midi",
        "subType": "noteOn",
        "typeByte": 153,
        "deltaTime": 9,
        "channel": 9,
        "note": 38,
        "velocity": 127
      },
      {
        "type": "midi",
        "subType": "noteOn",
        "typeByte": 153,
        "deltaTime": 0,
        "channel": 9,
        "note": 61,
        "velocity": 127
      },
      {
        "type": "midi",
        "subType": "noteOn",
        "typeByte": 153,
        "deltaTime": 0,
        "channel": 9,
        "note": 42,
        "velocity": 127
      },
      {
        "type": "midi",
        "subType": "noteOff",
        "typeByte": 153,
        "deltaTime": 23,
        "channel": 9,
        "note": 42,
        "velocity": 0
      },
      {
        "type": "midi",
        "subType": "noteOff",
        "typeByte": 153,
        "deltaTime": 0,
        "channel": 9,
        "note": 61,
        "velocity": 0
      },
      {
        "type": "midi",
        "subType": "noteOff",
        "typeByte": 153,
        "deltaTime": 0,
        "channel": 9,
        "note": 38,
        "velocity": 0
      },
      {
        "type": "midi",
        "subType": "noteOn",
        "typeByte": 153,
        "deltaTime": 25,
        "channel": 9,
        "note": 61,
        "velocity": 127
      },
      {
        "type": "midi",
        "subType": "noteOn",
        "typeByte": 153,
        "deltaTime": 0,
        "channel": 9,
        "note": 42,
        "velocity": 127
      },
      {
        "type": "midi",
        "subType": "noteOff",
        "typeByte": 153,
        "deltaTime": 23,
        "channel": 9,
        "note": 61,
        "velocity": 0
      },
      {
        "type": "midi",
        "subType": "noteOff",
        "typeByte": 153,
        "deltaTime": 2,
        "channel": 9,
        "note": 42,
        "velocity": 0
      },
      {
        "type": "midi",
        "subType": "noteOn",
        "typeByte": 153,
        "deltaTime": 168,
        "channel": 9,
        "note": 61,
        "velocity": 127
      },
      {
        "type": "midi",
        "subType": "controller",
        "typeByte": 185,
        "deltaTime": 12,
        "channel": 9,
        "controllerType": 66,
        "value": 0
      },
      {
        "type": "midi",
        "subType": "noteOff",
        "typeByte": 153,
        "deltaTime": 10,
        "channel": 9,
        "note": 61,
        "velocity": 0
      },
      {
        "type": "midi",
        "subType": "noteOn",
        "typeByte": 153,
        "deltaTime": 25,
        "channel": 9,
        "note": 61,
        "velocity": 127
      },
      {
        "type": "midi",
        "subType": "noteOff",
        "typeByte": 153,
        "deltaTime": 26,
        "channel": 9,
        "note": 61,
        "velocity": 0
      },
      {
        "type": "midi",
        "subType": "noteOn",
        "typeByte": 153,
        "deltaTime": 23,
        "channel": 9,
        "note": 61,
        "velocity": 127
      },
      {
        "type": "midi",
        "subType": "noteOff",
        "typeByte": 153,
        "deltaTime": 10,
        "channel": 9,
        "note": 61,
        "velocity": 0
      },
      {
        "type": "midi",
        "subType": "noteOn",
        "typeByte": 153,
        "deltaTime": 279,
        "channel": 9,
        "note": 61,
        "velocity": 127
      },
      {
        "type": "midi",
        "subType": "controller",
        "typeByte": 185,
        "deltaTime": 12,
        "channel": 9,
        "controllerType": 66,
        "value": 0
      },
      {
        "type": "midi",
        "subType": "noteOff",
        "typeByte": 153,
        "deltaTime": 10,
        "channel": 9,
        "note": 61,
        "velocity": 0
      },
      {
        "type": "midi",
        "subType": "noteOn",
        "typeByte": 153,
        "deltaTime": 26,
        "channel": 9,
        "note": 61,
        "velocity": 127
      },
      {
        "type": "midi",
        "subType": "noteOff",
        "typeByte": 153,
        "deltaTime": 25,
        "channel": 9,
        "note": 61,
        "velocity": 0
      },
      {
        "type": "midi",
        "subType": "noteOn",
        "typeByte": 153,
        "deltaTime": 23,
        "channel": 9,
        "note": 61,
        "velocity": 127
      },
      {
        "type": "midi",
        "subType": "noteOff",
        "typeByte": 153,
        "deltaTime": 10,
        "channel": 9,
        "note": 61,
        "velocity": 0
      },
      {
        "type": "midi",
        "subType": "noteOn",
        "typeByte": 153,
        "deltaTime": 279,
        "channel": 9,
        "note": 61,
        "velocity": 127
      },
      {
        "type": "midi",
        "subType": "controller",
        "typeByte": 185,
        "deltaTime": 13,
        "channel": 9,
        "controllerType": 66,
        "value": 0
      },
      {
        "type": "midi",
        "subType": "noteOff",
        "typeByte": 153,
        "deltaTime": 9,
        "channel": 9,
        "note": 61,
        "velocity": 0
      },
      {
        "type": "midi",
        "subType": "noteOn",
        "typeByte": 153,
        "deltaTime": 26,
        "channel": 9,
        "note": 61,
        "velocity": 127
      },
      {
        "type": "midi",
        "subType": "noteOff",
        "typeByte": 153,
        "deltaTime": 26,
        "channel": 9,
        "note": 61,
        "velocity": 0
      },
      {
        "type": "midi",
        "subType": "noteOn",
        "typeByte": 153,
        "deltaTime": 23,
        "channel": 9,
        "note": 61,
        "velocity": 127
      },
      {
        "type": "midi",
        "subType": "noteOff",
        "typeByte": 153,
        "deltaTime": 9,
        "channel": 9,
        "note": 61,
        "velocity": 0
      },
      {
        "type": "midi",
        "subType": "noteOn",
        "typeByte": 153,
        "deltaTime": 280,
        "channel": 9,
        "note": 36,
        "velocity": 127
      },
      {
        "type": "midi",
        "subType": "noteOn",
        "typeByte": 153,
        "deltaTime": 0,
        "channel": 9,
        "note": 61,
        "velocity": 127
      },
      {
        "type": "midi",
        "subType": "controller",
        "typeByte": 185,
        "deltaTime": 12,
        "channel": 9,
        "controllerType": 66,
        "value": 0
      },
      {
        "type": "midi",
        "subType": "noteOff",
        "typeByte": 153,
        "deltaTime": 9,
        "channel": 9,
        "note": 61,
        "velocity": 0
      },
      {
        "type": "midi",
        "subType": "noteOff",
        "typeByte": 153,
        "deltaTime": 7,
        "channel": 9,
        "note": 36,
        "velocity": 0
      },
      {
        "type": "midi",
        "subType": "noteOn",
        "typeByte": 153,
        "deltaTime": 19,
        "channel": 9,
        "note": 38,
        "velocity": 127
      },
      {
        "type": "midi",
        "subType": "noteOn",
        "typeByte": 153,
        "deltaTime": 0,
        "channel": 9,
        "note": 61,
        "velocity": 127
      },
      {
        "type": "midi",
        "subType": "noteOff",
        "typeByte": 153,
        "deltaTime": 26,
        "channel": 9,
        "note": 61,
        "velocity": 0
      },
      {
        "type": "midi",
        "subType": "noteOff",
        "typeByte": 153,
        "deltaTime": 0,
        "channel": 9,
        "note": 38,
        "velocity": 0
      },
      {
        "type": "midi",
        "subType": "noteOn",
        "typeByte": 153,
        "deltaTime": 23,
        "channel": 9,
        "note": 38,
        "velocity": 127
      },
      {
        "type": "midi",
        "subType": "noteOn",
        "typeByte": 153,
        "deltaTime": 0,
        "channel": 9,
        "note": 61,
        "velocity": 127
      },
      {
        "type": "midi",
        "subType": "noteOff",
        "typeByte": 153,
        "deltaTime": 9,
        "channel": 9,
        "note": 61,
        "velocity": 0
      },
      {
        "type": "midi",
        "subType": "noteOff",
        "typeByte": 153,
        "deltaTime": 14,
        "channel": 9,
        "note": 38,
        "velocity": 0
      },
      {
        "type": "midi",
        "subType": "controller",
        "typeByte": 185,
        "deltaTime": 19,
        "channel": 9,
        "controllerType": 66,
        "value": 0
      },
      {
        "type": "midi",
        "subType": "noteOn",
        "typeByte": 153,
        "deltaTime": 5,
        "channel": 9,
        "note": 40,
        "velocity": 127
      },
      {
        "type": "midi",
        "subType": "noteOn",
        "typeByte": 153,
        "deltaTime": 0,
        "channel": 9,
        "note": 38,
        "velocity": 127
      },
      {
        "type": "midi",
        "subType": "noteOff",
        "typeByte": 153,
        "deltaTime": 23,
        "channel": 9,
        "note": 38,
        "velocity": 0
      },
      {
        "type": "midi",
        "subType": "noteOff",
        "typeByte": 153,
        "deltaTime": 9,
        "channel": 9,
        "note": 40,
        "velocity": 0
      },
      {
        "type": "midi",
        "subType": "noteOn",
        "typeByte": 153,
        "deltaTime": 17,
        "channel": 9,
        "note": 38,
        "velocity": 127
      },
      {
        "type": "midi",
        "subType": "noteOff",
        "typeByte": 153,
        "deltaTime": 22,
        "channel": 9,
        "note": 38,
        "velocity": 0
      },
      {
        "type": "midi",
        "subType": "noteOn",
        "typeByte": 153,
        "deltaTime": 26,
        "channel": 9,
        "note": 36,
        "velocity": 127
      },
      {
        "type": "midi",
        "subType": "noteOn",
        "typeByte": 153,
        "deltaTime": 0,
        "channel": 9,
        "note": 61,
        "velocity": 127
      },
      {
        "type": "midi",
        "subType": "noteOn",
        "typeByte": 153,
        "deltaTime": 0,
        "channel": 9,
        "note": 42,
        "velocity": 127
      },
      {
        "type": "midi",
        "subType": "noteOff",
        "typeByte": 153,
        "deltaTime": 23,
        "channel": 9,
        "note": 61,
        "velocity": 0
      },
      {
        "type": "midi",
        "subType": "noteOff",
        "typeByte": 153,
        "deltaTime": 0,
        "channel": 9,
        "note": 36,
        "velocity": 0
      },
      {
        "type": "midi",
        "subType": "noteOff",
        "typeByte": 153,
        "deltaTime": 2,
        "channel": 9,
        "note": 42,
        "velocity": 0
      },
      {
        "type": "midi",
        "subType": "noteOn",
        "typeByte": 153,
        "deltaTime": 23,
        "channel": 9,
        "note": 61,
        "velocity": 127
      },
      {
        "type": "midi",
        "subType": "noteOn",
        "typeByte": 153,
        "deltaTime": 1,
        "channel": 9,
        "note": 42,
        "velocity": 127
      },
      {
        "type": "midi",
        "subType": "noteOff",
        "typeByte": 153,
        "deltaTime": 20,
        "channel": 9,
        "note": 42,
        "velocity": 0
      },
      {
        "type": "midi",
        "subType": "noteOff",
        "typeByte": 153,
        "deltaTime": 2,
        "channel": 9,
        "note": 61,
        "velocity": 0
      },
      {
        "type": "midi",
        "subType": "noteOn",
        "typeByte": 153,
        "deltaTime": 25,
        "channel": 9,
        "note": 38,
        "velocity": 127
      },
      {
        "type": "midi",
        "subType": "noteOn",
        "typeByte": 153,
        "deltaTime": 0,
        "channel": 9,
        "note": 61,
        "velocity": 127
      },
      {
        "type": "midi",
        "subType": "noteOn",
        "typeByte": 153,
        "deltaTime": 0,
        "channel": 9,
        "note": 42,
        "velocity": 127
      },
      {
        "type": "midi",
        "subType": "noteOff",
        "typeByte": 153,
        "deltaTime": 23,
        "channel": 9,
        "note": 42,
        "velocity": 0
      },
      {
        "type": "midi",
        "subType": "noteOff",
        "typeByte": 153,
        "deltaTime": 0,
        "channel": 9,
        "note": 61,
        "velocity": 0
      },
      {
        "type": "midi",
        "subType": "noteOff",
        "typeByte": 153,
        "deltaTime": 0,
        "channel": 9,
        "note": 38,
        "velocity": 0
      },
      {
        "type": "midi",
        "subType": "noteOn",
        "typeByte": 153,
        "deltaTime": 26,
        "channel": 9,
        "note": 61,
        "velocity": 127
      },
      {
        "type": "midi",
        "subType": "noteOn",
        "typeByte": 153,
        "deltaTime": 0,
        "channel": 9,
        "note": 42,
        "velocity": 127
      },
      {
        "type": "midi",
        "subType": "noteOff",
        "typeByte": 153,
        "deltaTime": 23,
        "channel": 9,
        "note": 42,
        "velocity": 0
      },
      {
        "type": "midi",
        "subType": "noteOff",
        "typeByte": 153,
        "deltaTime": 0,
        "channel": 9,
        "note": 61,
        "velocity": 0
      },
      {
        "type": "midi",
        "subType": "noteOn",
        "typeByte": 153,
        "deltaTime": 24,
        "channel": 9,
        "note": 36,
        "velocity": 127
      },
      {
        "type": "midi",
        "subType": "noteOn",
        "typeByte": 153,
        "deltaTime": 0,
        "channel": 9,
        "note": 61,
        "velocity": 127
      },
      {
        "type": "midi",
        "subType": "noteOn",
        "typeByte": 153,
        "deltaTime": 1,
        "channel": 9,
        "note": 40,
        "velocity": 127
      },
      {
        "type": "midi",
        "subType": "noteOn",
        "typeByte": 153,
        "deltaTime": 0,
        "channel": 9,
        "note": 51,
        "velocity": 127
      },
      {
        "type": "midi",
        "subType": "noteOn",
        "typeByte": 153,
        "deltaTime": 0,
        "channel": 9,
        "note": 42,
        "velocity": 127
      },
      {
        "type": "midi",
        "subType": "noteOff",
        "typeByte": 153,
        "deltaTime": 22,
        "channel": 9,
        "note": 42,
        "velocity": 0
      },
      {
        "type": "midi",
        "subType": "noteOff",
        "typeByte": 153,
        "deltaTime": 0,
        "channel": 9,
        "note": 36,
        "velocity": 0
      },
      {
        "type": "midi",
        "subType": "noteOff",
        "typeByte": 153,
        "deltaTime": 1,
        "channel": 9,
        "note": 61,
        "velocity": 0
      },
      {
        "type": "midi",
        "subType": "noteOn",
        "typeByte": 153,
        "deltaTime": 25,
        "channel": 9,
        "note": 36,
        "velocity": 127
      },
      {
        "type": "midi",
        "subType": "noteOn",
        "typeByte": 153,
        "deltaTime": 0,
        "channel": 9,
        "note": 61,
        "velocity": 127
      },
      {
        "type": "midi",
        "subType": "noteOn",
        "typeByte": 153,
        "deltaTime": 1,
        "channel": 9,
        "note": 42,
        "velocity": 127
      },
      {
        "type": "midi",
        "subType": "noteOff",
        "typeByte": 153,
        "deltaTime": 22,
        "channel": 9,
        "note": 61,
        "velocity": 0
      },
      {
        "type": "midi",
        "subType": "noteOff",
        "typeByte": 153,
        "deltaTime": 0,
        "channel": 9,
        "note": 36,
        "velocity": 0
      },
      {
        "type": "midi",
        "subType": "noteOff",
        "typeByte": 153,
        "deltaTime": 1,
        "channel": 9,
        "note": 42,
        "velocity": 0
      },
      {
        "type": "midi",
        "subType": "noteOff",
        "typeByte": 153,
        "deltaTime": 23,
        "channel": 9,
        "note": 40,
        "velocity": 0
      },
      {
        "type": "midi",
        "subType": "noteOn",
        "typeByte": 153,
        "deltaTime": 1,
        "channel": 9,
        "note": 38,
        "velocity": 127
      },
      {
        "type": "midi",
        "subType": "noteOn",
        "typeByte": 153,
        "deltaTime": 0,
        "channel": 9,
        "note": 61,
        "velocity": 127
      },
      {
        "type": "midi",
        "subType": "noteOn",
        "typeByte": 153,
        "deltaTime": 0,
        "channel": 9,
        "note": 42,
        "velocity": 127
      },
      {
        "type": "midi",
        "subType": "noteOff",
        "typeByte": 153,
        "deltaTime": 5,
        "channel": 9,
        "note": 51,
        "velocity": 0
      },
      {
        "type": "midi",
        "subType": "noteOff",
        "typeByte": 153,
        "deltaTime": 17,
        "channel": 9,
        "note": 38,
        "velocity": 0
      },
      {
        "type": "midi",
        "subType": "noteOff",
        "typeByte": 153,
        "deltaTime": 0,
        "channel": 9,
        "note": 61,
        "velocity": 0
      },
      {
        "type": "midi",
        "subType": "noteOff",
        "typeByte": 153,
        "deltaTime": 3,
        "channel": 9,
        "note": 42,
        "velocity": 0
      },
      {
        "type": "midi",
        "subType": "noteOn",
        "typeByte": 153,
        "deltaTime": 23,
        "channel": 9,
        "note": 61,
        "velocity": 127
      },
      {
        "type": "midi",
        "subType": "noteOn",
        "typeByte": 153,
        "deltaTime": 0,
        "channel": 9,
        "note": 42,
        "velocity": 127
      },
      {
        "type": "midi",
        "subType": "noteOff",
        "typeByte": 153,
        "deltaTime": 23,
        "channel": 9,
        "note": 61,
        "velocity": 0
      },
      {
        "type": "midi",
        "subType": "noteOff",
        "typeByte": 153,
        "deltaTime": 2,
        "channel": 9,
        "note": 42,
        "velocity": 0
      },
      {
        "type": "midi",
        "subType": "noteOn",
        "typeByte": 153,
        "deltaTime": 23,
        "channel": 9,
        "note": 36,
        "velocity": 127
      },
      {
        "type": "midi",
        "subType": "noteOn",
        "typeByte": 153,
        "deltaTime": 0,
        "channel": 9,
        "note": 61,
        "velocity": 127
      },
      {
        "type": "midi",
        "subType": "noteOn",
        "typeByte": 153,
        "deltaTime": 0,
        "channel": 9,
        "note": 42,
        "velocity": 127
      },
      {
        "type": "midi",
        "subType": "noteOff",
        "typeByte": 153,
        "deltaTime": 23,
        "channel": 9,
        "note": 61,
        "velocity": 0
      },
      {
        "type": "midi",
        "subType": "noteOff",
        "typeByte": 153,
        "deltaTime": 0,
        "channel": 9,
        "note": 36,
        "velocity": 0
      },
      {
        "type": "midi",
        "subType": "noteOff",
        "typeByte": 153,
        "deltaTime": 5,
        "channel": 9,
        "note": 42,
        "velocity": 0
      },
      {
        "type": "midi",
        "subType": "noteOn",
        "typeByte": 153,
        "deltaTime": 21,
        "channel": 9,
        "note": 61,
        "velocity": 127
      },
      {
        "type": "midi",
        "subType": "noteOn",
        "typeByte": 153,
        "deltaTime": 0,
        "channel": 9,
        "note": 42,
        "velocity": 127
      },
      {
        "type": "midi",
        "subType": "noteOff",
        "typeByte": 153,
        "deltaTime": 21,
        "channel": 9,
        "note": 42,
        "velocity": 0
      },
      {
        "type": "midi",
        "subType": "noteOff",
        "typeByte": 153,
        "deltaTime": 2,
        "channel": 9,
        "note": 61,
        "velocity": 0
      },
      {
        "type": "midi",
        "subType": "noteOn",
        "typeByte": 153,
        "deltaTime": 24,
        "channel": 9,
        "note": 38,
        "velocity": 127
      },
      {
        "type": "midi",
        "subType": "noteOn",
        "typeByte": 153,
        "deltaTime": 0,
        "channel": 9,
        "note": 61,
        "velocity": 127
      },
      {
        "type": "midi",
        "subType": "noteOn",
        "typeByte": 153,
        "deltaTime": 0,
        "channel": 9,
        "note": 42,
        "velocity": 127
      },
      {
        "type": "midi",
        "subType": "noteOff",
        "typeByte": 153,
        "deltaTime": 23,
        "channel": 9,
        "note": 42,
        "velocity": 0
      },
      {
        "type": "midi",
        "subType": "noteOff",
        "typeByte": 153,
        "deltaTime": 0,
        "channel": 9,
        "note": 61,
        "velocity": 0
      },
      {
        "type": "midi",
        "subType": "noteOff",
        "typeByte": 153,
        "deltaTime": 0,
        "channel": 9,
        "note": 38,
        "velocity": 0
      },
      {
        "type": "midi",
        "subType": "noteOn",
        "typeByte": 153,
        "deltaTime": 26,
        "channel": 9,
        "note": 61,
        "velocity": 127
      },
      {
        "type": "midi",
        "subType": "noteOn",
        "typeByte": 153,
        "deltaTime": 0,
        "channel": 9,
        "note": 42,
        "velocity": 127
      },
      {
        "type": "midi",
        "subType": "noteOff",
        "typeByte": 153,
        "deltaTime": 23,
        "channel": 9,
        "note": 61,
        "velocity": 0
      },
      {
        "type": "midi",
        "subType": "noteOff",
        "typeByte": 153,
        "deltaTime": 1,
        "channel": 9,
        "note": 42,
        "velocity": 0
      },
      {
        "type": "midi",
        "subType": "noteOn",
        "typeByte": 153,
        "deltaTime": 23,
        "channel": 9,
        "note": 36,
        "velocity": 127
      },
      {
        "type": "midi",
        "subType": "noteOn",
        "typeByte": 153,
        "deltaTime": 0,
        "channel": 9,
        "note": 61,
        "velocity": 127
      },
      {
        "type": "midi",
        "subType": "noteOn",
        "typeByte": 153,
        "deltaTime": 1,
        "channel": 9,
        "note": 51,
        "velocity": 127
      },
      {
        "type": "midi",
        "subType": "noteOn",
        "typeByte": 153,
        "deltaTime": 0,
        "channel": 9,
        "note": 40,
        "velocity": 127
      },
      {
        "type": "midi",
        "subType": "noteOn",
        "typeByte": 153,
        "deltaTime": 0,
        "channel": 9,
        "note": 42,
        "velocity": 127
      },
      {
        "type": "midi",
        "subType": "noteOff",
        "typeByte": 153,
        "deltaTime": 22,
        "channel": 9,
        "note": 61,
        "velocity": 0
      },
      {
        "type": "midi",
        "subType": "noteOff",
        "typeByte": 153,
        "deltaTime": 0,
        "channel": 9,
        "note": 36,
        "velocity": 0
      },
      {
        "type": "midi",
        "subType": "noteOff",
        "typeByte": 153,
        "deltaTime": 3,
        "channel": 9,
        "note": 42,
        "velocity": 0
      },
      {
        "type": "midi",
        "subType": "noteOn",
        "typeByte": 153,
        "deltaTime": 23,
        "channel": 9,
        "note": 36,
        "velocity": 127
      },
      {
        "type": "midi",
        "subType": "noteOn",
        "typeByte": 153,
        "deltaTime": 0,
        "channel": 9,
        "note": 61,
        "velocity": 127
      },
      {
        "type": "midi",
        "subType": "noteOn",
        "typeByte": 153,
        "deltaTime": 1,
        "channel": 9,
        "note": 42,
        "velocity": 127
      },
      {
        "type": "midi",
        "subType": "noteOff",
        "typeByte": 153,
        "deltaTime": 22,
        "channel": 9,
        "note": 61,
        "velocity": 0
      },
      {
        "type": "midi",
        "subType": "noteOff",
        "typeByte": 153,
        "deltaTime": 0,
        "channel": 9,
        "note": 36,
        "velocity": 0
      },
      {
        "type": "midi",
        "subType": "noteOff",
        "typeByte": 153,
        "deltaTime": 2,
        "channel": 9,
        "note": 42,
        "velocity": 0
      },
      {
        "type": "midi",
        "subType": "noteOff",
        "typeByte": 153,
        "deltaTime": 15,
        "channel": 9,
        "note": 51,
        "velocity": 0
      },
      {
        "type": "midi",
        "subType": "noteOff",
        "typeByte": 153,
        "deltaTime": 0,
        "channel": 9,
        "note": 40,
        "velocity": 0
      },
      {
        "type": "midi",
        "subType": "noteOn",
        "typeByte": 153,
        "deltaTime": 8,
        "channel": 9,
        "note": 38,
        "velocity": 127
      },
      {
        "type": "midi",
        "subType": "noteOn",
        "typeByte": 153,
        "deltaTime": 0,
        "channel": 9,
        "note": 61,
        "velocity": 127
      },
      {
        "type": "midi",
        "subType": "noteOn",
        "typeByte": 153,
        "deltaTime": 0,
        "channel": 9,
        "note": 42,
        "velocity": 127
      },
      {
        "type": "midi",
        "subType": "noteOff",
        "typeByte": 153,
        "deltaTime": 23,
        "channel": 9,
        "note": 61,
        "velocity": 0
      },
      {
        "type": "midi",
        "subType": "noteOff",
        "typeByte": 153,
        "deltaTime": 0,
        "channel": 9,
        "note": 38,
        "velocity": 0
      },
      {
        "type": "midi",
        "subType": "noteOff",
        "typeByte": 153,
        "deltaTime": 2,
        "channel": 9,
        "note": 42,
        "velocity": 0
      },
      {
        "type": "midi",
        "subType": "noteOn",
        "typeByte": 153,
        "deltaTime": 24,
        "channel": 9,
        "note": 61,
        "velocity": 127
      },
      {
        "type": "midi",
        "subType": "noteOn",
        "typeByte": 153,
        "deltaTime": 0,
        "channel": 9,
        "note": 42,
        "velocity": 127
      },
      {
        "type": "midi",
        "subType": "noteOff",
        "typeByte": 153,
        "deltaTime": 23,
        "channel": 9,
        "note": 61,
        "velocity": 0
      },
      {
        "type": "midi",
        "subType": "noteOff",
        "typeByte": 153,
        "deltaTime": 1,
        "channel": 9,
        "note": 42,
        "velocity": 0
      },
      {
        "type": "midi",
        "subType": "noteOn",
        "typeByte": 153,
        "deltaTime": 23,
        "channel": 9,
        "note": 36,
        "velocity": 127
      },
      {
        "type": "midi",
        "subType": "noteOn",
        "typeByte": 153,
        "deltaTime": 0,
        "channel": 9,
        "note": 61,
        "velocity": 127
      },
      {
        "type": "midi",
        "subType": "noteOn",
        "typeByte": 153,
        "deltaTime": 0,
        "channel": 9,
        "note": 42,
        "velocity": 127
      },
      {
        "type": "midi",
        "subType": "noteOff",
        "typeByte": 153,
        "deltaTime": 23,
        "channel": 9,
        "note": 61,
        "velocity": 0
      },
      {
        "type": "midi",
        "subType": "noteOff",
        "typeByte": 153,
        "deltaTime": 0,
        "channel": 9,
        "note": 36,
        "velocity": 0
      },
      {
        "type": "midi",
        "subType": "noteOff",
        "typeByte": 153,
        "deltaTime": 3,
        "channel": 9,
        "note": 42,
        "velocity": 0
      },
      {
        "type": "midi",
        "subType": "noteOn",
        "typeByte": 153,
        "deltaTime": 23,
        "channel": 9,
        "note": 61,
        "velocity": 127
      },
      {
        "type": "midi",
        "subType": "noteOn",
        "typeByte": 153,
        "deltaTime": 0,
        "channel": 9,
        "note": 42,
        "velocity": 127
      },
      {
        "type": "midi",
        "subType": "noteOff",
        "typeByte": 153,
        "deltaTime": 23,
        "channel": 9,
        "note": 61,
        "velocity": 0
      },
      {
        "type": "midi",
        "subType": "noteOff",
        "typeByte": 153,
        "deltaTime": 2,
        "channel": 9,
        "note": 42,
        "velocity": 0
      },
      {
        "type": "midi",
        "subType": "noteOn",
        "typeByte": 153,
        "deltaTime": 22,
        "channel": 9,
        "note": 38,
        "velocity": 127
      },
      {
        "type": "midi",
        "subType": "noteOn",
        "typeByte": 153,
        "deltaTime": 0,
        "channel": 9,
        "note": 61,
        "velocity": 127
      },
      {
        "type": "midi",
        "subType": "noteOn",
        "typeByte": 153,
        "deltaTime": 1,
        "channel": 9,
        "note": 42,
        "velocity": 127
      },
      {
        "type": "midi",
        "subType": "noteOff",
        "typeByte": 153,
        "deltaTime": 22,
        "channel": 9,
        "note": 42,
        "velocity": 0
      },
      {
        "type": "midi",
        "subType": "noteOff",
        "typeByte": 153,
        "deltaTime": 0,
        "channel": 9,
        "note": 38,
        "velocity": 0
      },
      {
        "type": "midi",
        "subType": "noteOff",
        "typeByte": 153,
        "deltaTime": 1,
        "channel": 9,
        "note": 61,
        "velocity": 0
      },
      {
        "type": "midi",
        "subType": "noteOn",
        "typeByte": 153,
        "deltaTime": 25,
        "channel": 9,
        "note": 61,
        "velocity": 127
      },
      {
        "type": "midi",
        "subType": "noteOn",
        "typeByte": 153,
        "deltaTime": 0,
        "channel": 9,
        "note": 42,
        "velocity": 127
      },
      {
        "type": "midi",
        "subType": "noteOff",
        "typeByte": 153,
        "deltaTime": 23,
        "channel": 9,
        "note": 42,
        "velocity": 0
      },
      {
        "type": "midi",
        "subType": "noteOff",
        "typeByte": 153,
        "deltaTime": 0,
        "channel": 9,
        "note": 61,
        "velocity": 0
      },
      {
        "type": "midi",
        "subType": "noteOn",
        "typeByte": 153,
        "deltaTime": 25,
        "channel": 9,
        "note": 36,
        "velocity": 127
      },
      {
        "type": "midi",
        "subType": "noteOn",
        "typeByte": 153,
        "deltaTime": 0,
        "channel": 9,
        "note": 61,
        "velocity": 127
      },
      {
        "type": "midi",
        "subType": "noteOn",
        "typeByte": 153,
        "deltaTime": 0,
        "channel": 9,
        "note": 40,
        "velocity": 127
      },
      {
        "type": "midi",
        "subType": "noteOn",
        "typeByte": 153,
        "deltaTime": 0,
        "channel": 9,
        "note": 51,
        "velocity": 127
      },
      {
        "type": "midi",
        "subType": "noteOn",
        "typeByte": 153,
        "deltaTime": 0,
        "channel": 9,
        "note": 42,
        "velocity": 127
      },
      {
        "type": "midi",
        "subType": "noteOff",
        "typeByte": 153,
        "deltaTime": 23,
        "channel": 9,
        "note": 42,
        "velocity": 0
      },
      {
        "type": "midi",
        "subType": "noteOff",
        "typeByte": 153,
        "deltaTime": 0,
        "channel": 9,
        "note": 36,
        "velocity": 0
      },
      {
        "type": "midi",
        "subType": "noteOff",
        "typeByte": 153,
        "deltaTime": 0,
        "channel": 9,
        "note": 61,
        "velocity": 0
      },
      {
        "type": "midi",
        "subType": "noteOn",
        "typeByte": 153,
        "deltaTime": 25,
        "channel": 9,
        "note": 36,
        "velocity": 127
      },
      {
        "type": "midi",
        "subType": "noteOn",
        "typeByte": 153,
        "deltaTime": 1,
        "channel": 9,
        "note": 61,
        "velocity": 127
      },
      {
        "type": "midi",
        "subType": "noteOn",
        "typeByte": 153,
        "deltaTime": 0,
        "channel": 9,
        "note": 42,
        "velocity": 127
      },
      {
        "type": "midi",
        "subType": "noteOff",
        "typeByte": 153,
        "deltaTime": 21,
        "channel": 9,
        "note": 42,
        "velocity": 0
      },
      {
        "type": "midi",
        "subType": "noteOff",
        "typeByte": 153,
        "deltaTime": 1,
        "channel": 9,
        "note": 36,
        "velocity": 0
      },
      {
        "type": "midi",
        "subType": "noteOff",
        "typeByte": 153,
        "deltaTime": 1,
        "channel": 9,
        "note": 61,
        "velocity": 0
      },
      {
        "type": "midi",
        "subType": "noteOff",
        "typeByte": 153,
        "deltaTime": 24,
        "channel": 9,
        "note": 40,
        "velocity": 0
      },
      {
        "type": "midi",
        "subType": "noteOn",
        "typeByte": 153,
        "deltaTime": 0,
        "channel": 9,
        "note": 38,
        "velocity": 127
      },
      {
        "type": "midi",
        "subType": "noteOn",
        "typeByte": 153,
        "deltaTime": 0,
        "channel": 9,
        "note": 61,
        "velocity": 127
      },
      {
        "type": "midi",
        "subType": "noteOn",
        "typeByte": 153,
        "deltaTime": 1,
        "channel": 9,
        "note": 42,
        "velocity": 127
      },
      {
        "type": "midi",
        "subType": "noteOff",
        "typeByte": 153,
        "deltaTime": 4,
        "channel": 9,
        "note": 51,
        "velocity": 0
      },
      {
        "type": "midi",
        "subType": "noteOff",
        "typeByte": 153,
        "deltaTime": 18,
        "channel": 9,
        "note": 38,
        "velocity": 0
      },
      {
        "type": "midi",
        "subType": "noteOff",
        "typeByte": 153,
        "deltaTime": 0,
        "channel": 9,
        "note": 61,
        "velocity": 0
      },
      {
        "type": "midi",
        "subType": "noteOff",
        "typeByte": 153,
        "deltaTime": 1,
        "channel": 9,
        "note": 42,
        "velocity": 0
      },
      {
        "type": "midi",
        "subType": "noteOn",
        "typeByte": 153,
        "deltaTime": 25,
        "channel": 9,
        "note": 61,
        "velocity": 127
      },
      {
        "type": "midi",
        "subType": "noteOn",
        "typeByte": 153,
        "deltaTime": 0,
        "channel": 9,
        "note": 42,
        "velocity": 127
      },
      {
        "type": "midi",
        "subType": "noteOff",
        "typeByte": 153,
        "deltaTime": 21,
        "channel": 9,
        "note": 42,
        "velocity": 0
      },
      {
        "type": "midi",
        "subType": "noteOff",
        "typeByte": 153,
        "deltaTime": 2,
        "channel": 9,
        "note": 61,
        "velocity": 0
      },
      {
        "type": "midi",
        "subType": "noteOn",
        "typeByte": 153,
        "deltaTime": 24,
        "channel": 9,
        "note": 36,
        "velocity": 127
      },
      {
        "type": "midi",
        "subType": "noteOn",
        "typeByte": 153,
        "deltaTime": 0,
        "channel": 9,
        "note": 61,
        "velocity": 127
      },
      {
        "type": "midi",
        "subType": "noteOn",
        "typeByte": 153,
        "deltaTime": 1,
        "channel": 9,
        "note": 42,
        "velocity": 127
      },
      {
        "type": "midi",
        "subType": "noteOff",
        "typeByte": 153,
        "deltaTime": 18,
        "channel": 9,
        "note": 42,
        "velocity": 0
      },
      {
        "type": "midi",
        "subType": "noteOff",
        "typeByte": 153,
        "deltaTime": 4,
        "channel": 9,
        "note": 61,
        "velocity": 0
      },
      {
        "type": "midi",
        "subType": "noteOff",
        "typeByte": 153,
        "deltaTime": 0,
        "channel": 9,
        "note": 36,
        "velocity": 0
      },
      {
        "type": "midi",
        "subType": "noteOn",
        "typeByte": 153,
        "deltaTime": 26,
        "channel": 9,
        "note": 61,
        "velocity": 127
      },
      {
        "type": "midi",
        "subType": "noteOn",
        "typeByte": 153,
        "deltaTime": 0,
        "channel": 9,
        "note": 42,
        "velocity": 127
      },
      {
        "type": "midi",
        "subType": "noteOff",
        "typeByte": 153,
        "deltaTime": 16,
        "channel": 9,
        "note": 42,
        "velocity": 0
      },
      {
        "type": "midi",
        "subType": "noteOff",
        "typeByte": 153,
        "deltaTime": 7,
        "channel": 9,
        "note": 61,
        "velocity": 0
      },
      {
        "type": "midi",
        "subType": "noteOn",
        "typeByte": 153,
        "deltaTime": 24,
        "channel": 9,
        "note": 38,
        "velocity": 127
      },
      {
        "type": "midi",
        "subType": "noteOn",
        "typeByte": 153,
        "deltaTime": 0,
        "channel": 9,
        "note": 61,
        "velocity": 127
      },
      {
        "type": "midi",
        "subType": "noteOn",
        "typeByte": 153,
        "deltaTime": 1,
        "channel": 9,
        "note": 42,
        "velocity": 127
      },
      {
        "type": "midi",
        "subType": "noteOff",
        "typeByte": 153,
        "deltaTime": 20,
        "channel": 9,
        "note": 42,
        "velocity": 0
      },
      {
        "type": "midi",
        "subType": "noteOff",
        "typeByte": 153,
        "deltaTime": 2,
        "channel": 9,
        "note": 61,
        "velocity": 0
      },
      {
        "type": "midi",
        "subType": "noteOff",
        "typeByte": 153,
        "deltaTime": 0,
        "channel": 9,
        "note": 38,
        "velocity": 0
      },
      {
        "type": "midi",
        "subType": "noteOn",
        "typeByte": 153,
        "deltaTime": 26,
        "channel": 9,
        "note": 61,
        "velocity": 127
      },
      {
        "type": "midi",
        "subType": "noteOn",
        "typeByte": 153,
        "deltaTime": 0,
        "channel": 9,
        "note": 42,
        "velocity": 127
      },
      {
        "type": "midi",
        "subType": "noteOff",
        "typeByte": 153,
        "deltaTime": 14,
        "channel": 9,
        "note": 42,
        "velocity": 0
      },
      {
        "type": "midi",
        "subType": "noteOff",
        "typeByte": 153,
        "deltaTime": 9,
        "channel": 9,
        "note": 61,
        "velocity": 0
      },
      {
        "type": "midi",
        "subType": "noteOn",
        "typeByte": 153,
        "deltaTime": 25,
        "channel": 9,
        "note": 36,
        "velocity": 127
      },
      {
        "type": "midi",
        "subType": "noteOn",
        "typeByte": 153,
        "deltaTime": 0,
        "channel": 9,
        "note": 61,
        "velocity": 127
      },
      {
        "type": "midi",
        "subType": "noteOn",
        "typeByte": 153,
        "deltaTime": 0,
        "channel": 9,
        "note": 51,
        "velocity": 127
      },
      {
        "type": "midi",
        "subType": "noteOn",
        "typeByte": 153,
        "deltaTime": 0,
        "channel": 9,
        "note": 40,
        "velocity": 127
      },
      {
        "type": "midi",
        "subType": "noteOn",
        "typeByte": 153,
        "deltaTime": 1,
        "channel": 9,
        "note": 42,
        "velocity": 127
      },
      {
        "type": "midi",
        "subType": "noteOff",
        "typeByte": 153,
        "deltaTime": 20,
        "channel": 9,
        "note": 42,
        "velocity": 0
      },
      {
        "type": "midi",
        "subType": "noteOff",
        "typeByte": 153,
        "deltaTime": 2,
        "channel": 9,
        "note": 36,
        "velocity": 0
      },
      {
        "type": "midi",
        "subType": "noteOff",
        "typeByte": 153,
        "deltaTime": 0,
        "channel": 9,
        "note": 61,
        "velocity": 0
      },
      {
        "type": "midi",
        "subType": "noteOn",
        "typeByte": 153,
        "deltaTime": 26,
        "channel": 9,
        "note": 36,
        "velocity": 127
      },
      {
        "type": "midi",
        "subType": "noteOn",
        "typeByte": 153,
        "deltaTime": 0,
        "channel": 9,
        "note": 61,
        "velocity": 127
      },
      {
        "type": "midi",
        "subType": "noteOn",
        "typeByte": 153,
        "deltaTime": 0,
        "channel": 9,
        "note": 42,
        "velocity": 127
      },
      {
        "type": "midi",
        "subType": "noteOff",
        "typeByte": 153,
        "deltaTime": 23,
        "channel": 9,
        "note": 42,
        "velocity": 0
      },
      {
        "type": "midi",
        "subType": "noteOff",
        "typeByte": 153,
        "deltaTime": 0,
        "channel": 9,
        "note": 36,
        "velocity": 0
      },
      {
        "type": "midi",
        "subType": "noteOff",
        "typeByte": 153,
        "deltaTime": 0,
        "channel": 9,
        "note": 61,
        "velocity": 0
      },
      {
        "type": "midi",
        "subType": "noteOff",
        "typeByte": 153,
        "deltaTime": 16,
        "channel": 9,
        "note": 51,
        "velocity": 0
      },
      {
        "type": "midi",
        "subType": "noteOff",
        "typeByte": 153,
        "deltaTime": 0,
        "channel": 9,
        "note": 40,
        "velocity": 0
      },
      {
        "type": "midi",
        "subType": "noteOn",
        "typeByte": 153,
        "deltaTime": 8,
        "channel": 9,
        "note": 38,
        "velocity": 127
      },
      {
        "type": "midi",
        "subType": "noteOn",
        "typeByte": 153,
        "deltaTime": 0,
        "channel": 9,
        "note": 61,
        "velocity": 127
      },
      {
        "type": "midi",
        "subType": "noteOn",
        "typeByte": 153,
        "deltaTime": 0,
        "channel": 9,
        "note": 42,
        "velocity": 127
      },
      {
        "type": "midi",
        "subType": "noteOff",
        "typeByte": 153,
        "deltaTime": 23,
        "channel": 9,
        "note": 42,
        "velocity": 0
      },
      {
        "type": "midi",
        "subType": "noteOff",
        "typeByte": 153,
        "deltaTime": 0,
        "channel": 9,
        "note": 61,
        "velocity": 0
      },
      {
        "type": "midi",
        "subType": "noteOff",
        "typeByte": 153,
        "deltaTime": 0,
        "channel": 9,
        "note": 38,
        "velocity": 0
      },
      {
        "type": "midi",
        "subType": "noteOn",
        "typeByte": 153,
        "deltaTime": 26,
        "channel": 9,
        "note": 61,
        "velocity": 127
      },
      {
        "type": "midi",
        "subType": "noteOn",
        "typeByte": 153,
        "deltaTime": 0,
        "channel": 9,
        "note": 42,
        "velocity": 127
      },
      {
        "type": "midi",
        "subType": "noteOff",
        "typeByte": 153,
        "deltaTime": 23,
        "channel": 9,
        "note": 61,
        "velocity": 0
      },
      {
        "type": "midi",
        "subType": "noteOff",
        "typeByte": 153,
        "deltaTime": 1,
        "channel": 9,
        "note": 42,
        "velocity": 0
      },
      {
        "type": "midi",
        "subType": "noteOn",
        "typeByte": 153,
        "deltaTime": 23,
        "channel": 9,
        "note": 36,
        "velocity": 127
      },
      {
        "type": "midi",
        "subType": "noteOn",
        "typeByte": 153,
        "deltaTime": 1,
        "channel": 9,
        "note": 61,
        "velocity": 127
      },
      {
        "type": "midi",
        "subType": "noteOn",
        "typeByte": 153,
        "deltaTime": 0,
        "channel": 9,
        "note": 42,
        "velocity": 127
      },
      {
        "type": "midi",
        "subType": "noteOff",
        "typeByte": 153,
        "deltaTime": 22,
        "channel": 9,
        "note": 61,
        "velocity": 0
      },
      {
        "type": "midi",
        "subType": "noteOff",
        "typeByte": 153,
        "deltaTime": 0,
        "channel": 9,
        "note": 36,
        "velocity": 0
      },
      {
        "type": "midi",
        "subType": "noteOff",
        "typeByte": 153,
        "deltaTime": 4,
        "channel": 9,
        "note": 42,
        "velocity": 0
      },
      {
        "type": "midi",
        "subType": "noteOn",
        "typeByte": 153,
        "deltaTime": 22,
        "channel": 9,
        "note": 61,
        "velocity": 127
      },
      {
        "type": "midi",
        "subType": "noteOn",
        "typeByte": 153,
        "deltaTime": 0,
        "channel": 9,
        "note": 42,
        "velocity": 127
      },
      {
        "type": "midi",
        "subType": "noteOff",
        "typeByte": 153,
        "deltaTime": 23,
        "channel": 9,
        "note": 42,
        "velocity": 0
      },
      {
        "type": "midi",
        "subType": "noteOff",
        "typeByte": 153,
        "deltaTime": 0,
        "channel": 9,
        "note": 61,
        "velocity": 0
      },
      {
        "type": "midi",
        "subType": "noteOn",
        "typeByte": 153,
        "deltaTime": 25,
        "channel": 9,
        "note": 38,
        "velocity": 127
      },
      {
        "type": "midi",
        "subType": "noteOn",
        "typeByte": 153,
        "deltaTime": 0,
        "channel": 9,
        "note": 61,
        "velocity": 127
      },
      {
        "type": "midi",
        "subType": "noteOn",
        "typeByte": 153,
        "deltaTime": 0,
        "channel": 9,
        "note": 42,
        "velocity": 127
      },
      {
        "type": "midi",
        "subType": "noteOff",
        "typeByte": 153,
        "deltaTime": 23,
        "channel": 9,
        "note": 42,
        "velocity": 0
      },
      {
        "type": "midi",
        "subType": "noteOff",
        "typeByte": 153,
        "deltaTime": 0,
        "channel": 9,
        "note": 61,
        "velocity": 0
      },
      {
        "type": "midi",
        "subType": "noteOff",
        "typeByte": 153,
        "deltaTime": 0,
        "channel": 9,
        "note": 38,
        "velocity": 0
      },
      {
        "type": "midi",
        "subType": "noteOn",
        "typeByte": 153,
        "deltaTime": 25,
        "channel": 9,
        "note": 61,
        "velocity": 127
      },
      {
        "type": "midi",
        "subType": "noteOn",
        "typeByte": 153,
        "deltaTime": 1,
        "channel": 9,
        "note": 42,
        "velocity": 127
      },
      {
        "type": "midi",
        "subType": "noteOff",
        "typeByte": 153,
        "deltaTime": 20,
        "channel": 9,
        "note": 42,
        "velocity": 0
      },
      {
        "type": "midi",
        "subType": "noteOff",
        "typeByte": 153,
        "deltaTime": 2,
        "channel": 9,
        "note": 61,
        "velocity": 0
      },
      {
        "type": "midi",
        "subType": "noteOn",
        "typeByte": 153,
        "deltaTime": 25,
        "channel": 9,
        "note": 36,
        "velocity": 127
      },
      {
        "type": "midi",
        "subType": "noteOn",
        "typeByte": 153,
        "deltaTime": 0,
        "channel": 9,
        "note": 61,
        "velocity": 127
      },
      {
        "type": "midi",
        "subType": "noteOn",
        "typeByte": 153,
        "deltaTime": 0,
        "channel": 9,
        "note": 40,
        "velocity": 127
      },
      {
        "type": "midi",
        "subType": "noteOn",
        "typeByte": 153,
        "deltaTime": 1,
        "channel": 9,
        "note": 51,
        "velocity": 127
      },
      {
        "type": "midi",
        "subType": "noteOn",
        "typeByte": 153,
        "deltaTime": 0,
        "channel": 9,
        "note": 42,
        "velocity": 127
      },
      {
        "type": "midi",
        "subType": "noteOff",
        "typeByte": 153,
        "deltaTime": 18,
        "channel": 9,
        "note": 42,
        "velocity": 0
      },
      {
        "type": "midi",
        "subType": "noteOff",
        "typeByte": 153,
        "deltaTime": 4,
        "channel": 9,
        "note": 36,
        "velocity": 0
      },
      {
        "type": "midi",
        "subType": "noteOff",
        "typeByte": 153,
        "deltaTime": 0,
        "channel": 9,
        "note": 61,
        "velocity": 0
      },
      {
        "type": "midi",
        "subType": "noteOn",
        "typeByte": 153,
        "deltaTime": 26,
        "channel": 9,
        "note": 36,
        "velocity": 127
      },
      {
        "type": "midi",
        "subType": "noteOn",
        "typeByte": 153,
        "deltaTime": 0,
        "channel": 9,
        "note": 61,
        "velocity": 127
      },
      {
        "type": "midi",
        "subType": "noteOn",
        "typeByte": 153,
        "deltaTime": 0,
        "channel": 9,
        "note": 42,
        "velocity": 127
      },
      {
        "type": "midi",
        "subType": "noteOff",
        "typeByte": 153,
        "deltaTime": 21,
        "channel": 9,
        "note": 42,
        "velocity": 0
      },
      {
        "type": "midi",
        "subType": "noteOff",
        "typeByte": 153,
        "deltaTime": 2,
        "channel": 9,
        "note": 36,
        "velocity": 0
      },
      {
        "type": "midi",
        "subType": "noteOff",
        "typeByte": 153,
        "deltaTime": 0,
        "channel": 9,
        "note": 61,
        "velocity": 0
      },
      {
        "type": "midi",
        "subType": "noteOff",
        "typeByte": 153,
        "deltaTime": 24,
        "channel": 9,
        "note": 40,
        "velocity": 0
      },
      {
        "type": "midi",
        "subType": "noteOn",
        "typeByte": 153,
        "deltaTime": 0,
        "channel": 9,
        "note": 38,
        "velocity": 127
      },
      {
        "type": "midi",
        "subType": "noteOn",
        "typeByte": 153,
        "deltaTime": 0,
        "channel": 9,
        "note": 61,
        "velocity": 127
      },
      {
        "type": "midi",
        "subType": "noteOn",
        "typeByte": 153,
        "deltaTime": 1,
        "channel": 9,
        "note": 42,
        "velocity": 127
      },
      {
        "type": "midi",
        "subType": "noteOff",
        "typeByte": 153,
        "deltaTime": 6,
        "channel": 9,
        "note": 51,
        "velocity": 0
      },
      {
        "type": "midi",
        "subType": "noteOff",
        "typeByte": 153,
        "deltaTime": 16,
        "channel": 9,
        "note": 38,
        "velocity": 0
      },
      {
        "type": "midi",
        "subType": "noteOff",
        "typeByte": 153,
        "deltaTime": 0,
        "channel": 9,
        "note": 61,
        "velocity": 0
      },
      {
        "type": "midi",
        "subType": "noteOff",
        "typeByte": 153,
        "deltaTime": 3,
        "channel": 9,
        "note": 42,
        "velocity": 0
      },
      {
        "type": "midi",
        "subType": "noteOn",
        "typeByte": 153,
        "deltaTime": 23,
        "channel": 9,
        "note": 61,
        "velocity": 127
      },
      {
        "type": "midi",
        "subType": "noteOn",
        "typeByte": 153,
        "deltaTime": 0,
        "channel": 9,
        "note": 42,
        "velocity": 127
      },
      {
        "type": "midi",
        "subType": "noteOff",
        "typeByte": 153,
        "deltaTime": 23,
        "channel": 9,
        "note": 42,
        "velocity": 0
      },
      {
        "type": "midi",
        "subType": "noteOff",
        "typeByte": 153,
        "deltaTime": 0,
        "channel": 9,
        "note": 61,
        "velocity": 0
      },
      {
        "type": "midi",
        "subType": "noteOn",
        "typeByte": 153,
        "deltaTime": 24,
        "channel": 9,
        "note": 36,
        "velocity": 127
      },
      {
        "type": "midi",
        "subType": "noteOn",
        "typeByte": 153,
        "deltaTime": 1,
        "channel": 9,
        "note": 61,
        "velocity": 127
      },
      {
        "type": "midi",
        "subType": "noteOn",
        "typeByte": 153,
        "deltaTime": 0,
        "channel": 9,
        "note": 42,
        "velocity": 127
      },
      {
        "type": "midi",
        "subType": "noteOff",
        "typeByte": 153,
        "deltaTime": 23,
        "channel": 9,
        "note": 42,
        "velocity": 0
      },
      {
        "type": "midi",
        "subType": "noteOff",
        "typeByte": 153,
        "deltaTime": 0,
        "channel": 9,
        "note": 61,
        "velocity": 0
      },
      {
        "type": "midi",
        "subType": "noteOff",
        "typeByte": 153,
        "deltaTime": 0,
        "channel": 9,
        "note": 36,
        "velocity": 0
      },
      {
        "type": "midi",
        "subType": "noteOn",
        "typeByte": 153,
        "deltaTime": 25,
        "channel": 9,
        "note": 61,
        "velocity": 127
      },
      {
        "type": "midi",
        "subType": "noteOn",
        "typeByte": 153,
        "deltaTime": 0,
        "channel": 9,
        "note": 42,
        "velocity": 127
      },
      {
        "type": "midi",
        "subType": "noteOff",
        "typeByte": 153,
        "deltaTime": 19,
        "channel": 9,
        "note": 42,
        "velocity": 0
      },
      {
        "type": "midi",
        "subType": "noteOff",
        "typeByte": 153,
        "deltaTime": 4,
        "channel": 9,
        "note": 61,
        "velocity": 0
      },
      {
        "type": "midi",
        "subType": "noteOn",
        "typeByte": 153,
        "deltaTime": 25,
        "channel": 9,
        "note": 38,
        "velocity": 127
      },
      {
        "type": "midi",
        "subType": "noteOn",
        "typeByte": 153,
        "deltaTime": 0,
        "channel": 9,
        "note": 61,
        "velocity": 127
      },
      {
        "type": "midi",
        "subType": "noteOn",
        "typeByte": 153,
        "deltaTime": 0,
        "channel": 9,
        "note": 42,
        "velocity": 127
      },
      {
        "type": "midi",
        "subType": "noteOff",
        "typeByte": 153,
        "deltaTime": 19,
        "channel": 9,
        "note": 42,
        "velocity": 0
      },
      {
        "type": "midi",
        "subType": "noteOff",
        "typeByte": 153,
        "deltaTime": 4,
        "channel": 9,
        "note": 61,
        "velocity": 0
      },
      {
        "type": "midi",
        "subType": "noteOff",
        "typeByte": 153,
        "deltaTime": 0,
        "channel": 9,
        "note": 38,
        "velocity": 0
      },
      {
        "type": "midi",
        "subType": "noteOn",
        "typeByte": 153,
        "deltaTime": 26,
        "channel": 9,
        "note": 61,
        "velocity": 127
      },
      {
        "type": "midi",
        "subType": "noteOn",
        "typeByte": 153,
        "deltaTime": 0,
        "channel": 9,
        "note": 42,
        "velocity": 127
      },
      {
        "type": "midi",
        "subType": "noteOff",
        "typeByte": 153,
        "deltaTime": 19,
        "channel": 9,
        "note": 42,
        "velocity": 0
      },
      {
        "type": "midi",
        "subType": "noteOff",
        "typeByte": 153,
        "deltaTime": 4,
        "channel": 9,
        "note": 61,
        "velocity": 0
      },
      {
        "type": "midi",
        "subType": "noteOn",
        "typeByte": 153,
        "deltaTime": 24,
        "channel": 9,
        "note": 36,
        "velocity": 127
      },
      {
        "type": "midi",
        "subType": "noteOn",
        "typeByte": 153,
        "deltaTime": 0,
        "channel": 9,
        "note": 61,
        "velocity": 127
      },
      {
        "type": "midi",
        "subType": "noteOn",
        "typeByte": 153,
        "deltaTime": 0,
        "channel": 9,
        "note": 51,
        "velocity": 127
      },
      {
        "type": "midi",
        "subType": "noteOn",
        "typeByte": 153,
        "deltaTime": 1,
        "channel": 9,
        "note": 40,
        "velocity": 127
      },
      {
        "type": "midi",
        "subType": "noteOn",
        "typeByte": 153,
        "deltaTime": 0,
        "channel": 9,
        "note": 42,
        "velocity": 127
      },
      {
        "type": "midi",
        "subType": "noteOff",
        "typeByte": 153,
        "deltaTime": 18,
        "channel": 9,
        "note": 42,
        "velocity": 0
      },
      {
        "type": "midi",
        "subType": "noteOff",
        "typeByte": 153,
        "deltaTime": 4,
        "channel": 9,
        "note": 36,
        "velocity": 0
      },
      {
        "type": "midi",
        "subType": "noteOff",
        "typeByte": 153,
        "deltaTime": 0,
        "channel": 9,
        "note": 61,
        "velocity": 0
      },
      {
        "type": "midi",
        "subType": "noteOn",
        "typeByte": 153,
        "deltaTime": 26,
        "channel": 9,
        "note": 36,
        "velocity": 127
      },
      {
        "type": "midi",
        "subType": "noteOn",
        "typeByte": 153,
        "deltaTime": 0,
        "channel": 9,
        "note": 61,
        "velocity": 127
      },
      {
        "type": "midi",
        "subType": "noteOn",
        "typeByte": 153,
        "deltaTime": 0,
        "channel": 9,
        "note": 42,
        "velocity": 127
      },
      {
        "type": "midi",
        "subType": "noteOff",
        "typeByte": 153,
        "deltaTime": 20,
        "channel": 9,
        "note": 42,
        "velocity": 0
      },
      {
        "type": "midi",
        "subType": "noteOff",
        "typeByte": 153,
        "deltaTime": 3,
        "channel": 9,
        "note": 36,
        "velocity": 0
      },
      {
        "type": "midi",
        "subType": "noteOff",
        "typeByte": 153,
        "deltaTime": 0,
        "channel": 9,
        "note": 61,
        "velocity": 0
      },
      {
        "type": "midi",
        "subType": "noteOff",
        "typeByte": 153,
        "deltaTime": 16,
        "channel": 9,
        "note": 51,
        "velocity": 0
      },
      {
        "type": "midi",
        "subType": "noteOff",
        "typeByte": 153,
        "deltaTime": 0,
        "channel": 9,
        "note": 40,
        "velocity": 0
      },
      {
        "type": "midi",
        "subType": "noteOn",
        "typeByte": 153,
        "deltaTime": 8,
        "channel": 9,
        "note": 38,
        "velocity": 127
      },
      {
        "type": "midi",
        "subType": "noteOn",
        "typeByte": 153,
        "deltaTime": 0,
        "channel": 9,
        "note": 61,
        "velocity": 127
      },
      {
        "type": "midi",
        "subType": "noteOn",
        "typeByte": 153,
        "deltaTime": 1,
        "channel": 9,
        "note": 42,
        "velocity": 127
      },
      {
        "type": "midi",
        "subType": "noteOff",
        "typeByte": 153,
        "deltaTime": 22,
        "channel": 9,
        "note": 61,
        "velocity": 0
      },
      {
        "type": "midi",
        "subType": "noteOff",
        "typeByte": 153,
        "deltaTime": 0,
        "channel": 9,
        "note": 38,
        "velocity": 0
      },
      {
        "type": "midi",
        "subType": "noteOff",
        "typeByte": 153,
        "deltaTime": 3,
        "channel": 9,
        "note": 42,
        "velocity": 0
      },
      {
        "type": "midi",
        "subType": "noteOn",
        "typeByte": 153,
        "deltaTime": 23,
        "channel": 9,
        "note": 61,
        "velocity": 127
      },
      {
        "type": "midi",
        "subType": "noteOn",
        "typeByte": 153,
        "deltaTime": 0,
        "channel": 9,
        "note": 42,
        "velocity": 127
      },
      {
        "type": "midi",
        "subType": "noteOff",
        "typeByte": 153,
        "deltaTime": 23,
        "channel": 9,
        "note": 61,
        "velocity": 0
      },
      {
        "type": "midi",
        "subType": "noteOff",
        "typeByte": 153,
        "deltaTime": 4,
        "channel": 9,
        "note": 42,
        "velocity": 0
      },
      {
        "type": "midi",
        "subType": "noteOn",
        "typeByte": 153,
        "deltaTime": 21,
        "channel": 9,
        "note": 36,
        "velocity": 127
      },
      {
        "type": "midi",
        "subType": "noteOn",
        "typeByte": 153,
        "deltaTime": 0,
        "channel": 9,
        "note": 61,
        "velocity": 127
      },
      {
        "type": "midi",
        "subType": "noteOn",
        "typeByte": 153,
        "deltaTime": 0,
        "channel": 9,
        "note": 42,
        "velocity": 127
      },
      {
        "type": "midi",
        "subType": "noteOff",
        "typeByte": 153,
        "deltaTime": 23,
        "channel": 9,
        "note": 61,
        "velocity": 0
      },
      {
        "type": "midi",
        "subType": "noteOff",
        "typeByte": 153,
        "deltaTime": 0,
        "channel": 9,
        "note": 36,
        "velocity": 0
      },
      {
        "type": "midi",
        "subType": "noteOff",
        "typeByte": 153,
        "deltaTime": 12,
        "channel": 9,
        "note": 42,
        "velocity": 0
      },
      {
        "type": "midi",
        "subType": "noteOn",
        "typeByte": 153,
        "deltaTime": 14,
        "channel": 9,
        "note": 61,
        "velocity": 127
      },
      {
        "type": "midi",
        "subType": "noteOn",
        "typeByte": 153,
        "deltaTime": 0,
        "channel": 9,
        "note": 42,
        "velocity": 127
      },
      {
        "type": "midi",
        "subType": "noteOff",
        "typeByte": 153,
        "deltaTime": 23,
        "channel": 9,
        "note": 61,
        "velocity": 0
      },
      {
        "type": "midi",
        "subType": "noteOff",
        "typeByte": 153,
        "deltaTime": 1,
        "channel": 9,
        "note": 42,
        "velocity": 0
      },
      {
        "type": "midi",
        "subType": "noteOn",
        "typeByte": 153,
        "deltaTime": 23,
        "channel": 9,
        "note": 38,
        "velocity": 127
      },
      {
        "type": "midi",
        "subType": "noteOn",
        "typeByte": 153,
        "deltaTime": 0,
        "channel": 9,
        "note": 61,
        "velocity": 127
      },
      {
        "type": "midi",
        "subType": "noteOn",
        "typeByte": 153,
        "deltaTime": 0,
        "channel": 9,
        "note": 42,
        "velocity": 127
      },
      {
        "type": "midi",
        "subType": "noteOff",
        "typeByte": 153,
        "deltaTime": 19,
        "channel": 9,
        "note": 42,
        "velocity": 0
      },
      {
        "type": "midi",
        "subType": "noteOff",
        "typeByte": 153,
        "deltaTime": 4,
        "channel": 9,
        "note": 61,
        "velocity": 0
      },
      {
        "type": "midi",
        "subType": "noteOff",
        "typeByte": 153,
        "deltaTime": 0,
        "channel": 9,
        "note": 38,
        "velocity": 0
      },
      {
        "type": "midi",
        "subType": "noteOn",
        "typeByte": 153,
        "deltaTime": 26,
        "channel": 9,
        "note": 61,
        "velocity": 127
      },
      {
        "type": "midi",
        "subType": "noteOn",
        "typeByte": 153,
        "deltaTime": 0,
        "channel": 9,
        "note": 42,
        "velocity": 127
      },
      {
        "type": "midi",
        "subType": "noteOff",
        "typeByte": 153,
        "deltaTime": 20,
        "channel": 9,
        "note": 42,
        "velocity": 0
      },
      {
        "type": "midi",
        "subType": "noteOff",
        "typeByte": 153,
        "deltaTime": 3,
        "channel": 9,
        "note": 61,
        "velocity": 0
      },
      {
        "type": "midi",
        "subType": "noteOn",
        "typeByte": 153,
        "deltaTime": 24,
        "channel": 9,
        "note": 36,
        "velocity": 127
      },
      {
        "type": "midi",
        "subType": "noteOn",
        "typeByte": 153,
        "deltaTime": 0,
        "channel": 9,
        "note": 61,
        "velocity": 127
      },
      {
        "type": "midi",
        "subType": "noteOn",
        "typeByte": 153,
        "deltaTime": 1,
        "channel": 9,
        "note": 40,
        "velocity": 127
      },
      {
        "type": "midi",
        "subType": "noteOn",
        "typeByte": 153,
        "deltaTime": 0,
        "channel": 9,
        "note": 51,
        "velocity": 127
      },
      {
        "type": "midi",
        "subType": "noteOn",
        "typeByte": 153,
        "deltaTime": 0,
        "channel": 9,
        "note": 42,
        "velocity": 127
      },
      {
        "type": "midi",
        "subType": "noteOff",
        "typeByte": 153,
        "deltaTime": 21,
        "channel": 9,
        "note": 42,
        "velocity": 0
      },
      {
        "type": "midi",
        "subType": "noteOff",
        "typeByte": 153,
        "deltaTime": 1,
        "channel": 9,
        "note": 36,
        "velocity": 0
      },
      {
        "type": "midi",
        "subType": "noteOff",
        "typeByte": 153,
        "deltaTime": 0,
        "channel": 9,
        "note": 61,
        "velocity": 0
      },
      {
        "type": "midi",
        "subType": "noteOn",
        "typeByte": 153,
        "deltaTime": 26,
        "channel": 9,
        "note": 36,
        "velocity": 127
      },
      {
        "type": "midi",
        "subType": "noteOn",
        "typeByte": 153,
        "deltaTime": 0,
        "channel": 9,
        "note": 61,
        "velocity": 127
      },
      {
        "type": "midi",
        "subType": "noteOn",
        "typeByte": 153,
        "deltaTime": 1,
        "channel": 9,
        "note": 42,
        "velocity": 127
      },
      {
        "type": "midi",
        "subType": "noteOff",
        "typeByte": 153,
        "deltaTime": 19,
        "channel": 9,
        "note": 42,
        "velocity": 0
      },
      {
        "type": "midi",
        "subType": "noteOff",
        "typeByte": 153,
        "deltaTime": 3,
        "channel": 9,
        "note": 36,
        "velocity": 0
      },
      {
        "type": "midi",
        "subType": "noteOff",
        "typeByte": 153,
        "deltaTime": 0,
        "channel": 9,
        "note": 61,
        "velocity": 0
      },
      {
        "type": "midi",
        "subType": "noteOff",
        "typeByte": 153,
        "deltaTime": 25,
        "channel": 9,
        "note": 40,
        "velocity": 0
      },
      {
        "type": "midi",
        "subType": "noteOn",
        "typeByte": 153,
        "deltaTime": 0,
        "channel": 9,
        "note": 38,
        "velocity": 127
      },
      {
        "type": "midi",
        "subType": "noteOn",
        "typeByte": 153,
        "deltaTime": 0,
        "channel": 9,
        "note": 61,
        "velocity": 127
      },
      {
        "type": "midi",
        "subType": "noteOn",
        "typeByte": 153,
        "deltaTime": 0,
        "channel": 9,
        "note": 42,
        "velocity": 127
      },
      {
        "type": "midi",
        "subType": "noteOff",
        "typeByte": 153,
        "deltaTime": 5,
        "channel": 9,
        "note": 51,
        "velocity": 0
      },
      {
        "type": "midi",
        "subType": "noteOff",
        "typeByte": 153,
        "deltaTime": 18,
        "channel": 9,
        "note": 38,
        "velocity": 0
      },
      {
        "type": "midi",
        "subType": "noteOff",
        "typeByte": 153,
        "deltaTime": 0,
        "channel": 9,
        "note": 61,
        "velocity": 0
      },
      {
        "type": "midi",
        "subType": "noteOff",
        "typeByte": 153,
        "deltaTime": 0,
        "channel": 9,
        "note": 42,
        "velocity": 0
      },
      {
        "type": "midi",
        "subType": "noteOn",
        "typeByte": 153,
        "deltaTime": 25,
        "channel": 9,
        "note": 61,
        "velocity": 127
      },
      {
        "type": "midi",
        "subType": "noteOn",
        "typeByte": 153,
        "deltaTime": 0,
        "channel": 9,
        "note": 42,
        "velocity": 127
      },
      {
        "type": "midi",
        "subType": "noteOff",
        "typeByte": 153,
        "deltaTime": 23,
        "channel": 9,
        "note": 42,
        "velocity": 0
      },
      {
        "type": "midi",
        "subType": "noteOff",
        "typeByte": 153,
        "deltaTime": 0,
        "channel": 9,
        "note": 61,
        "velocity": 0
      },
      {
        "type": "midi",
        "subType": "noteOn",
        "typeByte": 153,
        "deltaTime": 25,
        "channel": 9,
        "note": 36,
        "velocity": 127
      },
      {
        "type": "midi",
        "subType": "noteOn",
        "typeByte": 153,
        "deltaTime": 0,
        "channel": 9,
        "note": 61,
        "velocity": 127
      },
      {
        "type": "midi",
        "subType": "noteOn",
        "typeByte": 153,
        "deltaTime": 0,
        "channel": 9,
        "note": 42,
        "velocity": 127
      },
      {
        "type": "midi",
        "subType": "noteOff",
        "typeByte": 153,
        "deltaTime": 23,
        "channel": 9,
        "note": 61,
        "velocity": 0
      },
      {
        "type": "midi",
        "subType": "noteOff",
        "typeByte": 153,
        "deltaTime": 0,
        "channel": 9,
        "note": 36,
        "velocity": 0
      },
      {
        "type": "midi",
        "subType": "noteOff",
        "typeByte": 153,
        "deltaTime": 8,
        "channel": 9,
        "note": 42,
        "velocity": 0
      },
      {
        "type": "midi",
        "subType": "noteOn",
        "typeByte": 153,
        "deltaTime": 18,
        "channel": 9,
        "note": 61,
        "velocity": 127
      },
      {
        "type": "midi",
        "subType": "noteOn",
        "typeByte": 153,
        "deltaTime": 0,
        "channel": 9,
        "note": 42,
        "velocity": 127
      },
      {
        "type": "midi",
        "subType": "noteOff",
        "typeByte": 153,
        "deltaTime": 23,
        "channel": 9,
        "note": 42,
        "velocity": 0
      },
      {
        "type": "midi",
        "subType": "noteOff",
        "typeByte": 153,
        "deltaTime": 0,
        "channel": 9,
        "note": 61,
        "velocity": 0
      },
      {
        "type": "midi",
        "subType": "noteOn",
        "typeByte": 153,
        "deltaTime": 24,
        "channel": 9,
        "note": 38,
        "velocity": 127
      },
      {
        "type": "midi",
        "subType": "noteOn",
        "typeByte": 153,
        "deltaTime": 0,
        "channel": 9,
        "note": 61,
        "velocity": 127
      },
      {
        "type": "midi",
        "subType": "noteOn",
        "typeByte": 153,
        "deltaTime": 1,
        "channel": 9,
        "note": 42,
        "velocity": 127
      },
      {
        "type": "midi",
        "subType": "noteOff",
        "typeByte": 153,
        "deltaTime": 21,
        "channel": 9,
        "note": 42,
        "velocity": 0
      },
      {
        "type": "midi",
        "subType": "noteOff",
        "typeByte": 153,
        "deltaTime": 1,
        "channel": 9,
        "note": 61,
        "velocity": 0
      },
      {
        "type": "midi",
        "subType": "noteOff",
        "typeByte": 153,
        "deltaTime": 0,
        "channel": 9,
        "note": 38,
        "velocity": 0
      },
      {
        "type": "midi",
        "subType": "noteOn",
        "typeByte": 153,
        "deltaTime": 26,
        "channel": 9,
        "note": 61,
        "velocity": 127
      },
      {
        "type": "midi",
        "subType": "noteOn",
        "typeByte": 153,
        "deltaTime": 0,
        "channel": 9,
        "note": 42,
        "velocity": 127
      },
      {
        "type": "midi",
        "subType": "noteOff",
        "typeByte": 153,
        "deltaTime": 23,
        "channel": 9,
        "note": 42,
        "velocity": 0
      },
      {
        "type": "midi",
        "subType": "noteOff",
        "typeByte": 153,
        "deltaTime": 0,
        "channel": 9,
        "note": 61,
        "velocity": 0
      },
      {
        "type": "midi",
        "subType": "noteOn",
        "typeByte": 153,
        "deltaTime": 24,
        "channel": 9,
        "note": 36,
        "velocity": 127
      },
      {
        "type": "midi",
        "subType": "noteOn",
        "typeByte": 153,
        "deltaTime": 0,
        "channel": 9,
        "note": 61,
        "velocity": 127
      },
      {
        "type": "midi",
        "subType": "noteOn",
        "typeByte": 153,
        "deltaTime": 1,
        "channel": 9,
        "note": 51,
        "velocity": 127
      },
      {
        "type": "midi",
        "subType": "noteOn",
        "typeByte": 153,
        "deltaTime": 0,
        "channel": 9,
        "note": 40,
        "velocity": 127
      },
      {
        "type": "midi",
        "subType": "noteOn",
        "typeByte": 153,
        "deltaTime": 0,
        "channel": 9,
        "note": 42,
        "velocity": 127
      },
      {
        "type": "midi",
        "subType": "noteOff",
        "typeByte": 153,
        "deltaTime": 23,
        "channel": 9,
        "note": 42,
        "velocity": 0
      },
      {
        "type": "midi",
        "subType": "noteOff",
        "typeByte": 153,
        "deltaTime": 0,
        "channel": 9,
        "note": 36,
        "velocity": 0
      },
      {
        "type": "midi",
        "subType": "noteOff",
        "typeByte": 153,
        "deltaTime": 0,
        "channel": 9,
        "note": 61,
        "velocity": 0
      },
      {
        "type": "midi",
        "subType": "noteOn",
        "typeByte": 153,
        "deltaTime": 25,
        "channel": 9,
        "note": 36,
        "velocity": 127
      },
      {
        "type": "midi",
        "subType": "noteOn",
        "typeByte": 153,
        "deltaTime": 0,
        "channel": 9,
        "note": 61,
        "velocity": 127
      },
      {
        "type": "midi",
        "subType": "noteOn",
        "typeByte": 153,
        "deltaTime": 1,
        "channel": 9,
        "note": 42,
        "velocity": 127
      },
      {
        "type": "midi",
        "subType": "noteOff",
        "typeByte": 153,
        "deltaTime": 22,
        "channel": 9,
        "note": 61,
        "velocity": 0
      },
      {
        "type": "midi",
        "subType": "noteOff",
        "typeByte": 153,
        "deltaTime": 0,
        "channel": 9,
        "note": 36,
        "velocity": 0
      },
      {
        "type": "midi",
        "subType": "noteOff",
        "typeByte": 153,
        "deltaTime": 2,
        "channel": 9,
        "note": 42,
        "velocity": 0
      },
      {
        "type": "midi",
        "subType": "noteOff",
        "typeByte": 153,
        "deltaTime": 15,
        "channel": 9,
        "note": 51,
        "velocity": 0
      },
      {
        "type": "midi",
        "subType": "noteOff",
        "typeByte": 153,
        "deltaTime": 0,
        "channel": 9,
        "note": 40,
        "velocity": 0
      },
      {
        "type": "midi",
        "subType": "noteOn",
        "typeByte": 153,
        "deltaTime": 8,
        "channel": 9,
        "note": 38,
        "velocity": 127
      },
      {
        "type": "midi",
        "subType": "noteOn",
        "typeByte": 153,
        "deltaTime": 0,
        "channel": 9,
        "note": 61,
        "velocity": 127
      },
      {
        "type": "midi",
        "subType": "noteOn",
        "typeByte": 153,
        "deltaTime": 0,
        "channel": 9,
        "note": 42,
        "velocity": 127
      },
      {
        "type": "midi",
        "subType": "noteOff",
        "typeByte": 153,
        "deltaTime": 22,
        "channel": 9,
        "note": 42,
        "velocity": 0
      },
      {
        "type": "midi",
        "subType": "noteOff",
        "typeByte": 153,
        "deltaTime": 1,
        "channel": 9,
        "note": 61,
        "velocity": 0
      },
      {
        "type": "midi",
        "subType": "noteOff",
        "typeByte": 153,
        "deltaTime": 0,
        "channel": 9,
        "note": 38,
        "velocity": 0
      },
      {
        "type": "midi",
        "subType": "noteOn",
        "typeByte": 153,
        "deltaTime": 26,
        "channel": 9,
        "note": 61,
        "velocity": 127
      },
      {
        "type": "midi",
        "subType": "noteOn",
        "typeByte": 153,
        "deltaTime": 0,
        "channel": 9,
        "note": 42,
        "velocity": 127
      },
      {
        "type": "midi",
        "subType": "noteOff",
        "typeByte": 153,
        "deltaTime": 21,
        "channel": 9,
        "note": 42,
        "velocity": 0
      },
      {
        "type": "midi",
        "subType": "noteOff",
        "typeByte": 153,
        "deltaTime": 2,
        "channel": 9,
        "note": 61,
        "velocity": 0
      },
      {
        "type": "midi",
        "subType": "noteOn",
        "typeByte": 153,
        "deltaTime": 24,
        "channel": 9,
        "note": 36,
        "velocity": 127
      },
      {
        "type": "midi",
        "subType": "noteOn",
        "typeByte": 153,
        "deltaTime": 0,
        "channel": 9,
        "note": 61,
        "velocity": 127
      },
      {
        "type": "midi",
        "subType": "noteOn",
        "typeByte": 153,
        "deltaTime": 0,
        "channel": 9,
        "note": 42,
        "velocity": 127
      },
      {
        "type": "midi",
        "subType": "noteOn",
        "typeByte": 153,
        "deltaTime": 1,
        "channel": 9,
        "note": 49,
        "velocity": 127
      },
      {
        "type": "midi",
        "subType": "controller",
        "typeByte": 185,
        "deltaTime": 7,
        "channel": 9,
        "controllerType": 66,
        "value": 0
      },
      {
        "type": "midi",
        "subType": "controller",
        "typeByte": 185,
        "deltaTime": 4,
        "channel": 9,
        "controllerType": 66,
        "value": 0
      },
      {
        "type": "midi",
        "subType": "controller",
        "typeByte": 185,
        "deltaTime": 4,
        "channel": 9,
        "controllerType": 66,
        "value": 0
      },
      {
        "type": "midi",
        "subType": "noteOff",
        "typeByte": 153,
        "deltaTime": 7,
        "channel": 9,
        "note": 61,
        "velocity": 0
      },
      {
        "type": "midi",
        "subType": "noteOff",
        "typeByte": 153,
        "deltaTime": 0,
        "channel": 9,
        "note": 36,
        "velocity": 0
      },
      {
        "type": "midi",
        "subType": "noteOff",
        "typeByte": 153,
        "deltaTime": 3,
        "channel": 9,
        "note": 42,
        "velocity": 0
      },
      {
        "type": "midi",
        "subType": "noteOn",
        "typeByte": 153,
        "deltaTime": 23,
        "channel": 9,
        "note": 61,
        "velocity": 127
      },
      {
        "type": "midi",
        "subType": "noteOn",
        "typeByte": 153,
        "deltaTime": 0,
        "channel": 9,
        "note": 42,
        "velocity": 127
      },
      {
        "type": "midi",
        "subType": "noteOff",
        "typeByte": 153,
        "deltaTime": 20,
        "channel": 9,
        "note": 42,
        "velocity": 0
      },
      {
        "type": "midi",
        "subType": "noteOff",
        "typeByte": 153,
        "deltaTime": 3,
        "channel": 9,
        "note": 61,
        "velocity": 0
      },
      {
        "type": "midi",
        "subType": "noteOn",
        "typeByte": 153,
        "deltaTime": 24,
        "channel": 9,
        "note": 38,
        "velocity": 127
      },
      {
        "type": "midi",
        "subType": "noteOn",
        "typeByte": 153,
        "deltaTime": 1,
        "channel": 9,
        "note": 61,
        "velocity": 127
      },
      {
        "type": "midi",
        "subType": "noteOn",
        "typeByte": 153,
        "deltaTime": 0,
        "channel": 9,
        "note": 42,
        "velocity": 127
      },
      {
        "type": "midi",
        "subType": "noteOff",
        "typeByte": 153,
        "deltaTime": 22,
        "channel": 9,
        "note": 42,
        "velocity": 0
      },
      {
        "type": "midi",
        "subType": "noteOff",
        "typeByte": 153,
        "deltaTime": 0,
        "channel": 9,
        "note": 38,
        "velocity": 0
      },
      {
        "type": "midi",
        "subType": "noteOff",
        "typeByte": 153,
        "deltaTime": 1,
        "channel": 9,
        "note": 61,
        "velocity": 0
      },
      {
        "type": "midi",
        "subType": "noteOn",
        "typeByte": 153,
        "deltaTime": 25,
        "channel": 9,
        "note": 61,
        "velocity": 127
      },
      {
        "type": "midi",
        "subType": "noteOn",
        "typeByte": 153,
        "deltaTime": 0,
        "channel": 9,
        "note": 42,
        "velocity": 127
      },
      {
        "type": "midi",
        "subType": "noteOff",
        "typeByte": 153,
        "deltaTime": 23,
        "channel": 9,
        "note": 42,
        "velocity": 0
      },
      {
        "type": "midi",
        "subType": "noteOff",
        "typeByte": 153,
        "deltaTime": 0,
        "channel": 9,
        "note": 61,
        "velocity": 0
      },
      {
        "type": "midi",
        "subType": "noteOn",
        "typeByte": 153,
        "deltaTime": 25,
        "channel": 9,
        "note": 36,
        "velocity": 127
      },
      {
        "type": "midi",
        "subType": "noteOn",
        "typeByte": 153,
        "deltaTime": 0,
        "channel": 9,
        "note": 61,
        "velocity": 127
      },
      {
        "type": "midi",
        "subType": "noteOn",
        "typeByte": 153,
        "deltaTime": 0,
        "channel": 9,
        "note": 40,
        "velocity": 127
      },
      {
        "type": "midi",
        "subType": "noteOn",
        "typeByte": 153,
        "deltaTime": 0,
        "channel": 9,
        "note": 51,
        "velocity": 127
      },
      {
        "type": "midi",
        "subType": "noteOn",
        "typeByte": 153,
        "deltaTime": 1,
        "channel": 9,
        "note": 42,
        "velocity": 127
      },
      {
        "type": "midi",
        "subType": "noteOff",
        "typeByte": 153,
        "deltaTime": 22,
        "channel": 9,
        "note": 42,
        "velocity": 0
      },
      {
        "type": "midi",
        "subType": "noteOff",
        "typeByte": 153,
        "deltaTime": 0,
        "channel": 9,
        "note": 36,
        "velocity": 0
      },
      {
        "type": "midi",
        "subType": "noteOff",
        "typeByte": 153,
        "deltaTime": 0,
        "channel": 9,
        "note": 61,
        "velocity": 0
      },
      {
        "type": "midi",
        "subType": "noteOn",
        "typeByte": 153,
        "deltaTime": 25,
        "channel": 9,
        "note": 36,
        "velocity": 127
      },
      {
        "type": "midi",
        "subType": "noteOn",
        "typeByte": 153,
        "deltaTime": 0,
        "channel": 9,
        "note": 61,
        "velocity": 127
      },
      {
        "type": "midi",
        "subType": "noteOn",
        "typeByte": 153,
        "deltaTime": 1,
        "channel": 9,
        "note": 42,
        "velocity": 127
      },
      {
        "type": "midi",
        "subType": "noteOff",
        "typeByte": 153,
        "deltaTime": 22,
        "channel": 9,
        "note": 61,
        "velocity": 0
      },
      {
        "type": "midi",
        "subType": "noteOff",
        "typeByte": 153,
        "deltaTime": 0,
        "channel": 9,
        "note": 36,
        "velocity": 0
      },
      {
        "type": "midi",
        "subType": "noteOff",
        "typeByte": 153,
        "deltaTime": 2,
        "channel": 9,
        "note": 42,
        "velocity": 0
      },
      {
        "type": "midi",
        "subType": "noteOff",
        "typeByte": 153,
        "deltaTime": 23,
        "channel": 9,
        "note": 40,
        "velocity": 0
      },
      {
        "type": "midi",
        "subType": "noteOn",
        "typeByte": 153,
        "deltaTime": 0,
        "channel": 9,
        "note": 38,
        "velocity": 127
      },
      {
        "type": "midi",
        "subType": "noteOn",
        "typeByte": 153,
        "deltaTime": 0,
        "channel": 9,
        "note": 61,
        "velocity": 127
      },
      {
        "type": "midi",
        "subType": "noteOn",
        "typeByte": 153,
        "deltaTime": 1,
        "channel": 9,
        "note": 42,
        "velocity": 127
      },
      {
        "type": "midi",
        "subType": "noteOff",
        "typeByte": 153,
        "deltaTime": 4,
        "channel": 9,
        "note": 51,
        "velocity": 0
      },
      {
        "type": "midi",
        "subType": "noteOff",
        "typeByte": 153,
        "deltaTime": 18,
        "channel": 9,
        "note": 61,
        "velocity": 0
      },
      {
        "type": "midi",
        "subType": "noteOff",
        "typeByte": 153,
        "deltaTime": 0,
        "channel": 9,
        "note": 38,
        "velocity": 0
      },
      {
        "type": "midi",
        "subType": "noteOff",
        "typeByte": 153,
        "deltaTime": 3,
        "channel": 9,
        "note": 42,
        "velocity": 0
      },
      {
        "type": "midi",
        "subType": "noteOn",
        "typeByte": 153,
        "deltaTime": 23,
        "channel": 9,
        "note": 61,
        "velocity": 127
      },
      {
        "type": "midi",
        "subType": "noteOn",
        "typeByte": 153,
        "deltaTime": 0,
        "channel": 9,
        "note": 42,
        "velocity": 127
      },
      {
        "type": "midi",
        "subType": "noteOff",
        "typeByte": 153,
        "deltaTime": 1,
        "channel": 9,
        "note": 49,
        "velocity": 0
      },
      {
        "type": "midi",
        "subType": "noteOff",
        "typeByte": 153,
        "deltaTime": 22,
        "channel": 9,
        "note": 61,
        "velocity": 0
      },
      {
        "type": "midi",
        "subType": "noteOff",
        "typeByte": 153,
        "deltaTime": 1,
        "channel": 9,
        "note": 42,
        "velocity": 0
      },
      {
        "type": "midi",
        "subType": "noteOn",
        "typeByte": 153,
        "deltaTime": 23,
        "channel": 9,
        "note": 36,
        "velocity": 127
      },
      {
        "type": "midi",
        "subType": "noteOn",
        "typeByte": 153,
        "deltaTime": 0,
        "channel": 9,
        "note": 61,
        "velocity": 127
      },
      {
        "type": "midi",
        "subType": "noteOn",
        "typeByte": 153,
        "deltaTime": 1,
        "channel": 9,
        "note": 42,
        "velocity": 127
      },
      {
        "type": "midi",
        "subType": "noteOff",
        "typeByte": 153,
        "deltaTime": 22,
        "channel": 9,
        "note": 61,
        "velocity": 0
      },
      {
        "type": "midi",
        "subType": "noteOff",
        "typeByte": 153,
        "deltaTime": 0,
        "channel": 9,
        "note": 36,
        "velocity": 0
      },
      {
        "type": "midi",
        "subType": "noteOff",
        "typeByte": 153,
        "deltaTime": 6,
        "channel": 9,
        "note": 42,
        "velocity": 0
      },
      {
        "type": "midi",
        "subType": "noteOn",
        "typeByte": 153,
        "deltaTime": 20,
        "channel": 9,
        "note": 61,
        "velocity": 127
      },
      {
        "type": "midi",
        "subType": "noteOn",
        "typeByte": 153,
        "deltaTime": 0,
        "channel": 9,
        "note": 42,
        "velocity": 127
      },
      {
        "type": "midi",
        "subType": "noteOff",
        "typeByte": 153,
        "deltaTime": 22,
        "channel": 9,
        "note": 42,
        "velocity": 0
      },
      {
        "type": "midi",
        "subType": "noteOff",
        "typeByte": 153,
        "deltaTime": 1,
        "channel": 9,
        "note": 61,
        "velocity": 0
      },
      {
        "type": "midi",
        "subType": "noteOn",
        "typeByte": 153,
        "deltaTime": 25,
        "channel": 9,
        "note": 38,
        "velocity": 127
      },
      {
        "type": "midi",
        "subType": "noteOn",
        "typeByte": 153,
        "deltaTime": 0,
        "channel": 9,
        "note": 61,
        "velocity": 127
      },
      {
        "type": "midi",
        "subType": "noteOn",
        "typeByte": 153,
        "deltaTime": 0,
        "channel": 9,
        "note": 42,
        "velocity": 127
      },
      {
        "type": "midi",
        "subType": "noteOff",
        "typeByte": 153,
        "deltaTime": 23,
        "channel": 9,
        "note": 42,
        "velocity": 0
      },
      {
        "type": "midi",
        "subType": "noteOff",
        "typeByte": 153,
        "deltaTime": 0,
        "channel": 9,
        "note": 61,
        "velocity": 0
      },
      {
        "type": "midi",
        "subType": "noteOff",
        "typeByte": 153,
        "deltaTime": 0,
        "channel": 9,
        "note": 38,
        "velocity": 0
      },
      {
        "type": "midi",
        "subType": "noteOn",
        "typeByte": 153,
        "deltaTime": 25,
        "channel": 9,
        "note": 61,
        "velocity": 127
      },
      {
        "type": "midi",
        "subType": "noteOn",
        "typeByte": 153,
        "deltaTime": 1,
        "channel": 9,
        "note": 42,
        "velocity": 127
      },
      {
        "type": "midi",
        "subType": "noteOff",
        "typeByte": 153,
        "deltaTime": 22,
        "channel": 9,
        "note": 61,
        "velocity": 0
      },
      {
        "type": "midi",
        "subType": "noteOff",
        "typeByte": 153,
        "deltaTime": 2,
        "channel": 9,
        "note": 42,
        "velocity": 0
      },
      {
        "type": "midi",
        "subType": "noteOn",
        "typeByte": 153,
        "deltaTime": 23,
        "channel": 9,
        "note": 36,
        "velocity": 127
      },
      {
        "type": "midi",
        "subType": "noteOn",
        "typeByte": 153,
        "deltaTime": 0,
        "channel": 9,
        "note": 61,
        "velocity": 127
      },
      {
        "type": "midi",
        "subType": "noteOn",
        "typeByte": 153,
        "deltaTime": 0,
        "channel": 9,
        "note": 51,
        "velocity": 127
      },
      {
        "type": "midi",
        "subType": "noteOn",
        "typeByte": 153,
        "deltaTime": 1,
        "channel": 9,
        "note": 40,
        "velocity": 127
      },
      {
        "type": "midi",
        "subType": "noteOn",
        "typeByte": 153,
        "deltaTime": 0,
        "channel": 9,
        "note": 42,
        "velocity": 127
      },
      {
        "type": "midi",
        "subType": "noteOff",
        "typeByte": 153,
        "deltaTime": 22,
        "channel": 9,
        "note": 61,
        "velocity": 0
      },
      {
        "type": "midi",
        "subType": "noteOff",
        "typeByte": 153,
        "deltaTime": 0,
        "channel": 9,
        "note": 36,
        "velocity": 0
      },
      {
        "type": "midi",
        "subType": "noteOff",
        "typeByte": 153,
        "deltaTime": 3,
        "channel": 9,
        "note": 42,
        "velocity": 0
      },
      {
        "type": "midi",
        "subType": "noteOn",
        "typeByte": 153,
        "deltaTime": 23,
        "channel": 9,
        "note": 36,
        "velocity": 127
      },
      {
        "type": "midi",
        "subType": "noteOn",
        "typeByte": 153,
        "deltaTime": 0,
        "channel": 9,
        "note": 61,
        "velocity": 127
      },
      {
        "type": "midi",
        "subType": "noteOn",
        "typeByte": 153,
        "deltaTime": 0,
        "channel": 9,
        "note": 42,
        "velocity": 127
      },
      {
        "type": "midi",
        "subType": "noteOff",
        "typeByte": 153,
        "deltaTime": 23,
        "channel": 9,
        "note": 61,
        "velocity": 0
      },
      {
        "type": "midi",
        "subType": "noteOff",
        "typeByte": 153,
        "deltaTime": 0,
        "channel": 9,
        "note": 36,
        "velocity": 0
      },
      {
        "type": "midi",
        "subType": "noteOff",
        "typeByte": 153,
        "deltaTime": 1,
        "channel": 9,
        "note": 42,
        "velocity": 0
      },
      {
        "type": "midi",
        "subType": "noteOff",
        "typeByte": 153,
        "deltaTime": 15,
        "channel": 9,
        "note": 51,
        "velocity": 0
      },
      {
        "type": "midi",
        "subType": "noteOff",
        "typeByte": 153,
        "deltaTime": 0,
        "channel": 9,
        "note": 40,
        "velocity": 0
      },
      {
        "type": "midi",
        "subType": "noteOn",
        "typeByte": 153,
        "deltaTime": 8,
        "channel": 9,
        "note": 38,
        "velocity": 127
      },
      {
        "type": "midi",
        "subType": "noteOn",
        "typeByte": 153,
        "deltaTime": 0,
        "channel": 9,
        "note": 61,
        "velocity": 127
      },
      {
        "type": "midi",
        "subType": "noteOn",
        "typeByte": 153,
        "deltaTime": 0,
        "channel": 9,
        "note": 42,
        "velocity": 127
      },
      {
        "type": "midi",
        "subType": "noteOff",
        "typeByte": 153,
        "deltaTime": 23,
        "channel": 9,
        "note": 61,
        "velocity": 0
      },
      {
        "type": "midi",
        "subType": "noteOff",
        "typeByte": 153,
        "deltaTime": 0,
        "channel": 9,
        "note": 38,
        "velocity": 0
      },
      {
        "type": "midi",
        "subType": "noteOff",
        "typeByte": 153,
        "deltaTime": 3,
        "channel": 9,
        "note": 42,
        "velocity": 0
      },
      {
        "type": "midi",
        "subType": "noteOn",
        "typeByte": 153,
        "deltaTime": 23,
        "channel": 9,
        "note": 61,
        "velocity": 127
      },
      {
        "type": "midi",
        "subType": "noteOn",
        "typeByte": 153,
        "deltaTime": 0,
        "channel": 9,
        "note": 42,
        "velocity": 127
      },
      {
        "type": "midi",
        "subType": "noteOff",
        "typeByte": 153,
        "deltaTime": 23,
        "channel": 9,
        "note": 61,
        "velocity": 0
      },
      {
        "type": "midi",
        "subType": "noteOff",
        "typeByte": 153,
        "deltaTime": 1,
        "channel": 9,
        "note": 42,
        "velocity": 0
      },
      {
        "type": "midi",
        "subType": "noteOn",
        "typeByte": 153,
        "deltaTime": 23,
        "channel": 9,
        "note": 36,
        "velocity": 127
      },
      {
        "type": "midi",
        "subType": "noteOn",
        "typeByte": 153,
        "deltaTime": 0,
        "channel": 9,
        "note": 61,
        "velocity": 127
      },
      {
        "type": "midi",
        "subType": "noteOn",
        "typeByte": 153,
        "deltaTime": 1,
        "channel": 9,
        "note": 42,
        "velocity": 127
      },
      {
        "type": "midi",
        "subType": "noteOff",
        "typeByte": 153,
        "deltaTime": 22,
        "channel": 9,
        "note": 61,
        "velocity": 0
      },
      {
        "type": "midi",
        "subType": "noteOff",
        "typeByte": 153,
        "deltaTime": 0,
        "channel": 9,
        "note": 36,
        "velocity": 0
      },
      {
        "type": "midi",
        "subType": "noteOff",
        "typeByte": 153,
        "deltaTime": 3,
        "channel": 9,
        "note": 42,
        "velocity": 0
      },
      {
        "type": "midi",
        "subType": "noteOn",
        "typeByte": 153,
        "deltaTime": 23,
        "channel": 9,
        "note": 61,
        "velocity": 127
      },
      {
        "type": "midi",
        "subType": "noteOn",
        "typeByte": 153,
        "deltaTime": 0,
        "channel": 9,
        "note": 42,
        "velocity": 127
      },
      {
        "type": "midi",
        "subType": "noteOff",
        "typeByte": 153,
        "deltaTime": 23,
        "channel": 9,
        "note": 61,
        "velocity": 0
      },
      {
        "type": "midi",
        "subType": "noteOff",
        "typeByte": 153,
        "deltaTime": 3,
        "channel": 9,
        "note": 42,
        "velocity": 0
      },
      {
        "type": "midi",
        "subType": "noteOn",
        "typeByte": 153,
        "deltaTime": 22,
        "channel": 9,
        "note": 38,
        "velocity": 127
      },
      {
        "type": "midi",
        "subType": "noteOn",
        "typeByte": 153,
        "deltaTime": 0,
        "channel": 9,
        "note": 61,
        "velocity": 127
      },
      {
        "type": "midi",
        "subType": "noteOn",
        "typeByte": 153,
        "deltaTime": 0,
        "channel": 9,
        "note": 42,
        "velocity": 127
      },
      {
        "type": "midi",
        "subType": "noteOff",
        "typeByte": 153,
        "deltaTime": 23,
        "channel": 9,
        "note": 42,
        "velocity": 0
      },
      {
        "type": "midi",
        "subType": "noteOff",
        "typeByte": 153,
        "deltaTime": 0,
        "channel": 9,
        "note": 61,
        "velocity": 0
      },
      {
        "type": "midi",
        "subType": "noteOff",
        "typeByte": 153,
        "deltaTime": 0,
        "channel": 9,
        "note": 38,
        "velocity": 0
      },
      {
        "type": "midi",
        "subType": "noteOn",
        "typeByte": 153,
        "deltaTime": 25,
        "channel": 9,
        "note": 61,
        "velocity": 127
      },
      {
        "type": "midi",
        "subType": "noteOn",
        "typeByte": 153,
        "deltaTime": 1,
        "channel": 9,
        "note": 42,
        "velocity": 127
      },
      {
        "type": "midi",
        "subType": "noteOff",
        "typeByte": 153,
        "deltaTime": 23,
        "channel": 9,
        "note": 42,
        "velocity": 0
      },
      {
        "type": "midi",
        "subType": "noteOff",
        "typeByte": 153,
        "deltaTime": 0,
        "channel": 9,
        "note": 61,
        "velocity": 0
      },
      {
        "type": "midi",
        "subType": "noteOn",
        "typeByte": 153,
        "deltaTime": 24,
        "channel": 9,
        "note": 36,
        "velocity": 127
      },
      {
        "type": "midi",
        "subType": "noteOn",
        "typeByte": 153,
        "deltaTime": 0,
        "channel": 9,
        "note": 61,
        "velocity": 127
      },
      {
        "type": "midi",
        "subType": "noteOn",
        "typeByte": 153,
        "deltaTime": 0,
        "channel": 9,
        "note": 40,
        "velocity": 127
      },
      {
        "type": "midi",
        "subType": "noteOn",
        "typeByte": 153,
        "deltaTime": 1,
        "channel": 9,
        "note": 51,
        "velocity": 127
      },
      {
        "type": "midi",
        "subType": "noteOn",
        "typeByte": 153,
        "deltaTime": 0,
        "channel": 9,
        "note": 42,
        "velocity": 127
      },
      {
        "type": "midi",
        "subType": "noteOff",
        "typeByte": 153,
        "deltaTime": 22,
        "channel": 9,
        "note": 42,
        "velocity": 0
      },
      {
        "type": "midi",
        "subType": "noteOff",
        "typeByte": 153,
        "deltaTime": 0,
        "channel": 9,
        "note": 36,
        "velocity": 0
      },
      {
        "type": "midi",
        "subType": "noteOff",
        "typeByte": 153,
        "deltaTime": 0,
        "channel": 9,
        "note": 61,
        "velocity": 0
      },
      {
        "type": "midi",
        "subType": "noteOn",
        "typeByte": 153,
        "deltaTime": 26,
        "channel": 9,
        "note": 36,
        "velocity": 127
      },
      {
        "type": "midi",
        "subType": "noteOn",
        "typeByte": 153,
        "deltaTime": 0,
        "channel": 9,
        "note": 61,
        "velocity": 127
      },
      {
        "type": "midi",
        "subType": "noteOn",
        "typeByte": 153,
        "deltaTime": 0,
        "channel": 9,
        "note": 42,
        "velocity": 127
      },
      {
        "type": "midi",
        "subType": "noteOff",
        "typeByte": 153,
        "deltaTime": 21,
        "channel": 9,
        "note": 42,
        "velocity": 0
      },
      {
        "type": "midi",
        "subType": "noteOff",
        "typeByte": 153,
        "deltaTime": 2,
        "channel": 9,
        "note": 36,
        "velocity": 0
      },
      {
        "type": "midi",
        "subType": "noteOff",
        "typeByte": 153,
        "deltaTime": 0,
        "channel": 9,
        "note": 61,
        "velocity": 0
      },
      {
        "type": "midi",
        "subType": "noteOff",
        "typeByte": 153,
        "deltaTime": 24,
        "channel": 9,
        "note": 40,
        "velocity": 0
      },
      {
        "type": "midi",
        "subType": "noteOn",
        "typeByte": 153,
        "deltaTime": 1,
        "channel": 9,
        "note": 38,
        "velocity": 127
      },
      {
        "type": "midi",
        "subType": "noteOn",
        "typeByte": 153,
        "deltaTime": 0,
        "channel": 9,
        "note": 61,
        "velocity": 127
      },
      {
        "type": "midi",
        "subType": "noteOn",
        "typeByte": 153,
        "deltaTime": 0,
        "channel": 9,
        "note": 42,
        "velocity": 127
      },
      {
        "type": "midi",
        "subType": "noteOff",
        "typeByte": 153,
        "deltaTime": 5,
        "channel": 9,
        "note": 51,
        "velocity": 0
      },
      {
        "type": "midi",
        "subType": "noteOff",
        "typeByte": 153,
        "deltaTime": 17,
        "channel": 9,
        "note": 38,
        "velocity": 0
      },
      {
        "type": "midi",
        "subType": "noteOff",
        "typeByte": 153,
        "deltaTime": 0,
        "channel": 9,
        "note": 61,
        "velocity": 0
      },
      {
        "type": "midi",
        "subType": "noteOff",
        "typeByte": 153,
        "deltaTime": 2,
        "channel": 9,
        "note": 42,
        "velocity": 0
      },
      {
        "type": "midi",
        "subType": "noteOn",
        "typeByte": 153,
        "deltaTime": 24,
        "channel": 9,
        "note": 61,
        "velocity": 127
      },
      {
        "type": "midi",
        "subType": "noteOn",
        "typeByte": 153,
        "deltaTime": 0,
        "channel": 9,
        "note": 42,
        "velocity": 127
      },
      {
        "type": "midi",
        "subType": "noteOff",
        "typeByte": 153,
        "deltaTime": 22,
        "channel": 9,
        "note": 42,
        "velocity": 0
      },
      {
        "type": "midi",
        "subType": "noteOff",
        "typeByte": 153,
        "deltaTime": 1,
        "channel": 9,
        "note": 61,
        "velocity": 0
      },
      {
        "type": "midi",
        "subType": "noteOn",
        "typeByte": 153,
        "deltaTime": 25,
        "channel": 9,
        "note": 36,
        "velocity": 127
      },
      {
        "type": "midi",
        "subType": "noteOn",
        "typeByte": 153,
        "deltaTime": 0,
        "channel": 9,
        "note": 61,
        "velocity": 127
      },
      {
        "type": "midi",
        "subType": "noteOn",
        "typeByte": 153,
        "deltaTime": 0,
        "channel": 9,
        "note": 42,
        "velocity": 127
      },
      {
        "type": "midi",
        "subType": "noteOff",
        "typeByte": 153,
        "deltaTime": 19,
        "channel": 9,
        "note": 42,
        "velocity": 0
      },
      {
        "type": "midi",
        "subType": "noteOff",
        "typeByte": 153,
        "deltaTime": 4,
        "channel": 9,
        "note": 61,
        "velocity": 0
      },
      {
        "type": "midi",
        "subType": "noteOff",
        "typeByte": 153,
        "deltaTime": 0,
        "channel": 9,
        "note": 36,
        "velocity": 0
      },
      {
        "type": "midi",
        "subType": "noteOn",
        "typeByte": 153,
        "deltaTime": 25,
        "channel": 9,
        "note": 61,
        "velocity": 127
      },
      {
        "type": "midi",
        "subType": "noteOn",
        "typeByte": 153,
        "deltaTime": 0,
        "channel": 9,
        "note": 42,
        "velocity": 127
      },
      {
        "type": "midi",
        "subType": "noteOff",
        "typeByte": 153,
        "deltaTime": 17,
        "channel": 9,
        "note": 42,
        "velocity": 0
      },
      {
        "type": "midi",
        "subType": "noteOff",
        "typeByte": 153,
        "deltaTime": 6,
        "channel": 9,
        "note": 61,
        "velocity": 0
      },
      {
        "type": "midi",
        "subType": "noteOn",
        "typeByte": 153,
        "deltaTime": 25,
        "channel": 9,
        "note": 38,
        "velocity": 127
      },
      {
        "type": "midi",
        "subType": "noteOn",
        "typeByte": 153,
        "deltaTime": 0,
        "channel": 9,
        "note": 61,
        "velocity": 127
      },
      {
        "type": "midi",
        "subType": "noteOn",
        "typeByte": 153,
        "deltaTime": 0,
        "channel": 9,
        "note": 42,
        "velocity": 127
      },
      {
        "type": "midi",
        "subType": "noteOff",
        "typeByte": 153,
        "deltaTime": 20,
        "channel": 9,
        "note": 42,
        "velocity": 0
      },
      {
        "type": "midi",
        "subType": "noteOff",
        "typeByte": 153,
        "deltaTime": 3,
        "channel": 9,
        "note": 61,
        "velocity": 0
      },
      {
        "type": "midi",
        "subType": "noteOff",
        "typeByte": 153,
        "deltaTime": 0,
        "channel": 9,
        "note": 38,
        "velocity": 0
      },
      {
        "type": "midi",
        "subType": "noteOn",
        "typeByte": 153,
        "deltaTime": 26,
        "channel": 9,
        "note": 61,
        "velocity": 127
      },
      {
        "type": "midi",
        "subType": "noteOn",
        "typeByte": 153,
        "deltaTime": 0,
        "channel": 9,
        "note": 42,
        "velocity": 127
      },
      {
        "type": "midi",
        "subType": "noteOff",
        "typeByte": 153,
        "deltaTime": 13,
        "channel": 9,
        "note": 42,
        "velocity": 0
      },
      {
        "type": "midi",
        "subType": "noteOff",
        "typeByte": 153,
        "deltaTime": 10,
        "channel": 9,
        "note": 61,
        "velocity": 0
      },
      {
        "type": "midi",
        "subType": "noteOn",
        "typeByte": 153,
        "deltaTime": 24,
        "channel": 9,
        "note": 36,
        "velocity": 127
      },
      {
        "type": "midi",
        "subType": "noteOn",
        "typeByte": 153,
        "deltaTime": 0,
        "channel": 9,
        "note": 61,
        "velocity": 127
      },
      {
        "type": "midi",
        "subType": "noteOn",
        "typeByte": 153,
        "deltaTime": 1,
        "channel": 9,
        "note": 51,
        "velocity": 127
      },
      {
        "type": "midi",
        "subType": "noteOn",
        "typeByte": 153,
        "deltaTime": 0,
        "channel": 9,
        "note": 40,
        "velocity": 127
      },
      {
        "type": "midi",
        "subType": "noteOn",
        "typeByte": 153,
        "deltaTime": 0,
        "channel": 9,
        "note": 42,
        "velocity": 127
      },
      {
        "type": "midi",
        "subType": "noteOff",
        "typeByte": 153,
        "deltaTime": 21,
        "channel": 9,
        "note": 42,
        "velocity": 0
      },
      {
        "type": "midi",
        "subType": "noteOff",
        "typeByte": 153,
        "deltaTime": 1,
        "channel": 9,
        "note": 36,
        "velocity": 0
      },
      {
        "type": "midi",
        "subType": "noteOff",
        "typeByte": 153,
        "deltaTime": 0,
        "channel": 9,
        "note": 61,
        "velocity": 0
      },
      {
        "type": "midi",
        "subType": "noteOn",
        "typeByte": 153,
        "deltaTime": 26,
        "channel": 9,
        "note": 36,
        "velocity": 127
      },
      {
        "type": "midi",
        "subType": "noteOn",
        "typeByte": 153,
        "deltaTime": 0,
        "channel": 9,
        "note": 61,
        "velocity": 127
      },
      {
        "type": "midi",
        "subType": "noteOn",
        "typeByte": 153,
        "deltaTime": 0,
        "channel": 9,
        "note": 42,
        "velocity": 127
      },
      {
        "type": "midi",
        "subType": "noteOff",
        "typeByte": 153,
        "deltaTime": 23,
        "channel": 9,
        "note": 42,
        "velocity": 0
      },
      {
        "type": "midi",
        "subType": "noteOff",
        "typeByte": 153,
        "deltaTime": 0,
        "channel": 9,
        "note": 36,
        "velocity": 0
      },
      {
        "type": "midi",
        "subType": "noteOff",
        "typeByte": 153,
        "deltaTime": 0,
        "channel": 9,
        "note": 61,
        "velocity": 0
      },
      {
        "type": "midi",
        "subType": "noteOff",
        "typeByte": 153,
        "deltaTime": 16,
        "channel": 9,
        "note": 51,
        "velocity": 0
      },
      {
        "type": "midi",
        "subType": "noteOff",
        "typeByte": 153,
        "deltaTime": 0,
        "channel": 9,
        "note": 40,
        "velocity": 0
      },
      {
        "type": "midi",
        "subType": "noteOn",
        "typeByte": 153,
        "deltaTime": 8,
        "channel": 9,
        "note": 38,
        "velocity": 127
      },
      {
        "type": "midi",
        "subType": "noteOn",
        "typeByte": 153,
        "deltaTime": 0,
        "channel": 9,
        "note": 61,
        "velocity": 127
      },
      {
        "type": "midi",
        "subType": "noteOn",
        "typeByte": 153,
        "deltaTime": 1,
        "channel": 9,
        "note": 42,
        "velocity": 127
      },
      {
        "type": "midi",
        "subType": "noteOff",
        "typeByte": 153,
        "deltaTime": 23,
        "channel": 9,
        "note": 42,
        "velocity": 0
      },
      {
        "type": "midi",
        "subType": "noteOff",
        "typeByte": 153,
        "deltaTime": 0,
        "channel": 9,
        "note": 61,
        "velocity": 0
      },
      {
        "type": "midi",
        "subType": "noteOff",
        "typeByte": 153,
        "deltaTime": 0,
        "channel": 9,
        "note": 38,
        "velocity": 0
      },
      {
        "type": "midi",
        "subType": "noteOn",
        "typeByte": 153,
        "deltaTime": 25,
        "channel": 9,
        "note": 38,
        "velocity": 127
      },
      {
        "type": "midi",
        "subType": "noteOn",
        "typeByte": 153,
        "deltaTime": 0,
        "channel": 9,
        "note": 61,
        "velocity": 127
      },
      {
        "type": "midi",
        "subType": "noteOn",
        "typeByte": 153,
        "deltaTime": 1,
        "channel": 9,
        "note": 42,
        "velocity": 127
      },
      {
        "type": "midi",
        "subType": "noteOff",
        "typeByte": 153,
        "deltaTime": 22,
        "channel": 9,
        "note": 38,
        "velocity": 0
      },
      {
        "type": "midi",
        "subType": "noteOff",
        "typeByte": 153,
        "deltaTime": 1,
        "channel": 9,
        "note": 61,
        "velocity": 0
      },
      {
        "type": "midi",
        "subType": "noteOff",
        "typeByte": 153,
        "deltaTime": 1,
        "channel": 9,
        "note": 42,
        "velocity": 0
      },
      {
        "type": "midi",
        "subType": "noteOn",
        "typeByte": 153,
        "deltaTime": 23,
        "channel": 9,
        "note": 36,
        "velocity": 127
      },
      {
        "type": "midi",
        "subType": "noteOn",
        "typeByte": 153,
        "deltaTime": 0,
        "channel": 9,
        "note": 61,
        "velocity": 127
      },
      {
        "type": "midi",
        "subType": "noteOn",
        "typeByte": 153,
        "deltaTime": 0,
        "channel": 9,
        "note": 42,
        "velocity": 127
      },
      {
        "type": "midi",
        "subType": "noteOff",
        "typeByte": 153,
        "deltaTime": 23,
        "channel": 9,
        "note": 61,
        "velocity": 0
      },
      {
        "type": "midi",
        "subType": "noteOff",
        "typeByte": 153,
        "deltaTime": 0,
        "channel": 9,
        "note": 36,
        "velocity": 0
      },
      {
        "type": "midi",
        "subType": "noteOff",
        "typeByte": 153,
        "deltaTime": 2,
        "channel": 9,
        "note": 42,
        "velocity": 0
      },
      {
        "type": "midi",
        "subType": "noteOn",
        "typeByte": 153,
        "deltaTime": 24,
        "channel": 9,
        "note": 61,
        "velocity": 127
      },
      {
        "type": "midi",
        "subType": "noteOn",
        "typeByte": 153,
        "deltaTime": 0,
        "channel": 9,
        "note": 42,
        "velocity": 127
      },
      {
        "type": "midi",
        "subType": "noteOff",
        "typeByte": 153,
        "deltaTime": 20,
        "channel": 9,
        "note": 42,
        "velocity": 0
      },
      {
        "type": "midi",
        "subType": "noteOff",
        "typeByte": 153,
        "deltaTime": 3,
        "channel": 9,
        "note": 61,
        "velocity": 0
      },
      {
        "type": "midi",
        "subType": "noteOn",
        "typeByte": 153,
        "deltaTime": 24,
        "channel": 9,
        "note": 38,
        "velocity": 127
      },
      {
        "type": "midi",
        "subType": "noteOn",
        "typeByte": 153,
        "deltaTime": 0,
        "channel": 9,
        "note": 61,
        "velocity": 127
      },
      {
        "type": "midi",
        "subType": "noteOn",
        "typeByte": 153,
        "deltaTime": 1,
        "channel": 9,
        "note": 42,
        "velocity": 127
      },
      {
        "type": "midi",
        "subType": "noteOff",
        "typeByte": 153,
        "deltaTime": 22,
        "channel": 9,
        "note": 42,
        "velocity": 0
      },
      {
        "type": "midi",
        "subType": "noteOff",
        "typeByte": 153,
        "deltaTime": 0,
        "channel": 9,
        "note": 61,
        "velocity": 0
      },
      {
        "type": "midi",
        "subType": "noteOff",
        "typeByte": 153,
        "deltaTime": 0,
        "channel": 9,
        "note": 38,
        "velocity": 0
      },
      {
        "type": "midi",
        "subType": "noteOn",
        "typeByte": 153,
        "deltaTime": 26,
        "channel": 9,
        "note": 61,
        "velocity": 127
      },
      {
        "type": "midi",
        "subType": "noteOn",
        "typeByte": 153,
        "deltaTime": 0,
        "channel": 9,
        "note": 42,
        "velocity": 127
      },
      {
        "type": "midi",
        "subType": "noteOff",
        "typeByte": 153,
        "deltaTime": 23,
        "channel": 9,
        "note": 42,
        "velocity": 0
      },
      {
        "type": "midi",
        "subType": "noteOff",
        "typeByte": 153,
        "deltaTime": 0,
        "channel": 9,
        "note": 61,
        "velocity": 0
      },
      {
        "type": "midi",
        "subType": "noteOn",
        "typeByte": 153,
        "deltaTime": 24,
        "channel": 9,
        "note": 36,
        "velocity": 127
      },
      {
        "type": "midi",
        "subType": "noteOn",
        "typeByte": 153,
        "deltaTime": 0,
        "channel": 9,
        "note": 61,
        "velocity": 127
      },
      {
        "type": "midi",
        "subType": "noteOn",
        "typeByte": 153,
        "deltaTime": 1,
        "channel": 9,
        "note": 40,
        "velocity": 127
      },
      {
        "type": "midi",
        "subType": "noteOn",
        "typeByte": 153,
        "deltaTime": 0,
        "channel": 9,
        "note": 51,
        "velocity": 127
      },
      {
        "type": "midi",
        "subType": "noteOn",
        "typeByte": 153,
        "deltaTime": 0,
        "channel": 9,
        "note": 42,
        "velocity": 127
      },
      {
        "type": "midi",
        "subType": "noteOff",
        "typeByte": 153,
        "deltaTime": 22,
        "channel": 9,
        "note": 42,
        "velocity": 0
      },
      {
        "type": "midi",
        "subType": "noteOff",
        "typeByte": 153,
        "deltaTime": 0,
        "channel": 9,
        "note": 36,
        "velocity": 0
      },
      {
        "type": "midi",
        "subType": "noteOff",
        "typeByte": 153,
        "deltaTime": 1,
        "channel": 9,
        "note": 61,
        "velocity": 0
      },
      {
        "type": "midi",
        "subType": "noteOn",
        "typeByte": 153,
        "deltaTime": 25,
        "channel": 9,
        "note": 36,
        "velocity": 127
      },
      {
        "type": "midi",
        "subType": "noteOn",
        "typeByte": 153,
        "deltaTime": 0,
        "channel": 9,
        "note": 61,
        "velocity": 127
      },
      {
        "type": "midi",
        "subType": "noteOn",
        "typeByte": 153,
        "deltaTime": 1,
        "channel": 9,
        "note": 42,
        "velocity": 127
      },
      {
        "type": "midi",
        "subType": "noteOff",
        "typeByte": 153,
        "deltaTime": 22,
        "channel": 9,
        "note": 61,
        "velocity": 0
      },
      {
        "type": "midi",
        "subType": "noteOff",
        "typeByte": 153,
        "deltaTime": 0,
        "channel": 9,
        "note": 36,
        "velocity": 0
      },
      {
        "type": "midi",
        "subType": "noteOff",
        "typeByte": 153,
        "deltaTime": 2,
        "channel": 9,
        "note": 42,
        "velocity": 0
      },
      {
        "type": "midi",
        "subType": "noteOff",
        "typeByte": 153,
        "deltaTime": 23,
        "channel": 9,
        "note": 40,
        "velocity": 0
      },
      {
        "type": "midi",
        "subType": "noteOn",
        "typeByte": 153,
        "deltaTime": 0,
        "channel": 9,
        "note": 38,
        "velocity": 127
      },
      {
        "type": "midi",
        "subType": "noteOn",
        "typeByte": 153,
        "deltaTime": 0,
        "channel": 9,
        "note": 61,
        "velocity": 127
      },
      {
        "type": "midi",
        "subType": "noteOn",
        "typeByte": 153,
        "deltaTime": 0,
        "channel": 9,
        "note": 42,
        "velocity": 127
      },
      {
        "type": "midi",
        "subType": "noteOff",
        "typeByte": 153,
        "deltaTime": 5,
        "channel": 9,
        "note": 51,
        "velocity": 0
      },
      {
        "type": "midi",
        "subType": "noteOff",
        "typeByte": 153,
        "deltaTime": 18,
        "channel": 9,
        "note": 38,
        "velocity": 0
      },
      {
        "type": "midi",
        "subType": "noteOff",
        "typeByte": 153,
        "deltaTime": 0,
        "channel": 9,
        "note": 61,
        "velocity": 0
      },
      {
        "type": "midi",
        "subType": "noteOff",
        "typeByte": 153,
        "deltaTime": 2,
        "channel": 9,
        "note": 42,
        "velocity": 0
      },
      {
        "type": "midi",
        "subType": "noteOn",
        "typeByte": 153,
        "deltaTime": 23,
        "channel": 9,
        "note": 61,
        "velocity": 127
      },
      {
        "type": "midi",
        "subType": "noteOn",
        "typeByte": 153,
        "deltaTime": 0,
        "channel": 9,
        "note": 42,
        "velocity": 127
      },
      {
        "type": "midi",
        "subType": "noteOff",
        "typeByte": 153,
        "deltaTime": 24,
        "channel": 9,
        "note": 61,
        "velocity": 0
      },
      {
        "type": "midi",
        "subType": "noteOff",
        "typeByte": 153,
        "deltaTime": 1,
        "channel": 9,
        "note": 42,
        "velocity": 0
      },
      {
        "type": "midi",
        "subType": "noteOn",
        "typeByte": 153,
        "deltaTime": 23,
        "channel": 9,
        "note": 36,
        "velocity": 127
      },
      {
        "type": "midi",
        "subType": "noteOn",
        "typeByte": 153,
        "deltaTime": 0,
        "channel": 9,
        "note": 61,
        "velocity": 127
      },
      {
        "type": "midi",
        "subType": "noteOn",
        "typeByte": 153,
        "deltaTime": 0,
        "channel": 9,
        "note": 42,
        "velocity": 127
      },
      {
        "type": "midi",
        "subType": "noteOff",
        "typeByte": 153,
        "deltaTime": 23,
        "channel": 9,
        "note": 61,
        "velocity": 0
      },
      {
        "type": "midi",
        "subType": "noteOff",
        "typeByte": 153,
        "deltaTime": 0,
        "channel": 9,
        "note": 36,
        "velocity": 0
      },
      {
        "type": "midi",
        "subType": "noteOff",
        "typeByte": 153,
        "deltaTime": 5,
        "channel": 9,
        "note": 42,
        "velocity": 0
      },
      {
        "type": "midi",
        "subType": "noteOn",
        "typeByte": 153,
        "deltaTime": 21,
        "channel": 9,
        "note": 61,
        "velocity": 127
      },
      {
        "type": "midi",
        "subType": "noteOn",
        "typeByte": 153,
        "deltaTime": 0,
        "channel": 9,
        "note": 42,
        "velocity": 127
      },
      {
        "type": "midi",
        "subType": "noteOff",
        "typeByte": 153,
        "deltaTime": 21,
        "channel": 9,
        "note": 42,
        "velocity": 0
      },
      {
        "type": "midi",
        "subType": "noteOff",
        "typeByte": 153,
        "deltaTime": 2,
        "channel": 9,
        "note": 61,
        "velocity": 0
      },
      {
        "type": "midi",
        "subType": "noteOn",
        "typeByte": 153,
        "deltaTime": 24,
        "channel": 9,
        "note": 38,
        "velocity": 127
      },
      {
        "type": "midi",
        "subType": "noteOn",
        "typeByte": 153,
        "deltaTime": 0,
        "channel": 9,
        "note": 61,
        "velocity": 127
      },
      {
        "type": "midi",
        "subType": "noteOn",
        "typeByte": 153,
        "deltaTime": 1,
        "channel": 9,
        "note": 42,
        "velocity": 127
      },
      {
        "type": "midi",
        "subType": "noteOff",
        "typeByte": 153,
        "deltaTime": 22,
        "channel": 9,
        "note": 42,
        "velocity": 0
      },
      {
        "type": "midi",
        "subType": "noteOff",
        "typeByte": 153,
        "deltaTime": 0,
        "channel": 9,
        "note": 61,
        "velocity": 0
      },
      {
        "type": "midi",
        "subType": "noteOff",
        "typeByte": 153,
        "deltaTime": 0,
        "channel": 9,
        "note": 38,
        "velocity": 0
      },
      {
        "type": "midi",
        "subType": "noteOn",
        "typeByte": 153,
        "deltaTime": 26,
        "channel": 9,
        "note": 61,
        "velocity": 127
      },
      {
        "type": "midi",
        "subType": "noteOn",
        "typeByte": 153,
        "deltaTime": 0,
        "channel": 9,
        "note": 42,
        "velocity": 127
      },
      {
        "type": "midi",
        "subType": "noteOff",
        "typeByte": 153,
        "deltaTime": 23,
        "channel": 9,
        "note": 61,
        "velocity": 0
      },
      {
        "type": "midi",
        "subType": "noteOff",
        "typeByte": 153,
        "deltaTime": 1,
        "channel": 9,
        "note": 42,
        "velocity": 0
      },
      {
        "type": "midi",
        "subType": "noteOn",
        "typeByte": 153,
        "deltaTime": 23,
        "channel": 9,
        "note": 36,
        "velocity": 127
      },
      {
        "type": "midi",
        "subType": "noteOn",
        "typeByte": 153,
        "deltaTime": 1,
        "channel": 9,
        "note": 61,
        "velocity": 127
      },
      {
        "type": "midi",
        "subType": "noteOn",
        "typeByte": 153,
        "deltaTime": 0,
        "channel": 9,
        "note": 51,
        "velocity": 127
      },
      {
        "type": "midi",
        "subType": "noteOn",
        "typeByte": 153,
        "deltaTime": 0,
        "channel": 9,
        "note": 40,
        "velocity": 127
      },
      {
        "type": "midi",
        "subType": "noteOn",
        "typeByte": 153,
        "deltaTime": 0,
        "channel": 9,
        "note": 42,
        "velocity": 127
      },
      {
        "type": "midi",
        "subType": "noteOff",
        "typeByte": 153,
        "deltaTime": 23,
        "channel": 9,
        "note": 61,
        "velocity": 0
      },
      {
        "type": "midi",
        "subType": "noteOff",
        "typeByte": 153,
        "deltaTime": 0,
        "channel": 9,
        "note": 36,
        "velocity": 0
      },
      {
        "type": "midi",
        "subType": "noteOff",
        "typeByte": 153,
        "deltaTime": 2,
        "channel": 9,
        "note": 42,
        "velocity": 0
      },
      {
        "type": "midi",
        "subType": "noteOn",
        "typeByte": 153,
        "deltaTime": 23,
        "channel": 9,
        "note": 36,
        "velocity": 127
      },
      {
        "type": "midi",
        "subType": "noteOn",
        "typeByte": 153,
        "deltaTime": 1,
        "channel": 9,
        "note": 61,
        "velocity": 127
      },
      {
        "type": "midi",
        "subType": "noteOn",
        "typeByte": 153,
        "deltaTime": 0,
        "channel": 9,
        "note": 42,
        "velocity": 127
      },
      {
        "type": "midi",
        "subType": "noteOff",
        "typeByte": 153,
        "deltaTime": 22,
        "channel": 9,
        "note": 61,
        "velocity": 0
      },
      {
        "type": "midi",
        "subType": "noteOff",
        "typeByte": 153,
        "deltaTime": 0,
        "channel": 9,
        "note": 36,
        "velocity": 0
      },
      {
        "type": "midi",
        "subType": "noteOff",
        "typeByte": 153,
        "deltaTime": 2,
        "channel": 9,
        "note": 42,
        "velocity": 0
      },
      {
        "type": "midi",
        "subType": "noteOff",
        "typeByte": 153,
        "deltaTime": 15,
        "channel": 9,
        "note": 51,
        "velocity": 0
      },
      {
        "type": "midi",
        "subType": "noteOff",
        "typeByte": 153,
        "deltaTime": 1,
        "channel": 9,
        "note": 40,
        "velocity": 0
      },
      {
        "type": "midi",
        "subType": "noteOn",
        "typeByte": 153,
        "deltaTime": 7,
        "channel": 9,
        "note": 38,
        "velocity": 127
      },
      {
        "type": "midi",
        "subType": "noteOn",
        "typeByte": 153,
        "deltaTime": 0,
        "channel": 9,
        "note": 61,
        "velocity": 127
      },
      {
        "type": "midi",
        "subType": "noteOn",
        "typeByte": 153,
        "deltaTime": 0,
        "channel": 9,
        "note": 42,
        "velocity": 127
      },
      {
        "type": "midi",
        "subType": "noteOff",
        "typeByte": 153,
        "deltaTime": 23,
        "channel": 9,
        "note": 61,
        "velocity": 0
      },
      {
        "type": "midi",
        "subType": "noteOff",
        "typeByte": 153,
        "deltaTime": 0,
        "channel": 9,
        "note": 38,
        "velocity": 0
      },
      {
        "type": "midi",
        "subType": "noteOff",
        "typeByte": 153,
        "deltaTime": 3,
        "channel": 9,
        "note": 42,
        "velocity": 0
      },
      {
        "type": "midi",
        "subType": "noteOn",
        "typeByte": 153,
        "deltaTime": 23,
        "channel": 9,
        "note": 61,
        "velocity": 127
      },
      {
        "type": "midi",
        "subType": "noteOn",
        "typeByte": 153,
        "deltaTime": 0,
        "channel": 9,
        "note": 42,
        "velocity": 127
      },
      {
        "type": "midi",
        "subType": "noteOff",
        "typeByte": 153,
        "deltaTime": 23,
        "channel": 9,
        "note": 61,
        "velocity": 0
      },
      {
        "type": "midi",
        "subType": "noteOff",
        "typeByte": 153,
        "deltaTime": 1,
        "channel": 9,
        "note": 42,
        "velocity": 0
      },
      {
        "type": "midi",
        "subType": "noteOn",
        "typeByte": 153,
        "deltaTime": 23,
        "channel": 9,
        "note": 36,
        "velocity": 127
      },
      {
        "type": "midi",
        "subType": "noteOn",
        "typeByte": 153,
        "deltaTime": 0,
        "channel": 9,
        "note": 61,
        "velocity": 127
      },
      {
        "type": "midi",
        "subType": "noteOn",
        "typeByte": 153,
        "deltaTime": 1,
        "channel": 9,
        "note": 42,
        "velocity": 127
      },
      {
        "type": "midi",
        "subType": "noteOff",
        "typeByte": 153,
        "deltaTime": 22,
        "channel": 9,
        "note": 61,
        "velocity": 0
      },
      {
        "type": "midi",
        "subType": "noteOff",
        "typeByte": 153,
        "deltaTime": 0,
        "channel": 9,
        "note": 36,
        "velocity": 0
      },
      {
        "type": "midi",
        "subType": "noteOff",
        "typeByte": 153,
        "deltaTime": 3,
        "channel": 9,
        "note": 42,
        "velocity": 0
      },
      {
        "type": "midi",
        "subType": "noteOn",
        "typeByte": 153,
        "deltaTime": 23,
        "channel": 9,
        "note": 61,
        "velocity": 127
      },
      {
        "type": "midi",
        "subType": "noteOn",
        "typeByte": 153,
        "deltaTime": 0,
        "channel": 9,
        "note": 42,
        "velocity": 127
      },
      {
        "type": "midi",
        "subType": "noteOff",
        "typeByte": 153,
        "deltaTime": 23,
        "channel": 9,
        "note": 61,
        "velocity": 0
      },
      {
        "type": "midi",
        "subType": "noteOff",
        "typeByte": 153,
        "deltaTime": 3,
        "channel": 9,
        "note": 42,
        "velocity": 0
      },
      {
        "type": "midi",
        "subType": "noteOn",
        "typeByte": 153,
        "deltaTime": 21,
        "channel": 9,
        "note": 38,
        "velocity": 127
      },
      {
        "type": "midi",
        "subType": "noteOn",
        "typeByte": 153,
        "deltaTime": 0,
        "channel": 9,
        "note": 61,
        "velocity": 127
      },
      {
        "type": "midi",
        "subType": "noteOn",
        "typeByte": 153,
        "deltaTime": 1,
        "channel": 9,
        "note": 42,
        "velocity": 127
      },
      {
        "type": "midi",
        "subType": "noteOff",
        "typeByte": 153,
        "deltaTime": 22,
        "channel": 9,
        "note": 42,
        "velocity": 0
      },
      {
        "type": "midi",
        "subType": "noteOff",
        "typeByte": 153,
        "deltaTime": 0,
        "channel": 9,
        "note": 38,
        "velocity": 0
      },
      {
        "type": "midi",
        "subType": "noteOff",
        "typeByte": 153,
        "deltaTime": 1,
        "channel": 9,
        "note": 61,
        "velocity": 0
      },
      {
        "type": "midi",
        "subType": "noteOn",
        "typeByte": 153,
        "deltaTime": 25,
        "channel": 9,
        "note": 61,
        "velocity": 127
      },
      {
        "type": "midi",
        "subType": "noteOn",
        "typeByte": 153,
        "deltaTime": 0,
        "channel": 9,
        "note": 42,
        "velocity": 127
      },
      {
        "type": "midi",
        "subType": "noteOff",
        "typeByte": 153,
        "deltaTime": 23,
        "channel": 9,
        "note": 42,
        "velocity": 0
      },
      {
        "type": "midi",
        "subType": "noteOff",
        "typeByte": 153,
        "deltaTime": 0,
        "channel": 9,
        "note": 61,
        "velocity": 0
      },
      {
        "type": "midi",
        "subType": "noteOn",
        "typeByte": 153,
        "deltaTime": 25,
        "channel": 9,
        "note": 36,
        "velocity": 127
      },
      {
        "type": "midi",
        "subType": "noteOn",
        "typeByte": 153,
        "deltaTime": 0,
        "channel": 9,
        "note": 61,
        "velocity": 127
      },
      {
        "type": "midi",
        "subType": "noteOn",
        "typeByte": 153,
        "deltaTime": 0,
        "channel": 9,
        "note": 40,
        "velocity": 127
      },
      {
        "type": "midi",
        "subType": "noteOn",
        "typeByte": 153,
        "deltaTime": 0,
        "channel": 9,
        "note": 51,
        "velocity": 127
      },
      {
        "type": "midi",
        "subType": "noteOn",
        "typeByte": 153,
        "deltaTime": 1,
        "channel": 9,
        "note": 42,
        "velocity": 127
      },
      {
        "type": "midi",
        "subType": "noteOff",
        "typeByte": 153,
        "deltaTime": 22,
        "channel": 9,
        "note": 42,
        "velocity": 0
      },
      {
        "type": "midi",
        "subType": "noteOff",
        "typeByte": 153,
        "deltaTime": 0,
        "channel": 9,
        "note": 36,
        "velocity": 0
      },
      {
        "type": "midi",
        "subType": "noteOff",
        "typeByte": 153,
        "deltaTime": 0,
        "channel": 9,
        "note": 61,
        "velocity": 0
      },
      {
        "type": "midi",
        "subType": "noteOn",
        "typeByte": 153,
        "deltaTime": 26,
        "channel": 9,
        "note": 36,
        "velocity": 127
      },
      {
        "type": "midi",
        "subType": "noteOn",
        "typeByte": 153,
        "deltaTime": 0,
        "channel": 9,
        "note": 61,
        "velocity": 127
      },
      {
        "type": "midi",
        "subType": "noteOn",
        "typeByte": 153,
        "deltaTime": 0,
        "channel": 9,
        "note": 42,
        "velocity": 127
      },
      {
        "type": "midi",
        "subType": "noteOff",
        "typeByte": 153,
        "deltaTime": 21,
        "channel": 9,
        "note": 42,
        "velocity": 0
      },
      {
        "type": "midi",
        "subType": "noteOff",
        "typeByte": 153,
        "deltaTime": 2,
        "channel": 9,
        "note": 36,
        "velocity": 0
      },
      {
        "type": "midi",
        "subType": "noteOff",
        "typeByte": 153,
        "deltaTime": 0,
        "channel": 9,
        "note": 61,
        "velocity": 0
      },
      {
        "type": "midi",
        "subType": "noteOff",
        "typeByte": 153,
        "deltaTime": 24,
        "channel": 9,
        "note": 40,
        "velocity": 0
      },
      {
        "type": "midi",
        "subType": "noteOn",
        "typeByte": 153,
        "deltaTime": 0,
        "channel": 9,
        "note": 38,
        "velocity": 127
      },
      {
        "type": "midi",
        "subType": "noteOn",
        "typeByte": 153,
        "deltaTime": 0,
        "channel": 9,
        "note": 61,
        "velocity": 127
      },
      {
        "type": "midi",
        "subType": "noteOn",
        "typeByte": 153,
        "deltaTime": 1,
        "channel": 9,
        "note": 42,
        "velocity": 127
      },
      {
        "type": "midi",
        "subType": "noteOff",
        "typeByte": 153,
        "deltaTime": 4,
        "channel": 9,
        "note": 51,
        "velocity": 0
      },
      {
        "type": "midi",
        "subType": "noteOff",
        "typeByte": 153,
        "deltaTime": 18,
        "channel": 9,
        "note": 38,
        "velocity": 0
      },
      {
        "type": "midi",
        "subType": "noteOff",
        "typeByte": 153,
        "deltaTime": 0,
        "channel": 9,
        "note": 61,
        "velocity": 0
      },
      {
        "type": "midi",
        "subType": "noteOff",
        "typeByte": 153,
        "deltaTime": 1,
        "channel": 9,
        "note": 42,
        "velocity": 0
      },
      {
        "type": "midi",
        "subType": "noteOn",
        "typeByte": 153,
        "deltaTime": 25,
        "channel": 9,
        "note": 61,
        "velocity": 127
      },
      {
        "type": "midi",
        "subType": "noteOn",
        "typeByte": 153,
        "deltaTime": 0,
        "channel": 9,
        "note": 42,
        "velocity": 127
      },
      {
        "type": "midi",
        "subType": "noteOff",
        "typeByte": 153,
        "deltaTime": 22,
        "channel": 9,
        "note": 42,
        "velocity": 0
      },
      {
        "type": "midi",
        "subType": "noteOff",
        "typeByte": 153,
        "deltaTime": 1,
        "channel": 9,
        "note": 61,
        "velocity": 0
      },
      {
        "type": "midi",
        "subType": "noteOn",
        "typeByte": 153,
        "deltaTime": 24,
        "channel": 9,
        "note": 36,
        "velocity": 127
      },
      {
        "type": "midi",
        "subType": "noteOn",
        "typeByte": 153,
        "deltaTime": 0,
        "channel": 9,
        "note": 61,
        "velocity": 127
      },
      {
        "type": "midi",
        "subType": "noteOn",
        "typeByte": 153,
        "deltaTime": 1,
        "channel": 9,
        "note": 42,
        "velocity": 127
      },
      {
        "type": "midi",
        "subType": "noteOff",
        "typeByte": 153,
        "deltaTime": 18,
        "channel": 9,
        "note": 42,
        "velocity": 0
      },
      {
        "type": "midi",
        "subType": "noteOff",
        "typeByte": 153,
        "deltaTime": 4,
        "channel": 9,
        "note": 61,
        "velocity": 0
      },
      {
        "type": "midi",
        "subType": "noteOff",
        "typeByte": 153,
        "deltaTime": 0,
        "channel": 9,
        "note": 36,
        "velocity": 0
      },
      {
        "type": "midi",
        "subType": "noteOn",
        "typeByte": 153,
        "deltaTime": 26,
        "channel": 9,
        "note": 61,
        "velocity": 127
      },
      {
        "type": "midi",
        "subType": "noteOn",
        "typeByte": 153,
        "deltaTime": 0,
        "channel": 9,
        "note": 42,
        "velocity": 127
      },
      {
        "type": "midi",
        "subType": "noteOff",
        "typeByte": 153,
        "deltaTime": 18,
        "channel": 9,
        "note": 42,
        "velocity": 0
      },
      {
        "type": "midi",
        "subType": "noteOff",
        "typeByte": 153,
        "deltaTime": 5,
        "channel": 9,
        "note": 61,
        "velocity": 0
      },
      {
        "type": "midi",
        "subType": "noteOn",
        "typeByte": 153,
        "deltaTime": 25,
        "channel": 9,
        "note": 38,
        "velocity": 127
      },
      {
        "type": "midi",
        "subType": "noteOn",
        "typeByte": 153,
        "deltaTime": 0,
        "channel": 9,
        "note": 61,
        "velocity": 127
      },
      {
        "type": "midi",
        "subType": "noteOn",
        "typeByte": 153,
        "deltaTime": 0,
        "channel": 9,
        "note": 42,
        "velocity": 127
      },
      {
        "type": "midi",
        "subType": "noteOff",
        "typeByte": 153,
        "deltaTime": 20,
        "channel": 9,
        "note": 42,
        "velocity": 0
      },
      {
        "type": "midi",
        "subType": "noteOff",
        "typeByte": 153,
        "deltaTime": 3,
        "channel": 9,
        "note": 61,
        "velocity": 0
      },
      {
        "type": "midi",
        "subType": "noteOff",
        "typeByte": 153,
        "deltaTime": 0,
        "channel": 9,
        "note": 38,
        "velocity": 0
      },
      {
        "type": "midi",
        "subType": "noteOn",
        "typeByte": 153,
        "deltaTime": 25,
        "channel": 9,
        "note": 61,
        "velocity": 127
      },
      {
        "type": "midi",
        "subType": "noteOn",
        "typeByte": 153,
        "deltaTime": 0,
        "channel": 9,
        "note": 42,
        "velocity": 127
      },
      {
        "type": "midi",
        "subType": "noteOff",
        "typeByte": 153,
        "deltaTime": 14,
        "channel": 9,
        "note": 42,
        "velocity": 0
      },
      {
        "type": "midi",
        "subType": "noteOff",
        "typeByte": 153,
        "deltaTime": 9,
        "channel": 9,
        "note": 61,
        "velocity": 0
      },
      {
        "type": "midi",
        "subType": "noteOn",
        "typeByte": 153,
        "deltaTime": 25,
        "channel": 9,
        "note": 36,
        "velocity": 127
      },
      {
        "type": "midi",
        "subType": "noteOn",
        "typeByte": 153,
        "deltaTime": 0,
        "channel": 9,
        "note": 61,
        "velocity": 127
      },
      {
        "type": "midi",
        "subType": "noteOn",
        "typeByte": 153,
        "deltaTime": 0,
        "channel": 9,
        "note": 51,
        "velocity": 127
      },
      {
        "type": "midi",
        "subType": "noteOn",
        "typeByte": 153,
        "deltaTime": 1,
        "channel": 9,
        "note": 40,
        "velocity": 127
      },
      {
        "type": "midi",
        "subType": "noteOn",
        "typeByte": 153,
        "deltaTime": 0,
        "channel": 9,
        "note": 42,
        "velocity": 127
      },
      {
        "type": "midi",
        "subType": "noteOff",
        "typeByte": 153,
        "deltaTime": 21,
        "channel": 9,
        "note": 42,
        "velocity": 0
      },
      {
        "type": "midi",
        "subType": "noteOff",
        "typeByte": 153,
        "deltaTime": 1,
        "channel": 9,
        "note": 36,
        "velocity": 0
      },
      {
        "type": "midi",
        "subType": "noteOff",
        "typeByte": 153,
        "deltaTime": 0,
        "channel": 9,
        "note": 61,
        "velocity": 0
      },
      {
        "type": "midi",
        "subType": "noteOn",
        "typeByte": 153,
        "deltaTime": 26,
        "channel": 9,
        "note": 36,
        "velocity": 127
      },
      {
        "type": "midi",
        "subType": "noteOn",
        "typeByte": 153,
        "deltaTime": 0,
        "channel": 9,
        "note": 61,
        "velocity": 127
      },
      {
        "type": "midi",
        "subType": "noteOn",
        "typeByte": 153,
        "deltaTime": 0,
        "channel": 9,
        "note": 42,
        "velocity": 127
      },
      {
        "type": "midi",
        "subType": "noteOff",
        "typeByte": 153,
        "deltaTime": 23,
        "channel": 9,
        "note": 42,
        "velocity": 0
      },
      {
        "type": "midi",
        "subType": "noteOff",
        "typeByte": 153,
        "deltaTime": 0,
        "channel": 9,
        "note": 36,
        "velocity": 0
      },
      {
        "type": "midi",
        "subType": "noteOff",
        "typeByte": 153,
        "deltaTime": 0,
        "channel": 9,
        "note": 61,
        "velocity": 0
      },
      {
        "type": "midi",
        "subType": "noteOff",
        "typeByte": 153,
        "deltaTime": 16,
        "channel": 9,
        "note": 51,
        "velocity": 0
      },
      {
        "type": "midi",
        "subType": "noteOff",
        "typeByte": 153,
        "deltaTime": 2,
        "channel": 9,
        "note": 40,
        "velocity": 0
      },
      {
        "type": "midi",
        "subType": "noteOn",
        "typeByte": 153,
        "deltaTime": 6,
        "channel": 9,
        "note": 38,
        "velocity": 127
      },
      {
        "type": "midi",
        "subType": "noteOn",
        "typeByte": 153,
        "deltaTime": 0,
        "channel": 9,
        "note": 61,
        "velocity": 127
      },
      {
        "type": "midi",
        "subType": "noteOn",
        "typeByte": 153,
        "deltaTime": 1,
        "channel": 9,
        "note": 42,
        "velocity": 127
      },
      {
        "type": "midi",
        "subType": "noteOff",
        "typeByte": 153,
        "deltaTime": 22,
        "channel": 9,
        "note": 42,
        "velocity": 0
      },
      {
        "type": "midi",
        "subType": "noteOff",
        "typeByte": 153,
        "deltaTime": 0,
        "channel": 9,
        "note": 38,
        "velocity": 0
      },
      {
        "type": "midi",
        "subType": "noteOff",
        "typeByte": 153,
        "deltaTime": 1,
        "channel": 9,
        "note": 61,
        "velocity": 0
      },
      {
        "type": "midi",
        "subType": "noteOn",
        "typeByte": 153,
        "deltaTime": 25,
        "channel": 9,
        "note": 61,
        "velocity": 127
      },
      {
        "type": "midi",
        "subType": "noteOn",
        "typeByte": 153,
        "deltaTime": 0,
        "channel": 9,
        "note": 42,
        "velocity": 127
      },
      {
        "type": "midi",
        "subType": "noteOff",
        "typeByte": 153,
        "deltaTime": 23,
        "channel": 9,
        "note": 61,
        "velocity": 0
      },
      {
        "type": "midi",
        "subType": "noteOff",
        "typeByte": 153,
        "deltaTime": 1,
        "channel": 9,
        "note": 42,
        "velocity": 0
      },
      {
        "type": "midi",
        "subType": "noteOn",
        "typeByte": 153,
        "deltaTime": 23,
        "channel": 9,
        "note": 36,
        "velocity": 127
      },
      {
        "type": "midi",
        "subType": "noteOn",
        "typeByte": 153,
        "deltaTime": 0,
        "channel": 9,
        "note": 61,
        "velocity": 127
      },
      {
        "type": "midi",
        "subType": "noteOn",
        "typeByte": 153,
        "deltaTime": 1,
        "channel": 9,
        "note": 42,
        "velocity": 127
      },
      {
        "type": "midi",
        "subType": "noteOff",
        "typeByte": 153,
        "deltaTime": 23,
        "channel": 9,
        "note": 61,
        "velocity": 0
      },
      {
        "type": "midi",
        "subType": "noteOff",
        "typeByte": 153,
        "deltaTime": 0,
        "channel": 9,
        "note": 36,
        "velocity": 0
      },
      {
        "type": "midi",
        "subType": "noteOff",
        "typeByte": 153,
        "deltaTime": 3,
        "channel": 9,
        "note": 42,
        "velocity": 0
      },
      {
        "type": "midi",
        "subType": "noteOn",
        "typeByte": 153,
        "deltaTime": 22,
        "channel": 9,
        "note": 61,
        "velocity": 127
      },
      {
        "type": "midi",
        "subType": "noteOn",
        "typeByte": 153,
        "deltaTime": 1,
        "channel": 9,
        "note": 42,
        "velocity": 127
      },
      {
        "type": "midi",
        "subType": "noteOff",
        "typeByte": 153,
        "deltaTime": 22,
        "channel": 9,
        "note": 42,
        "velocity": 0
      },
      {
        "type": "midi",
        "subType": "noteOff",
        "typeByte": 153,
        "deltaTime": 0,
        "channel": 9,
        "note": 61,
        "velocity": 0
      },
      {
        "type": "midi",
        "subType": "noteOn",
        "typeByte": 153,
        "deltaTime": 25,
        "channel": 9,
        "note": 38,
        "velocity": 127
      },
      {
        "type": "midi",
        "subType": "noteOn",
        "typeByte": 153,
        "deltaTime": 0,
        "channel": 9,
        "note": 61,
        "velocity": 127
      },
      {
        "type": "midi",
        "subType": "noteOn",
        "typeByte": 153,
        "deltaTime": 0,
        "channel": 9,
        "note": 42,
        "velocity": 127
      },
      {
        "type": "midi",
        "subType": "noteOff",
        "typeByte": 153,
        "deltaTime": 23,
        "channel": 9,
        "note": 42,
        "velocity": 0
      },
      {
        "type": "midi",
        "subType": "noteOff",
        "typeByte": 153,
        "deltaTime": 0,
        "channel": 9,
        "note": 61,
        "velocity": 0
      },
      {
        "type": "midi",
        "subType": "noteOff",
        "typeByte": 153,
        "deltaTime": 0,
        "channel": 9,
        "note": 38,
        "velocity": 0
      },
      {
        "type": "midi",
        "subType": "noteOn",
        "typeByte": 153,
        "deltaTime": 26,
        "channel": 9,
        "note": 61,
        "velocity": 127
      },
      {
        "type": "midi",
        "subType": "noteOn",
        "typeByte": 153,
        "deltaTime": 0,
        "channel": 9,
        "note": 42,
        "velocity": 127
      },
      {
        "type": "midi",
        "subType": "noteOff",
        "typeByte": 153,
        "deltaTime": 20,
        "channel": 9,
        "note": 42,
        "velocity": 0
      },
      {
        "type": "midi",
        "subType": "noteOff",
        "typeByte": 153,
        "deltaTime": 3,
        "channel": 9,
        "note": 61,
        "velocity": 0
      },
      {
        "type": "midi",
        "subType": "noteOn",
        "typeByte": 153,
        "deltaTime": 24,
        "channel": 9,
        "note": 36,
        "velocity": 127
      },
      {
        "type": "midi",
        "subType": "noteOn",
        "typeByte": 153,
        "deltaTime": 0,
        "channel": 9,
        "note": 61,
        "velocity": 127
      },
      {
        "type": "midi",
        "subType": "noteOn",
        "typeByte": 153,
        "deltaTime": 0,
        "channel": 9,
        "note": 40,
        "velocity": 127
      },
      {
        "type": "midi",
        "subType": "noteOn",
        "typeByte": 153,
        "deltaTime": 1,
        "channel": 9,
        "note": 51,
        "velocity": 127
      },
      {
        "type": "midi",
        "subType": "noteOn",
        "typeByte": 153,
        "deltaTime": 0,
        "channel": 9,
        "note": 42,
        "velocity": 127
      },
      {
        "type": "midi",
        "subType": "noteOff",
        "typeByte": 153,
        "deltaTime": 18,
        "channel": 9,
        "note": 42,
        "velocity": 0
      },
      {
        "type": "midi",
        "subType": "noteOff",
        "typeByte": 153,
        "deltaTime": 4,
        "channel": 9,
        "note": 36,
        "velocity": 0
      },
      {
        "type": "midi",
        "subType": "noteOff",
        "typeByte": 153,
        "deltaTime": 0,
        "channel": 9,
        "note": 61,
        "velocity": 0
      },
      {
        "type": "midi",
        "subType": "noteOn",
        "typeByte": 153,
        "deltaTime": 26,
        "channel": 9,
        "note": 36,
        "velocity": 127
      },
      {
        "type": "midi",
        "subType": "noteOn",
        "typeByte": 153,
        "deltaTime": 0,
        "channel": 9,
        "note": 61,
        "velocity": 127
      },
      {
        "type": "midi",
        "subType": "noteOn",
        "typeByte": 153,
        "deltaTime": 0,
        "channel": 9,
        "note": 42,
        "velocity": 127
      },
      {
        "type": "midi",
        "subType": "noteOff",
        "typeByte": 153,
        "deltaTime": 22,
        "channel": 9,
        "note": 42,
        "velocity": 0
      },
      {
        "type": "midi",
        "subType": "noteOff",
        "typeByte": 153,
        "deltaTime": 1,
        "channel": 9,
        "note": 36,
        "velocity": 0
      },
      {
        "type": "midi",
        "subType": "noteOff",
        "typeByte": 153,
        "deltaTime": 0,
        "channel": 9,
        "note": 61,
        "velocity": 0
      },
      {
        "type": "midi",
        "subType": "noteOff",
        "typeByte": 153,
        "deltaTime": 24,
        "channel": 9,
        "note": 40,
        "velocity": 0
      },
      {
        "type": "midi",
        "subType": "noteOn",
        "typeByte": 153,
        "deltaTime": 1,
        "channel": 9,
        "note": 38,
        "velocity": 127
      },
      {
        "type": "midi",
        "subType": "noteOn",
        "typeByte": 153,
        "deltaTime": 0,
        "channel": 9,
        "note": 61,
        "velocity": 127
      },
      {
        "type": "midi",
        "subType": "noteOn",
        "typeByte": 153,
        "deltaTime": 0,
        "channel": 9,
        "note": 42,
        "velocity": 127
      },
      {
        "type": "midi",
        "subType": "noteOff",
        "typeByte": 153,
        "deltaTime": 5,
        "channel": 9,
        "note": 51,
        "velocity": 0
      },
      {
        "type": "midi",
        "subType": "noteOff",
        "typeByte": 153,
        "deltaTime": 17,
        "channel": 9,
        "note": 38,
        "velocity": 0
      },
      {
        "type": "midi",
        "subType": "noteOff",
        "typeByte": 153,
        "deltaTime": 0,
        "channel": 9,
        "note": 61,
        "velocity": 0
      },
      {
        "type": "midi",
        "subType": "noteOff",
        "typeByte": 153,
        "deltaTime": 3,
        "channel": 9,
        "note": 42,
        "velocity": 0
      },
      {
        "type": "midi",
        "subType": "noteOn",
        "typeByte": 153,
        "deltaTime": 23,
        "channel": 9,
        "note": 61,
        "velocity": 127
      },
      {
        "type": "midi",
        "subType": "noteOn",
        "typeByte": 153,
        "deltaTime": 0,
        "channel": 9,
        "note": 42,
        "velocity": 127
      },
      {
        "type": "midi",
        "subType": "noteOff",
        "typeByte": 153,
        "deltaTime": 23,
        "channel": 9,
        "note": 42,
        "velocity": 0
      },
      {
        "type": "midi",
        "subType": "noteOff",
        "typeByte": 153,
        "deltaTime": 0,
        "channel": 9,
        "note": 61,
        "velocity": 0
      },
      {
        "type": "midi",
        "subType": "noteOn",
        "typeByte": 153,
        "deltaTime": 25,
        "channel": 9,
        "note": 36,
        "velocity": 127
      },
      {
        "type": "midi",
        "subType": "noteOn",
        "typeByte": 153,
        "deltaTime": 0,
        "channel": 9,
        "note": 61,
        "velocity": 127
      },
      {
        "type": "midi",
        "subType": "noteOn",
        "typeByte": 153,
        "deltaTime": 0,
        "channel": 9,
        "note": 42,
        "velocity": 127
      },
      {
        "type": "midi",
        "subType": "noteOff",
        "typeByte": 153,
        "deltaTime": 23,
        "channel": 9,
        "note": 42,
        "velocity": 0
      },
      {
        "type": "midi",
        "subType": "noteOff",
        "typeByte": 153,
        "deltaTime": 0,
        "channel": 9,
        "note": 61,
        "velocity": 0
      },
      {
        "type": "midi",
        "subType": "noteOff",
        "typeByte": 153,
        "deltaTime": 0,
        "channel": 9,
        "note": 36,
        "velocity": 0
      },
      {
        "type": "midi",
        "subType": "noteOn",
        "typeByte": 153,
        "deltaTime": 26,
        "channel": 9,
        "note": 61,
        "velocity": 127
      },
      {
        "type": "midi",
        "subType": "noteOn",
        "typeByte": 153,
        "deltaTime": 0,
        "channel": 9,
        "note": 42,
        "velocity": 127
      },
      {
        "type": "midi",
        "subType": "noteOff",
        "typeByte": 153,
        "deltaTime": 18,
        "channel": 9,
        "note": 42,
        "velocity": 0
      },
      {
        "type": "midi",
        "subType": "noteOff",
        "typeByte": 153,
        "deltaTime": 4,
        "channel": 9,
        "note": 61,
        "velocity": 0
      },
      {
        "type": "midi",
        "subType": "noteOn",
        "typeByte": 153,
        "deltaTime": 25,
        "channel": 9,
        "note": 38,
        "velocity": 127
      },
      {
        "type": "midi",
        "subType": "noteOn",
        "typeByte": 153,
        "deltaTime": 0,
        "channel": 9,
        "note": 61,
        "velocity": 127
      },
      {
        "type": "midi",
        "subType": "noteOn",
        "typeByte": 153,
        "deltaTime": 0,
        "channel": 9,
        "note": 42,
        "velocity": 127
      },
      {
        "type": "midi",
        "subType": "noteOff",
        "typeByte": 153,
        "deltaTime": 20,
        "channel": 9,
        "note": 42,
        "velocity": 0
      },
      {
        "type": "midi",
        "subType": "noteOff",
        "typeByte": 153,
        "deltaTime": 3,
        "channel": 9,
        "note": 61,
        "velocity": 0
      },
      {
        "type": "midi",
        "subType": "noteOff",
        "typeByte": 153,
        "deltaTime": 0,
        "channel": 9,
        "note": 38,
        "velocity": 0
      },
      {
        "type": "midi",
        "subType": "noteOn",
        "typeByte": 153,
        "deltaTime": 26,
        "channel": 9,
        "note": 61,
        "velocity": 127
      },
      {
        "type": "midi",
        "subType": "noteOn",
        "typeByte": 153,
        "deltaTime": 0,
        "channel": 9,
        "note": 42,
        "velocity": 127
      },
      {
        "type": "midi",
        "subType": "noteOff",
        "typeByte": 153,
        "deltaTime": 19,
        "channel": 9,
        "note": 42,
        "velocity": 0
      },
      {
        "type": "midi",
        "subType": "noteOff",
        "typeByte": 153,
        "deltaTime": 4,
        "channel": 9,
        "note": 61,
        "velocity": 0
      },
      {
        "type": "midi",
        "subType": "noteOn",
        "typeByte": 153,
        "deltaTime": 24,
        "channel": 9,
        "note": 36,
        "velocity": 127
      },
      {
        "type": "midi",
        "subType": "noteOn",
        "typeByte": 153,
        "deltaTime": 0,
        "channel": 9,
        "note": 61,
        "velocity": 127
      },
      {
        "type": "midi",
        "subType": "noteOn",
        "typeByte": 153,
        "deltaTime": 1,
        "channel": 9,
        "note": 51,
        "velocity": 127
      },
      {
        "type": "midi",
        "subType": "noteOn",
        "typeByte": 153,
        "deltaTime": 0,
        "channel": 9,
        "note": 40,
        "velocity": 127
      },
      {
        "type": "midi",
        "subType": "noteOn",
        "typeByte": 153,
        "deltaTime": 0,
        "channel": 9,
        "note": 42,
        "velocity": 127
      },
      {
        "type": "midi",
        "subType": "noteOff",
        "typeByte": 153,
        "deltaTime": 20,
        "channel": 9,
        "note": 42,
        "velocity": 0
      },
      {
        "type": "midi",
        "subType": "noteOff",
        "typeByte": 153,
        "deltaTime": 2,
        "channel": 9,
        "note": 36,
        "velocity": 0
      },
      {
        "type": "midi",
        "subType": "noteOff",
        "typeByte": 153,
        "deltaTime": 0,
        "channel": 9,
        "note": 61,
        "velocity": 0
      },
      {
        "type": "midi",
        "subType": "noteOn",
        "typeByte": 153,
        "deltaTime": 26,
        "channel": 9,
        "note": 36,
        "velocity": 127
      },
      {
        "type": "midi",
        "subType": "noteOn",
        "typeByte": 153,
        "deltaTime": 0,
        "channel": 9,
        "note": 61,
        "velocity": 127
      },
      {
        "type": "midi",
        "subType": "noteOn",
        "typeByte": 153,
        "deltaTime": 1,
        "channel": 9,
        "note": 42,
        "velocity": 127
      },
      {
        "type": "midi",
        "subType": "noteOff",
        "typeByte": 153,
        "deltaTime": 19,
        "channel": 9,
        "note": 42,
        "velocity": 0
      },
      {
        "type": "midi",
        "subType": "noteOff",
        "typeByte": 153,
        "deltaTime": 3,
        "channel": 9,
        "note": 36,
        "velocity": 0
      },
      {
        "type": "midi",
        "subType": "noteOff",
        "typeByte": 153,
        "deltaTime": 0,
        "channel": 9,
        "note": 61,
        "velocity": 0
      },
      {
        "type": "midi",
        "subType": "noteOff",
        "typeByte": 153,
        "deltaTime": 16,
        "channel": 9,
        "note": 51,
        "velocity": 0
      },
      {
        "type": "midi",
        "subType": "noteOff",
        "typeByte": 153,
        "deltaTime": 2,
        "channel": 9,
        "note": 40,
        "velocity": 0
      },
      {
        "type": "midi",
        "subType": "noteOn",
        "typeByte": 153,
        "deltaTime": 7,
        "channel": 9,
        "note": 38,
        "velocity": 127
      },
      {
        "type": "midi",
        "subType": "noteOn",
        "typeByte": 153,
        "deltaTime": 0,
        "channel": 9,
        "note": 61,
        "velocity": 127
      },
      {
        "type": "midi",
        "subType": "noteOn",
        "typeByte": 153,
        "deltaTime": 0,
        "channel": 9,
        "note": 42,
        "velocity": 127
      },
      {
        "type": "midi",
        "subType": "noteOff",
        "typeByte": 153,
        "deltaTime": 23,
        "channel": 9,
        "note": 61,
        "velocity": 0
      },
      {
        "type": "midi",
        "subType": "noteOff",
        "typeByte": 153,
        "deltaTime": 0,
        "channel": 9,
        "note": 38,
        "velocity": 0
      },
      {
        "type": "midi",
        "subType": "noteOff",
        "typeByte": 153,
        "deltaTime": 2,
        "channel": 9,
        "note": 42,
        "velocity": 0
      },
      {
        "type": "midi",
        "subType": "noteOn",
        "typeByte": 153,
        "deltaTime": 23,
        "channel": 9,
        "note": 61,
        "velocity": 127
      },
      {
        "type": "midi",
        "subType": "noteOn",
        "typeByte": 153,
        "deltaTime": 1,
        "channel": 9,
        "note": 42,
        "velocity": 127
      },
      {
        "type": "midi",
        "subType": "noteOff",
        "typeByte": 153,
        "deltaTime": 22,
        "channel": 9,
        "note": 61,
        "velocity": 0
      },
      {
        "type": "midi",
        "subType": "noteOff",
        "typeByte": 153,
        "deltaTime": 4,
        "channel": 9,
        "note": 42,
        "velocity": 0
      },
      {
        "type": "midi",
        "subType": "noteOn",
        "typeByte": 153,
        "deltaTime": 21,
        "channel": 9,
        "note": 36,
        "velocity": 127
      },
      {
        "type": "midi",
        "subType": "noteOn",
        "typeByte": 153,
        "deltaTime": 0,
        "channel": 9,
        "note": 61,
        "velocity": 127
      },
      {
        "type": "midi",
        "subType": "noteOn",
        "typeByte": 153,
        "deltaTime": 0,
        "channel": 9,
        "note": 42,
        "velocity": 127
      },
      {
        "type": "midi",
        "subType": "noteOff",
        "typeByte": 153,
        "deltaTime": 23,
        "channel": 9,
        "note": 61,
        "velocity": 0
      },
      {
        "type": "midi",
        "subType": "noteOff",
        "typeByte": 153,
        "deltaTime": 0,
        "channel": 9,
        "note": 36,
        "velocity": 0
      },
      {
        "type": "midi",
        "subType": "noteOff",
        "typeByte": 153,
        "deltaTime": 12,
        "channel": 9,
        "note": 42,
        "velocity": 0
      },
      {
        "type": "midi",
        "subType": "noteOn",
        "typeByte": 153,
        "deltaTime": 14,
        "channel": 9,
        "note": 61,
        "velocity": 127
      },
      {
        "type": "midi",
        "subType": "noteOn",
        "typeByte": 153,
        "deltaTime": 0,
        "channel": 9,
        "note": 42,
        "velocity": 127
      },
      {
        "type": "midi",
        "subType": "noteOff",
        "typeByte": 153,
        "deltaTime": 23,
        "channel": 9,
        "note": 61,
        "velocity": 0
      },
      {
        "type": "midi",
        "subType": "noteOff",
        "typeByte": 153,
        "deltaTime": 1,
        "channel": 9,
        "note": 42,
        "velocity": 0
      },
      {
        "type": "midi",
        "subType": "noteOn",
        "typeByte": 153,
        "deltaTime": 23,
        "channel": 9,
        "note": 38,
        "velocity": 127
      },
      {
        "type": "midi",
        "subType": "noteOn",
        "typeByte": 153,
        "deltaTime": 0,
        "channel": 9,
        "note": 61,
        "velocity": 127
      },
      {
        "type": "midi",
        "subType": "noteOn",
        "typeByte": 153,
        "deltaTime": 1,
        "channel": 9,
        "note": 42,
        "velocity": 127
      },
      {
        "type": "midi",
        "subType": "noteOff",
        "typeByte": 153,
        "deltaTime": 19,
        "channel": 9,
        "note": 42,
        "velocity": 0
      },
      {
        "type": "midi",
        "subType": "noteOff",
        "typeByte": 153,
        "deltaTime": 3,
        "channel": 9,
        "note": 61,
        "velocity": 0
      },
      {
        "type": "midi",
        "subType": "noteOff",
        "typeByte": 153,
        "deltaTime": 0,
        "channel": 9,
        "note": 38,
        "velocity": 0
      },
      {
        "type": "midi",
        "subType": "noteOn",
        "typeByte": 153,
        "deltaTime": 26,
        "channel": 9,
        "note": 61,
        "velocity": 127
      },
      {
        "type": "midi",
        "subType": "noteOn",
        "typeByte": 153,
        "deltaTime": 0,
        "channel": 9,
        "note": 42,
        "velocity": 127
      },
      {
        "type": "midi",
        "subType": "noteOff",
        "typeByte": 153,
        "deltaTime": 20,
        "channel": 9,
        "note": 42,
        "velocity": 0
      },
      {
        "type": "midi",
        "subType": "noteOff",
        "typeByte": 153,
        "deltaTime": 3,
        "channel": 9,
        "note": 61,
        "velocity": 0
      },
      {
        "type": "midi",
        "subType": "noteOn",
        "typeByte": 153,
        "deltaTime": 24,
        "channel": 9,
        "note": 36,
        "velocity": 127
      },
      {
        "type": "midi",
        "subType": "noteOn",
        "typeByte": 153,
        "deltaTime": 0,
        "channel": 9,
        "note": 61,
        "velocity": 127
      },
      {
        "type": "midi",
        "subType": "noteOn",
        "typeByte": 153,
        "deltaTime": 1,
        "channel": 9,
        "note": 40,
        "velocity": 127
      },
      {
        "type": "midi",
        "subType": "noteOn",
        "typeByte": 153,
        "deltaTime": 0,
        "channel": 9,
        "note": 51,
        "velocity": 127
      },
      {
        "type": "midi",
        "subType": "noteOn",
        "typeByte": 153,
        "deltaTime": 0,
        "channel": 9,
        "note": 42,
        "velocity": 127
      },
      {
        "type": "midi",
        "subType": "noteOff",
        "typeByte": 153,
        "deltaTime": 21,
        "channel": 9,
        "note": 42,
        "velocity": 0
      },
      {
        "type": "midi",
        "subType": "noteOff",
        "typeByte": 153,
        "deltaTime": 1,
        "channel": 9,
        "note": 36,
        "velocity": 0
      },
      {
        "type": "midi",
        "subType": "noteOff",
        "typeByte": 153,
        "deltaTime": 0,
        "channel": 9,
        "note": 61,
        "velocity": 0
      },
      {
        "type": "midi",
        "subType": "noteOn",
        "typeByte": 153,
        "deltaTime": 26,
        "channel": 9,
        "note": 36,
        "velocity": 127
      },
      {
        "type": "midi",
        "subType": "noteOn",
        "typeByte": 153,
        "deltaTime": 0,
        "channel": 9,
        "note": 61,
        "velocity": 127
      },
      {
        "type": "midi",
        "subType": "noteOn",
        "typeByte": 153,
        "deltaTime": 1,
        "channel": 9,
        "note": 42,
        "velocity": 127
      },
      {
        "type": "midi",
        "subType": "noteOff",
        "typeByte": 153,
        "deltaTime": 20,
        "channel": 9,
        "note": 42,
        "velocity": 0
      },
      {
        "type": "midi",
        "subType": "noteOff",
        "typeByte": 153,
        "deltaTime": 2,
        "channel": 9,
        "note": 36,
        "velocity": 0
      },
      {
        "type": "midi",
        "subType": "noteOff",
        "typeByte": 153,
        "deltaTime": 0,
        "channel": 9,
        "note": 61,
        "velocity": 0
      },
      {
        "type": "midi",
        "subType": "noteOff",
        "typeByte": 153,
        "deltaTime": 25,
        "channel": 9,
        "note": 40,
        "velocity": 0
      },
      {
        "type": "midi",
        "subType": "noteOn",
        "typeByte": 153,
        "deltaTime": 0,
        "channel": 9,
        "note": 38,
        "velocity": 127
      },
      {
        "type": "midi",
        "subType": "noteOn",
        "typeByte": 153,
        "deltaTime": 0,
        "channel": 9,
        "note": 61,
        "velocity": 127
      },
      {
        "type": "midi",
        "subType": "noteOn",
        "typeByte": 153,
        "deltaTime": 0,
        "channel": 9,
        "note": 42,
        "velocity": 127
      },
      {
        "type": "midi",
        "subType": "noteOff",
        "typeByte": 153,
        "deltaTime": 5,
        "channel": 9,
        "note": 51,
        "velocity": 0
      },
      {
        "type": "midi",
        "subType": "noteOff",
        "typeByte": 153,
        "deltaTime": 18,
        "channel": 9,
        "note": 38,
        "velocity": 0
      },
      {
        "type": "midi",
        "subType": "noteOff",
        "typeByte": 153,
        "deltaTime": 0,
        "channel": 9,
        "note": 61,
        "velocity": 0
      },
      {
        "type": "midi",
        "subType": "noteOff",
        "typeByte": 153,
        "deltaTime": 0,
        "channel": 9,
        "note": 42,
        "velocity": 0
      },
      {
        "type": "midi",
        "subType": "noteOn",
        "typeByte": 153,
        "deltaTime": 26,
        "channel": 9,
        "note": 61,
        "velocity": 127
      },
      {
        "type": "midi",
        "subType": "noteOn",
        "typeByte": 153,
        "deltaTime": 0,
        "channel": 9,
        "note": 42,
        "velocity": 127
      },
      {
        "type": "midi",
        "subType": "noteOff",
        "typeByte": 153,
        "deltaTime": 23,
        "channel": 9,
        "note": 42,
        "velocity": 0
      },
      {
        "type": "midi",
        "subType": "noteOff",
        "typeByte": 153,
        "deltaTime": 0,
        "channel": 9,
        "note": 61,
        "velocity": 0
      },
      {
        "type": "midi",
        "subType": "noteOn",
        "typeByte": 153,
        "deltaTime": 24,
        "channel": 9,
        "note": 36,
        "velocity": 127
      },
      {
        "type": "midi",
        "subType": "noteOn",
        "typeByte": 153,
        "deltaTime": 0,
        "channel": 9,
        "note": 61,
        "velocity": 127
      },
      {
        "type": "midi",
        "subType": "noteOn",
        "typeByte": 153,
        "deltaTime": 0,
        "channel": 9,
        "note": 42,
        "velocity": 127
      },
      {
        "type": "midi",
        "subType": "noteOff",
        "typeByte": 153,
        "deltaTime": 23,
        "channel": 9,
        "note": 61,
        "velocity": 0
      },
      {
        "type": "midi",
        "subType": "noteOff",
        "typeByte": 153,
        "deltaTime": 0,
        "channel": 9,
        "note": 36,
        "velocity": 0
      },
      {
        "type": "midi",
        "subType": "noteOff",
        "typeByte": 153,
        "deltaTime": 8,
        "channel": 9,
        "note": 42,
        "velocity": 0
      },
      {
        "type": "midi",
        "subType": "noteOn",
        "typeByte": 153,
        "deltaTime": 18,
        "channel": 9,
        "note": 61,
        "velocity": 127
      },
      {
        "type": "midi",
        "subType": "noteOn",
        "typeByte": 153,
        "deltaTime": 0,
        "channel": 9,
        "note": 42,
        "velocity": 127
      },
      {
        "type": "midi",
        "subType": "noteOff",
        "typeByte": 153,
        "deltaTime": 23,
        "channel": 9,
        "note": 42,
        "velocity": 0
      },
      {
        "type": "midi",
        "subType": "noteOff",
        "typeByte": 153,
        "deltaTime": 0,
        "channel": 9,
        "note": 61,
        "velocity": 0
      },
      {
        "type": "midi",
        "subType": "noteOn",
        "typeByte": 153,
        "deltaTime": 24,
        "channel": 9,
        "note": 38,
        "velocity": 127
      },
      {
        "type": "midi",
        "subType": "noteOn",
        "typeByte": 153,
        "deltaTime": 0,
        "channel": 9,
        "note": 61,
        "velocity": 127
      },
      {
        "type": "midi",
        "subType": "noteOn",
        "typeByte": 153,
        "deltaTime": 1,
        "channel": 9,
        "note": 42,
        "velocity": 127
      },
      {
        "type": "midi",
        "subType": "noteOff",
        "typeByte": 153,
        "deltaTime": 21,
        "channel": 9,
        "note": 42,
        "velocity": 0
      },
      {
        "type": "midi",
        "subType": "noteOff",
        "typeByte": 153,
        "deltaTime": 1,
        "channel": 9,
        "note": 61,
        "velocity": 0
      },
      {
        "type": "midi",
        "subType": "noteOff",
        "typeByte": 153,
        "deltaTime": 0,
        "channel": 9,
        "note": 38,
        "velocity": 0
      },
      {
        "type": "midi",
        "subType": "noteOn",
        "typeByte": 153,
        "deltaTime": 26,
        "channel": 9,
        "note": 61,
        "velocity": 127
      },
      {
        "type": "midi",
        "subType": "noteOn",
        "typeByte": 153,
        "deltaTime": 0,
        "channel": 9,
        "note": 42,
        "velocity": 127
      },
      {
        "type": "midi",
        "subType": "noteOff",
        "typeByte": 153,
        "deltaTime": 23,
        "channel": 9,
        "note": 42,
        "velocity": 0
      },
      {
        "type": "midi",
        "subType": "noteOff",
        "typeByte": 153,
        "deltaTime": 0,
        "channel": 9,
        "note": 61,
        "velocity": 0
      },
      {
        "type": "midi",
        "subType": "noteOn",
        "typeByte": 153,
        "deltaTime": 25,
        "channel": 9,
        "note": 36,
        "velocity": 127
      },
      {
        "type": "midi",
        "subType": "noteOn",
        "typeByte": 153,
        "deltaTime": 0,
        "channel": 9,
        "note": 61,
        "velocity": 127
      },
      {
        "type": "midi",
        "subType": "noteOn",
        "typeByte": 153,
        "deltaTime": 0,
        "channel": 9,
        "note": 51,
        "velocity": 127
      },
      {
        "type": "midi",
        "subType": "noteOn",
        "typeByte": 153,
        "deltaTime": 0,
        "channel": 9,
        "note": 40,
        "velocity": 127
      },
      {
        "type": "midi",
        "subType": "noteOn",
        "typeByte": 153,
        "deltaTime": 0,
        "channel": 9,
        "note": 42,
        "velocity": 127
      },
      {
        "type": "midi",
        "subType": "noteOff",
        "typeByte": 153,
        "deltaTime": 23,
        "channel": 9,
        "note": 42,
        "velocity": 0
      },
      {
        "type": "midi",
        "subType": "noteOff",
        "typeByte": 153,
        "deltaTime": 0,
        "channel": 9,
        "note": 36,
        "velocity": 0
      },
      {
        "type": "midi",
        "subType": "noteOff",
        "typeByte": 153,
        "deltaTime": 0,
        "channel": 9,
        "note": 61,
        "velocity": 0
      },
      {
        "type": "midi",
        "subType": "noteOn",
        "typeByte": 153,
        "deltaTime": 25,
        "channel": 9,
        "note": 36,
        "velocity": 127
      },
      {
        "type": "midi",
        "subType": "noteOn",
        "typeByte": 153,
        "deltaTime": 0,
        "channel": 9,
        "note": 61,
        "velocity": 127
      },
      {
        "type": "midi",
        "subType": "noteOn",
        "typeByte": 153,
        "deltaTime": 1,
        "channel": 9,
        "note": 42,
        "velocity": 127
      },
      {
        "type": "midi",
        "subType": "noteOff",
        "typeByte": 153,
        "deltaTime": 22,
        "channel": 9,
        "note": 61,
        "velocity": 0
      },
      {
        "type": "midi",
        "subType": "noteOff",
        "typeByte": 153,
        "deltaTime": 0,
        "channel": 9,
        "note": 36,
        "velocity": 0
      },
      {
        "type": "midi",
        "subType": "noteOff",
        "typeByte": 153,
        "deltaTime": 2,
        "channel": 9,
        "note": 42,
        "velocity": 0
      },
      {
        "type": "midi",
        "subType": "noteOff",
        "typeByte": 153,
        "deltaTime": 15,
        "channel": 9,
        "note": 51,
        "velocity": 0
      },
      {
        "type": "midi",
        "subType": "noteOff",
        "typeByte": 153,
        "deltaTime": 1,
        "channel": 9,
        "note": 40,
        "velocity": 0
      },
      {
        "type": "midi",
        "subType": "noteOn",
        "typeByte": 153,
        "deltaTime": 7,
        "channel": 9,
        "note": 38,
        "velocity": 127
      },
      {
        "type": "midi",
        "subType": "noteOn",
        "typeByte": 153,
        "deltaTime": 0,
        "channel": 9,
        "note": 61,
        "velocity": 127
      },
      {
        "type": "midi",
        "subType": "noteOn",
        "typeByte": 153,
        "deltaTime": 0,
        "channel": 9,
        "note": 42,
        "velocity": 127
      },
      {
        "type": "midi",
        "subType": "noteOff",
        "typeByte": 153,
        "deltaTime": 22,
        "channel": 9,
        "note": 42,
        "velocity": 0
      },
      {
        "type": "midi",
        "subType": "noteOff",
        "typeByte": 153,
        "deltaTime": 1,
        "channel": 9,
        "note": 61,
        "velocity": 0
      },
      {
        "type": "midi",
        "subType": "noteOff",
        "typeByte": 153,
        "deltaTime": 0,
        "channel": 9,
        "note": 38,
        "velocity": 0
      },
      {
        "type": "midi",
        "subType": "noteOn",
        "typeByte": 153,
        "deltaTime": 26,
        "channel": 9,
        "note": 61,
        "velocity": 127
      },
      {
        "type": "midi",
        "subType": "noteOn",
        "typeByte": 153,
        "deltaTime": 0,
        "channel": 9,
        "note": 42,
        "velocity": 127
      },
      {
        "type": "midi",
        "subType": "noteOff",
        "typeByte": 153,
        "deltaTime": 21,
        "channel": 9,
        "note": 42,
        "velocity": 0
      },
      {
        "type": "midi",
        "subType": "noteOff",
        "typeByte": 153,
        "deltaTime": 2,
        "channel": 9,
        "note": 61,
        "velocity": 0
      },
      {
        "type": "midi",
        "subType": "noteOn",
        "typeByte": 153,
        "deltaTime": 24,
        "channel": 9,
        "note": 36,
        "velocity": 127
      },
      {
        "type": "midi",
        "subType": "noteOn",
        "typeByte": 153,
        "deltaTime": 0,
        "channel": 9,
        "note": 61,
        "velocity": 127
      },
      {
        "type": "midi",
        "subType": "noteOn",
        "typeByte": 153,
        "deltaTime": 1,
        "channel": 9,
        "note": 42,
        "velocity": 127
      },
      {
        "type": "midi",
        "subType": "noteOn",
        "typeByte": 153,
        "deltaTime": 0,
        "channel": 9,
        "note": 49,
        "velocity": 127
      },
      {
        "type": "midi",
        "subType": "controller",
        "typeByte": 185,
        "deltaTime": 7,
        "channel": 9,
        "controllerType": 66,
        "value": 0
      },
      {
        "type": "midi",
        "subType": "controller",
        "typeByte": 185,
        "deltaTime": 4,
        "channel": 9,
        "controllerType": 66,
        "value": 0
      },
      {
        "type": "midi",
        "subType": "controller",
        "typeByte": 185,
        "deltaTime": 4,
        "channel": 9,
        "controllerType": 66,
        "value": 0
      },
      {
        "type": "midi",
        "subType": "noteOff",
        "typeByte": 153,
        "deltaTime": 7,
        "channel": 9,
        "note": 61,
        "velocity": 0
      },
      {
        "type": "midi",
        "subType": "noteOff",
        "typeByte": 153,
        "deltaTime": 0,
        "channel": 9,
        "note": 36,
        "velocity": 0
      },
      {
        "type": "midi",
        "subType": "noteOff",
        "typeByte": 153,
        "deltaTime": 3,
        "channel": 9,
        "note": 42,
        "velocity": 0
      },
      {
        "type": "midi",
        "subType": "noteOn",
        "typeByte": 153,
        "deltaTime": 23,
        "channel": 9,
        "note": 61,
        "velocity": 127
      },
      {
        "type": "midi",
        "subType": "noteOn",
        "typeByte": 153,
        "deltaTime": 0,
        "channel": 9,
        "note": 42,
        "velocity": 127
      },
      {
        "type": "midi",
        "subType": "noteOff",
        "typeByte": 153,
        "deltaTime": 20,
        "channel": 9,
        "note": 42,
        "velocity": 0
      },
      {
        "type": "midi",
        "subType": "noteOff",
        "typeByte": 153,
        "deltaTime": 3,
        "channel": 9,
        "note": 61,
        "velocity": 0
      },
      {
        "type": "midi",
        "subType": "noteOn",
        "typeByte": 153,
        "deltaTime": 24,
        "channel": 9,
        "note": 38,
        "velocity": 127
      },
      {
        "type": "midi",
        "subType": "noteOn",
        "typeByte": 153,
        "deltaTime": 1,
        "channel": 9,
        "note": 61,
        "velocity": 127
      },
      {
        "type": "midi",
        "subType": "noteOn",
        "typeByte": 153,
        "deltaTime": 0,
        "channel": 9,
        "note": 42,
        "velocity": 127
      },
      {
        "type": "midi",
        "subType": "noteOff",
        "typeByte": 153,
        "deltaTime": 23,
        "channel": 9,
        "note": 42,
        "velocity": 0
      },
      {
        "type": "midi",
        "subType": "noteOff",
        "typeByte": 153,
        "deltaTime": 0,
        "channel": 9,
        "note": 61,
        "velocity": 0
      },
      {
        "type": "midi",
        "subType": "noteOff",
        "typeByte": 153,
        "deltaTime": 0,
        "channel": 9,
        "note": 38,
        "velocity": 0
      },
      {
        "type": "midi",
        "subType": "noteOn",
        "typeByte": 153,
        "deltaTime": 25,
        "channel": 9,
        "note": 61,
        "velocity": 127
      },
      {
        "type": "midi",
        "subType": "noteOn",
        "typeByte": 153,
        "deltaTime": 0,
        "channel": 9,
        "note": 42,
        "velocity": 127
      },
      {
        "type": "midi",
        "subType": "noteOff",
        "typeByte": 153,
        "deltaTime": 23,
        "channel": 9,
        "note": 42,
        "velocity": 0
      },
      {
        "type": "midi",
        "subType": "noteOff",
        "typeByte": 153,
        "deltaTime": 0,
        "channel": 9,
        "note": 61,
        "velocity": 0
      },
      {
        "type": "midi",
        "subType": "noteOn",
        "typeByte": 153,
        "deltaTime": 25,
        "channel": 9,
        "note": 36,
        "velocity": 127
      },
      {
        "type": "midi",
        "subType": "noteOn",
        "typeByte": 153,
        "deltaTime": 0,
        "channel": 9,
        "note": 61,
        "velocity": 127
      },
      {
        "type": "midi",
        "subType": "noteOn",
        "typeByte": 153,
        "deltaTime": 0,
        "channel": 9,
        "note": 40,
        "velocity": 127
      },
      {
        "type": "midi",
        "subType": "noteOn",
        "typeByte": 153,
        "deltaTime": 1,
        "channel": 9,
        "note": 51,
        "velocity": 127
      },
      {
        "type": "midi",
        "subType": "noteOn",
        "typeByte": 153,
        "deltaTime": 0,
        "channel": 9,
        "note": 42,
        "velocity": 127
      },
      {
        "type": "midi",
        "subType": "noteOff",
        "typeByte": 153,
        "deltaTime": 22,
        "channel": 9,
        "note": 42,
        "velocity": 0
      },
      {
        "type": "midi",
        "subType": "noteOff",
        "typeByte": 153,
        "deltaTime": 0,
        "channel": 9,
        "note": 36,
        "velocity": 0
      },
      {
        "type": "midi",
        "subType": "noteOff",
        "typeByte": 153,
        "deltaTime": 0,
        "channel": 9,
        "note": 61,
        "velocity": 0
      },
      {
        "type": "midi",
        "subType": "noteOn",
        "typeByte": 153,
        "deltaTime": 26,
        "channel": 9,
        "note": 36,
        "velocity": 127
      },
      {
        "type": "midi",
        "subType": "noteOn",
        "typeByte": 153,
        "deltaTime": 0,
        "channel": 9,
        "note": 61,
        "velocity": 127
      },
      {
        "type": "midi",
        "subType": "noteOn",
        "typeByte": 153,
        "deltaTime": 0,
        "channel": 9,
        "note": 42,
        "velocity": 127
      },
      {
        "type": "midi",
        "subType": "noteOff",
        "typeByte": 153,
        "deltaTime": 23,
        "channel": 9,
        "note": 61,
        "velocity": 0
      },
      {
        "type": "midi",
        "subType": "noteOff",
        "typeByte": 153,
        "deltaTime": 0,
        "channel": 9,
        "note": 36,
        "velocity": 0
      },
      {
        "type": "midi",
        "subType": "noteOff",
        "typeByte": 153,
        "deltaTime": 1,
        "channel": 9,
        "note": 42,
        "velocity": 0
      },
      {
        "type": "midi",
        "subType": "noteOff",
        "typeByte": 153,
        "deltaTime": 23,
        "channel": 9,
        "note": 40,
        "velocity": 0
      },
      {
        "type": "midi",
        "subType": "noteOn",
        "typeByte": 153,
        "deltaTime": 0,
        "channel": 9,
        "note": 38,
        "velocity": 127
      },
      {
        "type": "midi",
        "subType": "noteOn",
        "typeByte": 153,
        "deltaTime": 1,
        "channel": 9,
        "note": 61,
        "velocity": 127
      },
      {
        "type": "midi",
        "subType": "noteOn",
        "typeByte": 153,
        "deltaTime": 0,
        "channel": 9,
        "note": 42,
        "velocity": 127
      },
      {
        "type": "midi",
        "subType": "noteOff",
        "typeByte": 153,
        "deltaTime": 5,
        "channel": 9,
        "note": 51,
        "velocity": 0
      },
      {
        "type": "midi",
        "subType": "noteOff",
        "typeByte": 153,
        "deltaTime": 17,
        "channel": 9,
        "note": 61,
        "velocity": 0
      },
      {
        "type": "midi",
        "subType": "noteOff",
        "typeByte": 153,
        "deltaTime": 0,
        "channel": 9,
        "note": 38,
        "velocity": 0
      },
      {
        "type": "midi",
        "subType": "noteOff",
        "typeByte": 153,
        "deltaTime": 3,
        "channel": 9,
        "note": 42,
        "velocity": 0
      },
      {
        "type": "midi",
        "subType": "noteOn",
        "typeByte": 153,
        "deltaTime": 23,
        "channel": 9,
        "note": 61,
        "velocity": 127
      },
      {
        "type": "midi",
        "subType": "noteOn",
        "typeByte": 153,
        "deltaTime": 0,
        "channel": 9,
        "note": 42,
        "velocity": 127
      },
      {
        "type": "midi",
        "subType": "noteOff",
        "typeByte": 153,
        "deltaTime": 1,
        "channel": 9,
        "note": 49,
        "velocity": 0
      },
      {
        "type": "midi",
        "subType": "noteOff",
        "typeByte": 153,
        "deltaTime": 22,
        "channel": 9,
        "note": 61,
        "velocity": 0
      },
      {
        "type": "midi",
        "subType": "noteOff",
        "typeByte": 153,
        "deltaTime": 1,
        "channel": 9,
        "note": 42,
        "velocity": 0
      },
      {
        "type": "midi",
        "subType": "noteOn",
        "typeByte": 153,
        "deltaTime": 23,
        "channel": 9,
        "note": 36,
        "velocity": 127
      },
      {
        "type": "midi",
        "subType": "noteOn",
        "typeByte": 153,
        "deltaTime": 1,
        "channel": 9,
        "note": 61,
        "velocity": 127
      },
      {
        "type": "midi",
        "subType": "noteOn",
        "typeByte": 153,
        "deltaTime": 0,
        "channel": 9,
        "note": 42,
        "velocity": 127
      },
      {
        "type": "midi",
        "subType": "noteOff",
        "typeByte": 153,
        "deltaTime": 22,
        "channel": 9,
        "note": 61,
        "velocity": 0
      },
      {
        "type": "midi",
        "subType": "noteOff",
        "typeByte": 153,
        "deltaTime": 0,
        "channel": 9,
        "note": 36,
        "velocity": 0
      },
      {
        "type": "midi",
        "subType": "noteOff",
        "typeByte": 153,
        "deltaTime": 6,
        "channel": 9,
        "note": 42,
        "velocity": 0
      },
      {
        "type": "midi",
        "subType": "noteOn",
        "typeByte": 153,
        "deltaTime": 20,
        "channel": 9,
        "note": 61,
        "velocity": 127
      },
      {
        "type": "midi",
        "subType": "noteOn",
        "typeByte": 153,
        "deltaTime": 0,
        "channel": 9,
        "note": 42,
        "velocity": 127
      },
      {
        "type": "midi",
        "subType": "noteOff",
        "typeByte": 153,
        "deltaTime": 22,
        "channel": 9,
        "note": 42,
        "velocity": 0
      },
      {
        "type": "midi",
        "subType": "noteOff",
        "typeByte": 153,
        "deltaTime": 1,
        "channel": 9,
        "note": 61,
        "velocity": 0
      },
      {
        "type": "midi",
        "subType": "noteOn",
        "typeByte": 153,
        "deltaTime": 25,
        "channel": 9,
        "note": 38,
        "velocity": 127
      },
      {
        "type": "midi",
        "subType": "noteOn",
        "typeByte": 153,
        "deltaTime": 0,
        "channel": 9,
        "note": 61,
        "velocity": 127
      },
      {
        "type": "midi",
        "subType": "noteOn",
        "typeByte": 153,
        "deltaTime": 0,
        "channel": 9,
        "note": 42,
        "velocity": 127
      },
      {
        "type": "midi",
        "subType": "noteOff",
        "typeByte": 153,
        "deltaTime": 23,
        "channel": 9,
        "note": 42,
        "velocity": 0
      },
      {
        "type": "midi",
        "subType": "noteOff",
        "typeByte": 153,
        "deltaTime": 0,
        "channel": 9,
        "note": 61,
        "velocity": 0
      },
      {
        "type": "midi",
        "subType": "noteOff",
        "typeByte": 153,
        "deltaTime": 0,
        "channel": 9,
        "note": 38,
        "velocity": 0
      },
      {
        "type": "midi",
        "subType": "noteOn",
        "typeByte": 153,
        "deltaTime": 26,
        "channel": 9,
        "note": 61,
        "velocity": 127
      },
      {
        "type": "midi",
        "subType": "noteOn",
        "typeByte": 153,
        "deltaTime": 0,
        "channel": 9,
        "note": 42,
        "velocity": 127
      },
      {
        "type": "midi",
        "subType": "noteOff",
        "typeByte": 153,
        "deltaTime": 23,
        "channel": 9,
        "note": 61,
        "velocity": 0
      },
      {
        "type": "midi",
        "subType": "noteOff",
        "typeByte": 153,
        "deltaTime": 1,
        "channel": 9,
        "note": 42,
        "velocity": 0
      },
      {
        "type": "midi",
        "subType": "noteOn",
        "typeByte": 153,
        "deltaTime": 23,
        "channel": 9,
        "note": 36,
        "velocity": 127
      },
      {
        "type": "midi",
        "subType": "noteOn",
        "typeByte": 153,
        "deltaTime": 0,
        "channel": 9,
        "note": 61,
        "velocity": 127
      },
      {
        "type": "midi",
        "subType": "noteOn",
        "typeByte": 153,
        "deltaTime": 0,
        "channel": 9,
        "note": 51,
        "velocity": 127
      },
      {
        "type": "midi",
        "subType": "noteOn",
        "typeByte": 153,
        "deltaTime": 1,
        "channel": 9,
        "note": 40,
        "velocity": 127
      },
      {
        "type": "midi",
        "subType": "noteOn",
        "typeByte": 153,
        "deltaTime": 0,
        "channel": 9,
        "note": 42,
        "velocity": 127
      },
      {
        "type": "midi",
        "subType": "noteOff",
        "typeByte": 153,
        "deltaTime": 22,
        "channel": 9,
        "note": 61,
        "velocity": 0
      },
      {
        "type": "midi",
        "subType": "noteOff",
        "typeByte": 153,
        "deltaTime": 0,
        "channel": 9,
        "note": 36,
        "velocity": 0
      },
      {
        "type": "midi",
        "subType": "noteOff",
        "typeByte": 153,
        "deltaTime": 3,
        "channel": 9,
        "note": 42,
        "velocity": 0
      },
      {
        "type": "midi",
        "subType": "noteOn",
        "typeByte": 153,
        "deltaTime": 23,
        "channel": 9,
        "note": 36,
        "velocity": 127
      },
      {
        "type": "midi",
        "subType": "noteOn",
        "typeByte": 153,
        "deltaTime": 0,
        "channel": 9,
        "note": 61,
        "velocity": 127
      },
      {
        "type": "midi",
        "subType": "noteOn",
        "typeByte": 153,
        "deltaTime": 0,
        "channel": 9,
        "note": 42,
        "velocity": 127
      },
      {
        "type": "midi",
        "subType": "noteOff",
        "typeByte": 153,
        "deltaTime": 23,
        "channel": 9,
        "note": 61,
        "velocity": 0
      },
      {
        "type": "midi",
        "subType": "noteOff",
        "typeByte": 153,
        "deltaTime": 0,
        "channel": 9,
        "note": 36,
        "velocity": 0
      },
      {
        "type": "midi",
        "subType": "noteOff",
        "typeByte": 153,
        "deltaTime": 1,
        "channel": 9,
        "note": 42,
        "velocity": 0
      },
      {
        "type": "midi",
        "subType": "noteOff",
        "typeByte": 153,
        "deltaTime": 15,
        "channel": 9,
        "note": 51,
        "velocity": 0
      },
      {
        "type": "midi",
        "subType": "noteOff",
        "typeByte": 153,
        "deltaTime": 1,
        "channel": 9,
        "note": 40,
        "velocity": 0
      },
      {
        "type": "midi",
        "subType": "noteOn",
        "typeByte": 153,
        "deltaTime": 7,
        "channel": 9,
        "note": 38,
        "velocity": 127
      },
      {
        "type": "midi",
        "subType": "noteOn",
        "typeByte": 153,
        "deltaTime": 0,
        "channel": 9,
        "note": 61,
        "velocity": 127
      },
      {
        "type": "midi",
        "subType": "noteOn",
        "typeByte": 153,
        "deltaTime": 1,
        "channel": 9,
        "note": 42,
        "velocity": 127
      },
      {
        "type": "midi",
        "subType": "noteOff",
        "typeByte": 153,
        "deltaTime": 22,
        "channel": 9,
        "note": 61,
        "velocity": 0
      },
      {
        "type": "midi",
        "subType": "noteOff",
        "typeByte": 153,
        "deltaTime": 0,
        "channel": 9,
        "note": 38,
        "velocity": 0
      },
      {
        "type": "midi",
        "subType": "noteOff",
        "typeByte": 153,
        "deltaTime": 3,
        "channel": 9,
        "note": 42,
        "velocity": 0
      },
      {
        "type": "midi",
        "subType": "noteOn",
        "typeByte": 153,
        "deltaTime": 23,
        "channel": 9,
        "note": 61,
        "velocity": 127
      },
      {
        "type": "midi",
        "subType": "noteOn",
        "typeByte": 153,
        "deltaTime": 0,
        "channel": 9,
        "note": 42,
        "velocity": 127
      },
      {
        "type": "midi",
        "subType": "noteOff",
        "typeByte": 153,
        "deltaTime": 23,
        "channel": 9,
        "note": 61,
        "velocity": 0
      },
      {
        "type": "midi",
        "subType": "noteOff",
        "typeByte": 153,
        "deltaTime": 1,
        "channel": 9,
        "note": 42,
        "velocity": 0
      },
      {
        "type": "midi",
        "subType": "noteOn",
        "typeByte": 153,
        "deltaTime": 24,
        "channel": 9,
        "note": 36,
        "velocity": 127
      },
      {
        "type": "midi",
        "subType": "noteOn",
        "typeByte": 153,
        "deltaTime": 0,
        "channel": 9,
        "note": 61,
        "velocity": 127
      },
      {
        "type": "midi",
        "subType": "noteOn",
        "typeByte": 153,
        "deltaTime": 0,
        "channel": 9,
        "note": 42,
        "velocity": 127
      },
      {
        "type": "midi",
        "subType": "noteOff",
        "typeByte": 153,
        "deltaTime": 23,
        "channel": 9,
        "note": 61,
        "velocity": 0
      },
      {
        "type": "midi",
        "subType": "noteOff",
        "typeByte": 153,
        "deltaTime": 0,
        "channel": 9,
        "note": 36,
        "velocity": 0
      },
      {
        "type": "midi",
        "subType": "noteOff",
        "typeByte": 153,
        "deltaTime": 2,
        "channel": 9,
        "note": 42,
        "velocity": 0
      },
      {
        "type": "midi",
        "subType": "noteOn",
        "typeByte": 153,
        "deltaTime": 23,
        "channel": 9,
        "note": 61,
        "velocity": 127
      },
      {
        "type": "midi",
        "subType": "noteOn",
        "typeByte": 153,
        "deltaTime": 1,
        "channel": 9,
        "note": 42,
        "velocity": 127
      },
      {
        "type": "midi",
        "subType": "noteOff",
        "typeByte": 153,
        "deltaTime": 22,
        "channel": 9,
        "note": 61,
        "velocity": 0
      },
      {
        "type": "midi",
        "subType": "noteOff",
        "typeByte": 153,
        "deltaTime": 3,
        "channel": 9,
        "note": 42,
        "velocity": 0
      },
      {
        "type": "midi",
        "subType": "noteOn",
        "typeByte": 153,
        "deltaTime": 22,
        "channel": 9,
        "note": 38,
        "velocity": 127
      },
      {
        "type": "midi",
        "subType": "noteOn",
        "typeByte": 153,
        "deltaTime": 0,
        "channel": 9,
        "note": 61,
        "velocity": 127
      },
      {
        "type": "midi",
        "subType": "noteOn",
        "typeByte": 153,
        "deltaTime": 0,
        "channel": 9,
        "note": 42,
        "velocity": 127
      },
      {
        "type": "midi",
        "subType": "noteOff",
        "typeByte": 153,
        "deltaTime": 23,
        "channel": 9,
        "note": 42,
        "velocity": 0
      },
      {
        "type": "midi",
        "subType": "noteOff",
        "typeByte": 153,
        "deltaTime": 0,
        "channel": 9,
        "note": 61,
        "velocity": 0
      },
      {
        "type": "midi",
        "subType": "noteOff",
        "typeByte": 153,
        "deltaTime": 0,
        "channel": 9,
        "note": 38,
        "velocity": 0
      },
      {
        "type": "midi",
        "subType": "noteOn",
        "typeByte": 153,
        "deltaTime": 26,
        "channel": 9,
        "note": 61,
        "velocity": 127
      },
      {
        "type": "midi",
        "subType": "noteOn",
        "typeByte": 153,
        "deltaTime": 0,
        "channel": 9,
        "note": 42,
        "velocity": 127
      },
      {
        "type": "midi",
        "subType": "noteOff",
        "typeByte": 153,
        "deltaTime": 23,
        "channel": 9,
        "note": 42,
        "velocity": 0
      },
      {
        "type": "midi",
        "subType": "noteOff",
        "typeByte": 153,
        "deltaTime": 0,
        "channel": 9,
        "note": 61,
        "velocity": 0
      },
      {
        "type": "midi",
        "subType": "noteOn",
        "typeByte": 153,
        "deltaTime": 24,
        "channel": 9,
        "note": 36,
        "velocity": 127
      },
      {
        "type": "midi",
        "subType": "noteOn",
        "typeByte": 153,
        "deltaTime": 0,
        "channel": 9,
        "note": 61,
        "velocity": 127
      },
      {
        "type": "midi",
        "subType": "noteOn",
        "typeByte": 153,
        "deltaTime": 1,
        "channel": 9,
        "note": 40,
        "velocity": 127
      },
      {
        "type": "midi",
        "subType": "noteOn",
        "typeByte": 153,
        "deltaTime": 0,
        "channel": 9,
        "note": 51,
        "velocity": 127
      },
      {
        "type": "midi",
        "subType": "noteOn",
        "typeByte": 153,
        "deltaTime": 0,
        "channel": 9,
        "note": 42,
        "velocity": 127
      },
      {
        "type": "midi",
        "subType": "noteOff",
        "typeByte": 153,
        "deltaTime": 22,
        "channel": 9,
        "note": 42,
        "velocity": 0
      },
      {
        "type": "midi",
        "subType": "noteOff",
        "typeByte": 153,
        "deltaTime": 0,
        "channel": 9,
        "note": 36,
        "velocity": 0
      },
      {
        "type": "midi",
        "subType": "noteOff",
        "typeByte": 153,
        "deltaTime": 1,
        "channel": 9,
        "note": 61,
        "velocity": 0
      },
      {
        "type": "midi",
        "subType": "noteOn",
        "typeByte": 153,
        "deltaTime": 25,
        "channel": 9,
        "note": 36,
        "velocity": 127
      },
      {
        "type": "midi",
        "subType": "noteOn",
        "typeByte": 153,
        "deltaTime": 0,
        "channel": 9,
        "note": 61,
        "velocity": 127
      },
      {
        "type": "midi",
        "subType": "noteOn",
        "typeByte": 153,
        "deltaTime": 0,
        "channel": 9,
        "note": 42,
        "velocity": 127
      },
      {
        "type": "midi",
        "subType": "noteOff",
        "typeByte": 153,
        "deltaTime": 22,
        "channel": 9,
        "note": 42,
        "velocity": 0
      },
      {
        "type": "midi",
        "subType": "noteOff",
        "typeByte": 153,
        "deltaTime": 1,
        "channel": 9,
        "note": 36,
        "velocity": 0
      },
      {
        "type": "midi",
        "subType": "noteOff",
        "typeByte": 153,
        "deltaTime": 0,
        "channel": 9,
        "note": 61,
        "velocity": 0
      },
      {
        "type": "midi",
        "subType": "noteOff",
        "typeByte": 153,
        "deltaTime": 24,
        "channel": 9,
        "note": 40,
        "velocity": 0
      },
      {
        "type": "midi",
        "subType": "noteOn",
        "typeByte": 153,
        "deltaTime": 1,
        "channel": 9,
        "note": 38,
        "velocity": 127
      },
      {
        "type": "midi",
        "subType": "noteOn",
        "typeByte": 153,
        "deltaTime": 0,
        "channel": 9,
        "note": 61,
        "velocity": 127
      },
      {
        "type": "midi",
        "subType": "noteOn",
        "typeByte": 153,
        "deltaTime": 0,
        "channel": 9,
        "note": 42,
        "velocity": 127
      },
      {
        "type": "midi",
        "subType": "noteOff",
        "typeByte": 153,
        "deltaTime": 5,
        "channel": 9,
        "note": 51,
        "velocity": 0
      },
      {
        "type": "midi",
        "subType": "noteOff",
        "typeByte": 153,
        "deltaTime": 17,
        "channel": 9,
        "note": 38,
        "velocity": 0
      },
      {
        "type": "midi",
        "subType": "noteOff",
        "typeByte": 153,
        "deltaTime": 0,
        "channel": 9,
        "note": 61,
        "velocity": 0
      },
      {
        "type": "midi",
        "subType": "noteOff",
        "typeByte": 153,
        "deltaTime": 2,
        "channel": 9,
        "note": 42,
        "velocity": 0
      },
      {
        "type": "midi",
        "subType": "noteOn",
        "typeByte": 153,
        "deltaTime": 24,
        "channel": 9,
        "note": 61,
        "velocity": 127
      },
      {
        "type": "midi",
        "subType": "noteOn",
        "typeByte": 153,
        "deltaTime": 0,
        "channel": 9,
        "note": 42,
        "velocity": 127
      },
      {
        "type": "midi",
        "subType": "noteOff",
        "typeByte": 153,
        "deltaTime": 22,
        "channel": 9,
        "note": 42,
        "velocity": 0
      },
      {
        "type": "midi",
        "subType": "noteOff",
        "typeByte": 153,
        "deltaTime": 1,
        "channel": 9,
        "note": 61,
        "velocity": 0
      },
      {
        "type": "midi",
        "subType": "noteOn",
        "typeByte": 153,
        "deltaTime": 25,
        "channel": 9,
        "note": 36,
        "velocity": 127
      },
      {
        "type": "midi",
        "subType": "noteOn",
        "typeByte": 153,
        "deltaTime": 0,
        "channel": 9,
        "note": 61,
        "velocity": 127
      },
      {
        "type": "midi",
        "subType": "noteOn",
        "typeByte": 153,
        "deltaTime": 0,
        "channel": 9,
        "note": 42,
        "velocity": 127
      },
      {
        "type": "midi",
        "subType": "noteOff",
        "typeByte": 153,
        "deltaTime": 19,
        "channel": 9,
        "note": 42,
        "velocity": 0
      },
      {
        "type": "midi",
        "subType": "noteOff",
        "typeByte": 153,
        "deltaTime": 4,
        "channel": 9,
        "note": 61,
        "velocity": 0
      },
      {
        "type": "midi",
        "subType": "noteOff",
        "typeByte": 153,
        "deltaTime": 0,
        "channel": 9,
        "note": 36,
        "velocity": 0
      },
      {
        "type": "midi",
        "subType": "noteOn",
        "typeByte": 153,
        "deltaTime": 26,
        "channel": 9,
        "note": 61,
        "velocity": 127
      },
      {
        "type": "midi",
        "subType": "noteOn",
        "typeByte": 153,
        "deltaTime": 0,
        "channel": 9,
        "note": 42,
        "velocity": 127
      },
      {
        "type": "midi",
        "subType": "noteOff",
        "typeByte": 153,
        "deltaTime": 17,
        "channel": 9,
        "note": 42,
        "velocity": 0
      },
      {
        "type": "midi",
        "subType": "noteOff",
        "typeByte": 153,
        "deltaTime": 5,
        "channel": 9,
        "note": 61,
        "velocity": 0
      },
      {
        "type": "midi",
        "subType": "noteOn",
        "typeByte": 153,
        "deltaTime": 25,
        "channel": 9,
        "note": 38,
        "velocity": 127
      },
      {
        "type": "midi",
        "subType": "noteOn",
        "typeByte": 153,
        "deltaTime": 0,
        "channel": 9,
        "note": 61,
        "velocity": 127
      },
      {
        "type": "midi",
        "subType": "noteOn",
        "typeByte": 153,
        "deltaTime": 0,
        "channel": 9,
        "note": 42,
        "velocity": 127
      },
      {
        "type": "midi",
        "subType": "noteOff",
        "typeByte": 153,
        "deltaTime": 20,
        "channel": 9,
        "note": 42,
        "velocity": 0
      },
      {
        "type": "midi",
        "subType": "noteOff",
        "typeByte": 153,
        "deltaTime": 4,
        "channel": 9,
        "note": 61,
        "velocity": 0
      },
      {
        "type": "midi",
        "subType": "noteOff",
        "typeByte": 153,
        "deltaTime": 0,
        "channel": 9,
        "note": 38,
        "velocity": 0
      },
      {
        "type": "midi",
        "subType": "noteOn",
        "typeByte": 153,
        "deltaTime": 25,
        "channel": 9,
        "note": 61,
        "velocity": 127
      },
      {
        "type": "midi",
        "subType": "noteOn",
        "typeByte": 153,
        "deltaTime": 0,
        "channel": 9,
        "note": 42,
        "velocity": 127
      },
      {
        "type": "midi",
        "subType": "noteOff",
        "typeByte": 153,
        "deltaTime": 13,
        "channel": 9,
        "note": 42,
        "velocity": 0
      },
      {
        "type": "midi",
        "subType": "noteOff",
        "typeByte": 153,
        "deltaTime": 10,
        "channel": 9,
        "note": 61,
        "velocity": 0
      },
      {
        "type": "midi",
        "subType": "noteOn",
        "typeByte": 153,
        "deltaTime": 24,
        "channel": 9,
        "note": 36,
        "velocity": 127
      },
      {
        "type": "midi",
        "subType": "noteOn",
        "typeByte": 153,
        "deltaTime": 0,
        "channel": 9,
        "note": 61,
        "velocity": 127
      },
      {
        "type": "midi",
        "subType": "noteOn",
        "typeByte": 153,
        "deltaTime": 1,
        "channel": 9,
        "note": 51,
        "velocity": 127
      },
      {
        "type": "midi",
        "subType": "noteOn",
        "typeByte": 153,
        "deltaTime": 0,
        "channel": 9,
        "note": 40,
        "velocity": 127
      },
      {
        "type": "midi",
        "subType": "noteOn",
        "typeByte": 153,
        "deltaTime": 0,
        "channel": 9,
        "note": 42,
        "velocity": 127
      },
      {
        "type": "midi",
        "subType": "noteOff",
        "typeByte": 153,
        "deltaTime": 21,
        "channel": 9,
        "note": 42,
        "velocity": 0
      },
      {
        "type": "midi",
        "subType": "noteOff",
        "typeByte": 153,
        "deltaTime": 3,
        "channel": 9,
        "note": 36,
        "velocity": 0
      },
      {
        "type": "midi",
        "subType": "noteOff",
        "typeByte": 153,
        "deltaTime": 0,
        "channel": 9,
        "note": 61,
        "velocity": 0
      },
      {
        "type": "midi",
        "subType": "noteOn",
        "typeByte": 153,
        "deltaTime": 24,
        "channel": 9,
        "note": 36,
        "velocity": 127
      },
      {
        "type": "midi",
        "subType": "noteOn",
        "typeByte": 153,
        "deltaTime": 0,
        "channel": 9,
        "note": 61,
        "velocity": 127
      },
      {
        "type": "midi",
        "subType": "noteOn",
        "typeByte": 153,
        "deltaTime": 1,
        "channel": 9,
        "note": 42,
        "velocity": 127
      },
      {
        "type": "midi",
        "subType": "noteOff",
        "typeByte": 153,
        "deltaTime": 22,
        "channel": 9,
        "note": 42,
        "velocity": 0
      },
      {
        "type": "midi",
        "subType": "noteOff",
        "typeByte": 153,
        "deltaTime": 0,
        "channel": 9,
        "note": 36,
        "velocity": 0
      },
      {
        "type": "midi",
        "subType": "noteOff",
        "typeByte": 153,
        "deltaTime": 1,
        "channel": 9,
        "note": 61,
        "velocity": 0
      },
      {
        "type": "midi",
        "subType": "noteOff",
        "typeByte": 153,
        "deltaTime": 15,
        "channel": 9,
        "note": 51,
        "velocity": 0
      },
      {
        "type": "midi",
        "subType": "noteOff",
        "typeByte": 153,
        "deltaTime": 2,
        "channel": 9,
        "note": 40,
        "velocity": 0
      },
      {
        "type": "midi",
        "subType": "noteOn",
        "typeByte": 153,
        "deltaTime": 7,
        "channel": 9,
        "note": 38,
        "velocity": 127
      },
      {
        "type": "midi",
        "subType": "noteOn",
        "typeByte": 153,
        "deltaTime": 0,
        "channel": 9,
        "note": 61,
        "velocity": 127
      },
      {
        "type": "midi",
        "subType": "noteOn",
        "typeByte": 153,
        "deltaTime": 0,
        "channel": 9,
        "note": 42,
        "velocity": 127
      },
      {
        "type": "midi",
        "subType": "noteOff",
        "typeByte": 153,
        "deltaTime": 24,
        "channel": 9,
        "note": 42,
        "velocity": 0
      },
      {
        "type": "midi",
        "subType": "noteOff",
        "typeByte": 153,
        "deltaTime": 0,
        "channel": 9,
        "note": 61,
        "velocity": 0
      },
      {
        "type": "midi",
        "subType": "noteOff",
        "typeByte": 153,
        "deltaTime": 0,
        "channel": 9,
        "note": 38,
        "velocity": 0
      },
      {
        "type": "midi",
        "subType": "noteOn",
        "typeByte": 153,
        "deltaTime": 24,
        "channel": 9,
        "note": 38,
        "velocity": 127
      },
      {
        "type": "midi",
        "subType": "noteOn",
        "typeByte": 153,
        "deltaTime": 0,
        "channel": 9,
        "note": 61,
        "velocity": 127
      },
      {
        "type": "midi",
        "subType": "noteOn",
        "typeByte": 153,
        "deltaTime": 1,
        "channel": 9,
        "note": 42,
        "velocity": 127
      },
      {
        "type": "midi",
        "subType": "noteOff",
        "typeByte": 153,
        "deltaTime": 23,
        "channel": 9,
        "note": 61,
        "velocity": 0
      },
      {
        "type": "midi",
        "subType": "noteOff",
        "typeByte": 153,
        "deltaTime": 0,
        "channel": 9,
        "note": 38,
        "velocity": 0
      },
      {
        "type": "midi",
        "subType": "noteOff",
        "typeByte": 153,
        "deltaTime": 1,
        "channel": 9,
        "note": 42,
        "velocity": 0
      },
      {
        "type": "midi",
        "subType": "noteOn",
        "typeByte": 153,
        "deltaTime": 23,
        "channel": 9,
        "note": 36,
        "velocity": 127
      },
      {
        "type": "midi",
        "subType": "noteOn",
        "typeByte": 153,
        "deltaTime": 0,
        "channel": 9,
        "note": 42,
        "velocity": 127
      },
      {
        "type": "midi",
        "subType": "noteOff",
        "typeByte": 153,
        "deltaTime": 24,
        "channel": 9,
        "note": 36,
        "velocity": 0
      },
      {
        "type": "midi",
        "subType": "noteOff",
        "typeByte": 153,
        "deltaTime": 2,
        "channel": 9,
        "note": 42,
        "velocity": 0
      },
      {
        "type": "midi",
        "subType": "noteOn",
        "typeByte": 153,
        "deltaTime": 23,
        "channel": 9,
        "note": 42,
        "velocity": 127
      },
      {
        "type": "midi",
        "subType": "noteOff",
        "typeByte": 153,
        "deltaTime": 20,
        "channel": 9,
        "note": 42,
        "velocity": 0
      },
      {
        "type": "midi",
        "subType": "noteOn",
        "typeByte": 153,
        "deltaTime": 27,
        "channel": 9,
        "note": 36,
        "velocity": 127
      },
      {
        "type": "midi",
        "subType": "noteOn",
        "typeByte": 153,
        "deltaTime": 0,
        "channel": 9,
        "note": 38,
        "velocity": 127
      },
      {
        "type": "midi",
        "subType": "noteOn",
        "typeByte": 153,
        "deltaTime": 1,
        "channel": 9,
        "note": 42,
        "velocity": 127
      },
      {
        "type": "midi",
        "subType": "noteOff",
        "typeByte": 153,
        "deltaTime": 22,
        "channel": 9,
        "note": 42,
        "velocity": 0
      },
      {
        "type": "midi",
        "subType": "noteOff",
        "typeByte": 153,
        "deltaTime": 2,
        "channel": 9,
        "note": 38,
        "velocity": 0
      },
      {
        "type": "midi",
        "subType": "noteOff",
        "typeByte": 153,
        "deltaTime": 0,
        "channel": 9,
        "note": 36,
        "velocity": 0
      },
      {
        "type": "midi",
        "subType": "noteOn",
        "typeByte": 153,
        "deltaTime": 24,
        "channel": 9,
        "note": 42,
        "velocity": 127
      },
      {
        "type": "midi",
        "subType": "noteOff",
        "typeByte": 153,
        "deltaTime": 23,
        "channel": 9,
        "note": 42,
        "velocity": 0
      },
      {
        "type": "midi",
        "subType": "noteOn",
        "typeByte": 153,
        "deltaTime": 25,
        "channel": 9,
        "note": 36,
        "velocity": 127
      },
      {
        "type": "midi",
        "subType": "noteOn",
        "typeByte": 153,
        "deltaTime": 0,
        "channel": 9,
        "note": 42,
        "velocity": 127
      },
      {
        "type": "midi",
        "subType": "noteOff",
        "typeByte": 153,
        "deltaTime": 24,
        "channel": 9,
        "note": 42,
        "velocity": 0
      },
      {
        "type": "midi",
        "subType": "noteOff",
        "typeByte": 153,
        "deltaTime": 0,
        "channel": 9,
        "note": 36,
        "velocity": 0
      },
      {
        "type": "midi",
        "subType": "noteOn",
        "typeByte": 153,
        "deltaTime": 24,
        "channel": 9,
        "note": 42,
        "velocity": 127
      },
      {
        "type": "midi",
        "subType": "noteOff",
        "typeByte": 153,
        "deltaTime": 25,
        "channel": 9,
        "note": 42,
        "velocity": 0
      },
      {
        "type": "midi",
        "subType": "noteOn",
        "typeByte": 153,
        "deltaTime": 23,
        "channel": 9,
        "note": 36,
        "velocity": 127
      },
      {
        "type": "midi",
        "subType": "noteOn",
        "typeByte": 153,
        "deltaTime": 0,
        "channel": 9,
        "note": 38,
        "velocity": 127
      },
      {
        "type": "midi",
        "subType": "noteOn",
        "typeByte": 153,
        "deltaTime": 0,
        "channel": 9,
        "note": 42,
        "velocity": 127
      },
      {
        "type": "midi",
        "subType": "noteOff",
        "typeByte": 153,
        "deltaTime": 24,
        "channel": 9,
        "note": 38,
        "velocity": 0
      },
      {
        "type": "midi",
        "subType": "noteOff",
        "typeByte": 153,
        "deltaTime": 0,
        "channel": 9,
        "note": 36,
        "velocity": 0
      },
      {
        "type": "midi",
        "subType": "noteOff",
        "typeByte": 153,
        "deltaTime": 2,
        "channel": 9,
        "note": 42,
        "velocity": 0
      },
      {
        "type": "midi",
        "subType": "noteOn",
        "typeByte": 153,
        "deltaTime": 23,
        "channel": 9,
        "note": 42,
        "velocity": 127
      },
      {
        "type": "midi",
        "subType": "noteOff",
        "typeByte": 153,
        "deltaTime": 24,
        "channel": 9,
        "note": 42,
        "velocity": 0
      },
      {
        "type": "midi",
        "subType": "noteOn",
        "typeByte": 153,
        "deltaTime": 25,
        "channel": 9,
        "note": 36,
        "velocity": 127
      },
      {
        "type": "midi",
        "subType": "noteOn",
        "typeByte": 153,
        "deltaTime": 0,
        "channel": 9,
        "note": 42,
        "velocity": 127
      },
      {
        "type": "midi",
        "subType": "noteOff",
        "typeByte": 153,
        "deltaTime": 22,
        "channel": 9,
        "note": 36,
        "velocity": 0
      },
      {
        "type": "midi",
        "subType": "noteOff",
        "typeByte": 153,
        "deltaTime": 5,
        "channel": 9,
        "note": 42,
        "velocity": 0
      },
      {
        "type": "midi",
        "subType": "noteOn",
        "typeByte": 153,
        "deltaTime": 20,
        "channel": 9,
        "note": 42,
        "velocity": 127
      },
      {
        "type": "midi",
        "subType": "noteOff",
        "typeByte": 153,
        "deltaTime": 22,
        "channel": 9,
        "note": 42,
        "velocity": 0
      },
      {
        "type": "midi",
        "subType": "noteOn",
        "typeByte": 153,
        "deltaTime": 27,
        "channel": 9,
        "note": 38,
        "velocity": 127
      },
      {
        "type": "midi",
        "subType": "noteOn",
        "typeByte": 153,
        "deltaTime": 0,
        "channel": 9,
        "note": 36,
        "velocity": 127
      },
      {
        "type": "midi",
        "subType": "noteOn",
        "typeByte": 153,
        "deltaTime": 0,
        "channel": 9,
        "note": 42,
        "velocity": 127
      },
      {
        "type": "midi",
        "subType": "noteOff",
        "typeByte": 153,
        "deltaTime": 23,
        "channel": 9,
        "note": 42,
        "velocity": 0
      },
      {
        "type": "midi",
        "subType": "noteOff",
        "typeByte": 153,
        "deltaTime": 0,
        "channel": 9,
        "note": 36,
        "velocity": 0
      },
      {
        "type": "midi",
        "subType": "noteOff",
        "typeByte": 153,
        "deltaTime": 0,
        "channel": 9,
        "note": 38,
        "velocity": 0
      },
      {
        "type": "midi",
        "subType": "noteOn",
        "typeByte": 153,
        "deltaTime": 24,
        "channel": 9,
        "note": 42,
        "velocity": 127
      },
      {
        "type": "midi",
        "subType": "noteOff",
        "typeByte": 153,
        "deltaTime": 25,
        "channel": 9,
        "note": 42,
        "velocity": 0
      },
      {
        "type": "midi",
        "subType": "noteOn",
        "typeByte": 153,
        "deltaTime": 24,
        "channel": 9,
        "note": 36,
        "velocity": 127
      },
      {
        "type": "midi",
        "subType": "noteOn",
        "typeByte": 153,
        "deltaTime": 0,
        "channel": 9,
        "note": 42,
        "velocity": 127
      },
      {
        "type": "midi",
        "subType": "noteOff",
        "typeByte": 153,
        "deltaTime": 23,
        "channel": 9,
        "note": 36,
        "velocity": 0
      },
      {
        "type": "midi",
        "subType": "noteOff",
        "typeByte": 153,
        "deltaTime": 1,
        "channel": 9,
        "note": 42,
        "velocity": 0
      },
      {
        "type": "midi",
        "subType": "noteOn",
        "typeByte": 153,
        "deltaTime": 24,
        "channel": 9,
        "note": 42,
        "velocity": 127
      },
      {
        "type": "midi",
        "subType": "noteOff",
        "typeByte": 153,
        "deltaTime": 24,
        "channel": 9,
        "note": 42,
        "velocity": 0
      },
      {
        "type": "midi",
        "subType": "noteOn",
        "typeByte": 153,
        "deltaTime": 24,
        "channel": 9,
        "note": 36,
        "velocity": 127
      },
      {
        "type": "midi",
        "subType": "noteOn",
        "typeByte": 153,
        "deltaTime": 1,
        "channel": 9,
        "note": 38,
        "velocity": 127
      },
      {
        "type": "midi",
        "subType": "noteOn",
        "typeByte": 153,
        "deltaTime": 0,
        "channel": 9,
        "note": 42,
        "velocity": 127
      },
      {
        "type": "midi",
        "subType": "noteOff",
        "typeByte": 153,
        "deltaTime": 22,
        "channel": 9,
        "note": 38,
        "velocity": 0
      },
      {
        "type": "midi",
        "subType": "noteOff",
        "typeByte": 153,
        "deltaTime": 0,
        "channel": 9,
        "note": 36,
        "velocity": 0
      },
      {
        "type": "midi",
        "subType": "noteOff",
        "typeByte": 153,
        "deltaTime": 2,
        "channel": 9,
        "note": 42,
        "velocity": 0
      },
      {
        "type": "midi",
        "subType": "noteOn",
        "typeByte": 153,
        "deltaTime": 23,
        "channel": 9,
        "note": 42,
        "velocity": 127
      },
      {
        "type": "midi",
        "subType": "noteOff",
        "typeByte": 153,
        "deltaTime": 24,
        "channel": 9,
        "note": 42,
        "velocity": 0
      },
      {
        "type": "midi",
        "subType": "noteOn",
        "typeByte": 153,
        "deltaTime": 25,
        "channel": 9,
        "note": 36,
        "velocity": 127
      },
      {
        "type": "midi",
        "subType": "noteOn",
        "typeByte": 153,
        "deltaTime": 0,
        "channel": 9,
        "note": 42,
        "velocity": 127
      },
      {
        "type": "midi",
        "subType": "noteOff",
        "typeByte": 153,
        "deltaTime": 23,
        "channel": 9,
        "note": 36,
        "velocity": 0
      },
      {
        "type": "midi",
        "subType": "noteOff",
        "typeByte": 153,
        "deltaTime": 1,
        "channel": 9,
        "note": 42,
        "velocity": 0
      },
      {
        "type": "midi",
        "subType": "noteOn",
        "typeByte": 153,
        "deltaTime": 23,
        "channel": 9,
        "note": 42,
        "velocity": 127
      },
      {
        "type": "midi",
        "subType": "noteOff",
        "typeByte": 153,
        "deltaTime": 26,
        "channel": 9,
        "note": 42,
        "velocity": 0
      },
      {
        "type": "midi",
        "subType": "noteOn",
        "typeByte": 153,
        "deltaTime": 23,
        "channel": 9,
        "note": 38,
        "velocity": 127
      },
      {
        "type": "midi",
        "subType": "noteOn",
        "typeByte": 153,
        "deltaTime": 0,
        "channel": 9,
        "note": 36,
        "velocity": 127
      },
      {
        "type": "midi",
        "subType": "noteOn",
        "typeByte": 153,
        "deltaTime": 0,
        "channel": 9,
        "note": 42,
        "velocity": 127
      },
      {
        "type": "midi",
        "subType": "noteOff",
        "typeByte": 153,
        "deltaTime": 23,
        "channel": 9,
        "note": 42,
        "velocity": 0
      },
      {
        "type": "midi",
        "subType": "noteOff",
        "typeByte": 153,
        "deltaTime": 0,
        "channel": 9,
        "note": 36,
        "velocity": 0
      },
      {
        "type": "midi",
        "subType": "noteOff",
        "typeByte": 153,
        "deltaTime": 0,
        "channel": 9,
        "note": 38,
        "velocity": 0
      },
      {
        "type": "midi",
        "subType": "noteOn",
        "typeByte": 153,
        "deltaTime": 24,
        "channel": 9,
        "note": 42,
        "velocity": 127
      },
      {
        "type": "midi",
        "subType": "noteOff",
        "typeByte": 153,
        "deltaTime": 23,
        "channel": 9,
        "note": 42,
        "velocity": 0
      },
      {
        "type": "midi",
        "subType": "noteOn",
        "typeByte": 153,
        "deltaTime": 26,
        "channel": 9,
        "note": 36,
        "velocity": 127
      },
      {
        "type": "midi",
        "subType": "noteOn",
        "typeByte": 153,
        "deltaTime": 0,
        "channel": 9,
        "note": 42,
        "velocity": 127
      },
      {
        "type": "midi",
        "subType": "noteOff",
        "typeByte": 153,
        "deltaTime": 23,
        "channel": 9,
        "note": 42,
        "velocity": 0
      },
      {
        "type": "midi",
        "subType": "noteOff",
        "typeByte": 153,
        "deltaTime": 0,
        "channel": 9,
        "note": 36,
        "velocity": 0
      },
      {
        "type": "midi",
        "subType": "noteOn",
        "typeByte": 153,
        "deltaTime": 25,
        "channel": 9,
        "note": 42,
        "velocity": 127
      },
      {
        "type": "midi",
        "subType": "noteOff",
        "typeByte": 153,
        "deltaTime": 21,
        "channel": 9,
        "note": 42,
        "velocity": 0
      },
      {
        "type": "midi",
        "subType": "noteOn",
        "typeByte": 153,
        "deltaTime": 28,
        "channel": 9,
        "note": 38,
        "velocity": 127
      },
      {
        "type": "midi",
        "subType": "noteOn",
        "typeByte": 153,
        "deltaTime": 0,
        "channel": 9,
        "note": 36,
        "velocity": 127
      },
      {
        "type": "midi",
        "subType": "noteOn",
        "typeByte": 153,
        "deltaTime": 0,
        "channel": 9,
        "note": 42,
        "velocity": 127
      },
      {
        "type": "midi",
        "subType": "noteOff",
        "typeByte": 153,
        "deltaTime": 23,
        "channel": 9,
        "note": 42,
        "velocity": 0
      },
      {
        "type": "midi",
        "subType": "noteOff",
        "typeByte": 153,
        "deltaTime": 0,
        "channel": 9,
        "note": 36,
        "velocity": 0
      },
      {
        "type": "midi",
        "subType": "noteOff",
        "typeByte": 153,
        "deltaTime": 0,
        "channel": 9,
        "note": 38,
        "velocity": 0
      },
      {
        "type": "midi",
        "subType": "noteOn",
        "typeByte": 153,
        "deltaTime": 24,
        "channel": 9,
        "note": 42,
        "velocity": 127
      },
      {
        "type": "midi",
        "subType": "noteOff",
        "typeByte": 153,
        "deltaTime": 22,
        "channel": 9,
        "note": 42,
        "velocity": 0
      },
      {
        "type": "midi",
        "subType": "noteOn",
        "typeByte": 153,
        "deltaTime": 27,
        "channel": 9,
        "note": 36,
        "velocity": 127
      },
      {
        "type": "midi",
        "subType": "noteOn",
        "typeByte": 153,
        "deltaTime": 0,
        "channel": 9,
        "note": 42,
        "velocity": 127
      },
      {
        "type": "midi",
        "subType": "noteOff",
        "typeByte": 153,
        "deltaTime": 17,
        "channel": 9,
        "note": 42,
        "velocity": 0
      },
      {
        "type": "midi",
        "subType": "noteOff",
        "typeByte": 153,
        "deltaTime": 6,
        "channel": 9,
        "note": 36,
        "velocity": 0
      },
      {
        "type": "midi",
        "subType": "noteOn",
        "typeByte": 153,
        "deltaTime": 24,
        "channel": 9,
        "note": 42,
        "velocity": 127
      },
      {
        "type": "midi",
        "subType": "noteOff",
        "typeByte": 153,
        "deltaTime": 18,
        "channel": 9,
        "note": 42,
        "velocity": 0
      },
      {
        "type": "midi",
        "subType": "noteOn",
        "typeByte": 153,
        "deltaTime": 31,
        "channel": 9,
        "note": 36,
        "velocity": 127
      },
      {
        "type": "midi",
        "subType": "noteOn",
        "typeByte": 153,
        "deltaTime": 0,
        "channel": 9,
        "note": 38,
        "velocity": 127
      },
      {
        "type": "midi",
        "subType": "noteOn",
        "typeByte": 153,
        "deltaTime": 1,
        "channel": 9,
        "note": 42,
        "velocity": 127
      },
      {
        "type": "midi",
        "subType": "noteOff",
        "typeByte": 153,
        "deltaTime": 18,
        "channel": 9,
        "note": 42,
        "velocity": 0
      },
      {
        "type": "midi",
        "subType": "noteOff",
        "typeByte": 153,
        "deltaTime": 4,
        "channel": 9,
        "note": 38,
        "velocity": 0
      },
      {
        "type": "midi",
        "subType": "noteOff",
        "typeByte": 153,
        "deltaTime": 0,
        "channel": 9,
        "note": 36,
        "velocity": 0
      },
      {
        "type": "midi",
        "subType": "noteOn",
        "typeByte": 153,
        "deltaTime": 25,
        "channel": 9,
        "note": 42,
        "velocity": 127
      },
      {
        "type": "midi",
        "subType": "noteOff",
        "typeByte": 153,
        "deltaTime": 13,
        "channel": 9,
        "note": 42,
        "velocity": 0
      },
      {
        "type": "midi",
        "subType": "noteOn",
        "typeByte": 153,
        "deltaTime": 35,
        "channel": 9,
        "note": 36,
        "velocity": 127
      },
      {
        "type": "midi",
        "subType": "noteOn",
        "typeByte": 153,
        "deltaTime": 1,
        "channel": 9,
        "note": 42,
        "velocity": 127
      },
      {
        "type": "midi",
        "subType": "noteOff",
        "typeByte": 153,
        "deltaTime": 20,
        "channel": 9,
        "note": 42,
        "velocity": 0
      },
      {
        "type": "midi",
        "subType": "noteOff",
        "typeByte": 153,
        "deltaTime": 2,
        "channel": 9,
        "note": 36,
        "velocity": 0
      },
      {
        "type": "midi",
        "subType": "noteOn",
        "typeByte": 153,
        "deltaTime": 25,
        "channel": 9,
        "note": 42,
        "velocity": 127
      },
      {
        "type": "midi",
        "subType": "noteOff",
        "typeByte": 153,
        "deltaTime": 23,
        "channel": 9,
        "note": 42,
        "velocity": 0
      },
      {
        "type": "midi",
        "subType": "noteOn",
        "typeByte": 153,
        "deltaTime": 26,
        "channel": 9,
        "note": 36,
        "velocity": 127
      },
      {
        "type": "midi",
        "subType": "noteOn",
        "typeByte": 153,
        "deltaTime": 0,
        "channel": 9,
        "note": 38,
        "velocity": 127
      },
      {
        "type": "midi",
        "subType": "noteOn",
        "typeByte": 153,
        "deltaTime": 0,
        "channel": 9,
        "note": 42,
        "velocity": 127
      },
      {
        "type": "midi",
        "subType": "noteOff",
        "typeByte": 153,
        "deltaTime": 23,
        "channel": 9,
        "note": 42,
        "velocity": 0
      },
      {
        "type": "midi",
        "subType": "noteOff",
        "typeByte": 153,
        "deltaTime": 0,
        "channel": 9,
        "note": 38,
        "velocity": 0
      },
      {
        "type": "midi",
        "subType": "noteOff",
        "typeByte": 153,
        "deltaTime": 0,
        "channel": 9,
        "note": 36,
        "velocity": 0
      },
      {
        "type": "midi",
        "subType": "noteOn",
        "typeByte": 153,
        "deltaTime": 24,
        "channel": 9,
        "note": 42,
        "velocity": 127
      },
      {
        "type": "midi",
        "subType": "noteOff",
        "typeByte": 153,
        "deltaTime": 25,
        "channel": 9,
        "note": 42,
        "velocity": 0
      },
      {
        "type": "midi",
        "subType": "noteOn",
        "typeByte": 153,
        "deltaTime": 24,
        "channel": 9,
        "note": 36,
        "velocity": 127
      },
      {
        "type": "midi",
        "subType": "noteOn",
        "typeByte": 153,
        "deltaTime": 0,
        "channel": 9,
        "note": 42,
        "velocity": 127
      },
      {
        "type": "midi",
        "subType": "noteOff",
        "typeByte": 153,
        "deltaTime": 23,
        "channel": 9,
        "note": 36,
        "velocity": 0
      },
      {
        "type": "midi",
        "subType": "noteOff",
        "typeByte": 153,
        "deltaTime": 3,
        "channel": 9,
        "note": 42,
        "velocity": 0
      },
      {
        "type": "midi",
        "subType": "noteOn",
        "typeByte": 153,
        "deltaTime": 21,
        "channel": 9,
        "note": 42,
        "velocity": 127
      },
      {
        "type": "midi",
        "subType": "noteOff",
        "typeByte": 153,
        "deltaTime": 23,
        "channel": 9,
        "note": 42,
        "velocity": 0
      },
      {
        "type": "midi",
        "subType": "noteOn",
        "typeByte": 153,
        "deltaTime": 26,
        "channel": 9,
        "note": 36,
        "velocity": 127
      },
      {
        "type": "midi",
        "subType": "noteOn",
        "typeByte": 153,
        "deltaTime": 0,
        "channel": 9,
        "note": 38,
        "velocity": 127
      },
      {
        "type": "midi",
        "subType": "noteOn",
        "typeByte": 153,
        "deltaTime": 1,
        "channel": 9,
        "note": 42,
        "velocity": 127
      },
      {
        "type": "midi",
        "subType": "noteOff",
        "typeByte": 153,
        "deltaTime": 21,
        "channel": 9,
        "note": 42,
        "velocity": 0
      },
      {
        "type": "midi",
        "subType": "noteOff",
        "typeByte": 153,
        "deltaTime": 1,
        "channel": 9,
        "note": 38,
        "velocity": 0
      },
      {
        "type": "midi",
        "subType": "noteOff",
        "typeByte": 153,
        "deltaTime": 0,
        "channel": 9,
        "note": 36,
        "velocity": 0
      },
      {
        "type": "midi",
        "subType": "noteOn",
        "typeByte": 153,
        "deltaTime": 25,
        "channel": 9,
        "note": 42,
        "velocity": 127
      },
      {
        "type": "midi",
        "subType": "noteOff",
        "typeByte": 153,
        "deltaTime": 20,
        "channel": 9,
        "note": 42,
        "velocity": 0
      },
      {
        "type": "midi",
        "subType": "noteOn",
        "typeByte": 153,
        "deltaTime": 29,
        "channel": 9,
        "note": 36,
        "velocity": 127
      },
      {
        "type": "midi",
        "subType": "noteOn",
        "typeByte": 153,
        "deltaTime": 0,
        "channel": 9,
        "note": 42,
        "velocity": 127
      },
      {
        "type": "midi",
        "subType": "noteOff",
        "typeByte": 153,
        "deltaTime": 19,
        "channel": 9,
        "note": 42,
        "velocity": 0
      },
      {
        "type": "midi",
        "subType": "noteOff",
        "typeByte": 153,
        "deltaTime": 4,
        "channel": 9,
        "note": 36,
        "velocity": 0
      },
      {
        "type": "midi",
        "subType": "noteOn",
        "typeByte": 153,
        "deltaTime": 24,
        "channel": 9,
        "note": 42,
        "velocity": 127
      },
      {
        "type": "midi",
        "subType": "noteOff",
        "typeByte": 153,
        "deltaTime": 22,
        "channel": 9,
        "note": 42,
        "velocity": 0
      },
      {
        "type": "midi",
        "subType": "noteOn",
        "typeByte": 153,
        "deltaTime": 27,
        "channel": 9,
        "note": 38,
        "velocity": 127
      },
      {
        "type": "midi",
        "subType": "noteOn",
        "typeByte": 153,
        "deltaTime": 0,
        "channel": 9,
        "note": 36,
        "velocity": 127
      },
      {
        "type": "midi",
        "subType": "noteOn",
        "typeByte": 153,
        "deltaTime": 0,
        "channel": 9,
        "note": 42,
        "velocity": 127
      },
      {
        "type": "midi",
        "subType": "noteOff",
        "typeByte": 153,
        "deltaTime": 23,
        "channel": 9,
        "note": 36,
        "velocity": 0
      },
      {
        "type": "midi",
        "subType": "noteOff",
        "typeByte": 153,
        "deltaTime": 0,
        "channel": 9,
        "note": 38,
        "velocity": 0
      },
      {
        "type": "midi",
        "subType": "noteOff",
        "typeByte": 153,
        "deltaTime": 1,
        "channel": 9,
        "note": 42,
        "velocity": 0
      },
      {
        "type": "midi",
        "subType": "noteOn",
        "typeByte": 153,
        "deltaTime": 23,
        "channel": 9,
        "note": 42,
        "velocity": 127
      },
      {
        "type": "midi",
        "subType": "noteOff",
        "typeByte": 153,
        "deltaTime": 23,
        "channel": 9,
        "note": 42,
        "velocity": 0
      },
      {
        "type": "midi",
        "subType": "noteOn",
        "typeByte": 153,
        "deltaTime": 26,
        "channel": 9,
        "note": 36,
        "velocity": 127
      },
      {
        "type": "midi",
        "subType": "noteOn",
        "typeByte": 153,
        "deltaTime": 0,
        "channel": 9,
        "note": 42,
        "velocity": 127
      },
      {
        "type": "midi",
        "subType": "noteOff",
        "typeByte": 153,
        "deltaTime": 22,
        "channel": 9,
        "note": 42,
        "velocity": 0
      },
      {
        "type": "midi",
        "subType": "noteOff",
        "typeByte": 153,
        "deltaTime": 1,
        "channel": 9,
        "note": 36,
        "velocity": 0
      },
      {
        "type": "midi",
        "subType": "noteOn",
        "typeByte": 153,
        "deltaTime": 25,
        "channel": 9,
        "note": 42,
        "velocity": 127
      },
      {
        "type": "midi",
        "subType": "noteOff",
        "typeByte": 153,
        "deltaTime": 19,
        "channel": 9,
        "note": 42,
        "velocity": 0
      },
      {
        "type": "midi",
        "subType": "noteOn",
        "typeByte": 153,
        "deltaTime": 29,
        "channel": 9,
        "note": 36,
        "velocity": 127
      },
      {
        "type": "midi",
        "subType": "noteOn",
        "typeByte": 153,
        "deltaTime": 0,
        "channel": 9,
        "note": 38,
        "velocity": 127
      },
      {
        "type": "midi",
        "subType": "noteOn",
        "typeByte": 153,
        "deltaTime": 1,
        "channel": 9,
        "note": 42,
        "velocity": 127
      },
      {
        "type": "midi",
        "subType": "noteOff",
        "typeByte": 153,
        "deltaTime": 18,
        "channel": 9,
        "note": 42,
        "velocity": 0
      },
      {
        "type": "midi",
        "subType": "noteOff",
        "typeByte": 153,
        "deltaTime": 4,
        "channel": 9,
        "note": 38,
        "velocity": 0
      },
      {
        "type": "midi",
        "subType": "noteOff",
        "typeByte": 153,
        "deltaTime": 0,
        "channel": 9,
        "note": 36,
        "velocity": 0
      },
      {
        "type": "midi",
        "subType": "noteOn",
        "typeByte": 153,
        "deltaTime": 25,
        "channel": 9,
        "note": 42,
        "velocity": 127
      },
      {
        "type": "midi",
        "subType": "noteOff",
        "typeByte": 153,
        "deltaTime": 19,
        "channel": 9,
        "note": 42,
        "velocity": 0
      },
      {
        "type": "midi",
        "subType": "noteOn",
        "typeByte": 153,
        "deltaTime": 30,
        "channel": 9,
        "note": 36,
        "velocity": 127
      },
      {
        "type": "midi",
        "subType": "noteOn",
        "typeByte": 153,
        "deltaTime": 0,
        "channel": 9,
        "note": 42,
        "velocity": 127
      },
      {
        "type": "midi",
        "subType": "noteOff",
        "typeByte": 153,
        "deltaTime": 19,
        "channel": 9,
        "note": 42,
        "velocity": 0
      },
      {
        "type": "midi",
        "subType": "noteOff",
        "typeByte": 153,
        "deltaTime": 4,
        "channel": 9,
        "note": 36,
        "velocity": 0
      },
      {
        "type": "midi",
        "subType": "noteOn",
        "typeByte": 153,
        "deltaTime": 24,
        "channel": 9,
        "note": 42,
        "velocity": 127
      },
      {
        "type": "midi",
        "subType": "noteOff",
        "typeByte": 153,
        "deltaTime": 22,
        "channel": 9,
        "note": 42,
        "velocity": 0
      },
      {
        "type": "midi",
        "subType": "noteOn",
        "typeByte": 153,
        "deltaTime": 27,
        "channel": 9,
        "note": 38,
        "velocity": 127
      },
      {
        "type": "midi",
        "subType": "noteOn",
        "typeByte": 153,
        "deltaTime": 0,
        "channel": 9,
        "note": 36,
        "velocity": 127
      },
      {
        "type": "midi",
        "subType": "noteOn",
        "typeByte": 153,
        "deltaTime": 1,
        "channel": 9,
        "note": 42,
        "velocity": 127
      },
      {
        "type": "midi",
        "subType": "noteOff",
        "typeByte": 153,
        "deltaTime": 22,
        "channel": 9,
        "note": 36,
        "velocity": 0
      },
      {
        "type": "midi",
        "subType": "noteOff",
        "typeByte": 153,
        "deltaTime": 0,
        "channel": 9,
        "note": 38,
        "velocity": 0
      },
      {
        "type": "midi",
        "subType": "noteOff",
        "typeByte": 153,
        "deltaTime": 1,
        "channel": 9,
        "note": 42,
        "velocity": 0
      },
      {
        "type": "midi",
        "subType": "noteOn",
        "typeByte": 153,
        "deltaTime": 23,
        "channel": 9,
        "note": 42,
        "velocity": 127
      },
      {
        "type": "midi",
        "subType": "noteOff",
        "typeByte": 153,
        "deltaTime": 28,
        "channel": 9,
        "note": 42,
        "velocity": 0
      },
      {
        "type": "midi",
        "subType": "noteOn",
        "typeByte": 153,
        "deltaTime": 21,
        "channel": 9,
        "note": 36,
        "velocity": 127
      },
      {
        "type": "midi",
        "subType": "noteOn",
        "typeByte": 153,
        "deltaTime": 0,
        "channel": 9,
        "note": 42,
        "velocity": 127
      },
      {
        "type": "midi",
        "subType": "noteOff",
        "typeByte": 153,
        "deltaTime": 23,
        "channel": 9,
        "note": 36,
        "velocity": 0
      },
      {
        "type": "midi",
        "subType": "noteOff",
        "typeByte": 153,
        "deltaTime": 11,
        "channel": 9,
        "note": 42,
        "velocity": 0
      },
      {
        "type": "midi",
        "subType": "noteOn",
        "typeByte": 153,
        "deltaTime": 14,
        "channel": 9,
        "note": 42,
        "velocity": 127
      },
      {
        "type": "midi",
        "subType": "noteOff",
        "typeByte": 153,
        "deltaTime": 24,
        "channel": 9,
        "note": 42,
        "velocity": 0
      },
      {
        "type": "midi",
        "subType": "noteOn",
        "typeByte": 153,
        "deltaTime": 25,
        "channel": 9,
        "note": 38,
        "velocity": 127
      },
      {
        "type": "midi",
        "subType": "noteOn",
        "typeByte": 153,
        "deltaTime": 0,
        "channel": 9,
        "note": 36,
        "velocity": 127
      },
      {
        "type": "midi",
        "subType": "noteOn",
        "typeByte": 153,
        "deltaTime": 0,
        "channel": 9,
        "note": 42,
        "velocity": 127
      },
      {
        "type": "midi",
        "subType": "noteOff",
        "typeByte": 153,
        "deltaTime": 19,
        "channel": 9,
        "note": 42,
        "velocity": 0
      },
      {
        "type": "midi",
        "subType": "noteOff",
        "typeByte": 153,
        "deltaTime": 4,
        "channel": 9,
        "note": 36,
        "velocity": 0
      },
      {
        "type": "midi",
        "subType": "noteOff",
        "typeByte": 153,
        "deltaTime": 0,
        "channel": 9,
        "note": 38,
        "velocity": 0
      },
      {
        "type": "midi",
        "subType": "noteOn",
        "typeByte": 153,
        "deltaTime": 24,
        "channel": 9,
        "note": 42,
        "velocity": 127
      },
      {
        "type": "midi",
        "subType": "noteOff",
        "typeByte": 153,
        "deltaTime": 20,
        "channel": 9,
        "note": 42,
        "velocity": 0
      },
      {
        "type": "midi",
        "subType": "noteOn",
        "typeByte": 153,
        "deltaTime": 29,
        "channel": 9,
        "note": 36,
        "velocity": 127
      },
      {
        "type": "midi",
        "subType": "noteOn",
        "typeByte": 153,
        "deltaTime": 0,
        "channel": 9,
        "note": 42,
        "velocity": 127
      },
      {
        "type": "midi",
        "subType": "noteOff",
        "typeByte": 153,
        "deltaTime": 20,
        "channel": 9,
        "note": 42,
        "velocity": 0
      },
      {
        "type": "midi",
        "subType": "noteOff",
        "typeByte": 153,
        "deltaTime": 3,
        "channel": 9,
        "note": 36,
        "velocity": 0
      },
      {
        "type": "midi",
        "subType": "noteOn",
        "typeByte": 153,
        "deltaTime": 24,
        "channel": 9,
        "note": 42,
        "velocity": 127
      },
      {
        "type": "midi",
        "subType": "noteOff",
        "typeByte": 153,
        "deltaTime": 21,
        "channel": 9,
        "note": 42,
        "velocity": 0
      },
      {
        "type": "midi",
        "subType": "noteOn",
        "typeByte": 153,
        "deltaTime": 28,
        "channel": 9,
        "note": 36,
        "velocity": 127
      },
      {
        "type": "midi",
        "subType": "noteOn",
        "typeByte": 153,
        "deltaTime": 0,
        "channel": 9,
        "note": 38,
        "velocity": 127
      },
      {
        "type": "midi",
        "subType": "noteOn",
        "typeByte": 153,
        "deltaTime": 1,
        "channel": 9,
        "note": 42,
        "velocity": 127
      },
      {
        "type": "midi",
        "subType": "noteOff",
        "typeByte": 153,
        "deltaTime": 22,
        "channel": 9,
        "note": 42,
        "velocity": 0
      },
      {
        "type": "midi",
        "subType": "noteOff",
        "typeByte": 153,
        "deltaTime": 0,
        "channel": 9,
        "note": 36,
        "velocity": 0
      },
      {
        "type": "midi",
        "subType": "noteOff",
        "typeByte": 153,
        "deltaTime": 1,
        "channel": 9,
        "note": 38,
        "velocity": 0
      },
      {
        "type": "midi",
        "subType": "noteOn",
        "typeByte": 153,
        "deltaTime": 24,
        "channel": 9,
        "note": 42,
        "velocity": 127
      },
      {
        "type": "midi",
        "subType": "noteOff",
        "typeByte": 153,
        "deltaTime": 23,
        "channel": 9,
        "note": 42,
        "velocity": 0
      },
      {
        "type": "midi",
        "subType": "noteOn",
        "typeByte": 153,
        "deltaTime": 26,
        "channel": 9,
        "note": 36,
        "velocity": 127
      },
      {
        "type": "midi",
        "subType": "noteOn",
        "typeByte": 153,
        "deltaTime": 0,
        "channel": 9,
        "note": 42,
        "velocity": 127
      },
      {
        "type": "midi",
        "subType": "noteOff",
        "typeByte": 153,
        "deltaTime": 23,
        "channel": 9,
        "note": 36,
        "velocity": 0
      },
      {
        "type": "midi",
        "subType": "noteOff",
        "typeByte": 153,
        "deltaTime": 6,
        "channel": 9,
        "note": 42,
        "velocity": 0
      },
      {
        "type": "midi",
        "subType": "noteOn",
        "typeByte": 153,
        "deltaTime": 18,
        "channel": 9,
        "note": 42,
        "velocity": 127
      },
      {
        "type": "midi",
        "subType": "noteOff",
        "typeByte": 153,
        "deltaTime": 23,
        "channel": 9,
        "note": 42,
        "velocity": 0
      },
      {
        "type": "midi",
        "subType": "noteOn",
        "typeByte": 153,
        "deltaTime": 26,
        "channel": 9,
        "note": 36,
        "velocity": 127
      },
      {
        "type": "midi",
        "subType": "noteOn",
        "typeByte": 153,
        "deltaTime": 0,
        "channel": 9,
        "note": 38,
        "velocity": 127
      },
      {
        "type": "midi",
        "subType": "noteOn",
        "typeByte": 153,
        "deltaTime": 0,
        "channel": 9,
        "note": 42,
        "velocity": 127
      },
      {
        "type": "midi",
        "subType": "noteOff",
        "typeByte": 153,
        "deltaTime": 20,
        "channel": 9,
        "note": 42,
        "velocity": 0
      },
      {
        "type": "midi",
        "subType": "noteOff",
        "typeByte": 153,
        "deltaTime": 3,
        "channel": 9,
        "note": 38,
        "velocity": 0
      },
      {
        "type": "midi",
        "subType": "noteOff",
        "typeByte": 153,
        "deltaTime": 0,
        "channel": 9,
        "note": 36,
        "velocity": 0
      },
      {
        "type": "midi",
        "subType": "noteOn",
        "typeByte": 153,
        "deltaTime": 24,
        "channel": 9,
        "note": 42,
        "velocity": 127
      },
      {
        "type": "midi",
        "subType": "noteOff",
        "typeByte": 153,
        "deltaTime": 23,
        "channel": 9,
        "note": 42,
        "velocity": 0
      },
      {
        "type": "midi",
        "subType": "noteOn",
        "typeByte": 153,
        "deltaTime": 26,
        "channel": 9,
        "note": 36,
        "velocity": 127
      },
      {
        "type": "midi",
        "subType": "noteOn",
        "typeByte": 153,
        "deltaTime": 0,
        "channel": 9,
        "note": 42,
        "velocity": 127
      },
      {
        "type": "midi",
        "subType": "noteOff",
        "typeByte": 153,
        "deltaTime": 23,
        "channel": 9,
        "note": 42,
        "velocity": 0
      },
      {
        "type": "midi",
        "subType": "noteOff",
        "typeByte": 153,
        "deltaTime": 0,
        "channel": 9,
        "note": 36,
        "velocity": 0
      },
      {
        "type": "midi",
        "subType": "noteOn",
        "typeByte": 153,
        "deltaTime": 25,
        "channel": 9,
        "note": 42,
        "velocity": 127
      },
      {
        "type": "midi",
        "subType": "noteOff",
        "typeByte": 153,
        "deltaTime": 24,
        "channel": 9,
        "note": 42,
        "velocity": 0
      },
      {
        "type": "midi",
        "subType": "noteOn",
        "typeByte": 153,
        "deltaTime": 24,
        "channel": 9,
        "note": 38,
        "velocity": 127
      },
      {
        "type": "midi",
        "subType": "noteOn",
        "typeByte": 153,
        "deltaTime": 0,
        "channel": 9,
        "note": 36,
        "velocity": 127
      },
      {
        "type": "midi",
        "subType": "noteOn",
        "typeByte": 153,
        "deltaTime": 1,
        "channel": 9,
        "note": 42,
        "velocity": 127
      },
      {
        "type": "midi",
        "subType": "noteOff",
        "typeByte": 153,
        "deltaTime": 20,
        "channel": 9,
        "note": 42,
        "velocity": 0
      },
      {
        "type": "midi",
        "subType": "noteOff",
        "typeByte": 153,
        "deltaTime": 2,
        "channel": 9,
        "note": 38,
        "velocity": 0
      },
      {
        "type": "midi",
        "subType": "noteOff",
        "typeByte": 153,
        "deltaTime": 1,
        "channel": 9,
        "note": 36,
        "velocity": 0
      },
      {
        "type": "midi",
        "subType": "noteOn",
        "typeByte": 153,
        "deltaTime": 24,
        "channel": 9,
        "note": 42,
        "velocity": 127
      },
      {
        "type": "midi",
        "subType": "noteOff",
        "typeByte": 153,
        "deltaTime": 22,
        "channel": 9,
        "note": 42,
        "velocity": 0
      },
      {
        "type": "midi",
        "subType": "noteOn",
        "typeByte": 153,
        "deltaTime": 27,
        "channel": 9,
        "note": 36,
        "velocity": 127
      },
      {
        "type": "midi",
        "subType": "noteOff",
        "typeByte": 153,
        "deltaTime": 23,
        "channel": 9,
        "note": 36,
        "velocity": 0
      },
      {
        "type": "midi",
        "subType": "noteOn",
        "typeByte": 153,
        "deltaTime": 24,
        "channel": 9,
        "note": 36,
        "velocity": 127
      },
      {
        "type": "midi",
        "subType": "noteOff",
        "typeByte": 153,
        "deltaTime": 23,
        "channel": 9,
        "note": 36,
        "velocity": 0
      },
      {
        "type": "midi",
        "subType": "noteOn",
        "typeByte": 153,
        "deltaTime": 26,
        "channel": 9,
        "note": 36,
        "velocity": 127
      },
      {
        "type": "midi",
        "subType": "noteOff",
        "typeByte": 153,
        "deltaTime": 23,
        "channel": 9,
        "note": 36,
        "velocity": 0
      },
      {
        "type": "midi",
        "subType": "noteOn",
        "typeByte": 153,
        "deltaTime": 73,
        "channel": 9,
        "note": 38,
        "velocity": 127
      },
      {
        "type": "midi",
        "subType": "noteOff",
        "typeByte": 153,
        "deltaTime": 23,
        "channel": 9,
        "note": 38,
        "velocity": 0
      },
      {
        "type": "midi",
        "subType": "noteOn",
        "typeByte": 153,
        "deltaTime": 121,
        "channel": 9,
        "note": 36,
        "velocity": 127
      },
      {
        "type": "midi",
        "subType": "noteOff",
        "typeByte": 153,
        "deltaTime": 23,
        "channel": 9,
        "note": 36,
        "velocity": 0
      },
      {
        "type": "midi",
        "subType": "noteOn",
        "typeByte": 153,
        "deltaTime": 26,
        "channel": 9,
        "note": 36,
        "velocity": 127
      },
      {
        "type": "midi",
        "subType": "noteOff",
        "typeByte": 153,
        "deltaTime": 23,
        "channel": 9,
        "note": 36,
        "velocity": 0
      },
      {
        "type": "midi",
        "subType": "noteOn",
        "typeByte": 153,
        "deltaTime": 24,
        "channel": 9,
        "note": 36,
        "velocity": 127
      },
      {
        "type": "midi",
        "subType": "noteOff",
        "typeByte": 153,
        "deltaTime": 23,
        "channel": 9,
        "note": 36,
        "velocity": 0
      },
      {
        "type": "midi",
        "subType": "noteOn",
        "typeByte": 153,
        "deltaTime": 26,
        "channel": 9,
        "note": 36,
        "velocity": 127
      },
      {
        "type": "midi",
        "subType": "noteOff",
        "typeByte": 153,
        "deltaTime": 23,
        "channel": 9,
        "note": 36,
        "velocity": 0
      },
      {
        "type": "midi",
        "subType": "noteOn",
        "typeByte": 153,
        "deltaTime": 73,
        "channel": 9,
        "note": 38,
        "velocity": 127
      },
      {
        "type": "midi",
        "subType": "noteOff",
        "typeByte": 153,
        "deltaTime": 24,
        "channel": 9,
        "note": 38,
        "velocity": 0
      },
      {
        "type": "midi",
        "subType": "noteOn",
        "typeByte": 153,
        "deltaTime": 120,
        "channel": 9,
        "note": 36,
        "velocity": 127
      },
      {
        "type": "midi",
        "subType": "noteOff",
        "typeByte": 153,
        "deltaTime": 23,
        "channel": 9,
        "note": 36,
        "velocity": 0
      },
      {
        "type": "midi",
        "subType": "noteOn",
        "typeByte": 153,
        "deltaTime": 26,
        "channel": 9,
        "note": 36,
        "velocity": 127
      },
      {
        "type": "midi",
        "subType": "noteOff",
        "typeByte": 153,
        "deltaTime": 23,
        "channel": 9,
        "note": 36,
        "velocity": 0
      },
      {
        "type": "midi",
        "subType": "noteOn",
        "typeByte": 153,
        "deltaTime": 24,
        "channel": 9,
        "note": 36,
        "velocity": 127
      },
      {
        "type": "midi",
        "subType": "noteOff",
        "typeByte": 153,
        "deltaTime": 24,
        "channel": 9,
        "note": 36,
        "velocity": 0
      },
      {
        "type": "midi",
        "subType": "noteOn",
        "typeByte": 153,
        "deltaTime": 25,
        "channel": 9,
        "note": 36,
        "velocity": 127
      },
      {
        "type": "midi",
        "subType": "noteOff",
        "typeByte": 153,
        "deltaTime": 23,
        "channel": 9,
        "note": 36,
        "velocity": 0
      },
      {
        "type": "midi",
        "subType": "noteOn",
        "typeByte": 153,
        "deltaTime": 74,
        "channel": 9,
        "note": 38,
        "velocity": 127
      },
      {
        "type": "midi",
        "subType": "noteOff",
        "typeByte": 153,
        "deltaTime": 23,
        "channel": 9,
        "note": 38,
        "velocity": 0
      },
      {
        "type": "midi",
        "subType": "noteOn",
        "typeByte": 153,
        "deltaTime": 73,
        "channel": 9,
        "note": 36,
        "velocity": 127
      },
      {
        "type": "midi",
        "subType": "noteOff",
        "typeByte": 153,
        "deltaTime": 23,
        "channel": 9,
        "note": 36,
        "velocity": 0
      },
      {
        "type": "midi",
        "subType": "noteOn",
        "typeByte": 153,
        "deltaTime": 24,
        "channel": 9,
        "note": 38,
        "velocity": 127
      },
      {
        "type": "midi",
        "subType": "noteOff",
        "typeByte": 153,
        "deltaTime": 23,
        "channel": 9,
        "note": 38,
        "velocity": 0
      },
      {
        "type": "midi",
        "subType": "noteOn",
        "typeByte": 153,
        "deltaTime": 26,
        "channel": 9,
        "note": 36,
        "velocity": 127
      },
      {
        "type": "midi",
        "subType": "noteOff",
        "typeByte": 153,
        "deltaTime": 23,
        "channel": 9,
        "note": 36,
        "velocity": 0
      },
      {
        "type": "midi",
        "subType": "noteOn",
        "typeByte": 153,
        "deltaTime": 25,
        "channel": 9,
        "note": 38,
        "velocity": 127
      },
      {
        "type": "midi",
        "subType": "noteOff",
        "typeByte": 153,
        "deltaTime": 23,
        "channel": 9,
        "note": 38,
        "velocity": 0
      },
      {
        "type": "midi",
        "subType": "noteOn",
        "typeByte": 153,
        "deltaTime": 26,
        "channel": 9,
        "note": 36,
        "velocity": 127
      },
      {
        "type": "midi",
        "subType": "noteOff",
        "typeByte": 153,
        "deltaTime": 23,
        "channel": 9,
        "note": 36,
        "velocity": 0
      },
      {
        "type": "midi",
        "subType": "noteOn",
        "typeByte": 153,
        "deltaTime": 24,
        "channel": 9,
        "note": 38,
        "velocity": 127
      },
      {
        "type": "midi",
        "subType": "noteOff",
        "typeByte": 153,
        "deltaTime": 23,
        "channel": 9,
        "note": 38,
        "velocity": 0
      },
      {
        "type": "midi",
        "subType": "noteOn",
        "typeByte": 153,
        "deltaTime": 26,
        "channel": 9,
        "note": 36,
        "velocity": 127
      },
      {
        "type": "midi",
        "subType": "noteOn",
        "typeByte": 153,
        "deltaTime": 0,
        "channel": 9,
        "note": 38,
        "velocity": 127
      },
      {
        "type": "midi",
        "subType": "noteOff",
        "typeByte": 153,
        "deltaTime": 23,
        "channel": 9,
        "note": 38,
        "velocity": 0
      },
      {
        "type": "midi",
        "subType": "noteOff",
        "typeByte": 153,
        "deltaTime": 0,
        "channel": 9,
        "note": 36,
        "velocity": 0
      },
      {
        "type": "midi",
        "subType": "noteOn",
        "typeByte": 153,
        "deltaTime": 24,
        "channel": 9,
        "note": 38,
        "velocity": 127
      },
      {
        "type": "midi",
        "subType": "noteOff",
        "typeByte": 153,
        "deltaTime": 23,
        "channel": 9,
        "note": 38,
        "velocity": 0
      },
      {
        "type": "midi",
        "subType": "noteOn",
        "typeByte": 153,
        "deltaTime": 26,
        "channel": 9,
        "note": 38,
        "velocity": 127
      },
      {
        "type": "midi",
        "subType": "noteOn",
        "typeByte": 153,
        "deltaTime": 0,
        "channel": 9,
        "note": 36,
        "velocity": 127
      },
      {
        "type": "midi",
        "subType": "noteOff",
        "typeByte": 153,
        "deltaTime": 23,
        "channel": 9,
        "note": 36,
        "velocity": 0
      },
      {
        "type": "midi",
        "subType": "noteOff",
        "typeByte": 153,
        "deltaTime": 0,
        "channel": 9,
        "note": 38,
        "velocity": 0
      },
      {
        "type": "midi",
        "subType": "noteOn",
        "typeByte": 153,
        "deltaTime": 25,
        "channel": 9,
        "note": 38,
        "velocity": 127
      },
      {
        "type": "midi",
        "subType": "noteOn",
        "typeByte": 153,
        "deltaTime": 0,
        "channel": 9,
        "note": 36,
        "velocity": 127
      },
      {
        "type": "midi",
        "subType": "noteOff",
        "typeByte": 153,
        "deltaTime": 23,
        "channel": 9,
        "note": 36,
        "velocity": 0
      },
      {
        "type": "midi",
        "subType": "noteOff",
        "typeByte": 153,
        "deltaTime": 0,
        "channel": 9,
        "note": 38,
        "velocity": 0
      },
      {
        "type": "midi",
        "subType": "noteOn",
        "typeByte": 153,
        "deltaTime": 25,
        "channel": 9,
        "note": 36,
        "velocity": 127
      },
      {
        "type": "midi",
        "subType": "noteOn",
        "typeByte": 153,
        "deltaTime": 0,
        "channel": 9,
        "note": 42,
        "velocity": 127
      },
      {
        "type": "midi",
        "subType": "noteOff",
        "typeByte": 153,
        "deltaTime": 23,
        "channel": 9,
        "note": 36,
        "velocity": 0
      },
      {
        "type": "midi",
        "subType": "noteOff",
        "typeByte": 153,
        "deltaTime": 2,
        "channel": 9,
        "note": 42,
        "velocity": 0
      },
      {
        "type": "midi",
        "subType": "noteOn",
        "typeByte": 153,
        "deltaTime": 23,
        "channel": 9,
        "note": 42,
        "velocity": 127
      },
      {
        "type": "midi",
        "subType": "noteOff",
        "typeByte": 153,
        "deltaTime": 20,
        "channel": 9,
        "note": 42,
        "velocity": 0
      },
      {
        "type": "midi",
        "subType": "noteOn",
        "typeByte": 153,
        "deltaTime": 29,
        "channel": 9,
        "note": 36,
        "velocity": 127
      },
      {
        "type": "midi",
        "subType": "noteOn",
        "typeByte": 153,
        "deltaTime": 0,
        "channel": 9,
        "note": 38,
        "velocity": 127
      },
      {
        "type": "midi",
        "subType": "noteOn",
        "typeByte": 153,
        "deltaTime": 0,
        "channel": 9,
        "note": 42,
        "velocity": 127
      },
      {
        "type": "midi",
        "subType": "noteOff",
        "typeByte": 153,
        "deltaTime": 21,
        "channel": 9,
        "note": 42,
        "velocity": 0
      },
      {
        "type": "midi",
        "subType": "noteOff",
        "typeByte": 153,
        "deltaTime": 2,
        "channel": 9,
        "note": 38,
        "velocity": 0
      },
      {
        "type": "midi",
        "subType": "noteOff",
        "typeByte": 153,
        "deltaTime": 0,
        "channel": 9,
        "note": 36,
        "velocity": 0
      },
      {
        "type": "midi",
        "subType": "noteOn",
        "typeByte": 153,
        "deltaTime": 24,
        "channel": 9,
        "note": 42,
        "velocity": 127
      },
      {
        "type": "midi",
        "subType": "noteOff",
        "typeByte": 153,
        "deltaTime": 23,
        "channel": 9,
        "note": 42,
        "velocity": 0
      },
      {
        "type": "midi",
        "subType": "noteOn",
        "typeByte": 153,
        "deltaTime": 26,
        "channel": 9,
        "note": 36,
        "velocity": 127
      },
      {
        "type": "midi",
        "subType": "noteOn",
        "typeByte": 153,
        "deltaTime": 0,
        "channel": 9,
        "note": 42,
        "velocity": 127
      },
      {
        "type": "midi",
        "subType": "noteOff",
        "typeByte": 153,
        "deltaTime": 23,
        "channel": 9,
        "note": 42,
        "velocity": 0
      },
      {
        "type": "midi",
        "subType": "noteOff",
        "typeByte": 153,
        "deltaTime": 0,
        "channel": 9,
        "note": 36,
        "velocity": 0
      },
      {
        "type": "midi",
        "subType": "noteOn",
        "typeByte": 153,
        "deltaTime": 24,
        "channel": 9,
        "note": 42,
        "velocity": 127
      },
      {
        "type": "midi",
        "subType": "noteOff",
        "typeByte": 153,
        "deltaTime": 26,
        "channel": 9,
        "note": 42,
        "velocity": 0
      },
      {
        "type": "midi",
        "subType": "noteOn",
        "typeByte": 153,
        "deltaTime": 23,
        "channel": 9,
        "note": 36,
        "velocity": 127
      },
      {
        "type": "midi",
        "subType": "noteOn",
        "typeByte": 153,
        "deltaTime": 1,
        "channel": 9,
        "note": 38,
        "velocity": 127
      },
      {
        "type": "midi",
        "subType": "noteOn",
        "typeByte": 153,
        "deltaTime": 0,
        "channel": 9,
        "note": 42,
        "velocity": 127
      },
      {
        "type": "midi",
        "subType": "noteOff",
        "typeByte": 153,
        "deltaTime": 22,
        "channel": 9,
        "note": 36,
        "velocity": 0
      },
      {
        "type": "midi",
        "subType": "noteOff",
        "typeByte": 153,
        "deltaTime": 1,
        "channel": 9,
        "note": 38,
        "velocity": 0
      },
      {
        "type": "midi",
        "subType": "noteOff",
        "typeByte": 153,
        "deltaTime": 1,
        "channel": 9,
        "note": 42,
        "velocity": 0
      },
      {
        "type": "midi",
        "subType": "noteOn",
        "typeByte": 153,
        "deltaTime": 23,
        "channel": 9,
        "note": 42,
        "velocity": 127
      },
      {
        "type": "midi",
        "subType": "noteOff",
        "typeByte": 153,
        "deltaTime": 26,
        "channel": 9,
        "note": 42,
        "velocity": 0
      },
      {
        "type": "midi",
        "subType": "noteOn",
        "typeByte": 153,
        "deltaTime": 23,
        "channel": 9,
        "note": 36,
        "velocity": 127
      },
      {
        "type": "midi",
        "subType": "noteOn",
        "typeByte": 153,
        "deltaTime": 0,
        "channel": 9,
        "note": 42,
        "velocity": 127
      },
      {
        "type": "midi",
        "subType": "noteOff",
        "typeByte": 153,
        "deltaTime": 23,
        "channel": 9,
        "note": 36,
        "velocity": 0
      },
      {
        "type": "midi",
        "subType": "noteOff",
        "typeByte": 153,
        "deltaTime": 4,
        "channel": 9,
        "note": 42,
        "velocity": 0
      },
      {
        "type": "midi",
        "subType": "noteOn",
        "typeByte": 153,
        "deltaTime": 20,
        "channel": 9,
        "note": 42,
        "velocity": 127
      },
      {
        "type": "midi",
        "subType": "noteOff",
        "typeByte": 153,
        "deltaTime": 22,
        "channel": 9,
        "note": 42,
        "velocity": 0
      },
      {
        "type": "midi",
        "subType": "noteOn",
        "typeByte": 153,
        "deltaTime": 27,
        "channel": 9,
        "note": 38,
        "velocity": 127
      },
      {
        "type": "midi",
        "subType": "noteOn",
        "typeByte": 153,
        "deltaTime": 0,
        "channel": 9,
        "note": 36,
        "velocity": 127
      },
      {
        "type": "midi",
        "subType": "noteOn",
        "typeByte": 153,
        "deltaTime": 0,
        "channel": 9,
        "note": 42,
        "velocity": 127
      },
      {
        "type": "midi",
        "subType": "noteOff",
        "typeByte": 153,
        "deltaTime": 23,
        "channel": 9,
        "note": 42,
        "velocity": 0
      },
      {
        "type": "midi",
        "subType": "noteOff",
        "typeByte": 153,
        "deltaTime": 0,
        "channel": 9,
        "note": 36,
        "velocity": 0
      },
      {
        "type": "midi",
        "subType": "noteOff",
        "typeByte": 153,
        "deltaTime": 0,
        "channel": 9,
        "note": 38,
        "velocity": 0
      },
      {
        "type": "midi",
        "subType": "noteOn",
        "typeByte": 153,
        "deltaTime": 24,
        "channel": 9,
        "note": 42,
        "velocity": 127
      },
      {
        "type": "midi",
        "subType": "noteOff",
        "typeByte": 153,
        "deltaTime": 25,
        "channel": 9,
        "note": 42,
        "velocity": 0
      },
      {
        "type": "midi",
        "subType": "noteOn",
        "typeByte": 153,
        "deltaTime": 24,
        "channel": 9,
        "note": 36,
        "velocity": 127
      },
      {
        "type": "midi",
        "subType": "noteOn",
        "typeByte": 153,
        "deltaTime": 0,
        "channel": 9,
        "note": 42,
        "velocity": 127
      },
      {
        "type": "midi",
        "subType": "noteOff",
        "typeByte": 153,
        "deltaTime": 23,
        "channel": 9,
        "note": 36,
        "velocity": 0
      },
      {
        "type": "midi",
        "subType": "noteOff",
        "typeByte": 153,
        "deltaTime": 2,
        "channel": 9,
        "note": 42,
        "velocity": 0
      },
      {
        "type": "midi",
        "subType": "noteOn",
        "typeByte": 153,
        "deltaTime": 23,
        "channel": 9,
        "note": 42,
        "velocity": 127
      },
      {
        "type": "midi",
        "subType": "noteOff",
        "typeByte": 153,
        "deltaTime": 24,
        "channel": 9,
        "note": 42,
        "velocity": 0
      },
      {
        "type": "midi",
        "subType": "noteOn",
        "typeByte": 153,
        "deltaTime": 25,
        "channel": 9,
        "note": 36,
        "velocity": 127
      },
      {
        "type": "midi",
        "subType": "noteOn",
        "typeByte": 153,
        "deltaTime": 0,
        "channel": 9,
        "note": 38,
        "velocity": 127
      },
      {
        "type": "midi",
        "subType": "noteOn",
        "typeByte": 153,
        "deltaTime": 0,
        "channel": 9,
        "note": 42,
        "velocity": 127
      },
      {
        "type": "midi",
        "subType": "noteOff",
        "typeByte": 153,
        "deltaTime": 22,
        "channel": 9,
        "note": 36,
        "velocity": 0
      },
      {
        "type": "midi",
        "subType": "noteOff",
        "typeByte": 153,
        "deltaTime": 1,
        "channel": 9,
        "note": 38,
        "velocity": 0
      },
      {
        "type": "midi",
        "subType": "noteOff",
        "typeByte": 153,
        "deltaTime": 1,
        "channel": 9,
        "note": 42,
        "velocity": 0
      },
      {
        "type": "midi",
        "subType": "noteOn",
        "typeByte": 153,
        "deltaTime": 23,
        "channel": 9,
        "note": 42,
        "velocity": 127
      },
      {
        "type": "midi",
        "subType": "noteOff",
        "typeByte": 153,
        "deltaTime": 26,
        "channel": 9,
        "note": 42,
        "velocity": 0
      },
      {
        "type": "midi",
        "subType": "noteOn",
        "typeByte": 153,
        "deltaTime": 23,
        "channel": 9,
        "note": 36,
        "velocity": 127
      },
      {
        "type": "midi",
        "subType": "noteOn",
        "typeByte": 153,
        "deltaTime": 0,
        "channel": 9,
        "note": 42,
        "velocity": 127
      },
      {
        "type": "midi",
        "subType": "noteOff",
        "typeByte": 153,
        "deltaTime": 23,
        "channel": 9,
        "note": 36,
        "velocity": 0
      },
      {
        "type": "midi",
        "subType": "noteOff",
        "typeByte": 153,
        "deltaTime": 1,
        "channel": 9,
        "note": 42,
        "velocity": 0
      },
      {
        "type": "midi",
        "subType": "noteOn",
        "typeByte": 153,
        "deltaTime": 23,
        "channel": 9,
        "note": 42,
        "velocity": 127
      },
      {
        "type": "midi",
        "subType": "noteOff",
        "typeByte": 153,
        "deltaTime": 26,
        "channel": 9,
        "note": 42,
        "velocity": 0
      },
      {
        "type": "midi",
        "subType": "noteOn",
        "typeByte": 153,
        "deltaTime": 23,
        "channel": 9,
        "note": 38,
        "velocity": 127
      },
      {
        "type": "midi",
        "subType": "noteOn",
        "typeByte": 153,
        "deltaTime": 0,
        "channel": 9,
        "note": 36,
        "velocity": 127
      },
      {
        "type": "midi",
        "subType": "noteOn",
        "typeByte": 153,
        "deltaTime": 1,
        "channel": 9,
        "note": 42,
        "velocity": 127
      },
      {
        "type": "midi",
        "subType": "noteOff",
        "typeByte": 153,
        "deltaTime": 22,
        "channel": 9,
        "note": 42,
        "velocity": 0
      },
      {
        "type": "midi",
        "subType": "noteOff",
        "typeByte": 153,
        "deltaTime": 0,
        "channel": 9,
        "note": 36,
        "velocity": 0
      },
      {
        "type": "midi",
        "subType": "noteOff",
        "typeByte": 153,
        "deltaTime": 0,
        "channel": 9,
        "note": 38,
        "velocity": 0
      },
      {
        "type": "midi",
        "subType": "noteOn",
        "typeByte": 153,
        "deltaTime": 24,
        "channel": 9,
        "note": 42,
        "velocity": 127
      },
      {
        "type": "midi",
        "subType": "noteOff",
        "typeByte": 153,
        "deltaTime": 24,
        "channel": 9,
        "note": 42,
        "velocity": 0
      },
      {
        "type": "midi",
        "subType": "noteOn",
        "typeByte": 153,
        "deltaTime": 25,
        "channel": 9,
        "note": 36,
        "velocity": 127
      },
      {
        "type": "midi",
        "subType": "noteOn",
        "typeByte": 153,
        "deltaTime": 0,
        "channel": 9,
        "note": 42,
        "velocity": 127
      },
      {
        "type": "midi",
        "subType": "noteOff",
        "typeByte": 153,
        "deltaTime": 23,
        "channel": 9,
        "note": 42,
        "velocity": 0
      },
      {
        "type": "midi",
        "subType": "noteOff",
        "typeByte": 153,
        "deltaTime": 0,
        "channel": 9,
        "note": 36,
        "velocity": 0
      },
      {
        "type": "midi",
        "subType": "noteOn",
        "typeByte": 153,
        "deltaTime": 25,
        "channel": 9,
        "note": 42,
        "velocity": 127
      },
      {
        "type": "midi",
        "subType": "noteOff",
        "typeByte": 153,
        "deltaTime": 22,
        "channel": 9,
        "note": 42,
        "velocity": 0
      },
      {
        "type": "midi",
        "subType": "noteOn",
        "typeByte": 153,
        "deltaTime": 27,
        "channel": 9,
        "note": 38,
        "velocity": 127
      },
      {
        "type": "midi",
        "subType": "noteOn",
        "typeByte": 153,
        "deltaTime": 0,
        "channel": 9,
        "note": 36,
        "velocity": 127
      },
      {
        "type": "midi",
        "subType": "noteOn",
        "typeByte": 153,
        "deltaTime": 0,
        "channel": 9,
        "note": 42,
        "velocity": 127
      },
      {
        "type": "midi",
        "subType": "noteOff",
        "typeByte": 153,
        "deltaTime": 23,
        "channel": 9,
        "note": 42,
        "velocity": 0
      },
      {
        "type": "midi",
        "subType": "noteOff",
        "typeByte": 153,
        "deltaTime": 0,
        "channel": 9,
        "note": 36,
        "velocity": 0
      },
      {
        "type": "midi",
        "subType": "noteOff",
        "typeByte": 153,
        "deltaTime": 0,
        "channel": 9,
        "note": 38,
        "velocity": 0
      },
      {
        "type": "midi",
        "subType": "noteOn",
        "typeByte": 153,
        "deltaTime": 24,
        "channel": 9,
        "note": 42,
        "velocity": 127
      },
      {
        "type": "midi",
        "subType": "noteOff",
        "typeByte": 153,
        "deltaTime": 22,
        "channel": 9,
        "note": 42,
        "velocity": 0
      },
      {
        "type": "midi",
        "subType": "noteOn",
        "typeByte": 153,
        "deltaTime": 27,
        "channel": 9,
        "note": 36,
        "velocity": 127
      },
      {
        "type": "midi",
        "subType": "noteOn",
        "typeByte": 153,
        "deltaTime": 0,
        "channel": 9,
        "note": 42,
        "velocity": 127
      },
      {
        "type": "midi",
        "subType": "noteOff",
        "typeByte": 153,
        "deltaTime": 18,
        "channel": 9,
        "note": 42,
        "velocity": 0
      },
      {
        "type": "midi",
        "subType": "noteOff",
        "typeByte": 153,
        "deltaTime": 5,
        "channel": 9,
        "note": 36,
        "velocity": 0
      },
      {
        "type": "midi",
        "subType": "noteOn",
        "typeByte": 153,
        "deltaTime": 24,
        "channel": 9,
        "note": 42,
        "velocity": 127
      },
      {
        "type": "midi",
        "subType": "noteOff",
        "typeByte": 153,
        "deltaTime": 18,
        "channel": 9,
        "note": 42,
        "velocity": 0
      },
      {
        "type": "midi",
        "subType": "noteOn",
        "typeByte": 153,
        "deltaTime": 31,
        "channel": 9,
        "note": 36,
        "velocity": 127
      },
      {
        "type": "midi",
        "subType": "noteOn",
        "typeByte": 153,
        "deltaTime": 1,
        "channel": 9,
        "note": 38,
        "velocity": 127
      },
      {
        "type": "midi",
        "subType": "noteOn",
        "typeByte": 153,
        "deltaTime": 0,
        "channel": 9,
        "note": 42,
        "velocity": 127
      },
      {
        "type": "midi",
        "subType": "noteOff",
        "typeByte": 153,
        "deltaTime": 18,
        "channel": 9,
        "note": 42,
        "velocity": 0
      },
      {
        "type": "midi",
        "subType": "noteOff",
        "typeByte": 153,
        "deltaTime": 4,
        "channel": 9,
        "note": 38,
        "velocity": 0
      },
      {
        "type": "midi",
        "subType": "noteOff",
        "typeByte": 153,
        "deltaTime": 0,
        "channel": 9,
        "note": 36,
        "velocity": 0
      },
      {
        "type": "midi",
        "subType": "noteOn",
        "typeByte": 153,
        "deltaTime": 25,
        "channel": 9,
        "note": 42,
        "velocity": 127
      },
      {
        "type": "midi",
        "subType": "noteOff",
        "typeByte": 153,
        "deltaTime": 13,
        "channel": 9,
        "note": 42,
        "velocity": 0
      },
      {
        "type": "midi",
        "subType": "noteOn",
        "typeByte": 153,
        "deltaTime": 36,
        "channel": 9,
        "note": 36,
        "velocity": 127
      },
      {
        "type": "midi",
        "subType": "noteOn",
        "typeByte": 153,
        "deltaTime": 0,
        "channel": 9,
        "note": 42,
        "velocity": 127
      },
      {
        "type": "midi",
        "subType": "noteOff",
        "typeByte": 153,
        "deltaTime": 20,
        "channel": 9,
        "note": 42,
        "velocity": 0
      },
      {
        "type": "midi",
        "subType": "noteOff",
        "typeByte": 153,
        "deltaTime": 2,
        "channel": 9,
        "note": 36,
        "velocity": 0
      },
      {
        "type": "midi",
        "subType": "noteOn",
        "typeByte": 153,
        "deltaTime": 25,
        "channel": 9,
        "note": 42,
        "velocity": 127
      },
      {
        "type": "midi",
        "subType": "noteOff",
        "typeByte": 153,
        "deltaTime": 23,
        "channel": 9,
        "note": 42,
        "velocity": 0
      },
      {
        "type": "midi",
        "subType": "noteOn",
        "typeByte": 153,
        "deltaTime": 26,
        "channel": 9,
        "note": 36,
        "velocity": 127
      },
      {
        "type": "midi",
        "subType": "noteOn",
        "typeByte": 153,
        "deltaTime": 0,
        "channel": 9,
        "note": 38,
        "velocity": 127
      },
      {
        "type": "midi",
        "subType": "noteOn",
        "typeByte": 153,
        "deltaTime": 0,
        "channel": 9,
        "note": 42,
        "velocity": 127
      },
      {
        "type": "midi",
        "subType": "noteOff",
        "typeByte": 153,
        "deltaTime": 23,
        "channel": 9,
        "note": 42,
        "velocity": 0
      },
      {
        "type": "midi",
        "subType": "noteOff",
        "typeByte": 153,
        "deltaTime": 0,
        "channel": 9,
        "note": 38,
        "velocity": 0
      },
      {
        "type": "midi",
        "subType": "noteOff",
        "typeByte": 153,
        "deltaTime": 0,
        "channel": 9,
        "note": 36,
        "velocity": 0
      },
      {
        "type": "midi",
        "subType": "noteOn",
        "typeByte": 153,
        "deltaTime": 24,
        "channel": 9,
        "note": 42,
        "velocity": 127
      },
      {
        "type": "midi",
        "subType": "noteOff",
        "typeByte": 153,
        "deltaTime": 25,
        "channel": 9,
        "note": 42,
        "velocity": 0
      },
      {
        "type": "midi",
        "subType": "noteOn",
        "typeByte": 153,
        "deltaTime": 24,
        "channel": 9,
        "note": 36,
        "velocity": 127
      },
      {
        "type": "midi",
        "subType": "noteOn",
        "typeByte": 153,
        "deltaTime": 0,
        "channel": 9,
        "note": 42,
        "velocity": 127
      },
      {
        "type": "midi",
        "subType": "noteOff",
        "typeByte": 153,
        "deltaTime": 23,
        "channel": 9,
        "note": 36,
        "velocity": 0
      },
      {
        "type": "midi",
        "subType": "noteOff",
        "typeByte": 153,
        "deltaTime": 4,
        "channel": 9,
        "note": 42,
        "velocity": 0
      },
      {
        "type": "midi",
        "subType": "noteOn",
        "typeByte": 153,
        "deltaTime": 21,
        "channel": 9,
        "note": 42,
        "velocity": 127
      },
      {
        "type": "midi",
        "subType": "noteOff",
        "typeByte": 153,
        "deltaTime": 23,
        "channel": 9,
        "note": 42,
        "velocity": 0
      },
      {
        "type": "midi",
        "subType": "noteOn",
        "typeByte": 153,
        "deltaTime": 25,
        "channel": 9,
        "note": 36,
        "velocity": 127
      },
      {
        "type": "midi",
        "subType": "noteOn",
        "typeByte": 153,
        "deltaTime": 0,
        "channel": 9,
        "note": 38,
        "velocity": 127
      },
      {
        "type": "midi",
        "subType": "noteOn",
        "typeByte": 153,
        "deltaTime": 1,
        "channel": 9,
        "note": 42,
        "velocity": 127
      },
      {
        "type": "midi",
        "subType": "noteOff",
        "typeByte": 153,
        "deltaTime": 21,
        "channel": 9,
        "note": 42,
        "velocity": 0
      },
      {
        "type": "midi",
        "subType": "noteOff",
        "typeByte": 153,
        "deltaTime": 1,
        "channel": 9,
        "note": 36,
        "velocity": 0
      },
      {
        "type": "midi",
        "subType": "noteOff",
        "typeByte": 153,
        "deltaTime": 1,
        "channel": 9,
        "note": 38,
        "velocity": 0
      },
      {
        "type": "midi",
        "subType": "noteOn",
        "typeByte": 153,
        "deltaTime": 24,
        "channel": 9,
        "note": 42,
        "velocity": 127
      },
      {
        "type": "midi",
        "subType": "noteOff",
        "typeByte": 153,
        "deltaTime": 20,
        "channel": 9,
        "note": 42,
        "velocity": 0
      },
      {
        "type": "midi",
        "subType": "noteOn",
        "typeByte": 153,
        "deltaTime": 29,
        "channel": 9,
        "note": 36,
        "velocity": 127
      },
      {
        "type": "midi",
        "subType": "noteOn",
        "typeByte": 153,
        "deltaTime": 0,
        "channel": 9,
        "note": 42,
        "velocity": 127
      },
      {
        "type": "midi",
        "subType": "noteOff",
        "typeByte": 153,
        "deltaTime": 19,
        "channel": 9,
        "note": 42,
        "velocity": 0
      },
      {
        "type": "midi",
        "subType": "noteOff",
        "typeByte": 153,
        "deltaTime": 4,
        "channel": 9,
        "note": 36,
        "velocity": 0
      },
      {
        "type": "midi",
        "subType": "noteOn",
        "typeByte": 153,
        "deltaTime": 24,
        "channel": 9,
        "note": 42,
        "velocity": 127
      },
      {
        "type": "midi",
        "subType": "noteOff",
        "typeByte": 153,
        "deltaTime": 22,
        "channel": 9,
        "note": 42,
        "velocity": 0
      },
      {
        "type": "midi",
        "subType": "noteOn",
        "typeByte": 153,
        "deltaTime": 27,
        "channel": 9,
        "note": 38,
        "velocity": 127
      },
      {
        "type": "midi",
        "subType": "noteOn",
        "typeByte": 153,
        "deltaTime": 0,
        "channel": 9,
        "note": 36,
        "velocity": 127
      },
      {
        "type": "midi",
        "subType": "noteOn",
        "typeByte": 153,
        "deltaTime": 0,
        "channel": 9,
        "note": 42,
        "velocity": 127
      },
      {
        "type": "midi",
        "subType": "noteOff",
        "typeByte": 153,
        "deltaTime": 23,
        "channel": 9,
        "note": 36,
        "velocity": 0
      },
      {
        "type": "midi",
        "subType": "noteOff",
        "typeByte": 153,
        "deltaTime": 0,
        "channel": 9,
        "note": 38,
        "velocity": 0
      },
      {
        "type": "midi",
        "subType": "noteOff",
        "typeByte": 153,
        "deltaTime": 1,
        "channel": 9,
        "note": 42,
        "velocity": 0
      },
      {
        "type": "midi",
        "subType": "noteOn",
        "typeByte": 153,
        "deltaTime": 23,
        "channel": 9,
        "note": 42,
        "velocity": 127
      },
      {
        "type": "midi",
        "subType": "noteOff",
        "typeByte": 153,
        "deltaTime": 24,
        "channel": 9,
        "note": 42,
        "velocity": 0
      },
      {
        "type": "midi",
        "subType": "noteOn",
        "typeByte": 153,
        "deltaTime": 25,
        "channel": 9,
        "note": 36,
        "velocity": 127
      },
      {
        "type": "midi",
        "subType": "noteOn",
        "typeByte": 153,
        "deltaTime": 1,
        "channel": 9,
        "note": 42,
        "velocity": 127
      },
      {
        "type": "midi",
        "subType": "noteOff",
        "typeByte": 153,
        "deltaTime": 21,
        "channel": 9,
        "note": 42,
        "velocity": 0
      },
      {
        "type": "midi",
        "subType": "noteOff",
        "typeByte": 153,
        "deltaTime": 1,
        "channel": 9,
        "note": 36,
        "velocity": 0
      },
      {
        "type": "midi",
        "subType": "noteOn",
        "typeByte": 153,
        "deltaTime": 25,
        "channel": 9,
        "note": 42,
        "velocity": 127
      },
      {
        "type": "midi",
        "subType": "noteOff",
        "typeByte": 153,
        "deltaTime": 19,
        "channel": 9,
        "note": 42,
        "velocity": 0
      },
      {
        "type": "midi",
        "subType": "noteOn",
        "typeByte": 153,
        "deltaTime": 30,
        "channel": 9,
        "note": 36,
        "velocity": 127
      },
      {
        "type": "midi",
        "subType": "noteOn",
        "typeByte": 153,
        "deltaTime": 0,
        "channel": 9,
        "note": 38,
        "velocity": 127
      },
      {
        "type": "midi",
        "subType": "noteOn",
        "typeByte": 153,
        "deltaTime": 0,
        "channel": 9,
        "note": 42,
        "velocity": 127
      },
      {
        "type": "midi",
        "subType": "noteOff",
        "typeByte": 153,
        "deltaTime": 19,
        "channel": 9,
        "note": 42,
        "velocity": 0
      },
      {
        "type": "midi",
        "subType": "noteOff",
        "typeByte": 153,
        "deltaTime": 4,
        "channel": 9,
        "note": 38,
        "velocity": 0
      },
      {
        "type": "midi",
        "subType": "noteOff",
        "typeByte": 153,
        "deltaTime": 0,
        "channel": 9,
        "note": 36,
        "velocity": 0
      },
      {
        "type": "midi",
        "subType": "noteOn",
        "typeByte": 153,
        "deltaTime": 24,
        "channel": 9,
        "note": 42,
        "velocity": 127
      },
      {
        "type": "midi",
        "subType": "noteOff",
        "typeByte": 153,
        "deltaTime": 19,
        "channel": 9,
        "note": 42,
        "velocity": 0
      },
      {
        "type": "midi",
        "subType": "noteOn",
        "typeByte": 153,
        "deltaTime": 30,
        "channel": 9,
        "note": 36,
        "velocity": 127
      },
      {
        "type": "midi",
        "subType": "noteOn",
        "typeByte": 153,
        "deltaTime": 0,
        "channel": 9,
        "note": 42,
        "velocity": 127
      },
      {
        "type": "midi",
        "subType": "noteOff",
        "typeByte": 153,
        "deltaTime": 19,
        "channel": 9,
        "note": 42,
        "velocity": 0
      },
      {
        "type": "midi",
        "subType": "noteOff",
        "typeByte": 153,
        "deltaTime": 4,
        "channel": 9,
        "note": 36,
        "velocity": 0
      },
      {
        "type": "midi",
        "subType": "noteOn",
        "typeByte": 153,
        "deltaTime": 24,
        "channel": 9,
        "note": 42,
        "velocity": 127
      },
      {
        "type": "midi",
        "subType": "noteOff",
        "typeByte": 153,
        "deltaTime": 22,
        "channel": 9,
        "note": 42,
        "velocity": 0
      },
      {
        "type": "midi",
        "subType": "noteOn",
        "typeByte": 153,
        "deltaTime": 27,
        "channel": 9,
        "note": 38,
        "velocity": 127
      },
      {
        "type": "midi",
        "subType": "noteOn",
        "typeByte": 153,
        "deltaTime": 0,
        "channel": 9,
        "note": 36,
        "velocity": 127
      },
      {
        "type": "midi",
        "subType": "noteOn",
        "typeByte": 153,
        "deltaTime": 1,
        "channel": 9,
        "note": 42,
        "velocity": 127
      },
      {
        "type": "midi",
        "subType": "noteOff",
        "typeByte": 153,
        "deltaTime": 22,
        "channel": 9,
        "note": 36,
        "velocity": 0
      },
      {
        "type": "midi",
        "subType": "noteOff",
        "typeByte": 153,
        "deltaTime": 0,
        "channel": 9,
        "note": 38,
        "velocity": 0
      },
      {
        "type": "midi",
        "subType": "noteOff",
        "typeByte": 153,
        "deltaTime": 2,
        "channel": 9,
        "note": 42,
        "velocity": 0
      },
      {
        "type": "midi",
        "subType": "noteOn",
        "typeByte": 153,
        "deltaTime": 23,
        "channel": 9,
        "note": 42,
        "velocity": 127
      },
      {
        "type": "midi",
        "subType": "noteOff",
        "typeByte": 153,
        "deltaTime": 27,
        "channel": 9,
        "note": 42,
        "velocity": 0
      },
      {
        "type": "midi",
        "subType": "noteOn",
        "typeByte": 153,
        "deltaTime": 21,
        "channel": 9,
        "note": 36,
        "velocity": 127
      },
      {
        "type": "midi",
        "subType": "noteOn",
        "typeByte": 153,
        "deltaTime": 1,
        "channel": 9,
        "note": 42,
        "velocity": 127
      },
      {
        "type": "midi",
        "subType": "noteOff",
        "typeByte": 153,
        "deltaTime": 23,
        "channel": 9,
        "note": 36,
        "velocity": 0
      },
      {
        "type": "midi",
        "subType": "noteOff",
        "typeByte": 153,
        "deltaTime": 10,
        "channel": 9,
        "note": 42,
        "velocity": 0
      },
      {
        "type": "midi",
        "subType": "noteOn",
        "typeByte": 153,
        "deltaTime": 14,
        "channel": 9,
        "note": 42,
        "velocity": 127
      },
      {
        "type": "midi",
        "subType": "noteOff",
        "typeByte": 153,
        "deltaTime": 24,
        "channel": 9,
        "note": 42,
        "velocity": 0
      },
      {
        "type": "midi",
        "subType": "noteOn",
        "typeByte": 153,
        "deltaTime": 25,
        "channel": 9,
        "note": 38,
        "velocity": 127
      },
      {
        "type": "midi",
        "subType": "noteOn",
        "typeByte": 153,
        "deltaTime": 0,
        "channel": 9,
        "note": 36,
        "velocity": 127
      },
      {
        "type": "midi",
        "subType": "noteOn",
        "typeByte": 153,
        "deltaTime": 0,
        "channel": 9,
        "note": 42,
        "velocity": 127
      },
      {
        "type": "midi",
        "subType": "noteOff",
        "typeByte": 153,
        "deltaTime": 19,
        "channel": 9,
        "note": 42,
        "velocity": 0
      },
      {
        "type": "midi",
        "subType": "noteOff",
        "typeByte": 153,
        "deltaTime": 4,
        "channel": 9,
        "note": 36,
        "velocity": 0
      },
      {
        "type": "midi",
        "subType": "noteOff",
        "typeByte": 153,
        "deltaTime": 0,
        "channel": 9,
        "note": 38,
        "velocity": 0
      },
      {
        "type": "midi",
        "subType": "noteOn",
        "typeByte": 153,
        "deltaTime": 24,
        "channel": 9,
        "note": 42,
        "velocity": 127
      },
      {
        "type": "midi",
        "subType": "noteOff",
        "typeByte": 153,
        "deltaTime": 21,
        "channel": 9,
        "note": 42,
        "velocity": 0
      },
      {
        "type": "midi",
        "subType": "noteOn",
        "typeByte": 153,
        "deltaTime": 28,
        "channel": 9,
        "note": 36,
        "velocity": 127
      },
      {
        "type": "midi",
        "subType": "noteOn",
        "typeByte": 153,
        "deltaTime": 0,
        "channel": 9,
        "note": 42,
        "velocity": 127
      },
      {
        "type": "midi",
        "subType": "noteOff",
        "typeByte": 153,
        "deltaTime": 20,
        "channel": 9,
        "note": 42,
        "velocity": 0
      },
      {
        "type": "midi",
        "subType": "noteOff",
        "typeByte": 153,
        "deltaTime": 3,
        "channel": 9,
        "note": 36,
        "velocity": 0
      },
      {
        "type": "midi",
        "subType": "noteOn",
        "typeByte": 153,
        "deltaTime": 25,
        "channel": 9,
        "note": 42,
        "velocity": 127
      },
      {
        "type": "midi",
        "subType": "noteOff",
        "typeByte": 153,
        "deltaTime": 20,
        "channel": 9,
        "note": 42,
        "velocity": 0
      },
      {
        "type": "midi",
        "subType": "noteOn",
        "typeByte": 153,
        "deltaTime": 28,
        "channel": 9,
        "note": 36,
        "velocity": 127
      },
      {
        "type": "midi",
        "subType": "noteOn",
        "typeByte": 153,
        "deltaTime": 0,
        "channel": 9,
        "note": 38,
        "velocity": 127
      },
      {
        "type": "midi",
        "subType": "noteOn",
        "typeByte": 153,
        "deltaTime": 1,
        "channel": 9,
        "note": 42,
        "velocity": 127
      },
      {
        "type": "midi",
        "subType": "noteOff",
        "typeByte": 153,
        "deltaTime": 22,
        "channel": 9,
        "note": 42,
        "velocity": 0
      },
      {
        "type": "midi",
        "subType": "noteOff",
        "typeByte": 153,
        "deltaTime": 0,
        "channel": 9,
        "note": 36,
        "velocity": 0
      },
      {
        "type": "midi",
        "subType": "noteOff",
        "typeByte": 153,
        "deltaTime": 1,
        "channel": 9,
        "note": 38,
        "velocity": 0
      },
      {
        "type": "midi",
        "subType": "noteOn",
        "typeByte": 153,
        "deltaTime": 24,
        "channel": 9,
        "note": 42,
        "velocity": 127
      },
      {
        "type": "midi",
        "subType": "noteOff",
        "typeByte": 153,
        "deltaTime": 23,
        "channel": 9,
        "note": 42,
        "velocity": 0
      },
      {
        "type": "midi",
        "subType": "noteOn",
        "typeByte": 153,
        "deltaTime": 26,
        "channel": 9,
        "note": 36,
        "velocity": 127
      },
      {
        "type": "midi",
        "subType": "noteOn",
        "typeByte": 153,
        "deltaTime": 0,
        "channel": 9,
        "note": 42,
        "velocity": 127
      },
      {
        "type": "midi",
        "subType": "noteOff",
        "typeByte": 153,
        "deltaTime": 23,
        "channel": 9,
        "note": 36,
        "velocity": 0
      },
      {
        "type": "midi",
        "subType": "noteOff",
        "typeByte": 153,
        "deltaTime": 6,
        "channel": 9,
        "note": 42,
        "velocity": 0
      },
      {
        "type": "midi",
        "subType": "noteOn",
        "typeByte": 153,
        "deltaTime": 18,
        "channel": 9,
        "note": 42,
        "velocity": 127
      },
      {
        "type": "midi",
        "subType": "noteOff",
        "typeByte": 153,
        "deltaTime": 23,
        "channel": 9,
        "note": 42,
        "velocity": 0
      },
      {
        "type": "midi",
        "subType": "noteOn",
        "typeByte": 153,
        "deltaTime": 26,
        "channel": 9,
        "note": 36,
        "velocity": 127
      },
      {
        "type": "midi",
        "subType": "noteOn",
        "typeByte": 153,
        "deltaTime": 0,
        "channel": 9,
        "note": 38,
        "velocity": 127
      },
      {
        "type": "midi",
        "subType": "noteOn",
        "typeByte": 153,
        "deltaTime": 0,
        "channel": 9,
        "note": 42,
        "velocity": 127
      },
      {
        "type": "midi",
        "subType": "noteOff",
        "typeByte": 153,
        "deltaTime": 20,
        "channel": 9,
        "note": 42,
        "velocity": 0
      },
      {
        "type": "midi",
        "subType": "noteOff",
        "typeByte": 153,
        "deltaTime": 3,
        "channel": 9,
        "note": 38,
        "velocity": 0
      },
      {
        "type": "midi",
        "subType": "noteOff",
        "typeByte": 153,
        "deltaTime": 0,
        "channel": 9,
        "note": 36,
        "velocity": 0
      },
      {
        "type": "midi",
        "subType": "noteOn",
        "typeByte": 153,
        "deltaTime": 24,
        "channel": 9,
        "note": 42,
        "velocity": 127
      },
      {
        "type": "midi",
        "subType": "noteOff",
        "typeByte": 153,
        "deltaTime": 23,
        "channel": 9,
        "note": 42,
        "velocity": 0
      },
      {
        "type": "midi",
        "subType": "noteOn",
        "typeByte": 153,
        "deltaTime": 26,
        "channel": 9,
        "note": 36,
        "velocity": 127
      },
      {
        "type": "midi",
        "subType": "noteOn",
        "typeByte": 153,
        "deltaTime": 0,
        "channel": 9,
        "note": 42,
        "velocity": 127
      },
      {
        "type": "midi",
        "subType": "noteOff",
        "typeByte": 153,
        "deltaTime": 23,
        "channel": 9,
        "note": 36,
        "velocity": 0
      },
      {
        "type": "midi",
        "subType": "noteOff",
        "typeByte": 153,
        "deltaTime": 1,
        "channel": 9,
        "note": 42,
        "velocity": 0
      },
      {
        "type": "midi",
        "subType": "noteOn",
        "typeByte": 153,
        "deltaTime": 24,
        "channel": 9,
        "note": 42,
        "velocity": 127
      },
      {
        "type": "midi",
        "subType": "noteOff",
        "typeByte": 153,
        "deltaTime": 24,
        "channel": 9,
        "note": 42,
        "velocity": 0
      },
      {
        "type": "midi",
        "subType": "noteOn",
        "typeByte": 153,
        "deltaTime": 25,
        "channel": 9,
        "note": 38,
        "velocity": 127
      },
      {
        "type": "midi",
        "subType": "noteOn",
        "typeByte": 153,
        "deltaTime": 0,
        "channel": 9,
        "note": 36,
        "velocity": 127
      },
      {
        "type": "midi",
        "subType": "noteOn",
        "typeByte": 153,
        "deltaTime": 0,
        "channel": 9,
        "note": 42,
        "velocity": 127
      },
      {
        "type": "midi",
        "subType": "noteOff",
        "typeByte": 153,
        "deltaTime": 20,
        "channel": 9,
        "note": 42,
        "velocity": 0
      },
      {
        "type": "midi",
        "subType": "noteOff",
        "typeByte": 153,
        "deltaTime": 3,
        "channel": 9,
        "note": 36,
        "velocity": 0
      },
      {
        "type": "midi",
        "subType": "noteOff",
        "typeByte": 153,
        "deltaTime": 0,
        "channel": 9,
        "note": 38,
        "velocity": 0
      },
      {
        "type": "midi",
        "subType": "noteOn",
        "typeByte": 153,
        "deltaTime": 24,
        "channel": 9,
        "note": 42,
        "velocity": 127
      },
      {
        "type": "midi",
        "subType": "noteOff",
        "typeByte": 153,
        "deltaTime": 22,
        "channel": 9,
        "note": 42,
        "velocity": 0
      },
      {
        "type": "midi",
        "subType": "noteOn",
        "typeByte": 153,
        "deltaTime": 27,
        "channel": 9,
        "note": 36,
        "velocity": 127
      },
      {
        "type": "midi",
        "subType": "noteOn",
        "typeByte": 153,
        "deltaTime": 0,
        "channel": 9,
        "note": 42,
        "velocity": 127
      },
      {
        "type": "midi",
        "subType": "noteOff",
        "typeByte": 153,
        "deltaTime": 23,
        "channel": 9,
        "note": 36,
        "velocity": 0
      },
      {
        "type": "midi",
        "subType": "noteOff",
        "typeByte": 153,
        "deltaTime": 1,
        "channel": 9,
        "note": 42,
        "velocity": 0
      },
      {
        "type": "midi",
        "subType": "noteOn",
        "typeByte": 153,
        "deltaTime": 23,
        "channel": 9,
        "note": 42,
        "velocity": 127
      },
      {
        "type": "midi",
        "subType": "noteOff",
        "typeByte": 153,
        "deltaTime": 21,
        "channel": 9,
        "note": 42,
        "velocity": 0
      },
      {
        "type": "midi",
        "subType": "noteOn",
        "typeByte": 153,
        "deltaTime": 28,
        "channel": 9,
        "note": 36,
        "velocity": 127
      },
      {
        "type": "midi",
        "subType": "noteOn",
        "typeByte": 153,
        "deltaTime": 0,
        "channel": 9,
        "note": 38,
        "velocity": 127
      },
      {
        "type": "midi",
        "subType": "noteOn",
        "typeByte": 153,
        "deltaTime": 1,
        "channel": 9,
        "note": 42,
        "velocity": 127
      },
      {
        "type": "midi",
        "subType": "noteOff",
        "typeByte": 153,
        "deltaTime": 21,
        "channel": 9,
        "note": 42,
        "velocity": 0
      },
      {
        "type": "midi",
        "subType": "noteOff",
        "typeByte": 153,
        "deltaTime": 1,
        "channel": 9,
        "note": 38,
        "velocity": 0
      },
      {
        "type": "midi",
        "subType": "noteOff",
        "typeByte": 153,
        "deltaTime": 0,
        "channel": 9,
        "note": 36,
        "velocity": 0
      },
      {
        "type": "midi",
        "subType": "noteOn",
        "typeByte": 153,
        "deltaTime": 25,
        "channel": 9,
        "note": 42,
        "velocity": 127
      },
      {
        "type": "midi",
        "subType": "noteOff",
        "typeByte": 153,
        "deltaTime": 23,
        "channel": 9,
        "note": 42,
        "velocity": 0
      },
      {
        "type": "midi",
        "subType": "noteOn",
        "typeByte": 153,
        "deltaTime": 26,
        "channel": 9,
        "note": 36,
        "velocity": 127
      },
      {
        "type": "midi",
        "subType": "noteOn",
        "typeByte": 153,
        "deltaTime": 0,
        "channel": 9,
        "note": 42,
        "velocity": 127
      },
      {
        "type": "midi",
        "subType": "noteOff",
        "typeByte": 153,
        "deltaTime": 22,
        "channel": 9,
        "note": 42,
        "velocity": 0
      },
      {
        "type": "midi",
        "subType": "noteOff",
        "typeByte": 153,
        "deltaTime": 0,
        "channel": 9,
        "note": 36,
        "velocity": 0
      },
      {
        "type": "midi",
        "subType": "noteOn",
        "typeByte": 153,
        "deltaTime": 25,
        "channel": 9,
        "note": 42,
        "velocity": 127
      },
      {
        "type": "midi",
        "subType": "noteOff",
        "typeByte": 153,
        "deltaTime": 26,
        "channel": 9,
        "note": 42,
        "velocity": 0
      },
      {
        "type": "midi",
        "subType": "noteOn",
        "typeByte": 153,
        "deltaTime": 23,
        "channel": 9,
        "note": 36,
        "velocity": 127
      },
      {
        "type": "midi",
        "subType": "noteOn",
        "typeByte": 153,
        "deltaTime": 0,
        "channel": 9,
        "note": 38,
        "velocity": 127
      },
      {
        "type": "midi",
        "subType": "noteOn",
        "typeByte": 153,
        "deltaTime": 0,
        "channel": 9,
        "note": 42,
        "velocity": 127
      },
      {
        "type": "midi",
        "subType": "noteOff",
        "typeByte": 153,
        "deltaTime": 23,
        "channel": 9,
        "note": 38,
        "velocity": 0
      },
      {
        "type": "midi",
        "subType": "noteOff",
        "typeByte": 153,
        "deltaTime": 0,
        "channel": 9,
        "note": 36,
        "velocity": 0
      },
      {
        "type": "midi",
        "subType": "noteOff",
        "typeByte": 153,
        "deltaTime": 1,
        "channel": 9,
        "note": 42,
        "velocity": 0
      },
      {
        "type": "midi",
        "subType": "noteOn",
        "typeByte": 153,
        "deltaTime": 23,
        "channel": 9,
        "note": 42,
        "velocity": 127
      },
      {
        "type": "midi",
        "subType": "noteOff",
        "typeByte": 153,
        "deltaTime": 26,
        "channel": 9,
        "note": 42,
        "velocity": 0
      },
      {
        "type": "midi",
        "subType": "noteOn",
        "typeByte": 153,
        "deltaTime": 23,
        "channel": 9,
        "note": 36,
        "velocity": 127
      },
      {
        "type": "midi",
        "subType": "noteOn",
        "typeByte": 153,
        "deltaTime": 0,
        "channel": 9,
        "note": 42,
        "velocity": 127
      },
      {
        "type": "midi",
        "subType": "noteOff",
        "typeByte": 153,
        "deltaTime": 23,
        "channel": 9,
        "note": 36,
        "velocity": 0
      },
      {
        "type": "midi",
        "subType": "noteOff",
        "typeByte": 153,
        "deltaTime": 4,
        "channel": 9,
        "note": 42,
        "velocity": 0
      },
      {
        "type": "midi",
        "subType": "noteOn",
        "typeByte": 153,
        "deltaTime": 20,
        "channel": 9,
        "note": 42,
        "velocity": 127
      },
      {
        "type": "midi",
        "subType": "noteOff",
        "typeByte": 153,
        "deltaTime": 22,
        "channel": 9,
        "note": 42,
        "velocity": 0
      },
      {
        "type": "midi",
        "subType": "noteOn",
        "typeByte": 153,
        "deltaTime": 27,
        "channel": 9,
        "note": 38,
        "velocity": 127
      },
      {
        "type": "midi",
        "subType": "noteOn",
        "typeByte": 153,
        "deltaTime": 1,
        "channel": 9,
        "note": 36,
        "velocity": 127
      },
      {
        "type": "midi",
        "subType": "noteOn",
        "typeByte": 153,
        "deltaTime": 0,
        "channel": 9,
        "note": 42,
        "velocity": 127
      },
      {
        "type": "midi",
        "subType": "noteOff",
        "typeByte": 153,
        "deltaTime": 22,
        "channel": 9,
        "note": 42,
        "velocity": 0
      },
      {
        "type": "midi",
        "subType": "noteOff",
        "typeByte": 153,
        "deltaTime": 0,
        "channel": 9,
        "note": 38,
        "velocity": 0
      },
      {
        "type": "midi",
        "subType": "noteOff",
        "typeByte": 153,
        "deltaTime": 1,
        "channel": 9,
        "note": 36,
        "velocity": 0
      },
      {
        "type": "midi",
        "subType": "noteOn",
        "typeByte": 153,
        "deltaTime": 24,
        "channel": 9,
        "note": 42,
        "velocity": 127
      },
      {
        "type": "midi",
        "subType": "noteOff",
        "typeByte": 153,
        "deltaTime": 24,
        "channel": 9,
        "note": 42,
        "velocity": 0
      },
      {
        "type": "midi",
        "subType": "noteOn",
        "typeByte": 153,
        "deltaTime": 25,
        "channel": 9,
        "note": 36,
        "velocity": 127
      },
      {
        "type": "midi",
        "subType": "noteOn",
        "typeByte": 153,
        "deltaTime": 0,
        "channel": 9,
        "note": 42,
        "velocity": 127
      },
      {
        "type": "midi",
        "subType": "noteOff",
        "typeByte": 153,
        "deltaTime": 23,
        "channel": 9,
        "note": 36,
        "velocity": 0
      },
      {
        "type": "midi",
        "subType": "noteOff",
        "typeByte": 153,
        "deltaTime": 1,
        "channel": 9,
        "note": 42,
        "velocity": 0
      },
      {
        "type": "midi",
        "subType": "noteOn",
        "typeByte": 153,
        "deltaTime": 23,
        "channel": 9,
        "note": 42,
        "velocity": 127
      },
      {
        "type": "midi",
        "subType": "noteOff",
        "typeByte": 153,
        "deltaTime": 24,
        "channel": 9,
        "note": 42,
        "velocity": 0
      },
      {
        "type": "midi",
        "subType": "noteOn",
        "typeByte": 153,
        "deltaTime": 25,
        "channel": 9,
        "note": 36,
        "velocity": 127
      },
      {
        "type": "midi",
        "subType": "noteOn",
        "typeByte": 153,
        "deltaTime": 0,
        "channel": 9,
        "note": 38,
        "velocity": 127
      },
      {
        "type": "midi",
        "subType": "noteOn",
        "typeByte": 153,
        "deltaTime": 0,
        "channel": 9,
        "note": 42,
        "velocity": 127
      },
      {
        "type": "midi",
        "subType": "noteOff",
        "typeByte": 153,
        "deltaTime": 23,
        "channel": 9,
        "note": 38,
        "velocity": 0
      },
      {
        "type": "midi",
        "subType": "noteOff",
        "typeByte": 153,
        "deltaTime": 0,
        "channel": 9,
        "note": 36,
        "velocity": 0
      },
      {
        "type": "midi",
        "subType": "noteOff",
        "typeByte": 153,
        "deltaTime": 1,
        "channel": 9,
        "note": 42,
        "velocity": 0
      },
      {
        "type": "midi",
        "subType": "noteOn",
        "typeByte": 153,
        "deltaTime": 23,
        "channel": 9,
        "note": 42,
        "velocity": 127
      },
      {
        "type": "midi",
        "subType": "noteOff",
        "typeByte": 153,
        "deltaTime": 26,
        "channel": 9,
        "note": 42,
        "velocity": 0
      },
      {
        "type": "midi",
        "subType": "noteOn",
        "typeByte": 153,
        "deltaTime": 23,
        "channel": 9,
        "note": 36,
        "velocity": 127
      },
      {
        "type": "midi",
        "subType": "noteOn",
        "typeByte": 153,
        "deltaTime": 0,
        "channel": 9,
        "note": 42,
        "velocity": 127
      },
      {
        "type": "midi",
        "subType": "noteOff",
        "typeByte": 153,
        "deltaTime": 23,
        "channel": 9,
        "note": 36,
        "velocity": 0
      },
      {
        "type": "midi",
        "subType": "noteOff",
        "typeByte": 153,
        "deltaTime": 2,
        "channel": 9,
        "note": 42,
        "velocity": 0
      },
      {
        "type": "midi",
        "subType": "noteOn",
        "typeByte": 153,
        "deltaTime": 23,
        "channel": 9,
        "note": 42,
        "velocity": 127
      },
      {
        "type": "midi",
        "subType": "noteOff",
        "typeByte": 153,
        "deltaTime": 25,
        "channel": 9,
        "note": 42,
        "velocity": 0
      },
      {
        "type": "midi",
        "subType": "noteOn",
        "typeByte": 153,
        "deltaTime": 24,
        "channel": 9,
        "note": 38,
        "velocity": 127
      },
      {
        "type": "midi",
        "subType": "noteOn",
        "typeByte": 153,
        "deltaTime": 0,
        "channel": 9,
        "note": 36,
        "velocity": 127
      },
      {
        "type": "midi",
        "subType": "noteOn",
        "typeByte": 153,
        "deltaTime": 0,
        "channel": 9,
        "note": 42,
        "velocity": 127
      },
      {
        "type": "midi",
        "subType": "noteOff",
        "typeByte": 153,
        "deltaTime": 23,
        "channel": 9,
        "note": 42,
        "velocity": 0
      },
      {
        "type": "midi",
        "subType": "noteOff",
        "typeByte": 153,
        "deltaTime": 0,
        "channel": 9,
        "note": 36,
        "velocity": 0
      },
      {
        "type": "midi",
        "subType": "noteOff",
        "typeByte": 153,
        "deltaTime": 0,
        "channel": 9,
        "note": 38,
        "velocity": 0
      },
      {
        "type": "midi",
        "subType": "noteOn",
        "typeByte": 153,
        "deltaTime": 24,
        "channel": 9,
        "note": 42,
        "velocity": 127
      },
      {
        "type": "midi",
        "subType": "noteOff",
        "typeByte": 153,
        "deltaTime": 23,
        "channel": 9,
        "note": 42,
        "velocity": 0
      },
      {
        "type": "midi",
        "subType": "noteOn",
        "typeByte": 153,
        "deltaTime": 26,
        "channel": 9,
        "note": 36,
        "velocity": 127
      },
      {
        "type": "midi",
        "subType": "noteOn",
        "typeByte": 153,
        "deltaTime": 0,
        "channel": 9,
        "note": 42,
        "velocity": 127
      },
      {
        "type": "midi",
        "subType": "noteOff",
        "typeByte": 153,
        "deltaTime": 23,
        "channel": 9,
        "note": 42,
        "velocity": 0
      },
      {
        "type": "midi",
        "subType": "noteOff",
        "typeByte": 153,
        "deltaTime": 0,
        "channel": 9,
        "note": 36,
        "velocity": 0
      },
      {
        "type": "midi",
        "subType": "noteOn",
        "typeByte": 153,
        "deltaTime": 24,
        "channel": 9,
        "note": 42,
        "velocity": 127
      },
      {
        "type": "midi",
        "subType": "noteOff",
        "typeByte": 153,
        "deltaTime": 22,
        "channel": 9,
        "note": 42,
        "velocity": 0
      },
      {
        "type": "midi",
        "subType": "noteOn",
        "typeByte": 153,
        "deltaTime": 27,
        "channel": 9,
        "note": 38,
        "velocity": 127
      },
      {
        "type": "midi",
        "subType": "noteOn",
        "typeByte": 153,
        "deltaTime": 0,
        "channel": 9,
        "note": 36,
        "velocity": 127
      },
      {
        "type": "midi",
        "subType": "noteOn",
        "typeByte": 153,
        "deltaTime": 1,
        "channel": 9,
        "note": 42,
        "velocity": 127
      },
      {
        "type": "midi",
        "subType": "noteOff",
        "typeByte": 153,
        "deltaTime": 22,
        "channel": 9,
        "note": 36,
        "velocity": 0
      },
      {
        "type": "midi",
        "subType": "noteOff",
        "typeByte": 153,
        "deltaTime": 0,
        "channel": 9,
        "note": 38,
        "velocity": 0
      },
      {
        "type": "midi",
        "subType": "noteOff",
        "typeByte": 153,
        "deltaTime": 1,
        "channel": 9,
        "note": 42,
        "velocity": 0
      },
      {
        "type": "midi",
        "subType": "noteOn",
        "typeByte": 153,
        "deltaTime": 24,
        "channel": 9,
        "note": 42,
        "velocity": 127
      },
      {
        "type": "midi",
        "subType": "noteOff",
        "typeByte": 153,
        "deltaTime": 21,
        "channel": 9,
        "note": 42,
        "velocity": 0
      },
      {
        "type": "midi",
        "subType": "noteOn",
        "typeByte": 153,
        "deltaTime": 27,
        "channel": 9,
        "note": 36,
        "velocity": 127
      },
      {
        "type": "midi",
        "subType": "noteOn",
        "typeByte": 153,
        "deltaTime": 0,
        "channel": 9,
        "note": 42,
        "velocity": 127
      },
      {
        "type": "midi",
        "subType": "noteOff",
        "typeByte": 153,
        "deltaTime": 18,
        "channel": 9,
        "note": 42,
        "velocity": 0
      },
      {
        "type": "midi",
        "subType": "noteOff",
        "typeByte": 153,
        "deltaTime": 5,
        "channel": 9,
        "note": 36,
        "velocity": 0
      },
      {
        "type": "midi",
        "subType": "noteOn",
        "typeByte": 153,
        "deltaTime": 25,
        "channel": 9,
        "note": 42,
        "velocity": 127
      },
      {
        "type": "midi",
        "subType": "noteOff",
        "typeByte": 153,
        "deltaTime": 18,
        "channel": 9,
        "note": 42,
        "velocity": 0
      },
      {
        "type": "midi",
        "subType": "noteOn",
        "typeByte": 153,
        "deltaTime": 31,
        "channel": 9,
        "note": 36,
        "velocity": 127
      },
      {
        "type": "midi",
        "subType": "noteOn",
        "typeByte": 153,
        "deltaTime": 0,
        "channel": 9,
        "note": 38,
        "velocity": 127
      },
      {
        "type": "midi",
        "subType": "noteOn",
        "typeByte": 153,
        "deltaTime": 0,
        "channel": 9,
        "note": 42,
        "velocity": 127
      },
      {
        "type": "midi",
        "subType": "noteOff",
        "typeByte": 153,
        "deltaTime": 19,
        "channel": 9,
        "note": 42,
        "velocity": 0
      },
      {
        "type": "midi",
        "subType": "noteOff",
        "typeByte": 153,
        "deltaTime": 4,
        "channel": 9,
        "note": 38,
        "velocity": 0
      },
      {
        "type": "midi",
        "subType": "noteOff",
        "typeByte": 153,
        "deltaTime": 0,
        "channel": 9,
        "note": 36,
        "velocity": 0
      },
      {
        "type": "midi",
        "subType": "noteOn",
        "typeByte": 153,
        "deltaTime": 24,
        "channel": 9,
        "note": 42,
        "velocity": 127
      },
      {
        "type": "midi",
        "subType": "noteOff",
        "typeByte": 153,
        "deltaTime": 14,
        "channel": 9,
        "note": 42,
        "velocity": 0
      },
      {
        "type": "midi",
        "subType": "noteOn",
        "typeByte": 153,
        "deltaTime": 35,
        "channel": 9,
        "note": 36,
        "velocity": 127
      },
      {
        "type": "midi",
        "subType": "noteOn",
        "typeByte": 153,
        "deltaTime": 0,
        "channel": 9,
        "note": 42,
        "velocity": 127
      },
      {
        "type": "midi",
        "subType": "noteOff",
        "typeByte": 153,
        "deltaTime": 20,
        "channel": 9,
        "note": 42,
        "velocity": 0
      },
      {
        "type": "midi",
        "subType": "noteOff",
        "typeByte": 153,
        "deltaTime": 3,
        "channel": 9,
        "note": 36,
        "velocity": 0
      },
      {
        "type": "midi",
        "subType": "noteOn",
        "typeByte": 153,
        "deltaTime": 24,
        "channel": 9,
        "note": 42,
        "velocity": 127
      },
      {
        "type": "midi",
        "subType": "noteOff",
        "typeByte": 153,
        "deltaTime": 24,
        "channel": 9,
        "note": 42,
        "velocity": 0
      },
      {
        "type": "midi",
        "subType": "noteOn",
        "typeByte": 153,
        "deltaTime": 25,
        "channel": 9,
        "note": 36,
        "velocity": 127
      },
      {
        "type": "midi",
        "subType": "noteOn",
        "typeByte": 153,
        "deltaTime": 0,
        "channel": 9,
        "note": 38,
        "velocity": 127
      },
      {
        "type": "midi",
        "subType": "noteOn",
        "typeByte": 153,
        "deltaTime": 1,
        "channel": 9,
        "note": 42,
        "velocity": 127
      },
      {
        "type": "midi",
        "subType": "noteOff",
        "typeByte": 153,
        "deltaTime": 22,
        "channel": 9,
        "note": 36,
        "velocity": 0
      },
      {
        "type": "midi",
        "subType": "noteOff",
        "typeByte": 153,
        "deltaTime": 1,
        "channel": 9,
        "note": 42,
        "velocity": 0
      },
      {
        "type": "midi",
        "subType": "noteOff",
        "typeByte": 153,
        "deltaTime": 0,
        "channel": 9,
        "note": 38,
        "velocity": 0
      },
      {
        "type": "midi",
        "subType": "noteOn",
        "typeByte": 153,
        "deltaTime": 24,
        "channel": 9,
        "note": 42,
        "velocity": 127
      },
      {
        "type": "midi",
        "subType": "noteOff",
        "typeByte": 153,
        "deltaTime": 24,
        "channel": 9,
        "note": 42,
        "velocity": 0
      },
      {
        "type": "midi",
        "subType": "noteOn",
        "typeByte": 153,
        "deltaTime": 25,
        "channel": 9,
        "note": 36,
        "velocity": 127
      },
      {
        "type": "midi",
        "subType": "noteOn",
        "typeByte": 153,
        "deltaTime": 0,
        "channel": 9,
        "note": 42,
        "velocity": 127
      },
      {
        "type": "midi",
        "subType": "noteOff",
        "typeByte": 153,
        "deltaTime": 23,
        "channel": 9,
        "note": 36,
        "velocity": 0
      },
      {
        "type": "midi",
        "subType": "noteOff",
        "typeByte": 153,
        "deltaTime": 1,
        "channel": 9,
        "note": 42,
        "velocity": 0
      },
      {
        "type": "midi",
        "subType": "noteOn",
        "typeByte": 153,
        "deltaTime": 23,
        "channel": 9,
        "note": 42,
        "velocity": 127
      },
      {
        "type": "midi",
        "subType": "noteOff",
        "typeByte": 153,
        "deltaTime": 20,
        "channel": 9,
        "note": 42,
        "velocity": 0
      },
      {
        "type": "midi",
        "subType": "noteOn",
        "typeByte": 153,
        "deltaTime": 29,
        "channel": 9,
        "note": 36,
        "velocity": 127
      },
      {
        "type": "midi",
        "subType": "noteOn",
        "typeByte": 153,
        "deltaTime": 0,
        "channel": 9,
        "note": 38,
        "velocity": 127
      },
      {
        "type": "midi",
        "subType": "noteOn",
        "typeByte": 153,
        "deltaTime": 0,
        "channel": 9,
        "note": 42,
        "velocity": 127
      },
      {
        "type": "midi",
        "subType": "noteOff",
        "typeByte": 153,
        "deltaTime": 22,
        "channel": 9,
        "note": 42,
        "velocity": 0
      },
      {
        "type": "midi",
        "subType": "noteOff",
        "typeByte": 153,
        "deltaTime": 1,
        "channel": 9,
        "note": 38,
        "velocity": 0
      },
      {
        "type": "midi",
        "subType": "noteOff",
        "typeByte": 153,
        "deltaTime": 0,
        "channel": 9,
        "note": 36,
        "velocity": 0
      },
      {
        "type": "midi",
        "subType": "noteOn",
        "typeByte": 153,
        "deltaTime": 24,
        "channel": 9,
        "note": 42,
        "velocity": 127
      },
      {
        "type": "midi",
        "subType": "noteOff",
        "typeByte": 153,
        "deltaTime": 23,
        "channel": 9,
        "note": 42,
        "velocity": 0
      },
      {
        "type": "midi",
        "subType": "noteOn",
        "typeByte": 153,
        "deltaTime": 26,
        "channel": 9,
        "note": 36,
        "velocity": 127
      },
      {
        "type": "midi",
        "subType": "noteOn",
        "typeByte": 153,
        "deltaTime": 0,
        "channel": 9,
        "note": 42,
        "velocity": 127
      },
      {
        "type": "midi",
        "subType": "noteOff",
        "typeByte": 153,
        "deltaTime": 23,
        "channel": 9,
        "note": 42,
        "velocity": 0
      },
      {
        "type": "midi",
        "subType": "noteOff",
        "typeByte": 153,
        "deltaTime": 0,
        "channel": 9,
        "note": 36,
        "velocity": 0
      },
      {
        "type": "midi",
        "subType": "noteOn",
        "typeByte": 153,
        "deltaTime": 25,
        "channel": 9,
        "note": 42,
        "velocity": 127
      },
      {
        "type": "midi",
        "subType": "noteOff",
        "typeByte": 153,
        "deltaTime": 25,
        "channel": 9,
        "note": 42,
        "velocity": 0
      },
      {
        "type": "midi",
        "subType": "noteOn",
        "typeByte": 153,
        "deltaTime": 23,
        "channel": 9,
        "note": 36,
        "velocity": 127
      },
      {
        "type": "midi",
        "subType": "noteOn",
        "typeByte": 153,
        "deltaTime": 0,
        "channel": 9,
        "note": 38,
        "velocity": 127
      },
      {
        "type": "midi",
        "subType": "noteOn",
        "typeByte": 153,
        "deltaTime": 1,
        "channel": 9,
        "note": 42,
        "velocity": 127
      },
      {
        "type": "midi",
        "subType": "noteOff",
        "typeByte": 153,
        "deltaTime": 22,
        "channel": 9,
        "note": 38,
        "velocity": 0
      },
      {
        "type": "midi",
        "subType": "noteOff",
        "typeByte": 153,
        "deltaTime": 0,
        "channel": 9,
        "note": 36,
        "velocity": 0
      },
      {
        "type": "midi",
        "subType": "noteOff",
        "typeByte": 153,
        "deltaTime": 2,
        "channel": 9,
        "note": 42,
        "velocity": 0
      },
      {
        "type": "midi",
        "subType": "noteOn",
        "typeByte": 153,
        "deltaTime": 23,
        "channel": 9,
        "note": 42,
        "velocity": 127
      },
      {
        "type": "midi",
        "subType": "noteOff",
        "typeByte": 153,
        "deltaTime": 26,
        "channel": 9,
        "note": 42,
        "velocity": 0
      },
      {
        "type": "midi",
        "subType": "noteOn",
        "typeByte": 153,
        "deltaTime": 23,
        "channel": 9,
        "note": 36,
        "velocity": 127
      },
      {
        "type": "midi",
        "subType": "noteOn",
        "typeByte": 153,
        "deltaTime": 0,
        "channel": 9,
        "note": 42,
        "velocity": 127
      },
      {
        "type": "midi",
        "subType": "noteOff",
        "typeByte": 153,
        "deltaTime": 23,
        "channel": 9,
        "note": 36,
        "velocity": 0
      },
      {
        "type": "midi",
        "subType": "noteOff",
        "typeByte": 153,
        "deltaTime": 4,
        "channel": 9,
        "note": 42,
        "velocity": 0
      },
      {
        "type": "midi",
        "subType": "noteOn",
        "typeByte": 153,
        "deltaTime": 20,
        "channel": 9,
        "note": 42,
        "velocity": 127
      },
      {
        "type": "midi",
        "subType": "controller",
        "typeByte": 185,
        "deltaTime": 17,
        "channel": 9,
        "controllerType": 7,
        "value": 125
      },
      {
        "type": "midi",
        "subType": "noteOff",
        "typeByte": 153,
        "deltaTime": 5,
        "channel": 9,
        "note": 42,
        "velocity": 0
      },
      {
        "type": "midi",
        "subType": "noteOn",
        "typeByte": 153,
        "deltaTime": 27,
        "channel": 9,
        "note": 38,
        "velocity": 127
      },
      {
        "type": "midi",
        "subType": "noteOn",
        "typeByte": 153,
        "deltaTime": 0,
        "channel": 9,
        "note": 36,
        "velocity": 127
      },
      {
        "type": "midi",
        "subType": "noteOn",
        "typeByte": 153,
        "deltaTime": 1,
        "channel": 9,
        "note": 42,
        "velocity": 127
      },
      {
        "type": "midi",
        "subType": "noteOff",
        "typeByte": 153,
        "deltaTime": 22,
        "channel": 9,
        "note": 42,
        "velocity": 0
      },
      {
        "type": "midi",
        "subType": "noteOff",
        "typeByte": 153,
        "deltaTime": 0,
        "channel": 9,
        "note": 36,
        "velocity": 0
      },
      {
        "type": "midi",
        "subType": "noteOff",
        "typeByte": 153,
        "deltaTime": 0,
        "channel": 9,
        "note": 38,
        "velocity": 0
      },
      {
        "type": "midi",
        "subType": "noteOn",
        "typeByte": 153,
        "deltaTime": 25,
        "channel": 9,
        "note": 42,
        "velocity": 127
      },
      {
        "type": "midi",
        "subType": "noteOff",
        "typeByte": 153,
        "deltaTime": 24,
        "channel": 9,
        "note": 42,
        "velocity": 0
      },
      {
        "type": "midi",
        "subType": "noteOn",
        "typeByte": 153,
        "deltaTime": 24,
        "channel": 9,
        "note": 36,
        "velocity": 127
      },
      {
        "type": "midi",
        "subType": "noteOn",
        "typeByte": 153,
        "deltaTime": 1,
        "channel": 9,
        "note": 42,
        "velocity": 127
      },
      {
        "type": "midi",
        "subType": "noteOff",
        "typeByte": 153,
        "deltaTime": 22,
        "channel": 9,
        "note": 36,
        "velocity": 0
      },
      {
        "type": "midi",
        "subType": "noteOff",
        "typeByte": 153,
        "deltaTime": 2,
        "channel": 9,
        "note": 42,
        "velocity": 0
      },
      {
        "type": "midi",
        "subType": "controller",
        "typeByte": 185,
        "deltaTime": 17,
        "channel": 9,
        "controllerType": 7,
        "value": 124
      },
      {
        "type": "midi",
        "subType": "noteOn",
        "typeByte": 153,
        "deltaTime": 6,
        "channel": 9,
        "note": 42,
        "velocity": 127
      },
      {
        "type": "midi",
        "subType": "noteOff",
        "typeByte": 153,
        "deltaTime": 24,
        "channel": 9,
        "note": 42,
        "velocity": 0
      },
      {
        "type": "midi",
        "subType": "noteOn",
        "typeByte": 153,
        "deltaTime": 25,
        "channel": 9,
        "note": 36,
        "velocity": 127
      },
      {
        "type": "midi",
        "subType": "noteOn",
        "typeByte": 153,
        "deltaTime": 0,
        "channel": 9,
        "note": 38,
        "velocity": 127
      },
      {
        "type": "midi",
        "subType": "noteOn",
        "typeByte": 153,
        "deltaTime": 0,
        "channel": 9,
        "note": 42,
        "velocity": 127
      },
      {
        "type": "midi",
        "subType": "controller",
        "typeByte": 185,
        "deltaTime": 15,
        "channel": 9,
        "controllerType": 7,
        "value": 123
      },
      {
        "type": "midi",
        "subType": "noteOff",
        "typeByte": 153,
        "deltaTime": 8,
        "channel": 9,
        "note": 38,
        "velocity": 0
      },
      {
        "type": "midi",
        "subType": "noteOff",
        "typeByte": 153,
        "deltaTime": 0,
        "channel": 9,
        "note": 36,
        "velocity": 0
      },
      {
        "type": "midi",
        "subType": "noteOff",
        "typeByte": 153,
        "deltaTime": 1,
        "channel": 9,
        "note": 42,
        "velocity": 0
      },
      {
        "type": "midi",
        "subType": "noteOn",
        "typeByte": 153,
        "deltaTime": 23,
        "channel": 9,
        "note": 42,
        "velocity": 127
      },
      {
        "type": "midi",
        "subType": "noteOff",
        "typeByte": 153,
        "deltaTime": 26,
        "channel": 9,
        "note": 42,
        "velocity": 0
      },
      {
        "type": "midi",
        "subType": "noteOn",
        "typeByte": 153,
        "deltaTime": 23,
        "channel": 9,
        "note": 36,
        "velocity": 127
      },
      {
        "type": "midi",
        "subType": "noteOn",
        "typeByte": 153,
        "deltaTime": 0,
        "channel": 9,
        "note": 42,
        "velocity": 127
      },
      {
        "type": "midi",
        "subType": "controller",
        "typeByte": 185,
        "deltaTime": 4,
        "channel": 9,
        "controllerType": 7,
        "value": 122
      },
      {
        "type": "midi",
        "subType": "noteOff",
        "typeByte": 153,
        "deltaTime": 19,
        "channel": 9,
        "note": 36,
        "velocity": 0
      },
      {
        "type": "midi",
        "subType": "noteOff",
        "typeByte": 153,
        "deltaTime": 1,
        "channel": 9,
        "note": 42,
        "velocity": 0
      },
      {
        "type": "midi",
        "subType": "noteOn",
        "typeByte": 153,
        "deltaTime": 23,
        "channel": 9,
        "note": 42,
        "velocity": 127
      },
      {
        "type": "midi",
        "subType": "noteOff",
        "typeByte": 153,
        "deltaTime": 26,
        "channel": 9,
        "note": 42,
        "velocity": 0
      },
      {
        "type": "midi",
        "subType": "controller",
        "typeByte": 185,
        "deltaTime": 18,
        "channel": 9,
        "controllerType": 7,
        "value": 121
      },
      {
        "type": "midi",
        "subType": "noteOn",
        "typeByte": 153,
        "deltaTime": 5,
        "channel": 9,
        "note": 38,
        "velocity": 127
      },
      {
        "type": "midi",
        "subType": "noteOn",
        "typeByte": 153,
        "deltaTime": 0,
        "channel": 9,
        "note": 36,
        "velocity": 127
      },
      {
        "type": "midi",
        "subType": "noteOn",
        "typeByte": 153,
        "deltaTime": 1,
        "channel": 9,
        "note": 42,
        "velocity": 127
      },
      {
        "type": "midi",
        "subType": "noteOff",
        "typeByte": 153,
        "deltaTime": 22,
        "channel": 9,
        "note": 42,
        "velocity": 0
      },
      {
        "type": "midi",
        "subType": "noteOff",
        "typeByte": 153,
        "deltaTime": 0,
        "channel": 9,
        "note": 38,
        "velocity": 0
      },
      {
        "type": "midi",
        "subType": "noteOff",
        "typeByte": 153,
        "deltaTime": 1,
        "channel": 9,
        "note": 36,
        "velocity": 0
      },
      {
        "type": "midi",
        "subType": "noteOn",
        "typeByte": 153,
        "deltaTime": 24,
        "channel": 9,
        "note": 42,
        "velocity": 127
      },
      {
        "type": "midi",
        "subType": "controller",
        "typeByte": 185,
        "deltaTime": 8,
        "channel": 9,
        "controllerType": 7,
        "value": 120
      },
      {
        "type": "midi",
        "subType": "noteOff",
        "typeByte": 153,
        "deltaTime": 15,
        "channel": 9,
        "note": 42,
        "velocity": 0
      },
      {
        "type": "midi",
        "subType": "controller",
        "typeByte": 185,
        "deltaTime": 17,
        "channel": 9,
        "controllerType": 7,
        "value": 119
      },
      {
        "type": "midi",
        "subType": "noteOn",
        "typeByte": 153,
        "deltaTime": 9,
        "channel": 9,
        "note": 36,
        "velocity": 127
      },
      {
        "type": "midi",
        "subType": "noteOn",
        "typeByte": 153,
        "deltaTime": 0,
        "channel": 9,
        "note": 42,
        "velocity": 127
      },
      {
        "type": "midi",
        "subType": "noteOff",
        "typeByte": 153,
        "deltaTime": 23,
        "channel": 9,
        "note": 42,
        "velocity": 0
      },
      {
        "type": "midi",
        "subType": "noteOff",
        "typeByte": 153,
        "deltaTime": 0,
        "channel": 9,
        "note": 36,
        "velocity": 0
      },
      {
        "type": "midi",
        "subType": "noteOn",
        "typeByte": 153,
        "deltaTime": 24,
        "channel": 9,
        "note": 42,
        "velocity": 127
      },
      {
        "type": "midi",
        "subType": "controller",
        "typeByte": 185,
        "deltaTime": 19,
        "channel": 9,
        "controllerType": 7,
        "value": 118
      },
      {
        "type": "midi",
        "subType": "noteOff",
        "typeByte": 153,
        "deltaTime": 3,
        "channel": 9,
        "note": 42,
        "velocity": 0
      },
      {
        "type": "midi",
        "subType": "noteOn",
        "typeByte": 153,
        "deltaTime": 27,
        "channel": 9,
        "note": 38,
        "velocity": 127
      },
      {
        "type": "midi",
        "subType": "noteOn",
        "typeByte": 153,
        "deltaTime": 0,
        "channel": 9,
        "note": 36,
        "velocity": 127
      },
      {
        "type": "midi",
        "subType": "noteOn",
        "typeByte": 153,
        "deltaTime": 0,
        "channel": 9,
        "note": 42,
        "velocity": 127
      },
      {
        "type": "midi",
        "subType": "noteOff",
        "typeByte": 153,
        "deltaTime": 23,
        "channel": 9,
        "note": 42,
        "velocity": 0
      },
      {
        "type": "midi",
        "subType": "noteOff",
        "typeByte": 153,
        "deltaTime": 0,
        "channel": 9,
        "note": 36,
        "velocity": 0
      },
      {
        "type": "midi",
        "subType": "noteOff",
        "typeByte": 153,
        "deltaTime": 0,
        "channel": 9,
        "note": 38,
        "velocity": 0
      },
      {
        "type": "midi",
        "subType": "noteOn",
        "typeByte": 153,
        "deltaTime": 24,
        "channel": 9,
        "note": 42,
        "velocity": 127
      },
      {
        "type": "midi",
        "subType": "controller",
        "typeByte": 185,
        "deltaTime": 3,
        "channel": 9,
        "controllerType": 7,
        "value": 117
      },
      {
        "type": "midi",
        "subType": "noteOff",
        "typeByte": 153,
        "deltaTime": 19,
        "channel": 9,
        "note": 42,
        "velocity": 0
      },
      {
        "type": "midi",
        "subType": "controller",
        "typeByte": 185,
        "deltaTime": 9,
        "channel": 9,
        "controllerType": 7,
        "value": 116
      },
      {
        "type": "midi",
        "subType": "noteOn",
        "typeByte": 153,
        "deltaTime": 18,
        "channel": 9,
        "note": 36,
        "velocity": 127
      },
      {
        "type": "midi",
        "subType": "noteOn",
        "typeByte": 153,
        "deltaTime": 0,
        "channel": 9,
        "note": 42,
        "velocity": 127
      },
      {
        "type": "midi",
        "subType": "noteOff",
        "typeByte": 153,
        "deltaTime": 18,
        "channel": 9,
        "note": 42,
        "velocity": 0
      },
      {
        "type": "midi",
        "subType": "noteOff",
        "typeByte": 153,
        "deltaTime": 5,
        "channel": 9,
        "note": 36,
        "velocity": 0
      },
      {
        "type": "midi",
        "subType": "noteOn",
        "typeByte": 153,
        "deltaTime": 25,
        "channel": 9,
        "note": 42,
        "velocity": 127
      },
      {
        "type": "midi",
        "subType": "controller",
        "typeByte": 185,
        "deltaTime": 10,
        "channel": 9,
        "controllerType": 7,
        "value": 115
      },
      {
        "type": "midi",
        "subType": "noteOff",
        "typeByte": 153,
        "deltaTime": 7,
        "channel": 9,
        "note": 42,
        "velocity": 0
      },
      {
        "type": "midi",
        "subType": "controller",
        "typeByte": 185,
        "deltaTime": 26,
        "channel": 9,
        "controllerType": 7,
        "value": 114
      },
      {
        "type": "midi",
        "subType": "noteOn",
        "typeByte": 153,
        "deltaTime": 5,
        "channel": 9,
        "note": 38,
        "velocity": 127
      },
      {
        "type": "midi",
        "subType": "noteOn",
        "typeByte": 153,
        "deltaTime": 1,
        "channel": 9,
        "note": 36,
        "velocity": 127
      },
      {
        "type": "midi",
        "subType": "noteOn",
        "typeByte": 153,
        "deltaTime": 0,
        "channel": 9,
        "note": 42,
        "velocity": 127
      },
      {
        "type": "midi",
        "subType": "noteOff",
        "typeByte": 153,
        "deltaTime": 18,
        "channel": 9,
        "note": 42,
        "velocity": 0
      },
      {
        "type": "midi",
        "subType": "noteOff",
        "typeByte": 153,
        "deltaTime": 4,
        "channel": 9,
        "note": 38,
        "velocity": 0
      },
      {
        "type": "midi",
        "subType": "noteOff",
        "typeByte": 153,
        "deltaTime": 1,
        "channel": 9,
        "note": 36,
        "velocity": 0
      },
      {
        "type": "midi",
        "subType": "noteOn",
        "typeByte": 153,
        "deltaTime": 24,
        "channel": 9,
        "note": 42,
        "velocity": 127
      },
      {
        "type": "midi",
        "subType": "controller",
        "typeByte": 185,
        "deltaTime": 4,
        "channel": 9,
        "controllerType": 7,
        "value": 113
      },
      {
        "type": "midi",
        "subType": "noteOff",
        "typeByte": 153,
        "deltaTime": 11,
        "channel": 9,
        "note": 42,
        "velocity": 0
      },
      {
        "type": "midi",
        "subType": "controller",
        "typeByte": 185,
        "deltaTime": 21,
        "channel": 9,
        "controllerType": 7,
        "value": 112
      },
      {
        "type": "midi",
        "subType": "noteOn",
        "typeByte": 153,
        "deltaTime": 13,
        "channel": 9,
        "note": 36,
        "velocity": 127
      },
      {
        "type": "midi",
        "subType": "noteOn",
        "typeByte": 153,
        "deltaTime": 0,
        "channel": 9,
        "note": 42,
        "velocity": 127
      },
      {
        "type": "midi",
        "subType": "controller",
        "typeByte": 185,
        "deltaTime": 9,
        "channel": 9,
        "controllerType": 7,
        "value": 111
      },
      {
        "type": "midi",
        "subType": "noteOff",
        "typeByte": 153,
        "deltaTime": 11,
        "channel": 9,
        "note": 42,
        "velocity": 0
      },
      {
        "type": "midi",
        "subType": "noteOff",
        "typeByte": 153,
        "deltaTime": 3,
        "channel": 9,
        "note": 36,
        "velocity": 0
      },
      {
        "type": "midi",
        "subType": "noteOn",
        "typeByte": 153,
        "deltaTime": 24,
        "channel": 9,
        "note": 42,
        "velocity": 127
      },
      {
        "type": "midi",
        "subType": "noteOff",
        "typeByte": 153,
        "deltaTime": 23,
        "channel": 9,
        "note": 42,
        "velocity": 0
      },
      {
        "type": "midi",
        "subType": "controller",
        "typeByte": 185,
        "deltaTime": 11,
        "channel": 9,
        "controllerType": 7,
        "value": 110
      },
      {
        "type": "midi",
        "subType": "noteOn",
        "typeByte": 153,
        "deltaTime": 15,
        "channel": 9,
        "note": 38,
        "velocity": 127
      },
      {
        "type": "midi",
        "subType": "noteOn",
        "typeByte": 153,
        "deltaTime": 0,
        "channel": 9,
        "note": 36,
        "velocity": 127
      },
      {
        "type": "midi",
        "subType": "noteOn",
        "typeByte": 153,
        "deltaTime": 0,
        "channel": 9,
        "note": 42,
        "velocity": 127
      },
      {
        "type": "midi",
        "subType": "noteOff",
        "typeByte": 153,
        "deltaTime": 23,
        "channel": 9,
        "note": 42,
        "velocity": 0
      },
      {
        "type": "midi",
        "subType": "noteOff",
        "typeByte": 153,
        "deltaTime": 0,
        "channel": 9,
        "note": 36,
        "velocity": 0
      },
      {
        "type": "midi",
        "subType": "noteOff",
        "typeByte": 153,
        "deltaTime": 0,
        "channel": 9,
        "note": 38,
        "velocity": 0
      },
      {
        "type": "midi",
        "subType": "controller",
        "typeByte": 185,
        "deltaTime": 8,
        "channel": 9,
        "controllerType": 7,
        "value": 109
      },
      {
        "type": "midi",
        "subType": "noteOn",
        "typeByte": 153,
        "deltaTime": 16,
        "channel": 9,
        "note": 42,
        "velocity": 127
      },
      {
        "type": "midi",
        "subType": "controller",
        "typeByte": 185,
        "deltaTime": 14,
        "channel": 9,
        "controllerType": 7,
        "value": 108
      },
      {
        "type": "midi",
        "subType": "noteOff",
        "typeByte": 153,
        "deltaTime": 11,
        "channel": 9,
        "note": 42,
        "velocity": 0
      },
      {
        "type": "midi",
        "subType": "controller",
        "typeByte": 185,
        "deltaTime": 20,
        "channel": 9,
        "controllerType": 7,
        "value": 107
      },
      {
        "type": "midi",
        "subType": "noteOn",
        "typeByte": 153,
        "deltaTime": 4,
        "channel": 9,
        "note": 36,
        "velocity": 127
      },
      {
        "type": "midi",
        "subType": "noteOn",
        "typeByte": 153,
        "deltaTime": 0,
        "channel": 9,
        "note": 42,
        "velocity": 127
      },
      {
        "type": "midi",
        "subType": "noteOff",
        "typeByte": 153,
        "deltaTime": 23,
        "channel": 9,
        "note": 36,
        "velocity": 0
      },
      {
        "type": "midi",
        "subType": "noteOff",
        "typeByte": 153,
        "deltaTime": 4,
        "channel": 9,
        "note": 42,
        "velocity": 0
      },
      {
        "type": "midi",
        "subType": "controller",
        "typeByte": 185,
        "deltaTime": 21,
        "channel": 9,
        "controllerType": 7,
        "value": 106
      },
      {
        "type": "midi",
        "subType": "noteOn",
        "typeByte": 153,
        "deltaTime": 0,
        "channel": 9,
        "note": 42,
        "velocity": 127
      },
      {
        "type": "midi",
        "subType": "noteOff",
        "typeByte": 153,
        "deltaTime": 23,
        "channel": 9,
        "note": 42,
        "velocity": 0
      },
      {
        "type": "midi",
        "subType": "controller",
        "typeByte": 185,
        "deltaTime": 5,
        "channel": 9,
        "controllerType": 7,
        "value": 105
      },
      {
        "type": "midi",
        "subType": "noteOn",
        "typeByte": 153,
        "deltaTime": 21,
        "channel": 9,
        "note": 36,
        "velocity": 127
      },
      {
        "type": "midi",
        "subType": "noteOn",
        "typeByte": 153,
        "deltaTime": 0,
        "channel": 9,
        "note": 38,
        "velocity": 127
      },
      {
        "type": "midi",
        "subType": "noteOn",
        "typeByte": 153,
        "deltaTime": 0,
        "channel": 9,
        "note": 42,
        "velocity": 127
      },
      {
        "type": "midi",
        "subType": "noteOff",
        "typeByte": 153,
        "deltaTime": 21,
        "channel": 9,
        "note": 42,
        "velocity": 0
      },
      {
        "type": "midi",
        "subType": "noteOff",
        "typeByte": 153,
        "deltaTime": 2,
        "channel": 9,
        "note": 38,
        "velocity": 0
      },
      {
        "type": "midi",
        "subType": "noteOff",
        "typeByte": 153,
        "deltaTime": 0,
        "channel": 9,
        "note": 36,
        "velocity": 0
      },
      {
        "type": "midi",
        "subType": "noteOn",
        "typeByte": 153,
        "deltaTime": 24,
        "channel": 9,
        "note": 42,
        "velocity": 127
      },
      {
        "type": "midi",
        "subType": "noteOff",
        "typeByte": 153,
        "deltaTime": 20,
        "channel": 9,
        "note": 42,
        "velocity": 0
      },
      {
        "type": "midi",
        "subType": "controller",
        "typeByte": 185,
        "deltaTime": 2,
        "channel": 9,
        "controllerType": 7,
        "value": 104
      },
      {
        "type": "midi",
        "subType": "controller",
        "typeByte": 185,
        "deltaTime": 23,
        "channel": 9,
        "controllerType": 7,
        "value": 103
      },
      {
        "type": "midi",
        "subType": "noteOn",
        "typeByte": 153,
        "deltaTime": 4,
        "channel": 9,
        "note": 36,
        "velocity": 127
      },
      {
        "type": "midi",
        "subType": "noteOn",
        "typeByte": 153,
        "deltaTime": 0,
        "channel": 9,
        "note": 42,
        "velocity": 127
      },
      {
        "type": "midi",
        "subType": "noteOff",
        "typeByte": 153,
        "deltaTime": 19,
        "channel": 9,
        "note": 42,
        "velocity": 0
      },
      {
        "type": "midi",
        "subType": "noteOff",
        "typeByte": 153,
        "deltaTime": 4,
        "channel": 9,
        "note": 36,
        "velocity": 0
      },
      {
        "type": "midi",
        "subType": "noteOn",
        "typeByte": 153,
        "deltaTime": 24,
        "channel": 9,
        "note": 42,
        "velocity": 127
      },
      {
        "type": "midi",
        "subType": "controller",
        "typeByte": 185,
        "deltaTime": 17,
        "channel": 9,
        "controllerType": 7,
        "value": 102
      },
      {
        "type": "midi",
        "subType": "noteOff",
        "typeByte": 153,
        "deltaTime": 5,
        "channel": 9,
        "note": 42,
        "velocity": 0
      },
      {
        "type": "midi",
        "subType": "controller",
        "typeByte": 185,
        "deltaTime": 16,
        "channel": 9,
        "controllerType": 7,
        "value": 101
      },
      {
        "type": "midi",
        "subType": "noteOn",
        "typeByte": 153,
        "deltaTime": 11,
        "channel": 9,
        "note": 38,
        "velocity": 127
      },
      {
        "type": "midi",
        "subType": "noteOn",
        "typeByte": 153,
        "deltaTime": 0,
        "channel": 9,
        "note": 36,
        "velocity": 127
      },
      {
        "type": "midi",
        "subType": "noteOn",
        "typeByte": 153,
        "deltaTime": 1,
        "channel": 9,
        "note": 42,
        "velocity": 127
      },
      {
        "type": "midi",
        "subType": "controller",
        "typeByte": 185,
        "deltaTime": 17,
        "channel": 9,
        "controllerType": 7,
        "value": 100
      },
      {
        "type": "midi",
        "subType": "noteOff",
        "typeByte": 153,
        "deltaTime": 5,
        "channel": 9,
        "note": 36,
        "velocity": 0
      },
      {
        "type": "midi",
        "subType": "noteOff",
        "typeByte": 153,
        "deltaTime": 0,
        "channel": 9,
        "note": 38,
        "velocity": 0
      },
      {
        "type": "midi",
        "subType": "noteOff",
        "typeByte": 153,
        "deltaTime": 2,
        "channel": 9,
        "note": 42,
        "velocity": 0
      },
      {
        "type": "midi",
        "subType": "noteOn",
        "typeByte": 153,
        "deltaTime": 23,
        "channel": 9,
        "note": 42,
        "velocity": 127
      },
      {
        "type": "midi",
        "subType": "controller",
        "typeByte": 185,
        "deltaTime": 2,
        "channel": 9,
        "controllerType": 7,
        "value": 99
      },
      {
        "type": "midi",
        "subType": "noteOff",
        "typeByte": 153,
        "deltaTime": 21,
        "channel": 9,
        "note": 42,
        "velocity": 0
      },
      {
        "type": "midi",
        "subType": "controller",
        "typeByte": 185,
        "deltaTime": 1,
        "channel": 9,
        "controllerType": 7,
        "value": 98
      },
      {
        "type": "midi",
        "subType": "noteOn",
        "typeByte": 153,
        "deltaTime": 25,
        "channel": 9,
        "note": 36,
        "velocity": 127
      },
      {
        "type": "midi",
        "subType": "noteOn",
        "typeByte": 153,
        "deltaTime": 0,
        "channel": 9,
        "note": 42,
        "velocity": 127
      },
      {
        "type": "midi",
        "subType": "controller",
        "typeByte": 185,
        "deltaTime": 4,
        "channel": 9,
        "controllerType": 7,
        "value": 97
      },
      {
        "type": "midi",
        "subType": "noteOff",
        "typeByte": 153,
        "deltaTime": 17,
        "channel": 9,
        "note": 42,
        "velocity": 0
      },
      {
        "type": "midi",
        "subType": "noteOff",
        "typeByte": 153,
        "deltaTime": 1,
        "channel": 9,
        "note": 36,
        "velocity": 0
      },
      {
        "type": "midi",
        "subType": "controller",
        "typeByte": 185,
        "deltaTime": 11,
        "channel": 9,
        "controllerType": 7,
        "value": 96
      },
      {
        "type": "midi",
        "subType": "controller",
        "typeByte": 185,
        "deltaTime": 11,
        "channel": 9,
        "controllerType": 7,
        "value": 95
      },
      {
        "type": "midi",
        "subType": "noteOn",
        "typeByte": 153,
        "deltaTime": 3,
        "channel": 9,
        "note": 42,
        "velocity": 127
      },
      {
        "type": "midi",
        "subType": "controller",
        "typeByte": 185,
        "deltaTime": 15,
        "channel": 9,
        "controllerType": 7,
        "value": 94
      },
      {
        "type": "midi",
        "subType": "noteOff",
        "typeByte": 153,
        "deltaTime": 4,
        "channel": 9,
        "note": 42,
        "velocity": 0
      },
      {
        "type": "midi",
        "subType": "noteOn",
        "typeByte": 153,
        "deltaTime": 30,
        "channel": 9,
        "note": 36,
        "velocity": 127
      },
      {
        "type": "midi",
        "subType": "noteOn",
        "typeByte": 153,
        "deltaTime": 0,
        "channel": 9,
        "note": 38,
        "velocity": 127
      },
      {
        "type": "midi",
        "subType": "noteOn",
        "typeByte": 153,
        "deltaTime": 0,
        "channel": 9,
        "note": 42,
        "velocity": 127
      },
      {
        "type": "midi",
        "subType": "controller",
        "typeByte": 185,
        "deltaTime": 9,
        "channel": 9,
        "controllerType": 7,
        "value": 93
      },
      {
        "type": "midi",
        "subType": "noteOff",
        "typeByte": 153,
        "deltaTime": 10,
        "channel": 9,
        "note": 42,
        "velocity": 0
      },
      {
        "type": "midi",
        "subType": "noteOff",
        "typeByte": 153,
        "deltaTime": 4,
        "channel": 9,
        "note": 38,
        "velocity": 0
      },
      {
        "type": "midi",
        "subType": "noteOff",
        "typeByte": 153,
        "deltaTime": 0,
        "channel": 9,
        "note": 36,
        "velocity": 0
      },
      {
        "type": "midi",
        "subType": "controller",
        "typeByte": 185,
        "deltaTime": 19,
        "channel": 9,
        "controllerType": 7,
        "value": 92
      },
      {
        "type": "midi",
        "subType": "noteOn",
        "typeByte": 153,
        "deltaTime": 5,
        "channel": 9,
        "note": 42,
        "velocity": 127
      },
      {
        "type": "midi",
        "subType": "noteOff",
        "typeByte": 153,
        "deltaTime": 19,
        "channel": 9,
        "note": 42,
        "velocity": 0
      },
      {
        "type": "midi",
        "subType": "controller",
        "typeByte": 185,
        "deltaTime": 4,
        "channel": 9,
        "controllerType": 7,
        "value": 91
      },
      {
        "type": "midi",
        "subType": "noteOn",
        "typeByte": 153,
        "deltaTime": 26,
        "channel": 9,
        "note": 36,
        "velocity": 127
      },
      {
        "type": "midi",
        "subType": "noteOn",
        "typeByte": 153,
        "deltaTime": 0,
        "channel": 9,
        "note": 42,
        "velocity": 127
      },
      {
        "type": "midi",
        "subType": "noteOff",
        "typeByte": 153,
        "deltaTime": 19,
        "channel": 9,
        "note": 42,
        "velocity": 0
      },
      {
        "type": "midi",
        "subType": "noteOff",
        "typeByte": 153,
        "deltaTime": 4,
        "channel": 9,
        "note": 36,
        "velocity": 0
      },
      {
        "type": "midi",
        "subType": "controller",
        "typeByte": 185,
        "deltaTime": 16,
        "channel": 9,
        "controllerType": 7,
        "value": 90
      },
      {
        "type": "midi",
        "subType": "noteOn",
        "typeByte": 153,
        "deltaTime": 8,
        "channel": 9,
        "note": 42,
        "velocity": 127
      },
      {
        "type": "midi",
        "subType": "noteOff",
        "typeByte": 153,
        "deltaTime": 22,
        "channel": 9,
        "note": 42,
        "velocity": 0
      },
      {
        "type": "midi",
        "subType": "controller",
        "typeByte": 185,
        "deltaTime": 18,
        "channel": 9,
        "controllerType": 7,
        "value": 89
      },
      {
        "type": "midi",
        "subType": "noteOn",
        "typeByte": 153,
        "deltaTime": 9,
        "channel": 9,
        "note": 36,
        "velocity": 127
      },
      {
        "type": "midi",
        "subType": "noteOn",
        "typeByte": 153,
        "deltaTime": 0,
        "channel": 9,
        "note": 38,
        "velocity": 127
      },
      {
        "type": "midi",
        "subType": "noteOn",
        "typeByte": 153,
        "deltaTime": 1,
        "channel": 9,
        "note": 42,
        "velocity": 127
      },
      {
        "type": "midi",
        "subType": "noteOff",
        "typeByte": 153,
        "deltaTime": 22,
        "channel": 9,
        "note": 38,
        "velocity": 0
      },
      {
        "type": "midi",
        "subType": "noteOff",
        "typeByte": 153,
        "deltaTime": 0,
        "channel": 9,
        "note": 36,
        "velocity": 0
      },
      {
        "type": "midi",
        "subType": "noteOff",
        "typeByte": 153,
        "deltaTime": 2,
        "channel": 9,
        "note": 42,
        "velocity": 0
      },
      {
        "type": "midi",
        "subType": "controller",
        "typeByte": 185,
        "deltaTime": 5,
        "channel": 9,
        "controllerType": 7,
        "value": 88
      },
      {
        "type": "midi",
        "subType": "controller",
        "typeByte": 185,
        "deltaTime": 18,
        "channel": 9,
        "controllerType": 7,
        "value": 87
      },
      {
        "type": "midi",
        "subType": "noteOn",
        "typeByte": 153,
        "deltaTime": 0,
        "channel": 9,
        "note": 42,
        "velocity": 127
      },
      {
        "type": "midi",
        "subType": "noteOff",
        "typeByte": 153,
        "deltaTime": 27,
        "channel": 9,
        "note": 42,
        "velocity": 0
      },
      {
        "type": "midi",
        "subType": "controller",
        "typeByte": 185,
        "deltaTime": 20,
        "channel": 9,
        "controllerType": 7,
        "value": 86
      },
      {
        "type": "midi",
        "subType": "noteOn",
        "typeByte": 153,
        "deltaTime": 2,
        "channel": 9,
        "note": 36,
        "velocity": 127
      },
      {
        "type": "midi",
        "subType": "noteOn",
        "typeByte": 153,
        "deltaTime": 0,
        "channel": 9,
        "note": 42,
        "velocity": 127
      },
      {
        "type": "midi",
        "subType": "controller",
        "typeByte": 185,
        "deltaTime": 12,
        "channel": 9,
        "controllerType": 7,
        "value": 85
      },
      {
        "type": "midi",
        "subType": "noteOff",
        "typeByte": 153,
        "deltaTime": 11,
        "channel": 9,
        "note": 36,
        "velocity": 0
      },
      {
        "type": "midi",
        "subType": "controller",
        "typeByte": 185,
        "deltaTime": 4,
        "channel": 9,
        "controllerType": 7,
        "value": 84
      },
      {
        "type": "midi",
        "subType": "noteOff",
        "typeByte": 153,
        "deltaTime": 8,
        "channel": 9,
        "note": 42,
        "velocity": 0
      },
      {
        "type": "midi",
        "subType": "controller",
        "typeByte": 185,
        "deltaTime": 0,
        "channel": 9,
        "controllerType": 7,
        "value": 83
      },
      {
        "type": "midi",
        "subType": "noteOn",
        "typeByte": 153,
        "deltaTime": 12,
        "channel": 9,
        "note": 42,
        "velocity": 127
      },
      {
        "type": "midi",
        "subType": "controller",
        "typeByte": 185,
        "deltaTime": 10,
        "channel": 9,
        "controllerType": 7,
        "value": 82
      },
      {
        "type": "midi",
        "subType": "noteOff",
        "typeByte": 153,
        "deltaTime": 14,
        "channel": 9,
        "note": 42,
        "velocity": 0
      },
      {
        "type": "midi",
        "subType": "noteOn",
        "typeByte": 153,
        "deltaTime": 25,
        "channel": 9,
        "note": 38,
        "velocity": 127
      },
      {
        "type": "midi",
        "subType": "noteOn",
        "typeByte": 153,
        "deltaTime": 0,
        "channel": 9,
        "note": 36,
        "velocity": 127
      },
      {
        "type": "midi",
        "subType": "noteOn",
        "typeByte": 153,
        "deltaTime": 0,
        "channel": 9,
        "note": 42,
        "velocity": 127
      },
      {
        "type": "midi",
        "subType": "controller",
        "typeByte": 185,
        "deltaTime": 11,
        "channel": 9,
        "controllerType": 7,
        "value": 81
      },
      {
        "type": "midi",
        "subType": "noteOff",
        "typeByte": 153,
        "deltaTime": 8,
        "channel": 9,
        "note": 42,
        "velocity": 0
      },
      {
        "type": "midi",
        "subType": "noteOff",
        "typeByte": 153,
        "deltaTime": 4,
        "channel": 9,
        "note": 36,
        "velocity": 0
      },
      {
        "type": "midi",
        "subType": "noteOff",
        "typeByte": 153,
        "deltaTime": 0,
        "channel": 9,
        "note": 38,
        "velocity": 0
      },
      {
        "type": "midi",
        "subType": "controller",
        "typeByte": 185,
        "deltaTime": 16,
        "channel": 9,
        "controllerType": 7,
        "value": 80
      },
      {
        "type": "midi",
        "subType": "noteOn",
        "typeByte": 153,
        "deltaTime": 8,
        "channel": 9,
        "note": 42,
        "velocity": 127
      },
      {
        "type": "midi",
        "subType": "controller",
        "typeByte": 185,
        "deltaTime": 18,
        "channel": 9,
        "controllerType": 7,
        "value": 79
      },
      {
        "type": "midi",
        "subType": "noteOff",
        "typeByte": 153,
        "deltaTime": 3,
        "channel": 9,
        "note": 42,
        "velocity": 0
      },
      {
        "type": "midi",
        "subType": "noteOn",
        "typeByte": 153,
        "deltaTime": 28,
        "channel": 9,
        "note": 36,
        "velocity": 127
      },
      {
        "type": "midi",
        "subType": "noteOn",
        "typeByte": 153,
        "deltaTime": 0,
        "channel": 9,
        "note": 42,
        "velocity": 127
      },
      {
        "type": "midi",
        "subType": "controller",
        "typeByte": 185,
        "deltaTime": 12,
        "channel": 9,
        "controllerType": 7,
        "value": 78
      },
      {
        "type": "midi",
        "subType": "noteOff",
        "typeByte": 153,
        "deltaTime": 9,
        "channel": 9,
        "note": 42,
        "velocity": 0
      },
      {
        "type": "midi",
        "subType": "noteOff",
        "typeByte": 153,
        "deltaTime": 2,
        "channel": 9,
        "note": 36,
        "velocity": 0
      },
      {
        "type": "midi",
        "subType": "controller",
        "typeByte": 185,
        "deltaTime": 18,
        "channel": 9,
        "controllerType": 7,
        "value": 77
      },
      {
        "type": "midi",
        "subType": "noteOn",
        "typeByte": 153,
        "deltaTime": 7,
        "channel": 9,
        "note": 42,
        "velocity": 127
      },
      {
        "type": "midi",
        "subType": "controller",
        "typeByte": 185,
        "deltaTime": 8,
        "channel": 9,
        "controllerType": 7,
        "value": 76
      },
      {
        "type": "midi",
        "subType": "noteOff",
        "typeByte": 153,
        "deltaTime": 12,
        "channel": 9,
        "note": 42,
        "velocity": 0
      },
      {
        "type": "midi",
        "subType": "controller",
        "typeByte": 185,
        "deltaTime": 24,
        "channel": 9,
        "controllerType": 7,
        "value": 75
      },
      {
        "type": "midi",
        "subType": "noteOn",
        "typeByte": 153,
        "deltaTime": 5,
        "channel": 9,
        "note": 36,
        "velocity": 127
      },
      {
        "type": "midi",
        "subType": "noteOn",
        "typeByte": 153,
        "deltaTime": 0,
        "channel": 9,
        "note": 38,
        "velocity": 127
      },
      {
        "type": "midi",
        "subType": "noteOn",
        "typeByte": 153,
        "deltaTime": 0,
        "channel": 9,
        "note": 42,
        "velocity": 127
      },
      {
        "type": "midi",
        "subType": "controller",
        "typeByte": 185,
        "deltaTime": 20,
        "channel": 9,
        "controllerType": 7,
        "value": 74
      },
      {
        "type": "midi",
        "subType": "noteOff",
        "typeByte": 153,
        "deltaTime": 3,
        "channel": 9,
        "note": 42,
        "velocity": 0
      },
      {
        "type": "midi",
        "subType": "noteOff",
        "typeByte": 153,
        "deltaTime": 0,
        "channel": 9,
        "note": 38,
        "velocity": 0
      },
      {
        "type": "midi",
        "subType": "noteOff",
        "typeByte": 153,
        "deltaTime": 0,
        "channel": 9,
        "note": 36,
        "velocity": 0
      },
      {
        "type": "midi",
        "subType": "controller",
        "typeByte": 185,
        "deltaTime": 12,
        "channel": 9,
        "controllerType": 7,
        "value": 73
      },
      {
        "type": "midi",
        "subType": "noteOn",
        "typeByte": 153,
        "deltaTime": 12,
        "channel": 9,
        "note": 42,
        "velocity": 127
      },
      {
        "type": "midi",
        "subType": "controller",
        "typeByte": 185,
        "deltaTime": 3,
        "channel": 9,
        "controllerType": 7,
        "value": 72
      },
      {
        "type": "midi",
        "subType": "noteOff",
        "typeByte": 153,
        "deltaTime": 20,
        "channel": 9,
        "note": 42,
        "velocity": 0
      },
      {
        "type": "midi",
        "subType": "controller",
        "typeByte": 185,
        "deltaTime": 1,
        "channel": 9,
        "controllerType": 7,
        "value": 71
      },
      {
        "type": "midi",
        "subType": "controller",
        "typeByte": 185,
        "deltaTime": 22,
        "channel": 9,
        "controllerType": 7,
        "value": 70
      },
      {
        "type": "midi",
        "subType": "noteOn",
        "typeByte": 153,
        "deltaTime": 3,
        "channel": 9,
        "note": 36,
        "velocity": 127
      },
      {
        "type": "midi",
        "subType": "noteOn",
        "typeByte": 153,
        "deltaTime": 0,
        "channel": 9,
        "note": 42,
        "velocity": 127
      },
      {
        "type": "midi",
        "subType": "noteOff",
        "typeByte": 153,
        "deltaTime": 23,
        "channel": 9,
        "note": 36,
        "velocity": 0
      },
      {
        "type": "midi",
        "subType": "controller",
        "typeByte": 185,
        "deltaTime": 4,
        "channel": 9,
        "controllerType": 7,
        "value": 69
      },
      {
        "type": "midi",
        "subType": "noteOff",
        "typeByte": 153,
        "deltaTime": 3,
        "channel": 9,
        "note": 42,
        "velocity": 0
      },
      {
        "type": "midi",
        "subType": "controller",
        "typeByte": 185,
        "deltaTime": 8,
        "channel": 9,
        "controllerType": 7,
        "value": 68
      },
      {
        "type": "midi",
        "subType": "noteOn",
        "typeByte": 153,
        "deltaTime": 9,
        "channel": 9,
        "note": 42,
        "velocity": 127
      },
      {
        "type": "midi",
        "subType": "controller",
        "typeByte": 185,
        "deltaTime": 2,
        "channel": 9,
        "controllerType": 7,
        "value": 67
      },
      {
        "type": "midi",
        "subType": "controller",
        "typeByte": 185,
        "deltaTime": 4,
        "channel": 9,
        "controllerType": 7,
        "value": 66
      },
      {
        "type": "midi",
        "subType": "controller",
        "typeByte": 185,
        "deltaTime": 11,
        "channel": 9,
        "controllerType": 7,
        "value": 65
      },
      {
        "type": "midi",
        "subType": "noteOff",
        "typeByte": 153,
        "deltaTime": 6,
        "channel": 9,
        "note": 42,
        "velocity": 0
      },
      {
        "type": "midi",
        "subType": "controller",
        "typeByte": 185,
        "deltaTime": 22,
        "channel": 9,
        "controllerType": 7,
        "value": 64
      },
      {
        "type": "midi",
        "subType": "noteOn",
        "typeByte": 153,
        "deltaTime": 4,
        "channel": 9,
        "note": 36,
        "velocity": 127
      },
      {
        "type": "midi",
        "subType": "noteOn",
        "typeByte": 153,
        "deltaTime": 0,
        "channel": 9,
        "note": 38,
        "velocity": 127
      },
      {
        "type": "midi",
        "subType": "noteOn",
        "typeByte": 153,
        "deltaTime": 1,
        "channel": 9,
        "note": 42,
        "velocity": 127
      },
      {
        "type": "midi",
        "subType": "controller",
        "typeByte": 185,
        "deltaTime": 10,
        "channel": 9,
        "controllerType": 7,
        "value": 63
      },
      {
        "type": "midi",
        "subType": "noteOff",
        "typeByte": 153,
        "deltaTime": 9,
        "channel": 9,
        "note": 42,
        "velocity": 0
      },
      {
        "type": "midi",
        "subType": "noteOff",
        "typeByte": 153,
        "deltaTime": 3,
        "channel": 9,
        "note": 38,
        "velocity": 0
      },
      {
        "type": "midi",
        "subType": "noteOff",
        "typeByte": 153,
        "deltaTime": 0,
        "channel": 9,
        "note": 36,
        "velocity": 0
      },
      {
        "type": "midi",
        "subType": "noteOn",
        "typeByte": 153,
        "deltaTime": 25,
        "channel": 9,
        "note": 42,
        "velocity": 127
      },
      {
        "type": "midi",
        "subType": "controller",
        "typeByte": 185,
        "deltaTime": 10,
        "channel": 9,
        "controllerType": 7,
        "value": 62
      },
      {
        "type": "midi",
        "subType": "noteOff",
        "typeByte": 153,
        "deltaTime": 13,
        "channel": 9,
        "note": 42,
        "velocity": 0
      },
      {
        "type": "midi",
        "subType": "noteOn",
        "typeByte": 153,
        "deltaTime": 25,
        "channel": 9,
        "note": 36,
        "velocity": 127
      },
      {
        "type": "midi",
        "subType": "noteOn",
        "typeByte": 153,
        "deltaTime": 0,
        "channel": 9,
        "note": 42,
        "velocity": 127
      },
      {
        "type": "midi",
        "subType": "noteOff",
        "typeByte": 153,
        "deltaTime": 23,
        "channel": 9,
        "note": 42,
        "velocity": 0
      },
      {
        "type": "midi",
        "subType": "noteOff",
        "typeByte": 153,
        "deltaTime": 0,
        "channel": 9,
        "note": 36,
        "velocity": 0
      },
      {
        "type": "midi",
        "subType": "controller",
        "typeByte": 185,
        "deltaTime": 3,
        "channel": 9,
        "controllerType": 7,
        "value": 61
      },
      {
        "type": "midi",
        "subType": "controller",
        "typeByte": 185,
        "deltaTime": 22,
        "channel": 9,
        "controllerType": 7,
        "value": 60
      },
      {
        "type": "midi",
        "subType": "noteOn",
        "typeByte": 153,
        "deltaTime": 0,
        "channel": 9,
        "note": 42,
        "velocity": 127
      },
      {
        "type": "midi",
        "subType": "noteOff",
        "typeByte": 153,
        "deltaTime": 24,
        "channel": 9,
        "note": 42,
        "velocity": 0
      },
      {
        "type": "midi",
        "subType": "controller",
        "typeByte": 185,
        "deltaTime": 10,
        "channel": 9,
        "controllerType": 7,
        "value": 59
      },
      {
        "type": "midi",
        "subType": "noteOn",
        "typeByte": 153,
        "deltaTime": 15,
        "channel": 9,
        "note": 36,
        "velocity": 127
      },
      {
        "type": "midi",
        "subType": "noteOn",
        "typeByte": 153,
        "deltaTime": 0,
        "channel": 9,
        "note": 38,
        "velocity": 127
      },
      {
        "type": "midi",
        "subType": "noteOn",
        "typeByte": 153,
        "deltaTime": 0,
        "channel": 9,
        "note": 42,
        "velocity": 127
      },
      {
        "type": "midi",
        "subType": "controller",
        "typeByte": 185,
        "deltaTime": 16,
        "channel": 9,
        "controllerType": 7,
        "value": 58
      },
      {
        "type": "midi",
        "subType": "noteOff",
        "typeByte": 153,
        "deltaTime": 4,
        "channel": 9,
        "note": 42,
        "velocity": 0
      },
      {
        "type": "midi",
        "subType": "noteOff",
        "typeByte": 153,
        "deltaTime": 3,
        "channel": 9,
        "note": 38,
        "velocity": 0
      },
      {
        "type": "midi",
        "subType": "noteOff",
        "typeByte": 153,
        "deltaTime": 0,
        "channel": 9,
        "note": 36,
        "velocity": 0
      },
      {
        "type": "midi",
        "subType": "noteOn",
        "typeByte": 153,
        "deltaTime": 24,
        "channel": 9,
        "note": 42,
        "velocity": 127
      },
      {
        "type": "midi",
        "subType": "controller",
        "typeByte": 185,
        "deltaTime": 12,
        "channel": 9,
        "controllerType": 7,
        "value": 57
      },
      {
        "type": "midi",
        "subType": "noteOff",
        "typeByte": 153,
        "deltaTime": 10,
        "channel": 9,
        "note": 42,
        "velocity": 0
      },
      {
        "type": "midi",
        "subType": "controller",
        "typeByte": 185,
        "deltaTime": 27,
        "channel": 9,
        "controllerType": 7,
        "value": 56
      },
      {
        "type": "midi",
        "subType": "noteOn",
        "typeByte": 153,
        "deltaTime": 0,
        "channel": 9,
        "note": 36,
        "velocity": 127
      },
      {
        "type": "midi",
        "subType": "noteOn",
        "typeByte": 153,
        "deltaTime": 0,
        "channel": 9,
        "note": 42,
        "velocity": 127
      },
      {
        "type": "midi",
        "subType": "noteOff",
        "typeByte": 153,
        "deltaTime": 23,
        "channel": 9,
        "note": 36,
        "velocity": 0
      },
      {
        "type": "midi",
        "subType": "noteOff",
        "typeByte": 153,
        "deltaTime": 1,
        "channel": 9,
        "note": 42,
        "velocity": 0
      },
      {
        "type": "midi",
        "subType": "controller",
        "typeByte": 185,
        "deltaTime": 4,
        "channel": 9,
        "controllerType": 7,
        "value": 55
      },
      {
        "type": "midi",
        "subType": "controller",
        "typeByte": 185,
        "deltaTime": 15,
        "channel": 9,
        "controllerType": 7,
        "value": 54
      },
      {
        "type": "midi",
        "subType": "noteOn",
        "typeByte": 153,
        "deltaTime": 4,
        "channel": 9,
        "note": 42,
        "velocity": 127
      },
      {
        "type": "midi",
        "subType": "controller",
        "typeByte": 185,
        "deltaTime": 18,
        "channel": 9,
        "controllerType": 7,
        "value": 53
      },
      {
        "type": "midi",
        "subType": "noteOff",
        "typeByte": 153,
        "deltaTime": 3,
        "channel": 9,
        "note": 42,
        "velocity": 0
      },
      {
        "type": "midi",
        "subType": "noteOn",
        "typeByte": 153,
        "deltaTime": 28,
        "channel": 9,
        "note": 36,
        "velocity": 127
      },
      {
        "type": "midi",
        "subType": "noteOn",
        "typeByte": 153,
        "deltaTime": 0,
        "channel": 9,
        "note": 38,
        "velocity": 127
      },
      {
        "type": "midi",
        "subType": "noteOn",
        "typeByte": 153,
        "deltaTime": 1,
        "channel": 9,
        "note": 42,
        "velocity": 127
      },
      {
        "type": "midi",
        "subType": "noteOff",
        "typeByte": 153,
        "deltaTime": 21,
        "channel": 9,
        "note": 42,
        "velocity": 0
      },
      {
        "type": "midi",
        "subType": "noteOff",
        "typeByte": 153,
        "deltaTime": 1,
        "channel": 9,
        "note": 38,
        "velocity": 0
      },
      {
        "type": "midi",
        "subType": "noteOff",
        "typeByte": 153,
        "deltaTime": 0,
        "channel": 9,
        "note": 36,
        "velocity": 0
      },
      {
        "type": "midi",
        "subType": "controller",
        "typeByte": 185,
        "deltaTime": 3,
        "channel": 9,
        "controllerType": 7,
        "value": 52
      },
      {
        "type": "midi",
        "subType": "noteOn",
        "typeByte": 153,
        "deltaTime": 22,
        "channel": 9,
        "note": 42,
        "velocity": 127
      },
      {
        "type": "midi",
        "subType": "controller",
        "typeByte": 185,
        "deltaTime": 6,
        "channel": 9,
        "controllerType": 7,
        "value": 51
      },
      {
        "type": "midi",
        "subType": "noteOff",
        "typeByte": 153,
        "deltaTime": 17,
        "channel": 9,
        "note": 42,
        "velocity": 0
      },
      {
        "type": "midi",
        "subType": "controller",
        "typeByte": 185,
        "deltaTime": 11,
        "channel": 9,
        "controllerType": 7,
        "value": 50
      },
      {
        "type": "midi",
        "subType": "controller",
        "typeByte": 185,
        "deltaTime": 9,
        "channel": 9,
        "controllerType": 7,
        "value": 49
      },
      {
        "type": "midi",
        "subType": "noteOn",
        "typeByte": 153,
        "deltaTime": 6,
        "channel": 9,
        "note": 36,
        "velocity": 127
      },
      {
        "type": "midi",
        "subType": "noteOn",
        "typeByte": 153,
        "deltaTime": 0,
        "channel": 9,
        "note": 42,
        "velocity": 127
      },
      {
        "type": "midi",
        "subType": "controller",
        "typeByte": 185,
        "deltaTime": 13,
        "channel": 9,
        "controllerType": 7,
        "value": 48
      },
      {
        "type": "midi",
        "subType": "noteOff",
        "typeByte": 153,
        "deltaTime": 10,
        "channel": 9,
        "note": 42,
        "velocity": 0
      },
      {
        "type": "midi",
        "subType": "noteOff",
        "typeByte": 153,
        "deltaTime": 0,
        "channel": 9,
        "note": 36,
        "velocity": 0
      },
      {
        "type": "midi",
        "subType": "noteOn",
        "typeByte": 153,
        "deltaTime": 24,
        "channel": 9,
        "note": 42,
        "velocity": 127
      },
      {
        "type": "midi",
        "subType": "controller",
        "typeByte": 185,
        "deltaTime": 10,
        "channel": 9,
        "controllerType": 7,
        "value": 47
      },
      {
        "type": "midi",
        "subType": "noteOff",
        "typeByte": 153,
        "deltaTime": 16,
        "channel": 9,
        "note": 42,
        "velocity": 0
      },
      {
        "type": "midi",
        "subType": "controller",
        "typeByte": 185,
        "deltaTime": 1,
        "channel": 9,
        "controllerType": 7,
        "value": 46
      },
      {
        "type": "midi",
        "subType": "controller",
        "typeByte": 185,
        "deltaTime": 22,
        "channel": 9,
        "controllerType": 7,
        "value": 45
      },
      {
        "type": "midi",
        "subType": "noteOn",
        "typeByte": 153,
        "deltaTime": 0,
        "channel": 9,
        "note": 36,
        "velocity": 127
      },
      {
        "type": "midi",
        "subType": "noteOn",
        "typeByte": 153,
        "deltaTime": 0,
        "channel": 9,
        "note": 38,
        "velocity": 127
      },
      {
        "type": "midi",
        "subType": "noteOn",
        "typeByte": 153,
        "deltaTime": 1,
        "channel": 9,
        "note": 42,
        "velocity": 127
      },
      {
        "type": "midi",
        "subType": "controller",
        "typeByte": 185,
        "deltaTime": 18,
        "channel": 9,
        "controllerType": 7,
        "value": 44
      },
      {
        "type": "midi",
        "subType": "noteOff",
        "typeByte": 153,
        "deltaTime": 4,
        "channel": 9,
        "note": 38,
        "velocity": 0
      },
      {
        "type": "midi",
        "subType": "noteOff",
        "typeByte": 153,
        "deltaTime": 0,
        "channel": 9,
        "note": 36,
        "velocity": 0
      },
      {
        "type": "midi",
        "subType": "noteOff",
        "typeByte": 153,
        "deltaTime": 1,
        "channel": 9,
        "note": 42,
        "velocity": 0
      },
      {
        "type": "midi",
        "subType": "controller",
        "typeByte": 185,
        "deltaTime": 9,
        "channel": 9,
        "controllerType": 7,
        "value": 43
      },
      {
        "type": "midi",
        "subType": "noteOn",
        "typeByte": 153,
        "deltaTime": 14,
        "channel": 9,
        "note": 42,
        "velocity": 127
      },
      {
        "type": "midi",
        "subType": "noteOff",
        "typeByte": 153,
        "deltaTime": 26,
        "channel": 9,
        "note": 42,
        "velocity": 0
      },
      {
        "type": "midi",
        "subType": "controller",
        "typeByte": 185,
        "deltaTime": 0,
        "channel": 9,
        "controllerType": 7,
        "value": 42
      },
      {
        "type": "midi",
        "subType": "controller",
        "typeByte": 185,
        "deltaTime": 11,
        "channel": 9,
        "controllerType": 7,
        "value": 41
      },
      {
        "type": "midi",
        "subType": "controller",
        "typeByte": 185,
        "deltaTime": 11,
        "channel": 9,
        "controllerType": 7,
        "value": 40
      },
      {
        "type": "midi",
        "subType": "noteOn",
        "typeByte": 153,
        "deltaTime": 2,
        "channel": 9,
        "note": 36,
        "velocity": 127
      },
      {
        "type": "midi",
        "subType": "noteOn",
        "typeByte": 153,
        "deltaTime": 0,
        "channel": 9,
        "note": 42,
        "velocity": 127
      },
      {
        "type": "midi",
        "subType": "noteOff",
        "typeByte": 153,
        "deltaTime": 22,
        "channel": 9,
        "note": 36,
        "velocity": 0
      },
      {
        "type": "midi",
        "subType": "controller",
        "typeByte": 185,
        "deltaTime": 1,
        "channel": 9,
        "controllerType": 7,
        "value": 39
      },
      {
        "type": "midi",
        "subType": "noteOff",
        "typeByte": 153,
        "deltaTime": 3,
        "channel": 9,
        "note": 42,
        "velocity": 0
      },
      {
        "type": "midi",
        "subType": "controller",
        "typeByte": 185,
        "deltaTime": 12,
        "channel": 9,
        "controllerType": 7,
        "value": 38
      },
      {
        "type": "midi",
        "subType": "noteOn",
        "typeByte": 153,
        "deltaTime": 9,
        "channel": 9,
        "note": 42,
        "velocity": 127
      },
      {
        "type": "midi",
        "subType": "controller",
        "typeByte": 185,
        "deltaTime": 2,
        "channel": 9,
        "controllerType": 7,
        "value": 37
      },
      {
        "type": "midi",
        "subType": "controller",
        "typeByte": 185,
        "deltaTime": 18,
        "channel": 9,
        "controllerType": 7,
        "value": 36
      },
      {
        "type": "midi",
        "subType": "noteOff",
        "typeByte": 153,
        "deltaTime": 2,
        "channel": 9,
        "note": 42,
        "velocity": 0
      },
      {
        "type": "midi",
        "subType": "noteOn",
        "typeByte": 153,
        "deltaTime": 26,
        "channel": 9,
        "note": 36,
        "velocity": 127
      },
      {
        "type": "midi",
        "subType": "noteOn",
        "typeByte": 153,
        "deltaTime": 1,
        "channel": 9,
        "note": 38,
        "velocity": 127
      },
      {
        "type": "midi",
        "subType": "noteOn",
        "typeByte": 153,
        "deltaTime": 0,
        "channel": 9,
        "note": 42,
        "velocity": 127
      },
      {
        "type": "midi",
        "subType": "controller",
        "typeByte": 185,
        "deltaTime": 17,
        "channel": 9,
        "controllerType": 7,
        "value": 35
      },
      {
        "type": "midi",
        "subType": "noteOff",
        "typeByte": 153,
        "deltaTime": 5,
        "channel": 9,
        "note": 42,
        "velocity": 0
      },
      {
        "type": "midi",
        "subType": "noteOff",
        "typeByte": 153,
        "deltaTime": 0,
        "channel": 9,
        "note": 36,
        "velocity": 0
      },
      {
        "type": "midi",
        "subType": "noteOff",
        "typeByte": 153,
        "deltaTime": 1,
        "channel": 9,
        "note": 38,
        "velocity": 0
      },
      {
        "type": "midi",
        "subType": "controller",
        "typeByte": 185,
        "deltaTime": 13,
        "channel": 9,
        "controllerType": 7,
        "value": 34
      },
      {
        "type": "midi",
        "subType": "noteOn",
        "typeByte": 153,
        "deltaTime": 11,
        "channel": 9,
        "note": 42,
        "velocity": 127
      },
      {
        "type": "midi",
        "subType": "controller",
        "typeByte": 185,
        "deltaTime": 15,
        "channel": 9,
        "controllerType": 7,
        "value": 33
      },
      {
        "type": "midi",
        "subType": "noteOff",
        "typeByte": 153,
        "deltaTime": 9,
        "channel": 9,
        "note": 42,
        "velocity": 0
      },
      {
        "type": "midi",
        "subType": "controller",
        "typeByte": 185,
        "deltaTime": 15,
        "channel": 9,
        "controllerType": 7,
        "value": 32
      },
      {
        "type": "midi",
        "subType": "noteOn",
        "typeByte": 153,
        "deltaTime": 10,
        "channel": 9,
        "note": 36,
        "velocity": 127
      },
      {
        "type": "midi",
        "subType": "noteOn",
        "typeByte": 153,
        "deltaTime": 0,
        "channel": 9,
        "note": 42,
        "velocity": 127
      },
      {
        "type": "midi",
        "subType": "controller",
        "typeByte": 185,
        "deltaTime": 16,
        "channel": 9,
        "controllerType": 7,
        "value": 31
      },
      {
        "type": "midi",
        "subType": "noteOff",
        "typeByte": 153,
        "deltaTime": 7,
        "channel": 9,
        "note": 36,
        "velocity": 0
      },
      {
        "type": "midi",
        "subType": "noteOff",
        "typeByte": 153,
        "deltaTime": 1,
        "channel": 9,
        "note": 42,
        "velocity": 0
      },
      {
        "type": "midi",
        "subType": "controller",
        "typeByte": 185,
        "deltaTime": 21,
        "channel": 9,
        "controllerType": 7,
        "value": 30
      },
      {
        "type": "midi",
        "subType": "noteOn",
        "typeByte": 153,
        "deltaTime": 2,
        "channel": 9,
        "note": 42,
        "velocity": 127
      },
      {
        "type": "midi",
        "subType": "noteOff",
        "typeByte": 153,
        "deltaTime": 25,
        "channel": 9,
        "note": 42,
        "velocity": 0
      },
      {
        "type": "midi",
        "subType": "controller",
        "typeByte": 185,
        "deltaTime": 1,
        "channel": 9,
        "controllerType": 7,
        "value": 29
      },
      {
        "type": "midi",
        "subType": "controller",
        "typeByte": 185,
        "deltaTime": 12,
        "channel": 9,
        "controllerType": 7,
        "value": 28
      },
      {
        "type": "midi",
        "subType": "noteOn",
        "typeByte": 153,
        "deltaTime": 11,
        "channel": 9,
        "note": 36,
        "velocity": 127
      },
      {
        "type": "midi",
        "subType": "noteOn",
        "typeByte": 153,
        "deltaTime": 0,
        "channel": 9,
        "note": 38,
        "velocity": 127
      },
      {
        "type": "midi",
        "subType": "noteOn",
        "typeByte": 153,
        "deltaTime": 1,
        "channel": 9,
        "note": 42,
        "velocity": 127
      },
      {
        "type": "midi",
        "subType": "noteOff",
        "typeByte": 153,
        "deltaTime": 22,
        "channel": 9,
        "note": 38,
        "velocity": 0
      },
      {
        "type": "midi",
        "subType": "noteOff",
        "typeByte": 153,
        "deltaTime": 0,
        "channel": 9,
        "note": 36,
        "velocity": 0
      },
      {
        "type": "midi",
        "subType": "noteOff",
        "typeByte": 153,
        "deltaTime": 1,
        "channel": 9,
        "note": 42,
        "velocity": 0
      },
      {
        "type": "midi",
        "subType": "controller",
        "typeByte": 185,
        "deltaTime": 1,
        "channel": 9,
        "controllerType": 7,
        "value": 27
      },
      {
        "type": "midi",
        "subType": "controller",
        "typeByte": 185,
        "deltaTime": 18,
        "channel": 9,
        "controllerType": 7,
        "value": 26
      },
      {
        "type": "midi",
        "subType": "noteOn",
        "typeByte": 153,
        "deltaTime": 4,
        "channel": 9,
        "note": 42,
        "velocity": 127
      },
      {
        "type": "midi",
        "subType": "controller",
        "typeByte": 185,
        "deltaTime": 11,
        "channel": 9,
        "controllerType": 7,
        "value": 25
      },
      {
        "type": "midi",
        "subType": "controller",
        "typeByte": 185,
        "deltaTime": 7,
        "channel": 9,
        "controllerType": 7,
        "value": 24
      },
      {
        "type": "midi",
        "subType": "noteOff",
        "typeByte": 153,
        "deltaTime": 8,
        "channel": 9,
        "note": 42,
        "velocity": 0
      },
      {
        "type": "midi",
        "subType": "controller",
        "typeByte": 185,
        "deltaTime": 17,
        "channel": 9,
        "controllerType": 7,
        "value": 23
      },
      {
        "type": "midi",
        "subType": "controller",
        "typeByte": 185,
        "deltaTime": 6,
        "channel": 9,
        "controllerType": 7,
        "value": 22
      },
      {
        "type": "midi",
        "subType": "noteOn",
        "typeByte": 153,
        "deltaTime": 1,
        "channel": 9,
        "note": 36,
        "velocity": 127
      },
      {
        "type": "midi",
        "subType": "noteOn",
        "typeByte": 153,
        "deltaTime": 0,
        "channel": 9,
        "note": 42,
        "velocity": 127
      },
      {
        "type": "midi",
        "subType": "controller",
        "typeByte": 185,
        "deltaTime": 12,
        "channel": 9,
        "controllerType": 7,
        "value": 21
      },
      {
        "type": "midi",
        "subType": "controller",
        "typeByte": 185,
        "deltaTime": 8,
        "channel": 9,
        "controllerType": 7,
        "value": 20
      },
      {
        "type": "midi",
        "subType": "noteOff",
        "typeByte": 153,
        "deltaTime": 2,
        "channel": 9,
        "note": 36,
        "velocity": 0
      },
      {
        "type": "midi",
        "subType": "noteOff",
        "typeByte": 153,
        "deltaTime": 2,
        "channel": 9,
        "note": 42,
        "velocity": 0
      },
      {
        "type": "midi",
        "subType": "controller",
        "typeByte": 185,
        "deltaTime": 7,
        "channel": 9,
        "controllerType": 7,
        "value": 19
      },
      {
        "type": "midi",
        "subType": "controller",
        "typeByte": 185,
        "deltaTime": 6,
        "channel": 9,
        "controllerType": 7,
        "value": 18
      },
      {
        "type": "midi",
        "subType": "controller",
        "typeByte": 185,
        "deltaTime": 8,
        "channel": 9,
        "controllerType": 7,
        "value": 17
      },
      {
        "type": "midi",
        "subType": "noteOn",
        "typeByte": 153,
        "deltaTime": 2,
        "channel": 9,
        "note": 42,
        "velocity": 127
      },
      {
        "type": "midi",
        "subType": "controller",
        "typeByte": 185,
        "deltaTime": 23,
        "channel": 9,
        "controllerType": 7,
        "value": 16
      },
      {
        "type": "midi",
        "subType": "noteOff",
        "typeByte": 153,
        "deltaTime": 3,
        "channel": 9,
        "note": 42,
        "velocity": 0
      },
      {
        "type": "midi",
        "subType": "controller",
        "typeByte": 185,
        "deltaTime": 16,
        "channel": 9,
        "controllerType": 7,
        "value": 15
      },
      {
        "type": "midi",
        "subType": "noteOn",
        "typeByte": 153,
        "deltaTime": 7,
        "channel": 9,
        "note": 38,
        "velocity": 127
      },
      {
        "type": "midi",
        "subType": "noteOn",
        "typeByte": 153,
        "deltaTime": 0,
        "channel": 9,
        "note": 36,
        "velocity": 127
      },
      {
        "type": "midi",
        "subType": "noteOn",
        "typeByte": 153,
        "deltaTime": 0,
        "channel": 9,
        "note": 42,
        "velocity": 127
      },
      {
        "type": "midi",
        "subType": "controller",
        "typeByte": 185,
        "deltaTime": 11,
        "channel": 9,
        "controllerType": 7,
        "value": 14
      },
      {
        "type": "midi",
        "subType": "controller",
        "typeByte": 185,
        "deltaTime": 10,
        "channel": 9,
        "controllerType": 7,
        "value": 13
      },
      {
        "type": "midi",
        "subType": "noteOff",
        "typeByte": 153,
        "deltaTime": 2,
        "channel": 9,
        "note": 42,
        "velocity": 0
      },
      {
        "type": "midi",
        "subType": "noteOff",
        "typeByte": 153,
        "deltaTime": 0,
        "channel": 9,
        "note": 38,
        "velocity": 0
      },
      {
        "type": "midi",
        "subType": "noteOff",
        "typeByte": 153,
        "deltaTime": 1,
        "channel": 9,
        "note": 36,
        "velocity": 0
      },
      {
        "type": "midi",
        "subType": "controller",
        "typeByte": 185,
        "deltaTime": 12,
        "channel": 9,
        "controllerType": 7,
        "value": 12
      },
      {
        "type": "midi",
        "subType": "noteOn",
        "typeByte": 153,
        "deltaTime": 11,
        "channel": 9,
        "note": 42,
        "velocity": 127
      },
      {
        "type": "midi",
        "subType": "controller",
        "typeByte": 185,
        "deltaTime": 22,
        "channel": 9,
        "controllerType": 7,
        "value": 11
      },
      {
        "type": "midi",
        "subType": "noteOff",
        "typeByte": 153,
        "deltaTime": 2,
        "channel": 9,
        "note": 42,
        "velocity": 0
      },
      {
        "type": "midi",
        "subType": "controller",
        "typeByte": 185,
        "deltaTime": 10,
        "channel": 9,
        "controllerType": 7,
        "value": 10
      },
      {
        "type": "midi",
        "subType": "controller",
        "typeByte": 185,
        "deltaTime": 7,
        "channel": 9,
        "controllerType": 7,
        "value": 9
      },
      {
        "type": "midi",
        "subType": "noteOn",
        "typeByte": 153,
        "deltaTime": 8,
        "channel": 9,
        "note": 36,
        "velocity": 127
      },
      {
        "type": "midi",
        "subType": "noteOn",
        "typeByte": 153,
        "deltaTime": 0,
        "channel": 9,
        "note": 42,
        "velocity": 127
      },
      {
        "type": "midi",
        "subType": "noteOff",
        "typeByte": 153,
        "deltaTime": 23,
        "channel": 9,
        "note": 42,
        "velocity": 0
      },
      {
        "type": "midi",
        "subType": "noteOff",
        "typeByte": 153,
        "deltaTime": 0,
        "channel": 9,
        "note": 36,
        "velocity": 0
      },
      {
        "type": "midi",
        "subType": "controller",
        "typeByte": 185,
        "deltaTime": 4,
        "channel": 9,
        "controllerType": 7,
        "value": 8
      },
      {
        "type": "midi",
        "subType": "controller",
        "typeByte": 185,
        "deltaTime": 4,
        "channel": 9,
        "controllerType": 7,
        "value": 7
      },
      {
        "type": "midi",
        "subType": "controller",
        "typeByte": 185,
        "deltaTime": 4,
        "channel": 9,
        "controllerType": 7,
        "value": 6
      },
      {
        "type": "midi",
        "subType": "controller",
        "typeByte": 185,
        "deltaTime": 4,
        "channel": 9,
        "controllerType": 7,
        "value": 5
      },
      {
        "type": "midi",
        "subType": "controller",
        "typeByte": 185,
        "deltaTime": 7,
        "channel": 9,
        "controllerType": 7,
        "value": 4
      },
      {
        "type": "midi",
        "subType": "noteOn",
        "typeByte": 153,
        "deltaTime": 2,
        "channel": 9,
        "note": 42,
        "velocity": 127
      },
      {
        "type": "midi",
        "subType": "controller",
        "typeByte": 185,
        "deltaTime": 6,
        "channel": 9,
        "controllerType": 7,
        "value": 3
      },
      {
        "type": "midi",
        "subType": "noteOff",
        "typeByte": 153,
        "deltaTime": 15,
        "channel": 9,
        "note": 42,
        "velocity": 0
      },
      {
        "type": "midi",
        "subType": "noteOn",
        "typeByte": 153,
        "deltaTime": 27,
        "channel": 9,
        "note": 38,
        "velocity": 127
      },
      {
        "type": "midi",
        "subType": "noteOn",
        "typeByte": 153,
        "deltaTime": 0,
        "channel": 9,
        "note": 36,
        "velocity": 127
      },
      {
        "type": "midi",
        "subType": "noteOn",
        "typeByte": 153,
        "deltaTime": 1,
        "channel": 9,
        "note": 42,
        "velocity": 127
      },
      {
        "type": "midi",
        "subType": "controller",
        "typeByte": 185,
        "deltaTime": 0,
        "channel": 9,
        "controllerType": 7,
        "value": 2
      },
      {
        "type": "midi",
        "subType": "controller",
        "typeByte": 185,
        "deltaTime": 16,
        "channel": 9,
        "controllerType": 7,
        "value": 1
      },
      {
        "type": "midi",
        "subType": "noteOff",
        "typeByte": 153,
        "deltaTime": 6,
        "channel": 9,
        "note": 42,
        "velocity": 0
      },
      {
        "type": "midi",
        "subType": "noteOff",
        "typeByte": 153,
        "deltaTime": 0,
        "channel": 9,
        "note": 36,
        "velocity": 0
      },
      {
        "type": "midi",
        "subType": "noteOff",
        "typeByte": 153,
        "deltaTime": 0,
        "channel": 9,
        "note": 38,
        "velocity": 0
      },
      {
        "type": "midi",
        "subType": "controller",
        "typeByte": 185,
        "deltaTime": 4,
        "channel": 9,
        "controllerType": 7,
        "value": 0
      },
      {
        "type": "midi",
        "subType": "noteOn",
        "typeByte": 153,
        "deltaTime": 21,
        "channel": 9,
        "note": 42,
        "velocity": 127
      },
      {
        "type": "midi",
        "subType": "noteOff",
        "typeByte": 153,
        "deltaTime": 21,
        "channel": 9,
        "note": 42,
        "velocity": 0
      },
      {
        "type": "midi",
        "subType": "noteOn",
        "typeByte": 153,
        "deltaTime": 28,
        "channel": 9,
        "note": 36,
        "velocity": 127
      },
      {
        "type": "midi",
        "subType": "noteOn",
        "typeByte": 153,
        "deltaTime": 0,
        "channel": 9,
        "note": 42,
        "velocity": 127
      },
      {
        "type": "midi",
        "subType": "noteOff",
        "typeByte": 153,
        "deltaTime": 17,
        "channel": 9,
        "note": 42,
        "velocity": 0
      },
      {
        "type": "midi",
        "subType": "noteOff",
        "typeByte": 153,
        "deltaTime": 6,
        "channel": 9,
        "note": 36,
        "velocity": 0
      },
      {
        "type": "midi",
        "subType": "noteOn",
        "typeByte": 153,
        "deltaTime": 24,
        "channel": 9,
        "note": 42,
        "velocity": 127
      },
      {
        "type": "midi",
        "subType": "noteOff",
        "typeByte": 153,
        "deltaTime": 18,
        "channel": 9,
        "note": 42,
        "velocity": 0
      },
      {
        "type": "midi",
        "subType": "noteOn",
        "typeByte": 153,
        "deltaTime": 31,
        "channel": 9,
        "note": 36,
        "velocity": 127
      },
      {
        "type": "midi",
        "subType": "noteOn",
        "typeByte": 153,
        "deltaTime": 0,
        "channel": 9,
        "note": 38,
        "velocity": 127
      },
      {
        "type": "midi",
        "subType": "noteOn",
        "typeByte": 153,
        "deltaTime": 0,
        "channel": 9,
        "note": 42,
        "velocity": 127
      },
      {
        "type": "midi",
        "subType": "noteOff",
        "typeByte": 153,
        "deltaTime": 20,
        "channel": 9,
        "note": 42,
        "velocity": 0
      },
      {
        "type": "midi",
        "subType": "noteOff",
        "typeByte": 153,
        "deltaTime": 3,
        "channel": 9,
        "note": 38,
        "velocity": 0
      },
      {
        "type": "midi",
        "subType": "noteOff",
        "typeByte": 153,
        "deltaTime": 0,
        "channel": 9,
        "note": 36,
        "velocity": 0
      },
      {
        "type": "midi",
        "subType": "noteOn",
        "typeByte": 153,
        "deltaTime": 24,
        "channel": 9,
        "note": 42,
        "velocity": 127
      },
      {
        "type": "midi",
        "subType": "noteOff",
        "typeByte": 153,
        "deltaTime": 15,
        "channel": 9,
        "note": 42,
        "velocity": 0
      },
      {
        "type": "midi",
        "subType": "noteOn",
        "typeByte": 153,
        "deltaTime": 34,
        "channel": 9,
        "note": 36,
        "velocity": 127
      },
      {
        "type": "midi",
        "subType": "noteOn",
        "typeByte": 153,
        "deltaTime": 0,
        "channel": 9,
        "note": 42,
        "velocity": 127
      },
      {
        "type": "midi",
        "subType": "noteOff",
        "typeByte": 153,
        "deltaTime": 20,
        "channel": 9,
        "note": 42,
        "velocity": 0
      },
      {
        "type": "midi",
        "subType": "noteOff",
        "typeByte": 153,
        "deltaTime": 3,
        "channel": 9,
        "note": 36,
        "velocity": 0
      },
      {
        "type": "midi",
        "subType": "noteOn",
        "typeByte": 153,
        "deltaTime": 25,
        "channel": 9,
        "note": 42,
        "velocity": 127
      },
      {
        "type": "midi",
        "subType": "noteOff",
        "typeByte": 153,
        "deltaTime": 23,
        "channel": 9,
        "note": 42,
        "velocity": 0
      },
      {
        "type": "midi",
        "subType": "noteOn",
        "typeByte": 153,
        "deltaTime": 25,
        "channel": 9,
        "note": 38,
        "velocity": 127
      },
      {
        "type": "midi",
        "subType": "noteOn",
        "typeByte": 153,
        "deltaTime": 0,
        "channel": 9,
        "note": 36,
        "velocity": 127
      },
      {
        "type": "midi",
        "subType": "noteOn",
        "typeByte": 153,
        "deltaTime": 1,
        "channel": 9,
        "note": 42,
        "velocity": 127
      },
      {
        "type": "midi",
        "subType": "noteOff",
        "typeByte": 153,
        "deltaTime": 22,
        "channel": 9,
        "note": 42,
        "velocity": 0
      },
      {
        "type": "midi",
        "subType": "noteOff",
        "typeByte": 153,
        "deltaTime": 0,
        "channel": 9,
        "note": 38,
        "velocity": 0
      },
      {
        "type": "midi",
        "subType": "noteOff",
        "typeByte": 153,
        "deltaTime": 1,
        "channel": 9,
        "note": 36,
        "velocity": 0
      },
      {
        "type": "midi",
        "subType": "noteOn",
        "typeByte": 153,
        "deltaTime": 24,
        "channel": 9,
        "note": 42,
        "velocity": 127
      },
      {
        "type": "midi",
        "subType": "noteOff",
        "typeByte": 153,
        "deltaTime": 24,
        "channel": 9,
        "note": 42,
        "velocity": 0
      },
      {
        "type": "midi",
        "subType": "controller",
        "typeByte": 185,
        "deltaTime": 25,
        "channel": 9,
        "controllerType": 7,
        "value": 127
      },
      {
        "type": "midi",
        "subType": "controller",
        "typeByte": 185,
        "deltaTime": 361,
        "channel": 9,
        "controllerType": 64,
        "value": 0
      },
      {
        "type": "midi",
        "subType": "pitchBend",
        "typeByte": 233,
        "deltaTime": 1,
        "channel": 9,
        "value": 8192
      },
      {
        "type": "meta",
        "subType": "endOfTrack",
        "typeByte": 255,
        "subTypeByte": 47,
        "deltaTime": 0
      }
    ],
    [
      {
        "type": "meta",
        "typeByte": 255,
        "subTypeByte": 33,
        "deltaTime": 0,
        "data": {}
      },
      {
        "type": "meta",
        "subType": "trackName",
        "typeByte": 255,
        "subTypeByte": 3,
        "deltaTime": 0,
        "text": "Syn Brass 1         "
      },
      {
        "type": "midi",
        "subType": "programChange",
        "typeByte": 198,
        "deltaTime": 0,
        "channel": 6,
        "program": 63
      },
      {
        "type": "midi",
        "subType": "controller",
        "typeByte": 182,
        "deltaTime": 60783,
        "channel": 6,
        "controllerType": 64,
        "value": 0
      },
      {
        "type": "midi",
        "subType": "pitchBend",
        "typeByte": 230,
        "deltaTime": 1,
        "channel": 6,
        "value": 8192
      },
      {
        "type": "meta",
        "subType": "endOfTrack",
        "typeByte": 255,
        "subTypeByte": 47,
        "deltaTime": 0
      }
    ],
    [
      {
        "type": "meta",
        "typeByte": 255,
        "subTypeByte": 33,
        "deltaTime": 0,
        "data": {}
      },
      {
        "type": "meta",
        "subType": "trackName",
        "typeByte": 255,
        "subTypeByte": 3,
        "deltaTime": 0,
        "text": "                    "
      },
      {
        "type": "meta",
        "subType": "endOfTrack",
        "typeByte": 255,
        "subTypeByte": 47,
        "deltaTime": 0
      }
    ],
    [
      {
        "type": "meta",
        "typeByte": 255,
        "subTypeByte": 33,
        "deltaTime": 0,
        "data": {}
      },
      {
        "type": "meta",
        "subType": "trackName",
        "typeByte": 255,
        "subTypeByte": 3,
        "deltaTime": 0,
        "text": "   \"Take On Me\"     "
      },
      {
        "type": "meta",
        "subType": "endOfTrack",
        "typeByte": 255,
        "subTypeByte": 47,
        "deltaTime": 0
      }
    ]
  ]
}